<svg xmlns="http://www.w3.org/2000/svg" viewBox="0 0 24 24" fill="currentColor" aria-hidden="true" data-slot="icon">
  <path fill-rule="evenodd" d="M8.6 4.75a.85.85 0 1 0 0 1.7.85.85 0 0 0 0-1.7m-2.228.1a2.351 2.351 0 0 1 4.456 0H20.6a.75.75 0 1 1 0 1.5h-9.772a2.351 2.351 0 0 1-4.456 0H3a.75.75 0 0 1 0-1.5zM15 11.15a.85.85 0 1 0 0 1.7.85.85 0 0 0 0-1.7m-2.228.1a2.35 2.35 0 0 1 4.456 0H20.6a.75.75 0 1 1 0 1.5h-3.372a2.351 2.351 0 0 1-4.456 0H3a.75.75 0 0 1 0-1.5zM8.6 17.55a.85.85 0 1 0 0 1.7.85.85 0 0 0 0-1.7m-2.228.1a2.351 2.351 0 0 1 4.456 0H20.6a.75.75 0 1 1 0 1.5h-9.772a2.351 2.351 0 0 1-4.456 0H3a.75.75 0 0 1 0-1.5z" clip-rule="evenodd"/>
</svg>
