<svg xmlns="http://www.w3.org/2000/svg" viewBox="0 0 20 20" fill="currentColor" aria-hidden="true" data-slot="icon">
  <path fill-rule="evenodd" d="M10.942 4.524a1.087 1.087 0 0 0-1.883 0l-5.33 9.239c-.418.724.105 1.63.942 1.63h10.66c.836 0 1.36-.906.941-1.63zM8.117 3.98c.837-1.45 2.93-1.45 3.767 0l5.33 9.238c.836 1.45-.21 3.261-1.883 3.261H4.67c-1.674 0-2.72-1.811-1.884-3.26zm1.884 3.802c.3 0 .543.243.543.544v2.717a.544.544 0 0 1-1.087 0V8.327c0-.3.243-.544.544-.544m-.544 5.436c0-.3.243-.544.544-.544h.005c.3 0 .544.243.544.544v.005c0 .3-.244.544-.544.544h-.005a.544.544 0 0 1-.544-.544z" clip-rule="evenodd"/>
</svg>
