<svg xmlns="http://www.w3.org/2000/svg" viewBox="0 0 24 24" fill="currentColor" aria-hidden="true" data-slot="icon">
  <path fill-rule="evenodd" d="M4.515 9.995A7.748 7.748 0 0 1 17.48 6.52l1.417 1.418V5.516a.75.75 0 0 1 1.5 0V9.75a.75.75 0 0 1-.75.75h-4.235a.75.75 0 0 1 0-1.5h2.426l-1.42-1.42a6.248 6.248 0 0 0-10.454 2.802.75.75 0 0 1-1.449-.388m14.438 3.092a.75.75 0 0 1 .53.918A7.748 7.748 0 0 1 6.52 17.48l-1.418-1.42v2.425a.75.75 0 0 1-1.5 0v-4.236a.75.75 0 0 1 .75-.75h4.235a.75.75 0 0 1 0 1.5H6.162l1.419 1.42a6.248 6.248 0 0 0 10.454-2.802.75.75 0 0 1 .918-.53" clip-rule="evenodd"/>
</svg>
