<svg xmlns="http://www.w3.org/2000/svg" viewBox="0 0 24 24" fill="currentColor" aria-hidden="true" data-slot="icon">
  <path fill-rule="evenodd" d="M7.615 6.75a.865.865 0 0 0-.865.865v9.693c0 .478.388.865.865.865h4.308a.865.865 0 0 0 .866-.865v-2.693a.75.75 0 0 1 1.5 0v2.693a2.365 2.365 0 0 1-2.366 2.365H7.615a2.365 2.365 0 0 1-2.365-2.365V7.615A2.365 2.365 0 0 1 7.615 5.25h4.308a2.365 2.365 0 0 1 2.366 2.365v2.693a.75.75 0 0 1-1.5 0V7.615a.865.865 0 0 0-.866-.865zm7.547 3.027a.75.75 0 0 1 1.06 0l2.154 2.154a.75.75 0 0 1 0 1.06l-2.153 2.155a.75.75 0 0 1-1.061-1.06l.873-.875H8.692a.75.75 0 1 1 0-1.5h7.343l-.873-.873a.75.75 0 0 1 0-1.06" clip-rule="evenodd"/>
</svg>
