<svg xmlns="http://www.w3.org/2000/svg" viewBox="0 0 24 24" fill="currentColor" aria-hidden="true" data-slot="icon">
  <path fill-rule="evenodd" d="M7.615 6.75a.865.865 0 0 0-.865.865v9.693c0 .478.388.865.865.865h4.308a.865.865 0 0 0 .866-.865v-2.693a.75.75 0 0 1 1.5 0v2.693a2.365 2.365 0 0 1-2.366 2.365H7.615a2.365 2.365 0 0 1-2.365-2.365V7.615A2.365 2.365 0 0 1 7.615 5.25h4.308a2.365 2.365 0 0 1 2.366 2.365v2.693a.75.75 0 0 1-1.5 0V7.615a.865.865 0 0 0-.866-.865zm3.762 3.027a.75.75 0 0 1 0 1.061l-.874.874h7.343a.75.75 0 0 1 0 1.5h-7.343l.874.873a.75.75 0 1 1-1.061 1.06l-2.154-2.153a.75.75 0 0 1 0-1.06l2.154-2.155a.75.75 0 0 1 1.06 0" clip-rule="evenodd"/>
</svg>
