<svg xmlns="http://www.w3.org/2000/svg" viewBox="0 0 24 24" fill="currentColor" aria-hidden="true" data-slot="icon">
  <path fill-rule="evenodd" d="M14.917 4.25H19a.75.75 0 0 1 .75.75v4.083a.75.75 0 0 1-1.5 0V6.811l-9.22 9.22a.75.75 0 0 1-1.06-1.061l9.22-9.22h-2.273a.75.75 0 0 1 0-1.5M6.75 8.083a1 1 0 0 0-1 1v8.167a1 1 0 0 0 1 1h8.167a1 1 0 0 0 1-1v-6.417a.75.75 0 0 1 1.5 0v6.417a2.5 2.5 0 0 1-2.5 2.5H6.75a2.5 2.5 0 0 1-2.5-2.5V9.083a2.5 2.5 0 0 1 2.5-2.5h6.417a.75.75 0 0 1 0 1.5z" clip-rule="evenodd"/>
</svg>
