<svg xmlns="http://www.w3.org/2000/svg" viewBox="0 0 24 24" fill="currentColor" aria-hidden="true" data-slot="icon">
  <path fill-rule="evenodd" d="M11.846 4.25a.75.75 0 0 1 .53.22l2.154 2.154a.75.75 0 1 1-1.06 1.06l-.874-.873v7.343a.75.75 0 1 1-1.5 0V6.81l-.873.873a.75.75 0 0 1-1.061-1.06l2.154-2.154a.75.75 0 0 1 .53-.22m-3.23 5.808a.865.865 0 0 0-.866.865v6.462c0 .478.388.865.865.865h6.462a.865.865 0 0 0 .865-.865v-6.462a.865.865 0 0 0-.865-.865H14a.75.75 0 0 1 0-1.5h1.077a2.365 2.365 0 0 1 2.365 2.365v6.462a2.365 2.365 0 0 1-2.365 2.365H8.615a2.365 2.365 0 0 1-2.365-2.365v-6.462a2.365 2.365 0 0 1 2.365-2.365h1.077a.75.75 0 1 1 0 1.5z" clip-rule="evenodd"/>
</svg>
