<svg xmlns="http://www.w3.org/2000/svg" viewBox="0 0 24 24" fill="currentColor" aria-hidden="true" data-slot="icon">
  <path fill-rule="evenodd" d="M12 5.75c-1.073 0-1.942.87-1.942 1.942v.327h3.884v-.327c0-1.072-.87-1.942-1.942-1.942m3.442 2.27v-.328a3.442 3.442 0 0 0-6.884 0v.327H7.342c-.797 0-1.465.602-1.549 1.395l-.907 8.615c-.096.92.625 1.721 1.55 1.721h11.128c.925 0 1.646-.801 1.55-1.72l-.908-8.616a1.56 1.56 0 0 0-1.549-1.395zm-1.5 1.5h-3.884v.713a1.02 1.02 0 1 1-1.5 0v-.714H7.342a.06.06 0 0 0-.057.052l-.907 8.615a.06.06 0 0 0 .058.064h11.128c.035 0 .061-.03.058-.064l-.907-8.615a.06.06 0 0 0-.058-.052h-1.215v.714a1.02 1.02 0 1 1-1.5 0z" clip-rule="evenodd"/>
</svg>
