<svg xmlns="http://www.w3.org/2000/svg" viewBox="0 0 24 24" fill="currentColor" aria-hidden="true" data-slot="icon">
  <path fill-rule="evenodd" d="M7.186 4.441a.75.75 0 0 1 .058 1.06A6.23 6.23 0 0 0 5.74 8.623a.75.75 0 0 1-1.48-.248A7.73 7.73 0 0 1 6.127 4.5a.75.75 0 0 1 1.059-.059m9.435 0a.75.75 0 0 1 1.059.059 7.73 7.73 0 0 1 1.866 3.876.75.75 0 0 1-1.48.248A6.23 6.23 0 0 0 16.563 5.5a.75.75 0 0 1 .059-1.059M11.903 5.75a3.917 3.917 0 0 0-3.916 3.917v.583a7.7 7.7 0 0 1-1.309 4.31 17.8 17.8 0 0 0 5.225.773q1.084 0 2.134-.125a18 18 0 0 0 3.09-.648 7.7 7.7 0 0 1-1.307-4.31v-.583a3.917 3.917 0 0 0-3.917-3.917M6.487 9.666a5.417 5.417 0 0 1 10.833 0v.584c0 1.609.606 3.074 1.605 4.182a.75.75 0 0 1-.298 1.205c-1.165.43-2.383.752-3.641.953v.077a3.083 3.083 0 1 1-6.165-.077 19.3 19.3 0 0 1-3.642-.953.75.75 0 0 1-.298-1.205 6.22 6.22 0 0 0 1.605-4.182zm3.836 7.104a1.583 1.583 0 0 0 3.16 0 19.7 19.7 0 0 1-3.16 0" clip-rule="evenodd"/>
</svg>
