<svg xmlns="http://www.w3.org/2000/svg" viewBox="0 0 24 24" fill="currentColor" aria-hidden="true" data-slot="icon">
  <path fill-rule="evenodd" d="M12.465 5.75a3.917 3.917 0 0 0-3.917 3.917v.583a7.7 7.7 0 0 1-1.308 4.31 17.8 17.8 0 0 0 5.224.773q1.085 0 2.134-.125a18 18 0 0 0 3.091-.648 7.7 7.7 0 0 1-1.308-4.31v-.583a3.917 3.917 0 0 0-3.917-3.917M7.047 9.666a5.417 5.417 0 0 1 10.833 0v.584c0 1.608.607 3.074 1.605 4.182a.75.75 0 0 1-.297 1.205c-1.166.43-2.384.752-3.642.953v.077a3.083 3.083 0 1 1-6.165-.077 19.3 19.3 0 0 1-3.642-.953.75.75 0 0 1-.297-1.205 6.22 6.22 0 0 0 1.605-4.182zm3.836 7.104a1.583 1.583 0 0 0 3.16 0 19.7 19.7 0 0 1-3.16 0" clip-rule="evenodd"/>
</svg>
