<svg xmlns="http://www.w3.org/2000/svg" viewBox="0 0 24 24" fill="currentColor" aria-hidden="true" data-slot="icon">
  <path fill-rule="evenodd" d="M4.47 4.47a.75.75 0 0 1 1.06 0l2.057 2.056a5.417 5.417 0 0 1 9.83 3.14v.584c0 1.608.606 3.074 1.604 4.182a.75.75 0 0 1-.297 1.205q-.752.278-1.532.494l2.338 2.339a.75.75 0 1 1-1.06 1.06l-14-14a.75.75 0 0 1 0-1.06m11.486 10.425q.644-.144 1.268-.335a7.7 7.7 0 0 1-1.308-4.31v-.585a3.917 3.917 0 0 0-7.248-2.058zm-8.593-5.02a.75.75 0 0 1 .71.788 7.7 7.7 0 0 1-1.298 3.897 17.8 17.8 0 0 0 5.225.773q.37 0 .738-.015a.75.75 0 0 1 .06 1.5 20 20 0 0 1-2.378-.048 1.583 1.583 0 0 0 3.063.452.75.75 0 0 1 1.405.527 3.084 3.084 0 0 1-5.97-1.16 19.3 19.3 0 0 1-3.642-.952.75.75 0 0 1-.298-1.205 6.22 6.22 0 0 0 1.596-3.848.75.75 0 0 1 .789-.71" clip-rule="evenodd"/>
</svg>
