<svg xmlns="http://www.w3.org/2000/svg" viewBox="0 0 24 24" fill="currentColor" aria-hidden="true" data-slot="icon">
  <path fill-rule="evenodd" d="M3.75 4.5a.75.75 0 0 1 .75-.75h10a.75.75 0 0 1 .125 1.49V7.5H19.5a.75.75 0 0 1 .125 1.49v9.76h.5a.75.75 0 0 1 0 1.5H3.875a.75.75 0 0 1 0-1.5h.5V5.24a.75.75 0 0 1-.625-.74m2.125.75v13.5h1v-2.062c0-.932.756-1.688 1.688-1.688h1.874c.933 0 1.688.755 1.688 1.688v2.062h1V5.25zM14.625 9v9.75h3.5V9zm-4 9.75v-2.062a.187.187 0 0 0-.187-.188H8.562a.187.187 0 0 0-.187.188v2.062zM6.875 7.625a.75.75 0 0 1 .75-.75h.625a.75.75 0 0 1 0 1.5h-.625a.75.75 0 0 1-.75-.75m3.125 0a.75.75 0 0 1 .75-.75h.625a.75.75 0 0 1 0 1.5h-.625a.75.75 0 0 1-.75-.75m-3.125 2.5a.75.75 0 0 1 .75-.75h.625a.75.75 0 0 1 0 1.5h-.625a.75.75 0 0 1-.75-.75m3.125 0a.75.75 0 0 1 .75-.75h.625a.75.75 0 0 1 0 1.5h-.625a.75.75 0 0 1-.75-.75m5.625 1.25a.75.75 0 0 1 .75-.75h.006a.75.75 0 0 1 .75.75v.006a.75.75 0 0 1-.75.75h-.006a.75.75 0 0 1-.75-.75zm-8.75 1.25a.75.75 0 0 1 .75-.75h.625a.75.75 0 0 1 0 1.5h-.625a.75.75 0 0 1-.75-.75m3.125 0a.75.75 0 0 1 .75-.75h.625a.75.75 0 0 1 0 1.5h-.625a.75.75 0 0 1-.75-.75m5.625 1.25a.75.75 0 0 1 .75-.75h.006a.75.75 0 0 1 .75.75v.006a.75.75 0 0 1-.75.75h-.006a.75.75 0 0 1-.75-.75zm0 2.5a.75.75 0 0 1 .75-.75h.006a.75.75 0 0 1 .75.75v.006a.75.75 0 0 1-.75.75h-.006a.75.75 0 0 1-.75-.75z" clip-rule="evenodd"/>
</svg>
