<svg xmlns="http://www.w3.org/2000/svg" viewBox="0 0 24 24" fill="currentColor" aria-hidden="true" data-slot="icon">
  <path fill-rule="evenodd" d="M6.85 5.75a.42.42 0 0 0-.295.122l-.925.925a1.583 1.583 0 1 0 2.308 2.167.75.75 0 0 1 1.124 0c.291.33.715.536 1.188.536s.896-.206 1.188-.536a.75.75 0 0 1 1.124 0c.291.33.715.536 1.188.536s.896-.206 1.188-.536a.75.75 0 0 1 1.124 0q.032.037.068.072a1.584 1.584 0 0 0 2.24-2.239l-.926-.925a.42.42 0 0 0-.294-.122zm-1.355-.939c.359-.359.847-.56 1.355-.56h10.3c.508 0 .996.201 1.355.56l.925.925a3.083 3.083 0 0 1-.263 4.596v7.918h.33a.75.75 0 1 1 0 1.5H4.503a.75.75 0 0 1 0-1.5h.33v-7.918a3.083 3.083 0 0 1-.264-4.596zm.838 6.16v7.28h6.084v-5.084c0-.737.597-1.334 1.333-1.334h2.333c.737 0 1.334.597 1.334 1.334v5.083h.25v-7.278a3.08 3.08 0 0 1-2.168-.516c-.496.343-1.1.544-1.75.544a3.07 3.07 0 0 1-1.75-.545 3.07 3.07 0 0 1-1.75.545 3.07 3.07 0 0 1-1.749-.544 3.08 3.08 0 0 1-2.167.516m9.584 7.28v-4.918h-2v4.917zm-9.334-5.084c0-.737.597-1.334 1.334-1.334h2.916c.737 0 1.334.597 1.334 1.334v2.916c0 .737-.597 1.334-1.334 1.334H7.917a1.333 1.333 0 0 1-1.334-1.334zm1.5.166v2.584h2.584v-2.584z" clip-rule="evenodd"/>
</svg>
