<svg xmlns="http://www.w3.org/2000/svg" viewBox="0 0 24 24" fill="currentColor" aria-hidden="true" data-slot="icon">
  <path fill-rule="evenodd" d="M9.778 4.547a.75.75 0 0 1 .53.22l-.456.457a.5.5 0 0 0-.147 0l-.457-.457a.75.75 0 0 1 .53-.22m-.466 1.217a.47.47 0 0 1 .393-.54l-.457-.457-.196.196a1.028 1.028 0 1 0 1.453 0l-.196-.196-.457.457a.47.47 0 0 1 .393.54l-.467-.467zM12 4.547a.75.75 0 0 1 .53.22l-.456.457a.5.5 0 0 0-.148 0l-.456-.457a.75.75 0 0 1 .53-.22m-.466 1.217a.47.47 0 0 1 .392-.54l-.456-.457-.197.196a1.028 1.028 0 1 0 1.454 0l-.197-.196-.456.457a.47.47 0 0 1 .393.54L12 5.297zm3.218-.997-.457.457a.5.5 0 0 0-.147 0l-.457-.457a.75.75 0 0 1 1.06 0m-.997.997a.47.47 0 0 1 .393-.54l-.457-.457-.196.196a1.028 1.028 0 1 0 1.453 0l-.196-.196-.457.457a.47.47 0 0 1 .393.54l-.466-.467zM9.028 8.189a.75.75 0 1 1 1.5 0v.39q.36-.014.722-.021v-.369a.75.75 0 0 1 1.5 0v.369q.362.008.722.021v-.39a.75.75 0 0 1 1.5 0v.481l.07.006c1.246.103 2.151 1.16 2.151 2.37v1.205l.222.033c1.177.176 2 1.199 2 2.352v3.829c0 .874-.709 1.582-1.583 1.582H6.168a1.583 1.583 0 0 1-1.583-1.583v-3.828c0-1.153.823-2.176 2-2.352l.222-.033v-1.204c0-1.211.905-2.268 2.151-2.371l.07-.006zm-.721 3.88a36.7 36.7 0 0 1 7.386 0v-1.023c0-.47-.346-.84-.775-.875a35 35 0 0 0-5.836 0 .86.86 0 0 0-.775.876zm-2.222 4.554v1.841c0 .046.037.083.083.083h11.664a.083.083 0 0 0 .083-.083v-1.84l-.026.012a3.23 3.23 0 0 1-2.892 0 1.73 1.73 0 0 0-1.55 0 3.23 3.23 0 0 1-2.893 0 1.73 1.73 0 0 0-1.551 0 3.23 3.23 0 0 1-2.892 0zm11.83-1.677-.697.348a1.73 1.73 0 0 1-1.55 0 3.23 3.23 0 0 0-2.893 0 1.73 1.73 0 0 1-1.55 0 3.23 3.23 0 0 0-2.893 0 1.73 1.73 0 0 1-1.55 0l-.697-.348v-.31c0-.447.315-.808.721-.869A35 35 0 0 1 12 13.383a35 35 0 0 1 5.193.384c.407.061.722.422.722.87z" clip-rule="evenodd"/>
</svg>
