<svg xmlns="http://www.w3.org/2000/svg" viewBox="0 0 24 24" fill="currentColor" aria-hidden="true" data-slot="icon">
  <path d="M16.03 1.97a.75.75 0 0 1 0 1.06l-.22.22H19a.75.75 0 0 1 0 1.5h-3.19l.22.22a.75.75 0 0 1-1.06 1.06l-1.5-1.5a.75.75 0 0 1 0-1.06l1.5-1.5a.75.75 0 0 1 1.06 0M10.5 4.25H12a.75.75 0 0 1 0 1.5h-1.5c-.846 0-1.553.6-1.715 1.4a.75.75 0 0 1-.735.6H6c-.69 0-1.25.56-1.25 1.25v8c0 .69.56 1.25 1.25 1.25h12c.69 0 1.25-.56 1.25-1.25v-5a.75.75 0 0 1 1.5 0v5A2.75 2.75 0 0 1 18 19.75H6A2.75 2.75 0 0 1 3.25 17V9A2.75 2.75 0 0 1 6 6.25h1.5a3.25 3.25 0 0 1 3-2"/>
  <path fill-rule="evenodd" d="M16 13a4 4 0 1 1-8 0 4 4 0 0 1 8 0m-1.5 0a2.5 2.5 0 1 1-5 0 2.5 2.5 0 0 1 5 0" clip-rule="evenodd"/>
  <path d="M18.97 9.47a.75.75 0 1 0 1.06 1.06l1.5-1.5a.75.75 0 0 0 0-1.06l-1.5-1.5a.75.75 0 1 0-1.06 1.06l.22.22H16a.75.75 0 0 0 0 1.5h3.19z"/>
</svg>
