<svg xmlns="http://www.w3.org/2000/svg" viewBox="0 0 24 24" fill="currentColor" aria-hidden="true" data-slot="icon">
  <path fill-rule="evenodd" d="M10.013 4.31a42 42 0 0 1 4.52 0 2.61 2.61 0 0 1 2.069 1.234l.697 1.116c.184.296.498.498.861.55q.491.07.98.151c1.272.212 2.156 1.326 2.156 2.58v7.15a2.66 2.66 0 0 1-2.66 2.659H5.91a2.66 2.66 0 0 1-2.659-2.66V9.942c0-1.254.883-2.368 2.156-2.58q.488-.08.98-.151a1.21 1.21 0 0 0 .861-.55l.697-1.116a2.61 2.61 0 0 1 2.07-1.234m2.26 1.44q-1.097 0-2.18.058a1.11 1.11 0 0 0-.876.53L8.52 7.454a2.71 2.71 0 0 1-1.923 1.241q-.474.068-.945.146a1.1 1.1 0 0 0-.902 1.1v7.15c0 .64.519 1.159 1.16 1.159h12.727c.64 0 1.159-.52 1.159-1.16V9.942a1.1 1.1 0 0 0-.903-1.1q-.47-.078-.944-.146a2.71 2.71 0 0 1-1.923-1.24l-.697-1.117a1.11 1.11 0 0 0-.877-.53 41 41 0 0 0-2.18-.058m0 3.818a3.068 3.068 0 1 0 0 6.136 3.068 3.068 0 0 0 0-6.136m-4.568 3.068a4.568 4.568 0 1 1 9.136 0 4.568 4.568 0 0 1-9.136 0m9.545-1.909a.75.75 0 0 1 .75-.75h.006a.75.75 0 0 1 .75.75v.006a.75.75 0 0 1-.75.75H18a.75.75 0 0 1-.75-.75z" clip-rule="evenodd"/>
</svg>
