<svg xmlns="http://www.w3.org/2000/svg" viewBox="0 0 24 24" fill="currentColor" aria-hidden="true" data-slot="icon">
  <path fill-rule="evenodd" d="M10.7 5.75a4.15 4.15 0 0 0-4.079 4.922.75.75 0 0 1-.502.85A3.452 3.452 0 0 0 7.2 18.25h10.5a2.75 2.75 0 0 0 .977-5.322.75.75 0 0 1-.442-.95 2.05 2.05 0 0 0-2.568-2.63.75.75 0 0 1-.956-.519A4.15 4.15 0 0 0 10.7 5.75M5.05 9.9a5.65 5.65 0 0 1 10.884-2.131q.18-.02.366-.019a3.55 3.55 0 0 1 3.513 4.062A4.25 4.25 0 0 1 17.7 19.75H7.2a4.95 4.95 0 0 1-2.134-9.418A6 6 0 0 1 5.05 9.9" clip-rule="evenodd"/>
</svg>
