<svg xmlns="http://www.w3.org/2000/svg" viewBox="0 0 24 24" fill="currentColor" aria-hidden="true" data-slot="icon">
  <path fill-rule="evenodd" d="M12.5 5.75a6.75 6.75 0 1 0 0 13.5 6.75 6.75 0 0 0 0-13.5M4.25 12.5a8.25 8.25 0 1 1 16.5 0 8.25 8.25 0 0 1-16.5 0m8.25-5.75a.75.75 0 0 1 .75.75v.576a3.3 3.3 0 0 1 1.385.636l.346.275a.75.75 0 0 1-.933 1.174l-.346-.275a1.7 1.7 0 0 0-.452-.253v2.187a3.5 3.5 0 0 1 1.468.63c.647.485 1.032 1.174 1.032 1.925 0 .75-.385 1.44-1.032 1.926-.434.325-.944.53-1.468.63v.569a.75.75 0 0 1-1.5 0v-.57a3.5 3.5 0 0 1-1.468-.63l-.732-.549a.75.75 0 1 1 .9-1.2l.732.55c.162.12.355.218.568.286v-2.213a3.3 3.3 0 0 1-1.386-.636c-.62-.493-.974-1.18-.974-1.913s.354-1.42.974-1.913a3.3 3.3 0 0 1 1.386-.636V7.5a.75.75 0 0 1 .75-.75m-.75 2.883a1.7 1.7 0 0 0-.453.253c-.301.24-.407.512-.407.739s.106.499.407.739c.131.104.285.189.453.253zm1.5 3.73v2.024c.213-.068.406-.165.568-.286.329-.247.432-.517.432-.726 0-.21-.103-.48-.432-.726a1.9 1.9 0 0 0-.568-.286" clip-rule="evenodd"/>
</svg>
