<svg xmlns="http://www.w3.org/2000/svg" viewBox="0 0 24 24" fill="currentColor" aria-hidden="true" data-slot="icon">
  <path fill-rule="evenodd" d="M9.75 7.75a2.25 2.25 0 1 1 4.5 0 2.25 2.25 0 0 1-4.5 0M12 4a3.75 3.75 0 1 0 0 7.5A3.75 3.75 0 0 0 12 4m8.5 5.75a1.5 1.5 0 1 1-3 0 1.5 1.5 0 0 1 3 0m1.5 0a3 3 0 1 1-6 0 3 3 0 0 1 6 0m-17 1.5a1.5 1.5 0 1 0 0-3 1.5 1.5 0 0 0 0 3m0 1.5a3 3 0 1 0 0-6 3 3 0 0 0 0 6m-.624 3.184a.75.75 0 0 0-.752-1.298A4.75 4.75 0 0 0 1.25 18.75v1a.75.75 0 0 0 1.5 0v-1c0-1.202.652-2.253 1.626-2.816M19.35 14.91a.75.75 0 0 0 .274 1.024 3.25 3.25 0 0 1 1.625 2.816v1a.75.75 0 0 0 1.5 0v-1c0-1.76-.957-3.294-2.375-4.114a.75.75 0 0 0-1.024.274M10 13a4.75 4.75 0 0 0-4.75 4.75v2a.75.75 0 0 0 1.5 0v-2A3.25 3.25 0 0 1 10 14.5h4a3.25 3.25 0 0 1 3.25 3.25v2a.75.75 0 0 0 1.5 0v-2A4.75 4.75 0 0 0 14 13z" clip-rule="evenodd"/>
</svg>
