<svg xmlns="http://www.w3.org/2000/svg" viewBox="0 0 24 24" fill="currentColor" aria-hidden="true" data-slot="icon">
  <path fill-rule="evenodd" d="M2.25 5.09c0-.98.766-1.84 1.788-1.84h15.924c1.022 0 1.788.86 1.788 1.84V16c0 .982-.766 1.84-1.788 1.84h-5.827v1.41h3.403a.75.75 0 0 1 0 1.5H6.462a.75.75 0 0 1 0-1.5h3.403v-1.41H4.038c-1.022 0-1.788-.858-1.788-1.84zm9.115 12.75v1.41h1.27v-1.41zm-7.327-1.5c-.124 0-.288-.116-.288-.34V5.09c0-.223.164-.34.288-.34h15.924c.125 0 .288.117.288.34V16c0 .224-.163.34-.288.34z" clip-rule="evenodd"/>
</svg>
