<svg xmlns="http://www.w3.org/2000/svg" viewBox="0 0 24 24" fill="currentColor" aria-hidden="true" data-slot="icon">
  <path fill-rule="evenodd" d="M11.77 5.75q-2.141.002-4.217.243a.926.926 0 0 0-.803.935v11.964l1.856-.742a.75.75 0 0 1 .557 0l2.606 1.042 2.606-1.042a.75.75 0 0 1 .557 0l1.856.742V6.928a.926.926 0 0 0-.803-.935 37 37 0 0 0-4.216-.243M7.38 4.503a38 38 0 0 1 8.778 0c1.243.144 2.13 1.211 2.13 2.425V20a.75.75 0 0 1-1.028.696l-2.606-1.042-2.606 1.042a.75.75 0 0 1-.557 0l-2.606-1.042-2.606 1.042A.75.75 0 0 1 5.25 20V6.928c0-1.214.887-2.28 2.13-2.425m7.227 4.582a.75.75 0 0 1 0 1.06l-4.615 4.616a.75.75 0 1 1-1.06-1.06l4.615-4.616a.75.75 0 0 1 1.06 0M9 10.192a1.038 1.038 0 1 1 2.077 0 1.038 1.038 0 0 1-2.077 0m3.461 3.462a1.038 1.038 0 1 1 2.077 0 1.038 1.038 0 0 1-2.077 0" clip-rule="evenodd"/>
</svg>
