<svg xmlns="http://www.w3.org/2000/svg" viewBox="0 0 37 37" fill="currentColor" aria-hidden="true" data-slot="icon">
  <path fill-rule="evenodd" d="M11.958 9.462c0-.048.04-.087.087-.087h4.846a2.51 2.51 0 0 1 2.51 2.51V13.5a2.337 2.337 0 0 0 2.336 2.336h1.616a2.51 2.51 0 0 1 2.51 2.51v9.692a.086.086 0 0 1-.087.087H12.045a.086.086 0 0 1-.087-.087zm-2.25 0a2.337 2.337 0 0 1 2.337-2.337h5.25c5.974 0 10.817 4.843 10.817 10.817v10.096a2.337 2.337 0 0 1-2.336 2.337H12.045a2.337 2.337 0 0 1-2.337-2.337zm11.943 2.423c0-.506-.08-.993-.225-1.45a8.6 8.6 0 0 1 3.376 3.376 4.8 4.8 0 0 0-1.45-.225h-1.615a.086.086 0 0 1-.086-.086zm1.935 9.201a1.125 1.125 0 0 0-1.505-1.672l-4.223 3.8-1.745-1.676a1.125 1.125 0 0 0-1.559 1.624l2.5 2.4a1.125 1.125 0 0 0 1.532.024z" clip-rule="evenodd"/>
</svg>
