<svg xmlns="http://www.w3.org/2000/svg" viewBox="0 0 24 24" fill="currentColor" aria-hidden="true" data-slot="icon">
  <path d="M5.5 5.25a.25.25 0 0 0-.25.25v13c0 .138.112.25.25.25h4v1.5h-4a1.75 1.75 0 0 1-1.75-1.75v-13c0-.966.784-1.75 1.75-1.75H15c.966 0 1.75.784 1.75 1.75v4h-1.5v-4a.25.25 0 0 0-.25-.25z"/>
  <path fill-rule="evenodd" d="M10.478 20.153v-2.478l2.81-2.81a3.505 3.505 0 1 1 2.478 2.479l-2.81 2.81zm4.228-3.87a1.5 1.5 0 0 1 1.448-.39 2.005 2.005 0 1 0-1.416-1.416 1.5 1.5 0 0 1-.389 1.448l-2.37 2.371v.357h.357z" clip-rule="evenodd"/>
  <path d="M7 6.25a.75.75 0 0 0 0 1.5h6.5a.75.75 0 0 0 0-1.5zM7 9.25a.75.75 0 0 0 0 1.5h6.5a.75.75 0 0 0 0-1.5zM7 12.25a.75.75 0 0 0 0 1.5h3.5a.75.75 0 0 0 0-1.5z"/>
</svg>
