<svg xmlns="http://www.w3.org/2000/svg" viewBox="0 0 24 24" fill="currentColor" aria-hidden="true" data-slot="icon">
  <path fill-rule="evenodd" d="M3 7.7A2.7 2.7 0 0 1 5.7 5h13a2.7 2.7 0 0 1 2.7 2.7v9.1a2.7 2.7 0 0 1-2.7 2.7h-13A2.7 2.7 0 0 1 3 16.8zm1.5 0v.21c0 .417.216.804.571 1.022l6.5 4a1.2 1.2 0 0 0 1.258 0l6.5-4A1.2 1.2 0 0 0 19.9 7.91V7.7a1.2 1.2 0 0 0-1.2-1.2h-13a1.2 1.2 0 0 0-1.2 1.2m15.4 2.642-6.285 3.868a2.7 2.7 0 0 1-2.83 0L4.5 10.342V16.8A1.2 1.2 0 0 0 5.7 18h13a1.2 1.2 0 0 0 1.2-1.2z" clip-rule="evenodd"/>
</svg>
