<svg xmlns="http://www.w3.org/2000/svg" viewBox="0 0 24 24" fill="currentColor" aria-hidden="true" data-slot="icon">
  <path fill-rule="evenodd" d="M12 3.875a.75.75 0 0 1 .75.75V9.51l1.154-1.154a.75.75 0 0 1 1.061 1.06l-2.435 2.435a.75.75 0 0 1-1.06 0L9.035 9.416a.75.75 0 0 1 1.06-1.06L11.25 9.51V4.625a.75.75 0 0 1 .75-.75M7.87 5.984c-.472 0-.89.308-1.028.76l-1.74 5.653H7.22c.976 0 1.868.551 2.304 1.424l.208.416c.183.364.555.595.963.595h2.612c.408 0 .78-.23.963-.595l.208-.416a2.58 2.58 0 0 1 2.304-1.424h2.117l-1.74-5.654a1.08 1.08 0 0 0-1.029-.76h-1.694a.75.75 0 0 1 0-1.5h1.694c1.131 0 2.13.738 2.463 1.82l1.957 6.36q.027.086.046.172a.75.75 0 0 1 .062.408q.006.09.006.178V16.8a2.576 2.576 0 0 1-2.576 2.576H5.913a2.576 2.576 0 0 1-2.576-2.576V13.42q0-.089.006-.178a.76.76 0 0 1 .061-.408q.021-.086.047-.171l1.957-6.362A2.58 2.58 0 0 1 7.87 4.484h1.695a.75.75 0 1 1 0 1.5zm-3.033 7.913v2.902c0 .594.482 1.076 1.076 1.076h12.174c.594 0 1.076-.482 1.076-1.076v-2.902h-2.382c-.408 0-.78.23-.963.595l-.208.415a2.58 2.58 0 0 1-2.304 1.424h-2.612a2.58 2.58 0 0 1-2.304-1.423l-.208-.416a1.08 1.08 0 0 0-.963-.595z" clip-rule="evenodd"/>
</svg>
