<svg xmlns="http://www.w3.org/2000/svg" viewBox="0 0 24 24" fill="currentColor" aria-hidden="true" data-slot="icon">
  <path fill-rule="evenodd" d="M3.417 3.47a.75.75 0 0 1 1.06 0l2.45 2.45a10.04 10.04 0 0 1 5.02-1.337c4.569 0 8.426 3.038 9.665 7.202a.75.75 0 0 1 0 .428 10.1 10.1 0 0 1-3.383 5.008l2.249 2.249a.75.75 0 1 1-1.061 1.06l-16-16a.75.75 0 0 1 0-1.06M17.16 16.152A8.6 8.6 0 0 0 20.108 12 8.587 8.587 0 0 0 8.033 7.025l2.087 2.087a3.417 3.417 0 0 1 4.714 4.714zm-3.435-3.435a1.917 1.917 0 0 0-2.496-2.495zM5.303 8.07a.75.75 0 0 1 .088 1.057A8.6 8.6 0 0 0 3.786 12a8.587 8.587 0 0 0 10.501 5.593.75.75 0 1 1 .408 1.443c-.874.248-1.797.38-2.749.38-4.568 0-8.425-3.038-9.665-7.202a.75.75 0 0 1 0-.428 10.1 10.1 0 0 1 1.965-3.63.75.75 0 0 1 1.057-.087" clip-rule="evenodd"/>
</svg>
