<svg xmlns="http://www.w3.org/2000/svg" viewBox="0 0 24 24" fill="currentColor" aria-hidden="true" data-slot="icon">
  <path fill-rule="evenodd" d="M11.904 5.75a8.59 8.59 0 0 0-8.146 5.872.15.15 0 0 0 0 .094 8.587 8.587 0 0 0 16.291-.005.15.15 0 0 0 0-.094 8.59 8.59 0 0 0-8.145-5.867m-9.57 5.399C3.667 7.14 7.447 4.25 11.904 4.25c4.455 0 8.233 2.889 9.568 6.893.113.338.113.704 0 1.042-1.333 4.007-5.113 6.898-9.57 6.898-4.454 0-8.233-2.888-9.567-6.893a1.65 1.65 0 0 1 0-1.041m9.57-1.399a1.917 1.917 0 1 0 0 3.833 1.917 1.917 0 0 0 0-3.833m-3.417 1.917a3.417 3.417 0 1 1 6.833 0 3.417 3.417 0 0 1-6.833 0" clip-rule="evenodd"/>
</svg>
