<svg xmlns="http://www.w3.org/2000/svg" viewBox="0 0 24 24" fill="currentColor" aria-hidden="true" data-slot="icon">
  <path d="M12 18.667A6.674 6.674 0 0 0 18.667 12 6.674 6.674 0 0 0 12 5.333 6.674 6.674 0 0 0 5.334 12 6.674 6.674 0 0 0 12 18.667M14.33 10a.995.995 0 0 1 .72 1.71.996.996 0 1 1-.72-1.71m-2.868 4.613c.356.071.722.071 1.078 0q.254-.053.5-.156c.156-.066.31-.149.453-.245q.208-.143.393-.326t.326-.395l1.106.745a4.001 4.001 0 0 1-5.553 1.08 4 4 0 0 1-1.081-1.08l1.105-.745q.144.212.325.393c.369.37.837.623 1.348.729M9.667 10a1 1 0 0 1 1 1 1 1 0 1 1-1-1"/>
  <path fill-rule="evenodd" d="M6 22H2v-4H0v5a1 1 0 0 0 1 1h5zM2 6V2h4V0H1a1 1 0 0 0-1 1v5zM18 2h4v4h2V1a1 1 0 0 0-1-1h-5zM22 18v4h-4v2h5a1 1 0 0 0 1-1v-5z" clip-rule="evenodd"/>
</svg>
