<svg xmlns="http://www.w3.org/2000/svg" viewBox="0 0 24 24" fill="currentColor" aria-hidden="true" data-slot="icon">
  <path fill-rule="evenodd" d="M7.808 5.75a.06.06 0 0 0-.058.058v12.384c0 .032.026.058.058.058h9.154a.06.06 0 0 0 .057-.058v-6.461c0-.924-.749-1.673-1.673-1.673H14.27c-.86 0-1.558-.698-1.558-1.558V7.423c0-.924-.748-1.673-1.672-1.673zm0-1.5c-.86 0-1.558.697-1.558 1.558v12.384c0 .86.697 1.558 1.558 1.558h9.154c.86 0 1.557-.697 1.557-1.558v-6.73a7.21 7.21 0 0 0-7.211-7.212zm6.254 2.207c.097.304.15.63.15.966V8.5c0 .032.025.058.057.058h1.077q.507.001.967.15a5.74 5.74 0 0 0-2.251-2.251m-5.12 7.697a.75.75 0 0 1 .75-.75h5.385a.75.75 0 0 1 0 1.5H9.692a.75.75 0 0 1-.75-.75m0 2.154a.75.75 0 0 1 .75-.75h2.693a.75.75 0 0 1 0 1.5H9.692a.75.75 0 0 1-.75-.75" clip-rule="evenodd"/>
</svg>
