<svg xmlns="http://www.w3.org/2000/svg" viewBox="0 0 24 24" fill="currentColor" aria-hidden="true" data-slot="icon">
  <path d="M14.743 24c-.22 0-.436-.054-.629-.156a1.27 1.27 0 0 1-.469-.43 1.2 1.2 0 0 1-.058-1.199 24.7 24.7 0 0 0 1.795-4.405 1.2 1.2 0 0 1 .217-.45c.104-.133.234-.246.385-.33a1.34 1.34 0 0 1 1.007-.125c.168.045.325.122.46.227.136.105.249.235.33.382a1.2 1.2 0 0 1 .086.966 27 27 0 0 1-1.965 4.857c-.11.201-.278.37-.482.487a1.35 1.35 0 0 1-.677.176m-5.587-.328a1.35 1.35 0 0 1-.687-.19 1.24 1.24 0 0 1-.57-.77 1.19 1.19 0 0 1 .164-.93 19.8 19.8 0 0 0 3.272-10.895c0-.327.136-.641.378-.873.243-.231.571-.361.914-.361s.672.13.914.361c.242.232.378.546.378.873.01 4.319-1.258 8.552-3.655 12.214a1.3 1.3 0 0 1-.476.422c-.194.1-.412.151-.632.149m-4.331-2.469a1.34 1.34 0 0 1-.649-.168 1.26 1.26 0 0 1-.472-.457 1.19 1.19 0 0 1 .013-1.24l.067-.11a15.05 15.05 0 0 0 2.514-8.344 5.8 5.8 0 0 1 .437-2.36 6 6 0 0 1 1.362-2.011 6.4 6.4 0 0 1 2.073-1.35 6.6 6.6 0 0 1 4.918 0 6.4 6.4 0 0 1 2.073 1.35 6 6 0 0 1 1.361 2.012c.31.75.458 1.552.438 2.359q-.001 1.902-.266 3.787a1.23 1.23 0 0 1-.498.817 1.34 1.34 0 0 1-1.812-.234 1.2 1.2 0 0 1-.253-.914q.244-1.72.244-3.456c.016-.48-.07-.957-.25-1.404a3.6 3.6 0 0 0-.805-1.2 3.8 3.8 0 0 0-1.23-.805 3.9 3.9 0 0 0-2.922 0c-.463.187-.881.46-1.23.805-.35.345-.623.752-.804 1.2a3.4 3.4 0 0 0-.251 1.404 17.44 17.44 0 0 1-2.891 9.635l-.052.085a1.3 1.3 0 0 1-.472.443 1.34 1.34 0 0 1-.64.163zm16.616-.483a1.3 1.3 0 0 1-.562-.139 1.3 1.3 0 0 1-.441-.36 1.18 1.18 0 0 1-.204-1.063 29 29 0 0 0 1.196-8.27 8.1 8.1 0 0 0-.665-3.221 8.4 8.4 0 0 0-1.907-2.732 8.8 8.8 0 0 0-2.857-1.825 9.2 9.2 0 0 0-3.37-.641 9.1 9.1 0 0 0-4.394 1.128c-.297.165-.65.21-.981.125a1.29 1.29 0 0 1-.786-.574 1.19 1.19 0 0 1-.13-.937c.088-.317.304-.587.6-.75A11.76 11.76 0 0 1 12.63 0c3.02.005 5.914 1.155 8.046 3.197S24.004 8.007 24 10.89a31.4 31.4 0 0 1-1.296 8.94c-.077.259-.24.486-.465.648a1.33 1.33 0 0 1-.78.248zm-20.15-3.333c-.194 0-.386-.042-.561-.123a1.26 1.26 0 0 1-.658-.705 1.18 1.18 0 0 1 .056-.942 10.4 10.4 0 0 0 1.13-4.73c0-1.91.525-3.786 1.521-5.442.172-.283.454-.49.785-.576.332-.085.685-.04.982.123.297.164.514.434.603.75.09.317.043.654-.128.938a8.1 8.1 0 0 0-1.178 4.207 12.7 12.7 0 0 1-1.389 5.805 1.25 1.25 0 0 1-.476.509 1.33 1.33 0 0 1-.687.186"/>
</svg>
