<svg xmlns="http://www.w3.org/2000/svg" viewBox="0 0 24 24" fill="currentColor" aria-hidden="true" data-slot="icon">
  <path fill-rule="evenodd" d="M12.498 4.75a5.6 5.6 0 0 0-3.163.976.75.75 0 1 1-.844-1.24 7.1 7.1 0 0 1 4.007-1.236c4.024 0 7.252 3.342 7.252 7.423 0 2.69-.5 5.264-1.409 7.626a.75.75 0 0 1-1.4-.54 19.7 19.7 0 0 0 1.309-7.086c0-3.29-2.593-5.923-5.752-5.923M7.481 6.363A.75.75 0 0 1 7.704 7.4a6 6 0 0 0-.957 3.273 7.5 7.5 0 0 1-1.108 3.945.75.75 0 1 1-1.278-.785 6 6 0 0 0 .886-3.16c0-1.508.44-2.913 1.197-4.087a.75.75 0 0 1 1.037-.223m5.017 1.723c-1.362 0-2.5 1.14-2.5 2.587a10.87 10.87 0 0 1-2.712 7.215.75.75 0 0 1-1.124-.993 9.37 9.37 0 0 0 2.336-6.222c0-2.239 1.773-4.087 4-4.087S16.5 8.434 16.5 10.673q0 .733-.058 1.452a.75.75 0 0 1-1.495-.12q.053-.66.053-1.332c0-1.447-1.138-2.587-2.5-2.587m0 1.837a.75.75 0 0 1 .75.75c0 3.492-1.24 6.691-3.295 9.155a.75.75 0 1 1-1.152-.96 12.75 12.75 0 0 0 2.948-8.195.75.75 0 0 1 .75-.75m2.83 4.613c.4.11.633.524.522.923a17.6 17.6 0 0 1-2.25 4.953.75.75 0 1 1-1.253-.824 16 16 0 0 0 2.058-4.53.75.75 0 0 1 .924-.522" clip-rule="evenodd"/>
</svg>
