<svg xmlns="http://www.w3.org/2000/svg" viewBox="0 0 24 24" fill="currentColor" aria-hidden="true" data-slot="icon">
  <g clip-path="url(#a)">
    <path d="M2 2v4H0V1a1 1 0 0 1 1-1h5v2zM2 22h4v2H1a1 1 0 0 1-1-1v-5h2zM18 2h4v4h2V1a1 1 0 0 0-1-1h-5zM22 22v-4h2v5a1 1 0 0 1-1 1h-5v-2zM9.928 6.593a5.089 5.089 0 0 1 7.894 4.246 16.7 16.7 0 0 1-1.167 6.16.75.75 0 0 0 1.395.552 18.2 18.2 0 0 0 1.273-6.712A6.589 6.589 0 0 0 9.1 5.342a.75.75 0 1 0 .828 1.25M8.488 8.033a.75.75 0 0 0-1.25-.828 6.56 6.56 0 0 0-1.093 3.634c0 .997-.285 1.925-.78 2.708a.75.75 0 0 0 1.27.8 6.56 6.56 0 0 0 1.01-3.508c0-1.039.31-2.002.843-2.806"/>
    <path d="M10.565 10.839a2.17 2.17 0 0 1 4.338 0q0 .585-.047 1.156a.75.75 0 1 0 1.495.123q.052-.633.052-1.28a3.67 3.67 0 0 0-7.338 0c0 2.07-.784 3.955-2.072 5.376a.75.75 0 0 0 1.111 1.007 9.48 9.48 0 0 0 2.46-6.382"/>
    <path d="M13.484 10.839a.75.75 0 0 0-1.5 0c0 2.712-.987 5.192-2.623 7.103a.75.75 0 0 0 1.14.975 12.38 12.38 0 0 0 2.983-8.078M15.816 15.057a.75.75 0 0 0-1.442-.412 13.8 13.8 0 0 1-1.835 3.935.75.75 0 0 0 1.243.84 15.3 15.3 0 0 0 2.034-4.363"/>
  </g>
  <defs>
    <clipPath id="a">
      <path d="M0 0h24v24H0z"/>
    </clipPath>
  </defs>
</svg>
