<svg xmlns="http://www.w3.org/2000/svg" viewBox="0 0 273 72" fill="currentColor" aria-hidden="true" data-slot="icon">
  <g clip-path="url(#a)">
    <path d="M23.89 4.19H4.704v.508a5.02 5.02 0 0 0-3.323 1.565 5.07 5.07 0 0 0-1.38 3.418v53.632c-.011.665.103 1.325.336 1.947a5 5 0 0 0 1.823 2.303c.824.567 1.799.87 2.797.871a4.96 4.96 0 0 0 2.796-.872 5 5 0 0 0 1.824-2.302c.242-.62.357-1.281.337-1.947v-21.16h13.27c10.42 0 19.155-8.528 19.155-18.495 0-10.602-8.483-19.468-18.449-19.468m-.705 27.869H9.914V14.284H23.89c4.42 0 8.42 4.433 8.42 9.342 0 4.412-4.21 8.433-9.125 8.433M78.12 4.073a31.78 31.78 0 0 0-20.24 7.25 32.1 32.1 0 0 0-11.07 18.514 32.2 32.2 0 0 0 3.126 21.371 31.95 31.95 0 0 0 15.901 14.527 31.73 31.73 0 0 0 21.46 1.087 31.9 31.9 0 0 0 17.273-12.846 32.2 32.2 0 0 0 5.246-20.948 32.13 32.13 0 0 0-9.163-19.538A31.8 31.8 0 0 0 90.32 6.524a31.7 31.7 0 0 0-12.2-2.45m0 53.887a21.7 21.7 0 0 1-13.84-4.913 21.9 21.9 0 0 1-7.594-12.626 22 22 0 0 1 2.1-14.604 21.82 21.82 0 0 1 10.842-9.946 21.67 21.67 0 0 1 14.657-.769 21.8 21.8 0 0 1 11.813 8.757 21.98 21.98 0 0 1-2.644 27.657 21.7 21.7 0 0 1-7.03 4.755 21.6 21.6 0 0 1-8.303 1.689M204 4.19h-39.518a5.09 5.09 0 0 0-4.21 1.058 5.17 5.17 0 0 0-1.82 3.957v38.82L126.374 6.137c0-.085 0-.085-.084-.085s-.084-.17-.169-.254l-.147-.17-.168-.168-.169-.17c-.084 0-.084-.084-.168-.084s-.169-.17-.253-.17-.084-.084-.168-.169-.168-.085-.253-.085l-.168-.169c-.084 0-.168-.085-.253-.085s-.168-.084-.252-.084a.37.37 0 0 1-.169-.085l-.315-.084a.26.26 0 0 1-.169-.085h-.252a.3.3 0 0 1-.137 0 .5.5 0 0 1-.116-.074h-1.052a.3.3 0 0 0-.137 0 .25.25 0 0 0-.116.063h-.389a.4.4 0 0 0-.116.074h-.253a.4.4 0 0 1-.115.074h-.074c-.084.085-.084.085-.168.085l-.253.17a.3.3 0 0 0-.137 0l-.116.073c-.073 0-.157.085-.242.085s-.094.085-.168.17c-.074.084-.168.084-.253.169h-.105l-.168.169-.169.17-.326.295-.252.254a.3.3 0 0 0-.085.17l-.168.169a.3.3 0 0 0-.084.17c-.084.084-.169.169-.169.243a.4.4 0 0 0-.063.127.3.3 0 0 0 0 .137l-.168.243c0 .085-.074.17-.074.254a.3.3 0 0 0-.095.17.3.3 0 0 1 0 .137.3.3 0 0 1-.073.117v.254a.25.25 0 0 0-.063.116.3.3 0 0 0 0 .137v.265c0 .085 0 .17-.074.17V63.06a4.9 4.9 0 0 0 .316 2.01c.238.621.596 1.189 1.052 1.672a5.122 5.122 0 0 0 5.59 1.103 5.15 5.15 0 0 0 2.302-1.895c.565-.846.869-1.84.875-2.859V24.293l32.088 41.888v.084c.084.085.168.254.316.328.084.17.252.244.336.318s.169.085.169.17c0 .084.168.084.326.168 0 .085.084.085.168.085.085 0 .169.17.253.17q.052.046.116.073.069.015.137 0c.084.085.168.17.252.17q.097.017.169.084c.168 0 .252.085.421.085s.084 0 .168.085h.41l.085.084h.589a1.6 1.6 0 0 0 .673-.084h.169c.26-.014.516-.071.758-.17h.084c.252-.084.421-.254.673-.338q.356-.182.674-.423h.084a.17.17 0 0 1 .053-.117.2.2 0 0 1 .115 0c.085-.085.085-.17.169-.17s.084-.168.168-.168.169-.16.169-.254c0-.096.073-.085.157-.17.085-.084.085-.084.179-.158q0-.05.021-.096a.2.2 0 0 1 .064-.074l.2-.222c0-.085.084-.159.084-.243a.3.3 0 0 0 .063-.117.4.4 0 0 0 0-.137l.168-.254a.2.2 0 0 1 .021-.095.2.2 0 0 1 .063-.074v-.254a.4.4 0 0 0 .074-.117.6.6 0 0 0 0-.137.3.3 0 0 1 0-.138.4.4 0 0 1 .074-.116v-.762h.063v-48.67h9.324v48.617c0 1.355.536 2.655 1.489 3.614a5.069 5.069 0 0 0 7.189 0 5.13 5.13 0 0 0 1.489-3.614V14.411h15.786a5.07 5.07 0 0 0 3.594-1.497 5.12 5.12 0 0 0 1.489-3.614 5.12 5.12 0 0 0-1.489-3.613 5.07 5.07 0 0 0-3.594-1.497zM246.086 72a3.67 3.67 0 0 1-1.791-.47 3.7 3.7 0 0 1-1.338-1.285 3.72 3.72 0 0 1-.165-3.599 76.3 76.3 0 0 0 5.115-13.215 3.7 3.7 0 0 1 3.113-2.826 3.66 3.66 0 0 1 2.786.791 3.7 3.7 0 0 1 1.357 2.57c.042.499-.017 1-.174 1.476a83.4 83.4 0 0 1-5.598 14.569 3.7 3.7 0 0 1-1.375 1.46 3.7 3.7 0 0 1-1.93.529m-15.923-.984a3.7 3.7 0 0 1-1.958-.571 3.7 3.7 0 0 1-1.627-2.31 3.72 3.72 0 0 1 .47-2.79 61.7 61.7 0 0 0 9.324-32.683c0-.982.388-1.924 1.079-2.619a3.673 3.673 0 0 1 5.209 0 3.71 3.71 0 0 1 1.079 2.619 69.1 69.1 0 0 1-10.419 36.64 3.7 3.7 0 0 1-3.157 1.714m-12.345-7.406a3.67 3.67 0 0 1-1.849-.506 3.713 3.713 0 0 1-1.308-5.092l.189-.327a46.87 46.87 0 0 0 7.167-25.034 18.25 18.25 0 0 1 1.246-7.077 18.2 18.2 0 0 1 3.882-6.036 18 18 0 0 1 5.908-4.047 17.97 17.97 0 0 1 14.015 0 18.05 18.05 0 0 1 5.909 4.047 18.15 18.15 0 0 1 3.881 6.036 18.2 18.2 0 0 1 1.247 7.077 86 86 0 0 1-.758 11.364 3.7 3.7 0 0 1-1.42 2.45 3.67 3.67 0 0 1-5.164-.703 3.72 3.72 0 0 1-.72-2.742c.463-3.437.695-6.9.695-10.369a10.78 10.78 0 0 0-3.006-7.81 10.7 10.7 0 0 0-3.506-2.416 10.63 10.63 0 0 0-8.33 0 10.7 10.7 0 0 0-3.506 2.416 10.76 10.76 0 0 0-3.006 7.81 54.3 54.3 0 0 1-8.24 28.906l-.148.254a3.683 3.683 0 0 1-3.167 1.82zm47.359-1.45a3.678 3.678 0 0 1-3.517-3.025 3.7 3.7 0 0 1 .075-1.662 91.4 91.4 0 0 0 3.41-24.811A25.3 25.3 0 0 0 263.248 23a25.2 25.2 0 0 0-5.433-8.194 25.1 25.1 0 0 0-8.142-5.476 25 25 0 0 0-9.607-1.924 24.95 24.95 0 0 0-12.524 3.386 3.67 3.67 0 0 1-2.795.374 3.68 3.68 0 0 1-2.24-1.723 3.72 3.72 0 0 1 1.341-5.063A32.2 32.2 0 0 1 240.066 0a32.37 32.37 0 0 1 22.931 9.59 32.72 32.72 0 0 1 9.473 23.082 98.7 98.7 0 0 1-3.694 26.822 3.7 3.7 0 0 1-1.325 1.941 3.67 3.67 0 0 1-2.222.746zm-57.431-9.998a3.6 3.6 0 0 1-1.599-.37 3.7 3.7 0 0 1-1.875-2.114 3.73 3.73 0 0 1 .159-2.828 32.5 32.5 0 0 0 3.221-14.188 32.93 32.93 0 0 1 4.336-16.326 3.7 3.7 0 0 1 2.237-1.728 3.67 3.67 0 0 1 2.798.369 3.7 3.7 0 0 1 1.72 2.25 3.73 3.73 0 0 1-.367 2.812 25.3 25.3 0 0 0-3.357 12.623 39.8 39.8 0 0 1-3.957 17.415 3.7 3.7 0 0 1-1.358 1.524 3.65 3.65 0 0 1-1.958.56"/>
  </g>
  <defs>
    <clipPath id="a">
      <path d="M0 0h272.471v72H0z"/>
    </clipPath>
  </defs>
</svg>
