<svg xmlns="http://www.w3.org/2000/svg" viewBox="0 0 20 20" fill="currentColor" aria-hidden="true" data-slot="icon">
  <path fill-rule="evenodd" d="M13.561 6.44a5.625 5.625 0 1 0 0 7.954.625.625 0 0 1 .884.884 6.875 6.875 0 1 1 2.014-4.861c0 .697-.212 1.353-.583 1.848-.372.495-.933.86-1.605.86-.612 0-1.132-.303-1.5-.73a3.75 3.75 0 1 1-.663-4.752.625.625 0 0 1 1.226.17v2.604c0 .453.138.839.332 1.098.194.258.414.36.605.36.19 0 .41-.102.605-.36.194-.259.333-.645.333-1.098 0-1.44-.55-2.88-1.648-3.978m-1.477 3.977a2.5 2.5 0 1 0-5 0 2.5 2.5 0 0 0 5 0" clip-rule="evenodd"/>
</svg>
