<svg xmlns="http://www.w3.org/2000/svg" viewBox="0 0 25 24" fill="currentColor" aria-hidden="true" data-slot="icon">
  <path fill-rule="evenodd" d="M23.54 12.262c0-.815-.073-1.6-.21-2.352H12.5v4.449h6.19a5.3 5.3 0 0 1-2.296 3.47v2.886h3.717c2.174-2.002 3.429-4.95 3.429-8.453" clip-rule="evenodd"/>
  <path fill-rule="evenodd" d="M12.5 23.499c3.105 0 5.709-1.03 7.611-2.786l-3.716-2.886c-1.03.69-2.347 1.098-3.894 1.098-2.996 0-5.531-2.023-6.435-4.741H2.224v2.98A11.5 11.5 0 0 0 12.5 23.498" clip-rule="evenodd"/>
  <path fill-rule="evenodd" d="M6.065 14.186A6.9 6.9 0 0 1 5.705 12c0-.758.13-1.495.36-2.186v-2.98H2.223A11.5 11.5 0 0 0 1 12.002c0 1.855.444 3.612 1.223 5.164z" clip-rule="evenodd"/>
  <path fill-rule="evenodd" d="M12.5 5.074c1.689 0 3.205.58 4.397 1.72l3.298-3.299C18.203 1.64 15.6.5 12.501.5A11.5 11.5 0 0 0 2.224 6.835l3.842 2.98c.904-2.718 3.44-4.741 6.435-4.741" clip-rule="evenodd"/>
</svg>
