<svg xmlns="http://www.w3.org/2000/svg" viewBox="0 0 24 24" fill="currentColor" aria-hidden="true" data-slot="icon">
  <path fill-rule="evenodd" d="M12.25 5.5a6.75 6.75 0 1 0 0 13.5 6.75 6.75 0 0 0 0-13.5M4 12.25a8.25 8.25 0 1 1 16.5 0 8.25 8.25 0 0 1-16.5 0m9.524-3.17c-.693-.607-1.854-.607-2.548 0a.75.75 0 0 1-.987-1.129c1.259-1.101 3.264-1.101 4.523 0 1.318 1.153 1.318 3.07 0 4.223a3.3 3.3 0 0 1-.726.479c-.552.267-.786.607-.786.847v.625a.75.75 0 0 1-1.5 0V13.5c0-1.141.942-1.863 1.633-2.197q.214-.105.391-.258c.635-.556.635-1.41 0-1.965M11.5 16.625a.75.75 0 0 1 .75-.75h.006a.75.75 0 0 1 .75.75v.006a.75.75 0 0 1-.75.75h-.006a.75.75 0 0 1-.75-.75z" clip-rule="evenodd"/>
</svg>
