<svg xmlns="http://www.w3.org/2000/svg" viewBox="0 0 24 24" fill="currentColor" aria-hidden="true" data-slot="icon">
  <path d="M9.47 12.47a.75.75 0 0 1 1.06 0L12 13.94l1.47-1.47a.75.75 0 1 1 1.06 1.06L13.06 15l1.47 1.47a.75.75 0 1 1-1.06 1.06L12 16.06l-1.47 1.47a.75.75 0 1 1-1.06-1.06L10.94 15l-1.47-1.47a.75.75 0 0 1 0-1.06"/>
  <path fill-rule="evenodd" d="M8.75 4a.75.75 0 0 0-1.5 0v1.25H6A2.75 2.75 0 0 0 3.25 8v10A2.75 2.75 0 0 0 6 20.75h12A2.75 2.75 0 0 0 20.75 18V8A2.75 2.75 0 0 0 18 5.25h-1.25V4a.75.75 0 0 0-1.5 0v1.25h-6.5zM18 6.75c.69 0 1.25.56 1.25 1.25v1.25H4.75V8c0-.69.56-1.25 1.25-1.25zm-13.25 4V18c0 .69.56 1.25 1.25 1.25h12c.69 0 1.25-.56 1.25-1.25v-7.25z" clip-rule="evenodd"/>
</svg>
