<svg xmlns="http://www.w3.org/2000/svg" viewBox="0 0 24 24" fill="currentColor" aria-hidden="true" data-slot="icon">
  <path fill-rule="evenodd" d="M12 4a3.75 3.75 0 1 0 0 7.5A3.75 3.75 0 0 0 12 4M9.75 7.75a2.25 2.25 0 1 1 4.5 0 2.25 2.25 0 0 1-4.5 0M10 13a4.75 4.75 0 0 0-4.75 4.75v2a.75.75 0 0 0 1.5 0v-2A3.25 3.25 0 0 1 10 14.5h4q.206 0 .405.025a5 5 0 0 1 1.568-1.097A4.7 4.7 0 0 0 14 13zm8 9a4 4 0 1 0 0-8 4 4 0 0 0 0 8m0-1.5a2.5 2.5 0 0 0 2.217-3.657l-3.373 3.374c.345.18.739.283 1.156.283m1.156-4.717-3.373 3.373a2.5 2.5 0 0 1 3.373-3.373" clip-rule="evenodd"/>
</svg>
