<svg xmlns="http://www.w3.org/2000/svg" viewBox="0 0 24 24" fill="currentColor" aria-hidden="true" data-slot="icon">
  <path fill-rule="evenodd" d="M17.456 6.544a2.71 2.71 0 0 0-3.835 0l-3.461 3.462a2.712 2.712 0 0 0 .748 4.365.75.75 0 0 1-.647 1.353A4.212 4.212 0 0 1 9.1 8.945l3.461-3.461a4.212 4.212 0 1 1 5.957 5.956l-1.352 1.351a.75.75 0 0 1-1.06-1.06l1.35-1.352a2.71 2.71 0 0 0 0-3.835M11.739 9.63a.75.75 0 0 1 1-.353 4.212 4.212 0 0 1 1.162 6.779l-3.461 3.462a4.212 4.212 0 0 1-5.956-5.956l1.351-1.352a.75.75 0 1 1 1.06 1.06l-1.35 1.352a2.712 2.712 0 0 0 3.834 3.835l3.461-3.462a2.71 2.71 0 0 0-.748-4.365.75.75 0 0 1-.353-1" clip-rule="evenodd"/>
</svg>
