<svg xmlns="http://www.w3.org/2000/svg" viewBox="0 0 24 24" fill="currentColor" aria-hidden="true" data-slot="icon">
  <path fill-rule="evenodd" d="M10.25 6a.75.75 0 0 1 .75-.75h9a.75.75 0 0 1 0 1.5h-9a.75.75 0 0 1-.75-.75M3.25 6A.75.75 0 0 1 4 5.25h3a.75.75 0 0 1 0 1.5H4A.75.75 0 0 1 3.25 6M10.25 10a.75.75 0 0 1 .75-.75h9a.75.75 0 0 1 0 1.5h-9a.75.75 0 0 1-.75-.75M3.25 10A.75.75 0 0 1 4 9.25h3a.75.75 0 0 1 0 1.5H4a.75.75 0 0 1-.75-.75M10.25 14a.75.75 0 0 1 .75-.75h9a.75.75 0 0 1 0 1.5h-9a.75.75 0 0 1-.75-.75M3.25 14a.75.75 0 0 1 .75-.75h3a.75.75 0 0 1 0 1.5H4a.75.75 0 0 1-.75-.75M10.25 18a.75.75 0 0 1 .75-.75h9a.75.75 0 0 1 0 1.5h-9a.75.75 0 0 1-.75-.75M3.25 18a.75.75 0 0 1 .75-.75h3a.75.75 0 0 1 0 1.5H4a.75.75 0 0 1-.75-.75" clip-rule="evenodd"/>
</svg>
