<svg xmlns="http://www.w3.org/2000/svg" viewBox="0 0 24 24" fill="currentColor" aria-hidden="true" data-slot="icon">
  <path fill-rule="evenodd" d="M12.48 8.462a4.211 4.211 0 1 1 8.424 0v2.884a.75.75 0 0 1-1.5 0V8.462a2.712 2.712 0 1 0-5.423 0v2.14a2.48 2.48 0 0 1 2.307 2.475v5.192a2.48 2.48 0 0 1-2.48 2.481H5.73a2.48 2.48 0 0 1-2.48-2.48v-5.193a2.48 2.48 0 0 1 2.48-2.48h6.75zm-6.75 3.634a.98.98 0 0 0-.98.98v5.193c0 .542.44.981.98.981h8.078a.98.98 0 0 0 .98-.98v-5.193a.98.98 0 0 0-.98-.98z" clip-rule="evenodd"/>
</svg>
