<svg xmlns="http://www.w3.org/2000/svg" viewBox="0 0 24 24" fill="currentColor" aria-hidden="true" data-slot="icon">
  <path fill-rule="evenodd" d="M7.558 8.462a4.212 4.212 0 1 1 8.423 0v2.14a2.48 2.48 0 0 1 2.307 2.475v5.192a2.48 2.48 0 0 1-2.48 2.481H7.73a2.48 2.48 0 0 1-2.48-2.48v-5.193a2.48 2.48 0 0 1 2.307-2.475zm.173 3.634a.98.98 0 0 0-.98.98v5.193c0 .542.438.981.98.981h8.077a.98.98 0 0 0 .98-.98v-5.193a.98.98 0 0 0-.98-.98zm6.75-1.5H9.058V8.462a2.712 2.712 0 1 1 5.423 0z" clip-rule="evenodd"/>
</svg>
