<svg xmlns="http://www.w3.org/2000/svg" viewBox="0 0 36 37" fill="currentColor" aria-hidden="true" data-slot="icon">
  <path fill-rule="evenodd" d="M12.188 10.313a3.94 3.94 0 0 1 3.937-3.938h3.75a3.94 3.94 0 0 1 3.938 3.938v.085q1.667.158 3.307.403c1.914.286 3.255 1.95 3.255 3.831v4.73a3.88 3.88 0 0 1-.937 2.54v4.848c0 1.904-1.375 3.582-3.317 3.84a62 62 0 0 1-8.121.535c-2.753 0-5.463-.182-8.12-.535-1.943-.258-3.318-1.936-3.318-3.84v-4.848a3.88 3.88 0 0 1-.937-2.54v-4.73c0-1.88 1.34-3.545 3.255-3.831a61 61 0 0 1 3.307-.403zm2.252-.086a62 62 0 0 1 7.12 0 1.69 1.69 0 0 0-1.685-1.602h-3.75c-.903 0-1.64.71-1.685 1.602M8.813 23.184v3.566c0 .832.593 1.508 1.362 1.61 2.56.34 5.172.515 7.825.515a59 59 0 0 0 7.825-.515c.77-.102 1.363-.778 1.363-1.61v-3.566A31.1 31.1 0 0 1 18 24.562a31.1 31.1 0 0 1-9.187-1.378M18 12.375a60 60 0 0 0-8.787.651c-.76.114-1.338.785-1.338 1.606v4.73c0 .494.212.938.542 1.22q.203.173.467.262A28.9 28.9 0 0 0 18 22.312c3.188 0 6.252-.516 9.116-1.468q.264-.089.467-.263c.33-.281.542-.725.542-1.22v-4.729c0-.821-.579-1.492-1.338-1.606A59 59 0 0 0 18 12.375m-1.125 7.313c0-.622.504-1.125 1.125-1.125h.01c.62 0 1.124.503 1.124 1.125v.009c0 .621-.503 1.125-1.125 1.125H18a1.125 1.125 0 0 1-1.125-1.125z" clip-rule="evenodd"/>
</svg>
