<svg xmlns="http://www.w3.org/2000/svg" viewBox="0 0 24 24" fill="currentColor" aria-hidden="true" data-slot="icon">
  <path fill-rule="evenodd" d="M9.798 5.765a.14.14 0 0 0-.123 0L5.826 7.689a.14.14 0 0 0-.076.123v9.856c0 .102.108.17.2.123l3.054-1.527a1.64 1.64 0 0 1 1.465 0l3.942 1.971c.04.02.085.02.124 0l3.848-1.924a.14.14 0 0 0 .077-.123V6.332a.138.138 0 0 0-.2-.123l-3.054 1.527c-.461.23-1.004.23-1.465 0zm-.794-1.342a1.64 1.64 0 0 1 1.465 0l3.942 1.971c.04.02.085.02.124 0l3.054-1.527a1.638 1.638 0 0 1 2.37 1.465v9.856c0 .62-.35 1.187-.905 1.465l-3.848 1.924c-.461.23-1.004.23-1.465 0l-3.943-1.971a.14.14 0 0 0-.123 0L6.62 19.133a1.638 1.638 0 0 1-2.371-1.465V7.812c0-.62.35-1.187.906-1.465zm.733 2.683a.75.75 0 0 1 .75.75v6.512a.75.75 0 1 1-1.5 0V7.856a.75.75 0 0 1 .75-.75m4.736 1.776a.75.75 0 0 1 .75.75v6.513a.75.75 0 0 1-1.5 0V9.632a.75.75 0 0 1 .75-.75" clip-rule="evenodd"/>
</svg>
