<svg xmlns="http://www.w3.org/2000/svg" viewBox="0 0 24 24" fill="currentColor" aria-hidden="true" data-slot="icon">
  <path fill-rule="evenodd" d="M8.688 4.75a.95.95 0 0 0-.938.964v12.572c0 .543.43.964.938.964h5.624c.507 0 .938-.42.938-.964V5.714a.95.95 0 0 0-.937-.964h-.938v.393a.75.75 0 0 1-.75.75h-2.25a.75.75 0 0 1-.75-.75V4.75zm-2.438.964c0-1.35 1.08-2.464 2.438-2.464h5.624c1.358 0 2.438 1.114 2.438 2.464v12.572c0 1.35-1.08 2.464-2.437 2.464H8.686c-1.357 0-2.437-1.114-2.437-2.464zm3.375 12.572a.75.75 0 0 1 .75-.75h2.25a.75.75 0 0 1 0 1.5h-2.25a.75.75 0 0 1-.75-.75" clip-rule="evenodd"/>
</svg>
