<svg xmlns="http://www.w3.org/2000/svg" viewBox="0 0 24 24" fill="currentColor" aria-hidden="true" data-slot="icon">
  <path fill-rule="evenodd" d="M11.889 4.75a.139.139 0 1 0 0 .278.139.139 0 0 0 0-.278m-1.639.139a1.639 1.639 0 1 1 3.278 0 1.639 1.639 0 0 1-3.278 0m1.639 6.972a.139.139 0 1 0 0 .278.139.139 0 0 0 0-.278M10.25 12a1.639 1.639 0 1 1 3.278 0 1.639 1.639 0 0 1-3.278 0m1.639 6.972a.139.139 0 1 0 0 .278.139.139 0 0 0 0-.278m-1.639.14a1.639 1.639 0 1 1 3.278 0 1.639 1.639 0 0 1-3.278 0" clip-rule="evenodd"/>
</svg>
