<svg xmlns="http://www.w3.org/2000/svg" viewBox="0 0 24 24" fill="currentColor" aria-hidden="true" data-slot="icon">
  <path fill-rule="evenodd" d="M15.044 5.754c-.652-.038-1.374.183-2.055.864l-7.42 7.42a.75.75 0 1 1-1.06-1.06l7.42-7.42c.968-.97 2.102-1.366 3.203-1.302 1.082.064 2.074.57 2.806 1.3.732.732 1.237 1.724 1.301 2.806.065 1.1-.332 2.235-1.3 3.203l-7.422 7.42c-.556.557-1.226.8-1.889.76a2.56 2.56 0 0 1-1.646-.759 2.56 2.56 0 0 1-.76-1.646c-.038-.662.204-1.332.76-1.888l7.421-7.42a.75.75 0 1 1 1.06 1.06l-7.42 7.42c-.268.269-.335.527-.323.74.014.233.127.478.323.674s.44.309.673.322c.214.013.472-.054.74-.323l7.422-7.42c.68-.681.902-1.403.864-2.054-.04-.67-.359-1.328-.864-1.833-.506-.506-1.164-.825-1.834-.864" clip-rule="evenodd"/>
</svg>
