<svg xmlns="http://www.w3.org/2000/svg" viewBox="0 0 24 24" fill="currentColor" aria-hidden="true" data-slot="icon">
  <path fill-rule="evenodd" d="M2.25 6.4A2.15 2.15 0 0 1 4.4 4.25h15.4a2.15 2.15 0 0 1 2.15 2.15v11.201a2.15 2.15 0 0 1-2.15 2.15H4.4a2.15 2.15 0 0 1-2.15-2.15zm1.5 9.41v1.79c0 .36.29.65.65.65h15.4a.65.65 0 0 0 .65-.65v-1.79l-2.495-2.495a1.35 1.35 0 0 0-1.91 0l-.784.785.87.87a.75.75 0 0 1-1.061 1.06l-4.815-4.815a1.35 1.35 0 0 0-1.91 0zm10.45-2.77-2.885-2.885a2.85 2.85 0 0 0-4.03 0L3.75 13.69V6.4a.65.65 0 0 1 .65-.65h15.4a.65.65 0 0 1 .65.65v7.29l-1.435-1.435a2.85 2.85 0 0 0-4.03 0zM13.1 8.5a1.1 1.1 0 1 1 2.2 0 1.1 1.1 0 0 1-2.2 0" clip-rule="evenodd"/>
</svg>
