<svg xmlns="http://www.w3.org/2000/svg" viewBox="0 0 24 24" fill="currentColor" aria-hidden="true" data-slot="icon">
  <path fill-rule="evenodd" d="M3.25 5.09a1.84 1.84 0 0 1 1.84-1.84h4.365a1.84 1.84 0 0 1 1.84 1.84v4.365a1.84 1.84 0 0 1-1.84 1.84H5.09a1.84 1.84 0 0 1-1.841-1.84zm1.84-.34a.34.34 0 0 0-.34.34v4.365c0 .188.153.34.34.34h4.365a.34.34 0 0 0 .34-.34V5.09a.34.34 0 0 0-.34-.341zm7.615.34a1.84 1.84 0 0 1 1.84-1.84h4.364a1.84 1.84 0 0 1 1.841 1.84v4.365a1.84 1.84 0 0 1-1.84 1.84h-4.364a1.84 1.84 0 0 1-1.841-1.84zm1.84-.34a.34.34 0 0 0-.34.34v4.365c0 .188.152.34.34.34h4.364a.34.34 0 0 0 .341-.34V5.09a.34.34 0 0 0-.34-.341zM6.16 6.91a.75.75 0 0 1 .75-.75h.727a.75.75 0 0 1 .75.75v.726a.75.75 0 0 1-.75.75H6.91a.75.75 0 0 1-.75-.75zm9.455 0a.75.75 0 0 1 .75-.75h.727a.75.75 0 0 1 .75.75v.726a.75.75 0 0 1-.75.75h-.727a.75.75 0 0 1-.75-.75zM3.25 14.545a1.84 1.84 0 0 1 1.84-1.841h4.365a1.84 1.84 0 0 1 1.84 1.84v4.364a1.84 1.84 0 0 1-1.84 1.841H5.09a1.84 1.84 0 0 1-1.841-1.84zm1.84-.341a.34.34 0 0 0-.34.34v4.364c0 .188.153.341.34.341h4.365a.34.34 0 0 0 .34-.34v-4.364a.34.34 0 0 0-.34-.341zm7.615-.75a.75.75 0 0 1 .75-.75h.727a.75.75 0 0 1 .75.75v.727a.75.75 0 0 1-.75.75h-.728a.75.75 0 0 1-.75-.75zm5.818 0a.75.75 0 0 1 .75-.75H20a.75.75 0 0 1 .75.75v.727a.75.75 0 0 1-.75.75h-.727a.75.75 0 0 1-.75-.75zM6.159 16.363a.75.75 0 0 1 .75-.75h.727a.75.75 0 0 1 .75.75v.727a.75.75 0 0 1-.75.75H6.91a.75.75 0 0 1-.75-.75zm9.455 0a.75.75 0 0 1 .75-.75h.727a.75.75 0 0 1 .75.75v.727a.75.75 0 0 1-.75.75h-.727a.75.75 0 0 1-.75-.75zm-2.91 2.909a.75.75 0 0 1 .75-.75h.728a.75.75 0 0 1 .75.75V20a.75.75 0 0 1-.75.75h-.728a.75.75 0 0 1-.75-.75zm5.819 0a.75.75 0 0 1 .75-.75H20a.75.75 0 0 1 .75.75V20a.75.75 0 0 1-.75.75h-.727a.75.75 0 0 1-.75-.75z" clip-rule="evenodd"/>
</svg>
