<svg xmlns="http://www.w3.org/2000/svg" viewBox="0 0 24 24" fill="currentColor" aria-hidden="true" data-slot="icon">
  <path fill-rule="evenodd" d="M1.25 6A2.75 2.75 0 0 1 4 3.25h16A2.75 2.75 0 0 1 22.75 6v12A2.75 2.75 0 0 1 20 20.75H4A2.75 2.75 0 0 1 1.25 18zM13 19.25V17c0-.69-.56-1.25-1.25-1.25h-4c-.69 0-1.25.56-1.25 1.25v2.25zm1.5 0V17a2.75 2.75 0 0 0-2.75-2.75h-4A2.75 2.75 0 0 0 5 17v2.25H4c-.69 0-1.25-.56-1.25-1.25V6c0-.69.56-1.25 1.25-1.25h16c.69 0 1.25.56 1.25 1.25v12c0 .69-.56 1.25-1.25 1.25zM9.75 11.5a1.5 1.5 0 1 0 0-3 1.5 1.5 0 0 0 0 3m0 1.5a3 3 0 1 0 0-6 3 3 0 0 0 0 6M14 9a.75.75 0 0 1 .75-.75h4.5a.75.75 0 0 1 0 1.5h-4.5A.75.75 0 0 1 14 9m.75 2.25a.75.75 0 0 0 0 1.5h4.5a.75.75 0 0 0 0-1.5z" clip-rule="evenodd"/>
</svg>
