<svg xmlns="http://www.w3.org/2000/svg" viewBox="0 0 24 24" fill="currentColor" aria-hidden="true" data-slot="icon">
  <path d="M6.25 10a.75.75 0 0 0 1.5 0V7.75H10a.75.75 0 0 0 0-1.5H7.75V4a.75.75 0 0 0-1.5 0v2.25H4a.75.75 0 1 0 0 1.5h2.25zM20 7.75h-6a.75.75 0 0 1 0-1.5h6a.75.75 0 0 1 0 1.5M20 15.75h-6a.75.75 0 0 1 0-1.5h6a.75.75 0 0 1 0 1.5M14 19.75h6a.75.75 0 0 0 0-1.5h-6a.75.75 0 0 0 0 1.5M5.94 16.94l-2.41-2.41a.75.75 0 1 1 1.061-1.06L7 15.879l2.409-2.41a.75.75 0 0 1 1.06 1.061l-2.408 2.41 2.47 2.469a.75.75 0 0 1-1.061 1.06L7 18l-2.47 2.47a.75.75 0 1 1-1.06-1.061z"/>
</svg>
