<svg xmlns="http://www.w3.org/2000/svg" viewBox="0 0 24 24" fill="currentColor" aria-hidden="true" data-slot="icon">
  <path fill-rule="evenodd" d="M10.833 5.75a5.083 5.083 0 1 0 0 10.167 5.083 5.083 0 0 0 0-10.167M4.25 10.833a6.583 6.583 0 1 1 11.739 4.095l3.541 3.542a.75.75 0 1 1-1.06 1.06l-3.542-3.541A6.583 6.583 0 0 1 4.25 10.834m4.403-2.18a.75.75 0 0 1 1.06 0l1.12 1.12 1.12-1.12a.75.75 0 0 1 1.06 1.06l-1.119 1.12 1.12 1.12a.75.75 0 0 1-1.061 1.06l-1.12-1.119-1.12 1.12a.75.75 0 1 1-1.06-1.061l1.12-1.12-1.12-1.12a.75.75 0 0 1 0-1.06" clip-rule="evenodd"/>
</svg>
