<svg xmlns="http://www.w3.org/2000/svg" viewBox="0 0 24 24" fill="currentColor" aria-hidden="true" data-slot="icon">
  <path fill-rule="evenodd" d="M9.25 5.75c-.665 0-1.292.313-1.69.845L6.453 8.07h11.638l-1.106-1.474a2.11 2.11 0 0 0-1.69-.845zm10.545 5.614c0-.992-.803-1.796-1.795-1.796H6.545a1.795 1.795 0 1 0 0 3.591H18c.992 0 1.795-.804 1.795-1.795m.298 2.545a3.29 3.29 0 0 0 1.202-2.545c0-.989-.32-1.95-.913-2.741l-2.196-2.928-.484.364.484-.364a3.61 3.61 0 0 0-2.89-1.445H9.25a3.61 3.61 0 0 0-2.89 1.445l.6.45-.6-.45-2.196 2.928a4.57 4.57 0 0 0-.914 2.74c0 1.026.468 1.942 1.202 2.546a3.295 3.295 0 0 0 2.093 5.84H18a3.295 3.295 0 0 0 2.093-5.84m-13.548.75a1.795 1.795 0 1 0 0 3.591H18a1.795 1.795 0 0 0 0-3.59zm8.16-3.295a.75.75 0 0 1 .75-.75h.006a.75.75 0 0 1 .75.75v.006a.75.75 0 0 1-.75.75h-.007a.75.75 0 0 1-.75-.75zm2.545 0a.75.75 0 0 1 .75-.75h.006a.75.75 0 0 1 .75.75v.006a.75.75 0 0 1-.75.75H18a.75.75 0 0 1-.75-.75zm-2.546 5.09a.75.75 0 0 1 .75-.75h.007a.75.75 0 0 1 .75.75v.007a.75.75 0 0 1-.75.75h-.007a.75.75 0 0 1-.75-.75zm2.546 0a.75.75 0 0 1 .75-.75h.006a.75.75 0 0 1 .75.75v.007a.75.75 0 0 1-.75.75H18a.75.75 0 0 1-.75-.75z" clip-rule="evenodd"/>
</svg>
