<svg xmlns="http://www.w3.org/2000/svg" viewBox="0 0 24 24" fill="currentColor" aria-hidden="true" data-slot="icon">
  <path fill-rule="evenodd" d="M9.787 4.712a1.75 1.75 0 0 1 1.726-1.462h.973a1.75 1.75 0 0 1 1.726 1.462l.132.795c.013.079.084.191.242.257.153.063.278.036.347-.013l.655-.469.436.61-.436-.61a1.75 1.75 0 0 1 2.255.187l.687.688a1.75 1.75 0 0 1 .187 2.254l-.468.656c-.05.068-.077.194-.013.346.065.158.178.23.256.242l.795.133a1.75 1.75 0 0 1 1.462 1.726v.972a1.75 1.75 0 0 1-1.462 1.726l-.794.133c-.08.013-.192.084-.257.242-.064.153-.036.278.012.346l.469.656a1.75 1.75 0 0 1-.187 2.254l-.687.688a1.75 1.75 0 0 1-2.255.187l-.656-.469c-.068-.048-.193-.076-.346-.013-.158.066-.229.178-.242.257l-.132.795a1.75 1.75 0 0 1-1.726 1.462h-.973a1.75 1.75 0 0 1-1.726-1.462l-.133-.795c-.013-.078-.084-.191-.241-.257-.153-.063-.279-.035-.347.013l-.656.469a1.75 1.75 0 0 1-2.254-.187l-.688-.688a1.75 1.75 0 0 1-.187-2.254l.469-.656c.049-.068.076-.194.013-.346-.066-.158-.178-.23-.257-.242l-.794-.133a1.75 1.75 0 0 1-1.463-1.726v-.972a1.75 1.75 0 0 1 1.463-1.726l.794-.133c.079-.013.191-.084.257-.242.063-.153.036-.278-.013-.346l-.468-.656a1.75 1.75 0 0 1 .186-2.254l.688-.688a1.75 1.75 0 0 1 2.255-.187l.655.469c.069.048.194.076.347.013.158-.066.228-.178.241-.257zm1.726.038a.25.25 0 0 0-.246.209l-.133.795c-.113.675-.598 1.167-1.146 1.395-.554.23-1.24.218-1.794-.178l-.655-.468a.25.25 0 0 0-.322.027l-.688.687a.25.25 0 0 0-.027.322l.469.656c.395.554.407 1.24.177 1.793-.227.549-.72 1.034-1.395 1.147l-.795.132a.25.25 0 0 0-.209.247v.972a.25.25 0 0 0 .21.247l.794.132c.675.113 1.168.598 1.395 1.146.23.554.218 1.24-.177 1.794l-.469.656a.25.25 0 0 0 .027.322l.687.687a.25.25 0 0 0 .322.027l.656-.468c.554-.396 1.24-.408 1.794-.178.548.228 1.034.72 1.146 1.396l.133.794a.25.25 0 0 0 .246.209h.973a.25.25 0 0 0 .246-.209l.133-.794c.112-.676.598-1.168 1.146-1.396.553-.23 1.24-.218 1.793.178l.656.468c.1.071.235.06.322-.027l.688-.687a.25.25 0 0 0 .026-.322l-.468-.656c-.396-.554-.407-1.24-.178-1.793.228-.549.72-1.034 1.396-1.147l.794-.132a.25.25 0 0 0 .21-.247v-.972a.25.25 0 0 0-.21-.247l-.794-.132c-.676-.113-1.168-.598-1.396-1.146-.23-.554-.218-1.24.178-1.794l.468-.656a.25.25 0 0 0-.026-.322l-.688-.687a.25.25 0 0 0-.322-.027l-.655.468c-.555.396-1.24.408-1.794.178-.548-.228-1.034-.72-1.146-1.396l-.133-.794a.25.25 0 0 0-.246-.209zM12 10.083a1.917 1.917 0 1 0 0 3.834 1.917 1.917 0 0 0 0-3.834M8.583 12a3.417 3.417 0 1 1 6.833 0 3.417 3.417 0 0 1-6.833 0" clip-rule="evenodd"/>
</svg>
