<svg xmlns="http://www.w3.org/2000/svg" viewBox="0 0 24 24" fill="currentColor" aria-hidden="true" data-slot="icon">
  <path fill-rule="evenodd" d="M11.22 3.955a.75.75 0 0 1 1.031 0 8.87 8.87 0 0 0 6.23 2.436.75.75 0 0 1 .722.516c.337 1.023.518 2.116.518 3.25 0 4.845-3.314 8.915-7.798 10.07a.75.75 0 0 1-.374 0c-4.485-1.155-7.799-5.225-7.799-10.07 0-1.134.182-2.227.518-3.25a.75.75 0 0 1 .722-.516h.113c2.37 0 4.522-.925 6.117-2.436M5.543 7.882a8.902 8.902 0 0 0 6.193 10.841 8.9 8.9 0 0 0 6.192-10.84 10.36 10.36 0 0 1-6.192-2.381 10.36 10.36 0 0 1-6.193 2.38m9.04 1.664a.75.75 0 0 1 .175 1.046l-3.015 4.221a.75.75 0 0 1-1.14.095l-1.81-1.81a.75.75 0 1 1 1.061-1.06l1.183 1.183 2.5-3.5a.75.75 0 0 1 1.046-.175" clip-rule="evenodd"/>
</svg>
