<svg xmlns="http://www.w3.org/2000/svg" viewBox="0 0 24 24" fill="currentColor" aria-hidden="true" data-slot="icon">
  <path fill-rule="evenodd" d="M12 14a3 3 0 1 0 0-6 3 3 0 0 0 0 6m0-1.5a1.5 1.5 0 1 0 0-3 1.5 1.5 0 0 0 0 3" clip-rule="evenodd"/>
  <path fill-rule="evenodd" d="M11.47 4.205a.75.75 0 0 1 1.031 0 8.87 8.87 0 0 0 6.23 2.436.75.75 0 0 1 .722.516c.337 1.023.518 2.116.518 3.25 0 4.845-3.314 8.915-7.798 10.07a.75.75 0 0 1-.374 0C7.314 19.321 4 15.251 4 10.406c0-1.134.182-2.227.518-3.25a.75.75 0 0 1 .722-.516h.113c2.37 0 4.522-.925 6.117-2.436M5.793 8.132a9 9 0 0 0-.293 2.274c0 2.188.79 4.192 2.1 5.741A8.96 8.96 0 0 1 12 15c1.59 0 3.084.412 4.38 1.136a8.86 8.86 0 0 0 2.091-5.73c0-.786-.102-1.548-.293-2.274a10.36 10.36 0 0 1-6.192-2.38 10.36 10.36 0 0 1-6.193 2.38m9.472 9.114A7.5 7.5 0 0 0 12 16.5a7.5 7.5 0 0 0-3.283.755 8.9 8.9 0 0 0 3.269 1.718 8.9 8.9 0 0 0 3.279-1.727" clip-rule="evenodd"/>
</svg>
