<svg xmlns="http://www.w3.org/2000/svg" viewBox="0 0 24 24" fill="currentColor" aria-hidden="true" data-slot="icon">
  <path d="M8.75 4a.75.75 0 0 0-1.5 0v1.25H6A2.75 2.75 0 0 0 3.25 8v10A2.75 2.75 0 0 0 6 20.75h4.5a.75.75 0 0 0 0-1.5H6c-.69 0-1.25-.56-1.25-1.25v-7.25H10a.75.75 0 0 0 0-1.5H4.75V8c0-.69.56-1.25 1.25-1.25h12c.69 0 1.25.56 1.25 1.25a.75.75 0 0 0 1.5 0A2.75 2.75 0 0 0 18 5.25h-1.25V4a.75.75 0 0 0-1.5 0v1.25h-6.5z"/>
  <path d="M16.75 13a.75.75 0 0 0-1.5 0v2.38l2.262 1.94a.75.75 0 1 0 .976-1.14l-1.738-1.49z"/>
  <path fill-rule="evenodd" d="M16 20.75a6 6 0 1 0 0-12 6 6 0 0 0 0 12m0-1.5a4.5 4.5 0 1 0 0-9 4.5 4.5 0 0 0 0 9" clip-rule="evenodd"/>
</svg>
