<svg xmlns="http://www.w3.org/2000/svg" viewBox="0 0 24 24" fill="currentColor" aria-hidden="true" data-slot="icon">
  <path d="M12.75 8a.75.75 0 0 0-1.5 0v2.722L8.875 9.35a.75.75 0 0 0-.75 1.3l2.34 1.35-2.34 1.35a.75.75 0 1 0 .75 1.3l2.375-1.372V16a.75.75 0 0 0 1.5 0v-2.68l2.303 1.33a.75.75 0 0 0 .75-1.3L13.464 12l2.34-1.35a.75.75 0 1 0-.75-1.3l-2.304 1.33z"/>
  <path fill-rule="evenodd" d="M12 3.25a8.75 8.75 0 1 0 0 17.5 8.75 8.75 0 0 0 0-17.5M4.75 12a7.25 7.25 0 1 1 14.5 0 7.25 7.25 0 0 1-14.5 0" clip-rule="evenodd"/>
</svg>
