<svg xmlns="http://www.w3.org/2000/svg" viewBox="0 0 24 24" fill="currentColor" aria-hidden="true" data-slot="icon">
  <path fill-rule="evenodd" d="M5.25 5.846C5.25 4.43 6.374 3.25 7.8 3.25h8.4c1.426 0 2.55 1.18 2.55 2.596v12.308c0 1.416-1.124 2.596-2.55 2.596H7.8c-1.426 0-2.55-1.18-2.55-2.596zM7.8 4.75c-.562 0-1.05.473-1.05 1.096v12.308c0 .623.488 1.096 1.05 1.096h8.4c.562 0 1.05-.473 1.05-1.096V5.846c0-.623-.488-1.096-1.05-1.096zm2.25 13.404a.75.75 0 0 1 .75-.75h2.4a.75.75 0 0 1 0 1.5h-2.4a.75.75 0 0 1-.75-.75" clip-rule="evenodd"/>
</svg>
