<svg xmlns="http://www.w3.org/2000/svg" viewBox="0 0 24 24" fill="currentColor" aria-hidden="true" data-slot="icon">
  <g clip-path="url(#a)">
    <path fill-rule="evenodd" d="M6 22H2v-4H0v5a1 1 0 0 0 1 1h5zM2 6V2h4V0H1a1 1 0 0 0-1 1v5zM18 2h4v4h2V1a1 1 0 0 0-1-1h-5zM22 18v4h-4v2h5a1 1 0 0 0 1-1v-5z" clip-rule="evenodd"/>
    <path d="M7.5 7.333A2.167 2.167 0 0 0 5.333 9.5v5A2.167 2.167 0 0 0 7.5 16.667h9a2.167 2.167 0 0 0 2.167-2.167v-5A2.166 2.166 0 0 0 16.5 7.333zm.687 3.48.48.48.48-.48a.5.5 0 1 1 .706.707l-.479.48.48.479a.5.5 0 1 1-.707.708l-.48-.48-.48.48a.5.5 0 0 1-.707-.707l.48-.48-.48-.48a.5.5 0 0 1 .707-.707m3.666 0 .48.48.48-.48a.5.5 0 1 1 .707.707l-.48.48.48.479a.5.5 0 1 1-.707.707l-.48-.48-.48.48a.498.498 0 0 1-.83-.153.5.5 0 0 1 .124-.553l.48-.48-.48-.48a.5.5 0 0 1 .706-.707M14.5 13.5a.5.5 0 0 1 .5-.5h1.167a.5.5 0 0 1 0 1H15a.5.5 0 0 1-.5-.5"/>
  </g>
  <defs>
    <clipPath id="a">
      <path d="M0 0h24v24H0z"/>
    </clipPath>
  </defs>
</svg>
