<svg xmlns="http://www.w3.org/2000/svg" viewBox="0 0 24 24" fill="currentColor" aria-hidden="true" data-slot="icon">
  <path fill-rule="evenodd" d="M7.25 18.5v-8.187H4V18.5zM3.5 20a1 1 0 0 1-1-1V9.813a1 1 0 0 1 1-1H8S10.5 7.5 12 6c.283-.283.494-.53.678-.744.682-.797.986-1.152 3.121-1.236.624-.024 1.098.545.987 1.159l-.572 3.142a1 1 0 0 0 .984 1.179H21c2.5 0-2.281 10.5-4 10.5zm5.25-9.887V18.5h7.945l.018-.018c.187-.184.44-.5.737-.95.589-.89 1.227-2.115 1.748-3.36.519-1.24.872-2.387.979-3.172h-2.98a2.5 2.5 0 0 1-2.458-2.947l.452-2.492c-.735.07-.892.179-.942.214-.06.042-.136.113-.34.35l-.087.1a14 14 0 0 1-.761.836c-.867.866-1.976 1.64-2.82 2.174a26 26 0 0 1-1.491.878" clip-rule="evenodd"/>
</svg>
