<svg xmlns="http://www.w3.org/2000/svg" viewBox="0 0 24 24" fill="currentColor" aria-hidden="true" data-slot="icon">
  <path fill-rule="evenodd" d="M12.417 4.583c0-.736.597-1.333 1.333-1.333a2.5 2.5 0 0 1 2.5 2.5c0 .98-.215 1.912-.6 2.75h2.283c1.11 0 2.21.762 2.343 2.004q.057.532.057 1.08c0 2.391-.834 4.59-2.226 6.32-.464.575-1.158.846-1.832.846H13.15c-.457 0-.91-.074-1.344-.218l-2.422-.808a2.8 2.8 0 0 0-.87-.14h-.252c-.033.598-.482 1.166-1.202 1.166h-.706c-.964 0-1.937-.568-2.251-1.595a10 10 0 0 1-.437-2.947c0-1.303.247-2.55.698-3.695.368-.933 1.286-1.43 2.19-1.43h.819c.416 0 .737.186.943.456.178-.093.35-.236.498-.425a7.8 7.8 0 0 1 2.463-2.066c.459-.244.79-.573.942-.95a2.8 2.8 0 0 0 .196-1.022zm-5.519 6h-.343c-.39 0-.687.209-.794.48a8.6 8.6 0 0 0-.594 3.145c0 .874.13 1.716.372 2.51.09.294.399.532.816.532h.265l-.057-.135A7.7 7.7 0 0 1 6 14.208a7.7 7.7 0 0 1 .898-3.625m1.418.534c.696-.14 1.279-.567 1.68-1.078a6.3 6.3 0 0 1 1.987-1.667c.665-.354 1.308-.914 1.63-1.718a4.3 4.3 0 0 0 .303-1.578v-.312a1 1 0 0 1 .834.986 5.06 5.06 0 0 1-.49 2.18c-.088.186-.132.38-.14.57h-.37a.75.75 0 0 0 0 1.5h4.183c.486 0 .815.317.852.663q.048.454.048.92c0 2.038-.709 3.908-1.894 5.38-.14.173-.377.287-.664.287H13.15c-.295 0-.59-.048-.87-.141L9.86 16.3a4.3 4.3 0 0 0-1.344-.218h-.73a6.3 6.3 0 0 1-.285-1.875c0-1.125.297-2.18.816-3.09" clip-rule="evenodd"/>
</svg>
