<svg xmlns="http://www.w3.org/2000/svg" viewBox="0 0 20 20" fill="currentColor" aria-hidden="true" data-slot="icon">
  <path fill-rule="evenodd" d="M5.914 4.375a.096.096 0 0 0-.097.096V15.53c0 .053.043.096.097.096h8.173a.096.096 0 0 0 .096-.096v-5.77c0-.85-.689-1.538-1.539-1.538h-.961a1.346 1.346 0 0 1-1.346-1.346v-.962c0-.85-.69-1.538-1.539-1.538zm0-1.25c-.744 0-1.347.603-1.347 1.346V15.53c0 .743.603 1.346 1.347 1.346h8.173c.743 0 1.346-.603 1.346-1.346v-6.01a6.394 6.394 0 0 0-6.394-6.394zm5.504 1.832q.167.45.169.956v.962c0 .053.043.096.096.096h.961c.336 0 .658.06.956.168a5.17 5.17 0 0 0-2.182-2.182M10 8.894c.345 0 .625.28.625.625v2.338l.856-.857a.625.625 0 0 1 .884.884l-1.923 1.923a.625.625 0 0 1-.884 0l-1.923-1.923A.625.625 0 1 1 8.52 11l.856.857V9.519c0-.345.28-.625.625-.625" clip-rule="evenodd"/>
</svg>
