<svg xmlns="http://www.w3.org/2000/svg" viewBox="0 0 24 24" fill="currentColor" aria-hidden="true" data-slot="icon">
  <path fill-rule="evenodd" d="M12 14a3 3 0 1 0 0-6 3 3 0 0 0 0 6m0-1.5a1.5 1.5 0 1 0 0-3 1.5 1.5 0 0 0 0 3" clip-rule="evenodd"/>
  <path fill-rule="evenodd" d="M12 20a8 8 0 1 0 0-16 8 8 0 0 0 0 16m4.799-3.615a6.5 6.5 0 1 0-9.597 0A8.96 8.96 0 0 1 12 15c1.764 0 3.41.508 4.799 1.385m-1.204 1.031A7.47 7.47 0 0 0 12 16.5a7.47 7.47 0 0 0-3.595.916A6.47 6.47 0 0 0 12 18.5a6.47 6.47 0 0 0 3.595-1.084" clip-rule="evenodd"/>
</svg>
