<svg xmlns="http://www.w3.org/2000/svg" viewBox="0 0 24 24" fill="currentColor" aria-hidden="true" data-slot="icon">
  <path fill-rule="evenodd" d="M12 5.75a6.25 6.25 0 0 0-4.69 10.38A6.57 6.57 0 0 1 12 14.168c1.836 0 3.497.752 4.69 1.964A6.25 6.25 0 0 0 12 5.75m3.57 11.381A5.07 5.07 0 0 0 12 15.667c-1.39 0-2.651.558-3.57 1.464A6.2 6.2 0 0 0 12 18.25a6.2 6.2 0 0 0 3.57-1.119M4.25 12a7.75 7.75 0 1 1 15.5 0 7.75 7.75 0 0 1-15.5 0M12 8.667a1.583 1.583 0 1 0 0 3.166 1.583 1.583 0 0 0 0-3.166M8.917 10.25a3.083 3.083 0 1 1 6.166 0 3.083 3.083 0 0 1-6.166 0" clip-rule="evenodd"/>
</svg>
