<svg xmlns="http://www.w3.org/2000/svg" viewBox="0 0 24 24" fill="currentColor" aria-hidden="true" data-slot="icon">
  <path fill-rule="evenodd" d="M3.25 6.975c0-.953.772-1.725 1.725-1.725h13.65c.953 0 1.725.772 1.725 1.725v11.05c0 .953-.772 1.725-1.725 1.725H4.975a1.725 1.725 0 0 1-1.725-1.725zm6.7 11.275h3.7V6.75h-3.7zm-1.5-11.5v11.5H4.975a.225.225 0 0 1-.225-.225V6.975c0-.124.1-.225.225-.225zm6.7 0v11.5h3.475c.124 0 .225-.1.225-.225V6.975c0-.124-.1-.225-.225-.225z" clip-rule="evenodd"/>
</svg>
