<svg xmlns="http://www.w3.org/2000/svg" viewBox="0 0 24 24" fill="currentColor" aria-hidden="true" data-slot="icon">
  <path fill-rule="evenodd" d="M2.75 6.182c0-1.6 1.269-2.932 2.875-2.932h12.75c1.606 0 2.875 1.331 2.875 2.932v11.636c0 1.6-1.269 2.932-2.875 2.932H5.625c-1.606 0-2.875-1.331-2.875-2.932zM5.625 4.75c-.74 0-1.375.622-1.375 1.432v1.432h15.5V6.182c0-.81-.634-1.432-1.375-1.432zM19.75 9.114H4.25v8.704c0 .81.634 1.432 1.375 1.432h12.75c.74 0 1.375-.622 1.375-1.432zM4.875 6.182a.75.75 0 0 1 .75-.75h.007a.75.75 0 0 1 .75.75v.007a.75.75 0 0 1-.75.75h-.007a.75.75 0 0 1-.75-.75zm2.125 0a.75.75 0 0 1 .75-.75h.007a.75.75 0 0 1 .75.75v.007a.75.75 0 0 1-.75.75H7.75A.75.75 0 0 1 7 6.19zm2.125 0a.75.75 0 0 1 .75-.75h.007a.75.75 0 0 1 .75.75v.007a.75.75 0 0 1-.75.75h-.007a.75.75 0 0 1-.75-.75z" clip-rule="evenodd"/>
</svg>
