<svg xmlns="http://www.w3.org/2000/svg" viewBox="0 0 24 24" fill="currentColor" aria-hidden="true" data-slot="icon">
  <path d="M7.97 16.03a.75.75 0 0 1 0-1.06L10.94 12 7.97 9.03a.75.75 0 0 1 1.06-1.06L12 10.94l2.97-2.97a.75.75 0 1 1 1.06 1.06L13.06 12l2.97 2.97a.75.75 0 1 1-1.06 1.06L12 13.06l-2.97 2.97a.75.75 0 0 1-1.06 0"/>
  <path fill-rule="evenodd" d="M12 3.25a8.75 8.75 0 1 0 0 17.5 8.75 8.75 0 0 0 0-17.5M4.75 12a7.25 7.25 0 1 1 14.5 0 7.25 7.25 0 0 1-14.5 0" clip-rule="evenodd"/>
</svg>
