<svg viewBox="0 0 24 24" fill="none" xmlns="http://www.w3.org/2000/svg">
<path fill-rule="evenodd" clip-rule="evenodd" d="M8.60006 4.75C8.13061 4.75 7.75006 5.13056 7.75006 5.6C7.75006 6.06944 8.13062 6.45 8.60005 6.45C9.0695 6.45 9.45005 6.06944 9.45005 5.6C9.45005 5.13056 9.0695 4.75 8.60006 4.75ZM6.37228 4.85C6.68528 3.9199 7.56444 3.25 8.60006 3.25C9.63567 3.25 10.5148 3.9199 10.8278 4.85L20.6 4.85C21.0143 4.85 21.35 5.18579 21.35 5.6C21.35 6.01421 21.0143 6.35 20.6 6.35L10.8278 6.35C10.5148 7.2801 9.63567 7.95 8.60005 7.95C7.56444 7.95 6.68528 7.2801 6.37228 6.35H3.00006C2.58585 6.35 2.25006 6.01421 2.25006 5.6C2.25006 5.18579 2.58585 4.85 3.00006 4.85H6.37228ZM15 11.15C14.5306 11.15 14.15 11.5306 14.15 12C14.15 12.4694 14.5306 12.85 15 12.85C15.4695 12.85 15.85 12.4694 15.85 12C15.85 11.5306 15.4695 11.15 15 11.15ZM12.7723 11.25C13.0853 10.3199 13.9644 9.65 15 9.65C16.0357 9.65 16.9148 10.3199 17.2278 11.25L20.6 11.25C21.0143 11.25 21.35 11.5858 21.35 12C21.35 12.4142 21.0143 12.75 20.6 12.75L17.2278 12.75C16.9148 13.6801 16.0357 14.35 15 14.35C13.9644 14.35 13.0853 13.6801 12.7723 12.75H3.00006C2.58585 12.75 2.25006 12.4142 2.25006 12C2.25006 11.5858 2.58585 11.25 3.00006 11.25H12.7723ZM8.60005 17.55C8.13061 17.55 7.75006 17.9306 7.75006 18.4C7.75006 18.8694 8.13062 19.25 8.60005 19.25C9.06949 19.25 9.45005 18.8694 9.45005 18.4C9.45005 17.9306 9.06949 17.55 8.60005 17.55ZM6.37228 17.65C6.68528 16.7199 7.56444 16.05 8.60005 16.05C9.63567 16.05 10.5148 16.7199 10.8278 17.65H20.6C21.0143 17.65 21.35 17.9858 21.35 18.4C21.35 18.8142 21.0143 19.15 20.6 19.15H10.8278C10.5148 20.0801 9.63567 20.75 8.60005 20.75C7.56444 20.75 6.68528 20.0801 6.37228 19.15L3.00006 19.15C2.58585 19.15 2.25006 18.8142 2.25006 18.4C2.25006 17.9858 2.58585 17.65 3.00006 17.65L6.37228 17.65Z" fill="currentColor"/>
</svg>
