<svg viewBox="0 0 24 24" fill="none" xmlns="http://www.w3.org/2000/svg">
<path fill-rule="evenodd" clip-rule="evenodd" d="M14.9167 4.25L19 4.25C19.1989 4.25 19.3897 4.32902 19.5303 4.46967C19.671 4.61032 19.75 4.80109 19.75 5V9.08333C19.75 9.49755 19.4142 9.83333 19 9.83333C18.5858 9.83333 18.25 9.49755 18.25 9.08333V6.81066L9.03033 16.0303C8.73744 16.3232 8.26256 16.3232 7.96967 16.0303C7.67678 15.7374 7.67678 15.2626 7.96967 14.9697L17.1893 5.75L14.9167 5.75C14.5025 5.75 14.1667 5.41421 14.1667 5C14.1667 4.58579 14.5025 4.25 14.9167 4.25ZM6.75 8.08333C6.19772 8.08333 5.75 8.53105 5.75 9.08333V17.25C5.75 17.8023 6.19771 18.25 6.75 18.25H14.9167C15.469 18.25 15.9167 17.8023 15.9167 17.25V10.8333C15.9167 10.4191 16.2525 10.0833 16.6667 10.0833C17.0809 10.0833 17.4167 10.4191 17.4167 10.8333V17.25C17.4167 18.6307 16.2974 19.75 14.9167 19.75H6.75C5.36929 19.75 4.25 18.6307 4.25 17.25V9.08333C4.25 7.70262 5.36929 6.58333 6.75 6.58333H13.1667C13.5809 6.58333 13.9167 6.91912 13.9167 7.33333C13.9167 7.74755 13.5809 8.08333 13.1667 8.08333H6.75Z" fill="currentColor"/>
</svg>
