<svg viewBox="0 0 24 24" fill="none" xmlns="http://www.w3.org/2000/svg">
<path fill-rule="evenodd" clip-rule="evenodd" d="M7.61544 6.75C7.13751 6.75 6.75006 7.13744 6.75006 7.61538L6.75006 17.3077C6.75006 17.7856 7.13751 18.1731 7.61544 18.1731H11.9231C12.401 18.1731 12.7885 17.7856 12.7885 17.3077V14.6154C12.7885 14.2012 13.1243 13.8654 13.5385 13.8654C13.9527 13.8654 14.2885 14.2012 14.2885 14.6154V17.3077C14.2885 18.6141 13.2295 19.6731 11.9231 19.6731H7.61544C6.30907 19.6731 5.25006 18.6141 5.25006 17.3077L5.25006 7.61538C5.25006 6.30902 6.30907 5.25 7.61544 5.25L11.9231 5.25C13.2295 5.25 14.2885 6.30902 14.2885 7.61538V10.3077C14.2885 10.7219 13.9527 11.0577 13.5385 11.0577C13.1243 11.0577 12.7885 10.7219 12.7885 10.3077V7.61538C12.7885 7.13744 12.401 6.75 11.9231 6.75L7.61544 6.75ZM11.3765 9.77736C11.6694 10.0703 11.6694 10.5451 11.3765 10.838L10.503 11.7115L17.8462 11.7115C18.2604 11.7115 18.5962 12.0473 18.5962 12.4615C18.5962 12.8758 18.2604 13.2115 17.8462 13.2115L10.503 13.2115L11.3765 14.0851C11.6694 14.378 11.6694 14.8528 11.3765 15.1457C11.0836 15.4386 10.6088 15.4386 10.3159 15.1457L8.16203 12.9919C7.86913 12.699 7.86913 12.2241 8.16203 11.9312L10.3159 9.77736C10.6088 9.48447 11.0836 9.48447 11.3765 9.77736Z" fill="currentColor"/>
</svg>
