<svg viewBox="0 0 24 24" fill="none" xmlns="http://www.w3.org/2000/svg">
<path fill-rule="evenodd" clip-rule="evenodd" d="M11.8462 4.25C12.2604 4.25 12.5962 4.58579 12.5962 5L12.5962 12.3432L13.4697 11.4697C13.7626 11.1768 14.2375 11.1768 14.5304 11.4697C14.8233 11.7626 14.8233 12.2374 14.5304 12.5303L12.3765 14.6842C12.2359 14.8248 12.0451 14.9038 11.8462 14.9038C11.6473 14.9038 11.4565 14.8248 11.3159 14.6842L9.16203 12.5303C8.86913 12.2374 8.86913 11.7626 9.16203 11.4697C9.45492 11.1768 9.9298 11.1768 10.2227 11.4697L11.0962 12.3432L11.0962 5C11.0962 4.58579 11.432 4.25 11.8462 4.25ZM8.61544 10.0577C8.13751 10.0577 7.75006 10.4451 7.75006 10.9231V17.3846C7.75006 17.8626 8.13751 18.25 8.61544 18.25H15.077C15.5549 18.25 15.9423 17.8626 15.9423 17.3846V10.9231C15.9423 10.4451 15.5549 10.0577 15.077 10.0577H14C13.5858 10.0577 13.25 9.72191 13.25 9.30769C13.25 8.89348 13.5858 8.55769 14 8.55769H15.077C16.3833 8.55769 17.4423 9.61671 17.4423 10.9231V17.3846C17.4423 18.691 16.3833 19.75 15.077 19.75H8.61544C7.30907 19.75 6.25006 18.691 6.25006 17.3846V10.9231C6.25006 9.61671 7.30907 8.55769 8.61544 8.55769H9.69236C10.1066 8.55769 10.4424 8.89348 10.4424 9.30769C10.4424 9.72191 10.1066 10.0577 9.69236 10.0577H8.61544Z" fill="currentColor"/>
</svg>
