<svg viewBox="0 0 24 24" fill="none" xmlns="http://www.w3.org/2000/svg">
<path fill-rule="evenodd" clip-rule="evenodd" d="M11.8462 4.25C12.0451 4.25 12.2359 4.32902 12.3765 4.46967L14.5304 6.62352C14.8233 6.91641 14.8233 7.39129 14.5304 7.68418C14.2375 7.97707 13.7626 7.97707 13.4697 7.68418L12.5962 6.81067L12.5962 14.1538C12.5962 14.5681 12.2604 14.9038 11.8462 14.9038C11.432 14.9038 11.0962 14.5681 11.0962 14.1538L11.0962 6.81067L10.2227 7.68417C9.9298 7.97707 9.45492 7.97707 9.16203 7.68418C8.86913 7.39128 8.86913 6.91641 9.16203 6.62352L11.3159 4.46967C11.4565 4.32902 11.6473 4.25 11.8462 4.25ZM8.61544 10.0577C8.13751 10.0577 7.75006 10.4451 7.75006 10.9231V17.3846C7.75006 17.8626 8.13751 18.25 8.61544 18.25H15.077C15.5549 18.25 15.9423 17.8626 15.9423 17.3846V10.9231C15.9423 10.4451 15.5549 10.0577 15.077 10.0577H14C13.5858 10.0577 13.25 9.72191 13.25 9.30769C13.25 8.89348 13.5858 8.55769 14 8.55769H15.077C16.3833 8.55769 17.4423 9.61671 17.4423 10.9231V17.3846C17.4423 18.691 16.3833 19.75 15.077 19.75H8.61544C7.30907 19.75 6.25006 18.691 6.25006 17.3846V10.9231C6.25006 9.61671 7.30907 8.55769 8.61544 8.55769H9.69236C10.1066 8.55769 10.4424 8.89348 10.4424 9.30769C10.4424 9.72191 10.1066 10.0577 9.69236 10.0577H8.61544Z" fill="currentColor"/>
</svg>
