<svg viewBox="0 0 24 24" fill="none" xmlns="http://www.w3.org/2000/svg">
<path fill-rule="evenodd" clip-rule="evenodd" d="M4.51528 9.99467C5.62283 5.86123 9.87149 3.40827 14.0049 4.51582C15.3671 4.88081 16.5486 5.58814 17.4795 6.5207C17.4794 6.52064 17.4796 6.52077 17.4795 6.5207L18.8973 7.93854V5.51561C18.8973 5.1014 19.2331 4.76561 19.6473 4.76561C20.0616 4.76561 20.3973 5.1014 20.3973 5.51561V9.75071C20.3973 10.1649 20.0616 10.5007 19.6473 10.5007H15.4122C14.998 10.5007 14.6622 10.1649 14.6622 9.75071C14.6622 9.33649 14.998 9.00071 15.4122 9.00071H17.8382L16.4185 7.58106C15.669 6.83009 14.7174 6.25964 13.6167 5.96471C10.2835 5.07157 6.85731 7.04966 5.96417 10.3829C5.85697 10.783 5.44571 11.0204 5.04561 10.9132C4.64551 10.806 4.40808 10.3948 4.51528 9.99467ZM18.9534 13.0869C19.3535 13.1941 19.591 13.6054 19.4838 14.0055C18.3762 18.1389 14.1276 20.5919 9.99413 19.4843C8.63203 19.1193 7.45055 18.4121 6.51969 17.4796C6.51959 17.4795 6.5198 17.4797 6.51969 17.4796L5.10193 16.0609V18.4845C5.10193 18.8987 4.76614 19.2345 4.35193 19.2345C3.93772 19.2345 3.60193 18.8987 3.60193 18.4845V14.2494C3.60193 13.8352 3.93771 13.4994 4.35193 13.4994L8.58705 13.4994C9.00127 13.4994 9.33705 13.8352 9.33705 14.2494C9.33705 14.6636 9.00127 14.9994 8.58705 14.9994L6.16175 14.9994L7.5807 16.4193C8.33026 17.1702 9.28165 17.7405 10.3824 18.0354C13.7156 18.9286 17.1417 16.9505 18.0349 13.6172C18.1421 13.2171 18.5533 12.9797 18.9534 13.0869Z" fill="currentColor"/>
</svg>
