<svg viewBox="0 0 24 24" fill="none" xmlns="http://www.w3.org/2000/svg">
<path fill-rule="evenodd" clip-rule="evenodd" d="M11.9999 5.75C10.9272 5.75 10.0576 6.6196 10.0576 7.69231V8.01923H13.9422V7.69231C13.9422 6.6196 13.0726 5.75 11.9999 5.75ZM15.4422 8.01923V7.69231C15.4422 5.79117 13.901 4.25 11.9999 4.25C10.0988 4.25 8.5576 5.79117 8.5576 7.69231V8.01923H7.34243C6.54527 8.01923 5.87675 8.62107 5.79329 9.41386L4.88641 18.0292C4.7896 18.949 5.51074 19.75 6.43554 19.75H17.5643C18.4891 19.75 19.2102 18.949 19.1134 18.0292L18.2065 9.41386C18.1231 8.62107 17.4546 8.01923 16.6574 8.01923H15.4422ZM13.9422 9.51923H10.0576V10.2329C10.2248 10.4144 10.3268 10.6568 10.3268 10.9231C10.3268 11.486 9.87051 11.9423 9.3076 11.9423C8.7447 11.9423 8.28837 11.486 8.28837 10.9231C8.28837 10.6568 8.39045 10.4144 8.5576 10.2329V9.51923H7.34243C7.3129 9.51923 7.28814 9.54152 7.28505 9.57088L6.37817 18.1863C6.37458 18.2203 6.40129 18.25 6.43554 18.25H17.5643C17.5985 18.25 17.6252 18.2203 17.6217 18.1863L16.7148 9.57088C16.7117 9.54152 16.6869 9.51923 16.6574 9.51923H15.4422V10.2329C15.6094 10.4144 15.7115 10.6568 15.7115 10.9231C15.7115 11.486 15.2551 11.9423 14.6922 11.9423C14.1293 11.9423 13.673 11.486 13.673 10.9231C13.673 10.6568 13.7751 10.4144 13.9422 10.2329V9.51923Z" fill="currentColor"/>
</svg>
