<svg viewBox="0 0 24 24" fill="none" xmlns="http://www.w3.org/2000/svg">
<path fill-rule="evenodd" clip-rule="evenodd" d="M4.46967 4.46967C4.76256 4.17678 5.23744 4.17678 5.53033 4.46967L7.58653 6.52587C8.56803 5.14908 10.1785 4.25 12 4.25C14.9916 4.25 17.4167 6.67512 17.4167 9.66667L17.4167 9.66968L17.4165 9.70492V10.25C17.4165 11.8585 18.0232 13.3236 19.0214 14.4317C19.1879 14.6165 19.252 14.8718 19.1924 15.1134C19.1328 15.3549 18.9573 15.5511 18.724 15.6373C18.2227 15.8223 17.7116 15.9873 17.1919 16.1312L19.5303 18.4697C19.8232 18.7626 19.8232 19.2374 19.5303 19.5303C19.2375 19.8232 18.7626 19.8232 18.4697 19.5303L4.46967 5.53033C4.17678 5.23744 4.17678 4.76256 4.46967 4.46967ZM15.9559 14.8953C16.3849 14.7986 16.8079 14.6866 17.2245 14.5598C16.3987 13.3275 15.9165 11.8445 15.9165 10.25V9.70492L15.9165 9.70191L15.9167 9.66667C15.9167 9.66616 15.9167 9.66566 15.9167 9.66515C15.9159 7.50273 14.1626 5.75 12 5.75C10.5934 5.75 9.35881 6.49148 8.66776 7.6071L15.9559 14.8953ZM7.36275 9.87426C7.77639 9.896 8.0941 10.2489 8.07237 10.6626C7.99683 12.1004 7.5292 13.4347 6.77517 14.5598C7.77139 14.863 8.80452 15.0818 9.86633 15.2077C10.5657 15.2906 11.2776 15.3333 11.9999 15.3333C12.247 15.3333 12.493 15.3283 12.7377 15.3184C13.1515 15.3017 13.5006 15.6236 13.5174 16.0375C13.5341 16.4514 13.2122 16.8005 12.7983 16.8172C12.5335 16.8279 12.2673 16.8333 11.9999 16.8333C11.4681 16.8333 10.9412 16.8119 10.42 16.7699C10.4732 17.5963 11.1603 18.25 12 18.25C12.6778 18.25 13.2579 17.8238 13.4833 17.2222C13.6287 16.8344 14.061 16.6378 14.4489 16.7832C14.8367 16.9285 15.0333 17.3608 14.8879 17.7487C14.4502 18.9167 13.3233 19.75 12 19.75C10.2971 19.75 8.91667 18.3695 8.91667 16.6667C8.91667 16.641 8.91699 16.6154 8.91761 16.5899C7.65942 16.3892 6.44133 16.0676 5.27575 15.6373C5.04238 15.5511 4.86692 15.3549 4.80732 15.1134C4.74773 14.8718 4.81176 14.6165 4.97826 14.4317C5.90726 13.4005 6.49687 12.0603 6.57443 10.5839C6.59617 10.1702 6.94911 9.85253 7.36275 9.87426Z" fill="currentColor"/>
</svg>
