<svg viewBox="0 0 24 24" fill="none" xmlns="http://www.w3.org/2000/svg">
<path fill-rule="evenodd" clip-rule="evenodd" d="M12.4645 5.75C10.3014 5.75 8.54786 7.50355 8.54786 9.66667L8.54771 10.25C8.54771 10.2499 8.54771 10.2501 8.54771 10.25C8.54767 11.8444 8.06551 13.3276 7.23969 14.5598C8.23592 14.863 9.26905 15.0818 10.3309 15.2077C11.0302 15.2906 11.7421 15.3333 12.4644 15.3333C13.1867 15.3333 13.8988 15.2906 14.5982 15.2077C15.6599 15.0817 16.6929 14.863 17.6891 14.5598C16.8632 13.3275 16.3811 11.8445 16.3811 10.25V9.6989L16.3812 9.66667C16.3812 7.50355 14.6277 5.75 12.4645 5.75ZM7.04786 9.66647C7.04797 6.67502 9.47306 4.25 12.4645 4.25C15.4561 4.25 17.8812 6.67512 17.8812 9.66667L17.8811 9.70492V10.25C17.8811 11.8585 18.4877 13.3236 19.486 14.4317C19.6525 14.6165 19.7165 14.8718 19.6569 15.1134C19.5973 15.3549 19.4219 15.5511 19.1885 15.6373C18.023 16.0675 16.805 16.3891 15.5469 16.5899C15.5476 16.6154 15.5479 16.641 15.5479 16.6667C15.5479 18.3695 14.1674 19.75 12.4645 19.75C10.7617 19.75 9.3812 18.3695 9.3812 16.6667C9.3812 16.641 9.38152 16.6154 9.38214 16.5899C8.12395 16.3892 6.90585 16.0676 5.74027 15.6373C5.50691 15.5511 5.33145 15.3549 5.27185 15.1134C5.21226 14.8718 5.27629 14.6165 5.44279 14.4317C6.44103 13.3236 7.04771 11.8585 7.04771 10.25L7.04786 9.66647C7.04786 9.66653 7.04786 9.6664 7.04786 9.66647ZM10.8845 16.7699C10.9377 17.5963 11.6248 18.25 12.4645 18.25C13.3043 18.25 13.9914 17.5962 14.0446 16.7699C13.5232 16.8119 12.9962 16.8333 12.4644 16.8333C11.9326 16.8333 11.4057 16.8119 10.8845 16.7699Z" fill="currentColor"/>
</svg>
