<svg viewBox="0 0 24 24" fill="none" xmlns="http://www.w3.org/2000/svg">
<path fill-rule="evenodd" clip-rule="evenodd" d="M6.8499 5.75006C6.73939 5.75006 6.63341 5.79396 6.55527 5.8721L5.63026 6.79711C5.01192 7.41545 5.01192 8.41797 5.63026 9.03631C5.73138 9.13743 5.84187 9.22137 5.9585 9.28878C6.56425 9.63891 7.35216 9.55361 7.86946 9.03631C7.89324 9.01252 7.91605 8.98824 7.9379 8.96351C8.08031 8.80235 8.28506 8.71007 8.50013 8.71012C8.7152 8.71018 8.91989 8.80256 9.06222 8.9638C9.35344 9.29373 9.77711 9.49999 10.2499 9.49999C10.7227 9.49999 11.1464 9.29371 11.4376 8.96375C11.58 8.80245 11.7848 8.71005 11.9999 8.71005C12.215 8.71005 12.4198 8.80245 12.5622 8.96375C12.8534 9.29371 13.2771 9.49999 13.7499 9.49999C14.2227 9.49999 14.6463 9.29375 14.9375 8.96386C15.0799 8.80264 15.2845 8.71027 15.4996 8.71021C15.7146 8.71015 15.9194 8.80241 16.0618 8.96355C16.0836 8.98827 16.1064 9.01252 16.1301 9.03624C16.6475 9.55358 17.4355 9.63885 18.0412 9.28863C18.1578 9.22124 18.2682 9.13733 18.3693 9.03624C18.9877 8.4179 18.9877 7.41538 18.3693 6.79704L17.4444 5.8721C17.3662 5.79396 17.2603 5.75006 17.1498 5.75006H6.8499ZM5.49461 4.81144C5.85405 4.452 6.34157 4.25006 6.8499 4.25006H17.1498C17.6581 4.25006 18.1456 4.452 18.505 4.81144L19.43 5.73638C20.6341 6.94051 20.6341 8.89278 19.43 10.0969C19.3459 10.181 19.2579 10.2594 19.1666 10.332V18.2501H19.4971C19.9113 18.2501 20.2471 18.5858 20.2471 19.0001C20.2471 19.4143 19.9113 19.7501 19.4971 19.7501H4.50274C4.08853 19.7501 3.75274 19.4143 3.75274 19.0001C3.75274 18.5858 4.08853 18.2501 4.50274 18.2501H4.83318V10.3322C4.74184 10.2596 4.6538 10.1812 4.5696 10.097C3.36547 8.89285 3.36547 6.94057 4.5696 5.73645L5.49461 4.81144ZM6.33318 10.9718V18.2501H12.4166V13.1667C12.4166 12.4303 13.0135 11.8333 13.7499 11.8333H16.0833C16.8197 11.8333 17.4166 12.4303 17.4166 13.1667V18.2501H17.6666V10.9717C16.9204 11.0731 16.1442 10.9013 15.4995 10.4558C15.0026 10.7986 14.3995 11 13.7499 11C13.1001 11 12.4969 10.7985 11.9999 10.4554C11.503 10.7985 10.8997 11 10.2499 11C9.60023 11 8.99715 10.7986 8.50027 10.4557C7.85561 10.9013 7.07939 11.0731 6.33318 10.9718ZM15.9166 18.2501V13.3333H13.9166V18.2501H15.9166ZM6.5832 13.1667C6.5832 12.4303 7.18015 11.8333 7.91653 11.8333H10.8332C11.5696 11.8333 12.1666 12.4303 12.1666 13.1667V16.0834C12.1666 16.8198 11.5696 17.4167 10.8332 17.4167H7.91653C7.18015 17.4167 6.5832 16.8198 6.5832 16.0834V13.1667ZM8.0832 13.3333V15.9167H10.6666V13.3333H8.0832Z" fill="currentColor"/>
</svg>
