<svg viewBox="0 0 24 24" fill="none" xmlns="http://www.w3.org/2000/svg">
<path fill-rule="evenodd" clip-rule="evenodd" d="M9.77841 4.54736C9.97732 4.54736 10.1681 4.62638 10.3087 4.76703L9.85222 5.22356C9.80334 5.21587 9.75349 5.21587 9.70461 5.22356L9.24808 4.76704C9.38873 4.62639 9.5795 4.54736 9.77841 4.54736ZM9.31189 5.7639C9.28921 5.61978 9.3334 5.46718 9.44445 5.35612C9.51784 5.28274 9.60937 5.23855 9.70461 5.22356L9.24808 4.76704L9.05172 4.9634C8.65038 5.36474 8.65038 6.01544 9.05172 6.41678C9.45307 6.81813 10.1038 6.81813 10.5051 6.41678C10.9065 6.01544 10.9065 5.36474 10.5051 4.9634L10.3087 4.76703L9.85222 5.22356C9.94746 5.23855 10.039 5.28273 10.1124 5.35612C10.2234 5.46718 10.2676 5.61977 10.245 5.76389L9.77842 5.29736L9.31189 5.7639ZM12 4.54736C12.1989 4.54736 12.3897 4.62638 12.5303 4.76703L12.0738 5.22356C12.0249 5.21587 11.9751 5.21587 11.9262 5.22356L11.4697 4.76704C11.6103 4.62639 11.8011 4.54736 12 4.54736ZM11.5335 5.7639C11.5108 5.61978 11.555 5.46718 11.666 5.35612C11.7394 5.28274 11.831 5.23855 11.9262 5.22356L11.4697 4.76704L11.2733 4.9634C10.872 5.36474 10.872 6.01544 11.2733 6.41678C11.6747 6.81813 12.3254 6.81813 12.7267 6.41678C13.128 6.01544 13.128 5.36474 12.7267 4.9634L12.5303 4.76703L12.0738 5.22356C12.1691 5.23855 12.2606 5.28273 12.334 5.35612C12.445 5.46718 12.4892 5.61977 12.4665 5.76389L12 5.29736L11.5335 5.7639ZM14.7519 4.76703L14.2954 5.22356C14.2465 5.21587 14.1967 5.21587 14.1478 5.22356L13.6913 4.76704C13.8319 4.62638 14.0227 4.54736 14.2216 4.54736C14.4205 4.54736 14.6113 4.62638 14.7519 4.76703ZM13.7551 5.76389C13.7324 5.61978 13.7766 5.46718 13.8876 5.35612C13.961 5.28274 14.0526 5.23855 14.1478 5.22356L13.6913 4.76704L13.4949 4.9634C13.0936 5.36474 13.0936 6.01544 13.4949 6.41678C13.8963 6.81813 14.547 6.81813 14.9483 6.41678C15.3496 6.01544 15.3496 5.36474 14.9483 4.9634L14.7519 4.76703L14.2954 5.22356C14.3907 5.23855 14.4822 5.28273 14.5556 5.35612C14.6666 5.46718 14.7108 5.61978 14.6881 5.7639L14.2216 5.29736L13.7551 5.76389ZM9.02838 8.18939C9.02838 7.77517 9.36416 7.43939 9.77838 7.43939C10.1926 7.43939 10.5284 7.77517 10.5284 8.18939V8.57948C10.7683 8.56991 11.0089 8.56267 11.25 8.55778V8.18939C11.25 7.77517 11.5858 7.43939 12 7.43939C12.4142 7.43939 12.75 7.77517 12.75 8.18939V8.55778C12.9911 8.56267 13.2316 8.56991 13.4716 8.57948V8.18939C13.4716 7.77517 13.8074 7.43939 14.2216 7.43939C14.6358 7.43939 14.9716 7.77517 14.9716 8.18939V8.67012C14.995 8.67202 15.0184 8.67394 15.0418 8.67589C16.2877 8.77929 17.1932 9.83562 17.1932 11.0465V12.2514C17.2673 12.262 17.3414 12.2729 17.4154 12.284C18.5921 12.46 19.4148 13.4826 19.4148 14.6362V15.3933C19.415 15.4038 19.415 15.4142 19.4148 15.4246V18.4643C19.4148 19.3386 18.706 20.0474 17.8317 20.0474H6.16828C5.29396 20.0474 4.58519 19.3386 4.58519 18.4643V15.4247C4.58497 15.4142 4.58497 15.4038 4.58519 15.3933V14.6362C4.58519 13.4826 5.40787 12.46 6.58453 12.284C6.65854 12.2729 6.73263 12.262 6.80678 12.2514V11.0465C6.80678 9.83562 7.71229 8.77929 8.9581 8.67589C8.98152 8.67394 9.00494 8.67202 9.02838 8.67012V8.18939ZM8.30678 12.0682C9.52137 11.9454 10.7534 11.8826 12 11.8826C13.2465 11.8826 14.4786 11.9454 15.6932 12.0682V11.0465C15.6932 10.5764 15.3472 10.2064 14.9178 10.1707C13.9559 10.0909 12.9828 10.0502 12 10.0502C11.0172 10.0502 10.044 10.0909 9.08217 10.1707C8.65276 10.2064 8.30678 10.5764 8.30678 11.0465V12.0682ZM6.08519 16.6231V18.4643C6.08519 18.5102 6.12239 18.5474 6.16828 18.5474H17.8317C17.8776 18.5474 17.9148 18.5102 17.9148 18.4643V16.6231L17.8894 16.6358C16.979 17.091 15.9074 17.091 14.997 16.6358C14.5088 16.3917 13.9343 16.3917 13.4462 16.6358C12.5358 17.091 11.4642 17.091 10.5538 16.6358C10.0656 16.3917 9.49111 16.3917 9.00299 16.6358C8.09258 17.091 7.02098 17.091 6.11057 16.6358L6.08519 16.6231ZM17.9148 14.946L17.2185 15.2942C16.7304 15.5382 16.1559 15.5382 15.6678 15.2942C14.7574 14.8389 13.6858 14.8389 12.7754 15.2942C12.2872 15.5382 11.7127 15.5382 11.2246 15.2942C10.3142 14.8389 9.24258 14.8389 8.33217 15.2942C7.84405 15.5382 7.26951 15.5382 6.78139 15.2942L6.08519 14.946V14.6362C6.08519 14.1889 6.39985 13.8283 6.8065 13.7674C7.08645 13.7255 7.36749 13.687 7.64959 13.6518C9.07444 13.4741 10.5263 13.3826 12 13.3826C13.4736 13.3826 14.9255 13.4741 16.3504 13.6518C16.6325 13.687 16.9135 13.7255 17.1934 13.7674C17.6001 13.8283 17.9148 14.1889 17.9148 14.6362V14.946Z" fill="currentColor"/>
</svg>
