<svg viewBox="0 0 24 24" fill="none" xmlns="http://www.w3.org/2000/svg">
<path d="M16.0303 1.96967C16.3232 2.26256 16.3232 2.73744 16.0303 3.03033L15.8107 3.25H19C19.4142 3.25 19.75 3.58579 19.75 4C19.75 4.41421 19.4142 4.75 19 4.75H15.8107L16.0303 4.96967C16.3232 5.26256 16.3232 5.73744 16.0303 6.03033C15.7374 6.32322 15.2626 6.32322 14.9697 6.03033L13.4697 4.53033C13.1768 4.23744 13.1768 3.76256 13.4697 3.46967L14.9697 1.96967C15.2626 1.67678 15.7374 1.67678 16.0303 1.96967Z" fill="currentColor"/>
<path d="M10.5 4.25H12C12.4142 4.25 12.75 4.58579 12.75 5C12.75 5.41421 12.4142 5.75 12 5.75H10.5C9.65424 5.75 8.9471 6.35073 8.78502 7.1492C8.71406 7.49877 8.40671 7.75 8.05001 7.75H6C5.30964 7.75 4.75 8.30964 4.75 9V17C4.75 17.6904 5.30964 18.25 6 18.25H18C18.6904 18.25 19.25 17.6904 19.25 17V12C19.25 11.5858 19.5858 11.25 20 11.25C20.4142 11.25 20.75 11.5858 20.75 12V17C20.75 18.5188 19.5188 19.75 18 19.75H6C4.48122 19.75 3.25 18.5188 3.25 17V9C3.25 7.48122 4.48122 6.25 6 6.25H7.49932C7.98912 5.07557 9.14753 4.25 10.5 4.25Z" fill="currentColor"/>
<path fill-rule="evenodd" clip-rule="evenodd" d="M16 13C16 15.2091 14.2091 17 12 17C9.79086 17 8 15.2091 8 13C8 10.7909 9.79086 9 12 9C14.2091 9 16 10.7909 16 13ZM14.5 13C14.5 14.3807 13.3807 15.5 12 15.5C10.6193 15.5 9.5 14.3807 9.5 13C9.5 11.6193 10.6193 10.5 12 10.5C13.3807 10.5 14.5 11.6193 14.5 13Z" fill="currentColor"/>
<path d="M18.9697 9.46967C18.6768 9.76256 18.6768 10.2374 18.9697 10.5303C19.2626 10.8232 19.7374 10.8232 20.0303 10.5303L21.5303 9.03033C21.8232 8.73744 21.8232 8.26256 21.5303 7.96967L20.0303 6.46967C19.7374 6.17678 19.2626 6.17678 18.9697 6.46967C18.6768 6.76256 18.6768 7.23744 18.9697 7.53033L19.1893 7.75L16 7.75C15.5858 7.75 15.25 8.08579 15.25 8.5C15.25 8.91421 15.5858 9.25 16 9.25L19.1893 9.25L18.9697 9.46967Z" fill="currentColor"/>
</svg>
