<svg viewBox="0 0 24 24" fill="none" xmlns="http://www.w3.org/2000/svg">
<path fill-rule="evenodd" clip-rule="evenodd" d="M12 5.25005C12.1989 5.25005 12.3897 5.32907 12.5303 5.46972L19.5303 12.4697C19.8232 12.7626 19.8232 13.2375 19.5303 13.5304C19.2374 13.8233 18.7626 13.8233 18.4697 13.5304L12 7.06071L5.53033 13.5304C5.23744 13.8233 4.76256 13.8233 4.46967 13.5304C4.17678 13.2375 4.17678 12.7626 4.46967 12.4697L11.4697 5.46972C11.6103 5.32907 11.8011 5.25005 12 5.25005ZM12 10.85C12.1989 10.85 12.3897 10.9291 12.5303 11.0697L19.5303 18.0697C19.8232 18.3626 19.8232 18.8375 19.5303 19.1304C19.2374 19.4233 18.7626 19.4233 18.4697 19.1304L12 12.6607L5.53033 19.1304C5.23744 19.4233 4.76256 19.4233 4.46967 19.1304C4.17678 18.8375 4.17678 18.3626 4.46967 18.0697L11.4697 11.0697C11.6103 10.9291 11.8011 10.85 12 10.85Z" fill="currentColor"/>
</svg>
