<svg viewBox="0 0 24 24" fill="none" xmlns="http://www.w3.org/2000/svg">
<path fill-rule="evenodd" clip-rule="evenodd" d="M10.7 5.75C8.40801 5.75 6.55 7.60802 6.55 9.9C6.55 10.1643 6.57461 10.4222 6.62148 10.6717C6.69087 11.0411 6.4761 11.4048 6.11912 11.5225C4.74226 11.9763 3.75 13.2732 3.75 14.8C3.75 16.7054 5.29462 18.25 7.19999 18.25H17.7C19.2188 18.25 20.45 17.0188 20.45 15.5C20.45 14.3263 19.7144 13.3226 18.6765 12.9282C18.2963 12.7837 18.1005 12.3626 18.2351 11.9788C18.3093 11.7674 18.35 11.5392 18.35 11.3C18.35 10.1678 17.4322 9.25 16.3 9.25C16.0778 9.25 15.8652 9.28508 15.6668 9.34945C15.471 9.41296 15.2576 9.39318 15.0768 9.29476C14.896 9.19633 14.7636 9.02792 14.7107 8.82898C14.2385 7.05559 12.6208 5.75 10.7 5.75ZM5.05 9.9C5.05 6.77959 7.57958 4.25 10.7 4.25C13.0671 4.25 15.0927 5.7051 15.9339 7.7687C16.0544 7.75633 16.1765 7.75 16.3 7.75C18.2606 7.75 19.85 9.33939 19.85 11.3C19.85 11.4736 19.8375 11.6446 19.8132 11.812C21.0893 12.5447 21.95 13.9212 21.95 15.5C21.95 17.8472 20.0472 19.75 17.7 19.75H7.19999C4.46619 19.75 2.25 17.5338 2.25 14.8C2.25 12.8293 3.40121 11.1291 5.06633 10.3324C5.0555 10.1896 5.05 10.0454 5.05 9.9ZM12.1 9.15C12.2989 9.15 12.4897 9.22902 12.6303 9.36967L15.4303 12.1697C15.7232 12.4626 15.7232 12.9374 15.4303 13.2303C15.1374 13.5232 14.6625 13.5232 14.3697 13.2303L12.85 11.7107L12.85 16.2C12.85 16.6142 12.5142 16.95 12.1 16.95C11.6858 16.95 11.35 16.6142 11.35 16.2L11.35 11.7107L9.83032 13.2303C9.53743 13.5232 9.06255 13.5232 8.76966 13.2303C8.47677 12.9374 8.47677 12.4626 8.76966 12.1697L11.5697 9.36967C11.7103 9.22902 11.9011 9.15 12.1 9.15Z" fill="currentColor"/>
</svg>
