<svg viewBox="0 0 24 24" fill="none" xmlns="http://www.w3.org/2000/svg">
<path fill-rule="evenodd" clip-rule="evenodd" d="M12.5 5.75C8.77208 5.75 5.75 8.77208 5.75 12.5C5.75 16.2279 8.77208 19.25 12.5 19.25C16.2279 19.25 19.25 16.2279 19.25 12.5C19.25 8.77208 16.2279 5.75 12.5 5.75ZM4.25 12.5C4.25 7.94365 7.94365 4.25 12.5 4.25C17.0563 4.25 20.75 7.94365 20.75 12.5C20.75 17.0563 17.0563 20.75 12.5 20.75C7.94365 20.75 4.25 17.0563 4.25 12.5ZM12.5 6.75C12.9142 6.75 13.25 7.08579 13.25 7.5V8.0765C13.7546 8.18108 14.2337 8.39289 14.6354 8.71194L14.9811 8.9866C15.3054 9.24425 15.3595 9.71604 15.1019 10.0404C14.8442 10.3647 14.3724 10.4188 14.0481 10.1611L13.7023 9.88645C13.5684 9.78008 13.415 9.69567 13.25 9.63321V11.8196C13.7744 11.9183 14.2842 12.124 14.7178 12.4492C15.3652 12.9348 15.75 13.6244 15.75 14.375C15.75 15.1256 15.3652 15.8152 14.7178 16.3008C14.2842 16.626 13.7744 16.8317 13.25 16.9304V17.5C13.25 17.9142 12.9142 18.25 12.5 18.25C12.0858 18.25 11.75 17.9142 11.75 17.5V16.9304C11.2257 16.8316 10.7159 16.626 10.2824 16.3008L9.54999 15.7515C9.21862 15.503 9.15147 15.0329 9.40001 14.7015C9.64854 14.3701 10.1186 14.303 10.45 14.5515L11.1824 15.1008C11.3439 15.2219 11.5369 15.3187 11.75 15.3866V13.1736C11.2535 13.0708 10.7728 12.8626 10.3644 12.5381C9.74421 12.0454 9.3896 11.3577 9.3896 10.625C9.3896 9.89229 9.74421 9.20462 10.3644 8.71194C10.7661 8.39284 11.2453 8.18101 11.75 8.07645V7.5C11.75 7.08579 12.0858 6.75 12.5 6.75ZM11.75 9.63313C11.5849 9.69559 11.4314 9.78003 11.2974 9.88645C10.9959 10.126 10.8896 10.398 10.8896 10.625C10.8896 10.852 10.9959 11.124 11.2974 11.3636C11.4285 11.4677 11.5818 11.553 11.75 11.6168V9.63313ZM13.25 13.3634V15.3866C13.4631 15.3187 13.6563 15.222 13.8178 15.1008C14.1466 14.8542 14.25 14.5842 14.25 14.375C14.25 14.1658 14.1466 13.8958 13.8178 13.6492C13.6563 13.528 13.4631 13.4313 13.25 13.3634Z" fill="currentColor"/>
</svg>
