<svg viewBox="0 0 24 24" fill="none" xmlns="http://www.w3.org/2000/svg">
<path fill-rule="evenodd" clip-rule="evenodd" d="M15.5399 4.2294C15.3985 4.08281 15.2037 4 15 4C14.7964 4 14.6015 4.08281 14.4601 4.2294L6.74584 12.2294C6.66633 12.3119 6.60676 12.4114 6.57171 12.5205L5.28599 16.5205C5.20433 16.7746 5.26382 17.0529 5.44221 17.2514C5.6206 17.4498 5.89102 17.5386 6.15233 17.4844L10.438 16.5955C10.5858 16.5648 10.7209 16.4903 10.8256 16.3817L18.5399 8.38171C18.8201 8.09118 18.8201 7.63104 18.5399 7.34051L15.5399 4.2294ZM15.8572 9.00285L13.899 6.97222L15 5.83048L16.9581 7.86111L15.8572 9.00285ZM12.8572 8.0527L14.8153 10.0833L9.90662 15.1738L7.10786 15.7543L7.94647 13.1453L12.8572 8.0527Z" fill="currentColor"/>
<path d="M5 19C4.58579 19 4.25 19.3358 4.25 19.75C4.25 20.1642 4.58579 20.5 5 20.5L19 20.5C19.4142 20.5 19.75 20.1642 19.75 19.75C19.75 19.3358 19.4142 19 19 19L5 19Z" fill="currentColor"/>
</svg>
