<svg viewBox="0 0 24 24" fill="none" xmlns="http://www.w3.org/2000/svg">
<path fill-rule="evenodd" clip-rule="evenodd" d="M3 7.7C3 6.20883 4.20884 5 5.70001 5H18.7001C20.1913 5 21.4001 6.20883 21.4001 7.7V16.8C21.4001 18.2912 20.1913 19.5 18.7001 19.5H5.70001C4.20884 19.5 3 18.2912 3 16.8V7.7ZM4.5 7.7V7.91035C4.5 8.32706 4.71619 8.71394 5.07109 8.93234L11.5711 12.9323C11.9568 13.1697 12.4433 13.1697 12.829 12.9323L19.329 8.93234C19.6839 8.71394 19.9001 8.32706 19.9001 7.91035V7.7C19.9001 7.03726 19.3628 6.5 18.7001 6.5H5.70001C5.03726 6.5 4.5 7.03726 4.5 7.7ZM19.9001 10.3422L13.6151 14.2098C12.7473 14.7439 11.6528 14.7439 10.785 14.2098L4.5 10.3422V16.8C4.5 17.4627 5.03726 18 5.70001 18H18.7001C19.3628 18 19.9001 17.4627 19.9001 16.8V10.3422Z" fill="currentColor"/>
</svg>
