<svg viewBox="0 0 24 24" fill="none" xmlns="http://www.w3.org/2000/svg">
<path fill-rule="evenodd" clip-rule="evenodd" d="M12 3.875C12.4142 3.875 12.75 4.21079 12.75 4.625V9.50999L13.9044 8.35554C14.1973 8.06265 14.6722 8.06265 14.9651 8.35554C15.258 8.64843 15.258 9.12331 14.9651 9.4162L12.5303 11.851C12.2374 12.1439 11.7625 12.1439 11.4696 11.851L9.03484 9.4162C8.74195 9.12331 8.74195 8.64843 9.03484 8.35554C9.32774 8.06265 9.80261 8.06265 10.0955 8.35554L11.25 9.50999V4.625C11.25 4.21079 11.5857 3.875 12 3.875ZM7.8704 5.9837C7.39799 5.9837 6.98083 6.2918 6.8419 6.74332L5.10238 12.3967H7.2192C8.19495 12.3967 9.08695 12.948 9.52332 13.8208L9.73128 14.2367C9.91356 14.6012 10.2862 14.8315 10.6938 14.8315H13.3062C13.7137 14.8315 14.0864 14.6012 14.2686 14.2367L14.4766 13.8208C14.913 12.948 15.805 12.3967 16.7807 12.3967H18.8975L17.158 6.74332C17.0191 6.2918 16.6019 5.9837 16.1295 5.9837H14.4347C14.0205 5.9837 13.6847 5.64791 13.6847 5.2337C13.6847 4.81948 14.0205 4.4837 14.4347 4.4837H16.1295C17.2604 4.4837 18.2591 5.22129 18.5917 6.30219L20.5491 12.6637C20.5665 12.7204 20.582 12.7776 20.5954 12.8352C20.6388 12.9301 20.663 13.0356 20.663 13.1467C20.663 13.1795 20.6609 13.2117 20.6568 13.2433C20.6609 13.3025 20.663 13.3619 20.663 13.4213V16.7989C20.663 18.2216 19.5096 19.375 18.0869 19.375H5.913C4.49027 19.375 3.33691 18.2216 3.33691 16.7989V13.4213C3.33691 13.3619 3.33897 13.3025 3.34307 13.2433C3.33901 13.2117 3.33691 13.1795 3.33691 13.1467C3.33691 13.0356 3.36109 12.9301 3.40448 12.8352C3.41794 12.7776 3.4334 12.7204 3.45083 12.6637L5.40823 6.30219C5.74081 5.22129 6.73948 4.4837 7.8704 4.4837H9.56517C9.97939 4.4837 10.3152 4.81948 10.3152 5.2337C10.3152 5.64791 9.97939 5.9837 9.56517 5.9837H7.8704ZM4.83691 13.8967V16.7989C4.83691 17.3932 5.31869 17.875 5.913 17.875H18.0869C18.6812 17.875 19.163 17.3932 19.163 16.7989V13.8967H16.7807C16.3731 13.8967 16.0005 14.127 15.8182 14.4916L15.6103 14.9075C15.1739 15.7802 14.2819 16.3315 13.3062 16.3315H10.6938C9.71801 16.3315 8.82601 15.7802 8.38964 14.9075L8.18168 14.4916C7.9994 14.127 7.62679 13.8967 7.2192 13.8967H4.83691Z" fill="currentColor"/>
</svg>
