<svg viewBox="0 0 24 24" fill="none" xmlns="http://www.w3.org/2000/svg">
<path fill-rule="evenodd" clip-rule="evenodd" d="M3.41685 3.46967C3.70974 3.17678 4.18461 3.17678 4.47751 3.46967L6.92756 5.91972C8.40611 5.06955 10.1208 4.58333 11.9472 4.58333C16.5155 4.58333 20.3725 7.62078 21.6124 11.7846C21.654 11.9242 21.654 12.0729 21.6125 12.2125C21.0173 14.2135 19.8187 15.9529 18.2287 17.2209L20.4775 19.4697C20.7704 19.7626 20.7704 20.2374 20.4775 20.5303C20.1846 20.8232 19.7097 20.8232 19.4168 20.5303L3.41685 4.53033C3.12395 4.23744 3.12395 3.76256 3.41685 3.46967ZM17.1601 16.1523C18.5236 15.1081 19.5642 13.6649 20.108 11.9988C18.9859 8.56383 15.7553 6.08333 11.9472 6.08333C10.5363 6.08333 9.20638 6.42319 8.03324 7.02541L10.1203 9.11242C10.6486 8.77763 11.2755 8.58333 11.9472 8.58333C13.8341 8.58333 15.3638 10.113 15.3638 12C15.3638 12.6716 15.1695 13.2986 14.8347 13.8269L17.1601 16.1523ZM13.7253 12.7174C13.8147 12.4959 13.8638 12.2538 13.8638 12C13.8638 10.9415 13.0057 10.0833 11.9472 10.0833C11.6933 10.0833 11.4513 10.1325 11.2297 10.2219L13.7253 12.7174ZM5.3026 8.06968C5.61884 8.33719 5.65835 8.81042 5.39083 9.12666C4.68298 9.96345 4.13288 10.9369 3.78553 12.0012C4.90762 15.4362 8.13826 17.9167 11.9464 17.9167C12.759 17.9167 13.544 17.804 14.2873 17.5938C14.6859 17.481 15.1004 17.7128 15.2131 18.1114C15.3258 18.51 15.0941 18.9244 14.6955 19.0372C13.8207 19.2845 12.8983 19.4167 11.9464 19.4167C7.378 19.4167 3.52103 16.3792 2.28113 12.2154C2.23956 12.0758 2.23954 11.9271 2.28107 11.7875C2.68283 10.4368 3.35956 9.20537 4.24562 8.15791C4.51313 7.84167 4.98636 7.80217 5.3026 8.06968Z" fill="currentColor"/>
</svg>
