<svg viewBox="0 0 24 24" fill="none" xmlns="http://www.w3.org/2000/svg">
<path fill-rule="evenodd" clip-rule="evenodd" d="M11.904 5.75C8.11216 5.75 4.89274 8.20932 3.75753 11.622C3.7474 11.6524 3.74741 11.6856 3.75756 11.7161C4.89418 15.1263 8.11237 17.5833 11.9025 17.5833C15.6944 17.5833 18.9138 15.124 20.049 11.7113C20.0591 11.6809 20.0591 11.6477 20.049 11.6172C18.9123 8.20703 15.6941 5.75 11.904 5.75ZM2.33421 11.1485C3.6672 7.1413 7.44699 4.25 11.904 4.25C16.359 4.25 20.1374 7.13861 21.472 11.1429C21.5847 11.481 21.5848 11.8467 21.4723 12.1848C20.1393 16.192 16.3595 19.0833 11.9025 19.0833C7.44751 19.0833 3.66916 16.1947 2.33452 12.1904C2.22185 11.8524 2.22174 11.4866 2.33421 11.1485ZM11.9033 9.75C10.8448 9.75 9.98665 10.6081 9.98665 11.6667C9.98665 12.7252 10.8448 13.5833 11.9033 13.5833C12.9619 13.5833 13.82 12.7252 13.82 11.6667C13.82 10.6081 12.9619 9.75 11.9033 9.75ZM8.48665 11.6667C8.48665 9.77969 10.0163 8.25 11.9033 8.25C13.7903 8.25 15.32 9.77969 15.32 11.6667C15.32 13.5536 13.7903 15.0833 11.9033 15.0833C10.0163 15.0833 8.48665 13.5536 8.48665 11.6667Z" fill="currentColor"/>
</svg>
