<svg viewBox="0 0 24 24" fill="none" xmlns="http://www.w3.org/2000/svg">
<path d="M12.0002 18.6666C15.6762 18.6666 18.6668 15.676 18.6668 12C18.6668 8.32398 15.6762 5.33331 12.0002 5.33331C8.32416 5.33331 5.3335 8.32398 5.3335 12C5.3335 15.676 8.32416 18.6666 12.0002 18.6666ZM14.3288 9.99998C14.4618 9.99658 14.594 10.0198 14.7178 10.0684C14.8416 10.1169 14.9544 10.1897 15.0496 10.2826C15.1448 10.3754 15.2205 10.4863 15.2721 10.6089C15.3237 10.7314 15.3503 10.863 15.3503 10.996C15.3502 11.129 15.3235 11.2606 15.2718 11.3831C15.2201 11.5056 15.1444 11.6165 15.0491 11.7092C14.9539 11.802 14.841 11.8747 14.7172 11.9232C14.5934 11.9716 14.4611 11.9948 14.3282 11.9913C14.0686 11.9845 13.8219 11.8766 13.6407 11.6905C13.4595 11.5045 13.3582 11.255 13.3583 10.9953C13.3583 10.7356 13.4599 10.4862 13.6412 10.3003C13.8225 10.1144 14.0692 10.0066 14.3288 9.99998ZM11.4615 14.6126C11.8171 14.684 12.1833 14.684 12.5388 14.6126C12.7075 14.578 12.8755 14.5253 13.0388 14.4573C13.1948 14.3906 13.3482 14.308 13.4915 14.212C13.6302 14.1173 13.7628 14.008 13.8855 13.886C14.0075 13.7646 14.1168 13.632 14.2115 13.4913L15.3168 14.236C15.0295 14.6619 14.6631 15.0287 14.2375 15.3166C13.8039 15.6092 13.3172 15.814 12.8048 15.9193C12.2737 16.026 11.7266 16.0258 11.1955 15.9186C10.683 15.8148 10.1962 15.6102 9.7635 15.3166C9.33793 15.028 8.97118 14.6611 8.68283 14.2353L9.78816 13.4906C9.8835 13.6313 9.99283 13.764 10.1135 13.884C10.4816 14.2539 10.9504 14.5073 11.4615 14.6126ZM9.66683 9.99998C9.79819 10 9.92827 10.0259 10.0496 10.0763C10.171 10.1266 10.2812 10.2003 10.3741 10.2932C10.4669 10.3861 10.5406 10.4964 10.5908 10.6178C10.641 10.7392 10.6669 10.8693 10.6668 11.0006C10.6668 11.132 10.6409 11.2621 10.5906 11.3834C10.5402 11.5048 10.4665 11.615 10.3736 11.7079C10.2807 11.8007 10.1704 11.8744 10.049 11.9246C9.92762 11.9749 9.79753 12.0007 9.66616 12.0006C9.40086 12.0006 9.14645 11.8951 8.95892 11.7074C8.77138 11.5198 8.66607 11.2653 8.66616 11C8.66625 10.7347 8.77173 10.4803 8.95939 10.2927C9.14705 10.1052 9.40152 9.99989 9.66683 9.99998Z" fill="currentColor"/>
<path fill-rule="evenodd" clip-rule="evenodd" d="M6 22H2V18H2.62268e-07V23C2.62268e-07 23.5523 0.447716 24 1 24H6V22Z" fill="currentColor"/>
<path fill-rule="evenodd" clip-rule="evenodd" d="M2 6L2 2L6 2L6 2.18557e-07L1 0C0.447716 -2.41411e-08 2.42698e-07 0.447715 2.18557e-07 1L0 6H2Z" fill="currentColor"/>
<path fill-rule="evenodd" clip-rule="evenodd" d="M18 2L22 2V6H24V1C24 0.447716 23.5523 6.56254e-07 23 6.07971e-07L18 1.70857e-07V2Z" fill="currentColor"/>
<path fill-rule="evenodd" clip-rule="evenodd" d="M22 18V22H18V24H23C23.5523 24 24 23.5523 24 23V18H22Z" fill="currentColor"/>
</svg>
