<svg viewBox="0 0 24 24" fill="none" xmlns="http://www.w3.org/2000/svg">
<path fill-rule="evenodd" clip-rule="evenodd" d="M7.80769 5.75C7.77583 5.75 7.75 5.77583 7.75 5.80769V18.1923C7.75 18.2242 7.77583 18.25 7.80769 18.25H16.9615C16.9934 18.25 17.0192 18.2242 17.0192 18.1923V11.7308C17.0192 10.8068 16.2702 10.0577 15.3462 10.0577H14.2692C13.4089 10.0577 12.7115 9.36029 12.7115 8.5V7.42308C12.7115 6.49906 11.9625 5.75 11.0385 5.75H7.80769ZM7.80769 4.25C6.9474 4.25 6.25 4.9474 6.25 5.80769V18.1923C6.25 19.0526 6.9474 19.75 7.80769 19.75H16.9615C17.8218 19.75 18.5192 19.0526 18.5192 18.1923V11.4615C18.5192 7.47872 15.2905 4.25 11.3077 4.25H7.80769ZM14.0617 6.4566C14.159 6.76133 14.2115 7.08607 14.2115 7.42308V8.5C14.2115 8.53186 14.2374 8.55769 14.2692 8.55769H15.3462C15.6832 8.55769 16.0079 8.61024 16.3126 8.70757C15.7907 7.76109 15.0081 6.97851 14.0617 6.4566ZM8.94231 14.1538C8.94231 13.7396 9.27809 13.4038 9.69231 13.4038H15.0769C15.4911 13.4038 15.8269 13.7396 15.8269 14.1538C15.8269 14.5681 15.4911 14.9038 15.0769 14.9038H9.69231C9.27809 14.9038 8.94231 14.5681 8.94231 14.1538ZM8.94231 16.3077C8.94231 15.8935 9.27809 15.5577 9.69231 15.5577H12.3846C12.7988 15.5577 13.1346 15.8935 13.1346 16.3077C13.1346 16.7219 12.7988 17.0577 12.3846 17.0577H9.69231C9.27809 17.0577 8.94231 16.7219 8.94231 16.3077Z" fill="currentColor"/>
</svg>
