<svg viewBox="0 0 24 24" fill="none" xmlns="http://www.w3.org/2000/svg">
<g clip-path="url(#clip0_936_73541)">
<path d="M2 2L2 6H0V1C0 0.447715 0.447716 0 1 0H6L6 2L2 2Z" fill="currentColor"/>
<path d="M2 22H6V24H1C0.447716 24 0 23.5523 0 23V18H2V22Z" fill="currentColor"/>
<path d="M18 2L22 2V6H24V1C24 0.447716 23.5523 0 23 0H18V2Z" fill="currentColor"/>
<path d="M22 22V18H24V23C24 23.5523 23.5523 24 23 24H18V22H22Z" fill="currentColor"/>
<path d="M9.92818 6.59263C10.7322 6.06013 11.6957 5.75 12.7339 5.75C15.5443 5.75 17.8226 8.02826 17.8226 10.8386C17.8226 13.0155 17.4083 15.0936 16.6547 16.9998C16.5025 17.385 16.6913 17.8207 17.0765 17.973C17.4617 18.1253 17.8974 17.9365 18.0497 17.5513C18.8716 15.4723 19.3226 13.2072 19.3226 10.8386C19.3226 7.19984 16.3727 4.25 12.7339 4.25C11.3921 4.25 10.1419 4.6519 9.0999 5.34205C8.75456 5.57078 8.66002 6.03615 8.88875 6.38148C9.11747 6.72682 9.58284 6.82136 9.92818 6.59263Z" fill="currentColor"/>
<path d="M8.48791 8.0329C8.71663 7.68756 8.6221 7.2222 8.27676 6.99347C7.93143 6.76475 7.46606 6.85928 7.23733 7.20462C6.54718 8.24664 6.14528 9.49685 6.14528 10.8386C6.14528 11.8357 5.85954 12.7635 5.36558 13.5474C5.14474 13.8978 5.2498 14.3609 5.60024 14.5818C5.95067 14.8026 6.41378 14.6975 6.63461 14.3471C7.27515 13.3307 7.64528 12.1267 7.64528 10.8386C7.64528 9.80042 7.95541 8.8369 8.48791 8.0329Z" fill="currentColor"/>
<path d="M10.5646 10.8386C10.5646 9.64056 11.5358 8.66932 12.7339 8.66932C13.932 8.66932 14.9032 9.64056 14.9032 10.8386C14.9032 11.2285 14.8874 11.6141 14.8559 11.9949C14.8218 12.4078 15.1288 12.7701 15.5416 12.8042C15.9544 12.8383 16.3167 12.5313 16.3508 12.1184C16.3857 11.696 16.4032 11.2692 16.4032 10.8386C16.4032 8.81214 14.7604 7.16932 12.7339 7.16932C10.7074 7.16932 9.0646 8.81214 9.0646 10.8386C9.0646 12.9081 8.28088 14.7925 6.9926 16.2141C6.71445 16.5211 6.73778 16.9954 7.04471 17.2735C7.35164 17.5517 7.82595 17.5283 8.10409 17.2214C9.63271 15.5346 10.5646 13.2946 10.5646 10.8386Z" fill="currentColor"/>
<path d="M13.4842 10.8386C13.4842 10.4244 13.1484 10.0886 12.7342 10.0886C12.32 10.0886 11.9842 10.4244 11.9842 10.8386C11.9842 13.5511 10.9968 16.031 9.36102 17.9416C9.09162 18.2562 9.12829 18.7297 9.44293 18.9991C9.75757 19.2685 10.231 19.2318 10.5004 18.9172C12.3601 16.7451 13.4842 13.9222 13.4842 10.8386Z" fill="currentColor"/>
<path d="M15.8163 15.057C15.9299 14.6586 15.6991 14.2436 15.3008 14.13C14.9025 14.0163 14.4875 14.2471 14.3738 14.6454C13.9695 16.0626 13.3449 17.3873 12.539 18.5801C12.3071 18.9234 12.3974 19.3896 12.7406 19.6215C13.0838 19.8533 13.55 19.7631 13.7819 19.4199C14.6749 18.0981 15.3677 16.6292 15.8163 15.057Z" fill="currentColor"/>
</g>
<defs>
<clipPath id="clip0_936_73541">
<rect width="24" height="24" fill="white"/>
</clipPath>
</defs>
</svg>
