<svg viewBox="0 0 24 24" fill="none" xmlns="http://www.w3.org/2000/svg">
<path fill-rule="evenodd" clip-rule="evenodd" d="M12.4984 4.75C11.3295 4.75 10.2429 5.10831 9.33454 5.7258C8.99198 5.95866 8.52551 5.86973 8.29265 5.52716C8.05979 5.1846 8.14872 4.71813 8.49129 4.48527C9.63852 3.70543 11.017 3.25 12.4984 3.25C16.5216 3.25 19.75 6.59176 19.75 10.6727C19.75 13.3634 19.2509 15.9366 18.341 18.2988C18.1921 18.6853 17.758 18.878 17.3715 18.7291C16.985 18.5802 16.7923 18.1461 16.9412 17.7596C17.7857 15.5673 18.25 13.1768 18.25 10.6727C18.25 7.38321 15.6567 4.75 12.4984 4.75ZM7.48066 6.3627C7.82869 6.5873 7.92876 7.05151 7.70416 7.39954C7.09989 8.33592 6.74681 9.46019 6.74681 10.6727C6.74681 12.1199 6.34176 13.4735 5.63912 14.6178C5.42238 14.9708 4.96053 15.0813 4.60754 14.8645C4.25456 14.6478 4.14411 14.186 4.36085 13.833C4.92151 12.9199 5.24681 11.8371 5.24681 10.6727C5.24681 9.16526 5.6866 7.75956 6.44381 6.5862C6.66841 6.23816 7.13262 6.1381 7.48066 6.3627ZM12.4984 8.08637C11.1355 8.08637 9.9976 9.22584 9.9976 10.6727C9.9976 13.4461 8.97251 15.9784 7.28623 17.8882C7.01207 18.1986 6.53811 18.2281 6.22761 17.9539C5.91712 17.6798 5.88766 17.2058 6.16182 16.8953C7.61229 15.2526 8.4976 13.0712 8.4976 10.6727C8.4976 8.43439 10.2706 6.58637 12.4984 6.58637C14.7262 6.58637 16.4992 8.43439 16.4992 10.6727C16.4992 11.1613 16.4798 11.6457 16.4413 12.125C16.408 12.5379 16.0464 12.8456 15.6335 12.8124C15.2206 12.7791 14.9129 12.4175 14.9461 12.0046C14.9814 11.5659 14.9992 11.1217 14.9992 10.6727C14.9992 9.22584 13.8613 8.08637 12.4984 8.08637ZM12.4987 9.92274C12.9129 9.92274 13.2487 10.2585 13.2487 10.6727C13.2487 14.1648 12.0086 17.364 9.95282 19.8283C9.68747 20.1464 9.21452 20.1891 8.89646 19.9238C8.5784 19.6584 8.53566 19.1855 8.801 18.8674C10.6376 16.6659 11.7487 13.8047 11.7487 10.6727C11.7487 10.2585 12.0845 9.92274 12.4987 9.92274ZM15.3285 14.5359C15.7276 14.6468 15.9612 15.0603 15.8502 15.4594C15.3543 17.2436 14.5881 18.9111 13.5998 20.4124C13.3721 20.7584 12.907 20.8542 12.561 20.6264C12.215 20.3987 12.1192 19.9336 12.3469 19.5876C13.2505 18.215 13.9513 16.69 14.405 15.0576C14.5159 14.6586 14.9294 14.425 15.3285 14.5359Z" fill="currentColor"/>
</svg>
