<svg viewBox="0 0 24 24" fill="none" xmlns="http://www.w3.org/2000/svg">
<path fill-rule="evenodd" clip-rule="evenodd" d="M12.25 5.5C8.52208 5.5 5.5 8.52208 5.5 12.25C5.5 15.9779 8.52208 19 12.25 19C15.9779 19 19 15.9779 19 12.25C19 8.52208 15.9779 5.5 12.25 5.5ZM4 12.25C4 7.69365 7.69365 4 12.25 4C16.8063 4 20.5 7.69365 20.5 12.25C20.5 16.8063 16.8063 20.5 12.25 20.5C7.69365 20.5 4 16.8063 4 12.25ZM13.5241 9.08014C12.8305 8.47329 11.6698 8.47329 10.9763 9.08014C10.6646 9.3529 10.1908 9.32131 9.91799 9.00958C9.64523 8.69785 9.67682 8.22403 9.98854 7.95127C11.2476 6.84958 13.2528 6.84958 14.5118 7.95127C15.8296 9.10435 15.8296 11.0206 14.5118 12.1737C14.2892 12.3686 14.0441 12.528 13.7862 12.6528C13.2342 12.92 13.0002 13.2602 13.0002 13.5V14.125C13.0002 14.5392 12.6644 14.875 12.2502 14.875C11.836 14.875 11.5002 14.5392 11.5002 14.125V13.5C11.5002 12.359 12.4419 11.637 13.1327 11.3026C13.2753 11.2336 13.4069 11.1474 13.5241 11.0449C14.1589 10.4894 14.1589 9.6356 13.5241 9.08014ZM11.5 16.625C11.5 16.2108 11.8358 15.875 12.25 15.875H12.2563C12.6705 15.875 13.0063 16.2108 13.0063 16.625V16.6313C13.0063 17.0455 12.6705 17.3813 12.2563 17.3813H12.25C11.8358 17.3813 11.5 17.0455 11.5 16.6313V16.625Z" fill="currentColor"/>
</svg>
