<svg viewBox="0 0 24 24" fill="none" xmlns="http://www.w3.org/2000/svg">
<path d="M8.75011 5C8.75011 4.58579 8.41433 4.25 8.00011 4.25C7.5859 4.25 7.25011 4.58579 7.25011 5L7.25011 13.9669C7.25004 13.9779 7.25 13.989 7.25 14C7.25 14.0044 7.25004 14.0088 7.25011 14.0131L7.25011 19C7.25011 19.4142 7.5859 19.75 8.00011 19.75C8.41433 19.75 8.75011 19.4142 8.75011 19L8.75011 13.9727C8.76477 12.1903 10.2142 10.75 12 10.75C13.7949 10.75 15.25 12.2051 15.25 14V19C15.25 19.4142 15.5858 19.75 16 19.75C16.4142 19.75 16.75 19.4142 16.75 19V14C16.75 11.3766 14.6234 9.25 12 9.25C10.7428 9.25 9.59975 9.73838 8.75011 10.5358L8.75011 5Z" fill="currentColor"/>
</svg>
