<svg viewBox="0 0 24 24" fill="none" xmlns="http://www.w3.org/2000/svg">
<path fill-rule="evenodd" clip-rule="evenodd" d="M12 4C9.92893 4 8.25 5.67893 8.25 7.75C8.25 9.82107 9.92893 11.5 12 11.5C14.0711 11.5 15.75 9.82107 15.75 7.75C15.75 5.67893 14.0711 4 12 4ZM9.75 7.75C9.75 6.50736 10.7574 5.5 12 5.5C13.2426 5.5 14.25 6.50736 14.25 7.75C14.25 8.99264 13.2426 10 12 10C10.7574 10 9.75 8.99264 9.75 7.75ZM10 13C7.37665 13 5.25 15.1266 5.25 17.75V19.75C5.25 20.1642 5.58579 20.5 6 20.5C6.41421 20.5 6.75 20.1642 6.75 19.75V17.75C6.75 15.9551 8.20507 14.5 10 14.5H14C14.1371 14.5 14.2723 14.5085 14.405 14.525C14.8493 14.0654 15.3809 13.6908 15.9731 13.4279C15.3721 13.1531 14.704 13 14 13H10ZM18 22C20.2091 22 22 20.2091 22 18C22 15.7909 20.2091 14 18 14C15.7909 14 14 15.7909 14 18C14 20.2091 15.7909 22 18 22ZM18 20.5C19.3807 20.5 20.5 19.3807 20.5 18C20.5 17.5827 20.3978 17.1893 20.217 16.8435L16.8435 20.217C17.1893 20.3978 17.5827 20.5 18 20.5ZM19.1563 15.7829L15.7829 19.1563C15.6022 18.8105 15.5 18.4172 15.5 18C15.5 16.6193 16.6193 15.5 18 15.5C18.4172 15.5 18.8105 15.6022 19.1563 15.7829Z" fill="currentColor"/>
</svg>
