<svg viewBox="0 0 24 24" fill="none" xmlns="http://www.w3.org/2000/svg">
<path fill-rule="evenodd" clip-rule="evenodd" d="M10.25 6C10.25 5.58579 10.5858 5.25 11 5.25H20C20.4142 5.25 20.75 5.58579 20.75 6C20.75 6.41421 20.4142 6.75 20 6.75H11C10.5858 6.75 10.25 6.41421 10.25 6Z" fill="currentColor"/>
<path fill-rule="evenodd" clip-rule="evenodd" d="M3.25 6C3.25 5.58579 3.58579 5.25 4 5.25H7C7.41421 5.25 7.75 5.58579 7.75 6C7.75 6.41421 7.41421 6.75 7 6.75H4C3.58579 6.75 3.25 6.41421 3.25 6Z" fill="currentColor"/>
<path fill-rule="evenodd" clip-rule="evenodd" d="M10.25 10C10.25 9.58579 10.5858 9.25 11 9.25H20C20.4142 9.25 20.75 9.58579 20.75 10C20.75 10.4142 20.4142 10.75 20 10.75H11C10.5858 10.75 10.25 10.4142 10.25 10Z" fill="currentColor"/>
<path fill-rule="evenodd" clip-rule="evenodd" d="M3.25 10C3.25 9.58579 3.58579 9.25 4 9.25H7C7.41421 9.25 7.75 9.58579 7.75 10C7.75 10.4142 7.41421 10.75 7 10.75H4C3.58579 10.75 3.25 10.4142 3.25 10Z" fill="currentColor"/>
<path fill-rule="evenodd" clip-rule="evenodd" d="M10.25 14C10.25 13.5858 10.5858 13.25 11 13.25H20C20.4142 13.25 20.75 13.5858 20.75 14C20.75 14.4142 20.4142 14.75 20 14.75H11C10.5858 14.75 10.25 14.4142 10.25 14Z" fill="currentColor"/>
<path fill-rule="evenodd" clip-rule="evenodd" d="M3.25 14C3.25 13.5858 3.58579 13.25 4 13.25H7C7.41421 13.25 7.75 13.5858 7.75 14C7.75 14.4142 7.41421 14.75 7 14.75H4C3.58579 14.75 3.25 14.4142 3.25 14Z" fill="currentColor"/>
<path fill-rule="evenodd" clip-rule="evenodd" d="M10.25 18C10.25 17.5858 10.5858 17.25 11 17.25H20C20.4142 17.25 20.75 17.5858 20.75 18C20.75 18.4142 20.4142 18.75 20 18.75H11C10.5858 18.75 10.25 18.4142 10.25 18Z" fill="currentColor"/>
<path fill-rule="evenodd" clip-rule="evenodd" d="M3.25 18C3.25 17.5858 3.58579 17.25 4 17.25H7C7.41421 17.25 7.75 17.5858 7.75 18C7.75 18.4142 7.41421 18.75 7 18.75H4C3.58579 18.75 3.25 18.4142 3.25 18Z" fill="currentColor"/>
</svg>
