<svg viewBox="0 0 24 24" fill="none" xmlns="http://www.w3.org/2000/svg">
<g clip-path="url(#clip0_936_73506)">
<path fill-rule="evenodd" clip-rule="evenodd" d="M6 22H2V18H2.62268e-07V23C2.62268e-07 23.5523 0.447716 24 1 24H6V22Z" fill="currentColor"/>
<path fill-rule="evenodd" clip-rule="evenodd" d="M2 6L2 2L6 2L6 2.18557e-07L1 0C0.447716 -2.41411e-08 2.42698e-07 0.447715 2.18557e-07 1L0 6H2Z" fill="currentColor"/>
<path fill-rule="evenodd" clip-rule="evenodd" d="M18 2L22 2V6H24V1C24 0.447716 23.5523 6.56254e-07 23 6.07971e-07L18 1.70857e-07V2Z" fill="currentColor"/>
<path fill-rule="evenodd" clip-rule="evenodd" d="M22 18V22H18V24H23C23.5523 24 24 23.5523 24 23V18H22Z" fill="currentColor"/>
<path fill-rule="evenodd" clip-rule="evenodd" d="M16 8V11H17C17.5523 11 18 11.4477 18 12V18C18 18.5523 17.5523 19 17 19H7C6.44771 19 6 18.5523 6 18V12C6 11.4477 6.44772 11 7 11H8V8C8 5.79086 9.79086 4 12 4C14.2091 4 16 5.79086 16 8ZM9.5 11V8C9.5 6.61929 10.6193 5.5 12 5.5C13.3807 5.5 14.5 6.61929 14.5 8V11H9.5ZM12 13C11.1716 13 10.5 13.6716 10.5 14.5C10.5 14.8639 10.6296 15.1975 10.8451 15.4572C10.9359 15.5667 11 15.6993 11 15.8416V16.5C11 16.7761 11.2239 17 11.5 17H12.5C12.7761 17 13 16.7761 13 16.5V15.8416C13 15.6993 13.0641 15.5667 13.1549 15.4572C13.3704 15.1975 13.5 14.8639 13.5 14.5C13.5 13.6716 12.8284 13 12 13Z" fill="currentColor"/>
</g>
<defs>
<clipPath id="clip0_936_73506">
<rect width="24" height="24" fill="white"/>
</clipPath>
</defs>
</svg>
