<svg viewBox="0 0 24 24" fill="none" xmlns="http://www.w3.org/2000/svg">
<path fill-rule="evenodd" clip-rule="evenodd" d="M9.64811 3.46969C9.86311 3.6847 9.92702 4.00823 9.80993 4.28884C9.43624 5.18438 9.2295 6.16777 9.2295 7.20135C9.2295 11.3817 12.6183 14.7705 16.7987 14.7705C17.8323 14.7705 18.8157 14.5637 19.7112 14.1901C19.9918 14.073 20.3153 14.1369 20.5303 14.3519C20.7453 14.5669 20.8093 14.8904 20.6922 15.171C19.3256 18.446 16.0923 20.75 12.3191 20.75C7.31035 20.75 3.24994 16.6896 3.24994 11.6809C3.24994 7.90771 5.55398 4.67442 8.82896 3.30786C9.10957 3.19077 9.4331 3.25469 9.64811 3.46969ZM7.87971 5.54946C5.98264 6.92544 4.74994 9.15977 4.74994 11.6809C4.74994 15.8612 8.13877 19.25 12.3191 19.25C14.8402 19.25 17.0746 18.0173 18.4506 16.1203C17.9146 16.219 17.3625 16.2705 16.7987 16.2705C11.7899 16.2705 7.7295 12.2101 7.7295 7.20135C7.7295 6.63755 7.78103 6.08539 7.87971 5.54946Z" fill="currentColor"/>
</svg>
