<svg viewBox="0 0 24 24" fill="none" xmlns="http://www.w3.org/2000/svg">
<path fill-rule="evenodd" clip-rule="evenodd" d="M2.24994 6.40012C2.24994 5.21271 3.21253 4.25012 4.39994 4.25012H19.8C20.9874 4.25012 21.95 5.21271 21.95 6.40012V15.499C21.95 15.4997 21.95 15.5005 21.95 15.5012V17.6001C21.95 18.7875 20.9874 19.7501 19.8 19.7501H4.39994C3.21253 19.7501 2.24994 18.7875 2.24994 17.6001V6.40012ZM3.74994 15.8108V17.6001C3.74994 17.9591 4.04095 18.2501 4.39994 18.2501H19.8C20.159 18.2501 20.45 17.9591 20.45 17.6001V15.8108L17.9546 13.3154C17.4274 12.7882 16.5726 12.7882 16.0454 13.3154L15.2606 14.1001L16.1303 14.9698C16.4232 15.2627 16.4232 15.7376 16.1303 16.0305C15.8374 16.3233 15.3625 16.3233 15.0697 16.0305L10.2546 11.2154C9.72735 10.6882 8.87257 10.6882 8.34536 11.2154L3.74994 15.8108ZM14.2 13.0395L11.3152 10.1547C10.2022 9.04172 8.3977 9.04172 7.2847 10.1547L3.74994 13.6895V6.40012C3.74994 6.04114 4.04095 5.75012 4.39994 5.75012H19.8C20.159 5.75012 20.45 6.04114 20.45 6.40012V13.6895L19.0152 12.2547C17.9023 11.1417 16.0977 11.1417 14.9847 12.2547L14.2 13.0395ZM13.1 8.50012C13.1 7.89261 13.5925 7.40012 14.2 7.40012C14.8075 7.40012 15.3 7.89261 15.3 8.50012C15.3 9.10764 14.8075 9.60012 14.2 9.60012C13.5925 9.60012 13.1 9.10764 13.1 8.50012Z" fill="currentColor"/>
</svg>
