<svg viewBox="0 0 24 24" fill="none" xmlns="http://www.w3.org/2000/svg">
<path fill-rule="evenodd" clip-rule="evenodd" d="M3.25 5.09091C3.25 4.0742 4.0742 3.25 5.09091 3.25H9.45455C10.4713 3.25 11.2955 4.0742 11.2955 5.09091V9.45455C11.2955 10.4713 10.4713 11.2955 9.45455 11.2955H5.09091C4.0742 11.2955 3.25 10.4713 3.25 9.45455V5.09091ZM5.09091 4.75C4.90263 4.75 4.75 4.90263 4.75 5.09091V9.45455C4.75 9.64282 4.90263 9.79545 5.09091 9.79545H9.45455C9.64282 9.79545 9.79545 9.64282 9.79545 9.45455V5.09091C9.79545 4.90263 9.64282 4.75 9.45455 4.75H5.09091ZM12.7045 5.09091C12.7045 4.0742 13.5287 3.25 14.5455 3.25H18.9091C19.9258 3.25 20.75 4.0742 20.75 5.09091V9.45455C20.75 10.4713 19.9258 11.2955 18.9091 11.2955H14.5455C13.5287 11.2955 12.7045 10.4713 12.7045 9.45455V5.09091ZM14.5455 4.75C14.3572 4.75 14.2045 4.90263 14.2045 5.09091V9.45455C14.2045 9.64282 14.3572 9.79545 14.5455 9.79545H18.9091C19.0974 9.79545 19.25 9.64282 19.25 9.45455V5.09091C19.25 4.90263 19.0974 4.75 18.9091 4.75H14.5455ZM6.15909 6.90909C6.15909 6.49488 6.49488 6.15909 6.90909 6.15909H7.63636C8.05058 6.15909 8.38636 6.49488 8.38636 6.90909V7.63636C8.38636 8.05058 8.05058 8.38636 7.63636 8.38636H6.90909C6.49488 8.38636 6.15909 8.05058 6.15909 7.63636V6.90909ZM15.6136 6.90909C15.6136 6.49488 15.9494 6.15909 16.3636 6.15909H17.0909C17.5051 6.15909 17.8409 6.49488 17.8409 6.90909V7.63636C17.8409 8.05058 17.5051 8.38636 17.0909 8.38636H16.3636C15.9494 8.38636 15.6136 8.05058 15.6136 7.63636V6.90909ZM3.25 14.5455C3.25 13.5287 4.0742 12.7045 5.09091 12.7045H9.45455C10.4713 12.7045 11.2955 13.5287 11.2955 14.5455V18.9091C11.2955 19.9258 10.4713 20.75 9.45455 20.75H5.09091C4.0742 20.75 3.25 19.9258 3.25 18.9091V14.5455ZM5.09091 14.2045C4.90263 14.2045 4.75 14.3572 4.75 14.5455V18.9091C4.75 19.0974 4.90263 19.25 5.09091 19.25H9.45455C9.64282 19.25 9.79545 19.0974 9.79545 18.9091V14.5455C9.79545 14.3572 9.64282 14.2045 9.45455 14.2045H5.09091ZM12.7045 13.4545C12.7045 13.0403 13.0403 12.7045 13.4545 12.7045H14.1818C14.596 12.7045 14.9318 13.0403 14.9318 13.4545V14.1818C14.9318 14.596 14.596 14.9318 14.1818 14.9318H13.4545C13.0403 14.9318 12.7045 14.596 12.7045 14.1818V13.4545ZM18.5227 13.4545C18.5227 13.0403 18.8585 12.7045 19.2727 12.7045H20C20.4142 12.7045 20.75 13.0403 20.75 13.4545V14.1818C20.75 14.596 20.4142 14.9318 20 14.9318H19.2727C18.8585 14.9318 18.5227 14.596 18.5227 14.1818V13.4545ZM6.15909 16.3636C6.15909 15.9494 6.49488 15.6136 6.90909 15.6136H7.63636C8.05058 15.6136 8.38636 15.9494 8.38636 16.3636V17.0909C8.38636 17.5051 8.05058 17.8409 7.63636 17.8409H6.90909C6.49488 17.8409 6.15909 17.5051 6.15909 17.0909V16.3636ZM15.6136 16.3636C15.6136 15.9494 15.9494 15.6136 16.3636 15.6136H17.0909C17.5051 15.6136 17.8409 15.9494 17.8409 16.3636V17.0909C17.8409 17.5051 17.5051 17.8409 17.0909 17.8409H16.3636C15.9494 17.8409 15.6136 17.5051 15.6136 17.0909V16.3636ZM12.7045 19.2727C12.7045 18.8585 13.0403 18.5227 13.4545 18.5227H14.1818C14.596 18.5227 14.9318 18.8585 14.9318 19.2727V20C14.9318 20.4142 14.596 20.75 14.1818 20.75H13.4545C13.0403 20.75 12.7045 20.4142 12.7045 20V19.2727ZM18.5227 19.2727C18.5227 18.8585 18.8585 18.5227 19.2727 18.5227H20C20.4142 18.5227 20.75 18.8585 20.75 19.2727V20C20.75 20.4142 20.4142 20.75 20 20.75H19.2727C18.8585 20.75 18.5227 20.4142 18.5227 20V19.2727Z" fill="currentColor"/>
</svg>
