<svg viewBox="0 0 24 24" fill="none" xmlns="http://www.w3.org/2000/svg">
<path d="M6.25002 10C6.25002 10.4142 6.5858 10.75 7.00002 10.75C7.41423 10.75 7.75002 10.4142 7.75002 10V7.75L10 7.75001C10.4142 7.75001 10.75 7.41422 10.75 7.00001C10.75 6.58579 10.4142 6.25001 10 6.25001L7.75002 6.25V4C7.75002 3.58579 7.41423 3.25 7.00002 3.25C6.5858 3.25 6.25002 3.58579 6.25002 4V6.25L4.00002 6.25C3.5858 6.25 3.25002 6.58579 3.25002 7C3.25002 7.41421 3.5858 7.75 4.00002 7.75L6.25002 7.75V10Z" fill="currentColor"/>
<path d="M20 7.75L14 7.75C13.5858 7.75 13.25 7.41421 13.25 7C13.25 6.58579 13.5858 6.25 14 6.25L20 6.25C20.4142 6.25 20.75 6.58579 20.75 7C20.75 7.41421 20.4142 7.75 20 7.75Z" fill="currentColor"/>
<path d="M20 15.75L14 15.75C13.5858 15.75 13.25 15.4142 13.25 15C13.25 14.5858 13.5858 14.25 14 14.25L20 14.25C20.4142 14.25 20.75 14.5858 20.75 15C20.75 15.4142 20.4142 15.75 20 15.75Z" fill="currentColor"/>
<path d="M14 19.75H20C20.4142 19.75 20.75 19.4142 20.75 19C20.75 18.5858 20.4142 18.25 20 18.25L14 18.25C13.5858 18.25 13.25 18.5858 13.25 19C13.25 19.4142 13.5858 19.75 14 19.75Z" fill="currentColor"/>
<path d="M5.93936 16.9393L3.53035 14.5303C3.23746 14.2374 3.23746 13.7626 3.53035 13.4697C3.82324 13.1768 4.29812 13.1768 4.59101 13.4697L7.00002 15.8787L9.40902 13.4697C9.70192 13.1768 10.1768 13.1768 10.4697 13.4697C10.7626 13.7626 10.7626 14.2374 10.4697 14.5303L8.06068 16.9393L10.5304 19.409C10.8233 19.7019 10.8233 20.1768 10.5304 20.4697C10.2375 20.7626 9.7626 20.7626 9.4697 20.4697L7.00002 18L4.53033 20.4697C4.23744 20.7626 3.76256 20.7626 3.46967 20.4697C3.17678 20.1768 3.17678 19.7019 3.46967 19.409L5.93936 16.9393Z" fill="currentColor"/>
</svg>
