<svg viewBox="0 0 24 24" fill="none" xmlns="http://www.w3.org/2000/svg">
<path fill-rule="evenodd" clip-rule="evenodd" d="M10.7693 5.75C7.99724 5.75 5.75006 7.99718 5.75006 10.7692C5.75006 13.5413 7.99724 15.7885 10.7693 15.7885C12.1555 15.7885 13.4093 15.2275 14.3184 14.3184C15.2275 13.4092 15.7885 12.1555 15.7885 10.7692C15.7885 7.99718 13.5413 5.75 10.7693 5.75ZM4.25006 10.7692C4.25006 7.16876 7.1688 4.25 10.7693 4.25C14.3697 4.25 17.2885 7.16876 17.2885 10.7692C17.2885 12.2989 16.7609 13.7064 15.8789 14.8182L19.3765 18.3158C19.6694 18.6087 19.6694 19.0836 19.3765 19.3765C19.0836 19.6694 18.6087 19.6694 18.3158 19.3765L14.8182 15.8789C13.7064 16.7609 12.299 17.2885 10.7693 17.2885C7.1688 17.2885 4.25006 14.3697 4.25006 10.7692Z" fill="currentColor"/>
</svg>
