<svg viewBox="0 0 24 24" fill="none" xmlns="http://www.w3.org/2000/svg">
<path fill-rule="evenodd" clip-rule="evenodd" d="M10.8333 5.75C8.02589 5.75 5.75 8.02589 5.75 10.8333C5.75 13.6408 8.02589 15.9167 10.8333 15.9167C12.2373 15.9167 13.5071 15.3485 14.4278 14.4278C15.3485 13.5071 15.9167 12.2373 15.9167 10.8333C15.9167 8.02589 13.6408 5.75 10.8333 5.75ZM4.25 10.8333C4.25 7.19746 7.19746 4.25 10.8333 4.25C14.4692 4.25 17.4167 7.19746 17.4167 10.8333C17.4167 12.3807 16.8821 13.8043 15.9886 14.928L19.5303 18.4697C19.8232 18.7626 19.8232 19.2374 19.5303 19.5303C19.2374 19.8232 18.7626 19.8232 18.4697 19.5303L14.928 15.9886C13.8043 16.8821 12.3807 17.4167 10.8333 17.4167C7.19746 17.4167 4.25 14.4692 4.25 10.8333ZM8.65309 8.65309C8.94598 8.36019 9.42085 8.36019 9.71375 8.65309L10.8333 9.77267L11.9529 8.65309C12.2458 8.36019 12.7207 8.36019 13.0136 8.65309C13.3065 8.94598 13.3065 9.42085 13.0136 9.71375L11.894 10.8333L13.0136 11.9529C13.3065 12.2458 13.3065 12.7207 13.0136 13.0136C12.7207 13.3065 12.2458 13.3065 11.9529 13.0136L10.8333 11.894L9.71375 13.0136C9.42085 13.3065 8.94598 13.3065 8.65309 13.0136C8.36019 12.7207 8.36019 12.2458 8.65309 11.9529L9.77267 10.8333L8.65309 9.71375C8.36019 9.42085 8.36019 8.94598 8.65309 8.65309Z" fill="currentColor"/>
</svg>
