<svg viewBox="0 0 24 24" fill="none" xmlns="http://www.w3.org/2000/svg">
<path fill-rule="evenodd" clip-rule="evenodd" d="M9.78687 4.7123C9.92751 3.86847 10.6576 3.25 11.5131 3.25H12.4855C13.3409 3.25 14.071 3.86847 14.2117 4.7123L14.3441 5.5068C14.3572 5.5855 14.428 5.69803 14.586 5.76361C14.739 5.82712 14.8643 5.79954 14.9326 5.75074L15.5882 5.28244L16.0242 5.89274L15.5882 5.28244C16.2844 4.78521 17.2379 4.86413 17.8429 5.46904L18.5304 6.15664C19.1354 6.76155 19.2143 7.71512 18.717 8.41124L18.2486 9.0671C18.1998 9.13534 18.1723 9.26058 18.2357 9.41343C18.3013 9.57128 18.4137 9.64206 18.4923 9.65516L19.287 9.7876C20.1308 9.92824 20.7493 10.6583 20.7493 11.5138V12.4862C20.7493 13.3417 20.1308 14.0718 19.287 14.2124L18.4925 14.3448C18.4138 14.3579 18.3012 14.4288 18.2357 14.5867C18.1722 14.7397 18.1997 14.865 18.2485 14.9333L18.7167 15.5888C19.214 16.2849 19.1351 17.2385 18.5301 17.8434L17.8425 18.531C17.2376 19.1359 16.2841 19.2148 15.5879 18.7176L14.9323 18.2493C14.864 18.2005 14.7388 18.173 14.5859 18.2364C14.428 18.302 14.3572 18.4145 14.3441 18.4931L14.2117 19.2877C14.071 20.1315 13.3409 20.75 12.4855 20.75H11.5131C10.6576 20.75 9.92751 20.1315 9.78687 19.2877L9.65445 18.4932C9.64134 18.4145 9.57049 18.302 9.41255 18.2364C9.2596 18.1729 9.13427 18.2005 9.06595 18.2493L8.41029 18.7176C7.71417 19.2148 6.76059 19.1359 6.15568 18.531L5.46809 17.8434C4.86318 17.2385 4.78426 16.2849 5.28149 15.5888L5.74996 14.9329C5.79871 14.8647 5.82628 14.7394 5.76282 14.5866C5.69728 14.4287 5.58483 14.3579 5.50621 14.3448L4.71157 14.2124C3.86774 14.0718 3.24927 13.3417 3.24927 12.4862V11.5138C3.24927 10.6583 3.86774 9.92824 4.71157 9.7876L5.50606 9.65519C5.58477 9.64207 5.6973 9.57122 5.76288 9.41327C5.8264 9.2603 5.79882 9.13495 5.75001 9.06663L5.28184 8.41118C4.78461 7.71506 4.86353 6.76149 5.46843 6.15658L6.15603 5.46898C6.76094 4.86407 7.71451 4.78515 8.41064 5.28238L9.06628 5.7507C9.13454 5.79946 9.25979 5.82703 9.41267 5.76356C9.57054 5.69802 9.64133 5.58555 9.65444 5.50692L9.78687 4.7123ZM11.5131 4.75C11.3909 4.75 11.2866 4.83835 11.2665 4.9589L11.134 5.75352C11.0214 6.429 10.536 6.92131 9.98783 7.14891C9.43435 7.3787 8.74851 7.36708 8.19442 6.9713L7.53878 6.50298C7.43933 6.43195 7.30311 6.44323 7.21669 6.52964L6.52909 7.21724C6.44268 7.30366 6.43141 7.43988 6.50244 7.53933L6.97061 8.19477C7.36646 8.74895 7.37805 9.4349 7.14822 9.98845C6.92058 10.5367 6.42822 11.0222 5.75266 11.1348L4.95817 11.2672C4.83762 11.2873 4.74927 11.3916 4.74927 11.5138V12.4862C4.74927 12.6084 4.83762 12.7127 4.95817 12.7328L5.75281 12.8652C6.42828 12.9778 6.92057 13.4632 7.14817 14.0114C7.37795 14.5649 7.36633 15.2507 6.97056 15.8048L6.50209 16.4606C6.43106 16.5601 6.44233 16.6963 6.52875 16.7827L7.21635 17.4703C7.30276 17.5568 7.43899 17.568 7.53843 17.497L8.19409 17.0287C8.74826 16.6328 9.43419 16.6212 9.98774 16.8511C10.536 17.0787 11.0215 17.571 11.134 18.2466L11.2665 19.0411C11.2866 19.1616 11.3909 19.25 11.5131 19.25H12.4855C12.6077 19.25 12.712 19.1616 12.7321 19.0411L12.8645 18.2465C12.9771 17.571 13.4625 17.0787 14.0107 16.8511C14.5642 16.6213 15.2501 16.6329 15.8042 17.0287L16.4598 17.497C16.5592 17.568 16.6955 17.5568 16.7819 17.4704L17.4695 16.7828C17.5559 16.6963 17.5672 16.5601 17.4961 16.4607L17.0279 15.8052C16.6321 15.251 16.6205 14.5651 16.8503 14.0115C17.078 13.4633 17.5703 12.9778 18.2459 12.8652L19.0404 12.7328C19.1609 12.7127 19.2493 12.6084 19.2493 12.4862V11.5138C19.2493 11.3916 19.1609 11.2873 19.0404 11.2672L18.2457 11.1348C17.5703 11.0222 17.078 10.5368 16.8504 9.98858C16.6206 9.43512 16.6322 8.74931 17.028 8.19524L17.4964 7.53938C17.5675 7.43994 17.5562 7.30371 17.4698 7.2173L16.7822 6.5297C16.6958 6.44328 16.5596 6.43201 16.4601 6.50304L15.8045 6.97134C15.2503 7.36718 14.5644 7.37878 14.0108 7.14895C13.4625 6.92132 12.9771 6.42896 12.8645 5.7534L12.7321 4.9589C12.712 4.83835 12.6077 4.75 12.4855 4.75H11.5131ZM11.9999 10.0834C10.9413 10.0834 10.0832 10.9415 10.0832 12C10.0832 13.0586 10.9413 13.9167 11.9999 13.9167C13.0584 13.9167 13.9166 13.0586 13.9166 12C13.9166 10.9415 13.0584 10.0834 11.9999 10.0834ZM8.58322 12C8.58322 10.113 10.1129 8.58335 11.9999 8.58335C13.8869 8.58335 15.4166 10.113 15.4166 12C15.4166 13.887 13.8869 15.4167 11.9999 15.4167C10.1129 15.4167 8.58322 13.887 8.58322 12Z" fill="currentColor"/>
</svg>
