<svg viewBox="0 0 24 24" fill="none" xmlns="http://www.w3.org/2000/svg">
<path fill-rule="evenodd" clip-rule="evenodd" d="M12 14C13.6569 14 15 12.6569 15 11C15 9.34315 13.6569 8 12 8C10.3431 8 9 9.34315 9 11C9 12.6569 10.3431 14 12 14ZM12 12.5C12.8284 12.5 13.5 11.8284 13.5 11C13.5 10.1716 12.8284 9.5 12 9.5C11.1716 9.5 10.5 10.1716 10.5 11C10.5 11.8284 11.1716 12.5 12 12.5Z" fill="currentColor"/>
<path fill-rule="evenodd" clip-rule="evenodd" d="M11.4699 4.20545C11.7591 3.93152 12.2121 3.93152 12.5013 4.20545C14.0965 5.71615 16.2485 6.6416 18.6182 6.6416C18.656 6.6416 18.6936 6.64136 18.7312 6.6409C19.0586 6.63683 19.3508 6.84558 19.453 7.15659C19.7895 8.18 19.9712 9.27276 19.9712 10.4065C19.9712 15.2523 16.6569 19.3221 12.1726 20.4763C12.0499 20.5079 11.9213 20.5079 11.7987 20.4763C7.31432 19.3221 4 15.2523 4 10.4065C4 9.27276 4.18172 8.18 4.5182 7.15659C4.62046 6.84558 4.91263 6.63683 5.23999 6.6409C5.27759 6.64136 5.31525 6.6416 5.35297 6.6416C7.72273 6.6416 9.87472 5.71615 11.4699 4.20545ZM5.79305 8.13244C5.60195 8.85764 5.5 9.61966 5.5 10.4065C5.5 12.594 6.28961 14.5976 7.59951 16.1473C8.90055 15.4167 10.4016 15 11.9999 15C13.5903 15 15.0844 15.4125 16.3809 16.1364C17.6853 14.5882 18.4712 12.5888 18.4712 10.4065C18.4712 9.61966 18.3693 8.85764 18.1782 8.13244C15.8288 8.03454 13.68 7.15653 11.9856 5.75166C10.2912 7.15653 8.14237 8.03454 5.79305 8.13244ZM15.265 17.2461C14.278 16.7681 13.1703 16.5 11.9999 16.5C10.8225 16.5 9.70837 16.7713 8.71677 17.2549C9.66133 18.0394 10.7708 18.6321 11.9856 18.9734C13.2049 18.6308 14.3182 18.0349 15.265 17.2461Z" fill="currentColor"/>
</svg>
