<svg viewBox="0 0 24 24" fill="none" xmlns="http://www.w3.org/2000/svg">
<path fill-rule="evenodd" clip-rule="evenodd" d="M11.2199 3.95545C11.5092 3.68152 11.9621 3.68152 12.2514 3.95545C13.8465 5.46615 15.9985 6.3916 18.3683 6.3916C18.406 6.3916 18.4437 6.39136 18.4813 6.3909C18.8087 6.38683 19.1008 6.59558 19.2031 6.90659C19.5396 7.93 19.7213 9.02276 19.7213 10.1565C19.7213 15.0023 16.4069 19.0721 11.9226 20.2263C11.8 20.2579 11.6713 20.2579 11.5487 20.2263C7.06434 19.0721 3.75 15.0023 3.75 10.1565C3.75 9.02276 3.93172 7.93 4.2682 6.90659C4.37046 6.59558 4.66263 6.38683 4.99 6.3909C5.0276 6.39136 5.06525 6.3916 5.10297 6.3916C7.47274 6.3916 9.62475 5.46615 11.2199 3.95545ZM5.54306 7.88245C5.35195 8.60764 5.25 9.36966 5.25 10.1565C5.25 14.2337 7.99315 17.6721 11.7356 18.7234C15.4781 17.6721 18.2213 14.2337 18.2213 10.1565C18.2213 9.36966 18.1193 8.60764 17.9282 7.88244C15.5789 7.78454 13.43 6.90653 11.7356 5.50166C10.0412 6.90653 7.89238 7.78455 5.54306 7.88245ZM11.7356 8.80345C12.1499 8.80345 12.4856 9.13924 12.4856 9.55345V12.5683C12.4856 12.9825 12.1499 13.3183 11.7356 13.3183C11.3214 13.3183 10.9856 12.9825 10.9856 12.5683V9.55345C10.9856 9.13924 11.3214 8.80345 11.7356 8.80345ZM10.9856 14.9802C10.9856 14.5659 11.3214 14.2302 11.7356 14.2302H11.7417C12.1559 14.2302 12.4917 14.5659 12.4917 14.9802V14.9862C12.4917 15.4004 12.1559 15.7362 11.7417 15.7362H11.7356C11.3214 15.7362 10.9856 15.4004 10.9856 14.9862V14.9802Z" fill="currentColor"/>
</svg>
