<svg viewBox="0 0 24 24" fill="none" xmlns="http://www.w3.org/2000/svg">
<g clip-path="url(#clip0_936_73514)">
<path fill-rule="evenodd" clip-rule="evenodd" d="M6 22H2V18H2.62268e-07V23C2.62268e-07 23.5523 0.447716 24 1 24H6V22Z" fill="currentColor"/>
<path fill-rule="evenodd" clip-rule="evenodd" d="M2 6L2 2L6 2L6 2.18557e-07L1 0C0.447716 -2.41411e-08 2.42698e-07 0.447715 2.18557e-07 1L0 6H2Z" fill="currentColor"/>
<path fill-rule="evenodd" clip-rule="evenodd" d="M18 2L22 2V6H24V1C24 0.447716 23.5523 6.56254e-07 23 6.07971e-07L18 1.70857e-07V2Z" fill="currentColor"/>
<path fill-rule="evenodd" clip-rule="evenodd" d="M22 18V22H18V24H23C23.5523 24 24 23.5523 24 23V18H22Z" fill="currentColor"/>
<path d="M7.50001 7.33334C6.92537 7.33334 6.37427 7.56161 5.96795 7.96794C5.56162 8.37427 5.33334 8.92537 5.33334 9.5V14.5C5.33334 15.0746 5.56162 15.6257 5.96795 16.0321C6.37427 16.4384 6.92537 16.6667 7.50001 16.6667H16.5C16.7845 16.6667 17.0663 16.6106 17.3292 16.5017C17.592 16.3929 17.8309 16.2333 18.0321 16.0321C18.2333 15.8309 18.3929 15.592 18.5017 15.3291C18.6106 15.0663 18.6667 14.7845 18.6667 14.5V9.5C18.6667 9.21547 18.6106 8.93373 18.5017 8.67086C18.3929 8.40798 18.2333 8.16913 18.0321 7.96794C17.8309 7.76674 17.592 7.60715 17.3292 7.49826C17.0663 7.38938 16.7845 7.33334 16.5 7.33334H7.50001ZM8.18668 10.8133L8.66668 11.2933L9.14668 10.8133C9.19245 10.7642 9.24765 10.7248 9.30898 10.6975C9.37032 10.6702 9.43653 10.6555 9.50366 10.6543C9.5708 10.6531 9.63748 10.6654 9.69974 10.6906C9.762 10.7157 9.81856 10.7532 9.86604 10.8006C9.91352 10.8481 9.95094 10.9047 9.97609 10.9669C10.0012 11.0292 10.0136 11.0959 10.0124 11.163C10.0112 11.2302 9.99652 11.2964 9.9692 11.3577C9.94187 11.419 9.90247 11.4742 9.85334 11.52L9.37401 12L9.85401 12.4787C9.9005 12.5251 9.93738 12.5803 9.96256 12.641C9.98773 12.7017 10.0007 12.7667 10.0007 12.8324C10.0008 12.8981 9.98786 12.9632 9.96274 13.0239C9.93762 13.0847 9.90079 13.1398 9.85434 13.1863C9.8079 13.2328 9.75275 13.2697 9.69205 13.2949C9.63136 13.3201 9.56629 13.333 9.50058 13.3331C9.43487 13.3331 9.36979 13.3202 9.30907 13.2951C9.24835 13.2699 9.19316 13.2331 9.14668 13.1867L8.66668 12.7067L8.18668 13.1867C8.09189 13.275 7.96653 13.3231 7.837 13.3208C7.70746 13.3185 7.58387 13.266 7.49226 13.1744C7.40065 13.0828 7.34818 12.9592 7.34589 12.8297C7.34361 12.7001 7.39169 12.5748 7.48001 12.48L7.96001 12L7.48001 11.52C7.39169 11.4252 7.34361 11.2999 7.34589 11.1703C7.34818 11.0408 7.40065 10.9172 7.49226 10.8256C7.58387 10.734 7.70746 10.6815 7.837 10.6792C7.96653 10.6769 8.09189 10.725 8.18668 10.8133ZM11.8533 10.8133L12.3333 11.2933L12.8133 10.8133C12.8591 10.7642 12.9143 10.7248 12.9757 10.6975C13.037 10.6702 13.1032 10.6555 13.1703 10.6543C13.2375 10.6531 13.3041 10.6654 13.3664 10.6906C13.4287 10.7157 13.4852 10.7532 13.5327 10.8006C13.5802 10.8481 13.6176 10.9047 13.6428 10.9669C13.6679 11.0292 13.6803 11.0959 13.6791 11.163C13.6779 11.2302 13.6632 11.2964 13.6359 11.3577C13.6085 11.419 13.5691 11.4742 13.52 11.52L13.0407 12L13.5207 12.4787C13.6145 12.5725 13.6672 12.6997 13.6672 12.8323C13.6672 12.965 13.6145 13.0922 13.5207 13.186C13.4269 13.2798 13.2997 13.3325 13.167 13.3325C13.0344 13.3325 12.9071 13.2798 12.8133 13.186L12.3333 12.7067L11.8533 13.1867C11.8076 13.2358 11.7524 13.2752 11.691 13.3025C11.6297 13.3299 11.5635 13.3445 11.4964 13.3457C11.4292 13.3469 11.3625 13.3346 11.3003 13.3094C11.238 13.2843 11.1815 13.2468 11.134 13.1994C11.0865 13.1519 11.0491 13.0953 11.0239 13.0331C10.9988 12.9708 10.9864 12.9041 10.9876 12.837C10.9888 12.7699 11.0035 12.7036 11.0308 12.6423C11.0582 12.581 11.0976 12.5258 11.1467 12.48L11.6267 12L11.1467 11.52C11.0584 11.4252 11.0103 11.2999 11.0126 11.1703C11.0148 11.0408 11.0673 10.9172 11.1589 10.8256C11.2505 10.734 11.3741 10.6815 11.5037 10.6792C11.6332 10.6769 11.7586 10.725 11.8533 10.8133ZM14.5 13.5C14.5 13.3674 14.5527 13.2402 14.6465 13.1464C14.7402 13.0527 14.8674 13 15 13H16.1667C16.2993 13 16.4265 13.0527 16.5202 13.1464C16.614 13.2402 16.6667 13.3674 16.6667 13.5C16.6667 13.6326 16.614 13.7598 16.5202 13.8536C16.4265 13.9473 16.2993 14 16.1667 14H15C14.8674 14 14.7402 13.9473 14.6465 13.8536C14.5527 13.7598 14.5 13.6326 14.5 13.5Z" fill="currentColor"/>
</g>
<defs>
<clipPath id="clip0_936_73514">
<rect width="24" height="24" fill="white"/>
</clipPath>
</defs>
</svg>
