<svg viewBox="0 0 24 24" fill="none" xmlns="http://www.w3.org/2000/svg">
<path fill-rule="evenodd" clip-rule="evenodd" d="M7.25 18.5V10.3125H4V18.5H7.25ZM3.5 20C2.94772 20 2.5 19.5523 2.5 19V9.8125C2.5 9.26022 2.94772 8.8125 3.5 8.8125H8C8 8.8125 10.5 7.5 12 6C12.2825 5.71749 12.4941 5.47044 12.6781 5.25553C13.3601 4.45927 13.6642 4.10412 15.7995 4.02017C16.4229 3.99566 16.8973 4.56505 16.7857 5.17889L16.2143 8.32112C16.1027 8.93496 16.5737 9.5 17.1976 9.5L21 9.5C23.5 9.5 18.7188 20 17 20H3.5ZM8.75 10.1125V18.5H16.695C16.7008 18.4944 16.7069 18.4885 16.7132 18.4822C16.9 18.2975 17.1529 17.982 17.4504 17.5321C18.0386 16.6426 18.6772 15.4172 19.1981 14.1713C19.7166 12.9315 20.0705 11.7854 20.177 11L17.1976 11C15.6365 11 14.4598 9.5861 14.7385 8.05279L15.1915 5.56123C14.4559 5.63011 14.2992 5.73957 14.2492 5.77506C14.1895 5.81741 14.1131 5.88798 13.909 6.12461C13.882 6.15588 13.8532 6.18954 13.8225 6.22538C13.6386 6.44033 13.3875 6.73382 13.0607 7.06066C12.194 7.92736 11.0846 8.70006 10.2412 9.23525C9.81032 9.50872 9.42945 9.73228 9.15508 9.88817C9.01762 9.96627 8.90617 10.0278 8.82768 10.0705C8.79646 10.0875 8.77043 10.1016 8.75 10.1125Z" fill="currentColor"/>
</svg>
