<svg viewBox="0 0 24 24" fill="none" xmlns="http://www.w3.org/2000/svg">
<path fill-rule="evenodd" clip-rule="evenodd" d="M2.25 5.09091C2.25 4.10945 3.01633 3.25 4.03846 3.25H19.9615C20.9837 3.25 21.75 4.10945 21.75 5.09091V16C21.75 16.9815 20.9837 17.8409 19.9615 17.8409H14.1346V19.25H17.5385C17.9527 19.25 18.2885 19.5858 18.2885 20C18.2885 20.4142 17.9527 20.75 17.5385 20.75H6.46154C6.04732 20.75 5.71154 20.4142 5.71154 20C5.71154 19.5858 6.04732 19.25 6.46154 19.25H9.86539V17.8409H4.03846C3.01633 17.8409 2.25 16.9815 2.25 16V5.09091ZM11.3654 17.8409V19.25H12.6346V17.8409H11.3654ZM4.03846 16.3409C3.91354 16.3409 3.75 16.2235 3.75 16V5.09091C3.75 4.86738 3.91354 4.75 4.03846 4.75H19.9615C20.0865 4.75 20.25 4.86738 20.25 5.09091V16C20.25 16.2235 20.0865 16.3409 19.9615 16.3409H4.03846Z" fill="currentColor"/>
</svg>
