<svg viewBox="0 0 24 24" fill="none" xmlns="http://www.w3.org/2000/svg">
<path fill-rule="evenodd" clip-rule="evenodd" d="M12 14C13.6569 14 15 12.6569 15 11C15 9.34315 13.6569 8 12 8C10.3431 8 9 9.34315 9 11C9 12.6569 10.3431 14 12 14ZM12 12.5C12.8284 12.5 13.5 11.8284 13.5 11C13.5 10.1716 12.8284 9.5 12 9.5C11.1716 9.5 10.5 10.1716 10.5 11C10.5 11.8284 11.1716 12.5 12 12.5Z" fill="currentColor"/>
<path fill-rule="evenodd" clip-rule="evenodd" d="M12 20C16.4183 20 20 16.4183 20 12C20 7.58172 16.4183 4 12 4C7.58172 4 4 7.58172 4 12C4 16.4183 7.58172 20 12 20ZM16.7985 16.3846C17.8553 15.2287 18.5 13.6896 18.5 12C18.5 8.41015 15.5899 5.5 12 5.5C8.41015 5.5 5.5 8.41015 5.5 12C5.5 13.6896 6.14466 15.2286 7.20143 16.3845C8.59036 15.5075 10.2359 15 12 15C13.7641 15 15.4096 15.5075 16.7985 16.3846ZM15.595 17.4162C14.5276 16.8321 13.3026 16.5 12 16.5C10.6974 16.5 9.47237 16.8321 8.40495 17.4162C9.4346 18.101 10.6707 18.5 12 18.5C13.3293 18.5 14.5654 18.101 15.595 17.4162Z" fill="currentColor"/>
</svg>
