<svg viewBox="0 0 24 24" fill="none" xmlns="http://www.w3.org/2000/svg">
<path fill-rule="evenodd" clip-rule="evenodd" d="M12 4C9.92893 4 8.25 5.67893 8.25 7.75C8.25 9.82107 9.92893 11.5 12 11.5C14.0711 11.5 15.75 9.82107 15.75 7.75C15.75 5.67893 14.0711 4 12 4ZM9.75 7.75C9.75 6.50736 10.7574 5.5 12 5.5C13.2426 5.5 14.25 6.50736 14.25 7.75C14.25 8.99264 13.2426 10 12 10C10.7574 10 9.75 8.99264 9.75 7.75Z" fill="currentColor"/>
<path d="M10 13C7.37665 13 5.25 15.1266 5.25 17.75V19.75C5.25 20.1642 5.58579 20.5 6 20.5C6.41421 20.5 6.75 20.1642 6.75 19.75V17.75C6.75 15.9551 8.20507 14.5 10 14.5H14C15.7949 14.5 17.25 15.9551 17.25 17.75V19.75C17.25 20.1642 17.5858 20.5 18 20.5C18.4142 20.5 18.75 20.1642 18.75 19.75V17.75C18.75 15.1266 16.6234 13 14 13H10Z" fill="currentColor"/>
</svg>
