<svg viewBox="0 0 24 24" fill="none" xmlns="http://www.w3.org/2000/svg">
<path fill-rule="evenodd" clip-rule="evenodd" d="M2.75 6.18182C2.75 4.5814 4.01865 3.25 5.625 3.25H18.375C19.9813 3.25 21.25 4.5814 21.25 6.18182V17.8182C21.25 19.4186 19.9813 20.75 18.375 20.75H5.625C4.01865 20.75 2.75 19.4186 2.75 17.8182V6.18182ZM5.625 4.75C4.88414 4.75 4.25 5.37227 4.25 6.18182V7.61364H19.75V6.18182C19.75 5.37227 19.1159 4.75 18.375 4.75H5.625ZM19.75 9.11364H4.25V17.8182C4.25 18.6277 4.88414 19.25 5.625 19.25H18.375C19.1159 19.25 19.75 18.6277 19.75 17.8182V9.11364ZM4.875 6.18182C4.875 5.7676 5.21079 5.43182 5.625 5.43182H5.63208C6.0463 5.43182 6.38208 5.7676 6.38208 6.18182V6.18909C6.38208 6.6033 6.0463 6.93909 5.63208 6.93909H5.625C5.21079 6.93909 4.875 6.6033 4.875 6.18909V6.18182ZM7 6.18182C7 5.7676 7.33579 5.43182 7.75 5.43182H7.75708C8.1713 5.43182 8.50708 5.7676 8.50708 6.18182V6.18909C8.50708 6.6033 8.1713 6.93909 7.75708 6.93909H7.75C7.33579 6.93909 7 6.6033 7 6.18909V6.18182ZM9.125 6.18182C9.125 5.7676 9.46079 5.43182 9.875 5.43182H9.88208C10.2963 5.43182 10.6321 5.7676 10.6321 6.18182V6.18909C10.6321 6.6033 10.2963 6.93909 9.88208 6.93909H9.875C9.46079 6.93909 9.125 6.6033 9.125 6.18909V6.18182Z" fill="currentColor"/>
</svg>
