<svg viewBox="0 0 192 192" fill="none" xmlns="http://www.w3.org/2000/svg">
<g clip-path="url(#clip0_4155_70522)">
<rect width="192" height="192" fill="white"/>
<g clip-path="url(#clip1_4155_70522)">
<rect width="144" height="144" transform="translate(24.3691 48)" fill="white"/>
<path d="M26.6649 106.409H32.3919V100.679C32.3919 100.381 32.51 100.096 32.7204 99.8853C32.9308 99.6749 33.2162 99.5566 33.5138 99.5566C33.8114 99.5566 34.0967 99.6749 34.3072 99.8853C34.5176 100.096 34.6359 100.381 34.6359 100.679V106.409H40.3662C40.5136 106.409 40.6595 106.438 40.7956 106.494C40.9317 106.551 41.0554 106.633 41.1596 106.738C41.2638 106.842 41.3464 106.966 41.4028 107.102C41.4592 107.238 41.4881 107.384 41.4881 107.531C41.4881 107.678 41.4592 107.824 41.4028 107.96C41.3464 108.097 41.2638 108.22 41.1596 108.324C41.0554 108.429 40.9317 108.511 40.7956 108.568C40.6595 108.624 40.5136 108.653 40.3662 108.653H34.6359V114.38C34.6359 114.678 34.5176 114.963 34.3072 115.173C34.0967 115.384 33.8114 115.502 33.5138 115.502C33.2162 115.502 32.9308 115.384 32.7204 115.173C32.51 114.963 32.3919 114.678 32.3919 114.38V108.653H26.6649C26.3673 108.653 26.0819 108.535 25.8715 108.324C25.6611 108.114 25.543 107.829 25.543 107.531C25.543 107.233 25.6611 106.948 25.8715 106.738C26.0819 106.527 26.3673 106.409 26.6649 106.409Z" fill="#2563EB"/>
<path d="M79.4129 49.3319L78.456 61.691C78.4409 61.8822 78.3506 62.0596 78.2048 62.1842C78.0589 62.3088 77.8695 62.3703 77.6783 62.3552C77.487 62.3402 77.3096 62.2498 77.185 62.1039C77.0605 61.958 76.9989 61.7686 77.014 61.5774L77.9707 49.2218C77.9779 49.1271 78.0037 49.0348 78.0466 48.95C78.0895 48.8653 78.1488 48.7899 78.2209 48.7281C78.293 48.6662 78.3765 48.6192 78.4668 48.5896C78.557 48.5601 78.6522 48.5486 78.7469 48.5558C78.8416 48.563 78.9339 48.5889 79.0186 48.6318C79.1033 48.6747 79.1788 48.7339 79.2406 48.8059C79.3025 48.878 79.3494 48.9615 79.3789 49.0518C79.4085 49.142 79.4201 49.2372 79.4129 49.3319Z" fill="#2563EB"/>
<path d="M90.4007 66.8538C90.3219 66.8006 90.2545 66.7322 90.2022 66.6528C90.15 66.5733 90.114 66.4842 90.0964 66.3908C90.0788 66.2973 90.08 66.2013 90.0997 66.1083C90.1195 66.0152 90.1574 65.927 90.2115 65.8488L97.2222 55.6236C97.3321 55.4688 97.4985 55.3635 97.6854 55.3304C97.8723 55.2973 98.0646 55.339 98.221 55.4466C98.3773 55.5542 98.4852 55.7189 98.5211 55.9053C98.557 56.0917 98.5182 56.2847 98.413 56.4427L91.4056 66.6679C91.297 66.8258 91.1301 66.9341 90.9417 66.969C90.7532 67.0038 90.5586 66.9624 90.4007 66.8538Z" fill="#2563EB"/>
<path d="M99.5147 76.1367L110.697 70.7883C110.87 70.7057 111.068 70.6952 111.249 70.7591C111.43 70.823 111.578 70.9561 111.66 71.1291C111.743 71.302 111.754 71.5007 111.69 71.6815C111.626 71.8622 111.493 72.0101 111.32 72.0927L100.138 77.4411C99.9647 77.5237 99.766 77.5342 99.5853 77.4703C99.4046 77.4064 99.2567 77.2734 99.1741 77.1004C99.0915 76.9274 99.0809 76.7287 99.1448 76.548C99.2087 76.3672 99.3418 76.2193 99.5147 76.1367Z" fill="#2563EB"/>
<path d="M46.1614 190.528L50.8938 187.206C51.0157 187.122 51.1603 187.077 51.3085 187.077C51.4567 187.077 51.6014 187.122 51.7233 187.206L56.0425 190.235L60.3584 187.206C60.4803 187.122 60.625 187.077 60.7731 187.077C60.9213 187.077 61.066 187.122 61.1879 187.206L65.5038 190.235L69.8197 187.206C69.9423 187.122 70.0874 187.077 70.2361 187.077C70.3847 187.077 70.5299 187.122 70.6525 187.206L74.9684 190.235L79.2843 187.206C79.4062 187.122 79.5509 187.077 79.699 187.077C79.8472 187.077 79.9919 187.122 80.1138 187.206L84.4295 190.235L88.7489 187.206C88.8708 187.122 89.0155 187.077 89.1637 187.077C89.3118 187.077 89.4565 187.122 89.5784 187.206L94.3072 190.528C94.3856 190.581 94.4525 190.65 94.504 190.73C94.5555 190.81 94.5907 190.899 94.6073 190.993C94.624 191.086 94.6217 191.182 94.6009 191.275C94.5802 191.368 94.5412 191.455 94.4862 191.533C94.4319 191.611 94.3626 191.678 94.2823 191.729C94.2021 191.78 94.1124 191.815 94.0186 191.831C93.9248 191.847 93.8287 191.845 93.7358 191.824C93.643 191.803 93.5552 191.763 93.4777 191.708L89.1618 188.683L84.8461 191.708C84.7248 191.794 84.5799 191.84 84.4313 191.84C84.2828 191.84 84.1379 191.794 84.0166 191.708L79.7007 188.683L75.3815 191.708C75.2601 191.794 75.1152 191.84 74.9667 191.84C74.8182 191.84 74.6733 191.794 74.552 191.708L70.2361 188.683L65.9202 191.708C65.7981 191.794 65.6528 191.839 65.5038 191.839C65.3548 191.839 65.2094 191.794 65.0873 191.708L60.7715 188.683L56.4556 191.708C56.3342 191.794 56.1893 191.84 56.0408 191.84C55.8923 191.84 55.7474 191.794 55.6261 191.708L51.3102 188.683L46.9943 191.708C46.917 191.767 46.8288 191.809 46.7348 191.832C46.6409 191.856 46.543 191.861 46.4473 191.846C46.3516 191.831 46.2599 191.797 46.1776 191.746C46.0953 191.694 46.024 191.627 45.9682 191.548C45.9123 191.469 45.8729 191.379 45.8524 191.285C45.8319 191.19 45.8305 191.092 45.8485 190.997C45.8666 190.902 45.9037 190.811 45.9574 190.731C46.0112 190.65 46.0805 190.581 46.1614 190.528Z" fill="#2563EB"/>
<path d="M130.938 81.5906C130.938 81.5906 129.826 83.1669 128.133 83.2495C127.117 83.2977 126.174 82.8021 125.335 81.7834C124.302 80.5134 123.634 80.269 123.27 80.2862C122.729 80.3103 122.237 80.9746 121.821 81.5906C121.821 81.5906 120.709 83.1669 119.016 83.2495C118 83.2977 117.057 82.8021 116.218 81.7834C115.591 81.0228 114.961 80.6407 114.352 80.6511C113.409 80.6717 112.69 81.601 112.676 81.6216C112.562 81.7754 112.391 81.8774 112.201 81.9052C112.011 81.9329 111.818 81.8842 111.664 81.7696C111.511 81.655 111.408 81.4841 111.381 81.2943C111.353 81.1046 111.402 80.9116 111.516 80.7577C111.561 80.6958 112.652 79.2503 114.307 79.209C115.388 79.1815 116.407 79.739 117.333 80.8644C117.859 81.5046 118.393 81.8212 118.923 81.804C119.711 81.7834 120.43 81.04 120.644 80.7715C121.119 80.0832 121.914 78.8992 123.218 78.8407C124.25 78.7891 125.314 79.4533 126.477 80.861C127 81.5011 127.534 81.8178 128.064 81.8006C128.852 81.7799 129.571 81.0365 129.767 80.7681C130.242 80.0797 131.038 78.8958 132.342 78.8373C133.374 78.7857 134.441 79.4499 135.601 80.8576C136.124 81.4977 136.661 81.8143 137.188 81.7971C137.976 81.7765 138.695 81.0331 138.891 80.7646C139.366 80.0763 140.161 78.8924 141.469 78.8338C142.502 78.7822 143.565 79.4465 144.725 80.8541C144.832 80.9842 144.89 81.1471 144.89 81.3153C144.89 81.464 144.844 81.6089 144.758 81.7303C144.672 81.8517 144.551 81.9437 144.411 81.9937C144.271 82.0438 144.119 82.0494 143.975 82.0099C143.832 81.9704 143.705 81.8877 143.61 81.773C142.577 80.5031 141.906 80.2587 141.545 80.2759C141.005 80.3 140.512 80.9643 140.096 81.5803C140.096 81.5803 138.988 83.1566 137.294 83.2392C136.262 83.2874 135.333 82.7952 134.493 81.773C133.461 80.5031 132.793 80.2587 132.428 80.2759C131.846 80.3069 131.354 80.9746 130.938 81.5906Z" fill="black"/>
<path d="M105.51 180.44H69.679C68.1781 180.438 66.7391 179.841 65.6778 178.779C64.6164 177.718 64.0194 176.279 64.0176 174.778V138.947C64.0194 137.446 64.6164 136.007 65.6778 134.945C66.7391 133.884 68.1781 133.287 69.679 133.285H78.0734C78.384 130.98 79.5204 128.865 81.2717 127.334C83.023 125.803 85.2702 124.959 87.5965 124.959C89.9227 124.959 92.1701 125.803 93.9214 127.334C95.6727 128.865 96.809 130.98 97.1196 133.285H105.51C107.011 133.287 108.45 133.884 109.512 134.945C110.573 136.007 111.17 137.446 111.172 138.947V147.307C113.53 147.56 115.711 148.676 117.296 150.44C118.881 152.205 119.757 154.493 119.757 156.864C119.757 159.236 118.881 161.523 117.296 163.288C115.711 165.052 113.53 166.168 111.172 166.422V174.778C111.17 176.279 110.573 177.718 109.512 178.779C108.45 179.841 107.011 180.438 105.51 180.44ZM69.679 135.698C68.8167 135.699 67.99 136.042 67.3803 136.651C66.7705 137.261 66.4277 138.088 66.4268 138.95V174.778C66.4277 175.64 66.7705 176.467 67.3803 177.077C67.99 177.687 68.8167 178.03 69.679 178.03H105.51C106.373 178.03 107.2 177.687 107.809 177.077C108.419 176.467 108.762 175.64 108.763 174.778V164.05H110.139C112.05 164.05 113.882 163.291 115.233 161.94C116.584 160.59 117.343 158.757 117.343 156.847C117.343 154.936 116.584 153.104 115.233 151.753C113.882 150.402 112.05 149.643 110.139 149.643L108.763 149.674V138.947C108.762 138.084 108.419 137.258 107.809 136.648C107.2 136.038 106.373 135.695 105.51 135.694H94.8102V134.503C94.7691 132.621 93.9923 130.829 92.6462 129.512C91.3001 128.195 89.4918 127.457 87.6086 127.457C85.7254 127.457 83.917 128.195 82.5709 129.512C81.2248 130.829 80.4479 132.621 80.4067 134.503V135.694L69.679 135.698Z" fill="black"/>
<path d="M88.7843 80.8237L88.6191 80.8891L85.2703 71.9889C85.0646 71.4408 84.7527 70.9387 84.3527 70.5113C83.9528 70.0838 83.4725 69.7394 82.9393 69.4978C82.4061 69.2561 81.8306 69.1219 81.2455 69.1029C80.6604 69.0839 80.0773 69.1804 79.5295 69.387L45.9938 82.0042C44.8904 82.4242 43.9977 83.2633 43.5103 84.3386C43.023 85.414 42.9804 86.6383 43.3919 87.7449L56.0125 121.281C56.2182 121.828 56.5298 122.33 56.9295 122.757C57.3292 123.184 57.8092 123.529 58.342 123.77C58.8748 124.012 59.4501 124.146 60.0348 124.165C60.6195 124.185 61.2022 124.089 61.7497 123.883L70.6534 120.534C69.8853 118.451 69.9721 116.15 70.8949 114.131C71.8177 112.113 73.5015 110.541 75.5788 109.759C77.6562 108.978 79.9583 109.049 81.9829 109.959C84.0075 110.868 85.5901 112.542 86.3853 114.614L95.289 111.262C96.3915 110.842 97.2835 110.003 97.7708 108.929C98.2581 107.854 98.3013 106.631 97.8909 105.525L94.5387 96.621L94.7074 96.5625C96.7945 95.7771 98.484 94.1947 99.4044 92.1635C100.325 90.1323 100.401 87.8186 99.6151 85.7315C98.8297 83.6444 97.2473 81.9548 95.2161 81.0344C93.1849 80.114 90.8713 80.0382 88.7843 80.8237Z" fill="#2563EB"/>
<path d="M60.1846 125.373C59.0337 125.369 57.911 125.016 56.9648 124.361C56.0185 123.706 55.2931 122.78 54.8845 121.704L42.2672 88.1681C41.7383 86.7628 41.7892 85.205 42.4089 83.8373C43.0285 82.4697 44.166 81.4041 45.5712 80.8751L79.107 68.2614C79.8027 67.9985 80.5434 67.8755 81.2868 67.8994C82.0301 67.9233 82.7614 68.0935 83.4388 68.4004C84.1163 68.7073 84.7265 69.1449 85.2346 69.688C85.7427 70.2311 86.1387 70.869 86.3999 71.5654L89.3424 79.3883C90.1288 79.1817 90.9386 79.0776 91.7516 79.0786C93.7051 79.086 95.6106 79.6853 97.2166 80.7973C98.8227 81.9094 100.054 83.4821 100.748 85.308C101.584 87.5284 101.569 89.9794 100.707 92.1897C99.8451 94.4 98.1963 96.2135 96.0779 97.2817L99.0205 105.101C99.5494 106.506 99.4985 108.064 98.8788 109.432C98.2592 110.8 97.1217 111.865 95.7165 112.394L85.7047 116.163L85.2676 115.058C84.5848 113.285 83.229 111.854 81.4957 111.076C79.7623 110.299 77.7918 110.238 76.0137 110.906C74.2355 111.575 72.7938 112.92 72.0026 114.647C71.2115 116.374 71.1349 118.344 71.7899 120.128L72.1927 121.246L62.1807 125.011C61.543 125.253 60.8665 125.375 60.1846 125.373ZM81.0997 70.3057C80.7083 70.3071 80.3201 70.3781 79.9536 70.5157L46.4179 83.1363C45.6112 83.4406 44.9582 84.0526 44.6026 84.8381C44.247 85.6235 44.2178 86.5179 44.5214 87.3249L57.1387 120.861C57.3739 121.478 57.7909 122.011 58.3347 122.387C58.8785 122.763 59.5235 122.965 60.1846 122.967C60.5751 122.968 60.9624 122.896 61.3272 122.757L69.1881 119.801C68.8763 118.394 68.8838 116.936 69.21 115.533C69.5361 114.13 70.1726 112.818 71.0726 111.693C71.9727 110.569 73.1135 109.66 74.411 109.035C75.7084 108.409 77.1296 108.082 78.5701 108.078C80.2994 108.071 81.9982 108.534 83.485 109.417C84.9719 110.301 86.1911 111.571 87.0124 113.093L94.8698 110.136C95.6766 109.832 96.3296 109.22 96.6858 108.435C97.0419 107.65 97.0721 106.755 96.7696 105.948L92.9838 95.8947L94.2848 95.4335C95.1722 95.1008 95.9852 94.5963 96.6772 93.9489C97.3692 93.3015 97.9267 92.5239 98.3177 91.6607C98.7087 90.7974 98.9256 89.8655 98.9558 88.9184C98.986 87.9712 98.8291 87.0273 98.494 86.1409C98.1621 85.253 97.6579 84.4395 97.0106 83.7471C96.3633 83.0547 95.5856 82.497 94.7221 82.1062C93.8585 81.7153 92.9263 81.499 91.9788 81.4697C91.0314 81.4403 90.0875 81.5985 89.2015 81.9352L87.9177 82.448L84.1319 72.3983C83.895 71.7851 83.4791 71.2573 82.9384 70.8835C82.3976 70.5097 81.7571 70.3072 81.0997 70.3023V70.3057Z" fill="black"/>
<path d="M150.048 135.585H139.347V134.398C139.347 132.488 138.589 130.657 137.239 129.307C135.888 127.956 134.057 127.198 132.147 127.198C130.238 127.198 128.407 127.956 127.056 129.307C125.706 130.657 124.947 132.488 124.947 134.398L124.93 135.585H114.216C112.715 135.583 111.276 134.986 110.215 133.925C109.154 132.864 108.557 131.425 108.555 129.924V119.189L109.897 119.21C110.856 119.231 111.809 119.06 112.702 118.707C113.594 118.355 114.406 117.828 115.092 117.157C115.778 116.486 116.322 115.685 116.694 114.801C117.066 113.917 117.258 112.967 117.258 112.008C117.258 111.049 117.066 110.099 116.694 109.215C116.322 108.331 115.778 107.53 115.092 106.859C114.406 106.188 113.594 105.661 112.702 105.308C111.809 104.956 110.856 104.785 109.897 104.806H108.555V94.0922C108.557 92.5913 109.154 91.1523 110.215 90.0909C111.276 89.0296 112.715 88.4325 114.216 88.4307H150.048C151.548 88.4334 152.986 89.0309 154.047 90.0921C155.107 91.1534 155.704 92.5918 155.706 94.0922V129.924C155.704 131.424 155.107 132.862 154.047 133.924C152.986 134.985 151.548 135.582 150.048 135.585ZM141.646 133.176H150.048C150.909 133.174 151.735 132.831 152.344 132.221C152.953 131.612 153.296 130.785 153.297 129.924V94.0922C153.296 93.2305 152.953 92.4043 152.344 91.7947C151.735 91.185 150.909 90.8417 150.048 90.8398H114.216C113.354 90.8408 112.527 91.1837 111.917 91.7934C111.308 92.4032 110.965 93.2299 110.964 94.0922V102.456C113.312 102.72 115.481 103.84 117.056 105.602C118.631 107.364 119.502 109.645 119.502 112.008C119.502 114.371 118.631 116.652 117.056 118.414C115.481 120.176 113.312 121.296 110.964 121.56V129.924C110.965 130.786 111.308 131.613 111.917 132.222C112.527 132.832 113.354 133.175 114.216 133.176H122.614C122.936 130.881 124.076 128.779 125.824 127.258C127.573 125.738 129.813 124.9 132.13 124.9C134.448 124.9 136.687 125.738 138.436 127.258C140.185 128.779 141.325 130.881 141.646 133.176Z" fill="black"/>
<path d="M150.298 134.3H140.785C140.741 132.1 139.835 130.005 138.264 128.465C136.692 126.925 134.58 126.063 132.379 126.062C130.179 126.063 128.066 126.925 126.494 128.465C124.922 130.005 124.017 132.1 123.973 134.3H114.467C113.882 134.3 113.302 134.415 112.761 134.638C112.221 134.862 111.729 135.19 111.315 135.604C110.901 136.017 110.573 136.508 110.349 137.049C110.125 137.589 110.01 138.169 110.01 138.754V148.267H110.147C112.377 148.267 114.516 149.153 116.093 150.729C117.67 152.306 118.555 154.445 118.555 156.675C118.555 158.905 117.67 161.043 116.093 162.62C114.516 164.197 112.377 165.083 110.147 165.083H110.01V174.592C110.01 175.776 110.479 176.911 111.314 177.75C112.15 178.588 113.283 179.062 114.467 179.066H150.298C150.885 179.066 151.466 178.951 152.007 178.725C152.549 178.5 153.041 178.17 153.454 177.755C153.868 177.339 154.196 176.846 154.419 176.303C154.641 175.76 154.754 175.179 154.752 174.592V138.754C154.752 137.573 154.282 136.44 153.447 135.605C152.612 134.77 151.479 134.3 150.298 134.3Z" fill="#2563EB"/>
<path d="M150.298 180.247H114.466C112.965 180.245 111.526 179.648 110.465 178.586C109.404 177.525 108.807 176.086 108.805 174.585V163.871H110.123C111.069 163.873 112.006 163.688 112.88 163.327C113.755 162.967 114.55 162.438 115.22 161.77C115.89 161.102 116.422 160.309 116.785 159.436C117.149 158.562 117.337 157.626 117.338 156.68C117.34 155.734 117.155 154.797 116.795 153.922C116.434 153.048 115.905 152.253 115.237 151.583C114.569 150.913 113.776 150.381 112.903 150.017C112.029 149.654 111.093 149.466 110.147 149.464L108.805 149.502V138.754C108.807 137.253 109.404 135.815 110.465 134.754C111.526 133.693 112.965 133.097 114.466 133.096H122.857C123.168 130.79 124.304 128.676 126.055 127.145C127.807 125.613 130.054 124.77 132.38 124.77C134.706 124.77 136.954 125.613 138.705 127.145C140.456 128.676 141.593 130.79 141.903 133.096H150.298C151.798 133.097 153.236 133.694 154.296 134.755C155.357 135.816 155.954 137.254 155.956 138.754V174.585C155.954 176.086 155.357 177.524 154.297 178.585C153.236 179.647 151.798 180.244 150.298 180.247ZM111.214 166.225V174.585C111.215 175.447 111.558 176.274 112.167 176.884C112.777 177.494 113.604 177.837 114.466 177.838H150.298C151.159 177.836 151.985 177.492 152.594 176.883C153.203 176.273 153.546 175.447 153.547 174.585V138.754C153.546 137.892 153.203 137.067 152.594 136.457C151.985 135.848 151.159 135.506 150.298 135.505H139.594V134.311C139.553 132.428 138.776 130.636 137.43 129.319C136.084 128.002 134.275 127.265 132.392 127.265C130.509 127.265 128.701 128.002 127.355 129.319C126.009 130.636 125.232 132.428 125.19 134.311V135.505H114.466C113.604 135.505 112.778 135.847 112.168 136.456C111.558 137.065 111.215 137.892 111.214 138.754V147.117C113.566 147.378 115.738 148.497 117.317 150.259C118.895 152.022 119.767 154.305 119.767 156.671C119.767 159.037 118.895 161.32 117.317 163.083C115.738 164.846 113.566 165.965 111.214 166.225Z" fill="black"/>
<path d="M46.7436 111.762L42.7754 126.248L48.4782 127.814L52.4603 113.327C52.6195 112.587 52.4892 111.814 52.0963 111.167C51.7034 110.52 51.0776 110.047 50.3474 109.847C49.6172 109.646 48.8381 109.733 48.1698 110.089C47.5016 110.445 46.9949 111.044 46.754 111.762H46.7436Z" fill="white"/>
<path d="M53.4458 112.831C53.4283 113.078 53.3869 113.324 53.322 113.564L49.3433 128.053C49.2776 128.282 49.124 128.476 48.916 128.593C48.708 128.71 48.4623 128.74 48.2324 128.676C48.0025 128.613 47.8068 128.461 47.688 128.254C47.5693 128.047 47.5371 127.802 47.5983 127.571L51.5804 113.085C51.6439 112.847 51.6577 112.599 51.6209 112.356C51.5842 112.112 51.4978 111.879 51.367 111.671C51.0797 111.206 50.6252 110.87 50.0971 110.731C49.6 110.573 49.0604 110.617 48.5962 110.855C48.132 111.093 47.7807 111.505 47.619 112.001L43.637 126.484C43.6056 126.598 43.552 126.705 43.4792 126.799C43.4064 126.892 43.3159 126.971 43.2129 127.029C43.1098 127.088 42.9961 127.126 42.8784 127.141C42.7608 127.155 42.6414 127.147 42.527 127.115C42.4127 127.084 42.3057 127.03 42.2121 126.957C42.1185 126.885 42.04 126.794 41.9814 126.691C41.9227 126.588 41.885 126.474 41.8703 126.357C41.8556 126.239 41.8641 126.12 41.8955 126.005L45.8741 111.523C46.1639 110.566 46.8206 109.762 47.7008 109.288C48.581 108.813 49.6131 108.706 50.572 108.99C51.5433 109.25 52.3784 109.871 52.9055 110.728C53.2957 111.357 53.4842 112.091 53.4458 112.831Z" fill="black"/>
<path d="M38.7983 138.816C38.6648 138.782 38.5419 138.715 38.4404 138.622C38.3388 138.529 38.262 138.412 38.2167 138.282C38.0867 137.953 38.0662 137.591 38.1582 137.25L38.2649 136.826C38.2993 136.685 38.344 136.517 38.3957 136.317C38.4473 136.117 38.5161 135.887 38.5884 135.629C38.9988 134.199 39.4988 132.797 40.0856 131.43C40.9152 129.49 41.9137 127.626 43.0695 125.861C43.7028 124.901 44.3911 123.934 45.1345 123.001C45.8779 122.068 46.6831 121.163 47.5126 120.303C49.1148 118.653 50.8508 117.138 52.7027 115.774C54.2618 114.637 55.8894 113.596 57.5761 112.659C59.0354 111.84 60.2779 111.234 61.1521 110.831C61.5892 110.628 61.9334 110.487 62.1846 110.374L62.5459 110.215C62.6048 110.188 62.6659 110.167 62.7284 110.15L62.959 110.054C63.9034 109.636 64.9688 109.584 65.9498 109.906C66.3721 110.04 66.7573 110.27 67.0751 110.579C67.3928 110.888 67.6344 111.267 67.7807 111.685C67.9215 112.109 67.9628 112.56 67.9012 113.003L67.9941 112.972C68.9138 112.648 69.9243 112.7 70.806 113.117C71.1956 113.301 71.5395 113.569 71.8127 113.903C72.086 114.236 72.2816 114.626 72.3856 115.044C72.5359 115.683 72.4893 116.353 72.2515 116.964C72.0246 117.566 71.6408 118.096 71.1399 118.499C71.5233 118.874 71.8031 119.341 71.9521 119.855C72.1503 120.513 72.1503 121.215 71.9521 121.872C71.7702 122.483 71.4108 123.026 70.9196 123.431C71.2651 123.795 71.5271 124.229 71.687 124.705C71.9572 125.484 71.9656 126.33 71.7111 127.114C71.6108 127.454 71.4397 127.768 71.2089 128.037C70.9782 128.306 70.6931 128.523 70.3724 128.673C70.3724 128.673 70.0798 128.8 69.6496 128.997C69.2194 129.193 68.6583 129.468 68.1111 129.761C67.5639 130.053 67.0339 130.356 66.645 130.593L66.177 130.879L66.0049 130.993C65.9662 131.018 65.9245 131.039 65.8809 131.055L65.7295 131.151L65.3233 131.426C64.9791 131.667 64.4835 132.018 63.9466 132.459C63.3345 132.947 62.7497 133.469 62.1949 134.021C61.5917 134.625 61.0306 135.269 60.5154 135.949C60.0209 136.603 59.5757 137.293 59.1834 138.014C58.8475 138.637 58.5531 139.282 58.3023 139.945C58.0786 140.526 57.9307 141.032 57.8309 141.39C57.7758 141.566 57.7482 141.714 57.7207 141.81L57.6829 141.958C57.6003 142.302 57.1184 142.512 56.5952 142.409L38.7983 138.816Z" fill="white"/>
<path d="M72.8364 126.243C72.8133 126.646 72.7371 127.045 72.6093 127.427C72.4656 127.895 72.2247 128.327 71.9027 128.695C71.5806 129.064 71.1847 129.36 70.7404 129.565C70.7232 129.565 70.4444 129.692 70.0521 129.881C69.7595 130.016 69.1813 130.291 68.5618 130.618C68.0972 130.866 67.581 131.158 67.1404 131.423L66.5277 131.805C66.4635 131.849 66.3956 131.887 66.3247 131.919L65.8636 132.229C65.5194 132.469 65.0513 132.8 64.5316 133.216C63.9492 133.686 63.391 134.184 62.859 134.71C62.2869 135.28 61.7555 135.89 61.2689 136.534C60.7939 137.148 60.3648 137.795 59.9852 138.472C59.6714 139.059 59.3943 139.664 59.1557 140.286C58.956 140.809 58.8116 141.266 58.7083 141.662C58.6808 141.748 58.6636 141.827 58.6429 141.903C58.6223 141.979 58.6188 142.006 58.6085 142.051L58.574 142.185C58.3641 143.039 57.397 143.562 56.3645 143.349L38.5951 139.756C38.3062 139.693 38.0375 139.559 37.8134 139.366C37.5892 139.173 37.4167 138.927 37.3114 138.651C37.1062 138.131 37.0712 137.56 37.2116 137.019L37.449 136.083C37.4869 135.932 37.535 135.77 37.5867 135.591L37.6487 135.371C38.0691 133.902 38.5818 132.462 39.1837 131.058C40.0365 129.066 41.0627 127.152 42.2502 125.338C42.9386 124.282 43.6612 123.294 44.3771 122.406C45.1412 121.456 45.9603 120.523 46.8138 119.653C48.4511 117.963 50.2263 116.412 52.1209 115.017C53.712 113.843 55.374 112.768 57.0975 111.799C58.3125 111.11 59.5377 110.494 60.7458 109.933L61.7783 109.465L62.1224 109.31C62.201 109.276 62.2815 109.246 62.3634 109.221L62.5458 109.142C63.7126 108.636 65.0244 108.578 66.2318 108.977C66.7928 109.16 67.3037 109.471 67.7246 109.885C68.1455 110.298 68.4651 110.804 68.6583 111.362C68.7069 111.512 68.7469 111.665 68.7786 111.819C69.6062 111.741 70.4393 111.891 71.1878 112.253C71.7028 112.501 72.1569 112.859 72.5179 113.302C72.8789 113.745 73.1382 114.263 73.277 114.817C73.4719 115.645 73.4131 116.512 73.1083 117.305C72.9348 117.763 72.6897 118.191 72.3821 118.572C72.576 118.888 72.7276 119.228 72.833 119.584C73.0824 120.421 73.0824 121.314 72.833 122.151C72.685 122.638 72.452 123.095 72.1447 123.5C72.3161 123.779 72.4568 124.076 72.5644 124.385C72.7761 124.981 72.8685 125.612 72.8364 126.243ZM65.4919 130.167L65.6468 130.067L66.1079 129.782C66.3936 129.609 66.9581 129.276 67.6327 128.918C68.3072 128.56 68.9095 128.271 69.2192 128.13C69.6426 127.933 69.9351 127.809 69.966 127.785C70.1609 127.686 70.3331 127.547 70.4717 127.377C70.6103 127.208 70.7123 127.012 70.7713 126.801C70.8458 126.579 70.8899 126.347 70.9023 126.113C70.9232 125.736 70.8705 125.358 70.7473 125.001C70.6341 124.66 70.4459 124.348 70.1966 124.089L69.4669 123.335L70.2827 122.671C70.619 122.393 70.8677 122.024 70.9986 121.608C71.1397 121.131 71.1397 120.624 70.9986 120.148C70.8958 119.794 70.7038 119.471 70.441 119.212L69.6597 118.455L70.5063 117.767C70.8726 117.471 71.1532 117.082 71.3187 116.641C71.4859 116.212 71.5207 115.742 71.4185 115.292C71.3485 115.011 71.2163 114.749 71.0317 114.526C70.847 114.302 70.6146 114.123 70.3516 114.001C69.7023 113.701 68.9617 113.665 68.2865 113.902L66.7102 114.439L66.9305 112.883C66.9766 112.583 66.9518 112.277 66.8583 111.988C66.759 111.709 66.5958 111.458 66.3819 111.253C66.1679 111.049 65.9091 110.897 65.6261 110.811C64.8702 110.571 64.0528 110.615 63.327 110.935L63.0482 111.055L62.9933 111.073L62.9175 111.097L62.5733 111.251C62.3393 111.351 62.0054 111.503 61.5717 111.702C60.4119 112.239 59.2314 112.845 58.0647 113.499C56.4089 114.43 54.8135 115.465 53.2877 116.596C51.4797 117.928 49.7851 119.407 48.2214 121.019C47.4092 121.862 46.628 122.74 45.9018 123.652C45.2135 124.495 44.5251 125.431 43.8815 126.44C41.9612 129.373 40.4914 132.577 39.5209 135.946L39.4589 136.166C39.4107 136.328 39.3696 136.476 39.3317 136.61L39.101 137.532C39.0646 137.663 39.0646 137.801 39.101 137.931L56.7569 141.5H56.7845C56.8051 141.414 56.8326 141.297 56.8739 141.156C56.9634 140.85 57.1251 140.279 57.3695 139.639C57.9424 138.124 58.7319 136.7 59.7133 135.412C60.2536 134.695 60.8435 134.016 61.4788 133.382C62.0613 132.804 62.6736 132.257 63.3132 131.743C63.8811 131.289 64.3802 130.934 64.7519 130.673L65.4403 130.219L65.4919 130.167Z" fill="black"/>
<path d="M70.4166 113.003C70.4094 113.151 70.3564 113.293 70.2652 113.409C70.174 113.526 70.049 113.611 69.9073 113.654L69.4461 113.795C69.1811 113.877 68.7577 114.008 68.2656 114.18C67.1711 114.548 65.8874 115.044 64.7379 115.557C63.5883 116.07 62.3665 116.641 61.3271 117.198C60.9003 117.426 60.5115 117.642 60.2259 117.804L59.8059 118.045C59.7235 118.096 59.6316 118.131 59.5357 118.146C59.4398 118.161 59.3418 118.156 59.2476 118.132C59.1535 118.109 59.0651 118.066 58.9877 118.008C58.9103 117.949 58.8456 117.876 58.7973 117.791C58.7489 117.707 58.7179 117.614 58.7063 117.518C58.6948 117.421 58.7027 117.324 58.7297 117.23C58.7567 117.137 58.8023 117.05 58.8636 116.975C58.9249 116.9 59.0008 116.838 59.0866 116.792L59.5064 116.551C59.8024 116.379 60.1948 116.156 60.6456 115.922C61.7195 115.347 63.0033 114.731 64.17 114.228C65.3367 113.726 66.6755 113.196 67.8009 112.828C68.3137 112.652 68.7405 112.518 69.0193 112.432L69.484 112.287C69.6679 112.231 69.8663 112.251 70.036 112.341C70.2057 112.431 70.3327 112.585 70.3891 112.769C70.4116 112.845 70.421 112.924 70.4166 113.003Z" fill="black"/>
<path d="M71.8886 118.166C71.8802 118.313 71.8268 118.454 71.7357 118.569C71.6446 118.685 71.5202 118.77 71.3793 118.813L70.9422 118.947C70.6909 119.03 70.3433 119.14 69.9372 119.291C68.9632 119.635 67.8309 120.059 66.8397 120.496C65.8485 120.933 64.7541 121.449 63.8455 121.934C63.4497 122.148 63.1159 122.33 62.8853 122.461L62.5169 122.674C62.4344 122.728 62.3418 122.765 62.2447 122.782C62.1475 122.798 62.0479 122.795 61.9521 122.772C61.8563 122.749 61.7663 122.707 61.6874 122.648C61.6086 122.588 61.5426 122.514 61.4937 122.428C61.4448 122.342 61.4139 122.248 61.4029 122.15C61.392 122.052 61.4012 121.953 61.43 121.858C61.4588 121.764 61.5066 121.677 61.5705 121.602C61.6343 121.526 61.7126 121.465 61.801 121.422L62.1659 121.212C62.4068 121.07 62.751 120.867 63.1606 120.661C64.107 120.155 65.2256 119.611 66.2581 119.167C67.2906 118.723 68.4608 118.265 69.4692 117.925C69.8891 117.78 70.2436 117.667 70.5017 117.581L70.949 117.443C71.0397 117.415 71.135 117.405 71.2295 117.413C71.3241 117.422 71.416 117.449 71.5001 117.493C71.5841 117.537 71.6586 117.597 71.7194 117.67C71.7802 117.743 71.8261 117.827 71.8543 117.918C71.8783 117.998 71.8897 118.082 71.8886 118.166Z" fill="black"/>
<path d="M71.4995 123.349C71.4913 123.49 71.4416 123.626 71.3565 123.739C71.2714 123.853 71.1546 123.938 71.021 123.986C71.021 123.986 70.608 124.134 70.0092 124.364C69.3209 124.639 68.512 124.977 67.8306 125.293C67.1491 125.61 66.3748 126.002 65.7347 126.353C65.184 126.656 64.8226 126.873 64.8191 126.873C64.7377 126.925 64.6467 126.96 64.5514 126.977C64.4561 126.993 64.3586 126.99 64.2645 126.968C64.1705 126.946 64.0818 126.905 64.0037 126.848C63.9257 126.791 63.8597 126.719 63.81 126.636C63.7602 126.553 63.7277 126.461 63.7142 126.365C63.7006 126.27 63.7064 126.172 63.7311 126.079C63.7559 125.985 63.7992 125.898 63.8584 125.822C63.9176 125.745 63.9916 125.681 64.0758 125.634C64.0758 125.634 64.4648 125.403 65.043 125.087C65.7072 124.719 66.5021 124.319 67.2214 123.982C67.9407 123.645 68.753 123.294 69.4861 123.018C70.109 122.777 70.5186 122.633 70.5392 122.626C70.6514 122.586 70.7718 122.574 70.8896 122.592C71.0074 122.61 71.1189 122.657 71.2141 122.729C71.3093 122.8 71.3853 122.894 71.4351 123.003C71.4849 123.111 71.507 123.23 71.4995 123.349Z" fill="black"/>
<path d="M36.237 132.734L36.175 132.875L36.0098 133.275L35.7552 133.905C35.652 134.152 35.5418 134.431 35.4111 134.741C35.2803 135.051 35.1563 135.395 35.0118 135.773C34.8672 136.152 34.7262 136.544 34.5644 136.975C34.2409 137.832 33.9139 138.792 33.5319 139.845C31.7973 144.943 30.3245 150.126 29.1196 155.374C28.4622 158.23 27.8875 161.108 27.4263 163.827C27.1682 165.179 26.9961 166.504 26.8033 167.757C26.7138 168.383 26.6255 168.991 26.5383 169.581C26.4626 170.173 26.4007 170.748 26.3353 171.302C26.208 172.403 26.0944 173.415 25.9911 174.306C25.8879 175.198 25.8535 175.993 25.7984 176.64C25.6951 177.931 25.6367 180.295 25.6367 180.295H49.6974C49.6974 180.295 49.7456 179.686 49.8317 178.619C49.8764 178.082 49.9212 177.435 49.99 176.692C50.0588 175.948 50.169 175.105 50.2757 174.189C50.3307 173.732 50.3789 173.253 50.4409 172.758C50.5028 172.262 50.5924 171.756 50.6681 171.23C50.8298 170.197 50.9674 169.072 51.1877 167.932C51.58 165.644 52.0619 163.21 52.6195 160.791C53.6361 156.363 54.8779 151.99 56.34 147.689C56.6463 146.825 56.9181 146.023 57.1762 145.338C57.307 144.994 57.4241 144.67 57.5377 144.374C57.6512 144.078 57.7544 143.817 57.8474 143.572C57.9403 143.328 58.0229 143.114 58.0986 142.942C58.1743 142.77 58.2328 142.598 58.2809 142.488C58.3291 142.378 58.3705 142.268 58.3945 142.216C58.4186 142.165 58.429 142.13 58.429 142.13L36.237 132.734Z" fill="#2563EB"/>
<path d="M49.7935 181.555C49.7295 181.562 49.6649 181.562 49.6008 181.555C49.4331 181.542 49.2696 181.496 49.1197 181.419C48.9697 181.343 48.8362 181.238 48.7269 181.11C48.6176 180.982 48.5346 180.834 48.4826 180.674C48.4305 180.514 48.4106 180.346 48.4238 180.178L48.5579 178.502C48.5751 178.302 48.5923 178.096 48.6061 177.872C48.6371 177.483 48.6714 177.039 48.7162 176.561C48.7145 176.551 48.7145 176.54 48.7162 176.53L49.0019 174.028C49.0225 173.859 49.0431 173.684 49.0603 173.518C49.0948 173.215 49.1327 172.902 49.1706 172.586C49.1706 172.586 49.1706 172.565 49.1706 172.555L49.3978 171.03C49.446 170.727 49.4871 170.424 49.5319 170.118C49.6455 169.337 49.7625 168.528 49.9243 167.688C50.3373 165.279 50.8261 162.849 51.3699 160.488C52.3937 156.015 53.6481 151.598 55.1282 147.255L55.3965 146.487C55.5961 145.913 55.7889 145.365 55.9748 144.873L56.319 143.913V143.892L56.6287 143.094C56.67 142.991 56.7044 142.898 56.7423 142.808L36.925 134.421C36.8252 134.658 36.7254 134.916 36.6118 135.206L36.216 136.238L35.7721 137.429C35.5346 138.062 35.2902 138.761 35.0321 139.494C34.9426 139.745 34.8531 140.007 34.7602 140.272C33.0382 145.322 31.5782 150.458 30.3859 155.659C29.7491 158.413 29.1847 161.228 28.7028 164.04C28.7028 164.04 28.7028 164.057 28.7028 164.064C28.517 165.038 28.3758 166.009 28.2382 166.948C28.19 167.292 28.1419 167.636 28.0903 167.946L27.8253 169.75C27.7771 170.135 27.7358 170.51 27.6945 170.875C27.6704 171.068 27.6498 171.257 27.6291 171.443L27.285 174.43C27.2334 175.019 27.1886 175.566 27.1507 176.051C27.1507 176.296 27.1128 176.523 27.0956 176.74L26.9339 180.391C26.907 180.731 26.7462 181.046 26.4871 181.267C26.2279 181.488 25.8916 181.597 25.552 181.57C25.2125 181.543 24.8976 181.382 24.6765 181.123C24.4554 180.864 24.3462 180.528 24.3732 180.188L24.535 176.53C24.5522 176.316 24.5729 176.093 24.5901 175.841C24.628 175.346 24.6726 174.785 24.7311 174.172C24.7294 174.163 24.7294 174.154 24.7311 174.145L25.0753 171.14C25.0994 170.951 25.12 170.765 25.1406 170.576C25.1854 170.197 25.2303 169.808 25.2784 169.409C25.2784 169.409 25.2784 169.409 25.2784 169.385L25.5435 167.561C25.5951 167.217 25.6432 166.903 25.6914 166.57C25.829 165.609 25.9771 164.611 26.1698 163.589C26.6585 160.732 27.2333 157.869 27.8906 155.074C29.1051 149.782 30.5905 144.555 32.3408 139.415C32.4372 139.143 32.5232 138.888 32.6127 138.637C32.8777 137.88 33.1254 137.167 33.3767 136.51L33.8173 135.316C33.8173 135.316 33.8173 135.316 33.8173 135.298L34.2199 134.266C34.3404 133.949 34.4505 133.667 34.5641 133.402L35.0493 132.222C35.1815 131.907 35.433 131.658 35.7485 131.529C36.064 131.4 36.4178 131.402 36.7323 131.533L58.9518 140.926C59.1078 140.991 59.2494 141.087 59.3684 141.207C59.4875 141.327 59.5816 141.469 59.6455 141.626C59.7095 141.783 59.7419 141.95 59.741 142.12C59.7401 142.289 59.7058 142.456 59.6402 142.612L59.6023 142.698L59.5059 142.936L59.32 143.39C59.2512 143.558 59.1756 143.758 59.0792 144.002L58.7728 144.794L58.4287 145.751C58.2531 146.212 58.0673 146.742 57.8711 147.303C57.785 147.554 57.6956 147.809 57.6027 148.074C56.1552 152.329 54.9272 156.655 53.9236 161.035C53.3901 163.352 52.9117 165.73 52.5056 168.105C52.5056 168.105 52.5056 168.122 52.5056 168.132C52.3541 168.917 52.2405 169.698 52.1338 170.455C52.0891 170.768 52.0444 171.075 51.9962 171.381L51.7725 172.888C51.7358 173.191 51.7013 173.487 51.6692 173.776C51.6485 173.952 51.6313 174.121 51.6107 174.293L51.325 176.778C51.2837 177.235 51.2493 177.662 51.2218 178.041C51.2012 178.268 51.1874 178.481 51.1702 178.681L51.0359 180.354C51.0155 180.672 50.8769 180.972 50.6471 181.194C50.4173 181.417 50.113 181.545 49.7935 181.555Z" fill="#2563EB"/>
<path d="M37.7573 177.508H37.6989C37.624 177.506 37.5502 177.489 37.4817 177.459C37.4133 177.428 37.3516 177.385 37.3001 177.33C37.2486 177.276 37.2083 177.212 37.1816 177.142C37.1549 177.072 37.1425 176.997 37.1448 176.922C37.1448 176.788 37.2548 173.594 38.3114 167.733C39.282 162.34 41.2783 153.591 45.2672 142.523C45.291 142.45 45.329 142.383 45.3793 142.325C45.4296 142.267 45.491 142.22 45.5598 142.187C45.6286 142.153 45.7035 142.134 45.7799 142.13C45.8564 142.126 45.9328 142.137 46.0048 142.163C46.0768 142.189 46.1428 142.229 46.1989 142.281C46.255 142.334 46.3001 142.396 46.3315 142.466C46.3628 142.536 46.3797 142.611 46.3814 142.688C46.383 142.765 46.3692 142.841 46.3409 142.912C42.3795 153.904 40.3971 162.588 39.4368 167.936C38.4043 173.715 38.2874 176.926 38.2874 176.957C38.2826 177.098 38.2259 177.232 38.1281 177.334C38.0302 177.436 37.8981 177.497 37.7573 177.508Z" fill="black"/>
<path d="M30.9816 167.458C30.8523 167.466 30.7242 167.429 30.6184 167.354C30.5127 167.279 30.4355 167.171 30.3995 167.046C30.3635 166.922 30.3708 166.789 30.4203 166.669C30.4698 166.55 30.5585 166.45 30.6719 166.388C33.4459 164.89 37.1766 163.999 41.754 163.734C43.7707 163.609 45.7938 163.626 47.808 163.786C47.8826 163.792 47.955 163.813 48.0213 163.848C48.0876 163.883 48.1463 163.93 48.194 163.988C48.2418 164.046 48.2775 164.112 48.2992 164.184C48.321 164.256 48.3283 164.331 48.3208 164.405C48.3059 164.556 48.2322 164.695 48.1156 164.792C47.9989 164.888 47.8487 164.935 47.6978 164.921C47.598 164.921 37.4933 164.006 31.2157 167.393C31.1431 167.431 31.0633 167.453 30.9816 167.458Z" fill="black"/>
<path d="M48.1236 162.674C48.0147 162.682 47.9059 162.658 47.8103 162.605C47.7312 162.561 39.6604 158.2 32.395 159.195C32.2465 159.211 32.0972 159.169 31.9794 159.077C31.8616 158.985 31.7846 158.851 31.7648 158.703C31.745 158.555 31.784 158.405 31.8735 158.285C31.9631 158.165 32.0959 158.085 32.2436 158.062C39.8876 157.03 48.0168 161.418 48.361 161.604C48.4691 161.663 48.555 161.756 48.6059 161.869C48.6567 161.981 48.6697 162.107 48.643 162.228C48.6163 162.348 48.5511 162.457 48.4575 162.538C48.3638 162.618 48.2467 162.666 48.1236 162.674Z" fill="black"/>
<path d="M168.222 137.673L165.888 135.34L168.225 133.006C168.312 132.919 168.361 132.801 168.361 132.678C168.361 132.554 168.312 132.436 168.225 132.349C168.138 132.262 168.02 132.213 167.896 132.213C167.773 132.213 167.655 132.262 167.568 132.349L165.234 134.686L162.901 132.352C162.858 132.31 162.807 132.275 162.751 132.252C162.695 132.229 162.635 132.217 162.574 132.217C162.513 132.217 162.453 132.229 162.397 132.252C162.341 132.275 162.29 132.31 162.247 132.352C162.204 132.395 162.17 132.446 162.147 132.502C162.124 132.559 162.111 132.619 162.111 132.679C162.111 132.74 162.124 132.8 162.147 132.856C162.17 132.912 162.204 132.963 162.247 133.006L164.58 135.34L162.244 137.673C162.156 137.76 162.107 137.879 162.107 138.002C162.107 138.125 162.156 138.244 162.244 138.331C162.331 138.418 162.449 138.467 162.572 138.467C162.696 138.467 162.814 138.418 162.901 138.331L165.234 135.994L167.568 138.331C167.61 138.378 167.661 138.417 167.719 138.444C167.776 138.471 167.839 138.486 167.902 138.488C167.966 138.49 168.029 138.479 168.088 138.455C168.147 138.432 168.201 138.396 168.246 138.351C168.291 138.306 168.326 138.252 168.349 138.193C168.372 138.134 168.383 138.071 168.381 138.007C168.379 137.944 168.363 137.881 168.336 137.824C168.309 137.766 168.27 137.715 168.222 137.673Z" fill="#2563EB"/>
<g clip-path="url(#clip2_4155_70522)">
<path d="M72.1401 95.1961L68.5608 94.5282L66.6813 89.4658L67.9469 88.9959L69.5914 93.4255L72.7633 94.0047C72.5051 94.3694 72.291 94.7753 72.1401 95.1961ZM72.4834 99.7152C72.1953 99.8701 71.9094 100.005 71.5972 100.121C67.868 101.506 63.726 99.6064 62.3414 95.8772C60.9569 92.1479 62.856 88.0059 66.5853 86.6214C70.3145 85.2368 74.4565 87.1359 75.8411 90.8652C75.957 91.1774 76.0413 91.4821 76.1119 91.8015C76.7254 91.6697 77.3343 91.6548 77.9323 91.74C77.8413 91.2362 77.7133 90.7365 77.5285 90.2387C75.8056 85.5982 70.5992 83.211 65.9588 84.9339C61.3183 86.6568 58.9311 91.8632 60.654 96.5037C62.3769 101.144 67.5579 103.541 72.2237 101.808C72.7215 101.624 73.1837 101.394 73.6248 101.135C73.17 100.737 72.7839 100.266 72.4834 99.7152ZM75.0934 94.0229L76.0331 96.554L73.5019 97.4938L74.1284 99.1812L76.6596 98.2415L77.5994 100.773L79.2868 100.146L78.3471 97.615L80.8782 96.6752L80.2517 94.9878L77.7206 95.9275L76.7808 93.3964L75.0934 94.0229Z" fill="white"/>
</g>
<path d="M142.477 147.139H126.277V152.539H142.477V147.139ZM140.677 150.739H128.077V148.939H140.677V150.739ZM138.877 153.439C137.698 153.439 136.591 153.772 135.646 154.339H132.127C131.875 154.339 131.677 154.537 131.677 154.789V156.139H133.711C132.971 157.193 132.575 158.45 132.577 159.739C132.577 160.369 132.676 160.972 132.838 161.539H128.977V153.439H127.177V163.339H133.711C134.854 164.968 136.735 166.039 138.877 166.039C142.36 166.039 145.177 163.222 145.177 159.739C145.177 156.256 142.36 153.439 138.877 153.439ZM138.877 164.239C136.393 164.239 134.377 162.223 134.377 159.739C134.377 157.255 136.393 155.239 138.877 155.239C141.361 155.239 143.377 157.255 143.377 159.739C143.377 162.223 141.361 164.239 138.877 164.239ZM139.327 159.964L141.901 161.485L141.226 162.583L137.977 160.639V156.139H139.327V159.964Z" fill="white"/>
<path d="M93.391 153.231H91.591C91.336 153.231 91.1221 153.145 90.9493 152.972C90.7765 152.799 90.6904 152.586 90.691 152.331C90.691 152.076 90.7774 151.863 90.9502 151.69C91.123 151.517 91.3366 151.431 91.591 151.431H93.391V149.631C93.391 149.376 93.4774 149.163 93.6502 148.99C93.823 148.817 94.0366 148.731 94.291 148.731C94.546 148.731 94.7599 148.818 94.9327 148.991C95.1055 149.163 95.1916 149.377 95.191 149.631V151.431H96.991C97.246 151.431 97.4599 151.518 97.6327 151.691C97.8055 151.863 97.8916 152.077 97.891 152.331C97.891 152.586 97.8046 152.8 97.6318 152.973C97.459 153.146 97.2454 153.232 96.991 153.231H95.191V155.031C95.191 155.286 95.1046 155.5 94.9318 155.673C94.759 155.846 94.5454 155.932 94.291 155.931C94.036 155.931 93.8221 155.845 93.6493 155.672C93.4765 155.499 93.3904 155.286 93.391 155.031V153.231ZM87.991 163.131C88.801 163.131 89.5549 162.97 90.2527 162.648C90.9505 162.326 91.5466 161.88 92.041 161.309C90.151 161.189 88.5535 160.443 87.2485 159.07C85.9435 157.697 85.291 156.051 85.291 154.131C85.291 153.936 85.2985 153.745 85.3135 153.557C85.3285 153.369 85.351 153.186 85.381 153.006C84.541 153.471 83.866 154.12 83.356 154.953C82.846 155.786 82.591 156.712 82.591 157.731C82.591 159.231 83.116 160.506 84.166 161.556C85.216 162.606 86.491 163.131 87.991 163.131ZM94.606 160.589C94.036 161.909 93.1546 162.963 91.9618 163.751C90.769 164.538 89.4454 164.932 87.991 164.931C85.981 164.931 84.2785 164.234 82.8835 162.839C81.4885 161.444 80.791 159.741 80.791 157.731C80.791 156.006 81.3421 154.484 82.4443 153.164C83.5465 151.844 84.9454 151.011 86.641 150.666C86.821 150.636 86.9821 150.651 87.1243 150.711C87.2665 150.771 87.3754 150.869 87.451 151.004C87.526 151.139 87.571 151.3 87.586 151.487C87.601 151.674 87.571 151.873 87.496 152.084C87.361 152.414 87.2599 152.751 87.1927 153.096C87.1255 153.441 87.0916 153.786 87.091 154.131C87.091 155.631 87.616 156.906 88.666 157.956C89.716 159.006 90.991 159.531 92.491 159.531C92.656 159.531 92.8135 159.528 92.9635 159.52C93.1135 159.512 93.2635 159.493 93.4135 159.464C93.6835 159.419 93.9049 159.426 94.0777 159.486C94.2505 159.546 94.3891 159.636 94.4935 159.756C94.5985 159.876 94.6621 160.008 94.6843 160.151C94.7065 160.293 94.6804 160.44 94.606 160.589Z" fill="#2563EB"/>
<path d="M138.67 104.769C140.58 104.769 142.411 105.527 143.761 106.877C145.112 108.228 145.87 110.059 145.87 111.969C145.87 113.878 145.112 115.709 143.761 117.06C142.411 118.41 140.58 119.169 138.67 119.169C136.761 119.169 134.929 118.41 133.579 117.06C132.229 115.709 131.47 113.878 131.47 111.969C131.47 110.059 132.229 108.228 133.579 106.877C134.929 105.527 136.761 104.769 138.67 104.769ZM138.67 106.569C137.238 106.569 135.865 107.137 134.852 108.15C133.839 109.163 133.27 110.536 133.27 111.969C133.27 113.401 133.839 114.774 134.852 115.787C135.865 116.8 137.238 117.369 138.67 117.369C140.102 117.369 141.476 116.8 142.489 115.787C143.501 114.774 144.07 113.401 144.07 111.969C144.07 110.536 143.501 109.163 142.489 108.15C141.476 107.137 140.102 106.569 138.67 106.569ZM137.77 108.369H139.12V111.771L141.217 113.868L140.263 114.822L137.77 112.329V108.369ZM126.97 117.369C126.732 117.369 126.503 117.274 126.334 117.105C126.165 116.936 126.07 116.707 126.07 116.469C126.07 116.23 126.165 116.001 126.334 115.832C126.503 115.663 126.732 115.569 126.97 115.569H130.417C130.696 116.208 131.056 116.811 131.47 117.369H126.97ZM127.87 112.869C127.632 112.869 127.403 112.774 127.234 112.605C127.065 112.436 126.97 112.207 126.97 111.969C126.97 111.73 127.065 111.501 127.234 111.332C127.403 111.163 127.632 111.069 127.87 111.069H129.715L129.67 111.969L129.715 112.869H127.87ZM128.77 108.369C128.532 108.369 128.303 108.274 128.134 108.105C127.965 107.936 127.87 107.707 127.87 107.469C127.87 107.23 127.965 107.001 128.134 106.832C128.303 106.663 128.532 106.569 128.77 106.569H131.47C131.056 107.127 130.696 107.73 130.417 108.369H128.77Z" fill="#2563EB"/>
</g>
<path d="M187.593 11.1552L177.423 16.5993C177.319 16.6557 177.201 16.6823 177.083 16.6761C176.93 16.678 176.78 16.6273 176.659 16.5324C176.538 16.4375 176.454 16.3041 176.419 16.1545C176.385 16.0048 176.403 15.8478 176.47 15.7097C176.537 15.5716 176.65 15.4606 176.788 15.3952L186.959 9.95111C187.116 9.86618 187.301 9.84717 187.472 9.89822C187.643 9.94927 187.787 10.0662 187.872 10.2233C187.957 10.3805 187.976 10.5649 187.925 10.736C187.874 10.9072 187.757 11.0511 187.6 11.136L187.593 11.1552Z" fill="#2563EB"/>
<path d="M179.35 28.5412C179.359 28.3648 179.437 28.1989 179.567 28.0792C179.697 27.9595 179.868 27.8954 180.045 27.9007L191.574 28.2786C191.75 28.2861 191.916 28.363 192.036 28.4925C192.156 28.6221 192.22 28.7938 192.214 28.9703C192.204 29.1464 192.126 29.3117 191.996 29.4313C191.867 29.5508 191.695 29.6152 191.519 29.6108L179.99 29.2329C179.814 29.2254 179.648 29.1485 179.528 29.0189C179.408 28.8893 179.344 28.7176 179.35 28.5412Z" fill="#2563EB"/>
<path d="M176.646 40.3392L186.442 46.4237C186.569 46.5014 186.667 46.6191 186.72 46.7582C186.773 46.8974 186.778 47.0503 186.735 47.1928C186.692 47.3353 186.603 47.4594 186.481 47.5456C186.36 47.6319 186.213 47.6755 186.065 47.6695C185.951 47.6634 185.841 47.6281 185.744 47.567L175.948 41.4825C175.871 41.4372 175.803 41.3768 175.749 41.305C175.696 41.2331 175.657 41.1513 175.635 41.0642C175.613 40.9771 175.609 40.8866 175.623 40.7979C175.637 40.7093 175.669 40.6243 175.716 40.548C175.763 40.4717 175.825 40.4056 175.898 40.3537C175.972 40.3017 176.054 40.2649 176.142 40.2455C176.229 40.226 176.32 40.2243 176.408 40.2404C176.497 40.2565 176.581 40.2901 176.656 40.3392H176.646Z" fill="#2563EB"/>
<path d="M170.356 14.3612C168.408 10.9065 165.754 7.90112 162.567 5.54102C159.379 3.18091 155.73 1.51912 151.858 0.663932C147.985 -0.191254 143.975 -0.22063 140.09 0.577774C136.206 1.37618 132.533 2.9844 129.311 5.29759C126.09 7.61079 123.392 10.577 121.393 14.0029C119.395 17.4287 118.141 21.2373 117.714 25.1802C117.286 29.1231 117.694 33.1119 118.912 36.8864C120.129 40.661 122.129 44.1366 124.78 47.0865L117.459 61.9456L133.122 53.4369C138.525 56.1389 144.651 57.0364 150.602 55.9975C156.553 54.9586 162.013 52.0381 166.18 47.6653C170.348 43.2925 173.002 37.6981 173.754 31.7044C174.506 25.7108 173.315 19.6341 170.356 14.3677V14.3612Z" fill="#2563EB"/>
<path d="M117.457 62.7046C117.584 62.705 117.709 62.673 117.819 62.6117L133.14 54.2855C137.347 56.321 141.984 57.3084 146.655 57.1634C151.326 57.0184 155.893 55.7453 159.966 53.4529C160.06 53.4076 160.143 53.3436 160.211 53.2648C160.279 53.186 160.331 53.0941 160.362 52.9948C160.393 52.8955 160.404 52.7908 160.393 52.6872C160.382 52.5837 160.35 52.4834 160.299 52.3927C160.248 52.302 160.179 52.2227 160.096 52.1597C160.013 52.0967 159.918 52.0513 159.817 52.0264C159.716 52.0016 159.611 51.9977 159.508 52.015C159.405 52.0323 159.307 52.0704 159.22 52.1271C155.306 54.3329 150.911 55.5448 146.42 55.6564C141.928 55.7681 137.479 54.7761 133.46 52.7676C133.352 52.7109 133.231 52.6813 133.109 52.6813C132.987 52.6813 132.867 52.7109 132.758 52.7676L119.196 60.1331L125.46 47.4195C125.528 47.2833 125.553 47.1298 125.533 46.9791C125.512 46.8283 125.447 46.6872 125.345 46.5741C122.517 43.4297 120.453 39.6752 119.312 35.6028C118.172 31.5304 117.987 27.2499 118.771 23.0941C118.867 22.5946 118.975 22.095 119.091 21.6082C119.134 21.414 119.099 21.2107 118.994 21.0417C118.889 20.8728 118.722 20.7515 118.529 20.7038C118.336 20.6562 118.132 20.6859 117.96 20.7867C117.789 20.8874 117.664 21.0513 117.611 21.2431C117.486 21.7587 117.371 22.2839 117.272 22.8091C116.001 29.5143 117.135 36.4528 120.474 42.4046C121.437 44.1146 122.569 45.7239 123.853 47.2082L116.753 61.619C116.682 61.764 116.659 61.9276 116.688 62.0864C116.716 62.2453 116.794 62.3911 116.91 62.5028C116.983 62.5712 117.069 62.6243 117.163 62.6589C117.257 62.6936 117.357 62.7091 117.457 62.7046Z" fill="black"/>
<path d="M143.628 45.565H143.599C143.212 45.56 142.832 45.4616 142.491 45.2781C142.15 45.0947 141.859 44.8317 141.642 44.5114L130.571 28.208C130.394 27.9471 130.27 27.6538 130.206 27.3449C130.142 27.036 130.14 26.7175 130.199 26.4076C130.258 26.0978 130.378 25.8026 130.551 25.539C130.724 25.2753 130.948 25.0484 131.209 24.8712C131.469 24.6939 131.763 24.5698 132.072 24.5058C132.381 24.4419 132.699 24.4395 133.009 24.4987C133.319 24.5579 133.614 24.6775 133.878 24.8508C134.141 25.024 134.368 25.2475 134.545 25.5084L143.676 38.9585L160.719 15.0622C160.9 14.8002 161.131 14.5767 161.399 14.4049C161.667 14.2331 161.967 14.1163 162.281 14.0614C162.594 14.0065 162.916 14.0145 163.226 14.0849C163.537 14.1554 163.83 14.2869 164.09 14.4719C164.349 14.6568 164.569 14.8915 164.737 15.1623C164.904 15.433 165.017 15.7344 165.067 16.0489C165.117 16.3634 165.104 16.6847 165.029 16.9942C164.954 17.3036 164.818 17.5951 164.629 17.8515L145.584 44.5563C145.362 44.8682 145.069 45.1225 144.728 45.298C144.388 45.4735 144.01 45.5651 143.628 45.565Z" fill="white"/>
</g>
<defs>
<clipPath id="clip0_4155_70522">
<rect width="192" height="192" fill="white"/>
</clipPath>
<clipPath id="clip1_4155_70522">
<rect width="144" height="144" fill="white" transform="translate(24.3691 48)"/>
</clipPath>
<clipPath id="clip2_4155_70522">
<rect width="21.6" height="21.6" fill="white" transform="translate(55.3848 87.0869) rotate(-20.3684)"/>
</clipPath>
</defs>
</svg>
