<svg viewBox="0 0 192 192" fill="none" xmlns="http://www.w3.org/2000/svg">
<g clip-path="url(#clip0_3988_2039)">
<rect width="192" height="192" fill="white"/>
<path d="M118.555 151.64C118.555 151.64 120.045 153.753 122.316 153.859C123.677 153.924 124.941 153.264 126.067 151.898C127.451 150.195 128.347 149.868 128.836 149.891C129.56 149.923 130.22 150.814 130.778 151.64C130.778 151.64 132.269 153.753 134.539 153.859C135.9 153.924 137.165 153.264 138.291 151.898C139.131 150.874 139.975 150.366 140.792 150.38C142.056 150.408 143.021 151.654 143.039 151.677C143.193 151.883 143.422 152.02 143.676 152.057C143.931 152.094 144.189 152.029 144.396 151.875C144.602 151.721 144.739 151.492 144.776 151.238C144.813 150.983 144.748 150.725 144.594 150.518C144.534 150.435 143.071 148.497 140.852 148.442C139.403 148.405 138.037 149.153 136.791 150.666C136.09 151.524 135.37 151.944 134.664 151.926C133.607 151.894 132.643 150.897 132.38 150.541C131.743 149.619 130.677 148.036 128.923 147.953C127.539 147.888 126.113 148.774 124.558 150.666C123.857 151.524 123.137 151.944 122.431 151.926C121.374 151.894 120.405 150.897 120.147 150.541C119.51 149.619 118.444 148.036 116.69 147.953C115.306 147.888 113.88 148.774 112.325 150.666C111.624 151.524 110.904 151.944 110.198 151.926C109.141 151.894 108.172 150.897 107.914 150.541C107.277 149.619 106.211 148.031 104.457 147.948C103.073 147.884 101.647 148.769 100.092 150.661C100.007 150.759 99.9423 150.873 99.9019 150.996C99.8615 151.119 99.8462 151.249 99.8568 151.378C99.8674 151.507 99.9038 151.633 99.9638 151.747C100.024 151.862 100.106 151.964 100.206 152.046C100.306 152.128 100.422 152.19 100.546 152.227C100.67 152.264 100.8 152.276 100.929 152.261C101.058 152.247 101.182 152.207 101.295 152.144C101.408 152.081 101.507 151.996 101.587 151.894C102.971 150.191 103.871 149.863 104.356 149.886C105.085 149.919 105.74 150.809 106.303 151.635C106.303 151.635 107.789 153.749 110.059 153.855C111.444 153.919 112.69 153.259 113.811 151.894C115.195 150.191 116.095 149.863 116.58 149.886C117.336 149.923 117.996 150.809 118.555 151.64Z" fill="#EA4C99"/>
<path d="M29.9419 78.5691H23.0202V71.6474C23.0202 71.3904 22.918 71.1439 22.7363 70.9622C22.5546 70.7804 22.3081 70.6783 22.0511 70.6783C21.7941 70.6783 21.5476 70.7804 21.3659 70.9622C21.1842 71.1439 21.082 71.3904 21.082 71.6474V78.5691H14.1603C13.9033 78.5691 13.6568 78.6712 13.4751 78.853C13.2933 79.0347 13.1914 79.2812 13.1914 79.5382C13.1914 79.7952 13.2933 80.0417 13.4751 80.2234C13.6568 80.4051 13.9033 80.5072 14.1603 80.5072H21.082V87.429C21.082 87.686 21.1842 87.9324 21.3659 88.1142C21.5476 88.2959 21.7941 88.398 22.0511 88.398C22.3081 88.398 22.5546 88.2959 22.7363 88.1142C22.918 87.9324 23.0202 87.686 23.0202 87.429V80.5072H29.9419C30.1989 80.5072 30.4454 80.4051 30.6271 80.2234C30.8089 80.0417 30.911 79.7952 30.911 79.5382C30.911 79.2812 30.8089 79.0347 30.6271 78.853C30.4454 78.6712 30.1989 78.5691 29.9419 78.5691Z" fill="black"/>
<path d="M122.82 136.693C121.898 136.684 120.995 136.949 120.223 137.453C119.452 137.957 118.848 138.679 118.486 139.527C118.125 140.375 118.023 141.31 118.194 142.216C118.364 143.122 118.799 143.956 119.444 144.615C120.089 145.273 120.915 145.726 121.817 145.915C122.719 146.104 123.656 146.022 124.511 145.678C125.367 145.335 126.101 144.745 126.621 143.985C127.141 143.224 127.424 142.326 127.434 141.405C127.447 140.168 126.967 138.977 126.102 138.094C125.237 137.21 124.056 136.707 122.82 136.693ZM122.737 144.076C122.198 144.068 121.673 143.9 121.23 143.594C120.786 143.288 120.443 142.858 120.244 142.357C120.045 141.856 119.999 141.307 120.111 140.78C120.224 140.253 120.49 139.771 120.876 139.395C121.262 139.019 121.751 138.766 122.281 138.668C122.811 138.57 123.358 138.631 123.854 138.843C124.349 139.056 124.77 139.41 125.064 139.862C125.358 140.314 125.512 140.843 125.505 141.382C125.501 141.741 125.426 142.095 125.285 142.425C125.143 142.755 124.938 143.054 124.681 143.304C124.423 143.554 124.119 143.751 123.786 143.884C123.452 144.017 123.096 144.082 122.737 144.076Z" fill="#EA4C99"/>
<path d="M19.7545 114.705C19.5784 114.65 19.4191 114.551 19.291 114.418C19.1629 114.285 19.07 114.122 19.0208 113.944C18.8733 113.494 18.8733 113.009 19.0208 112.56C19.0208 112.56 19.0855 112.366 19.2009 112.001C19.2609 111.817 19.3346 111.595 19.4176 111.332C19.5007 111.069 19.616 110.764 19.736 110.409C20.4046 108.531 21.1907 106.697 22.0894 104.918C23.3653 102.393 24.8601 99.9838 26.5564 97.7193C27.4793 96.4826 28.4897 95.2459 29.5695 94.0646C30.6493 92.8833 31.7938 91.7343 32.9797 90.6545C35.2662 88.5888 37.7202 86.7165 40.3167 85.0571C42.501 83.6507 44.7696 82.3793 47.1093 81.2502C49.1351 80.2765 50.847 79.5705 52.0467 79.1044C52.6512 78.8737 53.1265 78.6937 53.4311 78.5784L53.9295 78.3984C54.0112 78.3696 54.0944 78.3449 54.1787 78.3246L54.497 78.2138C55.7968 77.7395 57.2256 77.7592 58.5117 78.2692C59.067 78.4841 59.5644 78.8253 59.9648 79.2658C60.3653 79.7063 60.6578 80.2341 60.819 80.8072C60.9693 81.3963 60.9818 82.0121 60.8557 82.6068L60.9803 82.5745C62.2385 82.2169 63.5872 82.3712 64.7321 83.0037C65.2378 83.283 65.6748 83.6714 66.0117 84.1407C66.3485 84.6101 66.5765 85.1485 66.6793 85.717C66.8274 86.5856 66.7084 87.4786 66.3379 88.278C65.9842 89.0615 65.4282 89.7368 64.7274 90.2346C65.2081 90.7682 65.5433 91.4166 65.701 92.1173C65.9009 93.0149 65.8354 93.9513 65.5119 94.8122C65.2218 95.615 64.6977 96.3126 64.0075 96.8149C64.4373 97.3299 64.752 97.9309 64.9304 98.5776C65.2272 99.6441 65.1674 100.778 64.7598 101.808C64.5962 102.253 64.34 102.659 64.0084 102.999C63.6767 103.338 63.277 103.604 62.8354 103.778C62.8354 103.778 62.4339 103.921 61.8433 104.152C61.2526 104.383 60.459 104.701 59.7161 105.043C58.9731 105.384 58.2256 105.749 57.6857 106.035L57.035 106.381L56.7951 106.515C56.74 106.547 56.6811 106.571 56.6198 106.588L56.4168 106.704L55.8444 107.036C55.383 107.331 54.6724 107.756 53.9018 108.3C53.0413 108.903 52.2141 109.551 51.4237 110.243C50.5645 111.001 49.7582 111.816 49.0103 112.684C48.2948 113.52 47.641 114.407 47.0539 115.337C46.5541 116.143 46.1071 116.98 45.7158 117.843C45.3697 118.605 45.1297 119.269 44.9589 119.735C44.8759 119.97 44.825 120.164 44.7789 120.289C44.7327 120.413 43.3945 124.326 43.3945 124.326C43.2561 124.788 41.0319 123.487 40.3397 123.307L19.7545 114.705Z" fill="white"/>
<path d="M40.8967 124.936C40.6014 124.802 40.1539 124.594 40.02 124.557L39.9324 124.534L19.3195 115.914C18.9601 115.792 18.6346 115.586 18.3693 115.314C18.104 115.042 17.9062 114.712 17.792 114.35C17.5589 113.641 17.5589 112.876 17.792 112.167L18.1888 110.926C18.2534 110.732 18.332 110.515 18.415 110.28L18.5164 109.994C19.2019 108.065 20.0096 106.181 20.9345 104.355C22.2423 101.763 23.7772 99.2924 25.5213 96.9718C26.5411 95.6151 27.5795 94.3507 28.6131 93.2202C29.716 92.0158 30.888 90.8391 32.1062 89.7316C34.4382 87.6065 36.9451 85.6816 39.6003 83.9773C41.8237 82.5369 44.1355 81.2377 46.522 80.0873C48.1971 79.2844 49.8904 78.5461 51.5563 77.9C52.1792 77.6601 52.6593 77.4801 52.9823 77.3648L53.4897 77.1802C53.5912 77.1433 53.6975 77.111 53.8036 77.0833L54.0573 76.9956C54.8325 76.7217 55.6485 76.5813 56.4707 76.5803C57.3384 76.5756 58.1985 76.7451 58.9996 77.0787C59.7353 77.372 60.393 77.8317 60.9214 78.4218C61.4497 79.0118 61.8343 79.7161 62.045 80.4795C62.1003 80.6827 62.1419 80.8892 62.1696 81.0979C63.2825 81.065 64.3833 81.3363 65.3536 81.8824C66.0222 82.2575 66.6001 82.7753 67.0459 83.3989C67.4918 84.0226 67.7947 84.7369 67.9332 85.4909C68.1185 86.618 67.9576 87.7749 67.4718 88.8087C67.2011 89.4047 66.8382 89.9544 66.3966 90.4376C66.6283 90.8746 66.8021 91.34 66.9134 91.822C67.1754 92.9661 67.0934 94.1621 66.678 95.2598C66.4402 95.8972 66.0918 96.4876 65.649 97.0041C65.8546 97.3928 66.0172 97.8028 66.1336 98.2269C66.508 99.5712 66.4302 101.001 65.9121 102.297C65.6792 102.91 65.3202 103.466 64.8583 103.931C64.3965 104.396 63.8421 104.759 63.2311 104.996L63.0188 105.07L62.2665 105.356C61.865 105.513 61.0621 105.818 60.2085 106.219C59.5624 106.51 58.8473 106.861 58.252 107.174L57.6153 107.511L57.3846 107.64C57.2969 107.693 57.2041 107.736 57.1076 107.77L56.4617 108.148C56.0002 108.443 55.3311 108.845 54.6159 109.357C53.7963 109.93 53.0076 110.546 52.2532 111.203C51.4346 111.921 50.6639 112.692 49.9459 113.51C49.2716 114.299 48.6548 115.134 48.1001 116.011C47.6298 116.768 47.2074 117.554 46.8357 118.365C46.5265 119.057 46.305 119.652 46.125 120.164C46.0835 120.275 46.0512 120.376 46.0189 120.478L45.9544 120.676C45.8622 120.963 44.81 124.045 44.5701 124.705C44.4717 125 44.2804 125.255 44.025 125.432C43.7697 125.609 43.4639 125.699 43.1533 125.688C42.6226 125.725 41.9442 125.429 40.8967 124.936ZM44.5376 117.308C44.9543 116.393 45.4291 115.505 45.9589 114.65C46.5796 113.666 47.2705 112.729 48.0262 111.844C48.8144 110.931 49.664 110.072 50.5689 109.274C51.3949 108.551 52.259 107.874 53.1576 107.244C53.9559 106.685 54.6526 106.252 55.1695 105.933L55.534 105.721L56.1246 105.384L56.217 105.356L57.0844 104.895C57.7305 104.558 58.4966 104.184 59.1842 103.875C60.1071 103.464 60.9469 103.123 61.3761 102.952C61.9298 102.735 62.2297 102.625 62.4143 102.56C62.6795 102.442 62.918 102.272 63.1155 102.059C63.313 101.847 63.4652 101.596 63.5632 101.323C63.8638 100.556 63.9061 99.7122 63.6833 98.9191C63.5598 98.4525 63.3343 98.0192 63.0233 97.6501L62.1004 96.5795L63.2448 95.7628C63.7255 95.4075 64.09 94.9177 64.2923 94.3553C64.5262 93.7302 64.5742 93.0507 64.4307 92.3988C64.3197 91.915 64.088 91.4673 63.757 91.0975L62.7789 90.0177L63.9692 89.1779C64.4814 88.8107 64.8887 88.316 65.1506 87.7428C65.4124 87.1798 65.4992 86.5513 65.3998 85.9385C65.3286 85.5565 65.1734 85.1951 64.9451 84.8806C64.7168 84.5661 64.4213 84.3064 64.0801 84.1204C63.5516 83.8186 62.9537 83.6596 62.3451 83.6589C61.9958 83.6608 61.6481 83.7089 61.3114 83.802L59.1517 84.3926L59.581 82.3253C59.6682 81.9277 59.6604 81.515 59.558 81.121C59.4486 80.7394 59.2513 80.3887 58.9821 80.0971C58.7128 79.8054 58.3789 79.5808 58.0073 79.4413C57.5229 79.2422 57.0036 79.1418 56.4799 79.146C55.9488 79.1486 55.4219 79.239 54.9203 79.4136L54.5327 79.552H54.4588L54.3667 79.5797L53.8683 79.7597C53.5591 79.8704 53.0976 80.0458 52.4839 80.2765C50.8827 80.8995 49.2538 81.6055 47.6387 82.3853C45.3445 83.4871 43.1221 84.7324 40.9846 86.1138C38.451 87.7409 36.0584 89.5777 33.8321 91.6051C32.6693 92.6618 31.5526 93.7831 30.5051 94.9322C29.5268 96.0027 28.5393 97.1979 27.5656 98.4899C25.9158 100.693 24.4627 103.037 23.2233 105.495C22.3415 107.225 21.5709 109.01 20.9161 110.838L20.8099 111.129C20.7361 111.341 20.6668 111.535 20.6114 111.706L20.2146 112.933C20.1576 113.108 20.1497 113.295 20.1917 113.473L40.7769 122.093C41.1881 122.238 41.5902 122.408 41.9812 122.601C42.1335 122.67 42.3366 122.767 42.5443 122.854C43.0057 121.47 43.5178 119.998 43.5501 119.897V119.874L43.587 119.754C43.6193 119.638 43.6702 119.481 43.7348 119.292C43.8871 118.9 44.1546 118.157 44.5376 117.317V117.308Z" fill="black"/>
<path d="M172.245 114.705C172.421 114.65 172.582 114.551 172.71 114.418C172.839 114.285 172.933 114.122 172.983 113.944C173.128 113.494 173.128 113.01 172.983 112.56C172.983 112.56 172.923 112.366 172.803 112.001C172.748 111.817 172.674 111.595 172.591 111.332C172.508 111.069 172.392 110.764 172.272 110.409C170.644 105.863 168.346 101.586 165.452 97.7193C164.529 96.4826 163.519 95.2459 162.439 94.0646C161.359 92.8833 160.21 91.7343 159.024 90.6545C156.745 88.5799 154.297 86.6984 151.706 85.0294C149.521 83.6239 147.252 82.3526 144.913 81.2224C142.887 80.2488 141.175 79.5428 139.971 79.0767C139.371 78.846 138.896 78.666 138.587 78.5507L138.093 78.3707C138.01 78.3413 137.925 78.3166 137.839 78.2969L137.525 78.1861C136.226 77.7118 134.797 77.7315 133.511 78.2415C132.664 78.5619 131.962 79.1771 131.533 79.9741C131.104 80.7711 130.977 81.6961 131.176 82.5791L131.047 82.5468C129.788 82.1892 128.44 82.3435 127.295 82.976C126.789 83.2553 126.352 83.6437 126.015 84.113C125.678 84.5823 125.45 85.1208 125.348 85.6893C125.202 86.5579 125.321 87.4503 125.689 88.2503C126.044 89.0342 126.602 89.7094 127.304 90.2069C126.823 90.7405 126.488 91.3889 126.33 92.0896C126.128 92.987 126.194 93.9241 126.52 94.7845C126.808 95.5881 127.333 96.2861 128.024 96.7872C127.591 97.2999 127.276 97.9017 127.101 98.5499C126.804 99.6164 126.864 100.751 127.272 101.78C127.435 102.226 127.691 102.632 128.023 102.971C128.355 103.311 128.754 103.576 129.196 103.75C129.196 103.75 129.593 103.893 130.188 104.124C130.783 104.355 131.573 104.673 132.311 105.015C133.049 105.356 133.806 105.721 134.346 106.007L134.992 106.353L135.232 106.487C135.287 106.518 135.346 106.543 135.407 106.561L135.615 106.676L136.187 107.008C136.648 107.304 137.355 107.728 138.13 108.273C138.989 108.876 139.816 109.525 140.608 110.215C141.464 110.974 142.269 111.79 143.017 112.656C143.734 113.491 144.387 114.378 144.973 115.31C145.474 116.115 145.923 116.952 146.316 117.815C146.662 118.577 146.902 119.241 147.068 119.707C147.156 119.943 147.207 120.137 147.248 120.261C147.29 120.386 148.632 124.299 148.632 124.299C148.771 124.76 151 123.459 151.692 123.279L172.245 114.705Z" fill="white"/>
<path d="M148.785 125.725C148.475 125.735 148.169 125.645 147.914 125.468C147.659 125.291 147.468 125.036 147.369 124.742C147.147 124.082 146.095 120.999 145.984 120.713L145.92 120.515C145.892 120.413 145.859 120.312 145.818 120.201C145.638 119.689 145.421 119.094 145.107 118.401C144.307 116.645 143.261 115.01 142.002 113.547C141.286 112.726 140.515 111.955 139.695 111.24C138.942 110.583 138.155 109.967 137.337 109.394C136.603 108.882 135.952 108.471 135.491 108.185L134.845 107.807C134.749 107.771 134.656 107.728 134.568 107.677L134.337 107.548L133.705 107.211C133.11 106.898 132.39 106.547 131.748 106.256C130.89 105.868 130.087 105.55 129.686 105.393L128.934 105.107L128.721 105.033C128.111 104.797 127.557 104.434 127.095 103.969C126.634 103.504 126.276 102.947 126.045 102.334C125.527 101.038 125.449 99.6081 125.823 98.2638C125.932 97.8407 126.087 97.4306 126.285 97.041C125.84 96.5257 125.492 95.9349 125.256 95.2967C124.841 94.1989 124.758 93.0036 125.016 91.8589C125.127 91.3762 125.302 90.9106 125.537 90.4745C125.093 89.9927 124.728 89.4427 124.457 88.8456C123.981 87.809 123.83 86.6522 124.024 85.5278C124.162 84.7736 124.464 84.0591 124.91 83.4353C125.356 82.8115 125.934 82.2939 126.603 81.9193C127.572 81.3731 128.671 81.1018 129.783 81.1348C129.81 80.9261 129.852 80.7196 129.907 80.5164C130.119 79.7534 130.504 79.0496 131.032 78.4597C131.56 77.8699 132.218 77.4099 132.953 77.1156C133.756 76.7825 134.617 76.613 135.486 76.6172C136.307 76.6179 137.121 76.7583 137.895 77.0325L138.149 77.1202C138.255 77.1479 138.361 77.1802 138.462 77.2171L138.975 77.4017C139.298 77.517 139.778 77.697 140.401 77.9369C142.066 78.583 143.76 79.3213 145.435 80.1242C147.821 81.2757 150.133 82.5748 152.357 84.0142C155.011 85.7197 157.518 87.6445 159.851 89.7685C161.064 90.876 162.241 92.0758 163.339 93.2571C164.373 94.3876 165.416 95.652 166.436 97.0087C168.178 99.3294 169.712 101.8 171.018 104.392C171.945 106.217 172.752 108.101 173.436 110.031L173.542 110.317C173.625 110.552 173.699 110.778 173.763 110.963L174.165 112.204C174.396 112.913 174.396 113.678 174.165 114.387C174.052 114.749 173.855 115.08 173.591 115.351C173.326 115.623 173.001 115.829 172.642 115.951L152.029 124.571L151.941 124.594C151.803 124.631 151.36 124.839 151.06 124.973C150.054 125.429 149.376 125.725 148.785 125.725ZM148.255 119.301C148.324 119.481 148.37 119.638 148.407 119.763C148.444 119.887 148.43 119.85 148.444 119.883V119.906C148.476 120.007 148.979 121.484 149.45 122.864L150.013 122.61C150.403 122.416 150.806 122.247 151.217 122.102L171.756 113.515C171.81 113.339 171.81 113.151 171.756 112.975L171.364 111.747C171.309 111.577 171.239 111.383 171.161 111.171L171.059 110.88C170.403 109.052 169.632 107.268 168.752 105.536C167.511 103.078 166.057 100.735 164.405 98.5314C163.436 97.2394 162.449 96.0442 161.47 94.9737C160.418 93.8247 159.301 92.7033 158.143 91.6466C155.916 89.6203 153.524 87.7835 150.991 86.1554C148.852 84.773 146.628 83.5276 144.332 82.4269C142.722 81.647 141.102 80.941 139.492 80.318L138.107 79.8012L137.604 79.6212L137.512 79.5935H137.438L137.05 79.4551C136.55 79.2805 136.025 79.1901 135.495 79.1875C134.972 79.1828 134.452 79.2832 133.968 79.4828C133.596 79.6207 133.261 79.8448 132.991 80.1367C132.722 80.4286 132.525 80.7801 132.417 81.1625C132.315 81.5565 132.307 81.9692 132.394 82.3669L132.824 84.4342L130.659 83.8435C130.323 83.7501 129.975 83.702 129.626 83.7005C129.019 83.7011 128.422 83.8601 127.895 84.1619C127.554 84.3471 127.258 84.6066 127.029 84.9212C126.801 85.2358 126.646 85.5976 126.576 85.98C126.474 86.5928 126.561 87.222 126.825 87.7843C127.085 88.3573 127.491 88.8521 128.001 89.2194L129.192 90.0592L128.214 91.139C127.882 91.5079 127.652 91.9562 127.545 92.4403C127.396 93.0918 127.445 93.7727 127.683 94.3969C127.884 94.9602 128.249 95.4504 128.731 95.8043L129.875 96.621L128.952 97.6916C128.641 98.0607 128.416 98.494 128.292 98.9606C128.064 99.7531 128.107 100.599 128.412 101.365C128.509 101.638 128.66 101.888 128.857 102.101C129.054 102.313 129.292 102.484 129.557 102.601C129.746 102.666 130.041 102.777 130.599 102.994C131.029 103.16 131.878 103.501 132.791 103.917C133.474 104.226 134.24 104.6 134.891 104.936L135.758 105.398L135.846 105.426L136.437 105.762L136.801 105.975C137.323 106.293 138.019 106.727 138.818 107.285C139.716 107.915 140.58 108.593 141.406 109.316C142.309 110.116 143.159 110.974 143.949 111.886C144.703 112.77 145.393 113.708 146.012 114.691C146.543 115.546 147.02 116.434 147.438 117.349C147.835 118.157 148.111 118.9 148.255 119.301Z" fill="black"/>
<path d="M152.697 42.1146L138.092 49.5901C137.943 49.6702 137.815 49.784 137.718 49.9223C137.623 50.0595 137.564 50.219 137.548 50.3855C137.531 50.552 137.558 50.7199 137.626 50.8729C137.676 50.9844 137.749 51.0844 137.84 51.1665C137.931 51.2485 138.038 51.311 138.154 51.35C138.27 51.389 138.393 51.4036 138.515 51.393C138.637 51.3823 138.755 51.3467 138.863 51.2882L153.468 43.8081C153.693 43.6929 153.866 43.4962 153.952 43.2579C154.038 43.0197 154.029 42.7577 153.929 42.5253C153.878 42.4148 153.805 42.3159 153.714 42.2347C153.624 42.1535 153.517 42.0918 153.402 42.0533C153.287 42.0148 153.164 42.0004 153.043 42.0109C152.922 42.0215 152.804 42.0567 152.697 42.1146Z" fill="#EA4C99"/>
<path d="M126.566 37.7216C126.67 37.7916 126.786 37.8399 126.909 37.8634C127.032 37.8869 127.158 37.8852 127.28 37.8585C127.403 37.8317 127.518 37.7804 127.62 37.7077C127.721 37.635 127.807 37.5424 127.872 37.4355L137.221 23.6659C137.306 23.5672 137.368 23.4517 137.405 23.3271C137.442 23.2025 137.452 23.0715 137.435 22.9427C137.418 22.8138 137.373 22.6901 137.305 22.5796C137.237 22.4691 137.146 22.3743 137.038 22.3013C136.93 22.2284 136.809 22.1791 136.681 22.1565C136.553 22.1339 136.421 22.1385 136.295 22.1702C136.169 22.2019 136.051 22.2598 135.949 22.3402C135.847 22.4207 135.763 22.5217 135.703 22.6368L126.363 36.3834C126.284 36.4828 126.226 36.5975 126.193 36.7202C126.161 36.843 126.154 36.9712 126.173 37.0968C126.192 37.2225 126.236 37.3428 126.304 37.4503C126.372 37.5578 126.461 37.6502 126.566 37.7216Z" fill="#EA4C99"/>
<path d="M111.268 31.3582L112.847 15.0275C112.861 14.9062 112.85 14.7834 112.815 14.6665C112.779 14.5496 112.721 14.4411 112.642 14.3478C112.563 14.2544 112.466 14.1781 112.357 14.1236C112.248 14.0691 112.129 14.0375 112.007 14.0308C111.837 14.0276 111.67 14.0684 111.521 14.1493C111.373 14.2302 111.247 14.3484 111.158 14.4922C111.064 14.6297 111.005 14.7882 110.987 14.9537L109.409 31.2613C109.394 31.3825 109.404 31.5055 109.439 31.6227C109.474 31.7398 109.532 31.8486 109.61 31.9424C109.688 32.0362 109.785 32.113 109.894 32.1681C110.003 32.2232 110.122 32.2553 110.244 32.2626C110.498 32.2697 110.744 32.1802 110.934 32.0123C111.125 31.8444 111.244 31.6107 111.268 31.3582Z" fill="#EA4C99"/>
<path d="M120.687 39.7012C114.471 36.1441 107.574 33.9372 100.447 33.2244C93.3206 32.5116 86.1235 33.309 79.3255 35.5644C72.5275 37.8199 66.2812 41.4829 60.9939 46.3145C55.7066 51.1461 51.4972 57.0378 48.6398 63.6056C45.7824 70.1733 44.3413 77.2696 44.4106 84.4316C44.4799 91.5937 46.0581 98.6607 49.042 105.172C52.0259 111.683 56.3487 117.492 61.7285 122.221C67.1083 126.949 73.4241 130.491 80.2644 132.614L82.6503 162.433L99.0777 134.746C109.963 133.946 120.304 129.673 128.58 122.556C136.855 115.439 142.627 105.854 145.046 95.2104C147.466 84.5672 146.405 73.4285 142.02 63.4333C137.635 53.4381 130.157 45.1145 120.687 39.6873V39.7012Z" fill="#EA4C99"/>
<path d="M82.651 163.527C82.5686 163.529 82.4861 163.52 82.4063 163.499C82.1796 163.447 81.9754 163.325 81.8234 163.149C81.6715 162.973 81.5797 162.753 81.5618 162.521L79.2316 133.449C71.7289 131.002 64.8793 126.885 59.1993 121.406C53.5193 115.927 49.157 109.231 46.4409 101.822C46.1133 100.922 45.8041 100.003 45.518 99.0898C45.4762 98.9522 45.4619 98.8078 45.4759 98.6647C45.4899 98.5216 45.5319 98.3827 45.5996 98.2558C45.6673 98.129 45.7594 98.0168 45.8704 97.9255C45.9815 97.8342 46.1096 97.7657 46.2472 97.7239C46.3847 97.6821 46.529 97.6678 46.6721 97.6818C46.8152 97.6958 46.9542 97.7379 47.0811 97.8056C47.2079 97.8733 47.3201 97.9653 47.4114 98.0764C47.5027 98.1874 47.5712 98.3154 47.613 98.453C47.8807 99.3251 48.176 100.206 48.4898 101.069C51.1334 108.28 55.4043 114.784 60.9705 120.076C66.5368 125.368 73.2483 129.305 80.5835 131.58C80.7919 131.646 80.9761 131.773 81.1125 131.944C81.2489 132.115 81.3314 132.322 81.3496 132.54L83.4585 158.921L98.1278 134.202C98.2183 134.051 98.3436 133.925 98.4928 133.832C98.6421 133.74 98.8113 133.685 98.9863 133.671C107.122 133.072 114.986 130.488 121.89 126.143C128.794 121.799 134.528 115.828 138.588 108.753C138.732 108.5 138.971 108.316 139.251 108.24C139.532 108.164 139.831 108.202 140.083 108.346C140.335 108.491 140.519 108.73 140.596 109.01C140.672 109.29 140.633 109.589 140.489 109.842C136.302 117.146 130.405 123.326 123.305 127.85C116.205 132.375 108.114 135.111 99.7246 135.821L83.5739 163.019C83.4756 163.175 83.3392 163.303 83.1778 163.392C83.0164 163.481 82.8352 163.527 82.651 163.527Z" fill="black"/>
<path d="M155.68 92.9249C148.675 90.7976 143.899 90.8853 136.876 91.8266C134.938 92.1727 133.249 93.8708 133.784 96.5795C134.282 99.0806 135.976 100.031 137.863 99.6666C142.75 98.8868 145.8 98.6699 150.784 100.128C148.564 106.778 150.036 114.678 155.772 117.719L155.68 92.9249Z" fill="white"/>
<path d="M155.757 118.937C155.559 118.937 155.364 118.888 155.189 118.794C152.208 117.211 150.049 114.295 149.103 110.575C148.345 107.413 148.397 104.11 149.255 100.973C145.328 99.9712 142.578 100.133 138.033 100.857C135.319 101.379 133.164 99.7958 132.574 96.8102C132.411 96.119 132.392 95.4018 132.516 94.7028C132.641 94.0037 132.907 93.3374 133.298 92.7448C133.687 92.1891 134.181 91.7161 134.754 91.3533C135.327 90.9905 135.966 90.7451 136.635 90.6314H136.69C143.852 89.6716 148.803 89.5839 156.006 91.7712C156.168 91.8078 156.321 91.8774 156.455 91.9757C156.589 92.074 156.701 92.1989 156.785 92.3426C156.869 92.4863 156.922 92.6456 156.941 92.8108C156.96 92.9759 156.945 93.1432 156.897 93.3022C156.848 93.4613 156.768 93.6086 156.66 93.7351C156.552 93.8616 156.419 93.9644 156.27 94.0373C156.121 94.1101 155.958 94.1514 155.792 94.1585C155.626 94.1655 155.46 94.1383 155.305 94.0784C148.494 92.0112 143.985 92.0896 137.041 93.0171C136.338 93.1388 135.712 93.5316 135.296 94.1107C135.09 94.4391 134.953 94.8062 134.893 95.1894C134.834 95.5727 134.853 95.9641 134.95 96.3395C135.283 98.0054 136.196 98.7437 137.613 98.4714C142.915 97.627 146.108 97.4978 151.11 98.9744C151.267 99.02 151.412 99.0967 151.538 99.2C151.664 99.3033 151.768 99.4309 151.843 99.5753C151.919 99.7197 151.964 99.8778 151.977 100.04C151.99 100.203 151.97 100.366 151.918 100.52C150.021 106.201 150.921 113.787 156.325 116.671C156.563 116.798 156.752 117.002 156.862 117.248C156.972 117.495 156.996 117.772 156.931 118.034C156.866 118.297 156.715 118.53 156.502 118.696C156.289 118.863 156.027 118.954 155.757 118.955V118.937Z" fill="black"/>
<path d="M176.097 113.035L176.181 113.229C176.231 113.349 176.305 113.529 176.397 113.764C176.49 113.999 176.61 114.271 176.743 114.604C176.877 114.936 177.025 115.314 177.205 115.73L177.74 117.114C177.925 117.612 178.128 118.148 178.34 118.724C178.802 119.873 179.217 121.161 179.724 122.568C182.041 129.405 184.004 136.356 185.608 143.394C186.494 147.224 187.26 151.081 187.883 154.727C188.229 156.54 188.46 158.317 188.713 159.992C188.838 160.832 188.958 161.653 189.074 162.442C189.189 163.231 189.258 164.002 189.346 164.749C189.512 166.226 189.669 167.578 189.807 168.778C189.946 169.978 189.996 171.039 190.066 171.902C190.204 173.637 190.283 174.629 190.283 174.629L158.027 176.793C158.027 176.793 157.963 175.977 157.847 174.541C157.787 173.826 157.727 172.959 157.635 171.957C157.543 170.956 157.39 169.835 157.247 168.607C157.178 167.989 157.109 167.352 157.026 166.688C156.943 166.023 156.827 165.34 156.721 164.639C156.509 163.254 156.324 161.745 156.024 160.213C155.503 157.149 154.857 153.887 154.105 150.643C152.744 144.706 151.079 138.842 149.116 133.076C148.71 131.917 148.346 130.842 147.995 129.924L147.534 128.627C147.382 128.24 147.243 127.88 147.119 127.557C146.994 127.234 146.879 126.943 146.782 126.708C146.685 126.472 146.602 126.246 146.532 126.103C146.463 125.96 146.417 125.808 146.385 125.739C146.352 125.669 146.334 125.623 146.334 125.623L176.097 113.035Z" fill="#EA4C99"/>
<path d="M157.898 178.496C157.985 178.503 158.073 178.503 158.161 178.496C158.614 178.458 159.034 178.243 159.329 177.898C159.625 177.552 159.772 177.104 159.739 176.65L159.559 174.398C159.536 174.135 159.513 173.859 159.49 173.559C159.448 173.037 159.407 172.442 159.347 171.796C159.345 171.784 159.345 171.771 159.347 171.759L158.959 168.404C158.931 168.178 158.908 167.943 158.88 167.721C158.834 167.315 158.788 166.895 158.733 166.466C158.735 166.454 158.735 166.441 158.733 166.429L158.433 164.38C158.368 163.974 158.313 163.573 158.253 163.162C158.101 162.115 157.944 161.03 157.727 159.9C157.173 156.67 156.518 153.439 155.789 150.251C154.412 144.255 152.73 138.333 150.75 132.508L150.39 131.479C150.118 130.704 149.864 129.975 149.61 129.315L149.149 128.023C149.149 128.023 149.149 128.023 149.149 128L148.733 126.929L148.581 126.541L175.197 115.31C175.326 115.617 175.465 115.968 175.613 116.362L176.148 117.746L176.739 119.343C177.062 120.197 177.389 121.133 177.735 122.112L178.1 123.154C180.405 129.929 182.363 136.816 183.965 143.79C184.814 147.482 185.575 151.261 186.217 155.031V155.064C186.461 156.365 186.651 157.671 186.835 158.931C186.904 159.392 186.969 159.826 187.034 160.269L187.389 162.687C187.454 163.197 187.513 163.7 187.569 164.196C187.596 164.45 187.624 164.708 187.656 164.957L188.118 168.963C188.192 169.752 188.247 170.485 188.303 171.136C188.303 171.459 188.349 171.768 188.372 172.059L188.589 174.777C188.606 175.002 188.668 175.222 188.771 175.423C188.874 175.625 189.016 175.804 189.188 175.951C189.36 176.097 189.559 176.209 189.774 176.279C189.989 176.348 190.216 176.375 190.441 176.357C190.667 176.339 190.887 176.277 191.088 176.174C191.289 176.072 191.468 175.93 191.615 175.758C191.762 175.586 191.874 175.387 191.943 175.172C192.013 174.957 192.04 174.73 192.022 174.505L191.805 171.782C191.805 171.496 191.759 171.191 191.736 170.859C191.68 170.195 191.62 169.442 191.547 168.621C191.547 168.621 191.547 168.593 191.547 168.584L191.085 164.556C191.057 164.302 191.03 164.053 190.997 163.799C190.942 163.287 190.882 162.765 190.813 162.235C190.813 162.235 190.813 162.235 190.813 162.198L190.453 159.752C190.388 159.314 190.324 158.875 190.259 158.428C190.07 157.136 189.876 155.802 189.618 154.427C188.958 150.601 188.192 146.762 187.31 143.015C185.681 135.919 183.69 128.912 181.344 122.019C181.215 121.655 181.095 121.309 180.979 120.972C180.624 119.961 180.292 119.006 179.955 118.12L179.36 116.523C179.362 116.516 179.362 116.508 179.36 116.5L178.824 115.116C178.658 114.696 178.511 114.313 178.363 113.962L177.712 112.38C177.625 112.171 177.497 111.981 177.337 111.821C177.176 111.662 176.985 111.535 176.776 111.45C176.566 111.364 176.341 111.32 176.115 111.322C175.889 111.323 175.664 111.369 175.456 111.457L145.642 124.013C145.432 124.1 145.242 124.228 145.082 124.389C144.922 124.55 144.795 124.741 144.71 124.951C144.624 125.161 144.581 125.386 144.582 125.613C144.584 125.84 144.63 126.065 144.719 126.274L144.769 126.389C144.797 126.454 144.843 126.565 144.899 126.708L145.148 127.321C145.24 127.543 145.346 127.815 145.475 128.143L145.886 129.204L146.347 130.487C146.587 131.105 146.809 131.816 147.095 132.568C147.215 132.9 147.335 133.246 147.46 133.597C149.42 139.313 151.085 145.125 152.448 151.012C153.163 154.122 153.805 157.311 154.349 160.49C154.349 160.49 154.349 160.518 154.349 160.527C154.552 161.579 154.704 162.631 154.852 163.647C154.912 164.067 154.972 164.477 155.032 164.883L155.336 166.909C155.383 167.315 155.429 167.707 155.475 168.095C155.475 168.33 155.526 168.556 155.553 168.792L155.936 172.123C155.992 172.737 156.033 173.309 156.075 173.812C156.099 174.12 156.122 174.406 156.144 174.671L156.324 176.918C156.356 177.325 156.532 177.708 156.82 177.997C157.108 178.286 157.49 178.463 157.898 178.496Z" fill="#EA4C99"/>
<path d="M174.039 173.069H174.118C174.218 173.066 174.317 173.044 174.409 173.002C174.5 172.961 174.582 172.902 174.651 172.829C174.72 172.755 174.773 172.669 174.808 172.575C174.843 172.481 174.86 172.381 174.856 172.28C174.856 172.105 174.708 167.823 173.292 159.964C171.99 152.733 169.319 141.003 163.966 126.163C163.89 125.983 163.747 125.838 163.568 125.76C163.388 125.681 163.186 125.674 163.001 125.74C162.817 125.806 162.665 125.941 162.577 126.115C162.488 126.29 162.47 126.492 162.526 126.68C167.842 141.419 170.495 153.066 171.787 160.236C173.172 167.984 173.324 172.285 173.329 172.331C173.335 172.52 173.411 172.7 173.542 172.837C173.673 172.973 173.851 173.056 174.039 173.069Z" fill="black"/>
<path d="M183.12 159.595C183.268 159.604 183.414 159.572 183.543 159.501C183.673 159.429 183.779 159.323 183.849 159.194C183.945 159.015 183.966 158.807 183.908 158.613C183.85 158.42 183.718 158.257 183.54 158.16C179.821 156.153 174.819 154.93 168.677 154.602C165.975 154.437 163.264 154.458 160.565 154.667C160.362 154.686 160.176 154.784 160.046 154.941C159.916 155.098 159.854 155.299 159.872 155.502C159.891 155.705 159.99 155.891 160.147 156.021C160.304 156.151 160.505 156.213 160.708 156.194C160.846 156.194 174.394 154.967 182.811 159.507C182.908 159.556 183.013 159.586 183.12 159.595Z" fill="black"/>
<path d="M160.14 153.181C160.286 153.191 160.432 153.159 160.56 153.089C160.667 153.029 171.487 147.182 181.224 148.516C181.324 148.529 181.425 148.523 181.523 148.498C181.62 148.472 181.711 148.428 181.791 148.367C181.871 148.306 181.939 148.23 181.989 148.143C182.04 148.056 182.073 147.96 182.087 147.86C182.101 147.761 182.095 147.659 182.069 147.562C182.043 147.465 181.999 147.373 181.938 147.293C181.877 147.213 181.801 147.146 181.714 147.095C181.627 147.044 181.531 147.011 181.432 146.998C171.178 145.613 160.283 151.492 159.822 151.746C159.677 151.826 159.562 151.95 159.494 152.101C159.426 152.252 159.408 152.421 159.444 152.583C159.48 152.744 159.567 152.89 159.693 152.998C159.818 153.106 159.975 153.17 160.14 153.181Z" fill="black"/>
<path d="M55.1516 91.8266C48.1283 90.9037 43.3524 90.7975 36.343 92.9248L36.2461 117.728C41.9819 114.687 43.4492 106.787 41.2297 100.137C46.2225 98.6699 49.2773 98.8867 54.1503 99.6758C56.0422 100.04 57.7356 99.0898 58.2294 96.5887C58.7739 93.8708 57.085 92.1726 55.1516 91.8266Z" fill="white"/>
<path d="M36.2468 118.937C35.9765 118.936 35.7143 118.845 35.5017 118.678C35.2891 118.511 35.1381 118.278 35.0729 118.016C35.0077 117.754 35.032 117.477 35.1419 117.23C35.2517 116.983 35.4408 116.78 35.6792 116.653C41.0828 113.787 41.978 106.201 40.0815 100.502C40.0296 100.347 40.0092 100.184 40.022 100.022C40.0348 99.8594 40.0804 99.7012 40.1558 99.5569C40.2313 99.4125 40.3349 99.2848 40.4609 99.1816C40.5869 99.0783 40.7326 99.0016 40.889 98.956C45.8957 97.4794 49.0889 97.6086 54.3495 98.4484C55.803 98.7253 56.7213 97.9869 57.0535 96.3211C57.15 95.9453 57.1686 95.5538 57.1083 95.1705C57.0479 94.7872 56.9099 94.4203 56.7027 94.0923C56.2889 93.5134 55.6643 93.1206 54.9632 92.9987C48.0184 92.0758 43.51 91.9927 36.699 94.06C36.5443 94.1186 36.3791 94.1449 36.2139 94.1371C36.0487 94.1294 35.8868 94.0878 35.7383 94.015C35.5897 93.9422 35.4578 93.8397 35.3505 93.7138C35.2432 93.5879 35.163 93.4414 35.1146 93.2832C35.0662 93.125 35.0506 92.9586 35.0691 92.7943C35.0876 92.6299 35.1397 92.4711 35.2221 92.3276C35.3044 92.1841 35.4153 92.0591 35.5479 91.9602C35.6805 91.8614 35.8319 91.7907 35.9929 91.7528C43.1961 89.5655 48.1521 89.6532 55.3138 90.613H55.3693C56.0375 90.7272 56.6764 90.9728 57.2491 91.3355C57.8217 91.6983 58.3168 92.1711 58.7055 92.7264C59.0945 93.32 59.3593 93.9863 59.4838 94.685C59.6083 95.3837 59.5899 96.1004 59.4299 96.7918C58.8347 99.7774 56.6613 101.36 53.9295 100.829C49.4211 100.114 46.6755 99.9527 42.7486 100.954C43.6054 104.092 43.6561 107.395 42.8961 110.557C41.9732 114.276 39.7953 117.192 36.8144 118.775C36.6413 118.875 36.4464 118.93 36.2468 118.937Z" fill="black"/>
<path d="M15.901 113.035L15.8226 113.229L15.6011 113.764L15.2598 114.604C15.1214 114.941 14.9737 115.314 14.7983 115.73L14.263 117.114C14.0784 117.612 13.8801 118.148 13.6632 118.724C13.2294 119.873 12.7911 121.161 12.2788 122.568C9.96101 129.405 7.9956 136.356 6.39063 143.394C5.50465 147.224 4.73856 151.081 4.1156 154.727C3.77413 156.54 3.54349 158.317 3.28508 159.992C3.16049 160.832 3.04512 161.653 2.92976 162.442C2.81439 163.231 2.74525 164.002 2.65757 164.749C2.48684 166.226 2.33456 167.578 2.19612 168.778C2.05769 169.978 2.01152 171.039 1.93768 171.902C1.79925 173.637 1.7207 174.629 1.7207 174.629L33.9807 176.793C33.9807 176.793 34.0454 175.977 34.1608 174.541C34.2207 173.826 34.2806 172.959 34.3683 171.957C34.4559 170.956 34.613 169.835 34.756 168.607C34.8299 167.989 34.8945 167.352 34.9775 166.688C35.0606 166.023 35.1758 165.34 35.2819 164.639C35.4988 163.254 35.6835 161.745 35.9788 160.213C36.5003 157.149 37.1508 153.887 37.8983 150.643C39.2614 144.706 40.9263 138.843 42.8866 133.076C43.2973 131.917 43.6573 130.842 44.008 129.924C44.1834 129.462 44.3403 129.029 44.4695 128.627C44.5987 128.226 44.7649 127.88 44.8895 127.557C45.0141 127.234 45.1247 126.943 45.2216 126.708C45.3185 126.472 45.4062 126.246 45.4708 126.103C45.5354 125.96 45.5908 125.808 45.6231 125.739L45.6693 125.623L15.901 113.035Z" fill="#EA4C99"/>
<path d="M34.1005 178.496C34.0145 178.503 33.9282 178.503 33.8422 178.496C33.6174 178.479 33.3982 178.417 33.1972 178.315C32.9961 178.212 32.8172 178.072 32.6706 177.9C32.524 177.729 32.4128 177.53 32.343 177.316C32.2732 177.101 32.2462 176.875 32.2639 176.65L32.4439 174.398C32.467 174.135 32.4901 173.859 32.5086 173.559C32.5501 173.037 32.5962 172.442 32.6562 171.796C32.6536 171.784 32.6536 171.771 32.6562 171.759L33.0392 168.404C33.0669 168.178 33.0946 167.943 33.1176 167.721C33.1638 167.315 33.2101 166.895 33.2654 166.466C33.2654 166.466 33.2654 166.443 33.2654 166.429L33.5698 164.38L33.7499 163.162C33.9021 162.115 34.0591 161.03 34.276 159.9C34.8297 156.67 35.4802 153.439 36.2139 150.251C37.5834 144.251 39.2607 138.326 41.2392 132.499C41.3684 132.139 41.4837 131.802 41.599 131.47C41.8713 130.695 42.1253 129.965 42.3791 129.306L42.8405 128.013V127.99L43.2558 126.92C43.305 126.781 43.3558 126.652 43.4081 126.532L16.7869 115.301C16.6576 115.614 16.5239 115.965 16.3716 116.353L15.841 117.737L15.2457 119.334C14.9227 120.187 14.5951 121.124 14.2536 122.102L13.8845 123.145C11.5805 129.919 9.62438 136.807 8.02404 143.781C7.17036 147.473 6.41352 151.252 5.76749 155.022V155.054C5.5183 156.356 5.32907 157.662 5.14449 158.921C5.07988 159.383 5.01542 159.817 4.94621 160.26L4.59088 162.678C4.52628 163.19 4.47096 163.693 4.41558 164.187C4.38328 164.44 4.3554 164.699 4.32771 164.948L3.86626 168.953C3.79704 169.742 3.73722 170.476 3.68646 171.127C3.65877 171.45 3.63563 171.759 3.61255 172.05L3.3958 174.768C3.37792 174.993 3.31562 175.213 3.21284 175.414C3.11006 175.616 2.96872 175.795 2.79668 175.942C2.62464 176.088 2.42529 176.2 2.21018 176.269C1.99507 176.339 1.76844 176.366 1.54301 176.348C1.31759 176.33 1.09778 176.268 0.896354 176.165C0.694928 176.062 0.515871 175.921 0.369112 175.749C0.222352 175.577 0.110801 175.378 0.0410497 175.163C-0.0287014 174.947 -0.0554626 174.721 -0.037586 174.495L0.179394 171.773C0.202467 171.487 0.225612 171.182 0.253299 170.85C0.304058 170.185 0.363893 169.433 0.44234 168.612C0.43972 168.6 0.43972 168.587 0.44234 168.575L0.90379 164.546C0.936091 164.293 0.963751 164.043 0.991438 163.79C1.05143 163.277 1.1116 162.756 1.1762 162.225C1.17845 162.213 1.17845 162.201 1.1762 162.188L1.53603 159.743C1.60525 159.304 1.6652 158.866 1.7298 158.418C1.919 157.126 2.11276 155.793 2.37579 154.418C3.03105 150.592 3.80167 146.753 4.68304 143.006C6.31382 135.91 8.30701 128.902 10.6544 122.01C10.779 121.645 10.8988 121.299 11.0187 120.963C11.374 119.952 11.7064 118.997 12.0432 118.111L12.6338 116.514V116.491L13.1739 115.107C13.3354 114.687 13.4831 114.304 13.6353 113.953L14.2858 112.37C14.3731 112.161 14.5009 111.972 14.6617 111.812C14.8224 111.653 15.0131 111.526 15.2227 111.441C15.4323 111.355 15.6566 111.311 15.8831 111.312C16.1096 111.314 16.3337 111.36 16.5424 111.447L46.3566 124.013C46.5636 124.098 46.7516 124.224 46.91 124.382C47.0683 124.541 47.1939 124.729 47.2795 124.936C47.3663 125.145 47.4111 125.369 47.4111 125.595C47.4111 125.822 47.3663 126.046 47.2795 126.255L47.2288 126.371C47.2011 126.435 47.1597 126.546 47.0997 126.689L46.8505 127.303C46.7582 127.524 46.652 127.797 46.5274 128.124L46.1121 129.186L45.6507 130.468C45.4153 131.087 45.1661 131.797 44.9031 132.55C44.7877 132.882 44.6678 133.228 44.5432 133.579C42.603 139.283 40.9566 145.084 39.6104 150.957C38.8905 154.067 38.2537 157.256 37.7091 160.435C37.7091 160.435 37.7091 160.463 37.7091 160.472C37.5061 161.524 37.3537 162.576 37.206 163.591C37.146 164.011 37.0862 164.422 37.0262 164.828L36.7263 166.854C36.6755 167.26 36.6293 167.652 36.5877 168.04C36.56 168.275 36.537 168.501 36.5093 168.736L36.1263 172.068C36.0709 172.682 36.0249 173.254 35.9879 173.757C35.9603 174.066 35.9418 174.352 35.9188 174.615L35.7387 176.863C35.7174 177.29 35.5378 177.694 35.2349 177.996C34.9321 178.298 34.5277 178.476 34.1005 178.496Z" fill="#EA4C99"/>
<path d="M17.9644 173.069H17.886C17.7854 173.066 17.6863 173.044 17.5945 173.002C17.5027 172.961 17.4199 172.902 17.3509 172.829C17.2819 172.756 17.2282 172.669 17.1925 172.575C17.1568 172.481 17.1399 172.381 17.1429 172.28C17.1429 172.105 17.2953 167.823 18.7073 159.964C20.0086 152.733 22.685 141.003 28.0332 126.163C28.0629 126.063 28.1126 125.971 28.1794 125.891C28.2462 125.811 28.3287 125.745 28.4216 125.698C28.5146 125.651 28.616 125.624 28.72 125.617C28.8239 125.611 28.9281 125.626 29.0262 125.661C29.1242 125.696 29.2141 125.751 29.2902 125.822C29.3664 125.893 29.4271 125.979 29.4689 126.074C29.5107 126.17 29.5327 126.272 29.5334 126.377C29.534 126.481 29.5135 126.584 29.473 126.68C24.1617 141.419 21.5037 153.066 20.2163 160.237C18.8319 167.984 18.6751 172.285 18.6751 172.331C18.6677 172.52 18.5911 172.699 18.4601 172.836C18.3291 172.972 18.1528 173.055 17.9644 173.069Z" fill="black"/>
<path d="M8.87758 159.595C8.73104 159.605 8.58468 159.572 8.45623 159.501C8.32779 159.43 8.22253 159.323 8.15296 159.194C8.10507 159.105 8.07563 159.007 8.06599 158.907C8.05634 158.806 8.06676 158.705 8.09685 158.609C8.12695 158.512 8.17593 158.423 8.24106 158.346C8.30618 158.269 8.38613 158.206 8.47606 158.16C12.1953 156.153 17.1929 154.93 23.3348 154.602C26.0372 154.437 28.7476 154.458 31.4469 154.667C31.5472 154.676 31.6447 154.705 31.7338 154.752C31.8228 154.799 31.9018 154.864 31.9661 154.941C32.0303 155.019 32.0788 155.108 32.1085 155.204C32.1382 155.301 32.1485 155.402 32.1391 155.502C32.1297 155.602 32.1008 155.7 32.0537 155.789C32.0067 155.878 31.9425 155.957 31.8649 156.021C31.7873 156.085 31.698 156.134 31.6017 156.163C31.5055 156.193 31.4044 156.204 31.3041 156.194C31.1703 156.194 17.6173 154.967 9.20046 159.507C9.09999 159.559 8.99015 159.588 8.87758 159.595Z" fill="black"/>
<path d="M31.8627 153.181C31.7167 153.191 31.5708 153.159 31.4427 153.089C31.3319 153.029 20.5155 147.182 10.7743 148.516C10.573 148.543 10.369 148.49 10.2072 148.367C10.0454 148.244 9.9389 148.062 9.91137 147.86C9.88383 147.659 9.93742 147.455 10.0603 147.293C10.1832 147.131 10.3653 147.025 10.5666 146.998C20.82 145.613 31.7195 151.492 32.1763 151.746C32.3211 151.825 32.4363 151.95 32.5046 152.1C32.5729 152.251 32.5908 152.419 32.5555 152.581C32.5202 152.742 32.4337 152.888 32.3088 152.996C32.1839 153.104 32.0275 153.169 31.8627 153.181Z" fill="black"/>
<path d="M100.014 101.092H88.9161L87.0703 49.3963H101.846L100.014 101.092Z" fill="white"/>
<path d="M101.454 120.104L88.127 120.99L89.3083 107.664L100.268 108.259L101.454 120.104Z" fill="white"/>
<path d="M34.1004 76.7002C34.0652 76.7046 34.0295 76.7046 33.9943 76.7002C33.8982 76.6866 33.8059 76.6543 33.7223 76.6049C33.6388 76.5556 33.5657 76.4903 33.5074 76.4127C33.4491 76.3351 33.4067 76.2468 33.3825 76.1529C33.3584 76.0589 33.3531 75.9611 33.3668 75.865C35.4219 61.4602 42.38 48.2042 53.0685 38.331C63.757 28.4579 77.5225 22.5712 92.0448 21.6631C92.1418 21.6569 92.239 21.6698 92.3309 21.7013C92.4229 21.7327 92.5079 21.782 92.5808 21.8463C92.6537 21.9106 92.713 21.9887 92.7557 22.076C92.7983 22.1634 92.8232 22.2583 92.8291 22.3553C92.8405 22.5509 92.7742 22.7431 92.6446 22.89C92.5149 23.0369 92.3325 23.1267 92.1369 23.1398C77.9544 24.0248 64.5109 29.7723 54.0719 39.4136C43.6329 49.0549 36.8368 62.0004 34.8295 76.068C34.8041 76.2434 34.7164 76.4037 34.5826 76.5197C34.4487 76.6358 34.2776 76.6999 34.1004 76.7002Z" fill="black"/>
</g>
<defs>
<clipPath id="clip0_3988_2039">
<rect width="192" height="192" fill="white"/>
</clipPath>
</defs>
</svg>
