<svg width="260" height="260" viewBox="0 0 260 260" fill="none" xmlns="http://www.w3.org/2000/svg">
<rect width="260" height="260" fill="white"/>
<path d="M11.786 101.8C12.5791 102.211 13.4015 102.563 14.2463 102.853C14.0407 103.707 13.8851 104.572 13.7802 105.443C12.8903 105.243 12.0227 104.953 11.1904 104.58C11.3375 103.643 11.5363 102.715 11.786 101.8Z" fill="black"/>
<path d="M77.41 58.9579C77.2875 59.3816 77.1376 59.7968 76.9611 60.201C76.3081 59.8866 75.6818 59.5199 75.0879 59.1047C75.2433 58.7939 75.4074 58.4831 75.5886 58.1896C75.715 57.9882 75.909 57.8383 76.1358 57.7667C76.3625 57.6951 76.6071 57.7066 76.8262 57.799C77.0453 57.8914 77.2242 58.0587 77.3311 58.2711C77.4381 58.4834 77.4661 58.7269 77.41 58.9579Z" fill="black"/>
<path d="M90.4881 58.2928C90.4655 58.3866 90.4125 58.4703 90.3377 58.5311C90.2628 58.5919 90.1702 58.6265 90.0738 58.6295C89.953 58.6295 90.0737 58.6295 89.9874 58.6295C89.8938 58.679 89.7908 58.7084 89.6852 58.7158H89.5469C89.1757 58.6726 88.7959 58.6122 88.416 58.5345C88.211 58.4942 88.0093 58.4394 87.812 58.3705C88.4889 58.1256 89.1492 57.8373 89.7889 57.5073C89.9084 57.5364 90.0181 57.5959 90.1079 57.6799L90.2032 57.8008C90.295 57.8442 90.3711 57.9145 90.422 58.0024C90.4728 58.0903 90.4962 58.1916 90.4881 58.2928Z" fill="black"/>
<path d="M96.082 53.3811C95.8873 54.1011 95.5036 54.756 94.9709 55.2781C94.4382 55.8002 93.7756 56.1704 93.0518 56.3507C92.8876 56.3834 92.7181 56.3745 92.5582 56.3248C92.3984 56.275 92.2533 56.186 92.1367 56.0658C93.6068 54.9926 94.9178 53.7168 96.0302 52.2762C96.15 52.1294 96.262 51.9767 96.3665 51.8186C96.3388 52.3495 96.2434 52.8746 96.082 53.3811Z" fill="black"/>
<path d="M98.0673 53.6749C97.1992 54.8411 96.2126 55.9144 95.1235 56.8775C95.1992 55.54 95.7903 54.2838 96.7725 53.3727C96.8696 53.2856 96.9862 53.2232 97.1126 53.1908C97.239 53.1584 97.3716 53.157 97.4987 53.1867C97.6258 53.2163 97.7437 53.2762 97.8427 53.3612C97.9417 53.4462 98.0188 53.5538 98.0673 53.6749Z" fill="black"/>
<path d="M101.106 48.1326C100.804 48.9095 100.459 49.6605 100.087 50.4029C99.9924 50.3534 99.9003 50.2986 99.8114 50.2389C99.6705 50.1503 99.5542 50.0274 99.4737 49.8817C99.3933 49.736 99.3511 49.5723 99.3511 49.4059C99.3511 49.2395 99.3933 49.0757 99.4737 48.93C99.5542 48.7844 99.6705 48.6615 99.8114 48.5728C100.201 48.3234 100.645 48.1724 101.106 48.1326Z" fill="black"/>
<path d="M101.875 42.1678C101.283 42.5472 100.659 42.8736 100.01 43.1433C100.14 42.4667 100.235 41.7838 100.295 41.0974C100.791 41.0174 101.3 41.0803 101.762 41.2787C101.836 41.3231 101.899 41.3837 101.946 41.456C101.993 41.5283 102.023 41.6104 102.034 41.696C102.045 41.7816 102.036 41.8686 102.009 41.9504C101.981 42.0321 101.935 42.1065 101.875 42.1678Z" fill="black"/>
<path d="M76.9353 38.3955C76.8773 38.4875 76.7921 38.5594 76.6916 38.6011C76.5912 38.6429 76.4804 38.6524 76.3743 38.6286C75.9254 38.5509 75.6576 38.1365 75.3382 37.8516C75.2501 37.7694 75.1581 37.6916 75.0621 37.6186L74.432 37.1697C73.7624 36.671 73.0116 36.2914 72.2132 36.0475C71.5228 35.8803 70.8051 35.8602 70.1065 35.9883C69.4078 36.1165 68.7439 36.3901 68.1579 36.7914C67.5718 37.1927 67.0766 37.7127 66.7045 38.3177C66.3324 38.9227 66.0919 39.5992 65.9981 40.3032C65.9105 40.9996 65.9778 41.7067 66.1957 42.3738C66.4136 43.0409 66.7766 43.6516 67.2584 44.1619C67.7535 44.7262 68.3623 45.1793 69.0451 45.4913C69.7443 45.8107 70.7718 45.7503 71.2121 46.51C71.3067 46.6853 71.3425 46.8864 71.3145 47.0837C71.2865 47.281 71.1962 47.4641 71.0565 47.6063C70.3142 48.4695 68.6566 47.7617 67.7157 47.261L67.4915 47.1315C66.9836 46.8423 66.5114 46.4947 66.0845 46.0956C65.6858 45.7111 65.3217 45.2923 64.9966 44.8439C62.5104 41.3909 63.9175 36.3582 67.5863 34.3642C68.4896 33.8786 69.4897 33.6003 70.5141 33.5495C71.5384 33.4988 72.5611 33.6768 73.508 34.0707C74.5049 34.4148 75.3967 35.0093 76.0977 35.7971C76.442 36.1957 76.7244 36.6439 76.9353 37.1265C77.0285 37.3251 77.0769 37.5417 77.0769 37.761C77.0769 37.9803 77.0285 38.197 76.9353 38.3955Z" fill="black"/>
<path d="M97.8342 28.0623C97.558 28.5543 97.1954 29.0377 96.971 29.4176C96.3221 30.3905 95.5946 31.3086 94.7956 32.1627C93.3346 33.7342 91.6543 35.0862 89.8063 36.1767L89.3228 36.4616C88.7876 36.7637 88.2436 37.04 87.6911 37.3248C83.9689 39.1055 79.797 39.7251 75.7179 39.1031C75.5685 39.0668 75.4299 38.9954 75.3136 38.8947C75.1974 38.7941 75.1068 38.6672 75.0494 38.5246C74.992 38.3819 74.9694 38.2276 74.9836 38.0745C74.9978 37.9214 75.0485 37.7739 75.1311 37.6442C75.2041 37.4801 75.3262 37.3428 75.481 37.2515C75.6357 37.1602 75.8154 37.1194 75.9944 37.1349C76.331 37.1349 76.6588 37.1349 76.9955 37.1781C80.941 37.3073 84.8465 36.3519 88.2867 34.4157C90.1449 33.3575 91.8282 32.018 93.2765 30.4448C93.9931 29.6624 94.6399 28.819 95.21 27.9241C95.6761 27.2076 95.9436 26.3271 96.6515 25.9473C96.8358 25.8473 97.0383 25.7857 97.2471 25.766C97.4091 25.76 97.5694 25.7998 97.7099 25.8807C97.8504 25.9616 97.9656 26.0804 98.0416 26.2236C98.1692 26.5217 98.217 26.848 98.1807 27.1703C98.1444 27.4926 98.025 27.7999 97.8342 28.0623Z" fill="black"/>
<path d="M101.106 48.1326C100.804 48.9095 100.459 49.6605 100.087 50.4029C99.9924 50.3534 99.9003 50.2986 99.8114 50.2389C99.6705 50.1503 99.5542 50.0274 99.4737 49.8817C99.3933 49.736 99.3511 49.5723 99.3511 49.4059C99.3511 49.2395 99.3933 49.0757 99.4737 48.93C99.5542 48.7844 99.6705 48.6615 99.8114 48.5728C100.201 48.3234 100.645 48.1724 101.106 48.1326Z" fill="black"/>
<path d="M101.874 42.1674C101.283 42.5468 100.659 42.8732 100.01 43.1429C99.414 43.4522 98.8576 43.8319 98.3524 44.2737C97.3281 45.2131 96.6551 46.4738 96.4446 47.8476C96.272 49.1511 96.4964 50.4891 96.4446 51.7926C96.4169 52.3234 96.3211 52.8485 96.1597 53.355C95.9649 54.075 95.5813 54.73 95.0486 55.252C94.5159 55.7741 93.8533 56.1444 93.1295 56.3246C92.9653 56.3574 92.7958 56.3485 92.6359 56.2987C92.476 56.249 92.3314 56.1599 92.2148 56.0397C92.0563 55.9335 91.9335 55.7819 91.8624 55.6048C91.7913 55.4278 91.7751 55.2334 91.8161 55.047C91.8571 54.8607 91.9533 54.691 92.0922 54.5601C92.231 54.4292 92.4061 54.3432 92.5946 54.3132C94.0966 54.037 94.3902 52.276 94.3902 50.9984C94.3902 49.2029 94.2174 47.4764 94.9167 45.7671C95.5151 44.3341 96.498 43.0943 97.7568 42.1847C98.5217 41.6104 99.4073 41.2178 100.346 41.0366C100.843 40.9566 101.352 41.0194 101.814 41.2179C101.896 41.2647 101.965 41.331 102.015 41.4111C102.065 41.4911 102.094 41.5823 102.1 41.6764C102.106 41.7705 102.088 41.8646 102.049 41.9503C102.01 42.036 101.95 42.1106 101.874 42.1674Z" fill="black"/>
<path d="M89.8319 44.9907C89.7986 44.8563 89.7337 44.732 89.6423 44.6281C89.5635 44.5146 89.4601 44.4202 89.34 44.3519C89.1751 44.2553 88.9874 44.2046 88.7963 44.2051H88.5025L88.3474 44.2742C88.2935 44.2845 88.2427 44.3083 88.2003 44.3432L88.0882 44.4209L87.8639 44.5677L87.4235 44.8784C87.2979 44.9463 87.1913 45.0441 87.1128 45.1633C87.017 45.2688 86.9488 45.3963 86.9143 45.5345C86.8762 45.6788 86.8762 45.8305 86.9143 45.9748C86.9229 46.1187 86.9673 46.2582 87.0437 46.3805C87.1924 46.6251 87.4261 46.8064 87.7 46.8898H87.9933C88.1871 46.8894 88.3775 46.8388 88.5459 46.743L89.0033 46.4323L89.2364 46.2769L89.34 46.2078C89.4752 46.1322 89.5902 46.0257 89.6764 45.8971C89.7741 45.793 89.843 45.6649 89.8754 45.5259C89.9071 45.3467 89.8919 45.1624 89.8319 44.9907Z" fill="black"/>
<path d="M93.8205 38.8528C93.6059 38.5199 93.3339 38.2277 93.0175 37.9895C92.4258 37.4737 91.7665 37.0409 91.0579 36.7033C90.3732 36.3616 89.6524 36.0981 88.9087 35.9177C88.5197 35.8377 88.123 35.8 87.7259 35.8055C87.3692 35.7719 87.0093 35.8041 86.6641 35.9005L86.1031 35.9868C85.9876 36.019 85.8873 36.0916 85.8207 36.1914C85.7542 36.2912 85.7259 36.4116 85.7406 36.5306C85.7602 36.6491 85.8193 36.7574 85.9088 36.8375C85.9983 36.9175 86.1126 36.9646 86.2325 36.9709C86.5581 37.0234 86.8809 37.0925 87.1995 37.1781C87.5275 37.2471 87.8552 37.3507 88.1832 37.4543C88.8337 37.6299 89.469 37.858 90.0826 38.1363C90.6669 38.4318 91.2168 38.7908 91.7226 39.2067C91.9967 39.4669 92.2849 39.7119 92.5859 39.9404C92.8809 40.1275 93.2006 40.2727 93.5355 40.3721C93.6032 40.3889 93.6737 40.3903 93.7421 40.3762C93.8104 40.3621 93.8745 40.3328 93.9301 40.2906C93.9856 40.2483 94.031 40.1942 94.0628 40.1321C94.0946 40.07 94.112 40.0015 94.1138 39.9318C94.0957 39.555 93.9957 39.1868 93.8205 38.8528Z" fill="black"/>
<path d="M90.4887 58.2929C90.466 58.3867 90.4131 58.4704 90.3382 58.5313C90.2633 58.5921 90.1707 58.6266 90.0743 58.6296C89.9535 58.6296 90.0743 58.6296 89.9879 58.6296C89.8943 58.6791 89.7913 58.7085 89.6857 58.7159H89.5475C89.1763 58.6728 88.7964 58.6123 88.4166 58.5347C88.2115 58.4943 88.0098 58.4395 87.8125 58.3706C87.6715 58.3279 87.5353 58.27 87.4066 58.198C87.1218 58.0512 86.8283 57.939 86.5434 57.8182C86.4455 57.7886 86.3611 57.7259 86.3044 57.6409C86.2477 57.5558 86.2224 57.4537 86.2327 57.352C86.2454 57.249 86.2955 57.1543 86.3735 57.0859C86.4515 57.0174 86.5518 56.98 86.6555 56.9808C86.992 56.998 87.3294 56.998 87.6659 56.9808C88.0368 56.9803 88.406 57.0327 88.7622 57.1362C89.0902 57.2225 89.4095 57.3175 89.7203 57.4297C89.746 57.425 89.7721 57.425 89.7978 57.4297C89.9174 57.4589 90.0275 57.5183 90.1173 57.6024L90.2122 57.7232C90.3168 57.7718 90.4017 57.8551 90.452 57.9589C90.5023 58.0627 90.5153 58.1807 90.4887 58.2929Z" fill="black"/>
<path d="M77.4097 58.9579C77.2873 59.3816 77.1373 59.7968 76.9608 60.201C76.7536 60.6844 76.5207 61.1678 76.2877 61.6426C75.8992 62.5058 75.4936 63.2914 75.0792 64.0942C74.8202 64.6035 74.5525 65.0956 74.2762 65.5876C74 66.0797 73.5686 66.7961 73.206 67.3918C72.8435 67.9874 72.5842 68.4018 72.2648 68.8938C71.5138 70.0506 69.6754 68.9974 70.4005 67.8061C71.1947 66.4854 71.9541 65.1387 72.6964 63.7921C72.8259 63.5417 72.9642 63.2914 73.1024 63.0497C73.3354 62.6094 73.5772 62.1864 73.8016 61.703C74.0261 61.2196 74.1725 60.9779 74.3538 60.624C74.5955 60.1147 74.8287 59.6053 75.0876 59.1047C75.243 58.7939 75.4071 58.4831 75.5884 58.1896C75.7147 57.9882 75.9088 57.8383 76.1355 57.7667C76.3622 57.6951 76.6069 57.7066 76.8259 57.799C77.045 57.8914 77.2239 58.0587 77.3309 58.2711C77.4379 58.4834 77.4658 58.7269 77.4097 58.9579Z" fill="black"/>
<path d="M68.3721 46.3373C68.1492 46.6343 67.9415 46.9426 67.7504 47.261C65.8426 50.2996 65.2557 53.7957 65.247 57.3868C65.247 57.7148 65.247 58.0515 65.247 58.3795C65.247 59.1133 65.3074 59.8557 65.3592 60.5894C65.6651 63.3782 65.7862 66.1841 65.7217 68.9888C65.5404 71.9065 64.4616 75.0315 61.8632 76.5939C61.6549 76.7226 61.4386 76.8379 61.2158 76.9392C60.9131 77.0778 60.5982 77.1876 60.275 77.2673C57.6075 77.9665 55.0952 76.4817 53.2738 74.4531C52.0825 73.1237 51.0383 71.6476 49.9506 70.2319C49.1651 69.2046 48.3275 68.1946 47.5333 67.1673C47.0844 66.5803 46.67 65.9933 46.2384 65.3891C46.1696 65.2895 46.1225 65.1765 46.1002 65.0575C46.0779 64.9386 46.081 64.8162 46.109 64.6985C46.1513 64.527 46.2377 64.3696 46.3598 64.2419C46.4819 64.1143 46.6355 64.0209 46.8049 63.9711C46.9744 63.9213 47.1542 63.9169 47.3259 63.9581C47.4977 63.9994 47.6553 64.085 47.7837 64.2064C50.3734 67.1242 52.4105 70.5771 55.1642 73.3913C56.0753 74.4958 57.3772 75.2068 58.7989 75.3768C59.4854 75.3551 60.1566 75.1699 60.7572 74.8366C61.3577 74.5033 61.8703 74.0315 62.2518 73.4604C64.2373 70.793 63.624 66.9515 63.3477 63.8784C62.8298 57.9307 62.3638 51.1197 66.1103 46.0956C66.3347 45.7848 66.5849 45.4827 66.8526 45.1806C67.5863 44.3691 69.0109 45.4654 68.3721 46.3373Z" fill="black"/>
<path d="M83.608 111.822L81.6311 112.168C81.6311 111.71 81.6311 111.244 81.6311 110.787C81.588 107.938 81.4067 105.098 81.1822 102.266L81.001 100.005C81.2772 100.005 81.5535 100.005 81.8642 100.056C82.175 100.108 82.5288 100.056 82.8569 100.056C82.9777 100.825 83.0728 101.602 83.1591 102.37C83.4612 105.175 83.5994 107.99 83.6425 110.795C83.608 111.132 83.608 111.477 83.608 111.822Z" fill="black"/>
<path d="M77.9022 101.308C75.5283 103.138 73.275 105.107 70.9183 106.945C68.7084 108.672 66.4555 110.312 64.1506 111.918C59.5476 115.15 54.7631 118.116 49.8207 120.8C41.9479 125.03 32.5561 128.181 23.6992 125.255C19.8982 124.071 16.5473 121.758 14.0914 118.625C11.4484 114.861 10.3512 110.226 11.0266 105.676C11.0266 105.322 11.1129 104.977 11.1733 104.64C11.3235 103.68 11.5281 102.729 11.7862 101.792C13.9702 93.5823 19.6505 86.5469 25.1407 80.2107C28.4997 76.3554 32.0611 72.6814 35.8103 69.2044C38.5554 66.6664 42.3192 63.8954 46.1692 64.6637C46.8985 64.8137 47.5982 65.082 48.2409 65.4579C49.1042 65.9499 48.5344 67.4261 47.5935 67.1326H47.5505C42.371 65.2334 38.0548 70.2661 34.8177 73.4774C31.0081 77.2334 27.4143 81.2021 24.0533 85.3643C20.0047 90.4142 15.8438 96.3619 14.2899 102.836C14.0843 103.69 13.9287 104.554 13.8238 105.426C13.6466 106.835 13.6203 108.259 13.7458 109.673C14.4277 117.537 21.3685 122.544 28.7493 123.571C37.6493 124.788 46.1691 120.654 53.6535 116.286C57.7395 113.903 61.7075 111.342 65.5576 108.603C69.5219 105.929 73.2737 102.954 76.7798 99.7027C77.7207 98.7704 79.0417 100.436 77.9022 101.308Z" fill="black"/>
<path d="M61.7075 88.8689C60.1997 89.6746 58.6864 90.4601 57.1671 91.2255C52.6005 93.5045 47.9994 95.723 43.3552 97.8466C38.8066 100.081 34.1347 102.056 29.3621 103.76C29.2487 103.806 29.1271 103.83 29.0046 103.83C28.8821 103.829 28.7611 103.805 28.648 103.757C28.535 103.71 28.4321 103.641 28.3458 103.554C28.2595 103.467 28.1912 103.364 28.1447 103.25C28.0983 103.137 28.0748 103.016 28.0752 102.893C28.0756 102.771 28.1 102.649 28.1473 102.536C28.1946 102.423 28.2639 102.321 28.3509 102.234C28.4378 102.148 28.5406 102.08 28.6539 102.033C31.5113 100.618 34.5071 99.4436 37.4335 98.2091C40.3598 96.9747 43.0618 95.723 45.8501 94.4282C50.7274 92.1837 55.5441 89.8012 60.3005 87.3237C60.6579 87.9303 61.1369 88.4564 61.7075 88.8689Z" fill="black"/>
<path d="M73.1371 83.2405L72.8867 83.3268V83.1714L73.1371 83.2405Z" fill="black"/>
<path d="M68.6133 82.127L69.6924 82.3946C69.2348 82.6104 68.8293 82.8348 68.3372 83.0679C68.3024 82.898 68.3269 82.7213 68.4063 82.5672L68.6133 82.127Z" fill="black"/>
<path d="M75.7353 86.6158L73.4047 86.0029C73.2235 85.1396 73.0594 84.216 72.8867 83.3268V83.1714L73.1628 83.2405L75.114 83.7412C75.3125 84.708 75.5281 85.6576 75.7353 86.6158Z" fill="black"/>
<path d="M77.013 92.4772L74.5615 92.0024C74.3716 91.0874 74.2161 90.1551 74.0435 89.2487L76.4174 89.6976C76.6073 90.5608 76.8058 91.5017 76.9957 92.4081C77.0043 92.434 77.0043 92.4513 77.013 92.4772Z" fill="black"/>
<path d="M80.4918 90.4833L82.5807 90.8804C82.4099 91.7508 82.1496 92.6013 81.8039 93.4183L79.6631 92.9953C79.9055 92.4873 80.1017 91.9586 80.2498 91.4156C80.3486 91.1098 80.4295 90.7985 80.4918 90.4833Z" fill="black"/>
<path d="M113.718 118.15C110.576 118.15 107.443 118.09 104.3 118.047L90.5315 117.891C86.7246 117.831 82.9175 117.822 79.1019 117.77C78.0488 117.77 76.9957 117.77 75.9512 117.719C75.9512 117.123 75.9512 116.519 76.0203 115.932C76.1135 113.798 76.6426 111.707 77.5744 109.785C79.4563 106.186 83.0299 104.804 86.6296 104.502C88.5616 104.39 90.4987 104.39 92.4308 104.502L97.3164 104.692L99.2849 104.779C100.692 104.839 102.09 104.908 103.497 104.986C104.164 107.478 105.298 109.822 106.838 111.892C108.711 114.398 111.046 116.523 113.718 118.15Z" fill="#3B82F6"/>
<path d="M237.179 117.9V128.888L234.986 134.388C229.093 134.388 160.885 134.888 154.986 134.888C151.956 134.888 81.0072 136.388 77.9858 136.388C78.624 135.995 77.9858 115.388 77.9858 115.388C83.1658 113.894 99.0466 116.243 104.986 114.533L120.486 125.388C123.292 124.567 132.985 125.635 135.486 124.888L144.486 119.888C144.486 119.888 149.96 114.883 150.251 114.533C150.251 114.533 155.973 106.065 152.986 106.065H156.604C167.884 105.996 179.163 105.953 190.443 105.936L218.067 105.892C221.952 105.892 226.173 105.418 229.962 106.583C233.527 107.688 235.893 110.64 236.721 114.533C236.834 115.043 236.92 115.552 236.998 116.061C237.075 116.571 237.127 117.261 237.179 117.9Z" fill="#3B82F6"/>
<path d="M97.8261 92.2704C97.6966 92.7452 97.5841 93.2459 97.4805 93.7293C97.3021 94.6041 97.164 95.4673 97.0662 96.319C94.8045 95.8874 92.5431 95.4558 90.29 95.0242C90.5702 94.8186 90.8355 94.5936 91.0842 94.3508C91.571 93.8598 91.9968 93.312 92.3529 92.7193C92.6629 92.2 92.9259 91.654 93.1386 91.0878L94.4764 91.4417C94.7461 91.6285 95.0356 91.7849 95.3397 91.9079C95.8872 92.1274 96.485 92.1902 97.0662 92.0891C97.351 92.1668 97.5844 92.2273 97.8261 92.2704Z" fill="black"/>
<path d="M90.2035 92.3736C90.9171 92.506 91.6334 92.6441 92.3528 92.788C91.9966 93.3807 91.5708 93.9284 91.084 94.4195C90.8354 94.6622 90.5701 94.8872 90.2899 95.0928C89.4267 94.9374 88.5634 94.7648 87.7002 94.6008L86.5693 94.3763L85.706 94.2123H85.5248L84.1865 93.9533C84.6756 93.5353 85.085 93.0323 85.395 92.4686C85.5565 92.19 85.7006 91.9017 85.8266 91.6053L86.1634 91.6657L87.838 91.9851C87.5556 92.8408 87.1421 93.6475 86.6123 94.3763C86.999 94.3965 87.3865 94.3557 87.7605 94.2555C88.6911 93.9593 89.5061 93.3798 90.0914 92.598C90.1259 92.4427 90.1603 92.3736 90.2035 92.3736Z" fill="black"/>
<path d="M99.5351 96.8197L97.0659 96.3449C97.1638 95.4759 97.3019 94.6127 97.4803 93.7552L100.243 94.2904C101.917 94.5925 101.201 97.1305 99.5351 96.8197Z" fill="black"/>
<path d="M82.6155 85.6749C82.7881 86.5939 82.8662 87.5282 82.8486 88.4631C82.1494 88.2818 81.45 88.1092 80.7681 87.9193C80.765 86.9737 80.6491 86.0319 80.4229 85.1137L82.6155 85.6749Z" fill="black"/>
<path d="M88.6147 87.1942C88.5983 87.9023 88.5377 88.6086 88.4334 89.3091C88.4334 89.4904 88.3733 89.6803 88.3474 89.8616L88.0625 89.7925L86.4136 89.3696C86.5641 88.4801 86.6248 87.5778 86.5948 86.6762L87.2511 86.8489L88.6147 87.1942Z" fill="black"/>
<path d="M101.253 92.8226C100.093 92.7026 98.9398 92.5182 97.7999 92.2701C97.5582 92.2701 97.3251 92.1665 97.0833 92.1147C96.2201 91.9162 95.3569 91.6917 94.4936 91.4673L93.1558 91.1133L92.1543 90.8544L91.1616 90.5954C91.4919 89.7649 91.7097 88.8939 91.8091 88.0057L92.258 88.1265L93.0521 88.3251L93.8289 88.5236L94.6921 88.7481C95.1583 89.6113 95.7368 90.3796 96.7727 90.2156C96.9753 90.1903 97.1693 90.1177 97.3388 90.0038C97.5082 89.8898 97.6482 89.7376 97.7481 89.5595C98.007 89.6286 98.2748 89.7063 98.5337 89.7926C98.7927 89.8789 99.2245 90.0084 99.5698 90.1292C100.304 90.3623 101.037 90.6299 101.736 90.9321C102.686 91.3292 102.228 92.9262 101.253 92.8226Z" fill="black"/>
<path d="M142.956 73.7537C129.886 65.7082 112.414 69.1526 103.135 81.2898C101.835 82.9891 100.724 84.8241 99.8194 86.7627C99.3469 87.7519 98.9293 88.7663 98.5679 89.8013C98.3349 90.4747 98.1189 91.148 97.9462 91.8386C97.8969 91.9798 97.8568 92.1239 97.8257 92.2702C97.6962 92.745 97.5836 93.2457 97.48 93.7291C97.3016 94.6038 97.1635 95.4671 97.0657 96.3188C96.7211 99.1006 96.8055 101.919 97.3161 104.675C97.7391 106.956 98.477 109.167 99.5087 111.244C100.759 113.729 102.374 116.013 104.3 118.021C107.561 121.415 111.519 124.062 115.902 125.779C120.285 127.496 124.989 128.242 129.688 127.965C136.328 127.575 142.666 125.057 147.764 120.783C148.654 120.028 149.488 119.209 150.259 118.331C153.357 114.8 155.539 110.561 156.612 105.987C156.681 105.737 156.742 105.478 156.793 105.219C158.014 99.1873 157.339 92.9261 154.862 87.293C152.384 81.66 148.226 76.9309 142.956 73.7537ZM146.564 113.67C145.041 115.506 143.227 117.081 141.195 118.331C138.74 119.838 136.05 120.92 133.236 121.534C126.537 122.951 119.549 121.74 113.718 118.15C111.037 116.528 108.693 114.406 106.812 111.9C105.272 109.83 104.138 107.487 103.471 104.994C102.434 101.013 102.423 96.8337 103.439 92.8468C104.455 88.86 106.465 85.1957 109.281 82.1962C112.761 78.6956 117.203 76.3074 122.042 75.3346C126.882 74.3618 131.901 74.8481 136.464 76.7319C145.822 80.6423 152.21 89.9653 151.675 100.177C151.573 102.174 151.216 104.15 150.613 106.056C149.768 108.832 148.393 111.418 146.564 113.67Z" fill="black"/>
<path d="M74.5616 92.0028L70.5042 91.2L65.6097 90.2504C64.4551 90.0709 63.3329 89.7249 62.2777 89.2232C62.0877 89.1109 61.8891 88.9987 61.7078 88.8692C61.1407 88.4668 60.662 87.9527 60.3008 87.3586C59.902 86.7829 59.6742 86.1063 59.6437 85.4067C59.6131 84.7071 59.7809 84.0131 60.128 83.4049C61.4833 81.1173 64.3579 81.1173 66.6369 81.6784C67.3016 81.8252 67.9577 81.9806 68.6137 82.1446L68.4068 82.5848C68.3273 82.739 68.3028 82.9156 68.3376 83.0855C68.7865 82.8524 69.2007 82.628 69.6928 82.4122L70.2538 82.5503L72.8435 83.1891V83.3445C73.0162 84.2077 73.1803 85.1314 73.3616 86.0205C73.5428 86.9097 73.7327 87.9283 73.9226 88.8779L74.0006 89.2663C74.2164 90.1555 74.3458 91.0878 74.5616 92.0028Z" fill="black"/>
<path d="M82.8485 88.4635C82.8372 89.2759 82.7476 90.0854 82.5809 90.8806C82.41 91.7511 82.1497 92.6016 81.8041 93.4185L81.6401 93.7897C81.4844 94.1193 81.2994 94.4342 81.0875 94.7307C80.6711 95.3375 80.1066 95.8278 79.4474 96.155C79.0474 96.3441 78.6122 96.447 78.1698 96.4571C77.456 96.4458 76.7664 96.1968 76.2098 95.7497C75.6533 95.3026 75.2616 94.6828 75.0966 93.9883C74.8749 93.3389 74.696 92.6757 74.5613 92.0028C74.3714 91.0878 74.216 90.1555 74.0433 89.2491L73.9657 88.8606C73.7758 87.911 73.586 86.9528 73.4047 86.0033C73.2234 85.0537 73.0593 84.2164 72.8867 83.3272V83.1718C72.8867 83.1718 72.8867 83.1201 72.8867 83.0942C72.645 81.8079 74.5612 81.2554 74.8547 82.5503C74.9497 82.9474 75.0449 83.3531 75.1312 83.7416C75.3556 84.7084 75.5715 85.658 75.7786 86.6162C75.9858 87.5744 76.2362 88.6707 76.4606 89.698C76.6505 90.5612 76.849 91.5021 77.0389 92.4085C77.0389 92.4085 77.0389 92.4517 77.0389 92.4776C77.203 93.2631 77.436 94.5494 78.4978 94.2041C79.0371 93.9807 79.4655 93.5522 79.6889 93.0128C79.9313 92.5048 80.1279 91.9761 80.2761 91.4331C80.3749 91.1273 80.4554 90.816 80.5176 90.5008C80.7061 89.6506 80.799 88.7819 80.7941 87.911C80.791 86.9655 80.6748 86.0236 80.4485 85.1055C80.3376 84.6213 80.1934 84.1454 80.0169 83.6812C79.1536 81.4972 77.4275 79.3649 74.95 79.2441C72.7401 79.1232 71.3846 80.8325 70.2797 82.5244L69.7187 82.3863C69.2611 82.6021 68.8551 82.8266 68.3631 83.0596C68.3283 82.8898 68.3527 82.7131 68.4322 82.559L68.6396 82.1187C69.2265 80.7238 70.1311 79.4853 71.2812 78.5017C71.9605 77.987 72.7472 77.632 73.5826 77.4631C74.418 77.2942 75.2806 77.3158 76.1066 77.5263C76.4786 77.6129 76.8423 77.7313 77.1941 77.8802C77.7194 78.1068 78.2151 78.3967 78.6702 78.7434C80.3353 80.099 81.5637 81.9157 82.2011 83.966C82.3832 84.5319 82.53 85.1085 82.6412 85.6925C82.8038 86.6068 82.8735 87.5352 82.8485 88.4635Z" fill="black"/>
<path d="M88.6149 87.1943C88.5984 87.9023 88.5379 88.6087 88.4336 89.3092C88.4336 89.4905 88.3735 89.6804 88.3476 89.8617C88.2166 90.5365 88.0436 91.2025 87.8296 91.8558C87.5471 92.7114 87.1337 93.5181 86.6039 94.2469C86.5927 94.2718 86.5779 94.295 86.5604 94.316C86.221 94.7713 85.8268 95.183 85.3865 95.5418L85.0152 95.8094C83.4873 96.828 80.9497 97.5359 79.5167 96.2151L79.4475 96.1374C79.3417 95.9959 79.2767 95.8281 79.2595 95.6522C79.2424 95.4763 79.2736 95.2991 79.3502 95.1398C79.4267 94.9806 79.5457 94.8453 79.6937 94.7488C79.8417 94.6522 80.0132 94.5981 80.1898 94.5922C80.4808 94.6039 80.77 94.6444 81.0531 94.7131C81.2943 94.7645 81.5403 94.7906 81.7869 94.7908C82.2551 94.7729 82.7151 94.6644 83.142 94.4714C83.5035 94.3162 83.8409 94.1098 84.1435 93.8585C84.6326 93.4405 85.042 92.9375 85.352 92.3737C85.5135 92.0951 85.6576 91.8068 85.7836 91.5105C86.0585 90.8322 86.2582 90.1259 86.3792 89.4042C86.5297 88.5147 86.5904 87.6124 86.5604 86.7108C86.5604 86.2015 86.5087 85.6922 86.4483 85.2088C86.3387 84.0743 85.9944 82.9751 85.4371 81.9809C84.8798 80.9866 84.1217 80.1192 83.2112 79.4337C82.3494 78.8434 81.3292 78.5275 80.2847 78.5273C79.7193 78.5467 79.1578 78.6277 78.61 78.769C78.1364 78.8829 77.6543 78.958 77.1685 78.9935C77.1091 78.9939 77.0504 78.9808 76.9969 78.9551C76.9434 78.9293 76.8966 78.8917 76.8599 78.845C76.8232 78.7983 76.7977 78.7439 76.7853 78.6858C76.773 78.6277 76.7742 78.5676 76.7887 78.51C76.8811 78.2965 76.9968 78.0938 77.1339 77.9058C78.4029 76.1793 81.4501 76.4469 83.1766 77.1547C83.7943 77.4135 84.3748 77.7531 84.9031 78.1647C85.4415 78.558 85.921 79.026 86.3273 79.5546C87.9488 81.7608 88.7569 84.46 88.6149 87.1943Z" fill="black"/>
<path d="M93.9417 87.1941C93.9417 87.2632 93.9417 87.3323 93.9417 87.4013C93.9252 87.7715 93.8874 88.1404 93.8291 88.5063C93.7415 89.1351 93.603 89.7558 93.4148 90.3622C93.3371 90.6126 93.251 90.8629 93.156 91.0874C92.9434 91.6536 92.6803 92.1996 92.3703 92.7189C92.0142 93.3116 91.5884 93.8594 91.1016 94.3504C90.8529 94.5931 90.5876 94.8182 90.3075 95.0238C89.5626 95.578 88.6997 95.9531 87.7864 96.1201C86.86 96.3487 85.8823 96.2352 85.0327 95.8007C84.8113 95.6344 84.6605 95.391 84.61 95.1187C84.5645 94.9578 84.5728 94.7864 84.6336 94.6306C84.6943 94.4748 84.8039 94.3431 84.9463 94.2555C85.1148 94.1274 85.3219 94.0604 85.5335 94.0656C85.7825 94.0834 86.0303 94.1151 86.2758 94.1605H86.6041C86.9908 94.1806 87.3779 94.1398 87.7519 94.0396C88.6825 93.7435 89.4975 93.164 90.0828 92.3822C90.126 92.3822 90.1606 92.2786 90.2038 92.2268C90.5915 91.6935 90.9106 91.1134 91.1534 90.5004C91.4837 89.6699 91.7015 88.7989 91.8009 87.9106C91.8593 87.5134 91.8879 87.1123 91.8868 86.7107C91.9225 85.7042 91.7534 84.7009 91.3899 83.7616C91.0264 82.8224 90.4761 81.9667 89.7722 81.2464C88.8325 80.3562 87.6738 79.7307 86.414 79.4336C85.9169 79.294 85.4126 79.1816 84.9033 79.0969C84.3422 78.9933 84.4545 78.2337 84.9033 78.061H84.9898C87.1651 77.31 89.651 78.4668 91.2221 79.9947C91.2519 80.0129 91.2785 80.0363 91.3001 80.0638C91.8975 80.6627 92.4034 81.3462 92.8019 82.0924C93.6202 83.6645 94.0133 85.4233 93.9417 87.1941Z" fill="black"/>
<path d="M99.6039 90.1379C99.5561 90.2478 99.5014 90.3545 99.4399 90.4573C99.0921 91.0572 98.5717 91.5385 97.9465 91.8385C97.6767 91.9793 97.3847 92.0727 97.0833 92.1147C96.5021 92.2158 95.9043 92.153 95.3568 91.9335C95.0527 91.8105 94.7632 91.6541 94.4935 91.4673C94.082 91.1636 93.7182 90.7998 93.4145 90.3883C92.8954 89.7399 92.5109 88.9945 92.2836 88.1956C92.2421 87.9851 92.2747 87.7668 92.3755 87.5774C92.4763 87.388 92.6393 87.2392 92.837 87.156C93.0348 87.0729 93.2554 87.0605 93.4613 87.1209C93.6671 87.1813 93.8457 87.3109 93.9671 87.4878C94.2533 87.9008 94.5101 88.3335 94.7355 88.7826C95.2016 89.6459 95.7797 90.4141 96.8156 90.2501C97.0182 90.2248 97.2123 90.1523 97.3817 90.0383C97.5511 89.9244 97.6916 89.7722 97.7914 89.5941C98.1485 88.7411 98.167 87.7841 97.8432 86.918C97.2953 85.5692 96.3498 84.4191 95.1325 83.6204C94.4811 83.1502 93.7973 82.7261 93.0866 82.3515L92.8189 82.2134C92.1127 81.9635 91.4888 81.5246 91.0149 80.9444C90.9705 80.8736 90.9408 80.7946 90.928 80.712C90.9153 80.6295 90.9197 80.5452 90.9407 80.4643C90.9617 80.3835 90.9989 80.3078 91.0503 80.2419C91.1016 80.176 91.1659 80.1213 91.2391 80.0811C91.279 80.0565 91.3231 80.039 91.3689 80.0294C92.335 80.0134 93.2838 80.2838 94.0965 80.8063C94.9389 81.1886 95.7428 81.6511 96.4965 82.1875C98.0569 83.3299 99.2239 84.9285 99.837 86.7626C100.193 87.8763 100.109 89.0837 99.6039 90.1379Z" fill="black"/>
<path d="M101.97 82.9992C101.935 82.9799 101.904 82.9567 101.875 82.9301C100.847 81.9978 100.01 80.7979 99.0346 79.7966C98.0372 78.7932 96.9883 77.8424 95.8923 76.9479C93.7311 75.2105 91.3968 73.7005 88.9261 72.4418C86.475 71.1633 83.908 70.1198 81.2601 69.3254C79.9049 68.9284 78.5325 68.5658 77.1513 68.2896L76.616 68.1946C75.8577 68.1157 75.1053 67.9888 74.3631 67.8148C73.9734 67.7284 73.5982 67.5859 73.2494 67.3918L73.1458 67.3314C73.0137 67.2416 72.9094 67.1169 72.844 66.9713C72.7785 66.8256 72.7547 66.6647 72.7752 66.5063C72.7958 66.348 72.8598 66.1985 72.9603 66.0744C73.0608 65.9503 73.1937 65.8565 73.3443 65.8034C73.6555 65.6789 73.9853 65.606 74.3201 65.5876C75.4801 65.5402 76.6413 65.6476 77.773 65.907C79.2287 66.1259 80.67 66.4314 82.0892 66.822C84.9307 67.6079 87.6776 68.7021 90.2812 70.0851C92.3617 71.2046 94.3454 72.4952 96.2118 73.9438C96.7211 74.3236 97.2131 74.7207 97.6879 75.1264C97.8692 75.2732 98.0419 75.4199 98.2059 75.5753C99.0692 76.3436 99.9842 77.1464 100.796 78.001C101.738 78.9 102.605 79.8759 103.385 80.9188C103.515 81.1001 103.627 81.2813 103.731 81.454C103.838 81.6931 103.865 81.9603 103.809 82.2163C103.754 82.4723 103.617 82.7037 103.42 82.8766C103.223 83.0494 102.976 83.1546 102.715 83.1766C102.454 83.1987 102.193 83.1365 101.97 82.9992Z" fill="black"/>
<path d="M64.6085 83.474C64.5308 83.0424 64.4444 82.6107 64.3408 82.1964C64.1216 81.3118 63.833 80.4459 63.4776 79.6067C63.1515 78.7832 62.7557 77.989 62.2948 77.2327C61.8632 76.5508 61.2847 75.5063 60.4128 75.3854C60.2925 75.3853 60.1755 75.425 60.0803 75.4984C59.985 75.5719 59.9169 75.6748 59.8864 75.7911C59.7137 76.5508 60.4129 77.3968 60.7496 78.0528C61.0863 78.7089 61.4835 79.5203 61.7684 80.2886C62.0512 81.0593 62.2875 81.8463 62.4761 82.6453C62.571 83.0424 62.6574 83.4481 62.7265 83.8538C62.766 84.2862 62.8323 84.7158 62.925 85.14C62.9918 85.3565 63.1333 85.5424 63.3242 85.6645C63.515 85.7867 63.7428 85.8372 63.9674 85.8072C64.192 85.7772 64.3986 85.6685 64.5507 85.5006C64.7028 85.3326 64.7905 85.1162 64.7982 84.8897C64.7869 84.4123 64.7235 83.9375 64.6085 83.474Z" fill="black"/>
<path d="M77.6256 71.2846C77.3665 70.2483 77.023 69.2349 76.5984 68.2546C76.2013 67.3914 75.7354 66.1311 74.7513 65.7944C74.629 65.7648 74.4997 65.7832 74.3905 65.8458C74.2813 65.9084 74.2004 66.0105 74.1642 66.1311C73.8621 67.0461 74.4924 68.1683 74.7513 69.0316C75.0103 69.8948 75.3124 70.9048 75.5282 71.863C75.9477 73.8252 76.1275 75.8311 76.0635 77.8366C76.0203 79.2782 78.2646 79.2782 78.3164 77.8366C78.3983 75.6309 78.1655 73.4248 77.6256 71.2846Z" fill="black"/>
<path d="M75.4499 62.6351C75.4037 62.4414 75.3054 62.2641 75.1654 62.1225C75.0254 61.981 74.849 61.8806 74.6558 61.8323C72.8127 61.5647 71.0076 61.0809 69.2778 60.3906C68.4622 60.0511 67.6641 59.6708 66.8866 59.2512C66.4636 59.0354 66.0236 58.8109 65.6352 58.5865C65.2538 58.3065 64.8027 58.1363 64.3314 58.0944C64.2375 58.0979 64.1454 58.1224 64.0621 58.1661C63.9788 58.2098 63.9068 58.2716 63.8505 58.3469C63.7942 58.4223 63.7554 58.5092 63.7371 58.6015C63.7188 58.6937 63.7215 58.7889 63.7447 58.88C63.9108 59.3198 64.2133 59.6949 64.608 59.9504C65.0005 60.2935 65.4124 60.6134 65.8421 60.9086C66.6478 61.4568 67.5001 61.9333 68.3889 62.3329C70.1942 63.1738 72.1093 63.7551 74.0775 64.0594C74.32 64.1187 74.5752 64.0996 74.8063 64.005C75.0373 63.9104 75.2326 63.7451 75.3639 63.5328C75.4986 63.2534 75.5289 62.9351 75.4499 62.6351Z" fill="black"/>
<path d="M74.5186 42.2021L74.0697 41.641L73.2667 40.6569C72.9991 40.3375 72.7486 40.0095 72.4638 39.716C72.317 39.5606 72.1705 39.4052 72.0064 39.2584C71.9177 39.1681 71.8224 39.0845 71.7215 39.0081C71.6001 38.9466 71.4729 38.8974 71.3417 38.8613C71.259 38.8374 71.1714 38.8359 71.088 38.8572C71.0045 38.8784 70.9283 38.9216 70.8671 38.9822C70.8087 39.0448 70.7668 39.1211 70.7457 39.2041C70.7246 39.2871 70.7247 39.3741 70.7461 39.457C70.7558 39.5744 70.779 39.6902 70.8153 39.8023C70.8619 39.9028 70.9135 40.0007 70.9704 40.0958C71.0826 40.2857 71.2036 40.4583 71.3244 40.6396C71.5834 41.0281 71.8855 41.382 72.1877 41.7446C72.4898 42.1071 72.7057 42.392 72.9561 42.72C73.0942 42.8927 73.2148 43.074 73.3616 43.238L73.5774 43.4279C73.6663 43.504 73.7653 43.5679 73.8712 43.6178C73.9723 43.661 74.0804 43.6844 74.1903 43.6869C74.2782 43.6896 74.3661 43.6742 74.4478 43.6415C74.5295 43.6088 74.6035 43.5596 74.6653 43.497C74.7847 43.3666 74.8549 43.1987 74.8638 43.0222C74.8507 42.7163 74.7283 42.4252 74.5186 42.2021Z" fill="black"/>
<path d="M108.875 40.5792C108.961 43.1931 108.068 45.7448 106.372 47.7355C105.554 48.7065 104.527 49.4797 103.368 49.9972C102.461 50.377 101.097 50.8604 100.131 50.3943C100.515 49.6602 100.858 48.9051 101.158 48.1326C100.695 48.1714 100.25 48.3258 99.863 48.5815C99.7239 48.6705 99.6096 48.793 99.5304 48.9379C99.4512 49.0827 99.4094 49.2451 99.4094 49.4102C99.4094 49.5752 99.4512 49.7377 99.5304 49.8825C99.6096 50.0273 99.7239 50.1499 99.863 50.2389C99.9471 50.2989 100.037 50.3509 100.131 50.3943C99.5474 51.5436 98.8626 52.6385 98.0846 53.666C98.0282 53.551 97.9468 53.45 97.8465 53.3703C97.7462 53.2906 97.6294 53.2343 97.5046 53.2054C97.3798 53.1765 97.25 53.1757 97.1249 53.2031C96.9997 53.2305 96.8826 53.2854 96.7813 53.3638C95.8003 54.2784 95.212 55.5379 95.1408 56.8772C94.0794 57.8262 92.9222 58.6623 91.6879 59.372C88.2805 61.3828 84.2571 62.0825 80.3709 61.3402C79.2057 61.1015 78.0749 60.7187 77.0043 60.2007C77.1808 59.7966 77.3308 59.3813 77.4532 58.9576C77.5093 58.7266 77.4814 58.4831 77.3744 58.2708C77.2674 58.0584 77.0885 57.8911 76.8694 57.7987C76.6504 57.7063 76.4053 57.6948 76.1786 57.7664C75.9519 57.838 75.7582 57.9879 75.6319 58.1893C75.4506 58.4828 75.2779 58.7936 75.1311 59.0526C73.642 58.0402 72.4117 56.6918 71.5399 55.1162C71.4106 54.8873 71.3776 54.6163 71.448 54.3629C71.5185 54.1096 71.6865 53.8946 71.9155 53.7652C72.1444 53.6359 72.4154 53.6028 72.6687 53.6732C72.9221 53.7436 73.137 53.9118 73.2664 54.1408C74.2217 55.5027 75.4543 56.6471 76.8833 57.4988C78.5337 58.4642 80.3813 59.0434 82.2875 59.1929C84.1936 59.3424 86.109 59.0583 87.8897 58.362C88.087 58.4309 88.2891 58.4857 88.4941 58.526C88.8653 58.6037 89.2538 58.6641 89.625 58.7073H89.7628C89.8698 58.7008 89.9736 58.6682 90.0651 58.6123C90.1514 58.6123 90.0652 58.6123 90.1515 58.6123C90.2483 58.6108 90.3419 58.5768 90.417 58.5158C90.4922 58.4547 90.5445 58.3701 90.5658 58.2757C90.5671 58.1779 90.5411 58.0817 90.4908 57.9978C90.4405 57.914 90.3678 57.8458 90.2809 57.8009L90.186 57.68C90.0962 57.596 89.9861 57.5366 89.8665 57.5074C90.6799 57.0755 91.4644 56.591 92.2147 56.0571C92.3316 56.1763 92.4769 56.2635 92.6371 56.3103C92.7973 56.3572 92.9667 56.3622 93.1294 56.3247C93.8552 56.1488 94.5202 55.7799 95.0536 55.2572C95.587 54.7344 95.969 54.0773 96.1596 53.3552C96.3214 52.8547 96.4172 52.3353 96.4445 51.81C98.2991 49.2284 99.5418 46.2587 100.079 43.1258C100.731 42.8579 101.358 42.5315 101.952 42.1503C102.008 42.0891 102.05 42.0165 102.075 41.9374C102.1 41.8584 102.107 41.7748 102.096 41.6926C102.085 41.6105 102.057 41.5316 102.013 41.4615C101.968 41.3915 101.91 41.332 101.84 41.2871C101.377 41.0927 100.869 41.03 100.372 41.1058C100.801 36.6156 99.9475 32.0959 97.9118 28.0708C98.0986 27.801 98.2122 27.4872 98.241 27.1603C98.2698 26.8333 98.2131 26.5045 98.0762 26.2062C97.995 26.0656 97.8775 25.9491 97.7365 25.8687C97.5954 25.7883 97.4356 25.7469 97.2732 25.7487C97.0649 25.7645 96.8621 25.8232 96.6776 25.9214C95.9698 26.3185 95.7022 27.1903 95.2361 27.9068C94.6669 28.8 94.0229 29.6433 93.3111 30.4275C91.2303 32.6644 88.6878 34.4221 85.8601 35.5788C83.0325 36.7355 79.9872 37.2635 76.9352 37.1262C76.7299 36.6491 76.4566 36.2042 76.1238 35.8055C75.4245 35.0156 74.5322 34.4207 73.5341 34.079C72.586 33.6899 71.564 33.5145 70.5405 33.5652C69.517 33.6159 68.5172 33.8916 67.6123 34.3725C66.7202 34.8577 65.9387 35.5235 65.3181 36.3274C64.6974 37.1313 64.2508 38.0556 64.0072 39.0416C63.7636 40.0275 63.7283 41.0534 63.9031 42.0538C64.0779 43.0543 64.4591 44.0073 65.0226 44.8523C65.3455 45.3024 65.7094 45.7214 66.1101 46.104C62.3636 51.128 62.8296 57.939 63.3475 63.8867C63.6238 66.9599 64.2112 70.7927 62.2516 73.4687C61.8701 74.0399 61.3575 74.5117 60.757 74.845C60.1564 75.1783 59.4852 75.3635 58.7987 75.3851C57.3755 75.2214 56.0733 74.5053 55.1729 73.391C52.4191 70.5941 50.3993 67.1239 47.775 64.2148C47.6466 64.0956 47.4892 64.0118 47.3186 63.9718C47.1479 63.9318 46.9699 63.9368 46.8018 63.9864C46.6337 64.0361 46.4815 64.1286 46.3601 64.2549C46.2386 64.3812 46.1519 64.5369 46.1088 64.7068C42.3019 63.9385 38.5382 66.7095 35.7499 69.2475C32.0185 72.7353 28.477 76.4209 25.1406 80.2883C19.6504 86.59 13.9703 93.6341 11.7777 101.869C11.5266 102.805 11.3247 103.753 11.1732 104.709C10.5563 104.462 9.95677 104.173 9.37803 103.846C6.12499 101.99 3.50838 99.194 1.87102 95.8253C0.233666 92.4567 -0.348424 88.672 0.201443 84.9671C0.815831 81.2094 2.53121 77.7185 5.13052 74.9362C7.72025 72.1307 11.1733 70.8013 14.4449 69.0662C16.0076 68.3702 17.3854 67.3177 18.4678 65.9931C19.7022 64.2666 19.8319 62.1689 19.9528 60.1316C19.9679 58.011 20.3683 55.9108 21.1351 53.9336C21.9119 52.2678 23.0468 50.7941 24.4586 49.6174C27.4714 47.0276 31.2178 45.681 34.9815 44.6278C39.0042 43.497 43.2862 42.5992 46.696 40.0354C49.6828 37.7909 51.642 34.502 53.4721 31.3253C55.3626 28.0018 57.1843 24.5833 59.7913 21.7692C64.5219 16.6502 71.6002 14 78.5061 14C85.7574 14 92.534 17.3839 97.8688 22.1317C102.962 26.5515 108.651 33.4316 108.875 40.5792Z" fill="black"/>
<path d="M98.8356 69.0661C98.5464 70.089 98.1131 71.0656 97.5492 71.9666C97.1434 72.6486 96.6168 73.2874 96.1852 73.978C94.3188 72.5294 92.3355 71.2387 90.255 70.1193C87.6514 68.7363 84.9041 67.6421 82.0626 66.8562C80.6434 66.4656 79.2021 66.1601 77.7464 65.9412C76.6147 65.6818 75.4535 65.5744 74.2935 65.6218C74.5697 65.1297 74.8375 64.6377 75.0964 64.1284C75.5108 63.3256 75.9164 62.5055 76.3049 61.6768C76.538 61.202 76.7708 60.7186 76.978 60.2352C78.0471 60.757 79.1788 61.1399 80.345 61.3746C84.2284 62.1205 88.2501 61.4204 91.6531 59.4065C92.8891 58.6992 94.0465 57.863 95.1061 56.9117C95.0553 57.437 95.0553 57.9661 95.1061 58.4914C95.2701 60.5805 96.2977 62.1084 97.6099 63.6709C98.2578 64.3907 98.7104 65.2644 98.925 66.2089C99.1395 67.1533 99.1089 68.137 98.8356 69.0661Z" fill="black"/>
<path d="M100.985 70.793C100.585 71.7874 100.091 72.7413 99.5089 73.6417C99.1072 74.3055 98.6631 74.9427 98.1795 75.5494C97.9954 75.7809 97.7903 75.9947 97.5666 76.1882C97.3637 76.3817 97.0984 76.4962 96.8185 76.511C96.5385 76.5257 96.2625 76.4398 96.0404 76.2688C95.8182 76.0978 95.6648 75.8529 95.6075 75.5784C95.5502 75.304 95.5929 75.0181 95.728 74.7725C95.8612 74.4749 96.0139 74.1865 96.1854 73.9093C96.617 73.2187 97.1436 72.5799 97.5494 71.8979C98.1133 70.9969 98.5466 70.0203 98.8358 68.9974C99.1058 68.0661 99.1325 67.0812 98.9134 66.1366C98.6942 65.1921 98.2364 64.3195 97.5839 63.6022C96.2718 62.0397 95.2446 60.5118 95.0806 58.4227C95.0298 57.8974 95.0298 57.3683 95.0806 56.843C95.1563 55.5055 95.7474 54.2493 96.7295 53.3382C96.8267 53.2511 96.9433 53.1887 97.0697 53.1563C97.1961 53.1239 97.3283 53.1225 97.4554 53.1521C97.5824 53.1818 97.7007 53.2416 97.7997 53.3266C97.8987 53.4116 97.9758 53.5192 98.0244 53.6404C98.0655 53.7901 98.0655 53.9481 98.0244 54.0979C97.7329 55.0276 97.5221 55.9807 97.3942 56.9466C97.3652 57.8699 97.5357 58.7886 97.8946 59.6399C98.6715 61.4959 100.484 62.6526 101.184 64.5776C101.88 66.6039 101.81 68.8153 100.985 70.793Z" fill="black"/>
<path d="M95.9266 96.8626C93.5447 99.5074 90.3602 101.297 86.8626 101.956C85.6224 102.22 84.3582 102.356 83.0901 102.361C82.5742 102.364 82.0584 102.341 81.5449 102.292H81.1478C79.6544 102.154 77.6084 101.921 76.7452 100.73C76.6899 100.633 76.6578 100.525 76.6512 100.413C76.6446 100.302 76.6638 100.191 76.7072 100.088C76.7507 99.9853 76.8171 99.8939 76.9016 99.8211C76.986 99.7483 77.0861 99.6959 77.1941 99.6681C77.9828 99.5534 78.7871 99.6123 79.5507 99.8408C80.0186 99.933 80.4913 99.9993 80.9665 100.039L81.8298 100.091C82.1603 100.113 82.4919 100.113 82.8224 100.091C84.0139 100.077 85.2005 99.9347 86.3618 99.6681C89.3459 98.9416 92.0909 97.4546 94.3295 95.3519C94.5423 95.2138 94.7956 95.1512 95.0482 95.1742C95.3008 95.1972 95.5383 95.3046 95.7226 95.4789C95.9069 95.6532 96.027 95.8844 96.064 96.1354C96.101 96.3864 96.0527 96.6425 95.9266 96.8626Z" fill="black"/>
<path d="M27.5145 124.668C23.4486 129.632 20.6086 135.778 18.1398 141.639C15.5768 147.659 13.4423 153.852 11.7519 160.173C8.2964 173.602 6.17684 187.34 5.42423 201.186C4.89765 209.257 4.69877 217.346 4.64697 225.434C4.64697 225.807 4.79532 226.165 5.0592 226.429C5.32308 226.693 5.6812 226.841 6.05438 226.841C6.42756 226.841 6.78525 226.693 7.04913 226.429C7.31301 226.165 7.46136 225.807 7.46136 225.434C7.62538 211.432 8.2123 197.387 10.1805 183.506C11.9442 170.467 15.2 157.673 19.8835 145.377C21.1698 142.054 22.6284 138.816 24.1563 135.605C25.6843 132.394 27.5488 129.165 29.0509 125.859C29.4566 124.935 28.2741 123.736 27.5145 124.668Z" fill="black"/>
<path d="M66.4298 225.442C65.8773 226.306 65.2212 227.083 64.6514 227.929H61.9669H59.636H57.7539C53.2593 227.877 48.7619 227.805 44.2616 227.713C38.0289 227.592 31.7993 227.454 25.5724 227.298C22.4907 227.212 19.4089 227.152 16.3271 227.039C13.22 227.081 10.1141 226.878 7.03844 226.435C5.95939 226.219 6.38239 224.812 7.27153 224.709C10.6727 224.26 14.2468 224.596 17.6739 224.709L28.0846 224.959C37.9774 225.166 47.8785 225.336 57.7885 225.468H59.7051C60.9999 225.468 62.2948 225.468 63.607 225.52H65.0658L66.4298 225.442Z" fill="black"/>
<path d="M131.63 94.4886C131.579 97.8466 131.242 101.179 130.88 104.511C130.802 105.141 130.733 105.763 130.664 106.384H128.894L127.694 106.341H126.891L124.906 106.246C124.661 105.653 124.457 105.045 124.293 104.425C124.06 103.604 123.887 102.776 123.723 101.956C123.295 99.7765 123.02 97.5697 122.903 95.3519C122.675 91.2942 123.027 87.2249 123.948 83.2665C124.327 81.6695 125.251 80.2365 127.064 80.2365C127.825 80.2606 128.564 80.4974 129.197 80.92C129.83 81.3427 130.332 81.9342 130.647 82.6277C131.441 84.2765 131.415 86.2706 131.51 88.0575C131.613 90.1811 131.665 92.3737 131.63 94.4886Z" fill="black"/>
<path d="M131.104 110.502C130.579 109.897 129.869 109.484 129.084 109.328C128.275 109.17 127.437 109.285 126.701 109.656C126.574 109.724 126.479 109.838 126.434 109.974C126.389 110.111 126.398 110.26 126.46 110.39C126.344 110.284 126.197 110.219 126.041 110.205C125.885 110.191 125.729 110.229 125.596 110.312C125.326 110.487 125.084 110.702 124.88 110.951C124.635 111.275 124.483 111.66 124.439 112.064C124.319 112.763 124.372 113.48 124.595 114.153C124.823 114.852 125.25 115.469 125.824 115.929C126.397 116.389 127.092 116.672 127.824 116.743C128.576 116.767 129.32 116.587 129.978 116.222C130.636 115.858 131.183 115.322 131.561 114.671C131.938 114.018 132.097 113.261 132.015 112.512C131.932 111.762 131.613 111.058 131.104 110.502ZM126.261 112.47V112.556C126.251 112.526 126.251 112.492 126.261 112.461V112.47Z" fill="black"/>
<path d="M66.0236 109.95C66.0236 114.81 65.523 119.67 65.1604 124.512C64.7978 129.355 64.4095 134.215 64.0384 139.075C62.755 156.202 61.7106 173.346 60.9049 190.507C60.502 199.14 60.1797 207.772 59.938 216.405C59.8603 219.374 59.7998 222.352 59.7221 225.33C59.7221 226.194 59.7221 227.005 59.653 227.843H57.771V227.782C57.771 226.971 57.771 226.151 57.771 225.339C57.8314 221.273 57.961 217.233 58.0732 213.176C58.5653 195.911 59.2213 178.595 60.214 161.321C60.709 152.689 61.3049 144.056 62.0012 135.424C62.3465 131.108 62.7091 126.861 63.0976 122.579C63.486 118.297 63.8484 113.99 64.6512 109.768C64.8498 108.983 66.0236 109.199 66.0236 109.95Z" fill="black"/>
<path d="M127.755 163.531C127.755 163.531 127.755 163.479 127.755 163.453C127.746 163.539 127.746 163.548 127.755 163.531Z" fill="black"/>
<path d="M254.444 191.785C254.401 192.596 254.314 193.408 254.228 194.219C253.909 196.809 253.365 199.399 253.02 201.945C251.063 215.182 249.089 228.418 247.098 241.654C247.02 241.939 246.849 242.19 246.614 242.368C246.378 242.546 246.09 242.641 245.794 242.638C242.971 242.388 240.149 242.198 237.317 242.095C236.696 242.095 236.083 242.043 235.47 242.026C234.123 241.974 232.777 241.957 231.421 241.948H229.246C227.45 241.948 225.652 241.982 223.851 242.051C223.169 242.051 222.487 242.103 221.805 242.129C219.554 242.233 217.296 242.377 215.028 242.561L213.12 242.716C211.394 242.88 209.667 243.061 207.941 243.26C207.739 243.261 207.539 243.222 207.352 243.144C207.165 243.067 206.996 242.953 206.855 242.809C206.713 242.664 206.602 242.493 206.528 242.306C206.453 242.118 206.417 241.917 206.422 241.715C206.422 239.229 206.422 236.734 206.422 234.248V230.847C206.422 226.444 206.499 222.024 206.534 217.604C206.594 210.526 206.534 203.387 207 196.308C207.052 195.445 207.112 194.582 207.199 193.719H209.089C209.158 194.582 209.21 195.445 209.262 196.308C209.668 203.378 209.503 210.509 209.486 217.587C209.486 221.972 209.486 226.355 209.486 230.734C209.486 231.857 209.486 232.979 209.486 234.11V240.049C210.677 239.919 211.869 239.816 213.069 239.712L215.02 239.565C217.258 239.398 219.497 239.28 221.736 239.211C222.418 239.211 223.1 239.16 223.781 239.151C225.637 239.099 227.502 239.082 229.358 239.099C230.1 239.099 230.826 239.099 231.56 239.099C232.967 239.099 234.382 239.16 235.789 239.22L237.68 239.306C240.019 239.419 242.367 239.583 244.707 239.773C245.207 236.4 245.719 233.028 246.243 229.655C247.256 223.135 248.269 216.623 249.282 210.12L250.81 200.262C251.112 198.32 251.345 196.334 251.673 194.366C251.802 193.563 251.958 192.76 252.131 191.958L252.744 191.914C253.261 191.94 253.848 191.854 254.444 191.785Z" fill="black"/>
<path d="M258.812 192.579C258.817 192.813 258.753 193.043 258.627 193.24C258.501 193.437 258.319 193.591 258.104 193.684C257.093 194.003 256.039 194.163 254.979 194.159L254.228 194.219L251.932 194.409H251.621C249.687 194.565 247.762 194.703 245.829 194.832L244.448 194.927L242.41 195.065C239.821 195.247 237.145 195.411 234.512 195.566C233.873 195.566 233.243 195.635 232.604 195.67C229.963 195.808 227.304 195.937 224.654 196.032C224.049 196.032 223.436 196.093 222.832 196.101C220.864 196.17 218.887 196.231 216.919 196.265H215.089C213.155 196.265 211.224 196.265 209.297 196.265H207.035C205.369 196.265 203.711 196.205 202.045 196.153C201.861 196.151 201.679 196.107 201.514 196.024C201.349 195.942 201.205 195.823 201.093 195.677C200.981 195.53 200.903 195.36 200.866 195.18C200.83 194.999 200.834 194.812 200.88 194.634C201.622 191.949 202.373 189.282 203.262 186.649C203.294 186.527 203.356 186.416 203.444 186.327C203.531 186.237 203.641 186.172 203.761 186.138C203.882 186.104 204.009 186.102 204.131 186.133C204.252 186.163 204.364 186.225 204.454 186.312C204.554 186.403 204.63 186.518 204.673 186.647C204.717 186.775 204.727 186.912 204.704 187.046C204.704 187.132 204.704 187.218 204.704 187.305C204.384 189.463 203.979 191.621 203.556 193.727L207.268 193.684H209.158L214.519 193.606H215.572H217.135C219.146 193.606 221.158 193.52 223.178 193.468L224.835 193.425C227.589 193.356 230.334 193.27 233.088 193.149C233.631 193.149 234.167 193.149 234.71 193.088L236.506 193.019C238.687 192.927 240.868 192.815 243.049 192.683C243.645 192.683 244.249 192.614 244.853 192.562C245.717 192.519 246.58 192.458 247.391 192.398L252.122 192.027L252.735 191.983C253.305 191.94 253.892 191.854 254.461 191.785C255.18 191.687 255.903 191.633 256.628 191.621C257.129 191.614 257.63 191.661 258.122 191.759C258.312 191.798 258.484 191.9 258.61 192.049C258.735 192.198 258.806 192.385 258.812 192.579Z" fill="black"/>
<path d="M259.943 186.346C259.779 187.598 259.615 188.85 259.442 190.102C259.445 190.972 259.216 191.827 258.777 192.579C258.618 192.783 258.419 192.95 258.191 193.071C258.031 193.161 257.847 193.197 257.666 193.175C257.484 193.154 257.314 193.075 257.18 192.95C256.817 192.6 256.601 192.125 256.576 191.621C256.557 191.042 256.603 190.463 256.714 189.894C256.809 189.135 256.904 188.375 257.008 187.607C255.54 187.512 254.064 187.365 252.588 187.322C250.603 187.262 248.608 187.227 246.614 187.184C244.62 187.141 242.488 187.123 240.425 187.115H238.699C234.382 187.115 230.118 187.115 225.836 187.227C222.383 187.296 218.916 187.408 215.434 187.564C213.707 187.641 211.981 187.736 210.255 187.805C208.675 187.874 206.681 188.289 205.17 187.736C204.971 187.659 204.798 187.528 204.67 187.356C204.557 187.22 204.478 187.059 204.441 186.886C204.403 186.714 204.408 186.534 204.454 186.364C204.489 186.247 204.549 186.138 204.629 186.046C204.709 185.954 204.808 185.88 204.92 185.829C205.815 185.453 206.78 185.271 207.751 185.293L210.833 185.121C212.758 185.026 214.683 184.974 216.608 184.922C218.792 184.862 220.976 184.801 223.16 184.758L225.145 184.715C229.306 184.637 233.45 184.611 237.602 184.629H238.111C239.052 184.629 239.993 184.629 240.926 184.629C243.291 184.629 245.639 184.68 247.996 184.741C249.803 184.781 251.601 184.833 253.391 184.896C255.117 184.948 256.844 184.836 258.57 184.896C259.261 184.983 260.081 185.604 259.943 186.346Z" fill="black"/>
<path d="M240.459 187.141H238.733C238.146 186.467 238.301 185.544 238.128 184.663C238.132 184.614 238.132 184.565 238.128 184.516C237.782 183.03 236.961 181.697 235.789 180.718C234.955 180.003 233.95 179.518 232.871 179.311L232.595 179.268C229.073 178.845 226.345 181.659 225.189 184.741C225.05 185.138 224.929 185.535 224.834 185.924C224.786 186.078 224.69 186.213 224.559 186.309C224.429 186.405 224.271 186.457 224.109 186.457C223.948 186.457 223.79 186.405 223.659 186.309C223.529 186.213 223.432 186.078 223.384 185.924C223.295 185.549 223.235 185.168 223.203 184.784C223.166 184.066 223.242 183.347 223.427 182.652C223.78 181.566 224.37 180.573 225.154 179.743C226.111 178.604 227.336 177.721 228.72 177.174C230.103 176.627 231.601 176.433 233.078 176.609C234.063 176.725 235.02 177.017 235.901 177.472L236.022 177.541C237.727 178.471 239.111 179.894 239.993 181.625C240.479 182.582 240.822 183.606 241.011 184.663C241.123 185.09 241.132 185.538 241.036 185.969C240.94 186.4 240.742 186.802 240.459 187.141Z" fill="black"/>
<path d="M217.1 193.606L216.919 196.291C216.66 199.882 216.288 203.464 216.012 207.047C215.35 215.679 214.994 224.312 214.942 232.944C214.942 235.163 214.942 237.39 214.942 239.608C214.942 240.592 214.942 241.576 215.002 242.552L213.095 242.707C213.095 241.723 213.017 240.739 212.991 239.755C212.766 232.59 212.807 225.428 213.112 218.269C213.293 213.892 213.578 209.507 213.975 205.148C214.269 202.213 214.579 199.243 215.028 196.325C215.158 195.462 215.313 194.53 215.477 193.641L217.1 193.606Z" fill="black"/>
<path d="M224.791 193.425C224.791 194.288 224.723 195.151 224.654 196.058C224.567 197.12 224.472 198.181 224.412 199.217C224.282 201.755 224.127 204.302 224.006 206.831C223.583 216.059 223.376 225.278 223.583 234.515C223.626 236.078 223.669 237.631 223.73 239.194C223.73 240.144 223.799 241.093 223.851 242.043C223.169 242.043 222.487 242.094 221.805 242.12C221.805 241.162 221.719 240.204 221.684 239.254C221.414 232.452 221.347 225.653 221.486 218.856C221.572 214.203 221.744 209.568 222.064 204.932C222.228 202.584 222.426 200.227 222.668 197.888C222.728 197.309 222.771 196.722 222.832 196.161C222.91 195.298 222.987 194.383 223.134 193.503L224.791 193.425Z" fill="black"/>
<path d="M234.667 193.088C234.624 193.951 234.572 194.754 234.511 195.591C234.451 196.429 234.365 197.378 234.296 198.276C234.106 200.814 233.847 203.352 233.622 205.89C232.811 214.908 232.192 223.946 231.766 233.004C231.663 235.059 231.576 237.113 231.507 239.168C231.507 240.092 231.447 241.007 231.421 241.939H229.246C229.246 241.007 229.245 240.074 229.306 239.142C229.47 231.934 229.755 224.726 230.273 217.561C230.609 213.012 230.972 208.436 231.55 203.913C231.904 201.203 232.181 198.449 232.604 195.73C232.733 194.866 232.88 194.003 233.044 193.183C233.588 193.14 234.123 193.123 234.667 193.088Z" fill="black"/>
<path d="M244.81 192.562C244.698 193.364 244.576 194.159 244.447 194.953C243.929 198.285 243.359 201.617 242.79 204.958C241.331 213.633 239.941 222.326 238.715 231.045C238.327 233.816 237.955 236.596 237.627 239.375C237.506 240.238 237.412 241.179 237.317 242.086C236.695 242.086 236.082 242.034 235.469 242.017C235.556 241.11 235.651 240.195 235.737 239.289C236.522 231.52 237.412 223.828 238.56 216.137C239.604 209.101 240.77 202.031 242.41 195.091C242.6 194.288 242.798 193.477 243.005 192.682C243.601 192.648 244.206 192.613 244.81 192.562Z" fill="black"/>
<path d="M119.787 216.361C117.974 214.246 115.432 212.891 112.665 212.563C109.506 212.062 106.312 212.408 103.17 212.174C103.465 211.218 103.541 210.208 103.391 209.218C103.242 208.229 102.871 207.286 102.306 206.46C100.623 203.87 97.6016 202.826 94.6666 202.446C89.936 201.841 83.9365 201.971 80.2591 205.182C79.5842 205.777 79.0022 206.469 78.5326 207.237C78.0589 207.251 77.5861 207.292 77.1168 207.358C73.5483 207.921 70.2264 209.528 67.5693 211.976C65.9464 213.418 64.1163 215.308 63.7192 217.492C63.5054 218.61 63.7178 219.768 64.3148 220.738C65.0227 221.938 65.4974 222.611 64.7292 223.923C64.3999 224.442 64.0396 224.941 63.6501 225.417C63.3427 225.793 63.0545 226.185 62.7869 226.591C62.507 227.009 62.2534 227.444 62.0273 227.894C61.7204 228.476 61.4551 229.079 61.2332 229.698C60.4827 231.655 60.2738 233.779 60.6288 235.845C61.492 240.377 65.6012 242.569 69.8311 243.035C72.1292 243.292 74.451 243.245 76.737 242.897C78.0135 242.743 79.2277 242.258 80.2591 241.49C81.2173 243.726 82.5811 245.806 85.0672 246.566C86.468 246.952 87.9648 246.765 89.2283 246.048C90.4196 245.461 91.628 244.373 93.0438 244.641C93.7775 244.779 94.4508 245.168 95.1673 245.375C95.9305 245.59 96.7302 245.643 97.5151 245.53C98.9698 245.283 100.31 244.585 101.348 243.536C103.074 241.81 103.8 239.479 104.197 237.105C105.748 238.82 107.809 239.991 110.076 240.446C112.752 240.86 115.808 239.945 117.266 237.545C117.558 237.064 117.779 236.544 117.922 236C118.19 234.865 118.19 233.682 117.922 232.547C117.557 231.006 117.018 229.512 116.317 228.093C116.213 227.851 116.092 227.609 115.972 227.368C117.077 227.206 118.123 226.765 119.011 226.087C119.9 225.409 120.6 224.516 121.047 223.492C121.5 222.3 121.622 221.008 121.401 219.753C121.179 218.497 120.621 217.325 119.787 216.361ZM117.318 224.51C116.52 225.049 115.552 225.274 114.599 225.14C113.671 223.711 112.226 222.697 110.567 222.309C110.369 222.261 110.16 222.273 109.968 222.341C109.775 222.41 109.606 222.534 109.483 222.697C109.359 222.86 109.286 223.055 109.272 223.259C109.257 223.463 109.302 223.667 109.402 223.845C109.808 224.667 110.385 225.392 111.093 225.972C111.802 226.553 112.626 226.976 113.511 227.212C113.813 227.73 114.064 228.265 114.305 228.775C114.91 229.976 115.387 231.238 115.73 232.538C116.045 233.684 115.956 234.903 115.479 235.991C115.417 236.132 115.338 236.265 115.246 236.388C114.133 238.029 111.854 238.521 110.015 238.115C108.578 237.72 107.262 236.975 106.182 235.948C105.444 235.29 104.763 234.571 104.145 233.799C103.454 232.935 102.341 233.756 102.228 234.593C102.177 235.024 102.116 235.456 102.056 235.905C101.728 238.132 101.193 240.428 99.5265 242.008C99.1121 242.443 98.61 242.785 98.0534 243.011C97.4967 243.238 96.8986 243.343 96.2982 243.32C95.0292 243.182 93.9502 242.371 92.664 242.336C91.5447 242.356 90.452 242.681 89.5044 243.277C88.5548 243.795 87.5705 244.537 86.4396 244.529C83.5823 244.529 82.3393 241.076 81.5451 238.9C81.4763 238.674 81.3364 238.475 81.1459 238.333C80.9555 238.192 80.7251 238.116 80.488 238.116C80.2509 238.116 80.02 238.192 79.8296 238.333C79.6392 238.475 79.4992 238.674 79.4304 238.9C79.0074 240.385 76.901 240.566 75.6234 240.627C73.8619 240.756 72.0933 240.756 70.3318 240.627C66.8788 240.325 63.3566 238.728 62.8041 234.921C62.5995 233.108 62.8982 231.274 63.6674 229.621C63.9417 229.016 64.2713 228.438 64.6516 227.894C65.2213 227.031 65.8775 226.271 66.4299 225.408C66.5594 225.201 66.6889 224.994 66.8097 224.778C67.2603 224.013 67.4847 223.136 67.4571 222.249C67.2665 221.214 66.8543 220.234 66.2487 219.374C65.2646 217.509 67.3015 215.455 68.5273 214.194C70.9441 211.913 73.8897 210.266 77.0995 209.403L77.7731 209.214C78.0925 210.077 79.5771 210.465 80.026 209.447C80.1012 209.262 80.1908 209.083 80.2937 208.911C80.3483 208.783 80.4115 208.659 80.4833 208.54C80.579 208.503 80.6625 208.44 80.7236 208.357C80.7847 208.275 80.8209 208.176 80.8285 208.074C83.496 204.431 89.0642 204.353 93.2423 204.621C95.5558 204.751 98.2404 205.182 99.8979 206.952C101.158 208.29 101.901 210.69 100.614 212.252C100.14 212.813 100.191 213.979 101.098 214.117C104.361 214.6 107.632 214.298 110.887 214.6C113.606 214.859 116.593 215.705 118.233 218.053C119.692 220.22 119.554 223.017 117.318 224.51Z" fill="black"/>
<path d="M111.905 222.723C109.335 223.039 106.73 222.89 104.214 222.283C101.891 221.739 99.3879 221.092 97.083 222.084C96.3808 222.398 95.7475 222.847 95.2187 223.405C94.8435 222.998 94.4098 222.649 93.9322 222.369C92.506 221.583 90.8268 221.393 89.2611 221.841C87.6954 222.289 86.3703 223.339 85.5759 224.76C84.6522 226.487 84.6006 228.533 84.005 230.389C83.7306 231.232 83.2631 232 82.6397 232.631C82.0163 233.262 81.2539 233.739 80.4137 234.023C79.604 234.311 78.7421 234.423 77.8855 234.352C77.029 234.281 76.1976 234.027 75.4467 233.609C74.6959 233.191 74.0429 232.617 73.5314 231.926C73.0199 231.235 72.6617 230.444 72.4806 229.603C72.1749 228.235 72.314 226.804 72.8776 225.52C73.4412 224.236 74.4002 223.166 75.6145 222.464C75.9179 222.61 76.2404 222.712 76.5726 222.766C77.2792 222.918 78.0167 222.81 78.6506 222.463C79.2844 222.116 79.7724 221.553 80.0255 220.876C80.0507 220.784 80.0541 220.688 80.0361 220.594C80.018 220.5 79.979 220.412 79.9214 220.336C79.8638 220.26 79.7895 220.199 79.7043 220.156C79.6191 220.113 79.5252 220.091 79.4299 220.09C78.1948 220.055 76.9668 220.287 75.8303 220.772C74.8117 219.849 74.846 218.183 75.2431 216.991C76.2531 213.927 79.2055 212.002 79.8443 208.747C79.8769 208.583 79.8459 208.412 79.7579 208.269C79.6699 208.126 79.5313 208.022 79.3697 207.977C79.208 207.933 79.0356 207.951 78.8866 208.028C78.7377 208.105 78.6234 208.236 78.5667 208.393C77.2891 212.304 72.5241 214.989 73.4737 219.564C73.6195 220.286 73.9392 220.962 74.4056 221.532C73.2976 222.226 72.3802 223.186 71.7358 224.323C71.0914 225.461 70.7406 226.741 70.7149 228.048C70.6892 229.356 70.9895 230.649 71.5887 231.811C72.1879 232.973 73.067 233.968 74.1468 234.705C75.5661 235.654 77.2644 236.096 78.9663 235.958C80.6681 235.82 82.2735 235.111 83.5215 233.945C84.7928 232.642 85.6231 230.972 85.8954 229.172C86.3098 227.264 86.6034 225.106 88.4076 223.992C89.2337 223.456 90.2185 223.218 91.1984 223.319C92.1782 223.419 93.0939 223.852 93.794 224.545C93.9072 224.678 94.0113 224.82 94.1051 224.968C93.6382 225.886 93.4021 226.905 93.4172 227.935C93.4322 228.965 93.698 229.976 94.1915 230.881C94.2815 231.029 94.4082 231.152 94.5594 231.237C94.7106 231.322 94.8812 231.367 95.0547 231.367C95.2282 231.367 95.3984 231.322 95.5496 231.237C95.7008 231.152 95.8279 231.029 95.918 230.881C96.41 230.047 96.7053 229.113 96.7816 228.148C96.8579 227.183 96.713 226.213 96.358 225.313C96.7318 224.826 97.209 224.427 97.7553 224.147C98.3016 223.866 98.9037 223.71 99.5176 223.69C101.555 223.621 103.532 224.432 105.56 224.76C107.659 225.095 109.792 225.151 111.905 224.925C113.329 224.821 113.303 222.559 111.905 222.723Z" fill="black"/>
<path d="M159.635 197.523C160.233 197.767 160.798 198.043 161.364 198.336C165.856 200.856 169.259 204.965 170.914 209.866C170.986 210.229 170.921 210.606 170.731 210.923C170.54 211.24 170.239 211.474 169.886 211.578C169.533 211.682 169.153 211.65 168.823 211.486C168.493 211.323 168.236 211.041 168.102 210.695C166.643 206.557 163.744 203.091 159.942 200.938C155.337 198.466 149.584 198.352 142.797 200.515C142.436 200.602 142.055 200.549 141.731 200.365C141.407 200.181 141.165 199.881 141.052 199.524C140.939 199.168 140.965 198.782 141.124 198.443C141.283 198.105 141.563 197.84 141.909 197.701C148.695 195.522 154.658 195.473 159.635 197.523Z" fill="black"/>
<path d="M180.69 144.826C180.69 151.578 193.011 160.13 199.538 156.079M144.682 140.888C139.618 149.89 124.765 155.348 114.863 151.297" stroke="black" stroke-width="5" stroke-linecap="round" stroke-linejoin="round"/>
<circle cx="121.614" cy="176.896" r="14.6282" fill="black"/>
<circle cx="124.146" cy="183.366" r="2.53181" fill="white"/>
<circle cx="185.753" cy="176.896" r="14.6282" fill="black"/>
<circle cx="188.285" cy="183.366" r="2.53181" fill="white"/>
<path d="M206.422 230.872H205.921C201.444 231.062 196.966 231.232 192.489 231.381C174.649 232.014 156.785 232.386 138.899 232.495C131.884 232.547 124.863 232.547 117.836 232.495H115.695C116.01 233.641 115.922 234.86 115.445 235.948H117.827H124.043C142.499 235.948 160.952 235.689 179.403 235.171C188.409 234.912 197.407 234.59 206.396 234.204H206.983L209.426 234.109C209.426 232.978 209.426 231.856 209.426 230.734L206.422 230.872ZM104.11 233.773C103.42 232.909 102.306 233.729 102.194 234.567C102.142 234.998 102.082 235.43 102.021 235.879L106.148 235.922C105.421 235.262 104.752 234.543 104.145 233.773H104.11ZM79.9396 182.367C79.7094 162.834 79.4705 143.296 79.223 123.752C79.223 121.862 79.0505 119.799 79.0936 117.77C78.0405 117.77 76.9874 117.77 75.9429 117.718C75.9429 119.1 75.9429 120.481 75.9429 121.827C76.0004 126.834 76.0635 131.847 76.1325 136.865C76.2707 146.959 76.4003 157.051 76.5212 167.139C76.642 177.227 76.7717 187.316 76.9098 197.404C76.9098 200.728 76.996 204.043 77.0392 207.357V209.481L77.7123 209.291C78.0317 210.154 79.5164 210.543 79.9653 209.524C80.0405 209.339 80.1301 209.16 80.233 208.989C80.233 207.72 80.1897 206.451 80.1811 205.182C80.1293 197.58 80.052 189.975 79.9484 182.367H79.9396ZM237.171 117.9H234.4C234.469 118.91 234.486 119.911 234.495 120.912C234.495 123.347 234.495 125.772 234.495 128.207C234.495 137.936 234.244 147.656 233.89 157.376C233.654 163.775 233.346 170.172 232.967 176.566C232.915 177.472 232.854 178.37 232.803 179.268C233.881 179.475 234.887 179.96 235.72 180.675C235.789 179.621 235.85 178.568 235.91 177.515C236.005 175.91 236.092 174.313 236.178 172.707C236.702 162.682 237.035 152.648 237.179 142.606C237.248 137.547 237.266 132.497 237.257 127.438C237.274 124.314 237.447 121.076 237.179 117.9H237.171Z" fill="black"/>
<path d="M196.253 97.1201L198.067 95.0089C200.944 91.6604 205.991 91.2783 209.339 94.1554L250.34 129.384C253.688 132.261 254.07 137.308 251.193 140.656L249.379 142.767C246.502 146.116 241.455 146.498 238.107 143.621L197.107 108.392C193.758 105.515 193.376 100.469 196.253 97.1201Z" fill="white" stroke="black" stroke-width="1.50036"/>
<path d="M215.385 109.556L213.487 111.766C212.088 113.394 212.274 115.848 213.902 117.247L226.631 128.184C228.259 129.583 230.714 129.398 232.113 127.769L234.011 125.56C235.41 123.932 235.224 121.477 233.596 120.078L220.867 109.141C219.239 107.742 216.784 107.928 215.385 109.556Z" fill="black"/>
<path d="M233.966 133.954C234.203 133.954 234.43 133.86 234.598 133.692C234.766 133.524 234.86 133.297 234.86 133.06C234.86 132.823 234.766 132.596 234.598 132.428C234.43 132.26 234.203 132.166 233.966 132.166C233.729 132.166 233.502 132.26 233.334 132.428C233.166 132.596 233.072 132.823 233.072 133.06C233.072 133.297 233.166 133.524 233.334 133.692C233.502 133.86 233.729 133.954 233.966 133.954Z" fill="black"/>
<path d="M236.744 136.49C236.97 136.472 237.181 136.37 237.335 136.204C237.488 136.038 237.574 135.82 237.574 135.593C237.574 135.367 237.488 135.149 237.335 134.982C237.181 134.816 236.97 134.714 236.744 134.697C236.518 134.714 236.308 134.816 236.154 134.982C236 135.149 235.915 135.367 235.915 135.593C235.915 135.82 236 136.038 236.154 136.204C236.308 136.37 236.518 136.472 236.744 136.49Z" fill="black"/>
<path d="M239.727 139.575C239.964 139.575 240.192 139.48 240.359 139.313C240.527 139.145 240.621 138.918 240.621 138.681C240.621 138.444 240.527 138.216 240.359 138.049C240.192 137.881 239.964 137.787 239.727 137.787C239.49 137.787 239.263 137.881 239.095 138.049C238.928 138.216 238.833 138.444 238.833 138.681C238.833 138.918 238.928 139.145 239.095 139.313C239.263 139.48 239.49 139.575 239.727 139.575Z" fill="black"/>
<path d="M236.944 130.96C237.181 130.96 237.408 130.866 237.576 130.698C237.743 130.531 237.837 130.303 237.837 130.066C237.837 129.829 237.743 129.602 237.576 129.434C237.408 129.267 237.181 129.173 236.944 129.173C236.707 129.173 236.479 129.267 236.312 129.434C236.144 129.602 236.05 129.829 236.05 130.066C236.05 130.303 236.144 130.531 236.312 130.698C236.479 130.866 236.707 130.96 236.944 130.96Z" fill="black"/>
<path d="M239.727 133.507C239.964 133.507 240.192 133.413 240.359 133.245C240.527 133.078 240.621 132.85 240.621 132.613C240.621 132.376 240.527 132.149 240.359 131.981C240.192 131.814 239.964 131.719 239.727 131.719C239.49 131.719 239.263 131.814 239.095 131.981C238.928 132.149 238.833 132.376 238.833 132.613C238.833 132.85 238.928 133.078 239.095 133.245C239.263 133.413 239.49 133.507 239.727 133.507Z" fill="black"/>
<path d="M242.709 136.586C242.946 136.586 243.174 136.492 243.341 136.325C243.509 136.157 243.603 135.93 243.603 135.693C243.603 135.456 243.509 135.228 243.341 135.061C243.174 134.893 242.946 134.799 242.709 134.799C242.472 134.799 242.245 134.893 242.077 135.061C241.91 135.228 241.815 135.456 241.815 135.693C241.815 135.93 241.91 136.157 242.077 136.325C242.245 136.492 242.472 136.586 242.709 136.586Z" fill="black"/>
<path d="M239.925 127.994C240.151 127.976 240.362 127.874 240.516 127.708C240.67 127.542 240.755 127.324 240.755 127.097C240.755 126.871 240.67 126.653 240.516 126.486C240.362 126.32 240.151 126.218 239.925 126.201C239.7 126.218 239.489 126.32 239.335 126.486C239.181 126.653 239.096 126.871 239.096 127.097C239.096 127.324 239.181 127.542 239.335 127.708C239.489 127.874 239.7 127.976 239.925 127.994Z" fill="black"/>
<path d="M242.709 130.524C242.946 130.524 243.174 130.43 243.341 130.262C243.509 130.095 243.603 129.867 243.603 129.63C243.603 129.393 243.509 129.166 243.341 128.998C243.174 128.831 242.946 128.737 242.709 128.737C242.472 128.737 242.245 128.831 242.077 128.998C241.91 129.166 241.815 129.393 241.815 129.63C241.815 129.867 241.91 130.095 242.077 130.262C242.245 130.43 242.472 130.524 242.709 130.524Z" fill="black"/>
<path d="M245.687 133.604C245.924 133.604 246.151 133.509 246.319 133.342C246.486 133.174 246.58 132.947 246.58 132.71C246.58 132.473 246.486 132.245 246.319 132.078C246.151 131.91 245.924 131.816 245.687 131.816C245.45 131.816 245.222 131.91 245.055 132.078C244.887 132.245 244.793 132.473 244.793 132.71C244.793 132.947 244.887 133.174 245.055 133.342C245.222 133.509 245.45 133.604 245.687 133.604Z" fill="black"/>
<path d="M201.769 105.337C202.006 105.337 202.234 105.243 202.401 105.076C202.569 104.908 202.663 104.681 202.663 104.444C202.663 104.207 202.569 103.979 202.401 103.812C202.234 103.644 202.006 103.55 201.769 103.55C201.532 103.55 201.305 103.644 201.137 103.812C200.97 103.979 200.875 104.207 200.875 104.444C200.875 104.681 200.97 104.908 201.137 105.076C201.305 105.243 201.532 105.337 201.769 105.337Z" fill="black"/>
<path d="M204.553 107.868C204.79 107.868 205.017 107.774 205.185 107.606C205.353 107.438 205.447 107.211 205.447 106.974C205.447 106.737 205.353 106.51 205.185 106.342C205.017 106.174 204.79 106.08 204.553 106.08C204.316 106.08 204.089 106.174 203.921 106.342C203.753 106.51 203.659 106.737 203.659 106.974C203.659 107.211 203.753 107.438 203.921 107.606C204.089 107.774 204.316 107.868 204.553 107.868Z" fill="black"/>
<path d="M207.535 110.953C207.761 110.936 207.972 110.834 208.126 110.667C208.279 110.501 208.365 110.283 208.365 110.057C208.365 109.83 208.279 109.612 208.126 109.446C207.972 109.28 207.761 109.178 207.535 109.16C207.309 109.178 207.099 109.28 206.945 109.446C206.791 109.612 206.706 109.83 206.706 110.057C206.706 110.283 206.791 110.501 206.945 110.667C207.099 110.834 207.309 110.936 207.535 110.953Z" fill="black"/>
<path d="M204.752 102.355C204.989 102.355 205.217 102.261 205.384 102.093C205.552 101.925 205.646 101.698 205.646 101.461C205.646 101.224 205.552 100.997 205.384 100.829C205.217 100.661 204.989 100.567 204.752 100.567C204.515 100.567 204.288 100.661 204.12 100.829C203.953 100.997 203.858 101.224 203.858 101.461C203.858 101.698 203.953 101.925 204.12 102.093C204.288 102.261 204.515 102.355 204.752 102.355Z" fill="black"/>
<path d="M207.535 104.891C207.772 104.891 208 104.796 208.167 104.629C208.335 104.461 208.429 104.234 208.429 103.997C208.429 103.76 208.335 103.532 208.167 103.365C208 103.197 207.772 103.103 207.535 103.103C207.298 103.103 207.071 103.197 206.903 103.365C206.736 103.532 206.642 103.76 206.642 103.997C206.642 104.234 206.736 104.461 206.903 104.629C207.071 104.796 207.298 104.891 207.535 104.891Z" fill="black"/>
<path d="M210.513 107.97C210.75 107.97 210.977 107.876 211.145 107.709C211.312 107.541 211.407 107.314 211.407 107.077C211.407 106.84 211.312 106.612 211.145 106.445C210.977 106.277 210.75 106.183 210.513 106.183C210.276 106.183 210.049 106.277 209.881 106.445C209.713 106.612 209.619 106.84 209.619 107.077C209.619 107.314 209.713 107.541 209.881 107.709C210.049 107.876 210.276 107.97 210.513 107.97Z" fill="black"/>
<path d="M207.734 99.3773C207.96 99.3598 208.171 99.2577 208.325 99.0915C208.479 98.9254 208.564 98.7073 208.564 98.4808C208.564 98.2544 208.479 98.0363 208.325 97.8701C208.171 97.7039 207.96 97.6019 207.734 97.5844C207.509 97.6019 207.298 97.7039 207.144 97.8701C206.99 98.0363 206.905 98.2544 206.905 98.4808C206.905 98.7073 206.99 98.9254 207.144 99.0915C207.298 99.2577 207.509 99.3598 207.734 99.3773Z" fill="black"/>
<path d="M210.513 101.886C210.75 101.886 210.977 101.792 211.145 101.624C211.312 101.457 211.407 101.229 211.407 100.992C211.407 100.755 211.312 100.528 211.145 100.36C210.977 100.193 210.75 100.099 210.513 100.099C210.276 100.099 210.049 100.193 209.881 100.36C209.713 100.528 209.619 100.755 209.619 100.992C209.619 101.229 209.713 101.457 209.881 101.624C210.049 101.792 210.276 101.886 210.513 101.886Z" fill="black"/>
<path d="M213.507 104.988C213.744 104.988 213.971 104.893 214.139 104.726C214.306 104.558 214.4 104.331 214.4 104.094C214.4 103.857 214.306 103.629 214.139 103.462C213.971 103.294 213.744 103.2 213.507 103.2C213.27 103.2 213.042 103.294 212.875 103.462C212.707 103.629 212.613 103.857 212.613 104.094C212.613 104.331 212.707 104.558 212.875 104.726C213.042 104.893 213.27 104.988 213.507 104.988Z" fill="black"/>
<path d="M216.683 115.594C216.88 115.578 217.063 115.488 217.196 115.343C217.33 115.198 217.404 115.008 217.404 114.811C217.404 114.613 217.33 114.423 217.196 114.278C217.063 114.133 216.88 114.043 216.683 114.027C216.486 114.043 216.303 114.133 216.17 114.278C216.036 114.423 215.962 114.613 215.962 114.811C215.962 115.008 216.036 115.198 216.17 115.343C216.303 115.488 216.486 115.578 216.683 115.594Z" fill="white"/>
<path d="M219.596 118.378C219.793 118.361 219.976 118.272 220.109 118.127C220.243 117.982 220.317 117.792 220.317 117.594C220.317 117.397 220.243 117.207 220.109 117.062C219.976 116.917 219.793 116.827 219.596 116.811C219.4 116.827 219.216 116.917 219.083 117.062C218.949 117.207 218.875 117.397 218.875 117.594C218.875 117.792 218.949 117.982 219.083 118.127C219.216 118.272 219.4 118.361 219.596 118.378Z" fill="white"/>
<path d="M222.465 120.596C222.662 120.579 222.845 120.49 222.979 120.345C223.112 120.2 223.186 120.01 223.186 119.812C223.186 119.615 223.112 119.425 222.979 119.28C222.845 119.135 222.662 119.045 222.465 119.029C222.269 119.045 222.085 119.135 221.952 119.28C221.818 119.425 221.744 119.615 221.744 119.812C221.744 120.01 221.818 120.2 221.952 120.345C222.085 120.49 222.269 120.579 222.465 120.596Z" fill="white"/>
<path d="M225.599 123.121C225.796 123.105 225.979 123.015 226.112 122.87C226.246 122.725 226.32 122.535 226.32 122.338C226.32 122.14 226.246 121.95 226.112 121.805C225.979 121.66 225.796 121.571 225.599 121.554C225.402 121.571 225.219 121.66 225.086 121.805C224.952 121.95 224.878 122.14 224.878 122.338C224.878 122.535 224.952 122.725 225.086 122.87C225.219 123.015 225.402 123.105 225.599 123.121Z" fill="white"/>
<path d="M228.689 125.948C228.886 125.931 229.069 125.842 229.203 125.697C229.336 125.552 229.41 125.362 229.41 125.164C229.41 124.967 229.336 124.777 229.203 124.632C229.069 124.487 228.886 124.397 228.689 124.381C228.493 124.397 228.31 124.487 228.176 124.632C228.042 124.777 227.968 124.967 227.968 125.164C227.968 125.362 228.042 125.552 228.176 125.697C228.31 125.842 228.493 125.931 228.689 125.948Z" fill="white"/>
<path d="M219.811 112.983C220.007 112.967 220.191 112.877 220.324 112.732C220.458 112.587 220.532 112.397 220.532 112.2C220.532 112.002 220.458 111.812 220.324 111.667C220.191 111.522 220.007 111.433 219.811 111.416C219.614 111.433 219.431 111.522 219.298 111.667C219.164 111.812 219.09 112.002 219.09 112.2C219.09 112.397 219.164 112.587 219.298 112.732C219.431 112.877 219.614 112.967 219.811 112.983Z" fill="white"/>
<path d="M222.73 115.766C222.926 115.75 223.11 115.661 223.243 115.515C223.377 115.37 223.451 115.18 223.451 114.983C223.451 114.786 223.377 114.596 223.243 114.451C223.11 114.306 222.926 114.216 222.73 114.2C222.533 114.216 222.35 114.306 222.217 114.451C222.083 114.596 222.009 114.786 222.009 114.983C222.009 115.18 222.083 115.37 222.217 115.515C222.35 115.661 222.533 115.75 222.73 115.766Z" fill="white"/>
<path d="M225.599 117.985C225.796 117.968 225.979 117.879 226.112 117.734C226.246 117.589 226.32 117.399 226.32 117.201C226.32 117.004 226.246 116.814 226.112 116.669C225.979 116.524 225.796 116.434 225.599 116.418C225.402 116.434 225.219 116.524 225.086 116.669C224.952 116.814 224.878 117.004 224.878 117.201C224.878 117.399 224.952 117.589 225.086 117.734C225.219 117.879 225.402 117.968 225.599 117.985Z" fill="white"/>
<path d="M228.732 120.51C228.928 120.493 229.112 120.404 229.245 120.259C229.379 120.114 229.453 119.923 229.453 119.726C229.453 119.529 229.379 119.339 229.245 119.194C229.112 119.049 228.928 118.959 228.732 118.943C228.535 118.959 228.352 119.049 228.218 119.194C228.085 119.339 228.011 119.529 228.011 119.726C228.011 119.923 228.085 120.114 228.218 120.259C228.352 120.404 228.535 120.493 228.732 120.51Z" fill="white"/>
<path d="M231.812 123.336C232.009 123.32 232.192 123.23 232.326 123.085C232.459 122.94 232.533 122.75 232.533 122.553C232.533 122.356 232.459 122.166 232.326 122.021C232.192 121.876 232.009 121.786 231.812 121.77C231.616 121.786 231.433 121.876 231.299 122.021C231.165 122.166 231.091 122.356 231.091 122.553C231.091 122.75 231.165 122.94 231.299 123.085C231.433 123.23 231.616 123.32 231.812 123.336Z" fill="white"/>
</svg>
