<svg width="192" height="192" viewBox="0 0 192 192" fill="none" xmlns="http://www.w3.org/2000/svg">
<rect width="192" height="192" fill="white"/>
<path d="M42.2388 74.3184H16.7026C16.4449 74.3358 16.1865 74.3001 15.9432 74.2134C15.6999 74.1268 15.477 73.991 15.2884 73.8147C15.0997 73.6383 14.9489 73.4251 14.8461 73.1882C14.7432 72.9513 14.6904 72.6957 14.6904 72.4374C14.6904 72.1792 14.7432 71.9236 14.8461 71.6867C14.9489 71.4498 15.0997 71.2366 15.2884 71.0602C15.477 70.8838 15.6999 70.7481 15.9432 70.6615C16.1865 70.5748 16.4449 70.5391 16.7026 70.5565H42.2388C42.4965 70.5391 42.7554 70.5748 42.9987 70.6615C43.242 70.7481 43.4648 70.8838 43.6535 71.0602C43.8422 71.2366 43.9925 71.4498 44.0954 71.6867C44.1982 71.9236 44.2514 72.1792 44.2514 72.4374C44.2514 72.6957 44.1982 72.9513 44.0954 73.1882C43.9925 73.4251 43.8422 73.6383 43.6535 73.8147C43.4648 73.991 43.242 74.1268 42.9987 74.2134C42.7554 74.3001 42.4965 74.3358 42.2388 74.3184Z" fill="black"/>
<path d="M42.2388 85.2867H16.7026C16.4449 85.3041 16.1865 85.2683 15.9432 85.1817C15.6999 85.095 15.477 84.9594 15.2884 84.783C15.0997 84.6067 14.9489 84.3934 14.8461 84.1565C14.7432 83.9195 14.6904 83.6641 14.6904 83.4058C14.6904 83.1475 14.7432 82.892 14.8461 82.6551C14.9489 82.4181 15.0997 82.2048 15.2884 82.0285C15.477 81.8521 15.6999 81.7165 15.9432 81.6298C16.1865 81.5432 16.4449 81.5074 16.7026 81.5248H42.2388C42.4965 81.5074 42.7554 81.5432 42.9987 81.6298C43.242 81.7165 43.4648 81.8521 43.6535 82.0285C43.8422 82.2048 43.9925 82.4181 44.0954 82.6551C44.1982 82.892 44.2514 83.1475 44.2514 83.4058C44.2514 83.6641 44.1982 83.9195 44.0954 84.1565C43.9925 84.3934 43.8422 84.6067 43.6535 84.783C43.4648 84.9594 43.242 85.095 42.9987 85.1817C42.7554 85.2683 42.4965 85.3041 42.2388 85.2867Z" fill="black"/>
<path d="M42.2388 96.2643H16.7026C16.4449 96.2817 16.1865 96.2459 15.9432 96.1592C15.6999 96.0726 15.477 95.9368 15.2884 95.7605C15.0997 95.5841 14.9489 95.3709 14.8461 95.134C14.7432 94.8971 14.6904 94.6415 14.6904 94.3832C14.6904 94.125 14.7432 93.8695 14.8461 93.6326C14.9489 93.3957 15.0997 93.1824 15.2884 93.006C15.477 92.8296 15.6999 92.6939 15.9432 92.6073C16.1865 92.5206 16.4449 92.4849 16.7026 92.5023H42.2388C42.4965 92.4849 42.7554 92.5206 42.9987 92.6073C43.242 92.6939 43.4648 92.8296 43.6535 93.006C43.8422 93.1824 43.9925 93.3957 44.0954 93.6326C44.1982 93.8695 44.2514 94.125 44.2514 94.3832C44.2514 94.6415 44.1982 94.8971 44.0954 95.134C43.9925 95.3709 43.8422 95.5841 43.6535 95.7605C43.4648 95.9368 43.242 96.0726 42.9987 96.1592C42.7554 96.2459 42.4965 96.2817 42.2388 96.2643Z" fill="black"/>
<path d="M124.777 134.217H11.6631C8.5713 134.212 5.60722 132.982 3.42101 130.796C1.2348 128.61 0.00453339 125.646 0 122.554V46.2877C0.00453339 43.196 1.2348 40.2321 3.42101 38.0459C5.60722 35.8597 8.5713 34.6295 11.6631 34.625H124.777C127.87 34.6273 130.835 35.8568 133.021 38.0435C135.208 40.2302 136.438 43.1953 136.44 46.2877V122.554C136.438 125.647 135.208 128.612 133.021 130.799C130.835 132.985 127.87 134.215 124.777 134.217ZM11.6631 38.1298C9.50696 38.1321 7.43981 38.9896 5.91522 40.5142C4.39062 42.0388 3.5329 44.1059 3.53064 46.262V122.528C3.5329 124.685 4.39062 126.752 5.91522 128.276C7.43981 129.801 9.50696 130.658 11.6631 130.661H124.777C126.934 130.658 129.002 129.801 130.528 128.277C132.054 126.752 132.914 124.685 132.918 122.528V46.262C132.914 44.1051 132.054 42.038 130.528 40.5136C129.002 38.9893 126.934 38.1321 124.777 38.1298H11.6631Z" fill="black"/>
<path d="M127.272 55.6973H8.64777C8.46141 55.6973 8.28247 55.7714 8.15069 55.9031C8.01891 56.0349 7.94482 56.2136 7.94482 56.4C7.94482 56.5864 8.01891 56.7651 8.15069 56.8969C8.28247 57.0287 8.46141 57.1026 8.64777 57.1026H127.272C127.458 57.1026 127.637 57.0287 127.769 56.8969C127.901 56.7651 127.975 56.5864 127.975 56.4C127.975 56.2136 127.901 56.0349 127.769 55.9031C127.637 55.7714 127.458 55.6973 127.272 55.6973Z" fill="black"/>
<path d="M23.3257 47.3682C23.3257 48.2834 23.0542 49.1781 22.5457 49.939C22.0373 50.7 21.3147 51.293 20.4691 51.6433C19.6236 51.9935 18.693 52.0852 17.7954 51.9067C16.8978 51.7281 16.0735 51.2874 15.4263 50.6402C14.7792 49.993 14.3383 49.1685 14.1598 48.2709C13.9812 47.3733 14.0727 46.4428 14.4229 45.5973C14.7732 44.7517 15.3666 44.029 16.1276 43.5206C16.8886 43.0121 17.7832 42.7407 18.6984 42.7407C19.3064 42.7396 19.9084 42.8586 20.4704 43.0907C21.0323 43.3229 21.543 43.6637 21.9729 44.0936C22.4028 44.5235 22.7437 45.0341 22.9759 45.596C23.208 46.158 23.3268 46.7602 23.3257 47.3682Z" fill="black"/>
<path d="M35.6061 47.3682C35.6061 48.2837 35.3346 49.1787 34.8257 49.9399C34.3169 50.701 33.5935 51.2941 32.7474 51.6441C31.9014 51.9941 30.9708 52.0853 30.0729 51.906C29.175 51.7268 28.3502 51.2852 27.7034 50.6372C27.0566 49.9892 26.6165 49.1639 26.4389 48.2657C26.2613 47.3675 26.3543 46.4367 26.7059 45.5913C27.0574 44.7459 27.6518 44.0239 28.4139 43.5165C29.176 43.009 30.0716 42.739 30.9872 42.7407C31.5944 42.7407 32.1957 42.8605 32.7567 43.0931C33.3176 43.3258 33.8273 43.6668 34.2563 44.0966C34.6853 44.5264 35.0251 45.0367 35.2567 45.598C35.4883 46.1594 35.6072 46.7609 35.6061 47.3682Z" fill="black"/>
<path d="M47.9033 47.3681C47.9033 48.2834 47.6318 49.1781 47.1234 49.939C46.6149 50.7 45.8923 51.293 45.0468 51.6433C44.2012 51.9935 43.2707 52.0852 42.373 51.9067C41.4754 51.7281 40.6507 51.2873 40.0035 50.6402C39.3564 49.993 38.9159 49.1685 38.7374 48.2709C38.5588 47.3733 38.6503 46.4428 39.0006 45.5973C39.3508 44.7517 39.9438 44.029 40.7048 43.5206C41.4658 43.0121 42.3604 42.7407 43.2756 42.7407C44.5028 42.7407 45.6798 43.2283 46.5476 44.0961C47.4154 44.9639 47.9033 46.1409 47.9033 47.3681Z" fill="black"/>
<path d="M19.9473 141.789H12.2349C12.0879 141.776 11.94 141.793 11.8002 141.84C11.6603 141.887 11.5317 141.963 11.4228 142.063C11.3138 142.162 11.2266 142.284 11.1671 142.419C11.1076 142.554 11.0771 142.7 11.0771 142.847C11.0771 142.995 11.1076 143.141 11.1671 143.276C11.2266 143.411 11.3138 143.532 11.4228 143.632C11.5317 143.731 11.6603 143.807 11.8002 143.854C11.94 143.901 12.0879 143.919 12.2349 143.906H19.9473C20.0942 143.919 20.2422 143.901 20.382 143.854C20.5218 143.807 20.6505 143.731 20.7594 143.632C20.8683 143.532 20.9555 143.411 21.0151 143.276C21.0746 143.141 21.105 142.995 21.105 142.847C21.105 142.7 21.0746 142.554 21.0151 142.419C20.9555 142.284 20.8683 142.162 20.7594 142.063C20.6505 141.963 20.5218 141.887 20.382 141.84C20.2422 141.793 20.0942 141.776 19.9473 141.789Z" fill="black"/>
<path d="M30.7012 141.789H26.5367C26.3897 141.776 26.2418 141.793 26.1019 141.84C25.9621 141.887 25.8335 141.963 25.7245 142.063C25.6156 142.162 25.5284 142.284 25.4689 142.419C25.4093 142.554 25.3789 142.7 25.3789 142.847C25.3789 142.995 25.4093 143.141 25.4689 143.276C25.5284 143.411 25.6156 143.532 25.7245 143.632C25.8335 143.731 25.9621 143.807 26.1019 143.854C26.2418 143.901 26.3897 143.919 26.5367 143.906H30.7012C30.9655 143.882 31.2114 143.76 31.3904 143.564C31.5694 143.368 31.6686 143.113 31.6686 142.847C31.6686 142.582 31.5694 142.326 31.3904 142.13C31.2114 141.935 30.9655 141.813 30.7012 141.789Z" fill="black"/>
<path d="M38.3289 141.789H36.4435C36.1792 141.813 35.9333 141.935 35.7543 142.13C35.5753 142.326 35.4761 142.582 35.4761 142.847C35.4761 143.113 35.5753 143.368 35.7543 143.564C35.9333 143.76 36.1792 143.882 36.4435 143.906H38.3029C38.5672 143.882 38.8131 143.76 38.9921 143.564C39.1711 143.368 39.2703 143.113 39.2703 142.847C39.2703 142.582 39.1711 142.326 38.9921 142.13C38.8131 141.935 38.5672 141.813 38.3029 141.789H38.3289Z" fill="black"/>
<path d="M44.2071 141.789H43.2301C42.9658 141.813 42.7199 141.935 42.5409 142.13C42.362 142.326 42.2627 142.582 42.2627 142.847C42.2627 143.113 42.362 143.368 42.5409 143.564C42.7199 143.76 42.9658 143.882 43.2301 143.906H44.2071C44.3541 143.919 44.502 143.901 44.6418 143.854C44.7817 143.807 44.9103 143.731 45.0193 143.632C45.1282 143.532 45.2154 143.411 45.2749 143.276C45.3344 143.141 45.3649 142.995 45.3649 142.847C45.3649 142.7 45.3344 142.554 45.2749 142.419C45.2154 142.284 45.1282 142.162 45.0193 142.063C44.9103 141.963 44.7817 141.887 44.6418 141.84C44.502 141.793 44.3541 141.776 44.2071 141.789Z" fill="black"/>
<path d="M49.2974 141.789H48.8174C48.6705 141.776 48.5225 141.793 48.3827 141.84C48.2429 141.887 48.1142 141.963 48.0053 142.063C47.8964 142.162 47.8092 142.284 47.7496 142.419C47.6901 142.554 47.6597 142.7 47.6597 142.847C47.6597 142.995 47.6901 143.141 47.7496 143.276C47.8092 143.411 47.8964 143.532 48.0053 143.632C48.1142 143.731 48.2429 143.807 48.3827 143.854C48.5225 143.901 48.6705 143.919 48.8174 143.906H49.2974C49.4444 143.919 49.5923 143.901 49.7321 143.854C49.8719 143.807 50.0006 143.731 50.1095 143.632C50.2185 143.532 50.3057 143.411 50.3652 143.276C50.4247 143.141 50.4551 142.995 50.4551 142.847C50.4551 142.7 50.4247 142.554 50.3652 142.419C50.3057 142.284 50.2185 142.162 50.1095 142.063C50.0006 141.963 49.8719 141.887 49.7321 141.84C49.5923 141.793 49.4444 141.776 49.2974 141.789Z" fill="black"/>
<path d="M101.617 23.9695C101.617 23.9695 103.245 26.2832 105.722 26.4031C106.529 26.4021 107.324 26.206 108.038 25.8315C108.753 25.4569 109.367 24.9151 109.827 24.2522C111.352 22.3927 112.32 22.0329 112.86 22.0586C113.657 22.0586 114.377 23.0697 114.985 23.9695C114.985 23.9695 116.614 26.2832 119.09 26.4031C119.897 26.4021 120.692 26.206 121.407 25.8315C122.121 25.4569 122.735 24.9151 123.195 24.2522C124.112 23.1382 125.029 22.5813 125.928 22.5984C126.41 22.6615 126.874 22.8187 127.295 23.0613C127.715 23.3039 128.084 23.6271 128.379 24.0123C128.462 24.1248 128.567 24.2199 128.687 24.292C128.807 24.3641 128.94 24.4118 129.079 24.4325C129.217 24.4532 129.358 24.4465 129.494 24.4126C129.63 24.3787 129.758 24.3184 129.87 24.2351C129.983 24.1518 130.078 24.0472 130.15 23.9272C130.222 23.8072 130.27 23.6741 130.29 23.5357C130.311 23.3972 130.304 23.2561 130.27 23.1203C130.236 22.9845 130.176 22.8566 130.093 22.744C129.605 22.105 128.99 21.5741 128.286 21.1847C127.583 20.7953 126.806 20.5559 126.005 20.4817C124.42 20.4817 122.929 21.253 121.575 22.9069C121.317 23.2986 120.973 23.6264 120.569 23.8654C120.165 24.1044 119.712 24.2484 119.245 24.2865C118.247 24.132 117.351 23.59 116.751 22.7783C116.057 21.7415 114.891 20.0361 112.972 19.9419C111.463 19.8733 109.904 20.8417 108.207 22.9069C107.95 23.2995 107.606 23.6278 107.202 23.867C106.798 24.1061 106.344 24.2497 105.876 24.2865C104.88 24.1302 103.984 23.5886 103.383 22.7783C102.688 21.7415 101.523 20.0361 99.6122 19.9419C98.0955 19.8733 96.536 20.8417 94.8393 22.9069C94.5818 23.2995 94.2378 23.6278 93.8338 23.867C93.4298 24.1061 92.9763 24.2497 92.5083 24.2865C91.5114 24.1302 90.6158 23.5886 90.0145 22.7783C89.3204 21.7415 88.155 20.0361 86.2441 19.9419C84.7273 19.8733 83.1679 20.8417 81.4712 22.9069C81.3144 23.0975 81.2292 23.337 81.231 23.5838C81.2339 23.8006 81.3031 24.0114 81.4293 24.1878C81.5555 24.3642 81.733 24.4977 81.9373 24.5704C82.1416 24.6432 82.3632 24.6517 82.5724 24.5948C82.7817 24.5379 82.9687 24.4184 83.108 24.2522C84.6333 22.3927 85.6013 22.0329 86.1412 22.0586C86.9381 22.0586 87.6583 23.0697 88.2667 23.9695C88.2667 23.9695 89.8945 26.2832 92.371 26.4031C93.1779 26.4021 93.9727 26.206 94.6874 25.8315C95.4021 25.4569 96.0156 24.9151 96.4757 24.2522C98.0011 22.3927 98.9694 22.0329 99.5093 22.0586C100.289 22.1014 101.009 23.0697 101.617 23.9695Z" fill="black"/>
<path d="M150.847 42.9395C150.73 42.8798 150.602 42.8438 150.471 42.8336C150.339 42.8234 150.207 42.8391 150.082 42.88C149.957 42.9208 149.841 42.9858 149.741 43.0715C149.641 43.1572 149.559 43.2618 149.499 43.3792L141.65 58.7394C141.529 58.9775 141.507 59.2538 141.59 59.5078C141.672 59.7618 141.852 59.9728 142.09 60.0946C142.142 60.1224 142.198 60.1441 142.255 60.1594C142.481 60.2291 142.725 60.2168 142.942 60.1245C143.16 60.0321 143.338 59.8658 143.445 59.6549L151.287 44.2946C151.408 44.0566 151.429 43.7802 151.347 43.5262C151.265 43.2722 151.085 43.0613 150.847 42.9395Z" fill="#2563EB"/>
<path d="M181.064 89.5392C181.049 89.2721 180.929 89.0217 180.731 88.8423C180.532 88.6628 180.271 88.5688 180.004 88.5806L162.777 89.4744C162.542 89.4892 162.32 89.5855 162.149 89.7466C161.978 89.9077 161.868 90.1236 161.839 90.3568C161.81 90.5901 161.863 90.8261 161.99 91.0243C162.116 91.2224 162.308 91.3702 162.532 91.4421C162.645 91.4716 162.761 91.4861 162.878 91.4854L180.112 90.5916C180.244 90.5852 180.373 90.5528 180.492 90.4964C180.611 90.4399 180.718 90.3606 180.806 90.2628C180.894 90.1651 180.963 90.0509 181.007 89.9267C181.051 89.8026 181.071 89.6708 181.064 89.5392Z" fill="#2563EB"/>
<path d="M172.198 62.1916C172.053 61.9675 171.825 61.8098 171.565 61.7531C171.304 61.6963 171.031 61.7451 170.807 61.8888L156.333 71.2592C156.222 71.3308 156.126 71.4237 156.051 71.5325C155.976 71.6414 155.923 71.764 155.895 71.8933C155.868 72.0226 155.866 72.1561 155.891 72.2861C155.915 72.416 155.965 72.5398 156.037 72.6504C156.164 72.8492 156.359 72.9952 156.585 73.0613C156.726 73.1046 156.874 73.1168 157.02 73.0969C157.165 73.077 157.305 73.0255 157.429 72.946L171.902 63.5756C172.125 63.431 172.281 63.2041 172.336 62.9447C172.391 62.6853 172.342 62.4144 172.198 62.1916Z" fill="#2563EB"/>
<path d="M177.748 146.929C177.932 146.86 178.094 146.745 178.22 146.594C178.347 146.444 178.432 146.264 178.469 146.071C178.576 145.589 178.53 145.086 178.339 144.63L178.101 144.075L177.813 143.397C177.698 143.131 177.561 142.828 177.402 142.496C176.54 140.613 175.56 138.786 174.469 137.025C172.917 134.532 171.151 132.178 169.192 129.99C168.125 128.801 166.972 127.612 165.74 126.487C164.507 125.363 163.231 124.282 161.905 123.273C159.358 121.338 156.655 119.616 153.825 118.126C151.437 116.87 148.975 115.763 146.451 114.81C144.289 113.989 142.436 113.412 141.146 113.044C140.504 112.857 139.992 112.713 139.654 112.626L139.12 112.482L138.854 112.432L138.515 112.345C137.128 111.973 135.653 112.125 134.37 112.771C133.814 113.042 133.33 113.439 132.954 113.931C132.579 114.423 132.323 114.995 132.208 115.603C132.105 116.225 132.15 116.862 132.338 117.463H132.201C130.868 117.209 129.489 117.494 128.366 118.256C127.868 118.59 127.451 119.03 127.144 119.545C126.838 120.059 126.649 120.636 126.593 121.233C126.523 122.144 126.729 123.056 127.184 123.849C127.622 124.629 128.258 125.278 129.029 125.731C128.581 126.326 128.294 127.025 128.193 127.763C128.066 128.711 128.219 129.676 128.633 130.538C129.011 131.34 129.618 132.012 130.377 132.47C129.976 133.038 129.705 133.688 129.584 134.373C129.366 135.507 129.531 136.68 130.053 137.71C130.261 138.156 130.561 138.552 130.934 138.872C131.307 139.193 131.744 139.431 132.215 139.57L133.275 139.865C133.902 140.046 134.716 140.305 135.552 140.586C136.388 140.867 137.16 141.184 137.715 141.422L138.436 141.725L138.702 141.84C138.761 141.87 138.824 141.89 138.89 141.898L139.113 141.999L139.733 142.295C140.259 142.554 141.009 142.936 141.859 143.426C142.803 143.971 143.717 144.566 144.598 145.207C145.553 145.916 146.461 146.686 147.316 147.513C148.129 148.312 148.885 149.167 149.579 150.072C150.17 150.86 150.71 151.686 151.194 152.544C151.619 153.301 151.915 153.986 152.145 154.433C152.253 154.663 152.325 154.865 152.383 154.988L154.171 159.039C154.358 159.5 156.542 157.958 157.241 157.705L177.748 146.929Z" fill="white"/>
<path d="M154.502 160.466C154.181 160.503 153.858 160.437 153.578 160.278C153.298 160.118 153.076 159.874 152.945 159.579C152.656 158.916 151.287 155.824 151.164 155.536C151.132 155.47 151.103 155.403 151.078 155.334C151.034 155.233 150.998 155.132 150.941 155.024C150.71 154.512 150.422 153.914 150.04 153.229C149.58 152.426 149.072 151.651 148.519 150.908C147.855 150.054 147.132 149.247 146.356 148.494C145.549 147.715 144.689 146.992 143.783 146.331C142.944 145.718 142.073 145.15 141.174 144.63C140.367 144.169 139.66 143.808 139.134 143.549L138.413 143.217C138.312 143.189 138.213 143.153 138.118 143.109L137.865 142.994L137.145 142.698C136.503 142.432 135.703 142.136 135.04 141.898C134.117 141.574 133.259 141.314 132.827 141.177L132.027 140.954L131.796 140.889C131.143 140.701 130.537 140.377 130.018 139.939C129.499 139.5 129.078 138.957 128.783 138.345C128.125 137.054 127.915 135.58 128.185 134.157C128.262 133.709 128.39 133.271 128.567 132.852C128.063 132.356 127.651 131.776 127.349 131.137C126.817 130.041 126.622 128.812 126.787 127.605C126.857 127.094 126.995 126.594 127.198 126.12C126.697 125.66 126.272 125.125 125.936 124.534C125.347 123.505 125.084 122.321 125.179 121.139C125.254 120.348 125.502 119.582 125.905 118.897C126.309 118.212 126.859 117.624 127.515 117.175C128.467 116.518 129.582 116.137 130.737 116.072C130.737 115.856 130.773 115.639 130.809 115.416C130.958 114.608 131.292 113.845 131.785 113.188C132.277 112.53 132.915 111.995 133.649 111.625C134.45 111.216 135.325 110.971 136.222 110.904C137.071 110.83 137.926 110.901 138.752 111.113L139.026 111.178L139.357 111.25L139.898 111.394C140.244 111.48 140.756 111.625 141.419 111.819C143.207 112.331 145.023 112.944 146.825 113.621C149.404 114.592 151.92 115.723 154.357 117.009C157.253 118.533 160.019 120.292 162.625 122.271C163.987 123.309 165.306 124.433 166.561 125.565C167.815 126.697 168.918 127.85 170.1 129.169C172.109 131.41 173.921 133.822 175.513 136.377C176.636 138.182 177.643 140.058 178.526 141.992L178.663 142.28C178.771 142.511 178.865 142.727 178.951 142.922L179.477 144.176C179.779 144.886 179.85 145.673 179.679 146.425C179.595 146.811 179.419 147.171 179.169 147.477C178.918 147.783 178.6 148.025 178.238 148.184L157.709 158.996H157.623C157.486 159.046 157.039 159.298 156.743 159.471C156.064 159.939 155.304 160.277 154.502 160.466ZM153.363 153.871C153.449 154.051 153.514 154.209 153.564 154.325C153.581 154.365 153.595 154.406 153.608 154.447L154.92 157.417L155.475 157.1C155.862 156.864 156.264 156.652 156.678 156.466L177.135 145.711C177.163 145.523 177.138 145.331 177.062 145.156L176.544 143.924C176.472 143.751 176.378 143.556 176.284 143.347L176.147 143.051C174.11 138.621 171.418 134.522 168.161 130.892C167.1 129.699 165.978 128.561 164.802 127.482C163.613 126.387 162.351 125.32 161.054 124.339C158.569 122.44 155.928 120.752 153.161 119.294C150.827 118.063 148.42 116.977 145.953 116.043C144.216 115.387 142.464 114.803 140.749 114.306L139.307 113.902L138.774 113.758H138.673H138.601L138.183 113.65C137.648 113.515 137.096 113.469 136.546 113.513C136.006 113.56 135.479 113.711 134.997 113.96C134.426 114.224 133.971 114.688 133.72 115.265C133.469 115.842 133.439 116.491 133.634 117.088L134.269 119.186L131.976 118.768C131.62 118.703 131.256 118.688 130.895 118.724C130.267 118.77 129.663 118.981 129.144 119.337C128.808 119.561 128.526 119.857 128.319 120.204C128.112 120.551 127.985 120.939 127.947 121.341C127.895 121.982 128.041 122.624 128.365 123.179C128.685 123.751 129.153 124.227 129.72 124.556L131.025 125.32L130.11 126.524C129.798 126.947 129.602 127.443 129.54 127.965C129.446 128.652 129.557 129.352 129.857 129.976C130.116 130.541 130.537 131.016 131.068 131.338L132.33 132.059L131.479 133.249C131.194 133.658 131.002 134.126 130.917 134.618C130.757 135.457 130.876 136.326 131.256 137.091C131.382 137.364 131.562 137.61 131.785 137.813C132.008 138.016 132.269 138.172 132.553 138.273C132.755 138.316 133.072 138.41 133.663 138.575C134.125 138.712 135.04 138.986 136.02 139.296C136.741 139.548 137.577 139.866 138.283 140.154L139.221 140.565H139.314L139.956 140.86L140.352 141.048C140.922 141.329 141.678 141.718 142.558 142.223C143.551 142.791 144.514 143.411 145.441 144.082C146.456 144.826 147.419 145.637 148.324 146.511C149.186 147.356 149.986 148.262 150.717 149.222C151.313 150.088 151.855 150.991 152.339 151.925C152.829 152.725 153.175 153.467 153.355 153.871H153.363Z" fill="black"/>
<path d="M114.367 68.0957L150.033 76.3489V127.742C150.033 133.508 148.31 136.111 143.041 140.298C135.271 146.468 114.367 162.6 114.367 162.6C114.367 162.6 93.464 146.468 85.6938 140.298C80.4247 136.111 78.6948 133.48 78.6948 127.742V76.3489L114.367 68.0957Z" fill="#2563EB"/>
<path d="M114.368 164.503C113.948 164.505 113.539 164.365 113.208 164.106C112.998 163.948 92.2033 147.895 84.5124 141.761C79.1784 137.523 76.7998 134.488 76.7998 127.713V76.3198C76.7984 75.8943 76.9397 75.4806 77.201 75.1448C77.4624 74.809 77.8286 74.5705 78.2414 74.4673L113.907 66.2141C114.189 66.1493 114.482 66.1493 114.765 66.2141L150.437 74.4673C150.85 74.5705 151.216 74.809 151.477 75.1448C151.739 75.4806 151.88 75.8943 151.879 76.3198V127.713C151.879 134.488 149.5 137.523 144.166 141.761C136.475 147.867 115.68 163.919 115.471 164.106C115.155 164.353 114.769 164.492 114.368 164.503ZM80.5985 77.8623V127.742C80.5985 132.629 81.831 134.806 86.8766 138.806C93.4936 144.068 109.863 156.718 114.368 160.199C118.873 156.718 135.271 144.068 141.859 138.806C146.905 134.806 148.138 132.629 148.138 127.742V77.8623L114.368 70.0488L80.5985 77.8623Z" fill="black"/>
<path d="M158.604 125.925C151.165 124.361 146.235 124.887 139.056 126.502C138.517 126.635 138.012 126.88 137.574 127.222C137.136 127.563 136.776 127.993 136.516 128.484C136.256 128.975 136.103 129.515 136.066 130.069C136.029 130.623 136.11 131.178 136.302 131.699C137.023 134.236 138.883 135.065 140.8 134.517C145.781 133.263 148.916 132.766 154.214 133.796C152.528 140.875 154.762 148.933 160.975 151.528L158.604 125.925Z" fill="white"/>
<path d="M161.083 152.811C160.879 152.833 160.673 152.801 160.485 152.717C158.819 151.966 157.33 150.872 156.117 149.505C154.903 148.139 153.992 146.532 153.443 144.788C152.369 141.589 152.121 138.17 152.722 134.849C148.577 134.171 145.752 134.582 141.124 135.742C138.342 136.528 135.978 135.086 135.091 132.066C134.863 131.365 134.779 130.625 134.845 129.89C134.911 129.156 135.124 128.442 135.473 127.792C135.825 127.183 136.294 126.649 136.853 126.222C137.412 125.795 138.051 125.484 138.731 125.305H138.782C146.098 123.655 151.215 123.143 158.863 124.721C159.025 124.755 159.178 124.82 159.314 124.913C159.45 125.006 159.567 125.124 159.657 125.262C159.748 125.4 159.81 125.554 159.841 125.716C159.871 125.878 159.87 126.045 159.836 126.206C159.803 126.368 159.737 126.521 159.645 126.657C159.552 126.793 159.433 126.91 159.295 127C159.157 127.091 159.003 127.153 158.841 127.184C158.679 127.214 158.513 127.213 158.351 127.179C151.143 125.666 146.458 126.156 139.365 127.749C138.651 127.938 138.04 128.402 137.664 129.039C137.48 129.397 137.371 129.789 137.344 130.19C137.317 130.592 137.372 130.995 137.506 131.374C138.003 133.068 139.019 133.746 140.454 133.335H140.497C145.86 131.987 149.147 131.562 154.459 132.614C154.625 132.648 154.782 132.715 154.922 132.81C155.062 132.905 155.181 133.027 155.274 133.169C155.365 133.312 155.426 133.472 155.453 133.639C155.48 133.807 155.473 133.978 155.432 134.142C154.634 137.388 154.769 140.794 155.821 143.967C156.251 145.385 156.976 146.697 157.948 147.815C158.921 148.933 160.12 149.832 161.465 150.454C161.725 150.562 161.94 150.755 162.077 151C162.214 151.246 162.265 151.53 162.221 151.808C162.177 152.086 162.04 152.341 161.834 152.532C161.628 152.723 161.363 152.839 161.083 152.862V152.811Z" fill="black"/>
<path d="M156.311 177.008L189.872 177.16V176.604C189.872 176.432 189.872 176.208 189.872 175.949C189.872 175.689 189.872 175.401 189.836 175.084C189.8 174.766 189.836 174.363 189.786 174.01C189.735 173.656 189.728 173.224 189.685 172.791C189.685 172.575 189.648 172.352 189.627 172.121C189.605 171.89 189.576 171.667 189.555 171.4C189.49 170.932 189.439 170.427 189.36 169.959C189.044 167.758 188.611 165.576 188.063 163.421C187.493 161.143 186.787 158.837 186.008 156.617C184.615 152.678 182.985 148.827 181.129 145.084C180.408 143.563 179.687 142.309 179.233 141.415C178.981 140.954 178.779 140.6 178.649 140.355C178.519 140.11 178.426 139.959 178.426 139.959L149.276 156.595L149.392 156.804L149.745 157.438C150.055 158.008 150.509 158.88 151.028 159.925C152.279 162.452 153.379 165.052 154.322 167.71C154.812 169.101 155.216 170.456 155.518 171.66C155.78 172.669 155.987 173.692 156.138 174.723C156.138 174.932 156.182 175.112 156.211 175.293C156.239 175.473 156.211 175.473 156.211 175.552V175.776C156.211 175.92 156.21 176.057 156.246 176.179C156.283 176.302 156.246 176.403 156.246 176.496C156.246 176.59 156.246 176.677 156.246 176.749V177.044L156.311 177.008Z" fill="#2563EB"/>
<path d="M189.872 178.947C189.398 178.947 188.943 178.759 188.608 178.424C188.273 178.089 188.084 177.634 188.084 177.16V175.985L188.005 174.111C188.005 173.801 187.955 173.469 187.918 173.116L187.846 172.28C187.846 172.15 187.847 172.006 187.803 171.862L187.731 171.256C187.688 170.91 187.645 170.536 187.594 170.219C187.285 168.076 186.864 165.952 186.333 163.854C185.778 161.691 185.1 159.435 184.322 157.208C182.954 153.326 181.354 149.53 179.529 145.841C178.808 144.356 178.159 143.16 177.741 142.374L151.684 157.244C151.951 157.741 152.275 158.368 152.635 159.096C153.918 161.692 155.047 164.362 156.016 167.09C156.492 168.46 156.924 169.872 157.256 171.184C157.53 172.253 157.746 173.336 157.904 174.428C157.931 174.559 157.948 174.691 157.955 174.824V175.012V175.084C157.955 175.17 157.955 175.25 157.955 175.322L158.005 175.927V176.028V176.547V176.951C158.005 177.429 157.815 177.887 157.477 178.225C157.14 178.563 156.681 178.753 156.203 178.753C155.725 178.753 155.267 178.563 154.929 178.225C154.591 177.887 154.401 177.429 154.401 176.951V176.504C154.398 176.49 154.398 176.475 154.401 176.461V176.201V175.841V175.632C154.401 175.632 154.401 175.632 154.401 175.574C154.398 175.533 154.398 175.492 154.401 175.452C154.401 175.365 154.401 175.279 154.365 175.192C154.329 175.106 154.365 175.026 154.365 174.933C154.228 173.961 154.035 172.999 153.789 172.049C153.486 170.846 153.068 169.534 152.643 168.265C151.723 165.673 150.65 163.139 149.428 160.675C148.866 159.536 148.404 158.664 148.174 158.253L147.72 157.431C147.604 157.228 147.529 157.004 147.5 156.771C147.472 156.539 147.489 156.304 147.551 156.078C147.613 155.852 147.719 155.641 147.863 155.457C148.007 155.272 148.186 155.118 148.39 155.002L177.568 138.373C177.981 138.137 178.471 138.075 178.93 138.2C179.386 138.331 179.774 138.633 180.011 139.044L180.228 139.433L180.811 140.493C181.251 141.307 181.943 142.605 182.75 144.234C184.635 148.056 186.294 151.987 187.717 156.004C188.524 158.325 189.231 160.668 189.814 162.96C190.378 165.176 190.823 167.421 191.148 169.685C191.205 170.067 191.249 170.406 191.292 170.81L191.364 171.415C191.364 171.588 191.407 171.754 191.422 171.927L191.501 172.792C191.501 173.174 191.559 173.513 191.588 173.866L191.674 175.819V177.153C191.674 177.627 191.486 178.081 191.15 178.417C190.815 178.752 190.36 178.94 189.886 178.94L189.872 178.947Z" fill="#2563EB"/>
<path d="M181.46 172.107C181.608 172.145 181.764 172.14 181.908 172.091C182.053 172.043 182.18 171.953 182.275 171.833C182.34 171.752 182.389 171.658 182.418 171.558C182.448 171.458 182.457 171.353 182.446 171.249C182.434 171.145 182.402 171.045 182.352 170.953C182.302 170.862 182.234 170.781 182.152 170.716C178.735 167.97 173.856 165.807 167.65 164.294C164.923 163.625 162.153 163.143 159.36 162.852C159.15 162.833 158.941 162.898 158.779 163.033C158.616 163.168 158.515 163.362 158.495 163.573C158.476 163.783 158.542 163.992 158.677 164.154C158.812 164.317 159.006 164.419 159.216 164.438C159.36 164.438 173.423 165.764 181.157 171.977C181.249 172.04 181.352 172.084 181.46 172.107Z" fill="black"/>
<path d="M159.202 161.208C159.348 161.251 159.503 161.251 159.649 161.208C159.771 161.208 171.902 157.237 181.604 160.437C181.805 160.501 182.023 160.483 182.21 160.387C182.398 160.291 182.54 160.125 182.606 159.925C182.639 159.826 182.652 159.722 182.644 159.618C182.636 159.514 182.608 159.413 182.562 159.32C182.515 159.227 182.45 159.144 182.371 159.076C182.292 159.008 182.201 158.956 182.102 158.923C171.902 155.564 159.663 159.536 159.151 159.702C158.99 159.758 158.85 159.864 158.753 160.005C158.656 160.145 158.607 160.314 158.613 160.485C158.618 160.655 158.679 160.82 158.785 160.954C158.891 161.088 159.037 161.185 159.202 161.23V161.208Z" fill="black"/>
<path d="M105.571 132.923L87.877 115.217L95.9403 107.148L105.571 116.814L133.721 88.6152L141.785 96.6841L105.571 132.923Z" fill="white"/>
</svg>
