<svg viewBox="0 0 260 260" fill="none" xmlns="http://www.w3.org/2000/svg">
<g clip-path="url(#clip0_2588_64886)">
<rect fill="white"/>
<mask id="mask0_2588_64886" style="mask-type:alpha" maskUnits="userSpaceOnUse" x="0" y="0" width="202" height="202">
<circle cx="101.333" cy="101.333" r="100.667" fill="#D9D9D9"/>
</mask>
<g mask="url(#mask0_2588_64886)">
<rect x="-53.7925" y="-50.4922" width="359.76" height="262.393" fill="white"/>
<path d="M59.2515 227.58L81.9155 156.483C84.3321 150.304 88.4187 144.918 93.7195 140.927C99.0202 136.937 105.326 134.498 111.933 133.885L144.359 130.874L176.361 138.594C180.933 139.696 185.215 141.77 188.913 144.676C192.612 147.582 195.64 151.251 197.793 155.433L201.197 189.009C201.197 189.009 59.2515 227.325 59.2515 227.58Z" fill="#2B68E8"/>
<path d="M69.1918 189.773C69.0973 189.774 69.0038 189.758 68.9144 189.727C68.8194 189.69 68.7324 189.635 68.6588 189.564C68.5852 189.494 68.5263 189.41 68.4854 189.317C68.4445 189.224 68.4224 189.123 68.4205 189.021C68.4186 188.919 68.4367 188.818 68.4741 188.723L81.1971 156.197C83.6468 149.874 87.8164 144.362 93.234 140.284C98.6516 136.206 105.101 133.725 111.855 133.12L144.281 130.109C144.363 130.093 144.447 130.093 144.529 130.109L176.538 137.829C181.219 138.956 185.601 141.08 189.387 144.055C193.172 147.03 196.271 150.787 198.472 155.069C198.513 155.154 198.539 155.246 198.549 155.34L201.962 188.916C201.973 189.017 201.963 189.119 201.934 189.217C201.905 189.314 201.858 189.405 201.794 189.483C201.73 189.562 201.652 189.628 201.562 189.676C201.473 189.724 201.375 189.755 201.274 189.765C201.173 189.776 201.071 189.767 200.973 189.738C200.875 189.708 200.784 189.66 200.705 189.595C200.626 189.53 200.561 189.451 200.513 189.361C200.465 189.271 200.435 189.172 200.425 189.071L197.028 155.641C194.922 151.59 191.971 148.037 188.375 145.223C184.779 142.409 180.622 140.398 176.183 139.327L144.305 131.607L111.971 134.61C105.507 135.194 99.3348 137.573 94.1508 141.479C88.9668 145.384 84.9774 150.661 82.6334 156.714L69.9104 189.241C69.8607 189.393 69.7646 189.526 69.6359 189.621C69.5073 189.717 69.352 189.77 69.1918 189.773Z" fill="black"/>
<path d="M161.444 135.267L166.076 118.359L137.935 110.584L131.959 132.202C129.18 132.202 126.439 132.356 123.721 132.557C124.91 147.55 133.141 159.278 143.911 160.019C154.387 160.737 163.914 150.823 167.396 136.757C165.428 136.208 163.428 135.722 161.444 135.267Z" fill="white"/>
<path d="M144.976 160.83C144.605 160.83 144.204 160.83 143.856 160.83C132.978 160.058 124.184 148.238 122.949 132.658C122.941 132.556 122.954 132.454 122.986 132.357C123.018 132.26 123.068 132.171 123.134 132.094C123.268 131.941 123.456 131.846 123.659 131.831C126.222 131.638 128.817 131.515 131.38 131.476L137.193 110.415C137.249 110.218 137.379 110.052 137.556 109.951C137.735 109.851 137.946 109.826 138.143 109.882L166.292 117.656C166.489 117.712 166.655 117.843 166.755 118.021C166.854 118.199 166.879 118.41 166.825 118.606L162.37 134.734C164.316 135.182 166.038 135.614 167.613 136.055C167.805 136.109 167.969 136.236 168.069 136.409C168.17 136.581 168.201 136.786 168.153 136.981C164.617 151.194 155.19 160.83 144.976 160.83ZM124.555 133.275C125.952 147.697 134.036 158.568 143.965 159.247C153.677 159.919 162.841 150.924 166.455 137.297C164.91 136.881 163.181 136.456 161.236 136.016C161.134 135.992 161.038 135.949 160.954 135.888C160.869 135.826 160.799 135.749 160.746 135.659C160.692 135.57 160.657 135.471 160.643 135.367C160.629 135.264 160.636 135.159 160.664 135.059L165.126 118.899L138.468 111.534L132.7 132.379C132.655 132.548 132.554 132.696 132.414 132.8C132.274 132.903 132.102 132.957 131.928 132.951C129.519 133.005 127.033 133.105 124.555 133.275Z" fill="black"/>
<path d="M160.672 137.984L166.076 118.358L148.203 113.417L140.637 118.551C143.007 127.299 150.002 134.363 160.672 137.984Z" fill="black"/>
<path d="M161.661 120.088C169.591 120.088 177.196 116.937 182.804 111.33C188.412 105.722 191.562 98.1166 191.562 90.1862V88.5957C191.562 80.6653 188.412 73.0598 182.804 67.4521C177.196 61.8445 169.591 58.6942 161.661 58.6942C153.73 58.6942 146.124 61.8445 140.517 67.4521C134.909 73.0598 131.759 80.6653 131.759 88.5957V90.1862C131.759 98.1166 134.909 105.722 140.517 111.33C146.124 116.937 153.73 120.088 161.661 120.088Z" fill="black"/>
<path d="M129.389 86.0873C129.389 99.8683 140.561 111.04 154.342 111.04C168.123 111.04 179.294 99.8683 179.294 86.0873V80.9837C179.294 67.2027 168.123 56.0311 154.342 56.0311C140.561 56.0311 129.389 67.2027 129.389 80.9837V86.0873Z" fill="black"/>
<path d="M127.157 78.1734C127.104 78.181 127.049 78.181 126.995 78.1734C126.796 78.1308 126.622 78.0112 126.511 77.8406C126.399 77.6699 126.36 77.4622 126.401 77.2626C128.03 69.5884 131.736 63.8441 137.426 60.1923C143.386 56.332 151.523 55.0814 159.205 56.7799C159.41 56.8239 159.589 56.9474 159.703 57.1233C159.816 57.2992 159.855 57.513 159.811 57.7178C159.767 57.9226 159.644 58.1018 159.468 58.2154C159.292 58.3291 159.078 58.368 158.873 58.324C151.585 56.7027 143.88 57.8995 138.259 61.5204C132.932 64.9483 129.451 70.3603 127.914 77.6098C127.868 77.7742 127.769 77.9188 127.632 78.0208C127.495 78.1227 127.328 78.1763 127.157 78.1734Z" fill="black"/>
<path d="M185.695 93.2442L182.166 93.3139V93.136C182.167 89.826 181.516 86.5485 180.251 83.4902C178.985 80.4319 177.128 77.6529 174.788 75.312C172.448 72.9712 169.67 71.1146 166.612 69.8477C163.554 68.5808 160.277 67.9285 156.967 67.9285H155.546C151.073 67.9287 146.68 69.1196 142.818 71.3786C138.957 73.6377 135.766 76.8834 133.574 80.7831L131.952 80.2968C131.162 80.0447 130.33 79.9526 129.505 80.0262C128.679 80.0997 127.876 80.3374 127.143 80.7251C126.411 81.1128 125.763 81.6429 125.237 82.2843C124.712 82.9256 124.32 83.665 124.085 84.4598C123.849 85.2546 123.774 86.0884 123.864 86.9124C123.955 87.7365 124.209 88.5345 124.612 89.2591C125.014 89.9837 125.557 90.6203 126.209 91.1323C126.861 91.6443 127.609 92.0213 128.408 92.2406L130.346 92.8118C130.346 92.9198 130.346 93.0279 130.346 93.136V102.779C130.346 109.465 133.002 115.876 137.73 120.603C142.457 125.331 148.868 127.987 155.554 127.987H156.974C163.141 127.983 169.092 125.72 173.702 121.626C178.313 117.531 181.264 111.89 181.997 105.767L185.934 105.69C187.552 105.611 189.077 104.905 190.183 103.722C191.29 102.538 191.892 100.971 191.861 99.3508C191.831 97.7309 191.172 96.1864 190.022 95.045C188.872 93.9035 187.322 93.2549 185.702 93.2366L185.695 93.2442Z" fill="white"/>
<path d="M156.967 128.766H155.546C148.659 128.758 142.055 126.018 137.184 121.148C132.314 116.278 129.575 109.674 129.566 102.787V93.3907L128.184 92.9817C127.28 92.7404 126.433 92.3201 125.693 91.7456C124.954 91.1711 124.337 90.4541 123.879 89.6372C123.422 88.8202 123.133 87.9199 123.03 86.9893C122.926 86.0586 123.011 85.1167 123.278 84.2192C123.545 83.3217 123.989 82.4867 124.584 81.764C125.18 81.0412 125.913 80.4451 126.743 80.011C127.573 79.5769 128.481 79.3136 129.414 79.2367C130.347 79.1598 131.286 79.2711 132.176 79.5635L133.21 79.8723C135.515 76.0019 138.785 72.7957 142.7 70.5669C146.615 68.3382 151.041 67.163 155.546 67.1564H156.967C163.748 67.1645 170.258 69.8213 175.108 74.5606C179.959 79.2999 182.766 85.747 182.931 92.5263L185.679 92.472C187.535 92.4411 189.328 93.1461 190.666 94.4331C191.665 95.3927 192.356 96.627 192.652 97.9797C192.948 99.3324 192.836 100.743 192.33 102.032C191.824 103.321 190.947 104.43 189.81 105.22C188.673 106.01 187.326 106.445 185.942 106.469L182.668 106.531C181.77 112.707 178.678 118.353 173.959 122.436C169.239 126.519 163.207 128.766 156.967 128.766ZM130.169 80.814C129.266 80.817 128.377 81.0424 127.582 81.4703C126.631 81.9836 125.854 82.7677 125.35 83.7231C124.845 84.6786 124.635 85.7625 124.746 86.8373C124.858 87.9122 125.286 88.9299 125.976 89.7612C126.667 90.5925 127.589 91.2 128.625 91.507L130.57 92.086C130.734 92.1356 130.877 92.2384 130.976 92.3782C131.076 92.518 131.125 92.6868 131.118 92.8581V102.779C131.126 109.257 133.704 115.468 138.284 120.048C142.865 124.629 149.076 127.206 155.554 127.214H156.974C162.953 127.215 168.724 125.023 173.195 121.053C177.666 117.083 180.525 111.611 181.232 105.674C181.255 105.486 181.346 105.312 181.488 105.187C181.631 105.062 181.814 104.994 182.004 104.995L185.942 104.918C187.357 104.845 188.687 104.226 189.654 103.19C190.62 102.154 191.145 100.782 191.119 99.3658C191.093 97.9494 190.518 96.5988 189.514 95.5991C188.51 94.5993 187.157 94.029 185.741 94.0086L182.213 94.078C182.11 94.0796 182.008 94.0606 181.912 94.0222C181.817 93.9837 181.73 93.9265 181.656 93.854C181.584 93.7825 181.526 93.6974 181.486 93.6033C181.446 93.5093 181.425 93.4081 181.425 93.3059V93.1284C181.419 86.6509 178.843 80.4403 174.264 75.8593C169.684 71.2783 163.475 68.7011 156.998 68.693H155.577C151.243 68.699 146.987 69.8557 143.246 72.0451C139.505 74.2344 136.412 77.3779 134.284 81.154C134.198 81.3074 134.062 81.4266 133.899 81.4925C133.737 81.5585 133.557 81.5671 133.388 81.5167L131.766 81.0304C131.247 80.8834 130.709 80.8104 130.169 80.814Z" fill="black"/>
<path d="M183.447 93.0438C178.985 90.0328 175.727 79.5175 175.727 67.0025V66.9637C180.15 70.0133 183.447 80.5289 183.447 93.0438Z" fill="black"/>
<path d="M130.909 89.3375H130.778C130.577 89.3035 130.396 89.191 130.278 89.0246C130.159 88.8582 130.111 88.6514 130.145 88.4497C130.286 87.5788 130.171 86.6858 129.815 85.8787C129.458 85.0716 128.876 84.385 128.138 83.9022C128.05 83.8499 127.974 83.7807 127.913 83.6986C127.853 83.6166 127.809 83.5237 127.784 83.4246C127.76 83.3255 127.755 83.2223 127.771 83.1215C127.786 83.0207 127.822 82.9239 127.875 82.8369C127.98 82.6621 128.152 82.5362 128.35 82.487C128.548 82.4378 128.757 82.4694 128.933 82.5745C129.937 83.2177 130.731 84.1409 131.217 85.2303C131.703 86.3197 131.859 87.5275 131.666 88.7045C131.633 88.8818 131.54 89.0421 131.402 89.1577C131.264 89.2733 131.09 89.3368 130.909 89.3375Z" fill="black"/>
<path d="M183.061 102.153H182.984C182.884 102.143 182.786 102.113 182.696 102.064C182.607 102.016 182.528 101.95 182.464 101.871C182.4 101.792 182.353 101.702 182.324 101.605C182.295 101.507 182.286 101.405 182.297 101.304C182.425 100.119 182.898 98.9977 183.657 98.0783C184.416 97.159 185.427 96.4823 186.566 96.1316C186.764 96.0763 186.976 96.1019 187.155 96.2025C187.333 96.3031 187.465 96.4705 187.52 96.6681C187.576 96.8657 187.55 97.0773 187.449 97.2562C187.349 97.435 187.181 97.5662 186.983 97.6214C186.14 97.8894 185.393 98.3975 184.834 99.083C184.274 99.7685 183.927 100.602 183.833 101.482C183.809 101.669 183.717 101.84 183.575 101.964C183.433 102.088 183.25 102.155 183.061 102.153Z" fill="black"/>
<path d="M164.046 87.7162C163.675 88.6812 165.544 90.3025 168.223 91.337C170.902 92.3716 173.38 92.4178 173.751 91.4528C174.121 90.4877 172.253 88.8665 169.574 87.8319C166.895 86.7974 164.416 86.7511 164.046 87.7162Z" fill="black"/>
<path d="M144.792 86.3265C144.861 87.361 147.247 88.0404 150.112 87.8706C152.976 87.7007 155.238 86.6738 155.168 85.6393C155.099 84.6047 152.713 83.9253 149.849 84.0951C146.985 84.265 144.722 85.2919 144.792 86.3265Z" fill="black"/>
<path d="M156.341 103.728C156.136 103.738 155.936 103.667 155.784 103.529C155.632 103.391 155.54 103.199 155.53 102.994C155.52 102.789 155.592 102.589 155.729 102.437C155.867 102.285 156.059 102.194 156.264 102.184C156.627 102.147 156.979 102.034 157.296 101.852C157.613 101.67 157.887 101.422 158.101 101.126C158.318 100.831 158.471 100.494 158.549 100.136C158.628 99.7781 158.63 99.4078 158.557 99.049L157.183 92.4017C157.162 92.3003 157.161 92.1957 157.181 92.0941C157.2 91.9925 157.24 91.8959 157.297 91.8095C157.354 91.7231 157.427 91.6488 157.513 91.5908C157.599 91.5328 157.695 91.4921 157.797 91.4713C157.898 91.4505 158.002 91.4498 158.104 91.4694C158.205 91.489 158.302 91.5286 158.389 91.5856C158.475 91.6426 158.549 91.7158 158.607 91.8016C158.665 91.8873 158.706 91.9837 158.727 92.0851L160.101 98.7402C160.218 99.3096 160.215 99.8972 160.092 100.465C159.968 101.033 159.727 101.569 159.384 102.038C159.04 102.508 158.602 102.9 158.098 103.189C157.594 103.479 157.035 103.66 156.457 103.72L156.341 103.728Z" fill="black"/>
<path d="M152.373 115.765C151.589 115.768 150.817 115.574 150.127 115.201C147.231 113.657 146.266 109.527 146.212 109.349C146.166 109.15 146.202 108.94 146.31 108.766C146.419 108.593 146.591 108.469 146.791 108.423C146.991 108.377 147.201 108.412 147.375 108.521C147.548 108.629 147.672 108.802 147.718 109.002C147.718 109.002 148.583 112.646 150.853 113.843C151.349 114.083 151.892 114.207 152.443 114.207C152.994 114.207 153.538 114.083 154.034 113.843C154.225 113.768 154.438 113.772 154.626 113.855C154.814 113.937 154.962 114.091 155.037 114.283C155.112 114.474 155.108 114.687 155.025 114.876C154.943 115.064 154.788 115.212 154.597 115.287C153.891 115.58 153.138 115.742 152.373 115.765Z" fill="black"/>
<path d="M147.887 62.6317C143.333 64.0992 139.021 66.2354 135.094 68.9702C135.205 69.9076 135.412 70.8311 135.712 71.7263C137.163 76.0343 140.552 79.2618 144.976 81.0761C147.831 80.588 150.642 79.8753 153.384 78.945C165.119 75.0076 173.411 68.1363 171.913 63.6506C170.415 59.165 159.623 58.6942 147.887 62.6317Z" fill="black"/>
<path d="M184.304 76.3669C187.477 80.6904 188.318 85.4695 187.338 89.3915C186.427 89.6406 185.493 89.7932 184.551 89.8469C180.011 90.1171 175.749 88.1794 172.422 84.7747C173.618 81.8563 171.882 76.0734 167.836 71.7421C159.39 62.6937 174.769 63.4042 184.304 76.3669Z" fill="black"/>
<path d="M149.377 93.862C149.3 95.6146 150.149 97.0737 151.253 97.1278C152.357 97.1818 153.338 95.7921 153.415 94.0396C153.492 92.287 152.643 90.8278 151.531 90.7738C150.42 90.7198 149.455 92.1095 149.377 93.862Z" fill="black"/>
<path d="M165.767 97.799C165.69 99.5593 166.54 101.018 167.644 101.065C168.748 101.111 169.728 99.7291 169.805 97.9766C169.882 96.224 169.033 94.7651 167.921 94.7187C166.809 94.6724 165.844 96.0465 165.767 97.799Z" fill="black"/>
<path d="M167.351 62.3853H167.304C167.202 62.3794 167.102 62.3532 167.01 62.3084C166.918 62.2636 166.837 62.2009 166.769 62.1241C166.701 62.0472 166.649 61.9575 166.617 61.8605C166.584 61.7636 166.572 61.661 166.579 61.559C166.803 58.0461 162.518 56.0002 162.471 55.977C162.378 55.9352 162.294 55.8751 162.223 55.8002C162.153 55.7254 162.099 55.6374 162.063 55.5413C162.027 55.4451 162.011 55.3426 162.015 55.24C162.02 55.1375 162.044 55.037 162.088 54.9441C162.131 54.8512 162.193 54.7678 162.269 54.6991C162.346 54.6303 162.434 54.5777 162.531 54.5438C162.628 54.5098 162.731 54.4954 162.833 54.5015C162.936 54.5077 163.035 54.5342 163.127 54.5796C163.344 54.6799 168.409 57.0891 168.123 61.6596C168.111 61.8562 168.025 62.0408 167.881 62.1757C167.738 62.3106 167.548 62.3857 167.351 62.3853Z" fill="black"/>
<path d="M167.682 60.3702H167.559C167.458 60.3542 167.362 60.3187 167.275 60.2654C167.189 60.2121 167.113 60.1421 167.054 60.0595C166.994 59.977 166.952 59.8838 166.928 59.7847C166.905 59.6857 166.901 59.5828 166.918 59.4824C167.003 58.6673 167.372 57.9079 167.958 57.3355C168.545 56.7631 169.313 56.4136 170.13 56.3478C170.334 56.3478 170.531 56.4292 170.676 56.574C170.82 56.7188 170.902 56.9151 170.902 57.1199C170.902 57.3246 170.82 57.5209 170.676 57.6657C170.531 57.8105 170.334 57.8919 170.13 57.8919C169.667 57.9425 169.238 58.1559 168.918 58.4939C168.598 58.832 168.41 59.2727 168.385 59.7372C168.355 59.9057 168.269 60.0592 168.142 60.1738C168.014 60.2884 167.853 60.3575 167.682 60.3702Z" fill="black"/>
<path d="M151.808 82.2577C151.707 82.2683 151.604 82.2591 151.507 82.2301C151.409 82.2012 151.318 82.1529 151.239 82.0888C151.079 81.9592 150.977 81.7714 150.955 81.5667C150.934 81.3619 150.995 81.157 151.124 80.997C151.254 80.8371 151.441 80.7351 151.646 80.7136C158.594 79.1694 163.868 75.8109 167.257 70.7617C167.314 70.6774 167.387 70.6055 167.472 70.5495C167.556 70.4934 167.651 70.4542 167.751 70.4349C167.85 70.4155 167.953 70.416 168.052 70.4364C168.152 70.4567 168.246 70.4963 168.33 70.5532C168.415 70.6093 168.488 70.6818 168.545 70.7662C168.602 70.8506 168.641 70.9455 168.661 71.0452C168.681 71.1449 168.682 71.2473 168.662 71.3471C168.642 71.4469 168.603 71.5419 168.547 71.6265C164.918 77.0308 159.352 80.5747 151.979 82.2192C151.924 82.2402 151.866 82.2531 151.808 82.2577Z" fill="black"/>
<path d="M133.566 74.1509L132.886 90.9507L135.612 91.6765L142.421 72.3211L133.566 74.1509Z" fill="black"/>
<path d="M84.9835 207.329C84.8483 207.33 84.7152 207.296 84.5975 207.229C84.4209 207.127 84.2921 206.96 84.2386 206.763C84.1851 206.566 84.2111 206.356 84.3118 206.179L100.451 177.351C100.554 177.173 100.723 177.043 100.921 176.989C101.119 176.936 101.331 176.963 101.509 177.066C101.687 177.168 101.818 177.337 101.871 177.535C101.925 177.734 101.897 177.945 101.795 178.123L85.6553 206.951C85.5863 207.067 85.4882 207.164 85.3703 207.23C85.2524 207.297 85.1188 207.331 84.9835 207.329Z" fill="black"/>
<path d="M180.861 189.449C180.657 189.449 180.46 189.368 180.316 189.223C180.171 189.079 180.089 188.882 180.089 188.677V176.324C180.089 176.12 180.171 175.923 180.316 175.778C180.46 175.634 180.657 175.552 180.861 175.552C181.066 175.552 181.262 175.634 181.407 175.778C181.552 175.923 181.633 176.12 181.633 176.324V188.677C181.633 188.882 181.552 189.079 181.407 189.223C181.262 189.368 181.066 189.449 180.861 189.449Z" fill="black"/>
<path d="M84.0052 204.475C85.7114 196.709 87.3582 171.074 87.3196 156.637L86.9411 153.548C86.4137 149.22 84.5797 145.155 81.6831 141.896C78.7864 138.636 74.9647 136.337 70.7281 135.305L24.791 124.072C20.9832 123.141 16.9929 123.272 13.254 124.449C9.5151 125.626 6.17074 127.806 3.583 130.75L-24.103 189.426L84.0052 204.475Z" fill="black"/>
<path d="M42.5479 127.871L53.8738 145.806C54.5457 146.87 55.5098 147.72 56.6506 148.253C57.7914 148.785 59.061 148.979 60.3088 148.811C61.5566 148.642 62.73 148.119 63.6888 147.303C64.6476 146.487 65.3512 145.412 65.7169 144.208L78.5485 102.107L53.2714 94.0861L42.5479 127.871Z" fill="white"/>
<path d="M59.4262 149.643C58.1901 149.644 56.974 149.33 55.8932 148.73C54.8124 148.13 53.9027 147.264 53.2498 146.215L41.9239 128.257C41.8644 128.161 41.8264 128.053 41.8131 127.941C41.7997 127.829 41.8109 127.716 41.8462 127.608L52.5622 93.8157C52.594 93.7193 52.6445 93.6301 52.7107 93.5533C52.777 93.4765 52.8576 93.4134 52.9482 93.3678C53.129 93.2729 53.3405 93.2536 53.5356 93.3139L78.8202 101.335C79.0143 101.397 79.1756 101.534 79.2696 101.715C79.3636 101.895 79.3823 102.106 79.3216 102.3L66.4825 144.47C66.0794 145.82 65.2929 147.024 64.2184 147.935C63.1438 148.847 61.8276 149.427 60.4297 149.604C60.0964 149.64 59.7613 149.653 59.4262 149.643ZM43.4213 127.763L54.5542 145.389C55.1465 146.329 55.9971 147.079 57.0038 147.55C58.0105 148.021 59.1307 148.192 60.2322 148.044C61.3337 147.896 62.3697 147.435 63.2164 146.715C64.063 145.995 64.6847 145.047 65.0078 143.984L77.623 102.609L53.8055 95.051L43.4213 127.763Z" fill="black"/>
<path d="M48.4766 114.059L54.8151 94.0861L78.579 101.621L71.7927 123.015C67.4835 123.365 63.1508 122.743 59.1149 121.192C55.079 119.642 51.443 117.204 48.4766 114.059Z" fill="black"/>
<path d="M58.6221 53.7456L65.0066 54.5177C79.884 56.3397 91.5345 67.4727 93.2716 81.5395L95.3639 98.5247C96.1359 104.871 91.3873 110.63 84.6705 111.464L58.9154 114.66L58.6221 53.7456Z" fill="black"/>
<path d="M70.5817 54.3324L63.1553 53.8152C45.8536 52.5953 30.4586 61.6902 25.8186 75.8805L20.2212 93.0198C18.1212 99.4201 22.4604 106.384 29.9571 108.646L58.7077 117.332L70.5817 54.3324Z" fill="black"/>
<path d="M68.0264 61.4975C67.9343 61.4983 67.8431 61.4829 67.7565 61.4515C67.6617 61.4155 67.5747 61.3612 67.5009 61.2916C67.4271 61.2221 67.3676 61.1387 67.326 61.0462C67.2844 60.9537 67.2612 60.8539 67.2581 60.7526C67.2551 60.6512 67.2727 60.5503 67.3087 60.4555L73.2453 44.829C73.6383 43.781 73.7513 42.6485 73.5725 41.5436C73.3938 40.4387 72.9301 39.3995 72.2267 38.5289C72.1039 38.3651 72.0507 38.1594 72.0797 37.9567C72.1087 37.754 72.2167 37.571 72.3805 37.4481C72.4616 37.3873 72.5545 37.3432 72.6527 37.3181C72.7509 37.2929 72.8532 37.2871 72.9535 37.3015C73.0539 37.3158 73.1498 37.3497 73.237 37.4014C73.3243 37.453 73.4009 37.5216 73.4617 37.6027C74.3172 38.6838 74.8797 39.9673 75.0948 41.3291C75.3098 42.6909 75.1699 44.085 74.6891 45.3771L68.7525 61.0036C68.696 61.15 68.5964 61.2754 68.4667 61.3636C68.3371 61.4519 68.1833 61.4986 68.0264 61.4975Z" fill="black"/>
<path d="M67.7165 60.9412L71.7856 44.9211C73.0517 39.9028 69.3842 34.9615 63.9489 34.3748L57.9346 33.7264C51.9358 33.0778 46.9406 38.0034 47.898 43.6239L50.9862 62.0529L67.7165 60.9412Z" fill="black"/>
<path d="M26.4279 81.6784C27.0248 79.6823 28.3887 78.0047 30.221 77.0133C32.0534 76.0218 34.2048 75.7974 36.2022 76.3898L36.3334 76.4286C39.7767 64.4695 48.7713 55.9383 59.3252 55.9383C70.9909 55.9383 80.7492 66.3843 83.2121 80.3507C85.0099 80.4324 86.7251 81.1286 88.0713 82.323C89.4175 83.5175 90.3132 85.1378 90.6084 86.9131C90.7774 87.9306 90.7444 88.971 90.5111 89.9757C90.2778 90.9804 89.8491 91.9295 89.249 92.7684C88.6489 93.6072 87.889 94.3195 87.0135 94.8647C86.1381 95.41 85.1638 95.7773 84.1462 95.9459L82.8027 96.1698C79.7917 109.117 70.4505 118.559 59.3252 118.559C47.1886 118.559 37.1208 107.28 35.1753 92.4717L31.7244 91.4448C29.7275 90.8512 28.0475 89.4894 27.0544 87.658C26.0613 85.8267 25.8361 83.6758 26.4279 81.6784Z" fill="white"/>
<path d="M59.3245 119.339C47.0566 119.339 36.672 108.322 34.4794 93.0896L31.4998 92.2094C30.4136 91.8864 29.4014 91.3524 28.5217 90.6381C27.642 89.9239 26.9121 89.0434 26.3729 88.0468C25.8337 87.0502 25.4957 85.9572 25.3792 84.83C25.2627 83.7029 25.3696 82.5638 25.6936 81.4779C26.3123 79.3887 27.6998 77.6114 29.5764 76.5041C31.4531 75.3967 33.6791 75.0415 35.8071 75.51C39.5902 63.3193 48.9327 55.1818 59.3245 55.1818C71.0751 55.1818 81.1035 65.2184 83.8598 79.6481C85.7151 79.871 87.449 80.6876 88.8027 81.9759C90.1564 83.2642 91.0577 84.955 91.3722 86.7971C91.743 89.0539 91.2046 91.3661 89.8748 93.2269C88.5451 95.0876 86.532 96.3458 84.2767 96.726L83.4278 96.8647C80.162 110.121 70.3417 119.339 59.3245 119.339ZM33.9471 76.8302C32.4234 76.8398 30.9427 77.3377 29.7227 78.2506C28.5027 79.1635 27.6074 80.4433 27.1683 81.9024C26.6359 83.7033 26.8394 85.6416 27.7338 87.2928C28.6281 88.9441 30.1402 90.1736 31.9393 90.7117L35.3985 91.7385C35.5407 91.782 35.6675 91.8654 35.7634 91.9791C35.8593 92.0927 35.9203 92.2315 35.9391 92.379C37.8769 107.11 47.7052 117.795 59.3245 117.795C69.7241 117.795 79.0656 108.832 82.0458 96.0003C82.0803 95.8516 82.1584 95.7164 82.2697 95.612C82.381 95.5076 82.5202 95.4384 82.6708 95.4133L84.0219 95.1894C85.7447 94.8968 87.299 93.9783 88.3858 92.6097C89.4725 91.2412 90.0156 89.5193 89.9103 87.775C89.805 86.0306 89.0585 84.3867 87.815 83.1589C86.5715 81.9311 84.9185 81.206 83.1729 81.1228C82.9981 81.1152 82.8313 81.0482 82.6994 80.9332C82.5676 80.8182 82.4782 80.6616 82.4469 80.4895C80.0226 66.7084 70.2948 56.7104 59.2853 56.7104C49.4108 56.7104 40.471 64.7242 37.0353 76.6447C37.0071 76.7425 36.9594 76.834 36.8958 76.9135C36.8322 76.993 36.7536 77.059 36.6644 77.108C36.4847 77.2055 36.2739 77.2277 36.0778 77.1698L35.9391 77.131C35.293 76.9356 34.6221 76.8344 33.9471 76.8302Z" fill="black"/>
<path d="M48.5474 57.7451C51.8203 55.5157 55.6819 54.3094 59.6418 54.2788C71.6549 54.2788 81.6998 65.62 84.2321 80.7985C85.0239 80.8342 85.8054 80.9934 86.5483 81.2697C72.4043 81.98 57.9895 72.8928 48.5474 57.7451Z" fill="black"/>
<path d="M77.152 84.172H77.0743C65.6866 83.0526 55.0019 74.0275 49.196 60.6169C49.1555 60.5236 49.1337 60.4231 49.132 60.3214C49.1302 60.2197 49.1482 60.1186 49.1855 60.0239C49.2228 59.9293 49.2784 59.843 49.3491 59.7698C49.4198 59.6967 49.5039 59.6381 49.5971 59.5976C49.6904 59.557 49.791 59.5352 49.8927 59.5335C49.9944 59.5317 50.0951 59.5501 50.1898 59.5874C50.2844 59.6247 50.3707 59.6803 50.4438 59.751C50.517 59.8216 50.5759 59.9058 50.6165 59.999C56.1984 72.8923 66.397 81.5704 77.2289 82.6359C77.4336 82.6461 77.6259 82.7372 77.7634 82.8892C77.901 83.0412 77.9727 83.2416 77.9625 83.4464C77.9522 83.6511 77.8612 83.8434 77.7092 83.9809C77.5571 84.1185 77.3567 84.1902 77.152 84.18V84.172Z" fill="black"/>
<path d="M53.4024 72.6693C53.2779 72.6691 53.156 72.6389 53.0458 72.5811C52.9355 72.5233 52.8408 72.4394 52.7698 72.3372C49.9156 68.1564 48.2285 63.29 47.8827 58.2397C47.8653 58.0349 47.9296 57.8317 48.0621 57.6746C48.1946 57.5175 48.3844 57.4194 48.5891 57.402C48.7939 57.3846 48.9968 57.4494 49.1538 57.5818C49.3109 57.7143 49.4094 57.9037 49.4268 58.1085C49.7543 62.8889 51.3536 67.4947 54.0591 71.4494C54.1179 71.5328 54.1598 71.6271 54.182 71.7268C54.2041 71.8265 54.206 71.9298 54.188 72.0303C54.1701 72.1308 54.1325 72.2268 54.0772 72.3127C54.0219 72.3985 53.9502 72.4723 53.8661 72.5302C53.7305 72.6249 53.5677 72.6738 53.4024 72.6693Z" fill="black"/>
<path d="M35.5068 87.1067H35.3756C35.174 87.0726 34.9944 86.9598 34.8757 86.7934C34.757 86.6269 34.7087 86.4201 34.7423 86.2185C34.867 85.441 34.7645 84.6439 34.4467 83.9234C34.1289 83.2029 33.6099 82.5899 32.9516 82.1577C32.7768 82.052 32.651 81.8813 32.6018 81.6831C32.5526 81.4848 32.5842 81.275 32.6892 81.0999C32.795 80.9251 32.9652 80.7992 33.1635 80.75C33.3617 80.7008 33.5711 80.7324 33.7463 80.8375C34.67 81.4289 35.4003 82.2777 35.8476 83.2792C36.2948 84.2806 36.4399 85.3908 36.2637 86.4733C36.2313 86.6506 36.1373 86.8108 35.9991 86.9265C35.8609 87.0421 35.6869 87.106 35.5068 87.1067Z" fill="black"/>
<path d="M84.0918 90.6036C83.9033 90.6052 83.7214 90.5377 83.5791 90.414C83.4369 90.2902 83.3443 90.1187 83.3198 89.9318C83.208 88.8409 83.4182 87.741 83.9245 86.7682C84.4308 85.7954 85.2113 84.9924 86.169 84.4581C86.3482 84.3557 86.561 84.3288 86.7601 84.3831C86.9592 84.4374 87.1282 84.5684 87.2306 84.7476C87.3329 84.9268 87.3602 85.1392 87.306 85.3383C87.2517 85.5374 87.1202 85.7068 86.941 85.8092C86.2532 86.1936 85.6921 86.7697 85.3261 87.4675C84.96 88.1653 84.805 88.9544 84.8797 89.7388C84.9037 89.9414 84.8465 90.1456 84.7206 90.3061C84.5948 90.4667 84.4104 90.5709 84.2079 90.596L84.0918 90.6036Z" fill="black"/>
<path d="M67.5327 95.9846C65.6668 95.9846 63.8427 95.4311 62.2912 94.3945C60.7398 93.3578 59.5303 91.8842 58.8163 90.1602C58.1022 88.4363 57.9154 86.5396 58.2794 84.7095C58.6435 82.8794 59.5416 81.1983 60.861 79.8789C62.1804 78.5595 63.8615 77.6606 65.6916 77.2966C67.5217 76.9326 69.4188 77.1197 71.1427 77.8338C72.8666 78.5479 74.3402 79.7569 75.3769 81.3084C76.4136 82.8599 76.967 84.6839 76.967 86.5499C76.965 89.0515 75.9704 91.4502 74.2015 93.219C72.4326 94.9879 70.0343 95.9825 67.5327 95.9846ZM67.5327 78.6673C65.9719 78.6673 64.4455 79.1303 63.1477 79.9976C61.85 80.865 60.839 82.0975 60.242 83.5397C59.645 84.982 59.4891 86.5689 59.7941 88.0997C60.0992 89.6305 60.8515 91.0366 61.9557 92.1398C63.06 93.2429 64.4666 93.9936 65.9977 94.2972C67.5288 94.6008 69.116 94.4436 70.5576 93.8452C71.9993 93.2468 73.2306 92.2343 74.0967 90.9357C74.9628 89.6371 75.4244 88.1108 75.4229 86.5499C75.4188 84.4592 74.5858 82.4554 73.1067 80.9778C71.6277 79.5002 69.6234 78.6693 67.5327 78.6673Z" fill="#2B68E8"/>
<path d="M47.2198 95.9846C45.3538 95.9846 43.5297 95.4311 41.9783 94.3945C40.4268 93.3578 39.2173 91.8842 38.5033 90.1602C37.7892 88.4363 37.6024 86.5396 37.9665 84.7095C38.3305 82.8794 39.2293 81.1983 40.5488 79.8789C41.8682 78.5595 43.5492 77.6606 45.3794 77.2966C47.2095 76.9326 49.1065 77.1197 50.8305 77.8338C52.5544 78.5479 54.028 79.7569 55.0647 81.3084C56.1013 82.8599 56.654 84.6839 56.654 86.5499C56.652 89.0515 55.6574 91.4502 53.8885 93.219C52.1196 94.9879 49.7213 95.9825 47.2198 95.9846ZM47.2198 78.6673C45.6589 78.6673 44.1332 79.1303 42.8355 79.9976C41.5378 80.865 40.5267 82.0975 39.9298 83.5397C39.3328 84.982 39.1768 86.5689 39.4819 88.0997C39.787 89.6305 40.5392 91.0366 41.6435 92.1398C42.7478 93.2429 44.1544 93.9936 45.6855 94.2972C47.2165 94.6008 48.803 94.4436 50.2446 93.8452C51.6863 93.2468 52.9184 92.2343 53.7845 90.9357C54.6505 89.6371 55.1114 88.1108 55.1099 86.5499C55.1058 84.4592 54.2736 82.4554 52.7945 80.9778C51.3154 79.5002 49.3105 78.6693 47.2198 78.6673Z" fill="#2B68E8"/>
<path d="M58.3135 88.179H56.5455C56.3407 88.179 56.1444 88.0976 55.9996 87.9528C55.8548 87.808 55.7734 87.6117 55.7734 87.407C55.7734 87.2022 55.8548 87.0059 55.9996 86.8611C56.1444 86.7163 56.3407 86.6349 56.5455 86.6349H58.3135C58.5183 86.6349 58.7146 86.7163 58.8594 86.8611C59.0042 87.0059 59.0856 87.2022 59.0856 87.407C59.0856 87.6117 59.0042 87.808 58.8594 87.9528C58.7146 88.0976 58.5183 88.179 58.3135 88.179Z" fill="#2B68E8"/>
<path d="M67.8634 87.1604C67.7553 88.7508 66.8443 89.9784 65.833 89.9089C64.8216 89.8394 64.088 88.496 64.1961 86.9055C64.3042 85.3151 65.2227 84.0799 66.2341 84.1494C67.2454 84.2189 67.9714 85.5699 67.8634 87.1604Z" fill="black"/>
<path d="M51.6196 86.9591C51.6196 88.5495 50.7936 89.8467 49.7822 89.8467C48.7708 89.8467 47.9448 88.5495 47.9448 86.9591C47.9448 85.3686 48.7631 84.0718 49.7822 84.0718C50.8013 84.0718 51.6196 85.3609 51.6196 86.9591Z" fill="black"/>
<path d="M59.7564 108.847C59.5758 108.85 59.3999 108.791 59.2588 108.678C59.1177 108.565 59.0204 108.406 58.9844 108.229C58.9641 108.13 58.9636 108.027 58.9828 107.928C59.0021 107.828 59.0408 107.734 59.0967 107.649C59.1526 107.564 59.2245 107.492 59.3086 107.435C59.3926 107.378 59.4874 107.338 59.5868 107.318C62.3295 106.739 64.7669 105.18 66.4425 102.933C66.4944 102.842 66.5639 102.762 66.6476 102.699C66.7312 102.636 66.827 102.59 66.9288 102.565C67.0306 102.54 67.1368 102.536 67.2402 102.554C67.3436 102.571 67.4423 102.609 67.5304 102.666C67.6186 102.723 67.6942 102.797 67.7529 102.884C67.8115 102.97 67.8517 103.068 67.8712 103.171C67.8908 103.274 67.8894 103.38 67.8667 103.483C67.844 103.585 67.8006 103.681 67.7393 103.766C65.8558 106.379 63.0588 108.187 59.9034 108.831L59.7564 108.847Z" fill="black"/>
<path d="M56.8612 99.5745C56.8023 99.5821 56.7422 99.5821 56.6833 99.5745C56.16 99.452 55.6686 99.2215 55.2395 98.8979C54.8104 98.5742 54.4531 98.1644 54.1915 97.6949C53.9298 97.2254 53.769 96.7064 53.7195 96.1712C53.67 95.636 53.7331 95.0966 53.9042 94.5871L55.8803 88.7503C55.9128 88.654 55.9643 88.5649 56.0311 88.4883C56.098 88.4118 56.1791 88.3492 56.2701 88.304C56.3612 88.2588 56.4605 88.2321 56.5619 88.2252C56.6633 88.2183 56.7649 88.2316 56.8612 88.264C56.9575 88.2965 57.0463 88.3473 57.1228 88.4141C57.1994 88.4809 57.2624 88.5624 57.3076 88.6535C57.3527 88.7445 57.3791 88.8435 57.386 88.9449C57.3929 89.0463 57.38 89.1483 57.3475 89.2446L55.3631 95.0889C55.2607 95.3938 55.223 95.7166 55.2523 96.037C55.2815 96.3573 55.3775 96.6683 55.5335 96.9496C55.6916 97.2301 55.9059 97.4743 56.1638 97.667C56.4217 97.8598 56.7171 97.9966 57.0309 98.0689C57.2356 98.0914 57.423 98.1943 57.5518 98.355C57.6807 98.5157 57.741 98.721 57.7185 98.9258C57.6959 99.1305 57.5927 99.3183 57.432 99.4471C57.2713 99.576 57.066 99.6355 56.8612 99.613V99.5745Z" fill="black"/>
<path d="M70.38 55.7529C70.2935 55.7544 70.2073 55.7415 70.1251 55.7145C58.0271 51.4064 49.6195 55.0966 49.5346 55.1275C49.4414 55.1766 49.3389 55.2065 49.2338 55.2146C49.1287 55.2227 49.0236 55.2089 48.9239 55.1746C48.8242 55.1403 48.7326 55.0862 48.6547 55.0152C48.5769 54.9441 48.5141 54.8579 48.4708 54.7618C48.4275 54.6657 48.4045 54.5619 48.4029 54.4565C48.4013 54.3511 48.4214 54.2462 48.4617 54.1489C48.5021 54.0515 48.5617 53.9636 48.6374 53.8903C48.7131 53.8169 48.8035 53.7598 48.902 53.7225C49.2649 53.5604 57.9653 49.7464 70.6424 54.2552C70.813 54.3171 70.9563 54.4374 71.0472 54.5945C71.1381 54.7515 71.1713 54.9355 71.14 55.1143C71.1086 55.2931 71.015 55.4551 70.8761 55.572C70.7372 55.6888 70.5615 55.7527 70.38 55.7529Z" fill="#2B68E8"/>
<path d="M16.4457 128.326L12.2764 132.017L12.5154 126.859C12.6077 124.871 13.4139 122.982 14.7855 121.54C16.0131 120.258 17.1016 120.127 19.4872 120.876L31.6628 125.168L30.0026 127.284C29.4193 128.027 28.655 128.606 27.783 128.969C26.911 129.331 25.9605 129.463 25.0227 129.353L16.4457 128.326Z" fill="white"/>
<path d="M12.276 132.788C12.1608 132.789 12.0472 132.763 11.9443 132.711C11.8003 132.643 11.6808 132.533 11.602 132.395C11.5232 132.257 11.4889 132.097 11.504 131.939L11.743 126.789C11.8417 124.613 12.7253 122.545 14.2295 120.968C15.8277 119.293 17.3867 119.37 19.7183 120.096L31.9173 124.404C32.033 124.444 32.1374 124.511 32.2219 124.6C32.3065 124.689 32.3688 124.796 32.4036 124.913C32.4376 125.032 32.4421 125.157 32.418 125.278C32.3938 125.399 32.3411 125.512 32.2642 125.608L30.6047 127.724C29.939 128.568 29.0679 129.228 28.0744 129.641C27.081 130.053 25.9979 130.203 24.9297 130.078L16.6995 129.09L12.7857 132.557C12.6508 132.695 12.4689 132.778 12.276 132.788ZM17.1632 121.208C16.8133 121.209 16.4686 121.289 16.1544 121.443C15.8401 121.597 15.5641 121.82 15.3484 122.095C14.0971 123.399 13.3642 125.115 13.2871 126.921L13.1333 130.248L15.9357 127.77C16.0168 127.697 16.1124 127.642 16.2162 127.609C16.32 127.576 16.4291 127.565 16.5374 127.577L25.1151 128.604C25.9198 128.7 26.7359 128.588 27.4848 128.278C28.2337 127.969 28.8904 127.472 29.3923 126.836L30.3883 125.562L19.232 121.624C18.5671 121.379 17.8704 121.231 17.1632 121.184V121.208Z" fill="black"/>
<path d="M11.4812 134.271L6.53223 138.648L6.81044 132.533C6.92177 130.169 7.88107 127.925 9.51262 126.21C10.2208 125.473 11.1568 124.996 12.1696 124.856C13.1823 124.715 14.2132 124.921 15.0949 125.438L30.7983 134.309L27.7101 137.397C26.9225 138.172 25.9268 138.702 24.8443 138.923C23.7618 139.143 22.6386 139.045 21.6106 138.641L11.4812 134.271Z" fill="white"/>
<path d="M23.6635 139.752C22.8524 139.752 22.0483 139.6 21.293 139.304L11.6657 135.205L7.07943 139.258C6.96601 139.358 6.82648 139.422 6.67682 139.443C6.52716 139.464 6.37446 139.441 6.23802 139.376C6.10157 139.311 5.98669 139.207 5.90854 139.078C5.83038 138.949 5.7925 138.799 5.79846 138.648L6.07592 132.526C6.20091 129.979 7.23377 127.561 8.98694 125.709C9.81127 124.839 10.9054 124.275 12.0917 124.108C13.278 123.942 14.4863 124.182 15.5185 124.79L31.2143 133.653C31.318 133.712 31.4063 133.794 31.4729 133.893C31.5396 133.991 31.5824 134.105 31.5981 134.223C31.6138 134.341 31.6019 134.461 31.5634 134.574C31.5249 134.687 31.4611 134.789 31.3764 134.873L28.2882 137.961C27.0444 139.146 25.3813 139.791 23.6635 139.752ZM11.4803 133.499C11.5865 133.496 11.6924 133.517 11.7894 133.56L21.8803 137.876C22.7678 138.221 23.7352 138.302 24.6677 138.111C25.6003 137.919 26.4581 137.462 27.1377 136.795L29.5232 134.479L14.708 126.118C13.9757 125.688 13.1195 125.518 12.2787 125.636C11.4379 125.754 10.6618 126.152 10.0757 126.766C8.57556 128.349 7.69286 130.417 7.58911 132.595L7.39609 136.888L10.9789 133.715C11.1142 133.584 11.2922 133.507 11.4803 133.499Z" fill="black"/>
<path d="M4.96508 140.038L0.0161133 144.416L0.293569 138.301C0.404906 135.937 1.3642 133.692 2.99575 131.978C3.70191 131.24 4.63712 130.762 5.64892 130.622C6.66072 130.482 7.69032 130.687 8.5705 131.206L22.8919 139.367L19.8037 142.416C19.0161 143.191 18.0204 143.721 16.9379 143.941C15.8554 144.162 14.7322 144.064 13.7042 143.659L4.96508 140.038Z" fill="white"/>
<path d="M0.0162254 145.188C-0.0990949 145.19 -0.212869 145.163 -0.315515 145.111C-0.45174 145.046 -0.566033 144.942 -0.64424 144.813C-0.722447 144.684 -0.761384 144.536 -0.755826 144.385L-0.47837 138.262C-0.353378 135.715 0.679485 133.297 2.43265 131.445C3.25754 130.577 4.35183 130.013 5.53745 129.845C6.72307 129.677 7.93042 129.914 8.96418 130.519L23.2471 138.679C23.3499 138.739 23.4378 138.821 23.5035 138.921C23.5691 139.02 23.6108 139.133 23.6256 139.251C23.6408 139.369 23.6283 139.488 23.5894 139.601C23.5506 139.713 23.4865 139.816 23.4017 139.899L20.3135 142.949C19.4159 143.831 18.2813 144.434 17.0481 144.685C15.8149 144.935 14.5358 144.823 13.365 144.361L5.08884 140.934L0.456536 144.995C0.334113 145.104 0.179712 145.172 0.0162254 145.188ZM4.96519 139.266C5.06805 139.265 5.1699 139.284 5.26602 139.32L13.9825 142.926C14.8704 143.272 15.839 143.355 16.7729 143.165C17.7068 142.974 18.5666 142.518 19.2481 141.852L21.6337 139.536L8.19967 131.885C7.46819 131.453 6.61193 131.282 5.77042 131.399C4.92891 131.517 4.15197 131.917 3.56736 132.534C2.06838 134.114 1.18646 136.18 1.08157 138.355L0.888553 142.655L4.4706 139.482C4.60396 139.353 4.77986 139.276 4.96519 139.266Z" fill="black"/>
<path d="M-1.22779 145.512L-6.17676 149.897L-5.89855 143.775C-5.78402 141.414 -4.82504 139.172 -3.19637 137.459C-2.48821 136.722 -1.55221 136.244 -0.539428 136.104C0.473353 135.964 1.50418 136.169 2.38592 136.687L14.692 143.875L11.6038 146.925C10.8162 147.699 9.82127 148.229 8.73876 148.45C7.65624 148.67 6.53226 148.572 5.50428 148.168L-1.22779 145.512Z" fill="white"/>
<path d="M-6.17662 150.646C-6.29194 150.648 -6.40571 150.622 -6.50836 150.569C-6.65231 150.501 -6.77188 150.391 -6.85065 150.253C-6.92942 150.115 -6.96378 149.955 -6.94867 149.797L-6.67046 143.682C-6.54812 141.133 -5.51196 138.713 -3.75189 136.865C-2.93131 135.993 -1.8381 135.426 -0.652378 135.258C0.533343 135.089 1.74109 135.329 2.77209 135.939L15.0782 143.119C15.1809 143.178 15.2689 143.261 15.3345 143.36C15.4001 143.459 15.4418 143.572 15.4567 143.69C15.4718 143.808 15.4593 143.928 15.4205 144.04C15.3816 144.153 15.3175 144.255 15.2327 144.339L12.1445 147.427C11.2466 148.308 10.1118 148.91 8.87838 149.16C7.64497 149.409 6.36599 149.295 5.19606 148.832L-1.05801 146.377L-5.69031 150.446C-5.82394 150.568 -5.99598 150.638 -6.17662 150.646ZM0.0925303 136.796C-0.418819 136.796 -0.924404 136.9 -1.39427 137.101C-1.86414 137.303 -2.28848 137.598 -2.64056 137.969C-4.14188 139.548 -5.02419 141.614 -5.12635 143.791L-5.31937 148.083L-1.73732 144.91C-1.63279 144.82 -1.50592 144.76 -1.37014 144.735C-1.23437 144.711 -1.09464 144.723 -0.96527 144.771L5.73665 147.404C6.62544 147.752 7.59593 147.837 8.53156 147.646C9.4672 147.456 10.3281 146.999 11.0098 146.331L13.4029 144.014L1.96913 137.344C1.39849 137.006 0.74824 136.824 0.084991 136.819L0.0925303 136.796Z" fill="black"/>
<path d="M13.8132 190.021C13.7072 190.022 13.6017 190.001 13.5041 189.959C13.3172 189.878 13.1699 189.726 13.0947 189.536C13.0195 189.347 13.0229 189.135 13.103 188.948L19.6112 173.885C19.6453 173.784 19.6999 173.691 19.7718 173.612C19.8436 173.533 19.9314 173.47 20.0289 173.426C20.1264 173.383 20.2313 173.36 20.338 173.36C20.4447 173.359 20.5506 173.381 20.6486 173.423C20.7466 173.465 20.8352 173.527 20.908 173.605C20.9807 173.683 21.0363 173.776 21.0716 173.877C21.1069 173.977 21.1205 174.084 21.1123 174.191C21.1041 174.297 21.0743 174.401 21.0241 174.495L14.5235 189.558C14.4632 189.696 14.3639 189.813 14.2377 189.895C14.1115 189.978 13.9639 190.021 13.8132 190.021Z" fill="white"/>
<circle cx="101.333" cy="101.333" r="100" stroke="black" stroke-width="1.33333"/>
</g>
<path d="M83.4851 258.211C82.9229 258.206 82.3696 258.069 81.869 257.812C78.8678 256.301 78.4509 252.577 83.6262 233.442C87.102 220.61 88.1152 214.834 88.1152 212.351C84.152 215.374 74.6481 227.145 67.4399 236.06C65.0158 239.063 62.7841 241.926 60.8089 244.421C53.6328 253.632 51.0099 256.835 48.2715 257.086C47.8104 257.134 47.3443 257.086 46.9027 256.945C46.4611 256.803 46.0536 256.57 45.7064 256.262C41.5251 252.551 45.8282 242.498 55.9671 222.019C56.8777 220.179 57.7563 218.397 58.5643 216.725C59.4814 214.834 60.0778 213.432 60.4882 212.403C57.5319 214.513 53.0813 218.584 50.8688 220.623C49.894 221.517 49.0091 222.321 48.3036 222.971C41.2494 229.229 22.2992 247.727 22.1069 247.914C21.6085 248.289 20.9907 248.47 20.369 248.423C19.7473 248.375 19.1642 248.101 18.7288 247.654C18.2934 247.206 18.0356 246.615 18.0034 245.99C17.9712 245.366 18.167 244.751 18.5541 244.26C19.3364 243.495 37.7928 225.479 44.9368 219.176C45.6487 218.533 46.508 217.754 47.4635 216.886C57.1791 207.997 61.7581 204.344 64.894 206.698C67.5169 208.666 66.2599 212.692 63.2073 218.996C62.3929 220.668 61.5078 222.462 60.5908 224.315C57.7242 230.104 54.4729 236.709 52.2028 242.241C51.045 244.868 50.1346 247.599 49.4837 250.396C51.4076 248.3 54.2613 244.653 56.865 241.308C58.8466 238.767 61.0975 235.879 63.5536 232.844C82.0357 209.972 86.7749 204.839 90.9176 206.968C94.7654 208.949 93.6688 215.973 88.5834 234.78C85.8643 244.833 84.9856 249.695 84.7996 252.037C88.5384 248.718 96.343 238.716 101.345 232.368C109.47 221.993 115.178 217.831 120.436 218.455C127.247 219.266 131.011 227.524 136.719 240.015C137.963 242.742 139.252 245.566 140.689 248.563C140.887 248.87 141.019 249.215 141.074 249.577C141.129 249.938 141.106 250.307 141.008 250.659C140.91 251.011 140.738 251.338 140.504 251.618C140.27 251.899 139.979 252.126 139.65 252.284C139.322 252.443 138.963 252.529 138.599 252.538C138.234 252.546 137.872 252.477 137.537 252.334C137.201 252.192 136.9 251.979 136.652 251.71C136.405 251.441 136.218 251.123 136.103 250.776C134.647 247.734 133.346 244.891 132.095 242.144C127.465 232.007 123.81 224 119.834 223.53C116.743 223.157 111.869 227.19 105.347 235.519C92.0912 252.397 87.0956 258.211 83.4851 258.211Z" fill="#2B68E8"/>
<path d="M142.752 220.274C145.318 221.702 148.094 220.132 149.999 218.299C149.897 221.213 150.64 224.577 154.309 226.661C157.977 228.745 161.632 227.542 163.851 225.857C163.319 228.635 163.312 231.832 165.923 233.299C167.174 233.976 168.638 234.144 170.01 233.768C171.382 233.392 172.557 232.501 173.291 231.279L228.378 132.645L195.82 114.346L140.611 213.199C139.999 214.429 139.881 215.848 140.279 217.163C140.677 218.479 141.562 219.592 142.752 220.274Z" fill="#2B68E8"/>
<path d="M168.527 235.652C167.33 235.657 166.153 235.351 165.109 234.765C163.044 233.614 161.973 231.62 161.902 228.835C160.791 229.248 159.618 229.466 158.433 229.478C156.697 229.465 154.993 229.002 153.488 228.134C152.221 227.465 151.121 226.518 150.269 225.365C149.416 224.211 148.833 222.88 148.563 221.47C147.437 222.131 146.161 222.494 144.856 222.525C143.831 222.529 142.823 222.262 141.932 221.753C140.309 220.823 139.118 219.288 138.617 217.482C138.116 215.778 138.308 213.945 139.149 212.382L194.358 113.529C194.465 113.336 194.609 113.166 194.782 113.029C194.955 112.893 195.153 112.791 195.365 112.732C195.578 112.671 195.801 112.652 196.021 112.678C196.241 112.703 196.454 112.772 196.647 112.88L229.212 131.178C229.405 131.287 229.574 131.432 229.711 131.607C229.847 131.781 229.948 131.98 230.008 132.193C230.067 132.407 230.084 132.629 230.058 132.849C230.031 133.069 229.962 133.282 229.854 133.475L174.766 232.108C174.127 233.195 173.213 234.095 172.118 234.717C171.023 235.338 169.785 235.661 168.527 235.652ZM163.852 224.165C164.1 224.164 164.346 224.219 164.571 224.325C164.796 224.43 164.994 224.584 165.153 224.776C165.312 224.968 165.426 225.192 165.489 225.434C165.551 225.675 165.559 225.927 165.512 226.172C164.653 230.674 166.231 231.53 166.75 231.819C167.293 232.122 167.905 232.279 168.527 232.276C169.187 232.282 169.837 232.118 170.415 231.799C170.994 231.48 171.481 231.017 171.829 230.455L226.096 133.288L196.468 116.649L142.086 214.028C141.681 214.808 141.6 215.717 141.862 216.556C141.985 217.025 142.2 217.465 142.494 217.85C142.788 218.235 143.155 218.558 143.574 218.801C143.963 219.027 144.406 219.145 144.856 219.142C146.024 219.142 147.473 218.389 148.839 217.083C149.082 216.852 149.388 216.698 149.718 216.642C150.048 216.586 150.388 216.629 150.693 216.767C150.999 216.905 151.256 217.131 151.433 217.417C151.61 217.702 151.698 218.034 151.686 218.37C151.571 221.637 152.667 223.805 155.136 225.188C156.138 225.774 157.274 226.089 158.433 226.101C160.031 226.056 161.572 225.499 162.832 224.512C163.125 224.288 163.483 224.166 163.852 224.165Z" fill="black"/>
<path d="M167.654 219.933C167.472 219.932 167.293 219.884 167.135 219.792C167.013 219.723 166.907 219.632 166.821 219.522C166.735 219.412 166.671 219.286 166.633 219.152C166.596 219.018 166.585 218.877 166.602 218.739C166.619 218.6 166.662 218.466 166.731 218.344L214.36 133.321C214.427 133.198 214.518 133.09 214.628 133.004C214.737 132.917 214.862 132.853 214.997 132.815C215.131 132.777 215.271 132.767 215.41 132.784C215.548 132.801 215.682 132.846 215.803 132.915C215.925 132.984 216.032 133.076 216.119 133.186C216.206 133.296 216.27 133.422 216.308 133.557C216.346 133.692 216.358 133.833 216.341 133.972C216.325 134.112 216.281 134.247 216.213 134.369L168.584 219.386C168.492 219.552 168.357 219.69 168.193 219.786C168.03 219.883 167.844 219.933 167.654 219.933Z" fill="black"/>
<path d="M153.36 212.497C153.178 212.496 153 212.449 152.84 212.362C152.595 212.223 152.414 211.992 152.338 211.719C152.263 211.447 152.298 211.155 152.436 210.909L200.065 125.891C200.128 125.76 200.217 125.642 200.327 125.546C200.437 125.451 200.565 125.378 200.704 125.334C200.843 125.29 200.989 125.275 201.134 125.29C201.279 125.305 201.419 125.349 201.546 125.421C201.673 125.492 201.784 125.589 201.872 125.705C201.961 125.821 202.024 125.954 202.059 126.096C202.094 126.238 202.099 126.385 202.075 126.529C202.051 126.673 201.998 126.811 201.918 126.933L154.29 211.951C154.197 212.117 154.062 212.255 153.899 212.351C153.735 212.447 153.549 212.498 153.36 212.497Z" fill="black"/>
<path d="M141.041 255.128C140.288 255.115 139.549 254.921 138.886 254.562C138.249 254.276 137.707 253.814 137.323 253.229C136.939 252.645 136.729 251.963 136.718 251.263C136.77 249.777 138.289 216.466 138.354 215.051C138.391 214.616 138.595 214.213 138.923 213.925C139.25 213.638 139.676 213.488 140.111 213.508C140.545 213.528 140.956 213.716 141.256 214.032C141.556 214.348 141.722 214.769 141.72 215.205C141.72 215.546 140.181 248.87 140.085 251.295C140.329 251.538 140.643 251.698 140.983 251.752C143.375 250.079 169.956 232.121 171.124 231.337C171.494 231.087 171.947 230.994 172.385 231.08C172.823 231.166 173.209 231.422 173.458 231.793C173.707 232.164 173.799 232.619 173.714 233.058C173.628 233.498 173.373 233.885 173.003 234.135C164.878 239.621 143.625 253.99 142.823 254.575C142.305 254.949 141.679 255.143 141.041 255.128Z" fill="black"/>
<path d="M138.322 251.469C138.27 252.961 140.771 254.08 141.753 253.36C142.118 253.09 146.613 249.945 152.09 246.118L139.046 238.792C138.655 245.442 138.341 250.909 138.322 251.469Z" fill="black"/>
<path d="M221.626 162.843L233.124 188.436L223.075 192.97L211.577 167.377C211.087 166.06 211.115 164.606 211.655 163.308C212.195 162.011 213.206 160.968 214.485 160.391C215.763 159.814 217.212 159.747 218.538 160.202C219.864 160.657 220.968 161.601 221.626 162.843Z" fill="white"/>
<path d="M209.601 166.747C209.7 167.203 209.846 167.647 210.038 168.072L221.523 193.665C221.614 193.866 221.744 194.048 221.905 194.2C222.066 194.352 222.255 194.47 222.462 194.548C222.668 194.626 222.888 194.663 223.109 194.656C223.33 194.649 223.547 194.598 223.748 194.507C223.95 194.416 224.131 194.286 224.282 194.124C224.433 193.963 224.551 193.773 224.629 193.566C224.707 193.358 224.744 193.138 224.737 192.916C224.73 192.695 224.679 192.477 224.588 192.275L213.09 166.683C212.905 166.261 212.809 165.805 212.809 165.345C212.809 164.884 212.905 164.428 213.09 164.007C213.485 163.067 214.224 162.314 215.155 161.904C216.025 161.469 217.031 161.396 217.953 161.703C218.876 162.009 219.64 162.668 220.08 163.537L231.585 189.124C231.675 189.325 231.805 189.508 231.965 189.659C232.126 189.811 232.315 189.93 232.521 190.008C232.728 190.087 232.947 190.124 233.168 190.117C233.389 190.11 233.606 190.06 233.807 189.969C234.008 189.879 234.19 189.749 234.341 189.588C234.492 189.427 234.611 189.237 234.689 189.03C234.767 188.823 234.804 188.603 234.797 188.382C234.791 188.16 234.741 187.943 234.65 187.741L223.152 162.148C222.343 160.464 220.902 159.169 219.144 158.547C217.386 157.926 215.453 158.027 213.77 158.829C212.059 159.579 210.702 160.961 209.98 162.688C209.438 163.969 209.306 165.387 209.601 166.747Z" fill="black"/>
<path d="M244.052 210.516C244.288 210.416 244.495 210.258 244.655 210.057C244.815 209.856 244.923 209.618 244.969 209.365C245.116 208.719 245.051 208.042 244.783 207.436L244.469 206.683C244.36 206.439 244.231 206.136 244.077 205.782C243.923 205.429 243.738 205.024 243.526 204.567C242.358 202.046 241.035 199.602 239.563 197.247C237.473 193.908 235.098 190.757 232.464 187.831C231.021 186.236 229.469 184.654 227.821 183.149C226.173 181.643 224.441 180.203 222.69 178.852C219.267 176.27 215.638 173.974 211.839 171.989C208.635 170.319 205.333 168.845 201.951 167.577C199.02 166.49 196.564 165.731 194.839 165.236L192.832 164.682L192.12 164.496C192.003 164.468 191.886 164.447 191.767 164.432L191.312 164.316C189.453 163.823 187.478 164.034 185.765 164.908C185.026 165.278 184.383 165.816 183.888 166.48C183.392 167.143 183.058 167.913 182.911 168.728C182.776 169.565 182.838 170.421 183.09 171.23L182.911 171.198C181.125 170.865 179.281 171.254 177.78 172.279C177.116 172.73 176.561 173.325 176.155 174.019C175.749 174.714 175.502 175.49 175.433 176.292C175.337 177.517 175.616 178.743 176.235 179.804C176.825 180.846 177.682 181.712 178.717 182.312C178.119 183.115 177.739 184.059 177.614 185.052C177.448 186.324 177.657 187.617 178.216 188.77C178.727 189.84 179.542 190.735 180.557 191.343C180.022 192.112 179.663 192.991 179.505 193.916C179.216 195.446 179.442 197.03 180.147 198.418C180.431 199.015 180.838 199.546 181.341 199.975C181.844 200.403 182.431 200.721 183.065 200.907C183.065 200.907 183.635 201.055 184.482 201.299C185.328 201.544 186.444 201.885 187.541 202.264C188.638 202.644 189.696 203.049 190.478 203.371L191.421 203.769L191.767 203.93C191.85 203.963 191.936 203.988 192.024 204.007L192.319 204.142L193.152 204.528C193.864 204.876 194.864 205.384 196.006 206.033C197.275 206.76 198.503 207.554 199.687 208.413C200.97 209.356 202.189 210.383 203.336 211.488C204.429 212.556 205.445 213.702 206.376 214.916C207.173 215.97 207.901 217.074 208.556 218.222C209.133 219.238 209.55 220.151 209.839 220.756C209.986 221.071 210.082 221.329 210.159 221.502L210.268 221.766C210.525 222.409 211.468 222.621 212.404 222.28L244.052 210.516Z" fill="white"/>
<path d="M177.704 193.62C177.81 193.018 177.982 192.429 178.217 191.864C177.537 191.204 176.979 190.429 176.569 189.574C175.855 188.104 175.588 186.455 175.799 184.834C175.89 184.146 176.071 183.474 176.338 182.834C175.664 182.22 175.09 181.504 174.638 180.711C173.845 179.334 173.487 177.749 173.612 176.164C173.706 175.1 174.033 174.069 174.57 173.147C175.106 172.224 175.839 171.431 176.716 170.825C177.989 169.944 179.476 169.426 181.019 169.326C181.032 169.033 181.064 168.741 181.115 168.452C181.303 167.359 181.742 166.324 182.397 165.431C183.053 164.538 183.907 163.81 184.893 163.306C187.002 162.229 189.431 161.961 191.722 162.554L192.082 162.644L192.55 162.74L193.255 162.927C193.736 163.049 194.422 163.242 195.307 163.493C197.687 164.174 200.123 164.978 202.554 165.879C206.009 167.168 209.38 168.672 212.648 170.381C216.536 172.409 220.249 174.759 223.749 177.405C225.576 178.788 227.353 180.267 229.027 181.804C230.604 183.239 232.233 184.853 233.791 186.609C236.501 189.603 238.941 192.831 241.083 196.257C242.598 198.676 243.958 201.19 245.155 203.782L245.335 204.168C245.482 204.483 245.61 204.766 245.732 205.043L246.438 206.702C246.848 207.659 246.947 208.722 246.72 209.738C246.605 210.279 246.358 210.783 246.001 211.204C245.644 211.625 245.188 211.95 244.674 212.15L213.001 223.914C211.154 224.59 209.23 223.914 208.595 222.403L208.499 222.171C208.46 222.094 208.428 222.004 208.383 221.908C208.338 221.811 208.274 221.631 208.204 221.483C207.883 220.801 207.505 219.997 206.985 219.09C206.369 218.011 205.686 216.971 204.939 215.977C204.063 214.835 203.103 213.76 202.066 212.761C200.984 211.713 199.831 210.739 198.616 209.848C197.485 209.03 196.312 208.273 195.102 207.577C194.025 206.934 193.076 206.484 192.364 206.136L191.428 205.699C191.288 205.657 191.151 205.608 191.017 205.551L189.786 205.017C188.901 204.657 187.862 204.265 186.938 203.943C185.701 203.512 184.553 203.171 183.982 203.011C183.18 202.779 182.629 202.637 182.597 202.631C181.72 202.383 180.906 201.952 180.207 201.365C179.508 200.779 178.942 200.051 178.544 199.229C178.194 198.557 177.937 197.841 177.781 197.1C177.53 195.956 177.504 194.774 177.704 193.62ZM192.531 202.264L193.916 202.908C194.679 203.281 195.699 203.795 196.872 204.464C198.198 205.224 199.483 206.055 200.72 206.953C202.074 207.936 203.36 209.01 204.568 210.169C205.722 211.3 206.794 212.512 207.774 213.797C208.616 214.914 209.385 216.085 210.076 217.302C210.718 218.415 211.179 219.412 211.429 219.959C211.545 220.197 211.628 220.409 211.692 220.563H211.744L243.218 208.87C243.249 208.621 243.213 208.368 243.116 208.137L242.417 206.497C242.314 206.259 242.192 206.001 242.058 205.718L241.878 205.326C240.747 202.871 239.462 200.491 238.03 198.199C236.001 194.946 233.69 191.879 231.124 189.034C229.61 187.368 228.09 185.818 226.635 184.474C225.031 183.014 223.345 181.605 221.6 180.28C218.257 177.756 214.712 175.515 211 173.578C207.864 171.939 204.63 170.498 201.316 169.262C198.982 168.394 196.635 167.616 194.345 166.959L192.37 166.419L191.678 166.239L191.524 166.207H191.421L190.876 166.072C189.447 165.689 187.929 165.842 186.605 166.503C186.11 166.745 185.679 167.1 185.345 167.539C185.011 167.977 184.784 168.488 184.681 169.031C184.591 169.592 184.633 170.167 184.803 170.709L185.662 173.514L182.603 172.98C181.285 172.731 179.922 173.011 178.807 173.758C178.358 174.06 177.983 174.459 177.708 174.925C177.433 175.392 177.265 175.913 177.216 176.453C177.154 177.313 177.353 178.172 177.787 178.916C178.219 179.684 178.848 180.321 179.608 180.762L181.359 181.779L180.141 183.406C179.729 183.96 179.468 184.611 179.384 185.297C179.267 186.219 179.421 187.156 179.826 187.992C180.178 188.745 180.745 189.376 181.455 189.806L183.142 190.796L182.02 192.398C181.636 192.95 181.378 193.581 181.263 194.244C181.141 194.937 181.154 195.646 181.301 196.334C181.393 196.761 181.54 197.174 181.737 197.563C181.907 197.935 182.152 198.268 182.457 198.54C182.762 198.812 183.119 199.018 183.507 199.145C183.572 199.145 184.149 199.306 184.976 199.544C185.617 199.724 186.81 200.084 188.125 200.541C189.439 200.997 190.607 201.46 191.177 201.692L192.114 202.091L192.422 202.232L192.531 202.264Z" fill="black"/>
<path d="M178.409 172.002C178.468 172.271 178.606 172.515 178.807 172.702C179.007 172.89 179.26 173.011 179.531 173.051L180.423 173.179C180.936 173.257 181.744 173.379 182.712 173.552C184.828 173.913 187.336 174.459 189.593 175.038C191.851 175.617 194.275 176.325 196.352 177.083C197.199 177.379 197.975 177.662 198.546 177.887L199.392 178.209C199.559 178.28 199.738 178.317 199.919 178.317C200.1 178.317 200.279 178.28 200.446 178.209C200.612 178.138 200.763 178.034 200.888 177.904C201.014 177.773 201.112 177.618 201.177 177.449C201.242 177.279 201.272 177.098 201.265 176.917C201.258 176.736 201.215 176.557 201.139 176.393C201.062 176.229 200.953 176.081 200.818 175.96C200.683 175.839 200.525 175.746 200.354 175.688L199.514 175.36C198.918 175.135 198.11 174.839 197.237 174.536C195.095 173.784 192.556 173.012 190.26 172.427C187.964 171.841 185.354 171.269 183.174 170.89C182.18 170.716 181.353 170.587 180.814 170.504L179.916 170.375C179.562 170.325 179.202 170.419 178.916 170.635C178.63 170.85 178.441 171.171 178.39 171.526C178.37 171.685 178.377 171.846 178.409 172.002Z" fill="black"/>
<path d="M177.184 181.914C177.242 182.183 177.38 182.427 177.581 182.615C177.782 182.802 178.035 182.924 178.307 182.962L179.153 183.091C179.64 183.162 180.307 183.264 181.077 183.406C182.962 183.734 185.168 184.216 187.143 184.731C189.119 185.245 191.254 185.889 193.075 186.525C193.864 186.802 194.525 187.04 194.999 187.22L195.743 187.51C195.909 187.572 196.085 187.602 196.262 187.597C196.439 187.591 196.613 187.551 196.774 187.478C196.936 187.405 197.081 187.301 197.203 187.172C197.324 187.043 197.418 186.891 197.481 186.725C197.544 186.559 197.573 186.382 197.568 186.205C197.563 186.027 197.523 185.853 197.45 185.691C197.377 185.529 197.274 185.383 197.145 185.261C197.016 185.14 196.864 185.045 196.699 184.982L195.968 184.699C195.48 184.512 194.794 184.261 193.973 183.972C192.088 183.329 189.843 182.634 187.83 182.113C185.816 181.592 183.507 181.09 181.558 180.75C180.743 180.602 180.057 180.499 179.551 180.415L178.685 180.293C178.47 180.261 178.25 180.281 178.045 180.353C177.839 180.425 177.654 180.546 177.506 180.706C177.358 180.865 177.25 181.058 177.193 181.269C177.136 181.479 177.131 181.701 177.178 181.914H177.184Z" fill="black"/>
<path d="M179.39 191.414C179.447 191.674 179.579 191.911 179.77 192.096C179.96 192.281 180.201 192.406 180.461 192.456C180.461 192.456 181.263 192.604 182.43 192.861C183.803 193.163 185.361 193.556 186.708 193.942C188.054 194.327 189.593 194.829 190.87 195.292C191.973 195.697 192.697 195.987 192.704 195.993C192.869 196.065 193.046 196.104 193.226 196.106C193.405 196.108 193.584 196.074 193.75 196.006C193.917 195.938 194.068 195.837 194.195 195.71C194.322 195.582 194.422 195.431 194.49 195.264C194.558 195.097 194.591 194.918 194.589 194.737C194.586 194.557 194.548 194.379 194.476 194.214C194.404 194.049 194.3 193.9 194.169 193.776C194.039 193.651 193.885 193.555 193.717 193.491C193.717 193.491 192.935 193.17 191.793 192.752C190.466 192.269 188.888 191.761 187.458 191.349C186.028 190.938 184.444 190.539 183.014 190.224C181.802 189.954 181 189.806 180.968 189.799C180.75 189.758 180.524 189.772 180.312 189.839C180.101 189.907 179.908 190.025 179.754 190.185C179.599 190.345 179.486 190.541 179.424 190.755C179.363 190.97 179.356 191.196 179.403 191.414H179.39Z" fill="black"/>
<path d="M213.982 251.366L258.706 255.669C258.706 255.669 258.706 255.411 258.77 254.929C258.77 254.691 258.821 254.395 258.847 254.041C258.872 253.688 258.885 253.321 258.911 252.884C258.937 252.446 258.911 251.97 258.969 251.443C259.026 250.916 258.969 250.388 258.969 249.803V248.896C258.969 248.594 258.969 248.285 258.969 247.963C258.969 247.32 258.969 246.677 258.898 245.969C258.746 242.989 258.431 240.02 257.955 237.074C257.474 233.961 256.82 230.79 256.032 227.728C254.646 222.27 252.932 216.9 250.901 211.649C250.087 209.526 249.362 207.789 248.817 206.503L248.176 205.011L247.932 204.458L207.043 223.149L207.171 223.438C207.268 223.644 207.396 223.946 207.569 224.332C207.909 225.136 208.409 226.339 208.98 227.812C210.338 231.347 211.488 234.96 212.424 238.631C212.904 240.56 213.276 242.406 213.533 244.053C213.758 245.435 213.91 246.829 213.988 248.227C213.988 248.504 213.988 248.748 213.988 248.992C213.988 249.115 213.988 249.237 213.988 249.346V249.649C213.988 249.841 213.988 250.028 213.988 250.195C213.988 250.362 213.988 250.491 213.988 250.613C213.988 250.736 213.988 250.858 213.988 250.954C213.988 251.051 213.988 251.109 213.988 251.166C213.988 251.224 213.982 251.366 213.982 251.366Z" fill="#2B68E8"/>
<path d="M258.487 258.062C257.862 258.003 257.285 257.7 256.879 257.219C256.474 256.738 256.273 256.117 256.319 255.489L256.461 253.913L256.576 251.398C256.576 250.974 256.576 250.53 256.576 250.054V248.922C256.576 248.748 256.576 248.555 256.576 248.362V247.539C256.576 247.076 256.576 246.6 256.518 246.137C256.366 243.237 256.062 240.347 255.608 237.48C255.139 234.489 254.511 231.414 253.741 228.346C252.39 222.987 250.717 217.714 248.733 212.556C247.938 210.485 247.239 208.8 246.764 207.706L210.21 224.429C210.499 225.13 210.852 226.005 211.249 227.002C212.647 230.626 213.827 234.331 214.783 238.097C215.257 239.982 215.655 241.956 215.937 243.725C216.176 245.188 216.337 246.663 216.418 248.144C216.418 248.33 216.418 248.504 216.418 248.671C216.418 248.838 216.418 248.845 216.418 248.922V249.076C216.418 249.186 216.418 249.301 216.418 249.398V250.247C216.418 250.292 216.418 250.331 216.418 250.376V251.077C216.418 251.141 216.418 251.205 216.418 251.27L216.386 251.611C216.372 251.936 216.293 252.255 216.152 252.549C216.012 252.843 215.814 253.105 215.569 253.32C215.325 253.534 215.039 253.697 214.73 253.797C214.421 253.898 214.095 253.934 213.771 253.905C213.448 253.875 213.134 253.78 212.848 253.625C212.562 253.47 212.311 253.258 212.109 253.003C211.908 252.747 211.76 252.453 211.675 252.139C211.59 251.824 211.569 251.496 211.615 251.173V250.993C211.612 250.976 211.612 250.959 211.615 250.942V250.819V250.524V250.17V249.687C211.615 249.687 211.615 249.687 211.615 249.649V249.289C211.612 249.235 211.612 249.181 211.615 249.128C211.615 249.006 211.615 248.89 211.615 248.768C211.621 248.652 211.621 248.536 211.615 248.42V248.382C211.546 247.069 211.404 245.762 211.191 244.465C210.929 242.818 210.55 241.017 210.121 239.261C209.212 235.684 208.094 232.164 206.773 228.719C206.132 227.124 205.644 225.908 205.394 225.323L204.888 224.172C204.627 223.593 204.607 222.933 204.83 222.339C205.054 221.745 205.503 221.263 206.08 221.001L246.963 202.348C247.25 202.217 247.559 202.144 247.874 202.133C248.189 202.122 248.503 202.174 248.798 202.285C249.093 202.396 249.363 202.565 249.593 202.781C249.823 202.997 250.008 203.257 250.137 203.545L250.381 204.091L251.022 205.584C251.51 206.728 252.305 208.549 253.145 210.826C255.2 216.166 256.933 221.626 258.333 227.176C259.135 230.392 259.795 233.608 260.257 236.727C260.742 239.761 261.065 242.818 261.225 245.886C261.225 246.394 261.27 246.902 261.283 247.398V248.221V248.916V250.08C261.283 250.588 261.283 251.07 261.283 251.527V251.578L261.161 254.196C261.158 254.222 261.158 254.248 261.161 254.273L261.02 255.914C260.962 256.548 260.655 257.133 260.166 257.54C259.678 257.948 259.049 258.145 258.416 258.088L258.487 258.062Z" fill="#2B68E8"/>
<path d="M248.368 252.478C248.597 252.561 248.848 252.562 249.078 252.481C249.308 252.401 249.504 252.243 249.632 252.036C249.761 251.828 249.814 251.582 249.783 251.34C249.753 251.097 249.64 250.872 249.464 250.703C245.238 246.612 238.998 243.12 230.912 240.335C227.35 239.097 223.708 238.108 220.01 237.376C219.741 237.345 219.471 237.418 219.254 237.58C219.037 237.741 218.889 237.98 218.841 238.247C218.793 238.514 218.848 238.789 218.995 239.016C219.141 239.244 219.369 239.407 219.631 239.473C219.817 239.473 238.408 242.978 247.964 252.234C248.08 252.343 248.217 252.427 248.368 252.478Z" fill="black"/>
<path d="M220.016 235.215C220.207 235.286 220.414 235.3 220.612 235.254C220.779 235.215 237.453 231.44 249.983 236.894C250.228 236.958 250.488 236.932 250.715 236.822C250.943 236.711 251.124 236.523 251.226 236.291C251.328 236.059 251.344 235.798 251.271 235.555C251.199 235.312 251.042 235.102 250.83 234.964C237.639 229.227 220.843 233.035 220.131 233.209C219.906 233.259 219.704 233.381 219.555 233.557C219.406 233.733 219.318 233.954 219.305 234.184C219.292 234.415 219.354 234.644 219.483 234.835C219.611 235.027 219.798 235.172 220.016 235.247V235.215Z" fill="black"/>
</g>
<defs>
<clipPath id="clip0_2588_64886">
<rect width="260" height="260" fill="white"/>
</clipPath>
</defs>
</svg>
