<svg viewBox="0 0 260 260" fill="none" xmlns="http://www.w3.org/2000/svg">
<g clip-path="url(#clip0_2588_64885)">
<rect width="260" height="260" fill="white"/>
<mask id="mask0_2588_64885" style="mask-type:alpha" maskUnits="userSpaceOnUse" x="19" y="38" width="222" height="222">
<circle cx="130" cy="149" r="111" fill="#D9D9D9"/>
</mask>
<g mask="url(#mask0_2588_64885)">
<rect x="-41.0493" y="-18.4099" width="396.689" height="289.328" fill="white"/>
<path d="M83.5981 288.205L108.589 209.81C111.253 202.996 115.759 197.058 121.604 192.657C127.449 188.257 134.402 185.569 141.687 184.892L177.442 181.572L212.728 190.085C217.771 191.3 222.491 193.587 226.57 196.791C230.648 199.995 233.987 204.041 236.36 208.652L240.115 245.675C240.115 245.675 83.5981 287.924 83.5981 288.205Z" fill="#1D4ED8"/>
<path d="M94.5596 246.518C94.4553 246.518 94.3522 246.501 94.2537 246.467C94.1489 246.427 94.053 246.366 93.9718 246.288C93.8907 246.21 93.8257 246.118 93.7806 246.015C93.7355 245.912 93.7112 245.801 93.7091 245.688C93.707 245.576 93.7269 245.465 93.7682 245.36L107.797 209.495C110.498 202.523 115.096 196.445 121.07 191.949C127.043 187.452 134.155 184.716 141.602 184.049L177.357 180.729C177.447 180.712 177.54 180.712 177.63 180.729L212.925 189.242C218.086 190.485 222.919 192.827 227.092 196.107C231.266 199.388 234.683 203.53 237.11 208.252C237.155 208.346 237.184 208.447 237.195 208.55L240.959 245.573C240.97 245.684 240.959 245.797 240.928 245.904C240.896 246.011 240.843 246.112 240.773 246.199C240.703 246.285 240.616 246.358 240.518 246.411C240.42 246.464 240.312 246.498 240.2 246.509C240.088 246.521 239.976 246.511 239.868 246.479C239.76 246.446 239.66 246.393 239.573 246.322C239.486 246.25 239.414 246.163 239.361 246.063C239.308 245.964 239.275 245.855 239.264 245.743L235.518 208.882C233.195 204.415 229.942 200.498 225.977 197.395C222.012 194.292 217.427 192.075 212.533 190.894L177.383 182.381L141.73 185.692C134.602 186.336 127.797 188.959 122.081 193.266C116.364 197.573 111.966 203.391 109.381 210.065L95.3519 245.931C95.2972 246.099 95.1911 246.245 95.0493 246.351C94.9074 246.456 94.7362 246.514 94.5596 246.518Z" fill="black"/>
<path d="M196.281 186.417L201.389 167.773L170.359 159.2L163.769 183.037C160.705 183.037 157.683 183.207 154.686 183.428C155.997 199.961 165.072 212.892 176.948 213.709C188.5 214.501 199.005 203.57 202.844 188.059C200.674 187.455 198.469 186.919 196.281 186.417Z" fill="white"/>
<path d="M178.123 214.603C177.714 214.603 177.271 214.603 176.888 214.603C164.893 213.752 155.197 200.718 153.835 183.539C153.826 183.427 153.841 183.315 153.876 183.208C153.911 183.101 153.966 183.003 154.039 182.918C154.187 182.749 154.395 182.645 154.618 182.628C157.444 182.415 160.305 182.279 163.131 182.236L169.542 159.013C169.602 158.797 169.746 158.613 169.942 158.502C170.138 158.392 170.372 158.365 170.589 158.426L201.628 166.998C201.844 167.06 202.027 167.204 202.137 167.401C202.247 167.597 202.275 167.829 202.214 168.045L197.303 185.829C199.448 186.323 201.347 186.8 203.083 187.285C203.296 187.345 203.476 187.485 203.587 187.675C203.698 187.866 203.732 188.092 203.679 188.306C199.78 203.979 189.386 214.603 178.123 214.603ZM155.606 184.22C157.147 200.122 166.06 212.109 177.008 212.858C187.717 213.599 197.822 203.681 201.806 188.655C200.104 188.196 198.197 187.727 196.052 187.242C195.94 187.216 195.834 187.168 195.741 187.101C195.648 187.033 195.57 186.947 195.511 186.849C195.452 186.75 195.414 186.641 195.398 186.527C195.383 186.413 195.391 186.297 195.422 186.187L200.341 168.369L170.947 160.247L164.587 183.232C164.537 183.418 164.426 183.582 164.272 183.696C164.117 183.81 163.928 183.869 163.735 183.863C161.079 183.922 158.338 184.033 155.606 184.22Z" fill="black"/>
<path d="M195.429 189.413L201.388 167.773L181.68 162.324L173.338 167.986C175.951 177.631 183.664 185.42 195.429 189.413Z" fill="black"/>
<path d="M196.52 169.679C205.265 169.679 213.65 166.206 219.834 160.022C226.017 153.839 229.491 145.453 229.491 136.708V134.955C229.491 126.21 226.017 117.824 219.834 111.641C213.65 105.457 205.265 101.984 196.52 101.984C187.776 101.984 179.389 105.457 173.206 111.641C167.023 117.824 163.549 126.21 163.549 134.955V136.708C163.549 145.453 167.023 153.839 173.206 160.022C179.389 166.206 187.776 169.679 196.52 169.679Z" fill="black"/>
<path d="M160.936 132.189C160.936 147.385 173.254 159.703 188.45 159.703C203.645 159.703 215.963 147.385 215.963 132.189V126.562C215.963 111.366 203.645 99.0476 188.45 99.0476C173.254 99.0476 160.936 111.366 160.936 126.562V132.189Z" fill="black"/>
<path d="M158.475 123.463C158.416 123.471 158.356 123.471 158.297 123.463C158.077 123.416 157.885 123.284 157.762 123.096C157.639 122.908 157.596 122.679 157.642 122.459C159.438 113.997 163.524 107.663 169.798 103.636C176.37 99.3795 185.342 98.0005 193.813 99.8733C194.039 99.9219 194.236 100.058 194.361 100.252C194.487 100.446 194.53 100.682 194.481 100.908C194.433 101.133 194.297 101.331 194.103 101.456C193.909 101.582 193.673 101.624 193.447 101.576C185.411 99.7882 176.915 101.108 170.717 105.1C164.843 108.88 161.004 114.848 159.31 122.841C159.259 123.023 159.149 123.182 158.998 123.295C158.847 123.407 158.664 123.466 158.475 123.463Z" fill="black"/>
<path d="M223.022 140.08L219.131 140.157V139.961C219.132 136.311 218.414 132.697 217.018 129.325C215.622 125.953 213.576 122.888 210.995 120.307C208.415 117.726 205.352 115.679 201.98 114.282C198.608 112.885 194.994 112.166 191.345 112.166H189.778C184.846 112.166 180.001 113.479 175.744 115.97C171.486 118.461 167.968 122.04 165.55 126.34L163.762 125.804C162.891 125.526 161.974 125.424 161.064 125.505C160.153 125.586 159.268 125.848 158.46 126.276C157.652 126.703 156.937 127.288 156.358 127.995C155.779 128.702 155.347 129.518 155.087 130.394C154.827 131.27 154.744 132.19 154.844 133.098C154.944 134.007 155.224 134.887 155.668 135.686C156.112 136.485 156.711 137.187 157.43 137.751C158.149 138.316 158.973 138.732 159.855 138.973L161.991 139.603C161.991 139.722 161.991 139.842 161.991 139.961V150.594C161.991 157.965 164.92 165.035 170.133 170.248C175.345 175.46 182.415 178.389 189.787 178.389H191.353C198.152 178.385 204.714 175.89 209.798 171.375C214.882 166.86 218.136 160.639 218.944 153.888L223.285 153.803C225.069 153.717 226.75 152.938 227.971 151.633C229.191 150.328 229.854 148.6 229.821 146.814C229.788 145.027 229.061 143.324 227.793 142.066C226.525 140.807 224.816 140.092 223.03 140.072L223.022 140.08Z" fill="white"/>
<path d="M191.344 179.249H189.778C182.183 179.24 174.902 176.219 169.531 170.849C164.161 165.478 161.14 158.197 161.131 150.602V140.242L159.608 139.791C158.61 139.525 157.676 139.061 156.861 138.428C156.045 137.795 155.365 137.004 154.861 136.103C154.356 135.202 154.038 134.21 153.924 133.183C153.81 132.157 153.903 131.119 154.197 130.129C154.492 129.139 154.982 128.219 155.638 127.422C156.294 126.625 157.103 125.967 158.018 125.489C158.933 125.01 159.935 124.72 160.964 124.635C161.993 124.55 163.028 124.673 164.009 124.995L165.149 125.336C167.691 121.068 171.297 117.533 175.614 115.075C179.93 112.618 184.811 111.322 189.778 111.315H191.344C198.822 111.324 206 114.253 211.348 119.479C216.697 124.705 219.791 131.814 219.974 139.289L223.004 139.229C225.051 139.195 227.028 139.972 228.503 141.391C229.604 142.449 230.366 143.81 230.693 145.302C231.019 146.794 230.896 148.349 230.338 149.77C229.78 151.191 228.813 152.415 227.559 153.286C226.305 154.157 224.821 154.636 223.294 154.663L219.684 154.731C218.694 161.541 215.285 167.767 210.08 172.269C204.876 176.771 198.226 179.249 191.344 179.249ZM161.796 126.374C160.8 126.378 159.82 126.626 158.943 127.098C157.895 127.664 157.038 128.528 156.482 129.582C155.925 130.635 155.694 131.831 155.817 133.016C155.94 134.201 156.411 135.323 157.173 136.24C157.934 137.156 158.951 137.826 160.093 138.165L162.238 138.803C162.419 138.858 162.577 138.971 162.686 139.125C162.796 139.28 162.85 139.466 162.842 139.655V150.594C162.851 157.737 165.693 164.585 170.744 169.636C175.795 174.687 182.643 177.529 189.786 177.538H191.353C197.945 177.538 204.309 175.121 209.238 170.743C214.168 166.366 217.321 160.333 218.1 153.786C218.126 153.579 218.226 153.387 218.383 153.249C218.54 153.111 218.743 153.036 218.952 153.037L223.294 152.952C224.854 152.872 226.321 152.189 227.387 151.047C228.452 149.904 229.032 148.392 229.003 146.83C228.974 145.269 228.34 143.779 227.233 142.677C226.126 141.575 224.634 140.946 223.072 140.923L219.182 141C219.069 141.002 218.956 140.981 218.85 140.938C218.745 140.896 218.649 140.833 218.569 140.753C218.488 140.674 218.424 140.58 218.381 140.476C218.337 140.373 218.314 140.261 218.313 140.148V139.953C218.307 132.81 215.467 125.962 210.417 120.911C205.368 115.86 198.521 113.018 191.378 113.009H189.812C185.033 113.016 180.341 114.291 176.215 116.705C172.09 119.119 168.68 122.585 166.333 126.749C166.239 126.918 166.089 127.05 165.909 127.122C165.73 127.195 165.531 127.205 165.346 127.149L163.557 126.613C162.984 126.451 162.391 126.37 161.796 126.374Z" fill="black"/>
<path d="M220.543 139.859C215.622 136.539 212.03 124.944 212.03 111.145V111.102C216.908 114.465 220.543 126.06 220.543 139.859Z" fill="black"/>
<path d="M162.612 135.772H162.468C162.246 135.735 162.047 135.611 161.916 135.427C161.785 135.244 161.732 135.016 161.769 134.793C161.925 133.833 161.798 132.848 161.405 131.958C161.012 131.069 160.371 130.311 159.556 129.779C159.46 129.721 159.376 129.645 159.309 129.555C159.242 129.464 159.193 129.362 159.167 129.252C159.14 129.143 159.134 129.029 159.152 128.918C159.169 128.807 159.208 128.7 159.266 128.604C159.383 128.412 159.571 128.273 159.79 128.219C160.009 128.164 160.239 128.199 160.433 128.315C161.54 129.024 162.416 130.042 162.952 131.243C163.487 132.445 163.659 133.776 163.446 135.074C163.411 135.27 163.308 135.446 163.155 135.574C163.003 135.701 162.811 135.772 162.612 135.772Z" fill="black"/>
<path d="M220.117 149.904H220.032C219.921 149.892 219.813 149.859 219.714 149.805C219.616 149.752 219.529 149.68 219.458 149.593C219.388 149.506 219.335 149.406 219.304 149.299C219.272 149.191 219.262 149.079 219.274 148.967C219.415 147.661 219.937 146.424 220.774 145.411C221.61 144.397 222.726 143.651 223.982 143.264C224.2 143.203 224.433 143.231 224.63 143.342C224.827 143.453 224.972 143.638 225.033 143.855C225.094 144.073 225.066 144.307 224.955 144.504C224.844 144.701 224.659 144.846 224.441 144.907C223.512 145.202 222.688 145.762 222.071 146.518C221.455 147.274 221.071 148.193 220.968 149.163C220.941 149.369 220.84 149.558 220.683 149.695C220.526 149.831 220.325 149.906 220.117 149.904Z" fill="black"/>
<path d="M199.15 133.985C198.742 135.049 200.802 136.837 203.756 137.977C206.71 139.118 209.443 139.169 209.851 138.105C210.26 137.041 208.2 135.253 205.246 134.112C202.292 132.972 199.559 132.921 199.15 133.985Z" fill="black"/>
<path d="M177.919 132.452C177.996 133.593 180.627 134.342 183.785 134.155C186.944 133.968 189.438 132.835 189.361 131.695C189.284 130.554 186.654 129.805 183.496 129.992C180.338 130.179 177.843 131.312 177.919 132.452Z" fill="black"/>
<path d="M190.655 151.64C190.429 151.652 190.208 151.573 190.04 151.421C189.873 151.27 189.772 151.057 189.761 150.831C189.75 150.606 189.829 150.385 189.98 150.217C190.132 150.049 190.344 149.949 190.57 149.938C190.971 149.898 191.359 149.773 191.708 149.572C192.057 149.371 192.36 149.098 192.596 148.771C192.835 148.446 193.003 148.074 193.09 147.68C193.176 147.285 193.179 146.877 193.098 146.481L191.583 139.152C191.56 139.04 191.559 138.925 191.581 138.813C191.602 138.701 191.646 138.594 191.709 138.499C191.772 138.404 191.853 138.322 191.947 138.258C192.042 138.194 192.148 138.149 192.26 138.126C192.372 138.103 192.486 138.102 192.598 138.124C192.71 138.145 192.817 138.189 192.912 138.252C193.008 138.315 193.09 138.396 193.154 138.49C193.218 138.585 193.263 138.691 193.286 138.803L194.8 146.141C194.93 146.769 194.927 147.417 194.79 148.043C194.654 148.669 194.388 149.26 194.01 149.778C193.631 150.295 193.148 150.727 192.592 151.047C192.037 151.366 191.42 151.566 190.783 151.632L190.655 151.64Z" fill="black"/>
<path d="M186.279 164.913C185.414 164.916 184.562 164.702 183.801 164.291C180.609 162.589 179.545 158.034 179.485 157.838C179.434 157.618 179.473 157.387 179.593 157.196C179.713 157.004 179.903 156.868 180.124 156.817C180.344 156.766 180.575 156.805 180.767 156.925C180.959 157.044 181.095 157.235 181.145 157.455C181.145 157.455 182.099 161.474 184.602 162.793C185.149 163.058 185.748 163.195 186.355 163.195C186.963 163.195 187.563 163.058 188.11 162.793C188.321 162.711 188.555 162.715 188.763 162.806C188.971 162.897 189.134 163.067 189.216 163.278C189.298 163.489 189.294 163.725 189.203 163.932C189.112 164.14 188.942 164.303 188.731 164.385C187.952 164.709 187.121 164.888 186.279 164.913Z" fill="black"/>
<path d="M181.333 106.326C176.311 107.944 171.556 110.3 167.227 113.315C167.349 114.349 167.577 115.367 167.907 116.354C169.508 121.104 173.245 124.663 178.123 126.664C181.27 126.126 184.37 125.34 187.393 124.314C200.333 119.972 209.476 112.396 207.825 107.45C206.173 102.503 194.273 101.984 181.333 106.326Z" fill="black"/>
<path d="M221.488 121.471C224.987 126.238 225.914 131.508 224.833 135.832C223.829 136.107 222.799 136.275 221.76 136.334C216.754 136.632 212.055 134.496 208.386 130.741C209.705 127.523 207.79 121.147 203.329 116.371C194.016 106.394 210.974 107.177 221.488 121.471Z" fill="black"/>
<path d="M182.976 140.762C182.891 142.694 183.827 144.303 185.044 144.363C186.262 144.422 187.343 142.89 187.428 140.957C187.513 139.025 186.577 137.416 185.351 137.356C184.125 137.297 183.061 138.829 182.976 140.762Z" fill="black"/>
<path d="M201.048 145.103C200.963 147.044 201.9 148.653 203.117 148.704C204.334 148.755 205.415 147.231 205.501 145.299C205.586 143.366 204.649 141.757 203.423 141.706C202.197 141.655 201.133 143.17 201.048 145.103Z" fill="black"/>
<path d="M202.795 106.054H202.743C202.631 106.047 202.52 106.019 202.419 105.969C202.318 105.92 202.228 105.851 202.153 105.766C202.079 105.681 202.021 105.582 201.985 105.475C201.949 105.368 201.935 105.255 201.944 105.143C202.19 101.269 197.465 99.0134 197.414 98.9879C197.311 98.9417 197.218 98.8755 197.141 98.7929C197.063 98.7104 197.003 98.6134 196.964 98.5073C196.924 98.4013 196.907 98.2883 196.911 98.1752C196.916 98.0622 196.943 97.9513 196.991 97.8489C197.039 97.7465 197.108 97.6545 197.192 97.5787C197.276 97.5029 197.373 97.4449 197.48 97.4075C197.587 97.3701 197.7 97.3541 197.813 97.3609C197.926 97.3677 198.036 97.397 198.138 97.447C198.376 97.5576 203.961 100.214 203.646 105.254C203.633 105.471 203.538 105.674 203.379 105.823C203.221 105.972 203.012 106.054 202.795 106.054Z" fill="black"/>
<path d="M203.16 103.831H203.024C202.913 103.814 202.807 103.775 202.711 103.716C202.616 103.657 202.533 103.58 202.467 103.489C202.401 103.398 202.355 103.295 202.329 103.186C202.303 103.077 202.299 102.963 202.317 102.853C202.412 101.954 202.818 101.116 203.465 100.485C204.111 99.8541 204.958 99.4688 205.859 99.3962C206.085 99.3962 206.301 99.486 206.461 99.6456C206.62 99.8053 206.71 100.022 206.71 100.248C206.71 100.473 206.62 100.69 206.461 100.849C206.301 101.009 206.085 101.099 205.859 101.099C205.349 101.155 204.875 101.39 204.523 101.763C204.17 102.135 203.962 102.621 203.935 103.134C203.902 103.319 203.807 103.489 203.667 103.615C203.526 103.741 203.349 103.817 203.16 103.831Z" fill="black"/>
<path d="M185.656 127.966C185.545 127.978 185.432 127.968 185.324 127.936C185.216 127.904 185.116 127.851 185.029 127.78C184.852 127.637 184.74 127.43 184.716 127.204C184.692 126.978 184.759 126.752 184.902 126.576C185.045 126.4 185.252 126.287 185.478 126.263C193.139 124.561 198.954 120.858 202.692 115.29C202.754 115.197 202.834 115.118 202.928 115.056C203.021 114.994 203.125 114.951 203.235 114.93C203.345 114.908 203.458 114.909 203.568 114.931C203.677 114.954 203.782 114.997 203.875 115.06C203.968 115.122 204.049 115.202 204.111 115.295C204.174 115.388 204.217 115.493 204.24 115.603C204.262 115.713 204.262 115.826 204.24 115.936C204.219 116.046 204.175 116.15 204.113 116.244C200.112 122.203 193.974 126.11 185.844 127.924C185.784 127.947 185.721 127.961 185.656 127.966Z" fill="black"/>
<path d="M165.541 119.027L164.792 137.552L167.797 138.352L175.305 117.01L165.541 119.027Z" fill="black"/>
<path d="M111.972 265.876C111.823 265.877 111.677 265.839 111.547 265.766C111.352 265.653 111.21 265.468 111.151 265.252C111.092 265.035 111.121 264.803 111.232 264.608L129.028 232.821C129.141 232.624 129.327 232.481 129.546 232.422C129.765 232.362 129.998 232.393 130.194 232.506C130.391 232.619 130.534 232.805 130.593 233.024C130.653 233.243 130.622 233.475 130.51 233.672L112.713 265.459C112.637 265.587 112.529 265.694 112.399 265.767C112.269 265.84 112.122 265.878 111.972 265.876Z" fill="black"/>
<path d="M217.691 246.161C217.465 246.161 217.249 246.071 217.089 245.912C216.93 245.752 216.84 245.535 216.84 245.309V231.688C216.84 231.463 216.93 231.246 217.089 231.087C217.249 230.927 217.465 230.837 217.691 230.837C217.917 230.837 218.133 230.927 218.293 231.087C218.453 231.246 218.542 231.463 218.542 231.688V245.309C218.542 245.535 218.453 245.752 218.293 245.912C218.133 246.071 217.917 246.161 217.691 246.161Z" fill="black"/>
<path d="M110.893 262.729C112.775 254.165 114.591 225.899 114.548 209.98L114.131 206.575C113.549 201.802 111.527 197.32 108.333 193.726C105.139 190.132 100.925 187.597 96.2534 186.458L45.601 174.072C41.4022 173.046 37.0023 173.19 32.8797 174.488C28.757 175.786 25.0693 178.189 22.216 181.436L-8.31201 246.135L110.893 262.729Z" fill="black"/>
<path d="M65.1807 178.261L77.6692 198.037C78.4101 199.211 79.4731 200.148 80.731 200.735C81.989 201.322 83.3889 201.536 84.7648 201.35C86.1406 201.165 87.4344 200.587 88.4917 199.688C89.5489 198.788 90.3248 197.603 90.728 196.275L104.877 149.853L77.0049 141.008L65.1807 178.261Z" fill="white"/>
<path d="M83.7914 202.268C82.4284 202.269 81.0874 201.923 79.8957 201.261C78.704 200.6 77.7009 199.645 76.981 198.488L64.4925 178.687C64.4269 178.581 64.385 178.462 64.3703 178.339C64.3556 178.215 64.3679 178.09 64.4068 177.972L76.2228 140.71C76.2578 140.604 76.3135 140.506 76.3866 140.421C76.4596 140.336 76.5485 140.267 76.6485 140.216C76.8478 140.112 77.081 140.09 77.2961 140.157L105.176 149.002C105.39 149.07 105.568 149.22 105.672 149.42C105.775 149.619 105.796 149.851 105.729 150.066L91.572 196.564C91.1275 198.053 90.2603 199.38 89.0755 200.385C87.8906 201.39 86.4392 202.029 84.8979 202.225C84.5304 202.264 84.1608 202.279 83.7914 202.268ZM66.1435 178.142L78.4192 197.577C79.0724 198.614 80.0102 199.441 81.1203 199.96C82.2303 200.48 83.4656 200.669 84.6801 200.505C85.8947 200.342 87.0371 199.834 87.9706 199.04C88.9041 198.246 89.5897 197.2 89.9459 196.028L103.856 150.406L77.5937 142.072L66.1435 178.142Z" fill="black"/>
<path d="M71.7178 163.031L78.7069 141.008L104.91 149.317L97.4272 172.906C92.6757 173.293 87.8983 172.606 83.4481 170.897C78.9979 169.188 74.9887 166.499 71.7178 163.031Z" fill="black"/>
<path d="M82.9038 96.5276L89.9437 97.3789C106.348 99.388 119.195 111.664 121.11 127.174L123.417 145.903C124.268 152.901 119.032 159.251 111.626 160.171L83.2272 163.695L82.9038 96.5276Z" fill="black"/>
<path d="M96.0911 97.1745L87.9023 96.6042C68.8247 95.2591 51.8494 105.288 46.7331 120.934L40.5612 139.833C38.2456 146.89 43.0302 154.569 51.2964 157.064L82.9982 166.641L96.0911 97.1745Z" fill="black"/>
<path d="M93.2743 105.074C93.1727 105.075 93.0721 105.058 92.9766 105.024C92.8721 104.984 92.7762 104.924 92.6948 104.847C92.6134 104.771 92.5478 104.679 92.5019 104.577C92.4561 104.475 92.4305 104.365 92.4271 104.253C92.4238 104.141 92.4431 104.03 92.4828 103.925L99.0289 86.6949C99.4622 85.5394 99.5868 84.2906 99.3897 83.0723C99.1926 81.854 98.6813 80.7082 97.9057 79.7482C97.7702 79.5675 97.7117 79.3407 97.7436 79.1172C97.7755 78.8937 97.8947 78.6919 98.0753 78.5564C98.1647 78.4893 98.2671 78.4408 98.3754 78.413C98.4837 78.3853 98.5965 78.3789 98.7071 78.3947C98.8178 78.4105 98.9235 78.4479 99.0197 78.5049C99.1159 78.5618 99.2004 78.6374 99.2675 78.7268C100.211 79.919 100.831 81.3342 101.068 82.8358C101.305 84.3374 101.151 85.8745 100.621 87.2993L94.0749 104.53C94.0126 104.691 93.9027 104.83 93.7598 104.927C93.6168 105.024 93.4472 105.076 93.2743 105.074Z" fill="black"/>
<path d="M92.9329 104.462L97.4197 86.797C98.8158 81.2636 94.7718 75.8151 88.7786 75.1681L82.1469 74.4531C75.5323 73.7381 70.0244 79.1692 71.08 85.3667L74.4852 105.687L92.9329 104.462Z" fill="black"/>
<path d="M47.4055 127.328C48.0636 125.127 49.5675 123.277 51.588 122.184C53.6084 121.091 55.9806 120.843 58.1831 121.496L58.3277 121.539C62.1245 108.352 72.0424 98.9456 83.6797 98.9456C96.5429 98.9456 107.303 110.464 110.019 125.864C112.001 125.954 113.892 126.722 115.377 128.039C116.861 129.356 117.849 131.142 118.174 133.1C118.36 134.222 118.324 135.369 118.067 136.477C117.81 137.585 117.337 138.631 116.675 139.556C116.013 140.481 115.176 141.267 114.21 141.868C113.245 142.469 112.171 142.874 111.049 143.06L109.567 143.307C106.247 157.583 95.947 167.995 83.6797 167.995C70.2973 167.995 59.1961 155.557 57.0508 139.229L53.2457 138.097C51.0438 137.442 49.1914 135.941 48.0963 133.921C47.0013 131.902 46.7529 129.53 47.4055 127.328Z" fill="white"/>
<path d="M83.6789 168.854C70.1517 168.854 58.7012 156.706 56.2835 139.91L52.998 138.94C51.8003 138.583 50.6842 137.995 49.7141 137.207C48.7441 136.419 47.9393 135.449 47.3448 134.35C46.7503 133.251 46.3775 132.046 46.2491 130.803C46.1206 129.56 46.2386 128.304 46.5958 127.107C47.278 124.803 48.808 122.843 50.8772 121.622C52.9465 120.401 55.401 120.009 57.7475 120.526C61.9188 107.084 72.2204 98.1111 83.6789 98.1111C96.6357 98.1111 107.694 109.178 110.733 125.089C112.778 125.335 114.69 126.235 116.183 127.656C117.676 129.076 118.669 130.941 119.016 132.972C119.425 135.46 118.831 138.01 117.365 140.061C115.899 142.113 113.679 143.501 111.192 143.92L110.256 144.073C106.655 158.69 95.827 168.854 83.6789 168.854ZM55.6965 121.982C54.0164 121.992 52.3837 122.541 51.0385 123.548C49.6932 124.555 48.7061 125.966 48.2219 127.575C47.6349 129.56 47.8592 131.698 48.8454 133.518C49.8316 135.339 51.4988 136.695 53.4827 137.288L57.2969 138.42C57.4537 138.468 57.5935 138.56 57.6993 138.686C57.805 138.811 57.8722 138.964 57.893 139.127C60.0297 155.369 70.8668 167.152 83.6789 167.152C95.1459 167.152 105.446 157.268 108.732 143.12C108.771 142.956 108.857 142.807 108.979 142.691C109.102 142.576 109.256 142.5 109.422 142.472L110.911 142.225C112.811 141.903 114.525 140.89 115.723 139.381C116.922 137.872 117.52 135.973 117.404 134.05C117.288 132.127 116.465 130.314 115.094 128.96C113.723 127.606 111.9 126.807 109.975 126.715C109.783 126.706 109.599 126.633 109.453 126.506C109.308 126.379 109.209 126.206 109.175 126.017C106.502 110.821 95.7752 99.7966 83.6357 99.7966C72.7475 99.7966 62.89 108.633 59.1017 121.777C59.0707 121.885 59.0181 121.986 58.9479 122.074C58.8778 122.161 58.7911 122.234 58.6927 122.288C58.4946 122.395 58.2621 122.42 58.0459 122.356L57.893 122.313C57.1806 122.098 56.4408 121.986 55.6965 121.982Z" fill="black"/>
<path d="M71.7954 100.937C75.4043 98.4791 79.6623 97.1489 84.0287 97.1152C97.275 97.1152 108.351 109.621 111.143 126.357C112.016 126.397 112.878 126.572 113.697 126.877C98.1012 127.66 82.2068 117.64 71.7954 100.937Z" fill="black"/>
<path d="M103.337 130.077H103.251C90.6945 128.843 78.913 118.891 72.5112 104.104C72.4665 104.001 72.4425 103.89 72.4406 103.778C72.4386 103.666 72.4585 103.555 72.4996 103.45C72.5407 103.346 72.6021 103.251 72.68 103.17C72.7579 103.09 72.8507 103.025 72.9535 102.98C73.0564 102.935 73.1673 102.912 73.2794 102.91C73.3915 102.908 73.5026 102.928 73.6069 102.969C73.7113 103.01 73.8064 103.071 73.8871 103.149C73.9678 103.227 74.0328 103.32 74.0775 103.423C80.2324 117.64 91.4778 127.209 103.422 128.383C103.647 128.395 103.859 128.495 104.011 128.663C104.163 128.83 104.242 129.051 104.231 129.277C104.219 129.503 104.119 129.715 103.951 129.867C103.784 130.018 103.563 130.097 103.337 130.086V130.077Z" fill="black"/>
<path d="M77.1494 117.393C77.0122 117.393 76.8778 117.36 76.7562 117.296C76.6347 117.232 76.5302 117.14 76.4519 117.027C73.3047 112.417 71.4445 107.051 71.0631 101.482C71.0439 101.257 71.1149 101.032 71.261 100.859C71.4071 100.686 71.6163 100.578 71.8421 100.559C72.0679 100.54 72.2916 100.611 72.4648 100.757C72.638 100.903 72.7466 101.112 72.7657 101.338C73.1269 106.609 74.8904 111.687 77.8736 116.048C77.9385 116.14 77.9846 116.244 78.0091 116.354C78.0335 116.464 78.0355 116.578 78.0157 116.689C77.9959 116.799 77.9545 116.905 77.8935 117C77.8325 117.095 77.7535 117.176 77.6607 117.24C77.5113 117.344 77.3317 117.398 77.1494 117.393Z" fill="black"/>
<path d="M57.4167 133.312H57.272C57.0498 133.275 56.8517 133.151 56.7208 132.967C56.59 132.783 56.5367 132.555 56.5737 132.333C56.7112 131.476 56.5982 130.597 56.2478 129.802C55.8974 129.008 55.3251 128.332 54.5992 127.855C54.4065 127.739 54.2677 127.551 54.2135 127.332C54.1592 127.114 54.1941 126.882 54.3099 126.689C54.4265 126.496 54.6142 126.358 54.8328 126.303C55.0514 126.249 55.2823 126.284 55.4755 126.4C56.4939 127.052 57.2993 127.988 57.7924 129.092C58.2856 130.196 58.4455 131.42 58.2513 132.614C58.2156 132.81 58.1119 132.986 57.9595 133.114C57.8072 133.241 57.6153 133.312 57.4167 133.312Z" fill="black"/>
<path d="M110.99 137.169C110.782 137.17 110.581 137.096 110.424 136.96C110.267 136.823 110.165 136.634 110.138 136.428C110.015 135.225 110.247 134.012 110.805 132.94C111.363 131.867 112.224 130.981 113.28 130.392C113.477 130.279 113.712 130.25 113.932 130.31C114.151 130.369 114.338 130.514 114.45 130.712C114.563 130.909 114.593 131.143 114.534 131.363C114.474 131.582 114.329 131.769 114.131 131.882C113.373 132.306 112.754 132.941 112.35 133.711C111.947 134.48 111.776 135.35 111.858 136.215C111.885 136.438 111.822 136.664 111.683 136.841C111.544 137.018 111.341 137.133 111.118 137.16L110.99 137.169Z" fill="black"/>
<path d="M92.7302 143.102C90.6727 143.102 88.6614 142.492 86.9507 141.349C85.2399 140.206 83.9064 138.581 83.119 136.68C82.3316 134.779 82.1257 132.688 82.5271 130.67C82.9285 128.652 83.9187 126.798 85.3736 125.343C86.8285 123.888 88.6821 122.897 90.7001 122.496C92.718 122.094 94.8098 122.301 96.7107 123.088C98.6116 123.875 100.236 125.209 101.38 126.919C102.523 128.63 103.133 130.641 103.133 132.699C103.131 135.457 102.034 138.102 100.083 140.053C98.1331 142.003 95.4885 143.1 92.7302 143.102ZM92.7302 124.007C91.0091 124.007 89.326 124.518 87.8951 125.474C86.4641 126.43 85.3493 127.789 84.6911 129.38C84.0328 130.97 83.8608 132.72 84.1972 134.408C84.5336 136.096 85.3631 137.646 86.5807 138.862C87.7983 140.079 89.3493 140.907 91.0376 141.241C92.7258 141.576 94.476 141.403 96.0656 140.743C97.6552 140.083 99.013 138.967 99.9679 137.535C100.923 136.103 101.432 134.42 101.43 132.699C101.426 130.394 100.507 128.184 98.8764 126.555C97.2455 124.925 95.0355 124.009 92.7302 124.007Z" fill="#1D4ED8"/>
<path d="M70.3318 143.102C68.2743 143.102 66.263 142.492 64.5522 141.349C62.8415 140.206 61.5079 138.581 60.7205 136.68C59.9332 134.779 59.7272 132.688 60.1286 130.67C60.53 128.652 61.5211 126.798 62.976 125.343C64.4309 123.888 66.2845 122.897 68.3024 122.496C70.3204 122.094 72.4122 122.301 74.3131 123.088C76.214 123.875 77.8389 125.209 78.982 126.919C80.125 128.63 80.7344 130.641 80.7344 132.699C80.7322 135.457 79.6355 138.102 77.685 140.053C75.7346 142.003 73.0901 143.1 70.3318 143.102ZM70.3318 124.007C68.6106 124.007 66.9284 124.518 65.4975 125.474C64.0665 126.43 62.9517 127.789 62.2935 129.38C61.6352 130.97 61.4632 132.72 61.7996 134.408C62.136 136.096 62.9655 137.646 64.1831 138.862C65.4007 140.079 66.9517 140.907 68.64 141.241C70.3282 141.576 72.0775 141.403 73.6671 140.743C75.2568 140.083 76.6153 138.967 77.5703 137.535C78.5253 136.103 79.0335 134.42 79.0318 132.699C79.0273 130.394 78.1097 128.184 76.4788 126.555C74.8479 124.925 72.6371 124.009 70.3318 124.007Z" fill="#1D4ED8"/>
<path d="M82.564 134.495H80.6145C80.3887 134.495 80.1722 134.406 80.0126 134.246C79.8529 134.086 79.7632 133.87 79.7632 133.644C79.7632 133.418 79.8529 133.202 80.0126 133.042C80.1722 132.882 80.3887 132.793 80.6145 132.793H82.564C82.7898 132.793 83.0062 132.882 83.1659 133.042C83.3255 133.202 83.4153 133.418 83.4153 133.644C83.4153 133.87 83.3255 134.086 83.1659 134.246C83.0062 134.406 82.7898 134.495 82.564 134.495Z" fill="#1D4ED8"/>
<path d="M93.0944 133.372C92.9752 135.126 91.9708 136.479 90.8556 136.403C89.7404 136.326 88.9315 134.845 89.0507 133.091C89.1699 131.337 90.1826 129.975 91.2978 130.052C92.4131 130.129 93.2136 131.618 93.0944 133.372Z" fill="black"/>
<path d="M75.1833 133.15C75.1833 134.904 74.2726 136.334 73.1573 136.334C72.0421 136.334 71.1313 134.904 71.1313 133.15C71.1313 131.397 72.0336 129.967 73.1573 129.967C74.2811 129.967 75.1833 131.388 75.1833 133.15Z" fill="black"/>
<path d="M84.1561 157.285C83.9569 157.289 83.763 157.223 83.6074 157.098C83.4519 156.974 83.3446 156.799 83.3048 156.604C83.2824 156.494 83.2819 156.381 83.3031 156.272C83.3244 156.162 83.367 156.057 83.4287 155.964C83.4903 155.871 83.5696 155.791 83.6623 155.728C83.755 155.665 83.8595 155.621 83.9691 155.599C86.9933 154.961 89.6809 153.242 91.5285 150.764C91.5858 150.664 91.6624 150.576 91.7546 150.506C91.8469 150.437 91.9525 150.386 92.0647 150.359C92.177 150.331 92.2941 150.327 92.4081 150.346C92.5221 150.365 92.6309 150.407 92.7281 150.47C92.8254 150.532 92.9087 150.614 92.9734 150.71C93.038 150.805 93.0824 150.913 93.1039 151.027C93.1255 151.14 93.124 151.257 93.0989 151.37C93.0739 151.483 93.026 151.589 92.9584 151.683C90.8816 154.564 87.7975 156.557 84.3182 157.268L84.1561 157.285Z" fill="black"/>
<path d="M80.9627 147.061C80.8977 147.069 80.8316 147.069 80.7665 147.061C80.1895 146.926 79.6477 146.672 79.1745 146.315C78.7014 145.958 78.3074 145.506 78.0189 144.988C77.7304 144.471 77.5531 143.898 77.4985 143.308C77.4439 142.718 77.5135 142.123 77.7022 141.562L79.8812 135.126C79.9169 135.019 79.9737 134.921 80.0474 134.837C80.1211 134.752 80.2106 134.683 80.311 134.634C80.4114 134.584 80.5209 134.554 80.6327 134.547C80.7445 134.539 80.8565 134.554 80.9627 134.589C81.0689 134.625 81.1668 134.681 81.2512 134.755C81.3357 134.829 81.4051 134.918 81.4549 135.019C81.5047 135.119 81.5338 135.228 81.5414 135.34C81.549 135.452 81.5347 135.564 81.499 135.671L79.3109 142.115C79.1979 142.451 79.1564 142.807 79.1886 143.16C79.2209 143.513 79.3268 143.856 79.4987 144.167C79.6731 144.476 79.9094 144.745 80.1937 144.958C80.4781 145.17 80.8038 145.321 81.1498 145.401C81.3756 145.426 81.5822 145.539 81.7243 145.716C81.8663 145.893 81.9328 146.12 81.908 146.346C81.8832 146.571 81.7693 146.778 81.5921 146.92C81.4149 147.063 81.1885 147.128 80.9627 147.103V147.061Z" fill="black"/>
<path d="M95.8698 98.7402C95.7744 98.7418 95.6794 98.7276 95.5888 98.6978C82.2489 93.9475 72.9783 98.0165 72.8847 98.0506C72.7819 98.1048 72.6688 98.1377 72.553 98.1466C72.4371 98.1555 72.3212 98.1403 72.2113 98.1025C72.1014 98.0647 72.0004 98.005 71.9145 97.9267C71.8286 97.8484 71.7594 97.7533 71.7116 97.6474C71.6639 97.5414 71.6386 97.4269 71.6368 97.3107C71.6351 97.1945 71.6572 97.0788 71.7017 96.9715C71.7462 96.8641 71.8119 96.7672 71.8954 96.6863C71.9788 96.6054 72.0785 96.5425 72.1872 96.5014C72.5873 96.3226 82.1807 92.1171 96.1591 97.0887C96.3472 97.157 96.5053 97.2896 96.6055 97.4628C96.7058 97.636 96.7423 97.8389 96.7078 98.036C96.6733 98.2331 96.57 98.4118 96.4168 98.5407C96.2637 98.6695 96.0699 98.7399 95.8698 98.7402Z" fill="#1D4ED8"/>
<path d="M36.3991 178.763L31.8018 182.832L32.0653 177.146C32.1671 174.953 33.056 172.871 34.5685 171.28C35.9221 169.867 37.1223 169.722 39.7528 170.548L53.1782 175.281L51.3476 177.614C50.7044 178.433 49.8616 179.072 48.9001 179.472C47.9386 179.871 46.8906 180.017 45.8565 179.895L36.3991 178.763Z" fill="white"/>
<path d="M31.8014 183.683C31.6744 183.684 31.5492 183.655 31.4356 183.598C31.2769 183.524 31.1451 183.402 31.0582 183.249C30.9713 183.097 30.9335 182.921 30.9501 182.747L31.2137 177.069C31.3225 174.668 32.2968 172.388 33.9555 170.65C35.7176 168.803 37.4367 168.888 40.0077 169.688L53.4589 174.438C53.5865 174.482 53.7015 174.557 53.7948 174.655C53.888 174.752 53.9567 174.87 53.9951 175C54.0326 175.131 54.0376 175.269 54.0109 175.402C53.9843 175.535 53.9262 175.66 53.8413 175.766L52.0115 178.099C51.2774 179.03 50.3169 179.758 49.2215 180.213C48.1261 180.667 46.9319 180.833 45.754 180.695L36.679 179.606L32.3634 183.428C32.2147 183.58 32.0141 183.672 31.8014 183.683ZM37.1902 170.914C36.8045 170.915 36.4244 171.004 36.0779 171.174C35.7314 171.343 35.4271 171.589 35.1892 171.893C33.8094 173.331 33.0013 175.222 32.9163 177.213L32.7467 180.883L35.8368 178.15C35.9262 178.07 36.0316 178.009 36.1461 177.972C36.2605 177.936 36.3808 177.924 36.5002 177.937L45.9585 179.069C46.8457 179.175 47.7456 179.052 48.5714 178.71C49.3972 178.369 50.1213 177.821 50.6747 177.12L51.7729 175.715L39.4715 171.374C38.7382 171.103 37.9701 170.939 37.1902 170.888V170.914Z" fill="black"/>
<path d="M30.9247 185.318L25.4678 190.145L25.7745 183.403C25.8973 180.796 26.9551 178.321 28.7541 176.431C29.5349 175.618 30.567 175.091 31.6838 174.937C32.8005 174.782 33.9371 175.009 34.9094 175.58L52.2247 185.361L48.8195 188.766C47.9511 189.62 46.8532 190.205 45.6596 190.448C44.4659 190.691 43.2274 190.583 42.0939 190.137L30.9247 185.318Z" fill="white"/>
<path d="M44.3577 191.363C43.4634 191.362 42.5768 191.195 41.7439 190.869L31.1284 186.349L26.0713 190.818C25.9463 190.928 25.7924 190.999 25.6274 191.022C25.4624 191.045 25.294 191.019 25.1436 190.948C24.9931 190.876 24.8664 190.762 24.7803 190.619C24.6941 190.477 24.6523 190.312 24.6589 190.145L24.9648 183.394C25.1026 180.586 26.2415 177.92 28.1746 175.878C29.0836 174.919 30.2901 174.297 31.5981 174.113C32.9062 173.929 34.2385 174.194 35.3766 174.864L52.6836 184.638C52.7979 184.703 52.8953 184.793 52.9688 184.902C53.0423 185.011 53.0895 185.135 53.1068 185.266C53.1241 185.396 53.111 185.528 53.0686 185.653C53.0261 185.777 52.9558 185.89 52.8624 185.982L49.4572 189.388C48.0857 190.695 46.2518 191.405 44.3577 191.363ZM30.9239 184.467C31.0411 184.464 31.1578 184.487 31.2648 184.535L42.3915 189.294C43.3701 189.674 44.4368 189.764 45.465 189.553C46.4933 189.341 47.4392 188.838 48.1885 188.102L50.8189 185.548L34.4829 176.329C33.6755 175.855 32.7314 175.668 31.8043 175.797C30.8772 175.927 30.0214 176.366 29.3751 177.044C27.721 178.789 26.7477 181.07 26.6333 183.471L26.4205 188.205L30.3711 184.705C30.5203 184.561 30.7166 184.477 30.9239 184.467Z" fill="black"/>
<path d="M23.7397 191.677L18.2827 196.504L18.5887 189.762C18.7114 187.155 19.7692 184.68 21.5682 182.79C22.3469 181.976 23.3781 181.449 24.4937 181.294C25.6094 181.14 26.7447 181.367 27.7152 181.938L43.5067 190.937L40.1015 194.299C39.233 195.153 38.1351 195.738 36.9415 195.981C35.7479 196.224 34.5093 196.116 33.3759 195.67L23.7397 191.677Z" fill="white"/>
<path d="M18.2825 197.356C18.1554 197.358 18.0299 197.328 17.9167 197.27C17.7665 197.199 17.6405 197.085 17.5543 196.943C17.468 196.801 17.4251 196.636 17.4312 196.47L17.7372 189.719C17.875 186.911 19.0139 184.244 20.947 182.202C21.8566 181.245 23.0632 180.623 24.3705 180.438C25.6778 180.252 27.0091 180.514 28.149 181.181L43.8981 190.179C44.0114 190.245 44.1084 190.336 44.1807 190.445C44.2531 190.554 44.2991 190.679 44.3154 190.809C44.3322 190.939 44.3183 191.071 44.2755 191.195C44.2327 191.319 44.162 191.432 44.0685 191.524L40.6633 194.886C39.6735 195.859 38.4225 196.524 37.0627 196.801C35.7029 197.077 34.2926 196.953 33.0016 196.444L23.8759 192.665L18.768 197.143C18.6331 197.263 18.4628 197.338 18.2825 197.356ZM23.7395 190.826C23.8529 190.825 23.9652 190.845 24.0712 190.886L33.6824 194.861C34.6615 195.243 35.7295 195.334 36.7593 195.125C37.789 194.915 38.737 194.412 39.4886 193.678L42.119 191.124L27.306 182.688C26.4994 182.211 25.5553 182.022 24.6274 182.152C23.6995 182.282 22.8428 182.723 22.1982 183.403C20.5453 185.145 19.5729 187.423 19.4572 189.821L19.2444 194.563L23.1942 191.064C23.3412 190.922 23.5352 190.837 23.7395 190.826Z" fill="black"/>
<path d="M16.9116 197.713L11.4546 202.548L11.7614 195.798C11.8876 193.194 12.9451 190.723 14.7409 188.834C15.5218 188.021 16.5538 187.494 17.6706 187.34C18.7873 187.186 19.924 187.412 20.8962 187.983L34.4655 195.908L31.0603 199.271C30.1918 200.125 29.0948 200.709 27.9012 200.953C26.7075 201.196 25.4682 201.088 24.3347 200.642L16.9116 197.713Z" fill="white"/>
<path d="M11.4548 203.375C11.3276 203.377 11.2021 203.347 11.089 203.289C10.9302 203.215 10.7984 203.093 10.7115 202.941C10.6247 202.788 10.5868 202.613 10.6034 202.438L10.9102 195.696C11.0451 192.885 12.1876 190.217 14.1284 188.179C15.0332 187.217 16.2386 186.592 17.546 186.406C18.8535 186.221 20.1852 186.486 21.322 187.158L34.8913 195.074C35.0046 195.14 35.1016 195.231 35.174 195.341C35.2463 195.45 35.2923 195.575 35.3086 195.705C35.3254 195.835 35.3116 195.967 35.2687 196.091C35.2259 196.215 35.1552 196.328 35.0617 196.42L31.6565 199.825C30.6664 200.797 29.4151 201.461 28.0551 201.736C26.6951 202.011 25.2848 201.885 23.9948 201.374L17.0988 198.667L11.991 203.154C11.8436 203.288 11.6539 203.366 11.4548 203.375ZM18.3674 188.102C17.8036 188.102 17.2461 188.217 16.728 188.439C16.2099 188.662 15.742 188.987 15.3538 189.396C13.6984 191.137 12.7255 193.416 12.6128 195.815L12.4 200.549L16.3497 197.049C16.465 196.95 16.6049 196.884 16.7546 196.857C16.9043 196.83 17.0584 196.844 17.201 196.896L24.5909 199.799C25.5709 200.184 26.641 200.277 27.6727 200.067C28.7044 199.857 29.6536 199.353 30.4054 198.616L33.0441 196.062L20.4366 188.707C19.8074 188.334 19.0904 188.134 18.3591 188.128L18.3674 188.102Z" fill="black"/>
<path d="M33.4966 246.791C33.3796 246.792 33.2633 246.769 33.1557 246.723C32.9496 246.633 32.7872 246.465 32.7043 246.256C32.6214 246.048 32.625 245.814 32.7134 245.608L39.8896 228.999C39.9273 228.887 39.9875 228.785 40.0667 228.698C40.146 228.611 40.2427 228.541 40.3502 228.493C40.4577 228.445 40.5734 228.42 40.6911 228.419C40.8088 228.419 40.9255 228.443 41.0336 228.489C41.1416 228.536 41.2393 228.604 41.3196 228.69C41.3998 228.777 41.4611 228.879 41.5 228.99C41.5389 229.101 41.5539 229.219 41.5449 229.336C41.5359 229.453 41.503 229.568 41.4476 229.671L34.2797 246.28C34.2132 246.432 34.1038 246.562 33.9646 246.653C33.8255 246.743 33.6627 246.792 33.4966 246.791Z" fill="white"/>
<circle cx="130" cy="149" r="109.5" stroke="black" stroke-width="3"/>
</g>
<path d="M254.034 15.1062L240.261 22.4784C240.12 22.5548 239.961 22.5909 239.801 22.5825C239.593 22.585 239.391 22.5163 239.227 22.3878C239.064 22.2593 238.949 22.0787 238.903 21.876C238.856 21.6733 238.88 21.4608 238.971 21.2738C239.062 21.0867 239.214 20.9364 239.402 20.8478L253.175 13.4756C253.388 13.3606 253.638 13.3349 253.869 13.404C254.101 13.4731 254.296 13.6315 254.411 13.8443C254.526 14.0571 254.552 14.3068 254.483 14.5386C254.414 14.7703 254.255 14.9652 254.042 15.0802L254.034 15.1062Z" fill="#1D4ED8"/>
<path d="M242.872 38.6495C242.884 38.4106 242.99 38.186 243.166 38.0239C243.342 37.8618 243.574 37.775 243.813 37.7821L259.425 38.2939C259.664 38.304 259.889 38.4082 260.051 38.5836C260.214 38.7591 260.3 38.9916 260.292 39.2305C260.279 39.469 260.173 39.6929 259.997 39.8548C259.822 40.0167 259.59 40.1039 259.351 40.0979L243.739 39.5862C243.501 39.576 243.275 39.4718 243.113 39.2964C242.95 39.121 242.864 38.8884 242.872 38.6495Z" fill="#1D4ED8"/>
<path d="M239.211 54.6256L252.476 62.8651C252.648 62.9703 252.781 63.1296 252.852 63.3181C252.924 63.5065 252.931 63.7135 252.873 63.9065C252.814 64.0994 252.693 64.2675 252.529 64.3843C252.365 64.5012 252.166 64.5602 251.965 64.552C251.811 64.5438 251.661 64.496 251.531 64.4133L238.265 56.1738C238.16 56.1124 238.069 56.0307 237.996 55.9334C237.923 55.8361 237.871 55.7253 237.841 55.6074C237.812 55.4894 237.807 55.3669 237.825 55.2468C237.844 55.1268 237.887 55.0117 237.951 54.9084C238.015 54.8051 238.099 54.7156 238.198 54.6452C238.297 54.5749 238.409 54.5251 238.528 54.4987C238.646 54.4724 238.769 54.47 238.888 54.4918C239.008 54.5136 239.122 54.5591 239.224 54.6256H239.211Z" fill="#1D4ED8"/>
<path d="M230.691 19.4475C228.053 14.7692 224.459 10.6994 220.143 7.50346C215.827 4.30749 210.885 2.05714 205.641 0.899075C200.397 -0.25899 194.967 -0.29877 189.706 0.782402C184.446 1.86357 179.472 4.04137 175.109 7.17382C170.747 10.3063 167.093 14.323 164.387 18.9622C161.681 23.6014 159.983 28.7588 159.405 34.0982C158.826 39.4376 159.378 44.839 161.027 49.9504C162.676 55.0618 165.383 59.7683 168.973 63.763L159.06 83.8847L180.27 72.3624C187.586 76.0214 195.883 77.2367 203.941 75.8299C211.999 74.4231 219.393 70.4682 225.036 64.5468C230.68 58.6253 234.275 51.0495 235.292 42.9331C236.31 34.8167 234.698 26.5879 230.691 19.4562V19.4475Z" fill="#1D4ED8"/>
<path d="M159.059 84.9127C159.23 84.9132 159.399 84.8699 159.549 84.7869L180.295 73.5118C185.992 76.2682 192.271 77.6053 198.597 77.4089C204.923 77.2126 211.107 75.4887 216.622 72.3843C216.749 72.323 216.862 72.2363 216.954 72.1296C217.047 72.0229 217.116 71.8985 217.158 71.764C217.201 71.6295 217.215 71.4877 217.2 71.3475C217.185 71.2072 217.142 71.0715 217.073 70.9486C217.004 70.8258 216.91 70.7184 216.798 70.6331C216.686 70.5478 216.557 70.4864 216.42 70.4527C216.283 70.419 216.141 70.4137 216.002 70.4371C215.863 70.4606 215.73 70.5122 215.612 70.5889C210.312 73.576 204.36 75.2171 198.278 75.3683C192.196 75.5195 186.17 74.1762 180.729 71.4563C180.582 71.3795 180.419 71.3394 180.254 71.3394C180.088 71.3394 179.925 71.3795 179.779 71.4563L161.413 81.4304L169.896 64.2141C169.988 64.0297 170.022 63.8219 169.994 63.6177C169.966 63.4136 169.877 63.2225 169.739 63.0693C165.91 58.8112 163.114 53.7271 161.57 48.2124C160.026 42.6977 159.775 36.9011 160.837 31.2735C160.967 30.597 161.114 29.9205 161.27 29.2613C161.328 28.9983 161.281 28.7231 161.139 28.4942C160.997 28.2654 160.771 28.1012 160.51 28.0367C160.248 27.9721 159.972 28.0124 159.74 28.1488C159.507 28.2853 159.338 28.5071 159.267 28.767C159.098 29.4652 158.941 30.1764 158.807 30.8876C157.086 39.9675 158.622 49.3633 163.144 57.4231C164.447 59.7388 165.98 61.9179 167.719 63.928L158.104 83.4426C158.009 83.6389 157.978 83.8605 158.016 84.0756C158.054 84.2907 158.16 84.4881 158.317 84.6395C158.416 84.7321 158.533 84.8039 158.66 84.8508C158.788 84.8978 158.923 84.9188 159.059 84.9127Z" fill="black"/>
<path d="M194.497 61.7031H194.458C193.934 61.6963 193.419 61.563 192.958 61.3146C192.496 61.0662 192.102 60.71 191.808 60.2764L176.817 38.1988C176.576 37.8455 176.408 37.4483 176.322 37.03C176.235 36.6117 176.232 36.1804 176.312 35.7608C176.392 35.3412 176.554 34.9415 176.789 34.5845C177.023 34.2275 177.326 33.9202 177.679 33.6801C178.033 33.4401 178.43 33.272 178.848 33.1855C179.267 33.0989 179.698 33.0956 180.117 33.1758C180.537 33.2559 180.937 33.4179 181.294 33.6525C181.651 33.8871 181.958 34.1898 182.198 34.5431L194.562 52.7567L217.641 20.3972C217.886 20.0424 218.199 19.7397 218.562 19.5071C218.926 19.2744 219.331 19.1163 219.756 19.0419C220.181 18.9675 220.616 18.9784 221.037 19.0738C221.457 19.1692 221.855 19.3474 222.206 19.5978C222.557 19.8483 222.855 20.1661 223.082 20.5327C223.309 20.8993 223.461 21.3074 223.529 21.7333C223.597 22.1592 223.579 22.5943 223.478 23.0134C223.376 23.4325 223.192 23.8271 222.936 24.1743L197.146 60.3371C196.846 60.7595 196.448 61.1039 195.987 61.3415C195.526 61.5791 195.015 61.7031 194.497 61.7031Z" fill="white"/>
</g>
<defs>
<clipPath id="clip0_2588_64885">
<rect width="260" height="260" fill="white"/>
</clipPath>
</defs>
</svg>
