<svg width="260" height="260" viewBox="0 0 260 260" fill="none" xmlns="http://www.w3.org/2000/svg">
<g clip-path="url(#clip0_2212_37262)">
<path d="M149.336 1.22245L7.59452 10.2854C3.85107 10.5247 1.01044 13.7534 1.2498 17.4969L7.78949 119.776C8.02884 123.52 11.2575 126.36 15.001 126.121L156.743 117.058C160.486 116.819 163.327 113.59 163.088 109.847L156.548 7.56717C156.309 3.82372 153.08 0.983094 149.336 1.22245Z" fill="white"/>
<path d="M92.6774 27.7194C92.8488 30.3992 95.1601 32.4327 97.8399 32.2613C100.52 32.09 102.553 29.7787 102.382 27.0989C102.21 24.4191 99.8992 22.3856 97.2194 22.5569C94.5396 22.7283 92.5061 25.0396 92.6774 27.7194Z" fill="black"/>
<path d="M112.666 26.442C112.837 29.1218 115.148 31.1553 117.828 30.984C120.508 30.8126 122.541 28.5013 122.37 25.8215C122.199 23.1418 119.887 21.1083 117.208 21.2796C114.528 21.4509 112.494 23.7622 112.666 26.442Z" fill="black"/>
<path d="M132.654 25.1647C132.825 27.8445 135.137 29.878 137.816 29.7066C140.496 29.5353 142.53 27.224 142.358 24.5442C142.187 21.8644 139.876 19.8309 137.196 20.0023C134.516 20.1736 132.483 22.4849 132.654 25.1647Z" fill="black"/>
<path d="M15.1618 70.9381C15.3332 73.6179 17.6445 75.6514 20.3242 75.4801C23.004 75.3087 25.0375 72.9974 24.8662 70.3176C24.6948 67.6378 22.3835 65.6043 19.7038 65.7757C17.024 65.947 14.9905 68.2583 15.1618 70.9381Z" fill="black"/>
<path d="M35.1501 69.6608C35.3214 72.3406 37.6327 74.3741 40.3125 74.2027C42.9923 74.0314 45.0258 71.7201 44.8545 69.0403C44.6831 66.3605 42.3718 64.327 39.692 64.4983C37.0122 64.6697 34.9787 66.981 35.1501 69.6608Z" fill="black"/>
<path d="M55.1384 68.3834C55.3097 71.0632 57.621 73.0967 60.3008 72.9254C62.9806 72.754 65.0141 70.4427 64.8428 67.7629C64.6714 65.0832 62.3601 63.0497 59.6803 63.221C57.0005 63.3923 54.967 65.7036 55.1384 68.3834Z" fill="black"/>
<path d="M75.1267 67.1061C75.298 69.7859 77.6093 71.8194 80.2891 71.648C82.9689 71.4767 85.0024 69.1654 84.831 66.4856C84.6597 63.8058 82.3484 61.7723 79.6686 61.9437C76.9888 62.115 74.9553 64.4263 75.1267 67.1061Z" fill="black"/>
<path d="M115.103 64.5514C115.275 67.2312 117.586 69.2647 120.266 69.0934C122.945 68.922 124.979 66.6107 124.808 63.9309C124.636 61.2511 122.325 59.2176 119.645 59.389C116.965 59.5603 114.932 61.8716 115.103 64.5514Z" fill="black"/>
<path d="M95.1149 65.8288C95.2863 68.5085 97.5976 70.542 100.277 70.3707C102.957 70.1994 104.991 67.8881 104.819 65.2083C104.648 62.5285 102.337 60.495 99.6569 60.6663C96.9771 60.8377 94.9436 63.149 95.1149 65.8288Z" fill="black"/>
<path d="M135.091 63.2702C135.263 65.95 137.574 67.9834 140.254 67.8121C142.934 67.6408 144.967 65.3295 144.796 62.6497C144.625 59.9699 142.313 57.9364 139.633 58.1077C136.954 58.2791 134.92 60.5904 135.091 63.2702Z" fill="black"/>
<path d="M13.9431 51.8873C14.1144 54.5671 16.4257 56.6006 19.1055 56.4293C21.7853 56.2579 23.8188 53.9466 23.6474 51.2669C23.4761 48.5871 21.1648 46.5536 18.485 46.7249C15.8052 46.8963 13.7717 49.2076 13.9431 51.8873Z" fill="black"/>
<path d="M33.9313 50.61C34.1027 53.2898 36.414 55.3233 39.0938 55.1519C41.7736 54.9806 43.8071 52.6693 43.6357 49.9895C43.4644 47.3097 41.1531 45.2762 38.4733 45.4476C35.7935 45.6189 33.76 47.9302 33.9313 50.61Z" fill="black"/>
<path d="M53.9196 49.3288C54.091 52.0085 56.4023 54.042 59.0821 53.8707C61.7619 53.6994 63.7954 51.3881 63.624 48.7083C63.4527 46.0285 61.1414 43.995 58.4616 44.1663C55.7818 44.3377 53.7483 46.649 53.9196 49.3288Z" fill="black"/>
<path d="M73.9079 48.0514C74.0792 50.7312 76.3906 52.7647 79.0703 52.5934C81.7501 52.422 83.7836 50.1107 83.6123 47.4309C83.4409 44.7511 81.1296 42.7176 78.4499 42.889C75.7701 43.0603 73.7366 45.3716 73.9079 48.0514Z" fill="black"/>
<path d="M113.884 45.4967C114.056 48.1765 116.367 50.21 119.047 50.0387C121.727 49.8673 123.76 47.556 123.589 44.8762C123.418 42.1964 121.106 40.1629 118.426 40.3343C115.747 40.5056 113.713 42.8169 113.884 45.4967Z" fill="black"/>
<path d="M93.8962 46.7741C94.0675 49.4539 96.3788 51.4874 99.0586 51.316C101.738 51.1447 103.772 48.8334 103.601 46.1536C103.429 43.4738 101.118 41.4403 98.4381 41.6116C95.7583 41.783 93.7248 44.0943 93.8962 46.7741Z" fill="black"/>
<path d="M133.873 44.2194C134.044 46.8992 136.355 48.9327 139.035 48.7613C141.715 48.59 143.748 46.2787 143.577 43.5989C143.406 40.9191 141.094 38.8856 138.415 39.0569C135.735 39.2283 133.701 41.5396 133.873 44.2194Z" fill="black"/>
<path d="M16.3786 89.9928C16.55 92.6726 18.8613 94.7061 21.541 94.5348C24.2208 94.3634 26.2543 92.0521 26.083 89.3723C25.9116 86.6925 23.6003 84.659 20.9206 84.8304C18.2408 85.0017 16.2073 87.313 16.3786 89.9928Z" fill="black"/>
<path d="M36.3669 88.7155C36.5382 91.3953 38.8495 93.4288 41.5293 93.2574C44.2091 93.0861 46.2426 90.7748 46.0713 88.095C45.8999 85.4152 43.5886 83.3817 40.9088 83.553C38.229 83.7244 36.1955 86.0357 36.3669 88.7155Z" fill="black"/>
<path d="M56.3552 87.4381C56.5265 90.1179 58.8378 92.1514 61.5176 91.9801C64.1974 91.8087 66.2309 89.4974 66.0596 86.8176C65.8882 84.1378 63.5769 82.1043 60.8971 82.2757C58.2173 82.447 56.1838 84.7583 56.3552 87.4381Z" fill="black"/>
<path d="M116.32 83.6022C116.491 86.282 118.803 88.3155 121.482 88.1441C124.162 87.9728 126.196 85.6615 126.024 82.9817C125.853 80.3019 123.542 78.2684 120.862 78.4398C118.182 78.6111 116.149 80.9224 116.32 83.6022Z" fill="black"/>
<path d="M76.3434 86.1608C76.5148 88.8406 78.8261 90.8741 81.5059 90.7027C84.1857 90.5314 86.2192 88.2201 86.0478 85.5403C85.8765 82.8605 83.5652 80.827 80.8854 80.9983C78.2056 81.1697 76.1721 83.481 76.3434 86.1608Z" fill="black"/>
<path d="M96.3317 84.8795C96.5031 87.5593 98.8144 89.5928 101.494 89.4215C104.174 89.2501 106.207 86.9388 106.036 84.259C105.865 81.5792 103.553 79.5458 100.874 79.7171C98.1939 79.8884 96.1604 82.1997 96.3317 84.8795Z" fill="black"/>
<path d="M136.308 82.3248C136.48 85.0046 138.791 87.0381 141.471 86.8668C144.151 86.6954 146.184 84.3841 146.013 81.7044C145.841 79.0246 143.53 76.9911 140.85 77.1624C138.17 77.3338 136.137 79.6451 136.308 82.3248Z" fill="black"/>
<path d="M17.5974 109.048C17.7687 111.727 20.08 113.761 22.7598 113.589C25.4396 113.418 27.4731 111.107 27.3017 108.427C27.1304 105.747 24.8191 103.714 22.1393 103.885C19.4595 104.056 17.426 106.368 17.5974 109.048Z" fill="black"/>
<path d="M37.5856 107.77C37.757 110.45 40.0683 112.483 42.7481 112.312C45.4279 112.141 47.4614 109.829 47.29 107.15C47.1187 104.47 44.8074 102.436 42.1276 102.608C39.4478 102.779 37.4143 105.09 37.5856 107.77Z" fill="black"/>
<path d="M57.5739 106.489C57.7453 109.169 60.0566 111.202 62.7364 111.031C65.4162 110.86 67.4497 108.548 67.2783 105.868C67.107 103.189 64.7957 101.155 62.1159 101.326C59.4361 101.498 57.4026 103.809 57.5739 106.489Z" fill="black"/>
<path d="M156.791 117.824L15.0493 126.886C13.0489 127.012 11.0805 126.339 9.57569 125.015C8.07088 123.691 7.15246 121.824 7.0221 119.824L0.482411 17.5448C0.356991 15.5444 1.03019 13.576 2.35413 12.0712C3.67807 10.5664 5.54473 9.64796 7.5448 9.51759L149.287 0.454684C151.287 0.329264 153.256 1.00245 154.76 2.32639C156.265 3.65033 157.183 5.517 157.314 7.51707L163.854 109.796C163.979 111.797 163.306 113.765 161.982 115.27C160.658 116.775 158.791 117.693 156.791 117.824ZM7.64285 11.051C6.0485 11.1529 4.55979 11.884 3.5045 13.0835C2.44921 14.2829 1.91362 15.8524 2.01557 17.4468L8.55525 119.726C8.65719 121.32 9.3883 122.809 10.5878 123.864C11.7872 124.919 13.3569 125.455 14.9513 125.353L156.693 116.29C158.287 116.188 159.776 115.457 160.831 114.258C161.887 113.058 162.422 111.489 162.32 109.894L155.781 7.6151C155.679 6.02076 154.948 4.53227 153.748 3.47698C152.549 2.4217 150.979 1.88613 149.385 1.98807L7.64285 11.051Z" fill="black"/>
<path d="M11.0616 21.6385C10.3775 21.6822 9.69567 21.5222 9.10251 21.1784C8.50935 20.8347 8.03162 20.3229 7.72939 19.7076C7.42716 19.0922 7.31406 18.4011 7.40463 17.7216C7.49519 17.042 7.78531 16.4045 8.23816 15.8898C8.691 15.3751 9.28613 15.0062 9.94861 14.8298C10.6111 14.6534 11.3112 14.6776 11.96 14.899C12.6088 15.1204 13.1773 15.5293 13.5938 16.0738C14.0103 16.6184 14.2559 17.274 14.2996 17.9582C14.3583 18.8756 14.05 19.7789 13.4428 20.4691C12.8356 21.1593 11.9791 21.5798 11.0616 21.6385ZM10.7173 16.2536C10.3359 16.2762 9.96974 16.4114 9.66526 16.6422C9.36077 16.873 9.1316 17.189 9.00688 17.5502C8.88217 17.9113 8.86768 18.3013 8.96486 18.6708C9.06204 19.0403 9.26657 19.3727 9.55282 19.6258C9.83907 19.8789 10.1941 20.0414 10.5727 20.0925C10.9514 20.1437 11.3368 20.0814 11.6799 19.9133C12.0231 19.7453 12.3085 19.479 12.5003 19.1486C12.6921 18.8181 12.7815 18.4381 12.7571 18.0568C12.7221 17.5486 12.4885 17.0745 12.1068 16.7371C11.7252 16.3996 11.2261 16.226 10.7173 16.2536Z" fill="black"/>
<path d="M20.1105 21.0604C19.4263 21.1041 18.7447 20.944 18.1516 20.6003C17.5584 20.2566 17.0805 19.7448 16.7782 19.1294C16.476 18.5141 16.3629 17.823 16.4535 17.1435C16.544 16.4639 16.8341 15.8264 17.287 15.3117C17.7398 14.797 18.3352 14.4281 18.9977 14.2517C19.6601 14.0753 20.36 14.0995 21.0088 14.3209C21.6576 14.5423 22.2261 14.9512 22.6426 15.4957C23.0591 16.0403 23.3049 16.6959 23.3487 17.3801C23.4073 18.2975 23.0991 19.2008 22.4919 19.891C21.8846 20.5812 21.0279 21.0017 20.1105 21.0604ZM19.7662 15.6755C19.3847 15.698 19.0186 15.8333 18.7141 16.0641C18.4096 16.2949 18.1807 16.6109 18.0559 16.972C17.9312 17.3332 17.9165 17.7232 18.0137 18.0927C18.1109 18.4622 18.3156 18.7946 18.6019 19.0477C18.8881 19.3007 19.2429 19.4632 19.6216 19.5144C20.0002 19.5656 20.3856 19.5032 20.7287 19.3352C21.0719 19.1672 21.3574 18.9009 21.5491 18.5704C21.7409 18.24 21.8303 17.86 21.8059 17.4787C21.771 16.9704 21.5374 16.4964 21.1557 16.1589C20.774 15.8215 20.2749 15.6479 19.7662 15.6755Z" fill="black"/>
<path d="M29.1613 20.4783C28.4772 20.5221 27.7953 20.362 27.2022 20.0183C26.609 19.6745 26.1311 19.1627 25.8288 18.5474C25.5266 17.9321 25.4137 17.241 25.5043 16.5614C25.5949 15.8819 25.8848 15.2444 26.3376 14.7297C26.7904 14.215 27.3858 13.846 28.0483 13.6697C28.7108 13.4933 29.4106 13.5175 30.0594 13.7389C30.7083 13.9603 31.277 14.3691 31.6935 14.9137C32.1099 15.4582 32.3555 16.1139 32.3993 16.798C32.4579 17.7155 32.1497 18.6188 31.5425 19.309C30.9352 19.9992 30.0787 20.4197 29.1613 20.4783ZM28.817 15.0935C28.4332 15.1068 28.062 15.2343 27.7511 15.4598C27.4402 15.6852 27.2035 15.9981 27.0716 16.3588C26.9396 16.7194 26.9182 17.1115 27.0101 17.4843C27.1021 17.8572 27.3033 18.194 27.5879 18.4519C27.8725 18.7098 28.2274 18.8769 28.6075 18.9319C28.9876 18.9869 29.3756 18.9272 29.7216 18.7605C30.0676 18.5939 30.356 18.3279 30.5498 17.9964C30.7437 17.6649 30.8343 17.2829 30.81 16.8997C30.7781 16.3984 30.5521 15.9294 30.18 15.5921C29.8079 15.2548 29.3189 15.076 28.817 15.0935Z" fill="black"/>
<path d="M84.131 287.687L123.161 212.54C128.418 202.421 136.684 194.181 146.819 188.956C156.955 183.731 168.462 181.778 179.754 183.366L266.124 195.477C278.715 197.25 290.31 203.31 298.952 212.637L316.262 255.229C316.262 255.229 83.7112 284.684 84.131 287.687Z" fill="black"/>
<path d="M225.268 188.019L201.068 137.408L159.538 157.261L181.354 202.856C176.019 210.414 173.027 218.604 178.194 224.643C190.841 239.427 218.334 219.031 229.777 205.471L241.22 191.911L225.268 188.019Z" fill="white"/>
<path d="M193.049 230.923C191.99 231.076 190.921 231.152 189.851 231.152C187.447 231.237 185.055 230.775 182.855 229.8C180.656 228.825 178.707 227.364 177.155 225.525C172.368 219.921 173.249 212.262 179.77 202.721L158.356 157.843C158.264 157.691 158.204 157.522 158.18 157.346C158.155 157.17 158.167 156.991 158.213 156.82C158.271 156.649 158.362 156.491 158.482 156.356C158.602 156.221 158.747 156.111 158.91 156.033L200.438 136.164C200.762 136.023 201.128 136.014 201.458 136.137C201.789 136.26 202.06 136.506 202.213 136.824L226.146 186.85L241.455 190.597C241.681 190.651 241.889 190.762 242.06 190.92C242.231 191.077 242.359 191.275 242.432 191.496C242.505 191.716 242.52 191.952 242.477 192.18C242.433 192.408 242.333 192.621 242.184 192.8L230.741 206.359C223.336 215.233 207.056 228.964 193.049 230.923ZM161.369 157.977L182.591 202.327C182.697 202.545 182.742 202.788 182.723 203.03C182.704 203.273 182.62 203.505 182.481 203.705C176.346 212.401 175.273 219.161 179.252 223.803C180.546 225.337 182.173 226.556 184.009 227.366C185.845 228.176 187.842 228.557 189.847 228.478C197.127 228.452 214.168 221.965 228.736 204.655L238.751 192.792L224.958 189.422C224.76 189.372 224.576 189.279 224.419 189.15C224.261 189.021 224.134 188.858 224.046 188.674L200.422 139.295L161.369 157.977Z" fill="black"/>
<path d="M214.15 170.583L198.461 137.773L159.422 156.436L176.226 191.563C183.717 191.137 191.016 189.03 197.581 185.398C204.146 181.766 209.809 176.703 214.15 170.583Z" fill="black"/>
<path d="M239.701 141.83C244.998 130.612 246.061 117.856 242.695 105.916C239.328 93.9751 231.758 83.6541 221.381 76.8553L213.73 71.8194C205.562 66.4689 195.603 64.581 186.043 66.5707C176.483 68.5603 168.104 74.2644 162.749 82.4294L139.447 118.001C134.097 126.166 132.209 136.122 134.198 145.679C136.188 155.236 141.891 163.612 150.055 168.965L156.131 172.96C165.723 179.234 177.083 182.25 188.524 181.559C199.966 180.868 210.88 176.508 219.648 169.124C221.434 170.595 223.501 171.685 225.722 172.329C227.944 172.972 230.274 173.156 232.568 172.867C234.863 172.579 237.075 171.825 239.069 170.652C241.062 169.479 242.795 167.911 244.161 166.045C245.527 164.178 246.498 162.053 247.014 159.798C247.53 157.543 247.58 155.207 247.161 152.932C246.743 150.657 245.864 148.492 244.579 146.569C243.294 144.646 241.63 143.005 239.689 141.747L239.701 141.83Z" fill="white"/>
<path d="M193.014 182.433C179.872 184.3 166.499 181.334 155.379 174.087L149.305 170.108C145.109 167.363 141.495 163.817 138.67 159.674C135.845 155.531 133.864 150.871 132.842 145.961C131.82 141.052 131.775 135.989 132.711 131.062C133.648 126.135 135.546 121.442 138.298 117.249L161.6 81.6781C167.177 73.2348 175.866 67.34 185.773 65.2804C195.68 63.2208 205.999 65.1634 214.478 70.6845L222.144 75.702C232.598 82.6049 240.269 92.987 243.797 105.007C247.325 117.028 246.483 129.909 241.418 141.367C243.361 142.794 245.003 144.59 246.251 146.651C247.5 148.713 248.33 151.001 248.694 153.383C249.058 155.766 248.95 158.197 248.375 160.538C247.8 162.878 246.769 165.083 245.342 167.025C243.915 168.968 242.119 170.61 240.058 171.858C237.996 173.107 235.708 173.937 233.326 174.301C230.943 174.665 228.512 174.557 226.171 173.982C223.831 173.407 221.626 172.376 219.684 170.949C211.996 177.118 202.779 181.087 193.014 182.433ZM188.719 67.5075C183.721 68.2042 178.928 69.9612 174.664 72.6607C170.4 75.3602 166.762 78.9398 163.994 83.1598L140.692 118.731C135.554 126.591 133.744 136.169 135.66 145.362C137.576 154.555 143.062 162.612 150.912 167.764L156.988 171.759C166.343 177.837 177.395 180.765 188.531 180.115C199.667 179.466 210.304 175.274 218.889 168.15C219.129 167.963 219.425 167.861 219.73 167.861C220.035 167.861 220.331 167.963 220.571 168.15C222.231 169.518 224.158 170.524 226.229 171.103C228.3 171.682 230.469 171.823 232.597 171.515C235.746 171.078 238.686 169.69 241.025 167.537C243.363 165.383 244.989 162.568 245.683 159.466C246.378 156.363 246.109 153.123 244.913 150.178C243.716 147.233 241.648 144.723 238.987 142.985C238.713 142.801 238.515 142.525 238.428 142.207C238.34 141.889 238.369 141.55 238.509 141.252C243.629 130.327 244.646 117.924 241.373 106.311C238.099 94.6984 230.755 84.6518 220.683 78.0088L213.016 72.9748C205.833 68.2427 197.168 66.3013 188.653 67.5167L188.719 67.5075Z" fill="black"/>
<path d="M228.01 139.189C232.281 138.552 236.634 139.567 240.182 142.029L244.688 135.158C249.944 127.156 251.805 117.394 249.863 108.019C247.922 98.6437 242.336 90.4241 234.334 85.1678L213.851 71.7325C205.683 66.3821 195.724 64.4941 186.164 66.4837C176.604 68.4734 168.226 74.1779 162.87 82.3429C162.87 82.3429 179.191 67.5797 216.994 107.559L214.471 115.027C212.73 120.162 212.914 125.756 214.99 130.766L216.326 133.943L210.535 144.139C209.472 146.023 209.184 148.246 209.73 150.339C210.277 152.432 211.617 154.23 213.466 155.352C213.619 151.383 215.157 147.593 217.814 144.64C220.471 141.687 224.079 139.759 228.01 139.189Z" fill="black"/>
<path d="M149.978 126.553C148.871 126.711 147.751 126.761 146.635 126.701C144.28 126.595 141.97 126.027 139.836 125.028C137.702 124.029 135.785 122.619 134.195 120.88C132.606 119.14 131.374 117.105 130.571 114.889C129.768 112.674 129.41 110.322 129.516 107.968C129.622 105.614 130.19 103.304 131.189 101.169C132.188 99.035 133.597 97.118 135.337 95.5284C137.076 93.9387 139.112 92.7073 141.328 91.9043C143.543 91.1014 145.895 90.7426 148.249 90.8486C153.002 91.0663 157.474 93.1616 160.684 96.674C163.894 100.186 165.578 104.829 165.368 109.582C165.177 113.762 163.534 117.745 160.721 120.843C157.909 123.942 154.104 125.962 149.961 126.556L149.978 126.553ZM145.385 93.7049C141.52 94.2555 138.016 96.2744 135.601 99.3418C133.186 102.409 132.046 106.289 132.418 110.175C132.79 114.062 134.645 117.655 137.598 120.209C140.551 122.762 144.375 124.08 148.274 123.887C152.173 123.695 155.848 122.007 158.535 119.175C161.222 116.342 162.714 112.584 162.701 108.68C162.689 104.776 161.172 101.027 158.467 98.2127C155.761 95.3982 152.075 93.7344 148.175 93.5673C147.232 93.5306 146.287 93.578 145.352 93.7095L145.385 93.7049Z" fill="#2563EB"/>
<path d="M184.448 143.903C183.342 144.058 182.223 144.113 181.107 144.067C177.558 143.91 174.135 142.703 171.271 140.6C168.407 138.497 166.232 135.592 165.02 132.252C163.808 128.912 163.614 125.288 164.462 121.837C165.311 118.387 167.164 115.267 169.787 112.87C172.41 110.473 175.684 108.908 179.197 108.373C182.709 107.838 186.301 108.357 189.519 109.864C192.736 111.371 195.435 113.799 197.272 116.84C199.109 119.881 200.003 123.399 199.84 126.948C199.649 131.127 198.005 135.107 195.192 138.203C192.379 141.299 188.573 143.315 184.432 143.905L184.448 143.903ZM179.855 111.055C176.333 111.544 173.092 113.25 170.695 115.877C168.297 118.503 166.894 121.886 166.728 125.438C166.631 127.437 166.93 129.435 167.606 131.318C168.283 133.201 169.325 134.932 170.671 136.412C172.018 137.891 173.644 139.091 175.455 139.941C177.266 140.792 179.228 141.276 181.226 141.368C183.225 141.459 185.223 141.155 187.104 140.473C188.985 139.791 190.713 138.744 192.189 137.393C193.665 136.042 194.859 134.413 195.705 132.6C196.55 130.786 197.029 128.823 197.115 126.824C197.299 122.795 195.874 118.857 193.155 115.878C190.435 112.899 186.644 111.122 182.615 110.938C181.677 110.896 180.736 110.938 179.806 111.062L179.855 111.055Z" fill="#2563EB"/>
<path d="M219.723 143.429C219.425 143.466 219.122 143.408 218.859 143.264L197.376 131.213C197.059 131.034 196.825 130.737 196.727 130.386C196.63 130.036 196.675 129.66 196.853 129.343C197.032 129.026 197.33 128.793 197.68 128.695C198.031 128.597 198.406 128.642 198.723 128.821L220.235 140.952C220.391 141.041 220.528 141.159 220.638 141.301C220.748 141.442 220.829 141.604 220.877 141.777C220.924 141.95 220.938 142.131 220.915 142.309C220.893 142.487 220.836 142.659 220.747 142.815C220.637 142.991 220.487 143.138 220.309 143.245C220.131 143.351 219.93 143.414 219.723 143.429Z" fill="#2563EB"/>
<path d="M168.502 116.962C168.175 117.009 167.842 116.936 167.565 116.757L162.533 113.491C162.382 113.393 162.252 113.266 162.15 113.118C162.048 112.969 161.977 112.802 161.94 112.626C161.902 112.45 161.9 112.268 161.934 112.091C161.967 111.914 162.035 111.746 162.133 111.595C162.23 111.442 162.356 111.311 162.504 111.207C162.652 111.104 162.82 111.032 162.997 110.994C163.174 110.957 163.356 110.956 163.533 110.99C163.711 111.025 163.879 111.095 164.029 111.196L169.044 114.464C169.196 114.559 169.327 114.684 169.429 114.83C169.532 114.976 169.605 115.141 169.644 115.316C169.682 115.49 169.686 115.671 169.654 115.847C169.622 116.023 169.556 116.191 169.458 116.341C169.352 116.506 169.211 116.646 169.046 116.753C168.882 116.86 168.696 116.931 168.502 116.962Z" fill="#2563EB"/>
<path d="M187.516 126.266C186.173 128.691 183.844 129.959 182.296 129.115C180.748 128.272 180.596 125.619 181.939 123.194C183.282 120.769 185.611 119.501 187.143 120.347C188.674 121.192 188.861 123.858 187.516 126.266Z" fill="black"/>
<path d="M159.413 112.464C158.07 114.889 155.741 116.156 154.194 115.313C152.646 114.47 152.491 111.8 153.818 109.377C155.144 106.955 157.49 105.685 159.04 106.545C160.59 107.404 160.74 110.041 159.413 112.464Z" fill="black"/>
<path d="M159.967 147.225C158.163 147.415 156.339 147.182 154.641 146.543C152.942 145.905 151.417 144.879 150.185 143.547C149.946 143.276 149.822 142.922 149.841 142.561C149.859 142.2 150.019 141.86 150.285 141.615C150.418 141.495 150.574 141.402 150.743 141.342C150.912 141.282 151.091 141.256 151.271 141.265C151.45 141.274 151.626 141.318 151.789 141.396C151.951 141.473 152.096 141.582 152.216 141.715C152.434 141.954 157.056 146.859 162.709 143.377C162.863 143.283 163.033 143.219 163.211 143.191C163.389 143.163 163.571 143.17 163.746 143.212C163.922 143.253 164.087 143.329 164.233 143.435C164.379 143.541 164.503 143.674 164.597 143.828C164.692 143.981 164.755 144.152 164.783 144.33C164.812 144.508 164.805 144.69 164.763 144.865C164.721 145.041 164.645 145.206 164.539 145.352C164.434 145.498 164.3 145.622 164.146 145.716C162.872 146.501 161.449 147.015 159.967 147.225Z" fill="black"/>
<path d="M199.484 113.809C199.179 113.85 198.87 113.788 198.605 113.633C198.34 113.478 198.133 113.239 198.019 112.954C195.082 105.425 185.478 103.623 185.391 103.602C185.207 103.579 185.03 103.519 184.871 103.425C184.711 103.332 184.572 103.208 184.462 103.059C184.352 102.911 184.273 102.742 184.231 102.562C184.188 102.382 184.182 102.195 184.213 102.013C184.245 101.831 184.313 101.657 184.414 101.502C184.514 101.347 184.645 101.214 184.799 101.111C184.953 101.008 185.125 100.937 185.307 100.903C185.488 100.869 185.675 100.872 185.856 100.912C186.32 100.982 197.061 102.979 200.568 111.942C200.639 112.11 200.676 112.29 200.675 112.473C200.674 112.655 200.636 112.835 200.564 113.003C200.491 113.17 200.385 113.321 200.253 113.447C200.12 113.572 199.964 113.669 199.793 113.732C199.695 113.774 199.59 113.799 199.484 113.809Z" fill="black"/>
<path d="M166.945 97.2847C166.684 97.3203 166.419 97.281 166.181 97.1714C165.942 97.0618 165.739 96.8864 165.596 96.6658C164.199 94.5929 162.32 92.889 160.121 91.6998C157.922 90.5105 155.468 89.8709 152.968 89.836C152.789 89.8383 152.611 89.8051 152.445 89.7379C152.278 89.6707 152.127 89.5711 152 89.4449C151.873 89.3186 151.772 89.1679 151.703 89.0022C151.635 88.8365 151.6 88.659 151.601 88.4797C151.601 88.1178 151.742 87.77 151.995 87.5113C152.248 87.2526 152.593 87.1037 152.955 87.0962C155.922 87.1351 158.835 87.8937 161.444 89.3074C164.054 90.7211 166.28 92.7473 167.933 95.2118C168.119 95.521 168.176 95.8905 168.094 96.2415C168.011 96.5925 167.794 96.8972 167.49 97.0906C167.324 97.1944 167.138 97.2607 166.945 97.2847Z" fill="black"/>
<path d="M219.033 158.227C218.783 158.271 218.525 158.236 218.296 158.128C218.131 158.056 217.982 157.953 217.857 157.823C217.732 157.694 217.634 157.541 217.568 157.373C217.503 157.206 217.471 157.028 217.475 156.848C217.478 156.668 217.517 156.491 217.589 156.326C217.729 156.004 221.18 148.322 227.605 146.027C229.115 145.507 230.718 145.311 232.309 145.454C233.901 145.597 235.444 146.075 236.838 146.856C237.159 147.021 237.402 147.307 237.513 147.651C237.624 147.994 237.594 148.368 237.43 148.69C237.262 149.013 236.974 149.257 236.627 149.369C236.281 149.48 235.904 149.45 235.579 149.286C234.519 148.675 233.341 148.297 232.124 148.177C230.906 148.058 229.677 148.199 228.518 148.591C223.231 150.474 220.122 157.351 220.098 157.422C220.003 157.635 219.855 157.821 219.669 157.961C219.483 158.102 219.264 158.194 219.033 158.227Z" fill="black"/>
<path d="M237.07 93.1817C236.756 93.2266 236.436 93.158 236.168 92.9883C235.858 92.7983 235.635 92.4937 235.548 92.1407C235.461 91.7877 235.517 91.4147 235.703 91.1023C238.536 86.4672 234.125 80.5404 234.082 80.479C233.973 80.3355 233.894 80.1718 233.848 79.9972C233.802 79.8227 233.792 79.6407 233.817 79.462C233.842 79.2833 233.902 79.1116 233.994 78.9563C234.086 78.8011 234.208 78.6656 234.352 78.5576C234.641 78.3401 235.005 78.2448 235.363 78.2922C235.722 78.3395 236.048 78.5258 236.271 78.8108C236.499 79.1154 241.856 86.2718 238.04 92.5413C237.934 92.712 237.793 92.8579 237.625 92.9685C237.458 93.079 237.268 93.1518 237.07 93.1817Z" fill="black"/>
<path d="M239.014 90.6023C238.65 90.6541 238.28 90.5608 237.985 90.3425C237.842 90.2344 237.721 90.0992 237.63 89.9445C237.539 89.7898 237.48 89.6186 237.455 89.4408C237.43 89.2631 237.44 89.0822 237.485 88.9085C237.53 88.7348 237.609 88.5716 237.717 88.4284C238.454 87.3214 239.556 86.5079 240.831 86.1298C242.106 85.7517 243.473 85.8332 244.695 86.3596C245.01 86.5215 245.251 86.7997 245.365 87.1357C245.479 87.4717 245.458 87.8389 245.306 88.1595C245.154 88.4802 244.883 88.7293 244.551 88.8539C244.219 88.9786 243.851 88.9689 243.526 88.8273C242.875 88.5657 242.151 88.5476 241.488 88.7763C240.825 89.0049 240.266 89.4654 239.915 90.0726C239.807 90.2158 239.672 90.3359 239.517 90.4268C239.362 90.5177 239.192 90.5775 239.014 90.6023Z" fill="black"/>
<path d="M108.391 192.316L100.919 138.878C100.514 135.941 99.3316 133.165 97.4951 130.838C95.6586 128.51 93.2344 126.715 90.4724 125.637C89.5209 125.261 88.4871 125.141 87.4748 125.289C86.4624 125.437 85.5065 125.849 84.7029 126.482C83.8993 127.116 83.2762 127.949 82.8954 128.898C82.5146 129.848 82.3898 130.881 82.5332 131.894L87.9152 170.385C85.9811 169.562 83.8605 169.277 81.778 169.561L81.3325 169.623C79.4555 169.878 77.6678 170.582 76.1221 171.677C74.5764 172.772 73.3184 174.224 72.4554 175.911C71.7294 175.87 71.0012 175.899 70.2806 175.996L69.8351 176.058C67.8586 176.313 65.9804 177.069 64.3795 178.256C62.7787 179.443 61.5085 181.02 60.6905 182.838C60.6905 182.838 60.702 182.92 60.7066 182.953C59.707 182.855 58.6996 182.877 57.7053 183.019C54.2048 183.509 51.0419 185.369 48.9128 188.19C46.7837 191.012 45.8627 194.563 46.3522 198.063L59.1877 289.86C59.2128 290.04 59.3078 290.202 59.4524 290.311C59.5969 290.42 59.7792 290.467 59.9586 290.442L116.845 282.488C117.024 282.463 117.186 282.367 117.295 282.223C117.404 282.078 117.452 281.896 117.426 281.717L111.082 236.347L111.676 235.54C114.443 231.903 116.46 227.753 117.608 223.33C118.757 218.907 119.015 214.3 118.368 209.777L117.445 203.177C117.069 200.714 116.027 198.4 114.431 196.486C112.835 194.571 110.747 193.129 108.391 192.316Z" fill="white"/>
<path d="M97.0114 255.522C96.7437 255.56 96.4708 255.517 96.2275 255.399C95.9841 255.282 95.7814 255.095 95.6444 254.862C95.5073 254.629 95.4425 254.36 95.458 254.09C95.4736 253.821 95.5689 253.562 95.7317 253.346L110.036 234.391C112.635 230.966 114.528 227.06 115.606 222.898C116.685 218.737 116.927 214.403 116.319 210.148L115.396 203.548C114.968 200.485 113.34 197.718 110.871 195.855C108.403 193.992 105.295 193.186 102.232 193.614L78.0459 196.996C77.3673 197.093 76.7182 197.337 76.1435 197.711C75.5688 198.085 75.0822 198.58 74.7183 199.16C74.3543 199.741 74.1216 200.395 74.036 201.075C73.9505 201.755 74.0142 202.446 74.2229 203.099C74.7924 204.877 75.9044 206.433 77.4026 207.548C78.9009 208.662 80.7102 209.28 82.5773 209.315L97.2845 209.597C97.6098 209.602 97.9228 209.724 98.1665 209.939C98.4101 210.155 98.5686 210.451 98.6137 210.773C98.6587 211.096 98.5874 211.423 98.4123 211.698C98.2371 211.972 97.9695 212.174 97.6582 212.269C94.8285 213.361 92.2035 214.922 89.8935 216.887C87.6641 218.631 85.9375 220.935 84.8896 223.563C83.8416 226.192 83.5098 229.052 83.9285 231.851C83.9786 232.21 83.8845 232.574 83.6663 232.863C83.4481 233.152 83.1239 233.343 82.7651 233.393C82.4063 233.443 82.0422 233.348 81.753 233.13C81.4639 232.912 81.2731 232.588 81.2229 232.229C79.7604 221.769 86.6116 215.428 91.6697 212.265L82.4253 212.078C79.9872 212.036 77.6239 211.23 75.6673 209.775C73.7108 208.32 72.2598 206.288 71.5183 203.965C71.1847 202.932 71.0811 201.838 71.2153 200.762C71.3496 199.685 71.7181 198.65 72.295 197.731C72.872 196.812 73.6436 196.03 74.555 195.441C75.4665 194.852 76.4958 194.47 77.5708 194.321L101.757 190.939C105.533 190.416 109.362 191.411 112.404 193.707C115.447 196.003 117.454 199.412 117.986 203.186L118.909 209.786C119.566 214.398 119.301 219.095 118.13 223.604C116.959 228.113 114.904 232.345 112.086 236.055L97.8635 254.999C97.6557 255.275 97.3512 255.462 97.0114 255.522Z" fill="black"/>
<path d="M107.927 193.914C107.568 193.964 107.204 193.87 106.915 193.652C106.626 193.433 106.435 193.109 106.385 192.75L98.8922 139.164C98.5295 136.588 97.4885 134.154 95.8759 132.113C94.2633 130.071 92.1372 128.495 89.715 127.545C89.0967 127.306 88.4267 127.233 87.7712 127.332C87.1157 127.432 86.4976 127.702 85.9787 128.115C85.4598 128.527 85.058 129.069 84.8132 129.685C84.5684 130.301 84.4894 130.971 84.5837 131.627L89.9726 170.167C89.9825 170.507 89.8664 170.84 89.6467 171.1C89.427 171.36 89.1188 171.53 88.7816 171.577C88.4444 171.624 88.1019 171.545 87.8193 171.355C87.5366 171.165 87.3339 170.878 87.2501 170.548L81.8612 132.008C81.7007 130.876 81.8397 129.723 82.2644 128.662C82.6892 127.602 83.3851 126.671 84.2821 125.963C85.1791 125.256 86.246 124.796 87.3764 124.63C88.5068 124.463 89.6611 124.596 90.7239 125.016C93.5959 126.144 96.1164 128.015 98.0276 130.437C99.9387 132.859 101.172 135.747 101.6 138.802L109.084 192.323C109.116 192.503 109.111 192.689 109.07 192.868C109.029 193.047 108.952 193.216 108.844 193.364C108.736 193.513 108.599 193.638 108.441 193.733C108.284 193.827 108.109 193.889 107.927 193.914Z" fill="black"/>
<path d="M96.4299 194.091C96.069 194.137 95.7047 194.039 95.4156 193.818C95.1265 193.597 94.9358 193.271 94.8854 192.91L93.0792 179.992C92.7171 177.435 91.356 175.124 89.2939 173.568C87.2319 172.012 84.6374 171.337 82.0784 171.69L81.6329 171.753C80.0072 171.977 78.4648 172.609 77.1491 173.59C75.8334 174.571 74.7872 175.869 74.108 177.363C73.9555 177.692 73.6783 177.948 73.3378 178.072C72.9972 178.197 72.6211 178.182 72.2919 178.029C71.9628 177.877 71.7075 177.6 71.5826 177.259C71.4577 176.919 71.4732 176.542 71.6257 176.213C72.4962 174.304 73.8355 172.645 75.519 171.392C77.2025 170.139 79.1755 169.333 81.2546 169.047L81.7001 168.985C84.9782 168.531 88.3027 169.394 90.9456 171.386C93.5885 173.378 95.3346 176.335 95.8016 179.612L97.6079 192.53C97.6587 192.893 97.563 193.261 97.3421 193.554C97.1212 193.847 96.7931 194.04 96.4299 194.091Z" fill="black"/>
<path d="M84.322 196.067C83.9617 196.117 83.5959 196.024 83.3041 195.806C83.0124 195.589 82.8181 195.265 82.7634 194.906L81.5776 186.425C81.2195 183.864 79.8596 181.55 77.7966 179.99C75.7336 178.43 73.136 177.753 70.5742 178.107L70.1287 178.169C68.5046 178.392 66.964 179.023 65.6507 180.004C64.3373 180.985 63.2945 182.283 62.6203 183.778C62.4456 184.071 62.1689 184.288 61.8431 184.39C61.5173 184.491 61.1655 184.468 60.8555 184.326C60.5455 184.183 60.2991 183.932 60.1636 183.618C60.0282 183.305 60.0134 182.953 60.1219 182.63C60.9924 180.72 62.3314 179.062 64.0148 177.809C65.6983 176.556 67.6713 175.749 69.7503 175.463L70.1958 175.401C73.4768 174.947 76.8043 175.812 79.4482 177.807C82.0922 179.803 83.8367 182.765 84.2997 186.045L85.4855 194.525C85.5103 194.703 85.5002 194.883 85.4551 195.057C85.4101 195.231 85.3313 195.394 85.2233 195.537C85.1152 195.68 84.9799 195.801 84.8252 195.892C84.6706 195.983 84.4997 196.042 84.322 196.067Z" fill="black"/>
<path d="M116.951 283.249C116.773 283.276 116.591 283.267 116.417 283.223C116.242 283.179 116.078 283.101 115.935 282.992C115.791 282.884 115.67 282.747 115.58 282.592C115.49 282.436 115.431 282.264 115.409 282.085L109.316 238.513C109.266 238.154 109.361 237.79 109.579 237.501C109.797 237.212 110.121 237.021 110.48 236.971C110.839 236.921 111.203 237.015 111.492 237.234C111.781 237.452 111.972 237.776 112.022 238.135L118.115 281.707C118.165 282.065 118.07 282.429 117.852 282.719C117.634 283.008 117.31 283.199 116.951 283.249Z" fill="black"/>
<path d="M60.0659 291.202C59.8879 291.229 59.7063 291.221 59.5317 291.177C59.3572 291.133 59.1934 291.054 59.0497 290.946C58.906 290.837 58.7855 290.701 58.6952 290.545C58.6049 290.389 58.5464 290.217 58.5237 290.038L45.6882 198.242C45.1737 194.562 46.1423 190.829 48.3805 187.863C50.6188 184.897 53.9436 182.942 57.6235 182.427C61.3034 181.913 65.037 182.881 68.0029 185.119C70.9688 187.357 72.9239 190.682 73.4385 194.362L75.9599 212.394C76.133 213.633 75.8073 214.889 75.0541 215.887C74.3009 216.885 73.1819 217.543 71.9436 217.716C69.3182 218.084 66.6545 217.393 64.5385 215.796C62.4225 214.199 61.0276 211.827 60.6605 209.202L59.4748 200.722C59.4649 200.381 59.5809 200.049 59.8006 199.789C60.0203 199.529 60.3281 199.359 60.6653 199.312C61.0025 199.265 61.3455 199.344 61.6281 199.534C61.9107 199.723 62.1134 200.011 62.1972 200.341L63.383 208.821C63.6467 210.707 64.6484 212.411 66.1684 213.558C67.6884 214.705 69.6018 215.201 71.4877 214.938C72.0084 214.865 72.479 214.588 72.7957 214.168C73.1124 213.749 73.2495 213.22 73.1767 212.699L70.6553 194.667C70.4502 193.2 69.9582 191.788 69.2074 190.511C68.4566 189.235 67.4617 188.119 66.2795 187.226C65.0973 186.334 63.7511 185.684 62.3175 185.312C60.8839 184.94 59.391 184.854 57.9242 185.059C56.4574 185.264 55.0453 185.756 53.7687 186.507C52.492 187.258 51.3758 188.253 50.4837 189.435C49.5916 190.617 48.941 191.963 48.5692 193.397C48.1974 194.831 48.1115 196.324 48.3166 197.79L61.1521 289.587C61.1883 289.765 61.1886 289.947 61.1534 290.125C61.1182 290.303 61.048 290.472 60.9469 290.622C60.8458 290.772 60.7159 290.901 60.5646 291.001C60.4133 291.1 60.2439 291.169 60.0659 291.202Z" fill="black"/>
<path d="M64.0487 201.544L57.7957 202.419C57.4369 202.469 57.0729 202.374 56.7837 202.156C56.4945 201.938 56.3037 201.614 56.2536 201.255C56.2034 200.896 56.2979 200.532 56.5162 200.243C56.7344 199.954 57.0586 199.763 57.4174 199.713L63.6703 198.839C64.0291 198.789 64.3932 198.883 64.6823 199.101C64.9715 199.319 65.1619 199.643 65.212 200.002C65.2622 200.361 65.1681 200.725 64.9499 201.014C64.7316 201.303 64.4075 201.494 64.0487 201.544Z" fill="black"/>
</g>
<defs>
<clipPath id="clip0_2212_37262">
<rect width="260" height="260" fill="white"/>
</clipPath>
</defs>
</svg>
