<svg viewBox="0 0 117 80" fill="none" xmlns="http://www.w3.org/2000/svg">
<rect width="116.243" height="80" fill="white"/>
<path d="M26.8539 55.7629C26.4471 52.2165 26.8621 43.1999 29.0446 35.1098C30.061 31.3416 31.9644 25.9524 35.2587 21.6768C37.2369 19.1094 38.7592 18.1754 38.823 18.1368L38.9748 18.3887C38.9595 18.398 37.4247 19.3422 35.4782 21.8734C33.6805 24.211 31.1542 28.4184 29.3284 35.1863C26.9457 44.0188 26.8321 52.9919 27.146 55.7292L26.8539 55.7627V55.7629Z" fill="#231D1E"/>
<path d="M42.3775 19.0146C40.9164 19.7718 39.3119 19.6373 38.5954 18.6211C37.8787 17.6053 38.2898 16.0481 39.4926 14.9246C39.4206 15.788 39.6504 16.7002 40.2042 17.4855C40.758 18.2707 41.5399 18.7925 42.3775 19.0146Z" fill="#231D1E"/>
<path d="M42.9417 18.6696C42.757 18.8 42.5681 18.9147 42.3763 19.0144C41.5386 18.7923 40.7568 18.2705 40.203 17.4852C39.6491 16.7 39.4194 15.7875 39.4913 14.9243C39.6494 14.777 39.8208 14.6371 40.0055 14.5068C41.5961 13.3838 43.5429 13.4054 44.3539 14.5549C45.1647 15.7045 44.5327 17.5467 42.9417 18.6694V18.6696Z" fill="#F3CE49"/>
<path d="M53.2934 19.9555C53.2849 19.9833 53.2759 20.0116 53.2668 20.0399C52.9795 20.9181 52.3172 21.985 51.349 23.1504L48.9048 24.0716L50.6379 23.9651C49.1733 25.5685 47.2006 27.3107 44.8912 28.9809L40.642 30.4008L42.7479 30.4455C40.4278 33.1736 35.4703 34.9282 33.2732 35.4183C33.1944 35.4364 33.1196 35.4523 33.0488 35.4665C33.0874 35.3395 33.1298 35.2064 33.1774 35.0665C33.9315 32.8534 35.8579 29.1198 39.7859 26.1793L39.093 28.1696L41.906 24.6813C44.2765 23.0994 46.5966 21.8586 48.6102 21.045L47.9054 22.6325L49.6221 20.6626C50.8617 20.2286 51.9524 19.9838 52.822 19.951C52.9875 19.9447 53.1444 19.9464 53.2934 19.9555Z" fill="#587B27"/>
<path d="M53.2923 19.9555C53.2838 19.9833 53.2747 20.0116 53.2656 20.0399C52.2696 20.5889 39.225 27.8693 33.272 35.4183C33.0414 35.7106 32.8216 36.003 32.6137 36.2959C27.4596 43.5452 26.0438 56.4799 25.9327 60.8516L25.6387 60.8442C25.7503 56.4471 27.1775 43.4347 32.374 36.1254C32.625 35.7724 32.893 35.4189 33.1763 35.0665C38.8646 27.9832 50.6062 21.1957 52.8209 19.951C52.9863 19.9447 53.1433 19.9464 53.2923 19.9555Z" fill="#231D1E"/>
<path d="M24.2679 29.1494C24.2356 29.2395 24.2016 29.3262 24.1659 29.4095C24.1081 29.367 24.0503 29.3222 23.992 29.2746C21.9172 27.5987 19.507 23.1115 17.7393 17.4152L19.6702 18.9659L16.915 14.477C16.0963 11.2277 15.6351 8.16879 15.5274 5.61753L17.0073 7.02319L15.502 4.34615C15.5093 2.65494 15.6986 1.25155 16.0646 0.25099C16.0957 0.164305 16.1286 0.0804528 16.1631 0C16.2215 0.0430592 16.2799 0.0883847 16.3382 0.135977C17.1711 0.809627 18.0583 1.9354 18.9354 3.41131L18.9937 6.48268L19.5574 4.52009C20.7569 6.7739 21.9093 9.6447 22.8498 12.8605L22.7495 18.1274L23.6282 15.8112C24.9806 21.5749 25.184 26.6327 24.2679 29.1494Z" fill="#587B27"/>
<path d="M26.2508 56.4971C26.2258 57.3617 26.202 58.1775 26.1907 58.918L25.8967 58.9135C25.908 58.1713 25.9318 57.3538 25.9567 56.4886C26.1188 50.8682 26.3647 42.3748 24.0213 29.4361C24.0117 29.3823 24.0021 29.3284 23.9919 29.2746C22.9466 23.5931 20.7109 16.0962 18.7364 9.47416C17.7426 6.14274 16.797 2.97279 16.0645 0.25099C16.0956 0.164305 16.1285 0.0804528 16.163 0C16.2214 0.0430592 16.2797 0.0883847 16.3381 0.135976C17.0712 2.86231 18.0202 6.04472 19.018 9.39031C20.9862 15.9914 23.2145 23.4616 24.2678 29.1494C24.2825 29.2276 24.2967 29.3058 24.3108 29.3834C26.6593 42.3527 26.4134 50.8648 26.2508 56.4971Z" fill="#231D1E"/>
<path d="M26.7219 53.2328C26.1281 48.7422 24.1737 43.4813 21.2185 38.419C18.5993 33.9323 15.4959 30.2103 13.1191 28.7055L13.2764 28.457C15.6902 29.9854 18.8307 33.7457 21.4723 38.2706C24.4468 43.366 26.4145 48.666 27.0134 53.1943L26.7219 53.2328Z" fill="#231D1E"/>
<path d="M9.83789 29.7549C11.3812 30.3263 12.9568 29.9951 13.543 28.8985C14.1291 27.8019 13.5296 26.3073 12.1974 25.3405C12.3753 26.1883 12.2594 27.122 11.8064 27.9696C11.3535 28.8169 10.6419 29.4314 9.83789 29.7549Z" fill="#231D1E"/>
<path d="M9.23424 29.483C9.43367 29.5895 9.63537 29.6802 9.83791 29.7555C10.6419 29.432 11.3535 28.8176 11.8065 27.9703C12.2594 27.123 12.3753 26.189 12.1974 25.3411C12.0223 25.2142 11.8351 25.0969 11.6356 24.9901C9.91893 24.0717 7.98949 24.3329 7.32632 25.5737C6.66315 26.8145 7.51725 28.5646 9.23424 29.483Z" fill="#F3CE49"/>
<path d="M31.721 55.3768H30.8035V43.0437H22.9956V55.3768H22.078C18.5333 55.3768 15.2314 57.1779 13.3113 60.1586C11.5031 62.9657 11.147 66.4691 12.354 69.5826L16.3917 79.9993H37.4077L41.4453 69.5826C42.6521 66.4691 42.2963 62.9657 40.4881 60.1586C38.568 57.1779 35.266 55.3768 31.7213 55.3768H31.721Z" fill="#172554"/>
<path d="M41.4062 29.8053H105.474L116.244 79.9999H52.1767L41.4062 29.8053Z" fill="#F1F5F9"/>
<path d="M52.2061 79.9999H27.5117L38.2822 29.8053H41.4357L52.2061 79.9999Z" fill="#CBD5E1"/>
<path d="M50.5693 34.0972C51.1838 33.962 51.551 33.2568 51.3893 32.5221C51.2276 31.7875 50.5984 31.3016 49.9838 31.4368C49.3693 31.572 49.0021 32.2772 49.1638 33.0118C49.3255 33.7465 49.9547 34.2324 50.5693 34.0972Z" fill="black"/>
<path d="M50.2483 34.1395L49.7653 28.5297C49.684 27.5838 48.8814 26.8492 47.9344 26.8492C47.9282 26.8492 47.9219 26.8492 47.9157 26.8492C47.4018 26.8546 46.9273 27.0659 46.58 27.4453C46.2327 27.8243 46.063 28.3152 46.1024 28.828L46.1772 29.8053H45.8823L45.8092 28.8503C45.7636 28.2557 45.9605 27.686 46.3633 27.2464C46.7661 26.8067 47.3166 26.5611 47.9126 26.5552C47.9199 26.5552 47.927 26.5552 47.9344 26.5552C49.033 26.5552 49.9638 27.4073 50.0582 28.5045L50.5412 34.1143L50.2483 34.1395Z" fill="black"/>
<path d="M58.4384 34.0978C59.053 33.9626 59.4201 33.2574 59.2584 32.5227C59.0968 31.7881 58.4675 31.3022 57.853 31.4374C57.2384 31.5726 56.8713 32.2778 57.0329 33.0125C57.1946 33.7471 57.8238 34.233 58.4384 34.0978Z" fill="black"/>
<path d="M58.1177 34.1393L57.6347 28.5295C57.5528 27.5773 56.7389 26.8354 55.7851 26.849C55.2712 26.8544 54.7967 27.0657 54.4494 27.4448C54.1021 27.8238 53.9324 28.3147 53.9715 28.8275L54.0463 29.8048H53.7514L53.6783 28.8499C53.6327 28.2552 53.8296 27.6856 54.2324 27.2459C54.6353 26.8062 55.1857 26.5609 55.7817 26.5547C55.7891 26.5547 55.7962 26.5547 55.8035 26.5547C56.9021 26.5547 57.833 27.4068 57.9273 28.504L58.4103 34.1138L58.1174 34.1391L58.1177 34.1393Z" fill="black"/>
<path d="M66.3075 34.0985C66.9221 33.9633 67.2892 33.2581 67.1276 32.5235C66.9659 31.7888 66.3367 31.3029 65.7221 31.4381C65.1076 31.5734 64.7404 32.2785 64.9021 33.0132C65.0637 33.7478 65.693 34.2338 66.3075 34.0985Z" fill="black"/>
<path d="M65.9884 34.1393L65.5054 28.5295C65.4233 27.5773 64.6117 26.836 63.6559 26.849C63.1417 26.8544 62.6675 27.0657 62.3202 27.4448C61.9729 27.8238 61.8032 28.3147 61.8426 28.8275L61.9174 29.8048H61.6225L61.5494 28.8499C61.504 28.2552 61.7006 27.6856 62.1038 27.2459C62.5066 26.8062 63.057 26.5609 63.653 26.5547C63.6604 26.5547 63.6675 26.5547 63.6748 26.5547C64.7734 26.5547 65.704 27.4068 65.7986 28.504L66.2816 34.1138L65.9887 34.1391L65.9884 34.1393Z" fill="black"/>
<path d="M74.1786 34.0992C74.7932 33.9639 75.1603 33.2587 74.9987 32.5241C74.837 31.7894 74.2078 31.3035 73.5932 31.4387C72.9787 31.574 72.6115 32.2791 72.7732 33.0138C72.9348 33.7485 73.5641 34.2344 74.1786 34.0992Z" fill="black"/>
<path d="M73.8576 34.1394L73.3746 28.5295C73.2924 27.5774 72.4828 26.836 71.525 26.8491C71.0111 26.8545 70.5366 27.0658 70.1893 27.4448C69.842 27.8238 69.6723 28.3148 69.7117 28.8275L69.7865 29.8049L69.4916 29.806L69.4185 28.8499C69.3732 28.2553 69.5698 27.6856 69.9729 27.2459C70.3757 26.8063 70.9261 26.561 71.5222 26.5547C72.629 26.5474 73.5726 27.3995 73.6678 28.504L74.1508 34.1139L73.8578 34.1391L73.8576 34.1394Z" fill="black"/>
<path d="M82.0478 34.0992C82.6623 33.9639 83.0295 33.2587 82.8678 32.5241C82.7062 31.7894 82.0769 31.3035 81.4624 31.4387C80.8478 31.574 80.4807 32.2791 80.6423 33.0138C80.804 33.7485 81.4332 34.2344 82.0478 34.0992Z" fill="black"/>
<path d="M81.7267 34.1395L81.2437 28.5296C81.1616 27.5775 80.3533 26.8387 79.3941 26.8491C78.8803 26.8545 78.4058 27.0659 78.0585 27.4449C77.7112 27.8239 77.5415 28.3149 77.5808 28.8276L77.6556 29.8049H77.3607L77.2876 28.85C77.2423 28.2554 77.4389 27.6857 77.842 27.246C78.2449 26.8064 78.7953 26.561 79.3913 26.5548C80.499 26.5429 81.442 27.3996 81.5369 28.5041L82.0199 34.114L81.727 34.1392L81.7267 34.1395Z" fill="black"/>
<path d="M89.9189 34.0998C90.5334 33.9645 90.9006 33.2594 90.7389 32.5247C90.5773 31.79 89.948 31.3041 89.3335 31.4393C88.7189 31.5746 88.3518 32.2798 88.5134 33.0144C88.6751 33.7491 89.3043 34.235 89.9189 34.0998Z" fill="black"/>
<path d="M89.5978 34.1393L89.1148 28.5295C89.0332 27.5836 88.2307 26.849 87.2839 26.849C87.2777 26.849 87.2715 26.849 87.2652 26.849C86.7514 26.8544 86.2769 27.0657 85.9296 27.4448C85.5823 27.8238 85.4126 28.3147 85.4519 28.8275L85.5267 29.8048H85.2318L85.1587 28.8499C85.1134 28.2552 85.31 27.6856 85.7131 27.2459C86.116 26.8062 86.6664 26.5609 87.2624 26.5547C87.2698 26.5547 87.2768 26.5547 87.2842 26.5547C88.3828 26.5547 89.3137 27.4068 89.408 28.504L89.891 34.1138L89.5981 34.1391L89.5978 34.1393Z" fill="black"/>
<path d="M97.788 34.1005C98.4026 33.9653 98.7697 33.2601 98.608 32.5254C98.4464 31.7908 97.8171 31.3048 97.2026 31.4401C96.588 31.5753 96.2209 32.2805 96.3826 33.0151C96.5442 33.7498 97.1735 34.2357 97.788 34.1005Z" fill="black"/>
<path d="M97.4669 34.1393L96.9839 28.5295C96.9024 27.5836 96.1001 26.849 95.1531 26.849C95.1468 26.849 95.1406 26.849 95.1344 26.849C94.6202 26.8544 94.146 27.0657 93.7987 27.4448C93.4514 27.8238 93.2817 28.3147 93.3211 28.8275L93.3959 29.8048H93.101L93.0279 28.8499C92.9826 28.2552 93.1792 27.6856 93.5823 27.2459C93.9851 26.8062 94.5355 26.5609 95.1315 26.5547C95.1389 26.5547 95.146 26.5547 95.1534 26.5547C96.2519 26.5547 97.1825 27.4068 97.2771 28.504L97.7601 34.1138L97.4672 34.1391L97.4669 34.1393Z" fill="black"/>
<path d="M38.9722 29.8053L31.2765 79.9999H30.9785L38.6748 29.8053H38.9722Z" fill="white"/>
<path d="M40.005 29.8053H39.7109V79.9999H40.005V29.8053Z" fill="white"/>
<path d="M35.5003 79.9999L39.4668 29.8053H39.1716L35.2051 79.9999H35.5003Z" fill="white"/>
<path d="M48.7359 79.9999H48.4384L40.7422 29.8053H41.0396L48.7359 79.9999Z" fill="white"/>
<path d="M44.5131 79.9999L40.5471 29.8053H40.252L44.2185 79.9999H44.5131Z" fill="white"/>
<path d="M65.2645 41.281H59.4764L58.9102 38.6379H64.6979L65.2645 41.281Z" fill="black"/>
<path d="M58.4747 41.2811H51.7334L51.166 38.6381H57.9085L58.4747 41.2811Z" fill="black"/>
<path d="M60.0558 48.6477H53.3145L51.9434 42.2616H58.6858L60.0558 48.6477Z" fill="#60A5FA"/>
<path d="M66.8455 48.6477H61.0575L59.6875 42.2616H65.4756L66.8455 48.6477Z" fill="#BFDBFE"/>
<path d="M68.5785 56.7142H62.7905L61.2695 49.6282H67.0576L68.5785 56.7142Z" fill="#BFDBFE"/>
<path d="M61.7868 56.7123H55.0444L53.5234 49.6262H60.2659L61.7868 56.7123Z" fill="#60A5FA"/>
<path d="M65.386 73.4893H58.6436L56.9844 65.759H63.7277L65.386 73.4893Z" fill="#60A5FA"/>
<path d="M63.5173 64.779H56.7749L55.2539 57.6926H61.9963L63.5173 64.779Z" fill="#60A5FA"/>
<path d="M70.3087 64.7809H64.521L63 57.6946H68.7878L70.3087 64.7809Z" fill="#BFDBFE"/>
<path d="M72.1763 73.4913H66.3885L64.7305 65.761H70.5182L72.1763 73.4913Z" fill="#BFDBFE"/>
<path d="M78.9676 73.4913H73.1795L71.5215 65.761H77.3095L78.9676 73.4913Z" fill="#BFDBFE"/>
<path d="M77.0981 64.7809H71.31L69.7891 57.6946H75.5771L77.0981 64.7809Z" fill="#BFDBFE"/>
<path d="M75.3673 56.7142H69.5795L68.0586 49.6282H73.8464L75.3673 56.7142Z" fill="#BFDBFE"/>
<path d="M73.6365 48.6477H67.8485L66.4785 42.2616H72.2663L73.6365 48.6477Z" fill="#BFDBFE"/>
<path d="M72.0555 41.281H66.2677L65.7012 38.6379H71.4892L72.0555 41.281Z" fill="black"/>
<path d="M78.8465 41.281H73.0585L72.4922 38.6379H78.28L78.8465 41.281Z" fill="black"/>
<path d="M80.4276 48.6477H74.6398L73.2695 42.2616H79.0576L80.4276 48.6477Z" fill="#BFDBFE"/>
<path d="M82.1586 56.7142H76.3706L74.8496 49.6282H80.6377L82.1586 56.7142Z" fill="#BFDBFE"/>
<path d="M83.8888 64.7809H78.101L76.5801 57.6946H82.3678L83.8888 64.7809Z" fill="#BFDBFE"/>
<path d="M85.7583 73.4913H79.9706L78.3125 65.761H84.1003L85.7583 73.4913Z" fill="#BFDBFE"/>
<path d="M92.5496 73.4913H86.7619L85.1035 65.761H90.8916L92.5496 73.4913Z" fill="#BFDBFE"/>
<path d="M90.6801 64.7809H84.892L83.3711 57.6946H89.1592L90.6801 64.7809Z" fill="#BFDBFE"/>
<path d="M88.9493 56.7142H83.1616L81.6406 49.6282H87.4284L88.9493 56.7142Z" fill="#BFDBFE"/>
<path d="M87.2186 48.6477H81.4305L80.0605 42.2616H85.8483L87.2186 48.6477Z" fill="#BFDBFE"/>
<path d="M85.6359 41.281H79.8478L79.2812 38.6379H85.0693L85.6359 41.281Z" fill="black"/>
<path d="M92.4266 41.281H86.6388L86.0723 38.6379H91.8603L92.4266 41.281Z" fill="black"/>
<path d="M94.0076 48.6477H88.2198L86.8496 42.2616H92.6377L94.0076 48.6477Z" fill="#BFDBFE"/>
<path d="M95.7387 56.7142H89.9506L88.4297 49.6282H94.2177L95.7387 56.7142Z" fill="#BFDBFE"/>
<path d="M97.4708 64.7809H91.6831L90.1621 57.6946H95.9499L97.4708 64.7809Z" fill="#BFDBFE"/>
<path d="M99.3387 73.4913H93.5506L91.8926 65.761H97.6803L99.3387 73.4913Z" fill="#BFDBFE"/>
<path d="M106.481 73.4913H100.342L98.6836 65.761H104.822L106.481 73.4913Z" fill="#60A5FA"/>
<path d="M104.611 64.7809H98.4721L96.9512 57.6946H103.09L104.611 64.7809Z" fill="#60A5FA"/>
<path d="M102.88 56.7142H96.7417L95.2207 49.6282H101.359L102.88 56.7142Z" fill="#60A5FA"/>
<path d="M101.15 48.6477H95.0106L93.6406 42.2616H99.7794L101.15 48.6477Z" fill="#60A5FA"/>
<path d="M99.5695 41.281H93.4296L92.8633 38.6379H99.002L99.5695 41.281Z" fill="black"/>
<path d="M51.1277 73.1702V79.9996H7.27539L8.29068 77.8143L7.52808 76.5849L8.38756 75.3554L7.27539 73.1702H51.1277Z" fill="#60A5FA"/>
<path d="M53.2972 73.1702H51.1289V79.9996H53.2972V73.1702Z" fill="#231D1E"/>
<path d="M53.2969 73.1702H56.2753C57.7252 73.1702 58.9022 74.3472 58.9022 75.7971V77.3727C58.9022 78.8225 57.7252 79.9996 56.2753 79.9996H53.2969V73.1702Z" fill="#FCF097"/>
<path d="M51.1296 75.2076H7.58203V75.5017H51.1296V75.2076Z" fill="#231D1E"/>
<path d="M51.1288 77.6666H7.48438V77.9607H51.1288V77.6666Z" fill="#231D1E"/>
<path d="M3.07221 75.1421V78.0265L0 76.5843L3.07221 75.1421Z" fill="#231D1E"/>
<path d="M7.52832 76.5849L8.29092 77.8143L7.27563 79.9996L3.07227 78.0271V75.1427L7.27563 73.1702L8.3878 75.3554L7.52832 76.5849Z" fill="#FFA694"/>
</svg>
