<svg viewBox="0 0 128 128" fill="none" xmlns="http://www.w3.org/2000/svg">
<g clip-path="url(#clip0_933_28053)">
<rect width="128" height="128" fill="white"/>
<path d="M17.2484 58.8566C17.2187 58.9752 17.1396 59.0763 17.0627 59.1719C16.7803 59.5235 15.6498 60.6276 15.6772 59.4608C15.6948 59.0225 16.343 58.1457 16.8649 58.2029C17.2 58.2391 17.311 58.5665 17.2506 58.8456C17.2506 58.8489 17.2484 58.8533 17.2484 58.8566Z" fill="#BFDBFE"/>
<path d="M15.5685 56.0865C15.4641 56.1502 15.3366 56.1656 15.2136 56.1788C14.7653 56.2293 13.1854 56.2139 14.0281 55.4064C14.3489 55.1086 15.4278 54.9438 15.7574 55.3526C15.9695 55.6151 15.8168 55.925 15.5772 56.0799C15.574 56.0821 15.5707 56.0843 15.5674 56.0865H15.5685Z" fill="#BFDBFE"/>
<path d="M24.539 80.7157C24.7136 80.8409 24.907 80.9409 25.1136 81.0046C25.6431 81.1683 26.2155 81.076 26.7473 81.2332C26.8989 81.4309 27.056 81.6243 27.2164 81.8143C29.1776 84.1369 31.8364 85.7872 34.7171 86.7155C36.8716 87.4099 40.5577 88.3339 42.3518 86.3991C41.1653 85.908 40.2204 86.3991 38.9965 86.3881C37.8 86.3761 36.3322 86.0475 35.1808 85.7234C32.6977 85.0258 30.4795 83.636 28.6996 81.7781C28.5217 81.5924 28.3492 81.4035 28.1811 81.209C28.0921 81.1057 28.0042 81.0013 27.9174 80.8959C27.8767 80.8464 27.8372 80.7959 27.7965 80.7453C27.7965 80.7442 27.7943 80.7431 27.7932 80.742C27.7702 80.7124 27.7471 80.6827 27.724 80.6519C27.701 80.6212 27.6746 80.5926 27.6471 80.5662C27.7515 80.4168 27.8515 80.2619 27.9394 80.1048C28.4327 79.4412 28.4338 78.4952 28.0536 77.8163C27.5845 77.0098 26.6638 76.2342 25.6146 76.4638C25.4498 76.4934 25.2916 76.5396 25.1388 76.6011C24.528 76.845 24.0226 77.3252 23.6919 77.9338C23.2985 78.6589 23.5897 79.6763 24.0852 80.2839C24.217 80.4454 24.3698 80.5926 24.5401 80.7146L24.539 80.7157Z" fill="black"/>
<path d="M26.652 77.3468C26.4289 76.0229 26.0741 74.7452 26.1784 73.3949C26.207 73.0763 26.6311 72.7752 26.9739 72.9576C27.1508 73.0872 27.2749 73.3817 27.3101 73.6113C27.3474 74.8605 27.4727 76.1745 27.3991 77.4633C27.2881 77.6006 27.075 77.6116 26.652 77.3457V77.3468Z" fill="black"/>
<path d="M26.8453 77.336C26.7113 76.5593 26.5355 75.7891 26.4333 75.0068C26.3828 74.6179 26.3509 74.2256 26.3531 73.8323C26.3553 73.6115 26.319 73.3236 26.5256 73.1775C26.7618 73.0105 26.9673 73.1951 27.0552 73.4148C27.1837 73.7367 27.1364 74.1553 27.1529 74.4981C27.1716 74.8936 27.1936 75.2892 27.209 75.6847C27.2243 76.0835 27.2331 76.4812 27.2265 76.88C27.2254 76.9635 27.265 77.3107 27.1991 77.3668C27.1211 77.4316 26.8057 77.214 26.7398 77.1756C26.5245 77.0481 26.3509 77.3942 26.564 77.5206C26.8112 77.6667 27.1958 77.8799 27.4704 77.6645C27.6001 77.5623 27.5935 77.4624 27.6012 77.3053C27.6155 77.0064 27.6177 76.7076 27.6155 76.4087C27.6089 75.7638 27.5726 75.12 27.5408 74.4751C27.5177 73.9949 27.5737 73.4665 27.3024 73.0435C27.1068 72.738 26.7761 72.6282 26.4399 72.782C26.0762 72.9479 25.9883 73.2632 25.973 73.6313C25.9202 74.8925 26.2476 76.1253 26.4586 77.358C26.5003 77.6008 26.8881 77.581 26.8453 77.3349V77.336Z" fill="black"/>
<path d="M26.7728 65.7614C25.4665 65.9482 24.1646 65.7505 23.7592 64.8858C23.1087 63.4971 24.0316 61.5502 22.7341 60.9031C20.5082 59.7945 18.0043 58.3157 18.001 55.7217C17.9944 51.1809 22.5297 48.1167 26.8355 47.8684C27.3145 47.8453 27.7957 47.8618 28.2747 47.9233C30.9621 48.2903 33.2814 49.9548 34.8602 52.2686C36.996 55.6009 34.2208 58.7552 31.1653 60.0571C29.3262 60.8405 30.4908 62.7335 29.9282 64.098C29.4767 65.1934 27.8221 65.612 26.7728 65.7625V65.7614Z" fill="#3B82F6"/>
<path d="M26.3862 64.0468C26.4126 62.6185 26.4456 61.1749 26.3511 59.7488C26.2709 58.5446 26.1753 57.4031 25.3875 56.4319C24.9118 55.8463 23.8417 55.1453 23.1341 55.7936C22.3079 56.5494 23.0814 57.9228 23.5967 58.5985C25.025 60.4728 27.8826 60.553 29.635 59.0896C30.2876 58.5446 30.7271 57.7283 30.4964 56.8626C30.2898 56.0858 29.468 55.3365 28.6737 55.8584C28.1452 56.2066 27.8563 56.867 27.6651 57.4449C27.4399 58.1282 27.3794 58.8259 27.3223 59.5379C27.263 60.2795 27.2124 61.0013 27.2465 61.7462C27.2838 62.5724 27.3651 63.3953 27.3728 64.2226C27.375 64.4995 27.809 64.5533 27.8068 64.272C27.7881 62.2702 27.5201 60.297 27.8925 58.3062C28.0123 57.669 28.6539 55.4716 29.6416 56.2935C30.2503 56.7999 30.2338 57.6866 29.7998 58.2985C29.2318 59.0995 28.1441 59.5247 27.2069 59.6653C26.3445 59.7949 25.3601 59.5279 24.6547 59.0226C23.9329 58.5062 23.0858 57.435 23.2583 56.4956C23.3572 55.9594 23.8439 55.9056 24.2845 56.0891C24.7349 56.277 25.0568 56.6802 25.3161 57.079C25.8951 57.9711 25.8984 59.1588 25.9413 60.1894C25.994 61.4561 25.9753 62.7284 25.9522 63.9963C25.9468 64.2742 26.3807 64.327 26.3862 64.0457V64.0468Z" fill="black"/>
<path d="M24.9226 66.4759C24.3985 66.5528 23.6053 66.0869 23.7075 65.4959C23.802 64.9487 24.2546 64.6982 24.7578 64.6279C25.6576 64.5004 26.5443 64.4422 27.4551 64.4839C27.933 64.5059 28.4131 64.5301 28.8888 64.5762C29.4525 64.6312 29.7623 64.9443 29.6876 65.5365C29.5524 66.6143 28.2044 66.4605 27.4287 66.4605C27.4122 66.6055 27.3957 66.7494 27.3793 66.8945C28.133 66.8934 30.2743 66.7231 29.6612 68.1019C29.2547 69.0149 28.167 69.2335 27.2738 69.3269C26.397 69.4192 25.4676 69.3676 24.6556 68.9962C24.2293 68.8018 23.6811 68.4886 23.6218 67.9777C23.5701 67.5251 23.8415 67.0713 24.2348 66.8626C24.482 66.7319 24.3085 66.3319 24.0591 66.4627C23.0724 66.9834 22.8791 68.2788 23.7745 68.9721C24.7765 69.7466 26.118 69.8861 27.3397 69.7576C28.5142 69.6345 29.8667 69.2226 30.1743 67.9228C30.2897 67.4339 29.9963 66.9538 29.581 66.7044C28.9482 66.3254 28.1297 66.4583 27.4265 66.4594C27.1485 66.4594 27.0958 66.8934 27.3771 66.8934C27.9934 66.8934 28.5669 66.9692 29.1591 66.7439C29.681 66.5451 30.0556 66.1506 30.1194 65.5859C30.1765 65.0838 30.0205 64.5894 29.5821 64.3093C29.2833 64.1181 28.9438 64.1434 28.5999 64.1181C28.178 64.0873 27.7561 64.0588 27.3331 64.0423C26.5926 64.0137 25.8949 64.0753 25.1632 64.1478C24.6238 64.2005 24.0206 64.2444 23.6306 64.6773C23.2702 65.0772 23.101 65.7639 23.4405 66.2243C23.7723 66.6747 24.4337 66.9878 24.9885 66.9065C25.2665 66.8659 25.1995 66.4341 24.9215 66.4748L24.9226 66.4759Z" fill="black"/>
<path d="M21.5485 55.5884C22.1352 55.3467 22.6032 54.8017 22.9273 54.27C23.2668 53.7118 23.5811 53.0559 23.6074 52.3824C23.636 51.6375 23.2042 50.7883 22.356 50.8575C20.7959 50.986 19.9499 52.6318 19.7522 54.0096C19.6522 54.7061 19.9455 55.6389 20.7805 55.7092C21.0552 55.7323 21.3123 55.684 21.5496 55.5862L21.5485 55.5884Z" fill="white"/>
<path d="M37.1125 57.3618C37.2344 57.375 37.3443 57.4409 37.4498 57.5046C37.8354 57.7386 39.078 58.7142 37.9178 58.8395C37.4816 58.8801 36.5269 58.3528 36.5148 57.8276C36.5071 57.4903 36.8169 57.3376 37.1015 57.3607C37.1059 57.3607 37.1092 57.3607 37.1136 57.3618H37.1125Z" fill="#BFDBFE"/>
<path d="M37.7002 54.3641C37.8046 54.3015 37.932 54.2872 38.0551 54.274C38.5045 54.2268 40.0833 54.2532 39.2351 55.0552C38.9121 55.3508 37.8321 55.5079 37.5047 55.097C37.2948 54.8333 37.4486 54.5235 37.6892 54.3707C37.6925 54.3685 37.6958 54.3663 37.6991 54.3641H37.7002Z" fill="#BFDBFE"/>
<path d="M37.1749 50.9193C37.254 50.8259 37.3694 50.771 37.4814 50.7194C37.8912 50.5293 39.3942 50.0426 38.8504 51.0753C38.6405 51.4599 37.6704 51.9576 37.2276 51.6752C36.9431 51.4939 36.9892 51.1511 37.1672 50.9281C37.1694 50.9248 37.1716 50.9215 37.1749 50.9193Z" fill="#BFDBFE"/>
<path d="M16.1585 52.4975C16.0365 52.4843 15.9267 52.4184 15.8212 52.3547C15.4355 52.1207 14.1929 51.145 15.3531 51.0198C15.7893 50.9791 16.7441 51.5065 16.7562 52.0317C16.7638 52.369 16.454 52.5217 16.1695 52.4986C16.1651 52.4986 16.1618 52.4986 16.1574 52.4975H16.1585Z" fill="#BFDBFE"/>
<path opacity="0.05" d="M59.8594 125.948C59.6836 127.33 61.9271 127.544 62.7896 127.715C65.8505 128.322 68.9619 127.832 72.0174 127.434C72.3634 127.364 72.7095 127.297 73.0567 127.24C76.2473 126.717 79.3719 127.637 82.5548 127.742C85.1993 127.828 87.8603 127.783 90.4971 127.419C90.9168 127.36 91.6441 127.301 91.91 126.75C92.177 126.195 91.9001 125.771 91.5112 125.583C89.6292 124.674 87.5845 124.673 85.6201 124.577C81.6198 124.383 77.6723 125.67 73.6851 125.349C72.7974 125.277 71.9207 125.084 71.0428 124.902C70.7506 124.841 70.4572 124.782 70.1639 124.729C68.4884 124.426 66.7789 124.374 65.0847 124.48C64.22 124.534 63.3565 124.615 62.4984 124.738C61.7909 124.84 60.8383 124.854 60.2384 125.303C60.0132 125.471 59.8923 125.705 59.8616 125.949L59.8594 125.948Z" fill="black"/>
<path d="M83.1492 109.16C83.1184 109.61 83.0899 110.064 83.0327 110.518V110.489C83.0327 110.546 83.0327 110.631 83.0207 110.698C82.9679 111.231 82.9108 111.761 82.8471 112.291C82.7185 113.364 82.5691 114.432 82.4054 115.496C82.0791 117.611 81.6934 119.706 81.3001 121.797C81.0771 122.981 80.8508 124.164 80.6299 125.35C80.5574 125.74 80.7211 126.207 81.0057 126.3C81.288 126.392 81.5902 126.178 81.6682 125.761C82.4559 121.529 83.3184 117.314 83.8501 112.995C83.9282 112.363 83.9985 111.728 84.0611 111.092C84.1237 110.456 84.1787 109.817 84.2259 109.171C84.2556 108.763 83.9578 108.363 83.6875 108.376C83.3711 108.392 83.1811 108.718 83.1492 109.161V109.16Z" fill="black"/>
<path d="M81.1196 125.892C81.2416 125.962 81.3679 126.027 81.4998 126.085C81.6305 126.144 81.7668 126.196 81.9052 126.243C82.4073 126.349 83.0654 126.502 83.6675 126.479C83.818 126.473 83.9652 126.457 84.1047 126.426C84.2069 126.405 84.319 126.377 84.431 126.338C84.5431 126.3 84.6519 126.251 84.7486 126.192C85.0661 126.027 85.0661 125.659 84.9342 125.369C84.7497 125.054 84.5398 124.79 84.2245 124.636C84.141 124.593 84.0553 124.558 83.9685 124.529C83.1808 124.266 82.2601 124.529 81.6525 125.169C81.5986 125.222 81.547 125.277 81.4965 125.334C81.4361 125.482 81.2778 125.561 81.2163 125.71C81.1812 125.769 81.1493 125.829 81.1207 125.892H81.1196Z" fill="black"/>
<path d="M80.8869 126.29C81.2285 126.486 81.5966 126.647 81.9822 126.73C82.3679 126.812 82.7557 126.885 83.149 126.922C83.5555 126.96 83.9665 126.941 84.3631 126.84C84.7344 126.744 85.1684 126.572 85.3585 126.213C85.732 125.509 85.1596 124.664 84.5608 124.298C83.9456 123.924 83.1402 123.879 82.4679 124.116C82.0745 124.256 81.7153 124.47 81.412 124.758C81.3494 124.817 81.289 124.88 81.2296 124.942C81.1824 124.993 81.133 125.044 81.0967 125.103C81.0879 125.125 81.0758 125.147 81.0626 125.166C81.0989 125.121 81.1 125.118 81.067 125.158C80.9176 125.303 80.81 125.473 80.721 125.66C80.6177 125.877 80.6539 126.167 80.8858 126.289C81.0912 126.398 81.4054 126.356 81.5153 126.124C81.545 126.062 81.5779 126.002 81.6109 125.942C81.623 125.921 81.6867 125.833 81.6175 125.915C81.6329 125.896 81.6504 125.878 81.6669 125.861C81.7273 125.796 81.7856 125.733 81.8361 125.66C81.8361 125.66 81.8921 125.561 81.8625 125.612C81.8394 125.637 81.8449 125.63 81.8801 125.593C81.9009 125.571 81.9218 125.549 81.9427 125.528C81.991 125.477 82.0405 125.428 82.0921 125.381C82.1119 125.362 82.1328 125.344 82.1536 125.327C82.1503 125.33 82.2536 125.245 82.202 125.286C82.1503 125.326 82.2569 125.248 82.2536 125.25C82.2811 125.231 82.3096 125.212 82.3382 125.194C82.4008 125.154 82.4646 125.118 82.5294 125.084C82.5645 125.065 82.6008 125.049 82.6371 125.032C82.5547 125.064 82.6206 125.04 82.6371 125.032C82.6986 125.009 82.7612 124.987 82.8238 124.967C82.8865 124.949 82.9502 124.932 83.0139 124.919C83.0392 124.914 83.0655 124.91 83.0908 124.905C83.1446 124.896 83.1424 124.896 83.0842 124.905C83.1095 124.902 83.1358 124.899 83.1622 124.897C83.2787 124.888 83.3951 124.888 83.5105 124.897C83.5303 124.899 83.6533 124.922 83.5413 124.899C83.5665 124.905 83.5918 124.908 83.6171 124.914C83.6929 124.929 83.7687 124.949 83.8412 124.974C83.8302 124.971 83.9708 125.022 83.9159 125C83.861 124.977 83.9983 125.041 83.9873 125.036C84.0467 125.065 84.1027 125.099 84.1587 125.136C84.2301 125.183 84.1719 125.147 84.1587 125.134C84.1884 125.16 84.2169 125.185 84.2455 125.212C84.2642 125.231 84.2818 125.25 84.2994 125.268C84.3092 125.278 84.3971 125.383 84.3653 125.342C84.3235 125.289 84.4026 125.395 84.4004 125.393C84.4158 125.415 84.4312 125.438 84.4455 125.461C84.4685 125.496 84.4883 125.532 84.5114 125.566C84.563 125.642 84.5202 125.578 84.5114 125.555C84.5224 125.585 84.5696 125.686 84.5564 125.72C84.5542 125.701 84.5509 125.683 84.5487 125.664C84.5509 125.686 84.552 125.708 84.552 125.73C84.552 125.741 84.552 125.752 84.552 125.763C84.5477 125.815 84.5488 125.806 84.5564 125.737C84.551 125.733 84.5477 125.796 84.5389 125.798C84.5466 125.78 84.5531 125.764 84.5608 125.746C84.5509 125.765 84.5411 125.784 84.529 125.801C84.5696 125.722 84.5531 125.757 84.5367 125.784C84.5498 125.775 84.563 125.765 84.5762 125.755C84.5564 125.77 84.5345 125.783 84.5125 125.794C84.4883 125.808 84.463 125.822 84.4378 125.837C84.4323 125.84 84.3026 125.898 84.3883 125.863C84.3147 125.893 84.2389 125.917 84.162 125.938C84.0862 125.958 84.0093 125.976 83.9324 125.99C83.9324 125.99 83.7775 126.012 83.8621 126.002C83.8291 126.006 83.7962 126.009 83.7632 126.011C83.5896 126.024 83.4138 126.02 83.2402 126.007C83.1534 126 83.0666 125.991 82.9798 125.98C82.8909 125.969 83.0875 125.998 82.937 125.974C82.8908 125.966 82.8436 125.96 82.7975 125.952C82.6195 125.922 82.4426 125.886 82.2657 125.849C82.1031 125.815 81.9515 125.773 81.7955 125.715C81.6515 125.66 81.8328 125.732 81.7504 125.696C81.6988 125.674 81.6482 125.65 81.5988 125.626C81.5142 125.584 81.4307 125.54 81.3483 125.493C81.1395 125.373 80.8352 125.437 80.7188 125.657C80.6034 125.876 80.6605 126.16 80.8836 126.287L80.8869 126.29Z" fill="black"/>
<path d="M67.9303 109.179C67.9501 109.446 67.971 109.713 67.9929 109.98C68.0039 110.106 68.0149 110.233 68.0259 110.359C68.0314 110.415 68.0358 110.471 68.0413 110.527C68.0314 110.424 68.0556 110.671 68.0578 110.7C68.1094 111.232 68.1676 111.762 68.2314 112.292C68.3599 113.365 68.5093 114.433 68.673 115.497C68.9993 117.612 69.385 119.707 69.7783 121.798C70.0013 122.982 70.2277 124.165 70.4485 125.351C70.521 125.741 70.3573 126.208 70.0727 126.301C69.7904 126.393 69.4882 126.179 69.4102 125.762C68.6225 121.529 67.76 117.315 67.2283 112.996C67.1503 112.364 67.0799 111.729 67.0173 111.093C66.9547 110.457 66.8998 109.82 66.8536 109.18C66.824 108.777 67.1206 108.389 67.3898 108.407C67.7062 108.427 67.8974 108.749 67.9303 109.18V109.179Z" fill="black"/>
<path d="M69.9607 125.892C69.8387 125.962 69.7124 126.027 69.5805 126.085C69.4498 126.144 69.3136 126.196 69.1751 126.243C68.673 126.349 68.0149 126.502 67.4128 126.479C67.2623 126.473 67.1151 126.457 66.9756 126.426C66.8734 126.405 66.7613 126.377 66.6493 126.338C66.5383 126.3 66.4284 126.251 66.3317 126.192C66.0142 126.027 66.0142 125.659 66.1461 125.369C66.3306 125.054 66.5405 124.79 66.8558 124.636C66.9393 124.593 67.025 124.558 67.1118 124.529C67.8996 124.266 68.8203 124.529 69.4278 125.169C69.4817 125.222 69.5333 125.277 69.5838 125.334C69.6443 125.482 69.8025 125.561 69.864 125.71C69.8992 125.769 69.931 125.829 69.9596 125.892H69.9607Z" fill="black"/>
<path d="M70.1927 126.29C69.851 126.486 69.4829 126.647 69.0973 126.73C68.7116 126.812 68.3238 126.885 67.9305 126.922C67.524 126.96 67.1131 126.941 66.7164 126.84C66.3451 126.744 65.9111 126.572 65.721 126.213C65.3475 125.509 65.9199 124.664 66.5187 124.298C67.1339 123.924 67.9393 123.879 68.6117 124.116C69.005 124.256 69.3643 124.47 69.6675 124.758C69.7301 124.817 69.7905 124.88 69.8499 124.942C69.8971 124.993 69.9466 125.044 69.9828 125.103C69.9916 125.125 70.0037 125.147 70.0169 125.166C69.9806 125.121 69.9795 125.118 70.0125 125.158C70.1619 125.303 70.2696 125.473 70.3586 125.66C70.4618 125.877 70.4256 126.167 70.1938 126.289C69.9883 126.398 69.6741 126.356 69.5642 126.124C69.5345 126.062 69.5016 126.002 69.4686 125.942C69.4565 125.921 69.3928 125.833 69.462 125.915C69.4467 125.896 69.4291 125.878 69.4126 125.861C69.3522 125.796 69.2939 125.733 69.2434 125.66C69.2434 125.66 69.1874 125.561 69.217 125.612C69.2401 125.637 69.2346 125.63 69.1995 125.593C69.1786 125.571 69.1577 125.549 69.1368 125.528C69.0885 125.477 69.039 125.428 68.9874 125.381C68.9676 125.362 68.9468 125.344 68.9259 125.327C68.9292 125.33 68.8259 125.245 68.8775 125.286C68.9292 125.326 68.8226 125.248 68.8259 125.25C68.7984 125.231 68.7699 125.212 68.7413 125.194C68.6787 125.154 68.615 125.118 68.5501 125.084C68.515 125.065 68.4787 125.049 68.4425 125.032C68.4589 125.04 68.5249 125.064 68.4425 125.032C68.3809 125.009 68.3183 124.987 68.2557 124.967C68.1931 124.949 68.1293 124.932 68.0656 124.919C68.0403 124.914 68.014 124.91 67.9887 124.905C67.9349 124.896 67.9371 124.896 67.9953 124.905C67.97 124.902 67.9437 124.899 67.9173 124.897C67.8019 124.888 67.6844 124.888 67.569 124.897C67.5492 124.899 67.4262 124.922 67.5382 124.899C67.513 124.905 67.4877 124.908 67.4624 124.914C67.3866 124.929 67.3119 124.949 67.2383 124.974C67.2493 124.971 67.1087 125.022 67.1636 125C67.2185 124.977 67.0812 125.041 67.0922 125.036C67.0329 125.065 66.9768 125.099 66.9208 125.136C66.8494 125.183 66.9076 125.147 66.9208 125.134C66.8911 125.16 66.8626 125.185 66.834 125.212C66.8153 125.231 66.7977 125.25 66.7802 125.268C66.7703 125.278 66.6824 125.383 66.7142 125.342C66.756 125.289 66.6769 125.395 66.6791 125.393C66.6637 125.415 66.6483 125.438 66.634 125.461C66.611 125.496 66.5912 125.532 66.5681 125.566C66.5165 125.642 66.5593 125.578 66.5681 125.555C66.5571 125.585 66.5099 125.686 66.5231 125.72C66.5253 125.701 66.5286 125.683 66.5308 125.664C66.5286 125.686 66.5275 125.708 66.5275 125.73C66.5275 125.741 66.5275 125.752 66.5275 125.763C66.5319 125.815 66.5308 125.806 66.5231 125.737C66.5286 125.733 66.5319 125.796 66.5406 125.798C66.533 125.78 66.5264 125.764 66.5187 125.746C66.5286 125.765 66.5385 125.784 66.5516 125.801C66.511 125.722 66.5275 125.757 66.5439 125.784C66.5308 125.775 66.5176 125.765 66.5044 125.755C66.5242 125.77 66.5461 125.783 66.5681 125.794C66.5923 125.808 66.6176 125.822 66.6428 125.837C66.6483 125.84 66.778 125.898 66.6923 125.863C66.7659 125.893 66.8417 125.917 66.9175 125.938C66.9933 125.958 67.0702 125.976 67.1471 125.99C67.1471 125.99 67.302 126.012 67.2174 126.002C67.2504 126.006 67.2834 126.009 67.3163 126.011C67.4899 126.024 67.6657 126.02 67.8393 126.007C67.9261 126 68.0129 125.991 68.0997 125.98C68.1887 125.969 67.992 125.998 68.1425 125.974C68.1887 125.966 68.2359 125.96 68.2821 125.952C68.46 125.922 68.6369 125.886 68.8138 125.849C68.9764 125.815 69.128 125.773 69.2841 125.715C69.428 125.66 69.2467 125.732 69.3291 125.696C69.3807 125.674 69.4313 125.65 69.4807 125.626C69.5653 125.584 69.6488 125.54 69.7312 125.493C69.94 125.373 70.2443 125.437 70.3608 125.657C70.4761 125.876 70.419 126.16 70.196 126.287L70.1927 126.29Z" fill="black"/>
<path d="M105.781 103.363C106.448 103.917 107.072 104.497 107.65 105.131L107.622 105.108C108.397 106.004 109.125 106.952 109.612 108.021L109.607 107.97C110.48 109.789 110.841 111.822 110.639 113.841C110.618 114.098 110.59 114.354 110.556 114.609C110.537 114.745 110.517 114.88 110.495 115.015C110.485 115.079 110.473 115.143 110.463 115.206C110.452 115.271 110.467 115.188 110.469 115.18C110.46 115.227 110.451 115.276 110.441 115.323C110.385 115.614 110.487 115.952 110.809 116.04C111.077 116.114 111.466 115.985 111.527 115.672C111.717 114.689 111.817 113.693 111.822 112.7C111.955 108.716 109.583 105.105 106.552 102.701C106.286 102.521 105.902 102.425 105.675 102.745C105.541 102.957 105.587 103.23 105.78 103.363H105.781Z" fill="black"/>
<path d="M110.597 115.973C110.746 116.009 110.883 116.062 111.012 116.129C111.14 116.196 111.259 116.277 111.368 116.369C111.948 116.922 112.355 117.722 112.149 118.58C112.116 118.712 112.073 118.838 112.019 118.959C111.731 119.758 110.828 120.2 110.069 119.934C108.88 119.504 108.891 117.907 109.565 116.937C109.669 116.771 109.789 116.618 109.923 116.482C110.049 116.355 110.19 116.241 110.345 116.143C110.419 116.094 110.503 116.037 110.597 115.973Z" fill="black"/>
<path d="M110.44 116.461C110.548 116.488 110.656 116.521 110.757 116.568C110.671 116.528 110.826 116.61 110.825 116.609C110.871 116.636 110.916 116.666 110.96 116.698C110.971 116.707 111.097 116.819 111.012 116.735C111.041 116.764 111.07 116.794 111.097 116.823C111.154 116.883 111.208 116.945 111.26 117.009C111.286 117.041 111.312 117.074 111.336 117.107C111.348 117.123 111.425 117.237 111.357 117.132C111.402 117.201 111.443 117.271 111.482 117.345C111.514 117.405 111.543 117.468 111.571 117.531C111.587 117.568 111.602 117.607 111.616 117.645C111.572 117.527 111.629 117.694 111.635 117.717C111.655 117.798 111.672 117.879 111.683 117.96C111.686 117.988 111.689 118.015 111.693 118.043C111.681 117.922 111.691 118.061 111.692 118.08C111.692 118.166 111.687 118.251 111.677 118.336C111.675 118.354 111.644 118.491 111.672 118.379C111.656 118.443 111.64 118.505 111.62 118.568C111.595 118.648 111.563 118.724 111.532 118.801C111.517 118.84 111.502 118.879 111.485 118.918C111.539 118.799 111.48 118.922 111.468 118.941C111.426 119.012 111.377 119.078 111.326 119.142C111.408 119.038 111.325 119.14 111.306 119.159C111.277 119.188 111.248 119.215 111.217 119.24C111.186 119.267 111.154 119.29 111.123 119.315C111.02 119.395 111.215 119.27 111.099 119.329C111.028 119.366 110.958 119.401 110.885 119.436C110.769 119.491 110.984 119.414 110.86 119.446C110.828 119.453 110.796 119.463 110.764 119.471C110.732 119.479 110.701 119.485 110.668 119.49C110.641 119.494 110.616 119.497 110.59 119.501C110.654 119.496 110.659 119.496 110.603 119.498C110.524 119.498 110.447 119.494 110.368 119.486C110.241 119.474 110.464 119.52 110.342 119.48C110.311 119.47 110.279 119.462 110.247 119.451C110.215 119.44 110.185 119.427 110.153 119.416C110.033 119.371 110.246 119.475 110.138 119.408C110.091 119.379 109.945 119.319 109.925 119.263C109.941 119.278 109.958 119.292 109.974 119.306C109.957 119.29 109.94 119.273 109.924 119.257C109.9 119.231 109.876 119.205 109.854 119.179C109.838 119.161 109.825 119.141 109.81 119.124C109.734 119.033 109.862 119.223 109.805 119.118C109.771 119.057 109.737 118.996 109.71 118.93C109.696 118.9 109.638 118.812 109.702 118.922C109.68 118.884 109.673 118.826 109.662 118.784C109.648 118.725 109.637 118.666 109.628 118.606C109.623 118.57 109.62 118.534 109.615 118.496C109.628 118.629 109.617 118.503 109.617 118.479C109.614 118.326 109.628 118.176 109.65 118.025C109.632 118.156 109.65 118.028 109.656 118.004C109.667 117.954 109.68 117.904 109.694 117.855C109.72 117.768 109.748 117.682 109.782 117.599C109.792 117.575 109.802 117.552 109.812 117.527C109.822 117.504 109.833 117.48 109.844 117.457C109.812 117.523 109.81 117.53 109.836 117.478C109.88 117.401 109.923 117.324 109.972 117.249C110.037 117.149 110.105 117.053 110.178 116.958C110.186 116.947 110.245 116.884 110.19 116.943C110.238 116.891 110.288 116.841 110.339 116.792C110.546 116.601 110.689 116.528 110.936 116.357C111.157 116.206 111.158 115.818 110.982 115.635C110.77 115.416 110.496 115.427 110.26 115.589C110.237 115.605 110.214 115.62 110.192 115.637C110.118 115.687 110.244 115.603 110.175 115.648C110.123 115.683 110.069 115.718 110.016 115.753C109.892 115.837 109.772 115.923 109.662 116.024C109.46 116.211 109.288 116.429 109.137 116.657C108.926 116.978 108.76 117.334 108.678 117.711C108.511 118.477 108.587 119.383 109.179 119.961C109.822 120.587 110.819 120.7 111.587 120.227C112.411 119.718 112.807 118.719 112.687 117.775C112.558 116.754 111.758 115.748 110.753 115.487C110.495 115.42 110.185 115.54 110.11 115.818C110.039 116.073 110.162 116.39 110.44 116.462V116.461Z" fill="black"/>
<path d="M109.043 116.783C108.987 116.845 108.934 116.91 108.874 116.966C108.857 116.982 108.839 116.999 108.82 117.013C108.832 117.004 108.844 116.997 108.856 116.988C108.885 116.989 109.04 116.965 109.046 116.991C109.03 116.988 109.014 116.982 108.999 116.977C108.973 116.967 108.978 116.97 109.014 116.987C109.051 117.005 109.056 117.008 109.031 116.993C109.015 116.986 109.001 116.976 108.987 116.966C108.911 116.924 109.019 116.981 109.011 116.99C109.003 116.982 108.996 116.974 108.988 116.966C108.961 116.931 108.959 116.932 108.985 116.968C109.006 117.001 109.009 117.005 108.995 116.982C108.987 116.969 108.979 116.955 108.974 116.94C108.997 116.94 109.001 117.06 109.001 117.076C109.001 116.987 108.997 117.166 108.999 117.104C109 117.07 108.966 117.152 108.999 117.107C109.022 117.076 109.042 117.039 109.063 117.008C109.088 116.968 109.096 116.963 109.061 117.002C109.111 116.943 109.171 116.893 109.231 116.844C109.262 116.819 109.278 116.805 109.235 116.836C109.267 116.813 109.302 116.794 109.336 116.776C109.399 116.741 109.463 116.71 109.529 116.682C109.558 116.67 109.588 116.659 109.618 116.647C109.536 116.679 109.635 116.643 109.652 116.637C109.72 116.618 109.789 116.602 109.857 116.586C110.17 116.509 110.487 116.448 110.808 116.421C110.739 116.087 110.67 115.753 110.6 115.419C110.173 115.456 109.758 115.701 109.492 116.033C109.369 116.186 109.244 116.341 109.134 116.503C109.089 116.57 109.043 116.638 109.002 116.708C108.922 116.846 108.891 116.983 108.87 117.141C108.834 117.406 109.095 117.676 109.355 117.678C109.65 117.68 109.854 117.478 109.892 117.193C109.909 117.068 109.861 117.271 109.858 117.268C109.856 117.266 109.904 117.193 109.909 117.188C109.948 117.125 109.99 117.064 110.032 117.002C110.119 116.878 110.216 116.754 110.315 116.638C110.28 116.679 110.306 116.647 110.329 116.627C110.355 116.606 110.38 116.585 110.404 116.563C110.433 116.537 110.457 116.521 110.411 116.553C110.436 116.536 110.462 116.521 110.489 116.507C110.515 116.492 110.543 116.48 110.57 116.467C110.683 116.413 110.529 116.467 110.598 116.456C110.669 116.445 110.736 116.426 110.808 116.421C111.077 116.397 111.268 116.063 111.205 115.816C111.13 115.52 110.885 115.395 110.6 115.419C110.181 115.455 109.752 115.532 109.352 115.664C108.889 115.817 108.452 116.068 108.18 116.486C108.041 116.701 107.944 116.94 107.993 117.199C108.038 117.439 108.187 117.628 108.371 117.78C108.551 117.927 108.821 118.03 109.055 117.988C109.342 117.936 109.53 117.756 109.719 117.55C109.899 117.354 109.97 117.042 109.765 116.829C109.589 116.646 109.236 116.571 109.043 116.782V116.783Z" fill="black"/>
<path d="M84.7492 22.7298L78.935 22.1739L79.5173 16.0817L82.1431 16.3322C83.1199 16.4256 83.9867 15.7092 84.0801 14.7336L84.758 7.64384C84.8514 6.66711 84.135 5.80024 83.1594 5.70685L63.2645 3.80506C62.2878 3.71167 61.4209 4.42799 61.3276 5.40362L61.2034 6.70226C60.8046 10.8761 63.8644 14.5842 68.0394 14.983C69.5556 15.128 71.153 14.9995 72.5989 15.5675C73.936 16.0927 74.5491 17.499 74.3249 18.8712C74.0404 20.6115 72.7461 21.4663 71.0256 21.4092C68.9711 21.3411 66.9045 21.0213 64.8554 20.8258C63.8787 20.7324 63.0118 21.4487 62.9184 22.4244L62.7943 23.723C62.6504 25.2326 62.9646 26.7685 63.6952 28.0979C64.2314 29.0724 64.9807 29.9228 65.8761 30.5787C66.1749 30.7974 66.4892 30.994 66.8177 31.1665C68.5832 32.0817 70.5905 31.8763 72.244 32.9365C72.388 33.0464 72.5165 33.1683 72.6253 33.3111C73.3954 34.1319 73.0098 35.2338 72.9582 36.6061C72.9032 38.0596 74.8951 35.069 75.7532 34.5571C75.862 34.445 75.9653 34.3362 76.0608 34.2373C76.1641 34.1253 76.2674 34.0154 76.3729 33.9088C76.8969 33.3771 77.4649 32.9321 78.256 32.8376C78.4285 32.8442 78.5999 32.8607 78.7691 32.8772C81.4773 33.1365 83.734 33.3518 83.734 33.3518C84.7107 33.4452 85.5776 32.7289 85.671 31.7532L86.3489 24.6635C86.4422 23.6867 85.7259 22.8199 84.7503 22.7265L84.7492 22.7298Z" fill="#F9C41C"/>
<path d="M85.1356 22.8119C85.1653 22.4043 85.184 21.9901 85.2114 21.5572C85.229 21.0694 85.2356 20.5816 85.2378 20.0949C85.2433 18.6337 85.206 17.1757 85.3004 15.7309C85.3169 15.0585 85.3334 14.4026 85.3411 13.7434C85.3861 11.8076 85.3521 9.86069 85.2774 7.88417C85.2927 7.15025 85.3004 6.41633 85.3015 5.68352C85.3037 4.21678 85.2829 2.75004 85.2598 1.2855C85.2708 0.693316 85.1323 0.238472 84.4083 0.278024C84.1666 0.252755 83.8941 0.225292 83.6206 0.200022C82.7998 0.122016 81.9802 0.042919 81.9802 0.042919C80.2784 -0.119685 78.6787 0.481278 77.5229 1.56677C76.7703 2.27322 76.3451 3.31918 75.5661 4.02563C74.4642 5.02542 73.0249 4.79469 71.6581 4.67494C70.142 4.542 68.6357 4.31786 67.1206 4.17283C65.8352 4.04978 64.5486 3.92674 63.2631 3.80369C62.2864 3.7103 61.4196 4.42662 61.3262 5.40225L61.202 6.70089C61.1801 6.93601 61.1691 7.16894 61.168 7.40076C61.8524 9.21468 63.4697 10.6243 65.4286 11.0396C68.7247 11.8043 72.1207 11.5208 74.9981 13.1853C74.6729 16.9098 74.3862 20.6387 74.0862 24.3654C73.3699 24.5061 72.6481 24.5248 71.9339 24.4566C68.8609 24.3556 65.8198 24.1259 62.7852 23.8304C62.6655 25.3059 62.9808 26.8012 63.6938 28.0998C64.23 29.0744 64.9793 29.9248 65.8747 30.5807C66.1735 30.7993 66.4878 30.996 66.8163 31.1684C68.5818 32.0836 70.5891 31.8782 72.2426 32.9384C72.3866 33.0483 72.5151 33.1702 72.6239 33.3131C73.393 34.1327 73.0095 35.2347 72.9568 36.6058C72.7788 38.2088 72.5876 39.8106 72.3855 41.4114C72.0339 44.19 71.645 47.2476 70.1672 49.69C72.8118 49.4472 75.5354 49.7306 78.0722 49.2044C78.9611 49.0506 79.9587 48.5902 80.2366 47.3454C80.3377 47.1169 80.8145 46.3785 80.8607 45.9984C81.0112 45.4337 81.1474 44.8668 81.2694 44.2977C81.4551 43.4649 81.666 42.642 81.8616 41.8125C82.534 38.9845 82.8899 36.1543 83.2723 33.3109C83.5667 33.3394 83.7337 33.3548 83.7337 33.3548C84.7105 33.4482 85.5773 32.7319 85.6707 31.7563L86.3486 24.6665C86.4288 23.8249 85.908 23.0657 85.1367 22.8119H85.1356Z" fill="#F9C41C"/>
<path d="M95.8148 57.816C90.7674 56.0614 88.358 50.5065 88.1339 45.5031C88.0757 44.5648 88.0812 43.6299 88.1438 42.7158C88.1438 41.6193 88.1833 40.5151 88.2427 39.4164C88.4218 36.1204 88.7843 32.865 88.8195 30.059C88.8887 29.3328 88.9579 28.6087 89.026 27.8891C89.6424 21.4475 90.2313 15.285 90.6686 10.7113C90.7026 10.3597 90.7345 10.0169 90.7663 9.6851C90.8345 8.92811 90.9246 8.10959 90.9729 7.28118C90.9971 6.86698 91.0102 6.44947 91.0059 6.03527C91.1904 2.82274 88.3438 0.699014 85.4498 0.235372C84.1523 0.115616 82.857 -0.0601925 81.5814 0.0222083C80.029 -0.0195414 78.5875 0.568259 77.5218 1.56806C76.7692 2.27451 76.344 3.32046 75.565 4.02691C74.4631 5.02671 73.0238 4.79598 71.657 4.67622C70.1409 4.54328 68.6346 4.31914 67.1195 4.17412C65.834 4.05107 64.5475 3.92803 63.262 3.80498C62.2853 3.71159 61.4185 4.42791 61.3251 5.40353L61.2009 6.70218C61.1789 6.93729 61.168 7.17023 61.1669 7.40205C61.8513 9.21597 63.4686 10.6256 65.4275 11.0409C68.7236 11.8055 72.1196 11.5221 74.997 13.1866C74.6718 16.9111 74.3851 20.64 74.0851 24.3667C73.3688 24.5074 72.6469 24.526 71.9328 24.4579C68.8598 24.3568 65.8187 24.1272 62.7841 23.8317C62.6643 25.3072 62.9797 26.8025 63.6927 28.1011C64.2289 29.0757 64.9782 29.926 65.8736 30.582C66.1724 30.8006 66.4867 30.9972 66.8152 31.1697C68.5807 32.0849 70.588 31.8795 72.2415 32.9397C72.3855 33.0496 72.514 33.1715 72.6228 33.3144C73.3918 34.134 73.0084 35.2359 72.9557 36.6071C72.7777 38.2101 72.5865 39.8119 72.3844 41.4127C72.0328 44.1913 71.6438 47.2489 70.1661 49.6913C69.8354 50.2384 69.4498 50.7559 68.9971 51.2305C68.7115 51.5304 68.4082 51.8139 68.0863 52.0765C64.5793 54.8287 59.7759 54.3694 55.6724 55.7252C57.8027 56.7239 60.2286 57.115 62.2578 58.4873C62.5446 58.6817 62.8237 58.8938 63.095 59.1267C63.4763 59.3772 63.8619 59.6189 64.2519 59.8551C66.9844 61.5097 69.9189 62.8666 72.6338 64.5421C73.171 64.7959 73.705 65.0222 74.2235 65.2211C74.7377 65.4177 75.2365 65.588 75.7002 65.7298C75.7002 65.7298 76.6835 65.8242 77.6668 65.9176C78.6501 66.0121 79.6323 66.1055 79.6323 66.1055C80.4344 66.1121 81.1474 66.0209 81.7879 65.8473C82.4274 65.6726 82.9943 65.4155 83.5052 65.0881C84.0974 64.697 84.7093 64.3531 85.3367 64.0455C85.964 63.7368 86.6067 63.4643 87.2605 63.2149C88.9052 62.448 90.6719 61.9558 92.3748 61.3416C92.7176 61.2186 93.0571 61.0911 93.4021 60.9549C93.8174 60.767 94.236 60.5923 94.6601 60.4253C95.9587 59.9727 97.2782 59.464 98.5911 59.0333C97.6759 58.6279 96.7399 58.2401 95.8159 57.8149L95.8148 57.816ZM73.1051 49.5704C72.8095 49.5748 72.514 49.5792 72.2174 49.5858C72.5129 49.5792 72.8095 49.5748 73.1051 49.5704ZM80.0092 47.9674C79.5873 48.7541 78.794 49.0815 78.0711 49.2057C78.7929 49.0815 79.5873 48.753 80.0092 47.9674Z" fill="#F9C41C"/>
<path d="M74.3149 32.0462C74.0952 31.454 73.5788 30.9409 73.0438 30.6256C72.1879 30.1202 71.1881 29.9258 70.241 29.6632C67.3109 28.8524 63.6281 27.4834 62.7612 24.4961C62.77 25.7508 63.0875 26.9967 63.694 28.0998C64.2302 29.0743 64.9795 29.9247 65.8749 30.5806C66.8571 31.3002 68.0481 31.7331 69.2456 31.9352C70.3707 32.1253 71.3254 32.2429 72.2516 32.9603C72.7878 33.391 73.3085 34.0205 73.1393 34.7797C73.5085 34.2985 74.0469 33.8338 74.2941 33.2613C74.4742 32.8439 74.4567 32.4274 74.3149 32.0451V32.0462Z" fill="#F4B80F"/>
<path d="M95.8149 57.8159C90.7676 56.0613 88.3582 50.5064 88.134 45.503C88.0758 44.5648 88.0813 43.6298 88.1439 42.7157C88.1439 41.6192 88.1835 40.515 88.2428 39.4164C88.4219 36.1203 88.7844 32.8649 88.8196 30.0589C88.8888 29.3327 88.958 28.6087 89.0262 27.889C89.6425 21.4475 90.2314 15.285 90.6687 10.7112C90.7027 10.3596 90.7346 10.0168 90.7665 9.68504C90.8346 8.92805 90.9247 8.10952 90.973 7.28112C90.9972 6.86692 91.0104 6.44941 91.006 6.03521C91.1906 2.82268 88.3439 0.698953 85.45 0.235311C83.8789 0.0902853 82.311 -0.139351 80.7773 0.112246C81.7782 -0.0514571 83.2032 0.628623 83.9514 1.23619C84.9523 2.04921 85.2357 3.10394 85.1412 4.36303C84.6402 11.0067 83.9437 32.0728 81.2212 43.4408C81.0849 44.0088 80.9443 44.5527 80.7982 45.0635C80.4103 46.8006 79.8434 48.6826 78.3811 49.8011C76.3936 51.3535 73.6809 51.3843 71.3298 50.4383C70.921 50.2383 70.5299 49.9911 70.1651 49.7C69.9267 50.1559 69.6015 50.5108 69.3236 50.8679C69.2192 50.992 69.1093 51.1129 68.9962 51.2315C68.7105 51.5315 68.4073 51.8149 68.0854 52.0775C64.5784 54.8297 59.775 54.3705 55.6714 55.7262C57.8017 56.7249 60.2276 57.115 62.2569 58.4883C62.5436 58.6828 62.8227 58.8948 63.0941 59.1277C63.4753 59.3782 63.8609 59.62 64.251 59.8562C66.9834 61.5108 69.9179 62.8676 72.6328 64.5431C73.17 64.7969 73.704 65.0233 74.2226 65.2221C74.7368 65.4188 75.2356 65.5891 75.6992 65.7308C75.6992 65.7308 76.6825 65.8253 77.6658 65.9187C78.6491 66.0132 79.6314 66.1065 79.6314 66.1065C80.4334 66.1131 81.1464 66.022 81.787 65.8484C82.4264 65.6737 82.9933 65.4166 83.5042 65.0892C84.0964 64.698 84.7084 64.3541 85.3357 64.0465C85.963 63.7378 86.6058 63.4653 87.2595 63.2159C88.9042 62.4491 90.6709 61.9568 92.3738 61.3427C92.7166 61.2196 93.0561 61.0922 93.4011 60.9559C93.8164 60.7681 94.235 60.5934 94.6591 60.4264C95.9577 59.9737 97.2772 59.465 98.5902 59.0344C97.675 58.6289 96.7389 58.2411 95.8149 57.8159Z" fill="#F4B80F"/>
<path d="M38.03 79.9522C37.9454 81.8814 38.019 83.8173 38.253 85.7334C39.5451 96.3115 45.9482 106.139 54.8628 111.908C60.2782 115.412 66.4341 117.418 72.6889 117.981C78.9371 118.612 85.3621 117.809 91.3422 115.396C101.189 111.421 109.339 102.984 112.61 92.8419C113.204 91.0049 113.642 89.1173 113.924 87.2078C115.164 78.8403 113.455 70.108 107.261 64.0158C102.9 59.7266 96.851 58.161 91.0225 56.8239C90.9896 56.8162 90.9577 56.8085 90.9247 56.8019C86.9058 55.8845 82.8231 55.2759 78.7184 54.8957C74.6171 54.4903 70.4926 54.3156 66.3726 54.4541C66.3385 54.4552 66.3056 54.4562 66.2726 54.4573C60.2969 54.6661 54.0597 55.0572 48.9662 58.4422C41.7303 63.2512 38.398 71.5022 38.03 79.9522Z" fill="#F9C41C"/>
<path d="M107.263 64.0158C102.903 59.7266 96.8533 58.161 91.0248 56.8239C90.9918 56.8162 90.96 56.8085 90.927 56.8019C86.908 55.8845 82.8254 55.2759 78.7207 54.8957C74.6193 54.4903 70.4949 54.3156 66.3748 54.4541C66.3408 54.4552 66.3078 54.4562 66.2749 54.4573C65.7651 54.4749 65.2531 54.4947 64.74 54.5167C65.2509 54.5266 65.7607 54.5398 66.2705 54.5595C69.6401 54.9605 73.2712 55.3033 76.9551 55.7812C78.7965 56.0197 80.6522 56.2921 82.4902 56.6217C90.393 57.9248 98.6386 60.4276 103.676 67.2284C111.996 78.4052 109.502 95.048 99.7527 104.479C98.7232 105.46 97.6245 106.368 96.4709 107.196C93.009 109.681 89.0439 111.452 84.7777 112.31C82.8682 112.758 80.9137 113.061 78.9382 113.217C69.0611 114.006 58.6456 111.145 50.778 105.354C49.4123 104.383 48.1049 103.336 46.8678 102.221C45.6307 101.105 44.4628 99.9207 43.3762 98.6715C42.439 97.553 41.581 96.3807 40.813 95.1601C43.7124 101.959 48.685 107.908 54.8651 111.907C60.2805 115.411 66.4364 117.417 72.6911 117.98C78.9393 118.611 85.3644 117.808 91.3445 115.394C101.191 111.419 109.341 102.983 112.613 92.8408C113.206 91.0038 113.644 89.1162 113.927 87.2067C115.166 78.8392 113.458 70.1069 107.263 64.0148V64.0158Z" fill="#F4B80F"/>
<path d="M61.4975 99.247C61.4876 99.7007 61.5315 100.157 61.6304 100.61C62.172 103.114 64.4331 105.492 67.5039 106.939C69.3695 107.818 71.4702 108.351 73.5906 108.545C75.7089 108.756 77.8733 108.63 79.8707 108.121C83.1601 107.283 85.831 105.376 86.8374 103.02C87.0198 102.594 87.1494 102.153 87.2263 101.706C87.5625 99.748 86.8989 97.6748 84.7444 96.1784C83.2282 95.1248 81.1671 94.6963 79.184 94.3238C79.173 94.3216 79.162 94.3194 79.151 94.3172C77.7832 94.0612 76.3966 93.8777 75.0057 93.7481C73.6148 93.6119 72.2195 93.5295 70.8274 93.5218C70.8164 93.5218 70.8044 93.5218 70.7934 93.5218C68.7751 93.5119 66.6711 93.5426 64.9825 94.2886C62.584 95.35 61.5392 97.2595 61.4986 99.2459L61.4975 99.247Z" fill="white"/>
<path d="M86.2026 97.5423C86.2971 98.151 86.2872 98.7717 86.1862 99.3804C86.1137 99.8199 85.9928 100.253 85.8247 100.674C84.8985 102.994 82.4704 104.886 79.4919 105.734C77.6835 106.249 75.7268 106.389 73.8151 106.198C71.9012 106.023 70.007 105.515 68.3283 104.666C65.5651 103.269 63.5391 100.952 63.0689 98.4982C62.9832 98.0532 62.9469 97.606 62.959 97.16C62.9755 96.5425 63.0832 95.9317 63.2908 95.3516C62.8612 95.7724 62.4921 96.1898 62.257 96.5755C61.9504 97.0787 61.7351 97.6335 61.6131 98.2103C60.8979 101.599 63.2172 105.128 65.8958 106.966C71.4375 110.769 80.4335 111.103 85.1205 105.691C85.8082 104.897 86.4224 103.989 86.8355 103.021C87.0179 102.595 87.1475 102.155 87.2244 101.707C87.4672 100.292 87.1871 98.8168 86.2004 97.5423H86.2026Z" fill="#F4B80F"/>
<path d="M68.0391 14.9411C68.3215 14.9949 68.606 15.0444 68.8884 15.0927C70.6616 15.3894 72.9326 15.5278 73.9456 17.2428C74.6125 18.3712 74.3598 19.9928 73.3095 20.8608C73.5742 20.7894 73.8357 20.696 74.0917 20.5828C75.3684 20.0192 76.4868 18.971 77.0691 17.7427C77.1526 17.5537 77.2175 17.356 77.2592 17.1494C77.301 16.9429 77.3185 16.7264 77.3075 16.5001C77.3361 14.1797 74.9432 12.8866 72.9755 12.324C72.6349 12.2208 72.2899 12.1329 71.9405 12.056C69.8464 11.5967 67.615 11.5506 65.4286 11.0441C63.4697 10.6288 61.8524 9.22029 61.168 7.40527C61.324 7.81838 61.2251 8.47757 61.3163 8.93133C61.4262 9.47847 61.5976 10.0135 61.8261 10.5233C62.2644 11.5033 62.9116 12.3867 63.7136 13.1008C64.9375 14.1918 66.4724 14.6423 68.0391 14.9433V14.9411Z" fill="#F4B80F"/>
<path d="M60.4756 76.596C60.6558 74.8909 62.0599 73.4835 63.7419 73.3132C65.0351 73.1902 66.1931 73.8142 66.905 74.9118C67.5807 76.0368 67.6796 77.4168 67.1028 78.6044C66.4766 79.9184 65.1746 80.8073 63.7485 80.7458C62.228 80.671 60.9117 79.5581 60.5558 78.0595C60.4393 77.598 60.4075 77.1036 60.4767 76.596H60.4756Z" fill="black"/>
<path d="M62.2739 76.3743C62.3453 75.8359 62.7804 75.4481 63.2759 75.325C64.1284 75.1547 64.8755 75.9897 64.6349 76.8181C64.5119 77.2477 64.179 77.585 63.7505 77.6861C63.2869 77.8146 62.7672 77.6476 62.4958 77.2631C62.3134 77.0192 62.2244 76.7039 62.2728 76.3732L62.2739 76.3743Z" fill="white"/>
<path d="M85.511 80.0258C85.6944 78.4108 86.9689 77.0187 88.5345 76.766C90.4221 76.4902 92.1766 77.8966 92.4535 79.8335C92.6689 81.2959 92.0833 82.7824 90.8835 83.6174C89.7606 84.3634 88.3466 84.437 87.2282 83.7514C86.2888 83.157 85.6263 82.166 85.5011 81.0245C85.4626 80.7015 85.4637 80.3653 85.5099 80.0247L85.511 80.0258Z" fill="black"/>
<path d="M87.2414 79.8232C87.2908 79.3387 87.6951 78.9465 88.128 78.8146C88.7257 78.641 89.3453 79.0124 89.5585 79.5518C89.7672 80.1231 89.5167 80.79 88.9377 81.0614C88.429 81.2789 87.772 81.1889 87.4721 80.7054C87.2875 80.4626 87.1963 80.1484 87.2414 79.8221V79.8232Z" fill="white"/>
<path d="M66.2193 83.21C65.7876 81.9048 64.3098 81.2775 63.0398 81.2588C63.0332 81.2588 63.0266 81.2588 63.02 81.261C63.0134 81.261 63.0068 81.2588 63.0002 81.2588C61.9158 81.2676 60.437 81.6675 59.969 82.7728C59.4899 83.9044 60.5831 84.9064 61.5379 85.2953C62.5355 85.7018 63.6869 85.7073 64.7076 85.3755C65.6425 85.0723 66.5786 84.2955 66.2193 83.21Z" fill="#EC4899"/>
<path d="M88.7864 84.7799C88.7798 84.7777 88.7732 84.7777 88.7666 84.7766C88.76 84.7744 88.7545 84.7711 88.7479 84.77C87.5954 84.4678 86.2913 84.6249 85.4145 85.4962C85.0608 85.8478 84.8322 86.3246 84.9234 86.8311C85.0113 87.3222 85.3365 87.732 85.7101 88.0451C86.522 88.7263 87.6273 89.0955 88.682 89.0867C89.6807 89.079 91.1046 88.6252 91.2947 87.4826C91.5254 86.0972 89.907 85.1018 88.7875 84.7799H88.7864Z" fill="#EC4899"/>
<path d="M76.0598 84.2393C75.2512 83.0242 73.7658 83.5845 72.9868 84.4975C73.6966 85.3369 74.6755 85.939 75.7917 86.0071C76.9344 86.0763 78.0319 85.6379 78.8757 84.8996C78.144 83.9855 77.0959 83.3175 76.0587 84.2393H76.0598Z" fill="#EC4899"/>
<path d="M80.2767 82.3946C80.2207 82.0134 79.9405 81.7222 79.478 81.6629C78.8463 81.5816 78.2376 81.8903 77.6212 81.9596C76.5522 82.0793 75.4535 81.9563 74.4416 81.5893C73.8912 81.3904 73.2386 80.985 72.631 81.1432C71.8103 81.3564 71.8828 82.4528 72.1333 83.078C72.3366 83.5867 72.6277 84.0734 72.987 84.4986C73.7649 83.5856 75.2514 83.0253 76.06 84.2404C77.0972 83.3186 78.1453 83.9866 78.877 84.9007C79.4736 84.3777 79.9438 83.7043 80.213 82.9528C80.2822 82.7572 80.3031 82.5671 80.2778 82.3957L80.2767 82.3946Z" fill="black"/>
<g opacity="0.34">
<path d="M51.8354 61.7314C50.8499 61.8786 49.8556 62.4181 49.0063 63.0388C48.0944 63.7013 47.2419 64.4913 46.4838 65.3647C45.5883 66.3799 44.8489 67.6027 44.4908 68.9091C44.4567 69.0332 44.4226 69.1651 44.3919 69.2991C44.3578 69.432 44.3424 69.5782 44.3227 69.7177C44.2908 70.0012 44.2677 70.278 44.315 70.5362C44.3941 71.0493 44.6336 71.4184 45.1478 71.4767C45.4983 71.4976 45.8619 71.3866 46.1915 71.2229C46.3519 71.1394 46.5233 71.0471 46.676 70.9471C46.832 70.8471 46.9683 70.7384 47.099 70.6296C47.7978 70.0462 48.3768 69.3639 49.0096 68.7311C49.6842 68.0554 50.3577 67.3951 51.0246 66.67C51.6596 65.9767 52.3441 65.2494 52.9363 64.4704C53.0484 64.3276 53.1549 64.1738 53.2461 64.0101C53.2923 63.9288 53.334 63.8453 53.3725 63.7607C53.412 63.6783 53.4461 63.5937 53.4758 63.508C53.5922 63.1663 53.6186 62.807 53.4758 62.4686C53.3538 62.1808 53.1242 61.9687 52.833 61.8435C52.5441 61.7193 52.187 61.671 51.8376 61.7303L51.8354 61.7314Z" fill="white"/>
</g>
<g opacity="0.34">
<path d="M59.877 58.9963C59.4287 58.7535 58.9112 58.759 58.4564 58.8293C57.9664 58.9029 57.495 59.0413 57.049 59.2007C56.526 59.3874 56.0338 59.6467 55.6525 60.0269C55.3548 60.3169 54.9505 60.7893 55.3097 61.4606C55.5657 61.9034 56.0041 62.1671 56.3535 62.2561C56.5897 62.3165 56.8182 62.3275 57.0413 62.3132C57.2588 62.3033 57.4697 62.2693 57.6741 62.2396C58.1136 62.1726 58.5135 62.0627 58.8903 61.877C59.2507 61.7012 59.6089 61.4859 59.9385 61.1881C60.0615 61.0761 60.1835 60.93 60.278 60.741C60.3714 60.5553 60.4395 60.3257 60.4373 60.051C60.4362 59.817 60.3801 59.5984 60.2802 59.4138C60.1802 59.2292 60.0385 59.0831 59.8781 58.9963H59.877Z" fill="white"/>
</g>
<g opacity="0.34">
<path d="M72.7172 6.51683C72.1448 6.32016 71.4724 6.25313 70.8516 6.20039C70.1858 6.14436 69.52 6.09604 68.8696 6.02462C68.1049 5.94222 67.3491 5.84883 66.6031 5.79939C66.4602 5.7906 66.3009 5.78181 66.1438 5.77522C65.9856 5.76973 65.8252 5.77741 65.6835 5.79169C65.3989 5.82575 65.1704 5.93123 65.1451 6.18942C65.1418 6.36631 65.2352 6.55968 65.3857 6.74536C65.5351 6.93214 65.745 7.09803 65.9581 7.23537C66.5404 7.59793 67.2579 7.80997 67.9577 7.96928C68.7092 8.14067 69.4673 8.22307 70.2243 8.21098C70.9472 8.20109 71.6877 8.12748 72.3524 7.96708C72.8468 7.84732 73.3368 7.6166 73.3907 7.25184C73.4357 6.94091 73.1292 6.65746 72.7194 6.51573L72.7172 6.51683Z" fill="white"/>
</g>
<g opacity="0.34">
<path d="M71.2568 23.2834C70.7921 23.1032 70.2405 23.056 69.7318 23.0197C69.1869 22.9824 68.6398 22.9527 68.108 22.9C67.4817 22.8395 66.8632 22.767 66.2512 22.7396C66.1348 22.7341 66.004 22.7308 65.8744 22.7286C65.7447 22.7275 65.6118 22.7396 65.4953 22.7572C65.2613 22.7989 65.069 22.911 65.0416 23.1681C65.0339 23.3438 65.1053 23.5339 65.224 23.7152C65.3415 23.8976 65.5096 24.0558 65.681 24.1876C66.1501 24.5326 66.7324 24.7238 67.3038 24.8622C67.9157 25.0116 68.5376 25.0731 69.1594 25.0402C69.7538 25.0094 70.3647 24.916 70.9151 24.738C71.3249 24.6051 71.7336 24.3623 71.7875 23.9975C71.8336 23.6866 71.5897 23.4119 71.2568 23.2834Z" fill="white"/>
</g>
</g>
<defs>
<clipPath id="clip0_933_28053">
<rect width="128" height="128" fill="white"/>
</clipPath>
</defs>
</svg>
