<svg width="128" height="142" viewBox="0 0 128 142" fill="none" xmlns="http://www.w3.org/2000/svg">
<rect width="128" height="128" fill="white"/>
<path d="M110.393 88.0006C110.191 87.2896 110.03 86.4726 109.381 86.1339C109.288 86.0761 109.19 86.0258 109.089 85.9821C108.887 85.8958 108.668 85.839 108.443 85.8183C108.299 85.8062 108.155 85.8128 108.013 85.8401C107.898 85.851 107.785 85.886 107.685 85.9417C107.586 85.9974 107.501 86.0728 107.444 86.1656C107.157 86.8614 107.519 87.7724 108.273 87.9963C108.348 88.0159 108.422 88.0181 108.494 88.0083C108.566 87.9995 108.636 87.9788 108.707 87.9515C108.872 87.8859 109.04 87.8128 109.208 87.7581C109.292 87.7308 109.375 87.709 109.458 87.6937C109.751 87.6686 109.979 87.7265 110.169 87.8783C110.24 87.9165 110.314 87.9569 110.393 87.9974V88.0006Z" fill="black"/>
<path d="M110.932 87.9158C110.743 87.244 110.594 86.4948 110.078 85.9858C109.515 85.4309 108.636 85.1622 107.859 85.3129C107.449 85.3927 107.045 85.645 106.904 86.0568C106.797 86.3692 106.771 86.7187 106.836 87.0431C106.966 87.6963 107.424 88.3134 108.081 88.5089C108.544 88.6466 108.928 88.4325 109.355 88.285C109.463 88.2479 109.61 88.2195 109.723 88.2522C109.864 88.2937 110.031 88.4226 110.201 88.5111C110.462 88.6476 110.809 88.4445 110.904 88.1932C111.018 87.8896 110.847 87.6285 110.586 87.4909C110.422 87.4046 110.337 87.3183 110.138 87.2419C109.964 87.1752 109.776 87.148 109.592 87.149C109.201 87.1512 108.847 87.3129 108.489 87.4538C108.467 87.4702 108.439 87.4756 108.41 87.4713C108.459 87.4724 108.45 87.4713 108.385 87.4658C108.482 87.4876 108.223 87.3817 108.325 87.4374C108.274 87.4101 108.229 87.373 108.183 87.3391C108.131 87.2943 108.125 87.2899 108.162 87.3238C108.136 87.2965 108.111 87.267 108.087 87.2375C107.973 87.0955 107.889 86.8519 107.89 86.6968C107.89 86.6302 107.897 86.5625 107.909 86.4969C107.893 86.5799 107.973 86.3779 107.923 86.4336C107.891 86.4686 107.985 86.4041 107.965 86.4107C108.032 86.3845 108.093 86.3757 108.168 86.367C108.464 86.3331 108.762 86.4139 109.024 86.5537C109.294 86.6979 109.433 86.8694 109.555 87.1458C109.687 87.4483 109.764 87.7683 109.854 88.0851C109.934 88.368 110.162 88.5887 110.478 88.5384C110.742 88.4969 111.012 88.1998 110.931 87.9147L110.932 87.9158Z" fill="black"/>
<path d="M98.3526 92.7626C100.813 94.0843 103.221 95.9237 106.133 96.1028C107.472 96.1847 108.897 95.9958 109.958 95.1121C110.906 94.3224 111.506 93.1373 111.625 91.9128C111.789 90.2264 111.092 88.5945 110.679 86.9954C110.606 86.7103 110.365 86.493 110.055 86.5421C109.785 86.5847 109.528 86.8785 109.602 87.1658C109.956 88.5366 110.518 89.9522 110.56 91.3481C110.575 91.8571 110.48 92.3487 110.294 92.8249C110.185 93.1056 110.108 93.2531 109.97 93.4671C109.897 93.5797 109.819 93.6889 109.735 93.7937C109.694 93.8462 109.651 93.8975 109.606 93.9478C109.588 93.9696 109.568 93.9903 109.548 94.0111C109.479 94.0865 109.641 93.9259 109.51 94.0493C109.102 94.436 108.762 94.6676 108.227 94.8391C108.161 94.8598 108.052 94.886 107.932 94.9089C107.771 94.9384 107.61 94.9548 107.448 94.9767C107.119 95.0204 106.789 95.0389 106.457 95.0291C105.13 94.9887 103.878 94.5452 102.698 93.9652C101.344 93.3 100.071 92.4601 98.736 91.7435C98.476 91.6037 98.1276 91.8124 98.0336 92.0614C97.9178 92.3672 98.0915 92.6239 98.3515 92.7637L98.3526 92.7626Z" fill="black"/>
<path d="M98.508 92.1761C98.6522 92.1794 98.7953 92.1794 98.9362 92.1739C100.13 92.1007 101.422 91.4989 102.618 91.5917C102.79 91.6048 102.958 91.6333 103.127 91.6813C103.643 91.8146 104.028 92.0876 104.329 92.4404C104.429 92.5595 104.521 92.6862 104.608 92.8238C104.713 92.9647 104.802 93.1187 104.878 93.2815C105.22 94.116 105.538 95.181 106.507 95.5207C105.692 95.43 104.932 95.1668 104.22 94.7921C104.09 94.7255 103.963 94.6578 103.837 94.5889C103.585 94.4513 103.335 94.3137 103.081 94.1848C102.919 94.0985 102.758 94.0133 102.598 93.9292C102.437 93.8451 102.277 93.7632 102.117 93.6823C101.977 93.6081 101.837 93.5338 101.699 93.4595C100.724 92.9407 99.7325 92.4557 98.6719 92.2198C98.6129 92.2056 98.5583 92.1903 98.5059 92.175L98.508 92.1761Z" fill="black"/>
<path d="M98.4534 92.7197C99.1088 92.7328 99.7281 92.6323 100.363 92.4816C100.973 92.3363 101.588 92.1637 102.219 92.1299C102.762 92.1004 103.393 92.2533 103.806 92.6738C104.276 93.1522 104.458 93.7519 104.725 94.3472C105.055 95.0823 105.537 95.742 106.317 96.0337C106.399 95.683 106.481 95.3313 106.564 94.9807C105.123 94.8092 103.914 94.0031 102.655 93.351C102.02 93.0222 101.393 92.6738 100.742 92.3734C100.403 92.2172 100.059 92.0731 99.7063 91.9518C99.3753 91.8371 99.0291 91.7629 98.7014 91.6667C98.4185 91.5837 98.1083 91.694 97.9991 91.9846C97.9007 92.2445 98.0329 92.6039 98.3169 92.6869C98.6522 92.7852 98.9908 92.8573 99.3218 92.972C99.6746 93.0932 100.019 93.2374 100.357 93.3936C101.031 93.7049 101.681 94.0643 102.339 94.4062C102.995 94.7481 103.638 95.1249 104.307 95.4438C104.983 95.765 105.709 95.9769 106.453 96.0653C107.067 96.1385 107.279 95.2287 106.7 95.0124C106.153 94.807 105.885 94.2959 105.655 93.7508C105.529 93.4537 105.431 93.1424 105.274 92.8606C105.09 92.534 104.872 92.2085 104.607 91.942C104.058 91.3871 103.325 91.0736 102.544 91.0441C101.892 91.019 101.255 91.149 100.625 91.3008C99.9422 91.4647 99.2563 91.6493 98.5627 91.6361C98.2688 91.6307 97.9969 91.8142 97.9652 92.1244C97.9379 92.3996 98.1574 92.7153 98.4534 92.7219V92.7197Z" fill="black"/>
<path d="M17.9551 90.5428C18.2445 89.8623 18.5045 89.0714 19.1926 88.8169C19.292 88.7711 19.3947 88.7329 19.5007 88.7023C19.7126 88.6411 19.9354 88.6127 20.1615 88.6204C20.3056 88.6269 20.4487 88.6509 20.5864 88.6957C20.6989 88.7208 20.807 88.77 20.8988 88.8377C20.9905 88.9054 21.0648 88.9906 21.1107 89.09C21.3084 89.8164 20.8365 90.6749 20.061 90.8038C19.9834 90.8136 19.9103 90.8071 19.8403 90.7885C19.7704 90.7699 19.7027 90.7415 19.6361 90.7055C19.4799 90.6203 19.3226 90.5264 19.1631 90.4521C19.0834 90.415 19.0037 90.3822 18.9228 90.3571C18.6356 90.2959 18.4018 90.3243 18.1943 90.4521C18.1189 90.4816 18.0403 90.5122 17.9573 90.5428H17.9551Z" fill="black"/>
<path d="M17.4309 90.3919C17.7017 89.7485 17.942 89.0243 18.5177 88.5831C19.1446 88.1025 20.0512 87.9452 20.8016 88.1909C21.2003 88.3209 21.5695 88.6224 21.658 89.0473C21.7246 89.3706 21.7071 89.7212 21.6034 90.0347C21.3936 90.6671 20.8628 91.222 20.1856 91.3345C19.7094 91.4132 19.3554 91.1532 18.9491 90.9544C18.8464 90.9042 18.7034 90.8583 18.5876 90.8768C18.4423 90.9009 18.2599 91.0068 18.0808 91.0746C17.8044 91.1783 17.4866 90.9326 17.4232 90.6715C17.3478 90.3558 17.5499 90.1177 17.8263 90.014C17.9999 89.9484 18.0939 89.8741 18.3014 89.8228C18.4816 89.778 18.6717 89.7747 18.8552 89.7988C19.2429 89.849 19.5739 90.0533 19.9114 90.2389C19.9322 90.2575 19.9573 90.2663 19.9879 90.2663C19.9387 90.2619 19.9475 90.2608 20.013 90.2641C19.9147 90.2739 20.1834 90.2007 20.0764 90.2433C20.1299 90.2226 20.179 90.1909 20.2293 90.1625C20.2861 90.1243 20.2937 90.121 20.2511 90.1494C20.2806 90.1254 20.309 90.1002 20.3363 90.0729C20.4663 89.9462 20.5799 89.7147 20.5985 89.5606C20.6061 89.4951 20.6083 89.4263 20.605 89.3597C20.6094 89.4438 20.5559 89.233 20.5985 89.2952C20.6258 89.3346 20.5406 89.2581 20.5591 89.2679C20.4958 89.2341 20.4368 89.2166 20.3625 89.1991C20.0731 89.1281 19.7683 89.1718 19.4909 89.2778C19.2047 89.387 19.0453 89.5399 18.8901 89.7999C18.7208 90.0828 18.604 90.3919 18.4762 90.6944C18.3615 90.9653 18.1081 91.1554 17.8011 91.0669C17.5445 90.9926 17.314 90.665 17.4287 90.3919H17.4309Z" fill="black"/>
<path d="M29.3105 96.7643C26.7043 97.7692 24.0873 99.2962 21.1763 99.1116C19.8372 99.0264 18.4467 98.6616 17.5041 97.6534C16.6609 96.7523 16.213 95.5017 16.248 94.2718C16.295 92.5776 17.1895 91.0452 17.7979 89.5094C17.9061 89.2363 18.1704 89.0496 18.473 89.137C18.7351 89.2123 18.9547 89.5367 18.8454 89.812C18.3244 91.1282 17.5893 92.4629 17.3752 93.8425C17.2977 94.346 17.3304 94.8452 17.455 95.3411C17.5292 95.6327 17.5871 95.7889 17.6974 96.0183C17.7553 96.1395 17.8198 96.2575 17.8897 96.3711C17.9246 96.4279 17.9607 96.4847 17.9978 96.5393C18.0142 96.5634 18.0306 96.5863 18.047 96.6092C18.107 96.6933 17.9651 96.5131 18.0797 96.6518C18.4369 97.0866 18.7449 97.3574 19.255 97.5945C19.3173 97.6229 19.4222 97.6633 19.539 97.7004C19.6941 97.7496 19.8536 97.7867 20.0109 97.8271C20.332 97.9112 20.6564 97.9713 20.9874 98.0019C22.309 98.1264 23.6056 97.8424 24.8508 97.4131C26.2773 96.9216 27.6437 96.2466 29.0571 95.7004C29.3324 95.5945 29.6524 95.8446 29.7147 96.1035C29.7911 96.4214 29.588 96.6551 29.3116 96.7611L29.3105 96.7643Z" fill="black"/>
<path d="M29.2296 96.1634C29.0865 96.1492 28.9445 96.1306 28.8047 96.1077C27.6283 95.887 26.4213 95.129 25.2242 95.0733C25.0527 95.0657 24.8812 95.0722 24.7076 95.0984C24.1789 95.1661 23.7627 95.3901 23.4209 95.7025C23.3062 95.8073 23.1991 95.9231 23.0965 96.0476C22.9741 96.1743 22.8682 96.3163 22.771 96.4681C22.3275 97.2535 21.8808 98.2715 20.877 98.4878C21.6962 98.4987 22.4837 98.3327 23.2374 98.0487C23.3739 97.9995 23.5083 97.9471 23.6426 97.8947C23.9102 97.7898 24.1756 97.6849 24.4421 97.5877C24.6136 97.5222 24.784 97.4577 24.9533 97.3944C25.1226 97.331 25.2919 97.2688 25.4612 97.2087C25.6098 97.153 25.7562 97.0962 25.9036 97.0394C26.9347 96.6462 27.9789 96.2879 29.0603 96.1853C29.1204 96.1787 29.1761 96.1699 29.2307 96.1612L29.2296 96.1634Z" fill="black"/>
<path d="M29.2161 96.7079C28.5651 96.6391 27.9621 96.4633 27.3516 96.2339C26.7639 96.0133 26.1752 95.7664 25.5548 95.6539C25.0184 95.5567 24.374 95.6309 23.912 95.9969C23.3855 96.413 23.131 96.9854 22.7924 97.5424C22.3741 98.2317 21.8137 98.8259 21.0043 99.0181C20.9661 98.6598 20.929 98.3016 20.8907 97.9422C22.3413 97.952 23.6411 97.3011 24.9715 96.8106C25.6432 96.5627 26.3084 96.2961 26.9911 96.0788C27.3461 95.9663 27.7054 95.8658 28.0703 95.7893C28.4132 95.7173 28.7661 95.6856 29.1036 95.6321C29.3941 95.5851 29.6879 95.7336 29.7611 96.0351C29.8256 96.3049 29.6497 96.6457 29.3581 96.6927C29.0129 96.7484 28.6677 96.7778 28.3248 96.8499C27.96 96.9264 27.6006 97.0269 27.2456 97.1394C26.5389 97.3644 25.8486 97.6397 25.1528 97.8985C24.4581 98.1563 23.7743 98.4501 23.0709 98.6828C22.3598 98.9176 21.6127 99.0378 20.8634 99.0323C20.2452 99.0279 20.148 98.0995 20.7498 97.9564C21.3189 97.821 21.6477 97.3469 21.9437 96.8347C22.1054 96.5561 22.2408 96.259 22.433 95.999C22.6548 95.6976 22.9125 95.4016 23.2085 95.17C23.8224 94.6883 24.5881 94.4677 25.3669 94.5354C26.0168 94.5911 26.6328 94.7997 27.239 95.028C27.8966 95.2749 28.5541 95.5436 29.2445 95.6168C29.5372 95.6473 29.784 95.8636 29.7764 96.1749C29.7698 96.4513 29.5121 96.7374 29.2182 96.7068L29.2161 96.7079Z" fill="black"/>
<path opacity="0.05" d="M49.1558 125.958C48.9701 127.332 51.3458 127.545 52.2601 127.716C55.5019 128.319 58.7984 127.831 62.0348 127.436C62.4018 127.366 62.7677 127.299 63.1358 127.243C66.5164 126.723 69.8249 127.638 73.1979 127.742C75.9996 127.828 78.8187 127.783 81.6117 127.421C82.0562 127.363 82.8263 127.304 83.1081 126.756C83.391 126.204 83.0972 125.782 82.6854 125.596C80.692 124.692 78.526 124.691 76.4452 124.596C72.2083 124.403 68.0249 125.682 63.8021 125.363C62.8628 125.292 61.9333 125.1 61.0026 124.918C60.6924 124.858 60.3822 124.799 60.0709 124.747C58.2971 124.445 56.485 124.394 54.6904 124.499C53.774 124.552 52.8597 124.633 51.9509 124.756C51.2016 124.857 50.1924 124.871 49.5567 125.317C49.3175 125.484 49.1897 125.717 49.1569 125.959L49.1558 125.958Z" fill="black"/>
<path d="M68.7544 110.006C68.9138 110.426 69.0777 110.847 69.2164 111.281L69.2044 111.256C69.2284 111.307 69.2633 111.383 69.2808 111.449C69.4556 111.951 69.6249 112.455 69.7887 112.959C70.1208 113.981 70.431 115.007 70.727 116.034C71.3146 118.079 71.8411 120.13 72.3578 122.182C72.6505 123.344 72.94 124.506 73.2349 125.667C73.3321 126.049 73.674 126.402 73.97 126.367C74.2638 126.332 74.4462 126.013 74.3424 125.605C73.2884 121.456 72.3086 117.294 70.987 113.175C70.7936 112.572 70.5926 111.97 70.384 111.369C70.1754 110.77 69.958 110.169 69.7308 109.567C69.5878 109.187 69.1519 108.95 68.9138 109.074C68.6342 109.22 68.5992 109.593 68.7554 110.006H68.7544Z" fill="black"/>
<path d="M73.9023 125.953C74.0411 125.966 74.1831 125.972 74.3262 125.97C74.4692 125.967 74.6134 125.959 74.7576 125.942C75.2546 125.83 75.9132 125.692 76.4474 125.42C76.5806 125.353 76.7062 125.276 76.8198 125.19C76.9028 125.129 76.9935 125.055 77.0776 124.975C77.1617 124.894 77.2414 124.804 77.3026 124.71C77.52 124.43 77.367 124.096 77.1267 123.89C76.8286 123.681 76.5293 123.533 76.1808 123.525C76.088 123.521 75.9952 123.525 75.9045 123.535C75.0842 123.627 74.3633 124.248 74.0815 125.078C74.0553 125.148 74.0312 125.219 74.0094 125.291C74.0159 125.451 73.9067 125.587 73.9122 125.747C73.9045 125.815 73.9023 125.882 73.9023 125.951V125.953Z" fill="black"/>
<path d="M73.8591 126.409C74.249 126.443 74.6488 126.435 75.0311 126.349C75.4134 126.263 75.7946 126.167 76.1638 126.037C76.5471 125.901 76.9098 125.712 77.2255 125.456C77.5215 125.215 77.8404 124.877 77.8633 124.475C77.907 123.684 77.0376 123.16 76.344 123.08C75.6318 122.998 74.8869 123.294 74.3801 123.789C74.083 124.078 73.8492 124.421 73.6952 124.808C73.6636 124.888 73.6352 124.97 73.6078 125.05C73.586 125.115 73.5631 125.183 73.5543 125.25C73.5543 125.274 73.5543 125.298 73.55 125.322C73.5642 125.267 73.5642 125.263 73.55 125.313C73.4757 125.506 73.4495 125.704 73.4473 125.91C73.4451 126.149 73.598 126.396 73.8591 126.409C74.0895 126.421 74.3561 126.253 74.3583 125.997C74.3583 125.929 74.3637 125.862 74.3681 125.793C74.3703 125.769 74.391 125.663 74.3626 125.765C74.3692 125.742 74.3768 125.719 74.3845 125.696C74.4129 125.613 74.438 125.532 74.4533 125.444C74.4533 125.444 74.4631 125.331 74.4576 125.39C74.4467 125.422 74.4489 125.413 74.4653 125.364C74.4751 125.336 74.485 125.307 74.4948 125.279C74.5177 125.213 74.5417 125.148 74.568 125.083C74.5789 125.058 74.5898 125.033 74.6007 125.009C74.5986 125.012 74.6575 124.894 74.627 124.952C74.5964 125.01 74.6597 124.894 74.6586 124.897C74.6761 124.869 74.6936 124.84 74.7111 124.812C74.7504 124.751 74.793 124.691 74.8378 124.633C74.8618 124.601 74.888 124.572 74.9131 124.541C74.8519 124.604 74.9022 124.555 74.9131 124.541C74.959 124.494 75.006 124.449 75.0551 124.405C75.1043 124.362 75.1545 124.321 75.2069 124.283C75.2277 124.267 75.2495 124.253 75.2703 124.238C75.3151 124.208 75.3129 124.208 75.2648 124.24C75.2867 124.227 75.3096 124.214 75.3315 124.201C75.432 124.144 75.5379 124.095 75.646 124.055C75.6646 124.049 75.7858 124.018 75.6755 124.044C75.7006 124.039 75.7247 124.031 75.7498 124.026C75.8252 124.008 75.9005 123.995 75.9781 123.987C75.9661 123.988 76.1157 123.977 76.0567 123.979C75.9977 123.981 76.1485 123.981 76.1365 123.981C76.2031 123.983 76.2675 123.99 76.3331 124.001C76.3495 124.005 76.4183 124.014 76.3331 124.001C76.3702 124.012 76.4073 124.023 76.4434 124.036C76.4674 124.044 76.4915 124.054 76.5155 124.064C76.5286 124.07 76.6509 124.126 76.6061 124.103C76.5472 124.074 76.6618 124.135 76.6597 124.134C76.6826 124.148 76.7055 124.161 76.7285 124.177C76.7634 124.198 76.7962 124.224 76.8322 124.244C76.9098 124.291 76.8453 124.251 76.829 124.234C76.8508 124.256 76.936 124.328 76.9382 124.364C76.9284 124.349 76.9185 124.333 76.9076 124.317C76.9185 124.336 76.9284 124.356 76.9382 124.376C76.9426 124.386 76.9469 124.396 76.9513 124.406C76.9688 124.455 76.9666 124.446 76.9437 124.381C76.9382 124.381 76.96 124.439 76.9535 124.443C76.9535 124.425 76.9524 124.406 76.9524 124.387C76.9524 124.408 76.9502 124.43 76.9458 124.451C76.9502 124.362 76.9491 124.402 76.9458 124.431C76.9535 124.417 76.9611 124.404 76.9699 124.39C76.9579 124.41 76.9436 124.431 76.9284 124.451C76.912 124.474 76.8956 124.498 76.8792 124.521C76.8748 124.526 76.7831 124.632 76.8453 124.565C76.7918 124.623 76.7329 124.676 76.6728 124.727C76.6127 124.777 76.5504 124.825 76.4871 124.871C76.4871 124.871 76.356 124.955 76.4292 124.912C76.4008 124.929 76.3724 124.944 76.344 124.961C76.1922 125.045 76.0327 125.115 75.8699 125.175C75.7891 125.206 75.7061 125.234 75.6231 125.26C75.5379 125.287 75.728 125.232 75.5827 125.272C75.5379 125.285 75.492 125.298 75.4472 125.31C75.2736 125.357 75.0988 125.399 74.924 125.439C74.7635 125.476 74.6084 125.503 74.4445 125.515C74.2916 125.526 74.4849 125.515 74.3965 125.517C74.3408 125.518 74.2861 125.518 74.2304 125.517C74.1365 125.515 74.0426 125.509 73.9497 125.502C73.7116 125.481 73.4637 125.665 73.4506 125.913C73.4375 126.159 73.6079 126.391 73.8624 126.412L73.8591 126.409Z" fill="black"/>
<path d="M57.1789 109.288C57.1986 109.553 57.2193 109.819 57.2412 110.084C57.2521 110.21 57.263 110.335 57.2739 110.461C57.2794 110.517 57.2838 110.572 57.2892 110.628C57.2794 110.526 57.3034 110.771 57.3056 110.8C57.357 111.328 57.4149 111.856 57.4782 112.382C57.606 113.45 57.7546 114.511 57.9173 115.569C58.2417 117.671 58.6251 119.754 59.0161 121.833C59.2378 123.01 59.4629 124.187 59.6824 125.365C59.7545 125.753 59.5918 126.217 59.3089 126.31C59.0281 126.402 58.7278 126.189 58.6502 125.774C57.8671 121.566 57.0096 117.376 56.4809 113.083C56.4034 112.454 56.3335 111.823 56.2712 111.191C56.209 110.558 56.1544 109.925 56.1085 109.289C56.079 108.888 56.3739 108.503 56.6415 108.52C56.9561 108.54 57.1462 108.86 57.1789 109.289V109.288Z" fill="black"/>
<path d="M59.1972 125.903C59.076 125.973 58.9504 126.037 58.8193 126.095C58.6893 126.153 58.5539 126.206 58.4163 126.252C57.9171 126.357 57.2628 126.509 56.6642 126.486C56.5146 126.481 56.3682 126.465 56.2295 126.434C56.1279 126.413 56.0165 126.385 55.9051 126.347C55.7948 126.308 55.6856 126.26 55.5895 126.201C55.2738 126.037 55.2738 125.672 55.4049 125.383C55.5884 125.07 55.797 124.808 56.1105 124.655C56.1935 124.612 56.2787 124.577 56.365 124.548C57.1481 124.287 58.0635 124.548 58.6675 125.184C58.721 125.237 58.7723 125.291 58.8226 125.348C58.8827 125.496 59.0399 125.574 59.1011 125.722C59.1361 125.781 59.1678 125.841 59.1962 125.903H59.1972Z" fill="black"/>
<path d="M59.4281 126.299C59.0884 126.494 58.7225 126.654 58.3391 126.736C57.9557 126.818 57.5702 126.89 57.1791 126.927C56.775 126.966 56.3665 126.946 55.9722 126.845C55.603 126.75 55.1715 126.579 54.9825 126.223C54.6112 125.523 55.1803 124.683 55.7755 124.319C56.3872 123.946 57.1879 123.902 57.8563 124.138C58.2474 124.276 58.6045 124.489 58.906 124.775C58.9683 124.834 59.0283 124.897 59.0873 124.959C59.1343 125.009 59.1834 125.061 59.2195 125.118C59.2282 125.14 59.2403 125.162 59.2534 125.182C59.2173 125.137 59.2162 125.134 59.249 125.173C59.3975 125.317 59.5046 125.487 59.593 125.672C59.6957 125.889 59.6597 126.177 59.4292 126.298C59.2249 126.406 58.9126 126.365 58.8033 126.134C58.7738 126.072 58.7411 126.013 58.7083 125.953C58.6963 125.932 58.6329 125.845 58.7018 125.926C58.6865 125.907 58.669 125.89 58.6526 125.872C58.5925 125.808 58.5346 125.745 58.4844 125.672C58.4844 125.672 58.4287 125.574 58.4582 125.625C58.4811 125.649 58.4756 125.643 58.4407 125.606C58.4199 125.584 58.3992 125.562 58.3784 125.541C58.3304 125.491 58.2812 125.442 58.2299 125.395C58.2102 125.376 58.1895 125.359 58.1687 125.341C58.172 125.345 58.0693 125.26 58.1207 125.301C58.172 125.34 58.066 125.263 58.0693 125.265C58.042 125.246 58.0136 125.228 57.9852 125.209C57.923 125.17 57.8596 125.134 57.7952 125.1C57.7602 125.081 57.7242 125.065 57.6881 125.049C57.7045 125.056 57.77 125.08 57.6881 125.049C57.627 125.026 57.5647 125.004 57.5024 124.984C57.4402 124.966 57.3768 124.949 57.3135 124.936C57.2884 124.931 57.2621 124.927 57.237 124.922C57.1835 124.913 57.1857 124.913 57.2436 124.922C57.2184 124.919 57.1922 124.916 57.166 124.914C57.0513 124.905 56.9345 124.905 56.8198 124.914C56.8001 124.916 56.6778 124.939 56.7892 124.916C56.7641 124.922 56.7389 124.925 56.7138 124.931C56.6385 124.946 56.5631 124.966 56.491 124.991C56.5019 124.987 56.3621 125.039 56.4167 125.017C56.4713 124.994 56.3348 125.057 56.3457 125.052C56.2867 125.081 56.231 125.115 56.1753 125.151C56.1043 125.198 56.1622 125.162 56.1753 125.15C56.1458 125.175 56.1174 125.2 56.089 125.228C56.0705 125.246 56.053 125.265 56.0355 125.283C56.0257 125.293 55.9383 125.397 55.97 125.357C56.0115 125.304 55.9328 125.409 55.935 125.407C55.9197 125.429 55.9044 125.452 55.8902 125.475C55.8673 125.509 55.8476 125.546 55.8247 125.579C55.7734 125.655 55.816 125.591 55.8247 125.568C55.8138 125.598 55.7668 125.698 55.7799 125.732C55.7821 125.714 55.7854 125.695 55.7876 125.677C55.7854 125.698 55.7843 125.72 55.7843 125.742C55.7843 125.753 55.7843 125.764 55.7843 125.775C55.7887 125.826 55.7876 125.819 55.7799 125.749C55.7854 125.745 55.7886 125.808 55.7974 125.81C55.7897 125.792 55.7832 125.776 55.7755 125.759C55.7854 125.777 55.7963 125.796 55.8083 125.813C55.7679 125.735 55.7843 125.769 55.8007 125.796C55.7876 125.787 55.7745 125.777 55.7614 125.767C55.781 125.781 55.8028 125.795 55.8247 125.806C55.8487 125.82 55.8739 125.834 55.899 125.848C55.9044 125.851 56.0333 125.909 55.9481 125.874C56.0213 125.904 56.0967 125.928 56.1721 125.949C56.2474 125.969 56.3239 125.987 56.4003 126.001C56.4003 126.001 56.5543 126.023 56.4702 126.013C56.503 126.016 56.5358 126.02 56.5685 126.022C56.7411 126.035 56.9159 126.031 57.0885 126.017C57.1748 126.011 57.261 126.002 57.3473 125.991C57.4358 125.98 57.2403 126.009 57.3899 125.985C57.4358 125.977 57.4828 125.97 57.5287 125.963C57.7056 125.933 57.8814 125.897 58.0573 125.86C58.219 125.826 58.3697 125.785 58.5248 125.727C58.6679 125.672 58.4877 125.744 58.5696 125.708C58.6209 125.686 58.6712 125.662 58.7203 125.638C58.8044 125.597 58.8874 125.553 58.9694 125.506C59.1769 125.387 59.4794 125.451 59.5952 125.67C59.7099 125.887 59.6531 126.169 59.4314 126.296L59.4281 126.299Z" fill="black"/>
<path d="M61.5668 22.1475L55.7778 22.6084L55.295 16.543L57.9088 16.3344C58.8809 16.2568 59.6062 15.406 59.5286 14.4338L58.9661 7.37554C58.8886 6.40341 58.0377 5.67813 57.0656 5.75568L37.2593 7.33294C36.2872 7.41049 35.5619 8.26138 35.6395 9.2335L35.7421 10.5268C36.0731 14.6829 39.7104 17.7828 43.8665 17.4518C45.376 17.3316 46.9183 16.9297 48.4311 17.2355C49.8314 17.5184 50.6746 18.7898 50.6921 20.1716C50.714 21.9247 49.5955 22.9853 47.9014 23.2267C45.8774 23.5161 43.7999 23.5598 41.7606 23.7226C40.7885 23.8001 40.0632 24.651 40.1407 25.6231L40.2434 26.9164C40.3636 28.4193 40.937 29.8688 41.8818 31.0441C42.5754 31.9059 43.4558 32.6082 44.4465 33.0954C44.7764 33.2581 45.1182 33.3958 45.47 33.5083C47.3574 34.0992 49.2864 33.5509 51.0886 34.3024C51.2481 34.3843 51.3956 34.4826 51.5266 34.6027C52.4223 35.2734 52.2355 36.4181 52.4223 37.7714C52.62 39.2034 54.052 35.932 54.8046 35.2821C54.8919 35.1532 54.9739 35.0298 55.0514 34.9162C55.1333 34.7884 55.2152 34.6628 55.3004 34.5405C55.721 33.9288 56.2005 33.3958 56.9585 33.1664C57.1289 33.1434 57.2993 33.1303 57.4675 33.1161C60.1632 32.901 62.4101 32.7229 62.4101 32.7229C63.3822 32.6454 64.1075 31.7945 64.0299 30.8224L63.4674 23.7641C63.3898 22.7919 62.5389 22.0667 61.5668 22.1442V22.1475Z" fill="#F9C41C"/>
<path d="M61.9599 22.1602C61.9184 21.7561 61.8649 21.3476 61.8179 20.9194C61.7513 20.4388 61.6727 19.9604 61.5907 19.483C61.3439 18.0522 61.0544 16.63 60.8971 15.2002C60.7966 14.5383 60.6994 13.8939 60.5935 13.2472C60.303 11.3434 59.9327 9.44392 59.5187 7.52151C59.4073 6.79951 59.2871 6.08079 59.1615 5.36208C58.9103 3.92573 58.6361 2.49376 58.3598 1.06397C58.268 0.482878 58.0539 0.0612669 57.3527 0.225108C57.1124 0.241493 56.8393 0.263329 56.5674 0.284082C55.7503 0.349619 54.9344 0.41407 54.9344 0.41407C53.2403 0.549513 51.7788 1.41459 50.834 2.67617C50.2191 3.49866 49.9842 4.5953 49.343 5.42216C48.4375 6.59199 46.9881 6.61383 45.6293 6.73289C44.122 6.86505 42.6092 6.90546 41.1007 7.02561C39.8206 7.12719 38.5404 7.22987 37.2603 7.33145C36.2882 7.40901 35.5629 8.25989 35.6404 9.23202L35.7431 10.5253C35.7617 10.759 35.7912 10.9895 35.8305 11.2156C36.8146 12.8737 38.6409 13.9736 40.6311 14.0413C43.9898 14.2194 47.2655 13.3554 50.3709 14.4881C50.6964 18.1909 51.0601 21.8904 51.4107 25.5911C50.7335 25.8521 50.0301 25.9963 49.3201 26.052C46.2945 26.4845 43.2765 26.786 40.2542 27.0208C40.3918 28.4867 40.9587 29.8957 41.8828 31.0426C42.5764 31.9044 43.4568 32.6067 44.4475 33.0939C44.7773 33.2566 45.1192 33.3943 45.4709 33.5068C47.3584 34.0966 49.2873 33.5494 51.0896 34.3009C51.2491 34.3828 51.3965 34.4811 51.5276 34.6012C52.4222 35.2708 52.2376 36.4155 52.4233 37.7667C52.5259 39.3668 52.6166 40.9681 52.6942 42.5705C52.8307 45.3514 52.9781 48.412 51.9536 51.0597C54.5008 50.3639 57.2162 50.1716 59.6094 49.217C60.4526 48.9133 61.3504 48.2897 61.4072 47.0226C61.4673 46.7812 61.8048 45.9762 61.7852 45.5961C61.8354 45.0172 61.8704 44.4383 61.8911 43.8605C61.9293 43.0129 61.9938 42.1707 62.0408 41.3253C62.2101 38.4406 62.0692 35.6072 61.9523 32.7586C62.2461 32.7356 62.411 32.7225 62.411 32.7225C63.3832 32.645 64.1084 31.7941 64.0309 30.822L63.4683 23.7637C63.4017 22.9259 62.7595 22.2727 61.961 22.158L61.9599 22.1602Z" fill="#F9C41C"/>
<path d="M78.4675 54.5843C73.2224 53.7388 69.9029 48.7166 68.8194 43.857C68.5999 42.9482 68.4437 42.0318 68.3476 41.1263C68.1575 40.0526 68.0057 38.9658 67.8746 37.879C67.4803 34.6218 67.2728 31.3712 66.8217 28.6176C66.7638 27.8956 66.7059 27.1747 66.6491 26.457C66.1379 20.0443 65.6496 13.909 65.287 9.35637C65.2586 9.00575 65.2324 8.66496 65.2051 8.334C65.1406 7.58033 65.0871 6.7644 64.991 5.9441C64.9429 5.53449 64.8839 5.12269 64.8075 4.71855C64.4328 1.54112 61.2783 -0.0459553 58.3652 0.00101264C57.0742 0.108056 55.7755 0.15939 54.5412 0.46195C53.0142 0.690236 51.7045 1.51491 50.834 2.67709C50.2191 3.49958 49.9842 4.59622 49.343 5.42308C48.4375 6.59291 46.9881 6.61475 45.6293 6.73381C44.122 6.86597 42.6092 6.90638 41.1007 7.02653C39.8206 7.12811 38.5404 7.23079 37.2603 7.33238C36.2882 7.40993 35.5629 8.26081 35.6404 9.23294L35.7431 10.5262C35.7617 10.7599 35.7912 10.9904 35.8305 11.2165C36.8146 12.8746 38.6409 13.9745 40.6311 14.0422C43.9898 14.2203 47.2655 13.3563 50.3709 14.489C50.6964 18.1918 51.0601 21.8913 51.4107 25.592C50.7335 25.853 50.0301 25.9972 49.3201 26.0529C46.2945 26.4855 43.2765 26.7869 40.2542 27.0218C40.3918 28.4876 40.9587 29.8966 41.8828 31.0435C42.5764 31.9053 43.4568 32.6077 44.4475 33.0948C44.7773 33.2576 45.1192 33.3952 45.4709 33.5077C47.3584 34.0975 49.2873 33.5503 51.0896 34.3018C51.2491 34.3837 51.3965 34.482 51.5276 34.6022C52.4222 35.2717 52.2376 36.4164 52.4233 37.7676C52.5259 39.3678 52.6166 40.969 52.6942 42.5714C52.8307 45.3524 52.9781 48.4129 51.9536 51.0606C51.7242 51.6537 51.4358 52.2261 51.0754 52.77C50.8471 53.113 50.5992 53.4428 50.3305 53.7563C47.3726 57.0572 42.5906 57.4384 38.808 59.4755C41.0658 60.085 43.5092 60.0479 45.7331 61.0407C46.0477 61.1816 46.3579 61.34 46.6626 61.5224C47.0788 61.7016 47.4982 61.8719 47.922 62.0358C50.8832 63.1827 53.9907 64.0041 56.9387 65.175C57.5078 65.3312 58.0703 65.4601 58.6121 65.5649C59.1495 65.6687 59.6672 65.7495 60.1457 65.8074C60.1457 65.8074 61.1243 65.7299 62.103 65.6512C63.0817 65.5737 64.0604 65.495 64.0604 65.495C64.8468 65.3629 65.5295 65.1509 66.1259 64.8691C66.7222 64.5884 67.2323 64.2378 67.6758 63.8293C68.1881 63.3443 68.7277 62.902 69.288 62.4913C69.8494 62.0806 70.4305 61.7026 71.028 61.3455C72.5058 60.31 74.1497 59.5236 75.7117 58.6268C76.0252 58.4477 76.3365 58.2641 76.651 58.0708C77.0246 57.8152 77.4047 57.5716 77.7903 57.3346C78.983 56.6672 80.1878 55.9409 81.3981 55.2921C80.4325 55.0529 79.4484 54.8355 78.4708 54.5788L78.4675 54.5843ZM54.9159 50.4172C55.2053 50.3626 55.4948 50.3069 55.7831 50.2512C55.4948 50.308 55.2053 50.3626 54.9159 50.4172ZM61.2904 47.6734C61.014 48.5156 60.2931 48.9743 59.6072 49.2212C60.2931 48.9743 61.0129 48.5167 61.2904 47.6734Z" fill="#F9C41C"/>
<path d="M52.9626 33.0723C52.6447 32.5305 52.0505 32.1176 51.4727 31.9013C50.5476 31.5551 49.535 31.5376 48.5618 31.4448C45.5537 31.1575 41.711 30.4541 40.3457 27.6797C40.5707 28.9074 41.0972 30.0718 41.8814 31.0472C42.575 31.909 43.4554 32.6113 44.4461 33.0985C45.5329 33.6337 46.7737 33.851 47.9796 33.8412C49.1134 33.8325 50.0691 33.7833 51.1002 34.3251C51.6999 34.6539 52.3181 35.1804 52.2843 35.9526C52.5617 35.4185 53.0095 34.8701 53.1526 34.2661C53.2575 33.8259 53.1679 33.4218 52.9626 33.0723Z" fill="#F4B80F"/>
<path d="M78.4671 54.5843C73.2219 53.7388 69.9025 48.7166 68.819 43.857C68.5994 42.9482 68.4432 42.0318 68.3471 41.1263C68.1571 40.0526 68.0052 38.9658 67.8742 37.879C67.4799 34.6218 67.2723 31.3712 66.8212 28.6176C66.7633 27.8956 66.7054 27.1747 66.6486 26.457C66.1374 20.0443 65.6492 13.909 65.2866 9.35637C65.2582 9.00575 65.232 8.66496 65.2046 8.334C65.1402 7.58033 65.0867 6.76439 64.9906 5.94409C64.9425 5.53449 64.8835 5.12269 64.807 4.71855C64.4324 1.54112 61.2779 -0.0459553 58.3648 0.00101264C56.8018 0.130994 55.2278 0.176874 53.7685 0.688059C54.7199 0.354915 56.2327 0.774341 57.0705 1.23965C58.1901 1.86225 58.651 2.8453 58.7755 4.09486C59.4331 10.6857 62.3942 31.4313 61.6952 43.0313C61.6602 43.6113 61.6165 44.1683 61.5619 44.6926C61.4822 46.461 61.2528 48.4009 60.0152 49.7488C58.3375 51.6122 55.6866 52.1114 53.2224 51.5914C52.7877 51.4669 52.3617 51.2922 51.9542 51.0704C51.7991 51.5576 51.5425 51.9617 51.3317 52.3593C51.2508 52.4991 51.1645 52.6367 51.075 52.7722C50.8467 53.1151 50.5987 53.445 50.33 53.7585C47.3721 57.0594 42.5902 57.4406 38.8076 59.4777C41.0654 60.0872 43.5088 60.05 45.7326 61.0429C46.0472 61.1838 46.3574 61.3422 46.6622 61.5246C47.0783 61.7037 47.4978 61.8741 47.9216 62.038C50.8827 63.1849 53.9902 64.0062 56.9383 65.1772C57.5074 65.3334 58.0699 65.4623 58.6117 65.5671C59.1491 65.6709 59.6668 65.7517 60.1452 65.8096C60.1452 65.8096 61.1239 65.7321 62.1026 65.6534L64.0599 65.4972C64.8464 65.365 65.529 65.1531 66.1254 64.8713C66.7218 64.5895 67.2319 64.24 67.6754 63.8315C68.1876 63.3465 68.7272 62.9041 69.2876 62.4934C69.849 62.0827 70.4301 61.7048 71.0275 61.3476C72.5054 60.3122 74.1493 59.5257 75.7112 58.629C76.0247 58.4498 76.336 58.2663 76.6506 58.073C77.0242 57.8174 77.4043 57.5738 77.7898 57.3368C78.9826 56.6694 80.1874 55.9431 81.3976 55.2943C80.4321 55.055 79.4479 54.8377 78.4703 54.581L78.4671 54.5843Z" fill="#F4B80F"/>
<path d="M25.7208 86.2468C25.9721 88.1495 26.3784 90.0326 26.9387 91.8687C30.0321 102.002 38.0002 110.516 47.7258 114.622C53.6329 117.116 60.0074 118.015 66.2279 117.485C72.4539 117.023 78.6056 115.127 84.0429 111.728C92.9963 106.135 99.515 96.4661 100.966 85.9704C101.229 84.0687 101.331 82.1452 101.278 80.2272C101.044 71.821 97.8613 63.5678 90.7451 58.6733C85.7348 55.2282 79.5406 54.7411 73.604 54.4396C73.5713 54.4374 73.5374 54.4364 73.5047 54.4342C69.4119 54.231 65.3082 54.3402 61.2253 54.6789C57.1391 54.9912 53.0714 55.533 49.0617 56.3817C49.0289 56.3882 48.9962 56.3959 48.9634 56.4025C43.1492 57.64 37.1111 59.1015 32.7092 63.2969C26.457 69.2564 24.6209 77.9094 25.7208 86.2468Z" fill="#F9C41C"/>
<path d="M90.7455 58.6733C85.7352 55.2282 79.5409 54.7411 73.6044 54.4396C73.5716 54.4374 73.5378 54.4364 73.505 54.4342C69.4122 54.231 65.3086 54.3402 61.2256 54.6789C57.1394 54.9912 53.0718 55.533 49.0621 56.3817C49.0293 56.3882 48.9965 56.3959 48.9637 56.4024C48.4679 56.5084 47.9698 56.6155 47.4706 56.7258C47.972 56.6471 48.4733 56.5718 48.9758 56.503C52.3432 56.3129 55.9576 56.0213 59.6473 55.8509C61.4921 55.7657 63.3545 55.7121 65.2113 55.7165C73.1729 55.6259 81.6796 56.6504 87.7865 62.4373C97.8649 71.9412 98.3008 88.6661 90.3861 99.5845C89.5473 100.723 88.6297 101.802 87.6434 102.812C84.6833 105.844 81.1083 108.263 77.08 109.841C75.2876 110.609 73.4274 111.243 71.5203 111.738C61.9869 114.219 51.2958 113.218 42.5914 108.909C41.0863 108.195 39.6259 107.398 38.2212 106.518C36.8176 105.64 35.4698 104.681 34.1885 103.647C33.0777 102.714 32.0357 101.714 31.0723 100.653C35.0864 106.807 40.9836 111.772 47.7262 114.619C53.6332 117.112 60.0077 118.011 66.2283 117.481C72.4542 117.019 78.6059 115.123 84.0433 111.725C92.9967 106.132 99.5154 96.4628 100.966 85.9671C101.229 84.0655 101.332 82.142 101.278 80.2239C101.045 71.8178 97.8616 63.5645 90.7455 58.67V58.6733Z" fill="#F4B80F"/>
<path d="M52.2799 101.119C52.4273 102.302 52.7845 103.553 53.6868 104.384C53.8735 104.589 54.0734 104.787 54.2864 104.979C55.5633 106.131 57.2902 107.041 59.2442 107.572C61.2224 108.11 63.3709 108.269 65.4801 108.093C67.5903 107.933 69.6875 107.436 71.5553 106.592C74.6311 105.203 76.9162 102.874 77.494 100.394C77.5989 99.9448 77.6491 99.4915 77.6469 99.0403C77.6371 97.0655 76.6289 95.1497 74.2608 94.0574C72.594 93.2884 70.5023 93.2251 68.4969 93.2032C68.486 93.2032 68.474 93.2032 68.463 93.2032C67.0802 93.189 65.6909 93.2491 64.3059 93.3627C62.9209 93.4697 61.5402 93.6314 60.176 93.8641C60.165 93.8662 60.1541 93.8673 60.1432 93.8695C58.1662 94.2092 56.1105 94.6024 54.5868 95.6259C54.3159 95.8072 54.069 95.9984 53.8429 96.1971C53.6179 96.3959 53.4148 96.6035 53.24 96.8176C52.3378 97.8356 52.2482 99.1747 52.2373 100.388C52.2417 100.634 52.2559 100.878 52.2799 101.12V101.119Z" fill="white"/>
<path d="M75.924 95.1378C76.1217 95.7178 76.219 96.3262 76.2255 96.9401C76.2299 97.3824 76.1873 97.827 76.0955 98.2683C75.5898 100.701 73.5396 102.972 70.7707 104.317C69.0886 105.134 67.1978 105.609 65.2929 105.753C63.3891 105.912 61.447 105.743 59.6568 105.202C58.1833 104.757 56.8507 104.055 55.7759 103.174C55.5968 103.027 55.4253 102.875 55.2604 102.718C53.7672 101.226 52.7842 99.1716 52.9622 97.0275C52.936 97.3464 52.4215 97.9209 52.3003 98.2672C52.1408 98.7194 52.048 99.2044 51.9988 99.6817C51.8514 101.101 52.2391 102.458 52.9469 103.679C54.0217 105.532 55.836 107.038 57.6743 107.874C63.7583 110.639 72.6221 109.411 76.2758 103.301C76.8121 102.405 77.2555 101.411 77.4937 100.391C77.5985 99.9417 77.6488 99.4883 77.6466 99.0372C77.64 97.6096 77.1103 96.2137 75.924 95.1367V95.1378Z" fill="#F4B80F"/>
<path d="M43.8596 17.4091C44.1458 17.4135 44.432 17.4124 44.7171 17.4091C46.504 17.3938 48.7519 17.1361 50.0397 18.639C50.8873 19.6286 50.9212 21.2594 50.0419 22.2905C50.2888 22.1747 50.5291 22.0382 50.7595 21.8831C51.9119 21.1109 52.8261 19.8908 53.1833 18.5877C53.2325 18.3878 53.2619 18.1836 53.2663 17.9739C53.2707 17.7641 53.251 17.55 53.2019 17.3294C52.8283 15.0531 50.2615 14.2 48.2386 13.9892C47.8868 13.9466 47.534 13.9204 47.1791 13.9051C45.0491 13.8177 42.8569 14.1585 40.6287 14.0406C38.6396 13.9728 36.8123 12.8729 35.8281 11.2148C36.052 11.5928 36.0695 12.2547 36.2377 12.684C36.4409 13.2006 36.7008 13.6954 37.0121 14.1542C37.6107 15.0378 38.3972 15.7904 39.3048 16.3518C40.692 17.2082 42.2726 17.384 43.8585 17.407L43.8596 17.4091Z" fill="#F4B80F"/>
<g opacity="0.34">
<path d="M36.0868 66.0214C35.1475 66.336 34.2671 67.0361 33.5429 67.7909C32.7641 68.597 32.0672 69.5189 31.4752 70.5041C30.774 71.6532 30.2617 72.9781 30.1372 74.3194C30.1252 74.4472 30.1154 74.5816 30.1077 74.7181C30.0979 74.8546 30.1077 74.9999 30.1132 75.1397C30.1317 75.4226 30.1569 75.6979 30.2464 75.9425C30.4135 76.4308 30.7106 76.7508 31.224 76.7191C31.5703 76.6787 31.9078 76.5083 32.2016 76.2899C32.3447 76.1795 32.4954 76.0605 32.6287 75.936C32.7641 75.8115 32.8788 75.6804 32.988 75.5526C33.5713 74.8612 34.0202 74.0933 34.5303 73.3637C35.0743 72.586 35.6182 71.8225 36.1458 70.9978C36.6483 70.2092 37.1922 69.378 37.6368 68.514C37.722 68.3545 37.7984 68.1852 37.8607 68.0104C37.8913 67.923 37.9186 67.8335 37.9415 67.7439C37.9655 67.6565 37.9852 67.5681 37.9994 67.4785C38.054 67.1246 38.018 66.7674 37.8192 66.4605C37.6499 66.1994 37.3888 66.0323 37.0819 65.9591C36.7771 65.8881 36.42 65.9023 36.0868 66.0203V66.0214Z" fill="white"/>
</g>
<g opacity="0.34">
<path d="M43.4871 61.9524C43.0065 61.7918 42.4997 61.888 42.0671 62.0343C41.5996 62.1905 41.1627 62.409 40.7542 62.6405C40.2747 62.9136 39.8367 63.2522 39.5298 63.6913C39.2884 64.0267 38.9738 64.5586 39.4413 65.1539C39.7679 65.5427 40.243 65.7251 40.6002 65.7524C40.8416 65.771 41.0677 65.7426 41.2829 65.6902C41.4948 65.6432 41.6947 65.5733 41.8891 65.5089C42.3074 65.3669 42.6799 65.191 43.0174 64.9431C43.3396 64.7082 43.6531 64.4352 43.924 64.0878C44.0256 63.9567 44.1195 63.7929 44.1785 63.5919C44.2386 63.3931 44.2637 63.1572 44.2156 62.8885C44.1741 62.6602 44.0813 62.4549 43.9513 62.2921C43.8224 62.1283 43.6575 62.0092 43.486 61.9535L43.4871 61.9524Z" fill="white"/>
</g>
<g opacity="0.34">
<path d="M46.9833 8.35279C46.3891 8.25886 45.7185 8.31019 45.1013 8.3659C44.4405 8.42597 43.7797 8.4937 43.1309 8.5363C42.3685 8.58764 41.6115 8.62695 40.872 8.70778C40.7311 8.72307 40.5739 8.74274 40.4177 8.76349C40.2615 8.78533 40.1064 8.82029 39.9698 8.85961C39.6978 8.94153 39.4914 9.08462 39.5111 9.3424C39.5384 9.51607 39.664 9.68865 39.842 9.84594C40.0212 10.0032 40.2549 10.1288 40.4876 10.2271C41.1211 10.4816 41.8595 10.5658 42.5716 10.5996C43.3362 10.6368 44.0932 10.5876 44.8326 10.4445C45.5383 10.3091 46.2515 10.1103 46.873 9.83829C47.3372 9.63512 47.7763 9.32492 47.7654 8.95901C47.7567 8.64662 47.4071 8.42161 46.9811 8.35389L46.9833 8.35279Z" fill="white"/>
</g>
<g opacity="0.34">
<path d="M48.4528 25.0216C47.9667 24.9254 47.4184 24.9746 46.9149 25.027C46.3742 25.0849 45.8346 25.1504 45.3038 25.1898C44.6801 25.2389 44.0619 25.275 43.4578 25.3536C43.3431 25.3689 43.2142 25.3875 43.0864 25.4082C42.9597 25.429 42.8319 25.4639 42.7205 25.5022C42.4977 25.5841 42.3295 25.7261 42.3481 25.9828C42.371 26.1564 42.4737 26.3301 42.6211 26.4874C42.7675 26.6458 42.9598 26.7725 43.1498 26.8708C43.6686 27.1275 44.2727 27.2138 44.8548 27.2509C45.4807 27.2913 46.099 27.2443 46.703 27.1045C47.2797 26.9724 47.8619 26.7747 48.3687 26.506C48.7466 26.305 49.1049 25.9959 49.0951 25.63C49.0863 25.3176 48.8001 25.0915 48.4517 25.0226L48.4528 25.0216Z" fill="white"/>
</g>
<path d="M47.8488 79.0891C47.7275 77.3895 48.8558 75.7664 50.4724 75.3054C51.7165 74.9592 52.9595 75.3677 53.8475 76.3169C54.705 77.2999 55.0425 78.6336 54.6853 79.8963C54.3019 81.2911 53.1834 82.3889 51.7766 82.5778C50.2747 82.7712 48.7936 81.9115 48.1819 80.5069C47.9875 80.0754 47.8706 79.597 47.8488 79.0891Z" fill="black"/>
<path d="M49.5705 78.5581C49.5464 78.0185 49.9047 77.563 50.3678 77.3555C51.1728 77.0398 52.0499 77.7269 51.9593 78.58C51.9145 79.0223 51.6469 79.4101 51.246 79.5838C50.8146 79.7902 50.2772 79.7181 49.944 79.3893C49.7223 79.1829 49.5803 78.8891 49.5705 78.5581Z" fill="white"/>
<path d="M54.6255 84.5586C53.9745 83.357 52.4191 83.001 51.1728 83.2041C51.1663 83.2052 51.1597 83.2074 51.1532 83.2096C51.1466 83.2096 51.1401 83.2096 51.1335 83.2118C50.0729 83.4095 48.6966 84.0594 48.4312 85.2238C48.1603 86.4143 49.4055 87.2052 50.4082 87.4182C51.4557 87.6421 52.584 87.4455 53.5245 86.943C54.3874 86.4821 55.1673 85.5602 54.6255 84.5596V84.5586Z" fill="#EC4899"/>
<path d="M76.9848 82.1538C76.9783 82.1538 76.9717 82.1538 76.9652 82.1538C76.9586 82.1527 76.9521 82.1505 76.9455 82.1505C75.7648 82.0566 74.5163 82.4378 73.8107 83.4437C73.5256 83.849 73.3858 84.3558 73.5627 84.8353C73.7342 85.3006 74.1242 85.6447 74.5447 85.8861C75.4578 86.4115 76.6047 86.5786 77.6348 86.3863C78.6102 86.2039 79.9252 85.5114 79.911 84.3602C79.8947 82.9643 78.1372 82.2717 76.9848 82.1538Z" fill="#EC4899"/>
<path d="M74.5485 80.5235C74.8554 79.701 75.4496 78.8545 76.4163 78.8108C77.3917 78.7671 78.189 79.5568 78.4905 80.4241C78.8357 81.4159 80.3616 80.8359 80.0164 79.843C79.4834 78.3116 78.0252 77.1516 76.3759 77.1822C74.8117 77.2117 73.5862 78.4482 73.0674 79.8364C72.9134 80.2493 73.0433 80.7256 73.465 80.92C73.8418 81.0937 74.3934 80.9375 74.5485 80.5224V80.5235Z" fill="black"/>
<path d="M67.5177 81.0711C67.3244 80.5414 66.5904 80.4453 66.2616 80.9095C66.0999 81.1378 66.1141 81.4982 66.0377 81.7615C65.9088 82.206 65.6991 82.6386 65.3954 82.9903C64.7575 83.7308 63.7428 83.9252 62.9039 83.3922C62.4769 83.1213 62.1437 82.7117 61.911 82.2672C61.7417 81.9439 61.7177 81.4523 61.4359 81.2066C60.8712 80.715 60.1601 81.259 60.2617 81.9242C60.2617 81.9264 60.2628 81.9286 60.2639 81.9308C60.2639 81.9384 60.265 81.946 60.2672 81.9537C60.6397 83.4283 61.8248 84.8144 63.3703 85.0929C64.8941 85.3681 66.3086 84.4255 67.0251 83.1268C67.3156 82.6003 67.7405 81.6784 67.5188 81.0711H67.5177Z" fill="black"/>
</svg>
