<svg viewBox="0 0 260 260" fill="none" xmlns="http://www.w3.org/2000/svg">
<rect width="260" height="260" fill="white"/>
<path d="M218.703 54.4663C215.898 50.9689 212.624 47.8517 208.97 45.1973C205.466 42.4527 201.386 40.4897 197.018 39.4471C187.471 37.4518 177.85 42.4582 170.578 48.045C163.306 53.6318 157.432 60.7424 155.102 69.4491C152.771 78.1558 154.039 87.5881 159.857 94.3902C165.674 101.192 176.153 105.274 184.898 101.646C186.967 100.793 185.998 97.6372 183.798 98.3446C180.388 99.3726 176.754 99.4694 173.291 98.6249C169.829 97.7805 166.672 96.0271 164.164 93.5559C158.57 88.1142 156.929 79.861 158.327 72.4784C160.041 64.6267 164.47 57.584 170.876 52.5255C174.037 49.8819 177.504 47.6053 181.206 45.7415C185.052 43.632 189.415 42.5786 193.829 42.6941C198.161 43.1154 202.293 44.6768 205.781 47.2107C209.716 49.859 212.922 53.3054 216.633 56.2802C217.864 57.0602 219.729 55.736 218.703 54.4663Z" fill="black"/>
<path d="M186.474 45.1652C185.515 44.203 184.278 43.5212 182.911 43.2026C181.545 42.884 180.108 42.9422 178.776 43.3702C178.46 43.4654 178.198 43.6739 178.046 43.95C177.895 44.226 177.866 44.5468 177.968 44.842C178.07 45.1371 178.294 45.3825 178.59 45.5238C178.886 45.6652 179.23 45.6911 179.547 45.5959C180.486 45.4834 181.439 45.613 182.304 45.9706C183.169 46.3282 183.913 46.9001 184.454 47.6242C185.087 48.4714 185.477 49.455 185.588 50.4821C185.699 51.5092 185.528 52.5458 185.089 53.4938C184.141 55.6833 182.512 57.5585 180.412 58.8786C179.32 59.5783 178.183 60.2136 177.006 60.7812C175.675 61.2155 174.438 61.8658 173.35 62.7019C173.164 62.9087 173.047 63.1611 173.011 63.4287C172.976 63.6962 173.024 63.9676 173.15 64.2102C173.276 64.4529 173.475 64.6564 173.722 64.7963C173.969 64.9363 174.254 65.0069 174.543 64.9995C175.495 64.8785 176.408 64.5661 177.218 64.084C177.95 63.7609 178.681 63.4198 179.393 63.0608C180.824 62.3682 182.178 61.5445 183.435 60.6017C186.096 58.7304 187.975 56.0516 188.746 53.0271C189.104 51.6441 189.083 50.1994 188.687 48.8256C188.29 47.4519 187.529 46.1932 186.474 45.1652Z" fill="black"/>
<path d="M181.999 56.1075C181.984 55.9921 181.947 55.8809 181.89 55.7801C181.832 55.6171 181.732 55.4726 181.6 55.3618C181.417 55.2038 181.199 55.0914 180.964 55.0342C180.798 54.9886 180.621 54.9886 180.455 55.0342C180.281 55.05 180.113 55.106 179.965 55.1979L179.566 55.489C179.414 55.6016 179.274 55.7295 179.148 55.871L178.966 56.0713L178.658 56.4714L178.349 56.8716C178.22 56.9937 178.132 57.1524 178.095 57.3263C178.019 57.478 177.987 57.6485 178.005 57.8175V58.1266C178.046 58.2894 178.127 58.4396 178.24 58.5634C178.307 58.6546 178.395 58.7292 178.495 58.7817C178.631 58.8935 178.793 58.9687 178.966 59H179.294C179.513 58.9863 179.725 58.9175 179.911 58.7999C180.256 58.5271 180.619 58.254 180.945 57.963L181.146 57.7993C181.209 57.7477 181.264 57.6863 181.309 57.6175C181.488 57.399 181.652 57.168 181.799 56.9262L181.926 56.5804C181.982 56.4293 182.006 56.2684 181.999 56.1075Z" fill="black"/>
<path d="M194.829 69.7201L194.69 69.4627C194.614 69.3283 194.496 69.2186 194.35 69.1483C194.275 69.078 194.177 69.0328 194.071 69.0197C193.97 68.9934 193.863 68.9934 193.761 69.0197C193.66 68.9977 193.554 68.9977 193.452 69.0197C193.295 69.0353 193.145 69.0896 193.019 69.1769L192.895 69.2484C192.776 69.3327 192.667 69.4285 192.57 69.5343L192.4 69.763C192.308 69.8767 192.225 69.9961 192.152 70.1204C192.144 70.1581 192.144 70.1969 192.152 70.2347V70.3633C192.095 70.4571 192.054 70.5584 192.029 70.6636C192.008 70.7579 192.008 70.855 192.029 70.9494C191.99 71.0756 191.99 71.2091 192.029 71.3354L192.152 71.5784C192.227 71.693 192.334 71.7868 192.462 71.8499C192.533 71.9092 192.618 71.953 192.71 71.9785C192.852 72.0072 193 72.0072 193.143 71.9785H193.421L193.715 71.8356H193.808L194.071 71.6355C194.103 71.5986 194.139 71.5652 194.179 71.5355C194.263 71.4799 194.336 71.4124 194.396 71.3354L194.582 71.1209C194.688 71.0192 194.776 70.9036 194.845 70.7779C194.845 70.6492 194.954 70.5062 195 70.3776V70.0774L194.829 69.7201Z" fill="black"/>
<path d="M204 71C203.892 70.9286 203.797 70.8416 203.716 70.7418C203.054 69.4434 202.527 68.0826 202.146 66.6805C201.629 65.4313 200.949 64.2525 200.123 63.1731C199.768 62.7069 199.375 62.2687 198.95 61.8625C197.415 60.3194 195.6 59.0676 193.597 58.1706C193.358 58.0359 193.173 57.8243 193.076 57.5719C192.979 57.3195 192.975 57.0419 193.064 56.7868C193.153 56.5317 193.331 56.3148 193.566 56.1732C193.802 56.0316 194.08 55.9742 194.353 56.0107C195.891 56.3734 197.352 56.9983 198.666 57.8567C199.995 58.7158 201.181 59.768 202.184 60.9765C202.184 61.678 202.335 62.398 202.43 63.1179C202.791 65.7736 203.316 68.4055 204 71Z" fill="black"/>
<path d="M180.425 72.4068C179.501 72.1273 178.533 72.0254 177.571 72.1064H177.366H177.123H176.452C176.011 72.0352 175.574 71.9349 175.146 71.8061C173.578 71.3255 172.146 70.4765 170.968 69.329C170.746 69.1178 170.453 69 170.148 69C169.842 69 169.549 69.1178 169.327 69.329C169.117 69.552 169 69.8474 169 70.1546C169 70.4618 169.117 70.7574 169.327 70.9805C170.693 72.5705 172.468 73.7519 174.457 74.3959C175.423 74.7086 176.426 74.8917 177.44 74.9402C178.004 75.0374 178.583 75.0159 179.138 74.877C179.693 74.7381 180.215 74.4847 180.668 74.1332C180.791 74.0158 180.884 73.8705 180.94 73.7094C180.996 73.5482 181.013 73.376 180.99 73.207C180.966 73.038 180.902 72.8773 180.804 72.738C180.706 72.5988 180.576 72.4852 180.425 72.4068Z" fill="black"/>
<path d="M232.379 123.001C231.189 116.758 230.462 110.437 230.207 104.09C229.982 97.7071 230.076 91.3238 229.533 84.959C228.577 73.7193 225.505 61.045 216.328 53.3557C216.055 53.1117 215.695 52.9843 215.326 53.0015C214.957 53.0188 214.61 53.1792 214.362 53.4475C214.114 53.7158 213.984 54.0702 214.002 54.4324C214.019 54.7946 214.182 55.1352 214.455 55.3791C221.553 62.7373 224.738 72.3213 225.843 82.2181C227.191 94.4694 226.049 106.831 228.203 119.009C229.583 124.953 230.435 131.003 230.75 137.092C230.75 143.033 228.353 148.515 227.66 154.383C227.362 157.177 227.546 160.001 228.203 162.735C228.977 165.296 229.521 167.918 229.832 170.572C229.946 172.824 229.168 175.033 227.66 176.734C226.167 178.332 224.819 180.056 223.632 181.885C223.011 182.992 222.677 184.231 222.657 185.495C222.638 186.759 222.934 188.008 223.521 189.133C224.885 191.118 226.361 193.028 227.94 194.853C231.686 200.372 225.299 205.633 221.629 209.128C220.224 210.453 222.284 212.808 223.857 211.722C228.333 208.374 232.941 203.72 232.66 197.76C232.417 195.155 231.265 192.712 229.401 190.843C227.887 189.568 226.798 187.877 226.273 185.987C226.315 185.06 226.544 184.15 226.945 183.31C227.347 182.47 227.915 181.717 228.614 181.094C230.296 179.377 231.67 177.393 232.678 175.226C234.72 169.707 231.648 164.427 231.086 158.982C230.468 153.096 233.053 147.448 233.802 141.691C234.313 135.426 233.833 129.121 232.379 123.001Z" fill="black"/>
<path d="M205.654 83.0834C203.923 80.1347 202.607 77.0048 201.736 73.7654C200.724 70.6193 199.991 67.4064 199.544 64.1565C199.544 63.5923 199.382 63.0281 199.321 62.4821C199.186 61.1839 199.084 59.8918 199.017 58.6057C199.017 57.2044 199.017 55.8032 199.017 54.4018C198.898 51.0901 199.413 47.7845 200.539 44.6287C201.026 43.5186 202.934 44.0099 202.974 45.0837C203.157 48.2321 202.487 51.4353 202.467 54.602C202.43 56.9658 202.545 59.3295 202.812 61.6815C202.812 62.373 202.975 63.0826 203.076 63.7924C203.467 66.3861 204.029 68.9567 204.76 71.4906C204.902 71.9637 205.045 72.4552 205.207 72.9466C205.674 74.4207 206.202 75.8767 206.811 77.3326C207.42 78.7885 208.232 80.2626 208.841 81.7731C209.034 82.152 209.052 82.5844 208.89 82.9752C208.728 83.366 208.401 83.6832 207.978 83.8569C207.556 84.0307 207.073 84.0468 206.637 83.9018C206.202 83.7567 205.848 83.4623 205.654 83.0834Z" fill="black"/>
<path d="M205.788 80.0362C205.59 79.9916 205.387 79.9881 205.189 80.0262C204.99 80.0644 204.801 80.1433 204.632 80.2583C204.463 80.3733 204.317 80.5221 204.203 80.6963C204.089 80.8705 204.009 81.0666 203.968 81.2732C203.568 85.4794 200.457 88.4865 197.182 90.5611C193.543 92.8831 189.358 94.3677 185.902 97.0322C184.253 98.4714 182.698 100.023 181.245 101.676C179.73 103.329 177.72 104.39 175.549 104.683C170.965 105.292 166.344 103.789 161.814 105.026C159.62 105.576 157.685 106.926 156.355 108.833C155.634 109.74 155.178 110.845 155.042 112.017C154.907 113.188 155.097 114.376 155.591 115.437C155.736 115.666 155.948 115.838 156.196 115.929C156.443 116.02 156.712 116.024 156.961 115.939C157.211 115.855 157.427 115.688 157.577 115.463C157.727 115.239 157.803 114.969 157.793 114.695C157.697 113.783 157.803 112.861 158.103 112C158.403 111.139 158.888 110.361 159.521 109.727C161.069 108.349 163.037 107.593 165.07 107.595C169.546 107.31 174.167 108.661 178.497 107.139C182.827 105.616 184.81 101.6 188.249 99.1067C191.687 96.6135 195.908 95.148 199.51 92.7309C203.113 90.3137 206.516 86.5643 206.989 81.8442C207.035 81.4413 206.938 81.0345 206.717 80.7012C206.495 80.3678 206.165 80.1313 205.788 80.0362Z" fill="black"/>
<path d="M219.485 81.9558C218.79 80.9713 217.833 80.1804 216.71 79.6646C215.588 79.1489 214.342 78.9268 213.099 79.0212C211.874 79.1341 211.577 81.0528 212.941 81.1845C213.768 81.2773 214.565 81.5346 215.28 81.9398C215.995 82.3449 216.613 82.8887 217.093 83.5359C217.567 84.2194 217.866 84.9993 217.965 85.8129C218.065 86.6265 217.963 87.4509 217.666 88.2199C216.966 89.8368 215.724 91.1879 214.132 92.0624C212.541 92.937 210.69 93.2858 208.868 93.0544C208.466 92.9862 208.052 93.067 207.71 93.2804C207.368 93.4937 207.125 93.8234 207.031 94.2019C206.99 94.3933 206.99 94.5904 207.03 94.7819C207.069 94.9735 207.148 95.1559 207.262 95.3183C207.376 95.4808 207.522 95.6203 207.693 95.7289C207.863 95.8375 208.054 95.913 208.255 95.9512C213.633 96.3838 219.149 93.9384 220.671 88.6901C221.018 87.555 221.092 86.36 220.886 85.194C220.681 84.0281 220.202 82.9213 219.485 81.9558Z" fill="black"/>
<path d="M154.418 118.696C152.579 119.57 150.571 120.055 148.525 120.118C146.952 120.384 145.378 120.615 143.804 120.846L142.522 121.024C138.606 121.557 134.654 121.983 130.682 122.338C123.228 122.954 115.767 123.233 108.301 123.173C108.154 126.727 107.99 130.28 107.843 133.94C107.843 135.219 107.752 136.498 107.697 137.777C107.642 139.056 107.697 140.086 107.569 141.33L104 143C104 141.863 104 140.726 104 139.589C104 137.812 104.183 135.876 104.238 134.028C104.384 129.871 104.494 125.732 104.659 121.592C104.644 121.359 104.677 121.125 104.755 120.904C104.834 120.683 104.956 120.479 105.116 120.304C105.276 120.129 105.469 119.986 105.686 119.884C105.903 119.782 106.138 119.723 106.379 119.709C114.319 119.824 122.26 119.539 130.169 118.856C134.067 118.537 137.966 118.11 141.827 117.577C143.84 117.311 145.835 117.009 147.83 116.689C149.765 116.11 151.796 115.893 153.814 116.049C154.118 116.114 154.393 116.269 154.601 116.493C154.742 116.648 154.85 116.828 154.918 117.024C154.986 117.22 155.012 117.427 154.995 117.633C154.978 117.839 154.918 118.039 154.819 118.222C154.72 118.405 154.583 118.566 154.418 118.696Z" fill="black"/>
<path d="M94.5756 133.4C90.4454 138.876 86.5017 144.352 82.8552 150.12C81.8133 151.727 80.8271 153.352 79.841 154.994L70.0364 159.631L67.1713 161C66.5573 160.142 65.9434 159.284 65.3108 158.408C64.0643 156.582 62.8924 154.757 61.7389 153.041C60.3436 150.832 58.9479 148.624 57.72 146.342C57.3496 145.846 57.1128 145.267 57.0315 144.657C56.9502 144.048 57.027 143.428 57.2549 142.855C57.4274 142.516 57.671 142.215 57.969 141.973C58.2669 141.731 58.6131 141.553 58.9855 141.45C59.1328 141.269 59.3222 141.126 59.5378 141.032C59.7534 140.939 59.9892 140.897 60.2246 140.912C60.4599 140.926 60.6883 140.995 60.8904 141.115C61.0926 141.234 61.2621 141.399 61.3855 141.596C64.6785 146.269 67.785 151.033 71.1711 155.633L71.5626 156.163C71.73 155.852 71.8784 155.524 72.0459 155.213C76.4889 146.267 81.6461 137.679 87.469 129.53C87.7374 129.269 88.0806 129.094 88.4529 129.028C88.8251 128.963 89.209 129.011 89.553 129.165L94.036 130.717C95.2639 131.136 95.171 132.633 94.5756 133.4Z" fill="#1D4ED8"/>
<path d="M197.805 162.21C194.3 179.371 190.63 196.514 186.922 213.638C186.86 213.919 186.73 214.18 186.542 214.398C186.354 214.616 186.115 214.784 185.846 214.886C185.577 214.989 185.286 215.023 185.001 214.985C184.715 214.947 184.444 214.839 184.211 214.67C183.926 214.493 183.704 214.229 183.578 213.918C183.452 213.607 183.427 213.263 183.509 212.937C183.509 212.513 183.676 212.09 183.768 211.666C184.1 209.988 184.451 208.311 184.801 206.652C186.572 198.197 188.349 189.743 190.132 181.288C191.884 172.975 193.821 164.698 195.278 156.256C196.588 148.68 197.122 140.791 194.761 133.381C193.862 130.181 192.29 127.21 190.149 124.667C188.008 122.124 185.348 120.067 182.348 118.634C168.089 112.201 152.576 120.072 139.775 126.229L116.535 137.417L113.897 138.689L107.81 141.62L104.213 143.353L102.368 144.238L98.6792 146.081L92.924 148.846L79.1457 155.482L69.4249 160.164L66.5842 161.546L57.583 165.878C54.0046 167.611 50.2045 169.565 46.1465 168.809C45.7722 168.731 45.4443 168.507 45.235 168.187C45.0257 167.867 44.9523 167.478 45.0306 167.104C45.1088 166.73 45.332 166.402 45.652 166.193C45.972 165.984 46.3622 165.91 46.7364 165.989C48.7712 166.114 50.8026 165.694 52.6204 164.772C56.5862 163.076 60.4415 161.085 64.3335 159.242L64.7946 159.021L70.6047 156.219L71.4721 155.795L76.1753 153.528L82.1332 150.652L98.8449 142.579L100.228 141.915L102.553 140.791L104.25 139.98L107.939 138.136C113.288 135.574 118.6 132.993 123.931 130.413L124.17 130.302L126.827 129.012C132.637 126.173 138.466 123.279 144.332 120.57C145.346 120.09 146.361 119.611 147.394 119.169C149.238 118.321 151.083 117.528 153.056 116.791C153.794 116.496 154.551 116.22 155.307 115.961C156.063 115.703 156.653 115.501 157.335 115.298C161.347 113.971 165.526 113.214 169.749 113.049C177.008 112.631 184.168 114.887 189.873 119.39C195.086 124.159 198.46 130.603 199.41 137.602C200.83 145.694 199.446 154.136 197.805 162.21Z" fill="black"/>
<path d="M157.939 113.812C157.913 113.611 157.864 113.414 157.794 113.222C157.787 113.178 157.787 113.133 157.794 113.089C157.609 112.766 157.568 112.69 157.691 112.88C157.691 113.013 157.815 113.07 157.691 112.88C157.591 112.584 157.376 112.333 157.088 112.175C156.799 112.017 156.457 111.964 156.128 112.025C155.837 112.074 155.57 112.207 155.366 112.405C155.172 112.627 155.057 112.899 155.037 113.184C155.037 113.431 154.893 113.698 154.811 113.945C154.764 114.166 154.695 114.382 154.605 114.591C154.437 114.994 154.23 115.382 153.988 115.751L153.782 115.979C153.543 116.189 153.342 116.433 153.185 116.701C153.063 116.959 153 117.237 153 117.519C153.022 117.857 153.166 118.179 153.411 118.431C153.628 118.673 153.919 118.849 154.245 118.937C154.571 119.025 154.919 119.021 155.243 118.926C155.999 118.595 156.619 118.049 157.012 117.367C157.333 116.914 157.583 116.421 157.754 115.903C157.92 115.411 158.003 114.898 158 114.382C157.979 114.23 157.959 113.964 157.939 113.812Z" fill="black"/>
<path d="M168.906 103.856C168.906 103.336 168.906 102.797 168.906 102.257C168.906 101.718 168.906 101.198 168.906 100.659C168.895 100.055 168.818 99.4544 168.675 98.8678C168.584 98.606 168.41 98.3804 168.181 98.2244C167.951 98.0683 167.677 97.9899 167.4 98.001C167.123 98.0249 166.861 98.1342 166.65 98.3137C166.439 98.4932 166.29 98.734 166.222 99.0025C166.083 99.6348 166.018 100.281 166.029 100.928C166.029 101.429 166.029 101.949 166.029 102.469V104.01C165.99 104.542 165.99 105.076 166.029 105.608C166.063 105.964 166.22 106.298 166.474 106.551C166.728 106.804 167.062 106.961 167.419 106.995C167.779 107.025 168.138 106.922 168.427 106.706C168.715 106.489 168.913 106.173 168.983 105.82C169.021 105.164 168.995 104.506 168.906 103.856Z" fill="black"/>
<path d="M213.024 77.3966C211.852 79.4565 210.823 81.6051 209.945 83.825C209.099 86.084 208.364 88.3887 207.744 90.7296C206.548 95.3414 205.809 100.074 205.542 104.85C205.24 109.6 205.414 114.37 206.058 119.081C206.746 124.099 208.225 128.989 208.535 134.062C208.729 136.481 208.46 138.918 207.744 141.223C207.011 143.27 206.166 145.269 205.215 147.212C203.495 151.131 202.119 155.435 203.839 159.647C205.147 162.852 208.552 166.222 207.279 169.995C206.461 171.852 205.444 173.604 204.252 175.215C203.079 177.112 202.343 179.277 202.102 181.533C201.568 186.844 203.255 191.844 204.338 196.936C205.267 201.222 205.818 206.478 203.083 210.177C201.844 211.844 204.131 214.078 205.37 212.412C206.535 210.641 207.357 208.64 207.785 206.526C208.213 204.413 208.24 202.229 207.864 200.104C207.348 195.507 205.714 191.167 205.112 186.606C204.747 184.316 204.841 181.969 205.387 179.72C206.073 177.796 207.036 175.998 208.243 174.391C209.433 172.749 210.197 170.804 210.461 168.75C210.535 166.718 210.038 164.71 209.034 162.981C208.006 161.303 207.108 159.539 206.351 157.706C205.817 155.766 205.901 153.692 206.591 151.809C207.915 147.541 210.531 143.842 211.287 139.355C212.165 134.172 210.994 128.97 209.98 123.916C209.009 119.222 208.491 114.436 208.432 109.63C208.491 98.8732 210.72 88.2554 214.968 78.4954C215.028 78.2342 215.004 77.9593 214.9 77.714C214.797 77.4687 214.62 77.2671 214.397 77.141C214.174 77.015 213.919 76.9718 213.67 77.0181C213.421 77.0643 213.194 77.1975 213.024 77.3966Z" fill="black"/>
<path d="M216.836 172.495C217.204 169.844 216.691 167.138 215.386 164.85C214.144 162.468 212.419 160.271 211.936 157.464C211.574 154.196 212.127 150.887 213.524 147.955C215.732 142.323 219.217 135.03 215.059 129.361C214.92 129.175 214.722 129.051 214.503 129.013C214.284 128.974 214.059 129.024 213.872 129.153C213.685 129.281 213.55 129.48 213.492 129.709C213.434 129.939 213.458 130.183 213.558 130.395C216.405 135.51 213.558 141.64 211.557 146.46C210.263 149.269 209.473 152.313 209.228 155.433C209.244 158.256 210.049 161.008 211.539 163.336C213.011 165.345 214.001 167.71 214.421 170.224C214.347 172.502 213.696 174.716 212.54 176.631C211.313 178.803 210.285 181.097 209.469 183.481C208.775 186.27 208.852 189.214 209.693 191.956C210.744 194.889 211.496 197.935 211.936 201.041C212.115 202.246 211.991 203.48 211.575 204.616C211.16 205.752 210.469 206.749 209.573 207.503C209.321 207.721 209.152 208.031 209.1 208.373C209.049 208.716 209.118 209.066 209.293 209.358C209.469 209.649 209.739 209.861 210.052 209.951C210.365 210.042 210.698 210.005 210.987 209.849C215.214 206.839 214.938 200.616 213.61 196.111C212.73 193.083 211.402 190.017 211.522 186.878C211.814 184.237 212.683 181.707 214.059 179.493C215.33 177.335 216.268 174.972 216.836 172.495Z" fill="black"/>
<path d="M170.18 164.861H170.07L165.424 167.437C152.992 174.205 140.285 180.465 127.264 186.036C117.887 190.052 108.362 193.735 98.69 197.086C97.5147 197.503 96.3575 197.92 95.1822 198.301C92.6112 199.172 90.0399 200.116 87.469 200.823C74.4856 204.96 59.7945 208.843 46.6459 203.11C41.4599 200.793 36.9559 197.211 33.557 192.7C30.1582 188.19 27.9769 182.899 27.2175 177.326C26.5429 171.577 27.4443 165.755 29.8286 160.469C32.2129 155.182 35.9922 150.627 40.7699 147.279C42.4043 146.172 43.9095 148.64 42.4037 149.819C41.3819 150.635 40.4189 151.52 39.5208 152.468C35.7115 156.209 32.9866 160.89 31.6301 166.025C30.2736 171.159 30.3357 176.559 31.8085 181.663C33.4296 186.773 36.4238 191.352 40.4731 194.912C44.5224 198.472 49.4739 200.879 54.7994 201.876C61.3581 202.859 68.0519 202.507 74.468 200.842C81.1088 199.228 87.6611 197.278 94.099 194.999C105.485 191.201 116.699 186.925 127.742 182.171L130.735 180.883L132.057 180.302C144.453 174.858 156.61 168.816 168.436 162.157C168.717 161.983 169.045 161.902 169.375 161.925C169.705 161.948 170.02 162.074 170.273 162.284C170.502 162.419 170.69 162.612 170.818 162.843C170.946 163.075 171.008 163.336 170.999 163.599C170.99 163.863 170.909 164.119 170.765 164.341C170.621 164.563 170.419 164.742 170.18 164.861Z" fill="black"/>
<path d="M174.849 164.337C174.744 164.524 174.589 164.683 174.397 164.799C174.206 164.914 173.986 164.982 173.759 164.995C173.368 165.019 172.978 164.956 172.619 164.811L171.793 164.612L170.984 164.459L170.356 164.352H170.158C170.012 164.361 169.866 164.341 169.729 164.294C169.592 164.246 169.469 164.172 169.365 164.076C169.156 163.903 169.026 163.662 169.001 163.403C168.994 163.268 169.016 163.133 169.068 163.007C169.119 162.88 169.198 162.765 169.299 162.668C169.487 162.483 169.737 162.364 170.009 162.331C170.178 162.254 170.356 162.193 170.538 162.147L171.166 162.04C171.56 161.987 171.961 161.987 172.355 162.04C172.659 162.064 172.957 162.12 173.246 162.209C173.858 162.332 174.402 162.652 174.783 163.112C174.912 163.291 174.987 163.5 174.998 163.716C175.01 163.931 174.959 164.146 174.849 164.337Z" fill="black"/>
<path d="M127.782 182.915C127.67 182.592 127.577 182.269 127.465 181.947C125.041 174.777 122.635 167.606 120.248 160.436C117.861 153.266 115.4 146.58 113.516 139.517L113.068 137.724C113.012 137.561 112.991 137.388 113.004 137.216C113.017 137.045 113.064 136.877 113.145 136.723C113.225 136.569 113.337 136.432 113.473 136.319C113.608 136.206 113.766 136.121 113.936 136.067C114.106 136.012 114.285 135.991 114.464 136.003C114.643 136.016 114.818 136.062 114.978 136.14C115.138 136.217 115.281 136.324 115.399 136.455C115.516 136.585 115.604 136.736 115.661 136.9L116.183 138.209C118.981 145.11 121.125 152.298 123.474 159.361C125.824 166.423 128.174 173.54 130.505 180.656C130.654 181.068 130.785 181.499 130.915 181.911C131.054 182.31 131.021 182.746 130.825 183.123C130.629 183.499 130.287 183.785 129.871 183.919C129.456 184.052 129.003 184.021 128.611 183.833C128.219 183.644 127.921 183.314 127.782 182.915Z" fill="black"/>
<path d="M184.707 214H183.758C181.732 214 179.687 214 177.643 214C176.347 214 175.033 214 173.737 213.89C171.017 213.89 168.261 213.67 165.596 213.576L149.826 212.979L146.632 212.853L119.838 211.832L116.552 211.691C115.621 211.691 114.727 211.691 113.777 211.597L110.127 211.44L103.209 211.188L98.7192 211.016H97.8796C97.5209 211.017 97.1689 210.933 96.8627 210.772C96.5565 210.611 96.3086 210.38 96.1462 210.105C96.0592 209.936 96.0095 209.755 96 209.571C95.9985 209.175 96.1708 208.794 96.4822 208.502C96.7935 208.211 97.2207 208.032 97.6791 208H98.4821L117.027 208.707L150.794 209.979L167.86 210.607C173.025 210.812 178.209 210.953 183.338 211.471L184.925 211.628C186.513 211.801 186.258 213.937 184.707 214Z" fill="black"/>
<path d="M197 156.5C195.585 164.848 193.245 173.253 191.5 181.527C189.755 189.801 189 197.5 186 207.5C185.651 209.151 185.831 211.331 185.5 213C180.338 212.395 172.699 212.239 167.5 212H150.5L116 210L96.9999 209C95.4919 210.055 97.9971 207.798 98.0079 207.725C96.4999 206.5 98.0076 206.68 98.0994 206.166L96.9998 203C97.0917 201.166 98.0079 196.335 98.0079 194.5C107.671 191.125 117.106 188.073 126.5 184C139.525 178.368 152.789 174.739 165.244 167.896L169.856 165.327L170.554 165.455L171 164.5L171.5 163.878C171.5 161.5 170.816 164.218 171.25 164.189C171.503 164.173 171.94 163.815 172.152 163.677C172.365 163.539 173.027 164.102 173.144 163.878C173.27 163.66 173.144 163.928 173.144 163.677C173.144 163.426 174.126 163.013 174 162.795C173.577 162.244 173.824 162.943 173.144 162.795C172.823 162.689 172.49 162.622 172.152 162.594C171.713 162.529 171.268 162.529 170.829 162.594L171.113 163.677C172.095 164.632 170.186 164.212 169.856 164.189C169.526 164.166 168.78 164.824 168.5 165C156.669 171.696 144.302 175.436 131.901 180.94L130.579 181.527C127.5 178.5 123.815 168.265 121.5 161C119.185 153.735 116.756 143.972 114 137L139 124C151.749 117.873 169.299 110.597 183.5 117C186.488 118.426 189.868 121.469 192 124C194.132 126.531 195.605 129.815 196.5 133C198.851 140.339 198.304 148.905 197 156.5Z" fill="black"/>
<path d="M99 196.605V196.833C99 198.736 98.8481 200.638 98.7536 202.541L98.6032 205.433C98.6032 205.965 98.6026 206.517 98.5081 207.05C98.497 207.125 98.497 207.202 98.5081 207.278C98.5098 207.74 98.4529 208.2 98.3383 208.648C98.2502 209.007 98.0538 209.329 97.7762 209.571C97.4987 209.813 97.1532 209.962 96.7878 209.999C96.5477 210.008 96.3093 209.963 96.0892 209.865C95.8528 209.791 95.6389 209.658 95.4672 209.479C95.2954 209.299 95.1712 209.079 95.1063 208.838C94.9646 207.778 94.9646 206.703 95.1063 205.642C95.1063 204.633 95.2005 203.739 95.2383 202.636C95.2383 201.152 95.3519 199.649 95.4653 198.165C95.4653 197.575 95.4654 197.004 95.5788 196.414C95.6694 195.988 95.911 195.61 96.259 195.351C96.607 195.092 97.0376 194.969 97.4689 195.007C97.867 195.057 98.2361 195.243 98.5146 195.534C98.7931 195.825 98.9643 196.202 99 196.605Z" fill="black"/>
<path d="M103.594 211.154C101.272 213.17 98.9683 215.203 96.7939 217.344C96.3148 217.776 95.8726 218.226 95.4119 218.693C94.9512 219.161 94.3623 219.773 93.8463 220.331C93.3304 220.888 92.4083 221.896 91.7265 222.706C91.0447 223.515 89.8844 224.829 89.092 225.944C83.1999 233.644 78.9113 242.398 76.4693 251.709C75.9349 253.832 72.5073 253.148 73.0601 251.025C74.014 247.343 75.2459 243.735 76.7455 240.23C78.876 235.24 81.5582 230.492 84.7435 226.07C85.499 225.009 86.272 223.983 87.0828 222.957L87.1935 222.813C87.8753 221.968 88.5578 221.14 89.2764 220.313C89.9951 219.485 91.1187 218.261 92.0585 217.272C94.9843 214.224 98.2688 211.525 101.843 209.229C103.133 208.366 104.774 210.147 103.594 211.154Z" fill="black"/>
<path d="M183.251 248.339C169.047 248.186 154.843 247.903 140.714 248.034C126.584 248.165 112.454 248.471 98.3243 248.995C94.3665 249.148 90.3898 249.323 86.432 249.52C82.4742 249.716 78.3499 249.782 74.3366 250.306C73.9488 250.376 73.5973 250.614 73.3504 250.974C73.1036 251.334 72.9796 251.79 73.0027 252.253C73.0259 252.715 73.1949 253.151 73.4759 253.474C73.757 253.798 74.1297 253.985 74.5217 254C78.0726 254 81.624 253.781 85.175 253.628L95.8093 253.191C102.911 252.9 110.013 252.667 117.115 252.492C131.22 252.142 145.35 251.967 159.504 251.967C167.494 251.967 175.52 252.077 183.547 252.339C185.637 252.405 185.415 248.383 183.251 248.339Z" fill="black"/>
<path d="M183.939 230.598C183.305 227.342 182.364 224.172 181.133 221.141C180.512 219.609 179.822 218.113 179.067 216.658C178.362 215.053 177.419 213.595 176.279 212.346C175.322 211.438 173.574 212.441 174.095 213.916C174.736 215.417 175.472 216.864 176.296 218.247C176.967 219.538 177.572 220.87 178.11 222.238C179.29 225.199 180.207 228.284 180.848 231.449C181.449 234.519 181.776 237.649 181.822 240.792C181.861 242.345 181.816 243.899 181.688 245.445C181.43 247.096 181.262 248.764 181.184 250.438C181.208 250.801 181.335 251.146 181.547 251.421C181.759 251.696 182.044 251.886 182.36 251.962C182.676 252.039 183.006 251.998 183.3 251.846C183.593 251.694 183.835 251.439 183.989 251.119C184.512 249.407 184.796 247.614 184.829 245.804C184.947 244.14 185.014 242.457 184.997 240.755C184.943 237.338 184.589 233.936 183.939 230.598Z" fill="black"/>
<path d="M180.715 234.735C174.249 236.604 167.171 237.351 160.706 235.09C157.977 234.25 155.492 232.753 153.465 230.727C151.438 228.702 149.93 226.21 149.071 223.465C148.628 221.886 148.459 220.242 148.571 218.606C148.77 216.967 149.131 215.351 149.646 213.784C149.708 213.465 149.665 213.134 149.524 212.842C149.384 212.55 149.153 212.312 148.866 212.164C148.579 212.016 148.252 211.966 147.935 212.023C147.618 212.079 147.327 212.238 147.107 212.475C145.249 215.4 144.585 218.936 145.255 222.344C145.781 225.799 147.257 229.037 149.516 231.688C151.894 234.291 154.777 236.37 157.987 237.798C161.197 239.226 164.664 239.971 168.172 239.987C172.806 240.102 177.428 239.471 181.864 238.118C183.976 237.463 182.883 234.23 180.715 234.735Z" fill="black"/>
<path d="M174.983 238.564C174.959 238.159 174.803 237.778 174.545 237.492C174.288 237.205 173.945 237.032 173.581 237.005C173.22 236.973 172.862 237.089 172.572 237.329C172.282 237.57 172.081 237.92 172.007 238.314C171.764 240.488 171.626 242.661 171.28 244.816C171.107 245.855 170.916 246.894 170.691 247.914C170.553 248.471 170.432 249.01 170.276 249.568C170.05 250.176 169.961 250.837 170.016 251.492C170.044 251.807 170.152 252.107 170.328 252.357C170.503 252.606 170.739 252.795 171.007 252.902C171.275 253.009 171.565 253.029 171.843 252.96C172.121 252.89 172.376 252.735 172.578 252.512C173.256 251.46 173.684 250.236 173.824 248.952C174.083 247.856 174.291 246.74 174.464 245.624C174.884 243.301 175.058 240.932 174.983 238.564Z" fill="black"/>
<path d="M117.081 210.067C114.978 214.604 112.881 219.14 110.79 223.677C108.812 227.977 106.908 232.333 104.818 236.577C104.114 236.661 103.399 236.623 102.708 236.464C103.792 232.221 105.208 228.07 106.945 224.051C107.897 221.864 108.923 219.732 110.062 217.639C111.201 215.545 112.732 213.376 113.702 211.077C113.849 210.764 113.879 210.408 113.789 210.075C113.698 209.741 113.491 209.451 113.206 209.255C112.921 209.06 112.576 208.972 112.233 209.008C111.89 209.044 111.57 209.2 111.332 209.45C109.688 211.361 108.301 213.479 107.207 215.75C105.975 218.013 104.837 220.312 103.81 222.667C101.789 227.351 100.19 232.206 99.0317 237.175C98.9607 237.541 99.0097 237.921 99.1711 238.258C99.3325 238.594 99.5975 238.87 99.9276 239.044C101.194 239.703 102.606 240.031 104.033 239.998C104.71 239.979 105.379 239.847 106.012 239.605C106.389 239.472 106.73 239.249 107.003 238.956C107.276 238.663 107.474 238.309 107.58 237.923C108.887 234.969 110.286 232.052 111.649 229.117C114.399 223.247 117.13 217.377 119.843 211.507C120.683 209.6 117.92 208.254 117.081 210.067Z" fill="black"/>
<path d="M180.734 162.432C180.636 162.291 180.518 162.165 180.383 162.056L180.217 161.948C180.034 161.819 179.842 161.699 179.645 161.59C179.423 161.447 179.201 161.339 178.961 161.214C178.743 161.094 178.514 160.992 178.278 160.909L177.835 160.766C177.652 160.465 177.37 160.233 177.035 160.107C176.7 159.98 176.332 159.966 175.988 160.066L152.792 170.14L141.379 175.105C137.482 176.898 133.437 178.367 129.688 180.339C128.193 181.128 129.375 183.458 130.945 182.92C134.841 181.558 138.609 179.73 142.395 178.098L153.993 173.08L177.004 163.078L177.484 163.418C177.769 163.636 178.065 163.839 178.371 164.028C178.656 164.242 178.983 164.401 179.331 164.494C179.568 164.547 179.814 164.547 180.051 164.494C180.341 164.407 180.59 164.223 180.752 163.974C180.897 163.78 180.981 163.55 180.993 163.311C181.027 162.996 180.934 162.682 180.734 162.432Z" fill="white"/>
<path d="M47.932 145.75C47.932 142.265 47.7539 138.781 47.6244 135.296C47.6244 133.563 47.4784 131.812 47.3974 130.079C47.3974 129.24 47.3977 128.401 47.2843 127.563C47.3616 126.574 47.1815 125.582 46.7663 124.712C46.6281 124.48 46.4405 124.293 46.2214 124.169C46.0023 124.045 45.7591 123.987 45.5152 124.002C45.2713 124.017 45.0343 124.104 44.8279 124.255C44.6216 124.405 44.4528 124.614 44.3368 124.861C44.0076 125.715 43.9167 126.666 44.0774 127.581C44.0774 128.476 44.1747 129.445 44.2071 130.284C44.2881 131.961 44.3527 133.638 44.4175 135.296C44.5633 138.855 44.6607 142.414 44.7417 145.973C44.8227 149.532 44.9031 152.942 44.9355 156.427C44.9355 158.16 44.9355 159.911 44.9355 161.644C44.8808 163.439 44.9737 165.236 45.2115 167.011C45.4706 168.52 47.398 168.166 47.641 166.862C47.8997 165.077 47.9969 163.266 47.932 161.458C47.932 159.781 47.932 158.104 47.932 156.427C48.0454 152.831 47.9968 149.309 47.932 145.75Z" fill="black"/>
<path d="M99.0188 117.003L74.7474 118.732L62.7316 119.617C59.0514 119.899 55.2237 119.919 51.5434 120.562C48.5808 121.085 44.588 122.573 44.0175 126.253C43.9714 126.568 44.0169 126.89 44.1487 127.174C44.2805 127.458 44.4912 127.689 44.7507 127.834C45.0102 127.979 45.3055 128.031 45.5935 127.982C45.8815 127.933 46.1481 127.785 46.3545 127.56C47.0195 126.587 47.9082 125.824 48.9306 125.348C50.0721 124.874 51.266 124.57 52.4815 124.443C56.1618 124.041 59.7319 123.94 63.357 123.679L86.1566 122.05L99.2218 121.105C99.7196 121.076 100.186 120.831 100.519 120.426C100.852 120.021 101.024 119.487 100.997 118.943C100.97 118.399 100.746 117.889 100.376 117.525C100.005 117.161 99.5166 116.974 99.0188 117.003Z" fill="black"/>
<path d="M102.902 129.414C102.752 132.523 102.619 135.614 102.486 138.723C102.486 138.936 102.486 139.129 102.486 139.322L102.287 143.069C101.189 143.725 100.092 144.343 98.9615 145C98.9615 144.421 98.962 143.86 99.0451 143.3C99.1282 142.74 99.0451 141.929 99.0451 141.234C99.0451 140.538 99.0448 139.882 99.1279 139.187C99.2443 136.521 99.3776 133.856 99.494 131.191C99.6878 128.893 99.7487 126.583 99.6767 124.276C99.6291 123.451 99.4607 122.641 99.1782 121.882C98.8624 121.128 98.2137 120.51 98.0474 119.719C97.9629 119.388 97.9922 119.033 98.1286 118.726C98.265 118.42 98.4978 118.188 98.7788 118.077C100.824 117.498 102.22 120.317 102.619 122.268C103.001 124.623 103.096 127.028 102.902 129.414Z" fill="black"/>
<path d="M71.8281 105.47C71.6504 102.073 71.4903 98.6568 71.3126 95.2594C71.1704 92.3946 71.4547 88.8502 68.1311 87.6382C64.5776 86.5218 60.8791 85.9767 57.1652 86.0221C53.3224 85.8894 49.4826 86.3537 45.7732 87.3995C45.5431 87.4471 45.3266 87.5502 45.1423 87.7003C44.9579 87.8504 44.8105 88.0434 44.7118 88.2634C44.6131 88.4835 44.5664 88.7245 44.5747 88.9669C44.5831 89.2092 44.646 89.446 44.7596 89.6582C44.6447 89.7624 44.5516 89.8892 44.4845 90.031C44.4173 90.1729 44.3781 90.3271 44.369 90.4848C44.0847 93.9556 44.1555 97.4631 44.12 100.952C43.96 104.213 43.96 107.48 44.12 110.741C44.1687 112.198 44.7385 113.585 45.7194 114.634C46.8303 115.582 48.2438 116.066 49.6828 115.993C51.3172 115.962 52.9488 115.839 54.5704 115.625L59.9917 115.166L65.1987 114.725C66.7212 114.702 68.225 114.372 69.6247 113.752C72.6461 112.063 71.9881 108.316 71.8281 105.47ZM68.2735 110.428C67.7758 111.108 66.6382 111.108 65.8739 111.163C64.2565 111.328 62.657 111.438 61.0574 111.585L52.1708 112.338C51.0477 112.54 49.8999 112.54 48.7768 112.338C47.8703 112.063 47.7631 111.144 47.692 110.336C47.4609 107.141 47.692 103.872 47.692 100.677C47.692 97.4814 47.7993 93.9739 47.5505 90.6316C47.5588 90.5768 47.5588 90.5211 47.5505 90.4664C52.9075 89.2174 58.447 89.049 63.8657 89.9705C64.5944 90.1174 65.3409 90.2643 66.0518 90.448C66.5167 90.4911 66.9666 90.6417 67.3674 90.8887C68.0073 91.4764 67.7936 93.0924 67.8291 93.8269C67.9713 96.7836 68.1317 99.7588 68.2561 102.715L68.4696 106.957C68.4518 107.967 68.8066 109.602 68.2023 110.41L68.2735 110.428Z" fill="#1D4ED8"/>
<path d="M68.6366 110.859C68.117 111.564 66.9301 111.565 66.1322 111.622C64.4435 111.793 62.7726 111.908 61.1025 112.06L51.824 112.843C50.6514 113.052 49.453 113.052 48.2803 112.843C47.3339 112.557 47.2228 111.603 47.1486 110.763C46.9074 107.444 47.1486 104.048 47.1486 100.729C47.1486 97.4098 47.2598 93.7663 47 90.2944C47.0087 90.2375 47.0087 90.1797 47 90.1228C52.5932 88.8254 58.3769 88.6505 64.0346 89.6077C64.7954 89.7603 65.5748 89.9129 66.317 90.1037C66.8024 90.1485 67.2722 90.3049 67.6907 90.5615C68.3587 91.172 68.1356 92.8506 68.1727 93.6137C68.3212 96.6849 68.4886 99.7755 68.6185 102.847L68.8414 107.253C68.8971 108.321 69.2676 110.019 68.6366 110.859Z" fill="#1D4ED8"/>
<path d="M146.778 81.7261C146.52 78.9592 145.596 76.0127 142.752 74.791C139.909 73.5693 136.159 74.1081 133.076 74.18C127.185 74.3057 121.295 74.3238 115.422 74.5215C113.779 74.5215 109.347 73.9644 108.036 74.8807C105.413 76.6774 106.097 83.8641 106.041 86.649C105.986 89.4338 106.041 91.9313 106.041 94.5724C106.272 99.8535 106.79 105.119 107.592 110.347C107.629 110.798 107.84 111.219 108.183 111.526C108.525 111.832 108.974 112.001 109.439 112L131.47 110.635L136.88 110.293C138.528 110.32 140.171 110.108 141.755 109.664C144.821 108.496 145.449 105.334 145.818 102.478C146.946 95.6181 147.268 88.6564 146.778 81.7261ZM143.436 89.8111C143.436 92.9733 143.177 96.1355 142.807 99.2796C142.641 100.681 142.457 102.1 142.217 103.484C142.032 104.436 141.866 105.765 140.924 106.286C139.729 106.642 138.478 106.788 137.231 106.718L131.838 107.059L111.064 108.371C110.417 103.789 109.975 99.1718 109.771 94.5544C109.661 91.9851 109.605 89.4158 109.605 86.8286C109.771 84.0941 109.771 81.3525 109.605 78.6179C115.625 77.3243 122.698 78.0249 128.866 77.8273C132.134 77.8273 135.421 77.5577 138.689 77.5577C139.762 77.4686 140.839 77.6808 141.792 78.1687C142.611 78.8644 143.114 79.8454 143.195 80.8997C143.534 83.8583 143.615 86.8394 143.436 89.8111Z" fill="#1D4ED8"/>
<path d="M143.905 89.7379C143.905 93.0197 143.637 96.3016 143.256 99.5648C143.085 101.019 142.895 102.492 142.647 103.928C142.456 104.916 142.284 106.296 141.313 106.837C140.08 107.206 138.79 107.357 137.502 107.285L131.939 107.639L110.505 109C109.838 104.245 109.382 99.4529 109.172 94.6607C109.058 91.9942 109 89.3276 109 86.6424C109.171 83.8044 109.171 80.959 109 78.1209C115.211 76.7784 122.508 77.5055 128.872 77.3003C132.244 77.3003 135.635 77.0206 139.008 77.0206C140.114 76.9281 141.226 77.1483 142.209 77.6548C143.053 78.3767 143.573 79.3949 143.656 80.4891C144.006 83.5597 144.089 86.6536 143.905 89.7379Z" fill="#1D4ED8"/>
<path d="M100.332 87.2104C100.214 86.8551 99.9845 86.5486 99.6784 86.3378C99.3724 86.1269 99.0067 86.0232 98.6369 86.0427C91.2821 85.8452 83.9249 86.3336 76.6586 87.5022C76.2059 87.5389 75.7829 87.7474 75.4754 88.0857C75.1679 88.4239 74.9986 88.867 75 89.3267C75.0265 89.598 75.1121 89.8599 75.2518 90.0931C75.243 90.1474 75.243 90.2028 75.2518 90.2572C75.2728 94.0484 75.4836 97.8363 75.883 101.606C76.0273 103.43 76.1539 105.383 76.3162 107.262C76.2372 108.084 76.3978 108.911 76.7792 109.641C77.1607 110.37 77.746 110.971 78.4616 111.367C80.1184 111.88 81.853 112.084 83.5818 111.969C85.3848 111.969 87.1875 111.969 89.1167 111.969C92.8742 111.887 96.6219 111.539 100.332 110.929C100.775 110.892 101.186 110.68 101.476 110.338C101.766 109.997 101.912 109.554 101.882 109.105C102.257 101.77 101.737 94.4161 100.332 87.2104ZM98.6546 107.864C95.878 108.211 93.084 108.484 90.2893 108.594C86.991 108.813 83.68 108.758 80.3905 108.43C79.7955 108.338 79.8133 108.429 79.7232 107.809C79.633 107.189 79.6153 106.277 79.5612 105.492C79.435 103.814 79.3084 102.135 79.2002 100.438C78.9658 97.2453 78.8397 93.9976 78.3709 90.8229C84.6342 89.7354 90.9847 89.2466 97.3384 89.3632C98.4153 95.4665 98.8564 101.667 98.6546 107.864Z" fill="#1D4ED8"/>
<path d="M105.971 34.3597V39.7742C105.871 47.2221 105.789 54.664 105.727 62.0999C105.872 65.5028 105.752 68.9114 105.37 72.2973C105.2 73.7816 104.611 75.1933 103.666 76.3797C102.722 77.5662 101.457 78.4823 100.01 79.0293C96.8129 80.1663 92.977 79.8414 89.6108 79.9497L77.951 80.2745L54.6132 80.9423C51.3222 80.9423 47.4488 81.5018 44.8349 79.1374C42.9307 76.9916 41.9546 74.2276 42.1077 71.4129C41.8444 63.9951 42.1076 56.5231 42.4273 49.1052C42.6153 45.279 42.9166 41.2181 43.3115 37.3016C43.5184 35.2802 43.7443 33.2588 44.0075 31.2374C44.007 29.4141 44.2271 27.5971 44.665 25.8229C44.7212 25.6428 44.8182 25.4765 44.9478 25.3356C45.0723 25.202 45.2261 25.097 45.3987 25.0287C45.4913 24.7536 45.6646 24.5102 45.8982 24.3276C46.1318 24.1451 46.416 24.0313 46.7154 24H47.0533H53.0154H66.6117C68.041 24.9205 71.5144 27.0141 73 27.8804L66.6117 27.7359H47.8999C47.8059 29.2881 47.7308 30.8584 47.5804 32.4286C46.8846 39.3231 46.414 46.2536 46.1507 53.1661C46.0379 56.6133 45.9629 60.0605 45.9441 63.5078C45.8248 66.7155 45.8936 69.9271 46.1507 73.1274C46.2167 74.2124 46.5876 75.2601 47.2232 76.1596C47.5999 76.5469 48.0577 76.8532 48.5666 77.0585C49.0754 77.2638 49.6235 77.3633 50.1753 77.3507C51.8479 77.4319 53.5236 77.4319 55.1962 77.3507L60.7066 77.1883L82.5771 76.5928L93.3903 76.2859C95.8538 76.2859 99.3332 76.5024 100.819 74.1922C102.304 71.882 101.928 68.9582 101.947 66.5036C101.947 62.894 101.947 59.4829 102.041 55.9635C102.116 48.9968 102.179 42.0303 102.229 35.0636C102.229 32.9159 102.906 29.2882 100.349 28.2955C99.1317 27.9386 97.8571 27.798 96.5876 27.8804H76C76.1301 27.6351 77.4429 27.2697 77.5 27C75.2515 25.8563 79.3423 26.1734 79.2485 25.7145C79.37 25.4978 79.5486 25.3156 79.7664 25.1857C79.9842 25.0559 80.2337 24.9832 80.49 24.9747C81.4302 24.9747 82.2766 25.1189 82.9536 24.3247L83.0472 24.1985H88.0682C89.9487 24.1985 91.8294 24.1985 93.8604 24.1985C95.8914 24.1985 97.3582 24.1985 99.0695 24.4151C100.624 24.468 102.117 25.0111 103.317 25.9606C104.517 26.9101 105.358 28.2129 105.708 29.6672C105.964 31.2185 106.052 32.791 105.971 34.3597Z" fill="#1D4ED8"/>
<path d="M78.8756 25.6328C78.8196 25.8978 78.7267 26.1542 78.5991 26.3952C78.424 26.776 78.1802 27.1243 77.8795 27.4239C77.0351 28.1842 75.9823 28.6966 74.845 28.9008C73.7077 29.105 72.5332 28.9924 71.4602 28.5763C69.7535 28.0001 68.1097 27.2635 66.5532 26.3774L64.7086 25.3312C63.2513 24.5155 61.8313 23.558 60.4294 22.7068L58.1047 21.1818C57.7988 20.8559 57.63 20.4325 57.63 19.9936C57.63 19.5546 57.7988 19.1312 58.1047 18.8054C58.4277 18.506 58.8535 18.3301 59.3017 18.3105C59.7499 18.2909 60.1903 18.4291 60.5402 18.6991C62.4245 20.1184 64.4087 21.41 66.4793 22.5648L66.7378 22.7245C68.5573 23.8502 70.4847 24.8062 72.4933 25.5795C73.4525 25.8987 75.8499 26.2002 75.979 24.6751C75.9083 23.9454 75.5762 23.262 75.0387 22.7423L74.7063 22.3697C74.0976 21.6604 73.4335 20.9867 72.8617 20.3306C70.1655 17.5838 67.0567 15.2406 63.6386 13.3791C61.9779 12.398 60.0526 11.9105 58.1047 11.9781C56.4286 12.1676 54.8816 12.9365 53.7516 14.1415C51.4643 16.4468 50.6708 19.6389 49.8039 22.6713H47.3324H47C47.498 17.9188 49.2142 12.8294 53.6967 10.2581C54.9709 9.55533 56.3922 9.13483 57.857 9.02745C59.3218 8.92008 60.7929 9.12858 62.1632 9.63746C63.7993 10.1607 65.3514 10.9008 66.7748 11.8364L67.0333 11.9781C71.1545 14.4708 74.788 17.64 77.7687 21.3413C78.0992 21.7737 78.3718 22.2444 78.5802 22.7423C78.789 23.2226 78.9196 23.731 78.9675 24.2496C79.0317 24.712 79.0007 25.182 78.8756 25.6328Z" fill="black"/>
<path d="M86.9732 22.2877C86.9508 22.4388 86.9183 22.5884 86.8771 22.7357C86.8138 22.9987 86.7249 23.2551 86.6103 23.5011C86.0506 24.8142 85.0264 25.8872 83.725 26.5249C83.1731 26.8362 82.5468 27 81.9096 27C81.2724 27 80.647 26.8362 80.0952 26.5249L79.598 26.2077C79.4331 26.0778 79.3027 25.9115 79.2164 25.7224C79.1035 25.4989 79.0448 25.253 79.0448 25.0038C79.0448 24.7545 79.1035 24.5086 79.2164 24.2851C79.3398 24.061 79.5213 23.8723 79.7426 23.738C79.9638 23.6037 80.2164 23.5285 80.4767 23.5197C81.432 23.5197 82.2918 23.6691 82.9796 22.8478L83.0757 22.717C83.3105 22.3383 83.4488 21.9102 83.4787 21.4684C83.5086 21.0266 83.429 20.5841 83.2473 20.1785C82.4258 17.7892 79.7508 16.4454 77.6875 15.1014C75.3027 13.5565 72.6865 12.3852 69.9316 11.6296C68.8392 11.3565 67.7159 11.2186 66.5882 11.219C64.9704 11.2006 63.357 11.3951 61.7924 11.7975C60.3786 12.1522 59.2321 10.2109 60.6459 9.44559C61.021 9.23892 61.4111 9.0582 61.812 8.90444C64.7622 7.8034 68.0056 7.70473 71.0203 8.6244C72.3566 8.98933 73.6649 9.44459 74.9364 9.98698C77.3237 11.0336 79.6124 12.2828 81.7762 13.7202C84.1999 15.1219 85.9891 17.37 86.782 20.0105C86.9775 20.7535 87.0423 21.5236 86.9732 22.2877Z" fill="black"/>
<path d="M93.8182 23.7656C93.7432 23.8323 93.6599 23.889 93.5698 23.9342C92.2482 24.7177 90.7133 25.0841 89.1722 24.9838C88.1912 24.9621 87.216 24.8301 86.2657 24.5902C85.697 24.4274 85.1644 24.1601 84.6972 23.8029C84.5306 23.6738 84.3774 23.5295 84.2388 23.3718C84.1197 23.1907 84.0445 22.9852 84.0194 22.7712C83.9942 22.5571 84.0192 22.3405 84.0931 22.1376C84.167 21.9347 84.2873 21.751 84.4451 21.601C84.6029 21.451 84.7943 21.3386 85.0034 21.2725C85.4966 21.1157 86.0193 21.0709 86.5328 21.1413C87.7365 21.4632 88.9762 21.6395 90.2235 21.6662C90.7995 21.6656 91.3595 21.4827 91.821 21.145C92.2826 20.8073 92.621 20.3329 92.7855 19.7918C92.7945 19.7548 92.7945 19.7162 92.7855 19.6792C92.8101 18.5487 92.4393 17.4439 91.7342 16.5489L91.2562 15.8929C90.4792 14.8098 89.5448 13.8436 88.4832 13.025C86.2682 11.2958 83.5653 10.2753 80.7394 10.101C78.668 9.99332 76.5962 10.3126 74.6584 11.0382C73.7024 11.3756 72.7468 11.7692 71.8098 12.2003C71.4889 12.3006 71.1415 12.2836 70.8323 12.1527C70.523 12.0218 70.272 11.7858 70.1264 11.488C69.9879 11.1894 69.9626 10.8524 70.0536 10.5366C70.1446 10.2209 70.3465 9.94687 70.6241 9.76349H70.7389C73.6433 7.73417 77.1837 6.77204 80.7394 7.04567C82.148 7.12001 83.5417 7.36559 84.8886 7.77673C86.2244 8.18727 87.5076 8.74705 88.7129 9.44499C91.0518 10.7916 93.0208 12.6765 94.4493 14.9369C94.6596 15.2743 94.851 15.6118 95.0422 15.9492C95.424 16.7029 95.7009 17.5036 95.8647 18.3297C96.0981 19.3327 96.0282 20.3806 95.6649 21.3457C95.3017 22.3108 94.6601 23.1516 93.8182 23.7656Z" fill="black"/>
<path d="M110.637 13.6287C109.278 16.7285 105.542 17.7737 102.314 17.6115C100.087 17.6115 97.1616 16.8906 94.8591 17.6115C94.2648 17.7888 93.7135 18.0769 93.2362 18.4587C92.8333 18.8196 92.2974 19.0138 91.7452 18.9992C91.7695 17.9122 91.4026 16.8502 90.7066 15.9897C91.4704 15.2355 92.4166 14.6723 93.462 14.3496C95.9849 13.7935 98.6026 13.7504 101.144 14.2233C102.874 14.5822 104.681 14.3594 106.259 13.5926C107.41 12.8897 108.146 11.6823 107.353 10.4748C106.748 9.85878 106.021 9.36327 105.215 9.01684C104.408 8.6704 103.538 8.4799 102.654 8.45628C100.752 8.14752 98.8266 7.99077 96.8976 7.98769C93.8205 8.02872 90.7567 8.39128 87.7623 9.06898C86.7242 9.28524 85.6869 9.55564 84.6677 9.80795C84.3474 9.90832 83.9982 9.8831 83.6973 9.73777C83.3965 9.59244 83.1684 9.3388 83.0633 9.0329C82.9582 8.72699 82.9848 8.39377 83.137 8.10649C83.2892 7.8192 83.5548 7.60143 83.8752 7.50105C87.76 5.95694 91.9161 5.13135 96.1235 5.0681C99.7763 4.81787 103.445 5.25878 106.919 6.36564C107.674 6.59422 108.371 6.96654 108.971 7.46013C109.57 7.95372 110.058 8.5583 110.406 9.23727C110.753 9.91625 110.953 10.6556 110.993 11.4104C111.032 12.1652 110.911 12.9198 110.637 13.6287Z" fill="black"/>
<path d="M81.6747 25.0118C81.4825 24.8495 81.2398 24.7462 80.9807 24.716C80.809 24.7012 80.6365 24.7012 80.4648 24.716H80.0938C79.9021 24.6921 79.7129 24.6526 79.529 24.5977L79.1257 24.4644L79.4321 24.5681L78.9476 24.3758L78.7224 24.2721L78.4805 24.1835C78.3178 24.0647 78.1151 24 77.9071 24C77.699 24 77.4972 24.0647 77.3344 24.1835C77.165 24.3042 77.0505 24.478 77.0122 24.6716C76.9775 24.87 77.0171 25.0735 77.1249 25.2485C77.1934 25.4305 77.2854 25.6043 77.399 25.7662C77.5362 25.9343 77.6877 26.0927 77.8511 26.2397C78.0331 26.3846 78.2337 26.5088 78.4482 26.6095C78.6673 26.7038 78.8937 26.783 79.1257 26.8462C79.4936 26.9399 79.8727 26.9896 80.2544 26.9941C80.5716 27.0192 80.8906 26.9634 81.1753 26.8329C81.46 26.7024 81.6993 26.5022 81.8677 26.2545C81.9806 26.0547 82.0229 25.8276 81.9882 25.6048C81.9535 25.382 81.8441 25.1746 81.6747 25.0118Z" fill="black"/>
<path d="M46.7722 143.679C46.6282 143.459 46.4321 143.282 46.2026 143.163C45.9731 143.045 45.7183 142.989 45.462 143.002C44.9201 143.065 44.4068 143.286 43.9826 143.64L43.0646 144.279C42.4672 144.691 41.8922 145.137 41.342 145.614C40.0293 146.591 38.9321 147.844 38.1217 149.29C38.0097 149.521 37.9736 149.783 38.0193 150.036C38.0649 150.289 38.1893 150.52 38.374 150.694C38.5587 150.867 38.793 150.973 39.0415 150.995C39.29 151.018 39.5389 150.956 39.7501 150.819L40.2 150.509C40.3123 150.509 40.4241 150.316 40.5364 150.219H40.6306C40.9489 149.948 41.2481 149.697 41.5477 149.406C41.779 149.148 42.0302 148.909 42.2974 148.69L42.5032 148.516L42.9338 148.149C43.4956 147.723 44.0577 147.297 44.6382 146.91L45.5369 146.349C46.0487 146.123 46.4848 145.746 46.7914 145.265C46.9312 145.025 47.0032 144.75 46.9999 144.469C46.9966 144.189 46.9176 143.916 46.7722 143.679Z" fill="black"/>
<path d="M138.986 38.6461C138.936 38.1916 138.718 37.7719 138.376 37.4679C138.034 37.1639 137.591 36.9973 137.133 37L111.66 38.1654C111.333 38.1612 111.013 38.2586 110.744 38.4443C110.476 38.6299 110.271 38.8943 110.159 39.2011C109.921 39.2809 109.713 39.4321 109.564 39.634C109.415 39.8359 109.332 40.0786 109.326 40.3295C109.067 43.1041 109.141 45.8788 109.122 48.6904V57.0698C108.89 59.5383 108.989 62.0268 109.418 64.4688C109.738 65.5546 110.424 66.4969 111.359 67.1371C112.293 67.7773 113.42 68.0763 114.55 67.9834C117.218 67.9834 119.923 67.7243 122.572 67.5763C125.221 67.4283 128.13 67.2989 130.854 67.1324C131.974 67.1822 133.085 66.9219 134.066 66.38C135.047 65.8381 135.859 65.0358 136.411 64.0619C137.284 61.8404 137.785 59.4907 137.893 57.1068C138.713 50.9887 139.078 44.8181 138.986 38.6461ZM134.911 53.0928C134.67 55.4975 134.373 57.9022 133.947 60.2884C133.688 61.8052 133.373 63.285 131.65 63.5069C129.278 63.8214 126.815 63.8028 124.444 63.9138L117.403 64.3024C116.051 64.3024 113.179 65.1348 112.735 63.3405C112.608 62.5829 112.565 61.8138 112.605 61.0468C112.605 59.8075 112.605 58.5497 112.605 57.3473V48.9679C112.605 46.5817 112.605 44.177 112.494 41.7908L135.522 40.644C135.539 44.8015 135.335 48.9569 134.911 53.0928Z" fill="black"/>
<path d="M130.695 45.4858C129.749 44.2859 128.136 45.5951 127.348 46.3405C125.811 47.828 124.473 49.5214 123.369 51.3763C122.596 52.6394 121.922 53.9649 121.354 55.3397C121.003 54.9398 120.687 54.5035 120.372 54.0672C120.056 53.6309 119.618 52.9036 119.25 52.2491C118.882 51.5946 118.391 50.6311 117.497 50.4311C117.242 50.3812 116.979 50.418 116.745 50.5358C116.511 50.6537 116.32 50.8465 116.201 51.0856C115.728 51.9037 116.201 52.9035 116.499 53.7398C116.831 54.5053 117.224 55.2409 117.673 55.9396C118.576 57.2819 119.636 58.5032 120.828 59.5757C121.025 59.7465 121.255 59.8704 121.502 59.9388C121.75 60.0072 122.009 60.0184 122.262 59.9716C122.514 59.9248 122.753 59.8212 122.962 59.668C123.172 59.5148 123.347 59.3158 123.474 59.085C124.856 55.231 126.965 51.7016 129.679 48.7038C130.345 47.9584 131.572 46.5948 130.695 45.4858Z" fill="#1D4ED8"/>
<path d="M95.6955 92.4858C94.749 91.2859 93.1363 92.5951 92.3476 93.3405C90.8112 94.828 89.4731 96.5214 88.3689 98.3763C87.5961 99.6394 86.9222 100.965 86.3535 102.34C86.003 101.94 85.6874 101.504 85.3719 101.067C85.0564 100.631 84.618 99.9036 84.25 99.2491C83.8819 98.5946 83.3911 97.6311 82.4973 97.4311C82.242 97.3812 81.9786 97.418 81.745 97.5358C81.5114 97.6537 81.3205 97.8465 81.2007 98.0856C80.7275 98.9037 81.2006 99.9035 81.4985 100.74C81.8312 101.505 82.2238 102.241 82.6727 102.94C83.5758 104.282 84.636 105.503 85.8281 106.576C86.0246 106.746 86.2547 106.87 86.5024 106.939C86.7502 107.007 87.0092 107.018 87.2615 106.972C87.5139 106.925 87.7529 106.821 87.9624 106.668C88.172 106.515 88.3469 106.316 88.4742 106.085C89.856 102.231 91.9654 98.7016 94.6788 95.7038C95.3448 94.9584 96.5718 93.5948 95.6955 92.4858Z" fill="#1D4ED8"/>
<path d="M39.7005 214.424C39.5384 213.296 39.3591 212.167 39.1789 211.058C38.8367 208.819 38.4758 206.562 38.1155 204.324C37.395 199.866 36.7824 195.333 35.7196 190.951C35.6035 190.628 35.3824 190.359 35.0951 190.189C34.8079 190.02 34.473 189.962 34.1487 190.025C33.8244 190.087 33.532 190.267 33.322 190.533C33.1119 190.798 32.9978 191.133 33 191.477C33.3243 195.991 34.1169 200.487 34.8014 204.945L35.8278 211.678C36.0079 212.807 36.1881 213.917 36.3503 215.045C36.4012 216.187 36.6905 217.304 37.1973 218.318C37.3641 218.57 37.5975 218.766 37.8693 218.883C38.141 218.999 38.4394 219.029 38.7277 218.972C39.016 218.914 39.2817 218.77 39.4929 218.557C39.7042 218.344 39.8514 218.071 39.9169 217.773C40.0781 216.653 40.0041 215.511 39.7005 214.424Z" fill="black"/>
<path d="M84.5066 36.8037C79.4622 32.7122 71 33.5 71 33.5C71 33.5 71.4152 51.8175 72.4683 51.9954C73.5214 52.1733 91.0002 47.1882 91.0002 47.1882C91.0002 47.1882 89.551 40.8841 84.5066 36.8037Z" fill="#1D4ED8"/>
<path d="M85.4254 47.9719L83.9627 47.4015C83.657 47.2808 83.3509 47.1491 83.0453 47.0613L82.6742 46.9516C82.4927 46.9349 82.31 46.9349 82.1284 46.9516C81.9705 46.9618 81.8197 47.0196 81.695 47.1174C81.5703 47.2153 81.4775 47.3487 81.4295 47.5001C81.3741 47.6472 81.3643 47.8076 81.4013 47.9603C81.4383 48.113 81.5204 48.2509 81.6369 48.3559L81.8992 48.5642L77.2812 49.8368L74.1809 50.6925L72.6302 51.1094L72.2923 51.1862C72.2874 51.1058 72.2874 51.0252 72.2923 50.9448C72.194 48.8166 72.1827 46.6774 72.1062 44.5492L72.0082 41.3568C72.0082 40.9728 72.0082 40.567 72.0082 40.1611C72.1425 40.3126 72.3258 40.4111 72.5258 40.4392C72.7257 40.4673 72.9293 40.4232 73.0999 40.3145C73.2837 40.1913 73.4128 40.0012 73.4597 39.7842C73.5065 39.5673 73.4674 39.3404 73.3509 39.1518C73.1326 38.8446 72.9144 38.5484 72.707 38.2413C72.4996 37.9341 72.2374 37.6598 72.0082 37.3526C71.9331 37.2372 71.8287 37.1439 71.7059 37.0822C71.5832 37.0206 71.4463 36.9927 71.3093 37.0016C71.1749 37.008 71.045 37.0499 70.9319 37.1231C70.8188 37.1963 70.7267 37.2982 70.6654 37.4185C70.5453 37.6489 70.4254 37.8683 70.2944 38.0877L70.2069 38.2193L69.9884 38.5045C69.8465 38.691 69.7049 38.8884 69.5411 39.0749L69.4425 39.1957L69.3119 39.3931C69.3119 39.3163 69.3119 39.3163 69.3119 39.3931C69.3119 39.4699 69.1477 39.6454 69.0603 39.777C69.0113 39.8692 68.9916 39.9742 69.0033 40.078C69.015 40.1819 69.0576 40.2796 69.1259 40.3585C69.1921 40.4413 69.2823 40.5016 69.3839 40.5311C69.4855 40.5605 69.5936 40.5578 69.6936 40.523L70.0539 40.3585C70.0539 40.896 70.1305 41.4555 70.1414 41.9163C70.1414 43.145 70.207 44.3736 70.2506 45.6023L70.3487 49.047C70.3487 50.0343 70.1742 51.4824 70.7747 52.3381C71.3751 53.1938 72.6632 53.073 73.6676 52.7878L76.9971 51.8553L82.3688 50.3744C82.3572 50.5001 82.3702 50.6269 82.4077 50.7475C82.4452 50.868 82.506 50.9798 82.5868 51.0765C82.6948 51.2049 82.834 51.3032 82.9909 51.3617C83.1894 51.4278 83.4038 51.4278 83.6023 51.3617C83.7006 51.3617 83.8207 51.263 83.9189 51.1971C84.0148 51.1264 84.1059 51.0494 84.1919 50.9668L84.3992 50.7693L84.8689 50.3304L85.7857 49.4639C85.8788 49.3485 85.9441 49.213 85.9766 49.068C86.0091 48.9231 86.0077 48.7726 85.9728 48.6282C85.938 48.4839 85.8706 48.3496 85.7756 48.2357C85.6806 48.1219 85.5608 48.0316 85.4254 47.9719Z" fill="black"/>
<path d="M91 52C91 61.9411 82.9411 70 73 70C63.0589 70 55 61.9411 55 52C55 42.0589 63.0589 34 73 34C82.9411 34 91 42.0589 91 52Z" stroke="black" stroke-width="4"/>
<path d="M59.5541 105.353L59.6403 104.572C59.6591 104.409 59.6831 104.244 59.6859 104.085L59.6908 103.892C59.6755 103.802 59.6518 103.714 59.6202 103.628C59.5949 103.553 59.5475 103.488 59.4841 103.441C59.4207 103.393 59.3442 103.365 59.2649 103.362C59.1867 103.354 59.1079 103.37 59.039 103.408C58.97 103.445 58.914 103.503 58.8784 103.573L58.8117 103.726L57.5995 101.661L56.785 100.274L56.383 99.5792L56.3022 99.4259C56.3404 99.4131 56.3793 99.4027 56.4188 99.3946C57.4339 99.0718 58.4656 98.7895 59.4835 98.4771L61.0127 98.0166C61.1981 97.967 61.3941 97.9144 61.5901 97.8619C61.5343 97.9464 61.5105 98.0477 61.5228 98.1479C61.5351 98.2481 61.5828 98.3407 61.6573 98.409C61.7406 98.4819 61.8491 98.5196 61.96 98.5142C62.0708 98.5087 62.1753 98.4605 62.2514 98.3798C62.3715 98.2346 62.4863 98.0909 62.6078 97.951C62.7293 97.811 62.8278 97.6489 62.9465 97.4985C62.9926 97.4473 63.0241 97.3848 63.038 97.3175C63.0519 97.2502 63.0476 97.1805 63.0256 97.1155C63.0051 97.0514 62.9681 96.9941 62.9181 96.949C62.8681 96.9038 62.807 96.8725 62.7409 96.8585C62.6141 96.8303 62.4927 96.8008 62.3697 96.7659L62.2948 96.7407L62.1288 96.6721C62.0204 96.6276 61.9067 96.5848 61.7955 96.5299L61.7244 96.4979L61.6121 96.4603C61.6492 96.4504 61.6492 96.4504 61.6121 96.4603C61.5751 96.4703 61.469 96.4136 61.3942 96.3885C61.3433 96.3768 61.29 96.3808 61.2414 96.3999C61.1927 96.419 61.1511 96.4522 61.1218 96.4954C61.0904 96.5381 61.0729 96.5895 61.0718 96.6424C61.0708 96.6952 61.0861 96.7471 61.1158 96.7909L61.2419 96.9436C60.9823 97.0132 60.722 97.1226 60.5009 97.1875C59.9074 97.3465 59.3225 97.5371 58.7348 97.7172L57.0838 98.2104C56.607 98.3382 55.885 98.4413 55.5495 98.842C55.2139 99.2427 55.4389 99.8492 55.7067 100.297L56.5879 101.785L57.9983 104.187C57.936 104.198 57.8765 104.221 57.8231 104.254C57.7698 104.288 57.7236 104.332 57.6874 104.384C57.6393 104.452 57.6099 104.532 57.6019 104.616C57.5957 104.72 57.6234 104.824 57.681 104.911C57.6938 104.958 57.757 105.004 57.8015 105.043C57.8481 105.08 57.897 105.114 57.9481 105.145L58.0703 105.219L58.343 105.389L58.8802 105.72C58.948 105.75 59.0219 105.764 59.0961 105.761C59.1703 105.758 59.2428 105.738 59.308 105.702C59.3732 105.667 59.4293 105.617 59.472 105.556C59.5147 105.495 59.5428 105.426 59.5541 105.353Z" fill="black"/>
<path d="M66 100C66 104.971 61.9706 109 57 109C52.0294 109 48 104.971 48 100C48 95.0294 52.0294 91 57 91C61.9706 91 66 95.0294 66 100Z" stroke="black" stroke-width="2"/>
<path d="M137 92.5C137 98.8513 131.851 104 125.5 104C119.149 104 114 98.8513 114 92.5C114 86.1487 119.149 81 125.5 81C131.851 81 137 86.1487 137 92.5Z" fill="white" stroke="white" stroke-width="2"/>
<path d="M114.954 87.9223L115.723 89.0728C115.882 89.3143 116.037 89.5639 116.214 89.7816L116.426 90.0482C116.549 90.1519 116.681 90.2442 116.821 90.3237C116.94 90.3961 117.078 90.4305 117.217 90.4227C117.357 90.4149 117.491 90.3654 117.602 90.2802C117.717 90.202 117.805 90.0911 117.855 89.9621C117.905 89.8331 117.916 89.692 117.884 89.5574L117.8 89.2745L121.779 90.6863L124.45 91.6332L125.781 92.1148L126.064 92.23C126.027 92.2905 125.986 92.3487 125.942 92.4043C124.938 93.9914 123.867 95.5424 122.848 97.1184L121.307 99.4741C121.113 99.7514 120.908 100.045 120.703 100.338C120.683 100.161 120.6 99.9969 120.47 99.8756C120.34 99.7544 120.17 99.6835 119.992 99.6759C119.797 99.6721 119.608 99.7442 119.465 99.8773C119.321 100.01 119.235 100.194 119.224 100.389C119.227 100.721 119.235 101.045 119.229 101.372C119.224 101.699 119.275 102.029 119.286 102.367C119.282 102.488 119.31 102.608 119.368 102.715C119.425 102.821 119.51 102.91 119.613 102.973C119.714 103.036 119.829 103.072 119.947 103.076C120.066 103.08 120.184 103.053 120.289 102.997C120.492 102.891 120.689 102.793 120.895 102.701L121.024 102.65L121.326 102.554C121.523 102.491 121.725 102.42 121.937 102.368L122.069 102.33L122.263 102.254C122.225 102.309 122.225 102.309 122.263 102.254C122.302 102.198 122.509 102.154 122.639 102.103C122.721 102.062 122.788 101.996 122.832 101.915C122.876 101.834 122.895 101.742 122.885 101.65C122.879 101.557 122.844 101.468 122.786 101.395C122.727 101.323 122.648 101.27 122.558 101.245L122.215 101.182C122.486 100.793 122.713 100.351 122.938 100.012C123.558 99.1247 124.131 98.204 124.72 97.2943L126.388 94.7564C126.886 94.0432 127.743 93.0852 127.741 92.164C127.74 91.2427 126.748 90.6797 125.879 90.3788L123.003 89.3716L118.375 87.7298C118.447 87.6449 118.501 87.5466 118.535 87.4406C118.569 87.3347 118.581 87.2232 118.572 87.1125C118.558 86.9653 118.507 86.824 118.424 86.7025C118.314 86.5546 118.159 86.4463 117.982 86.3939C117.911 86.3443 117.774 86.355 117.67 86.3529C117.565 86.3557 117.461 86.3652 117.357 86.3815L117.107 86.4195L116.546 86.4995L115.447 86.6626C115.321 86.699 115.206 86.764 115.109 86.8523C115.012 86.9406 114.937 87.05 114.89 87.1718C114.842 87.2937 114.823 87.4248 114.834 87.555C114.845 87.6851 114.886 87.8109 114.954 87.9223Z" fill="#1D4ED8"/>
</svg>
