<svg viewBox="0 0 260 260" fill="none" xmlns="http://www.w3.org/2000/svg">
<g clip-path="url(#clip0_9977_4397)">
<rect width="260" height="260" rx="130" fill="#DBEAFE"/>
<rect x="8.81104" y="217.313" width="241.234" height="61.1127" fill="#94A3B8"/>
<path d="M332 6H-71V219.487H332V6Z" fill="#DBEAFE"/>
<path d="M332 219.248H-71.0005V223.343H332V219.248Z" fill="#64748B"/>
<path d="M332 214.361H-71.0005V220.171H332V214.361Z" fill="#F8FAFC"/>
<path d="M72.1245 223.343H71.7412V217.866L75.4353 214.166L75.7067 214.438L72.1245 218.025V223.343Z" fill="black"/>
<path d="M100.532 223.343H100.149V217.866L103.843 214.166L104.114 214.438L100.532 218.025V223.343Z" fill="black"/>
<path d="M44.5791 223.343H44.1958V217.866L47.8899 214.166L48.1612 214.438L44.5791 218.025V223.343Z" fill="black"/>
<path d="M19.457 223.343H19.0737V217.866L22.7678 214.166L23.0392 214.438L19.457 218.025V223.343Z" fill="black"/>
<path d="M198.84 223.343H198.457V218.025L194.875 214.438L195.146 214.166L198.84 217.866V223.343Z" fill="black"/>
<path d="M170.432 223.343H170.049V218.025L166.467 214.438L166.738 214.166L170.432 217.866V223.343Z" fill="black"/>
<path d="M226.386 223.343H226.003V218.025L222.42 214.438L222.691 214.166L226.386 217.866V223.343Z" fill="black"/>
<path d="M247.606 223.343H247.223V218.025L243.641 214.438L243.912 214.166L247.606 217.866V223.343Z" fill="black"/>
<path d="M230.255 108H31V213.96H230.255V108Z" fill="#F8FAFC"/>
<path d="M230.746 188.365H31.3257V214.097H230.746V188.365Z" fill="#1D4ED8"/>
<path d="M155.695 110.098H46.3359V180.86H155.695V110.098Z" fill="#93C5FD"/>
<path opacity="0.25" d="M154.623 116.531V122.111C127.113 135.593 65.4368 165.743 46.3359 174.427V168.597L154.623 116.531Z" fill="white"/>
<path opacity="0.25" d="M118.17 110.098C106.452 115.908 90.9971 123.555 75.5616 131.154C64.4712 136.614 54.6976 141.404 46.3359 145.479V130.484L88.2088 110.098H118.17Z" fill="white"/>
<path opacity="0.25" d="M154.623 155.128V169.947C149.964 172.261 145.195 174.627 140.427 176.989C137.74 178.319 135.132 179.61 132.602 180.86H102.088L154.623 155.128Z" fill="white"/>
<path d="M155.695 178.716H46.3359V180.86H155.695V178.716Z" fill="#94A3B8"/>
<path d="M154.623 118.675H46.3359V120.82H154.623V118.675Z" fill="#94A3B8"/>
<path d="M48.7458 110.098H46.5005V180.504H48.7458V110.098Z" fill="#94A3B8"/>
<path d="M155.797 110.098H153.551V180.504H155.797V110.098Z" fill="#94A3B8"/>
<path d="M128.993 110.098H126.748V180.504H128.993V110.098Z" fill="#94A3B8"/>
<path d="M102.189 110.098H99.9438V180.504H102.189V110.098Z" fill="#94A3B8"/>
<path d="M75.3849 110.098H73.1396V180.504H75.3849V110.098Z" fill="#94A3B8"/>
<path d="M46.4956 180.755L46.4956 109.026H45.2637L45.2637 180.755H46.4956Z" fill="#64748B"/>
<g opacity="0.2">
<g style="mix-blend-mode:multiply">
<path d="M230.127 109.687H30.8716V119.527H230.127V109.687Z" fill="black"/>
</g>
<g style="mix-blend-mode:multiply">
<path d="M30.8716 119.527V124.885C30.8716 128.711 33.8589 131.914 37.6756 132.07C37.7385 132.072 37.8021 132.074 37.865 132.075C37.9976 132.077 38.1302 132.075 38.2621 132.071C42.0941 131.933 45.1044 128.725 45.1044 124.885V119.528H30.8716V119.527Z" fill="black"/>
<path d="M45.1045 119.527V124.885C45.1045 128.711 48.0918 131.914 51.9085 132.07C51.9714 132.072 52.0343 132.074 52.0979 132.075C52.2305 132.077 52.3631 132.075 52.495 132.071C56.327 131.933 59.3373 128.725 59.3373 124.885V119.528H45.1045V119.527Z" fill="black"/>
<path d="M59.3374 119.527V124.885C59.3374 128.711 62.3247 131.914 66.1414 132.07C66.2043 132.072 66.2672 132.074 66.3308 132.075C66.4634 132.077 66.596 132.075 66.7279 132.071C70.5599 131.933 73.5702 128.725 73.5702 124.885V119.528H59.3374V119.527Z" fill="black"/>
<path d="M73.5698 119.527V124.885C73.5698 128.711 76.5571 131.914 80.3739 132.07C80.4367 132.072 80.5004 132.074 80.5632 132.075C80.6958 132.077 80.8284 132.075 80.9603 132.071C84.7924 131.933 87.8027 128.725 87.8027 124.885V119.528H73.5698V119.527Z" fill="black"/>
<path d="M87.8018 119.527V124.885C87.8018 128.711 90.7891 131.914 94.6058 132.07C94.6687 132.072 94.7315 132.074 94.7951 132.075C94.9278 132.077 95.0604 132.075 95.1922 132.071C99.0243 131.933 102.035 128.725 102.035 124.885V119.528H87.8018V119.527Z" fill="black"/>
<path d="M102.034 119.527V124.885C102.034 128.711 105.021 131.914 108.838 132.07C108.901 132.072 108.964 132.074 109.028 132.075C109.16 132.077 109.293 132.075 109.425 132.071C113.257 131.933 116.267 128.725 116.267 124.885V119.528H102.034V119.527Z" fill="black"/>
<path d="M116.267 119.527V124.885C116.267 128.711 119.254 131.914 123.071 132.07C123.134 132.072 123.196 132.074 123.26 132.075C123.393 132.077 123.525 132.075 123.657 132.071C127.489 131.933 130.499 128.725 130.499 124.885V119.528H116.267V119.527Z" fill="black"/>
<path d="M130.5 119.527V124.885C130.5 128.711 133.487 131.914 137.304 132.07C137.367 132.072 137.43 132.074 137.493 132.075C137.626 132.077 137.759 132.075 137.89 132.071C141.723 131.933 144.733 128.725 144.733 124.885V119.528H130.5V119.527Z" fill="black"/>
<path d="M144.732 119.527V124.885C144.732 128.711 147.72 131.914 151.536 132.07C151.599 132.072 151.663 132.074 151.726 132.075C151.858 132.077 151.991 132.075 152.123 132.071C155.955 131.933 158.965 128.725 158.965 124.885V119.528H144.732V119.527Z" fill="black"/>
<path d="M158.965 119.527V124.885C158.965 128.711 161.952 131.914 165.769 132.07C165.832 132.072 165.895 132.074 165.958 132.075C166.091 132.077 166.223 132.075 166.355 132.071C170.187 131.933 173.198 128.725 173.198 124.885V119.528H158.965V119.527Z" fill="black"/>
<path d="M173.197 119.527V124.885C173.197 128.711 176.184 131.914 180.001 132.07C180.064 132.072 180.127 132.074 180.19 132.075C180.323 132.077 180.455 132.075 180.587 132.071C184.419 131.933 187.43 128.725 187.43 124.885V119.528H173.197V119.527Z" fill="black"/>
<path d="M187.429 119.527V124.885C187.429 128.711 190.417 131.914 194.233 132.07C194.296 132.072 194.359 132.074 194.423 132.075C194.555 132.077 194.688 132.075 194.82 132.071C198.652 131.933 201.662 128.725 201.662 124.885V119.528H187.429V119.527Z" fill="black"/>
<path d="M201.663 119.527V124.885C201.663 128.711 204.65 131.914 208.467 132.07C208.53 132.072 208.592 132.074 208.656 132.075C208.789 132.077 208.921 132.075 209.053 132.071C212.885 131.933 215.895 128.725 215.895 124.885V119.528H201.663V119.527Z" fill="black"/>
<path d="M215.895 119.527V124.885C215.895 128.711 218.882 131.914 222.699 132.07C222.761 132.072 222.825 132.074 222.888 132.075C223.021 132.077 223.153 132.075 223.285 132.071C227.117 131.933 230.127 128.725 230.127 124.885V119.528H215.895V119.527Z" fill="black"/>
</g>
</g>
<path d="M129.136 101.706H112.254L116.595 79H130.584L129.136 101.706Z" fill="#1D4ED8"/>
<path d="M146.019 101.706H129.137L130.584 79H144.572L146.019 101.706Z" fill="white"/>
<path d="M95.3713 101.706H78.4888L88.6183 79H102.607L95.3713 101.706Z" fill="#1D4ED8"/>
<path d="M112.254 101.706H95.3716L102.607 79H116.596L112.254 101.706Z" fill="white"/>
<path d="M61.6057 101.706H44.7231L60.6409 79H74.6289L61.6057 101.706Z" fill="#1D4ED8"/>
<path d="M78.4885 101.706H61.606L74.6292 79H88.6181L78.4885 101.706Z" fill="white"/>
<path d="M27.8455 101.706H10.9629L32.6644 79H46.6525L27.8455 101.706Z" fill="#1D4ED8"/>
<path d="M44.7283 101.706H27.8457L46.6527 79H60.6416L44.7283 101.706Z" fill="white"/>
<path d="M162.902 101.706H146.019L144.572 79H158.561L162.902 101.706Z" fill="#1D4ED8"/>
<path d="M179.785 101.706H162.902L158.562 79H172.55L179.785 101.706Z" fill="white"/>
<path d="M196.668 101.706H179.786L172.549 79H186.538L196.668 101.706Z" fill="#1D4ED8"/>
<path d="M213.552 101.706H196.669L186.539 79H200.527L213.552 101.706Z" fill="white"/>
<path d="M230.427 101.706H213.544L200.526 79H214.515L230.427 101.706Z" fill="#1D4ED8"/>
<path d="M247.31 101.706H230.427L214.516 79H228.504L247.31 101.706Z" fill="white"/>
<path d="M10.9629 101.706V108.061C10.9629 112.599 14.5065 116.399 19.0335 116.582C19.1082 116.585 19.183 116.588 19.2577 116.588C19.4152 116.591 19.5726 116.589 19.7292 116.584C24.2746 116.42 27.8455 112.616 27.8455 108.06V101.706H10.9629Z" fill="#1D4ED8"/>
<path d="M27.8457 101.706V108.061C27.8457 112.599 31.3893 116.399 35.9163 116.582C35.991 116.585 36.0658 116.588 36.1405 116.588C36.298 116.591 36.4554 116.589 36.612 116.584C41.1574 116.42 44.7283 112.616 44.7283 108.06V101.706H27.8457Z" fill="white"/>
<path d="M44.7285 101.706V108.061C44.7285 112.599 48.2721 116.399 52.7991 116.582C52.8738 116.585 52.9486 116.588 53.0234 116.588C53.1808 116.591 53.3382 116.589 53.4948 116.584C58.0402 116.42 61.6111 112.616 61.6111 108.06V101.706H44.7285Z" fill="#1D4ED8"/>
<path d="M61.6113 101.706V108.061C61.6113 112.599 65.155 116.399 69.6819 116.582C69.7567 116.585 69.8314 116.588 69.9062 116.588C70.0636 116.591 70.2211 116.589 70.3776 116.584C74.923 116.42 78.4939 112.616 78.4939 108.06V101.706H61.6113Z" fill="white"/>
<path d="M78.4937 101.706V108.061C78.4937 112.599 82.0373 116.399 86.5642 116.582C86.639 116.585 86.7137 116.588 86.7885 116.588C86.9459 116.591 87.1034 116.589 87.2599 116.584C91.8053 116.42 95.3762 112.616 95.3762 108.06V101.706H78.4937Z" fill="#1D4ED8"/>
<path d="M95.3765 101.706V108.061C95.3765 112.599 98.9201 116.399 103.447 116.582C103.522 116.585 103.597 116.588 103.671 116.588C103.829 116.591 103.986 116.589 104.143 116.584C108.688 116.42 112.259 112.616 112.259 108.06V101.706H95.3765Z" fill="white"/>
<path d="M112.259 101.706V108.061C112.259 112.599 115.803 116.399 120.33 116.582C120.405 116.585 120.479 116.588 120.554 116.588C120.712 116.591 120.869 116.589 121.026 116.584C125.571 116.42 129.142 112.616 129.142 108.06V101.706H112.259Z" fill="#1D4ED8"/>
<path d="M129.142 101.706V108.061C129.142 112.599 132.685 116.399 137.212 116.582C137.287 116.585 137.362 116.588 137.436 116.588C137.594 116.591 137.751 116.589 137.908 116.584C142.453 116.42 146.024 112.616 146.024 108.06V101.706H129.142Z" fill="white"/>
<path d="M146.024 101.706V108.061C146.024 112.599 149.568 116.399 154.095 116.582C154.17 116.585 154.244 116.588 154.319 116.588C154.477 116.591 154.634 116.589 154.791 116.584C159.336 116.42 162.907 112.616 162.907 108.06V101.706H146.024Z" fill="#1D4ED8"/>
<path d="M162.907 101.706V108.061C162.907 112.599 166.451 116.399 170.978 116.582C171.053 116.585 171.127 116.588 171.202 116.588C171.36 116.591 171.517 116.589 171.673 116.584C176.219 116.42 179.79 112.616 179.79 108.06V101.706H162.907Z" fill="white"/>
<path d="M179.79 101.706V108.061C179.79 112.599 183.334 116.399 187.861 116.582C187.935 116.585 188.01 116.588 188.085 116.588C188.242 116.591 188.4 116.589 188.556 116.584C193.102 116.42 196.673 112.616 196.673 108.06V101.706H179.79Z" fill="#1D4ED8"/>
<path d="M196.672 101.706V108.061C196.672 112.599 200.216 116.399 204.742 116.582C204.817 116.585 204.892 116.588 204.967 116.588C205.124 116.591 205.282 116.589 205.438 116.584C209.984 116.42 213.554 112.616 213.554 108.06V101.706H196.672Z" fill="white"/>
<path d="M213.555 101.706V108.061C213.555 112.599 217.098 116.399 221.625 116.582C221.7 116.585 221.775 116.588 221.85 116.588C222.007 116.591 222.164 116.589 222.321 116.584C226.866 116.42 230.437 112.616 230.437 108.06V101.706H213.555Z" fill="#1D4ED8"/>
<path d="M230.438 101.706V108.061C230.438 112.599 233.981 116.399 238.508 116.582C238.583 116.585 238.658 116.588 238.732 116.588C238.89 116.591 239.047 116.589 239.204 116.584C243.749 116.42 247.32 112.616 247.32 108.06V101.706H230.438Z" fill="white"/>
<path d="M212.146 130.489H175.154V207.359H212.146V130.489Z" fill="#94A3B8"/>
<path d="M208.345 134.352H179.228V203.116H208.345V134.352Z" fill="#93C5FD"/>
<path opacity="0.25" d="M208.345 139.89V145.112L179.228 174.273V169.05L208.345 139.89Z" fill="white"/>
<path d="M182.499 169.726C182.499 170.991 181.472 172.02 180.209 172.02C179.906 172.02 179.616 171.961 179.352 171.853C178.512 171.513 177.917 170.687 177.917 169.726C177.917 168.765 178.512 167.938 179.352 167.599C179.616 167.491 179.906 167.432 180.209 167.432C181.472 167.432 182.499 168.46 182.499 169.726Z" fill="#3B82F6"/>
<path d="M181.812 169.375C181.812 170.579 180.834 171.558 179.632 171.558C179.344 171.558 179.069 171.502 178.817 171.4C178.018 171.076 177.452 170.29 177.452 169.375C177.452 168.46 178.018 167.674 178.817 167.35C179.069 167.247 179.344 167.191 179.632 167.191C180.834 167.191 181.812 168.171 181.812 169.375Z" fill="#F5EFE1"/>
<path opacity="0.25" d="M208.345 168.397V179.039L184.304 203.116H179.228V197.558L208.345 168.397Z" fill="white"/>
<path d="M212.146 129.255H175.154V130.489H212.146V129.255Z" fill="#64748B"/>
<path d="M175.154 207.36V129.255H173.922V207.36H175.154Z" fill="#64748B"/>
<path d="M167.264 209.327H220.305V214.361H167.264V209.327Z" fill="#2563EB"/>
<path d="M167.264 207.359H220.305V212.371H167.264V207.359Z" fill="#3B82F6"/>
<path d="M167.263 207.359L163.2 214.361H167.263V207.359Z" fill="#1E40AF"/>
<path d="M162.843 185.143C158.938 186.479 157.355 188.082 156.614 189.395C156.616 188.737 156.445 188.093 156.151 187.511C155.578 186.379 154.552 185.855 153.521 186.153C151.774 186.353 149.137 185.275 151.166 183.137C152.71 181.51 155.33 181.081 154.403 178.015C153.84 176.15 157.175 175.814 159.012 175.892L158.984 175.594C156.437 175.467 151.536 175.574 153.223 177.517C155.5 180.139 152.275 181.27 150.342 182.741C149.572 180.448 148.17 180.224 146.055 179.665L145.967 180.082C147.133 180.389 149.088 181.104 149.607 183.412C147.712 185.522 149.348 187.268 151.587 187.485C150.69 188.635 150.336 190.199 149.447 191.42C149.265 191.671 149.171 191.697 149.171 191.698C148.436 191.485 147.718 185.205 143.227 187.997L143.586 188.578C147.637 186.06 147.509 192.368 149.093 192.377C151.132 192.391 151.814 188.629 153.905 188.544C155.032 188.498 155.696 190.527 153.12 192.962C149.675 195.353 152.662 200.264 152.37 202.906L154.376 202.735C154.737 199.477 149.794 194.575 154.851 192.87C155.463 192.664 156.04 192.471 156.334 191.965C156.462 191.745 156.542 191.475 156.636 191.163C157.033 189.841 157.629 187.217 162.996 185.38L162.843 185.142V185.143Z" fill="#846146"/>
<path d="M153.97 179.512C154.173 179.433 154.379 179.354 154.587 179.279C154.599 178.911 154.549 178.5 154.403 178.017C153.84 176.152 157.176 175.815 159.012 175.893L158.985 175.595C156.437 175.468 151.537 175.575 153.223 177.519C153.901 178.3 154.089 178.948 153.97 179.513V179.512Z" fill="#5B3F2C"/>
<path d="M149.043 182.056C149.277 181.893 149.524 181.73 149.783 181.569C148.963 180.346 147.735 180.109 146.056 179.666L145.968 180.083C146.864 180.319 148.225 180.8 149.043 182.057V182.056Z" fill="#5B3F2C"/>
<path d="M153.905 188.545C155.032 188.499 155.696 190.528 153.12 192.963C151.678 193.964 151.365 195.408 151.464 196.94C151.809 196.617 152.184 196.298 152.586 195.98C152.444 194.655 152.908 193.525 154.852 192.87C155.463 192.664 156.04 192.47 156.335 191.964C156.462 191.745 156.542 191.475 156.636 191.163C157.033 189.841 157.629 187.217 162.996 185.38L162.843 185.142C158.939 186.478 157.355 188.08 156.615 189.394C156.616 188.735 156.445 188.091 156.151 187.51C156.102 187.412 156.045 187.326 155.989 187.238C154.307 187.601 152.726 187.798 151.348 187.824C150.621 188.93 150.25 190.314 149.446 191.42C149.264 191.671 149.17 191.697 149.17 191.698C148.435 191.485 147.717 185.205 143.226 187.997L143.585 188.578C147.636 186.06 147.508 192.367 149.092 192.377C151.131 192.39 151.813 188.629 153.904 188.544L153.905 188.545Z" fill="#5B3F2C"/>
<path d="M144.603 203.82C150.919 200.342 154.589 199.402 162.527 204.017L144.603 203.82Z" fill="#C47037"/>
<path d="M144.603 203.82C148.661 201.585 152.705 199.816 154.235 200.994C151.56 202.431 152.311 204.113 155.148 205.763L144.603 203.82Z" fill="#89532E"/>
<path d="M163.694 202.394L144.005 202.59C142.905 207.535 143.926 210.53 146.109 214.361H160.35C163.153 210.524 163.721 207.416 163.694 202.394Z" fill="#756454"/>
<path d="M159.018 213.298C152.772 213.298 147.71 209.008 147.71 203.716C147.71 203.322 147.742 202.934 147.797 202.552L144.005 202.589C142.905 207.534 143.926 210.529 146.109 214.361H160.35C160.659 213.939 160.935 213.527 161.191 213.118C160.488 213.235 159.762 213.297 159.018 213.297V213.298Z" fill="#544436"/>
<path d="M135.981 191.11C135.014 191.965 135.127 195.441 137.972 194.416C140.647 196.41 145.029 191.224 143.549 190.54C142.069 189.857 142.24 189.458 142.923 188.944C143.606 188.432 144.118 190.426 145.37 189.458C146.622 188.489 147.818 187.236 145.94 187.064C145.94 187.064 144.858 183.359 142.753 186.836C142.753 186.836 135.47 185.525 135.982 191.11H135.981Z" fill="#A2A534"/>
<path d="M145.94 187.062C145.94 187.062 145.855 186.77 145.685 186.425C144.786 187.373 143.652 189.252 140.536 188.469C140.694 189.032 141.58 190.734 142.363 191.3C143.909 192.42 140.513 193.793 139.273 194.863C141.837 194.945 144.808 191.118 143.551 190.538C142.072 189.854 142.242 189.456 142.926 188.942C143.608 188.429 144.12 190.424 145.372 189.456C146.625 188.486 147.82 187.233 145.942 187.061L145.94 187.062Z" fill="#848425"/>
<path d="M143.743 186.749C144.845 187.275 145.752 187.944 146.337 188.609C147.048 187.873 147.294 187.186 145.94 187.062C145.94 187.062 144.947 183.668 143.013 186.437C143.255 186.53 143.499 186.632 143.743 186.749Z" fill="#848425"/>
<path d="M142.023 190.367C141.34 190.041 142.601 188.731 141.252 188.623C140.453 188.558 138.691 187.657 138.711 186.995C138.272 187.123 137.849 187.303 137.47 187.548C140.143 189.44 141.916 191.49 141.446 192.167C140.989 192.827 138.581 191.95 135.968 190.204C135.948 190.484 135.951 190.784 135.981 191.108C135.014 191.964 135.127 195.439 137.972 194.414C140.293 196.144 143.897 192.47 143.843 191.02C143.264 190.879 142.646 190.662 142.023 190.367Z" fill="#848425"/>
<path d="M142.411 186.208C141.729 186.72 139.966 185.695 140.648 185.068C141.331 184.44 142.526 185.58 142.411 186.208Z" fill="#848425"/>
<path d="M136.783 174.062C136.104 174.58 134.332 173.568 135.01 172.936C135.688 172.304 136.891 173.434 136.783 174.062Z" fill="#A2A534"/>
<path d="M150.517 171.176C149.813 171.877 147.604 170.999 148.29 170.169C148.976 169.338 150.546 170.441 150.517 171.176Z" fill="#848425"/>
<path d="M160.205 178.226C159.558 178.451 158.459 177.248 159.133 176.938C159.807 176.628 160.443 177.779 160.205 178.226Z" fill="#848425"/>
<path d="M157.237 179.741C156.278 179.496 155.912 177.175 156.973 177.338C158.033 177.501 157.881 179.394 157.237 179.741Z" fill="#848425"/>
<path d="M162.648 186.842C163.019 187.612 161.676 189.149 161.193 188.358C160.708 187.566 162.054 186.611 162.648 186.842Z" fill="#848425"/>
<path d="M145.958 189.743C146.521 190.156 146.141 191.78 145.489 191.394C144.837 191.01 145.441 189.803 145.958 189.743Z" fill="#848425"/>
<path d="M161.646 185.809C160.562 186.397 158.018 186.078 159.883 183.871C158.572 183.13 159.37 181.136 161.704 181.592C161.078 180.281 162.956 178.571 164.776 180.224C168.702 178.685 170.694 184.384 167.565 186.265C168.475 186.663 169.896 189.343 166.256 189.399C167.109 190.482 161.7 192.721 163.182 188.088C163.182 188.088 164.378 185.638 161.646 185.809Z" fill="#A2A534"/>
<path d="M166.382 189.394C164.622 188.566 163.37 186.469 163.37 184.005C163.37 182.495 163.844 181.123 164.615 180.095C162.846 178.681 161.096 180.32 161.704 181.591C159.372 181.136 158.574 183.13 159.883 183.871C158.019 186.078 160.564 186.396 161.646 185.808C164.378 185.637 163.183 188.088 163.183 188.088C161.701 192.72 167.109 190.481 166.256 189.399C166.3 189.399 166.341 189.395 166.383 189.393L166.382 189.394Z" fill="#848425"/>
<path d="M153.054 175.323C155.955 176.235 157.549 177.432 159.825 176.064C159.825 176.064 164.718 178.457 165.572 176.121C165.572 176.121 168.873 174.696 168.132 172.189C167.392 169.682 163.238 166.889 158.8 169.796C158.8 169.796 157.491 167.288 153.906 168.484C150.321 169.682 151.458 172.303 151.458 172.303C151.458 172.303 145.789 171.343 146.394 173.614C146.622 174.468 148.215 173.442 148.215 173.442C148.215 173.442 147.078 177.031 150.036 176.975C152.996 176.919 153.053 175.323 153.053 175.323H153.054Z" fill="#A2A534"/>
<path d="M161.918 175.514C156.935 174.727 153.253 171.82 153.694 169.022C153.721 168.849 153.764 168.681 153.821 168.517C150.347 169.727 151.459 172.303 151.459 172.303C151.459 172.303 145.79 171.343 146.395 173.614C146.622 174.468 148.216 173.442 148.216 173.442C148.216 173.442 147.078 177.031 150.037 176.975C152.996 176.918 153.053 175.322 153.053 175.322C155.955 176.235 157.548 177.432 159.824 176.064C159.824 176.064 164.717 178.457 165.572 176.121C165.572 176.121 166.036 175.92 166.578 175.537C165.171 175.766 163.579 175.777 161.918 175.514Z" fill="#848425"/>
<path d="M136.149 181.421C134.221 182.046 133.121 180.661 133.159 179.635C133.159 179.635 130.777 178.865 132.843 176.674C134.908 174.483 136.258 174.732 136.744 174.778C137.23 174.824 139.192 172.96 140.929 173.848C142.666 174.736 142.692 176.354 142.692 176.354C142.692 176.354 147.689 175.682 148.269 178.315C148.912 181.069 144.048 181.297 143.951 181.08C143.872 182.861 138.075 184.031 138.62 181.003C136.782 183.945 136.149 181.419 136.149 181.419V181.421Z" fill="#A2A534"/>
<path d="M145.211 180.108C140.563 180.108 136.795 178.002 136.795 175.404C136.795 175.183 136.833 174.968 136.885 174.755C136.831 174.773 136.782 174.784 136.745 174.779C136.259 174.733 134.909 174.485 132.844 176.675C130.779 178.866 133.16 179.636 133.16 179.636C133.122 180.661 134.221 182.047 136.15 181.422C136.15 181.422 136.782 183.947 138.621 181.006C138.076 184.035 143.874 182.864 143.952 181.083C144.027 181.251 146.916 181.152 147.958 179.847C147.096 180.014 146.174 180.109 145.211 180.109V180.108Z" fill="#848425"/>
<path d="M163.514 169.203C164.356 168.858 165.89 169.534 166.936 170.714C167.984 171.895 168.15 173.132 167.308 173.478C166.465 173.824 164.931 173.147 163.884 171.966C162.836 170.786 162.671 169.548 163.514 169.202V169.203Z" fill="#C1C12F"/>
<path d="M167.806 181.024C168.563 181.345 169.06 182.56 168.915 183.739C168.771 184.916 168.039 185.611 167.283 185.291C166.526 184.969 166.029 183.753 166.173 182.576C166.319 181.397 167.051 180.703 167.807 181.024H167.806Z" fill="#C1C12F"/>
<path d="M162.11 185.147C161.914 185.612 161.17 185.918 160.448 185.83C159.728 185.741 159.301 185.293 159.496 184.829C159.691 184.363 160.435 184.057 161.156 184.144C161.879 184.233 162.304 184.682 162.11 185.148V185.147Z" fill="#A2A534"/>
<path d="M156.798 168.999C157.759 168.759 159.176 170.631 158.165 170.992C157.155 171.352 156.395 169.613 156.798 168.999Z" fill="#C1C12F"/>
<path d="M152.048 175.316C151.57 176.617 148.295 176.792 148.674 175.339C149.051 173.886 151.658 174.369 152.048 175.316Z" fill="#A2A534"/>
<path d="M137.913 179.865C137.196 181.307 133.335 181.886 133.953 180.294C134.57 178.702 137.568 178.904 137.913 179.865Z" fill="#A2A534"/>
<path d="M146.286 187.633C146.185 188.6 144.12 189.744 144.134 188.712C144.148 187.68 145.888 187.161 146.286 187.633Z" fill="#A2A534"/>
<path d="M142.634 176.369C143.398 176.082 145.325 175.864 146.711 176.493C148.225 177.178 148.364 177.973 148.234 178.758C148.011 180.101 142.543 177.126 142.634 176.369Z" fill="#848425"/>
<path d="M165.89 167C166.379 167.39 165.984 168.835 165.414 168.468C164.844 168.1 165.427 167.036 165.89 167Z" fill="#C1C12F"/>
<path d="M138.532 174.912C139.818 174.591 142.354 176.605 141.032 177.064C139.71 177.524 138.139 175.621 138.532 174.912Z" fill="#C1C12F"/>
<g opacity="0.85">
<path d="M149.163 210.858L149.234 210.869L149.294 210.94L149.121 210.92L149.163 210.858Z" fill="#86786A"/>
<path d="M147.531 213.238L147.725 213.203L148.072 213.492L147.531 213.238Z" fill="#86786A"/>
<path d="M149.11 213.224L149.021 213.335L149.635 213.491L150.239 213.071L149.906 212.971L150.239 213.071L149.958 212.632L148.206 213.119L151.441 212.571L152.443 213.032L148.647 213.491L149.11 213.224Z" fill="#86786A"/>
<path opacity="0.3" d="M150.849 213.425L150.57 213.363L150.792 213.103L150.849 213.425Z" fill="white"/>
<path d="M151.571 209.735L151.864 209.979L151.805 210.219L151.62 210.15L151.653 210.354V210.257L151.455 210.3L151.453 210.204L151.324 210.186L151.571 209.735Z" fill="#86786A"/>
<path d="M146.565 204.159L147.24 203.732L147.174 204.176L146.857 204.442L146.865 204.398L146.651 204.391L146.658 204.345L146.519 204.373L146.565 204.159Z" fill="#86786A"/>
<path opacity="0.3" d="M146.925 203.929L146.745 204.041L146.82 203.885L147.036 204.063L146.771 204.343L146.925 203.929Z" fill="white"/>
<path opacity="0.3" d="M147 204.019L146.998 204.097L147.025 204.131L146.957 204.186L146.93 204.153L146.97 204.119L146.837 204.097L147 204.019Z" fill="#86786A"/>
<path d="M152.171 209.357L152.289 209.485L152.12 209.737L152.177 209.567L152.05 209.482L151.981 209.589L152.171 209.357Z" fill="#86786A"/>
<path d="M162.319 206.964L162.326 207.466L162.092 207.058L162.23 207.631L161.596 206.789L161.485 206.964L160.855 206.327L160.863 206.493L159.875 205.469L159.558 203.809L159.682 203.66L159.937 203.594L159.961 203.678L160.151 203.561L161.098 203.939L161.208 203.914L162.663 205.24L162.522 205.112L162.475 205.26L162.905 205.527L162.463 205.502L162.74 205.965L162.593 205.838L162.888 206.53L162.592 206.905L162.807 207.489L162.319 206.964Z" fill="#86786A"/>
<path d="M154.98 205.265L154.622 205.619L154.446 205.542L154.065 205.835L154.208 204.153L154.338 204.281L154.364 204.05L154.98 205.265Z" fill="#86786A"/>
<path d="M152.626 205.342L152.62 205.269L152.839 205.51L152.901 205.353L152.871 205.325L153.055 205.498L153.081 205.45L153.283 206.872L153.039 207.045L152.446 207.052L152.141 206.778L151.727 207.209L151.13 206.888L150.997 206.369L151.219 205.845L151.368 206.004L151.361 205.774L151.438 205.906L151.536 205.835L151.612 205.929L151.711 205.858L151.786 205.967L152.027 205.82L152.07 205.48L152.148 205.574L152.21 205.401L152.179 205.375L152.284 205.439L152.294 205.194L152.626 205.342Z" fill="#86786A"/>
<path d="M146.882 205.881L146.953 205.84L147.412 206.374L147.214 206.964L146.418 206.679L146.311 206.093L146.266 206.066L146.369 206.132L146.503 205.85L146.882 205.881Z" fill="#86786A"/>
<path opacity="0.3" d="M151.884 205.894L151.914 205.893L151.916 205.993L151.886 205.994L151.884 205.894Z" fill="white"/>
<path d="M152.86 207.841L152.785 207.802L152.881 207.668L152.86 207.841Z" fill="#86786A"/>
<path d="M152.88 209.028L152.916 208.991L153.107 209.035L153.335 210.435L152.696 210.373L152.376 209.795L152.458 209.439L152.473 209.482L152.652 208.938L152.88 209.028Z" fill="#86786A"/>
<path d="M155.687 212.887L155.718 212.738L156.055 212.481L156.008 212.46L157.364 211.924L157.868 212.437L157.466 213.118L156.453 213.537L156.503 213.418L156.062 213.467L156.097 213.357L155.782 213.327L155.847 213.218L155.645 213.21L155.687 212.887Z" fill="#86786A"/>
<path opacity="0.3" d="M156.877 212.868L156.502 213.014L156.877 212.868Z" fill="white"/>
</g>
<g opacity="0.85">
<path d="M146.379 208.727L146.394 208.721L146.416 208.782L146.379 208.727Z" fill="#86786A"/>
<path d="M146.496 208.732L146.487 208.754L146.532 208.785L146.584 208.699L146.558 208.679L146.584 208.699L146.565 208.61L146.45 208.72L146.428 208.709L146.681 208.586L146.756 208.674L146.457 208.784L146.496 208.732Z" fill="#86786A"/>
<path opacity="0.3" d="M146.627 208.77L146.605 208.759L146.626 208.702L146.627 208.77Z" fill="white"/>
<path d="M148.513 209.839L148.889 209.744L148.818 209.982L148.63 210.064L148.638 210.041L148.532 209.988L148.541 209.965L148.467 209.948L148.513 209.839Z" fill="#86786A"/>
<path opacity="0.3" d="M148.716 209.791L148.615 209.816L148.668 209.744L148.76 209.892L148.599 209.991L148.716 209.791Z" fill="white"/>
<path opacity="0.3" d="M148.747 209.857L148.738 209.901L148.749 209.926L148.709 209.944L148.698 209.918L148.723 209.908L148.657 209.867L148.747 209.857Z" fill="#86786A"/>
<path d="M148.971 208.885L149.028 208.927L148.962 209.028L148.97 208.984L148.936 208.97L148.904 209.082L148.817 209.091L148.87 209.068L148.855 209.035L148.886 209.041L148.887 208.943L148.703 209.023L148.971 208.885Z" fill="#86786A"/>
<path d="M159.191 209.337L158.994 209.318L159.119 209.202L158.913 209.26L159.165 208.936L159.075 208.86L159.297 208.552L159.223 208.54L159.563 208.344L159.663 208.119L160.41 208.34L160.488 208.592L160.453 208.581L160.498 208.709L160.348 209.101L160.361 209.165L159.919 209.709L159.955 209.65L159.892 209.602L159.834 209.804L159.794 209.561L159.643 209.66L159.675 209.593L159.446 209.692L159.255 209.497L159.071 209.593L159.191 209.337Z" fill="#86786A"/>
<path d="M150.153 209.078L150.156 209.145L150.317 209.138L150.313 209.07L150.199 209.075L150.4 208.977L150.309 209.162L150.087 209.179L150.153 209.078Z" fill="#86786A"/>
<path d="M151.558 208.748L151.814 208.877L151.826 208.993L152.072 209.138L151.268 209.337L151.294 209.253L151.195 209.254L151.558 208.748Z" fill="#86786A"/>
<path d="M152.195 210.067L152.157 210.088L152.234 209.906L152.133 209.907L152.125 209.933L152.17 209.787L152.139 209.784L152.846 209.289L153.014 209.373L153.189 209.698L153.126 209.944L153.481 210.05V210.469L153.229 210.694L152.856 210.727L152.911 210.596L152.774 210.669L152.833 210.587L152.764 210.551L152.799 210.482L152.73 210.447L152.773 210.374L152.622 210.281L152.413 210.35L152.449 210.281L152.332 210.291L152.325 210.315L152.335 210.238L152.192 210.294L152.195 210.067Z" fill="#86786A"/>
<path d="M154.011 213.169L153.948 213.151L154.258 212.672L154.657 212.604L154.732 213.124L154.362 213.391L154.349 213.427L154.378 213.341L154.061 213.406L154.011 213.169Z" fill="#86786A"/>
<path opacity="0.3" d="M152.704 210.342L152.695 210.325L152.752 210.294L152.761 210.311L152.704 210.342Z" fill="white"/>
<path d="M153.515 209.242L153.513 209.295L153.41 209.279L153.515 209.242Z" fill="#86786A"/>
<path d="M154.233 208.95L154.204 208.935L154.207 208.81L155.15 208.64L155.057 209.01L154.905 209.145L154.828 209.136L154.749 209.179L154.538 209.152L154.562 209.139L154.215 209.103L154.233 208.95Z" fill="#86786A"/>
<path d="M156.949 208.876L156.922 208.788L156.994 208.605L156.97 208.597L157.521 208.267L157.798 208.607L157.695 208.961L157.382 209.182L157.375 209.114L157.229 209.164L157.215 209.099L157.099 209.111L157.092 209.043L157.021 209.061L156.949 208.876Z" fill="#86786A"/>
<path opacity="0.3" d="M157.416 208.796L157.29 208.886L157.416 208.796Z" fill="white"/>
</g>
<path d="M163.63 203.934H143.905L143.601 205.109H163.63V203.934Z" fill="#544436"/>
<path d="M280.683 31.5359C280.279 31.2157 279.854 31.1413 279.673 31.1121C278.646 30.944 278.117 31.5965 277.701 31.3079C277.389 31.0914 277.642 30.7037 277.33 29.9974C277.295 29.9198 276.881 29.0216 275.924 28.66C275.131 28.3606 274.393 28.5917 274.096 28.6853C272.97 29.0377 272.628 29.8008 272.234 29.6289C271.886 29.4769 272.064 28.8489 271.708 27.8217C271.634 27.6105 271.336 26.8006 270.703 26.1565C270.319 25.7642 269.879 25.5047 269.453 25.3335C267.778 26.0897 266.201 27.0493 264.722 28.1502C263.087 29.3678 261.161 28.6669 259.269 28.8489C257.965 28.974 256.86 29.6504 255.841 30.4296C255.371 30.7889 255.13 31.1612 254.755 31.6011C254.661 31.7117 254.501 31.9336 254.334 31.9773C253.958 32.0756 253.365 31.7846 252.898 31.5451C253.006 31.8744 253.208 32.0433 253.158 32.1024C253.101 32.1692 252.829 31.9727 252.451 31.8368C251.995 31.6741 251.608 31.6825 251.368 31.6833C251.183 31.6833 250.428 31.704 249.687 32.1524C249.67 32.1616 249.647 32.1762 249.618 32.1953C249.469 32.2898 248.146 33.1604 248.152 34.5353C248.155 35.3353 248.607 36.093 249.188 36.5038C249.854 36.9759 250.242 36.6719 251.568 37.2016C252.355 37.5156 252.265 37.6415 252.988 37.9125C254.053 38.311 254.98 38.3133 255.523 38.3094C256.204 38.3048 256.99 38.2995 257.915 37.9532C258.941 37.5694 259.542 36.9874 260.32 37.2246C260.525 37.2868 260.534 37.3506 260.859 37.4481C261.029 37.4995 261.602 37.6599 262.356 37.6024C263.61 37.5072 263.9 36.9199 264.751 36.8377C265.735 36.7425 266.243 37.5624 267.18 37.9478C270.484 39.3082 275.172 38.5513 276.529 36.3287C276.792 35.8973 276.84 35.5595 277.276 35.2294C278.333 34.4286 279.531 35.2785 280.641 34.467C280.747 34.3895 281.391 33.902 281.45 33.1204C281.518 32.2176 280.754 31.5919 280.683 31.5351V31.5359Z" fill="white"/>
<path d="M280.707 35.2318C279.723 35.7163 277.857 34.9693 277.434 35.3216C277.315 35.4199 277.223 35.5335 277.223 35.5335C277.043 35.7677 277.039 35.9857 276.537 36.5423C275.711 37.4597 274.757 37.8874 274.718 37.8328C274.662 37.7538 275.749 37.2263 276.672 35.9742C277.069 35.4368 278.409 33.6181 277.789 31.6735C277.415 30.4989 276.521 29.8901 276.353 29.7803C274.79 28.7531 273.053 29.4425 272.932 29.4924C272.232 29.7841 271.782 30.234 271.546 30.5073C271.403 30.128 271.03 29.3004 270.167 28.6417C269.303 27.983 268.43 27.861 267.955 27.8011C266.324 27.5961 265.053 28.2587 264.689 28.4552C263.647 29.0164 263.484 29.5262 262.948 29.8471C262.815 29.9269 262.646 30.0006 262.438 30.0551C262.229 30.1104 262.049 30.1227 261.931 30.1242C261.46 29.2575 260.523 28.9028 259.838 29.1861C259.203 29.4486 259.008 30.1664 258.982 30.2678C258.799 30.1518 258.467 29.9768 258.028 29.943C257.386 29.8939 256.911 30.1779 256.631 30.3453C255.496 31.024 255.084 32.2631 254.967 32.6661C254.698 32.5072 254.32 32.3483 253.947 32.4573C253.488 32.5909 253.417 33.0208 253.07 33.05C252.634 33.0868 252.452 32.4304 251.906 32.0896C251.511 31.8424 250.837 31.7065 249.619 32.1947C249.959 31.9928 250.583 31.6911 251.369 31.6834C251.614 31.6811 252.003 31.6604 252.452 31.837C252.568 31.883 252.661 31.9306 252.726 31.9667C252.691 31.8401 252.653 31.6358 252.68 31.3871C252.692 31.2842 252.733 30.9526 252.965 30.6516C253.305 30.2117 253.95 29.9699 254.427 30.1426C254.768 30.2662 254.941 30.5741 255.017 30.5219C255.093 30.4704 254.875 30.1971 254.899 29.8202C254.932 29.2813 255.436 28.9273 255.507 28.8797C255.635 28.7915 256.062 28.5013 256.551 28.6579C256.86 28.7561 257.038 28.9834 257.106 29.0816C257.096 28.8736 257.094 28.2993 257.466 27.7358C257.537 27.6276 258.052 26.8745 259.018 26.7701C259.751 26.691 260.288 27.0342 260.436 27.1324C260.882 27.4265 261.108 27.8072 261.206 27.9992C261.257 27.8902 261.397 27.6322 261.691 27.4833C262.192 27.2292 262.689 27.4948 262.746 27.527C263.122 27.7374 263.257 28.0913 263.292 28.1919C263.366 27.7543 263.595 26.7655 264.413 25.8956C265.325 24.9268 266.789 24.2911 268.248 24.5874C269.565 24.8554 270.356 25.759 270.705 26.1574C271.353 26.8983 271.638 27.6261 271.709 27.8226C271.894 28.337 271.96 28.793 271.985 29.1193C272.342 28.8452 273.025 28.4038 273.982 28.2571C274.386 28.1949 275.109 28.0936 275.933 28.4222C276.804 28.77 277.275 29.3926 277.48 29.6713C277.939 30.2969 278.109 30.9157 278.178 31.2696C278.436 31.1637 278.999 30.9756 279.674 31.1123C280.468 31.2727 281.406 31.88 281.62 32.9179C281.803 33.8085 281.425 34.8787 280.709 35.2318H280.707Z" fill="white"/>
<path d="M279.972 32.1184C279.126 31.6339 278.178 31.941 277.883 32.037C276.97 32.3326 277.011 32.7579 276.307 32.8592C275.494 32.9759 275.31 32.4254 274.478 32.5314C273.714 32.6289 273.665 33.1287 272.855 33.2438C272.294 33.3237 272.211 33.0987 271.202 32.9191C270.784 32.8446 269.864 32.6895 268.807 32.8876C268.384 32.9667 267.749 33.1379 267.03 33.5525C266.792 33.9348 266.258 34.8146 265.184 35.2146C264.367 35.5186 263.419 35.6015 262.56 35.5447C261.953 35.5048 259.388 35.1762 259.118 34.1889C258.306 34.8376 257.462 35.5032 256.434 35.7305C255.923 35.8433 254.83 36.0706 253.717 35.5024C253.185 35.2314 252.829 34.8699 252.619 34.6173C252.324 34.7585 251.783 34.9604 251.12 34.8906C249.533 34.7224 248.762 33.1609 248.703 33.0388C248.531 33.2814 248.209 33.8073 248.152 34.5374C248.138 34.7286 248.059 36.0429 249.109 36.9458C250.12 37.8156 251.351 37.5914 251.504 37.5607C251.875 37.8885 253.418 39.1744 255.742 39.1598C258.365 39.143 260.006 37.4816 260.297 37.1776C260.426 37.3112 261.309 38.1895 262.682 38.1142C263.992 38.0428 264.759 37.1561 264.884 37.0064C265.388 37.3158 266.163 37.7411 267.167 38.0981C268.193 38.4635 271.995 39.8155 275.456 37.93C276.075 37.5922 277.027 36.9642 277.949 35.8088C279.248 36.2556 280.527 35.7589 280.938 34.8814C281.246 34.225 281.046 33.402 280.72 32.8692C280.632 32.7256 280.41 32.3702 279.972 32.1199L279.972 32.1184Z" fill="white"/>
<path d="M237.911 62.0128C236.162 63.2694 234.298 61.9227 232.632 63.1621C231.945 63.6739 231.867 64.2014 231.449 64.8733C229.293 68.3357 221.942 69.4594 216.786 67.2836C215.323 66.666 214.538 65.3765 212.996 65.5124C211.612 65.6353 211.186 66.2357 209.237 66.6789C207.702 67.0277 206.504 66.9105 204.842 66.7346C202.034 66.4373 201.209 65.8497 199.23 65.4723C193.653 64.4087 191.125 67.3579 188.683 65.4609C187.547 64.5774 186.949 63.0492 187.034 61.6868C187.176 59.451 189.128 58.1873 189.361 58.0415C190.476 57.3481 191.609 57.2852 192.109 57.2638C194.114 57.1766 194.74 58.1115 195.753 57.7141C196.742 57.3252 196.552 56.2759 197.595 54.3346C197.97 53.6341 199.871 50.2689 203.004 49.6657C203.661 49.5384 204.639 49.354 205.538 49.8486C206.723 50.5005 207.024 51.7457 207.565 51.6256C207.895 51.5527 207.835 51.1024 208.332 50.8236C208.84 50.5377 209.529 50.6592 209.983 50.9051C210.954 51.434 210.907 52.5719 211.326 52.592C211.853 52.6177 211.907 50.825 213.028 49.3454C214.612 47.2511 217.373 47.0424 217.583 47.0295C217.761 47.0181 220.556 46.8894 222.464 48.8651C223.447 49.8815 223.903 51.1538 224.015 51.4855C224.559 53.0995 224.273 54.0801 224.815 54.3232C225.428 54.5976 225.975 53.4068 227.742 52.8707C228.21 52.7292 229.367 52.3761 230.605 52.8564C232.098 53.434 232.736 54.8464 232.789 54.9693C233.27 56.0787 232.868 56.6834 233.353 57.0265C234.002 57.4839 234.839 56.4689 236.445 56.7463C236.727 56.7949 237.392 56.9178 238.021 57.4239C238.132 57.5139 239.319 58.5032 239.201 59.917C239.098 61.1407 238.083 61.8955 237.915 62.0156L237.911 62.0128Z" fill="#EFF6FF"/>
<path d="M222.63 68.427C220.561 68.427 218.517 68.0453 216.775 67.3105C216.23 67.0804 215.783 66.7601 215.351 66.4514C214.635 65.9396 213.959 65.4564 213 65.5407C212.279 65.6051 211.808 65.8038 211.264 66.0339C210.753 66.2498 210.173 66.4957 209.243 66.7058C207.672 67.0618 206.422 66.9303 204.838 66.763C203.132 66.5829 202.19 66.297 201.279 66.0211C200.649 65.8295 200.054 65.6494 199.225 65.5007C196.64 65.0347 194.804 65.4378 193.33 65.7609C191.671 66.1254 191.076 66.1326 190.218 65.9567C189.821 65.8753 189.3 65.768 188.762 65.4207C187.534 64.6258 186.95 63.0433 187.003 61.6866C187.086 59.5852 188.648 58.2743 189.196 57.9197C189.471 57.7425 191.17 56.4073 193.481 56.6646C194.112 56.7346 194.617 56.9019 194.951 57.0377C194.84 56.4473 194.352 53.5367 196.214 51.0678C198.11 48.5547 201.799 47.3453 204.653 48.6933C206.332 49.4867 207.2 50.9163 207.552 51.5982C207.584 51.491 207.784 50.8477 208.449 50.5246C209.23 50.1458 209.966 50.5418 210.045 50.5861C210.886 51.0578 210.944 52.0185 210.947 52.0785C212.122 49.105 214.734 47.0979 217.573 47.0036C220.242 46.9135 222.105 48.5475 222.456 48.8677C224.779 50.9835 224.82 53.8355 224.819 54.3001C225.031 53.9584 225.836 52.7547 227.444 52.2329C227.838 52.1043 229.268 51.6654 230.825 52.3902C231.069 52.5045 232.475 53.185 233.106 54.8319C233.46 55.7568 233.415 56.5788 233.362 57.0048C233.649 56.8276 234.095 56.5974 234.679 56.4873C234.853 56.4544 236.648 56.1442 238.031 57.4037C238.326 57.6724 239.334 58.5859 239.223 59.9211C239.124 61.0934 238.205 61.8396 237.925 62.0397C237.04 62.6759 236.118 62.6502 235.227 62.6259C234.322 62.6016 233.469 62.5773 232.647 63.1891C232.173 63.5422 231.993 63.901 231.783 64.317C231.692 64.5 231.596 64.6887 231.469 64.8931C230.444 66.54 228.174 67.7551 225.244 68.2255C224.382 68.3641 223.502 68.4327 222.629 68.4327L222.63 68.427ZM213.218 65.4735C213.743 65.4907 214.37 65.6794 215.382 66.4042C215.812 66.7115 216.257 67.0303 216.796 67.2576C219.264 68.2984 222.341 68.63 225.237 68.164C228.152 67.6965 230.407 66.4914 231.423 64.8574C231.549 64.6558 231.643 64.4671 231.734 64.2856C231.946 63.8639 232.13 63.4993 232.614 63.1376C233.452 62.5144 234.355 62.5387 235.229 62.563C236.111 62.5873 237.022 62.613 237.892 61.9868C238.166 61.7896 239.07 61.0562 239.166 59.9083C239.281 58.5216 238.126 57.5466 237.995 57.4394C237.361 56.9276 236.686 56.8118 236.432 56.7675C235.62 56.6274 234.963 56.8404 234.474 56.9962C233.195 57.4065 233.002 57.9741 232.562 57.8311C231.837 57.5952 232.284 56.0413 231.218 54.9034C230.483 54.1185 229.461 53.9927 229.172 53.9584C227.611 53.7683 225.988 54.676 225.004 56.2429C223.734 53.5353 222.475 52.8276 221.544 52.699C219.312 52.3888 217.89 55.2522 214.859 55.2193C213.443 55.2036 212.296 54.5646 211.556 54.0385C211.528 54.17 211.275 55.285 210.297 55.6925C210.118 55.7668 209.404 56.0813 208.724 55.6925C208.171 55.3765 208.005 54.8047 207.971 54.6718C207.925 54.952 207.266 58.5916 203.894 60.0841C201.142 61.3021 198.584 60.2042 198.11 59.9897C196.676 59.3393 195.793 58.3615 195.361 57.8054C195.05 58.3415 194.539 59.0062 193.749 59.2292C192.836 59.488 192.303 58.9405 191.284 58.849C189.844 58.7203 187.87 59.5394 187.255 61.1262C186.561 62.9175 187.877 64.9789 189.3 65.8524C190.128 66.3613 190.89 66.3827 192.289 66.4042C194.85 66.4428 200.985 65.8624 201.295 65.9625C201.295 65.9625 201.309 65.9667 201.327 65.9725C201.395 65.9939 201.546 66.0425 201.739 66.0983C202.013 66.1783 202.378 66.2784 202.811 66.3756C203.363 66.5 204.012 66.6129 204.843 66.7015C206.422 66.8688 207.67 67.0003 209.23 66.6458C209.609 66.56 209.931 66.4671 210.212 66.3742C210.697 66.2141 210.978 66.0825 211.241 65.9753C211.913 65.7037 212.548 65.445 213.218 65.4678V65.4735Z" fill="#EFF6FF"/>
<path d="M215.413 63.4152C213.612 63.6511 212.052 62.9949 211.088 62.4703C210.333 63.3695 209.129 64.5088 207.707 64.4388C206.454 64.3773 206.301 63.441 204.955 63.0207C202.829 62.3588 201.799 64.2487 197.471 64.9835C195.742 65.2765 194.783 65.4395 193.614 65.0192C192.131 64.4874 191.614 63.4853 190.257 63.3766C189.187 63.2908 188.267 63.8112 187.657 64.263C187.91 64.6947 188.331 65.3108 188.993 65.9012C190.636 67.3651 192.559 67.5895 193.812 67.7368C195.836 67.9741 197.425 67.6353 199.135 67.2722C200.414 67.0006 201.46 66.6689 202.203 66.4059C202.764 66.6103 203.566 66.8848 204.544 67.1593C207.069 67.8683 209.278 68.1628 212.27 68.3744C214.507 68.5331 218.19 68.7175 222.93 68.5016C226.138 68.3558 228.297 68.0956 230.333 66.6103C231.107 66.0456 231.656 65.4552 232.009 65.0278C232.558 65.2208 233.723 65.5367 235.018 65.1293C236.762 64.5803 238.261 62.8691 237.915 62.0085C237.801 61.7241 237.426 61.3838 234.844 61.2837C230.785 61.1279 229.819 61.897 227.165 61.6897C223.85 61.431 223.987 60.1229 221.788 60.4174C218.952 60.7977 218.261 63.0364 215.418 63.4109L215.413 63.4152Z" fill="#EFF6FF"/>
<path d="M243.483 62.2776C243.208 61.9902 242.774 61.5971 242.159 61.2626C241.835 61.0853 241.271 60.7851 240.536 60.695C239.317 60.5464 238.337 61.0639 237.928 61.3155C237.628 60.9938 235.855 59.1568 232.992 59.1311C230.37 59.1082 228.658 60.6193 228.29 60.9609C227.984 60.8008 227.381 60.5407 226.611 60.5921C225.021 60.7008 224.138 62.0474 224.03 62.2161C223.789 62.0732 223.411 61.8744 222.918 61.7201C222.42 61.5642 221.422 61.2512 220.369 61.63C220.006 61.7601 219.22 62.0431 219.037 62.7422C219.032 62.7665 218.889 63.3426 219.211 63.7457C219.767 64.4405 221.267 64.0088 221.631 64.0088C225.122 64.0131 245.807 66.2175 246.412 63.3783C246.481 63.0581 246.315 62.5606 246.006 62.2747C245.305 61.6257 243.916 62.1075 243.48 62.2747L243.483 62.2776Z" fill="#EFF6FF"/>
<path d="M243.284 62.9712C243.039 62.7096 242.638 62.3522 242.063 62.1092C241.1 61.7032 240.198 61.8518 239.747 61.9319C235.623 62.6624 235.297 63.2571 233.773 63.1556C231.507 63.0041 230.96 61.7132 228.378 61.6603C227.546 61.6431 226.695 61.706 225.798 62.0348C225.016 62.3222 224.435 62.7139 224.063 63.0069C223.46 62.7668 221.889 62.2364 220.311 62.9197C219.997 63.0555 219.18 63.4101 219.212 63.7503C219.288 64.5637 224.111 64.1677 231.198 64.8625C231.198 64.8625 241.813 65.9018 245.474 64.2206C245.728 64.1034 246.43 63.7818 246.413 63.3843C246.4 63.0956 246.011 62.8954 245.855 62.8168C244.887 62.3236 243.733 62.7696 243.283 62.9726L243.284 62.9712Z" fill="#EFF6FF"/>
<path d="M79.47 63.7714C77.6329 65.0903 75.675 63.676 73.9258 64.9784C73.2042 65.5158 73.1217 66.0698 72.6822 66.776C70.4184 70.4116 62.6965 71.5929 57.2824 69.3073C55.7457 68.6598 54.9215 67.3043 53.3024 67.4474C51.8481 67.5758 51.4012 68.2068 49.3535 68.6727C47.7417 69.0377 46.4835 68.9167 44.7362 68.7314C41.7873 68.4196 40.921 67.8014 38.8422 67.4052C32.9848 66.2881 30.3291 69.3862 27.763 67.3923C26.5689 66.466 25.9406 64.8592 26.0322 63.4284C26.1806 61.0805 28.2319 59.7524 28.4755 59.6002C29.6459 58.872 30.8364 58.8059 31.3602 58.7839C33.4665 58.6922 34.1222 59.6754 35.1882 59.2553C36.2267 58.8463 36.0289 57.7457 37.1223 55.7059C37.5161 54.9704 39.5125 51.4357 42.8038 50.8028C43.4943 50.6708 44.5219 50.4763 45.4651 50.9954C46.7087 51.6815 47.0256 52.9875 47.5934 52.8609C47.9396 52.7839 47.8773 52.3125 48.3993 52.019C48.9323 51.7181 49.6576 51.8466 50.1338 52.1052C51.1521 52.6592 51.1027 53.8551 51.5441 53.8771C52.0972 53.9046 52.154 52.0208 53.3299 50.4671C54.9929 48.2678 57.8941 48.0477 58.1139 48.0348C58.3007 48.0238 61.2367 47.8881 63.2423 49.9627C64.2735 51.0303 64.7533 52.3675 64.8706 52.7142C65.442 54.4091 65.1416 55.44 65.7112 55.6949C66.3541 55.9829 66.9292 54.7338 68.7846 54.1688C69.2755 54.0202 70.4916 53.6497 71.792 54.1523C73.3617 54.7594 74.0302 56.2434 74.0852 56.3718C74.5907 57.5366 74.1676 58.1712 74.6768 58.5326C75.3581 59.0132 76.2373 57.9475 77.9241 58.2373C78.2208 58.2886 78.9205 58.417 79.5798 58.949C79.6971 59.0444 80.9444 60.0826 80.8198 61.5666C80.7118 62.8524 79.6458 63.6448 79.47 63.7714Z" fill="#EFF6FF"/>
<path d="M63.4206 70.5088C61.2466 70.5088 59.1 70.1071 57.2703 69.3349C56.6988 69.0928 56.2281 68.7571 55.7739 68.4324C55.0229 67.895 54.3123 67.3868 53.3049 67.4767C52.5466 67.5428 52.054 67.7519 51.4807 67.994C50.944 68.2215 50.336 68.4783 49.3579 68.7002C47.7095 69.0744 46.3944 68.935 44.7314 68.7589C42.9401 68.57 41.951 68.2691 40.995 67.9793C40.3338 67.7794 39.7092 67.5886 38.8374 67.4327C36.123 66.9429 34.1944 67.3667 32.6467 67.706C30.9049 68.0875 30.2785 68.0967 29.3792 67.9115C28.9634 67.8252 28.4139 67.7134 27.8498 67.3483C26.5604 66.5137 25.9468 64.8518 26.0036 63.4266C26.0897 61.2199 27.7308 59.8423 28.3059 59.4718C28.5953 59.2847 30.3792 57.8833 32.8079 58.1529C33.4709 58.2263 34.0002 58.4024 34.3519 58.5455C34.2347 57.9255 33.7237 54.8695 35.6798 52.2739C37.6707 49.6344 41.5444 48.365 44.5427 49.7811C46.3047 50.6139 47.2168 52.1162 47.5886 52.8316C47.6216 52.7197 47.8322 52.0428 48.53 51.7035C49.3506 51.3054 50.1235 51.7218 50.2059 51.7677C51.0887 52.2629 51.151 53.2718 51.1528 53.3342C52.3873 50.2122 55.131 48.1027 58.1128 48.0037C60.9169 47.9101 62.873 49.6252 63.243 49.9609C65.6826 52.1841 65.7248 55.1795 65.7248 55.6674C65.9482 55.3079 66.7926 54.0441 68.4813 53.4956C68.8952 53.3617 70.3971 52.8995 72.0327 53.6607C72.2891 53.7799 73.7653 54.4953 74.4284 56.2251C74.8002 57.1954 74.7525 58.0594 74.6958 58.507C74.9961 58.3199 75.4668 58.0795 76.0804 57.9621C76.2636 57.9273 78.1483 57.6008 79.6007 58.9252C79.9102 59.2076 80.9689 60.167 80.8517 61.5684C80.7491 62.7992 79.782 63.5825 79.489 63.7934C78.5585 64.4611 77.5915 64.4354 76.6555 64.4098C75.705 64.3841 74.8075 64.3584 73.9448 65.0004C73.4466 65.3709 73.258 65.7488 73.0382 66.1854C72.9411 66.378 72.8422 66.5761 72.7085 66.7907C71.6316 68.5204 69.2487 69.7953 66.1698 70.2906C65.2632 70.4355 64.3401 70.507 63.4225 70.507L63.4206 70.5088ZM53.5339 67.407C54.0852 67.4254 54.7445 67.6235 55.8068 68.3847C56.2592 68.7076 56.7263 69.0414 57.2922 69.2817C59.8839 70.375 63.1166 70.7216 66.157 70.2337C69.2194 69.7421 71.5876 68.4764 72.6554 66.7614C72.7873 66.5486 72.8862 66.3523 72.9814 66.1615C73.2049 65.7176 73.3972 65.3342 73.9045 64.9564C74.7837 64.3015 75.7343 64.3272 76.6519 64.3529C77.5786 64.3786 78.5347 64.4043 79.4487 63.7476C79.7362 63.5403 80.685 62.7699 80.7876 61.5647C80.9103 60.1083 79.6959 59.0847 79.5586 58.9729C78.8919 58.4354 78.1831 58.3125 77.9175 58.2667C77.064 58.1199 76.3753 58.3419 75.8606 58.507C74.5181 58.938 74.3148 59.5342 73.8532 59.3837C73.0913 59.1361 73.5602 57.5054 72.4411 56.3094C71.6682 55.484 70.5967 55.3538 70.2927 55.3171C68.6516 55.1171 66.9482 56.071 65.9152 57.7164C64.58 54.8713 63.2595 54.1284 62.2814 53.9927C59.9352 53.668 58.4443 56.6745 55.2592 56.6396C53.772 56.6231 52.5668 55.9517 51.7902 55.3978C51.7609 55.5372 51.4953 56.7075 50.4678 57.1349C50.2792 57.2137 49.5301 57.5439 48.8157 57.1349C48.2351 56.8029 48.0611 56.203 48.0245 56.0618C47.9769 56.3553 47.2846 60.1798 43.7423 61.7463C40.8521 63.0248 38.1652 61.8729 37.667 61.6473C36.1615 60.9631 35.2347 59.9377 34.7786 59.3526C34.4526 59.9157 33.916 60.6146 33.0863 60.8494C32.1265 61.1208 31.5679 60.5467 30.4964 60.4495C28.9836 60.3137 26.9102 61.174 26.2655 62.8414C25.5366 64.7234 26.9194 66.8879 28.4139 67.8051C29.2839 68.3389 30.0843 68.3627 31.5532 68.3847C34.242 68.4251 40.6854 67.8161 41.0115 67.9206C41.0115 67.9206 41.0261 67.9261 41.0463 67.9316C41.1159 67.9536 41.2752 68.005 41.4785 68.0637C41.7661 68.1481 42.1489 68.2526 42.6049 68.3554C43.1855 68.4856 43.8669 68.6048 44.7405 68.6965C46.3981 68.8726 47.7077 69.0102 49.3469 68.6379C49.7462 68.548 50.0832 68.4507 50.3781 68.3535C50.8873 68.1848 51.184 68.0472 51.4587 67.9353C52.1638 67.6491 52.8324 67.3795 53.5357 67.4034L53.5339 67.407Z" fill="#EFF6FF"/>
<path d="M55.8403 65.244C53.9483 65.4917 52.309 64.8038 51.2962 64.2517C50.5031 65.1963 49.2375 66.3923 47.7448 66.3208C46.4279 66.2566 46.2685 65.2734 44.8527 64.8313C42.6219 64.1361 41.5376 66.1208 36.9916 66.8931C35.1766 67.2012 34.1692 67.3718 32.9402 66.9316C31.3834 66.3721 30.8394 65.3211 29.4126 65.2073C28.2899 65.1175 27.3228 65.6641 26.6836 66.1392C26.9492 66.5923 27.3906 67.2398 28.0866 67.8598C29.8119 69.3969 31.8321 69.6335 33.149 69.7876C35.2755 70.0353 36.944 69.6812 38.7389 69.2997C40.0815 69.0135 41.1804 68.6668 41.9607 68.3899C42.5486 68.6045 43.393 68.8925 44.4205 69.1823C47.0726 69.927 49.3932 70.237 52.5343 70.459C54.8842 70.6259 58.7525 70.8185 63.7306 70.5929C67.0989 70.4388 69.3682 70.1673 71.5056 68.6063C72.3189 68.0138 72.8958 67.392 73.2658 66.9444C73.8427 67.1481 75.0662 67.4801 76.4252 67.0508C78.2568 66.4749 79.8319 64.6772 79.4675 63.7729C79.3466 63.4739 78.9528 63.1162 76.2421 63.0117C71.98 62.8484 70.9635 63.6555 68.1777 63.4391C64.6959 63.1676 64.8387 61.7919 62.531 62.1019C59.5529 62.5017 58.8276 64.8533 55.8403 65.2459V65.244Z" fill="#EFF6FF"/>
<path d="M85.3214 64.0498C85.032 63.7472 84.5759 63.3363 83.9312 62.9841C83.5905 62.7988 82.9989 62.4833 82.2279 62.3879C80.9476 62.232 79.9182 62.775 79.4878 63.0391C79.1728 62.7016 77.3119 60.7719 74.3027 60.7444C71.548 60.7206 69.7512 62.3072 69.3629 62.6649C69.0424 62.4962 68.4087 62.2229 67.5991 62.2779C65.9287 62.3916 65.002 63.8059 64.8884 63.9838C64.6338 63.8334 64.2382 63.6243 63.7217 63.4628C63.1979 63.2996 62.1502 62.9712 61.044 63.3693C60.663 63.5069 59.837 63.804 59.6465 64.5377C59.6392 64.5634 59.4908 65.1688 59.8296 65.5925C60.4121 66.3207 61.9872 65.8676 62.3719 65.8695C66.0386 65.875 87.7647 68.1899 88.4002 65.2073C88.4716 64.8716 88.2977 64.3488 87.9735 64.048C87.2372 63.3656 85.7793 63.8737 85.3214 64.048V64.0498Z" fill="#EFF6FF"/>
<path d="M85.1123 64.7754C84.8541 64.5002 84.4328 64.1242 83.8284 63.8692C82.8174 63.4437 81.8704 63.5996 81.3979 63.6821C77.0663 64.4489 76.7219 65.0744 75.1248 64.968C72.7438 64.8084 72.1705 63.4528 69.4579 63.3978C68.5843 63.3795 67.6905 63.4455 66.7491 63.7903C65.9267 64.0912 65.3168 64.5039 64.9266 64.812C64.2948 64.5589 62.6427 64.0031 60.9869 64.7203C60.6573 64.8634 59.7983 65.2358 59.8331 65.5916C59.9136 66.4464 64.9779 66.03 72.4214 66.7601C72.4214 66.7601 83.5701 67.8515 87.4146 66.0851C87.682 65.9622 88.4183 65.6228 88.4018 65.2064C88.389 64.9019 87.9787 64.6928 87.8157 64.6103C86.7992 64.093 85.5867 64.5608 85.1142 64.7735L85.1123 64.7754Z" fill="#EFF6FF"/>
<path d="M181.146 39.4248C177.952 41.7929 173.475 41.2294 172.369 41.0651C170.634 43.3606 168.757 44.6864 167.496 45.4297C159.924 49.8979 150.113 47.8133 146.027 46.9456C143.768 46.4651 141.97 45.8947 140.811 45.4902C139.933 45.9603 137.077 47.3518 133.3 46.9352C130.838 46.6638 129.072 45.7443 128.183 45.1981C122.578 47.6318 117.687 48.2714 114.718 48.4563C109.817 48.7605 103.765 49.165 99.9278 45.7339C99.4793 45.3329 96.6234 42.6969 97.0417 39.0514C97.1201 38.36 97.5727 35.4042 100.433 33.7604C102.361 32.6524 104.495 32.6507 105 32.6507C105.682 32.6507 106.661 32.6507 107.816 33.0136C108.799 33.3231 109.499 33.7673 109.65 33.6204C109.795 33.4786 109.165 33.0465 108.922 32.1822C108.851 31.9299 108.628 31.1607 109.051 30.5401C109.744 29.5203 111.555 29.5514 111.778 29.5566C113.296 29.5946 114.209 30.407 114.525 30.1253C114.766 29.9109 114.217 29.4529 114.233 28.5558C114.235 28.4123 114.27 27.4703 115.04 26.7979C115.81 26.1272 116.993 25.9734 117.888 26.141C119.101 26.3675 119.489 27.1246 119.996 26.9482C120.53 26.7616 120.247 25.8696 120.685 24.6268C120.816 24.2552 121.413 22.4852 123.111 21.8111C125.06 21.0384 127.039 21.939 127.322 22.0721C129.291 23.0037 129.792 24.7772 130.691 24.6061C131.238 24.5024 131.14 23.8611 131.966 23.4618C132.811 23.0539 133.957 23.2267 134.711 23.5793C136.324 24.333 136.246 25.9578 136.944 25.9872C137.819 26.0235 137.909 23.467 139.772 21.3547C142.404 18.3678 146.996 18.0688 147.344 18.0498C147.642 18.0342 152.287 17.8493 155.459 20.6685C157.09 22.1187 157.85 23.9337 158.035 24.4073C158.94 26.7097 158.464 28.1081 159.367 28.4555C160.386 28.8462 161.294 27.1488 164.232 26.383C165.01 26.1808 166.935 25.6778 168.992 26.3623C171.476 27.1868 172.534 29.2022 172.623 29.3768C173.421 30.9602 172.753 31.8227 173.56 32.3101C174.638 32.9635 176.03 31.515 178.7 31.9109C179.171 31.98 180.277 32.1546 181.319 32.8771C181.504 33.005 183.479 34.4172 183.282 36.4327C183.133 37.9521 181.842 38.9097 181.144 39.4265L181.146 39.4248Z" fill="white"/>
<path d="M181.349 32.8434C181.021 32.6083 180.034 32.0638 178.708 31.8685C177.3 31.661 176.25 31.9584 175.408 32.1986C174.64 32.4164 174.082 32.5754 173.588 32.2747C173.191 32.0344 173.167 31.7043 173.133 31.2064C173.099 30.7276 173.059 30.133 172.667 29.3569C172.554 29.1322 171.492 27.1461 169.01 26.3216C166.939 25.6337 165.034 26.1298 164.22 26.3424C162.711 26.7365 161.726 27.3795 161.006 27.8496C160.316 28.3008 159.859 28.5981 159.387 28.4166C158.912 28.2334 158.838 27.7442 158.715 26.9335C158.612 26.2611 158.488 25.4245 158.081 24.3926C157.818 23.7202 157.035 22.0107 155.493 20.6382C152.279 17.7827 147.541 17.997 147.34 18.0074C143.383 18.2131 140.896 20.3392 139.733 21.3279C138.46 22.4082 137.662 23.5024 137.181 24.275C136.942 24.0123 136.075 23.1238 134.572 22.8819C134.233 22.8265 133.287 22.6865 132.233 23.0875C131.429 23.3952 130.952 23.8688 130.735 24.1177C130.574 23.6718 130.035 22.3771 128.519 21.5405C126.443 20.3962 124.168 21.0099 123.541 21.181C121.751 21.665 120.671 22.6883 120.184 23.2414C119.454 24.0711 119.134 24.8939 118.986 25.4055C118.614 25.3087 117.998 25.1912 117.248 25.2517C116.805 25.2862 115.542 25.3882 114.609 26.2819C113.849 27.013 113.734 27.8635 113.71 28.1884C112.413 28.1228 110.593 28.1314 108.475 28.4823C107.021 28.7225 105.066 29.0389 103.22 29.9913C99.0948 32.1174 97.6065 36.2883 97.8237 36.4059C97.9504 36.475 98.5478 35.0645 100.394 34.2487C101.892 33.5866 104.038 33.393 105.661 33.9427C105.967 34.0464 107.244 34.5131 108.171 34.8571C108.799 35.0887 108.918 35.1406 109.159 35.1993C109.617 35.3117 110.655 35.5571 111.814 35.3082C114.108 34.8139 115.112 32.7604 115.257 32.4475C115.898 32.3646 118.097 32.0085 119.728 30.3405C120.639 29.4088 121.009 28.4391 121.17 27.8617C121.604 28.1936 122.362 28.6897 123.442 29.006C123.945 29.153 125.47 29.5834 127.121 29.153C129.842 28.4408 130.791 25.9413 130.882 25.689C131.091 25.5179 132.05 24.7694 133.496 24.7884C133.828 24.7919 134.86 24.8455 135.713 25.4764C136.845 26.3147 136.712 27.4711 137.199 27.4987C137.658 27.5247 138.012 26.5135 138.748 25.0512C139.409 23.7375 140.16 22.4929 140.544 21.964C142.515 19.2398 146.857 18.6573 147.231 18.6107C147.669 18.5571 152.273 18.0541 155.427 20.6953C155.972 21.1516 157.273 22.5845 157.993 24.4185C158.397 25.4453 158.522 26.2767 158.622 26.9456C158.745 27.7546 158.825 28.2904 159.348 28.4909C159.871 28.6914 160.37 28.3665 161.062 27.9153C161.776 27.4486 162.753 26.8108 164.248 26.4201C165.052 26.211 166.935 25.7201 168.978 26.3977C171.424 27.2101 172.469 29.1685 172.582 29.3898C172.966 30.152 173.008 30.7397 173.041 31.2116C173.075 31.7146 173.101 32.0776 173.535 32.3404C174.068 32.6636 174.674 32.4925 175.438 32.2747C176.271 32.0379 177.308 31.7423 178.694 31.948C179.116 32.0102 180.239 32.1761 181.293 32.9056C183.163 34.2003 183.223 36.4301 183.239 36.4266C183.256 36.4231 183.251 34.2037 181.351 32.8434H181.349Z" fill="white"/>
<path d="M182.474 34.247C181.249 33.6126 179.52 35.6869 176.754 36.5148C172.708 37.7283 168.436 38.2313 164.039 38.0619C160.524 37.927 156.753 37.6505 153.396 36.6946C150.023 35.7353 147.159 33.9324 143.455 34.1087C136.331 34.4475 130.726 39.0679 123.932 40.404C118.785 41.4152 113.564 40.0773 109.532 37.3117C108.969 37.6539 108.102 38.1155 106.96 38.4836C105.576 38.9279 103.454 39.6106 101.282 38.8777C99.1943 38.1725 98.2068 36.5477 97.889 35.9531C97.4867 36.7603 96.8914 38.2676 97.0523 40.162C97.0523 40.162 97.3219 43.327 99.9284 45.7331C103.669 49.1849 109.898 48.7545 114.719 48.4555C117.685 48.2706 122.579 47.631 128.184 45.1972C129.075 45.7434 130.838 46.663 133.3 46.9344C137.077 47.351 139.931 45.9595 140.812 45.4894C141.97 45.8938 143.769 46.466 146.027 46.9465C150.116 47.816 159.926 49.9006 167.497 45.4306C168.756 44.6873 170.632 43.3615 172.37 41.066C173.474 41.232 177.951 41.7938 181.147 39.4257C181.816 38.9279 183.15 37.9564 183.285 36.4319C183.301 36.2573 183.413 34.7327 182.476 34.2487L182.474 34.247Z" fill="white"/>
<path d="M145.149 30.3263C148.123 29.6642 150.694 30.188 151.627 30.3868C153.755 30.8414 155.331 31.6348 156.287 32.2052C156.339 31.7281 156.8 28.2019 160.452 26.1311C164.159 24.0292 168.137 25.132 168.911 25.3464C173.485 26.6134 175.273 30.1344 175.536 30.6771C176.097 30.5475 178.838 29.9667 181.495 31.3253C182.211 31.6918 185.059 33.2907 184.999 35.9526C184.93 38.9447 181.25 40.4641 180.998 40.5643C178.191 41.6775 174.637 41.0466 171.978 38.9793C170.317 40.8132 168.652 41.9247 167.525 42.5712C157.618 48.2615 144.672 43.6394 143.266 43.1174C142.227 42.7302 141.406 42.362 140.899 42.1235C139.811 42.7872 137.098 44.2392 133.462 44.0957C132.076 44.0404 127.716 43.8675 126.258 41.1555C125.379 39.5203 125.873 37.5584 126.933 36.2188C128.387 34.3814 130.68 34.0011 131.302 33.9078C134.622 33.4048 137.098 35.2007 137.452 35.4652C138.031 34.6337 140.459 31.3703 145.149 30.328V30.3263Z" fill="white"/>
</g>
<defs>
<clipPath id="clip0_9977_4397">
<rect width="260" height="260" rx="130" fill="white"/>
</clipPath>
</defs>
</svg>
