<svg viewBox="0 0 32 32" fill="none" xmlns="http://www.w3.org/2000/svg">
<g clip-path="url(#clip0_1193_17957)">
<rect width="32" height="32" fill="#DCEBFD"/>
<g clip-path="url(#clip1_1193_17957)">
<path d="M13.627 18.7542L14.1871 30.7289L20.4655 30.4356L20.0112 20.7099L18.3979 20.2148L13.627 18.7542Z" fill="#FDA894"/>
<path d="M13.9707 21.0887C13.9707 21.0887 14.5407 22.5885 16.2258 23.5736C17.263 24.1784 18.9836 23.9463 20.1501 23.6779L20.011 20.7107L18.3977 20.2148C16.3286 20.595 13.9707 21.0887 13.9707 21.0887Z" fill="#BF3131"/>
<path d="M17.4594 7.14839C18.6501 7.34419 19.6389 8.14326 20.5113 8.95594C21.4578 9.83666 21.9476 10.9215 22.1601 12.2233C22.3264 13.2469 22.3067 14.2924 22.2357 15.3266C22.1472 16.6873 21.8237 17.6822 21.3648 18.9598C20.9059 20.2374 20.004 21.2565 18.9192 22.0268C16.7979 23.5282 14.2049 22.4404 12.8388 20.4672C11.1107 17.9725 10.7002 15.3871 10.8998 12.3382C10.964 11.3479 11.1145 10.3235 11.6512 9.50327C12.3429 8.4449 13.557 7.90135 14.7371 7.5158C15.608 7.23155 16.525 7.00249 17.4307 7.14461L17.4594 7.14839Z" fill="#FDA894"/>
<path d="M10.3079 9.2863C10.3079 9.2863 10.0312 10.7983 10.1567 11.8793C10.2822 12.9604 10.4984 13.7375 10.8552 13.863C11.0586 13.9348 11.2733 12.5824 11.4207 11.403C11.4871 10.8714 11.701 10.3689 12.038 9.95233C12.3751 9.53579 12.8219 9.22182 13.328 9.0459C14.1672 8.7556 15.1703 8.46304 15.9959 8.38215C16.8388 8.29823 17.9614 8.48874 18.9071 8.71175C19.4512 8.84119 19.9459 9.12609 20.3308 9.53173C20.7158 9.93738 20.9745 10.4462 21.0753 10.9963C21.2832 12.1137 21.5901 13.3588 21.9326 13.386C22.5547 13.4366 22.5449 13.6944 22.5449 13.6944L22.2886 9.86538C22.2886 9.86538 18.3296 6.21929 17.0603 6.34478C15.791 6.47027 10.3079 9.2863 10.3079 9.2863Z" fill="#182653"/>
<path d="M18.3292 14.6213C18.3111 15.0937 18.522 15.4846 18.7994 15.4952C19.0769 15.5058 19.3165 15.1315 19.3347 14.6598C19.3528 14.1881 19.1419 13.7972 18.8645 13.7867C18.587 13.7761 18.3474 14.1495 18.3292 14.6213Z" fill="black"/>
<path d="M13.9856 14.6251C14.0158 15.096 14.2661 15.4634 14.5428 15.4453C14.8194 15.4272 15.0198 15.0303 14.9888 14.5593C14.9578 14.0883 14.7083 13.7209 14.4309 13.739C14.1534 13.7572 13.9546 14.1541 13.9856 14.6251Z" fill="black"/>
<path d="M16.4892 14.9873C16.5648 14.8119 16.8566 14.9011 16.7772 15.0787C16.6472 15.3698 16.527 15.6654 16.4234 15.967C16.3622 16.1469 16.2624 16.3767 16.313 16.5665C16.3637 16.7562 16.5496 16.8885 16.691 16.9951C16.8422 17.1116 16.6842 17.3671 16.5292 17.2499C16.2646 17.0496 16.0001 16.8228 16.0001 16.4629C15.9955 15.9731 16.2956 15.4235 16.4892 14.9873Z" fill="#BF3131"/>
<path d="M18.4884 11.8869C18.0666 11.9262 17.6107 12.1515 17.6909 12.6474C17.7438 12.9747 18.0689 12.9301 18.3206 12.8931C18.8203 12.8175 19.3238 12.974 19.8129 12.8984C19.8971 12.8895 19.9777 12.8596 20.0473 12.8114C20.2597 12.6451 20.0813 12.4448 19.9104 12.3367C19.6489 12.1595 19.3615 12.0239 19.0584 11.9345C18.8727 11.8853 18.6798 11.8692 18.4884 11.8869Z" fill="black"/>
<path d="M14.291 11.9693C13.7906 11.9942 13.3362 12.2853 12.984 12.624C12.9136 12.6781 12.8655 12.7561 12.8486 12.8432C12.8487 12.8864 12.8605 12.9287 12.8827 12.9657C12.905 13.0027 12.9368 13.033 12.9749 13.0534C13.0515 13.0935 13.1371 13.1135 13.2236 13.1116C13.6727 13.1237 14.1308 12.9506 14.5844 12.9226C14.796 12.9097 15.1839 12.9853 15.2882 12.7275C15.4651 12.2921 14.9639 12.0562 14.5624 11.9882C14.4729 11.9723 14.3819 11.9659 14.291 11.9693Z" fill="black"/>
<path d="M21.3215 13.8502C21.3215 13.8502 21.9164 12.6066 22.9975 13.0292C24.5147 13.6211 23.6673 16.803 22.0336 17.2362C20.3999 17.6694 21.3215 13.8502 21.3215 13.8502Z" fill="#FDA894"/>
<path d="M15.2452 17.9445C15.3987 18.1521 15.5989 18.3208 15.8295 18.4368C16.0602 18.5529 16.3149 18.6131 16.5731 18.6127C16.8313 18.6122 17.0858 18.5511 17.316 18.4343C17.5463 18.3174 17.7459 18.1481 17.8987 17.94C18.0151 17.7888 18.2767 17.94 18.1587 18.0912C17.3272 19.1783 15.822 19.1806 14.9836 18.0965C14.8664 17.943 15.128 17.7926 15.2452 17.9445Z" fill="#BF3131"/>
<path d="M22.2602 14.4376C22.4133 14.7142 22.49 15.0266 22.4824 15.3426C22.4748 15.6587 22.3832 15.9671 22.2171 16.236C22.1158 16.4016 21.8542 16.2504 21.9555 16.0848C22.0961 15.8624 22.1744 15.6062 22.1821 15.3432C22.1898 15.0801 22.1267 14.8198 21.9994 14.5895C21.9071 14.4187 22.1695 14.2659 22.2602 14.4376Z" fill="#BF3131"/>
<path d="M11.9441 14.2947C11.9441 14.2947 11.2078 13.1282 10.1849 13.6733C8.74856 14.4376 9.95813 17.4993 11.6304 17.7404C13.3026 17.9816 11.9441 14.2947 11.9441 14.2947Z" fill="#FDA894"/>
<path d="M11.0802 14.9864C10.9603 15.2791 10.9205 15.5984 10.9649 15.9116C11.0093 16.2247 11.1362 16.5204 11.3327 16.7682C11.4522 16.9194 11.6949 16.7403 11.5739 16.5868C11.4085 16.3823 11.3011 16.137 11.2629 15.8768C11.2248 15.6165 11.2572 15.3508 11.3569 15.1073C11.4295 14.9267 11.1528 14.8057 11.0802 14.9864Z" fill="#BF3131"/>
<path d="M22.2897 9.86465C22.2897 9.86465 16.5715 7.60125 16.393 7.62544C16.2517 7.64661 12.5633 8.6634 11.0006 9.09506C10.5781 9.20997 10.3097 9.28557 10.3097 9.28557C9.8605 8.65222 9.47533 7.97582 9.15983 7.26635C9.08423 7.10986 9.02073 6.94657 8.95723 6.77799C8.93606 6.72356 8.91489 6.6661 8.89675 6.60865C8.834 6.43024 8.77655 6.25258 8.72817 6.06812C8.21183 4.12828 8.81284 2.3298 11.0067 2.03648C12.2677 1.8679 13.2489 2.40465 13.6708 2.69797C13.7497 2.7495 13.8254 2.8058 13.8976 2.86655C13.9191 2.80386 13.9443 2.74251 13.9732 2.68284C14.1931 2.22926 14.9053 1.14367 16.5684 1.3939C17.7992 1.58138 18.4002 2.54072 18.6595 3.13795C18.7284 3.29607 18.7841 3.45968 18.8258 3.62706C18.8445 3.45821 18.8892 3.29324 18.9581 3.13795V3.1319C19.1002 2.82951 19.3656 2.50141 19.8849 2.44698C21.0499 2.32678 21.7529 3.26797 21.9261 4.61967C22.208 6.77194 22.2897 9.86465 22.2897 9.86465Z" fill="#182653"/>
<path d="M11.0069 8.90831C11.0069 8.96879 11.0069 9.03154 11.0008 9.09504C10.9192 10.257 10.1436 11.7296 10.1436 11.7296C10.1436 11.7296 7.49083 10.8225 7.10755 8.90831C6.90268 7.89152 7.73275 7.01005 8.67092 6.81349C8.76514 6.79293 8.86104 6.78103 8.95743 6.77796C8.99044 6.77294 9.02384 6.77091 9.05722 6.77192H9.07234C10.1436 6.77796 11.0069 7.73428 11.0069 8.90831Z" fill="#182653"/>
<path d="M10.1617 8.22035C9.82981 7.90057 9.49794 7.58004 9.16001 7.26631C8.99975 7.11511 8.83671 6.96391 8.6709 6.81272C8.76512 6.79215 8.86102 6.78026 8.95741 6.77719C8.93625 6.72276 8.91508 6.6653 8.89694 6.60785C8.95741 6.66228 9.01487 6.71671 9.07232 6.77114C9.51306 7.17483 9.94775 7.58836 10.3756 8.0049C10.5147 8.13871 10.3008 8.35567 10.1617 8.22035Z" fill="black"/>
<path d="M14.4373 4.81245C14.4736 5.0022 14.178 5.05663 14.1349 4.86688C13.9903 4.14265 13.8343 3.42044 13.667 2.70024C13.7459 2.75178 13.8217 2.80808 13.8938 2.86882C13.9153 2.80613 13.9405 2.74479 13.9694 2.68512C14.1417 3.38894 14.2929 4.09805 14.4373 4.81245Z" fill="black"/>
<path d="M18.9945 5.03923C18.9945 5.23276 18.6922 5.22974 18.6922 5.03318C18.6922 4.39967 18.6831 3.76918 18.668 3.13794C18.7369 3.29607 18.7926 3.45967 18.8343 3.62706C18.853 3.4582 18.8977 3.29323 18.9666 3.13794C18.9852 3.77246 18.9945 4.40622 18.9945 5.03923Z" fill="black"/>
<path d="M25.2945 76.1805C20.9924 76.2098 15.98 76.2357 11.842 76.2343V73.9891H5.77138C5.76904 74.6988 5.7668 75.4074 5.76465 76.1134V76.4664C5.73441 87.9044 5.72836 102.778 5.72836 105.377C5.72836 105.537 5.66464 105.691 5.55122 105.804C5.43781 105.918 5.28398 105.981 5.12358 105.981H-6.22519C-6.30557 105.981 -6.38516 105.965 -6.45928 105.934C-6.53341 105.903 -6.60059 105.858 -6.6569 105.8C-6.71321 105.743 -6.75751 105.675 -6.78723 105.6C-6.81695 105.526 -6.83148 105.446 -6.82997 105.365C-6.81084 104.551 -6.77371 102.857 -6.72331 100.559C-6.46307 88.691 -5.84924 60.6983 -5.53574 54.3775C-5.13431 46.2295 -4.2861 34.5451 -2.9707 33.0029C-1.20473 30.9262 2.94106 28.9834 5.86595 27.7942L6.25755 27.6339C7.7454 27.0417 8.8442 26.6703 9.01781 26.6123L13.1884 24.7635L13.484 24.6334L13.8975 24.4497C13.8975 24.4497 15.1585 25.5837 15.9311 26.0222C16.0067 26.0637 16.0702 26.0978 16.1307 26.1242C16.1793 26.1478 16.2299 26.167 16.2819 26.1817C16.3184 26.1911 16.3561 26.1951 16.3937 26.1938C16.4018 26.1951 16.4099 26.1951 16.4179 26.1938H16.424C16.5388 26.1642 16.6509 26.1248 16.7589 26.0758C17.7636 25.6449 20.1752 24.1995 20.1752 24.1995C20.1752 24.1995 20.3316 24.2471 20.6068 24.3288C20.6689 24.3465 20.737 24.3675 20.8118 24.3905L20.812 24.3906C20.8392 24.3989 20.8673 24.4076 20.8964 24.4165C21.9517 24.732 23.9712 25.3369 25.6579 25.8444C25.9199 25.8931 26.18 25.9512 26.441 26.0094C26.5008 26.0228 26.5607 26.0361 26.6206 26.0494C26.6703 26.0607 26.7201 26.072 26.77 26.0832C26.8893 26.1102 27.0091 26.1372 27.1301 26.1665C27.1489 26.1708 27.1677 26.1751 27.1866 26.1794C27.2745 26.1994 27.364 26.2197 27.4529 26.2421C31.8376 27.2801 36.4068 28.8011 40.0461 31.4629C41.8294 32.7663 43.1305 34.251 44.0837 35.8839C44.1382 35.9746 44.1896 36.0676 44.241 36.1614C46.0122 39.3486 46.5089 43.0755 46.6911 47.08C46.8272 50.1545 46.8665 53.592 46.8544 57.1262V57.9646C46.8354 61.7007 46.7635 65.522 46.6957 69.1256C46.6559 71.2417 46.6175 73.2827 46.5921 75.1873C46.5227 80.4173 46.4577 87.1888 46.3958 93.6393C46.3552 97.8675 46.3159 101.958 46.2776 105.386C46.2758 105.544 46.2119 105.696 46.0997 105.807C45.9874 105.919 45.8358 105.982 45.6773 105.984H26.2313C26.0726 105.984 25.9202 105.921 25.8071 105.81C25.6939 105.699 25.6291 105.547 25.6265 105.389C25.6181 104.741 25.6033 103.186 25.5832 101.085C25.5379 96.3473 25.4661 88.8324 25.3823 82.6654V82.3631C25.3542 80.3564 25.3248 78.2806 25.2945 76.1805Z" fill="#2B68E8"/>
<path d="M15.9282 26.0252C16.0387 26.0931 16.1573 26.1467 16.2813 26.1847L13.5719 27.5757C13.5497 27.5883 13.5247 27.5949 13.4993 27.5949C13.4738 27.5949 13.4488 27.5883 13.4267 27.5757C13.4052 27.5634 13.3871 27.546 13.3739 27.5251C13.3607 27.5041 13.3529 27.4802 13.3511 27.4555L13.1855 24.7703L13.4811 24.6403L13.6384 27.2106L15.9282 26.0252Z" fill="black"/>
<path d="M20.8954 24.4165L19.1211 28.1132C19.1105 28.1332 19.0959 28.1507 19.0782 28.1647C19.0605 28.1788 19.0401 28.189 19.0183 28.1949C19.0073 28.1962 18.9961 28.1962 18.9851 28.1949C18.9508 28.1954 18.9175 28.1836 18.8913 28.1616L16.417 26.1908C16.5345 26.1638 16.6489 26.1243 16.7579 26.0728L18.9306 27.8116L20.6059 24.3288C20.6905 24.353 20.7866 24.3832 20.8954 24.4165Z" fill="black"/>
<path d="M17.2832 27.9711C17.2832 28.2735 17.0972 28.5245 16.8682 28.5245C16.6391 28.5245 16.4531 28.2773 16.4531 27.9711C16.4531 27.6649 16.6391 27.4177 16.8682 27.4177C17.0972 27.4177 17.2832 27.6657 17.2832 27.9711Z" fill="white"/>
<path d="M15.1944 59.4524L15.2035 60.4124H14.9011L14.892 59.4554C14.7801 47.7105 14.7983 37.0701 16.1265 26.1273C16.1752 26.1508 16.2257 26.17 16.2777 26.1847C16.3142 26.1941 16.3519 26.1982 16.3896 26.1968C16.3976 26.1981 16.4058 26.1981 16.4138 26.1968H16.4199C15.1014 37.1063 15.0833 47.7286 15.1944 59.4524Z" fill="black"/>
</g>
</g>
<defs>
<clipPath id="clip0_1193_17957">
<rect width="32" height="32" fill="white"/>
</clipPath>
<clipPath id="clip1_1193_17957">
<rect width="84.9048" height="113.662" fill="white" transform="translate(-38.0488 1.35382)"/>
</clipPath>
</defs>
</svg>
