<svg viewBox="0 0 600 340" fill="none" xmlns="http://www.w3.org/2000/svg">
<path d="M26.25 338L92 36L159 338H26.25Z" fill="#2144AC"/>
<rect x="90" y="18" width="420" height="320" rx="20" fill="white"/>
<rect x="120" y="48" width="360" height="260" rx="10" fill="#F8FAFC"/>
<g style="mix-blend-mode:multiply">
<rect x="120" y="48" width="360" height="260" rx="10" fill="url(#paint0_linear_1802_53371)"/>
</g>
<path d="M120 58C120 52.4772 124.477 48 130 48H470C475.523 48 480 52.4772 480 58V109H120V58Z" fill="url(#paint1_linear_1802_53371)"/>
<path d="M133.177 61.3541C135.484 61.3541 137.354 59.4839 137.354 57.177C137.354 54.8701 135.484 53 133.177 53C130.87 53 129 54.8701 129 57.177C129 59.4839 130.87 61.3541 133.177 61.3541Z" fill="white"/>
<path d="M145.105 61.3541C147.412 61.3541 149.282 59.4839 149.282 57.177C149.282 54.8701 147.412 53 145.105 53C142.798 53 140.928 54.8701 140.928 57.177C140.928 59.4839 142.798 61.3541 145.105 61.3541Z" fill="white"/>
<path d="M157.033 61.3541C159.34 61.3541 161.211 59.4839 161.211 57.177C161.211 54.8701 159.34 53 157.033 53C154.727 53 152.856 54.8701 152.856 57.177C152.856 59.4839 154.727 61.3541 157.033 61.3541Z" fill="white"/>
<g opacity="0.3">
<path d="M409 49.5001L510 170V112L409 49.5001Z" fill="url(#paint2_linear_1802_53371)"/>
</g>
<path d="M411.217 11.6808L406.38 17.3095C397.99 27.0743 399.104 41.7919 408.869 50.1822L518.177 144.102C527.942 152.492 542.659 151.378 551.05 141.613L555.886 135.984C564.276 126.219 563.162 111.502 553.397 103.112L444.089 9.19181C434.324 0.801608 419.607 1.91597 411.217 11.6808Z" fill="#EDB26B"/>
<path d="M462.077 51.774L457.016 57.664C453.286 62.0052 453.781 68.5484 458.122 72.2785L492.058 101.437C496.399 105.167 502.942 104.671 506.672 100.33L511.733 94.4401C515.463 90.0989 514.968 83.5557 510.627 79.8256L476.691 50.6674C472.35 46.9373 465.807 47.4327 462.077 51.774Z" fill="#DB9645"/>
<path d="M458.904 51.7681L453.843 57.658C450.113 61.9993 450.608 68.5425 454.949 72.2726L488.885 101.431C493.226 105.161 499.769 104.665 503.499 100.324L508.56 94.4343C512.29 90.093 511.795 83.5498 507.454 79.8197L473.518 50.6615C469.177 46.9314 462.634 47.4268 458.904 51.7681Z" fill="#FCF0D7"/>
<path d="M508.44 116.813C509.072 116.813 509.678 116.561 510.125 116.115C510.572 115.668 510.823 115.062 510.823 114.43C510.823 113.798 510.572 113.192 510.125 112.745C509.678 112.298 509.072 112.047 508.44 112.047C507.808 112.047 507.202 112.298 506.756 112.745C506.309 113.192 506.058 113.798 506.058 114.43C506.058 115.062 506.309 115.668 506.756 116.115C507.202 116.561 507.808 116.813 508.44 116.813Z" fill="#DB9645"/>
<path d="M515.847 123.573C516.449 123.526 517.011 123.254 517.421 122.811C517.831 122.368 518.059 121.787 518.059 121.183C518.059 120.579 517.831 119.998 517.421 119.555C517.011 119.112 516.449 118.84 515.847 118.793C515.245 118.84 514.683 119.112 514.273 119.555C513.863 119.998 513.635 120.579 513.635 121.183C513.635 121.787 513.863 122.368 514.273 122.811C514.683 123.254 515.245 123.526 515.847 123.573Z" fill="#DB9645"/>
<path d="M523.799 131.798C524.431 131.798 525.037 131.547 525.484 131.1C525.931 130.653 526.182 130.047 526.182 129.415C526.182 128.783 525.931 128.177 525.484 127.73C525.037 127.283 524.431 127.032 523.799 127.032C523.167 127.032 522.561 127.283 522.114 127.73C521.667 128.177 521.416 128.783 521.416 129.415C521.416 130.047 521.667 130.653 522.114 131.1C522.561 131.547 523.167 131.798 523.799 131.798Z" fill="#DB9645"/>
<path d="M516.378 108.831C517.01 108.831 517.616 108.58 518.063 108.133C518.51 107.686 518.761 107.08 518.761 106.448C518.761 105.816 518.51 105.21 518.063 104.763C517.616 104.317 517.01 104.066 516.378 104.066C515.746 104.066 515.14 104.317 514.693 104.763C514.246 105.21 513.995 105.816 513.995 106.448C513.995 107.08 514.246 107.686 514.693 108.133C515.14 108.58 515.746 108.831 516.378 108.831Z" fill="#DB9645"/>
<path d="M523.799 115.621C524.431 115.621 525.037 115.37 525.484 114.923C525.931 114.476 526.182 113.87 526.182 113.238C526.182 112.606 525.931 112 525.484 111.553C525.037 111.107 524.431 110.856 523.799 110.856C523.167 110.856 522.561 111.107 522.114 111.553C521.667 112 521.416 112.606 521.416 113.238C521.416 113.87 521.667 114.476 522.114 114.923C522.561 115.37 523.167 115.621 523.799 115.621Z" fill="#DB9645"/>
<path d="M531.751 123.831C532.383 123.831 532.989 123.58 533.436 123.133C533.883 122.686 534.134 122.08 534.134 121.448C534.134 120.816 533.883 120.21 533.436 119.763C532.989 119.317 532.383 119.066 531.751 119.066C531.119 119.066 530.513 119.317 530.067 119.763C529.62 120.21 529.369 120.816 529.369 121.448C529.369 122.08 529.62 122.686 530.067 123.133C530.513 123.58 531.119 123.831 531.751 123.831Z" fill="#DB9645"/>
<path d="M524.33 100.923C524.932 100.876 525.494 100.604 525.904 100.161C526.314 99.7177 526.542 99.1363 526.542 98.5326C526.542 97.9289 526.314 97.3475 525.904 96.9044C525.494 96.4614 524.932 96.1893 524.33 96.1427C523.728 96.1893 523.166 96.4614 522.756 96.9044C522.346 97.3475 522.118 97.9289 522.118 98.5326C522.118 99.1363 522.346 99.7177 522.756 100.161C523.166 100.604 523.728 100.876 524.33 100.923Z" fill="#DB9645"/>
<path d="M531.751 107.669C532.383 107.669 532.989 107.418 533.436 106.971C533.883 106.524 534.134 105.918 534.134 105.286C534.134 104.654 533.883 104.048 533.436 103.601C532.989 103.154 532.383 102.903 531.751 102.903C531.119 102.903 530.513 103.154 530.067 103.601C529.62 104.048 529.369 104.654 529.369 105.286C529.369 105.918 529.62 106.524 530.067 106.971C530.513 107.418 531.119 107.669 531.751 107.669Z" fill="#DB9645"/>
<path d="M539.689 115.879C540.321 115.879 540.927 115.628 541.374 115.181C541.821 114.734 542.072 114.128 542.072 113.496C542.072 112.864 541.821 112.258 541.374 111.811C540.927 111.364 540.321 111.113 539.689 111.113C539.057 111.113 538.451 111.364 538.004 111.811C537.557 112.258 537.306 112.864 537.306 113.496C537.306 114.128 537.557 114.734 538.004 115.181C538.451 115.628 539.057 115.879 539.689 115.879Z" fill="#DB9645"/>
<path d="M422.603 40.5205C423.235 40.5205 423.841 40.2695 424.288 39.8226C424.735 39.3758 424.986 38.7697 424.986 38.1378C424.986 37.5058 424.735 36.8997 424.288 36.4529C423.841 36.006 423.235 35.755 422.603 35.755C421.971 35.755 421.365 36.006 420.918 36.4529C420.471 36.8997 420.22 37.5058 420.22 38.1378C420.22 38.7697 420.471 39.3758 420.918 39.8226C421.365 40.2695 421.971 40.5205 422.603 40.5205Z" fill="#DB9645"/>
<path d="M430.024 47.2666C430.656 47.2666 431.262 47.0156 431.709 46.5687C432.156 46.1219 432.407 45.5158 432.407 44.8839C432.407 44.2519 432.156 43.6458 431.709 43.199C431.262 42.7521 430.656 42.5011 430.024 42.5011C429.392 42.5011 428.786 42.7521 428.339 43.199C427.892 43.6458 427.641 44.2519 427.641 44.8839C427.641 45.5158 427.892 46.1219 428.339 46.5687C428.786 47.0156 429.392 47.2666 430.024 47.2666Z" fill="#DB9645"/>
<path d="M437.976 55.4919C438.578 55.4452 439.14 55.1732 439.55 54.7302C439.96 54.2871 440.188 53.7057 440.188 53.102C440.188 52.4983 439.96 51.9169 439.55 51.4738C439.14 51.0308 438.578 50.7587 437.976 50.712C437.375 50.7587 436.812 51.0308 436.402 51.4738C435.992 51.9169 435.765 52.4983 435.765 53.102C435.765 53.7057 435.992 54.2871 436.402 54.7302C436.812 55.1732 437.375 55.4452 437.976 55.4919Z" fill="#DB9645"/>
<path d="M430.555 32.5684C431.187 32.5684 431.793 32.3174 432.24 31.8705C432.687 31.4236 432.938 30.8176 432.938 30.1856C432.938 29.5537 432.687 28.9476 432.24 28.5007C431.793 28.0539 431.187 27.8028 430.555 27.8028C429.923 27.8028 429.317 28.0539 428.87 28.5007C428.423 28.9476 428.172 29.5537 428.172 30.1856C428.172 30.8176 428.423 31.4236 428.87 31.8705C429.317 32.3174 429.923 32.5684 430.555 32.5684Z" fill="#DB9645"/>
<path d="M437.976 39.3291C438.608 39.3291 439.214 39.0781 439.661 38.6312C440.108 38.1844 440.359 37.5783 440.359 36.9464C440.359 36.3144 440.108 35.7083 439.661 35.2615C439.214 34.8146 438.608 34.5636 437.976 34.5636C437.344 34.5636 436.738 34.8146 436.291 35.2615C435.844 35.7083 435.593 36.3144 435.593 36.9464C435.593 37.5783 435.844 38.1844 436.291 38.6312C436.738 39.0781 437.344 39.3291 437.976 39.3291Z" fill="#DB9645"/>
<path d="M445.914 47.5401C446.546 47.5401 447.152 47.289 447.599 46.8422C448.046 46.3953 448.297 45.7893 448.297 45.1573C448.297 44.5253 448.046 43.9193 447.599 43.4724C447.152 43.0256 446.546 42.7745 445.914 42.7745C445.282 42.7745 444.676 43.0256 444.229 43.4724C443.782 43.9193 443.531 44.5253 443.531 45.1573C443.531 45.7893 443.782 46.3953 444.229 46.8422C444.676 47.289 445.282 47.5401 445.914 47.5401Z" fill="#DB9645"/>
<path d="M438.508 24.6306C439.11 24.5839 439.672 24.3119 440.082 23.8688C440.492 23.4258 440.719 22.8443 440.719 22.2407C440.719 21.637 440.492 21.0555 440.082 20.6125C439.672 20.1694 439.11 19.8974 438.508 19.8507C437.906 19.8974 437.344 20.1694 436.934 20.6125C436.524 21.0555 436.296 21.637 436.296 22.2407C436.296 22.8443 436.524 23.4258 436.934 23.8688C437.344 24.3119 437.906 24.5839 438.508 24.6306Z" fill="#DB9645"/>
<path d="M445.914 31.3194C446.546 31.3194 447.152 31.0683 447.599 30.6215C448.046 30.1746 448.297 29.5685 448.297 28.9366C448.297 28.3046 448.046 27.6986 447.599 27.2517C447.152 26.8049 446.546 26.5538 445.914 26.5538C445.282 26.5538 444.676 26.8049 444.229 27.2517C443.782 27.6986 443.531 28.3046 443.531 28.9366C443.531 29.5685 443.782 30.1746 444.229 30.6215C444.676 31.0683 445.282 31.3194 445.914 31.3194Z" fill="#DB9645"/>
<path d="M453.895 39.5879C454.527 39.5879 455.133 39.3369 455.58 38.89C456.027 38.4432 456.278 37.8371 456.278 37.2052C456.278 36.5732 456.027 35.9671 455.58 35.5203C455.133 35.0734 454.527 34.8224 453.895 34.8224C453.263 34.8224 452.657 35.0734 452.21 35.5203C451.763 35.9671 451.512 36.5732 451.512 37.2052C451.512 37.8371 451.763 38.4432 452.21 38.89C452.657 39.3369 453.263 39.5879 453.895 39.5879Z" fill="#DB9645"/>
<path d="M462.364 67.8646C462.888 67.8212 463.376 67.5823 463.732 67.1954C464.089 66.8085 464.286 66.3019 464.286 65.7761C464.286 65.2503 464.089 64.7437 463.732 64.3568C463.376 63.97 462.888 63.7311 462.364 63.6876C461.84 63.7311 461.351 63.97 460.995 64.3568C460.639 64.7437 460.441 65.2503 460.441 65.7761C460.441 66.3019 460.639 66.8085 460.995 67.1954C461.351 67.5823 461.84 67.8212 462.364 67.8646Z" fill="#F4DBB8"/>
<path d="M470.129 75.2865C470.653 75.243 471.142 75.0041 471.498 74.6173C471.854 74.2304 472.052 73.7238 472.052 73.198C472.052 72.6722 471.854 72.1656 471.498 71.7787C471.142 71.3918 470.653 71.1529 470.129 71.1095C469.605 71.1529 469.117 71.3918 468.761 71.7787C468.405 72.1656 468.207 72.6722 468.207 73.198C468.207 73.7238 468.405 74.2304 468.761 74.6173C469.117 75.0041 469.605 75.243 470.129 75.2865Z" fill="#F4DBB8"/>
<path d="M477.78 81.1996C478.304 81.1561 478.792 80.9172 479.149 80.5304C479.505 80.1435 479.702 79.6369 479.702 79.1111C479.702 78.5853 479.505 78.0787 479.149 77.6918C478.792 77.3049 478.304 77.066 477.78 77.0226C477.256 77.066 476.767 77.3049 476.411 77.6918C476.055 78.0787 475.857 78.5853 475.857 79.1111C475.857 79.6369 476.055 80.1435 476.411 80.5304C476.767 80.9172 477.256 81.1561 477.78 81.1996Z" fill="#F4DBB8"/>
<path d="M486.134 87.932C486.658 87.8885 487.146 87.6497 487.503 87.2628C487.859 86.8759 488.056 86.3693 488.056 85.8435C488.056 85.3177 487.859 84.8111 487.503 84.4242C487.146 84.0373 486.658 83.7985 486.134 83.755C485.61 83.7985 485.121 84.0373 484.765 84.4242C484.409 84.8111 484.211 85.3177 484.211 85.8435C484.211 86.3693 484.409 86.8759 484.765 87.2628C485.121 87.6497 485.61 87.8885 486.134 87.932Z" fill="#F4DBB8"/>
<path d="M494.374 95.4681C494.898 95.4247 495.386 95.1858 495.742 94.7989C496.098 94.412 496.296 93.9054 496.296 93.3796C496.296 92.8538 496.098 92.3472 495.742 91.9603C495.386 91.5735 494.898 91.3346 494.374 91.2911C493.85 91.3346 493.361 91.5735 493.005 91.9603C492.649 92.3472 492.451 92.8538 492.451 93.3796C492.451 93.9054 492.649 94.412 493.005 94.7989C493.361 95.1858 493.85 95.4247 494.374 95.4681Z" fill="#F4DBB8"/>
<path d="M470.703 60.9037C471.227 60.8602 471.716 60.6213 472.072 60.2345C472.428 59.8476 472.626 59.341 472.626 58.8152C472.626 58.2894 472.428 57.7828 472.072 57.3959C471.716 57.009 471.227 56.7701 470.703 56.7267C470.179 56.7701 469.691 57.009 469.335 57.3959C468.978 57.7828 468.781 58.2894 468.781 58.8152C468.781 59.341 468.978 59.8476 469.335 60.2345C469.691 60.6213 470.179 60.8602 470.703 60.9037Z" fill="#F4DBB8"/>
<path d="M478.483 68.3246C479.007 68.2811 479.496 68.0422 479.852 67.6554C480.208 67.2685 480.406 66.7619 480.406 66.2361C480.406 65.7103 480.208 65.2037 479.852 64.8168C479.496 64.4299 479.007 64.191 478.483 64.1476C477.959 64.191 477.471 64.4299 477.115 64.8168C476.759 65.2037 476.561 65.7103 476.561 66.2361C476.561 66.7619 476.759 67.2685 477.115 67.6554C477.471 68.0422 477.959 68.2811 478.483 68.3246Z" fill="#F4DBB8"/>
<path d="M486.134 74.2386C486.658 74.1952 487.146 73.9563 487.503 73.5694C487.859 73.1825 488.056 72.6759 488.056 72.1501C488.056 71.6243 487.859 71.1177 487.503 70.7308C487.146 70.344 486.658 70.1051 486.134 70.0616C485.61 70.1051 485.121 70.344 484.765 70.7308C484.409 71.1177 484.211 71.6243 484.211 72.1501C484.211 72.6759 484.409 73.1825 484.765 73.5694C485.121 73.9563 485.61 74.1952 486.134 74.2386Z" fill="#F4DBB8"/>
<path d="M494.488 80.9701C495.012 80.9266 495.5 80.6877 495.856 80.3009C496.213 79.914 496.41 79.4074 496.41 78.8816C496.41 78.3558 496.213 77.8492 495.856 77.4623C495.5 77.0754 495.012 76.8365 494.488 76.7931C493.964 76.8365 493.475 77.0754 493.119 77.4623C492.763 77.8492 492.565 78.3558 492.565 78.8816C492.565 79.4074 492.763 79.914 493.119 80.3009C493.475 80.6877 493.964 80.9266 494.488 80.9701Z" fill="#F4DBB8"/>
<path d="M502.699 88.5062C503.223 88.4628 503.711 88.2239 504.067 87.837C504.424 87.4501 504.621 86.9435 504.621 86.4177C504.621 85.8919 504.424 85.3853 504.067 84.9984C503.711 84.6116 503.223 84.3727 502.699 84.3292C502.175 84.3727 501.686 84.6116 501.33 84.9984C500.974 85.3853 500.776 85.8919 500.776 86.4177C500.776 86.9435 500.974 87.4501 501.33 87.837C501.686 88.2239 502.175 88.4628 502.699 88.5062Z" fill="#F4DBB8"/>
<g opacity="0.3">
<g clip-path="url(#clip0_1802_53371)">
<path d="M72 332.954L85.5 338.5C85.5 338.5 101.377 340 105.5 340L167.5 224L62 321C62 321 77.2678 331.412 70 337C62.7322 342.588 72 332.954 72 332.954Z" fill="url(#paint3_linear_1802_53371)"/>
</g>
</g>
<path d="M132.736 200.853L56.4962 286.514C49.6867 294.165 50.3688 305.887 58.0197 312.697L62.4373 316.628C70.0882 323.438 81.8107 322.756 88.6202 315.105L164.86 229.444C171.67 221.794 170.988 210.071 163.337 203.262L158.919 199.33C151.269 192.52 139.546 193.202 132.736 200.853Z" fill="#EDB26B"/>
<path d="M114.458 239.751L90.7815 266.353C87.7562 269.752 88.0592 274.96 91.4583 277.985L96.0903 282.108C99.4894 285.133 104.697 284.83 107.723 281.431L131.399 254.829C134.425 251.43 134.122 246.222 130.722 243.197L126.09 239.074C122.691 236.049 117.483 236.352 114.458 239.751Z" fill="#DB9645"/>
<path d="M114.509 237.207L90.8323 263.809C87.807 267.208 88.11 272.416 91.5091 275.441L96.1411 279.564C99.5402 282.589 104.748 282.286 107.773 278.887L131.45 252.285C134.475 248.886 134.172 243.678 130.773 240.653L126.141 236.53C122.742 233.505 117.534 233.808 114.509 237.207Z" fill="#FCF0D7"/>
<path d="M80.2681 281.071C80.744 281.03 81.1871 280.811 81.5099 280.459C81.8327 280.107 82.0118 279.647 82.0118 279.169C82.0118 278.691 81.8327 278.231 81.5099 277.879C81.1871 277.527 80.744 277.309 80.2681 277.267C79.7922 277.309 79.3491 277.527 79.0263 277.879C78.7035 278.231 78.5244 278.691 78.5244 279.169C78.5244 279.647 78.7035 280.107 79.0263 280.459C79.3491 280.811 79.7922 281.03 80.2681 281.071Z" fill="#DB9645"/>
<path d="M74.7844 286.87C75.2869 286.87 75.7688 286.671 76.1242 286.315C76.4795 285.96 76.6791 285.478 76.6791 284.975C76.6791 284.473 76.4795 283.991 76.1242 283.636C75.7688 283.28 75.2869 283.081 74.7844 283.081C74.2819 283.081 73.7999 283.28 73.4446 283.636C73.0893 283.991 72.8896 284.473 72.8896 284.975C72.8896 285.478 73.0893 285.96 73.4446 286.315C73.7999 286.671 74.2819 286.87 74.7844 286.87Z" fill="#DB9645"/>
<path d="M68.1389 293.086C68.6414 293.086 69.1233 292.886 69.4787 292.531C69.834 292.176 70.0336 291.694 70.0336 291.191C70.0336 290.689 69.834 290.207 69.4787 289.851C69.1233 289.496 68.6414 289.296 68.1389 289.296C67.6364 289.296 67.1544 289.496 66.7991 289.851C66.4438 290.207 66.2441 290.689 66.2441 291.191C66.2441 291.694 66.4438 292.176 66.7991 292.531C67.1544 292.886 67.6364 293.086 68.1389 293.086Z" fill="#DB9645"/>
<path d="M86.469 287.502C86.9715 287.502 87.4534 287.302 87.8087 286.947C88.1641 286.592 88.3637 286.11 88.3637 285.607C88.3637 285.105 88.1641 284.623 87.8087 284.267C87.4534 283.912 86.9715 283.712 86.469 283.712C85.9665 283.712 85.4845 283.912 85.1292 284.267C84.7739 284.623 84.5742 285.105 84.5742 285.607C84.5742 286.11 84.7739 286.592 85.1292 286.947C85.4845 287.302 85.9665 287.502 86.469 287.502Z" fill="#DB9645"/>
<path d="M81.0001 293.315C81.476 293.274 81.919 293.055 82.2419 292.703C82.5647 292.351 82.7438 291.891 82.7438 291.413C82.7438 290.936 82.5647 290.475 82.2419 290.123C81.919 289.771 81.476 289.553 81.0001 289.511C80.5242 289.553 80.0811 289.771 79.7583 290.123C79.4354 290.475 79.2563 290.936 79.2563 291.413C79.2563 291.891 79.4354 292.351 79.7583 292.703C80.0811 293.055 80.5242 293.274 81.0001 293.315Z" fill="#DB9645"/>
<path d="M74.3537 299.517C74.8562 299.517 75.3382 299.317 75.6935 298.962C76.0488 298.606 76.2485 298.124 76.2485 297.622C76.2485 297.119 76.0488 296.637 75.6935 296.282C75.3382 295.927 74.8562 295.727 74.3537 295.727C73.8512 295.727 73.3693 295.927 73.014 296.282C72.6586 296.637 72.459 297.119 72.459 297.622C72.459 298.124 72.6586 298.606 73.014 298.962C73.3693 299.317 73.8512 299.517 74.3537 299.517Z" fill="#DB9645"/>
<path d="M92.6843 293.933C93.1868 293.933 93.6687 293.733 94.0241 293.378C94.3794 293.022 94.579 292.54 94.579 292.038C94.579 291.535 94.3794 291.053 94.0241 290.698C93.6687 290.343 93.1868 290.143 92.6843 290.143C92.1818 290.143 91.6998 290.343 91.3445 290.698C90.9892 291.053 90.7896 291.535 90.7896 292.038C90.7896 292.54 90.9892 293.022 91.3445 293.378C91.6998 293.733 92.1818 293.933 92.6843 293.933Z" fill="#DB9645"/>
<path d="M87.2154 299.746C87.6913 299.704 88.1344 299.486 88.4572 299.134C88.78 298.782 88.9591 298.322 88.9591 297.844C88.9591 297.366 88.78 296.906 88.4572 296.554C88.1344 296.202 87.6913 295.983 87.2154 295.942C86.7395 295.983 86.2964 296.202 85.9736 296.554C85.6508 296.906 85.4717 297.366 85.4717 297.844C85.4717 298.322 85.6508 298.782 85.9736 299.134C86.2964 299.486 86.7395 299.704 87.2154 299.746Z" fill="#DB9645"/>
<path d="M80.5696 305.947C81.0721 305.947 81.554 305.748 81.9093 305.392C82.2647 305.037 82.4643 304.555 82.4643 304.053C82.4643 303.55 82.2647 303.068 81.9093 302.713C81.554 302.357 81.0721 302.158 80.5696 302.158C80.067 302.158 79.5851 302.357 79.2298 302.713C78.8744 303.068 78.6748 303.55 78.6748 304.053C78.6748 304.555 78.8744 305.037 79.2298 305.392C79.5851 305.748 80.067 305.947 80.5696 305.947Z" fill="#DB9645"/>
<path d="M142.105 213.837C142.608 213.837 143.09 213.637 143.445 213.282C143.8 212.927 144 212.445 144 211.942C144 211.44 143.8 210.958 143.445 210.602C143.09 210.247 142.608 210.047 142.105 210.047C141.603 210.047 141.121 210.247 140.765 210.602C140.41 210.958 140.21 211.44 140.21 211.942C140.21 212.445 140.41 212.927 140.765 213.282C141.121 213.637 141.603 213.837 142.105 213.837Z" fill="#DB9645"/>
<path d="M136.665 219.65C137.141 219.609 137.584 219.39 137.906 219.038C138.229 218.686 138.408 218.226 138.408 217.748C138.408 217.271 138.229 216.81 137.906 216.458C137.584 216.106 137.141 215.888 136.665 215.846C136.189 215.888 135.746 216.106 135.423 216.458C135.1 216.81 134.921 217.271 134.921 217.748C134.921 218.226 135.1 218.686 135.423 219.038C135.746 219.39 136.189 219.609 136.665 219.65Z" fill="#DB9645"/>
<path d="M130.033 225.852C130.536 225.852 131.018 225.652 131.373 225.297C131.729 224.941 131.928 224.459 131.928 223.957C131.928 223.454 131.729 222.972 131.373 222.617C131.018 222.262 130.536 222.062 130.033 222.062C129.531 222.062 129.049 222.262 128.694 222.617C128.338 222.972 128.139 223.454 128.139 223.957C128.139 224.459 128.338 224.941 128.694 225.297C129.049 225.652 129.531 225.852 130.033 225.852Z" fill="#DB9645"/>
<path d="M148.363 220.268C148.866 220.268 149.348 220.068 149.703 219.713C150.059 219.357 150.258 218.875 150.258 218.373C150.258 217.87 150.059 217.388 149.703 217.033C149.348 216.678 148.866 216.478 148.363 216.478C147.861 216.478 147.379 216.678 147.024 217.033C146.668 217.388 146.469 217.87 146.469 218.373C146.469 218.875 146.668 219.357 147.024 219.713C147.379 220.068 147.861 220.268 148.363 220.268Z" fill="#DB9645"/>
<path d="M142.88 226.124C143.356 226.082 143.799 225.864 144.122 225.512C144.445 225.16 144.624 224.699 144.624 224.222C144.624 223.744 144.445 223.284 144.122 222.932C143.799 222.58 143.356 222.361 142.88 222.32C142.405 222.361 141.961 222.58 141.639 222.932C141.316 223.284 141.137 223.744 141.137 224.222C141.137 224.699 141.316 225.16 141.639 225.512C141.961 225.864 142.405 226.082 142.88 226.124Z" fill="#DB9645"/>
<path d="M136.235 232.282C136.737 232.282 137.219 232.083 137.574 231.727C137.93 231.372 138.129 230.89 138.129 230.388C138.129 229.885 137.93 229.403 137.574 229.048C137.219 228.692 136.737 228.493 136.235 228.493C135.732 228.493 135.25 228.692 134.895 229.048C134.539 229.403 134.34 229.885 134.34 230.388C134.34 230.89 134.539 231.372 134.895 231.727C135.25 232.083 135.732 232.282 136.235 232.282Z" fill="#DB9645"/>
<path d="M154.579 226.698C155.082 226.698 155.564 226.499 155.919 226.143C156.274 225.788 156.474 225.306 156.474 224.803C156.474 224.301 156.274 223.819 155.919 223.464C155.564 223.108 155.082 222.909 154.579 222.909C154.077 222.909 153.595 223.108 153.24 223.464C152.884 223.819 152.685 224.301 152.685 224.803C152.685 225.306 152.884 225.788 153.24 226.143C153.595 226.499 154.077 226.698 154.579 226.698Z" fill="#DB9645"/>
<path d="M149.096 232.512C149.598 232.512 150.08 232.312 150.436 231.957C150.791 231.601 150.991 231.12 150.991 230.617C150.991 230.114 150.791 229.633 150.436 229.277C150.08 228.922 149.598 228.722 149.096 228.722C148.593 228.722 148.111 228.922 147.756 229.277C147.401 229.633 147.201 230.114 147.201 230.617C147.201 231.12 147.401 231.601 147.756 231.957C148.111 232.312 148.593 232.512 149.096 232.512Z" fill="#DB9645"/>
<path d="M142.45 238.727C142.926 238.686 143.369 238.468 143.692 238.115C144.014 237.763 144.193 237.303 144.193 236.825C144.193 236.348 144.014 235.887 143.692 235.535C143.369 235.183 142.926 234.965 142.45 234.923C141.974 234.965 141.531 235.183 141.208 235.535C140.885 235.887 140.706 236.348 140.706 236.825C140.706 237.303 140.885 237.763 141.208 238.115C141.531 238.468 141.974 238.686 142.45 238.727Z" fill="#DB9645"/>
<path d="M119.612 244.784C120.025 244.746 120.409 244.554 120.689 244.248C120.968 243.941 121.123 243.541 121.123 243.126C121.123 242.711 120.968 242.311 120.689 242.005C120.409 241.698 120.025 241.507 119.612 241.468C119.199 241.507 118.815 241.698 118.536 242.005C118.256 242.311 118.102 242.711 118.102 243.126C118.102 243.541 118.256 243.941 118.536 244.248C118.815 244.554 119.199 244.746 119.612 244.784Z" fill="#F4DBB8"/>
<path d="M113.598 250.928C114.04 250.928 114.463 250.753 114.776 250.441C115.088 250.128 115.263 249.705 115.263 249.263C115.263 248.822 115.088 248.398 114.776 248.086C114.463 247.774 114.04 247.598 113.598 247.598C113.157 247.598 112.733 247.774 112.421 248.086C112.109 248.398 111.933 248.822 111.933 249.263C111.933 249.705 112.109 250.128 112.421 250.441C112.733 250.753 113.157 250.928 113.598 250.928Z" fill="#F4DBB8"/>
<path d="M108.775 256.942C109.217 256.942 109.641 256.767 109.953 256.454C110.265 256.142 110.441 255.719 110.441 255.277C110.441 254.835 110.265 254.412 109.953 254.1C109.641 253.787 109.217 253.612 108.775 253.612C108.334 253.612 107.91 253.787 107.598 254.1C107.286 254.412 107.11 254.835 107.11 255.277C107.11 255.719 107.286 256.142 107.598 256.454C107.91 256.767 108.334 256.942 108.775 256.942Z" fill="#F4DBB8"/>
<path d="M103.349 263.444C103.763 263.406 104.146 263.215 104.426 262.908C104.705 262.601 104.86 262.201 104.86 261.786C104.86 261.372 104.705 260.972 104.426 260.665C104.146 260.358 103.763 260.167 103.349 260.129C102.936 260.167 102.553 260.358 102.273 260.665C101.994 260.972 101.839 261.372 101.839 261.786C101.839 262.201 101.994 262.601 102.273 262.908C102.553 263.215 102.936 263.406 103.349 263.444Z" fill="#F4DBB8"/>
<path d="M97.2055 269.933C97.6186 269.894 98.0024 269.703 98.2818 269.396C98.5612 269.089 98.7161 268.69 98.7161 268.275C98.7161 267.86 98.5612 267.46 98.2818 267.153C98.0024 266.847 97.6186 266.655 97.2055 266.617C96.7924 266.655 96.4086 266.847 96.1292 267.153C95.8497 267.46 95.6948 267.86 95.6948 268.275C95.6948 268.69 95.8497 269.089 96.1292 269.396C96.4086 269.703 96.7924 269.894 97.2055 269.933Z" fill="#F4DBB8"/>
<path d="M125.024 251.589C125.466 251.589 125.889 251.413 126.201 251.101C126.514 250.789 126.689 250.365 126.689 249.923C126.689 249.482 126.514 249.058 126.201 248.746C125.889 248.434 125.466 248.258 125.024 248.258C124.582 248.258 124.159 248.434 123.847 248.746C123.534 249.058 123.359 249.482 123.359 249.923C123.359 250.365 123.534 250.789 123.847 251.101C124.159 251.413 124.582 251.589 125.024 251.589Z" fill="#F4DBB8"/>
<path d="M119.01 257.703C119.451 257.703 119.875 257.527 120.187 257.215C120.499 256.903 120.675 256.479 120.675 256.038C120.675 255.596 120.499 255.173 120.187 254.86C119.875 254.548 119.451 254.373 119.01 254.373C118.568 254.373 118.145 254.548 117.832 254.86C117.52 255.173 117.345 255.596 117.345 256.038C117.345 256.479 117.52 256.903 117.832 257.215C118.145 257.527 118.568 257.703 119.01 257.703Z" fill="#F4DBB8"/>
<path d="M114.201 263.675C114.614 263.636 114.998 263.445 115.277 263.138C115.557 262.832 115.712 262.432 115.712 262.017C115.712 261.602 115.557 261.202 115.277 260.895C114.998 260.589 114.614 260.397 114.201 260.359C113.788 260.397 113.404 260.589 113.125 260.895C112.845 261.202 112.69 261.602 112.69 262.017C112.69 262.432 112.845 262.832 113.125 263.138C113.404 263.445 113.788 263.636 114.201 263.675Z" fill="#F4DBB8"/>
<path d="M108.732 270.234C109.174 270.234 109.598 270.059 109.91 269.746C110.222 269.434 110.398 269.011 110.398 268.569C110.398 268.127 110.222 267.704 109.91 267.392C109.598 267.079 109.174 266.904 108.732 266.904C108.291 266.904 107.867 267.079 107.555 267.392C107.243 267.704 107.067 268.127 107.067 268.569C107.067 269.011 107.243 269.434 107.555 269.746C107.867 270.059 108.291 270.234 108.732 270.234Z" fill="#F4DBB8"/>
<path d="M102.617 276.679C103.059 276.679 103.482 276.504 103.795 276.192C104.107 275.879 104.282 275.456 104.282 275.014C104.282 274.573 104.107 274.149 103.795 273.837C103.482 273.525 103.059 273.349 102.617 273.349C102.176 273.349 101.752 273.525 101.44 273.837C101.128 274.149 100.952 274.573 100.952 275.014C100.952 275.456 101.128 275.879 101.44 276.192C101.752 276.504 102.176 276.679 102.617 276.679Z" fill="#F4DBB8"/>
<path d="M599 338H1C0.447715 338 0 338.448 0 339C0 339.552 0.447714 340 0.999999 340H599C599.552 340 600 339.552 600 339C600 338.448 599.552 338 599 338Z" fill="black"/>
<path d="M310.577 196.661C311.64 197.095 312.645 197.586 313.651 198.107C321.635 202.586 327.684 209.889 330.624 218.6C330.753 219.246 330.637 219.916 330.299 220.48C329.961 221.043 329.425 221.459 328.797 221.644C328.17 221.829 327.496 221.771 326.909 221.48C326.322 221.189 325.864 220.688 325.627 220.075C323.034 212.719 317.882 206.558 311.123 202.731C302.938 198.338 292.713 198.136 280.651 201.98C280.008 202.136 279.331 202.04 278.756 201.714C278.18 201.387 277.749 200.853 277.549 200.219C277.348 199.586 277.394 198.899 277.677 198.298C277.959 197.697 278.457 197.226 279.071 196.979C291.134 193.106 301.732 193.019 310.577 196.661Z" fill="black"/>
<path d="M348 103C348 115 369.9 130.2 381.5 123M284 96C275 112 248.6 121.7 231 114.5" stroke="black" stroke-width="5" stroke-linecap="round" stroke-linejoin="round"/>
<circle cx="243" cy="160" r="26" fill="black"/>
<circle cx="247.5" cy="171.5" r="4.5" fill="white"/>
<circle cx="357" cy="160" r="26" fill="black"/>
<circle cx="361.5" cy="171.5" r="4.5" fill="white"/>
<g clip-path="url(#clip1_1802_53371)">
<path d="M459.193 320C457.974 319.983 456.813 319.488 455.962 318.625C455.111 317.761 454.642 316.599 454.656 315.393C454.665 314.747 454.816 314.111 455.1 313.529C457.723 308.327 459.851 302.894 461.455 297.301C461.825 296.194 462.613 295.271 463.654 294.724C464.695 294.177 465.909 294.049 467.043 294.366C468.177 294.682 469.144 295.42 469.742 296.425C470.341 297.43 470.524 298.624 470.255 299.76C468.505 305.902 466.176 311.869 463.299 317.58C462.903 318.316 462.311 318.93 461.587 319.357C460.863 319.783 460.035 320.006 459.193 320ZM439.409 318.822C438.198 318.84 437.029 318.381 436.158 317.546C435.288 316.712 434.788 315.57 434.767 314.37C434.753 313.49 435.004 312.625 435.487 311.886C443.073 299.91 447.089 286.058 447.072 271.924C447.072 270.722 447.554 269.57 448.412 268.721C449.27 267.871 450.434 267.394 451.648 267.394C452.862 267.394 454.026 267.871 454.884 268.721C455.743 269.57 456.225 270.722 456.225 271.924C456.262 287.751 451.793 303.269 443.332 316.7C442.914 317.354 442.335 317.893 441.648 318.264C440.962 318.635 440.191 318.828 439.409 318.822ZM424.071 309.763C422.856 309.76 421.692 309.28 420.834 308.428C419.977 307.577 419.495 306.424 419.495 305.221C419.494 304.408 419.72 303.611 420.149 302.918L420.384 302.529C426.216 293.361 429.303 282.745 429.289 271.911C429.145 266.026 431.369 260.326 435.471 256.064C439.574 251.803 445.219 249.328 451.164 249.186C457.11 249.043 462.869 251.244 467.176 255.305C471.482 259.365 473.981 264.952 474.125 270.836V271.911C474.113 276.554 473.798 281.193 473.184 285.796C473.021 286.987 472.387 288.066 471.42 288.794C470.454 289.522 469.235 289.84 468.032 289.679C466.829 289.517 465.739 288.89 465.004 287.933C464.268 286.977 463.946 285.771 464.109 284.58C464.671 280.379 464.959 276.148 464.972 271.911C465.027 270.186 464.739 268.469 464.123 266.855C463.507 265.241 462.576 263.763 461.383 262.506C458.974 259.966 455.644 258.477 452.125 258.368C450.383 258.313 448.648 258.599 447.017 259.209C445.387 259.818 443.893 260.74 442.623 261.92C440.057 264.305 438.553 267.6 438.442 271.082C438.442 271.354 438.442 271.639 438.442 271.911C438.463 284.415 434.914 296.671 428.203 307.266L428.02 307.563C427.614 308.236 427.04 308.795 426.353 309.184C425.666 309.574 424.889 309.783 424.097 309.789L424.071 309.763ZM482.912 308.003C482.492 308.003 482.073 307.942 481.67 307.822C480.527 307.475 479.568 306.697 479.001 305.655C478.433 304.614 478.302 303.394 478.637 302.258C481.447 292.386 482.873 282.179 482.873 271.924C482.877 267.874 482.074 263.863 480.511 260.12C478.948 256.377 476.656 252.976 473.765 250.11C470.874 247.244 467.441 244.969 463.662 243.416C459.883 241.863 455.832 241.062 451.74 241.059C446.275 241.062 440.908 242.49 436.18 245.2C435.124 245.802 433.869 245.965 432.692 245.652C431.515 245.339 430.512 244.576 429.903 243.531C429.295 242.486 429.13 241.244 429.447 240.079C429.763 238.914 430.534 237.921 431.59 237.319C437.717 233.822 444.667 231.988 451.74 232C462.425 232.021 472.665 236.236 480.213 243.721C487.761 251.206 492 261.349 492 271.924C492 283.016 490.456 294.055 487.41 304.729C487.138 305.678 486.56 306.514 485.765 307.109C484.97 307.705 484.001 308.028 483.004 308.029L482.912 308.003ZM411.558 295.748C410.869 295.749 410.189 295.594 409.57 295.295C408.488 294.77 407.657 293.845 407.258 292.719C406.86 291.593 406.924 290.357 407.439 289.278C410.082 283.872 411.45 277.942 411.44 271.936C411.452 264.919 413.328 258.028 416.88 251.955C417.131 251.361 417.508 250.827 417.985 250.389C418.462 249.95 419.028 249.617 419.646 249.413C420.263 249.208 420.917 249.136 421.565 249.201C422.212 249.267 422.838 249.468 423.401 249.792C423.964 250.116 424.45 250.555 424.828 251.08C425.206 251.604 425.466 252.203 425.591 252.835C425.716 253.467 425.704 254.119 425.555 254.746C425.405 255.373 425.122 255.961 424.725 256.472C421.98 261.167 420.541 266.499 420.554 271.924C420.575 279.277 418.907 286.538 415.677 293.16C415.305 293.931 414.722 294.583 413.994 295.041C413.265 295.498 412.421 295.744 411.558 295.748Z" fill="#F8FAFC"/>
</g>
<defs>
<linearGradient id="paint0_linear_1802_53371" x1="282.07" y1="48" x2="529.851" y2="245.439" gradientUnits="userSpaceOnUse">
<stop stop-color="white"/>
<stop offset="1" stop-color="#F1F5F9"/>
</linearGradient>
<linearGradient id="paint1_linear_1802_53371" x1="120" y1="48" x2="481.289" y2="100.056" gradientUnits="userSpaceOnUse">
<stop stop-color="#2253D5"/>
<stop offset="1" stop-color="#4085F3"/>
</linearGradient>
<linearGradient id="paint2_linear_1802_53371" x1="510" y1="170" x2="510" y2="49.0001" gradientUnits="userSpaceOnUse">
<stop stop-opacity="0.2"/>
<stop offset="1" stop-opacity="0.05"/>
</linearGradient>
<linearGradient id="paint3_linear_1802_53371" x1="168.5" y1="335.5" x2="90" y2="211.5" gradientUnits="userSpaceOnUse">
<stop stop-opacity="0.2"/>
<stop offset="1" stop-opacity="0.05"/>
</linearGradient>
<clipPath id="clip0_1802_53371">
<path d="M90 218H170V338H110C98.9543 338 90 329.046 90 318V218Z" fill="white"/>
</clipPath>
<clipPath id="clip1_1802_53371">
<rect x="395" y="220" width="85" height="88" rx="10" fill="white"/>
</clipPath>
</defs>
</svg>
