<svg width="64" height="64" viewBox="0 0 64 64" fill="none" xmlns="http://www.w3.org/2000/svg">
<g clip-path="url(#clip0_1_71969)">
<g clip-path="url(#clip1_1_71969)">
<g clip-path="url(#clip2_1_71969)">
<path d="M0 64L64 64L64 0L0 0L0 64Z" fill="white"/>
<path d="M24.9355 36.1855L26.1983 63.1935L40.8223 63.3191L39.7712 40.7345L36.0247 39.5849L24.9355 36.1855Z" fill="#FDA894"/>
<path d="M25.74 41.6075C26.836 44.0337 28.6688 46.0526 30.9781 47.3773C33.388 48.7853 37.3781 48.2437 40.0858 47.6234L39.7635 40.7311L36.017 39.5816C31.473 36.2413 27.2489 35.6727 25.8434 37.2604C24.7554 38.4985 25.4939 40.9059 25.74 41.6075Z" fill="#BF3131"/>
<path d="M57.0314 53.5705C56.7852 53.5065 56.5242 53.4523 56.2805 53.3957C55.8818 53.2972 55.4879 53.2136 55.0965 53.1225C54.3581 52.9551 53.5975 52.7828 52.8442 52.6425C48.9328 51.4659 44.2633 50.0677 41.819 49.3366C41.5728 49.2603 41.3415 49.1889 41.1446 49.1323L40.1427 48.832C40.1427 48.832 34.5427 52.1896 32.2067 53.1914C31.9559 53.305 31.6956 53.3965 31.4288 53.4646H31.4018C31.3831 53.4678 31.3639 53.4678 31.3452 53.4646C31.2574 53.4677 31.1696 53.4586 31.0843 53.4376C30.962 53.4026 30.8426 53.3581 30.7273 53.3046C30.587 53.2406 30.4344 53.1643 30.2645 53.0585C28.4701 52.0419 25.5409 49.4056 25.5409 49.4056L24.5809 49.8339L23.8941 50.1342L14.2474 54.4099C14.0012 54.4911 11.3945 55.3674 7.80553 56.7951L6.89231 57.1668C4.78277 58.0234 2.39754 59.0523 0 60.2043V63.9852H64V55.3871C61.6788 54.7225 59.3428 54.117 57.0314 53.5705Z" fill="#60A5FA"/>
<path d="M30.2719 53.0727C30.528 53.2314 30.8035 53.3564 31.0916 53.4444L24.7974 56.6764C24.7458 56.7048 24.6877 56.7197 24.6288 56.7197C24.5698 56.7197 24.5118 56.7048 24.4601 56.6764C24.4107 56.647 24.369 56.6062 24.3386 56.5574C24.3082 56.5085 24.2899 56.4531 24.2854 56.3958L23.9014 50.1558L24.5881 49.8555L24.9524 55.8198L30.2719 53.0727Z" fill="black"/>
<path d="M41.8117 49.3484L37.6886 57.9367C37.6632 57.9835 37.6281 58.0244 37.5856 58.0567C37.5432 58.0889 37.4944 58.1118 37.4425 58.1238C37.4172 58.1272 37.3915 58.1272 37.3662 58.1238C37.2871 58.1254 37.2102 58.0982 37.1496 58.0475L31.4019 53.469C31.6744 53.4071 31.9394 53.3155 32.192 53.1958L37.2407 57.2278L41.1299 49.1367C41.3342 49.1884 41.5582 49.2598 41.8117 49.3484Z" fill="black"/>
<path d="M33.4201 57.5955C33.4201 58.3044 32.9892 58.8804 32.4551 58.8804C31.9209 58.8804 31.4927 58.3044 31.4927 57.5955C31.4927 56.8865 31.9234 56.3105 32.4551 56.3105C32.9867 56.3105 33.4201 56.8841 33.4201 57.5955Z" fill="white"/>
<path d="M30.3114 64.0001C30.6282 60.4949 30.9983 56.9831 31.4216 53.4647H31.4019C31.3832 53.4679 31.3641 53.4679 31.3453 53.4647C31.2575 53.4678 31.1697 53.4587 31.0844 53.4376C30.9621 53.4027 30.8428 53.3582 30.7274 53.3047C30.2942 56.8788 29.9193 60.4415 29.6025 63.9927L30.3114 64.0001Z" fill="black"/>
<path d="M48.0616 20.5721C48.1772 19.0287 48.4086 15.649 46.3852 12.6139C41.3219 5.02008 25.28 4.39976 19.7637 12.2373C16.8099 16.4391 17.8954 21.6182 18.1588 22.8662C19.552 29.5124 25.7108 37.3278 34.2572 36.6705C43.52 35.9592 47.6209 26.3838 48.0616 20.5721Z" fill="#172554"/>
<path d="M46.9417 26.7786C46.9032 26.778 46.865 26.7714 46.8285 26.7589C46.7403 26.7281 46.6678 26.6638 46.6268 26.5799C46.5858 26.496 46.5795 26.3993 46.6094 26.3109C47.005 25.1667 47.2669 23.9805 47.3898 22.7761C47.9043 17.6856 45.9128 12.1275 42.5429 9.25978C37.6198 5.07517 27.604 5.10963 20.0101 12.4893C19.98 12.53 19.9415 12.5638 19.8971 12.5882C19.8528 12.6127 19.8036 12.6273 19.7531 12.6311C19.7026 12.6349 19.6519 12.6276 19.6045 12.61C19.557 12.5924 19.5139 12.5648 19.4781 12.529C19.4423 12.4932 19.4146 12.45 19.397 12.4026C19.3794 12.3551 19.3722 12.3044 19.376 12.2539C19.3797 12.2034 19.3944 12.1543 19.4189 12.11C19.4433 12.0657 19.4771 12.0271 19.5178 11.997C23.0403 8.57301 27.471 6.39948 31.9953 5.87763C36.271 5.38533 40.2808 6.42409 42.9959 8.73548C46.5307 11.7459 48.6229 17.5527 48.0863 22.8598C47.9579 24.1178 47.6846 25.3568 47.2716 26.5521C47.2459 26.6187 47.2006 26.6759 47.1417 26.7163C47.0829 26.7567 47.0131 26.7784 46.9417 26.7786Z" fill="black"/>
<path d="M44.5785 24.0957C44.5785 24.0957 46.0727 21.2649 48.5441 22.3455C52.0124 23.8594 49.7528 31.1677 45.9177 32.0218C42.0826 32.876 44.5785 24.0957 44.5785 24.0957Z" fill="#FDA894"/>
<path d="M48.3028 25.4228C48.6355 26.0807 48.7863 26.8155 48.7395 27.5513C48.6928 28.287 48.4502 28.9969 48.0369 29.6074C47.7907 29.9816 47.1926 29.6074 47.4436 29.2308C47.7916 28.7282 47.998 28.1413 48.0413 27.5316C48.0847 26.9218 47.9632 26.3116 47.6898 25.7649C47.483 25.3489 48.1034 25.0166 48.3028 25.4228Z" fill="#BF3131"/>
<path d="M23.5816 27.6209C24.0592 27.4363 23.429 23.808 23.9779 22.2055C24.4874 20.7286 25.1177 20.8 25.4204 19.6307C26.0851 17.0806 23.6358 15.8424 23.9435 13.7526C24.4186 10.5526 30.8358 8.8295 34.6684 8.58335C37.4819 8.40858 39.1607 9.02889 39.7268 9.26027C41.32 9.9284 42.7255 10.9763 43.8204 12.3126C47.2174 16.2781 47.0745 21.7058 46.885 28.5735C46.7767 32.3938 46.3927 35.2393 45.0364 38.1956C44.2192 39.9852 43.5595 41.3686 42.0432 42.4886C38.6142 45.0067 34.2672 44.0787 33.2826 43.8547C31.2548 43.3042 29.3608 42.345 27.717 41.0363C23.136 37.3267 21.0709 25.5286 21.7897 25.3169C22.1392 25.2258 23.1656 27.7784 23.5816 27.6209Z" fill="#FDA894"/>
<path d="M33.4202 23.4196C33.5457 24.51 33.1273 25.4528 32.4873 25.5266C31.8473 25.6005 31.2244 24.7882 31.0989 23.6879C30.9734 22.5876 31.3918 21.6546 32.0318 21.5808C32.6718 21.5069 33.2946 22.3316 33.4202 23.4196Z" fill="#172554"/>
<path d="M42.8875 22.8169C42.8998 23.9148 42.3952 24.8108 41.7404 24.8157C41.0856 24.8206 40.5614 23.9419 40.549 22.8465C40.5367 21.7511 41.0413 20.8551 41.696 20.8477C42.3508 20.8403 42.8752 21.7215 42.8875 22.8169Z" fill="#172554"/>
<path d="M31.0744 17.1698C30.4382 17.5357 29.8628 17.9982 29.3686 18.5408C29.0388 18.878 28.7458 19.427 29.3168 19.6879C29.5 19.7589 29.6982 19.7826 29.8929 19.7568C31.04 19.6608 32.0935 19.0405 33.2602 18.9347C33.8485 18.8805 34.6092 18.8042 34.5501 18.0362C34.4615 16.8719 33.3194 16.611 32.3347 16.7513C31.8933 16.8154 31.4666 16.9571 31.0744 17.1698Z" fill="#172554"/>
<path d="M41.1271 16.0834C40.1917 16.2384 39.0275 16.7849 39.4361 17.8064C39.6823 18.4046 40.5782 18.2323 41.0705 18.2618C42.1216 18.3307 43.1899 18.732 44.2336 18.7074C44.4337 18.7123 44.6319 18.6665 44.8097 18.5744C44.8994 18.5274 44.9744 18.4566 45.0265 18.3698C45.0786 18.2829 45.1057 18.1834 45.105 18.0821C45.0655 17.8789 44.9536 17.697 44.79 17.5701C43.9752 16.7824 42.9216 16.0932 41.7573 16.044C41.5464 16.0345 41.3352 16.0477 41.1271 16.0834Z" fill="#172554"/>
<path d="M22.2057 25.9003C22.2057 25.9003 20.608 23.1261 18.1785 24.2954C14.7693 25.9372 17.2973 33.1569 21.1595 33.8708C25.0217 34.5846 22.2057 25.9003 22.2057 25.9003Z" fill="#FDA894"/>
<path d="M20.1354 27.4261C19.8298 28.0944 19.7078 28.8321 19.7818 29.5632C19.8557 30.2943 20.1231 30.9926 20.5563 31.5861C20.8197 31.9504 21.4006 31.5541 21.1348 31.1874C20.7709 30.6983 20.545 30.1205 20.4804 29.5144C20.4159 28.9082 20.5152 28.2959 20.7679 27.7412C20.9501 27.3203 20.3249 27.0126 20.1354 27.4261Z" fill="#BF3131"/>
<path d="M37.3809 10.7843C41.0855 10.452 44.8591 8.03969 44.6252 6.42492C44.3791 4.73385 39.7636 4.12339 37.6886 3.8477C34.4886 3.42432 31.2885 3.67046 31.1925 4.29815C31.1236 4.77569 32.8861 5.20401 32.8098 5.72339C32.6941 6.53078 28.379 5.96954 28.1205 6.85816C27.8424 7.85508 32.3864 11.2298 37.3809 10.7843Z" fill="#172554"/>
<path d="M36.6006 11.0293C32.6621 11.0293 29.2381 8.97148 28.1255 7.6644C27.8153 7.3001 27.7045 6.99979 27.7882 6.74625C27.9827 6.16041 28.9033 6.23178 30.7986 6.42871C31.611 6.51486 32.9156 6.65025 33.3414 6.52964C33.0377 6.28385 32.7151 6.06243 32.3765 5.86747C31.4805 5.31608 30.7076 4.84102 30.8503 4.21825C30.9931 3.59548 32.0295 3.33948 34.4024 3.38625C34.4957 3.38625 34.5853 3.42333 34.6513 3.48934C34.7173 3.55536 34.7544 3.64488 34.7544 3.73823C34.7544 3.83159 34.7173 3.92114 34.6513 3.98715C34.5853 4.05316 34.4957 4.09025 34.4024 4.09025C32.1476 4.04348 31.6578 4.29703 31.5593 4.37826C31.6627 4.59733 32.3691 5.03056 32.758 5.26933C33.5974 5.78625 34.2597 6.19487 34.1021 6.74625C33.9003 7.43549 32.7507 7.35179 30.7396 7.14009C30.0012 7.06133 28.9181 6.9481 28.5243 7.02441C28.7458 7.38626 29.718 8.30686 31.4657 9.13147C32.7506 9.73701 35.3403 10.6822 38.2572 10.2072C40.2314 9.86348 42.0694 8.97221 43.5617 7.63487C43.5965 7.60432 43.6369 7.58092 43.6807 7.566C43.7245 7.55107 43.7709 7.54491 43.817 7.54788C43.8632 7.55085 43.9083 7.56289 43.9499 7.5833C43.9914 7.60372 44.0284 7.63212 44.059 7.66687C44.0895 7.70162 44.1129 7.74203 44.1279 7.78583C44.1428 7.82962 44.149 7.87592 44.146 7.9221C44.143 7.96827 44.131 8.01342 44.1105 8.05494C44.0901 8.09646 44.0618 8.13353 44.027 8.16407C42.4335 9.58838 40.4717 10.536 38.3655 10.8989C37.7818 10.991 37.1915 11.0346 36.6006 11.0293Z" fill="black"/>
<path d="M38.0332 34.7697C36.831 34.761 35.6398 34.5419 34.5132 34.1223C34.4257 34.0896 34.3546 34.0237 34.3154 33.9389C34.2762 33.8541 34.2721 33.7572 34.304 33.6694C34.3199 33.6262 34.3441 33.5865 34.3754 33.5527C34.4066 33.5189 34.4443 33.4915 34.4862 33.4723C34.528 33.4531 34.5733 33.4424 34.6193 33.4407C34.6654 33.439 34.7113 33.4465 34.7544 33.4626C36.1575 33.9746 38.3113 34.4251 40.6079 33.6472C41.2222 33.4397 41.8084 33.1569 42.3532 32.8054C42.4319 32.7551 42.5272 32.7382 42.6184 32.7582C42.7096 32.7783 42.789 32.8338 42.8393 32.9124C42.8896 32.9911 42.9066 33.0865 42.8865 33.1777C42.8665 33.2689 42.8109 33.3483 42.7322 33.3986C41.3314 34.3003 39.6991 34.7766 38.0332 34.7697Z" fill="#BF3131"/>
<path d="M38.2475 29.6196C38.1712 29.6195 38.097 29.5946 38.036 29.5487C37.9751 29.5028 37.9308 29.4383 37.9097 29.365C37.8886 29.2917 37.8919 29.2135 37.9191 29.1422C37.9463 29.0709 37.9958 29.0104 38.0603 28.9697L40.6844 27.323C40.8543 27.0765 40.9452 26.7842 40.9452 26.4848C40.9452 26.1855 40.8543 25.8932 40.6844 25.6467L37.9767 21.7279C37.9469 21.6901 37.9253 21.6466 37.913 21.6001C37.9007 21.5536 37.8981 21.5051 37.9053 21.4575C37.9125 21.41 37.9293 21.3644 37.9548 21.3236C37.9803 21.2828 38.0139 21.2477 38.0535 21.2204C38.0931 21.1931 38.1379 21.1742 38.1851 21.1649C38.2323 21.1556 38.2809 21.156 38.3279 21.1662C38.3749 21.1764 38.4193 21.1961 38.4584 21.2241C38.4975 21.2522 38.5304 21.2879 38.5552 21.3291L41.2629 25.2479C41.5233 25.6235 41.6587 26.0716 41.6499 26.5285C41.641 26.9854 41.4883 27.4279 41.2136 27.7931L41.1743 27.8473L38.437 29.5704C38.3801 29.6053 38.3141 29.6224 38.2475 29.6196Z" fill="#BF3131"/>
<path d="M41.066 29.465H41.034C40.9879 29.4607 40.9432 29.4473 40.9023 29.4257C40.8613 29.404 40.8251 29.3745 40.7956 29.3389C40.7661 29.3032 40.744 29.2621 40.7304 29.2178C40.7168 29.1736 40.712 29.1271 40.7164 29.081L40.9626 26.5604C40.9637 26.5121 40.9748 26.4645 40.9952 26.4207C41.0155 26.3768 41.0447 26.3377 41.0809 26.3056C41.117 26.2735 41.1593 26.2492 41.2053 26.2342C41.2512 26.2192 41.2997 26.2138 41.3478 26.2184C41.3959 26.223 41.4427 26.2374 41.4849 26.2608C41.5272 26.2842 41.5642 26.316 41.5936 26.3543C41.623 26.3927 41.6444 26.4366 41.6561 26.4835C41.6678 26.5304 41.6697 26.5792 41.6617 26.6269L41.4156 29.1499C41.4065 29.2363 41.3657 29.3163 41.3012 29.3745C41.2366 29.4326 41.1528 29.4649 41.066 29.465Z" fill="#BF3131"/>
</g>
</g>
<path d="M0.5 32C0.5 14.603 14.603 0.5 32 0.5C49.397 0.5 63.5 14.603 63.5 32C63.5 49.397 49.397 63.5 32 63.5C14.603 63.5 0.5 49.397 0.5 32Z" stroke="#CBD5E1"/>
</g>
<defs>
<clipPath id="clip0_1_71969">
<rect width="64" height="64" fill="white"/>
</clipPath>
<clipPath id="clip1_1_71969">
<path d="M0 32C0 14.3269 14.3269 0 32 0C49.6731 0 64 14.3269 64 32C64 49.6731 49.6731 64 32 64C14.3269 64 0 49.6731 0 32Z" fill="white"/>
</clipPath>
<clipPath id="clip2_1_71969">
<rect width="64" height="64" fill="white"/>
</clipPath>
</defs>
</svg>
