<svg width="64" height="64" viewBox="0 0 64 64" fill="none" xmlns="http://www.w3.org/2000/svg">
<g clip-path="url(#clip0_1_71974)">
<g clip-path="url(#clip1_1_71974)">
<g clip-path="url(#clip2_1_71974)">
<path d="M0 64L64 64L64 0L0 0L0 64Z" fill="white"/>
<path d="M24.9355 36.1855L26.1983 63.1936L40.8223 63.3191L39.7639 40.7271L36.0174 39.5776L24.9355 36.1855Z" fill="#FDA894"/>
<path d="M25.74 41.6069C26.8363 44.0336 28.669 46.0533 30.9781 47.3792C33.388 48.7848 37.3781 48.2432 40.0858 47.6254L39.7635 40.7331L36.017 39.5836C31.473 36.2432 27.2489 35.6746 25.8434 37.2623C24.7554 38.498 25.4939 40.9054 25.74 41.6069Z" fill="#BF3131"/>
<path d="M57.0314 53.5711C56.7852 53.5071 56.5242 53.4529 56.2805 53.3963C55.8818 53.2978 55.4879 53.2142 55.0965 53.1231C54.3581 52.9557 53.5975 52.7834 52.8442 52.6308C48.9328 51.4542 44.2633 50.056 41.819 49.3249C41.5728 49.2486 41.3415 49.1772 41.1446 49.1206L40.1427 48.8203C40.1427 48.8203 34.5427 52.1778 32.2067 53.1797C31.9559 53.2933 31.6956 53.3848 31.4288 53.4529H31.4018C31.3831 53.4561 31.3639 53.4561 31.3452 53.4529C31.2574 53.456 31.1696 53.4469 31.0843 53.4258C30.962 53.3909 30.8426 53.3464 30.7273 53.2929C30.587 53.2289 30.4344 53.1526 30.2645 53.0468C28.4701 52.0301 25.5409 49.3938 25.5409 49.3938L24.5809 49.8221L23.8941 50.1224L14.2474 54.3981C14.0012 54.4794 11.3945 55.3557 7.80553 56.7834L6.89231 57.1551C4.78277 58.0117 2.39754 59.0406 0 60.1926V63.9735H64V55.3754C61.6788 54.7231 59.3428 54.1175 57.0314 53.5711Z" fill="#60A5FA"/>
<path d="M30.2719 53.0727C30.528 53.2314 30.8035 53.3564 31.0916 53.4444L24.7974 56.6764C24.7458 56.7048 24.6877 56.7197 24.6288 56.7197C24.5698 56.7197 24.5118 56.7048 24.4601 56.6764C24.4107 56.647 24.369 56.6062 24.3386 56.5574C24.3082 56.5085 24.2899 56.4531 24.2854 56.3958L23.9014 50.1558L24.5881 49.8555L24.9524 55.8198L30.2719 53.0727Z" fill="black"/>
<path d="M41.8117 49.3367L37.6886 57.925C37.6632 57.9718 37.6281 58.0127 37.5856 58.045C37.5432 58.0772 37.4944 58.1001 37.4425 58.1121C37.4172 58.1155 37.3915 58.1155 37.3662 58.1121C37.2871 58.1136 37.2102 58.0865 37.1496 58.0358L31.4019 53.4573C31.6744 53.3954 31.9394 53.3038 32.192 53.1841L37.2407 57.2161L41.1299 49.125C41.3342 49.189 41.5582 49.2604 41.8117 49.3367Z" fill="black"/>
<path d="M33.4352 57.6541C33.4352 58.363 33.0043 58.939 32.4702 58.939C31.936 58.939 31.5078 58.363 31.5078 57.6541C31.5078 56.9451 31.9385 56.3691 32.4702 56.3691C33.0019 56.3691 33.4352 56.9427 33.4352 57.6541Z" fill="white"/>
<path d="M30.3114 64.0001C30.6282 60.4948 30.9983 56.9831 31.4216 53.4647H31.4019C31.3832 53.4679 31.3641 53.4679 31.3453 53.4647C31.2575 53.4678 31.1697 53.4587 31.0844 53.4376C30.9621 53.4027 30.8428 53.3582 30.7274 53.3047C30.2942 56.8788 29.9193 60.4415 29.6025 63.9927L30.3114 64.0001Z" fill="black"/>
<path d="M50.3259 22.9147C50.5449 21.4968 51.0052 18.191 49.2649 14.8531C46.5818 9.70112 40.2706 7.56203 35.3327 7.91895C28.4404 8.41126 20.3369 14.0334 20.3369 22.9147C20.3369 24.8845 20.725 26.8351 21.4791 28.6549C22.2332 30.4748 23.3385 32.1282 24.7317 33.5208C26.125 34.9134 27.779 36.0178 29.5992 36.771C31.4194 37.5241 33.3702 37.9113 35.34 37.9103C44.62 37.9103 49.4422 28.6771 50.3259 22.9147Z" fill="#172554"/>
<path d="M48.7632 29.0243C48.715 29.024 48.6673 29.0139 48.623 28.9948C48.5807 28.9765 48.5425 28.9502 48.5105 28.9172C48.4785 28.8842 48.4534 28.8452 48.4364 28.8024C48.4195 28.7597 48.4112 28.714 48.4119 28.668C48.4127 28.622 48.4226 28.5766 48.4409 28.5344C48.9233 27.4236 49.2751 26.2606 49.4894 25.0686C50.5873 18.9517 48.2956 13.6052 45.7011 11.2298C43.3626 9.08582 39.7762 8.06921 35.8549 8.43597C31.6457 8.83228 27.4858 10.7769 24.1135 13.9129C24.0797 13.9452 24.0399 13.9706 23.9963 13.9875C23.9527 14.0044 23.9063 14.0126 23.8595 14.0116C23.8128 14.0106 23.7666 14.0004 23.7238 13.9815C23.681 13.9627 23.6424 13.9356 23.6101 13.9018C23.5778 13.868 23.5524 13.8282 23.5355 13.7847C23.5185 13.7411 23.5103 13.6946 23.5113 13.6478C23.5123 13.6011 23.5226 13.555 23.5415 13.5122C23.5603 13.4694 23.5874 13.4308 23.6212 13.3984C27.0969 10.1566 31.4143 8.14552 35.7786 7.73691C39.8869 7.35044 43.6704 8.43597 46.1541 10.7104C47.8772 12.2883 49.1547 14.5947 49.8464 17.3812C50.4884 19.9354 50.5915 22.5954 50.1492 25.1917C49.9245 26.4368 49.5569 27.6518 49.0537 28.8126C49.029 28.8709 48.9889 28.9213 48.9378 28.9586C48.8866 28.9959 48.8263 29.0186 48.7632 29.0243Z" fill="black"/>
<path d="M46.5844 26.8684C46.5844 26.8684 48.2927 24.1607 50.673 25.4235C54.0133 27.2007 51.2023 34.3121 47.313 34.8733C43.4238 35.4346 46.5844 26.8684 46.5844 26.8684Z" fill="#FDA894"/>
<path d="M50.1955 28.4756C50.4752 29.1549 50.5686 29.8964 50.466 30.6238C50.3635 31.3512 50.0687 32.038 49.6121 32.6135C49.3339 32.9679 48.7703 32.5495 49.0509 32.1925C49.4347 31.7152 49.683 31.1434 49.7696 30.537C49.8563 29.9306 49.778 29.3121 49.5432 28.7464C49.3856 28.3378 50.0281 28.0547 50.1955 28.4756Z" fill="#BF3131"/>
<path d="M25.3811 28.0696C25.8463 27.944 24.2807 24.3969 25.9423 21.8517C26.8333 20.488 27.8081 20.6923 28.458 19.304C29.3638 17.3693 27.8574 16.1459 28.5614 14.7305C29.6617 12.5151 34.6438 12.8942 37.8044 13.1305C41.0536 13.3767 42.9442 14.1496 44.0002 14.6739C44.8878 15.09 45.7209 15.6133 46.4813 16.232C49.7921 19.1243 49.1693 24.9483 48.5416 30.8117C47.9632 36.1976 46.7767 38.792 45.962 40.264C45.0093 41.9871 44.2537 43.3163 42.6487 44.3157C39.0352 46.5656 34.7718 45.3003 33.8093 45.0074C31.8031 44.361 29.9769 43.2522 28.4777 41.7705C22.2008 35.6634 22.8482 25.1083 23.5546 24.9557C23.9559 24.8696 24.9085 28.1976 25.3811 28.0696Z" fill="#FDA894"/>
<path d="M35.5099 27.6258C35.5517 28.7236 35.0643 29.6319 34.4194 29.6565C33.7744 29.6811 33.2182 28.8122 33.1763 27.7168C33.1345 26.6214 33.6219 25.7107 34.2668 25.6861C34.9118 25.6614 35.468 26.5304 35.5099 27.6258Z" fill="#172554"/>
<path d="M44.9971 27.636C44.9232 28.7289 44.3447 29.5831 43.6998 29.5412C43.0549 29.4994 42.5921 28.5763 42.6635 27.4834C42.7349 26.3905 43.3158 25.5338 43.9608 25.5757C44.6057 25.6175 45.0684 26.5406 44.9971 27.636Z" fill="#172554"/>
<path d="M33.8167 21.3938C33.1163 21.6018 32.4521 21.9165 31.8475 22.3267C31.4512 22.5729 31.0352 23.043 31.5299 23.4295C31.6913 23.5417 31.8784 23.6111 32.0739 23.6313C33.2112 23.8086 34.3804 23.4516 35.5398 23.6313C36.1256 23.7175 36.8813 23.8209 37.0043 23.0603C37.1914 21.9107 36.1305 21.3864 35.1509 21.2929C34.7037 21.2475 34.252 21.2817 33.8167 21.3938Z" fill="#172554"/>
<path d="M43.653 21.5091C42.7201 21.6667 41.5558 22.2156 41.9645 23.2322C42.2106 23.8304 43.1091 23.6556 43.6014 23.6852C44.6524 23.7516 45.7208 24.1528 46.7645 24.1233C46.9654 24.128 47.1641 24.0823 47.3428 23.9904C47.4316 23.9427 47.5057 23.8716 47.5569 23.7848C47.6081 23.698 47.6345 23.5988 47.6333 23.4981C47.5945 23.2959 47.4834 23.1147 47.3207 22.9885C46.5035 22.2008 45.4475 21.5264 44.2832 21.4673C44.0723 21.4587 43.861 21.4727 43.653 21.5091Z" fill="#172554"/>
<path d="M24.1401 25.8234C24.1401 25.8234 22.7592 22.936 20.246 23.9157C16.7235 25.2917 18.6902 32.6837 22.4859 33.6905C26.2816 34.6973 24.1401 25.8234 24.1401 25.8234Z" fill="#FDA894"/>
<path d="M21.9595 27.1972C21.602 27.8404 21.4229 28.5675 21.4407 29.3032C21.4584 30.0389 21.6723 30.7565 22.0604 31.3818C22.3065 31.7658 22.9047 31.4163 22.6659 31.0298C22.34 30.5128 22.1588 29.9179 22.141 29.307C22.1233 28.6961 22.2697 28.0916 22.5651 27.5566C22.7866 27.1553 22.1761 26.8082 21.9595 27.1972Z" fill="#BF3131"/>
<path d="M40.5882 33.7164C40.5032 33.7155 40.4214 33.6839 40.3579 33.6275C40.2943 33.571 40.2534 33.4934 40.2426 33.4091C40.2318 33.3248 40.2519 33.2395 40.2991 33.1688C40.3463 33.0981 40.4175 33.047 40.4996 33.0247C40.7999 32.9459 41.1002 32.8549 41.3931 32.749C41.686 32.6432 41.9913 32.5176 42.2769 32.3822C42.3683 32.3401 42.4501 32.2797 42.5174 32.2048C42.5846 32.1299 42.6358 32.042 42.6678 31.9466C42.6999 31.8511 42.7121 31.7501 42.7037 31.6498C42.6952 31.5495 42.6664 31.4519 42.6189 31.3632L40.6079 27.5478C40.5645 27.4652 40.5558 27.3688 40.5835 27.2797C40.6112 27.1906 40.673 27.1161 40.7556 27.0727C40.8383 27.03 40.9345 27.0216 41.0234 27.0492C41.1123 27.0768 41.1868 27.1383 41.2307 27.2204L43.2418 31.0456C43.3331 31.2192 43.3879 31.4096 43.4032 31.6051C43.4184 31.8006 43.3937 31.9972 43.3303 32.1828C43.2691 32.3682 43.1704 32.539 43.0404 32.6847C42.9104 32.8304 42.7519 32.9478 42.5747 33.0296C42.2695 33.1724 41.9519 33.3028 41.6319 33.4185C41.3119 33.5342 40.9968 33.6302 40.6793 33.7139C40.6491 33.7183 40.6185 33.7192 40.5882 33.7164Z" fill="#BF3131"/>
<path d="M39.8153 37.8309C38.3593 37.8168 36.9353 37.402 35.6995 36.6321C35.6567 36.6096 35.619 36.5784 35.5888 36.5406C35.5586 36.5029 35.5365 36.4593 35.5239 36.4126C35.5113 36.3659 35.5084 36.317 35.5155 36.2692C35.5226 36.2213 35.5394 36.1755 35.565 36.1344C35.5906 36.0934 35.6244 36.0581 35.6643 36.0307C35.7042 36.0033 35.7493 35.9844 35.7968 35.9752C35.8443 35.966 35.8932 35.9667 35.9404 35.9772C35.9876 35.9877 36.0322 36.0079 36.0713 36.0364C37.3964 36.866 38.9578 37.2362 40.5143 37.09C41.4163 36.9929 42.2896 36.715 43.0817 36.2727C43.1223 36.2473 43.1676 36.2304 43.2149 36.2231C43.2622 36.2158 43.3105 36.2182 43.3569 36.2302C43.4032 36.2422 43.4466 36.2635 43.4844 36.2929C43.5222 36.3222 43.5537 36.359 43.5768 36.4009C43.5999 36.4428 43.6143 36.489 43.619 36.5366C43.6237 36.5843 43.6185 36.6324 43.604 36.678C43.5894 36.7236 43.5658 36.7657 43.5344 36.8019C43.503 36.838 43.4645 36.8673 43.4214 36.8881C42.5468 37.3751 41.5833 37.6815 40.5881 37.789C40.3313 37.8161 40.0735 37.8301 39.8153 37.8309Z" fill="#BF3131"/>
<path d="M42.6927 15.0404C46.8404 14.9641 50.9807 12.2663 50.732 10.6638C50.54 9.43303 47.7782 8.97271 42.3628 8.05948C37.3265 7.21271 36.8588 7.83794 36.7825 8.05948C36.5487 8.70194 38.3998 9.68902 38.1413 10.2749C37.7598 11.1315 34.0182 9.73825 33.745 10.3389C33.4176 11.0232 37.4866 15.1315 42.6927 15.0404Z" fill="#172554"/>
<path d="M42.2102 15.4047C42.0994 15.4047 41.991 15.4047 41.8803 15.4047C37.7104 15.2718 34.2495 12.5715 33.4077 11.2201C33.1787 10.8533 33.1172 10.5604 33.2231 10.3266C33.4692 9.76533 34.4538 9.90562 35.8077 10.0976C36.4231 10.1862 37.4126 10.329 37.7499 10.2478C37.5677 10.0295 37.3658 9.82843 37.1467 9.64717C36.6052 9.15486 36.0465 8.66255 36.241 8.13825C36.4354 7.61394 37.1197 7.47117 38.5621 7.58194C38.6081 7.58536 38.653 7.59782 38.6941 7.61862C38.7352 7.63943 38.7717 7.66818 38.8017 7.70318C38.8316 7.73818 38.8544 7.77876 38.8686 7.82259C38.8828 7.86642 38.8883 7.91263 38.8846 7.95856C38.8764 8.05107 38.8326 8.13674 38.7622 8.19741C38.6919 8.25808 38.6007 8.28895 38.508 8.28347C37.3117 8.18993 36.9867 8.33271 36.9104 8.38194C36.967 8.54932 37.3831 8.91855 37.612 9.1204C38.1363 9.58563 38.6311 10.0262 38.4563 10.5087C38.2102 11.1536 37.1123 11.001 35.7092 10.7942C35.1357 10.713 34.2102 10.5776 33.8926 10.6465C34.1511 11.4342 37.5308 14.5604 41.9025 14.7007C45.3659 14.8115 48.0096 13.0072 49.2723 11.9216C49.3438 11.8696 49.4321 11.8464 49.5199 11.8565C49.6077 11.8667 49.6886 11.9096 49.7462 11.9765C49.8039 12.0435 49.8342 12.1297 49.8312 12.2181C49.8282 12.3064 49.7922 12.3904 49.7301 12.4533C48.4304 13.5659 45.7523 15.4047 42.2102 15.4047Z" fill="black"/>
</g>
</g>
<path d="M0.5 32C0.5 14.603 14.603 0.5 32 0.5C49.397 0.5 63.5 14.603 63.5 32C63.5 49.397 49.397 63.5 32 63.5C14.603 63.5 0.5 49.397 0.5 32Z" stroke="#CBD5E1"/>
</g>
<defs>
<clipPath id="clip0_1_71974">
<rect width="64" height="64" fill="white"/>
</clipPath>
<clipPath id="clip1_1_71974">
<path d="M0 32C0 14.3269 14.3269 0 32 0C49.6731 0 64 14.3269 64 32C64 49.6731 49.6731 64 32 64C14.3269 64 0 49.6731 0 32Z" fill="white"/>
</clipPath>
<clipPath id="clip2_1_71974">
<rect width="64" height="64" fill="white"/>
</clipPath>
</defs>
</svg>
