<svg width="64" height="64" viewBox="0 0 64 64" fill="none" xmlns="http://www.w3.org/2000/svg">
<g clip-path="url(#clip0_1_71968)">
<g clip-path="url(#clip1_1_71968)">
<g clip-path="url(#clip2_1_71968)">
<path d="M64 0H0V64H64V0Z" fill="white"/>
<path d="M24.9355 36.1855L26.1984 63.1935L40.8223 63.3191L39.7663 40.7271L36.0174 39.5776L24.9355 36.1855Z" fill="#FDA894"/>
<path d="M25.7329 41.6079C26.8303 44.0339 28.664 46.0527 30.9735 47.3777C33.3834 48.7857 37.3735 48.2442 40.0812 47.6239L39.7588 40.7316L36.0098 39.582C31.2123 40.4583 25.7329 41.6079 25.7329 41.6079Z" fill="#BF3131"/>
<path d="M57.0318 53.5705C56.7856 53.5065 56.5272 53.4523 56.281 53.3957C55.8823 53.2972 55.4909 53.2136 55.097 53.1225C54.3586 52.9551 53.6004 52.7828 52.8447 52.6425C48.9334 51.4659 44.2638 50.0677 41.8195 49.3366C41.5733 49.2603 41.3444 49.1889 41.1475 49.1323L40.1456 48.832C40.1456 48.832 34.5432 52.1896 32.2096 53.1914C31.9587 53.3047 31.6984 53.3961 31.4318 53.4646H31.417C31.3983 53.4679 31.3791 53.4679 31.3604 53.4646C31.2734 53.4676 31.1864 53.4585 31.102 53.4376C30.9796 53.403 30.8602 53.3585 30.745 53.3046C30.5865 53.2308 30.432 53.1486 30.2822 53.0585C28.4878 52.0419 25.556 49.4056 25.556 49.4056L24.5961 49.8339L23.9093 50.1342L14.2649 54.4099C14.0188 54.4911 11.4121 55.3674 7.8207 56.7951L6.90989 57.1668C4.80035 58.0234 2.41512 59.0523 0.0175781 60.2043V63.9852H64.0176V55.3871C61.6767 54.7225 59.3431 54.117 57.0318 53.5705Z" fill="#60A5FA"/>
<path d="M30.2742 53.0723C30.5302 53.231 30.8058 53.356 31.0939 53.444L24.7998 56.676C24.748 56.7026 24.6905 56.7159 24.6323 56.7148C24.5741 56.7137 24.517 56.6982 24.4663 56.6697C24.4155 56.6411 24.3728 56.6005 24.3416 56.5513C24.3105 56.5021 24.2919 56.446 24.2878 56.388L23.9014 50.148L24.5881 49.8477L24.9524 55.812L30.2742 53.0723Z" fill="black"/>
<path d="M41.8117 49.3484L37.6912 57.9367C37.6657 57.9835 37.6306 58.0244 37.5882 58.0567C37.5457 58.0889 37.4969 58.1118 37.445 58.1238C37.4197 58.1271 37.394 58.1271 37.3687 58.1238C37.2889 58.1253 37.2112 58.0982 37.1496 58.0475L31.4019 53.469C31.6752 53.4069 31.941 53.3153 32.1945 53.1958L37.2407 57.2278L41.1324 49.1367C41.3367 49.1884 41.5606 49.2598 41.8117 49.3484Z" fill="black"/>
<path d="M33.4225 57.5955C33.4225 58.3044 32.9893 58.8804 32.4576 58.8804C31.9259 58.8804 31.4927 58.3044 31.4927 57.5955C31.4927 56.8865 31.9259 56.3105 32.4576 56.3105C32.9893 56.3105 33.4225 56.8841 33.4225 57.5955Z" fill="white"/>
<path d="M30.3138 64.0001C30.6322 60.4949 31.0023 56.9831 31.424 53.4647H31.4093C31.3905 53.468 31.3714 53.468 31.3527 53.4647C31.2657 53.4677 31.1786 53.4586 31.0941 53.4376C30.9717 53.4031 30.8524 53.3586 30.7373 53.3047C30.304 56.8788 29.9282 60.4415 29.6099 63.9927L30.3138 64.0001Z" fill="black"/>
<path d="M31.4312 37.1867C34.3971 37.1867 37.2963 36.3072 39.7623 34.6595C42.2284 33.0117 44.1504 30.6697 45.2854 27.9296C46.4204 25.1895 46.7174 22.1744 46.1388 19.2655C45.5602 16.3566 44.132 13.6846 42.0348 11.5875C39.9376 9.49027 37.2656 8.06207 34.3567 7.48346C31.4478 6.90485 28.4327 7.20181 25.6926 8.33679C22.9525 9.47178 20.6105 11.3938 18.9627 13.8599C17.315 16.3259 16.4355 19.2252 16.4355 22.191C16.4355 24.1603 16.8234 26.1103 17.577 27.9296C18.3306 29.749 19.4351 31.4021 20.8276 32.7946C22.2201 34.1871 23.8733 35.2916 25.6926 36.0452C27.512 36.7988 29.462 37.1867 31.4312 37.1867Z" fill="#172554"/>
<path d="M17.2013 27.909C17.1266 27.9088 17.0539 27.8848 16.9937 27.8406C16.9336 27.7963 16.889 27.7341 16.8666 27.6628C16.4891 26.458 16.2608 25.2113 16.1871 23.9508C15.9164 19.3502 17.6394 12.709 23.3822 9.1225C28.0714 6.19819 33.0832 6.85052 35.0204 7.26899C35.0655 7.27832 35.1084 7.29654 35.1464 7.32259C35.1844 7.34865 35.2168 7.38201 35.2418 7.42073C35.2668 7.45945 35.2838 7.50276 35.2918 7.54813C35.2999 7.5935 35.2988 7.64002 35.2887 7.68497C35.2692 7.77591 35.2145 7.85542 35.1365 7.90616C35.0586 7.95689 34.9638 7.97471 34.8727 7.95573C33.0192 7.55697 28.2266 6.92928 23.754 9.7182C18.2721 13.1422 16.6155 19.5028 16.8863 23.909C16.9596 25.1125 17.1786 26.3028 17.5386 27.4536C17.5656 27.5427 17.5565 27.6389 17.5132 27.7213C17.4699 27.8038 17.3959 27.8659 17.3072 27.8942C17.2728 27.9039 17.2371 27.9089 17.2013 27.909Z" fill="black"/>
<path d="M43.3823 21.555C43.5242 21.0322 43.4842 20.4767 43.2691 19.9796C42.473 18.104 42.0043 16.1058 41.8833 14.0719C41.8645 13.7112 41.7665 13.359 41.5964 13.0404C41.4262 12.7218 41.188 12.4445 40.8986 12.2282C38.1918 10.213 34.9029 9.13285 31.5283 9.15061C28.1537 9.16837 24.8765 10.2831 22.191 12.3267C21.8954 12.5512 21.6544 12.8396 21.486 13.1704C21.3176 13.5012 21.2262 13.8657 21.2186 14.2368C21.1706 16.1498 20.808 18.0417 20.1454 19.8368C19.9615 20.3207 19.9331 20.8499 20.0641 21.3507C20.6293 23.417 20.3745 25.6217 19.3529 27.5045C19.236 27.7238 19.153 27.9595 19.1067 28.2036C18.8876 29.3335 18.7251 32.5359 21.8537 38.1728C22.243 38.8631 22.6703 39.5312 23.1337 40.1741C26.3091 44.7575 32.3325 47.2854 37.258 43.7974C39.7836 42.0079 41.8758 39.6399 42.9417 36.6738C44.3226 32.8215 44.8987 29.5353 44.9627 28.2331C44.9873 27.7876 44.9947 27.3618 44.9947 26.9606C44.9866 26.5196 44.8525 26.0901 44.6083 25.7228C44.364 25.3556 44.0198 25.0659 43.6162 24.8879L43.5817 24.8707C42.9811 24.5384 42.9171 23.2682 43.3823 21.555Z" fill="#FDA894"/>
<path d="M35.8619 23.5906C35.82 24.686 36.3075 25.5967 36.9524 25.6214C37.5973 25.646 38.1536 24.7771 38.1954 23.6792C38.2373 22.5814 37.7498 21.6755 37.1049 21.6509C36.46 21.6263 35.9013 22.4952 35.8619 23.5906Z" fill="#172554"/>
<path d="M25.7699 23.7136C25.8413 24.809 26.4221 25.6607 27.0646 25.6188C27.7071 25.577 28.1724 24.6564 28.101 23.561C28.0296 22.4656 27.4486 21.6139 26.8062 21.6558C26.1637 21.6976 25.696 22.6182 25.7699 23.7136Z" fill="#172554"/>
<path d="M36.3936 16.8559C35.409 16.819 34.2914 17.2005 34.3234 18.3649C34.348 19.1353 35.1111 19.1304 35.7019 19.123C36.8736 19.1058 37.9861 19.6153 39.1357 19.5882C39.3325 19.594 39.5275 19.5491 39.7019 19.4578C40.2435 19.1402 39.8914 18.6233 39.5296 18.323C38.9813 17.836 38.3611 17.4366 37.6909 17.139C37.2783 16.9696 36.8392 16.8738 36.3936 16.8559Z" fill="#172554"/>
<path d="M26.2939 16.8935C25.1493 17.1101 24.1967 17.9224 23.4927 18.8135C23.3463 18.9602 23.2587 19.1555 23.2466 19.3625C23.2605 19.4613 23.3007 19.5546 23.363 19.6326C23.4254 19.7105 23.5076 19.7703 23.601 19.8055C23.7903 19.8727 23.9934 19.8913 24.1918 19.8597C25.2305 19.7464 26.2349 19.2049 27.2687 18.9957C27.761 18.8997 28.6669 18.9514 28.8269 18.3261C29.0952 17.2677 27.8669 16.8812 26.9217 16.8492C26.7115 16.8425 26.5011 16.8574 26.2939 16.8935Z" fill="#172554"/>
<path d="M42.8085 25.207C42.8085 25.207 44.1919 22.3172 46.7026 23.2993C50.2275 24.6753 48.2583 32.0649 44.4626 33.0741C40.6669 34.0833 42.8085 25.207 42.8085 25.207Z" fill="#FDA894"/>
<path d="M44.9896 26.5693C45.3468 27.2126 45.5258 27.9397 45.5081 28.6753C45.4903 29.411 45.2764 30.1285 44.8886 30.7539C44.6548 31.1354 44.0468 30.7859 44.2831 30.3994C44.6095 29.8826 44.791 29.2876 44.8088 28.6766C44.8266 28.0656 44.6799 27.4611 44.384 26.9262C44.1699 26.525 44.7754 26.1705 44.9896 26.5693Z" fill="#BF3131"/>
<path d="M21.0266 25.119C21.0266 25.119 19.3208 22.4114 16.9404 23.6766C13.5977 25.4514 16.4112 32.5652 20.298 33.124C24.1848 33.6827 21.0266 25.119 21.0266 25.119Z" fill="#FDA894"/>
<path d="M19.0206 26.7283C18.7412 27.4082 18.6482 28.1503 18.7512 28.8781C18.8542 29.6058 19.1494 30.293 19.6064 30.8687C19.8845 31.2207 20.4458 30.8046 20.1677 30.4477C19.7815 29.9717 19.5309 29.4004 19.4421 28.794C19.3533 28.1875 19.4295 27.5683 19.663 27.0016C19.8304 26.5905 19.1879 26.3099 19.0206 26.7283Z" fill="#BF3131"/>
<path d="M31.6087 12.1799C35.3872 12.3522 39.6161 10.3633 39.589 8.6476C39.5595 6.59468 33.4548 5.31468 31.1926 4.98237C29.1643 4.68452 26.5477 4.59591 26.2893 5.38853C26.0308 6.18114 28.0665 7.35776 27.8056 7.78853C27.6628 8.01745 27.018 7.76145 25.701 7.60638C24.4333 7.45869 23.3846 7.33069 23.2591 7.60638C22.9859 8.17745 26.7546 11.9485 31.6087 12.1799Z" fill="#172554"/>
<path d="M31.9238 12.5233H31.5915C27.4216 12.3879 23.9608 9.68764 23.1214 8.33872C22.89 7.97195 22.8309 7.68148 22.9343 7.44518C23.1804 6.88395 24.1651 7.02424 25.5214 7.2187C26.1343 7.30732 27.1262 7.44762 27.4635 7.36639C27.2804 7.1481 27.0777 6.94707 26.8579 6.76579C26.3164 6.28825 25.7577 5.78118 25.9522 5.25933C26.1466 4.73748 26.8309 4.58979 28.2733 4.70056C28.3196 4.70398 28.3647 4.71652 28.4061 4.73745C28.4476 4.75839 28.4845 4.78729 28.5147 4.82252C28.5449 4.85775 28.5678 4.89859 28.5821 4.94271C28.5965 4.98684 28.602 5.03339 28.5983 5.07964C28.5949 5.12559 28.5824 5.17041 28.5616 5.21152C28.5407 5.25264 28.5121 5.28922 28.4771 5.31919C28.4421 5.34915 28.4014 5.37191 28.3576 5.38613C28.3138 5.40036 28.2676 5.40578 28.2216 5.40209C27.0253 5.31101 26.698 5.45133 26.6242 5.50056C26.6808 5.6704 27.0968 6.03717 27.3232 6.23902C27.8475 6.70425 28.3448 7.1424 28.1676 7.62486C27.9214 8.27225 26.8235 8.11718 25.4204 7.91041C24.8469 7.82918 23.9214 7.69626 23.6039 7.76273C23.8623 8.55042 27.242 11.6766 31.6137 11.8169C35.0845 11.9276 37.7207 10.1258 38.986 9.03779C39.0573 8.98108 39.1478 8.95425 39.2385 8.96291C39.3292 8.97157 39.413 9.01506 39.4722 9.08424C39.5315 9.15342 39.5618 9.24286 39.5565 9.33382C39.5512 9.42477 39.5107 9.51015 39.4438 9.57195C38.1465 10.687 35.4709 12.5233 31.9238 12.5233Z" fill="black"/>
<path d="M31.7291 35.3188C30.0919 35.3191 28.4687 35.0171 26.9413 34.4277C26.8933 34.4156 26.8483 34.3935 26.8094 34.3628C26.7704 34.3321 26.7385 34.2935 26.7155 34.2496C26.6925 34.2057 26.679 34.1574 26.676 34.108C26.6729 34.0585 26.6804 34.0089 26.6978 33.9625C26.7153 33.9161 26.7423 33.8739 26.7772 33.8387C26.812 33.8035 26.854 33.776 26.9002 33.7581C26.9465 33.7402 26.996 33.7323 27.0455 33.7348C27.0951 33.7374 27.1434 33.7504 27.1875 33.7729C30.1081 34.8984 33.3426 34.8984 36.2632 33.7729C36.3074 33.7504 36.3558 33.7374 36.4053 33.7348C36.4548 33.7323 36.5042 33.7402 36.5505 33.7581C36.5967 33.776 36.6387 33.8035 36.6736 33.8387C36.7084 33.8739 36.7356 33.9161 36.753 33.9625C36.7704 34.0089 36.7778 34.0585 36.7748 34.108C36.7717 34.1574 36.7583 34.2057 36.7353 34.2496C36.7123 34.2935 36.6803 34.3321 36.6413 34.3628C36.6024 34.3935 36.5574 34.4156 36.5094 34.4277C35.1227 34.9651 33.6559 35.2663 32.1697 35.3188C32.0294 35.3188 31.8792 35.3188 31.7291 35.3188Z" fill="#BF3131"/>
<path d="M31.7786 28.2093C31.6852 28.2093 31.5957 28.1722 31.5296 28.1062C31.4636 28.0402 31.4265 27.9506 31.4265 27.8573V22.688C31.4225 22.6395 31.4285 22.5907 31.4443 22.5446C31.4601 22.4985 31.4853 22.4562 31.5182 22.4204C31.5512 22.3845 31.5912 22.3559 31.6358 22.3363C31.6804 22.3168 31.7285 22.3066 31.7772 22.3066C31.8259 22.3066 31.8742 22.3168 31.9188 22.3363C31.9634 22.3559 32.0034 22.3845 32.0364 22.4204C32.0693 22.4562 32.0945 22.4985 32.1103 22.5446C32.1261 22.5907 32.1322 22.6395 32.1281 22.688V27.8573C32.1281 27.9502 32.0913 28.0394 32.0258 28.1053C31.9603 28.1713 31.8715 28.2086 31.7786 28.2093Z" fill="#BF3131"/>
<path d="M29.8534 30.2944C29.7899 30.2948 29.7274 30.2779 29.6728 30.2456C29.6181 30.2132 29.5733 30.1665 29.5432 30.1106C29.5131 30.0546 29.4988 29.9915 29.5019 29.928C29.5049 29.8646 29.5252 29.8032 29.5605 29.7504L30.6461 28.1159C30.7636 27.9386 30.9211 27.7914 31.1058 27.6861C31.2906 27.5808 31.4974 27.5203 31.7098 27.5096C31.9222 27.4988 32.1342 27.538 32.3287 27.6241C32.5231 27.7101 32.6947 27.8407 32.8295 28.0051L33.9716 29.3935C34.0008 29.429 34.0228 29.47 34.0362 29.514C34.0497 29.5581 34.0543 29.6043 34.0498 29.6502C34.0454 29.696 34.0319 29.7405 34.0103 29.7811C33.9886 29.8217 33.9592 29.8577 33.9236 29.887C33.8881 29.9162 33.8471 29.9382 33.8031 29.9516C33.759 29.965 33.7127 29.9697 33.6669 29.9652C33.6211 29.9608 33.5766 29.9473 33.536 29.9256C33.4954 29.904 33.4594 29.8745 33.4301 29.839L32.2879 28.4507C32.2227 28.37 32.1396 28.3058 32.0451 28.2631C31.9507 28.2203 31.8475 28.2003 31.7439 28.2045C31.641 28.21 31.5409 28.2396 31.4515 28.2909C31.3621 28.3422 31.2861 28.4138 31.2295 28.4999L30.1463 30.1343C30.1147 30.1833 30.0714 30.2237 30.0203 30.2516C29.9691 30.2795 29.9117 30.2942 29.8534 30.2944Z" fill="#BF3131"/>
</g>
</g>
<path d="M0.5 32C0.5 14.603 14.603 0.5 32 0.5C49.397 0.5 63.5 14.603 63.5 32C63.5 49.397 49.397 63.5 32 63.5C14.603 63.5 0.5 49.397 0.5 32Z" stroke="#CBD5E1"/>
</g>
<defs>
<clipPath id="clip0_1_71968">
<rect width="64" height="64" fill="white"/>
</clipPath>
<clipPath id="clip1_1_71968">
<path d="M0 32C0 14.3269 14.3269 0 32 0C49.6731 0 64 14.3269 64 32C64 49.6731 49.6731 64 32 64C14.3269 64 0 49.6731 0 32Z" fill="white"/>
</clipPath>
<clipPath id="clip2_1_71968">
<rect width="64" height="64" fill="white"/>
</clipPath>
</defs>
</svg>
