<svg width="64" height="64" viewBox="0 0 64 64" fill="none" xmlns="http://www.w3.org/2000/svg">
<g clip-path="url(#clip0_1_71979)">
<g clip-path="url(#clip1_1_71979)">
<g clip-path="url(#clip2_1_71979)">
<path d="M0 64L64 64L64 -3.05176e-05L0 -3.05176e-05L0 64Z" fill="white"/>
<path d="M24.9355 36.1816L26.1983 63.1896L40.8223 63.3176L39.7663 40.7256L36.0174 39.5736L24.9355 36.1816Z" fill="#FDA894"/>
<path d="M25.7357 41.6045C26.8312 44.0316 28.6641 46.0515 30.9738 47.3768C33.3836 48.7848 37.3737 48.2433 40.0814 47.623L39.7591 40.7307L36.0102 39.5786C31.4317 35.8863 27.1486 34.9337 25.6938 36.423C24.4606 37.6734 25.3541 40.5411 25.7357 41.6045Z" fill="#BF3131"/>
<path d="M57.0318 53.5711C56.7856 53.5071 56.5271 53.4505 56.2809 53.3963C55.8821 53.2979 55.4883 53.2142 55.0969 53.1231C54.3584 52.9557 53.6003 52.7834 52.8446 52.6308C48.9332 51.4542 44.2637 50.056 41.8194 49.3249C41.5732 49.2462 41.3418 49.1772 41.1474 49.1206L40.1431 48.8203C40.1431 48.8203 34.5431 52.1778 32.2095 53.1797C31.9579 53.2934 31.6968 53.3849 31.4292 53.4529H31.417C31.3982 53.4561 31.3791 53.4561 31.3604 53.4529C31.2775 53.455 31.1947 53.4459 31.1142 53.4258C30.991 53.3913 30.8708 53.3469 30.7548 53.293C30.6145 53.229 30.4618 53.1527 30.292 53.0468C28.4975 52.0302 25.5683 49.3939 25.5683 49.3939L24.6083 49.8222L23.9215 50.1225L14.2748 54.3982C14.0286 54.4794 11.4219 55.3557 7.83296 56.7834L6.92215 57.1551C4.81015 58.0117 2.42742 59.0406 0.0175781 60.1926V63.9736H64.0176V55.3754C61.6742 54.7231 59.3431 54.1274 57.0318 53.5711Z" fill="#60A5FA"/>
<path d="M30.2719 53.0732C30.5288 53.2321 30.8051 53.357 31.094 53.4449L24.7974 56.6745C24.7464 56.7036 24.6887 56.719 24.63 56.719C24.5713 56.719 24.5136 56.7036 24.4627 56.6745C24.4125 56.6457 24.37 56.6051 24.3391 56.5562C24.3082 56.5072 24.2898 56.4515 24.2854 56.3938L23.9014 50.1539L24.5881 49.8535L24.9524 55.8179L30.2719 53.0732Z" fill="black"/>
<path d="M41.8118 49.3367L37.6887 57.9225C37.6633 57.9696 37.6282 58.0109 37.5858 58.0435C37.5434 58.0762 37.4946 58.0995 37.4426 58.1121C37.4164 58.1154 37.39 58.1154 37.3638 58.1121C37.2848 58.1136 37.2078 58.0865 37.1471 58.0358L31.3994 53.4573C31.6727 53.3952 31.9385 53.3035 32.1921 53.1841L37.2382 57.2161L41.1299 49.125C41.3343 49.189 41.5583 49.2579 41.8118 49.3367Z" fill="black"/>
<path d="M33.4201 57.596C33.4201 58.3049 32.9893 58.8809 32.4576 58.8809C31.9259 58.8809 31.4927 58.3049 31.4927 57.596C31.4927 56.887 31.9234 56.3086 32.4576 56.3086C32.9917 56.3086 33.4201 56.8846 33.4201 57.596Z" fill="white"/>
<path d="M30.3138 64.0001C30.6289 60.4949 30.9981 56.9831 31.4215 53.4647H31.4091C31.3903 53.4679 31.3712 53.4679 31.3525 53.4647C31.2696 53.4668 31.1868 53.4577 31.1063 53.4376C30.9831 53.4031 30.863 53.3586 30.7469 53.3047C30.3137 56.8756 29.9388 60.4383 29.6221 63.9927L30.3138 64.0001Z" fill="black"/>
<path d="M50.5967 22.5534C50.8035 21.1331 51.2368 17.8248 49.4719 14.4992C45.9076 7.79646 36.6422 7.69555 35.4804 7.68078C33.3364 7.65371 26.8085 7.57 22.9586 12.5251C19.7586 16.6334 20.4453 21.6008 20.6078 22.7971C21.494 29.2832 27.0078 37.7411 35.7242 37.6697C45.0017 37.5934 49.7475 28.3208 50.5967 22.5534Z" fill="#172554"/>
<path d="M49.0682 28.6694C49.0114 28.6696 48.9554 28.6559 48.905 28.6295C48.8546 28.6032 48.8115 28.565 48.7793 28.5182C48.747 28.4714 48.7266 28.4174 48.7199 28.361C48.7132 28.3045 48.7204 28.2473 48.7408 28.1943C49.1685 27.0543 49.5115 25.8844 49.7673 24.694C50.2596 22.3555 50.8405 19.7069 50.07 17.0632C49.2085 14.0897 47.0079 12.3666 45.6959 11.3377C42.3593 8.72492 38.1616 7.46394 33.9376 7.80556C29.7136 8.14719 25.7729 10.0664 22.8996 13.1813C22.8673 13.2148 22.8287 13.2416 22.786 13.2601C22.7433 13.2787 22.6974 13.2886 22.6509 13.2894C22.6044 13.2902 22.5581 13.2818 22.5149 13.2648C22.4716 13.2477 22.4321 13.2223 22.3986 13.19C22.3652 13.1577 22.3384 13.1191 22.3199 13.0764C22.3014 13.0337 22.2914 12.9878 22.2906 12.9413C22.2898 12.8948 22.2982 12.8485 22.3152 12.8053C22.3323 12.762 22.3578 12.7225 22.3901 12.689C25.3831 9.44628 29.487 7.44886 33.8855 7.09402C38.2841 6.73918 42.6551 8.05291 46.1292 10.774C47.5101 11.857 49.8215 13.6688 50.7445 16.8565C51.5642 19.6798 50.9488 22.5426 50.454 24.8417C50.1911 26.0656 49.8381 27.2685 49.398 28.4404C49.3729 28.5077 49.3279 28.5656 49.2689 28.6065C49.21 28.6474 49.14 28.6694 49.0682 28.6694Z" fill="black"/>
<path d="M49.2453 26.0439C49.3586 25.6771 49.7918 24.3701 50.4195 24.3479C51.0989 24.3257 51.7685 25.8248 51.9236 27.0187C52.3101 30.0242 49.7919 33.5319 47.1384 33.8248C46.7076 33.8716 46.2497 33.9233 45.9716 33.6402C45.0386 32.6901 47.1998 29.0568 49.2453 26.0439Z" fill="#FDA894"/>
<path d="M49.9666 27.402C50.2518 28.0795 50.3511 28.8208 50.2542 29.5495C50.1573 30.2782 49.8677 30.9678 49.4152 31.5472C49.142 31.9017 48.5734 31.4881 48.8515 31.1312C49.2326 30.6522 49.4777 30.0796 49.5613 29.4732C49.6449 28.8669 49.5638 28.2493 49.3265 27.6851C49.1567 27.2715 49.7967 26.9835 49.9666 27.402Z" fill="#BF3131"/>
<path d="M25.0117 29.6316C25.568 29.7423 26.6584 27.7805 27.1261 25.7719C27.9606 22.1977 26.3015 20.7996 27.3722 18.4316C28.2116 16.5879 30.0209 15.7362 31.232 15.1651C33.0707 14.2986 34.7125 14.3208 37.9888 14.3429C40.1599 14.3577 41.984 14.3873 44.2462 15.1602C45.3366 15.5319 46.4615 15.9159 47.3551 16.6371C50.2892 18.9829 49.7353 24.0218 48.8689 31.9405C48.3766 36.4107 47.7021 38.9534 46.3679 41.415C45.4276 43.1381 44.6819 44.4796 43.0868 45.4912C39.4929 47.7706 35.2098 46.5473 34.2523 46.2568C32.2647 45.5707 30.4403 44.4813 28.8935 43.0568C25.6172 39.97 24.7089 35.7706 24.4061 34.3011C23.456 29.8556 24.2805 26.0845 24.4184 26.087C24.5562 26.0894 24.3126 29.4888 25.0117 29.6316Z" fill="#FDA894"/>
<path d="M35.8276 29.7979C35.8793 30.8957 35.3968 31.8065 34.7544 31.8385C34.1119 31.8705 33.5457 31.0041 33.494 29.9087C33.4423 28.8133 33.9248 27.9 34.5697 27.868C35.2147 27.836 35.7783 28.7025 35.8276 29.7979Z" fill="#172554"/>
<path d="M45.3144 29.8446C45.2504 30.94 44.6768 31.7965 44.0344 31.7596C43.3919 31.7227 42.9169 30.8046 42.9809 29.7117C43.0449 28.6187 43.6159 27.7572 44.2608 27.7941C44.9057 27.831 45.3759 28.7492 45.3144 29.8446Z" fill="#172554"/>
<path d="M34.1047 24.6696C33.4032 24.8827 32.7389 25.2032 32.1355 25.6197C31.7392 25.8659 31.3282 26.3434 31.8254 26.7249C31.9894 26.8347 32.1779 26.9023 32.3743 26.9219C33.5091 27.0893 34.6758 26.7225 35.8376 26.8825C36.4235 26.9637 37.1817 27.0597 37.2974 26.2991C37.4746 25.1471 36.4111 24.6302 35.429 24.5465C34.9837 24.5091 34.5354 24.5507 34.1047 24.6696Z" fill="#172554"/>
<path d="M43.9284 24.6182C42.9955 24.7831 41.836 25.3419 42.2545 26.3413C42.5007 26.937 43.4016 26.7548 43.8939 26.7794C44.945 26.836 46.0182 27.2299 47.0594 27.193C47.2602 27.1957 47.4585 27.1474 47.6355 27.0526C47.7239 27.0045 47.7976 26.9333 47.8487 26.8466C47.8999 26.7599 47.9266 26.661 47.9259 26.5603C47.8849 26.3578 47.7711 26.1774 47.606 26.0532C46.7838 25.2729 45.7229 24.6059 44.5586 24.5567C44.347 24.5559 44.1359 24.5765 43.9284 24.6182Z" fill="#172554"/>
<path d="M24.4259 26.089C24.4259 26.089 23.0228 23.2115 20.5194 24.2109C17.0043 25.6164 19.0424 32.9912 22.8381 33.9684C26.6338 34.9457 24.4259 26.089 24.4259 26.089Z" fill="#FDA894"/>
<path d="M22.257 27.4707C21.9049 28.1171 21.7318 28.8458 21.7556 29.5815C21.7794 30.3172 21.9992 31.0331 22.3924 31.6553C22.6385 32.0369 23.2343 31.6824 22.9955 31.2984C22.665 30.7841 22.4785 30.1905 22.4556 29.5796C22.4326 28.9687 22.574 28.3628 22.865 27.8252C23.0766 27.4215 22.4687 27.072 22.257 27.4707Z" fill="#BF3131"/>
<path d="M39.7663 19.8747C45.8783 19.1953 50.7275 12.8297 49.701 10.8433C48.9626 9.40082 45.0241 10.127 38.8702 11.2691C34.5453 12.0716 33.098 12.8765 33.0586 13.6371C33.0143 14.5085 34.8456 15.1018 34.6708 15.6655C34.3927 16.5615 30.5134 15.6211 30.314 16.2513C30.09 16.943 34.6955 20.4359 39.7663 19.8747Z" fill="#172554"/>
<path d="M38.0283 20.3746C34.3163 20.3746 31.0449 18.3488 30.1046 17.1968C29.8215 16.8497 29.7205 16.5617 29.7993 16.3107C29.9815 15.7248 30.9711 15.7469 32.3397 15.7789C32.96 15.7937 33.9594 15.8183 34.2868 15.6953C34.0785 15.5012 33.8535 15.3258 33.6147 15.1709C33.0215 14.7599 32.4061 14.334 32.5366 13.7826C32.667 13.2313 33.3292 13.0146 34.7766 12.9531C34.8694 12.9504 34.9595 12.9842 35.0277 13.0473C35.0958 13.1103 35.1364 13.1976 35.1409 13.2903C35.1432 13.3363 35.1363 13.3823 35.1207 13.4256C35.1051 13.4689 35.0809 13.5087 35.0498 13.5426C35.0186 13.5765 34.981 13.6039 34.9392 13.6231C34.8974 13.6423 34.8522 13.6531 34.8062 13.6546C33.6074 13.7063 33.2997 13.886 33.2308 13.9426C33.3071 14.1051 33.7649 14.4201 34.0135 14.5949C34.5919 14.9937 35.1335 15.3728 35.0178 15.8725C34.8603 16.542 33.7402 16.5149 32.3224 16.4805C31.7439 16.4805 30.8061 16.446 30.5009 16.5494C30.8455 17.315 34.5747 20.0546 38.9316 19.6263C42.2055 19.3039 44.3692 17.3765 45.9495 15.9685C49.6542 12.6675 49.5852 11.3974 49.3833 11.0036C48.9944 10.2454 46.8726 9.92784 43.5717 10.7894C43.4842 10.8055 43.3939 10.7879 43.3189 10.7402C43.2439 10.6924 43.1898 10.6181 43.1673 10.532C43.1449 10.446 43.1558 10.3547 43.198 10.2764C43.2401 10.1981 43.3103 10.1387 43.3945 10.11C45.9643 9.43799 49.2406 9.18447 50.0086 10.6835C50.6264 11.8897 49.4523 13.79 46.4172 16.4928C44.8591 17.8811 42.5034 19.9808 39.0006 20.3254C38.6732 20.3574 38.3507 20.3746 38.0283 20.3746Z" fill="black"/>
<path d="M41.8068 37.373C41.2554 37.373 40.5366 37.1269 39.6431 36.6124C39.5995 36.5916 39.5607 36.562 39.529 36.5254C39.4973 36.4889 39.4735 36.4463 39.459 36.4001C39.4446 36.354 39.4397 36.3055 39.4449 36.2574C39.45 36.2094 39.465 36.1628 39.4888 36.1208C39.5127 36.0788 39.545 36.0422 39.5837 36.0132C39.6223 35.9842 39.6666 35.9635 39.7136 35.9523C39.7606 35.9412 39.8094 35.9398 39.857 35.9483C39.9046 35.9569 39.95 35.9751 39.9902 36.0019C41.5434 36.8832 42.0431 36.6641 42.1612 36.5754C42.7569 36.125 42.2597 33.8801 40.9304 30.9902C40.9076 30.948 40.8935 30.9015 40.8893 30.8536C40.8851 30.8057 40.8908 30.7574 40.9059 30.7118C40.9211 30.6662 40.9454 30.6242 40.9774 30.5883C41.0094 30.5524 41.0485 30.5235 41.0921 30.5033C41.1357 30.4831 41.183 30.4721 41.231 30.4708C41.2791 30.4696 41.3268 30.4782 41.3714 30.4962C41.416 30.5141 41.4565 30.541 41.4903 30.5751C41.5241 30.6093 41.5505 30.6501 41.5679 30.6949C43.6085 35.1256 43.2493 36.637 42.5896 37.1367C42.3623 37.3006 42.0867 37.3838 41.8068 37.373Z" fill="#BF3131"/>
<path d="M40.1622 40.8116C38.7272 40.7981 37.3227 40.3957 36.0983 39.6473C36.059 39.6234 36.0248 39.592 35.9977 39.5549C35.9705 39.5177 35.951 39.4756 35.9401 39.4309C35.9292 39.3862 35.9273 39.3398 35.9343 39.2944C35.9414 39.249 35.9574 39.2054 35.9813 39.1661C36.0052 39.1268 36.0366 39.0926 36.0738 39.0655C36.1109 39.0384 36.153 39.0188 36.1977 39.0079C36.2424 38.9971 36.2888 38.9951 36.3342 39.0022C36.3796 39.0093 36.4233 39.0252 36.4626 39.0492C37.7951 39.8676 39.3598 40.2248 40.9155 40.0657C41.8161 39.9605 42.6866 39.676 43.4754 39.2288C43.5155 39.2062 43.5597 39.1917 43.6054 39.1861C43.6511 39.1805 43.6974 39.184 43.7418 39.1964C43.7861 39.2087 43.8277 39.2297 43.8639 39.2581C43.9001 39.2865 43.9303 39.3217 43.953 39.3618C43.9756 39.4019 43.9902 39.446 43.9957 39.4917C44.0013 39.5374 43.9978 39.5837 43.9854 39.6281C43.9731 39.6724 43.9521 39.7139 43.9238 39.7501C43.8954 39.7864 43.8602 39.8167 43.8201 39.8393C42.7066 40.4772 41.4455 40.8124 40.1622 40.8116Z" fill="#BF3131"/>
</g>
</g>
<path d="M0.5 32C0.5 14.603 14.603 0.5 32 0.5C49.397 0.5 63.5 14.603 63.5 32C63.5 49.397 49.397 63.5 32 63.5C14.603 63.5 0.5 49.397 0.5 32Z" stroke="#CBD5E1"/>
</g>
<defs>
<clipPath id="clip0_1_71979">
<rect width="64" height="64" fill="white"/>
</clipPath>
<clipPath id="clip1_1_71979">
<path d="M0 32C0 14.3269 14.3269 0 32 0C49.6731 0 64 14.3269 64 32C64 49.6731 49.6731 64 32 64C14.3269 64 0 49.6731 0 32Z" fill="white"/>
</clipPath>
<clipPath id="clip2_1_71979">
<rect width="64" height="64" fill="white"/>
</clipPath>
</defs>
</svg>
