<svg width="64" height="64" viewBox="0 0 64 64" fill="none" xmlns="http://www.w3.org/2000/svg">
<g clip-path="url(#clip0_1_71978)">
<g clip-path="url(#clip1_1_71978)">
<g clip-path="url(#clip2_1_71978)">
<path d="M64 0H0V64H64V0Z" fill="white"/>
<path d="M24.9355 36.1816L26.1984 63.1896L40.8223 63.3176L39.7663 40.7256L36.0174 39.5736L24.9355 36.1816Z" fill="#FDA894"/>
<path d="M25.7329 41.604C26.8299 44.0309 28.6636 46.0506 30.9735 47.3763C33.3834 48.7843 37.3735 48.2428 40.0812 47.6225L39.7588 40.7302L36.0098 39.5781C31.2123 40.4569 25.7329 41.604 25.7329 41.604Z" fill="#BF3131"/>
<path d="M57.0318 53.5711C56.7856 53.5071 56.5272 53.4505 56.281 53.3963C55.8823 53.2979 55.4909 53.2142 55.097 53.1231C54.3586 52.9557 53.6004 52.7834 52.8447 52.6308C48.9334 51.4542 44.2638 50.056 41.8195 49.3249C41.5733 49.2462 41.3444 49.1772 41.1475 49.1206L40.1456 48.8203C40.1456 48.8203 34.5432 52.1778 32.2096 53.1797C31.9587 53.293 31.6984 53.3844 31.4318 53.4529H31.417C31.3983 53.4563 31.3791 53.4563 31.3604 53.4529C31.2734 53.4559 31.1864 53.4468 31.102 53.4258C30.9796 53.3913 30.8602 53.3469 30.745 53.293C30.5865 53.2191 30.432 53.137 30.2822 53.0468C28.4878 52.0302 25.556 49.3939 25.556 49.3939L24.5961 49.8222L23.9093 50.1225L14.2649 54.3982C14.0188 54.4794 11.4121 55.3557 7.8207 56.7834L6.90989 57.1551C4.80035 58.0117 2.41512 59.0406 0.0175781 60.1926V63.9736H64.0176V55.3754C61.6767 54.7231 59.3431 54.1274 57.0318 53.5711Z" fill="#60A5FA"/>
<path d="M30.2742 53.0732C30.5302 53.232 30.8058 53.3569 31.0939 53.4449L24.7998 56.6745C24.7484 56.7036 24.6903 56.7189 24.6312 56.7189C24.5721 56.7189 24.514 56.7036 24.4625 56.6745C24.4127 56.6456 24.3707 56.6049 24.3402 56.556C24.3097 56.507 24.2917 56.4513 24.2878 56.3938L23.9014 50.1539L24.5881 49.8535L24.9524 55.8179L30.2742 53.0732Z" fill="black"/>
<path d="M41.8117 49.3367L37.6912 57.9225C37.6658 57.9697 37.6308 58.011 37.5884 58.0437C37.546 58.0764 37.4971 58.0997 37.445 58.1121C37.4197 58.1154 37.394 58.1154 37.3687 58.1121C37.2889 58.1136 37.2112 58.0865 37.1496 58.0358L31.4019 53.4573C31.6752 53.3952 31.941 53.3035 32.1945 53.1841L37.2407 57.2161L41.1324 49.125C41.3367 49.189 41.5606 49.2579 41.8117 49.3367Z" fill="black"/>
<path d="M33.4225 57.596C33.4225 58.3049 32.9893 58.8809 32.4576 58.8809C31.9259 58.8809 31.4927 58.3049 31.4927 57.596C31.4927 56.8871 31.9259 56.3086 32.4576 56.3086C32.9893 56.3086 33.4225 56.8846 33.4225 57.596Z" fill="white"/>
<path d="M30.3138 64.0001C30.6322 60.4949 31.0023 56.9831 31.424 53.4647H31.4093C31.3905 53.468 31.3714 53.468 31.3527 53.4647C31.2657 53.4677 31.1786 53.4586 31.0941 53.4376C30.9717 53.4031 30.8524 53.3586 30.7373 53.3047C30.304 56.8756 29.9282 60.4383 29.6099 63.9927L30.3138 64.0001Z" fill="black"/>
<path d="M31.4312 34.5754C34.3971 34.5754 37.2963 33.6959 39.7623 32.0482C42.2284 30.4004 44.1504 28.0584 45.2854 25.3183C46.4204 22.5782 46.7174 19.563 46.1388 16.6542C45.5602 13.7453 44.132 11.0733 42.0348 8.9761C39.9376 6.87892 37.2656 5.45075 34.3567 4.87214C31.4478 4.29353 28.4327 4.59046 25.6926 5.72544C22.9525 6.86043 20.6105 8.78249 18.9627 11.2485C17.315 13.7145 16.4355 16.6138 16.4355 19.5796C16.4355 21.5489 16.8234 23.4989 17.577 25.3183C18.3306 27.1377 19.4351 28.7908 20.8276 30.1833C22.2201 31.5757 23.8733 32.6803 25.6926 33.4339C27.512 34.1875 29.462 34.5754 31.4312 34.5754Z" fill="#172554"/>
<path d="M17.2013 25.2488C17.1266 25.2486 17.0539 25.2247 16.9937 25.1804C16.9336 25.1362 16.889 25.0739 16.8666 25.0026C16.4891 23.7978 16.2608 22.5512 16.1871 21.2907C15.9164 16.6901 17.6394 10.0488 23.3822 6.46238C28.0714 3.53808 33.0832 4.19035 35.0204 4.60881C35.0655 4.61814 35.1084 4.63639 35.1464 4.66244C35.1844 4.6885 35.2168 4.72186 35.2418 4.76058C35.2668 4.7993 35.2838 4.84262 35.2918 4.88799C35.2999 4.93335 35.2988 4.97987 35.2887 5.02482C35.2692 5.11576 35.2145 5.19524 35.1365 5.24598C35.0586 5.29671 34.9638 5.3146 34.8727 5.29562C33.0192 4.89685 28.2266 4.26913 23.754 7.05806C18.2721 10.4821 16.6155 16.8426 16.8863 21.2488C16.9596 22.4524 17.1786 23.6426 17.5386 24.7935C17.5656 24.8826 17.5565 24.9787 17.5132 25.0612C17.4699 25.1436 17.3959 25.2058 17.3072 25.2341C17.2728 25.2438 17.2371 25.2487 17.2013 25.2488Z" fill="black"/>
<path d="M44.2314 23.7127C43.4363 23.6487 42.7225 20.7589 42.2425 18.1619C42.0082 16.8838 41.407 15.7015 40.5123 14.7591C39.6176 13.8168 38.4681 13.1551 37.2038 12.8549C35.0032 12.3355 32.3988 11.8949 30.4419 12.0869C28.5243 12.2764 26.1932 12.9558 24.2437 13.6303C23.0672 14.038 22.0285 14.7673 21.2454 15.7353C20.4622 16.7034 19.966 17.8715 19.8129 19.1072C19.3895 22.4943 18.885 24.7983 18.5034 24.8229C18.56 30.4081 19.7835 35.3558 23.1115 40.1632C26.2869 44.7466 32.3102 47.2746 37.2358 43.7866C39.7613 41.997 41.8536 39.629 42.9194 36.6604C43.9853 33.6918 44.736 31.3829 44.9403 28.2223C45.0477 26.7726 45.0789 25.3183 45.0338 23.8654C44.7739 23.7807 44.5043 23.7293 44.2314 23.7127Z" fill="#FDA894"/>
<path d="M35.8619 27.6374C35.82 28.7328 36.3075 29.6411 36.9524 29.6657C37.5973 29.6904 38.1536 28.8215 38.1954 27.7261C38.2373 26.6307 37.7498 25.7224 37.1049 25.6978C36.46 25.6732 35.9013 26.5396 35.8619 27.6374Z" fill="#172554"/>
<path d="M25.7699 27.6452C25.8413 28.7406 26.4221 29.5923 27.0646 29.5505C27.7071 29.5086 28.1724 28.588 28.101 27.4926C28.0296 26.3973 27.4486 25.5456 26.8062 25.5874C26.1637 25.6293 25.696 26.5572 25.7699 27.6452Z" fill="#172554"/>
<path d="M36.2288 22.2694C35.2442 22.3605 34.1881 22.8848 34.3752 24.0344C34.4983 24.795 35.254 24.6916 35.8399 24.6079C36.9993 24.4381 38.1685 24.795 39.3058 24.6079C39.5012 24.5877 39.6884 24.5183 39.8497 24.406C40.3421 24.022 39.9285 23.5544 39.5322 23.3033C38.9276 22.893 38.2634 22.5783 37.563 22.3703C37.1277 22.2582 36.676 22.2241 36.2288 22.2694Z" fill="#172554"/>
<path d="M26.4786 22.3731C25.3167 22.4322 24.2631 23.1116 23.4435 23.8943C23.28 24.0203 23.1681 24.2014 23.1284 24.4039C23.1277 24.5049 23.1547 24.6041 23.2063 24.6908C23.2579 24.7776 23.3323 24.8486 23.4213 24.8962C23.5997 24.9893 23.7987 25.0359 23.9998 25.0316C25.0411 25.0587 26.1118 24.6574 27.1629 24.5934C27.6552 24.5614 28.5536 24.7386 28.7973 24.1405C29.2084 23.1288 28.0442 22.5799 27.1112 22.4174C26.9026 22.3801 26.6904 22.3653 26.4786 22.3731Z" fill="#172554"/>
<path d="M42.8085 23.7222C42.8085 23.7222 44.1919 20.8324 46.7026 21.8121C50.2275 23.1905 48.2583 30.5801 44.4626 31.5868C40.6669 32.5936 42.8085 23.7222 42.8085 23.7222Z" fill="#FDA894"/>
<path d="M44.9896 25.0797C45.3473 25.7229 45.5265 26.45 45.5088 27.1858C45.4911 27.9216 45.2769 28.6392 44.8886 29.2643C44.6548 29.6483 44.0468 29.2988 44.2831 28.9124C44.6095 28.3956 44.791 27.8005 44.8088 27.1895C44.8266 26.5785 44.6799 25.974 44.384 25.4391C44.1699 25.0403 44.7754 24.6859 44.9896 25.0797Z" fill="#BF3131"/>
<path d="M21.0266 23.6366C21.0266 23.6366 19.3208 20.9289 16.9404 22.1942C13.5977 23.9689 16.4112 31.0827 20.298 31.6415C24.1848 32.2003 21.0266 23.6366 21.0266 23.6366Z" fill="#FDA894"/>
<path d="M19.0202 25.2435C18.7408 25.9229 18.6477 26.6647 18.7507 27.3921C18.8537 28.1194 19.149 28.8062 19.606 29.3814C19.8842 29.7358 20.4455 29.3174 20.1673 28.9629C19.7814 28.4868 19.5309 27.9155 19.4421 27.3091C19.3533 26.7027 19.4294 26.0835 19.6626 25.5168C19.83 25.1057 19.1876 24.8349 19.0202 25.2435Z" fill="#BF3131"/>
<path d="M32.6078 18.289C35.8201 17.9443 39.3304 15.8964 39.163 14.2718C38.9784 12.5118 34.5181 11.4902 31.3574 11.5001C28.1968 11.5099 23.7069 12.5782 23.5543 14.2718C23.3919 16.0835 28.1746 18.7616 32.6078 18.289Z" fill="#172554"/>
<path d="M31.7985 19.018H31.4685C27.2987 18.8851 23.8379 16.1848 22.9985 14.8334C22.7671 14.4666 22.7055 14.1737 22.8113 13.9398C23.0575 13.3786 24.0421 13.5189 25.396 13.7134C26.0113 13.7995 27.0009 13.9423 27.3405 13.861C27.1575 13.6427 26.9548 13.4417 26.735 13.2604C26.1935 12.7804 25.6348 12.2758 25.8292 11.7515C26.0237 11.2272 26.7079 11.0844 28.1504 11.1952C28.2434 11.2021 28.3299 11.2457 28.3908 11.3163C28.4517 11.3869 28.4822 11.4788 28.4754 11.5718C28.4672 11.6648 28.4229 11.7508 28.3521 11.8116C28.2812 11.8723 28.1894 11.9029 28.0963 11.8967C26.9 11.8032 26.5751 11.946 26.5012 11.9952C26.5579 12.1626 26.9714 12.5318 27.2003 12.7337C27.7246 13.1989 28.2219 13.6395 28.0446 14.122C27.7985 14.7669 26.7006 14.6142 25.2975 14.4075C24.724 14.3262 23.7985 14.1934 23.4809 14.2598C23.7394 15.0475 27.1191 18.1737 31.4908 18.314C34.9616 18.4247 37.5978 16.6204 38.8606 15.5349C38.8948 15.5002 38.9356 15.473 38.9808 15.455C39.026 15.437 39.0745 15.4286 39.1231 15.4302C39.1717 15.4318 39.2195 15.4436 39.2634 15.4646C39.3073 15.4856 39.3462 15.5154 39.3779 15.5523C39.4097 15.5892 39.4335 15.6322 39.4478 15.6787C39.462 15.7252 39.4665 15.7742 39.4609 15.8225C39.4553 15.8708 39.4397 15.9175 39.4152 15.9595C39.3907 16.0015 39.3578 16.0379 39.3184 16.0666C38.0187 17.1792 35.3431 19.018 31.7985 19.018Z" fill="black"/>
<path d="M31.707 38.5717C28.9452 38.5717 27.2344 36.5409 27.0301 36.2972C27.0013 36.2613 26.9799 36.2201 26.967 36.1759C26.9542 36.1318 26.9502 36.0855 26.9552 36.0398C26.9603 35.9941 26.9742 35.9498 26.9963 35.9095C27.0185 35.8692 27.0483 35.8337 27.0842 35.8049C27.1201 35.7761 27.1613 35.7547 27.2055 35.7419C27.2496 35.729 27.2959 35.725 27.3417 35.73C27.3874 35.7351 27.4316 35.749 27.4719 35.7711C27.5123 35.7933 27.5477 35.8232 27.5765 35.859C27.7611 36.088 29.4374 38.0744 32.1254 37.8504C32.8592 37.7755 33.5695 37.5499 34.2121 37.1877C34.8546 36.8256 35.4156 36.3347 35.8597 35.7458C35.8866 35.7069 35.921 35.6737 35.961 35.6484C36.001 35.6231 36.0457 35.6061 36.0924 35.5984C36.1391 35.5907 36.1868 35.5925 36.2328 35.6038C36.2787 35.615 36.322 35.6354 36.3599 35.6637C36.3979 35.692 36.4297 35.7277 36.4536 35.7686C36.4774 35.8095 36.4927 35.8548 36.4986 35.9017C36.5045 35.9487 36.5009 35.9964 36.4879 36.0419C36.475 36.0875 36.453 36.1299 36.4233 36.1667C35.9187 36.8338 35.2823 37.3899 34.5534 37.8002C33.8246 38.2106 33.019 38.4665 32.187 38.552C32.0294 38.5643 31.867 38.5717 31.707 38.5717Z" fill="#BF3131"/>
<path d="M31.7759 34.9267C31.5364 34.9265 31.2994 34.878 31.079 34.7841C30.8587 34.6902 30.6595 34.5529 30.4934 34.3803L29.6368 33.4892C29.5741 33.4218 29.5403 33.3326 29.5426 33.2406C29.5449 33.1485 29.5831 33.061 29.6491 32.9969C29.6813 32.9644 29.7197 32.9387 29.7619 32.9211C29.8042 32.9035 29.8495 32.8945 29.8952 32.8945C29.941 32.8945 29.9864 32.9035 30.0286 32.9211C30.0709 32.9387 30.1091 32.9644 30.1414 32.9969L30.9981 33.8904C31.1036 33.9988 31.2305 34.0838 31.3708 34.1402C31.5111 34.1966 31.6617 34.223 31.8128 34.2178C31.9641 34.2126 32.1127 34.1751 32.2485 34.1081C32.3843 34.041 32.5043 33.9459 32.6005 33.8289L33.1372 33.1815C33.1963 33.1097 33.2814 33.0643 33.374 33.0553C33.4665 33.0463 33.5589 33.0745 33.6307 33.1335C33.7025 33.1926 33.7479 33.2778 33.7569 33.3703C33.7659 33.4629 33.7377 33.5552 33.6786 33.627L33.1421 34.2769C32.9827 34.4701 32.7843 34.6274 32.5599 34.7385C32.3355 34.8497 32.0902 34.9121 31.8399 34.9218L31.7759 34.9267Z" fill="#BF3131"/>
</g>
</g>
<path d="M0.5 32C0.5 14.603 14.603 0.5 32 0.5C49.397 0.5 63.5 14.603 63.5 32C63.5 49.397 49.397 63.5 32 63.5C14.603 63.5 0.5 49.397 0.5 32Z" stroke="#CBD5E1"/>
</g>
<defs>
<clipPath id="clip0_1_71978">
<rect width="64" height="64" fill="white"/>
</clipPath>
<clipPath id="clip1_1_71978">
<path d="M0 32C0 14.3269 14.3269 0 32 0C49.6731 0 64 14.3269 64 32C64 49.6731 49.6731 64 32 64C14.3269 64 0 49.6731 0 32Z" fill="white"/>
</clipPath>
<clipPath id="clip2_1_71978">
<rect width="64" height="64" fill="white"/>
</clipPath>
</defs>
</svg>
