<svg width="64" height="64" viewBox="0 0 64 64" fill="none" xmlns="http://www.w3.org/2000/svg">
<g clip-path="url(#clip0_1_71972)">
<g clip-path="url(#clip1_1_71972)">
<g clip-path="url(#clip2_1_71972)">
<path d="M64 0H0V64H64V0Z" fill="white"/>
<path d="M30.6904 36.8669C34.6675 36.8669 38.4817 35.287 41.2939 32.4748C44.1061 29.6625 45.6861 25.8483 45.6861 21.8712C45.6861 12.9924 37.5778 7.3703 30.6904 6.87553C25.7501 6.52107 19.4411 8.65767 16.7556 13.8097C15.0177 17.15 15.4781 20.4558 15.6947 21.8712C16.5809 27.6337 21.403 36.8669 30.6904 36.8669Z" fill="#172554"/>
<path d="M17.2602 27.9755C17.1916 27.9757 17.1244 27.9558 17.0671 27.9181C17.0097 27.8805 16.9648 27.8268 16.9377 27.7638C16.4346 26.6038 16.067 25.3896 15.8423 24.1453C15.3991 21.5484 15.5014 18.8876 16.1427 16.3324C16.8467 13.5459 18.1266 11.2395 19.8472 9.66161C22.3309 7.38714 26.112 6.30162 30.2227 6.68808C34.587 7.09916 38.9045 9.10777 42.3778 12.3496C42.4157 12.3798 42.447 12.4175 42.4697 12.4603C42.4924 12.5032 42.5061 12.5503 42.5097 12.5986C42.5134 12.647 42.507 12.6956 42.491 12.7414C42.475 12.7871 42.4497 12.8291 42.4167 12.8646C42.3837 12.9002 42.3437 12.9285 42.2993 12.9479C42.2548 12.9673 42.2068 12.9772 42.1583 12.9772C42.1098 12.9771 42.0619 12.967 42.0174 12.9476C41.973 12.9281 41.9332 12.8997 41.9002 12.8641C38.5378 9.72807 34.3679 7.78345 30.1563 7.38715C26.2424 7.02038 22.6584 8.03699 20.3224 10.181C17.7279 12.5564 15.4362 17.9029 16.534 24.0198C16.748 25.2118 17.1 26.3749 17.5827 27.4856C17.601 27.5278 17.6108 27.5732 17.6115 27.6191C17.6123 27.6651 17.6041 27.7108 17.5871 27.7536C17.5702 27.7963 17.545 27.8353 17.513 27.8683C17.481 27.9013 17.4427 27.9277 17.4005 27.9459C17.3562 27.9651 17.3085 27.9751 17.2602 27.9755Z" fill="black"/>
<path d="M19.4391 25.8235C19.4391 25.8235 17.7307 23.1158 15.3504 24.3786C12.0101 26.1558 14.8213 33.2672 18.7105 33.8284C22.5997 34.3896 19.4391 25.8235 19.4391 25.8235Z" fill="#FDA894"/>
<path d="M15.8276 27.4309C15.5479 28.1102 15.4545 28.8517 15.557 29.5791C15.6596 30.3065 15.9544 30.9933 16.411 31.5687C16.6892 31.9232 17.2529 31.5048 16.9723 31.1478C16.588 30.6708 16.3393 30.0989 16.2527 29.4924C16.1661 28.8859 16.2446 28.2673 16.48 27.7017C16.6375 27.3004 15.995 27.01 15.8276 27.4309Z" fill="#BF3131"/>
<path d="M24.938 36.1855L26.2007 63.1936L40.8222 63.3191L39.7662 40.7271L36.0198 39.5776L24.938 36.1855Z" fill="#FDA894"/>
<path d="M25.7329 41.6084C26.8306 44.0348 28.6641 46.0543 30.9735 47.3807C33.3834 48.7862 37.3735 48.2447 40.0812 47.6268C39.9171 41.8389 39.753 36.0519 39.5889 30.2656C38.4008 33.3704 37.2111 36.4761 36.0197 39.5825L25.7329 41.6084Z" fill="#BF3131"/>
<path d="M40.6424 27.0247C40.1772 26.8991 41.7428 23.3521 40.0813 20.8068C39.1902 19.4431 38.2154 19.6499 37.5655 18.2591C36.6597 16.3244 38.1661 15.101 37.4621 13.6856C36.3618 11.4702 31.3797 11.8493 28.2191 12.0856C24.9674 12.3317 23.0794 13.1071 22.0209 13.629C21.1345 14.0458 20.3021 14.569 19.5422 15.1871C16.2314 18.0794 16.8542 23.9059 17.4819 29.7668C18.0603 35.1551 19.2468 37.7471 20.0615 39.2191C21.0142 40.9422 21.7698 42.2714 23.3748 43.2708C26.9883 45.5207 31.2517 44.2554 32.2142 43.965C34.2204 43.3172 36.0466 42.2077 37.5459 40.7256C43.8228 34.6185 43.1755 24.0634 42.469 23.9108C42.0678 23.8247 41.1175 27.1551 40.6424 27.0247Z" fill="#FDA894"/>
<path d="M30.5108 26.5852C30.4689 27.6806 30.9588 28.5889 31.6037 28.6136C32.2486 28.6382 32.8049 27.7692 32.8345 26.6739C32.864 25.5785 32.3889 24.6677 31.744 24.6431C31.099 24.6185 30.5551 25.4874 30.5108 26.5852Z" fill="#172554"/>
<path d="M21.0263 26.5927C21.1002 27.6856 21.6786 28.5398 22.3235 28.4979C22.9685 28.4561 23.4312 27.533 23.3598 26.4401C23.2885 25.3472 22.7075 24.4905 22.0626 24.5348C21.4177 24.5792 20.9549 25.4973 21.0263 26.5927Z" fill="#172554"/>
<path d="M30.8825 20.2297C29.8979 20.3232 28.842 20.8475 29.029 21.9971C29.1521 22.7577 29.9077 22.6543 30.4936 22.5706C31.653 22.4008 32.8222 22.7577 33.9594 22.5706C34.1549 22.5504 34.3421 22.481 34.5034 22.3688C34.9957 21.9848 34.5822 21.5171 34.1859 21.266C33.5811 20.8561 32.9169 20.5414 32.2167 20.3331C31.7815 20.2201 31.3299 20.1851 30.8825 20.2297Z" fill="#172554"/>
<path d="M21.7403 20.4214C20.576 20.4805 19.525 21.1599 18.7028 21.9426C18.5391 22.069 18.4278 22.2513 18.3902 22.4547C18.3887 22.5555 18.415 22.6547 18.4663 22.7416C18.5175 22.8284 18.5917 22.8995 18.6807 22.947C18.8593 23.0392 19.0583 23.0849 19.2592 23.0799C20.3029 23.1094 21.3711 22.7082 22.4222 22.6417C22.9145 22.6122 23.8155 22.7894 24.0592 22.1888C24.4678 21.1771 23.3034 20.6282 22.3705 20.4657C22.1625 20.4297 21.9513 20.4149 21.7403 20.4214Z" fill="#172554"/>
<path d="M41.8832 24.7925C41.8832 24.7925 43.2641 21.9027 45.7749 22.8824C49.2998 24.2609 47.3331 31.6504 43.5374 32.6572C39.7417 33.6639 41.8832 24.7925 41.8832 24.7925Z" fill="#FDA894"/>
<path d="M44.0712 26.1571C44.4284 26.8004 44.6075 27.5275 44.5897 28.2631C44.572 28.9988 44.3581 29.7163 43.9702 30.3417C43.7241 30.7257 43.126 30.3762 43.3623 29.9897C43.6891 29.4731 43.871 28.8782 43.8892 28.2672C43.9074 27.6562 43.7612 27.0516 43.4657 26.5165C43.2417 26.1128 43.8472 25.7583 44.0712 26.1571Z" fill="#BF3131"/>
<path d="M23.9901 15.6063C28.1378 15.5324 32.2806 12.8321 32.0295 11.2321C31.8375 10.0014 29.0757 9.53861 23.6603 8.62784C18.624 7.78107 18.1563 8.4063 18.08 8.62784C17.8462 9.27276 19.6972 10.2574 19.4388 10.8432C19.0572 11.6998 15.3156 10.3066 15.0424 10.9097C14.715 11.5891 18.7839 15.6998 23.9901 15.6063Z" fill="#172554"/>
<path d="M23.5074 15.9784H23.1776C19.0078 15.843 15.5469 13.1427 14.705 11.7938C14.4761 11.427 14.4146 11.1341 14.5204 10.9003C14.7666 10.339 15.7512 10.4793 17.105 10.6738C17.7204 10.7624 18.7099 10.9027 19.0496 10.8215C18.8653 10.6044 18.6627 10.4034 18.4441 10.2209C17.9026 9.74333 17.3437 9.23625 17.5382 8.71441C17.7327 8.19256 18.417 8.04486 19.8595 8.15563C19.9066 8.15773 19.9528 8.16929 19.9954 8.18962C20.038 8.20994 20.076 8.23863 20.1073 8.27396C20.1386 8.3093 20.1625 8.35056 20.1775 8.3953C20.1925 8.44004 20.1984 8.48734 20.1948 8.53439C20.1912 8.58144 20.1781 8.62728 20.1564 8.66919C20.1346 8.71109 20.1047 8.74821 20.0684 8.77832C20.032 8.80843 19.99 8.83094 19.9448 8.84449C19.8996 8.85803 19.8522 8.86233 19.8053 8.85717C18.6114 8.76609 18.284 8.9064 18.2102 8.95563C18.2668 9.12548 18.6803 9.49225 18.9092 9.6941C19.4335 10.1593 19.9308 10.5975 19.7536 11.0799C19.5074 11.7249 18.4095 11.5723 17.0065 11.3655C16.4329 11.2843 15.5074 11.1513 15.1899 11.2178C15.4483 12.0055 18.828 15.1316 23.1997 15.272C26.6705 15.3827 29.3068 13.5809 30.5696 12.4929C30.6412 12.4436 30.7285 12.4226 30.8146 12.4339C30.9008 12.4452 30.9799 12.4879 31.0364 12.554C31.0929 12.62 31.123 12.7046 31.1209 12.7915C31.1188 12.8783 31.0846 12.9614 31.025 13.0246C29.7278 14.1347 27.052 15.9784 23.5074 15.9784Z" fill="black"/>
<path d="M57.0311 53.5711C56.785 53.5071 56.5388 53.4529 56.2927 53.3963C55.8915 53.2978 55.5001 53.2142 55.1063 53.1231C54.3678 52.9557 53.6097 52.7834 52.854 52.6308C48.9451 51.4542 44.273 50.056 41.8287 49.3249C41.5826 49.2486 41.3511 49.1772 41.1542 49.1206L40.1524 48.8203C40.1524 48.8203 34.5499 52.1778 32.2164 53.1797C31.9654 53.293 31.7053 53.3844 31.4386 53.4529H31.4238C31.4059 53.456 31.3875 53.456 31.3696 53.4529C31.2818 53.456 31.194 53.4469 31.1087 53.4258C30.9863 53.3913 30.867 53.3468 30.7518 53.2929C30.5933 53.2191 30.4388 53.1369 30.289 53.0468C28.4945 52.0301 25.5653 49.3938 25.5653 49.3938L24.6029 49.8221L23.9161 50.1224L14.2718 54.3981C14.0256 54.4794 11.4188 55.3557 7.82742 56.7834L6.91672 57.1551C4.80718 58.0117 2.42195 59.0406 0.0244141 60.1926V63.9735H64.0244V55.3754C61.6761 54.7231 59.3327 54.1175 57.0311 53.5711Z" fill="#60A5FA"/>
<path d="M30.287 53.0742C30.5431 53.233 30.8186 53.3579 31.1067 53.4459L24.8125 56.6779C24.7607 56.7045 24.7033 56.7179 24.6451 56.7168C24.5869 56.7157 24.5298 56.7002 24.4791 56.6716C24.4284 56.6431 24.3855 56.6024 24.3543 56.5533C24.3232 56.5041 24.3047 56.448 24.3006 56.3899L23.9141 50.1499L24.6008 49.8496L24.9651 55.8139L30.287 53.0742Z" fill="black"/>
<path d="M41.8142 49.3367L37.6912 57.925C37.6657 57.9718 37.6306 58.0127 37.5882 58.045C37.5457 58.0772 37.4969 58.1001 37.445 58.1121C37.4197 58.1154 37.394 58.1154 37.3687 58.1121C37.2896 58.1141 37.2125 58.0869 37.1521 58.0358L31.4019 53.4573C31.6754 53.3959 31.9413 53.3043 32.1945 53.1841L37.2431 57.2161L41.1324 49.125C41.3367 49.189 41.5607 49.2604 41.8142 49.3367Z" fill="black"/>
<path d="M33.423 57.5955C33.423 58.3044 32.9897 58.8804 32.458 58.8804C31.9263 58.8804 31.4956 58.3044 31.4956 57.5955C31.4956 56.8865 31.9263 56.3105 32.458 56.3105C32.9897 56.3105 33.423 56.8841 33.423 57.5955Z" fill="white"/>
<path d="M30.3138 64.0001C30.6322 60.4948 31.0023 56.9831 31.424 53.4647H31.4093C31.3913 53.4678 31.373 53.4678 31.3551 53.4647C31.2672 53.4678 31.1794 53.4587 31.0941 53.4376C30.9717 53.4031 30.8524 53.3586 30.7373 53.3047C30.304 56.8788 29.9282 60.4415 29.6099 63.9927L30.3138 64.0001Z" fill="black"/>
<path d="M25.4351 32.6712C25.4049 32.676 25.3741 32.676 25.344 32.6712C25.024 32.5875 24.7039 32.4891 24.3913 32.3759C24.0787 32.2626 23.7563 32.1297 23.4461 31.9869C23.2709 31.9039 23.1142 31.7864 22.9853 31.6414C22.8564 31.4965 22.758 31.3271 22.696 31.1433C22.634 30.9596 22.6096 30.7652 22.6243 30.5718C22.639 30.3784 22.6924 30.19 22.7815 30.0177L24.7927 26.19C24.8365 26.1079 24.9111 26.0465 25.0001 26.0193C25.0891 25.9921 25.1854 26.0012 25.2677 26.0448C25.3087 26.0658 25.3452 26.0948 25.3749 26.1301C25.4046 26.1653 25.4269 26.2061 25.4406 26.2501C25.4544 26.2941 25.4593 26.3404 25.4549 26.3863C25.4506 26.4322 25.4371 26.4767 25.4154 26.5174L23.4043 30.3426C23.3567 30.4312 23.3278 30.5286 23.3192 30.6289C23.3106 30.7291 23.3226 30.83 23.3544 30.9254C23.3862 31.0209 23.4372 31.1088 23.5042 31.1838C23.5712 31.2588 23.6527 31.3194 23.744 31.3617C24.0344 31.4971 24.3323 31.6079 24.6302 31.7285C24.928 31.8491 25.2234 31.9279 25.5237 32.0042C25.6133 32.0289 25.6894 32.0881 25.7356 32.1688C25.7817 32.2495 25.794 32.3452 25.7698 32.4349C25.7463 32.5048 25.7013 32.5653 25.6411 32.6078C25.5809 32.6503 25.5087 32.6725 25.4351 32.6712Z" fill="#BF3131"/>
<path d="M26.2082 36.7872C25.95 36.7877 25.692 36.7737 25.4353 36.7454C24.44 36.6382 23.4764 36.3318 22.602 35.8444C22.5589 35.8237 22.5205 35.7943 22.4891 35.7582C22.4577 35.7221 22.434 35.6799 22.4194 35.6343C22.4049 35.5887 22.3998 35.5406 22.4045 35.4929C22.4092 35.4453 22.4235 35.3991 22.4466 35.3572C22.4697 35.3153 22.5012 35.2786 22.539 35.2492C22.5768 35.2199 22.6202 35.1985 22.6665 35.1865C22.7129 35.1745 22.7613 35.1721 22.8086 35.1794C22.8559 35.1868 22.9012 35.2036 22.9418 35.2291C23.7339 35.6713 24.6071 35.9493 25.5091 36.0463C27.0656 36.1922 28.6269 35.822 29.9522 34.9928C29.9915 34.9654 30.0359 34.9464 30.0828 34.9368C30.1297 34.9272 30.178 34.9273 30.2248 34.9371C30.2717 34.9468 30.3162 34.966 30.3554 34.9934C30.3946 35.0209 30.4277 35.0561 30.4528 35.0968C30.478 35.1375 30.4945 35.1829 30.5015 35.2303C30.5085 35.2776 30.5058 35.3259 30.4935 35.3721C30.4812 35.4184 30.4596 35.4616 30.43 35.4993C30.4004 35.5369 30.3635 35.5681 30.3215 35.5909C29.0858 36.3588 27.663 36.7727 26.2082 36.7872Z" fill="#BF3131"/>
</g>
</g>
<path d="M0.5 32C0.5 14.603 14.603 0.5 32 0.5C49.397 0.5 63.5 14.603 63.5 32C63.5 49.397 49.397 63.5 32 63.5C14.603 63.5 0.5 49.397 0.5 32Z" stroke="#CBD5E1"/>
</g>
<defs>
<clipPath id="clip0_1_71972">
<rect width="64" height="64" fill="white"/>
</clipPath>
<clipPath id="clip1_1_71972">
<path d="M0 32C0 14.3269 14.3269 0 32 0C49.6731 0 64 14.3269 64 32C64 49.6731 49.6731 64 32 64C14.3269 64 0 49.6731 0 32Z" fill="white"/>
</clipPath>
<clipPath id="clip2_1_71972">
<rect width="64" height="64" fill="white"/>
</clipPath>
</defs>
</svg>
