<svg width="64" height="64" viewBox="0 0 64 64" fill="none" xmlns="http://www.w3.org/2000/svg">
<g clip-path="url(#clip0_1_71973)">
<g clip-path="url(#clip1_1_71973)">
<g clip-path="url(#clip2_1_71973)">
<path d="M64 0H0V64H64V0Z" fill="white"/>
<path d="M24.9355 36.1855L26.1984 63.1936L40.8223 63.3191L39.7663 40.7271L36.0174 39.5776L24.9355 36.1855Z" fill="#FDA894"/>
<path d="M25.7329 41.6074C26.8306 44.0338 28.6641 46.0533 30.9735 47.3797C33.3834 48.7852 37.3735 48.2437 40.0812 47.6258L39.7588 40.7335L36.0098 39.584C31.2123 40.4578 25.7329 41.6074 25.7329 41.6074Z" fill="#BF3131"/>
<path d="M57.0318 53.5711C56.7856 53.5071 56.5272 53.4529 56.281 53.3963C55.8823 53.2978 55.4909 53.2142 55.097 53.1231C54.3586 52.9557 53.6004 52.7834 52.8447 52.6308C48.9334 51.4542 44.2638 50.056 41.8195 49.3249C41.5733 49.2486 41.3444 49.1772 41.1475 49.1206L40.1456 48.8203C40.1456 48.8203 34.5432 52.1778 32.2096 53.1797C31.9587 53.293 31.6984 53.3844 31.4318 53.4529H31.417C31.3983 53.4562 31.3791 53.4562 31.3604 53.4529C31.2734 53.4559 31.1864 53.4468 31.102 53.4258C30.9796 53.3913 30.8602 53.3468 30.745 53.2929C30.5865 53.2191 30.432 53.1369 30.2822 53.0468C28.4878 52.0301 25.556 49.3938 25.556 49.3938L24.5961 49.8221L23.9093 50.1224L14.2649 54.3981C14.0188 54.4794 11.4121 55.3557 7.8207 56.7834L6.90989 57.1551C4.80035 58.0117 2.41512 59.0406 0.0175781 60.1926V66.2403H64.0176V55.3754C61.6767 54.7231 59.3431 54.1175 57.0318 53.5711Z" fill="#60A5FA"/>
<path d="M30.2742 53.0723C30.5302 53.231 30.8058 53.356 31.0939 53.444L24.7998 56.676C24.748 56.7026 24.6905 56.7159 24.6323 56.7148C24.5741 56.7137 24.517 56.6982 24.4663 56.6697C24.4155 56.6411 24.3728 56.6005 24.3416 56.5513C24.3105 56.5022 24.2919 56.446 24.2878 56.388L23.9014 50.148L24.5881 49.8477L24.9524 55.812L30.2742 53.0723Z" fill="black"/>
<path d="M41.8117 49.3367L37.6912 57.925C37.6657 57.9718 37.6306 58.0127 37.5882 58.045C37.5457 58.0772 37.4969 58.1001 37.445 58.1121C37.4197 58.1154 37.394 58.1154 37.3687 58.1121C37.2889 58.1136 37.2112 58.0865 37.1496 58.0358L31.4019 53.4573C31.6752 53.3951 31.941 53.3035 32.1945 53.1841L37.2407 57.2161L41.1324 49.125C41.3367 49.189 41.5606 49.2604 41.8117 49.3367Z" fill="black"/>
<path d="M33.4225 57.5955C33.4225 58.3044 32.9893 58.8804 32.4576 58.8804C31.9259 58.8804 31.4927 58.3044 31.4927 57.5955C31.4927 56.8865 31.9259 56.3105 32.4576 56.3105C32.9893 56.3105 33.4225 56.8841 33.4225 57.5955Z" fill="white"/>
<path d="M30.1434 64.3271C30.4618 60.8218 31.002 56.9831 31.4238 53.4647H31.409C31.3903 53.468 31.3711 53.468 31.3524 53.4647C31.2654 53.4677 31.1783 53.4586 31.0939 53.4376C30.9715 53.4031 30.8522 53.3586 30.737 53.3047C30.3038 56.8788 29.7578 60.7685 29.4395 64.3197L30.1434 64.3271Z" fill="black"/>
<path d="M31.4312 37.1867C34.3972 37.1867 37.2965 36.3072 39.7626 34.6593C42.2287 33.0114 44.1507 30.6693 45.2857 27.929C46.4206 25.1888 46.7174 22.1735 46.1385 19.2646C45.5597 16.3556 44.1313 13.6837 42.0339 11.5866C39.9364 9.4895 37.2643 8.0615 34.3553 7.48316C31.4462 6.90483 28.431 7.20212 25.691 8.33749C22.9509 9.47286 20.609 11.3953 18.9615 13.8616C17.3141 16.328 16.4351 19.2275 16.4355 22.1935C16.4362 26.1701 18.0164 29.9837 20.8286 32.7954C23.6407 35.6071 27.4545 37.1867 31.4312 37.1867Z" fill="#172554"/>
<path d="M17.2013 27.909C17.1266 27.9088 17.0539 27.8848 16.9937 27.8406C16.9336 27.7963 16.889 27.7341 16.8666 27.6628C16.4891 26.4579 16.2608 25.2113 16.1871 23.9508C15.9164 19.3502 17.6394 12.709 23.3822 9.12252C28.0714 6.19821 33.0832 6.85051 35.0204 7.26898C35.0655 7.27831 35.1084 7.29653 35.1464 7.32258C35.1844 7.34864 35.2168 7.38203 35.2418 7.42075C35.2668 7.45947 35.2838 7.50275 35.2918 7.54812C35.2999 7.59349 35.2988 7.64003 35.2887 7.68499C35.2692 7.77593 35.2145 7.85544 35.1365 7.90617C35.0586 7.95691 34.9638 7.97473 34.8727 7.95575C33.0192 7.55698 28.2266 6.92927 23.754 9.71819C18.2721 13.1422 16.6155 19.5028 16.8863 23.909C16.9596 25.1125 17.1786 26.3028 17.5386 27.4536C17.5656 27.5427 17.5565 27.6389 17.5132 27.7213C17.4699 27.8038 17.3959 27.8659 17.3072 27.8942C17.2728 27.904 17.2371 27.9089 17.2013 27.909Z" fill="black"/>
<path d="M44.2314 23.7127C43.4363 23.6487 42.7225 20.7589 42.2425 18.162C42.0082 16.8838 41.407 15.7015 40.5123 14.7591C39.6176 13.8168 38.4681 13.1551 37.2038 12.8549C35.0032 12.3355 32.3988 11.8949 30.4419 12.0869C28.5243 12.2764 26.1932 12.9558 24.2437 13.6303C23.0673 14.0383 22.0288 14.7676 21.2457 15.7356C20.4626 16.7036 19.9662 17.8716 19.8129 19.1072C19.3895 22.4943 18.885 24.7983 18.5034 24.8229C18.56 30.4081 19.7835 35.3558 23.1115 40.1632C26.2869 44.7466 32.3102 47.2746 37.2358 43.7866C39.7613 41.997 41.8536 39.6291 42.9194 36.6629C43.9853 33.6967 44.736 31.3853 44.9403 28.2223C45.0477 26.7726 45.0789 25.3183 45.0338 23.8654C44.7739 23.7807 44.5043 23.7294 44.2314 23.7127Z" fill="#FDA894"/>
<path d="M35.8619 26.5852C35.82 27.6806 36.3075 28.5889 36.9524 28.6136C37.5973 28.6382 38.1536 27.7692 38.1954 26.6739C38.2373 25.5785 37.7498 24.6677 37.1049 24.6431C36.46 24.6185 35.9013 25.4874 35.8619 26.5852Z" fill="#172554"/>
<path d="M25.7699 26.5927C25.8413 27.6856 26.4221 28.5398 27.0646 28.4979C27.7071 28.4561 28.1724 27.533 28.101 26.4401C28.0296 25.3472 27.4486 24.4905 26.8062 24.5348C26.1637 24.5792 25.696 25.4973 25.7699 26.5927Z" fill="#172554"/>
<path d="M36.2288 20.2297C35.2442 20.3232 34.1881 20.8475 34.3752 21.9971C34.4983 22.7577 35.254 22.6543 35.8399 22.5706C36.9993 22.4008 38.1685 22.7577 39.3058 22.5706C39.5012 22.5504 39.6884 22.481 39.8497 22.3688C40.3421 21.9848 39.9285 21.5171 39.5322 21.266C38.9276 20.8557 38.2634 20.5411 37.563 20.3331C37.1278 20.2201 36.6762 20.1851 36.2288 20.2297Z" fill="#172554"/>
<path d="M26.4786 20.4214C25.3167 20.4805 24.2631 21.1598 23.4435 21.9426C23.2799 22.0695 23.1679 22.2514 23.1284 22.4546C23.1277 22.5556 23.1547 22.6548 23.2063 22.7416C23.2579 22.8284 23.3323 22.8994 23.4213 22.9469C23.5999 23.0393 23.7989 23.085 23.9998 23.0798C25.0411 23.1094 26.1118 22.7081 27.1629 22.6417C27.6552 22.6121 28.5536 22.7894 28.7973 22.1888C29.2084 21.1771 28.0442 20.6281 27.1112 20.4657C26.9024 20.4298 26.6904 20.4149 26.4786 20.4214Z" fill="#172554"/>
<path d="M42.8085 24.7925C42.8085 24.7925 44.1919 21.9027 46.7026 22.8824C50.2275 24.2609 48.2583 31.6504 44.4626 32.6572C40.6669 33.6639 42.8085 24.7925 42.8085 24.7925Z" fill="#FDA894"/>
<path d="M44.9896 26.1571C45.3473 26.8003 45.5265 27.5274 45.5088 28.2631C45.4911 28.9989 45.2769 29.7165 44.8886 30.3417C44.6548 30.7257 44.0468 30.3762 44.2831 29.9897C44.6095 29.4729 44.791 28.8779 44.8088 28.2669C44.8266 27.6559 44.6799 27.0514 44.384 26.5165C44.1699 26.1128 44.7754 25.7583 44.9896 26.1571Z" fill="#BF3131"/>
<path d="M21.0266 25.8235C21.0266 25.8235 19.3208 23.1158 16.9404 24.3786C13.5977 26.1558 16.4112 33.2672 20.298 33.8284C24.1848 34.3896 21.0266 25.8235 21.0266 25.8235Z" fill="#FDA894"/>
<path d="M19.0202 27.4309C18.7408 28.1104 18.6477 28.8521 18.7507 29.5794C18.8537 30.3068 19.149 30.9936 19.606 31.5687C19.8842 31.9232 20.4455 31.5048 20.1673 31.1478C19.7809 30.6719 19.53 30.1006 19.4412 29.4941C19.3524 28.8876 19.4289 28.2684 19.6626 27.7017C19.83 27.3004 19.1876 27.01 19.0202 27.4309Z" fill="#BF3131"/>
<path d="M32.6078 15.2397C35.8201 14.8975 39.3304 12.8471 39.163 11.2225C38.9784 9.46493 34.5181 8.44093 31.3574 8.45323C28.1968 8.46554 23.7069 9.52893 23.5543 11.2225C23.3919 13.0366 28.1746 15.7148 32.6078 15.2397Z" fill="#172554"/>
<path d="M31.7985 15.9784H31.4685C27.2987 15.843 23.8379 13.1427 22.9985 11.7938C22.7671 11.427 22.7055 11.1341 22.8113 10.9003C23.0575 10.339 24.0421 10.4793 25.396 10.6738C26.0113 10.7624 27.0009 10.9027 27.3405 10.8215C27.1568 10.6038 26.9542 10.4028 26.735 10.2209C26.1935 9.74333 25.6348 9.23625 25.8292 8.71441C26.0237 8.19256 26.7079 8.04486 28.1504 8.15563C28.1975 8.15773 28.2437 8.16929 28.2863 8.18962C28.3289 8.20994 28.3671 8.23863 28.3984 8.27396C28.4296 8.3093 28.4535 8.35056 28.4685 8.3953C28.4836 8.44004 28.4894 8.48734 28.4857 8.53439C28.4821 8.58144 28.4691 8.62728 28.4474 8.66919C28.4257 8.71109 28.3957 8.74821 28.3594 8.77832C28.3231 8.80843 28.2811 8.83094 28.2359 8.84449C28.1907 8.85803 28.1432 8.86233 28.0963 8.85717C26.9025 8.76609 26.5751 8.9064 26.5012 8.95563C26.5579 9.12548 26.9714 9.49225 27.2003 9.6941C27.7246 10.1593 28.2219 10.5975 28.0446 11.0799C27.7985 11.7249 26.7006 11.5723 25.2975 11.3655C24.724 11.2843 23.7985 11.1513 23.4809 11.2178C23.7394 12.0055 27.1191 15.1316 31.4908 15.272C34.9616 15.3827 37.5978 13.5809 38.8606 12.4929C38.8939 12.4544 38.9351 12.4236 38.9814 12.4025C39.0278 12.3815 39.0782 12.3708 39.1291 12.3711C39.18 12.3714 39.2302 12.3828 39.2762 12.4044C39.3223 12.426 39.3633 12.4574 39.3961 12.4963C39.4289 12.5352 39.4528 12.5808 39.4663 12.6299C39.4797 12.679 39.4824 12.7304 39.4741 12.7806C39.4658 12.8308 39.4466 12.8786 39.4181 12.9207C39.3895 12.9629 39.3522 12.9983 39.3086 13.0246C38.0187 14.1347 35.3431 15.9784 31.7985 15.9784Z" fill="black"/>
<path d="M31.7786 33.0886C31.6856 33.0886 31.5964 33.0518 31.5305 32.9863C31.4645 32.9208 31.4272 32.8319 31.4265 32.739V27.2252C31.4225 27.1766 31.4285 27.1278 31.4443 27.0817C31.4601 27.0356 31.4853 26.9933 31.5182 26.9575C31.5512 26.9216 31.5912 26.893 31.6358 26.8734C31.6804 26.8539 31.7285 26.8438 31.7772 26.8438C31.8259 26.8438 31.8742 26.8539 31.9188 26.8734C31.9634 26.893 32.0034 26.9216 32.0364 26.9575C32.0693 26.9933 32.0945 27.0356 32.1103 27.0817C32.1261 27.1278 32.1322 27.1766 32.1281 27.2252V32.739C32.1274 32.8315 32.0904 32.92 32.025 32.9855C31.9595 33.0509 31.8711 33.0879 31.7786 33.0886Z" fill="#BF3131"/>
<path d="M31.707 37.5409C28.9452 37.5409 27.2344 35.5102 27.0301 35.2665C26.9969 35.2311 26.9713 35.1893 26.955 35.1437C26.9387 35.098 26.9321 35.0495 26.9354 35.0011C26.9387 34.9528 26.9521 34.9056 26.9745 34.8626C26.9969 34.8197 27.0278 34.7818 27.0656 34.7513C27.1033 34.7209 27.1469 34.6986 27.1937 34.6858C27.2405 34.673 27.2894 34.67 27.3373 34.677C27.3853 34.684 27.4313 34.7009 27.4724 34.7265C27.5136 34.7521 27.549 34.7859 27.5765 34.8258C27.7611 35.0548 29.4374 37.0412 32.1254 36.8197C32.8594 36.7445 33.5699 36.5185 34.2125 36.1559C34.855 35.7933 35.4158 35.302 35.8597 34.7126C35.8866 34.6737 35.921 34.6405 35.961 34.6152C36.001 34.5899 36.0457 34.5729 36.0924 34.5652C36.1391 34.5575 36.1868 34.5594 36.2328 34.5706C36.2787 34.5818 36.322 34.6022 36.3599 34.6305C36.3979 34.6588 36.4297 34.6945 36.4536 34.7354C36.4774 34.7763 36.4927 34.8216 36.4986 34.8686C36.5045 34.9155 36.5009 34.9632 36.4879 35.0087C36.475 35.0542 36.453 35.0967 36.4233 35.1335C35.9191 35.801 35.2827 36.3574 34.5538 36.7678C33.8249 37.1782 33.0192 37.4339 32.187 37.5188C32.0294 37.5335 31.867 37.5409 31.707 37.5409Z" fill="#BF3131"/>
</g>
</g>
<path d="M0.5 32C0.5 14.603 14.603 0.5 32 0.5C49.397 0.5 63.5 14.603 63.5 32C63.5 49.397 49.397 63.5 32 63.5C14.603 63.5 0.5 49.397 0.5 32Z" stroke="#CBD5E1"/>
</g>
<defs>
<clipPath id="clip0_1_71973">
<rect width="64" height="64" fill="white"/>
</clipPath>
<clipPath id="clip1_1_71973">
<path d="M0 32C0 14.3269 14.3269 0 32 0C49.6731 0 64 14.3269 64 32C64 49.6731 49.6731 64 32 64C14.3269 64 0 49.6731 0 32Z" fill="white"/>
</clipPath>
<clipPath id="clip2_1_71973">
<rect width="64" height="64" fill="white"/>
</clipPath>
</defs>
</svg>
