<svg width="64" height="64" viewBox="0 0 64 64" fill="none" xmlns="http://www.w3.org/2000/svg">
<g clip-path="url(#clip0_1_71967)">
<g clip-path="url(#clip1_1_71967)">
<g clip-path="url(#clip2_1_71967)">
<rect width="64" height="64" fill="#FDA894"/>
<path d="M64 0H0V64H64V0Z" fill="white"/>
<path d="M24.938 36.1855L26.2007 63.1935L40.8222 63.3191L39.7662 40.7271L36.0198 39.5776L24.938 36.1855Z" fill="#FDA894"/>
<path d="M57.0311 53.5705C56.785 53.5065 56.5388 53.4523 56.2927 53.3957C55.8915 53.2972 55.5001 53.2136 55.1063 53.1225C54.3678 52.9551 53.6097 52.7828 52.854 52.6425C48.9451 51.4659 44.273 50.0677 41.8287 49.3366C41.5826 49.2603 41.3511 49.1889 41.1542 49.1323L40.1524 48.832C40.1524 48.832 34.5499 52.1896 32.2164 53.1914C31.9654 53.3047 31.7053 53.3961 31.4386 53.4646H31.4238C31.4059 53.4678 31.3875 53.4678 31.3696 53.4646C31.2818 53.4677 31.194 53.4586 31.1087 53.4376C30.9863 53.403 30.867 53.3585 30.7518 53.3046C30.5933 53.2308 30.4388 53.1486 30.289 53.0585C28.4945 52.0419 25.5653 49.4056 25.5653 49.4056L24.6029 49.8339L23.9161 50.1342L14.2718 54.4099C14.0256 54.4911 11.4188 55.3674 7.82742 56.7951L6.91672 57.1668C4.80718 58.0234 2.42195 59.0523 0.0244141 60.2043V63.9852H64.0244V55.3871C61.6761 54.7225 59.3327 54.117 57.0311 53.5705Z" fill="#60A5FA"/>
<path d="M30.2865 53.0723C30.5426 53.231 30.8181 53.356 31.1062 53.444L24.812 56.676C24.7602 56.7026 24.7028 56.7159 24.6446 56.7148C24.5864 56.7137 24.5293 56.6982 24.4786 56.6697C24.4279 56.6411 24.385 56.6005 24.3538 56.5513C24.3227 56.5021 24.3043 56.446 24.3001 56.388L23.9136 50.148L24.6004 49.8477L24.9647 55.812L30.2865 53.0723Z" fill="black"/>
<path d="M41.8142 49.3484L37.6912 57.9367C37.6657 57.9835 37.6306 58.0244 37.5882 58.0567C37.5457 58.0889 37.4969 58.1118 37.445 58.1238C37.4197 58.1271 37.394 58.1271 37.3687 58.1238C37.2896 58.1258 37.2125 58.0986 37.1521 58.0475L31.4019 53.469C31.6754 53.4076 31.9413 53.316 32.1945 53.1958L37.2431 57.2278L41.1324 49.1367C41.3367 49.1884 41.5607 49.2598 41.8142 49.3484Z" fill="black"/>
<path d="M33.423 57.5955C33.423 58.3044 32.9897 58.8804 32.458 58.8804C31.9263 58.8804 31.4956 58.3044 31.4956 57.5955C31.4956 56.8865 31.9263 56.3105 32.458 56.3105C32.9897 56.3105 33.423 56.8841 33.423 57.5955Z" fill="white"/>
<path d="M30.3138 64.0001C30.6322 60.4949 31.0023 56.9831 31.424 53.4647H31.4093C31.3913 53.4678 31.373 53.4678 31.3551 53.4647C31.2672 53.4678 31.1794 53.4587 31.0941 53.4376C30.9717 53.4031 30.8524 53.3586 30.7373 53.3047C30.304 56.8788 29.9282 60.4415 29.6099 63.9927L30.3138 64.0001Z" fill="black"/>
<path d="M25.7329 41.607C26.8303 44.033 28.664 46.0517 30.9735 47.3768C33.3834 48.7848 37.3735 48.2433 40.0812 47.623C39.9171 41.8367 39.753 36.0496 39.5889 30.2617C38.4008 33.3649 37.2111 36.4706 36.0197 39.5787L25.7329 41.607Z" fill="#BF3131"/>
<path d="M29.7034 36.8248C38.2498 37.4796 44.4086 29.6618 45.8018 23.0205C46.0652 21.7725 47.1532 16.5934 44.1969 12.3916C38.6806 4.55406 22.6388 5.17438 17.5754 12.7682C15.552 15.8033 15.7834 19.183 15.8991 20.7264C16.3397 26.5381 20.4406 36.1134 29.7034 36.8248Z" fill="#172554"/>
<path d="M17.0191 26.9342C16.945 26.9331 16.873 26.9088 16.8134 26.8646C16.7538 26.8204 16.7095 26.7587 16.6868 26.688C16.2739 25.4928 16.0005 24.2538 15.872 22.9957C15.3354 17.6887 17.4278 11.8819 20.9625 8.87145C23.6702 6.56006 27.6899 5.51634 31.9631 6.01111C36.4874 6.53542 40.9182 8.71883 44.4407 12.133C44.5076 12.1983 44.5459 12.2875 44.547 12.3809C44.5482 12.4744 44.5121 12.5645 44.4468 12.6314C44.3815 12.6983 44.2923 12.7366 44.1988 12.7377C44.1054 12.7389 44.0153 12.7029 43.9484 12.6376C36.352 5.25297 26.3361 5.21359 21.413 9.40805C18.0432 12.2757 16.0517 17.8339 16.5661 22.9244C16.689 24.1288 16.951 25.3149 17.3465 26.4591C17.3617 26.5029 17.3679 26.5493 17.3651 26.5955C17.3622 26.6418 17.3503 26.687 17.33 26.7286C17.3096 26.7702 17.2813 26.8074 17.2465 26.8381C17.2118 26.8687 17.1713 26.8922 17.1274 26.9071C17.0929 26.9217 17.0564 26.9308 17.0191 26.9342Z" fill="black"/>
<path d="M19.3821 24.2422C19.3821 24.2422 17.8879 21.4114 15.4165 22.492C11.9482 24.0059 14.2103 31.3141 18.0429 32.1683C21.8755 33.0225 19.3821 24.2422 19.3821 24.2422Z" fill="#FDA894"/>
<path d="M15.6577 25.5771C15.3248 26.2351 15.1742 26.9701 15.2214 27.706C15.2685 28.4418 15.5119 29.1516 15.926 29.7617C16.1722 30.1359 16.7679 29.7617 16.5168 29.3851C16.1688 28.8825 15.9624 28.2956 15.9191 27.6859C15.8758 27.0761 15.9972 26.4659 16.2706 25.9192C16.4774 25.5032 15.857 25.1709 15.6577 25.5771Z" fill="#BF3131"/>
<path d="M40.3789 27.7752C39.9014 27.5906 40.5316 23.9623 39.9827 22.3598C39.4731 20.8829 38.8429 20.9543 38.5401 19.785C37.8755 17.2349 40.3272 15.9967 40.017 13.9069C39.542 10.7069 33.1248 8.9838 29.2922 8.73765C26.4786 8.56288 24.7999 9.18319 24.2337 9.41457C22.6406 10.0816 21.2357 11.1297 20.1426 12.4669C16.7433 16.4324 16.886 21.8601 17.078 28.7278C17.1838 32.5481 17.5703 35.3936 18.9241 38.3499C19.7414 40.1395 20.4011 41.5229 21.9174 42.6429C25.3463 45.161 29.6934 44.233 30.678 44.009C32.7058 43.4585 34.5998 42.4993 36.2436 41.1906C40.8245 37.481 42.8897 25.6829 42.1734 25.4712C41.8214 25.3727 40.7949 27.9327 40.3789 27.7752Z" fill="#FDA894"/>
<path d="M30.533 23.5739C30.4075 24.6643 30.8259 25.6071 31.4659 25.6809C32.1059 25.7548 32.7287 24.9425 32.8543 23.8422C32.9798 22.7418 32.5638 21.8089 31.9213 21.7351C31.2789 21.6612 30.6659 22.4859 30.533 23.5739Z" fill="#172554"/>
<path d="M21.0732 22.9712C21.0732 24.0691 21.5656 24.9651 22.2204 24.97C22.8751 24.9749 23.3994 24.0962 23.4117 23.0008C23.424 21.9054 22.9195 21.0094 22.2647 21.002C21.6099 20.9946 21.0855 21.8758 21.0732 22.9712Z" fill="#172554"/>
<path d="M31.6259 16.9056C30.6412 16.7653 29.4991 17.0262 29.4105 18.1905C29.3514 18.9585 30.1121 19.0348 30.7004 19.089C31.8696 19.1948 32.9157 19.8274 34.0677 19.9111C34.2624 19.9369 34.4606 19.9132 34.6438 19.8422C35.2148 19.5813 34.9219 19.0323 34.5921 18.6951C34.0979 18.1525 33.5224 17.69 32.8862 17.324C32.494 17.1114 32.0673 16.9697 31.6259 16.9056Z" fill="#172554"/>
<path d="M22.2028 16.1944C21.0409 16.2534 19.9873 16.9328 19.1701 17.7205C19.0064 17.8468 18.895 18.0291 18.8575 18.2325C18.8562 18.3336 18.8829 18.433 18.9346 18.5199C18.9863 18.6068 19.061 18.6777 19.1504 18.7248C19.3281 18.8169 19.5263 18.8626 19.7265 18.8577C20.7701 18.8824 21.8385 18.4811 22.8896 18.4122C23.3819 18.3826 24.2827 18.555 24.5239 17.9568C24.9325 16.9451 23.7683 16.3987 22.8353 16.2337C22.6265 16.1981 22.4144 16.1849 22.2028 16.1944Z" fill="#172554"/>
<path d="M41.7546 26.0546C41.7546 26.0546 43.3522 23.2804 45.7818 24.4497C49.191 26.0915 46.6629 33.3112 42.8008 34.0251C38.9386 34.7389 41.7546 26.0546 41.7546 26.0546Z" fill="#FDA894"/>
<path d="M43.8253 27.5824C44.1308 28.2507 44.2528 28.9883 44.1789 29.7194C44.1049 30.4506 43.8376 31.1488 43.4043 31.7424C43.141 32.1067 42.56 31.7104 42.8259 31.3436C43.1897 30.8545 43.4157 30.2768 43.4802 29.6706C43.5447 29.0645 43.4454 28.4521 43.1927 27.8974C43.0105 27.4765 43.6406 27.1688 43.8253 27.5824Z" fill="#BF3131"/>
<path d="M26.1023 10.7398C30.2057 11.3602 34.7399 9.39091 34.7595 7.77122C34.7768 6.52568 32.1331 5.60753 26.9368 3.80322C22.1122 2.12691 21.5485 2.66354 21.4353 2.86292C21.1005 3.45615 22.7572 4.73862 22.4076 5.26292C21.8882 6.04323 18.4321 4.04693 18.0629 4.59339C17.6198 5.23093 20.9454 9.96446 26.1023 10.7398Z" fill="#172554"/>
<path d="M27.2785 11.1624C26.5907 11.1627 25.9047 11.0943 25.2305 10.9581C21.1444 10.1285 18.1856 6.88668 17.5776 5.41714C17.4127 5.01837 17.4028 4.71805 17.5431 4.50635C17.8853 3.99189 18.8281 4.29468 20.1327 4.71314C20.7234 4.90268 21.6736 5.20543 22.0232 5.18328C21.8804 4.93826 21.7156 4.70676 21.5309 4.4916C21.0779 3.92791 20.6102 3.34698 20.8908 2.85221C21.1715 2.35744 21.8754 2.3402 23.2735 2.6922C23.3603 2.71835 23.4337 2.77694 23.4783 2.85578C23.523 2.93462 23.5355 3.02765 23.5133 3.11549C23.4911 3.20333 23.4359 3.27922 23.3591 3.32739C23.2824 3.37555 23.1901 3.39226 23.1013 3.37405C21.9395 3.08359 21.5924 3.1673 21.5112 3.20422C21.5382 3.38145 21.8878 3.81221 22.0798 4.05098C22.5179 4.59744 22.9339 5.1119 22.6804 5.55744C22.3382 6.15559 21.2723 5.8036 19.9234 5.38268C19.3696 5.20545 18.481 4.91499 18.1561 4.93223C18.2792 5.75192 21.0902 9.3999 25.3757 10.2688C28.7775 10.9581 31.6797 9.61898 33.1074 8.7599C33.1469 8.73614 33.1906 8.72039 33.2362 8.71354C33.2817 8.70668 33.3281 8.70885 33.3728 8.71994C33.4175 8.73102 33.4596 8.7508 33.4966 8.77814C33.5337 8.80548 33.5649 8.83984 33.5887 8.87928C33.6124 8.91872 33.6282 8.96245 33.6351 9.00798C33.6419 9.0535 33.6398 9.09995 33.6287 9.14464C33.6176 9.18932 33.5978 9.23139 33.5704 9.26843C33.5431 9.30548 33.5088 9.33677 33.4693 9.36053C31.604 10.504 29.4661 11.1262 27.2785 11.1624Z" fill="black"/>
<path d="M25.9274 34.9247C24.2615 34.9316 22.6292 34.4553 21.2284 33.5536C21.1497 33.503 21.0943 33.4232 21.0744 33.3318C21.0546 33.2404 21.0719 33.1448 21.1225 33.0662C21.1731 32.9875 21.2529 32.9322 21.3443 32.9123C21.4357 32.8925 21.5312 32.9098 21.6099 32.9603C22.1536 33.3123 22.739 33.5951 23.3527 33.8022C25.6518 34.58 27.8055 34.1296 29.2062 33.6176C29.2933 33.5849 29.3898 33.5882 29.4745 33.6268C29.5593 33.6653 29.6252 33.736 29.6578 33.8231C29.6905 33.9103 29.6873 34.0068 29.6487 34.0915C29.6102 34.1762 29.5395 34.2422 29.4523 34.2748C28.3244 34.6958 27.1314 34.9158 25.9274 34.9247Z" fill="#BF3131"/>
<path d="M25.7133 29.7749C25.6479 29.7749 25.5838 29.7561 25.5287 29.7208L22.7914 27.9977L22.7521 27.9435C22.4774 27.5783 22.3247 27.1358 22.3158 26.6789C22.307 26.2219 22.4424 25.7738 22.7029 25.3983L25.4105 21.4795C25.4353 21.4383 25.4682 21.4025 25.5073 21.3745C25.5464 21.3465 25.5908 21.3268 25.6378 21.3166C25.6848 21.3064 25.7334 21.3059 25.7806 21.3153C25.8278 21.3246 25.8726 21.3435 25.9122 21.3708C25.9518 21.3981 25.9854 21.4332 26.0109 21.474C26.0364 21.5148 26.0532 21.5603 26.0604 21.6079C26.0676 21.6555 26.065 21.704 26.0527 21.7505C26.0404 21.797 26.0188 21.8405 25.989 21.8783L23.2813 25.7971C23.1115 26.0435 23.0205 26.3359 23.0205 26.6352C23.0205 26.9346 23.1115 27.2269 23.2813 27.4734L25.9029 29.1201C25.9674 29.1608 26.017 29.2213 26.0442 29.2926C26.0714 29.3639 26.0747 29.4421 26.0536 29.5154C26.0325 29.5887 25.988 29.6531 25.9271 29.6991C25.8662 29.745 25.7921 29.7699 25.7158 29.77L25.7133 29.7749Z" fill="#BF3131"/>
<path d="M22.9023 29.6198C22.815 29.6196 22.7309 29.5871 22.6663 29.5284C22.6017 29.4697 22.5613 29.3891 22.5527 29.3023L22.3066 26.7792C22.2986 26.7316 22.3005 26.6828 22.3122 26.6359C22.3239 26.589 22.3452 26.545 22.3746 26.5067C22.4041 26.4684 22.4411 26.4365 22.4834 26.4131C22.5257 26.3897 22.5723 26.3753 22.6204 26.3707C22.6685 26.3661 22.7171 26.3715 22.7631 26.3865C22.809 26.4015 22.8513 26.4258 22.8875 26.4579C22.9236 26.49 22.9527 26.5292 22.9731 26.573C22.9934 26.6169 23.0045 26.6644 23.0056 26.7128L23.2518 29.2334C23.2562 29.2794 23.2515 29.3259 23.238 29.3702C23.2244 29.4144 23.2022 29.4555 23.1727 29.4912C23.1432 29.5269 23.107 29.5564 23.0661 29.578C23.0252 29.5997 22.9803 29.613 22.9342 29.6174L22.9023 29.6198Z" fill="#BF3131"/>
</g>
</g>
<path d="M0.5 32C0.5 14.603 14.603 0.5 32 0.5C49.397 0.5 63.5 14.603 63.5 32C63.5 49.397 49.397 63.5 32 63.5C14.603 63.5 0.5 49.397 0.5 32Z" stroke="#CBD5E1"/>
</g>
<defs>
<clipPath id="clip0_1_71967">
<rect width="64" height="64" fill="white"/>
</clipPath>
<clipPath id="clip1_1_71967">
<path d="M0 32C0 14.3269 14.3269 0 32 0C49.6731 0 64 14.3269 64 32C64 49.6731 49.6731 64 32 64C14.3269 64 0 49.6731 0 32Z" fill="white"/>
</clipPath>
<clipPath id="clip2_1_71967">
<rect width="64" height="64" fill="white"/>
</clipPath>
</defs>
</svg>
