<svg width="64" height="64" viewBox="0 0 64 64" fill="none" xmlns="http://www.w3.org/2000/svg">
<g clip-path="url(#clip0_1_71977)">
<g clip-path="url(#clip1_1_71977)">
<g clip-path="url(#clip2_1_71977)">
<rect width="64" height="64" fill="white"/>
<path d="M64 0H0V64H64V0Z" fill="white"/>
<path d="M30.2869 35.9516C38.9909 35.4592 43.9583 26.6765 44.4285 20.1485C44.5171 18.9423 44.8788 13.943 41.4327 10.0562C37.2776 5.35465 30.7644 5.8519 28.6327 6.01436C27.4733 6.10297 18.2327 6.79221 15.0942 13.7091C13.541 17.1381 14.1835 20.4119 14.4788 21.8174C15.6801 27.511 21.0069 36.4636 30.2869 35.9516Z" fill="#172554"/>
<path d="M16.3594 27.8161C16.2945 27.8165 16.2308 27.7987 16.1756 27.7648C16.1203 27.7308 16.0757 27.6821 16.0467 27.6241C15.4689 26.496 15.034 25.3004 14.752 24.0647C13.6148 19.0924 15.0154 13.2339 18.1564 9.78777C20.6007 7.117 24.4898 5.56622 28.8221 5.5293H28.9773C33.5139 5.5293 38.1218 7.16622 41.9692 10.1471C42.0394 10.2055 42.0842 10.2887 42.0942 10.3795C42.1042 10.4702 42.0786 10.5613 42.0227 10.6334C41.9668 10.7056 41.885 10.7533 41.7947 10.7663C41.7044 10.7794 41.6125 10.7568 41.5385 10.7035C37.8141 7.81607 33.3588 6.2308 28.9846 6.2308H28.8345C24.6966 6.2628 20.9945 7.73236 18.6806 10.2579C15.6874 13.5293 14.3557 19.1367 15.4437 23.8997C15.7127 25.0784 16.126 26.2193 16.6745 27.2967C16.7167 27.3796 16.7243 27.4759 16.6957 27.5645C16.6671 27.653 16.6046 27.7267 16.5219 27.7693C16.472 27.7971 16.4164 27.8132 16.3594 27.8161Z" fill="black"/>
<path d="M18.9194 24.802C18.9194 24.802 17.0659 22.1927 14.7594 23.5884C11.5225 25.5453 14.7225 32.4918 18.6364 32.8364C22.5502 33.1811 18.9194 24.802 18.9194 24.802Z" fill="#FDA894"/>
<path d="M15.4044 26.61C15.1632 27.3037 15.1113 28.0491 15.2541 28.7695C15.3969 29.4899 15.7291 30.1592 16.2166 30.7085C16.5145 31.0457 17.0536 30.5977 16.7533 30.258C16.3439 29.8044 16.0638 29.2492 15.9421 28.6504C15.8204 28.0516 15.8617 27.4311 16.0616 26.8537C16.2043 26.4254 15.5496 26.1792 15.4044 26.61Z" fill="#BF3131"/>
<path d="M24.938 36.1816L26.2007 63.1896L40.8222 63.3176L39.7662 40.7256L36.0198 39.5736L24.938 36.1816Z" fill="#FDA894"/>
<path d="M25.7329 41.6044C26.8299 44.0314 28.6636 46.0511 30.9735 47.3768C33.3834 48.7848 37.3735 48.2433 40.0812 47.623C39.9171 41.8351 39.753 36.048 39.5889 30.2617L36.0197 39.5761L25.7329 41.6044Z" fill="#BF3131"/>
<path d="M40.4527 27.25C39.9038 27.3977 38.6903 25.5072 38.0947 23.5306C37.0362 20.018 38.6041 18.5165 37.3758 16.2223C36.4207 14.4352 34.5622 13.7017 33.3192 13.2094C30.9216 12.2592 28.8392 12.4586 26.5229 12.8155C25.2257 13.0174 22.9364 13.2759 20.4207 14.6986C19.5585 15.1645 18.756 15.7331 18.0306 16.3921C14.8847 19.4617 15.83 25.2537 16.7801 31.0629C17.6564 36.4094 18.9832 38.9399 19.8767 40.3602C20.9254 42.0266 21.7524 43.314 23.4115 44.2198C27.1407 46.2678 31.3278 44.7737 32.273 44.4242C34.2128 43.6157 35.9645 42.4148 37.4177 40.8968C40.4922 37.6106 41.1223 33.3596 41.3414 31.8753C42.006 27.378 40.9451 23.666 40.8073 23.6783C40.6694 23.6906 41.1395 27.0629 40.4527 27.25Z" fill="#FDA894"/>
<path d="M29.6666 28.1018C29.6863 29.1997 30.2228 30.0711 30.8678 30.0711C31.5127 30.0711 32.0223 29.1628 32.0026 28.0649C31.9829 26.9671 31.4462 26.0957 30.8013 26.0957C30.1564 26.0957 29.6469 27.0064 29.6666 28.1018Z" fill="#172554"/>
<path d="M20.1944 28.748C20.3249 29.8385 20.9526 30.6582 21.5926 30.5795C22.2326 30.5007 22.6461 29.5554 22.5132 28.4674C22.3802 27.3794 21.7551 26.5573 21.1151 26.6361C20.4751 26.7148 20.0713 27.66 20.1944 28.748Z" fill="#172554"/>
<path d="M29.7452 22.8363C28.7729 22.9815 27.7441 23.5625 27.9927 24.7022C28.1576 25.4554 28.9059 25.3102 29.4868 25.1945C30.6364 24.9606 31.8228 25.2536 32.9478 25.0148C33.1415 24.9832 33.3243 24.9037 33.4795 24.7834C33.9521 24.3699 33.5115 23.9268 33.1004 23.6978C32.471 23.3221 31.7878 23.0449 31.0746 22.8757C30.6374 22.7834 30.1871 22.7701 29.7452 22.8363Z" fill="#172554"/>
<path d="M20.6227 23.4361C19.4633 23.5592 18.4467 24.2927 17.6689 25.1223C17.5114 25.2561 17.4095 25.444 17.3833 25.6491C17.3885 25.7492 17.4208 25.846 17.4767 25.9293C17.5326 26.0125 17.6101 26.079 17.7008 26.1217C17.8839 26.2032 18.0844 26.2379 18.2843 26.2226C19.328 26.193 20.374 25.7302 21.4202 25.6096C21.9125 25.553 22.8183 25.6786 23.0275 25.0681C23.3795 24.0343 22.1882 23.5518 21.2478 23.446C21.0404 23.4202 20.8309 23.4169 20.6227 23.4361Z" fill="#172554"/>
<path d="M40.81 23.6778C40.81 23.6778 42.0285 20.7239 44.5909 21.5559C48.1872 22.7375 46.6292 30.2255 42.895 31.439C39.1609 32.6526 40.81 23.6778 40.81 23.6778Z" fill="#FDA894"/>
<path d="M43.0619 24.9181C43.4543 25.5408 43.6733 26.257 43.6963 26.9927C43.7192 27.7283 43.5453 28.4568 43.1924 29.1028C42.9783 29.4991 42.353 29.184 42.5672 28.7852C42.8644 28.2513 43.0128 27.6474 42.9972 27.0365C42.9816 26.4256 42.8025 25.8301 42.4785 25.3119C42.2397 24.9206 42.8256 24.5341 43.0619 24.9181Z" fill="#BF3131"/>
<path d="M22.6562 19.6066C28.8101 19.3161 34.0433 13.2706 33.1448 11.2226C32.4925 9.74565 28.5344 10.2133 22.314 10.9616C17.9448 11.4884 16.4507 12.1924 16.3645 12.9555C16.2661 13.822 18.0556 14.5309 17.8414 15.0822C17.5091 15.9586 13.6963 14.777 13.455 15.3899C13.199 16.0693 17.5756 19.8454 22.6562 19.6066Z" fill="#172554"/>
<path d="M21.6392 20.0124C17.5678 20.0124 14.0823 17.5755 13.1838 16.3004C12.9376 15.946 12.8564 15.6579 12.9376 15.4167C13.1567 14.8432 14.1438 14.9244 15.5075 15.0475C16.1253 15.1016 17.1223 15.1902 17.4546 15.0893C17.261 14.8803 17.0474 14.6908 16.817 14.5232C16.2508 14.0752 15.6674 13.6099 15.8324 13.0684C15.9973 12.5269 16.6742 12.3545 18.1191 12.3816C18.2125 12.3816 18.302 12.4187 18.3681 12.4847C18.4341 12.5508 18.4712 12.6403 18.4712 12.7337C18.4712 12.827 18.4341 12.9165 18.3681 12.9825C18.302 13.0485 18.2125 13.0856 18.1191 13.0856C16.9179 13.0586 16.6029 13.2186 16.5315 13.2727C16.598 13.4376 17.0238 13.7823 17.27 13.9718C17.8189 14.4075 18.3383 14.8186 18.1881 15.3109C17.9887 15.9681 16.8737 15.8697 15.4607 15.749C14.8847 15.6973 13.9518 15.6161 13.6392 15.6998C13.942 16.4727 17.4915 19.4118 21.8607 19.306C25.3315 19.2272 27.8644 17.2777 29.0657 16.1232C29.1329 16.0579 29.2233 16.022 29.317 16.0234C29.4107 16.0248 29.5 16.0633 29.5653 16.1305C29.6306 16.1978 29.6666 16.2882 29.6652 16.3819C29.6638 16.4756 29.6252 16.5649 29.558 16.6302C28.2829 17.861 25.5899 19.9238 21.8828 20.0075L21.6392 20.0124Z" fill="black"/>
<path d="M57.0311 53.5711C56.785 53.5071 56.5388 53.4505 56.2927 53.3963C55.8915 53.2979 55.5001 53.2142 55.1063 53.1231C54.3678 52.9557 53.6097 52.7834 52.854 52.6308C48.9451 51.4542 44.273 50.056 41.8287 49.3249C41.5826 49.2462 41.3511 49.1772 41.1542 49.1206L40.1524 48.8203C40.1524 48.8203 34.5499 52.1778 32.2164 53.1797C31.9654 53.293 31.7053 53.3844 31.4386 53.4529H31.4238C31.4059 53.4561 31.3875 53.4561 31.3696 53.4529C31.2818 53.4561 31.194 53.4469 31.1087 53.4258C30.9863 53.3913 30.867 53.3469 30.7518 53.293C30.5933 53.2191 30.4388 53.137 30.289 53.0468C28.4945 52.0302 25.5653 49.3939 25.5653 49.3939L24.6029 49.8222L23.9161 50.1225L14.2718 54.3982C14.0256 54.4794 11.4188 55.3557 7.82742 56.7834L6.91672 57.1551C4.80718 58.0117 2.42195 59.0406 0.0244141 60.1926V63.9736H64.0244V55.3754C61.6761 54.7231 59.3327 54.1274 57.0311 53.5711Z" fill="#60A5FA"/>
<path d="M30.287 53.0732C30.5431 53.232 30.8186 53.3569 31.1067 53.4449L24.8125 56.6745C24.7611 56.7036 24.7031 56.7189 24.644 56.7189C24.5849 56.7189 24.5268 56.7036 24.4754 56.6745C24.4255 56.6456 24.3835 56.6049 24.353 56.556C24.3225 56.507 24.3045 56.4513 24.3006 56.3938L23.9141 50.1539L24.6008 49.8535L24.9651 55.8179L30.287 53.0732Z" fill="black"/>
<path d="M41.8142 49.3367L37.6912 57.9225C37.6658 57.9697 37.6308 58.011 37.5884 58.0437C37.546 58.0764 37.4971 58.0997 37.445 58.1121C37.4197 58.1154 37.394 58.1154 37.3687 58.1121C37.2896 58.1141 37.2125 58.0869 37.1521 58.0358L31.4019 53.4573C31.6754 53.3959 31.9413 53.3043 32.1945 53.1841L37.2431 57.2161L41.1324 49.125C41.3367 49.189 41.5607 49.2579 41.8142 49.3367Z" fill="black"/>
<path d="M33.423 57.596C33.423 58.3049 32.9897 58.8809 32.458 58.8809C31.9263 58.8809 31.4956 58.3049 31.4956 57.596C31.4956 56.8871 31.9263 56.3086 32.458 56.3086C32.9897 56.3086 33.423 56.8846 33.423 57.596Z" fill="white"/>
<path d="M30.3138 64.0001C30.6322 60.4949 31.0023 56.9831 31.424 53.4647H31.4093C31.3913 53.4678 31.373 53.4678 31.3551 53.4647C31.2672 53.4678 31.1794 53.4587 31.0941 53.4376C30.9717 53.4031 30.8524 53.3586 30.7373 53.3047C30.304 56.8756 29.9282 60.4383 29.6099 63.9927L30.3138 64.0001Z" fill="black"/>
<path d="M24.0715 36.0449C23.8301 36.051 23.5924 35.9841 23.3896 35.8529C22.6979 35.3975 22.245 33.9008 24.0001 29.3617C24.0122 29.3137 24.0343 29.2687 24.065 29.2298C24.0957 29.1908 24.1343 29.1588 24.1782 29.1358C24.2221 29.1129 24.2704 29.0994 24.3199 29.0964C24.3694 29.0933 24.419 29.1008 24.4654 29.1182C24.5118 29.1357 24.5539 29.1627 24.5892 29.1976C24.6244 29.2324 24.6518 29.2744 24.6697 29.3206C24.6876 29.3669 24.6956 29.4164 24.693 29.4659C24.6904 29.5154 24.6775 29.5638 24.6549 29.6079C23.5054 32.5765 23.1533 34.8485 23.7761 35.2694C23.8991 35.3507 24.4136 35.5402 25.9078 34.5605C25.9855 34.5096 26.0802 34.4916 26.1711 34.5105C26.2621 34.5295 26.3418 34.5838 26.3928 34.6614C26.4437 34.7391 26.4616 34.8339 26.4426 34.9248C26.4237 35.0158 26.3695 35.0954 26.2918 35.1464C25.3638 35.747 24.6401 36.0449 24.0715 36.0449Z" fill="#BF3131"/>
<path d="M25.5781 39.383H25.2064C24.2076 39.331 23.2292 39.0799 22.3288 38.6445C22.245 38.6036 22.1807 38.5312 22.1499 38.4432C22.119 38.3552 22.124 38.2586 22.1639 38.1743C22.1839 38.1326 22.212 38.0952 22.2465 38.0644C22.281 38.0336 22.3213 38.01 22.365 37.9949C22.4088 37.9797 22.4551 37.9734 22.5013 37.9763C22.5475 37.9793 22.5926 37.9914 22.6341 38.0119C23.4499 38.4092 24.3371 38.6385 25.2433 38.6863C26.8051 38.7439 28.3427 38.2873 29.6199 37.3866C29.6964 37.3416 29.787 37.3271 29.8737 37.346C29.9604 37.3649 30.0368 37.4159 30.0875 37.4887C30.1382 37.5615 30.1595 37.6508 30.1472 37.7387C30.1349 37.8265 30.0899 37.9065 30.0211 37.9626C28.7175 38.8738 27.1686 39.369 25.5781 39.383Z" fill="#BF3131"/>
</g>
</g>
<path d="M0.5 32C0.5 14.603 14.603 0.5 32 0.5C49.397 0.5 63.5 14.603 63.5 32C63.5 49.397 49.397 63.5 32 63.5C14.603 63.5 0.5 49.397 0.5 32Z" stroke="#CBD5E1"/>
</g>
<defs>
<clipPath id="clip0_1_71977">
<rect width="64" height="64" fill="white"/>
</clipPath>
<clipPath id="clip1_1_71977">
<path d="M0 32C0 14.3269 14.3269 0 32 0C49.6731 0 64 14.3269 64 32C64 49.6731 49.6731 64 32 64C14.3269 64 0 49.6731 0 32Z" fill="white"/>
</clipPath>
<clipPath id="clip2_1_71977">
<rect width="64" height="64" fill="white"/>
</clipPath>
</defs>
</svg>
