<svg width="83" height="74" viewBox="0 0 83 74" fill="none" xmlns="http://www.w3.org/2000/svg">
<path fill-rule="evenodd" clip-rule="evenodd" d="M35.5512 9.08732C29.1088 10.3282 23.5005 13.4106 19.1249 17.7027C18.4094 18.398 17.4502 18.7756 16.457 18.7529C15.4637 18.7302 14.5173 18.309 13.8245 17.5815C13.1317 16.854 12.7489 15.8794 12.7597 14.8705C12.7706 13.8616 13.1742 12.9006 13.8823 12.1976C19.0624 7.12112 25.5049 3.56854 32.5292 1.91509C39.5535 0.261635 46.8989 0.568694 53.7896 2.80383C60.6803 5.03897 66.8605 9.1192 71.6774 14.6136C76.4943 20.108 79.769 26.8125 81.1558 34.019C83.579 46.5282 83.9312 59.3475 82.198 71.948C82.143 72.4556 81.9882 72.9461 81.7427 73.3905C81.4972 73.8349 81.1661 74.2242 80.769 74.5353C80.3719 74.8464 79.9168 75.073 79.4308 75.2016C78.9447 75.3302 78.4376 75.3582 77.9395 75.284C77.4413 75.2098 76.9623 75.0348 76.5308 74.7695C76.0992 74.5042 75.724 74.154 75.4272 73.7395C75.1305 73.325 74.9183 72.8548 74.8032 72.3567C74.6882 71.8585 74.6726 71.3426 74.7574 70.8395C76.3733 59.0789 76.0426 47.1145 73.779 35.4399C72.9567 31.1707 71.3156 27.1025 68.9495 23.4677C66.5833 19.8329 63.5384 16.7026 59.9887 14.2555C56.4389 11.8084 52.4537 10.0925 48.2608 9.20579C44.0678 8.31903 39.7491 8.27877 35.5512 9.08732ZM9.52742 24.038C10.4513 24.4241 11.1886 25.1662 11.5771 26.1011C11.9657 27.036 11.9737 28.087 11.5994 29.0231C9.23117 34.9487 8.62201 41.4586 9.84673 47.7538C11.3495 55.4979 10.6 63.5049 7.68996 70.795C7.31643 71.7315 6.59098 72.4767 5.67322 72.8665C4.75546 73.2563 3.72056 73.2588 2.79619 72.8735C1.87181 72.4882 1.13368 71.7466 0.744181 70.8119C0.354679 69.8772 0.345709 68.826 0.719243 67.8894C3.08375 61.9684 3.69216 55.4645 2.46993 49.1746C0.918978 41.1223 1.81489 33.1692 4.63365 26.1166C4.81853 25.6528 5.09178 25.2311 5.4378 24.8756C5.78382 24.5201 6.19582 24.2378 6.65027 24.0448C7.10473 23.8518 7.59272 23.7518 8.08639 23.7507C8.58006 23.7495 9.06973 23.8472 9.52742 24.038ZM39.0385 27.1926C37.0833 27.5683 35.2236 28.3354 33.5674 29.4494C31.9113 30.5634 30.4916 32.002 29.391 33.6816C28.2904 35.3612 27.5307 37.2484 27.1562 39.2335C26.7817 41.2185 26.7998 43.2618 27.2094 45.2447C29.6004 58.5445 27.3776 72.246 20.9204 84.01C20.427 84.8716 19.6194 85.5002 18.6711 85.7608C17.7227 86.0213 16.7092 85.8931 15.8483 85.4035C14.9874 84.914 14.3477 84.1022 14.0667 83.1425C13.7856 82.1829 13.8856 81.1519 14.3451 80.271C20.079 69.8282 21.9701 57.6356 19.6825 45.8594C19.6555 45.7193 19.6393 45.5824 19.6231 45.4454C18.7123 39.549 20.0988 33.5387 23.488 28.6915C26.8771 23.8444 32.0017 20.5426 37.7729 19.4878C43.544 18.4329 49.5067 19.7082 54.3939 23.0426C59.2811 26.377 62.7076 31.5077 63.9452 37.3443L64.0877 38.0846L64.3492 39.5747C64.5187 40.5738 64.2909 41.5979 63.7159 42.4217C63.1409 43.2455 62.2659 43.8015 61.2834 43.9673C60.3008 44.1332 59.2912 43.8954 58.4766 43.3061C57.662 42.7169 57.1091 41.8246 56.9397 40.8255C56.8485 40.2725 56.7484 39.7264 56.6483 39.1803C55.8424 35.24 53.5416 31.7717 50.2449 29.5275C46.9483 27.2834 42.9217 26.4444 39.0385 27.1926ZM41.0903 37.8457C42.0686 37.6573 43.0828 37.8718 43.91 38.4421C44.7372 39.0123 45.3096 39.8916 45.5012 40.8864C48.8825 58.4416 46.1614 75.7457 38.8386 90.5282C38.6225 90.9838 38.3189 91.3905 37.9457 91.7246C37.5724 92.0587 37.1369 92.3136 36.6646 92.4742C36.1922 92.6349 35.6925 92.6983 35.1946 92.6606C34.6967 92.6228 34.2106 92.4848 33.7645 92.2545C33.3185 92.0242 32.9216 91.7063 32.5968 91.3193C32.2721 90.9323 32.0261 90.484 31.8731 90.0004C31.7202 89.5169 31.6634 89.0079 31.7061 88.5031C31.7488 87.9983 31.8901 87.5078 32.1217 87.0603C38.968 73.2661 41.0802 57.5192 38.1244 42.3073C37.9328 41.3124 38.1377 40.2835 38.6939 39.4468C39.2501 38.6101 40.1121 38.0342 41.0903 37.8457ZM62.0079 52.9984C63.0042 53.0138 63.9563 53.4305 64.6547 54.1568C65.3531 54.8831 65.7408 55.8595 65.7324 56.8715C65.6397 67.5679 63.7897 78.1623 60.2587 88.218C60.1051 88.704 59.8567 89.1532 59.5284 89.5388C59.2 89.9243 58.7983 90.2385 58.3471 90.4625C57.8959 90.6866 57.4045 90.816 56.9019 90.8431C56.3993 90.8702 55.8958 90.7944 55.4214 90.6203C54.9469 90.4461 54.5112 90.1771 54.14 89.8292C53.7688 89.4813 53.4697 89.0617 53.2605 88.5952C53.0514 88.1287 52.9363 87.6248 52.9222 87.1135C52.9082 86.6022 52.9954 86.0939 53.1786 85.6188C56.4296 76.3603 58.1329 66.6058 58.2181 56.7576C58.2271 55.7456 58.6313 54.7811 59.342 54.0762C60.0526 53.3713 61.0115 52.9836 62.0079 52.9984Z" fill="url(#paint0_linear_176_27069)"/>
<defs>
<linearGradient id="paint0_linear_176_27069" x1="-2.2999" y1="55.4354" x2="82.1479" y2="39.17" gradientUnits="userSpaceOnUse">
<stop stop-color="#DBEAFE"/>
<stop offset="1" stop-color="#93C5FD"/>
</linearGradient>
</defs>
</svg>
