<svg width="260" height="260" viewBox="0 0 260 260" fill="none" xmlns="http://www.w3.org/2000/svg">
<rect width="260" height="260" fill="#DBEAFE"/>
<mask id="mask0_10627_10170" style="mask-type:alpha" maskUnits="userSpaceOnUse" x="20" y="20" width="220" height="220">
<circle cx="130" cy="130" r="110" fill="#D9D9D9"/>
</mask>
<g mask="url(#mask0_10627_10170)">
<path d="M-185.557 88.7594C-188.352 86.8819 -188.347 83.8456 -185.545 81.9778L-130.296 45.145C-127.494 43.2771 -122.957 43.2849 -120.161 45.1624L57.8255 164.706C60.6209 166.583 60.6157 169.619 57.8139 171.487L2.56475 208.32C-0.237081 210.188 -4.77453 210.18 -7.56992 208.303L-185.557 88.7594Z" fill="white"/>
<path fill-rule="evenodd" clip-rule="evenodd" d="M-128.127 46.6019L-183.376 83.4347C-184.977 84.5021 -184.98 86.2371 -183.382 87.3099L-5.39571 206.853C-3.79835 207.926 -1.20552 207.931 0.395526 206.863L55.6447 170.03C57.2457 168.963 57.2487 167.228 55.6513 166.155L-122.335 46.6119C-123.933 45.539 -126.526 45.5346 -128.127 46.6019ZM-185.545 81.9778C-188.347 83.8456 -188.352 86.8819 -185.557 88.7594L-7.56992 208.303C-4.77452 210.18 -0.237081 210.188 2.56475 208.32L57.8139 171.487C60.6157 169.619 60.6209 166.583 57.8255 164.706L-120.161 45.1624C-122.957 43.2849 -127.494 43.2771 -130.296 45.145L-185.545 81.9778Z" fill="white"/>
<path d="M-103.175 33.8385C-105.97 31.961 -105.965 28.9247 -103.163 27.0569L-47.914 -9.77591C-45.1122 -11.6438 -40.5747 -11.636 -37.7793 -9.7585L140.207 109.785C143.003 111.662 142.998 114.699 140.196 116.566L84.9466 153.399C82.1448 155.267 77.6073 155.259 74.8119 153.382L-103.175 33.8385Z" fill="white"/>
<path fill-rule="evenodd" clip-rule="evenodd" d="M-45.7448 -8.31898L-100.994 28.5138C-102.595 29.5812 -102.598 31.3162 -101.001 32.389L76.9861 151.932C78.5835 153.005 81.1763 153.01 82.7774 151.942L138.027 115.11C139.628 114.042 139.631 112.307 138.033 111.234L-39.9536 -8.30902C-41.5509 -9.38189 -44.1437 -9.38634 -45.7448 -8.31898ZM-103.163 27.0569C-105.965 28.9247 -105.97 31.961 -103.175 33.8385L74.8119 153.382C77.6073 155.259 82.1448 155.267 84.9466 153.399L140.196 116.566C142.998 114.699 143.003 111.662 140.207 109.785L-37.7793 -9.7585C-40.5747 -11.636 -45.1122 -11.6438 -47.914 -9.77591L-103.163 27.0569Z" fill="white"/>
<path d="M61.5874 -76.0033C58.792 -77.8808 58.7972 -80.9171 61.599 -82.7849L116.848 -119.618C119.65 -121.486 124.187 -121.478 126.983 -119.6L304.97 -0.05697C307.765 1.82053 307.76 4.85678 304.958 6.72467L249.709 43.5574C246.907 45.4253 242.37 45.4175 239.574 43.54L61.5874 -76.0033Z" fill="white"/>
<path fill-rule="evenodd" clip-rule="evenodd" d="M119.017 -118.161L63.7683 -81.328C62.1672 -80.2606 62.1642 -78.5256 63.7616 -77.4528L241.748 42.0905C243.346 43.1634 245.939 43.1679 247.54 42.1005L302.789 5.26773C304.39 4.20037 304.393 2.46537 302.795 1.3925L124.809 -118.151C123.211 -119.224 120.618 -119.228 119.017 -118.161ZM61.599 -82.7849C58.7972 -80.9171 58.792 -77.8808 61.5874 -76.0033L239.574 43.54C242.37 45.4175 246.907 45.4253 249.709 43.5574L304.958 6.72467C307.76 4.85678 307.765 1.82053 304.97 -0.05697L126.983 -119.6C124.187 -121.478 119.65 -121.486 116.848 -119.618L61.599 -82.7849Z" fill="white"/>
<path d="M19.5 226.484C16.7046 224.607 16.7098 221.57 19.5116 219.703L74.7608 182.87C77.5626 181.002 82.1001 181.01 84.8955 182.887L112.055 201.129C114.851 203.007 114.846 206.043 112.044 207.911L56.7946 244.743C53.9928 246.611 49.4554 246.604 46.66 244.726L19.5 226.484Z" fill="white"/>
<path fill-rule="evenodd" clip-rule="evenodd" d="M76.93 184.327L21.6809 221.16C20.0798 222.227 20.0768 223.962 21.6742 225.035L48.8342 243.277C50.4316 244.349 53.0244 244.354 54.6254 243.287L109.875 206.454C111.476 205.386 111.479 203.651 109.881 202.579L82.7213 184.337C81.1239 183.264 78.5311 183.259 76.93 184.327ZM19.5116 219.703C16.7098 221.57 16.7046 224.607 19.5 226.484L46.66 244.726C49.4554 246.604 53.9928 246.611 56.7946 244.743L112.044 207.911C114.846 206.043 114.851 203.007 112.055 201.129L84.8955 182.887C82.1001 181.01 77.5626 181.002 74.7608 182.87L19.5116 219.703Z" fill="white"/>
<path d="M101.881 171.563C99.0859 169.685 99.0912 166.649 101.893 164.781L157.142 127.948C159.944 126.081 164.481 126.088 167.277 127.966L243.583 179.216C246.378 181.094 246.373 184.13 243.571 185.998L188.322 222.83C185.52 224.698 180.983 224.691 178.187 222.813L101.881 171.563Z" fill="white"/>
<path fill-rule="evenodd" clip-rule="evenodd" d="M159.311 129.405L104.062 166.238C102.461 167.306 102.458 169.041 104.056 170.113L180.361 221.364C181.959 222.436 184.552 222.441 186.153 221.373L241.402 184.541C243.003 183.473 243.006 181.738 241.408 180.665L165.103 129.415C163.505 128.342 160.912 128.338 159.311 129.405ZM101.893 164.781C99.0912 166.649 99.0859 169.685 101.881 171.563L178.187 222.813C180.983 224.691 185.52 224.698 188.322 222.83L243.571 185.998C246.373 184.13 246.378 181.094 243.583 179.216L167.277 127.966C164.481 126.088 159.944 126.081 157.142 127.948L101.893 164.781Z" fill="white"/>
<path d="M205.257 240.994C202.461 239.117 202.467 236.081 205.268 234.213L260.518 197.38C263.319 195.512 267.857 195.52 270.652 197.398L429.15 303.851C431.946 305.729 431.94 308.765 429.139 310.633L373.889 347.466C371.088 349.334 366.55 349.326 363.755 347.448L205.257 240.994Z" fill="white"/>
<path fill-rule="evenodd" clip-rule="evenodd" d="M262.687 198.837L207.438 235.67C205.837 236.737 205.834 238.472 207.431 239.545L365.929 345.999C367.526 347.072 370.119 347.076 371.72 346.009L426.969 309.176C428.57 308.109 428.573 306.374 426.976 305.301L268.478 198.847C266.881 197.774 264.288 197.77 262.687 198.837ZM205.268 234.213C202.467 236.081 202.461 239.117 205.257 240.994L363.755 347.448C366.55 349.326 371.088 349.334 373.889 347.466L429.139 310.633C431.94 308.765 431.946 305.729 429.15 303.851L270.652 197.398C267.857 195.52 263.319 195.512 260.518 197.38L205.268 234.213Z" fill="white"/>
<path d="M73.7295 262.907C70.9341 261.029 70.9393 257.993 73.7411 256.125L128.99 219.292C131.792 217.425 136.33 217.432 139.125 219.31L346.769 358.772C349.564 360.65 349.559 363.686 346.757 365.554L291.508 402.386C288.706 404.254 284.169 404.247 281.373 402.369L73.7295 262.907Z" fill="white"/>
<path fill-rule="evenodd" clip-rule="evenodd" d="M131.16 220.749L75.9103 257.582C74.3093 258.65 74.3063 260.385 75.9037 261.457L283.547 400.92C285.145 401.992 287.738 401.997 289.339 400.929L344.588 364.097C346.189 363.029 346.192 361.294 344.594 360.222L136.951 220.759C135.353 219.686 132.761 219.682 131.16 220.749ZM73.7411 256.125C70.9393 257.993 70.9341 261.029 73.7295 262.907L281.373 402.369C284.169 404.247 288.706 404.254 291.508 402.386L346.757 365.554C349.559 363.686 349.564 360.65 346.769 358.772L139.125 219.31C136.33 217.432 131.792 217.425 128.99 219.292L73.7411 256.125Z" fill="white"/>
<path d="M-62.8814 281.405C-65.6768 279.527 -65.6715 276.491 -62.8697 274.623L-7.62055 237.79C-4.81871 235.923 -0.281277 235.93 2.51412 237.808L78.8199 289.058C81.6153 290.936 81.6101 293.972 78.8083 295.84L23.5591 332.672C20.7573 334.54 16.2198 334.533 13.4244 332.655L-62.8814 281.405Z" fill="white"/>
<path fill-rule="evenodd" clip-rule="evenodd" d="M-5.45133 239.247L-60.7005 276.08C-62.3015 277.148 -62.3045 278.883 -60.7071 279.955L15.5986 331.206C17.196 332.278 19.7888 332.283 21.3899 331.216L76.639 294.383C78.2401 293.315 78.2431 291.58 76.6457 290.508L0.339907 239.257C-1.25746 238.185 -3.85029 238.18 -5.45133 239.247ZM-62.8697 274.623C-65.6715 276.491 -65.6768 279.527 -62.8814 281.405L13.4244 332.655C16.2198 334.533 20.7573 334.54 23.5591 332.672L78.8083 295.84C81.6101 293.972 81.6153 290.936 78.8199 289.058L2.51412 237.808C-0.281277 235.93 -4.81872 235.923 -7.62055 237.79L-62.8697 274.623Z" fill="white"/>
<path d="M-20.794 -21.0824C-23.5893 -22.9599 -23.5841 -25.9962 -20.7823 -27.864L34.4669 -64.6968C37.2687 -66.5647 41.8061 -66.5569 44.6015 -64.6794L325.964 124.295C328.759 126.173 328.754 129.209 325.952 131.077L270.703 167.91C267.901 169.778 263.364 169.77 260.568 167.892L-20.794 -21.0824Z" fill="white"/>
<path fill-rule="evenodd" clip-rule="evenodd" d="M36.6361 -63.2399L-18.6131 -26.4071C-20.2141 -25.3397 -20.2171 -23.6047 -18.6197 -22.5319L262.743 166.443C264.34 167.516 266.933 167.52 268.534 166.453L323.783 129.62C325.384 128.553 325.387 126.818 323.79 125.745L42.4273 -63.2299C40.8299 -64.3028 38.2371 -64.3072 36.6361 -63.2399ZM-20.7823 -27.864C-23.5841 -25.9962 -23.5893 -22.9599 -20.794 -21.0824L260.568 167.892C263.364 169.77 267.901 169.778 270.703 167.91L325.952 131.077C328.754 129.209 328.759 126.173 325.964 124.295L44.6015 -64.6794C41.8061 -66.5569 37.2687 -66.5647 34.4669 -64.6968L-20.7823 -27.864Z" fill="white"/>
</g>
<path d="M130.365 30.0001C116.218 30.022 102.658 35.6516 92.655 45.655C82.6515 55.6584 77.0219 69.2197 77 83.3666C77.1876 95.6265 81.4071 107.483 89.0085 117.104C92.7908 122.156 101.819 134.166 123.492 162.657L124.762 164.314L127.688 168.179C128.012 168.599 128.432 168.936 128.912 169.161C129.392 169.387 129.919 169.495 130.449 169.477C130.98 169.497 131.507 169.39 131.987 169.164C132.468 168.939 132.887 168.601 133.21 168.179L136.136 164.314L136.716 163.568C144.667 153.105 164.048 127.678 171.917 117.076C179.518 107.456 183.739 95.5989 183.926 83.3391C183.912 76.32 182.514 69.3725 179.815 62.8932C177.115 56.414 173.167 50.53 168.193 45.577C163.22 40.624 157.319 36.6991 150.829 34.0264C144.339 31.3537 137.385 29.9856 130.365 30.0001Z" fill="#2563EB"/>
<path fill-rule="evenodd" clip-rule="evenodd" d="M130.372 33.0001L130.37 33.0001C117.017 33.0208 104.218 38.3343 94.7763 47.7763C85.3403 57.2123 80.0274 70.0022 80 83.346C80.1829 94.9379 84.1751 106.147 91.3624 115.244L91.3866 115.275L91.41 115.306C95.1858 120.349 104.208 132.351 125.876 160.836C125.877 160.838 125.878 160.839 125.879 160.841L127.148 162.496L130.063 166.346C130.065 166.348 130.066 166.35 130.067 166.351C130.099 166.391 130.141 166.424 130.188 166.446C130.237 166.469 130.291 166.48 130.345 166.478L130.455 166.474L130.566 166.479C130.616 166.481 130.666 166.471 130.711 166.449C130.756 166.428 130.795 166.397 130.825 166.359C130.826 166.358 130.826 166.357 130.827 166.356L133.756 162.487L134.328 161.753C134.331 161.749 134.334 161.745 134.337 161.741C135.675 159.98 137.333 157.8 139.204 155.34C148.478 143.148 162.974 124.091 169.508 115.288L169.535 115.252L169.563 115.216C176.75 106.12 180.743 94.9106 180.926 83.3192C180.909 76.7032 179.59 70.1547 177.046 64.047C174.498 57.9313 170.771 52.3776 166.076 47.7027C161.382 43.0277 155.813 39.3231 149.687 36.8004C143.561 34.2778 136.997 32.9864 130.372 33.0001ZM183.926 83.3391C183.739 95.5989 179.518 107.456 171.917 117.076C165.371 125.895 150.859 144.974 141.587 157.163C139.713 159.627 138.053 161.809 136.716 163.568L136.136 164.314L133.21 168.179C132.887 168.601 132.468 168.939 131.987 169.164C131.507 169.39 130.98 169.497 130.449 169.477C129.919 169.495 129.392 169.387 128.912 169.161C128.432 168.936 128.012 168.599 127.688 168.179L124.762 164.314L123.492 162.657C101.819 134.166 92.7908 122.156 89.0085 117.104C81.4071 107.483 77.1876 95.6265 77 83.3666C77.0219 69.2197 82.6515 55.6584 92.655 45.655C102.658 35.6516 116.218 30.022 130.365 30.0001C137.385 29.9856 144.339 31.3537 150.829 34.0264C157.319 36.6991 163.22 40.624 168.193 45.577C173.167 50.53 177.115 56.414 179.815 62.8932C182.514 69.3725 183.912 76.32 183.926 83.3391Z" fill="black"/>
<path d="M130.366 109.07C125.282 109.07 120.313 107.562 116.086 104.738C111.859 101.914 108.566 97.8994 106.62 93.2028C104.675 88.5061 104.166 83.338 105.157 78.3521C106.149 73.3662 108.597 68.7863 112.192 65.1916C115.786 61.597 120.367 59.149 125.353 58.1572C130.339 57.1655 135.506 57.6745 140.203 59.6199C144.899 61.5653 148.914 64.8598 151.738 69.0867C154.562 73.3135 156.069 78.2829 156.069 83.3665C156.069 90.1834 153.362 96.7212 148.542 101.542C143.722 106.362 137.183 109.07 130.366 109.07Z" fill="white"/>
<path fill-rule="evenodd" clip-rule="evenodd" d="M117.753 102.244C121.486 104.738 125.876 106.07 130.366 106.07C136.387 106.07 142.163 103.678 146.421 99.4202C150.678 95.1627 153.069 89.388 153.069 83.3665C153.069 78.8761 151.738 74.4867 149.244 70.7534C146.749 67.0198 143.203 64.1099 139.055 62.3915C134.906 60.6731 130.342 60.2236 125.938 61.0996C121.534 61.9756 117.488 64.1379 114.313 67.313C111.138 70.488 108.976 74.5333 108.1 78.9374C107.224 83.3414 107.673 87.9063 109.392 92.0547C111.11 96.2034 114.02 99.7491 117.753 102.244ZM116.086 104.738C120.313 107.562 125.282 109.07 130.366 109.07C137.183 109.07 143.722 106.362 148.542 101.542C153.362 96.7212 156.069 90.1834 156.069 83.3665C156.069 78.2829 154.562 73.3135 151.738 69.0867C148.914 64.8598 144.899 61.5653 140.203 59.6199C135.506 57.6745 130.339 57.1655 125.353 58.1572C120.367 59.149 115.786 61.597 112.192 65.1916C108.597 68.7863 106.149 73.3662 105.157 78.3521C104.166 83.338 104.675 88.5061 106.62 93.2028C108.566 97.8994 111.859 101.914 116.086 104.738Z" fill="black"/>
</svg>
