<svg width="192" height="192" viewBox="0 0 192 192" fill="none" xmlns="http://www.w3.org/2000/svg">
<g clip-path="url(#clip0_936_28248)">
<rect width="192" height="192" fill="white"/>
<path d="M187.594 11.1562L177.424 16.6003C177.32 16.6567 177.202 16.6833 177.084 16.6771C176.93 16.679 176.781 16.6283 176.66 16.5334C176.539 16.4385 176.455 16.3051 176.42 16.1554C176.386 16.0058 176.404 15.8488 176.471 15.7107C176.538 15.5726 176.651 15.4615 176.789 15.3962L186.96 9.95209C187.117 9.86715 187.302 9.84815 187.473 9.8992C187.644 9.95024 187.788 10.0672 187.873 10.2243C187.958 10.3814 187.977 10.5658 187.926 10.737C187.875 10.9082 187.758 11.0521 187.601 11.137L187.594 11.1562Z" fill="#2563EB"/>
<path d="M179.351 28.5412C179.361 28.3648 179.438 28.1989 179.568 28.0792C179.698 27.9595 179.87 27.8954 180.046 27.9007L191.575 28.2786C191.751 28.2861 191.918 28.363 192.038 28.4925C192.158 28.6221 192.222 28.7938 192.215 28.9703C192.206 29.1464 192.128 29.3117 191.998 29.4313C191.868 29.5508 191.697 29.6152 191.521 29.6108L179.992 29.2329C179.816 29.2254 179.649 29.1485 179.529 29.0189C179.409 28.8893 179.345 28.7176 179.351 28.5412Z" fill="#2563EB"/>
<path d="M176.648 40.3382L186.444 46.4228C186.571 46.5004 186.669 46.6181 186.722 46.7573C186.775 46.8964 186.78 47.0493 186.737 47.1918C186.693 47.3343 186.604 47.4584 186.483 47.5447C186.361 47.6309 186.215 47.6745 186.066 47.6685C185.952 47.6624 185.842 47.6272 185.746 47.566L175.95 41.4815C175.872 41.4362 175.805 41.3758 175.751 41.304C175.697 41.2321 175.658 41.1503 175.637 41.0632C175.615 40.9761 175.611 40.8856 175.625 40.797C175.639 40.7083 175.67 40.6233 175.717 40.547C175.765 40.4707 175.827 40.4047 175.9 40.3527C175.973 40.3008 176.056 40.264 176.143 40.2445C176.231 40.2251 176.321 40.2233 176.41 40.2394C176.498 40.2555 176.582 40.2891 176.657 40.3382H176.648Z" fill="#2563EB"/>
<path d="M170.356 14.3612C168.408 10.9065 165.754 7.90112 162.567 5.54102C159.379 3.18091 155.73 1.51912 151.858 0.663932C147.985 -0.191254 143.975 -0.22063 140.09 0.577774C136.206 1.37618 132.533 2.9844 129.311 5.29759C126.09 7.61079 123.392 10.577 121.393 14.0029C119.395 17.4287 118.141 21.2373 117.714 25.1802C117.286 29.1231 117.694 33.1119 118.912 36.8864C120.129 40.661 122.129 44.1366 124.78 47.0865L117.459 61.9456L133.122 53.4369C138.525 56.1389 144.651 57.0364 150.602 55.9975C156.553 54.9586 162.013 52.0381 166.18 47.6653C170.348 43.2925 173.002 37.6981 173.754 31.7044C174.506 25.7108 173.315 19.6341 170.356 14.3677V14.3612Z" fill="#2563EB"/>
<path d="M117.458 62.7046C117.585 62.705 117.71 62.673 117.82 62.6117L133.141 54.2855C137.348 56.321 141.985 57.3084 146.656 57.1634C151.327 57.0184 155.894 55.7453 159.967 53.4529C160.061 53.4076 160.144 53.3436 160.212 53.2648C160.28 53.186 160.332 53.0941 160.363 52.9948C160.394 52.8955 160.405 52.7908 160.394 52.6872C160.383 52.5837 160.351 52.4834 160.3 52.3927C160.249 52.302 160.18 52.2227 160.097 52.1597C160.014 52.0967 159.919 52.0513 159.818 52.0264C159.717 52.0016 159.612 51.9977 159.509 52.015C159.406 52.0323 159.308 52.0704 159.221 52.1271C155.307 54.3329 150.912 55.5448 146.421 55.6564C141.929 55.7681 137.479 54.7761 133.461 52.7676C133.353 52.7109 133.232 52.6813 133.11 52.6813C132.988 52.6813 132.868 52.7109 132.759 52.7676L119.197 60.1331L125.461 47.4195C125.529 47.2833 125.554 47.1298 125.534 46.9791C125.513 46.8283 125.448 46.6872 125.346 46.5741C122.518 43.4297 120.454 39.6752 119.313 35.6028C118.173 31.5304 117.988 27.2499 118.771 23.0941C118.868 22.5946 118.976 22.095 119.092 21.6082C119.135 21.414 119.1 21.2107 118.995 21.0417C118.89 20.8728 118.723 20.7515 118.53 20.7038C118.337 20.6562 118.133 20.6859 117.961 20.7867C117.79 20.8874 117.665 21.0513 117.612 21.2431C117.487 21.7587 117.372 22.2839 117.273 22.8091C116.002 29.5143 117.136 36.4528 120.475 42.4046C121.438 44.1146 122.57 45.7239 123.854 47.2082L116.754 61.619C116.683 61.764 116.66 61.9276 116.689 62.0864C116.717 62.2453 116.795 62.3911 116.911 62.5028C116.984 62.5712 117.07 62.6243 117.164 62.6589C117.258 62.6936 117.358 62.7091 117.458 62.7046Z" fill="black"/>
<path d="M143.628 45.565H143.599C143.212 45.56 142.832 45.4616 142.492 45.2781C142.151 45.0947 141.86 44.8317 141.642 44.5114L130.572 28.208C130.395 27.9471 130.27 27.6538 130.207 27.3449C130.143 27.036 130.14 26.7175 130.199 26.4076C130.259 26.0978 130.378 25.8026 130.551 25.539C130.725 25.2753 130.948 25.0484 131.209 24.8712C131.47 24.6939 131.763 24.5698 132.072 24.5058C132.381 24.4419 132.7 24.4395 133.009 24.4987C133.319 24.5579 133.615 24.6775 133.878 24.8508C134.142 25.024 134.369 25.2475 134.546 25.5084L143.676 38.9585L160.719 15.0622C160.9 14.8002 161.131 14.5767 161.4 14.4049C161.668 14.2331 161.967 14.1163 162.281 14.0614C162.595 14.0065 162.916 14.0145 163.227 14.0849C163.537 14.1554 163.831 14.2869 164.09 14.4719C164.349 14.6568 164.569 14.8915 164.737 15.1623C164.905 15.433 165.017 15.7344 165.067 16.0489C165.117 16.3634 165.104 16.6847 165.029 16.9942C164.954 17.3036 164.818 17.5951 164.629 17.8515L145.585 44.5563C145.363 44.8682 145.069 45.1225 144.729 45.298C144.388 45.4735 144.011 45.5651 143.628 45.565Z" fill="white"/>
<g clip-path="url(#clip1_936_28248)">
<path d="M121.953 145.085C118.815 145.085 115.748 144.154 113.138 142.41C110.529 140.667 108.496 138.189 107.295 135.289C106.094 132.39 105.781 129.2 106.393 126.122C107.006 123.044 108.517 120.217 110.736 117.999C112.956 115.78 115.783 114.269 118.861 113.658C121.939 113.046 125.129 113.361 128.028 114.563C130.927 115.764 133.405 117.798 135.147 120.408C136.89 123.018 137.82 126.086 137.819 129.224C137.814 133.43 136.141 137.462 133.166 140.435C130.192 143.409 126.159 145.081 121.953 145.085ZM121.953 115.933C119.325 115.934 116.756 116.714 114.571 118.175C112.385 119.636 110.683 121.712 109.677 124.141C108.672 126.57 108.41 129.242 108.923 131.82C109.436 134.398 110.703 136.765 112.562 138.624C114.421 140.482 116.789 141.747 119.367 142.26C121.945 142.772 124.617 142.509 127.045 141.503C129.474 140.497 131.549 138.793 133.01 136.607C134.47 134.422 135.249 131.852 135.249 129.224C135.24 125.701 133.837 122.324 131.345 119.834C128.853 117.343 125.476 115.94 121.953 115.933Z" fill="#2563EB"/>
<path d="M100.216 125.311C102.019 124.102 102.842 121.609 101.757 119.686C100.563 117.559 97.6695 117.412 95.7518 118.692C88.7873 123.48 82.8095 129.565 78.1445 136.613C80.3938 138.031 82.64 139.459 84.8829 140.896C88.9607 134.777 94.1639 129.488 100.216 125.311Z" fill="white"/>
<path d="M76.8408 136.891C76.8033 136.717 76.8012 136.537 76.8347 136.362C76.8682 136.187 76.9368 136.02 77.0359 135.872C81.7922 128.684 87.8899 122.479 94.9952 117.599C96.1656 116.822 97.5645 116.465 98.9639 116.585C99.6915 116.635 100.399 116.845 101.036 117.201C101.673 117.556 102.223 118.048 102.647 118.641C102.739 118.771 102.823 118.906 102.899 119.046C104.27 121.473 103.375 124.78 100.953 126.426C95.0403 130.508 89.9567 135.675 85.9727 141.654C85.7787 141.944 85.4786 142.147 85.1369 142.218C84.7952 142.289 84.4392 142.224 84.1454 142.035C81.9802 140.65 79.7199 139.208 77.4119 137.752C77.2666 137.654 77.1394 137.532 77.0359 137.39C76.9376 137.239 76.8711 137.069 76.8408 136.891ZM99.4542 124.218C100.753 123.343 101.272 121.572 100.582 120.354C100.546 120.29 100.507 120.228 100.463 120.169C99.6018 118.941 97.7125 118.989 96.48 119.802C90.0346 124.233 84.4503 129.802 80.0006 136.234C81.5282 137.186 83.0319 138.138 84.4928 139.089C88.5536 133.28 93.6205 128.244 99.4542 124.218Z" fill="black"/>
<path d="M111.101 153.608C110.937 152.624 110.414 151.735 109.632 151.115C108.851 150.494 107.867 150.185 106.871 150.248C109.726 149.773 111.606 148.25 111.487 145.766C111.382 143.443 109.107 142.04 107.028 142.182C108.998 141.707 110.592 139.912 110.226 137.871C109.816 135.582 107.285 134.307 105.058 134.649C111.977 133.074 115.555 132.784 120.876 132.746C123.117 132.789 125.011 131.613 125.301 129.415C125.701 126.426 123.374 125.051 121.132 124.984C100.879 125.46 83.5388 130.143 63.1382 139.941C67.8969 149.097 72.4096 158.367 76.6766 167.751C86.5271 162.927 97.0475 159.613 107.884 157.919C108.875 157.758 109.764 157.219 110.365 156.414C110.965 155.61 111.229 154.604 111.101 153.608Z" fill="white"/>
<path d="M75.3416 168.516C71.0968 159.199 66.5521 149.862 61.8315 140.763C61.7497 140.605 61.7005 140.432 61.687 140.254C61.6734 140.076 61.6957 139.897 61.7525 139.728C61.8093 139.559 61.8994 139.403 62.0176 139.269C62.1358 139.136 62.2796 139.027 62.4405 138.95C83.455 128.862 100.962 124.351 120.973 123.865H121.044C122.286 123.888 123.495 124.271 124.523 124.969C125.278 125.504 125.864 126.243 126.214 127.099C126.564 127.955 126.662 128.894 126.498 129.804C126.131 132.536 123.823 134.334 120.74 134.287C117.135 134.256 113.535 134.557 109.985 135.186C110.727 135.904 111.226 136.836 111.413 137.851C111.532 138.564 111.491 139.295 111.291 139.99C111.092 140.685 110.74 141.326 110.261 141.867C110.378 141.935 110.491 142.009 110.599 142.091C111.224 142.517 111.741 143.082 112.109 143.743C112.477 144.404 112.685 145.142 112.717 145.898C112.777 146.774 112.606 147.651 112.222 148.441C111.838 149.231 111.254 149.906 110.527 150.4C111.501 151.214 112.138 152.36 112.317 153.617C112.494 154.956 112.142 156.312 111.337 157.397C110.531 158.482 109.334 159.21 108.001 159.427C97.2885 161.106 86.889 164.383 77.1498 169.149C76.9893 169.225 76.8156 169.268 76.6384 169.276C76.4611 169.285 76.2839 169.258 76.1172 169.197C76.0056 169.157 75.8999 169.103 75.803 169.035C75.6068 168.905 75.4478 168.726 75.3416 168.516ZM106.82 151.794C106.479 151.815 106.143 151.703 105.881 151.483C105.619 151.262 105.453 150.95 105.415 150.609C105.378 150.269 105.473 149.928 105.68 149.656C105.888 149.384 106.192 149.202 106.53 149.148C109.523 148.672 110.09 147.183 110.037 146.041C110.018 145.693 109.918 145.354 109.745 145.051C109.573 144.748 109.332 144.489 109.043 144.294C108.444 143.88 107.723 143.679 106.997 143.723C106.663 143.745 106.334 143.64 106.074 143.43C105.814 143.22 105.642 142.92 105.593 142.589C105.544 142.259 105.621 141.922 105.808 141.645C105.996 141.369 106.281 141.173 106.606 141.097C107.843 140.811 109.033 139.669 108.795 138.317C108.666 137.694 108.299 137.146 107.772 136.79C107.002 136.264 106.063 136.047 105.141 136.181C104.803 136.224 104.462 136.136 104.186 135.936C103.911 135.736 103.722 135.439 103.659 135.105C103.595 134.77 103.661 134.424 103.844 134.137C104.026 133.85 104.311 133.643 104.641 133.559C111.693 131.955 115.31 131.655 120.74 131.622H120.773C122.124 131.646 123.628 131.084 123.857 129.447C123.955 129.019 123.925 128.571 123.771 128.159C123.616 127.748 123.343 127.391 122.986 127.134C122.395 126.748 121.707 126.537 121.001 126.525C101.8 127.001 84.9255 131.284 64.8484 140.759C69.1551 149.105 73.3094 157.647 77.2211 166.18C86.8299 161.61 97.0499 158.455 107.563 156.815C108.061 156.746 108.526 156.528 108.897 156.189C109.269 155.85 109.528 155.406 109.641 154.916C109.754 154.426 109.715 153.913 109.53 153.446C109.345 152.979 109.023 152.578 108.605 152.299C108.088 151.924 107.458 151.739 106.82 151.775V151.794Z" fill="black"/>
<path d="M56.6449 187.551L28.8301 166.041C45.5284 144.194 69.755 135.195 69.755 135.195L83.2509 167.659C83.2509 167.659 65.7958 175.169 56.6495 187.551H56.6449Z" fill="#2563EB"/>
<path d="M40.8264 160.373C40.6791 160.274 40.57 160.127 40.5169 159.957C40.4637 159.788 40.4697 159.605 40.5338 159.44C40.5979 159.274 40.7164 159.135 40.8698 159.045C41.0232 158.955 41.2025 158.92 41.3785 158.946C45.6851 159.607 50.5438 161.734 55.8117 165.27C58.1384 166.813 60.3533 168.517 62.4404 170.371C62.5173 170.441 62.5799 170.525 62.6242 170.618C62.6685 170.712 62.6937 170.814 62.6986 170.917C62.7034 171.021 62.6879 171.124 62.6526 171.222C62.6173 171.319 62.563 171.408 62.4929 171.485C62.3512 171.639 62.154 171.731 61.9446 171.741C61.7351 171.751 61.5302 171.678 61.3746 171.537C61.2699 171.437 50.9055 162.02 41.1359 160.502C41.0241 160.484 40.918 160.44 40.8264 160.373Z" fill="black"/>
<path d="M63.7211 169.407C63.5944 169.323 63.4936 169.206 63.4306 169.069C63.3783 168.95 58.1199 157.41 49.2829 152.446C49.1082 152.34 48.9818 152.169 48.9302 151.971C48.8787 151.773 48.9061 151.563 49.0067 151.384C49.1072 151.206 49.2733 151.074 49.4695 151.015C49.6658 150.957 49.8771 150.977 50.0588 151.071C59.3573 156.306 64.6537 167.931 64.8726 168.421C64.9423 168.577 64.9597 168.751 64.9223 168.918C64.8849 169.084 64.7947 169.234 64.6651 169.345C64.5355 169.455 64.3734 169.521 64.2032 169.533C64.033 169.544 63.864 169.5 63.7211 169.407Z" fill="black"/>
<path d="M55.6026 188.879L55.6358 188.907C55.9853 189.164 56.4215 189.274 56.851 189.214C57.2805 189.153 57.6693 188.927 57.9343 188.584L57.9629 188.55V188.517C66.7284 176.654 83.7122 169.244 83.8835 169.173C84.2854 168.999 84.6029 168.674 84.7676 168.268C84.9323 167.862 84.931 167.408 84.7639 167.003L71.2633 134.534C71.0983 134.136 70.7852 133.818 70.3901 133.647C69.9951 133.476 69.549 133.464 69.1459 133.616C68.8936 133.706 62.8453 135.995 54.6603 140.987C47.1083 145.603 36.263 153.521 27.4831 165.014C27.2148 165.362 27.0956 165.803 27.1518 166.239C27.208 166.675 27.4352 167.072 27.7831 167.341C27.9568 167.474 28.1549 167.572 28.3663 167.628C28.5778 167.685 28.7983 167.699 29.0153 167.67C29.2323 167.642 29.4416 167.57 29.6311 167.461C29.8205 167.351 29.9865 167.205 30.1195 167.031C38.571 155.977 49.026 148.334 56.3164 143.866C60.337 141.395 64.5289 139.215 68.8603 137.342L81.1093 166.798C76.6028 168.94 63.1498 175.94 55.317 186.537L55.2933 186.571C55.0319 186.919 54.9178 187.356 54.9757 187.788C55.0335 188.22 55.2587 188.611 55.6026 188.879Z" fill="#2563EB"/>
<path d="M44.7717 172.843C44.9437 172.976 45.1609 173.037 45.377 173.012C45.5931 172.987 45.791 172.878 45.9282 172.71C56.0404 160.242 69.8788 154.008 70.0168 153.946C70.1168 153.902 70.207 153.838 70.2824 153.759C70.3578 153.679 70.4169 153.586 70.4562 153.484C70.4956 153.382 70.5143 153.273 70.5115 153.164C70.5088 153.054 70.4846 152.947 70.4402 152.847C70.3958 152.747 70.3322 152.656 70.2529 152.581C70.1737 152.506 70.0803 152.447 69.9783 152.407C69.8762 152.368 69.7674 152.349 69.6581 152.352C69.5487 152.355 69.4409 152.379 69.3409 152.423C69.1981 152.485 54.9982 158.885 44.6337 171.658C44.4944 171.829 44.4287 172.048 44.451 172.268C44.4734 172.487 44.5818 172.689 44.7527 172.829L44.7717 172.843Z" fill="black"/>
<path d="M160.28 133.276L146.413 133.305C146.271 133.307 146.132 133.343 146.008 133.412C145.853 133.501 145.732 133.639 145.664 133.804C145.596 133.969 145.584 134.152 145.631 134.324C145.678 134.496 145.78 134.648 145.922 134.756C146.064 134.865 146.238 134.923 146.416 134.921L160.283 134.892C160.494 134.887 160.694 134.799 160.841 134.648C160.988 134.497 161.07 134.294 161.07 134.083C161.069 133.872 160.987 133.67 160.839 133.519C160.692 133.368 160.491 133.281 160.28 133.276Z" fill="black"/>
<path d="M141.677 119.561C141.729 119.655 141.8 119.737 141.885 119.803C141.969 119.869 142.066 119.918 142.17 119.946C142.273 119.974 142.381 119.981 142.488 119.966C142.594 119.952 142.696 119.917 142.789 119.862L154.776 112.907C154.961 112.799 155.096 112.622 155.15 112.415C155.205 112.207 155.175 111.987 155.067 111.802C154.958 111.616 154.781 111.482 154.574 111.427C154.366 111.373 154.146 111.403 153.961 111.511L141.974 118.466C141.79 118.573 141.656 118.748 141.601 118.953C141.545 119.158 141.573 119.376 141.677 119.561Z" fill="black"/>
<path d="M132.087 108.617L139.012 96.5847C139.099 96.4315 139.135 96.2539 139.112 96.0788C139.089 95.9037 139.01 95.7408 138.886 95.615C138.762 95.4893 138.601 95.4075 138.426 95.3823C138.251 95.3571 138.073 95.3898 137.918 95.4753C137.794 95.544 137.692 95.6455 137.622 95.7688L130.714 107.791C130.606 107.978 130.578 108.199 130.633 108.406C130.689 108.613 130.825 108.79 131.011 108.897C131.197 109.004 131.418 109.033 131.626 108.977C131.833 108.921 132.009 108.786 132.117 108.6L132.087 108.617Z" fill="black"/>
<path d="M113.858 190.32L119.151 186.606C119.287 186.511 119.449 186.461 119.615 186.461C119.78 186.461 119.942 186.511 120.079 186.606L124.906 189.993L129.733 186.606C129.87 186.512 130.033 186.461 130.199 186.461C130.365 186.461 130.528 186.512 130.665 186.606L135.492 189.993L140.32 186.606C140.456 186.511 140.618 186.461 140.784 186.461C140.949 186.461 141.111 186.511 141.247 186.606L146.075 189.993L150.902 186.606C151.039 186.512 151.202 186.461 151.368 186.461C151.534 186.461 151.696 186.512 151.834 186.606L156.661 189.993L161.488 186.606C161.625 186.511 161.786 186.461 161.952 186.461C162.118 186.461 162.28 186.511 162.416 186.606L167.709 190.32C167.803 190.378 167.885 190.455 167.948 190.545C168.011 190.635 168.056 190.738 168.078 190.846C168.1 190.954 168.1 191.065 168.078 191.173C168.055 191.281 168.011 191.384 167.948 191.474C167.884 191.564 167.803 191.641 167.709 191.698C167.615 191.756 167.51 191.794 167.401 191.81C167.291 191.825 167.18 191.818 167.074 191.789C166.967 191.76 166.868 191.71 166.781 191.641L161.954 188.272L157.115 191.641C156.98 191.737 156.817 191.788 156.651 191.788C156.485 191.788 156.323 191.737 156.187 191.641L151.368 188.272L146.54 191.656C146.405 191.752 146.243 191.803 146.077 191.803C145.911 191.803 145.749 191.752 145.613 191.656L140.781 188.272L135.943 191.641C135.807 191.737 135.645 191.788 135.479 191.788C135.313 191.788 135.151 191.737 135.015 191.641L130.199 188.272L125.372 191.656C125.236 191.752 125.074 191.803 124.908 191.803C124.742 191.803 124.58 191.752 124.444 191.656L119.613 188.272L114.77 191.641C114.595 191.749 114.385 191.785 114.183 191.744C113.982 191.702 113.804 191.585 113.685 191.417C113.567 191.248 113.518 191.041 113.547 190.837C113.576 190.634 113.681 190.449 113.842 190.32H113.858Z" fill="#2563EB"/>
<path d="M63.3243 99.23H63.2081C63.1024 99.2168 62.9976 99.1961 62.8948 99.1681C59.8002 98.3596 56.0595 96.2282 52.9339 93.4701C49.4989 90.4335 47.2631 87.1106 46.6364 84.1088C46.3409 82.7124 46.4373 81.2615 46.9152 79.9166C47.3931 78.5716 48.2339 77.3851 49.3442 76.4883C50.6943 75.4284 52.4196 75.2388 54.3305 75.9428C58.5547 77.4902 60.2683 84.3873 60.69 86.4646C60.69 86.5188 61.8852 92.0582 66.2873 91.3116C66.5548 91.2774 66.8252 91.348 67.0419 91.5086C67.2585 91.6692 67.4047 91.9074 67.4497 92.1734C67.4946 92.4393 67.435 92.7123 67.2833 92.9352C67.1315 93.1582 66.8995 93.3138 66.6356 93.3695C65.5749 93.5753 64.4784 93.4954 63.4588 93.1378C62.4392 92.7803 61.533 92.158 60.8331 91.3348C59.7371 90.0591 58.98 88.5278 58.6319 86.8824C57.8583 83.1572 56.1485 78.8402 53.6031 77.9041C52.373 77.4515 51.3983 77.5172 50.6247 78.1323C49.8176 78.7866 49.2072 79.6515 48.8611 80.6311C48.515 81.6108 48.4464 82.6672 48.6633 83.6833C49.8006 89.1608 57.7229 95.675 63.4093 97.1488C63.6857 97.1809 63.9385 97.3208 64.1123 97.5381C64.2862 97.7554 64.367 98.0326 64.3377 98.3093C64.3087 98.5594 64.1901 98.7905 64.0037 98.9598C63.8174 99.1291 63.576 99.2251 63.3243 99.23Z" fill="#2563EB"/>
<path d="M58.4272 102.042C58.295 102.043 58.1639 102.02 58.0403 101.973C56.052 101.199 52.4468 99.4159 50.6906 96.0776C50.6236 95.9559 50.5815 95.8221 50.5669 95.684C50.5522 95.5458 50.5652 95.4062 50.6052 95.2731C50.6452 95.1401 50.7114 95.0164 50.7998 94.9092C50.8881 94.8021 50.9969 94.7136 51.1199 94.649C51.2429 94.5844 51.3774 94.5451 51.5158 94.5331C51.6542 94.5212 51.7937 94.537 51.9259 94.5797C52.0581 94.6223 52.1805 94.6908 52.2859 94.7813C52.3913 94.8718 52.4774 94.9824 52.5395 95.1066C53.9747 97.8376 57.0695 99.3617 58.787 100.023C59.0157 100.111 59.2061 100.277 59.3251 100.491C59.4441 100.705 59.484 100.954 59.4379 101.195C59.3918 101.435 59.2627 101.652 59.073 101.807C58.8832 101.962 58.6451 102.045 58.4002 102.042H58.4272Z" fill="#2563EB"/>
<path d="M49.6612 101.166C49.472 101.166 49.2863 101.114 49.124 101.017C48.9618 100.919 48.8293 100.78 48.7406 100.612C47.0347 97.4171 46.8297 93.7152 46.8607 91.7926C46.8647 91.5183 46.9765 91.2566 47.1719 91.0641C47.3674 90.8716 47.6307 90.7636 47.905 90.7637C48.0422 90.7657 48.1776 90.7947 48.3035 90.8491C48.4295 90.9034 48.5436 90.9821 48.6392 91.0805C48.7347 91.1789 48.8099 91.2952 48.8605 91.4227C48.9112 91.5502 48.9361 91.6864 48.934 91.8236C48.9069 93.545 49.085 96.8524 50.5665 99.6298C50.6314 99.7506 50.6718 99.8831 50.6853 100.02C50.6989 100.156 50.6852 100.294 50.6453 100.425C50.6054 100.556 50.54 100.678 50.4528 100.784C50.3656 100.89 50.2582 100.978 50.137 101.042C49.9909 101.121 49.8275 101.164 49.6612 101.166Z" fill="#2563EB"/>
<path d="M44.1529 99.7685C43.8947 99.7688 43.6456 99.6732 43.454 99.5002C43.2624 99.3272 43.142 99.0892 43.1161 98.8324C42.3811 91.9391 43.6306 87.0882 43.9555 86.5699C44.097 86.3463 44.318 86.1848 44.5739 86.1179C44.8298 86.051 45.1016 86.0837 45.3343 86.2095C45.5671 86.3352 45.7435 86.5445 45.8279 86.7952C45.9123 87.0459 45.8985 87.3193 45.7892 87.5602C45.5455 88.241 44.5513 92.5889 45.1934 98.6119C45.209 98.7494 45.1972 98.8886 45.1587 99.0215C45.1202 99.1544 45.0557 99.2784 44.969 99.3863C44.8824 99.4942 44.7751 99.5839 44.6536 99.6501C44.5321 99.7164 44.3987 99.7579 44.2611 99.7724L44.1529 99.7685Z" fill="#2563EB"/>
<path d="M39.5998 95.0154H39.5804C39.303 95.0073 39.0401 94.8904 38.8483 94.6898C38.6564 94.4893 38.5511 94.2214 38.5553 93.9439C38.5553 93.3404 39.3754 87.8862 41.3251 82.6524C44.0135 75.4303 47.789 71.4614 52.2452 71.1713C58.891 70.7457 62.5155 77.581 64.3916 83.3912C65.3123 86.2344 67.1613 87.9132 69.2193 87.7624C69.4958 87.7424 69.7689 87.833 69.9786 88.0144C70.1882 88.1957 70.3172 88.453 70.3373 88.7294C70.3573 89.0059 70.2666 89.279 70.0853 89.4887C69.9039 89.6984 69.6467 89.8274 69.3702 89.8474C66.3104 90.0601 63.6374 87.8359 62.4073 84.0449C60.0089 76.6178 56.6358 72.9932 52.3807 73.2679C44.0174 73.8094 40.7757 91.6307 40.6441 94.0097C40.6361 94.2806 40.5222 94.5375 40.327 94.7255C40.1318 94.9135 39.8708 95.0176 39.5998 95.0154Z" fill="#2563EB"/>
<path d="M35.341 89.9467C35.2908 89.9506 35.2405 89.9506 35.1903 89.9467C34.9165 89.9065 34.6697 89.7593 34.5043 89.5374C34.3389 89.3154 34.2684 89.0369 34.3082 88.763C35.0819 83.506 37.4686 79.0111 39.4762 75.6843C42.1028 71.3209 45.8977 68.2688 49.8859 67.3095C53.4718 66.443 56.5664 66.8646 59.3477 68.5937C62.3456 70.4505 63.9394 73.3672 65.479 76.1911C65.684 76.5779 65.8852 76.9338 66.0902 77.3013L66.3416 77.7461C68.326 81.2856 70.4072 81.4713 71.8037 81.305C72.0747 81.2799 72.3447 81.3617 72.5564 81.5328C72.768 81.7039 72.9045 81.9509 72.9368 82.2211C72.969 82.4914 72.8946 82.7636 72.7292 82.9797C72.5638 83.1958 72.3206 83.3389 72.0513 83.3784C68.9567 83.7652 66.4422 82.1947 64.5196 78.7674L64.2682 78.3225C64.0594 77.9357 63.8544 77.572 63.6455 77.1891C62.2336 74.6089 60.7752 71.9359 58.2492 70.3654C55.963 68.9458 53.3867 68.6131 50.3771 69.3403C46.9769 70.1565 43.5728 72.9301 41.2634 76.7597C39.3602 79.9201 37.0819 84.1752 36.374 89.0609C36.3361 89.3076 36.211 89.5326 36.0216 89.6951C35.8321 89.8576 35.5906 89.9468 35.341 89.9467Z" fill="#2563EB"/>
<path d="M72.4105 79.6143C72.3015 79.6147 72.1931 79.5977 72.0894 79.564C68.5422 78.4035 67.0607 75.4327 65.761 72.8061C65.202 71.6886 64.5306 70.631 63.7571 69.6496C62.5315 68.0927 60.9591 66.8437 59.1652 66.0022C57.3714 65.1607 55.4057 64.7499 53.4249 64.8026C47.1119 64.9225 39.8164 69.7154 35.6812 76.4501C35.5311 76.6741 35.3 76.8314 35.0366 76.889C34.7731 76.9466 34.4976 76.9 34.2676 76.7591C34.0377 76.6181 33.8712 76.3937 33.803 76.1328C33.7348 75.8718 33.7702 75.5946 33.9018 75.3592C38.4586 67.9321 46.2802 62.8491 53.3824 62.7138C55.685 62.6553 57.9694 63.135 60.0539 64.1148C62.1384 65.0946 63.9654 66.5474 65.3896 68.3576C66.2533 69.4514 67.0024 70.631 67.6254 71.8777C69.0683 74.7867 70.2019 76.7556 72.7279 77.5757C72.9652 77.6522 73.1673 77.811 73.2977 78.0234C73.4282 78.2359 73.4783 78.4881 73.439 78.7343C73.3998 78.9805 73.2738 79.2046 73.0837 79.366C72.8937 79.5274 72.6521 79.6155 72.4028 79.6143H72.4105Z" fill="#2563EB"/>
<path d="M42.6947 64.2376C42.4658 64.2415 42.2419 64.1701 42.0575 64.0343C41.8731 63.8985 41.7384 63.7059 41.6742 63.486C41.61 63.2662 41.6198 63.0314 41.7022 62.8177C41.7845 62.604 41.9349 62.4233 42.13 62.3034C45.3187 60.2466 48.9778 59.034 52.7638 58.7794C53.0403 58.762 53.3125 58.8551 53.5203 59.0383C53.7281 59.2214 53.8547 59.4797 53.8722 59.7562C53.8896 60.0326 53.7964 60.3047 53.6132 60.5126C53.43 60.7204 53.172 60.847 52.8955 60.8644C49.4637 61.0971 46.1469 62.1964 43.2555 64.0596C43.0899 64.1723 42.895 64.2341 42.6947 64.2376Z" fill="#2563EB"/>
<path d="M71.1423 72.9451C70.9123 72.9453 70.6887 72.8696 70.5062 72.7297C70.3236 72.5898 70.1922 72.3936 70.1325 72.1714C68.7245 66.779 63.3864 61.8625 58.23 61.2126C58.0939 61.1953 57.9623 61.1514 57.8432 61.0833C57.724 61.0153 57.6193 60.9244 57.5353 60.8159C57.4512 60.7075 57.3895 60.5835 57.3534 60.4511C57.3173 60.3187 57.3074 60.1805 57.3247 60.0444C57.342 59.9082 57.3858 59.7768 57.4539 59.6576C57.5219 59.5385 57.6129 59.4339 57.7213 59.3498C57.8298 59.2658 57.9539 59.2039 58.0863 59.1678C58.2186 59.1316 58.3568 59.1219 58.4929 59.1392C64.423 59.8857 70.5505 65.4986 72.1558 71.6454C72.1902 71.7782 72.1978 71.9165 72.1787 72.0524C72.1596 72.1882 72.1139 72.319 72.0442 72.4372C71.9745 72.5554 71.8822 72.6587 71.7726 72.7412C71.663 72.8237 71.5381 72.8838 71.4052 72.918C71.3195 72.9405 71.2309 72.9497 71.1423 72.9451Z" fill="#2563EB"/>
<path d="M29.8441 64.9555C29.5671 64.9555 29.3015 64.8454 29.1056 64.6496C28.9097 64.4537 28.7998 64.1881 28.7998 63.9111V55.6909C28.7998 55.4139 28.9097 55.1483 29.1056 54.9524C29.3015 54.7565 29.5671 54.6465 29.8441 54.6465H38.0643C38.2014 54.6465 38.3372 54.6735 38.4639 54.726C38.5906 54.7785 38.7058 54.8554 38.8028 54.9524C38.8998 55.0494 38.9768 55.1645 39.0292 55.2912C39.0817 55.418 39.1088 55.5538 39.1088 55.6909C39.1088 55.8281 39.0817 55.9639 39.0292 56.0906C38.9768 56.2173 38.8998 56.3325 38.8028 56.4295C38.7058 56.5264 38.5906 56.6034 38.4639 56.6559C38.3372 56.7084 38.2014 56.7354 38.0643 56.7354H30.8886V63.9111C30.8886 64.1881 30.7785 64.4537 30.5827 64.6496C30.3868 64.8454 30.1211 64.9555 29.8441 64.9555Z" fill="black"/>
<path d="M78.1551 64.9555C77.8781 64.9555 77.6125 64.8454 77.4166 64.6496C77.2207 64.4537 77.1106 64.1881 77.1106 63.9111V56.7354H69.9312C69.7941 56.7354 69.6581 56.7084 69.5314 56.6559C69.4047 56.6034 69.2897 56.5264 69.1927 56.4295C69.0957 56.3325 69.0187 56.2173 68.9662 56.0906C68.9137 55.9639 68.8867 55.8281 68.8867 55.6909C68.8867 55.5538 68.9137 55.418 68.9662 55.2912C69.0187 55.1645 69.0957 55.0494 69.1927 54.9524C69.2897 54.8554 69.4047 54.7785 69.5314 54.726C69.6581 54.6735 69.7941 54.6465 69.9312 54.6465H78.1551C78.4321 54.6465 78.6978 54.7565 78.8937 54.9524C79.0895 55.1483 79.1996 55.4139 79.1996 55.6909V63.9111C79.1996 64.1881 79.0895 64.4537 78.8937 64.6496C78.6978 64.8454 78.4321 64.9555 78.1551 64.9555Z" fill="black"/>
<path d="M78.1551 105.286H69.9312C69.6542 105.286 69.3886 105.176 69.1927 104.98C68.9968 104.784 68.8867 104.518 68.8867 104.241C68.8867 103.964 68.9968 103.698 69.1927 103.503C69.3886 103.307 69.6542 103.197 69.9312 103.197H77.1106V96.021C77.1106 95.8838 77.1376 95.748 77.1901 95.6213C77.2426 95.4946 77.3196 95.3795 77.4166 95.2825C77.5136 95.1855 77.6287 95.1086 77.7555 95.0561C77.8822 95.0036 78.018 94.9766 78.1551 94.9766C78.2923 94.9766 78.4281 95.0036 78.5548 95.0561C78.6815 95.1086 78.7967 95.1855 78.8937 95.2825C78.9906 95.3795 79.0676 95.4946 79.1201 95.6213C79.1726 95.748 79.1996 95.8838 79.1996 96.021V104.241C79.1996 104.518 79.0895 104.784 78.8937 104.98C78.6978 105.176 78.4321 105.286 78.1551 105.286Z" fill="black"/>
<path d="M38.0643 105.286H29.8441C29.5671 105.286 29.3015 105.176 29.1056 104.98C28.9097 104.784 28.7998 104.518 28.7998 104.241V96.021C28.7998 95.744 28.9097 95.4783 29.1056 95.2825C29.3015 95.0866 29.5671 94.9766 29.8441 94.9766C30.1211 94.9766 30.3868 95.0866 30.5827 95.2825C30.7785 95.4783 30.8886 95.744 30.8886 96.021V103.197H38.0643C38.3413 103.197 38.6069 103.307 38.8028 103.503C38.9987 103.698 39.1088 103.964 39.1088 104.241C39.1088 104.518 38.9987 104.784 38.8028 104.98C38.6069 105.176 38.3413 105.286 38.0643 105.286Z" fill="black"/>
<path fill-rule="evenodd" clip-rule="evenodd" d="M83.9074 84.1843H79.0151V81.2305H83.9074C84.7231 81.2305 85.3844 81.8917 85.3844 82.7074C85.3844 83.5231 84.7231 84.1843 83.9074 84.1843ZM92.2151 82.7074C92.2151 81.8917 92.8764 81.2305 93.6921 81.2305H103.477C104.292 81.2305 104.954 81.8917 104.954 82.7074C104.954 83.5231 104.292 84.1843 103.477 84.1843H93.6921C92.8764 84.1843 92.2151 83.5231 92.2151 82.7074ZM111.784 82.7074C111.784 81.8917 112.446 81.2305 113.261 81.2305H118.154C118.969 81.2305 119.631 81.8917 119.631 82.7074V86.7689C119.631 87.5846 118.969 88.2459 118.154 88.2459C117.338 88.2459 116.677 87.5846 116.677 86.7689V84.1843H113.261C112.446 84.1843 111.784 83.5231 111.784 82.7074ZM118.154 93.4151C118.969 93.4151 119.631 94.0763 119.631 94.892V103.015C119.631 103.831 118.969 104.492 118.154 104.492C117.338 104.492 116.677 103.831 116.677 103.015V94.892C116.677 94.0763 117.338 93.4151 118.154 93.4151ZM118.154 109.661C118.969 109.661 119.631 110.322 119.631 111.138V115.2H116.677V111.138C116.677 110.322 117.338 109.661 118.154 109.661Z" fill="#2563EB"/>
</g>
</g>
<defs>
<clipPath id="clip0_936_28248">
<rect width="192" height="192" fill="white"/>
</clipPath>
<clipPath id="clip1_936_28248">
<rect width="144" height="144" fill="white" transform="translate(24.3691 48)"/>
</clipPath>
</defs>
</svg>
