<svg width="150" height="128" viewBox="0 0 150 128" fill="none" xmlns="http://www.w3.org/2000/svg">
<g clip-path="url(#clip0_485_36170)">
<path fill-rule="evenodd" clip-rule="evenodd" d="M94.0379 7.66797L16.9015 11.6156C16.082 11.6576 15.4516 12.3559 15.4936 13.1754L18.8068 77.9163C18.8488 78.7358 19.5471 79.3661 20.3666 79.3242L111.288 74.6711C112.107 74.6291 112.737 73.9308 112.696 73.1113L110.065 21.7153L94.0379 7.66797ZM93.1111 4.9102L16.7583 8.81774C14.3936 8.93876 12.5747 10.9539 12.6957 13.3186L16.009 78.0595C16.13 80.4242 18.1451 82.2431 20.5098 82.1221L111.431 77.469C113.796 77.3479 115.614 75.3328 115.493 72.9681L112.926 22.7954L93.1111 4.9102Z" fill="#2253D5"/>
<path d="M46.3728 19.0843C45.6001 19.1239 45.0059 19.7822 45.0454 20.5548C45.0849 21.3275 45.7433 21.9217 46.5159 21.8822L67.5 20.8083C68.2726 20.7687 68.8669 20.1104 68.8274 19.3378C68.7878 18.5651 68.1294 17.9709 67.3568 18.0104L46.3728 19.0843Z" fill="#2253D5"/>
<path d="M26.8272 53.747C26.0545 53.7866 25.4603 54.445 25.4998 55.2176C25.5394 55.9902 26.1977 56.5845 26.9703 56.5449L37.0427 56.0294C37.8153 55.9899 38.4096 55.3315 38.37 54.5589C38.3305 53.7863 37.6721 53.192 36.8995 53.2316L26.8272 53.747Z" fill="#2253D5"/>
<path d="M27.2567 62.1407C26.4841 62.1802 25.8898 62.8386 25.9294 63.6112C25.9689 64.3838 26.6273 64.9781 27.3999 64.9385L37.4723 64.4231C38.2449 64.3835 38.8391 63.7252 38.7996 62.9525C38.7601 62.1799 38.1017 61.5857 37.3291 61.6252L27.2567 62.1407Z" fill="#2253D5"/>
<path d="M25.968 36.9598C25.1954 36.9993 24.6011 37.6577 24.6407 38.4303C24.6802 39.2029 25.3386 39.7972 26.1112 39.7577L36.1836 39.2422C36.9562 39.2027 37.5505 38.5443 37.5109 37.7717C37.4714 36.9991 36.813 36.4048 36.0404 36.4443L25.968 36.9598Z" fill="#2253D5"/>
<path d="M27.6863 70.5343C26.9137 70.5738 26.3194 71.2322 26.3589 72.0048C26.3985 72.7774 27.0569 73.3717 27.8295 73.3322L37.9018 72.8167C38.6744 72.7772 39.2687 72.1188 39.2292 71.3462C39.1896 70.5736 38.5312 69.9793 37.7586 70.0188L27.6863 70.5343Z" fill="#2253D5"/>
<path d="M26.3976 45.3534C25.625 45.393 25.0307 46.0513 25.0702 46.824C25.1098 47.5966 25.7682 48.1908 26.5408 48.1513L36.6131 47.6358C37.3857 47.5963 37.98 46.9379 37.9405 46.1653C37.9009 45.3927 37.2426 44.7984 36.4699 44.8379L26.3976 45.3534Z" fill="#2253D5"/>
<path d="M46.7637 54.1294C46.7241 53.3567 47.3184 52.6984 48.091 52.6588L58.1634 52.1433C58.936 52.1038 59.5943 52.6981 59.6339 53.4707C59.6734 54.2433 59.0792 54.9017 58.3065 54.9412L48.2342 55.4567C47.4616 55.4962 46.8032 54.902 46.7637 54.1294Z" fill="#2253D5"/>
<path d="M45.9045 37.3421C45.865 36.5695 46.4593 35.9111 47.2319 35.8716L57.3042 35.3561C58.0768 35.3166 58.7352 35.9108 58.7748 36.6834C58.8143 37.456 58.22 38.1144 57.4474 38.154L47.3751 38.6694C46.6025 38.709 45.9441 38.1147 45.9045 37.3421Z" fill="#2253D5"/>
<path d="M47.6228 70.9166C47.5833 70.144 48.1775 69.4856 48.9501 69.4461L59.0225 68.9306C59.7951 68.8911 60.4535 69.4853 60.493 70.2579C60.5326 71.0306 59.9383 71.6889 59.1657 71.7285L49.0933 72.2439C48.3207 72.2835 47.6623 71.6892 47.6228 70.9166Z" fill="#2253D5"/>
<path d="M45.2888 25.3112C45.2493 24.5386 45.8436 23.8802 46.6162 23.8407L63.4034 22.9816C64.176 22.942 64.8344 23.5363 64.874 24.3089C64.9135 25.0815 64.3192 25.7399 63.5466 25.7795L46.7594 26.6386C45.9867 26.6781 45.3284 26.0838 45.2888 25.3112Z" fill="#2253D5"/>
<path d="M47.1932 62.523C47.1537 61.7504 47.748 61.092 48.5206 61.0524L58.5929 60.537C59.3655 60.4974 60.0239 61.0917 60.0635 61.8643C60.103 62.6369 59.5087 63.2953 58.7361 63.3348L48.6638 63.8503C47.8911 63.8899 47.2328 63.2956 47.1932 62.523Z" fill="#2253D5"/>
<path d="M46.3341 45.7357C46.2946 44.9631 46.8888 44.3047 47.6614 44.2652L57.7338 43.7497C58.5064 43.7102 59.1648 44.3044 59.2043 45.0771C59.2439 45.8497 58.6496 46.5081 57.877 46.5476L47.8046 47.0631C47.032 47.1026 46.3736 46.5083 46.3341 45.7357Z" fill="#2253D5"/>
<path d="M67.1684 36.2539C67.1288 35.4813 67.7231 34.8229 68.4957 34.7833L78.5681 34.2679C79.3407 34.2283 79.9991 34.8226 80.0386 35.5952C80.0782 36.3678 79.4839 37.0262 78.7113 37.0657L68.6389 37.5812C67.8663 37.6208 67.2079 37.0265 67.1684 36.2539Z" fill="#2253D5"/>
<path d="M68.8866 69.8284C68.8471 69.0558 69.4414 68.3974 70.214 68.3578L80.2863 67.8424C81.059 67.8028 81.7173 68.3971 81.7569 69.1697C81.7964 69.9423 81.2021 70.6007 80.4295 70.6402L70.3572 71.1557C69.5846 71.1953 68.9262 70.601 68.8866 69.8284Z" fill="#2253D5"/>
<path d="M68.0275 53.0411C67.988 52.2685 68.5822 51.6101 69.3549 51.5706L79.4272 51.0551C80.1998 51.0156 80.8582 51.6098 80.8977 52.3825C80.9373 53.1551 80.343 53.8134 79.5704 53.853L69.498 54.3685C68.7254 54.408 68.0671 53.8137 68.0275 53.0411Z" fill="#2253D5"/>
<path d="M68.4571 61.4347C68.4175 60.6621 69.0118 60.0038 69.7844 59.9642L79.8568 59.4487C80.6294 59.4092 81.2878 60.0035 81.3273 60.7761C81.3668 61.5487 80.7726 62.2071 80 62.2466L69.9276 62.7621C69.155 62.8016 68.4966 62.2074 68.4571 61.4347Z" fill="#2253D5"/>
<path d="M88.4322 35.1656C88.3927 34.393 88.987 33.7347 89.7596 33.6951L99.8319 33.1796C100.605 33.1401 101.263 33.7344 101.302 34.507C101.342 35.2796 100.748 35.938 99.9751 35.9775L89.9028 36.493C89.1302 36.5325 88.4718 35.9383 88.4322 35.1656Z" fill="#2253D5"/>
<path d="M90.1505 68.7401C90.111 67.9675 90.7052 67.3092 91.4778 67.2696L101.55 66.7541C102.323 66.7146 102.981 67.3089 103.021 68.0815C103.06 68.8541 102.466 69.5125 101.693 69.552L91.621 70.0675C90.8484 70.107 90.19 69.5128 90.1505 68.7401Z" fill="#2253D5"/>
<path d="M67.598 44.6475C67.5584 43.8749 68.1527 43.2165 68.9253 43.177L78.9977 42.6615C79.7703 42.6219 80.4286 43.2162 80.4682 43.9888C80.5077 44.7614 79.9135 45.4198 79.1408 45.4594L69.0685 45.9748C68.2959 46.0144 67.6375 45.4201 67.598 44.6475Z" fill="#2253D5"/>
<path d="M89.2914 51.9529C89.2518 51.1803 89.8461 50.5219 90.6187 50.4824L100.691 49.9669C101.464 49.9273 102.122 50.5216 102.162 51.2942C102.201 52.0668 101.607 52.7252 100.834 52.7648L90.7619 53.2802C89.9893 53.3198 89.3309 52.7255 89.2914 51.9529Z" fill="#2253D5"/>
<path d="M89.7209 60.3465C89.6814 59.5739 90.2757 58.9155 91.0483 58.876L101.121 58.3605C101.893 58.321 102.552 58.9152 102.591 59.6879C102.631 60.4605 102.036 61.1188 101.264 61.1584L91.1915 61.6739C90.4189 61.7134 89.7605 61.1191 89.7209 60.3465Z" fill="#2253D5"/>
<path d="M88.8618 43.5593C88.8223 42.7867 89.4165 42.1283 90.1892 42.0887L100.262 41.5733C101.034 41.5337 101.692 42.128 101.732 42.9006C101.772 43.6732 101.177 44.3316 100.405 44.3711L90.3323 44.8866C89.5597 44.9262 88.9013 44.3319 88.8618 43.5593Z" fill="#2253D5"/>
<path d="M93.249 4.90356L93.9946 19.4715C94.1156 21.8363 96.1307 23.6551 98.4954 23.5341L113.063 22.7886L93.249 4.90356Z" fill="#2B68E8"/>
<mask id="mask0_485_36170" style="mask-type:alpha" maskUnits="userSpaceOnUse" x="23" y="17" width="18" height="18">
<rect x="23.5957" y="18.005" width="16.2489" height="16.2489" rx="2" transform="rotate(-2.92969 23.5957 18.005)" fill="#D9D9D9"/>
</mask>
<g mask="url(#mask0_485_36170)">
<path d="M30.2249 26.8093C30.2945 26.8873 30.3303 26.9898 30.3243 27.0942C30.3184 27.1986 30.2712 27.2963 30.1931 27.3659C30.1151 27.4355 30.0126 27.4713 29.9082 27.4653C29.8037 27.4594 29.706 27.4122 29.6363 27.3342C29.5667 27.2562 29.5309 27.1537 29.5369 27.0494C29.5428 26.945 29.59 26.8472 29.6681 26.7776C29.7461 26.708 29.8486 26.6723 29.953 26.6782C30.0575 26.6842 30.1552 26.7313 30.2249 26.8093Z" fill="#2253D5"/>
<path d="M31.443 25.8114C31.5072 25.8931 31.5366 25.9968 31.5249 26.1C31.5132 26.2032 31.4613 26.2977 31.3805 26.363C31.2984 26.4266 31.1948 26.4558 31.0915 26.4445C30.9883 26.4331 30.8935 26.3821 30.8272 26.3023C30.7949 26.2618 30.771 26.2155 30.7567 26.1658C30.7423 26.1161 30.738 26.0641 30.7438 26.0127C30.7496 25.9614 30.7654 25.9116 30.7904 25.8664C30.8155 25.8212 30.8492 25.7813 30.8896 25.7491C30.93 25.7168 30.9764 25.6929 31.0261 25.6786C31.0758 25.6643 31.1278 25.6599 31.1792 25.6657C31.2306 25.6715 31.2804 25.6873 31.3256 25.7123C31.3709 25.7373 31.4108 25.771 31.443 25.8114Z" fill="#2253D5"/>
<path d="M32.7112 24.8773C32.7619 24.9619 32.779 25.0624 32.7591 25.159C32.7392 25.2555 32.6837 25.3411 32.6037 25.3988C32.5237 25.4565 32.425 25.482 32.3271 25.4705C32.2291 25.4589 32.1391 25.411 32.0748 25.3362C32.0392 25.2949 32.0126 25.2466 31.9967 25.1945C31.9808 25.1423 31.9759 25.0874 31.9823 25.0333C31.9887 24.9791 32.0063 24.9269 32.034 24.8799C32.0616 24.8329 32.0988 24.7922 32.143 24.7603C32.1872 24.7284 32.2376 24.706 32.291 24.6946C32.3443 24.6832 32.3994 24.683 32.4529 24.694C32.5063 24.705 32.5568 24.727 32.6013 24.7585C32.6458 24.7901 32.6832 24.8305 32.7112 24.8773Z" fill="#2253D5"/>
<path d="M34.0261 24.0066C34.0801 24.0951 34.0977 24.2011 34.0752 24.3024C34.0527 24.4036 33.9918 24.4922 33.9053 24.5495C33.8618 24.5789 33.8127 24.5993 33.7612 24.6094C33.7096 24.6195 33.6565 24.6192 33.6051 24.6085C33.5536 24.5978 33.5048 24.577 33.4616 24.5471C33.4183 24.5173 33.3815 24.4791 33.3532 24.4348C33.325 24.3905 33.3059 24.341 33.297 24.2892C33.2882 24.2374 33.2899 24.1844 33.3019 24.1332C33.3139 24.0821 33.336 24.0339 33.3669 23.9914C33.3979 23.9489 33.437 23.9131 33.482 23.886C33.5254 23.8574 33.5741 23.8378 33.6252 23.8284C33.6764 23.819 33.7288 23.8199 33.7796 23.8311C33.8303 23.8424 33.8783 23.8637 33.9206 23.8938C33.963 23.924 33.9988 23.9623 34.0261 24.0066Z" fill="#2253D5"/>
<path d="M35.3885 23.2214C35.4387 23.3124 35.4509 23.4195 35.4225 23.5195C35.3941 23.6194 35.3274 23.7042 35.2369 23.7552C35.1456 23.8041 35.0389 23.8159 34.9391 23.7882C34.8393 23.7604 34.7541 23.6952 34.7013 23.6062C34.6747 23.5614 34.6575 23.5116 34.6507 23.46C34.6439 23.4084 34.6476 23.3559 34.6616 23.3057C34.6756 23.2555 34.6996 23.2087 34.7322 23.168C34.7648 23.1274 34.8052 23.0937 34.8511 23.0691C34.8963 23.0435 34.9462 23.027 34.9978 23.0208C35.0494 23.0146 35.1017 23.0187 35.1517 23.0329C35.2017 23.047 35.2484 23.071 35.2891 23.1033C35.3297 23.1357 35.3635 23.1758 35.3885 23.2214Z" fill="#2253D5"/>
<path d="M36.7933 22.5081C36.8367 22.602 36.8418 22.709 36.8077 22.8066C36.7736 22.9042 36.7029 22.9847 36.6106 23.0312C36.5404 23.0654 36.4617 23.078 36.3844 23.0674C36.3071 23.0569 36.2346 23.0235 36.1763 22.9717C36.1179 22.9199 36.0763 22.852 36.0567 22.7765C36.037 22.7009 36.0403 22.6213 36.066 22.5477C36.0918 22.474 36.1388 22.4097 36.2012 22.3628C36.2636 22.3159 36.3385 22.2886 36.4164 22.2844C36.4944 22.2801 36.5718 22.2991 36.6389 22.339C36.706 22.3788 36.7598 22.4377 36.7933 22.5081Z" fill="#2253D5"/>
<path fill-rule="evenodd" clip-rule="evenodd" d="M28.0095 31.9009C28.4289 31.7467 28.7172 31.2223 29.1187 31.0088C29.5203 30.7953 29.7813 30.8998 29.7813 30.8998L30.5822 30.2206L30.4594 28.708C30.4594 28.708 30.1396 28.261 29.9213 27.9761C29.7737 27.7676 29.6592 27.5376 29.582 27.2942C29.582 27.2942 29.0313 27.3983 28.829 27.0895C28.6989 26.8798 28.6098 26.6474 28.5663 26.4045C28.5663 26.4045 26.7813 23.764 27.5819 22.6123C28.0959 21.871 28.5631 21.8933 28.5631 21.8933C28.5631 21.8933 29.8172 19.8171 31.7181 20.0002C33.619 20.1833 34.0138 20.6438 34.6598 21.0643C35.3058 21.4847 36.1704 21.7769 36.1704 21.7769L35.6255 22.4125L36.8442 23.0626C36.8442 23.0626 36.5643 24.0409 36.0885 24.0273C35.6126 24.0137 35.2191 23.9654 35.2191 23.9654C35.2191 23.9654 35.5659 25.7288 35.1026 27.0397C34.4544 28.8812 33.2233 29.0044 33.2233 29.0044L33.3415 30.1223L33.6324 30.7605L34.2566 31.0782L34.4508 31.3107C34.4508 31.3107 38.7727 31.2305 40.1065 33.4365C41.4403 35.6424 43.846 41.3855 44.1708 42.783C44.4956 44.1806 44.2399 45.6656 43.2901 46.063C42.3404 46.4604 38.9995 46.2521 38.9995 46.2521L43.0952 96.849C43.0952 96.849 44.4707 97.3707 45.1932 98.3521C45.9158 99.3335 46.1144 99.7175 46.1144 99.7175L38.1364 100.005L37.7262 94.6657L37.415 94.5167L34.7399 66.0064L33.5005 94.6412L33.0806 94.7542L33.1207 100.277L25.4697 100.684C25.4697 100.684 25.9538 99.1669 26.6933 98.4652C27.4329 97.7636 28.1824 97.5644 28.1824 97.5644L28.4036 56.7538C28.4036 56.7538 28.4631 52.871 28.6426 51.6381C28.9023 49.8619 29.1955 48.1771 29.1955 48.1771C29.1955 48.1771 27.1348 48.8375 26.0489 48.4601C24.9629 48.0828 23.3363 46.6199 23.1693 41.9695C23.0022 37.3191 22.9466 34.3946 24.0865 33.2792C25.757 31.6517 27.59 32.0535 28.0095 31.9009Z" fill="white"/>
<path fill-rule="evenodd" clip-rule="evenodd" d="M34.1392 33.5391L33.3212 32.0621L32.9334 31.6738L32.4877 32.1047L32.2234 33.4854C32.2234 33.4854 32.7149 33.7077 32.7283 33.8397C32.7416 33.9718 34.4507 48.4912 34.5081 48.4363L36.1543 49.7193L36.7362 48.3223L33.855 33.9338L34.1392 33.5391Z" fill="white"/>
<path fill-rule="evenodd" clip-rule="evenodd" d="M29.6677 30.877C30.0675 31.8861 30.5236 32.872 31.0339 33.83C31.8602 35.3702 32.0774 36.939 32.4566 38.4657C32.8358 39.9924 33.1431 41.7726 33.1431 41.7726L31.7858 42.2824C31.7858 42.2824 30.1484 40.2223 29.6125 39.5991C29.0766 38.9759 27.7968 38.7124 26.982 38.9743C26.1672 39.2361 25.2746 40.381 25.2185 40.7351C25.1624 41.0893 25.3528 41.5702 25.7607 41.2393C26.1686 40.9083 27.0205 40.0657 27.0205 40.0657L27.7384 40.1502C27.7384 40.1502 26.6638 41.057 26.5049 41.8386C26.3461 42.6202 26.425 43.5009 26.9194 44.005C27.4137 44.5091 27.8995 44.6681 28.3456 44.2619C28.7918 43.8556 29.1268 43.1326 29.1268 43.1326L30.4432 43.0652C30.4432 43.0652 32.8739 41.7039 34.8547 41.0773C36.8355 40.4507 36.6358 40.5458 36.6358 40.5458C36.6358 40.5458 36.2928 36.3431 35.9143 34.7652C35.5357 33.1874 34.4811 31.1023 34.4811 31.1023C34.4811 31.1023 39.5911 30.7575 40.61 32.55C41.629 34.3425 42.755 38.8201 43.6669 41.0823C44.5787 43.3445 44.5126 45.2774 43.4733 45.9227C41.7032 47.0234 39.0819 46.2085 39.0819 46.2085C39.0819 46.2085 39.5658 49.2149 39.692 51.3112C39.8183 53.4074 39.9172 54.8083 39.9172 54.8083L37.5518 54.9145L36.9726 45.9668L36.0155 45.5598L33.4225 46.8617L34.1534 54.9054L28.3338 55.5066C28.3338 55.5066 28.7851 51.6244 28.8161 50.682C28.8471 49.7395 29.0151 48.3333 29.0151 48.3333C29.0151 48.3333 27.4701 49.2369 25.4573 48.2869C23.4445 47.3369 23.4323 44.1794 23.2401 41.4895C23.048 38.7996 22.9795 34.5102 24.2691 33.3863C25.9717 31.9023 28.2519 31.9373 28.2519 31.9373C28.42 31.7663 28.5782 31.5858 28.7258 31.3969C28.9491 31.1018 29.6677 30.877 29.6677 30.877Z" fill="#2253D5"/>
<path fill-rule="evenodd" clip-rule="evenodd" d="M28.4856 26.4635C28.4856 26.4635 28.7311 25.7154 28.9806 25.7389C29.2301 25.7624 29.4956 26.0011 29.4956 26.0011C29.4956 26.0011 29.3402 24.5768 29.4362 23.9542C29.5212 23.486 29.6353 23.0236 29.7778 22.5696C29.7778 22.5696 31.5989 22.6916 32.8103 23.0221C34.3999 23.4569 35.4849 24.3472 35.9947 24.0894C36.5045 23.8316 36.8901 23.1778 36.8901 23.1778L35.6495 22.6789L36.1734 21.9388C36.1734 21.9388 35.2529 21.6841 34.9288 21.3642C34.6048 21.0444 32.3691 19.4626 30.8243 20.1461C29.2796 20.8296 28.7081 21.8492 28.7081 21.8492C28.7081 21.8492 27.4189 22.3209 27.4308 23.3271C27.4427 24.3333 28.4856 26.4635 28.4856 26.4635Z" fill="white"/>
<path fill-rule="evenodd" clip-rule="evenodd" d="M28.7128 26.8816C28.7128 26.8816 28.8292 25.8185 29.0787 25.842C29.2758 25.8716 29.4687 25.9243 29.6535 25.999C29.6535 25.999 29.4645 25.2236 29.563 24.6018C29.6615 23.9799 29.8761 22.6595 29.8761 22.6595C29.8761 22.6595 31.6876 22.5957 32.899 22.9262C34.4887 23.361 35.3297 24.3685 35.8386 24.1083C36.3474 23.848 36.664 23.6834 36.664 23.6834L35.7763 23.3273L36.3002 22.5864C36.3002 22.5864 35.3797 22.3317 35.0556 22.0118C34.7316 21.692 32.4959 20.111 30.9511 20.7937C29.4063 21.4763 28.835 22.4976 28.835 22.4976C28.835 22.4976 27.5458 22.9684 27.5577 23.9755C27.5696 24.9825 28.7128 26.8816 28.7128 26.8816Z" fill="#2253D5"/>
<path fill-rule="evenodd" clip-rule="evenodd" d="M35.9897 22.4875C36.1746 22.5382 36.3939 22.6631 36.6264 22.7584C36.8092 22.8315 37.1647 22.8958 37.2053 23.0932C37.2577 23.3421 36.9321 23.6366 36.7993 23.7671C36.6114 23.9624 36.3793 24.1097 36.1226 24.1967C35.6042 24.3519 35.1315 24.1732 34.8054 23.9912C34.6533 23.905 34.5603 23.7967 34.3814 23.7655C33.6196 23.6462 33.1318 23.8987 32.9896 24.4898C32.8475 25.0809 33.0831 25.6394 33.2975 26.0408C33.375 26.1852 33.5064 26.3022 33.5159 26.4543C33.5228 26.5908 33.4174 26.7223 33.3534 26.8427C33.2782 26.9843 33.2136 27.1253 33.0638 27.1156C32.7328 27.0946 32.9363 26.6389 33.0617 26.4775C32.7586 26.0197 32.4688 25.3707 32.5425 24.6512C32.6113 23.9789 32.9467 23.5223 33.5552 23.3542C32.5611 22.9664 31.3032 22.8717 29.9882 22.8384C29.7511 23.4277 29.6095 24.3849 29.7063 25.3892C29.732 25.651 29.8884 26.1765 29.7988 26.3105C29.6922 26.4685 29.0313 26.6269 28.9776 26.3831C28.9353 26.17 29.1312 26.1616 29.2664 26.0797C29.0235 25.6361 28.8556 26.3044 28.8934 26.5111C28.9482 26.728 29.0827 26.9163 29.2701 27.0385C29.4227 27.1346 29.6505 27.1534 29.7835 27.2852C29.8965 27.3973 29.9491 27.6205 30.0198 27.7439C30.1779 28.0318 30.4108 28.2717 30.6938 28.4384C30.7994 28.5014 31.0545 28.5378 31.0589 28.7536C31.0634 28.9373 30.8821 28.9581 30.767 28.9813C30.8431 29.3073 30.7149 29.576 30.8112 29.8449C30.8488 29.9518 31.1239 30.0878 31.2396 30.1569C31.7154 30.4388 32.2257 30.6577 32.7578 30.8082C32.8726 30.6819 33.0371 30.511 33.0614 30.2921C33.1005 29.9932 32.9699 29.6495 32.9821 29.324C32.7284 29.3389 32.4737 29.3315 32.2212 29.3019C32.0061 29.2725 31.6189 29.2502 31.7172 28.9632C31.8075 28.6972 32.2329 28.9005 32.4899 28.9088C32.7975 28.9288 33.1056 28.8766 33.3895 28.7564C34.5375 28.268 35.0311 26.9836 35.0232 25.3464C35.0217 25.0743 34.8459 24.5086 35.1936 24.5329C35.562 24.5585 35.4461 25.7115 35.4216 26.0055C35.295 27.5622 34.7113 28.6648 33.4117 29.1915C33.4622 29.5327 33.4207 29.8177 33.4885 30.0946C33.5563 30.3715 33.8256 30.5721 33.9049 30.8154C34.1724 30.8842 34.5052 30.8762 34.6188 31.1137C35.2017 31.0583 35.7749 31.137 36.3115 31.2241C37.8848 31.4858 39.2405 32.0406 40.1152 33.1099C40.6986 33.8222 40.9957 34.808 41.4199 35.747C42.4436 38.0183 43.6373 40.0344 44.2995 42.7373C44.4359 43.2911 44.5688 43.8887 44.5409 44.4715C44.4846 45.6288 43.7546 46.2433 42.7485 46.5224C41.6495 46.826 40.4283 46.5777 39.2968 46.4715C39.5336 48.4384 39.8364 50.4704 39.944 52.5733C40.0247 54.1491 40.1472 55.7533 40.2787 57.3389C40.4948 59.9508 40.6627 62.6016 40.8479 65.2374C40.9982 67.3522 41.1174 69.4727 41.3086 71.5632C41.4032 72.6072 41.4923 73.6705 41.5462 74.7249C41.6002 75.7793 41.7301 76.8347 41.7839 77.8866C41.8921 79.9994 42.1512 82.0971 42.2586 84.196C42.366 86.2949 42.6383 88.3911 42.7457 90.4891C42.8531 92.5872 43.1331 94.6747 43.2641 96.7501C44.5261 97.2314 45.4628 97.9965 46.0958 99.2439C46.2163 99.4851 46.4693 99.8845 46.0566 99.9592C45.7453 100.018 45.3976 99.9781 45.0561 99.9956C44.0861 100.045 43.1214 100.054 42.0984 100.101C41.0285 100.151 40.2002 100.198 39.1406 100.207C38.7852 100.209 38.1636 100.314 38.0286 100.142C37.9581 100.053 37.9481 99.7293 37.9352 99.5098C37.8596 98.1622 37.7348 96.8987 37.6111 95.5469C37.5891 95.3097 37.616 95.0288 37.5622 94.8807C37.5143 94.7512 37.365 94.7663 37.3211 94.6349C37.2539 94.4339 37.2783 94.1217 37.2504 93.8337C36.4527 85.7589 35.5828 77.3686 34.8114 69.3395C34.5036 75.5908 34.3253 82.0854 34.0433 88.4698C33.9643 90.2484 33.8891 92.1801 33.812 94.041C33.7937 94.4732 33.897 94.9437 33.4971 95.0137C33.4458 96.654 33.4264 98.1607 33.3792 99.8337C33.3709 100.106 33.4021 100.41 33.2307 100.494C33.0593 100.579 32.4918 100.563 32.277 100.574C30.3443 100.673 28.428 100.786 26.4739 100.886C26.116 100.904 25.587 100.996 25.4804 100.815C25.4017 100.679 25.4886 100.395 25.5407 100.22C25.7046 99.6674 25.9628 99.152 26.2878 98.78C26.7666 98.2384 27.3757 97.8906 28.0012 97.523C28.0704 93.4278 28.0276 89.3021 28.0982 85.1706C28.168 81.0539 28.1145 76.9279 28.1641 72.804C28.2132 68.7338 28.1793 64.4608 28.1497 60.3534C28.1422 59.2711 28.1319 58.217 28.079 57.1823C28.0274 56.1748 28.1307 55.1619 28.215 54.1986C28.3852 52.2537 28.5885 50.3913 28.8209 48.5331C27.7371 48.8087 26.5502 48.942 25.7259 48.6165C24.9277 48.3003 24.3172 47.6059 23.9184 46.8404C22.593 44.3001 22.8986 40.4377 22.9376 37.186C22.9517 36.011 22.9638 34.9104 23.3444 34.1422C23.9642 32.8909 25.496 31.9541 27.3408 31.7813C27.6388 31.7529 28.0188 31.7467 28.2397 31.6141C28.5209 31.4505 28.6274 31.1309 28.8587 30.9442C29.0616 30.7813 29.2502 30.7106 29.5737 30.6644C29.6754 30.6647 29.7769 30.6545 29.8765 30.634C29.9656 30.6014 30.0457 30.411 30.1177 30.3026C30.2088 30.1643 30.3109 30.0783 30.341 29.9267C30.3681 29.7942 30.3266 29.5473 30.3256 29.3197C30.3248 29.1252 30.3544 28.8656 30.3102 28.7285C30.2838 28.6473 30.1549 28.5781 30.0552 28.4834C29.7956 28.2308 29.5934 27.9254 29.4624 27.5877C29.0416 27.4254 28.8011 27.2876 28.6063 26.9785C28.5478 26.8825 28.5307 26.7589 28.4683 26.6507C28.4122 26.5555 28.3185 26.4976 28.2576 26.4034C27.8627 25.7945 27.4636 25.0084 27.3204 24.1128C27.174 23.2026 27.4046 22.5344 27.8853 22.0942C28.0366 21.9553 28.2262 21.8722 28.4129 21.7175C28.6385 21.5312 28.7972 21.2625 29.0024 21.0648C29.4288 20.6367 29.9394 20.3017 30.5021 20.081C31.7799 19.5975 33.2569 19.8947 34.2603 20.4816C34.7654 20.7765 35.1795 21.2269 35.8137 21.4493C36.0027 21.5155 36.337 21.5685 36.3747 21.7249C36.4818 22.0443 36.0336 22.2651 35.9897 22.4875ZM33.9589 20.8144C33.2063 20.3978 32.3429 20.2245 31.4876 20.3184C30.281 20.4683 29.5628 21.0873 28.9797 21.7834C28.9046 21.8927 28.8179 21.9936 28.7213 22.0844C28.4576 22.2834 28.2196 22.3715 28.0336 22.6061C27.6733 23.0624 27.6959 23.7448 27.8511 24.3768C28.0032 24.9948 28.2364 25.4579 28.5101 25.9683C28.6423 25.7966 28.7626 25.5192 29.0323 25.4856C29.1192 25.4754 29.2449 25.53 29.2914 25.5028C29.2169 24.8647 29.235 24.2192 29.3451 23.5862C29.3987 23.2973 29.5018 22.5227 29.7567 22.4264C29.9898 22.3386 30.4105 22.4176 30.6386 22.4266C32.1432 22.4898 33.4092 22.7111 34.449 23.2648C34.8382 23.4716 35.2348 23.8546 35.784 23.819C36.1861 23.7927 36.4818 23.4939 36.6612 23.2274C36.4618 23.1692 36.2397 23.0519 36.0097 22.9573C35.8116 22.8751 35.4646 22.8013 35.444 22.5913C35.4147 22.2927 35.7734 22.1778 35.8344 21.9183C35.1044 21.7255 34.6174 21.1733 33.9598 20.8144L33.9589 20.8144ZM30.6772 30.3226C30.4616 30.5901 30.3809 30.9793 30.0034 31.0992C30.2555 31.8185 30.4848 32.5588 30.8098 33.2019C31.2262 33.4403 31.5598 33.7688 31.9754 34.0081C32.1966 33.0757 32.4343 32.1589 32.6579 31.2247C31.8905 31.043 31.2627 30.7049 30.6781 30.3225L30.6772 30.3226ZM33.0768 31.1893C33.555 31.9573 33.9832 32.7805 34.4729 33.5331C34.78 32.8923 34.5199 31.8889 34.2395 31.3425C34.0211 31.2655 33.7926 31.3135 33.6395 31.191C33.4864 31.0686 33.5025 30.8682 33.3438 30.7658C33.2924 30.9375 33.1469 31.0274 33.0775 31.1868L33.0768 31.1893ZM28.5597 31.9828C28.208 32.2194 27.6764 32.1971 27.1718 32.2666C26.7831 32.3238 26.4011 32.4195 26.0315 32.5526C24.6548 33.0535 23.639 33.9342 23.4606 35.5092C23.3739 36.2821 23.408 37.1908 23.3949 38.0944C23.3717 39.7851 23.2804 41.5792 23.4531 43.3911C23.6127 45.0585 24.0683 46.5953 24.9735 47.5665C25.4273 48.0521 26.0216 48.3977 26.8547 48.3962C27.7481 48.3951 28.5331 48.1792 29.3076 47.9673C30.7281 47.5787 32.1098 47.0606 33.4355 46.4193C35.8359 45.255 37.9816 43.919 39.5639 42.0504C39.6415 41.9548 39.8548 41.7708 39.8629 41.6557C39.874 41.4853 39.7304 41.1125 39.6134 40.9387C39.5163 40.7943 39.385 40.6761 39.2312 40.5947C38.8994 40.4467 38.2084 40.5497 37.8038 40.6215C37.4457 40.686 37.0466 40.8013 36.7236 40.8895C34.9226 41.3849 33.3236 42.0407 31.8019 42.6908C31.4789 42.8278 31.1393 42.9301 30.8505 43.0892C30.7181 43.1611 30.702 43.2501 30.5866 43.2849C30.4144 43.3358 30.192 43.3109 29.981 43.3307C29.784 43.3499 29.5219 43.3221 29.3762 43.3774C29.3123 43.4004 29.27 43.509 29.2218 43.5823C29.0687 43.799 28.896 44.0011 28.7057 44.186C28.4496 44.4366 28.2025 44.685 27.7144 44.7075C27.4924 44.7143 27.2732 44.6567 27.0831 44.5419C26.4305 44.168 25.9873 43.2622 26.1178 42.3138C26.2265 41.5708 26.6024 40.8928 27.1751 40.4068C27.1948 40.3885 27.2711 40.3805 27.2469 40.3265C27.051 40.2541 26.9418 40.4419 26.8333 40.5456C26.7247 40.6492 26.5969 40.7622 26.4842 40.8669C26.2479 41.0851 26.0256 41.3678 25.7404 41.4673C25.3684 41.5968 25.0599 41.4378 24.9499 41.1581C24.8228 40.8348 25.1092 40.4342 25.2507 40.2159C25.7584 39.4346 26.345 38.7902 27.4948 38.6432C27.367 38.4988 27.1907 38.4064 26.9744 38.2575C26.8402 38.1671 26.4742 38.011 26.4946 37.7964C26.5198 37.5312 26.8413 37.6731 26.948 37.7427C27.2895 37.9676 27.496 38.117 27.8148 38.3514C27.9502 38.4508 28.1214 38.6193 28.243 38.6593C28.3647 38.6992 28.4822 38.6899 28.576 38.7181C29.2701 38.9184 29.6257 39.3694 30.0482 39.8731C30.6852 40.6321 31.3103 41.4181 31.9275 42.1468C32.2112 42.0176 32.5105 41.9017 32.8047 41.7828C32.3835 39.8072 32.028 37.8892 31.522 36.0614C31.2758 35.167 30.8999 34.383 30.5154 33.607C30.2181 33.0108 29.963 32.3945 29.752 31.7627C29.6908 31.5469 29.6088 31.3377 29.5071 31.1378C28.9604 31.254 28.9335 31.7287 28.5604 31.9803L28.5597 31.9828ZM34.8294 31.5853C35.319 32.8186 35.9198 34.0321 36.1587 35.5883C36.3939 37.1215 36.5789 38.7547 36.7555 40.4171C37.3645 40.2589 37.9847 40.1109 38.7277 40.0737C38.8969 39.2166 38.939 38.3392 38.8527 37.4698C38.8127 37.0596 38.7171 36.5945 38.6651 36.1741C38.6286 35.8816 38.3924 35.0213 38.7412 34.9853L38.7716 34.9837C39.0878 34.989 39.0605 35.7935 39.1044 36.1516C39.1627 36.5799 39.2596 37.0392 39.2944 37.4777C39.3765 38.5175 39.328 39.3594 39.1701 40.1113C39.8131 40.2639 40.1259 40.7822 40.288 41.4666C40.5669 41.4845 41.4539 41.0688 41.4757 41.5122C41.4903 41.7959 40.9006 41.8154 40.6578 41.8575C40.5507 41.877 40.3885 41.8671 40.2957 41.9065C40.1762 41.958 39.9678 42.2696 39.8499 42.401C38.7813 43.5717 37.5565 44.5897 36.2101 45.4264C37.6285 45.7405 39.1306 46.0759 40.747 46.1969C42.5688 46.3329 44.2153 45.9765 44.1229 44.1712C44.0826 43.3825 43.8501 42.5805 43.625 41.873C42.9466 39.7391 41.9764 37.9804 41.1095 36.0647C40.8025 35.3853 40.553 34.7161 40.2683 34.1336C39.3742 32.315 37.2687 31.6485 34.8329 31.5414C34.8081 31.5394 34.8102 31.5805 34.8301 31.5828L34.8294 31.5853ZM32.432 34.0317C32.3776 34.2588 32.3263 34.5945 32.1126 34.6104C31.9555 34.6184 31.7743 34.4463 31.6593 34.3598C31.5306 34.25 31.3934 34.1506 31.2489 34.0625C32.2793 36.1752 32.6369 39.0347 33.2457 41.6142C34.2359 41.2337 35.2344 40.8528 36.306 40.5464C36.0025 37.9851 35.8786 35.225 35.0364 33.261C34.956 33.43 34.9244 33.618 34.8372 33.8179C34.7693 33.9739 34.6934 34.2309 34.4789 34.2312C34.2917 34.2309 34.1463 33.9052 34.0404 33.7218C33.6851 33.0976 33.2929 32.4456 32.9898 31.8922C32.9742 31.893 32.9711 31.8808 32.9586 31.8789C32.7998 32.4667 32.6073 33.3152 32.4327 34.0292L32.432 34.0317ZM30.3523 40.8817C30.157 40.6443 29.9494 40.4075 29.7533 40.1702C29.5475 39.921 29.3666 39.6416 29.1394 39.4595C28.6943 39.1241 28.1371 38.9731 27.5835 39.0377C27.0267 39.0903 26.51 39.3501 26.1359 39.7657C25.805 40.1183 25.4321 40.5208 25.3511 41.051C25.5445 41.1863 25.7118 41.0375 25.8311 40.9349C26.1037 40.7008 26.313 40.4872 26.5703 40.244C26.6931 40.1281 26.823 39.959 26.9662 39.9203C27.2274 39.8484 27.613 39.9697 27.9401 39.9612C28.1014 39.8886 28.8877 39.4567 28.8649 39.9138C28.8569 40.0792 28.6172 40.1186 28.4528 40.1782C27.306 40.5956 26.5054 41.4422 26.5253 42.8133C26.9693 42.1235 27.5476 41.3023 28.3848 40.8496C28.539 40.7667 29.509 40.2495 29.5173 40.7009C29.5196 40.8599 29.2994 40.9092 29.1059 40.9801C28.0289 41.3733 27.4515 42.0839 26.9287 42.9749C26.8475 43.1134 26.6895 43.2988 26.6936 43.4272C26.7027 43.6041 26.8731 43.71 26.9637 43.8686C27.4706 43.0387 28.0669 42.2784 28.9544 41.8083C29.2492 41.6522 29.5705 41.4667 29.9537 41.4273C30.031 41.4877 30.0953 41.5182 30.0863 41.6481C30.0756 41.7938 29.8571 41.8446 29.6873 41.911C28.5442 42.3669 27.7605 43.2217 27.2807 44.1781C28.0005 44.575 28.5728 43.8291 28.8964 43.3821C29.0011 43.2366 29.0592 43.0654 29.1813 43.0179C29.5365 42.881 29.8786 43.0218 30.2396 42.9184C30.451 42.8581 30.659 42.7164 30.8632 42.6276C31.0673 42.5388 31.2846 42.4328 31.5172 42.3517C31.215 41.8617 30.7696 41.379 30.353 40.8791L30.3523 40.8817ZM35.6604 45.7439C35.0298 46.1234 34.3645 46.4699 33.6786 46.8019C33.8842 48.9642 34.0484 51.1731 34.2703 53.3172C35.2395 53.2676 36.1784 53.2534 37.1367 53.2159C37.013 50.7987 36.847 48.4258 36.7224 46.0079C36.3759 45.9093 36.0146 45.8297 35.6611 45.7414L35.6604 45.7439ZM37.1703 46.1523C37.3545 48.9779 37.5068 51.8405 37.6825 54.6764C38.3492 54.6323 38.9714 54.636 39.6382 54.5919C39.5093 53.153 39.4797 51.7692 39.3462 50.3693C39.2187 49.0383 38.9521 47.6988 38.8239 46.4017C38.2604 46.3208 37.7307 46.2045 37.1828 46.1063C37.1665 46.1105 37.1683 46.1285 37.171 46.1498L37.1703 46.1523ZM29.325 48.4215C29.0569 50.646 28.7888 52.8705 28.6228 55.1862C30.3888 55.0216 32.1703 54.871 33.9311 54.7009C33.6867 52.149 33.4899 49.5451 33.2329 47.0069C31.9723 47.586 30.6654 48.0584 29.3257 48.419L29.325 48.4215ZM34.2966 53.8321C34.3241 54.031 34.3418 54.2313 34.3596 54.4671C34.3752 54.6749 34.4449 54.9402 34.329 55.0607C34.2342 55.1596 33.8395 55.1682 33.6211 55.1885C31.9784 55.3278 30.096 55.5074 28.6007 55.6425C28.5317 57.2746 28.6128 58.9246 28.6396 60.5609C28.7209 65.4853 28.6652 70.3623 28.6472 75.2168C28.6205 81.7061 28.559 88.1617 28.5166 94.6336C30.1283 94.5979 31.7372 94.5658 33.3433 94.5375C33.8099 82.8621 34.2947 71.0101 34.7445 59.2622C34.7521 59.0573 34.7358 58.8347 34.7758 58.6982C34.8089 58.5869 34.929 58.4686 35.0165 58.3561C35.104 58.2436 35.1886 58.1246 35.2726 58.009C35.372 57.872 35.6226 57.3512 35.9127 57.4592C36.1331 57.542 36.0035 57.8158 35.9219 57.9296C35.7293 58.1967 35.6324 58.3171 35.4527 58.5613C35.3757 58.67 35.2482 58.7895 35.2263 58.892C35.1957 59.0363 35.2161 59.2414 35.2081 59.4248C35.1244 61.4321 35.0461 63.3994 34.9806 65.3587C34.9555 66.0939 35.0492 66.8609 35.1242 67.5844C36.0521 76.511 36.89 85.5667 37.7863 94.3604C39.3916 94.2634 41.0004 94.1687 42.603 94.0677C41.5422 81.1578 40.6139 68.0967 39.6789 55.0491C39.3448 55.0662 38.9516 55.0715 38.5114 55.0941C38.2111 55.1094 37.562 55.2251 37.3572 55.1069C37.1983 55.0161 37.2275 54.6518 37.2147 54.401L37.1782 53.6887C36.2191 53.7271 35.2836 53.742 34.3118 53.7901C34.2918 53.787 34.2929 53.8084 34.294 53.8297L34.2966 53.8321ZM28.5108 95.1501C28.5017 95.4887 28.4979 95.8319 28.5026 96.1829C30.007 96.1334 31.5183 96.0764 33.0368 96.0119C33.027 95.676 33.0641 95.3047 33.0456 95.0087C31.5322 95.0466 30.0352 95.0672 28.5233 95.1033C28.506 95.105 28.5088 95.1263 28.5115 95.1476L28.5108 95.1501ZM38.0348 94.8144C38.0844 95.2514 38.1049 95.7179 38.149 96.1601C39.6947 96.0596 41.2454 96.0396 42.7566 95.9243C42.7112 95.4681 42.6724 95.0045 42.64 94.5334C41.1097 94.6282 39.5657 94.7138 38.0355 94.8119L38.0348 94.8144ZM28.4986 96.7002C28.4842 97.0002 28.4915 97.3198 28.485 97.6269C30.0318 97.4991 30.8478 98.1788 31.3329 99.2276C31.5049 99.234 31.6771 99.2301 31.8487 99.2161C32.1154 98.4793 32.4772 97.8283 32.9973 97.3193C33.0046 97.0427 33.0195 96.7714 33.0155 96.483C31.507 96.5476 30.0055 96.6044 28.511 96.6534C28.4946 96.6542 28.4974 96.6763 28.4993 96.6977L28.4986 96.7002ZM38.191 96.6741C38.2613 96.9831 38.1682 97.2278 38.2479 97.4958C38.2777 97.5941 38.4528 97.7591 38.5405 97.861C38.8639 98.2337 39.1444 98.5722 39.3595 99.0189L42.4038 98.8631C42.7312 98.3148 43.1602 97.8339 43.6676 97.4461C43.4633 97.2586 43.0053 97.3035 42.8726 97.0464C42.7901 96.8857 42.8303 96.6726 42.7948 96.413C41.2315 96.493 39.782 96.54 38.2021 96.6324C38.187 96.629 38.189 96.6503 38.1917 96.6716L38.191 96.6741ZM32.5121 98.8333C32.4292 99.0181 32.2876 99.5721 32.1139 99.6585C32.0222 99.7044 31.831 99.6919 31.63 99.6981C31.154 99.7134 31.0526 99.6996 30.8856 99.4022C30.6889 99.0561 30.4616 98.6604 30.1983 98.4479C29.8362 98.1597 29.1875 98.0412 28.5245 98.0932C28.1811 98.1159 27.8423 98.1843 27.5169 98.2965C27.113 98.464 26.7993 98.8783 26.5606 99.2113C26.2933 99.5921 26.0989 100.019 25.9874 100.471C28.3117 100.334 30.6311 100.216 32.926 100.085C32.9507 99.4244 32.9664 98.7639 32.9758 98.093C32.7836 98.313 32.6273 98.562 32.5128 98.8308L32.5121 98.8333ZM43.0381 98.7655C42.9267 98.9254 42.7586 99.2531 42.6251 99.3028C42.4252 99.3782 42.045 99.3473 41.7619 99.3618L40.0045 99.4518C39.7379 99.4654 39.3555 99.5526 39.1546 99.4804C38.9661 99.4076 38.8586 99.0643 38.7443 98.878C38.6507 98.7247 38.5468 98.5779 38.4331 98.4388C38.4076 98.4079 38.3716 98.3339 38.3223 98.3537C38.3669 98.8223 38.3959 99.3073 38.4404 99.7751C40.8612 99.7031 43.2993 99.6138 45.7356 99.5237C45.3582 98.7416 44.8433 98.1107 44.1241 97.7097C43.7005 97.9909 43.3326 98.348 43.0388 98.763L43.0381 98.7655Z" fill="#2253D5"/>
<path fill-rule="evenodd" clip-rule="evenodd" d="M30.9514 23.4745C31.3282 23.4065 32.0298 23.5933 31.9938 23.953C31.992 23.9935 31.9769 24.0322 31.951 24.0634C31.925 24.0945 31.8895 24.1162 31.85 24.1253C31.6056 24.1856 31.4334 23.8671 31.154 23.8723C30.9791 23.8867 30.8101 23.9422 30.6607 24.0344C30.5228 24.1107 30.4342 24.2818 30.2307 24.2387C30.1565 24.2235 30.0901 24.1032 30.0848 24.0639C30.0548 23.8485 30.3106 23.753 30.4299 23.6818C30.5874 23.5772 30.765 23.5066 30.9514 23.4745Z" fill="#2253D5"/>
<path fill-rule="evenodd" clip-rule="evenodd" d="M31.1656 27.0779C31.2955 27.0532 31.4186 27.1854 31.4614 27.2154C31.7125 27.3999 32.0151 27.5012 32.3267 27.505C32.529 27.5079 32.7681 27.442 32.834 27.616C33.0147 28.1015 31.8922 27.9115 31.6741 27.8262C31.5059 27.7623 30.9876 27.5315 30.9923 27.2699C30.9949 27.1592 31.039 27.1017 31.1656 27.0779Z" fill="#2253D5"/>
<path fill-rule="evenodd" clip-rule="evenodd" d="M33.5641 24.7515C33.6485 24.7472 33.7313 24.7766 33.794 24.8332C33.8568 24.8899 33.8945 24.9691 33.8988 25.0535L33.9199 25.4648C33.9243 25.5077 33.9199 25.5512 33.9069 25.5924C33.894 25.6337 33.8728 25.6719 33.8447 25.7047C33.8166 25.7375 33.782 25.7642 33.7432 25.7833C33.7044 25.8023 33.6621 25.8133 33.619 25.8155C33.5758 25.8177 33.5326 25.8111 33.4921 25.7961C33.4515 25.7811 33.4144 25.758 33.3831 25.7283C33.3517 25.6985 33.3268 25.6627 33.3097 25.623C33.2927 25.5833 33.2839 25.5405 33.2838 25.4973L33.2628 25.0861C33.2585 25.0018 33.2878 24.9193 33.3443 24.8566C33.4007 24.7938 33.4798 24.7561 33.5641 24.7515Z" fill="#2253D5"/>
<path fill-rule="evenodd" clip-rule="evenodd" d="M31.086 24.7253C31.1704 24.721 31.2531 24.7503 31.3159 24.807C31.3787 24.8636 31.4164 24.9429 31.4207 25.0273L31.4417 25.4385C31.4461 25.5229 31.4167 25.6056 31.36 25.6683C31.3033 25.7311 31.2241 25.7687 31.1396 25.7731C31.0552 25.7774 30.9725 25.748 30.9097 25.6914C30.8469 25.6347 30.8092 25.5555 30.8049 25.4711L30.7839 25.0599C30.7795 24.9754 30.8089 24.8928 30.8656 24.83C30.9223 24.7673 31.0015 24.7296 31.086 24.7253Z" fill="#2253D5"/>
</g>
<path d="M81.4092 101.289L78.8584 97.031L56.1268 110.65L58.6776 114.907L81.4092 101.289Z" fill="black"/>
<path d="M76.2815 107.624L70.7773 98.4333L43.6499 114.679L49.154 123.87L76.2815 107.624Z" fill="#2B68E8"/>
<path d="M129.971 69.2194C126.92 64.1253 122.426 60.0506 117.059 57.5102C111.692 54.9699 105.692 54.0781 99.8174 54.9476C93.9433 55.8172 88.459 58.4092 84.0579 62.3956C79.6568 66.382 76.5365 71.5838 75.0917 77.3435C73.647 83.1031 73.9425 89.1619 75.941 94.7536C77.9395 100.345 81.5511 105.219 86.3193 108.758C91.0875 112.297 96.798 114.343 102.729 114.637C108.66 114.931 114.544 113.459 119.639 110.408C123.022 108.383 125.973 105.71 128.324 102.544C130.674 99.3773 132.377 95.7788 133.337 91.954C134.296 88.1291 134.493 84.1527 133.915 80.2519C133.338 76.351 131.998 72.6022 129.971 69.2194ZM84.3501 96.5434C81.9976 92.6154 80.8628 88.0781 81.0889 83.505C81.3151 78.932 82.8922 74.5287 85.6209 70.852C88.3495 67.1753 92.107 64.3903 96.4185 62.8491C100.73 61.3078 105.402 61.0797 109.843 62.1935C114.284 63.3072 118.295 65.7128 121.369 69.1061C124.443 72.4994 126.441 76.7279 127.112 81.2572C127.783 85.7864 127.095 90.4128 125.137 94.5514C123.178 98.69 120.037 102.155 116.109 104.508C113.501 106.071 110.61 107.104 107.603 107.549C104.595 107.995 101.529 107.843 98.5799 107.104C95.6308 106.364 92.8562 105.051 90.4146 103.239C87.9731 101.427 85.9123 99.1519 84.3501 96.5434Z" fill="#2B68E8"/>
<path d="M73.8375 91.9383C72.3242 85.5422 72.8487 78.833 75.3375 72.7498C77.8565 66.6515 82.2414 61.5073 87.8639 58.0545C93.4863 54.6016 100.058 53.0174 106.636 53.529C113.214 54.0406 119.461 56.6217 124.482 60.9022C129.503 65.1828 133.04 70.9431 134.586 77.3575C136.102 83.7534 135.577 90.4633 133.086 96.546C130.567 102.644 126.182 107.788 120.56 111.241C114.937 114.694 108.366 116.278 101.788 115.767C95.2097 115.255 88.9624 112.674 83.9413 108.393C78.9203 104.113 75.3834 98.3526 73.8375 91.9383ZM132.248 77.9239C130.826 72.0001 127.564 66.6789 122.93 62.7239C118.297 58.7689 112.529 56.3834 106.455 55.9098C100.382 55.4362 94.3142 56.8988 89.1234 60.0877C83.9325 63.2766 79.8853 68.0278 77.5624 73.6597C75.2641 79.2746 74.7793 85.4677 76.1758 91.3718C77.2318 95.772 79.3088 99.8619 82.2387 103.311C85.1686 106.759 88.8691 109.47 93.0409 111.223C97.2127 112.976 101.739 113.722 106.252 113.401C110.766 113.081 115.141 111.702 119.023 109.377C124.358 106.204 128.514 101.38 130.864 95.6357C133.163 90.02 133.647 83.8257 132.247 77.9212L132.248 77.9239ZM80.5261 90.333C79.3433 85.3451 79.7519 80.1121 81.6947 75.3683C83.6575 70.6109 87.0765 66.5975 91.4614 63.9035C95.8463 61.2095 100.972 59.9734 106.103 60.3725C111.233 60.7717 116.106 62.7855 120.022 66.1253C123.937 69.465 126.694 73.9591 127.898 78.9627C129.08 83.9506 128.672 89.1837 126.729 93.9274C124.763 98.6818 121.344 102.692 116.959 105.383C112.575 108.075 107.451 109.31 102.322 108.911C97.1929 108.512 92.3218 106.499 88.4065 103.162C84.4912 99.825 81.7326 95.3341 80.5261 90.333ZM125.561 79.5233C124.345 74.4351 121.353 69.9483 117.122 66.8704C112.892 63.7926 107.702 62.3259 102.486 62.7345C97.271 63.1431 92.3726 65.4001 88.6733 69.0992C84.974 72.7983 82.7167 77.6966 82.3078 82.9121C81.8989 88.1276 83.3652 93.3177 86.4428 97.5481C89.5205 101.779 94.0072 104.771 99.0953 105.988C104.183 107.204 109.539 106.564 114.197 104.183C118.855 101.802 122.51 97.8368 124.505 93.0004C126.264 88.7305 126.633 84.0151 125.561 79.5233Z" fill="black"/>
<path d="M117.911 107.518C122.844 104.582 126.688 100.121 128.862 94.8089C130.45 90.9699 131.116 86.8122 130.807 82.6694C130.498 78.5266 129.223 74.5137 127.083 70.9526C124.544 66.7109 120.874 63.2591 116.485 60.9828C112.096 58.7066 107.161 57.6956 102.231 58.0628C97.3004 58.43 92.5693 60.1611 88.5662 63.0624C84.563 65.9638 81.4454 69.921 79.5619 74.4922C77.9765 78.3317 77.3117 82.489 77.6205 86.6314C77.9294 90.7739 79.2034 94.7866 81.3407 98.3485C83.1396 101.352 85.5126 103.972 88.3241 106.058C91.1355 108.145 94.3304 109.657 97.7263 110.509C101.122 111.36 104.653 111.535 108.116 111.022C111.579 110.509 114.908 109.319 117.911 107.52L117.911 107.518Z" fill="white"/>
<path d="M115.434 83.6424C114.361 74.9401 108.713 68.0003 101.432 65.3109C95.0232 69.6903 91.2281 77.7913 92.3006 86.4936C93.3732 95.1958 99.022 102.136 106.303 104.828C112.711 100.446 116.507 92.3475 115.434 83.6424Z" fill="white"/>
<path d="M104.383 97.3927C95.5439 97.5826 87.2437 92.9488 83.2376 85.5926C83.1536 85.4379 83.1079 85.2653 83.1041 85.0894C83.1003 84.9134 83.1386 84.7391 83.2158 84.581C86.9022 77.0594 94.9958 72.0761 103.835 71.8862C112.675 71.6962 120.975 76.3272 124.981 83.6835C125.065 83.8382 125.111 84.0107 125.114 84.1866C125.118 84.3626 125.08 84.5369 125.003 84.6951C121.316 92.2167 113.234 97.2025 104.383 97.3927ZM85.4584 85.0402C89.1723 91.3907 96.5137 95.3545 104.336 95.1864C112.158 95.0183 119.325 90.7428 122.763 84.2386C119.049 77.8881 111.705 73.9216 103.883 74.0897C96.0604 74.2578 88.896 78.536 85.4584 85.0402Z" fill="black"/>
<path d="M112.397 84.4613C112.492 88.9078 108.859 92.5999 104.283 92.6983C99.7069 92.7966 95.9211 89.2638 95.8255 84.8174C95.73 80.3709 99.3605 76.6789 103.937 76.5805C108.513 76.4822 112.301 80.0092 112.397 84.4613Z" fill="black"/>
</g>
<defs>
<clipPath id="clip0_485_36170">
<rect width="128" height="128" fill="white" transform="translate(11)"/>
</clipPath>
</defs>
</svg>
