<svg width="150" height="128" viewBox="0 0 150 128" fill="none" xmlns="http://www.w3.org/2000/svg">
<path d="M39.5878 20.8453C39.5878 20.8453 40.4519 22.0703 41.7754 22.1332C42.5684 22.1688 43.2986 21.7887 43.9494 20.9957C44.7697 20.0085 45.2729 19.8171 45.56 19.8308C45.9811 19.8526 46.3611 20.3777 46.6865 20.8453C46.6865 20.8453 47.5479 22.0703 48.8741 22.1332C49.6644 22.1688 50.3973 21.7887 51.0481 20.9957C51.5376 20.4023 52.0243 20.107 52.5001 20.1152C53.2302 20.1316 53.788 20.8535 53.8017 20.8672C53.8905 20.9865 54.0232 21.0656 54.1703 21.0871C54.3175 21.1086 54.4672 21.0708 54.5865 20.982C54.7058 20.8932 54.785 20.7606 54.8066 20.6134C54.8281 20.4662 54.7902 20.3165 54.7013 20.1972C54.6658 20.148 53.8182 19.0268 52.533 18.994C51.6935 18.9721 50.8923 19.4069 50.1813 20.282C49.7738 20.7769 49.3609 21.023 48.948 21.0121C48.3354 20.9957 47.7749 20.416 47.6245 20.2109C47.2554 19.664 46.6401 18.7589 45.6229 18.7096C44.8217 18.6713 43.9822 19.1854 43.0935 20.282C42.6861 20.7769 42.2731 21.023 41.8602 21.0121C41.2476 20.9957 40.6899 20.416 40.5367 20.2109C40.1676 19.664 39.5524 18.7589 38.5351 18.7096C37.7339 18.6713 36.8944 19.1854 36.0057 20.282C35.5983 20.7769 35.1853 21.023 34.7724 21.0121C34.1599 20.9957 33.6021 20.416 33.4489 20.2109C33.0798 19.664 32.4644 18.7589 31.4472 18.7096C30.6487 18.6713 29.8202 19.1854 28.9206 20.282C28.8369 20.3814 28.7912 20.5074 28.792 20.6374C28.7911 20.7536 28.8263 20.8671 28.8927 20.9624C28.9591 21.0577 29.0535 21.13 29.1628 21.1693C29.2721 21.2086 29.3908 21.213 29.5027 21.1819C29.6146 21.1508 29.7141 21.0857 29.7874 20.9957C30.6078 20.0085 31.1081 19.8171 31.3953 19.8308C31.8191 19.8526 32.1992 20.3777 32.5219 20.8453C32.5219 20.8453 33.3833 22.0703 34.7095 22.1332C35.5025 22.1715 36.2326 21.7887 36.8971 20.9957C37.7174 20.0085 38.2178 19.8171 38.5049 19.8308C38.885 19.8608 39.2651 20.3749 39.5878 20.8453Z" fill="#2B68E8"/>
<path d="M138.101 71.3049L128.462 73.3476C128.36 73.3647 128.266 73.4102 128.189 73.4789C128.114 73.5468 128.059 73.633 128.027 73.7288C127.996 73.8247 127.991 73.927 128.011 74.0258C128.026 74.0997 128.056 74.17 128.099 74.2323C128.141 74.2947 128.196 74.3481 128.259 74.3893C128.322 74.4305 128.393 74.4587 128.467 74.4724C128.542 74.486 128.618 74.4848 128.692 74.4687L138.328 72.4398C138.403 72.4257 138.475 72.3968 138.539 72.3548C138.603 72.3127 138.657 72.2583 138.7 72.1947C138.742 72.1312 138.772 72.0598 138.786 71.9848C138.801 71.9097 138.8 71.8325 138.785 71.7576C138.769 71.6828 138.739 71.6119 138.695 71.5489C138.652 71.486 138.596 71.4324 138.532 71.3913C138.467 71.3501 138.395 71.3223 138.32 71.3093C138.245 71.2964 138.167 71.2986 138.093 71.3159L138.101 71.3049Z" fill="#2B68E8"/>
<path d="M123.171 64.4579C123.222 64.5154 123.283 64.5622 123.352 64.5957C123.421 64.6291 123.496 64.6484 123.572 64.6525C123.649 64.6565 123.725 64.6453 123.797 64.6194C123.869 64.5935 123.935 64.5535 123.992 64.5016L131.323 57.9389C131.379 57.8884 131.425 57.8274 131.457 57.7593C131.49 57.6911 131.509 57.6173 131.513 57.5418C131.517 57.4664 131.506 57.391 131.481 57.3197C131.456 57.2485 131.417 57.1829 131.367 57.1267C131.316 57.0705 131.255 57.0248 131.187 56.9922C131.119 56.9596 131.045 56.9407 130.969 56.9366C130.894 56.9326 130.819 56.9434 130.747 56.9685C130.676 56.9936 130.611 57.0325 130.554 57.083L123.226 63.6457C123.169 63.6952 123.122 63.7555 123.088 63.8233C123.054 63.891 123.034 63.9648 123.029 64.0404C123.024 64.1159 123.034 64.1918 123.058 64.2634C123.082 64.3351 123.121 64.4012 123.171 64.4579Z" fill="#2B68E8"/>
<path d="M114.905 58.2367L117.965 48.8765C117.988 48.8047 117.997 48.729 117.992 48.6536C117.986 48.5783 117.965 48.5048 117.931 48.4374C117.897 48.3699 117.85 48.3099 117.792 48.2607C117.735 48.2115 117.669 48.174 117.597 48.1505C117.525 48.127 117.449 48.1179 117.374 48.1236C117.298 48.1294 117.225 48.1499 117.158 48.1841C117.09 48.2182 117.03 48.2653 116.981 48.3227C116.932 48.38 116.894 48.4465 116.871 48.5183L113.811 57.8785C113.787 57.9503 113.778 58.0261 113.784 58.1014C113.79 58.1768 113.81 58.2503 113.844 58.3177C113.879 58.3851 113.926 58.4451 113.983 58.4943C114.04 58.5436 114.107 58.581 114.179 58.6045C114.251 58.628 114.326 58.6372 114.402 58.6314C114.477 58.6257 114.55 58.6051 114.618 58.571C114.685 58.5368 114.745 58.4897 114.795 58.4324C114.844 58.375 114.881 58.3085 114.905 58.2367Z" fill="#2B68E8"/>
<path d="M100.325 92.8555H39.0006C37.3236 92.8541 35.7157 92.1872 34.5298 91.0014C33.344 89.8156 32.6772 88.2077 32.6758 86.5306V35.8003C32.6772 34.123 33.344 32.5148 34.5297 31.3285C35.7155 30.1423 37.3234 29.4748 39.0006 29.4727H100.325C102.002 29.4748 103.61 30.1423 104.795 31.3285C105.981 32.5148 106.648 34.123 106.649 35.8003V86.5306C106.648 88.2077 105.981 89.8156 104.795 91.0014C103.609 92.1872 102.002 92.8541 100.325 92.8555ZM39.0006 31.3868C37.8308 31.3883 36.7093 31.8538 35.8824 32.6812C35.0555 33.5087 34.5907 34.6305 34.5899 35.8003V86.5306C34.5907 87.7002 35.0555 88.8217 35.8825 89.6487C36.7096 90.4757 37.8311 90.9407 39.0006 90.9414H100.325C101.494 90.9399 102.615 90.4748 103.442 89.6479C104.269 88.821 104.734 87.7 104.735 86.5306V35.8003C104.734 34.6307 104.269 33.5093 103.442 32.682C102.615 31.8548 101.494 31.389 100.325 31.3868H39.0006Z" fill="black"/>
<path d="M49.3914 40.7334H42.6892C41.4855 40.7334 40.5098 41.7091 40.5098 42.9128V49.0517C40.5098 50.2554 41.4855 51.2311 42.6892 51.2311H49.3914C50.5951 51.2311 51.5708 50.2554 51.5708 49.0517V42.9128C51.5708 41.7091 50.5951 40.7334 49.3914 40.7334Z" fill="#2B68E8"/>
<path d="M65.1395 40.7334H58.4372C57.2336 40.7334 56.2578 41.7091 56.2578 42.9128V49.0517C56.2578 50.2554 57.2336 51.2311 58.4372 51.2311H65.1395C66.3431 51.2311 67.3188 50.2554 67.3188 49.0517V42.9128C67.3188 41.7091 66.3431 40.7334 65.1395 40.7334Z" fill="#2B68E8"/>
<path d="M80.8875 40.7334H74.1853C72.9816 40.7334 72.0059 41.7091 72.0059 42.9128V49.0517C72.0059 50.2554 72.9816 51.2311 74.1853 51.2311H80.8875C82.0911 51.2311 83.0669 50.2554 83.0669 49.0517V42.9128C83.0669 41.7091 82.0911 40.7334 80.8875 40.7334Z" fill="#2B68E8"/>
<path d="M96.6326 40.7334H89.9304C88.7267 40.7334 87.751 41.7091 87.751 42.9128V49.0517C87.751 50.2554 88.7267 51.2311 89.9304 51.2311H96.6326C97.8363 51.2311 98.812 50.2554 98.812 49.0517V42.9128C98.812 41.7091 97.8363 40.7334 96.6326 40.7334Z" fill="#2B68E8"/>
<path d="M49.3914 56.3802H42.6892C41.4855 56.3802 40.5098 57.356 40.5098 58.5596V64.6986C40.5098 65.9022 41.4855 66.878 42.6892 66.878H49.3914C50.5951 66.878 51.5708 65.9022 51.5708 64.6986V58.5596C51.5708 57.356 50.5951 56.3802 49.3914 56.3802Z" fill="#2B68E8"/>
<path d="M65.1395 56.3802H58.4372C57.2336 56.3802 56.2578 57.356 56.2578 58.5596V64.6986C56.2578 65.9022 57.2336 66.878 58.4372 66.878H65.1395C66.3431 66.878 67.3188 65.9022 67.3188 64.6986V58.5596C67.3188 57.356 66.3431 56.3802 65.1395 56.3802Z" fill="#2B68E8"/>
<path fill-rule="evenodd" clip-rule="evenodd" d="M80.9275 58.0923H74.2253C73.8373 58.0923 73.5228 58.4068 73.5228 58.7947V64.9337C73.5228 65.3216 73.8373 65.6362 74.2253 65.6362H80.9275C81.3155 65.6362 81.63 65.3216 81.63 64.9337V58.7947C81.63 58.4068 81.3155 58.0923 80.9275 58.0923ZM74.2253 56.6154H80.9275C82.1312 56.6154 83.1069 57.5911 83.1069 58.7947V64.9337C83.1069 66.1373 82.1312 67.1131 80.9275 67.1131H74.2253C73.0216 67.1131 72.0459 66.1373 72.0459 64.9337V58.7947C72.0459 57.5911 73.0216 56.6154 74.2253 56.6154Z" fill="black"/>
<path d="M96.6326 56.3802H89.9304C88.7267 56.3802 87.751 57.356 87.751 58.5596V64.6986C87.751 65.9022 88.7267 66.878 89.9304 66.878H96.6326C97.8363 66.878 98.812 65.9022 98.812 64.6986V58.5596C98.812 57.356 97.8363 56.3802 96.6326 56.3802Z" fill="#2B68E8"/>
<path fill-rule="evenodd" clip-rule="evenodd" d="M80.8875 73.7089H74.1853C73.7973 73.7089 73.4828 74.0234 73.4828 74.4113V80.5503C73.4828 80.9382 73.7973 81.2527 74.1853 81.2527H80.8875C81.2755 81.2527 81.59 80.9382 81.59 80.5503V74.4113C81.59 74.0234 81.2755 73.7089 80.8875 73.7089ZM74.1853 72.2319H80.8875C82.0911 72.2319 83.0669 73.2077 83.0669 74.4113V80.5503C83.0669 81.7539 82.0911 82.7297 80.8875 82.7297H74.1853C72.9816 82.7297 72.0059 81.7539 72.0059 80.5503V74.4113C72.0059 73.2077 72.9816 72.2319 74.1853 72.2319Z" fill="black"/>
<path d="M96.6326 72.2319H89.9304C88.7267 72.2319 87.751 73.2077 87.751 74.4113V80.5503C87.751 81.7539 88.7267 82.7297 89.9304 82.7297H96.6326C97.8363 82.7297 98.812 81.7539 98.812 80.5503V74.4113C98.812 73.2077 97.8363 72.2319 96.6326 72.2319Z" fill="#2B68E8"/>
<path fill-rule="evenodd" clip-rule="evenodd" d="M49.3914 73.5012H42.6892C42.3012 73.5012 41.9867 73.8157 41.9867 74.2037V80.3426C41.9867 80.7306 42.3012 81.0451 42.6892 81.0451H49.3914C49.7794 81.0451 50.0939 80.7306 50.0939 80.3426V74.2037C50.0939 73.8157 49.7794 73.5012 49.3914 73.5012ZM42.6892 72.0243H49.3914C50.5951 72.0243 51.5708 73 51.5708 74.2037V80.3426C51.5708 81.5463 50.5951 82.522 49.3914 82.522H42.6892C41.4855 82.522 40.5098 81.5463 40.5098 80.3426V74.2037C40.5098 73 41.4855 72.0243 42.6892 72.0243Z" fill="black"/>
<path fill-rule="evenodd" clip-rule="evenodd" d="M65.1395 73.5012H58.4372C58.0492 73.5012 57.7347 73.8157 57.7347 74.2037V80.3426C57.7347 80.7306 58.0492 81.0451 58.4372 81.0451H65.1395C65.5274 81.0451 65.8419 80.7306 65.8419 80.3426V74.2037C65.8419 73.8157 65.5274 73.5012 65.1395 73.5012ZM58.4372 72.0243H65.1395C66.3431 72.0243 67.3188 73 67.3188 74.2037V80.3426C67.3188 81.5463 66.3431 82.522 65.1395 82.522H58.4372C57.2336 82.522 56.2578 81.5463 56.2578 80.3426V74.2037C56.2578 73 57.2336 72.0243 58.4372 72.0243Z" fill="black"/>
<path d="M45.6343 36.328C45.4566 36.328 45.2862 36.2574 45.1606 36.1317C45.0349 36.0061 44.9643 35.8357 44.9643 35.658C44.9643 35.4803 45.0349 35.3099 45.1606 35.1843C45.2862 35.0586 45.4566 34.9881 45.6343 34.9881C47.275 34.9881 48.6422 32.8962 48.6422 30.4187C48.6422 27.9413 47.275 25.8494 45.6343 25.8494C43.9936 25.8494 42.6263 27.9413 42.6263 30.4187C42.6263 30.5964 42.5557 30.7668 42.4301 30.8925C42.3044 31.0181 42.134 31.0887 41.9563 31.0887C41.7787 31.0887 41.6083 31.0181 41.4826 30.8925C41.357 30.7668 41.2863 30.5964 41.2863 30.4187C41.2599 28.9616 41.6778 27.5309 42.4841 26.317C43.3045 25.1439 44.4256 24.4985 45.6315 24.4985C46.8374 24.4985 47.9558 25.1439 48.7816 26.317C49.5637 27.5376 49.9794 28.9568 49.9794 30.4064C49.9794 31.8561 49.5637 33.2753 48.7816 34.4958C47.9585 35.6799 46.8429 36.328 45.6343 36.328Z" fill="black"/>
<path d="M61.6558 36.328C61.4781 36.328 61.3077 36.2574 61.182 36.1317C61.0564 36.0061 60.9858 35.8357 60.9858 35.658C60.9858 35.4803 61.0564 35.3099 61.182 35.1843C61.3077 35.0586 61.4781 34.9881 61.6558 34.9881C63.2965 34.9881 64.6637 32.8962 64.6637 30.4187C64.6637 27.9413 63.2965 25.8494 61.6558 25.8494C60.0151 25.8494 58.6478 27.9413 58.6478 30.4187C58.6478 30.5964 58.5772 30.7668 58.4515 30.8925C58.3259 31.0181 58.1555 31.0887 57.9778 31.0887C57.8001 31.0887 57.6297 31.0181 57.5041 30.8925C57.3784 30.7668 57.3079 30.5964 57.3079 30.4187C57.2801 28.9614 57.698 27.5303 58.5056 26.317C59.326 25.1439 60.447 24.4985 61.653 24.4985C62.8589 24.4985 63.9773 25.1439 64.8004 26.317C65.5841 27.537 66.0008 28.9564 66.0008 30.4064C66.0008 31.8564 65.5841 33.2759 64.8004 34.4958C63.9801 35.6799 62.8617 36.328 61.6558 36.328Z" fill="black"/>
<path d="M77.6772 36.328C77.4995 36.328 77.3291 36.2574 77.2034 36.1317C77.0778 36.0061 77.0073 35.8357 77.0073 35.658C77.0073 35.4803 77.0778 35.3099 77.2034 35.1843C77.3291 35.0586 77.4995 34.9881 77.6772 34.9881C79.3179 34.9881 80.6851 32.8962 80.6851 30.4187C80.6851 27.9413 79.3179 25.8494 77.6772 25.8494C76.0365 25.8494 74.6692 27.9413 74.6692 30.4187C74.6692 30.5964 74.5987 30.7668 74.4731 30.8925C74.3474 31.0181 74.177 31.0887 73.9993 31.0887C73.8217 31.0887 73.6513 31.0181 73.5256 30.8925C73.4 30.7668 73.3293 30.5964 73.3293 30.4187C73.3025 28.9611 73.7214 27.5301 74.5298 26.317C75.3502 25.1439 76.4685 24.4985 77.6772 24.4985C78.8858 24.4985 80.0015 25.1439 80.8246 26.317C81.6067 27.5376 82.0223 28.9568 82.0223 30.4064C82.0223 31.8561 81.6067 33.2753 80.8246 34.4958C80.0015 35.6799 78.8831 36.328 77.6772 36.328Z" fill="black"/>
<path d="M93.6958 36.328C93.5181 36.328 93.3477 36.2574 93.2221 36.1317C93.0964 36.0061 93.0259 35.8357 93.0259 35.658C93.0259 35.4803 93.0964 35.3099 93.2221 35.1843C93.3477 35.0586 93.5181 34.9881 93.6958 34.9881C95.3365 34.9881 96.7037 32.8962 96.7037 30.4187C96.7037 27.9413 95.3365 25.8494 93.6958 25.8494C92.0551 25.8494 90.6879 27.9413 90.6879 30.4187C90.6879 30.5964 90.6172 30.7668 90.4916 30.8925C90.3659 31.0181 90.1957 31.0887 90.018 31.0887C89.8403 31.0887 89.6699 31.0181 89.5443 30.8925C89.4186 30.7668 89.348 30.5964 89.348 30.4187C89.3202 28.9614 89.738 27.5303 90.5457 26.317C91.366 25.1439 92.4872 24.4985 93.6931 24.4985C94.899 24.4985 96.0175 25.1439 96.8433 26.317C97.6254 27.5376 98.041 28.9568 98.041 30.4064C98.041 31.8561 97.6254 33.2753 96.8433 34.4958C96.0202 35.6799 94.9045 36.328 93.6958 36.328Z" fill="black"/>
<path d="M108.068 106.082L104.308 103.446C104.212 103.378 104.096 103.342 103.978 103.342C103.86 103.342 103.745 103.378 103.649 103.446L100.22 105.85L96.7908 103.446C96.6938 103.378 96.5783 103.342 96.46 103.342C96.3416 103.342 96.2261 103.378 96.1291 103.446L92.7 105.85L89.271 103.446C89.1746 103.378 89.0596 103.342 88.9416 103.342C88.8236 103.342 88.7085 103.378 88.612 103.446L85.1802 105.85L81.7511 103.446C81.6547 103.378 81.5397 103.342 81.4217 103.342C81.3037 103.342 81.1886 103.378 81.0922 103.446L77.6631 105.85L74.2341 103.446C74.1371 103.378 74.0216 103.342 73.9032 103.342C73.7848 103.342 73.6693 103.378 73.5723 103.446L69.8151 106.082C69.6903 106.17 69.6054 106.303 69.579 106.453C69.5526 106.603 69.5869 106.758 69.6743 106.882C69.7617 107.007 69.895 107.092 70.045 107.118C70.195 107.145 70.3494 107.11 70.4741 107.023L73.9032 104.617L77.3323 107.023C77.4287 107.091 77.5438 107.128 77.6618 107.128C77.7798 107.128 77.8948 107.091 77.9912 107.023L81.4231 104.617L84.8521 107.023C84.9485 107.091 85.0637 107.128 85.1816 107.128C85.2996 107.128 85.4146 107.091 85.511 107.023L88.9401 104.617L92.372 107.023C92.4684 107.091 92.5835 107.128 92.7015 107.128C92.8195 107.128 92.9345 107.091 93.0309 107.023L96.46 104.617L99.889 107.023C99.9854 107.091 100.101 107.128 100.219 107.128C100.337 107.128 100.452 107.091 100.548 107.023L103.98 104.617L107.409 107.023C107.534 107.11 107.688 107.145 107.838 107.118C107.988 107.092 108.121 107.007 108.209 106.882C108.296 106.758 108.33 106.603 108.304 106.453C108.278 106.303 108.193 106.17 108.068 106.082Z" fill="#2B68E8"/>
<path d="M22.2733 60.0416V48.8794C22.258 48.7087 22.1794 48.5498 22.0529 48.4341C21.9263 48.3184 21.7611 48.2543 21.5897 48.2543C21.4182 48.2543 21.253 48.3184 21.1265 48.4341C21 48.5498 20.9213 48.7087 20.9061 48.8794V60.0416C20.8976 60.1366 20.9089 60.2322 20.9394 60.3225C20.9699 60.4128 21.0189 60.4957 21.0832 60.566C21.1475 60.6363 21.2257 60.6925 21.3129 60.7309C21.4001 60.7694 21.4944 60.7892 21.5897 60.7892C21.685 60.7892 21.7793 60.7694 21.8665 60.7309C21.9537 60.6925 22.0318 60.6363 22.0961 60.566C22.1604 60.4957 22.2094 60.4128 22.2399 60.3225C22.2704 60.2322 22.2818 60.1366 22.2733 60.0416Z" fill="#2B68E8"/>
<path d="M27.1682 53.7741H16.006C15.8352 53.7894 15.6764 53.868 15.5607 53.9945C15.445 54.1211 15.3809 54.2863 15.3809 54.4577C15.3809 54.6292 15.445 54.7944 15.5607 54.9209C15.6764 55.0474 15.8352 55.1261 16.006 55.1413H27.1682C27.2631 55.1498 27.3588 55.1385 27.4491 55.108C27.5394 55.0775 27.6223 55.0285 27.6926 54.9642C27.763 54.8999 27.8191 54.8217 27.8575 54.7345C27.896 54.6473 27.9157 54.553 27.9157 54.4577C27.9157 54.3624 27.896 54.2682 27.8575 54.181C27.8191 54.0938 27.763 54.0155 27.6926 53.9512C27.6223 53.8869 27.5394 53.838 27.4491 53.8075C27.3588 53.777 27.2631 53.7656 27.1682 53.7741Z" fill="#2B68E8"/>
<path d="M33.4172 70.1975C33.9641 69.0791 33.6742 67.6025 32.5968 66.9489C31.3936 66.227 29.9061 66.9736 29.3154 68.1576C27.1991 72.5264 25.9404 77.2606 25.6074 82.1035C27.1387 82.1746 28.6646 82.2484 30.1932 82.3305C30.4882 78.1182 31.5824 74.0006 33.4172 70.1975Z" fill="white"/>
<path d="M25.0242 82.6203C24.9568 82.5436 24.9052 82.4544 24.8724 82.3577C24.8395 82.2611 24.826 82.1589 24.8327 82.057C25.168 77.1182 26.452 72.2904 28.6145 67.8376C28.9791 67.1156 29.5764 66.5376 30.31 66.1969C30.6874 66.0148 31.1005 65.9189 31.5195 65.9161C31.9386 65.9132 32.3529 66.0036 32.7327 66.1805C32.8147 66.2188 32.8968 66.2626 32.9761 66.309C34.3434 67.1294 34.8493 69.0435 34.0973 70.5503C32.3096 74.2644 31.2433 78.2842 30.9553 82.3961C30.9405 82.5958 30.8482 82.7818 30.6979 82.9142C30.5476 83.0466 30.3514 83.1149 30.1514 83.1043C28.6747 83.025 27.1434 82.9485 25.5738 82.8746C25.4723 82.8722 25.3725 82.8479 25.2812 82.8035C25.1843 82.76 25.0969 82.6978 25.0242 82.6203ZM32.7246 69.8666C33.1238 69.0627 32.8777 68.0318 32.1777 67.6161C32.1417 67.5943 32.1042 67.5751 32.0655 67.5587C31.2889 67.1896 30.3565 67.7501 29.9736 68.5076C28.0162 72.5511 26.8116 76.9173 26.4188 81.3925L29.4732 81.5456C29.8498 77.4895 30.951 73.5339 32.7246 69.8666Z" fill="black"/>
<path d="M46.8809 81.3735C46.5192 80.9284 46.0052 80.6334 45.4384 80.5455C44.8716 80.4576 44.2923 80.5831 43.8128 80.8978C45.1062 79.8504 45.6121 78.5516 44.8491 77.3429C44.1354 76.2136 42.6096 76.1507 41.6006 76.8206C42.4565 76.0331 42.738 74.674 41.9751 73.758C41.122 72.7298 39.4922 72.8146 38.4777 73.6158C41.4856 70.8622 43.192 69.7027 45.8363 68.1714C46.9683 67.5562 47.5836 66.4323 47.1051 65.2537C46.4543 63.6458 44.901 63.613 43.7635 64.2228C33.7853 70.2196 26.4515 77.4742 19.041 88.1633C24.0123 91.39 28.8988 94.7398 33.7006 98.2126C37.2527 93.0057 41.5666 88.3618 46.498 84.4362C46.9471 84.0754 47.2382 83.554 47.3097 82.9824C47.3811 82.4108 47.2274 81.8338 46.8809 81.3735Z" fill="white"/>
<path d="M33.2529 98.8358C28.4867 95.3876 23.5646 91.9995 18.6233 88.8084C18.5374 88.7526 18.4637 88.6802 18.4062 88.5954C18.3488 88.5107 18.3089 88.4152 18.289 88.3148C18.2691 88.2143 18.2696 88.1109 18.2903 88.0106C18.3111 87.9103 18.3519 87.8152 18.4101 87.731C26.0448 76.7219 33.5099 69.4946 43.3705 63.569L43.406 63.5498C44.0326 63.2076 44.7453 63.0556 45.4569 63.1123C45.9854 63.1654 46.4879 63.368 46.9053 63.6964C47.3228 64.0247 47.638 64.4652 47.8141 64.9663C48.4102 66.4347 47.7648 67.9907 46.2144 68.8411C44.4047 69.85 42.6913 71.0225 41.0955 72.344C41.6693 72.493 42.1826 72.817 42.5639 73.271C42.8292 73.5956 43.0178 73.9759 43.1158 74.3835C43.2138 74.7912 43.2186 75.2156 43.1299 75.6254L43.3624 75.6418C43.794 75.678 44.2113 75.8139 44.5814 76.0388C44.9515 76.2637 45.2643 76.5715 45.4952 76.9379C45.7743 77.3586 45.9382 77.845 45.9708 78.3488C46.0035 78.8525 45.9037 79.356 45.6812 79.8092C46.398 79.9384 47.0417 80.3279 47.4887 80.903C47.9569 81.5224 48.1656 82.2998 48.0707 83.0705C47.9758 83.8412 47.5847 84.5447 46.9801 85.032C42.1066 88.9127 37.8434 93.5032 34.3331 98.6498C34.2746 98.7336 34.2 98.8048 34.1136 98.8593C34.0272 98.9138 33.9306 98.9504 33.8298 98.967C33.7617 98.9752 33.6929 98.9752 33.6247 98.967C33.4917 98.9555 33.3637 98.9103 33.2529 98.8358ZM44.2292 81.551C44.0645 81.658 43.865 81.6976 43.672 81.6616C43.479 81.6257 43.3072 81.517 43.192 81.3579C43.0769 81.1989 43.0272 81.0017 43.0533 80.8071C43.0794 80.6125 43.1792 80.4354 43.3322 80.3123C44.6858 79.2185 44.5546 78.3216 44.2018 77.7665C44.0938 77.5975 43.9478 77.4562 43.7755 77.3536C43.6032 77.2511 43.4092 77.1902 43.2092 77.1758C42.7925 77.1378 42.3752 77.2419 42.0252 77.4712C41.8647 77.575 41.6712 77.6151 41.4827 77.5836C41.2942 77.552 41.1243 77.4511 41.0064 77.3007C40.8885 77.1502 40.8312 76.9611 40.8457 76.7705C40.8601 76.58 40.9453 76.4017 41.0845 76.2707C41.6314 75.7758 41.8912 74.8679 41.388 74.2609C41.2694 74.1236 41.1247 74.0114 40.9622 73.9306C40.7998 73.8499 40.6229 73.8022 40.4419 73.7905C39.9088 73.7451 39.378 73.9012 38.9543 74.228C38.7989 74.3517 38.6015 74.4101 38.4038 74.391C38.2062 74.3718 38.0237 74.2766 37.8949 74.1255C37.766 73.9743 37.7011 73.779 37.7135 73.5808C37.726 73.3826 37.815 73.197 37.9618 73.0632C41.0299 70.2576 42.7526 69.0872 45.4542 67.5231C45.4542 67.5231 45.4543 67.5231 45.4707 67.5231C46.1516 67.1539 46.7531 66.4293 46.3949 65.5624C46.322 65.3206 46.1793 65.1057 45.9847 64.9447C45.7901 64.7837 45.5523 64.6837 45.3011 64.6573C44.8962 64.6301 44.4921 64.7193 44.1363 64.9143C34.6776 70.6048 27.4558 77.5286 20.1192 87.9771C24.642 90.9249 29.143 94.0121 33.5182 97.1623C37.0217 92.1509 41.2317 87.6728 46.0176 83.8671C46.2452 83.6908 46.4141 83.4497 46.5022 83.1756C46.5904 82.9014 46.5935 82.6071 46.5113 82.3311C46.4291 82.0551 46.2654 81.8105 46.0416 81.6293C45.8178 81.4481 45.5443 81.3389 45.2573 81.3159C44.8978 81.2758 44.5355 81.3587 44.2292 81.551Z" fill="black"/>
<path d="M20.2119 85.5708L19.7908 86.238C19.5338 86.6509 19.17 87.2361 18.7489 87.9389C17.9067 89.3444 16.8348 91.2203 15.7903 93.2C15.536 93.7004 15.2788 94.1927 15.03 94.6903C14.9069 94.9392 14.7867 95.188 14.6664 95.4341C14.5461 95.6802 14.4257 95.9181 14.3109 96.167C14.0839 96.6592 13.8625 97.1295 13.6574 97.5889L13.0858 98.9069C12.9163 99.3308 12.7605 99.7273 12.621 100.066C12.5527 100.241 12.487 100.403 12.4296 100.553C12.3721 100.703 12.3174 100.859 12.2709 100.991L11.9756 101.811L30.0916 108.037C30.0916 108.037 30.1546 107.868 30.2585 107.573L30.346 107.329C30.3843 107.236 30.4225 107.132 30.4663 107.026C30.5538 106.807 30.6522 106.558 30.7616 106.29C31.2183 105.196 31.9429 103.649 32.7632 102.082C33.5836 100.515 34.4888 98.937 35.1861 97.7748C35.5334 97.1924 35.8286 96.7193 36.031 96.3912L36.3428 95.8963L20.2119 85.5708Z" fill="#2B68E8"/>
<path d="M29.952 109.058C29.8821 109.047 29.8134 109.029 29.7469 109.006C29.4923 108.914 29.2845 108.725 29.1691 108.481C29.0537 108.236 29.0403 107.956 29.1316 107.701L29.3832 106.999C29.3832 106.999 29.3831 106.971 29.3968 106.96L29.8124 105.921V105.905C30.3238 104.682 31.0868 103.08 31.8551 101.614C32.8204 99.7685 33.8049 98.095 34.3026 97.2582C34.5459 96.8563 34.7592 96.5035 34.9369 96.2192L20.5206 86.9848C20.2472 87.4168 19.9573 87.8981 19.621 88.4614C19.0248 89.4568 17.8545 91.4502 16.6923 93.6706L16.4627 94.13C16.2904 94.4636 16.1153 94.8082 15.9458 95.1418L15.5849 95.8801C15.5466 95.9594 15.5056 96.0414 15.4673 96.1234C15.388 96.282 15.3142 96.4324 15.2431 96.5856L15.0271 97.0505C14.8739 97.3813 14.729 97.6903 14.5923 97.9966L14.0454 99.2955L13.4 100.912L12.9516 102.161C12.8468 102.396 12.6568 102.583 12.4199 102.684C12.1831 102.785 11.9168 102.793 11.6745 102.706C11.4322 102.619 11.2319 102.443 11.1137 102.214C10.9956 101.985 10.9683 101.72 11.0375 101.472L11.4941 100.206V100.179L12.1558 98.5243C12.1543 98.5153 12.1543 98.506 12.1558 98.497L12.7246 97.1817C12.8696 96.859 13.0172 96.5391 13.1758 96.2L13.3864 95.7488C13.4657 95.5711 13.5504 95.3988 13.6324 95.232L13.7473 94.9996L14.1138 94.2476C14.2915 93.8948 14.472 93.5448 14.6443 93.2085L14.8822 92.7436C16.0088 90.5916 17.1299 88.6665 17.8682 87.4305C18.2675 86.7633 18.6092 86.2109 18.9182 85.716L19.342 85.0405C19.4143 84.9271 19.5083 84.8291 19.6186 84.7521C19.7288 84.6752 19.8533 84.6208 19.9847 84.5921C20.1158 84.5622 20.2517 84.5589 20.3842 84.5823C20.5166 84.6058 20.643 84.6556 20.7559 84.7288L36.8894 95.0625C37.1167 95.2079 37.2771 95.4374 37.3355 95.7008C37.3939 95.9643 37.3456 96.2401 37.201 96.468L36.8894 96.9602C36.7007 97.2665 36.4054 97.7395 36.069 98.3274C35.5796 99.1478 34.6198 100.789 33.6764 102.585C32.9353 103.996 32.2024 105.536 31.7129 106.706L31.3082 107.718L31.0594 108.412C30.9764 108.63 30.8212 108.813 30.6197 108.931C30.4182 109.048 30.1825 109.093 29.952 109.058Z" fill="#2B68E8"/>
<path d="M21.8031 102.008H21.773C21.718 101.985 21.6682 101.951 21.6263 101.908C21.5844 101.866 21.5514 101.815 21.5291 101.76C21.5067 101.705 21.4955 101.645 21.4961 101.586C21.4967 101.526 21.509 101.467 21.5324 101.412C21.6418 101.155 24.2368 95.0487 26.5884 92.131C26.6243 92.0806 26.6702 92.038 26.7232 92.006C26.7761 91.9739 26.835 91.953 26.8963 91.9446C26.9577 91.9361 27.0202 91.9403 27.0798 91.9569C27.1394 91.9734 27.195 92.002 27.2432 92.0409C27.2914 92.0797 27.3312 92.128 27.3601 92.1828C27.3889 92.2375 27.4062 92.2976 27.4109 92.3594C27.4157 92.4211 27.4078 92.4831 27.3877 92.5417C27.3676 92.6002 27.3356 92.654 27.294 92.6998C25.0216 95.5191 22.3938 101.705 22.3719 101.767C22.3249 101.872 22.2402 101.955 22.1347 101.999C22.0293 102.044 21.9108 102.047 21.8031 102.008Z" fill="black"/>
<path d="M15.6426 100.479C15.5411 100.463 15.4481 100.413 15.3789 100.336C15.3097 100.26 15.2684 100.163 15.2617 100.06C15.255 99.9578 15.2834 99.856 15.3422 99.7716C15.401 99.6872 15.4866 99.6253 15.5852 99.596C17.9916 98.9069 21.0378 98.8494 24.6391 99.4264C26.2245 99.6741 27.7906 100.032 29.3261 100.498C29.4343 100.54 29.5227 100.621 29.5731 100.725C29.6235 100.829 29.6321 100.949 29.5971 101.059C29.5621 101.17 29.4863 101.263 29.3851 101.319C29.2838 101.375 29.1649 101.391 29.0526 101.362C28.9733 101.338 21.2866 98.9014 15.8368 100.466C15.7738 100.484 15.7076 100.489 15.6426 100.479Z" fill="black"/>
<path d="M29.7709 99.6917C29.6858 99.6787 29.6062 99.6417 29.5413 99.5851C29.4866 99.5359 23.9684 94.7779 18.1631 94.3075C18.1005 94.3074 18.0386 94.2944 17.9813 94.2692C17.9241 94.2441 17.8726 94.2073 17.8302 94.1614C17.7878 94.1154 17.7553 94.0612 17.7349 94.0021C17.7144 93.943 17.7065 93.8803 17.7114 93.8179C17.7163 93.7556 17.734 93.6949 17.7634 93.6398C17.7929 93.5846 17.8335 93.5361 17.8825 93.4973C17.9316 93.4586 17.9881 93.4304 18.0486 93.4145C18.1091 93.3987 18.1723 93.3954 18.2341 93.4051C24.3457 93.8973 29.9049 98.6964 30.1373 98.9014C30.2111 98.9661 30.262 99.0529 30.2823 99.1489C30.3026 99.2448 30.2912 99.3448 30.25 99.4338C30.2087 99.5227 30.1397 99.5959 30.0533 99.6425C29.967 99.689 29.8679 99.7062 29.7709 99.6917Z" fill="black"/>
<path d="M129.397 90.0282C129.502 89.9954 129.597 89.9369 129.673 89.8582C129.75 89.7794 129.805 89.6827 129.835 89.577C129.921 89.3104 129.921 89.0233 129.835 88.7567L129.728 88.4258C129.693 88.3164 129.652 88.1825 129.6 88.0266C129.548 87.8707 129.482 87.693 129.411 87.4797C129.016 86.3653 128.551 85.2774 128.016 84.2229C127.261 82.7264 126.376 81.299 125.372 79.9571C124.825 79.227 124.226 78.4941 123.584 77.7914C122.941 77.0886 122.266 76.4241 121.563 75.7733C120.212 74.5432 118.76 73.4282 117.223 72.44C115.93 71.6049 114.585 70.8515 113.198 70.184C112 69.607 110.983 69.1887 110.272 68.9097L109.452 68.598L109.157 68.4914L109.009 68.4503L108.82 68.3847C108.051 68.1015 107.203 68.1122 106.441 68.4148C106.112 68.5428 105.817 68.7455 105.58 69.007C105.343 69.2685 105.169 69.5816 105.074 69.9215C104.985 70.2696 104.977 70.6337 105.052 70.9852L104.978 70.9661C104.232 70.7538 103.433 70.8462 102.755 71.2231C102.456 71.3882 102.197 71.6179 101.997 71.8955C101.797 72.1732 101.662 72.4918 101.601 72.8283C101.513 73.343 101.584 73.8722 101.803 74.3459C102.014 74.8104 102.343 75.2113 102.758 75.5081C102.472 75.8234 102.274 76.208 102.184 76.6237C102.063 77.1553 102.101 77.7106 102.293 78.2207C102.467 78.6951 102.777 79.1078 103.184 79.4075C102.929 79.7123 102.743 80.0686 102.638 80.452C102.463 81.0842 102.498 81.756 102.739 82.3662C102.836 82.6303 102.988 82.871 103.184 83.0727C103.381 83.2743 103.617 83.4323 103.879 83.5366C103.879 83.5366 104.117 83.6213 104.467 83.7553C104.817 83.8893 105.287 84.0807 105.727 84.2858C106.168 84.4909 106.611 84.7042 106.933 84.871L107.316 85.0761L107.458 85.1554C107.491 85.1739 107.526 85.1886 107.562 85.1991L107.683 85.2675L108.022 85.4671C108.309 85.6421 108.716 85.8937 109.173 86.2164C109.683 86.5724 110.174 86.9568 110.641 87.3676C111.151 87.8149 111.629 88.2974 112.072 88.8114C112.866 89.7315 113.525 90.7611 114.027 91.8685C114.232 92.3197 114.374 92.7135 114.472 92.9924C114.524 93.1292 114.552 93.244 114.579 93.3178C114.606 93.3917 115.399 95.7105 115.399 95.7105C115.481 95.984 116.799 95.2156 117.21 95.1062L129.397 90.0282Z" fill="white"/>
<path d="M115.482 96.5552C115.298 96.5613 115.117 96.5079 114.965 96.403C114.814 96.2981 114.701 96.1472 114.642 95.9728L113.822 93.5883C113.822 93.5528 113.797 93.5145 113.784 93.468C113.77 93.4215 113.748 93.3477 113.723 93.2821C113.617 92.9813 113.486 92.6258 113.302 92.2183C113.083 91.7371 112.832 91.2703 112.553 90.821C112.225 90.3018 111.859 89.8074 111.459 89.3416C111.036 88.8546 110.579 88.3977 110.092 87.9744C109.646 87.5852 109.18 87.2201 108.695 86.8806C108.26 86.5771 107.874 86.3337 107.601 86.1614L107.218 85.9399C107.162 85.9178 107.107 85.8922 107.054 85.8634L106.917 85.7841L106.543 85.5844C106.187 85.3985 105.763 85.1934 105.383 85.0211C104.875 84.7914 104.399 84.6 104.161 84.5071L103.715 84.3403L103.589 84.2938C103.227 84.1536 102.898 83.9387 102.625 83.6631C102.351 83.3874 102.138 83.0573 102.001 82.6941C101.694 81.926 101.649 81.0785 101.872 80.2823C101.937 80.0324 102.028 79.7903 102.146 79.5603C101.883 79.253 101.677 78.9023 101.536 78.524C101.291 77.8732 101.243 77.1649 101.396 76.4868C101.462 76.201 101.565 75.9251 101.703 75.6664C101.441 75.3801 101.226 75.0544 101.065 74.7012C100.782 74.0861 100.692 73.3998 100.806 72.7323C100.888 72.2858 101.067 71.8629 101.331 71.4937C101.596 71.1245 101.938 70.8182 102.334 70.5967C102.908 70.2706 103.561 70.1097 104.221 70.1318C104.237 70.0072 104.262 69.8839 104.295 69.7627C104.42 69.3102 104.648 68.8929 104.961 68.5432C105.274 68.1936 105.664 67.9212 106.1 67.7473C106.575 67.5519 107.084 67.4524 107.598 67.4548C108.085 67.4557 108.568 67.538 109.028 67.6981L109.179 67.7528C109.242 67.7669 109.304 67.7851 109.365 67.8075L109.668 67.9169C109.857 67.9852 110.141 68.0919 110.51 68.2341C111.5 68.6196 112.504 69.0544 113.496 69.533C114.911 70.2139 116.28 70.9829 117.598 71.8354C119.17 72.8469 120.654 73.9875 122.036 75.2453C122.758 75.9016 123.455 76.6126 124.106 77.3153C124.719 77.9853 125.337 78.7318 125.941 79.5357C127.702 81.8878 129.101 84.4909 130.089 87.258L130.15 87.4302C130.199 87.5697 130.245 87.7037 130.284 87.8103L130.521 88.5486C130.658 88.968 130.658 89.42 130.521 89.8393C130.455 90.0542 130.339 90.2502 130.182 90.4114C130.025 90.5725 129.832 90.6942 129.619 90.7663L117.404 95.8743L117.352 95.888C117.27 95.9099 117.005 96.0329 116.83 96.115C116.234 96.383 115.832 96.5552 115.482 96.5552ZM115.178 92.7625C115.216 92.8691 115.246 92.9621 115.266 93.0359C115.275 93.0582 115.282 93.081 115.288 93.1043V93.1207L115.881 94.8735L116.215 94.7204C116.447 94.6061 116.686 94.5065 116.931 94.4223L129.102 89.3334C129.13 89.227 129.126 89.1145 129.089 89.0108L128.856 88.2834C128.823 88.1849 128.78 88.0701 128.736 87.9443L128.673 87.7693C128.286 86.6862 127.829 85.6294 127.306 84.6055C126.571 83.1482 125.71 81.7583 124.732 80.4518C124.158 79.6889 123.573 78.9779 122.993 78.3435C122.37 77.6626 121.708 77.0009 121.022 76.3719C119.701 75.1714 118.282 74.0829 116.781 73.1179C115.514 72.2997 114.197 71.5618 112.837 70.9084C111.883 70.449 110.923 70.0279 109.966 69.6588C109.611 69.522 109.337 69.4209 109.146 69.3552L108.848 69.2458L108.793 69.2322H108.749L108.52 69.1529C108.223 69.0479 107.91 68.9943 107.595 68.9943C107.286 68.9922 106.98 69.0508 106.693 69.1665C106.473 69.2494 106.275 69.3825 106.115 69.5553C105.955 69.7281 105.837 69.9358 105.772 70.1619C105.712 70.3956 105.707 70.6398 105.758 70.8756L106.015 72.1007L104.732 71.7506C104.533 71.6962 104.327 71.6686 104.12 71.6686C103.76 71.6677 103.406 71.762 103.094 71.942C102.892 72.0509 102.716 72.2041 102.581 72.3901C102.445 72.5762 102.354 72.7903 102.312 73.0167C102.251 73.3795 102.301 73.7525 102.457 74.0859C102.611 74.4265 102.853 74.7201 103.157 74.9363L103.863 75.4367L103.283 76.0766C103.086 76.2949 102.95 76.5606 102.887 76.8477C102.799 77.2338 102.827 77.6373 102.969 78.0072C103.09 78.3351 103.305 78.6202 103.587 78.8275L104.268 79.3143L103.721 79.9487C103.537 80.1669 103.402 80.4226 103.327 80.6979C103.206 81.1624 103.238 81.6536 103.42 82.098C103.477 82.2601 103.567 82.409 103.683 82.5354C103.8 82.6619 103.941 82.7633 104.098 82.8335C104.207 82.8691 104.385 82.9375 104.713 83.0632C104.97 83.1617 105.474 83.364 106.015 83.6101C106.42 83.7934 106.873 84.0121 107.256 84.2145L107.773 84.4879H107.825L108.175 84.6875L108.391 84.8133C108.697 85.002 109.113 85.259 109.583 85.5899C110.116 85.9626 110.628 86.3642 111.117 86.7931C111.654 87.2662 112.158 87.776 112.624 88.3189C113.073 88.8413 113.482 89.3961 113.849 89.9788C114.164 90.485 114.445 91.0112 114.691 91.5539C114.924 92.0707 115.082 92.5109 115.178 92.7625Z" fill="black"/>
<path d="M94.5602 94.4553C105.065 94.4553 113.581 85.9392 113.581 75.4341C113.581 64.929 105.065 56.413 94.5602 56.413C84.0551 56.413 75.5391 64.929 75.5391 75.4341C75.5391 85.9392 84.0551 94.4553 94.5602 94.4553Z" fill="white"/>
<path d="M94.5603 95.1936C90.6522 95.1936 86.8318 94.0347 83.5823 91.8633C80.3328 89.692 77.8001 86.6059 76.3046 82.9951C74.8092 79.3844 74.418 75.4113 75.1807 71.5783C75.9433 67.7452 77.8255 64.2244 80.5892 61.4611C83.3528 58.6978 86.8739 56.8161 90.7071 56.054C94.5402 55.2919 98.5133 55.6836 102.124 57.1796C105.734 58.6755 108.82 61.2086 110.991 64.4584C113.162 67.7081 114.32 71.5287 114.32 75.4369C114.314 80.6754 112.23 85.6976 108.526 89.4016C104.821 93.1055 99.7988 95.1885 94.5603 95.1936ZM94.5603 57.1541C90.9443 57.1541 87.4095 58.2263 84.4029 60.2353C81.3963 62.2442 79.053 65.0996 77.6692 68.4403C76.2854 71.7811 75.9234 75.4572 76.6288 79.0037C77.3343 82.5502 79.0755 85.8079 81.6324 88.3648C84.1893 90.9217 87.4469 92.663 90.9935 93.3684C94.54 94.0739 98.216 93.7118 101.557 92.328C104.898 90.9442 107.753 88.6009 109.762 85.5943C111.771 82.5877 112.843 79.0529 112.843 75.4369C112.838 70.5895 110.91 65.9422 107.483 62.5146C104.055 59.087 99.4077 57.1591 94.5603 57.1541Z" fill="black"/>
<path d="M91.5688 88.4531L82.2305 79.1176L85.5173 75.8307L91.5688 81.8794L106.496 66.9518L109.783 70.2386L91.5688 88.4531Z" fill="#2B68E8"/>
<path d="M108.408 76.4678C112.572 75.9209 115.403 75.858 119.554 77.1213L119.611 91.8193C116.212 90.0145 115.342 85.333 116.658 81.3954C113.699 80.5258 111.892 80.6516 109.001 81.1219C107.883 81.3379 106.879 80.7774 106.584 79.2953C106.261 77.6792 107.262 76.6756 108.408 76.4678Z" fill="white"/>
<path d="M119.61 92.5358C119.771 92.5372 119.927 92.4845 120.055 92.3862C120.182 92.2879 120.272 92.1497 120.311 91.9938C120.35 91.8379 120.336 91.6734 120.27 91.5267C120.205 91.38 120.092 91.2596 119.949 91.1849C116.744 89.4841 116.214 84.9886 117.338 81.6142C117.369 81.5227 117.38 81.4259 117.373 81.3297C117.365 81.2335 117.338 81.1398 117.294 81.0542C117.249 80.9687 117.187 80.893 117.113 80.8318C117.038 80.7706 116.952 80.7252 116.859 80.6981C113.892 79.8258 112.003 79.8997 108.883 80.3974C108.024 80.5642 107.477 80.1239 107.283 79.1395C107.226 78.9165 107.214 78.6842 107.249 78.4566C107.285 78.2291 107.366 78.0111 107.488 77.816C107.734 77.4728 108.106 77.24 108.522 77.1679C112.637 76.621 115.309 76.5718 119.345 77.7996C119.437 77.8351 119.535 77.8512 119.633 77.847C119.732 77.8428 119.828 77.8184 119.917 77.7752C120.005 77.732 120.084 77.6711 120.148 77.5961C120.212 77.5212 120.26 77.4338 120.288 77.3396C120.317 77.2454 120.326 77.1462 120.315 77.0484C120.303 76.9505 120.272 76.8561 120.222 76.7709C120.173 76.6858 120.106 76.6118 120.027 76.5535C119.947 76.4953 119.857 76.454 119.761 76.4323C115.492 75.1335 112.555 75.1854 108.311 75.7542H108.281C107.885 75.8224 107.506 75.9685 107.166 76.1839C106.826 76.3993 106.532 76.6798 106.301 77.0093C106.071 77.361 105.914 77.7559 105.84 78.17C105.767 78.5842 105.779 79.0089 105.875 79.4184C106.225 81.1849 107.516 82.1256 109.132 81.8111C111.806 81.3845 113.433 81.2915 115.76 81.8849C115.251 83.7439 115.22 85.7012 115.67 87.5754C116.217 89.7767 117.507 91.5076 119.274 92.4428C119.377 92.5008 119.492 92.5327 119.61 92.5358Z" fill="black"/>
<path d="M129.777 85.5708L130.198 86.238C130.455 86.6509 130.819 87.2361 131.24 87.9389C132.083 89.3444 133.154 91.2203 134.196 93.2C134.453 93.7004 134.71 94.1927 134.956 94.6903L135.323 95.4341C135.443 95.6802 135.563 95.9181 135.676 96.167C135.905 96.6592 136.127 97.1295 136.332 97.5889L136.903 98.9069C137.073 99.3308 137.229 99.7273 137.368 100.066L137.56 100.553C137.617 100.714 137.669 100.859 137.718 100.991L138.014 101.811L119.895 108.037L119.728 107.573C119.703 107.499 119.673 107.419 119.643 107.329L119.52 107.026C119.435 106.807 119.334 106.558 119.228 106.29C118.768 105.196 118.046 103.649 117.226 102.082C116.406 100.515 115.5 98.937 114.803 97.7748C114.456 97.1924 114.161 96.7193 113.958 96.3912L113.646 95.8963L129.777 85.5708Z" fill="#2B68E8"/>
<path d="M120.037 109.057C120.107 109.047 120.176 109.029 120.242 109.006C120.368 108.96 120.484 108.891 120.583 108.801C120.682 108.71 120.762 108.602 120.819 108.481C120.876 108.359 120.909 108.228 120.915 108.094C120.921 107.961 120.9 107.827 120.855 107.701L120.606 106.998L120.59 106.96L120.177 105.921C120.175 105.916 120.175 105.91 120.177 105.905C119.665 104.682 118.902 103.08 118.134 101.614C117.166 99.7684 116.184 98.0949 115.673 97.2581C115.432 96.8562 115.216 96.5034 115.041 96.2191L129.458 86.9847C129.731 87.4167 130.021 87.898 130.357 88.4613C130.953 89.4566 132.124 91.4501 133.286 93.6705L133.524 94.1326C133.696 94.4662 133.871 94.8108 134.041 95.1444L134.401 95.8827C134.44 95.962 134.481 96.044 134.519 96.1261C134.598 96.2847 134.672 96.4351 134.743 96.5882L134.959 97.0531C135.11 97.3839 135.255 97.6929 135.391 97.9992L135.955 99.2981L136.6 100.914L137.049 102.164C137.153 102.399 137.343 102.586 137.58 102.687C137.817 102.788 138.083 102.796 138.326 102.708C138.568 102.621 138.768 102.445 138.886 102.217C139.005 101.988 139.032 101.723 138.963 101.475L138.506 100.209V100.181L137.844 98.5269C137.845 98.5178 137.845 98.5087 137.844 98.4996L137.273 97.1843C137.128 96.8617 136.98 96.5417 136.822 96.2026L136.611 95.7514C136.532 95.5737 136.447 95.4014 136.365 95.2346L136.25 95.0022L135.881 94.2502C135.706 93.8975 135.525 93.5475 135.353 93.2111L135.115 92.7462C133.986 90.5942 132.868 88.6691 132.129 87.4331C131.73 86.7659 131.388 86.2135 131.079 85.7186L130.652 85.0432C130.58 84.9299 130.487 84.8319 130.377 84.7549C130.267 84.6778 130.143 84.6233 130.012 84.5943C129.881 84.5654 129.745 84.5626 129.613 84.5861C129.481 84.6096 129.355 84.659 129.242 84.7314L113.108 95.0651C112.882 95.2114 112.722 95.4409 112.664 95.7039C112.606 95.967 112.653 96.2424 112.796 96.4706L113.108 96.9628C113.299 97.2691 113.592 97.7422 113.942 98.3301C114.431 99.1504 115.391 100.791 116.335 102.588C117.076 103.999 117.809 105.538 118.295 106.709L118.703 107.72L118.949 108.415C119.032 108.628 119.185 108.808 119.382 108.924C119.579 109.041 119.81 109.088 120.037 109.057Z" fill="#2B68E8"/>
<path d="M128.185 102.008H128.215C128.27 101.985 128.32 101.951 128.362 101.908C128.404 101.866 128.437 101.815 128.459 101.76C128.482 101.704 128.493 101.645 128.492 101.585C128.492 101.526 128.48 101.467 128.456 101.412C128.347 101.155 125.752 95.0486 123.4 92.1309C123.322 92.0454 123.215 91.9928 123.099 91.9839C122.984 91.975 122.87 92.0105 122.779 92.0831C122.689 92.1557 122.63 92.2599 122.615 92.3745C122.599 92.4891 122.627 92.6054 122.695 92.6997C124.967 95.519 127.595 101.704 127.617 101.767C127.664 101.872 127.748 101.955 127.854 101.999C127.959 102.044 128.078 102.047 128.185 102.008Z" fill="black"/>
<path d="M134.333 100.479C134.437 100.466 134.533 100.417 134.604 100.341C134.676 100.265 134.719 100.167 134.726 100.062C134.733 99.9581 134.704 99.8545 134.643 99.7695C134.583 99.6844 134.494 99.6231 134.393 99.596C131.984 98.9069 128.924 98.8494 125.34 99.4264C123.754 99.6741 122.188 100.032 120.653 100.498C120.544 100.54 120.456 100.621 120.406 100.725C120.355 100.829 120.347 100.949 120.382 101.059C120.416 101.17 120.492 101.263 120.594 101.319C120.695 101.375 120.814 101.391 120.926 101.362C121.005 101.338 128.692 98.9014 134.142 100.466C134.204 100.484 134.269 100.489 134.333 100.479Z" fill="black"/>
<path d="M120.215 99.6919C120.301 99.6793 120.382 99.6423 120.448 99.5852C120.502 99.536 126.02 94.778 131.826 94.3077C131.939 94.29 132.041 94.2303 132.112 94.1405C132.183 94.0508 132.217 93.9376 132.208 93.8236C132.199 93.7095 132.147 93.6031 132.063 93.5256C131.979 93.448 131.869 93.4051 131.755 93.4053C125.64 93.8975 120.084 98.6965 119.851 98.9016C119.778 98.9661 119.727 99.0527 119.707 99.1483C119.687 99.2439 119.698 99.3435 119.739 99.4322C119.78 99.521 119.848 99.5943 119.934 99.641C120.02 99.6878 120.118 99.7056 120.215 99.6919Z" fill="black"/>
</svg>
