<svg width="150" height="128" viewBox="0 0 150 128" fill="none" xmlns="http://www.w3.org/2000/svg">
<rect width="128" height="128" transform="translate(11)" fill="white"/>
<path d="M97.7412 86.2977C94.9518 86.2977 92.2251 85.4705 89.9059 83.9207C87.5866 82.3709 85.779 80.1681 84.7118 77.5909C83.6445 75.0137 83.3655 72.1779 83.91 69.4422C84.4545 66.7064 85.7979 64.1935 87.7706 62.2214C89.7434 60.2493 92.2566 58.9064 94.9926 58.3628C97.7285 57.8191 100.564 58.099 103.141 59.167C105.718 60.2351 107.92 62.0433 109.469 64.363C111.018 66.6828 111.845 69.4098 111.844 72.1992C111.84 75.9378 110.352 79.5218 107.708 82.1649C105.064 84.8081 101.48 86.2944 97.7412 86.2977ZM97.7412 60.3849C95.4048 60.3858 93.1211 61.0794 91.1788 62.3781C89.2365 63.6767 87.7228 65.5222 86.8292 67.681C85.9357 69.8399 85.7025 72.2152 86.1588 74.5067C86.6151 76.7982 87.7406 78.9029 89.393 80.5547C91.0455 82.2066 93.1506 83.3313 95.4422 83.7868C97.7339 84.2424 100.109 84.0082 102.268 83.1138C104.426 82.2195 106.271 80.7053 107.569 78.7625C108.867 76.8197 109.56 74.5357 109.56 72.1992C109.552 69.0676 108.304 66.0665 106.089 63.8524C103.875 61.6384 100.873 60.3916 97.7412 60.3849Z" fill="#2B68E8"/>
<path d="M78.4191 68.7221C80.0222 67.6477 80.7539 65.4312 79.7895 63.7223C78.7277 61.8315 76.1559 61.7004 74.4512 62.8382C68.2605 67.0949 62.9469 72.5033 58.8003 78.7683C60.7997 80.0288 62.7963 81.2978 64.79 82.5753C68.4147 77.1361 73.0398 72.435 78.4191 68.7221Z" fill="white"/>
<path d="M57.6417 79.0144C57.6084 78.8596 57.6065 78.6997 57.6363 78.5442C57.6661 78.3887 57.727 78.2408 57.8152 78.1092C62.043 71.7191 67.4631 66.2041 73.779 61.8661C74.8193 61.1758 76.0627 60.8582 77.3067 60.9651C77.9534 61.0094 78.5824 61.1962 79.1484 61.5122C79.7144 61.8281 80.2036 62.2653 80.5808 62.7925C80.6619 62.9082 80.7367 63.0282 80.8049 63.152C82.0231 65.3093 81.2279 68.2491 79.0749 69.7127C73.8191 73.3407 69.3003 77.9341 65.7589 83.2486C65.5865 83.5065 65.3198 83.6865 65.016 83.7498C64.7123 83.8131 64.3958 83.7546 64.1347 83.587C62.2101 82.3561 60.2009 81.0744 58.1493 79.78C58.0202 79.693 57.9071 79.5843 57.8152 79.4586C57.7277 79.3239 57.6686 79.1727 57.6417 79.0144ZM77.7425 67.75C78.8973 66.9717 79.3584 65.3982 78.745 64.3153C78.7132 64.2582 78.6779 64.2031 78.6393 64.1503C77.8737 63.059 76.1943 63.1013 75.0988 63.8246C69.3695 67.7633 64.4057 72.7128 60.4504 78.4307C61.8082 79.2767 63.1449 80.1227 64.4435 80.9687C68.0531 75.8049 72.5569 71.3282 77.7425 67.75Z" fill="black"/>
<path d="M88.0951 93.874C87.9492 92.999 87.484 92.2092 86.7894 91.6575C86.0947 91.1059 85.2201 90.8315 84.3348 90.8876C86.8728 90.4646 88.5435 89.111 88.4378 86.9029C88.3447 84.8387 86.3229 83.5909 84.4744 83.7178C86.2257 83.2948 87.6426 81.7001 87.3169 79.8854C86.9531 77.8508 84.7028 76.7172 82.7232 77.0217C88.8736 75.6216 92.0544 75.3636 96.7835 75.3297C98.7758 75.3678 100.459 74.323 100.717 72.3688C101.073 69.7123 99.0042 68.4899 97.0119 68.4307C79.0092 68.8537 63.5953 73.016 45.4614 81.7255C49.6914 89.8639 53.7027 98.1039 57.4956 106.445C66.2516 102.157 75.603 99.2114 85.2358 97.7063C86.1164 97.5632 86.907 97.0835 87.4406 96.3684C87.9741 95.6533 88.2087 94.7589 88.0951 93.874Z" fill="white"/>
<path d="M56.3088 107.126C52.5357 98.8436 48.496 90.5444 44.2999 82.4567C44.2272 82.3158 44.1835 82.1617 44.1714 82.0036C44.1593 81.8455 44.1792 81.6866 44.2296 81.5363C44.2801 81.386 44.3602 81.2474 44.4653 81.1286C44.5704 81.0099 44.6982 80.9135 44.8412 80.845C63.5208 71.8775 79.0828 67.8675 96.8699 67.436H96.9335C98.0376 67.4559 99.1121 67.7969 100.026 68.4174C100.697 68.8926 101.218 69.5494 101.529 70.3106C101.84 71.0718 101.927 71.9059 101.781 72.715C101.455 75.143 99.4037 76.742 96.6627 76.6997C93.4583 76.6724 90.2582 76.94 87.1029 77.4991C87.7622 78.1374 88.2058 78.9655 88.3719 79.8679C88.4782 80.5017 88.4414 81.1512 88.2643 81.7689C88.0872 82.3866 87.7743 82.9569 87.3483 83.438C87.4525 83.4979 87.5528 83.5643 87.6486 83.6368C88.2046 84.015 88.6643 84.5179 88.9911 85.1055C89.318 85.6931 89.5029 86.349 89.531 87.0208C89.5847 87.7997 89.4331 88.579 89.0917 89.2811C88.7503 89.9832 88.2309 90.5836 87.5852 91.0224C88.4502 91.7464 89.0166 92.765 89.1756 93.8818C89.3331 95.0726 89.0206 96.2778 88.3044 97.242C87.5881 98.2062 86.5245 98.8535 85.3391 99.0466C75.8172 100.539 66.5732 103.452 57.9161 107.688C57.7735 107.756 57.6191 107.794 57.4615 107.802C57.304 107.809 57.1465 107.785 56.9983 107.731C56.8991 107.696 56.8051 107.647 56.719 107.587C56.5445 107.471 56.4033 107.313 56.3088 107.126ZM84.29 92.2617C83.9865 92.2801 83.6875 92.1811 83.455 91.985C83.2225 91.789 83.0742 91.511 83.0411 91.2087C83.0079 90.9064 83.0922 90.6029 83.2767 90.3611C83.4612 90.1193 83.7317 89.9577 84.0321 89.9099C86.6927 89.4869 87.1959 88.1629 87.1494 87.1477C87.1321 86.8382 87.0434 86.537 86.89 86.2676C86.7366 85.9983 86.5227 85.7681 86.2654 85.5953C85.7331 85.2271 85.0926 85.0484 84.4466 85.0877C84.1501 85.1068 83.8573 85.0137 83.6262 84.827C83.3951 84.6403 83.2427 84.3736 83.1991 84.0798C83.1554 83.786 83.2237 83.4864 83.3905 83.2406C83.5574 82.9948 83.8104 82.8207 84.0996 82.7528C85.1994 82.499 86.2569 81.4838 86.0454 80.2824C85.9308 79.7286 85.6045 79.2414 85.136 78.9246C84.4518 78.4572 83.617 78.2639 82.7969 78.3832C82.4969 78.4213 82.1934 78.3435 81.9487 78.1658C81.7039 77.988 81.5362 77.7236 81.4796 77.4265C81.423 77.1294 81.4818 76.8219 81.644 76.5666C81.8062 76.3113 82.0596 76.1274 82.3527 76.0525C88.6215 74.627 91.8363 74.3605 96.6627 74.3309H96.6922C97.8935 74.352 99.2302 73.8529 99.4333 72.3978C99.521 72.017 99.4945 71.6187 99.3568 71.253C99.2191 70.8873 98.9765 70.5703 98.6593 70.342C98.1343 69.9985 97.5226 69.8108 96.8953 69.8006C79.8273 70.2236 64.8279 74.0305 46.9816 82.4524C50.8097 89.8718 54.5025 97.4646 57.9795 105.049C66.5207 100.987 75.6051 98.1828 84.9499 96.7243C85.3926 96.6635 85.8064 96.4695 86.1363 96.1681C86.4662 95.8666 86.6966 95.472 86.797 95.0366C86.8975 94.6012 86.8634 94.1455 86.6989 93.73C86.5345 93.3145 86.2475 92.9588 85.8763 92.7101C85.417 92.3768 84.8566 92.2125 84.29 92.2448V92.2617Z" fill="black"/>
<path d="M39.6896 124.046L14.9653 104.927C29.8083 85.5072 51.3431 77.5083 51.3431 77.5083L63.3394 106.365C63.3394 106.365 47.8237 113.04 39.6937 124.046H39.6896Z" fill="#2B68E8"/>
<path d="M25.6288 99.8885C25.4979 99.8 25.4009 99.6697 25.3537 99.519C25.3065 99.3682 25.3118 99.2059 25.3688 99.0585C25.4257 98.9112 25.5311 98.7875 25.6674 98.7078C25.8038 98.628 25.9632 98.5969 26.1196 98.6195C29.9477 99.2074 34.2665 101.098 38.9491 104.241C41.0173 105.612 42.9861 107.128 44.8413 108.776C44.9097 108.837 44.9653 108.912 45.0047 108.995C45.0441 109.079 45.0665 109.169 45.0708 109.261C45.0751 109.353 45.0613 109.445 45.0299 109.531C44.9985 109.618 44.9503 109.698 44.888 109.765C44.762 109.903 44.5867 109.985 44.4005 109.993C44.2143 110.002 44.0322 109.937 43.8939 109.812C43.8008 109.723 34.5881 101.352 25.9039 100.003C25.8046 99.9866 25.7103 99.9475 25.6288 99.8885Z" fill="black"/>
<path d="M45.9796 107.918C45.867 107.844 45.7774 107.74 45.7214 107.617C45.6749 107.511 41.0008 97.2538 33.1457 92.8419C32.9904 92.747 32.878 92.5956 32.8322 92.4194C32.7864 92.2433 32.8107 92.0563 32.9001 91.8977C32.9895 91.7392 33.1371 91.6216 33.3116 91.5697C33.486 91.5178 33.6738 91.5356 33.8354 91.6195C42.1007 96.2724 46.8086 106.606 47.0032 107.042C47.0651 107.18 47.0807 107.335 47.0474 107.483C47.0142 107.631 46.934 107.764 46.8188 107.862C46.7036 107.961 46.5594 108.02 46.4082 108.03C46.2569 108.039 46.1067 108 45.9796 107.918Z" fill="black"/>
<path d="M38.7631 125.227L38.7926 125.252C39.1033 125.48 39.4911 125.578 39.8728 125.524C40.2546 125.471 40.6002 125.27 40.8357 124.964L40.8611 124.935V124.905C48.6528 114.36 63.7494 107.774 63.9017 107.71C64.259 107.556 64.5412 107.267 64.6876 106.906C64.8339 106.545 64.8328 106.141 64.6843 105.781L52.6838 76.9203C52.5371 76.5667 52.2588 76.284 51.9076 76.1317C51.5564 75.9793 51.16 75.9694 50.8016 76.1039C50.5774 76.1843 45.2011 78.2189 37.9256 82.6562C31.2126 86.7592 21.5724 93.7979 13.7681 104.013C13.5295 104.323 13.4236 104.715 13.4735 105.103C13.5235 105.49 13.7254 105.843 14.0347 106.082C14.1891 106.2 14.3652 106.287 14.5531 106.337C14.7411 106.388 14.9371 106.4 15.13 106.375C15.3229 106.349 15.5089 106.286 15.6773 106.188C15.8457 106.091 15.9932 105.961 16.1115 105.807C23.6239 95.9806 32.9173 89.1872 39.3976 85.2153C42.9715 83.0191 46.6976 81.0811 50.5477 79.416L61.4358 105.6C57.43 107.503 45.4718 113.725 38.5093 123.145L38.4882 123.175C38.2558 123.485 38.1544 123.873 38.2059 124.257C38.2573 124.641 38.4574 124.989 38.7631 125.227Z" fill="#2B68E8"/>
<path d="M29.136 110.971C29.2888 111.09 29.4819 111.144 29.674 111.121C29.8661 111.099 30.042 111.003 30.1639 110.853C39.1526 99.7703 51.4534 94.2291 51.5761 94.1741C51.665 94.1346 51.7452 94.0781 51.8122 94.0076C51.8792 93.9372 51.9317 93.8542 51.9667 93.7635C52.0016 93.6727 52.0183 93.576 52.0158 93.4788C52.0134 93.3816 51.9919 93.2858 51.9524 93.1969C51.913 93.1081 51.8564 93.0278 51.786 92.9608C51.7155 92.8938 51.6326 92.8413 51.5418 92.8064C51.4511 92.7714 51.3544 92.7546 51.2572 92.7571C51.16 92.7595 51.0642 92.781 50.9753 92.8205C50.8484 92.8755 38.2262 98.5648 29.0133 109.918C28.8895 110.07 28.8311 110.265 28.851 110.46C28.8708 110.655 28.9672 110.835 29.1191 110.959L29.136 110.971Z" fill="black"/>
<path d="M131.81 75.8021L119.484 75.828C119.358 75.8292 119.234 75.8619 119.124 75.9233C118.986 76.0024 118.879 76.1249 118.818 76.2715C118.758 76.4181 118.747 76.5805 118.789 76.7337C118.83 76.8868 118.921 77.022 119.047 77.118C119.173 77.214 119.328 77.2656 119.487 77.2647L131.813 77.2389C132 77.2339 132.178 77.1558 132.309 77.0214C132.439 76.887 132.512 76.7068 132.512 76.5194C132.512 76.3319 132.438 76.1519 132.307 76.0179C132.176 75.884 131.998 75.8065 131.81 75.8021Z" fill="black"/>
<path d="M115.274 63.6098C115.321 63.693 115.383 63.7662 115.458 63.8249C115.534 63.8836 115.62 63.9266 115.712 63.9515C115.804 63.9764 115.9 63.9827 115.995 63.9699C116.089 63.9571 116.18 63.9256 116.262 63.8771L126.917 57.6951C127.082 57.599 127.202 57.4415 127.25 57.2572C127.298 57.0729 127.272 56.8769 127.176 56.7122C127.08 56.5476 126.922 56.428 126.738 56.3795C126.554 56.331 126.358 56.3577 126.193 56.4538L115.538 62.6358C115.375 62.7309 115.256 62.8865 115.206 63.0687C115.157 63.251 115.181 63.4453 115.274 63.6098Z" fill="black"/>
<path d="M106.749 53.8821L112.904 43.1866C112.982 43.0505 113.014 42.8926 112.993 42.737C112.973 42.5813 112.903 42.4365 112.793 42.3248C112.683 42.213 112.539 42.1403 112.384 42.1179C112.228 42.0955 112.07 42.1245 111.933 42.2006C111.822 42.2616 111.731 42.3518 111.669 42.4614L105.528 53.1483C105.433 53.3137 105.407 53.5101 105.457 53.6944C105.506 53.8787 105.627 54.0357 105.793 54.131C105.958 54.2262 106.155 54.2519 106.339 54.2023C106.523 54.1527 106.68 54.032 106.775 53.8666L106.749 53.8821Z" fill="black"/>
<path d="M90.5448 126.508L95.2499 123.206C95.3711 123.122 95.5149 123.077 95.6622 123.077C95.8095 123.077 95.9534 123.122 96.0746 123.206L100.366 126.217L104.657 123.206C104.778 123.122 104.923 123.077 105.071 123.077C105.218 123.077 105.363 123.122 105.485 123.206L109.776 126.217L114.067 123.206C114.188 123.122 114.332 123.077 114.479 123.077C114.626 123.077 114.77 123.122 114.891 123.206L119.182 126.217L123.473 123.206C123.595 123.122 123.739 123.077 123.887 123.077C124.035 123.077 124.179 123.122 124.301 123.206L128.592 126.217L132.883 123.206C133.004 123.122 133.148 123.077 133.296 123.077C133.443 123.077 133.587 123.122 133.708 123.206L138.413 126.508C138.497 126.559 138.569 126.627 138.625 126.707C138.682 126.788 138.721 126.879 138.741 126.975C138.76 127.071 138.76 127.17 138.74 127.266C138.721 127.362 138.681 127.453 138.625 127.533C138.568 127.613 138.496 127.681 138.413 127.733C138.329 127.784 138.236 127.818 138.139 127.831C138.042 127.845 137.943 127.839 137.848 127.813C137.753 127.788 137.665 127.743 137.588 127.681L133.297 124.687L128.996 127.681C128.875 127.767 128.731 127.812 128.584 127.812C128.436 127.812 128.292 127.767 128.171 127.681L123.887 124.687L119.596 127.695C119.476 127.78 119.332 127.826 119.184 127.826C119.036 127.826 118.892 127.78 118.772 127.695L114.477 124.687L110.176 127.681C110.055 127.767 109.911 127.812 109.764 127.812C109.616 127.812 109.472 127.767 109.351 127.681L105.071 124.687L100.78 127.695C100.659 127.78 100.515 127.826 100.367 127.826C100.22 127.826 100.076 127.78 99.9549 127.695L95.6605 124.687L91.3558 127.681C91.2 127.777 91.0135 127.81 90.8344 127.773C90.6553 127.736 90.4969 127.632 90.3918 127.482C90.2866 127.333 90.2426 127.148 90.2685 126.967C90.2944 126.786 90.3882 126.622 90.5311 126.508H90.5448Z" fill="#2B68E8"/>
<path d="M73.314 5.88379H92.881C93.1122 5.88379 93.3411 5.92933 93.5547 6.01779C93.7682 6.10625 93.9623 6.23591 94.1257 6.39937C94.2892 6.56283 94.4189 6.75689 94.5073 6.97046C94.5958 7.18403 94.6413 7.41293 94.6413 7.6441V27.222C94.6413 27.4532 94.5958 27.682 94.5073 27.8956C94.4189 28.1092 94.2892 28.3032 94.1257 28.4667C93.9623 28.6302 93.7682 28.7598 93.5547 28.8483C93.3411 28.9368 93.1122 28.9823 92.881 28.9823H73.3177C72.8505 28.9823 72.4024 28.7969 72.0717 28.4669C71.741 28.1369 71.5547 27.6892 71.5537 27.222V7.65501C71.5523 7.42293 71.5968 7.19285 71.6846 6.97801C71.7724 6.76318 71.9018 6.56784 72.0655 6.40322C72.2291 6.2386 72.4236 6.10797 72.6379 6.01882C72.8522 5.92968 73.082 5.88378 73.314 5.88379Z" fill="black"/>
<path d="M92.881 7.12402H73.3177C73.0284 7.12402 72.7939 7.3585 72.7939 7.64775V27.2111C72.7939 27.5003 73.0284 27.7348 73.3177 27.7348H92.881C93.1703 27.7348 93.4047 27.5003 93.4047 27.2111V7.64775C93.4047 7.3585 93.1703 7.12402 92.881 7.12402Z" fill="white"/>
<path d="M83.2429 24.0687C82.9865 24.0691 82.7332 24.0121 82.5016 23.9019C82.2701 23.7918 82.066 23.6313 81.9044 23.4322L75.9762 16.1873C75.7029 15.8308 75.5792 15.3818 75.6313 14.9356C75.6835 14.4894 75.9073 14.081 76.2555 13.7972C76.6037 13.5133 77.0489 13.3763 77.4965 13.4151C77.9441 13.4539 78.3588 13.6656 78.653 14.0051L83.1701 19.5297L94.5902 4.08706C94.8708 3.74097 95.2742 3.51643 95.7163 3.46016C96.1583 3.40388 96.605 3.5202 96.9634 3.78492C97.3219 4.04964 97.5644 4.44239 97.6406 4.88141C97.7168 5.32043 97.6208 5.77193 97.3726 6.14197L84.6432 23.374C84.4867 23.5859 84.2836 23.7591 84.0497 23.8802C83.8157 24.0012 83.5572 24.067 83.2939 24.0723L83.2429 24.0687Z" fill="#2B68E8"/>
<path d="M45.6268 45.538H45.5235C45.4295 45.5263 45.3364 45.5079 45.245 45.483C42.4942 44.7644 39.1692 42.8698 36.3909 40.4181C33.3375 37.7189 31.3501 34.7653 30.7931 32.097C30.5304 30.8558 30.6161 29.566 31.0409 28.3705C31.4657 27.175 32.213 26.1204 33.2 25.3232C34.4001 24.381 35.9337 24.2125 37.6323 24.8383C41.3871 26.2137 42.9103 32.3446 43.2851 34.191C43.2851 34.2392 44.3475 39.1631 48.2605 38.4994C48.4983 38.469 48.7387 38.5318 48.9313 38.6746C49.1238 38.8174 49.2538 39.0291 49.2937 39.2655C49.3337 39.5019 49.2807 39.7445 49.1458 39.9427C49.0109 40.1409 48.8047 40.2792 48.5701 40.3287C47.6273 40.5117 46.6526 40.4406 45.7463 40.1228C44.84 39.805 44.0345 39.2518 43.4124 38.5201C42.4381 37.3861 41.7651 36.025 41.4558 34.5624C40.7681 31.2511 39.2482 27.4138 36.9857 26.5817C35.8923 26.1794 35.0259 26.2378 34.3382 26.7845C33.6208 27.3662 33.0782 28.1349 32.7706 29.0057C32.4629 29.8766 32.402 30.8155 32.5948 31.7188C33.6057 36.5876 40.6477 42.3781 45.7023 43.6881C45.948 43.7166 46.1727 43.841 46.3272 44.0342C46.4817 44.2273 46.5536 44.4737 46.5275 44.7197C46.5018 44.942 46.3963 45.1474 46.2307 45.2979C46.065 45.4484 45.8505 45.5337 45.6268 45.538Z" fill="#2B68E8"/>
<path d="M41.2739 48.0382C41.1564 48.0389 41.0399 48.0179 40.93 47.9764C39.1626 47.2887 35.958 45.7035 34.3969 42.7361C34.3373 42.628 34.3 42.509 34.2869 42.3862C34.2739 42.2634 34.2855 42.1393 34.321 42.0211C34.3565 41.9028 34.4154 41.7928 34.4939 41.6976C34.5725 41.6023 34.6692 41.5237 34.7785 41.4663C34.8878 41.4089 35.0074 41.3739 35.1304 41.3633C35.2534 41.3527 35.3774 41.3668 35.4949 41.4046C35.6124 41.4425 35.7213 41.5034 35.8149 41.5839C35.9086 41.6643 35.9852 41.7626 36.0404 41.873C37.3161 44.3006 40.067 45.6554 41.5937 46.2434C41.797 46.3215 41.9663 46.4686 42.072 46.6589C42.1778 46.8493 42.2132 47.0707 42.1723 47.2846C42.1313 47.4985 42.0165 47.6911 41.8479 47.8289C41.6793 47.9667 41.4676 48.0408 41.2499 48.0382H41.2739Z" fill="#2B68E8"/>
<path d="M33.4821 47.2578C33.3138 47.258 33.1488 47.2123 33.0046 47.1257C32.8604 47.0391 32.7425 46.9147 32.6637 46.7661C31.1474 43.9259 30.9652 40.6353 30.9927 38.9264C30.9963 38.6825 31.0957 38.4499 31.2694 38.2788C31.4431 38.1076 31.6771 38.0117 31.921 38.0117C32.0429 38.0135 32.1633 38.0393 32.2752 38.0876C32.3872 38.1359 32.4886 38.2059 32.5736 38.2933C32.6585 38.3808 32.7254 38.4842 32.7704 38.5975C32.8153 38.7109 32.8375 38.8319 32.8357 38.9539C32.8116 40.484 32.9698 43.4239 34.2868 45.8927C34.3445 46.0001 34.3803 46.1179 34.3924 46.2392C34.4044 46.3605 34.3923 46.483 34.3568 46.5996C34.3213 46.7163 34.2632 46.8247 34.1857 46.9188C34.1082 47.0129 34.0127 47.0907 33.905 47.1478C33.7751 47.2185 33.6299 47.2563 33.4821 47.2578Z" fill="#2B68E8"/>
<path d="M28.5856 46.0161C28.3561 46.0164 28.1347 45.9314 27.9644 45.7776C27.7941 45.6238 27.6871 45.4122 27.664 45.1839C27.0107 39.0566 28.1213 34.7447 28.4102 34.284C28.5359 34.0853 28.7323 33.9417 28.9598 33.8822C29.1873 33.8228 29.4289 33.8518 29.6358 33.9636C29.8427 34.0753 29.9995 34.2614 30.0745 34.4842C30.1495 34.7071 30.1373 34.9501 30.0401 35.1642C29.8234 35.7694 28.9397 39.6342 29.5105 44.9879C29.5244 45.1102 29.5139 45.2339 29.4796 45.3521C29.4454 45.4702 29.3881 45.5804 29.3111 45.6763C29.234 45.7722 29.1387 45.8519 29.0307 45.9108C28.9227 45.9697 28.8041 46.0067 28.6818 46.0195L28.5856 46.0161Z" fill="#2B68E8"/>
<path d="M24.5384 41.7907H24.5211C24.2746 41.7835 24.0409 41.6796 23.8704 41.5013C23.6999 41.3231 23.6063 41.0849 23.61 40.8383C23.61 40.3019 24.339 35.4536 26.072 30.8013C28.4617 24.3817 31.8177 20.8538 35.7788 20.5959C41.6861 20.2177 44.9079 26.2935 46.5756 31.4581C47.394 33.9854 49.0376 35.4777 50.8668 35.3436C51.1126 35.3258 51.3554 35.4064 51.5418 35.5676C51.7281 35.7288 51.8428 35.9574 51.8606 36.2032C51.8784 36.449 51.7978 36.6917 51.6366 36.8781C51.4754 37.0644 51.2467 37.1791 51.001 37.1969C48.2811 37.386 45.9051 35.4089 44.8117 32.0392C42.6798 25.4373 39.6815 22.2154 35.8992 22.4596C28.4652 22.941 25.5836 38.7821 25.4667 40.8967C25.4595 41.1375 25.3583 41.3659 25.1848 41.533C25.0113 41.7001 24.7793 41.7926 24.5384 41.7907Z" fill="#2B68E8"/>
<path d="M20.7529 37.2858C20.7083 37.2892 20.6636 37.2892 20.6189 37.2858C20.3755 37.2501 20.1561 37.1192 20.0091 36.922C19.8621 36.7247 19.7995 36.4771 19.8349 36.2336C20.5226 31.5607 22.6441 27.5652 24.4286 24.6081C26.7634 20.7295 30.1366 18.0166 33.6816 17.1638C36.8691 16.3936 39.6199 16.7684 42.0922 18.3054C44.757 19.9558 46.1737 22.5485 47.5422 25.0586C47.7244 25.4024 47.9033 25.7188 48.0855 26.0454L48.309 26.4408C50.0729 29.587 51.9228 29.7521 53.1641 29.6042C53.405 29.582 53.6451 29.6546 53.8332 29.8068C54.0213 29.9589 54.1427 30.1784 54.1713 30.4186C54.2 30.6588 54.1339 30.9008 53.9868 31.0929C53.8398 31.285 53.6236 31.4122 53.3843 31.4473C50.6335 31.7911 48.3984 30.3951 46.6894 27.3486L46.466 26.9532C46.2803 26.6093 46.0981 26.2861 45.9124 25.9457C44.6574 23.6522 43.361 21.2762 41.1157 19.8802C39.0835 18.6183 36.7935 18.3226 34.1183 18.969C31.0959 19.6945 28.07 22.1599 26.0172 25.564C24.3255 28.3733 22.3004 32.1556 21.6711 36.4984C21.6374 36.7177 21.5262 36.9177 21.3578 37.0621C21.1894 37.2066 20.9748 37.2859 20.7529 37.2858Z" fill="#2B68E8"/>
<path d="M53.704 28.1017C53.6071 28.102 53.5107 28.0869 53.4185 28.057C50.2654 27.0254 48.9486 24.3847 47.7932 22.0499C47.2964 21.0566 46.6995 20.1165 46.012 19.2441C44.9226 17.8602 43.5249 16.75 41.9303 16.002C40.3358 15.254 38.5885 14.8889 36.8279 14.9357C31.2163 15.0423 24.7314 19.3026 21.0557 25.289C20.9222 25.4881 20.7168 25.628 20.4826 25.6792C20.2484 25.7304 20.0035 25.689 19.7991 25.5637C19.5948 25.4384 19.4467 25.2389 19.3861 25.007C19.3255 24.775 19.357 24.5286 19.4739 24.3193C23.5245 17.7175 30.477 13.1993 36.7901 13.0789C38.8368 13.027 40.8674 13.4534 42.7203 14.3244C44.5732 15.1953 46.1972 16.4866 47.4631 18.0957C48.2309 19.068 48.8968 20.1165 49.4505 21.2247C50.7331 23.8105 51.7407 25.5606 53.986 26.2896C54.197 26.3575 54.3766 26.4987 54.4926 26.6876C54.6085 26.8764 54.653 27.1006 54.6181 27.3194C54.5833 27.5383 54.4713 27.7375 54.3023 27.8809C54.1334 28.0244 53.9187 28.1027 53.6971 28.1017H53.704Z" fill="#2B68E8"/>
<path d="M27.2896 14.4336C27.0861 14.4371 26.887 14.3736 26.7231 14.2529C26.5592 14.1322 26.4395 13.961 26.3824 13.7656C26.3254 13.5702 26.3341 13.3615 26.4073 13.1715C26.4805 12.9816 26.6141 12.821 26.7876 12.7144C29.622 10.8861 32.8745 9.80822 36.2399 9.58192C36.4856 9.56642 36.7275 9.64919 36.9123 9.81201C37.097 9.97483 37.2096 10.2044 37.2251 10.4501C37.2406 10.6959 37.1577 10.9378 36.9949 11.1225C36.8321 11.3073 36.6027 11.4198 36.3569 11.4353C33.3064 11.6421 30.3581 12.6193 27.7881 14.2754C27.6408 14.3756 27.4676 14.4306 27.2896 14.4336Z" fill="#2B68E8"/>
<path d="M52.5763 22.1734C52.3719 22.1735 52.1731 22.1062 52.0108 21.9819C51.8486 21.8576 51.7318 21.6831 51.6787 21.4857C50.4271 16.6924 45.6822 12.3221 41.0987 11.7445C40.9777 11.7291 40.8608 11.6901 40.7549 11.6296C40.6489 11.5691 40.5559 11.4883 40.4812 11.3919C40.4065 11.2955 40.3516 11.1853 40.3195 11.0676C40.2874 10.9499 40.2786 10.8271 40.294 10.706C40.3093 10.585 40.3483 10.4682 40.4088 10.3623C40.4693 10.2564 40.5501 10.1634 40.6466 10.0887C40.743 10.014 40.8533 9.95897 40.9709 9.92684C41.0886 9.89472 41.2114 9.88607 41.3324 9.90143C46.6036 10.5651 52.0503 15.5543 53.4772 21.018C53.5078 21.1361 53.5146 21.2591 53.4976 21.3798C53.4805 21.5006 53.44 21.6168 53.378 21.7219C53.3161 21.8269 53.234 21.9188 53.1366 21.9921C53.0391 22.0654 52.9281 22.1189 52.81 22.1493C52.7338 22.1693 52.655 22.1774 52.5763 22.1734Z" fill="#2B68E8"/>
<path d="M15.8668 15.0713C15.6205 15.0713 15.3844 14.9735 15.2103 14.7994C15.0362 14.6252 14.9385 14.3891 14.9385 14.1429V6.83611C14.9385 6.58988 15.0362 6.35375 15.2103 6.17964C15.3844 6.00553 15.6205 5.90771 15.8668 5.90771H23.1735C23.2955 5.90771 23.4162 5.93173 23.5288 5.97839C23.6414 6.02504 23.7438 6.09343 23.83 6.17964C23.9162 6.26585 23.9847 6.3682 24.0313 6.48083C24.078 6.59347 24.102 6.71419 24.102 6.83611C24.102 6.95803 24.078 7.07875 24.0313 7.19138C23.9847 7.30402 23.9162 7.40637 23.83 7.49258C23.7438 7.57879 23.6414 7.64717 23.5288 7.69383C23.4162 7.74049 23.2955 7.7645 23.1735 7.7645H16.7952V14.1429C16.7952 14.3891 16.6973 14.6252 16.5232 14.7994C16.3491 14.9735 16.113 15.0713 15.8668 15.0713Z" fill="black"/>
<path d="M58.8099 15.0713C58.5637 15.0713 58.3275 14.9735 58.1534 14.7994C57.9793 14.6252 57.8814 14.3891 57.8814 14.1429V7.7645H51.4997C51.3778 7.7645 51.257 7.74049 51.1443 7.69383C51.0317 7.64717 50.9295 7.57879 50.8433 7.49258C50.7571 7.40637 50.6886 7.30402 50.642 7.19138C50.5953 7.07875 50.5713 6.95803 50.5713 6.83611C50.5713 6.71419 50.5953 6.59347 50.642 6.48083C50.6886 6.3682 50.7571 6.26585 50.8433 6.17964C50.9295 6.09343 51.0317 6.02504 51.1443 5.97839C51.257 5.93173 51.3778 5.90771 51.4997 5.90771H58.8099C59.0561 5.90771 59.2922 6.00553 59.4663 6.17964C59.6405 6.35375 59.7383 6.58988 59.7383 6.83611V14.1429C59.7383 14.3891 59.6405 14.6252 59.4663 14.7994C59.2922 14.9735 59.0561 15.0713 58.8099 15.0713Z" fill="black"/>
<path d="M58.8099 50.9204H51.4997C51.2535 50.9204 51.0174 50.8226 50.8433 50.6485C50.6692 50.4744 50.5713 50.2382 50.5713 49.992C50.5713 49.7458 50.6692 49.5096 50.8433 49.3355C51.0174 49.1614 51.2535 49.0636 51.4997 49.0636H57.8814V42.6852C57.8814 42.5633 57.9054 42.4426 57.9521 42.3299C57.9988 42.2173 58.0672 42.115 58.1534 42.0288C58.2396 41.9425 58.342 41.8742 58.4546 41.8275C58.5673 41.7809 58.688 41.7568 58.8099 41.7568C58.9318 41.7568 59.0525 41.7809 59.1651 41.8275C59.2778 41.8742 59.3801 41.9425 59.4663 42.0288C59.5526 42.115 59.621 42.2173 59.6677 42.3299C59.7143 42.4426 59.7383 42.5633 59.7383 42.6852V49.992C59.7383 50.2382 59.6405 50.4744 59.4663 50.6485C59.2922 50.8226 59.0561 50.9204 58.8099 50.9204Z" fill="black"/>
<path d="M23.1735 50.9204H15.8668C15.6205 50.9204 15.3844 50.8226 15.2103 50.6485C15.0362 50.4744 14.9385 50.2382 14.9385 49.992V42.6852C14.9385 42.439 15.0362 42.2029 15.2103 42.0288C15.3844 41.8547 15.6205 41.7568 15.8668 41.7568C16.113 41.7568 16.3491 41.8547 16.5232 42.0288C16.6973 42.2029 16.7952 42.439 16.7952 42.6852V49.0636H23.1735C23.4198 49.0636 23.6559 49.1614 23.83 49.3355C24.0041 49.5096 24.102 49.7458 24.102 49.992C24.102 50.2382 24.0041 50.4744 23.83 50.6485C23.6559 50.8226 23.4198 50.9204 23.1735 50.9204Z" fill="black"/>
</svg>
