<svg viewBox="0 0 192 192" fill="none" xmlns="http://www.w3.org/2000/svg">
<path d="M55.8005 100.85H30.2948C29.8128 100.825 29.3588 100.616 29.0264 100.266C28.6941 99.9161 28.5088 99.4518 28.5088 98.9692C28.5088 98.4866 28.6941 98.0223 29.0264 97.6724C29.3588 97.3224 29.8128 97.1133 30.2948 97.0884H55.8005C56.2825 97.1133 56.7365 97.3224 57.0688 97.6724C57.4012 98.0223 57.5865 98.4866 57.5865 98.9692C57.5865 99.4518 57.4012 99.9161 57.0688 100.266C56.7365 100.616 56.2825 100.825 55.8005 100.85Z" fill="black"/>
<path d="M55.8005 111.818H30.2948C29.8128 111.793 29.3588 111.584 29.0264 111.234C28.6941 110.884 28.5088 110.42 28.5088 109.937C28.5088 109.454 28.6941 108.99 29.0264 108.64C29.3588 108.29 29.8128 108.081 30.2948 108.056H55.8005C56.2825 108.081 56.7365 108.29 57.0688 108.64C57.4012 108.99 57.5865 109.454 57.5865 109.937C57.5865 110.42 57.4012 110.884 57.0688 111.234C56.7365 111.584 56.2825 111.793 55.8005 111.818Z" fill="black"/>
<path d="M55.8 122.771H30.2943C29.7962 122.771 29.3184 122.573 28.9662 122.221C28.6139 121.868 28.416 121.391 28.416 120.892C28.416 120.394 28.6139 119.917 28.9662 119.564C29.3184 119.212 29.7962 119.014 30.2943 119.014H55.8C56.2982 119.014 56.7759 119.212 57.1282 119.564C57.4804 119.917 57.6783 120.394 57.6783 120.892C57.6783 121.391 57.4804 121.868 57.1282 122.221C56.7759 122.573 56.2982 122.771 55.8 122.771Z" fill="black"/>
<path d="M139.145 76.4067H20.6708C20.4838 76.4067 20.3045 76.481 20.1723 76.6132C20.0401 76.7454 19.9658 76.9248 19.9658 77.1117C19.9658 77.2987 20.0401 77.478 20.1723 77.6102C20.3045 77.7424 20.4838 77.8167 20.6708 77.8167H139.145C139.332 77.8167 139.511 77.7424 139.644 77.6102C139.776 77.478 139.85 77.2987 139.85 77.1117C139.85 76.9248 139.776 76.7454 139.644 76.6132C139.511 76.481 139.332 76.4067 139.145 76.4067Z" fill="black"/>
<path d="M31.8861 66.1647C31.8861 67.0793 31.6149 67.9732 31.1067 68.7335C30.5985 69.4938 29.8763 70.0864 29.0313 70.4361C28.1863 70.7858 27.2565 70.8771 26.3597 70.6983C25.4628 70.5195 24.6391 70.0787 23.9928 69.4317C23.3465 68.7847 22.9066 67.9606 22.7288 67.0635C22.551 66.1664 22.6433 65.2368 22.994 64.3922C23.3446 63.5476 23.9379 62.826 24.6988 62.3186C25.4596 61.8113 26.3539 61.541 27.2684 61.542C28.4936 61.5433 29.6681 62.031 30.5339 62.8977C31.3998 63.7645 31.8861 64.9396 31.8861 66.1647Z" fill="black"/>
<path d="M44.1625 66.1647C44.1625 67.079 43.8914 67.9728 43.3834 68.733C42.8755 69.4932 42.1535 70.0857 41.3088 70.4356C40.4641 70.7855 39.5346 70.877 38.6379 70.6987C37.7412 70.5203 36.9175 70.08 36.271 69.4335C35.6245 68.787 35.1842 67.9633 35.0058 67.0666C34.8274 66.1699 34.919 65.2404 35.2689 64.3957C35.6188 63.551 36.2113 62.829 36.9715 62.3211C37.7317 61.8131 38.6254 61.542 39.5397 61.542C40.7658 61.542 41.9416 62.029 42.8085 62.896C43.6755 63.7629 44.1625 64.9387 44.1625 66.1647Z" fill="black"/>
<path d="M56.435 66.1647C56.435 67.0793 56.1637 67.9732 55.6555 68.7335C55.1474 69.4938 54.4251 70.0864 53.5801 70.4361C52.7351 70.7858 51.8054 70.8771 50.9085 70.6983C50.0116 70.5195 49.188 70.0787 48.5416 69.4317C47.8953 68.7847 47.4555 67.9606 47.2777 67.0635C47.0999 66.1664 47.1921 65.2368 47.5428 64.3922C47.8934 63.5476 48.4867 62.826 49.2476 62.3186C50.0085 61.8113 50.9027 61.541 51.8172 61.542C52.4241 61.542 53.0249 61.6616 53.5855 61.894C54.1461 62.1264 54.6554 62.4669 55.0842 62.8963C55.5131 63.3256 55.8531 63.8352 56.0849 64.3961C56.3167 64.9569 56.4356 65.5579 56.435 66.1647Z" fill="black"/>
<path d="M10.2119 139.846V62.6241C10.2146 59.4939 11.4589 56.4927 13.6718 54.2788C15.8846 52.065 18.8854 50.8194 22.0155 50.8154H136.476C139.607 50.8194 142.607 52.065 144.82 54.2788C147.033 56.4927 148.277 59.4939 148.28 62.6241V139.846C148.277 142.976 147.033 145.977 144.82 148.19C142.607 150.403 139.606 151.647 136.476 151.65H22.0155C18.8858 151.647 15.8851 150.403 13.6721 148.19C11.459 145.977 10.2146 142.976 10.2119 139.846ZM22.0155 54.3908C19.8331 54.3948 17.7413 55.2635 16.1981 56.8067C14.6549 58.3498 13.7862 60.4417 13.7822 62.6241V139.846C13.7849 142.029 14.6532 144.122 16.1966 145.665C17.7401 147.209 19.8327 148.077 22.0155 148.079H136.476C138.659 148.077 140.752 147.209 142.295 145.665C143.839 144.122 144.707 142.029 144.71 139.846V62.6241C144.706 60.4417 143.837 58.3498 142.294 56.8067C140.751 55.2635 138.659 54.3948 136.476 54.3908H22.0155Z" fill="black"/>
<path d="M34.6504 157.623V164.3C34.6531 167.43 35.8973 170.431 38.1102 172.645C40.3231 174.859 43.3239 176.105 46.454 176.109H180.197C183.327 176.105 186.327 174.859 188.54 172.645C190.753 170.431 191.997 167.43 192 164.3V157.623H34.6504Z" fill="black"/>
<path d="M142.535 167.945H116.143C115.595 167.919 115.079 167.683 114.7 167.286C114.322 166.888 114.111 166.361 114.111 165.813C114.111 165.265 114.322 164.737 114.7 164.34C115.079 163.943 115.595 163.707 116.143 163.68H142.53C142.819 163.666 143.107 163.711 143.378 163.812C143.649 163.913 143.897 164.067 144.106 164.267C144.315 164.466 144.482 164.706 144.596 164.972C144.71 165.238 144.769 165.524 144.769 165.813C144.769 166.102 144.71 166.388 144.596 166.654C144.482 166.92 144.315 167.159 144.106 167.359C143.897 167.558 143.649 167.713 143.378 167.814C143.107 167.915 142.819 167.96 142.53 167.945H142.535Z" fill="white"/>
<path d="M144.71 133.199V139.846C144.707 142.029 143.839 144.122 142.295 145.665C140.752 147.209 138.659 148.077 136.476 148.08H22.0155C19.8327 148.077 17.7401 147.209 16.1966 145.665C14.6532 144.122 13.7849 142.029 13.7822 139.846V133.199H10.2119V139.846C10.2146 142.976 11.459 145.977 13.6721 148.19C15.8851 150.403 18.8858 151.647 22.0155 151.65H136.476C139.606 151.647 142.607 150.403 144.82 148.19C147.033 145.977 148.277 142.976 148.28 139.846V133.199H144.71Z" fill="black"/>
<path d="M2.11498 117.971V110.317C2.11498 110.037 2.00357 109.768 1.80525 109.57C1.60693 109.371 1.33796 109.26 1.05749 109.26C0.777028 109.26 0.50805 109.371 0.309732 109.57C0.111414 109.768 0 110.037 0 110.317V117.971C0 118.252 0.111414 118.521 0.309732 118.719C0.50805 118.918 0.777028 119.029 1.05749 119.029C1.33796 119.029 1.60693 118.918 1.80525 118.719C2.00357 118.521 2.11498 118.252 2.11498 117.971Z" fill="black"/>
<path d="M2.11498 103.735V99.5809C2.11498 99.3005 2.00357 99.0315 1.80525 98.8332C1.60693 98.6348 1.33796 98.5234 1.05749 98.5234C0.777028 98.5234 0.50805 98.6348 0.309732 98.8332C0.111414 99.0315 0 99.3005 0 99.5809V103.735C0 104.016 0.111414 104.285 0.309732 104.483C0.50805 104.681 0.777028 104.793 1.05749 104.793C1.33796 104.793 1.60693 104.681 1.80525 104.483C2.00357 104.285 2.11498 104.016 2.11498 103.735Z" fill="black"/>
<path d="M2.11498 93.8003V91.9471C2.11498 91.6667 2.00357 91.3977 1.80525 91.1994C1.60693 91.0011 1.33796 90.8896 1.05749 90.8896C0.777028 90.8896 0.50805 91.0011 0.309732 91.1994C0.111414 91.3977 0 91.6667 0 91.9471V93.8003C0 94.0807 0.111414 94.3497 0.309732 94.548C0.50805 94.7463 0.777028 94.8578 1.05749 94.8578C1.33796 94.8578 1.60693 94.7463 1.80525 94.548C2.00357 94.3497 2.11498 94.0807 2.11498 93.8003Z" fill="black"/>
<path d="M2.11498 87.0626V86.0907C2.11498 85.8102 2.00357 85.5413 1.80525 85.3429C1.60693 85.1446 1.33796 85.0332 1.05749 85.0332C0.777028 85.0332 0.50805 85.1446 0.309732 85.3429C0.111414 85.5413 0 85.8102 0 86.0907V87.0626C0 87.343 0.111414 87.612 0.309732 87.8103C0.50805 88.0087 0.777028 88.1201 1.05749 88.1201C1.33796 88.1201 1.60693 88.0087 1.80525 87.8103C2.00357 87.612 2.11498 87.343 2.11498 87.0626Z" fill="black"/>
<path d="M2.11498 81.4776V80.974C2.11498 80.6935 2.00357 80.4246 1.80525 80.2262C1.60693 80.0279 1.33796 79.9165 1.05749 79.9165C0.777028 79.9165 0.50805 80.0279 0.309732 80.2262C0.111414 80.4246 0 80.6935 0 80.974V81.4776C0 81.758 0.111414 82.027 0.309732 82.2253C0.50805 82.4236 0.777028 82.5351 1.05749 82.5351C1.33796 82.5351 1.60693 82.4236 1.80525 82.2253C2.00357 82.027 2.11498 81.758 2.11498 81.4776Z" fill="black"/>
<path d="M108.126 134.191H102.728V128.793C102.728 128.654 102.701 128.516 102.647 128.388C102.594 128.26 102.516 128.143 102.418 128.045C102.32 127.947 102.203 127.869 102.075 127.816C101.947 127.763 101.809 127.735 101.67 127.735C101.532 127.735 101.394 127.763 101.266 127.816C101.137 127.869 101.021 127.947 100.923 128.045C100.824 128.143 100.747 128.26 100.693 128.388C100.64 128.516 100.613 128.654 100.613 128.793V134.191H95.2147C94.9343 134.191 94.6653 134.302 94.467 134.501C94.2686 134.699 94.1572 134.968 94.1572 135.249C94.1572 135.529 94.2686 135.798 94.467 135.996C94.6653 136.195 94.9343 136.306 95.2147 136.306H100.613V141.704C100.613 141.985 100.724 142.254 100.923 142.452C101.121 142.65 101.39 142.762 101.67 142.762C101.951 142.762 102.22 142.65 102.418 142.452C102.617 142.254 102.728 141.985 102.728 141.704V136.306H108.126C108.407 136.306 108.676 136.195 108.874 135.996C109.072 135.798 109.184 135.529 109.184 135.249C109.184 134.968 109.072 134.699 108.874 134.501C108.676 134.302 108.407 134.191 108.126 134.191Z" fill="#2B68E8"/>
<path d="M60.4991 33.6691C60.3702 33.9182 60.3456 34.2083 60.4306 34.4755C60.5156 34.7428 60.7033 34.9653 60.9523 35.0942L77.0665 43.4383C77.1894 43.503 77.3238 43.5427 77.4622 43.5552C77.6005 43.5676 77.7399 43.5526 77.8723 43.5109C78.0048 43.4693 78.1277 43.4018 78.234 43.3124C78.3403 43.223 78.4278 43.1135 78.4916 42.9901C78.5215 42.9342 78.5452 42.8751 78.5621 42.8139C78.6376 42.579 78.6286 42.325 78.5367 42.096C78.4447 41.867 78.2756 41.6774 78.0585 41.56L61.9443 33.2159C61.8202 33.1482 61.6838 33.1062 61.5431 33.0924C61.4024 33.0786 61.2604 33.0933 61.1255 33.1356C60.9906 33.1779 60.8656 33.247 60.758 33.3386C60.6504 33.4303 60.5623 33.5427 60.4991 33.6691Z" fill="black"/>
<path d="M109.682 2.21658C109.544 2.2224 109.407 2.25559 109.282 2.31425C109.156 2.37291 109.043 2.45589 108.949 2.55839C108.856 2.6609 108.783 2.78091 108.736 2.91151C108.689 3.04212 108.668 3.18074 108.675 3.31939L109.496 21.4478C109.508 21.6956 109.607 21.9313 109.775 22.1136C109.943 22.2959 110.17 22.4132 110.417 22.445C110.663 22.4768 110.912 22.4211 111.121 22.2876C111.33 22.1541 111.486 21.9513 111.561 21.7147C111.6 21.5982 111.617 21.4751 111.611 21.3521L110.785 3.22372C110.779 3.08502 110.746 2.94885 110.687 2.82303C110.629 2.69722 110.546 2.58425 110.443 2.49064C110.341 2.39703 110.221 2.32462 110.09 2.27759C109.959 2.23055 109.821 2.20982 109.682 2.21658Z" fill="black"/>
<path d="M80.8927 11.3508C80.7751 11.425 80.6735 11.5219 80.5935 11.6357C80.5136 11.7495 80.457 11.878 80.4271 12.0137C80.3971 12.1495 80.3943 12.2899 80.419 12.4268C80.4436 12.5636 80.495 12.6943 80.5704 12.8111L90.3396 28.0894C90.4139 28.2069 90.5107 28.3086 90.6245 28.3885C90.7383 28.4684 90.8668 28.525 91.0026 28.555C91.1384 28.585 91.2788 28.5877 91.4156 28.5631C91.5525 28.5385 91.6831 28.487 91.8 28.4116C92.0072 28.277 92.1578 28.0709 92.223 27.8325C92.2699 27.6854 92.2838 27.5297 92.2638 27.3765C92.2438 27.2233 92.1903 27.0764 92.1072 26.9463L82.3379 11.668C82.1864 11.4366 81.9502 11.2738 81.6801 11.2145C81.4099 11.1552 81.1272 11.2041 80.8927 11.3508Z" fill="black"/>
<path d="M171.248 57.6893C174.992 66.7247 175.973 76.6674 174.066 86.2601C172.159 95.8528 167.45 104.665 160.535 111.581C153.621 118.498 144.81 123.209 135.218 125.118C125.625 127.027 115.682 126.049 106.646 122.307C97.6098 118.565 89.886 112.228 84.4513 104.097C79.0167 95.9653 76.1154 86.4049 76.1143 76.6245C76.1131 66.8441 79.0123 57.283 84.445 49.1503C89.8778 41.0176 97.6002 34.6786 106.636 30.9348C118.752 25.9145 132.366 25.913 144.483 30.9304C156.6 35.9478 166.228 45.5733 171.248 57.6893Z" fill="#2B68E8"/>
<path d="M106.277 117.382L72.8857 134.669L90.1732 101.278L106.277 117.382Z" fill="#2B68E8"/>
<path d="M101.977 56.5614C105.81 54.4054 110.283 53.6776 114.601 54.5074C118.919 55.3371 122.804 57.6707 125.564 61.0935C128.325 57.6707 132.209 55.3371 136.528 54.5074C140.846 53.6776 145.319 54.4054 149.151 56.5614C158.1 61.5971 160.134 72.3785 156.237 81.8758C151.201 94.1729 140.148 102.321 125.564 112.83C110.961 102.321 99.9378 94.1981 94.8921 81.8758C90.9945 72.3785 93.0289 61.5719 101.977 56.5614Z" fill="white"/>
<path d="M125.564 115.006L124.557 114.26C110.648 104.239 98.6332 95.5779 93.2853 82.5355C88.7532 71.457 91.9811 60.167 101.136 55.0155C105.023 52.8261 109.522 51.9748 113.94 52.5926C118.359 53.2104 122.452 55.2631 125.589 58.4348C128.726 55.2705 132.815 53.2233 137.228 52.6074C141.641 51.9915 146.134 52.8411 150.017 55.0256C159.172 60.1771 162.405 71.4923 157.868 82.5456C152.52 95.5779 140.505 104.239 126.596 114.27L125.564 115.006ZM111.076 55.932C108.191 55.9344 105.356 56.6802 102.843 58.0974C100.972 59.1308 99.3364 60.5432 98.0419 62.2444C96.7473 63.9456 95.8219 65.8982 95.3248 67.9774C94.2874 72.0915 94.7104 76.7948 96.5233 81.2061C98.7541 86.6496 102.355 91.5846 107.859 96.7411C112.607 101.188 118.232 105.367 125.564 110.66C132.896 105.367 138.521 101.188 143.274 96.7411C148.773 91.5846 152.399 86.6496 154.61 81.2111C156.418 76.7999 156.841 72.0965 155.803 67.9824C155.306 65.9032 154.381 63.9507 153.086 62.2494C151.792 60.5482 150.156 59.1358 148.285 58.1024C144.817 56.1486 140.769 55.4883 136.86 56.2389C132.952 56.9895 129.436 59.1023 126.939 62.2014L125.564 63.9085L124.199 62.1964C122.624 60.2325 120.626 58.6493 118.354 57.5647C116.082 56.4801 113.594 55.922 111.076 55.932Z" fill="black"/>
<path d="M181.893 187.489L174.969 182.635C174.791 182.511 174.579 182.445 174.362 182.445C174.146 182.445 173.934 182.511 173.756 182.635L167.441 187.066L161.121 182.635C160.943 182.511 160.731 182.445 160.514 182.445C160.298 182.445 160.086 182.511 159.908 182.635L153.593 187.066L147.278 182.635C147.1 182.511 146.888 182.445 146.671 182.445C146.454 182.445 146.243 182.511 146.064 182.635L139.745 187.066L133.43 182.635C133.252 182.511 133.04 182.445 132.823 182.445C132.606 182.445 132.395 182.511 132.216 182.635L125.902 187.066L119.582 182.635C119.403 182.511 119.192 182.445 118.975 182.445C118.758 182.445 118.547 182.511 118.368 182.635L111.444 187.489C111.261 187.619 111.124 187.804 111.052 188.017C110.981 188.23 110.979 188.461 111.046 188.675C111.114 188.89 111.248 189.077 111.429 189.21C111.61 189.344 111.829 189.416 112.053 189.418C112.272 189.417 112.485 189.348 112.663 189.221L118.978 184.795L125.292 189.221C125.47 189.346 125.682 189.414 125.899 189.414C126.116 189.414 126.328 189.346 126.506 189.221L132.826 184.795L139.14 189.221C139.318 189.346 139.53 189.414 139.747 189.414C139.964 189.414 140.176 189.346 140.354 189.221L146.669 184.795L152.983 189.221C153.161 189.346 153.373 189.414 153.59 189.414C153.808 189.414 154.02 189.346 154.197 189.221L160.517 184.795L166.832 189.221C167.009 189.346 167.221 189.414 167.438 189.414C167.656 189.414 167.868 189.346 168.045 189.221L174.36 184.795L180.68 189.221C180.909 189.382 181.194 189.445 181.47 189.397C181.746 189.348 181.992 189.192 182.153 188.962C182.314 188.732 182.377 188.448 182.328 188.172C182.279 187.895 182.123 187.65 181.893 187.489Z" fill="#2B68E8"/>
<path d="M161.862 121.234C161.645 121.234 161.433 121.168 161.255 121.043C161.077 120.919 160.941 120.743 160.867 120.538C160.793 120.334 160.783 120.112 160.84 119.903C160.896 119.693 161.015 119.506 161.182 119.366C169.584 112.36 175.735 103.033 178.865 92.5505C181.996 82.0679 181.967 70.8952 178.782 60.4291C175.597 49.9631 169.398 40.668 160.959 33.7061C152.52 26.7441 142.216 22.4241 131.335 21.2863C131.197 21.272 131.063 21.2307 130.941 21.1647C130.819 21.0987 130.711 21.0092 130.623 20.9014C130.446 20.6838 130.363 20.4047 130.391 20.1255C130.42 19.8464 130.558 19.5901 130.776 19.413C130.994 19.236 131.273 19.1526 131.552 19.1813C142.845 20.3656 153.538 24.8516 162.296 32.0786C171.054 39.3057 177.487 48.9533 180.793 59.8161C184.099 70.6788 184.13 82.2749 180.883 93.1554C177.636 104.036 171.255 113.718 162.537 120.993C162.346 121.149 162.108 121.234 161.862 121.234Z" fill="#2B68E8"/>
<path d="M42.7825 139.539C42.7825 139.564 44.409 141.846 46.8815 141.961C48.3922 142.032 49.7468 141.312 50.9755 139.821C52.4862 137.963 53.4934 137.606 53.9969 137.631C54.7926 137.666 55.5076 138.638 56.122 139.539C56.122 139.539 57.7485 141.846 60.221 141.961C61.7317 142.032 63.0914 141.312 64.315 139.821C65.2365 138.703 66.153 138.149 67.0494 138.165C68.4241 138.195 69.4816 139.554 69.5018 139.58C69.6694 139.805 69.9195 139.954 70.1972 139.994C70.4748 140.035 70.7572 139.964 70.9823 139.796C71.2073 139.628 71.3565 139.378 71.3971 139.101C71.4377 138.823 71.3664 138.541 71.1988 138.316C71.1283 138.225 69.532 136.11 67.1098 136.05C65.5286 136.014 64.0381 136.83 62.6835 138.477C61.913 139.413 61.1325 139.872 60.357 139.851C59.2088 139.821 58.1514 138.734 57.8391 138.341C57.1442 137.334 55.986 135.601 54.0725 135.511C52.5618 135.44 51.0057 136.412 49.3087 138.472C48.5383 139.408 47.7577 139.867 46.9822 139.846C45.8291 139.816 44.7766 138.729 44.4644 138.336C43.7695 137.329 42.6113 135.596 40.6977 135.506C39.187 135.435 37.631 136.407 35.934 138.467C35.1635 139.403 34.383 139.862 33.6075 139.841C32.4543 139.811 31.4019 138.723 31.0896 138.331C30.3947 137.324 29.2365 135.591 27.323 135.501C25.8123 135.43 24.2562 136.402 22.5592 138.462C22.3998 138.648 22.3138 138.886 22.3175 139.131C22.3171 139.349 22.3841 139.562 22.5092 139.74C22.6343 139.919 22.8116 140.054 23.0166 140.128C23.2216 140.202 23.4445 140.211 23.6547 140.153C23.8649 140.095 24.0521 139.974 24.1908 139.806C25.7015 137.948 26.7086 137.59 27.2122 137.616C28.0078 137.651 28.7229 138.623 29.3372 139.524C29.3372 139.524 30.9587 141.83 33.4363 141.946C34.947 142.017 36.3016 141.297 37.5303 139.806C39.041 137.948 40.0481 137.59 40.5517 137.616C41.4531 137.666 42.1681 138.618 42.7825 139.539Z" fill="#2B68E8"/>
</svg>
