<svg width="96" height="96" viewBox="0 0 96 96" fill="none" xmlns="http://www.w3.org/2000/svg">
<rect width="96" height="96" fill="white"/>
<g clip-path="url(#clip0_158_13475)">
<path d="M82.3312 62.9427L78.3804 59.915C77.798 59.3977 77.1587 58.948 76.4751 58.5747C76.3819 58.5288 76.2841 58.4929 76.1834 58.4676C75.8128 58.3613 75.4211 58.3525 75.0461 58.4418C74.8692 58.4802 74.6964 58.5345 74.5294 58.6042C73.1559 59.1728 72.0261 60.3765 70.9737 61.3919C70.095 62.2412 68.607 63.4116 68.6808 64.7777C68.6883 64.823 68.6883 64.8691 68.6808 64.9144C69.1055 64.4417 69.4745 63.8473 69.9212 63.3304C71.3169 61.691 73.285 60.7457 75.2087 59.8854C75.2852 59.8458 75.3714 59.829 75.4572 59.8369C75.5429 59.8447 75.6243 59.8769 75.6923 59.9297C75.7658 59.9862 75.8246 60.0598 75.8632 60.1441C75.9018 60.2284 75.9193 60.3209 75.914 60.4135C75.9111 60.5066 75.8813 60.597 75.8282 60.6736C75.7751 60.7503 75.7009 60.8099 75.6147 60.8455C74.0898 61.5396 72.5354 62.2485 71.2911 63.3968C70.7231 63.9054 70.2581 64.5184 69.9212 65.2024C69.7456 65.5415 69.6211 65.9049 69.552 66.2805C69.5188 66.5021 69.519 67.019 69.8661 66.9821C69.9258 66.9708 69.9869 66.9708 70.0467 66.9821C70.2498 65.9409 71.0843 65.1618 71.8117 64.4935C73.1676 63.2544 74.7692 62.3146 76.5122 61.7353C76.6894 61.6762 76.8814 61.6208 77.0513 61.5692C77.1523 61.5338 77.2613 61.5276 77.3657 61.5511C77.4701 61.5746 77.5657 61.6269 77.6419 61.7021C77.6798 61.7451 77.7109 61.7937 77.7342 61.8461C77.7467 61.882 77.7555 61.9191 77.7602 61.9568C77.7855 62.0731 77.769 62.1946 77.7137 62.3C77.6583 62.4053 77.5675 62.4878 77.4573 62.5328C77.2874 62.5808 77.1214 62.6289 76.959 62.6842C75.5674 63.1363 74.2679 63.8341 73.1224 64.7445C72.463 65.2397 71.8755 65.8236 71.3762 66.4799C71.2629 66.6129 71.1781 66.7677 71.1266 66.9346C71.0752 67.1016 71.0581 67.2773 71.0769 67.451C71.0907 67.5695 71.1431 67.6802 71.2258 67.7662C71.3085 67.8522 71.417 67.9088 71.5348 67.9273C71.6121 67.9327 71.6868 67.958 71.7515 68.0007C71.8162 68.0434 71.8687 68.102 71.904 68.171C72.1182 66.9341 73.2112 66.0479 74.2229 65.3501C75.2147 64.6617 76.2842 64.0929 77.4093 63.6553C77.7306 63.5298 78.0628 63.4116 78.3951 63.3119L78.4802 63.2824C79.1116 63.0867 79.5214 64.043 78.8826 64.2424C78.5134 64.3531 78.1919 64.4676 77.8633 64.5931C76.942 64.9436 76.0597 65.3891 75.2307 65.9224C74.459 66.4209 73.1892 67.1925 72.9418 68.1968C73.6271 68.0736 74.271 67.7832 74.8171 67.3513C75.5369 66.8267 76.3312 66.4123 77.1731 66.1218C77.6094 65.992 78.0619 65.9261 78.517 65.926C78.9372 65.9245 79.3555 65.9855 79.7578 66.107C80.464 66.3213 81.0693 66.7826 81.4633 67.4067C81.7734 67.9088 81.1569 68.4737 80.7692 68.1894C80.7171 68.1504 80.6733 68.1015 80.6401 68.0455C80.4684 67.7631 80.2356 67.5227 79.959 67.3419C79.6823 67.161 79.3689 67.0444 79.0413 67.0005C78.1975 66.908 77.3454 67.0728 76.5969 67.4731C75.2271 68.1673 74.0122 69.5113 72.3248 69.2159C72.2107 69.202 72.1042 69.1512 72.0216 69.0712C71.9389 68.9913 71.8849 68.8865 71.8673 68.7728C71.8112 68.8401 71.7393 68.8925 71.6581 68.9253C71.577 68.9582 71.4888 68.9705 71.4018 68.9612C71.1201 68.9297 70.853 68.82 70.6305 68.6444C70.4079 68.4689 70.2392 68.2345 70.143 67.9679C70.0986 67.988 70.0512 68.0004 70.0027 68.0048C69.7633 68.0355 69.5201 67.9989 69.3003 67.8991C69.0805 67.7993 68.8929 67.6403 68.7584 67.4399C68.6289 67.2365 68.5416 67.009 68.5016 66.7712C68.4617 66.5334 68.4699 66.2899 68.5258 66.0553C68.494 66.0507 68.463 66.042 68.4335 66.0294C68.3399 65.9944 68.2504 65.9485 68.1674 65.8928C68.1019 65.8518 68.0425 65.8021 67.9903 65.7451C67.9312 65.6941 67.8801 65.6343 67.8389 65.5679C67.7812 65.4887 67.7352 65.4017 67.7022 65.3095C67.6661 65.2284 67.6534 65.1389 67.6655 65.051C67.6526 65.0076 67.6438 64.9631 67.6395 64.9181C67.562 63.4707 68.5035 62.3999 69.4561 61.4251C70.4301 60.3894 71.4791 59.4268 72.5945 58.5451C73.2003 58.0521 73.8929 57.6764 74.6365 57.4374C74.9827 57.3361 75.3429 57.2913 75.7034 57.3045C75.8124 57.3083 75.9209 57.3194 76.0283 57.3378C77.3317 57.5372 78.395 58.6006 79.3994 59.3686L82.9442 62.0824C83.0583 62.1637 83.1352 62.2869 83.1584 62.4251C83.1816 62.5632 83.1491 62.7049 83.0679 62.819C82.9866 62.9331 82.8631 63.0102 82.725 63.0334C82.5868 63.0566 82.4453 63.024 82.3312 62.9427Z" fill="black"/>
<path d="M13.7169 42.5944C13.6713 42.8563 13.5359 43.0941 13.3336 43.2667C13.1314 43.4393 12.8751 43.5358 12.6092 43.5396C12.0037 43.4916 11.6012 42.8233 11.2394 42.4024C10.8185 41.9113 10.4051 41.4165 9.97305 40.9254C9.72057 40.6517 9.44072 40.4043 9.13832 40.187C8.55124 39.7698 7.85732 39.5335 7.15947 39.8842C7.07838 39.932 6.98356 39.9517 6.89012 39.9404C6.79668 39.9291 6.7097 39.8873 6.6424 39.8215C6.57631 39.762 6.52552 39.6874 6.49457 39.604C6.46361 39.5207 6.45339 39.4311 6.46464 39.3429C6.47589 39.2547 6.50858 39.1705 6.55947 39.0976C6.61036 39.0247 6.67816 38.9652 6.75707 38.9242C7.16208 38.7419 7.60483 38.6598 8.04829 38.6848C8.49176 38.7099 8.92266 38.8414 9.30454 39.0682C9.53449 39.1862 9.75111 39.3286 9.9507 39.4928C10.091 39.6036 10.2239 39.7218 10.3531 39.8621C10.9972 40.516 11.6062 41.2038 12.1773 41.9224L12.4874 42.2916C12.5132 42.3175 12.6128 42.4135 12.6608 42.4725C12.6759 42.4501 12.6896 42.4267 12.7015 42.4024C12.8529 41.9962 12.6573 41.4535 12.4985 41.0768C12.2886 40.604 12.0417 40.1484 11.7601 39.7144L11.6346 39.5187C11.4415 39.2087 11.2319 38.9091 11.0068 38.6215C10.9551 38.555 10.8996 38.4885 10.8442 38.4257C10.2645 37.7537 9.32663 37.1187 8.39986 37.3956C8.27167 37.4446 8.12978 37.4428 8.00286 37.3906C7.87594 37.3385 7.77368 37.2399 7.71692 37.115C7.66505 36.988 7.66516 36.8458 7.71692 36.7188C7.76869 36.5918 7.868 36.4901 7.99385 36.4356C9.39323 36.022 10.7112 36.7014 11.6306 37.7427C11.7894 37.9273 11.9408 38.1119 12.0774 38.3187C12.2878 38.6104 12.4801 38.9094 12.6648 39.2122C13.0108 39.7168 13.3027 40.2564 13.5359 40.8221C13.7737 41.381 13.8369 41.9989 13.7169 42.5944Z" fill="black"/>
<path d="M15.3266 39.0572C14.8472 38.0614 14.2536 37.1246 13.558 36.2658C12.945 35.5274 12.2543 34.7372 11.2167 34.7003C10.6947 34.6965 10.1797 34.8187 9.71494 35.0565C9.25021 35.2944 8.84968 35.6408 8.54739 36.0664C8.47505 36.1771 8.44736 36.3111 8.47023 36.4413C8.49309 36.5715 8.56464 36.6882 8.67035 36.7676C8.77605 36.847 8.90816 36.8832 9.03958 36.8688C9.171 36.8545 9.29204 36.7907 9.37816 36.6904C9.82124 36.096 10.6113 35.5827 11.383 35.7637C11.7989 35.9004 12.16 36.167 12.4131 36.5243C12.7564 36.9132 13.0757 37.3226 13.3694 37.7501C13.9882 38.5936 14.4729 39.5277 14.8059 40.5194C14.8944 40.7338 14.9342 40.9653 14.9228 41.197C14.9113 41.4287 14.8485 41.655 14.7392 41.8597C14.6581 42.0033 14.5283 42.1132 14.3732 42.1695C14.2181 42.2257 14.048 42.2245 13.8937 42.1661C13.2844 41.8855 12.9041 42.8529 13.5244 43.1335C14.3958 43.5397 15.3709 42.971 15.7734 42.1587C16.2423 41.1507 15.7734 39.9803 15.3266 39.0572Z" fill="black"/>
<path d="M18.1107 39.3416C17.9343 38.4619 17.5795 37.6278 17.0683 36.8905C16.5571 36.1532 15.9 35.5285 15.1381 35.0548C14.1707 34.4825 13.0077 34.3163 12.0292 34.9625C11.4754 35.3317 12.118 36.1588 12.6682 35.7859C13.4066 35.2801 14.3444 35.7231 14.9795 36.1957C15.6315 36.6887 16.1673 37.3189 16.5487 38.0419C16.9349 38.7594 17.1557 39.5541 17.1948 40.368C17.2253 40.5374 17.2114 40.7118 17.1545 40.8742C17.0975 41.0366 16.9995 41.1815 16.87 41.2948C16.7546 41.3741 16.619 41.419 16.4791 41.4242C16.3392 41.4295 16.2009 41.3948 16.0799 41.3244C15.5187 40.9551 14.8909 41.7969 15.4558 42.1588C15.7922 42.3792 16.1921 42.4817 16.593 42.4503C16.994 42.4189 17.3732 42.2553 17.6712 41.9853C18.3801 41.3133 18.2953 40.2166 18.1107 39.3416Z" fill="black"/>
<path d="M21.0206 39.2712C20.9703 39.4753 20.873 39.6647 20.7365 39.8245C20.5999 39.9842 20.4279 40.1099 20.2342 40.1913C20.0404 40.2727 19.8305 40.3077 19.6208 40.2935C19.4112 40.2793 19.2076 40.2162 19.0266 40.1094C18.7317 39.9021 18.4574 39.6672 18.207 39.4078C17.8895 39.1383 17.9374 38.8466 17.5313 38.8097C16.863 38.7506 16.575 37.8645 17.2396 37.9235C17.7296 37.9671 18.2007 38.1335 18.6094 38.4072C18.9454 38.6288 19.1818 38.9869 19.5289 39.1974C19.5674 39.2297 19.6136 39.2515 19.663 39.2606C19.7125 39.2698 19.7633 39.266 19.8109 39.2497C19.8584 39.2333 19.9012 39.205 19.9345 39.1673C19.9679 39.1297 19.9907 39.0841 20.0012 39.0349C20.1526 38.6657 19.8982 38.2632 19.6951 37.9752C19.5281 37.7466 19.34 37.534 19.1337 37.3402C18.8352 37.0454 18.5115 36.7773 18.1663 36.5389C18.0038 36.4245 17.8412 36.31 17.6788 36.2029C16.9403 35.7155 16.0619 35.3389 15.1573 35.5641C15.0206 35.5842 14.8815 35.5492 14.7707 35.4668C14.6599 35.3844 14.5863 35.2614 14.5663 35.1248C14.5501 34.9888 14.5866 34.8518 14.6683 34.7419C14.75 34.632 14.8709 34.5576 15.0058 34.534C16.047 34.2756 17.0809 34.6448 17.9597 35.1654C18.468 35.4641 18.9486 35.8076 19.3958 36.1919C19.637 36.3925 19.8665 36.607 20.0827 36.8343L20.2526 37.0189C20.799 37.6392 21.2532 38.4552 21.0206 39.2712Z" fill="black"/>
<path d="M49.8499 40.6005L48.6979 39.7439C46.3052 37.9766 43.9151 36.2055 41.5274 34.4307L36.4393 30.6572C35.012 29.5346 33.4842 28.5458 31.8755 27.7033C30.2252 26.873 28.3774 26.5152 26.5364 26.6695C24.4798 26.8615 22.4307 27.4079 20.4257 27.8843L19.9902 27.9913C19.5249 28.0984 19.0631 28.2128 18.6016 28.3273C17.1948 28.6744 15.7992 29.0326 14.3998 29.4092C12.5536 29.9003 10.6412 30.5169 9.06829 31.6246C7.69311 32.5814 6.71893 34.0117 6.33223 35.6418C6.01187 37.0394 6.04359 38.4946 6.42454 39.8769C6.47992 40.0726 6.53909 40.2719 6.60555 40.4639C6.63367 40.5368 6.64382 40.6154 6.63547 40.6931C6.62713 40.7708 6.60056 40.8454 6.55759 40.9107L6.0737 41.0473L5.82634 41.1175C5.73875 41.0589 5.67458 40.9713 5.64533 40.8701C5.5641 40.6375 5.49392 40.3975 5.43115 40.1575C4.97839 38.5173 4.96462 36.787 5.39076 35.1396C5.91953 33.2205 7.15209 31.5712 8.84293 30.5206C10.5451 29.4424 12.4799 28.8479 14.411 28.3347C15.3156 28.0984 16.2239 27.8621 17.1322 27.6332C17.6898 27.4928 18.2397 27.3525 18.801 27.2196C19.4877 27.0461 20.1709 26.8836 20.8577 26.7175C22.9586 26.2264 25.1186 25.6393 27.2897 25.6098C29.1838 25.5997 31.0495 26.0724 32.7102 26.9833C34.3789 27.914 35.9724 28.9733 37.4767 30.1513L42.8417 34.1316C44.7396 35.5347 46.6362 36.9415 48.5316 38.3519L49.6725 39.1938C49.7279 39.6406 49.7945 40.1242 49.8499 40.6005Z" fill="black"/>
<path d="M75.7145 57.3305C75.8659 57.6997 76.0208 58.0911 76.1833 58.4677C75.8127 58.3614 75.421 58.3526 75.046 58.4419C74.9094 58.1133 74.7765 57.792 74.6472 57.4634C74.278 56.5145 73.909 55.5582 73.5914 54.5871C73.3773 53.9557 74.3299 53.5459 74.5477 54.1809C74.9022 55.2406 75.2936 56.293 75.7145 57.3305Z" fill="black"/>
<path d="M75.9025 60.4134L75.6812 59.9297C75.7547 59.9861 75.8131 60.0597 75.8517 60.1441C75.8903 60.2284 75.9079 60.3208 75.9025 60.4134Z" fill="black"/>
<path d="M77.4535 62.5328C77.2836 62.5808 77.1173 62.6288 76.9548 62.6842C76.8071 62.3667 76.6557 62.0528 76.5081 61.7353C76.6853 61.6762 76.8773 61.6208 77.0471 61.5691C77.1482 61.5338 77.2571 61.5276 77.3615 61.5511C77.466 61.5746 77.5619 61.6269 77.6381 61.7021C77.6787 61.787 77.7195 61.8719 77.7564 61.9568C77.7817 62.0731 77.7652 62.1946 77.7099 62.3C77.6545 62.4053 77.5637 62.4878 77.4535 62.5328Z" fill="black"/>
<path d="M78.8602 64.2609C78.5279 64.3606 78.203 64.475 77.8744 64.6006L77.4204 63.6627C77.7416 63.5372 78.0739 63.419 78.4062 63.3193C78.5576 63.6406 78.7125 63.947 78.8602 64.2609Z" fill="black"/>
<path d="M84.1328 79.248C83.5784 77.3659 82.9175 75.5168 82.1536 73.7096C81.2047 71.4388 80.1413 69.2234 79.0631 67.0154L78.5388 65.9409C78.959 65.9394 79.3773 66.0004 79.7796 66.1219C80.1193 66.816 80.4553 67.5065 80.7913 68.2043C82.4566 71.6566 84.0219 75.1532 85.0927 78.8492C85.2662 79.4769 84.3064 79.8868 84.1328 79.248Z" fill="black"/>
<path d="M9.95035 39.478C10.0907 39.5888 10.2235 39.7069 10.3528 39.8472L9.13797 40.1906L6.55336 40.9291L6.06982 41.0657L5.82247 41.1358L3.48521 41.8004C2.7689 41.9998 2.00817 42.1697 1.42848 42.646C0.90786 43.0706 0.269278 42.2435 0.789894 41.8226C1.50251 41.2466 2.38475 41.0361 3.24506 40.7924L5.42727 40.1758L6.07703 39.9912L6.42066 39.8952L6.63845 39.8325C7.52461 39.5814 8.41444 39.334 9.30059 39.094C9.53001 39.199 9.74773 39.3277 9.95035 39.478Z" fill="black"/>
<path d="M26.998 35.121L24.2955 35.8853L23.2318 36.1881L21.2453 36.7494L20.2671 37.0263C19.8979 37.1297 19.5285 37.2367 19.1334 37.3475C18.835 37.0527 18.5112 36.7846 18.166 36.5463L19.4104 36.1992L23.1582 35.1358L24.1956 34.8441L26.592 34.1648C27.2307 33.9838 27.6404 34.9401 26.998 35.121Z" fill="black"/>
<path d="M74.3485 54.6867C73.4291 55.2848 72.5025 55.883 71.572 56.47L70.6302 57.0571C67.4733 59.003 64.2093 60.7826 60.661 61.9568C58.1286 62.8179 55.4783 63.2813 52.804 63.3304C52.4348 63.3304 52.0656 63.3304 51.7259 63.3304C50.4136 63.2821 49.1096 63.1002 47.8342 62.7876C43.5732 61.7279 40.08 58.907 37.0154 55.8608C32.0086 50.8688 28.2759 44.4774 26.8839 37.5248C26.8175 37.1888 26.7547 36.8454 26.6993 36.502C26.6033 35.9593 26.5331 35.3944 26.4703 34.859C26.3965 34.1944 27.4267 34.043 27.5005 34.7113C27.5559 35.2171 27.6259 35.7193 27.7071 36.2214C27.7588 36.5611 27.8217 36.9045 27.8881 37.2442C28.5789 40.6516 29.8027 43.9287 31.5141 46.955C33.4223 50.3296 35.838 53.3906 38.677 56.0307C40.1906 57.4868 41.8472 58.7868 43.6212 59.9113C45.4285 61.015 47.4362 61.7503 49.5289 62.075C50.1713 62.1747 50.8102 62.2448 51.4489 62.2817C51.8182 62.3039 52.1873 62.315 52.5307 62.3187C58.9479 62.3519 64.9146 59.3648 70.3792 55.9864C70.6931 55.7944 71.0033 55.6171 71.3135 55.4029C72.1184 54.9008 72.9084 54.3876 73.6911 53.8781C74.2671 53.5051 74.9023 54.3211 74.3485 54.6867Z" fill="black"/>
<path d="M83.9151 79.0819C82.944 80.3963 81.5261 81.2234 80.0418 81.8585C78.3692 82.5748 76.6153 83.1249 74.8725 83.7046C71.1278 84.9411 67.3208 85.9801 63.4671 86.8173C55.9644 88.416 48.1808 89.1028 40.5525 88.0542C34.1507 87.2246 27.9959 85.0543 22.4897 81.685C19.7869 80.0112 17.3133 77.9931 15.1311 75.6813C12.7804 73.1342 10.815 70.257 9.2973 67.1409C7.68594 63.7632 6.33796 60.2661 5.26533 56.6807C4.06164 52.853 2.99688 48.9834 2.07134 45.072C1.83872 44.0862 1.61707 43.0966 1.39922 42.1182C1.25891 41.4683 0.228747 41.6123 0.369054 42.2696C1.24782 46.304 2.27194 50.304 3.44117 54.2696C4.49692 58.0235 5.78177 61.7092 7.28853 65.3059C8.70654 68.6699 10.5801 71.823 12.8566 74.677C14.9509 77.2189 17.382 79.4636 20.0825 81.3489C25.477 85.1409 31.765 87.5705 38.234 88.7336C45.7847 90.1145 53.594 89.7194 61.1263 88.3385C65.0878 87.5946 69.0031 86.6231 72.853 85.429C74.7582 84.8456 76.6522 84.2215 78.5353 83.5569C80.1082 83.0031 81.6921 82.3865 83.0472 81.3969C83.6967 80.9253 84.2708 80.3576 84.7495 79.7133C84.8332 79.6026 84.8695 79.4632 84.8504 79.3258C84.8314 79.1883 84.7584 79.0641 84.6478 78.9804C84.5371 78.8966 84.398 78.8603 84.2605 78.8793C84.1231 78.8983 83.9988 78.9712 83.9151 79.0819Z" fill="black"/>
<path d="M95.1029 54.1403C94.9344 55.2966 94.6876 56.4401 94.3644 57.5631C94.2019 58.1292 94.0173 58.6892 93.8106 59.243C92.9231 61.6838 91.6788 63.9795 90.1182 66.0554C88.8444 67.7612 87.3341 69.4707 85.355 70.368C83.8781 71.0473 81.1753 71.3538 80.555 69.3415C80.3556 68.7101 80.884 68.3077 81.0797 68.9464C81.3492 69.7993 82.811 69.9471 83.5864 69.84C84.696 69.6296 85.7298 69.1275 86.581 68.3852C88.3201 66.9784 89.69 65.0621 90.8235 63.1495C91.8492 61.4248 92.6659 59.5841 93.2567 57.6664C93.4007 57.2086 93.5262 56.747 93.6259 56.2818C94.0078 54.74 94.2379 53.1644 94.3128 51.5778C94.4065 49.5805 94.2224 47.5799 93.7662 45.6332C93.3231 43.7427 92.6327 41.7452 91.2555 40.3273C89.6715 38.6953 87.3233 38.5144 85.1744 38.4812C82.797 38.4593 80.423 38.6658 78.0851 39.0978C73.3146 39.9212 68.6698 41.339 63.9104 42.2289C63.2532 42.3507 63.1054 41.3206 63.7626 41.1987C69.4672 40.1316 75.0277 38.2892 80.8136 37.6541C83.2394 37.392 85.8242 37.248 88.2353 37.7095C89.3843 37.8989 90.4692 38.3666 91.3958 39.0719C92.2173 39.7572 92.8938 40.5995 93.3858 41.5495C94.3488 43.4548 94.9581 45.519 95.184 47.6418C95.4547 49.8015 95.4275 51.9881 95.1029 54.1403Z" fill="black"/>
<path d="M85.1592 54.2028C85.0373 54.6164 84.9042 55.0337 84.7676 55.4472C84.0579 57.5256 83.203 59.5515 82.2089 61.5099C81.9099 62.1081 80.9388 61.7352 81.2379 61.1407C81.9764 59.6638 82.6666 58.1463 83.2611 56.5844C83.4937 55.9678 83.7155 55.3475 83.9112 54.7383C84.7531 52.0946 85.2181 50.2004 85.0409 47.782C85.0151 47.4423 84.9819 47.0952 84.9302 46.7333C84.8896 46.4416 84.8415 46.1426 84.7824 45.8324C84.6568 45.1678 85.6907 45.0238 85.8125 45.681C85.8913 46.0946 85.954 46.4896 86.0008 46.8662C86.0451 47.2355 86.0822 47.6047 86.1006 47.9259C86.2262 50.0416 85.8496 51.7807 85.1592 54.2028Z" fill="black"/>
<path d="M94.3457 57.5631C94.1833 58.1293 93.9986 58.6893 93.7919 59.2431C93.678 58.6948 93.4905 58.1645 93.2344 57.6665C92.8995 56.988 92.4197 56.3913 91.8289 55.9186C91.2381 55.4458 90.5505 55.1085 89.8151 54.9305C88.5198 54.6746 87.1828 54.7214 85.9086 55.0671C85.518 55.1557 85.1362 55.2793 84.7677 55.4364C84.1722 55.669 83.6513 56.0596 83.2612 56.5662C83.4938 55.9496 83.7157 55.3293 83.9114 54.72C84.244 54.5386 84.5923 54.3878 84.9523 54.2696C85.0188 54.2696 85.0892 54.2253 85.1593 54.2105C87.3747 53.52 89.9887 53.472 91.9825 54.7274C92.6227 55.1385 93.1783 55.6687 93.6184 56.2893C93.9072 56.6857 94.151 57.113 94.3457 57.5631Z" fill="black"/>
<path d="M45.8619 51.2345C44.3095 50.2137 42.8291 49.0874 41.4312 47.8634C38.9241 45.6997 36.6315 43.3219 34.2647 40.9994C33.0943 39.8438 31.9052 38.7028 30.6683 37.6099C30.4023 37.3137 30.098 37.0542 29.7636 36.8382C29.4535 36.6979 28.9809 36.9305 28.6559 37.0154L27.8955 37.2296L26.8909 37.5102C26.8245 37.1742 26.7617 36.8308 26.7063 36.4874L27.7145 36.2068L28.7371 35.9188C29.1465 35.7494 29.5994 35.7158 30.0294 35.8228C30.4123 36.0066 30.7599 36.2566 31.0559 36.5613C36.2252 41.1139 40.6559 46.5859 46.4749 50.3853C47.0472 50.7656 46.4195 51.6001 45.8619 51.2345Z" fill="black"/>
<path d="M52.822 63.3303C52.4528 63.3303 52.0836 63.3303 51.7439 63.3303C51.6811 63.0682 51.6111 62.7986 51.5409 62.5365C51.5187 62.4516 51.4964 62.3666 51.4706 62.2817C51.1531 61.1038 50.7616 59.9038 49.9641 58.9586C49.1038 57.9395 47.9037 57.3045 47.1505 56.1783C45.5296 53.7636 45.6736 50.7654 45.9026 47.9925C45.9543 47.3205 46.988 47.4423 46.9363 48.1106C46.8071 49.7832 46.6742 51.4817 47.0139 53.1396C47.2393 54.3977 47.8436 55.5571 48.7457 56.4627C49.7279 57.3894 50.7727 58.102 51.4558 59.3057C51.9522 60.2586 52.3244 61.2712 52.5635 62.3186C52.6226 62.5402 52.6779 62.7617 52.7369 62.9832L52.822 63.3303Z" fill="black"/>
<path d="M71.579 56.47L70.6375 57.0571C70.56 56.6878 70.4861 56.3186 70.4085 55.9715C70.0984 54.5278 69.7623 53.0915 69.4115 51.6626L69.157 50.6398L70.0429 50.2336C70.1116 50.3066 70.1613 50.3954 70.1872 50.4921C70.2499 50.7395 70.3127 50.9832 70.3718 51.2306C70.7164 52.6115 71.04 53.9986 71.3428 55.3918C71.413 55.75 71.4941 56.1081 71.579 56.47Z" fill="black"/>
<path d="M86.1007 47.9002C85.7315 47.8374 85.3955 47.7894 85.041 47.7562L84.7233 47.723C79.6907 47.291 74.8908 49.1777 70.3641 51.227L69.4042 51.6627C69.1495 51.7845 68.887 51.9027 68.6322 52.0319C68.023 52.3162 67.617 51.3525 68.2262 51.0719L69.1493 50.6509L70.0356 50.2485C70.955 49.835 71.8817 49.4288 72.8232 49.0448C75.4927 47.963 78.273 47.0584 81.1493 46.7519C82.4056 46.6184 83.6721 46.6085 84.9303 46.7224C85.2995 46.7556 85.6464 46.7999 86.0009 46.8553C86.0452 47.2061 86.0823 47.5605 86.1007 47.9002Z" fill="black"/>
<path d="M66.5057 40.3125C66.2155 41.5505 65.7781 42.7492 65.2026 43.883C64.5871 44.9285 63.7876 45.8541 62.8429 46.6153C61.8854 47.4375 60.9008 48.2215 59.8891 48.9673C59.0177 49.6061 58.0762 50.2005 56.9352 49.9568C55.9236 49.7353 54.9894 49.0522 54.1181 48.5095C53.2217 47.9793 52.3807 47.3608 51.6074 46.6633C50.0492 45.1864 49.2516 43.3808 48.9009 41.2947C48.8123 40.7851 48.7493 40.2682 48.6939 39.7513C48.6385 39.2344 48.5871 38.8061 48.528 38.3371C48.4197 37.2165 48.1716 36.1138 47.7896 35.0547C47.5496 34.427 48.5279 34.0245 48.7494 34.6485C49.3143 36.1254 49.4881 37.643 49.6653 39.179C49.7207 39.6553 49.7759 40.1316 49.8423 40.6079C49.8682 40.763 49.8941 40.9255 49.9163 41.0805C50.2338 43.0005 50.95 44.6953 52.4269 46.0135C53.1457 46.6392 53.9192 47.199 54.7382 47.6861C55.1776 47.9556 55.6173 48.2252 56.0641 48.4762C56.4687 48.7491 56.9312 48.9236 57.4152 48.9858C57.9479 48.9623 58.4582 48.7637 58.8665 48.4209C59.3059 48.1144 59.7341 47.7821 60.1624 47.4535C61.0523 46.7704 61.931 46.0688 62.747 45.3045C63.49 44.6347 64.0923 43.8239 64.5193 42.9193C64.9332 41.9558 65.2689 40.9606 65.5235 39.9433C65.7155 39.2713 66.6829 39.6737 66.5057 40.3125Z" fill="black"/>
<path d="M55.333 43.9974L54.7164 43.8165C55.0333 42.9708 55.1593 42.0655 55.0856 41.1654C54.9298 40.1697 54.5414 39.2247 53.952 38.4073C53.424 37.6208 52.7927 36.742 51.8844 36.3839C50.9761 36.0257 49.8869 36.2177 48.9306 36.454C48.2844 36.6165 48.4282 37.6466 49.078 37.4842C49.8165 37.3033 50.6956 37.0559 51.4488 37.3328C52.2021 37.6097 52.7041 38.4109 53.1288 39.046C53.6002 39.7047 53.9144 40.4625 54.0479 41.2614C54.1771 42.2029 53.8636 43.1076 53.5571 43.9826C53.5094 44.1116 53.5132 44.254 53.5683 44.38C53.6234 44.506 53.7254 44.6057 53.8524 44.6583L54.9601 44.9795C55.5915 45.1568 55.9791 44.1894 55.333 43.9974Z" fill="black"/>
<path d="M53.1175 40.379C53.1056 40.2534 53.0796 40.1296 53.04 40.0098C53.0143 39.9222 52.9783 39.8379 52.9329 39.7587C52.8745 39.6438 52.8013 39.5371 52.7151 39.4412C52.6259 39.339 52.5241 39.2484 52.4122 39.1716C52.2997 39.0919 52.1617 39.0564 52.0246 39.0719C51.8891 39.0923 51.767 39.1653 51.685 39.275C51.6105 39.3378 51.5522 39.4176 51.5151 39.5076L51.4856 39.6369C51.4736 39.726 51.4863 39.8167 51.5223 39.899C51.6243 40.0808 51.7377 40.256 51.862 40.4233C51.9951 40.5859 52.1382 40.74 52.2904 40.8849L52.4122 40.9514L52.5453 40.9846C52.6564 40.9954 52.7677 40.9694 52.8626 40.9107C52.9054 40.8946 52.9426 40.8663 52.9697 40.8295C53.0069 40.8003 53.0363 40.7622 53.0548 40.7187C53.0814 40.6804 53.0979 40.6359 53.1027 40.5895C53.128 40.5222 53.1332 40.4491 53.1175 40.379Z" fill="black"/>
<path d="M59.025 39.7107C58.9483 39.2143 58.684 38.7663 58.2866 38.459C58.1798 38.3818 58.0484 38.3463 57.9173 38.3593C57.7818 38.3797 57.6597 38.4526 57.5777 38.5624C57.5363 38.6172 57.5061 38.6797 57.489 38.7463C57.4718 38.8128 57.468 38.8821 57.4778 38.9501C57.4674 39.047 57.4674 39.1448 57.4778 39.2418C57.4742 39.2823 57.4742 39.3231 57.4778 39.3636C57.4948 39.4401 57.5173 39.5154 57.5445 39.5888C57.5897 39.7028 57.6545 39.8078 57.7363 39.899C57.8148 39.9912 57.907 40.0709 58.0096 40.1353C58.0783 40.1773 58.1499 40.2143 58.2238 40.2461C58.3036 40.2714 58.3851 40.2912 58.4676 40.3052C58.5455 40.3109 58.6234 40.299 58.6962 40.2706C58.7689 40.2422 58.8346 40.1979 58.888 40.1409C58.9414 40.084 58.9815 40.0157 59.0052 39.9413C59.0289 39.8669 59.0357 39.7881 59.025 39.7107Z" fill="black"/>
<path d="M61.189 35.9482C60.3367 35.4242 59.3431 35.1762 58.3445 35.2384C57.3458 35.3005 56.3907 35.6696 55.6098 36.2953C55.0966 36.7199 55.7319 37.5433 56.2488 37.1187C56.8482 36.6294 57.5827 36.335 58.3542 36.2749C59.1256 36.2149 59.8969 36.3921 60.5649 36.7827C60.678 36.8635 60.8181 36.8975 60.9558 36.8776C61.0934 36.8576 61.2178 36.7852 61.3034 36.6756C61.3837 36.5636 61.4167 36.4245 61.3953 36.2884C61.3739 36.1523 61.2999 36.0301 61.189 35.9482Z" fill="black"/>
<path d="M58.3423 44.8097C58.2299 44.7276 58.0896 44.6924 57.9518 44.7117C57.8139 44.731 57.6893 44.8032 57.6038 44.9131L57.5003 45.0238C57.4339 45.0829 57.3635 45.1346 57.2934 45.1863L57.1863 45.2602C57.0792 45.3155 56.9943 45.3525 56.9093 45.3894L56.7914 45.43C56.6954 45.455 56.598 45.4747 56.4997 45.4891H56.3779C56.2339 45.4891 56.1491 45.4891 56.0642 45.4891C55.9274 45.4755 55.7906 45.5157 55.683 45.6012C55.5755 45.6867 55.5055 45.8107 55.488 45.9469C55.4743 46.0836 55.5146 46.2203 55.6001 46.3278C55.6856 46.4354 55.8096 46.5054 55.9459 46.5229C56.4102 46.5749 56.8801 46.5122 57.3146 46.3403C57.7491 46.1684 58.135 45.8926 58.4382 45.5371C58.5214 45.4277 58.5579 45.2899 58.5399 45.1536C58.5219 45.0173 58.4511 44.8937 58.3423 44.8097Z" fill="black"/>
<path d="M62.1081 25.6098C57.4078 23.8892 51.8474 24.5649 48.4246 28.4566C45.3747 31.9236 45.3195 37.355 47.0032 41.4682C47.895 43.7428 49.4783 45.68 51.5299 47.0067C52.0911 47.3759 52.7187 46.5304 52.1501 46.1759C48.7458 44.0455 47.0179 40.0246 46.9588 36.0997C46.9256 33.9064 47.3649 31.6467 48.6572 29.8227C49.8862 28.1366 51.6187 26.8838 53.605 26.2449C56.2413 25.3772 59.1435 25.6209 61.7281 26.5624C62.3484 26.795 62.7395 25.8239 62.1081 25.6098Z" fill="black"/>
<path d="M53.6119 47.3427L51.5112 45.5815C50.9943 45.1495 50.3738 45.984 50.8871 46.4123L52.7332 47.9483C52.3838 49.4746 52.2298 51.0391 52.2753 52.6043C52.2753 53.4424 52.3197 54.2769 52.3492 55.1151C52.3492 55.5212 52.386 55.931 52.386 56.3409C52.386 56.6584 52.386 56.9354 52.0167 56.987C51.3558 57.0794 51.0161 56.3298 50.8167 55.8314C50.514 55.0929 50.2484 54.3027 50.0047 53.5237C49.4452 51.9127 49.2472 50.1982 49.4249 48.5021C49.6649 46.7114 50.2372 44.9021 49.5356 43.1409C49.2882 42.5132 48.332 42.923 48.5794 43.5433C49.2661 45.275 48.476 47.1655 48.332 48.9268C48.1769 50.7729 48.6201 52.619 49.2035 54.395C49.6355 55.6947 50.119 57.936 51.8285 58.0283C52.1502 58.0621 52.4738 57.987 52.7476 57.8149C53.0215 57.6429 53.2296 57.3838 53.3386 57.0794C53.4278 56.6809 53.449 56.2701 53.4014 55.8646C53.4014 55.3735 53.3719 54.8824 53.3534 54.3876C53.2722 52.2387 53.206 50.0381 53.7893 47.9446C53.8263 47.8383 53.8291 47.7232 53.7973 47.6152C53.7655 47.5073 53.7006 47.412 53.6119 47.3427Z" fill="black"/>
<path d="M53.9555 30.5353C50.9499 32.3815 48.4502 35.4424 48.7862 39.1568C48.8453 39.8251 49.8939 39.6738 49.8164 39.0092C49.5247 35.6861 51.9395 32.9907 54.6164 31.3587C55.1629 31.0079 54.5204 30.1882 53.9555 30.5353Z" fill="black"/>
<path d="M65.3575 37.6429C64.1427 37.5765 63.0423 37.0817 61.9457 36.6017C60.9134 36.1902 59.924 35.6782 58.9919 35.0731C58.0954 34.4212 57.3238 33.6133 56.7137 32.6879C56.0048 31.6799 55.3255 30.646 54.635 29.6232C54.2658 29.0657 53.4385 29.7081 53.8115 30.262C55.1776 32.2817 56.4219 34.6005 58.4896 35.9925C59.4832 36.6213 60.5313 37.16 61.6208 37.6023C62.7728 38.1081 63.9506 38.6103 65.2244 38.6768C65.9038 38.7137 66.0406 37.6798 65.3575 37.6429Z" fill="black"/>
<path d="M67.3068 40.5156C67.0705 42.731 66.3875 44.8319 65.6749 46.9218L63.5262 53.2209C63.2234 54.107 62.928 55.1815 62.2671 55.8756C61.5286 56.6362 61.2295 54.7679 61.1889 54.3618C60.9637 52.2461 61.8017 50.171 62.5624 48.2436C63.4301 46.0283 64.2867 43.7206 63.9286 41.3132C63.8937 39.9329 63.6084 38.5705 63.0866 37.2922C63.0328 37.1649 62.9306 37.0642 62.8025 37.0123C62.6744 36.9604 62.531 36.9615 62.4037 37.0153C62.2764 37.0692 62.1755 37.1714 62.1235 37.2995C62.0716 37.4276 62.0729 37.5711 62.1268 37.6984C63.2751 40.5008 63.1496 43.7279 62.1268 46.5599C61.1336 49.3144 59.6234 52.1242 60.2511 55.1445C60.4209 55.9532 60.8419 56.9907 61.7871 57.1052C62.8394 57.2381 63.4631 56.0824 63.8471 55.2848C64.3087 54.2096 64.7082 53.1087 65.0435 51.9876L66.2287 48.5132C67.1075 45.9286 68.0453 43.3439 68.337 40.6411C68.3422 40.5105 68.298 40.3827 68.2133 40.2831C68.1286 40.1836 68.0096 40.1195 67.8798 40.1037C67.75 40.0878 67.6192 40.1214 67.5131 40.1978C67.4069 40.2741 67.3332 40.3876 67.3068 40.5156Z" fill="black"/>
<path d="M71.0808 39.7143C67.9941 36.1291 68.0308 30.8528 64.6744 27.4004C63.8373 26.5085 62.7864 25.8451 61.6211 25.4731C60.9823 25.2811 60.5983 26.2485 61.2519 26.4405C63.9177 27.2454 65.4609 29.8115 66.4431 32.2521C67.5508 35.0251 68.2894 38.0343 70.2684 40.3531C70.6931 40.8589 71.5165 40.2238 71.0808 39.7143Z" fill="black"/>
<path d="M53.1176 47.494C53.1176 47.494 52.5933 51.526 52.7483 53.542C52.9034 55.558 53.6269 57.1383 52.4011 57.3118C51.1753 57.4853 49.2442 55.9087 49.1555 53.4571C49.0669 51.0054 48.6313 48.7235 48.8934 47.494C49.1556 46.2644 49.3329 44.3407 49.3329 44.3407C47.5211 42.3102 46.4945 39.6991 46.4382 36.9783C46.3533 32.4183 48.1035 27.5998 52.837 26.0195C57.5706 24.4392 62.7435 25.318 65.0216 28.4749C67.2998 31.6318 68.0012 35.6638 68.9649 37.5026C69.4666 38.4164 69.8927 39.3697 70.2388 40.3531L67.8277 40.7444C67.8277 40.7444 65.8117 48.2841 64.6708 51.1752C63.5299 54.0663 63.2677 56.961 62.0418 56.7137C60.816 56.4663 60.0258 53.6453 60.8123 51.1752C61.5987 48.705 62.7434 47.0583 63.1791 44.865C63.6148 42.6718 63.1791 40.6595 63.1791 39.7807C63.113 39.0291 62.9364 38.2913 62.6548 37.5912C62.6548 37.5912 59.3316 35.8373 57.5703 34.0835C55.8091 32.3296 54.5022 30.7604 54.5022 30.7604C54.5022 30.7604 51.0831 32.6878 50.2081 34.7038C49.333 36.7198 48.8048 38.8244 49.1555 40.5783C49.5063 42.3321 50.0347 44.1709 51.1719 45.5739C51.7309 46.2988 52.3853 46.9447 53.1176 47.494Z" fill="black"/>
<path d="M53.4202 40.5748C53.2839 40.563 53.148 40.604 53.0409 40.6891C52.9338 40.7742 52.8634 40.8972 52.844 41.0326C52.6927 41.8117 51.7659 42.1699 50.9979 42.0148C50.1708 41.8413 49.2332 41.1065 49.0966 40.2314C49.0731 40.0983 48.9987 39.9795 48.8892 39.9002C48.7798 39.821 48.6437 39.7874 48.5099 39.8065C48.3761 39.8257 48.2548 39.8962 48.172 40.0031C48.0893 40.1099 48.0516 40.2447 48.0664 40.3791C48.2806 41.7526 49.632 42.8456 50.9575 43.0634C51.5949 43.1797 52.2524 43.0458 52.7936 42.6895C53.3348 42.3333 53.7177 41.7822 53.863 41.1508C53.8779 41.0161 53.8403 40.8809 53.7577 40.7736C53.6751 40.6662 53.5542 40.595 53.4202 40.5748Z" fill="#1D4ED8"/>
<path d="M56.2193 40.9144C55.7541 40.4196 55.2151 39.8732 54.4951 39.8067C53.8674 39.7476 53.1138 40.0689 52.9403 40.7298C52.8939 40.8561 52.8939 40.9948 52.9403 41.1212C52.997 41.2489 53.0999 41.3505 53.2284 41.4055C53.3573 41.4542 53.5002 41.4505 53.6264 41.3953C53.7527 41.3401 53.8523 41.2378 53.9041 41.1101C53.9041 41.0843 53.9226 41.0584 53.9336 41.0289C54.0887 40.8923 54.1256 40.8738 54.1662 40.859H54.2993C54.3436 40.859 54.3953 40.859 54.4359 40.859C54.5149 40.8797 54.5916 40.9081 54.6649 40.944C54.7448 40.9873 54.8211 41.0367 54.8935 41.0917C54.9932 41.1692 55.0857 41.2541 55.178 41.339C55.2001 41.3649 55.2258 41.387 55.2479 41.4092L55.3922 41.5642C55.4793 41.6724 55.6049 41.7425 55.7427 41.7597C55.8804 41.7769 56.0196 41.7399 56.1306 41.6566C56.2401 41.5694 56.3106 41.4426 56.3272 41.3037C56.3437 41.1648 56.3052 41.0249 56.2193 40.9144Z" fill="#1D4ED8"/>
<path d="M61.9789 38.902C61.9309 38.2337 60.9008 38.385 60.9488 39.0497C60.9786 39.6445 60.815 40.233 60.4822 40.727C60.1493 41.2209 59.6652 41.5937 59.1026 41.7893C58.5424 41.9495 57.9458 41.9287 57.3982 41.7298C56.8505 41.5309 56.3797 41.164 56.0528 40.6816C55.6836 40.1278 54.8527 40.7703 55.2293 41.3204C55.699 41.9813 56.3671 42.4751 57.1367 42.7301C57.9064 42.9851 58.7373 42.9879 59.5086 42.7383C60.2795 42.4515 60.9369 41.9228 61.3822 41.2312C61.8275 40.5396 62.0369 39.7224 61.9789 38.902Z" fill="#1D4ED8"/>
<path d="M24.2955 35.8854L23.2318 36.1882C23.2331 35.8361 23.2087 35.4844 23.1583 35.1359C22.938 33.6709 22.3737 32.2791 21.5115 31.0743C20.7419 29.9665 19.751 29.0299 18.6017 28.3235C18.1341 28.0419 17.6393 27.8081 17.1248 27.6257C17.6823 27.4854 18.2326 27.3451 18.7939 27.2122C19.2087 27.441 19.606 27.7002 19.9827 27.9875C22.192 29.6673 23.6925 32.1135 24.1885 34.8442C24.2461 35.1886 24.2819 35.5364 24.2955 35.8854Z" fill="black"/>
<path d="M23.9816 44.3482C23.5664 44.8684 23.0439 45.2929 22.4495 45.5925C22.2198 45.7057 21.9613 45.748 21.7075 45.7138C21.4536 45.6796 21.2157 45.5705 21.0242 45.4005C21.5595 44.8134 22.2427 44.0159 22.191 43.2405C22.1825 43.0043 22.0969 42.7773 21.9476 42.594C21.7983 42.4107 21.5934 42.2812 21.3638 42.2251C21.1392 42.1946 20.9107 42.2309 20.7065 42.3293C20.5023 42.4278 20.3314 42.5842 20.2154 42.7789C19.9771 43.1324 19.8146 43.5315 19.7383 43.9509C19.6621 44.3704 19.674 44.8011 19.7726 45.2159C19.3491 45.6349 18.8879 46.0144 18.3952 46.3494C17.8044 46.7519 16.7078 47.4571 15.8106 47.4238C16.2519 46.9516 16.6048 46.4038 16.8519 45.8066C17.1178 45.0977 17.1252 44.2005 16.42 43.7463C15.652 43.2479 14.788 43.7463 14.3117 44.4036C14.0385 44.7691 13.8471 45.189 13.7502 45.6349C13.6534 46.0808 13.6533 46.5423 13.7502 46.9882C13.8272 47.2522 13.9623 47.4956 14.1454 47.7008C13.3221 48.5131 12.2993 49.3254 11.1916 49.5469C10.8348 49.6274 10.4634 49.6183 10.1109 49.5203C9.75852 49.4224 9.43616 49.2387 9.172 48.9857C9.46087 48.5956 9.71412 48.1804 9.92885 47.7451C10.2279 47.1432 10.4493 46.1833 9.76623 45.7402C8.96131 45.2196 8.17485 46.1943 7.92008 46.8479C7.65754 47.4955 7.65754 48.2199 7.92008 48.8675C7.27435 49.6024 6.48865 50.2012 5.60878 50.6288C5.00694 50.9205 5.40925 51.8768 6.01479 51.5851C6.95185 51.1279 7.7967 50.5021 8.5071 49.7389C8.95622 50.1934 9.54313 50.4868 10.1762 50.5734C12.0593 50.8429 13.7464 49.5506 15.0166 48.2731C15.2609 48.367 15.5194 48.4195 15.781 48.4282C16.7816 48.4614 17.727 47.9703 18.5578 47.4682C19.1838 47.0892 19.7669 46.6435 20.2969 46.1389C20.5321 46.3645 20.8141 46.5355 21.123 46.6395C21.4319 46.7435 21.7601 46.7781 22.0839 46.7408C23.2322 46.6226 24.063 45.7697 24.8052 44.9685C25.2704 44.4811 24.4321 43.8645 23.9816 44.3482ZM9.06491 46.8848C9.10374 46.8418 9.13953 46.7961 9.172 46.7482C9.16756 46.8474 9.1448 46.945 9.1053 47.0362C9.01496 47.2613 8.90633 47.4787 8.78042 47.686C8.79142 47.5449 8.82131 47.4058 8.86912 47.2725C8.91489 47.1343 8.98093 47.0037 9.06491 46.8848ZM14.9502 45.3857C15.0573 45.1383 15.5596 44.315 15.9141 44.6473C16.1873 44.9057 15.8623 45.5629 15.7183 45.8029C15.4718 46.1969 15.1899 46.5676 14.8763 46.9106C14.5883 46.4823 14.7546 45.8362 14.9502 45.3857ZM21.1424 43.2922C21.1254 43.44 21.0734 43.5818 20.991 43.7057C20.9356 43.7943 20.8763 43.8829 20.8172 43.9715C20.8802 43.7523 20.975 43.5433 21.0981 43.3513L21.1424 43.2922Z" fill="#1D4ED8"/>
<path d="M28.3196 50.5883L10.3196 58.8591C9.71039 59.1397 10.1168 60.0997 10.726 59.8191L28.722 51.5483C29.3313 51.2677 28.9289 50.3114 28.3196 50.5883Z" fill="black"/>
<path d="M18.3029 62.2412C18.2484 62.1145 18.1463 62.0143 18.0184 61.9625C17.8906 61.9107 17.7474 61.9113 17.62 61.9643C15.9403 62.9163 14.3518 64.0213 12.8752 65.2652C12.3619 65.6972 13.0009 66.5206 13.5141 66.0849C14.9177 64.8948 16.428 63.8368 18.026 62.9243C18.1503 62.8669 18.2479 62.7643 18.2993 62.6375C18.3507 62.5106 18.3521 62.369 18.3029 62.2412Z" fill="black"/>
<path d="M29.8299 55.0116C26.5684 56.6467 23.4138 58.4867 20.3849 60.5206C19.8274 60.8898 20.47 61.7132 21.0239 61.3402C23.9842 59.3573 27.0673 57.5642 30.2546 55.9716C30.8343 55.6725 30.428 54.7125 29.8299 55.0116Z" fill="black"/>
<path d="M33.2826 60.2363C28.2621 63.891 23.6714 68.1024 19.5987 72.7901C19.1593 73.296 19.9941 73.92 20.4334 73.4141C24.4464 68.798 28.9699 64.6521 33.9176 61.056C34.464 60.6646 33.8217 59.8449 33.2826 60.2363Z" fill="black"/>
<path d="M30.2472 74.3962C30.135 74.3126 29.9944 74.2769 29.856 74.297C29.7175 74.317 29.5925 74.3913 29.5087 74.5033C28.5973 75.8149 27.7651 77.1798 27.0164 78.5907C26.9668 78.7195 26.9701 78.8627 27.0254 78.9893C27.0807 79.1158 27.1838 79.2153 27.3121 79.2664C27.4412 79.3122 27.5829 79.3072 27.7084 79.2523C27.8339 79.1974 27.9338 79.0969 27.9878 78.971C28.6954 77.6426 29.482 76.3578 30.3435 75.1236C30.424 75.0132 30.4587 74.8761 30.4408 74.7407C30.423 74.6053 30.3536 74.4819 30.2472 74.3962Z" fill="black"/>
<path d="M37.0299 64.1168C34.7151 66.8104 32.5718 69.6467 30.6127 72.6091C30.2435 73.1666 31.0779 73.7943 31.4471 73.233C33.4073 70.2714 35.5508 67.4351 37.8646 64.7407C38.3003 64.2312 37.4656 63.6072 37.0299 64.1168Z" fill="black"/>
<path d="M41.7525 65.2431C40.8945 66.2718 40.2279 67.4461 39.7845 68.7101C39.2159 70.1243 38.6769 71.5421 38.1009 72.96C36.9366 75.8991 35.7723 78.8406 34.608 81.7846C34.5751 81.9089 34.5891 82.041 34.6477 82.1555C34.7063 82.2699 34.8056 82.3586 34.9257 82.4044C35.0458 82.4503 35.1786 82.4501 35.2985 82.4038C35.4185 82.3575 35.5172 82.2685 35.5755 82.1538L39.0092 73.4917C39.5742 72.0665 40.1169 70.6375 40.7039 69.2123C41.1839 68.0123 41.7008 66.8271 42.5833 65.8597C43.0374 65.376 42.1993 64.7483 41.7525 65.2431Z" fill="black"/>
<path d="M48.0072 71.6307C47.9013 71.4729 47.7774 71.3279 47.638 71.1987C47.7519 71.0665 47.8555 70.9257 47.9481 70.7778C48.17 70.4434 48.3213 70.0673 48.393 69.6724C48.4647 69.2775 48.4554 68.8722 48.3652 68.4811C48.323 68.277 48.2366 68.0845 48.1125 67.9171C47.9883 67.7496 47.8293 67.6112 47.6462 67.5114C47.4632 67.4116 47.2608 67.3529 47.0527 67.3392C46.8447 67.3256 46.636 67.3575 46.4416 67.4325C46.3143 67.4864 46.2137 67.5886 46.1618 67.7167C46.1098 67.8448 46.1108 67.9883 46.1646 68.1156C46.2185 68.2429 46.3207 68.3436 46.4488 68.3956C46.5769 68.4475 46.7203 68.4464 46.8476 68.3925C47.394 68.1488 47.431 69.1089 47.383 69.4153C47.3022 69.8617 47.0931 70.2748 46.7812 70.6042C46.7586 70.622 46.7376 70.6418 46.7185 70.6633C46.2 70.526 45.6544 70.5267 45.1363 70.6653C44.6181 70.8039 44.1453 71.0756 43.7646 71.4535C43.5099 71.7009 43.4728 72.2214 43.8937 72.347C44.3892 72.491 44.9103 72.5253 45.4204 72.4475C45.9305 72.3697 46.4175 72.1817 46.8476 71.8965C47.0309 72.0523 47.1692 72.2543 47.2478 72.4816C47.3264 72.7089 47.3427 72.9532 47.2947 73.1888C47.104 74.0327 46.6229 74.7828 45.9357 75.3082C45.3858 75.0607 44.7834 74.9529 44.1818 74.9944C43.4997 75.0108 42.8493 75.2852 42.3616 75.7624C42.2424 75.8803 42.157 76.028 42.1143 76.1902C42.0715 76.3524 42.073 76.523 42.1186 76.6844C42.1642 76.8458 42.2522 76.992 42.3735 77.1078C42.4949 77.2235 42.645 77.3047 42.8084 77.3427C43.8718 77.6159 45.068 77.1655 46.0096 76.5267C46.4884 76.9156 46.8091 77.4655 46.9118 78.0738C47.0144 78.6821 46.8918 79.3069 46.567 79.8313C46.4053 80.0776 46.2173 80.3054 46.006 80.5107C45.5605 80.1133 45.0085 79.8551 44.418 79.7679C43.8275 79.6806 43.2243 79.7681 42.6829 80.0196C42.1918 80.2818 41.5752 80.8209 41.8226 81.4301C41.9634 81.7334 42.1751 81.9984 42.4399 82.2027C42.7046 82.4071 43.0147 82.5448 43.3438 82.6042C43.7865 82.6693 44.2376 82.645 44.6708 82.5327C45.1039 82.4205 45.5103 82.2226 45.8657 81.9507C46.3038 82.7572 46.6057 83.6304 46.7592 84.5353C46.9032 85.1851 47.9371 85.0411 47.7894 84.3876C47.5494 83.3205 47.2762 82.1981 46.6817 81.2861C46.8525 81.1228 47.0127 80.9489 47.1616 80.7655C47.6067 80.2252 47.8847 79.5669 47.9614 78.8711C48.0381 78.1753 47.9103 77.4722 47.5936 76.8479C47.3938 76.4761 47.1299 76.1424 46.8144 75.8621C47.9184 74.8319 48.945 73.0929 48.0072 71.6307ZM42.9043 81.1753C43.4766 80.5956 44.4993 80.6916 45.1529 81.1495C45.0206 81.2489 44.8767 81.3319 44.7245 81.3968C44.13 81.6664 43.2957 81.7328 42.9043 81.1753ZM43.7722 76.331C43.6208 76.3495 43.4027 76.331 43.2624 76.3532C43.4211 76.2428 43.5992 76.1627 43.787 76.1169C44.1071 76.0254 44.442 75.9978 44.7728 76.0356C44.6189 76.1049 44.461 76.1654 44.3001 76.2166C44.1271 76.2674 43.9507 76.3056 43.7722 76.331Z" fill="#1D4ED8"/>
<path d="M53.169 66.6166C53.148 66.4802 53.0746 66.3574 52.9642 66.2746C52.8538 66.1917 52.7153 66.1554 52.5784 66.1735C52.4427 66.1953 52.3208 66.2693 52.2387 66.3796C52.1567 66.4899 52.1208 66.6279 52.1389 66.7642C52.1782 68.2411 52.1782 69.7181 52.1389 71.195C52.1271 71.3313 52.168 71.467 52.2532 71.5741C52.3383 71.6813 52.4613 71.7517 52.5968 71.771C52.7343 71.7855 52.8719 71.7452 52.9797 71.6588C53.0876 71.5723 53.1572 71.4468 53.173 71.3095C53.2148 69.7464 53.2133 68.1821 53.169 66.6166Z" fill="black"/>
<path d="M54.0589 83.0067L53.9849 82.571C53.9749 82.5127 53.9552 82.4564 53.9262 82.4048C53.2978 79.4819 53.0667 76.4875 53.2393 73.5027C53.2799 72.8344 52.2461 72.7126 52.2055 73.3846C52.0061 76.6639 52.2832 79.9547 53.0287 83.1544C53.1764 83.7969 54.1696 83.6787 54.0589 83.0067Z" fill="black"/>
<path d="M62.3743 81.2085C60.3554 76.3336 59.1241 71.1689 58.7264 65.9076C58.6747 65.2393 57.6445 65.3907 57.6962 66.0553C58.106 71.4056 59.3607 76.6572 61.4141 81.6147C61.468 81.742 61.5702 81.8426 61.6983 81.8946C61.8264 81.9465 61.9701 81.9455 62.0974 81.8916C62.2247 81.8377 62.3253 81.7355 62.3772 81.6074C62.4292 81.4793 62.4282 81.3358 62.3743 81.2085Z" fill="black"/>
<path d="M65.5752 68.7767C65.0284 67.0736 64.6486 65.3213 64.4416 63.5446C64.3603 62.88 63.3339 63.0277 63.4114 63.696C63.6345 65.5596 64.0375 67.3971 64.615 69.1828C64.6695 69.3096 64.772 69.4097 64.8999 69.4615C65.0277 69.5134 65.1709 69.5127 65.2983 69.4597C65.4232 69.403 65.5215 69.3005 65.5731 69.1734C65.6246 69.0463 65.6253 68.9043 65.5752 68.7767Z" fill="black"/>
<path d="M68.4589 75.7808C67.7845 74.4614 67.1842 73.1055 66.6607 71.7193C66.4244 71.0916 65.4682 71.4977 65.7045 72.1254C66.191 73.4232 66.7468 74.694 67.3696 75.9322C67.6687 76.5303 67.9865 77.1137 68.3115 77.6934C68.6364 78.2731 68.9758 78.8676 68.8761 79.5396C68.7764 80.2116 69.8106 80.3223 69.9103 79.6577C70.1207 78.2583 69.0608 76.9586 68.4589 75.7808Z" fill="black"/>
<path d="M95.0397 20.4702C95.0371 22.9735 94.1682 25.3988 92.5806 27.3342C90.0993 30.3619 85.7941 32.2597 81.8729 31.8056C79.3396 31.5187 76.9837 30.3642 75.2047 28.5379C74.0506 28.8937 72.924 29.333 71.8337 29.8523C71.7498 29.8866 71.6585 29.8986 71.5687 29.8871C71.4788 29.8756 71.3935 29.841 71.321 29.7868C71.2484 29.7325 71.1911 29.6603 71.1547 29.5773C71.1184 29.4943 71.1043 29.4034 71.1136 29.3133C71.1892 28.8368 71.4023 28.3928 71.7266 28.0357C72.0478 27.6259 72.3763 27.216 72.7012 26.8062L73.554 25.728C72.354 22.5785 72.0181 19.1077 73.58 15.9767C75.9874 11.1767 80.8981 9.69972 85.9196 10.5526C88.5042 10.9846 90.8267 11.9816 92.5658 13.9791C94.1315 15.7825 95.008 18.0821 95.0397 20.4702Z" fill="#1D4ED8"/>
<path d="M84.417 17.0141V19.4215C84.417 21.0018 84.417 22.5748 84.417 24.1514C84.4043 24.266 84.3541 24.3731 84.2739 24.456C84.1937 24.5389 84.0884 24.5928 83.9742 24.6092L83.0696 24.6314C81.6554 24.6609 81.3894 19.3181 81.1827 18.3027C81.0276 17.5643 80.8468 16.8037 80.7287 16.0504C80.6644 15.7671 80.6928 15.4706 80.8098 15.2047C80.9268 14.9388 81.1261 14.7175 81.3785 14.5735C81.9839 14.2456 82.6294 13.9974 83.2985 13.8351C83.4313 13.7898 83.5731 13.7774 83.7117 13.7987C83.8504 13.82 83.9819 13.8745 84.095 13.9575C84.2081 14.0405 84.2992 14.1496 84.3611 14.2755C84.423 14.4014 84.4539 14.5404 84.4506 14.6806C84.4764 15.4449 84.417 16.2461 84.417 17.0141Z" fill="white"/>
<path d="M85.5654 27.6479C85.4736 27.2623 85.2701 26.9124 84.9805 26.6418C84.6909 26.3713 84.3279 26.1921 83.937 26.1267C83.0693 26.0233 81.7918 26.8024 81.8731 27.7956C81.9875 29.1359 84.3839 29.7562 85.2405 28.8257C85.3871 28.6711 85.4932 28.4828 85.5499 28.2774C85.6065 28.072 85.6119 27.8558 85.5654 27.6479Z" fill="white"/>
<path d="M49.2516 16.8479C49.2294 16.9882 49.2072 17.1211 49.1777 17.2614C48.4392 20.8319 45.6515 23.2134 42.3949 24.1291L42.4169 24.3174C42.5165 25.4657 42.5833 26.6214 42.5723 27.7771C42.5583 27.8784 42.5148 27.9734 42.4475 28.0504C42.3802 28.1274 42.2921 28.1831 42.1937 28.2105C42.0952 28.238 41.9907 28.2361 41.8933 28.205C41.7959 28.1739 41.7096 28.115 41.6452 28.0356C40.8821 26.8836 40.1437 25.7193 39.4298 24.5427C36.5572 24.5611 33.6959 23.4719 31.8202 21.0904C31.2577 20.3716 30.8263 19.5591 30.5463 18.6904C29.3389 15.9396 29.4387 12.9525 31.1113 10.3716C31.9463 9.11376 33.0792 8.08199 34.4095 7.3682C35.7398 6.6544 37.226 6.28075 38.7357 6.28052C39.9822 6.32577 41.2201 6.50525 42.428 6.81588C44.6165 7.32719 46.5327 8.6425 47.7967 10.5008C49.0606 12.3591 49.5801 14.6246 49.2516 16.8479Z" fill="#1D4ED8"/>
<path d="M41.4497 10.7667C41.2555 13.1097 40.9275 15.4396 40.4675 17.7452C40.4557 17.8369 40.4201 17.924 40.3644 17.9978C40.3087 18.0716 40.2348 18.1296 40.1498 18.1661C39.8458 18.2757 39.5201 18.3121 39.1993 18.2723C38.8786 18.2325 38.5718 18.1177 38.3037 17.9372C38.2181 17.8819 38.1513 17.8021 38.1118 17.7082C37.9977 17.7056 37.8886 17.6601 37.8064 17.5807C37.7243 17.5014 37.6752 17.3939 37.6687 17.2799C37.3807 14.5845 37.0939 11.8892 36.8084 9.1938C36.7912 9.05766 36.8274 8.92016 36.9093 8.81006C36.9912 8.69995 37.1122 8.62574 37.2475 8.60299L39.0717 8.50704C39.6094 8.44192 40.1511 8.41721 40.6925 8.43316C41.8519 8.54762 41.5125 9.98765 41.4497 10.7667Z" fill="white"/>
<path d="M39.9138 20.8098C39.803 20.5431 39.6025 20.3234 39.347 20.1886C39.0915 20.0538 38.7972 20.0123 38.5144 20.0714C37.2406 20.3446 36.8785 22.0615 38.2152 22.56C38.5205 22.665 38.8527 22.6617 39.1559 22.5508C39.4591 22.4398 39.7152 22.228 39.8807 21.9508C39.9746 21.7763 40.0263 21.5823 40.0321 21.3842C40.0379 21.1862 39.9974 20.9895 39.9138 20.8098Z" fill="white"/>
</g>
<defs>
<clipPath id="clip0_158_13475">
<rect width="94.9994" height="83.3058" fill="white" transform="translate(0.369141 6.27686)"/>
</clipPath>
</defs>
</svg>
