<svg width="192" height="153" viewBox="0 0 192 153" fill="none" xmlns="http://www.w3.org/2000/svg">
<path d="M77.3477 9.16003L85.5792 6.22021L101.454 18.5674L109.098 27.9749L133.204 40.3221L152.019 50.3175L156.723 60.3129V62.0767L160.251 63.8406L166.718 67.3684L174.362 72.0721L180.241 76.7758L185.533 81.4795L189.649 89.1231L190.825 93.8268L190.237 100.294L188.473 105.586L184.945 109.114L179.653 112.054L172.598 113.818H169.658L170.246 117.933L170.834 120.285L172.598 126.753L175.538 139.688L176.126 142.04H171.422L160.839 142.628L149.079 143.216L140.26 143.804L129.676 144.392L121.445 144.98L116.741 145.568L109.098 146.156L103.806 146.743H101.454L94.2933 95.9801V100.421V105.751L93.8492 109.748L92.5168 115.077L88.5197 122.183L84.5226 128.401L76.9726 135.063L69.4225 139.504L58.3194 143.057L47.2164 143.945L33.8925 141.725L25.0104 138.172L21.0133 135.951L13.4629 130.178L6.80112 121.739L2.67615 113.301L1.02771 105.751V100.421V96.8684L2.67632 89.1231L5.61614 83.2434L7.96799 79.7157L13.2597 72.0721L17.3754 68.5443L22.6671 64.4286L28.5467 60.9008L33.8384 59.1369L42.0699 57.961H49.7134L57.3569 59.1369L62.6486 60.3129L67.3523 63.2527L70.2921 65.0166L72.056 56.1971L66.1764 40.3221L65.0004 30.9147L67.9403 18.5674L73.8199 13.2758L77.3477 9.16003Z" fill="white"/>
<path d="M109.394 146.611L100.511 147.499L44.1078 152.828L43.2196 143.946H54.7668L65.4257 141.281L80.0817 133.287L88.52 123.516L93.4054 112.413L94.7378 104.863L94.2936 97.3131L92.5171 90.8875L90.2965 86.2101L94.7378 84.4336L96.0701 86.2101L98.5152 86.7717L101.455 87.9477L106.747 89.7116H110.862H114.39L115.566 90.8875L116.742 93.2393L119.094 96.1792L122.034 97.943L122.622 99.7069V102.059L123.798 130.869L124.386 140.864V144.98H123.21L118.72 145.722L109.394 146.611Z" fill="black"/>
<path d="M168.209 74.2533C168.038 74.1873 167.858 74.149 167.676 74.1401H167.483H167.369H167.188L166.91 74.1798L166.717 74.2194C166.593 74.2194 166.462 74.2816 166.337 74.3212C165.781 74.5012 165.258 74.7707 164.789 75.1192C164.288 75.4948 163.849 75.9453 163.485 76.4549C163.117 76.9644 162.906 77.5703 162.879 78.198C162.883 78.3353 162.931 78.4676 163.017 78.5752C163.102 78.6829 163.22 78.7602 163.353 78.7958C163.486 78.8314 163.627 78.8232 163.755 78.7727C163.883 78.7221 163.991 78.6317 164.064 78.5149C164.273 78.1414 164.489 77.7622 164.733 77.383L164.806 77.2755L164.869 77.1906L164.92 77.1284L165.028 77.0038C165.177 76.843 165.336 76.6917 165.504 76.5511L165.578 76.4945L165.629 76.4549C165.714 76.3926 165.804 76.336 165.901 76.2738C166.084 76.1656 166.274 76.0673 166.468 75.9795H166.496L166.649 75.9229C166.751 75.883 166.855 75.849 166.961 75.821L167.245 75.7474C167.321 75.7306 167.395 75.7059 167.466 75.6739C167.715 75.6173 167.959 75.5777 168.209 75.4984C168.345 75.4612 168.466 75.3801 168.552 75.2676C168.639 75.1551 168.685 75.0175 168.685 74.8759C168.685 74.7343 168.639 74.5966 168.552 74.4841C168.466 74.3716 168.345 74.2905 168.209 74.2533Z" fill="black"/>
<path d="M176.969 142.795L175.189 142.868C175.132 142.534 175.07 142.2 175.013 141.866L174.894 141.255C174.083 136.903 173.153 132.574 172.059 128.278C171.492 126.014 170.896 123.699 170.256 121.424C169.949 120.326 169.634 119.234 169.309 118.147C169.025 117.191 168.43 115.884 168.912 114.927C168.997 114.786 169.134 114.683 169.294 114.642C169.455 114.6 169.625 114.624 169.768 114.707C170.288 115.072 170.648 115.623 170.771 116.246C170.993 116.868 171.197 117.491 171.39 118.119C171.764 119.376 172.138 120.638 172.495 121.9C173.765 126.427 174.826 130.955 175.716 135.567C176.085 137.429 176.408 139.308 176.703 141.182C176.782 141.646 176.845 142.098 176.918 142.557C176.941 142.636 176.952 142.698 176.969 142.795Z" fill="black"/>
<path d="M158.116 60.8231C158.055 60.9916 157.963 61.1472 157.844 61.2815C157.708 61.4419 157.529 61.5594 157.328 61.6197C157.126 61.68 156.912 61.6805 156.71 61.6211C156.563 61.5832 156.426 61.5163 156.305 61.4244C156.185 61.3325 156.084 61.2175 156.009 61.0861C155.934 60.9548 155.886 60.8097 155.868 60.6596C155.85 60.5094 155.863 60.3572 155.905 60.2119C156.341 59.0864 156.573 57.8926 156.591 56.6861C156.625 51.3435 153.053 46.8499 148.885 43.9013C144.247 40.6131 138.854 38.6549 133.944 35.8309C131.482 34.4621 129.216 32.7678 127.207 30.794C125.395 28.8721 123.812 26.7469 122.49 24.461C119.808 19.9844 117.71 15.0549 114.16 11.1725C110.562 7.32668 105.836 4.71737 100.659 3.719C95.3801 2.69578 89.9191 3.17026 84.8963 5.08858C79.7607 7.00122 75.1614 10.1186 71.4862 14.1777C68.0387 17.9809 65.3225 22.8254 64.7838 27.9982C64.1431 34.133 66.6152 39.9227 67.9874 45.7859C69.1668 50.8794 69.5751 56.6294 66.757 61.2363C66.6833 61.3608 66.6041 61.4796 66.5247 61.6098C66.4108 61.7706 66.2404 61.883 66.0474 61.9246C65.8545 61.9662 65.6529 61.9341 65.4826 61.8345C65.3123 61.7349 65.1857 61.5751 65.1277 61.3868C65.0697 61.1985 65.0846 60.9953 65.1695 60.8175L65.2999 60.5741C65.9015 59.4632 66.3405 58.2721 66.6039 57.0369C67.8797 51.2303 65.7988 45.4067 64.2168 39.8944C63.2501 36.8538 62.6617 33.7062 62.4648 30.5223C62.3966 27.742 62.8446 24.9732 63.786 22.3557C65.6515 17.1489 69.1954 12.6214 73.4254 9.13512C77.8517 5.44074 83.1021 2.86129 88.7351 1.61369C94.2522 0.421044 99.995 0.813507 105.298 2.74559C110.472 4.65378 114.943 8.08594 118.118 12.5874C121.26 16.9961 123.318 22.0727 126.51 26.4475C128.113 28.644 130.074 30.557 132.311 32.107C134.788 33.7491 137.384 35.2038 140.079 36.4591C145.228 38.9776 150.677 41.4734 154.515 45.8708C158.037 49.8437 160.089 55.6673 158.116 60.8231Z" fill="black"/>
<path d="M156.591 56.6746C156.573 57.8811 156.341 59.075 155.905 60.2004L152.678 58.3894C152.465 58.2594 152.212 58.2102 151.965 58.2507C151.719 58.2912 151.495 58.4187 151.335 58.6101C151.254 58.3801 151.156 58.1568 151.04 57.9423C149.089 54.258 143.952 54.0882 140.414 54.9201C138.34 55.463 136.319 56.1903 134.375 57.0934C133.445 57.5009 132.515 57.9027 131.591 58.3158C130.99 57.0764 129.413 56.4708 128.16 56.1143C126.756 55.7352 125.288 55.6561 123.851 55.8822C122.525 56.079 121.248 56.5225 120.086 57.1896C118.385 55.52 115.623 56.0577 113.724 57.1556C113.227 57.4427 112.753 57.7682 112.306 58.1291C112.269 58.1232 112.23 58.1232 112.193 58.1291C110.685 58.168 109.194 58.4568 107.781 58.9837C107.732 59.3075 107.658 59.6273 107.56 59.9401C107.495 60.1386 107.37 60.3122 107.202 60.4374C107.035 60.5627 106.833 60.6335 106.624 60.6403C106.415 60.6471 106.208 60.5895 106.033 60.4754C105.858 60.3613 105.722 60.1962 105.644 60.0023C105.608 59.8967 105.591 59.7856 105.593 59.6741C105.593 58.678 105.82 57.6424 105.91 56.6463C106.001 55.6502 106.069 54.6089 106.109 53.5902C106.177 51.5973 106.137 49.6023 105.989 47.6137C105.836 45.6386 105.564 43.6521 105.23 41.7109C105.054 40.7035 104.856 39.7018 104.623 38.7114C104.422 37.9848 104.281 37.2427 104.203 36.4929C104.186 36.2498 104.186 36.0059 104.203 35.7628C104.243 35.3157 104.839 34.9309 105.19 35.3553C105.413 35.6243 105.604 35.9187 105.757 36.2325C105.829 36.0471 105.839 35.8436 105.785 35.6521C105.732 35.4605 105.619 35.291 105.462 35.1686C105.23 34.9988 105.054 34.7498 104.821 34.5687C104.589 34.3876 104.356 34.2404 104.113 34.0819C103.625 33.782 103.132 33.516 102.65 33.1821C101.89 32.6954 101.136 32.203 100.382 31.6823C100.492 29.9987 100.12 28.3186 99.31 26.8378C97.5636 23.6798 93.878 22.1744 90.3908 22.5026C88.6967 20.4951 87.1594 18.3609 85.7923 16.1188C85.1232 15.0208 84.4937 13.9003 83.904 12.757C83.2973 11.5855 82.8324 10.3518 81.9648 9.36136C81.8197 9.22527 81.6279 9.14951 81.4288 9.14951C81.2297 9.14951 81.0382 9.22527 80.8931 9.36136C80.7975 9.27607 80.6819 9.21627 80.557 9.18757C80.4321 9.15888 80.3018 9.16219 80.1785 9.19721C79.9455 9.20238 79.7163 9.2553 79.5046 9.35265C79.2929 9.45001 79.1034 9.58973 78.9481 9.76316C78.6079 10.0292 78.2905 10.3291 77.973 10.6177C77.3352 11.2054 76.7277 11.8249 76.1528 12.4741C74.9808 13.7838 73.9434 15.2076 73.0566 16.7243C72.1846 18.244 71.4558 19.8412 70.8793 21.4953C70.6018 22.2775 70.3764 23.0773 70.2046 23.8892C70.0638 24.4578 69.9915 25.041 69.9892 25.6267C69.6024 25.7735 69.2334 25.9634 68.8892 26.1926C67.9366 26.8378 67.5573 27.8545 67.3532 29.1505C68.833 27.6791 67.8125 30.8421 67.3532 29.7385C65.8619 32.3079 66.4055 34.9598 67.9875 37.382C69.1668 39.2012 70.5662 40.8727 72.6448 41.4978C72.7593 42.2482 72.9 43.755 73.2328 44.4376C73.6352 45.469 74.4924 46.3916 74.9967 47.3774C76.0011 49.3715 76.973 50.4738 78.5245 52.0811C80.0351 53.6814 82.9758 55.1267 84.9921 56.0124C87.0084 56.8981 87.4931 56.754 89.6958 56.7848C91.958 56.8171 94.212 56.1638 96.1634 55.0209C96.4866 55.485 97.7735 56.9427 98.1023 57.3728C98.6183 58.0406 99.1752 58.4745 99.6912 59.1367C100.678 60.4101 101.593 61.4364 102.631 62.6645C101.348 63.0496 99.6308 64.8637 98.5152 65.6043C96.8748 66.6233 95.6239 67.6402 94.3995 69.1321C93.186 70.5979 92.2291 71.3066 92.0476 73.2478C91.986 73.7951 92.1382 74.5043 92.3526 75.0117C92.5671 75.5191 92.7878 76.4378 93.2236 76.7756L90.2837 78.5395C89.5126 78.9356 87.5101 79.3023 86.756 79.7154C81.4871 72.0335 74.0163 65.4787 65.5893 61.4885C68.4244 56.8817 67.9449 51.2724 66.7655 46.2015C65.3933 40.3383 63.7725 33.5215 64.4132 27.3867C64.9519 22.2139 68.0213 17.0787 71.4688 13.2755C75.144 9.21641 79.8562 6.36856 84.9918 4.45592C90.0146 2.53759 95.3801 2.66167 100.659 3.68488C105.836 4.68326 110.562 7.29257 114.16 11.1384C117.71 15.0208 119.831 19.9502 122.49 24.4269C123.812 26.7128 126.101 28.4044 127.913 30.3263C129.921 32.3002 131.912 33.1999 134.375 34.5687C139.285 37.3984 145.029 39.9734 149.668 43.2615C153.835 46.2271 156.625 51.3264 156.591 56.6746Z" fill="black"/>
<path d="M105.763 36.2159C105.739 36.3103 105.694 36.3983 105.632 36.4734C105.57 36.5486 105.492 36.6092 105.403 36.6508C105.315 36.6924 105.219 36.7141 105.121 36.7142C105.023 36.7144 104.927 36.693 104.839 36.6517C104.632 36.5775 104.419 36.5189 104.203 36.4762C104.077 36.4505 103.954 36.4126 103.835 36.363C103.484 36.223 103.143 36.0585 102.814 35.8707C102.247 35.5481 101.68 35.2198 101.158 34.8803C100.75 34.6199 100.342 34.3596 99.9394 34.0766C99.2628 33.6163 98.5974 33.1372 97.9435 32.6391L97.8131 32.5486C94.8482 30.3093 92.12 27.7739 89.6707 24.9818C89.1036 24.348 88.5366 23.7028 88.0432 23.0407C87.8845 22.8482 87.7315 22.6501 87.5784 22.4747C86.093 20.5692 84.7366 18.567 83.5184 16.4813C82.9514 15.4626 82.3844 14.4156 81.8627 13.3629C81.4509 12.5889 81.1128 11.7779 80.8533 10.9407C80.7569 10.6022 80.6924 10.2555 80.6606 9.905C80.652 9.79686 80.6711 9.68833 80.7157 9.58941C80.7603 9.49049 80.8291 9.40437 80.9158 9.33905C81.0609 9.20296 81.2525 9.1272 81.4516 9.1272C81.6507 9.1272 81.8422 9.20296 81.9873 9.33905C82.8549 10.3521 83.3201 11.6028 83.9268 12.7347C84.5335 13.8666 85.1456 14.9985 85.8147 16.0965C87.1819 18.3386 88.7194 20.4729 90.4135 22.4804C91.0826 23.284 91.7838 24.0707 92.5171 24.8404C93.1371 25.4969 93.7759 26.1401 94.4336 26.7702C95.5677 27.8625 96.7755 28.9039 98.0116 29.8829C98.5786 30.33 99.1456 30.7658 99.7127 31.1846C99.9338 31.3488 100.161 31.5072 100.387 31.66C101.125 32.1807 101.879 32.6731 102.655 33.1598C103.137 33.4711 103.631 33.7597 104.118 34.0596C104.362 34.2181 104.6 34.3766 104.827 34.5464C105.054 34.7162 105.235 34.9765 105.468 35.1463C105.626 35.2691 105.74 35.4396 105.793 35.6323C105.846 35.825 105.836 36.0297 105.763 36.2159Z" fill="black"/>
<path d="M33.2175 105.126C33.2175 105.171 33.1777 105.341 33.1721 105.352C33.1384 105.823 33.2388 106.294 33.4614 106.71C33.583 106.94 33.7356 107.151 33.9149 107.339C34.1861 107.626 34.5118 107.857 34.8731 108.018C34.8731 108.018 34.9017 108.018 34.913 108.018H34.9526L35.1171 108.08C35.2152 108.114 35.3155 108.14 35.4175 108.159H35.5479H35.5877H35.735H35.8939C36.2235 108.141 36.5475 108.248 36.801 108.459C36.8941 108.545 36.961 108.656 36.9931 108.778C37.0253 108.9 37.0216 109.029 36.9826 109.15C36.8759 109.394 36.6896 109.596 36.4541 109.722C36.2185 109.849 35.9474 109.892 35.6841 109.846C35.6068 109.854 35.5288 109.854 35.4515 109.846C34.5706 109.744 33.7398 109.383 33.0644 108.81C32.9566 108.731 32.8602 108.635 32.7581 108.544C32.1234 107.922 31.6975 107.12 31.5391 106.246C31.3729 105.391 31.5112 104.504 31.9303 103.739C32.0159 103.577 32.1145 103.422 32.2252 103.275C32.7635 102.52 33.5247 101.952 34.4025 101.651L34.5273 101.605C35.2957 101.391 36.1125 101.429 36.8577 101.713C36.9815 101.753 37.1027 101.8 37.2207 101.854C37.8444 102.12 37.385 103.071 36.7783 102.907C36.7001 102.885 36.6206 102.868 36.5402 102.856C36.3965 102.828 36.2499 102.816 36.1035 102.822C35.9103 102.848 35.7202 102.893 35.5365 102.958C35.1217 103.054 34.728 103.225 34.3742 103.462C34.2122 103.555 34.0651 103.671 33.9376 103.807L33.8867 103.852C33.7578 103.969 33.6469 104.105 33.5577 104.254C33.4918 104.346 33.433 104.442 33.3819 104.543C33.3634 104.585 33.3427 104.627 33.3196 104.667V104.724C33.2516 104.911 33.2175 105.018 33.2175 105.126Z" fill="black"/>
<path d="M67.1142 122.952C65.4582 121.907 64.0779 120.481 63.0886 118.793C61.0983 115.505 60.2532 111.367 59.7429 107.723C59.4594 105.742 59.2156 103.671 58.8074 101.639C58.1666 98.4469 57.1065 95.3625 54.8667 92.9233C54.6796 92.7195 54.4925 92.5271 54.2997 92.3573C53.9653 92.0485 53.6129 91.7594 53.2448 91.4914C52.7218 91.1222 52.1634 90.8056 51.5778 90.5463C50.6797 90.1462 49.722 89.8957 48.7427 89.8049L48.2438 89.7653C47.6764 89.743 47.1081 89.7581 46.5427 89.8105C44.911 89.9729 43.3292 90.4639 41.893 91.2537C37.9578 93.4213 35.531 97.4791 34.3686 101.746C34.2552 102.143 34.1589 102.544 34.0682 102.946C33.9774 103.348 33.932 103.614 33.8696 103.948C33.7408 104.065 33.6299 104.2 33.5407 104.35C33.4748 104.441 33.416 104.538 33.3649 104.638C33.3464 104.681 33.3257 104.723 33.3026 104.763V104.819C33.2629 104.927 33.2346 105.035 33.2063 105.142C33.1779 105.25 33.1665 105.357 33.1609 105.368C33.1272 105.839 33.2276 106.31 33.4502 106.727C33.3368 107.457 33.2119 108.187 33.0532 108.906C32.8731 109.739 32.6267 110.556 32.3161 111.351C31.8754 112.515 31.245 113.599 30.4506 114.559C29.738 115.456 28.7361 116.078 27.6155 116.32C27.5236 116.341 27.4278 116.337 27.3378 116.309C27.2478 116.281 27.167 116.229 27.1038 116.159C27.0407 116.089 26.9977 116.004 26.979 115.912C26.9602 115.819 26.9664 115.724 26.9972 115.635C27.0207 115.57 27.0597 115.512 27.1108 115.465C27.7402 114.831 28.3753 114.226 28.9367 113.546C29.2384 113.182 29.5077 112.792 29.7418 112.381L29.929 112.041C30.5021 110.896 30.9177 109.68 31.1649 108.425C31.3124 107.734 31.4371 107.044 31.5448 106.348C31.6809 105.51 31.8002 104.65 31.9363 103.84C32.1566 102.189 32.5363 100.563 33.0703 98.9846C34.7714 94.1683 38.3492 89.9294 43.305 88.2768C45.5104 87.4975 47.8912 87.3549 50.1741 87.8655C52.457 88.3761 54.5491 89.5191 56.2104 91.1632C56.4101 91.3568 56.5993 91.5608 56.7774 91.7744C56.8568 91.8536 56.925 91.9385 56.9931 92.0177C58.0831 93.3787 58.9692 94.8905 59.6239 96.5057C59.828 97.0094 60.0151 97.5244 60.1909 98.0394C61.2115 101.118 61.6765 104.429 62.1641 107.627C62.2605 108.3 62.3683 108.968 62.493 109.641C62.493 109.721 62.5214 109.811 62.5385 109.896C62.6122 110.292 62.6915 110.688 62.7879 111.085C62.8389 111.334 62.89 111.577 62.9524 111.826C63.2309 113.042 63.6102 114.233 64.0864 115.386C65.0414 117.675 66.5561 119.689 68.4922 121.243C68.6502 121.366 68.7636 121.537 68.8153 121.73C68.8538 121.945 68.8309 122.167 68.7486 122.37C68.6663 122.572 68.5283 122.748 68.3505 122.876C68.1726 123.003 67.9622 123.078 67.7436 123.092C67.5249 123.106 67.3066 123.057 67.1142 122.952Z" fill="black"/>
<path d="M58.8015 101.634C58.8308 102.737 58.7107 103.839 58.4444 104.911C57.6108 108.216 54.8153 111.215 51.2998 111.306C51.3452 112.217 51.3961 113.128 51.4471 114.039C51.4981 115.081 51.623 116.15 51.6287 117.203C51.6287 117.395 51.6287 117.594 51.6287 117.769C51.6252 117.834 51.6156 117.898 51.6002 117.961C51.5598 118.094 51.4964 118.218 51.413 118.329C51.2411 118.523 51.01 118.654 50.7555 118.703C50.6419 118.74 50.5214 118.751 50.403 118.736C50.2846 118.72 50.1712 118.679 50.0708 118.614C49.9704 118.55 49.8857 118.464 49.8227 118.363C49.7597 118.262 49.7199 118.148 49.7064 118.029C49.5693 116.743 49.4975 115.451 49.491 114.158C49.4457 112.862 49.4003 111.572 49.3266 110.276C49.3258 110.149 49.3504 110.022 49.3988 109.905C49.4473 109.787 49.5185 109.68 49.6087 109.59C49.6989 109.5 49.8061 109.429 49.924 109.38C50.042 109.332 50.1686 109.307 50.2961 109.308C51.2619 109.386 52.2312 109.21 53.1083 108.799C53.9854 108.388 54.7399 107.756 55.2972 106.965C56.5503 105.267 56.8791 103.003 56.7657 100.955C56.7657 100.955 56.7657 100.904 56.7657 100.875C56.7389 100.407 56.6843 99.9399 56.6015 99.4776C56.1907 97.0924 55.2038 94.8431 53.7265 92.9239C53.6654 92.8335 53.5991 92.7465 53.528 92.6636C53.2955 92.3806 53.0403 92.0976 52.7852 91.843C52.3516 91.4287 51.948 90.9843 51.5775 90.513C51.524 90.4537 51.4765 90.3892 51.4357 90.3206C51.1295 89.8791 51.6457 89.1434 52.173 89.3641C53.9932 90.1168 55.4446 92.1486 56.4426 93.7729C57.9012 96.1435 58.7144 98.8532 58.8015 101.634Z" fill="black"/>
<path d="M33.7844 134.69C33.5951 134.507 33.3419 134.405 33.0784 134.405C32.8149 134.405 32.5617 134.507 32.3724 134.69C31.6032 135.54 30.9303 136.472 30.3654 137.469C30.0755 137.979 29.8178 138.506 29.594 139.048C29.3559 139.614 28.976 140.423 29.3446 141.006C29.4335 141.155 29.5686 141.27 29.7292 141.336C29.8897 141.401 30.0673 141.412 30.235 141.368C30.8644 141.17 31.0912 140.48 31.369 139.942C31.6469 139.404 31.8508 138.997 32.1116 138.538C32.3724 138.08 32.6446 137.661 32.9394 137.237L33.3819 136.637L33.6313 136.297C33.6773 136.234 33.7267 136.174 33.7789 136.116C33.9653 135.926 34.0699 135.67 34.071 135.404C34.072 135.138 33.9693 134.882 33.7844 134.69Z" fill="black"/>
<path d="M48.2885 89.641C48.2885 89.6749 48.2601 89.7089 48.2431 89.7485C48.0844 90.1899 47.9086 90.6314 47.7329 91.0671C47.5117 91.6331 47.2791 92.199 47.0523 92.765C46.8255 93.3309 46.5704 93.9648 46.3549 94.5817C45.7526 96.2506 45.2416 97.9509 44.8241 99.6752C43.9775 103.116 43.5207 106.642 43.463 110.185C43.4002 113.318 43.6452 116.449 44.1945 119.534C44.3476 120.395 44.5349 121.289 44.6596 122.183C44.739 122.704 44.8014 123.224 44.8354 123.739C45.0272 125.44 44.5629 127.15 43.5369 128.522C41.7735 130.717 38.7058 130.899 36.8403 128.72C34.9068 126.456 35.3717 123.4 34.8444 120.683C34.6933 119.555 34.256 118.483 33.5741 117.57C33.1605 117.083 32.6177 116.722 32.0079 116.529C31.3981 116.336 30.746 116.318 30.1266 116.478C28.7747 116.871 27.5248 117.552 26.4636 118.476C25.3376 119.384 24.28 120.373 23.2996 121.436C22.982 121.775 22.6704 122.126 22.3699 122.483C21.7662 123.19 21.1984 123.926 20.6688 124.69C19.1434 126.864 17.9083 129.227 16.9945 131.719C16.6656 132.625 16.3763 133.547 16.1381 134.481C15.4917 133.977 14.8679 133.468 14.2612 132.925C14.5334 131.991 14.8284 131.068 15.2139 130.168C16.5641 126.743 18.4936 123.575 20.9182 120.802C21.4853 120.163 22.0523 119.546 22.6761 118.963C23.9514 117.667 25.3995 116.553 26.9797 115.652C27.9364 115.124 28.9818 114.775 30.0643 114.622C30.1947 114.622 30.3195 114.588 30.45 114.582C33.0923 114.378 35.1903 115.895 36.1656 118.363C36.6074 119.584 36.8783 120.86 36.9707 122.155C37.1125 123.569 37.0897 125.069 37.6624 126.405C38.1103 127.452 39.1196 128.578 40.3784 128.408C41.5125 128.261 42.3461 127.237 42.726 126.252C43.3214 124.679 42.947 122.856 42.6465 121.283C42.346 119.71 42.0795 118.153 41.9264 116.569C41.5995 113.449 41.5731 110.305 41.8472 107.18C42.1176 104.014 42.6756 100.879 43.5142 97.8132C43.8771 96.5115 44.2683 95.1816 44.7446 93.8799C44.9714 93.246 45.221 92.6235 45.4875 92.0066C45.8089 91.2642 46.1684 90.5388 46.5648 89.8334C46.7008 89.59 46.8425 89.358 46.9842 89.126C47.3925 88.4185 48.5777 88.8543 48.2885 89.641Z" fill="black"/>
<path d="M79.4188 135.183C78.8121 135.659 78.1883 136.112 77.5533 136.553C77.3712 136.247 77.2231 135.923 77.1111 135.585C76.9353 135.116 76.7482 134.657 76.5441 134.199L76.4023 133.888C75.8824 132.789 75.2892 131.726 74.6273 130.707C72.171 126.941 68.767 123.885 64.7556 121.844C62.6003 120.776 60.3121 120 57.9513 119.535C56.7783 119.297 55.5905 119.138 54.3961 119.06C53.8687 119.026 53.3469 119.014 52.8196 119.009H52.4965C52.23 119.009 51.9295 119.009 51.68 119.009C51.5502 118.991 51.4228 118.958 51.3001 118.912C51.1357 118.862 50.9769 118.799 50.8068 118.754H50.7558C50.6423 118.714 50.5427 118.643 50.469 118.548C50.3953 118.453 50.3507 118.339 50.3405 118.219C50.3303 118.1 50.3548 117.98 50.4114 117.874C50.468 117.768 50.554 117.68 50.6592 117.622C50.9652 117.446 51.2932 117.311 51.6346 117.22H51.68C52.0666 117.159 52.4568 117.123 52.8481 117.113C53.5507 117.076 54.2546 117.076 54.9573 117.113C57.7417 117.237 60.4878 117.81 63.0886 118.811C65.0881 119.556 66.9916 120.536 68.7588 121.731C70.0412 122.589 71.2491 123.553 72.3706 124.612C74.1 126.256 75.6147 128.112 76.8785 130.135C77.4198 131.007 77.9121 131.908 78.3529 132.835C78.4209 132.971 78.489 133.118 78.5514 133.254C78.8892 133.874 79.1791 134.519 79.4188 135.183Z" fill="black"/>
<path d="M56.142 98.0969C55.11 97.2253 53.8738 96.2519 53.4996 94.888C53.2558 94.0108 53.4543 92.7431 54.4296 92.2563C54.5041 92.2255 54.5717 92.1803 54.6287 92.1233C54.6856 92.0664 54.7308 91.9989 54.7616 91.9245C54.7924 91.8502 54.8081 91.7704 54.8081 91.69C54.808 91.6095 54.7922 91.5298 54.7613 91.4555C54.7304 91.3812 54.6852 91.3137 54.6281 91.2568C54.5711 91.1999 54.5033 91.1549 54.4288 91.1241C54.3543 91.0934 54.2743 91.0776 54.1937 91.0776C54.1131 91.0777 54.0334 91.0936 53.9589 91.1244C52.2919 91.6281 51.6567 93.3882 51.8949 94.9898C52.1727 96.8009 53.6755 98.1083 55.008 99.2119C55.1609 99.3572 55.3639 99.4382 55.575 99.4382C55.7861 99.4382 55.9891 99.3572 56.142 99.2119C56.2865 99.0621 56.3671 98.8623 56.3671 98.6544C56.3671 98.4465 56.2865 98.2466 56.142 98.0969Z" fill="black"/>
<path d="M49.4798 95.8049C49.4758 95.6962 49.4422 95.5906 49.3832 95.4992C49.321 95.4065 49.251 95.3194 49.1736 95.2389L49.0828 95.1427L48.8956 94.9559C48.783 94.8491 48.6473 94.7697 48.4989 94.7239H48.255C48.096 94.7237 47.9398 94.7646 47.8015 94.8427C47.7005 94.8984 47.6145 94.9782 47.5517 95.0748C47.4727 95.1609 47.4181 95.2663 47.3931 95.3804C47.3592 95.4968 47.3592 95.6205 47.3931 95.7369C47.3974 95.8552 47.4326 95.9703 47.4952 96.0708C47.576 96.2023 47.6867 96.3128 47.8183 96.3935L48.0337 96.535L48.1414 96.6029L48.255 96.6651L48.459 96.75C48.5668 96.7783 48.6801 96.7783 48.7879 96.75C48.8616 96.7493 48.9339 96.7298 48.9978 96.6934C49.1017 96.6582 49.1952 96.598 49.27 96.518L49.4004 96.3481L49.4854 96.1501C49.5171 96.0369 49.5152 95.9169 49.4798 95.8049Z" fill="black"/>
<path d="M56.3634 99.5623C56.284 99.602 56.216 99.6472 56.1367 99.6925C55.9288 99.7306 55.7339 99.8201 55.5696 99.9528L55.4223 100.066L55.3769 100.1C55.4223 100.066 55.428 100.066 55.3769 100.1L55.1671 100.247C55.0302 100.331 54.8882 100.407 54.7418 100.474L54.6795 100.502L54.4356 100.581C54.2938 100.626 54.1464 100.666 53.999 100.7L53.7495 100.751H53.6759C53.5454 100.751 53.4149 100.785 53.2902 100.813H53.1938H52.9386H52.8934H52.7968C52.6576 100.778 52.5108 100.794 52.3821 100.857C52.2533 100.92 52.1512 101.027 52.0938 101.158C52.0297 101.29 52.0193 101.442 52.0648 101.581C52.1102 101.72 52.2081 101.837 52.3378 101.905C52.7226 102.079 53.1286 102.201 53.5455 102.268C53.9886 102.32 54.4378 102.283 54.8667 102.16C55.2648 102.049 55.6462 101.885 56.0007 101.673C56.206 101.553 56.3963 101.408 56.5677 101.243C56.6455 101.167 56.7174 101.086 56.7831 101C56.8975 100.855 56.9595 100.675 56.959 100.491C57.0068 100.376 57.0428 100.256 57.0667 100.134C57.1033 100.04 57.1092 99.9372 57.0836 99.8399C57.0579 99.7426 57.002 99.6559 56.9238 99.5924C56.8456 99.5288 56.7493 99.4917 56.6486 99.4863C56.5479 99.4809 56.448 99.5075 56.3634 99.5623Z" fill="black"/>
<path d="M39.3974 98.5554C39.1592 99.8627 38.7056 101.136 38.371 102.421C38.0533 103.674 37.8015 104.944 37.6168 106.224C37.4383 107.511 37.3364 108.807 37.3109 110.106C37.2769 111.402 37.4298 112.71 37.1633 113.977C37.1363 114.07 37.0833 114.152 37.0105 114.215C36.9377 114.277 36.8482 114.318 36.753 114.331C36.6578 114.344 36.5608 114.329 36.4736 114.289C36.3865 114.248 36.3129 114.183 36.2618 114.102C35.6948 112.851 35.6948 111.465 35.6608 110.106V109.959C35.6608 109.393 35.6607 108.827 35.7117 108.261C35.7571 107.509 35.8364 106.756 35.9385 105.998C36.0727 104.973 36.262 103.957 36.5055 102.953C36.6019 102.585 36.6984 102.223 36.8062 101.855V101.81C37.133 100.509 37.6691 99.2708 38.3937 98.1422C38.4707 98.0481 38.5761 97.9811 38.6941 97.9513C38.8122 97.9216 38.9368 97.9305 39.0493 97.9768C39.1619 98.0232 39.2566 98.1044 39.3193 98.2086C39.382 98.3128 39.4093 98.4344 39.3974 98.5554Z" fill="black"/>
<path d="M48.26 91.0672C48.0846 91.0502 47.9082 91.0502 47.7328 91.0672C47.1131 91.1105 46.5134 91.3048 45.9864 91.6331C45.8061 91.7389 45.6354 91.8601 45.4761 91.9953C45.3481 92.1089 45.2269 92.2298 45.1131 92.3575C44.969 92.517 44.8398 92.6893 44.7274 92.8725C44.6821 92.9687 44.6424 93.0819 44.597 93.1781C44.543 93.3203 44.543 93.4774 44.597 93.6196C44.6084 93.717 44.6573 93.8063 44.7333 93.8686C44.7899 93.9139 44.8577 93.943 44.9296 93.953C45.0014 93.963 45.0745 93.9533 45.1414 93.9252C45.3464 93.8679 45.5313 93.7541 45.6746 93.5969C45.7248 93.5468 45.7777 93.4996 45.8333 93.4554L45.9182 93.3705H45.9468L46.0204 93.314L46.0941 93.2687C46.1586 93.2201 46.2268 93.1766 46.2981 93.1386C46.4342 93.0593 46.5761 92.9857 46.7178 92.9122H46.786C46.8601 92.8834 46.9358 92.8589 47.0127 92.8386H47.0468C47.1828 92.799 47.3131 92.7537 47.4549 92.7254H47.5626H47.6307H47.7724C47.933 92.7168 48.0939 92.7168 48.2545 92.7254C48.3555 92.7254 48.4555 92.7055 48.5488 92.6667C48.642 92.628 48.7265 92.5711 48.7977 92.4996C48.8688 92.428 48.9251 92.3432 48.9632 92.2498C49.0014 92.1565 49.0207 92.0565 49.02 91.9557C49.0343 91.8465 49.0256 91.7356 48.9942 91.63C48.9629 91.5244 48.9094 91.4266 48.8378 91.3428C48.7662 91.2591 48.6779 91.1913 48.5784 91.1438C48.4789 91.0963 48.3703 91.0702 48.26 91.0672Z" fill="black"/>
<path d="M56.7319 91.7633C56.5872 91.7636 56.4477 91.7086 56.3423 91.6098C56.2369 91.5109 56.1735 91.3755 56.1648 91.2314C56.162 91.205 56.162 91.1784 56.1648 91.1521C56.3645 91.3457 56.5538 91.5497 56.7319 91.7633Z" fill="black"/>
<path d="M58.5352 90.5857H58.4898C58.2986 90.2385 58.1393 89.8748 58.0136 89.4991C57.9058 89.1934 58.3141 88.8539 58.5806 89.0633C58.8329 89.2539 59.0718 89.462 59.2952 89.6858C59.3122 89.796 59.3052 89.9085 59.275 90.0159C59.2448 90.1232 59.1919 90.2228 59.1199 90.3081C59.0479 90.3933 58.9586 90.4622 58.8577 90.5101C58.7569 90.558 58.6469 90.5837 58.5352 90.5857Z" fill="black"/>
<path d="M79.8268 94.1912C79.6429 94.2836 79.4535 94.3649 79.2598 94.4345C78.1938 94.825 77.74 93.1271 78.7946 92.7366C78.946 92.6799 79.0939 92.6137 79.2371 92.5386C79.3731 92.5747 79.4971 92.6461 79.5967 92.7455C79.6963 92.8449 79.7679 92.9687 79.8041 93.1045C79.8742 93.4627 79.8819 93.8304 79.8268 94.1912Z" fill="black"/>
<path d="M79.8266 94.1909C79.7686 94.5994 79.685 95.0039 79.5768 95.402C79.4021 96.0809 79.1748 96.745 78.8966 97.3885C78.3711 98.6078 77.6447 99.7308 76.7475 100.711C76.7021 100.767 76.651 100.812 76.5999 100.869C76.4135 101.051 76.1632 101.153 75.9025 101.153C75.6418 101.153 75.3915 101.051 75.2051 100.869C75.0584 100.725 74.9647 100.535 74.9387 100.331C74.9069 100.125 74.9447 99.914 75.0464 99.7315C75.0826 99.647 75.1346 99.5703 75.1995 99.5052L75.4094 99.2674C76.1166 98.4286 76.7059 97.4975 77.1614 96.5C77.3991 95.9514 77.5888 95.3833 77.7285 94.8021C77.8369 94.1636 77.9981 93.5352 78.2105 92.9232C78.2976 92.7471 78.449 92.6112 78.6338 92.5438C78.8186 92.4763 79.0224 92.4825 79.2028 92.561C79.3388 92.5971 79.4629 92.6684 79.5624 92.7678C79.662 92.8672 79.7336 92.9911 79.7698 93.1269C79.8486 93.4759 79.8678 93.8356 79.8266 94.1909Z" fill="black"/>
<path d="M95.2837 109.014C95.1703 109.704 95.0342 110.395 94.8811 111.079C94.4502 110.757 94.0022 110.457 93.5372 110.163C93.231 109.976 92.9192 109.789 92.6017 109.597C91.2943 108.861 89.9125 108.265 88.4794 107.82C86.799 107.292 85.0607 106.971 83.3025 106.863H82.9113C82.3783 106.863 81.8565 106.863 81.3348 106.863C80.0035 106.93 78.6778 107.081 77.3657 107.316C77.1126 107.378 76.8454 107.341 76.6187 107.213C76.392 107.084 76.2231 106.874 76.1466 106.625C75.8801 105.42 75.608 104.226 75.3415 103.026C75.0682 102.154 74.9267 101.246 74.9218 100.332C74.9305 100.126 74.967 99.9226 75.0297 99.7265C75.0422 99.6748 75.0571 99.6238 75.0749 99.5737C75.0989 99.4965 75.1413 99.4261 75.1986 99.3689C75.2559 99.3117 75.3264 99.2694 75.4038 99.2454C75.4883 99.2154 75.5797 99.2102 75.6671 99.2302C75.7545 99.2503 75.8343 99.2948 75.8972 99.3586C76.2764 99.7445 76.5599 100.213 76.725 100.728C76.9291 101.294 77.0424 101.934 77.1899 102.534C77.3997 103.411 77.6095 104.288 77.825 105.171C79.295 104.847 80.8 104.71 82.3044 104.763C82.8122 104.768 83.3195 104.798 83.8242 104.854C85.5816 105.023 87.3156 105.381 88.9955 105.924C90.3466 106.359 91.656 106.914 92.9079 107.582C93.4749 107.882 94.0421 108.21 94.5807 108.567C94.8359 108.697 95.0569 108.855 95.2837 109.014Z" fill="black"/>
<path d="M68.2312 101.752C67.5757 101.56 66.9366 101.316 66.3202 101.022C65.6936 100.695 65.1059 100.298 64.5682 99.8395C63.4843 98.9026 62.6142 97.7447 62.0166 96.4438C61.9023 96.258 61.7208 96.1232 61.5097 96.0674C61.2985 96.0115 61.074 96.0389 60.8826 96.1438C60.1795 96.5569 59.3743 96.3872 58.6145 96.7097C58.5143 96.7688 58.4412 96.8649 58.4115 96.9772C58.3818 97.0895 58.3976 97.209 58.4555 97.3097C58.9545 98.1133 59.9357 98.1359 60.8089 97.9152C61.3912 99.1781 62.2335 100.304 63.2811 101.22C64.5372 102.365 66.0816 103.148 67.7492 103.484C67.9681 103.517 68.1914 103.468 68.3771 103.348C68.5627 103.228 68.698 103.044 68.7572 102.831C68.8165 102.618 68.7957 102.391 68.6988 102.192C68.6019 101.994 68.4356 101.837 68.2312 101.752Z" fill="black"/>
<path d="M69.8984 104.779C69.7737 103.902 69.5978 102.81 68.8267 102.267C68.7419 102.218 68.6473 102.19 68.5498 102.183C68.4524 102.177 68.3547 102.192 68.2641 102.229C68.1735 102.265 68.0924 102.322 68.0268 102.394C67.9613 102.466 67.913 102.552 67.8856 102.646C67.6645 103.387 68.0273 104.27 68.1124 105.017C68.1823 105.615 68.1955 106.217 68.152 106.817C65.7631 107.255 63.5774 108.445 61.9147 110.213C61.3812 110.677 60.9883 111.28 60.7806 111.956C60.7518 112.127 60.7807 112.302 60.8629 112.455C60.945 112.607 61.0758 112.729 61.2344 112.799C61.4321 112.843 61.6382 112.83 61.8289 112.762C62.0195 112.694 62.1869 112.573 62.3117 112.414C63.1704 111.501 64.1204 110.678 65.1468 109.958C66.4042 109.217 67.7987 108.738 69.2464 108.549C69.683 108.486 69.8983 108.017 69.938 107.638C70.0448 106.687 70.0316 105.727 69.8984 104.779Z" fill="black"/>
<path d="M83.8528 105.38C83.6918 105.89 83.5025 106.391 83.2858 106.88C82.6531 108.299 81.8165 109.618 80.8023 110.796C78.4661 113.513 75.0015 115.386 71.3556 115.324C67.8117 115.278 64.3076 113.682 62.4307 110.609C62.0111 109.925 63.0488 109.093 63.5648 109.738C64.7893 111.219 66.4122 112.32 68.2425 112.911C70.0727 113.503 72.0343 113.56 73.8961 113.077C77.2075 112.194 79.7249 109.766 81.3239 106.852C81.6624 106.227 81.958 105.58 82.2085 104.916C82.2363 104.851 82.2725 104.79 82.3162 104.735C82.8239 104.739 83.3312 104.77 83.8359 104.825C83.9105 105.002 83.9164 105.199 83.8528 105.38Z" fill="black"/>
<path d="M74.2578 90.9882C73.4186 89.5733 71.3718 90.4732 70.2094 90.892C69.3702 91.1976 68.5366 91.5428 67.7201 91.9107C67.3345 92.0861 66.9546 92.2672 66.5861 92.4766C66.1418 92.6332 65.7559 92.9215 65.4802 93.3029C65.4367 93.3824 65.4144 93.4718 65.4152 93.5624C65.4159 93.6531 65.4398 93.742 65.4847 93.8208C65.5295 93.8996 65.5939 93.9657 65.6716 94.0127C65.7492 94.0598 65.8375 94.0862 65.9282 94.0896L65.9792 94.1518C66.932 95.1289 68.2299 95.6954 69.5956 95.7303C70.9613 95.7652 72.2865 95.2657 73.2882 94.3386C74.1387 93.518 74.9325 92.1314 74.2578 90.9882ZM72.5567 93.1557C71.8932 93.8532 70.9896 94.2738 70.0278 94.3329C69.1095 94.3686 68.2082 94.08 67.482 93.5179C67.5572 93.4756 67.6346 93.4378 67.7143 93.4048C68.2813 93.1388 68.8483 92.9011 69.4154 92.669C69.9824 92.437 70.595 92.2332 71.1904 92.0238C71.7134 91.7742 72.2751 91.6154 72.8516 91.5541C73.6964 91.5824 72.7948 92.8954 72.5454 93.1557H72.5567Z" fill="black"/>
<path d="M58.5352 90.5857H58.4898C58.2986 90.2385 58.1393 89.8748 58.0136 89.4991C57.9058 89.1934 58.3141 88.8539 58.5806 89.0633C58.8329 89.2539 59.0718 89.462 59.2952 89.6858C59.3122 89.796 59.3052 89.9085 59.275 90.0159C59.2448 90.1232 59.1919 90.2228 59.1199 90.3081C59.0479 90.3933 58.9586 90.4622 58.8577 90.5101C58.7569 90.558 58.6469 90.5837 58.5352 90.5857Z" fill="black"/>
<path d="M64.7042 85.5382C64.6943 85.4938 64.6812 85.4503 64.6646 85.408C64.6249 85.3118 64.5909 85.2212 64.5455 85.1363C64.4742 85.0073 64.3823 84.8907 64.2734 84.7911C64.2145 84.7307 64.144 84.683 64.066 84.6509C63.988 84.6187 63.9042 84.6029 63.8199 84.6043C63.6503 84.6064 63.4878 84.6733 63.3661 84.7911C63.3146 84.8426 63.2691 84.8995 63.2301 84.9609L63.2016 84.9948C63.1731 85.049 63.1503 85.1059 63.1335 85.1647C63.1308 85.2118 63.1308 85.259 63.1335 85.3061C63.1147 85.3403 63.0997 85.3764 63.0884 85.4137C63.0798 85.4718 63.0798 85.531 63.0884 85.5891V85.6514C63.0945 85.7904 63.1211 85.9277 63.1676 86.0588C63.1956 86.1487 63.2356 86.2343 63.2866 86.3135C63.3384 86.389 63.3954 86.4608 63.4569 86.5286C63.5548 86.6323 63.67 86.7184 63.7972 86.7833C63.8914 86.8395 63.9991 86.8688 64.1089 86.8681C64.1936 86.8695 64.2774 86.8501 64.3528 86.8116C64.4295 86.7868 64.4978 86.7418 64.5511 86.6814C64.6286 86.6076 64.6838 86.5134 64.71 86.4097C64.7932 86.1249 64.7911 85.8219 64.7042 85.5382Z" fill="black"/>
<path d="M72.6308 83.7891C72.6198 83.7161 72.6029 83.6442 72.5799 83.5741C72.5401 83.4571 72.4909 83.3435 72.4326 83.2345C72.4037 83.1672 72.3654 83.1044 72.3191 83.0477L72.2114 82.9062C72.1525 82.8431 72.0784 82.7963 71.996 82.7704C71.9449 82.739 71.8856 82.7233 71.8257 82.7252C71.7368 82.6997 71.6425 82.6997 71.5535 82.7252L71.3891 82.7931L71.2531 82.8949C71.189 82.9552 71.142 83.0314 71.1169 83.1156C71.0737 83.1955 71.0523 83.2853 71.0546 83.376L71.1056 83.8401C71.1033 83.9638 71.137 84.0856 71.2022 84.1909C71.2349 84.2404 71.2709 84.2877 71.3099 84.3324L71.3777 84.389C71.4688 84.5091 71.5801 84.6125 71.7066 84.6946C71.8038 84.7513 71.9144 84.7812 72.027 84.7812C72.1396 84.7812 72.2501 84.7513 72.3473 84.6946C72.4444 84.6354 72.5248 84.5522 72.5804 84.4531C72.636 84.354 72.665 84.2423 72.6649 84.1287C72.6634 84.0147 72.652 83.9011 72.6308 83.7891Z" fill="black"/>
<path d="M72.194 79.4929C71.7862 79.3283 71.3407 79.2793 70.9068 79.3514C70.4956 79.4649 70.1104 79.6571 69.7728 79.9174C69.0351 80.4664 68.5357 81.2764 68.3776 82.1812C68.2164 83.1068 68.2787 84.0575 68.5593 84.9543C68.7146 85.4314 68.9041 85.8966 69.1263 86.3465C69.3304 86.788 69.6139 87.2011 69.7897 87.6482C70.1129 88.4688 71.3207 87.8916 70.8728 87.1955C70.4664 86.5307 70.1498 85.8152 69.9314 85.0675C69.6861 84.367 69.5971 83.6214 69.6706 82.883C69.7479 82.2427 70.0349 81.6458 70.4871 81.1851C70.6853 80.9844 70.9227 80.8265 71.1845 80.721C71.4736 80.5784 71.7838 80.4829 72.1032 80.4381C72.2172 80.4304 72.3249 80.3826 72.4069 80.3031C72.4889 80.2236 72.5397 80.1175 72.5506 80.004C72.5615 79.8904 72.5318 79.7766 72.4664 79.683C72.4011 79.5894 72.3045 79.522 72.194 79.4929Z" fill="black"/>
<path d="M66.036 82.3513C65.5981 82.0393 65.0971 81.8269 64.5681 81.7291C64.039 81.6314 63.4949 81.6505 62.9741 81.7853C62.485 81.9264 62.0324 82.1716 61.6474 82.5041C61.3015 82.7871 60.7911 83.2738 60.8478 83.7662C60.8505 83.8171 60.8505 83.8681 60.8478 83.919C60.7968 84.2529 61.1767 84.5472 61.4489 84.2699L61.5624 84.168C61.7357 84.0877 61.8856 83.9651 61.9987 83.8114C62.1246 83.6583 62.2673 83.5198 62.424 83.3983C62.6942 83.1941 62.9971 83.0372 63.3199 82.9342C63.6927 82.8124 64.0868 82.7691 64.4772 82.8071C64.8677 82.8451 65.2459 82.9635 65.588 83.1549C66.104 83.4322 66.5066 82.7078 66.036 82.3513Z" fill="black"/>
<path d="M29.8152 89.2618C29.8152 90.2749 28.114 90.5918 27.6944 89.4486C27.6944 89.4486 27.6944 89.4033 27.6944 89.3807C26.8495 87.0716 25.8515 84.5928 23.8896 82.9911C22.2967 81.7651 20.2843 81.2141 18.2875 81.4574C17.7538 81.4972 17.2235 81.5728 16.6999 81.6838C14.6891 82.1252 12.7704 82.9123 11.0297 84.0098C9.20795 85.1756 7.59577 86.6393 6.26093 88.3393C5.61734 89.1524 5.02832 90.0069 4.49756 90.8974C4.26508 91.2992 4.01543 91.7011 3.77161 92.1085C3.44274 92.6745 3.12542 93.2065 2.85324 93.8064C2.67747 94.1799 2.00262 94.0101 2.05365 93.5913C2.18312 92.2254 2.52745 90.8885 3.07418 89.6297C3.66878 88.3445 4.43146 87.1437 5.34228 86.0586C5.75309 85.553 6.19034 85.0694 6.65214 84.6097C9.81047 81.4857 14.2048 79.3691 18.622 79.2389C19.9983 79.1547 21.377 79.3634 22.6664 79.8513C23.9558 80.3391 25.1267 81.0949 26.1013 82.0686C27.9101 83.9702 28.9022 86.4604 29.7698 88.894C29.8063 89.013 29.8217 89.1375 29.8152 89.2618Z" fill="black"/>
<path d="M32.5032 91.5703C32.0443 90.8886 31.4472 90.3102 30.7509 89.8725C30.0785 89.386 29.3609 88.9653 28.6077 88.6161C28.4655 88.5781 28.3151 88.5831 28.1758 88.6304C28.0365 88.6778 27.9146 88.7653 27.8253 88.8821C27.7377 88.9989 27.6858 89.1385 27.6758 89.284C27.6657 89.4296 27.6979 89.575 27.7685 89.7027C28.1854 90.325 28.7503 90.8345 29.4128 91.1855C29.9332 91.4819 30.3993 91.8647 30.7908 92.3174L30.8359 92.3796C30.8813 92.4475 30.9266 92.5154 30.9663 92.589L31.0629 92.7588C31.0823 92.7974 31.0993 92.837 31.1139 92.8776C31.1908 93.0559 31.2238 93.25 31.2102 93.4436C31.0772 94.0281 30.7916 94.567 30.3824 95.0056C30.2355 95.1575 30.1534 95.3604 30.1534 95.5716C30.1534 95.7827 30.2355 95.9856 30.3824 96.1375C30.5332 96.2868 30.737 96.3706 30.9494 96.3706C31.1618 96.3706 31.3657 96.2868 31.5165 96.1375C32.1225 95.542 32.584 94.8161 32.8659 94.0152C32.98 93.605 33.0068 93.1755 32.9443 92.7544C32.8818 92.3333 32.7316 91.9299 32.5032 91.5703Z" fill="black"/>
<path d="M32.1454 98.5552C32.1231 97.8155 31.9913 97.0832 31.7542 96.382C31.5501 95.7877 30.8187 94.6841 30.0985 95.3916C29.5996 95.8839 29.9057 96.6083 30.0531 97.1912C30.1775 97.718 30.2403 98.2574 30.2403 98.7986C30.2673 99.9212 29.9994 101.031 29.4634 102.019C28.9223 102.951 28.1612 103.737 27.246 104.308C26.3308 104.879 25.2895 105.218 24.2129 105.296C24.0246 105.303 23.8431 105.368 23.6938 105.483C23.5444 105.597 23.4344 105.755 23.3792 105.935C23.3225 106.083 23.3225 106.246 23.3792 106.394C23.4332 106.574 23.5429 106.732 23.6927 106.846C23.8424 106.96 24.0246 107.023 24.2129 107.027C26.3929 106.951 28.4532 106.014 29.9416 104.422C31.4299 102.83 32.2247 100.714 32.1512 98.5382L32.1454 98.5552Z" fill="black"/>
<path d="M31.0403 112.703C30.7057 112.035 29.6114 111.945 28.948 111.854C28.2091 111.74 27.4608 111.697 26.7137 111.724C25.884 111.771 25.0635 111.919 24.27 112.166C24.4231 111.537 24.5647 110.909 24.6895 110.275C24.8142 109.641 24.9163 108.968 24.9957 108.306C25.0965 107.666 25.1439 107.018 25.1375 106.37C25.0808 105.431 23.6745 105.148 23.4364 106.138C23.289 106.744 23.2494 107.372 23.1473 107.983C23.0453 108.594 22.9487 109.223 22.8353 109.839C22.6123 111.073 22.3308 112.294 21.9906 113.501C21.9481 113.677 21.9576 113.862 22.018 114.033C22.0784 114.204 22.1873 114.354 22.3311 114.465C22.475 114.575 22.6479 114.642 22.8289 114.657C23.01 114.672 23.1914 114.634 23.3514 114.548C24.4225 113.929 25.6127 113.543 26.8441 113.416C27.4415 113.351 28.0444 113.351 28.6418 113.416C29.3392 113.518 30.1273 113.943 30.7964 113.603C30.9403 113.509 31.0446 113.365 31.0896 113.199C31.1345 113.034 31.117 112.857 31.0403 112.703Z" fill="black"/>
<path d="M22.37 122.449C21.7663 123.156 21.1986 123.893 20.6689 124.657C20.4566 124.551 20.2932 124.368 20.2129 124.146C20.1326 123.923 20.1415 123.679 20.2379 123.462C20.6098 122.607 20.8397 121.697 20.9184 120.769C21.0305 118.686 20.708 116.602 19.9715 114.651C19.0756 112.025 17.7033 109.557 17.0115 106.869C16.2857 104.039 16.8244 101.209 17.0569 98.3796C17.2979 95.4375 17.3773 92.4846 17.295 89.5339C17.2572 88.0813 17.1665 86.6305 17.0229 85.1817C16.9151 84.0498 16.7394 82.8557 16.6884 81.6898C16.6884 81.3729 16.6884 81.0503 16.6884 80.7334C16.6919 80.5772 16.7511 80.4274 16.8554 80.3109C16.9596 80.1944 17.1018 80.1187 17.2568 80.0976C17.4119 80.0765 17.5695 80.1112 17.7012 80.1956C17.8329 80.28 17.9302 80.4084 17.9756 80.5579C18.0989 80.8528 18.203 81.1552 18.2873 81.4634C18.6588 82.8537 18.9056 84.2741 19.0246 85.7081C19.2117 87.3719 19.3421 89.0471 19.3818 90.7223C19.4416 93.7653 19.2422 96.8078 18.7862 99.8171C18.4984 101.31 18.345 102.825 18.3272 104.345C18.4296 105.757 18.7686 107.142 19.3306 108.442C20.6347 111.838 22.4211 115.375 22.6876 118.969C22.7695 120.138 22.6622 121.314 22.37 122.449Z" fill="black"/>
<path d="M13.7515 102.676C13.8161 102.746 13.862 102.831 13.885 102.923C13.9079 103.015 13.9073 103.112 13.883 103.204C13.8587 103.296 13.8115 103.38 13.746 103.449C13.6804 103.518 13.5986 103.569 13.5079 103.598C13.3684 103.66 13.2178 103.692 13.0654 103.694C13.1165 103.23 13.1733 102.766 13.2244 102.302C13.4292 102.38 13.6106 102.508 13.7515 102.676Z" fill="black"/>
<path d="M14.5052 96.2289C14.4084 96.1517 14.2932 96.101 14.1708 96.0817C14.2445 95.6516 14.3295 95.2271 14.4089 94.7913C14.4089 94.7423 14.4203 94.6857 14.4429 94.6216C14.8631 94.8022 15.2132 95.114 15.4408 95.5101C15.798 96.11 14.9645 96.6703 14.5052 96.2289Z" fill="black"/>
<path d="M13.5079 103.598C13.3684 103.66 13.2178 103.692 13.0654 103.694C13.1165 103.23 13.1733 102.766 13.2244 102.302C13.4292 102.38 13.6106 102.508 13.7515 102.676C13.8161 102.746 13.862 102.831 13.885 102.923C13.9079 103.015 13.9073 103.112 13.883 103.204C13.8587 103.296 13.8115 103.38 13.746 103.449C13.6804 103.518 13.5986 103.569 13.5079 103.598Z" fill="black"/>
<path d="M14.5052 96.2289C14.4084 96.1517 14.2932 96.101 14.1708 96.0817C14.2445 95.6516 14.3295 95.2271 14.4089 94.7913C14.4089 94.7423 14.4203 94.6857 14.4429 94.6216C14.8631 94.8022 15.2132 95.114 15.4408 95.5101C15.798 96.11 14.9645 96.6703 14.5052 96.2289Z" fill="black"/>
<path d="M25.0584 90.0653C25.0271 89.9622 24.9873 89.8619 24.9394 89.7654C24.9239 89.726 24.9049 89.6881 24.8826 89.6522C24.8054 89.5265 24.7182 89.4073 24.6218 89.2956C24.5618 89.2309 24.4974 89.1704 24.4291 89.1145L24.2646 88.99L24.0719 88.9051H23.8565C23.748 88.9031 23.6406 88.9285 23.5445 88.9787C23.4754 88.9943 23.4124 89.0297 23.3632 89.0806C23.3021 89.1161 23.2511 89.1668 23.2156 89.2277C23.1658 89.2755 23.1306 89.3363 23.1137 89.4032C23.0633 89.5011 23.0378 89.61 23.0398 89.7201C23.0521 89.9749 23.1199 90.224 23.2383 90.4502C23.2671 90.5026 23.3014 90.552 23.3405 90.5973C23.3808 90.6595 23.4262 90.7182 23.4764 90.7728L23.5955 90.9256C23.6451 90.994 23.7043 91.055 23.7713 91.1067L23.9302 91.2312L24.1229 91.316L24.3383 91.3444C24.4449 91.3457 24.5502 91.3204 24.6445 91.2708C24.7115 91.254 24.7724 91.2187 24.8203 91.1689C24.8812 91.1356 24.9322 91.0868 24.9679 91.0274C25.0137 90.9767 25.0483 90.9169 25.0698 90.852C25.1218 90.7569 25.1455 90.6489 25.1379 90.5407C25.127 90.3801 25.1003 90.2208 25.0584 90.0653Z" fill="black"/>
<path d="M23.4702 85.9337C23.207 85.8743 22.9337 85.8743 22.6706 85.9337C22.4985 85.9577 22.3293 85.9995 22.1658 86.0582C21.7527 86.2023 21.3687 86.4189 21.0318 86.6977C20.4194 87.19 19.7957 88.0503 20.0395 88.8709C20.0619 88.9507 20.105 89.0232 20.1641 89.0813C20.2232 89.1394 20.2962 89.181 20.3764 89.2022C20.4566 89.2233 20.541 89.2233 20.6212 89.2019C20.7013 89.1805 20.7746 89.1386 20.8335 89.0803C20.9575 88.943 21.0694 88.7953 21.168 88.6389L21.2076 88.588C21.2416 88.554 21.3439 88.4012 21.4119 88.305L21.4798 88.2031L21.5083 88.1692C21.543 88.1232 21.5807 88.0797 21.6215 88.039L21.7746 87.8862L21.8654 87.8069L21.9222 87.7617L22.0241 87.6937L22.2284 87.5693L22.4042 87.49C22.3305 87.49 22.3645 87.49 22.4042 87.49L22.4948 87.4504C22.6391 87.4003 22.7871 87.3605 22.9372 87.3315H22.9939H23.0277C23.1563 87.3252 23.284 87.3043 23.4079 87.2693C23.5457 87.2292 23.6669 87.146 23.7537 87.0318C23.8405 86.9177 23.888 86.7787 23.8896 86.6354C23.9055 86.4888 23.8731 86.3411 23.7974 86.2145C23.7217 86.0879 23.6069 85.9893 23.4702 85.9337Z" fill="black"/>
<path d="M27.6829 97.7739L28.7884 97.7343H29.3045H29.724C29.8442 97.8224 29.9866 97.8753 30.1351 97.8874C30.2837 97.8994 30.4328 97.8701 30.5657 97.8026C30.6985 97.7351 30.81 97.6322 30.8877 97.5052C30.9653 97.3782 31.0061 97.2323 31.0056 97.0835C31.0011 96.9295 30.9532 96.7798 30.8674 96.6516C30.7817 96.5235 30.6616 96.422 30.5208 96.3588C30.38 96.2956 30.2241 96.2733 30.0712 96.2943C29.9182 96.3154 29.7746 96.379 29.6562 96.4779H29.3951H28.8793L27.8471 96.5175C27.2177 96.5175 26.4069 96.5176 26.0724 97.1741C25.7378 97.8306 26.1633 98.538 26.6793 98.9794C27.1347 99.3768 27.6543 99.6945 28.2159 99.9189C28.507 100.033 28.809 100.116 29.1174 100.168C29.4546 100.238 29.8001 100.261 30.1437 100.236C30.2941 100.236 30.4383 100.176 30.5446 100.07C30.651 99.9639 30.7107 99.8199 30.7107 99.6698C30.7107 99.5197 30.651 99.3758 30.5446 99.2697C30.4383 99.1636 30.2941 99.1039 30.1437 99.1039C29.9849 99.1039 29.8318 99.1039 29.673 99.1039H29.4632H29.3613C29.0724 99.0533 28.7892 98.9737 28.5163 98.8662L28.4086 98.8153L28.1987 98.7078C28.0771 98.6436 27.9596 98.5717 27.8471 98.4927C27.6312 98.3485 27.4398 98.1708 27.2801 97.9663C27.3368 98.0399 27.2236 97.8645 27.2122 97.8418H27.2801L27.6829 97.7739Z" fill="black"/>
<path d="M30.2408 93.8453L30.2012 93.7491C30.1781 93.7043 30.1426 93.667 30.0991 93.6415C30.0751 93.6182 30.046 93.6008 30.0141 93.5906C29.9805 93.5831 29.9455 93.5831 29.9119 93.5906H29.8155C29.7635 93.5936 29.713 93.6092 29.6683 93.6359C29.6079 93.665 29.5525 93.7032 29.5038 93.7491C29.4861 93.7761 29.465 93.8008 29.4412 93.8227C29.3692 93.8946 29.3082 93.9765 29.2599 94.066C29.2432 94.0946 29.23 94.125 29.2203 94.1566C29.2203 94.2132 29.1635 94.2698 29.1408 94.3264C29.1181 94.383 29.1124 94.4452 29.0954 94.5075C29.0814 94.5602 29.0836 94.616 29.1018 94.6675C29.12 94.719 29.1535 94.7638 29.1976 94.7961C29.2339 94.8284 29.2796 94.8483 29.328 94.8527C29.3887 94.8606 29.4504 94.8487 29.5038 94.8188L29.6738 94.7395C29.7307 94.707 29.7856 94.671 29.8383 94.6319C29.8937 94.5962 29.9432 94.5523 29.9855 94.5018L30.0481 94.4226L30.1104 94.3434C30.1548 94.3093 30.1867 94.2615 30.2012 94.2075C30.2036 94.1868 30.2036 94.1659 30.2012 94.1452V94.0943V93.9924L30.2408 93.8453Z" fill="black"/>
<path d="M65.9235 142.41C65.3565 142.614 64.7895 142.795 64.2224 142.976C64.1772 142.386 64.1772 141.794 64.2224 141.204C64.2224 140.916 64.2224 140.638 64.177 140.333C64.1317 140.027 64.109 139.699 64.058 139.388C63.8568 138.232 63.4942 137.11 62.9807 136.054C62.4624 134.96 61.7945 133.943 60.9961 133.032C60.6039 132.591 60.1892 132.169 59.7541 131.77C59.3345 131.379 58.7165 131.04 58.45 130.525C58.4076 130.441 58.3867 130.348 58.3891 130.255C58.3915 130.161 58.4172 130.069 58.4639 129.988C58.5105 129.907 58.5765 129.838 58.6563 129.789C58.736 129.739 58.8269 129.71 58.9207 129.704C59.579 129.815 60.1904 130.116 60.6785 130.57C61.2356 130.978 61.7519 131.439 62.2207 131.945C63.1366 132.935 63.9009 134.055 64.4888 135.268C65.0831 136.487 65.4995 137.785 65.725 139.122C65.759 139.337 65.793 139.546 65.8213 139.761C65.8792 140.24 65.9114 140.722 65.9177 141.204C65.9475 141.606 65.9495 142.008 65.9235 142.41Z" fill="black"/>
<path d="M52.3318 117.797C52.141 117.748 51.9384 117.775 51.767 117.872C51.5956 117.969 51.4687 118.129 51.4132 118.318C51.1297 119.84 50.767 122.002 49.0773 122.602C48.219 122.823 47.3218 122.85 46.4517 122.681C45.7397 122.625 45.0506 122.404 44.4389 122.036C44.0987 121.809 43.7075 122.183 43.7869 122.534C43.8269 122.779 43.9265 123.01 44.0768 123.207C44.227 123.404 44.4234 123.562 44.6488 123.666C45.0887 123.88 45.5592 124.025 46.0436 124.096C47.1541 124.348 48.3068 124.348 49.4172 124.096C51.7647 123.383 52.4679 120.87 52.8534 118.731C52.9047 118.538 52.8791 118.333 52.7817 118.159C52.6844 117.984 52.5231 117.855 52.3318 117.797Z" fill="black"/>
<path d="M109.329 80.722C109.253 80.6276 109.152 80.5566 109.038 80.5175C108.923 80.4784 108.8 80.4728 108.682 80.5013C108.546 80.5353 108.416 80.5806 108.28 80.6258C108.188 80.6775 108.091 80.7192 107.991 80.7503C108.025 80.7503 108.047 80.7503 107.991 80.7503L107.889 80.7843C107.749 80.8317 107.607 80.8714 107.463 80.9031L107.248 80.9428H107.14H107.044H106.704H106.516H106.488H106.273C106.201 80.9371 106.129 80.9371 106.057 80.9428H105.955C105.855 80.9319 105.754 80.9319 105.655 80.9428C105.575 80.9428 105.706 80.9428 105.621 80.9428C105.577 80.9455 105.534 80.9455 105.49 80.9428C105.402 80.9196 105.308 80.9259 105.223 80.9608C105.139 80.9958 105.068 81.0574 105.021 81.1363C104.975 81.2151 104.956 81.307 104.967 81.3977C104.978 81.4885 105.018 81.5731 105.082 81.6389C105.213 81.7683 105.353 81.8875 105.501 81.9954C105.679 82.1016 105.87 82.1853 106.068 82.2444C106.434 82.3666 106.817 82.4259 107.203 82.4199C107.623 82.4334 108.042 82.3502 108.425 82.1765C108.809 82.0027 109.147 81.7433 109.414 81.4181C109.474 81.3076 109.498 81.1813 109.483 81.0565C109.467 80.9318 109.414 80.8149 109.329 80.722Z" fill="black"/>
<path d="M114.505 89.6581C114.222 89.8222 113.978 90.0259 113.712 90.224C113.601 90.3009 113.483 90.3672 113.36 90.4221L113.241 90.473C112.887 90.6227 112.518 90.7364 112.141 90.8126C111.252 90.9887 110.348 91.0835 109.442 91.0956C107.706 91.1347 105.977 90.8605 104.339 90.2863C102.939 89.7116 101.575 89.052 100.256 88.3111C99.5779 87.9433 98.8503 87.6746 98.0957 87.5131C97.4015 87.4547 96.7156 87.3238 96.0488 87.1226C94.9147 86.6698 93.7808 84.9267 94.8411 83.8288C94.9482 83.7026 95.0857 83.6059 95.2409 83.548C95.396 83.49 95.5636 83.4727 95.7273 83.4977C95.8911 83.5226 96.0457 83.5891 96.1764 83.6906C96.3071 83.7922 96.4096 83.9255 96.4741 84.0778C96.5818 84.3891 96.4345 84.6098 96.4345 84.8871C96.4345 84.8475 96.5535 85.0739 96.6385 85.1305C96.9669 85.2808 97.3266 85.3507 97.6876 85.3342C98.0902 85.3738 98.487 85.4134 98.8839 85.487C99.6001 85.6486 100.295 85.8936 100.953 86.2171C102.292 86.8396 103.528 87.6716 104.923 88.1696C106.379 88.6978 107.91 88.9882 109.459 89.0298C110.217 89.0399 110.975 88.9945 111.727 88.894C112.118 88.8487 112.51 88.7921 112.906 88.7582H113.02C113.303 88.7582 113.587 88.7978 113.87 88.7921H113.978H114.109C114.21 88.7769 114.314 88.7893 114.408 88.8282C114.503 88.8671 114.586 88.9309 114.647 89.0129C114.682 89.0639 114.707 89.1216 114.719 89.1823C114.73 89.2431 114.73 89.3056 114.716 89.3661C114.703 89.4266 114.678 89.4837 114.641 89.5339C114.605 89.5841 114.559 89.6264 114.505 89.6581Z" fill="black"/>
<path d="M5.87504 83.6925L4.53694 83.8227C4.3725 84.1453 4.21936 84.4679 4.06626 84.7905C3.48034 86.0242 2.95677 87.2788 2.49559 88.554L4.96221 88.4182C5.45741 87.109 6.02443 85.828 6.66328 84.5754C6.83906 84.2302 7.02051 83.8793 7.2303 83.5284C6.754 83.5907 6.31165 83.6473 5.87504 83.6925ZM91.9268 86.3468C91.6547 85.7809 91.3597 85.1753 91.0705 84.5981C90.6849 83.834 90.2654 83.087 89.8401 82.3343C89.4148 81.5816 89.0408 80.993 88.6155 80.3421L88.5815 80.2855C88.2866 79.8328 88.0142 79.3913 87.691 78.9612C82.4077 71.2991 75.1844 65.1713 66.7565 61.2018C66.2746 60.9697 65.787 60.7547 65.2994 60.5396C63.4321 59.7232 61.518 59.0183 59.5668 58.4286C50.3944 55.5968 40.5575 55.7474 31.4764 58.8588C31.2836 58.9267 31.0908 58.9889 30.9094 59.0625C30.3991 59.2492 29.8887 59.4473 29.3897 59.6284C25.4478 61.2349 21.7463 63.3755 18.3895 65.9897C18.0776 66.2274 17.7715 66.4821 17.4653 66.7368C16.6034 67.4536 15.766 68.2082 14.9532 69.0006C11.1397 72.835 7.92989 77.2237 5.43288 82.0174C5.12102 82.5833 4.82059 83.1832 4.54275 83.7605C4.37831 84.083 4.22517 84.4056 4.07208 84.7282C3.48615 85.962 2.96259 87.2165 2.50141 88.4918C2.29161 89.0577 2.09315 89.6237 1.93438 90.1896C0.365819 94.9278 -0.258435 99.9267 0.0970901 104.904C0.508747 110.255 1.97259 115.473 4.40487 120.259C6.83715 125.046 10.1902 129.307 14.2727 132.8C14.8794 133.366 15.5032 133.853 16.1496 134.356C19.2975 136.823 22.7367 138.894 26.3901 140.525C35.6972 144.673 45.9869 146.118 56.0794 144.696C58.8423 144.313 61.5695 143.705 64.2334 142.879C64.8005 142.704 65.3675 142.523 65.9345 142.313C70.0583 140.894 73.9703 138.924 77.5641 136.456C78.1991 136.014 78.8229 135.562 79.4296 135.086C80.9607 133.907 82.4099 132.625 83.7673 131.249C89.2916 125.658 93.1443 118.639 94.8924 110.983C95.0455 110.298 95.1815 109.607 95.2949 108.917C95.5635 107.294 95.7246 105.654 95.777 104.01C95.8807 97.9043 94.5627 91.8578 91.9268 86.3468ZM92.9305 107.564C92.8454 108.249 92.732 108.934 92.6016 109.613C90.7962 118.798 85.7481 127.032 78.375 132.817C77.774 133.298 77.1614 133.762 76.5377 134.198C73.2407 136.517 69.6481 138.386 65.8551 139.755C65.288 139.959 64.721 140.152 64.188 140.321C63.7174 140.474 63.241 140.621 62.7647 140.757C53.403 143.44 43.47 143.411 34.1244 140.672C27.8589 138.865 22.0271 135.806 16.9832 131.679C16.3765 131.181 15.7867 130.666 15.2027 130.129C13.7232 128.771 12.3419 127.311 11.0691 125.759C5.21196 118.496 2.17952 109.366 2.52965 100.048C2.63813 97.3694 3.05088 94.7113 3.76005 92.1252C3.93582 91.4687 4.13428 90.8178 4.32707 90.1726C4.51986 89.5275 4.72418 89.0408 4.94532 88.4408C5.44052 87.1316 6.00754 85.8507 6.64639 84.5981C6.82217 84.2528 7.00362 83.9019 7.21342 83.5511C7.47992 83.036 7.78044 82.521 8.06395 82.0117C9.61935 79.3298 11.4166 76.7951 13.4335 74.4393C15.1271 72.4565 16.9799 70.6148 18.9734 68.9326C19.9335 68.1365 20.9203 67.3819 21.9334 66.6688C22.8179 66.0519 23.7195 65.4634 24.6494 64.9201C25.1144 64.6428 25.5793 64.3541 26.0556 64.1164C27.0612 63.5769 28.0835 63.0807 29.123 62.628C29.8885 62.2884 30.6654 61.9715 31.4479 61.6828C38.0447 59.2197 45.1596 58.4661 52.1274 59.4926C61.5744 60.9826 70.3925 65.1535 77.53 71.5077C80.9214 74.4936 83.8964 77.9198 86.3756 81.6948C86.7952 82.3343 87.1922 82.9795 87.5778 83.636C90.0256 87.7345 91.7516 92.2213 92.681 96.9017C93.3316 100.42 93.4158 104.019 92.9305 107.564ZM5.87504 83.6925L4.53694 83.8227C4.3725 84.1453 4.21936 84.4679 4.06626 84.7905C3.48034 86.0242 2.95677 87.2788 2.49559 88.554L4.96221 88.4182C5.45741 87.109 6.02443 85.828 6.66328 84.5754C6.83906 84.2302 7.02051 83.8793 7.2303 83.5284C6.754 83.5907 6.31165 83.6473 5.87504 83.6925ZM5.87504 83.6925L4.53694 83.8227C4.3725 84.1453 4.21936 84.4679 4.06626 84.7905C3.48034 86.0242 2.95677 87.2788 2.49559 88.554L4.96221 88.4182C5.45741 87.109 6.02443 85.828 6.66328 84.5754C6.83906 84.2302 7.02051 83.8793 7.2303 83.5284C6.754 83.5907 6.31165 83.6473 5.87504 83.6925Z" fill="#2563EB"/>
<path d="M63.0827 118.788C60.4819 117.788 57.7361 117.214 54.9517 117.09C54.249 117.054 53.5448 117.054 52.8422 117.09C52.4509 117.101 52.0607 117.136 51.6741 117.198H51.629C51.629 116.145 51.4984 115.076 51.4473 114.034C51.3963 113.123 51.3454 112.212 51.3 111.301C54.8156 111.21 57.6111 108.211 58.4446 104.905C58.7109 103.834 58.831 102.732 58.8018 101.629C59.21 103.66 59.4538 105.732 59.7373 107.713C60.2646 111.363 61.0924 115.5 63.0827 118.788Z" fill="black"/>
<path d="M46.5535 89.7942C46.1572 90.4996 45.7976 91.225 45.4762 91.9674C45.3483 92.081 45.227 92.2019 45.1133 92.3296C44.9691 92.4891 44.8399 92.6615 44.7276 92.8447C44.6822 92.9409 44.6425 93.054 44.5972 93.1502C44.5431 93.2924 44.5431 93.4495 44.5972 93.5917C44.6086 93.6891 44.6575 93.7784 44.7334 93.8407C44.2571 95.1424 43.8659 96.4724 43.503 97.774C42.6643 100.839 42.1064 103.974 41.836 107.141C41.5618 110.266 41.5882 113.41 41.9152 116.53C42.0796 118.114 42.3348 119.676 42.6353 121.244C42.9358 122.812 43.3101 124.64 42.7148 126.213C42.3348 127.198 41.4729 128.222 40.3672 128.369C39.1084 128.539 38.0991 127.413 37.6511 126.366C37.0841 125.03 37.0843 123.536 36.9595 122.115C36.8671 120.821 36.5962 119.545 36.1544 118.324C35.1791 115.856 33.0811 114.362 30.4387 114.543C31.2332 113.583 31.8635 112.499 32.3043 111.334C32.6149 110.54 32.8612 109.723 33.0413 108.889C33.7168 109.463 34.5475 109.823 35.4284 109.925C35.5057 109.934 35.5837 109.934 35.661 109.925V110.072C35.661 111.43 35.661 112.817 36.2621 114.068C36.3132 114.149 36.3868 114.214 36.4739 114.254C36.561 114.295 36.658 114.31 36.7532 114.296C36.8485 114.283 36.9379 114.243 37.0107 114.18C37.0835 114.118 37.1365 114.035 37.1636 113.943C37.4301 112.675 37.2771 111.368 37.3111 110.072C37.3366 108.773 37.4386 107.477 37.6171 106.19C37.8017 104.91 38.0535 103.64 38.3713 102.387C38.7058 101.102 39.1595 99.8284 39.3976 98.5211C39.4006 98.407 39.3691 98.2947 39.3071 98.1988C39.245 98.103 39.1553 98.0282 39.0499 97.9841C38.9444 97.9401 38.8279 97.9288 38.716 97.9519C38.604 97.975 38.5018 98.0314 38.4225 98.1136C37.6979 99.2422 37.1615 100.481 36.8346 101.781C36.0894 101.497 35.2726 101.459 34.5042 101.673L34.3794 101.719C35.5418 97.4797 37.9687 93.3936 41.9038 91.2261C43.3409 90.4402 44.9227 89.9531 46.5535 89.7942Z" fill="black"/>
<path d="M19.9603 114.651C19.0644 112.025 17.6921 109.557 17.0003 106.869C16.2745 104.039 16.8132 101.209 17.0457 98.3797C17.2867 95.4377 17.3661 92.4847 17.2838 89.534C17.246 88.0814 17.1553 86.6307 17.0117 85.1818C16.9039 84.0499 16.7282 82.8558 16.6772 81.6899C14.6663 82.1314 12.7477 82.9184 11.007 84.016C9.1852 85.1818 7.57303 86.6454 6.23819 88.3455C5.5946 89.1585 5.00558 90.013 4.47482 90.9036C4.24234 91.3054 3.99269 91.7072 3.74887 92.1147C3.0397 94.7008 2.62696 97.3589 2.51847 100.038C2.16834 109.355 5.20078 118.485 11.0579 125.749C12.3307 127.301 13.7121 128.761 15.1915 130.118C16.5417 126.693 18.4712 123.525 20.8958 120.752C21.0091 118.675 20.6906 116.598 19.9603 114.651ZM14.4827 96.2291C14.3859 96.152 14.2707 96.1012 14.1483 96.082C14.0406 96.6479 13.944 97.2138 13.8476 97.8137C13.6208 99.3079 13.4112 100.808 13.2241 102.302C13.429 102.379 13.6104 102.508 13.7513 102.675C13.8158 102.745 13.8618 102.83 13.8847 102.922C13.9077 103.015 13.9071 103.111 13.8828 103.203C13.8585 103.295 13.8113 103.379 13.7457 103.448C13.6802 103.517 13.5983 103.569 13.5076 103.598C13.3682 103.659 13.2176 103.692 13.0652 103.694C13.1162 103.23 13.1731 102.766 13.2241 102.302C12.9236 102.172 12.5832 102.098 12.2996 101.996C11.8706 101.858 11.4667 101.651 11.1033 101.385C10.7857 101.156 10.5404 100.84 10.3967 100.476C10.253 100.112 10.2168 99.7145 10.2924 99.3305C10.5418 98.3613 11.1496 97.5222 11.9934 96.9818C12.4064 96.624 12.8836 96.3475 13.3996 96.1669C13.643 96.0894 13.8993 96.0606 14.1538 96.082C14.2275 95.6519 14.3126 95.2274 14.3919 94.7916C14.3919 94.7426 14.4033 94.686 14.426 94.6219C14.8462 94.8025 15.1965 95.1143 15.4241 95.5104C15.7983 96.1103 14.9647 96.6706 14.5055 96.2291H14.4827Z" fill="black"/>
<path d="M83.0692 89.5672C82.9752 90.552 82.6271 91.4957 82.0586 92.3061C81.4902 93.1165 80.7209 93.766 79.8259 94.1911C79.8792 93.8299 79.8694 93.4623 79.7974 93.1044C79.7612 92.9686 79.6899 92.8448 79.5903 92.7454C79.4908 92.646 79.3665 92.5746 79.2304 92.5385C79.8514 92.2108 80.373 91.7229 80.741 91.1257C81.109 90.5285 81.3099 89.8438 81.3227 89.1428C81.3169 88.3776 81.0755 87.6327 80.6311 87.0091C80.4171 86.7051 80.1611 86.4327 79.8711 86.1998C79.6499 86.0301 79.3667 85.9169 79.1285 85.7471C79.0832 86.0018 79.0489 86.2564 79.0092 86.5111C78.8844 87.377 77.7504 87.111 77.4953 86.5111C76.9283 85.2038 76.4011 83.9021 75.8454 82.6061C75.4358 81.4053 74.9177 80.2441 74.2975 79.1368C73.6794 78.2087 72.5963 78.2992 71.621 78.486C70.4869 78.718 69.3189 78.9897 68.1679 79.25L64.658 80.0593C63.633 80.2231 62.6304 80.5041 61.6698 80.8969C59.81 81.842 60.3088 84.5473 60.4845 86.2338C60.7318 88.5372 61.2009 90.8115 61.8852 93.0252C62.1404 93.8911 60.9608 94.2872 60.4959 93.5911C59.7722 92.617 59.1021 91.6044 58.4886 90.5576H58.534C58.6456 90.5564 58.7557 90.5313 58.8568 90.4841C58.9579 90.4369 59.0476 90.3687 59.1201 90.284C59.1926 90.1993 59.2462 90.1002 59.2771 89.9931C59.308 89.8861 59.3157 89.7737 59.2995 89.6634C59.0762 89.4396 58.8376 89.2316 58.5852 89.0409C58.3131 88.8315 57.9048 89.1711 58.0182 89.4767C58.1439 89.8525 58.3033 90.2161 58.4944 90.5633C58.2038 90.6291 57.9289 90.7515 57.6857 90.9234C57.4424 91.0953 57.2356 91.3133 57.0769 91.5651C57.0361 91.6157 56.9841 91.6563 56.9251 91.6837C56.8661 91.7112 56.8017 91.7249 56.7366 91.7235C56.5585 91.5099 56.3692 91.3059 56.1696 91.1123C56.2105 90.7329 56.3469 90.3701 56.566 90.0574C56.7851 89.7447 57.0797 89.4924 57.4227 89.3239C56.3849 86.9675 56.2938 84.3033 57.1677 81.8817C59.0105 76.7146 64.4027 73.8961 69.7441 74.6262C74.8757 75.328 79.0264 79.4028 80.4439 84.2869C81.3101 84.8569 82.0094 85.6459 82.4706 86.5735C82.9318 87.501 83.1382 88.534 83.0692 89.5672Z" fill="black"/>
<path d="M100.694 74.5872L99.815 75.006L98.9758 75.4078L96.889 76.4208L95.5678 77.0716C93.2714 78.2035 90.9751 79.3354 88.6389 80.3372L87.7316 80.7277C86.8357 81.1069 86.0303 79.9014 86.9489 79.3864C87.1984 79.2392 87.4593 79.0977 87.7145 78.9563C88.4686 78.5431 89.2455 78.1526 90.0166 77.7564L92.3982 76.5623C93.0957 76.2114 93.7931 75.8662 94.4905 75.5323C95.2517 75.4762 95.9611 75.1272 96.4693 74.5588C97.127 74.2306 97.7905 73.9023 98.4539 73.5854L99.5541 73.0478L100.308 72.6855C100.329 73.2433 100.426 73.7955 100.597 74.3268C100.62 74.4174 100.66 74.5079 100.694 74.5872Z" fill="#2563EB"/>
<path d="M107.311 71.4629L105.553 72.2779C105.668 71.4451 105.897 70.632 106.234 69.8613L107.01 69.4935L108.025 69.018L108.893 68.6162C108.838 69.2983 108.884 69.9849 109.029 70.6536L107.56 71.3441L107.311 71.4629Z" fill="black"/>
<path d="M115.385 67.7112L113.27 68.6846C113.284 67.9227 113.375 67.1643 113.542 66.4208L115.203 65.6511C115.47 65.5209 115.736 65.4021 116.008 65.2776C115.711 66.0634 115.502 66.8795 115.385 67.7112Z" fill="black"/>
<path d="M151.533 60.2963C151.442 61.3475 151.032 62.3462 150.359 63.16C149.044 64.8125 146.991 65.5539 145.075 66.284L135.435 69.9287L134.103 70.4324L118.334 76.3918C114.313 77.9142 110.293 79.4649 106.279 80.9986L104.969 81.4966C102.126 82.5833 99.2912 83.651 96.4636 84.6999L94.53 85.4074C93.6681 85.7243 92.829 86.0412 91.9388 86.3468L91.6098 86.4657C90.4134 86.8901 89.9597 85.0565 91.0824 84.5981C100.569 80.8119 110.186 77.3539 119.734 73.7432C128.166 70.5569 136.609 67.3989 145.035 64.2013C146.702 63.5674 148.675 62.7751 149.401 61.0037C150.081 59.3511 148.913 57.9589 147.507 57.2231C143.918 55.3498 139.455 57.042 136.042 58.4965C132.436 60.0057 128.844 61.5772 125.268 63.2109C124.174 63.6976 123.091 64.1956 121.997 64.688C122.62 63.7202 123.216 62.6789 123.902 61.7281L125.96 60.8056L127.996 59.9001L130.264 58.9097C130.706 58.7059 131.16 58.5079 131.608 58.3437C132.532 57.9306 133.462 57.5288 134.392 57.1213C136.336 56.2182 138.357 55.4909 140.431 54.948C143.969 54.1161 149.106 54.2859 151.057 57.9702C151.172 58.1847 151.271 58.408 151.352 58.638C151.519 59.1738 151.581 59.737 151.533 60.2963Z" fill="#2563EB"/>
<path d="M131.023 59.1651C130.757 59.1004 130.497 59.0113 130.246 58.8991C129.872 58.7406 129.52 58.5482 129.141 58.3841C128.571 58.1403 127.975 57.96 127.366 57.8464C126.077 57.6149 124.753 57.6593 123.482 57.9766C121.195 58.5942 119.199 59.997 117.845 61.9382C117.083 62.9824 116.465 64.1246 116.008 65.3339C115.713 66.1106 115.504 66.9171 115.385 67.7392C115.335 68.1146 115.307 68.4925 115.299 68.8711C115.299 69.8388 115.764 71.3782 117 71.2877C118.135 71.2028 118.911 69.42 119.422 68.6334C120.278 67.3204 121.123 66.0017 121.968 64.6717C122.592 63.704 123.187 62.6626 123.873 61.7119C124.121 61.3619 124.39 61.0274 124.678 60.7101C124.755 60.6138 124.854 60.5375 124.967 60.4876C125.079 60.4377 125.202 60.4157 125.325 60.4235C125.448 60.4313 125.568 60.4686 125.673 60.5323C125.779 60.596 125.867 60.6842 125.931 60.7894C126.042 60.9255 126.112 61.0896 126.135 61.2634C126.158 61.4372 126.133 61.6139 126.062 61.7741C125.821 62.2707 125.544 62.7493 125.234 63.2059C124.939 63.6417 124.633 64.0718 124.344 64.502C123.735 65.3962 123.134 66.2885 122.54 67.1789L120.732 69.8615C120.269 70.6438 119.742 71.3859 119.155 72.08C118.677 72.6224 118.024 72.9814 117.308 73.095C116.593 73.2086 115.861 73.0698 115.237 72.7025C115.098 72.6199 114.963 72.5292 114.835 72.4309C114.188 71.9139 113.716 71.2103 113.485 70.4161C113.317 69.8756 113.233 69.3125 113.236 68.7466V68.6787C113.249 67.9168 113.341 67.1584 113.508 66.4149C114.033 64.1879 115.035 62.1007 116.445 60.297C117.13 59.4219 117.925 58.6382 118.81 57.9653C119.205 57.6664 119.62 57.3941 120.051 57.1503C121.213 56.4832 122.49 56.0398 123.816 55.843C125.253 55.6168 126.721 55.6959 128.126 56.075C129.379 56.4315 130.961 57.0371 131.556 58.2765C131.574 58.2984 131.587 58.3234 131.596 58.3501C131.641 58.4414 131.662 58.5432 131.654 58.6449C131.646 58.7466 131.611 58.8444 131.553 58.9279C131.494 59.0114 131.414 59.0775 131.321 59.1192C131.227 59.161 131.125 59.1768 131.023 59.1651Z" fill="black"/>
<path d="M119.671 58.2932C119.405 58.1702 119.127 58.0717 118.843 57.9989C114.647 56.867 110.735 61.8191 109.561 65.3562C109.198 66.4173 108.973 67.5205 108.892 68.6387C108.837 69.3209 108.883 70.0074 109.028 70.6761C109.1 71.0007 109.205 71.3173 109.34 71.6213C109.513 72.1007 109.854 72.5016 110.3 72.7502C110.746 72.9989 111.267 73.0785 111.767 72.9746C112.267 72.8706 112.713 72.5901 113.022 72.1844C113.331 71.7788 113.483 71.2754 113.451 70.7667C113.454 70.656 113.477 70.5468 113.519 70.4441C113.598 70.2752 113.732 70.1377 113.899 70.0539C114.066 69.9701 114.257 69.9448 114.44 69.982C114.623 70.0192 114.788 70.1169 114.909 70.2592C115.03 70.4015 115.1 70.5802 115.106 70.7667C115.169 71.3436 115.087 71.927 114.868 72.4645C114.461 73.3805 113.72 74.1081 112.796 74.5009C111.873 74.8936 110.834 74.9223 109.89 74.5812C109.3 74.341 108.771 73.971 108.344 73.4987C107.917 73.0264 107.602 72.4639 107.423 71.8533C107.377 71.7354 107.339 71.6143 107.31 71.4911C107.128 70.8495 107.028 70.188 107.009 69.5216C107.009 69.3688 107.009 69.216 107.009 69.0689C107.009 69.0179 107.009 68.9613 107.009 68.9047C107.12 65.4344 108.467 62.1172 110.808 59.5496C111.269 59.0419 111.771 58.5743 112.311 58.1517C112.758 57.7909 113.231 57.4654 113.729 57.1783C115.628 56.0464 118.378 55.5427 120.091 57.2122C120.17 57.2971 120.255 57.382 120.329 57.4782C120.383 57.5765 120.406 57.6886 120.397 57.8003C120.387 57.9119 120.344 58.0181 120.273 58.1054C120.203 58.1928 120.108 58.2572 120.001 58.2906C119.893 58.3241 119.779 58.3249 119.671 58.2932Z" fill="black"/>
<path d="M112.329 59.1301C111.818 59.232 111.308 59.3678 110.803 59.5206C108.79 60.1327 106.914 61.1282 105.28 62.4522C103.573 63.8531 102.231 65.6453 101.368 67.6759C100.659 69.2526 100.296 70.9621 100.302 72.6902C100.323 73.2479 100.42 73.8002 100.591 74.3314C100.619 74.4163 100.659 74.5069 100.693 74.5861C101.419 76.2274 103.591 77.1216 104.662 75.2539C105.126 74.3203 105.421 73.3127 105.536 72.2771C105.651 71.4443 105.88 70.6312 106.216 69.8604C106.33 69.6257 106.463 69.4005 106.613 69.187C106.709 69.0528 106.838 68.9456 106.987 68.8757C107.154 68.8044 107.337 68.7799 107.517 68.8048C107.697 68.8297 107.867 68.9032 108.008 69.0172C108.093 69.0744 108.165 69.1486 108.22 69.2352C108.274 69.3217 108.31 69.4187 108.325 69.5199C108.34 69.6211 108.334 69.7242 108.306 69.8228C108.279 69.9214 108.232 70.0133 108.167 70.0925C107.894 70.4741 107.684 70.8962 107.543 71.3432C107.489 71.501 107.443 71.6616 107.407 71.8243C107.186 72.6676 107.101 73.5561 106.88 74.3994C106.551 75.6897 105.933 76.9914 104.759 77.6988C102.547 79.0401 99.9618 77.5008 98.9582 75.435C98.9015 75.3219 98.8449 75.203 98.7995 75.0842C98.7542 74.9653 98.6918 74.7729 98.6464 74.6201C98.5491 74.2921 98.4769 73.9572 98.4307 73.6183C98.3635 73.203 98.3333 72.7826 98.3402 72.3619C98.4026 70.5315 98.8204 68.7305 99.5706 67.059C99.8224 66.4758 100.11 65.9087 100.432 65.3612C100.855 64.6292 101.338 63.9344 101.878 63.2841C101.946 63.1936 102.02 63.1087 102.094 63.0182C102.446 62.6163 102.82 62.2258 103.228 61.8863C103.638 61.507 104.07 61.1518 104.521 60.8223C104.884 60.5506 105.264 60.3016 105.655 60.0696C107.643 58.8994 109.897 58.2546 112.204 58.1963C112.241 58.1904 112.28 58.1904 112.317 58.1963C112.405 58.2382 112.479 58.3038 112.532 58.3857C112.584 58.4676 112.613 58.5625 112.614 58.6597C112.615 58.7568 112.589 58.8524 112.539 58.9355C112.488 59.0187 112.415 59.0861 112.329 59.1301Z" fill="black"/>
<path d="M149.395 61.0037C148.669 62.7751 146.696 63.5674 145.029 64.2013C136.603 67.3989 128.16 70.5569 119.728 73.7431C111.983 76.6691 104.197 79.4988 96.4803 82.487L94.0081 83.4435L91.0822 84.5754C90.6966 83.8114 90.2771 83.0643 89.8518 82.3116C89.4265 81.5589 89.0525 80.9703 88.6272 80.3195L89.0694 80.1214C91.2524 79.1536 93.4014 78.1123 95.5561 77.054C96.0312 76.9158 96.4784 76.6955 96.8773 76.4031L98.964 75.3901C99.9677 77.4841 102.553 79.0235 104.765 77.6539C105.938 76.9464 106.556 75.6447 106.885 74.3544C107.106 73.5111 107.192 72.6226 107.413 71.7793C107.592 72.39 107.906 72.9524 108.334 73.4247C108.761 73.897 109.289 74.2671 109.879 74.5072C110.823 74.8484 111.862 74.8197 112.786 74.4269C113.71 74.0341 114.45 73.3065 114.858 72.3906C114.986 72.4889 115.121 72.5795 115.26 72.6622C115.884 73.0295 116.616 73.1683 117.331 73.0546C118.047 72.941 118.7 72.5821 119.178 72.0397C119.765 71.3456 120.292 70.6035 120.755 69.8211L122.563 67.1385C123.161 66.2481 123.762 65.3558 124.367 64.4616C124.656 64.0315 124.934 63.6014 125.257 63.1656C128.833 61.5583 132.424 59.9869 136.03 58.4513C139.432 56.9968 143.906 55.3046 147.496 57.1779C148.89 57.9589 150.076 59.3511 149.395 61.0037Z" fill="#2563EB"/>
<path d="M103.692 63.5449C102.655 64.2184 101.537 64.7277 100.449 65.305C99.7617 65.657 99.1022 66.06 98.4755 66.5104C96.8779 67.6634 95.4831 69.0729 94.3477 70.6815C93.6673 71.6719 91.8356 74.4564 93.6217 75.3279C93.8839 75.4612 94.1726 75.5347 94.4667 75.543C95.2279 75.4869 95.9373 75.1379 96.4455 74.5695C97.0005 73.9866 97.498 73.3517 97.9312 72.6736C98.0295 72.523 98.1722 72.4063 98.3396 72.3397C98.465 72.2946 98.5989 72.2781 98.7316 72.2913C98.8643 72.3045 98.9924 72.3471 99.1065 72.4159C99.2206 72.4848 99.3178 72.5782 99.3911 72.6894C99.4644 72.8005 99.5121 72.9266 99.5304 73.0585C99.5395 73.2277 99.4914 73.395 99.3941 73.5338C99.156 73.8904 98.9123 74.2469 98.6458 74.5978C98.1511 75.294 97.5523 75.9105 96.8708 76.4259C96.4719 76.7183 96.025 76.9385 95.5498 77.0767C95.1432 77.1952 94.72 77.2468 94.2967 77.2295C93.6047 77.2117 92.935 76.9803 92.38 76.5673C91.9443 76.2295 91.603 75.7856 91.3885 75.2782C91.1741 74.7708 91.0938 74.217 91.1554 73.6697C91.3369 71.7285 92.5899 69.9967 93.8034 68.5309C95.0278 67.039 96.4893 65.758 98.1297 64.739C99.2453 63.9984 100.464 63.4263 101.747 63.0412L102.116 62.9507C102.571 62.8564 103.035 62.8127 103.5 62.8205C103.584 62.8226 103.665 62.852 103.732 62.9043C103.798 62.9566 103.846 63.029 103.868 63.1106C103.889 63.1922 103.884 63.2786 103.853 63.3569C103.821 63.4352 103.765 63.5012 103.692 63.5449Z" fill="black"/>
<path d="M137.482 75.9684L137.147 75.2101C136.875 74.5705 136.643 73.914 136.427 73.2575C136.212 72.601 136.042 71.9729 135.86 71.3333C135.679 70.6938 135.605 69.7656 135.038 69.4431C134.935 69.3891 134.817 69.3683 134.701 69.3835C134.586 69.3987 134.478 69.4491 134.392 69.528C133.915 70.0317 134.176 70.9938 134.256 71.6163C134.356 72.3549 134.512 73.0851 134.72 73.8009C134.919 74.4857 135.146 75.1648 135.401 75.827C135.656 76.4891 135.934 77.4625 136.575 77.9266C137.215 78.3907 137.862 77.7738 137.89 77.1739C137.846 76.7468 137.706 76.335 137.482 75.9684Z" fill="black"/>
<path d="M137.232 79.7256C136.943 80.8321 136.544 81.907 136.042 82.9346C134.126 86.8037 130.792 89.7887 126.731 91.271C123.73 92.3437 120.489 92.5631 117.37 91.9048C116.26 91.6674 115.176 91.3244 114.132 90.8805C113.9 90.7843 113.667 90.6711 113.435 90.5635C113.367 90.5291 113.303 90.4893 113.242 90.4447C113.153 90.3715 113.08 90.2816 113.027 90.18C112.973 90.0785 112.94 89.9674 112.93 89.8531C112.92 89.7389 112.933 89.6237 112.968 89.5145C113.003 89.4052 113.059 89.3039 113.134 89.2166C113.22 89.0944 113.331 88.9912 113.458 88.9133C113.586 88.8355 113.728 88.7846 113.877 88.7638H113.984C114.139 88.7669 114.292 88.8016 114.432 88.8657L114.654 88.9676C114.886 89.0751 115.124 89.1713 115.368 89.2675C117.193 89.9751 119.137 90.3266 121.095 90.3032C123.055 90.2936 124.993 89.8977 126.799 89.1382C128.605 88.3787 130.243 87.2706 131.619 85.8775C132.901 84.5533 133.949 83.0226 134.72 81.3499C135.104 80.483 135.421 79.5881 135.668 78.673C135.9 77.8863 135.923 76.8789 136.614 76.3583C136.705 76.3094 136.808 76.2902 136.91 76.3034C137.012 76.3166 137.107 76.3615 137.182 76.4318C137.924 77.1902 137.476 78.8088 137.232 79.7256Z" fill="black"/>
<path d="M190.663 102.924C188.882 107.146 185.361 110.4 181.279 112.404C176.544 114.73 171.214 115.381 165.969 115.233C160.492 115.061 155.044 114.364 149.701 113.151C144.37 112.001 139.192 110.232 134.272 107.882C130.331 105.995 126.624 103.655 123.227 100.909C122.575 100.383 121.934 99.8398 121.316 99.2795C118.549 96.8102 116.127 93.9816 114.115 90.8695C113.973 90.6431 113.831 90.4167 113.695 90.1847C113.559 89.9526 113.315 89.5565 113.128 89.2395V89.2056C113.044 89.0579 113.006 88.8882 113.02 88.7189C113.304 88.7189 113.587 88.7585 113.871 88.7528H113.979H114.109C114.21 88.7376 114.314 88.75 114.409 88.7889C114.504 88.8277 114.586 88.8916 114.647 88.9735C114.88 89.0811 115.118 89.1773 115.362 89.2735C115.804 89.8904 116.269 90.5016 116.728 91.1128L117.364 91.9221C118.693 93.5771 120.137 95.1373 121.684 96.5912C122.087 96.9761 122.49 97.3496 122.909 97.7231C127.561 101.795 132.872 105.048 138.616 107.344C143.436 109.252 148.436 110.672 153.54 111.583C158.7 112.616 163.957 113.085 169.218 112.981C173.913 112.794 178.614 111.696 182.571 109.07C184.349 107.939 185.877 106.459 187.063 104.719C188.248 102.979 189.066 101.017 189.467 98.9512C190.221 94.7575 189.098 90.3318 187.164 86.5966C185.061 82.5274 181.823 79.2392 178.222 76.4095C174.452 73.4836 170.284 71.1235 166.133 68.7635C161.257 65.9847 156.409 63.155 151.544 60.3479C151.401 60.2643 151.279 60.1485 151.188 60.0097C151.097 59.871 151.039 59.7131 151.02 59.5484C151.001 59.3838 151.02 59.2169 151.077 59.061C151.133 58.9051 151.225 58.7644 151.345 58.6501C151.506 58.4587 151.73 58.3312 151.976 58.2907C152.223 58.2502 152.476 58.2994 152.689 58.4293L155.916 60.2404L156.483 60.5573L157.86 61.327C162.295 63.8115 166.74 66.279 171.123 68.8484C175.416 71.3613 179.629 74.0891 183.263 77.5357C186.818 80.8088 189.478 84.9324 190.992 89.5169C192.33 93.8181 192.449 98.6739 190.663 102.924Z" fill="black"/>
<path d="M173.375 76.5221C172.718 76.3938 172.041 76.4073 171.39 76.5617C170.727 76.6635 170.058 76.7371 169.394 76.7937C168.041 76.9172 166.682 76.9645 165.323 76.9352C162.616 76.8674 159.925 76.4876 157.305 75.8033C152.4 74.5242 147.711 71.8417 142.5 72.1416C141.267 72.189 140.049 72.4335 138.894 72.866C137.794 73.3131 136.495 73.9979 135.928 75.0789C135.724 75.4751 136.07 76.058 136.552 75.8882C137.527 75.5486 138.389 74.9544 139.387 74.6374C140.396 74.3082 141.445 74.1178 142.506 74.0715C144.904 74.0692 147.282 74.5006 149.526 75.3449C151.981 76.1768 154.368 77.1842 156.897 77.852C159.453 78.5167 162.076 78.8964 164.716 78.9839C166.201 79.0396 167.687 79.0018 169.167 78.8707C169.933 78.8028 170.704 78.7009 171.464 78.5877C172.218 78.5475 172.95 78.3158 173.59 77.9143C173.706 77.8276 173.796 77.711 173.851 77.577C173.906 77.443 173.923 77.2966 173.901 77.1536C173.879 77.0106 173.818 76.8762 173.726 76.765C173.633 76.6537 173.512 76.5698 173.375 76.5221Z" fill="black"/>
<path d="M99.3323 26.8208C97.5859 23.6628 93.9003 22.1574 90.4131 22.4856C90.1749 22.4856 89.9309 22.5365 89.6985 22.5761C89.132 22.6677 88.577 22.8195 88.0428 23.0289C86.6044 23.5724 85.3076 24.4333 84.2494 25.5474C83.5226 26.3184 82.9044 27.1847 82.4121 28.1224C81.9358 29.0449 81.4711 30.041 81.6469 31.0824C81.6629 32.8239 82.2305 34.5157 83.2685 35.9155C84.348 37.4837 85.8525 38.7125 87.6062 39.4584C89.3517 40.1451 91.2601 40.3084 93.0973 39.9284C94.9344 39.5484 96.6205 38.6416 97.9488 37.3191C98.8434 36.3951 99.516 35.2804 99.9163 34.0592C100.176 33.2792 100.332 32.4687 100.381 31.6483C100.495 29.9726 100.132 28.2988 99.3323 26.8208ZM96.9621 34.9647C95.3631 37.353 92.063 38.3604 89.3413 37.6643C87.7385 37.2496 86.3186 36.3161 85.304 35.01C84.4526 33.8638 83.8397 32.5592 83.5011 31.1729C83.7689 30.6743 84.011 30.1624 84.2267 29.6392C84.5573 28.9534 84.9685 28.3094 85.4516 27.7206C86.3661 26.5958 87.5582 25.7279 88.9105 25.2021C89.1585 25.1086 89.4122 25.031 89.6702 24.9701C90.5984 24.7466 91.5611 24.7043 92.5053 24.8456C94.1018 25.0593 95.5706 25.8314 96.6503 27.0245C97.3556 27.8369 97.8226 28.8278 97.9998 29.8882C98.1558 30.8008 98.1326 31.7349 97.9317 32.6387C97.7547 33.467 97.4261 34.2556 96.9621 34.9647Z" fill="black"/>
<path d="M98.0107 29.888C96.7746 28.9089 95.5781 27.8676 94.4327 26.7753C93.775 26.1452 93.1362 25.502 92.5162 24.8455C94.1127 25.0592 95.5815 25.8313 96.6612 27.0243C97.3665 27.8368 97.8334 28.8277 98.0107 29.888Z" fill="black"/>
<path d="M79.2884 31.5408C78.6249 28.8525 76.9295 26.5152 74.1851 25.5361C73.4356 25.2656 72.639 25.1501 71.8434 25.1965C71.2185 25.2213 70.6017 25.3474 70.0174 25.57C69.6306 25.7168 69.2617 25.9067 68.9174 26.136C67.9648 26.7811 66.74 28.0828 66.5358 29.3789C66.4482 29.4334 66.3762 29.5094 66.3262 29.5996C64.835 32.169 65.4303 35.6665 67.0123 38.0888C68.1917 39.908 69.9801 41.2499 72.0588 41.875C72.6679 42.0404 73.2998 42.1054 73.9299 42.0674C74.5449 42.0268 75.1478 41.8773 75.7104 41.626C76.5396 41.2262 77.2726 40.6528 77.8597 39.9447C78.4468 39.2367 78.8742 38.4106 79.1125 37.5228C79.4956 36.3201 79.6664 35.06 79.6173 33.7989C79.5895 33.0366 79.4792 32.2795 79.2884 31.5408ZM76.8954 37.0644C76.7666 37.4483 76.5915 37.8151 76.3738 38.1567C76.087 38.6384 75.7004 39.0533 75.2397 39.3735C70.8566 42.3221 66.8477 35.4119 67.6926 31.6992C69.1498 25.2588 76.7254 27.6244 77.2924 33.2216C77.4291 34.5174 77.288 35.8273 76.8785 37.0644H76.8954Z" fill="black"/>
<path d="M78.5794 30.7261C78.5004 30.6502 78.3987 30.6019 78.2898 30.5888C78.1809 30.5757 78.0707 30.5984 77.9759 30.6534C77.881 30.7084 77.8066 30.7928 77.7641 30.8937C77.7215 30.9946 77.7133 31.1067 77.7403 31.2128C78.3526 33.137 79.0955 34.9311 79.1069 36.9911C79.1101 37.9719 78.9899 38.9492 78.7494 39.9001C78.4314 40.8662 78.0526 41.8113 77.6154 42.7298C77.3092 43.5222 78.5398 44.2409 79.0728 43.5731C79.7426 42.6375 80.2169 41.577 80.4677 40.4548C80.7666 39.3215 80.9001 38.1512 80.8644 36.9798C80.785 34.8122 80.2351 32.2711 78.5794 30.7261Z" fill="black"/>
<path d="M89.9197 35.1345C89.9177 35.0255 89.8843 34.9194 89.8233 34.8289L89.5113 34.4214L89.3582 34.2177C89.2989 34.1328 89.2346 34.0515 89.1655 33.9743L89.0578 33.8781L89.0182 33.8441C89.0182 33.8441 88.9842 33.7819 88.9728 33.7479C88.9836 33.7791 88.9968 33.8094 89.0124 33.8385C88.9988 33.7938 88.9819 33.7503 88.9615 33.7083L88.9274 33.6631L88.8992 33.6291L88.8706 33.5951C88.8537 33.5758 88.8385 33.5549 88.8252 33.5329L88.8651 33.5895C88.8064 33.5074 88.7332 33.4365 88.6494 33.3801C88.5178 33.3089 88.3671 33.2812 88.2186 33.3008C88.0873 33.3192 87.9639 33.3748 87.8634 33.4611C87.7629 33.5474 87.6894 33.6607 87.6516 33.7875C87.616 33.9048 87.6027 34.0276 87.612 34.1498C87.624 34.2774 87.6448 34.4041 87.6743 34.5289C87.6711 34.5439 87.6711 34.5593 87.6743 34.5742C87.6885 34.6781 87.7233 34.7781 87.7765 34.8685C87.7972 34.9019 87.8198 34.934 87.8443 34.9647C87.8598 35.0023 87.8788 35.0383 87.9011 35.0723C87.9995 35.2423 88.1154 35.4016 88.2469 35.5476C88.3354 35.6482 88.4342 35.7392 88.5417 35.8193L88.7062 35.9495L88.9047 36.0287C89.0106 36.0568 89.1219 36.0568 89.2278 36.0287C89.4057 36.008 89.5714 35.9283 89.6985 35.8023C89.794 35.6983 89.8657 35.5747 89.9083 35.4401C89.9402 35.3412 89.9441 35.2355 89.9197 35.1345Z" fill="black"/>
<path d="M76.9065 37.099C76.8666 36.9482 76.7864 36.8112 76.6742 36.7028C76.5324 36.5387 76.3793 36.3802 76.2262 36.2217C76.0454 36.0053 75.8354 35.8149 75.6024 35.6558L75.5003 35.6105C75.4868 35.591 75.4753 35.5701 75.4662 35.5483C75.4265 35.4973 75.387 35.4521 75.353 35.4011C75.2888 35.3338 75.2088 35.2832 75.1204 35.254C74.9727 35.1875 74.8065 35.1735 74.6497 35.2144C74.5321 35.2541 74.424 35.3177 74.3321 35.4011C74.1993 35.5377 74.1244 35.7201 74.1226 35.9105C74.1451 36.3693 74.2921 36.8133 74.5478 37.1952C74.6822 37.3827 74.834 37.557 75.0013 37.7159C75.1751 37.8749 75.3652 38.0153 75.5684 38.1347C75.7796 38.2503 76.0273 38.2807 76.2603 38.2196L76.4698 38.1347C76.5736 38.0807 76.6617 38.0007 76.7251 37.9026C76.8525 37.7416 76.9205 37.5418 76.9178 37.3367L76.9065 37.099Z" fill="black"/>
<path d="M86.9827 45.3895C86.5801 45.2819 86.2571 45.5875 86.0302 45.8875L85.9962 45.9328L85.9394 46.0007L85.7467 46.2384C85.6197 46.3972 85.4832 46.5484 85.3383 46.6911C85.2023 46.827 85.055 46.9515 84.9075 47.076L84.8677 47.1099L84.7885 47.1665C84.6978 47.2344 84.6069 47.3023 84.5105 47.3646C84.151 47.6024 83.7716 47.8088 83.3765 47.9815C83.2574 48.0381 83.3199 47.9815 83.3482 47.9815L83.1552 48.0607L82.8435 48.1966C82.6337 48.2815 82.4296 48.3776 82.2142 48.4512C82.1277 48.4782 82.0517 48.5314 81.9968 48.6034C81.942 48.6754 81.9109 48.7626 81.908 48.853C81.9083 48.9442 81.9383 49.0327 81.9935 49.1052C82.0488 49.1777 82.1263 49.2303 82.2142 49.2549C82.6471 49.3462 83.0931 49.3558 83.5296 49.2832C83.9578 49.2023 84.3735 49.0653 84.7658 48.8757C85.5134 48.524 86.1795 48.021 86.7219 47.3986C87.0638 47.0656 87.3106 46.6474 87.4365 46.1874C87.4759 46.0218 87.4508 45.8475 87.3667 45.6994C87.2825 45.5514 87.1453 45.4406 86.9827 45.3895Z" fill="black"/>
<path d="M95.8224 54.1954C95.6935 54.3307 95.6109 54.5033 95.5865 54.6883C95.562 54.8734 95.5968 55.0614 95.6861 55.2254C95.8087 55.4835 95.9549 55.7298 96.1228 55.9612C94.1714 57.104 91.9437 57.6912 89.6814 57.659C87.4788 57.6281 85.3046 57.1559 83.2883 56.2702C81.272 55.3845 79.4546 54.1035 77.9439 52.5032C76.3924 50.8959 75.0927 49.0643 74.0883 47.0701C73.584 46.0843 73.1298 45.0737 72.7275 44.0423C72.3947 43.3597 72.1672 42.6308 72.0527 41.8804C72.6618 42.0458 73.2937 42.1108 73.9238 42.0728V42.1124C74.1393 42.6105 74.3605 43.1085 74.593 43.6009C75.0662 44.6277 75.6001 45.6255 76.1919 46.5891C78.2389 49.9282 81.0228 52.956 84.7255 54.4557C86.4831 55.1832 88.3747 55.5322 90.2767 55.4801C92.1577 55.3938 93.9876 54.8414 95.6012 53.8728C95.795 53.7436 96.0311 53.6933 96.2609 53.7322C96.4908 53.7712 96.6971 53.8964 96.8374 54.0822C96.6787 53.9888 96.4938 53.9494 96.3108 53.9698C96.1277 53.9902 95.9565 54.0694 95.8224 54.1954Z" fill="black"/>
<path d="M73.9239 42.0505C73.2938 42.0885 72.6619 42.0235 72.0528 41.8581C72.03 41.5448 72.0946 41.2313 72.2397 40.9526C72.3104 40.8371 72.4233 40.7537 72.5545 40.7199C72.6857 40.6861 72.8251 40.7046 72.9429 40.7715C73.422 41.0567 73.7731 41.5145 73.9239 42.0505Z" fill="black"/>
<path d="M96.6447 55.5987C96.4803 55.7232 96.3046 55.8477 96.1231 55.9609C95.9553 55.7296 95.8091 55.4833 95.6865 55.2252C95.5972 55.0612 95.5624 54.8731 95.5868 54.6881C95.6113 54.503 95.6939 54.3304 95.8227 54.1952C95.9558 54.0603 96.13 53.9737 96.318 53.9491C96.506 53.9245 96.697 53.9633 96.8604 54.0593C96.9523 54.1726 97.0196 54.3036 97.0587 54.444C97.0977 54.5844 97.1074 54.7313 97.0872 54.8757C97.067 55.02 97.0174 55.1587 96.9413 55.283C96.8652 55.4074 96.7642 55.5148 96.6447 55.5987Z" fill="black"/>
<path d="M103.529 62.8259C103.296 63.3918 102.395 63.805 101.907 63.2277L101.754 63.0522C100.716 61.8241 99.7011 60.5621 98.7145 59.2887C98.1985 58.6265 97.6938 57.9587 97.1778 57.2909C96.849 56.8608 96.4578 56.425 96.1346 55.9609C95.9667 55.7296 95.8206 55.4833 95.698 55.2252C95.6087 55.0612 95.5739 54.8731 95.5983 54.6881C95.6228 54.503 95.7053 54.3304 95.8342 54.1952C95.9672 54.0603 96.1415 53.9737 96.3295 53.9491C96.5175 53.9245 96.7082 53.9633 96.8716 54.0593C97.5291 54.63 98.1174 55.2759 98.6239 55.9836C99.1569 56.6401 99.7013 57.2909 100.24 57.9474C101.255 59.2151 102.276 60.4941 103.24 61.8015C103.308 61.8864 103.37 61.9656 103.426 62.0505C103.512 62.1583 103.567 62.2874 103.585 62.4241C103.603 62.5607 103.584 62.6996 103.529 62.8259Z" fill="black"/>
<path d="M81.1196 10.3341C81.1196 10.2662 81.1196 10.2209 81.1196 10.1983C81.1 10.2878 81.0868 10.3785 81.08 10.4699L80.9778 10.7246C80.9395 10.7885 80.8959 10.8491 80.8474 10.9057C80.7397 11.0246 80.615 11.1264 80.5016 11.2396C80.1841 11.5282 79.8551 11.8056 79.5376 12.1055C78.9706 12.6715 78.4034 13.2374 77.8761 13.8034C76.7916 15.0319 75.8238 16.3581 74.9845 17.765C74.1235 19.1635 73.4 20.6419 72.8241 22.1794C72.5406 22.9604 72.291 23.747 72.0359 24.5394C71.9735 24.7544 71.9055 24.9695 71.8318 25.1789C71.6822 25.7258 71.4216 26.2363 71.0663 26.6787C70.9966 26.7369 70.9138 26.7775 70.8251 26.7972C70.7364 26.8169 70.6444 26.815 70.5565 26.7917C70.4687 26.7684 70.3879 26.7244 70.3207 26.6634C70.2534 26.6023 70.2018 26.526 70.1703 26.441C70.0618 26.1572 70.0061 25.8561 70.0059 25.5524C70.0081 24.9668 70.0804 24.3835 70.2213 23.815C70.3931 23.003 70.6187 22.2033 70.8963 21.421C71.4727 19.7669 72.2016 18.1698 73.0736 16.6501C73.9603 15.1334 74.9975 13.7095 76.1695 12.3998C76.7443 11.7507 77.3518 11.1311 77.9896 10.5435C78.3071 10.2492 78.6248 9.97753 78.965 9.6889C79.1203 9.51547 79.3096 9.37575 79.5212 9.27839C79.7329 9.18104 79.9624 9.12813 80.1954 9.12295C80.3187 9.08794 80.4487 9.08462 80.5736 9.11331C80.6985 9.14201 80.8142 9.20181 80.9097 9.2871C81.0622 9.40933 81.1668 9.58116 81.2052 9.77256C81.2435 9.96396 81.2132 10.1627 81.1196 10.3341Z" fill="black"/>
<path d="M83.1157 32.5655C82.251 32.0614 81.2218 31.9189 80.2524 32.1693C79.7539 32.2795 79.2901 32.5108 78.9026 32.8428C78.8291 32.9049 78.7608 32.9731 78.6986 33.0465L78.5964 33.1767L78.4832 33.3182V33.3578L78.3868 33.4823L78.296 33.6125C78.2358 33.7035 78.1809 33.798 78.1316 33.8954C78.0601 34.023 78.0368 34.172 78.066 34.3153C78.0951 34.4586 78.1748 34.5867 78.2905 34.6764C78.4065 34.7671 78.5515 34.8125 78.6986 34.8041C78.8457 34.7958 78.9848 34.7343 79.0898 34.6312C79.1498 34.5646 79.2144 34.5022 79.2828 34.4444L79.3224 34.4048L79.4018 34.3482C79.468 34.3038 79.538 34.2659 79.6114 34.235H79.6513L79.7249 34.201L79.9403 34.1218C80.0141 34.1218 80.0877 34.0652 80.1557 34.0369H80.1956C80.3659 33.976 80.5402 33.9268 80.7172 33.8898C80.7321 33.8857 80.7478 33.8857 80.7626 33.8898H80.7967H81.0348H81.307H81.4033C81.5679 33.9207 81.7306 33.9604 81.8909 34.0086L81.993 34.0426H82.0611L82.2029 34.1218C82.3051 34.1909 82.4205 34.2383 82.5418 34.261C82.6631 34.2838 82.7877 34.2814 82.9081 34.2541C83.0285 34.2268 83.1419 34.1751 83.2414 34.1022C83.341 34.0294 83.4245 33.9368 83.4867 33.8304C83.549 33.724 83.5889 33.606 83.6036 33.4836C83.6183 33.3613 83.6073 33.2373 83.572 33.1192C83.5367 33.0011 83.4776 32.8916 83.3981 32.7973C83.3187 32.703 83.2207 32.626 83.1102 32.5711L83.1157 32.5655Z" fill="black"/>
<path d="M14.6877 99.1655C14.5241 98.9235 14.2786 98.7487 13.9961 98.6731L13.4687 98.5147L12.9584 98.3619C12.7449 98.2816 12.5172 98.245 12.2892 98.2543C12.1843 98.2579 12.0817 98.285 11.9888 98.3336C11.8772 98.4011 11.7899 98.5021 11.7393 98.6222C11.6926 98.7317 11.6795 98.8526 11.7017 98.9695C11.7239 99.0864 11.7803 99.194 11.8639 99.2787C12.2318 99.536 12.6488 99.7151 13.0888 99.805L13.5935 99.9692C13.8864 100.07 14.2067 100.056 14.4895 99.9296C14.6157 99.8531 14.7069 99.7305 14.7439 99.5878C14.781 99.4451 14.7608 99.2936 14.6877 99.1655Z" fill="black"/>
<path d="M38.0375 105.42C37.948 105.271 37.8099 105.157 37.6463 105.097C37.6223 105.072 37.5956 105.049 37.5668 105.029C37.4802 104.985 37.3889 104.951 37.2947 104.927C37.1813 104.888 37.0678 104.848 36.9544 104.82C36.6824 104.749 36.4058 104.698 36.1266 104.667C35.8884 104.633 35.6559 104.61 35.4178 104.588C35.2991 104.574 35.1793 104.574 35.0606 104.588C34.8969 104.606 34.7396 104.662 34.6013 104.752C34.5587 104.778 34.5225 104.813 34.4952 104.855C34.468 104.896 34.4506 104.944 34.444 104.993C34.4375 105.043 34.4422 105.093 34.4576 105.14C34.473 105.187 34.4988 105.231 34.5332 105.267C34.6322 105.369 34.7497 105.451 34.8793 105.51C34.9868 105.559 35.0987 105.597 35.2137 105.623C35.4575 105.68 35.7012 105.725 35.9394 105.788C36.1775 105.85 36.4045 105.895 36.6426 105.94L36.9943 106.003L37.2152 106.037C37.2754 106.045 37.3367 106.045 37.3968 106.037C37.5673 106.067 37.743 106.039 37.8957 105.957C37.9832 105.902 38.0463 105.816 38.0727 105.716C38.099 105.617 38.0865 105.511 38.0375 105.42Z" fill="black"/>
<path d="M60.6667 92.7426C60.5867 92.6748 60.4877 92.6334 60.3832 92.6238H60.0371H59.8671C59.8105 92.6182 59.7537 92.6182 59.6971 92.6238L59.351 92.669C59.266 92.669 59.1809 92.6691 59.1015 92.703C59.0222 92.737 58.9372 92.7765 58.8634 92.8048C58.7987 92.8441 58.7468 92.9016 58.7145 92.97C58.6822 93.0385 58.6711 93.1149 58.6821 93.1897C58.6907 93.2636 58.7211 93.3332 58.7696 93.3897C58.8181 93.4461 58.8824 93.4868 58.9543 93.5066C59.0906 93.5466 59.2316 93.5676 59.3737 93.5689H59.7198C59.8687 93.5643 60.0167 93.5454 60.162 93.5123L60.4909 93.4387C60.5837 93.4113 60.6636 93.3519 60.7165 93.271C60.7695 93.1902 60.792 93.0932 60.7799 92.9973C60.7759 92.9011 60.7355 92.81 60.6667 92.7426Z" fill="black"/>
<path d="M80.989 88.051C80.9526 87.9591 80.8893 87.8803 80.8074 87.8248C80.7255 87.7692 80.6287 87.7396 80.5297 87.7397C80.4515 87.7451 80.3737 87.7565 80.2971 87.7737C80.2234 87.7737 80.1384 87.8416 80.0704 87.8699C79.9899 87.9077 79.9124 87.9512 79.8381 88.0001C79.6587 88.1202 79.4863 88.2506 79.322 88.3906C79.1916 88.4981 79.0668 88.617 78.9477 88.7358L78.7663 88.9282C78.6695 89.0564 78.5947 89.1999 78.5451 89.3527C78.5224 89.4341 78.5224 89.5202 78.5451 89.6017C78.5754 89.6984 78.635 89.7833 78.7154 89.8451C78.7884 89.9011 78.8763 89.9342 78.9682 89.9403C79.06 89.9463 79.1515 89.925 79.2312 89.879C79.3339 89.8249 79.431 89.7604 79.5205 89.6866L79.7019 89.5055C79.8039 89.4093 79.9174 89.3187 80.0308 89.2282C80.1442 89.1376 80.269 89.0527 80.3938 88.9735C80.4671 88.9316 80.537 88.8843 80.6034 88.832C80.7088 88.7691 80.8044 88.6909 80.8869 88.6C80.9562 88.5287 81.003 88.4386 81.0212 88.3409C81.0393 88.2432 81.0282 88.1424 80.989 88.051Z" fill="black"/>
<path d="M59.8053 19.6901C59.7202 19.209 59.2949 18.9769 58.932 18.7109C58.5692 18.4449 58.3084 18.2525 57.9852 18.0375C57.3388 17.613 56.6809 17.2055 56.0288 16.7867C55.3767 16.3679 54.7302 15.9548 54.0725 15.5473C53.432 15.0759 52.7172 14.7143 51.9575 14.4777C51.8139 14.4398 51.6623 14.4454 51.522 14.4938C51.3816 14.5422 51.2591 14.6311 51.1695 14.7493C51.076 14.8654 51.0198 15.007 51.0087 15.1556C50.9975 15.3042 51.0317 15.4526 51.1069 15.5813C51.224 15.7525 51.3511 15.9169 51.4871 16.0736C51.6571 16.2164 51.837 16.3469 52.0256 16.4641C52.3374 16.6905 52.6606 16.9112 52.9838 17.1206C53.6472 17.5621 54.3164 17.9922 54.9911 18.4223L56.9416 19.6674C57.2705 19.8768 57.6107 20.0579 57.9453 20.2333C58.1307 20.3815 58.3448 20.4902 58.5741 20.5525C58.8033 20.6148 59.0427 20.6294 59.2779 20.5956C59.4633 20.5378 59.6202 20.4127 59.7178 20.2451C59.8154 20.0775 59.8467 19.8795 59.8053 19.6901Z" fill="#2563EB"/>
<path d="M52.6097 28.8354C54.1917 28.5468 55.7453 28.2072 57.3103 27.8506C57.7923 27.7431 57.6958 26.9338 57.1968 26.9847C55.6035 27.1375 54.0271 27.3017 52.4394 27.5507C51.6456 27.6582 50.8461 27.7771 50.0522 27.8959C49.2506 27.9699 48.455 28.0985 47.6709 28.2808C47.5094 28.3279 47.3699 28.4314 47.2783 28.5723C47.1867 28.7132 47.1488 28.8823 47.1714 29.0488C47.1941 29.2152 47.2758 29.3681 47.4018 29.4795C47.5278 29.5909 47.6895 29.6536 47.8578 29.656C48.6596 29.5858 49.4555 29.4591 50.2394 29.2768C51.0332 29.1184 51.8215 28.9825 52.6097 28.8354Z" fill="#2563EB"/>
<path d="M58.1668 32.6497C56.5068 33.1174 54.9234 33.8227 53.4662 34.7437C52.7399 35.1999 52.0482 35.7088 51.3966 36.2661C51.0613 36.5368 50.7414 36.8258 50.4383 37.132C50.2852 37.3014 50.1412 37.479 50.0073 37.664C49.87 37.8578 49.7594 38.0691 49.6783 38.2922C49.6244 38.3893 49.604 38.5013 49.6196 38.6111C49.6353 38.721 49.6863 38.8228 49.7653 38.9009C49.8442 38.9791 49.9466 39.0294 50.0568 39.0441C50.167 39.0589 50.279 39.0373 50.3758 38.9827C50.5758 38.9026 50.766 38.8001 50.9428 38.6771L51.4248 38.2922C51.7367 38.0319 52.0259 37.7263 52.3321 37.4659C52.9445 36.9 53.5852 36.3906 54.2486 35.9096C55.5783 34.9273 56.9896 34.0601 58.4672 33.3175C58.7904 33.1308 58.5297 32.5365 58.1668 32.6497Z" fill="#2563EB"/>
<path d="M125.853 145.603L123.885 145.744L123.766 144.103C123.241 136.704 122.772 129.298 122.36 121.884C122.122 117.752 121.917 113.615 121.725 109.484C121.626 107.443 121.538 105.398 121.458 103.349C121.413 102.008 121.333 100.644 121.333 99.291C121.333 98.5496 121.333 97.8139 121.418 97.0782C121.428 96.9805 121.458 96.8857 121.504 96.7993C121.551 96.7128 121.614 96.6364 121.691 96.5745C122.093 96.9593 122.496 97.3328 122.916 97.7064C123.074 98.7703 123.171 99.8456 123.244 100.932C123.307 101.928 123.364 102.924 123.432 103.909C123.585 106.173 123.709 108.437 123.846 110.7C124.341 118.873 124.813 127.049 125.263 135.229L125.756 143.944C125.79 144.505 125.824 145.054 125.853 145.603Z" fill="black"/>
<path d="M176.969 142.795L175.188 142.869L172.971 142.954C160.678 143.463 148.393 144.118 136.115 144.917C132.713 145.136 129.293 145.365 125.857 145.602L123.89 145.744C121.848 145.885 119.813 146.032 117.772 146.185C114.698 146.412 111.613 146.655 108.54 146.898C106.612 147.057 104.656 147.283 102.711 147.396C101.912 147.436 101.118 147.464 100.33 147.453C100.33 147.017 100.364 146.576 100.375 146.134C101.163 146.004 101.957 145.913 102.757 145.834L104.333 145.681C106.034 145.512 107.769 145.37 109.487 145.229C112.927 144.938 116.369 144.663 119.813 144.402L123.782 144.102L125.772 143.955C136.066 143.201 146.361 142.573 156.658 142.071C162.74 141.765 168.825 141.493 174.911 141.256L176.731 141.182C176.81 141.646 176.872 142.099 176.946 142.557C176.94 142.637 176.952 142.699 176.969 142.795Z" fill="black"/>
<path d="M26.6961 112.8C26.6828 112.675 26.6237 112.559 26.53 112.475C26.4363 112.391 26.3146 112.344 26.1886 112.344C26.0625 112.344 25.9409 112.391 25.8472 112.475C25.7535 112.559 25.6943 112.675 25.6811 112.8C25.6324 113.659 25.5148 114.512 25.3295 115.352C25.2259 115.773 25.0974 116.187 24.9441 116.592C24.7436 116.989 24.5802 117.404 24.4562 117.831C24.4251 117.949 24.4332 118.074 24.4792 118.188C24.5252 118.301 24.6067 118.396 24.7115 118.459C24.818 118.52 24.9415 118.544 25.0631 118.529C25.1848 118.514 25.2981 118.46 25.3862 118.375C25.7066 117.984 25.9423 117.531 26.0781 117.045C26.2432 116.596 26.3777 116.136 26.4807 115.669C26.7189 114.733 26.7918 113.762 26.6961 112.8Z" fill="black"/>
<path d="M160.141 50.3639C159.647 47.2177 158.11 44.328 155.775 42.1577C150.507 37.0641 143.113 35.7229 136.428 33.4081C134.601 32.7818 132.821 32.0252 131.103 31.1443C129.394 30.1514 127.759 29.0374 126.21 27.8109C125.717 27.4543 125.019 28.1561 125.371 28.6542C126.391 29.961 127.644 31.0682 129.068 31.9197C130.424 32.8036 131.859 33.5614 133.355 34.1835C136.587 35.5587 139.972 36.4982 143.294 37.6131C148.965 39.5147 155.684 42.5255 157.64 48.7283C158.123 50.2153 158.268 51.7908 158.066 53.3408C157.968 54.0786 157.777 54.8012 157.498 55.4914C157.181 56.2441 156.671 56.8836 156.33 57.6194C155.99 58.3551 156.773 59.5266 157.629 58.9154C158.905 58.0099 159.596 56.3686 159.971 54.8858C160.316 53.4032 160.373 51.8682 160.141 50.3639Z" fill="black"/>
</svg>
