<svg width="96" height="96" viewBox="0 0 96 96" fill="none" xmlns="http://www.w3.org/2000/svg">
<path d="M67.8466 42.9274C67.7536 44.7946 67.0178 46.572 65.7635 47.9582C64.5084 49.3125 62.8978 50.2865 61.1155 50.7689C60.1374 51.0445 59.129 51.1988 58.1133 51.2282C57.6157 51.2282 57.1179 51.2282 56.6149 51.2282C56.4016 51.2282 56.1719 51.179 56.068 51.3868C55.9641 51.5946 55.904 51.7641 55.8056 51.9336C55.5776 52.278 55.2769 52.5682 54.9245 52.7837C54.572 52.9991 54.1766 53.1345 53.7661 53.1804C52.6893 53.249 51.609 53.1211 50.578 52.8031C49.55 52.5734 48.5056 52.3711 47.4886 52.1086C47.0904 52.0099 46.7063 51.861 46.3456 51.6657C39.7855 52.2202 33.1856 51.2624 27.0537 48.8659C24.2321 47.7723 21.1972 46.4216 19.2286 44.0211C18.3409 42.9374 17.7228 41.6586 17.4252 40.2897C17.1275 38.9208 17.1588 37.5008 17.5164 36.1462C17.8739 34.7917 18.5476 33.5414 19.4822 32.4977C20.4167 31.4541 21.5855 30.647 22.8925 30.1427C22.7831 29.852 22.7006 29.5518 22.6463 29.2459C22.5386 28.3811 22.6236 27.5033 22.8949 26.6752C23.1662 25.847 23.6172 25.0891 24.2157 24.4557C25.5296 23.1319 27.1653 22.1727 28.9621 21.6724C29.8753 21.3771 30.8268 21.1857 31.6962 20.8303C32.5227 20.5084 33.2269 19.9345 33.7086 19.1898C34.1533 18.4497 34.5198 17.6653 34.8023 16.8494C35.1028 16.0497 35.4685 15.2761 35.8959 14.5363C37.6434 11.6843 40.3899 9.5849 43.6006 8.64709C46.8825 7.67774 50.4054 7.93824 53.5091 9.37981C56.7687 10.8542 59.4203 13.4073 61.0169 16.6088C62.8379 20.36 62.7886 24.7565 62.1488 28.792C61.9498 29.6469 61.9109 30.5313 62.034 31.4004C62.2363 32.3245 62.969 32.7346 63.7564 33.1283C64.5327 33.49 65.2101 34.0341 65.7306 34.7141C66.238 35.4291 66.6309 36.2187 66.8953 37.0546C67.5801 38.9346 67.9028 40.9273 67.8466 42.9274Z" fill="black"/>
<path d="M60.5628 35.4855C60.3925 36.3258 60.0996 37.1365 59.6934 37.8916C59.3689 38.5138 58.9311 39.0701 58.4028 39.532C57.7971 40.0094 57.1408 40.4183 56.4454 40.7515L51.8027 43.2122C51.0426 43.6168 50.2826 44.0269 49.5225 44.4207C48.8523 44.7911 48.1423 45.0846 47.4062 45.2956C45.8696 45.7002 44.1526 45.4596 42.616 45.1643C41.0872 44.8898 39.611 44.3768 38.2415 43.6441C36.9551 42.993 35.8504 42.0329 35.0262 40.8499C34.3815 39.8369 33.9977 38.68 33.9089 37.4825C33.8202 36.2851 34.0292 35.0842 34.5176 33.9873H34.3372C33.9326 33.9544 34.0036 33.3256 34.4137 33.3584H34.4903C34.5252 33.2946 34.5829 33.2463 34.6517 33.223C34.7206 33.1997 34.7957 33.2031 34.8621 33.2326H34.9169C35.0864 33.0522 35.3652 33.2326 35.4199 33.424L36.3112 33.7631C36.3611 33.7814 36.4047 33.8137 36.4369 33.856C38.5914 34.7255 40.7569 35.5676 42.9387 36.3659C42.9661 34.5833 42.9004 32.7952 43.0809 31.018C43.0481 30.9816 43.0234 30.9386 43.0085 30.892C42.9937 30.8453 42.989 30.796 42.9947 30.7474C43.0003 30.6988 43.0164 30.6519 43.0416 30.6099C43.0669 30.5679 43.1007 30.5318 43.141 30.504C43.1579 30.445 43.1929 30.3928 43.241 30.3545C43.289 30.3163 43.3476 30.294 43.4089 30.2907C43.5299 30.1627 43.6132 30.0037 43.6496 29.8314C43.6609 29.7624 43.6932 29.6986 43.7421 29.6486C43.7911 29.5987 43.8543 29.5651 43.923 29.5525C44.6116 29.3178 45.229 28.9112 45.7166 28.3714C46.2634 27.8245 46.8102 27.2777 47.4117 26.7692C48.4908 25.8472 49.6596 25.0357 50.9005 24.3468C51.934 23.7671 53.1752 23.1383 54.3892 23.3023C54.3863 23.2532 54.3971 23.2043 54.4203 23.1609C54.4434 23.1175 54.478 23.0813 54.5204 23.0563L54.597 23.018C54.8897 22.8549 55.2217 22.7758 55.5565 22.7893C55.8913 22.8028 56.2159 22.9084 56.4945 23.0945C56.7974 23.3027 57.0353 23.5925 57.1804 23.9302C57.3256 24.2679 57.3721 24.6399 57.3147 25.0029C57.2543 25.3933 57.0996 25.7631 56.8643 26.0803C56.629 26.3976 56.32 26.6528 55.9639 26.8239L55.8219 26.8895C55.1797 27.298 54.4278 27.5003 53.6673 27.4691C53.6191 27.4652 53.5726 27.4497 53.5317 27.424C53.4907 27.3983 53.4567 27.3632 53.4322 27.3215C53.1055 27.2969 52.7804 27.2531 52.4589 27.1902H52.3824C52.3288 27.1759 52.2811 27.1453 52.2457 27.1027C51.7973 27.3051 51.3542 27.5183 50.9223 27.7535C50.6087 27.8793 50.3228 28.0651 50.0803 28.3003C49.9194 28.5957 49.8671 28.9382 49.9326 29.2682C49.9873 30.6352 50.1075 32.0023 50.288 33.3584C50.3864 34.0583 50.4958 34.7528 50.6216 35.4418C50.6544 35.6277 50.6927 35.8136 50.7309 35.9886C50.7408 36.1158 50.7609 36.242 50.791 36.3659C50.9332 36.4534 51.4309 36.1253 51.5512 36.0652C53.0683 35.3592 54.6237 34.7385 56.2101 34.206C57.0178 33.8313 57.8707 33.5629 58.7475 33.4076L59.0863 33.2709C59.4363 33.1342 59.863 32.8936 60.2293 33.0959C60.5957 33.2983 60.6229 33.7904 60.6448 34.1568C60.6667 34.6014 60.6392 35.047 60.5628 35.4855Z" fill="white"/>
<path d="M60.3116 32.6309C60.153 32.8933 59.9889 33.1777 59.8248 33.4183C58.1393 33.8321 56.5144 34.4626 54.9909 35.2939L54.6682 34.7471C56.4314 33.7603 58.3343 33.0468 60.3116 32.6309Z" fill="black"/>
<path d="M43.0757 36.2945L42.8023 36.8687C40.2193 35.6436 37.5767 34.5486 34.8843 33.5877C34.8843 33.369 34.8843 33.1557 34.9281 32.937C37.7013 33.9116 40.4209 35.0324 43.0757 36.2945Z" fill="black"/>
<path d="M55.3572 69.5797C51.1685 68.0431 29.3995 69.9406 27.0536 71.0233C24.7078 72.106 14.5752 86.3617 15.2478 88.8935C15.9204 91.4252 32.9593 95.9256 41.8288 95.5374C54.6846 94.9905 64.7953 90.8784 67.163 88.9755C69.5308 87.0725 69.17 86.3562 68.4209 84.7321C67.6717 83.1081 59.5404 71.1108 55.3572 69.5797Z" fill="black"/>
<path d="M13.5855 49.7847C13.5855 49.7847 6.41123 59.8517 3.19591 66.1894C-0.0194058 72.5271 -0.172537 75.026 0.57661 77.864C1.32576 80.702 4.05437 84.929 7.10564 85.6289C10.1569 86.3289 12.1966 86.5913 13.1207 86.1101C14.0448 85.6289 16.8665 84.661 18.9061 83.1628C20.9458 81.6645 21.0934 81.5223 21.0934 81.5223C21.0934 81.5223 35.0046 60.3329 34.8733 60.1415C34.7421 59.9501 29.5199 50.7197 29.5199 50.7197L13.5855 49.7847Z" fill="white"/>
<path d="M59.2617 54.1757C59.4203 54.0116 70.6684 76.929 70.8817 76.9836C71.095 77.0383 82.1789 71.1982 82.1789 71.1982C81.6179 68.1739 80.8673 65.1878 79.9315 62.2577C78.3239 57.1722 75.2178 48.5488 75.2178 48.5488L59.2617 54.1757Z" fill="white"/>
<path d="M76.9677 52.1842L76.3771 52.4084L69.0879 55.2136L62.0502 57.9477L61.3995 58.1992C61.538 58.4727 61.6804 58.7461 61.8262 59.0195C61.7551 59.3148 61.673 59.6155 61.58 59.9053C61.5363 60.0475 61.5144 60.135 61.4871 60.2225C61.3395 60.6928 61.1864 61.163 61.0388 61.6278C60.6274 62.8896 60.3184 64.1825 60.1147 65.4939C59.7841 68.1176 59.6796 70.7648 59.8028 73.4064C59.8028 73.4392 59.8028 73.4665 59.8028 73.4993C58.9607 73.6196 58.1132 73.7017 57.2711 73.7728C53.8371 74.0407 50.3811 74.1228 46.9416 74.2759C40.0078 74.5876 33.0414 75.0414 26.1077 74.511C25.7796 74.511 25.4515 74.4618 25.1288 74.429C26.0475 70.747 26.9971 67.0724 27.9778 63.405C27.2395 61.4128 26.903 59.2941 26.988 57.1712L13.148 50.921L12.5629 50.6586C12.6777 50.4781 12.7979 50.2977 12.9073 50.1117C15.7289 45.7372 18.4139 41.8055 20.2129 39.2464C23.8821 34.0461 28.4152 31.8916 33.703 32.854C33.9181 32.8905 34.1532 32.9451 34.4084 33.018C34.6053 33.0672 34.8131 33.1329 35.0319 33.1985C35.0319 33.4172 34.999 33.6305 34.9881 33.8492C34.9325 35.0236 35.0429 36.1999 35.3161 37.3434C35.6432 38.6283 36.284 39.8119 37.1808 40.7884C38.7577 42.4604 40.8589 43.5428 43.1357 43.8561C45.7093 44.1538 48.3125 43.6557 50.5944 42.4288C54.3128 40.5423 57.0031 37.3653 59.2013 33.8929C59.3653 33.6305 59.5294 33.3461 59.688 33.1055C59.9614 33.0508 60.235 33.0016 60.5139 32.9633C62.9582 32.6024 65.6922 32.8321 67.9779 34.6038C70.9527 36.9114 74.7203 46.1691 76.7271 51.61C76.8255 51.7795 76.8966 51.9764 76.9677 52.1842Z" fill="white"/>
<path fill-rule="evenodd" clip-rule="evenodd" d="M76.3771 52.4084L76.9677 52.1842C76.9201 52.045 76.8725 51.9108 76.8167 51.7864C76.7999 51.7489 76.7823 51.7123 76.7638 51.6767C76.752 51.654 76.7398 51.6318 76.7271 51.61C74.7203 46.1691 70.9527 36.9114 67.9779 34.6038C65.6922 32.8321 62.9582 32.6024 60.5139 32.9633C60.235 33.0016 59.9614 33.0508 59.688 33.1055C59.5907 33.2532 59.4912 33.4174 59.391 33.5829C59.328 33.687 59.2646 33.7916 59.2013 33.8929C57.0031 37.3653 54.3128 40.5423 50.5944 42.4288C48.3125 43.6557 45.7093 44.1538 43.1357 43.8561C40.8589 43.5428 38.7577 42.4604 37.1808 40.7884C36.284 39.8119 35.6432 38.6283 35.3161 37.3434C35.0429 36.1999 34.9325 35.0236 34.9881 33.8492C34.9925 33.7613 35.0004 33.6742 35.0083 33.5874C35.0201 33.4582 35.0319 33.3293 35.0319 33.1985C34.9878 33.1853 34.9441 33.172 34.9009 33.159C34.7298 33.1071 34.5656 33.0573 34.4084 33.018C34.1532 32.9451 33.9181 32.8905 33.703 32.854C28.4152 31.8916 23.8821 34.0461 20.2129 39.2464C18.4139 41.8055 15.7289 45.7372 12.9073 50.1117C12.8915 50.1387 12.8754 50.1655 12.8592 50.1922C12.7939 50.2996 12.7257 50.4054 12.6578 50.5107C12.626 50.56 12.5942 50.6093 12.5629 50.6586L13.148 50.921L26.988 57.1712C26.903 59.2941 27.2395 61.4128 27.9778 63.405C27.0447 66.8945 26.1397 70.3905 25.2628 73.8932C25.2181 74.0717 25.1734 74.2503 25.1288 74.429C25.2072 74.4369 25.2859 74.4459 25.3649 74.4548C25.4688 74.4666 25.5731 74.4785 25.6776 74.4882C25.8207 74.5016 25.9642 74.511 26.1077 74.511C32.1735 74.975 38.2643 74.6858 44.3363 74.3974C45.2052 74.3561 46.0736 74.3149 46.9416 74.2759C47.8958 74.2334 48.8513 74.1964 49.8072 74.1594C52.297 74.0629 54.7898 73.9664 57.2711 73.7728C58.1132 73.7017 58.9607 73.6197 59.8028 73.4993V73.4064C59.6796 70.7648 59.7841 68.1176 60.1147 65.4939C60.3184 64.1825 60.6274 62.8896 61.0388 61.6278C61.0982 61.4408 61.1585 61.2528 61.219 61.0643C61.3087 60.7845 61.3989 60.5035 61.4871 60.2225C61.4997 60.1821 61.5112 60.1417 61.5242 60.0958C61.5393 60.0425 61.5565 59.9818 61.58 59.9053C61.673 59.6155 61.7551 59.3148 61.8262 59.0195C61.7673 58.909 61.709 58.7986 61.6512 58.6882C61.566 58.5252 61.4821 58.3622 61.3995 58.1992L62.0502 57.9477L69.0879 55.2136L76.3771 52.4084ZM61.8522 57.438L68.8915 54.7032L76.183 51.8971L76.2473 51.8727L76.2305 51.8437L76.2141 51.7993C75.2132 49.0858 73.7762 45.4287 72.2219 42.1672C71.4445 40.5361 70.6422 39.0132 69.8548 37.7604C69.0602 36.4961 68.3082 35.5521 67.6428 35.0359C65.5176 33.3887 62.9546 33.1557 60.5937 33.5043L60.5882 33.5051C60.3993 33.531 60.2117 33.5624 60.0225 33.5977C59.9717 33.6795 59.9209 33.7635 59.8682 33.8507C59.8045 33.956 59.7379 34.0661 59.665 34.1828L59.6633 34.1854C57.4431 37.6924 54.6897 40.9624 50.8476 42.9136C48.4686 44.1911 45.7554 44.7096 43.0729 44.3993L43.067 44.3986L43.0612 44.3978C40.6607 44.0676 38.4455 42.9263 36.783 41.1636L36.7781 41.1583C35.82 40.1153 35.1356 38.8508 34.7862 37.4783L34.7852 37.4744L34.7842 37.4705C34.4991 36.2769 34.3839 35.0491 34.4419 33.8233L34.4419 33.8219C34.4458 33.7455 34.452 33.6687 34.4583 33.5978C34.3958 33.5799 34.3354 33.5634 34.2758 33.5485L34.267 33.5463L34.2582 33.5438C34.0184 33.4753 33.8032 33.4256 33.6116 33.3931L33.6051 33.392C31.0651 32.9297 28.7271 33.2176 26.5853 34.2332C24.4378 35.2516 22.4549 37.0175 20.66 39.5612C18.866 42.1132 16.1877 46.035 13.3728 50.3989C13.3691 50.4051 13.3654 50.4113 13.3617 50.4176L13.3731 50.4227L27.5491 56.8246L27.5344 57.1931C27.4523 59.2438 27.7773 61.2905 28.4905 63.215L28.551 63.3782L28.506 63.5463C27.5804 67.0081 26.6823 70.4764 25.8119 73.9512C25.9112 73.9592 26.0085 73.9642 26.1077 73.9642H26.1286L26.1494 73.9658C32.1788 74.427 38.2332 74.1396 44.3083 73.8512C45.1775 73.81 46.047 73.7687 46.917 73.7296C47.8782 73.6868 48.8381 73.6496 49.7963 73.6125C52.2818 73.5162 54.7578 73.4203 57.2273 73.2277C57.901 73.1708 58.5726 73.1073 59.2393 73.0233C59.1433 70.4861 59.2547 67.945 59.5722 65.4255L59.5731 65.4177L59.5744 65.4099C59.7825 64.0702 60.0981 62.7493 60.5183 61.4602C60.5786 61.2704 60.639 61.0821 60.6993 60.8941C60.7884 60.6164 60.8772 60.3395 60.9652 60.0594C60.9715 60.039 60.9776 60.0185 60.9845 59.9945C60.9895 59.977 60.995 59.9577 61.0013 59.9352C61.016 59.8836 61.0337 59.8215 61.0574 59.7445L61.0593 59.7383C61.1269 59.5276 61.1889 59.3094 61.245 59.0908C61.1318 58.8761 61.0206 58.6613 60.9117 58.4464L60.6385 57.9072L61.8522 57.438Z" fill="black"/>
<path d="M29.6512 45.0819C29.0879 44.0445 28.7 42.9211 28.5029 41.7572C28.4906 41.6738 28.4457 41.5987 28.378 41.5485C28.3103 41.4982 28.2253 41.4769 28.1419 41.4893C28.0585 41.5016 27.9835 41.5465 27.9333 41.6142C27.883 41.6819 27.8617 41.7668 27.874 41.8501C28.0588 42.9511 28.4072 44.0183 28.9076 45.0163C26.3402 45.8443 24.1822 47.615 22.869 49.9714C21.5559 52.3278 21.1851 55.0945 21.8316 57.7135C21.93 58.1072 22.5589 58.0197 22.4605 57.626C21.9474 55.5487 22.0985 53.3628 22.8925 51.3758C23.6414 49.5448 24.9139 47.9755 26.5507 46.8645C27.4492 46.2565 28.4384 45.795 29.4816 45.4975C29.5205 45.4819 29.556 45.4587 29.5858 45.4292C29.6155 45.3997 29.639 45.3645 29.6548 45.3257C29.6706 45.2869 29.6785 45.2453 29.6779 45.2034C29.6773 45.1615 29.6681 45.1202 29.6512 45.0819Z" fill="black"/>
<path d="M61.8863 59.1516C61.8863 59.1516 58.2993 60.382 57.2767 61.399C56.2542 62.4161 55.2423 63.384 55.4064 64.8823C55.5704 66.3806 56.9595 68.7374 56.9595 68.7374C56.9595 68.7374 61.1373 80.4121 65.1619 83.0314C69.1865 85.6507 73.8343 84.5844 76.4591 83.0314C79.0838 81.4784 81.4953 79.4989 82.1897 76.4695C82.5776 74.3576 82.5219 72.1881 82.0258 70.099L68.7491 63.5371L61.8863 59.1516Z" fill="white"/>
<path d="M82.7751 75.2065C82.2283 78.9632 79.5816 82.0911 75.546 83.8026C73.8309 84.5368 71.9872 84.9234 70.1216 84.94C68.3894 84.9972 66.6812 84.522 65.2274 83.5784C63.1987 82.1293 61.2903 79.0562 59.7592 76.0596C59.535 75.6112 59.3109 75.1573 59.1031 74.7144C57.5939 71.5155 56.615 68.6993 56.533 68.4697L57.1345 68.2564C57.1345 68.3111 57.8837 70.4109 59.0593 73.0575C59.2671 73.5278 59.4858 74.0145 59.721 74.5121C61.2849 77.793 63.3903 81.495 65.583 83.0644C67.7758 84.6338 71.7237 84.7049 75.2835 83.2175C79.1113 81.577 81.5994 78.6406 82.1298 75.1136C82.5016 72.5873 80.3963 63.9037 77.1208 54.471C76.8474 53.6836 76.574 52.918 76.3006 52.1689L76.8912 51.9392C77.2357 52.8743 77.5146 53.6726 77.7223 54.2577C80.4838 62.1757 83.2345 72.106 82.7751 75.2065Z" fill="black"/>
<path d="M55.1057 17.7353C55.0348 18.5234 54.7956 19.2872 54.4041 19.9749C54.0126 20.6626 53.478 21.2583 52.8365 21.7216C52.6463 22.1388 52.4097 22.5332 52.1311 22.8973C51.9397 23.3566 51.7318 23.8105 51.5021 24.2589C50.5744 26.0041 49.4753 27.6527 48.2212 29.1803C47.6744 29.8748 47.1276 30.7059 46.3402 31.1379C45.4521 31.5144 44.4748 31.6283 43.5241 31.466C42.5294 31.3642 41.5474 31.1627 40.593 30.8645C39.7013 30.6525 38.8548 30.2821 38.094 29.7709C36.727 28.7756 36.2075 27.0368 36.0872 25.4346C36.0814 25.3913 36.0852 25.3473 36.0984 25.3057C36.1117 25.2641 36.1341 25.2259 36.1639 25.194C36.0663 24.6632 36.0096 24.1257 35.9943 23.5863C35.9532 22.5632 36.1109 21.5418 36.459 20.5788C36.6439 20.0985 36.8844 19.6415 37.1754 19.2171C37.351 18.9967 37.4728 18.7383 37.5309 18.4626C37.5692 18.2493 37.5965 18.0415 37.6348 17.8337C37.5254 17.7626 37.848 17.5329 37.9137 17.3744C38.3456 16.2807 38.5752 15.3292 39.3353 14.4106C39.342 14.36 39.3549 14.3104 39.3736 14.2629C41.5881 12.7426 44.104 11.7168 46.7503 11.2554C47.6307 11.0804 48.5166 10.9437 49.4079 10.8398C49.9479 11.2725 50.3319 11.8696 50.5015 12.5405H51.0155C51.577 12.5288 52.1351 12.6311 52.656 12.8412C53.5087 13.282 54.18 14.0075 54.5534 14.8918C54.9845 15.7745 55.175 16.7554 55.1057 17.7353Z" fill="white"/>
<path d="M47.4502 11.2937C45.5427 11.2081 43.6428 11.5832 41.911 12.3873C41.0618 12.7374 40.265 13.203 39.5432 13.7708C38.8937 14.3353 38.3813 15.0403 38.0449 15.8323C37.6813 16.7377 37.403 17.675 37.2137 18.6321C37.1262 19.0313 37.7605 19.1023 37.848 18.7086C38.1925 17.1939 38.5807 15.5207 39.7673 14.4215C40.4063 13.8725 41.1256 13.4244 41.9 13.0928C42.6979 12.7141 43.5312 12.4156 44.388 12.2014C45.3653 11.9587 46.3738 11.8646 47.3792 11.9226C47.8002 11.9499 47.8713 11.321 47.4502 11.2937Z" fill="black"/>
<path d="M49.9328 21.6561C49.9181 21.5739 49.8725 21.5004 49.8055 21.4506C49.7384 21.4009 49.6548 21.3785 49.5718 21.3882C48.8988 21.5126 48.2459 21.7278 47.6307 22.028C47.563 22.0672 47.5117 22.1298 47.4867 22.204C47.4616 22.2782 47.4644 22.3589 47.4945 22.4312C47.5247 22.5035 47.58 22.5624 47.6503 22.5968C47.7207 22.6313 47.8012 22.639 47.8768 22.6185C48.1664 22.4732 48.466 22.3489 48.7735 22.2467C49.0645 22.1483 49.3625 22.0716 49.6649 22.0171C49.7062 22.011 49.746 21.9969 49.7818 21.9755C49.8177 21.9541 49.8489 21.9258 49.8738 21.8923C49.8987 21.8587 49.9167 21.8206 49.9268 21.7801C49.9369 21.7396 49.939 21.6974 49.9328 21.6561Z" fill="black"/>
<path d="M44.0874 18.583C43.9465 17.7059 43.5219 16.8992 42.8788 16.2863C42.5724 16.0008 42.2084 15.7842 41.8113 15.6512C41.4142 15.5182 40.9932 15.4719 40.5767 15.5153C40.1721 15.559 40.2596 16.1879 40.6698 16.1441C41.0227 16.1123 41.3782 16.1618 41.7091 16.2888C42.0399 16.4159 42.3372 16.617 42.5782 16.8769C43.1009 17.4456 43.4234 18.1695 43.4968 18.9384C43.6854 20.6008 43.2995 22.2777 42.4031 23.6903C42.1899 24.0348 42.6929 24.4176 42.9116 24.0676C43.9616 22.4449 44.38 20.4935 44.0874 18.583Z" fill="black"/>
<path d="M40.6478 19.7312L41.8782 20.9124C41.946 20.9617 42.0301 20.9833 42.1133 20.9725C42.1975 20.9585 42.2734 20.9137 42.3265 20.8467C42.3735 20.7779 42.3948 20.6946 42.3867 20.6116C42.37 20.5299 42.3256 20.4565 42.2609 20.4038L41.0306 19.2227C40.9977 19.1969 40.9598 19.1782 40.9194 19.1678C40.8789 19.1575 40.8367 19.1557 40.7955 19.1625C40.7538 19.1678 40.7137 19.1815 40.6775 19.2027C40.6412 19.2239 40.6096 19.2522 40.5845 19.2859C40.5595 19.3196 40.5416 19.358 40.5318 19.3989C40.522 19.4397 40.5206 19.482 40.5275 19.5234C40.5443 19.6038 40.5865 19.6766 40.6478 19.7312Z" fill="black"/>
<path d="M41.725 25.5713C41.7219 25.6003 41.7219 25.6297 41.725 25.6587C41.7049 25.9075 41.7553 26.1569 41.8704 26.3784C41.9855 26.5999 42.1606 26.7844 42.3757 26.911C42.6171 27.0409 42.8837 27.1173 43.1573 27.1353C43.4309 27.1532 43.7052 27.1121 43.9615 27.0149C44.416 26.8571 44.8247 26.59 45.1517 26.2372C45.4788 25.8844 45.7141 25.4567 45.8371 24.9916C45.8918 24.7783 45.755 24.5104 45.498 24.5596L43.5951 24.9369C43.0764 25.125 42.5112 25.1422 41.982 24.9862C41.5937 24.8112 41.3641 25.3963 41.725 25.5713ZM42.3374 25.7298C42.7351 25.7382 43.1324 25.6941 43.5186 25.5986L45.0114 25.2979C44.7831 25.746 44.4144 26.1071 43.9615 26.3259C43.6255 26.5029 43.2354 26.5478 42.8679 26.4516C42.7076 26.4127 42.5656 26.3196 42.4659 26.1881C42.3663 26.0566 42.3152 25.8947 42.3211 25.7298H42.3374Z" fill="black"/>
<path d="M45.3614 31.1598C43.9268 31.4129 42.4519 31.3058 41.0689 30.8481C38.991 30.1427 36.9786 29.0491 36.3388 25.883C35.6279 22.3888 37.7661 18.9657 37.7879 18.9329C37.8145 18.8909 37.8325 18.844 37.8409 18.795C37.8494 18.7461 37.8481 18.6959 37.8372 18.6474C37.8263 18.5989 37.806 18.553 37.7774 18.5124C37.7488 18.4718 37.7123 18.4372 37.6703 18.4107C37.6283 18.3841 37.5815 18.3661 37.5326 18.3576C37.4836 18.3491 37.4334 18.3504 37.3849 18.3613C37.3364 18.3722 37.2906 18.3926 37.2499 18.4212C37.2093 18.4498 37.1746 18.4862 37.1481 18.5282C37.0551 18.6813 34.8296 22.2357 35.6007 26.0361C36.317 29.585 38.6464 30.8208 40.8282 31.5645C41.8009 31.8909 42.8206 32.0554 43.8467 32.0512C44.4118 32.0567 44.9761 32.0054 45.5309 31.898C45.6288 31.8756 45.7138 31.8151 45.7671 31.73C45.8204 31.6449 45.8378 31.5421 45.8153 31.4442C45.7928 31.3463 45.7323 31.2613 45.6472 31.208C45.5621 31.1547 45.4593 31.1374 45.3614 31.1598Z" fill="black"/>
<path d="M57.233 23.7394C57.0257 23.3766 56.7186 23.0808 56.3484 22.887C55.9782 22.6932 55.5602 22.6094 55.144 22.6457C54.691 22.699 54.2644 22.887 53.9194 23.1853C53.5743 23.4835 53.3266 23.8785 53.2083 24.319C53.1821 24.3975 53.1861 24.4831 53.2194 24.5589C53.2528 24.6347 53.3132 24.6953 53.3888 24.7291C53.4671 24.7595 53.5542 24.7575 53.6311 24.7237C53.708 24.6899 53.7684 24.6269 53.7989 24.5486C53.87 24.2577 54.0166 23.9907 54.224 23.7747C54.4314 23.5587 54.6923 23.4012 54.98 23.3183C55.2801 23.2401 55.5968 23.2535 55.8892 23.3568C56.1815 23.4601 56.4362 23.6486 56.6205 23.8979C56.7947 24.177 56.8937 24.4963 56.9081 24.825C56.9224 25.1536 56.8516 25.4804 56.7025 25.7736C56.5525 26.0994 56.3333 26.3887 56.0601 26.6212C55.7868 26.8536 55.4664 27.0237 55.1207 27.1195C54.775 27.2153 54.4125 27.2345 54.0586 27.1758C53.7047 27.1171 53.3679 26.9819 53.0716 26.7797C52.7326 26.5555 52.3498 27.064 52.6943 27.2882C53.0547 27.538 53.4638 27.7087 53.8949 27.789C54.326 27.8693 54.7693 27.8574 55.1955 27.7541C55.6217 27.6507 56.0209 27.4584 56.3674 27.1896C56.7138 26.9208 56.9995 26.5817 57.2055 26.1946C57.4122 25.8193 57.523 25.3988 57.5278 24.9704C57.5325 24.542 57.4313 24.1191 57.233 23.7394Z" fill="black"/>
<path d="M55.7016 25.0355C55.6679 24.9589 55.6059 24.8983 55.5283 24.8667C55.4508 24.835 55.3639 24.8348 55.2862 24.866C54.8151 25.1216 54.3314 25.3534 53.837 25.5605C53.7603 25.5942 53.6998 25.6564 53.6681 25.734C53.6365 25.8115 53.6364 25.8984 53.6676 25.9761C53.6837 26.0145 53.7073 26.0494 53.7369 26.0787C53.7665 26.108 53.8016 26.1313 53.8402 26.147C53.8788 26.1627 53.9201 26.1707 53.9618 26.1705C54.0035 26.1702 54.0446 26.1618 54.083 26.1456C54.5779 25.9396 55.0615 25.7078 55.5321 25.4511C55.6088 25.4174 55.6695 25.3552 55.7011 25.2776C55.7327 25.2001 55.7328 25.1133 55.7016 25.0355Z" fill="black"/>
<path d="M53.7278 14.5911C53.4161 16.2316 52.9513 17.872 51.792 19.0532C51.1103 18.6084 50.4105 18.1929 49.6923 17.8064C48.0362 16.9092 46.3053 16.1572 44.5192 15.559C43.6279 15.2637 42.7257 15.0122 41.8125 14.7934L41.047 14.602C42.1789 12.5405 44.574 11.1516 46.5152 9.91577C46.9738 9.92151 47.431 9.9654 47.8823 10.047C47.9558 9.98552 48.0489 9.9525 48.1447 9.95402C49.0544 9.99969 49.9412 10.2542 50.7367 10.6977C51.4465 11.0939 52.0707 11.6271 52.5729 12.2663C53.0751 12.9055 53.4454 13.6381 53.6622 14.4216C53.7005 14.4763 53.7169 14.5364 53.7278 14.5911Z" fill="black"/>
<path d="M21.941 67.6111C23.1713 68.7047 27.2397 71.8435 27.6662 73.3418C28.0927 74.8401 28.0982 75.6439 26.9717 76.7157C25.8453 77.7875 20.2239 82.2824 20.2239 82.2824L16.3687 84.9071L11.5513 76.5024L7.37354 67.0752L21.941 67.6111Z" fill="white"/>
<path d="M28.1419 73.484C28.1036 73.3363 28.0599 73.1941 28.0107 73.052C27.9123 72.7676 27.5514 71.6521 27.0866 71.8763C26.6218 72.1005 27.1249 72.6911 27.2452 72.97C27.5774 73.6246 27.6777 74.3726 27.5295 75.0916C27.3063 75.7801 26.8744 76.382 26.2937 76.8141C25.3587 77.5414 24.4126 78.3452 23.4174 79.1982C19.3764 82.6487 14.7886 86.5694 9.35316 85.7601C7.88513 85.5393 6.48603 84.9893 5.26067 84.1512C4.0353 83.3132 3.0153 82.2088 2.27717 80.9208C0.576551 78.0609 0.139093 74.3917 1.18352 71.5701C2.82399 67.1189 8.11177 58.337 13.0769 50.6541L12.4919 50.3916C7.5213 58.0854 2.21164 66.8783 0.587573 71.3513C-0.506073 74.3425 -0.0468107 78.2304 1.74677 81.2488C2.6696 82.8472 3.99673 84.1747 5.59482 85.0981C7.19291 86.0214 9.00579 86.5081 10.8514 86.5093C15.8713 86.5093 20.0873 82.9112 23.8494 79.6959C24.8392 78.8483 25.7742 78.0554 26.7038 77.3336C27.501 76.7699 28.0525 75.9229 28.2458 74.9658C28.3124 74.47 28.2771 73.9657 28.1419 73.484Z" fill="black"/>
<path d="M61.7991 59.8626C61.6624 59.8626 61.5255 59.9063 61.3943 59.9392C61.2631 59.972 61.0442 60.0157 60.8747 60.0649L60.6945 60.1141C60.2352 60.2563 59.7866 60.4258 59.3437 60.6117C58.5359 60.9056 57.7849 61.3367 57.1236 61.8858C56.5216 62.4453 56.0943 63.1669 55.8932 63.9638C55.7061 64.739 55.743 65.5514 55.9995 66.3065C56.256 67.0615 56.7216 67.7282 57.3423 68.229C57.6594 68.486 57.2768 68.9945 56.9596 68.7375C56.1725 68.1034 55.5998 67.2424 55.3192 66.2714C55.0778 65.3975 55.0855 64.4736 55.3416 63.604C55.5977 62.7343 56.0918 61.9536 56.7682 61.35C57.5308 60.735 58.3926 60.2542 59.3165 59.9282C59.6008 59.8134 59.8959 59.704 60.1912 59.6056C60.4865 59.5072 60.6724 59.4525 60.9185 59.3923H60.9842L61.1756 59.5126L61.4763 59.6931L61.7991 59.8626Z" fill="black"/>
<path d="M84.7872 19.2719L42.1351 61.9242C41.8004 62.2596 41.4028 62.5258 40.9651 62.7074C40.5274 62.889 40.058 62.9824 39.5841 62.9824C39.1102 62.9824 38.6411 62.889 38.2033 62.7074C37.7656 62.5258 37.3679 62.2596 37.0332 61.9242L12.798 37.7218C12.4632 37.3863 12.0657 37.1201 11.628 36.9385C11.1902 36.7569 10.721 36.6635 10.2472 36.6635C9.77325 36.6635 9.30393 36.7569 8.86621 36.9385C8.42848 37.1201 8.03093 37.3863 7.6962 37.7218L2.64356 42.7799C2.30826 43.1141 2.04223 43.5113 1.86071 43.9485C1.67918 44.3858 1.58569 44.8546 1.58569 45.3281C1.58569 45.8015 1.67918 46.2703 1.86071 46.7076C2.04223 47.1449 2.30826 47.542 2.64356 47.8763L29.3996 74.6378L37.0058 82.2441C37.6833 82.919 38.6006 83.2979 39.5568 83.2979C40.513 83.2979 41.4303 82.919 42.1077 82.2441L49.714 74.6378L94.9418 29.4046C95.2773 29.0698 95.5434 28.6722 95.725 28.2345C95.9065 27.7968 96 27.3275 96 26.8536C96 26.3797 95.9065 25.9105 95.725 25.4728C95.5434 25.035 95.2773 24.6374 94.9418 24.3027L89.8837 19.25C89.548 18.9162 89.1496 18.6518 88.7116 18.4722C88.2735 18.2925 87.8044 18.2011 87.3309 18.2032C86.8574 18.2052 86.3891 18.3006 85.9526 18.484C85.5161 18.6674 85.12 18.9352 84.7872 19.2719Z" fill="#1D4ED8"/>
<path d="M78.2036 49.4073C77.9093 50.7442 77.4634 52.0431 76.8747 53.2789C76.3711 54.5319 75.7309 55.7257 74.9662 56.8387C74.1268 57.9708 73.1071 58.9573 71.9477 59.7587C70.6845 60.6664 69.3886 61.5359 68.1199 62.4272C67.5999 62.8444 66.9982 63.148 66.3537 63.3185C66.0589 63.3859 65.7524 63.3808 65.4601 63.3037C65.1677 63.2265 64.8982 63.0797 64.6751 62.8756C64.4628 62.6136 64.2795 62.3294 64.1282 62.028C63.9698 61.7713 63.7725 61.5407 63.5432 61.3445C63.0482 60.941 62.513 60.5892 61.9463 60.2946C60.9237 59.7478 59.3819 58.9549 59.0538 57.7464C58.9881 57.3414 59.0192 56.9266 59.1446 56.5359C59.2701 56.1453 59.4863 55.7899 59.7756 55.499C60.5247 54.3069 62.373 55.3458 63.319 55.827C64.4896 56.4195 65.617 57.0938 66.6928 57.8448C66.6143 57.0804 66.279 56.3652 65.7415 55.8161C65.1818 55.1407 64.5591 54.52 63.8821 53.9624C63.2986 53.5448 62.787 53.0351 62.3674 52.4532C62.1742 52.1786 62.0539 51.8595 62.0176 51.5258C61.9812 51.192 62.03 50.8545 62.1596 50.5447C62.5596 50.0196 63.1173 49.6363 63.751 49.4511C63.673 49.1676 63.6756 48.8679 63.7587 48.5858C63.8418 48.3037 64.002 48.0504 64.2212 47.8544C64.8168 47.2685 65.5823 46.8857 66.4085 46.7607C67.2883 46.7901 68.1348 47.1049 68.82 47.6575C70.3745 48.6698 71.8382 49.8152 73.1946 51.0806C73.2305 51.1108 73.2594 51.1485 73.2793 51.191C73.2991 51.2335 73.3093 51.2798 73.3094 51.3267C73.4208 51.2131 73.5248 51.0925 73.621 50.9658C73.8141 50.7457 73.961 50.4891 74.053 50.2112C74.228 49.6097 73.7413 49.3144 73.3038 49.0191L71.6633 47.8926C70.7775 47.2857 69.6839 46.6186 69.6456 45.4155C69.6301 45.167 69.6784 44.9185 69.7855 44.6937C69.8927 44.4688 70.0552 44.275 70.2581 44.1305C70.6952 43.8723 71.2008 43.754 71.7071 43.7915C72.7541 43.8176 73.7692 44.1566 74.6217 44.7648C75.3989 44.938 76.1394 45.2471 76.809 45.678C77.3902 46.0595 77.8391 46.6116 78.0941 47.2583C78.3171 47.9529 78.3549 48.6937 78.2036 49.4073Z" fill="white"/>
<path d="M70.9636 53.9952C70.1704 52.5536 68.9679 51.3796 67.5077 50.6213C66.7859 50.2057 66.0366 49.8393 65.282 49.4839C64.9363 49.2758 64.5509 49.143 64.1504 49.094C63.75 49.045 63.3436 49.081 62.958 49.1995C62.5981 49.3432 62.2798 49.5743 62.0315 49.8718C61.7832 50.1693 61.613 50.5239 61.5359 50.9037C61.4589 51.2834 61.4774 51.6764 61.5901 52.0471C61.7029 52.4178 61.9062 52.7547 62.1815 53.0273C62.9143 53.76 63.7893 54.3615 64.5822 55.0341C65.3223 55.5492 65.8644 56.3016 66.1188 57.1667C66.1953 57.5659 66.8241 57.4784 66.7476 57.0738C66.4632 55.5645 65.1071 54.624 63.9697 53.7108L62.9251 52.8468C62.6161 52.6197 62.3713 52.3164 62.2144 51.9664C62.0895 51.6466 62.065 51.2964 62.1442 50.9623C62.2233 50.6282 62.4023 50.3261 62.6573 50.0963C62.9294 49.8696 63.2623 49.728 63.6143 49.6891C63.9663 49.6502 64.3219 49.7158 64.6369 49.8776C65.3314 50.1783 66.0148 50.5173 66.6819 50.8728C68.037 51.5165 69.2073 52.4928 70.0832 53.7108C70.5402 54.4356 70.8354 55.2505 70.9486 56.0998C71.0618 56.9492 70.9904 57.813 70.7393 58.6322C70.619 59.015 71.2096 59.2556 71.3299 58.8619C71.8335 57.2523 71.7025 55.5112 70.9636 53.9952Z" fill="black"/>
<path d="M68.6342 60.218C68.4756 58.7143 67.3601 57.5605 66.1078 56.8277C65.4119 56.4392 64.6943 56.0905 63.9587 55.7833C63.2246 55.4094 62.4555 55.109 61.6622 54.8865C61.2708 54.7803 60.8597 54.7691 60.4631 54.8537C60.0665 54.9384 59.6957 55.1165 59.3818 55.3732L59.3326 55.4333L59.2726 55.4771C59.0109 55.7344 58.8192 56.0544 58.7158 56.4065C58.6125 56.7587 58.6008 57.1314 58.6819 57.4894C58.8591 58.263 59.3072 58.9476 59.9451 59.4197C60.0217 59.4853 60.109 59.5509 60.191 59.6111C60.4098 59.7751 60.6394 59.9227 60.8746 60.0649C61.3339 60.3383 61.8042 60.5844 62.2635 60.8469L63.6252 61.6179C63.7565 61.6945 64.0134 61.7929 64.0735 61.9515C64.1337 62.11 63.9916 62.3889 63.9205 62.5529C63.751 62.9248 64.3416 63.1545 64.5112 62.7826C64.6139 62.6116 64.6774 62.4199 64.6973 62.2213C64.7171 62.0228 64.6928 61.8223 64.626 61.6343C64.451 61.2679 63.9751 61.0875 63.6415 60.9016C63.0291 60.5571 62.4114 60.218 61.7989 59.8626C61.5911 59.7478 61.3833 59.622 61.1755 59.4962L60.984 59.3759C60.3448 59.0361 59.8184 58.5174 59.4693 57.8831C59.306 57.5835 59.2368 57.2416 59.2709 56.902C59.3051 56.5625 59.441 56.2412 59.6608 55.9802C59.6787 55.9633 59.695 55.945 59.7099 55.9254L59.7756 55.8763C60.4263 55.2747 61.3395 55.3951 62.1105 55.6794C62.9854 55.9966 63.8383 56.4121 64.6804 56.7731C66.1623 57.462 67.8192 58.4955 68.0052 60.2836C68.0489 60.7211 68.678 60.6282 68.6342 60.218Z" fill="black"/>
<path d="M74.6167 52.9781C74.4198 51.6329 73.523 50.6377 72.5223 49.7846C71.423 48.8375 70.2509 47.9782 69.0171 47.2146C67.9562 46.5584 66.8299 46.0553 65.5613 46.4381C64.9528 46.6273 64.4099 46.9842 63.995 47.4678C63.5801 47.9514 63.3099 48.5421 63.2154 49.1722C63.2059 49.2563 63.2304 49.3407 63.2832 49.4069C63.336 49.473 63.4129 49.5155 63.4971 49.5249C63.5812 49.5343 63.6653 49.5099 63.7315 49.4571C63.7976 49.4043 63.8403 49.3274 63.8498 49.2433C63.9271 48.7656 64.1297 48.317 64.4372 47.9433C64.7446 47.5696 65.1456 47.2841 65.5994 47.1161C66.6931 46.6896 67.7867 47.2036 68.7108 47.7942C69.7873 48.4619 70.8159 49.2037 71.7894 50.0143C72.6698 50.747 73.616 51.5727 73.9112 52.7211C74.2831 54.1373 73.7089 55.6083 73.2058 56.9098C73.1746 56.9881 73.1757 57.0755 73.209 57.153C73.2424 57.2304 73.3051 57.2914 73.3834 57.3226C73.4617 57.3538 73.5492 57.3526 73.6266 57.3192C73.704 57.2859 73.7653 57.2232 73.7964 57.1449C74.305 55.8161 74.8245 54.3998 74.6167 52.9781Z" fill="black"/>
<path d="M77.8645 52.1852C77.1643 54.1493 76.2473 56.0292 75.1304 57.7901C74.9062 58.1346 74.3977 57.7518 74.6165 57.4073C75.7489 55.6281 76.6666 53.7209 77.3506 51.7258C77.87 50.2439 78.4441 48.3082 77.4106 46.9029C76.8865 46.2935 76.2473 45.7937 75.5296 45.4319C74.7832 44.9385 73.9987 44.5052 73.1837 44.1359C72.4897 43.8315 71.7034 43.8138 70.9964 44.0867C70.6574 44.2217 70.3805 44.4775 70.2189 44.8046C70.0573 45.1318 70.0226 45.5072 70.1215 45.8584C70.2668 46.2442 70.5336 46.5724 70.8816 46.7935C71.2699 47.0833 71.669 47.3403 72.0682 47.6411L73.8507 48.9042L74.4907 49.3636C74.4801 49.5707 74.447 49.776 74.3922 49.976C74.3167 49.9859 74.2402 49.9664 74.1788 49.9213L73.8125 49.6589L71.0018 47.6629C70.5413 47.3877 70.1324 47.0343 69.7933 46.6185C69.506 46.1954 69.3819 45.6826 69.4435 45.1749C69.5067 44.7714 69.6814 44.3937 69.9482 44.0844C70.2149 43.7752 70.5628 43.5468 70.9526 43.4251C71.775 43.1687 72.6621 43.2172 73.4515 43.5618C74.3413 43.9683 75.1972 44.4456 76.0107 44.989C76.8158 45.3961 77.513 45.9883 78.045 46.717C79.1059 48.3957 78.477 50.4736 77.8645 52.1852Z" fill="black"/>
<path d="M74.4961 49.3636C74.4855 49.5707 74.4524 49.7761 74.3975 49.976C74.2801 50.4282 74.0636 50.8485 73.7634 51.2064C73.7114 51.2729 73.6357 51.3169 73.5522 51.3291C73.4687 51.3413 73.3837 51.3209 73.3148 51.2721C73.2487 51.2211 73.205 51.1464 73.1928 51.0638C73.1806 50.9812 73.2009 50.8971 73.2494 50.8291C73.5261 50.4905 73.7141 50.0884 73.7962 49.6589C73.8447 49.4105 73.8574 49.1564 73.8344 48.9043L74.4961 49.3636Z" fill="black"/>
<path d="M12.3443 68.7265C9.79243 70.1847 7.27153 71.6976 4.78166 73.2651C4.43717 73.4893 4.83086 73.9869 5.16989 73.7682C7.60507 72.2152 10.0786 70.7297 12.5903 69.3116C12.9457 69.1093 12.6997 68.5242 12.3443 68.7265Z" fill="black"/>
<path d="M24.6149 67.7259C24.3925 68.4115 24.066 69.0588 23.647 69.6453C23.2342 70.2943 22.8687 70.9724 22.5534 71.674C22.4037 72.031 22.2741 72.3961 22.1652 72.7676C22.1983 72.8662 22.2256 72.9666 22.2471 73.0684C22.3834 73.4824 22.3949 73.9274 22.28 74.3479C22.138 74.6899 21.9101 74.9894 21.6183 75.2174C21.3406 75.4901 20.992 75.6795 20.6121 75.7642C19.7776 75.872 18.9304 75.7152 18.1897 75.3158C17.8358 75.0907 17.5754 74.7449 17.457 74.3425C17.3376 74.05 17.2425 73.7483 17.1726 73.4402C16.1391 73.5496 15.0291 73.4949 14.2308 72.7512C13.8447 72.3854 13.5989 71.8959 13.5363 71.3678C13.5363 71.2311 13.5034 71.0944 13.4925 70.9522C13.4555 70.9552 13.4184 70.9505 13.3833 70.9384C13.3482 70.9263 13.316 70.907 13.2888 70.8819C13.2615 70.8567 13.2398 70.8261 13.225 70.7921C13.2101 70.7581 13.2027 70.7213 13.2028 70.6842C13.1804 70.4468 13.1271 70.2133 13.0442 69.9898C12.9828 70.0414 12.9055 70.0703 12.8254 70.0718C12.2133 70.0787 11.6234 69.8428 11.1849 69.4156C10.6251 69.1205 10.1549 68.6805 9.82333 68.1415C9.5225 67.621 9.27524 67.0714 9.0852 66.501C8.81698 65.9117 8.75343 65.2496 8.9047 64.62C8.913 64.5907 8.92596 64.563 8.94302 64.5379C7.99223 63.2433 7.2708 61.7951 6.81033 60.2563C6.44705 59.0574 6.52273 57.7682 7.02366 56.6199C7.47753 55.6466 8.41254 54.6459 9.56634 54.6186C9.84096 54.5927 10.1157 54.667 10.3398 54.8278C10.564 54.9886 10.7223 55.225 10.7857 55.4935C10.8915 56.2487 10.9372 57.0112 10.9224 57.7737C10.99 58.8607 11.404 59.8975 12.1037 60.732C12.2465 60.5564 12.4098 60.3985 12.5903 60.2618C13.1102 59.7905 13.6763 59.3728 14.28 59.015C15.226 58.4682 16.5493 58.1674 17.5062 58.84C18.4632 59.5126 18.1842 60.8851 17.4734 61.6671C17.0517 62.0767 16.5901 62.4431 16.0954 62.7607C15.5723 63.1109 15.1591 63.6019 14.9033 64.177C14.5534 64.9754 14.0667 66.0526 14.2745 66.9603C15.095 65.4802 16.1747 64.1596 17.4624 63.0615C18.1302 62.4539 18.9351 62.0168 19.8083 61.7874C20.2525 61.6564 20.7293 61.6934 21.148 61.8913C21.3308 61.9977 21.4878 62.1434 21.6074 62.3178C21.6613 62.3063 21.7172 62.3089 21.7699 62.3251C21.8225 62.3414 21.8701 62.3709 21.9082 62.4108C22.0374 62.5365 22.1251 62.6987 22.1597 62.8756C22.2608 63.2033 22.2608 63.554 22.1597 63.8818C22.0063 64.2983 21.7571 64.6729 21.4324 64.9754C21.3285 65.1449 21.2192 65.309 21.1098 65.473C20.6719 66.087 20.2701 66.726 19.9067 67.3869C20.6395 66.5284 21.3613 65.6261 22.5315 65.4785C22.8231 65.4345 23.1207 65.4542 23.4039 65.5363C23.6871 65.6185 23.9492 65.761 24.172 65.9542C24.4002 66.1811 24.5621 66.4661 24.6401 66.7784C24.7182 67.0906 24.7095 67.4183 24.6149 67.7259Z" fill="white"/>
<path d="M24.5984 65.9159C24.1871 65.5751 23.682 65.367 23.15 65.3192C22.6179 65.2714 22.0839 65.386 21.6183 65.648C20.459 66.255 19.6115 67.3924 18.8077 68.3821C17.8051 69.4943 17.0981 70.8406 16.7516 72.2973C16.6751 72.6965 17.2984 72.7676 17.3859 72.3684C17.6598 71.1949 18.2068 70.1027 18.9826 69.1805C19.3435 68.7102 19.7263 68.2618 20.1145 67.8134C20.4873 67.3486 20.909 66.925 21.3722 66.5502C22.1105 66.0034 23.1931 65.6644 24.0188 66.255C25.1124 67.0533 24.1992 68.4422 23.6032 69.257C22.7131 70.3295 22.0959 71.6016 21.8043 72.9645C21.7386 73.3637 22.351 73.4402 22.4385 73.0356C22.6791 71.6084 23.5322 70.4764 24.336 69.339C24.7568 68.823 25.0375 68.2071 25.1507 67.5509C25.1927 67.2542 25.1647 66.9518 25.0688 66.6678C24.9729 66.3839 24.8118 66.1264 24.5984 65.9159Z" fill="black"/>
<path d="M22.6737 63.3293C22.6442 62.9323 22.507 62.5509 22.2767 62.2261C22.0464 61.9014 21.7318 61.6457 21.3668 61.4865C20.9566 61.3288 20.5178 61.2589 20.0788 61.2815C19.6399 61.3041 19.2104 61.4187 18.8186 61.6178C17.9993 62.0328 17.2591 62.588 16.6313 63.2582C15.9929 63.8889 15.4077 64.5711 14.8815 65.2979C13.7878 66.8016 12.831 68.5187 12.902 70.4271C12.8811 71.4317 13.2382 72.4075 13.9026 73.1612C14.6026 73.8393 15.6088 73.9595 16.5329 74.0361C16.943 74.0689 17.0142 73.4346 16.604 73.4018C15.8786 73.4073 15.1649 73.2185 14.537 72.855C14.2505 72.6007 14.0176 72.2917 13.8523 71.9461C13.687 71.6005 13.5927 71.2253 13.5746 70.8427C13.345 69.1366 14.1214 67.6109 15.0018 66.222C15.8572 64.8824 16.9332 63.6973 18.1843 62.7169C18.7975 62.2002 19.5699 61.9106 20.3716 61.8966C20.729 61.8867 21.0805 61.9903 21.3753 62.1927C21.67 62.3952 21.893 62.6859 22.0121 63.0231C22.2745 63.898 21.3942 64.6964 20.9184 65.3088C20.2841 66.1126 19.6443 66.911 19.0045 67.7148C18.975 67.7494 18.9544 67.7907 18.9445 67.8351C18.6978 68.1547 18.5343 68.5305 18.4687 68.9288C18.4609 68.9715 18.462 69.0155 18.4719 69.0578C18.4817 69.1001 18.5001 69.1399 18.5261 69.1748C18.552 69.2097 18.5848 69.2389 18.6225 69.2606C18.6601 69.2823 18.7018 69.296 18.745 69.3009C18.7882 69.3057 18.832 69.3017 18.8736 69.289C18.9151 69.2762 18.9536 69.2551 18.9866 69.2269C19.0197 69.1987 19.0466 69.164 19.0657 69.1249C19.0848 69.0858 19.0955 69.0433 19.0975 68.9999C19.0975 68.9397 19.1248 68.8796 19.1358 68.8249C19.1358 68.9233 19.1358 68.8249 19.1358 68.7975L19.1686 68.7046C19.2022 68.6002 19.2462 68.4994 19.2998 68.4038C19.3668 68.285 19.4456 68.1733 19.5349 68.0703C19.561 68.0411 19.5782 68.005 19.5842 67.9664L21.4598 65.6205C21.9628 64.9917 22.6956 64.2589 22.6737 63.3293Z" fill="black"/>
<path d="M18.6382 59.7148C18.4996 59.3167 18.2582 58.9623 17.9384 58.6877C17.6186 58.413 17.2317 58.2278 16.8172 58.1509C15.839 57.9806 14.8326 58.1877 14.0011 58.7306C13.1011 59.3157 12.3123 60.0564 11.6717 60.9179C10.9772 61.76 10.2445 62.6021 9.63203 63.5043C9.02899 64.3101 8.69772 65.2867 8.68604 66.2931C8.74619 68.6335 10.7365 70.3396 12.9621 70.6076C13.0462 70.617 13.1306 70.5926 13.1968 70.5398C13.2629 70.487 13.3054 70.4101 13.3148 70.326C13.3242 70.2418 13.2999 70.1574 13.2471 70.0913C13.1943 70.0251 13.1174 69.9827 13.0333 69.9732C12.1468 69.9017 11.3081 69.5424 10.6448 68.9501C9.98142 68.3578 9.52977 67.565 9.35862 66.6923C9.0524 64.7347 10.6381 63.1872 11.7646 61.7709C12.3514 60.962 13.0344 60.2275 13.7987 59.5836C14.5123 58.9824 15.4194 58.6599 16.3524 58.6759C16.7133 58.6844 17.064 58.798 17.3612 59.003C17.6585 59.208 17.8894 59.4953 18.0257 59.8297C18.2553 60.6499 17.4789 61.328 16.932 61.8037C15.4611 63.0614 13.941 64.598 13.859 66.654C13.859 67.0641 14.4768 67.1407 14.4932 66.7306C14.5583 65.7656 14.9212 64.8447 15.5321 64.0949C16.1693 63.3484 16.87 62.6586 17.6265 62.0334C18.2882 61.4702 18.8952 60.6882 18.6382 59.7148Z" fill="black"/>
<path d="M12.2675 60.3821C11.8155 59.9102 11.5048 59.321 11.3708 58.6815C11.2922 58.0094 11.3292 57.3288 11.4801 56.6692C11.5474 56.3559 11.5409 56.0313 11.4612 55.721C11.3815 55.4106 11.2307 55.1231 11.0208 54.881C10.8084 54.6805 10.5556 54.5279 10.2792 54.4335C10.0027 54.3392 9.70925 54.3053 9.41861 54.3342C8.10623 54.4272 7.11102 55.5974 6.68449 56.7566C6.26891 58.0436 6.26891 59.4287 6.68449 60.7156C7.17906 62.3267 7.89108 63.8629 8.80076 65.2816C9.01402 65.6316 9.51159 65.2379 9.3038 64.8934C8.59545 63.7593 8.00545 62.5554 7.54304 61.3007C7.04551 60.1032 6.89945 58.7888 7.12198 57.5113C7.35711 56.445 8.07896 55.2638 9.21635 55.0068C9.464 54.941 9.72475 54.9434 9.97117 55.0136C10.2176 55.0839 10.4404 55.2195 10.6161 55.406C11.0208 55.8817 10.8567 56.5652 10.7583 57.1285C10.6246 57.7765 10.6456 58.447 10.8194 59.0854C10.9933 59.7239 11.3152 60.3124 11.759 60.8031C12.0434 61.0711 12.5464 60.6883 12.2675 60.3821Z" fill="black"/>
<path d="M74.5508 57.4455C72.7408 60.7647 69.6895 63.1762 66.5234 65.101C65.5609 65.6971 64.5766 66.2548 63.5868 66.8071C63.2314 67.004 63.4776 67.5945 63.833 67.3922C67.2889 65.4674 70.7612 63.3785 73.3367 60.2835C74.0245 59.4601 74.6307 58.5719 75.1468 57.6314C75.3382 57.3197 74.7477 57.0901 74.5508 57.4455Z" fill="black"/>
<path d="M22.7557 75.343C21.5243 75.783 20.1865 75.8288 18.9279 75.4743C18.6667 75.4071 18.4201 75.2921 18.2006 75.1352C17.9916 74.9536 17.838 74.7167 17.7577 74.4517C17.4921 73.8252 17.3743 73.1461 17.4132 72.4667C17.4226 72.3826 17.3982 72.2982 17.3454 72.2321C17.2926 72.1659 17.2156 72.1235 17.1315 72.1141C17.0899 72.1094 17.0478 72.1129 17.0075 72.1246C16.9672 72.1362 16.9296 72.1557 16.8968 72.1818C16.8307 72.2346 16.7882 72.3115 16.7788 72.3956C16.736 73.1694 16.8669 73.9429 17.1617 74.6595C17.2663 74.9792 17.4459 75.2691 17.6857 75.5051C17.9254 75.741 18.2182 75.9161 18.5396 76.0156C20.0025 76.4848 21.5801 76.454 23.0236 75.9281C23.39 75.7914 23.1385 75.2063 22.7557 75.343Z" fill="black"/>
<path d="M54.3512 26.8453C54.1664 28.0925 54.2182 29.3633 54.5042 30.5911C54.794 31.734 55.2534 32.8385 55.2753 34.0525C55.2659 35.1943 54.9586 36.3139 54.3839 37.3006C53.9298 38.1688 53.278 38.918 52.481 39.4879C51.857 39.9405 51.0937 40.1589 50.3248 40.1049C49.5559 40.051 48.8305 39.728 48.276 39.1926C48.2333 39.1946 48.191 39.185 48.1534 39.1648C48.1158 39.1446 48.0845 39.1145 48.0628 39.0778C47.0269 37.6306 46.4548 35.903 46.4223 34.1236C46.3976 32.4955 46.7731 30.8862 47.5159 29.4373C48.2752 28.0291 49.1168 26.6669 50.0367 25.358C51.792 22.6239 53.3176 19.343 53.1317 15.7941C53.0897 15.5353 53.0642 15.2741 53.0552 15.0121C52.8905 14.2844 52.7935 13.543 52.7654 12.7975C52.7654 12.4092 52.7162 11.9663 53.088 11.7311C53.2403 11.6461 53.4152 11.6105 53.5885 11.6291C53.7619 11.6477 53.9252 11.7196 54.0559 11.835C54.3447 12.1411 54.5465 12.5186 54.6409 12.9287C54.805 13.3825 54.9581 13.8419 55.0784 14.3122C55.1763 14.6699 55.2403 15.0361 55.2697 15.4058C55.7028 16.6327 55.878 17.9359 55.784 19.2336C55.6527 21.8638 54.6793 24.2698 54.3512 26.8453Z" fill="black"/>
<path d="M43.2617 31.7994C43.2617 31.3893 42.6163 31.4823 42.6328 31.8869C42.7275 34.282 42.8223 36.6753 42.9171 39.0667C42.9171 39.4769 43.5624 39.3784 43.546 38.9738C43.4476 36.5823 43.3528 34.1909 43.2617 31.7994Z" fill="black"/>
<path d="M78.652 71.3075C78.3828 70.38 77.9674 69.5013 77.4216 68.7046C76.8748 67.8789 76.3281 67.0641 75.743 66.2931C74.5546 64.6563 73.3242 63.0541 72.0519 61.4865C71.7949 61.1694 71.2916 61.5576 71.5486 61.8802C72.7808 63.3968 73.9712 64.9424 75.1195 66.5173C75.6664 67.2828 76.2132 68.0484 76.76 68.8413C77.3164 69.6206 77.743 70.4848 78.0232 71.4005C78.1271 71.7942 78.7559 71.7067 78.652 71.3075Z" fill="black"/>
<path d="M61.1698 12.9451C60.661 12.8538 60.1368 12.9049 59.6551 13.0927C59.6888 12.7086 59.5947 12.3242 59.3873 11.9991C59.3474 11.9553 59.2959 11.9235 59.2389 11.9074C59.1818 11.8913 59.1215 11.8915 59.0645 11.9081C59.0076 11.9246 58.9565 11.9567 58.9169 12.0008C58.8773 12.045 58.8508 12.0993 58.8405 12.1577C58.7196 12.6603 58.6772 13.1786 58.7147 13.6942L58.4248 13.7489C58.3414 13.7612 58.2665 13.8062 58.2163 13.8739C58.166 13.9415 58.1447 14.0264 58.157 14.1098C58.1693 14.1932 58.2143 14.2683 58.2819 14.3185C58.3496 14.3688 58.4346 14.3901 58.518 14.3778C59.4641 14.2227 60.3842 13.9375 61.2521 13.5302C61.3077 13.4989 61.3525 13.4516 61.3808 13.3944C61.4091 13.3372 61.4195 13.2728 61.4107 13.2096C61.4018 13.1464 61.3741 13.0874 61.3311 13.0402C61.2882 12.993 61.2319 12.9598 61.1698 12.9451Z" fill="black"/>
<path d="M74.3103 0.401062C72.6373 1.18127 71.1339 2.28309 69.8863 3.64372C69.3925 4.17061 68.941 4.7356 68.5358 5.33342C68.016 5.25248 67.4849 5.28069 66.9765 5.41626C66.4682 5.55183 65.9936 5.79179 65.5831 6.12085C64.8371 6.75105 64.1885 7.48813 63.6582 8.30814C63.4176 8.6417 63.9644 8.96978 64.205 8.63622C64.9761 7.54257 65.911 6.26848 67.2999 5.97319C67.5894 5.91294 67.8872 5.90185 68.1805 5.94038C67.7268 6.70405 67.5348 7.59492 67.6336 8.47765C67.6902 8.91999 67.8624 9.33953 68.1332 9.69385C68.404 10.0482 68.7636 10.3247 69.1756 10.4954C69.243 10.515 69.3151 10.5117 69.3804 10.486C69.4457 10.4602 69.5006 10.4135 69.5366 10.3533C70.0511 9.59225 70.3806 8.7215 70.4988 7.81051C70.5254 7.4278 70.4563 7.04451 70.2978 6.69514C70.1393 6.34577 69.8967 6.04131 69.5913 5.80915C69.4569 5.7112 69.314 5.62518 69.1646 5.55213C69.9923 4.3329 71.0203 3.26244 72.205 2.38603C72.9516 1.82996 73.7543 1.35347 74.6 0.964306C74.9883 0.789322 74.6767 0.231547 74.3103 0.401062ZM69.881 7.50977C69.8555 8.30997 69.6013 9.08613 69.1483 9.74629C68.9043 9.58278 68.6989 9.36784 68.5468 9.11656C68.3947 8.86528 68.2995 8.58373 68.2678 8.29172C68.2062 7.52246 68.3983 6.75422 68.8146 6.10442C69.112 6.2128 69.371 6.40656 69.5587 6.66143C69.7465 6.91629 69.8547 7.22092 69.8701 7.5371L69.881 7.50977Z" fill="#1D4ED8"/>
<path d="M28.3114 11.4741C27.3922 10.3542 26.0911 9.61406 24.6587 9.39617C24.549 9.18241 24.4285 8.97434 24.2977 8.77278C23.6471 7.7755 22.79 6.92945 21.7844 6.29175C20.7788 5.65405 19.6481 5.23954 18.4686 5.07625C18.064 5.0161 18.0585 5.6559 18.4686 5.71058C20.2448 5.97719 21.8707 6.85983 23.0619 8.2041C23.3948 8.57987 23.6915 8.98632 23.9478 9.41803C23.4054 9.48719 22.8926 9.70482 22.4659 10.0469C22.048 10.3489 21.7502 10.7889 21.6251 11.2892C21.5001 11.7895 21.5558 12.3178 21.7824 12.781C21.9911 13.2208 22.3647 13.5605 22.8224 13.7263C23.28 13.8922 23.7847 13.8708 24.2267 13.6669C24.5805 13.4309 24.8621 13.1017 25.0406 12.7158C25.2192 12.3298 25.2875 11.902 25.2382 11.4796C25.2178 11.0103 25.1238 10.5471 24.9595 10.107C25.9876 10.3705 26.9179 10.9249 27.6389 11.7037C28.3342 12.4443 28.8525 13.3331 29.1546 14.303C29.4568 15.2729 29.5349 16.2987 29.3832 17.3032C29.3176 17.7024 29.9301 17.8829 29.9957 17.4782C30.1693 16.4151 30.1085 15.327 29.8176 14.2899C29.5267 13.2528 29.0126 12.2918 28.3114 11.4741ZM24.4127 10.3804C24.6805 11.0661 24.6805 11.8274 24.4127 12.5131C24.3455 12.6728 24.2401 12.8137 24.1059 12.9234C23.9717 13.0331 23.8127 13.1082 23.6428 13.1422C23.4728 13.1762 23.2971 13.168 23.131 13.1184C22.965 13.0688 22.8135 12.9792 22.6901 12.8576C22.5378 12.724 22.4153 12.56 22.3303 12.3762C22.2453 12.1924 22.1999 11.9928 22.1968 11.7903C22.1937 11.5878 22.2331 11.387 22.3124 11.2006C22.3917 11.0143 22.5092 10.8467 22.6572 10.7085C22.862 10.4884 23.1088 10.3116 23.3831 10.1886C23.6574 10.0655 23.9535 9.99874 24.2541 9.99219C24.2923 10.1508 24.347 10.2765 24.3908 10.4078L24.4127 10.3804Z" fill="#1D4ED8"/>
<path d="M29.8152 5.84206C29.6019 5.49756 29.0442 5.79831 29.2684 6.14828C30.1459 7.56224 30.7057 9.15005 30.9088 10.8018C30.9291 10.8837 30.9811 10.9542 31.0534 10.9978C31.1257 11.0414 31.2125 11.0545 31.2944 11.0341C31.3763 11.0138 31.4468 10.9618 31.4904 10.8895C31.534 10.8172 31.547 10.7306 31.5267 10.6486C31.3064 8.94249 30.7228 7.30345 29.8152 5.84206Z" fill="#1D4ED8"/>
<path d="M24.5494 18.1729L20.7216 18.5556C20.6379 18.5583 20.5581 18.5924 20.4983 18.6512C20.4385 18.7099 20.4031 18.7891 20.399 18.8728C20.3982 18.9145 20.4057 18.9558 20.421 18.9946C20.4363 19.0333 20.4591 19.0687 20.488 19.0987C20.517 19.1286 20.5515 19.1526 20.5897 19.1692C20.628 19.1858 20.669 19.1947 20.7107 19.1954L24.5385 18.8126C24.6223 18.81 24.7019 18.7759 24.7617 18.7171C24.8215 18.6583 24.8569 18.5792 24.861 18.4955C24.8597 18.4122 24.8268 18.3325 24.7689 18.2726C24.711 18.2127 24.6326 18.177 24.5494 18.1729Z" fill="#1D4ED8"/>
<path d="M65.3315 1.63131C63.6296 2.95833 62.1315 4.52806 60.8856 6.29025C60.645 6.62381 61.1919 6.95189 61.4325 6.61833C62.653 4.90695 64.1155 3.38184 65.7742 2.09065C66.0968 1.85552 65.6541 1.39617 65.3315 1.63131Z" fill="#1D4ED8"/>
<path d="M71.3028 13.5357C69.3686 12.8712 67.292 12.7352 65.2877 13.142C64.8885 13.224 65.0415 13.8419 65.4407 13.7599C67.3353 13.3811 69.2968 13.5151 71.1223 14.1482C71.5105 14.2794 71.6855 13.6615 71.3028 13.5357Z" fill="#1D4ED8"/>
<path d="M52.2186 17.44C50.3977 17.1619 48.5357 17.4783 46.909 18.3423C46.548 18.5337 46.7941 19.1242 47.155 18.9274C48.6817 18.1064 50.4349 17.8068 52.1476 18.0743C52.5522 18.1345 52.6232 17.4892 52.2186 17.44Z" fill="black"/>
</svg>
