<svg viewBox="0 0 192 192" fill="none" xmlns="http://www.w3.org/2000/svg">
<rect width="192" height="192" fill="white"/>
<path d="M22.4733 28.9463C22.4531 28.9934 22.4427 29.0442 22.4427 29.0955C22.4427 29.1468 22.4531 29.1976 22.4733 29.2448C22.4863 29.3777 22.4863 29.5114 22.4733 29.6443C22.3484 30.1181 22.046 30.5257 21.6286 30.7824C19.8178 32.133 17.9311 33.3925 16.0646 34.6976L13.2825 36.645C13.0358 36.8441 12.7571 36.9997 12.4581 37.1052C12.4431 37.1356 12.4214 37.1621 12.3946 37.1828C12.3678 37.2035 12.3367 37.2179 12.3035 37.2247C12.2703 37.2315 12.236 37.2307 12.2032 37.2223C12.1704 37.2139 12.1398 37.198 12.1141 37.1761C12.082 37.1526 12.0548 37.1235 12.0333 37.0901C12.0059 37.1116 11.9819 37.1371 11.9624 37.1659C11.9566 37.1122 11.9355 37.0614 11.9017 37.0193C11.8505 36.9855 11.8061 36.9426 11.7703 36.8928C11.6354 36.8018 11.4952 36.7191 11.3504 36.645C10.8446 36.3819 10.2981 36.1392 9.7771 35.8964C9.51407 35.775 9.24608 35.6586 8.99317 35.5119C8.8336 35.4378 8.70126 35.3153 8.61504 35.162C8.52881 35.0086 8.49296 34.8319 8.51254 34.6571C8.53933 34.4834 8.6258 34.3243 8.75681 34.2072C8.88781 34.09 9.05542 34.022 9.23101 34.0147C9.403 33.9843 9.58003 33.9843 9.73684 33.9691C12.266 33.8225 14.021 31.5007 14.3498 29.4167C14.3679 28.9077 14.3255 28.3983 14.2233 27.8993C14.1345 27.3318 14.0855 26.7588 14.0766 26.1845C14.101 26.0458 14.1659 25.9174 14.2631 25.8156C14.3603 25.7137 14.4855 25.6429 14.6229 25.6121C14.7603 25.5812 14.9037 25.5917 15.0351 25.6423C15.1666 25.6929 15.2801 25.7812 15.3614 25.8962C15.5827 26.3011 15.7399 26.7379 15.827 27.1911C16.3328 29.2852 17.5669 29.8619 19.4031 28.8098C19.9544 28.4911 20.4654 28.1016 20.9914 27.7425C21.2848 27.5452 21.5478 27.3125 21.8462 27.1405C22.0174 27.0274 22.224 26.9809 22.4271 27.0098C22.6303 27.0387 22.8159 27.141 22.9488 27.2974C23.0619 27.4329 23.1241 27.6038 23.1241 27.7804C23.1241 27.957 23.0619 28.1279 22.9488 28.2634C22.792 28.4708 22.615 28.7237 22.4733 28.9463Z" fill="#1D4ED8"/>
<path d="M191.418 128.877C191.091 128.391 190.796 127.884 190.533 127.36C188.606 123.971 186.664 120.592 184.762 117.193C182.483 113.003 179.976 108.942 177.25 105.028C175.44 102.386 173.384 99.9223 171.11 97.6679C169.702 96.2735 168.086 95.1062 166.319 94.208C165.389 93.7477 164.443 93.3583 163.891 92.3567C163.602 91.9914 163.238 91.6915 162.824 91.4766C162.065 90.9404 161.307 90.4295 160.518 89.9034C155.146 86.2261 149.784 82.5235 144.068 79.3823C140.138 77.2174 136.122 75.2548 131.731 74.1824C130.492 73.8789 129.243 73.5906 127.988 73.3478C127.724 73.3355 127.474 73.225 127.286 73.0378C127.099 72.8507 126.989 72.6005 126.976 72.3362C126.746 70.3568 125.905 68.4985 124.569 67.0199C124.25 66.676 124.417 66.3978 124.645 66.1044C125.063 65.5788 125.362 64.969 125.523 64.3169C125.684 63.6647 125.701 62.9856 125.575 62.3259C125.507 61.9878 125.377 61.6653 125.191 61.375C125.136 61.3103 125.065 61.2607 124.985 61.2306C124.906 61.2006 124.82 61.191 124.736 61.203C124.653 61.2196 124.575 61.2552 124.508 61.307C124.442 61.3588 124.388 61.4254 124.351 61.5014C124.275 61.8335 124.233 62.1725 124.225 62.5131C124.17 63.3889 123.882 64.2341 123.39 64.9613C123.026 65.5278 122.753 65.6138 122.08 65.3558C120.606 64.8167 119.08 64.4286 117.528 64.1975C116.516 64.0255 115.474 63.7978 114.457 63.55C113.954 63.4274 113.463 63.2581 112.99 63.0442C112.64 62.902 112.349 62.6446 112.165 62.3143C111.981 61.9841 111.915 61.6009 111.979 61.2283C112.08 59.6653 112.055 58.0921 112.08 56.519C112.074 56.4045 112.094 56.2902 112.141 56.1852C112.181 56.1144 112.343 56.0335 112.389 56.0588C112.737 56.2693 113.075 56.4972 113.4 56.7416C115.191 58.1384 117.17 59.2758 119.278 60.1205C119.542 60.2298 119.822 60.2981 120.107 60.3228C120.19 60.3076 120.268 60.2738 120.336 60.2238C120.403 60.1738 120.458 60.1091 120.497 60.0345C120.536 59.9613 120.556 59.8797 120.556 59.7968C120.556 59.7139 120.536 59.6322 120.497 59.559C120.311 59.341 120.09 59.1548 119.844 59.0077C117.548 57.5256 115.262 56.0284 112.94 54.5817C112.136 54.1274 111.536 53.384 111.261 52.5028C110.565 50.3766 109.103 48.5858 107.158 47.4799C106.62 47.1341 106.053 46.8347 105.464 46.5847C104.868 46.3485 104.37 45.9192 104.047 45.3656C103.258 44.1466 102.449 42.9377 101.589 41.7642C99.1955 38.6139 96.557 35.6575 93.6983 32.9223C93.1216 32.3508 92.5348 31.7842 91.9632 31.2025C91.3916 30.6208 91.3918 30.5095 92.2821 30.2819C95.4436 29.5237 98.6554 28.9929 101.893 28.6936C105.014 28.3749 108.15 28.1878 111.195 27.333C111.822 27.161 111.994 27.3734 111.903 28.0917C111.544 30.8586 111.205 33.6558 110.82 36.3923C110.618 37.8906 110.633 39.4103 110.866 40.9042C111.021 42.0649 111.555 43.1422 112.383 43.9695C113.56 45.1807 114.87 46.2547 116.288 47.1714C118.099 48.3985 120.139 49.2474 122.286 49.6672C124.433 50.087 126.642 50.0691 128.782 49.6146C130.432 49.2585 132.033 48.7013 133.547 47.9554C133.764 47.8701 133.957 47.7334 134.109 47.5572C134.261 47.3811 134.369 47.1706 134.422 46.9438C134.503 46.6099 134.635 46.2812 134.71 45.9321C134.877 45.1936 135.049 44.4551 135.171 43.7116C135.185 43.448 135.297 43.199 135.483 43.0124C135.67 42.8257 135.919 42.7145 136.183 42.6999L136.526 42.6443C138.289 42.3315 139.89 41.4217 141.061 40.0676C142.231 38.7136 142.9 36.9978 142.955 35.2086C142.979 34.1039 142.834 33.002 142.526 31.941C141.863 29.5991 140.629 27.6921 138.034 27.0902C137.614 26.989 137.553 26.6501 137.604 26.2606C137.71 25.5171 137.816 24.7431 137.882 24.0147C137.905 23.7554 137.871 23.4943 137.784 23.2491C137.696 23.0038 137.557 22.7802 137.376 22.5934C136.058 21.1129 134.439 19.9315 132.626 19.1285C129.303 17.7122 125.747 16.92 122.136 16.7916C120.565 16.7102 118.99 16.8222 117.447 17.1254C115.879 17.3749 114.448 18.1639 113.4 19.3561C112.973 19.8305 112.723 20.4381 112.692 21.0759C112.621 22.295 112.459 23.5039 112.333 24.7178C112.335 24.8924 112.274 25.0621 112.162 25.1958C112.05 25.3295 111.893 25.4184 111.721 25.4462C110.132 25.7902 108.559 26.2505 106.956 26.4832C104.599 26.8271 102.216 26.989 99.8744 27.2723C96.8058 27.5772 93.7758 28.1907 90.8303 29.1034C90.5646 29.204 90.2746 29.2221 89.9985 29.1553C89.7223 29.0886 89.4728 28.94 89.2824 28.729C87.2591 27.0447 85.2358 25.4007 83.2126 23.7315C81.6951 22.4669 80.1775 21.2023 78.6853 19.9074C78.3504 19.6721 78.1023 19.3332 77.979 18.943C77.8556 18.5527 77.8639 18.1327 78.0027 17.7476C78.2809 16.7895 78.2809 15.7719 78.0027 14.8138C77.6486 13.529 76.8343 13.0181 75.5141 13.2154C75.2846 13.2477 75.0592 13.3037 74.8413 13.3823C73.4055 13.9014 72.1793 14.8769 71.3509 16.1593C71.1994 16.472 71.0305 16.7759 70.8451 17.0698C70.7733 17.1496 70.6852 17.2127 70.5865 17.2546C70.4877 17.2966 70.3808 17.3164 70.2735 17.3126C69.0039 17.1659 67.7445 16.8826 66.4749 16.8067C62.9258 16.666 59.3724 16.9427 55.8879 17.6312C51.2693 18.499 46.7084 19.6494 42.2307 21.0759C34.7698 23.3875 27.3948 26.4022 20.7028 30.4691C16.1286 33.2179 12.0824 36.7622 8.75518 40.9346C8.24936 41.5568 8.16345 41.6124 7.44518 41.4404C6.43353 41.1723 5.42188 40.8637 4.41023 40.6462C3.43758 40.4243 2.42064 40.5001 1.49162 40.8638C0.991937 41.0383 0.570856 41.3852 0.303873 41.8423C0.0368895 42.2993 -0.0584576 42.8365 0.0349067 43.3575C0.0859577 43.6442 0.158756 43.9265 0.2525 44.2022C0.619787 45.4963 1.32709 46.6684 2.30099 47.5963C2.54437 47.8388 2.73678 48.1275 2.86708 48.4454C2.99737 48.7633 3.06291 49.104 3.05972 49.4476C3.16162 50.9557 3.34742 52.4569 3.61618 53.9444C4.66823 59.4298 6.32379 64.7819 8.5529 69.9032C10.2373 73.9298 12.329 77.7738 14.7949 81.3752C15.3665 82.1896 15.3514 82.1947 14.5623 82.8927C13.7732 83.5908 12.9182 84.3748 12.1342 85.1538C10.9608 86.2899 9.98167 87.6108 9.23581 89.0638C7.15182 93.2267 7.12658 97.3391 9.66581 101.34C11.0012 103.444 12.7007 105.002 15.4119 105.028C15.4687 105.019 15.5269 105.027 15.5799 105.049C15.6328 105.071 15.6788 105.107 15.713 105.153C15.7472 105.199 15.7682 105.254 15.774 105.311C15.7798 105.368 15.7701 105.426 15.7458 105.478C15.4676 106.424 15.2856 107.395 14.6482 108.209C13.6366 109.504 12.8424 109.615 11.6133 108.503C11.2398 108.137 10.9011 107.737 10.6016 107.309C10.4591 107.058 10.3003 106.816 10.1262 106.586C10.0435 106.514 9.94665 106.46 9.84216 106.428C9.73767 106.396 9.62772 106.386 9.5191 106.398C9.44636 106.414 9.37794 106.445 9.31855 106.489C9.25917 106.534 9.21032 106.591 9.17555 106.657C9.14078 106.723 9.12082 106.795 9.11726 106.869C9.1137 106.944 9.12648 107.018 9.1548 107.086C9.31835 107.825 9.62603 108.524 10.06 109.144C10.494 109.764 11.0457 110.292 11.6839 110.698C12.0597 110.926 12.4817 111.068 12.9191 111.114C13.3565 111.159 13.7983 111.107 14.213 110.961C14.6379 110.84 15.0174 110.227 15.422 110.551C15.7306 110.794 15.7407 111.391 15.9279 111.811C16.2396 112.562 16.5908 113.297 16.98 114.011C17.8944 115.725 19.4313 117.023 21.2743 117.638C21.8763 117.852 22.4629 118.107 23.0296 118.402C23.0852 118.421 23.1359 118.452 23.1776 118.494C23.2193 118.535 23.251 118.585 23.2704 118.641C23.2899 118.696 23.2966 118.756 23.29 118.814C23.2833 118.872 23.2634 118.929 23.2319 118.978C23.0599 119.282 22.8778 119.58 22.6957 119.874C21.6537 121.558 20.5967 123.227 19.58 124.932C18.2598 127.127 16.9547 129.322 15.6952 131.553C15.286 132.32 14.9474 133.122 14.6835 133.951C14.4863 134.507 14.633 134.907 14.9466 135.018C15.3563 135.155 15.6193 134.907 15.8318 134.623C16.3044 134.037 16.7451 133.426 17.1519 132.792C20.1868 127.734 23.0651 122.645 26.4086 117.8C28.0585 115.345 29.8399 112.981 31.745 110.718C31.9888 110.394 32.2845 110.112 32.62 109.883C33.1086 109.57 33.5299 109.163 33.8594 108.685C34.1134 108.369 34.3905 108.073 34.6888 107.8C35.8319 106.717 36.9701 105.635 38.1335 104.582C38.7743 103.991 39.4499 103.439 40.1568 102.928C42.2205 101.472 42.2308 101.487 44.6487 102.008C44.8763 102.053 45.0988 102.129 45.3264 102.16C46.768 102.357 48.2046 102.584 49.6461 102.711C50.2837 102.753 50.9235 102.684 51.5378 102.509C52.4078 102.281 53.0553 101.654 52.9086 100.738C52.8023 99.9137 53.1716 99.7266 53.8039 99.6102C54.0341 99.5694 54.2596 99.505 54.4767 99.418C54.9158 99.2544 55.2957 98.9623 55.5664 98.5797C55.837 98.1971 55.986 97.7419 55.9941 97.2733C55.9871 96.9247 55.9603 96.5768 55.9134 96.2313C55.9065 96.1736 55.9123 96.1151 55.9307 96.06C55.949 96.0049 55.9795 95.9545 56.0196 95.9124C56.0597 95.8704 56.1086 95.8378 56.1628 95.8168C56.217 95.7958 56.275 95.7871 56.333 95.7912C57.3755 95.7787 58.4059 95.5658 59.3679 95.164C61.2496 94.3446 61.6543 93.5606 61.285 91.4766C61.2616 91.372 61.2598 91.2638 61.2799 91.1585C61.2999 91.0532 61.3412 90.9532 61.4014 90.8645C62.4939 89.9439 62.6305 88.8413 62.1804 87.5565C61.9831 87.0051 62.0691 86.8988 62.6205 86.6308C64.4465 85.7304 66.2775 84.8452 68.1035 83.9449C71.3312 82.3306 74.7228 81.0672 78.22 80.1764C79.3429 79.8881 80.4913 79.706 81.6193 79.4329C85.0083 78.6134 88.3923 77.7636 91.7762 76.9493C93.4151 76.5547 95.069 76.226 96.713 75.8466C97.0177 75.7562 97.3417 75.7528 97.6483 75.8369C97.9549 75.9209 98.2319 76.0889 98.448 76.3221C99.2826 77.1263 100.198 77.8395 101.098 78.5831C101.467 78.8655 101.862 79.1128 102.277 79.3216C102.575 79.5174 102.93 79.6083 103.285 79.5799C103.641 79.5515 103.976 79.4054 104.24 79.1648C104.984 78.4401 105.91 77.9299 106.921 77.6878C107.256 77.5813 107.558 77.3915 107.801 77.1364C108.236 76.666 108.6 76.6812 109.161 76.9746C110.021 77.4248 110.729 76.9088 111.326 76.3221C111.631 75.9781 111.907 75.6093 112.151 75.2194C112.657 75.3762 113.112 75.5532 113.597 75.6898C113.987 75.8099 114.384 75.9029 114.786 75.968C116.172 76.1653 116.986 75.6038 117.315 74.2229C117.477 73.54 117.472 73.5198 118.064 73.626C120.866 74.1217 123.668 74.6276 126.471 75.1435C131.801 76.1054 136.941 77.9228 141.691 80.5255C146.527 83.1992 151.222 86.1199 155.758 89.2762C156.375 89.7011 156.972 90.1665 157.574 90.6116C156.77 90.8038 156.168 90.212 155.449 90.0552C154.544 89.8579 153.659 89.5494 152.753 89.3673C148.658 88.4832 144.484 88.0154 140.295 87.9712C134.877 87.9712 129.495 88.4417 124.108 88.9475C121.334 89.1974 118.575 89.5976 115.843 90.1463C111.788 90.9401 107.837 92.1959 104.068 93.8893C101.114 95.25 98.1799 96.6613 95.2461 98.0674C84.988 102.994 75.4229 109.069 66.222 115.726C59.144 120.928 52.3367 126.489 45.827 132.388C41.8571 135.893 38.1053 139.638 34.5927 143.602C33.5153 144.826 32.4937 146.09 31.4669 147.36C31.257 147.635 31.0867 147.938 30.961 148.26C30.8548 148.498 31.133 148.974 31.3607 148.913C31.998 148.741 32.3167 149.034 32.6354 149.52C35.2909 153.567 38.3106 157.335 41.2697 161.154C42.3724 162.58 43.4902 163.995 44.6232 165.398C44.7874 165.562 44.8841 165.782 44.8944 166.014C44.9047 166.246 44.8278 166.474 44.6788 166.652C43.9646 167.787 43.4177 169.019 43.0551 170.309C42.9808 170.525 42.9534 170.755 42.9744 170.982C42.9928 171.063 43.0291 171.139 43.0808 171.203C43.1325 171.268 43.198 171.32 43.2727 171.356C43.3489 171.388 43.4315 171.402 43.514 171.397C43.5965 171.392 43.6766 171.367 43.7482 171.326C43.9463 171.126 44.1165 170.899 44.254 170.653C44.8003 169.763 45.3264 168.858 45.8727 167.967C46.0751 167.639 46.3077 167.634 46.5606 167.917C46.6803 168.042 46.7934 168.174 46.8994 168.311C50.946 173.37 54.9673 178.397 59.0392 183.42C59.545 184.027 59.8282 184.553 59.2314 185.246C59.0875 185.427 58.9982 185.644 58.9735 185.874C58.9716 185.957 58.9883 186.04 59.0224 186.116C59.0565 186.192 59.1073 186.26 59.1709 186.314C59.2398 186.36 59.3179 186.391 59.4001 186.404C59.4822 186.417 59.5663 186.412 59.6463 186.389C59.8488 186.281 60.0389 186.15 60.2129 186C60.7187 185.646 60.8047 185.641 61.2245 186.096C62.3626 187.34 63.4906 188.6 64.6287 189.839C64.8582 190.1 65.1179 190.333 65.4025 190.532C65.4784 190.562 65.5603 190.573 65.6413 190.564C65.7224 190.555 65.8001 190.527 65.8678 190.482C66.0187 190.321 66.1037 190.11 66.1057 189.89C66.0479 189.667 65.9328 189.463 65.7718 189.298C64.9675 188.231 64.133 187.184 63.3439 186.101C61.7404 183.896 61.5785 184.675 63.5361 182.505L63.6625 182.378C70.5063 175.236 77.7194 168.473 85.1045 161.887C86.4904 160.648 87.9016 159.429 89.3128 158.22C90.1272 157.532 90.1575 157.537 90.8303 158.301C93.6831 161.599 96.5292 164.904 99.3685 168.215C100.279 169.272 101.164 170.355 102.044 171.442C103.056 172.697 103.172 172.555 101.867 173.537L101.731 173.643C97.7246 177.015 93.7219 180.387 89.7226 183.759C88.8171 184.528 88.7564 184.938 89.2167 186.035C89.2645 186.092 89.3255 186.136 89.3943 186.163C89.4631 186.191 89.5376 186.201 89.6112 186.192C89.9414 185.958 90.2591 185.707 90.5623 185.439L101.741 175.959C102.363 175.454 103.011 174.948 103.653 174.442C104.027 174.159 104.27 174.179 104.558 174.518C104.847 174.857 105.201 175.342 105.53 175.752C105.693 176.004 105.892 176.231 106.121 176.425C106.215 176.48 106.32 176.513 106.429 176.523C106.537 176.532 106.646 176.518 106.749 176.48C106.816 176.451 106.876 176.407 106.925 176.353C106.973 176.298 107.01 176.233 107.031 176.163C107.052 176.092 107.058 176.018 107.047 175.946C107.037 175.873 107.011 175.803 106.971 175.742C106.809 175.433 106.617 175.14 106.435 174.842C106.167 174.396 105.889 173.951 105.616 173.506C105.547 173.411 105.517 173.293 105.535 173.177C105.552 173.06 105.613 172.955 105.707 172.884C106.01 172.616 106.334 172.378 106.658 172.12C109.551 169.965 112.409 167.765 115.342 165.666C122.044 160.839 129.038 156.432 136.284 152.469C136.581 152.283 136.894 152.123 137.219 151.993C137.326 151.967 137.436 151.963 137.544 151.981C137.652 152 137.755 152.04 137.847 152.1C138.107 152.333 138.335 152.6 138.524 152.894C140.713 155.905 142.905 158.916 145.1 161.928C145.297 162.207 145.528 162.46 145.788 162.681C145.869 162.717 145.958 162.731 146.046 162.724C146.134 162.717 146.219 162.689 146.294 162.641C146.415 162.56 146.562 162.343 146.532 162.226C146.446 161.89 146.315 161.567 146.142 161.265C144.556 158.353 142.75 155.566 140.74 152.929C140.345 152.423 139.961 151.918 139.587 151.412C139.319 151.037 139.369 150.85 139.809 150.602C140.249 150.355 140.73 150.097 141.2 149.874C144.741 148.164 148.282 146.374 151.898 144.765C156.729 142.605 161.62 140.587 166.486 138.523C167.316 138.169 167.442 138.2 167.958 138.898C169.344 140.769 170.7 142.656 172.066 144.538C172.465 145.084 172.698 145.22 173.027 145.043C173.355 144.866 173.451 144.452 173.082 143.829C171.914 141.887 170.72 139.96 169.541 138.028C169.278 137.598 169.319 137.405 169.764 137.223C170.406 136.95 171.059 136.717 171.707 136.449C177.111 134.313 182.621 132.456 188.216 130.885C188.602 130.759 188.999 130.666 189.4 130.607C189.509 130.608 189.616 130.631 189.716 130.675C189.815 130.72 189.904 130.785 189.977 130.865C190.128 131.112 190.261 131.369 190.376 131.634C190.7 132.14 191.019 132.185 191.707 131.857C191.809 131.8 191.907 131.736 192 131.664V130.268C191.398 129.955 191.732 129.297 191.418 128.877ZM137.361 28.8758C137.361 28.7746 137.624 28.6481 137.761 28.6582C137.991 28.6752 138.214 28.7444 138.413 28.8606C139.222 29.3341 139.87 30.0388 140.275 30.8839C140.889 32.1371 141.234 33.5053 141.286 34.9001C141.226 38.3802 138.651 40.7373 136.42 41.1066C135.874 41.1925 135.717 41.0661 135.747 40.454C135.747 40.3377 135.747 40.2214 135.783 40.1101C135.828 39.8066 135.889 39.5638 136.289 39.6043C136.57 39.6495 136.858 39.6127 137.118 39.4981C138.37 38.8645 139.371 37.8248 139.956 36.5491C140.251 35.9149 140.37 35.2132 140.3 34.5173C140.231 33.8213 139.976 33.1569 139.561 32.5936C139.133 31.9714 138.582 31.443 137.943 31.0406C137.665 30.8585 137.24 30.6461 137.204 30.3932C137.174 29.8822 137.227 29.3698 137.361 28.8758ZM137.295 32.6593C137.698 32.926 138.027 33.2904 138.251 33.7185C138.474 34.1466 138.586 34.6245 138.575 35.1075C138.472 35.5253 138.336 35.9345 138.17 36.3316C137.835 37.1433 137.267 37.837 136.536 38.3245C136.42 38.4004 136.198 38.4712 136.132 38.2031C136.132 38.1424 136.086 38.0868 136.096 38.0362C136.312 36.3063 136.536 34.5798 136.769 32.8566C136.781 32.8019 136.806 32.751 136.843 32.7087C136.879 32.6664 136.926 32.6339 136.978 32.6142C137.031 32.5946 137.087 32.5885 137.143 32.5963C137.198 32.6042 137.25 32.6259 137.295 32.6593ZM112.282 40.1354C112.424 36.9942 112.818 33.8834 113.243 30.7675C113.668 27.6517 114.23 24.4447 114.255 21.2378C114.242 20.9164 114.327 20.5986 114.5 20.3273C114.673 20.056 114.924 19.8441 115.221 19.7203C116.522 19.063 117.948 18.689 119.404 18.6227C120.036 18.567 120.684 18.6227 121.321 18.6227C125.288 18.5814 129.212 19.4464 132.793 21.1518C133.934 21.7382 134.95 22.5384 135.788 23.5089C135.929 23.6544 136.034 23.8306 136.096 24.0237C136.157 24.2168 136.173 24.4215 136.142 24.6218C136.005 25.6638 135.864 26.7007 135.727 27.7326C134.911 33.7822 134.1 39.8319 133.294 45.8816C133.229 46.3874 133.112 46.7819 132.581 46.9539C128.383 48.2691 124.164 48.8255 119.935 47.0804C117.301 45.9579 114.942 44.277 113.021 42.1536C112.763 41.8882 112.563 41.5712 112.436 41.2234C112.309 40.8756 112.256 40.5049 112.282 40.1354ZM106.298 49.1087C106.374 49.0683 106.521 49.1087 106.617 49.1846C106.817 49.3026 107.007 49.4345 107.189 49.5791C108.465 50.6126 109.373 52.0326 109.773 53.6257C110.037 54.6879 110.168 55.7907 110.36 56.8731H110.254C110.254 57.1665 110.254 57.4548 110.254 57.7431C110.243 57.8002 110.222 57.8549 110.193 57.905C110.117 57.8594 110.001 57.8241 109.971 57.7583C109.667 57.0046 109.369 56.2409 109.07 55.4922C108.505 53.9021 107.729 52.3948 106.764 51.0106C106.408 50.5454 106.211 49.9778 106.202 49.392C106.197 49.306 106.228 49.1441 106.298 49.1087ZM101.665 47.2523C101.776 47.2523 101.893 47.2523 102.14 47.2523C102.398 47.3586 102.773 47.5103 103.152 47.6721C103.182 47.6721 103.203 47.7835 103.188 47.834C103.172 47.8846 103.112 47.9605 103.091 47.9504C102.586 47.7936 102.12 47.6266 101.64 47.4446C101.589 47.4446 101.559 47.3687 101.518 47.3282C101.569 47.308 101.609 47.2574 101.665 47.2523ZM15.5233 85.0577C15.24 85.4977 14.9315 85.9176 14.6381 86.3475C12.9637 88.8888 12.1726 91.9108 12.3871 94.9465C12.4685 97.4442 13.0897 99.8945 14.2081 102.129C14.268 102.229 14.314 102.336 14.3447 102.448C14.3761 102.6 14.3998 102.754 14.4156 102.908C14.2031 102.908 13.945 102.959 13.7781 102.868C13.3728 102.643 12.9943 102.374 12.6501 102.063C11.0992 100.637 10.0909 98.7173 9.79721 96.6309C9.41739 94.2629 9.86213 91.8363 11.0568 89.7568C12.1518 87.9086 13.5584 86.264 15.2146 84.8958C15.3014 84.8417 15.395 84.7992 15.4929 84.7694C15.503 84.8705 15.5789 84.997 15.5233 85.0577ZM38.6141 97.2228C37.653 97.9663 37.4103 99.0285 37.5064 100.187C37.5065 100.479 37.5543 100.77 37.6479 101.047C38.0728 101.957 37.6934 102.529 36.9852 103.111C35.9129 104.001 34.9266 104.992 33.8947 105.933C33.6368 106.171 33.3334 106.059 33.2474 105.71C32.3705 102.506 31.8614 99.2121 31.7299 95.8924C31.8361 94.7948 31.9371 93.6972 32.0535 92.5995C32.2944 90.2553 33.4349 88.0958 35.2351 86.5751C37.8119 84.2956 40.7802 82.5014 43.9961 81.2792C44.203 81.179 44.4368 81.149 44.6623 81.1938C44.8877 81.2385 45.0924 81.3555 45.2454 81.527C46.6998 82.8743 48.4071 83.9196 50.2683 84.6024C50.7044 84.7655 51.1124 84.9959 51.4773 85.2852C52.7317 86.2969 52.5445 86.3374 51.2799 86.9697C50.2999 87.4738 49.37 88.07 48.5029 88.7502C47.96 89.1843 47.3567 89.5369 46.7122 89.7972C46.116 90.0229 45.5503 90.3219 45.028 90.6875C44.5789 90.9555 44.2182 91.3495 43.9909 91.8205C43.7077 92.7158 43.0806 93.0649 42.3117 93.4038C41.1933 93.9213 40.271 94.785 39.6813 95.8671C39.4162 96.3835 39.0538 96.8438 38.6141 97.2228ZM34.8861 48.9115C35.225 48.522 35.5589 48.1223 35.8978 47.743C35.9332 47.7025 36.1456 47.743 36.1709 47.7986C36.2346 47.9602 36.2723 48.131 36.2823 48.3044C36.4341 49.918 36.5806 51.5367 36.7222 53.1503C36.7222 54.1973 36.8083 55.2393 36.864 56.2813C36.847 56.3738 36.8145 56.4627 36.7679 56.5443C36.687 56.4634 36.5756 56.3977 36.53 56.3015C35.6624 54.4042 34.9978 52.4204 34.5473 50.3834C34.4743 50.1294 34.4672 49.8611 34.5265 49.6036C34.5858 49.3461 34.7094 49.1079 34.8861 48.9115ZM34.8204 43.9847C34.9519 43.0793 35.0885 42.1182 35.2403 41.1571C35.2743 41.0506 35.3275 40.9512 35.3971 40.8638C35.4537 40.9408 35.4979 41.0261 35.5285 41.1167C35.6499 42.0828 35.7662 43.0489 35.8876 44.0201C35.9143 44.2782 35.8745 44.5387 35.7718 44.7769C35.6691 45.0151 35.507 45.2231 35.3011 45.3808C35.2197 45.4563 35.1134 45.4995 35.0024 45.5022C34.9266 45.5022 34.8356 45.3453 34.8305 45.2594C34.8002 44.8547 34.8002 44.4551 34.8002 43.9847H34.8204ZM59.8182 43.3018C60.2005 43.5656 60.6069 43.7926 61.0321 43.9797C61.225 44.0427 61.3934 44.1642 61.514 44.3274C61.6346 44.4906 61.7013 44.6873 61.7049 44.8901C61.7199 45.1226 61.7712 45.3513 61.8568 45.568C61.9296 45.743 62.0474 45.8956 62.1984 46.0103C62.3493 46.125 62.5279 46.1976 62.7161 46.2207C62.9042 46.2439 63.0951 46.2167 63.2693 46.142C63.4436 46.0673 63.595 45.9478 63.708 45.7956C63.8795 45.5625 64.0034 45.2977 64.0723 45.0166C64.1094 44.7886 64.2141 44.5772 64.3728 44.4094C64.5316 44.2417 64.7369 44.1254 64.9624 44.0757C65.2172 43.9479 65.5091 43.9138 65.7866 43.9795C66.064 44.0451 66.3094 44.2064 66.4799 44.4349C66.6695 44.6533 66.8933 44.8395 67.1425 44.9863C67.3077 45.0803 67.4978 45.1213 67.6871 45.1034C67.8764 45.0856 68.0558 45.0099 68.2006 44.8867C68.3454 44.7635 68.4487 44.5987 68.4965 44.4147C68.5443 44.2307 68.5343 44.0364 68.4678 43.8583C68.4507 43.8032 68.4304 43.7491 68.4071 43.6964C67.8507 42.6392 67.9014 42.5836 69.1913 42.3357C69.4037 42.2953 69.5706 42.0777 69.783 41.9968C69.9095 41.9462 70.1623 41.9412 70.2078 41.9968C70.9312 43.1147 71.6495 44.2376 72.3223 45.3909C72.3474 45.4979 72.3453 45.6096 72.3161 45.7157C72.2869 45.8217 72.2317 45.9188 72.1553 45.9979C71.7064 46.363 71.1911 46.6378 70.6378 46.8072C69.4492 47.05 68.23 47.136 67.0262 47.2827C64.7529 47.1584 62.494 46.8437 60.2734 46.3418C59.2877 46.2003 58.3657 45.771 57.623 45.1076C57.5613 45.025 57.4811 44.9578 57.3889 44.9115C57.2967 44.8653 57.1949 44.8412 57.0917 44.8412C56.9886 44.8412 56.8868 44.8653 56.7946 44.9115C56.7024 44.9578 56.6224 45.025 56.5607 45.1076C56.4916 45.2007 56.4036 45.2782 56.3026 45.3352C54.7497 45.8411 54.0367 47.0905 53.5865 48.5169C53.2833 49.4565 53.0401 50.4145 52.8582 51.3849C52.4538 53.5774 51.3959 55.5963 49.8232 57.1766C47.1373 59.9688 43.8444 60.7983 40.0963 60.0244C39.9828 59.9984 39.8712 59.9646 39.7623 59.9233C39.5379 59.8679 39.3391 59.7372 39.1992 59.5532C39.0593 59.3691 38.9867 59.1427 38.9935 58.9116C38.9125 56.7619 38.8165 54.612 38.6749 52.4674C38.5433 50.4946 38.4066 48.522 38.1436 46.5644C38.0628 46.1441 38.0902 45.7101 38.2229 45.3031C38.3556 44.8962 38.5893 44.5296 38.9023 44.2376C42.7402 40.2121 47.6578 37.3792 53.0654 36.0787C54.5272 35.7196 56.0044 35.3857 57.4965 35.1631C58.5908 35.014 59.6966 34.9682 60.7995 35.0265C61.5006 35.0604 62.1882 35.2323 62.8228 35.5324C65.0908 36.5979 67.0947 38.1526 68.6904 40.0848C68.741 40.1831 68.7753 40.289 68.7916 40.3984C68.6858 40.442 68.5753 40.4742 68.4627 40.4945C67.9967 40.5191 67.5345 40.4009 67.1376 40.1556C66.7026 39.9179 66.3788 40.0696 66.1259 40.5047C66.0415 40.666 65.9735 40.8354 65.9234 41.0105C65.776 41.489 65.4753 41.9057 65.0676 42.1964C64.6599 42.4871 64.1679 42.6356 63.6674 42.619C62.9142 42.6338 62.1612 42.583 61.4167 42.4673C61.0184 42.3864 60.6249 42.2834 60.2381 42.1587C59.7322 42.0373 59.464 42.1587 59.3578 42.4521C59.2668 42.8871 59.5299 43.1096 59.8182 43.3018ZM56.0448 33.4636C54.3503 33.8884 52.6456 34.2577 50.9865 34.7332C46.5444 35.99 42.4751 38.3094 39.1301 41.491C38.7911 41.8097 38.432 42.103 38.0678 42.3863C38.0222 42.4268 37.8757 42.3863 37.7897 42.3205C37.7037 42.2548 37.7338 42.2194 37.7237 42.1637C37.3595 40.046 36.9989 37.9266 36.6414 35.8055C36.5049 34.981 36.5756 34.8242 37.3293 34.4094C39.0049 33.462 40.8449 32.8407 42.7518 32.5784C44.593 32.3356 46.4494 32.2293 48.3159 32.0725C50.7658 32.1127 53.2062 32.3854 55.6046 32.8869C55.7763 32.9133 55.9455 32.9539 56.1105 33.0083C56.1573 33.031 56.1977 33.0651 56.2278 33.1076C56.2579 33.15 56.2767 33.1994 56.2826 33.2511C56.2651 33.3043 56.234 33.3519 56.1922 33.3892C56.1505 33.4265 56.0996 33.4521 56.0448 33.4636ZM50.8146 100.991C50.2515 101.098 49.6764 101.131 49.1048 101.087C47.6733 100.9 46.2469 100.617 44.8255 100.374C44.3703 100.293 43.9101 100.217 43.4599 100.121C42.542 99.9368 41.5887 100.067 40.7537 100.49C40.3845 100.662 40.0354 100.865 39.6712 101.042C39.307 101.219 39.1655 101.072 39.1301 100.657C39.1149 100.367 39.1149 100.077 39.1301 99.7873C39.1348 99.4369 39.245 99.0961 39.4462 98.8092C39.6474 98.5223 39.9303 98.3027 40.258 98.1788C41.442 97.6999 42.7274 97.5259 43.9961 97.673C45.7976 97.7207 47.5731 98.1139 49.2263 98.8312C49.9965 99.1122 50.6477 99.6475 51.0725 100.349C51.2343 100.627 51.1434 100.956 50.8146 100.991ZM53.6169 97.9562C52.7772 98.2141 51.9022 98.3558 51.0878 97.8904C48.3412 96.292 45.3619 95.8065 42.2359 95.9633C42.1094 95.9633 41.9779 95.857 41.8464 95.8014C41.9325 95.6562 42.0378 95.5235 42.1598 95.4068C43.4244 94.4913 44.9166 94.2636 46.4037 94.0158C46.83 93.9614 47.2589 93.9311 47.6886 93.9248C49.1707 93.8588 50.6502 94.1017 52.0335 94.638C52.9662 94.9863 53.7277 95.6825 54.1581 96.5804C54.2345 96.7003 54.2812 96.8367 54.2944 96.9782C54.3076 97.1198 54.287 97.2625 54.2341 97.3945C54.1812 97.5265 54.0977 97.644 53.9904 97.7373C53.883 97.8306 53.755 97.8969 53.6169 97.9309V97.9562ZM59.2872 93.2773C58.2786 93.8906 57.0981 94.1604 55.9233 94.0462C55.0127 94.1164 54.1041 93.8892 53.3336 93.3987C52.0387 92.5894 50.5212 92.3871 49.0139 92.2353C48.5536 92.1898 48.0881 92.2353 47.6278 92.2353L46.1103 92.1999C46.3784 91.4867 47.122 91.5019 47.6278 91.335C49.6065 90.6475 51.7229 90.453 53.7938 90.7684C54.9875 90.9809 56.2017 91.082 57.4005 91.2743C58.0948 91.3399 58.7603 91.5838 59.3326 91.9824C59.4357 92.0551 59.5189 92.1524 59.5749 92.2653C59.6309 92.3783 59.658 92.5035 59.6535 92.6295C59.6489 92.7556 59.6129 92.8785 59.549 92.9872C59.485 93.0958 59.3952 93.1868 59.2872 93.252V93.2773ZM60.5364 89.1953C60.4183 89.4274 60.2226 89.6107 59.9832 89.7133C59.7438 89.8159 59.476 89.8313 59.2264 89.7568L54.9521 89.0689L52.5798 88.6743C53.1464 87.9055 54.0974 87.951 54.8511 87.7841C56.1409 87.5059 57.4763 87.4199 58.7915 87.2782C59.0789 87.2444 59.3702 87.2864 59.6364 87.3999C59.9026 87.5135 60.1345 87.6948 60.309 87.9257C60.4675 88.0862 60.5739 88.2908 60.6145 88.5127C60.6551 88.7347 60.6279 88.9637 60.5364 89.17V89.1953ZM72.0439 80.3737C68.9858 81.6222 66.0076 83.058 63.1263 84.6732C62.5092 85.002 61.9276 85.3915 61.3206 85.7253C61.1719 85.8137 61.004 85.865 60.8313 85.8748C60.6586 85.8846 60.486 85.8527 60.3282 85.7818C60.1704 85.7108 60.0322 85.6029 59.9249 85.4672C59.8176 85.3315 59.7446 85.1719 59.712 85.002C59.5868 84.4376 59.5291 83.8603 59.5401 83.2822C59.6059 81.3044 58.6699 79.9741 56.945 79.1395C55.9334 78.6641 54.9219 78.229 53.9355 77.7788C53.53 77.6161 53.1633 77.3698 52.8592 77.0561C52.555 76.7424 52.3202 76.3682 52.1701 75.9579C51.9728 75.4521 52.1246 75.1789 52.6759 75.3408C54.5272 75.4065 56.3785 75.5027 58.24 75.533C61.2567 75.5434 64.2651 75.2142 67.2082 74.5517C67.5391 74.4597 67.8777 74.3988 68.2199 74.3696C68.4326 74.3811 68.6324 74.4755 68.7763 74.6326C68.9141 74.8182 69.017 75.0273 69.0799 75.2497C69.7426 76.8647 70.7959 78.2899 72.1452 79.3975C72.8179 79.959 72.8077 80.0601 72.0439 80.3485V80.3737ZM72.6154 68.0822C72.163 68.615 71.5684 69.008 70.9009 69.2153C69.3126 69.8222 67.6281 69.9639 65.9639 70.2269C64.8713 70.3888 63.7737 70.495 62.6761 70.6366C62.4439 70.6461 62.2157 70.6993 62.0033 70.7934C61.7565 70.9131 61.5558 71.1103 61.4317 71.3549C61.3205 71.6634 61.5937 71.8607 61.882 71.977C62.575 72.2755 63.2578 72.584 63.9406 72.8976C63.9929 72.9176 64.0406 72.9482 64.0807 72.9873C64.1207 73.0265 64.1521 73.0734 64.1733 73.1253C64.234 73.4085 63.9762 73.3377 63.8497 73.3478C61.8821 73.5248 59.9194 73.6918 57.9821 73.8536L52.2056 73.3478C52.0607 73.3498 51.9198 73.3 51.8085 73.2072C51.6972 73.1144 51.6227 72.9849 51.5986 72.842C51.4974 72.3362 51.4012 71.8303 51.3051 71.3245C51.073 70.0652 50.6838 68.84 50.1468 67.6775C49.5048 66.231 48.4022 65.0376 47.0108 64.2835C45.9992 63.7271 44.9875 63.1706 43.9759 62.6092C43.8828 62.5414 43.8009 62.4595 43.7331 62.3664C43.8596 62.2551 43.9707 62.0882 44.1174 62.0477C44.7901 61.8757 45.4882 61.7897 46.1407 61.5722C50.597 60.0901 53.2223 56.9237 54.4616 52.4674C54.755 51.4051 54.8915 50.3025 55.19 49.2403C55.3822 48.6338 55.6508 48.0541 55.9892 47.5154C56.0895 47.334 56.2499 47.1933 56.4429 47.1175C56.6359 47.0418 56.8494 47.0358 57.0463 47.1006C57.4966 47.2169 57.9313 47.3867 58.3412 47.6064C60.5258 48.839 62.9602 49.5634 65.4633 49.7258C65.5746 49.7258 65.6907 49.7258 65.8071 49.7663C66.151 49.8169 66.3485 50.0344 66.2828 50.3581C66.1411 51.0359 65.959 51.7087 65.7769 52.3814C65.6822 52.657 65.5723 52.9272 65.448 53.1907C65.3762 53.3182 65.3522 53.467 65.38 53.6106C65.4078 53.7542 65.4858 53.8833 65.5999 53.9748C65.6738 54.0208 65.7559 54.0518 65.8419 54.0658C65.9279 54.0798 66.0158 54.0766 66.1005 54.0563C66.1852 54.0361 66.265 53.9992 66.3354 53.9479C66.4057 53.8966 66.4651 53.8317 66.5102 53.7572C67.3974 52.669 67.9274 51.3337 68.0277 49.9332C68.1188 48.9216 68.1492 48.957 69.1406 48.785C70.0562 48.6231 70.9665 48.4461 71.8668 48.2286C72.0273 48.1648 72.2057 48.1615 72.3685 48.2192C72.5313 48.2768 72.6675 48.3916 72.752 48.5422C73.8564 50.1842 74.7312 51.9694 75.352 53.8483C76.9707 59.033 75.9842 63.7675 72.6154 68.0569V68.0822ZM90.8251 45.6843C88.8004 46.0278 86.7191 45.6898 84.9071 44.7232C83.8241 44.1611 82.7887 43.5115 81.8114 42.7809C79.6395 41.1163 77.6506 39.2257 75.8781 37.1409C74.4636 35.4431 72.9431 33.8364 71.3257 32.3305C68.4916 29.7209 65.0833 27.8149 61.3762 26.7664C55.831 25.118 49.954 24.9299 44.3147 26.2202C42.3213 26.6501 40.4192 27.4274 38.6951 28.5166C35.2926 30.6539 32.181 33.223 29.4384 36.1596C26.6058 39.235 24.6382 42.8618 23.0398 46.6959C22.6402 47.6621 22.2911 48.6535 21.8612 49.6044C20.4904 52.6394 19.9643 55.816 19.9238 59.3567C20.0569 62.1197 20.3373 64.8736 20.7636 67.6067C21.099 69.7328 21.3184 71.8757 21.421 74.0257C21.4724 74.574 21.409 75.1271 21.2348 75.6496C21.0606 76.1722 20.7795 76.6527 20.4094 77.0606C19.3472 78.2139 18.3153 79.3924 17.248 80.5406C16.9495 80.8643 16.6309 80.8138 16.3729 80.4445C15.8671 79.7263 15.3968 78.9979 14.9466 78.2493C9.91487 69.9145 6.52863 60.6919 4.97163 51.0814C4.84011 50.2771 4.7137 49.4729 4.63277 48.6636C4.60846 48.3778 4.52487 48.1001 4.38726 47.8484C4.24966 47.5967 4.06102 47.3765 3.83353 47.2018C2.71581 46.2516 1.93225 44.968 1.59782 43.5396C1.41067 42.796 1.65855 42.4116 2.38694 42.2852C3.42758 42.1284 4.48998 42.2044 5.49771 42.5077C6.05411 42.6645 6.60561 42.8567 7.16707 43.0135C8.74018 43.4435 8.96779 43.317 9.92885 42.0019C14.4206 35.9674 20.8243 31.7488 27.5467 28.4913C29.1856 27.6972 30.8548 26.9738 32.5442 26.2758C39.3392 23.5348 46.3505 21.364 53.5055 19.786C58.613 18.5987 63.873 18.2064 69.1001 18.6227C69.8487 18.6884 70.6174 18.7896 71.3509 18.8503C71.527 18.8767 71.7065 18.8334 71.851 18.7294C71.9956 18.6255 72.0939 18.4692 72.1249 18.2939C72.5498 16.4274 73.9358 15.5472 75.5595 14.9149C76.0198 14.7379 76.3484 14.9504 76.4193 15.4562C76.6163 16.429 76.6422 17.4286 76.4953 18.4102C76.4375 18.7209 76.4495 19.0406 76.5309 19.346C76.6123 19.6514 76.7608 19.9348 76.9656 20.1755C77.6469 21.1907 78.4639 22.108 79.3937 22.9019C81.1371 24.3486 82.8887 25.7885 84.649 27.2217C89.4034 31.1525 93.8244 35.4701 97.8664 40.1303C98.7819 41.1774 99.6214 42.3003 100.446 43.4233C100.876 44.005 101.458 44.5057 101.544 45.2999C100.861 45.2543 100.173 45.1633 99.4849 45.1582C97.9674 45.1582 96.4499 45.1026 94.9324 45.1582C93.5718 45.2695 92.1859 45.4516 90.81 45.659L90.8251 45.6843ZM103.4 77.6777C103.365 77.7241 103.32 77.7626 103.269 77.7907C103.218 77.8189 103.162 77.8362 103.104 77.8414C103.046 77.8467 102.987 77.8397 102.932 77.8211C102.877 77.8025 102.826 77.7726 102.783 77.7333C101.771 76.9442 100.805 76.14 99.8136 75.3458C99.2912 74.8943 98.7442 74.4721 98.1749 74.0813C97.9347 73.9151 97.6524 73.8203 97.3606 73.8078C97.0688 73.7952 96.7793 73.8655 96.5257 74.0105C95.3826 74.6175 94.0877 74.6782 92.8484 74.9564C92.7918 74.9607 92.735 74.9507 92.6832 74.9274C92.6314 74.904 92.5863 74.8681 92.552 74.8227C92.5178 74.7774 92.4956 74.7242 92.4873 74.668C92.479 74.6118 92.4849 74.5544 92.5046 74.5011C92.6363 74.1225 92.8058 73.7582 93.0104 73.4136C93.6943 72.4015 94.6307 71.5855 95.7268 71.0463C96.1017 70.8995 96.4872 70.7811 96.8799 70.6922C97.2391 70.7732 97.578 70.8338 97.8916 70.935C99.6368 71.4288 101.141 72.5444 102.12 74.0712C102.604 74.9266 103.039 75.808 103.425 76.7116C103.501 76.869 103.538 77.0426 103.531 77.2174C103.524 77.3732 103.473 77.5238 103.385 77.6524L103.4 77.6777ZM106.025 76.2159C105.519 76.4131 105.251 76.3221 105.014 75.8769C104.832 75.5127 104.675 75.1435 104.508 74.7743C103.586 72.5573 101.851 70.7778 99.657 69.802C99.4424 69.7145 99.2344 69.6113 99.0349 69.4934C98.9539 69.4428 98.8477 69.2709 98.8679 69.2355C98.9539 69.1039 99.0752 68.9471 99.2068 68.9168C99.5933 68.8466 99.9834 68.7976 100.375 68.7701C103.006 69.195 105.312 70.3483 106.728 72.8673C106.987 73.383 107.138 73.9456 107.173 74.5214C107.254 75.3813 106.89 75.8415 106.01 76.1905L106.025 76.2159ZM110.446 74.3696C110.421 74.8754 110.143 75.2902 109.844 75.3104C109.617 75.2976 109.404 75.199 109.247 75.0346C109.09 74.8703 109.002 74.6524 108.999 74.4252C108.858 72.9271 108.227 71.5174 107.204 70.4141C107.153 70.3258 107.115 70.2303 107.092 70.1308C107.194 70.1308 107.32 70.06 107.391 70.1005C108.49 70.6246 109.39 71.4906 109.956 72.5689C110.157 73.0409 110.326 73.5259 110.461 74.0206C110.436 74.2482 110.431 74.2886 110.431 74.3443L110.446 74.3696ZM115.14 74.3696C113.719 74.0509 112.287 73.7525 111.64 72.1693C111.388 71.6468 111.104 71.14 110.79 70.6518C110.755 70.586 110.79 70.4646 110.836 70.3786C110.881 70.2926 110.937 70.3382 111.063 70.2876C112.702 70.9199 114.326 71.6634 115.363 73.2719C115.446 73.4322 115.509 73.6021 115.55 73.7777C115.631 74.0104 115.393 74.3898 115.125 74.3291L115.14 74.3696ZM172.384 101.917C174.043 104.158 175.723 106.383 177.336 108.654C178.146 109.787 178.854 111.001 179.572 112.195C179.779 112.534 179.668 112.736 179.284 112.782C174.909 113.374 170.582 114.274 166.335 115.478C162.354 116.53 158.393 117.678 154.443 118.862C154.128 118.993 153.778 119.015 153.449 118.923C153.121 118.831 152.833 118.632 152.632 118.356C149.897 115.429 147.145 112.514 144.377 109.61C142.859 108.012 141.296 106.449 139.754 104.866C139.511 104.613 139.248 104.36 139.02 104.117C138.484 103.551 138.55 103.343 139.369 103.136C139.932 102.994 140.499 102.863 141.069 102.741C146.226 101.572 151.47 100.829 156.749 100.521C158.373 100.445 159.992 100.339 161.62 100.248C164.699 100.317 167.772 100.552 170.826 100.951C171.141 100.986 171.445 101.091 171.714 101.258C171.983 101.426 172.212 101.65 172.384 101.917ZM151.327 119.56C151.246 119.681 151.205 119.813 151.119 119.853C150.806 120 150.487 120.132 150.158 120.248C143.195 122.675 136.39 125.535 129.784 128.811C128.013 129.687 126.273 130.612 124.513 131.513C124.204 131.674 123.901 131.846 123.587 132.018C123.459 132.088 123.313 132.115 123.168 132.094C123.024 132.073 122.891 132.005 122.788 131.902C122.535 131.659 122.282 131.396 122.06 131.148C117.416 126.186 112.722 121.27 107.765 116.611C107.644 116.49 107.522 116.363 107.411 116.232C107.366 116.194 107.332 116.147 107.311 116.093C107.29 116.038 107.283 115.98 107.29 115.922C107.298 115.865 107.32 115.81 107.354 115.763C107.389 115.717 107.434 115.679 107.487 115.655C107.781 115.468 108.089 115.311 108.398 115.149C116.793 110.644 125.642 107.039 134.796 104.395C135.019 104.33 135.242 104.249 135.459 104.178C135.731 104.074 136.028 104.057 136.309 104.131C136.59 104.204 136.841 104.364 137.027 104.588C138.236 105.847 139.501 107.051 140.699 108.31C144.068 111.851 147.412 115.392 150.765 118.933C150.947 119.12 151.14 119.347 151.307 119.56H151.327ZM124.417 90.819C124.441 90.7701 124.475 90.7273 124.518 90.694C124.561 90.6606 124.612 90.6376 124.665 90.6268C126.051 90.4902 127.437 90.3385 128.828 90.2525C132.369 90.0299 135.909 89.8377 139.45 89.6354C144.343 89.5236 149.223 90.172 153.917 91.5575C157.624 92.7108 161.221 94.2232 164.852 95.6041C166.091 96.1188 167.233 96.8388 168.231 97.7336C168.692 98.1181 169.365 98.3456 169.471 99.069C168.899 99.0184 168.333 98.978 167.761 98.9173C164.585 98.5474 161.384 98.4425 158.191 98.6037C156.102 98.7352 154.018 98.9223 151.939 99.1095C147.486 99.5402 143.074 100.327 138.747 101.462C137.341 101.831 136.415 101.639 135.388 100.592C133.436 98.6036 131.342 96.7271 129.273 94.8858C127.882 93.6567 126.375 92.554 124.918 91.4007C124.774 91.306 124.637 91.2012 124.508 91.0871C124.471 91.053 124.442 91.0114 124.423 90.9652C124.404 90.9189 124.395 90.8691 124.397 90.819H124.417ZM92.9598 101.158C96.8192 99.2764 100.674 97.3694 104.594 95.5636C108.938 93.592 113.534 92.2303 118.251 91.517C119.055 91.3906 119.854 91.2439 120.694 91.1022C121.026 91.1645 121.35 91.2629 121.66 91.3957C122.483 91.8207 123.277 92.2988 124.038 92.8271C127.08 95.1642 129.979 97.6827 132.718 100.369C133.269 100.875 133.805 101.416 134.341 101.952C134.69 102.306 134.63 102.534 134.154 102.681C132.439 103.227 130.715 103.743 129.005 104.309C121.52 106.844 114.257 109.99 107.29 113.718C105.439 114.694 105.949 114.8 104.376 113.384C100.981 110.205 97.3802 107.253 93.5973 104.547C93.3494 104.391 93.1095 104.222 92.8788 104.041C92.1909 103.475 91.2601 103.227 90.729 102.443C91.4524 102.008 92.1606 101.563 92.9395 101.158H92.9598ZM60.9259 121.897C69.0135 115.533 77.5429 109.752 86.4498 104.598C87.0062 104.279 87.6081 104.031 88.1241 103.662C88.8373 103.156 89.3634 103.217 90.0918 103.758C94.6198 107.12 98.9689 110.716 103.122 114.532C103.373 114.742 103.636 114.936 103.911 115.114C103.784 115.402 103.769 115.534 103.698 115.584C103.365 115.812 103.016 116.024 102.687 116.232C92.5524 122.057 82.9172 128.711 73.88 136.126C73.6574 136.308 73.425 136.485 73.1973 136.667C73.0851 136.76 72.9407 136.804 72.7957 136.791C72.6508 136.778 72.5168 136.708 72.4233 136.596L72.0439 136.237L61.103 126.191C60.9666 126.083 60.8383 125.964 60.7187 125.837C60.0915 125.104 59.0544 124.785 58.6497 123.814C59.4034 123.187 60.1318 122.519 60.9057 121.912L60.9259 121.897ZM46.5253 163.941C46.1965 164.371 46.0194 164.376 45.7058 164.017C45.4731 163.754 45.2454 163.511 45.033 163.213C41.3961 158.529 37.744 153.86 34.1375 149.151C32.8679 147.492 32.868 147.922 34.2894 146.354C37.5666 142.653 41.029 139.121 44.6637 135.772C48.3765 132.423 52.1852 129.196 55.9536 125.903C56.2639 125.638 56.5883 125.39 56.925 125.159C57.0563 125.104 57.1937 125.065 57.3345 125.043C57.5116 125.19 57.7392 125.362 57.9465 125.549C61.0725 128.422 64.197 131.288 67.3196 134.148C68.4729 135.21 69.6178 136.284 70.7542 137.37C71.4724 138.058 71.4573 138.068 70.7542 138.69C68.832 140.38 66.8947 142.049 65.0029 143.748C59.2141 148.968 53.846 154.635 48.9482 160.699C48.0933 161.806 47.3194 162.894 46.505 163.956L46.5253 163.941ZM88.6754 156.465C88.4807 156.677 88.2692 156.873 88.0431 157.052C79.7509 164.194 71.7675 171.66 64.0925 179.45C63.1163 180.461 62.1855 181.473 61.2295 182.485C60.9766 182.753 60.7236 182.758 60.5061 182.485C59.6967 181.473 58.8925 180.502 58.0933 179.505C54.8155 175.422 51.5412 171.338 48.2702 167.254C48.0015 166.951 47.7579 166.626 47.5418 166.283C47.4968 166.182 47.4734 166.072 47.4734 165.962C47.4734 165.851 47.4968 165.742 47.5418 165.641C47.7727 165.237 48.0314 164.85 48.3159 164.482C52.2526 159.216 56.6138 154.281 61.3559 149.727C64.6185 146.576 68.0126 143.571 71.3561 140.506C71.7 140.193 72.0794 139.919 72.4435 139.636C72.5424 139.575 72.6476 139.524 72.7572 139.484C72.8656 139.526 72.9678 139.582 73.0608 139.651C73.2375 139.797 73.4063 139.953 73.5666 140.117C78.6248 145.077 83.5397 150.193 88.3113 155.463C88.4782 155.625 88.6198 155.811 88.7312 156.015C88.7573 156.093 88.7639 156.176 88.7507 156.257C88.7375 156.338 88.7048 156.414 88.6553 156.48L88.6754 156.465ZM89.7732 154.477C88.4277 153.025 87.1277 151.533 85.7266 150.112C82.2921 146.571 78.822 143.03 75.3622 139.489C75.0384 139.156 74.7097 138.827 74.4214 138.478C74.3815 138.408 74.3604 138.328 74.3604 138.248C74.3604 138.167 74.3815 138.088 74.4214 138.017C74.7381 137.684 75.0761 137.372 75.433 137.082C81.3811 132.229 87.5938 127.71 94.0423 123.546C97.1278 121.568 100.284 119.712 103.41 117.805C103.81 117.562 104.235 117.365 104.629 117.122C104.837 116.959 105.101 116.884 105.364 116.914C105.627 116.943 105.868 117.074 106.035 117.279C107.047 118.26 108.059 119.191 109.045 120.192C112.973 124.239 116.895 128.285 120.81 132.332C120.99 132.534 121.159 132.745 121.316 132.964C121.205 133.136 121.164 133.263 121.078 133.313C120.482 133.672 119.87 134.006 119.268 134.36C110.187 139.692 101.547 145.74 93.4303 152.449C92.5755 153.152 91.7307 153.865 90.8708 154.558C90.3751 155.038 90.2537 155.033 89.7529 154.492L89.7732 154.477ZM136.081 150.43C135.846 150.6 135.595 150.747 135.333 150.87C124.97 156.624 115.08 163.192 105.757 170.512C105.438 170.76 105.11 171.017 104.781 171.24C104.654 171.308 104.52 171.36 104.381 171.397C104.213 171.276 104.057 171.139 103.916 170.987C102.631 169.419 101.387 167.811 100.062 166.263C97.5729 163.349 95.0489 160.461 92.535 157.568C91.4727 156.343 91.4879 156.399 92.6513 155.423C101.568 147.878 111.141 141.144 121.256 135.301C122.95 134.34 122.596 134.234 123.941 135.711C127.922 140.101 131.817 144.563 135.575 149.156C135.801 149.418 136.004 149.699 136.183 149.995C136.209 150.077 136.211 150.165 136.19 150.248C136.168 150.331 136.124 150.407 136.061 150.466L136.081 150.43ZM165.576 136.864C164.291 137.407 163.005 137.943 161.717 138.473C154.094 141.614 146.587 144.993 139.263 148.792C139.056 148.898 138.853 149.004 138.641 149.1C138.064 149.368 137.973 149.363 137.599 148.923C137.032 148.26 136.501 147.573 135.935 146.9C132.481 142.897 129.025 138.899 125.565 134.907C125.302 134.603 125.019 134.31 124.761 133.996C124.503 133.683 124.599 133.49 124.913 133.288C125.158 133.132 125.411 132.988 125.671 132.858C134.025 128.412 142.717 124.633 151.666 121.558C151.883 121.482 152.116 121.437 152.328 121.34C152.488 121.267 152.667 121.253 152.836 121.3C153.005 121.348 153.151 121.453 153.249 121.598C153.487 121.851 153.755 122.104 153.967 122.357L165.252 135.397C165.48 135.66 165.687 135.944 165.89 136.227C165.935 136.342 165.962 136.463 165.97 136.586C165.845 136.707 165.706 136.812 165.556 136.9L165.576 136.864ZM188.763 129.024C188.662 129.08 188.553 129.117 188.439 129.135C183.255 130.228 178.297 132.049 173.335 133.86C171.818 134.416 170.3 135.018 168.783 135.59C168.014 135.878 167.948 135.868 167.448 135.266C165.996 133.526 164.579 131.755 163.097 130.046C160.619 127.198 158.1 124.386 155.601 121.558C154.766 120.612 154.787 120.546 156.046 120.142C161.696 118.366 167.422 116.869 173.204 115.589C175.298 115.124 177.407 114.729 179.516 114.32C180.741 114.082 180.761 114.092 181.413 115.255C182.668 117.481 183.887 119.727 185.151 121.947C186.33 124.016 187.539 126.065 188.732 128.124C188.834 128.314 188.925 128.51 189.006 128.71C188.936 128.839 188.847 128.957 188.743 129.059L188.763 129.024Z" fill="black"/>
<path d="M160.244 54.4652C160.012 55.6337 159.739 57.1208 159.41 58.5877C158.651 61.8705 157.892 65.1634 157.063 68.4108C156.724 69.7563 156.258 71.0765 155.834 72.4017C155.748 72.6749 155.616 72.9314 155.444 73.1605C155.385 73.2194 155.313 73.2638 155.234 73.2901C155.155 73.3165 155.071 73.324 154.989 73.3122C154.852 73.2869 154.645 73.1301 154.63 73.0088C154.576 72.6737 154.576 72.3322 154.63 71.9971C154.883 70.5656 155.136 69.1341 155.459 67.7228C156.395 63.8331 157.382 59.9534 158.348 56.0889C158.368 56.0352 158.382 55.9791 158.388 55.922C158.388 55.7551 158.388 55.5477 158.322 55.4162C158.257 55.2846 158.024 55.3504 157.882 55.3807C157.716 55.432 157.555 55.4998 157.402 55.5831C150.9 58.3853 144.397 61.1825 137.892 63.9747C135.813 64.8649 133.714 65.7148 131.615 66.5595C130.927 66.8377 130.517 66.7517 130.421 66.3673C130.295 65.8614 130.689 65.6338 131.038 65.4416C131.903 64.9762 132.763 64.4806 133.668 64.0961C138.479 62.0728 143.314 60.09 148.12 58.0262C151.271 56.6909 154.387 55.2695 157.523 53.8936C158.11 53.6357 158.692 53.3878 159.294 53.1703C159.896 52.9528 160.305 53.317 160.305 53.9695C160.245 54.015 160.244 54.0909 160.244 54.4652Z" fill="black"/>
<path d="M172.723 87.5969C172.46 87.3845 172.182 87.2581 172.06 87.0355C171.944 86.7038 171.846 86.3661 171.767 86.0238C171.693 85.8092 171.572 85.6136 171.414 85.451C171.256 85.2884 171.063 85.1627 170.851 85.083C170.638 85.0033 170.41 84.9715 170.184 84.9898C169.958 85.0082 169.738 85.0763 169.541 85.1892C169.147 85.3966 168.808 85.695 168.419 85.9378C168.3 86.0158 168.159 86.0527 168.017 86.0426C167.875 86.0326 167.741 85.9762 167.634 85.8822C167.505 85.766 167.418 85.6099 167.386 85.4387C167.355 85.2674 167.382 85.0907 167.462 84.9363C167.67 84.5266 167.918 84.1422 168.13 83.7375C168.322 83.409 168.407 83.0286 168.373 82.6495C168.338 82.2704 168.186 81.9115 167.938 81.6231C167.646 81.2662 167.332 80.9283 166.997 80.6115C166.738 80.3911 166.493 80.1546 166.264 79.9034C166.157 79.7651 166.099 79.5951 166.099 79.4203C166.099 79.2454 166.157 79.0755 166.264 78.9372C166.361 78.7972 166.505 78.6966 166.671 78.6539C166.836 78.6112 167.011 78.6292 167.164 78.7046C167.412 78.8361 167.639 79.003 167.877 79.1598C168.173 79.3845 168.546 79.4845 168.914 79.4382C169.283 79.3918 169.619 79.2029 169.85 78.9119C170.487 78.2645 171.125 77.6069 171.747 76.9442C172.101 76.5699 172.43 76.0844 172.996 76.221C173.674 76.3929 173.689 77.0505 173.755 77.6272C173.8 78.0318 173.821 78.4415 173.876 78.8411C173.883 79.221 174.029 79.5854 174.286 79.865C174.543 80.1447 174.894 80.3203 175.272 80.3586C175.717 80.4243 176.157 80.4749 176.603 80.5255C176.881 80.5158 177.16 80.543 177.432 80.6064C177.684 80.7052 177.89 80.8947 178.009 81.1376C178.056 81.3061 178.039 81.486 177.963 81.6434C177.887 81.8008 177.755 81.9249 177.594 81.9924C177.301 82.1594 176.972 82.2453 176.669 82.392C176.258 82.5771 175.858 82.7848 175.47 83.0141C174.955 83.3296 174.515 83.7547 174.183 84.2591C173.851 84.7636 173.634 85.335 173.547 85.9328C173.521 86.2761 173.457 86.6153 173.355 86.9444C173.239 87.2024 172.971 87.3542 172.723 87.5969ZM172.126 79.1699C172.055 79.2255 171.929 79.2761 171.919 79.3419C171.871 79.5951 171.76 79.832 171.595 80.0302C171.43 80.2284 171.218 80.3815 170.978 80.475C170.629 80.652 170.275 80.8189 169.921 80.9808C169.816 81.0115 169.727 81.0806 169.67 81.1744C169.614 81.2681 169.595 81.3796 169.617 81.4866C169.728 82.0481 169.668 82.7562 169.977 83.1355C170.285 83.5149 170.963 83.5301 171.469 83.7274C171.676 83.8032 171.863 83.9904 172.07 84.0207C172.273 84.0268 172.471 83.9585 172.627 83.8285C172.768 83.6508 172.897 83.4632 173.011 83.2671C173.366 82.827 173.962 82.4426 174.053 81.957C174.154 81.3905 173.269 81.2691 173.042 80.7582C172.814 80.2473 172.617 79.8224 172.394 79.3621C172.329 79.3065 172.217 79.2458 172.126 79.1699Z" fill="#1D4ED8"/>
<path d="M160.078 50.5446C159.921 50.7217 159.809 50.9594 159.627 51.0505C158.907 51.4268 158.168 51.7645 157.412 52.0621C155.227 52.8461 153.021 53.5796 150.836 54.3535C144.871 56.4611 138.91 58.5788 132.955 60.7066C132.08 61.0203 131.19 61.2883 130.305 61.5716C130.087 61.6509 129.864 61.7151 129.637 61.7638C129.469 61.8151 129.288 61.8009 129.13 61.7239C128.973 61.6469 128.85 61.5129 128.787 61.349C128.749 61.1777 128.774 60.9984 128.858 60.8442C128.942 60.6899 129.078 60.571 129.243 60.5094C129.606 60.3209 129.979 60.152 130.36 60.0035C131.504 59.5736 132.642 59.1386 133.79 58.7339C141.62 55.9789 149.452 53.2289 157.285 50.4839C157.89 50.2824 158.504 50.1136 159.127 49.9781C159.353 49.9439 159.584 49.9792 159.789 50.0793C159.906 50.14 159.961 50.3474 160.078 50.5446Z" fill="black"/>
<path d="M148.044 69.4375C148.072 69.9487 147.954 70.4574 147.706 70.9049C147.457 71.3523 147.087 71.7204 146.638 71.9666C146.223 72.2353 145.744 72.3899 145.25 72.4147C144.757 72.4396 144.265 72.3339 143.825 72.1082C143.329 71.8546 142.949 71.4216 142.761 70.8972C142.573 70.3729 142.592 69.7966 142.814 69.2857C143.204 68.3661 143.926 67.6275 144.837 67.2169C146.031 66.6453 147.558 67.485 147.958 68.8608C147.998 69.0511 148.027 69.2437 148.044 69.4375ZM145.429 68.6686C145.254 68.7172 145.091 68.7997 144.948 68.9114C144.72 69.1646 144.529 69.449 144.382 69.7561C144.28 69.9451 144.254 70.1661 144.311 70.3732C144.38 70.531 144.501 70.6606 144.653 70.7406C144.806 70.8205 144.981 70.8462 145.151 70.8133C145.377 70.7866 145.595 70.7091 145.788 70.5865C145.98 70.4639 146.143 70.2994 146.263 70.1052C146.329 69.958 146.359 69.7971 146.35 69.636C146.341 69.475 146.294 69.3184 146.212 69.1793C146.131 69.0402 146.017 68.9227 145.881 68.8365C145.744 68.7503 145.589 68.6979 145.429 68.6838V68.6686Z" fill="black"/>
<path d="M63.3945 59.7761C62.2647 59.8552 61.1433 59.5327 60.2281 58.8656C60.0418 58.7301 59.8851 58.558 59.7677 58.3597C59.7304 58.2807 59.7109 58.1943 59.7109 58.1068C59.7109 58.0194 59.7304 57.933 59.7677 57.8539C59.8103 57.7829 59.8685 57.7224 59.9377 57.6768C60.0068 57.6313 60.0853 57.6019 60.1674 57.5909C60.6254 57.6149 61.0805 57.6775 61.528 57.778C63.1669 58.1827 64.7298 58.1524 66.1664 57.1306C66.4047 56.9689 66.6792 56.8681 66.9656 56.8372C67.0756 56.8328 67.1853 56.8528 67.2867 56.8956C67.3881 56.9385 67.4789 57.0031 67.5524 57.085C67.6138 57.1789 67.6538 57.2851 67.6695 57.3961C67.6852 57.5071 67.6765 57.6203 67.6436 57.7275C67.4921 58.0359 67.2785 58.3097 67.0162 58.5318C66.0048 59.3808 64.7141 59.8241 63.3945 59.7761Z" fill="black"/>
<path d="M128.185 25.9419C124.813 25.9784 121.482 25.2084 118.468 23.6961C117.557 23.1934 116.687 22.6183 115.868 21.9763C115.645 21.7988 115.471 21.5671 115.362 21.3035C115.338 21.2002 115.333 21.0929 115.35 20.9879C115.366 20.8829 115.403 20.7822 115.459 20.6915C115.515 20.6312 115.586 20.5859 115.665 20.5594C115.743 20.533 115.827 20.5262 115.909 20.5397C116.237 20.65 116.546 20.8104 116.824 21.0152C117.082 21.2016 117.378 21.3268 117.691 21.3812C118.004 21.4355 118.325 21.4176 118.63 21.3288C122.234 20.6526 125.95 20.8873 129.44 22.0117C130.105 22.2091 130.755 22.4577 131.382 22.7552C132.262 23.1801 133.076 23.7669 134.154 23.5039C134.227 23.4921 134.301 23.4963 134.372 23.5163C134.443 23.5364 134.509 23.5718 134.565 23.62C134.621 23.6682 134.666 23.7281 134.696 23.7954C134.726 23.8627 134.742 23.9359 134.741 24.0097C134.748 24.148 134.726 24.2863 134.677 24.4159C134.628 24.5456 134.554 24.6638 134.457 24.7634C134.063 24.9969 133.634 25.1676 133.188 25.2692C131.561 25.7339 129.876 25.9605 128.185 25.9419Z" fill="black"/>
<path d="M49.5801 48.8203C49.5791 48.991 49.5568 49.1609 49.5141 49.3261C49.4476 49.546 49.4452 49.7804 49.507 50.0016C49.5688 50.2229 49.6922 50.4219 49.8631 50.5755C50.1157 50.8219 50.263 51.1566 50.2744 51.5092C50.2857 51.8619 50.1601 52.2052 49.9239 52.4673C49.4434 53.0743 48.9123 53.1755 48.0777 52.7658C47.7185 52.5887 47.3998 52.2599 47.0053 52.6646C46.6107 53.0692 47.0459 53.307 47.1268 53.6155C47.2077 53.9241 47.334 54.1669 47.3745 54.4451C47.3934 54.767 47.299 55.0853 47.1078 55.345C46.9165 55.6046 46.6406 55.7891 46.3275 55.8665C46.0707 55.9273 45.8007 55.8958 45.5649 55.7774C45.329 55.659 45.1424 55.4613 45.0378 55.219C44.8557 54.8548 44.7747 54.4451 44.5875 54.086C44.5307 54.0261 44.4613 53.9796 44.3843 53.9498C44.3073 53.9201 44.2248 53.9079 44.1425 53.914C43.9958 53.914 43.7629 54.0354 43.7275 54.1517C43.6416 54.4198 43.6771 54.7233 43.6164 55.0015C43.562 55.2826 43.4609 55.5527 43.3178 55.8007C43.2244 55.9496 43.0923 56.0702 42.9355 56.1496C42.7786 56.2289 42.603 56.264 42.4277 56.2509C42.2258 56.2261 42.0355 56.143 41.8801 56.0118C41.7247 55.8807 41.611 55.7071 41.5526 55.5124C41.4818 55.2903 41.4527 55.0571 41.4666 54.8244C41.5197 54.5103 41.4799 54.1874 41.3523 53.8955C41.2247 53.6035 41.0147 53.355 40.7482 53.1805C40.6815 53.0951 40.6359 52.9952 40.6148 52.8889C40.5937 52.7826 40.5979 52.6729 40.6269 52.5685C40.6474 52.498 40.6821 52.4326 40.7289 52.3761C40.7757 52.3196 40.8336 52.2733 40.8991 52.2401C40.9645 52.2069 41.036 52.1875 41.1093 52.1831C41.1825 52.1787 41.2559 52.1893 41.3249 52.2144C42.1814 52.4062 43.0743 52.3572 43.9046 52.0728C44.8087 51.8424 45.6524 51.4197 46.3782 50.8335C47.1921 50.2526 47.7487 49.3786 47.931 48.3954C47.9751 48.1104 48.0427 47.8296 48.1332 47.5557C48.1762 47.465 48.2401 47.3858 48.3195 47.3244C48.3989 47.2631 48.4916 47.2213 48.5902 47.2026C48.6888 47.1838 48.7904 47.1887 48.8868 47.2166C48.9832 47.2446 49.0716 47.2949 49.1449 47.3635C49.3201 47.5594 49.4501 47.7915 49.5253 48.0433C49.6004 48.2951 49.6192 48.5604 49.5801 48.8203Z" fill="black"/>
<path d="M87.5779 25.087C87.1126 25.0515 86.6524 25.0363 86.1921 24.9756C86.0158 24.9721 85.8459 24.9086 85.7107 24.7954C85.5755 24.6823 85.483 24.5264 85.4484 24.3535C85.4176 24.1821 85.4424 24.0054 85.5188 23.849C85.5952 23.6926 85.7194 23.5645 85.8735 23.4835C86.4501 23.1041 87.0266 22.7197 87.5779 22.3049C87.8632 22.1007 88.0808 21.8156 88.2025 21.4865C88.3243 21.1574 88.3446 20.7994 88.2608 20.4586C88.2001 20.1197 88.1496 19.7758 88.0991 19.447C88.0485 19.1182 87.9876 18.8754 87.9674 18.5871C87.9118 17.9548 88.1091 17.5754 88.5239 17.4439C88.722 17.3918 88.9317 17.4062 89.1208 17.4848C89.31 17.5633 89.468 17.7019 89.5708 17.879C89.8237 18.1976 90.0363 18.5466 90.2943 18.8602C91.1238 19.8719 91.6498 20.0287 92.8789 19.5633C93.5264 19.3155 94.1284 18.9513 94.7607 18.6629C95.0185 18.5418 95.293 18.46 95.575 18.4202C95.676 18.424 95.775 18.4498 95.865 18.4957C95.955 18.5415 96.0339 18.6063 96.0964 18.6857C96.1589 18.765 96.2036 18.857 96.2271 18.9552C96.2506 19.0535 96.2526 19.1557 96.2327 19.2548C96.1265 19.5229 95.9393 19.7606 95.8331 20.0186C95.5977 20.5457 95.3982 21.0882 95.2362 21.6423C95.0035 22.5578 95.1553 23.3671 96.0557 23.9033C96.2662 24.0055 96.4421 24.1673 96.5615 24.3687C96.691 24.6139 96.7287 24.8973 96.6677 25.1678C96.5975 25.2846 96.5012 25.3833 96.3861 25.4562C96.2711 25.5291 96.1405 25.5741 96.005 25.5877C95.6036 25.5633 95.2064 25.492 94.8215 25.3752C94.486 25.279 94.1348 25.25 93.7881 25.29C93.4414 25.3301 93.1061 25.4383 92.8014 25.6085C92.4967 25.7787 92.2286 26.0075 92.0128 26.2817C91.7969 26.556 91.6376 26.8702 91.5437 27.2063C91.4881 27.3682 91.4881 27.5503 91.4375 27.7122C91.2352 28.3394 90.9316 28.6176 90.5067 28.5518C90.0818 28.4861 89.8239 28.046 89.8694 27.4744C89.8694 27.0698 89.9907 26.6702 89.9806 26.2655C89.9806 25.4612 89.6366 25.1426 88.802 25.0667C88.4024 25.0262 87.9927 25.0667 87.588 25.0667L87.5779 25.087ZM93.5416 22.6994C93.5609 22.3777 93.5609 22.0551 93.5416 21.7333C93.5113 21.5209 93.4103 21.1415 93.3445 21.1415C93.0035 21.1759 92.6653 21.2351 92.3329 21.3185C91.704 21.4095 91.062 21.3273 90.4763 21.0808C90.2335 20.9898 90.0514 21.0808 89.9705 21.3742C89.8339 21.9204 89.8238 22.4971 89.3584 22.9473C88.9942 23.2963 89.0398 23.3621 89.5456 23.5492C90.0544 23.6633 90.5155 23.9318 90.8658 24.3181C90.8956 24.3999 90.9461 24.4727 91.0122 24.5293C91.0784 24.586 91.1582 24.6245 91.2437 24.6413C91.3291 24.6581 91.4176 24.6525 91.5003 24.6252C91.583 24.5978 91.6571 24.5495 91.7156 24.485C92.1034 24.2414 92.5132 24.0348 92.9397 23.8679C93.5872 23.5897 93.5923 23.5998 93.5569 22.9372C93.5519 22.7652 93.5365 22.5982 93.5416 22.6994Z" fill="#1D4ED8"/>
<path d="M30.9763 4.61648L31.6693 4.64686C31.9904 4.67588 32.3128 4.60803 32.595 4.45205C32.8772 4.29608 33.1062 4.05915 33.2525 3.7718C33.5054 3.3115 33.7026 2.83096 33.9606 2.37572C34.0256 2.2088 34.1447 2.06834 34.2987 1.97671C34.4526 1.88508 34.6327 1.84751 34.8104 1.86989C34.9835 1.89787 35.1438 1.97836 35.2696 2.10051C35.3953 2.22266 35.4806 2.38056 35.5136 2.55274C35.6856 3.23055 35.8069 3.91341 35.9688 4.57604C36.3128 6.01764 36.7022 6.35651 38.2045 6.56896C38.5467 6.60067 38.8853 6.66331 39.2161 6.75611C39.3375 6.80498 39.444 6.88482 39.5249 6.98766C39.6058 7.0905 39.6583 7.21279 39.6773 7.34227C39.6962 7.47174 39.6809 7.60388 39.6328 7.72559C39.5847 7.84729 39.5057 7.95428 39.4034 8.03586C39.0027 8.26304 38.587 8.46249 38.159 8.63276C37.3447 9.01719 37.2131 9.24984 37.3598 10.1199C37.4003 10.3475 37.552 10.5852 37.5065 10.7876C37.4609 11.0598 37.3101 11.3033 37.0866 11.4654C36.9557 11.5064 36.8179 11.5205 36.6813 11.5066C36.5448 11.4926 36.4125 11.4511 36.2926 11.3844C36.0643 11.2071 35.8703 10.9894 35.7208 10.742C35.4627 10.4206 35.0932 10.208 34.6857 10.1462C34.2782 10.0843 33.8625 10.1779 33.5207 10.4082C33.0149 10.7117 32.6606 11.177 32.1902 11.5058C31.9557 11.654 31.6732 11.7065 31.4011 11.6525C31.2327 11.5989 31.092 11.4816 31.0089 11.3257C30.9257 11.1698 30.9068 10.9876 30.956 10.8179C30.9914 10.5346 31.1077 10.2615 31.1684 9.97821C31.5022 8.33934 31.3758 6.84717 29.828 5.81528C29.7819 5.78094 29.7381 5.74379 29.6966 5.70402C29.4892 5.48651 29.2615 5.19819 29.4385 4.94528C29.6039 4.72619 29.8398 4.57078 30.1064 4.50522C30.3939 4.47968 30.6835 4.49671 30.9661 4.55579L30.9763 4.61648ZM34.7852 8.55181C35.0382 8.60239 35.1494 8.6226 35.2607 8.65295C35.4272 8.70435 35.607 8.69066 35.7638 8.61461C35.9206 8.53856 36.0427 8.40585 36.1054 8.24327C36.3026 7.89931 36.1054 7.73742 35.8626 7.53004C35.2117 7.03913 34.7435 6.34478 34.5323 5.55731C34.416 5.10713 34.1932 5.22856 33.9302 5.4056C33.4648 5.72427 32.7719 5.9468 32.5898 6.38687C32.4077 6.82694 32.7213 7.47946 32.8225 8.04092C32.8328 8.15509 32.8515 8.26838 32.8783 8.37985C32.8993 8.49376 32.9639 8.59497 33.0583 8.66203C33.1528 8.72909 33.2696 8.75668 33.3841 8.73897C33.895 8.68332 34.4058 8.60239 34.8003 8.55181H34.7852Z" fill="#1D4ED8"/>
<path d="M100.699 3.78671C101.66 3.87776 102.034 3.66027 102.505 2.66886C102.63 2.34621 102.778 2.03341 102.95 1.7331C103.024 1.64387 103.119 1.57416 103.226 1.53014C103.333 1.48611 103.45 1.46913 103.565 1.48062C103.681 1.4921 103.791 1.53171 103.888 1.59602C103.984 1.66033 104.063 1.74735 104.118 1.84942C104.207 2.06112 104.273 2.28154 104.316 2.50702C104.422 3.01285 104.538 3.51867 104.614 4.0245C104.628 4.37114 104.759 4.7029 104.984 4.96631C105.21 5.22971 105.518 5.40938 105.858 5.47621C106.658 5.69877 106.678 6.39172 105.99 6.89248C105.899 6.9633 105.772 6.98356 105.681 7.04932C105.044 7.50962 104.948 7.81819 105.231 8.52128C105.396 8.82669 105.536 9.14461 105.651 9.47217C105.661 9.58197 105.646 9.69256 105.607 9.79585C105.569 9.89913 105.508 9.9925 105.428 10.0691C105.246 10.2022 105.019 10.2586 104.796 10.2259C104.573 10.1683 104.368 10.0552 104.199 9.89711C103.157 9.04227 102.12 8.94616 101.068 9.89711C100.937 10.0135 100.79 10.1652 100.638 10.1803C100.366 10.2297 100.085 10.1999 99.829 10.0944C99.7027 10.0169 99.6119 9.89252 99.5769 9.74849C99.5418 9.60445 99.5652 9.45243 99.6418 9.32553C99.8189 8.96133 100.057 8.62243 100.203 8.24812C100.664 7.0999 100.78 5.98705 99.7379 5.05127C99.6517 4.97448 99.5768 4.88599 99.5154 4.7883C99.4206 4.67673 99.3687 4.53508 99.3687 4.38867C99.3687 4.24227 99.4206 4.10062 99.5154 3.98905C99.6745 3.83198 99.8771 3.72627 100.097 3.68557C100.302 3.68528 100.505 3.71946 100.699 3.78671ZM102.004 6.59913C101.987 6.81967 101.987 7.04118 102.004 7.26172C102.004 7.40841 102.141 7.65122 102.232 7.65628C102.616 7.68663 103.147 7.79285 103.36 7.59052C103.511 7.43178 103.628 7.24322 103.703 7.03684C103.778 6.83046 103.809 6.61078 103.795 6.39172C103.664 5.89707 103.451 5.42833 103.162 5.00577C103.126 4.96792 103.082 4.93905 103.033 4.92148C102.984 4.90391 102.931 4.89815 102.879 4.90463C102.739 4.91293 102.602 4.95029 102.477 5.01435C102.352 5.0784 102.242 5.1677 102.154 5.27665C102.065 5.38559 102 5.51176 101.963 5.64712C101.926 5.78249 101.918 5.92409 101.938 6.06292C101.953 6.17926 101.974 6.29057 102.004 6.59913Z" fill="#1D4ED8"/>
<path d="M64.0823 9.50236C64.4619 9.58867 64.8599 9.53351 65.2017 9.34725C65.5434 9.16099 65.8055 8.85645 65.9387 8.49071C65.9955 8.32626 66.0991 8.18208 66.237 8.07596C66.4582 7.9152 66.7278 7.83485 67.0009 7.8483C67.1286 7.901 67.2436 7.98004 67.3386 8.08028C67.4336 8.18052 67.5064 8.29971 67.5522 8.43001C67.6245 8.76219 67.6567 9.10182 67.6483 9.44166C67.6736 9.78562 67.6988 10.1347 67.7342 10.4786C67.742 10.6527 67.7971 10.8213 67.8933 10.9665C67.9895 11.1118 68.1233 11.2281 68.2806 11.3031C68.5449 11.4184 68.8017 11.5501 69.0494 11.6976C69.1268 11.7617 69.1892 11.8421 69.2319 11.933C69.2747 12.0239 69.2969 12.1232 69.2969 12.2237C69.2969 12.3242 69.2747 12.4235 69.2319 12.5144C69.1892 12.6053 69.1268 12.6857 69.0494 12.7498C68.7662 12.9369 68.4274 13.038 68.1289 13.205C67.6939 13.4427 67.3701 13.7108 67.5826 14.3128C67.6335 14.4763 67.6473 14.6491 67.6231 14.8186C67.5995 14.9458 67.5438 15.0649 67.4616 15.1647C67.3793 15.2646 67.2729 15.3419 67.1526 15.3894C67.0323 15.4369 66.902 15.4532 66.7737 15.4365C66.6454 15.4198 66.5232 15.3707 66.419 15.294C66.1661 15.0664 65.9994 14.7478 65.7668 14.4948C65.6273 14.3061 65.4191 14.1797 65.1873 14.1428C64.9556 14.1059 64.7186 14.1614 64.5274 14.2976C64.1944 14.5206 63.8462 14.72 63.4854 14.8945C63.3766 14.9123 63.2652 14.9046 63.1598 14.8722C63.0545 14.8397 62.9581 14.7833 62.8783 14.7073C62.7241 14.545 62.639 14.3292 62.6407 14.1053C62.6813 13.8786 62.7729 13.6641 62.9087 13.4781C63.1618 13.0858 63.2887 12.6254 63.2725 12.1588C63.2562 11.6922 63.0976 11.2418 62.8178 10.8681C62.7221 10.7247 62.6407 10.5722 62.575 10.4129C62.5373 10.32 62.5206 10.2198 62.5266 10.1197C62.5325 10.0196 62.5608 9.92212 62.6093 9.83437C62.6578 9.74661 62.7253 9.67083 62.8069 9.61251C62.8885 9.55419 62.9821 9.5148 63.0808 9.49729C63.4145 9.48024 63.7488 9.48193 64.0823 9.50236ZM65.5998 12.6587C65.7682 12.6709 65.9372 12.6709 66.1056 12.6587C66.1896 12.6437 66.2693 12.6102 66.3388 12.5606C66.4083 12.5111 66.4658 12.4467 66.5075 12.3722C66.5491 12.2977 66.5736 12.2149 66.5793 12.1297C66.5851 12.0446 66.5718 11.9591 66.5406 11.8797C66.4436 11.6081 66.3127 11.3498 66.1511 11.1109C66.0933 11.0509 66.0242 11.003 65.9478 10.97C65.8714 10.937 65.7892 10.9196 65.706 10.9187C65.6064 10.9023 65.5045 10.9061 65.4064 10.9301C65.3084 10.954 65.2163 10.9975 65.1355 11.058C65.0547 11.1185 64.987 11.1946 64.9364 11.2819C64.8858 11.3693 64.8534 11.4659 64.8411 11.5661C64.7955 12.2743 64.9979 12.5676 65.6099 12.6384L65.5998 12.6587Z" fill="#1D4ED8"/>
<path d="M173.564 11.1554L163.393 16.5995C163.289 16.656 163.171 16.6826 163.053 16.6764C162.9 16.6782 162.75 16.6275 162.629 16.5326C162.509 16.4377 162.424 16.3043 162.39 16.1547C162.355 16.005 162.373 15.8481 162.44 15.7099C162.507 15.5718 162.62 15.4608 162.759 15.3954L172.929 9.95132C173.087 9.86639 173.271 9.84738 173.442 9.89843C173.613 9.94948 173.757 10.0664 173.842 10.2236C173.927 10.3807 173.946 10.5651 173.895 10.7362C173.844 10.9074 173.727 11.0513 173.57 11.1362L173.564 11.1554Z" fill="#1D4ED8"/>
<path d="M165.321 28.5412C165.33 28.3648 165.408 28.199 165.538 28.0792C165.667 27.9595 165.839 27.8954 166.016 27.9007L177.544 28.2786C177.721 28.2861 177.887 28.363 178.007 28.4926C178.127 28.6221 178.191 28.7938 178.185 28.9703C178.175 29.1464 178.097 29.3118 177.967 29.4313C177.837 29.5509 177.666 29.6152 177.49 29.6108L165.961 29.2329C165.785 29.2254 165.618 29.1485 165.498 29.0189C165.379 28.8894 165.315 28.7177 165.321 28.5412Z" fill="#1D4ED8"/>
<path d="M162.617 40.3389L172.413 46.4234C172.54 46.5011 172.638 46.6188 172.691 46.7579C172.744 46.8971 172.749 47.0499 172.706 47.1924C172.663 47.3349 172.573 47.459 172.452 47.5453C172.331 47.6316 172.184 47.6752 172.035 47.6692C171.922 47.6631 171.811 47.6278 171.715 47.5667L161.919 41.4821C161.841 41.4368 161.774 41.3765 161.72 41.3046C161.666 41.2328 161.627 41.1509 161.606 41.0639C161.584 40.9768 161.58 40.8863 161.594 40.7976C161.608 40.709 161.639 40.624 161.687 40.5477C161.734 40.4714 161.796 40.4053 161.869 40.3534C161.942 40.3014 162.025 40.2646 162.113 40.2452C162.2 40.2257 162.291 40.224 162.379 40.2401C162.467 40.2562 162.551 40.2898 162.627 40.3389H162.617Z" fill="#1D4ED8"/>
<path d="M156.325 14.3612C154.378 10.9065 151.723 7.90112 148.536 5.54102C145.348 3.18091 141.7 1.51912 137.827 0.663932C133.954 -0.191254 129.945 -0.22063 126.06 0.577774C122.175 1.37618 118.502 2.9844 115.28 5.29759C112.059 7.61079 109.361 10.577 107.363 14.0029C105.364 17.4287 104.11 21.2373 103.683 25.1802C103.255 29.1231 103.664 33.1119 104.881 36.8864C106.099 40.661 108.098 44.1366 110.749 47.0865L103.428 61.9456L119.091 53.4369C124.494 56.1389 130.621 57.0364 136.571 55.9975C142.522 54.9586 147.982 52.0381 152.15 47.6653C156.317 43.2925 158.972 37.6981 159.723 31.7044C160.475 25.7108 159.284 19.6341 156.325 14.3677V14.3612Z" fill="#1D4ED8"/>
<path d="M103.428 62.7047C103.554 62.7051 103.679 62.6731 103.79 62.6118L119.11 54.2856C123.317 56.3211 127.954 57.3085 132.625 57.1635C137.297 57.0185 141.864 55.7454 145.936 53.453C146.03 53.4077 146.113 53.3437 146.182 53.2649C146.25 53.1861 146.301 53.0942 146.332 52.9949C146.363 52.8955 146.374 52.7909 146.363 52.6873C146.352 52.5838 146.32 52.4835 146.269 52.3928C146.218 52.3021 146.149 52.2228 146.066 52.1598C145.983 52.0968 145.888 52.0514 145.787 52.0265C145.686 52.0016 145.581 51.9977 145.478 52.015C145.376 52.0324 145.278 52.0705 145.19 52.1272C141.276 54.333 136.881 55.5449 132.39 55.6565C127.899 55.7682 123.449 54.7762 119.43 52.7676C119.322 52.711 119.202 52.6814 119.079 52.6814C118.957 52.6814 118.837 52.711 118.729 52.7676L105.167 60.1332L111.431 47.4196C111.498 47.2834 111.524 47.1299 111.503 46.9792C111.482 46.8284 111.417 46.6873 111.315 46.5742C108.487 43.4298 106.423 39.6753 105.283 35.6029C104.142 31.5305 103.957 27.25 104.741 23.0942C104.837 22.5947 104.946 22.0951 105.061 21.6083C105.104 21.4141 105.069 21.2108 104.964 21.0418C104.859 20.8729 104.692 20.7516 104.499 20.7039C104.306 20.6563 104.102 20.686 103.931 20.7868C103.759 20.8875 103.634 21.0514 103.581 21.2432C103.457 21.7588 103.341 22.284 103.242 22.8092C101.971 29.5144 103.105 36.4529 106.444 42.4047C107.407 44.1147 108.539 45.724 109.823 47.2083L102.723 61.6191C102.652 61.764 102.63 61.9277 102.658 62.0865C102.686 62.2454 102.764 62.3912 102.88 62.5029C102.953 62.5713 103.04 62.6244 103.134 62.659C103.228 62.6937 103.328 62.7092 103.428 62.7047Z" fill="black"/>
<path d="M129.597 45.5655H129.568C129.181 45.5604 128.801 45.462 128.461 45.2786C128.12 45.0951 127.829 44.8321 127.612 44.5119L116.541 28.2084C116.364 27.9475 116.24 27.6542 116.176 27.3453C116.112 27.0364 116.109 26.7179 116.169 26.408C116.228 26.0982 116.347 25.803 116.521 25.5394C116.694 25.2758 116.917 25.0488 117.178 24.8716C117.439 24.6943 117.732 24.5702 118.041 24.5063C118.35 24.4424 118.669 24.4399 118.979 24.4991C119.289 24.5583 119.584 24.6779 119.847 24.8512C120.111 25.0244 120.338 25.2479 120.515 25.5088L129.645 38.9589L146.688 15.0626C146.869 14.8006 147.101 14.5771 147.369 14.4053C147.637 14.2335 147.937 14.1167 148.25 14.0618C148.564 14.0069 148.886 14.0149 149.196 14.0853C149.507 14.1558 149.8 14.2874 150.059 14.4723C150.319 14.6573 150.539 14.8919 150.706 15.1627C150.874 15.4334 150.986 15.7348 151.036 16.0493C151.087 16.3638 151.074 16.6851 150.999 16.9946C150.923 17.3041 150.787 17.5955 150.598 17.8519L131.554 44.5567C131.332 44.8686 131.038 45.1229 130.698 45.2984C130.358 45.4739 129.98 45.5655 129.597 45.5655Z" fill="white"/>
</svg>
