<svg width="192" height="192" viewBox="0 0 192 192" fill="none" xmlns="http://www.w3.org/2000/svg">
<g clip-path="url(#clip0_4109_22405)">
<rect width="192" height="192" fill="white"/>
<path d="M188.389 84.2304C187.184 87.9569 184.888 91.2353 181.797 93.6404C174.661 99.3724 165.031 100.328 156.204 99.7258C152.102 99.6351 148.067 98.6773 144.362 96.9155C140.657 95.1538 137.368 92.6279 134.709 89.5039C129.235 83.3707 126.111 75.6133 124.592 67.6077C122.834 58.1786 123.111 48.4342 123.445 38.9478C123.485 34.9764 123.988 31.0232 124.945 27.1686C125.443 25.3024 126.178 23.5076 127.133 21.8283C127.595 21.0111 128.125 20.2345 128.719 19.5069C129.024 19.1247 129.359 18.7617 129.674 18.4082L130.008 18.0834L129.903 17.9688C126.349 17.498 122.753 17.4371 119.185 17.7873C118.344 17.8637 118.153 16.5549 119.003 16.4785C129.579 15.5232 141.663 17.6631 148.532 26.5095C149.752 28.0762 150.74 29.8103 151.465 31.6586C152.201 33.5693 152.717 35.48 153.376 37.3142C153.959 39.195 154.914 40.9395 156.184 42.4443C157.298 43.5872 158.625 44.4994 160.092 45.1288C162.958 46.4854 166.168 47.2305 168.919 48.8832C170.217 49.6285 171.315 50.6775 172.119 51.9403C173.199 53.7268 173.342 55.7616 173.552 57.7774C173.614 59.7544 174.403 61.6391 175.769 63.0699C177.114 64.2156 178.604 65.1792 180.201 65.9358C181.819 66.7296 183.328 67.7282 184.691 68.907C186.026 70.175 187.086 71.7031 187.806 73.397C189.241 76.8333 189.447 80.6599 188.389 84.2304Z" fill="black"/>
<path d="M156.261 70.6456C156.177 70.9883 156.022 71.3098 155.806 71.5895C155.591 71.8691 155.319 72.1007 155.009 72.2696C153.667 73.2198 152.245 74.051 150.758 74.7535C144.596 77.6864 137.632 78.8996 130.887 79.597C127.391 79.96 123.866 80.1702 120.379 80.3709L115.201 80.6574C113.51 80.753 111.819 80.9154 110.119 80.9632C108.558 81.0849 106.993 80.8053 105.571 80.1511C104.301 79.2982 103.125 78.3117 102.065 77.2087C100.823 76.1578 99.304 75.4605 98.0048 74.4574C96.6733 73.3902 95.3978 72.2551 94.1835 71.0564C94.1212 70.9953 94.0696 70.9243 94.0307 70.8462C93.7841 70.4963 93.6752 70.0677 93.7249 69.6425C93.739 69.5259 93.7835 69.4152 93.8539 69.3213C93.9243 69.2273 94.0184 69.1536 94.1263 69.1075C97.1929 67.8082 100.575 67.5599 103.842 67.1395L113.004 65.9645C113.013 65.8277 113.013 65.6905 113.004 65.5537C112.958 64.8265 112.81 64.1093 112.564 63.4233C111.695 60.777 110.042 57.8442 111.838 55.1883C112.731 54.0335 113.934 53.1557 115.306 52.6567C116.94 51.9863 118.64 51.4899 120.379 51.1759C123.886 50.5262 127.488 50.5847 130.973 51.348C131.115 51.3793 131.243 51.4538 131.34 51.5614C131.437 51.6689 131.498 51.804 131.515 51.9479C131.532 52.0919 131.504 52.2375 131.434 52.3645C131.364 52.4915 131.257 52.5937 131.126 52.6567C131.355 53.2968 131.585 53.9273 131.824 54.5674C133.082 57.8698 134.507 61.1062 136.094 64.264C136.4 64.8658 136.667 65.8689 137.431 65.9835C138.26 66.0551 139.093 66.0839 139.925 66.0696C141.639 66.1549 143.348 66.327 145.045 66.5854C148.502 67.0765 151.895 67.9447 155.162 69.1744C155.783 69.4132 156.357 69.8813 156.261 70.6456Z" fill="white"/>
<path d="M137.317 48.8257C136.82 49.9701 136.057 50.979 135.091 51.7681C134.641 52.1034 134.112 52.3143 133.555 52.3797C132.998 52.4451 132.434 52.3627 131.919 52.1406C131.403 51.8827 130.964 51.2618 130.448 51.1089C129.932 50.9561 130.295 51.491 130.448 51.7203C130.802 52.1367 131.03 52.6458 131.105 53.1875C131.179 53.7291 131.097 54.2808 130.868 54.7774C130.267 55.8314 129.281 56.6119 128.117 56.9555C126.59 57.5587 125.015 58.0285 123.407 58.3598C123.131 58.5406 122.844 58.7034 122.547 58.8471C120.181 59.7699 117.654 60.2116 115.115 60.1463C112.502 60.2624 109.889 59.9163 107.396 59.1241C103.192 57.7007 99.5239 54.3475 98.5877 49.9243C98.5484 49.8065 98.5484 49.6791 98.5877 49.5613C98.3775 48.9881 98.196 48.3958 98.0431 47.8035C97.4869 45.5793 97.3863 43.2656 97.7471 41.0015C97.9188 39.9019 98.2037 38.8231 98.5973 37.7821C99.0649 36.6685 99.6108 35.5895 100.231 34.5531C100.756 33.3053 101.212 32.0296 101.597 30.7317C102.041 29.6672 102.623 28.6652 103.326 27.7511C104.314 26.4643 105.524 25.3643 106.899 24.503C106.808 24.4617 106.726 24.401 106.661 24.3251C106.595 24.2491 106.548 24.1598 106.52 24.0633C106.493 23.9669 106.487 23.8656 106.503 23.7667C106.519 23.6677 106.556 23.5733 106.612 23.4903C108.657 20.0894 112.985 19.8314 116.519 19.927C119.901 20.0225 123.292 19.7072 126.665 19.927C128.254 20.0194 129.821 20.3411 131.317 20.8823C132.861 21.3559 134.204 22.3266 135.139 23.6432C135.513 24.4147 135.734 25.2519 135.788 26.1079C135.912 27.0633 136.027 28.0186 136.132 28.9739C136.353 30.8762 136.408 32.7942 136.295 34.7059C136.158 37.6472 135.162 40.4839 133.429 42.8644L134.651 43.1797C135.461 43.2017 136.255 43.4075 136.973 43.7815C137.131 43.8491 137.257 43.9758 137.323 44.1347C137.389 44.2936 137.39 44.472 137.326 44.6318C137.484 44.8032 137.615 44.9962 137.718 45.2049C137.958 45.7942 138.047 46.434 137.977 47.0662C137.907 47.6985 137.68 48.3033 137.317 48.8257Z" fill="white"/>
<path d="M113.023 20.1372C110.029 20.818 107.333 22.4422 105.332 24.7706C103.35 26.8771 101.85 29.3907 100.938 32.1361C100.689 32.9004 101.836 33.4258 102.094 32.652C102.928 30.1239 104.286 27.7998 106.078 25.831C107.941 23.7866 110.357 21.8854 113.147 21.3982C113.94 21.2549 113.873 19.9939 113.023 20.1372Z" fill="black"/>
<path d="M114.437 58.9332C111.666 58.9332 108.8 59.0288 106.192 57.9779C104.131 57.1344 102.317 55.7837 100.919 54.0515C99.4437 52.2044 98.4173 50.0405 97.92 47.7298C97.4228 45.419 97.4681 43.0244 98.0525 40.7342C98.7358 37.9318 100.042 35.3196 101.874 33.0915C101.953 32.9627 101.984 32.8097 101.96 32.6602C101.936 32.5108 101.859 32.375 101.743 32.2777C101.627 32.1803 101.48 32.1279 101.329 32.13C101.177 32.1321 101.032 32.1886 100.919 32.2891C99.1582 34.3859 97.8645 36.8333 97.1233 39.4688C96.3821 42.1043 96.2103 44.8674 96.6195 47.5744C97.0468 49.9732 98.0297 52.2387 99.4895 54.1895C100.949 56.1404 102.846 57.7225 105.026 58.809C108.026 60.2325 111.351 60.2325 114.58 60.1752C115.363 60.1752 115.239 58.9141 114.437 58.9332Z" fill="black"/>
<path d="M108.141 32.5757C108.077 32.5224 108.004 32.4821 107.925 32.4571C107.846 32.4321 107.763 32.4228 107.681 32.4299C107.598 32.437 107.518 32.4603 107.444 32.4984C107.371 32.5365 107.306 32.5888 107.252 32.6522C107.191 32.736 107.124 32.8158 107.052 32.891L106.937 33.0056C106.774 33.1576 106.598 33.2951 106.412 33.4164C106.267 33.5109 106.113 33.5909 105.953 33.6553C105.759 33.7321 105.562 33.7991 105.361 33.8559H105.141H104.845C104.743 33.8655 104.641 33.8655 104.539 33.8559H104.319H103.995H103.861C103.798 33.8407 103.737 33.8183 103.679 33.789C103.681 33.6599 103.647 33.5328 103.579 33.4228C103.511 33.3128 103.413 33.2244 103.297 33.168C103.142 33.1029 102.968 33.1003 102.811 33.1609C102.655 33.2215 102.527 33.3405 102.457 33.4929C101.922 35.0501 104.195 35.308 105.217 35.1647C106.397 35.0073 107.472 34.4018 108.217 33.4737C108.325 33.3442 108.378 33.1772 108.364 33.009C108.349 32.8408 108.269 32.6851 108.141 32.5757Z" fill="black"/>
<path d="M108.676 26.3849C107.996 26.0087 107.225 25.8266 106.448 25.8586C105.671 25.8907 104.919 26.1355 104.272 26.5664C103.603 27.0441 104.329 28.0853 104.988 27.6077C105.528 27.2571 106.166 27.0883 106.809 27.1262C107.452 27.164 108.066 27.4064 108.561 27.8179C109.08 28.2846 109.483 28.8664 109.737 29.5168C109.99 30.1671 110.088 30.8678 110.023 31.5627C109.863 33.1565 109.257 34.673 108.274 35.9382C107.803 36.6045 107.293 37.2425 106.746 37.8488C106.44 38.1736 106.135 38.4985 105.791 38.8042L105.351 39.2149L105.246 39.3104C105.131 39.2588 105.003 39.2399 104.878 39.2559C104.753 39.2719 104.634 39.3221 104.535 39.4011C104.436 39.4801 104.361 39.5847 104.318 39.7036C104.275 39.8224 104.266 39.9508 104.291 40.0747C104.472 40.7816 105.351 40.7817 105.867 40.4473C106.548 39.9242 107.167 39.3248 107.711 38.6608C108.883 37.4238 109.85 36.0081 110.577 34.4669C111.771 31.7442 111.57 27.9612 108.676 26.3849Z" fill="black"/>
<path d="M121.964 33.2349C120.888 33.7674 119.715 34.0762 118.516 34.1425C118.068 34.1512 117.624 34.0525 117.222 33.8548C116.82 33.657 116.47 33.3659 116.204 33.0057C115.755 32.3178 114.714 33.0057 115.163 33.7222C115.516 34.2162 115.978 34.6228 116.513 34.9109C117.048 35.199 117.641 35.361 118.248 35.3844C119.688 35.3831 121.108 35.0566 122.404 34.4291C123.158 34.1234 122.719 32.9292 121.964 33.2349Z" fill="black"/>
<path d="M110.176 42.8454C110.116 42.6897 109.997 42.5636 109.845 42.494C109.694 42.4244 109.521 42.4168 109.364 42.4728C108.47 42.9265 107.493 43.1935 106.493 43.2576C105.493 43.3216 104.49 43.1814 103.546 42.8454C103.391 42.7803 103.217 42.7778 103.06 42.8383C102.903 42.8989 102.776 43.0179 102.705 43.1703C102.641 43.3238 102.638 43.4965 102.699 43.6517C102.76 43.8069 102.878 43.9324 103.03 44.0014C104.122 44.405 105.285 44.5826 106.447 44.5234C107.61 44.4643 108.748 44.1697 109.794 43.6574C109.948 43.5954 110.073 43.4772 110.144 43.3265C110.215 43.1759 110.226 43.004 110.176 42.8454Z" fill="black"/>
<path d="M126.741 29.5375C124.066 26.6142 119.872 24.7608 116.022 26.5473C115.296 26.8912 115.726 28.0854 116.462 27.7319C119.758 26.1652 123.388 27.7319 125.7 30.2636C125.8 30.3945 125.947 30.4829 126.11 30.5113C126.272 30.5396 126.44 30.5057 126.579 30.4164C126.647 30.3695 126.706 30.3095 126.751 30.2399C126.796 30.1703 126.827 30.0923 126.843 30.0107C126.858 29.929 126.856 29.8452 126.839 29.764C126.822 29.6828 126.788 29.6058 126.741 29.5375Z" fill="black"/>
<path d="M155.468 68.2954L153.939 69.0978C148.367 66.8568 142.367 65.8781 136.371 66.2318C136.228 66.2455 136.084 66.2119 135.961 66.136C135.839 66.06 135.744 65.946 135.693 65.8115L130.572 52.6853C130.54 52.6043 130.524 52.5179 130.526 52.4309C130.527 52.3439 130.546 52.258 130.58 52.1782C130.615 52.0984 130.665 52.0261 130.727 51.9656C130.79 51.9051 130.864 51.8575 130.945 51.8255C131.026 51.7935 131.112 51.7777 131.199 51.7791C131.286 51.7805 131.372 51.7991 131.452 51.8337C131.532 51.8683 131.604 51.9183 131.664 51.9808C131.725 52.0433 131.773 52.1171 131.805 52.198L136.744 64.8753C143.168 64.5122 149.587 65.6846 155.468 68.2954Z" fill="white"/>
<path d="M139.008 45.2431C138.801 44.3767 138.326 43.5978 137.65 43.0178C136.974 42.4379 136.132 42.0865 135.244 42.0141C134.28 41.9069 133.304 42.0462 132.409 42.4188C131.513 42.7914 130.727 43.3851 130.123 44.1445C129.636 44.7941 130.601 45.6062 131.078 44.9565C131.473 44.4424 131.977 44.0222 132.553 43.7265C133.13 43.4308 133.765 43.2668 134.413 43.2465C135.084 43.177 135.761 43.3251 136.342 43.6691C136.924 44.0131 137.379 44.5347 137.641 45.1571C137.843 45.8186 137.885 46.5185 137.764 47.1994C137.643 47.8802 137.362 48.5227 136.944 49.074C136.163 50.3874 134.991 51.4231 133.591 52.0355C132.911 52.2257 132.183 52.146 131.561 51.8132C130.938 51.4804 130.467 50.9201 130.247 50.249C129.989 49.4657 128.805 49.9051 129.053 50.6789C129.328 51.4742 129.844 52.1643 130.529 52.6538C131.213 53.1433 132.033 53.4079 132.874 53.4112C134.785 53.4112 136.371 51.8444 137.479 50.4687C138.114 49.771 138.582 48.9378 138.847 48.0324C139.111 47.1269 139.167 46.173 139.008 45.2431Z" fill="black"/>
<path d="M136.103 47.049C136.084 46.8843 136.002 46.7334 135.873 46.6282C135.745 46.5231 135.581 46.4719 135.416 46.4854C133.924 46.781 132.408 46.944 130.887 46.9726C130.805 46.9801 130.724 47.0039 130.65 47.0425C130.577 47.0812 130.511 47.1339 130.458 47.1978C130.405 47.2617 130.365 47.3354 130.34 47.4148C130.316 47.4941 130.307 47.5776 130.314 47.6604C130.322 47.7432 130.345 47.8238 130.384 47.8974C130.423 47.971 130.476 48.0363 130.539 48.0895C130.603 48.1427 130.677 48.1828 130.756 48.2076C130.836 48.2323 130.919 48.2412 131.002 48.2336C132.523 48.2051 134.038 48.042 135.53 47.7464C135.697 47.7249 135.848 47.6408 135.955 47.5113C136.061 47.3817 136.115 47.2164 136.103 47.049Z" fill="black"/>
<path d="M114.933 69.4035C113.863 66.0407 112.787 62.6812 111.704 59.3248C111.456 58.551 110.223 58.8471 110.472 59.6209L113.711 69.6996C113.959 70.4735 115.191 70.1773 114.933 69.4035Z" fill="black"/>
<path d="M136.113 21.3506C135.666 21.5128 135.237 21.721 134.833 21.9716C133.239 23.0219 131.888 24.3994 130.868 26.0126C130.776 26.1387 130.689 26.2694 130.61 26.4043C130.381 26.7577 130.161 27.1208 129.961 27.5029C129.588 27.3119 129.206 27.1399 128.824 26.9775L128.594 26.8819C120.875 23.7389 112.354 24.4745 104.205 24.102C104.04 24.0738 103.892 23.982 103.794 23.8462C103.696 23.7105 103.655 23.5416 103.679 23.3759C103.754 22.9223 103.925 22.49 104.18 22.1078C104.436 21.7256 104.77 21.4023 105.16 21.1595C105.962 20.5695 106.809 20.0426 107.692 19.5833C111.88 17.2329 116.634 16.0789 121.434 16.2474C126.234 16.4159 130.896 17.9004 134.909 20.5386C135.323 20.7615 135.724 21.0322 136.113 21.3506Z" fill="black"/>
<path d="M139.189 44.2593C139.137 44.3238 139.072 44.3771 138.998 44.4159C138.925 44.4548 138.844 44.4785 138.761 44.4856C138.678 44.4927 138.595 44.4831 138.516 44.4574C138.437 44.4317 138.364 44.3903 138.301 44.3358C137.426 43.474 136.297 42.916 135.081 42.744C133.865 42.572 132.626 42.7951 131.547 43.3804C131.456 43.4331 131.354 43.4628 131.25 43.467C131.146 43.4712 131.042 43.4497 130.947 43.4045C130.853 43.3592 130.771 43.2916 130.709 43.2074C130.647 43.1233 130.607 43.0253 130.591 42.9219C129.302 36.4448 131.27 30.0249 132.712 23.7197C132.707 23.6785 132.707 23.6368 132.712 23.5955C132.776 23.1905 132.872 22.7912 132.999 22.4014C132.999 22.2772 133.056 22.153 133.075 22.0384C133.11 21.8702 133.209 21.7225 133.352 21.6276C133.46 21.4456 133.592 21.2786 133.744 21.1308C134.088 20.7881 134.544 20.581 135.028 20.5476C135.513 20.5143 135.993 20.6569 136.381 20.9493C137.905 22.1934 139.037 23.8525 139.638 25.726C140.331 27.6569 140.837 29.6499 141.148 31.6777C141.874 35.948 141.902 40.6291 139.189 44.2593Z" fill="black"/>
<path d="M176.59 148.381L176.695 148.075C173.371 150.683 168.957 150.75 164.945 150.387C160.168 149.947 155.449 149.431 150.682 149.049C141.192 148.298 131.686 147.82 122.165 147.616C112.644 147.412 103.052 147.492 93.3906 147.855C84.6684 148.189 75.7744 148.896 67.1668 147.034C60.4031 145.562 51.7954 142.047 50.4675 134.309C50.4498 134.209 50.4569 134.106 50.488 134.01C50.5191 133.914 50.5734 133.826 50.6459 133.756C50.7184 133.685 50.8069 133.633 50.9041 133.605C51.0012 133.576 51.1039 133.572 51.2031 133.592C53.4481 128.338 65.6669 99.6397 68.5138 91.2328C71.9147 81.2401 78.5733 74.6579 83.6843 71.8301C86.4682 70.4551 89.4059 69.416 92.4353 68.7348L93.8683 68.3813C94.2215 68.7727 94.5945 69.1459 94.9859 69.4991C97.715 71.8012 100.923 73.4657 104.377 74.3712C114.509 77.1559 125.155 77.5192 135.454 75.4316C141.879 74.1862 148.1 72.0546 153.939 69.0978L155.468 68.2953C155.946 68.5246 156.423 68.7635 156.891 69.0214C159.454 70.3831 161.766 72.1694 163.731 74.3043C173.705 85.2047 182.733 127.965 183.048 134.595C183.268 139.391 180.851 144.54 176.59 148.381Z" fill="#2563EB"/>
<path d="M89.5979 90.0484C89.0183 87.7492 88.4291 85.4469 87.8304 83.1414C87.6202 82.3294 86.3116 82.5109 86.5217 83.3325C87.0949 85.5393 87.6584 87.7365 88.222 89.9433C85.3681 92.7843 83.2057 96.2434 81.902 100.053C80.5984 103.863 80.1884 107.922 80.7037 111.916C81.005 114.222 81.6322 116.473 82.5665 118.603C82.648 118.744 82.7782 118.851 82.9327 118.903C83.0873 118.955 83.2555 118.949 83.4057 118.885C83.5559 118.822 83.6779 118.706 83.7486 118.559C83.8192 118.412 83.8337 118.244 83.7894 118.087C82.2706 114.504 81.6152 110.614 81.8757 106.731C82.1362 102.848 83.3055 99.0808 85.2893 95.7326C86.4 93.8581 87.7666 92.1476 89.3495 90.6503C89.4417 90.582 89.5135 90.49 89.5573 90.3839C89.601 90.2779 89.6151 90.1618 89.5979 90.0484Z" fill="white"/>
<path d="M78.5258 97.2035C78.5067 97.3472 78.4414 97.4808 78.3397 97.5842C78.238 97.6875 78.1055 97.7551 77.9621 97.7766L71.2081 98.732C67.5109 99.4278 63.7632 99.8208 60.0021 99.907C58.2004 99.9116 56.4098 99.6245 54.7 99.0568C54.3251 98.9212 53.9736 98.7278 53.6586 98.4836C53.5552 98.5393 53.4386 98.566 53.3213 98.5608C53.204 98.5556 53.0904 98.5187 52.9924 98.454C52.8944 98.3893 52.8157 98.2993 52.7648 98.1935C52.7139 98.0877 52.6926 97.97 52.7032 97.8531C52.7032 97.6716 52.7032 97.4996 52.7032 97.3181C52.5895 97.0592 52.5388 96.7769 52.5554 96.4945C52.572 96.2122 52.6555 95.9378 52.7989 95.694C53.0691 92.9365 53.5449 90.203 54.2223 87.5164C54.2987 86.3987 54.3656 85.2809 54.4324 84.1632C52.3041 84.2728 50.1869 84.5411 48.0985 84.9657C43.3218 85.921 38.6695 87.3731 33.8737 88.2042C32.6605 88.4048 31.4471 88.5768 30.2243 88.6819C29.2484 88.8183 28.2565 88.786 27.2916 88.5864C26.8464 88.4936 26.4296 88.2962 26.0758 88.0105C25.7219 87.7247 25.4411 87.3589 25.2566 86.9432C24.9674 85.8965 25.0519 84.7818 25.4955 83.7906C25.5161 83.7154 25.5519 83.6451 25.6007 83.5842C25.6494 83.5233 25.71 83.4729 25.7788 83.4363C25.8477 83.3996 25.9234 83.3774 26.0011 83.371C26.0789 83.3645 26.1571 83.3741 26.2311 83.3989C26.3444 83.1765 26.4787 82.9653 26.6323 82.7684C27.5103 81.8492 28.652 81.225 29.8996 80.9819C31.6065 80.5043 33.3228 80.0362 35.0488 79.5776C34.6413 79.008 34.364 78.3557 34.2366 77.667C34.2366 77.5523 34.2081 77.4472 34.1508 77.3517C34.0935 77.1797 34.0267 77.0174 33.9789 76.8454C33.787 76.2466 33.6934 75.6207 33.7018 74.9921C33.7018 74.9061 33.7018 74.8296 33.7018 74.7437C33.6135 73.7904 33.6135 72.831 33.7018 71.8777C33.7143 71.7945 33.74 71.7138 33.7781 71.6388C33.6539 71.3236 33.5203 71.0179 33.4343 70.6835C33.1956 69.9372 33.0135 69.174 32.8897 68.4003C32.8897 68.257 32.8897 68.1041 32.8897 67.9513C32.5985 66.5492 32.5985 65.1022 32.8897 63.7001C32.9196 63.5571 32.993 63.427 33.0999 63.3275C32.6972 62.689 32.4489 61.9655 32.3743 61.2144C32.2996 60.4632 32.4008 59.705 32.67 58.9998C32.6619 58.3905 32.7898 57.7871 33.0443 57.2335C33.2988 56.6799 33.6735 56.19 34.1412 55.7995C34.2208 55.721 34.3259 55.6735 34.4375 55.6657C34.8432 55.1051 35.3005 54.5838 35.8035 54.1085C37.183 52.8457 38.9237 52.0472 40.7807 51.8253C42.6711 51.6354 44.5719 52.0645 46.1974 53.0481C47.9811 54.1176 49.8177 55.0965 51.7001 55.981C53.1511 56.6278 54.6375 57.1924 56.1521 57.6719C55.7905 56.9233 55.3754 56.2018 54.9101 55.5129C54.8267 55.3974 54.7825 55.2583 54.7837 55.1159C54.7849 54.9734 54.8313 54.8351 54.9166 54.721C55.0019 54.607 55.1216 54.5231 55.2579 54.4816C55.3941 54.4402 55.5401 54.4434 55.6744 54.4907C59.3422 55.7769 62.893 57.3749 66.288 59.2673C69.287 60.9094 72.1383 62.808 74.8097 64.942C76.1097 65.893 77.0759 67.2304 77.5705 68.7633C77.9718 70.5376 78.1736 72.3513 78.1722 74.1704C78.3824 77.9917 78.3635 81.8131 78.3826 85.6344L78.5258 97.2035Z" fill="white"/>
<path d="M54.3845 67.6838C54.331 67.7974 54.2458 67.8931 54.1389 67.9592C54.0321 68.0254 53.9084 68.0591 53.7828 68.0564C53.6738 68.0644 53.5643 68.044 53.4656 67.9971C53.3669 67.9502 53.2822 67.8783 53.2195 67.7887C53.1569 67.6991 53.1186 67.5949 53.1085 67.486C53.0984 67.3772 53.1167 67.2675 53.1617 67.1679C53.1911 67.1125 53.2167 67.055 53.2382 66.996C54.5183 64.13 52.7032 61.1493 50.5823 59.2578C49.554 58.3253 48.4337 57.4994 47.2387 56.793C46.6686 56.4062 46.0244 56.142 45.3469 56.017C44.6694 55.892 43.9732 55.909 43.3026 56.067C41.987 56.6019 40.755 57.3225 39.6439 58.2069C38.4115 59.0476 37.2078 59.9361 36.0614 60.8914C34.9102 61.7156 34.0106 62.8434 33.4629 64.1491C33.1856 65.2043 33.1856 66.3133 33.4629 67.3685C33.6826 68.4194 34.0073 69.4416 34.2844 70.4638C34.4938 71.1735 34.6471 71.8986 34.7429 72.6324C34.512 73.2798 34.3644 73.954 34.3035 74.6386C34.2019 74.648 34.0995 74.6359 34.0029 74.603C33.9062 74.5702 33.8176 74.5173 33.7428 74.4479C33.668 74.3785 33.6086 74.2941 33.5686 74.2002C33.5286 74.1063 33.5087 74.005 33.5105 73.903C33.5269 73.3948 33.4951 72.8861 33.4151 72.384C33.0521 70.0912 31.9248 67.9226 31.9534 65.5725C31.9534 62.3721 34.5423 60.3564 36.8924 58.5795C38.2394 57.5668 39.6248 56.5924 41.0673 55.7135C42.2643 54.8759 43.7211 54.4931 45.1753 54.634C46.7103 54.9458 48.1482 55.6206 49.3691 56.602C50.6212 57.4627 51.769 58.4662 52.7892 59.5922C54.6426 61.7608 55.7316 64.9324 54.3845 67.6838Z" fill="black"/>
<path d="M63.0112 82.1477C55.8366 82.7973 48.8246 84.4691 41.8125 85.969C38.2777 86.7428 34.7333 87.4879 31.1604 88.042C29.565 88.2904 27.664 88.6821 26.4698 87.2874C25.9829 86.7166 25.7393 85.9777 25.7911 85.2293C25.8429 84.481 26.186 83.7827 26.7469 83.2845C27.4526 82.747 28.2628 82.3631 29.1257 82.1572L32.1731 81.2592L38.6216 79.3486C39.4336 79.1097 38.9464 77.8773 38.1343 78.1162L32.0108 79.9217C30.1591 80.3092 28.3599 80.9153 26.6513 81.7273C25.927 82.1323 25.3357 82.7386 24.9491 83.4728C24.5625 84.207 24.3971 85.0376 24.4731 85.8639C24.5657 86.6622 24.8849 87.4174 25.3927 88.0403C25.9005 88.6632 26.5758 89.1279 27.3391 89.3795C29.1542 89.9432 31.2559 89.3795 33.071 89.0451C34.8862 88.7108 36.8924 88.3382 38.803 87.937C42.6243 87.144 46.3885 86.2556 50.1907 85.4626C54.4688 84.5265 58.7971 83.8375 63.1544 83.3992C63.2834 83.3426 63.3909 83.2461 63.4611 83.124C63.5313 83.0019 63.5606 82.8605 63.5446 82.7206C63.5285 82.5806 63.468 82.4495 63.372 82.3464C63.276 82.2433 63.1496 82.1737 63.0112 82.1477Z" fill="black"/>
<path d="M53.0184 73.5495C52.2873 75.0592 51.0154 76.239 49.4551 76.8549C47.9743 77.3516 45.9968 77.1128 45.1848 75.6129C45.0142 75.3192 44.9047 74.9939 44.8629 74.6568C44.8211 74.3197 44.8478 73.9776 44.9415 73.651C45.0352 73.3245 45.1938 73.0202 45.408 72.7565C45.6222 72.4928 45.8873 72.2751 46.1877 72.1165C46.9615 71.7534 47.4392 72.9953 46.6654 73.3488C46.4588 73.4891 46.3029 73.692 46.2203 73.9276C46.1378 74.1632 46.133 74.4191 46.2068 74.6576C46.3043 74.9503 46.4842 75.2088 46.7248 75.4019C46.9654 75.5951 47.2567 75.7148 47.5635 75.7467C48.292 75.79 49.0186 75.6352 49.6662 75.2988C50.3137 74.9624 50.858 74.4569 51.2414 73.836C52.0485 72.7815 52.5626 71.5325 52.7318 70.2154C52.8178 69.5483 52.7148 68.8704 52.4344 68.259C52.154 67.6476 51.7076 67.1272 51.146 66.7571C49.8545 65.9451 48.3531 65.5299 46.8279 65.5629C45.2593 65.5215 43.6899 65.6142 42.1371 65.8399C40.7819 65.9718 39.4911 66.4815 38.4114 67.3111C37.2177 68.3579 36.2126 69.6021 35.4402 70.9892C35.1487 71.4937 34.9056 72.0247 34.7142 72.575C34.4833 73.2224 34.3356 73.8965 34.2748 74.5812C34.1897 75.2872 34.2613 76.0033 34.4842 76.6786C34.7071 77.3539 35.0759 77.9718 35.5645 78.4885C35.6404 78.5383 35.7051 78.6033 35.7546 78.6793C35.8042 78.7553 35.8376 78.8407 35.8526 78.9302C35.8676 79.0197 35.8639 79.1113 35.8419 79.1993C35.8198 79.2873 35.7799 79.3698 35.7245 79.4417C35.6692 79.5135 35.5995 79.5732 35.52 79.6169C35.4405 79.6607 35.3529 79.6874 35.2625 79.6957C35.1722 79.704 35.0811 79.6935 34.995 79.665C34.9089 79.6364 34.8295 79.5904 34.762 79.5298C34.1194 78.8695 33.6252 78.0797 33.3122 77.2132C32.9992 76.3466 32.8747 75.4233 32.947 74.5048C32.9865 73.7612 33.1346 73.0274 33.3864 72.3266C33.6137 71.6631 33.9048 71.0232 34.2556 70.4159C34.5715 69.8675 34.9193 69.338 35.297 68.8301C36.3195 67.2444 37.7658 65.9769 39.4719 65.1712C41.1367 64.6053 42.8819 64.3118 44.6402 64.3019C47.5062 64.1299 51.4994 64.3974 53.2381 66.9481C53.4646 67.2766 53.6477 67.6331 53.7827 68.0086C53.8469 68.1804 53.9011 68.3559 53.9451 68.534C54.2555 70.2629 53.9262 72.0456 53.0184 73.5495Z" fill="black"/>
<path d="M48.729 71.9827C48.7052 71.8113 48.6168 71.6555 48.4818 71.5471C48.3468 71.4388 48.1755 71.3862 48.003 71.4L44.4874 71.5146C44.4006 71.5241 44.3164 71.5507 44.24 71.5929C44.1636 71.6352 44.0964 71.6921 44.0422 71.7606C43.988 71.829 43.9478 71.9075 43.9242 71.9916C43.9006 72.0757 43.8939 72.1636 43.9046 72.2503C43.9284 72.4217 44.0168 72.5775 44.1518 72.6858C44.2868 72.7942 44.4581 72.8468 44.6306 72.833L48.1462 72.7184C48.3205 72.6968 48.4794 72.6075 48.5884 72.4699C48.6974 72.3323 48.7479 72.1573 48.729 71.9827Z" fill="black"/>
<path d="M45.3376 71.6105C45.284 71.5386 45.2166 71.478 45.1394 71.4323C45.0622 71.3866 44.9768 71.3566 44.8879 71.3442C44.7991 71.3318 44.7086 71.3371 44.6218 71.3598C44.535 71.3826 44.4536 71.4223 44.3823 71.4767C43.0106 72.5462 41.9569 73.9699 41.3348 75.5943C41.2682 75.7552 41.2679 75.9359 41.3341 76.0971C41.4004 76.2582 41.5276 76.3865 41.6882 76.454C41.7671 76.4886 41.8523 76.5071 41.9385 76.5085C42.0246 76.5099 42.1101 76.4942 42.1901 76.4622C42.2701 76.4302 42.343 76.3825 42.4045 76.3221C42.4659 76.2616 42.5148 76.1896 42.5481 76.1101C43.0877 74.7077 43.9912 73.4744 45.1657 72.5372C45.3089 72.4351 45.4068 72.2814 45.4388 72.1086C45.4709 71.9357 45.4347 71.7571 45.3376 71.6105Z" fill="black"/>
<path d="M46.2832 64.6937C46.1923 64.4232 46.0479 64.1737 45.8587 63.9601C45.6696 63.7464 45.4394 63.573 45.1819 63.45C44.9244 63.327 44.6448 63.2571 44.3597 63.2442C44.0747 63.2314 43.79 63.276 43.5224 63.3753C43.092 63.5811 42.6955 63.8518 42.3472 64.1778L42.1083 64.3689L41.9556 64.474L41.8315 64.5313C41.2678 64.5313 40.8762 64.7605 40.8762 65.1236C40.8542 65.2968 40.9007 65.4717 41.0061 65.6109C41.1114 65.7501 41.267 65.8426 41.4396 65.8687C41.9361 65.921 42.434 65.7846 42.8344 65.4866C43.1783 65.2478 43.4649 64.9516 43.7897 64.7223L43.8949 64.6555L44.0668 64.579H44.2389H44.4108L44.6018 64.6459C44.6018 64.6459 44.7834 64.7605 44.6497 64.6459C44.707 64.6459 44.8598 64.7605 44.8789 64.8274C44.8121 64.751 44.898 64.8943 44.8789 64.8274C44.9278 64.8813 44.9724 64.9388 45.0126 64.9994C45.0126 65.0854 45.07 65.1426 45.0891 65.2095C45.155 65.3696 45.2804 65.4979 45.4389 65.5674C45.5975 65.6369 45.7768 65.6421 45.9392 65.5821C46.1001 65.507 46.2259 65.3727 46.29 65.2071C46.3541 65.0415 46.3517 64.8575 46.2832 64.6937Z" fill="black"/>
<path d="M53.1043 59.468C53.1086 59.6079 53.0861 59.7474 53.0376 59.8788C52.5695 60.9296 51.6905 60.3851 51.5568 59.468C51.4058 58.39 51.0176 57.3589 50.42 56.4491C49.9297 55.699 49.3234 55.0315 48.6238 54.4716C48.25 54.1613 47.8505 53.8833 47.4297 53.6404C46.1665 52.9075 44.757 52.4631 43.3019 52.3392C41.8467 52.2154 40.382 52.415 39.0132 52.924C35.66 54.2136 31.8579 58.2452 33.6635 62.0951C34.0265 62.869 32.7941 63.3371 32.431 62.5728C32.0042 61.5013 31.8505 60.3404 31.9839 59.1947C32.1173 58.049 32.5337 56.9545 33.1954 56.0097C34.3725 54.2062 36.0485 52.7837 38.0193 51.9153C39.9902 51.0469 42.1708 50.77 44.2962 51.1184C44.6409 51.1755 44.9823 51.2521 45.3184 51.3477C46.6951 51.7163 47.9911 52.3383 49.1397 53.1819C49.5412 53.4726 49.9211 53.7918 50.2765 54.1372C50.4771 54.3379 50.6683 54.548 50.8498 54.7582C51.3245 55.3496 51.7344 55.9901 52.0727 56.6688C52.5906 57.5282 52.9405 58.4781 53.1043 59.468Z" fill="black"/>
<path d="M113.281 66.5567C107.135 67.2195 101.029 68.2016 94.9861 69.4991C94.5946 69.1459 94.2216 68.7728 93.8684 68.3813C100.234 66.9753 106.673 65.9291 113.156 65.2479L113.281 66.5567Z" fill="black"/>
<path d="M84.7215 57.9966C83.7554 60.4518 82.3613 62.716 80.6039 64.6839L80.4703 64.8272C80.413 64.8847 80.3448 64.9302 80.2697 64.961C79.7538 66.0787 79.3144 67.2251 78.7985 68.3237C78.5194 68.9456 78.0237 69.4447 77.4037 69.7281C76.7626 69.9465 76.0994 70.0938 75.4261 70.1675C74.0027 70.4064 72.5602 70.6834 71.1558 70.884C68.5669 71.2471 65.7296 71.4094 63.3031 70.2344C62.064 69.5965 60.9606 68.7236 60.0548 67.6645C59.0995 66.6328 58.1443 65.5628 57.3323 64.4451C56.4741 63.3396 55.7909 62.1088 55.3068 60.7957C54.8196 59.4009 54.5331 57.9298 53.9121 56.5923C53.8851 56.5148 53.8658 56.4348 53.8547 56.3535C53.6552 56.1205 53.4381 55.9034 53.2052 55.7039C52.5714 55.1196 51.774 54.7432 50.9202 54.6254C50.0663 54.5075 49.1968 54.6539 48.4285 55.0447C47.7884 55.4173 47.3203 54.5288 47.6929 54.0225C47.4534 54.0373 47.2155 53.9759 47.013 53.8472C46.8105 53.7185 46.6539 53.5291 46.5657 53.306C46.509 53.1584 46.509 52.995 46.5657 52.8474C46.4415 52.4175 46.6707 51.8921 47.2248 51.9876L48.5241 52.2456C50.3084 52.1436 52.0945 52.4136 53.7689 53.0384C53.8262 52.4366 53.8739 51.8348 53.9217 51.2329C53.9384 51.1246 53.9813 51.0219 54.0464 50.9337C54.1116 50.8456 54.1969 50.7745 54.2955 50.7266C54.3941 50.6787 54.5029 50.6554 54.6125 50.6588C54.7221 50.6621 54.8293 50.6919 54.9248 50.7457C55.0349 50.6789 55.1593 50.6396 55.2877 50.6311C55.5457 50.6311 55.8036 50.6311 56.052 50.6311L57.676 50.5737L61.0484 50.4591C64.9366 50.3158 68.8247 50.1534 72.7225 50.2393C74.6331 50.2393 76.5439 50.4209 78.5118 50.5833C80.3927 50.8128 82.2979 50.7451 84.1577 50.3827C84.2727 50.3635 84.3908 50.3766 84.4987 50.4204C84.6067 50.4643 84.7003 50.5372 84.7693 50.6311C86.1736 52.8856 85.7628 55.5701 84.7215 57.9966Z" fill="white"/>
<path d="M85.8721 50.106C85.8205 49.9564 85.7389 49.8191 85.6321 49.7024C85.5253 49.5857 85.3956 49.4923 85.2512 49.4277C84.4201 49.1029 65.6001 49.0456 54.461 49.0456H54.2126L54.0311 49.1984C52.6555 50.3448 52.1872 55.6565 54.3462 60.6624C56.7441 66.1842 62.5334 70.0246 63.8422 70.6742C64.5204 71.0182 66.7082 71.1615 69.1347 71.1615C71.1351 71.1668 73.1345 71.0679 75.1247 70.8653C75.6023 70.8175 76.0801 70.7507 76.4144 70.6838C76.8796 70.6284 77.33 70.4858 77.7423 70.2634C77.8481 70.1721 77.9471 70.0731 78.0385 69.9673C78.3251 69.652 78.7262 69.1457 79.1848 68.5152C81.365 65.5677 83.283 62.435 84.9168 59.153C86.1683 56.2201 86.4931 51.6058 85.8721 50.106ZM83.7322 58.6275C82.3429 61.4321 80.7227 64.1162 78.8886 66.6523L77.8188 68.1426C77.5468 68.5186 77.25 68.8761 76.9304 69.2126C76.6935 69.3029 76.4464 69.3639 76.1947 69.3941C75.8413 69.4514 75.4017 69.5087 74.9049 69.5565C71.5708 69.8909 65.4758 70.0055 64.3963 69.4801C62.7532 68.6585 57.6039 64.9232 55.5213 60.1274C53.5437 55.5609 54.1075 51.3384 54.7094 50.3639C65.9536 50.3639 82.5953 50.4499 84.6301 50.6505C85.0409 51.5485 84.9359 55.7711 83.7322 58.6275Z" fill="black"/>
<path d="M53.5439 51.8352C52.2509 51.1502 50.8222 50.7598 49.3604 50.6921C47.8987 50.6244 46.44 50.881 45.0892 51.4436C44.948 51.525 44.8414 51.6553 44.7895 51.8098C44.7376 51.9643 44.7438 52.1325 44.8072 52.2827C44.8706 52.433 44.9866 52.5548 45.1335 52.6255C45.2804 52.6961 45.4482 52.7107 45.6051 52.6664C46.7966 52.182 48.0811 51.9693 49.3651 52.0436C50.6491 52.118 51.9004 52.4776 53.028 53.0963C53.1916 53.1592 53.3734 53.1554 53.5342 53.0858C53.6949 53.0161 53.8218 52.8861 53.8877 52.7237C53.9562 52.5599 53.9586 52.3759 53.8945 52.2103C53.8304 52.0447 53.7049 51.9103 53.5439 51.8352Z" fill="black"/>
<path d="M53.7731 55.5416C53.6632 55.6848 53.5014 55.7791 53.3227 55.8041C53.144 55.8291 52.9627 55.7829 52.8178 55.6754C52.1901 55.2988 51.5155 55.0066 50.8115 54.8061C50.0892 54.6042 49.3447 54.4919 48.595 54.4717C48.2212 54.1614 47.8217 53.8833 47.4009 53.6405C47.4322 53.5166 47.4998 53.4049 47.5952 53.3197C47.6905 53.2346 47.8092 53.18 47.9359 53.1629C48.3241 53.1389 48.7133 53.1389 49.1014 53.1629C50.6959 53.281 52.2404 53.7718 53.6105 54.5959C53.6833 54.6473 53.7453 54.7126 53.7929 54.7879C53.8405 54.8633 53.8728 54.9473 53.8878 55.0351C53.9029 55.1229 53.9005 55.2129 53.8808 55.2998C53.8611 55.3867 53.8246 55.4689 53.7731 55.5416Z" fill="black"/>
<path d="M56.9255 63.089C56.0645 63.1004 55.2053 63.0105 54.3653 62.8214C54.1936 62.8068 54.0229 62.8581 53.8876 62.9648C53.7506 63.0732 53.6614 63.2309 53.6392 63.4042C53.6228 63.5783 53.6743 63.752 53.7829 63.8891C53.8915 64.0261 54.0489 64.116 54.2221 64.1398C55.0604 64.3195 55.9154 64.4092 56.7727 64.4073C56.9425 64.4178 57.1108 64.3707 57.2504 64.2736C57.3886 64.1607 57.4805 64.0009 57.5084 63.8246C57.5248 63.6505 57.4733 63.4768 57.3647 63.3397C57.2561 63.2026 57.0987 63.1128 56.9255 63.089Z" fill="black"/>
<path d="M58.8649 65.7732C58.7954 65.6143 58.6671 65.4886 58.5067 65.4227C58.3462 65.3567 58.1664 65.3557 58.0052 65.4198C57.8962 65.4692 57.7801 65.5014 57.6612 65.5153H57.2122H56.2569C55.6455 65.5153 54.9767 65.5153 54.3462 65.5153C54.1721 65.4989 53.9984 65.5503 53.8613 65.6589C53.7243 65.7675 53.6344 65.9248 53.6106 66.0981C53.5944 66.2711 53.6462 66.4436 53.755 66.5791C53.8637 66.7146 54.021 66.8025 54.1934 66.8241C54.9482 66.8241 55.7027 66.8241 56.4575 66.8241C57.1693 66.8671 57.883 66.7731 58.5594 66.547C58.6915 66.4728 58.7941 66.3554 58.8497 66.2144C58.9054 66.0735 58.9107 65.9177 58.8649 65.7732Z" fill="black"/>
<path d="M53.3242 96.4204L52.0344 96.1338C53.1808 90.0866 53.9929 85.0711 53.7541 83.7719L55.0532 83.533C55.3207 84.9947 54.6426 89.7044 53.3242 96.4204Z" fill="black"/>
<path d="M79.5671 76.3963C79.5098 80.3036 79.2899 84.211 79.1753 88.1278C79.1084 90.8983 79.0512 93.6782 79.0225 96.4487L77.7136 96.5825C77.7136 93.398 77.7743 90.2359 77.8953 87.096C78.01 83.2747 78.2391 79.377 78.2678 75.5175C78.2866 73.6614 78.2101 71.8056 78.0385 69.9574C77.9812 69.3556 77.9048 68.7441 77.8188 68.1423L78.8887 66.652C78.9651 67.0246 79.0226 67.3971 79.0799 67.7793C79.1372 68.1614 79.1562 68.2569 79.1849 68.5053C79.5131 71.1221 79.641 73.7601 79.5671 76.3963Z" fill="black"/>
<path d="M80.293 138.99C79.8186 140.931 78.9069 142.738 77.6276 144.273C76.1571 145.855 74.3613 147.1 72.3638 147.922C70.2158 148.983 67.957 149.803 65.6286 150.368C63.2844 150.87 60.8734 150.983 58.4924 150.702C55.0914 150.33 51.6235 150.253 49.3594 147.282C47.956 145.204 47.0625 142.825 46.7513 140.337C44.984 130.621 46.9137 121.23 48.8817 111.763C49.837 107.282 50.8783 102.114 51.7477 97.433C51.8337 96.9935 51.9196 96.5637 51.9961 96.1338L53.2859 96.4203C54.3176 96.621 55.3685 96.7834 56.4194 96.9076C61.679 97.4154 66.9735 97.4506 72.2395 97.0126C74.0546 96.898 75.8667 96.7547 77.6755 96.5827L78.9841 96.449V97.7865C78.9841 98.5794 78.9841 99.3723 78.9841 100.165C78.9841 106.853 78.9841 114.256 80.3789 120.81C81.225 124.837 81.492 128.964 81.1719 133.067C81.0586 135.064 80.7645 137.046 80.293 138.99Z" fill="#2563EB"/>
<path d="M77.962 96.5348C77.5671 104.034 77.631 111.551 78.1532 119.042C78.2106 119.883 79.5384 119.94 79.4715 119.042C78.9525 111.551 78.8919 104.034 79.29 96.5348C79.2705 96.3724 79.1922 96.2228 79.0698 96.1143C78.9475 96.0057 78.7895 95.9458 78.626 95.9458C78.4625 95.9458 78.3045 96.0057 78.1822 96.1143C78.0598 96.2228 77.9815 96.3724 77.962 96.5348Z" fill="white"/>
<path d="M133.047 140.289C130.534 139.334 125.07 137.089 118.717 134.481C98.1961 125.959 79.4811 118.383 76.3954 118.316C74.4848 118.25 69.8036 121.182 68.8864 121.784L69.24 122.338L18.6076 145.715L18.1299 145.257C17.7698 145.631 17.508 146.089 17.3679 146.589C17.2279 147.089 17.2139 147.616 17.3273 148.123C17.5375 149.164 18.4165 151.142 21.9895 152.708C24.0148 153.606 35.0011 157.915 46.6274 162.491C60.5179 167.946 76.2426 174.136 79.3188 175.502C81.1508 176.325 83.1379 176.745 85.1462 176.735C89.4738 176.735 94.6996 174.958 101.779 171.203C107.788 168.032 119.242 161.555 128.442 156.358C134.346 153.024 138.998 150.387 140.574 149.556C142.151 148.725 142.877 147.817 142.82 146.757C142.734 144.741 139.801 142.821 133.047 140.289Z" fill="black"/>
<path d="M115.115 138.502C113.453 140.413 108.361 142.075 107.176 142.553C106.141 143.047 105.046 143.404 103.919 143.613C102.786 143.73 101.644 143.524 100.622 143.021C98.4825 142.066 96.4 140.986 94.2505 140.04C89.9197 138.13 85.503 136.445 81.0002 134.987C80.887 134.945 80.7877 134.872 80.7135 134.777C80.6394 134.681 80.5933 134.567 80.5804 134.447C80.5675 134.327 80.5884 134.206 80.6405 134.097C80.6927 133.988 80.7742 133.896 80.8759 133.831C80.8332 133.756 80.8075 133.674 80.8005 133.588C80.7936 133.503 80.8057 133.417 80.8358 133.336C80.8659 133.256 80.9133 133.183 80.9748 133.123C81.0362 133.064 81.1102 133.018 81.1912 132.99C84.1432 131.853 87.076 130.707 90.028 129.589C91.2682 129.044 92.6488 128.903 93.9734 129.188C95.3013 129.484 96.6198 129.828 97.9382 130.143C100.556 130.85 103.164 131.634 105.743 132.493C108.323 133.353 110.931 134.318 113.491 135.359C116.051 136.401 116.042 137.423 115.115 138.502Z" fill="white"/>
<path d="M77.7328 136.468C73.9975 135.302 69.7273 131.825 66.5747 132.312C63.4221 132.799 38.956 142.018 38.7745 143.241C38.593 144.464 82.9967 162.682 82.9967 162.682L87.7734 164.526C88.7216 164.723 89.703 164.697 90.6394 164.449C92.0246 164.01 110.577 154.008 111.886 153.138C114.207 151.6 109.288 149.604 106.059 148.075C104.387 147.292 79.08 136.974 77.6757 136.468H77.7328Z" fill="white"/>
<path d="M85.6905 166.255C84.8594 165.596 83.9041 166.952 84.7352 167.611C84.9538 167.833 85.0936 168.12 85.1333 168.429C85.173 168.738 85.1104 169.052 84.9549 169.321C84.7904 169.693 84.5321 170.015 84.2055 170.256C83.8789 170.497 83.4952 170.649 83.0921 170.697C81.9748 170.816 80.8452 170.682 79.7867 170.305C78.6116 169.962 77.4555 169.579 76.3091 169.169C71.5325 167.478 66.88 165.462 62.1893 163.551L33.6251 151.925L17.3845 145.333C16.4291 144.932 15.8272 146.499 16.8207 146.9L47.7162 159.453L63.1638 165.739C68.141 167.764 73.0992 169.952 78.2389 171.566C80.4553 172.264 83.4933 173.162 85.4613 171.395C86.9325 170.067 87.3624 167.592 85.6905 166.255Z" fill="white"/>
<path d="M144.596 129.685C144.488 132.399 144.217 135.104 143.784 137.786C143.556 140.34 143.05 142.861 142.275 145.305C142.219 145.44 142.121 145.553 141.995 145.627C141.869 145.702 141.723 145.732 141.577 145.715C139.744 145.271 137.975 144.593 136.314 143.7C134.718 142.859 133.199 141.904 131.661 140.958C129.798 140.232 127.945 139.458 126.12 138.636C124.066 137.681 122.041 136.726 120.035 135.694C119.054 135.178 118.079 134.653 117.111 134.118C116.66 133.837 116.18 133.606 115.678 133.43C115.137 133.301 114.579 133.263 114.026 133.315C111.8 133.401 109.603 133.936 107.338 133.831C106.333 133.85 105.342 133.592 104.472 133.086C104.14 132.854 103.894 132.518 103.775 132.131C102.709 132.52 101.573 132.684 100.44 132.612C99.3067 132.539 98.2011 132.232 97.1929 131.71C96.1167 132.315 94.8913 132.603 93.6582 132.541C92.6996 132.475 91.77 132.184 90.945 131.691C90.8362 131.629 90.7365 131.552 90.6488 131.462C90.1625 131.807 89.6117 132.051 89.029 132.18C88.4463 132.308 87.8437 132.317 87.2573 132.207C86.4336 132.025 85.662 131.659 85.0001 131.137C84.3382 130.614 83.8033 129.947 83.436 129.188C82.5965 127.347 82.343 125.293 82.71 123.303C82.963 121.481 83.4215 119.692 84.0763 117.973C83.9235 117.963 83.7704 117.963 83.6177 117.973C80.945 119.862 78.5467 122.113 76.491 124.66C76.3929 124.776 76.2635 124.863 76.1183 124.908C76.0705 125.023 76.0037 125.138 75.956 125.262C75.163 127.172 74.7617 129.245 73.9975 131.185C73.9019 131.424 73.7968 131.643 73.6917 131.882C73.7381 131.924 73.775 131.976 73.7997 132.034C73.8244 132.092 73.8365 132.154 73.8351 132.217C73.8931 133.197 73.6323 134.169 73.0916 134.989C72.5509 135.809 71.7592 136.431 70.8353 136.764C70.7264 136.799 70.6109 136.807 70.498 136.789C70.3851 136.771 70.2781 136.726 70.1857 136.659C69.6916 136.728 69.188 136.682 68.7145 136.525C66.2497 135.732 65.581 132.943 65.8485 130.64C66.1924 127.956 67.4536 125.367 68.5904 122.931C69.5881 120.551 71.0945 118.419 73.0039 116.683C73.5198 116.253 74.0547 115.842 74.6183 115.451C75.6524 114.491 76.8012 113.663 78.0385 112.986C78.4111 112.747 78.7836 112.508 79.1657 112.279C82.5066 110.35 86.0886 108.872 89.8178 107.884C93.7442 106.805 95.0147 107.646 99.5717 107.646C100.488 107.656 101.401 107.765 102.294 107.97C104.568 108.13 106.829 108.372 109.077 108.696C116.573 109.787 123.91 111.782 130.926 114.639C133.707 115.16 136.434 115.934 139.074 116.95C140.278 117.419 141.463 117.906 142.619 118.498C142.916 118.586 143.173 118.775 143.345 119.033C143.465 119.342 143.554 119.662 143.612 119.988C143.756 120.6 143.889 121.211 144.014 121.832C144.484 124.422 144.679 127.054 144.596 129.685Z" fill="white"/>
<path d="M97.2023 108.343C90.6149 108.138 84.0979 109.747 78.3633 112.995C74.1546 115.472 70.7612 119.125 68.5998 123.504C67.4781 125.711 66.723 128.086 66.3643 130.535C66.1086 131.887 66.265 133.285 66.8132 134.547C67.0572 135.045 67.4157 135.477 67.8591 135.809C68.3024 136.141 68.818 136.364 69.3639 136.458C71.9337 136.764 72.9465 133.315 73.5388 131.462C74.3413 128.901 75.0482 126.312 76.5862 124.087C78.5232 121.474 81.0162 119.323 83.8851 117.791C84.5156 117.418 85.1461 117.074 85.7957 116.75C85.49 117.399 85.2033 118.049 84.9358 118.718C84.3053 119.071 83.6844 119.434 83.0921 119.835C82.4316 120.247 81.7938 120.693 81.1814 121.173C78.8241 122.959 77.0167 125.373 75.9654 128.137C75.01 130.669 74.6278 133.621 73.0038 135.847C72.6689 136.35 72.2341 136.78 71.7263 137.109C71.2185 137.437 70.6484 137.658 70.0517 137.757C69.4345 137.811 68.813 137.729 68.2306 137.518C67.6482 137.307 67.119 136.971 66.6796 136.535C64.5301 134.547 64.7688 131.395 65.3133 128.777C65.8651 126.305 66.7761 123.926 68.017 121.717C70.6316 117.07 74.5825 113.316 79.3568 110.941C84.9111 108.191 91.0545 106.843 97.2501 107.015C98.129 107.043 98.0526 108.362 97.2023 108.343Z" fill="black"/>
<path d="M85.2131 167.258C84.8929 166.464 84.6591 165.637 84.5157 164.793C84.21 163.293 83.7609 161.019 81.0382 153.482C80.2071 151.189 79.185 148.142 78.1055 144.884C75.6121 137.48 72.5168 128.271 69.7464 122.042C67.2052 116.31 60.8713 113.138 60.8044 113.11C57.8715 111.658 39.0993 103.967 22.3811 97.6047C22.2664 97.5569 12.1877 94.0604 7.09579 92.6083C4.2298 91.7867 2.54844 92.6847 1.62177 93.5636C0.102799 95.054 -0.394075 97.6715 0.322423 100.394C0.494382 101.044 0.733205 101.98 1.02936 103.126C2.58654 109.231 5.80615 121.956 9.06383 131.06C9.60837 132.608 10.0765 133.974 10.4968 135.178C13.0093 142.524 13.6876 144.502 18.3496 146.508C25.6961 149.67 73.4625 168.863 77.7519 170.2C79.1568 170.663 80.6204 170.924 82.0987 170.974C82.6056 171.012 83.115 170.947 83.5961 170.783C84.0772 170.619 84.5199 170.359 84.8978 170.019C85.2116 169.638 85.4086 169.175 85.4645 168.685C85.5205 168.195 85.4331 167.699 85.2131 167.258Z" fill="black"/>
<path d="M105.982 123.523C105.818 123.477 105.643 123.496 105.493 123.576C105.343 123.655 105.23 123.79 105.177 123.952C105.124 124.113 105.135 124.289 105.208 124.442C105.282 124.596 105.412 124.715 105.571 124.774C105.928 124.944 106.225 125.217 106.424 125.558C106.623 125.898 106.716 126.291 106.689 126.685C106.685 127.591 106.383 128.471 105.829 129.188C105.253 129.926 104.532 130.538 103.711 130.987C102.889 131.435 101.985 131.711 101.052 131.796C99.3902 131.958 97.403 131.509 96.4286 130.038C95.1771 128.128 96.056 125.606 96.8393 123.724C97.8294 121.348 99.2116 119.155 100.928 117.237C101.063 117.119 101.147 116.952 101.159 116.773C101.172 116.594 101.113 116.417 100.995 116.282C100.937 116.213 100.867 116.158 100.787 116.117C100.707 116.077 100.62 116.053 100.531 116.047C100.442 116.04 100.353 116.052 100.269 116.081C100.184 116.11 100.106 116.155 100.04 116.215C98.2029 118.254 96.7177 120.585 95.6452 123.112C94.6421 125.462 93.7347 128.433 95.3301 130.755C96.5911 132.665 98.9888 133.267 101.138 133.076C102.285 132.977 103.398 132.637 104.405 132.077C105.411 131.517 106.287 130.751 106.975 129.828C108.294 127.984 108.647 124.44 105.982 123.523Z" fill="black"/>
<path d="M107.472 122.224C107.414 122.156 107.343 122.101 107.263 122.062C107.183 122.022 107.096 121.999 107.007 121.994C106.918 121.988 106.828 122.001 106.744 122.03C106.66 122.06 106.583 122.106 106.517 122.166C105.183 123.134 104.094 124.4 103.336 125.863C103.287 125.936 103.254 126.016 103.237 126.102C103.22 126.187 103.22 126.274 103.236 126.36C103.253 126.445 103.287 126.526 103.335 126.598C103.383 126.67 103.445 126.732 103.517 126.78C103.589 126.829 103.67 126.862 103.755 126.879C103.841 126.896 103.928 126.897 104.013 126.88C104.099 126.863 104.18 126.829 104.252 126.781C104.324 126.733 104.386 126.671 104.434 126.599C104.794 125.915 105.229 125.274 105.733 124.688L105.8 124.621L106.03 124.373L106.45 123.962C106.753 123.688 107.072 123.433 107.405 123.198C107.476 123.14 107.535 123.068 107.577 122.987C107.619 122.906 107.644 122.817 107.65 122.725C107.656 122.634 107.644 122.542 107.613 122.456C107.583 122.37 107.535 122.291 107.472 122.224Z" fill="black"/>
<path d="M96.2376 131.356C95.3919 131.771 94.4393 131.917 93.5083 131.773C92.5773 131.63 91.7127 131.204 91.0311 130.554C89.5694 129.121 89.4451 127.105 89.7317 125.166C90.3466 121.365 92.0222 117.815 94.5658 114.925C94.6205 114.852 94.6595 114.768 94.68 114.679C94.7006 114.589 94.7023 114.497 94.6852 114.407C94.6681 114.317 94.6325 114.232 94.5807 114.157C94.5289 114.081 94.4621 114.018 94.3843 113.969C94.3101 113.917 94.2262 113.881 94.1375 113.862C94.0489 113.843 93.9572 113.842 93.8682 113.858C93.7791 113.875 93.6943 113.91 93.6188 113.96C93.5434 114.011 93.4789 114.075 93.429 114.151C91.1542 116.761 89.5418 119.88 88.7286 123.246C88.2098 124.991 88.1116 126.834 88.442 128.624C88.6511 129.483 89.0505 130.283 89.6107 130.966C90.1709 131.649 90.8776 132.198 91.6783 132.571C92.4791 132.945 93.3535 133.133 94.2369 133.123C95.1203 133.113 95.9903 132.904 96.7822 132.512C96.8877 132.416 96.9595 132.288 96.9872 132.148C97.0149 132.008 96.997 131.863 96.9361 131.734C96.8752 131.604 96.7745 131.498 96.6488 131.43C96.5231 131.362 96.379 131.336 96.2376 131.356Z" fill="black"/>
<path d="M89.9898 132.522C89.1459 132.935 88.1943 133.075 87.2671 132.923C86.4115 132.832 85.5843 132.565 84.8377 132.137C84.0911 131.709 83.4415 131.131 82.9301 130.439C81.8826 128.813 81.4772 126.855 81.793 124.946C82.0379 123.196 82.4869 121.481 83.1306 119.835C83.2357 119.52 83.3598 119.205 83.4744 118.88C83.5891 118.555 83.7706 118.144 83.9234 117.772C84.6151 116.129 85.4129 114.534 86.3117 112.995C86.7321 112.26 87.8308 112.995 87.4105 113.721C86.8373 114.677 86.3117 115.699 85.8341 116.721C85.5284 117.371 85.2419 118.02 84.9744 118.689L84.8407 119.004C84.2178 120.522 83.7162 122.088 83.3408 123.685C82.9155 125.213 82.9155 126.829 83.3408 128.357C83.5554 128.994 83.9019 129.578 84.3579 130.072C84.8139 130.566 85.3692 130.958 85.9871 131.223C86.5924 131.478 87.241 131.614 87.8977 131.624C88.2201 131.623 88.541 131.581 88.8531 131.5C88.9964 131.5 89.321 131.251 89.407 131.309C88.7287 130.793 89.4643 129.694 90.133 130.21C90.3214 130.345 90.4725 130.525 90.572 130.734C90.6715 130.944 90.7162 131.175 90.7019 131.406C90.6876 131.637 90.6147 131.861 90.4901 132.056C90.3656 132.251 90.1934 132.412 89.9898 132.522Z" fill="black"/>
<path d="M140.708 118.421C139.514 117.905 138.31 117.409 137.107 116.931C124.294 111.875 110.74 108.951 96.9827 108.276C96.1324 108.276 96.2852 106.929 97.1354 106.967C101.043 107.158 104.95 107.531 108.829 108.085C115.647 109.064 122.375 110.591 128.948 112.651C132.807 113.855 136.597 115.246 140.316 116.826C140.46 117.361 140.622 117.886 140.708 118.421Z" fill="black"/>
<path d="M118.65 124.641C116.309 128.28 111.399 127.421 107.845 126.647C107.014 126.465 106.889 127.784 107.701 127.956C110.052 128.471 112.478 128.978 114.924 128.471C115.882 128.309 116.798 127.956 117.619 127.434C118.439 126.913 119.147 126.232 119.7 125.433C120.178 124.717 119.127 123.924 118.65 124.641Z" fill="black"/>
<path d="M115.373 132.321C115.583 132.436 128.747 139.601 140.756 145.371C140.631 145.801 140.498 146.221 140.345 146.651C128.47 140.977 115.602 133.945 114.742 133.477C114.662 133.438 114.59 133.384 114.531 133.316C114.473 133.249 114.428 133.17 114.401 133.085C114.374 133 114.364 132.911 114.372 132.822C114.381 132.733 114.407 132.646 114.45 132.568C114.493 132.49 114.551 132.421 114.621 132.365C114.691 132.31 114.772 132.27 114.858 132.247C114.945 132.224 115.035 132.219 115.123 132.231C115.211 132.244 115.296 132.275 115.373 132.321Z" fill="white"/>
<path d="M114.828 132.207C112.774 132.417 110.73 132.665 108.676 132.818C106.754 133.014 104.822 132.556 103.192 131.519C102.486 131.051 101.693 132.102 102.399 132.579C104.123 133.708 106.16 134.26 108.217 134.156C110.482 134.079 112.765 133.745 115.019 133.516C115.831 133.43 115.64 132.121 114.828 132.207Z" fill="black"/>
<path d="M177.326 145.772C177.202 146.365 177.039 146.947 176.867 147.521C176.781 147.807 176.695 148.094 176.59 148.38L176.514 148.457C175.904 148.996 175.266 149.503 174.603 149.976C170.872 152.626 166.407 154.046 161.83 154.036C160.624 154.035 159.42 153.94 158.229 153.749C154.942 153.214 148.494 150.501 141.539 147.224L140.335 146.651C140.488 146.221 140.622 145.801 140.746 145.371C140.746 145.285 140.794 145.199 140.823 145.113C143.373 136.381 142.676 127.201 140.699 118.421C140.584 117.886 140.45 117.351 140.326 116.826L141.845 117.476C141.925 117.435 142.013 117.413 142.103 117.409C144.688 117.423 147.259 117.789 149.746 118.498C152.229 119.071 154.694 119.759 157.121 120.561C161.415 121.97 165.572 123.767 169.54 125.93C171.368 126.877 172.992 128.176 174.317 129.751C175.49 131.223 176.398 132.888 177.001 134.671C178.133 138.271 178.245 142.113 177.326 145.772Z" fill="#2563EB"/>
<path d="M162.04 123.733C157.092 122.396 152.134 121.097 147.166 119.835L145.752 119.472L140.536 118.173C139.724 117.973 139.867 116.654 140.689 116.864L145.466 118.049L146.88 118.412C152.108 119.73 157.318 121.093 162.509 122.501C163.34 122.721 162.852 123.953 162.04 123.733Z" fill="white"/>
<path d="M147.166 119.836L145.752 119.472C145.666 119.004 145.561 118.517 145.475 118.049C144.042 110.808 142.615 103.566 141.195 96.3248C141.023 95.4937 142.332 95.3027 142.494 96.1338C143.966 103.554 145.43 110.98 146.889 118.412C146.975 118.89 147.07 119.358 147.166 119.836Z" fill="white"/>
<path d="M141.959 17.3857C141.87 17.2865 141.759 17.2098 141.634 17.1616C141.51 17.1135 141.376 17.0953 141.243 17.1086C140.944 17.1402 140.654 17.2348 140.394 17.3863C140.134 17.5378 139.909 17.7427 139.734 17.9875C139.652 18.0755 139.576 18.168 139.504 18.2646C139.504 18.1022 139.504 17.9398 139.428 17.7774C139.397 17.4081 139.279 17.0513 139.084 16.736C138.999 16.6407 138.894 16.5664 138.776 16.5188C138.658 16.4713 138.53 16.4519 138.403 16.462C138.276 16.4722 138.154 16.5118 138.045 16.5776C137.936 16.6434 137.843 16.7336 137.775 16.8412C137.581 17.1517 137.493 17.5175 137.527 17.8824C137.528 18.2226 137.563 18.5619 137.632 18.8951C137.693 19.1828 137.817 19.4535 137.995 19.688L137.871 19.774C137.779 19.8444 137.707 19.9383 137.663 20.0458C137.619 20.1533 137.605 20.2706 137.622 20.3854C137.643 20.5109 137.692 20.6302 137.765 20.7344C137.838 20.8386 137.934 20.925 138.045 20.9874C138.156 21.0497 138.279 21.0864 138.406 21.0946C138.533 21.1029 138.66 21.0825 138.778 21.035C138.943 20.7073 139.216 20.4472 139.552 20.2995L139.686 20.137C140.345 19.6976 140.995 19.2581 141.597 18.79C141.732 18.6984 141.846 18.5798 141.934 18.4417C142.021 18.3036 142.078 18.149 142.103 17.9875C142.12 17.8827 142.116 17.7756 142.091 17.6722C142.067 17.5689 142.022 17.4715 141.959 17.3857Z" fill="black"/>
<path d="M97.2407 169.321C97.1802 169.19 97.0785 169.081 96.951 169.012C96.8235 168.943 96.6771 168.918 96.5337 168.939C96.3238 168.975 96.1265 169.064 95.9605 169.197C95.811 169.224 95.6703 169.286 95.5497 169.379C95.2294 169.657 95.0248 170.046 94.9764 170.468C94.9431 170.645 94.9431 170.826 94.9764 171.003C94.9966 171.141 95.0442 171.274 95.1164 171.394C95.1886 171.514 95.2838 171.618 95.3967 171.7C95.587 171.81 95.8028 171.868 96.0225 171.868C96.2422 171.868 96.458 171.81 96.6483 171.7C96.846 171.595 97.0187 171.448 97.1546 171.27C97.3004 171.081 97.3958 170.857 97.4317 170.621C97.4886 170.178 97.4226 169.729 97.2407 169.321Z" fill="white"/>
<path d="M107.788 163.952C107.672 163.815 107.508 163.728 107.329 163.71C107.151 163.693 106.972 163.745 106.832 163.857C104.996 165.018 103.081 166.049 101.1 166.943C100.941 167.016 100.817 167.15 100.756 167.315C100.695 167.48 100.702 167.662 100.776 167.821C100.849 167.981 100.983 168.105 101.148 168.166C101.313 168.227 101.495 168.22 101.654 168.146C103.73 167.196 105.737 166.104 107.663 164.879C107.801 164.771 107.891 164.614 107.914 164.441C107.938 164.268 107.892 164.092 107.788 163.952Z" fill="white"/>
<path d="M130.534 151.83C130.515 151.745 130.476 151.666 130.419 151.6L130.285 151.476C130.19 151.408 130.077 151.369 129.961 151.361H129.798C129.687 151.38 129.582 151.426 129.492 151.495L129.273 151.724C129.201 151.778 129.144 151.851 129.11 151.935C129.061 152.008 129.034 152.094 129.034 152.183C129.015 152.265 129.015 152.35 129.034 152.431C129.053 152.516 129.092 152.595 129.148 152.661L129.282 152.775C129.377 152.846 129.489 152.889 129.607 152.899H129.769C129.885 152.88 129.994 152.83 130.085 152.756L130.295 152.527C130.369 152.479 130.426 152.409 130.457 152.326C130.505 152.252 130.532 152.166 130.534 152.078C130.553 151.996 130.553 151.911 130.534 151.83Z" fill="white"/>
<path d="M132.817 149.728C131.976 149.728 131.862 151.065 132.702 151.046C133.543 151.027 133.667 149.708 132.817 149.728Z" fill="white"/>
<path d="M38.3445 131.777C40.0736 134.318 39.9877 137.385 38.163 138.627C36.3383 139.869 33.4437 138.827 31.7145 136.286C29.9854 133.745 30.0713 130.669 31.896 129.427C33.7207 128.185 36.6153 129.236 38.3445 131.777Z" fill="white"/>
<path d="M67.7687 28.2577C67.3499 27.4412 66.7639 26.7219 66.049 26.1465C65.2475 25.5902 64.5493 24.8984 63.9856 24.1021C63.768 23.6876 63.6824 23.2164 63.7405 22.7519C63.7986 22.2873 63.9976 21.8517 64.3105 21.5035C64.9114 20.7735 65.3159 19.9021 65.4856 18.9719C65.4841 18.8089 65.4231 18.652 65.3141 18.5307C65.2052 18.4095 65.0558 18.3322 64.8938 18.3134C64.7319 18.2946 64.5686 18.3357 64.4348 18.4288C64.301 18.5219 64.2057 18.6607 64.1671 18.8191C63.9751 19.633 63.592 20.3895 63.0494 21.0259C62.5164 21.7662 62.2843 22.6813 62.3999 23.5862C62.8011 25.7644 64.9697 26.5381 66.2212 28.1431C66.7127 28.8465 66.9904 29.6771 67.0209 30.5347C67.0514 31.3923 66.8334 32.2405 66.3931 32.9771C65.7585 33.7629 65.0338 34.4715 64.234 35.0883C63.596 35.713 63.1458 36.504 62.9347 37.3716C62.7081 38.2993 62.7465 39.2719 63.0455 40.1788C63.3444 41.0857 63.8919 41.8906 64.6256 42.5017C65.2848 43.0367 66.0778 41.9763 65.4186 41.4413C64.8412 40.9357 64.4294 40.268 64.2368 39.5251C64.0443 38.7821 64.0798 37.9984 64.339 37.276C64.7249 36.4456 65.3292 35.7357 66.0873 35.2221C66.7862 34.6854 67.3572 34.0001 67.7591 33.2159C68.1239 32.4406 68.314 31.5947 68.3156 30.7379C68.3173 29.8811 68.1305 29.0344 67.7687 28.2577Z" fill="#2563EB"/>
<path d="M70.0517 37.8681C70.4911 36.5402 71.6664 35.6231 72.4115 34.4863C72.8478 33.9315 73.1383 33.2764 73.2568 32.5806C73.3752 31.8848 73.3179 31.1705 73.0898 30.5026C73.0214 30.3417 72.8918 30.2146 72.7297 30.1492C72.5675 30.0838 72.3861 30.0855 72.2252 30.1539C72.0643 30.2223 71.9372 30.3518 71.8718 30.5139C71.8064 30.6761 71.8081 30.8575 71.8765 31.0184C72.4306 32.3272 71.4466 33.6456 70.6536 34.6105C69.7481 35.5266 69.0763 36.6472 68.6952 37.8777C68.5919 38.5325 68.6235 39.2016 68.7878 39.8439C68.952 40.4862 69.2455 41.0882 69.6505 41.6131C70.3001 42.5684 72.0867 43.8294 71.4658 45.1669C71.1123 45.9407 72.3445 46.4183 72.698 45.6445C73.3667 44.202 72.4209 42.8645 71.4942 41.8232C70.5676 40.7819 69.5644 39.3584 70.0517 37.8681Z" fill="#2563EB"/>
<path d="M76.9017 35.0214C77.8165 33.6007 78.3948 31.9898 78.5927 30.3117C78.7595 28.6897 78.3612 27.0598 77.4652 25.6974C76.9369 25.0187 76.5061 24.2695 76.1852 23.4715C75.9804 22.7513 75.9314 21.9957 76.0418 21.2552C76.342 19.4699 77.1823 17.8194 78.4492 16.5263C79.0224 15.9053 77.9621 15.1124 77.389 15.7333C75.1057 18.2076 73.6632 22.0863 75.5357 25.2007C76.0971 25.9539 76.5832 26.7601 76.9876 27.6081C77.2797 28.4577 77.3745 29.3627 77.2646 30.2544C77.1693 31.1661 76.9274 32.0565 76.5481 32.8911C76.1756 33.7509 75.5929 34.5151 75.1821 35.3271C74.3318 36.8748 74.1502 39.1484 76.0322 40.0178C76.806 40.3713 77.2837 39.1389 76.5099 38.7854C76.262 38.6264 76.0676 38.3965 75.9518 38.1257C75.8359 37.8549 75.8041 37.5556 75.8603 37.2664C76.0398 36.4512 76.3953 35.685 76.9017 35.0214Z" fill="#2563EB"/>
<path d="M190.873 72.9381C190.259 71.4887 189.358 70.1791 188.223 69.0886C187.088 67.9982 185.744 67.1497 184.271 66.5947C181.291 65.5056 177.345 65.3528 175.301 62.5728C174.24 61.1493 174.297 59.3246 174.422 57.6337C174.617 55.9567 174.562 54.2601 174.259 52.5991C173.558 49.5435 171.716 46.8711 169.11 45.1284C166.464 43.3993 163.292 42.979 160.283 42.2625C158.772 41.9484 157.319 41.4038 155.974 40.6479C154.688 39.8457 153.621 38.7361 152.87 37.4189C151.284 34.6962 150.796 31.4768 149.211 28.821C149.047 28.4882 148.81 28.1971 148.517 27.9702C148.224 27.7434 147.883 27.5867 147.52 27.5122C146.679 27.3784 146.564 28.6872 147.367 28.8305C148.007 28.9356 148.322 29.9196 148.532 30.4259C148.838 31.1233 149.115 31.8207 149.373 32.5372C149.908 33.9702 150.395 35.4032 151.054 36.8171C151.654 38.1639 152.489 39.3931 153.519 40.4473C154.603 41.4782 155.888 42.2749 157.293 42.7879C160.159 43.8578 163.197 44.0871 166.044 45.138C167.445 45.6447 168.728 46.4322 169.813 47.4524C170.899 48.4726 171.765 49.7038 172.358 51.0706C172.956 52.4505 173.252 53.9423 173.227 55.446C173.06 57.1379 173.022 58.8402 173.113 60.5379C173.552 63.8625 176.332 65.6967 179.313 66.6042C181.039 67.0299 182.741 67.5432 184.415 68.1423C185.785 68.7295 186.999 69.6292 187.959 70.7694C189.904 73.1476 190.867 76.1785 190.653 79.2432C190.355 82.6947 189.064 85.9862 186.937 88.7201C185.933 90.1138 184.596 91.2337 183.048 91.9778C181.31 92.8089 179.504 93.5063 177.737 94.2515L175.033 95.3883C174.892 95.4698 174.785 95.6 174.733 95.7545C174.682 95.9091 174.688 96.0773 174.751 96.2275C174.815 96.3777 174.931 96.4996 175.077 96.5702C175.224 96.6409 175.392 96.6554 175.549 96.6112L181.147 94.2419C182.904 93.6379 184.555 92.761 186.039 91.6434C187.346 90.4666 188.45 89.0818 189.306 87.545C190.234 86.0076 190.945 84.3486 191.417 82.6156C192.351 79.4227 192.159 76.006 190.873 72.9381Z" fill="black"/>
</g>
<defs>
<clipPath id="clip0_4109_22405">
<rect width="192" height="192" fill="white"/>
</clipPath>
</defs>
</svg>
