<svg viewBox="0 0 192 192" fill="none" xmlns="http://www.w3.org/2000/svg">
<rect width="192" height="192" fill="white"/>
<path d="M42.2388 74.3184H16.7026C16.4449 74.3358 16.1865 74.3001 15.9432 74.2135C15.6999 74.1268 15.477 73.9911 15.2884 73.8147C15.0997 73.6383 14.9489 73.4251 14.8461 73.1882C14.7432 72.9513 14.6904 72.6957 14.6904 72.4375C14.6904 72.1792 14.7432 71.9236 14.8461 71.6867C14.9489 71.4498 15.0997 71.2366 15.2884 71.0602C15.477 70.8839 15.6999 70.7481 15.9432 70.6615C16.1865 70.5748 16.4449 70.5392 16.7026 70.5566H42.2388C42.4965 70.5392 42.7554 70.5748 42.9987 70.6615C43.242 70.7481 43.4648 70.8839 43.6535 71.0602C43.8422 71.2366 43.9925 71.4498 44.0954 71.6867C44.1982 71.9236 44.2514 72.1792 44.2514 72.4375C44.2514 72.6957 44.1982 72.9513 44.0954 73.1882C43.9925 73.4251 43.8422 73.6383 43.6535 73.8147C43.4648 73.9911 43.242 74.1268 42.9987 74.2135C42.7554 74.3001 42.4965 74.3358 42.2388 74.3184Z" fill="black"/>
<path d="M42.2388 85.2869H16.7026C16.4449 85.3043 16.1865 85.2685 15.9432 85.1819C15.6999 85.0952 15.477 84.9596 15.2884 84.7832C15.0997 84.6069 14.9489 84.3935 14.8461 84.1566C14.7432 83.9197 14.6904 83.6643 14.6904 83.406C14.6904 83.1477 14.7432 82.8921 14.8461 82.6552C14.9489 82.4183 15.0997 82.205 15.2884 82.0286C15.477 81.8523 15.6999 81.7166 15.9432 81.63C16.1865 81.5433 16.4449 81.5076 16.7026 81.525H42.2388C42.4965 81.5076 42.7554 81.5433 42.9987 81.63C43.242 81.7166 43.4648 81.8523 43.6535 82.0286C43.8422 82.205 43.9925 82.4183 44.0954 82.6552C44.1982 82.8921 44.2514 83.1477 44.2514 83.406C44.2514 83.6643 44.1982 83.9197 44.0954 84.1566C43.9925 84.3935 43.8422 84.6069 43.6535 84.7832C43.4648 84.9596 43.242 85.0952 42.9987 85.1819C42.7554 85.2685 42.4965 85.3043 42.2388 85.2869Z" fill="black"/>
<path d="M42.2388 96.264H16.7026C16.4449 96.2814 16.1865 96.2457 15.9432 96.159C15.6999 96.0724 15.477 95.9366 15.2884 95.7603C15.0997 95.5839 14.9489 95.3707 14.8461 95.1338C14.7432 94.8969 14.6904 94.6413 14.6904 94.383C14.6904 94.1248 14.7432 93.8693 14.8461 93.6324C14.9489 93.3955 15.0997 93.1822 15.2884 93.0058C15.477 92.8294 15.6999 92.6937 15.9432 92.607C16.1865 92.5204 16.4449 92.4847 16.7026 92.5021H42.2388C42.4965 92.4847 42.7554 92.5204 42.9987 92.607C43.242 92.6937 43.4648 92.8294 43.6535 93.0058C43.8422 93.1822 43.9925 93.3955 44.0954 93.6324C44.1982 93.8693 44.2514 94.1248 44.2514 94.383C44.2514 94.6413 44.1982 94.8969 44.0954 95.1338C43.9925 95.3707 43.8422 95.5839 43.6535 95.7603C43.4648 95.9366 43.242 96.0724 42.9987 96.159C42.7554 96.2457 42.4965 96.2814 42.2388 96.264Z" fill="black"/>
<path d="M124.777 134.217H11.6631C8.5713 134.213 5.60722 132.982 3.42101 130.796C1.2348 128.61 0.00453339 125.646 0 122.554V46.288C0.00453339 43.1962 1.2348 40.2323 3.42101 38.0461C5.60722 35.8599 8.5713 34.6297 11.6631 34.6252H124.777C127.87 34.6275 130.835 35.857 133.021 38.0437C135.208 40.2304 136.438 43.1955 136.44 46.288V122.554C136.438 125.647 135.208 128.612 133.021 130.799C130.835 132.985 127.87 134.215 124.777 134.217ZM11.6631 38.13C9.50696 38.1323 7.43981 38.9898 5.91522 40.5144C4.39062 42.039 3.5329 44.1061 3.53064 46.2622V122.529C3.5329 124.685 4.39062 126.752 5.91522 128.276C7.43981 129.801 9.50696 130.659 11.6631 130.661H124.777C126.934 130.659 129.002 129.801 130.528 128.277C132.054 126.753 132.914 124.686 132.918 122.529V46.2622C132.914 44.1053 132.054 42.0382 130.528 40.5139C129.002 38.9895 126.934 38.1323 124.777 38.13H11.6631Z" fill="black"/>
<path d="M127.271 55.6974H8.64728C8.46092 55.6974 8.28198 55.7715 8.1502 55.9033C8.01842 56.035 7.94434 56.2138 7.94434 56.4001C7.94434 56.5865 8.01842 56.7652 8.1502 56.897C8.28198 57.0288 8.46092 57.1028 8.64728 57.1028H127.271C127.458 57.1028 127.637 57.0288 127.768 56.897C127.9 56.7652 127.974 56.5865 127.974 56.4001C127.974 56.2138 127.9 56.035 127.768 55.9033C127.637 55.7715 127.458 55.6974 127.271 55.6974Z" fill="black"/>
<path d="M23.3262 47.368C23.3262 48.2832 23.0547 49.1779 22.5462 49.9388C22.0378 50.6998 21.3152 51.2928 20.4696 51.6431C19.6241 51.9933 18.6935 52.085 17.7959 51.9065C16.8983 51.7279 16.074 51.2872 15.4268 50.64C14.7796 49.9929 14.3388 49.1683 14.1602 48.2707C13.9817 47.3731 14.0732 46.4426 14.4234 45.5971C14.7737 44.7515 15.3671 44.0288 16.1281 43.5204C16.889 43.0119 17.7836 42.7405 18.6989 42.7405C19.3068 42.7394 19.9089 42.8584 20.4709 43.0905C21.0328 43.3227 21.5435 43.6635 21.9734 44.0934C22.4033 44.5233 22.7442 45.0339 22.9764 45.5958C23.2085 46.1578 23.3273 46.76 23.3262 47.368Z" fill="black"/>
<path d="M35.6056 47.368C35.6056 48.2835 35.3341 49.1785 34.8253 49.9397C34.3164 50.7008 33.593 51.2939 32.747 51.6439C31.9009 51.9939 30.9703 52.0851 30.0724 51.9058C29.1746 51.7266 28.3497 51.285 27.7029 50.637C27.0561 49.989 26.616 49.1637 26.4384 48.2655C26.2608 47.3673 26.3538 46.4365 26.7054 45.5911C27.0569 44.7457 27.6513 44.0237 28.4134 43.5163C29.1755 43.0089 30.0711 42.7388 30.9867 42.7405C31.5939 42.7405 32.1952 42.8603 32.7562 43.0929C33.3171 43.3256 33.8268 43.6666 34.2558 44.0964C34.6848 44.5262 35.0246 45.0365 35.2562 45.5978C35.4878 46.1592 35.6067 46.7607 35.6056 47.368Z" fill="black"/>
<path d="M47.9033 47.3679C47.9033 48.2832 47.6318 49.1779 47.1234 49.9388C46.6149 50.6998 45.8923 51.2928 45.0468 51.6431C44.2012 51.9933 43.2707 52.085 42.373 51.9065C41.4754 51.7279 40.6507 51.2872 40.0035 50.64C39.3564 49.9928 38.9159 49.1683 38.7374 48.2707C38.5588 47.3731 38.6503 46.4426 39.0006 45.5971C39.3508 44.7515 39.9438 44.0288 40.7048 43.5204C41.4658 43.0119 42.3604 42.7405 43.2756 42.7405C44.5028 42.7405 45.6798 43.2281 46.5476 44.0959C47.4154 44.9637 47.9033 46.1407 47.9033 47.3679Z" fill="black"/>
<path d="M19.9473 141.789H12.2349C12.0879 141.776 11.94 141.793 11.8002 141.84C11.6603 141.887 11.5317 141.963 11.4228 142.063C11.3138 142.162 11.2266 142.284 11.1671 142.419C11.1076 142.554 11.0771 142.7 11.0771 142.847C11.0771 142.995 11.1076 143.141 11.1671 143.276C11.2266 143.411 11.3138 143.532 11.4228 143.632C11.5317 143.731 11.6603 143.807 11.8002 143.854C11.94 143.901 12.0879 143.919 12.2349 143.905H19.9473C20.0942 143.919 20.2422 143.901 20.382 143.854C20.5218 143.807 20.6505 143.731 20.7594 143.632C20.8683 143.532 20.9555 143.411 21.0151 143.276C21.0746 143.141 21.105 142.995 21.105 142.847C21.105 142.7 21.0746 142.554 21.0151 142.419C20.9555 142.284 20.8683 142.162 20.7594 142.063C20.6505 141.963 20.5218 141.887 20.382 141.84C20.2422 141.793 20.0942 141.776 19.9473 141.789Z" fill="black"/>
<path d="M30.7012 141.789H26.5367C26.3897 141.776 26.2418 141.793 26.1019 141.84C25.9621 141.887 25.8335 141.963 25.7245 142.063C25.6156 142.162 25.5284 142.284 25.4689 142.419C25.4093 142.554 25.3789 142.7 25.3789 142.847C25.3789 142.995 25.4093 143.141 25.4689 143.276C25.5284 143.411 25.6156 143.532 25.7245 143.632C25.8335 143.731 25.9621 143.807 26.1019 143.854C26.2418 143.901 26.3897 143.919 26.5367 143.905H30.7012C30.9655 143.882 31.2114 143.76 31.3904 143.564C31.5694 143.368 31.6686 143.113 31.6686 142.847C31.6686 142.582 31.5694 142.326 31.3904 142.13C31.2114 141.934 30.9655 141.813 30.7012 141.789Z" fill="black"/>
<path d="M38.3284 141.789H36.443C36.1787 141.813 35.9328 141.935 35.7538 142.13C35.5748 142.326 35.4756 142.582 35.4756 142.847C35.4756 143.113 35.5748 143.368 35.7538 143.564C35.9328 143.76 36.1787 143.882 36.443 143.906H38.3024C38.5667 143.882 38.8126 143.76 38.9916 143.564C39.1706 143.368 39.2698 143.113 39.2698 142.847C39.2698 142.582 39.1706 142.326 38.9916 142.13C38.8126 141.935 38.5667 141.813 38.3024 141.789H38.3284Z" fill="black"/>
<path d="M44.2071 141.789H43.2301C42.9658 141.813 42.7199 141.934 42.5409 142.13C42.362 142.326 42.2627 142.582 42.2627 142.847C42.2627 143.113 42.362 143.368 42.5409 143.564C42.7199 143.76 42.9658 143.882 43.2301 143.905H44.2071C44.3541 143.919 44.502 143.901 44.6418 143.854C44.7817 143.807 44.9103 143.731 45.0193 143.632C45.1282 143.532 45.2154 143.411 45.2749 143.276C45.3344 143.141 45.3649 142.995 45.3649 142.847C45.3649 142.7 45.3344 142.554 45.2749 142.419C45.2154 142.284 45.1282 142.162 45.0193 142.063C44.9103 141.963 44.7817 141.887 44.6418 141.84C44.502 141.793 44.3541 141.776 44.2071 141.789Z" fill="black"/>
<path d="M49.2979 141.789H48.8179C48.6709 141.776 48.523 141.793 48.3832 141.84C48.2434 141.887 48.1147 141.963 48.0058 142.063C47.8968 142.162 47.8096 142.284 47.7501 142.419C47.6906 142.554 47.6602 142.7 47.6602 142.847C47.6602 142.995 47.6906 143.141 47.7501 143.276C47.8096 143.411 47.8968 143.532 48.0058 143.632C48.1147 143.731 48.2434 143.807 48.3832 143.854C48.523 143.901 48.6709 143.919 48.8179 143.905H49.2979C49.4448 143.919 49.5928 143.901 49.7326 143.854C49.8724 143.807 50.0011 143.731 50.11 143.632C50.2189 143.532 50.3061 143.411 50.3657 143.276C50.4252 143.141 50.4556 142.995 50.4556 142.847C50.4556 142.7 50.4252 142.554 50.3657 142.419C50.3061 142.284 50.2189 142.162 50.11 142.063C50.0011 141.963 49.8724 141.887 49.7326 141.84C49.5928 141.793 49.4448 141.776 49.2979 141.789Z" fill="black"/>
<path d="M101.617 23.9695C101.617 23.9695 103.245 26.2831 105.722 26.4031C106.528 26.4021 107.323 26.206 108.038 25.8314C108.753 25.4569 109.366 24.9151 109.826 24.2522C111.352 22.3927 112.32 22.0328 112.86 22.0585C113.657 22.0585 114.377 23.0697 114.985 23.9695C114.985 23.9695 116.613 26.2831 119.09 26.4031C119.897 26.4021 120.691 26.206 121.406 25.8314C122.121 25.4569 122.734 24.9151 123.194 24.2522C124.111 23.1382 125.028 22.5813 125.928 22.5984C126.409 22.6614 126.874 22.8187 127.294 23.0613C127.715 23.3039 128.083 23.6271 128.379 24.0123C128.462 24.1248 128.567 24.2199 128.687 24.292C128.807 24.3641 128.94 24.4118 129.078 24.4325C129.217 24.4531 129.358 24.4465 129.494 24.4126C129.63 24.3787 129.757 24.3183 129.87 24.2351C129.982 24.1518 130.077 24.0472 130.149 23.9272C130.221 23.8072 130.269 23.6741 130.29 23.5357C130.311 23.3972 130.304 23.2561 130.27 23.1203C130.236 22.9845 130.176 22.8566 130.092 22.744C129.604 22.105 128.989 21.574 128.286 21.1847C127.582 20.7953 126.806 20.5559 126.005 20.4817C124.42 20.4817 122.929 21.253 121.575 22.9069C121.316 23.2986 120.972 23.6264 120.568 23.8654C120.165 24.1044 119.712 24.2484 119.244 24.2865C118.247 24.132 117.35 23.59 116.75 22.7783C116.056 21.7415 114.891 20.0361 112.971 19.9419C111.463 19.8733 109.903 20.8417 108.207 22.9069C107.949 23.2995 107.605 23.6278 107.201 23.867C106.797 24.1061 106.344 24.2497 105.876 24.2865C104.879 24.1302 103.983 23.5886 103.382 22.7783C102.688 21.7415 101.523 20.0361 99.6117 19.9419C98.095 19.8733 96.5355 20.8417 94.8388 22.9069C94.5813 23.2995 94.2373 23.6278 93.8333 23.867C93.4293 24.1061 92.9758 24.2497 92.5078 24.2865C91.511 24.1302 90.6153 23.5886 90.014 22.7783C89.3199 21.7415 88.1545 20.0361 86.2436 19.9419C84.7268 19.8733 83.1674 20.8417 81.4707 22.9069C81.3139 23.0975 81.2288 23.337 81.2305 23.5838C81.2334 23.8006 81.3026 24.0114 81.4288 24.1878C81.555 24.3641 81.7325 24.4977 81.9368 24.5704C82.1411 24.6432 82.3627 24.6517 82.572 24.5948C82.7812 24.5379 82.9682 24.4184 83.1075 24.2522C84.6329 22.3927 85.6008 22.0328 86.1407 22.0585C86.9376 22.0585 87.6578 23.0697 88.2662 23.9695C88.2662 23.9695 89.894 26.2831 92.3705 26.4031C93.1774 26.4021 93.9722 26.206 94.6869 25.8314C95.4016 25.4569 96.0151 24.9151 96.4752 24.2522C98.0006 22.3927 98.9689 22.0328 99.5088 22.0585C100.289 22.1014 101.008 23.0697 101.617 23.9695Z" fill="black"/>
<path d="M150.848 42.9397C150.73 42.88 150.602 42.844 150.471 42.8338C150.34 42.8236 150.208 42.8393 150.083 42.8802C149.958 42.921 149.842 42.986 149.742 43.0717C149.642 43.1574 149.56 43.262 149.5 43.3794L141.65 58.7396C141.529 58.9777 141.508 59.254 141.59 59.508C141.673 59.762 141.852 59.973 142.09 60.0948C142.143 60.1226 142.198 60.1443 142.256 60.1596C142.482 60.2293 142.725 60.217 142.943 60.1247C143.16 60.0323 143.338 59.866 143.445 59.6551L151.288 44.2948C151.408 44.0567 151.43 43.7804 151.348 43.5264C151.265 43.2724 151.085 43.0615 150.848 42.9397Z" fill="#2563EB"/>
<path d="M181.064 89.5393C181.049 89.2722 180.93 89.0218 180.731 88.8423C180.533 88.6629 180.272 88.5689 180.004 88.5807L162.777 89.4745C162.543 89.4893 162.321 89.5856 162.15 89.7467C161.978 89.9078 161.869 90.1236 161.84 90.3569C161.811 90.5901 161.864 90.8262 161.99 91.0244C162.117 91.2225 162.308 91.3703 162.532 91.4422C162.645 91.4717 162.762 91.4862 162.878 91.4855L180.113 90.5917C180.244 90.5853 180.374 90.5529 180.493 90.4964C180.612 90.44 180.718 90.3607 180.807 90.2629C180.895 90.1652 180.963 90.051 181.008 89.9268C181.052 89.8026 181.071 89.6709 181.064 89.5393Z" fill="#2563EB"/>
<path d="M172.198 62.192C172.053 61.9679 171.826 61.8102 171.565 61.7535C171.305 61.6968 171.032 61.7456 170.807 61.8893L156.333 71.2597C156.222 71.3313 156.126 71.4241 156.051 71.533C155.976 71.6418 155.923 71.7644 155.896 71.8937C155.868 72.023 155.867 72.1566 155.891 72.2865C155.916 72.4164 155.965 72.5403 156.038 72.6509C156.165 72.8497 156.359 72.9956 156.586 73.0617C156.726 73.1051 156.874 73.1172 157.02 73.0973C157.166 73.0774 157.305 73.0259 157.429 72.9464L171.903 63.576C172.125 63.4314 172.281 63.2046 172.336 62.9451C172.392 62.6857 172.342 62.4148 172.198 62.192Z" fill="#2563EB"/>
<path d="M177.749 146.93C177.932 146.86 178.095 146.745 178.221 146.595C178.347 146.445 178.433 146.265 178.469 146.072C178.576 145.589 178.531 145.086 178.34 144.63L178.102 144.075L177.813 143.398C177.698 143.131 177.561 142.828 177.403 142.497C176.54 140.613 175.561 138.786 174.469 137.026C172.917 134.533 171.152 132.179 169.193 129.991C168.126 128.801 166.973 127.612 165.74 126.488C164.508 125.363 163.232 124.282 161.905 123.273C159.358 121.338 156.656 119.617 153.825 118.126C151.438 116.871 148.975 115.763 146.451 114.811C144.289 113.989 142.436 113.412 141.146 113.045C140.505 112.857 139.993 112.713 139.654 112.627L139.121 112.483L138.854 112.432L138.515 112.346C137.129 111.973 135.653 112.125 134.371 112.771C133.815 113.042 133.33 113.44 132.955 113.932C132.579 114.423 132.324 114.996 132.208 115.604C132.106 116.225 132.15 116.862 132.338 117.463H132.201C130.868 117.21 129.489 117.495 128.366 118.256C127.869 118.59 127.451 119.03 127.145 119.545C126.838 120.06 126.65 120.637 126.593 121.233C126.524 122.145 126.73 123.056 127.184 123.85C127.622 124.629 128.259 125.278 129.03 125.731C128.582 126.326 128.294 127.026 128.193 127.764C128.067 128.712 128.22 129.676 128.633 130.539C129.012 131.34 129.618 132.012 130.378 132.47C129.976 133.039 129.706 133.688 129.585 134.373C129.367 135.507 129.532 136.681 130.053 137.711C130.262 138.156 130.562 138.552 130.935 138.873C131.307 139.193 131.744 139.431 132.216 139.57L133.275 139.866C133.902 140.046 134.717 140.305 135.553 140.587C136.389 140.868 137.16 141.185 137.715 141.423L138.436 141.725L138.703 141.841C138.761 141.871 138.825 141.89 138.89 141.898L139.114 141.999L139.734 142.295C140.26 142.554 141.009 142.936 141.86 143.427C142.803 143.972 143.718 144.566 144.599 145.207C145.554 145.916 146.462 146.686 147.316 147.514C148.13 148.313 148.886 149.168 149.58 150.072C150.171 150.861 150.71 151.686 151.194 152.545C151.619 153.302 151.915 153.986 152.146 154.433C152.254 154.664 152.326 154.866 152.384 154.988L154.171 159.039C154.359 159.5 156.543 157.958 157.242 157.706L177.749 146.93Z" fill="white"/>
<path d="M154.502 160.466C154.181 160.503 153.858 160.437 153.578 160.278C153.298 160.119 153.076 159.874 152.945 159.58C152.656 158.916 151.287 155.824 151.164 155.536C151.132 155.47 151.103 155.403 151.078 155.334C151.034 155.233 150.998 155.132 150.941 155.024C150.71 154.512 150.422 153.914 150.04 153.229C149.58 152.426 149.072 151.651 148.519 150.908C147.855 150.054 147.132 149.247 146.356 148.494C145.549 147.715 144.689 146.992 143.783 146.331C142.944 145.718 142.073 145.15 141.174 144.63C140.367 144.169 139.66 143.808 139.134 143.549L138.413 143.217C138.312 143.189 138.213 143.153 138.118 143.109L137.865 142.994L137.145 142.698C136.503 142.432 135.703 142.136 135.04 141.898C134.117 141.574 133.259 141.314 132.827 141.178L132.027 140.954L131.796 140.889C131.143 140.701 130.537 140.378 130.018 139.939C129.499 139.501 129.078 138.957 128.783 138.345C128.125 137.054 127.915 135.581 128.185 134.157C128.262 133.709 128.39 133.271 128.567 132.852C128.063 132.356 127.651 131.776 127.349 131.137C126.817 130.041 126.622 128.812 126.787 127.605C126.857 127.094 126.995 126.595 127.198 126.12C126.697 125.66 126.272 125.125 125.936 124.534C125.347 123.505 125.084 122.321 125.179 121.139C125.254 120.348 125.502 119.582 125.905 118.897C126.309 118.212 126.859 117.624 127.515 117.175C128.467 116.518 129.582 116.137 130.737 116.072C130.737 115.856 130.773 115.64 130.809 115.416C130.958 114.608 131.292 113.846 131.785 113.188C132.277 112.53 132.915 111.995 133.649 111.625C134.45 111.216 135.325 110.971 136.222 110.904C137.071 110.83 137.926 110.901 138.752 111.113L139.026 111.178L139.357 111.25L139.898 111.394C140.244 111.481 140.756 111.625 141.419 111.819C143.207 112.331 145.023 112.944 146.825 113.621C149.404 114.592 151.92 115.724 154.357 117.009C157.253 118.533 160.019 120.293 162.625 122.271C163.987 123.309 165.306 124.433 166.561 125.565C167.815 126.697 168.918 127.85 170.1 129.169C172.109 131.41 173.921 133.822 175.513 136.377C176.636 138.182 177.643 140.058 178.526 141.992L178.663 142.28C178.771 142.511 178.865 142.727 178.951 142.922L179.477 144.176C179.779 144.886 179.85 145.673 179.679 146.425C179.595 146.811 179.419 147.172 179.169 147.477C178.918 147.783 178.6 148.025 178.238 148.184L157.709 158.996H157.623C157.486 159.046 157.039 159.298 156.743 159.471C156.064 159.94 155.304 160.277 154.502 160.466ZM153.363 153.871C153.449 154.051 153.514 154.21 153.564 154.325C153.581 154.365 153.595 154.406 153.608 154.448L154.92 157.417L155.475 157.1C155.862 156.864 156.264 156.652 156.678 156.466L177.135 145.711C177.163 145.523 177.138 145.331 177.062 145.156L176.544 143.924C176.472 143.751 176.378 143.556 176.284 143.347L176.147 143.052C174.11 138.621 171.418 134.522 168.161 130.892C167.1 129.699 165.978 128.561 164.802 127.482C163.613 126.387 162.351 125.32 161.054 124.34C158.569 122.44 155.928 120.752 153.161 119.294C150.827 118.063 148.42 116.978 145.953 116.043C144.216 115.387 142.464 114.803 140.749 114.306L139.307 113.902L138.774 113.758H138.673H138.601L138.183 113.65C137.648 113.515 137.096 113.469 136.546 113.513C136.006 113.56 135.479 113.712 134.997 113.96C134.426 114.224 133.971 114.688 133.72 115.265C133.469 115.842 133.439 116.491 133.634 117.088L134.269 119.186L131.976 118.768C131.62 118.703 131.256 118.689 130.895 118.725C130.267 118.77 129.663 118.981 129.144 119.337C128.808 119.561 128.526 119.858 128.319 120.204C128.112 120.551 127.985 120.939 127.947 121.341C127.895 121.982 128.041 122.624 128.365 123.179C128.685 123.751 129.153 124.227 129.72 124.556L131.025 125.32L130.11 126.524C129.798 126.947 129.602 127.443 129.54 127.965C129.446 128.652 129.557 129.352 129.857 129.976C130.116 130.541 130.537 131.016 131.068 131.339L132.33 132.059L131.479 133.249C131.194 133.658 131.002 134.126 130.917 134.618C130.757 135.457 130.876 136.326 131.256 137.091C131.382 137.364 131.562 137.61 131.785 137.813C132.008 138.016 132.269 138.172 132.553 138.273C132.755 138.316 133.072 138.41 133.663 138.575C134.125 138.712 135.04 138.986 136.02 139.296C136.741 139.549 137.577 139.866 138.283 140.154L139.221 140.565H139.314L139.956 140.86L140.352 141.048C140.922 141.329 141.678 141.718 142.558 142.223C143.551 142.791 144.514 143.411 145.441 144.082C146.456 144.826 147.419 145.637 148.324 146.511C149.186 147.356 149.986 148.262 150.717 149.222C151.313 150.088 151.855 150.991 152.339 151.925C152.829 152.725 153.175 153.467 153.355 153.871H153.363Z" fill="black"/>
<path d="M114.368 68.0957L150.033 76.3489V127.742C150.033 133.508 148.31 136.111 143.041 140.298C135.271 146.468 114.368 162.6 114.368 162.6C114.368 162.6 93.4645 146.468 85.6943 140.298C80.4252 136.111 78.6953 133.48 78.6953 127.742V76.3489L114.368 68.0957Z" fill="#2563EB"/>
<path d="M114.368 164.503C113.948 164.505 113.539 164.365 113.208 164.106C112.998 163.948 92.2033 147.895 84.5124 141.761C79.1784 137.523 76.7998 134.488 76.7998 127.713V76.3197C76.7984 75.8942 76.9397 75.4805 77.201 75.1447C77.4624 74.8089 77.8286 74.5705 78.2414 74.4673L113.907 66.2141C114.189 66.1493 114.482 66.1493 114.765 66.2141L150.437 74.4673C150.85 74.5705 151.216 74.8089 151.477 75.1447C151.739 75.4805 151.88 75.8942 151.879 76.3197V127.713C151.879 134.488 149.5 137.523 144.166 141.761C136.475 147.867 115.68 163.919 115.471 164.106C115.155 164.353 114.769 164.492 114.368 164.503ZM80.5985 77.8623V127.742C80.5985 132.629 81.831 134.806 86.8766 138.806C93.4936 144.068 109.863 156.718 114.368 160.199C118.873 156.718 135.271 144.068 141.859 138.806C146.905 134.806 148.138 132.629 148.138 127.742V77.8623L114.368 70.0488L80.5985 77.8623Z" fill="black"/>
<path d="M158.603 125.925C151.165 124.361 146.235 124.887 139.055 126.502C138.516 126.635 138.011 126.88 137.574 127.222C137.136 127.563 136.775 127.994 136.515 128.484C136.255 128.975 136.102 129.515 136.065 130.069C136.029 130.623 136.109 131.178 136.302 131.699C137.023 134.236 138.882 135.065 140.8 134.517C145.78 133.263 148.916 132.766 154.214 133.796C152.527 140.875 154.762 148.933 160.975 151.528L158.603 125.925Z" fill="white"/>
<path d="M161.083 152.811C160.879 152.834 160.673 152.801 160.485 152.718C158.819 151.967 157.33 150.872 156.117 149.506C154.903 148.139 153.992 146.532 153.443 144.789C152.369 141.589 152.121 138.17 152.722 134.849C148.577 134.171 145.752 134.582 141.124 135.743C138.342 136.528 135.978 135.087 135.091 132.067C134.863 131.365 134.779 130.625 134.845 129.89C134.911 129.156 135.124 128.442 135.473 127.792C135.825 127.183 136.294 126.649 136.853 126.223C137.412 125.796 138.051 125.484 138.731 125.306H138.782C146.098 123.655 151.215 123.143 158.863 124.722C159.025 124.755 159.178 124.82 159.314 124.913C159.45 125.006 159.567 125.125 159.657 125.263C159.748 125.4 159.81 125.555 159.841 125.717C159.871 125.879 159.87 126.045 159.836 126.207C159.803 126.368 159.737 126.521 159.645 126.657C159.552 126.794 159.433 126.91 159.295 127.001C159.157 127.091 159.003 127.153 158.841 127.184C158.679 127.215 158.513 127.213 158.351 127.18C151.143 125.666 146.458 126.156 139.365 127.749C138.651 127.939 138.04 128.402 137.664 129.039C137.48 129.397 137.371 129.789 137.344 130.191C137.317 130.592 137.372 130.995 137.506 131.375C138.003 133.069 139.019 133.746 140.454 133.335H140.497C145.86 131.987 149.147 131.562 154.459 132.614C154.625 132.648 154.782 132.715 154.922 132.81C155.062 132.905 155.181 133.028 155.274 133.169C155.365 133.312 155.426 133.472 155.453 133.64C155.48 133.807 155.473 133.978 155.432 134.143C154.634 137.389 154.769 140.794 155.821 143.967C156.251 145.386 156.976 146.697 157.948 147.815C158.921 148.933 160.12 149.833 161.465 150.454C161.725 150.563 161.94 150.755 162.077 151.001C162.214 151.246 162.265 151.531 162.221 151.808C162.177 152.086 162.04 152.341 161.834 152.532C161.628 152.723 161.363 152.839 161.083 152.862V152.811Z" fill="black"/>
<path d="M156.311 177.009L189.872 177.16V176.605C189.872 176.432 189.872 176.208 189.872 175.949C189.872 175.689 189.872 175.401 189.836 175.084C189.8 174.767 189.836 174.363 189.786 174.01C189.735 173.657 189.728 173.224 189.685 172.792C189.685 172.576 189.648 172.352 189.627 172.122C189.605 171.891 189.576 171.667 189.555 171.401C189.49 170.932 189.439 170.428 189.36 169.959C189.044 167.758 188.611 165.576 188.063 163.421C187.493 161.144 186.787 158.837 186.008 156.617C184.615 152.678 182.985 148.827 181.129 145.084C180.408 143.563 179.687 142.309 179.233 141.415C178.981 140.954 178.779 140.601 178.649 140.356C178.519 140.111 178.426 139.959 178.426 139.959L149.276 156.595L149.392 156.805L149.745 157.439C150.055 158.008 150.509 158.88 151.028 159.926C152.279 162.453 153.379 165.052 154.322 167.71C154.812 169.101 155.216 170.456 155.518 171.66C155.78 172.669 155.987 173.692 156.138 174.724C156.138 174.933 156.182 175.113 156.211 175.293C156.239 175.473 156.211 175.473 156.211 175.553V175.776C156.211 175.92 156.21 176.057 156.246 176.18C156.283 176.302 156.246 176.403 156.246 176.497C156.246 176.59 156.246 176.677 156.246 176.749V177.045L156.311 177.009Z" fill="#2563EB"/>
<path d="M189.871 178.948C189.397 178.948 188.943 178.759 188.607 178.424C188.272 178.089 188.084 177.634 188.084 177.16V175.985L188.005 174.111C188.005 173.801 187.954 173.47 187.918 173.116L187.846 172.28C187.846 172.15 187.846 172.006 187.803 171.862L187.731 171.257C187.688 170.911 187.644 170.536 187.594 170.219C187.284 168.077 186.863 165.952 186.332 163.854C185.777 161.692 185.1 159.435 184.321 157.208C182.954 153.326 181.353 149.53 179.528 145.841C178.807 144.356 178.159 143.16 177.741 142.374L151.683 157.244C151.95 157.742 152.274 158.369 152.635 159.097C153.918 161.692 155.047 164.362 156.015 167.09C156.491 168.46 156.924 169.873 157.255 171.185C157.529 172.253 157.746 173.336 157.904 174.428C157.93 174.559 157.947 174.691 157.954 174.825V175.012V175.084C157.954 175.171 157.954 175.25 157.954 175.322L158.005 175.927V176.028V176.547V176.951C158.005 177.429 157.815 177.887 157.477 178.225C157.139 178.563 156.681 178.753 156.203 178.753C155.725 178.753 155.267 178.563 154.929 178.225C154.591 177.887 154.401 177.429 154.401 176.951V176.504C154.398 176.49 154.398 176.475 154.401 176.461V176.201V175.841V175.632C154.401 175.632 154.401 175.632 154.401 175.574C154.397 175.534 154.397 175.492 154.401 175.452C154.401 175.365 154.401 175.279 154.365 175.192C154.329 175.106 154.365 175.026 154.365 174.933C154.227 173.962 154.035 172.999 153.788 172.05C153.485 170.846 153.067 169.534 152.642 168.265C151.723 165.674 150.649 163.139 149.427 160.675C148.865 159.536 148.404 158.664 148.173 158.253L147.719 157.432C147.603 157.228 147.529 157.004 147.5 156.772C147.471 156.539 147.488 156.304 147.55 156.078C147.613 155.853 147.719 155.641 147.863 155.457C148.007 155.272 148.186 155.118 148.389 155.003L177.567 138.374C177.981 138.138 178.471 138.075 178.93 138.201C179.386 138.331 179.773 138.633 180.011 139.044L180.227 139.433L180.811 140.493C181.251 141.307 181.943 142.605 182.75 144.234C184.635 148.056 186.293 151.987 187.716 156.004C188.524 158.325 189.23 160.668 189.814 162.96C190.378 165.177 190.823 167.421 191.147 169.685C191.205 170.067 191.248 170.406 191.291 170.81L191.364 171.415C191.364 171.588 191.407 171.754 191.421 171.927L191.501 172.792C191.501 173.174 191.558 173.513 191.587 173.866L191.673 175.819V177.153C191.673 177.627 191.485 178.082 191.15 178.417C190.815 178.752 190.36 178.94 189.886 178.94L189.871 178.948Z" fill="#2563EB"/>
<path d="M181.46 172.107C181.608 172.146 181.764 172.14 181.908 172.091C182.053 172.043 182.18 171.953 182.275 171.833C182.34 171.752 182.389 171.659 182.418 171.558C182.448 171.458 182.457 171.353 182.446 171.249C182.434 171.145 182.402 171.045 182.352 170.953C182.302 170.862 182.234 170.781 182.152 170.716C178.735 167.97 173.856 165.807 167.65 164.294C164.923 163.625 162.153 163.143 159.36 162.852C159.15 162.833 158.941 162.898 158.779 163.033C158.616 163.169 158.515 163.363 158.495 163.573C158.476 163.783 158.542 163.992 158.677 164.155C158.812 164.317 159.006 164.419 159.216 164.438C159.36 164.438 173.423 165.764 181.157 171.977C181.249 172.04 181.352 172.084 181.46 172.107Z" fill="black"/>
<path d="M159.202 161.209C159.348 161.252 159.503 161.252 159.649 161.209C159.771 161.209 171.902 157.237 181.604 160.437C181.805 160.501 182.023 160.483 182.21 160.387C182.398 160.292 182.54 160.126 182.606 159.926C182.639 159.827 182.652 159.722 182.644 159.618C182.636 159.515 182.608 159.413 182.562 159.32C182.515 159.227 182.45 159.144 182.371 159.076C182.292 159.008 182.201 158.956 182.102 158.924C171.902 155.565 159.663 159.536 159.151 159.702C158.99 159.758 158.85 159.864 158.753 160.005C158.656 160.146 158.607 160.314 158.613 160.485C158.618 160.656 158.679 160.82 158.785 160.954C158.891 161.089 159.037 161.185 159.202 161.23V161.209Z" fill="black"/>
<path d="M133.662 97.0763L126.678 90.0923L114.462 102.308L102.246 90.0923L95.2617 97.0763L107.478 109.292L95.2617 121.508L102.246 128.492L114.462 116.276L126.678 128.492L133.662 121.508L121.446 109.292L133.662 97.0763Z" fill="white"/>
</svg>
