<svg width="192" height="192" viewBox="0 0 192 192" fill="none" xmlns="http://www.w3.org/2000/svg">
<rect width="192" height="192" fill="white"/>
<path d="M11.1454 146.822H40.4959C40.8426 146.822 41.186 146.891 41.5063 147.023C41.8267 147.156 42.1177 147.35 42.3629 147.596C42.6081 147.841 42.8026 148.132 42.9353 148.452C43.068 148.773 43.1363 149.116 43.1363 149.463V178.83C43.1363 179.176 43.068 179.52 42.9353 179.84C42.8026 180.16 42.6081 180.451 42.3629 180.697C42.1177 180.942 41.8267 181.136 41.5063 181.269C41.186 181.402 40.8426 181.47 40.4959 181.47H11.1508C10.45 181.47 9.77788 181.192 9.28183 180.697C8.78578 180.202 8.50638 179.53 8.50493 178.83V149.479C8.50278 149.131 8.56948 148.786 8.70121 148.464C8.83294 148.141 9.02709 147.848 9.27249 147.601C9.5179 147.354 9.80971 147.159 10.1311 147.025C10.4526 146.891 10.7973 146.822 11.1454 146.822Z" fill="black"/>
<path d="M40.4958 148.682H11.1508C10.717 148.682 10.3652 149.033 10.3652 149.467V178.812C10.3652 179.246 10.717 179.598 11.1508 179.598H40.4958C40.9297 179.598 41.2814 179.246 41.2814 178.812V149.467C41.2814 149.033 40.9297 148.682 40.4958 148.682Z" fill="white"/>
<path d="M26.0389 174.1C25.6543 174.1 25.2744 174.015 24.927 173.849C24.5797 173.684 24.2735 173.444 24.0312 173.145L15.1389 162.278C14.7288 161.743 14.5433 161.069 14.6215 160.4C14.6998 159.731 15.0356 159.118 15.5579 158.692C16.0802 158.267 16.748 158.061 17.4193 158.119C18.0907 158.177 18.7128 158.495 19.154 159.004L25.9297 167.291L43.0598 144.127C43.4808 143.608 44.0859 143.271 44.7489 143.187C45.412 143.102 46.0821 143.277 46.6197 143.674C47.1574 144.071 47.5211 144.66 47.6354 145.319C47.7498 145.977 47.6058 146.654 47.2335 147.21L28.1393 173.058C27.9046 173.375 27.6 173.635 27.2491 173.817C26.8981 173.998 26.5104 174.097 26.1153 174.105L26.0389 174.1Z" fill="#2563EB"/>
<path d="M175.165 76.5879C174.165 76.589 173.188 76.2936 172.356 75.7392C171.525 75.1847 170.877 74.3961 170.493 73.4731C170.11 72.5502 170.01 71.5343 170.204 70.5539C170.398 69.5736 170.879 68.673 171.585 67.9659C172.291 67.2589 173.192 66.7772 174.172 66.5818C175.152 66.3865 176.168 66.4862 177.091 66.8684C178.015 67.2506 178.804 67.8981 179.359 68.7289C179.914 69.5598 180.211 70.5367 180.211 71.5361C180.208 72.8741 179.676 74.1566 178.73 75.1032C177.784 76.0498 176.503 76.5836 175.165 76.5879ZM175.165 67.7882C174.422 67.7871 173.695 68.0065 173.077 68.4185C172.459 68.8305 171.977 69.4167 171.692 70.1027C171.408 70.7888 171.333 71.5439 171.478 72.2725C171.622 73.0011 171.98 73.6704 172.505 74.1956C173.03 74.7209 173.7 75.0785 174.428 75.2231C175.157 75.3678 175.912 75.293 176.598 75.0082C177.284 74.7234 177.87 74.2415 178.282 73.6235C178.694 73.0054 178.913 72.2789 178.912 71.5361C178.911 70.5426 178.516 69.5901 177.813 68.8876C177.11 68.185 176.158 67.7897 175.165 67.7882Z" fill="#2563EB"/>
<path d="M19.8033 33.0417H11.6201V24.8585C11.6201 24.5547 11.4995 24.2633 11.2847 24.0484C11.0698 23.8336 10.7782 23.7129 10.4744 23.7129C10.1705 23.7129 9.87914 23.8336 9.66429 24.0484C9.44944 24.2633 9.32892 24.5547 9.32892 24.8585V33.0417H1.1457C0.841858 33.0417 0.550224 33.1625 0.335373 33.3773C0.120522 33.5922 0 33.8836 0 34.1874C0 34.4913 0.120522 34.7827 0.335373 34.9975C0.550224 35.2124 0.841858 35.3331 1.1457 35.3331H9.32892V43.5163C9.32892 43.8201 9.44944 44.1115 9.66429 44.3264C9.87914 44.5412 10.1705 44.6619 10.4744 44.6619C10.7782 44.6619 11.0698 44.5412 11.2847 44.3264C11.4995 44.1115 11.6201 43.8201 11.6201 43.5163V35.3331H19.8033C20.1071 35.3331 20.3985 35.2124 20.6133 34.9975C20.8282 34.7827 20.949 34.4913 20.949 34.1874C20.949 33.8836 20.8282 33.5922 20.6133 33.3773C20.3985 33.1625 20.1071 33.0417 19.8033 33.0417Z" fill="#2563EB"/>
<path d="M138.378 179.325L130.877 174.066C130.684 173.93 130.455 173.857 130.219 173.857C129.984 173.857 129.754 173.93 129.562 174.066L122.721 178.867L115.874 174.066C115.682 173.93 115.452 173.857 115.217 173.857C114.981 173.857 114.752 173.93 114.559 174.066L107.718 178.867L100.877 174.066C100.684 173.93 100.455 173.857 100.22 173.857C99.9842 173.857 99.7545 173.93 99.5622 174.066L92.7154 178.867L85.8742 174.066C85.6819 173.93 85.4525 173.857 85.2171 173.857C84.9817 173.857 84.752 173.93 84.5596 174.066L77.7185 178.867L70.8773 174.066C70.6849 173.93 70.4552 173.857 70.2198 173.857C69.9844 173.857 69.7547 173.93 69.5624 174.066L62.0558 179.325C61.9324 179.412 61.8273 179.522 61.7465 179.649C61.6657 179.776 61.6107 179.918 61.5848 180.067C61.559 180.215 61.5627 180.367 61.5958 180.514C61.6288 180.661 61.6905 180.8 61.7774 180.924C61.9521 181.171 62.2181 181.34 62.5166 181.392C62.8152 181.444 63.1221 181.376 63.3704 181.202L70.2116 176.406L77.0528 181.202C77.2463 181.337 77.4767 181.41 77.7129 181.41C77.949 181.41 78.1795 181.337 78.373 181.202L85.2141 176.406L92.0553 181.202C92.2477 181.337 92.4774 181.41 92.7128 181.41C92.9482 181.41 93.1778 181.337 93.3702 181.202L100.211 176.406L107.058 181.202C107.25 181.337 107.48 181.41 107.715 181.41C107.951 181.41 108.18 181.337 108.373 181.202L115.214 176.406L122.055 181.202C122.247 181.337 122.477 181.41 122.713 181.41C122.948 181.41 123.178 181.337 123.37 181.202L130.211 176.406L137.058 181.202C137.307 181.377 137.615 181.446 137.914 181.394C138.214 181.342 138.481 181.172 138.656 180.924C138.831 180.675 138.9 180.366 138.848 180.067C138.796 179.767 138.627 179.5 138.378 179.325Z" fill="#2563EB"/>
<path d="M142.612 17.9859C142.612 17.9859 144.374 20.4845 147.052 20.6099C148.689 20.6863 150.162 19.9062 151.488 18.2914C153.124 16.2783 154.188 15.8855 154.761 15.9128C155.623 15.9564 156.398 17.0039 157.063 17.9859C157.063 17.9859 158.82 20.4845 161.504 20.6099C163.141 20.6863 164.614 19.9062 165.939 18.2914C166.938 17.0802 167.931 16.4747 168.902 16.4965C170.397 16.5238 171.537 17.9968 171.558 18.0295C171.74 18.2733 172.011 18.435 172.312 18.479C172.613 18.523 172.918 18.4457 173.162 18.2641C173.406 18.0825 173.568 17.8115 173.612 17.5107C173.656 17.2099 173.579 16.904 173.397 16.6602C173.326 16.562 171.597 14.2707 168.967 14.2052C167.254 14.1616 165.639 15.0454 164.172 16.8348C163.337 17.844 162.492 18.3459 161.651 18.3241C160.408 18.2859 159.262 17.1075 158.956 16.6875C158.198 15.5964 156.943 13.7251 154.87 13.6269C153.234 13.5506 151.548 14.598 149.709 16.8348C148.875 17.844 148.029 18.3459 147.189 18.3241C145.945 18.2859 144.799 17.1075 144.488 16.6875C143.736 15.5964 142.481 13.7251 140.408 13.6269C138.771 13.5506 137.085 14.598 135.247 16.8348C134.412 17.844 133.567 18.3459 132.726 18.3241C131.477 18.2859 130.337 17.1075 130.026 16.6875C129.273 15.5964 128.018 13.7251 125.945 13.6269C124.309 13.5506 122.623 14.598 120.784 16.8348C120.615 17.0389 120.523 17.2954 120.522 17.5603C120.521 17.7298 120.558 17.8973 120.631 18.0504C120.704 18.2034 120.81 18.338 120.943 18.4441C121.177 18.6366 121.477 18.7286 121.779 18.7C122.08 18.6714 122.358 18.5244 122.552 18.2914C124.189 16.2783 125.253 15.8855 125.825 15.9128C126.687 15.9564 127.462 17.0039 128.127 17.9804C128.127 17.9804 129.884 20.4845 132.568 20.6099C134.205 20.6863 135.672 19.9062 137.003 18.2914C138.64 16.2783 139.704 15.8855 140.277 15.9128C141.171 15.9564 141.951 17.0039 142.612 17.9859Z" fill="#2563EB"/>
<path d="M173.293 113.435C173.504 113.382 173.699 113.278 173.86 113.131C174.021 112.984 174.143 112.8 174.215 112.595C174.421 112.073 174.456 111.5 174.313 110.958C174.313 110.958 174.258 110.723 174.149 110.287C174.089 110.063 174.024 109.796 173.942 109.474C173.86 109.152 173.756 108.798 173.636 108.383C172.996 106.114 172.211 103.89 171.285 101.722C169.977 98.6437 168.402 95.6864 166.577 92.8839C165.579 91.3509 164.488 89.8179 163.304 88.3395C162.12 86.8611 160.86 85.4154 159.545 84.0515C157.021 81.4289 154.284 79.0202 151.362 76.8503C148.894 75.0203 146.316 73.3442 143.642 71.8312C141.329 70.5274 139.365 69.5617 137.98 68.918C137.287 68.5961 136.741 68.3725 136.37 68.187L135.797 67.936C135.699 67.8924 135.601 67.8596 135.503 67.8269L135.143 67.6742C133.646 67.0124 131.959 66.925 130.402 67.4287C129.732 67.6394 129.12 68.0036 128.615 68.4923C128.11 68.981 127.726 69.5807 127.494 70.2437C127.268 70.927 127.204 71.6537 127.309 72.3659L127.161 72.3113C125.705 71.7932 124.102 71.8736 122.704 72.535C122.086 72.8238 121.54 73.2469 121.106 73.7736C120.672 74.3002 120.36 74.917 120.195 75.5792C119.955 76.5933 120.027 77.6564 120.402 78.6287C120.759 79.581 121.363 80.4209 122.153 81.0619C121.544 81.6528 121.099 82.3915 120.86 83.2059C120.546 84.2484 120.546 85.3603 120.86 86.4028C121.147 87.3731 121.717 88.2357 122.497 88.8796C121.947 89.4522 121.529 90.1371 121.269 90.8872C120.838 92.1209 120.82 93.4617 121.22 94.7061C121.379 95.2446 121.65 95.7436 122.014 96.1705C122.379 96.5973 122.83 96.9423 123.337 97.1828C123.337 97.1828 123.801 97.3792 124.477 97.6956C125.154 98.0121 126.049 98.4539 126.916 98.9122C127.783 99.3705 128.623 99.8615 129.24 100.238L129.976 100.696L130.249 100.876C130.313 100.917 130.38 100.949 130.451 100.974L130.685 101.127L131.329 101.569C131.875 101.951 132.655 102.507 133.512 103.206C134.479 103.985 135.404 104.816 136.283 105.693C137.238 106.653 138.126 107.677 138.94 108.759C139.717 109.799 140.419 110.893 141.04 112.033C141.565 113.024 142.03 114.046 142.431 115.093C142.775 116.021 143.009 116.823 143.168 117.384C143.255 117.668 143.299 117.93 143.342 118.05C143.386 118.17 144.652 122.922 144.652 122.922C144.777 123.467 147.505 122.114 148.334 121.956L173.293 113.435Z" fill="white"/>
<path d="M144.766 124.612C144.399 124.602 144.044 124.472 143.757 124.243C143.469 124.014 143.264 123.697 143.173 123.341C142.955 122.544 141.957 118.829 141.864 118.485C141.864 118.414 141.826 118.338 141.804 118.24C141.782 118.141 141.749 118 141.706 117.863C141.531 117.252 141.318 116.527 141.002 115.681C140.631 114.693 140.195 113.731 139.698 112.801C139.113 111.725 138.451 110.693 137.718 109.713C136.945 108.687 136.103 107.715 135.197 106.805C134.36 105.971 133.479 105.182 132.557 104.443C131.733 103.777 131.002 103.253 130.451 102.866L129.72 102.375C129.61 102.324 129.505 102.266 129.403 102.201L129.142 102.031L128.422 101.579C127.74 101.164 126.921 100.695 126.185 100.308C125.208 99.762 124.286 99.3419 123.822 99.1237L122.961 98.7309L122.715 98.6218C122.013 98.2958 121.387 97.8257 120.879 97.242C120.37 96.6583 119.99 95.9741 119.764 95.2339C119.254 93.6593 119.277 91.9606 119.829 90.4004C119.999 89.9099 120.222 89.4397 120.495 88.9983C120.007 88.3557 119.638 87.6316 119.404 86.8598C119.005 85.5306 119.005 84.1137 119.404 82.7845C119.573 82.2225 119.815 81.6851 120.124 81.1861C119.64 80.5816 119.255 79.9039 118.984 79.1785C118.499 77.9185 118.409 76.5408 118.727 75.2287C118.949 74.351 119.361 73.5328 119.934 72.8322C120.507 72.1316 121.228 71.566 122.044 71.1753C123.231 70.604 124.552 70.3682 125.863 70.4933C125.912 70.2498 125.976 70.0093 126.054 69.7732C126.363 68.8894 126.871 68.0888 127.54 67.434C128.209 66.7791 129.021 66.2877 129.911 65.998C130.885 65.6705 131.913 65.537 132.939 65.6052C133.906 65.673 134.856 65.9017 135.748 66.2817L136.043 66.4072C136.163 66.4454 136.288 66.4945 136.408 66.5436L136.992 66.8L138.629 67.5419C140.544 68.4366 142.486 69.435 144.395 70.5152C147.126 72.0587 149.759 73.7695 152.278 75.6379C155.276 77.8586 158.084 80.3238 160.674 83.0082C162.016 84.4103 163.315 85.8887 164.52 87.3726C165.65 88.7856 166.785 90.3567 167.881 92.0316C171.08 96.9456 173.524 102.312 175.131 107.951L175.229 108.3C175.311 108.583 175.382 108.845 175.442 109.08L175.819 110.575C176.038 111.427 175.979 112.328 175.65 113.144C175.49 113.564 175.233 113.941 174.899 114.241C174.565 114.542 174.164 114.759 173.729 114.874L148.743 123.471H148.645C148.275 123.579 147.911 123.707 147.554 123.853C146.283 124.361 145.47 124.655 144.766 124.612ZM144.635 116.974C144.701 117.187 144.744 117.378 144.777 117.52C144.81 117.661 144.804 117.623 144.815 117.667L145.775 121.235C146.026 121.147 146.272 121.049 146.457 120.978C146.934 120.78 147.422 120.612 147.92 120.476L172.818 111.933C172.878 111.725 172.878 111.503 172.818 111.295L172.447 109.816C172.393 109.615 172.327 109.38 172.251 109.124L172.153 108.769C171.529 106.564 170.765 104.401 169.867 102.293C168.596 99.2961 167.062 96.4171 165.284 93.69C164.237 92.0916 163.167 90.6022 162.098 89.2656C160.947 87.8254 159.714 86.4179 158.427 85.0813C155.959 82.5167 153.28 80.1644 150.418 78.0492C148.001 76.2555 145.474 74.6157 142.851 73.1392C141.013 72.0972 139.141 71.1371 137.303 70.2751C136.61 69.9587 136.076 69.7296 135.727 69.5604L135.148 69.3095L135.039 69.2713L134.957 69.244L134.559 69.124C133.982 68.8767 133.368 68.7273 132.742 68.6821C132.126 68.6364 131.506 68.7143 130.92 68.9112C130.471 69.0471 130.059 69.286 129.718 69.6089C129.377 69.9319 129.116 70.33 128.956 70.7716C128.809 71.231 128.768 71.7179 128.836 72.1955L129.185 74.6668L126.681 73.7994C126.29 73.6639 125.883 73.5814 125.47 73.5539C124.755 73.5008 124.038 73.6363 123.391 73.9467C122.975 74.1389 122.606 74.4219 122.312 74.7749C122.019 75.1279 121.808 75.542 121.695 75.987C121.529 76.7026 121.582 77.4515 121.848 78.1365C122.111 78.8335 122.553 79.4487 123.13 79.9204L124.466 81.0115L123.228 82.2062C122.81 82.6168 122.504 83.1277 122.339 83.6901C122.112 84.4464 122.112 85.2524 122.339 86.0087C122.532 86.6875 122.924 87.2933 123.463 87.749L124.739 88.7637L123.577 89.9585C123.182 90.3692 122.884 90.8632 122.704 91.4042C122.377 92.3209 122.361 93.3202 122.661 94.2465C122.752 94.577 122.911 94.8852 123.127 95.1517C123.343 95.4183 123.611 95.6376 123.915 95.7959C124.128 95.8831 124.461 96.0413 125.11 96.3414C125.607 96.576 126.583 97.0397 127.625 97.6016C128.411 98.0162 129.262 98.5181 130.025 98.9655L131.008 99.5874L131.117 99.6256L131.782 100.067L132.197 100.346C132.786 100.76 133.577 101.328 134.472 102.048C135.484 102.86 136.451 103.727 137.368 104.645C138.373 105.658 139.31 106.737 140.173 107.874C140.994 108.975 141.735 110.135 142.388 111.344C142.95 112.401 143.442 113.495 143.86 114.617C144.242 115.61 144.499 116.505 144.635 116.996V116.974Z" fill="black"/>
<path d="M177.968 111.766L178.051 111.995C178.1 112.142 178.176 112.36 178.269 112.644C178.361 112.928 178.476 113.26 178.607 113.664C178.738 114.068 178.885 114.521 179.043 115.023C179.202 115.524 179.382 116.114 179.589 116.692C179.796 117.27 179.96 117.941 180.167 118.64C180.593 120.031 181.013 121.58 181.487 123.282C183.702 131.527 185.493 139.879 186.855 148.306C187.597 152.894 188.203 157.504 188.656 161.852C188.923 164.035 189.06 166.135 189.229 168.132C189.31 169.13 189.387 170.106 189.463 171.045C189.54 171.983 189.561 172.905 189.605 173.773C189.687 175.529 189.769 177.139 189.834 178.562C189.9 179.986 189.878 181.241 189.9 182.267C189.927 184.324 189.943 185.502 189.943 185.502L151.722 185.551C151.722 185.551 151.722 184.58 151.679 182.883C151.679 182.038 151.679 181.007 151.635 179.817C151.591 178.628 151.509 177.297 151.439 175.835C151.4 175.104 151.373 174.34 151.324 173.554C151.275 172.769 151.193 171.95 151.122 171.116C150.98 169.441 150.877 167.668 150.648 165.84C150.266 162.185 149.753 158.285 149.12 154.384C147.975 147.274 146.467 140.227 144.603 133.271C144.205 131.875 143.861 130.576 143.512 129.452C143.348 128.907 143.195 128.361 143.048 127.887C142.901 127.412 142.764 126.981 142.639 126.588C142.513 126.195 142.41 125.846 142.312 125.563C142.213 125.279 142.131 125.017 142.066 124.826L141.919 124.384L141.87 124.248L177.968 111.766Z" fill="#2563EB"/>
<path d="M151.428 187.574C151.529 187.585 151.632 187.585 151.733 187.574C152.001 187.571 152.265 187.515 152.511 187.41C152.756 187.305 152.979 187.152 153.166 186.96C153.352 186.768 153.499 186.542 153.598 186.293C153.696 186.045 153.745 185.779 153.741 185.512L153.702 182.844C153.702 182.527 153.702 182.2 153.702 181.845C153.702 181.224 153.702 180.52 153.67 179.756C153.672 179.74 153.672 179.723 153.67 179.707L153.473 175.719C153.473 175.452 153.473 175.173 153.435 174.912C153.435 174.426 153.392 173.93 153.359 173.422V173.379L153.157 170.935L153.042 169.483C152.944 168.234 152.846 166.941 152.672 165.599C152.273 161.731 151.755 157.852 151.139 154.061C149.979 146.881 148.453 139.765 146.567 132.741L146.223 131.497C145.967 130.564 145.721 129.68 145.476 128.884L145.012 127.323C145.012 127.323 145.012 127.323 145.012 127.296L144.603 125.998C144.548 125.834 144.505 125.676 144.456 125.534L176.725 114.345C176.856 114.727 176.987 115.147 177.134 115.616L177.679 117.253L178.258 119.184C178.569 120.215 178.885 121.366 179.212 122.539L179.567 123.799C181.762 131.968 183.536 140.244 184.881 148.594C185.601 153.013 186.201 157.536 186.67 162.031C186.673 162.044 186.673 162.057 186.67 162.069C186.861 163.624 186.986 165.179 187.101 166.679C187.145 167.225 187.188 167.77 187.232 168.272L187.466 171.153C187.499 171.764 187.532 172.364 187.559 172.948C187.559 173.253 187.559 173.553 187.603 173.853L187.832 178.61C187.832 179.549 187.87 180.422 187.881 181.191C187.881 181.578 187.881 181.938 187.881 182.282L187.925 185.506C187.958 186.029 188.191 186.518 188.575 186.874C188.959 187.23 189.465 187.424 189.988 187.417C190.512 187.41 191.012 187.202 191.387 186.836C191.761 186.47 191.981 185.975 192 185.452L191.956 182.216C191.956 181.878 191.956 181.518 191.956 181.125C191.956 180.34 191.956 179.445 191.907 178.469V178.425L191.673 173.635C191.673 173.335 191.645 173.04 191.629 172.74C191.602 172.135 191.569 171.513 191.531 170.88V170.836L191.296 167.923C191.253 167.378 191.209 166.876 191.171 166.346C191.045 164.808 190.92 163.22 190.718 161.578C190.243 157.012 189.627 152.419 188.901 147.94C187.53 139.442 185.724 131.021 183.489 122.708C183.369 122.272 183.255 121.852 183.14 121.448C182.802 120.226 182.48 119.069 182.153 118L181.58 116.069L181.034 114.399C180.876 113.887 180.729 113.428 180.587 112.997L179.938 111.082C179.851 110.83 179.715 110.597 179.538 110.398C179.36 110.198 179.145 110.035 178.905 109.918C178.665 109.802 178.404 109.734 178.138 109.718C177.871 109.703 177.604 109.74 177.352 109.828L141.237 122.375C140.727 122.555 140.309 122.929 140.074 123.415C139.839 123.902 139.806 124.461 139.982 124.972L140.031 125.109C140.058 125.185 140.102 125.321 140.156 125.496L140.402 126.238C140.495 126.505 140.598 126.832 140.724 127.231L141.128 128.513L141.591 130.062C141.821 130.809 142.06 131.666 142.311 132.572C142.421 132.975 142.535 133.39 142.655 133.815C144.505 140.695 145.998 147.666 147.129 154.699C147.734 158.425 148.22 162.233 148.634 166.03V166.074C148.792 167.328 148.891 168.583 148.983 169.789C149.022 170.285 149.06 170.782 149.104 171.267L149.3 173.673C149.327 174.159 149.349 174.628 149.371 175.086C149.371 175.37 149.398 175.632 149.409 175.915L149.605 179.871C149.605 180.602 149.606 181.278 149.638 181.878C149.638 182.244 149.638 182.582 149.638 182.898L149.676 185.561C149.677 186.051 149.854 186.524 150.176 186.894C150.498 187.264 150.942 187.505 151.428 187.574Z" fill="#2563EB"/>
<path d="M170.887 182.424H170.98C171.099 182.428 171.217 182.409 171.328 182.367C171.44 182.326 171.542 182.262 171.628 182.181C171.715 182.1 171.785 182.003 171.834 181.894C171.883 181.786 171.91 181.669 171.913 181.551C171.913 181.338 172.082 176.281 171.024 166.897C170.047 158.267 167.8 144.219 162.639 126.298C162.559 126.084 162.401 125.908 162.197 125.805C161.993 125.703 161.758 125.681 161.539 125.745C161.319 125.808 161.132 125.952 161.014 126.148C160.897 126.343 160.857 126.576 160.904 126.799C166.027 144.601 168.258 158.539 169.223 167.099C170.271 176.373 170.107 181.436 170.107 181.491C170.097 181.716 170.171 181.936 170.316 182.109C170.46 182.281 170.664 182.394 170.887 182.424Z" fill="black"/>
<path d="M182.644 167.231C182.841 167.247 183.038 167.199 183.205 167.092C183.372 166.986 183.5 166.828 183.569 166.643C183.637 166.457 183.643 166.254 183.586 166.065C183.528 165.875 183.41 165.71 183.249 165.594C179.016 162.943 173.211 161.142 165.994 160.248C162.819 159.847 159.62 159.664 156.419 159.702C156.179 159.709 155.951 159.81 155.786 159.985C155.621 160.159 155.532 160.392 155.538 160.632C155.545 160.872 155.647 161.1 155.821 161.265C155.995 161.431 156.228 161.52 156.469 161.513C156.632 161.513 172.71 161.126 182.289 167.133C182.399 167.19 182.52 167.223 182.644 167.231Z" fill="black"/>
<path d="M156.032 157.879C156.203 157.902 156.376 157.877 156.534 157.808C156.665 157.743 169.884 151.687 181.269 153.989C181.499 154.025 181.734 153.971 181.925 153.838C182.116 153.704 182.249 153.503 182.295 153.275C182.341 153.047 182.298 152.809 182.174 152.612C182.05 152.415 181.855 152.273 181.629 152.216C169.627 149.767 156.332 155.883 155.77 156.144C155.591 156.225 155.444 156.363 155.351 156.535C155.257 156.708 155.223 156.906 155.253 157.1C155.282 157.294 155.374 157.473 155.515 157.61C155.656 157.746 155.837 157.833 156.032 157.857V157.879Z" fill="black"/>
<mask id="mask0_936_73557" style="mask-type:alpha" maskUnits="userSpaceOnUse" x="2" y="5" width="154" height="153">
<path d="M11.5218 117.929L98.2365 155.931C101.702 157.445 105.626 157.522 109.148 156.146C112.67 154.771 115.503 152.055 117.025 148.594L154.461 63.172C155.974 59.7057 156.049 55.7804 154.671 52.2585C153.292 48.7366 150.571 45.906 147.107 44.3887L60.3646 6.38043C56.9004 4.86604 52.9769 4.78815 49.4553 6.16386C45.9337 7.53957 43.1017 10.2564 41.5813 13.7181L4.1732 99.129C2.65735 102.597 2.57987 106.524 3.9577 110.049C5.33553 113.574 8.05614 116.408 11.5218 117.929Z" fill="#007AFF"/>
</mask>
<g mask="url(#mask0_936_73557)">
<path d="M168.061 46.3914L47.875 -5.17578L-3.69223 115.011L116.494 166.578L168.061 46.3914Z" fill="#2563EB"/>
<path d="M75.8046 88.7854C83.2733 91.9899 91.7089 92.0962 99.2559 89.081C106.803 86.0658 112.843 80.176 116.048 72.7074C123.202 56.0338 112.505 38.9428 99.9698 32.4642C90.9779 27.818 77.4086 26.7469 68.2142 34.2581C62.2593 39.1307 60.4603 45.7097 59.7266 48.5422C56.7477 60.0776 58.3637 81.3022 75.8046 88.7854Z" fill="black"/>
<path d="M57.7474 61.2675C57.6184 61.2127 57.5082 61.1211 57.4309 61.0042C57.3535 60.8873 57.3124 60.7503 57.3124 60.6102C57.3022 58.0264 57.5902 55.4501 58.1708 52.9324C59.4308 47.6985 61.7669 42.7842 65.03 38.5024C68.5972 33.8369 72.8593 30.5369 77.3618 28.9602C83.8585 26.6901 91.8336 27.6981 99.2419 31.7361C107.106 36.0245 113.596 43.2753 117.506 52.1617C117.553 52.249 117.582 52.345 117.59 52.4437C117.598 52.5425 117.586 52.6419 117.553 52.7357C117.521 52.8294 117.47 52.9155 117.403 52.9886C117.336 53.0617 117.255 53.1201 117.164 53.1603C117.074 53.2004 116.976 53.2215 116.877 53.222C116.778 53.2226 116.68 53.2025 116.588 53.1634C116.497 53.1242 116.416 53.0666 116.348 52.9943C116.28 52.922 116.228 52.8365 116.195 52.7431C112.407 44.1447 106.144 37.133 98.5538 32.9953C91.4995 29.153 83.9498 28.1743 77.8355 30.3183C71.0494 32.6887 62.4379 40.8824 59.5709 53.254C59.0123 55.6649 58.7361 58.1327 58.7477 60.6075C58.7481 60.7014 58.7298 60.7945 58.6942 60.8815C58.6586 60.9684 58.6063 61.0476 58.5401 61.1143C58.4739 61.1809 58.3951 61.2338 58.3084 61.27C58.2216 61.3062 58.1286 61.3249 58.0346 61.3251C57.9359 61.3254 57.8383 61.3058 57.7474 61.2675Z" fill="black"/>
<path d="M63.5723 58.9824C63.5723 58.9824 62.5458 52.521 57.0583 52.9745C49.3535 53.6206 48.9027 69.2402 55.7541 73.4279C62.6056 77.6155 63.5723 58.9824 63.5723 58.9824Z" fill="white"/>
<path d="M55.4954 59.0911C54.4228 60.1413 53.6499 61.4587 53.2564 62.9073C52.863 64.3558 52.8632 65.8832 53.257 67.3317C53.4937 68.2214 54.8896 67.8899 54.6502 66.9935C54.3129 65.7879 54.3068 64.5136 54.6327 63.3049C54.9587 62.0962 55.6046 60.9978 56.5024 60.1253C57.1215 59.4987 56.1489 58.4355 55.4954 59.0911Z" fill="#2563EB"/>
<path d="M65.5508 82.8691L46.1607 134.605L73.5175 146.622L89.7376 103.345L83.6285 98.1681L65.5508 82.8691Z" fill="white"/>
<path d="M62.6747 93.6933C62.781 99.1344 64.5969 104.404 67.8652 108.756C71.2581 113.337 79.1876 115.535 84.7703 116.556C89.1256 105.555 93.4803 94.5552 97.8343 83.5569C93.1015 88.4302 88.365 93.3037 83.6246 98.1774L62.6747 93.6933Z" fill="#BFDBFE"/>
<path d="M102.423 78.3235C101.65 77.7129 107.448 72.3133 106.379 66.1948C105.804 62.9159 103.807 62.5188 103.707 59.3834C103.565 55.0202 107.38 53.9366 107.198 50.7114C106.917 45.6645 97.2554 42.3621 91.1297 40.2593C84.825 38.1015 80.6546 38.0363 78.2464 38.1635C76.2459 38.2319 74.2612 38.5439 72.3361 39.0924C63.7884 41.8563 60.2632 53.2996 56.7196 64.8117C53.4643 75.3966 53.6039 81.2201 53.9479 84.6409C54.3485 88.6442 54.6966 91.7493 56.9053 94.9192C61.8784 102.056 70.9042 103.115 72.9456 103.345C77.2351 103.745 81.5585 103.133 85.5683 101.558C102.276 95.1467 109.565 74.8035 108.362 73.9477C107.678 73.4626 103.21 78.9513 102.423 78.3235Z" fill="white"/>
<path d="M83.7514 69.3318C82.7902 71.3551 82.9782 73.4555 84.1695 74.0214C85.3608 74.5873 87.1056 73.4037 88.0437 71.3705C88.9817 69.3373 88.8233 67.2441 87.6321 66.6782C86.4408 66.1124 84.7192 67.3059 83.7514 69.3318Z" fill="black"/>
<path d="M65.9348 61.7035C65.1929 63.8154 65.591 65.8855 66.8358 66.3266C68.0806 66.7676 69.6934 65.407 70.4399 63.2971C71.1865 61.1872 70.7858 59.1104 69.539 58.674C68.2921 58.2376 66.6833 59.5889 65.9348 61.7035Z" fill="black"/>
<path d="M89.5703 57.6965C87.6459 57.0788 85.2405 57.2126 84.6656 59.5221C84.2839 61.0496 85.7861 61.4643 86.9537 61.7792C89.2678 62.3944 91.176 64.0068 93.4623 64.5718C93.8457 64.6914 94.2531 64.7117 94.6465 64.631C95.8805 64.3066 95.4807 63.0951 94.9388 62.3043C94.1333 61.0472 93.1396 59.9211 91.9924 58.9656C91.2663 58.4029 90.4463 57.9733 89.5703 57.6965Z" fill="black"/>
<path d="M72.2477 50.6905C70.0136 49.8633 67.4924 50.2922 65.3178 51.0997C64.9086 51.2051 64.5526 51.4578 64.3182 51.8094C64.2342 51.9975 64.2036 52.2051 64.2299 52.4095C64.2561 52.6139 64.3382 52.8071 64.467 52.968C64.7281 53.285 65.065 53.5311 65.4463 53.6836C67.3825 54.5801 69.7118 54.6873 71.7391 55.4093C72.6875 55.7505 74.2367 56.8094 75.1783 55.8778C76.7608 54.3072 75.0164 52.3382 73.3954 51.2814C73.0337 51.0462 72.6492 50.8482 72.2477 50.6905Z" fill="black"/>
<path d="M106.551 75.1285C106.551 75.1285 111.473 70.8143 115.398 74.6771C120.907 80.1059 111.26 92.3981 103.321 91.2304C95.3814 90.0627 106.551 75.1285 106.551 75.1285Z" fill="white"/>
<path d="M109.562 79.4526C109.715 80.9486 109.465 82.4582 108.839 83.8254C108.213 85.1926 107.233 86.3677 106.001 87.2296C105.229 87.7524 104.388 86.6141 105.143 86.0788C106.173 85.372 106.994 84.4015 107.52 83.2687C108.047 82.136 108.259 80.8826 108.136 79.6397C108.04 78.7011 109.463 78.5233 109.562 79.4526Z" fill="#2563EB"/>
<path d="M80.3518 43.4602C88.2003 46.6634 98.1559 44.9305 98.9736 41.7235C99.6047 39.2576 94.7911 36.1632 85.3553 30.0895C76.5798 24.4414 75.1978 25.2387 74.876 25.5932C73.9172 26.6159 76.6001 29.9564 75.6426 30.8484C74.2359 32.1496 68.3321 26.5185 67.333 27.4308C66.1708 28.4429 70.4998 39.441 80.3518 43.4602Z" fill="black"/>
<path d="M79.1465 43.7694L78.5272 43.5037C70.8056 39.8896 66.4821 32.0301 65.9881 28.8186C65.8537 27.9454 65.9742 27.3458 66.3613 26.9919C67.2758 26.1363 69.0118 27.1931 71.3975 28.6491C72.4817 29.3114 74.2269 30.3722 74.9303 30.4933C74.759 29.9371 74.5405 29.3965 74.2771 28.8775C73.6449 27.5444 73.0041 26.1419 73.7897 25.3186C74.5754 24.4953 75.9795 24.7694 78.5991 26.1396C78.6859 26.1815 78.7634 26.2405 78.827 26.313C78.8906 26.3855 78.9389 26.47 78.9692 26.5615C78.9994 26.6531 79.0111 26.7498 79.0032 26.8459C78.9954 26.942 78.9684 27.0356 78.9236 27.1211C78.8789 27.2065 78.8173 27.282 78.7428 27.3432C78.6683 27.4044 78.5821 27.45 78.4896 27.4773C78.3971 27.5046 78.3001 27.513 78.2043 27.502C78.1085 27.491 78.016 27.4609 77.932 27.4134C75.7635 26.2804 75.0356 26.2801 74.8573 26.3131C74.8268 26.6776 75.3078 27.6996 75.575 28.2631C76.1848 29.5592 76.7656 30.7827 76.044 31.5459C75.0621 32.5587 73.1233 31.3875 70.6551 29.8687C69.6435 29.254 68.0125 28.2587 67.3627 28.1276C67.2134 29.8151 71.0413 38.4089 79.1379 42.1948C85.5665 45.1994 91.969 43.9398 95.217 42.9141C95.3912 42.8793 95.572 42.9102 95.7248 43.0008C95.8775 43.0915 95.9915 43.2354 96.0445 43.4049C96.0975 43.5745 96.0857 43.7576 96.0118 43.919C95.9378 44.0805 95.8068 44.2089 95.6438 44.2795C92.3133 45.3191 85.803 46.6254 79.1465 43.7694Z" fill="black"/>
<path d="M111.811 141.377C111.401 141.059 110.982 140.759 110.565 140.454C109.891 139.946 109.224 139.474 108.557 138.985C107.306 138.076 106.021 137.141 104.725 136.246C98.332 130.887 90.6849 124.497 86.6838 121.154C86.283 120.813 85.9059 120.492 85.5817 120.227L83.9423 118.856C83.9423 118.856 70.716 120.647 65.5266 120.648C64.9641 120.659 64.4019 120.621 63.8459 120.535L63.8181 120.523C63.782 120.514 63.7474 120.499 63.7163 120.479C63.5489 120.414 63.3913 120.326 63.2481 120.218C63.0461 120.054 62.8579 119.875 62.6851 119.681C62.4469 119.414 62.2229 119.136 62.0142 118.846C59.4635 115.491 56.0869 108.18 56.0869 108.18L53.9345 108.209L52.4028 108.219L30.8465 108.478C30.3188 108.432 24.7173 107.977 16.8227 107.765L14.813 107.729C10.1612 107.638 4.85294 107.648 -0.577641 107.88L-3.62407 114.98L116.562 166.547L123.49 150.401C119.606 147.283 115.693 144.258 111.811 141.377Z" fill="black"/>
<path d="M61.9878 118.894C62.3407 119.398 62.7575 119.855 63.2277 120.252L48.8035 121.25C48.6849 121.258 48.5662 121.237 48.4578 121.188C48.3494 121.139 48.2547 121.064 48.1825 120.97C48.1102 120.875 48.0624 120.764 48.0435 120.647C48.0246 120.529 48.0353 120.409 48.0743 120.297L52.3762 108.267L53.9079 108.256L49.7863 119.75L61.9878 118.894Z" fill="#2563EB"/>
<path d="M86.6457 121.166L71.983 133.972C71.8974 134.039 71.7985 134.088 71.6929 134.114C71.5872 134.141 71.4772 134.144 71.37 134.125C71.3197 134.111 71.2716 134.09 71.2266 134.064C71.0764 134.004 70.9536 133.89 70.8814 133.746L63.772 120.515C64.3351 120.62 64.9083 120.662 65.4807 120.64L71.7127 132.28L85.5358 120.219C85.8679 120.504 86.231 120.819 86.6457 121.166Z" fill="#2563EB"/>
<path d="M64.2336 129.913C63.6624 131.245 62.3845 131.977 61.386 131.549C60.3876 131.12 60.0429 129.692 60.6141 128.36C61.1853 127.029 62.4582 126.294 63.4567 126.723C64.4552 127.151 64.8068 128.577 64.2336 129.913Z" fill="white"/>
<path d="M53.2346 139.435C56.6567 133.109 60.1814 126.813 63.8082 120.545L63.7805 120.534C63.7443 120.525 63.7098 120.51 63.6787 120.49C63.5113 120.425 63.3537 120.337 63.2105 120.229C63.0085 120.065 62.8203 119.886 62.6474 119.692C58.954 126.054 55.3777 132.442 51.9185 138.854L53.2346 139.435Z" fill="#2563EB"/>
<path d="M69.3145 76.6735C69.254 76.6582 69.1962 76.6334 69.1434 76.6001C68.6099 76.1851 68.0883 75.7424 67.5925 75.2779C67.0966 74.8133 66.5982 74.304 66.1308 73.786C65.8687 73.4887 65.6691 73.1418 65.5439 72.7658C65.4186 72.3898 65.3703 71.9924 65.4019 71.5973C65.4335 71.2023 65.5442 70.8176 65.7276 70.4663C65.911 70.1149 66.1633 69.8041 66.4693 69.5524L73.3303 63.9848C73.4788 63.8659 73.6683 63.8107 73.8574 63.8313C74.0466 63.8519 74.2198 63.9467 74.3393 64.0948C74.3994 64.1673 74.4446 64.2512 74.4719 64.3413C74.4993 64.4314 74.5083 64.526 74.4987 64.6197C74.489 64.7134 74.4609 64.8043 74.4158 64.887C74.3706 64.9697 74.3095 65.0425 74.2359 65.1013L67.3772 70.6644C67.2164 70.7925 67.0836 70.952 66.9867 71.1333C66.8899 71.3146 66.8311 71.5138 66.8139 71.7186C66.7968 71.9235 66.8216 72.1296 66.887 72.3245C66.9523 72.5193 67.0567 72.6987 67.1939 72.8518C67.6303 73.3401 68.1004 73.7881 68.5626 74.2546C69.0247 74.7211 69.5159 75.107 70.0184 75.4922C70.1667 75.6109 70.262 75.7835 70.2836 75.9722C70.3052 76.1609 70.2512 76.3504 70.1335 76.4995C70.0331 76.6117 69.8998 76.6891 69.7525 76.7204C69.6053 76.7516 69.4519 76.7352 69.3145 76.6735Z" fill="#2563EB"/>
<path d="M67.4503 85.0252C66.965 84.818 66.4917 84.5838 66.0325 84.3238C64.2498 83.3205 62.6871 81.9687 61.4377 80.349C61.3735 80.2753 61.3251 80.1893 61.2953 80.0961C61.2654 80.003 61.2548 79.9046 61.2642 79.8073C61.2736 79.7099 61.303 79.6155 61.3501 79.5298C61.3973 79.4441 61.4613 79.3689 61.5385 79.3088C61.6157 79.2488 61.7044 79.2051 61.7991 79.1805C61.8937 79.1559 61.9924 79.1507 62.089 79.1655C62.1857 79.1803 62.2786 79.2148 62.3616 79.2667C62.4445 79.3185 62.516 79.3867 62.5717 79.4671C63.7029 80.9359 65.1186 82.1614 66.7344 83.0704C69.5398 84.5985 72.7702 85.1613 75.9271 84.672C76.0229 84.6523 76.1215 84.6523 76.2173 84.6721C76.3131 84.6919 76.4038 84.731 76.4839 84.787C76.564 84.8431 76.6321 84.9149 76.6836 84.998C76.7351 85.0812 76.769 85.174 76.7834 85.2707C76.7978 85.3674 76.7922 85.466 76.7672 85.5606C76.7422 85.6551 76.6982 85.7435 76.6378 85.8205C76.5775 85.8974 76.502 85.9613 76.4162 86.0081C76.3303 86.0549 76.2359 86.0837 76.1385 86.0928C73.1993 86.5393 70.194 86.17 67.4503 85.0252Z" fill="#2563EB"/>
</g>
<path d="M103.943 158.594C101.775 158.595 99.6311 158.144 97.6477 157.269L10.9056 119.266C7.08624 117.586 4.08925 114.46 2.57241 110.574C1.05557 106.687 1.1428 102.357 2.81508 98.5349L40.2506 13.1076C41.4817 10.3064 43.5019 7.92432 46.0644 6.25219C48.6268 4.58007 51.6207 3.69026 54.6805 3.69141C56.8484 3.69034 58.9927 4.14186 60.9761 5.01709L147.718 43.02C151.537 44.7004 154.533 47.8262 156.05 51.7122C157.568 55.5982 157.483 59.9273 155.814 63.7508L118.373 149.178C117.142 151.979 115.122 154.361 112.559 156.033C109.997 157.706 107.003 158.595 103.943 158.594ZM54.7023 6.64281C52.2168 6.63943 49.7839 7.35991 47.701 8.71621C45.6181 10.0725 43.9753 12.006 42.973 14.2805L5.53217 99.7078C4.8543 101.248 4.48653 102.907 4.45039 104.589C4.41426 106.271 4.71036 107.944 5.32146 109.512C5.93256 111.08 6.84681 112.511 8.0119 113.726C9.177 114.94 10.5699 115.912 12.1112 116.587L98.8533 154.595C100.462 155.312 102.204 155.684 103.965 155.686C106.451 155.69 108.884 154.969 110.966 153.613C113.049 152.257 114.692 150.323 115.694 148.049L153.108 62.5778C154.466 59.4756 154.539 55.9618 153.312 52.8056C152.085 49.6493 149.658 47.1077 146.562 45.7368L59.8195 7.72847C58.2063 7.02069 56.464 6.65474 54.7023 6.65373V6.64281Z" fill="black"/>
<path d="M133.31 83.6969C141.673 83.1514 147.314 83.3969 155.41 86.4246L153.61 115.693C147.063 111.656 145.972 102.224 149.087 94.5533C143.315 92.4366 139.699 92.4529 133.872 92.993C131.614 93.2767 129.693 92.0274 129.3 89.0378C128.875 85.83 131.002 83.9588 133.31 83.6969Z" fill="white"/>
<path d="M153.512 117.133C153.829 117.152 154.144 117.065 154.407 116.885C154.67 116.705 154.866 116.443 154.963 116.14C155.061 115.837 155.054 115.51 154.946 115.211C154.837 114.911 154.632 114.657 154.362 114.487C148.209 110.668 147.734 101.667 150.418 95.1092C150.558 94.7589 150.558 94.3684 150.418 94.0181C150.34 93.8414 150.228 93.6822 150.087 93.5501C149.947 93.4179 149.781 93.3154 149.6 93.2488C143.806 91.1267 140.031 91.023 133.779 91.6122C132.044 91.8304 131.018 90.8866 130.757 88.8845C130.672 88.4338 130.681 87.9707 130.781 87.5234C130.882 87.076 131.072 86.6538 131.34 86.2822C131.875 85.6319 132.642 85.2168 133.479 85.1257C141.744 84.5801 147.074 84.831 154.946 87.7988C155.122 87.8651 155.309 87.8961 155.497 87.89C155.685 87.8839 155.87 87.8409 156.041 87.7634C156.212 87.6859 156.366 87.5754 156.495 87.4383C156.624 87.3011 156.724 87.14 156.79 86.9641C156.856 86.7883 156.887 86.6011 156.881 86.4132C156.875 86.2254 156.832 86.0405 156.755 85.8693C156.677 85.6981 156.567 85.5438 156.429 85.4152C156.292 85.2867 156.131 85.1865 155.956 85.1202C147.625 81.9778 141.771 81.6941 133.255 82.2724H133.19C132.392 82.3564 131.619 82.5973 130.915 82.9812C130.211 83.365 129.59 83.8843 129.087 84.5092C128.582 85.179 128.217 85.9447 128.017 86.7597C127.816 87.5746 127.783 88.4219 127.92 89.25C128.384 92.8179 130.806 94.8527 134.09 94.4436C139.469 93.9417 142.721 93.969 147.276 95.4529C146.018 99.088 145.701 102.982 146.354 106.773C147.178 111.23 149.502 114.842 152.9 116.937C153.086 117.048 153.295 117.115 153.512 117.133Z" fill="black"/>
</svg>
