<svg viewBox="0 0 260 260" fill="none" xmlns="http://www.w3.org/2000/svg">
<g clip-path="url(#clip0_6147_206633)">
<rect width="260" height="260" fill="white"/>
<path d="M210.939 213.366H176.796C175.878 213.366 174.997 212.998 174.348 212.343C173.699 211.689 173.334 210.801 173.334 209.875V175.448C173.336 174.523 173.701 173.636 174.35 172.981C174.999 172.327 175.878 171.959 176.796 171.957H210.939C211.857 171.959 212.737 172.327 213.385 172.981C214.034 173.636 214.4 174.523 214.402 175.448V209.875C214.402 210.801 214.037 211.689 213.387 212.343C212.738 212.998 211.858 213.366 210.939 213.366ZM176.796 174.918C176.727 174.917 176.659 174.93 176.595 174.956C176.532 174.981 176.474 175.02 176.425 175.068C176.376 175.117 176.337 175.175 176.311 175.239C176.284 175.303 176.27 175.372 176.27 175.441V209.868C176.269 209.938 176.282 210.007 176.309 210.072C176.335 210.137 176.373 210.196 176.422 210.245C176.471 210.294 176.53 210.333 176.594 210.36C176.658 210.386 176.727 210.399 176.796 210.398H210.939C211.009 210.399 211.077 210.386 211.142 210.36C211.206 210.333 211.264 210.294 211.313 210.245C211.362 210.196 211.401 210.137 211.427 210.072C211.453 210.007 211.466 209.938 211.465 209.868V175.441C211.465 175.372 211.452 175.303 211.425 175.239C211.399 175.175 211.36 175.117 211.311 175.068C211.262 175.02 211.204 174.981 211.14 174.956C211.076 174.93 211.008 174.917 210.939 174.918H176.796Z" fill="black"/>
<path d="M194.613 206.039C194.061 206.036 193.517 205.898 193.03 205.636C192.542 205.375 192.125 204.998 191.813 204.538L180.887 188.378C180.627 188.005 180.443 187.583 180.347 187.137C180.25 186.691 180.242 186.23 180.323 185.781C180.405 185.332 180.574 184.904 180.821 184.521C181.068 184.139 181.388 183.81 181.763 183.553C182.137 183.297 182.558 183.118 183.002 183.027C183.446 182.936 183.903 182.935 184.347 183.024C184.791 183.113 185.213 183.29 185.589 183.545C185.964 183.8 186.286 184.127 186.534 184.509L194.633 196.538L213.364 169.602C213.884 168.854 214.677 168.345 215.569 168.187C216.461 168.029 217.379 168.234 218.12 168.758C218.862 169.282 219.367 170.082 219.524 170.981C219.681 171.881 219.477 172.806 218.957 173.554L197.385 204.538C197.076 204.994 196.663 205.369 196.181 205.63C195.698 205.891 195.16 206.032 194.613 206.039Z" fill="#2563EB"/>
<path d="M245.344 129.007L222.444 116.326C222.213 116.204 221.954 116.138 221.69 116.133C221.419 116.127 221.152 116.19 220.916 116.316C220.68 116.441 220.484 116.625 220.349 116.847C220.246 117.013 220.178 117.196 220.15 117.387C220.121 117.577 220.133 117.771 220.184 117.958C220.236 118.144 220.325 118.319 220.448 118.472C220.57 118.626 220.723 118.755 220.899 118.852L243.807 131.533C243.982 131.63 244.176 131.693 244.378 131.719C244.579 131.745 244.784 131.734 244.981 131.684C245.177 131.635 245.362 131.55 245.524 131.434C245.686 131.317 245.822 131.171 245.924 131.005C246.026 130.839 246.093 130.655 246.121 130.464C246.148 130.273 246.135 130.079 246.084 129.893C246.032 129.707 245.942 129.532 245.819 129.379C245.696 129.226 245.542 129.097 245.366 129L245.344 129.007Z" fill="#2563EB"/>
<path d="M228.801 90.0479C228.801 90.4888 228.953 90.9118 229.224 91.225C229.494 91.5382 229.862 91.7163 230.247 91.7206L255.087 91.8661C255.471 91.8661 255.839 91.6915 256.11 91.3809C256.382 91.0702 256.534 90.6488 256.534 90.2095C256.534 89.7701 256.382 89.3488 256.11 89.0381C255.839 88.7275 255.471 88.5529 255.087 88.5529L230.24 88.3994C229.86 88.4036 229.496 88.5787 229.226 88.8869C228.957 89.1951 228.804 89.612 228.801 90.0479Z" fill="#2563EB"/>
<path d="M224.073 63.867L245.412 51.2758C245.741 51.0805 245.983 50.7583 246.083 50.3796C246.184 50.0008 246.136 49.5963 245.949 49.2542C245.82 49.0335 245.637 48.8512 245.42 48.7247C245.202 48.5982 244.957 48.5319 244.708 48.5322C244.463 48.5371 244.224 48.6041 244.01 48.7272L222.678 61.3184C222.502 61.406 222.346 61.53 222.218 61.6827C222.09 61.8355 221.993 62.0138 221.935 62.2065C221.876 62.3993 221.856 62.6024 221.876 62.8034C221.896 63.0045 221.955 63.1992 222.051 63.3756C222.146 63.5519 222.275 63.7061 222.431 63.8288C222.586 63.9514 222.764 64.0398 222.953 64.0886C223.143 64.1373 223.34 64.1453 223.533 64.1122C223.725 64.0791 223.909 64.0055 224.073 63.8959V63.867Z" fill="#2563EB"/>
<path d="M18.0732 129.007L39.4468 116.326C39.6622 116.204 39.9037 116.138 40.1501 116.133C40.4027 116.127 40.6522 116.19 40.8725 116.316C41.0928 116.441 41.2756 116.625 41.4019 116.847C41.4982 117.013 41.5613 117.196 41.5877 117.387C41.614 117.577 41.6031 117.771 41.5554 117.958C41.5077 118.144 41.4243 118.319 41.3098 118.472C41.1954 118.626 41.0521 118.755 40.8885 118.852L19.508 131.533C19.3441 131.63 19.1629 131.693 18.9749 131.719C18.7868 131.745 18.5955 131.734 18.412 131.684C18.2285 131.635 18.0564 131.55 17.9053 131.434C17.7543 131.317 17.6273 131.171 17.5317 131.005C17.4361 130.839 17.3737 130.655 17.3481 130.464C17.3226 130.273 17.3343 130.079 17.3826 129.893C17.431 129.707 17.515 129.532 17.6299 129.379C17.7448 129.226 17.8882 129.097 18.0521 129L18.0732 129.007Z" fill="#2563EB"/>
<path d="M34.6678 90.0479C34.6699 90.4825 34.514 90.9008 34.2335 91.2134C33.953 91.5259 33.5702 91.7079 33.1667 91.7206L6.73984 91.8661C6.33177 91.8661 5.94031 91.6915 5.65176 91.3809C5.36321 91.0702 5.20117 90.6488 5.20117 90.2095C5.20117 89.7701 5.36321 89.3488 5.65176 89.0381C5.94031 88.7275 6.33177 88.5529 6.73984 88.5529L33.1592 88.3994C33.5601 88.4099 33.9416 88.5876 34.2231 88.8952C34.5046 89.2028 34.664 89.6161 34.6678 90.0479Z" fill="#2563EB"/>
<path d="M39.2447 63.8959L16.3671 51.3047C16.0764 51.1413 15.849 50.8906 15.7198 50.5908C15.5905 50.291 15.5666 49.9587 15.6513 49.6444C15.7361 49.3302 15.9251 49.0515 16.1894 48.8506C16.4537 48.6498 16.7787 48.538 17.1149 48.5322C17.377 48.5371 17.6338 48.6041 17.8628 48.7272L40.733 61.3184C40.9217 61.4061 41.0898 61.53 41.2269 61.6828C41.364 61.8355 41.4673 62.0137 41.5304 62.2065C41.5934 62.3992 41.6149 62.6024 41.5935 62.8035C41.5721 63.0045 41.5084 63.1992 41.406 63.3755C41.3037 63.5519 41.1649 63.7061 40.9985 63.8287C40.832 63.9513 40.6413 64.0398 40.4381 64.0885C40.2349 64.1373 40.0237 64.1453 39.8171 64.1122C39.6106 64.0791 39.4132 64.0054 39.2372 63.8959H39.2447Z" fill="#2563EB"/>
<path d="M131.734 171.599C115.622 171.599 99.8709 166.821 86.4738 157.87C73.0767 148.918 62.6349 136.195 56.4688 121.309C50.3028 106.423 48.6896 90.0423 51.833 74.2393C54.9764 58.4363 62.7354 43.9204 74.1287 32.527C85.522 21.1337 100.038 13.3748 115.841 10.2314C131.644 7.088 148.024 8.70132 162.91 14.8673C177.796 21.0334 190.52 31.4751 199.471 44.8723C208.423 58.2694 213.201 74.0201 213.201 90.1326C213.176 111.731 204.585 132.439 189.313 147.711C174.04 162.984 153.333 171.575 131.734 171.599ZM131.734 14.3301C116.742 14.3301 102.086 18.7759 89.6206 27.1052C77.1549 35.4345 67.4392 47.2732 61.7019 61.1243C55.9646 74.9754 54.4634 90.2168 57.3882 104.921C60.3131 119.625 67.5326 133.132 78.1337 143.733C88.7349 154.334 102.242 161.554 116.946 164.479C131.65 167.404 146.892 165.902 160.743 160.165C174.594 154.428 186.432 144.712 194.762 132.246C203.091 119.781 207.537 105.125 207.537 90.1326C207.514 70.0355 199.52 50.7681 185.31 36.5572C171.099 22.3464 151.831 14.3528 131.734 14.3301Z" fill="black"/>
<path d="M131.734 36.3997C131.507 36.3997 131.281 36.3471 131.071 36.2448C130.861 36.1426 130.67 35.9927 130.509 35.8037C130.348 35.6148 130.22 35.3904 130.133 35.1436C130.046 34.8967 130.001 34.6321 130.001 34.3649V19.3678C130.001 18.8281 130.184 18.3106 130.509 17.929C130.834 17.5474 131.274 17.333 131.734 17.333C132.194 17.333 132.635 17.5474 132.96 17.929C133.285 18.3106 133.467 18.8281 133.467 19.3678V34.3347C133.471 34.6045 133.428 34.8723 133.343 35.1227C133.257 35.3731 133.13 35.6009 132.969 35.7931C132.808 35.9852 132.615 36.1379 132.403 36.242C132.192 36.3461 131.964 36.3997 131.734 36.3997Z" fill="black"/>
<path d="M131.734 162.933C131.506 162.933 131.28 162.88 131.07 162.777C130.859 162.674 130.667 162.523 130.506 162.333C130.345 162.143 130.218 161.918 130.131 161.67C130.044 161.422 130 161.156 130.001 160.888V145.903C130.001 145.363 130.184 144.845 130.509 144.463C130.834 144.081 131.275 143.866 131.734 143.866C132.194 143.866 132.635 144.081 132.96 144.463C133.285 144.845 133.468 145.363 133.468 145.903V160.888C133.468 161.156 133.424 161.422 133.337 161.67C133.251 161.918 133.123 162.143 132.962 162.333C132.801 162.523 132.61 162.674 132.399 162.777C132.188 162.88 131.962 162.933 131.734 162.933Z" fill="black"/>
<path d="M103.906 43.3324C103.584 43.3333 103.267 43.2476 102.988 43.0839C102.71 42.9203 102.478 42.6846 102.318 42.4006L95.5803 30.5288C95.3373 30.1005 95.2716 29.5915 95.3976 29.1139C95.5235 28.6362 95.8309 28.2291 96.252 27.982C96.6731 27.7348 97.1735 27.668 97.643 27.7961C98.1125 27.9243 98.5128 28.2369 98.7557 28.6653L105.494 40.537C105.734 40.9665 105.798 41.4756 105.671 41.9529C105.544 42.4302 105.236 42.8369 104.815 43.0839C104.538 43.2442 104.225 43.3297 103.906 43.3324Z" fill="black"/>
<path d="M166.305 152.533C165.984 152.534 165.667 152.448 165.388 152.284C165.11 152.12 164.878 151.885 164.718 151.601L157.981 139.735C157.861 139.522 157.782 139.288 157.75 139.045C157.719 138.802 157.734 138.555 157.796 138.318C157.858 138.082 157.966 137.859 158.112 137.665C158.258 137.47 158.441 137.307 158.65 137.184C158.858 137.061 159.088 136.981 159.327 136.949C159.566 136.917 159.809 136.932 160.041 136.996C160.274 137.059 160.492 137.168 160.684 137.317C160.875 137.466 161.035 137.652 161.156 137.864L167.893 149.737C168.134 150.166 168.197 150.676 168.07 151.153C167.943 151.63 167.636 152.037 167.215 152.284C166.939 152.448 166.625 152.534 166.305 152.533Z" fill="black"/>
<path d="M83.1158 64.1324C82.7875 64.135 82.4646 64.0506 82.1811 63.8882L70.2709 57.1522C70.0581 57.032 69.8716 56.8719 69.722 56.681C69.5723 56.4901 69.4625 56.2723 69.3989 56.0398C69.3352 55.8074 69.3189 55.5649 69.3509 55.3263C69.3829 55.0877 69.4626 54.8576 69.5854 54.6492C69.7081 54.4408 69.8715 54.258 70.0663 54.1115C70.2612 53.9649 70.4836 53.8573 70.7209 53.795C70.9582 53.7326 71.2056 53.7167 71.4492 53.748C71.6928 53.7794 71.9277 53.8574 72.1405 53.9777L84.0438 60.7407C84.3876 60.9475 84.6539 61.2578 84.8029 61.6251C84.9518 61.9924 84.9755 62.3971 84.8703 62.7787C84.7651 63.1603 84.5367 63.4984 84.2193 63.7423C83.9018 63.9863 83.5123 64.1231 83.1089 64.1324H83.1158Z" fill="black"/>
<path d="M192.302 126.533C191.976 126.534 191.655 126.45 191.373 126.289L179.537 119.578C179.314 119.464 179.117 119.307 178.957 119.117C178.798 118.926 178.679 118.706 178.609 118.469C178.538 118.232 178.517 117.984 178.548 117.739C178.578 117.494 178.658 117.258 178.784 117.044C178.909 116.831 179.078 116.644 179.279 116.497C179.48 116.349 179.71 116.243 179.954 116.184C180.198 116.126 180.451 116.117 180.699 116.158C180.947 116.199 181.184 116.288 181.395 116.421L193.231 123.133C193.578 123.336 193.848 123.645 193.999 124.012C194.15 124.38 194.175 124.786 194.07 125.168C193.965 125.551 193.735 125.889 193.416 126.132C193.097 126.375 192.706 126.508 192.302 126.512V126.533Z" fill="black"/>
<path d="M76.1486 91.8661H62.5207C62.0293 91.8661 61.558 91.6834 61.2106 91.3583C60.8631 91.0333 60.668 90.5924 60.668 90.1327C60.668 89.673 60.8631 89.2321 61.2106 88.9071C61.558 88.582 62.0293 88.3994 62.5207 88.3994H76.1486C76.64 88.3994 77.1112 88.582 77.4587 88.9071C77.8061 89.2321 78.0013 89.673 78.0013 90.1327C78.0013 90.5924 77.8061 91.0333 77.4587 91.3583C77.1112 91.6834 76.64 91.8661 76.1486 91.8661Z" fill="black"/>
<path d="M200.948 91.8661H187.32C186.829 91.8661 186.358 91.6834 186.01 91.3583C185.663 91.0333 185.468 90.5924 185.468 90.1327C185.468 89.673 185.663 89.2321 186.01 88.9071C186.358 88.582 186.829 88.3994 187.32 88.3994H200.948C201.44 88.3994 201.911 88.582 202.258 88.9071C202.606 89.2321 202.801 89.673 202.801 90.1327C202.801 90.5924 202.606 91.0333 202.258 91.3583C201.911 91.6834 201.44 91.8661 200.948 91.8661Z" fill="black"/>
<path d="M71.1753 126.532C70.7699 126.528 70.377 126.394 70.0564 126.15C69.7358 125.906 69.5049 125.566 69.3993 125.181C69.2936 124.796 69.3187 124.388 69.4708 124.018C69.623 123.649 69.8938 123.338 70.242 123.134L82.1338 116.378C82.5629 116.135 83.0728 116.069 83.5512 116.196C84.0296 116.322 84.4374 116.63 84.685 117.051C84.9325 117.473 84.9995 117.974 84.8712 118.445C84.7428 118.915 84.4296 119.316 84.0005 119.559L72.1088 126.308C71.8233 126.463 71.5012 126.54 71.1753 126.532Z" fill="black"/>
<path d="M180.368 64.1324C179.964 64.1246 179.573 63.989 179.254 63.7461C178.936 63.5031 178.706 63.1658 178.6 62.7846C178.494 62.4034 178.517 61.9989 178.666 61.6316C178.815 61.2644 179.081 60.9541 179.426 60.7473L191.326 53.9772C191.539 53.8571 191.774 53.7793 192.018 53.748C192.262 53.7167 192.509 53.7327 192.747 53.7949C192.984 53.8572 193.207 53.9644 193.402 54.1107C193.597 54.257 193.761 54.4394 193.884 54.6474C194.006 54.8554 194.086 55.0851 194.118 55.3233C194.15 55.5614 194.134 55.8033 194.07 56.0353C194.006 56.2673 193.897 56.4847 193.747 56.6752C193.597 56.8657 193.41 57.0256 193.197 57.1456L181.276 63.8684C181.003 64.0333 180.69 64.1244 180.368 64.1324Z" fill="black"/>
<path d="M97.171 152.533C96.8492 152.535 96.5327 152.449 96.2549 152.284C95.8339 152.037 95.5262 151.63 95.399 151.153C95.2718 150.676 95.3356 150.167 95.5764 149.737L102.314 137.865C102.557 137.437 102.957 137.124 103.427 136.996C103.897 136.868 104.397 136.935 104.818 137.182C105.239 137.429 105.546 137.836 105.672 138.314C105.798 138.792 105.733 139.301 105.49 139.729L98.7519 151.601C98.5921 151.884 98.3618 152.119 98.0843 152.282C97.8067 152.446 97.4918 152.532 97.171 152.533Z" fill="black"/>
<path d="M159.57 43.3324C159.249 43.3309 158.934 43.2453 158.654 43.084C158.233 42.8369 157.926 42.4302 157.798 41.9529C157.671 41.4756 157.735 40.9666 157.976 40.537L164.714 28.6653C164.956 28.2369 165.357 27.9243 165.826 27.7961C166.296 27.668 166.796 27.7348 167.217 27.982C167.639 28.2291 167.946 28.6362 168.072 29.1139C168.198 29.5915 168.132 30.1005 167.889 30.5288L161.151 42.4006C160.991 42.6836 160.761 42.9186 160.484 43.0822C160.206 43.2458 159.891 43.3321 159.57 43.3324Z" fill="black"/>
<path d="M131.53 91.8656C131.017 91.8635 130.525 91.6601 130.16 91.2989L90.7024 51.8404C90.339 51.477 90.1348 50.9841 90.1348 50.4701C90.1348 49.9562 90.339 49.4632 90.7024 49.0998C91.0658 48.7364 91.5587 48.5322 92.0726 48.5322C92.5865 48.5322 93.0794 48.7364 93.4428 49.0998L132.9 88.5582C133.171 88.8291 133.356 89.1744 133.431 89.5503C133.506 89.9262 133.467 90.3159 133.321 90.67C133.174 91.0241 132.925 91.3267 132.607 91.5395C132.288 91.7523 131.913 91.8658 131.53 91.8656Z" fill="black"/>
<path d="M131.836 93.5992C131.053 93.6012 130.291 93.346 129.669 92.8731C129.046 92.4002 128.597 91.7361 128.392 90.9836C128.187 90.2311 128.237 89.4323 128.534 88.7108C128.831 87.9894 129.358 87.3856 130.035 86.993L171.238 63.0135C171.643 62.7395 172.099 62.5514 172.58 62.461C173.061 62.3706 173.555 62.3798 174.032 62.488C174.509 62.5962 174.958 62.8011 175.352 63.09C175.746 63.3788 176.076 63.7454 176.321 64.1668C176.566 64.5882 176.722 65.0554 176.778 65.5393C176.833 66.0231 176.788 66.5132 176.646 66.979C176.503 67.4448 176.265 67.8762 175.947 68.2464C175.629 68.6166 175.238 68.9176 174.798 69.1307L133.659 93.1102C133.108 93.4365 132.478 93.6057 131.836 93.5992Z" fill="black"/>
<path d="M140.401 90.1325C140.401 91.8466 139.892 93.5222 138.94 94.9474C137.988 96.3726 136.634 97.4835 135.051 98.1395C133.467 98.7954 131.724 98.967 130.043 98.6326C128.362 98.2982 126.818 97.4728 125.606 96.2608C124.394 95.0487 123.568 93.5044 123.234 91.8233C122.9 90.1421 123.071 88.3995 123.727 86.8159C124.383 85.2322 125.494 83.8788 126.919 82.9265C128.344 81.9742 130.02 81.4658 131.734 81.4658C134.032 81.4658 136.237 82.3789 137.862 84.0042C139.488 85.6296 140.401 87.8339 140.401 90.1325Z" fill="white"/>
<path d="M131.735 100.532C129.678 100.532 127.667 99.9225 125.957 98.7797C124.247 97.6369 122.914 96.0126 122.127 94.1123C121.339 92.2119 121.134 90.1209 121.535 88.1035C121.936 86.0861 122.927 84.233 124.381 82.7785C125.836 81.3241 127.689 80.3335 129.706 79.9323C131.723 79.531 133.814 79.7369 135.715 80.5241C137.615 81.3112 139.239 82.6442 140.382 84.3545C141.525 86.0648 142.135 88.0755 142.135 90.1324C142.131 92.8895 141.034 95.5326 139.085 97.4821C137.135 99.4317 134.492 100.529 131.735 100.532ZM131.735 83.6243C130.452 83.6243 129.198 84.0048 128.131 84.7175C127.065 85.4302 126.233 86.4433 125.742 87.6285C125.251 88.8138 125.123 90.118 125.373 91.3762C125.623 92.6345 126.241 93.7903 127.148 94.6974C128.056 95.6046 129.211 96.2224 130.47 96.4727C131.728 96.7229 133.032 96.5944 134.217 96.1035C135.403 95.6125 136.416 94.7812 137.128 93.7145C137.841 92.6478 138.221 91.3937 138.221 90.1108C138.221 88.3904 137.538 86.7406 136.322 85.5242C135.105 84.3077 133.455 83.6243 131.735 83.6243Z" fill="black"/>
<path d="M107.007 146.949C109.895 144.251 110.706 139.543 108.25 136.386C105.499 132.883 100.242 133.414 97.1501 136.257C85.9297 146.819 76.839 159.436 70.371 173.422C74.8322 175.366 79.2741 177.312 83.7148 179.285C89.3567 167.126 97.2614 156.152 107.007 146.949Z" fill="white"/>
<path d="M68.0582 174.296C67.9452 173.993 67.8932 173.67 67.9051 173.346C67.9171 173.022 67.9927 172.704 68.1278 172.409C74.7111 158.141 83.9827 145.275 95.4354 134.516C97.3336 132.787 99.7594 131.749 102.321 131.569C103.646 131.456 104.98 131.639 106.226 132.105C107.472 132.57 108.598 133.307 109.525 134.262C109.725 134.468 109.918 134.691 110.101 134.918C113.228 138.899 112.562 145.148 108.627 148.766C99.1216 157.758 91.4102 168.474 85.9028 180.343C85.633 180.919 85.1485 181.366 84.5529 181.589C83.9573 181.811 83.2982 181.792 82.717 181.534C78.4273 179.628 73.972 177.668 69.4004 175.673C69.1021 175.551 68.8338 175.366 68.6132 175.131C68.3749 174.892 68.1863 174.608 68.0582 174.296ZM105.329 145.185C107.423 143.252 107.86 139.916 106.254 137.891C106.172 137.786 106.082 137.687 105.986 137.594C104.101 135.621 100.701 136.228 98.7082 138.041C88.3268 147.819 79.8132 159.405 73.5839 172.233L82.4695 176.144C88.1764 164.54 95.919 154.054 105.329 145.185Z" fill="black"/>
<path d="M134.294 195.331C133.725 193.602 132.534 192.145 130.952 191.243C129.371 190.341 127.511 190.058 125.732 190.448C130.754 188.806 133.724 185.526 132.829 181.078C131.99 176.921 127.536 175.008 123.785 175.853C127.212 174.494 129.588 170.773 128.362 167.193C126.995 163.178 122.065 161.585 118.15 162.814C130.187 158.051 136.56 156.543 146.135 154.994C150.189 154.45 153.286 151.813 153.2 147.776C153.09 142.271 148.52 140.416 144.456 140.937C108.076 147.431 78.1156 160.648 44.0409 183.964C55.1337 199.16 65.8356 214.624 76.147 230.358C92.5744 218.935 110.624 210.044 129.692 203.981C131.432 203.42 132.886 202.203 133.745 200.588C134.603 198.974 134.8 197.088 134.294 195.331Z" fill="white"/>
<path d="M74.1117 231.7C63.8779 216.079 53.1137 200.461 42.07 185.405C41.8783 185.142 41.7414 184.844 41.6671 184.528C41.5927 184.211 41.5823 183.883 41.637 183.562C41.6917 183.242 41.81 182.936 41.9852 182.662C42.1603 182.388 42.3889 182.152 42.6568 181.968C77.7586 157.956 108.078 144.969 144.028 138.553L144.155 138.537C146.401 138.231 148.687 138.586 150.733 139.56C152.24 140.315 153.502 141.485 154.368 142.931C155.235 144.377 155.671 146.041 155.626 147.726C155.732 152.756 152.058 156.64 146.497 157.408C139.988 158.352 133.579 159.891 127.351 162.004C128.884 163.095 130.04 164.637 130.657 166.415C131.076 167.68 131.205 169.022 131.034 170.344C130.863 171.665 130.396 172.931 129.668 174.047C129.902 174.122 130.133 174.21 130.358 174.31C131.597 174.905 132.681 175.781 133.524 176.867C134.367 177.953 134.946 179.219 135.217 180.567C135.568 182.131 135.504 183.759 135.031 185.29C134.557 186.821 133.692 188.201 132.519 189.294C134.499 190.488 135.967 192.372 136.642 194.583C137.33 196.95 137.069 199.492 135.915 201.67C134.762 203.849 132.806 205.493 130.461 206.254C111.615 212.248 93.7767 221.039 77.5413 232.33C77.2731 232.513 76.9711 232.639 76.6532 232.703C76.3353 232.767 76.0075 232.766 75.6898 232.702C75.4785 232.649 75.2743 232.571 75.0815 232.469C74.6988 232.298 74.3654 232.034 74.1117 231.7ZM126.226 192.857C125.617 192.988 124.98 192.88 124.448 192.555C123.916 192.23 123.53 191.713 123.368 191.111C123.207 190.509 123.283 189.868 123.58 189.32C123.878 188.772 124.374 188.36 124.967 188.168C130.22 186.456 130.846 183.647 130.428 181.602C130.298 180.978 130.025 180.394 129.63 179.895C129.235 179.396 128.729 178.996 128.152 178.727C126.959 178.142 125.604 177.979 124.306 178.263C123.713 178.389 123.093 178.289 122.57 177.982C122.047 177.675 121.657 177.184 121.478 176.604C121.298 176.025 121.342 175.399 121.601 174.85C121.859 174.301 122.314 173.869 122.875 173.638C125.057 172.789 126.855 170.39 126.049 168.02C125.853 167.479 125.551 166.982 125.16 166.559C124.77 166.136 124.299 165.794 123.775 165.555C122.246 164.817 120.495 164.679 118.869 165.169C118.268 165.36 117.616 165.31 117.051 165.029C116.487 164.749 116.053 164.26 115.842 163.666C115.631 163.072 115.66 162.419 115.921 161.845C116.182 161.271 116.656 160.822 117.243 160.591C129.517 155.742 135.951 154.22 145.734 152.639C145.734 152.639 145.734 152.639 145.783 152.657C148.22 152.333 150.824 150.864 150.742 147.888C150.8 147.088 150.62 146.29 150.225 145.592C149.83 144.894 149.238 144.328 148.523 143.966C147.353 143.427 146.053 143.234 144.777 143.41C110.285 149.583 81.0305 161.946 47.4471 184.632C57.5254 198.493 67.381 212.743 76.7924 227.037C92.8542 216.139 110.408 207.621 128.909 201.75C129.784 201.485 130.557 200.961 131.129 200.248C131.701 199.534 132.043 198.665 132.112 197.753C132.18 196.842 131.971 195.931 131.513 195.14C131.054 194.35 130.367 193.716 129.541 193.323C128.521 192.797 127.352 192.633 126.226 192.857Z" fill="black"/>
<path d="M50.4454 177.6L48.4413 179.102C47.2117 180.036 45.4708 181.36 43.4266 182.968C39.3381 186.183 34.0363 190.534 28.6978 195.223C27.3773 196.42 26.0577 197.589 24.7565 198.783C24.1099 199.382 23.4718 199.984 22.8365 200.578C22.2011 201.171 21.5748 201.741 20.9526 202.349C19.7225 203.552 18.5336 204.696 17.4054 205.826L14.2186 209.089C13.2362 210.154 12.3254 211.154 11.5281 212.001C11.1273 212.443 10.7499 212.847 10.4094 213.228C10.0689 213.609 9.73026 214.01 9.44386 214.346L7.63956 216.445L54.323 255.413C54.323 255.413 54.7017 254.981 55.344 254.223L55.8788 253.6C56.0976 253.368 56.3256 253.111 56.5791 252.836C57.0862 252.286 57.6598 251.66 58.2875 250.989C60.8797 248.261 64.7802 244.491 68.9864 240.772C73.1925 237.054 77.6628 233.398 81.046 230.741C82.7351 229.406 84.1462 228.337 85.1177 227.593L86.6024 226.478L50.4454 177.6Z" fill="#2563EB"/>
<path d="M52.7558 258.28C52.561 258.169 52.377 258.039 52.2063 257.894C51.5549 257.335 51.1521 256.54 51.0867 255.684C51.0213 254.828 51.2987 253.981 51.8576 253.329L53.3989 251.529C53.3989 251.529 53.4297 251.448 53.4827 251.431L55.8913 248.82L55.9099 248.771C58.8097 245.725 62.886 241.835 66.8235 238.358C71.7752 233.976 76.5888 230.127 79.0118 228.208C80.1885 227.291 81.2201 226.487 82.069 225.844L49.7623 182.142C48.4624 183.114 47.0581 184.214 45.4231 185.504C42.5287 187.781 36.8017 192.369 30.8422 197.639L29.6412 198.742C28.7527 199.536 27.8437 200.36 26.9633 201.158L25.0574 202.939C24.8541 203.131 24.6395 203.328 24.4332 203.528C24.0185 203.908 23.6295 204.271 23.2453 204.645L22.0785 205.779C21.2499 206.587 20.4705 207.339 19.7184 208.093L16.6265 211.326L12.8834 215.389L10.1395 218.588C9.56243 219.167 8.78753 219.506 7.97066 219.538C7.15378 219.569 6.35544 219.291 5.73553 218.758C5.11561 218.225 4.72022 217.477 4.62873 216.665C4.53724 215.853 4.75637 215.036 5.24222 214.378L8.02929 211.14L8.06023 211.059L11.895 206.901C11.9007 206.872 11.9111 206.845 11.9259 206.82L15.1013 203.563C15.8963 202.77 16.6962 201.988 17.5503 201.162L18.6854 200.062C19.1217 199.624 19.568 199.209 20.0001 198.807L20.6037 198.248L22.5417 196.432C23.468 195.587 24.3993 194.754 25.2909 193.951L26.5226 192.841C32.2993 187.734 37.8029 183.293 41.3914 180.463C43.3305 178.936 44.9692 177.684 46.4458 176.566L48.467 175.042C48.8096 174.788 49.1993 174.603 49.6135 174.5C50.0277 174.396 50.4583 174.376 50.8804 174.439C51.3033 174.499 51.71 174.643 52.0763 174.863C52.4425 175.082 52.7611 175.373 53.013 175.718L89.1687 224.623C89.6784 225.312 89.8942 226.174 89.7694 227.021C89.6445 227.869 89.189 228.632 88.5025 229.144L87.0212 230.252C86.115 230.946 84.7038 232.015 83.0409 233.378C80.6609 235.257 75.9575 239.037 71.1265 243.298C67.3319 246.644 63.4161 250.381 60.6399 253.298L58.2947 255.841L56.7705 257.619C56.2777 258.172 55.6105 258.539 54.8799 258.659C54.1493 258.779 53.3997 258.645 52.7558 258.28Z" fill="#2563EB"/>
<path d="M36.5643 228.151L36.4752 228.117C36.3384 227.986 36.2289 227.829 36.1529 227.655C36.0769 227.482 36.0361 227.295 36.0325 227.105C36.0289 226.916 36.0627 226.727 36.132 226.551C36.2013 226.375 36.3046 226.214 36.4362 226.077C37.0515 225.439 51.6577 210.265 61.9342 204.273C62.0978 204.164 62.282 204.09 62.4753 204.054C62.6686 204.019 62.867 204.024 63.0584 204.068C63.2499 204.113 63.4305 204.196 63.5886 204.312C63.7468 204.429 63.8793 204.577 63.9783 204.746C64.0772 204.916 64.1406 205.105 64.1642 205.3C64.1877 205.495 64.1709 205.692 64.1152 205.881C64.0595 206.069 63.9659 206.244 63.84 206.395C63.7141 206.546 63.5584 206.67 63.383 206.758C53.4531 212.548 38.6596 227.92 38.5236 228.081C38.2661 228.338 37.9212 228.488 37.5578 228.501C37.1945 228.514 36.8395 228.389 36.5643 228.151Z" fill="black"/>
<path d="M20.0229 216.646C19.7403 216.483 19.5215 216.229 19.4023 215.925C19.2832 215.621 19.2706 215.285 19.367 214.973C19.4633 214.662 19.6629 214.392 19.9327 214.208C20.2025 214.024 20.5266 213.937 20.8522 213.962C28.7689 214.641 37.8684 217.918 47.8965 223.705C52.3181 226.234 56.5578 229.068 60.5843 232.188C60.8587 232.433 61.029 232.773 61.0604 233.14C61.0918 233.506 60.9819 233.871 60.7533 234.159C60.5246 234.447 60.1945 234.637 59.8305 234.689C59.4666 234.742 59.0962 234.653 58.7955 234.441C58.5881 234.278 38.5477 218.354 20.6142 216.826C20.4064 216.809 20.2048 216.748 20.0229 216.646Z" fill="black"/>
<path d="M62.8187 230.299C62.5809 230.164 62.3867 229.964 62.2582 229.723C62.1517 229.515 51.17 209.159 34.4845 201.195C34.2991 201.123 34.1302 201.015 33.9888 200.875C33.8475 200.736 33.7364 200.569 33.6626 200.384C33.5888 200.2 33.5539 200.003 33.5601 199.804C33.5663 199.606 33.6137 199.411 33.6988 199.231C33.7839 199.052 33.9051 198.892 34.0549 198.762C34.2047 198.632 34.3798 198.534 34.5693 198.474C34.7587 198.415 34.9583 198.395 35.1556 198.417C35.353 198.438 35.544 198.5 35.7163 198.599C53.2854 206.975 64.3423 227.499 64.7996 228.37C64.9452 228.645 64.9981 228.96 64.9497 229.268C64.9013 229.576 64.7545 229.859 64.5315 230.076C64.3084 230.294 64.0207 230.433 63.712 230.473C63.4032 230.513 63.0899 230.452 62.8187 230.299Z" fill="black"/>
</g>
<defs>
<clipPath id="clip0_6147_206633">
<rect width="260" height="260" fill="white"/>
</clipPath>
</defs>
</svg>
