<svg viewBox="0 0 260 260" fill="none" xmlns="http://www.w3.org/2000/svg">
<g clip-path="url(#clip0_6147_206634)">
<rect width="260" height="260" fill="white"/>
<path d="M210.205 197.179H36.479C36.0294 197.179 35.5981 197.001 35.2796 196.684C34.9611 196.367 34.7811 195.936 34.7793 195.487V31.0003C34.7793 30.5495 34.9585 30.1172 35.2772 29.7985C35.5959 29.4798 36.0282 29.3008 36.479 29.3008H210.205C210.655 29.3026 211.085 29.4825 211.402 29.801C211.72 30.1195 211.898 30.5507 211.898 31.0003V195.487C211.898 195.936 211.719 196.366 211.402 196.683C211.084 197.001 210.654 197.179 210.205 197.179ZM38.1715 193.787H208.505V32.6929H38.1715V193.787Z" fill="black"/>
<path d="M210.206 29.4109H36.48V61.9724H210.206V29.4109Z" fill="black"/>
<path d="M210.205 63.6734H36.479C36.0294 63.6734 35.5981 63.4953 35.2796 63.1781C34.9611 62.8608 34.7811 62.4303 34.7793 61.9808V29.4193C34.7793 29.1961 34.8233 28.9751 34.9087 28.7689C34.9941 28.5627 35.1194 28.3754 35.2772 28.2175C35.435 28.0597 35.6224 27.9345 35.8286 27.8491C36.0348 27.7637 36.2558 27.7197 36.479 27.7197H210.205C210.655 27.7216 211.085 27.9015 211.402 28.22C211.72 28.5385 211.898 28.9698 211.898 29.4193V61.9877C211.896 62.4354 211.717 62.8642 211.399 63.1801C211.082 63.496 210.653 63.6734 210.205 63.6734ZM38.1715 60.2813H208.505V31.1466H38.1715V60.2813Z" fill="black"/>
<path d="M210.206 106.495H36.4799C36.2481 106.51 36.0157 106.477 35.7971 106.399C35.5784 106.32 35.3782 106.198 35.2087 106.039C35.0393 105.88 34.9041 105.688 34.8118 105.474C34.7194 105.261 34.6719 105.031 34.6719 104.799C34.6719 104.567 34.7194 104.337 34.8118 104.124C34.9041 103.911 35.0393 103.719 35.2087 103.56C35.3782 103.401 35.5784 103.278 35.7971 103.2C36.0157 103.121 36.2481 103.088 36.4799 103.103H210.206C210.637 103.131 211.042 103.321 211.337 103.636C211.633 103.951 211.797 104.367 211.797 104.799C211.797 105.231 211.633 105.647 211.337 105.962C211.042 106.277 210.637 106.468 210.206 106.495Z" fill="black"/>
<path d="M210.206 151.529H36.4799C36.2481 151.544 36.0157 151.511 35.7971 151.433C35.5784 151.354 35.3782 151.232 35.2087 151.073C35.0393 150.914 34.9041 150.722 34.8118 150.509C34.7194 150.296 34.6719 150.066 34.6719 149.833C34.6719 149.601 34.7194 149.371 34.8118 149.158C34.9041 148.945 35.0393 148.753 35.2087 148.594C35.3782 148.435 35.5784 148.312 35.7971 148.234C36.0157 148.155 36.2481 148.122 36.4799 148.137H210.206C210.637 148.165 211.042 148.356 211.337 148.671C211.633 148.986 211.797 149.401 211.797 149.833C211.797 150.265 211.633 150.681 211.337 150.996C211.042 151.311 210.637 151.502 210.206 151.529Z" fill="black"/>
<path d="M77.9972 197.186C77.5483 197.186 77.1176 197.008 76.8002 196.69C76.4828 196.373 76.3047 195.942 76.3047 195.493V60.8772C76.3323 60.4461 76.5228 60.0416 76.8378 59.7461C77.1529 59.4506 77.5687 59.2861 78.0006 59.2861C78.4326 59.2861 78.8484 59.4506 79.1634 59.7461C79.4785 60.0416 79.669 60.4461 79.6966 60.8772V195.493C79.6947 195.943 79.5148 196.373 79.1963 196.691C78.8778 197.008 78.4468 197.186 77.9972 197.186Z" fill="black"/>
<path d="M122.399 197.186C121.95 197.186 121.519 197.008 121.202 196.69C120.885 196.373 120.706 195.942 120.706 195.493V60.8772C120.734 60.4461 120.924 60.0416 121.24 59.7461C121.555 59.4506 121.97 59.2861 122.402 59.2861C122.834 59.2861 123.25 59.4506 123.565 59.7461C123.88 60.0416 124.071 60.4461 124.098 60.8772V195.493C124.096 195.943 123.917 196.373 123.598 196.691C123.279 197.008 122.848 197.186 122.399 197.186Z" fill="black"/>
<path d="M166.809 197.186C166.359 197.186 165.928 197.008 165.609 196.691C165.291 196.373 165.111 195.943 165.109 195.493V60.8772C165.137 60.4461 165.327 60.0416 165.643 59.7461C165.958 59.4506 166.373 59.2861 166.805 59.2861C167.237 59.2861 167.653 59.4506 167.968 59.7461C168.283 60.0416 168.474 60.4461 168.501 60.8772V195.493C168.501 195.942 168.323 196.373 168.006 196.69C167.688 197.008 167.258 197.186 166.809 197.186Z" fill="black"/>
<path d="M57.2146 48.9949C50.1044 48.9949 44.541 38.2289 44.541 24.5009C44.541 10.7729 50.0905 0 57.2146 0C64.3388 0 69.8883 10.7659 69.8883 24.5009C69.8607 24.932 69.6698 25.3364 69.3548 25.6319C69.0397 25.9275 68.6239 26.0919 68.192 26.0919C67.76 26.0919 67.3442 25.9275 67.0292 25.6319C66.7141 25.3364 66.5236 24.932 66.496 24.5009C66.496 14.5188 62.6878 3.39212 57.2146 3.39212C51.7415 3.39212 47.9261 14.491 47.9261 24.5009C47.9261 34.5107 51.7415 45.6028 57.2146 45.6028C57.6457 45.6304 58.0501 45.821 58.3456 46.1361C58.6411 46.4511 58.8056 46.8668 58.8056 47.2988C58.8056 47.7308 58.6411 48.1466 58.3456 48.4616C58.0501 48.7766 57.6457 48.9673 57.2146 48.9949Z" fill="#2563EB"/>
<path d="M90.2889 48.9949C83.1855 48.9949 77.6152 38.2289 77.6152 24.5009C77.6152 10.7729 83.1647 0 90.2889 0C97.413 0 102.962 10.7659 102.962 24.5009C102.935 24.932 102.744 25.3364 102.429 25.6319C102.114 25.9275 101.698 26.0919 101.267 26.0919C100.835 26.0919 100.419 25.9275 100.104 25.6319C99.7887 25.3364 99.5978 24.932 99.5703 24.5009C99.5703 14.5188 95.762 3.39212 90.2889 3.39212C84.8157 3.39212 81.0074 14.491 81.0074 24.5009C81.0074 34.5107 84.8226 45.6028 90.2889 45.6028C90.5207 45.5879 90.7534 45.6208 90.972 45.6993C91.1907 45.7778 91.3906 45.9003 91.56 46.0593C91.7295 46.2182 91.8647 46.4103 91.957 46.6235C92.0493 46.8367 92.0969 47.0665 92.0969 47.2988C92.0969 47.5311 92.0493 47.761 91.957 47.9742C91.8647 48.1874 91.7295 48.3794 91.56 48.5383C91.3906 48.6973 91.1907 48.8198 90.972 48.8984C90.7534 48.9769 90.5207 49.0097 90.2889 48.9949Z" fill="#2563EB"/>
<path d="M123.362 48.9949C116.259 48.9949 110.688 38.2289 110.688 24.5009C110.688 10.7729 116.238 0 123.362 0C130.486 0 136.036 10.7659 136.036 24.5009C136.008 24.932 135.817 25.3364 135.502 25.6319C135.187 25.9275 134.771 26.0919 134.339 26.0919C133.907 26.0919 133.492 25.9275 133.177 25.6319C132.862 25.3364 132.671 24.932 132.644 24.5009C132.644 14.5188 128.835 3.39212 123.362 3.39212C117.889 3.39212 114.081 14.491 114.081 24.5009C114.081 34.5107 117.896 45.6028 123.362 45.6028C123.594 45.5879 123.826 45.6208 124.045 45.6993C124.264 45.7778 124.464 45.9003 124.633 46.0593C124.803 46.2182 124.938 46.4103 125.03 46.6235C125.123 46.8367 125.17 47.0665 125.17 47.2988C125.17 47.5311 125.123 47.761 125.03 47.9742C124.938 48.1874 124.803 48.3794 124.633 48.5383C124.464 48.6973 124.264 48.8198 124.045 48.8984C123.826 48.9769 123.594 49.0097 123.362 48.9949Z" fill="#2563EB"/>
<path d="M156.439 48.9949C149.336 48.9949 143.766 38.2289 143.766 24.5009C143.766 10.7729 149.315 0 156.439 0C163.563 0 169.12 10.7659 169.12 24.5009C169.092 24.932 168.901 25.3364 168.586 25.6319C168.271 25.9275 167.856 26.0919 167.424 26.0919C166.992 26.0919 166.576 25.9275 166.261 25.6319C165.946 25.3364 165.755 24.932 165.727 24.5009C165.727 14.5188 161.912 3.39212 156.439 3.39212C150.966 3.39212 147.157 14.491 147.157 24.5009C147.157 34.5107 150.973 45.6028 156.439 45.6028C156.671 45.5879 156.903 45.6208 157.122 45.6993C157.341 45.7778 157.541 45.9003 157.71 46.0593C157.88 46.2182 158.015 46.4103 158.107 46.6235C158.199 46.8367 158.247 47.0665 158.247 47.2988C158.247 47.5311 158.199 47.761 158.107 47.9742C158.015 48.1874 157.88 48.3794 157.71 48.5383C157.541 48.6973 157.341 48.8198 157.122 48.8984C156.903 48.9769 156.671 49.0097 156.439 48.9949Z" fill="#2563EB"/>
<path d="M189.52 48.9949C182.41 48.9949 176.847 38.2289 176.847 24.5009C176.847 10.7729 182.396 0 189.52 0C196.644 0 202.194 10.7659 202.194 24.5009C202.166 24.932 201.975 25.3364 201.66 25.6319C201.345 25.9275 200.93 26.0919 200.498 26.0919C200.066 26.0919 199.65 25.9275 199.335 25.6319C199.02 25.3364 198.829 24.932 198.802 24.5009C198.802 14.5188 194.987 3.39212 189.52 3.39212C184.054 3.39212 180.232 14.491 180.232 24.5009C180.232 34.5107 184.047 45.6028 189.52 45.6028C189.951 45.6304 190.356 45.821 190.651 46.1361C190.947 46.4511 191.111 46.8668 191.111 47.2988C191.111 47.7308 190.947 48.1466 190.651 48.4616C190.356 48.7766 189.951 48.9673 189.52 48.9949Z" fill="#2563EB"/>
<path d="M65.5935 83.8524C65.5935 85.6826 65.0509 87.4717 64.0341 88.9934C63.0173 90.5152 61.572 91.7013 59.8811 92.4017C58.1902 93.1021 56.3296 93.2853 54.5345 92.9282C52.7395 92.5712 51.0904 91.6899 49.7963 90.3957C48.5021 89.1015 47.6208 87.4527 47.2637 85.6577C46.9067 83.8626 47.09 82.002 47.7904 80.3111C48.4908 78.6202 49.6768 77.175 51.1985 76.1582C52.7203 75.1413 54.5097 74.5986 56.3399 74.5986C58.7941 74.5986 61.1477 75.5735 62.8831 77.3089C64.6185 79.0443 65.5935 81.3981 65.5935 83.8524Z" fill="#2563EB"/>
<path d="M65.5935 125.076C65.5935 126.906 65.0509 128.695 64.0341 130.217C63.0173 131.739 61.572 132.925 59.8811 133.625C58.1902 134.326 56.3296 134.509 54.5345 134.152C52.7395 133.795 51.0904 132.913 49.7963 131.619C48.5021 130.325 47.6208 128.676 47.2637 126.881C46.9067 125.086 47.09 123.226 47.7904 121.535C48.4908 119.844 49.6768 118.399 51.1985 117.382C52.7203 116.365 54.5097 115.822 56.3399 115.822C58.7941 115.822 61.1477 116.797 62.8831 118.533C64.6185 120.268 65.5935 122.622 65.5935 125.076Z" fill="#2563EB"/>
<path d="M108.491 83.8524C108.492 85.6845 107.95 87.476 106.933 88.9999C105.916 90.5239 104.47 91.7119 102.778 92.4137C101.085 93.1154 99.2226 93.2995 97.4256 92.9424C95.6285 92.5853 93.9778 91.7031 92.6822 90.4075C91.3867 89.112 90.5044 87.4613 90.1473 85.6642C89.7902 83.8672 89.9743 82.0046 90.676 80.3121C91.3778 78.6197 92.566 77.1734 94.0899 76.1564C95.6139 75.1393 97.4052 74.5973 99.2374 74.5986C101.692 74.5986 104.046 75.5735 105.781 77.3089C107.516 79.0443 108.491 81.3981 108.491 83.8524Z" fill="#2563EB"/>
<path d="M108.491 125.076C108.492 126.908 107.95 128.7 106.933 130.224C105.916 131.748 104.47 132.936 102.778 133.637C101.085 134.339 99.2226 134.523 97.4256 134.166C95.6285 133.809 93.9778 132.927 92.6822 131.631C91.3867 130.336 90.5044 128.685 90.1473 126.888C89.7902 125.091 89.9743 123.228 90.676 121.536C91.3778 119.843 92.566 118.397 94.0899 117.38C95.6139 116.363 97.4052 115.821 99.2374 115.822C101.692 115.822 104.046 116.797 105.781 118.533C107.516 120.268 108.491 122.622 108.491 125.076Z" fill="#2563EB"/>
<path d="M196.998 83.4988C196.998 85.3291 196.455 87.1181 195.438 88.6399C194.421 90.1617 192.976 91.3478 191.285 92.0482C189.594 92.7486 187.734 92.9318 185.938 92.5747C184.143 92.2177 182.495 91.3364 181.201 90.0423C179.906 88.7481 179.025 87.0992 178.668 85.3042C178.311 83.5091 178.494 81.6485 179.195 79.9576C179.895 78.2667 181.081 76.8215 182.603 75.8046C184.125 74.7878 185.914 74.2451 187.744 74.2451C190.198 74.2451 192.552 75.22 194.287 76.9554C196.023 78.6908 196.998 81.0446 196.998 83.4988Z" fill="#2563EB"/>
<path d="M154.153 83.4988C154.153 85.3291 153.61 87.1181 152.593 88.6399C151.576 90.1617 150.131 91.3478 148.44 92.0482C146.749 92.7486 144.888 92.9318 143.093 92.5747C141.298 92.2177 139.65 91.3364 138.355 90.0423C137.061 88.7481 136.18 87.0992 135.823 85.3042C135.466 83.5091 135.649 81.6485 136.35 79.9576C137.05 78.2667 138.236 76.8215 139.758 75.8046C141.279 74.7878 143.068 74.2451 144.899 74.2451C147.353 74.2451 149.707 75.22 151.442 76.9554C153.178 78.6908 154.153 81.0446 154.153 83.4988Z" fill="#2563EB"/>
<path d="M154.153 125.076C154.153 126.906 153.61 128.695 152.593 130.217C151.576 131.739 150.131 132.925 148.44 133.625C146.749 134.326 144.888 134.509 143.093 134.152C141.298 133.795 139.65 132.914 138.355 131.619C137.061 130.325 136.18 128.676 135.823 126.881C135.466 125.086 135.649 123.226 136.35 121.535C137.05 119.844 138.236 118.399 139.758 117.382C141.279 116.365 143.068 115.822 144.899 115.822C147.353 115.822 149.707 116.797 151.442 118.533C153.178 120.268 154.153 122.622 154.153 125.076Z" fill="#2563EB"/>
<path d="M189.632 139.89C188.896 139.891 188.17 139.724 187.507 139.404C186.845 139.083 186.265 138.616 185.809 138.038L170.847 119.107C170.451 118.606 170.157 118.032 169.982 117.417C169.808 116.803 169.757 116.16 169.831 115.525C169.905 114.891 170.103 114.277 170.414 113.719C170.726 113.161 171.143 112.67 171.645 112.274C172.146 111.878 172.72 111.584 173.334 111.41C173.949 111.235 174.592 111.184 175.226 111.258C175.861 111.332 176.474 111.53 177.032 111.841C177.59 112.153 178.081 112.571 178.477 113.072L189.472 127.001L220.556 85.1233C220.938 84.6095 221.416 84.1759 221.965 83.8471C222.514 83.5183 223.122 83.3008 223.755 83.2071C224.388 83.1134 225.033 83.1452 225.654 83.3008C226.274 83.4564 226.858 83.7328 227.372 84.114C227.885 84.4952 228.319 84.9739 228.648 85.5227C228.977 86.0715 229.194 86.6798 229.288 87.3126C229.382 87.9455 229.35 88.5906 229.194 89.2112C229.039 89.8318 228.762 90.4156 228.381 90.9294L193.503 137.92C193.058 138.521 192.481 139.012 191.815 139.354C191.15 139.696 190.414 139.879 189.666 139.89H189.632Z" fill="#2563EB"/>
<path d="M170.435 199.328C174.161 198.077 178.646 199.645 180.214 203.31C181.976 207.372 178.98 211.697 175.034 213.001C160.485 217.73 145.162 219.618 129.901 218.56C130.341 213.762 130.761 208.96 131.161 204.156C144.44 205.05 157.768 203.412 170.435 199.328Z" fill="white"/>
<path d="M127.593 219.281C127.503 218.972 127.47 218.65 127.496 218.329C127.945 213.422 128.377 208.586 128.756 203.952C128.812 203.325 129.11 202.744 129.587 202.333C130.064 201.922 130.682 201.712 131.31 201.749C144.288 202.615 157.311 201.003 169.686 197.001C174.743 195.309 180.46 197.697 182.434 202.331C182.548 202.595 182.645 202.868 182.733 203.141C183.119 204.404 183.222 205.736 183.033 207.043C182.844 208.35 182.369 209.599 181.641 210.7C180.266 212.839 178.212 214.452 175.809 215.281C160.972 220.11 145.343 222.033 129.778 220.946C129.452 220.921 129.135 220.83 128.845 220.678C128.556 220.527 128.301 220.318 128.095 220.065C127.88 219.837 127.71 219.571 127.593 219.281ZM133.372 206.691L132.491 216.294C146.628 216.987 160.774 215.094 174.232 210.709C176.76 209.828 178.91 207.185 178.099 204.595L177.958 204.216C176.963 201.881 173.853 200.692 171.166 201.573C158.975 205.522 146.174 207.255 133.372 206.691Z" fill="black"/>
<path d="M141.363 152.459C142.598 153.777 143.3 155.508 143.332 157.314C143.365 159.121 142.726 160.875 141.539 162.238C145.362 158.661 149.626 157.648 153.062 160.538C156.278 163.26 155.811 168.034 153.291 170.898C156.11 168.563 160.48 168.255 162.982 171.047C165.819 174.157 164.858 179.205 161.925 182.024C171.801 173.814 176.153 169.004 182.073 161.401C184.487 158.141 188.24 156.714 191.764 158.705C196.495 161.427 195.904 166.281 193.526 169.576C170.523 198.129 144.728 217.88 108.185 236.407C100.256 219.498 91.9101 202.807 83.1473 186.333C100.909 177.489 117.243 166.029 131.601 152.336C132.923 151.08 134.684 150.39 136.507 150.413C138.33 150.436 140.073 151.17 141.363 152.459Z" fill="white"/>
<path d="M80.7337 186.245C80.7411 186.026 80.7797 185.81 80.8483 185.602C80.9437 185.296 81.0997 185.014 81.3071 184.77C81.5145 184.526 81.769 184.327 82.0552 184.184C99.6236 175.44 115.781 164.111 129.989 150.574C131.771 148.899 134.135 147.983 136.581 148.021C139.026 148.058 141.361 149.047 143.09 150.777C144.695 152.419 145.636 154.596 145.733 156.891C147.241 156.388 148.856 156.29 150.414 156.607C151.972 156.924 153.42 157.644 154.613 158.697C155.657 159.577 156.482 160.688 157.024 161.941C157.565 163.195 157.807 164.557 157.732 165.921L157.679 166.652C158.996 166.552 160.319 166.749 161.55 167.23C162.78 167.71 163.887 168.461 164.788 169.427C166.044 170.809 166.835 172.55 167.052 174.405C171.861 169.998 176.255 165.158 180.179 159.947C183.5 155.472 188.637 154.133 192.962 156.618C194.449 157.384 195.687 158.559 196.531 160.003C197.375 161.448 197.791 163.103 197.728 164.775C197.601 167.02 196.82 169.179 195.482 170.986L195.402 171.092C172.664 199.284 146.948 219.484 109.269 238.558C108.98 238.703 108.666 238.789 108.344 238.812C108.022 238.834 107.698 238.793 107.392 238.69C107.087 238.585 106.807 238.418 106.568 238.202C106.329 237.985 106.136 237.723 106 237.43C98.1244 220.63 89.7197 203.82 81.0156 187.461C80.8151 187.088 80.7178 186.668 80.7337 186.245ZM140.914 157.56C140.949 156.935 140.854 156.31 140.636 155.723C140.418 155.136 140.08 154.601 139.645 154.151C138.799 153.319 137.664 152.847 136.477 152.836C135.291 152.824 134.146 153.274 133.284 154.089C119.351 167.38 103.568 178.585 86.4248 187.355C94.3537 202.332 102.053 217.749 109.33 233.122C145.089 214.718 169.81 195.187 191.632 168.123C192.394 167.097 192.847 165.874 192.936 164.599C192.962 163.805 192.753 163.021 192.334 162.345C191.916 161.669 191.307 161.132 190.583 160.802C187.993 159.313 185.518 160.873 184.064 162.837V162.89C178.021 170.643 173.625 175.515 163.555 183.875C163.074 184.268 162.459 184.46 161.84 184.412C161.221 184.363 160.644 184.077 160.23 183.614C159.815 183.151 159.596 182.547 159.616 181.926C159.636 181.305 159.895 180.715 160.339 180.281C161.546 179.099 162.266 177.509 162.357 175.823C162.395 175.254 162.321 174.684 162.138 174.144C161.955 173.604 161.667 173.106 161.291 172.678C159.617 170.837 156.666 171.295 154.886 172.757C154.421 173.162 153.819 173.372 153.203 173.346C152.588 173.319 152.006 173.058 151.578 172.615C151.149 172.172 150.907 171.581 150.902 170.965C150.896 170.349 151.127 169.754 151.547 169.304C152.417 168.312 152.92 167.053 152.974 165.736C153.018 165.106 152.913 164.475 152.669 163.894C152.424 163.312 152.046 162.796 151.565 162.388C149.979 161.049 147.257 160.247 143.248 164C142.807 164.467 142.197 164.74 141.555 164.758C140.912 164.777 140.288 164.538 139.821 164.097C139.354 163.655 139.081 163.046 139.063 162.404C139.045 161.761 139.283 161.137 139.724 160.67C140.463 159.799 140.883 158.702 140.914 157.56Z" fill="black"/>
<path d="M33.0466 193.363L33.3021 256.997C83.0776 257.067 122.669 232.197 122.669 232.197L90.9536 177.057C90.9536 177.057 60.9474 193.857 33.0907 193.363H33.0466Z" fill="#2563EB"/>
<path d="M52.8505 239.852C52.8328 240.125 52.8929 240.398 53.0239 240.638C53.1549 240.878 53.3514 241.076 53.5905 241.209C53.7545 241.3 53.9351 241.358 54.1217 241.379C54.3082 241.4 54.4971 241.384 54.6774 241.332C54.8577 241.28 55.0259 241.192 55.172 241.074C55.3182 240.956 55.4394 240.81 55.5287 240.645C59.317 233.729 61.6163 224.409 62.3475 212.947C62.6967 207.905 62.6967 202.845 62.3475 197.803C62.3137 197.426 62.1313 197.077 61.8405 196.834C61.5497 196.591 61.1744 196.474 60.797 196.508C60.4197 196.542 60.0712 196.724 59.8284 197.015C59.5855 197.306 59.4681 197.681 59.502 198.058C59.502 198.314 61.6339 223.607 53.0619 239.271C52.9527 239.448 52.8807 239.646 52.8505 239.852Z" fill="black"/>
<path d="M65.0961 197.028C65.0773 197.3 65.1352 197.571 65.2634 197.812C65.3691 198.014 76.1612 218.277 73.5535 236.434C73.4986 236.809 73.5949 237.191 73.8213 237.495C74.0476 237.799 74.3854 238 74.7604 238.055C75.1355 238.11 75.5169 238.014 75.8209 237.788C76.1249 237.561 76.3265 237.223 76.3814 236.848C79.1213 217.722 68.2412 197.31 67.7743 196.456C67.621 196.199 67.3913 195.997 67.1173 195.879C66.8434 195.76 66.5391 195.73 66.2473 195.793C65.9555 195.856 65.6909 196.009 65.4907 196.231C65.2905 196.452 65.1648 196.731 65.1314 197.028H65.0961Z" fill="black"/>
<path d="M29.9985 193.372V193.301C30.0167 192.515 30.3405 191.765 30.9012 191.213C31.4619 190.661 32.2154 190.348 33.0025 190.341C33.0283 190.35 33.0562 190.35 33.0819 190.341H33.1523C59.8373 190.817 89.1829 174.581 89.4824 174.413C90.1741 174.027 90.9898 173.929 91.7532 174.14C92.5165 174.351 93.1661 174.854 93.5613 175.541L125.33 230.681C125.721 231.357 125.835 232.157 125.647 232.915C125.46 233.672 124.986 234.328 124.325 234.743C123.911 234.998 113.991 241.183 97.7812 247.429C82.8045 253.182 59.5201 260.036 33.3373 260.001C32.9428 260.001 32.5522 259.923 32.1877 259.772C31.8232 259.621 31.4921 259.399 31.2132 259.121C30.9342 258.842 30.7129 258.511 30.5619 258.146C30.4109 257.782 30.3332 257.391 30.3332 256.996C30.3332 256.197 30.6507 255.431 31.2157 254.866C31.7808 254.301 32.5471 253.983 33.3461 253.983C58.5334 253.983 81.0337 247.411 95.4642 241.861C103.426 238.834 111.161 235.239 118.608 231.104L89.7908 181.082C81.7562 185.196 56.886 196.799 33.0378 196.376H32.9586C32.1709 196.36 31.4207 196.037 30.8677 195.476C30.3148 194.914 30.0029 194.16 29.9985 193.372Z" fill="#2563EB"/>
<path d="M41.1062 223.641C41.106 223.247 41.2596 222.868 41.5343 222.585C41.809 222.302 42.1832 222.137 42.5774 222.126C71.6498 221.324 95.8064 208.321 96.0531 208.189C96.2274 208.081 96.4219 208.009 96.6249 207.979C96.8278 207.948 97.0349 207.96 97.2332 208.012C97.4316 208.065 97.6172 208.157 97.7786 208.284C97.94 208.411 98.0737 208.569 98.1716 208.749C98.2696 208.93 98.3298 209.128 98.3483 209.332C98.3669 209.537 98.3434 209.743 98.2795 209.938C98.2156 210.133 98.1125 210.312 97.9766 210.466C97.8406 210.62 97.6748 210.744 97.4891 210.832C97.2424 210.973 72.4163 224.319 42.6567 225.139C42.2578 225.148 41.8712 225 41.5809 224.726C41.2906 224.452 41.12 224.075 41.1062 223.677V223.641Z" fill="black"/>
</g>
<defs>
<clipPath id="clip0_6147_206634">
<rect width="260" height="260" fill="white"/>
</clipPath>
</defs>
</svg>
