<svg viewBox="0 0 192 192" fill="none" xmlns="http://www.w3.org/2000/svg">
<rect width="192" height="192" fill="white"/>
<path d="M175.734 158.402C175.734 160.067 175.068 161.663 173.883 162.84C172.698 164.018 171.09 164.679 169.414 164.679H122.997C121.321 164.679 119.713 164.018 118.528 162.84C117.343 161.663 116.677 160.067 116.677 158.402C116.677 156.737 117.343 155.141 118.528 153.963C119.713 152.786 121.321 152.125 122.997 152.125H169.434C171.11 152.125 172.717 152.786 173.903 153.963C175.088 155.141 175.754 156.737 175.754 158.402H175.734Z" fill="white"/>
<path d="M169.325 166.152H123.106C121.205 166.152 119.382 165.374 118.038 163.989C116.694 162.604 115.938 160.726 115.938 158.767C115.938 156.809 116.694 154.931 118.038 153.546C119.382 152.161 121.205 151.383 123.106 151.383H169.325C171.226 151.383 173.049 152.161 174.393 153.546C175.737 154.931 176.492 156.809 176.492 158.767C176.492 160.726 175.737 162.604 174.393 163.989C173.049 165.374 171.226 166.152 169.325 166.152ZM123.106 153.226C122.399 153.226 121.7 153.369 121.047 153.648C120.395 153.926 119.802 154.334 119.303 154.849C118.803 155.364 118.407 155.974 118.137 156.647C117.866 157.319 117.727 158.04 117.727 158.767C117.727 159.495 117.866 160.216 118.137 160.888C118.407 161.56 118.803 162.171 119.303 162.686C119.802 163.2 120.395 163.609 121.047 163.887C121.7 164.166 122.399 164.309 123.106 164.309H169.325C170.752 164.309 172.12 163.725 173.128 162.686C174.137 161.647 174.703 160.237 174.703 158.767C174.703 157.298 174.137 155.888 173.128 154.849C172.12 153.81 170.752 153.226 169.325 153.226H123.106Z" fill="#1D4ED8"/>
<path d="M165.117 161.724C164.885 161.725 164.658 161.665 164.464 161.551C164.27 161.437 164.119 161.274 164.029 161.083C163.94 160.892 163.916 160.681 163.961 160.478C164.005 160.275 164.117 160.088 164.281 159.942L168.566 156.125C168.676 156.027 168.806 155.95 168.95 155.897C169.093 155.844 169.247 155.816 169.402 155.816C169.558 155.816 169.711 155.844 169.855 155.897C169.998 155.95 170.129 156.027 170.238 156.125C170.348 156.223 170.435 156.339 170.495 156.467C170.554 156.595 170.585 156.732 170.585 156.871C170.585 157.009 170.554 157.146 170.495 157.274C170.435 157.402 170.348 157.518 170.238 157.616L165.953 161.437C165.843 161.532 165.712 161.606 165.568 161.655C165.424 161.705 165.271 161.728 165.117 161.724Z" fill="black"/>
<path d="M169.4 161.724C169.245 161.725 169.091 161.699 168.948 161.647C168.804 161.595 168.674 161.517 168.565 161.419L164.284 157.611C164.175 157.513 164.088 157.397 164.028 157.27C163.969 157.142 163.938 157.005 163.938 156.867C163.938 156.729 163.969 156.593 164.028 156.465C164.088 156.338 164.175 156.222 164.284 156.124C164.394 156.027 164.524 155.949 164.668 155.896C164.811 155.844 164.965 155.816 165.12 155.816C165.275 155.816 165.428 155.844 165.572 155.896C165.715 155.949 165.845 156.027 165.955 156.124L170.235 159.929C170.346 160.026 170.434 160.142 170.494 160.27C170.554 160.397 170.585 160.534 170.585 160.672C170.585 160.811 170.554 160.948 170.494 161.075C170.434 161.203 170.346 161.319 170.235 161.416C170.126 161.514 169.996 161.592 169.853 161.645C169.71 161.698 169.556 161.725 169.4 161.724Z" fill="black"/>
<path d="M60.4793 134.917L49.1045 171.191L55.8985 173.322L67.2732 137.047L60.4793 134.917Z" fill="black"/>
<path d="M53.3621 143.767L39.7871 187.059L54.4539 191.658L68.0289 148.366L53.3621 143.767Z" fill="#1D4ED8"/>
<path d="M35.1944 84.1749C32.6584 92.3281 32.5767 101.057 34.9595 109.257C37.3424 117.457 42.0828 124.76 48.5812 130.243C55.0796 135.725 63.044 139.14 71.4671 140.057C79.8903 140.974 88.3936 139.35 95.9018 135.392C103.41 131.433 109.586 125.318 113.648 117.819C117.71 110.32 119.476 101.775 118.722 93.264C117.969 84.7528 114.73 76.6582 109.414 70.004C104.099 63.3498 96.9472 58.4349 88.8624 55.8809C78.0256 52.4576 66.2845 53.5151 56.2205 58.8209C46.1566 64.1267 38.5936 73.2464 35.1944 84.1749ZM44.5504 87.1316C46.5057 80.8497 50.2639 75.2938 55.3498 71.1662C60.4356 67.0385 66.6208 64.5247 73.1231 63.9424C79.6254 63.3602 86.1529 64.7357 91.8802 67.8951C97.6075 71.0544 102.277 75.8557 105.299 81.6918C108.321 87.528 109.56 94.1369 108.858 100.683C108.156 107.229 105.546 113.418 101.356 118.468C97.1674 123.517 91.5878 127.201 85.3233 129.052C79.0589 130.904 72.3908 130.84 66.1622 128.869C62.0258 127.56 58.1854 125.442 54.8606 122.636C51.5358 119.83 48.7916 116.391 46.7846 112.516C44.7777 108.64 43.5475 104.403 43.1641 100.048C42.7808 95.6923 43.2518 91.3034 44.5504 87.1316Z" fill="#1D4ED8"/>
<path d="M62.5976 139.746C54.6241 137.27 47.5024 132.642 42.0285 126.382C36.5546 120.122 32.9443 112.475 31.6013 104.297C30.2583 96.1185 31.2356 87.7309 34.4237 80.0717C37.6119 72.4126 42.8853 65.7837 49.6545 60.9263C55.3348 56.8386 61.9015 54.1269 68.8286 53.0087C75.7558 51.8904 82.8507 52.3967 89.545 54.4867C97.5139 56.9657 104.631 61.5928 110.101 67.8514C115.571 74.11 119.179 81.7535 120.522 89.9282C121.865 98.1029 120.889 106.487 117.705 114.143C114.52 121.8 109.252 128.428 102.488 133.287C94.7974 138.783 85.5649 141.754 76.0853 141.784C71.5112 141.787 66.9632 141.1 62.5976 139.746ZM51.6891 63.7323C44.5806 68.8473 39.2873 76.0627 36.5678 84.3443C33.8482 92.6259 33.842 101.549 36.5499 109.834C39.2579 118.119 44.5411 125.342 51.6424 130.467C58.7438 135.592 67.2987 138.356 76.0813 138.363C84.8322 138.335 93.3546 135.591 100.454 130.516C107.562 125.401 112.856 118.185 115.575 109.903C118.295 101.621 118.301 92.6981 115.592 84.4125C112.884 76.127 107.6 68.9044 100.498 63.7799C93.3959 58.6554 84.8404 55.892 76.0574 55.8858C67.3096 55.9099 58.7887 58.6481 51.6891 63.7165V63.7323ZM65.5662 130.363C59.3512 128.43 53.8003 124.822 49.5339 119.941C45.2675 115.06 42.4535 109.099 41.4063 102.724C40.3591 96.3489 41.12 89.8104 43.6039 83.8393C46.0878 77.8681 50.197 72.6994 55.4723 68.9107C59.9007 65.7219 65.021 63.6064 70.4225 62.7338C75.824 61.8612 81.3565 62.2558 86.5765 63.886C92.7915 65.8185 98.3423 69.4267 102.609 74.3074C106.875 79.1881 109.689 85.149 110.736 91.5243C111.784 97.8996 111.023 104.438 108.539 110.409C106.055 116.38 101.946 121.549 96.6704 125.338C92.242 128.527 87.1217 130.642 81.7202 131.515C76.3187 132.387 70.7862 131.993 65.5662 130.363ZM57.5031 71.697C52.7548 75.1148 49.0576 79.7738 46.824 85.1541C44.5904 90.5345 43.9084 96.4245 44.8539 102.167C45.7994 107.909 48.3353 113.278 52.1786 117.674C56.0219 122.071 61.0214 125.321 66.6193 127.064C71.325 128.534 76.3125 128.89 81.1819 128.103C86.0513 127.317 90.6672 125.41 94.6596 122.536C100.074 118.641 104.106 113.147 106.178 106.84C108.25 100.533 108.255 93.7369 106.192 87.4269C104.129 81.117 100.104 75.6168 94.6953 71.7148C89.2861 67.8129 82.7701 65.7097 76.0813 65.7067C69.4112 65.7243 62.9142 67.8136 57.5031 71.6813V71.697Z" fill="black"/>
<path d="M41.5335 86.6543C39.3929 93.4832 39.3254 100.793 41.3394 107.661C43.3534 114.528 47.3585 120.644 52.8483 125.235C58.3381 129.826 65.0661 132.686 72.1813 133.454C79.2966 134.221 86.4796 132.861 92.8221 129.546C99.1646 126.232 104.382 121.11 107.814 114.83C111.246 108.551 112.739 101.394 112.103 94.2658C111.468 87.1375 108.733 80.3577 104.245 74.7836C99.7566 69.2095 93.7162 65.0916 86.8875 62.9504C82.3531 61.5287 77.583 61.014 72.8497 61.4358C68.1164 61.8576 63.5126 63.2076 59.301 65.4087C55.0895 67.6099 51.3528 70.619 48.3042 74.2643C45.2557 77.9097 42.9549 82.1198 41.5335 86.6543Z" fill="white"/>
<path d="M28.8395 114.787C28.8467 114.815 28.8557 114.843 28.8664 114.87C32.5513 124.591 39.06 132.91 47.507 138.693C47.6814 138.813 47.8951 138.857 48.101 138.815C48.3069 138.773 48.488 138.648 48.6047 138.469C48.7214 138.29 48.764 138.07 48.7231 137.858C48.6822 137.647 48.5612 137.46 48.3867 137.34C40.2079 131.742 33.9053 123.69 30.3365 114.279C30.271 114.075 30.1294 113.906 29.9427 113.809C29.756 113.713 29.5396 113.696 29.3411 113.763C29.1426 113.831 28.9782 113.976 28.8841 114.168C28.7901 114.36 28.774 114.583 28.8395 114.787Z" fill="black"/>
<path d="M11.4937 30.3658L23.8591 37.5501C24.0504 37.6613 24.2777 37.6913 24.491 37.6337C24.7043 37.576 24.8861 37.4354 24.9965 37.2428C25.1068 37.0501 25.1367 36.8212 25.0795 36.6064C25.0222 36.3916 24.8826 36.2084 24.6913 36.0973L12.326 28.913C12.1347 28.8018 11.9074 28.7718 11.6941 28.8294C11.4808 28.8871 11.2989 29.0277 11.1885 29.2203C11.0782 29.413 11.0484 29.6419 11.1056 29.8567C11.1628 30.0716 11.3024 30.2547 11.4937 30.3658Z" fill="black"/>
<path d="M21.4151 52.0608C21.4151 51.767 21.3256 51.4853 21.1665 51.2776C21.0073 51.0698 20.7915 50.9531 20.5664 50.9531H6.01766C5.79258 50.9531 5.57674 51.0698 5.41758 51.2776C5.25842 51.4853 5.16895 51.767 5.16895 52.0608C5.16895 52.3546 5.25842 52.6363 5.41758 52.8441C5.57674 53.0518 5.79258 53.1685 6.01766 53.1685H20.5664C20.7915 53.1685 21.0073 53.0518 21.1665 52.8441C21.3256 52.6363 21.4151 52.3546 21.4151 52.0608Z" fill="black"/>
<path d="M23.8591 66.5732L11.4937 73.7575C11.399 73.8125 11.316 73.8857 11.2494 73.9731C11.1828 74.0604 11.134 74.1602 11.1056 74.2665C11.0773 74.3729 11.07 74.4838 11.0842 74.593C11.0985 74.7022 11.1339 74.8076 11.1885 74.9029C11.2432 74.9983 11.316 75.0819 11.4028 75.149C11.4895 75.2161 11.5885 75.2653 11.6941 75.2938C11.7997 75.3224 11.9099 75.3297 12.0183 75.3153C12.1268 75.301 12.2313 75.2653 12.326 75.2102L24.6913 68.026C24.7861 67.9709 24.8691 67.8977 24.9357 67.8103C25.0023 67.723 25.0512 67.6232 25.0795 67.5169C25.1079 67.4105 25.115 67.2996 25.1008 67.1904C25.0866 67.0812 25.0512 66.9759 24.9965 66.8805C24.9419 66.7851 24.8691 66.7015 24.7824 66.6344C24.6956 66.5673 24.5967 66.5181 24.491 66.4896C24.3854 66.461 24.2752 66.4537 24.1668 66.4681C24.0584 66.4824 23.9538 66.5181 23.8591 66.5732Z" fill="black"/>
<path d="M153.343 171.872C153.343 171.89 154.617 173.454 156.556 173.533C157.719 173.582 158.799 173.089 159.761 172.065C160.944 170.794 161.732 170.549 162.127 170.566C162.749 170.591 163.309 171.256 163.786 171.872C163.786 171.89 165.06 173.451 166.999 173.533C168.182 173.582 169.242 173.089 170.204 172.065C170.922 171.304 171.643 170.921 172.341 170.935C173.421 170.935 174.245 171.883 174.261 171.903C174.392 172.057 174.588 172.16 174.805 172.187C175.023 172.215 175.244 172.166 175.42 172.052C175.596 171.937 175.713 171.766 175.745 171.576C175.777 171.386 175.721 171.193 175.59 171.039C175.538 170.976 174.289 169.529 172.392 169.488C171.154 169.46 169.987 170.018 168.927 171.145C168.324 171.786 167.713 172.103 167.106 172.086C166.203 172.065 165.379 171.321 165.154 171.052C164.61 170.363 163.704 169.181 162.202 169.119C161.019 169.067 159.805 169.732 158.472 171.142C157.873 171.783 157.262 172.1 156.655 172.083C155.752 172.062 154.928 171.318 154.684 171.049C154.139 170.36 153.229 169.178 151.735 169.116C150.552 169.064 149.33 169.729 148.001 171.138C147.402 171.779 146.787 172.096 146.184 172.079C145.281 172.059 144.457 171.314 144.233 171.045C143.688 170.356 142.778 169.174 141.28 169.112C140.097 169.06 138.879 169.726 137.55 171.135C137.479 171.209 137.425 171.295 137.391 171.387C137.358 171.479 137.347 171.577 137.357 171.673C137.368 171.769 137.401 171.863 137.454 171.948C137.506 172.033 137.578 172.108 137.665 172.169C137.749 172.232 137.847 172.28 137.953 172.309C138.058 172.338 138.17 172.348 138.28 172.339C138.391 172.33 138.498 172.301 138.595 172.255C138.693 172.208 138.779 172.145 138.847 172.069C140.03 170.797 140.799 170.553 141.213 170.57C141.832 170.594 142.395 171.259 142.872 171.876C142.872 171.893 144.142 173.454 146.081 173.537C147.264 173.585 148.329 173.092 149.29 172.069C150.473 170.797 151.242 170.553 151.656 170.57C152.302 170.591 152.866 171.256 153.343 171.872Z" fill="black"/>
<path d="M73.6525 79.7121C73.6525 79.7121 69.1493 74.201 69.0244 71.9375C68.8103 69.2284 68.3532 66.5445 67.6586 63.9188C67.6586 63.9188 68.7162 60.3759 74.554 56.8685C74.8193 56.6952 75.0612 56.5339 75.2797 56.404C75.4983 56.2741 75.67 56.1559 75.8417 56.0693L76.2046 55.8647L76.3295 55.7977C76.473 55.7237 76.6046 55.6281 76.7197 55.5143C76.8381 55.4069 76.9428 55.2852 77.0318 55.1521C77.2166 54.8589 77.3487 54.5351 77.4221 54.1955C77.5127 53.8089 77.5508 53.4116 77.5352 53.0146C77.5226 52.5731 77.4423 52.1362 77.2973 51.7195C77.1499 51.3 76.9247 50.9125 76.6338 50.5779C76.3478 50.2568 75.9956 50.0026 75.6019 49.8333C75.2083 49.664 74.7827 49.5836 74.3549 49.5977C74.1351 49.6041 73.9166 49.6344 73.7032 49.6882C73.4884 49.7489 73.2805 49.832 73.0828 49.9362L72.9072 50.0268L72.4233 50.3024C66.5504 53.6523 63.3311 56.6008 63.3311 56.6008C63.3311 56.6008 62.4413 55.8568 61.6023 52.491C60.4628 47.9365 60.1194 41.1657 60.0414 39.6934C60.0414 39.5084 60.0141 39.3313 60.0024 39.162C59.9907 38.9927 60.0024 38.8392 60.0024 38.6896C60.0024 38.3944 59.9751 38.1346 59.9634 37.9023C59.9517 37.6701 59.9634 37.5087 59.9634 37.4142C59.9634 37.3197 59.9634 37.241 59.9634 37.241C59.9571 36.8563 59.8609 36.4787 59.6824 36.1387C59.51 35.7962 59.2758 35.4891 58.9917 35.2333C58.6808 34.9562 58.3294 34.7292 57.9498 34.5602C57.546 34.3776 57.1147 34.2645 56.6738 34.2256C56.2279 34.1803 55.7775 34.2285 55.351 34.3673C54.947 34.497 54.5756 34.7132 54.2622 35.0011C53.9462 35.2911 53.6924 35.6435 53.5168 36.0364C52.9588 37.7842 53.3998 43.8425 53.6495 45.9367C53.8993 48.031 54.0163 50.2275 54.0163 50.2275L51.3628 44.7164C49.2907 38.9573 48.1083 32.9068 43.6168 34.1272C43.2036 34.2927 42.8273 34.5402 42.5106 34.8551C42.1938 35.1699 41.9429 35.5456 41.7726 35.96C41.6023 36.3744 41.5162 36.819 41.5193 37.2676C41.5224 37.7161 41.6146 38.1595 41.7906 38.5715L46.7425 51.7392L38.5478 42.6851C37.5215 41.3113 35.4884 41.0712 34.0094 42.1498C33.6608 42.3831 33.3622 42.6847 33.1313 43.0367C32.9005 43.3887 32.7422 43.7839 32.6657 44.1988C32.5893 44.6138 32.5963 45.04 32.6863 45.4522C32.7764 45.8643 32.9477 46.254 33.19 46.5981L40.4053 55.408C40.4053 55.408 32.5656 52.1525 32.2105 51.936L31.6447 51.6014C31.2998 51.4109 30.9165 51.302 30.5237 51.2829C30.1309 51.2638 29.739 51.335 29.3775 51.4911C28.9987 51.6503 28.6571 51.8877 28.3746 52.1879C28.0776 52.5119 27.8421 52.8882 27.68 53.298C27.5188 53.7019 27.4112 54.1254 27.36 54.5577C27.311 54.9419 27.311 55.3309 27.36 55.7151C27.3836 56.0396 27.4824 56.354 27.6484 56.6329C27.8145 56.9119 28.0432 57.1476 28.3161 57.3212L28.7804 57.5967C29.0809 57.7778 29.5062 58.0415 30.0252 58.384C33.6192 60.5176 36.2689 60.8089 38.0444 62.4386C42.1066 66.1547 46.7894 75.1418 51.4096 78.4642C53.751 80.1412 58.0083 87.8764 58.0083 87.8764L73.6525 79.7121Z" fill="white"/>
<path d="M57.1517 88.1104C55.9624 86.0126 52.545 80.2762 50.7531 79.0239C47.978 77.0485 45.302 73.3665 42.7052 69.7912C40.723 67.0258 38.8161 64.4421 37.0757 62.8697C36.2392 62.1151 35.1173 61.6608 33.698 61.0919C32.1104 60.4903 30.5726 59.765 29.0992 58.923L29.0674 58.9033C28.5322 58.5596 28.1002 58.2988 27.8425 58.1447L27.3746 57.8721C26.9567 57.6223 26.6044 57.2771 26.3466 56.865C26.0888 56.4529 25.933 55.9856 25.8919 55.5018C25.8303 55.027 25.8303 54.5464 25.8919 54.0716C25.9558 53.5468 26.0891 53.0327 26.2883 52.5427C26.499 52.0118 26.8084 51.5252 27.2002 51.1086C27.5863 50.6983 28.0569 50.3762 28.5798 50.1644C28.7731 50.0822 28.9735 50.0174 29.1784 49.9709C30.0695 49.7548 31.0099 49.8862 31.8069 50.3382L32.3699 50.6662C32.6593 50.8123 34.5899 51.6183 36.7308 52.4993L32.0646 46.8696L32.0368 46.834C31.7147 46.4076 31.4817 45.9211 31.3516 45.4033C31.2216 44.8855 31.1971 44.347 31.2796 43.8197C31.3728 43.2393 31.5805 42.6832 31.8908 42.1834C32.2012 41.6836 32.6079 41.2502 33.0874 40.908C33.5854 40.5483 34.15 40.2905 34.7485 40.1496C35.54 39.9543 36.371 39.9885 37.1437 40.2482C37.9163 40.5079 38.5983 40.9821 39.1094 41.6152L43.7359 46.6681L40.6437 38.5456C40.4115 37.98 40.2963 37.3735 40.3052 36.7625C40.314 36.1515 40.4467 35.5486 40.6952 34.99C40.9232 34.4694 41.2542 33.9999 41.6683 33.6096C42.0825 33.2193 42.5713 32.9162 43.1056 32.7184L43.1968 32.6907L43.403 32.6354C45.5438 32.1376 47.3357 32.9396 48.7193 35.0058C49.8293 36.6651 50.6144 38.988 51.4469 41.4493C51.7204 42.2394 52.0019 43.0849 52.2992 43.9027L52.4974 44.2977C52.2754 41.8049 51.9781 36.989 52.5371 35.2507L52.5767 35.152C52.8108 34.6243 53.1538 34.1518 53.5835 33.7651C54.0132 33.3785 54.5198 33.0864 55.0704 32.908C55.6373 32.7289 56.2343 32.6645 56.8266 32.7184C57.3877 32.7713 57.9366 32.914 58.4521 33.1411C58.9396 33.3533 59.3894 33.6428 59.7841 33.9984C60.171 34.3386 60.4899 34.7488 60.7237 35.2073C60.9784 35.6958 61.1142 36.2371 61.1201 36.7876V36.9811C61.1201 37.0325 61.1201 37.151 61.1201 37.2616L61.2391 39.474C61.5602 44.8705 62.0835 49.0266 62.7892 51.8276C63.017 52.8024 63.3437 53.7515 63.7644 54.6603C66.4379 52.5375 69.2821 50.6374 72.2682 48.9792L72.7677 48.6988L72.9778 48.5881C73.2396 48.4546 73.5146 48.3487 73.7985 48.2721C74.0887 48.1952 74.3865 48.1502 74.6865 48.1377C75.2756 48.1158 75.8623 48.2234 76.4049 48.4528C76.9475 48.6822 77.4328 49.0278 77.8263 49.4652C78.2139 49.9015 78.5129 50.4087 78.7065 50.9585C78.8905 51.4757 78.9934 52.018 79.0117 52.5664C79.0286 53.058 78.9793 53.5496 78.8651 54.0282C78.7572 54.4897 78.568 54.9284 78.3061 55.3239C78.1714 55.5215 78.0143 55.7031 77.8382 55.8652C77.6484 56.0453 77.4335 56.197 77.2 56.3156L76.7321 56.5724C76.5894 56.6474 76.3992 56.762 76.2129 56.8766H76.193C76.0265 56.9753 75.8283 57.1018 75.6182 57.24L75.4992 57.3151H75.4675C70.8806 60.041 69.386 62.763 69.0213 63.565C69.7012 66.1632 70.1471 68.8167 70.3534 71.494C70.4287 72.8095 73.0096 76.4994 74.8213 78.696C74.9189 78.8158 74.9886 78.9557 75.0254 79.1056C75.0622 79.2555 75.0651 79.4116 75.034 79.5628C75.0029 79.714 74.9385 79.8563 74.8455 79.9797C74.7525 80.1031 74.6332 80.2044 74.4962 80.2762L58.567 88.4857C58.49 88.5246 58.4089 88.5551 58.3252 88.5765C58.1053 88.6382 57.8713 88.626 57.6592 88.5417C57.447 88.4574 57.2687 88.3058 57.1517 88.1104ZM68.2522 71.652C68.0368 69.0057 67.5844 66.3838 66.9004 63.8178C66.8469 63.6306 66.8469 63.4322 66.9004 63.245C66.9479 63.087 68.161 59.2746 74.3495 55.5887L74.4526 55.5254C74.6785 55.3753 74.8966 55.237 75.1028 55.1304C75.309 55.0237 75.5191 54.8775 75.7054 54.7748L76.0661 54.5734H76.0939L76.2326 54.5022C76.2941 54.4718 76.3504 54.4318 76.3992 54.3837C76.459 54.3309 76.5122 54.2713 76.5577 54.2059C76.6847 54.0144 76.776 53.8016 76.8273 53.5778C76.8982 53.2817 76.9276 52.9772 76.9146 52.6731C76.9047 52.3375 76.8417 52.0055 76.7282 51.6894C76.628 51.3978 76.4703 51.1292 76.2644 50.8992C76.0774 50.6878 75.8456 50.5203 75.5858 50.409C75.3259 50.2976 75.0445 50.2451 74.7618 50.2553C74.6349 50.2571 74.5086 50.273 74.3852 50.3027H74.3377C74.1882 50.3428 74.0433 50.3984 73.9055 50.4686L73.7786 50.5358L73.287 50.8084C67.5108 54.0677 64.2718 56.9674 64.2401 56.999C64.0541 57.1659 63.8143 57.2609 63.5641 57.2667C63.3139 57.2725 63.0699 57.1887 62.8764 57.0307C62.6028 56.8055 61.6394 55.802 60.7712 52.361C59.6572 47.9481 59.2846 41.6942 59.1617 39.6201L59.1062 38.8063V38.7826L59.0388 37.3841C59.0388 37.23 59.0388 37.1076 59.0388 36.989V36.827C59.0347 36.6011 58.9777 36.3792 58.8723 36.1791C58.7557 35.9503 58.5954 35.7464 58.4005 35.5786C58.1643 35.3719 57.8967 35.2038 57.6076 35.0808C57.3007 34.9457 56.9742 34.8604 56.6403 34.828C56.3278 34.7983 56.0126 34.8305 55.7127 34.9228C55.4405 35.0094 55.1902 35.1536 54.9792 35.3456C54.7787 35.5239 54.6157 35.7401 54.4995 35.9816C54.0674 37.4749 54.3964 42.9743 54.6938 45.4237C54.9475 47.5373 55.0664 49.7101 55.0704 49.801C55.0835 50.042 55.0113 50.28 54.8664 50.4735C54.7215 50.667 54.5131 50.8037 54.2775 50.8597C54.0461 50.9169 53.8021 50.8935 53.5858 50.7937C53.3696 50.6938 53.194 50.5234 53.0881 50.3106L50.3923 44.7797C50.3753 44.7465 50.3608 44.7122 50.3487 44.677C50.0355 43.8236 49.7461 42.9624 49.4647 42.1249C47.5934 36.594 46.4318 34.0695 43.8628 34.6661H43.7796C43.2475 34.8795 42.8205 35.2922 42.5902 35.8157C42.4575 36.1214 42.3873 36.4504 42.3839 36.7835C42.3805 37.1167 42.4439 37.4471 42.5704 37.7554L47.6013 50.9664C47.6891 51.1921 47.6948 51.4414 47.6173 51.6708C47.5397 51.9002 47.3839 52.0953 47.177 52.2222C46.97 52.349 46.7251 52.3996 46.4846 52.365C46.2442 52.3305 46.0235 52.213 45.8609 52.0331L37.5356 42.9466L37.4761 42.8716C37.2107 42.5448 36.8563 42.3013 36.4555 42.1703C36.0547 42.0392 35.6244 42.0262 35.2163 42.1327C34.8875 42.2107 34.5776 42.3531 34.3046 42.5515C34.0488 42.7319 33.8313 42.9609 33.6646 43.2253C33.4979 43.4897 33.3853 43.7844 33.3332 44.0923C33.293 44.3431 33.3032 44.5993 33.3631 44.8461C33.423 45.0929 33.5314 45.3255 33.6821 45.5303L40.9926 54.3561C41.14 54.5335 41.2238 54.7549 41.2308 54.9852C41.2377 55.2155 41.1673 55.4415 41.0308 55.6274C40.8943 55.8134 40.6994 55.9486 40.4771 56.0117C40.2547 56.0748 40.0176 56.0622 39.8032 55.9758C36.1361 54.4706 31.6959 52.6336 31.351 52.4202L30.7841 52.0884C30.5713 51.9749 30.3354 51.9112 30.0943 51.9023C29.8531 51.8934 29.6131 51.9395 29.3925 52.037C29.1412 52.1404 28.9154 52.2967 28.7305 52.4953C28.5188 52.7267 28.3509 52.9944 28.2349 53.2854C28.1083 53.6052 28.0229 53.9397 27.9812 54.281C27.9414 54.5759 27.9414 54.8749 27.9812 55.1699C28.0763 55.8257 28.346 55.96 28.4451 56.0351L28.9287 56.3195C29.2062 56.4854 29.6542 56.7541 30.2013 57.1096C31.5801 57.8943 33.0184 58.5706 34.5028 59.1324C36.0529 59.7566 37.3928 60.2939 38.5029 61.2973C40.4058 63.0119 42.3523 65.6984 44.4178 68.5389C46.9194 71.9799 49.5043 75.5394 51.99 77.3014C54.0713 78.7789 57.2428 84.0175 58.4996 86.2141L72.4149 79.0397C70.9639 77.2184 68.3751 73.6273 68.2522 71.652Z" fill="black"/>
<path d="M54.8156 70.1112C54.9517 70.0818 55.0805 70.0262 55.1947 69.9475C55.3088 69.8688 55.406 69.7688 55.4807 69.653C55.5554 69.5372 55.6061 69.408 55.6299 69.2729C55.6536 69.1377 55.6501 68.9993 55.6193 68.8656C54.9884 66.1764 55.2898 63.8472 56.5153 61.945C58.7535 58.4689 63.3784 57.4407 63.4226 57.4328C63.6954 57.3725 63.9327 57.208 64.0823 56.9755C64.2319 56.743 64.2815 56.4615 64.2202 56.193C64.159 55.9245 63.9918 55.691 63.7555 55.5437C63.5193 55.3965 63.2333 55.3477 62.9605 55.408C62.7355 55.4555 57.4476 56.5944 54.7272 60.8219C53.1802 63.2144 52.7823 66.0776 53.5458 69.3362C53.6072 69.6061 53.775 69.8411 54.0124 69.9894C54.2497 70.1377 54.5372 70.1872 54.8116 70.1271L54.8156 70.1112Z" fill="black"/>
<path d="M39.0838 58.3239C39.1728 58.307 39.2562 58.2695 39.3267 58.2146C39.3972 58.1597 39.4526 58.0892 39.4884 58.0091C40.9002 54.7865 45.961 52.9555 49.9579 51.9487C52.7716 51.2719 55.6365 50.8092 58.5259 50.5648C58.6024 50.5629 58.6777 50.5461 58.7473 50.5154C58.8168 50.4847 58.8792 50.4408 58.9306 50.3863C58.982 50.3318 59.0214 50.2679 59.0463 50.1984C59.0713 50.1289 59.0813 50.0552 59.0759 49.9819C59.0704 49.9085 59.0495 49.837 59.0144 49.7717C58.9794 49.7063 58.931 49.6484 58.872 49.6015C58.8131 49.5547 58.7448 49.5197 58.6714 49.4989C58.598 49.4781 58.5211 49.4717 58.4451 49.4803C57.7533 49.5269 41.4545 50.7281 38.4447 57.5853C38.3867 57.7179 38.3856 57.8671 38.4417 58.0004C38.4977 58.1336 38.6065 58.2402 38.7441 58.2967C38.8515 58.3402 38.9704 58.3497 39.0838 58.3239Z" fill="black"/>
<path d="M76.6981 73.1094L76.7976 73.2724L77.06 73.7219L77.4576 74.4298C77.6207 74.7121 77.7996 75.0223 77.9945 75.3763L78.6506 76.5376L79.3863 77.9017C79.9231 78.8761 80.4798 79.9697 81.1041 81.1668C83.5616 85.9392 86.5241 92.4019 89.1129 99.0634C90.4132 102.38 91.6181 105.741 92.6679 108.93C93.2206 110.521 93.6699 112.076 94.1272 113.548C94.3539 114.283 94.5726 115.003 94.7834 115.695C94.9942 116.387 95.1611 117.075 95.3401 117.724C95.694 119.028 96.02 120.221 96.3103 121.279C96.6006 122.337 96.7916 123.268 96.9785 124.063C97.3403 125.602 98.2151 129.344 98.2151 129.344L85.1443 135.879L71.0117 135.612C71.0117 135.612 70.2602 132.283 69.9579 131.011C69.8068 130.374 69.6318 129.603 69.4091 128.72C69.1864 127.837 68.9001 126.843 68.6138 125.757C68.4627 125.216 68.3156 124.652 68.1526 124.067C67.9895 123.482 67.7867 122.874 67.5998 122.269C67.2021 121.032 66.8443 119.724 66.3751 118.392C65.4883 115.707 64.4743 112.868 63.3728 110.04C61.1817 104.42 58.6566 98.9043 56.6127 94.9551C56.0997 93.9728 55.6384 93.0581 55.209 92.2826L54.6165 91.1889L54.1035 90.2662C53.9484 89.9958 53.8132 89.7492 53.7058 89.5543L53.4076 89.0413L53.2287 88.7351L53.1689 88.6396L76.6981 73.1094Z" fill="#1D4ED8"/>
<path d="M70.5458 134.392C70.6207 134.385 70.6949 134.372 70.7678 134.353C71.1569 134.241 71.4869 133.981 71.6876 133.629C71.8883 133.278 71.9437 132.862 71.8422 132.47L71.3665 130.487C71.311 130.253 71.2515 130.004 71.192 129.742C71.081 129.278 70.9581 128.751 70.7956 128.184C70.7974 128.172 70.7974 128.16 70.7956 128.148L70.0027 125.199C69.9472 125 69.8916 124.802 69.8401 124.596C69.741 124.239 69.6418 123.87 69.5348 123.494C69.5348 123.494 69.5348 123.494 69.5348 123.462L68.9838 121.67C68.8728 121.313 68.7657 120.96 68.6586 120.6C68.3811 119.684 68.0917 118.732 67.7468 117.753C66.8151 114.93 65.8002 112.112 64.7298 109.38C62.7237 104.226 60.2419 98.6994 57.9266 94.1917C57.768 93.8904 57.6213 93.601 57.4746 93.3235C57.1377 92.6693 56.8165 92.0469 56.5073 91.4918L55.9166 90.4056V90.3818L55.4131 89.4818C55.3457 89.3669 55.2862 89.2598 55.2307 89.1567L76.1913 75.3244C76.3459 75.59 76.5085 75.8834 76.6908 76.2085L77.3371 77.3582L78.0705 78.7061C78.467 79.4237 78.8635 80.2167 79.3115 81.0571L79.7673 81.9373C82.4712 87.2022 85.3574 93.6407 87.6964 99.5994C88.9453 102.771 90.1268 106.066 91.2131 109.352V109.38C91.6095 110.514 91.9544 111.656 92.2914 112.758C92.4103 113.154 92.5292 113.551 92.6482 113.947L93.2984 116.064C93.4253 116.516 93.5442 116.96 93.6631 117.392C93.7226 117.618 93.786 117.84 93.8455 118.062L94.8049 121.587C94.9793 122.285 95.134 122.935 95.2688 123.51C95.3362 123.795 95.3996 124.065 95.4631 124.303L96.0339 126.709C96.0743 126.904 96.1531 127.088 96.2656 127.252C96.3782 127.416 96.5224 127.556 96.6896 127.663C96.8568 127.77 97.0439 127.843 97.2397 127.878C97.4354 127.912 97.6361 127.907 97.8299 127.863C98.219 127.751 98.549 127.491 98.7497 127.139C98.9504 126.788 99.0058 126.372 98.9043 125.98L98.3334 123.565C98.27 123.311 98.2065 123.046 98.1391 122.772C98.0004 122.185 97.8458 121.515 97.6634 120.79C97.6612 120.78 97.6612 120.769 97.6634 120.758L96.696 117.214C96.6365 116.992 96.5771 116.77 96.5136 116.548C96.3947 116.1 96.2678 115.64 96.1172 115.172C96.1195 115.163 96.1195 115.154 96.1172 115.144L95.4631 113.004L95.1102 111.842C94.7652 110.712 94.4125 109.542 93.9962 108.349C92.894 105.011 91.6928 101.677 90.4281 98.4378C88.0494 92.3839 85.1314 85.8305 82.376 80.4664L81.9161 79.5823C81.4721 78.722 81.0518 77.9132 80.6435 77.1679L79.9101 75.8199L79.2599 74.6583C79.0616 74.3015 78.8634 73.9843 78.7049 73.687L77.912 72.3628C77.8154 72.1911 77.6846 72.0409 77.5276 71.9218C77.3706 71.8026 77.1908 71.717 76.9994 71.6702C76.808 71.6233 76.609 71.6163 76.4148 71.6495C76.2205 71.6827 76.0351 71.7555 75.8701 71.8633L52.4159 87.3251C52.2446 87.4308 52.0959 87.5693 51.9782 87.7325C51.8605 87.8958 51.7761 88.0807 51.73 88.2766C51.6407 88.6838 51.7117 89.1097 51.9282 89.466L51.9837 89.5611C52.0194 89.6126 52.071 89.7039 52.1423 89.8268L52.4397 90.3381C52.5507 90.5284 52.6775 90.7346 52.8361 91.028L53.3396 91.92L53.9224 93.0024C54.2118 93.5217 54.525 94.1243 54.854 94.7586L55.306 95.6309C57.5698 100.032 59.9961 105.459 61.9665 110.506C63.0171 113.19 64.0162 115.957 64.928 118.732V118.764C65.2531 119.676 65.5306 120.596 65.8002 121.484C65.9112 121.852 66.0183 122.213 66.1293 122.57L66.6724 124.342C66.7755 124.695 66.8666 125.044 66.9618 125.385C67.0173 125.595 67.0729 125.781 67.1284 125.999L67.9213 128.929C68.0561 129.468 68.175 129.976 68.282 130.424L68.4604 131.185L68.9361 133.167C69.0038 133.535 69.2063 133.865 69.504 134.091C69.8017 134.318 70.1731 134.425 70.5458 134.392Z" fill="#1D4ED8"/>
<path d="M83.5935 127.012H83.6605C83.8306 126.971 83.9784 126.866 84.0738 126.72C84.1692 126.574 84.205 126.397 84.1739 126.225C84.1423 126.068 83.4118 122.292 81.102 115.492C78.9778 109.251 75.0531 99.1943 68.4277 86.7544C68.3891 86.6762 68.3348 86.6068 68.2682 86.5503C68.2016 86.4939 68.1241 86.4516 68.0405 86.4262C67.9569 86.4008 67.8689 86.3927 67.7821 86.4025C67.6952 86.4122 67.6112 86.4396 67.5354 86.483C67.3816 86.5777 67.27 86.7275 67.2237 86.9016C67.1775 87.0757 67.2 87.2609 67.2866 87.419C73.8646 99.7763 77.7617 109.75 79.8701 115.945C82.1484 122.631 82.8788 126.442 82.8867 126.481C82.9198 126.64 83.0097 126.781 83.1397 126.879C83.2697 126.977 83.431 127.024 83.5935 127.012Z" fill="black"/>
<path d="M89.5038 113.597C89.63 113.583 89.7494 113.529 89.8471 113.443C89.9448 113.357 90.0165 113.241 90.0529 113.112C90.1117 112.932 90.1039 112.734 90.031 112.56C89.9581 112.386 89.8256 112.248 89.6607 112.175C86.2559 110.836 81.894 110.451 76.6927 111.032C74.4021 111.271 72.1314 111.691 69.8989 112.288C69.7285 112.343 69.5851 112.467 69.4994 112.634C69.4136 112.8 69.3923 112.996 69.4399 113.179C69.4589 113.268 69.4943 113.353 69.544 113.428C69.5937 113.503 69.6568 113.567 69.7297 113.616C69.8026 113.665 69.8837 113.698 69.9686 113.713C70.0535 113.729 70.1404 113.726 70.2244 113.706C70.3342 113.672 81.5292 110.501 89.2291 113.539C89.3157 113.579 89.4094 113.599 89.5038 113.597Z" fill="black"/>
<path d="M69.3944 111.504C69.5202 111.491 69.6395 111.439 69.7373 111.356C69.8201 111.286 78.1083 104.274 86.5028 104.086C86.5909 104.081 86.6771 104.058 86.7567 104.019C86.8362 103.979 86.9076 103.923 86.9665 103.855C87.0255 103.787 87.0708 103.707 87.1002 103.621C87.1295 103.534 87.1421 103.442 87.1373 103.351C87.1373 103.164 87.0664 102.985 86.9401 102.853C86.8139 102.72 86.6425 102.646 86.4634 102.645C77.6235 102.846 69.2762 109.915 68.9254 110.219C68.7882 110.341 68.7008 110.513 68.681 110.7C68.6613 110.887 68.7106 111.074 68.819 111.225C68.8835 111.319 68.9704 111.395 69.0713 111.443C69.1722 111.492 69.2835 111.513 69.3944 111.504Z" fill="black"/>
<path d="M122.697 66.2958C118.605 61.7406 115.618 56.3039 113.968 50.4075C112.318 44.5111 112.049 38.3138 113.182 32.2966C113.317 31.5747 113.475 30.8574 113.633 30.1445L171.729 74.3579C166.061 77.5526 159.696 79.3057 153.193 79.463C146.689 79.6203 140.246 78.1771 134.431 75.2603L112.361 87.2475L122.697 66.2958Z" fill="#1D4ED8"/>
<path d="M186.904 20.2444C184.161 15.3755 180.422 11.1395 175.932 7.81274C171.442 4.48597 166.3 2.14313 160.844 0.937031C155.387 -0.269064 149.737 -0.31132 144.263 0.813017C138.789 1.93735 133.613 4.20303 129.074 7.46227C124.534 10.7215 120.733 14.9011 117.917 19.7284C115.102 24.5557 113.335 29.9224 112.733 35.4783C112.131 41.0342 112.708 46.6546 114.424 51.9729C116.141 57.2912 118.959 62.1879 122.695 66.3437L112.377 87.2819L134.448 75.2946C142.059 79.1012 150.691 80.3656 159.074 78.902C167.457 77.4384 175.15 73.324 181.021 67.1635C186.892 61.0031 190.632 53.1216 191.691 44.6777C192.75 36.2338 191.072 27.6729 186.904 20.2534V20.2444Z" fill="#1D4ED8"/>
<path d="M112.382 88.3033C112.561 88.3038 112.736 88.2588 112.892 88.1724L134.476 76.4423C140.403 79.31 146.935 80.701 153.516 80.4967C160.097 80.2925 166.531 78.499 172.269 75.2693C172.401 75.2055 172.519 75.1154 172.615 75.0044C172.711 74.8934 172.783 74.7639 172.827 74.624C172.871 74.484 172.885 74.3366 172.87 74.1907C172.855 74.0448 172.81 73.9036 172.738 73.7758C172.666 73.6479 172.569 73.5362 172.452 73.4475C172.335 73.3587 172.201 73.2949 172.059 73.2598C171.916 73.2247 171.768 73.2192 171.624 73.2436C171.479 73.268 171.341 73.3217 171.218 73.4015C165.702 76.506 159.509 78.2093 153.181 78.3619C146.854 78.5145 140.586 77.1118 134.927 74.2768C134.774 74.198 134.605 74.157 134.433 74.157C134.261 74.157 134.092 74.198 133.939 74.2768L114.832 84.6534L123.657 66.747C123.752 66.555 123.788 66.3388 123.759 66.1265C123.73 65.9141 123.638 65.7153 123.494 65.5559C119.514 61.1227 116.608 55.8325 115.002 50.0953C113.396 44.358 113.132 38.328 114.232 32.4726C114.368 31.7733 114.521 31.0695 114.683 30.3792C114.752 30.1034 114.707 29.8118 114.561 29.5685C114.414 29.3253 114.176 29.1503 113.901 29.0821C113.625 29.0139 113.333 29.0581 113.09 29.2049C112.847 29.3516 112.672 29.5891 112.604 29.8649C112.423 30.5912 112.261 31.3356 112.121 32.0755C110.979 38.1333 111.221 44.3708 112.83 50.3217C114.439 56.2726 117.372 61.7828 121.41 66.4402L111.412 86.7423C111.311 86.9457 111.277 87.1764 111.316 87.4005C111.355 87.6245 111.465 87.8302 111.629 87.9875C111.829 88.1871 112.1 88.3004 112.382 88.3033Z" fill="black"/>
<path d="M134.36 22.3682C137.261 20.735 140.647 20.1833 143.916 20.8111C147.186 21.4389 150.127 23.2055 152.217 25.797C154.306 23.2058 157.246 21.4394 160.515 20.8116C163.783 20.1838 167.169 20.7353 170.069 22.3682C176.836 26.176 178.384 34.3419 175.433 41.5288C171.612 50.8407 163.252 57.0081 152.217 64.962C141.177 57.0081 132.817 50.8407 128.996 41.5288C126.05 34.3419 127.588 26.176 134.36 22.3682Z" fill="white"/>
</svg>
