<svg viewBox="0 0 192 192" fill="none" xmlns="http://www.w3.org/2000/svg">
<g clip-path="url(#clip0_918_37628)">
<rect width="192" height="192" fill="white"/>
<path d="M166.448 122.656C166.251 122.903 166.016 123.12 165.749 123.292C165.064 123.732 164.219 123.827 163.531 124.259C163.394 124.6 163.249 124.937 163.096 125.27C162.03 127.602 160.599 129.745 158.843 131.617C156.89 133.699 154.543 135.442 151.966 136.662C150.483 137.364 148.932 137.913 147.33 138.262C146.906 138.355 146.409 138.14 146.303 137.682C146.206 137.263 146.426 136.75 146.88 136.651C147.554 136.504 148.222 136.324 148.878 136.11C149.2 136.004 149.52 135.892 149.836 135.77C149.989 135.711 150.14 135.652 150.292 135.589C150.363 135.56 150.433 135.53 150.505 135.501C150.551 135.482 150.596 135.461 150.642 135.442C151.891 134.888 153.088 134.212 154.213 133.432C154.492 133.238 154.767 133.038 155.037 132.833C155.064 132.812 155.14 132.753 155.159 132.738C155.21 132.698 155.261 132.658 155.311 132.616C155.448 132.506 155.583 132.394 155.719 132.282C156.248 131.835 156.757 131.366 157.245 130.872C157.733 130.379 158.198 129.863 158.639 129.328C158.744 129.202 158.848 129.072 158.95 128.944C158.993 128.888 159.037 128.833 159.081 128.777C159.087 128.771 159.092 128.765 159.095 128.758C159.125 128.718 159.155 128.678 159.186 128.638C159.39 128.364 159.587 128.085 159.78 127.804C160.217 127.16 160.62 126.493 160.988 125.806C161.166 125.473 161.337 125.135 161.498 124.794C161.584 124.613 161.667 124.429 161.748 124.245C161.786 124.158 161.823 124.07 161.859 123.984C161.859 123.982 161.861 123.98 161.863 123.977C161.883 123.926 161.904 123.875 161.926 123.822C161.947 123.769 161.972 123.719 162.001 123.67C161.796 123.498 161.593 123.317 161.408 123.13C160.451 122.382 160.08 121.038 160.35 119.924C160.698 118.593 161.694 117.13 163.268 117.042C163.512 117.02 163.755 117.023 163.994 117.05C164.952 117.158 165.855 117.64 166.56 118.375C167.399 119.249 167.387 120.809 166.925 121.868C166.802 122.15 166.643 122.417 166.45 122.658L166.448 122.656Z" fill="black"/>
<path d="M160.492 112.325C160.628 111.849 161.045 111.599 161.539 111.689C162.073 111.787 162.293 112.174 162.436 112.655C162.927 114.304 162.909 116.044 163.042 117.746C163.043 117.777 163.042 117.804 163.035 117.83C163.031 117.887 163.007 117.945 162.957 117.995C162.682 118.272 162.247 118.682 161.813 118.489C161.608 118.398 161.584 118.264 161.522 118.059C161.227 117.086 160.986 116.097 160.779 115.102C160.604 114.261 160.288 113.038 160.491 112.325H160.492Z" fill="black"/>
<path d="M163.054 117.41C163.779 115.729 164.319 114.003 165.435 112.537C165.702 112.195 166.408 112.166 166.663 112.627C166.768 112.907 166.693 113.335 166.563 113.625C165.682 115.082 164.855 116.678 163.819 118.1C163.59 118.175 163.341 118.029 163.054 117.41Z" fill="black"/>
<path d="M163.284 117.54C163.706 116.551 164.074 115.539 164.536 114.569C164.765 114.085 165.019 113.612 165.314 113.166C165.479 112.914 165.651 112.559 165.992 112.544C166.384 112.528 166.483 112.893 166.421 113.209C166.33 113.672 165.967 114.115 165.733 114.521C165.462 114.987 165.196 115.456 164.92 115.919C164.643 116.386 164.359 116.849 164.058 117.301C163.994 117.395 163.784 117.823 163.668 117.837C163.531 117.854 163.333 117.371 163.287 117.277C163.135 116.971 162.681 117.238 162.831 117.541C163.005 117.892 163.285 118.42 163.757 118.379C163.98 118.358 164.045 118.239 164.17 118.065C164.405 117.733 164.63 117.394 164.847 117.049C165.317 116.306 165.75 115.542 166.19 114.782C166.518 114.215 166.972 113.652 166.975 112.967C166.979 112.472 166.684 112.1 166.187 112.027C165.65 111.947 165.317 112.243 165.028 112.651C164.037 114.056 163.497 115.709 162.828 117.277C162.696 117.586 163.151 117.85 163.285 117.538L163.284 117.54Z" fill="black"/>
<path d="M29.5887 135.454C29.8627 135.611 30.1607 135.728 30.4714 135.79C31.2697 135.949 32.0903 135.726 32.8885 135.877C33.1403 136.143 33.3968 136.404 33.6597 136.659C35.5 138.438 37.6096 139.907 39.9264 141.005C42.5012 142.226 45.3199 142.987 48.1608 143.177C49.7972 143.286 51.4383 143.227 53.0588 142.964C53.4874 142.895 53.8714 142.512 53.8029 142.046C53.7407 141.62 53.3503 141.223 52.8899 141.298C52.2079 141.409 51.5212 141.487 50.8329 141.527C50.4951 141.548 50.1557 141.56 49.8179 141.563C49.6538 141.564 49.4913 141.563 49.3271 141.563C49.2507 141.563 49.1742 141.56 49.0961 141.558C49.0467 141.556 48.9973 141.555 48.9479 141.553C47.5824 141.495 46.2249 141.306 44.8944 140.993C44.5646 140.916 44.2364 140.829 43.9097 140.736C43.8779 140.727 43.7855 140.699 43.7616 140.693C43.6994 140.674 43.6373 140.656 43.5767 140.637C43.4094 140.584 43.2421 140.531 43.0748 140.475C42.42 140.254 41.7746 140.003 41.1421 139.724C40.5095 139.444 39.8881 139.135 39.2826 138.798C39.1392 138.718 38.9958 138.637 38.854 138.553C38.7935 138.518 38.7329 138.481 38.6724 138.446C38.6644 138.441 38.6581 138.438 38.6517 138.433C38.6087 138.408 38.5656 138.38 38.5242 138.355C38.2342 138.175 37.949 137.988 37.6686 137.796C37.0281 137.357 36.4098 136.884 35.8187 136.38C35.5319 136.135 35.2515 135.883 34.9758 135.624C34.8308 135.486 34.6858 135.347 34.544 135.204C34.4771 135.137 34.4118 135.07 34.3448 135.002C34.3433 135.001 34.3417 134.999 34.3401 134.998C34.3018 134.958 34.2636 134.918 34.2253 134.878C34.1871 134.836 34.1457 134.799 34.1011 134.764C34.2317 134.53 34.3528 134.287 34.4564 134.043C35.0762 132.996 34.9328 131.609 34.2763 130.67C33.4701 129.559 32.0106 128.562 30.5128 129.059C30.277 129.128 30.0524 129.221 29.8388 129.333C28.9848 129.784 28.3204 130.564 27.9316 131.508C27.4679 132.63 28.0463 134.078 28.8605 134.894C29.0772 135.11 29.3226 135.302 29.5887 135.454Z" fill="black"/>
<path d="M31.3766 123.648C31.077 123.254 30.5974 123.176 30.1704 123.442C29.7099 123.728 29.6446 124.171 29.686 124.67C29.8294 126.386 30.4779 128 30.9719 129.632C30.9798 129.661 30.9942 129.685 31.0085 129.707C31.034 129.759 31.077 129.803 31.1408 129.832C31.4977 129.989 32.0522 130.21 32.3852 129.872C32.5429 129.712 32.5158 129.578 32.4999 129.365C32.4202 128.351 32.2848 127.342 32.1159 126.339C31.9725 125.492 31.8227 124.238 31.375 123.648H31.3766Z" fill="black"/>
<path d="M30.841 129.323C29.5568 128.025 28.4255 126.616 26.8545 125.661C26.48 125.44 25.814 125.673 25.7439 126.196C25.7471 126.496 25.9733 126.867 26.1996 127.089C27.5492 128.122 28.9003 129.304 30.3806 130.245C30.6211 130.231 30.7996 130.003 30.841 129.323Z" fill="black"/>
<path d="M30.6755 129.528C29.9234 128.762 29.2128 127.955 28.4305 127.221C28.0401 126.856 27.6338 126.509 27.1972 126.201C26.9518 126.028 26.6618 125.761 26.34 125.873C25.9687 126.003 26.0101 126.377 26.1838 126.648C26.4372 127.045 26.9359 127.326 27.3024 127.617C27.723 127.952 28.1421 128.29 28.5675 128.62C28.9945 128.953 29.4279 129.28 29.8724 129.589C29.9648 129.653 30.3186 129.973 30.4317 129.944C30.5655 129.909 30.5735 129.387 30.5831 129.283C30.6117 128.943 31.1328 129.025 31.1025 129.361C31.069 129.752 31.0005 130.346 30.5448 130.481C30.3297 130.543 30.2246 130.457 30.0461 130.34C29.7051 130.119 29.3737 129.883 29.0455 129.643C28.338 129.124 27.6577 128.572 26.9709 128.026C26.4595 127.619 25.8317 127.262 25.5799 126.626C25.3967 126.166 25.5369 125.713 25.9735 125.461C26.4435 125.191 26.861 125.343 27.2785 125.618C28.7109 126.562 29.8151 127.902 31.0069 129.116C31.2427 129.355 30.9145 129.77 30.6771 129.528H30.6755Z" fill="black"/>
<path opacity="0.05" d="M66.4368 189.376C66.0178 191.391 71.381 191.703 73.4444 191.953C80.7642 192.837 88.2052 192.123 95.5123 191.543C96.3392 191.44 97.1678 191.343 97.9979 191.259C105.63 190.497 113.1 191.839 120.713 191.991C127.038 192.118 133.402 192.052 139.707 191.52C140.709 191.435 142.449 191.349 143.085 190.545C143.724 189.736 143.061 189.118 142.131 188.844C137.631 187.519 132.739 187.518 128.042 187.378C118.476 187.095 109.033 188.971 99.4989 188.503C97.3765 188.399 95.2781 188.117 93.178 187.851C92.4785 187.763 91.7775 187.676 91.0764 187.6C87.0707 187.157 82.9806 187.082 78.9287 187.236C76.8605 187.314 74.7955 187.433 72.7433 187.612C71.0511 187.761 68.7742 187.782 67.3386 188.436C66.7985 188.681 66.5101 189.022 66.4368 189.377V189.376Z" fill="black"/>
<path d="M120.192 155.748C120.675 156.193 121.162 156.64 121.624 157.118L121.593 157.092C121.656 157.143 121.753 157.222 121.819 157.295C122.375 157.84 122.923 158.389 123.465 158.943C124.564 160.066 125.638 161.21 126.694 162.365C128.794 164.661 130.818 167.008 132.829 169.36C133.968 170.693 135.103 172.027 136.247 173.358C136.623 173.795 137.3 174.034 137.663 173.795C138.023 173.558 138.055 173.019 137.652 172.551C133.571 167.8 129.58 162.983 125.17 158.444C124.524 157.779 123.869 157.121 123.207 156.471C122.544 155.82 121.868 155.175 121.18 154.534C120.745 154.129 120.022 154.105 119.792 154.424C119.523 154.798 119.719 155.311 120.192 155.75V155.748Z" fill="black"/>
<path d="M137.305 173.294C137.494 173.22 137.682 173.134 137.869 173.038C138.055 172.942 138.235 172.834 138.414 172.719C138.989 172.245 139.758 171.633 140.278 170.928C140.408 170.752 140.522 170.57 140.614 170.382C140.682 170.248 140.753 170.092 140.81 169.932C140.867 169.77 140.912 169.602 140.933 169.439C141.033 168.928 140.616 168.592 140.169 168.478C139.645 168.4 139.156 168.401 138.697 168.619C138.573 168.675 138.455 168.741 138.343 168.813C137.333 169.471 136.796 170.759 136.972 172.032C136.983 172.141 136.999 172.25 137.016 172.359C137.129 172.562 137.075 172.815 137.187 173.02C137.222 173.115 137.262 173.204 137.306 173.294H137.305Z" fill="black"/>
<path d="M137.545 173.92C138.076 173.709 138.592 173.438 139.035 173.073C139.478 172.71 139.911 172.333 140.31 171.92C140.722 171.492 141.071 171.007 141.317 170.463C141.546 169.953 141.742 169.301 141.51 168.758C141.051 167.692 139.575 167.573 138.618 167.924C137.636 168.283 136.855 169.159 136.516 170.141C136.317 170.716 136.236 171.319 136.287 171.926C136.298 172.051 136.314 172.178 136.331 172.301C136.346 172.4 136.36 172.505 136.392 172.599C136.409 172.63 136.422 172.663 136.433 172.697C136.416 172.615 136.412 172.61 136.427 172.684C136.455 172.987 136.551 173.264 136.682 173.536C136.835 173.852 137.195 174.074 137.545 173.922C137.854 173.787 138.092 173.392 137.929 173.054C137.886 172.964 137.848 172.873 137.81 172.78C137.797 172.746 137.756 172.594 137.784 172.746C137.778 172.711 137.773 172.676 137.768 172.642C137.751 172.514 137.732 172.392 137.695 172.268C137.695 172.268 137.635 172.114 137.666 172.194C137.673 172.242 137.67 172.229 137.66 172.155C137.654 172.112 137.647 172.069 137.643 172.024C137.63 171.923 137.617 171.822 137.611 171.72C137.607 171.68 137.606 171.64 137.604 171.601C137.604 171.608 137.604 171.412 137.601 171.508C137.601 171.604 137.607 171.411 137.606 171.417C137.609 171.367 137.614 171.319 137.619 171.27C137.63 171.162 137.647 171.057 137.668 170.951C137.679 170.893 137.694 170.837 137.706 170.781C137.666 170.905 137.7 170.807 137.706 170.781C137.735 170.69 137.767 170.599 137.803 170.509C137.839 170.421 137.878 170.333 137.921 170.248C137.939 170.214 137.958 170.181 137.974 170.147C138.014 170.078 138.011 170.081 137.968 170.155C137.988 170.123 138.007 170.091 138.03 170.061C138.124 169.92 138.23 169.787 138.347 169.665C138.367 169.644 138.505 169.526 138.379 169.631C138.407 169.607 138.434 169.582 138.463 169.558C138.549 169.486 138.64 169.418 138.734 169.356C138.72 169.365 138.906 169.253 138.831 169.295C138.756 169.337 138.952 169.237 138.936 169.245C139.024 169.205 139.113 169.172 139.204 169.143C139.323 169.104 139.228 169.138 139.202 169.143C139.258 169.133 139.312 169.122 139.37 169.116C139.406 169.111 139.445 169.108 139.483 169.104C139.504 169.104 139.7 169.098 139.626 169.098C139.529 169.098 139.72 169.103 139.715 169.103C139.755 169.106 139.794 169.109 139.833 169.112C139.894 169.119 139.953 169.128 140.012 169.133C140.144 169.144 140.033 169.133 140.001 169.122C140.044 169.136 140.201 169.175 140.227 169.22C140.203 169.205 140.181 169.192 140.157 169.178C140.184 169.196 140.209 169.215 140.235 169.236C140.248 169.245 140.259 169.257 140.272 169.266C140.327 169.319 140.318 169.309 140.246 169.237C140.238 169.24 140.305 169.301 140.3 169.313C140.287 169.289 140.275 169.265 140.262 169.24C140.275 169.269 140.286 169.298 140.295 169.327C140.243 169.208 140.267 169.26 140.283 169.301C140.283 169.277 140.286 169.255 140.286 169.231C140.284 169.266 140.28 169.303 140.272 169.338C140.265 169.38 140.26 169.42 140.252 169.462C140.251 169.471 140.198 169.671 140.236 169.542C140.203 169.652 140.162 169.761 140.117 169.867C140.072 169.972 140.021 170.075 139.969 170.177C139.969 170.177 139.854 170.374 139.919 170.269C139.894 170.309 139.867 170.349 139.84 170.389C139.696 170.599 139.534 170.794 139.362 170.981C139.276 171.074 139.186 171.166 139.096 171.254C139.002 171.345 139.214 171.148 139.049 171.297C138.998 171.343 138.949 171.39 138.898 171.436C138.702 171.612 138.501 171.781 138.299 171.947C138.113 172.101 137.929 172.237 137.722 172.36C137.529 172.476 137.775 172.335 137.66 172.396C137.588 172.434 137.517 172.469 137.443 172.505C137.319 172.564 137.193 172.617 137.066 172.668C136.741 172.798 136.538 173.201 136.682 173.536C136.825 173.868 137.198 174.06 137.545 173.922V173.92Z" fill="black"/>
<path d="M88.2576 160.617C88.0488 160.947 87.8417 161.277 87.6362 161.606C87.539 161.763 87.4418 161.92 87.3462 162.077C87.3032 162.148 87.2601 162.217 87.2187 162.287C87.2968 162.157 87.1104 162.468 87.0881 162.503C86.6881 163.17 86.2946 163.841 85.909 164.513C85.1266 165.88 84.3746 167.257 83.6432 168.642C82.1885 171.399 80.8198 174.182 79.4639 176.968C78.6959 178.547 77.9327 180.126 77.1615 181.704C76.9081 182.223 76.3122 182.626 75.9011 182.485C75.4932 182.348 75.3275 181.833 75.6 181.278C78.3549 175.645 81.0062 169.97 84.134 164.459C84.5913 163.652 85.0597 162.849 85.5377 162.052C86.0157 161.254 86.5049 160.461 87.0052 159.675C87.3207 159.178 88.001 158.983 88.299 159.238C88.6495 159.537 88.5938 160.079 88.256 160.613L88.2576 160.617Z" fill="black"/>
<path d="M76.1225 181.913C75.9202 181.889 75.7162 181.854 75.5139 181.808C75.3099 181.761 75.1076 181.705 74.9068 181.638C74.2312 181.326 73.3326 180.93 72.6522 180.378C72.4817 180.24 72.3256 180.092 72.1886 179.934C72.0882 179.82 71.9814 179.689 71.8858 179.548C71.7902 179.405 71.7042 179.255 71.6436 179.101C71.4174 178.632 71.7376 178.201 72.1408 177.978C72.6283 177.77 73.1015 177.647 73.6019 177.741C73.7357 177.764 73.8664 177.797 73.9938 177.839C75.1363 178.219 75.9791 179.33 76.1305 180.605C76.1464 180.714 76.1592 180.823 76.1688 180.933C76.1114 181.159 76.2261 181.39 76.1688 181.617C76.1592 181.716 76.1417 181.814 76.1225 181.913Z" fill="black"/>
<path d="M76.0477 182.581C75.4805 182.51 74.9133 182.379 74.3938 182.139C73.8744 181.899 73.3597 181.646 72.8706 181.348C72.3639 181.039 71.9034 180.657 71.5306 180.193C71.1816 179.757 70.8263 179.177 70.9155 178.593C71.0908 177.445 72.4898 176.956 73.5031 177.051C74.5436 177.148 75.5187 177.798 76.0939 178.662C76.4301 179.168 76.6612 179.73 76.7647 180.332C76.7854 180.456 76.8014 180.582 76.8157 180.707C76.8269 180.806 76.8396 180.91 76.8317 181.011C76.8237 181.045 76.8173 181.08 76.8157 181.115C76.8125 181.031 76.8141 181.027 76.8189 181.101C76.8667 181.402 76.8444 181.694 76.7854 181.99C76.7169 182.334 76.4238 182.642 76.0477 182.583C75.7147 182.53 75.3865 182.208 75.4582 181.841C75.4773 181.743 75.4916 181.644 75.5044 181.545C75.5092 181.509 75.5108 181.351 75.5203 181.506C75.5171 181.471 75.514 181.436 75.5092 181.401C75.4948 181.272 75.4821 181.149 75.4869 181.018C75.4869 181.018 75.5076 180.853 75.4964 180.939C75.5028 180.987 75.5012 180.975 75.4932 180.901C75.4885 180.858 75.4837 180.813 75.4773 180.769C75.4646 180.669 75.4502 180.568 75.4311 180.467C75.4231 180.428 75.4152 180.388 75.4072 180.35C75.4072 180.356 75.361 180.167 75.3865 180.26C75.412 180.351 75.3562 180.167 75.3578 180.174C75.3419 180.127 75.3259 180.081 75.3084 180.034C75.2702 179.933 75.2271 179.836 75.1809 179.74C75.1554 179.687 75.1284 179.636 75.1013 179.584C75.114 179.607 75.1698 179.693 75.1013 179.584C75.0503 179.503 74.9977 179.423 74.9403 179.346C74.883 179.269 74.824 179.195 74.7603 179.123C74.7348 179.094 74.7093 179.067 74.6838 179.04C74.628 178.984 74.6312 178.985 74.6918 179.045C74.6647 179.019 74.636 178.993 74.6089 178.968C74.4831 178.856 74.346 178.755 74.2026 178.665C74.1771 178.649 74.0146 178.57 74.1644 178.641C74.1309 178.625 74.0975 178.607 74.064 178.591C73.962 178.543 73.8569 178.502 73.7501 178.466C73.766 178.471 73.5573 178.41 73.6402 178.431C73.723 178.452 73.5095 178.407 73.527 178.409C73.4314 178.393 73.3374 178.383 73.2418 178.377C73.1176 178.37 73.2179 178.377 73.2418 178.377C73.1861 178.381 73.1303 178.385 73.0729 178.393C73.0363 178.397 72.998 178.404 72.9614 178.41C72.9407 178.413 72.7495 178.458 72.8212 178.439C72.9152 178.414 72.732 178.468 72.7367 178.466C72.7001 178.479 72.6619 178.492 72.6252 178.506C72.5694 178.527 72.5137 178.553 72.4579 178.572C72.332 178.615 72.4372 178.578 72.4659 178.559C72.4276 178.585 72.2842 178.66 72.2715 178.711C72.2906 178.692 72.3097 178.673 72.3288 178.654C72.3081 178.678 72.2874 178.703 72.2683 178.729C72.2587 178.742 72.2508 178.755 72.2412 178.767C72.2014 178.832 72.2077 178.82 72.2587 178.734C72.2667 178.734 72.2173 178.811 72.2253 178.82C72.2316 178.795 72.238 178.767 72.2444 178.742C72.2396 178.772 72.2348 178.804 72.2348 178.835C72.2555 178.707 72.2444 178.763 72.2412 178.807C72.2348 178.785 72.2269 178.763 72.2205 178.74C72.2316 178.774 72.2444 178.808 72.2603 178.84C72.2763 178.878 72.2922 178.916 72.3097 178.955C72.3145 178.963 72.4133 179.144 72.3448 179.029C72.4037 179.128 72.4722 179.221 72.5423 179.312C72.6125 179.403 72.6873 179.49 72.7638 179.575C72.7638 179.575 72.9248 179.735 72.8339 179.65C72.869 179.684 72.904 179.714 72.9407 179.746C73.1319 179.913 73.339 180.062 73.5525 180.198C73.6593 180.267 73.7676 180.331 73.8792 180.395C73.9923 180.459 73.739 180.321 73.9333 180.424C73.9939 180.456 74.0544 180.488 74.115 180.52C74.3476 180.64 74.585 180.752 74.824 180.862C75.0423 180.963 75.2542 181.048 75.4869 181.115C75.702 181.178 75.4295 181.104 75.5554 181.133C75.6335 181.152 75.7131 181.168 75.7928 181.183C75.9282 181.208 76.0621 181.229 76.1991 181.245C76.5464 181.288 76.8444 181.626 76.7886 181.987C76.7329 182.344 76.4206 182.624 76.0509 182.579L76.0477 182.581Z" fill="black"/>
<path d="M95.0818 32.7816L86.6465 33.5696L85.8244 24.6854L89.6325 24.3299C91.049 24.1969 92.0894 22.9364 91.9588 21.5126L91.0028 11.1757C90.8705 9.75183 89.6166 8.70597 88.2001 8.8373L59.3413 11.536C57.9248 11.669 56.8843 12.9295 57.015 14.3533L57.1903 16.248C57.7543 22.3342 63.1191 26.8108 69.1739 26.2438C71.3743 26.0388 73.6145 25.419 75.8277 25.8386C77.8751 26.2262 79.1291 28.0729 79.1817 30.0989C79.2486 32.6695 77.6361 34.2455 75.1696 34.6331C72.2235 35.096 69.1946 35.2017 66.2214 35.4788C64.8049 35.6117 63.7644 36.8722 63.8951 38.2961L64.0703 40.1908C64.2743 42.393 65.1379 44.5056 66.54 46.2113C67.5678 47.4606 68.8663 48.4744 70.3195 49.1695C70.8038 49.4017 71.3058 49.5971 71.8204 49.7557C74.5849 50.5853 77.3876 49.7429 80.0309 50.8112C80.2652 50.9281 80.4819 51.069 80.6747 51.2436C81.994 52.2094 81.7438 53.8927 82.0434 55.8723C82.3588 57.9688 84.3856 53.1447 85.4707 52.1758C85.5965 51.9852 85.7128 51.8026 85.8228 51.6344C85.9407 51.4454 86.057 51.2596 86.1781 51.0786C86.7804 50.1737 87.4687 49.3825 88.5713 49.0318C88.8199 48.9949 89.0668 48.9709 89.3122 48.9485C93.2398 48.5817 96.5142 48.2758 96.5142 48.2758C97.9307 48.1429 98.9727 46.8824 98.8405 45.4585L97.8845 35.1216C97.7522 33.6978 96.4982 32.6519 95.0818 32.7832V32.7816Z" fill="#F9C41C"/>
<path d="M95.6555 32.7922C95.587 32.2012 95.5009 31.6022 95.4229 30.9759C95.3161 30.2728 95.1934 29.5729 95.0644 28.8746C94.6756 26.7813 94.2262 24.7024 93.9697 22.6074C93.8104 21.64 93.6558 20.6951 93.4885 19.7501C93.028 16.9649 92.4513 14.1861 91.8091 11.3768C91.6323 10.3213 91.4443 9.26907 91.2467 8.2184C90.8531 6.11707 90.4245 4.02374 89.9943 1.93201C89.8493 1.08155 89.529 0.466523 88.5093 0.721182C88.1588 0.750011 87.762 0.786849 87.3653 0.823686C86.175 0.934198 84.9848 1.04631 84.9848 1.04631C82.5151 1.27695 80.4007 2.57427 79.048 4.44337C78.1669 5.6606 77.845 7.27344 76.9272 8.49869C75.6286 10.2317 73.5159 10.2925 71.5353 10.4927C69.3397 10.7153 67.1329 10.805 64.9357 11.01C63.0698 11.1846 61.204 11.3592 59.3398 11.5338C57.9233 11.6667 56.8813 12.9272 57.0135 14.351L57.1888 16.2458C57.2207 16.5885 57.2685 16.9249 57.329 17.2564C58.7965 19.6684 61.4829 21.2444 64.386 21.3069C69.2887 21.5039 74.0512 20.1714 78.6018 21.7714C79.1484 27.1945 79.7507 32.6112 80.3338 38.0311C79.3523 38.4283 78.3278 38.6509 77.2921 38.7486C72.8865 39.4405 68.492 39.9419 64.088 40.3455C64.3174 42.4916 65.1715 44.5465 66.5402 46.2106C67.5679 47.4599 68.8665 48.4737 70.3196 49.1688C70.804 49.4011 71.3059 49.5965 71.8205 49.755C74.585 50.5847 77.3877 49.7422 80.0311 50.8105C80.2653 50.9274 80.482 51.0684 80.6748 51.2429C81.9925 52.2071 81.7455 53.8888 82.0419 55.8668C82.2235 58.2116 82.3845 60.558 82.531 62.9044C82.7828 66.9789 83.0584 71.4635 81.6149 75.3651C85.3162 74.2952 89.2741 73.9604 92.746 72.5142C93.9713 72.0529 95.2667 71.1208 95.3257 69.2613C95.4085 68.9057 95.8865 67.7189 95.8499 67.1631C95.912 66.3127 95.9503 65.4638 95.971 64.6165C96.0092 63.3737 96.0873 62.1372 96.1415 60.896C96.3327 56.6628 96.0729 52.5114 95.8451 48.336C96.2721 48.2959 96.5143 48.2735 96.5143 48.2735C97.9308 48.1406 98.9728 46.8801 98.8406 45.4563L97.8846 35.1194C97.7715 33.8925 96.8218 32.9475 95.6555 32.7938V32.7922Z" fill="#F9C41C"/>
<path d="M120.362 80.0102C112.695 78.873 107.757 71.5744 106.081 64.4696C105.743 63.1418 105.497 61.8013 105.34 60.4751C105.042 58.9039 104.8 57.3135 104.586 55.7231C103.947 50.9551 103.582 46.1934 102.872 42.1653C102.773 41.1066 102.676 40.0512 102.578 39.0005C101.709 29.6086 100.878 20.6218 100.26 13.9542C100.212 13.4417 100.166 12.942 100.122 12.4583C100.013 11.3548 99.9192 10.16 99.763 8.95876C99.6849 8.35815 99.5909 7.75754 99.4714 7.16494C98.8628 2.51541 94.2309 0.249109 89.983 0.374036C88.1029 0.556621 86.2084 0.655922 84.4143 1.1236C82.1915 1.48717 80.297 2.72202 79.0494 4.44377C78.1683 5.66101 77.8465 7.27385 76.9287 8.4991C75.6301 10.2321 73.5173 10.2929 71.5368 10.4931C69.3412 10.7157 67.1344 10.8054 64.9371 11.0105C63.0713 11.185 61.2055 11.3596 59.3413 11.5342C57.9248 11.6671 56.8827 12.9276 57.015 14.3514L57.1902 16.2462C57.2221 16.5889 57.2699 16.9253 57.3305 17.2568C58.7979 19.6689 61.4843 21.2449 64.3874 21.3073C69.2902 21.5043 74.0527 20.1718 78.6033 21.7718C79.1498 27.1949 79.7521 32.6116 80.3353 38.0315C79.3538 38.4287 78.3293 38.6514 77.2936 38.7491C72.888 39.441 68.4935 39.9423 64.0895 40.3459C64.3189 42.4921 65.1729 44.5469 66.5416 46.211C67.5693 47.4603 68.8679 48.4741 70.3211 49.1692C70.8054 49.4015 71.3073 49.5969 71.822 49.7554C74.5865 50.5851 77.3892 49.7426 80.0325 50.8109C80.2668 50.9278 80.4835 51.0688 80.6763 51.2434C81.994 52.2075 81.747 53.8892 82.0434 55.8673C82.225 58.212 82.3859 60.5584 82.5325 62.9048C82.7843 66.9794 83.0599 71.4639 81.6163 75.3655C81.2929 76.24 80.885 77.084 80.3687 77.8896C80.0437 78.3974 79.6868 78.8859 79.3012 79.3503C75.0517 84.2481 68.0824 84.9 62.6045 87.9591C65.9091 88.8079 69.4718 88.707 72.735 90.1197C73.1971 90.3199 73.6512 90.5473 74.1005 90.8068C74.7107 91.0614 75.3274 91.3033 75.9472 91.5355C80.2875 93.1596 84.8365 94.3031 89.1593 95.9624C89.9926 96.1802 90.8163 96.358 91.6082 96.5022C92.3954 96.6447 93.1506 96.752 93.8501 96.8289C93.8501 96.8289 95.2761 96.696 96.7022 96.5614C98.1282 96.4285 99.5543 96.2956 99.5543 96.2956C100.7 96.0873 101.691 95.7622 102.555 95.3378C103.418 94.9134 104.156 94.3912 104.795 93.7842C105.533 93.0619 106.312 92.4036 107.121 91.7918C107.932 91.18 108.773 90.613 109.637 90.078C111.772 88.5309 114.156 87.3456 116.415 86.0019C116.869 85.7328 117.319 85.4573 117.774 85.169C118.314 84.7879 118.864 84.4227 119.422 84.0671C121.149 83.0661 122.892 81.977 124.645 81.0016C123.231 80.6701 121.793 80.3706 120.362 80.0134V80.0102ZM85.7734 74.3901C85.3527 74.4766 84.9337 74.5631 84.513 74.6544C84.9321 74.5647 85.3527 74.4766 85.7734 74.3901ZM85.9295 74.358C86.3502 74.2716 86.7708 74.1851 87.1915 74.097C86.7724 74.1851 86.3518 74.2716 85.9295 74.358Z" fill="#F9C41C"/>
<path d="M82.7443 48.9659C82.2711 48.1779 81.3964 47.5837 80.5487 47.2778C79.1928 46.7877 77.7157 46.7813 76.2944 46.6644C71.9 46.3024 66.2818 45.3446 64.2375 41.3037C64.5897 43.0991 65.38 44.7969 66.5431 46.2111C67.5708 47.4604 68.8694 48.4742 70.3226 49.1693C71.9175 49.9317 73.7307 50.2264 75.4914 50.1895C77.1453 50.1543 78.5379 50.063 80.0516 50.8382C80.9327 51.3075 81.8457 52.0699 81.809 53.2006C82.2042 52.411 82.8463 51.599 83.0423 50.7117C83.1857 50.0646 83.0471 49.4736 82.7427 48.9643L82.7443 48.9659Z" fill="#F4B80F"/>
<path d="M120.362 80.0118C112.695 78.8746 107.757 71.576 106.081 64.4712C105.743 63.1434 105.498 61.8029 105.34 60.4767C105.042 58.9055 104.8 57.3151 104.586 55.7247C103.949 50.9567 103.582 46.195 102.872 42.1669C102.773 41.1082 102.676 40.0528 102.579 39.0021C101.709 29.6102 100.879 20.6234 100.26 13.9558C100.212 13.4433 100.166 12.9436 100.122 12.4583C100.013 11.3548 99.9193 10.16 99.7632 8.95876C99.6851 8.35815 99.5911 7.75594 99.4716 7.16494C98.8629 2.51541 94.231 0.249109 89.9832 0.374036C87.7063 0.59506 85.4102 0.694361 83.2927 1.47115C84.6741 0.963435 86.8889 1.54963 88.1189 2.21591C89.7649 3.10802 90.4548 4.53987 90.6619 6.36893C91.7486 16.0203 96.4681 46.3776 95.673 63.3997C95.6332 64.2502 95.579 65.0686 95.5105 65.839C95.4292 68.4336 95.1313 71.2813 93.3515 73.2818C90.9408 76.0462 87.0849 76.831 83.4791 76.1166C82.8418 75.9421 82.2188 75.6938 81.6197 75.3767C81.403 76.0942 81.0365 76.69 80.737 77.2778C80.6206 77.4844 80.4995 77.6878 80.3705 77.888C80.0454 78.3958 79.6885 78.8842 79.3029 79.3487C75.0535 84.2465 68.0841 84.8984 62.6062 87.9575C65.9108 88.8063 69.4735 88.7054 72.7367 90.1181C73.1988 90.3183 73.6529 90.5457 74.1022 90.8052C74.7125 91.0598 75.3291 91.3017 75.9489 91.5339C80.2892 93.158 84.8382 94.3015 89.161 95.9608C89.9943 96.1786 90.8181 96.3564 91.61 96.5006C92.3971 96.6431 93.1523 96.7504 93.8518 96.8273C93.8518 96.8273 95.2779 96.6944 96.7039 96.5598C98.13 96.4269 99.556 96.2939 99.556 96.2939C100.702 96.0857 101.693 95.7606 102.556 95.3362C103.42 94.9117 104.158 94.3896 104.797 93.7826C105.534 93.0603 106.313 92.402 107.123 91.7902C107.934 91.1783 108.775 90.6114 109.639 90.0764C111.774 88.5309 114.158 87.344 116.417 86.0003C116.871 85.7312 117.32 85.4557 117.776 85.1674C118.316 84.7862 118.866 84.4211 119.424 84.0655C121.151 83.0645 122.894 81.9754 124.647 81C123.233 80.6685 121.794 80.369 120.364 80.0118H120.362Z" fill="#F4B80F"/>
<path d="M44.0389 127.459C44.442 130.244 45.0714 132.997 45.9239 135.677C50.6322 150.473 62.4198 162.802 76.6851 168.634C85.3498 172.175 94.6645 173.37 103.727 172.471C112.8 171.674 121.736 168.773 129.602 163.685C142.553 155.308 151.875 141.006 153.787 125.59C154.133 122.797 154.248 119.975 154.133 117.164C153.63 104.844 148.827 92.8045 138.353 85.767C130.977 80.8131 121.935 80.2205 113.268 79.8938C113.221 79.8922 113.171 79.8906 113.123 79.889C107.148 79.6712 101.167 79.9114 95.2174 80.4864C89.263 81.0246 83.3405 81.8974 77.5089 83.2188C77.4611 83.23 77.4133 83.2396 77.3671 83.2508C68.9111 85.1792 60.1302 87.4375 53.7918 93.6742C44.7878 102.533 42.2767 115.256 44.0437 127.459H44.0389Z" fill="#F9C41C"/>
<path d="M138.351 85.767C130.975 80.8131 121.933 80.2205 113.267 79.8938C113.217 79.8922 113.169 79.8906 113.122 79.889C107.147 79.6712 101.165 79.9114 95.2156 80.4864C89.2613 81.0246 83.3388 81.8974 77.5071 83.2188C77.4593 83.23 77.4115 83.2396 77.3653 83.2508C76.6435 83.4158 75.9185 83.5824 75.1936 83.7537C75.9233 83.6288 76.6531 83.5087 77.3844 83.3982C82.2935 83.0538 87.5596 82.5557 92.9371 82.2354C95.6251 82.0752 98.3418 81.9599 101.05 81.9311C112.661 81.6428 125.089 82.9801 134.109 91.347C148.993 105.086 149.952 129.599 138.62 145.762C137.419 147.447 136.101 149.047 134.681 150.548C130.422 155.05 125.255 158.667 119.409 161.06C116.81 162.221 114.108 163.186 111.337 163.95C97.4798 167.772 81.8665 166.515 69.0862 160.366C66.8778 159.349 64.7316 158.207 62.665 156.947C60.6 155.686 58.6147 154.307 56.7282 152.814C55.0886 151.467 53.5495 150.023 52.125 148.485C58.1001 157.43 66.7966 164.596 76.6865 168.638C85.3512 172.18 94.6659 173.374 103.729 172.476C112.801 171.678 121.737 168.778 129.603 163.689C142.554 155.313 151.877 141.01 153.789 125.595C154.135 122.801 154.249 119.979 154.135 117.168C153.631 104.849 148.829 92.8093 138.354 85.7718L138.351 85.767Z" fill="#F4B80F"/>
<path d="M82.7044 148.698C82.8144 149.349 83.0008 149.992 83.2637 150.615C84.7137 154.053 88.5807 156.842 93.348 158.077C96.2432 158.826 99.3821 159.018 102.454 158.719C105.529 158.444 108.579 157.673 111.286 156.4C115.744 154.302 119.034 150.844 119.828 147.197C119.971 146.535 120.037 145.871 120.026 145.209C119.973 142.314 118.466 139.525 114.991 137.97C112.545 136.874 109.492 136.823 106.566 136.83C106.551 136.83 106.533 136.83 106.517 136.83C104.5 136.836 102.475 136.951 100.458 137.143C98.4388 137.328 96.428 137.59 94.4443 137.959C94.4283 137.962 94.4124 137.965 94.3965 137.968C91.5189 138.505 88.5281 139.121 86.3261 140.651C83.1968 142.824 82.2264 145.843 82.706 148.699L82.7044 148.698Z" fill="white"/>
<path d="M117.438 139.521C117.738 140.367 117.892 141.258 117.913 142.159C117.929 142.808 117.875 143.461 117.749 144.109C117.057 147.683 114.111 151.055 110.099 153.081C107.661 154.311 104.913 155.044 102.137 155.293C99.3632 155.563 96.5271 155.354 93.906 154.596C89.5896 153.348 86.0763 150.582 84.741 147.196C84.4988 146.583 84.3268 145.952 84.2216 145.311C84.0782 144.422 84.0654 143.519 84.2041 142.632C83.597 143.349 83.2927 144.049 83.0632 144.666C82.7621 145.47 82.6059 146.324 82.5884 147.182C82.488 152.229 86.7487 156.651 91.0634 158.554C99.991 162.49 112.896 160.516 118.107 151.489C118.872 150.164 119.5 148.697 119.827 147.198C119.97 146.537 120.035 145.872 120.024 145.21C119.986 143.117 119.188 141.081 117.437 139.525L117.438 139.521Z" fill="#F4B80F"/>
<path d="M69.1644 26.1808C69.5818 26.1808 69.9993 26.1744 70.4152 26.1664C73.0219 26.1088 76.2946 25.6875 78.2019 27.8674C79.4574 29.3024 79.5387 31.692 78.2768 33.2216C78.6353 33.047 78.9826 32.842 79.3156 32.6114C80.9823 31.4566 82.2904 29.65 82.7875 27.7328C82.8545 27.4381 82.8943 27.1386 82.8975 26.8311C82.9007 26.5236 82.8672 26.2097 82.7907 25.8877C82.2012 22.558 78.4425 21.3567 75.4868 21.0877C74.9738 21.0316 74.4575 20.9996 73.9397 20.9852C70.831 20.8987 67.6411 21.44 64.3875 21.3103C61.4844 21.2494 58.798 19.6718 57.3306 17.2598C57.6652 17.8091 57.7034 18.7797 57.9568 19.4043C58.2627 20.1587 58.6515 20.8778 59.1151 21.5457C60.0058 22.8302 61.1674 23.9193 62.5026 24.7234C64.5421 25.9518 66.8508 26.1792 69.1644 26.1824V26.1808Z" fill="#F4B80F"/>
<g opacity="0.34">
<path d="M58.7682 97.6039C57.4027 98.0827 56.1328 99.127 55.0924 100.248C53.9722 101.446 52.9732 102.809 52.1287 104.267C51.1281 105.964 50.4063 107.917 50.2502 109.887C50.2358 110.074 50.2231 110.271 50.2135 110.473C50.2024 110.673 50.2183 110.886 50.2294 111.091C50.2613 111.506 50.3043 111.908 50.4398 112.265C50.6915 112.978 51.1329 113.442 51.8817 113.385C52.3868 113.319 52.8744 113.061 53.2998 112.738C53.5054 112.574 53.7237 112.397 53.9165 112.211C54.1108 112.025 54.2766 111.831 54.4327 111.642C55.2692 110.617 55.9097 109.482 56.6395 108.404C57.417 107.252 58.1978 106.123 58.9514 104.902C59.6685 103.736 60.446 102.508 61.0786 101.232C61.1997 100.996 61.308 100.746 61.3957 100.488C61.4387 100.36 61.4769 100.227 61.5088 100.098C61.5422 99.9679 61.5693 99.8381 61.5869 99.7084C61.6601 99.1879 61.5996 98.6657 61.3032 98.2189C61.0515 97.8393 60.6675 97.5991 60.2182 97.4982C59.772 97.4005 59.251 97.4277 58.7682 97.6071V97.6039Z" fill="white"/>
</g>
<g opacity="0.34">
<path d="M69.4814 91.4946C68.7771 91.2688 68.041 91.4193 67.4116 91.6435C66.7329 91.8822 66.1003 92.2105 65.5076 92.5581C64.8129 92.9681 64.1819 93.4726 63.7421 94.1213C63.3964 94.6178 62.9486 95.4042 63.6417 96.2674C64.1261 96.8312 64.8224 97.0891 65.3434 97.1227C65.6972 97.1451 66.0254 97.0987 66.3377 97.017C66.6452 96.9433 66.9368 96.8376 67.2188 96.7383C67.8259 96.5221 68.366 96.2562 68.8536 95.8879C69.3189 95.5371 69.7714 95.1319 70.1601 94.6162C70.3051 94.4224 70.439 94.1789 70.5218 93.8842C70.6047 93.5927 70.6382 93.2452 70.5617 92.8528C70.4963 92.518 70.3561 92.2201 70.1649 91.9831C69.9737 91.746 69.7299 91.5747 69.4798 91.4946H69.4814Z" fill="white"/>
</g>
<g opacity="0.34">
<path d="M73.5464 12.8413C72.6764 12.7148 71.7013 12.8029 70.8026 12.8958C69.8403 12.9967 68.8763 13.1088 67.9314 13.1841C66.8193 13.2754 65.7167 13.3474 64.6411 13.4804C64.4356 13.506 64.2062 13.538 63.9799 13.5717C63.7537 13.6069 63.5258 13.6614 63.3282 13.7206C62.9331 13.8471 62.6351 14.0602 62.6686 14.4365C62.7116 14.6912 62.898 14.9411 63.1625 15.1685C63.4254 15.3959 63.7696 15.5753 64.1122 15.7146C65.0411 16.075 66.1198 16.1839 67.1586 16.2208C68.2756 16.2608 69.3782 16.1727 70.4537 15.9501C71.4798 15.7387 72.5155 15.4312 73.4189 15.0211C74.0913 14.7152 74.7271 14.2508 74.7032 13.7142C74.684 13.2561 74.1694 12.9342 73.548 12.8429L73.5464 12.8413Z" fill="white"/>
</g>
<g opacity="0.34">
<path d="M76.0109 37.2524C75.2986 37.121 74.502 37.2027 73.7674 37.2908C72.9803 37.3869 72.1948 37.4926 71.4204 37.5615C70.5122 37.6448 69.6104 37.7104 68.7309 37.837C68.5636 37.861 68.3755 37.8914 68.1907 37.9235C68.0059 37.9571 67.821 38.0099 67.6585 38.0676C67.3351 38.1909 67.0929 38.4039 67.1232 38.7803C67.1598 39.035 67.3128 39.2864 67.5311 39.5139C67.7478 39.7429 68.0298 39.9239 68.3102 40.0664C69.0718 40.4316 69.9545 40.5485 70.8054 40.5902C71.7184 40.6366 72.6202 40.5565 73.4982 40.3403C74.3363 40.1353 75.1807 39.8342 75.9169 39.4306C76.465 39.1279 76.9812 38.6682 76.9589 38.1317C76.9398 37.6736 76.5176 37.3485 76.0077 37.254L76.0109 37.2524Z" fill="white"/>
</g>
<path d="M84.7828 124.59C83.7838 122.855 81.5005 122.399 79.692 122.75C79.6825 122.751 79.6729 122.754 79.6634 122.758C79.6538 122.758 79.6442 122.758 79.6347 122.761C78.0971 123.095 76.1166 124.106 75.7788 125.823C75.433 127.58 77.2829 128.685 78.752 128.957C80.2895 129.241 81.9259 128.906 83.2755 128.131C84.5135 127.42 85.6129 126.034 84.7812 124.591L84.7828 124.59Z" fill="#EC4899"/>
<path d="M117.289 120.126C117.279 120.126 117.27 120.126 117.26 120.126C117.251 120.124 117.241 120.122 117.232 120.121C115.506 120.031 113.701 120.645 112.713 122.148C112.314 122.756 112.131 123.503 112.41 124.199C112.681 124.873 113.263 125.361 113.886 125.698C115.24 126.43 116.918 126.627 118.412 126.302C119.827 125.994 121.715 124.923 121.647 123.236C121.564 121.191 118.972 120.249 117.287 120.124L117.289 120.126Z" fill="#EC4899"/>
<path d="M99.0591 123.138C97.5533 121.644 95.6079 122.883 94.7729 124.418C96.0285 125.406 97.5964 125.976 99.2009 125.742C100.845 125.504 102.274 124.552 103.254 123.247C101.945 122.159 100.26 121.516 99.0591 123.138Z" fill="#EC4899"/>
<path d="M104.504 119.255C104.311 118.728 103.828 118.395 103.154 118.447C102.233 118.519 101.46 119.138 100.605 119.42C99.1213 119.909 97.5264 120.058 95.9808 119.835C95.1411 119.713 94.0943 119.329 93.2785 119.734C92.1759 120.282 92.6029 121.824 93.1414 122.643C93.5796 123.309 94.1357 123.916 94.773 124.417C95.6096 122.883 97.5534 121.643 99.0592 123.138C100.261 121.515 101.945 122.158 103.254 123.247C103.948 122.324 104.418 121.224 104.577 120.071C104.618 119.771 104.591 119.494 104.504 119.255Z" fill="black"/>
<path d="M76.2918 119.219C76.5627 117.899 77.2606 116.478 78.7074 116.185C80.1685 115.89 81.5547 116.901 82.2127 118.144C82.9648 119.566 85.1302 118.33 84.3765 116.904C83.215 114.708 80.7469 113.293 78.266 113.727C75.9158 114.138 74.3559 116.299 73.897 118.527C73.7616 119.188 74.0691 119.88 74.7495 120.075C75.3581 120.252 76.1532 119.883 76.2903 119.219H76.2918Z" fill="black"/>
<path d="M113.643 116.774C114.102 115.509 114.996 114.202 116.47 114.123C117.958 114.043 119.185 115.245 119.657 116.571C120.197 118.087 122.517 117.178 121.977 115.659C121.143 113.318 118.905 111.558 116.387 111.628C114.002 111.694 112.149 113.606 111.374 115.743C111.145 116.377 111.35 117.107 111.996 117.4C112.573 117.663 113.412 117.415 113.643 116.776V116.774Z" fill="black"/>
</g>
<defs>
<clipPath id="clip0_918_37628">
<rect width="192" height="192" fill="white"/>
</clipPath>
</defs>
</svg>
