<svg width="260" height="260" viewBox="0 0 260 260" fill="none" xmlns="http://www.w3.org/2000/svg">
<g clip-path="url(#clip0_7368_167478)">
<rect width="260" height="260" fill="white"/>
<path d="M57.1543 39.5134C57.0438 39.6506 56.9622 39.8087 56.9142 39.9782C56.8662 40.1477 56.853 40.3251 56.8752 40.4998C56.8973 40.6746 56.9543 40.8431 57.0431 40.9953C57.1318 41.1474 57.2505 41.2801 57.3916 41.3854L75.1824 55.114C75.3197 55.2244 75.4776 55.3061 75.6471 55.3541C75.8166 55.4021 75.994 55.4154 76.1688 55.3933C76.3435 55.3712 76.512 55.314 76.6642 55.2253C76.8164 55.1365 76.9492 55.018 77.0545 54.8768C77.102 54.8163 77.1439 54.7516 77.1794 54.6834C77.3215 54.4099 77.3629 54.0952 77.2968 53.7942C77.2306 53.4931 77.0611 53.2248 76.8175 53.036L59.0264 39.3075C58.8911 39.1953 58.7349 39.1115 58.5666 39.061C58.3983 39.0106 58.2214 38.9945 58.0467 39.0137C57.8721 39.0329 57.7031 39.087 57.5498 39.1729C57.3965 39.2587 57.2619 39.3745 57.1543 39.5134Z" fill="#2563EB"/>
<path d="M124.068 12.0126C123.898 11.9897 123.725 12.0007 123.559 12.0448C123.394 12.089 123.238 12.1654 123.102 12.2698C122.966 12.3741 122.852 12.5044 122.766 12.653C122.68 12.8016 122.624 12.9657 122.602 13.1358L119.607 35.4135C119.567 35.7182 119.636 36.0271 119.801 36.2863C119.966 36.5455 120.217 36.7383 120.51 36.8313C120.803 36.9242 121.119 36.9112 121.403 36.7946C121.688 36.678 121.922 36.4653 122.065 36.1935C122.136 36.0592 122.183 35.9134 122.203 35.7629L125.198 13.4852C125.221 13.3143 125.21 13.1406 125.165 12.974C125.121 12.8074 125.044 12.6513 124.939 12.5145C124.834 12.3777 124.703 12.2629 124.554 12.1768C124.404 12.0907 124.239 12.0348 124.068 12.0126Z" fill="#2563EB"/>
<path d="M86.9331 16.799C86.7736 16.8641 86.6286 16.9599 86.5062 17.0811C86.3838 17.2023 86.2864 17.3464 86.2198 17.5052C86.1531 17.664 86.1184 17.8343 86.1177 18.0066C86.1169 18.1788 86.1502 18.3495 86.2155 18.5089L94.7584 39.2951C94.8908 39.617 95.1455 39.8731 95.4668 40.0071C95.788 40.1411 96.1495 40.142 96.4714 40.0096C96.7933 39.8772 97.0492 39.6223 97.1832 39.3011C97.3172 38.9799 97.3183 38.6186 97.1859 38.2967L88.6366 17.5104C88.5716 17.3517 88.4759 17.2074 88.3551 17.0858C88.2343 16.9641 88.0907 16.8675 87.9325 16.8014C87.7742 16.7353 87.6046 16.7011 87.4331 16.7007C87.2616 16.7003 87.0916 16.7337 86.9331 16.799Z" fill="#2563EB"/>
<path d="M87.5902 213.256L96.1705 207.234C96.3916 207.082 96.6539 207 96.9225 207C97.1912 207 97.4535 207.082 97.6745 207.234L105.5 212.726L113.331 207.234C113.552 207.082 113.815 207 114.083 207C114.352 207 114.614 207.082 114.835 207.234L122.661 212.726L130.486 207.234C130.707 207.082 130.969 207 131.238 207C131.506 207 131.768 207.082 131.99 207.234L139.821 212.726L147.647 207.234C147.868 207.082 148.13 207 148.398 207C148.667 207 148.929 207.082 149.15 207.234L156.975 212.726L164.807 207.234C165.028 207.082 165.29 207 165.559 207C165.828 207 166.09 207.082 166.311 207.234L174.891 213.256C175.038 213.353 175.164 213.478 175.261 213.624C175.359 213.77 175.426 213.935 175.459 214.107C175.491 214.28 175.489 214.457 175.452 214.629C175.415 214.801 175.343 214.963 175.242 215.107C175.141 215.25 175.012 215.372 174.862 215.464C174.713 215.557 174.547 215.619 174.373 215.646C174.199 215.673 174.022 215.665 173.852 215.622C173.682 215.579 173.521 215.503 173.381 215.397L165.556 209.912L157.731 215.397C157.511 215.552 157.248 215.635 156.979 215.635C156.709 215.635 156.447 215.552 156.227 215.397L148.395 209.912L140.57 215.397C140.35 215.552 140.087 215.635 139.818 215.635C139.549 215.635 139.286 215.552 139.066 215.397L131.241 209.912L123.416 215.397C123.194 215.552 122.931 215.635 122.661 215.635C122.39 215.635 122.127 215.552 121.905 215.397L114.08 209.912L106.255 215.397C106.035 215.552 105.772 215.635 105.503 215.635C105.234 215.635 104.971 215.552 104.751 215.397L96.9256 209.912L89.1003 215.397C88.9601 215.503 88.8002 215.579 88.6298 215.622C88.4594 215.665 88.2821 215.673 88.1085 215.646C87.9349 215.619 87.7687 215.557 87.6194 215.464C87.4702 215.372 87.3411 215.25 87.2398 215.107C87.1385 214.963 87.0671 214.801 87.0299 214.629C86.9926 214.457 86.9901 214.28 87.0228 214.107C87.0555 213.935 87.1225 213.77 87.22 213.624C87.3174 213.478 87.4434 213.353 87.5902 213.256Z" fill="#2563EB"/>
<path d="M197.816 47.6131C197.816 47.6131 199.825 50.4711 202.895 50.6147C204.767 50.702 206.452 49.8097 207.969 47.9626C209.841 45.6599 211.057 45.2169 211.713 45.2481C212.699 45.2917 213.585 46.4961 214.346 47.6131C214.346 47.6131 216.362 50.4711 219.426 50.6147C221.298 50.702 222.982 49.8097 224.499 47.9626C225.641 46.5772 226.777 45.8908 227.887 45.9095C229.597 45.9469 230.901 47.6318 230.926 47.663C231.134 47.9419 231.444 48.1268 231.788 48.1771C232.132 48.2275 232.482 48.139 232.761 47.9313C233.04 47.7236 233.225 47.4137 233.275 47.0696C233.325 46.7256 233.237 46.3756 233.029 46.0967C232.948 45.9844 230.97 43.3635 227.968 43.2886C226.009 43.2387 224.162 44.2496 222.477 46.2964C221.529 47.4571 220.555 48.025 219.594 48C218.171 47.9626 216.861 46.6085 216.505 46.128C215.65 44.8799 214.209 42.7333 211.838 42.6209C209.966 42.5336 208.037 43.7317 205.934 46.2902C204.979 47.4509 204.012 48.0188 203.051 47.9938C201.622 47.9564 200.318 46.6022 199.962 46.1217C199.101 44.8737 197.666 42.727 195.295 42.6147C193.422 42.5273 191.494 43.7255 189.391 46.284C188.437 47.4447 187.469 48.0187 186.508 47.9875C185.085 47.9501 183.775 46.596 183.388 46.1155C182.527 44.8674 181.092 42.7208 178.72 42.6085C176.848 42.5211 174.92 43.7192 172.817 46.2777C172.702 46.4098 172.615 46.5635 172.56 46.7299C172.505 46.8963 172.485 47.072 172.499 47.2465C172.513 47.4211 172.563 47.591 172.644 47.7461C172.725 47.9013 172.836 48.0386 172.972 48.15C173.107 48.2614 173.263 48.3446 173.431 48.3946C173.599 48.4446 173.775 48.4605 173.949 48.4413C174.123 48.4221 174.291 48.3682 174.444 48.2827C174.597 48.1973 174.732 48.082 174.839 47.9438C176.711 45.6412 177.928 45.1981 178.583 45.2293C179.569 45.273 180.455 46.4774 181.217 47.5944C181.217 47.5944 183.226 50.4524 186.296 50.5959C188.168 50.6895 189.847 49.7909 191.369 47.9438C193.242 45.6412 194.458 45.1981 195.114 45.2293C196.187 45.2917 197.079 46.4899 197.816 47.6131Z" fill="black"/>
<path d="M252.194 171.881C251.85 158.09 251.863 154.028 251.108 140.206C250.877 136.025 248.705 131.8 247.501 128.886C246.297 125.972 244.443 123.713 242.64 121.092C241.747 119.796 240.789 118.547 239.769 117.348C238.758 116.187 237.722 115.077 236.649 114.066C234.673 112.171 232.544 110.443 230.284 108.899C228.398 107.611 226.435 106.44 224.406 105.392C222.59 104.443 220.936 103.7 219.501 103.095C218.066 102.49 216.818 102.016 215.807 101.654C214.796 101.292 214.022 101.03 213.485 100.842L212.68 100.58C212.547 100.537 212.412 100.502 212.275 100.474L211.769 100.318C210.708 99.98 209.6 99.8135 208.487 99.8253C207.528 99.8393 206.579 100.023 205.685 100.368C205.285 100.539 204.903 100.748 204.543 100.992C204.207 101.222 203.896 101.486 203.613 101.778C203.065 102.358 202.676 103.07 202.484 103.844C202.284 104.649 202.297 105.492 202.521 106.29L202.328 106.24C200.532 105.742 198.617 105.91 196.936 106.715C196.218 107.069 195.58 107.568 195.064 108.181C194.573 108.769 194.215 109.457 194.016 110.197C193.705 111.377 193.834 112.63 194.378 113.722C194.969 114.892 195.874 115.873 196.992 116.555C196.254 117.219 195.73 118.088 195.488 119.052C194.864 121.591 196.412 124.237 198.846 125.647C198.191 126.3 197.723 127.117 197.492 128.013C197.298 128.778 197.274 129.577 197.423 130.353C197.575 131.113 197.862 131.84 198.272 132.499C198.679 133.158 199.194 133.744 199.794 134.234C200.379 134.716 201.048 135.086 201.766 135.326C201.766 135.326 202.428 135.532 203.339 135.863C204.25 136.193 205.404 136.643 206.421 137.111C207.277 137.501 208.111 137.938 208.918 138.421L209.311 138.671L209.598 138.858L209.779 138.983L209.841 139.027C209.895 139.063 209.954 139.092 210.016 139.114C210.085 139.156 210.151 139.202 210.216 139.251L210.434 139.42L210.578 139.526L210.721 139.644C216.125 143.133 218.328 158.958 218.209 172.449L252.194 171.881Z" fill="white"/>
<path d="M218.19 174.396C217.669 174.389 217.172 174.177 216.808 173.805C216.443 173.434 216.24 172.933 216.243 172.412C216.405 156.93 213.641 143.838 209.678 141.279L209.479 141.136L209.317 141.004L209.26 140.961L209.067 140.811C208.946 140.751 208.829 140.682 208.718 140.605L208.649 140.555L208.262 140.299L208.118 140.212L207.9 140.075C207.17 139.638 206.416 139.242 205.641 138.889C204.78 138.49 203.713 138.059 202.721 137.703C201.859 137.391 201.236 137.192 201.217 137.185C200.257 136.867 199.364 136.374 198.583 135.732C197.818 135.109 197.162 134.362 196.643 133.522C196.106 132.66 195.731 131.706 195.538 130.708C195.332 129.651 195.363 128.562 195.632 127.519C195.758 127.015 195.942 126.527 196.181 126.065C194.003 124.05 192.973 121.185 193.622 118.577C193.769 117.983 193.996 117.412 194.296 116.88C193.619 116.212 193.062 115.433 192.649 114.577C191.899 113.064 191.726 111.329 192.162 109.697C192.431 108.678 192.924 107.732 193.604 106.926C193.938 106.526 194.312 106.16 194.721 105.834C195.146 105.501 195.604 105.21 196.087 104.967C197.443 104.295 198.943 103.967 200.456 104.012C200.493 103.8 200.537 103.582 200.587 103.388C200.861 102.29 201.416 101.282 202.197 100.462C202.571 100.06 202.989 99.7015 203.445 99.3945C203.915 99.0755 204.42 98.8097 204.949 98.602C206.063 98.157 207.25 97.9221 208.449 97.9094C209.776 97.8912 211.097 98.0871 212.362 98.4897L212.78 98.6208C212.948 98.6582 213.117 98.7081 213.285 98.758L214.353 99.1074C214.877 99.2884 215.601 99.5318 216.487 99.8501C217.791 100.324 219.026 100.811 220.268 101.329C222.072 102.09 223.725 102.864 225.317 103.694C227.415 104.782 229.447 105.995 231.401 107.326C233.749 108.933 235.961 110.73 238.016 112.699C239.039 113.672 240.1 114.789 241.248 116.112C242.317 117.366 243.321 118.674 244.256 120.031C244.636 120.58 245.017 121.117 245.404 121.653C246.957 123.669 248.268 125.86 249.31 128.181C249.51 128.668 249.741 129.192 249.984 129.747C251.232 132.674 252.849 136.324 253.061 140.143C253.685 151.263 253.785 156.037 253.984 164.699C254.028 166.808 254.084 169.154 254.153 171.875C254.166 172.396 253.972 172.902 253.612 173.28C253.253 173.658 252.758 173.877 252.237 173.891C251.716 173.904 251.21 173.709 250.832 173.35C250.454 172.991 250.235 172.496 250.221 171.975C250.153 169.248 250.103 166.902 250.053 164.786C249.853 156.168 249.741 151.42 249.136 140.356C248.967 137.235 247.532 133.959 246.377 131.32C246.128 130.739 245.891 130.19 245.679 129.678C244.747 127.636 243.581 125.709 242.203 123.937C241.81 123.388 241.41 122.827 241.011 122.253C240.156 121.01 239.237 119.812 238.259 118.664C237.217 117.46 236.237 116.43 235.301 115.544C233.402 113.714 231.355 112.044 229.179 110.552C227.357 109.308 225.461 108.177 223.501 107.164C222.003 106.384 220.443 105.654 218.739 104.936C217.56 104.437 216.387 103.981 215.145 103.532C214.29 103.22 213.604 102.989 213.098 102.82L212.075 102.483C212.012 102.46 211.947 102.441 211.881 102.427L211.694 102.384L211.189 102.221C210.325 101.948 209.424 101.813 208.518 101.822C207.803 101.832 207.096 101.968 206.427 102.221C206.149 102.333 205.884 102.473 205.635 102.639C205.423 102.781 205.229 102.947 205.055 103.132C204.734 103.468 204.506 103.881 204.393 104.331C204.276 104.807 204.287 105.307 204.424 105.778C204.513 106.111 204.514 106.46 204.426 106.793C204.338 107.125 204.165 107.429 203.923 107.673C203.681 107.918 203.38 108.096 203.048 108.188C202.717 108.28 202.367 108.284 202.034 108.2L201.847 108.15C200.512 107.776 199.087 107.891 197.828 108.474C197.579 108.599 197.342 108.75 197.123 108.923C196.925 109.079 196.742 109.254 196.58 109.448C196.272 109.811 196.047 110.237 195.919 110.696C195.733 111.42 195.818 112.188 196.156 112.855C196.578 113.691 197.227 114.392 198.028 114.877C198.287 115.036 198.505 115.254 198.665 115.512C198.825 115.77 198.923 116.062 198.951 116.365C198.979 116.668 198.936 116.973 198.825 117.256C198.715 117.539 198.54 117.793 198.315 117.997C197.862 118.396 197.54 118.922 197.391 119.507C197.005 121.061 198.016 122.883 199.825 123.931C200.091 124.081 200.319 124.291 200.489 124.544C200.66 124.797 200.769 125.087 200.809 125.39C200.848 125.693 200.816 126 200.716 126.289C200.616 126.577 200.45 126.838 200.231 127.051C199.822 127.457 199.531 127.966 199.388 128.524C199.27 129.009 199.257 129.513 199.351 130.003C199.454 130.528 199.653 131.029 199.938 131.482C200.225 131.957 200.592 132.38 201.023 132.73C201.424 133.065 201.883 133.323 202.378 133.491C202.378 133.491 203.064 133.71 204 134.047C205.092 134.44 206.271 134.914 207.239 135.357C208.159 135.78 209.055 136.255 209.922 136.78L210.103 136.892L210.39 137.073L210.664 137.248L210.852 137.379C210.922 137.409 210.989 137.446 211.051 137.491C211.165 137.558 211.273 137.633 211.376 137.716L211.719 137.972L211.831 138.059L211.881 138.103C214.802 140.068 217.011 144.724 218.446 151.95C219.688 158.729 220.256 165.614 220.143 172.505C220.123 173.011 219.908 173.489 219.545 173.841C219.181 174.193 218.696 174.392 218.19 174.396Z" fill="black"/>
<path d="M221.479 115.557C221.783 115.644 222.107 115.618 222.394 115.484C222.68 115.351 222.908 115.118 223.037 114.83C223.165 114.541 223.185 114.216 223.092 113.914C223 113.612 222.801 113.353 222.533 113.186L222.215 113.005L221.485 112.612C220.736 112.206 219.782 111.726 218.789 111.264C217.541 110.64 216.237 110.128 214.989 109.641C213.616 109.111 212.168 108.593 210.677 108.113C208.406 107.376 205.853 106.652 202.877 105.897L199.52 105.067C199.349 105.013 199.168 104.995 198.99 105.013C198.812 105.032 198.639 105.086 198.483 105.174C198.326 105.262 198.19 105.381 198.081 105.524C197.973 105.666 197.895 105.83 197.852 106.004C197.809 106.178 197.802 106.359 197.832 106.536C197.862 106.713 197.928 106.882 198.026 107.032C198.124 107.182 198.252 107.311 198.401 107.41C198.551 107.509 198.719 107.576 198.895 107.607L202.247 108.443C205.161 109.18 207.657 109.885 209.878 110.609C211.32 111.07 212.724 111.57 214.041 112.081C215.245 112.549 216.474 113.074 217.691 113.635C218.908 114.197 219.838 114.696 220.25 114.883L220.98 115.276L221.179 115.395C221.273 115.461 221.373 115.515 221.479 115.557Z" fill="black"/>
<path d="M215.432 123.688C215.737 123.781 216.066 123.76 216.357 123.629C216.648 123.497 216.88 123.264 217.011 122.973C217.142 122.682 217.162 122.353 217.068 122.048C216.974 121.743 216.772 121.483 216.499 121.317C216.409 121.259 216.315 121.207 216.219 121.161L215.638 120.849C215.014 120.524 214.253 120.131 213.435 119.744C212.331 119.232 211.258 118.777 210.228 118.377C209.042 117.916 207.782 117.466 206.484 117.042C204.443 116.38 202.116 115.719 199.345 115.014L196.087 114.203L195.463 116.749L198.708 117.554C201.41 118.24 203.701 118.889 205.679 119.538C206.927 119.944 208.144 120.374 209.285 120.786C210.259 121.167 211.289 121.604 212.331 122.084C213.373 122.565 214.078 122.945 214.403 123.12L214.989 123.438L215.139 123.519C215.229 123.588 215.327 123.645 215.432 123.688Z" fill="black"/>
<path d="M212.287 131.588C212.594 131.679 212.924 131.654 213.215 131.518C213.505 131.382 213.735 131.145 213.862 130.85C213.989 130.556 214.003 130.225 213.903 129.92C213.802 129.616 213.594 129.359 213.316 129.198L213.167 129.111L212.774 128.892L212.206 128.587H212.174L211.401 128.193C209.884 127.458 208.33 126.802 206.745 126.228C204.873 125.541 202.945 124.98 201.66 124.605C199.02 123.857 199.014 123.856 198.664 123.919C198.368 123.972 198.099 124.126 197.903 124.355C197.707 124.583 197.595 124.872 197.587 125.173C197.579 125.474 197.675 125.769 197.859 126.008C198.042 126.246 198.303 126.414 198.596 126.484C198.752 126.527 199.669 126.764 200.948 127.108C202.227 127.451 204.068 128.012 205.847 128.674C207.336 129.219 208.794 129.844 210.215 130.546L211.526 131.226L211.831 131.395L211.987 131.488C212.083 131.534 212.183 131.567 212.287 131.588Z" fill="black"/>
<path d="M251.27 109.466C250.072 109.046 248.764 109.067 247.58 109.524C246.397 109.982 245.415 110.846 244.811 111.962C241.837 117.507 240.084 123.625 239.669 129.903L251.114 140.399C250.296 132.393 251.738 122.44 253.997 116.118C254.839 113.735 253.691 110.271 251.27 109.466Z" fill="white"/>
<path d="M251.114 142.353C250.627 142.354 250.157 142.173 249.796 141.847C249.435 141.52 249.209 141.071 249.161 140.587C248.38 132.974 249.61 122.633 252.144 115.451C252.418 114.489 252.324 113.459 251.881 112.562C251.639 112.002 251.193 111.556 250.633 111.314C249.865 111.039 249.024 111.051 248.264 111.347C247.504 111.642 246.876 112.202 246.496 112.924C243.672 118.216 242.007 124.049 241.61 130.034C241.593 130.292 241.524 130.544 241.409 130.775C241.294 131.007 241.133 131.213 240.938 131.382C240.742 131.55 240.515 131.679 240.269 131.759C240.024 131.84 239.765 131.871 239.507 131.85C238.987 131.812 238.503 131.569 238.162 131.175C237.82 130.781 237.649 130.268 237.685 129.747C238.116 123.174 239.957 116.77 243.083 110.97C243.91 109.456 245.248 108.285 246.858 107.664C248.468 107.044 250.246 107.015 251.875 107.582C252.647 107.865 253.355 108.298 253.959 108.856C254.563 109.414 255.051 110.086 255.395 110.833C256.312 112.676 256.469 114.804 255.832 116.761C253.897 122.234 252.206 131.9 253.055 140.187C253.081 140.445 253.057 140.705 252.983 140.953C252.909 141.201 252.787 141.432 252.623 141.632C252.46 141.833 252.258 141.999 252.03 142.122C251.802 142.244 251.552 142.321 251.295 142.346L251.114 142.353Z" fill="black"/>
<path d="M241.398 129.903C241.317 129.656 241.189 129.428 241.019 129.231C240.85 129.034 240.643 128.873 240.411 128.757C240.179 128.641 239.926 128.572 239.666 128.555C239.407 128.537 239.147 128.571 238.902 128.655C229.835 131.613 226.271 137.504 225.173 139.888C224.168 142.059 224.431 142.708 224.587 143.101C224.731 143.468 224.982 143.782 225.307 144.005C225.631 144.227 226.015 144.347 226.409 144.35C226.663 144.351 226.916 144.302 227.151 144.206C227.495 144.071 227.795 143.842 228.015 143.545C228.236 143.248 228.369 142.896 228.399 142.527C228.943 141.026 229.76 139.638 230.808 138.434L234.365 135.22C236.153 134.008 238.105 133.058 240.162 132.4C240.408 132.318 240.635 132.188 240.831 132.018C241.026 131.848 241.186 131.641 241.301 131.409C241.416 131.177 241.483 130.924 241.5 130.666C241.517 130.408 241.482 130.148 241.398 129.903Z" fill="black"/>
<path d="M256.624 160.73C256.624 160.73 256.624 160.824 256.624 161.011C256.624 161.198 256.668 161.448 256.699 161.785C256.73 162.122 256.768 162.527 256.811 163.033C256.855 163.538 256.899 164.056 256.942 164.655C256.986 165.254 257.042 165.903 257.098 166.652C257.154 167.401 257.186 168.143 257.236 168.973C257.348 170.633 257.404 172.468 257.491 174.49C257.811 184.25 257.627 194.021 256.942 203.763C256.574 209.061 256.044 214.371 255.413 219.313C255.145 221.81 254.746 224.187 254.415 226.459C254.249 227.594 254.082 228.697 253.916 229.766C253.735 230.833 253.535 231.856 253.36 232.849C252.992 234.821 252.661 236.636 252.368 238.24C252.075 239.844 251.744 241.236 251.47 242.384L250.677 245.991L208.094 236.081L208.749 233.098C208.949 232.15 209.217 231.001 209.491 229.672C209.766 228.343 210.015 226.827 210.315 225.186C210.465 224.362 210.627 223.507 210.783 222.615C210.939 221.722 211.058 220.799 211.195 219.844C211.476 217.941 211.819 215.944 212.037 213.847C212.568 209.678 213.017 205.198 213.329 200.742C213.905 192.525 214.061 184.283 213.797 176.05C213.722 174.39 213.679 172.855 213.585 171.532C213.548 170.864 213.51 170.24 213.479 169.66C213.448 169.079 213.398 168.574 213.36 168.106C213.323 167.638 213.292 167.22 213.261 166.858C213.229 166.496 213.198 166.234 213.179 165.972C213.161 165.71 213.142 165.547 213.13 165.441V165.273L256.624 160.73Z" fill="#2563EB"/>
<path d="M207.282 238.24C207.394 238.284 207.509 238.317 207.626 238.34C207.924 238.405 208.232 238.411 208.533 238.357C208.833 238.303 209.12 238.19 209.377 238.025C209.634 237.859 209.855 237.645 210.029 237.394C210.203 237.143 210.326 236.86 210.39 236.562L211.045 233.579C211.12 233.229 211.208 232.861 211.295 232.468C211.445 231.776 211.62 230.989 211.801 230.128C211.801 230.128 211.801 230.091 211.801 230.078L212.624 225.585L212.793 224.674C212.892 224.125 212.999 223.57 213.099 222.995C213.099 222.995 213.099 222.958 213.099 222.946L213.517 220.169C213.591 219.619 213.679 219.077 213.76 218.521C213.978 217.105 214.203 215.644 214.384 214.103C214.945 209.691 215.382 205.229 215.682 200.849C216.268 192.542 216.427 184.211 216.156 175.888C216.156 175.376 216.112 174.889 216.094 174.415C216.05 173.311 216.012 172.262 215.944 171.295L215.832 169.423V169.385L215.713 167.832C215.713 167.638 215.682 167.451 215.669 167.276L254.534 163.233C254.571 163.694 254.615 164.194 254.652 164.755L254.802 166.74L254.939 169.036C255.02 170.284 255.077 171.607 255.133 173.024C255.133 173.51 255.177 174.01 255.195 174.515C255.512 184.186 255.328 193.867 254.646 203.52C254.296 208.63 253.791 213.816 253.136 218.946V218.989C252.942 220.774 252.674 222.534 252.412 224.237C252.319 224.861 252.231 225.485 252.144 226.047L251.644 229.317C251.526 230.009 251.407 230.683 251.283 231.339L251.095 232.362L250.109 237.716C249.897 238.771 249.679 239.744 249.485 240.605C249.392 241.036 249.298 241.442 249.217 241.816L248.425 245.417C248.359 245.715 248.352 246.024 248.405 246.325C248.459 246.627 248.571 246.914 248.735 247.172C248.9 247.43 249.114 247.653 249.365 247.828C249.615 248.004 249.898 248.128 250.197 248.194C250.495 248.26 250.804 248.266 251.105 248.213C251.406 248.159 251.694 248.047 251.952 247.883C252.21 247.718 252.433 247.504 252.608 247.254C252.784 247.003 252.908 246.72 252.974 246.421L253.766 242.808C253.854 242.428 253.941 242.028 254.034 241.604C254.228 240.724 254.446 239.732 254.658 238.634C254.658 238.634 254.658 238.602 254.658 238.59L255.651 233.192C255.707 232.855 255.769 232.518 255.832 232.181C255.963 231.495 256.088 230.796 256.212 230.084C256.212 230.084 256.212 230.084 256.212 230.034L256.711 226.733C256.799 226.109 256.886 225.541 256.98 224.942C257.242 223.195 257.523 221.392 257.722 219.513C258.384 214.303 258.902 209.03 259.258 203.844C259.945 194.021 260.131 184.17 259.813 174.328C259.813 173.81 259.769 173.317 259.751 172.836C259.694 171.389 259.638 170.016 259.551 168.743L259.414 166.44V166.403L259.264 164.406C259.214 163.782 259.176 163.245 259.127 162.733L258.908 160.431C258.876 160.127 258.785 159.832 258.639 159.563C258.493 159.295 258.296 159.057 258.058 158.865C257.82 158.672 257.547 158.529 257.254 158.442C256.961 158.355 256.654 158.327 256.349 158.359L212.868 162.883C212.563 162.914 212.267 163.004 211.997 163.149C211.727 163.295 211.489 163.492 211.296 163.73C211.102 163.967 210.958 164.241 210.872 164.535C210.785 164.829 210.757 165.137 210.79 165.442V165.61C210.79 165.61 210.79 165.866 210.827 166.078L210.908 166.964C210.939 167.295 210.971 167.682 211.008 168.156L211.12 169.691L211.233 171.563C211.295 172.456 211.339 173.473 211.376 174.552C211.376 175.033 211.42 175.526 211.439 176.025C211.701 184.169 211.544 192.321 210.971 200.449C210.677 204.755 210.247 209.136 209.722 213.46C209.726 213.479 209.726 213.498 209.722 213.517C209.573 214.952 209.354 216.368 209.148 217.741C209.061 218.309 208.974 218.871 208.892 219.42L208.487 222.153C208.393 222.696 208.293 223.226 208.194 223.744C208.137 224.063 208.081 224.368 208.025 224.674L207.208 229.136C207.039 229.947 206.871 230.708 206.721 231.382C206.634 231.782 206.546 232.162 206.471 232.518L205.816 235.495C205.681 236.053 205.756 236.64 206.026 237.147C206.297 237.653 206.744 238.042 207.282 238.24Z" fill="#2563EB"/>
<path d="M230.303 237.579L230.403 237.61C230.665 237.677 230.943 237.638 231.176 237.501C231.41 237.364 231.581 237.141 231.651 236.88C231.713 236.649 233.217 231.052 234.484 220.331C235.651 210.465 236.811 194.228 235.732 172.905C235.733 172.764 235.705 172.624 235.65 172.494C235.595 172.364 235.514 172.247 235.412 172.149C235.31 172.052 235.189 171.976 235.057 171.927C234.925 171.878 234.784 171.856 234.643 171.863C234.502 171.87 234.364 171.906 234.238 171.969C234.111 172.031 233.999 172.119 233.907 172.226C233.816 172.334 233.747 172.459 233.706 172.594C233.664 172.729 233.651 172.871 233.667 173.011C234.727 194.172 233.573 210.284 232.418 220.069C231.17 230.64 229.66 236.293 229.648 236.293C229.57 236.551 229.595 236.828 229.717 237.068C229.839 237.307 230.049 237.49 230.303 237.579Z" fill="black"/>
<path d="M247.363 223.726C247.584 223.81 247.828 223.816 248.053 223.743C248.278 223.669 248.472 223.521 248.601 223.323C248.73 223.124 248.787 222.887 248.763 222.652C248.739 222.416 248.634 222.196 248.468 222.028C244.449 217.972 238.452 214.453 230.646 211.576C227.215 210.294 223.699 209.252 220.125 208.456C219.86 208.41 219.587 208.469 219.364 208.62C219.142 208.772 218.987 209.004 218.933 209.267C218.879 209.531 218.929 209.805 219.073 210.032C219.218 210.259 219.445 210.421 219.707 210.484C219.888 210.521 237.897 214.29 246.995 223.482C247.098 223.589 247.224 223.673 247.363 223.726Z" fill="black"/>
<path d="M220.156 206.371C220.341 206.442 220.543 206.457 220.737 206.415C220.899 206.384 237.198 203.083 249.273 208.643C249.517 208.73 249.784 208.723 250.022 208.623C250.261 208.523 250.453 208.337 250.562 208.103C250.671 207.868 250.688 207.602 250.61 207.355C250.532 207.109 250.365 206.9 250.141 206.771C237.429 200.917 221.005 204.275 220.312 204.393C220.092 204.438 219.893 204.554 219.744 204.722C219.596 204.891 219.506 205.103 219.488 205.327C219.47 205.551 219.526 205.774 219.647 205.964C219.767 206.153 219.946 206.298 220.156 206.378V206.371Z" fill="black"/>
<path d="M65.6161 113.703C66.154 112.609 66.2825 111.358 65.9781 110.178C65.7791 109.436 65.4191 108.748 64.9236 108.162C64.6748 107.862 64.3945 107.59 64.0875 107.351C63.7683 107.097 63.423 106.877 63.0576 106.696C61.3744 105.892 59.4574 105.723 57.6598 106.221L57.4727 106.271C57.6972 105.473 57.7101 104.63 57.5102 103.825C57.3128 103.051 56.9218 102.341 56.3743 101.759C56.0945 101.464 55.7828 101.2 55.4447 100.973C55.0863 100.727 54.7036 100.518 54.3026 100.349C53.4105 100.003 52.4638 99.8195 51.507 99.8063C50.3936 99.7941 49.2852 99.9606 48.2245 100.299L47.7193 100.455C47.582 100.482 47.4462 100.517 47.3134 100.561L46.5023 100.823C45.9719 101.004 45.1917 101.267 44.1808 101.635C43.1699 102.003 41.9345 102.465 40.493 103.076C39.0515 103.688 37.3727 104.424 35.588 105.373C33.5589 106.421 31.5958 107.592 29.7097 108.88C27.4484 110.425 25.3175 112.153 23.3385 114.047C22.2776 115.058 21.2417 116.168 20.2183 117.329C19.2009 118.528 18.245 119.777 17.3542 121.073C15.5507 123.694 13.6911 125.953 12.493 128.867C11.2948 131.781 9.11713 136.006 8.88624 140.187C8.12493 154.009 8.14351 158.072 7.80029 171.863L41.7972 172.412C41.6599 158.92 43.8627 143.082 49.2855 139.607L49.429 139.488L49.5725 139.382L49.791 139.213C49.8551 139.164 49.9216 139.118 49.9905 139.076C50.0517 139.053 50.1105 139.024 50.1654 138.989L50.2279 138.945C50.2591 138.945 50.3276 138.876 50.4025 138.82L50.6895 138.633L51.089 138.384C51.8951 137.899 52.7285 137.462 53.5851 137.073C54.6022 136.599 55.7503 136.15 56.6613 135.825C57.5724 135.501 58.2403 135.288 58.2403 135.288C58.9584 135.047 59.6267 134.677 60.2123 134.196C60.8106 133.706 61.3229 133.12 61.7285 132.462C62.1424 131.805 62.4301 131.077 62.5771 130.315C62.7277 129.54 62.7066 128.741 62.5149 127.975C62.281 127.079 61.8111 126.262 61.1544 125.61C63.5881 124.199 65.1483 121.554 64.518 119.014C64.2733 118.052 63.7501 117.184 63.014 116.518C64.1253 115.839 65.0261 114.864 65.6161 113.703Z" fill="white"/>
<path d="M41.8099 174.396C41.2918 174.396 40.7946 174.192 40.4265 173.827C40.0584 173.462 39.8492 172.967 39.8442 172.449C39.7264 165.558 40.2928 158.673 41.5353 151.894C42.9768 144.668 45.1859 140.037 48.1001 138.047L48.1625 137.997L48.2622 137.922L48.5867 137.672C48.6969 137.587 48.8116 137.508 48.9301 137.435C48.9931 137.392 49.0598 137.354 49.1297 137.323L49.2732 137.229L49.3292 137.192L49.6041 137.011L49.8786 136.836L50.0282 136.742C50.9086 136.213 51.8168 135.732 52.7489 135.301C53.7099 134.858 54.8958 134.384 55.9878 133.99C56.9364 133.641 57.6351 133.423 57.6351 133.423C58.1128 133.261 58.557 133.014 58.9456 132.693C59.3773 132.339 59.7485 131.918 60.044 131.444C60.3299 130.989 60.5306 130.486 60.6367 129.959C60.7317 129.467 60.7169 128.96 60.5931 128.474C60.4526 127.917 60.161 127.41 59.7506 127.008C59.5321 126.794 59.3665 126.533 59.2667 126.244C59.1669 125.955 59.1356 125.647 59.1756 125.345C59.2156 125.042 59.3255 124.752 59.4968 124.499C59.6681 124.246 59.8962 124.037 60.1625 123.888C61.9785 122.839 62.9831 121.017 62.5962 119.469C62.4492 118.88 62.1244 118.351 61.6662 117.953C61.4433 117.748 61.2708 117.494 61.162 117.211C61.0531 116.928 61.0111 116.624 61.0389 116.322C61.0666 116.02 61.1636 115.729 61.3222 115.471C61.4809 115.212 61.6966 114.994 61.9533 114.833C62.7533 114.346 63.4017 113.646 63.8253 112.811C64.1599 112.14 64.2419 111.372 64.0563 110.646C63.9325 110.186 63.7089 109.76 63.4012 109.398C63.2349 109.2 63.0487 109.02 62.8457 108.861C62.6277 108.689 62.3936 108.539 62.1467 108.412C60.8872 107.832 59.462 107.721 58.1281 108.1L57.941 108.143C57.6078 108.229 57.2582 108.225 56.9269 108.133C56.5956 108.041 56.2943 107.863 56.0531 107.618C55.8118 107.373 55.6388 107.069 55.5518 106.736C55.4648 106.404 55.4666 106.054 55.557 105.722C55.6847 105.248 55.6847 104.749 55.557 104.274C55.4464 103.825 55.2207 103.412 54.9019 103.076C54.7127 102.884 54.5035 102.712 54.2779 102.565C54.0307 102.408 53.7696 102.274 53.4978 102.165C52.8281 101.909 52.1182 101.774 51.4012 101.766C50.5038 101.76 49.6109 101.895 48.7552 102.165L48.2372 102.327L48.0562 102.371L47.8505 102.427L46.8271 102.764C46.3216 102.933 45.6412 103.164 44.7926 103.476C43.5445 103.925 42.3715 104.38 41.1983 104.88C39.4885 105.597 37.9346 106.327 36.4307 107.107C34.4729 108.121 32.5787 109.252 30.7584 110.496C28.5866 111.99 26.5414 113.659 24.6431 115.488C23.6946 116.387 22.7211 117.416 21.654 118.646C20.6834 119.783 19.7731 120.97 18.9269 122.203C18.5275 122.783 18.1281 123.345 17.7349 123.894C16.357 125.666 15.1906 127.592 14.2592 129.635C14.0471 130.146 13.81 130.696 13.5542 131.276C12.4059 133.916 10.9706 137.204 10.8021 140.312C10.1781 151.382 10.0843 156.131 9.88465 164.755C9.83473 166.87 9.7787 169.21 9.71006 171.931C9.71668 172.198 9.66914 172.463 9.5702 172.71C9.47127 172.957 9.32295 173.182 9.13448 173.37C8.94602 173.559 8.72136 173.707 8.4739 173.806C8.22643 173.904 7.96145 173.952 7.69508 173.945C7.42871 173.938 7.16631 173.877 6.92419 173.766C6.68207 173.655 6.4651 173.496 6.28646 173.298C6.10781 173.1 5.9714 172.868 5.88517 172.616C5.79894 172.364 5.76476 172.097 5.78492 171.831C5.85356 169.117 5.9035 166.777 5.95342 164.668C6.15311 156 6.26542 151.226 6.87696 140.1C7.08289 136.281 8.67427 132.611 9.95352 129.703C10.1906 129.148 10.4213 128.624 10.6272 128.137C11.6672 125.815 12.9786 123.624 14.5338 121.61C14.9144 121.073 15.3012 120.537 15.6819 119.981C16.6081 118.634 17.6039 117.337 18.6649 116.093C19.838 114.746 20.8987 113.597 21.9221 112.649C23.977 110.683 26.1893 108.888 28.5368 107.282C30.4886 105.952 32.5184 104.739 34.615 103.65C36.2125 102.82 37.8659 102.047 39.6693 101.285C40.9174 100.767 42.1655 100.281 43.451 99.8063C44.3371 99.4881 45.0422 99.251 45.5726 99.07L46.64 98.7206C46.8147 98.6644 46.9893 98.6145 47.1516 98.577L47.5821 98.446C48.8386 98.0457 50.1512 97.8497 51.4698 97.8656C52.671 97.8771 53.8599 98.1098 54.9769 98.5521C55.5021 98.7613 56.004 99.0248 56.4745 99.3383C56.929 99.6511 57.3475 100.013 57.7225 100.418C58.5014 101.238 59.0539 102.247 59.3261 103.345C59.3811 103.55 59.4248 103.758 59.4572 103.969C60.9798 103.92 62.4912 104.248 63.8567 104.923C64.3372 105.165 64.7927 105.454 65.2169 105.785C65.6292 106.112 66.0077 106.48 66.3464 106.883C67.0254 107.689 67.5177 108.635 67.788 109.653C68.2182 111.286 68.0455 113.018 67.3013 114.533C66.8859 115.388 66.3289 116.167 65.6538 116.836C65.9518 117.37 66.1785 117.94 66.3278 118.533C66.9519 121.154 65.9471 124.019 63.7693 126.022C64.4907 127.454 64.7105 129.086 64.3933 130.658C64.1965 131.658 63.8203 132.613 63.2827 133.479C62.7604 134.325 62.1 135.078 61.3292 135.707C60.5574 136.332 59.6806 136.816 58.7396 137.136C58.6959 137.136 58.0719 137.348 57.217 137.653C56.2186 138.015 55.1517 138.446 54.2843 138.845C53.5014 139.205 52.7388 139.607 52.0002 140.05L51.8068 140.168L51.6757 140.256L51.3077 140.493L51.2388 140.543L51.1702 140.593C51.0592 140.672 50.9424 140.743 50.8208 140.805L50.4277 141.104C50.3612 141.164 50.2904 141.218 50.2156 141.267C46.2468 143.825 43.4885 156.917 43.6445 172.399C43.6469 172.657 43.5987 172.913 43.5022 173.153C43.4057 173.392 43.2628 173.61 43.082 173.795C42.9012 173.979 42.6858 174.126 42.4482 174.227C42.2107 174.328 41.9556 174.381 41.6974 174.384L41.8099 174.396Z" fill="black"/>
<path d="M38.5273 115.557C38.2228 115.647 37.8961 115.624 37.6077 115.491C37.3193 115.358 37.0886 115.126 36.959 114.836C36.8293 114.546 36.8093 114.219 36.9026 113.915C36.9959 113.612 37.1962 113.353 37.4663 113.186L37.7908 113.005L38.5209 112.612C39.2634 112.206 40.2245 111.726 41.2104 111.264C42.4585 110.64 43.7628 110.128 45.017 109.641C46.3837 109.111 47.8376 108.593 49.3228 108.113C51.6005 107.376 54.1465 106.652 57.1231 105.897L60.4803 105.067C60.6512 105.013 60.8315 104.995 61.0098 105.013C61.1882 105.032 61.3608 105.086 61.5171 105.174C61.6735 105.262 61.8102 105.381 61.9187 105.524C62.0272 105.666 62.1051 105.83 62.1479 106.004C62.1907 106.178 62.1974 106.359 62.1674 106.536C62.1374 106.713 62.0714 106.882 61.9736 107.032C61.8758 107.182 61.748 107.311 61.5985 107.41C61.449 107.509 61.2808 107.576 61.1043 107.607L57.7532 108.443C54.839 109.18 52.3431 109.885 50.1278 110.609C48.6863 111.07 47.2821 111.57 45.9592 112.081C44.7611 112.549 43.5318 113.074 42.315 113.635C41.0981 114.197 40.1683 114.696 39.7564 114.883L39.0263 115.276L38.8204 115.395C38.7294 115.46 38.6311 115.515 38.5273 115.557Z" fill="black"/>
<path d="M44.5679 123.688C44.2628 123.781 43.9339 123.76 43.6432 123.629C43.3524 123.497 43.12 123.264 42.989 122.973C42.858 122.682 42.8377 122.353 42.932 122.048C43.0263 121.743 43.2285 121.483 43.5009 121.317C43.5009 121.317 43.6008 121.254 43.7818 121.161L44.362 120.849C44.986 120.524 45.7473 120.131 46.571 119.744C47.6693 119.232 48.7488 118.777 49.7722 118.377C50.9578 117.916 52.2184 117.466 53.5163 117.042C55.5507 116.38 57.8848 115.719 60.6555 115.014L63.9127 114.203L64.5367 116.749L61.2856 117.554C58.5836 118.24 56.2933 118.889 54.3214 119.538C53.0733 119.944 51.8254 120.374 50.7146 120.786C49.7349 121.167 48.7052 121.604 47.6631 122.084C46.6209 122.565 45.922 122.945 45.5975 123.12L45.011 123.438L44.855 123.519C44.7685 123.59 44.6717 123.647 44.5679 123.688Z" fill="black"/>
<path d="M47.7192 131.588C47.4118 131.679 47.0814 131.654 46.7911 131.518C46.5007 131.382 46.2704 131.145 46.1436 130.85C46.0167 130.556 46.0022 130.225 46.1028 129.92C46.2033 129.616 46.412 129.359 46.6893 129.198L46.8392 129.111L47.2323 128.892L47.7938 128.587H47.8252L48.5989 128.193C50.1171 127.457 51.6732 126.801 53.2605 126.228C55.1325 125.541 57.0609 124.98 58.3401 124.605C60.986 123.857 60.9921 123.856 61.3353 123.919C61.5048 123.948 61.6667 124.011 61.8119 124.103C61.957 124.195 62.0826 124.315 62.1812 124.456C62.2798 124.597 62.3496 124.756 62.3865 124.924C62.4234 125.092 62.4268 125.266 62.3963 125.435C62.3548 125.689 62.238 125.925 62.0611 126.112C61.8842 126.299 61.6552 126.428 61.4039 126.484C61.2479 126.527 60.3369 126.764 59.0577 127.108C57.7784 127.451 55.9373 128.012 54.1526 128.674C52.6639 129.219 51.2057 129.844 49.7844 130.546L48.4678 131.226L48.1683 131.395L48.0062 131.488C47.9145 131.532 47.8182 131.565 47.7192 131.588Z" fill="black"/>
<path d="M20.3367 129.909C19.9218 123.631 18.1688 117.514 15.1949 111.969C14.5899 110.852 13.6069 109.987 12.4221 109.53C11.2373 109.072 9.92847 109.052 8.73006 109.473C6.31508 110.278 5.16042 113.741 6.00909 116.131C8.23686 122.452 9.70354 132.405 8.88606 140.412L20.3367 129.909Z" fill="white"/>
<path d="M8.89217 142.353H8.68619C8.42923 142.326 8.18001 142.249 7.95278 142.127C7.72555 142.004 7.52482 141.837 7.36197 141.637C7.19912 141.436 7.07729 141.205 7.00364 140.958C6.92999 140.71 6.90586 140.451 6.93265 140.194C7.78132 131.907 6.084 122.24 4.14952 116.762C3.5147 114.806 3.6738 112.679 4.59255 110.84C4.93373 110.091 5.42065 109.418 6.02495 108.86C6.62925 108.301 7.33889 107.869 8.11214 107.588C9.74075 107.021 11.5176 107.051 13.1266 107.671C14.7355 108.292 16.0722 109.463 16.8985 110.977C20.0268 116.775 21.8679 123.18 22.2962 129.754C22.3238 130.016 22.2983 130.28 22.2216 130.532C22.1448 130.784 22.0182 131.018 21.8492 131.22C21.6803 131.423 21.4727 131.588 21.2383 131.709C21.0039 131.829 20.7478 131.901 20.4851 131.92C20.2224 131.939 19.9584 131.905 19.709 131.821C19.4596 131.736 19.2298 131.602 19.0332 131.427C18.8366 131.251 18.6772 131.038 18.5646 130.8C18.4519 130.562 18.3884 130.304 18.3775 130.041C17.9744 124.056 16.3091 118.225 13.4913 112.93C13.1099 112.21 12.4819 111.651 11.7222 111.355C10.9626 111.059 10.1221 111.047 9.3541 111.32C8.79335 111.561 8.34651 112.007 8.10605 112.568C7.65721 113.464 7.56333 114.496 7.8437 115.457C10.3772 122.64 11.588 132.974 10.8267 140.593C10.7762 141.073 10.5511 141.517 10.1945 141.841C9.83778 142.166 9.37432 142.348 8.89217 142.353Z" fill="black"/>
<path d="M34.8269 139.894C33.7161 137.498 30.1467 131.607 21.0983 128.661C20.8525 128.579 20.5929 128.547 20.3344 128.565C20.076 128.583 19.8237 128.653 19.5919 128.768C19.3601 128.884 19.1532 129.045 18.9834 129.24C18.8136 129.436 18.6842 129.664 18.6022 129.909C18.5203 130.155 18.4876 130.415 18.5059 130.673C18.5243 130.932 18.5933 131.184 18.7092 131.416C18.8251 131.648 18.9857 131.854 19.1815 132.024C19.3772 132.194 19.6044 132.324 19.8503 132.406C21.9075 133.064 23.8598 134.014 25.6475 135.226L29.2043 138.44C30.2559 139.643 31.0748 141.031 31.6193 142.533C31.6482 142.902 31.7809 143.256 32.0017 143.553C32.2225 143.849 32.5224 144.078 32.8674 144.212C33.1011 144.307 33.3513 144.356 33.6038 144.356C33.9974 144.353 34.3812 144.233 34.7059 144.011C35.0306 143.788 35.2814 143.474 35.4259 143.107C35.5694 142.714 35.8378 142.065 34.8269 139.894Z" fill="black"/>
<path d="M3.38227 160.73C3.38227 160.73 3.38239 160.824 3.35119 161.011C3.31999 161.198 3.31368 161.448 3.27623 161.785C3.23879 162.122 3.21372 162.527 3.1638 163.033C3.11388 163.538 3.07646 164.056 3.03278 164.655C2.9891 165.254 2.93933 165.903 2.88317 166.652C2.82701 167.401 2.79567 168.143 2.74575 168.973C2.63343 170.633 2.57123 172.468 2.49011 174.49C2.16775 184.25 2.35097 194.021 3.03918 203.763C3.40111 209.061 3.9315 214.371 4.56176 219.313C4.83009 221.81 5.22938 224.187 5.56636 226.459C5.73276 227.594 5.89935 228.697 6.06576 229.766C6.24673 230.833 6.43996 231.856 6.62092 232.849C6.98286 234.821 7.32004 236.636 7.61333 238.24C7.90662 239.844 8.23732 241.236 8.51189 242.384C9.01111 244.68 9.30441 245.991 9.30441 245.991L51.8877 236.081C51.8877 236.081 51.6444 235.001 51.2637 233.098C51.0578 232.15 50.7896 231.001 50.515 229.672L49.6975 225.186C49.5478 224.362 49.3791 223.507 49.2231 222.615C49.0671 221.722 48.955 220.799 48.8115 219.844C48.5369 217.941 48.1874 215.944 47.969 213.847C47.4386 209.678 46.9892 205.198 46.6834 200.742C46.1058 192.525 45.9473 184.283 46.209 176.05C46.2839 174.39 46.334 172.855 46.4214 171.532C46.4651 170.864 46.5023 170.24 46.5335 169.66C46.5647 169.079 46.6146 168.574 46.6521 168.106C46.6895 167.638 46.7146 167.22 46.752 166.858C46.7894 166.496 46.8081 166.234 46.8331 165.972C46.858 165.71 46.8705 165.547 46.883 165.441V165.273L3.38227 160.73Z" fill="#2563EB"/>
<path d="M52.7179 238.24C52.6088 238.284 52.496 238.317 52.3809 238.34C52.0822 238.405 51.7735 238.411 51.4726 238.357C51.1717 238.303 50.8843 238.19 50.627 238.025C50.3697 237.86 50.1476 237.645 49.9732 237.394C49.7987 237.143 49.6754 236.86 49.6103 236.561L48.9552 233.579C48.8803 233.229 48.7991 232.861 48.7117 232.468C48.5557 231.775 48.3809 230.989 48.2062 230.128C48.2062 230.128 48.2062 230.09 48.2062 230.078L47.3826 225.585C47.3327 225.279 47.2764 224.961 47.2202 224.674C47.1141 224.125 47.0144 223.569 46.9146 222.995C46.9119 222.979 46.9119 222.962 46.9146 222.945L46.4962 220.168C46.4151 219.619 46.334 219.076 46.2467 218.521C46.0283 217.104 45.8099 215.644 45.6227 214.103C45.061 209.691 44.6242 205.229 44.3246 200.848C43.7362 192.542 43.5758 184.211 43.8441 175.887C43.8441 175.376 43.8879 174.889 43.9066 174.415C43.9565 173.31 43.9939 172.262 44.0626 171.295L44.1686 169.423C44.1686 169.423 44.1686 169.423 44.1686 169.385L44.2875 167.831C44.2875 167.638 44.2872 167.451 44.3246 167.276L5.46658 163.232C5.4229 163.694 5.38564 164.193 5.34196 164.755L5.19845 166.739L5.05493 169.036C4.97381 170.284 4.92385 171.607 4.86145 173.023C4.86145 173.51 4.82411 174.009 4.80539 174.515C4.49005 184.186 4.67102 193.867 5.34806 203.519C5.70375 208.63 6.20947 213.816 6.85845 218.945C6.85845 218.945 6.85845 218.976 6.85845 218.989C7.0519 220.774 7.32017 222.533 7.57602 224.237C7.66962 224.861 7.76319 225.485 7.85055 226.047L8.34356 229.316C8.46212 230.009 8.58698 230.683 8.70554 231.338C8.76794 231.682 8.83646 232.025 8.89263 232.362L9.87864 237.716C10.097 238.77 10.3092 239.744 10.5027 240.605L10.7647 241.816L11.5572 245.416C11.6232 245.715 11.6298 246.024 11.5764 246.325C11.5231 246.626 11.4107 246.914 11.2461 247.172C11.0816 247.43 10.8679 247.653 10.6172 247.828C10.3665 248.003 10.0838 248.127 9.78509 248.193C9.48639 248.259 9.17738 248.266 8.87617 248.212C8.57497 248.159 8.28727 248.047 8.02941 247.882C7.77155 247.718 7.54865 247.504 7.37339 247.253C7.19814 247.003 7.07403 246.72 7.00806 246.421L6.21554 242.808C6.13441 242.427 6.0471 242.028 5.95349 241.604C5.76005 240.724 5.54164 239.731 5.32947 238.633C5.32947 238.633 5.32947 238.602 5.32947 238.589L4.33737 233.192L4.14998 232.181C4.02517 231.494 3.89407 230.795 3.7755 230.084C3.77245 230.068 3.77245 230.051 3.7755 230.034L3.2764 226.733C3.18904 226.109 3.09547 225.541 3.00187 224.942C2.73978 223.195 2.46524 221.391 2.25932 219.513C1.59785 214.302 1.08603 209.029 0.730332 203.844C0.0396545 194.021 -0.145803 184.169 0.174864 174.327C0.174864 173.809 0.212513 173.316 0.231234 172.836C0.293636 171.388 0.349847 170.015 0.437211 168.742L0.574326 166.44V166.402L0.724238 164.405C0.76792 163.781 0.811431 163.245 0.861353 162.733L1.07982 160.43C1.11095 160.126 1.20204 159.831 1.34765 159.562C1.49326 159.293 1.69064 159.055 1.92841 158.863C2.16618 158.67 2.43965 158.526 2.73312 158.44C3.02659 158.353 3.33421 158.326 3.63839 158.359L47.1203 162.883C47.4249 162.913 47.7207 163.004 47.9902 163.149C48.2596 163.294 48.4977 163.492 48.6904 163.73C48.883 163.968 49.0265 164.241 49.1127 164.535C49.1988 164.829 49.2259 165.137 49.1922 165.441V165.61C49.1922 165.61 49.192 165.866 49.1483 166.078L49.0673 166.964C49.0361 167.295 49.0112 167.682 48.9737 168.156L48.8552 169.691L48.7428 171.563C48.6866 172.455 48.6429 173.472 48.5993 174.552C48.5993 175.033 48.5618 175.526 48.5368 176.025C48.2747 184.169 48.4309 192.321 49.0048 200.449C49.3044 204.755 49.7287 209.136 50.2529 213.46C50.2559 213.479 50.2559 213.498 50.2529 213.516C50.4026 214.951 50.6212 216.368 50.8333 217.741C50.9207 218.309 51.008 218.87 51.0829 219.419L51.4948 222.153C51.5884 222.696 51.6882 223.226 51.7819 223.744C51.8443 224.062 51.9003 224.368 51.9564 224.674L52.774 229.135C52.9424 229.947 53.1111 230.708 53.2609 231.382C53.3482 231.781 53.4355 232.162 53.5104 232.518L54.1344 235.494C54.275 236.046 54.2084 236.63 53.9474 237.136C53.6863 237.642 53.2489 238.035 52.7179 238.24Z" fill="#2563EB"/>
<path d="M29.7038 237.579L29.6038 237.61C29.3417 237.673 29.0654 237.633 28.8326 237.497C28.5999 237.36 28.4289 237.139 28.3558 236.88C28.2934 236.649 26.7958 231.052 25.5291 220.331C24.3621 210.465 23.2015 194.228 24.281 172.905C24.28 172.764 24.3077 172.624 24.3627 172.494C24.4177 172.364 24.4987 172.247 24.6006 172.149C24.7026 172.052 24.8237 171.976 24.9559 171.927C25.0882 171.878 25.2291 171.856 25.37 171.863C25.5109 171.87 25.6487 171.906 25.7753 171.969C25.9018 172.031 26.0144 172.119 26.1059 172.226C26.1973 172.334 26.2656 172.459 26.307 172.594C26.3484 172.729 26.362 172.871 26.3466 173.011C25.2795 194.172 26.4339 210.284 27.5946 220.069C28.8427 230.64 30.3526 236.293 30.3714 236.293C30.4485 236.552 30.4219 236.831 30.2973 237.071C30.1727 237.311 29.96 237.493 29.7038 237.579Z" fill="black"/>
<path d="M12.6424 223.725C12.4212 223.81 12.178 223.816 11.9529 223.742C11.7277 223.669 11.5344 223.521 11.4053 223.322C11.2762 223.124 11.2191 222.887 11.2432 222.652C11.2674 222.416 11.3714 222.196 11.5382 222.028C15.5569 217.972 21.5535 214.452 29.36 211.576C32.7906 210.293 36.3063 209.251 39.8813 208.455C40.0172 208.421 40.1585 208.415 40.2969 208.437C40.4353 208.458 40.5677 208.508 40.6863 208.583C40.8049 208.658 40.9074 208.755 40.9871 208.871C41.0668 208.986 41.1222 209.116 41.1501 209.254C41.178 209.391 41.1776 209.532 41.1492 209.67C41.1208 209.807 41.0647 209.937 40.9846 210.052C40.9045 210.167 40.8022 210.264 40.6833 210.339C40.5644 210.413 40.4315 210.462 40.293 210.483C40.1182 210.521 22.1091 214.29 13.0108 223.482C12.9053 223.587 12.78 223.669 12.6424 223.725Z" fill="black"/>
<path d="M39.8439 206.371C39.6589 206.442 39.457 206.458 39.2635 206.415C39.1012 206.384 22.8019 203.083 10.7332 208.643C10.4898 208.73 10.2224 208.723 9.98396 208.623C9.74554 208.523 9.55331 208.337 9.44464 208.103C9.33597 207.868 9.31888 207.602 9.3968 207.355C9.47472 207.109 9.64199 206.9 9.86574 206.771C22.5771 200.917 38.9952 204.275 39.6879 204.393C39.908 204.438 40.1072 204.554 40.2559 204.722C40.4046 204.891 40.4945 205.103 40.5121 205.327C40.5297 205.551 40.4742 205.774 40.3537 205.964C40.2331 206.153 40.0542 206.298 39.8439 206.378V206.371Z" fill="black"/>
<mask id="mask0_7368_167478" style="mask-type:alpha" maskUnits="userSpaceOnUse" x="55" y="46" width="150" height="151">
<path d="M204.886 121.242C204.886 136.052 200.494 150.53 192.266 162.845C184.038 175.159 172.343 184.757 158.66 190.425C144.977 196.092 129.92 197.575 115.394 194.686C100.868 191.797 87.5254 184.665 77.0528 174.192C66.5802 163.72 59.4484 150.377 56.559 135.851C53.6696 121.325 55.1525 106.268 60.8202 92.5854C66.488 78.9023 76.086 67.2072 88.4004 58.9789C100.715 50.7507 115.193 46.3589 130.003 46.3589C149.863 46.3589 168.91 54.2483 182.953 68.2916C196.997 82.3348 204.886 101.382 204.886 121.242Z" fill="white"/>
</mask>
<g mask="url(#mask0_7368_167478)">
<g clip-path="url(#clip1_7368_167478)">
<rect x="49" y="43" width="159" height="159" rx="42.5" fill="#2563EB"/>
<g clip-path="url(#clip2_7368_167478)">
<path d="M64.458 187.386C64.458 187.386 58.5419 365.433 58.5419 367.931C58.5419 369.67 48.5728 398.943 18.4024 413.949C12.8608 416.709 7.01849 418.817 0.992027 420.233C-3.38229 421.265 -7.82676 421.971 -12.3052 422.348C-19.1711 422.906 -26.0744 422.815 -32.9234 422.078C-103.891 414.761 -115.937 295.57 -115.937 295.57L-25.9104 286.469C-25.9104 286.469 -14.4237 277.454 1.07843 244.977C2.56399 241.872 4.20634 238.844 5.99915 235.906C6.37477 235.32 6.70156 234.752 7.07719 234.181C28.5931 200.382 64.458 187.386 64.458 187.386Z" fill="black"/>
<path d="M116.764 136.458L119.548 195.957L150.743 194.5L148.486 146.175L140.47 143.715L116.764 136.458Z" fill="white"/>
<path d="M118.473 148.058C118.473 148.058 121.305 155.51 129.678 160.404C134.832 163.409 143.381 162.256 149.177 160.923L148.486 146.179L140.47 143.715C130.189 145.605 118.473 148.058 118.473 148.058Z" fill="#CCF2FF"/>
<path d="M135.808 78.7918C141.724 79.7647 146.638 83.7351 150.972 87.7731C155.675 92.1491 158.109 97.5394 159.165 104.008C159.991 109.094 159.894 114.289 159.54 119.427C159.101 126.188 157.493 131.132 155.213 137.48C152.933 143.828 148.452 148.891 143.062 152.719C132.522 160.179 119.638 154.774 112.85 144.97C104.263 132.574 102.223 119.728 103.215 104.579C103.534 99.6579 104.282 94.5682 106.949 90.4926C110.386 85.2338 116.418 82.5331 122.282 80.6174C126.609 79.205 131.166 78.0669 135.666 78.773L135.808 78.7918Z" fill="white"/>
<path d="M100.274 89.4146C100.274 89.4146 98.8991 96.9272 99.5226 102.299C100.146 107.67 101.22 111.532 102.993 112.155C104.004 112.512 105.071 105.792 105.803 99.9322C106.133 97.2904 107.196 94.7936 108.871 92.7239C110.545 90.6543 112.765 89.0942 115.28 88.2201C119.45 86.7777 124.434 85.324 128.536 84.9221C132.724 84.5052 138.302 85.4517 143.001 86.5598C145.705 87.203 148.163 88.6186 150.075 90.6341C151.988 92.6497 153.273 95.1781 153.774 97.9113C154.807 103.463 156.332 109.65 158.034 109.785C161.125 110.037 161.077 111.317 161.077 111.317L159.803 92.2919C159.803 92.2919 140.132 74.1754 133.825 74.7989C127.518 75.4225 100.274 89.4146 100.274 89.4146Z" fill="#082658"/>
<path d="M130.984 117.741C131.36 116.87 132.81 117.313 132.415 118.196C131.769 119.642 131.172 121.11 130.657 122.609C130.353 123.503 129.857 124.645 130.109 125.588C130.361 126.531 131.285 127.188 131.987 127.718C132.738 128.296 131.953 129.566 131.183 128.984C129.869 127.988 128.554 126.861 128.554 125.073C128.531 122.639 130.023 119.908 130.984 117.741Z" fill="#2563EB"/>
<path d="M142.988 99.1672C141.042 98.3657 138.516 98.3038 137.723 100.671C137.2 102.233 138.733 102.788 139.926 103.206C142.299 104.028 144.152 105.879 146.478 106.676C146.869 106.832 147.293 106.887 147.71 106.835C149.029 106.594 148.707 105.301 148.205 104.431C147.463 103.047 146.513 101.786 145.386 100.693C144.682 100.048 143.871 99.5312 142.988 99.1672Z" fill="#082658"/>
<path d="M116.633 100.317C114.4 101.419 112.903 103.643 111.965 105.882C111.751 106.268 111.685 106.719 111.78 107.149C111.866 107.346 112.003 107.516 112.178 107.64C112.352 107.765 112.557 107.841 112.771 107.858C113.2 107.89 113.629 107.812 114.02 107.633C116.091 106.802 117.839 105.108 119.852 104.085C120.792 103.609 122.709 103.188 122.676 101.807C122.623 99.4719 119.872 99.3856 117.908 99.8677C117.468 99.9717 117.04 100.122 116.633 100.317Z" fill="#082658"/>
<path d="M154.995 112.091C154.995 112.091 157.951 105.912 163.323 108.012C170.862 110.953 166.651 126.763 158.534 128.916C150.416 131.068 154.995 112.091 154.995 112.091Z" fill="white"/>
<path d="M130.425 138.046C131.645 138.442 132.941 138.546 134.209 138.349C135.477 138.152 136.68 137.66 137.723 136.912C138.766 136.164 139.618 135.182 140.211 134.045C140.805 132.907 141.123 131.646 141.139 130.364C141.173 129.416 142.668 129.272 142.627 130.224C142.405 137.021 136.327 141.378 129.806 139.416C128.889 139.134 129.512 137.771 130.425 138.046Z" fill="#2563EB"/>
<path d="M159.661 115.009C160.421 116.384 160.802 117.936 160.765 119.507C160.727 121.077 160.272 122.609 159.447 123.946C158.943 124.768 157.644 124.017 158.147 123.194C158.846 122.089 159.234 120.816 159.273 119.509C159.311 118.202 158.997 116.909 158.365 115.764C157.907 114.916 159.21 114.157 159.661 115.009Z" fill="#2563EB"/>
<path d="M108.402 114.3C108.402 114.3 104.744 108.504 99.6615 111.212C92.5246 115.01 98.5347 130.223 106.844 131.421C115.152 132.619 108.402 114.3 108.402 114.3Z" fill="white"/>
<path d="M104.109 117.737C103.513 119.191 103.315 120.778 103.536 122.334C103.756 123.89 104.387 125.359 105.364 126.59C105.957 127.342 107.163 126.451 106.562 125.689C105.74 124.673 105.206 123.454 105.017 122.161C104.827 120.868 104.988 119.547 105.484 118.338C105.844 117.44 104.47 116.839 104.109 117.737Z" fill="#2563EB"/>
<path d="M160.246 92.2727C160.246 92.2727 131.833 81.0264 130.947 81.1466C130.244 81.2518 111.918 86.304 104.153 88.4488C102.054 89.0198 100.72 89.3954 100.72 89.3954C98.4883 86.2484 96.5744 82.8876 95.0068 79.3624C94.6312 78.5849 94.3157 77.7735 94.0001 76.9359C93.8949 76.6654 93.7898 76.3799 93.6996 76.0945C93.3879 75.208 93.1024 74.3252 92.862 73.4087C90.2965 63.7701 93.2827 54.8339 104.183 53.3765C110.449 52.5389 115.324 55.2058 117.42 56.6633C117.813 56.9193 118.189 57.1991 118.547 57.5009C118.654 57.1894 118.78 56.8846 118.923 56.5881C120.016 54.3344 123.555 48.9404 131.818 50.1837C137.934 51.1152 140.92 55.8819 142.208 58.8494C142.551 59.6351 142.827 60.448 143.035 61.2797C143.128 60.4407 143.349 59.621 143.692 58.8494V58.8193C144.398 57.3168 145.717 55.6866 148.297 55.4162C154.085 54.8189 157.579 59.4955 158.439 66.2117C159.84 76.9058 160.246 92.2727 160.246 92.2727Z" fill="#082658"/>
<path d="M103.745 87.5364C103.745 87.8369 103.745 88.1487 103.715 88.4642C103.309 94.2376 99.455 101.555 99.455 101.555C99.455 101.555 86.2742 97.0473 84.3698 87.5364C83.3518 82.4842 87.4762 78.1044 92.1378 77.1278C92.6059 77.0256 93.0824 76.9665 93.5614 76.9512C93.7254 76.9262 93.8914 76.9162 94.0572 76.9212H94.1323C99.455 76.9512 103.745 81.7029 103.745 87.5364Z" fill="#082658"/>
<path d="M99.5451 84.1181C97.8961 82.5292 96.247 80.9365 94.568 79.3777C93.7717 78.6264 92.9616 77.8752 92.1377 77.1239C92.6059 77.0217 93.0824 76.9626 93.5613 76.9474C93.4561 76.6769 93.351 76.3914 93.2608 76.106C93.5613 76.3764 93.8468 76.6469 94.1323 76.9173C96.3222 78.9232 98.482 80.9778 100.608 83.0476C101.299 83.7124 100.236 84.7905 99.5451 84.1181Z" fill="black"/>
<path d="M120.791 67.1849C120.971 68.1277 119.502 68.3982 119.288 67.4554C118.569 63.8568 117.794 60.2684 116.963 56.6899C117.355 56.946 117.731 57.2257 118.09 57.5275C118.197 57.216 118.322 56.9112 118.465 56.6147C119.322 60.1118 120.073 63.6352 120.791 67.1849Z" fill="black"/>
<path d="M143.434 68.3118C143.434 69.2734 141.931 69.2584 141.931 68.2817C141.931 65.134 141.886 62.0012 141.811 58.8647C142.154 59.6504 142.43 60.4634 142.637 61.2951C142.731 60.456 142.952 59.6363 143.295 58.8647C143.387 62.0175 143.434 65.1665 143.434 68.3118Z" fill="black"/>
<path d="M222.98 421.402C222.98 421.402 154.349 422.078 107.895 422.063V410.907H63.947C60.4987 381.983 57.6514 301.299 55.8071 269.96C53.5533 231.721 77.5484 182.735 77.5484 182.735L114.585 166.317L116.054 165.671L118.109 164.758C118.109 164.758 124.374 170.392 128.213 172.571C128.589 172.778 128.904 172.947 129.205 173.078C129.446 173.195 129.698 173.291 129.956 173.364C130.137 173.41 130.325 173.43 130.512 173.424C130.552 173.43 130.592 173.43 130.632 173.424H130.662C131.233 173.277 131.789 173.081 132.326 172.838C137.318 170.697 149.301 163.515 149.301 163.515C149.301 163.515 150.078 163.751 151.446 164.157C151.866 164.277 152.343 164.427 152.884 164.593C162.557 167.485 188.528 175.268 190.357 175.884C192.614 176.632 222.98 421.402 222.98 421.402Z" fill="#082658"/>
<path d="M124.555 338.677L124.6 343.447H123.097L123.052 338.692C122.496 280.334 122.586 227.465 129.186 173.093C129.428 173.21 129.679 173.305 129.937 173.378C130.119 173.425 130.306 173.445 130.493 173.438C130.533 173.445 130.574 173.445 130.613 173.438H130.643C124.093 227.645 124.002 280.425 124.555 338.677Z" fill="black"/>
<path d="M93.9821 175.463C93.9821 175.463 82.6758 221.707 79.6482 255.205C79.5881 255.742 79.543 256.283 79.4979 256.824C79.2876 259.296 79.1223 261.681 79.0322 263.961C78.2809 280.921 77.9053 353.702 77.6987 421.462C77.6987 422.048 77.6987 422.634 77.6987 423.216C77.5485 480.048 77.5184 553.953 77.5184 566.863C77.5184 567.66 77.2018 568.425 76.6383 568.988C76.0747 569.552 75.3104 569.868 74.5134 569.868H18.1242C17.7248 569.868 17.3294 569.789 16.961 569.634C16.5927 569.48 16.2589 569.253 15.9792 568.968C15.6994 568.683 15.4792 568.345 15.3315 567.974C15.1839 567.603 15.1117 567.206 15.1192 566.807C15.7052 541.858 19.6906 350.949 21.5499 313.461C23.5445 272.976 27.759 214.919 34.295 207.256C43.0696 196.938 63.669 187.284 78.202 181.376L80.1478 180.579C88.2163 177.368 93.9821 175.463 93.9821 175.463Z" fill="#082658"/>
<path d="M281.863 327.119C281.863 328.513 281.863 329.891 281.863 331.285C281.713 360.749 280.902 391.28 280.56 416.86C279.989 459.881 279.478 523.891 278.997 566.908C278.989 567.696 278.671 568.448 278.113 569.004C277.556 569.559 276.802 569.874 276.015 569.88H179.392C178.604 569.88 177.847 569.57 177.285 569.017C176.722 568.464 176.4 567.712 176.387 566.923C176.252 556.443 175.775 498.251 175.174 454.017C175.174 453.506 175.174 453.011 175.174 452.515C174.498 404.235 173.672 347.899 172.92 308.781C172.92 307.308 172.875 305.885 172.845 304.476C172.545 288.373 172.244 275.553 172.007 267.995C171.902 264.682 171.827 261.335 171.797 257.977C171.797 257.421 171.797 256.85 171.797 256.298C171.482 214.228 176.444 171.669 176.444 171.669C178.078 171.97 179.697 172.346 181.327 172.706C182.164 172.898 183.006 173.082 183.859 173.288C184.384 173.409 184.925 173.529 185.462 173.664C207.249 178.821 229.952 186.379 248.034 199.605C256.896 206.081 263.36 213.458 268.097 221.572C268.367 222.022 268.623 222.484 268.878 222.95C277.679 238.787 280.147 257.305 281.052 277.202C281.728 292.479 281.924 309.559 281.863 327.119Z" fill="#082658"/>
<path d="M128.198 172.586C128.747 172.924 129.336 173.19 129.952 173.379L116.49 180.29C116.38 180.353 116.256 180.386 116.129 180.386C116.003 180.386 115.878 180.353 115.769 180.29C115.662 180.229 115.572 180.143 115.506 180.038C115.441 179.934 115.402 179.816 115.393 179.693L114.57 166.351L116.039 165.705L116.82 178.476L128.198 172.586Z" fill="black"/>
<path d="M152.881 164.592L144.065 182.961C144.012 183.06 143.939 183.147 143.851 183.217C143.763 183.286 143.662 183.337 143.554 183.366C143.499 183.373 143.443 183.373 143.388 183.366C143.218 183.369 143.053 183.31 142.923 183.201L130.628 173.408C131.213 173.274 131.78 173.078 132.323 172.822L143.118 181.462L151.442 164.157C151.863 164.277 152.34 164.427 152.881 164.592Z" fill="black"/>
<path d="M134.933 182.254C134.933 183.757 134.009 185.004 132.871 185.004C131.733 185.004 130.809 183.776 130.809 182.254C130.809 180.733 131.733 179.505 132.871 179.505C134.009 179.505 134.933 180.737 134.933 182.254Z" fill="white"/>
<path d="M138.58 114.996C140.078 114.118 141.784 113.602 143.541 113.498C145.298 113.393 147.049 113.702 148.633 114.397C149.726 114.865 148.923 116.46 147.801 115.99C146.521 115.417 145.102 115.156 143.676 115.231C142.25 115.306 140.863 115.714 139.642 116.417C138.621 117.009 137.53 115.591 138.58 114.996Z" fill="#082658"/>
<path d="M114.556 114.066C116.152 113.383 117.91 113.086 119.666 113.203C121.422 113.32 123.121 113.846 124.605 114.734C125.63 115.337 124.633 116.818 123.579 116.21C122.381 115.482 121.007 115.045 119.582 114.94C118.158 114.834 116.73 115.065 115.431 115.609C114.344 116.068 113.44 114.524 114.556 114.066Z" fill="#082658"/>
</g>
</g>
</g>
<path d="M130.003 197.81C114.859 197.81 100.056 193.319 87.4641 184.906C74.8726 176.492 65.0588 164.534 59.2635 150.543C53.4683 136.552 51.9519 121.157 54.9063 106.304C57.8607 91.4514 65.1529 77.8083 75.8611 67.1001C86.5693 56.3919 100.213 49.0995 115.065 46.1451C129.918 43.1907 145.313 44.707 159.304 50.5022C173.295 56.2975 185.253 66.1114 193.667 78.7029C202.08 91.2945 206.571 106.098 206.571 121.242C206.547 141.542 198.473 161.004 184.119 175.358C169.765 189.712 150.303 197.786 130.003 197.81ZM130.003 48.0436C115.526 48.0436 101.374 52.3366 89.3362 60.3798C77.2988 68.4229 67.9168 79.8548 62.3766 93.23C56.8364 106.605 55.3867 121.323 58.2111 135.522C61.0354 149.721 68.0069 162.764 78.2439 173.001C88.4808 183.238 101.523 190.209 115.723 193.033C129.922 195.858 144.639 194.408 158.015 188.868C171.39 183.328 182.822 173.946 190.865 161.908C198.908 149.871 203.201 135.719 203.201 121.242C203.179 101.835 195.461 83.2292 181.738 69.5066C168.016 55.7839 149.41 48.0651 130.003 48.0436Z" fill="black"/>
<ellipse cx="115.5" cy="126.5" rx="4.5" ry="1.5" fill="#CCF2FF"/>
<ellipse cx="150.5" cy="126.5" rx="4.5" ry="1.5" fill="#CCF2FF"/>
<path d="M254.034 15.1064L240.261 22.4786C240.12 22.5551 239.961 22.5911 239.801 22.5827C239.593 22.5853 239.391 22.5166 239.227 22.3881C239.064 22.2595 238.949 22.0789 238.903 21.8763C238.856 21.6736 238.88 21.461 238.971 21.274C239.062 21.087 239.214 20.9366 239.402 20.8481L253.175 13.4759C253.388 13.3609 253.638 13.3351 253.869 13.4043C254.101 13.4734 254.296 13.6318 254.411 13.8445C254.526 14.0573 254.552 14.307 254.483 14.5388C254.414 14.7706 254.255 14.9654 254.042 15.0805L254.034 15.1064Z" fill="#2563EB"/>
<path d="M242.872 38.6495C242.884 38.4106 242.99 38.186 243.166 38.0239C243.342 37.8618 243.574 37.775 243.813 37.7821L259.425 38.2939C259.664 38.304 259.889 38.4082 260.051 38.5836C260.214 38.7591 260.3 38.9916 260.292 39.2305C260.279 39.469 260.173 39.6929 259.997 39.8548C259.822 40.0167 259.59 40.1039 259.351 40.0979L243.739 39.5862C243.501 39.576 243.275 39.4718 243.113 39.2964C242.95 39.121 242.864 38.8884 242.872 38.6495Z" fill="#2563EB"/>
<path d="M239.211 54.6256L252.476 62.8651C252.648 62.9703 252.781 63.1296 252.852 63.3181C252.924 63.5065 252.931 63.7135 252.873 63.9065C252.814 64.0994 252.693 64.2675 252.529 64.3843C252.365 64.5012 252.166 64.5602 251.965 64.552C251.811 64.5438 251.661 64.496 251.531 64.4133L238.265 56.1738C238.16 56.1124 238.069 56.0307 237.996 55.9334C237.923 55.8361 237.871 55.7253 237.841 55.6074C237.812 55.4894 237.807 55.3669 237.825 55.2468C237.844 55.1268 237.887 55.0117 237.951 54.9084C238.015 54.8051 238.099 54.7156 238.198 54.6452C238.297 54.5749 238.409 54.5251 238.528 54.4987C238.646 54.4724 238.769 54.47 238.888 54.4918C239.008 54.5136 239.122 54.5591 239.224 54.6256H239.211Z" fill="#2563EB"/>
<path d="M230.691 19.4475C228.053 14.7692 224.459 10.6994 220.143 7.50346C215.827 4.30749 210.885 2.05714 205.641 0.899075C200.397 -0.25899 194.967 -0.29877 189.706 0.782402C184.446 1.86357 179.472 4.04137 175.109 7.17382C170.747 10.3063 167.093 14.323 164.387 18.9622C161.681 23.6014 159.983 28.7588 159.405 34.0982C158.826 39.4376 159.378 44.839 161.027 49.9504C162.676 55.0618 165.383 59.7683 168.973 63.763L159.06 83.8847L180.27 72.3624C187.586 76.0214 195.883 77.2367 203.941 75.8299C211.999 74.4231 219.393 70.4682 225.036 64.5468C230.68 58.6253 234.275 51.0495 235.292 42.9331C236.31 34.8167 234.698 26.5879 230.691 19.4562V19.4475Z" fill="#2563EB"/>
<path d="M159.059 84.9124C159.23 84.9129 159.399 84.8696 159.549 84.7866L180.295 73.5115C185.992 76.2679 192.271 77.605 198.597 77.4087C204.923 77.2124 211.107 75.4884 216.622 72.384C216.749 72.3227 216.862 72.2361 216.954 72.1294C217.047 72.0227 217.116 71.8983 217.158 71.7637C217.201 71.6292 217.215 71.4875 217.2 71.3472C217.185 71.207 217.142 71.0713 217.073 70.9484C217.004 70.8255 216.91 70.7181 216.798 70.6328C216.686 70.5475 216.557 70.4861 216.42 70.4524C216.283 70.4187 216.141 70.4134 216.002 70.4369C215.863 70.4603 215.73 70.512 215.612 70.5887C210.312 73.5757 204.36 75.2168 198.278 75.368C192.196 75.5193 186.17 74.176 180.729 71.456C180.582 71.3793 180.419 71.3392 180.254 71.3392C180.088 71.3392 179.925 71.3793 179.779 71.456L161.413 81.4301L169.896 64.2139C169.988 64.0294 170.022 63.8216 169.994 63.6175C169.966 63.4133 169.877 63.2222 169.739 63.069C165.91 58.811 163.114 53.7268 161.57 48.2121C160.026 42.6974 159.775 36.9009 160.837 31.2733C160.967 30.5968 161.114 29.9203 161.27 29.2611C161.328 28.9981 161.281 28.7228 161.139 28.494C160.997 28.2652 160.771 28.1009 160.51 28.0364C160.248 27.9719 159.972 28.0121 159.74 28.1486C159.507 28.285 159.338 28.5069 159.267 28.7667C159.098 29.4649 158.941 30.1761 158.807 30.8873C157.086 39.9672 158.622 49.3631 163.144 57.4229C164.447 59.7385 165.98 61.9177 167.719 63.9277L158.104 83.4423C158.009 83.6386 157.978 83.8603 158.016 84.0753C158.054 84.2904 158.16 84.4879 158.317 84.6392C158.416 84.7318 158.533 84.8037 158.66 84.8506C158.788 84.8975 158.923 84.9186 159.059 84.9124Z" fill="black"/>
<path d="M194.497 61.7031H194.458C193.934 61.6963 193.419 61.563 192.958 61.3146C192.496 61.0662 192.102 60.71 191.808 60.2764L176.817 38.1988C176.576 37.8455 176.408 37.4483 176.322 37.03C176.235 36.6117 176.232 36.1804 176.312 35.7608C176.392 35.3412 176.554 34.9415 176.789 34.5845C177.023 34.2275 177.326 33.9202 177.679 33.6801C178.033 33.4401 178.43 33.272 178.848 33.1855C179.267 33.0989 179.698 33.0956 180.117 33.1758C180.537 33.2559 180.937 33.4179 181.294 33.6525C181.651 33.8871 181.958 34.1898 182.198 34.5431L194.562 52.7567L217.641 20.3972C217.886 20.0424 218.199 19.7397 218.562 19.5071C218.926 19.2744 219.331 19.1163 219.756 19.0419C220.181 18.9675 220.616 18.9784 221.037 19.0738C221.457 19.1692 221.855 19.3474 222.206 19.5978C222.557 19.8483 222.855 20.1661 223.082 20.5327C223.309 20.8993 223.461 21.3074 223.529 21.7333C223.597 22.1592 223.579 22.5943 223.478 23.0134C223.376 23.4325 223.192 23.8271 222.936 24.1743L197.146 60.3371C196.846 60.7595 196.448 61.1039 195.987 61.3415C195.526 61.5791 195.015 61.7031 194.497 61.7031Z" fill="white"/>
</g>
<defs>
<clipPath id="clip0_7368_167478">
<rect width="260" height="260" fill="white"/>
</clipPath>
<clipPath id="clip1_7368_167478">
<rect x="49" y="43" width="159" height="159" rx="42.5" fill="white"/>
</clipPath>
<clipPath id="clip2_7368_167478">
<rect width="421.871" height="564.756" fill="white" transform="translate(-140 50)"/>
</clipPath>
</defs>
</svg>
