<svg width="78" height="128" viewBox="0 0 78 128" fill="none" xmlns="http://www.w3.org/2000/svg">
<g id="Group">
<g id="Group_2">
<path id="Vector" d="M22.7108 44.2021C22.6721 44.265 22.6334 44.3269 22.5948 44.3899C22.4987 44.5335 22.4434 44.6904 22.4302 44.8594C22.3871 45.0295 22.3893 45.1997 22.4368 45.3731C22.4721 45.5488 22.5462 45.7023 22.6622 45.8349C22.7505 45.9796 22.8699 46.0945 23.0201 46.1796C23.1206 46.2249 23.2223 46.2713 23.3228 46.3166C23.5471 46.384 23.7736 46.3906 24.0022 46.3376C24.1105 46.2956 24.2188 46.2536 24.3281 46.2127C24.5281 46.1012 24.6883 45.9487 24.8087 45.7543C24.8474 45.6913 24.886 45.6294 24.9247 45.5665C25.0208 45.4228 25.0761 45.266 25.0893 45.0969C25.1324 44.9268 25.1302 44.7567 25.0827 44.5832C25.0473 44.4076 24.9733 44.254 24.8573 44.1214C24.7689 43.9767 24.6496 43.8618 24.4994 43.7767C24.3988 43.7314 24.2972 43.685 24.1967 43.6397C23.9724 43.5724 23.7459 43.5657 23.5172 43.6187C23.409 43.6607 23.3007 43.7027 23.1913 43.7436C22.9914 43.8552 22.8312 44.0076 22.7108 44.2021Z" fill="#3B82F6"/>
<path id="Vector_2" d="M17.4319 31.5571C17.5601 31.1759 17.5943 30.755 17.5567 30.3772C17.3943 28.7565 18.0892 26.8176 20.0601 26.9303C21.9371 27.1148 21.8443 29.4216 21.5902 30.8832C21.5538 31.0743 21.5129 31.2643 21.4698 31.4532C21.1671 32.7811 20.7274 34.0914 20.5297 35.4381C20.206 37.6443 20.5518 39.9334 21.8322 41.7905C22.2862 42.3329 22.7414 41.986 23.0883 41.5541C23.349 41.2293 23.2839 40.6448 23.2408 40.2549C22.6365 38.348 22.7248 36.4644 23.3004 34.7299C24.0981 32.3282 25.1233 29.6569 24.2969 27.1214C23.8086 25.6256 22.6133 24.4578 21.1682 23.8712C19.4481 23.173 18.0395 23.5597 16.3702 24.1761C16.1802 24.2789 15.9946 24.3938 15.8156 24.5197C13.6304 26.0653 11.9854 30.5473 14.6976 32.3867C15.3527 32.8309 16.3073 32.8938 16.906 32.3757C17.1535 32.1614 17.3247 31.873 17.4308 31.556L17.4319 31.5571Z" fill="#3B82F6"/>
</g>
<g id="Group_3">
<path id="Vector_3" d="M15.1731 49.2861C15.1731 49.328 15.1753 49.3711 15.1764 49.4131C15.1753 49.5125 15.1974 49.6053 15.2438 49.6915C15.2758 49.7876 15.3311 49.8694 15.4084 49.9379C15.4802 50.0119 15.5653 50.0627 15.6625 50.0903C15.7509 50.1323 15.8448 50.1511 15.9442 50.1445C16.0072 50.1345 16.0702 50.1246 16.1342 50.1157C16.2646 50.0782 16.3762 50.0097 16.4701 49.9125C16.5099 49.8583 16.5485 49.8042 16.5883 49.7501C16.6502 49.633 16.68 49.5092 16.6767 49.3778C16.6767 49.3358 16.6745 49.2927 16.6734 49.2507C16.6745 49.1513 16.6524 49.0574 16.606 48.9723C16.5739 48.8762 16.5187 48.7945 16.4414 48.726C16.3696 48.6519 16.2845 48.6011 16.1873 48.5735C16.0989 48.5315 16.005 48.5127 15.9056 48.5194C15.8426 48.5293 15.7796 48.5392 15.7155 48.5481C15.5852 48.5856 15.4736 48.6541 15.3797 48.7514C15.3399 48.8055 15.3013 48.8596 15.2615 48.9138C15.1996 49.0309 15.1698 49.1546 15.1731 49.2861Z" fill="#BFDBFE"/>
<path id="Vector_4" d="M8.64537 44.8295C8.58793 44.6052 8.47193 44.3909 8.33494 44.2197C7.7472 43.4872 7.47321 42.3305 8.46198 41.7649C9.42754 41.2644 10.1081 42.409 10.445 43.1956C10.487 43.2994 10.5279 43.4044 10.5666 43.5093C10.8372 44.2473 11.0372 45.0184 11.3642 45.7321C11.9011 46.9009 12.7882 47.8996 13.9913 48.3957C14.3813 48.515 14.4929 48.2046 14.5249 47.8864C14.5492 47.6478 14.3338 47.3848 14.1902 47.2103C13.2986 46.4778 12.7485 45.5388 12.4822 44.5191C12.1132 43.1061 11.7685 41.492 10.5721 40.5264C9.86614 39.9564 8.92046 39.7675 8.03665 39.9387C6.98491 40.142 6.4259 40.7717 5.81165 41.5948C5.75199 41.7041 5.69896 41.8179 5.65146 41.935C5.08029 43.3701 5.69454 46.0547 7.58369 46.0911C8.03996 46.1 8.52164 45.8304 8.64869 45.3918C8.70171 45.2106 8.69288 45.0173 8.64537 44.8306V44.8295Z" fill="#BFDBFE"/>
</g>
<g id="Group_4">
<path id="Vector_5" opacity="0.05" d="M22.6036 125.936C22.4268 127.326 24.6827 127.541 25.55 127.713C28.6279 128.323 31.7566 127.831 34.8289 127.431C35.1769 127.36 35.5249 127.293 35.874 127.235C39.0823 126.709 42.2242 127.635 45.4247 127.74C48.0839 127.827 50.7596 127.782 53.4111 127.415C53.8331 127.357 54.5644 127.297 54.8318 126.742C55.1003 126.184 54.8218 125.758 54.4308 125.569C52.5383 124.655 50.4823 124.654 48.507 124.558C44.4846 124.363 40.5151 125.656 36.5059 125.334C35.6133 125.262 34.7317 125.068 33.849 124.884C33.5551 124.823 33.2601 124.764 32.9652 124.711C31.2804 124.406 29.5614 124.354 27.8578 124.46C26.9884 124.514 26.12 124.596 25.2572 124.72C24.5458 124.822 23.5879 124.837 22.9847 125.287C22.7582 125.456 22.6367 125.692 22.6058 125.937L22.6036 125.936Z" fill="black"/>
<g id="Group_5">
<path id="Vector_6" d="M46.0221 109.055C45.9912 109.508 45.9625 109.964 45.905 110.421V110.392C45.905 110.449 45.905 110.534 45.8929 110.602C45.8399 111.138 45.7824 111.671 45.7183 112.204C45.5891 113.283 45.4388 114.357 45.2742 115.426C44.9461 117.553 44.5583 119.66 44.1628 121.762C43.9386 122.953 43.711 124.143 43.4889 125.335C43.416 125.727 43.5806 126.197 43.8667 126.291C44.1507 126.383 44.4545 126.168 44.5329 125.748C45.325 121.493 46.1923 117.255 46.727 112.912C46.8054 112.277 46.8761 111.638 46.9391 110.998C47.0021 110.359 47.0573 109.716 47.1048 109.066C47.1346 108.656 46.8353 108.254 46.5635 108.267C46.2453 108.283 46.0542 108.611 46.0221 109.056V109.055Z" fill="black"/>
<g id="Group_6">
<path id="Vector_7" d="M43.9805 125.881C44.1031 125.951 44.2301 126.017 44.3627 126.075C44.4942 126.134 44.6312 126.187 44.7704 126.233C45.2753 126.34 45.937 126.494 46.5424 126.471C46.6938 126.465 46.8418 126.449 46.9821 126.418C47.0849 126.397 47.1976 126.368 47.3102 126.329C47.4218 126.291 47.5323 126.242 47.6295 126.182C47.9488 126.017 47.9488 125.646 47.8162 125.355C47.6306 125.038 47.4196 124.773 47.1025 124.618C47.0186 124.575 46.9324 124.539 46.8451 124.51C46.053 124.246 45.1272 124.51 44.5163 125.154C44.4622 125.207 44.4102 125.262 44.3594 125.319C44.2986 125.469 44.1396 125.548 44.0777 125.697C44.0423 125.757 44.0103 125.818 43.9816 125.881H43.9805Z" fill="black"/>
<path id="Vector_8" d="M43.747 126.281C44.0906 126.477 44.4607 126.64 44.8484 126.723C45.2362 126.805 45.6262 126.878 46.0217 126.916C46.4305 126.955 46.8436 126.935 47.2425 126.833C47.6159 126.737 48.0523 126.563 48.2434 126.203C48.619 125.495 48.0434 124.646 47.4413 124.278C46.8227 123.901 46.0129 123.856 45.3367 124.094C44.9412 124.235 44.58 124.45 44.2751 124.74C44.2121 124.799 44.1513 124.862 44.0917 124.925C44.0442 124.976 43.9945 125.028 43.958 125.086C43.9492 125.109 43.937 125.131 43.9238 125.15C43.9602 125.105 43.9613 125.102 43.9282 125.142C43.7779 125.287 43.6697 125.459 43.5802 125.647C43.4763 125.865 43.5128 126.157 43.7459 126.28C43.9525 126.389 44.2684 126.347 44.3789 126.114C44.4087 126.051 44.4419 125.991 44.475 125.93C44.4872 125.909 44.5513 125.821 44.4817 125.903C44.4971 125.884 44.5148 125.866 44.5314 125.849C44.5921 125.784 44.6507 125.721 44.7015 125.647C44.7015 125.647 44.7579 125.547 44.728 125.599C44.7048 125.623 44.7103 125.617 44.7457 125.579C44.7667 125.557 44.7877 125.535 44.8087 125.514C44.8573 125.463 44.907 125.413 44.9589 125.366C44.9788 125.347 44.9998 125.329 45.0208 125.312C45.0175 125.315 45.1213 125.23 45.0694 125.271C45.0175 125.311 45.1246 125.232 45.1213 125.234C45.1489 125.216 45.1777 125.197 45.2064 125.178C45.2694 125.138 45.3334 125.102 45.3986 125.068C45.434 125.049 45.4704 125.032 45.5069 125.016C45.424 125.048 45.4903 125.023 45.5069 125.016C45.5687 124.993 45.6317 124.97 45.6947 124.951C45.7577 124.932 45.8217 124.915 45.8858 124.902C45.9112 124.896 45.9377 124.893 45.9631 124.888C46.0173 124.879 46.0151 124.879 45.9565 124.888C45.9819 124.884 46.0084 124.882 46.0339 124.88C46.151 124.871 46.2681 124.871 46.3841 124.88C46.404 124.882 46.5277 124.905 46.415 124.882C46.4404 124.888 46.4658 124.891 46.4912 124.896C46.5675 124.912 46.6437 124.932 46.7166 124.957C46.7055 124.954 46.847 125.006 46.7917 124.984C46.7365 124.96 46.8746 125.025 46.8635 125.019C46.9232 125.049 46.9795 125.083 47.0359 125.12C47.1077 125.167 47.0491 125.131 47.0359 125.118C47.0657 125.144 47.0944 125.169 47.1232 125.197C47.1419 125.216 47.1596 125.234 47.1773 125.253C47.1872 125.263 47.2756 125.368 47.2436 125.327C47.2016 125.274 47.2811 125.38 47.2789 125.378C47.2944 125.4 47.3099 125.423 47.3242 125.447C47.3474 125.482 47.3673 125.518 47.3905 125.553C47.4424 125.629 47.3993 125.565 47.3905 125.542C47.4016 125.571 47.4491 125.673 47.4358 125.707C47.4336 125.689 47.4303 125.67 47.4281 125.651C47.4303 125.673 47.4314 125.695 47.4314 125.717C47.4314 125.728 47.4314 125.739 47.4314 125.75C47.427 125.802 47.4281 125.795 47.4358 125.724C47.4303 125.721 47.427 125.784 47.4181 125.786C47.4259 125.768 47.4325 125.751 47.4402 125.734C47.4303 125.753 47.4203 125.771 47.4082 125.789C47.4491 125.71 47.4325 125.745 47.4159 125.771C47.4292 125.763 47.4424 125.753 47.4557 125.743C47.4358 125.757 47.4137 125.77 47.3916 125.781C47.3673 125.796 47.3419 125.81 47.3165 125.824C47.311 125.828 47.1806 125.886 47.2668 125.851C47.1928 125.881 47.1165 125.905 47.0403 125.926C46.9641 125.947 46.8867 125.965 46.8094 125.979C46.8094 125.979 46.6536 126.001 46.7387 125.991C46.7056 125.995 46.6724 125.998 46.6393 126C46.4647 126.013 46.2879 126.009 46.1134 125.996C46.0261 125.989 45.9388 125.98 45.8516 125.969C45.7621 125.958 45.9598 125.987 45.8085 125.962C45.7621 125.955 45.7146 125.948 45.6682 125.94C45.4892 125.911 45.3113 125.874 45.1335 125.837C44.97 125.802 44.8175 125.76 44.6606 125.702C44.5159 125.647 44.6982 125.719 44.6153 125.683C44.5645 125.661 44.5126 125.637 44.4629 125.612C44.3778 125.57 44.2939 125.526 44.211 125.479C44.0011 125.358 43.6951 125.422 43.578 125.644C43.462 125.864 43.5194 126.149 43.7437 126.277L43.747 126.281Z" fill="black"/>
</g>
</g>
<g id="Group_7">
<path id="Vector_9" d="M30.7185 109.075C30.7384 109.343 30.7594 109.612 30.7815 109.88C30.7925 110.007 30.8036 110.134 30.8146 110.261C30.8202 110.318 30.8246 110.374 30.8301 110.43C30.8202 110.327 30.8445 110.575 30.8467 110.604C30.8986 111.139 30.9572 111.672 31.0212 112.205C31.1505 113.284 31.3007 114.358 31.4653 115.427C31.7935 117.554 32.1812 119.661 32.5767 121.763C32.801 122.954 33.0286 124.144 33.2506 125.336C33.3236 125.728 33.1589 126.198 32.8728 126.291C32.5889 126.384 32.2851 126.169 32.2066 125.749C31.4145 121.493 30.5473 117.256 30.0126 112.913C29.9341 112.278 29.8634 111.639 29.8005 110.999C29.7375 110.36 29.6823 109.719 29.6359 109.076C29.606 108.67 29.9043 108.281 30.175 108.298C30.4932 108.318 30.6854 108.642 30.7185 109.076V109.075Z" fill="black"/>
<g id="Group_8">
<path id="Vector_10" d="M32.7601 125.88C32.6375 125.951 32.5104 126.016 32.3779 126.075C32.2464 126.133 32.1094 126.186 31.9702 126.233C31.4653 126.34 30.8036 126.494 30.1982 126.47C30.0468 126.465 29.8988 126.448 29.7585 126.417C29.6557 126.396 29.543 126.368 29.4303 126.329C29.3188 126.29 29.2083 126.242 29.1111 126.182C28.7918 126.016 28.7918 125.646 28.9244 125.355C29.11 125.037 29.321 124.772 29.638 124.618C29.722 124.575 29.8082 124.539 29.8954 124.509C30.6876 124.245 31.6134 124.509 32.2243 125.154C32.2784 125.207 32.3304 125.262 32.3812 125.319C32.4419 125.468 32.601 125.548 32.6629 125.697C32.6982 125.757 32.7303 125.817 32.759 125.88H32.7601Z" fill="black"/>
<path id="Vector_11" d="M32.993 126.28C32.6494 126.477 32.2793 126.639 31.8915 126.722C31.5038 126.805 31.1138 126.878 30.7183 126.916C30.3095 126.954 29.8963 126.934 29.4975 126.833C29.1241 126.737 28.6877 126.563 28.4966 126.203C28.121 125.495 28.6966 124.645 29.2987 124.277C29.9173 123.901 30.7271 123.855 31.4032 124.094C31.7987 124.234 32.16 124.45 32.4649 124.739C32.5279 124.799 32.5886 124.862 32.6483 124.925C32.6958 124.976 32.7455 125.028 32.782 125.086C32.7908 125.108 32.803 125.13 32.8162 125.15C32.7798 125.105 32.7787 125.102 32.8118 125.141C32.9621 125.287 33.0703 125.458 33.1598 125.646C33.2637 125.865 33.2272 126.157 32.9941 126.279C32.7875 126.389 32.4715 126.347 32.3611 126.114C32.3312 126.051 32.2981 125.991 32.2649 125.93C32.2528 125.909 32.1887 125.821 32.2583 125.903C32.2429 125.884 32.2252 125.866 32.2086 125.848C32.1478 125.783 32.0893 125.72 32.0385 125.646C32.0385 125.646 31.9821 125.547 32.012 125.599C32.0352 125.623 32.0296 125.616 31.9943 125.579C31.9733 125.557 31.9523 125.535 31.9313 125.514C31.8827 125.463 31.833 125.413 31.7811 125.366C31.7612 125.347 31.7402 125.329 31.7192 125.312C31.7225 125.315 31.6187 125.23 31.6706 125.271C31.7225 125.31 31.6153 125.232 31.6187 125.234C31.591 125.215 31.5623 125.197 31.5336 125.178C31.4706 125.138 31.4065 125.102 31.3414 125.067C31.306 125.049 31.2696 125.032 31.2331 125.015C31.2497 125.023 31.316 125.048 31.2331 125.015C31.1712 124.992 31.1083 124.97 31.0453 124.95C30.9823 124.932 30.9182 124.915 30.8542 124.902C30.8288 124.896 30.8022 124.893 30.7768 124.887C30.7227 124.878 30.7249 124.878 30.7835 124.887C30.758 124.884 30.7315 124.882 30.705 124.88C30.589 124.871 30.4708 124.871 30.3548 124.88C30.3349 124.882 30.2112 124.905 30.3239 124.882C30.2985 124.887 30.2731 124.891 30.2476 124.896C30.1714 124.912 30.0963 124.932 30.0223 124.957C30.0333 124.954 29.8919 125.006 29.9472 124.983C30.0024 124.96 29.8643 125.024 29.8753 125.019C29.8157 125.049 29.7593 125.083 29.703 125.119C29.6312 125.167 29.6897 125.13 29.703 125.118C29.6732 125.144 29.6444 125.169 29.6157 125.197C29.5969 125.215 29.5793 125.234 29.5616 125.253C29.5516 125.263 29.4633 125.368 29.4953 125.327C29.5373 125.274 29.4577 125.38 29.4599 125.378C29.4445 125.4 29.429 125.423 29.4147 125.446C29.3915 125.482 29.3716 125.518 29.3484 125.552C29.2964 125.629 29.3395 125.565 29.3484 125.541C29.3373 125.571 29.2898 125.673 29.3031 125.707C29.3053 125.688 29.3086 125.669 29.3108 125.651C29.3086 125.673 29.3075 125.695 29.3075 125.717C29.3075 125.728 29.3075 125.739 29.3075 125.75C29.3119 125.802 29.3108 125.794 29.3031 125.724C29.3086 125.72 29.3119 125.783 29.3207 125.785C29.313 125.768 29.3064 125.751 29.2987 125.734C29.3086 125.752 29.3185 125.771 29.3318 125.789C29.2909 125.709 29.3075 125.745 29.3241 125.771C29.3108 125.762 29.2976 125.752 29.2843 125.742C29.3042 125.757 29.3263 125.77 29.3484 125.781C29.3727 125.795 29.3981 125.81 29.4235 125.824C29.429 125.827 29.5594 125.886 29.4732 125.851C29.5472 125.88 29.6235 125.905 29.6997 125.926C29.7759 125.947 29.8532 125.964 29.9306 125.979C29.9306 125.979 30.0864 126.001 30.0013 125.991C30.0344 125.994 30.0676 125.998 30.1007 126C30.2753 126.013 30.452 126.009 30.6266 125.995C30.7139 125.989 30.8011 125.98 30.8884 125.969C30.9779 125.958 30.7801 125.987 30.9315 125.962C30.9779 125.955 31.0254 125.948 31.0718 125.94C31.2508 125.91 31.4286 125.874 31.6065 125.836C31.77 125.802 31.9225 125.76 32.0793 125.702C32.2241 125.646 32.0418 125.719 32.1246 125.683C32.1766 125.661 32.2274 125.636 32.2771 125.612C32.3622 125.57 32.4461 125.526 32.529 125.478C32.7389 125.358 33.0449 125.422 33.162 125.644C33.278 125.864 33.2206 126.149 32.9963 126.277L32.993 126.28Z" fill="black"/>
</g>
</g>
</g>
<g id="Group_9">
<path id="Vector_12" d="M6.29502 93.4888C5.65425 94.0809 5.05879 94.6963 4.51083 95.3635L4.53623 95.3392C3.80488 96.2783 3.12324 97.2704 2.69127 98.3685V98.3177C1.91242 100.189 1.65611 102.251 1.96544 104.267C1.99969 104.523 2.04167 104.779 2.08918 105.034C2.11459 105.169 2.1422 105.304 2.17093 105.439C2.18418 105.502 2.19965 105.565 2.21402 105.629C2.22838 105.693 2.2096 105.61 2.20739 105.602C2.21843 105.65 2.23059 105.697 2.24163 105.744C2.31344 106.033 2.22838 106.378 1.9102 106.484C1.64396 106.572 1.24734 106.464 1.17001 106.153C0.926962 105.175 0.774506 104.181 0.715954 103.184C0.373476 99.1904 2.56533 95.4387 5.48302 92.8668C5.74043 92.6712 6.12157 92.5552 6.36573 92.8646C6.51155 93.0701 6.47952 93.3474 6.29281 93.4899L6.29502 93.4888Z" fill="black"/>
<g id="Group_10">
<g id="Group_11">
<path id="Vector_13" d="M2.12187 106.406C1.97493 106.45 1.83904 106.509 1.71421 106.583C1.58937 106.657 1.47447 106.745 1.36951 106.844C0.816026 107.43 0.449245 108.254 0.701132 109.104C0.740903 109.235 0.790623 109.36 0.851385 109.478C1.18281 110.266 2.11302 110.662 2.86095 110.355C4.032 109.86 3.9381 108.258 3.21006 107.319C3.09737 107.158 2.96811 107.01 2.8267 106.882C2.69302 106.76 2.54609 106.653 2.38479 106.564C2.30746 106.518 2.22018 106.466 2.12296 106.406H2.12187Z" fill="black"/>
<path id="Vector_14" d="M2.3041 106.887C2.19694 106.92 2.09088 106.959 1.99255 107.012C2.07652 106.967 1.92517 107.057 1.92627 107.056C1.88098 107.086 1.83789 107.118 1.79591 107.152C1.78486 107.161 1.66334 107.282 1.74509 107.193C1.71747 107.223 1.68985 107.254 1.66334 107.286C1.6092 107.349 1.55838 107.414 1.50977 107.482C1.48547 107.515 1.46227 107.549 1.43907 107.584C1.42802 107.601 1.35732 107.72 1.42029 107.611C1.37941 107.683 1.33964 107.756 1.30539 107.832C1.27667 107.895 1.25015 107.958 1.22585 108.023C1.21149 108.062 1.19823 108.101 1.18608 108.14C1.22364 108.02 1.17613 108.191 1.17171 108.214C1.15514 108.296 1.14299 108.378 1.13636 108.46C1.13415 108.488 1.13194 108.516 1.13084 108.544C1.13636 108.423 1.13305 108.563 1.13416 108.581C1.13747 108.667 1.14741 108.752 1.16287 108.837C1.16619 108.855 1.20375 108.991 1.17061 108.879C1.18939 108.942 1.20928 109.005 1.23248 109.067C1.2623 109.145 1.29766 109.221 1.33301 109.297C1.35069 109.335 1.36726 109.374 1.38715 109.412C1.32749 109.295 1.39377 109.415 1.40592 109.435C1.45232 109.503 1.50425 109.567 1.55838 109.629C1.47 109.529 1.55949 109.627 1.57937 109.645C1.6092 109.671 1.64124 109.698 1.67328 109.722C1.70531 109.746 1.73956 109.768 1.77271 109.792C1.87987 109.868 1.6777 109.751 1.79702 109.805C1.86993 109.838 1.94284 109.87 2.01686 109.9C2.13618 109.95 1.91633 109.883 2.04338 109.909C2.07541 109.915 2.10745 109.923 2.1406 109.929C2.17263 109.934 2.20578 109.94 2.23892 109.943C2.26544 109.946 2.29195 109.949 2.31736 109.95C2.25217 109.95 2.24776 109.95 2.3041 109.95C2.38364 109.944 2.46098 109.936 2.54052 109.925C2.66646 109.907 2.44551 109.964 2.56482 109.918C2.59575 109.905 2.6289 109.897 2.65984 109.884C2.69077 109.872 2.72059 109.857 2.75153 109.844C2.87084 109.793 2.66204 109.908 2.76589 109.835C2.81229 109.803 2.9548 109.735 2.97137 109.678C2.95591 109.693 2.93934 109.708 2.92387 109.723C2.94044 109.707 2.95701 109.689 2.97248 109.671C2.99568 109.645 3.01778 109.617 3.03877 109.588C3.05313 109.57 3.06528 109.55 3.07965 109.531C3.15146 109.435 3.03214 109.633 3.08296 109.524C3.11389 109.46 3.14483 109.398 3.16913 109.331C3.18128 109.299 3.23431 109.208 3.17576 109.322C3.19565 109.283 3.20006 109.224 3.2078 109.182C3.21884 109.122 3.22769 109.061 3.23321 109.001C3.23652 108.964 3.23873 108.927 3.23984 108.89C3.23321 109.024 3.23763 108.897 3.23652 108.873C3.2321 108.719 3.2089 108.569 3.17907 108.418C3.20448 108.549 3.17907 108.422 3.17244 108.399C3.15808 108.349 3.14262 108.299 3.12604 108.251C3.09622 108.164 3.06307 108.08 3.02441 107.998C3.01336 107.974 3.00231 107.951 2.99127 107.928C2.98022 107.905 2.96806 107.882 2.95591 107.859C2.99127 107.924 2.99457 107.93 2.96475 107.879C2.91614 107.804 2.86863 107.729 2.81561 107.656C2.7449 107.559 2.67198 107.466 2.59355 107.374C2.58471 107.364 2.52174 107.303 2.58029 107.359C2.52947 107.309 2.47755 107.262 2.42231 107.216C2.20467 107.035 2.05774 106.969 1.80033 106.811C1.57053 106.67 1.54844 106.281 1.71636 106.089C1.91743 105.857 2.19252 105.853 2.43888 106.005C2.46208 106.019 2.48638 106.033 2.50958 106.048C2.58581 106.094 2.45545 106.016 2.52616 106.058C2.5814 106.091 2.63663 106.122 2.69187 106.155C2.82113 106.232 2.94597 106.313 3.06087 106.409C3.27409 106.587 3.45858 106.794 3.62208 107.018C3.85077 107.328 4.03637 107.677 4.13801 108.052C4.34571 108.812 4.31698 109.726 3.75244 110.337C3.1404 111 2.14391 111.167 1.34848 110.731C0.494498 110.263 0.0448537 109.281 0.114454 108.326C0.189578 107.294 0.941922 106.241 1.93621 105.927C2.19252 105.847 2.50958 105.95 2.60017 106.225C2.68414 106.477 2.57697 106.803 2.30189 106.889L2.3041 106.887Z" fill="black"/>
</g>
<path id="Vector_15" d="M3.72624 107.139C3.78589 107.198 3.84224 107.26 3.90631 107.314C3.92399 107.33 3.94277 107.345 3.96266 107.359C3.9505 107.351 3.93724 107.343 3.92509 107.336C3.89637 107.338 3.73949 107.321 3.73397 107.349C3.74944 107.345 3.7649 107.339 3.78037 107.332C3.80578 107.321 3.80136 107.325 3.76491 107.343C3.72955 107.364 3.72403 107.367 3.74833 107.351C3.76269 107.342 3.77706 107.332 3.79031 107.321C3.86433 107.275 3.75938 107.338 3.76711 107.347C3.77484 107.338 3.78147 107.329 3.78921 107.321C3.81572 107.285 3.81682 107.286 3.79362 107.324C3.77484 107.358 3.77153 107.362 3.78369 107.338C3.79142 107.324 3.79694 107.309 3.80246 107.294C3.77926 107.296 3.78037 107.417 3.78147 107.432C3.77595 107.342 3.79142 107.522 3.7859 107.459C3.78258 107.425 3.82125 107.505 3.7859 107.462C3.76049 107.433 3.73949 107.397 3.7174 107.366C3.69088 107.328 3.68205 107.321 3.71961 107.36C3.66547 107.304 3.6025 107.257 3.54064 107.21C3.5086 107.185 3.49092 107.173 3.53622 107.202C3.50308 107.181 3.46662 107.163 3.43127 107.147C3.36719 107.115 3.30091 107.087 3.23351 107.063C3.20369 107.052 3.17275 107.042 3.14292 107.032C3.22578 107.06 3.12525 107.028 3.10757 107.024C3.03797 107.008 2.96837 106.997 2.89766 106.982C2.57838 106.921 2.25911 106.877 1.93431 106.867C1.98623 106.528 2.03816 106.189 2.09119 105.85C2.52094 105.865 2.9518 106.088 3.23572 106.408C3.36719 106.555 3.50087 106.704 3.62018 106.861C3.66879 106.926 3.7185 106.991 3.76269 107.06C3.85108 107.194 3.88864 107.33 3.91846 107.488C3.96818 107.753 3.72182 108.037 3.45999 108.054C3.16281 108.072 2.94848 107.879 2.89435 107.595C2.87115 107.471 2.9297 107.672 2.93191 107.669C2.93412 107.667 2.8822 107.598 2.87778 107.591C2.83469 107.53 2.78939 107.471 2.7441 107.411C2.65019 107.29 2.54524 107.171 2.44139 107.061C2.47896 107.1 2.45024 107.07 2.42593 107.051C2.39942 107.03 2.3729 107.01 2.34749 106.99C2.31766 106.967 2.29336 106.951 2.34086 106.98C2.31545 106.965 2.28784 106.951 2.26022 106.938C2.2326 106.925 2.20498 106.914 2.17625 106.902C2.06025 106.853 2.21713 106.899 2.14753 106.892C2.07572 106.884 2.00722 106.87 1.9332 106.867C1.66254 106.857 1.45373 106.531 1.50345 106.281C1.56311 105.98 1.80174 105.841 2.09008 105.851C2.5121 105.865 2.94738 105.921 3.35614 106.032C3.82898 106.161 4.28083 106.391 4.5758 106.796C4.72826 107.004 4.83653 107.24 4.80118 107.501C4.76803 107.746 4.62883 107.943 4.45207 108.105C4.27862 108.263 4.01348 108.38 3.77595 108.35C3.4854 108.313 3.28654 108.142 3.08658 107.946C2.89546 107.758 2.80707 107.448 3.00262 107.223C3.16944 107.031 3.51964 106.937 3.72513 107.139H3.72624Z" fill="black"/>
</g>
</g>
<path id="Vector_16" d="M50.8268 22.9884L45.0168 22.1245L45.9216 16.0372L48.5443 16.4272C49.5198 16.5719 50.4279 15.8991 50.5738 14.9236L51.6277 7.83986C51.7724 6.86435 51.0996 5.95624 50.1241 5.81041L30.2472 2.85406C29.2717 2.70934 28.3636 3.38214 28.2177 4.35764L28.0244 5.65574C27.4046 9.82622 30.2825 13.7106 34.453 14.3303C35.9688 14.5557 37.5784 14.5115 39.0013 15.1578C40.316 15.7555 40.8585 17.2005 40.5602 18.566C40.1823 20.2994 38.8389 21.0893 37.1133 20.9413C35.0529 20.7656 32.9958 20.3359 30.9487 20.0309C29.9732 19.8862 29.0651 20.559 28.9193 21.5345L28.7259 22.8326C28.5017 24.3417 28.737 25.9005 29.4009 27.2738C29.8881 28.2802 30.5963 29.174 31.4602 29.8799C31.7486 30.1152 32.0535 30.3295 32.3739 30.5207C34.0995 31.5326 36.1245 31.431 37.7298 32.5833C37.8679 32.7004 37.9905 32.8307 38.0921 32.9788C38.8224 33.8427 38.3772 34.9298 38.2534 36.3052C38.122 37.7613 40.2785 34.8646 41.1678 34.3951C41.2838 34.2879 41.3932 34.1852 41.4937 34.0902C41.6031 33.983 41.7135 33.878 41.8251 33.7764C42.3797 33.2693 42.973 32.8528 43.7728 32.7998C43.9463 32.8164 44.1164 32.8418 44.2854 32.8661C46.991 33.2682 49.2458 33.6041 49.2458 33.6041C50.2213 33.7488 51.1295 33.076 51.2753 32.1005L52.3292 25.0167C52.474 24.0412 51.8012 23.1331 50.8257 22.9873L50.8268 22.9884Z" fill="#F9C41C"/>
<path id="Vector_17" d="M51.211 23.0911C51.2618 22.6834 51.3027 22.2691 51.3535 21.8361C51.3966 21.3467 51.4298 20.8583 51.4563 20.3689C51.538 18.9018 51.5778 17.4358 51.749 15.9908C51.801 15.3157 51.8518 14.6584 51.8938 13.9978C52.0407 12.0556 52.1092 10.0991 52.1379 8.11048C52.1921 7.3736 52.2385 6.63783 52.2782 5.90206C52.3578 4.42941 52.413 2.95565 52.4671 1.48411C52.5091 0.889743 52.3942 0.425736 51.6651 0.427946C51.4242 0.389279 51.1514 0.348406 50.8774 0.30753C50.0576 0.186006 49.2379 0.0633681 49.2379 0.0633681C47.5377 -0.189623 45.9004 0.329626 44.6819 1.35816C43.8886 2.02875 43.407 3.05617 42.5872 3.72456C41.4283 4.67024 39.9943 4.36312 38.6289 4.17089C37.1131 3.95767 35.6128 3.65386 34.0993 3.42849C32.8145 3.23736 31.5296 3.04623 30.2448 2.85511C29.2693 2.71038 28.3612 3.38318 28.2153 4.35869L28.022 5.65679C27.9866 5.891 27.9635 6.12522 27.9502 6.35722C28.5423 8.21543 30.0923 9.71459 32.0367 10.2349C35.3068 11.1762 38.7316 11.0701 41.5333 12.893C41.0107 16.616 40.5268 20.3446 40.0286 24.071C39.3017 24.1748 38.5758 24.1561 37.8633 24.05C34.7832 23.7871 31.7406 23.396 28.7092 22.9397C28.5114 24.4146 28.7489 25.9336 29.3974 27.2748C29.8846 28.2813 30.5928 29.175 31.4567 29.8809C31.7451 30.1163 32.05 30.3306 32.3704 30.5217C34.096 31.5337 36.121 31.432 37.7263 32.5843C37.8644 32.7014 37.987 32.8318 38.0886 32.9798C38.8178 33.8437 38.3748 34.9297 38.2499 36.3029C37.987 37.9037 37.7108 39.5023 37.4236 41.0987C36.9242 43.8706 36.3729 46.9197 34.76 49.295C37.428 49.19 40.149 49.6187 42.7242 49.2232C43.6246 49.116 44.6509 48.705 44.9956 47.4699C45.1094 47.2456 45.6264 46.5286 45.6927 46.1508C45.8739 45.5918 46.0396 45.0295 46.1932 44.4638C46.4241 43.6375 46.6793 42.8222 46.919 41.9991C47.7432 39.1941 48.2503 36.3714 48.7828 33.5366C49.0766 33.5808 49.2434 33.6051 49.2434 33.6051C50.219 33.7498 51.1271 33.077 51.2729 32.1015L52.3268 25.0178C52.4517 24.177 51.9678 23.3872 51.2077 23.0922L51.211 23.0911Z" fill="#F9C41C"/>
<path id="Vector_18" d="M60.0932 58.8026C55.1173 56.7754 52.9895 51.0704 53.0282 46.0338C53.0193 45.0892 53.0735 44.149 53.1851 43.2354C53.2425 42.134 53.3408 41.0281 53.4579 39.9277C53.8115 36.6278 54.3462 33.3776 54.5296 30.5616C54.6367 29.8368 54.7439 29.1132 54.851 28.3929C55.8078 21.9566 56.7236 15.7997 57.4042 11.2304C57.4561 10.8791 57.5069 10.5366 57.5566 10.2052C57.6649 9.44841 57.7986 8.63199 57.8903 7.80121C57.9367 7.38582 57.972 6.96712 57.9886 6.55173C58.3432 3.33576 55.5957 1.05331 52.7144 0.435743C51.4174 0.247934 50.1271 0.00158153 48.8411 0.018153C47.2845 -0.104476 45.8063 0.409239 44.6839 1.35713C43.8907 2.02772 43.409 3.05514 42.5893 3.72352C41.4304 4.6692 39.9964 4.36208 38.6309 4.16985C37.1152 3.95663 35.6149 3.65282 34.1013 3.42745C32.8165 3.23633 31.5317 3.0452 30.2468 2.85407C29.2713 2.70935 28.3632 3.38215 28.2174 4.35766L28.024 5.65575C27.9887 5.88996 27.9655 6.12418 27.9522 6.35618C28.5444 8.2144 30.0944 9.71356 32.0388 10.2339C35.3089 11.1752 38.7336 11.0691 41.5353 12.892C41.0128 16.615 40.5289 20.3436 40.0306 24.07C39.3037 24.1738 38.5779 24.155 37.8653 24.049C34.7852 23.786 31.7427 23.395 28.7112 22.9387C28.5134 24.4135 28.751 25.9326 29.3995 27.2738C29.8867 28.2802 30.5948 29.174 31.4588 29.8799C31.7471 30.1152 32.052 30.3296 32.3724 30.5207C34.098 31.5326 36.1231 31.431 37.7283 32.5833C37.8664 32.7004 37.989 32.8307 38.0907 32.9788C38.8198 33.8427 38.3768 34.9287 38.252 36.3019C37.989 37.9027 37.7128 39.5013 37.4256 41.0977C36.9262 43.8695 36.375 46.9187 34.762 49.2939C34.4007 49.8264 33.9865 50.3247 33.507 50.7787C33.2043 51.0649 32.885 51.3333 32.5481 51.5808C28.8813 54.1604 24.0822 53.4467 19.8896 54.5924C21.9754 55.7071 24.3916 56.2274 26.3569 57.7122C26.6342 57.9221 26.9038 58.1497 27.1634 58.3983C27.5324 58.6701 27.908 58.933 28.287 59.1915C30.9439 60.9967 33.8185 62.5135 36.4567 64.3386C36.9826 64.6214 37.5073 64.8766 38.0177 65.1042C38.5237 65.3296 39.0153 65.5262 39.4738 65.693C39.4738 65.693 40.456 65.8389 41.4381 65.9847C42.4202 66.1305 43.4024 66.2764 43.4024 66.2764C44.2077 66.325 44.9281 66.2719 45.5799 66.1305C46.2317 65.9891 46.8139 65.7604 47.3442 65.4588C47.9595 65.0976 48.5915 64.7838 49.2377 64.5076C49.884 64.2314 50.5436 63.9906 51.2131 63.7752C52.9045 63.0913 54.7052 62.6903 56.4474 62.1633C56.7976 62.0584 57.1457 61.9479 57.4992 61.8297C57.9256 61.6629 58.3554 61.5093 58.7895 61.3635C60.1175 60.9779 61.4697 60.536 62.8109 60.1714C61.9138 59.7163 60.9935 59.2777 60.0887 58.8026H60.0932ZM37.8333 49.3326C38.1315 49.3448 38.4287 49.3558 38.7259 49.3657C38.4287 49.3558 38.1315 49.3437 37.8333 49.3326ZM44.7402 48.0809C44.2751 48.8487 43.4609 49.136 42.7296 49.2232C43.4609 49.136 44.2762 48.8487 44.7402 48.0809C44.812 47.9627 44.875 47.8334 44.928 47.692C44.875 47.8334 44.812 47.9638 44.7402 48.0809Z" fill="#F9C41C"/>
<path id="Vector_19" d="M39.858 31.7945C39.6691 31.188 39.1775 30.6466 38.656 30.3008C37.823 29.7484 36.8288 29.501 35.8919 29.1872C32.993 28.2194 29.3661 26.6507 28.6535 23.606C28.596 24.8665 28.849 26.1348 29.4003 27.2738C29.8875 28.2802 30.5957 29.174 31.4596 29.8799C32.4086 30.6543 33.5818 31.1515 34.7728 31.4166C35.8919 31.6663 36.8453 31.8353 37.738 32.6043C38.2539 33.0649 38.7433 33.7245 38.5334 34.4779C38.9289 34.0139 39.4946 33.5764 39.773 33.0141C39.9762 32.6042 39.9795 32.1856 39.858 31.7945Z" fill="#F4B80F"/>
<path id="Vector_20" d="M60.0936 58.8025C55.1178 56.7753 52.99 51.0703 53.0286 46.0337C53.0198 45.0891 53.0739 44.15 53.1855 43.2353C53.243 42.1338 53.3413 41.028 53.4584 39.9276C53.8119 36.6277 54.3466 33.3775 54.53 30.5614C54.6372 29.8367 54.7443 29.1131 54.8515 28.3928C55.8082 21.9564 56.7241 15.7996 57.4046 11.2303C57.4566 10.879 57.5074 10.5365 57.5571 10.2051C57.6654 9.4483 57.799 8.63188 57.8907 7.8011C57.9371 7.3857 57.9725 6.967 57.989 6.55161C58.3437 3.33565 55.5961 1.05319 52.7149 0.435629C51.145 0.208047 49.5829 -0.104598 48.0296 0.0655353C49.0438 -0.0460459 50.438 0.71182 51.1572 1.36142C52.1194 2.22977 52.3492 3.30361 52.1868 4.56414C51.3339 11.2093 49.5265 32.3269 46.1957 43.5988C46.0289 44.1622 45.8587 44.7013 45.6853 45.2062C45.2047 46.9307 44.5363 48.79 43.0095 49.8363C40.9326 51.2901 38.206 51.1786 35.8959 50.1058C35.496 49.8838 35.116 49.6142 34.7647 49.3027C34.5006 49.7479 34.1559 50.087 33.8577 50.4306C33.7461 50.5499 33.6301 50.6659 33.5108 50.7786C33.2081 51.0647 32.8888 51.3332 32.5518 51.5807C28.8851 54.1603 24.086 53.4466 19.8945 54.5923C21.9803 55.707 24.3964 56.2273 26.3618 57.7121C26.6391 57.922 26.9087 58.1496 27.1683 58.3982C27.5373 58.67 27.9129 58.9329 28.2918 59.1914C30.9488 60.9966 33.8234 62.5134 36.4616 64.3385C36.9875 64.6213 37.5122 64.8765 38.0226 65.1041C38.5286 65.3295 39.0202 65.5261 39.4787 65.6929C39.4787 65.6929 40.4608 65.8388 41.443 65.9846C42.4251 66.1304 43.4072 66.2762 43.4072 66.2762C44.2126 66.3249 44.9329 66.2718 45.5847 66.1304C46.2366 65.989 46.8188 65.7603 47.3491 65.4587C47.9644 65.0975 48.5963 64.7837 49.2426 64.5075C49.8889 64.2313 50.5485 63.9905 51.2179 63.7751C52.9093 63.0912 54.7101 62.6902 56.4523 62.1632C56.8025 62.0583 57.1505 61.9478 57.504 61.8296C57.9305 61.6628 58.3602 61.5092 58.7944 61.3634C60.1223 60.9778 61.4746 60.5359 62.8158 60.1713C61.9187 59.7162 60.9984 59.2776 60.0936 58.8025Z" fill="#F4B80F"/>
<path id="Vector_21" d="M0.902597 77.9901C0.716996 79.9223 0.688275 81.87 0.823057 83.8067C1.56325 94.4963 7.47595 104.702 16.1252 110.964C21.3783 114.767 27.4545 117.105 33.7053 117.999C39.9461 118.962 46.4399 118.494 52.5725 116.384C62.6689 112.911 71.296 104.867 75.1163 94.8554C75.8079 93.0414 76.3481 91.1699 76.7326 89.2664C78.4173 80.9298 77.1601 72.0707 71.2618 65.6267C67.109 61.0905 61.1156 59.2002 55.3344 57.5508C55.3023 57.542 55.2692 57.532 55.2372 57.5232C51.2501 56.3908 47.1812 55.5645 43.0803 54.9679C38.9827 54.3448 34.8498 53.9526 30.7058 53.8753C30.6716 53.8753 30.6385 53.8742 30.6042 53.8731C24.5932 53.7681 18.3093 53.8333 13.0163 56.9642C5.49732 61.4131 1.71791 69.522 0.902597 77.9878V77.9901Z" fill="#F9C41C"/>
<path id="Vector_22" d="M71.2617 65.6301C67.1089 61.0939 61.1155 59.2036 55.3343 57.5542C55.3022 57.5454 55.2691 57.5354 55.2371 57.5266C51.25 56.3942 47.1811 55.5679 43.0802 54.9713C38.9827 54.3482 34.8497 53.956 30.7058 53.8787C30.6715 53.8787 30.6384 53.8776 30.6041 53.8765C30.0915 53.8676 29.5756 53.8599 29.0597 53.8555C29.5723 53.893 30.0838 53.9328 30.5942 53.9781C33.956 54.557 37.5851 55.0928 41.2585 55.7667C43.0957 56.1037 44.944 56.4738 46.7723 56.9013C54.6394 58.6247 62.7881 61.5723 67.4889 68.667C75.2554 80.3278 71.8759 96.9092 61.5895 105.867C60.5035 106.798 59.3534 107.651 58.1514 108.422C54.5444 110.735 50.47 112.305 46.1404 112.943C44.1994 113.292 42.2218 113.493 40.2299 113.546C30.2694 113.819 19.9619 110.398 12.3656 104.169C11.0454 103.122 9.78814 102.003 8.60383 100.818C7.42062 99.6325 6.31034 98.3808 5.28401 97.0694C4.4013 95.8972 3.60256 94.6743 2.89551 93.4082C5.44972 100.387 10.1295 106.623 16.1262 110.964C21.3793 114.767 27.4555 117.105 33.7063 117.999C39.9471 118.963 46.4409 118.494 52.5735 116.384C62.6699 112.911 71.297 104.867 75.1173 94.8555C75.8089 93.0415 76.3491 91.17 76.7336 89.2665C78.4184 80.9299 77.1611 72.0708 71.2628 65.6267L71.2617 65.6301Z" fill="#F4B80F"/>
<path id="Vector_23" d="M23.4539 98.6018C23.4208 99.0569 23.4407 99.5176 23.5158 99.9783C23.9279 102.521 26.0733 105.028 29.0816 106.642C30.9089 107.622 32.9903 108.268 35.1081 108.576C37.2237 108.898 39.4034 108.886 41.4373 108.479C44.7848 107.81 47.5677 106.037 48.7011 103.723C48.9066 103.305 49.0602 102.869 49.1607 102.424C49.6015 100.475 49.0436 98.3587 46.9589 96.7424C45.4918 95.6045 43.4447 95.0665 41.4727 94.5881C41.4616 94.5859 41.4506 94.5826 41.4395 94.5804C40.0796 94.2512 38.6975 93.9938 37.3066 93.7905C35.9168 93.5806 34.5193 93.4248 33.1229 93.3442C33.1118 93.3442 33.0997 93.3431 33.0886 93.342C31.0625 93.226 28.9479 93.1453 27.2135 93.8071C24.7487 94.7461 23.5998 96.6088 23.4539 98.6018Z" fill="white"/>
<path id="Vector_24" d="M48.3503 98.1886C48.4133 98.805 48.3702 99.427 48.2377 100.034C48.1415 100.471 47.9979 100.9 47.8068 101.313C46.754 103.594 44.2163 105.366 41.1815 106.061C39.3377 106.483 37.3668 106.521 35.4566 106.228C33.5443 105.952 31.6684 105.342 30.0278 104.402C27.3267 102.854 25.4143 100.42 25.0718 97.9312C25.01 97.4804 24.9967 97.0286 25.0321 96.5822C25.0807 95.9625 25.221 95.356 25.4607 94.7837C25.0067 95.1836 24.6145 95.5836 24.3582 95.9581C24.0234 96.4475 23.7782 96.9932 23.6257 97.5655C22.7286 100.931 24.8719 104.595 27.4659 106.583C32.8306 110.693 41.8466 111.502 46.8379 106.314C47.5704 105.553 48.2343 104.674 48.7006 103.723C48.906 103.305 49.0596 102.869 49.1601 102.424C49.4783 101.016 49.275 99.5198 48.3503 98.1875V98.1886Z" fill="#F4B80F"/>
<path id="Vector_25" d="M34.456 14.2873C34.7366 14.3569 35.0195 14.421 35.3012 14.4839C37.0655 14.875 39.3391 15.1335 40.266 16.9089C40.8758 18.0766 40.5378 19.6918 39.4363 20.5082C39.7059 20.4497 39.9743 20.3701 40.2362 20.2707C41.5475 19.7724 42.7263 18.7781 43.3748 17.5751C43.4687 17.3895 43.5438 17.195 43.5969 16.9895C43.6499 16.7841 43.6786 16.5686 43.6797 16.3399C43.83 14.0111 41.4956 12.5871 39.549 11.9187C39.212 11.7971 38.8707 11.69 38.5238 11.595C36.4446 11.0238 34.2075 10.8603 32.0377 10.2361C30.0922 9.71577 28.5422 8.21661 27.9512 6.3584C28.086 6.78152 27.9512 7.43775 28.0197 7.89843C28.1014 8.45413 28.2461 8.99988 28.4483 9.52354C28.8372 10.5311 29.4404 11.4525 30.2082 12.2114C31.3804 13.3714 32.8972 13.9039 34.4549 14.2884L34.456 14.2873Z" fill="#F4B80F"/>
<g id="Group_12" opacity="0.34">
<path id="Vector_26" d="M15.7249 60.421C14.7273 60.5171 13.701 61.0066 12.815 61.5855C11.8638 62.203 10.9667 62.952 10.1591 63.7884C9.20683 64.7605 8.39924 65.9504 7.9717 67.243C7.93082 67.3656 7.88995 67.4959 7.85128 67.6296C7.81041 67.7622 7.7861 67.9069 7.76069 68.0461C7.71429 68.33 7.67673 68.6051 7.70987 68.867C7.7629 69.3862 7.98275 69.7696 8.49646 69.8546C8.84667 69.8944 9.21788 69.8016 9.55815 69.6547C9.72386 69.5795 9.90062 69.4956 10.0597 69.4028C10.221 69.3111 10.3646 69.2083 10.5005 69.1067C11.233 68.5576 11.8505 67.9036 12.5189 67.3015C13.2315 66.6585 13.943 66.0299 14.65 65.3372C15.3239 64.6744 16.0497 63.9795 16.685 63.2294C16.8054 63.0924 16.9192 62.9421 17.0208 62.7841C17.0717 62.7046 17.1181 62.6228 17.1611 62.54C17.2053 62.4593 17.244 62.3765 17.2782 62.2925C17.413 61.9556 17.4583 61.5965 17.3324 61.2485C17.2252 60.9524 17.0054 60.7282 16.7203 60.5867C16.4364 60.4475 16.0807 60.3791 15.726 60.4199L15.7249 60.421Z" fill="white"/>
</g>
<g id="Group_13" opacity="0.34">
<path id="Vector_27" d="M23.9436 58.0965C23.5072 57.8292 22.9858 57.8082 22.5251 57.8546C22.029 57.9021 21.5496 58.017 21.0933 58.1529C20.5586 58.312 20.0504 58.5473 19.6472 58.9085C19.3334 59.1847 18.9014 59.6366 19.2274 60.3304C19.4616 60.7877 19.888 61.0761 20.2327 61.1844C20.4669 61.2573 20.6956 61.2805 20.9199 61.2782C21.1397 61.2805 21.3518 61.2573 21.5595 61.2374C22.0036 61.1932 22.4113 61.1048 22.8002 60.9369C23.1714 60.7789 23.5415 60.5812 23.8884 60.3005C24.0176 60.1945 24.148 60.0542 24.2529 59.8697C24.3568 59.6874 24.4363 59.4609 24.4496 59.1847C24.4606 58.9505 24.4153 58.7263 24.3247 58.5373C24.2341 58.3462 24.0994 58.1926 23.9436 58.0976V58.0965Z" fill="white"/>
</g>
<g id="Group_14" opacity="0.34">
<path id="Vector_28" d="M39.5974 6.07433C39.0328 5.84675 38.3611 5.74401 37.7403 5.65783C37.0752 5.56724 36.4079 5.48329 35.7594 5.37723C34.996 5.25461 34.2415 5.12093 33.4946 5.03255C33.3521 5.01598 33.1919 4.9994 33.0351 4.98393C32.8771 4.96957 32.7147 4.96958 32.5722 4.9762C32.2849 4.99499 32.0496 5.08889 32.0109 5.3474C31.9988 5.52527 32.0816 5.72412 32.2231 5.91856C32.3634 6.1141 32.5644 6.29198 32.7721 6.44112C33.3378 6.83552 34.047 7.08741 34.7408 7.28295C35.4865 7.49396 36.2433 7.61769 37.0045 7.6453C37.7303 7.67292 38.4782 7.63868 39.1532 7.51274C39.657 7.41883 40.1608 7.21335 40.2326 6.84877C40.2945 6.53944 40.0017 6.23784 39.5974 6.07433Z" fill="white"/>
</g>
<g id="Group_15" opacity="0.34">
<path id="Vector_29" d="M37.2486 22.8336C36.7912 22.6281 36.241 22.5508 35.7317 22.4889C35.186 22.4226 34.6391 22.3641 34.1077 22.2834C33.4824 22.1895 32.8649 22.0846 32.2517 22.0238C32.1346 22.0127 32.0032 22.0017 31.8739 21.9929C31.7435 21.9851 31.6099 21.9896 31.4916 22.0017C31.2541 22.0315 31.0564 22.1332 31.0144 22.3906C30.9978 22.5673 31.0597 22.7618 31.1679 22.9496C31.2762 23.1385 31.4364 23.3075 31.6021 23.4478C32.0551 23.8179 32.6307 24.0422 33.1963 24.2101C33.8039 24.3924 34.4237 24.4874 35.0512 24.4863C35.65 24.4863 36.2675 24.4256 36.8299 24.2753C37.2486 24.1637 37.6717 23.9406 37.7457 23.5771C37.8087 23.2678 37.5778 22.9794 37.2497 22.8314L37.2486 22.8336Z" fill="white"/>
</g>
<g id="Group_16">
<g id="Group_17">
<path id="Vector_30" d="M52.9889 75.8349C53.18 74.149 52.125 72.4874 50.5352 71.9627C49.3123 71.5661 48.0595 71.9218 47.137 72.8299C46.2432 73.7723 45.8521 75.0847 46.1548 76.3552C46.4785 77.7594 47.5458 78.8962 48.9378 79.1426C50.4237 79.3967 51.9328 78.6034 52.5989 77.2313C52.81 76.8104 52.9469 76.3386 52.9889 75.8349Z" fill="black"/>
<path id="Vector_31" d="M49.9637 74.7555C50.0101 74.2197 49.6721 73.7524 49.2202 73.527C48.4325 73.179 47.5321 73.8275 47.5874 74.6793C47.6139 75.1212 47.8636 75.5178 48.2558 75.7078C48.6767 75.931 49.2147 75.8813 49.5583 75.5686C49.787 75.372 49.9405 75.0858 49.9637 74.7566V74.7555Z" fill="white"/>
</g>
<g id="Group_18">
<path id="Vector_32" d="M28.237 73.4362C28.4281 71.7503 27.373 70.0888 25.7833 69.564C24.5603 69.1674 23.3075 69.5231 22.385 70.4312C21.4913 71.3736 21.1002 72.6861 21.4029 73.9565C21.7266 75.3607 22.7938 76.4975 24.1858 76.7439C25.6717 76.9979 27.1808 76.2048 27.847 74.8326C28.058 74.4117 28.195 73.94 28.237 73.4362Z" fill="black"/>
<path id="Vector_33" d="M25.2118 72.3568C25.2582 71.821 24.9201 71.3537 24.4683 71.1284C23.6806 70.7804 22.7802 71.4288 22.8354 72.2806C22.8619 72.7225 23.1116 73.1191 23.5038 73.3092C23.9247 73.5323 24.4627 73.4826 24.8063 73.17C25.035 72.9733 25.1886 72.6872 25.2118 72.3579V72.3568Z" fill="white"/>
</g>
<g id="Group_19">
<path id="Vector_34" d="M49.5123 79.7908C49.5189 79.7919 49.5255 79.7941 49.5311 79.7963C49.5377 79.7963 49.5443 79.7963 49.5509 79.7986C50.5972 80.0394 51.9395 80.7431 52.156 81.9109C52.3769 83.1062 51.1054 83.8409 50.0989 84.0121C49.0472 84.1911 47.9336 83.9491 47.0188 83.4111C46.1803 82.9173 45.4423 81.9672 46.0223 80.995C46.7194 79.8262 48.2816 79.5367 49.5123 79.7897V79.7908Z" fill="#EC4899"/>
<path id="Vector_35" d="M20.8779 79.7532C20.952 78.3657 22.7295 77.7492 23.8796 77.6785C23.8862 77.6785 23.8928 77.6785 23.8995 77.6785C23.9061 77.6785 23.9127 77.6763 23.9194 77.6763C25.0981 77.631 26.3244 78.063 26.9851 79.0926C27.2513 79.508 27.3706 80.0173 27.174 80.4879C26.984 80.9431 26.5818 81.2701 26.1543 81.4932C25.2241 81.9782 24.0762 82.0976 23.0598 81.8634C22.0965 81.6424 20.8183 80.8978 20.879 79.7532H20.8779Z" fill="#EC4899"/>
</g>
<path id="Vector_36" d="M34.9719 75.9517C35.0149 75.9572 35.0591 75.9638 35.1022 75.9705C36.4158 76.1704 37.7194 76.3538 39.0506 76.3881C39.3478 76.3958 39.5456 76.5946 39.645 76.8565C39.6947 76.9868 39.719 77.1338 39.7146 77.2763C39.6881 78.1446 38.7866 78.2187 38.1072 78.1634C37.1626 78.0883 36.2048 78.0441 35.29 77.7756C34.8967 77.6608 34.3698 77.4906 34.151 77.1095C33.9179 76.7029 34.1842 76.0202 34.6692 75.9473C34.7697 75.9318 34.8713 75.9384 34.973 75.9506L34.9719 75.9517Z" fill="black"/>
<g id="Group_20">
<path id="Vector_37" d="M54.7141 88.9439C53.4757 90.7557 51.381 91.5611 49.2356 91.5732C46.9123 91.5865 44.6619 90.7767 42.8942 89.2654C41.7817 88.3142 40.8747 87.1211 40.213 85.8185C40.0649 85.5269 40.1014 85.18 40.3919 84.9878C40.6416 84.8231 41.0769 84.8784 41.2227 85.1667C42.2557 87.2006 43.8985 88.9461 46.0461 89.7957C47.679 90.442 49.6245 90.5988 51.3059 90.0531C52.2339 89.7515 53.0923 89.2024 53.6491 88.3882C53.8314 88.1209 54.1485 87.9695 54.46 88.133C54.7207 88.2711 54.8997 88.6733 54.7141 88.9439Z" fill="black"/>
<path id="Vector_38" d="M40.1832 81.2469C40.9301 81.4337 41.4394 82.0777 41.7144 82.766C41.8216 82.7494 41.931 82.7505 42.0304 82.766C42.2724 82.8047 42.5033 82.8964 42.6679 83.0864C42.8457 83.2919 42.8844 83.5548 42.8711 83.8177C42.849 84.2663 42.6414 84.6773 42.3663 85.0231C41.2847 86.3841 39.2552 86.3985 38.1936 85.0098C37.597 84.2309 37.4324 83.1372 37.9019 82.2578C38.3394 81.4381 39.2862 81.0227 40.1821 81.2458L40.1832 81.2469Z" fill="black"/>
</g>
</g>
</g>
</svg>
