<svg viewBox="0 0 220 59" fill="none" xmlns="http://www.w3.org/2000/svg">
<g clip-path="url(#clip0_1662_105263)">
<path d="M19.2899 3.38232H3.79902V3.79235C2.77825 3.85896 1.82007 4.31029 1.11592 5.05616C0.411758 5.80204 0.0134757 6.78753 0.000644006 7.81575V51.1164C-0.00772091 51.6529 0.0845278 52.1861 0.272563 52.6882C0.566253 53.4427 1.07924 54.0907 1.74464 54.5478C2.41005 55.005 3.19702 55.2499 4.00296 55.2509C4.80863 55.2488 5.59508 55.0033 6.26027 54.5464C6.92546 54.0894 7.43868 53.442 7.73335 52.6882C7.92903 52.1882 8.02154 51.6535 8.00527 51.1164V34.0319H18.7206C27.1331 34.0319 34.186 27.1469 34.186 19.1001C34.186 10.5407 27.337 3.38232 19.2899 3.38232ZM18.7206 25.8826H8.00527V11.5316H19.2899C22.8589 11.5316 26.0879 15.1108 26.0879 19.0744C26.0879 22.6366 22.6889 25.8826 18.7206 25.8826Z" fill="#344254"/>
<path d="M63.0768 3.28835C57.1198 3.28032 51.3444 5.34897 46.7346 9.14181C42.1248 12.9347 38.9659 18.217 37.7961 24.0888C36.6264 29.9605 37.5182 36.0584 40.3195 41.3432C43.1209 46.6281 47.6585 50.773 53.1591 53.0716C58.6597 55.3703 64.783 55.6804 70.4856 53.9492C76.1883 52.218 81.1173 48.5526 84.4329 43.5775C87.7484 38.6024 89.2454 32.6256 88.6686 26.6654C88.0919 20.7051 85.4771 15.1304 81.2699 10.891C78.884 8.48288 76.0489 6.57178 72.9269 5.26718C69.805 3.96258 66.4577 3.29012 63.0768 3.28835ZM63.0768 46.794C59.0075 46.8119 55.0582 45.4102 51.9021 42.828C48.746 40.2458 46.5787 36.643 45.7697 32.6339C44.9608 28.6249 45.5602 24.4579 47.4659 20.8435C49.3716 17.2291 52.4654 14.3911 56.2199 12.8135C59.9744 11.236 64.157 11.0165 68.0545 12.1925C71.9519 13.3685 75.3229 15.8672 77.5926 19.2625C79.8623 22.6577 80.8901 26.7393 80.5007 30.8113C80.1114 34.8832 78.329 38.6933 75.4576 41.5918C73.8349 43.2338 71.9063 44.5383 69.7819 45.4309C67.6576 46.3235 65.3792 46.7867 63.0768 46.794Z" fill="#344254"/>
<path d="M164.715 3.38257H132.807C132.213 3.26578 131.6 3.28176 131.013 3.42937C130.425 3.57699 129.877 3.85264 129.408 4.23679C128.946 4.6293 128.575 5.11866 128.321 5.67056C128.067 6.22246 127.936 6.82352 127.938 7.4316V38.7731L102.037 4.95434C102.037 4.88601 102.037 4.88601 101.969 4.88601C101.901 4.88601 101.901 4.74933 101.833 4.68099L101.714 4.54432L101.579 4.40764L101.443 4.27096C101.375 4.27096 101.375 4.20263 101.307 4.20263C101.239 4.20263 101.171 4.06595 101.103 4.06595C101.035 4.06595 101.035 3.99761 100.967 3.92927C100.899 3.86094 100.831 3.86094 100.763 3.86094L100.627 3.72426C100.559 3.72426 100.491 3.65592 100.423 3.65592C100.355 3.65592 100.287 3.58758 100.219 3.58758C100.168 3.57703 100.122 3.55348 100.083 3.51925L99.828 3.45091C99.7759 3.44577 99.7275 3.42143 99.6921 3.38257H99.4881C99.4518 3.39097 99.414 3.39097 99.3777 3.38257C99.3435 3.36778 99.312 3.34759 99.2842 3.32277H98.4345C98.3981 3.31466 98.3604 3.31466 98.324 3.32277C98.2889 3.33124 98.2566 3.34892 98.2305 3.37403H97.9161C97.882 3.38882 97.8504 3.40901 97.8226 3.43382H97.6187C97.5909 3.45864 97.5594 3.47883 97.5252 3.49362H97.4657C97.3978 3.56196 97.3978 3.56196 97.3298 3.56196L97.1258 3.69863C97.0895 3.69052 97.0518 3.69052 97.0154 3.69863L96.9219 3.75843C96.8624 3.75843 96.7944 3.82677 96.7265 3.82677C96.6585 3.82677 96.65 3.8951 96.5905 3.96344C96.531 4.03178 96.4545 4.03178 96.3866 4.10012H96.3016L96.1656 4.23679L96.0297 4.37347L95.7662 4.61265L95.5623 4.81767C95.5249 4.85414 95.5009 4.90234 95.4943 4.95434L95.3584 5.09102C95.3224 5.12857 95.2987 5.17625 95.2904 5.2277C95.2224 5.29603 95.1544 5.36437 95.1544 5.42417C95.1308 5.45459 95.1135 5.48944 95.1034 5.52667C95.0944 5.56314 95.0944 5.60126 95.1034 5.63772L94.9675 5.8342C94.9675 5.90253 94.908 5.97087 94.908 6.03921C94.8685 6.07524 94.8416 6.1232 94.8315 6.17589C94.8402 6.21239 94.8402 6.25043 94.8315 6.28693C94.82 6.32283 94.7995 6.35517 94.772 6.3809V6.58591C94.7471 6.61214 94.7295 6.64457 94.721 6.67988C94.713 6.71645 94.713 6.75436 94.721 6.79093V7.00448C94.721 7.07282 94.721 7.14116 94.6616 7.14116V50.9117C94.6331 51.4646 94.7199 52.0174 94.9165 52.5347C95.109 53.0362 95.3977 53.4948 95.7662 53.8844C96.3477 54.463 97.0862 54.8562 97.8891 55.0146C98.692 55.173 99.5235 55.0896 100.279 54.7749C101.035 54.4602 101.682 53.9281 102.138 53.2454C102.595 52.5627 102.84 51.7598 102.845 50.9373V19.6128L128.753 53.4316V53.5C128.821 53.5683 128.889 53.705 129.008 53.7648C129.076 53.9014 129.212 53.9612 129.28 54.021C129.348 54.0808 129.416 54.0894 129.416 54.1577C129.416 54.2261 129.552 54.226 129.68 54.2944C129.68 54.3627 129.748 54.3627 129.816 54.3627C129.884 54.3627 129.952 54.4994 130.02 54.4994C130.047 54.5242 130.079 54.5444 130.113 54.5592C130.149 54.5676 130.187 54.5676 130.224 54.5592C130.292 54.6275 130.359 54.6959 130.427 54.6959C130.479 54.7042 130.526 54.7281 130.563 54.7642C130.699 54.7642 130.767 54.8326 130.903 54.8326C131.039 54.8326 130.971 54.8325 131.039 54.9009H131.371L131.439 54.9692H131.915C132.099 54.9855 132.284 54.9623 132.458 54.9009H132.594C132.804 54.8899 133.011 54.8437 133.206 54.7642H133.274C133.478 54.6959 133.614 54.5592 133.818 54.4909C134.009 54.3933 134.191 54.279 134.362 54.1492H134.43C134.431 54.1135 134.446 54.0797 134.472 54.0552C134.503 54.0459 134.535 54.0459 134.566 54.0552C134.634 53.9869 134.634 53.9185 134.702 53.9185C134.77 53.9185 134.77 53.7819 134.838 53.7819C134.906 53.7819 134.974 53.6537 134.974 53.5768C134.974 53.5 135.033 53.5085 135.101 53.4402C135.169 53.3718 135.169 53.3718 135.246 53.312C135.245 53.2854 135.251 53.259 135.263 53.2351C135.274 53.2113 135.292 53.1908 135.314 53.1754L135.475 52.996C135.475 52.9276 135.543 52.8678 135.543 52.7995C135.566 52.7721 135.584 52.7401 135.594 52.7055C135.601 52.6689 135.601 52.6311 135.594 52.5945L135.73 52.3895C135.729 52.3628 135.735 52.3364 135.747 52.3126C135.759 52.2887 135.776 52.2682 135.798 52.2528V52.0478C135.823 52.0198 135.843 51.9881 135.857 51.9538C135.862 51.9169 135.862 51.8797 135.857 51.8428C135.849 51.8062 135.849 51.7683 135.857 51.7317C135.872 51.6974 135.892 51.6657 135.917 51.6377V51.0227H135.968V11.7283H143.497V50.98C143.497 52.0743 143.929 53.1237 144.699 53.8974C145.468 54.6712 146.512 55.1059 147.601 55.1059C148.689 55.1059 149.733 54.6712 150.503 53.8974C151.273 53.1237 151.705 52.0743 151.705 50.98V11.6344H164.451C165.54 11.6344 166.584 11.1997 167.354 10.4259C168.123 9.65218 168.556 8.60274 168.556 7.50848C168.556 6.41422 168.123 5.36478 167.354 4.59102C166.584 3.81726 165.54 3.38257 164.451 3.38257H164.715Z" fill="#344254"/>
<path d="M198.696 58.13C198.19 58.1296 197.692 57.9992 197.25 57.7512C196.808 57.5033 196.436 57.1459 196.17 56.7131C195.903 56.2802 195.751 55.7862 195.728 55.2777C195.705 54.7693 195.811 54.2633 196.037 53.8076C197.741 50.3884 199.124 46.8164 200.166 43.1384C200.258 42.7452 200.428 42.3749 200.666 42.0496C200.905 41.7244 201.206 41.451 201.552 41.246C201.898 41.041 202.282 40.9085 202.68 40.8567C203.078 40.8049 203.483 40.8348 203.87 40.9445C204.256 41.0542 204.617 41.2415 204.929 41.4951C205.242 41.7487 205.5 42.0634 205.689 42.4201C205.877 42.7768 205.992 43.1681 206.025 43.5705C206.059 43.9729 206.011 44.378 205.885 44.7614C204.749 48.8163 203.235 52.7546 201.364 56.5241C201.109 57.012 200.725 57.4198 200.254 57.703C199.784 57.9863 199.245 58.134 198.696 58.13ZM185.84 57.3356C185.28 57.3325 184.733 57.1728 184.259 56.8743C183.593 56.4523 183.12 55.7818 182.945 55.0099C182.77 54.238 182.906 53.4278 183.324 52.7569C188.252 44.8478 190.861 35.7022 190.853 26.3699C190.853 25.577 191.166 24.8165 191.724 24.2558C192.282 23.6951 193.038 23.3801 193.827 23.3801C194.616 23.3801 195.372 23.6951 195.93 24.2558C196.488 24.8165 196.801 25.577 196.801 26.3699C196.822 36.8298 193.906 47.0833 188.389 55.9517C188.116 56.3812 187.739 56.7336 187.293 56.9757C186.847 57.2179 186.346 57.3417 185.84 57.3356ZM175.872 51.356C175.347 51.3549 174.832 51.2141 174.379 50.948C173.926 50.682 173.55 50.3001 173.291 49.8411C173.033 49.3821 172.899 48.8625 172.905 48.3349C172.91 47.8073 173.054 47.2906 173.323 46.8372L173.476 46.5724C177.273 40.5237 179.28 33.5138 179.263 26.3614C179.216 24.4083 179.558 22.4656 180.269 20.6474C180.98 18.8292 182.046 17.1724 183.403 15.7744C184.761 14.3764 186.382 13.2655 188.173 12.5069C189.964 11.7484 191.888 11.3577 193.831 11.3577C195.775 11.3577 197.699 11.7484 199.49 12.5069C201.281 13.2655 202.902 14.3764 204.26 15.7744C205.617 17.1724 206.683 18.8292 207.394 20.6474C208.105 22.4656 208.447 24.4083 208.4 26.3614C208.4 29.4298 208.196 32.4948 207.789 35.5358C207.683 36.3219 207.27 37.0336 206.643 37.5142C206.015 37.9947 205.223 38.2049 204.441 38.0984C203.659 37.992 202.951 37.5775 202.473 36.9464C201.994 36.3152 201.785 35.5189 201.891 34.7328C202.265 31.9581 202.452 29.1613 202.452 26.3614C202.488 25.2004 202.292 24.044 201.875 22.9607C201.458 21.8775 200.829 20.8895 200.025 20.0554C199.221 19.2213 198.258 18.5581 197.195 18.1052C196.131 17.6523 194.987 17.4189 193.831 17.4189C192.676 17.4189 191.532 17.6523 190.468 18.1052C189.404 18.5581 188.442 19.2213 187.638 20.0554C186.834 20.8895 186.204 21.8775 185.788 22.9607C185.371 24.044 185.175 25.2004 185.211 26.3614C185.231 34.6162 182.924 42.7079 178.557 49.6988L178.438 49.9038C178.175 50.3504 177.801 50.7205 177.352 50.9781C176.904 51.2356 176.397 51.3717 175.881 51.3731L175.872 51.356ZM214.111 50.1857C213.66 50.1739 213.217 50.0588 212.817 49.8492C212.417 49.6396 212.07 49.3409 211.802 48.976C211.534 48.6111 211.352 48.1895 211.271 47.7433C211.189 47.2972 211.21 46.8383 211.332 46.4015C213.164 39.8838 214.09 33.1428 214.085 26.3699C214.09 23.6938 213.569 21.0431 212.554 18.5695C211.538 16.0958 210.047 13.8477 208.166 11.9538C206.286 10.06 204.052 8.55749 201.593 7.53236C199.134 6.50723 196.498 5.97957 193.836 5.97958C190.285 5.98254 186.797 6.92531 183.724 8.7131C183.041 9.1107 182.229 9.21932 181.466 9.01507C180.704 8.81082 180.053 8.31042 179.658 7.62396C179.262 6.9375 179.154 6.12121 179.357 5.35466C179.56 4.58811 180.058 3.9341 180.741 3.53649C184.72 1.21916 189.237 -0.000796683 193.836 3.90332e-07C200.785 0.0113198 207.444 2.79656 212.351 7.74324C217.257 12.6899 220.009 19.393 219.999 26.3785C220.004 33.7005 219.001 40.9879 217.017 48.0331C216.839 48.6587 216.464 49.209 215.947 49.6006C215.43 49.9922 214.8 50.2036 214.153 50.2028L214.111 50.1857ZM167.74 42.1133C167.292 42.1141 166.851 42.0118 166.448 41.8143C165.739 41.4695 165.194 40.8558 164.935 40.1078C164.675 39.3598 164.721 38.5388 165.063 37.8251C166.785 34.2549 167.674 30.3373 167.663 26.3699C167.665 21.7444 168.872 17.2 171.164 13.1892C171.559 12.5016 172.209 11.9997 172.971 11.7939C173.734 11.588 174.547 11.6951 175.23 12.0916C175.914 12.488 176.414 13.1414 176.619 13.908C176.823 14.6745 176.717 15.4914 176.322 16.179C174.544 19.2777 173.609 22.7926 173.612 26.3699C173.626 31.2402 172.533 36.0493 170.417 40.4305C170.174 40.9365 169.794 41.3632 169.32 41.661C168.847 41.9589 168.299 42.1157 167.74 42.1133Z" fill="#2253D5"/>
</g>
<defs>
<clipPath id="clip0_1662_105263">
<rect width="220" height="58.13" fill="white"/>
</clipPath>
</defs>
</svg>
