<svg width="122" height="60" viewBox="0 0 122 60" fill="none" xmlns="http://www.w3.org/2000/svg">
<g clip-path="url(#clip0_454_7967)">
<path d="M11.0692 1.8623H2.54226V2.08802C1.98038 2.12469 1.45296 2.37314 1.06536 2.78374C0.677755 3.19433 0.458522 3.73684 0.451459 4.30286V28.1395C0.446855 28.4348 0.497633 28.7283 0.601136 29.0047C0.762796 29.42 1.04517 29.7768 1.41144 30.0284C1.77771 30.2801 2.21089 30.4149 2.65452 30.4154C3.098 30.4143 3.53089 30.2792 3.89704 30.0276C4.2632 29.776 4.5457 29.4197 4.7079 29.0047C4.81561 28.7295 4.86653 28.4351 4.85758 28.1395V18.7346H10.7558C15.3864 18.7346 19.2687 14.9445 19.2687 10.5148C19.2687 5.80294 15.4987 1.8623 11.0692 1.8623ZM10.7558 14.2485H4.85758V6.34842H11.0692C13.0337 6.34842 14.8111 8.31873 14.8111 10.5007C14.8111 12.4616 12.9401 14.2485 10.7558 14.2485Z" fill="#334155"/>
<path d="M35.1711 1.81056C31.8921 1.80614 28.713 2.94491 26.1756 5.03283C23.6381 7.12075 21.8993 10.0286 21.2554 13.261C20.6116 16.4933 21.1024 19.8501 22.6444 22.7594C24.1864 25.6687 26.6841 27.9504 29.7119 29.2158C32.7397 30.4811 36.1103 30.6519 39.2493 29.6988C42.3882 28.7458 45.1014 26.7281 46.9265 23.9893C48.7515 21.2506 49.5755 17.9604 49.258 14.6794C48.9405 11.3983 47.5013 8.32947 45.1854 5.99572C43.8721 4.67009 42.3115 3.61805 40.5931 2.89988C38.8746 2.18171 37.0321 1.81153 35.1711 1.81056ZM35.1711 25.76C32.9312 25.7698 30.7573 24.9982 29.02 23.5767C27.2828 22.1552 26.0898 20.1719 25.6445 17.965C25.1992 15.7581 25.5292 13.4642 26.5781 11.4745C27.6271 9.48478 29.3301 7.92251 31.3967 7.05408C33.4634 6.18564 35.7657 6.06481 37.911 6.71219C40.0564 7.35957 41.9119 8.73507 43.1613 10.6041C44.4106 12.4732 44.9763 14.7201 44.762 16.9617C44.5477 19.2032 43.5666 21.3006 41.9861 22.8962C41.0928 23.8001 40.0312 24.5183 38.8619 25.0096C37.6926 25.501 36.4384 25.756 35.1711 25.76Z" fill="#334155"/>
<path d="M91.1181 1.86278H73.5545C73.2274 1.79849 72.8903 1.80729 72.5669 1.88855C72.2436 1.96981 71.942 2.12155 71.6835 2.33302C71.4292 2.5491 71.225 2.81849 71.0852 3.1223C70.9454 3.42611 70.8734 3.75699 70.8743 4.09173V21.3449L56.6176 2.72803C56.6176 2.69041 56.6176 2.69041 56.5802 2.69041C56.5428 2.69041 56.5427 2.61517 56.5053 2.57755L56.4398 2.50231L56.365 2.42707L56.2902 2.35183C56.2528 2.35183 56.2527 2.31422 56.2153 2.31422C56.1779 2.31422 56.1405 2.23898 56.1031 2.23898C56.0657 2.23898 56.0657 2.20136 56.0282 2.16374C55.9908 2.12612 55.9534 2.12612 55.916 2.12612L55.8411 2.05088C55.8037 2.05088 55.7663 2.01326 55.7289 2.01326C55.6915 2.01326 55.654 1.97564 55.6166 1.97564C55.5889 1.96983 55.5631 1.95687 55.5418 1.93802L55.4015 1.9004C55.3728 1.89757 55.3461 1.88417 55.3266 1.86278H55.2144C55.1944 1.86741 55.1736 1.86741 55.1536 1.86278C55.1348 1.85464 55.1174 1.84353 55.1021 1.82987H54.6344C54.6143 1.8254 54.5936 1.8254 54.5736 1.82987C54.5542 1.83452 54.5365 1.84426 54.5221 1.85808H54.349C54.3303 1.86622 54.3129 1.87734 54.2976 1.891H54.1853C54.17 1.90466 54.1527 1.91577 54.1339 1.92391H54.1011C54.0637 1.96153 54.0637 1.96153 54.0263 1.96153L53.914 2.03677C53.894 2.0323 53.8733 2.0323 53.8532 2.03677L53.8018 2.06969C53.769 2.06969 53.7316 2.10731 53.6942 2.10731C53.6568 2.10731 53.6521 2.14493 53.6194 2.18255C53.5866 2.22017 53.5445 2.22017 53.5071 2.25779H53.4603L53.3855 2.33302L53.3107 2.40826L53.1657 2.53993L53.0534 2.65279C53.0328 2.67287 53.0196 2.6994 53.016 2.72803L52.9411 2.80327C52.9214 2.82394 52.9083 2.85018 52.9037 2.87851C52.8663 2.91613 52.8289 2.95374 52.8289 2.98666C52.8159 3.00341 52.8064 3.02259 52.8008 3.04309C52.7959 3.06316 52.7959 3.08415 52.8008 3.10422L52.726 3.21238C52.726 3.25 52.6932 3.28762 52.6932 3.32524C52.6715 3.34507 52.6567 3.37147 52.6511 3.40048C52.6559 3.42057 52.6559 3.44151 52.6511 3.46161C52.6448 3.48137 52.6335 3.49917 52.6184 3.51333V3.62619C52.6047 3.64063 52.595 3.65848 52.5903 3.67792C52.5859 3.69805 52.5859 3.71892 52.5903 3.73905V3.85661C52.5903 3.89423 52.5903 3.93185 52.5576 3.93185V28.0271C52.5419 28.3315 52.5897 28.6358 52.6979 28.9205C52.8039 29.1966 52.9628 29.4491 53.1657 29.6635C53.4857 29.982 53.8922 30.1985 54.3342 30.2857C54.7761 30.3729 55.2338 30.327 55.6499 30.1537C56.066 29.9805 56.422 29.6876 56.6732 29.3118C56.9244 28.936 57.0596 28.494 57.0619 28.0412V10.7974L71.3234 29.4143V29.4519C71.3608 29.4895 71.3982 29.5648 71.4637 29.5977C71.5011 29.6729 71.5759 29.7058 71.6134 29.7388C71.6508 29.7717 71.6882 29.7764 71.6882 29.814C71.6882 29.8516 71.763 29.8516 71.8332 29.8892C71.8332 29.9269 71.8706 29.9269 71.908 29.9269C71.9455 29.9269 71.9829 30.0021 72.0203 30.0021C72.0356 30.0158 72.053 30.0269 72.0717 30.035C72.0917 30.0396 72.1125 30.0396 72.1325 30.035C72.17 30.0726 72.2074 30.1102 72.2448 30.1102C72.273 30.1148 72.2991 30.128 72.3196 30.1479C72.3945 30.1479 72.4319 30.1855 72.5067 30.1855C72.5816 30.1855 72.5442 30.1855 72.5816 30.2231H72.764L72.8014 30.2607H73.0633C73.1647 30.2697 73.2667 30.2569 73.3627 30.2231H73.4375C73.5532 30.2171 73.667 30.1917 73.7743 30.1479H73.8117C73.924 30.1102 73.9988 30.035 74.1111 29.9974C74.2162 29.9437 74.3164 29.8808 74.4104 29.8093H74.4479C74.4486 29.7896 74.457 29.7711 74.4713 29.7576C74.488 29.7525 74.5059 29.7525 74.5227 29.7576C74.5601 29.7199 74.5601 29.6823 74.5975 29.6823C74.635 29.6823 74.635 29.6071 74.6724 29.6071C74.7098 29.6071 74.7472 29.5366 74.7472 29.4942C74.7472 29.4519 74.78 29.4566 74.8174 29.419C74.8548 29.3814 74.8548 29.3814 74.8969 29.3485C74.8965 29.3338 74.8997 29.3193 74.9062 29.3061C74.9128 29.293 74.9224 29.2817 74.9343 29.2732L75.0232 29.1745C75.0232 29.1368 75.0606 29.1039 75.0606 29.0663C75.0735 29.0512 75.083 29.0336 75.0887 29.0146C75.0928 28.9944 75.0928 28.9736 75.0887 28.9535L75.1635 28.8406C75.1631 28.8259 75.1663 28.8114 75.1729 28.7983C75.1794 28.7851 75.189 28.7738 75.2009 28.7654V28.6525C75.2145 28.6371 75.2256 28.6197 75.2337 28.6008C75.236 28.5805 75.236 28.5599 75.2337 28.5396C75.2291 28.5195 75.2291 28.4986 75.2337 28.4785C75.2418 28.4596 75.2528 28.4422 75.2664 28.4268V28.0882H75.2945V6.45705H79.4387V28.0647C79.4387 28.6671 79.6767 29.2448 80.1004 29.6707C80.524 30.0967 81.0987 30.336 81.6978 30.336C82.297 30.336 82.8716 30.0967 83.2953 29.6707C83.719 29.2448 83.957 28.6671 83.957 28.0647V6.40532H90.9731C91.5723 6.40532 92.1469 6.16603 92.5706 5.74009C92.9943 5.31414 93.2323 4.73643 93.2323 4.13405C93.2323 3.53168 92.9943 2.95397 92.5706 2.52802C92.1469 2.10208 91.5723 1.86278 90.9731 1.86278H91.1181Z" fill="#334155"/>
<path d="M109.823 32C109.544 31.9998 109.27 31.928 109.027 31.7915C108.783 31.655 108.579 31.4583 108.432 31.22C108.285 30.9817 108.202 30.7097 108.189 30.4298C108.176 30.1499 108.235 29.8714 108.359 29.6206C109.297 27.7383 110.058 25.772 110.632 23.7472C110.683 23.5308 110.776 23.3269 110.907 23.1479C111.038 22.9689 111.204 22.8184 111.395 22.7055C111.585 22.5926 111.796 22.5198 112.016 22.4912C112.235 22.4627 112.458 22.4791 112.671 22.5395C112.883 22.5999 113.082 22.703 113.254 22.8427C113.426 22.9823 113.568 23.1555 113.672 23.3518C113.775 23.5482 113.838 23.7636 113.857 23.9851C113.876 24.2067 113.849 24.4297 113.78 24.6407C113.154 26.8729 112.321 29.0409 111.292 31.1159C111.151 31.3845 110.939 31.609 110.68 31.765C110.421 31.9209 110.125 32.0022 109.823 32ZM102.746 31.5627C102.438 31.561 102.137 31.4731 101.876 31.3087C101.509 31.0764 101.249 30.7073 101.152 30.2824C101.056 29.8575 101.131 29.4115 101.361 29.0422C104.074 24.6883 105.51 19.6537 105.506 14.5164C105.506 14.0799 105.678 13.6613 105.985 13.3526C106.292 13.0439 106.708 12.8705 107.143 12.8705C107.577 12.8705 107.993 13.0439 108.3 13.3526C108.607 13.6613 108.78 14.0799 108.78 14.5164C108.791 20.2745 107.186 25.9189 104.149 30.8009C103.999 31.0373 103.791 31.2313 103.546 31.3646C103.3 31.4979 103.025 31.566 102.746 31.5627ZM97.2593 28.271C96.9704 28.2703 96.6868 28.1929 96.4373 28.0464C96.1878 27.8999 95.9814 27.6897 95.8388 27.437C95.6963 27.1844 95.6228 26.8983 95.6259 26.6079C95.6289 26.3174 95.7083 26.033 95.8561 25.7834L95.9403 25.6376C98.0304 22.3079 99.1352 18.449 99.1256 14.5117C99.0998 13.4365 99.2881 12.3671 99.6795 11.3662C100.071 10.3653 100.657 9.45324 101.405 8.68365C102.152 7.91406 103.045 7.3025 104.031 6.88495C105.016 6.4674 106.075 6.2523 107.145 6.2523C108.215 6.2523 109.274 6.4674 110.259 6.88495C111.245 7.3025 112.138 7.91406 112.885 8.68365C113.633 9.45324 114.219 10.3653 114.611 11.3662C115.002 12.3671 115.19 13.4365 115.164 14.5117C115.164 16.2008 115.052 17.888 114.828 19.5621C114.769 19.9949 114.542 20.3866 114.197 20.6512C113.851 20.9157 113.415 21.0314 112.985 20.9728C112.554 20.9142 112.165 20.6861 111.901 20.3386C111.638 19.9911 111.523 19.5528 111.582 19.1201C111.787 17.5926 111.89 16.053 111.89 14.5117C111.91 13.8726 111.802 13.236 111.573 12.6397C111.343 12.0433 110.997 11.4994 110.554 11.0403C110.112 10.5811 109.582 10.216 108.996 9.96671C108.411 9.7174 107.781 9.58893 107.145 9.58893C106.509 9.58893 105.879 9.7174 105.294 9.96671C104.708 10.216 104.178 10.5811 103.736 11.0403C103.293 11.4994 102.947 12.0433 102.717 12.6397C102.488 13.236 102.38 13.8726 102.4 14.5117C102.411 19.0559 101.141 23.5103 98.7374 27.3587L98.6719 27.4716C98.5269 27.7174 98.321 27.9211 98.0742 28.0629C97.8274 28.2047 97.5482 28.2796 97.264 28.2804L97.2593 28.271ZM118.308 27.6267C118.059 27.6203 117.816 27.5569 117.596 27.4415C117.375 27.3261 117.184 27.1617 117.037 26.9608C116.889 26.7599 116.789 26.5278 116.744 26.2822C116.7 26.0366 116.711 25.784 116.778 25.5436C117.786 21.9557 118.296 18.2448 118.294 14.5164C118.296 13.0432 118.01 11.584 117.451 10.2223C116.891 8.86057 116.071 7.62303 115.036 6.58047C114 5.53792 112.771 4.71081 111.417 4.14649C110.064 3.58217 108.613 3.2917 107.147 3.2917C105.193 3.29333 103.273 3.81232 101.581 4.79647C101.205 5.01535 100.758 5.07515 100.339 4.96271C99.9189 4.85027 99.5608 4.5748 99.3431 4.19691C99.1254 3.81902 99.0659 3.36966 99.1777 2.94769C99.2896 2.52571 99.5636 2.16568 99.9395 1.9468C102.13 0.671136 104.616 -0.000438566 107.147 2.14874e-07C110.972 0.00623146 114.638 1.53948 117.339 4.26258C120.04 6.98567 121.554 10.6757 121.549 14.5211C121.552 18.5518 120.999 22.5634 119.907 26.4417C119.81 26.7861 119.603 27.0891 119.318 27.3046C119.034 27.5202 118.687 27.6366 118.331 27.6362L118.308 27.6267ZM92.783 23.183C92.5366 23.1834 92.2934 23.1271 92.0721 23.0184C91.6815 22.8286 91.3819 22.4907 91.2389 22.0789C91.096 21.6672 91.1214 21.2152 91.3096 20.8223C92.2572 18.857 92.7467 16.7004 92.7409 14.5164C92.7419 11.9701 93.4063 9.46844 94.668 7.26054C94.8851 6.88203 95.2429 6.60572 95.6626 6.4924C96.0823 6.37908 96.5297 6.43803 96.9062 6.65628C97.2827 6.87454 97.5575 7.23421 97.6702 7.65619C97.7829 8.07817 97.7243 8.52788 97.5072 8.90639C96.5284 10.6122 96.0137 12.5471 96.0151 14.5164C96.0227 17.1974 95.4212 19.8448 94.2564 22.2566C94.123 22.5352 93.9137 22.77 93.653 22.934C93.3922 23.0979 93.0906 23.1843 92.783 23.183Z" fill="#1D4ED8"/>
</g>
<path d="M13.9171 43H12.1557C12.0516 42.4934 11.8693 42.0483 11.6088 41.6648C11.3532 41.2812 11.0407 40.9593 10.6713 40.6989C10.3068 40.4337 9.90193 40.2348 9.45685 40.1023C9.01178 39.9697 8.54776 39.9034 8.06481 39.9034C7.18413 39.9034 6.3863 40.1259 5.67134 40.571C4.96112 41.0161 4.3953 41.6719 3.9739 42.5384C3.55723 43.4048 3.3489 44.4678 3.3489 45.7273C3.3489 46.9867 3.55723 48.0497 3.9739 48.9162C4.3953 49.7827 4.96112 50.4384 5.67134 50.8835C6.3863 51.3286 7.18413 51.5511 8.06481 51.5511C8.54776 51.5511 9.01178 51.4848 9.45685 51.3523C9.90193 51.2197 10.3068 51.0232 10.6713 50.7628C11.0407 50.4976 11.3532 50.1733 11.6088 49.7898C11.8693 49.4015 12.0516 48.9564 12.1557 48.4545H13.9171C13.7845 49.1979 13.543 49.8632 13.1926 50.4503C12.8423 51.0374 12.4067 51.5369 11.8858 51.9489C11.365 52.3561 10.7802 52.6662 10.1316 52.8793C9.48763 53.0923 8.79871 53.1989 8.06481 53.1989C6.82428 53.1989 5.72106 52.8958 4.75515 52.2898C3.78924 51.6837 3.0293 50.822 2.47532 49.7045C1.92134 48.5871 1.64435 47.2614 1.64435 45.7273C1.64435 44.1932 1.92134 42.8674 2.47532 41.75C3.0293 40.6326 3.78924 39.7708 4.75515 39.1648C5.72106 38.5587 6.82428 38.2557 8.06481 38.2557C8.79871 38.2557 9.48763 38.3622 10.1316 38.5753C10.7802 38.7884 11.365 39.1009 11.8858 39.5128C12.4067 39.92 12.8423 40.4171 13.1926 41.0043C13.543 41.5866 13.7845 42.2519 13.9171 43ZM20.9679 53.2273C19.983 53.2273 19.1189 52.9929 18.3755 52.5241C17.6369 52.0554 17.0592 51.3996 16.6426 50.5568C16.2306 49.714 16.0247 48.7292 16.0247 47.6023C16.0247 46.4659 16.2306 45.474 16.6426 44.6264C17.0592 43.7789 17.6369 43.1207 18.3755 42.652C19.1189 42.1832 19.983 41.9489 20.9679 41.9489C21.9527 41.9489 22.8145 42.1832 23.5531 42.652C24.2965 43.1207 24.8741 43.7789 25.286 44.6264C25.7027 45.474 25.911 46.4659 25.911 47.6023C25.911 48.7292 25.7027 49.714 25.286 50.5568C24.8741 51.3996 24.2965 52.0554 23.5531 52.5241C22.8145 52.9929 21.9527 53.2273 20.9679 53.2273ZM20.9679 51.7216C21.716 51.7216 22.3315 51.5298 22.8145 51.1463C23.2974 50.7628 23.6549 50.2585 23.8869 49.6335C24.1189 49.0085 24.2349 48.3314 24.2349 47.6023C24.2349 46.8731 24.1189 46.1937 23.8869 45.5639C23.6549 44.9342 23.2974 44.4252 22.8145 44.0369C22.3315 43.6487 21.716 43.4545 20.9679 43.4545C20.2198 43.4545 19.6042 43.6487 19.1213 44.0369C18.6383 44.4252 18.2808 44.9342 18.0488 45.5639C17.8168 46.1937 17.7008 46.8731 17.7008 47.6023C17.7008 48.3314 17.8168 49.0085 18.0488 49.6335C18.2808 50.2585 18.6383 50.7628 19.1213 51.1463C19.6042 51.5298 20.2198 51.7216 20.9679 51.7216ZM30.1458 38.4545V53H28.4696V38.4545H30.1458ZM36.426 53.2557C35.7347 53.2557 35.1073 53.1255 34.5439 52.8651C33.9804 52.5999 33.533 52.2188 33.2015 51.7216C32.8701 51.2197 32.7044 50.6136 32.7044 49.9034C32.7044 49.2784 32.8275 48.7718 33.0737 48.3835C33.3199 47.9905 33.649 47.6828 34.0609 47.4602C34.4728 47.2377 34.9274 47.072 35.4245 46.9631C35.9264 46.8494 36.4307 46.7595 36.9373 46.6932C37.6002 46.608 38.1376 46.544 38.5495 46.5014C38.9662 46.4541 39.2692 46.3759 39.4586 46.267C39.6528 46.1581 39.7498 45.9687 39.7498 45.6989V45.642C39.7498 44.9413 39.5581 44.3968 39.1745 44.0085C38.7958 43.6203 38.2205 43.4261 37.4487 43.4261C36.6485 43.4261 36.0211 43.6013 35.5666 43.9517C35.112 44.3021 34.7924 44.6761 34.6078 45.0739L33.0169 44.5057C33.301 43.8428 33.6797 43.3267 34.1532 42.9574C34.6315 42.5833 35.1523 42.3229 35.7157 42.1761C36.2839 42.0246 36.8426 41.9489 37.3919 41.9489C37.7422 41.9489 38.1447 41.9915 38.5993 42.0767C39.0585 42.1572 39.5012 42.3253 39.9274 42.581C40.3583 42.8366 40.7157 43.2225 40.9998 43.7386C41.2839 44.2547 41.426 44.946 41.426 45.8125V53H39.7498V51.5227H39.6646C39.551 51.7595 39.3616 52.0128 39.0964 52.2827C38.8313 52.5526 38.4785 52.7822 38.0382 52.9716C37.5978 53.161 37.0604 53.2557 36.426 53.2557ZM36.6816 51.75C37.3445 51.75 37.9032 51.6198 38.3578 51.3594C38.8171 51.099 39.1627 50.7628 39.3947 50.3509C39.6315 49.9389 39.7498 49.5057 39.7498 49.0511V47.517C39.6788 47.6023 39.5225 47.6804 39.2811 47.7514C39.0443 47.8177 38.7697 47.8769 38.4572 47.929C38.1494 47.9763 37.8488 48.0189 37.5552 48.0568C37.2664 48.09 37.032 48.1184 36.8521 48.142C36.4165 48.1989 36.0093 48.2912 35.6305 48.419C35.2565 48.5421 34.9534 48.7292 34.7214 48.9801C34.4941 49.2263 34.3805 49.5625 34.3805 49.9886C34.3805 50.571 34.5959 51.0114 35.0268 51.3097C35.4624 51.6032 36.014 51.75 36.6816 51.75ZM44.7125 53V38.4545H46.3887V43.8239H46.5307C46.6538 43.6345 46.8243 43.393 47.0421 43.0994C47.2646 42.8011 47.5819 42.536 47.9938 42.304C48.4105 42.0672 48.9739 41.9489 49.6841 41.9489C50.6027 41.9489 51.4123 42.1785 52.1131 42.6378C52.8139 43.0971 53.3607 43.7481 53.7537 44.5909C54.1467 45.4337 54.3432 46.428 54.3432 47.5739C54.3432 48.7292 54.1467 49.7306 53.7537 50.5781C53.3607 51.4209 52.8162 52.0743 52.1202 52.5384C51.4242 52.9976 50.6216 53.2273 49.7125 53.2273C49.0118 53.2273 48.4507 53.1113 48.0293 52.8793C47.6079 52.6425 47.2836 52.375 47.0563 52.0767C46.829 51.7737 46.6538 51.5227 46.5307 51.3239H46.3319V53H44.7125ZM46.3603 47.5455C46.3603 48.3693 46.481 49.0961 46.7225 49.7259C46.964 50.3509 47.3167 50.8409 47.7807 51.196C48.2447 51.5464 48.8129 51.7216 49.4853 51.7216C50.186 51.7216 50.7708 51.5369 51.2395 51.1676C51.713 50.7936 52.0681 50.2917 52.3049 49.6619C52.5463 49.0275 52.6671 48.322 52.6671 47.5455C52.6671 46.7784 52.5487 46.0871 52.312 45.4716C52.08 44.8513 51.7272 44.3613 51.2537 44.0014C50.785 43.6368 50.1955 43.4545 49.4853 43.4545C48.8034 43.4545 48.2305 43.6274 47.7665 43.973C47.3025 44.3139 46.9521 44.7921 46.7154 45.4077C46.4786 46.0185 46.3603 46.7311 46.3603 47.5455ZM61.339 53.2273C60.3541 53.2273 59.49 52.9929 58.7466 52.5241C58.008 52.0554 57.4303 51.3996 57.0137 50.5568C56.6017 49.714 56.3958 48.7292 56.3958 47.6023C56.3958 46.4659 56.6017 45.474 57.0137 44.6264C57.4303 43.7789 58.008 43.1207 58.7466 42.652C59.49 42.1832 60.3541 41.9489 61.339 41.9489C62.3238 41.9489 63.1855 42.1832 63.9242 42.652C64.6676 43.1207 65.2452 43.7789 65.6571 44.6264C66.0738 45.474 66.2821 46.4659 66.2821 47.6023C66.2821 48.7292 66.0738 49.714 65.6571 50.5568C65.2452 51.3996 64.6676 52.0554 63.9242 52.5241C63.1855 52.9929 62.3238 53.2273 61.339 53.2273ZM61.339 51.7216C62.0871 51.7216 62.7026 51.5298 63.1855 51.1463C63.6685 50.7628 64.026 50.2585 64.258 49.6335C64.49 49.0085 64.606 48.3314 64.606 47.6023C64.606 46.8731 64.49 46.1937 64.258 45.5639C64.026 44.9342 63.6685 44.4252 63.1855 44.0369C62.7026 43.6487 62.0871 43.4545 61.339 43.4545C60.5908 43.4545 59.9753 43.6487 59.4924 44.0369C59.0094 44.4252 58.6519 44.9342 58.4199 45.5639C58.1879 46.1937 58.0719 46.8731 58.0719 47.6023C58.0719 48.3314 58.1879 49.0085 58.4199 49.6335C58.6519 50.2585 59.0094 50.7628 59.4924 51.1463C59.9753 51.5298 60.5908 51.7216 61.339 51.7216ZM68.8407 53V42.0909H70.46V43.7386H70.5737C70.7725 43.1989 71.1324 42.7609 71.6532 42.4247C72.1741 42.0885 72.7612 41.9205 73.4146 41.9205C73.5377 41.9205 73.6916 41.9228 73.8762 41.9276C74.0609 41.9323 74.2006 41.9394 74.2953 41.9489V43.6534C74.2385 43.6392 74.1083 43.6179 73.9047 43.5895C73.7058 43.5563 73.4951 43.5398 73.2725 43.5398C72.7422 43.5398 72.2688 43.651 71.8521 43.8736C71.4402 44.0914 71.1135 44.3944 70.872 44.7827C70.6352 45.1662 70.5169 45.6042 70.5169 46.0966V53H68.8407ZM79.4924 53.2557C78.8011 53.2557 78.1737 53.1255 77.6103 52.8651C77.0468 52.5999 76.5994 52.2188 76.2679 51.7216C75.9365 51.2197 75.7708 50.6136 75.7708 49.9034C75.7708 49.2784 75.8939 48.7718 76.1401 48.3835C76.3863 47.9905 76.7154 47.6828 77.1273 47.4602C77.5392 47.2377 77.9938 47.072 78.4909 46.9631C78.9928 46.8494 79.4971 46.7595 80.0037 46.6932C80.6666 46.608 81.204 46.544 81.6159 46.5014C82.0326 46.4541 82.3356 46.3759 82.525 46.267C82.7192 46.1581 82.8162 45.9687 82.8162 45.6989V45.642C82.8162 44.9413 82.6245 44.3968 82.2409 44.0085C81.8622 43.6203 81.2869 43.4261 80.5151 43.4261C79.7149 43.4261 79.0875 43.6013 78.633 43.9517C78.1784 44.3021 77.8588 44.6761 77.6742 45.0739L76.0833 44.5057C76.3674 43.8428 76.7462 43.3267 77.2196 42.9574C77.6979 42.5833 78.2187 42.3229 78.7821 42.1761C79.3503 42.0246 79.909 41.9489 80.4583 41.9489C80.8087 41.9489 81.2111 41.9915 81.6657 42.0767C82.1249 42.1572 82.5676 42.3253 82.9938 42.581C83.4247 42.8366 83.7821 43.2225 84.0662 43.7386C84.3503 44.2547 84.4924 44.946 84.4924 45.8125V53H82.8162V51.5227H82.731C82.6174 51.7595 82.428 52.0128 82.1628 52.2827C81.8977 52.5526 81.5449 52.7822 81.1046 52.9716C80.6642 53.161 80.1268 53.2557 79.4924 53.2557ZM79.748 51.75C80.4109 51.75 80.9696 51.6198 81.4242 51.3594C81.8835 51.099 82.2291 50.7628 82.4611 50.3509C82.6979 49.9389 82.8162 49.5057 82.8162 49.0511V47.517C82.7452 47.6023 82.589 47.6804 82.3475 47.7514C82.1107 47.8177 81.8361 47.8769 81.5236 47.929C81.2158 47.9763 80.9152 48.0189 80.6216 48.0568C80.3328 48.09 80.0984 48.1184 79.9185 48.142C79.4829 48.1989 79.0757 48.2912 78.6969 48.419C78.3229 48.5421 78.0198 48.7292 77.7878 48.9801C77.5605 49.2263 77.4469 49.5625 77.4469 49.9886C77.4469 50.571 77.6623 51.0114 78.0932 51.3097C78.5288 51.6032 79.0804 51.75 79.748 51.75ZM91.671 53.2273C90.7619 53.2273 89.9593 52.9976 89.2633 52.5384C88.5673 52.0743 88.0228 51.4209 87.6298 50.5781C87.2368 49.7306 87.0403 48.7292 87.0403 47.5739C87.0403 46.428 87.2368 45.4337 87.6298 44.5909C88.0228 43.7481 88.5697 43.0971 89.2704 42.6378C89.9712 42.1785 90.7808 41.9489 91.6994 41.9489C92.4096 41.9489 92.9707 42.0672 93.3826 42.304C93.7993 42.536 94.1165 42.8011 94.3343 43.0994C94.5569 43.393 94.7297 43.6345 94.8528 43.8239H94.9949V38.4545H96.671V53H95.0517V51.3239H94.8528C94.7297 51.5227 94.5545 51.7737 94.3272 52.0767C94.1 52.375 93.7756 52.6425 93.3542 52.8793C92.9328 53.1113 92.3717 53.2273 91.671 53.2273ZM91.8983 51.7216C92.5706 51.7216 93.1388 51.5464 93.6028 51.196C94.0668 50.8409 94.4196 50.3509 94.661 49.7259C94.9025 49.0961 95.0233 48.3693 95.0233 47.5455C95.0233 46.7311 94.9049 46.0185 94.6681 45.4077C94.4314 44.7921 94.081 44.3139 93.617 43.973C93.153 43.6274 92.5801 43.4545 91.8983 43.4545C91.188 43.4545 90.5962 43.6368 90.1227 44.0014C89.6539 44.3613 89.3012 44.8513 89.0645 45.4716C88.8324 46.0871 88.7164 46.7784 88.7164 47.5455C88.7164 48.322 88.8348 49.0275 89.0716 49.6619C89.313 50.2917 89.6681 50.7936 90.1369 51.1676C90.6104 51.5369 91.1975 51.7216 91.8983 51.7216ZM104.405 53.2273C103.421 53.2273 102.556 52.9929 101.813 52.5241C101.074 52.0554 100.497 51.3996 100.08 50.5568C99.6681 49.714 99.4622 48.7292 99.4622 47.6023C99.4622 46.4659 99.6681 45.474 100.08 44.6264C100.497 43.7789 101.074 43.1207 101.813 42.652C102.556 42.1832 103.421 41.9489 104.405 41.9489C105.39 41.9489 106.252 42.1832 106.991 42.652C107.734 43.1207 108.312 43.7789 108.724 44.6264C109.14 45.474 109.349 46.4659 109.349 47.6023C109.349 48.7292 109.14 49.714 108.724 50.5568C108.312 51.3996 107.734 52.0554 106.991 52.5241C106.252 52.9929 105.39 53.2273 104.405 53.2273ZM104.405 51.7216C105.153 51.7216 105.769 51.5298 106.252 51.1463C106.735 50.7628 107.092 50.2585 107.324 49.6335C107.556 49.0085 107.672 48.3314 107.672 47.6023C107.672 46.8731 107.556 46.1937 107.324 45.5639C107.092 44.9342 106.735 44.4252 106.252 44.0369C105.769 43.6487 105.153 43.4545 104.405 43.4545C103.657 43.4545 103.042 43.6487 102.559 44.0369C102.076 44.4252 101.718 44.9342 101.486 45.5639C101.254 46.1937 101.138 46.8731 101.138 47.6023C101.138 48.3314 101.254 49.0085 101.486 49.6335C101.718 50.2585 102.076 50.7628 102.559 51.1463C103.042 51.5298 103.657 51.7216 104.405 51.7216ZM111.907 53V42.0909H113.526V43.7386H113.64C113.839 43.1989 114.199 42.7609 114.72 42.4247C115.24 42.0885 115.828 41.9205 116.481 41.9205C116.604 41.9205 116.758 41.9228 116.943 41.9276C117.127 41.9323 117.267 41.9394 117.362 41.9489V43.6534C117.305 43.6392 117.175 43.6179 116.971 43.5895C116.772 43.5563 116.561 43.5398 116.339 43.5398C115.809 43.5398 115.335 43.651 114.919 43.8736C114.507 44.0914 114.18 44.3944 113.938 44.7827C113.702 45.1662 113.583 45.6042 113.583 46.0966V53H111.907Z" fill="#64748B"/>
<defs>
<clipPath id="clip0_454_7967">
<rect width="121.098" height="32" fill="white" transform="translate(0.451172)"/>
</clipPath>
</defs>
</svg>
