<svg width="122" height="60" viewBox="0 0 122 60" fill="none" xmlns="http://www.w3.org/2000/svg">
<g clip-path="url(#clip0_454_7213)">
<path d="M11.0692 1.8623H2.54226V2.08802C1.98038 2.12469 1.45296 2.37314 1.06536 2.78374C0.677755 3.19433 0.458522 3.73684 0.451459 4.30286V28.1395C0.446855 28.4348 0.497633 28.7283 0.601136 29.0047C0.762796 29.42 1.04517 29.7768 1.41144 30.0284C1.77771 30.2801 2.21089 30.4149 2.65452 30.4154C3.098 30.4143 3.53089 30.2792 3.89704 30.0276C4.2632 29.776 4.5457 29.4197 4.7079 29.0047C4.81561 28.7295 4.86653 28.4351 4.85758 28.1395V18.7346H10.7558C15.3864 18.7346 19.2687 14.9445 19.2687 10.5148C19.2687 5.80294 15.4987 1.8623 11.0692 1.8623ZM10.7558 14.2485H4.85758V6.34842H11.0692C13.0337 6.34842 14.8111 8.31873 14.8111 10.5007C14.8111 12.4616 12.9401 14.2485 10.7558 14.2485Z" fill="#334155"/>
<path d="M35.1716 1.81056C31.8926 1.80614 28.7135 2.94491 26.1761 5.03283C23.6386 7.12075 21.8998 10.0286 21.2559 13.261C20.612 16.4933 21.1029 19.8501 22.6449 22.7594C24.1869 25.6687 26.6846 27.9504 29.7124 29.2158C32.7402 30.4811 36.1108 30.6519 39.2498 29.6988C42.3887 28.7458 45.1019 26.7281 46.9269 23.9893C48.752 21.2506 49.576 17.9604 49.2585 14.6794C48.941 11.3983 47.5017 8.32947 45.1859 5.99572C43.8726 4.67009 42.312 3.61805 40.5936 2.89988C38.8751 2.18171 37.0326 1.81153 35.1716 1.81056ZM35.1716 25.76C32.9317 25.7698 30.7578 24.9982 29.0205 23.5767C27.2833 22.1552 26.0903 20.1719 25.645 17.965C25.1997 15.7581 25.5297 13.4642 26.5786 11.4745C27.6276 9.48478 29.3306 7.92251 31.3972 7.05408C33.4639 6.18564 35.7662 6.06481 37.9115 6.71219C40.0569 7.35957 41.9124 8.73507 43.1617 10.6041C44.4111 12.4732 44.9768 14.7201 44.7625 16.9617C44.5482 19.2032 43.5671 21.3006 41.9865 22.8962C41.0933 23.8001 40.0317 24.5183 38.8624 25.0096C37.6931 25.501 36.4389 25.756 35.1716 25.76Z" fill="#334155"/>
<path d="M91.1181 1.86278H73.5545C73.2274 1.79849 72.8903 1.80729 72.5669 1.88855C72.2436 1.96981 71.942 2.12155 71.6835 2.33302C71.4292 2.5491 71.225 2.81849 71.0852 3.1223C70.9454 3.42611 70.8734 3.75699 70.8743 4.09173V21.3449L56.6176 2.72803C56.6176 2.69041 56.6176 2.69041 56.5802 2.69041C56.5428 2.69041 56.5427 2.61517 56.5053 2.57755L56.4398 2.50231L56.365 2.42707L56.2902 2.35183C56.2528 2.35183 56.2527 2.31422 56.2153 2.31422C56.1779 2.31422 56.1405 2.23898 56.1031 2.23898C56.0657 2.23898 56.0657 2.20136 56.0282 2.16374C55.9908 2.12612 55.9534 2.12612 55.916 2.12612L55.8411 2.05088C55.8037 2.05088 55.7663 2.01326 55.7289 2.01326C55.6915 2.01326 55.654 1.97564 55.6166 1.97564C55.5889 1.96983 55.5631 1.95687 55.5418 1.93802L55.4015 1.9004C55.3728 1.89757 55.3461 1.88417 55.3266 1.86278H55.2144C55.1944 1.86741 55.1736 1.86741 55.1536 1.86278C55.1348 1.85464 55.1174 1.84353 55.1021 1.82987H54.6344C54.6143 1.8254 54.5936 1.8254 54.5736 1.82987C54.5542 1.83452 54.5365 1.84426 54.5221 1.85808H54.349C54.3303 1.86622 54.3129 1.87734 54.2976 1.891H54.1853C54.17 1.90466 54.1527 1.91577 54.1339 1.92391H54.1011C54.0637 1.96153 54.0637 1.96153 54.0263 1.96153L53.914 2.03677C53.894 2.0323 53.8733 2.0323 53.8532 2.03677L53.8018 2.06969C53.769 2.06969 53.7316 2.10731 53.6942 2.10731C53.6568 2.10731 53.6521 2.14493 53.6194 2.18255C53.5866 2.22017 53.5445 2.22017 53.5071 2.25779H53.4603L53.3855 2.33302L53.3107 2.40826L53.1657 2.53993L53.0534 2.65279C53.0328 2.67287 53.0196 2.6994 53.016 2.72803L52.9411 2.80327C52.9214 2.82394 52.9083 2.85018 52.9037 2.87851C52.8663 2.91613 52.8289 2.95374 52.8289 2.98666C52.8159 3.00341 52.8064 3.02259 52.8008 3.04309C52.7959 3.06316 52.7959 3.08415 52.8008 3.10422L52.726 3.21238C52.726 3.25 52.6932 3.28762 52.6932 3.32524C52.6715 3.34507 52.6567 3.37147 52.6511 3.40048C52.6559 3.42057 52.6559 3.44151 52.6511 3.46161C52.6448 3.48137 52.6335 3.49917 52.6184 3.51333V3.62619C52.6047 3.64063 52.595 3.65848 52.5903 3.67792C52.5859 3.69805 52.5859 3.71892 52.5903 3.73905V3.85661C52.5903 3.89423 52.5903 3.93185 52.5576 3.93185V28.0271C52.5419 28.3315 52.5897 28.6358 52.6979 28.9205C52.8039 29.1966 52.9628 29.4491 53.1657 29.6635C53.4857 29.982 53.8922 30.1985 54.3342 30.2857C54.7761 30.3729 55.2338 30.327 55.6499 30.1537C56.066 29.9805 56.422 29.6876 56.6732 29.3118C56.9244 28.936 57.0596 28.494 57.0619 28.0412V10.7974L71.3234 29.4143V29.4519C71.3608 29.4895 71.3982 29.5648 71.4637 29.5977C71.5011 29.6729 71.5759 29.7058 71.6134 29.7388C71.6508 29.7717 71.6882 29.7764 71.6882 29.814C71.6882 29.8516 71.763 29.8516 71.8332 29.8892C71.8332 29.9269 71.8706 29.9269 71.908 29.9269C71.9455 29.9269 71.9829 30.0021 72.0203 30.0021C72.0356 30.0158 72.053 30.0269 72.0717 30.035C72.0917 30.0396 72.1125 30.0396 72.1325 30.035C72.17 30.0726 72.2074 30.1102 72.2448 30.1102C72.273 30.1148 72.2991 30.128 72.3196 30.1479C72.3945 30.1479 72.4319 30.1855 72.5067 30.1855C72.5816 30.1855 72.5442 30.1855 72.5816 30.2231H72.764L72.8014 30.2607H73.0633C73.1647 30.2697 73.2667 30.2569 73.3627 30.2231H73.4375C73.5532 30.2171 73.667 30.1917 73.7743 30.1479H73.8117C73.924 30.1102 73.9988 30.035 74.1111 29.9974C74.2162 29.9437 74.3164 29.8808 74.4104 29.8093H74.4479C74.4486 29.7896 74.457 29.7711 74.4713 29.7576C74.488 29.7525 74.5059 29.7525 74.5227 29.7576C74.5601 29.7199 74.5601 29.6823 74.5975 29.6823C74.635 29.6823 74.635 29.6071 74.6724 29.6071C74.7098 29.6071 74.7472 29.5366 74.7472 29.4942C74.7472 29.4519 74.78 29.4566 74.8174 29.419C74.8548 29.3814 74.8548 29.3814 74.8969 29.3485C74.8965 29.3338 74.8997 29.3193 74.9062 29.3061C74.9128 29.293 74.9224 29.2817 74.9343 29.2732L75.0232 29.1745C75.0232 29.1368 75.0606 29.1039 75.0606 29.0663C75.0735 29.0512 75.083 29.0336 75.0887 29.0146C75.0928 28.9944 75.0928 28.9736 75.0887 28.9535L75.1635 28.8406C75.1631 28.8259 75.1663 28.8114 75.1729 28.7983C75.1794 28.7851 75.189 28.7738 75.2009 28.7654V28.6525C75.2145 28.6371 75.2256 28.6197 75.2337 28.6008C75.236 28.5805 75.236 28.5599 75.2337 28.5396C75.2291 28.5195 75.2291 28.4986 75.2337 28.4785C75.2418 28.4596 75.2528 28.4422 75.2664 28.4268V28.0882H75.2945V6.45705H79.4387V28.0647C79.4387 28.6671 79.6767 29.2448 80.1004 29.6707C80.524 30.0967 81.0987 30.336 81.6978 30.336C82.297 30.336 82.8716 30.0967 83.2953 29.6707C83.719 29.2448 83.957 28.6671 83.957 28.0647V6.40532H90.9731C91.5723 6.40532 92.1469 6.16603 92.5706 5.74009C92.9943 5.31414 93.2323 4.73643 93.2323 4.13405C93.2323 3.53168 92.9943 2.95397 92.5706 2.52802C92.1469 2.10208 91.5723 1.86278 90.9731 1.86278H91.1181Z" fill="#334155"/>
<path d="M109.823 32C109.544 31.9998 109.27 31.928 109.027 31.7915C108.783 31.655 108.579 31.4583 108.432 31.22C108.285 30.9817 108.202 30.7097 108.189 30.4298C108.176 30.1499 108.235 29.8714 108.359 29.6206C109.297 27.7383 110.058 25.772 110.632 23.7472C110.683 23.5308 110.776 23.3269 110.907 23.1479C111.038 22.9689 111.204 22.8184 111.395 22.7055C111.585 22.5926 111.796 22.5198 112.016 22.4912C112.235 22.4627 112.458 22.4791 112.671 22.5395C112.883 22.5999 113.082 22.703 113.254 22.8427C113.426 22.9823 113.568 23.1555 113.672 23.3518C113.775 23.5482 113.838 23.7636 113.857 23.9851C113.876 24.2067 113.849 24.4297 113.78 24.6407C113.154 26.8729 112.321 29.0409 111.292 31.1159C111.151 31.3845 110.939 31.609 110.68 31.765C110.421 31.9209 110.125 32.0022 109.823 32ZM102.746 31.5627C102.438 31.561 102.137 31.4731 101.876 31.3087C101.509 31.0764 101.249 30.7073 101.152 30.2824C101.056 29.8575 101.131 29.4115 101.361 29.0422C104.074 24.6883 105.51 19.6537 105.506 14.5164C105.506 14.0799 105.678 13.6613 105.985 13.3526C106.292 13.0439 106.708 12.8705 107.143 12.8705C107.577 12.8705 107.993 13.0439 108.3 13.3526C108.607 13.6613 108.78 14.0799 108.78 14.5164C108.791 20.2745 107.186 25.9189 104.149 30.8009C103.999 31.0373 103.791 31.2313 103.546 31.3646C103.3 31.4979 103.025 31.566 102.746 31.5627ZM97.2593 28.271C96.9704 28.2703 96.6868 28.1929 96.4373 28.0464C96.1878 27.8999 95.9814 27.6897 95.8388 27.437C95.6963 27.1844 95.6228 26.8983 95.6259 26.6079C95.6289 26.3174 95.7083 26.033 95.8561 25.7834L95.9403 25.6376C98.0304 22.3079 99.1352 18.449 99.1256 14.5117C99.0998 13.4365 99.2881 12.3671 99.6795 11.3662C100.071 10.3653 100.657 9.45324 101.405 8.68365C102.152 7.91406 103.045 7.3025 104.031 6.88495C105.016 6.4674 106.075 6.2523 107.145 6.2523C108.215 6.2523 109.274 6.4674 110.259 6.88495C111.245 7.3025 112.138 7.91406 112.885 8.68365C113.633 9.45324 114.219 10.3653 114.611 11.3662C115.002 12.3671 115.19 13.4365 115.164 14.5117C115.164 16.2008 115.052 17.888 114.828 19.5621C114.769 19.9949 114.542 20.3866 114.197 20.6512C113.851 20.9157 113.415 21.0314 112.985 20.9728C112.554 20.9142 112.165 20.6861 111.901 20.3386C111.638 19.9911 111.523 19.5528 111.582 19.1201C111.787 17.5926 111.89 16.053 111.89 14.5117C111.91 13.8726 111.802 13.236 111.573 12.6397C111.343 12.0433 110.997 11.4994 110.554 11.0403C110.112 10.5811 109.582 10.216 108.996 9.96671C108.411 9.7174 107.781 9.58893 107.145 9.58893C106.509 9.58893 105.879 9.7174 105.294 9.96671C104.708 10.216 104.178 10.5811 103.736 11.0403C103.293 11.4994 102.947 12.0433 102.717 12.6397C102.488 13.236 102.38 13.8726 102.4 14.5117C102.411 19.0559 101.141 23.5103 98.7374 27.3587L98.6719 27.4716C98.5269 27.7174 98.321 27.9211 98.0742 28.0629C97.8274 28.2047 97.5482 28.2796 97.264 28.2804L97.2593 28.271ZM118.308 27.6267C118.059 27.6203 117.816 27.5569 117.596 27.4415C117.375 27.3261 117.184 27.1617 117.037 26.9608C116.889 26.7599 116.789 26.5278 116.744 26.2822C116.7 26.0366 116.711 25.784 116.778 25.5436C117.786 21.9557 118.296 18.2448 118.294 14.5164C118.296 13.0432 118.01 11.584 117.451 10.2223C116.891 8.86057 116.071 7.62303 115.036 6.58047C114 5.53792 112.771 4.71081 111.417 4.14649C110.064 3.58217 108.613 3.2917 107.147 3.2917C105.193 3.29333 103.273 3.81232 101.581 4.79647C101.205 5.01535 100.758 5.07515 100.339 4.96271C99.9189 4.85027 99.5608 4.5748 99.3431 4.19691C99.1254 3.81902 99.0659 3.36966 99.1777 2.94769C99.2896 2.52571 99.5636 2.16568 99.9395 1.9468C102.13 0.671136 104.616 -0.000438566 107.147 2.14874e-07C110.972 0.00623146 114.638 1.53948 117.339 4.26258C120.04 6.98567 121.554 10.6757 121.549 14.5211C121.552 18.5518 120.999 22.5634 119.907 26.4417C119.81 26.7861 119.603 27.0891 119.318 27.3046C119.034 27.5202 118.687 27.6366 118.331 27.6362L118.308 27.6267ZM92.783 23.183C92.5366 23.1834 92.2934 23.1271 92.0721 23.0184C91.6815 22.8286 91.3819 22.4907 91.2389 22.0789C91.096 21.6672 91.1214 21.2152 91.3096 20.8223C92.2572 18.857 92.7467 16.7004 92.7409 14.5164C92.7419 11.9701 93.4063 9.46844 94.668 7.26054C94.8851 6.88203 95.2429 6.60572 95.6626 6.4924C96.0823 6.37908 96.5297 6.43803 96.9062 6.65628C97.2827 6.87454 97.5575 7.23421 97.6702 7.65619C97.7829 8.07817 97.7243 8.52788 97.5072 8.90639C96.5284 10.6122 96.0137 12.5471 96.0151 14.5164C96.0227 17.1974 95.4212 19.8448 94.2564 22.2566C94.123 22.5352 93.9137 22.77 93.653 22.934C93.3922 23.0979 93.0906 23.1843 92.783 23.183Z" fill="#1D4ED8"/>
</g>
<path d="M2.21254 53V38.4545H10.9909V40.017H3.9739V44.9318H10.5364V46.4943H3.9739V51.4375H11.1046V53H2.21254ZM15.1384 53V42.0909H16.7577V43.7955H16.8998C17.127 43.2131 17.494 42.7609 18.0006 42.4389C18.5072 42.1122 19.1157 41.9489 19.8259 41.9489C20.5456 41.9489 21.1445 42.1122 21.6228 42.4389C22.1057 42.7609 22.4821 43.2131 22.752 43.7955H22.8657C23.145 43.232 23.5641 42.7846 24.1228 42.4531C24.6815 42.117 25.3515 41.9489 26.1327 41.9489C27.1081 41.9489 27.9059 42.2543 28.5262 42.8651C29.1464 43.4711 29.4566 44.4157 29.4566 45.6989V53H27.7804V45.6989C27.7804 44.8939 27.5603 44.3187 27.1199 43.973C26.6796 43.6274 26.1611 43.4545 25.5645 43.4545C24.7975 43.4545 24.2033 43.6866 23.7819 44.1506C23.3605 44.6098 23.1498 45.1922 23.1498 45.8977V53H21.4452V45.5284C21.4452 44.9081 21.244 44.4086 20.8415 44.0298C20.4391 43.6463 19.9206 43.4545 19.2861 43.4545C18.8505 43.4545 18.4433 43.5705 18.0645 43.8026C17.6905 44.0346 17.3874 44.3565 17.1554 44.7685C16.9282 45.1757 16.8145 45.6468 16.8145 46.1818V53H15.1384ZM33.7212 57.0909V42.0909H35.3405V43.8239H35.5394C35.6625 43.6345 35.8329 43.393 36.0507 43.0994C36.2733 42.8011 36.5905 42.536 37.0024 42.304C37.4191 42.0672 37.9826 41.9489 38.6928 41.9489C39.6114 41.9489 40.421 42.1785 41.1218 42.6378C41.8225 43.0971 42.3694 43.7481 42.7624 44.5909C43.1554 45.4337 43.3519 46.428 43.3519 47.5739C43.3519 48.7292 43.1554 49.7306 42.7624 50.5781C42.3694 51.4209 41.8249 52.0743 41.1289 52.5384C40.4328 52.9976 39.6303 53.2273 38.7212 53.2273C38.0204 53.2273 37.4594 53.1113 37.038 52.8793C36.6166 52.6425 36.2922 52.375 36.0649 52.0767C35.8377 51.7737 35.6625 51.5227 35.5394 51.3239H35.3973V57.0909H33.7212ZM35.3689 47.5455C35.3689 48.3693 35.4897 49.0961 35.7311 49.7259C35.9726 50.3509 36.3254 50.8409 36.7894 51.196C37.2534 51.5464 37.8216 51.7216 38.4939 51.7216C39.1947 51.7216 39.7794 51.5369 40.2482 51.1676C40.7217 50.7936 41.0768 50.2917 41.3135 49.6619C41.555 49.0275 41.6757 48.322 41.6757 47.5455C41.6757 46.7784 41.5574 46.0871 41.3206 45.4716C41.0886 44.8513 40.7359 44.3613 40.2624 44.0014C39.7936 43.6368 39.2042 43.4545 38.4939 43.4545C37.8121 43.4545 37.2392 43.6274 36.7752 43.973C36.3112 44.3139 35.9608 44.7921 35.724 45.4077C35.4873 46.0185 35.3689 46.7311 35.3689 47.5455ZM47.1087 53V42.0909H48.728V43.7386H48.8417C49.0405 43.1989 49.4004 42.7609 49.9212 42.4247C50.442 42.0885 51.0292 41.9205 51.6826 41.9205C51.8057 41.9205 51.9596 41.9228 52.1442 41.9276C52.3289 41.9323 52.4685 41.9394 52.5632 41.9489V43.6534C52.5064 43.6392 52.3762 43.6179 52.1726 43.5895C51.9738 43.5563 51.7631 43.5398 51.5405 43.5398C51.0102 43.5398 50.5367 43.651 50.1201 43.8736C49.7081 44.0914 49.3814 44.3944 49.1399 44.7827C48.9032 45.1662 48.7848 45.6042 48.7848 46.0966V53H47.1087ZM59.9919 53.2273C58.9408 53.2273 58.0341 52.9953 57.2718 52.5312C56.5142 52.0625 55.9294 51.4091 55.5175 50.571C55.1103 49.7282 54.9067 48.7481 54.9067 47.6307C54.9067 46.5133 55.1103 45.5284 55.5175 44.6761C55.9294 43.8191 56.5024 43.1515 57.2363 42.6733C57.9749 42.1903 58.8366 41.9489 59.8215 41.9489C60.3897 41.9489 60.9507 42.0436 61.5047 42.233C62.0587 42.4223 62.563 42.7301 63.0175 43.1562C63.4721 43.5777 63.8343 44.1364 64.1042 44.8324C64.374 45.5284 64.509 46.3854 64.509 47.4034V48.1136H56.0999V46.6648H62.8044C62.8044 46.0492 62.6813 45.5 62.4351 45.017C62.1936 44.5341 61.848 44.1529 61.3982 43.8736C60.9531 43.5942 60.4275 43.4545 59.8215 43.4545C59.1539 43.4545 58.5762 43.6203 58.0885 43.9517C57.6056 44.2784 57.2339 44.7045 56.9735 45.2301C56.7131 45.7557 56.5828 46.3191 56.5828 46.9205V47.8864C56.5828 48.7102 56.7249 49.4086 57.009 49.9815C57.2978 50.5497 57.6979 50.983 58.2093 51.2812C58.7206 51.5748 59.3149 51.7216 59.9919 51.7216C60.4323 51.7216 60.83 51.66 61.1851 51.5369C61.545 51.4091 61.8551 51.2197 62.1155 50.9688C62.3759 50.7131 62.5772 50.3958 62.7192 50.017L64.3385 50.4716C64.1681 51.0208 63.8816 51.5038 63.4792 51.9205C63.0767 52.3324 62.5795 52.6544 61.9877 52.8864C61.3958 53.1136 60.7306 53.2273 59.9919 53.2273ZM75.986 44.5341L74.4803 44.9602C74.3856 44.7093 74.2459 44.4654 74.0613 44.2287C73.8813 43.9872 73.6351 43.7884 73.3226 43.6321C73.0101 43.4759 72.61 43.3977 72.1223 43.3977C71.4547 43.3977 70.8984 43.5516 70.4533 43.8594C70.013 44.1624 69.7928 44.5483 69.7928 45.017C69.7928 45.4337 69.9443 45.7628 70.2473 46.0043C70.5504 46.2457 71.0239 46.447 71.6678 46.608L73.2871 47.0057C74.2625 47.2424 74.9893 47.6046 75.4675 48.0923C75.9457 48.5753 76.1848 49.1979 76.1848 49.9602C76.1848 50.5852 76.0049 51.1439 75.6451 51.6364C75.29 52.1288 74.7928 52.517 74.1536 52.8011C73.5144 53.0852 72.771 53.2273 71.9235 53.2273C70.8108 53.2273 69.8899 52.9858 69.1607 52.5028C68.4315 52.0199 67.9699 51.3144 67.7757 50.3864L69.3667 49.9886C69.5182 50.5758 69.8046 51.0161 70.226 51.3097C70.6522 51.6032 71.2085 51.75 71.8951 51.75C72.6763 51.75 73.2966 51.5843 73.7559 51.2528C74.2199 50.9167 74.4519 50.5142 74.4519 50.0455C74.4519 49.6667 74.3193 49.3494 74.0542 49.0938C73.789 48.8333 73.3818 48.6392 72.8326 48.5114L71.0144 48.0852C70.0153 47.8485 69.2814 47.4815 68.8127 46.9844C68.3487 46.4825 68.1167 45.8551 68.1167 45.1023C68.1167 44.4867 68.2895 43.9422 68.6351 43.4688C68.9855 42.9953 69.4614 42.6236 70.0627 42.3537C70.6687 42.0838 71.3553 41.9489 72.1223 41.9489C73.2019 41.9489 74.0494 42.1856 74.665 42.6591C75.2852 43.1326 75.7256 43.7576 75.986 44.5341ZM83.1181 53.2557C82.4269 53.2557 81.7995 53.1255 81.236 52.8651C80.6726 52.5999 80.2252 52.2188 79.8937 51.7216C79.5623 51.2197 79.3966 50.6136 79.3966 49.9034C79.3966 49.2784 79.5197 48.7718 79.7659 48.3835C80.0121 47.9905 80.3412 47.6828 80.7531 47.4602C81.165 47.2377 81.6196 47.072 82.1167 46.9631C82.6186 46.8494 83.1229 46.7595 83.6295 46.6932C84.2924 46.608 84.8298 46.544 85.2417 46.5014C85.6584 46.4541 85.9614 46.3759 86.1508 46.267C86.3449 46.1581 86.442 45.9687 86.442 45.6989V45.642C86.442 44.9413 86.2502 44.3968 85.8667 44.0085C85.4879 43.6203 84.9127 43.4261 84.1409 43.4261C83.3407 43.4261 82.7133 43.6013 82.2588 43.9517C81.8042 44.3021 81.4846 44.6761 81.3 45.0739L79.7091 44.5057C79.9931 43.8428 80.3719 43.3267 80.8454 42.9574C81.3236 42.5833 81.8445 42.3229 82.4079 42.1761C82.9761 42.0246 83.5348 41.9489 84.0841 41.9489C84.4344 41.9489 84.8369 41.9915 85.2914 42.0767C85.7507 42.1572 86.1934 42.3253 86.6196 42.581C87.0504 42.8366 87.4079 43.2225 87.692 43.7386C87.9761 44.2547 88.1181 44.946 88.1181 45.8125V53H86.442V51.5227H86.3568C86.2431 51.7595 86.0537 52.0128 85.7886 52.2827C85.5234 52.5526 85.1707 52.7822 84.7304 52.9716C84.29 53.161 83.7526 53.2557 83.1181 53.2557ZM83.3738 51.75C84.0367 51.75 84.5954 51.6198 85.05 51.3594C85.5092 51.099 85.8549 50.7628 86.0869 50.3509C86.3236 49.9389 86.442 49.5057 86.442 49.0511V47.517C86.371 47.6023 86.2147 47.6804 85.9733 47.7514C85.7365 47.8177 85.4619 47.8769 85.1494 47.929C84.8416 47.9763 84.541 48.0189 84.2474 48.0568C83.9586 48.09 83.7242 48.1184 83.5443 48.142C83.1087 48.1989 82.7015 48.2912 82.3227 48.419C81.9486 48.5421 81.6456 48.7292 81.4136 48.9801C81.1863 49.2263 81.0727 49.5625 81.0727 49.9886C81.0727 50.571 81.2881 51.0114 81.719 51.3097C82.1546 51.6032 82.7062 51.75 83.3738 51.75Z" fill="#64748B"/>
<defs>
<clipPath id="clip0_454_7213">
<rect width="121.098" height="32" fill="white" transform="translate(0.451172)"/>
</clipPath>
</defs>
</svg>
