<svg width="128" height="128" viewBox="0 0 128 128" fill="none" xmlns="http://www.w3.org/2000/svg">
<g clip-path="url(#clip0_286_6892)">
<rect width="128" height="128" fill="white"/>
<path d="M64 128C99.3462 128 128 99.3462 128 64C128 28.6538 99.3462 0 64 0C28.6538 0 0 28.6538 0 64C0 99.3462 28.6538 128 64 128Z" fill="#FDF9C9"/>
<path d="M111.921 42.2655L78.3455 10.1129C78.0264 9.75886 77.6808 9.4297 77.3116 9.12831L76.9867 8.81324H76.9473C75.3228 7.56766 73.3328 6.89258 71.2858 6.89258C69.2387 6.89258 67.2487 7.56766 65.6242 8.81324H65.5848L65.255 9.12831C64.8858 9.4297 64.5402 9.75886 64.2211 10.1129L30.6605 42.2655C30.3063 42.6181 30.0267 43.0383 29.8384 43.5012C29.6438 43.9692 29.545 44.4714 29.5479 44.9782V83.0286C29.5466 83.7775 29.693 84.5192 29.9787 85.2114C30.2643 85.9036 30.6837 86.5327 31.2127 87.0627C31.7418 87.5926 32.3702 88.0131 33.0619 88.2999C33.7536 88.5868 34.4951 88.7345 35.2439 88.7345H107.323C108.071 88.7338 108.812 88.5857 109.503 88.2985C110.194 88.0114 110.822 87.5908 111.351 87.0609C111.879 86.531 112.298 85.9022 112.583 85.2103C112.869 84.5184 113.015 83.777 113.014 83.0286V44.9585C113.017 44.4517 112.918 43.9495 112.723 43.4815C112.539 43.0273 112.266 42.6141 111.921 42.2655Z" fill="black"/>
<path d="M35.6475 76.8797V18.3197C35.6462 16.9182 36.2013 15.5736 37.1909 14.5812C38.1805 13.5888 39.5236 13.03 40.925 13.0273H86.2862L106.914 33.7043V76.8747L35.6475 76.8797Z" fill="white"/>
<path d="M86.1046 13.4463L106.486 33.9066V76.5011H36.0861V18.3201C36.0861 17.0301 36.5976 15.7926 37.5084 14.879C38.4192 13.9654 39.6551 13.4502 40.9452 13.4463H86.1046ZM86.4492 12.6094H40.9206C39.409 12.6133 37.9607 13.2168 36.8937 14.2875C35.8267 15.3582 35.2282 16.8086 35.2295 18.3201V77.2986H107.323V33.5423L86.4492 12.6094Z" fill="black"/>
<path d="M35.2296 88.3203C33.8295 88.3151 32.4884 87.7552 31.5001 86.7633C30.5119 85.7714 29.957 84.4282 29.957 83.028V45.6914L105.743 88.3203H35.2296Z" fill="white"/>
<path d="M30.3701 46.3808L104.142 87.902H35.2193C33.9293 87.8981 32.6934 87.3829 31.7825 86.4693C30.8717 85.5557 30.3602 84.3183 30.3602 83.0282V46.3808H30.3701ZM29.5381 44.9531V83.0085C29.5368 83.7569 29.683 84.4983 29.9684 85.1902C30.2537 85.882 30.6727 86.5109 31.2012 87.0408C31.7297 87.5707 32.3575 87.9913 33.0486 88.2784C33.7398 88.5656 34.4807 88.7137 35.2292 88.7144H107.323L29.5381 44.9531Z" fill="black"/>
<path d="M37.1641 88.2715L112.979 45.6426V82.9792C112.979 84.3794 112.425 85.7225 111.436 86.7145C110.448 87.7064 109.107 88.2663 107.707 88.2715H37.1641Z" fill="white"/>
<path d="M86.459 12.6094V27.8315C86.4577 28.58 86.6039 29.3213 86.8893 30.0132C87.1746 30.7051 87.5936 31.3339 88.1221 31.8638C88.6506 32.3937 89.2784 32.8143 89.9695 33.1014C90.6607 33.3886 91.4016 33.5367 92.1501 33.5374H107.323L86.459 12.6094Z" fill="#2563EB"/>
<path d="M112.187 46.3808V83.0085C112.192 83.6481 112.069 84.2823 111.828 84.8744C111.583 85.4663 111.225 86.0047 110.774 86.4596C110.327 86.9151 109.793 87.2766 109.204 87.523C108.614 87.7689 107.982 87.8977 107.343 87.902H38.3999L112.172 46.4054L112.187 46.3808ZM113.024 44.9531L35.2393 88.734H107.323C108.073 88.736 108.816 88.5898 109.51 88.3038C110.203 88.0178 110.833 87.5977 111.364 87.0675C111.894 86.5373 112.315 85.9076 112.602 85.2144C112.888 84.5212 113.035 83.7783 113.034 83.0282V44.9728L113.024 44.9531Z" fill="black"/>
<path d="M68.8395 54.6608C65.712 54.6639 62.6609 53.6948 60.1083 51.8877C57.5558 50.0805 55.6281 47.5246 54.592 44.5737C53.5559 41.6228 53.4627 38.4228 54.3252 35.4166C55.1877 32.4103 56.9633 29.7465 59.4063 27.7938C61.8492 25.841 64.8388 24.6959 67.9612 24.5169C71.0835 24.3379 74.1844 25.1339 76.8345 26.7946C79.4846 28.4553 81.553 30.8988 82.7535 33.7867C83.9539 36.6747 84.227 39.8644 83.5349 42.9143L80.6894 42.2694C81.2423 39.8154 81.0192 37.2502 80.051 34.9285C79.0828 32.6067 77.4173 30.6431 75.2847 29.3089C73.1521 27.9748 70.6578 27.336 68.1464 27.481C65.635 27.6259 63.2307 28.5474 61.2658 30.1181C59.3009 31.6887 57.8723 33.8309 57.1777 36.2487C56.483 38.6664 56.5566 41.2402 57.3881 43.6143C58.2197 45.9884 59.7682 48.0456 61.8196 49.5015C63.871 50.9574 66.324 51.7401 68.8395 51.7414C71.5108 51.7476 74.1083 50.8662 76.2242 49.2356C76.8051 48.7902 77.347 48.2961 77.8438 47.7586L80.0002 49.7279C79.3797 50.4003 78.7009 51.0164 77.9718 51.5691C75.355 53.5842 72.1423 54.6718 68.8395 54.6608Z" fill="#2563EB"/>
<path d="M68.8388 46.8676C67.1469 46.8723 65.5057 46.29 64.1951 45.22C62.8845 44.15 61.9856 42.6585 61.6516 40.9998C61.3177 39.3412 61.5694 37.618 62.3638 36.1242C63.1582 34.6304 64.4462 33.4583 66.0081 32.8079C67.5701 32.1575 69.3092 32.0689 70.9291 32.5574C72.549 33.0458 73.9494 34.081 74.8914 35.4864C75.8334 36.8919 76.2588 38.5805 76.095 40.2645C75.9313 41.9485 75.1885 43.5236 73.9933 44.7211C73.3173 45.4 72.5141 45.939 71.6297 46.3073C70.7452 46.6756 69.7969 46.866 68.8388 46.8676ZM68.8388 35.1753C67.9725 35.1748 67.1256 35.432 66.4059 35.9141C65.6862 36.3963 65.1261 37.0816 64.797 37.883C64.461 38.6832 64.3706 39.5653 64.5371 40.417C64.7037 41.2688 65.1197 42.0518 65.7323 42.6666C66.345 43.2813 67.1266 43.7 67.9778 43.8695C68.8289 44.039 69.7113 43.9516 70.5127 43.6184C71.3156 43.2888 72.0014 42.7264 72.4819 42.0036C72.9232 41.3429 73.1773 40.5749 73.2169 39.7813C73.2566 38.9877 73.0805 38.1983 72.7073 37.4968C72.3341 36.7953 71.7778 36.2081 71.0975 35.7976C70.4172 35.3871 69.6383 35.1686 68.8438 35.1654L68.8388 35.1753Z" fill="#2563EB"/>
<path d="M78.3255 46.8731C76.898 46.8723 75.5286 46.3079 74.5151 45.3026C73.5008 44.2923 72.9244 42.9237 72.9102 41.4922H75.8148C75.8151 42.1568 76.0789 42.7941 76.5483 43.2645C76.7802 43.497 77.0556 43.6815 77.3589 43.8073C77.6622 43.9332 77.9873 43.998 78.3157 43.998C78.6441 43.998 78.9692 43.9332 79.2725 43.8073C79.5758 43.6815 79.8512 43.497 80.0831 43.2645C80.5512 42.7936 80.8132 42.1562 80.8117 41.4922H83.7311C83.7169 42.9237 83.1404 44.2923 82.1262 45.3026C81.1151 46.3055 79.7496 46.8697 78.3255 46.8731Z" fill="#2563EB"/>
<path d="M57.5326 101.233L55.0752 105.545L78.098 118.665L80.5554 114.353L57.5326 101.233Z" fill="black"/>
<path d="M65.5695 102.59L60.2637 111.896L87.7331 127.557L93.0389 118.25L65.5695 102.59Z" fill="#2563EB"/>
<path d="M5.75651 74.6652C2.81615 79.8242 1.47161 85.7392 1.89285 91.6624C2.31408 97.5855 4.48215 103.251 8.12302 107.942C11.7639 112.633 16.7141 116.139 22.3475 118.017C27.9809 119.894 34.0445 120.059 39.7718 118.491C45.499 116.923 50.6327 113.691 54.5235 109.206C58.4143 104.72 60.8877 99.181 61.6307 93.2896C62.3738 87.3981 61.3532 81.4187 58.698 76.1073C56.0428 70.7958 51.8723 66.391 46.7138 63.4497C43.2882 61.4965 39.5114 60.2372 35.599 59.7437C31.6867 59.2503 27.7154 59.5324 23.9121 60.5739C20.1087 61.6154 16.5478 63.3959 13.4326 65.8137C10.3175 68.2315 7.70913 71.2393 5.75651 74.6652ZM51.9553 101.001C49.6877 104.978 46.2916 108.194 42.1963 110.242C38.1011 112.289 33.4906 113.077 28.9479 112.504C24.4053 111.931 20.1345 110.025 16.6755 107.025C13.2165 104.025 10.7247 100.067 9.51517 95.6508C8.30564 91.2348 8.43268 86.5594 9.88028 82.2157C11.3279 77.872 14.0309 74.055 17.6478 71.2475C21.2646 68.44 25.6328 66.768 30.1998 66.443C34.7669 66.118 39.3278 67.1545 43.3058 69.4215C45.9474 70.9269 48.2666 72.9379 50.1309 75.3397C51.9953 77.7415 53.3683 80.487 54.1715 83.4195C54.9747 86.3519 55.1924 89.4139 54.8122 92.4305C54.4319 95.4471 53.4611 98.3593 51.9553 101.001Z" fill="#2563EB"/>
<path d="M53.1025 112.419C48.2727 116.877 42.1699 119.713 35.6483 120.531C29.0988 121.329 22.4646 120.034 16.6966 116.83C10.9286 113.626 6.32284 108.679 3.53971 102.696C0.756584 96.7142 -0.0610716 90.0043 1.20384 83.5286C2.46875 77.053 5.7513 71.144 10.581 66.6488C15.4095 62.1889 21.513 59.3524 28.0353 58.5371C34.5848 57.7385 41.219 59.0339 46.987 62.2376C52.755 65.4414 57.3607 70.389 60.1438 76.3713C62.927 82.3536 63.7446 89.0635 62.4797 95.5392C61.2148 102.015 57.9322 107.924 53.1025 112.419ZM12.2223 68.408C7.75904 72.5544 4.72398 78.0081 3.55265 83.9865C2.38131 89.965 3.13393 96.1608 5.70251 101.685C8.27109 107.209 12.5236 111.778 17.8498 114.735C23.176 117.692 29.3021 118.886 35.349 118.146C41.3691 117.392 47.0027 114.775 51.4612 110.66C54.7766 107.58 57.3205 103.763 58.887 99.5175C60.4534 95.2721 60.9986 90.7176 60.4782 86.2225C59.9579 81.7273 58.3866 77.4178 55.8917 73.6425C53.3967 69.8673 50.0482 66.7323 46.1169 64.4913C40.734 61.4011 34.4914 60.1474 28.3329 60.9199C22.3118 61.6734 16.6776 64.2924 12.2201 68.4096L12.2223 68.408ZM48.4209 107.38C44.6558 110.858 39.8959 113.071 34.8093 113.707C29.701 114.332 24.5261 113.323 20.0267 110.825C15.5272 108.327 11.9345 104.468 9.76385 99.8019C7.59318 95.1357 6.95605 89.902 7.94393 84.8514C8.9318 79.8007 11.4939 75.1927 15.2627 71.6882C19.0278 68.2094 23.7876 65.9969 28.8743 65.3611C33.9812 64.7399 39.1537 65.7511 43.6507 68.2498C48.1477 70.7486 51.7383 74.6066 53.9083 79.2712C56.0782 83.9358 56.716 89.1674 55.7303 94.2167C54.7445 99.2659 52.1859 103.874 48.4209 107.38ZM16.8978 73.4485C13.0616 77.0056 10.6214 81.8152 10.0162 87.0115C9.411 92.2079 10.6806 97.4497 13.5966 101.793C16.5126 106.137 20.8834 109.296 25.922 110.704C30.9606 112.111 36.3362 111.673 41.0809 109.47C45.8256 107.266 49.6277 103.441 51.8029 98.6831C53.978 93.9252 54.3833 88.5471 52.9457 83.517C51.5081 78.4869 48.3219 74.1354 43.961 71.2455C39.6001 68.3557 34.3509 67.1175 29.1583 67.754C24.5748 68.3173 20.285 70.3097 16.8978 73.4485Z" fill="black"/>
<path d="M45.043 66.3726C40.0642 63.5155 34.291 62.3561 28.5952 63.0692C24.4712 63.5704 20.5219 65.0308 17.0641 67.3334C13.6063 69.636 10.736 72.7168 8.68347 76.3286C6.23461 80.6236 5.02832 85.5148 5.19935 90.4559C5.37039 95.3969 6.91203 100.193 9.65201 104.308C12.392 108.424 16.2224 111.696 20.7151 113.76C25.2078 115.823 30.1858 116.597 35.0929 115.994C39.2163 115.491 43.1646 114.03 46.6221 111.727C50.0796 109.425 52.9503 106.345 55.0046 102.735C56.7384 99.6933 57.8561 96.34 58.294 92.8664C58.7318 89.3928 58.4812 85.867 57.5564 82.4902C56.6315 79.1135 55.0507 75.952 52.904 73.1862C50.7574 70.4205 48.0869 68.1046 45.0452 66.3709L45.043 66.3726Z" fill="white"/>
<path d="M25.4576 80.2493C18.4021 85.4552 15.1285 93.7831 16.3589 101.446C23.3203 104.88 32.241 104.211 39.2964 99.0048C46.3519 93.7989 49.6256 85.4709 48.3974 77.8062C41.4338 74.3735 32.5152 75.0417 25.4576 80.2493Z" fill="white"/>
<path d="M31.884 102.384C23.0426 102.384 14.8438 97.5725 10.9966 90.1318C10.9161 89.9754 10.874 89.8019 10.874 89.6259C10.874 89.4499 10.9161 89.2765 10.9966 89.12C14.8438 81.6794 23.0426 76.8711 31.884 76.8711C40.7254 76.8711 48.9243 81.6794 52.7715 89.12C52.8521 89.2765 52.8941 89.4499 52.8941 89.6259C52.8941 89.8019 52.8521 89.9754 52.7715 90.1318C48.9243 97.5725 40.7367 102.384 31.884 102.384ZM13.2288 89.6273C16.8054 96.0562 24.06 100.177 31.884 100.177C39.7079 100.177 46.9655 96.0562 50.542 89.6273C46.9655 83.1985 39.7079 79.0751 31.884 79.0751C24.06 79.0751 16.8054 83.1985 13.2288 89.6273Z" fill="black"/>
<path d="M40.1729 89.6271C40.1729 94.0746 36.4609 97.6878 31.8838 97.6878C27.3067 97.6878 23.5977 94.0746 23.5977 89.6271C23.5977 85.1796 27.3067 81.5664 31.8838 81.5664C36.4609 81.5664 40.1729 85.174 40.1729 89.6271Z" fill="black"/>
</g>
<defs>
<clipPath id="clip0_286_6892">
<rect width="128" height="128" fill="white"/>
</clipPath>
</defs>
</svg>
