<svg width="192" height="192" viewBox="0 0 192 192" fill="none" xmlns="http://www.w3.org/2000/svg">
<g clip-path="url(#clip0_1696_70490)">
<rect width="192" height="192" fill="white"/>
<path d="M86.7178 151.101C86.4029 150.714 86.1673 150.268 86.0247 149.789C85.8821 149.31 85.8352 148.808 85.8866 148.312C85.938 147.815 86.0867 147.333 86.3243 146.894C86.5619 146.455 86.8838 146.066 87.2714 145.751C87.6591 145.437 88.1048 145.201 88.5834 145.058C89.062 144.916 89.564 144.869 90.0608 144.92C90.5576 144.972 91.0395 145.12 91.4787 145.358C91.918 145.596 92.3062 145.917 92.6212 146.305L105.515 162.261L99.605 167.036L86.7178 151.101Z" fill="white"/>
<path d="M106.353 163.078C106.55 162.875 106.666 162.607 106.679 162.324C106.691 162.041 106.6 161.763 106.422 161.543L93.5274 145.587C92.6909 144.595 91.4993 143.971 90.2079 143.847C88.9164 143.723 87.6279 144.11 86.6184 144.925C85.6089 145.74 84.9587 146.918 84.8072 148.207C84.6558 149.495 85.015 150.792 85.8079 151.818L98.7079 167.777C98.8037 167.895 98.922 167.994 99.0558 168.066C99.1896 168.139 99.3365 168.185 99.488 168.201C99.6395 168.217 99.7925 168.203 99.9386 168.16C100.085 168.116 100.221 168.045 100.339 167.949C100.458 167.853 100.556 167.735 100.629 167.601C100.701 167.467 100.747 167.321 100.763 167.169C100.779 167.018 100.765 166.864 100.722 166.718C100.679 166.572 100.607 166.436 100.511 166.318L87.617 150.362C87.3554 150.099 87.1521 149.783 87.0202 149.436C86.8882 149.089 86.8305 148.718 86.851 148.347C86.8714 147.977 86.9693 147.614 87.1385 147.284C87.3078 146.953 87.5446 146.662 87.8334 146.429C88.1223 146.196 88.457 146.026 88.8157 145.93C89.1745 145.834 89.5493 145.815 89.916 145.873C90.2827 145.931 90.633 146.065 90.9445 146.268C91.2559 146.47 91.5216 146.735 91.7241 147.046L104.595 163.014C104.691 163.134 104.809 163.233 104.943 163.306C105.077 163.379 105.225 163.425 105.377 163.441C105.529 163.458 105.682 163.444 105.829 163.4C105.976 163.357 106.112 163.286 106.231 163.189L106.353 163.078Z" fill="black"/>
<path d="M60.8035 96.3349C59.5844 95.1752 58.5416 93.8433 57.7081 92.3816C56.8635 91.2054 50.8409 92.4037 49.7088 91.7891C48.904 90.5155 48.049 89.2759 47.144 88.0702C44.0839 84.0418 42.377 87.1858 38.7422 85.5275C32.9626 82.8965 43.8761 83.8428 47.741 81.1365C51.2785 78.6514 57.0978 70.254 58.9639 68.0784C65.0132 61.0253 61.7234 61.556 56.1207 57.4656C47.0999 50.8636 52.1011 64.1207 48.7979 64.0588C38.1851 63.8598 47.1529 49.3778 51.8667 47.9451C53.1712 47.5471 52.163 53.592 53.6355 54.6223C55.9659 56.2407 61.1529 49.4088 58.5705 47.1314C54.9622 43.9211 49.9432 42.9305 45.3046 43.616C42.0411 44.0935 39.6754 49.4662 37.6015 47.9849C27.6211 40.8301 17.9411 52.199 12.4225 53.6892C9.59244 54.4542 7.11611 54.892 8.53557 59.0266C9.30057 61.2376 13.3158 60.1586 15.204 60.3178C24.5653 61.0961 25.4498 77.5238 30.5306 83.6792C35.187 89.326 42.1825 91.5724 48.9967 93.9735C47.113 93.3058 43.7967 99.2313 45.6716 103.667C47.2945 107.509 53.8301 111.737 54.2414 112.356C56.1649 115.239 54.0822 140.59 62.4309 138.176C63.4126 137.893 62.1168 128.673 62.2981 127.174C62.8818 122.31 67.5824 120.479 69.3733 116.066C72.6323 108.075 77.3905 109.756 74.3614 102.119C71.6242 95.2117 65.9595 99.3109 60.7858 96.3481L60.8035 96.3349Z" fill="black"/>
<path d="M82.2105 33.4487C79.606 29.0267 48.7227 34.0059 62.2053 44.8796C65.4113 47.4664 62.7626 63.474 70.8239 52.3969C74.6047 47.1967 88.2377 43.6768 82.2105 33.4664V33.4487Z" fill="black"/>
<path d="M52.0041 39.8129C54.246 38.8577 57.8057 36.0896 58.3628 33.4541C59.0925 29.9961 54.582 32.5918 46.1493 34.4004C39.251 35.8817 40.1841 44.8628 52.0041 39.8129Z" fill="black"/>
<path d="M186.035 53.9019C174.816 43.4748 163.009 51.0231 150.579 46.5967C148.306 45.7875 149.385 35.303 143.106 40.5342C137.127 45.5089 130.057 42.4312 123.207 45.2038C120.368 46.3535 114.708 55.7591 111.476 52.6328C109.707 50.9259 116.34 48.653 107.425 46.5525C97.4489 44.1779 92.5051 67.9903 103.467 53.5437C102.229 55.171 109.631 55.9625 109.521 57.1078C108.88 64.0017 87.0264 61.8526 86.6284 73.394C86.4427 78.7888 95.3042 73.1242 96.2992 71.8817C104.595 67.5393 101.447 78.1432 105.532 77.1438C107.54 76.6574 104.904 73.0712 106.912 72.545C109.375 71.9038 116.167 78.7932 110.653 79.9031C105.174 79.9253 101.345 76.2683 97.7274 75.9499C83.4621 74.694 79.3497 99.634 90.8071 98.0023C99.8147 96.72 101.902 101.982 101.455 110.945C101.3 114.041 104.551 128.925 110.481 121.757C112.117 119.776 122.354 93.8987 122.185 93.6776C118.807 89.6536 113.01 90.0295 112.722 82.2645C113.054 84.9177 118.701 91.2721 121.969 89.2954C126.391 86.6201 128.102 78.1388 120.713 79.5671C123.72 78.9878 129.296 81.9107 131.702 83.4761C133.139 84.418 135.306 98.5109 138.335 94.2834C139.219 93.0586 148.408 79.0143 148.788 89.3308C148.824 90.2771 151.176 106.355 155.833 99.6562C156.717 98.3517 151.826 95.8002 151.618 94.4117C151.132 91.1438 159.282 91.1748 154.559 87.3675C151.835 85.1565 156.633 81.9549 157.836 80.9998C162.801 77.02 161.338 78.2007 160.281 73.7787C159.985 72.5405 176.098 68.4944 168.24 60.0484C176.372 51.3017 180.746 64.55 180.989 64.3466C183.112 62.5469 179.15 58.0718 182.899 57.6606C183.222 57.6252 188.816 56.5241 185.995 53.9151L186.035 53.9019Z" fill="black"/>
<path d="M158.264 109.49C157.317 110.18 156.527 111.063 155.947 112.081C155.404 111.203 155.011 110.24 154.784 109.233C152.422 106.518 147.916 112.771 146.789 113.655C139.36 119.598 137.998 125.395 149.588 122.72C153.461 121.836 152.887 129.464 157.154 125.816C159.228 124.047 165.635 108.632 158.264 109.454V109.49Z" fill="black"/>
<path d="M76.4608 136.485L83.106 171L89.5696 169.756L82.9244 135.241L76.4608 136.485Z" fill="#2563EB"/>
<path d="M73.893 144.095L81.8228 185.281L95.7765 182.595L87.8468 141.408L73.893 144.095Z" fill="#2563EB"/>
<path fill-rule="evenodd" clip-rule="evenodd" d="M83.2212 56.4409C89.4339 58.1945 95.1491 61.3799 99.9079 65.7416L99.8929 65.7417C106.354 71.648 110.778 79.449 112.531 88.0254C114.284 96.6019 113.275 105.513 109.65 113.481C106.024 121.449 99.9681 128.063 92.3504 132.376C84.7327 136.689 75.9448 138.478 67.2473 137.486C58.5879 136.47 50.4635 132.77 44.0125 126.904C38.3423 121.721 34.2249 115.064 32.1202 107.676C30.0154 100.288 30.0063 92.4607 32.0938 85.0679C34.1814 77.675 38.2835 71.0082 43.9415 65.8123C49.5996 60.6164 56.5908 57.096 64.1343 55.6445C70.4715 54.4146 77.0086 54.6874 83.2212 56.4409ZM81.4358 63.3171C86.6083 64.7767 91.3666 67.4283 95.3286 71.0592L95.3161 71.0594C100.695 75.976 104.379 82.47 105.838 89.6098C107.297 96.7495 106.457 104.168 103.438 110.801C100.419 117.434 95.3769 122.941 89.0344 126.531C82.6918 130.122 75.3751 131.611 68.1337 130.786C60.9241 129.94 54.1599 126.86 48.789 121.978C44.0683 117.663 40.6404 112.121 38.8882 105.971C37.1361 99.8208 37.1287 93.3044 38.867 87.15C40.6052 80.9955 44.0208 75.4454 48.7318 71.1197C53.4428 66.794 59.2636 63.8632 65.5443 62.6546C70.8205 61.6306 76.2633 61.8575 81.4358 63.3171Z" fill="#2563EB"/>
<path d="M33.4126 18.3058C33.4126 18.3058 34.8408 20.3311 37.0164 20.4328C38.343 20.4947 39.5325 19.8624 40.6115 18.5535C41.9381 16.9218 42.8004 16.6078 43.2647 16.6299C43.9633 16.6609 44.5912 17.5143 45.1263 18.3058C45.1263 18.3058 46.5548 20.3311 48.7304 20.4328C50.057 20.4947 51.2464 19.8624 52.3254 18.5535C53.1302 17.5718 53.9394 17.0854 54.7221 17.0987C55.9337 17.1252 56.8579 18.3191 56.88 18.3412C56.95 18.4462 57.0407 18.5357 57.1464 18.6045C57.2521 18.6732 57.3708 18.7197 57.4951 18.7412C57.6194 18.7626 57.7467 18.7584 57.8693 18.729C57.9919 18.6995 58.1073 18.6454 58.2083 18.57C58.3093 18.4945 58.394 18.3992 58.457 18.2899C58.52 18.1807 58.5602 18.0597 58.5749 17.9345C58.5897 17.8092 58.5787 17.6823 58.5428 17.5614C58.5068 17.4405 58.4467 17.3282 58.3659 17.2313C58.3084 17.1517 56.9065 15.2945 54.7795 15.2414C53.391 15.206 52.0821 15.9224 50.8926 17.3728C50.216 18.1953 49.5308 18.5977 48.8498 18.58C47.8372 18.5535 46.9129 17.5939 46.6608 17.2534C46.0506 16.369 45.0335 14.8523 43.3532 14.7727C42.0266 14.7108 40.6602 15.5598 39.17 17.3728C38.4934 18.1953 37.808 18.5977 37.127 18.58C36.1144 18.5535 35.1901 17.5939 34.938 17.2534C34.3278 16.369 33.3063 14.8523 31.6304 14.7727C30.3038 14.7108 28.9375 15.5598 27.4429 17.3728C26.7707 18.1953 26.081 18.5977 25.4044 18.58C24.3918 18.5535 23.4675 17.5939 23.2154 17.2534C22.6052 16.369 21.5836 14.8523 19.9033 14.7727C18.5767 14.7108 17.2103 15.5598 15.7201 17.3728C15.5832 17.5382 15.5081 17.7462 15.5078 17.9609C15.5064 18.1534 15.5649 18.3415 15.675 18.4993C15.7851 18.6572 15.9414 18.7769 16.1226 18.842C16.3037 18.907 16.5005 18.9142 16.6859 18.8625C16.8713 18.8109 17.0359 18.7029 17.1572 18.5535C18.4838 16.9218 19.3417 16.6078 19.8104 16.6299C20.5047 16.6609 21.137 17.5143 21.6721 18.3058C21.6721 18.3058 23.096 20.3311 25.2716 20.4328C26.5982 20.4947 27.7922 19.8624 28.8712 18.5535C30.1978 16.9218 31.0601 16.6078 31.5244 16.6299C32.2452 16.6609 32.8775 17.5099 33.4126 18.3058Z" fill="#2563EB"/>
<path d="M72.3692 77.5391C69.2367 77.5428 66.2335 78.7888 64.0185 81.0038C61.8035 83.2188 60.5574 86.222 60.5537 89.3545C60.5537 91.9454 61.4477 94.4558 63.2148 96.8224C64.0492 97.9408 66.0547 100.602 70.8474 106.906C71.0192 107.134 71.1209 107.256 71.1314 107.281L71.7837 108.133C71.8521 108.223 71.9406 108.297 72.0422 108.347C72.1438 108.398 72.2557 108.424 72.3692 108.424C72.4826 108.424 72.5946 108.398 72.6962 108.347C72.7978 108.297 72.8863 108.223 72.9547 108.133L73.6033 107.277C73.6033 107.277 73.6559 107.214 73.7295 107.113C75.4825 104.795 79.7844 99.1504 81.5234 96.8188C83.2624 94.4873 84.1845 91.9419 84.1845 89.351C84.1798 86.2191 82.9334 83.2168 80.7185 81.0026C78.5036 78.7883 75.5011 77.5428 72.3692 77.5391Z" fill="#2563EB"/>
<path d="M72.3691 95.0408C71.2437 95.0408 70.1435 94.7071 69.2077 94.0818C68.2719 93.4566 67.5426 92.5678 67.1119 91.5281C66.6812 90.4883 66.5685 89.3442 66.788 88.2404C67.0076 87.1365 67.5496 86.1226 68.3454 85.3268C69.1412 84.531 70.1551 83.9891 71.2589 83.7695C72.3627 83.5499 73.5069 83.6626 74.5467 84.0933C75.5865 84.524 76.4752 85.2533 77.1004 86.1891C77.7257 87.1249 78.0594 88.225 78.0594 89.3505C78.0599 90.0979 77.913 90.838 77.6272 91.5286C77.3414 92.2192 76.9222 92.8467 76.3937 93.3752C75.8652 93.9037 75.2378 94.3228 74.5472 94.6086C73.8566 94.8944 73.1165 95.0413 72.3691 95.0408Z" fill="white"/>
<path d="M113.134 157.735C113.171 157.569 113.17 157.397 113.132 157.232C113.094 157.066 113.019 156.911 112.913 156.778C112.8 156.629 112.659 156.502 112.498 156.405C112.332 156.305 112.15 156.234 111.96 156.195L110.231 155.846L108.243 155.486C107.483 155.351 106.632 155.223 105.696 155.078C103.846 154.825 101.69 154.564 99.3906 154.376C97.0909 154.187 94.6979 154.053 92.2951 153.973C87.515 153.848 82.8045 153.984 79.3011 154.197C77.5409 154.293 76.0829 154.412 75.0638 154.49L73.4632 154.63C73.3932 154.637 73.3238 154.648 73.2551 154.663L72.9881 154.688C71.8527 154.791 70.8043 155.34 70.0733 156.215C69.7184 156.634 69.4541 157.122 69.297 157.648C69.1399 158.174 69.0934 158.727 69.1605 159.273C69.228 159.845 69.4147 160.398 69.7085 160.894L69.6038 160.929C69.0494 160.991 68.5136 161.166 68.0292 161.443C67.5449 161.72 67.1222 162.093 66.7872 162.539C66.4613 162.972 66.2259 163.466 66.0947 163.991C65.9636 164.517 65.9395 165.063 66.0239 165.598C66.145 166.407 66.4959 167.164 67.0349 167.78C67.574 168.395 68.2785 168.843 69.0646 169.07C68.825 169.712 68.7477 170.404 68.8395 171.083C68.9418 171.933 69.2999 172.732 69.8662 173.374C70.4325 174.016 71.1802 174.471 72.0108 174.679C71.8042 175.289 71.7363 175.937 71.8119 176.576C71.9295 177.646 72.4304 178.637 73.222 179.367C73.5862 179.705 74.0169 179.964 74.4865 180.126C74.9562 180.289 75.4544 180.352 75.9498 180.312L77.1017 180.212C77.788 180.157 78.708 180.089 79.6307 180.029C80.5533 179.969 81.4592 179.915 82.154 179.886L82.9859 179.847L83.2992 179.835C83.3714 179.833 83.4432 179.823 83.513 179.805L84.542 179.769L85.722 179.739C86.1834 179.723 86.691 179.72 87.2504 179.718C89.4835 179.696 92.4481 179.725 95.3323 179.917C98.2166 180.109 101.03 180.423 103.062 180.758C103.577 180.832 104.041 180.894 104.435 180.995C104.828 181.095 105.199 181.128 105.482 181.192L106.373 181.385C106.508 181.411 106.646 181.406 106.779 181.369C106.914 181.333 107.04 181.27 107.15 181.183C107.395 180.984 107.566 180.709 107.637 180.402L113.134 157.735Z" fill="white"/>
<path d="M70.6837 176.68C70.6318 176.269 70.6244 175.854 70.6618 175.442C69.6453 174.91 68.8133 174.084 68.2752 173.071C67.7371 172.059 67.5179 170.907 67.6467 169.767C66.8969 169.358 66.2477 168.788 65.746 168.096C65.2443 167.405 64.9028 166.611 64.7466 165.772C64.6377 165.079 64.6698 164.371 64.8409 163.691C65.012 163.01 65.3186 162.372 65.7423 161.813C66.323 161.039 67.1002 160.434 67.9933 160.062C67.9397 159.856 67.8987 159.647 67.8703 159.436C67.7791 158.726 67.8373 158.005 68.041 157.319C68.2448 156.633 68.5897 155.997 69.0536 155.452C70.0215 154.303 71.4054 153.585 72.9018 153.455L73.0821 153.436C73.1794 153.417 73.278 153.404 73.3771 153.397L74.99 153.254C76.0174 153.172 77.4867 153.059 79.2552 152.96C82.7866 152.747 87.5378 152.606 92.3598 152.732C94.7765 152.797 97.213 152.935 99.4932 153.121C101.773 153.307 103.981 153.583 105.859 153.835C106.804 153.983 107.667 154.116 108.441 154.251L110.433 154.623L112.193 154.995C112.388 155.035 112.579 155.092 112.764 155.166C112.949 155.245 113.127 155.341 113.295 155.453C113.616 155.653 113.898 155.908 114.129 156.207C114.34 156.472 114.488 156.781 114.561 157.112C114.634 157.442 114.63 157.785 114.549 158.114L108.631 180.653C108.475 181.267 108.125 181.815 107.632 182.213C107.417 182.383 107.171 182.507 106.907 182.58C106.78 182.613 106.649 182.63 106.518 182.632C106.384 182.64 106.25 182.629 106.12 182.599L105.253 182.425C104.979 182.359 104.625 182.306 104.23 182.229C103.835 182.153 103.392 182.069 102.892 182C100.914 181.67 98.1548 181.351 95.3112 181.169C92.4675 180.987 89.5517 180.95 87.3508 180.97C86.2503 180.974 85.3234 181.007 84.6788 181.019L83.6595 181.056C83.5616 181.074 83.4626 181.085 83.3632 181.091L83.0542 181.102L82.2264 181.139C81.5455 181.168 80.6313 181.211 79.7212 181.281C78.8112 181.35 77.904 181.428 77.2161 181.465L76.0782 181.565C75.4331 181.616 74.7843 181.534 74.1725 181.323C73.5607 181.112 72.999 180.777 72.5226 180.339C71.4853 179.384 70.8316 178.083 70.6837 176.68ZM75.8914 179.051L77.0475 178.95C77.7437 178.896 78.672 178.825 79.5988 178.764C80.5257 178.703 81.451 178.652 82.1459 178.622L82.982 178.582L83.2994 178.568L83.2909 178.543L84.3422 178.505C84.6736 178.491 85.0777 178.485 85.5447 178.472C86.0117 178.459 86.5305 178.447 87.0996 178.446C89.3775 178.418 92.4051 178.454 95.3606 178.636C98.3161 178.818 101.202 179.154 103.287 179.495C103.818 179.573 104.278 179.664 104.705 179.74C105.132 179.815 105.493 179.875 105.783 179.945L106.708 180.141L111.713 157.402L110.006 157.045L108.061 156.69C107.306 156.558 106.467 156.435 105.545 156.29C103.714 156.04 101.581 155.762 99.3287 155.59C97.0766 155.418 94.6904 155.291 92.3143 155.207C87.5719 155.083 82.8992 155.22 79.414 155.432C77.6678 155.527 76.2181 155.644 75.2088 155.724L73.6167 155.86L73.1638 155.901C72.7771 155.931 72.4002 156.039 72.0558 156.217C71.7113 156.396 71.4064 156.641 71.159 156.94C70.9116 157.239 70.7267 157.585 70.6156 157.956C70.5044 158.328 70.4693 158.718 70.512 159.104C70.5983 159.866 70.9791 160.566 71.5733 161.052C72.1675 161.538 72.928 161.773 73.6929 161.707C73.6929 161.707 72.7145 161.795 71.7417 161.899C70.7689 162.004 69.7906 162.12 69.7906 162.12C69.4137 162.167 69.05 162.289 68.7211 162.479C68.3922 162.669 68.1047 162.923 67.8756 163.226C67.6464 163.529 67.4802 163.874 67.3868 164.242C67.2935 164.611 67.2748 164.994 67.3319 165.369C67.4224 166.117 67.8016 166.801 68.3887 167.274C68.9758 167.747 69.7243 167.972 70.4748 167.901L71.4588 167.788L72.4415 167.684C71.7081 167.798 71.0498 168.198 70.6115 168.797C70.1732 169.396 69.9907 170.145 70.1041 170.878C70.1692 171.616 70.5194 172.299 71.0803 172.782C71.6411 173.266 72.3685 173.511 73.1076 173.467L74.1503 173.361L75.1904 173.262C74.4981 173.409 73.8882 173.816 73.4855 174.398C73.0828 174.98 72.9175 175.694 73.0235 176.394C73.2009 178.009 74.4824 179.177 75.8914 179.051Z" fill="black"/>
<path d="M81.52 168.14C81.6522 168.006 81.7408 167.836 81.7737 167.651C81.8067 167.466 81.7827 167.276 81.7046 167.105C81.6266 166.934 81.4983 166.791 81.337 166.695C81.1757 166.599 80.989 166.554 80.8016 166.567L78.9228 166.684C77.4032 166.787 76.0025 166.896 74.7612 167.007C73.4054 167.139 71.9154 167.288 70.6169 167.437L68.7399 167.67C68.4953 167.701 68.2727 167.828 68.1214 168.022C67.9701 168.217 67.9025 168.464 67.9332 168.709C67.9639 168.953 68.0905 169.176 68.2852 169.327C68.4799 169.478 68.7266 169.546 68.9713 169.515L70.8385 169.281C72.1146 169.134 73.6075 168.98 74.9298 168.86C76.1557 168.744 77.5397 168.64 79.0243 168.544L80.8962 168.435C81.1342 168.42 81.3573 168.314 81.52 168.14Z" fill="black"/>
<path d="M81.153 161.654C81.2468 161.565 81.3213 161.458 81.3718 161.339C81.4223 161.22 81.4477 161.092 81.4465 160.962C81.4425 160.716 81.3408 160.482 81.1639 160.31C80.9869 160.139 80.7492 160.045 80.503 160.049L78.6181 160.079C77.0941 160.128 75.6875 160.164 74.4656 160.223C73.1234 160.284 71.6051 160.377 70.3022 160.472L68.4222 160.641C68.1891 160.676 67.9781 160.799 67.8321 160.984C67.6861 161.169 67.616 161.403 67.636 161.638C67.656 161.873 67.7647 162.091 67.9399 162.249C68.1152 162.407 68.3438 162.492 68.5796 162.488L70.4555 162.32C71.7346 162.224 73.2347 162.132 74.5699 162.064C75.7974 162.008 77.1801 161.956 78.686 161.923L80.5654 161.89C80.7832 161.885 80.9916 161.801 81.153 161.654Z" fill="black"/>
<path d="M83.6334 174.556C83.7697 174.427 83.864 174.26 83.9038 174.077C83.9435 173.894 83.9269 173.703 83.8561 173.53C83.7853 173.356 83.6637 173.208 83.5072 173.105C83.3507 173.002 83.1665 172.948 82.9791 172.952L81.0956 172.986C79.5716 173.035 78.1692 173.07 76.9417 173.125C75.6009 173.191 74.0814 173.28 72.78 173.379L70.904 173.547C70.777 173.549 70.6518 173.578 70.5362 173.63C70.4207 173.683 70.3172 173.759 70.2322 173.854C70.1472 173.948 70.0824 174.059 70.0419 174.179C70.0015 174.3 69.9863 174.427 69.9971 174.554C70.0079 174.68 70.0444 174.803 70.1047 174.915C70.1649 175.027 70.2475 175.125 70.3473 175.204C70.447 175.283 70.562 175.34 70.6848 175.373C70.8076 175.405 70.9358 175.412 71.0614 175.393L72.9331 175.227C74.2122 175.131 75.7122 175.039 77.0488 174.975C78.2749 174.915 79.6634 174.866 81.1678 174.829L83.0262 174.803C83.252 174.798 83.468 174.71 83.6334 174.556Z" fill="black"/>
<path d="M106.986 183.283L107.186 183.295L107.737 183.323L108.609 183.36C108.956 183.378 109.337 183.389 109.765 183.399L111.179 183.439L112.825 183.461C114.004 183.483 115.309 183.462 116.739 183.455C123.656 183.347 130.563 182.882 137.432 182.062C141.172 181.624 144.902 181.072 148.391 180.458C150.138 180.185 151.816 179.818 153.41 179.508L155.736 179.044C156.484 178.88 157.205 178.706 157.902 178.545L161.688 177.662C162.808 177.372 163.786 177.103 164.59 176.887L167.118 176.205L158.669 146.387L156.576 146.949C155.913 147.127 155.108 147.357 154.181 147.596L151.029 148.325C150.449 148.46 149.85 148.607 149.226 148.748L147.278 149.131C145.963 149.384 144.539 149.701 143.062 149.93C140.131 150.454 136.977 150.914 133.807 151.285C128.008 151.968 122.179 152.357 116.342 152.45C115.166 152.451 114.079 152.468 113.135 152.451L111.812 152.432L110.713 152.397L109.84 152.37L109.211 152.345L108.831 152.324L108.712 152.317L106.986 183.283Z" fill="#2563EB"/>
<path d="M160.185 145.75C160.218 145.827 160.245 145.907 160.265 145.989C160.322 146.2 160.337 146.419 160.308 146.636C160.279 146.852 160.208 147.06 160.098 147.249C159.988 147.437 159.841 147.602 159.667 147.733C159.493 147.864 159.294 147.959 159.082 148.013L156.996 148.578L156.214 148.791L154.578 149.228L154.544 149.239L151.39 149.974L150.75 150.125C150.369 150.212 149.976 150.307 149.571 150.393L149.537 150.404L147.59 150.787L146.432 151.02C145.435 151.221 144.404 151.43 143.324 151.603C140.239 152.142 137.078 152.608 133.985 152.972C128.13 153.664 122.244 154.056 116.349 154.144L115.306 154.152C114.519 154.156 113.779 154.164 113.098 154.151L111.779 154.13L111.758 154.137L110.656 154.108L110.259 154.093L108.704 181.738L109.789 181.773L111.202 181.809L112.834 181.831C113.707 181.845 114.657 181.841 115.652 181.813L116.713 181.804C123.578 181.701 130.434 181.247 137.253 180.444C140.845 180.023 144.511 179.489 148.119 178.853L148.148 178.843C149.407 178.646 150.645 178.4 151.843 178.159L153.11 177.903L155.41 177.443L156.826 177.118L157.544 176.95L161.305 176.076C162.044 175.887 162.723 175.699 163.326 175.537L164.183 175.309L166.701 174.626C166.91 174.569 167.128 174.554 167.343 174.582C167.558 174.61 167.766 174.679 167.954 174.787C168.142 174.895 168.306 175.039 168.439 175.211C168.571 175.382 168.668 175.578 168.725 175.787C168.782 175.997 168.796 176.215 168.769 176.43C168.741 176.645 168.671 176.852 168.563 177.04C168.455 177.228 168.312 177.393 168.14 177.525C167.968 177.658 167.772 177.755 167.563 177.812L165.036 178.498L164.18 178.726C163.564 178.893 162.863 179.083 162.099 179.281L162.065 179.292L158.284 180.173L157.57 180.34C157.091 180.455 156.602 180.569 156.097 180.679L156.068 180.689L153.747 181.156L152.487 181.405C151.259 181.652 149.992 181.907 148.671 182.116C145.004 182.757 141.29 183.299 137.631 183.728C130.701 184.543 123.734 185.005 116.758 185.112L115.696 185.121C114.671 185.127 113.698 185.134 112.796 185.116L111.16 185.095L111.139 185.102L109.725 185.062C109.287 185.051 108.9 185.038 108.535 185.021L106.894 184.945C106.678 184.933 106.466 184.879 106.271 184.784C106.076 184.69 105.902 184.559 105.758 184.397C105.614 184.235 105.503 184.047 105.432 183.842C105.361 183.638 105.332 183.421 105.345 183.205L107.082 152.277C107.113 151.846 107.313 151.443 107.637 151.156C107.8 151.013 107.99 150.903 108.195 150.833C108.401 150.764 108.619 150.736 108.835 150.751L108.954 150.758L109.286 150.772L109.916 150.801L110.761 150.829L111.855 150.86L113.165 150.884C113.796 150.9 114.517 150.894 115.285 150.886L116.33 150.883C122.102 150.789 127.865 150.398 133.597 149.714C136.633 149.361 139.716 148.911 142.765 148.375L142.798 148.364C143.812 148.213 144.806 148.007 145.776 147.824L146.951 147.586L148.872 147.207L149.993 146.945L150.647 146.794L153.772 146.069C154.343 145.923 154.877 145.775 155.347 145.649L156.142 145.432L158.226 144.872C158.604 144.759 159.009 144.786 159.368 144.947C159.728 145.109 160.017 145.393 160.185 145.75Z" fill="#2563EB"/>
<path d="M160.497 162.07L160.519 162.137C160.549 162.229 160.56 162.325 160.553 162.421C160.545 162.517 160.519 162.611 160.475 162.697C160.431 162.783 160.371 162.859 160.298 162.922C160.224 162.984 160.139 163.032 160.048 163.062C159.884 163.117 155.974 164.364 148.427 165.622C141.485 166.778 130.035 168.147 114.917 168.108C114.724 168.104 114.54 168.023 114.406 167.884C114.271 167.745 114.197 167.559 114.199 167.366C114.203 167.173 114.282 166.99 114.421 166.856C114.559 166.721 114.745 166.647 114.938 166.65C129.959 166.707 141.314 165.333 148.203 164.186C155.644 162.945 159.573 161.686 159.615 161.672C159.786 161.621 159.968 161.634 160.13 161.707C160.292 161.78 160.422 161.909 160.497 162.07Z" fill="black"/>
<path d="M151.264 174.61C151.337 174.763 151.354 174.937 151.313 175.102C151.272 175.267 151.175 175.413 151.038 175.514C150.901 175.615 150.734 175.666 150.564 175.658C150.394 175.649 150.233 175.582 150.107 175.467C147.097 172.751 144.404 168.634 142.106 163.203C141.086 160.817 140.232 158.364 139.549 155.861C139.505 155.673 139.536 155.476 139.636 155.312C139.735 155.147 139.895 155.028 140.082 154.981C140.268 154.933 140.466 154.96 140.632 155.057C140.798 155.153 140.92 155.311 140.971 155.497C141.014 155.622 144.277 168.247 151.087 174.375C151.161 174.441 151.221 174.521 151.264 174.61Z" fill="black"/>
<path d="M138.063 155.938C138.12 156.065 138.139 156.207 138.117 156.344C138.096 156.463 136.311 168.111 140.66 176.49C140.708 176.576 140.739 176.671 140.75 176.768C140.761 176.866 140.752 176.966 140.723 177.06C140.695 177.155 140.648 177.242 140.585 177.318C140.523 177.394 140.445 177.457 140.357 177.502C140.27 177.547 140.174 177.575 140.076 177.582C139.977 177.589 139.879 177.577 139.785 177.545C139.692 177.514 139.606 177.464 139.532 177.398C139.458 177.333 139.399 177.253 139.356 177.164C134.786 168.365 136.592 156.626 136.673 156.132C136.704 155.941 136.81 155.769 136.968 155.656C137.125 155.542 137.322 155.495 137.513 155.526C137.632 155.544 137.744 155.59 137.84 155.662C137.936 155.734 138.013 155.829 138.063 155.938Z" fill="black"/>
</g>
<defs>
<clipPath id="clip0_1696_70490">
<rect width="192" height="192" fill="white"/>
</clipPath>
</defs>
</svg>
