<svg viewBox="0 0 192 192" fill="none" xmlns="http://www.w3.org/2000/svg">
<g clip-path="url(#clip0_8208_23711)">
<rect width="192" height="192" fill=""/>
<path d="M163.645 152.008C163.645 152.008 166.578 148.814 164.314 140.492C162.051 132.169 160.095 130.109 159.682 130.211C159.27 130.312 146.715 139.567 146.715 140.492C146.715 141.416 152.169 148.408 152.478 148.615C152.787 148.822 163.645 152.008 163.645 152.008Z" fill="black"/>
<path d="M179.364 85.6211C179.364 85.6211 195.137 96.7979 191.435 109.406C187.934 121.334 174.399 130.517 164.987 138.146C155.575 145.775 153.184 146.677 153.184 146.677L138.983 123.934L143.576 111.945L162.768 100.514L179.364 85.6211Z" fill="#FDA894"/>
<path d="M23.1622 151.853C23.1622 151.853 21.7344 145.923 26.0772 138.167C30.42 130.412 33.6608 130.26 34.5863 131.185C35.5118 132.109 42.7681 147.377 42.7681 147.377C42.7681 147.377 41.8426 149.382 40.9156 149.845C39.9886 150.307 23.1622 151.853 23.1622 151.853Z" fill="black"/>
<path d="M9.42298 85.541C9.42298 85.541 -2.24161 93.9137 0.382658 106.07C3.00692 118.226 15.7568 128.423 24.5521 136.749C33.3473 145.075 35.6641 146.156 35.6641 146.156L51.565 124.562L42.1486 108.848L29.6438 99.3941L9.42298 85.541Z" fill="#FDA894"/>
<path d="M96.4815 96.5018C95.7554 94.677 93.5893 93.3799 91.9012 92.6013C89.0882 91.3058 83.0907 90.3918 81.5259 93.7525C79.2791 93.5518 76.8528 93.6688 75.1327 95.302C73.8875 96.4836 73.4583 98.284 74.1965 99.7849C72.755 100.421 71.4307 101.266 70.4732 102.565C69.2814 104.183 68.9008 106.353 70.0166 108.121C70.5113 108.912 71.2343 109.108 71.8676 109.665C72.5937 110.3 71.6362 111.549 71.8447 112.51C72.1933 114.117 73.5435 114.804 75.0124 115.095C75.4858 117.639 85.2675 120.166 85.2675 120.166C85.2675 120.166 85.2187 120.665 86.6542 119.062C87.9343 117.634 88.8203 115.896 89.522 114.128C91.2969 109.66 92.0047 104.87 95.0597 101.006C96.0811 99.6982 97.168 98.2415 96.4815 96.5018Z" fill="black"/>
<path d="M102.764 107.554C102.764 109.281 102.424 110.99 101.763 112.585C101.101 114.18 100.132 115.629 98.9099 116.849C97.688 118.07 96.2373 119.038 94.6407 119.699C93.0442 120.359 91.333 120.699 89.6049 120.699C88.5276 120.699 87.4542 120.569 86.4083 120.311C85.9259 120.193 85.4516 120.045 84.9881 119.867C82.101 118.786 79.6854 116.727 78.1628 114.048C76.6403 111.37 76.1074 108.242 76.6572 105.211C77.207 102.181 78.8046 99.4387 81.1712 97.4644C83.5378 95.49 86.5232 94.4084 89.6065 94.4082C91.5903 94.4093 93.5483 94.8582 95.334 95.7213C97.1198 96.5845 98.6873 97.8396 99.9193 99.3929C100.243 99.7946 100.54 100.217 100.808 100.657C100.814 100.664 100.818 100.672 100.82 100.681C100.833 100.709 100.848 100.736 100.865 100.761C100.976 100.935 101.081 101.107 101.178 101.286C101.401 101.695 101.601 102.115 101.778 102.545C102.431 104.134 102.766 105.836 102.764 107.554Z" fill="#FDA894"/>
<path d="M101.753 123.117C97.0097 125.197 89.3957 122.309 86.4137 120.311C83.4378 118.318 87.1428 108.45 87.1428 108.45L97.7571 102.404L100.814 100.658C100.819 100.665 100.824 100.674 100.826 100.683C100.864 100.751 100.978 100.973 101.153 101.306C101.328 101.639 101.531 102.047 101.783 102.553C103.153 105.31 105.618 110.46 106.464 113.829C107.383 117.486 106.495 121.032 101.753 123.117Z" fill="#FDA894"/>
<path d="M99.8447 121.936C99.8447 121.936 99.7778 122.626 99.6788 123.706C99.5555 124.983 99.3744 126.789 99.2024 128.628C98.8629 132.206 98.5113 135.889 98.5113 135.968C98.5113 136.12 92.59 139.466 92.59 139.466L80.7031 134.733L85.253 118.941L99.8447 121.936Z" fill="#FDA894"/>
<path d="M93.8427 107.348C93.7605 107.211 93.6619 107.085 93.5489 106.972C93.3997 106.814 93.207 106.702 92.9949 106.653C92.418 106.545 92.2064 107.077 92.3464 107.544C92.4653 107.943 92.6955 108.301 93.0101 108.575C93.1336 108.69 93.2821 108.776 93.4439 108.824C93.5253 108.847 93.611 108.851 93.6942 108.836C93.7774 108.82 93.8559 108.786 93.9234 108.735C94.103 108.582 94.1304 108.319 94.1015 108.087C94.067 107.825 93.979 107.574 93.8427 107.348Z" fill="black"/>
<path d="M100.79 104.918C100.708 104.781 100.609 104.655 100.496 104.542C100.347 104.384 100.154 104.272 99.9419 104.223C99.365 104.115 99.1534 104.647 99.292 105.114C99.412 105.514 99.6426 105.871 99.9572 106.145C100.081 106.26 100.229 106.345 100.391 106.393C100.472 106.416 100.558 106.421 100.641 106.405C100.724 106.39 100.803 106.356 100.87 106.305C101.05 106.153 101.078 105.89 101.047 105.657C101.013 105.396 100.926 105.144 100.79 104.918Z" fill="black"/>
<path d="M93.2382 103.133C93.2154 103.108 93.1895 103.085 93.1652 103.064C92.964 102.909 92.7226 102.815 92.4695 102.792C91.8607 102.713 91.2518 102.874 90.6764 103.096C90.1799 103.278 89.7169 103.54 89.3064 103.873C88.8254 104.284 87.8527 105.643 88.9091 106.002C89.2349 106.115 89.5941 106.029 89.9244 105.927C91.0541 105.604 92.1063 105.055 93.0175 104.314C93.2216 104.172 93.3709 103.964 93.4407 103.726C93.4543 103.618 93.4431 103.508 93.408 103.406C93.3729 103.303 93.3149 103.21 93.2382 103.133Z" fill="black"/>
<path d="M100.821 100.675C100.819 100.666 100.814 100.658 100.809 100.65C100.54 100.211 100.243 99.7884 99.9197 99.3867C99.8086 99.4232 99.6975 99.4658 99.5864 99.5099C99.0872 99.6908 98.6217 99.9534 98.2088 100.287C97.7521 100.694 96.7947 102.002 97.7521 102.396C97.7717 102.407 97.7927 102.415 97.8145 102.42C98.1418 102.531 98.4995 102.446 98.8268 102.347C99.6446 102.104 100.426 101.751 101.148 101.298C101.157 101.291 101.167 101.286 101.179 101.286C101.061 101.076 100.944 100.872 100.821 100.675Z" fill="black"/>
<path d="M98.9671 110.061C98.9131 110.062 98.8599 110.049 98.8128 110.023C98.7657 109.997 98.7265 109.958 98.6991 109.912C98.6717 109.866 98.6571 109.813 98.6568 109.759C98.6566 109.705 98.6707 109.652 98.6977 109.605C99.1269 108.831 99.4329 107.955 99.34 107.77C99.0706 107.52 97.7371 106.774 96.9045 106.336C96.8687 106.317 96.837 106.291 96.8112 106.26C96.7853 106.229 96.7659 106.193 96.754 106.155C96.742 106.116 96.7378 106.075 96.7416 106.035C96.7453 105.995 96.757 105.956 96.7759 105.92C96.7948 105.884 96.8205 105.853 96.8517 105.827C96.8828 105.801 96.9187 105.782 96.9574 105.77C96.9961 105.758 97.0367 105.753 97.077 105.757C97.1173 105.761 97.1564 105.773 97.1922 105.791C97.4114 105.907 99.337 106.93 99.7677 107.332C100.278 107.811 99.6505 109.157 99.2319 109.905C99.2057 109.952 99.1673 109.992 99.1208 110.019C99.0742 110.047 99.0212 110.061 98.9671 110.061Z" fill="#BF3131"/>
<path d="M97.8607 113.488C96.5866 113.488 95.8711 112.961 95.83 112.929C95.7646 112.879 95.7215 112.806 95.71 112.725C95.6986 112.644 95.7199 112.562 95.7691 112.497C95.8184 112.431 95.8916 112.388 95.9727 112.377C96.0538 112.366 96.1361 112.387 96.2015 112.436C96.2517 112.472 97.436 113.321 99.5503 112.547C101.031 112.007 101.136 110.751 101.141 110.696C101.148 110.616 101.186 110.541 101.247 110.488C101.308 110.435 101.387 110.407 101.468 110.41C101.509 110.412 101.548 110.422 101.585 110.44C101.621 110.457 101.654 110.482 101.681 110.512C101.708 110.542 101.728 110.577 101.742 110.615C101.755 110.654 101.76 110.694 101.757 110.734C101.757 110.804 101.636 112.444 99.7634 113.128C99.1552 113.358 98.5111 113.48 97.8607 113.488Z" fill="#BF3131"/>
<path d="M99.6778 123.709C99.5545 124.986 99.3734 126.793 99.2014 128.631C98.9124 128.603 98.6295 128.53 98.3627 128.415C95.7932 127.287 91.1992 122.197 91.1992 122.197C92.533 122.637 93.8916 122.998 95.268 123.277C96.7245 123.535 98.1989 123.68 99.6778 123.709Z" fill="#BF3131"/>
<path d="M90.9404 97.1565C88.001 98.3897 82.7083 101.734 82.7083 101.734C83.5656 103.095 84.2618 104.551 84.7831 106.072C85.5183 108.342 85.9004 109.915 84.9871 111.957C84.0737 113.999 84.9871 119.872 84.9871 119.872C79.9318 118.269 75.2998 113.193 75.2998 107.555C75.2998 100.294 82.3384 93.9707 89.6084 93.9707C91.9435 93.9707 94.1294 95.0093 96.0245 96.0768C94.6697 96.1696 92.6772 96.4281 90.9404 97.1565Z" fill="black"/>
<path d="M88.4464 110.908C89.6778 113.591 89.1146 116.48 87.1905 117.362C85.2665 118.244 82.7077 116.781 81.4762 114.097C80.2448 111.413 80.8095 108.526 82.7336 107.644C84.6576 106.762 87.2164 108.224 88.4464 110.908Z" fill="#FDA894"/>
<path d="M83.1516 126.234L92.4613 131.767L99.1468 129.206L104.579 133.772L94.3138 142.948L76.291 134.35L83.1516 126.234Z" fill="#2563EB"/>
<path d="M131.533 205.369C131.077 211.845 125.668 215.393 125.668 215.393L100.135 216.939L99.5125 216.976L67.0623 218.938C67.0623 218.938 63.6663 217.809 62.1228 215.236C59.9354 211.604 52.6426 178.946 52.6426 175.449C52.6426 171.951 65.9192 128.156 65.9192 128.156C65.9192 128.156 79.3982 131.858 80.1213 131.858L92.5028 134.405L93.1376 134.534L93.442 134.596L126.589 130.265C126.589 130.265 131.998 198.889 131.533 205.369Z" fill="#2563EB"/>
<path d="M100.136 216.939L99.5132 216.975C99.8531 214.617 99.9667 212.231 99.8526 209.851C99.3959 200.697 93.7334 146.041 92.5171 134.401C92.3741 133.063 92.2934 132.292 92.2873 132.223C92.2824 132.183 92.2859 132.141 92.2974 132.102C92.3089 132.063 92.3283 132.026 92.3543 131.994C92.3803 131.963 92.4124 131.937 92.4488 131.918C92.4852 131.899 92.525 131.887 92.5659 131.884C92.6465 131.877 92.7268 131.901 92.7901 131.951C92.8533 132.002 92.8946 132.075 92.9053 132.155C92.9053 132.229 93.0042 133.067 93.1519 134.53C94.4062 146.584 100.025 200.703 100.469 209.827C100.588 212.203 100.477 214.584 100.136 216.939Z" fill="black"/>
<path d="M78.6648 131.544L42.1535 108.844C42.1535 108.844 42.7699 123.84 34.6125 140.668C29.9363 150.313 23.1641 151.854 23.1641 151.854L56.9735 179.151L76.4485 156.173L78.6648 131.544Z" fill="#2563EB"/>
<path d="M101.91 133.26L143.577 111.943C143.577 111.943 148.71 129.057 152.377 137.919C157.522 150.36 163.641 152.005 163.641 152.005L119.65 177.45C119.65 177.45 112.704 146.023 113.013 145.313C113.322 144.602 101.91 133.26 101.91 133.26Z" fill="#2563EB"/>
<path d="M9.42383 85.5409L52.6542 54.6914L67.3692 73.66C67.3692 73.66 34.3787 101.488 31.4454 103.475C28.5122 105.463 23.0064 106.457 22.5939 106.457C22.1814 106.457 12.5093 97.9205 12.0009 97.3031C11.4925 96.6857 9.42383 85.5409 9.42383 85.5409Z" fill="#FDA894"/>
<path d="M25.5932 109.15C25.5295 109.152 25.4669 109.133 25.4143 109.097C25.3616 109.062 25.3216 109.01 25.2997 108.95C25.2779 108.891 25.2753 108.826 25.2925 108.764C25.3096 108.703 25.3456 108.649 25.3953 108.609L32.4492 102.56C32.4799 102.533 32.5157 102.513 32.5543 102.5C32.5929 102.487 32.6336 102.482 32.6742 102.485C32.7148 102.488 32.7544 102.499 32.7907 102.517C32.827 102.536 32.8594 102.561 32.886 102.592C32.9126 102.622 32.9329 102.658 32.9457 102.697C32.9584 102.735 32.9635 102.776 32.9605 102.816C32.9575 102.857 32.9466 102.896 32.9284 102.933C32.9101 102.969 32.8848 103.001 32.8541 103.028L25.8017 109.077C25.7438 109.127 25.6694 109.153 25.5932 109.15Z" fill="black"/>
<path d="M67.3637 73.6545C75.5836 70.6603 83.7654 66.4329 86.7991 57.6603C87.6028 55.3307 87.857 52.8611 88.3137 50.4509C88.6851 48.4908 89.0748 46.5291 89.5436 44.5903C90.2393 41.7376 88.6181 38.6598 85.9939 40.9666C83.3696 43.2734 83.0606 49.7575 81.4395 51.6857C79.8183 53.6138 77.9658 53.6123 76.8851 51.9168C75.8043 50.2213 72.7949 44.7454 72.4859 44.6679C72.1769 44.5903 57.8196 48.3691 57.4344 48.6778C57.0493 48.9865 52.6426 54.6859 52.6426 54.6859C52.6426 54.6859 56.1923 65.7958 56.27 66.2581C56.3476 66.7203 67.3637 73.6545 67.3637 73.6545Z" fill="#FDA894"/>
<path d="M52.6437 54.6891C52.6437 54.6891 51.4854 49.2589 52.6437 46.3256C53.8021 43.3922 56.7735 43.5123 56.7735 43.5123C56.7735 43.5123 56.9668 41.4823 58.2789 40.4148C59.591 39.3473 61.4755 39.694 61.4755 39.694C61.4755 39.694 61.2822 37.5362 64.2155 36.8412C67.1487 36.1463 69.9283 39.3473 70.7761 41.1599C71.624 42.9725 72.1659 47.869 72.1659 47.869C72.1659 47.869 69.9283 53.3814 69.5416 54.0763C69.155 54.7712 66.9174 57.3138 64.5625 57.5449C62.2077 57.7761 52.6437 54.6891 52.6437 54.6891Z" fill="#FDA894"/>
<path d="M69.2451 41.0858C69.2451 41.0858 71.1753 32.7967 75.652 30.4838C80.1288 28.1709 83.3711 30.5857 85.2738 32.5914C86.6605 34.0512 90.3503 38.8489 86.6986 39.8905C84.8461 40.4197 83.3163 39.1089 82.0194 37.9806C81.2841 37.3389 80.2871 36.7093 79.3023 36.5345C77.984 36.3003 77.6278 37.2492 77.2671 38.3197C76.3751 40.993 75.9534 44.0252 75.9534 46.8353C75.9534 46.9996 75.9534 47.1638 75.9534 47.328C76.0691 50.5731 76.6993 51.9204 77.2321 52.3766C77.7648 52.8328 78.7314 55.0256 77.5746 54.6849C76.4177 54.3443 72.3641 54.2288 71.8237 53.4198C71.2833 52.6108 69.8555 52.4161 69.8159 48.908C69.7764 45.3998 69.2451 41.0858 69.2451 41.0858Z" fill="#FDA894"/>
<path d="M65.861 57.5913C64.4819 57.5913 63.4651 56.3747 63.0587 55.5794C63.0217 55.5064 63.0153 55.4218 63.0409 55.3441C63.0664 55.2663 63.1218 55.202 63.1949 55.1651C63.268 55.1281 63.3527 55.1218 63.4305 55.1473C63.5083 55.1728 63.5728 55.2282 63.6097 55.3012C63.6584 55.397 64.8412 57.6658 66.7424 56.7595C67.9251 56.1938 68.7867 53.557 67.3238 47.9868C65.8291 42.292 61.8105 40.1844 61.7709 40.1646C61.698 40.1275 61.6429 40.063 61.6176 39.9853C61.5924 39.9076 61.599 39.823 61.6362 39.7502C61.6733 39.6774 61.7379 39.6223 61.8157 39.5971C61.8935 39.5719 61.9781 39.5785 62.051 39.6156C62.226 39.7038 66.3573 41.8708 67.9206 47.8271C69.8796 55.2859 67.7181 56.9723 67.0072 57.3115C66.6513 57.4902 66.2594 57.5859 65.861 57.5913Z" fill="black"/>
<path d="M65.7183 64.1024C65.6922 64.1016 65.6661 64.098 65.6407 64.0917C65.6013 64.082 65.5641 64.0645 65.5316 64.0402C65.499 64.0159 65.4716 63.9854 65.4511 63.9504C65.4305 63.9154 65.4172 63.8766 65.4118 63.8364C65.4065 63.7962 65.4092 63.7553 65.42 63.7161C65.455 63.5823 66.3105 60.3981 69.9455 57.3294C72.8772 54.8492 77.7087 53.4426 77.9066 53.3833C77.9455 53.372 77.9864 53.3685 78.0267 53.373C78.067 53.3775 78.1061 53.3898 78.1416 53.4094C78.1772 53.4289 78.2085 53.4553 78.2339 53.487C78.2592 53.5186 78.2781 53.555 78.2894 53.5939C78.3007 53.6328 78.3042 53.6736 78.2997 53.7139C78.2952 53.7542 78.2828 53.7932 78.2633 53.8287C78.2437 53.8643 78.2173 53.8956 78.1856 53.9209C78.1539 53.9462 78.1175 53.9651 78.0786 53.9763C78.0283 53.99 73.1741 55.4058 70.3443 57.7993C66.8691 60.7387 66.0258 63.8439 66.0182 63.8819C65.9997 63.9466 65.9602 64.0033 65.906 64.0433C65.8517 64.0832 65.7857 64.1039 65.7183 64.1024Z" fill="black"/>
<path d="M179.367 85.6198C179.367 85.6198 177.422 96.1746 176.916 96.7981C176.411 97.4216 166.826 106.057 166.413 106.063C166.001 106.07 161.288 106.672 158.345 104.712C156.321 103.367 143.107 89.2846 135.01 80.5804C133.35 78.7845 131.905 77.2243 130.818 76.0458L128.699 73.7511L143.215 54.6289L148.154 58.8594L152.853 62.8937L179.367 85.6198Z" fill="#FDA894"/>
<path d="M128.702 73.7519C120.456 70.8474 112.221 66.7097 109.093 57.9706C108.263 55.65 107.983 53.1835 107.501 50.7779C107.108 48.8223 106.699 46.8652 106.205 44.9325C105.481 42.0874 106.814 38.4545 109.458 40.7401C112.102 43.0256 112.745 50.0282 114.387 51.9381C116.03 53.8481 117.888 53.8268 118.943 52.1191C119.998 50.4114 122.956 44.9036 123.265 44.82C123.574 44.7363 137.969 48.3631 138.359 48.6672C138.748 48.9713 143.213 54.6251 143.213 54.6251C143.213 54.6251 139.785 65.773 139.712 66.2368C139.639 66.7006 128.702 73.7519 128.702 73.7519Z" fill="#FDA894"/>
<path d="M143.215 54.626C143.215 54.626 144.314 49.1836 143.125 46.2624C141.936 43.3412 138.965 43.4933 138.965 43.4933C138.965 43.4933 138.75 41.4663 137.426 40.4125C136.101 39.3586 134.215 39.7266 134.215 39.7266C134.215 39.7266 134.384 37.5658 131.443 36.9043C128.503 36.2428 125.76 39.4727 124.93 41.2929C124.1 43.1131 123.613 48.0172 123.613 48.0172C123.613 48.0172 125.912 53.5053 126.306 54.1956C126.7 54.886 128.965 57.4042 131.322 57.611C133.678 57.8178 143.215 54.626 143.215 54.626Z" fill="#FDA894"/>
<path d="M126.469 41.2018C126.469 41.2018 124.449 32.9341 119.946 30.6683C115.443 28.4025 112.229 30.8553 110.347 32.8808C108.977 34.3559 105.339 39.1931 109.003 40.1967C110.86 40.7061 112.378 39.3786 113.661 38.2366C114.39 37.5872 115.379 36.9455 116.361 36.76C117.678 36.5121 118.046 37.4565 118.416 38.524C119.337 41.1866 119.786 44.2142 119.824 47.0275C119.824 47.1917 119.824 47.3559 119.824 47.5201C119.744 50.7667 119.129 52.1201 118.607 52.5824C118.084 53.0447 117.138 55.2481 118.291 54.8953C119.445 54.5425 123.496 54.3813 124.027 53.5663C124.558 52.7512 125.985 52.5429 125.985 49.0332C125.985 45.5235 126.469 41.2018 126.469 41.2018Z" fill="#FDA894"/>
<path d="M130.004 57.6729C129.614 57.6691 129.229 57.5787 128.878 57.4083C128.165 57.0768 125.985 55.4132 127.862 47.9347C129.363 41.9585 133.47 39.7475 133.647 39.6563C133.719 39.6183 133.804 39.6107 133.882 39.6351C133.96 39.6595 134.025 39.7139 134.063 39.7863C134.101 39.8587 134.109 39.9432 134.084 40.0211C134.06 40.0991 134.005 40.1643 133.933 40.2022C133.893 40.2235 129.894 42.3889 128.465 48.0852C127.065 53.6691 127.954 56.2967 129.141 56.8487C131.054 57.7368 132.211 55.4543 132.258 55.357C132.295 55.2836 132.358 55.2275 132.436 55.2012C132.513 55.1748 132.598 55.1802 132.672 55.2163C132.745 55.2524 132.801 55.3162 132.828 55.3936C132.854 55.471 132.849 55.5558 132.812 55.6292C132.406 56.4397 131.397 57.6729 130.004 57.6729Z" fill="black"/>
<path d="M130.24 64.1791C130.171 64.1813 130.103 64.1599 130.048 64.1184C129.992 64.0769 129.953 64.0179 129.935 63.951C129.926 63.9206 129.051 60.8245 125.542 57.9231C122.687 55.56 117.817 54.1975 117.769 54.1838C117.69 54.1621 117.623 54.1098 117.582 54.0387C117.542 53.9675 117.531 53.8833 117.553 53.8044C117.575 53.7256 117.627 53.6586 117.698 53.6183C117.77 53.5779 117.854 53.5675 117.933 53.5893C118.138 53.6455 122.977 55.0004 125.937 57.4472C129.605 60.4885 130.503 63.656 130.531 63.7898C130.542 63.8288 130.545 63.8697 130.54 63.9101C130.536 63.9504 130.523 63.9894 130.503 64.0247C130.482 64.06 130.455 64.0909 130.423 64.1156C130.391 64.1403 130.354 64.1582 130.314 64.1684C130.29 64.1744 130.265 64.178 130.24 64.1791Z" fill="black"/>
<path d="M163.87 111.02C163.827 111.021 163.785 111.012 163.747 110.995C163.708 110.978 163.673 110.954 163.644 110.923L157.571 104.418C157.515 104.357 157.485 104.277 157.489 104.195C157.492 104.112 157.528 104.035 157.588 103.979C157.649 103.923 157.729 103.893 157.811 103.897C157.894 103.9 157.971 103.936 158.027 103.996L164.099 110.502C164.142 110.545 164.171 110.6 164.183 110.66C164.194 110.72 164.187 110.781 164.163 110.837C164.139 110.893 164.098 110.94 164.047 110.973C163.995 111.006 163.935 111.022 163.874 111.02H163.87Z" fill="black"/>
<path d="M97.1357 37.7331H93.9969C93.8742 37.7331 93.7565 37.6844 93.6697 37.5978C93.5829 37.5111 93.5342 37.3935 93.5342 37.2709C93.5342 37.1483 93.5829 37.0307 93.6697 36.944C93.7565 36.8573 93.8742 36.8086 93.9969 36.8086H97.1357C97.2584 36.8086 97.3761 36.8573 97.4629 36.944C97.5497 37.0307 97.5984 37.1483 97.5984 37.2709C97.5984 37.3935 97.5497 37.5111 97.4629 37.5978C97.3761 37.6844 97.2584 37.7331 97.1357 37.7331Z" fill="black"/>
<path d="M97.1357 43.3621H93.9969C93.8742 43.3621 93.7565 43.3134 93.6697 43.2267C93.5829 43.14 93.5342 43.0224 93.5342 42.8998C93.5342 42.7772 93.5829 42.6596 93.6697 42.5729C93.7565 42.4862 93.8742 42.4375 93.9969 42.4375H97.1357C97.2584 42.4375 97.3761 42.4862 97.4629 42.5729C97.5497 42.6596 97.5984 42.7772 97.5984 42.8998C97.5984 43.0224 97.5497 43.14 97.4629 43.2267C97.3761 43.3134 97.2584 43.3621 97.1357 43.3621Z" fill="black"/>
<path d="M92.5737 39.7076L86.6554 39.8794C81.6005 40.0259 76.6736 41.5008 72.3711 44.1555C72.4606 44.2142 72.5355 44.2925 72.5901 44.3844C72.6447 44.4764 72.6776 44.5796 72.6862 44.6862C76.8986 42.0848 81.7234 40.6397 86.6737 40.4968L92.5919 40.325C92.6331 40.325 92.6738 40.3167 92.7117 40.3006C92.7496 40.2844 92.7837 40.2608 92.8122 40.2311C92.8407 40.2014 92.8628 40.1662 92.8773 40.1277C92.8917 40.0892 92.8982 40.0482 92.8964 40.0071C92.8958 39.966 92.8869 39.9254 92.8702 39.8878C92.8535 39.8502 92.8294 39.8164 92.7992 39.7884C92.769 39.7604 92.7335 39.7388 92.6947 39.7249C92.656 39.711 92.6148 39.7051 92.5737 39.7076Z" fill="#2563EB"/>
<path d="M94.6374 35.1953C94.5993 35.1953 94.5643 35.1953 94.5263 35.1953C91.8716 35.1953 89.7207 37.4854 89.7207 40.3108C89.7207 43.1362 91.8716 45.4247 94.5263 45.4247C94.5643 45.4247 94.5993 45.4247 94.6374 45.4247V35.1953Z" fill="#2563EB"/>
<path d="M123.425 44.2553C119.084 41.5363 114.096 40.0254 108.974 39.8789L103.056 39.707C102.974 39.707 102.896 39.7386 102.837 39.7953C102.777 39.852 102.743 39.9294 102.74 40.0112C102.738 40.0522 102.744 40.0933 102.759 40.1318C102.773 40.1702 102.795 40.2054 102.824 40.2351C102.852 40.2648 102.886 40.2885 102.924 40.3046C102.962 40.3207 103.003 40.329 103.044 40.329L108.962 40.5008C114.023 40.6463 118.95 42.1524 123.225 44.8605C123.213 44.7512 123.224 44.6405 123.258 44.536C123.293 44.4315 123.35 44.3358 123.425 44.2553Z" fill="#2563EB"/>
<path d="M101.277 35.1953V45.4065C103.848 45.3061 105.905 43.0632 105.905 40.3017C105.905 37.5402 103.848 35.2957 101.277 35.1953Z" fill="#2563EB"/>
<path d="M101.331 35.1855H101.191C100.244 35.1855 99.4756 35.9528 99.4756 36.8993V43.7012C99.4756 44.6477 100.244 45.415 101.191 45.415H101.331C102.279 45.415 103.047 44.6477 103.047 43.7012V36.8993C103.047 35.9528 102.279 35.1855 101.331 35.1855Z" fill="#CBD5E1"/>
<path d="M101.963 37.2692C101.963 37.1316 101.922 36.9972 101.845 36.8829C101.769 36.7686 101.66 36.6795 101.533 36.627C101.406 36.5744 101.266 36.5607 101.131 36.5877C100.996 36.6146 100.872 36.681 100.774 36.7783C100.677 36.8756 100.611 36.9996 100.584 37.1345C100.558 37.2694 100.572 37.4092 100.625 37.5362C100.678 37.6631 100.767 37.7715 100.882 37.8477C100.996 37.9239 101.131 37.9644 101.268 37.9641C101.36 37.9641 101.45 37.9461 101.534 37.9112C101.619 37.8762 101.695 37.825 101.76 37.7605C101.824 37.6959 101.875 37.6193 101.91 37.535C101.945 37.4507 101.963 37.3603 101.963 37.2692Z" fill="black"/>
<path d="M101.963 42.8976C101.963 42.7601 101.922 42.6255 101.846 42.511C101.77 42.3965 101.661 42.3071 101.534 42.2544C101.407 42.2016 101.267 42.1877 101.132 42.2145C100.997 42.2412 100.872 42.3074 100.775 42.4047C100.678 42.502 100.611 42.626 100.585 42.7609C100.558 42.8959 100.572 43.0357 100.625 43.1628C100.677 43.2898 100.767 43.3983 100.881 43.4746C100.996 43.5508 101.131 43.5913 101.268 43.591C101.453 43.591 101.629 43.518 101.759 43.3879C101.889 43.2579 101.963 43.0815 101.963 42.8976Z" fill="black"/>
<path d="M86.9203 140.184C86.8801 140.184 86.8403 140.177 86.8032 140.161C86.7661 140.146 86.7325 140.123 86.7041 140.095L78.9075 132.409C78.8491 132.352 78.816 132.274 78.8154 132.192C78.8149 132.11 78.8469 132.031 78.9044 131.973C78.9619 131.915 79.0403 131.882 79.1222 131.881C79.2041 131.88 79.2829 131.912 79.3413 131.97L86.8837 139.406L92.3408 132.006C92.3677 131.971 92.4018 131.941 92.4409 131.92C92.48 131.898 92.5232 131.885 92.5676 131.882C92.612 131.878 92.6565 131.885 92.698 131.901C92.7396 131.916 92.7771 131.941 92.8081 131.973L99.2638 138.504L102.501 133.212C102.544 133.142 102.613 133.093 102.693 133.073C102.772 133.054 102.856 133.068 102.926 133.11C102.996 133.153 103.046 133.222 103.065 133.301C103.084 133.381 103.071 133.465 103.028 133.535L99.585 139.161C99.561 139.201 99.528 139.236 99.4885 139.261C99.449 139.287 99.4041 139.303 99.3573 139.308C99.3106 139.314 99.2632 139.308 99.219 139.292C99.1747 139.276 99.1348 139.25 99.1024 139.216L92.624 132.662L87.1699 140.057C87.1433 140.092 87.1095 140.122 87.0707 140.143C87.0319 140.165 86.9889 140.178 86.9446 140.181L86.9203 140.184Z" fill="black"/>
<path d="M95.0174 138.766C94.9405 138.766 94.8663 138.737 94.8098 138.685C94.7533 138.633 94.7187 138.561 94.713 138.484L94.5607 136.775C94.5572 136.735 94.5617 136.695 94.5737 136.657C94.5858 136.619 94.6053 136.583 94.6311 136.552C94.6569 136.522 94.6885 136.496 94.7241 136.478C94.7597 136.459 94.7985 136.448 94.8385 136.445C94.8785 136.441 94.9188 136.445 94.9571 136.457C94.9953 136.47 95.0309 136.489 95.0616 136.515C95.0924 136.541 95.1177 136.572 95.1362 136.608C95.1548 136.643 95.1661 136.682 95.1696 136.722L95.3218 138.431C95.326 138.472 95.322 138.513 95.31 138.552C95.298 138.591 95.2783 138.627 95.252 138.658C95.2257 138.689 95.1934 138.715 95.1571 138.733C95.1207 138.752 95.0809 138.763 95.0402 138.766H95.0174Z" fill="black"/>
<path d="M97.6794 161.843C97.6023 161.843 97.5279 161.814 97.4714 161.761C97.4148 161.709 97.3804 161.637 97.375 161.56L97.2228 159.851C97.2159 159.77 97.2414 159.69 97.2936 159.628C97.3459 159.566 97.4206 159.527 97.5013 159.521C97.5821 159.514 97.6623 159.539 97.7242 159.591C97.7861 159.644 97.8248 159.718 97.8317 159.799L97.9839 161.508C97.9878 161.548 97.9837 161.589 97.9717 161.628C97.9597 161.667 97.9401 161.702 97.914 161.734C97.8879 161.765 97.8559 161.79 97.8198 161.809C97.7837 161.827 97.7442 161.838 97.7038 161.841L97.6794 161.843Z" fill="black"/>
<path d="M99.8762 184.977C99.7993 184.977 99.7251 184.948 99.6686 184.896C99.6122 184.844 99.5776 184.772 99.5718 184.696L99.4196 182.986C99.4154 182.946 99.4194 182.905 99.4314 182.866C99.4434 182.827 99.4631 182.791 99.4894 182.759C99.5157 182.728 99.548 182.703 99.5843 182.684C99.6207 182.666 99.6605 182.655 99.7012 182.652C99.7417 182.648 99.7825 182.652 99.8214 182.664C99.8602 182.676 99.8962 182.696 99.9273 182.722C99.9584 182.748 99.9839 182.781 100.002 182.817C100.021 182.853 100.032 182.893 100.035 182.933L100.187 184.642C100.191 184.683 100.187 184.724 100.174 184.762C100.162 184.801 100.143 184.837 100.116 184.868C100.09 184.899 100.058 184.925 100.022 184.943C99.9853 184.962 99.9457 184.973 99.9051 184.975L99.8762 184.977Z" fill="black"/>
<path d="M53.4713 174.74H53.4165C53.3762 174.733 53.3377 174.719 53.3032 174.697C53.2687 174.675 53.2389 174.647 53.2156 174.613C53.1923 174.58 53.176 174.542 53.1676 174.502C53.1592 174.462 53.159 174.421 53.1669 174.381L62.0626 125.361C62.0773 125.28 62.1235 125.209 62.191 125.162C62.2585 125.116 62.3418 125.098 62.4226 125.112C62.5033 125.127 62.5749 125.173 62.6216 125.241C62.6682 125.308 62.6862 125.391 62.6715 125.472L53.7742 174.49C53.7613 174.561 53.7238 174.625 53.6684 174.67C53.6129 174.716 53.5431 174.74 53.4713 174.74Z" fill="black"/>
<path d="M129.645 171.403C129.578 171.404 129.512 171.383 129.459 171.342C129.405 171.302 129.366 171.245 129.348 171.18L117.185 128.235C117.162 128.156 117.172 128.072 117.212 128C117.252 127.929 117.319 127.876 117.398 127.854C117.477 127.831 117.561 127.841 117.633 127.881C117.705 127.921 117.757 127.988 117.78 128.066L129.938 171.011C129.949 171.05 129.953 171.091 129.949 171.132C129.944 171.172 129.932 171.211 129.912 171.247C129.892 171.283 129.865 171.314 129.833 171.339C129.801 171.364 129.764 171.382 129.724 171.393C129.699 171.4 129.672 171.403 129.645 171.403Z" fill="black"/>
<path fill-rule="evenodd" clip-rule="evenodd" d="M24.0002 38.7695C24 53.8507 28.1823 59.6205 31.2257 61.7275C33.5704 63.3507 36.9904 64.7904 41.4052 64.2949C45.8236 63.799 51.29 61.3589 57.7124 55.1201L58.227 55.6498C51.726 61.9648 46.1154 64.5093 41.4876 65.0288C36.8561 65.5486 33.2607 64.0345 30.8054 62.3347C27.4768 60.0302 23.2616 53.9652 23.2617 38.7695L24.0002 38.7695Z" fill="#2563EB"/>
<path fill-rule="evenodd" clip-rule="evenodd" d="M169.836 38.3164C171.332 44.6737 170.221 51.436 167.19 55.6028C164.143 59.7929 158.839 61.6625 153.23 61.6625C147.586 61.6625 141.21 58.6633 137.817 54.8941L138.366 54.4001C141.62 58.0156 147.798 60.9241 153.23 60.9241C158.698 60.9241 163.733 59.1014 166.593 55.1684C169.471 51.2121 170.575 44.682 169.117 38.4855L169.836 38.3164Z" fill="#2563EB"/>
<path d="M70.5174 54.5221C69.8386 54.5107 69.1707 54.3497 68.5614 54.0506C68.5253 54.0322 68.4932 54.0068 68.4671 53.9758C68.441 53.9448 68.4213 53.9089 68.4093 53.8703C68.3972 53.8316 68.393 53.7909 68.3969 53.7506C68.4008 53.7103 68.4127 53.6712 68.432 53.6355C68.4503 53.5991 68.4757 53.5668 68.5068 53.5404C68.5379 53.514 68.5739 53.4941 68.6128 53.4819C68.6517 53.4697 68.6927 53.4655 68.7333 53.4694C68.7738 53.4733 68.8132 53.4853 68.8491 53.5047C68.8628 53.5123 70.2601 54.2255 71.4794 53.7267C72.2025 53.4226 72.7368 52.7581 73.0686 51.7301C74.4721 47.3735 69.7807 40.1397 69.7335 40.0667C69.7113 40.0329 69.696 39.995 69.6884 39.9553C69.6809 39.9155 69.6813 39.8747 69.6896 39.835C69.6978 39.7954 69.7138 39.7578 69.7366 39.7244C69.7595 39.691 69.7886 39.6624 69.8225 39.6402C69.8564 39.618 69.8943 39.6027 69.9341 39.5952C69.9739 39.5877 70.0148 39.5881 70.0544 39.5963C70.0941 39.6046 70.1317 39.6206 70.1652 39.6434C70.1987 39.6662 70.2273 39.6953 70.2495 39.7292C70.4504 40.0333 75.1494 47.2822 73.6546 51.9187C73.265 53.1352 72.6104 53.9305 71.7093 54.2985C71.3302 54.4495 70.9254 54.5254 70.5174 54.5221Z" fill="black"/>
<path d="M125.303 54.6441C124.908 54.6469 124.517 54.5757 124.149 54.4342C123.236 54.0753 122.58 53.2831 122.17 52.0757C120.625 47.4559 125.245 40.1583 125.443 39.8496C125.487 39.7807 125.556 39.732 125.636 39.7143C125.716 39.6966 125.8 39.7114 125.869 39.7554C125.938 39.7993 125.987 39.8689 126.004 39.9487C126.022 40.0286 126.007 40.1122 125.963 40.1811C125.916 40.2541 121.304 47.5396 122.756 51.8795C123.099 52.906 123.642 53.572 124.37 53.8564C125.603 54.3445 126.98 53.6131 126.994 53.6055C127.066 53.5665 127.151 53.5578 127.229 53.5812C127.268 53.5928 127.304 53.6119 127.336 53.6375C127.367 53.663 127.393 53.6945 127.412 53.7302C127.432 53.7658 127.444 53.8049 127.448 53.8452C127.452 53.8855 127.448 53.9262 127.437 53.9651C127.425 54.0039 127.406 54.0401 127.38 54.0715C127.355 54.103 127.323 54.1291 127.288 54.1483C126.672 54.4601 125.993 54.6296 125.303 54.6441Z" fill="black"/>
<path d="M134.902 59.5295C134.383 59.5344 133.881 59.3451 133.494 58.9988C132.782 58.3692 132.525 57.3595 132.353 56.3635C132.068 54.7212 132.226 52.8523 132.834 50.6504C134.332 45.2277 138.273 43.4699 138.44 43.3984C138.477 43.3823 138.517 43.3737 138.558 43.3731C138.598 43.3724 138.638 43.3798 138.676 43.3947C138.714 43.4096 138.748 43.4317 138.777 43.4599C138.806 43.4881 138.83 43.5217 138.846 43.5588C138.862 43.596 138.87 43.6359 138.871 43.6764C138.872 43.7169 138.864 43.7571 138.849 43.7947C138.835 43.8323 138.812 43.8666 138.784 43.8957C138.756 43.9248 138.722 43.948 138.685 43.9641C138.647 43.9808 134.845 45.6885 133.431 50.807C132.846 52.9207 132.694 54.7014 132.962 56.2525C133.114 57.1375 133.335 58.0271 133.904 58.5334C134.677 59.2193 135.833 58.8878 136.502 58.1685C137.172 57.4492 137.368 56.4273 137.568 55.4313C137.642 55.0603 137.72 54.6953 137.811 54.3501C138.061 53.4377 139.084 51.102 139.128 51.0047C139.161 50.9299 139.222 50.8712 139.299 50.8415C139.336 50.8269 139.377 50.8197 139.417 50.8206C139.458 50.8215 139.497 50.8303 139.535 50.8466C139.572 50.8628 139.605 50.8862 139.633 50.9155C139.661 50.9447 139.683 50.9791 139.698 51.0168C139.713 51.0545 139.72 51.0947 139.719 51.1352C139.718 51.1756 139.709 51.2155 139.693 51.2526C139.682 51.2769 138.644 53.6415 138.407 54.5144C138.315 54.8459 138.245 55.1971 138.172 55.5545C137.953 56.6402 137.725 57.7625 136.954 58.5958C136.692 58.8807 136.376 59.1102 136.023 59.2706C135.671 59.431 135.29 59.519 134.902 59.5295Z" fill="black"/>
<path d="M60.9834 59.5006C60.6001 59.491 60.2225 59.4055 59.8726 59.2488C59.5227 59.0922 59.2074 58.8676 58.9452 58.5882C58.1613 57.764 57.9208 56.6432 57.6894 55.559C57.6133 55.2032 57.5372 54.8534 57.4459 54.525C57.1977 53.6552 56.1337 51.3012 56.1231 51.2769C56.0893 51.2023 56.0867 51.1173 56.1157 51.0408C56.1446 50.9642 56.2029 50.9022 56.2776 50.8686C56.3523 50.8349 56.4373 50.8322 56.5139 50.8612C56.5906 50.8901 56.6526 50.9483 56.6863 51.0229C56.7304 51.1218 57.7792 53.4423 58.0395 54.3562C58.1369 54.6983 58.2146 55.0602 58.2937 55.4298C58.5068 56.4304 58.7275 57.4644 59.3927 58.1669C60.0579 58.8695 61.2285 59.1995 61.9957 58.5045C62.5604 57.9951 62.7705 57.104 62.909 56.2159C63.1602 54.6634 62.9866 52.8842 62.3808 50.7766C60.9058 45.6535 57.0912 44.0021 57.0531 43.9853C56.9776 43.9537 56.9178 43.8934 56.8868 43.8176C56.8559 43.7419 56.8563 43.657 56.888 43.5816C56.9197 43.5062 56.98 43.4464 57.0558 43.4155C57.1316 43.3846 57.2166 43.385 57.2921 43.4166C57.4596 43.4866 61.4203 45.2019 62.976 50.6063C63.6077 52.8021 63.7858 54.6694 63.5194 56.3148C63.3672 57.3123 63.113 58.3236 62.4067 58.9622C62.0174 59.3149 61.5089 59.5072 60.9834 59.5006Z" fill="black"/>
<path fill-rule="evenodd" clip-rule="evenodd" d="M170.093 27.5693C173.355 27.5693 176 24.9243 176 21.6616C176 18.3988 173.355 15.7539 170.093 15.7539C166.83 15.7539 164.185 18.3988 164.185 21.6616C164.185 24.9243 166.83 27.5693 170.093 27.5693ZM170.093 24.6154C171.724 24.6154 173.047 23.2929 173.047 21.6616C173.047 20.0302 171.724 18.7077 170.093 18.7077C168.461 18.7077 167.139 20.0302 167.139 21.6616C167.139 23.2929 168.461 24.6154 170.093 24.6154Z" fill="#2563EB"/>
<path fill-rule="evenodd" clip-rule="evenodd" d="M169.049 8.28153C169.618 7.74209 170.51 7.74209 171.08 8.28153C174.221 11.2564 178.459 13.0789 183.126 13.0789C183.2 13.0789 183.274 13.0784 183.348 13.0775C183.993 13.0695 184.568 13.4806 184.769 14.093C185.432 16.1083 185.79 18.2602 185.79 20.4928C185.79 30.0353 179.263 38.0498 170.433 40.3226C170.191 40.3848 169.938 40.3848 169.696 40.3226C160.866 38.0498 154.339 30.0353 154.339 20.4928C154.339 18.2602 154.697 16.1083 155.359 14.093C155.561 13.4806 156.136 13.0695 156.781 13.0775C156.855 13.0784 156.929 13.0789 157.003 13.0789C161.67 13.0789 165.908 11.2564 169.049 8.28153ZM157.87 16.0147C157.493 17.4428 157.293 18.9434 157.293 20.4928C157.293 24.8005 158.848 28.746 161.427 31.7978C163.989 30.359 166.945 29.5385 170.093 29.5385C173.224 29.5385 176.167 30.3508 178.72 31.7763C181.288 28.7275 182.836 24.7904 182.836 20.4928C182.836 18.9434 182.635 17.4428 182.259 16.0147C177.633 15.8219 173.401 14.0929 170.064 11.3264C166.728 14.0929 162.496 15.8219 157.87 16.0147ZM176.522 33.9616C174.579 33.0202 172.397 32.4923 170.093 32.4923C167.774 32.4923 165.58 33.0267 163.627 33.9789C165.487 35.5237 167.672 36.691 170.064 37.363C172.465 36.6885 174.658 35.515 176.522 33.9616Z" fill="#2563EB"/>
<path fill-rule="evenodd" clip-rule="evenodd" d="M23.8769 27.5693C27.1396 27.5693 29.7846 24.9243 29.7846 21.6616C29.7846 18.3988 27.1396 15.7539 23.8769 15.7539C20.6142 15.7539 17.9692 18.3988 17.9692 21.6616C17.9692 24.9243 20.6142 27.5693 23.8769 27.5693ZM23.8769 24.6154C25.5083 24.6154 26.8307 23.2929 26.8307 21.6616C26.8307 20.0302 25.5083 18.7077 23.8769 18.7077C22.2455 18.7077 20.923 20.0302 20.923 21.6616C20.923 23.2929 22.2455 24.6154 23.8769 24.6154Z" fill="#2563EB"/>
<path fill-rule="evenodd" clip-rule="evenodd" d="M23.8769 39.3846C32.5775 39.3846 39.6307 32.3314 39.6307 23.6308C39.6307 14.9302 32.5775 7.87695 23.8769 7.87695C15.1763 7.87695 8.12305 14.9302 8.12305 23.6308C8.12305 32.3314 15.1763 39.3846 23.8769 39.3846ZM33.3263 32.265C35.4074 29.9888 36.6769 26.958 36.6769 23.6308C36.6769 16.5616 30.9461 10.8308 23.8769 10.8308C16.8076 10.8308 11.0769 16.5616 11.0769 23.6308C11.0769 26.958 12.3464 29.9887 14.4274 32.265C17.1625 30.5379 20.403 29.5385 23.8768 29.5385C27.3507 29.5385 30.5912 30.538 33.3263 32.265ZM30.9563 34.2965C28.8543 33.1463 26.4419 32.4923 23.8768 32.4923C21.3118 32.4923 18.8994 33.1462 16.7974 34.2965C18.825 35.645 21.2592 36.4308 23.8769 36.4308C26.4946 36.4308 28.9287 35.645 30.9563 34.2965Z" fill="#2563EB"/>
</g>
<defs>
<clipPath id="clip0_8208_23711">
<rect width="192" height="192" fill="white"/>
</clipPath>
</defs>
</svg>
