<svg viewBox="0 0 192 192" fill="none" xmlns="http://www.w3.org/2000/svg">
<g id="Pic-Default">
<path id="Vector" d="M177.231 14.7695H14.7692C10.8522 14.7695 7.09557 16.3256 4.32581 19.0953C1.55604 21.8651 0 25.6217 0 29.5388V162.462C0 166.379 1.55604 170.135 4.32581 172.905C7.09557 175.675 10.8522 177.231 14.7692 177.231H177.231C181.148 177.231 184.904 175.675 187.674 172.905C190.444 170.135 192 166.379 192 162.462V29.5388C192 25.6217 190.444 21.8651 187.674 19.0953C184.904 16.3256 181.148 14.7695 177.231 14.7695ZM121.846 59.0772C124.037 59.0772 126.179 59.7269 128 60.944C129.822 62.1612 131.242 63.8912 132.08 65.9152C132.918 67.9392 133.138 70.1664 132.71 72.3152C132.283 74.4639 131.228 76.4376 129.679 77.9867C128.13 79.5359 126.156 80.5908 124.007 81.0182C121.858 81.4456 119.631 81.2263 117.607 80.3879C115.583 79.5495 113.853 78.1297 112.636 76.3082C111.419 74.4866 110.769 72.345 110.769 70.1542C110.769 67.2164 111.936 64.3989 114.014 62.3216C116.091 60.2443 118.908 59.0772 121.846 59.0772ZM14.7692 162.462V136.616L62.7692 88.6157L136.615 162.462H14.7692ZM177.231 162.462H157.505L124.274 129.231L142.735 110.77L177.231 145.274V162.462Z" fill="#CBD5E1"/>
</g>
</svg>
