<svg width="128" height="128" viewBox="0 0 128 128" fill="none" xmlns="http://www.w3.org/2000/svg">
<g clip-path="url(#clip0_286_571)">
<path opacity="0.25" d="M64 128C99.3462 128 128 99.3462 128 64C128 28.6538 99.3462 0 64 0C28.6538 0 0 28.6538 0 64C0 99.3462 28.6538 128 64 128Z" fill="#2563EB"/>
<path d="M90.4267 27.7768L89.8311 42.8315L121.363 16.0254L90.4267 27.7768Z" fill="black"/>
<path d="M75.0527 19.9878L90.7377 29.3417L118.651 17.034L95.3801 32.0986L113.325 42.826L128.148 11.9238L75.0527 19.9878Z" fill="#2563EB"/>
<path d="M82.3827 81.7714L48.8074 49.6188C48.4883 49.2647 48.1427 48.9356 47.7735 48.6342L47.4486 48.3191H47.4092C45.7847 47.0735 43.7948 46.3984 41.7477 46.3984C39.7006 46.3984 37.7107 47.0735 36.0861 48.3191H36.0468L35.7169 48.6342C35.3477 48.9356 35.0021 49.2647 34.6831 49.6188L1.12244 81.7714C0.768208 82.1239 0.488598 82.5442 0.300288 83.0071C0.105717 83.475 0.00695004 83.9772 0.0098267 84.484V122.534C0.00853225 123.283 0.154908 124.025 0.44058 124.717C0.726251 125.409 1.14561 126.039 1.67466 126.569C2.20371 127.098 2.83207 127.519 3.52379 127.806C4.2155 128.093 4.95699 128.24 5.70583 128.24H77.7846C78.533 128.24 79.274 128.092 79.9651 127.804C80.6563 127.517 81.284 127.097 81.8126 126.567C82.3411 126.037 82.76 125.408 83.0454 124.716C83.3307 124.024 83.477 123.283 83.4757 122.534V84.4643C83.4785 83.9576 83.3798 83.4553 83.1852 82.9874C83.0004 82.5332 82.7277 82.1199 82.3827 81.7714Z" fill="black"/>
<path d="M6.10938 116.386V57.8255C6.10807 56.4241 6.6632 55.0794 7.65279 54.0871C8.64238 53.0947 9.98547 52.5358 11.3869 52.5332H56.7481L77.3758 73.2101V116.381L6.10938 116.386Z" fill="white"/>
<path d="M56.5665 52.9522L76.948 73.4125V116.007H6.54802V57.826C6.54802 56.5359 7.05948 55.2985 7.97031 54.3849C8.88115 53.4713 10.117 52.9561 11.4071 52.9522H56.5665ZM56.9111 52.1152H11.3825C9.87091 52.1191 8.42265 52.7227 7.35565 53.7934C6.28864 54.8641 5.6901 56.3144 5.69141 57.826V116.804H77.7849V73.0482L56.9111 52.1152Z" fill="black"/>
<path d="M5.69058 127.828C4.29039 127.823 2.94933 127.263 1.96108 126.271C0.972836 125.279 0.417959 123.936 0.417969 122.536V85.1992L76.2038 127.828H5.69058Z" fill="white"/>
<path d="M0.832009 85.8886L74.6043 127.41H5.68124C4.39118 127.406 3.15528 126.891 2.24445 125.977C1.33362 125.064 0.822156 123.826 0.822162 122.536V85.8886H0.832009ZM8.51451e-06 84.4609V122.516C-0.0012855 123.265 0.144928 124.006 0.430291 124.698C0.715655 125.39 1.13457 126.019 1.6631 126.549C2.19163 127.079 2.81941 127.499 3.51056 127.786C4.2017 128.073 4.94266 128.222 5.69109 128.222H77.7846L8.51451e-06 84.4609Z" fill="black"/>
<path d="M7.62598 127.779L83.4414 85.1504V122.487C83.4414 123.887 82.8865 125.23 81.8982 126.222C80.91 127.214 79.5689 127.774 78.1687 127.779H7.62598Z" fill="white"/>
<path d="M56.9209 52.1152V67.3374C56.9196 68.0858 57.0658 68.8272 57.3512 69.519C57.6366 70.2109 58.0555 70.8398 58.584 71.3697C59.1125 71.8996 59.7403 72.3202 60.4315 72.6073C61.1226 72.8945 61.8636 73.0426 62.612 73.0432H77.7849L56.9209 52.1152Z" fill="#2563EB"/>
<path d="M82.6489 85.8886V122.516C82.6535 123.156 82.5314 123.79 82.2895 124.382C82.0448 124.974 81.6869 125.513 81.2359 125.967C80.7885 126.423 80.2545 126.784 79.6655 127.031C79.0756 127.277 78.4436 127.405 77.8045 127.41H8.86179L82.6341 85.9132L82.6489 85.8886ZM83.4858 84.4609L5.70117 128.242H77.7849C78.5349 128.244 79.278 128.098 79.9714 127.812C80.6648 127.526 81.295 127.105 81.8256 126.575C82.3562 126.045 82.7769 125.415 83.0635 124.722C83.3501 124.029 83.4969 123.286 83.4956 122.536V84.4806L83.4858 84.4609Z" fill="black"/>
<path d="M39.3005 94.1686C36.173 94.1717 33.1218 93.2026 30.5693 91.3955C28.0168 89.5883 26.0891 87.0324 25.053 84.0815C24.0169 81.1306 23.9236 77.9306 24.7861 74.9244C25.6486 71.9182 27.4242 69.2543 29.8672 67.3016C32.3102 65.3489 35.2997 64.2037 38.4221 64.0247C41.5445 63.8457 44.6453 64.6417 47.2954 66.3024C49.9456 67.9632 52.014 70.4066 53.2144 73.2945C54.4148 76.1825 54.6879 79.3722 53.9959 82.4222L51.1503 81.7772C51.7032 79.3232 51.4801 76.758 50.5119 74.4363C49.5437 72.1145 47.8782 70.1509 45.7456 68.8167C43.6131 67.4826 41.1187 66.8438 38.6073 66.9888C36.096 67.1337 33.6917 68.0552 31.7267 69.6259C29.7618 71.1965 28.3333 73.3387 27.6386 75.7565C26.944 78.1742 27.0175 80.748 27.8491 83.1221C28.6806 85.4962 30.2291 87.5534 32.2805 89.0093C34.3319 90.4652 36.7849 91.2479 39.3005 91.2492C41.9717 91.2554 44.5693 90.374 46.6851 88.7434C47.266 88.2981 47.8079 87.804 48.3048 87.2665L50.4611 89.2357C49.8406 89.9081 49.1619 90.5242 48.4328 91.0769C45.8159 93.092 42.6032 94.1796 39.3005 94.1686Z" fill="#2563EB"/>
<path d="M39.3007 86.3754C37.6088 86.3801 35.9676 85.7978 34.657 84.7278C33.3464 83.6578 32.4475 82.1663 32.1136 80.5076C31.7796 78.849 32.0313 77.1258 32.8257 75.632C33.6202 74.1382 34.9081 72.9661 36.47 72.3157C38.032 71.6653 39.7711 71.5767 41.391 72.0652C43.0109 72.5536 44.4113 73.5888 45.3533 74.9942C46.2953 76.3997 46.7207 78.0883 46.5569 79.7723C46.3932 81.4563 45.6504 83.0314 44.4552 84.229C43.7792 84.9078 42.976 85.4468 42.0916 85.8151C41.2072 86.1834 40.2588 86.3738 39.3007 86.3754ZM39.3007 74.6831C38.4344 74.6826 37.5876 74.9398 36.8678 75.422C36.1481 75.9041 35.588 76.5895 35.2589 77.3908C34.9229 78.191 34.8325 79.0731 34.999 79.9249C35.1656 80.7766 35.5816 81.5596 36.1943 82.1744C36.8069 82.7891 37.5885 83.2079 38.4397 83.3773C39.2909 83.5468 40.1732 83.4594 40.9746 83.1262C41.7775 82.7966 42.4633 82.2342 42.9438 81.5114C43.3852 80.8507 43.6392 80.0827 43.6789 79.2891C43.7186 78.4956 43.5424 77.7061 43.1692 77.0046C42.796 76.3031 42.2397 75.7159 41.5594 75.3054C40.8791 74.8949 40.1002 74.6764 39.3057 74.6733L39.3007 74.6831Z" fill="#2563EB"/>
<path d="M48.7875 86.3809C47.36 86.3801 45.9905 85.8157 44.977 84.8105C43.9627 83.8001 43.3863 82.4315 43.3721 81H46.2767C46.277 81.6646 46.5408 82.3019 47.0102 82.7723C47.2421 83.0048 47.5176 83.1893 47.8208 83.3152C48.1241 83.441 48.4492 83.5058 48.7776 83.5058C49.106 83.5058 49.4311 83.441 49.7344 83.3152C50.0377 83.1893 50.3131 83.0048 50.545 82.7723C51.0131 82.3014 51.2751 81.664 51.2736 81H54.193C54.1788 82.4315 53.6024 83.8001 52.5881 84.8105C51.577 85.8133 50.2115 86.3775 48.7875 86.3809Z" fill="#2563EB"/>
<path d="M14.3998 50.2153C13.9772 50.2153 13.5717 50.0481 13.2719 49.7501C12.9721 49.4522 12.8024 49.0477 12.7998 48.6251V48.3986C12.8872 43.885 14.19 39.4785 16.5709 35.643C16.6745 35.453 16.8155 35.2861 16.9855 35.1522C17.1555 35.0183 17.3508 34.9203 17.5597 34.8641C17.7687 34.8079 17.9868 34.7946 18.201 34.8251C18.4152 34.8556 18.621 34.9293 18.8059 35.0415C18.9909 35.1538 19.1511 35.3025 19.2769 35.4785C19.4028 35.6544 19.4916 35.8541 19.5381 36.0654C19.5846 36.2767 19.5878 36.4952 19.5474 36.7078C19.507 36.9204 19.4239 37.1225 19.3032 37.302C17.2156 40.6327 16.0737 44.4686 15.9998 48.3986V48.5956C16.0024 48.8057 15.9636 49.0143 15.8856 49.2094C15.8076 49.4045 15.6919 49.5823 15.5451 49.7327C15.3984 49.8832 15.2234 50.0032 15.0303 50.086C14.8372 50.1688 14.6296 50.2127 14.4195 50.2153H14.3998ZM26.8109 29.0017C26.4615 29.008 26.1196 28.8998 25.8375 28.6935C25.5554 28.4872 25.3486 28.1943 25.2487 27.8594C25.1488 27.5245 25.1613 27.1661 25.2843 26.839C25.4072 26.5119 25.6339 26.234 25.9297 26.0479C29.6561 23.6374 33.7378 21.8267 38.0257 20.6817C38.4376 20.5668 38.8783 20.6203 39.2508 20.8303C39.6234 21.0404 39.8972 21.3898 40.0121 21.8017C40.127 22.2137 40.0736 22.6544 39.8635 23.0269C39.6535 23.3995 39.3041 23.6733 38.8921 23.7882C34.9272 24.833 31.1511 26.4943 27.702 28.7113C27.4416 28.8968 27.1306 28.9982 26.8109 29.0017ZM63.8423 21.8485H63.729C61.3512 21.6811 59.0127 21.6023 56.7826 21.6023C54.8626 21.6023 52.977 21.6614 51.1703 21.7845C50.7466 21.8126 50.3291 21.6712 50.0096 21.3914C49.6902 21.1117 49.495 20.7165 49.4669 20.2928C49.4388 19.8691 49.5802 19.4516 49.8599 19.1322C50.1397 18.8127 50.5349 18.6175 50.9586 18.5894C52.8343 18.4663 54.7936 18.4023 56.7826 18.4023C59.0866 18.4023 61.4989 18.486 63.9506 18.6534C64.3615 18.6855 64.7442 18.8749 65.019 19.1821C65.2937 19.4894 65.4392 19.8908 65.4253 20.3028C65.4113 20.7147 65.2389 21.1054 64.944 21.3934C64.6491 21.6813 64.2544 21.8444 63.8423 21.8485Z" fill="#2563EB"/>
</g>
<defs>
<clipPath id="clip0_286_571">
<rect width="128" height="128" fill="white"/>
</clipPath>
</defs>
</svg>
