<svg width="192" height="192" viewBox="0 0 192 192" fill="none" xmlns="http://www.w3.org/2000/svg">
<g clip-path="url(#clip0_936_16238)">
<rect width="192" height="192" fill="white"/>
<path d="M63.3847 76.3887V73.5169H54.8924V64.9015H63.3847V70.6451H69.0463V76.3887H66.2155V82.1323H60.5539V87.8759H54.8924V79.2605H60.5539V76.3887H63.3847ZM77.5386 87.8759H66.2155V82.1323H71.877V76.3887H77.5386V87.8759ZM26.5847 36.1836H49.2309V59.158H26.5847V36.1836ZM54.8924 36.1836H77.5386V59.158H54.8924V36.1836ZM26.5847 64.9015H49.2309V87.8759H26.5847V64.9015ZM69.0463 64.9015H77.5386V70.6451H69.0463V64.9015ZM35.077 44.799V50.5426H40.7386V44.799H35.077ZM35.077 73.5169V79.2605H40.7386V73.5169H35.077ZM63.3847 44.799V50.5426H69.0463V44.799H63.3847Z" fill="black"/>
<path d="M96.1435 100.429L10.1894 100.429C7.48736 100.425 4.89739 99.3509 2.98729 97.4426C1.07719 95.5343 0.00287715 92.9475 0 90.2495L0 32.3321C0.00287715 29.6341 1.07719 27.0473 2.98729 25.139C4.89739 23.2307 7.48736 22.1567 10.1894 22.1523L96.1435 22.1523C98.846 22.1567 101.437 23.2305 103.348 25.1387C105.259 27.0468 106.334 29.6336 106.338 32.3321L106.338 90.2495C106.334 92.948 105.259 95.5348 103.348 97.4429C101.437 99.3511 98.846 100.425 96.1435 100.429ZM10.1894 24.7978C9.19639 24.7949 8.21252 24.9876 7.29425 25.3649C6.37597 25.7422 5.54135 26.2967 4.83795 26.9965C4.13455 27.6963 3.57643 28.5278 3.19528 29.4434C2.81413 30.359 2.61745 31.3406 2.61674 32.3321L2.61674 90.2495C2.61818 92.2473 3.41365 94.1628 4.82839 95.5755C6.24312 96.9882 8.16153 97.7824 10.1623 97.7838L96.1164 97.7838C98.1172 97.7824 100.036 96.9882 101.45 95.5755C102.865 94.1628 103.661 92.2473 103.662 90.2495L103.662 32.3321C103.661 30.3343 102.865 28.4188 101.45 27.0061C100.036 25.5935 98.1172 24.7992 96.1164 24.7978L10.1894 24.7978Z" fill="black"/>
<path d="M177.422 157.551C177.611 157.471 177.777 157.346 177.906 157.186C178.035 157.026 178.122 156.837 178.16 156.636C178.267 156.123 178.216 155.59 178.013 155.107L177.762 154.509C177.68 154.31 177.577 154.073 177.451 153.77C177.326 153.468 177.178 153.165 177.016 152.803C176.092 150.786 175.041 148.831 173.87 146.947C172.208 144.271 170.316 141.746 168.213 139.4C167.047 138.088 165.814 136.836 164.521 135.649C163.214 134.437 161.826 133.286 160.408 132.2C157.678 130.124 154.781 128.279 151.746 126.684C149.188 125.337 146.549 124.151 143.844 123.132C141.503 122.246 139.539 121.655 138.158 121.234C137.471 121.034 136.925 120.879 136.556 120.783L135.987 120.636C135.892 120.609 135.796 120.589 135.699 120.577L135.337 120.488C133.855 120.089 132.278 120.25 130.906 120.938C130.314 121.231 129.798 121.658 129.4 122.185C129.001 122.712 128.73 123.324 128.61 123.974C128.497 124.642 128.543 125.327 128.743 125.975H128.602C127.174 125.701 125.695 126.003 124.489 126.817C123.956 127.176 123.509 127.649 123.181 128.202C122.852 128.755 122.651 129.374 122.591 130.014C122.514 130.991 122.733 131.969 123.219 132.82C123.69 133.652 124.373 134.345 125.198 134.829C124.711 135.476 124.403 136.24 124.305 137.044C124.17 138.054 124.334 139.081 124.777 139.998C125.178 140.859 125.826 141.581 126.638 142.073C126.211 142.684 125.922 143.379 125.789 144.111C125.562 145.326 125.741 146.582 126.298 147.686C126.523 148.163 126.846 148.587 127.245 148.932C127.645 149.277 128.112 149.534 128.617 149.687C128.617 149.687 129.082 149.805 129.754 149.997C130.426 150.189 131.327 150.477 132.199 150.78C133.07 151.082 133.926 151.415 134.547 151.681C134.864 151.806 135.123 151.924 135.285 151.998L135.566 152.124L135.766 152.19L136.009 152.294L136.674 152.611C137.242 152.892 138.04 153.298 138.948 153.822C139.968 154.403 140.955 155.041 141.902 155.735C142.927 156.49 143.899 157.314 144.812 158.201C146.453 159.79 147.856 161.608 148.976 163.599C149.427 164.404 149.759 165.121 149.996 165.623C150.114 165.874 150.188 166.081 150.247 166.213L152.167 170.556C152.366 171.05 154.707 169.396 155.453 169.13L177.422 157.551Z" fill="white"/>
<path d="M152.499 172.084C152.155 172.127 151.806 172.057 151.506 171.886C151.205 171.714 150.968 171.449 150.83 171.131C150.512 170.393 149.05 167.114 148.917 166.804C148.884 166.734 148.854 166.663 148.829 166.59C148.784 166.479 148.74 166.368 148.681 166.25C148.43 165.711 148.127 165.069 147.713 164.33C147.225 163.466 146.68 162.634 146.081 161.842C145.385 160.926 144.622 160.062 143.8 159.257C142.935 158.413 142.012 157.631 141.038 156.916C140.139 156.259 139.205 155.652 138.239 155.099C137.375 154.597 136.622 154.213 136.024 153.933L135.285 153.586L134.96 153.467L134.694 153.342L133.956 153.032C133.269 152.744 132.435 152.426 131.696 152.168C130.707 151.821 129.784 151.54 129.326 151.429L128.469 151.193L128.225 151.127C127.524 150.925 126.873 150.578 126.316 150.107C125.758 149.636 125.307 149.052 124.991 148.394C124.284 147.01 124.058 145.431 124.348 143.904C124.436 143.426 124.574 142.958 124.762 142.509C124.22 141.977 123.775 141.355 123.448 140.67C122.88 139.493 122.672 138.176 122.849 136.882C122.926 136.335 123.075 135.801 123.293 135.294C122.752 134.802 122.296 134.226 121.941 133.588C121.308 132.488 121.025 131.22 121.129 129.955C121.208 129.106 121.474 128.284 121.907 127.549C122.339 126.814 122.928 126.183 123.632 125.701C124.657 125.003 125.851 124.594 127.088 124.52C127.097 124.272 127.121 124.026 127.162 123.781C127.322 122.916 127.68 122.099 128.208 121.394C128.736 120.69 129.419 120.117 130.205 119.72C131.063 119.274 132.002 119.003 132.967 118.922C133.876 118.841 134.792 118.916 135.677 119.144L135.965 119.218L136.326 119.291L136.91 119.446L138.542 119.904C140.447 120.458 142.396 121.108 144.331 121.832C147.095 122.873 149.791 124.087 152.403 125.465C155.507 127.098 158.471 128.985 161.264 131.107C162.741 132.222 164.137 133.411 165.474 134.637C166.81 135.862 168.006 137.088 169.269 138.491C171.427 140.898 173.37 143.491 175.074 146.238C176.278 148.171 177.358 150.179 178.308 152.249L178.448 152.559C178.566 152.81 178.67 153.047 178.758 153.253L179.327 154.59C179.65 155.355 179.725 156.202 179.541 157.012C179.452 157.425 179.267 157.811 179 158.138C178.733 158.466 178.392 158.725 178.005 158.895L155.999 170.459H155.903C155.582 170.613 155.269 170.783 154.965 170.969C154.223 171.497 153.385 171.876 152.499 172.084ZM151.28 165.024C151.369 165.216 151.443 165.379 151.487 165.504L151.546 165.63L152.957 168.813L153.555 168.473C153.968 168.22 154.397 167.993 154.839 167.794L176.772 156.296C176.805 156.093 176.779 155.886 176.698 155.698L176.137 154.376C176.063 154.198 175.967 153.984 175.856 153.755L175.716 153.445C174.817 151.481 173.793 149.577 172.651 147.744C171.042 145.141 169.204 142.687 167.157 140.411C165.953 139.067 164.742 137.842 163.554 136.719C162.365 135.597 160.925 134.415 159.536 133.359C156.871 131.329 154.04 129.526 151.074 127.968C148.569 126.649 145.984 125.487 143.335 124.49C141.474 123.752 139.59 123.161 137.759 122.629L136.186 122.186L135.618 122.039H135.507H135.418L134.975 121.92C134.404 121.775 133.812 121.728 133.225 121.78C132.645 121.824 132.079 121.984 131.563 122.253C131.165 122.443 130.817 122.724 130.547 123.073C130.276 123.421 130.091 123.828 130.005 124.261C129.931 124.711 129.964 125.171 130.101 125.605L130.773 127.821L128.322 127.378C127.939 127.312 127.549 127.295 127.162 127.326C126.489 127.377 125.841 127.606 125.286 127.99C124.926 128.229 124.624 128.545 124.402 128.916C124.179 129.286 124.043 129.702 124.002 130.132C123.949 130.822 124.106 131.512 124.452 132.111C124.805 132.725 125.314 133.235 125.929 133.588L127.332 134.408L126.35 135.7C126.024 136.133 125.813 136.641 125.737 137.177C125.641 137.914 125.761 138.663 126.084 139.333C126.358 139.943 126.808 140.457 127.376 140.81L128.728 141.608L127.819 142.885C127.507 143.325 127.3 143.83 127.214 144.362C127.042 145.262 127.172 146.194 127.583 147.013C127.717 147.306 127.91 147.569 128.148 147.786C128.387 148.003 128.667 148.17 128.971 148.276C129.186 148.32 129.525 148.416 130.16 148.601C130.655 148.749 131.637 149.037 132.686 149.406C133.476 149.686 134.355 150.026 135.108 150.336L136.12 150.772H136.223L136.91 151.082L137.331 151.289C137.936 151.584 138.756 152.027 139.694 152.537C140.75 153.149 141.773 153.817 142.758 154.538C143.84 155.334 144.867 156.202 145.83 157.138C146.756 158.042 147.613 159.014 148.393 160.047C149.064 160.94 149.678 161.875 150.232 162.846C150.712 163.791 151.081 164.589 151.28 165.024Z" fill="black"/>
<path d="M134.447 62.7676H89.3063C86.0698 62.7676 83.446 65.4011 83.446 68.6497V166.916C83.446 170.165 86.0698 172.798 89.3063 172.798H134.447C137.684 172.798 140.308 170.165 140.308 166.916V68.6497C140.308 65.4011 137.684 62.7676 134.447 62.7676Z" fill="white"/>
<path d="M134.482 174.276H89.2723C87.3353 174.272 85.4787 173.499 84.1097 172.124C82.7406 170.75 81.9709 168.887 81.9692 166.945V68.6158C81.9725 66.6742 82.7432 64.813 84.1121 63.44C85.481 62.0671 87.3364 61.2943 89.2723 61.291H134.482C136.418 61.2943 138.273 62.0671 139.642 63.44C141.011 64.813 141.781 66.6742 141.785 68.6158V166.945C141.783 168.887 141.014 170.75 139.644 172.124C138.275 173.499 136.419 174.272 134.482 174.276ZM89.2723 64.175C88.0985 64.1767 86.9735 64.645 86.1436 65.4775C85.3136 66.3099 84.8466 67.4385 84.8449 68.6158V166.945C84.8466 168.122 85.3136 169.25 86.1436 170.083C86.9735 170.915 88.0985 171.384 89.2723 171.385H134.482C135.656 171.384 136.781 170.915 137.611 170.083C138.441 169.25 138.908 168.122 138.909 166.945V68.6158C138.908 67.4385 138.441 66.3099 137.611 65.4775C136.781 64.645 135.656 64.1767 134.482 64.175H89.2723Z" fill="black"/>
<path d="M133.669 70.1492H90.0843C89.9919 70.1592 89.8983 70.1476 89.8101 70.1152C89.7219 70.0828 89.6408 70.0303 89.572 69.961C89.5032 69.8918 89.4482 69.8074 89.4106 69.7133C89.373 69.6191 89.3538 69.5173 89.3538 69.4143C89.3538 69.3113 89.373 69.2094 89.4106 69.1152C89.4482 69.021 89.5032 68.9367 89.572 68.8674C89.6408 68.7982 89.7219 68.7458 89.8101 68.7133C89.8983 68.6809 89.9919 68.6693 90.0843 68.6792H133.669C133.762 68.6693 133.855 68.6809 133.943 68.7133C134.031 68.7458 134.113 68.7982 134.181 68.8674C134.25 68.9367 134.305 69.021 134.343 69.1152C134.38 69.2094 134.4 69.3113 134.4 69.4143C134.4 69.5173 134.38 69.6191 134.343 69.7133C134.305 69.8074 134.25 69.8918 134.181 69.961C134.113 70.0303 134.031 70.0828 133.943 70.1152C133.855 70.1476 133.762 70.1592 133.669 70.1492Z" fill="black"/>
<path d="M133.738 166.153H90.0159C89.8403 166.153 89.6719 166.075 89.5477 165.936C89.4236 165.798 89.3538 165.61 89.3538 165.414C89.3538 165.218 89.4236 165.031 89.5477 164.892C89.6719 164.754 89.8403 164.676 90.0159 164.676H133.738C133.913 164.676 134.082 164.754 134.206 164.892C134.33 165.031 134.4 165.218 134.4 165.414C134.4 165.61 134.33 165.798 134.206 165.936C134.082 166.075 133.913 166.153 133.738 166.153Z" fill="black"/>
<path d="M156.908 135.058C148.933 133.389 143.616 133.95 135.951 135.678C135.373 135.821 134.831 136.085 134.361 136.451C133.892 136.818 133.505 137.279 133.227 137.805C132.948 138.332 132.783 138.911 132.743 139.505C132.704 140.099 132.79 140.695 132.997 141.254C133.787 143.979 135.759 144.865 137.819 144.274C143.158 142.93 146.518 142.391 152.197 143.536C150.388 151.112 152.787 159.73 159.441 162.544L156.908 135.058Z" fill="white"/>
<path d="M159.559 163.888C159.34 163.904 159.119 163.869 158.916 163.784C155.46 162.307 152.78 159.302 151.37 155.27C150.22 151.84 149.953 148.175 150.594 144.614C146.163 143.875 143.121 144.333 138.166 145.574C135.212 146.416 132.642 144.835 131.704 141.631C131.457 140.88 131.365 140.087 131.434 139.3C131.502 138.513 131.73 137.749 132.103 137.052C132.481 136.399 132.984 135.826 133.583 135.367C134.182 134.909 134.867 134.573 135.596 134.379H135.655C143.497 132.614 148.984 132.031 157.181 133.759C157.531 133.832 157.837 134.041 158.032 134.34C158.228 134.64 158.296 135.004 158.222 135.354C158.149 135.703 157.939 136.009 157.64 136.205C157.341 136.4 156.977 136.468 156.627 136.395C148.881 134.77 143.889 135.295 136.283 137C135.516 137.202 134.86 137.698 134.459 138.381C134.261 138.766 134.144 139.188 134.115 139.619C134.086 140.051 134.145 140.484 134.289 140.892C134.821 142.701 135.913 143.432 137.449 142.989H137.486C143.239 141.512 146.769 141.092 152.462 142.251C152.819 142.326 153.132 142.538 153.334 142.842C153.43 142.995 153.495 143.166 153.524 143.345C153.553 143.524 153.546 143.707 153.504 143.883C152.643 147.364 152.786 151.018 153.917 154.421C154.729 156.754 156.443 159.848 159.965 161.34C160.131 161.406 160.282 161.504 160.409 161.629C160.536 161.754 160.637 161.902 160.706 162.067C160.775 162.231 160.81 162.408 160.81 162.586C160.809 162.765 160.773 162.941 160.704 163.105C160.601 163.327 160.441 163.517 160.239 163.654C160.038 163.792 159.803 163.873 159.559 163.888Z" fill="black"/>
<path d="M154.441 189.823L190.412 189.985V188.678C190.412 188.412 190.412 188.102 190.375 187.755C190.338 187.408 190.338 187.017 190.323 186.603C190.309 186.19 190.257 185.769 190.213 185.303C190.213 185.067 190.176 184.831 190.154 184.565L190.065 183.826C190.006 183.324 189.947 182.785 189.866 182.246C189.524 179.887 189.059 177.548 188.47 175.238C187.857 172.801 187.104 170.327 186.254 167.95C184.758 163.713 183.01 159.571 181.019 155.543C180.214 153.919 179.505 152.59 178.981 151.615L178.36 150.478C178.198 150.204 178.117 150.057 178.117 150.057L146.895 167.891L147.02 168.105C147.109 168.267 147.234 168.496 147.404 168.791C147.729 169.404 148.216 170.327 148.777 171.457C150.12 174.166 151.298 176.952 152.308 179.802C152.832 181.279 153.267 182.756 153.592 184.033C153.868 185.117 154.087 186.213 154.25 187.319C154.287 187.541 154.301 187.733 154.331 187.925C154.36 188.117 154.331 188.117 154.331 188.206V188.442C154.331 188.604 154.331 188.745 154.331 188.885C154.331 189.025 154.331 189.114 154.331 189.217C154.326 189.306 154.326 189.395 154.331 189.483C154.331 189.557 154.331 189.616 154.331 189.66L154.441 189.823Z" fill="#2563EB"/>
<path d="M190.413 191.898C189.905 191.898 189.419 191.697 189.06 191.338C188.702 190.979 188.5 190.493 188.5 189.986V188.723L188.411 186.722C188.411 186.382 188.36 186.027 188.33 185.651L188.249 184.75C188.249 184.609 188.249 184.462 188.197 184.307L188.123 183.649C188.079 183.288 188.035 182.911 187.976 182.542C187.645 180.248 187.194 177.973 186.624 175.726C186.033 173.378 185.31 170.977 184.468 168.6C182.993 164.435 181.267 160.363 179.299 156.408C178.516 154.82 177.822 153.535 177.386 152.715L149.45 168.629C149.731 169.161 150.078 169.833 150.469 170.616C151.844 173.397 153.052 176.257 154.088 179.182C154.604 180.659 155.062 182.136 155.417 183.613C155.717 184.758 155.951 185.919 156.118 187.091C156.118 187.238 156.155 187.371 156.17 187.504C156.166 187.571 156.166 187.637 156.17 187.704V187.748V187.829C156.17 187.918 156.17 187.999 156.17 188.08L156.222 188.723C156.225 188.76 156.225 188.797 156.222 188.834V189.387V189.823C156.191 190.311 155.976 190.769 155.62 191.103C155.264 191.438 154.794 191.624 154.306 191.624C153.817 191.624 153.347 191.438 152.991 191.103C152.635 190.769 152.419 190.311 152.389 189.823V189.343C152.386 189.329 152.386 189.313 152.389 189.299V189.018L152.352 188.634V188.405C152.348 188.386 152.348 188.366 152.352 188.346V188.213C152.352 188.117 152.352 188.029 152.352 187.933C152.352 187.837 152.352 187.755 152.315 187.652C152.164 186.615 151.957 185.587 151.695 184.573C151.37 183.28 150.957 181.877 150.469 180.511C149.477 177.739 148.325 175.027 147.021 172.388C146.415 171.162 145.92 170.232 145.684 169.789L145.197 168.91C145.074 168.69 144.995 168.449 144.965 168.199C144.936 167.949 144.956 167.695 145.025 167.453C145.093 167.211 145.209 166.985 145.365 166.787C145.521 166.59 145.715 166.425 145.935 166.303L177.172 148.469C177.618 148.222 178.144 148.161 178.635 148.299C179.126 148.437 179.542 148.764 179.793 149.208L180.03 149.629L180.657 150.766C181.13 151.637 181.868 153.033 182.732 154.783C184.756 158.877 186.532 163.089 188.05 167.396C188.928 169.885 189.682 172.395 190.265 174.854C190.871 177.23 191.349 179.635 191.697 182.062C191.757 182.468 191.808 182.874 191.853 183.265L191.934 183.915C191.934 184.1 191.978 184.277 191.993 184.462L192.074 185.392C192.109 185.801 192.138 186.185 192.163 186.544L192.251 188.634V190.008C192.252 190.259 192.204 190.509 192.108 190.742C192.012 190.975 191.872 191.186 191.694 191.365C191.516 191.543 191.305 191.685 191.072 191.781C190.84 191.878 190.591 191.928 190.339 191.928L190.413 191.898Z" fill="#2563EB"/>
<path d="M181.403 184.536C181.589 184.578 181.783 184.558 181.956 184.476C182.128 184.395 182.268 184.258 182.354 184.088C182.439 183.917 182.464 183.723 182.426 183.536C182.387 183.35 182.287 183.181 182.141 183.059C178.449 180.105 173.243 177.793 166.597 176.169C163.682 175.446 160.721 174.923 157.735 174.603C157.51 174.583 157.286 174.652 157.112 174.797C156.938 174.942 156.829 175.15 156.808 175.375C156.788 175.6 156.857 175.824 157.002 175.998C157.147 176.172 157.355 176.281 157.58 176.302C157.735 176.302 172.807 177.719 181.1 184.38C181.189 184.453 181.292 184.506 181.403 184.536Z" fill="black"/>
<path d="M157.572 172.882C157.729 172.926 157.895 172.926 158.052 172.882C158.178 172.838 171.197 168.621 181.587 172.048C181.801 172.118 182.035 172.101 182.237 171.999C182.438 171.897 182.591 171.719 182.662 171.505C182.732 171.291 182.714 171.057 182.612 170.855C182.511 170.654 182.333 170.501 182.119 170.43C171.182 166.827 158.067 171.08 157.513 171.265C157.3 171.336 157.123 171.488 157.022 171.689C156.921 171.89 156.904 172.122 156.974 172.336C157.021 172.469 157.1 172.589 157.204 172.684C157.309 172.779 157.435 172.848 157.572 172.882Z" fill="black"/>
<path d="M117.743 117.826V116.267H113.067V111.59H117.743V114.708H120.861V117.826H119.302V120.944H116.184V124.062H113.067V119.385H116.184V117.826H117.743ZM125.538 124.062H119.302V120.944H122.42V117.826H125.538V124.062ZM97.4768 96H109.949V108.472H97.4768V96ZM113.067 96H125.538V108.472H113.067V96ZM97.4768 111.59H109.949V124.062H97.4768V111.59ZM120.861 111.59H125.538V114.708H120.861V111.59ZM102.154 100.677V103.795H105.272V100.677H102.154ZM102.154 116.267V119.385H105.272V116.267H102.154ZM117.743 100.677V103.795H120.861V100.677H117.743Z" fill="#2563EB"/>
<path d="M92.35 98.2149C92.2474 98.2152 92.1456 98.1953 92.0508 98.1562C91.9559 98.1171 91.8698 98.0596 91.7972 97.987C91.7246 97.9145 91.6671 97.8283 91.628 97.7334C91.5889 97.6385 91.569 97.5369 91.5693 97.4342V90.8724C91.5693 90.7699 91.5895 90.6684 91.6287 90.5737C91.668 90.479 91.7256 90.3929 91.798 90.3205C91.8705 90.248 91.9565 90.1904 92.0512 90.1512C92.1459 90.112 92.2475 90.0918 92.35 90.0918H98.9117C99.1188 90.0918 99.3173 90.1741 99.4637 90.3205C99.6101 90.4669 99.6924 90.6654 99.6924 90.8724C99.6924 91.0795 99.6101 91.278 99.4637 91.4244C99.3173 91.5708 99.1188 91.6531 98.9117 91.6531H93.1306V97.4342C93.1306 97.6413 93.0483 97.8398 92.9019 97.9862C92.7555 98.1326 92.5571 98.2149 92.35 98.2149Z" fill="#2563EB"/>
<path d="M98.9117 129.969H92.35C92.2474 129.969 92.1456 129.949 92.0508 129.91C91.9559 129.871 91.8698 129.814 91.7972 129.741C91.7246 129.668 91.6671 129.582 91.628 129.487C91.5889 129.392 91.569 129.291 91.5693 129.188V122.626C91.5693 122.419 91.6516 122.221 91.798 122.074C91.9444 121.928 92.143 121.846 92.35 121.846C92.5571 121.846 92.7555 121.928 92.9019 122.074C93.0483 122.221 93.1306 122.419 93.1306 122.626V128.408H98.9117C99.1188 128.408 99.3173 128.49 99.4637 128.636C99.6101 128.783 99.6924 128.981 99.6924 129.188C99.6924 129.395 99.6101 129.594 99.4637 129.74C99.3173 129.887 99.1188 129.969 98.9117 129.969Z" fill="#2563EB"/>
<path d="M132.143 98.2149C132.04 98.2152 131.938 98.1953 131.843 98.1562C131.749 98.1171 131.662 98.0596 131.59 97.987C131.517 97.9145 131.46 97.8283 131.421 97.7334C131.381 97.6385 131.362 97.5369 131.362 97.4342V91.6531H125.581C125.374 91.6531 125.175 91.5708 125.029 91.4244C124.882 91.278 124.8 91.0795 124.8 90.8724C124.8 90.6654 124.882 90.4669 125.029 90.3205C125.175 90.1741 125.374 90.0918 125.581 90.0918H132.143C132.349 90.0925 132.547 90.175 132.694 90.3213C132.84 90.4675 132.922 90.6656 132.923 90.8724V97.4342C132.923 97.6413 132.841 97.8398 132.695 97.9862C132.548 98.1326 132.35 98.2149 132.143 98.2149Z" fill="#2563EB"/>
<path d="M132.143 129.969H125.581C125.374 129.969 125.175 129.887 125.029 129.74C124.882 129.594 124.8 129.395 124.8 129.188C124.8 128.981 124.882 128.783 125.029 128.636C125.175 128.49 125.374 128.408 125.581 128.408H131.362V122.626C131.362 122.419 131.444 122.221 131.591 122.074C131.737 121.928 131.936 121.846 132.143 121.846C132.35 121.846 132.548 121.928 132.695 122.074C132.841 122.221 132.923 122.419 132.923 122.626V129.188C132.923 129.395 132.841 129.594 132.695 129.74C132.548 129.887 132.35 129.969 132.143 129.969Z" fill="#2563EB"/>
<path d="M183.902 22.9706L173.731 28.4147C173.627 28.4712 173.51 28.4978 173.392 28.4916C173.238 28.4935 173.089 28.4427 172.968 28.3478C172.847 28.2529 172.762 28.1196 172.728 27.9699C172.694 27.8202 172.711 27.6633 172.779 27.5251C172.846 27.387 172.958 27.276 173.097 27.2106L183.268 21.7665C183.425 21.6816 183.609 21.6626 183.781 21.7136C183.952 21.7647 184.096 21.8816 184.181 22.0388C184.265 22.1959 184.285 22.3803 184.234 22.5515C184.182 22.7226 184.065 22.8665 183.908 22.9514L183.902 22.9706Z" fill="#2563EB"/>
<path d="M175.66 40.3556C175.669 40.1792 175.747 40.0134 175.876 39.8937C176.006 39.774 176.178 39.7099 176.354 39.7151L187.883 40.093C188.06 40.1005 188.226 40.1774 188.346 40.307C188.466 40.4366 188.53 40.6083 188.524 40.7847C188.514 40.9608 188.436 41.1262 188.306 41.2457C188.176 41.3653 188.005 41.4297 187.829 41.4252L176.3 41.0474C176.124 41.0399 175.957 40.9629 175.837 40.8334C175.717 40.7038 175.654 40.5321 175.66 40.3556Z" fill="#2563EB"/>
<path d="M172.956 52.1527L182.752 58.2372C182.879 58.3149 182.977 58.4326 183.03 58.5717C183.083 58.7109 183.088 58.8637 183.045 59.0062C183.002 59.1487 182.912 59.2728 182.791 59.3591C182.669 59.4454 182.523 59.489 182.374 59.483C182.26 59.4769 182.15 59.4416 182.054 59.3805L172.258 53.2959C172.18 53.2506 172.113 53.1903 172.059 53.1184C172.005 53.0466 171.966 52.9647 171.945 52.8777C171.923 52.7906 171.919 52.7001 171.933 52.6114C171.947 52.5228 171.978 52.4378 172.025 52.3615C172.073 52.2852 172.135 52.2191 172.208 52.1672C172.281 52.1152 172.364 52.0784 172.451 52.059C172.539 52.0395 172.63 52.0378 172.718 52.0539C172.806 52.07 172.89 52.1035 172.965 52.1527H172.956Z" fill="#2563EB"/>
<path d="M166.664 26.1757C164.716 22.721 162.062 19.7156 158.875 17.3555C155.687 14.9954 152.038 13.3336 148.166 12.4784C144.293 11.6232 140.283 11.5938 136.399 12.3922C132.514 13.1906 128.841 14.7989 125.619 17.112C122.398 19.4252 119.7 22.3915 117.701 25.8173C115.703 29.2432 114.449 33.0517 114.022 36.9946C113.594 40.9376 114.003 44.9264 115.22 48.7009C116.438 52.4755 118.437 55.951 121.088 58.901L113.767 73.7601L129.43 65.2513C134.833 67.9533 140.96 68.8508 146.91 67.8119C152.861 66.773 158.321 63.8525 162.488 59.4798C166.656 55.107 169.311 49.5125 170.062 43.5189C170.814 37.5253 169.623 31.4486 166.664 26.1821V26.1757Z" fill="#2563EB"/>
<path d="M113.766 74.519C113.893 74.5194 114.017 74.4874 114.128 74.4262L129.449 66.0999C133.656 68.1354 138.293 69.1228 142.964 68.9778C147.635 68.8328 152.202 67.5598 156.275 65.2673C156.369 65.222 156.452 65.158 156.52 65.0792C156.588 65.0005 156.64 64.9086 156.671 64.8092C156.702 64.7099 156.712 64.6052 156.702 64.5017C156.691 64.3981 156.659 64.2979 156.608 64.2071C156.557 64.1164 156.488 64.0371 156.405 63.9741C156.322 63.9111 156.227 63.8658 156.126 63.8409C156.025 63.816 155.92 63.8121 155.817 63.8294C155.714 63.8467 155.616 63.8849 155.529 63.9415C151.615 66.1473 147.22 67.3592 142.728 67.4709C138.237 67.5825 133.787 66.5906 129.769 64.582C129.661 64.5253 129.54 64.4957 129.418 64.4957C129.296 64.4957 129.175 64.5253 129.067 64.582L115.505 71.9475L121.769 59.234C121.837 59.0977 121.862 58.9443 121.842 58.7935C121.821 58.6428 121.756 58.5017 121.654 58.3885C118.826 55.2441 116.761 51.4897 115.621 47.4173C114.481 43.3449 114.295 39.0643 115.079 34.9086C115.175 34.409 115.284 33.9094 115.4 33.4227C115.442 33.2285 115.408 33.0252 115.303 32.8562C115.198 32.6872 115.031 32.5659 114.838 32.5183C114.645 32.4706 114.441 32.5004 114.269 32.6011C114.098 32.7019 113.972 32.8657 113.92 33.0576C113.795 33.5732 113.68 34.0984 113.581 34.6236C112.31 41.3287 113.444 48.2672 116.783 54.2191C117.746 55.9291 118.878 57.5383 120.162 59.0226L113.062 73.4334C112.991 73.5784 112.968 73.7421 112.996 73.9009C113.025 74.0597 113.102 74.2055 113.219 74.3173C113.292 74.3857 113.378 74.4387 113.472 74.4734C113.566 74.508 113.666 74.5236 113.766 74.519Z" fill="black"/>
<path d="M139.936 57.3795H139.907C139.52 57.3745 139.14 57.276 138.799 57.0926C138.459 56.9092 138.167 56.6461 137.95 56.3259L126.88 40.0225C126.702 39.7615 126.578 39.4683 126.514 39.1593C126.451 38.8504 126.448 38.5319 126.507 38.2221C126.566 37.9122 126.686 37.617 126.859 37.3534C127.032 37.0898 127.256 36.8629 127.517 36.6856C127.778 36.5084 128.071 36.3842 128.38 36.3203C128.689 36.2564 129.007 36.254 129.317 36.3131C129.627 36.3723 129.922 36.492 130.186 36.6652C130.45 36.8385 130.677 37.0619 130.854 37.3229L139.984 50.7729L157.027 26.8767C157.208 26.6146 157.439 26.3912 157.707 26.2193C157.976 26.0475 158.275 25.9308 158.589 25.8758C158.903 25.8209 159.224 25.8289 159.535 25.8994C159.845 25.9699 160.139 26.1014 160.398 26.2864C160.657 26.4713 160.877 26.706 161.045 26.9767C161.213 27.2474 161.325 27.5488 161.375 27.8633C161.425 28.1778 161.412 28.4992 161.337 28.8086C161.262 29.1181 161.126 29.4095 160.937 29.6659L141.892 56.3707C141.67 56.6827 141.377 56.937 141.037 57.1125C140.696 57.2879 140.319 57.3795 139.936 57.3795Z" fill="white"/>
</g>
<defs>
<clipPath id="clip0_936_16238">
<rect width="192" height="192" fill="white"/>
</clipPath>
</defs>
</svg>
