<svg width="192" height="192" viewBox="0 0 192 192" fill="none" xmlns="http://www.w3.org/2000/svg">
<g clip-path="url(#clip0_936_21086)">
<rect width="192" height="192" fill="white"/>
<path d="M145.551 143.261L15.4256 143.261C11.335 143.255 7.41411 141.634 4.52243 138.753C1.63075 135.873 0.00435569 131.968 0 127.896L0 40.4732C0.00435569 36.4007 1.63075 32.4961 4.52243 29.6156C7.41411 26.7351 11.335 25.1139 15.4256 25.1074L145.551 25.1074C149.642 25.1139 153.564 26.7349 156.457 29.6151C159.35 32.4953 160.978 36.3999 160.985 40.4732L160.985 127.896C160.978 131.969 159.35 135.873 156.457 138.754C153.564 141.634 149.642 143.255 145.551 143.261ZM15.4256 29.1005C13.9223 29.0962 12.4328 29.3871 11.0427 29.9566C9.65251 30.5261 8.38899 31.363 7.32412 32.4194C6.25924 33.4757 5.41432 34.7308 4.8373 36.1128C4.26029 37.4948 3.96253 38.9765 3.96145 40.4732L3.96145 127.896C3.96363 130.911 5.16789 133.803 7.30964 135.935C9.4514 138.067 12.3556 139.266 15.3845 139.268L145.51 139.268C148.538 139.266 151.443 138.067 153.584 135.935C155.726 133.803 156.931 130.911 156.933 127.896L156.933 40.4732C156.931 37.4576 155.726 34.5662 153.584 32.4339C151.443 30.3016 148.538 29.1027 145.51 29.1005L15.4256 29.1005Z" fill="black"/>
<path d="M130.035 74.916H30.5166C25.3253 74.916 21.1169 79.1244 21.1169 84.3157V90.4565C21.1169 95.6478 25.3253 99.8562 30.5166 99.8562H130.035C135.227 99.8562 139.435 95.6478 139.435 90.4565V84.3157C139.435 79.1244 135.227 74.916 130.035 74.916Z" fill="white"/>
<path d="M129.917 100.906H30.4055C27.6307 100.906 24.9691 99.8045 23.0064 97.8431C21.0436 95.8817 19.9404 93.2212 19.9385 90.4464V84.3057C19.9404 81.5309 21.0436 78.8703 23.0064 76.9089C24.9691 74.9475 27.6307 73.8457 30.4055 73.8457H129.917C132.691 73.8476 135.351 74.95 137.314 76.911C139.276 78.872 140.38 81.5315 140.384 84.3057V90.4464C140.38 93.2206 139.276 95.88 137.314 97.841C135.351 99.802 132.691 100.904 129.917 100.906ZM30.4055 76.0017C28.195 76.0017 26.0746 76.8794 24.5108 78.4418C22.9471 80.0042 22.0677 82.1235 22.0659 84.3341V90.4748C22.0677 92.6854 22.9471 94.8048 24.5108 96.3672C26.0746 97.9296 28.195 98.8072 30.4055 98.8072H129.917C132.127 98.8054 134.246 97.9271 135.809 96.3651C137.373 94.8031 138.253 92.6848 138.256 90.4748V84.3341C138.253 82.1241 137.373 80.0059 135.809 78.4439C134.246 76.8819 132.127 76.0036 129.917 76.0017H30.4055Z" fill="#2563EB"/>
<path d="M46.3556 88.7188H31.9962C31.6592 88.6941 31.3441 88.5429 31.1141 88.2954C30.884 88.0479 30.7559 87.7225 30.7559 87.3846C30.7559 87.0467 30.884 86.7213 31.1141 86.4738C31.3441 86.2263 31.6592 86.0751 31.9962 86.0504H46.3556C46.539 86.037 46.7231 86.0616 46.8966 86.1226C47.0701 86.1836 47.2292 86.2796 47.3639 86.4048C47.4986 86.53 47.6059 86.6817 47.6794 86.8502C47.7528 87.0188 47.7905 87.2007 47.7905 87.3846C47.7905 87.5685 47.7528 87.7504 47.6794 87.919C47.6059 88.0875 47.4986 88.2392 47.3639 88.3644C47.2292 88.4896 47.0701 88.5857 46.8966 88.6467C46.7231 88.7076 46.539 88.7322 46.3556 88.7188Z" fill="black"/>
<path d="M39.1757 95.8985C38.8222 95.8967 38.4838 95.7549 38.2345 95.5043C37.9852 95.2536 37.8454 94.9144 37.8454 94.5609V80.2087C37.832 80.0253 37.8563 79.8411 37.9173 79.6677C37.9783 79.4942 38.0746 79.3351 38.1998 79.2004C38.325 79.0658 38.4763 78.9583 38.6448 78.8849C38.8134 78.8114 38.9957 78.7734 39.1795 78.7734C39.3634 78.7734 39.5453 78.8114 39.7139 78.8849C39.8825 78.9583 40.0341 79.0658 40.1593 79.2004C40.2845 79.3351 40.3805 79.4942 40.4415 79.6677C40.5024 79.8411 40.5271 80.0253 40.5137 80.2087V94.5609C40.5137 94.7366 40.4788 94.9105 40.4116 95.0728C40.3443 95.2351 40.246 95.3826 40.1218 95.5068C39.9976 95.631 39.8502 95.7295 39.6879 95.7967C39.5256 95.864 39.3514 95.8985 39.1757 95.8985Z" fill="black"/>
<path d="M34.1034 93.799C33.749 93.797 33.4093 93.6565 33.157 93.4076C32.9075 93.1558 32.7678 92.8157 32.7678 92.4613C32.7678 92.1069 32.9075 91.7668 33.157 91.515L43.3109 81.361C43.566 81.1324 43.8993 81.0104 44.2417 81.0201C44.5841 81.0298 44.9096 81.1704 45.1513 81.4131C45.3931 81.6558 45.5327 81.982 45.5411 82.3244C45.5496 82.6669 45.426 82.9995 45.1965 83.2538L35.0498 93.4076C34.7975 93.6565 34.4578 93.797 34.1034 93.799Z" fill="black"/>
<path d="M44.2572 93.7988C43.9028 93.7967 43.5631 93.6563 43.3108 93.4074L33.1568 83.2535C33.0325 83.1292 32.934 82.9817 32.8667 82.8193C32.7994 82.6569 32.7649 82.4828 32.7649 82.3071C32.7649 82.1313 32.7994 81.9573 32.8667 81.795C32.934 81.6326 33.0325 81.485 33.1568 81.3608C33.2811 81.2365 33.4287 81.1379 33.5911 81.0706C33.7535 81.0034 33.9275 80.9688 34.1032 80.9688C34.279 80.9688 34.453 81.0034 34.6154 81.0706C34.7777 81.1379 34.9254 81.2365 35.0497 81.3608L45.2036 91.5147C45.453 91.7665 45.5928 92.1066 45.5928 92.461C45.5928 92.8155 45.453 93.1556 45.2036 93.4074C44.9513 93.6563 44.6116 93.7967 44.2572 93.7988Z" fill="black"/>
<path d="M73.7871 88.7188H59.4277C59.2443 88.7322 59.0602 88.7076 58.8867 88.6467C58.7133 88.5857 58.5541 88.4896 58.4194 88.3644C58.2848 88.2392 58.1774 88.0875 58.104 87.919C58.0305 87.7504 57.9924 87.5685 57.9924 87.3846C57.9924 87.2007 58.0305 87.0188 58.104 86.8502C58.1774 86.6817 58.2848 86.53 58.4194 86.4048C58.5541 86.2796 58.7133 86.1836 58.8867 86.1226C59.0602 86.0616 59.2443 86.037 59.4277 86.0504H73.7871C73.9705 86.037 74.1546 86.0616 74.3281 86.1226C74.5015 86.1836 74.6607 86.2796 74.7954 86.4048C74.9301 86.53 75.0374 86.6817 75.1108 86.8502C75.1843 87.0188 75.2224 87.2007 75.2224 87.3846C75.2224 87.5685 75.1843 87.7504 75.1108 87.919C75.0374 88.0875 74.9301 88.2392 74.7954 88.3644C74.6607 88.4896 74.5015 88.5857 74.3281 88.6467C74.1546 88.7076 73.9705 88.7322 73.7871 88.7188Z" fill="black"/>
<path d="M66.5791 95.8987C66.4034 95.8987 66.2293 95.8641 66.067 95.7969C65.9047 95.7296 65.7572 95.6311 65.633 95.5069C65.5088 95.3827 65.4105 95.2352 65.3433 95.0729C65.276 94.9106 65.2415 94.7367 65.2415 94.561V80.2088C65.2415 79.854 65.3821 79.5138 65.633 79.2629C65.8839 79.012 66.2243 78.8711 66.5791 78.8711C66.9339 78.8711 67.274 79.012 67.5248 79.2629C67.7757 79.5138 67.9167 79.854 67.9167 80.2088V94.561C67.9167 94.7367 67.8822 94.9106 67.8149 95.0729C67.7477 95.2352 67.6491 95.3827 67.5248 95.5069C67.4006 95.6311 67.2532 95.7296 67.0909 95.7969C66.9286 95.8641 66.7548 95.8987 66.5791 95.8987Z" fill="black"/>
<path d="M61.5049 93.799C61.1504 93.797 60.8108 93.6565 60.5584 93.4076C60.309 93.1558 60.1689 92.8157 60.1689 92.4613C60.1689 92.1069 60.309 91.7668 60.5584 91.515L70.7124 81.361C70.9675 81.1324 71.3004 81.0104 71.6428 81.0201C71.9852 81.0298 72.311 81.1704 72.5528 81.4131C72.7945 81.6558 72.9339 81.982 72.9423 82.3244C72.9507 82.6669 72.8275 82.9995 72.5979 83.2538L62.444 93.4076C62.1951 93.6574 61.8574 93.7982 61.5049 93.799Z" fill="black"/>
<path d="M71.6514 93.799C71.2967 93.7985 70.9565 93.6578 70.705 93.4076L60.551 83.2538C60.3215 82.9995 60.1983 82.6669 60.2067 82.3244C60.2151 81.982 60.3544 81.6558 60.5962 81.4131C60.8379 81.1704 61.1637 81.0298 61.5061 81.0201C61.8485 81.0104 62.1815 81.1324 62.4366 81.361L72.5905 91.515C72.7774 91.7016 72.9048 91.9394 72.9567 92.1984C73.0087 92.4573 72.9828 92.7259 72.8824 92.9701C72.7819 93.2144 72.6116 93.4234 72.3925 93.5709C72.1734 93.7185 71.9155 93.7978 71.6514 93.799Z" fill="black"/>
<path d="M101.161 88.7188H86.8012C86.6178 88.7322 86.4338 88.7076 86.2603 88.6467C86.0868 88.5857 85.9277 88.4896 85.793 88.3644C85.6583 88.2392 85.551 88.0875 85.4775 87.919C85.404 87.7504 85.366 87.5685 85.366 87.3846C85.366 87.2007 85.404 87.0188 85.4775 86.8502C85.551 86.6817 85.6583 86.53 85.793 86.4048C85.9277 86.2796 86.0868 86.1836 86.2603 86.1226C86.4338 86.0616 86.6178 86.037 86.8012 86.0504H101.161C101.498 86.0751 101.813 86.2263 102.043 86.4738C102.273 86.7213 102.401 87.0467 102.401 87.3846C102.401 87.7225 102.273 88.0479 102.043 88.2954C101.813 88.5429 101.498 88.6941 101.161 88.7188Z" fill="black"/>
<path d="M93.98 95.8987C93.8043 95.8987 93.6305 95.8641 93.4682 95.7969C93.3059 95.7296 93.1585 95.6311 93.0342 95.5069C92.91 95.3827 92.8114 95.2352 92.7441 95.0729C92.6769 94.9106 92.6423 94.7367 92.6423 94.561V80.2088C92.6423 79.854 92.7834 79.5138 93.0342 79.2629C93.2851 79.012 93.6252 78.8711 93.98 78.8711C94.3348 78.8711 94.6752 79.012 94.9261 79.2629C95.1769 79.5138 95.3176 79.854 95.3176 80.2088V94.561C95.3176 94.7367 95.2831 94.9106 95.2158 95.0729C95.1486 95.2352 95.0503 95.3827 94.9261 95.5069C94.8018 95.6311 94.6544 95.7296 94.4921 95.7969C94.3298 95.8641 94.1557 95.8987 93.98 95.8987Z" fill="black"/>
<path d="M88.9002 93.7988C88.6361 93.7976 88.3781 93.7182 88.1591 93.5707C87.94 93.4232 87.7693 93.2141 87.6688 92.9699C87.5684 92.7256 87.5426 92.4571 87.5945 92.1981C87.6464 91.9392 87.7738 91.7014 87.9607 91.5147L98.1077 81.3608C98.3587 81.1098 98.6988 80.9687 99.0538 80.9688C99.4087 80.9688 99.7492 81.1098 100 81.3608C100.251 81.6117 100.392 81.9521 100.392 82.3071C100.392 82.6621 100.251 83.0025 100 83.2535L89.8462 93.4074C89.5947 93.6575 89.2549 93.7982 88.9002 93.7988Z" fill="black"/>
<path d="M99.0538 93.799C98.6994 93.797 98.3601 93.6565 98.1077 93.4076L87.9607 83.2538C87.7311 82.9995 87.608 82.6669 87.6164 82.3244C87.6248 81.982 87.7641 81.6558 88.0059 81.4131C88.2476 81.1704 88.5734 81.0298 88.9158 81.0201C89.2582 81.0104 89.5911 81.1324 89.8462 81.361L100 91.515C100.25 91.7668 100.39 92.1069 100.39 92.4613C100.39 92.8157 100.25 93.1558 100 93.4076C99.7478 93.6565 99.4082 93.797 99.0538 93.799Z" fill="black"/>
<path d="M128.577 88.7188H114.203C114.02 88.7322 113.836 88.7076 113.662 88.6467C113.489 88.5857 113.33 88.4896 113.195 88.3644C113.06 88.2392 112.953 88.0875 112.879 87.919C112.806 87.7504 112.768 87.5685 112.768 87.3846C112.768 87.2007 112.806 87.0188 112.879 86.8502C112.953 86.6817 113.06 86.53 113.195 86.4048C113.33 86.2796 113.489 86.1836 113.662 86.1226C113.836 86.0616 114.02 86.037 114.203 86.0504H128.577C128.76 86.037 128.944 86.0616 129.118 86.1226C129.291 86.1836 129.45 86.2796 129.585 86.4048C129.72 86.53 129.827 86.6817 129.901 86.8502C129.974 87.0188 130.012 87.2007 130.012 87.3846C130.012 87.5685 129.974 87.7504 129.901 87.919C129.827 88.0875 129.72 88.2392 129.585 88.3644C129.45 88.4896 129.291 88.5857 129.118 88.6467C128.944 88.7076 128.76 88.7322 128.577 88.7188Z" fill="black"/>
<path d="M121.383 95.8985C121.208 95.8985 121.033 95.864 120.871 95.7967C120.709 95.7295 120.561 95.631 120.437 95.5068C120.313 95.3826 120.215 95.2351 120.147 95.0728C120.08 94.9105 120.045 94.7366 120.045 94.5609V80.2087C120.032 80.0253 120.057 79.8411 120.118 79.6677C120.179 79.4942 120.274 79.3351 120.4 79.2004C120.525 79.0658 120.677 78.9583 120.845 78.8849C121.014 78.8114 121.196 78.7734 121.379 78.7734C121.563 78.7734 121.746 78.8114 121.914 78.8849C122.083 78.9583 122.234 79.0658 122.359 79.2004C122.484 79.3351 122.581 79.4942 122.642 79.6677C122.703 79.8411 122.727 80.0253 122.714 80.2087V94.5609C122.714 94.9144 122.574 95.2536 122.325 95.5043C122.075 95.7549 121.737 95.8967 121.383 95.8985Z" fill="black"/>
<path d="M116.302 93.7988C115.947 93.7967 115.608 93.6563 115.355 93.4074C115.106 93.1556 114.966 92.8155 114.966 92.461C114.966 92.1066 115.106 91.7665 115.355 91.5147L125.509 81.3608C125.634 81.2365 125.781 81.1379 125.944 81.0706C126.106 81.0034 126.28 80.9688 126.456 80.9688C126.632 80.9687 126.806 81.0034 126.968 81.0706C127.13 81.1379 127.278 81.2365 127.402 81.3608C127.527 81.485 127.625 81.6326 127.692 81.795C127.76 81.9573 127.794 82.1313 127.794 82.3071C127.794 82.4828 127.76 82.6569 127.692 82.8193C127.625 82.9817 127.527 83.1292 127.402 83.2535L117.248 93.4074C116.996 93.6563 116.656 93.7967 116.302 93.7988Z" fill="black"/>
<path d="M126.441 93.7988C126.087 93.7967 125.747 93.6563 125.495 93.4074L115.341 83.2535C115.09 83.0025 114.949 82.6621 114.949 82.3071C114.949 81.9521 115.09 81.6117 115.341 81.3608C115.592 81.1098 115.932 80.9688 116.287 80.9688C116.642 80.9687 116.983 81.1098 117.234 81.3608L127.388 91.5147C127.637 91.7665 127.777 92.1066 127.777 92.461C127.777 92.8155 127.637 93.1556 127.388 93.4074C127.135 93.6563 126.796 93.7967 126.441 93.7988Z" fill="black"/>
<path d="M80.8616 54.646C84.7361 54.646 87.877 51.5051 87.877 47.6306C87.877 43.7561 84.7361 40.6152 80.8616 40.6152C76.9871 40.6152 73.8462 43.7561 73.8462 47.6306C73.8462 51.5051 76.9871 54.646 80.8616 54.646Z" fill="#2563EB"/>
<path d="M80.8626 58.3379C78.4053 58.3386 76.0183 59.1376 74.0789 60.6087C72.1396 62.0798 70.7584 64.1391 70.1538 66.461H91.5692C90.9654 64.1391 89.5848 62.0797 87.6457 60.6085C85.7066 59.1373 83.3197 58.3383 80.8626 58.3379Z" fill="#2563EB"/>
<path d="M80.086 131.327C77.9192 131.062 75.8796 130.161 74.2249 128.737C72.5703 127.314 71.3749 125.431 70.7901 123.328C70.2053 121.225 70.2574 118.996 70.9396 116.922C71.6218 114.849 72.9035 113.024 74.6227 111.679C76.3419 110.334 78.4214 109.529 80.5982 109.365C82.775 109.202 84.9512 109.688 86.8518 110.761C88.7525 111.835 90.292 113.448 91.2759 115.397C92.2597 117.345 92.6438 119.542 92.3792 121.709C92.0209 124.613 90.5255 127.256 88.221 129.059C85.9165 130.862 82.9909 131.678 80.086 131.327ZM82.5442 111.193C80.7276 110.97 78.8859 111.291 77.2518 112.115C75.6178 112.94 74.2649 114.23 73.3644 115.823C72.4638 117.417 72.0562 119.241 72.1928 121.066C72.3295 122.891 73.0043 124.635 74.132 126.076C75.2598 127.517 76.7898 128.592 78.5284 129.164C80.2669 129.735 82.1359 129.779 83.899 129.288C85.6621 128.797 87.2402 127.795 88.4334 126.407C89.6265 125.019 90.3814 123.309 90.6022 121.492C90.9009 119.056 90.2203 116.6 88.7098 114.666C87.1994 112.731 84.9824 111.475 82.5465 111.174L82.5442 111.193Z" fill="#2563EB"/>
<path d="M105.369 120.336C104.511 119.618 103.947 118.61 103.785 117.504C103.622 116.397 103.873 115.269 104.488 114.336C105.992 112.297 109.013 112.508 110.808 114.068C117.393 119.886 122.796 126.918 126.724 134.778C124.221 135.963 121.725 137.15 119.233 138.358C115.794 131.527 111.089 125.412 105.369 120.336Z" fill="white"/>
<path d="M127.758 135.707C127.633 135.843 127.483 135.954 127.316 136.033C124.753 137.24 122.24 138.446 119.834 139.6C119.508 139.759 119.132 139.784 118.788 139.668C118.444 139.552 118.159 139.306 117.996 138.981C114.637 132.309 110.041 126.335 104.453 121.378C103.338 120.43 102.612 119.105 102.412 117.655C102.212 116.205 102.553 114.733 103.37 113.518C103.469 113.382 103.576 113.251 103.69 113.127C104.202 112.57 104.83 112.133 105.531 111.847C106.231 111.561 106.986 111.433 107.741 111.471C109.201 111.528 110.6 112.075 111.71 113.024C118.427 118.959 123.937 126.133 127.94 134.152C128.069 134.4 128.121 134.681 128.087 134.959C128.053 135.236 127.936 135.497 127.75 135.706L127.758 135.707ZM119.844 136.526C121.466 135.742 123.141 134.943 124.838 134.139C121.059 126.939 115.997 120.491 109.899 115.111C108.732 114.108 106.788 113.821 105.743 114.984C105.691 115.039 105.643 115.098 105.599 115.16C105.196 115.815 105.042 116.594 105.167 117.353C105.291 118.112 105.686 118.801 106.278 119.293C111.79 124.181 116.382 130.017 119.837 136.525L119.844 136.526Z" fill="black"/>
<path d="M90.6745 148.385C90.965 147.388 91.6165 146.535 92.5018 145.993C93.3871 145.45 94.4429 145.256 95.4631 145.45C92.5772 144.603 90.8272 142.791 91.2603 140.242C91.6665 137.854 94.1671 136.69 96.3173 137.103C94.3401 136.388 92.9228 134.315 93.5549 132.249C94.2668 129.942 97.0407 128.947 99.2931 129.581C94.1237 127.586 88.7222 126.254 83.2178 125.618C80.8959 125.378 79.0867 123.931 79.0669 121.627C79.0341 118.491 81.6012 117.371 83.9274 117.576C104.765 120.636 122.068 127.637 141.895 140.323C135.84 149.175 130.012 158.172 124.414 167.314C114.85 161.091 104.402 156.345 93.4228 153.237C92.4273 152.939 91.5854 152.267 91.0732 151.363C90.5611 150.459 90.4182 149.392 90.6745 148.385Z" fill="white"/>
<path d="M125.071 168.57C124.962 168.628 124.846 168.672 124.726 168.7C124.546 168.743 124.36 168.749 124.177 168.718C123.995 168.687 123.821 168.62 123.665 168.52C114.217 162.374 103.899 157.682 93.0563 154.604C91.7082 154.208 90.5664 153.304 89.8717 152.082C89.177 150.861 88.9837 149.417 89.3324 148.056C89.6752 146.785 90.4757 145.685 91.5803 144.968C90.8944 144.366 90.3777 143.595 90.0809 142.731C89.784 141.868 89.7171 140.942 89.8873 140.045C90.0197 139.271 90.3297 138.539 90.7926 137.905C91.2555 137.271 91.8589 136.754 92.5556 136.392C92.6781 136.328 92.8007 136.264 92.9294 136.208C92.495 135.586 92.2067 134.873 92.0859 134.124C91.9652 133.374 92.0152 132.607 92.2322 131.88C92.5523 130.857 93.1828 129.959 94.0365 129.311C90.451 128.214 86.7722 127.451 83.0464 127.03C79.869 126.693 77.7093 124.537 77.6791 121.673C77.6225 120.713 77.8412 119.758 78.3094 118.918C78.7776 118.079 79.4758 117.39 80.322 116.934C81.4705 116.346 82.7652 116.103 84.049 116.235L84.1266 116.245C104.718 119.268 122.217 126.128 142.64 139.159C142.796 139.26 142.931 139.39 143.035 139.543C143.14 139.696 143.212 139.869 143.248 140.051C143.287 140.232 143.288 140.42 143.251 140.601C143.214 140.783 143.14 140.955 143.034 141.107C137.021 149.9 131.154 158.968 125.601 168.047C125.477 168.267 125.293 168.448 125.071 168.57ZM93.3207 147.152C93.0032 147.32 92.7231 147.551 92.4969 147.83C92.2707 148.109 92.1028 148.431 92.004 148.776C91.8384 149.439 91.9368 150.139 92.2779 150.731C92.6189 151.322 93.1762 151.758 93.8324 151.946C104.474 154.963 114.624 159.505 123.964 165.431C129.078 157.124 134.441 148.832 139.936 140.758C120.395 128.429 103.53 121.897 83.7628 118.989C83.032 118.914 82.295 119.048 81.637 119.375C81.2359 119.592 80.9087 119.925 80.6972 120.329C80.4857 120.734 80.3995 121.192 80.4493 121.645C80.4622 123.36 81.9595 124.131 83.3535 124.279C88.9604 124.924 94.4627 126.278 99.7289 128.307C100.053 128.439 100.316 128.688 100.465 129.005C100.613 129.322 100.636 129.684 100.529 130.017C100.422 130.35 100.193 130.631 99.8884 130.803C99.5833 130.974 99.2243 131.024 98.8839 130.943C97.9465 130.69 96.9487 130.799 96.0873 131.246C95.4972 131.545 95.0494 132.065 94.8424 132.693C94.4227 134.075 95.5102 135.384 96.7454 135.836C97.0667 135.959 97.3307 136.197 97.4863 136.504C97.6419 136.811 97.678 137.164 97.5874 137.496C97.4969 137.828 97.2863 138.115 96.9965 138.3C96.7066 138.486 96.358 138.557 96.0187 138.5C95.2725 138.358 94.5003 138.473 93.8281 138.827C93.5034 138.989 93.2213 139.225 93.0041 139.516C92.7868 139.807 92.6404 140.145 92.577 140.502C92.3836 141.676 92.7781 143.258 95.8089 144.151C96.1655 144.236 96.474 144.458 96.6664 144.77C96.8589 145.082 96.9199 145.458 96.8355 145.814C96.751 146.171 96.5284 146.479 96.2166 146.672C95.9047 146.864 95.5291 146.925 95.1725 146.841C94.543 146.731 93.8948 146.828 93.325 147.117L93.3207 147.152Z" fill="black"/>
<path d="M142.498 190.052L173.912 171.364C159.431 146.707 135.569 134.367 135.569 134.367L117.542 166.174C117.542 166.174 134.612 176.143 142.498 190.052Z" fill="#2563EB"/>
<path d="M162.244 164.004C162.384 163.934 162.502 163.825 162.583 163.69C162.664 163.555 162.706 163.4 162.703 163.243C162.703 163.133 162.681 163.024 162.638 162.923C162.595 162.821 162.533 162.73 162.454 162.653C162.375 162.577 162.281 162.517 162.179 162.477C162.076 162.438 161.966 162.419 161.856 162.423C157.327 162.587 152.047 164.15 146.163 167.131C143.571 168.436 141.07 169.915 138.677 171.557C138.589 171.62 138.514 171.699 138.457 171.79C138.4 171.882 138.362 171.984 138.345 172.09C138.327 172.197 138.33 172.305 138.355 172.41C138.379 172.515 138.424 172.615 138.487 172.702C138.55 172.79 138.629 172.864 138.72 172.921C138.812 172.978 138.914 173.017 139.02 173.034C139.126 173.052 139.235 173.049 139.34 173.024C139.445 173 139.544 172.955 139.632 172.892C139.75 172.806 151.659 164.389 161.907 164.063C162.022 164.066 162.136 164.046 162.244 164.004Z" fill="black"/>
<path d="M137.48 170.436C137.623 170.37 137.741 170.262 137.819 170.126C137.89 170.013 144.766 158.788 154.513 154.759C154.684 154.658 154.813 154.498 154.876 154.31C154.939 154.121 154.932 153.916 154.856 153.732C154.779 153.548 154.64 153.398 154.462 153.31C154.284 153.221 154.08 153.199 153.887 153.249C143.629 157.473 136.704 168.814 136.408 169.294C136.315 169.446 136.274 169.625 136.292 169.802C136.309 169.979 136.385 170.146 136.506 170.277C136.627 170.408 136.788 170.496 136.963 170.527C137.139 170.558 137.32 170.531 137.479 170.45L137.48 170.436Z" fill="black"/>
<path d="M143.4 191.594L143.365 191.59C142.971 191.811 142.507 191.87 142.072 191.754C141.636 191.638 141.263 191.356 141.032 190.968C133.485 177.624 116.889 167.834 116.722 167.735C116.329 167.507 116.042 167.133 115.923 166.694C115.805 166.255 115.865 165.788 116.09 165.393L134.109 133.586C134.329 133.196 134.691 132.907 135.12 132.779C135.549 132.65 136.011 132.694 136.408 132.899C141.351 135.625 146.044 138.781 150.432 142.331C157.619 148.047 167.838 157.589 175.452 170.554C175.684 170.948 175.751 171.418 175.638 171.861C175.525 172.304 175.241 172.684 174.848 172.918C174.652 173.033 174.435 173.108 174.21 173.14C173.985 173.171 173.755 173.157 173.535 173.1C173.315 173.042 173.109 172.942 172.927 172.805C172.746 172.667 172.594 172.495 172.479 172.299C165.149 159.827 155.319 150.627 148.36 145.096C144.539 142.04 140.504 139.262 136.285 136.783L119.934 165.611C124.319 168.39 137.316 177.31 144.06 189.238C144.173 189.436 144.245 189.654 144.273 189.88C144.3 190.105 144.283 190.335 144.222 190.554C144.16 190.773 144.056 190.978 143.915 191.156C143.774 191.335 143.599 191.484 143.4 191.594Z" fill="#2563EB"/>
<path d="M156.605 176.376C156.41 176.491 156.178 176.525 155.958 176.471C155.739 176.418 155.549 176.28 155.428 176.089C146.559 161.952 133.063 153.774 132.93 153.693C132.732 153.574 132.59 153.381 132.535 153.158C132.48 152.934 132.516 152.697 132.635 152.5C132.754 152.302 132.947 152.16 133.171 152.105C133.394 152.05 133.631 152.085 133.828 152.205C133.961 152.292 147.811 160.686 156.902 175.172C157.023 175.367 157.062 175.601 157.011 175.825C156.959 176.048 156.822 176.242 156.628 176.364L156.605 176.376Z" fill="black"/>
<path d="M187.594 11.1562L177.424 16.6003C177.32 16.6567 177.202 16.6833 177.084 16.6771C176.93 16.679 176.781 16.6283 176.66 16.5334C176.539 16.4385 176.455 16.3051 176.42 16.1554C176.386 16.0058 176.404 15.8488 176.471 15.7107C176.538 15.5726 176.651 15.4615 176.789 15.3962L186.96 9.95209C187.117 9.86715 187.302 9.84815 187.473 9.8992C187.644 9.95024 187.788 10.0672 187.873 10.2243C187.958 10.3814 187.977 10.5658 187.926 10.737C187.875 10.9082 187.758 11.0521 187.601 11.137L187.594 11.1562Z" fill="#2563EB"/>
<path d="M179.352 28.5412C179.361 28.3648 179.439 28.1989 179.569 28.0792C179.698 27.9595 179.87 27.8954 180.047 27.9007L191.575 28.2786C191.752 28.2861 191.918 28.363 192.038 28.4925C192.158 28.6221 192.222 28.7938 192.216 28.9703C192.206 29.1464 192.128 29.3117 191.998 29.4313C191.868 29.5508 191.697 29.6152 191.521 29.6108L179.992 29.2329C179.816 29.2254 179.649 29.1485 179.53 29.0189C179.41 28.8893 179.346 28.7176 179.352 28.5412Z" fill="#2563EB"/>
<path d="M176.648 40.3382L186.444 46.4228C186.571 46.5004 186.669 46.6181 186.722 46.7573C186.775 46.8964 186.78 47.0493 186.737 47.1918C186.694 47.3343 186.604 47.4584 186.483 47.5447C186.362 47.6309 186.215 47.6745 186.066 47.6685C185.953 47.6624 185.842 47.6272 185.746 47.566L175.95 41.4815C175.872 41.4362 175.805 41.3758 175.751 41.304C175.697 41.2321 175.658 41.1503 175.637 41.0632C175.615 40.9761 175.611 40.8856 175.625 40.797C175.639 40.7083 175.67 40.6233 175.718 40.547C175.765 40.4707 175.827 40.4047 175.9 40.3527C175.973 40.3008 176.056 40.264 176.144 40.2445C176.231 40.2251 176.322 40.2233 176.41 40.2394C176.498 40.2555 176.582 40.2891 176.658 40.3382H176.648Z" fill="#2563EB"/>
<path d="M170.357 14.3612C168.409 10.9065 165.754 7.90112 162.567 5.54102C159.38 3.18091 155.731 1.51912 151.858 0.663932C147.985 -0.191254 143.976 -0.22063 140.091 0.577774C136.206 1.37618 132.533 2.9844 129.312 5.29759C126.09 7.61079 123.392 10.577 121.394 14.0029C119.396 17.4287 118.142 21.2373 117.714 25.1802C117.287 29.1231 117.695 33.1119 118.912 36.8864C120.13 40.661 122.129 44.1366 124.78 47.0865L117.459 61.9456L133.122 53.4369C138.525 56.1389 144.652 57.0364 150.603 55.9975C156.553 54.9586 162.013 52.0381 166.181 47.6653C170.348 43.2925 173.003 37.6981 173.755 31.7044C174.506 25.7108 173.315 19.6341 170.357 14.3677V14.3612Z" fill="#2563EB"/>
<path d="M117.459 62.7046C117.585 62.705 117.71 62.673 117.821 62.6117L133.141 54.2855C137.348 56.321 141.985 57.3084 146.656 57.1634C151.328 57.0184 155.895 55.7453 159.967 53.4529C160.061 53.4076 160.144 53.3436 160.213 53.2648C160.281 53.186 160.332 53.0941 160.363 52.9948C160.394 52.8955 160.405 52.7908 160.394 52.6872C160.383 52.5837 160.351 52.4834 160.3 52.3927C160.249 52.302 160.18 52.2227 160.097 52.1597C160.014 52.0967 159.919 52.0513 159.818 52.0264C159.717 52.0016 159.612 51.9977 159.509 52.015C159.407 52.0323 159.309 52.0704 159.221 52.1271C155.307 54.3329 150.912 55.5448 146.421 55.6564C141.93 55.7681 137.48 54.7761 133.461 52.7676C133.353 52.7109 133.233 52.6813 133.11 52.6813C132.988 52.6813 132.868 52.7109 132.76 52.7676L119.198 60.1331L125.462 47.4195C125.529 47.2833 125.555 47.1298 125.534 46.9791C125.513 46.8283 125.448 46.6872 125.346 46.5741C122.518 43.4297 120.454 39.6752 119.314 35.6028C118.173 31.5304 117.988 27.2499 118.772 23.0941C118.868 22.5946 118.977 22.095 119.092 21.6082C119.135 21.414 119.1 21.2107 118.995 21.0417C118.89 20.8728 118.723 20.7515 118.53 20.7038C118.337 20.6562 118.133 20.6859 117.962 20.7867C117.79 20.8874 117.665 21.0513 117.612 21.2431C117.488 21.7587 117.372 22.2839 117.273 22.8091C116.002 29.5143 117.136 36.4528 120.475 42.4046C121.438 44.1146 122.57 45.7239 123.854 47.2082L116.754 61.619C116.683 61.764 116.661 61.9276 116.689 62.0864C116.717 62.2453 116.795 62.3911 116.911 62.5028C116.984 62.5712 117.071 62.6243 117.165 62.6589C117.259 62.6936 117.359 62.7091 117.459 62.7046Z" fill="black"/>
<path d="M143.628 45.565H143.599C143.212 45.56 142.832 45.4616 142.492 45.2781C142.151 45.0947 141.86 44.8317 141.643 44.5114L130.572 28.208C130.395 27.9471 130.271 27.6538 130.207 27.3449C130.143 27.036 130.14 26.7175 130.2 26.4076C130.259 26.0978 130.378 25.8026 130.552 25.539C130.725 25.2753 130.948 25.0484 131.209 24.8712C131.47 24.6939 131.764 24.5698 132.072 24.5058C132.381 24.4419 132.7 24.4395 133.01 24.4987C133.32 24.5579 133.615 24.6775 133.878 24.8508C134.142 25.024 134.369 25.2475 134.546 25.5084L143.676 38.9585L160.719 15.0622C160.9 14.8002 161.132 14.5767 161.4 14.4049C161.668 14.2331 161.968 14.1163 162.281 14.0614C162.595 14.0065 162.917 14.0145 163.227 14.0849C163.538 14.1554 163.831 14.2869 164.09 14.4719C164.35 14.6568 164.57 14.8915 164.737 15.1623C164.905 15.433 165.017 15.7344 165.067 16.0489C165.118 16.3634 165.105 16.6847 165.03 16.9942C164.954 17.3036 164.818 17.5951 164.629 17.8515L145.585 44.5563C145.363 44.8682 145.069 45.1225 144.729 45.298C144.389 45.4735 144.011 45.5651 143.628 45.565Z" fill="white"/>
</g>
<defs>
<clipPath id="clip0_936_21086">
<rect width="192" height="192" fill="white"/>
</clipPath>
</defs>
</svg>
