<svg width="260" height="260" viewBox="0 0 260 260" fill="none" xmlns="http://www.w3.org/2000/svg">
<rect width="260" height="260" fill="white"/>
<path d="M109.44 227.826L117.814 221.955C118.253 221.645 118.844 221.645 119.282 221.955L126.919 227.315L134.557 221.955C134.995 221.645 135.586 221.645 136.025 221.955L143.662 227.315L151.299 221.955C151.738 221.645 152.328 221.645 152.767 221.955L160.404 227.315L168.041 221.955C168.48 221.645 169.071 221.645 169.509 221.955L177.147 227.315L184.784 221.955C185.222 221.645 185.813 221.645 186.252 221.955L194.626 227.826C195.204 228.234 195.345 229.032 194.936 229.605C194.687 229.958 194.291 230.153 193.889 230.153C193.633 230.153 193.377 230.08 193.152 229.921L185.515 224.568L177.877 229.921C177.439 230.232 176.848 230.232 176.41 229.921L168.772 224.568L161.135 229.921C160.697 230.232 160.106 230.232 159.667 229.921L152.03 224.568L144.393 229.921C143.954 230.232 143.363 230.232 142.925 229.921L135.288 224.568L127.65 229.921C127.212 230.232 126.621 230.232 126.183 229.921L118.545 224.568L110.908 229.921C110.329 230.329 109.532 230.183 109.123 229.605C108.715 229.026 108.856 228.228 109.434 227.826H109.44Z" fill="#2563EB"/>
<path d="M234.153 199.025C233.903 199.025 233.653 198.927 233.464 198.738C233.087 198.361 233.087 197.74 233.464 197.362L238.702 192.124C239.08 191.747 239.701 191.747 240.078 192.124C240.456 192.502 240.456 193.123 240.078 193.501L234.841 198.738C234.652 198.927 234.402 199.025 234.153 199.025Z" fill="#2563EB"/>
<path d="M239.384 199.025C239.135 199.025 238.885 198.927 238.696 198.738L233.458 193.501C233.081 193.123 233.081 192.502 233.458 192.124C233.836 191.747 234.457 191.747 234.835 192.124L240.073 197.362C240.45 197.746 240.45 198.361 240.073 198.738C239.884 198.927 239.634 199.025 239.384 199.025Z" fill="#2563EB"/>
<path d="M117.31 182.386C113.918 182.386 111.159 185.145 111.159 188.544C111.159 191.942 113.918 194.695 117.31 194.695C120.702 194.695 123.461 191.936 123.461 188.544C123.461 185.151 120.702 182.386 117.31 182.386ZM117.31 192.131C115.331 192.131 113.717 190.517 113.717 188.537C113.717 186.558 115.331 184.944 117.31 184.944C119.289 184.944 120.903 186.558 120.903 188.537C120.903 190.517 119.289 192.131 117.31 192.131Z" fill="#2563EB"/>
<path d="M64.5612 91.019L67.2775 112.293C67.308 112.518 67.3932 112.719 67.5211 112.889C67.783 113.23 68.2154 113.431 68.6722 113.377C69.3604 113.291 69.8415 112.664 69.7562 111.976L67.0339 90.7023C66.9486 90.0141 66.3213 89.5329 65.6392 89.6182C64.9571 89.7034 64.4698 90.3308 64.5551 91.019H64.5612Z" fill="#2563EB"/>
<path d="M47.0822 122.226C47.6304 121.806 47.7339 121.02 47.3198 120.472L34.329 103.413C33.9088 102.865 33.1232 102.755 32.575 103.175C32.0269 103.596 31.9173 104.381 32.3375 104.929L45.3282 121.995C45.7485 122.543 46.5341 122.652 47.0822 122.232V122.226Z" fill="#2563EB"/>
<path d="M32.1362 139.047L12.3547 130.764C11.7152 130.496 10.9844 130.801 10.7165 131.434C10.5337 131.861 10.6129 132.33 10.8748 132.677C11.0027 132.847 11.1793 132.987 11.3864 133.073L31.1678 141.356C31.8073 141.623 32.5382 141.319 32.8061 140.686C33.0741 140.046 32.7757 139.315 32.1362 139.047Z" fill="#2563EB"/>
<path d="M200.37 212.807H118.034C104.769 212.807 93.9834 202.015 93.9834 188.757C93.9834 175.498 104.775 164.706 118.034 164.706H119.782C130.361 164.706 138.961 156.1 138.961 145.528C138.961 134.955 130.355 126.349 119.782 126.349H103.332V121.477H119.782C133.047 121.477 143.833 132.269 143.833 145.528C143.833 158.786 133.041 169.578 119.782 169.578H118.034C107.455 169.578 98.8557 178.184 98.8557 188.757C98.8557 199.33 107.461 207.935 118.034 207.935H200.37V212.807Z" fill="black"/>
<path d="M105.135 30C84.6588 30 68.0078 46.657 68.0078 67.1267C68.0078 75.2634 70.8216 83.1503 76.3699 90.5867C78.9948 94.1069 85.2922 102.457 100.36 122.275C100.896 122.981 101.212 123.401 101.249 123.444C101.249 123.444 101.255 123.456 101.261 123.462L103.307 126.142C103.746 126.721 104.428 127.056 105.153 127.056C105.878 127.056 106.56 126.715 106.992 126.142L109.032 123.456C109.032 123.456 109.191 123.255 109.428 122.939C114.97 115.654 128.448 97.9194 133.924 90.5867C139.466 83.1564 142.28 75.2634 142.28 67.1267C142.28 46.657 125.623 30 105.147 30H105.135ZM105.135 85.0018C95.2621 85.0018 87.2594 76.9991 87.2594 67.1267C87.2594 57.2542 95.2621 49.2515 105.135 49.2515C115.007 49.2515 123.01 57.2542 123.01 67.1267C123.01 76.9991 115.007 85.0018 105.135 85.0018Z" fill="#2563EB"/>
<path d="M203.597 66.2615C172.5 66.2615 147.201 91.5607 147.201 122.658C147.201 135.009 151.47 146.995 159.899 158.293C163.888 163.64 173.45 176.326 196.332 206.424C197.148 207.502 197.629 208.136 197.684 208.197C197.69 208.209 197.696 208.215 197.702 208.221L200.808 212.289C201.478 213.166 202.513 213.678 203.609 213.678C204.706 213.678 205.741 213.16 206.405 212.289L209.505 208.209C209.529 208.178 209.742 207.904 210.102 207.423C218.525 196.357 238.994 169.42 247.308 158.286C255.731 147.001 260 135.015 260 122.658C260 91.5607 234.701 66.2615 203.597 66.2615Z" fill="#2563EB"/>
<path d="M203.598 149.809C188.603 149.809 176.447 137.659 176.447 122.658C176.447 107.658 188.603 95.5076 203.598 95.5076C218.592 95.5076 230.748 107.664 230.748 122.658C230.748 137.653 218.598 149.809 203.598 149.809Z" fill="white"/>
<path d="M185.637 156.21C185.424 156.21 185.211 156.155 185.016 156.046C172.914 149.297 165.399 136.502 165.399 122.658C165.399 101.592 182.537 84.4536 203.598 84.4536C224.658 84.4536 241.802 101.592 241.802 122.658C241.802 127.476 240.913 132.178 239.171 136.623C238.909 137.281 238.173 137.604 237.515 137.348C236.857 137.092 236.534 136.343 236.79 135.686C238.422 131.538 239.244 127.153 239.244 122.652C239.244 102.999 223.257 87.0116 203.604 87.0116C183.95 87.0116 167.963 102.999 167.963 122.652C167.963 135.57 174.979 147.507 186.264 153.804C186.88 154.145 187.105 154.925 186.758 155.546C186.526 155.966 186.088 156.204 185.637 156.204V156.21Z" fill="black"/>
<path d="M62.0877 139.358C63.7199 137.104 63.6103 133.749 61.4665 131.915C59.0912 129.887 55.5466 130.977 53.8109 133.365C47.483 142.336 43.1102 151.977 40.54 162.653C43.8715 163.366 47.2029 164.097 50.5282 164.84C52.7999 155.534 56.5881 147.202 62.0938 139.358H62.0877Z" fill="white"/>
<path d="M39.0901 163.561C38.8465 163.171 38.7673 162.702 38.877 162.251C41.508 151.337 45.9357 141.568 52.4097 132.378C52.4097 132.372 52.4219 132.366 52.428 132.354C53.4755 130.922 55.0529 129.838 56.7521 129.388C58.6645 128.876 60.5586 129.181 62.0812 130.24C62.2517 130.356 62.4161 130.484 62.5684 130.618C65.2786 132.926 65.6806 137.287 63.4759 140.344C58.092 148.018 54.3952 156.161 52.1783 165.242C51.9529 166.143 51.0577 166.703 50.1502 166.502C46.9406 165.79 43.5848 165.053 40.1803 164.322C39.9549 164.273 39.7479 164.182 39.5652 164.054C39.3764 163.926 39.218 163.755 39.0962 163.561H39.0901ZM60.6926 138.377C60.6926 138.377 60.7048 138.365 60.7109 138.359C61.8863 136.733 61.7279 134.382 60.3637 133.219C60.2906 133.158 60.2175 133.097 60.1384 133.048C58.5671 131.952 56.3136 132.841 55.193 134.363C49.3097 142.707 45.1865 151.557 42.6225 161.362C44.882 161.849 47.1111 162.336 49.2793 162.818C51.6362 153.962 55.3818 145.953 60.6926 138.377Z" fill="black"/>
<path d="M87.5643 168.86C86.3279 166.558 83.4228 165.638 80.9989 166.686C84.2207 164.859 85.8103 162.197 84.58 159.268C83.4289 156.521 80.1036 155.827 77.637 156.929C79.8052 155.516 80.9258 152.629 79.5859 150.339C78.0877 147.769 74.4761 147.349 71.9547 148.737C79.5737 143.798 83.7456 141.88 90.1222 139.486C92.8324 138.542 94.5925 136.301 93.9774 133.536C93.1369 129.766 89.7385 129.145 87.01 130.046C62.8923 139.553 44.1157 152.794 23.9019 173.549C33.6403 182.46 43.1474 191.613 52.4169 201.011C62.7948 190.371 72.649 182.764 85.591 175.456C87.9175 174.14 88.8006 171.18 87.5582 168.86H87.5643Z" fill="white"/>
<path d="M51.2109 202.204C42.0083 192.874 32.4343 183.659 22.7628 174.804C22.4218 174.493 22.2208 174.055 22.2086 173.598C22.1964 173.135 22.367 172.691 22.6958 172.356C43.5066 150.979 62.5632 137.848 86.4009 128.457C86.4252 128.444 86.4557 128.438 86.4861 128.426C88.0635 127.902 89.7201 127.829 91.1513 128.219C93.4839 128.858 95.0857 130.613 95.6521 133.158C96.4195 136.599 94.4341 139.785 90.7129 141.082C86.0964 142.818 82.6675 144.285 78.1789 146.892C79.4092 147.446 80.4141 148.335 81.0657 149.468C82.0341 151.131 82.1133 153.092 81.4373 154.852C81.6078 154.883 81.7783 154.925 81.9427 154.968C83.9038 155.504 85.4021 156.789 86.1573 158.598C87.0891 160.827 86.8333 163.044 85.5056 164.974C87.0465 165.541 88.3011 166.613 89.0745 168.05C90.7555 171.18 89.574 175.169 86.4435 176.936C73.7147 184.128 63.9092 191.68 53.6531 202.198C53.3303 202.527 52.8918 202.71 52.435 202.716C52.2828 202.716 52.1305 202.698 51.9843 202.655C51.6981 202.576 51.4301 202.424 51.217 202.204H51.2109ZM81.6748 168.251C80.8404 168.61 79.8781 168.251 79.4701 167.441C79.0681 166.631 79.3665 165.644 80.1583 165.2C83.5384 163.287 83.5749 161.277 83.0024 159.925C82.5639 158.878 81.693 158.445 81.0353 158.269C80.1583 158.025 79.1716 158.104 78.3312 158.482C77.5151 158.847 76.565 158.525 76.1386 157.739C75.7123 156.959 75.962 155.979 76.705 155.492C78.0693 154.602 78.995 152.702 78.1119 151.192C77.6125 150.339 76.8025 149.968 76.2117 149.809C75.1094 149.511 73.7999 149.669 72.7829 150.229C71.9789 150.668 70.9679 150.4 70.499 149.608C70.0239 148.823 70.2615 147.799 71.0349 147.3C78.8062 142.263 83.0207 140.327 89.5313 137.884C89.5435 137.884 89.5618 137.872 89.574 137.872C91.2062 137.306 92.7836 135.966 92.3268 133.901C92.0345 132.592 91.3584 131.812 90.2622 131.514C89.4826 131.301 88.5386 131.349 87.6068 131.654C64.7375 140.674 46.3386 153.232 26.3744 173.488C35.2237 181.625 43.9816 190.06 52.435 198.587C62.4902 188.465 72.253 181.047 84.7748 173.976C86.3034 173.111 86.882 171.18 86.072 169.676C85.6579 168.902 84.9331 168.342 84.0378 168.099C83.2582 167.885 82.4239 167.946 81.6869 168.263L81.6748 168.251Z" fill="black"/>
<path d="M42.9158 217.948L2.2627 204.987C2.2627 204.987 2.33577 204.756 2.48194 204.324C2.55502 204.104 2.64028 203.836 2.74382 203.52C2.85345 203.221 2.98134 202.874 3.12142 202.484C3.26759 202.101 3.42592 201.674 3.60254 201.211C3.78525 200.761 3.98626 200.286 4.19942 199.774C4.30905 199.518 4.41867 199.256 4.53438 198.988C4.6501 198.72 4.77189 198.459 4.89979 198.185C5.14949 197.642 5.41747 197.052 5.70372 196.473C6.84262 194.134 8.2556 191.607 9.83909 189.079C11.4226 186.552 13.1766 184.031 14.9854 181.655C18.6031 176.893 22.4217 172.648 25.4243 169.572C26.9225 168.031 28.2076 166.771 29.1577 165.875C29.6388 165.419 30.0225 165.065 30.2783 164.822C30.5524 164.572 30.6985 164.432 30.6985 164.432L59.4389 195.968C59.4389 195.968 59.3597 196.041 59.2196 196.169C59.0613 196.315 58.8359 196.534 58.5436 196.802C57.9467 197.368 57.0575 198.233 56.0161 199.305C53.9271 201.443 51.2413 204.451 48.9817 207.436C47.8428 208.928 46.8258 210.408 45.9914 211.742C45.1509 213.075 44.4932 214.269 44.0425 215.207C43.9268 215.445 43.8354 215.658 43.738 215.865C43.6892 215.968 43.6344 216.072 43.5979 216.163C43.5613 216.255 43.5248 216.34 43.4883 216.431C43.4152 216.602 43.3482 216.766 43.2873 216.912C43.2325 217.046 43.1898 217.174 43.1472 217.284C43.1046 217.393 43.068 217.491 43.0315 217.582C43.0071 217.661 42.9888 217.728 42.9706 217.777C42.9401 217.881 42.9158 217.942 42.9158 217.942V217.948Z" fill="#2563EB"/>
<path d="M1.56239 207.15C2.75609 207.533 4.03508 206.882 4.42486 205.694L4.89379 204.269L5.7282 202.034C5.88046 201.662 6.04489 201.273 6.21542 200.858L6.63566 199.872C6.70265 199.719 6.77573 199.555 6.8549 199.391L7.18377 198.684C7.36648 198.288 7.55527 197.88 7.75016 197.484C8.85252 195.207 10.2411 192.722 11.7698 190.286C13.2924 187.856 14.9855 185.413 16.8005 183.032C20.6313 177.983 24.4925 173.787 27.0566 171.156C28.5244 169.645 29.7607 168.446 30.5768 167.66L56.2659 195.846C55.7543 196.345 55.1148 196.979 54.3901 197.722C53.1903 198.946 50.0842 202.223 47.173 206.06C46.0585 207.527 44.9805 209.074 44.0669 210.53C43.2386 211.858 42.5261 213.124 42.0084 214.202C41.9292 214.361 41.8622 214.507 41.7952 214.659C41.7648 214.732 41.7282 214.805 41.6917 214.872C41.6856 214.891 41.6795 214.903 41.6734 214.921L41.6308 215.006C41.5881 215.104 41.5394 215.195 41.5029 215.286C41.5029 215.292 41.5029 215.305 41.4907 215.311L41.1923 216.023C41.174 216.06 41.1618 216.096 41.1497 216.139L40.9182 216.76C40.8939 216.815 40.8756 216.87 40.8573 216.931L40.7599 217.247C40.3762 218.441 41.0339 219.72 42.2277 220.11C43.4214 220.494 44.7003 219.842 45.0901 218.648L45.1449 218.484C45.1449 218.484 45.1571 218.453 45.1632 218.435L45.1937 218.325L45.2789 218.112C45.2789 218.112 45.2911 218.082 45.2972 218.064L45.4129 217.747L45.5895 217.327C45.5895 217.327 45.6017 217.302 45.6017 217.29L45.7052 217.046C45.7052 217.046 45.7235 217.004 45.7357 216.98C45.7601 216.931 45.7783 216.888 45.8027 216.839C45.8514 216.736 45.9001 216.638 45.9428 216.535C45.9854 216.437 46.028 216.34 46.0828 216.236C46.0828 216.224 46.095 216.212 46.1011 216.206C46.4178 215.554 46.9903 214.464 47.9343 212.954C48.7748 211.614 49.7675 210.189 50.8028 208.825C52.7152 206.297 55.2792 203.337 57.6545 200.907C58.7873 199.744 59.6887 198.873 60.1211 198.465L60.992 197.655C61.9117 196.808 61.9786 195.377 61.1321 194.451L32.3917 162.916C31.9837 162.471 31.4173 162.203 30.8143 162.179C30.2114 162.154 29.6206 162.367 29.176 162.776L28.7558 163.165C28.7558 163.165 28.7436 163.177 28.7375 163.184L27.6108 164.237C26.7582 165.053 25.4122 166.351 23.8044 168.007C21.1551 170.729 17.1537 175.072 13.1889 180.303C11.2948 182.788 9.52248 185.346 7.92681 187.892C6.31287 190.468 4.84507 193.099 3.67572 195.505C3.46256 195.937 3.25552 196.382 3.06063 196.802L2.73782 197.509C2.64646 197.71 2.5551 197.905 2.46375 198.106L2.03135 199.123C1.84255 199.567 1.66591 199.987 1.50756 200.383C1.50756 200.396 1.4954 200.414 1.48931 200.432L0.624486 202.759C0.624486 202.759 0.606191 202.807 0.600101 202.832L0.11288 204.312C-0.276902 205.505 0.37478 206.784 1.57458 207.174L1.56239 207.15Z" fill="#2563EB"/>
<path d="M16.6057 196.65C16.2464 196.522 15.9663 196.193 15.9297 195.785C15.881 195.231 16.289 194.738 16.8493 194.689C22.4037 194.195 29.0909 195.353 36.7221 198.13C42.374 200.188 46.351 202.35 46.5215 202.442C47.0088 202.71 47.1854 203.319 46.9235 203.812C46.6555 204.299 46.0404 204.482 45.5532 204.214C45.3948 204.129 29.6026 195.584 17.026 196.699C16.8798 196.711 16.7336 196.699 16.6057 196.644V196.65Z" fill="black"/>
<path d="M47.8132 200.858C47.6366 200.797 47.4782 200.682 47.3503 200.529C47.2468 200.401 37.1856 187.667 24.6821 184.207C24.1461 184.061 23.8294 183.501 23.9756 182.965C24.1278 182.429 24.6821 182.112 25.218 182.258C38.3793 185.906 48.5136 198.745 48.9399 199.287C49.281 199.725 49.2018 200.365 48.7633 200.706C48.4832 200.925 48.1238 200.974 47.8071 200.864L47.8132 200.858Z" fill="black"/>
</svg>
