<svg width="102" height="124" viewBox="0 0 102 124" fill="none" xmlns="http://www.w3.org/2000/svg">
<path d="M38.4144 35.2378H21.3903C21.2185 35.2494 21.0462 35.2256 20.884 35.1678C20.7218 35.1101 20.5732 35.0196 20.4474 34.902C20.3217 34.7844 20.2212 34.6423 20.1526 34.4843C20.084 34.3264 20.0488 34.156 20.0488 33.9838C20.0488 33.8117 20.084 33.6413 20.1526 33.4833C20.2212 33.3254 20.3217 33.1833 20.4474 33.0657C20.5732 32.9481 20.7218 32.8576 20.884 32.7999C21.0462 32.7421 21.2185 32.7183 21.3903 32.7299H38.4144C38.5862 32.7183 38.7588 32.7421 38.921 32.7999C39.0832 32.8576 39.2318 32.9481 39.3576 33.0657C39.4833 33.1833 39.5836 33.3254 39.6521 33.4833C39.7207 33.6413 39.7562 33.8117 39.7562 33.9838C39.7562 34.156 39.7207 34.3264 39.6521 34.4843C39.5836 34.6423 39.4833 34.7844 39.3576 34.902C39.2318 35.0196 39.0832 35.1101 38.921 35.1678C38.7588 35.2256 38.5862 35.2494 38.4144 35.2378Z" fill="black"/>
<path d="M38.4144 42.5504H21.3903C21.2185 42.562 21.0462 42.5381 20.884 42.4803C20.7218 42.4226 20.5732 42.3321 20.4474 42.2146C20.3217 42.097 20.2212 41.9548 20.1526 41.7968C20.084 41.6389 20.0488 41.4686 20.0488 41.2964C20.0488 41.1242 20.084 40.9539 20.1526 40.7959C20.2212 40.638 20.3217 40.4958 20.4474 40.3782C20.5732 40.2606 20.7218 40.1702 20.884 40.1124C21.0462 40.0547 21.2185 40.0308 21.3903 40.0424H38.4144C38.5862 40.0308 38.7588 40.0547 38.921 40.1124C39.0832 40.1702 39.2318 40.2606 39.3576 40.3782C39.4833 40.4958 39.5836 40.638 39.6521 40.7959C39.7207 40.9539 39.7562 41.1242 39.7562 41.2964C39.7562 41.4686 39.7207 41.6389 39.6521 41.7968C39.5836 41.9548 39.4833 42.097 39.3576 42.2146C39.2318 42.3321 39.0832 42.4226 38.921 42.4803C38.7588 42.5381 38.5862 42.562 38.4144 42.5504Z" fill="black"/>
<path d="M38.4144 49.8682H21.3903C21.2185 49.8798 21.0462 49.856 20.884 49.7982C20.7218 49.7404 20.5732 49.6499 20.4474 49.5324C20.3217 49.4148 20.2212 49.2727 20.1526 49.1147C20.084 48.9568 20.0488 48.7864 20.0488 48.6142C20.0488 48.442 20.084 48.2717 20.1526 48.1138C20.2212 47.9558 20.3217 47.8136 20.4474 47.6961C20.5732 47.5785 20.7218 47.488 20.884 47.4302C21.0462 47.3725 21.2185 47.3487 21.3903 47.3603H38.4144C38.5862 47.3487 38.7588 47.3725 38.921 47.4302C39.0832 47.488 39.2318 47.5785 39.3576 47.6961C39.4833 47.8136 39.5836 47.9558 39.6521 48.1138C39.7207 48.2717 39.7562 48.442 39.7562 48.6142C39.7562 48.7864 39.7207 48.9568 39.6521 49.1147C39.5836 49.2727 39.4833 49.4148 39.3576 49.5324C39.2318 49.6499 39.0832 49.7404 38.921 49.7982C38.7588 49.856 38.5862 49.8798 38.4144 49.8682Z" fill="black"/>
<path d="M93.4402 75.1705H18.0307C15.9696 75.1675 13.9935 74.3474 12.536 72.8899C11.0786 71.4324 10.2584 69.4565 10.2554 67.3953V16.551C10.2584 14.4899 11.0786 12.514 12.536 11.0565C13.9935 9.59901 15.9696 8.7789 18.0307 8.77588H93.4402C95.5019 8.77739 97.4785 9.59708 98.9363 11.0549C100.394 12.5127 101.214 14.4894 101.215 16.551V67.3953C101.214 69.457 100.394 71.4338 98.9363 72.8916C97.4785 74.3494 95.5019 75.169 93.4402 75.1705ZM18.0307 11.1124C16.5933 11.1139 15.2152 11.6856 14.1988 12.702C13.1825 13.7184 12.6106 15.0965 12.6091 16.5339V67.3782C12.6106 68.8156 13.1825 70.1937 14.1988 71.2101C15.2152 72.2265 16.5933 72.7981 18.0307 72.7996H93.4402C94.8782 72.7981 96.2568 72.2267 97.2741 71.2104C98.2914 70.1942 98.8644 68.8161 98.8674 67.3782V16.5339C98.8644 15.096 98.2914 13.7179 97.2741 12.7016C96.2568 11.6854 94.8782 11.1139 93.4402 11.1124H18.0307Z" fill="black"/>
<path d="M95.103 22.8237H16.0204C15.8961 22.8237 15.7769 22.8731 15.689 22.961C15.6011 23.0488 15.5518 23.168 15.5518 23.2922C15.5518 23.4165 15.6011 23.5356 15.689 23.6235C15.7769 23.7113 15.8961 23.7606 16.0204 23.7606H95.103C95.2273 23.7606 95.3466 23.7113 95.4344 23.6235C95.5223 23.5356 95.5717 23.4165 95.5717 23.2922C95.5717 23.168 95.5223 23.0488 95.4344 22.961C95.3466 22.8731 95.2273 22.8237 95.103 22.8237Z" fill="black"/>
<path d="M25.8062 17.271C25.8062 17.8811 25.6252 18.4776 25.2862 18.9849C24.9472 19.4922 24.4655 19.8876 23.9018 20.1211C23.3381 20.3546 22.7177 20.4157 22.1193 20.2967C21.5209 20.1776 20.9713 19.8838 20.5399 19.4524C20.1085 19.0209 19.8146 18.4712 19.6955 17.8728C19.5765 17.2744 19.6375 16.6541 19.871 16.0904C20.1045 15.5267 20.5001 15.0449 21.0074 14.7059C21.5147 14.367 22.1111 14.186 22.7213 14.186C23.1266 14.1853 23.528 14.2646 23.9026 14.4194C24.2772 14.5741 24.6177 14.8013 24.9043 15.0879C25.1909 15.3746 25.4182 15.715 25.573 16.0896C25.7277 16.4642 25.8069 16.8657 25.8062 17.271Z" fill="black"/>
<path d="M33.9928 17.271C33.9928 17.8814 33.8118 18.478 33.4725 18.9855C33.1333 19.4929 32.651 19.8883 32.087 20.1216C31.523 20.3549 30.9025 20.4157 30.304 20.2962C29.7054 20.1767 29.1555 19.8823 28.7243 19.4503C28.2931 19.0183 27.9997 18.4681 27.8813 17.8693C27.7629 17.2705 27.8249 16.65 28.0593 16.0864C28.2937 15.5228 28.6899 15.0415 29.1979 14.7032C29.706 14.3649 30.3031 14.1849 30.9135 14.186C31.3183 14.186 31.7192 14.2659 32.0931 14.421C32.4671 14.5761 32.8069 14.8034 33.0929 15.09C33.3789 15.3765 33.6054 15.7167 33.7598 16.0909C33.9143 16.4651 33.9935 16.8661 33.9928 17.271Z" fill="black"/>
<path d="M42.1909 17.271C42.1909 17.8811 42.0099 18.4776 41.671 18.9849C41.332 19.4922 40.8502 19.8876 40.2865 20.1211C39.7228 20.3545 39.1025 20.4157 38.5041 20.2967C37.9057 20.1776 37.3558 19.8838 36.9244 19.4523C36.493 19.0209 36.1993 18.4712 36.0803 17.8728C35.9613 17.2744 36.0223 16.6541 36.2558 16.0904C36.4892 15.5267 36.8846 15.0449 37.3919 14.7059C37.8992 14.3669 38.4956 14.186 39.1058 14.186C39.9239 14.186 40.7086 14.5111 41.2871 15.0896C41.8657 15.6682 42.1909 16.4528 42.1909 17.271Z" fill="black"/>
<path d="M62.2254 94.9257H57.0839C56.9859 94.9169 56.8873 94.9285 56.794 94.96C56.7008 94.9914 56.615 95.042 56.5424 95.1084C56.4698 95.1747 56.4117 95.2555 56.372 95.3455C56.3323 95.4356 56.312 95.5329 56.312 95.6312C56.312 95.7296 56.3323 95.8269 56.372 95.917C56.4117 96.007 56.4698 96.0878 56.5424 96.1541C56.615 96.2205 56.7008 96.271 56.794 96.3025C56.8873 96.3339 56.9859 96.3456 57.0839 96.3368H62.2254C62.3234 96.3456 62.422 96.3339 62.5152 96.3025C62.6085 96.271 62.6942 96.2205 62.7669 96.1541C62.8395 96.0878 62.8976 96.007 62.9373 95.917C62.977 95.8269 62.9973 95.7296 62.9973 95.6312C62.9973 95.5329 62.977 95.4356 62.9373 95.3455C62.8976 95.2555 62.8395 95.1747 62.7669 95.1084C62.6942 95.042 62.6085 94.9914 62.5152 94.96C62.422 94.9285 62.3234 94.9169 62.2254 94.9257Z" fill="black"/>
<path d="M69.3949 94.9257H66.6185C66.5205 94.9169 66.4219 94.9285 66.3287 94.96C66.2355 94.9914 66.1497 95.042 66.0771 95.1084C66.0045 95.1747 65.9463 95.2555 65.9067 95.3455C65.867 95.4356 65.8467 95.5329 65.8467 95.6312C65.8467 95.7296 65.867 95.8269 65.9067 95.917C65.9463 96.007 66.0045 96.0878 66.0771 96.1541C66.1497 96.2205 66.2355 96.271 66.3287 96.3025C66.4219 96.3339 66.5205 96.3456 66.6185 96.3368H69.3949C69.5711 96.3209 69.735 96.2397 69.8543 96.1091C69.9736 95.9786 70.0398 95.8081 70.0398 95.6312C70.0398 95.4544 69.9736 95.2839 69.8543 95.1533C69.735 95.0228 69.5711 94.9416 69.3949 94.9257Z" fill="black"/>
<path d="M74.48 94.9253H73.223C73.0469 94.9412 72.883 95.0224 72.7636 95.1529C72.6443 95.2835 72.5781 95.4539 72.5781 95.6308C72.5781 95.8077 72.6443 95.9782 72.7636 96.1087C72.883 96.2393 73.0469 96.3205 73.223 96.3363H74.4627C74.6389 96.3205 74.8028 96.2393 74.9221 96.1087C75.0414 95.9782 75.1076 95.8077 75.1076 95.6308C75.1076 95.4539 75.0414 95.2835 74.9221 95.1529C74.8028 95.0224 74.6389 94.9412 74.4627 94.9253H74.48Z" fill="black"/>
<path d="M78.3988 94.9257H77.7475C77.5713 94.9416 77.4074 95.0228 77.288 95.1533C77.1687 95.2839 77.1025 95.4544 77.1025 95.6312C77.1025 95.8081 77.1687 95.9786 77.288 96.1091C77.4074 96.2397 77.5713 96.3209 77.7475 96.3368H78.3988C78.4968 96.3456 78.5954 96.3339 78.6886 96.3025C78.7819 96.271 78.8676 96.2205 78.9402 96.1541C79.0129 96.0878 79.071 96.007 79.1107 95.917C79.1504 95.8269 79.1707 95.7296 79.1707 95.6312C79.1707 95.5329 79.1504 95.4356 79.1107 95.3455C79.071 95.2555 79.0129 95.1747 78.9402 95.1084C78.8676 95.042 78.7819 94.9914 78.6886 94.96C78.5954 94.9285 78.4968 94.9169 78.3988 94.9257Z" fill="black"/>
<path d="M81.792 94.9257H81.472C81.3741 94.9169 81.2754 94.9285 81.1822 94.96C81.089 94.9914 81.0032 95.042 80.9306 95.1084C80.858 95.1747 80.7999 95.2555 80.7602 95.3455C80.7205 95.4356 80.7002 95.5329 80.7002 95.6312C80.7002 95.7296 80.7205 95.8269 80.7602 95.917C80.7999 96.007 80.858 96.0878 80.9306 96.1541C81.0032 96.2205 81.089 96.271 81.1822 96.3025C81.2754 96.3339 81.3741 96.3456 81.472 96.3368H81.792C81.89 96.3456 81.9886 96.3339 82.0818 96.3025C82.175 96.271 82.2608 96.2205 82.3334 96.1541C82.4061 96.0878 82.4642 96.007 82.5039 95.917C82.5436 95.8269 82.5638 95.7296 82.5638 95.6312C82.5638 95.5329 82.5436 95.4356 82.5039 95.3455C82.4642 95.2555 82.4061 95.1747 82.3334 95.1084C82.2608 95.042 82.175 94.9914 82.0818 94.96C81.9886 94.9285 81.89 94.9169 81.792 94.9257Z" fill="black"/>
<path d="M88.2456 39.9754C89.7121 43.5128 90.0968 47.4057 89.3508 51.1617C88.6048 54.9177 86.7615 58.368 84.0544 61.0765C81.3474 63.7849 77.8982 65.6297 74.1426 66.3777C70.387 67.1257 66.4938 66.7432 62.9557 65.2785C59.4175 63.8139 56.3932 61.3329 54.2651 58.1493C52.137 54.9658 51.0007 51.2227 51 47.3933C50.9993 43.564 52.1342 39.8205 54.2612 36.6361C56.3881 33.4518 59.4116 30.9697 62.9493 29.5038C67.6926 27.5399 73.0215 27.5397 77.765 29.5033C82.5084 31.4669 86.2782 35.2336 88.2456 39.9754Z" fill="#EC4899"/>
<path d="M67.4411 59.5385L58.877 50.8822L62.7798 46.9374L67.4411 51.6628L81.0665 37.877L84.9693 41.8218L67.4411 59.5385Z" fill="white"/>
<path d="M44.8014 61.2595C44.8114 60.8699 44.7424 60.4823 44.5988 60.12C44.4552 59.7577 44.2398 59.4282 43.9656 59.1513C43.6914 58.8744 43.3641 58.6557 43.0033 58.5085C42.6424 58.3614 42.2557 58.2886 41.866 58.2948C41.4763 58.301 41.0917 58.3859 40.7357 58.5444C40.3797 58.7029 40.0596 58.9318 39.7943 59.2173C39.5289 59.5027 39.3241 59.8389 39.192 60.2056C39.0599 60.5722 39.0034 60.9619 39.0258 61.3509L39.2598 76.9412L45.0357 76.8556L44.8014 61.2595Z" fill="white"/>
<path d="M39.1686 77.8268C38.9543 77.8044 38.7557 77.7042 38.6104 77.5452C38.4651 77.3863 38.383 77.1795 38.38 76.9641L38.1401 61.368C38.1326 60.8729 38.2228 60.3811 38.4054 59.9208C38.5879 59.4605 38.8592 59.0406 39.204 58.6852C39.5488 58.3298 39.9603 58.0458 40.4149 57.8493C40.8695 57.6529 41.3583 57.548 41.8534 57.5405C42.3486 57.533 42.8406 57.6231 43.3009 57.8056C43.7612 57.9882 44.1809 58.2596 44.5363 58.6044C44.8918 58.9493 45.1759 59.3607 45.3723 59.8153C45.5688 60.2699 45.6736 60.7587 45.6811 61.2538L45.921 76.8499C45.9032 77.0717 45.8026 77.2787 45.639 77.4296C45.4755 77.5805 45.261 77.6643 45.0384 77.6643C44.8159 77.6643 44.6014 77.5805 44.4379 77.4296C44.2743 77.2787 44.1737 77.0717 44.1559 76.8499L43.916 61.2595C43.913 60.996 43.8579 60.7356 43.7539 60.4934C43.6499 60.2512 43.4991 60.032 43.3101 59.8483C43.1211 59.6646 42.8977 59.52 42.6526 59.423C42.4075 59.326 42.1457 59.2784 41.8822 59.2829C41.6188 59.2866 41.3586 59.3422 41.1167 59.4464C40.8749 59.5506 40.6559 59.7015 40.4724 59.8903C40.2888 60.0792 40.1443 60.3024 40.047 60.5471C39.9497 60.7918 39.9018 61.0533 39.9055 61.3167L40.1454 76.9127C40.147 77.1462 40.0568 77.3709 39.8944 77.5386C39.732 77.7063 39.5104 77.8036 39.2771 77.8096L39.1686 77.8268Z" fill="black"/>
<path d="M65.0816 79.8609C64.7249 79.3001 64.1729 78.8915 63.5323 78.7142C62.8918 78.5369 62.2083 78.6035 61.614 78.9011C62.1057 78.4648 62.4176 77.8613 62.4893 77.2078C62.5611 76.5544 62.3876 75.8975 62.0023 75.3648C61.6456 74.8041 61.0936 74.3955 60.453 74.2182C59.8125 74.0409 59.129 74.1075 58.5347 74.4051C59.028 73.9713 59.3419 73.369 59.4148 72.7161C59.4877 72.0632 59.3143 71.4065 58.9289 70.8746C58.5554 70.282 57.9644 69.8597 57.2828 69.6984C56.6012 69.5371 55.8836 69.6496 55.2841 70.0119L66.1843 62.5852C66.7782 62.1807 67.1871 61.5568 67.321 60.8508C67.4549 60.1448 67.3029 59.4144 66.8984 58.8205C66.4938 58.2266 65.8699 57.8176 65.1639 57.6837C64.4579 57.5498 63.7274 57.7018 63.1334 58.1064L33.3354 78.4498L45.0125 96.8794L64.5159 83.5228C64.7939 83.3198 65.029 83.064 65.208 82.7699C65.3869 82.4759 65.5061 82.1494 65.5586 81.8092C65.6111 81.469 65.5961 81.1218 65.5143 80.7875C65.4324 80.4532 65.2854 80.1383 65.0816 79.8609Z" fill="white"/>
<path d="M45.0122 97.822H44.8236C44.6997 97.7973 44.5821 97.7475 44.478 97.6758C44.3739 97.6041 44.2854 97.512 44.2181 97.405L32.541 78.9697C32.4096 78.7641 32.3637 78.5155 32.4127 78.2765C32.4618 78.0375 32.602 77.8271 32.8038 77.69L62.6021 57.3466C63.1756 56.966 63.8503 56.767 64.5385 56.7753C65.1414 56.7621 65.7384 56.8968 66.2772 57.1677C66.816 57.4386 67.2803 57.8374 67.6293 58.3292C68.1395 59.1308 68.329 60.0953 68.1595 61.0303C67.9901 61.9653 67.4742 62.802 66.7151 63.3736L58.3116 69.0864C58.8724 69.382 59.3513 69.8118 59.7055 70.3376C59.9883 70.7506 60.1847 71.2165 60.2829 71.7074C60.3811 72.1983 60.379 72.704 60.2768 73.194C60.7797 73.2831 61.2594 73.4727 61.6874 73.7515C62.1154 74.0302 62.483 74.3924 62.7678 74.8164C63.0488 75.2303 63.244 75.6963 63.3421 76.1869C63.4402 76.6775 63.4393 77.1827 63.3391 77.6728C63.8406 77.7617 64.3191 77.9506 64.7461 78.2284C65.173 78.5061 65.5395 78.8671 65.8239 79.2896C66.3632 80.0695 66.586 81.0253 66.4468 81.9632C66.3787 82.4225 66.216 82.8627 65.9692 83.256C65.7224 83.6494 65.3967 83.9872 65.0127 84.2483L45.5093 97.6049C45.369 97.7253 45.1959 97.8009 45.0122 97.822ZM34.6147 78.724L45.2864 95.5369L63.9845 82.7344C64.1556 82.6162 64.3002 82.4638 64.4094 82.2868C64.5185 82.1098 64.5898 81.9121 64.6186 81.7061C64.6855 81.2405 64.5733 80.7668 64.3045 80.3807C64.1369 80.1259 63.91 79.9154 63.6434 79.7672C63.3768 79.619 63.0783 79.5374 62.7733 79.5295C62.5279 79.5284 62.2862 79.5894 62.0707 79.7066C61.8657 79.8166 61.6272 79.8469 61.4012 79.7917C61.1752 79.7364 60.9778 79.5995 60.8467 79.4074C60.7155 79.2153 60.6599 78.9815 60.6907 78.7509C60.7216 78.5203 60.8367 78.3093 61.0137 78.1584C61.3253 77.8711 61.5195 77.4785 61.5585 77.0565C61.5976 76.6345 61.4787 76.2129 61.2252 75.8733C61.0562 75.6202 60.8291 75.4113 60.5627 75.2642C60.2963 75.1171 59.9983 75.036 59.694 75.0278C59.4483 75.0238 59.2059 75.085 58.9914 75.2049C58.7864 75.3149 58.5482 75.3452 58.3222 75.2899C58.0962 75.2347 57.8985 75.0978 57.7674 74.9057C57.6362 74.7136 57.5808 74.4798 57.6117 74.2492C57.6426 74.0186 57.7577 73.8076 57.9347 73.6567C58.2463 73.3694 58.4402 72.9768 58.4792 72.5548C58.5183 72.1328 58.3994 71.7112 58.1459 71.3716C57.9769 71.1184 57.7498 70.9096 57.4834 70.7625C57.217 70.6154 56.9192 70.5343 56.615 70.5261C56.3301 70.5221 56.0507 70.6059 55.815 70.766C55.7126 70.8358 55.5977 70.8847 55.4764 70.91C55.3551 70.9352 55.2299 70.9364 55.1082 70.9133C54.9864 70.8902 54.8704 70.8434 54.7667 70.7755C54.6631 70.7076 54.5737 70.6199 54.504 70.5175C54.4342 70.4151 54.3853 70.3 54.36 70.1786C54.3347 70.0573 54.3336 69.9323 54.3567 69.8105C54.3797 69.6888 54.4266 69.5727 54.4945 69.4691C54.5624 69.3654 54.6501 69.2762 54.7525 69.2064L65.6526 61.7798C66.0092 61.4974 66.2427 61.0879 66.304 60.6372C66.3548 60.4149 66.3608 60.1847 66.3216 59.96C66.2823 59.7354 66.1987 59.5208 66.0755 59.3289C65.8959 59.0933 65.6629 58.9037 65.3957 58.7756C65.1286 58.6475 64.8347 58.5846 64.5385 58.5919C64.2288 58.5838 63.9234 58.6652 63.6587 58.8262L34.6147 78.724Z" fill="black"/>
<path d="M35.4835 76.4844L35.358 76.5701L35.0093 76.8043L34.438 77.1756L33.7183 77.6783L32.8385 78.301L31.8274 79.038C31.0961 79.5636 30.3135 80.1806 29.4451 80.8204C25.2742 84.0423 21.27 87.4744 17.4482 91.1035C15.3687 93.0744 13.3521 95.1025 11.5069 97.0678C10.57 98.0332 9.71286 99.0158 8.8845 99.9242L7.67917 101.261L6.59378 102.552L4.69136 104.837C4.12008 105.523 3.66878 106.134 3.27459 106.631L2.04639 108.196L20.7615 122.478L21.7786 121.187C22.1042 120.776 22.4926 120.273 22.9496 119.702C23.4066 119.131 23.9493 118.508 24.532 117.822L25.4347 116.743C25.7661 116.383 26.1031 116.006 26.4459 115.6C27.1429 114.835 27.8512 114.006 28.651 113.195C30.1992 111.544 31.9072 109.824 33.6667 108.156C36.8832 105.099 40.2545 102.208 43.7671 99.4957C44.4812 98.9587 45.1326 98.4502 45.7153 98.0332L46.5265 97.4619L47.2121 96.982L47.7547 96.5993L48.1547 96.3308L48.3887 96.1708L48.4688 96.1194L35.4835 76.4844Z" fill="#2563EB"/>
<path d="M20.1902 123.53C20.1362 123.499 20.0847 123.465 20.036 123.427C19.9063 123.325 19.7979 123.199 19.7171 123.056C19.6363 122.912 19.5847 122.754 19.5651 122.591C19.5455 122.428 19.5582 122.262 19.6028 122.103C19.6473 121.945 19.7226 121.797 19.8245 121.667L20.8357 120.371L21.2187 119.885L22.0126 118.874L23.5951 116.994L23.915 116.611L24.4863 115.909L25.4975 114.766C25.6993 114.549 25.8992 114.326 26.0972 114.098C26.6114 113.527 27.1427 112.955 27.7254 112.333C29.3707 110.584 31.0733 108.876 32.7872 107.248C36.0355 104.161 39.4388 101.242 42.9844 98.5018L43.6187 98.0276C44.0929 97.662 44.544 97.3249 44.961 97.0222L45.7725 96.4509L46.4523 95.9653L46.7036 95.7939L35.0609 78.2612L34.3867 78.7296L33.5127 79.3467L32.5071 80.0778C31.9701 80.4663 31.3931 80.9062 30.7933 81.369L30.1478 81.8546C26.0219 85.0375 22.0632 88.4316 18.2878 92.0234C16.2826 93.9201 14.2889 95.9081 12.3923 97.9419C11.7181 98.6332 11.0784 99.3473 10.4614 100.039L9.80446 100.77L8.61029 102.095L7.89618 102.941L7.53634 103.369L5.65121 105.614C5.28559 106.066 4.95426 106.488 4.6629 106.86L4.25146 107.391L3.02325 108.951C2.81795 109.212 2.51723 109.381 2.18725 109.421C1.85727 109.46 1.52501 109.367 1.26365 109.162C1.00229 108.957 0.833267 108.656 0.793627 108.326C0.753986 107.996 0.84691 107.664 1.05221 107.402L2.27484 105.837L2.686 105.317C2.98879 104.934 3.326 104.5 3.70305 104.032L5.60547 101.747L5.95945 101.318L6.70229 100.444L7.90204 99.1016C8.12484 98.8617 8.33616 98.6217 8.55896 98.3761C9.19309 97.6677 9.84435 96.9365 10.5585 96.2053C12.4951 94.1486 14.5059 92.1263 16.5396 90.1953C20.3864 86.5432 24.4174 83.0901 28.6167 79.8494L29.2566 79.3637C29.8793 78.8896 30.4677 78.444 31.0276 78.0441L32.0273 77.3129L32.9072 76.6902L33.6497 76.1703L34.6838 75.4733C34.9588 75.2975 35.2914 75.2356 35.6113 75.3006C35.9311 75.3656 36.2131 75.5525 36.3976 75.8218L49.4228 95.4454C49.5148 95.5823 49.579 95.7361 49.6113 95.8979C49.6437 96.0597 49.6436 96.2262 49.6113 96.388C49.5431 96.7128 49.3504 96.9979 49.0744 97.1821L48.9943 97.2335L48.7887 97.3763L48.3887 97.6505L47.8632 98.0162L47.1834 98.4961L46.3836 99.0674C45.9895 99.3473 45.5551 99.6786 45.0924 100.027L44.4584 100.507C40.9844 103.19 37.6513 106.05 34.4723 109.076C32.7585 110.676 31.1133 112.355 29.5023 114.064C28.9596 114.635 28.4455 115.206 27.9427 115.777L27.3371 116.457L26.3374 117.566C26.1431 117.788 25.9603 118.011 25.7661 118.228L25.4347 118.617L23.8637 120.485L23.098 121.462L22.7097 121.953L21.6985 123.244C21.514 123.452 21.2659 123.592 20.993 123.644C20.7202 123.696 20.4379 123.655 20.1902 123.53Z" fill="#2563EB"/>
<path d="M12.575 113.766L12.5292 113.732C12.4118 113.644 12.3328 113.515 12.3083 113.37C12.2839 113.225 12.3158 113.077 12.3979 112.955C14.2133 110.542 16.1869 108.252 18.3051 106.1C24.2504 99.9846 30.6937 94.3743 37.5687 89.3269C37.6887 89.2413 37.8373 89.2054 37.9832 89.2267C38.129 89.248 38.2609 89.3248 38.3514 89.4411C38.4364 89.5618 38.4714 89.7107 38.449 89.8566C38.4267 90.0025 38.3487 90.1341 38.2314 90.2238C31.4086 95.2347 25.0129 100.803 19.1104 106.871C17.0316 108.984 15.093 111.23 13.3064 113.595C13.2258 113.707 13.1072 113.786 12.9728 113.818C12.8383 113.849 12.697 113.831 12.575 113.766Z" fill="black"/>
<path d="M12.4839 101.929C12.3917 101.875 12.3164 101.796 12.2669 101.701C12.2174 101.606 12.1955 101.499 12.2039 101.392C12.2211 101.247 12.2937 101.114 12.4064 101.02C12.5191 100.926 12.6633 100.88 12.8095 100.889C15.8773 101.164 19.3906 102.449 23.2639 104.706C24.9714 105.695 26.6091 106.8 28.1655 108.013C28.2476 108.115 28.2923 108.242 28.2922 108.373C28.2921 108.503 28.2472 108.63 28.165 108.731C28.0828 108.833 27.9683 108.903 27.8406 108.931C27.7128 108.958 27.5794 108.941 27.4629 108.882C27.3829 108.819 19.6476 102.626 12.7065 102.026C12.6262 102.01 12.5504 101.977 12.4839 101.929Z" fill="black"/>
<path d="M29.0225 107.282C28.9285 107.23 28.8528 107.15 28.8055 107.054C28.7598 106.974 24.5437 99.0557 18.0939 95.965C17.9627 95.8976 17.8626 95.7821 17.8147 95.6426C17.7668 95.5031 17.7747 95.3504 17.8367 95.2166C17.9041 95.0869 18.0188 94.9879 18.1569 94.9401C18.2951 94.8923 18.4464 94.8993 18.5795 94.9596C25.3664 98.233 29.6111 106.197 29.7882 106.54C29.8336 106.646 29.8456 106.763 29.8228 106.876C29.8 106.99 29.7434 107.093 29.6604 107.174C29.5775 107.254 29.4722 107.308 29.3583 107.327C29.2445 107.346 29.1273 107.331 29.0225 107.282Z" fill="black"/>
<path d="M11.0207 80.1978C10.3482 80.1966 9.69031 80.395 9.13058 80.7679C8.57084 81.1407 8.1343 81.6711 7.87615 82.2921C7.618 82.9131 7.54982 83.5968 7.68033 84.2565C7.81084 84.9163 8.13435 85.5225 8.6095 85.9984C9.08465 86.4744 9.69005 86.7987 10.3496 86.9303C11.0091 87.0619 11.693 86.9949 12.3145 86.7378C12.9359 86.4807 13.4671 86.0451 13.8409 85.486C14.2146 84.9269 14.4141 84.2694 14.4141 83.5969C14.4067 82.6987 14.047 81.8393 13.4124 81.2036C12.7778 80.5679 11.9189 80.2067 11.0207 80.1978ZM11.0207 85.5792C10.627 85.5803 10.2419 85.4646 9.91414 85.2466C9.58633 85.0286 9.33057 84.7181 9.17939 84.3546C9.02821 83.9911 8.98822 83.5909 9.06474 83.2047C9.14127 82.8186 9.33087 82.4638 9.60925 82.1854C9.88763 81.907 10.2423 81.7176 10.6285 81.641C11.0147 81.5645 11.4148 81.6044 11.7783 81.7555C12.1418 81.9067 12.4524 82.1624 12.6704 82.4902C12.8884 82.818 13.004 83.2032 13.0029 83.5969C13.0014 84.1222 12.7922 84.6255 12.4208 84.997C12.0493 85.3684 11.546 85.5777 11.0207 85.5792Z" fill="#2563EB"/>
<path d="M69.4063 3.14877C69.4063 3.14877 70.4918 4.69121 72.1428 4.77119C72.6807 4.7705 73.2106 4.63976 73.687 4.39008C74.1635 4.1404 74.5725 3.77918 74.8793 3.33727C75.8961 2.09758 76.5417 1.85768 76.9016 1.87481C77.4329 1.87481 77.9128 2.54892 78.3184 3.14877C78.3184 3.14877 79.4039 4.69121 81.0549 4.77119C81.5928 4.7705 82.1226 4.63976 82.5991 4.39008C83.0756 4.1404 83.4846 3.77918 83.7913 3.33727C84.4026 2.5946 85.0139 2.2233 85.6137 2.23473C85.9346 2.27675 86.2441 2.38157 86.5245 2.54331C86.8048 2.70506 87.0505 2.92049 87.2475 3.17729C87.303 3.25231 87.3728 3.3157 87.4528 3.36377C87.5328 3.41183 87.6216 3.44363 87.7139 3.45742C87.8062 3.47121 87.9003 3.46675 87.9909 3.44417C88.0815 3.42159 88.1666 3.38134 88.2417 3.32583C88.3167 3.27031 88.3799 3.20059 88.428 3.12059C88.4761 3.04059 88.5079 2.95187 88.5217 2.85957C88.5355 2.76726 88.5309 2.6732 88.5083 2.58264C88.4858 2.49209 88.4456 2.40682 88.3901 2.3318C88.0647 1.90576 87.6546 1.55182 87.1856 1.29223C86.7166 1.03265 86.1988 0.873055 85.665 0.823602C84.6082 0.823602 83.6142 1.3378 82.7115 2.44038C82.5393 2.70151 82.3099 2.92003 82.0407 3.07938C81.7715 3.23873 81.4696 3.33473 81.1578 3.36014C80.4928 3.25711 79.8953 2.89577 79.4953 2.35467C79.0325 1.66342 78.2555 0.526532 76.9758 0.46369C75.9704 0.417988 74.9306 1.06359 73.7995 2.44038C73.6278 2.7021 73.3988 2.921 73.1294 3.08042C72.8601 3.23985 72.5577 3.33556 72.2457 3.36014C71.5812 3.25593 70.9841 2.89484 70.5832 2.35467C70.1205 1.66342 69.3436 0.526532 68.0696 0.46369C67.0584 0.417988 66.0188 1.06359 64.8876 2.44038C64.716 2.7021 64.4867 2.921 64.2173 3.08042C63.948 3.23985 63.6457 3.33556 63.3336 3.36014C62.6691 3.25593 62.072 2.89484 61.6711 2.35467C61.2084 1.66342 60.4315 0.526532 59.1575 0.46369C58.1463 0.417988 57.1067 1.06359 55.9756 2.44038C55.8711 2.56745 55.8143 2.72712 55.8154 2.89165C55.8174 3.03621 55.8635 3.17673 55.9477 3.29431C56.0318 3.41188 56.1501 3.5009 56.2863 3.5494C56.4225 3.59791 56.5702 3.60357 56.7098 3.56565C56.8493 3.52773 56.9739 3.44804 57.0668 3.33727C58.0837 2.09758 58.729 1.85768 59.0889 1.87481C59.6202 1.87481 60.1003 2.54892 60.5059 3.14877C60.5059 3.14877 61.5911 4.69121 63.2421 4.77119C63.7801 4.7705 64.3099 4.63976 64.7864 4.39008C65.2629 4.1404 65.6719 3.77918 65.9786 3.33727C66.9955 2.09758 67.6411 1.85768 68.001 1.87481C68.5208 1.90338 69.0007 2.54892 69.4063 3.14877Z" fill="black"/>
</svg>
