<svg width="260" height="260" viewBox="0 0 260 260" fill="none" xmlns="http://www.w3.org/2000/svg">
<g clip-path="url(#clip0_7154_113616)">
<rect width="260" height="260" fill="white"/>
<path d="M161.503 230.044H154.753C154.507 230.044 154.27 230.143 154.095 230.317C153.921 230.492 153.823 230.728 153.823 230.975C153.823 231.222 153.921 231.459 154.095 231.633C154.27 231.808 154.507 231.906 154.753 231.906H161.503C161.75 231.906 161.987 231.808 162.161 231.633C162.336 231.459 162.434 231.222 162.434 230.975C162.434 230.728 162.336 230.492 162.161 230.317C161.987 230.143 161.75 230.044 161.503 230.044Z" fill="black"/>
<path d="M170.957 230.044H167.296C167.049 230.044 166.812 230.143 166.638 230.317C166.463 230.492 166.365 230.728 166.365 230.975C166.365 231.222 166.463 231.459 166.638 231.633C166.812 231.808 167.049 231.906 167.296 231.906H170.957C171.204 231.906 171.44 231.808 171.615 231.633C171.789 231.459 171.887 231.222 171.887 230.975C171.887 230.728 171.789 230.492 171.615 230.317C171.44 230.143 171.204 230.044 170.957 230.044Z" fill="black"/>
<path d="M177.662 230.044H176.031C175.784 230.044 175.548 230.143 175.373 230.317C175.198 230.492 175.101 230.728 175.101 230.975C175.101 231.222 175.198 231.459 175.373 231.633C175.548 231.808 175.784 231.906 176.031 231.906H177.662C177.909 231.906 178.146 231.808 178.32 231.633C178.495 231.459 178.593 231.222 178.593 230.975C178.593 230.728 178.495 230.492 178.32 230.317C178.146 230.143 177.909 230.044 177.662 230.044Z" fill="black"/>
<path d="M182.83 230.044H181.983C181.736 230.044 181.499 230.143 181.325 230.317C181.15 230.492 181.052 230.728 181.052 230.975C181.052 231.222 181.15 231.459 181.325 231.633C181.499 231.808 181.736 231.906 181.983 231.906H182.838C183.085 231.906 183.322 231.808 183.496 231.633C183.671 231.459 183.769 231.222 183.769 230.975C183.769 230.728 183.671 230.492 183.496 230.317C183.322 230.143 183.085 230.044 182.838 230.044H182.83Z" fill="black"/>
<path d="M187.301 230.044H186.858C186.611 230.044 186.374 230.143 186.2 230.317C186.025 230.492 185.927 230.728 185.927 230.975C185.927 231.222 186.025 231.459 186.2 231.633C186.374 231.808 186.611 231.906 186.858 231.906H187.301C187.548 231.906 187.785 231.808 187.959 231.633C188.134 231.459 188.232 231.222 188.232 230.975C188.232 230.728 188.134 230.492 187.959 230.317C187.785 230.143 187.548 230.044 187.301 230.044Z" fill="black"/>
<path d="M104.869 213.181H100.114V208.417C100.114 208.17 100.016 207.933 99.8411 207.758C99.6666 207.584 99.4299 207.486 99.183 207.486C98.9362 207.486 98.6995 207.584 98.525 207.758C98.3504 207.933 98.2523 208.17 98.2523 208.417V213.181H93.5015C93.2547 213.181 93.018 213.279 92.8435 213.453C92.6689 213.628 92.5708 213.865 92.5708 214.111C92.5708 214.358 92.6689 214.595 92.8435 214.769C93.018 214.944 93.2547 215.042 93.5015 215.042H98.2523V219.793C98.2523 220.04 98.3504 220.277 98.525 220.451C98.6995 220.626 98.9362 220.724 99.183 220.724C99.4299 220.724 99.6666 220.626 99.8411 220.451C100.016 220.277 100.114 220.04 100.114 219.793V215.029H104.869C105.116 215.029 105.353 214.931 105.527 214.756C105.702 214.582 105.8 214.345 105.8 214.098C105.8 213.851 105.702 213.615 105.527 213.44C105.353 213.265 105.116 213.167 104.869 213.167V213.181Z" fill="black"/>
<path d="M182.399 201.773H83.0155C80.2972 201.771 77.6908 200.691 75.7682 198.769C73.8456 196.847 72.7638 194.241 72.7603 191.523V109.299C72.7638 106.581 73.8456 103.975 75.7682 102.053C77.6908 100.131 80.2972 99.0507 83.0155 99.0483H182.399C185.117 99.0507 187.724 100.131 189.646 102.053C191.569 103.975 192.651 106.581 192.654 109.299V191.523C192.651 194.241 191.569 196.847 189.646 198.769C187.724 200.691 185.117 201.771 182.399 201.773ZM83.0155 102.151C81.1199 102.153 79.3026 102.907 77.9618 104.247C76.621 105.587 75.866 107.404 75.8625 109.299V191.523C75.866 193.418 76.621 195.235 77.9618 196.575C79.3026 197.915 81.1199 198.669 83.0155 198.671H182.399C184.295 198.669 186.112 197.915 187.453 196.575C188.794 195.235 189.549 193.418 189.552 191.523V109.299C189.549 107.404 188.794 105.587 187.453 104.247C186.112 102.907 184.295 102.153 182.399 102.151H83.0155Z" fill="black"/>
<path d="M99.8565 117.294H88.9941C87.0433 117.294 85.4619 118.875 85.4619 120.826V130.776C85.4619 132.726 87.0433 134.308 88.9941 134.308H99.8565C101.807 134.308 103.389 132.726 103.389 130.776V120.826C103.389 118.875 101.807 117.294 99.8565 117.294Z" fill="black"/>
<path d="M125.38 117.294H114.517C112.567 117.294 110.985 118.875 110.985 120.826V130.776C110.985 132.726 112.567 134.308 114.517 134.308H125.38C127.331 134.308 128.912 132.726 128.912 130.776V120.826C128.912 118.875 127.331 117.294 125.38 117.294Z" fill="black"/>
<path d="M150.903 117.294H140.04C138.09 117.294 136.508 118.875 136.508 120.826V130.776C136.508 132.726 138.09 134.308 140.04 134.308H150.903C152.854 134.308 154.435 132.726 154.435 130.776V120.826C154.435 118.875 152.854 117.294 150.903 117.294Z" fill="black"/>
<path d="M176.426 117.294H165.563C163.613 117.294 162.031 118.875 162.031 120.826V130.776C162.031 132.726 163.613 134.308 165.563 134.308H176.426C178.377 134.308 179.958 132.726 179.958 130.776V120.826C179.958 118.875 178.377 117.294 176.426 117.294Z" fill="black"/>
<path d="M99.8565 142.653H88.9941C87.0433 142.653 85.4619 144.235 85.4619 146.185V156.135C85.4619 158.086 87.0433 159.667 88.9941 159.667H99.8565C101.807 159.667 103.389 158.086 103.389 156.135V146.185C103.389 144.235 101.807 142.653 99.8565 142.653Z" fill="black"/>
<path d="M125.38 142.653H114.517C112.567 142.653 110.985 144.235 110.985 146.185V156.135C110.985 158.086 112.567 159.667 114.517 159.667H125.38C127.331 159.667 128.912 158.086 128.912 156.135V146.185C128.912 144.235 127.331 142.653 125.38 142.653Z" fill="black"/>
<path d="M150.903 142.653H140.04C138.09 142.653 136.508 144.235 136.508 146.185V156.135C136.508 158.086 138.09 159.667 140.04 159.667H150.903C152.854 159.667 154.435 158.086 154.435 156.135V146.185C154.435 144.235 152.854 142.653 150.903 142.653Z" fill="black"/>
<path d="M176.213 142.852H165.351C163.4 142.852 161.818 144.433 161.818 146.384V156.334C161.818 158.284 163.4 159.866 165.351 159.866H176.213C178.164 159.866 179.745 158.284 179.745 156.334V146.384C179.745 144.433 178.164 142.852 176.213 142.852Z" fill="black"/>
<path d="M99.8565 168.012H88.9941C87.0433 168.012 85.4619 169.593 85.4619 171.544V181.493C85.4619 183.444 87.0433 185.025 88.9941 185.025H99.8565C101.807 185.025 103.389 183.444 103.389 181.493V171.544C103.389 169.593 101.807 168.012 99.8565 168.012Z" fill="black"/>
<path d="M125.38 168.012H114.517C112.567 168.012 110.985 169.593 110.985 171.544V181.493C110.985 183.444 112.567 185.025 114.517 185.025H125.38C127.331 185.025 128.912 183.444 128.912 181.493V171.544C128.912 169.593 127.331 168.012 125.38 168.012Z" fill="black"/>
<path d="M93.7895 110.154C93.5015 110.154 93.2253 110.04 93.0217 109.836C92.8181 109.633 92.7036 109.357 92.7036 109.069C92.7036 108.781 92.8181 108.504 93.0217 108.301C93.2253 108.097 93.5015 107.983 93.7895 107.983C96.4486 107.983 98.6645 104.592 98.6645 100.577C98.6645 96.5619 96.4486 93.176 93.7895 93.176C91.1304 93.176 88.9145 96.5664 88.9145 100.577C88.9145 100.865 88.8 101.141 88.5964 101.345C88.3928 101.549 88.1166 101.663 87.8286 101.663C87.5406 101.663 87.2645 101.549 87.0608 101.345C86.8572 101.141 86.743 100.865 86.743 100.577C86.7021 98.2227 87.3792 95.9117 88.684 93.9516C90.0136 92.0503 91.8307 91 93.7852 91C95.7396 91 97.5521 92.0503 98.8861 93.9516C100.156 95.9288 100.832 98.2293 100.832 100.579C100.832 102.929 100.156 105.23 98.8861 107.207C97.5344 109.108 95.7218 110.154 93.7895 110.154Z" fill="black"/>
<path d="M119.734 110.155C119.446 110.155 119.17 110.04 118.966 109.837C118.762 109.633 118.648 109.357 118.648 109.069C118.648 108.781 118.762 108.505 118.966 108.301C119.17 108.097 119.446 107.983 119.734 107.983C122.393 107.983 124.609 104.593 124.609 100.578C124.609 96.5623 122.393 93.1764 119.734 93.1764C117.075 93.1764 114.859 96.5667 114.859 100.578C114.859 100.865 114.744 101.142 114.541 101.345C114.337 101.549 114.061 101.663 113.773 101.663C113.485 101.663 113.209 101.549 113.005 101.345C112.801 101.142 112.687 100.865 112.687 100.578C112.649 98.2289 113.322 95.9236 114.619 93.9653C115.949 92.064 117.766 91.0137 119.725 91.0137C121.684 91.0137 123.492 92.064 124.826 93.9653C126.093 95.9434 126.767 98.2436 126.767 100.593C126.767 102.942 126.093 105.243 124.826 107.221C123.483 109.109 121.71 110.155 119.734 110.155Z" fill="black"/>
<path d="M145.696 110.154C145.408 110.154 145.131 110.04 144.928 109.836C144.724 109.633 144.61 109.357 144.61 109.069C144.61 108.781 144.724 108.504 144.928 108.301C145.131 108.097 145.408 107.983 145.696 107.983C148.355 107.983 150.571 104.592 150.571 100.577C150.571 96.5619 148.355 93.176 145.696 93.176C143.036 93.176 140.821 96.5664 140.821 100.577C140.821 100.865 140.706 101.141 140.502 101.345C140.299 101.549 140.023 101.663 139.735 101.663C139.447 101.663 139.171 101.549 138.967 101.345C138.763 101.141 138.649 100.865 138.649 100.577C138.61 98.2231 139.287 95.9127 140.59 93.9516C141.92 92.0503 143.737 91 145.691 91C147.645 91 149.458 92.0503 150.796 93.9516C152.064 95.9298 152.738 98.2299 152.738 100.579C152.738 102.929 152.064 105.229 150.796 107.207C149.463 109.108 147.654 110.154 145.696 110.154Z" fill="black"/>
<path d="M171.661 110.155C171.373 110.155 171.097 110.04 170.893 109.837C170.69 109.633 170.575 109.357 170.575 109.069C170.575 108.781 170.69 108.505 170.893 108.301C171.097 108.097 171.373 107.983 171.661 107.983C174.32 107.983 176.536 104.593 176.536 100.578C176.536 96.5623 174.32 93.1764 171.661 93.1764C169.002 93.1764 166.786 96.5667 166.786 100.578C166.786 100.865 166.672 101.142 166.468 101.345C166.265 101.549 165.988 101.663 165.7 101.663C165.412 101.663 165.136 101.549 164.933 101.345C164.729 101.142 164.615 100.865 164.615 100.578C164.578 98.2272 165.256 95.9211 166.56 93.9653C167.89 92.064 169.707 91.0137 171.661 91.0137C173.616 91.0137 175.428 92.064 176.762 93.9653C178.03 95.9434 178.703 98.2436 178.703 100.593C178.703 102.942 178.03 105.243 176.762 107.221C175.428 109.109 173.616 110.155 171.661 110.155Z" fill="black"/>
<path d="M149.799 220.963C149.494 220.955 149.203 220.833 148.983 220.622L128.154 200.803C127.921 200.581 127.783 200.277 127.77 199.955C127.756 199.634 127.869 199.319 128.083 199.079L165.013 157.491C165.496 156.987 166.082 156.594 166.73 156.336C167.378 156.078 168.074 155.963 168.771 155.997C169.662 156.048 170.522 156.346 171.254 156.856C171.986 157.367 172.563 158.07 172.919 158.889C173.275 159.707 173.398 160.608 173.273 161.492C173.148 162.376 172.78 163.207 172.21 163.895L163.28 173.915C164.092 174.115 164.844 174.509 165.47 175.063C165.97 175.501 166.377 176.035 166.665 176.635C166.953 177.235 167.116 177.886 167.145 178.551C167.313 178.551 167.486 178.551 167.663 178.551C168.841 178.594 169.966 179.047 170.845 179.831C171.346 180.269 171.753 180.804 172.041 181.404C172.329 182.003 172.492 182.655 172.521 183.319C172.689 183.319 172.862 183.319 173.039 183.319C174.217 183.362 175.342 183.816 176.221 184.6C177.159 185.426 177.748 186.578 177.87 187.822C177.933 188.434 177.868 189.052 177.68 189.637C177.491 190.222 177.183 190.762 176.775 191.221L150.765 220.564C150.654 220.691 150.518 220.794 150.365 220.865C150.213 220.937 150.047 220.976 149.878 220.981L149.799 220.963Z" fill="black"/>
<path d="M130.716 199.832L149.773 217.936L174.932 189.573C175.114 189.367 175.25 189.125 175.333 188.864C175.417 188.602 175.445 188.326 175.415 188.053C175.349 187.436 175.053 186.866 174.586 186.457C174.142 186.057 173.571 185.825 172.973 185.801C172.708 185.787 172.443 185.824 172.193 185.913C171.943 186.001 171.712 186.138 171.515 186.315C171.289 186.526 170.993 186.645 170.684 186.648C170.376 186.652 170.077 186.541 169.846 186.336C169.615 186.131 169.468 185.847 169.435 185.54C169.402 185.233 169.485 184.925 169.667 184.676C169.973 184.212 170.097 183.651 170.015 183.102C169.933 182.552 169.652 182.052 169.224 181.697C168.778 181.297 168.206 181.065 167.606 181.042C167.342 181.027 167.078 181.065 166.828 181.153C166.578 181.241 166.349 181.378 166.153 181.556C165.927 181.766 165.631 181.885 165.322 181.889C165.013 181.892 164.714 181.781 164.483 181.576C164.252 181.371 164.106 181.087 164.073 180.78C164.04 180.473 164.122 180.165 164.305 179.916C164.611 179.452 164.736 178.892 164.654 178.342C164.572 177.792 164.29 177.292 163.861 176.938C163.416 176.535 162.844 176.301 162.244 176.277C161.953 176.26 161.662 176.308 161.391 176.417C161.121 176.526 160.878 176.693 160.68 176.907C160.571 177.028 160.439 177.127 160.293 177.198C160.146 177.269 159.986 177.31 159.824 177.32C159.661 177.329 159.498 177.306 159.344 177.252C159.19 177.198 159.048 177.115 158.927 177.006C158.805 176.898 158.706 176.766 158.635 176.62C158.564 176.473 158.523 176.313 158.514 176.151C158.505 175.988 158.527 175.825 158.581 175.671C158.635 175.517 158.718 175.375 158.827 175.254L170.381 162.264C170.73 161.783 170.897 161.194 170.852 160.602C170.808 160.009 170.554 159.452 170.137 159.029C169.74 158.689 169.236 158.501 168.714 158.497C168.381 158.477 168.047 158.526 167.733 158.641C167.419 158.755 167.131 158.932 166.888 159.162L130.716 199.832Z" fill="white"/>
<path d="M160.267 175.448L155.582 180.616C155.249 180.964 154.989 181.377 154.818 181.828C154.647 182.279 154.569 182.76 154.587 183.242C154.606 183.724 154.721 184.197 154.926 184.634C155.132 185.071 155.423 185.462 155.782 185.783C156.141 186.105 156.562 186.352 157.018 186.508C157.475 186.664 157.958 186.727 158.439 186.693C158.92 186.658 159.39 186.527 159.819 186.308C160.249 186.089 160.63 185.785 160.94 185.415L165.62 180.248L160.267 175.448Z" fill="white"/>
<path d="M158.494 187.875C157.859 187.914 157.222 187.826 156.621 187.616C156.02 187.406 155.467 187.079 154.994 186.653C154.521 186.227 154.137 185.712 153.865 185.136C153.593 184.561 153.439 183.937 153.411 183.301C153.351 182.01 153.803 180.746 154.669 179.787L159.38 174.624C159.49 174.503 159.622 174.405 159.769 174.335C159.916 174.265 160.076 174.225 160.239 174.217C160.402 174.209 160.564 174.233 160.718 174.288C160.871 174.343 161.012 174.428 161.133 174.537C161.254 174.647 161.352 174.779 161.422 174.926C161.491 175.073 161.531 175.233 161.539 175.396C161.547 175.558 161.523 175.721 161.468 175.875C161.413 176.028 161.329 176.169 161.219 176.29L156.535 181.457C156.107 181.932 155.884 182.556 155.915 183.195C155.926 183.503 156 183.807 156.132 184.086C156.264 184.366 156.451 184.616 156.681 184.821C157.158 185.235 157.78 185.443 158.41 185.401C159.04 185.359 159.628 185.069 160.045 184.595L164.734 179.419C164.843 179.298 164.976 179.2 165.123 179.13C165.27 179.061 165.43 179.021 165.592 179.013C165.755 179.005 165.918 179.029 166.071 179.084C166.225 179.138 166.366 179.223 166.487 179.332C166.608 179.442 166.706 179.574 166.775 179.721C166.845 179.869 166.885 180.028 166.893 180.191C166.901 180.354 166.877 180.516 166.822 180.67C166.767 180.823 166.683 180.964 166.573 181.085L161.889 186.257C161.457 186.737 160.935 187.126 160.352 187.404C159.77 187.681 159.138 187.841 158.494 187.875Z" fill="black"/>
<path d="M165.66 180.234L160.976 185.402C160.642 185.751 160.383 186.163 160.212 186.614C160.041 187.065 159.962 187.546 159.981 188.028C159.999 188.51 160.115 188.984 160.32 189.42C160.525 189.857 160.816 190.248 161.175 190.57C161.535 190.892 161.955 191.138 162.412 191.294C162.868 191.45 163.352 191.513 163.833 191.479C164.314 191.444 164.783 191.314 165.213 191.094C165.643 190.875 166.024 190.571 166.334 190.202L171.014 185.03L165.66 180.234Z" fill="white"/>
<path d="M163.879 192.661C163.244 192.7 162.607 192.612 162.006 192.403C161.405 192.193 160.852 191.866 160.379 191.44C159.906 191.014 159.522 190.498 159.25 189.923C158.979 189.347 158.824 188.724 158.796 188.088C158.735 186.796 159.187 185.533 160.055 184.573L164.743 179.401C164.964 179.157 165.273 179.011 165.602 178.995C165.931 178.979 166.252 179.094 166.496 179.315C166.74 179.536 166.886 179.845 166.902 180.173C166.919 180.502 166.804 180.824 166.583 181.068L161.898 186.235C161.47 186.709 161.246 187.334 161.278 187.973C161.289 188.281 161.363 188.584 161.495 188.864C161.627 189.143 161.814 189.393 162.044 189.599C162.521 190.014 163.142 190.223 163.773 190.181C164.403 190.138 164.991 189.848 165.408 189.373L170.097 184.197C170.319 183.953 170.628 183.807 170.957 183.791C171.286 183.775 171.608 183.891 171.852 184.112C172.096 184.334 172.242 184.643 172.258 184.972C172.273 185.302 172.158 185.624 171.936 185.867L167.252 191.022C166.389 191.994 165.176 192.583 163.879 192.661Z" fill="black"/>
<path d="M171.036 185.021L166.351 190.189C166.035 190.54 165.791 190.951 165.633 191.397C165.475 191.843 165.406 192.315 165.431 192.788C165.455 193.26 165.573 193.723 165.776 194.15C165.98 194.577 166.266 194.96 166.617 195.277C166.969 195.593 167.379 195.838 167.825 195.996C168.271 196.154 168.744 196.222 169.216 196.197C169.689 196.173 170.152 196.055 170.579 195.852C171.006 195.648 171.389 195.362 171.705 195.011L176.389 189.843L171.036 185.021Z" fill="white"/>
<path d="M169.25 197.448C168.615 197.486 167.979 197.398 167.378 197.188C166.778 196.978 166.225 196.65 165.753 196.225C165.28 195.799 164.897 195.284 164.625 194.708C164.354 194.133 164.199 193.51 164.171 192.874C164.111 191.584 164.561 190.321 165.425 189.36L170.118 184.188C170.339 183.944 170.648 183.798 170.977 183.782C171.305 183.766 171.627 183.881 171.871 184.102C172.115 184.323 172.261 184.631 172.277 184.96C172.294 185.289 172.178 185.61 171.957 185.854L167.273 191.022C166.846 191.497 166.621 192.121 166.648 192.759C166.662 193.068 166.737 193.371 166.87 193.65C167.002 193.93 167.189 194.18 167.419 194.386C167.896 194.8 168.518 195.01 169.148 194.967C169.778 194.925 170.366 194.634 170.783 194.16L175.472 188.988C175.693 188.744 176.002 188.598 176.33 188.581C176.659 188.565 176.981 188.68 177.225 188.901C177.469 189.122 177.615 189.431 177.631 189.76C177.647 190.088 177.532 190.41 177.311 190.654L172.627 195.822C171.761 196.79 170.546 197.375 169.25 197.448Z" fill="black"/>
<path d="M160.985 187.202L150.349 177.66L147.344 200.382C147.344 200.382 152.728 198.92 152.09 188.859L156.176 192.578C156.526 192.903 156.937 193.155 157.386 193.319C157.834 193.484 158.311 193.557 158.788 193.536C159.265 193.514 159.733 193.397 160.164 193.192C160.596 192.988 160.982 192.699 161.301 192.343C161.619 191.987 161.864 191.572 162.02 191.12C162.176 190.669 162.241 190.191 162.21 189.715C162.18 189.238 162.054 188.772 161.842 188.345C161.629 187.917 161.333 187.536 160.972 187.224L160.985 187.202Z" fill="white"/>
<path d="M147.685 201.579L147.034 199.185C147.215 199.128 151.439 197.727 150.88 188.908C150.865 188.662 150.924 188.416 151.05 188.203C151.175 187.991 151.361 187.82 151.583 187.713C151.806 187.607 152.055 187.569 152.3 187.605C152.544 187.641 152.772 187.749 152.955 187.915L157.041 191.634C157.517 192.059 158.14 192.281 158.778 192.254C159.087 192.242 159.39 192.167 159.67 192.036C159.95 191.904 160.201 191.718 160.407 191.488C160.614 191.258 160.772 190.988 160.873 190.696C160.974 190.404 161.015 190.094 160.994 189.785C160.95 189.145 160.658 188.547 160.178 188.119L149.542 178.577C149.297 178.358 149.149 178.049 149.131 177.721C149.114 177.392 149.227 177.07 149.447 176.825C149.667 176.58 149.975 176.432 150.303 176.414C150.632 176.396 150.954 176.51 151.2 176.729L161.836 186.275C162.802 187.132 163.388 188.337 163.467 189.626C163.51 190.26 163.427 190.896 163.222 191.497C163.016 192.098 162.694 192.653 162.272 193.128C161.85 193.603 161.339 193.989 160.766 194.265C160.194 194.54 159.572 194.699 158.937 194.731H158.884C158.245 194.763 157.605 194.669 157.002 194.454C156.399 194.239 155.845 193.907 155.37 193.477L153.371 191.66C152.923 200.054 147.92 201.516 147.685 201.579Z" fill="black"/>
<path d="M131.987 195.263L131.85 195.409L131.478 195.817L130.893 196.464C130.658 196.721 130.405 197.014 130.122 197.351L129.182 198.423L128.119 199.677C127.343 200.564 126.527 201.592 125.619 202.7C121.276 208.102 117.212 213.723 113.445 219.541C111.393 222.705 109.434 225.94 107.683 229.025C106.797 230.549 105.986 232.078 105.21 233.505L104.08 235.597C103.73 236.28 103.402 236.949 103.083 237.587L101.346 241.07C100.849 242.121 100.437 243.047 100.087 243.805C99.3959 245.325 98.9971 246.194 98.9971 246.194L127.409 258.731C127.409 258.731 127.733 258.013 128.296 256.755C128.584 256.13 128.921 255.363 129.333 254.494L130.782 251.592C131.048 251.064 131.318 250.506 131.611 249.934L132.555 248.161C133.211 246.965 133.884 245.684 134.638 244.399C136.114 241.802 137.771 239.081 139.513 236.386C142.69 231.474 146.116 226.727 149.777 222.164C150.526 221.256 151.208 220.392 151.824 219.687L152.684 218.676C152.946 218.375 153.189 218.096 153.411 217.848C153.632 217.6 153.827 217.369 153.991 217.192L154.413 216.722C154.528 216.594 154.616 216.496 154.67 216.443L154.749 216.354L131.987 195.263Z" fill="#2563EB"/>
<path d="M126.944 260.318C126.714 260.255 126.5 260.142 126.318 259.987C126.136 259.833 125.989 259.64 125.889 259.423C125.789 259.206 125.738 258.97 125.739 258.731C125.739 258.492 125.792 258.256 125.894 258.04L126.78 256.068C126.891 255.837 127.002 255.593 127.117 255.332C127.326 254.889 127.56 254.353 127.826 253.79C127.828 253.778 127.828 253.766 127.826 253.754L129.275 250.856L129.568 250.262C129.745 249.912 129.923 249.548 130.113 249.181C130.112 249.17 130.112 249.16 130.113 249.15L131.057 247.377C131.248 247.031 131.434 246.686 131.62 246.335C132.099 245.449 132.599 244.51 133.162 243.566C134.727 240.822 136.38 238.106 138.077 235.486C141.302 230.536 144.778 225.754 148.492 221.158L149.157 220.347C149.653 219.74 150.123 219.164 150.57 218.65L151.404 217.613L152.13 216.784L152.392 216.483L132.05 197.612C131.828 197.856 131.607 198.126 131.332 198.427L130.401 199.487L129.342 200.736C128.77 201.397 128.168 202.137 127.534 202.917L126.86 203.737C122.558 209.095 118.533 214.67 114.801 220.44C112.82 223.494 110.897 226.645 109.08 229.849V229.876C108.428 230.97 107.83 232.092 107.249 233.16C107.046 233.545 106.837 233.926 106.633 234.303L105.521 236.373C105.291 236.816 105.078 237.259 104.865 237.671C104.754 237.897 104.644 238.114 104.533 238.332L102.809 241.797C102.481 242.489 102.188 243.127 101.922 243.698C101.794 243.987 101.67 244.252 101.555 244.505L100.469 246.885C100.287 247.284 99.9543 247.595 99.5437 247.748C99.1332 247.902 98.6784 247.886 98.2793 247.705C97.8803 247.523 97.5699 247.191 97.4161 246.78C97.2624 246.369 97.2778 245.915 97.4594 245.516L98.5498 243.127L98.9132 242.329C99.1746 241.748 99.476 241.088 99.7995 240.37V240.339L101.537 236.851L101.865 236.2C102.08 235.757 102.306 235.305 102.543 234.844V234.817L103.668 232.725L104.28 231.595C104.874 230.492 105.485 229.348 106.172 228.196C108.02 224.956 109.975 221.743 111.982 218.645C115.781 212.774 119.878 207.101 124.259 201.649L124.928 200.825C125.579 200.027 126.195 199.274 126.789 198.587L127.849 197.337L128.784 196.265C129.072 195.937 129.329 195.644 129.577 195.378L130.685 194.16C130.984 193.84 131.398 193.652 131.835 193.636C132.273 193.62 132.699 193.778 133.02 194.075L155.782 215.193C155.942 215.341 156.071 215.519 156.161 215.717C156.252 215.914 156.302 216.128 156.31 216.346C156.318 216.563 156.283 216.78 156.207 216.983C156.13 217.187 156.015 217.374 155.866 217.533L155.787 217.622L155.565 217.865L155.122 218.335C154.962 218.508 154.781 218.716 154.559 218.969L153.837 219.793L152.99 220.795C152.578 221.273 152.104 221.832 151.634 222.426C151.421 222.692 151.2 222.962 150.969 223.237C147.347 227.75 143.96 232.447 140.82 237.308C139.15 239.878 137.528 242.546 135.994 245.241V245.272C135.462 246.158 134.984 247.045 134.518 247.931C134.323 248.29 134.137 248.644 133.947 248.99L133.012 250.718C132.834 251.069 132.661 251.41 132.497 251.747L132.196 252.349L130.76 255.23C130.508 255.762 130.277 256.267 130.078 256.71C129.958 256.981 129.843 257.229 129.736 257.464L128.85 259.431C128.684 259.777 128.404 260.055 128.056 260.216C127.709 260.378 127.316 260.414 126.944 260.318Z" fill="#2563EB"/>
<path d="M114.176 250.125H114.105C113.925 250.053 113.78 249.912 113.703 249.733C113.625 249.555 113.622 249.353 113.693 249.172C113.76 249.012 115.293 245.183 119.144 238.562C122.69 232.464 128.956 222.749 138.644 211.111C138.704 211.032 138.78 210.965 138.866 210.916C138.952 210.866 139.048 210.835 139.147 210.823C139.246 210.812 139.346 210.82 139.441 210.849C139.537 210.877 139.626 210.925 139.702 210.988C139.779 211.052 139.842 211.131 139.887 211.219C139.932 211.308 139.959 211.405 139.966 211.504C139.973 211.604 139.959 211.703 139.926 211.797C139.893 211.891 139.842 211.978 139.774 212.051C130.144 223.614 123.931 233.253 120.412 239.302C116.614 245.839 115.071 249.677 115.054 249.713C114.984 249.877 114.856 250.01 114.694 250.086C114.532 250.162 114.348 250.176 114.176 250.125Z" fill="black"/>
<path d="M110.378 234.986C110.216 234.94 110.074 234.84 109.977 234.703C109.88 234.565 109.833 234.398 109.844 234.23C109.855 234.062 109.923 233.903 110.037 233.779C110.151 233.655 110.305 233.574 110.471 233.55C114.486 232.96 119.392 233.519 125.052 235.216C127.546 235.953 129.987 236.862 132.355 237.937C132.445 237.977 132.526 238.035 132.593 238.106C132.66 238.178 132.712 238.262 132.746 238.354C132.78 238.446 132.796 238.544 132.791 238.642C132.787 238.74 132.763 238.836 132.721 238.924C132.679 239.013 132.62 239.092 132.547 239.158C132.474 239.223 132.389 239.273 132.296 239.305C132.203 239.337 132.105 239.35 132.007 239.344C131.909 239.337 131.814 239.311 131.726 239.267C131.606 239.214 119.76 233.674 110.684 235.008C110.582 235.023 110.477 235.015 110.378 234.986Z" fill="black"/>
<path d="M133.233 236.731C133.097 236.694 132.975 236.617 132.883 236.51C132.803 236.421 124.954 227.597 115.727 225.607C115.536 225.566 115.369 225.451 115.263 225.287C115.157 225.123 115.121 224.923 115.162 224.732C115.203 224.541 115.318 224.374 115.483 224.268C115.647 224.162 115.846 224.126 116.037 224.167C125.752 226.263 133.654 235.162 133.986 235.539C134.09 235.658 134.153 235.808 134.166 235.966C134.178 236.124 134.139 236.282 134.054 236.416C133.969 236.55 133.844 236.653 133.696 236.71C133.548 236.767 133.385 236.774 133.233 236.731Z" fill="black"/>
<path d="M63.4762 122.062C62.5909 122.063 61.7255 122.325 60.9894 122.817C60.2533 123.309 59.6797 124.008 59.3409 124.826C59.0021 125.644 58.9132 126.544 59.086 127.412C59.2587 128.28 59.685 129.078 60.311 129.704C60.937 130.33 61.7346 130.756 62.6028 130.929C63.4711 131.101 64.3713 131.013 65.1892 130.674C66.0071 130.335 66.7062 129.762 67.198 129.025C67.6899 128.289 67.9524 127.424 67.9524 126.539C67.9501 125.352 67.4776 124.215 66.6387 123.376C65.7997 122.537 64.6627 122.065 63.4762 122.062ZM63.4762 129.153C62.9591 129.153 62.4535 129 62.0236 128.713C61.5936 128.425 61.2583 128.017 61.0604 127.539C60.8625 127.061 60.8108 126.536 60.9117 126.028C61.0126 125.521 61.2616 125.055 61.6273 124.69C61.993 124.324 62.4587 124.075 62.966 123.974C63.4732 123.873 63.9991 123.925 64.4768 124.123C64.9546 124.321 65.3631 124.656 65.6504 125.086C65.9377 125.516 66.091 126.021 66.091 126.539C66.0898 127.232 65.8139 127.896 65.3238 128.386C64.8337 128.876 64.1693 129.152 63.4762 129.153Z" fill="#2563EB"/>
<path d="M65.0496 166.704L60.7772 172.798C60.6688 172.955 60.6108 173.141 60.6108 173.332C60.6108 173.523 60.6688 173.709 60.7772 173.866L64.6774 179.424L60.7772 184.981C60.6688 185.138 60.6108 185.324 60.6108 185.515C60.6108 185.706 60.6688 185.892 60.7772 186.049L64.6774 191.611L60.7772 197.169C60.6688 197.326 60.6108 197.512 60.6108 197.703C60.6108 197.893 60.6688 198.08 60.7772 198.237L64.6774 203.794L60.7772 209.352C60.6688 209.509 60.6108 209.695 60.6108 209.886C60.6108 210.077 60.6688 210.263 60.7772 210.42L64.6774 215.982L60.7772 221.539C60.6688 221.696 60.6108 221.882 60.6108 222.073C60.6108 222.264 60.6688 222.45 60.7772 222.607L65.0496 228.701C65.1632 228.863 65.3257 228.985 65.5133 229.049C65.701 229.112 65.904 229.114 66.0928 229.054C66.2817 228.994 66.4467 228.876 66.5635 228.716C66.6803 228.556 66.7432 228.363 66.7427 228.165C66.7434 227.974 66.6844 227.788 66.5741 227.633L62.6785 222.075L66.5741 216.514C66.6844 216.357 66.7435 216.171 66.7435 215.979C66.7435 215.788 66.6844 215.602 66.5741 215.445L62.6785 209.888L66.5741 204.33C66.6844 204.174 66.7435 203.988 66.7435 203.796C66.7435 203.605 66.6844 203.419 66.5741 203.262L62.6785 197.7L66.5741 192.143C66.6844 191.987 66.7435 191.8 66.7435 191.609C66.7435 191.418 66.6844 191.231 66.5741 191.075L62.6785 185.517L66.5741 179.96C66.6841 179.803 66.7431 179.615 66.7431 179.424C66.7431 179.232 66.6841 179.045 66.5741 178.887L62.6785 173.33L66.5741 167.772C66.6442 167.672 66.6941 167.559 66.7206 167.44C66.7471 167.321 66.7498 167.197 66.7286 167.077C66.7074 166.957 66.6627 166.842 66.597 166.738C66.5314 166.635 66.4461 166.546 66.346 166.476C66.2459 166.406 66.133 166.356 66.0136 166.33C65.8943 166.303 65.7709 166.301 65.6505 166.322C65.5301 166.343 65.4152 166.388 65.3121 166.453C65.209 166.519 65.1197 166.604 65.0496 166.704Z" fill="#2563EB"/>
<path d="M200.596 172.409C200.391 172.409 200.193 172.327 200.048 172.182C199.903 172.036 199.821 171.839 199.821 171.633V131.047C199.821 130.841 199.903 130.644 200.048 130.498C200.193 130.353 200.391 130.271 200.596 130.271C200.802 130.271 200.999 130.353 201.145 130.498C201.29 130.644 201.372 130.841 201.372 131.047V171.611C201.375 171.715 201.357 171.818 201.319 171.915C201.282 172.011 201.225 172.099 201.153 172.174C201.08 172.248 200.994 172.307 200.898 172.348C200.803 172.388 200.7 172.409 200.596 172.409Z" fill="black"/>
<path d="M254.034 15.1064L240.261 22.4786C240.12 22.5551 239.961 22.5911 239.801 22.5827C239.593 22.5853 239.391 22.5166 239.227 22.3881C239.064 22.2595 238.949 22.0789 238.903 21.8763C238.856 21.6736 238.88 21.461 238.971 21.274C239.062 21.087 239.214 20.9366 239.402 20.8481L253.175 13.4759C253.388 13.3609 253.638 13.3351 253.869 13.4043C254.101 13.4734 254.296 13.6318 254.411 13.8445C254.526 14.0573 254.552 14.307 254.483 14.5388C254.414 14.7706 254.255 14.9654 254.042 15.0805L254.034 15.1064Z" fill="#2563EB"/>
<path d="M242.872 38.6495C242.884 38.4106 242.99 38.186 243.166 38.0239C243.342 37.8618 243.574 37.775 243.813 37.7821L259.425 38.2939C259.664 38.304 259.889 38.4082 260.051 38.5836C260.214 38.7591 260.3 38.9916 260.292 39.2305C260.279 39.469 260.173 39.6929 259.997 39.8548C259.822 40.0167 259.59 40.1039 259.351 40.0979L243.739 39.5862C243.501 39.576 243.275 39.4718 243.113 39.2964C242.95 39.121 242.864 38.8884 242.872 38.6495Z" fill="#2563EB"/>
<path d="M239.211 54.6256L252.476 62.8651C252.648 62.9703 252.781 63.1296 252.852 63.3181C252.924 63.5065 252.931 63.7135 252.873 63.9065C252.814 64.0994 252.693 64.2675 252.529 64.3843C252.365 64.5012 252.166 64.5602 251.965 64.552C251.811 64.5438 251.661 64.496 251.531 64.4133L238.265 56.1738C238.16 56.1124 238.069 56.0307 237.996 55.9334C237.923 55.8361 237.871 55.7253 237.841 55.6074C237.812 55.4894 237.807 55.3669 237.825 55.2468C237.844 55.1268 237.887 55.0117 237.951 54.9084C238.015 54.8051 238.099 54.7156 238.198 54.6452C238.297 54.5749 238.409 54.5251 238.528 54.4987C238.646 54.4724 238.769 54.47 238.888 54.4918C239.008 54.5136 239.122 54.5591 239.224 54.6256H239.211Z" fill="#2563EB"/>
<path d="M230.691 19.4475C228.053 14.7692 224.459 10.6994 220.143 7.50346C215.827 4.30749 210.885 2.05714 205.641 0.899075C200.397 -0.25899 194.967 -0.29877 189.706 0.782402C184.446 1.86357 179.472 4.04137 175.109 7.17382C170.747 10.3063 167.093 14.323 164.387 18.9622C161.681 23.6014 159.983 28.7588 159.405 34.0982C158.826 39.4376 159.378 44.839 161.027 49.9504C162.676 55.0618 165.383 59.7683 168.973 63.763L159.06 83.8847L180.27 72.3624C187.586 76.0214 195.883 77.2367 203.941 75.8299C211.999 74.4231 219.393 70.4682 225.036 64.5468C230.68 58.6253 234.275 51.0495 235.292 42.9331C236.31 34.8167 234.698 26.5879 230.691 19.4562V19.4475Z" fill="#2563EB"/>
<path d="M159.059 84.9124C159.23 84.9129 159.399 84.8696 159.549 84.7866L180.295 73.5115C185.992 76.2679 192.271 77.605 198.597 77.4087C204.923 77.2124 211.107 75.4884 216.622 72.384C216.749 72.3227 216.862 72.2361 216.954 72.1294C217.047 72.0227 217.116 71.8983 217.158 71.7637C217.201 71.6292 217.215 71.4875 217.2 71.3472C217.185 71.207 217.142 71.0713 217.073 70.9484C217.004 70.8255 216.91 70.7181 216.798 70.6328C216.686 70.5475 216.557 70.4861 216.42 70.4524C216.283 70.4187 216.141 70.4134 216.002 70.4369C215.863 70.4603 215.73 70.512 215.612 70.5887C210.312 73.5757 204.36 75.2168 198.278 75.368C192.196 75.5193 186.17 74.176 180.729 71.456C180.582 71.3793 180.419 71.3392 180.254 71.3392C180.088 71.3392 179.925 71.3793 179.779 71.456L161.413 81.4301L169.896 64.2139C169.988 64.0294 170.022 63.8216 169.994 63.6175C169.966 63.4133 169.877 63.2222 169.739 63.069C165.91 58.811 163.114 53.7268 161.57 48.2121C160.026 42.6974 159.775 36.9009 160.837 31.2733C160.967 30.5968 161.114 29.9203 161.27 29.2611C161.328 28.9981 161.281 28.7228 161.139 28.494C160.997 28.2652 160.771 28.1009 160.51 28.0364C160.248 27.9719 159.972 28.0121 159.74 28.1486C159.507 28.285 159.338 28.5069 159.267 28.7667C159.098 29.4649 158.941 30.1761 158.807 30.8873C157.086 39.9672 158.622 49.3631 163.144 57.4229C164.447 59.7385 165.98 61.9177 167.719 63.9277L158.104 83.4423C158.009 83.6386 157.978 83.8603 158.016 84.0753C158.054 84.2904 158.16 84.4879 158.317 84.6392C158.416 84.7318 158.533 84.8037 158.66 84.8506C158.788 84.8975 158.923 84.9186 159.059 84.9124Z" fill="black"/>
<path d="M194.497 61.7031H194.458C193.934 61.6963 193.419 61.563 192.958 61.3146C192.496 61.0662 192.102 60.71 191.808 60.2764L176.817 38.1988C176.576 37.8455 176.408 37.4483 176.322 37.03C176.235 36.6117 176.232 36.1804 176.312 35.7608C176.392 35.3412 176.554 34.9415 176.789 34.5845C177.023 34.2275 177.326 33.9202 177.679 33.6801C178.033 33.4401 178.43 33.272 178.848 33.1855C179.267 33.0989 179.698 33.0956 180.117 33.1758C180.537 33.2559 180.937 33.4179 181.294 33.6525C181.651 33.8871 181.958 34.1898 182.198 34.5431L194.562 52.7567L217.641 20.3972C217.886 20.0424 218.199 19.7397 218.562 19.5071C218.926 19.2744 219.331 19.1163 219.756 19.0419C220.181 18.9675 220.616 18.9784 221.037 19.0738C221.457 19.1692 221.855 19.3474 222.206 19.5978C222.557 19.8483 222.855 20.1661 223.082 20.5327C223.309 20.8993 223.461 21.3074 223.529 21.7333C223.597 22.1592 223.579 22.5943 223.478 23.0134C223.376 23.4325 223.192 23.8271 222.936 24.1743L197.146 60.3371C196.846 60.7595 196.448 61.1039 195.987 61.3415C195.526 61.5791 195.015 61.7031 194.497 61.7031Z" fill="white"/>
</g>
<defs>
<clipPath id="clip0_7154_113616">
<rect width="260" height="260" fill="white"/>
</clipPath>
</defs>
</svg>
