<svg width="128" height="128" viewBox="0 0 128 128" fill="none" xmlns="http://www.w3.org/2000/svg">
<rect width="128" height="128" fill="white"/>
<path d="M51.4144 37.2379H34.3903C34.2185 37.2495 34.0462 37.2257 33.884 37.168C33.7218 37.1102 33.5732 37.0197 33.4474 36.9021C33.3217 36.7845 33.2212 36.6424 33.1526 36.4845C33.084 36.3265 33.0488 36.1562 33.0488 35.984C33.0488 35.8118 33.084 35.6414 33.1526 35.4835C33.2212 35.3255 33.3217 35.1834 33.4474 35.0658C33.5732 34.9482 33.7218 34.8577 33.884 34.8C34.0462 34.7422 34.2185 34.7184 34.3903 34.73H51.4144C51.5862 34.7184 51.7588 34.7422 51.921 34.8C52.0832 34.8577 52.2318 34.9482 52.3576 35.0658C52.4833 35.1834 52.5836 35.3255 52.6521 35.4835C52.7207 35.6414 52.7562 35.8118 52.7562 35.984C52.7562 36.1562 52.7207 36.3265 52.6521 36.4845C52.5836 36.6424 52.4833 36.7845 52.3576 36.9021C52.2318 37.0197 52.0832 37.1102 51.921 37.168C51.7588 37.2257 51.5862 37.2495 51.4144 37.2379Z" fill="black"/>
<path d="M51.4144 44.5503H34.3903C34.2185 44.5619 34.0462 44.538 33.884 44.4802C33.7218 44.4225 33.5732 44.3321 33.4474 44.2145C33.3217 44.0969 33.2212 43.9547 33.1526 43.7968C33.084 43.6388 33.0488 43.4685 33.0488 43.2963C33.0488 43.1241 33.084 42.9538 33.1526 42.7958C33.2212 42.6379 33.3217 42.4957 33.4474 42.3781C33.5732 42.2605 33.7218 42.1701 33.884 42.1123C34.0462 42.0546 34.2185 42.0307 34.3903 42.0423H51.4144C51.5862 42.0307 51.7588 42.0546 51.921 42.1123C52.0832 42.1701 52.2318 42.2605 52.3576 42.3781C52.4833 42.4957 52.5836 42.6379 52.6521 42.7958C52.7207 42.9538 52.7562 43.1241 52.7562 43.2963C52.7562 43.4685 52.7207 43.6388 52.6521 43.7968C52.5836 43.9547 52.4833 44.0969 52.3576 44.2145C52.2318 44.3321 52.0832 44.4225 51.921 44.4802C51.7588 44.538 51.5862 44.5619 51.4144 44.5503Z" fill="black"/>
<path d="M51.4144 51.8683H34.3903C34.2185 51.8799 34.0462 51.8561 33.884 51.7983C33.7218 51.7406 33.5732 51.6501 33.4474 51.5325C33.3217 51.4149 33.2212 51.2728 33.1526 51.1148C33.084 50.9569 33.0488 50.7865 33.0488 50.6143C33.0488 50.4422 33.084 50.2719 33.1526 50.1139C33.2212 49.956 33.3217 49.8138 33.4474 49.6962C33.5732 49.5786 33.7218 49.4881 33.884 49.4303C34.0462 49.3726 34.2185 49.3488 34.3903 49.3604H51.4144C51.5862 49.3488 51.7588 49.3726 51.921 49.4303C52.0832 49.4881 52.2318 49.5786 52.3576 49.6962C52.4833 49.8138 52.5836 49.956 52.6521 50.1139C52.7207 50.2719 52.7562 50.4422 52.7562 50.6143C52.7562 50.7865 52.7207 50.9569 52.6521 51.1148C52.5836 51.2728 52.4833 51.4149 52.3576 51.5325C52.2318 51.6501 52.0832 51.7406 51.921 51.7983C51.7588 51.8561 51.5862 51.8799 51.4144 51.8683Z" fill="black"/>
<path d="M106.44 77.1704H31.0303C28.9691 77.1674 26.993 76.3473 25.5356 74.8898C24.0781 73.4323 23.2579 71.4564 23.2549 69.3952V18.551C23.2579 16.4898 24.0781 14.5139 25.5356 13.0564C26.993 11.5989 28.9691 10.7788 31.0303 10.7758H106.44C108.501 10.7773 110.478 11.597 111.936 13.0548C113.394 14.5126 114.213 16.4893 114.215 18.551V69.3952C114.213 71.4569 113.394 73.4337 111.936 74.8915C110.478 76.3493 108.501 77.1689 106.44 77.1704ZM31.0303 13.1123C29.5929 13.1138 28.2148 13.6855 27.1984 14.7019C26.182 15.7183 25.6102 17.0964 25.6086 18.5338V69.3781C25.6102 70.8155 26.182 72.1936 27.1984 73.21C28.2148 74.2264 29.5929 74.798 31.0303 74.7996H106.44C107.878 74.798 109.256 74.2266 110.274 73.2103C111.291 72.1941 111.864 70.816 111.867 69.3781V18.5338C111.864 17.0959 111.291 15.7178 110.274 14.7016C109.256 13.6853 107.878 13.1138 106.44 13.1123H31.0303Z" fill="black"/>
<path d="M108.103 24.8239H29.0204C28.8961 24.8239 28.7769 24.8733 28.689 24.9612C28.6011 25.049 28.5518 25.1682 28.5518 25.2924C28.5518 25.4166 28.6011 25.5358 28.689 25.6237C28.7769 25.7115 28.8961 25.7608 29.0204 25.7608H108.103C108.227 25.7608 108.347 25.7115 108.434 25.6237C108.522 25.5358 108.572 25.4166 108.572 25.2924C108.572 25.1682 108.522 25.049 108.434 24.9612C108.347 24.8733 108.227 24.8239 108.103 24.8239Z" fill="black"/>
<path d="M38.8057 19.271C38.8057 19.8811 38.6247 20.4776 38.2857 20.9849C37.9467 21.4922 37.465 21.8875 36.9013 22.121C36.3376 22.3545 35.7172 22.4157 35.1188 22.2966C34.5204 22.1776 33.9709 21.8838 33.5394 21.4523C33.108 21.0209 32.8141 20.4712 32.695 19.8728C32.576 19.2744 32.637 18.6541 32.8705 18.0904C33.104 17.5267 33.4996 17.0449 34.0069 16.7059C34.5142 16.3669 35.1106 16.186 35.7208 16.186C36.1261 16.1853 36.5275 16.2646 36.9021 16.4193C37.2767 16.5741 37.6172 16.8013 37.9038 17.0879C38.1904 17.3745 38.4177 17.7149 38.5725 18.0895C38.7272 18.4642 38.8064 18.8656 38.8057 19.271Z" fill="black"/>
<path d="M46.9923 19.271C46.9923 19.8813 46.8113 20.478 46.472 20.9854C46.1328 21.4929 45.6505 21.8883 45.0865 22.1216C44.5225 22.3549 43.9021 22.4157 43.3035 22.2962C42.7049 22.1767 42.155 21.8823 41.7238 21.4503C41.2926 21.0183 40.9992 20.4681 40.8808 19.8693C40.7624 19.2705 40.8244 18.65 41.0588 18.0864C41.2932 17.5228 41.6894 17.0415 42.1975 16.7032C42.7055 16.3649 43.3026 16.1849 43.913 16.186C44.3178 16.186 44.7187 16.2659 45.0927 16.421C45.4666 16.5761 45.8064 16.8034 46.0924 17.0899C46.3784 17.3765 46.605 17.7166 46.7594 18.0909C46.9138 18.4651 46.993 18.8661 46.9923 19.271Z" fill="black"/>
<path d="M55.1904 19.271C55.1904 19.8811 55.0094 20.4776 54.6705 20.9849C54.3315 21.4922 53.8498 21.8875 53.2861 22.121C52.7224 22.3545 52.102 22.4157 51.5036 22.2966C50.9052 22.1776 50.3553 21.8838 49.9239 21.4523C49.4925 21.0209 49.1988 20.4712 49.0798 19.8728C48.9608 19.2744 49.0218 18.6541 49.2553 18.0904C49.4888 17.5267 49.8841 17.0449 50.3914 16.7059C50.8987 16.3669 51.4951 16.186 52.1053 16.186C52.9234 16.186 53.7081 16.511 54.2866 17.0896C54.8652 17.6681 55.1904 18.4528 55.1904 19.271Z" fill="black"/>
<path d="M75.2249 96.9257H70.0834C69.9854 96.9169 69.8868 96.9285 69.7935 96.96C69.7003 96.9914 69.6146 97.042 69.5419 97.1084C69.4693 97.1747 69.4112 97.2555 69.3715 97.3455C69.3318 97.4356 69.3115 97.5329 69.3115 97.6312C69.3115 97.7296 69.3318 97.8269 69.3715 97.917C69.4112 98.007 69.4693 98.0878 69.5419 98.1541C69.6146 98.2205 69.7003 98.271 69.7935 98.3025C69.8868 98.3339 69.9854 98.3456 70.0834 98.3368H75.2249C75.3229 98.3456 75.4215 98.3339 75.5148 98.3025C75.608 98.271 75.6937 98.2205 75.7664 98.1541C75.839 98.0878 75.8971 98.007 75.9368 97.917C75.9765 97.8269 75.9968 97.7296 75.9968 97.6312C75.9968 97.5329 75.9765 97.4356 75.9368 97.3455C75.8971 97.2555 75.839 97.1747 75.7664 97.1084C75.6937 97.042 75.608 96.9914 75.5148 96.96C75.4215 96.9285 75.3229 96.9169 75.2249 96.9257Z" fill="black"/>
<path d="M82.3949 96.9257H79.6185C79.5205 96.9169 79.4219 96.9285 79.3287 96.96C79.2355 96.9914 79.1497 97.042 79.0771 97.1084C79.0045 97.1747 78.9463 97.2555 78.9067 97.3455C78.867 97.4356 78.8467 97.5329 78.8467 97.6312C78.8467 97.7296 78.867 97.8269 78.9067 97.917C78.9463 98.007 79.0045 98.0878 79.0771 98.1541C79.1497 98.2205 79.2355 98.271 79.3287 98.3025C79.4219 98.3339 79.5205 98.3456 79.6185 98.3368H82.3949C82.5711 98.3209 82.735 98.2397 82.8543 98.1091C82.9736 97.9786 83.0398 97.8081 83.0398 97.6312C83.0398 97.4544 82.9736 97.2839 82.8543 97.1533C82.735 97.0228 82.5711 96.9416 82.3949 96.9257Z" fill="black"/>
<path d="M87.479 96.9256H86.2221C86.0459 96.9415 85.882 97.0227 85.7626 97.1532C85.6433 97.2838 85.5771 97.4543 85.5771 97.6312C85.5771 97.808 85.6433 97.9785 85.7626 98.1091C85.882 98.2396 86.0459 98.3208 86.2221 98.3367H87.4617C87.6379 98.3208 87.8018 98.2396 87.9211 98.1091C88.0405 97.9785 88.1066 97.808 88.1066 97.6312C88.1066 97.4543 88.0405 97.2838 87.9211 97.1532C87.8018 97.0227 87.6379 96.9415 87.4617 96.9256H87.479Z" fill="black"/>
<path d="M91.3978 96.9257H90.7465C90.5703 96.9416 90.4064 97.0228 90.2871 97.1533C90.1677 97.2839 90.1016 97.4544 90.1016 97.6312C90.1016 97.8081 90.1677 97.9786 90.2871 98.1091C90.4064 98.2397 90.5703 98.3209 90.7465 98.3368H91.3978C91.4958 98.3456 91.5944 98.3339 91.6877 98.3025C91.7809 98.271 91.8666 98.2205 91.9393 98.1541C92.0119 98.0878 92.07 98.007 92.1097 97.917C92.1494 97.8269 92.1697 97.7296 92.1697 97.6312C92.1697 97.5329 92.1494 97.4356 92.1097 97.3455C92.07 97.2555 92.0119 97.1747 91.9393 97.1084C91.8666 97.042 91.7809 96.9914 91.6877 96.96C91.5944 96.9285 91.4958 96.9169 91.3978 96.9257Z" fill="black"/>
<path d="M94.792 96.9257H94.472C94.3741 96.9169 94.2754 96.9285 94.1822 96.96C94.089 96.9914 94.0032 97.042 93.9306 97.1084C93.858 97.1747 93.7999 97.2555 93.7602 97.3455C93.7205 97.4356 93.7002 97.5329 93.7002 97.6312C93.7002 97.7296 93.7205 97.8269 93.7602 97.917C93.7999 98.007 93.858 98.0878 93.9306 98.1541C94.0032 98.2205 94.089 98.271 94.1822 98.3025C94.2754 98.3339 94.3741 98.3456 94.472 98.3368H94.792C94.89 98.3456 94.9886 98.3339 95.0818 98.3025C95.175 98.271 95.2608 98.2205 95.3334 98.1541C95.4061 98.0878 95.4642 98.007 95.5039 97.917C95.5436 97.8269 95.5638 97.7296 95.5638 97.6312C95.5638 97.5329 95.5436 97.4356 95.5039 97.3455C95.4642 97.2555 95.4061 97.1747 95.3334 97.1084C95.2608 97.042 95.175 96.9914 95.0818 96.96C94.9886 96.9285 94.89 96.9169 94.792 96.9257Z" fill="black"/>
<path d="M101.246 41.9754C102.712 45.5128 103.097 49.4058 102.351 53.1617C101.605 56.9177 99.7615 60.368 97.0544 63.0765C94.3474 65.7849 90.8982 67.6298 87.1426 68.3777C83.387 69.1257 79.4938 68.7432 75.9557 67.2785C72.4175 65.8139 69.3932 63.3329 67.2651 60.1493C65.137 56.9658 64.0007 53.2227 64 49.3933C63.9993 45.564 65.1342 41.8205 67.2612 38.6362C69.3881 35.4518 72.4116 32.9698 75.9493 31.5038C80.6926 29.5399 86.0215 29.5398 90.765 31.5033C95.5084 33.4669 99.2782 37.2336 101.246 41.9754Z" fill="#EC4899"/>
<path d="M95.5077 41.7132L91.2099 37.4154L83.6923 44.9329L76.1748 37.4154L71.877 41.7132L79.3945 49.2308L71.877 56.7483L76.1748 61.0462L83.6923 53.5286L91.2099 61.0462L95.5077 56.7483L87.9902 49.2308L95.5077 41.7132Z" fill="white"/>
<path d="M57.8009 63.2598C57.8109 62.8702 57.742 62.4826 57.5984 62.1203C57.4548 61.758 57.2393 61.4285 56.9651 61.1516C56.6909 60.8747 56.3636 60.656 56.0028 60.5088C55.6419 60.3617 55.2552 60.2889 54.8655 60.2951C54.4758 60.3013 54.0912 60.3862 53.7352 60.5447C53.3792 60.7032 53.0591 60.9321 52.7938 61.2176C52.5285 61.5031 52.3236 61.8392 52.1915 62.2059C52.0595 62.5726 52.0029 62.9622 52.0253 63.3512L52.2593 78.9415L58.0352 78.8559L57.8009 63.2598Z" fill="white"/>
<path d="M52.1676 79.827C51.9534 79.8046 51.7547 79.7044 51.6094 79.5454C51.4641 79.3864 51.382 79.1797 51.379 78.9643L51.1391 63.3682C51.1316 62.8731 51.2218 62.3813 51.4044 61.921C51.5869 61.4607 51.8582 61.0408 52.203 60.6854C52.5478 60.33 52.9593 60.0459 53.4139 59.8495C53.8685 59.6531 54.3573 59.5482 54.8525 59.5407C55.3476 59.5332 55.8396 59.6232 56.2999 59.8058C56.7602 59.9883 57.1799 60.2598 57.5354 60.6046C57.8908 60.9494 58.175 61.3609 58.3714 61.8155C58.5678 62.2701 58.6727 62.7589 58.6802 63.254L58.9201 78.8501C58.9022 79.0719 58.8016 79.2789 58.638 79.4298C58.4745 79.5807 58.26 79.6645 58.0375 79.6645C57.8149 79.6645 57.6005 79.5807 57.4369 79.4298C57.2733 79.2789 57.1727 79.0719 57.1549 78.8501L56.915 63.2597C56.912 62.9962 56.8569 62.7358 56.7529 62.4936C56.649 62.2514 56.4981 62.0322 56.3091 61.8485C56.1201 61.6648 55.8967 61.5202 55.6516 61.4232C55.4066 61.3262 55.1447 61.2786 54.8812 61.2831C54.6178 61.2868 54.3576 61.3423 54.1158 61.4466C53.8739 61.5508 53.6549 61.7016 53.4714 61.8905C53.2878 62.0794 53.1433 62.3026 53.046 62.5473C52.9487 62.792 52.9008 63.0535 52.9046 63.3168L53.1445 78.9129C53.146 79.1464 53.0558 79.3711 52.8934 79.5388C52.731 79.7065 52.5095 79.8038 52.2761 79.8098L52.1676 79.827Z" fill="black"/>
<path d="M78.0811 81.861C77.7244 81.3002 77.1724 80.8916 76.5318 80.7143C75.8913 80.537 75.2078 80.6036 74.6135 80.9012C75.1052 80.4649 75.4171 79.8614 75.4889 79.2079C75.5606 78.5544 75.3871 77.8976 75.0018 77.3649C74.6451 76.8041 74.0931 76.3956 73.4525 76.2183C72.812 76.041 72.1285 76.1076 71.5342 76.4052C72.0275 75.9713 72.3414 75.3691 72.4143 74.7162C72.4872 74.0633 72.3139 73.4066 71.9284 72.8746C71.5549 72.2821 70.9639 71.8598 70.2823 71.6984C69.6007 71.5371 68.8831 71.6497 68.2836 72.012L79.1838 64.5853C79.7777 64.1807 80.1866 63.5569 80.3205 62.8509C80.4544 62.1448 80.3024 61.4145 79.8979 60.8205C79.4934 60.2266 78.8694 59.8177 78.1634 59.6838C77.4574 59.5498 76.7269 59.7019 76.1329 60.1064L46.335 80.4499L58.012 98.8795L77.5154 85.5229C77.7934 85.3198 78.0286 85.064 78.2075 84.77C78.3864 84.4759 78.5056 84.1495 78.5581 83.8093C78.6107 83.4691 78.5956 83.1219 78.5138 82.7876C78.4319 82.4532 78.2849 82.1384 78.0811 81.861Z" fill="white"/>
<path d="M58.0122 99.822H57.8236C57.6997 99.7972 57.5821 99.7474 57.478 99.6757C57.3739 99.604 57.2854 99.5119 57.2181 99.405L45.541 80.9696C45.4096 80.7641 45.3637 80.5154 45.4127 80.2764C45.4618 80.0375 45.602 79.827 45.8038 79.6899L75.6021 59.3465C76.1756 58.966 76.8503 58.7669 77.5385 58.7752C78.1414 58.762 78.7384 58.8968 79.2772 59.1676C79.816 59.4385 80.2803 59.8373 80.6293 60.3291C81.1395 61.1307 81.329 62.0952 81.1595 63.0302C80.9901 63.9652 80.4742 64.8019 79.7151 65.3735L71.3116 71.0864C71.8724 71.3819 72.3513 71.8118 72.7055 72.3375C72.9883 72.7505 73.1847 73.2165 73.2829 73.7074C73.3811 74.1982 73.379 74.7039 73.2768 75.1939C73.7797 75.283 74.2594 75.4726 74.6874 75.7514C75.1154 76.0302 75.483 76.3924 75.7678 76.8164C76.0488 77.2302 76.244 77.6962 76.3421 78.1868C76.4402 78.6774 76.4393 79.1826 76.3391 79.6728C76.8406 79.7616 77.3191 79.9505 77.7461 80.2283C78.173 80.5061 78.5395 80.867 78.8239 81.2896C79.3632 82.0695 79.586 83.0252 79.4468 83.9631C79.3787 84.4224 79.216 84.8627 78.9692 85.256C78.7224 85.6493 78.3967 85.9872 78.0127 86.2483L58.5093 99.6049C58.369 99.7253 58.1959 99.8009 58.0122 99.822ZM47.6147 80.7239L58.2864 97.5368L76.9845 84.7343C77.1556 84.6162 77.3002 84.4638 77.4094 84.2868C77.5185 84.1098 77.5898 83.912 77.6186 83.7061C77.6855 83.2404 77.5733 82.7667 77.3045 82.3807C77.1369 82.1258 76.91 81.9153 76.6434 81.7671C76.3768 81.6189 76.0783 81.5373 75.7733 81.5295C75.5279 81.5284 75.2862 81.5893 75.0707 81.7066C74.8657 81.8165 74.6272 81.8468 74.4012 81.7916C74.1752 81.7364 73.9778 81.5995 73.8467 81.4073C73.7155 81.2152 73.6599 80.9814 73.6907 80.7508C73.7216 80.5203 73.8367 80.3092 74.0137 80.1584C74.3253 79.871 74.5195 79.4785 74.5585 79.0564C74.5976 78.6344 74.4787 78.2128 74.2252 77.8732C74.0562 77.6201 73.8291 77.4113 73.5627 77.2641C73.2963 77.117 72.9983 77.0359 72.694 77.0277C72.4483 77.0238 72.2059 77.0849 71.9914 77.2049C71.7864 77.3148 71.5482 77.3451 71.3222 77.2899C71.0962 77.2346 70.8985 77.0977 70.7674 76.9056C70.6362 76.7135 70.5808 76.4797 70.6117 76.2491C70.6426 76.0186 70.7577 75.8075 70.9347 75.6566C71.2463 75.3693 71.4402 74.9768 71.4792 74.5547C71.5183 74.1327 71.3994 73.7111 71.1459 73.3715C70.9769 73.1184 70.7498 72.9095 70.4834 72.7624C70.217 72.6153 69.9192 72.5342 69.615 72.526C69.3301 72.522 69.0507 72.6058 68.815 72.766C68.7126 72.8357 68.5977 72.8846 68.4764 72.9099C68.3551 72.9352 68.2299 72.9363 68.1082 72.9133C67.9864 72.8902 67.8704 72.8434 67.7667 72.7755C67.6631 72.7076 67.5737 72.6198 67.504 72.5174C67.4342 72.415 67.3853 72.2999 67.36 72.1786C67.3347 72.0573 67.3336 71.9322 67.3567 71.8104C67.3797 71.6887 67.4266 71.5727 67.4945 71.469C67.5624 71.3654 67.6501 71.2762 67.7525 71.2064L78.6526 63.7797C79.0092 63.4973 79.2427 63.0878 79.304 62.6371C79.3548 62.4148 79.3608 62.1846 79.3216 61.96C79.2823 61.7353 79.1987 61.5208 79.0755 61.3289C78.8959 61.0933 78.6629 60.9037 78.3957 60.7756C78.1286 60.6475 77.8347 60.5845 77.5385 60.5919C77.2288 60.5837 76.9234 60.6651 76.6587 60.8261L47.6147 80.7239Z" fill="black"/>
<path d="M48.483 78.4843L48.3575 78.57L48.0088 78.8042L47.4375 79.1755L46.7178 79.6783L45.8381 80.301L44.8269 81.0379C44.0956 81.5635 43.313 82.1805 42.4447 82.8203C38.2737 86.0422 34.2696 89.4743 30.4477 93.1035C28.3682 95.0744 26.3516 97.1025 24.5064 99.0677C23.5695 100.033 22.7124 101.016 21.884 101.924L20.6787 103.261L19.5933 104.552L17.6909 106.837C17.1196 107.523 16.6683 108.134 16.2741 108.631L15.0459 110.196L33.761 124.478L34.7781 123.187C35.1037 122.776 35.4921 122.273 35.9491 121.702C36.4061 121.131 36.9488 120.508 37.5316 119.822L38.4342 118.743C38.7656 118.383 39.1026 118.006 39.4454 117.6C40.1424 116.835 40.8507 116.006 41.6505 115.195C43.1987 113.544 44.9067 111.824 46.6662 110.156C49.8827 107.099 53.254 104.208 56.7666 101.496C57.4808 100.959 58.1321 100.45 58.7148 100.033L59.526 99.4618L60.2116 98.982L60.7542 98.5992L61.1542 98.3307L61.3882 98.1707L61.4683 98.1193L48.483 78.4843Z" fill="#2563EB"/>
<path d="M33.1897 125.53C33.1358 125.5 33.0842 125.465 33.0355 125.427C32.9058 125.326 32.7975 125.199 32.7166 125.056C32.6358 124.913 32.5843 124.755 32.5646 124.591C32.545 124.428 32.5577 124.262 32.6023 124.104C32.6468 123.945 32.7221 123.797 32.824 123.668L33.8352 122.371L34.2182 121.885L35.0121 120.874L36.5946 118.994L36.9145 118.612L37.4858 117.909L38.497 116.766C38.6988 116.549 38.8987 116.327 39.0967 116.098C39.6109 115.527 40.1422 114.955 40.7249 114.333C42.3702 112.585 44.0729 110.876 45.7867 109.248C49.035 106.161 52.4383 103.242 55.9839 100.502L56.6182 100.028C57.0924 99.6622 57.5435 99.3251 57.9605 99.0223L58.772 98.451L59.4518 97.9655L59.7031 97.7941L48.0604 80.2614L47.3862 80.7298L46.5123 81.3468L45.5066 82.078C44.9696 82.4665 44.3926 82.9064 43.7928 83.3691L43.1473 83.8548C39.0214 87.0377 35.0627 90.4318 31.2873 94.0236C29.2821 95.9203 27.2884 97.9083 25.3918 99.9421C24.7176 100.633 24.0779 101.347 23.4609 102.039L22.804 102.77L21.6098 104.095L20.8957 104.941L20.5359 105.369L18.6507 107.614C18.2851 108.066 17.9538 108.488 17.6624 108.86L17.251 109.391L16.0228 110.951C15.8175 111.212 15.5167 111.381 15.1868 111.421C14.8568 111.46 14.5245 111.367 14.2632 111.162C14.0018 110.957 13.8328 110.656 13.7931 110.326C13.7535 109.996 13.8464 109.664 14.0517 109.403L15.2743 107.837L15.6855 107.317C15.9883 106.935 16.3255 106.5 16.7026 106.032L18.605 103.747L18.959 103.318L19.7018 102.444L20.9016 101.102C21.1244 100.862 21.3357 100.622 21.5585 100.376C22.1926 99.6679 22.8439 98.9367 23.558 98.2054C25.4946 96.1488 27.5054 94.1265 29.5392 92.1955C33.3859 88.5434 37.4169 85.0902 41.6162 81.8496L42.2561 81.3639C42.8788 80.8898 43.4673 80.4442 44.0271 80.0443L45.0269 79.313L45.9067 78.6904L46.6492 78.1705L47.6833 77.4735C47.9583 77.2977 48.2909 77.2357 48.6108 77.3008C48.9306 77.3658 49.2126 77.5527 49.3971 77.822L62.4223 97.4456C62.5143 97.5825 62.5785 97.7363 62.6109 97.8981C62.6432 98.0599 62.6431 98.2264 62.6109 98.3882C62.5426 98.713 62.3499 98.9981 62.0739 99.1823L61.9938 99.2337L61.7882 99.3765L61.3882 99.6507L60.8627 100.016L60.1829 100.496L59.3832 101.068C58.989 101.348 58.5546 101.679 58.0919 102.027L57.4579 102.507C53.9839 105.19 50.6508 108.05 47.4718 111.076C45.758 112.676 44.1129 114.356 42.5018 116.064C41.9591 116.635 41.445 117.206 40.9422 117.778L40.3366 118.457L39.3369 119.566C39.1427 119.789 38.9598 120.011 38.7656 120.228L38.4342 120.617L36.8632 122.485L36.0975 123.462L35.7092 123.953L34.698 125.244C34.5135 125.452 34.2654 125.592 33.9925 125.644C33.7197 125.696 33.4374 125.656 33.1897 125.53Z" fill="#2563EB"/>
<path d="M25.5745 115.767L25.5287 115.732C25.4113 115.645 25.3323 115.515 25.3078 115.37C25.2834 115.226 25.3153 115.077 25.3974 114.955C27.2128 112.542 29.1864 110.252 31.3046 108.1C37.2499 101.985 43.6932 96.3746 50.5682 91.3272C50.6882 91.2415 50.8368 91.2056 50.9827 91.2269C51.1285 91.2482 51.2604 91.325 51.3509 91.4414C51.4359 91.5621 51.4709 91.711 51.4485 91.8569C51.4262 92.0028 51.3482 92.1344 51.231 92.224C44.4081 97.235 38.0124 102.803 32.11 108.871C30.0312 110.984 28.0925 113.23 26.3059 115.595C26.2253 115.707 26.1067 115.787 25.9723 115.818C25.8378 115.85 25.6965 115.831 25.5745 115.767Z" fill="black"/>
<path d="M25.483 103.929C25.3907 103.875 25.3154 103.796 25.266 103.701C25.2165 103.606 25.1946 103.499 25.2029 103.392C25.2202 103.247 25.2927 103.114 25.4054 103.02C25.5181 102.927 25.6624 102.88 25.8085 102.89C28.8763 103.164 32.3896 104.449 36.2629 106.706C37.9704 107.695 39.6082 108.8 41.1645 110.014C41.2466 110.115 41.2913 110.242 41.2912 110.373C41.2911 110.503 41.2462 110.63 41.164 110.732C41.0818 110.833 40.9673 110.904 40.8396 110.931C40.7118 110.958 40.5785 110.941 40.4619 110.882C40.3819 110.819 32.6467 104.626 25.7056 104.027C25.6252 104.011 25.5494 103.977 25.483 103.929Z" fill="black"/>
<path d="M42.022 109.282C41.928 109.23 41.8523 109.151 41.805 109.054C41.7593 108.974 37.5432 101.056 31.0934 97.9653C30.9622 97.8979 30.8621 97.7823 30.8142 97.6429C30.7663 97.5034 30.7742 97.3507 30.8362 97.2169C30.9036 97.0872 31.0183 96.9882 31.1565 96.9404C31.2946 96.8926 31.4459 96.8995 31.5791 96.9599C38.3659 100.233 42.6106 108.197 42.7877 108.54C42.8331 108.646 42.8451 108.764 42.8223 108.877C42.7995 108.99 42.7429 109.094 42.66 109.174C42.577 109.255 42.4717 109.308 42.3579 109.327C42.244 109.347 42.1268 109.331 42.022 109.282Z" fill="black"/>
<path d="M24.0202 82.1977C23.3477 82.1966 22.6898 82.395 22.1301 82.7678C21.5704 83.1406 21.1338 83.671 20.8757 84.292C20.6175 84.913 20.5493 85.5967 20.6798 86.2565C20.8104 86.9162 21.1339 87.5224 21.609 87.9983C22.0842 88.4743 22.6896 88.7986 23.3491 88.9302C24.0086 89.0619 24.6925 88.9949 25.314 88.7378C25.9354 88.4807 26.4666 88.045 26.8404 87.4859C27.2141 86.9268 27.4136 86.2693 27.4136 85.5968C27.4062 84.6986 27.0466 83.8392 26.4119 83.2035C25.7773 82.5678 24.9184 82.2066 24.0202 82.1977ZM24.0202 87.5792C23.6265 87.5803 23.2415 87.4645 22.9136 87.2465C22.5858 87.0285 22.3301 86.7181 22.1789 86.3546C22.0277 85.9911 21.9877 85.5909 22.0643 85.2047C22.1408 84.8185 22.3304 84.4637 22.6088 84.1853C22.8871 83.907 23.2419 83.7175 23.628 83.641C24.0142 83.5644 24.4143 83.6043 24.7779 83.7555C25.1414 83.9067 25.4519 84.1623 25.6699 84.4902C25.8879 84.818 26.0036 85.2031 26.0024 85.5968C26.0009 86.1221 25.7917 86.6255 25.4203 86.9969C25.0488 87.3684 24.5455 87.5776 24.0202 87.5792Z" fill="#2563EB"/>
<path d="M82.4063 5.14889C82.4063 5.14889 83.4918 6.69134 85.1428 6.77132C85.6807 6.77062 86.2106 6.63988 86.687 6.3902C87.1635 6.14052 87.5725 5.7793 87.8793 5.33739C88.8961 4.0977 89.5417 3.8578 89.9016 3.87494C90.4329 3.87494 90.9128 4.54904 91.3184 5.14889C91.3184 5.14889 92.4039 6.69134 94.0549 6.77132C94.5928 6.77062 95.1226 6.63988 95.5991 6.3902C96.0756 6.14052 96.4846 5.7793 96.7913 5.33739C97.4026 4.59472 98.0139 4.22342 98.6137 4.23485C98.9346 4.27687 99.2441 4.38169 99.5245 4.54343C99.8048 4.70518 100.05 4.92061 100.248 5.17741C100.303 5.25243 100.373 5.31582 100.453 5.36389C100.533 5.41195 100.622 5.44375 100.714 5.45754C100.806 5.47134 100.9 5.46687 100.991 5.44429C101.081 5.42171 101.167 5.38147 101.242 5.32595C101.317 5.27043 101.38 5.20072 101.428 5.12072C101.476 5.04071 101.508 4.95199 101.522 4.85969C101.536 4.76739 101.531 4.67332 101.508 4.58277C101.486 4.49221 101.446 4.40694 101.39 4.33192C101.065 3.90588 100.655 3.55194 100.186 3.29236C99.7166 3.03277 99.1988 2.87318 98.665 2.82372C97.6082 2.82372 96.6142 3.33792 95.7115 4.4405C95.5393 4.70163 95.3099 4.92015 95.0407 5.0795C94.7715 5.23885 94.4696 5.33485 94.1578 5.36026C93.4928 5.25723 92.8953 4.89589 92.4953 4.3548C92.0325 3.66354 91.2555 2.52665 89.9758 2.46381C88.9704 2.41811 87.9306 3.06371 86.7995 4.4405C86.6278 4.70222 86.3988 4.92112 86.1294 5.08055C85.8601 5.23997 85.5577 5.33568 85.2457 5.36026C84.5812 5.25605 83.9841 4.89496 83.5832 4.3548C83.1205 3.66354 82.3436 2.52665 81.0696 2.46381C80.0584 2.41811 79.0188 3.06371 77.8876 4.4405C77.716 4.70222 77.4867 4.92112 77.2173 5.08055C76.948 5.23997 76.6457 5.33568 76.3336 5.36026C75.6691 5.25605 75.072 4.89496 74.6711 4.3548C74.2084 3.66354 73.4315 2.52665 72.1575 2.46381C71.1463 2.41811 70.1067 3.06371 68.9756 4.4405C68.8711 4.56757 68.8143 4.72724 68.8154 4.89177C68.8174 5.03633 68.8635 5.17686 68.9477 5.29443C69.0318 5.412 69.1501 5.50102 69.2863 5.54953C69.4225 5.59803 69.5702 5.6037 69.7098 5.56578C69.8493 5.52786 69.9739 5.44816 70.0668 5.33739C71.0837 4.0977 71.729 3.8578 72.0889 3.87494C72.6202 3.87494 73.1003 4.54904 73.5059 5.14889C73.5059 5.14889 74.5911 6.69134 76.2421 6.77132C76.7801 6.77062 77.3099 6.63988 77.7864 6.3902C78.2629 6.14052 78.6719 5.7793 78.9786 5.33739C79.9955 4.0977 80.6411 3.8578 81.001 3.87494C81.5208 3.9035 82.0007 4.54904 82.4063 5.14889Z" fill="black"/>
</svg>
