<svg width="192" height="192" viewBox="0 0 192 192" fill="none" xmlns="http://www.w3.org/2000/svg">
<rect width="192" height="192" fill="white"/>
<path d="M55.8003 100.851H30.2946C29.8126 100.826 29.3586 100.617 29.0262 100.267C28.6939 99.9166 28.5086 99.4523 28.5086 98.9697C28.5086 98.4871 28.6939 98.0228 29.0262 97.6728C29.3586 97.3229 29.8126 97.1138 30.2946 97.0889H55.8003C56.2823 97.1138 56.7363 97.3229 57.0686 97.6728C57.401 98.0228 57.5863 98.4871 57.5863 98.9697C57.5863 99.4523 57.401 99.9166 57.0686 100.267C56.7363 100.617 56.2823 100.826 55.8003 100.851Z" fill="black"/>
<path d="M55.8003 111.818H30.2946C29.8126 111.793 29.3586 111.584 29.0262 111.234C28.6939 110.884 28.5086 110.42 28.5086 109.937C28.5086 109.455 28.6939 108.991 29.0262 108.641C29.3586 108.291 29.8126 108.082 30.2946 108.057H55.8003C56.2823 108.082 56.7363 108.291 57.0686 108.641C57.401 108.991 57.5863 109.455 57.5863 109.937C57.5863 110.42 57.401 110.884 57.0686 111.234C56.7363 111.584 56.2823 111.793 55.8003 111.818Z" fill="black"/>
<path d="M55.8001 122.771H30.2944C29.7963 122.771 29.3185 122.573 28.9663 122.221C28.614 121.869 28.4161 121.391 28.4161 120.893C28.4161 120.395 28.614 119.917 28.9663 119.565C29.3185 119.213 29.7963 119.015 30.2944 119.015H55.8001C56.2983 119.015 56.776 119.213 57.1283 119.565C57.4806 119.917 57.6784 120.395 57.6784 120.893C57.6784 121.391 57.4806 121.869 57.1283 122.221C56.776 122.573 56.2983 122.771 55.8001 122.771Z" fill="black"/>
<path d="M139.145 76.4072H20.6711C20.4841 76.4072 20.3048 76.4815 20.1726 76.6137C20.0404 76.7459 19.9661 76.9252 19.9661 77.1122C19.9661 77.2992 20.0404 77.4785 20.1726 77.6107C20.3048 77.7429 20.4841 77.8172 20.6711 77.8172H139.145C139.332 77.8172 139.512 77.7429 139.644 77.6107C139.776 77.4785 139.85 77.2992 139.85 77.1122C139.85 76.9252 139.776 76.7459 139.644 76.6137C139.512 76.4815 139.332 76.4072 139.145 76.4072Z" fill="black"/>
<path d="M31.8859 66.1647C31.8859 67.0793 31.6146 67.9732 31.1065 68.7335C30.5983 69.4938 29.876 70.0864 29.031 70.4361C28.186 70.7858 27.2563 70.8771 26.3594 70.6983C25.4626 70.5195 24.6389 70.0787 23.9926 69.4317C23.3463 68.7847 22.9064 67.9606 22.7286 67.0635C22.5508 66.1664 22.6431 65.2368 22.9937 64.3922C23.3444 63.5476 23.9377 62.826 24.6985 62.3186C25.4594 61.8113 26.3537 61.541 27.2682 61.542C28.4933 61.5433 29.6678 62.031 30.5337 62.8977C31.3995 63.7645 31.8859 64.9396 31.8859 66.1647Z" fill="black"/>
<path d="M44.1628 66.1647C44.1628 67.079 43.8917 67.9728 43.3837 68.733C42.8758 69.4932 42.1538 70.0857 41.3091 70.4356C40.4644 70.7855 39.5349 70.877 38.6382 70.6987C37.7415 70.5203 36.9178 70.08 36.2713 69.4335C35.6248 68.787 35.1845 67.9633 35.0061 67.0666C34.8278 66.1699 34.9193 65.2404 35.2692 64.3957C35.6191 63.551 36.2116 62.829 36.9718 62.3211C37.732 61.8131 38.6258 61.542 39.54 61.542C40.7661 61.542 41.9419 62.029 42.8088 62.896C43.6758 63.7629 44.1628 64.9387 44.1628 66.1647Z" fill="black"/>
<path d="M56.4348 66.1647C56.4348 67.0793 56.1635 67.9732 55.6553 68.7335C55.1472 69.4938 54.4249 70.0864 53.5799 70.4361C52.7349 70.7858 51.8052 70.8771 50.9083 70.6983C50.0115 70.5195 49.1878 70.0787 48.5415 69.4317C47.8952 68.7847 47.4553 67.9606 47.2775 67.0635C47.0997 66.1664 47.1919 65.2368 47.5426 64.3922C47.8933 63.5476 48.4866 62.826 49.2474 62.3186C50.0083 61.8113 50.9026 61.541 51.8171 61.542C52.4239 61.542 53.0248 61.6616 53.5853 61.894C54.1459 62.1264 54.6552 62.4669 55.0841 62.8963C55.5129 63.3256 55.8529 63.8352 56.0847 64.3961C56.3165 64.9569 56.4354 65.5579 56.4348 66.1647Z" fill="black"/>
<path d="M10.212 139.847V62.6251C10.2146 59.4949 11.4589 56.4936 13.6718 54.2798C15.8847 52.066 18.8854 50.8204 22.0156 50.8164H136.476C139.607 50.8204 142.607 52.066 144.82 54.2798C147.033 56.4936 148.277 59.4949 148.28 62.6251V139.847C148.277 142.977 147.033 145.978 144.82 148.191C142.607 150.404 139.606 151.648 136.476 151.651H22.0156C18.8859 151.648 15.8852 150.404 13.6721 148.191C11.4591 145.978 10.2146 142.977 10.212 139.847ZM22.0156 54.3917C19.8332 54.3957 17.7414 55.2645 16.1982 56.8076C14.655 58.3508 13.7863 60.4427 13.7823 62.6251V139.847C13.7849 142.03 14.6532 144.123 16.1967 145.666C17.7402 147.209 19.8328 148.078 22.0156 148.08H136.476C138.659 148.078 140.752 147.209 142.295 145.666C143.839 144.123 144.707 142.03 144.71 139.847V62.6251C144.706 60.4427 143.837 58.3508 142.294 56.8076C140.751 55.2645 138.659 54.3957 136.476 54.3917H22.0156Z" fill="black"/>
<path d="M34.6503 157.623V164.3C34.6529 167.431 35.8972 170.432 38.1101 172.646C40.323 174.859 43.3237 176.105 46.4539 176.109H180.196C183.327 176.105 186.327 174.859 188.54 172.646C190.753 170.432 191.997 167.431 192 164.3V157.623H34.6503Z" fill="black"/>
<path d="M142.535 167.945H116.143C115.595 167.919 115.078 167.683 114.7 167.286C114.322 166.888 114.111 166.361 114.111 165.813C114.111 165.265 114.322 164.737 114.7 164.34C115.078 163.943 115.595 163.707 116.143 163.68H142.53C142.818 163.666 143.107 163.711 143.378 163.812C143.649 163.913 143.897 164.067 144.106 164.267C144.315 164.466 144.482 164.706 144.596 164.972C144.71 165.238 144.768 165.524 144.768 165.813C144.768 166.102 144.71 166.388 144.596 166.654C144.482 166.92 144.315 167.159 144.106 167.359C143.897 167.558 143.649 167.713 143.378 167.814C143.107 167.915 142.818 167.96 142.53 167.945H142.535Z" fill="white"/>
<path d="M144.71 133.2V139.847C144.707 142.03 143.839 144.123 142.295 145.666C140.752 147.21 138.659 148.078 136.476 148.081H22.0156C19.8328 148.078 17.7402 147.21 16.1967 145.666C14.6532 144.123 13.7849 142.03 13.7823 139.847V133.2H10.212V139.847C10.2146 142.977 11.4591 145.978 13.6721 148.191C15.8852 150.404 18.8859 151.648 22.0156 151.651H136.476C139.606 151.648 142.607 150.404 144.82 148.191C147.033 145.978 148.277 142.977 148.28 139.847V133.2H144.71Z" fill="black"/>
<path d="M2.11498 117.972V110.318C2.11498 110.038 2.00357 109.769 1.80525 109.57C1.60693 109.372 1.33796 109.261 1.05749 109.261C0.777028 109.261 0.50805 109.372 0.309732 109.57C0.111414 109.769 0 110.038 0 110.318V117.972C0 118.253 0.111414 118.522 0.309732 118.72C0.50805 118.919 0.777028 119.03 1.05749 119.03C1.33796 119.03 1.60693 118.919 1.80525 118.72C2.00357 118.522 2.11498 118.253 2.11498 117.972Z" fill="black"/>
<path d="M2.11498 103.736V99.5819C2.11498 99.3014 2.00357 99.0325 1.80525 98.8341C1.60693 98.6358 1.33796 98.5244 1.05749 98.5244C0.777028 98.5244 0.50805 98.6358 0.309732 98.8341C0.111414 99.0325 0 99.3014 0 99.5819V103.736C0 104.017 0.111414 104.286 0.309732 104.484C0.50805 104.682 0.777028 104.794 1.05749 104.794C1.33796 104.794 1.60693 104.682 1.80525 104.484C2.00357 104.286 2.11498 104.017 2.11498 103.736Z" fill="black"/>
<path d="M2.11498 93.8003V91.9471C2.11498 91.6667 2.00357 91.3977 1.80525 91.1994C1.60693 91.0011 1.33796 90.8896 1.05749 90.8896C0.777028 90.8896 0.50805 91.0011 0.309732 91.1994C0.111414 91.3977 0 91.6667 0 91.9471V93.8003C0 94.0807 0.111414 94.3497 0.309732 94.548C0.50805 94.7463 0.777028 94.8578 1.05749 94.8578C1.33796 94.8578 1.60693 94.7463 1.80525 94.548C2.00357 94.3497 2.11498 94.0807 2.11498 93.8003Z" fill="black"/>
<path d="M2.11498 87.0626V86.0907C2.11498 85.8102 2.00357 85.5413 1.80525 85.3429C1.60693 85.1446 1.33796 85.0332 1.05749 85.0332C0.777028 85.0332 0.50805 85.1446 0.309732 85.3429C0.111414 85.5413 0 85.8102 0 86.0907V87.0626C0 87.343 0.111414 87.612 0.309732 87.8103C0.50805 88.0087 0.777028 88.1201 1.05749 88.1201C1.33796 88.1201 1.60693 88.0087 1.80525 87.8103C2.00357 87.612 2.11498 87.343 2.11498 87.0626Z" fill="black"/>
<path d="M2.11498 81.4781V80.9745C2.11498 80.694 2.00357 80.425 1.80525 80.2267C1.60693 80.0284 1.33796 79.917 1.05749 79.917C0.777028 79.917 0.50805 80.0284 0.309732 80.2267C0.111414 80.425 0 80.694 0 80.9745V81.4781C0 81.7585 0.111414 82.0275 0.309732 82.2258C0.50805 82.4241 0.777028 82.5355 1.05749 82.5355C1.33796 82.5355 1.60693 82.4241 1.80525 82.2258C2.00357 82.0275 2.11498 81.7585 2.11498 81.4781Z" fill="black"/>
<path d="M108.126 134.192H102.728V128.794C102.728 128.655 102.7 128.517 102.647 128.389C102.594 128.261 102.516 128.144 102.418 128.046C102.32 127.948 102.203 127.87 102.075 127.817C101.946 127.764 101.809 127.736 101.67 127.736C101.531 127.736 101.394 127.764 101.265 127.817C101.137 127.87 101.02 127.948 100.922 128.046C100.824 128.144 100.746 128.261 100.693 128.389C100.64 128.517 100.613 128.655 100.613 128.794V134.192H95.2143C94.9338 134.192 94.6649 134.303 94.4665 134.502C94.2682 134.7 94.1568 134.969 94.1568 135.25C94.1568 135.53 94.2682 135.799 94.4665 135.997C94.6649 136.196 94.9338 136.307 95.2143 136.307H100.613V141.705C100.613 141.986 100.724 142.255 100.922 142.453C101.121 142.651 101.39 142.763 101.67 142.763C101.95 142.763 102.219 142.651 102.418 142.453C102.616 142.255 102.728 141.986 102.728 141.705V136.307H108.126C108.406 136.307 108.675 136.196 108.874 135.997C109.072 135.799 109.183 135.53 109.183 135.25C109.183 134.969 109.072 134.7 108.874 134.502C108.675 134.303 108.406 134.192 108.126 134.192Z" fill="#2563EB"/>
<path d="M60.4986 33.6696C60.3698 33.9187 60.3451 34.2087 60.4301 34.476C60.5151 34.7432 60.7028 34.9658 60.9518 35.0947L77.066 43.4388C77.1889 43.5035 77.3234 43.5432 77.4617 43.5556C77.6 43.5681 77.7394 43.5531 77.8719 43.5114C78.0043 43.4697 78.1272 43.4023 78.2335 43.3129C78.3398 43.2235 78.4273 43.114 78.4911 42.9906C78.5211 42.9347 78.5447 42.8756 78.5616 42.8144C78.6371 42.5795 78.6282 42.3255 78.5362 42.0965C78.4442 41.8675 78.2751 41.6779 78.058 41.5605L61.9439 33.2164C61.8198 33.1487 61.6833 33.1067 61.5426 33.0929C61.4019 33.0791 61.2599 33.0938 61.125 33.1361C60.9901 33.1784 60.8651 33.2474 60.7575 33.3391C60.6499 33.4308 60.5619 33.5432 60.4986 33.6696Z" fill="black"/>
<path d="M109.682 2.21707C109.543 2.22288 109.407 2.25608 109.281 2.31474C109.156 2.3734 109.043 2.45638 108.949 2.55888C108.855 2.66138 108.783 2.7814 108.736 2.912C108.689 3.04261 108.668 3.18123 108.675 3.31988L109.496 21.4483C109.508 21.6961 109.607 21.9318 109.775 22.1141C109.943 22.2964 110.17 22.4137 110.416 22.4455C110.662 22.4773 110.912 22.4216 111.121 22.2881C111.33 22.1546 111.486 21.9518 111.56 21.7152C111.6 21.5987 111.617 21.4756 111.611 21.3526L110.785 3.2242C110.779 3.08551 110.746 2.94933 110.687 2.82352C110.629 2.69771 110.546 2.58474 110.443 2.49113C110.341 2.39752 110.221 2.32511 110.09 2.27807C109.959 2.23104 109.821 2.21031 109.682 2.21707Z" fill="black"/>
<path d="M80.8929 11.3513C80.7754 11.4255 80.6737 11.5224 80.5938 11.6361C80.5139 11.7499 80.4573 11.8784 80.4273 12.0142C80.3973 12.15 80.3946 12.2904 80.4192 12.4273C80.4438 12.5641 80.4953 12.6948 80.5707 12.8116L90.3399 28.0898C90.4141 28.2074 90.511 28.3091 90.6248 28.389C90.7386 28.4689 90.8671 28.5255 91.0028 28.5555C91.1386 28.5854 91.279 28.5882 91.4159 28.5636C91.5527 28.539 91.6834 28.4875 91.8002 28.4121C92.0075 28.2775 92.158 28.0714 92.2232 27.833C92.2701 27.6859 92.2841 27.5301 92.2641 27.377C92.244 27.2238 92.1906 27.0769 92.1074 26.9467L82.3382 11.6685C82.1866 11.4371 81.9505 11.2743 81.6803 11.215C81.4101 11.1557 81.1275 11.2046 80.8929 11.3513Z" fill="black"/>
<path d="M171.248 57.6898C174.992 66.7252 175.972 76.6679 174.066 86.2606C172.159 95.8533 167.45 104.665 160.535 111.582C153.62 118.498 144.81 123.209 135.217 125.118C125.625 127.027 115.682 126.049 106.646 122.308C97.6095 118.566 89.8856 112.229 84.451 104.097C79.0163 95.9657 76.115 86.4053 76.1139 76.625C76.1128 66.8446 79.0119 57.2835 84.4447 49.1508C89.8774 41.0181 97.5998 34.6791 106.635 30.9353C118.751 25.915 132.365 25.9135 144.483 30.9309C156.6 35.9483 166.228 45.5738 171.248 57.6898Z" fill="#2563EB"/>
<path d="M106.278 117.382L72.886 134.67L90.1734 101.278L106.278 117.382Z" fill="#2563EB"/>
<path d="M101.977 56.5619C105.81 54.4059 110.283 53.6781 114.601 54.5078C118.919 55.3376 122.804 57.6711 125.565 61.094C128.325 57.6711 132.21 55.3376 136.528 54.5078C140.846 53.6781 145.319 54.4059 149.152 56.5619C158.1 61.5976 160.134 72.379 156.237 81.8762C151.201 94.1734 140.148 102.321 125.565 112.831C110.961 102.321 99.938 94.1985 94.8923 81.8762C90.9947 72.379 93.0291 61.5724 101.977 56.5619Z" fill="white"/>
<path d="M125.564 115.007L124.557 114.261C110.649 104.24 98.6337 95.5789 93.2858 82.5365C88.7537 71.458 91.9816 60.168 101.136 55.0165C105.024 52.8271 109.523 51.9757 113.941 52.5935C118.359 53.2114 122.452 55.2641 125.59 58.4357C128.727 55.2715 132.815 53.2242 137.228 52.6084C141.641 51.9925 146.134 52.8421 150.018 55.0266C159.173 60.1781 162.405 71.4932 157.868 82.5465C152.52 95.5789 140.505 104.24 126.597 114.271L125.564 115.007ZM111.077 55.933C108.192 55.9354 105.356 56.6812 102.844 58.0983C100.972 59.1317 99.3369 60.5442 98.0423 62.2454C96.7478 63.9466 95.8224 65.8992 95.3253 67.9783C94.2879 72.0925 94.7109 76.7958 96.5237 81.2071C98.7546 86.6506 102.355 91.5856 107.859 96.7421C112.608 101.189 118.233 105.368 125.564 110.661C132.896 105.368 138.521 101.189 143.275 96.7421C148.774 91.5856 152.4 86.6506 154.61 81.2121C156.418 76.8008 156.841 72.0975 155.804 67.9834C155.307 65.9042 154.381 63.9516 153.087 62.2504C151.792 60.5492 150.157 59.1368 148.285 58.1034C144.818 56.1496 140.77 55.4893 136.861 56.2399C132.952 56.9904 129.437 59.1033 126.939 62.2024L125.564 63.9095L124.2 62.1974C122.624 60.2335 120.626 58.6503 118.354 57.5657C116.082 56.4811 113.595 55.923 111.077 55.933Z" fill="black"/>
<path d="M181.894 187.489L174.969 182.635C174.791 182.511 174.579 182.445 174.363 182.445C174.146 182.445 173.934 182.511 173.756 182.635L167.441 187.066L161.121 182.635C160.943 182.511 160.731 182.445 160.515 182.445C160.298 182.445 160.086 182.511 159.908 182.635L153.593 187.066L147.278 182.635C147.1 182.511 146.888 182.445 146.671 182.445C146.455 182.445 146.243 182.511 146.065 182.635L139.745 187.066L133.43 182.635C133.252 182.511 133.04 182.445 132.823 182.445C132.607 182.445 132.395 182.511 132.217 182.635L125.902 187.066L119.582 182.635C119.404 182.511 119.192 182.445 118.975 182.445C118.758 182.445 118.547 182.511 118.368 182.635L111.444 187.489C111.261 187.619 111.124 187.804 111.052 188.017C110.981 188.23 110.979 188.461 111.047 188.675C111.114 188.89 111.248 189.077 111.429 189.21C111.61 189.344 111.829 189.416 112.054 189.418C112.272 189.417 112.485 189.348 112.663 189.221L118.978 184.795L125.293 189.221C125.47 189.346 125.682 189.414 125.899 189.414C126.117 189.414 126.329 189.346 126.506 189.221L132.826 184.795L139.141 189.221C139.318 189.346 139.53 189.414 139.747 189.414C139.965 189.414 140.177 189.346 140.354 189.221L146.669 184.795L152.984 189.221C153.161 189.346 153.373 189.414 153.59 189.414C153.808 189.414 154.02 189.346 154.197 189.221L160.517 184.795L166.832 189.221C167.009 189.346 167.221 189.414 167.439 189.414C167.656 189.414 167.868 189.346 168.045 189.221L174.36 184.795L180.68 189.221C180.91 189.382 181.194 189.445 181.47 189.397C181.746 189.348 181.992 189.192 182.153 188.962C182.314 188.732 182.377 188.448 182.328 188.172C182.28 187.895 182.123 187.65 181.894 187.489Z" fill="#2563EB"/>
<path d="M161.862 121.235C161.644 121.235 161.432 121.169 161.255 121.044C161.077 120.92 160.941 120.743 160.867 120.539C160.793 120.335 160.783 120.113 160.839 119.904C160.896 119.694 161.015 119.507 161.182 119.367C169.584 112.361 175.735 103.034 178.865 92.5514C181.996 82.0689 181.967 70.8962 178.782 60.4301C175.597 49.964 169.397 40.669 160.959 33.707C152.52 26.7451 142.216 22.4251 131.335 21.2872C131.197 21.273 131.063 21.2317 130.941 21.1657C130.819 21.0997 130.711 21.0102 130.623 20.9024C130.446 20.6847 130.362 20.4056 130.391 20.1265C130.42 19.8474 130.558 19.5911 130.776 19.414C130.994 19.2369 131.273 19.1536 131.552 19.1823C142.845 20.3666 153.538 24.8526 162.296 32.0796C171.053 39.3067 177.487 48.9543 180.793 59.8171C184.099 70.6798 184.13 82.2759 180.883 93.1564C177.636 104.037 171.255 113.719 162.536 120.994C162.346 121.15 162.108 121.235 161.862 121.235Z" fill="#2563EB"/>
<path d="M42.7828 139.539C42.7828 139.564 44.4094 141.846 46.8819 141.961C48.3926 142.032 49.7472 141.312 50.9759 139.821C52.4866 137.963 53.4937 137.606 53.9973 137.631C54.7929 137.666 55.508 138.638 56.1223 139.539C56.1223 139.539 57.7489 141.846 60.2214 141.961C61.7321 142.032 63.0917 141.312 64.3154 139.821C65.2369 138.703 66.1534 138.149 67.0498 138.165C68.4245 138.195 69.482 139.554 69.5021 139.58C69.6697 139.805 69.9199 139.954 70.1975 139.994C70.4752 140.035 70.7576 139.964 70.9826 139.796C71.2077 139.628 71.3569 139.378 71.3975 139.101C71.4381 138.823 71.3668 138.541 71.1992 138.316C71.1287 138.225 69.5323 136.11 67.1102 136.05C65.529 136.014 64.0384 136.83 62.6838 138.477C61.9134 139.413 61.1328 139.872 60.3573 139.851C59.2092 139.821 58.1517 138.734 57.8395 138.341C57.1446 137.334 55.9864 135.601 54.0728 135.511C52.5621 135.44 51.0061 136.412 49.3091 138.472C48.5386 139.408 47.7581 139.867 46.9826 139.846C45.8294 139.816 44.777 138.729 44.4648 138.336C43.7698 137.329 42.6116 135.596 40.6981 135.506C39.1874 135.435 37.6313 136.407 35.9343 138.467C35.1639 139.403 34.3833 139.862 33.6078 139.841C32.4547 139.811 31.4022 138.723 31.09 138.331C30.3951 137.324 29.2369 135.591 27.3233 135.501C25.8126 135.43 24.2566 136.402 22.5596 138.462C22.4001 138.648 22.3142 138.886 22.3179 139.131C22.3175 139.349 22.3844 139.562 22.5096 139.74C22.6347 139.919 22.8119 140.054 23.017 140.128C23.222 140.202 23.4449 140.211 23.655 140.153C23.8652 140.095 24.0525 139.974 24.1911 139.806C25.7018 137.948 26.709 137.59 27.2125 137.616C28.0082 137.651 28.7232 138.623 29.3376 139.524C29.3376 139.524 30.9591 141.83 33.4366 141.946C34.9473 142.017 36.3019 141.297 37.5306 139.806C39.0413 137.948 40.0485 137.59 40.552 137.616C41.4534 137.666 42.1685 138.618 42.7828 139.539Z" fill="#2563EB"/>
</svg>
