<svg width="144" height="192" viewBox="0 0 144 192" fill="none" xmlns="http://www.w3.org/2000/svg">
<g id="Group">
<g id="Group_2">
<g id="Group_3">
<path id="Vector" d="M141.59 132C141.287 130.934 141.046 129.708 140.071 129.2C139.932 129.113 139.786 129.038 139.634 128.972C139.331 128.843 139.003 128.758 138.666 128.727C138.449 128.709 138.233 128.718 138.02 128.759C137.848 128.776 137.678 128.828 137.528 128.912C137.379 128.995 137.252 129.108 137.166 129.248C136.735 130.291 137.279 131.658 138.41 131.994C138.523 132.023 138.633 132.026 138.741 132.012C138.849 131.999 138.954 131.967 139.06 131.926C139.308 131.828 139.56 131.718 139.812 131.636C139.939 131.596 140.063 131.563 140.188 131.54C140.627 131.502 140.969 131.589 141.254 131.817C141.361 131.874 141.472 131.935 141.59 131.995V132Z" fill="black"/>
<path id="Vector_2" d="M142.398 131.874C142.114 130.867 141.892 129.743 141.117 128.979C140.273 128.147 138.954 127.744 137.789 127.97C137.173 128.089 136.567 128.468 136.355 129.086C136.195 129.554 136.157 130.078 136.254 130.565C136.449 131.545 137.135 132.471 138.122 132.764C138.816 132.97 139.391 132.649 140.032 132.428C140.194 132.372 140.415 132.33 140.584 132.379C140.796 132.441 141.046 132.634 141.302 132.767C141.693 132.972 142.213 132.667 142.355 132.29C142.527 131.835 142.27 131.443 141.879 131.237C141.633 131.107 141.505 130.978 141.207 130.863C140.946 130.763 140.664 130.722 140.388 130.724C139.801 130.727 139.27 130.97 138.733 131.181C138.7 131.206 138.659 131.214 138.615 131.207C138.689 131.209 138.675 131.207 138.577 131.199C138.723 131.232 138.335 131.073 138.487 131.157C138.412 131.116 138.343 131.06 138.274 131.009C138.197 130.942 138.187 130.935 138.243 130.986C138.204 130.945 138.166 130.901 138.13 130.857C137.959 130.644 137.833 130.278 137.835 130.046C137.835 129.946 137.845 129.844 137.863 129.746C137.84 129.87 137.959 129.567 137.884 129.651C137.837 129.703 137.978 129.607 137.948 129.616C138.048 129.577 138.14 129.564 138.253 129.551C138.697 129.5 139.142 129.621 139.536 129.831C139.94 130.047 140.15 130.305 140.332 130.719C140.53 131.173 140.646 131.653 140.781 132.128C140.9 132.552 141.243 132.883 141.716 132.808C142.113 132.746 142.518 132.3 142.396 131.873L142.398 131.874Z" fill="black"/>
</g>
<path id="Vector_3" d="M123.53 139.144C127.221 141.126 130.832 143.886 135.2 144.154C137.209 144.277 139.347 143.994 140.938 142.668C142.36 141.484 143.26 139.706 143.438 137.869C143.684 135.34 142.639 132.892 142.019 130.493C141.91 130.065 141.549 129.739 141.084 129.813C140.679 129.877 140.292 130.318 140.404 130.749C140.935 132.805 141.779 134.928 141.841 137.022C141.864 137.786 141.721 138.523 141.443 139.237C141.279 139.658 141.162 139.88 140.956 140.201C140.846 140.369 140.73 140.533 140.604 140.691C140.542 140.769 140.478 140.846 140.41 140.922C140.383 140.954 140.353 140.986 140.324 141.017C140.219 141.13 140.463 140.889 140.266 141.074C139.653 141.654 139.144 142.001 138.341 142.259C138.243 142.29 138.079 142.329 137.899 142.363C137.658 142.408 137.415 142.432 137.173 142.465C136.68 142.531 136.185 142.558 135.687 142.544C133.696 142.483 131.819 141.818 130.047 140.948C128.017 139.95 126.107 138.69 124.105 137.615C123.715 137.406 123.192 137.719 123.051 138.092C122.878 138.551 123.138 138.936 123.528 139.146L123.53 139.144Z" fill="black"/>
<g id="Group_4">
<path id="Vector_4" d="M123.763 138.266C123.979 138.271 124.193 138.271 124.405 138.262C126.196 138.153 128.134 137.25 129.928 137.389C130.185 137.409 130.437 137.451 130.691 137.523C131.465 137.723 132.043 138.133 132.494 138.662C132.644 138.841 132.782 139.031 132.913 139.237C133.07 139.449 133.203 139.68 133.318 139.924C133.831 141.175 134.307 142.773 135.761 143.282C134.538 143.146 133.398 142.752 132.33 142.19C132.135 142.09 131.945 141.988 131.756 141.885C131.378 141.678 131.003 141.472 130.623 141.279C130.378 141.149 130.138 141.021 129.897 140.895C129.656 140.769 129.417 140.646 129.176 140.525C128.966 140.414 128.756 140.302 128.548 140.191C127.087 139.412 125.599 138.685 124.008 138.331C123.92 138.31 123.838 138.287 123.759 138.264L123.763 138.266Z" fill="black"/>
<path id="Vector_5" d="M123.681 139.08C124.664 139.1 125.593 138.949 126.545 138.723C127.46 138.505 128.383 138.246 129.328 138.195C130.144 138.151 131.09 138.38 131.709 139.011C132.415 139.729 132.687 140.628 133.088 141.521C133.583 142.624 134.306 143.614 135.476 144.051C135.598 143.525 135.721 142.997 135.846 142.472C133.685 142.214 131.871 141.005 129.984 140.027C129.03 139.534 128.09 139.011 127.113 138.561C126.605 138.326 126.089 138.11 125.56 137.928C125.063 137.756 124.544 137.645 124.053 137.501C123.628 137.376 123.163 137.542 122.999 137.977C122.852 138.367 123.05 138.906 123.476 139.031C123.979 139.178 124.487 139.286 124.983 139.458C125.512 139.64 126.028 139.857 126.536 140.091C127.547 140.558 128.522 141.097 129.508 141.61C130.493 142.123 131.458 142.688 132.461 143.166C133.475 143.648 134.565 143.966 135.68 144.099C136.601 144.208 136.919 142.843 136.051 142.519C135.23 142.211 134.828 141.444 134.483 140.627C134.294 140.181 134.147 139.714 133.911 139.291C133.636 138.801 133.308 138.313 132.911 137.913C132.087 137.081 130.988 136.611 129.816 136.567C128.838 136.529 127.883 136.724 126.938 136.952C125.914 137.197 124.885 137.474 123.844 137.455C123.404 137.447 122.996 137.722 122.948 138.187C122.907 138.6 123.237 139.073 123.681 139.083V139.08Z" fill="black"/>
</g>
</g>
<g id="Group_5">
<g id="Group_6">
<path id="Vector_6" d="M2.93262 135.815C3.3668 134.794 3.75673 133.608 4.78893 133.226C4.93803 133.157 5.09205 133.1 5.25098 133.054C5.56883 132.962 5.90305 132.92 6.24221 132.931C6.45848 132.941 6.67311 132.977 6.87955 133.044C7.04831 133.082 7.21051 133.155 7.34813 133.257C7.48576 133.359 7.59718 133.486 7.666 133.636C7.96255 134.725 7.25476 136.013 6.09148 136.206C5.97516 136.221 5.86538 136.211 5.76052 136.183C5.65566 136.155 5.55408 136.113 5.45414 136.059C5.21985 135.931 4.98392 135.79 4.74471 135.679C4.62511 135.623 4.50549 135.574 4.38425 135.536C3.95335 135.444 3.60274 135.487 3.29144 135.679C3.17839 135.723 3.06042 135.769 2.9359 135.815H2.93262Z" fill="black"/>
<path id="Vector_7" d="M2.14628 135.589C2.55261 134.624 2.91307 133.537 3.77652 132.875C4.71697 132.154 6.07686 131.918 7.20245 132.287C7.80047 132.482 8.35424 132.934 8.48696 133.572C8.5869 134.057 8.56068 134.583 8.40503 135.053C8.09046 136.001 7.29419 136.834 6.27838 137.002C5.56403 137.12 5.03317 136.731 4.42368 136.432C4.26967 136.357 4.05505 136.288 3.88138 136.316C3.66347 136.352 3.38985 136.511 3.12115 136.613C2.70663 136.768 2.22985 136.4 2.13482 136.008C2.02177 135.535 2.32489 135.177 2.73941 135.022C2.99992 134.923 3.14082 134.812 3.45211 134.735C3.72245 134.668 4.00753 134.663 4.28278 134.699C4.86442 134.774 5.36086 135.081 5.86713 135.359C5.89826 135.387 5.93594 135.4 5.98182 135.4C5.90809 135.394 5.92119 135.392 6.0195 135.397C5.87204 135.412 6.2751 135.302 6.11454 135.366C6.19482 135.335 6.26855 135.287 6.34392 135.244C6.42912 135.187 6.44058 135.182 6.37668 135.225C6.42092 135.189 6.46352 135.151 6.50448 135.11C6.69945 134.92 6.86983 134.573 6.89768 134.342C6.90915 134.243 6.91244 134.14 6.90752 134.04C6.91408 134.166 6.83378 133.85 6.89768 133.944C6.93864 134.003 6.81085 133.888 6.8387 133.903C6.74367 133.852 6.65521 133.826 6.5438 133.799C6.10962 133.693 5.65251 133.758 5.23635 133.917C4.80708 134.081 4.56788 134.311 4.33522 134.701C4.08127 135.125 3.90595 135.589 3.71426 136.042C3.54222 136.449 3.1621 136.734 2.70171 136.601C2.31668 136.49 1.97099 135.998 2.14302 135.589H2.14628Z" fill="black"/>
</g>
<path id="Vector_8" d="M19.9658 145.147C16.0565 146.654 12.1309 148.945 7.76451 148.668C5.75582 148.54 3.67012 147.993 2.25617 146.481C0.991314 145.129 0.319564 143.253 0.371994 141.408C0.442445 138.867 1.78432 136.568 2.69691 134.265C2.85912 133.855 3.2556 133.575 3.70944 133.706C4.10266 133.819 4.43199 134.306 4.26815 134.718C3.48662 136.693 2.38398 138.695 2.06285 140.764C1.94652 141.519 1.99567 142.268 2.18245 143.012C2.29386 143.45 2.38069 143.684 2.54617 144.028C2.63301 144.21 2.72968 144.387 2.83453 144.557C2.88696 144.642 2.94103 144.728 2.99674 144.809C3.02131 144.846 3.04588 144.88 3.07046 144.914C3.16057 145.04 2.94758 144.77 3.11962 144.978C3.65538 145.63 4.11741 146.037 4.88255 146.392C4.97594 146.435 5.13322 146.495 5.30853 146.551C5.54119 146.625 5.78041 146.681 6.01634 146.741C6.49803 146.867 6.98463 146.957 7.48107 147.003C9.46355 147.19 11.4083 146.764 13.2761 146.12C15.4159 145.383 17.4656 144.37 19.5857 143.551C19.9986 143.392 20.4786 143.767 20.572 144.156C20.6867 144.633 20.3819 144.983 19.9674 145.142L19.9658 145.147Z" fill="black"/>
<g id="Group_7">
<path id="Vector_9" d="M19.8444 144.246C19.6297 144.225 19.4167 144.197 19.207 144.163C17.4425 143.832 15.632 142.694 13.8363 142.611C13.5791 142.599 13.3219 142.609 13.0614 142.649C12.2684 142.75 11.6441 143.086 11.1313 143.555C10.9593 143.712 10.7987 143.886 10.6447 144.072C10.4612 144.262 10.3023 144.475 10.1564 144.703C9.49124 145.881 8.82113 147.408 7.31543 147.733C8.54424 147.749 9.72553 147.5 10.856 147.074C11.0608 147 11.2624 146.922 11.4639 146.843C11.8653 146.686 12.2634 146.528 12.6632 146.383C12.9204 146.284 13.176 146.188 13.43 146.093C13.684 145.998 13.9379 145.904 14.1918 145.814C14.4147 145.73 14.6342 145.645 14.8554 145.56C16.4021 144.97 17.9684 144.433 19.5904 144.279C19.6805 144.269 19.7641 144.256 19.846 144.243L19.8444 144.246Z" fill="black"/>
<path id="Vector_10" d="M19.8246 145.064C18.8481 144.96 17.9437 144.697 17.0278 144.353C16.1463 144.022 15.2632 143.651 14.3326 143.483C13.5282 143.337 12.5615 143.448 11.8685 143.997C11.0787 144.621 10.697 145.48 10.1891 146.315C9.56157 147.349 8.72106 148.241 7.507 148.529C7.44965 147.991 7.39394 147.454 7.3366 146.915C9.51241 146.93 11.4621 145.953 13.4577 145.218C14.4653 144.846 15.4631 144.446 16.4871 144.12C17.0196 143.951 17.5587 143.8 18.1059 143.686C18.6203 143.578 19.1496 143.53 19.6558 143.45C20.0917 143.379 20.5324 143.602 20.6421 144.054C20.7388 144.459 20.475 144.97 20.0376 145.041C19.5198 145.124 19.0021 145.168 18.4876 145.277C17.9404 145.391 17.4014 145.542 16.8689 145.711C15.8088 146.048 14.7734 146.461 13.7297 146.85C12.6877 147.236 11.662 147.677 10.6069 148.026C9.54026 148.378 8.41959 148.558 7.29564 148.55C6.36829 148.544 6.22247 147.151 7.12523 146.936C7.97885 146.733 8.47202 146.022 8.91603 145.254C9.15851 144.836 9.36167 144.39 9.65003 144C9.98263 143.548 10.3693 143.104 10.8133 142.757C11.7341 142.034 12.8826 141.703 14.0508 141.805C15.0257 141.888 15.9497 142.201 16.8591 142.544C17.8454 142.914 18.8317 143.317 19.8672 143.427C20.3063 143.473 20.6766 143.797 20.6651 144.264C20.6553 144.679 20.2686 145.108 19.8279 145.062L19.8246 145.064Z" fill="black"/>
</g>
</g>
<path id="Vector_11" opacity="0.05" d="M49.7342 188.939C49.4557 191 53.0192 191.319 54.3906 191.575C59.2534 192.479 64.1981 191.749 69.0527 191.156C69.6032 191.051 70.1521 190.951 70.7042 190.866C75.7751 190.086 80.7379 191.459 85.7973 191.614C89.9998 191.744 94.2286 191.677 98.418 191.133C99.0849 191.046 100.24 190.957 100.663 190.135C101.087 189.307 100.646 188.675 100.029 188.395C97.0385 187.04 93.7895 187.038 90.6683 186.896C84.3129 186.606 78.0378 188.524 71.7037 188.046C70.2946 187.939 68.9004 187.651 67.5044 187.379C67.0391 187.289 66.5738 187.2 66.1069 187.122C63.4461 186.67 60.728 186.593 58.036 186.75C56.6614 186.83 55.29 186.951 53.9269 187.135C52.8029 187.287 51.2891 187.309 50.3355 187.977C49.9767 188.228 49.785 188.577 49.7358 188.94L49.7342 188.939Z" fill="black"/>
<g id="Group_8">
<path id="Vector_12" d="M79.132 165.008C79.3712 165.637 79.617 166.27 79.8251 166.92L79.807 166.883C79.8431 166.96 79.8955 167.074 79.9217 167.173C80.1838 167.926 80.4378 168.681 80.6836 169.437C81.1817 170.97 81.6469 172.509 82.091 174.051C82.9724 177.118 83.7622 180.195 84.5371 183.272C84.9762 185.015 85.4104 186.758 85.8528 188.5C85.9986 189.073 86.5114 189.602 86.9554 189.55C87.3962 189.498 87.6698 189.019 87.5141 188.406C85.9331 182.184 84.4634 175.94 82.4809 169.761C82.1909 168.857 81.8895 167.954 81.5765 167.053C81.2636 166.153 80.9375 165.252 80.5967 164.35C80.3821 163.779 79.7284 163.424 79.3712 163.611C78.9518 163.829 78.8994 164.389 79.1337 165.008H79.132Z" fill="black"/>
<g id="Group_9">
<path id="Vector_13" d="M86.854 188.929C87.0621 188.949 87.2751 188.957 87.4897 188.954C87.7044 188.951 87.9206 188.938 88.1369 188.913C88.8824 188.744 89.8703 188.538 90.6715 188.13C90.8714 188.028 91.0598 187.914 91.2302 187.784C91.3547 187.692 91.4907 187.583 91.6169 187.461C91.743 187.34 91.8627 187.206 91.9544 187.065C92.2805 186.644 92.0511 186.144 91.6906 185.834C91.2433 185.522 90.7944 185.299 90.2718 185.287C90.1325 185.281 89.9932 185.287 89.8572 185.302C88.6268 185.44 87.5454 186.372 87.1227 187.617C87.0834 187.722 87.0473 187.828 87.0146 187.937C87.0244 188.176 86.8606 188.381 86.8688 188.62C86.8573 188.721 86.854 188.823 86.854 188.926V188.929Z" fill="black"/>
<path id="Vector_14" d="M86.7886 189.613C87.3735 189.663 87.9732 189.652 88.5466 189.522C89.1201 189.393 89.6919 189.249 90.2456 189.054C90.8207 188.851 91.3647 188.567 91.8382 188.182C92.2822 187.822 92.7606 187.314 92.795 186.711C92.8606 185.525 91.5564 184.738 90.516 184.619C89.4478 184.496 88.3304 184.94 87.5701 185.682C87.1245 186.116 86.7739 186.631 86.5429 187.211C86.4953 187.33 86.4527 187.453 86.4118 187.574C86.379 187.671 86.3446 187.773 86.3315 187.874C86.3315 187.91 86.3315 187.946 86.3249 187.982C86.3462 187.899 86.3462 187.894 86.3249 187.968C86.2135 188.258 86.1742 188.554 86.1709 188.864C86.1677 189.223 86.397 189.593 86.7886 189.613C87.1343 189.631 87.5341 189.378 87.5374 188.995C87.5374 188.892 87.5456 188.792 87.5521 188.689C87.5554 188.652 87.5865 188.494 87.5439 188.646C87.5537 188.612 87.5652 188.577 87.5767 188.543C87.6193 188.418 87.657 188.297 87.6799 188.164C87.6799 188.164 87.6947 187.995 87.6865 188.084C87.6701 188.131 87.6734 188.118 87.6979 188.045C87.7127 188.002 87.7274 187.959 87.7422 187.917C87.7766 187.819 87.8126 187.72 87.8519 187.624C87.8683 187.586 87.8847 187.548 87.9011 187.512C87.8978 187.517 87.9863 187.34 87.9404 187.427C87.8946 187.514 87.9896 187.34 87.9879 187.345C88.0142 187.302 88.0404 187.258 88.0666 187.217C88.1256 187.125 88.1895 187.035 88.2566 186.949C88.2927 186.901 88.332 186.857 88.3697 186.811C88.2779 186.904 88.3533 186.831 88.3697 186.811C88.4385 186.74 88.5089 186.672 88.5827 186.606C88.6564 186.542 88.7318 186.48 88.8104 186.423C88.8415 186.4 88.8743 186.378 88.9054 186.355C88.9726 186.311 88.9693 186.311 88.8972 186.359C88.93 186.339 88.9644 186.319 88.9972 186.3C89.1479 186.215 89.3068 186.141 89.469 186.082C89.4969 186.072 89.6788 186.026 89.5133 186.065C89.551 186.057 89.587 186.046 89.6247 186.038C89.7378 186.011 89.8508 185.992 89.9671 185.979C89.9491 185.98 90.1736 185.964 90.0851 185.967C89.9966 185.97 90.2227 185.97 90.2047 185.97C90.3046 185.974 90.4013 185.984 90.4996 186C90.5242 186.006 90.6274 186.02 90.4996 186C90.5553 186.016 90.611 186.033 90.6651 186.052C90.7011 186.065 90.7372 186.08 90.7733 186.095C90.7929 186.103 90.9764 186.188 90.9092 186.154C90.8207 186.11 90.9928 186.201 90.9895 186.2C91.0239 186.221 91.0583 186.241 91.0927 186.264C91.1452 186.296 91.1943 186.334 91.2484 186.365C91.3647 186.436 91.268 186.375 91.2435 186.35C91.2762 186.383 91.404 186.491 91.4073 186.546C91.3925 186.523 91.3778 186.498 91.3614 186.475C91.3778 186.503 91.3925 186.532 91.4073 186.564C91.4138 186.578 91.4204 186.593 91.427 186.608C91.4532 186.681 91.4499 186.668 91.4155 186.57C91.4073 186.57 91.44 186.657 91.4302 186.663C91.4302 186.636 91.4286 186.608 91.4286 186.58C91.4286 186.611 91.4253 186.644 91.4188 186.675C91.4253 186.542 91.4237 186.601 91.4188 186.645C91.4302 186.624 91.4417 186.604 91.4548 186.583C91.4368 186.614 91.4155 186.645 91.3925 186.675C91.368 186.709 91.3434 186.745 91.3188 186.78C91.3123 186.788 91.1746 186.947 91.268 186.847C91.1877 186.934 91.0993 187.012 91.0092 187.089C90.9191 187.165 90.8257 187.237 90.7306 187.306C90.7306 187.306 90.534 187.432 90.6438 187.366C90.6012 187.393 90.5586 187.415 90.516 187.44C90.2883 187.566 90.049 187.671 89.8049 187.761C89.6837 187.807 89.5592 187.85 89.4346 187.889C89.3068 187.93 89.5919 187.846 89.374 187.907C89.3069 187.927 89.2381 187.946 89.1709 187.964C88.9104 188.035 88.6482 188.097 88.3861 188.158C88.1452 188.213 87.9125 188.253 87.6668 188.271C87.4374 188.287 87.7274 188.271 87.5947 188.274C87.5111 188.276 87.4292 188.276 87.3457 188.274C87.2048 188.271 87.0638 188.263 86.9246 188.251C86.5674 188.22 86.1955 188.497 86.1759 188.869C86.1562 189.237 86.4118 189.585 86.7935 189.618L86.7886 189.613Z" fill="black"/>
</g>
</g>
<g id="Group_10">
<path id="Vector_15" d="M61.7684 163.933C61.7979 164.331 61.829 164.729 61.8618 165.128C61.8781 165.316 61.8945 165.504 61.9109 165.693C61.9191 165.776 61.9257 165.86 61.9339 165.944C61.9191 165.79 61.9552 166.158 61.9584 166.201C62.0354 166.994 62.1223 167.785 62.2173 168.575C62.409 170.176 62.6318 171.768 62.876 173.354C63.3626 176.508 63.9376 179.632 64.5242 182.75C64.8568 184.517 65.1943 186.281 65.5236 188.049C65.6318 188.631 65.3876 189.327 64.9633 189.466C64.5422 189.604 64.0917 189.284 63.9753 188.662C62.8006 182.351 61.5144 176.066 60.7214 169.625C60.6051 168.683 60.5002 167.736 60.4069 166.787C60.3135 165.839 60.2315 164.888 60.1627 163.935C60.1185 163.334 60.5609 162.755 60.9623 162.781C61.4341 162.811 61.7192 163.291 61.7684 163.935V163.933Z" fill="black"/>
<g id="Group_11">
<path id="Vector_16" d="M64.7959 188.857C64.614 188.961 64.4256 189.058 64.229 189.145C64.034 189.232 63.8308 189.31 63.6244 189.379C62.8756 189.538 61.8942 189.766 60.9964 189.731C60.7719 189.723 60.5523 189.699 60.3443 189.653C60.1919 189.622 60.0248 189.579 59.8577 189.522C59.6922 189.464 59.5284 189.392 59.3842 189.304C58.9107 189.058 58.9107 188.509 59.1073 188.077C59.3826 187.606 59.6955 187.213 60.1657 186.984C60.2902 186.92 60.418 186.868 60.5474 186.823C61.7222 186.432 63.0952 186.823 64.0012 187.779C64.0815 187.857 64.1585 187.939 64.2339 188.024C64.324 188.245 64.5599 188.363 64.6517 188.585C64.7041 188.673 64.7516 188.763 64.7942 188.857H64.7959Z" fill="black"/>
<path id="Vector_17" d="M65.1417 189.45C64.6321 189.741 64.0833 189.982 63.5082 190.105C62.9331 190.228 62.3548 190.336 61.7682 190.392C61.162 190.449 60.5492 190.42 59.9577 190.269C59.404 190.126 58.7568 189.869 58.4733 189.335C57.9163 188.285 58.7699 187.025 59.6628 186.479C60.5803 185.921 61.7813 185.853 62.784 186.207C63.3706 186.415 63.9063 186.735 64.3585 187.164C64.4519 187.253 64.542 187.346 64.6305 187.439C64.701 187.515 64.7747 187.592 64.8288 187.679C64.8419 187.711 64.8599 187.744 64.8796 187.774C64.8255 187.707 64.8238 187.702 64.873 187.761C65.0958 187.977 65.2564 188.231 65.3891 188.509C65.5431 188.834 65.489 189.266 65.1433 189.448C64.8369 189.61 64.3683 189.548 64.2045 189.202C64.1603 189.109 64.1111 189.021 64.062 188.93C64.044 188.899 63.9489 188.768 64.0521 188.889C64.0292 188.862 64.003 188.835 63.9784 188.809C63.8883 188.712 63.8015 188.619 63.7261 188.509C63.7261 188.509 63.6425 188.362 63.6868 188.439C63.7212 188.475 63.713 188.465 63.6605 188.409C63.6294 188.377 63.5983 188.344 63.5672 188.313C63.4951 188.237 63.4213 188.164 63.3443 188.093C63.3148 188.065 63.2837 188.039 63.2526 188.013C63.2575 188.018 63.1035 187.892 63.1805 187.952C63.2575 188.011 63.0986 187.895 63.1035 187.898C63.0625 187.87 63.0199 187.843 62.9773 187.815C62.8839 187.756 62.7889 187.702 62.6923 187.651C62.6398 187.623 62.5858 187.598 62.5317 187.574C62.5563 187.585 62.6546 187.621 62.5317 187.574C62.4399 187.539 62.3466 187.507 62.2532 187.477C62.1598 187.449 62.0648 187.425 61.9697 187.405C61.932 187.397 61.8927 187.392 61.855 187.384C61.7748 187.371 61.778 187.371 61.8648 187.384C61.8272 187.379 61.7878 187.376 61.7485 187.372C61.5765 187.359 61.4012 187.359 61.2292 187.372C61.1997 187.376 61.0162 187.41 61.1833 187.376C61.1456 187.384 61.1079 187.389 61.0702 187.397C60.9572 187.42 60.8441 187.449 60.736 187.487C60.7524 187.482 60.5427 187.559 60.6246 187.526C60.7065 187.492 60.5017 187.587 60.5181 187.579C60.4296 187.623 60.346 187.674 60.2625 187.728C60.156 187.798 60.2428 187.744 60.2625 187.726C60.2182 187.764 60.1757 187.802 60.1331 187.843C60.1052 187.87 60.079 187.898 60.0528 187.926C60.038 187.941 59.907 188.096 59.9545 188.036C60.0167 187.957 59.8988 188.114 59.902 188.111C59.8791 188.144 59.8562 188.178 59.8349 188.213C59.8005 188.265 59.771 188.319 59.7365 188.37C59.6595 188.483 59.7234 188.388 59.7365 188.354C59.7202 188.398 59.6497 188.549 59.6694 188.599C59.6727 188.572 59.6776 188.544 59.6809 188.516C59.6776 188.549 59.6759 188.581 59.6759 188.614C59.6759 188.631 59.6759 188.647 59.6759 188.663C59.6825 188.74 59.6809 188.729 59.6694 188.624C59.6776 188.619 59.6825 188.713 59.6956 188.716C59.6841 188.69 59.6743 188.665 59.6628 188.639C59.6776 188.667 59.694 188.694 59.712 188.721C59.6514 188.603 59.6759 188.655 59.7005 188.694C59.6808 188.681 59.6612 188.667 59.6415 188.652C59.671 188.673 59.7038 188.693 59.7365 188.709C59.7726 188.731 59.8103 188.752 59.848 188.773C59.8562 188.778 60.0495 188.865 59.9217 188.812C60.0315 188.857 60.1445 188.893 60.2576 188.924C60.3706 188.955 60.4853 188.981 60.6 189.003C60.6 189.003 60.831 189.035 60.7049 189.021C60.754 189.025 60.8032 189.03 60.8523 189.034C61.1112 189.053 61.3733 189.047 61.6322 189.027C61.7616 189.017 61.8911 189.004 62.0205 188.988C62.1532 188.971 61.8599 189.014 62.0844 188.978C62.1532 188.966 62.2237 188.957 62.2925 188.945C62.5579 188.901 62.8217 188.847 63.0855 188.791C63.3279 188.74 63.554 188.678 63.7867 188.591C64.0013 188.509 63.731 188.617 63.8539 188.563C63.9309 188.531 64.0063 188.495 64.08 188.459C64.2061 188.396 64.3307 188.331 64.4535 188.26C64.7648 188.082 65.2187 188.177 65.3924 188.506C65.5644 188.832 65.4792 189.255 65.1466 189.445L65.1417 189.45Z" fill="black"/>
</g>
</g>
<path id="Vector_18" d="M68.3497 33.2205L59.6662 33.9119L58.942 24.8138L62.8627 24.5009C64.3209 24.3845 65.4088 23.1082 65.2925 21.65L64.4487 11.0626C64.3323 9.60438 63.056 8.51646 61.5978 8.63279L31.8885 10.9987C30.4303 11.115 29.3424 12.3913 29.4587 13.8495L29.6127 15.7894C30.1092 22.0236 35.5651 26.6734 41.7992 26.177C44.0635 25.9967 46.377 25.3938 48.6462 25.8526C50.7466 26.2769 52.0115 28.184 52.0377 30.2566C52.0705 32.8863 50.3927 34.4772 47.8516 34.8393C44.8156 35.2734 41.6993 35.339 38.6404 35.5831C37.1822 35.6994 36.0943 36.9757 36.2106 38.4339L36.3646 40.3738C36.5449 42.6283 37.405 44.8025 38.8223 46.5654C39.8627 47.8581 41.1832 48.9116 42.6692 49.6423C43.1641 49.8865 43.6769 50.0929 44.2044 50.2617C47.0356 51.148 49.9291 50.3256 52.6325 51.4528C52.8717 51.5757 53.0928 51.7231 53.2895 51.9034C54.633 52.9093 54.3528 54.6264 54.6329 56.6564C54.9295 58.8044 57.0775 53.8973 58.2063 52.9224C58.3374 52.7291 58.4603 52.544 58.5766 52.3736C58.6995 52.1819 58.8223 51.9935 58.9501 51.81C59.5809 50.8924 60.3002 50.0929 61.4373 49.7488C61.6929 49.7144 61.9485 49.6948 62.2008 49.6735C66.2444 49.3507 69.6146 49.0836 69.6146 49.0836C71.0728 48.9673 72.1607 47.691 72.0444 46.2328L71.2006 35.6454C71.0842 34.1872 69.8079 33.0993 68.3497 33.2156V33.2205Z" fill="#F9C41C"/>
<path id="Vector_19" d="M68.9394 33.2401C68.8772 32.6339 68.7969 32.0211 68.7264 31.3788C68.6265 30.6579 68.5085 29.9403 68.3856 29.2243C68.0153 27.078 67.5811 24.9448 67.3452 22.8001C67.1945 21.8072 67.0487 20.8405 66.8898 19.8706C66.4539 17.0148 65.8985 14.1656 65.2775 11.282C65.1104 10.199 64.9302 9.12095 64.7418 8.04287C64.3649 5.88835 63.9537 3.7404 63.5392 1.59571C63.4015 0.724073 63.0804 0.0916562 62.0286 0.337418C61.6681 0.361995 61.2585 0.394749 60.8505 0.425879C59.625 0.524184 58.4011 0.620861 58.4011 0.620861C55.8599 0.824025 53.6677 2.12164 52.2505 4.01401C51.3281 5.24774 50.9758 6.89271 50.0141 8.13299C48.6558 9.88773 46.4817 9.9205 44.4435 10.0991C42.1825 10.2973 39.9133 10.3579 37.6506 10.5382C35.7304 10.6905 33.8102 10.8446 31.8899 10.9969C30.4318 11.1133 29.3439 12.3896 29.4602 13.8478L29.6142 15.7877C29.642 16.1383 29.6863 16.484 29.7453 16.8232C31.2215 19.3103 33.9609 20.9601 36.9461 21.0617C41.9842 21.3288 46.8978 20.0328 51.5558 21.7318C52.0441 27.2861 52.5897 32.8354 53.1156 38.3863C52.0998 38.7779 51.0446 38.9942 49.9797 39.0777C45.4413 39.7266 40.9143 40.1788 36.3808 40.531C36.5873 42.7298 37.4376 44.8433 38.8237 46.5636C39.8641 47.8564 41.1847 48.9099 42.6707 49.6406C43.1655 49.8847 43.6783 50.0912 44.2059 50.2599C47.0371 51.1447 49.9305 50.3238 52.6339 51.4511C52.8731 51.5739 53.0943 51.7214 53.2909 51.9016C54.6328 52.906 54.3559 54.623 54.6344 56.6497C54.7884 59.05 54.9244 61.4519 55.0407 63.8555C55.2455 68.0269 55.4667 72.6177 53.9299 76.5892C57.7507 75.5456 61.8238 75.2572 65.4135 73.8252C66.6784 73.3698 68.0252 72.4342 68.1104 70.5337C68.2005 70.1716 68.7067 68.9641 68.6772 68.3939C68.7526 67.5255 68.805 66.6572 68.8362 65.7905C68.8935 64.5191 68.9902 63.2558 69.0607 61.9877C69.3146 57.6606 69.1032 53.4106 68.9279 49.1376C69.3687 49.1032 69.6161 49.0835 69.6161 49.0835C71.0742 48.9672 72.1622 47.6909 72.0458 46.2327L71.202 35.6453C71.1021 34.3886 70.1387 33.4088 68.9411 33.2368L68.9394 33.2401Z" fill="#F9C41C"/>
<path id="Vector_20" d="M93.7007 81.8764C85.8331 80.6083 80.8539 73.0748 79.2286 65.7855C78.8993 64.4224 78.665 63.0477 78.5209 61.6895C78.2358 60.0789 78.008 58.4487 77.8114 56.8185C77.2199 51.9327 76.9087 47.0568 76.232 42.9264C76.1452 41.8434 76.0583 40.762 75.9731 39.6856C75.2063 30.0664 74.474 20.8635 73.93 14.0345C73.8874 13.5086 73.8481 12.9974 73.8071 12.501C73.7105 11.3705 73.6302 10.1466 73.486 8.91614C73.4139 8.30174 73.3254 7.68404 73.2107 7.07783C72.6488 2.31167 67.917 -0.0689329 63.5474 0.00151897C61.6108 0.162084 59.6627 0.239084 57.8113 0.692925C55.5208 1.03535 53.5563 2.27236 52.2505 4.01564C51.3281 5.24936 50.9758 6.89433 50.0141 8.13461C48.6558 9.88936 46.4817 9.92213 44.4435 10.1007C42.1825 10.299 39.9133 10.3596 37.6506 10.5398C35.7304 10.6922 33.8102 10.8462 31.8899 10.9986C30.4318 11.1149 29.3439 12.3912 29.4602 13.8494L29.6142 15.7893C29.642 16.1399 29.6863 16.4856 29.7453 16.8248C31.2215 19.3119 33.9609 20.9618 36.9461 21.0634C41.9842 21.3304 46.8978 20.0344 51.5558 21.7335C52.0441 27.2877 52.5897 32.837 53.1156 38.388C52.0998 38.7795 51.0446 38.9958 49.9797 39.0794C45.4413 39.7282 40.9143 40.1804 36.3808 40.5326C36.5873 42.7314 37.4376 44.8449 38.8237 46.5653C39.8641 47.858 41.1847 48.9115 42.6707 49.6422C43.1655 49.8863 43.6783 50.0928 44.2059 50.2616C47.0371 51.1463 49.9305 50.3255 52.6339 51.4527C52.8731 51.5756 53.0943 51.723 53.2909 51.9032C54.6328 52.9076 54.3559 54.6246 54.6344 56.6514C54.7884 59.0516 54.9244 61.4536 55.0407 63.8571C55.2455 68.0285 55.4667 72.6194 53.9299 76.5909C53.5858 77.4805 53.1533 78.3391 52.6126 79.155C52.2702 79.6695 51.8982 80.1642 51.4952 80.6345C47.0584 85.5858 39.8854 86.1576 34.2116 89.2132C37.5982 90.1275 41.2633 90.0718 44.5991 91.5611C45.071 91.7725 45.5363 92.01 45.9934 92.2836C46.6177 92.5523 47.2468 92.8079 47.8825 93.0537C52.3242 94.774 56.9855 96.0061 61.4076 97.7625C62.2612 97.9968 63.105 98.1901 63.9177 98.3474C64.7238 98.5031 65.5004 98.6243 66.218 98.7111C66.218 98.7111 67.686 98.5948 69.154 98.4768C70.622 98.3605 72.0901 98.2426 72.0901 98.2426C73.2697 98.0443 74.2937 97.7264 75.1883 97.3037C76.0829 96.8826 76.848 96.3567 77.5132 95.744C78.2816 95.0165 79.091 94.353 79.9315 93.7369C80.7737 93.1209 81.6453 92.5539 82.5415 92.0182C84.7583 90.465 87.2241 89.2853 89.567 87.9402C90.0373 87.6715 90.5042 87.3962 90.9761 87.1062C91.5364 86.7228 92.1066 86.3575 92.6849 86.0019C94.4741 85.0009 96.2813 83.9113 98.0966 82.9381C96.6483 82.5793 95.172 82.2532 93.7057 81.8682L93.7007 81.8764ZM58.3733 75.6258C58.8075 75.5439 59.2416 75.4604 59.6742 75.3768C59.2416 75.462 58.8075 75.5439 58.3733 75.6258ZM67.935 71.5101C67.5205 72.7734 66.4392 73.4615 65.4103 73.8318C66.4392 73.4615 67.5189 72.775 67.935 71.5101Z" fill="#F9C41C"/>
<path id="Vector_21" d="M55.4439 49.6079C54.9671 48.7952 54.0758 48.1759 53.2091 47.8515C51.8214 47.3321 50.3025 47.3059 48.8427 47.1667C44.3305 46.7358 38.5666 45.6806 36.5186 41.519C36.8561 43.3606 37.6458 45.1072 38.8222 46.5703C39.8626 47.863 41.1831 48.9165 42.6692 49.6472C44.2994 50.45 46.1606 50.7761 47.9694 50.7613C49.6701 50.7482 51.1037 50.6745 52.6504 51.4872C53.5499 51.9803 54.4772 52.77 54.4264 53.9284C54.8426 53.1272 55.5143 52.3047 55.729 51.3987C55.8862 50.7384 55.7519 50.1322 55.4439 49.6079Z" fill="#F4B80F"/>
<path id="Vector_22" d="M93.7011 81.8764C85.8334 80.6083 80.8543 73.0748 79.2289 65.7855C78.8996 64.4224 78.6654 63.0477 78.5212 61.6895C78.2361 60.0789 78.0083 58.4487 77.8117 56.8185C77.2203 51.9327 76.909 47.0568 76.2323 42.9264C76.1455 41.8434 76.0586 40.762 75.9734 39.6856C75.2067 30.0664 74.4743 20.8635 73.9303 14.0345C73.8877 13.5086 73.8484 12.9974 73.8075 12.501C73.7108 11.3705 73.6305 10.1466 73.4863 8.91614C73.4142 8.30174 73.3257 7.68404 73.2111 7.07783C72.6491 2.31167 67.9173 -0.0689329 63.5477 0.00151897C61.2031 0.19649 58.8422 0.26531 56.6533 1.03209C58.0803 0.532372 60.3495 1.16151 61.6062 1.85948C63.2856 2.79337 63.977 4.26795 64.1637 6.1423C65.1501 16.0285 69.5918 47.1469 68.5432 64.5469C68.4908 65.4169 68.4253 66.2525 68.3433 67.0389C68.2237 69.6915 67.8797 72.6013 66.0234 74.6231C63.5068 77.4183 59.5303 78.167 55.8341 77.3872C55.182 77.2004 54.543 76.9382 53.9319 76.6056C53.6992 77.3364 53.3142 77.9426 52.998 78.539C52.8767 78.7487 52.7473 78.9551 52.6129 79.1583C52.2705 79.6727 51.8986 80.1675 51.4955 80.6378C47.0587 85.589 39.8857 86.1609 34.2119 89.2165C37.5985 90.1308 41.2636 90.0751 44.5995 91.5644C45.0713 91.7757 45.5366 92.0133 45.9938 92.2869C46.618 92.5556 47.2471 92.8112 47.8828 93.0569C52.3246 94.7773 56.9858 96.0094 61.4079 97.7658C62.2615 98 63.1053 98.1934 63.918 98.3507C64.7241 98.5063 65.5007 98.6276 66.2183 98.7144C66.2183 98.7144 67.6863 98.5981 69.1543 98.4801L72.0904 98.2458C73.2701 98.0475 74.2941 97.7297 75.1886 97.307C76.0832 96.8843 76.8483 96.36 77.5135 95.7472C78.2819 95.0198 79.0913 94.3562 79.9318 93.7402C80.774 93.1241 81.6456 92.5572 82.5418 92.0215C84.7586 90.4682 87.2244 89.2886 89.5674 87.9435C90.0376 87.6748 90.5045 87.3995 90.9764 87.1095C91.5367 86.7261 92.1069 86.3607 92.6853 86.0052C94.4744 85.0041 96.2816 83.9146 98.0969 82.9414C96.6486 82.5826 95.1724 82.2565 93.706 81.8715L93.7011 81.8764Z" fill="#F4B80F"/>
<path id="Vector_23" d="M14.5818 129.369C14.9586 132.223 15.5681 135.048 16.4086 137.802C21.0486 153.002 33.0008 165.773 47.5893 171.932C56.4498 175.672 66.0116 177.021 75.3423 176.226C84.6813 175.533 93.9088 172.689 102.065 167.592C115.495 159.201 125.273 144.698 127.449 128.955C127.844 126.102 127.998 123.217 127.917 120.34C127.567 107.731 122.792 95.3507 112.118 88.009C104.603 82.8414 95.3113 82.1107 86.4065 81.6585C86.3574 81.6552 86.3066 81.6536 86.2575 81.6503C80.1183 81.3456 73.9628 81.5094 67.8384 82.0173C61.7091 82.4859 55.6076 83.2985 49.593 84.5716C49.5439 84.5814 49.4947 84.5929 49.4456 84.6027C40.7243 86.4591 31.6671 88.6512 25.0643 94.9444C15.686 103.884 12.9319 116.863 14.5818 129.369Z" fill="#F9C41C"/>
<path id="Vector_24" d="M112.118 88.0107C104.603 82.8431 95.3114 82.1124 86.4066 81.6602C86.3574 81.6569 86.3067 81.6553 86.2575 81.652C80.1184 81.3473 73.9628 81.5111 67.8384 82.019C61.7091 82.4876 55.6077 83.3002 49.5931 84.5733C49.5439 84.5831 49.4948 84.5946 49.4456 84.6044C48.7018 84.7633 47.9547 84.9239 47.2059 85.0894C47.9579 84.9714 48.71 84.8584 49.4636 84.7552C54.5149 84.4701 59.9364 84.0326 65.4709 83.777C68.2382 83.6492 71.0317 83.569 73.817 83.5755C85.7594 83.4395 98.5194 84.9763 107.68 93.6566C122.797 107.912 123.451 133 111.579 149.378C110.321 151.085 108.945 152.704 107.465 154.219C103.025 158.767 97.6625 162.395 91.62 164.762C88.9314 165.914 86.1412 166.866 83.2805 167.608C68.9804 171.329 52.9436 169.828 39.8871 163.365C37.6294 162.293 35.4388 161.097 33.3318 159.778C31.2265 158.461 29.2047 157.022 27.2828 155.471C25.6165 154.072 24.0535 152.572 22.6084 150.98C28.6296 160.211 37.4754 167.659 47.5893 171.929C56.4498 175.669 66.0116 177.018 75.3424 176.223C84.6813 175.53 93.9089 172.686 102.065 167.589C115.495 159.198 125.273 144.695 127.449 128.951C127.844 126.099 127.998 123.214 127.917 120.337C127.567 107.727 122.792 95.3475 112.118 88.0057V88.0107Z" fill="#F4B80F"/>
<path id="Vector_25" d="M54.4198 151.678C54.641 153.452 55.1768 155.328 56.5301 156.575C56.8103 156.883 57.1101 157.18 57.4296 157.468C59.3449 159.197 61.9352 160.561 64.8664 161.358C67.8335 162.164 71.0563 162.403 74.2201 162.139C77.3855 161.898 80.5312 161.153 83.3329 159.888C87.9467 157.804 91.3743 154.311 92.241 150.59C92.3983 149.917 92.4736 149.237 92.4703 148.56C92.4556 145.598 90.9433 142.724 87.3913 141.086C84.891 139.932 81.7535 139.837 78.7454 139.804C78.729 139.804 78.7109 139.804 78.6946 139.804C76.6203 139.783 74.5363 139.873 72.4588 140.044C70.3813 140.204 68.3103 140.447 66.2639 140.796C66.2476 140.799 66.2312 140.8 66.2148 140.804C63.2492 141.313 60.1658 141.903 57.8802 143.438C57.4739 143.71 57.1036 143.997 56.7644 144.295C56.4269 144.593 56.1222 144.905 55.86 145.226C54.5067 146.753 54.3723 148.762 54.356 150.582C54.3625 150.95 54.3838 151.316 54.4198 151.68V151.678Z" fill="white"/>
<path id="Vector_26" d="M89.8866 142.707C90.1831 143.577 90.3289 144.49 90.3388 145.411C90.3453 146.074 90.2814 146.741 90.1438 147.403C89.3852 151.052 86.3099 154.458 82.1565 156.477C79.6334 157.702 76.7973 158.415 73.9399 158.63C71.0841 158.869 68.171 158.615 65.4857 157.804C63.2754 157.137 61.2766 156.083 59.6644 154.761C59.3957 154.542 59.1385 154.314 58.8911 154.078C56.6513 151.84 55.1768 148.758 55.4438 145.542C55.4045 146.02 54.6328 146.882 54.4509 147.401C54.2117 148.08 54.0725 148.807 53.9987 149.523C53.7775 151.652 54.3592 153.688 55.4209 155.52C57.0331 158.299 59.7545 160.558 62.5119 161.811C71.6379 165.96 84.9336 164.117 90.4141 154.953C91.2186 153.608 91.8838 152.117 92.241 150.587C92.3983 149.913 92.4736 149.233 92.4703 148.557C92.4605 146.415 91.6659 144.321 89.8866 142.706V142.707Z" fill="#F4B80F"/>
<path id="Vector_27" d="M41.7894 26.1147C42.2187 26.1212 42.648 26.1196 43.0756 26.1147C45.756 26.0918 49.1279 25.7051 51.0596 27.9595C52.331 29.444 52.3818 31.8901 51.0629 33.4368C51.4331 33.2631 51.7936 33.0583 52.1393 32.8256C53.8678 31.6673 55.2392 29.8372 55.7749 27.8825C55.8487 27.5827 55.8929 27.2763 55.8995 26.9618C55.906 26.6472 55.8765 26.326 55.8028 25.9951C55.2424 22.5806 51.3922 21.301 48.3578 20.9848C47.8303 20.9209 47.3011 20.8816 46.7686 20.8587C43.5737 20.7276 40.2854 21.2388 36.943 21.0618C33.9595 20.9602 31.2184 19.3104 29.7422 16.8232C30.0781 17.3901 30.1043 18.383 30.3566 19.0269C30.6613 19.8019 31.0513 20.5441 31.5182 21.2322C32.4161 22.5577 33.5957 23.6865 34.9573 24.5287C37.038 25.8132 39.4088 26.077 41.7878 26.1114L41.7894 26.1147Z" fill="#F4B80F"/>
<g id="Group_12" opacity="0.34">
<path id="Vector_28" d="M30.1302 99.0323C28.7212 99.5042 27.4006 100.554 26.3144 101.687C25.1462 102.896 24.1009 104.279 23.2129 105.756C22.161 107.48 21.3926 109.467 21.2058 111.479C21.1878 111.671 21.173 111.873 21.1616 112.077C21.1468 112.282 21.1616 112.5 21.1698 112.71C21.1976 113.134 21.2353 113.547 21.3696 113.914C21.6203 114.646 22.066 115.126 22.836 115.079C23.3554 115.018 23.8617 114.763 24.3024 114.435C24.517 114.27 24.7431 114.091 24.943 113.904C25.1462 113.717 25.3182 113.521 25.4821 113.329C26.357 112.292 27.0304 111.14 27.7955 110.046C28.6114 108.879 29.4274 107.734 30.2187 106.497C30.9724 105.314 31.7883 104.067 32.4551 102.771C32.5829 102.532 32.6976 102.278 32.791 102.016C32.8369 101.885 32.8778 101.75 32.9123 101.616C32.9483 101.485 32.9778 101.352 32.9991 101.218C33.081 100.687 33.0269 100.151 32.7288 99.691C32.4748 99.2994 32.0832 99.0487 31.6228 98.939C31.1657 98.8325 30.6299 98.8537 30.1302 99.0307V99.0323Z" fill="white"/>
</g>
<g id="Group_13" opacity="0.34">
<path id="Vector_29" d="M41.2306 92.9274C40.5097 92.6865 39.7495 92.8307 39.1007 93.0503C38.3995 93.2846 37.7441 93.6123 37.1313 93.9596C36.4121 94.3692 35.7551 94.8771 35.2947 95.5358C34.9326 96.0388 34.4607 96.8367 35.1619 97.7296C35.6518 98.3129 36.3646 98.5865 36.9003 98.6274C37.2624 98.6553 37.6016 98.6127 37.9243 98.534C38.2422 98.4636 38.542 98.3588 38.8336 98.2621C39.4611 98.0491 40.0198 97.7853 40.5261 97.4134C41.0094 97.0611 41.4797 96.6515 41.886 96.1305C42.0384 95.9339 42.1793 95.6881 42.2677 95.3867C42.3579 95.0885 42.3956 94.7346 42.3235 94.3315C42.2612 93.9891 42.1219 93.6811 41.927 93.437C41.7336 93.1912 41.4862 93.0126 41.229 92.929L41.2306 92.9274Z" fill="white"/>
</g>
<g id="Group_14" opacity="0.34">
<path id="Vector_30" d="M46.475 12.5304C45.5837 12.3895 44.5777 12.4665 43.652 12.5501C42.6608 12.6402 41.6695 12.7418 40.6963 12.8057C39.5527 12.8827 38.4173 12.9417 37.3081 13.0629C37.0967 13.0858 36.8608 13.1153 36.6265 13.1465C36.3922 13.1792 36.1595 13.2317 35.9547 13.2906C35.5468 13.4135 35.2371 13.6282 35.2666 14.0148C35.3076 14.2753 35.496 14.5342 35.763 14.7701C36.0317 15.0061 36.3824 15.1945 36.7313 15.3419C37.6816 15.7237 38.7892 15.8498 39.8574 15.9006C41.0043 15.9563 42.1398 15.8826 43.249 15.668C44.3074 15.4648 45.3772 15.1666 46.3095 14.7586C47.0058 14.4539 47.6645 13.9886 47.6481 13.4397C47.635 12.9712 47.1107 12.6336 46.4717 12.532L46.475 12.5304Z" fill="white"/>
</g>
<g id="Group_15" opacity="0.34">
<path id="Vector_31" d="M48.6792 37.5326C47.9501 37.3884 47.1276 37.4621 46.3723 37.5408C45.5613 37.6276 44.7519 37.7259 43.9557 37.7849C43.0201 37.8586 42.0928 37.9127 41.1867 38.0307C41.0147 38.0536 40.8214 38.0815 40.6297 38.1126C40.4396 38.1437 40.2479 38.1961 40.0808 38.2535C39.7466 38.3764 39.4943 38.5894 39.5221 38.9744C39.5565 39.2349 39.7105 39.4954 39.9317 39.7313C40.1513 39.9689 40.4396 40.159 40.7247 40.3064C41.503 40.6914 42.409 40.8209 43.2823 40.8766C44.2211 40.9372 45.1484 40.8668 46.0545 40.657C46.9196 40.4588 47.7928 40.1622 48.5531 39.7592C49.1199 39.4577 49.6573 38.9941 49.6426 38.4452C49.6295 37.9766 49.2002 37.6374 48.6776 37.5342L48.6792 37.5326Z" fill="white"/>
</g>
<g id="Group_16">
<path id="Vector_32" d="M47.7726 118.633C47.5908 116.083 49.2832 113.649 51.7081 112.957C53.5743 112.438 55.4388 113.051 56.7708 114.474C58.057 115.949 58.5632 117.949 58.0275 119.843C57.4524 121.936 55.7746 123.582 53.6644 123.866C51.4115 124.156 49.1899 122.866 48.2723 120.759C47.9807 120.112 47.8054 119.395 47.7726 118.633Z" fill="black"/>
<path id="Vector_33" d="M50.3547 117.836C50.3187 117.027 50.8561 116.344 51.5508 116.033C52.7583 115.559 54.0739 116.59 53.9379 117.869C53.8708 118.533 53.4694 119.114 52.8681 119.375C52.2209 119.685 51.4148 119.576 50.9151 119.083C50.5825 118.774 50.3695 118.333 50.3547 117.836Z" fill="white"/>
<path id="Vector_34" d="M57.9373 126.838C56.9608 125.036 54.6277 124.501 52.7583 124.806C52.7485 124.808 52.7386 124.811 52.7288 124.814C52.7189 124.814 52.7091 124.814 52.6993 124.818C51.1084 125.114 49.044 126.089 48.6458 127.836C48.2395 129.622 50.1073 130.808 51.6114 131.127C53.1826 131.463 54.8751 131.168 56.2858 130.415C57.5801 129.723 58.7499 128.34 57.9373 126.839V126.838Z" fill="#EC4899"/>
<path id="Vector_35" d="M91.4772 123.23C91.4674 123.23 91.4576 123.23 91.4478 123.23C91.4379 123.228 91.4281 123.225 91.4183 123.225C89.6472 123.084 87.7745 123.656 86.716 125.165C86.2884 125.773 86.0787 126.533 86.3441 127.252C86.6014 127.95 87.1863 128.466 87.8171 128.828C89.1868 129.616 90.9071 129.867 92.4521 129.579C93.9152 129.305 95.8879 128.266 95.8666 126.54C95.842 124.446 93.2058 123.407 91.4772 123.23Z" fill="#EC4899"/>
<path id="Vector_36" d="M87.8223 120.785C88.2827 119.552 89.1739 118.282 90.6239 118.216C92.087 118.151 93.2831 119.335 93.7353 120.636C94.253 122.124 96.5419 121.254 96.0241 119.765C95.2246 117.468 93.0373 115.728 90.5633 115.774C88.2171 115.818 86.3788 117.672 85.6006 119.755C85.3696 120.374 85.5645 121.089 86.1969 121.38C86.7622 121.641 87.5896 121.406 87.8223 120.784V120.785Z" fill="black"/>
<path id="Vector_37" d="M77.2756 121.605C76.9856 120.81 75.8846 120.666 75.3914 121.362C75.1489 121.705 75.1702 122.245 75.0555 122.64C74.8622 123.307 74.5476 123.956 74.0922 124.483C73.1353 125.594 71.6132 125.886 70.3549 125.086C69.7143 124.68 69.2146 124.066 68.8656 123.399C68.6116 122.914 68.5756 122.177 68.1529 121.808C67.3058 121.071 66.2392 121.887 66.3916 122.884C66.3916 122.888 66.3933 122.891 66.3949 122.894C66.3949 122.906 66.3965 122.917 66.3998 122.929C66.9585 125.14 68.7362 127.22 71.0545 127.637C73.3401 128.05 75.4619 126.636 76.5366 124.688C76.9725 123.899 77.6098 122.516 77.2772 121.605H77.2756Z" fill="black"/>
</g>
</g>
</svg>
