<svg width="192" height="192" viewBox="0 0 192 192" fill="none" xmlns="http://www.w3.org/2000/svg">
<rect width="192" height="192" fill="white"/>
<path d="M161.504 40.2201C159.432 37.6374 157.015 35.3354 154.316 33.3753C151.729 31.3485 148.716 29.8989 145.49 29.129C138.44 27.6556 131.336 31.3526 125.966 35.4782C120.596 39.6039 116.258 44.8547 114.537 51.2843C112.816 57.7139 113.752 64.6793 118.048 69.7024C122.344 74.7255 130.082 77.7393 136.54 75.0604C138.068 74.4308 137.353 72.1001 135.728 72.6226C133.21 73.3817 130.526 73.4532 127.969 72.8296C125.412 72.2059 123.081 70.9111 121.229 69.0863C117.098 65.0678 115.886 58.9731 116.919 53.5213C118.184 47.7232 121.455 42.5224 126.185 38.7869C128.52 36.8347 131.08 35.1535 133.814 33.7772C136.654 32.2194 139.876 31.4415 143.135 31.5268C146.334 31.8379 149.386 32.9909 151.962 34.8621C154.867 36.8178 157.235 39.3628 159.975 41.5596C160.884 42.1356 162.261 41.1577 161.504 40.2201Z" fill="black"/>
<path d="M137.704 33.3528C136.996 32.6423 136.082 32.1388 135.073 31.9035C134.064 31.6682 133.003 31.7112 132.02 32.0273C131.786 32.0976 131.592 32.2516 131.48 32.4554C131.368 32.6593 131.347 32.8962 131.423 33.1141C131.498 33.3321 131.664 33.5133 131.882 33.6177C132.101 33.7221 132.355 33.7412 132.589 33.6709C133.282 33.5878 133.986 33.6835 134.625 33.9476C135.264 34.2117 135.813 34.634 136.212 35.1687C136.679 35.7943 136.968 36.5207 137.05 37.2791C137.132 38.0376 137.005 38.8031 136.681 39.5031C135.981 41.1201 134.778 42.5048 133.228 43.4797C132.421 43.9963 131.581 44.4655 130.712 44.8846C129.73 45.2054 128.816 45.6856 128.012 46.303C127.875 46.4557 127.788 46.6421 127.762 46.8397C127.736 47.0373 127.772 47.2377 127.865 47.4168C127.958 47.596 128.104 47.7463 128.287 47.8497C128.469 47.9531 128.68 48.0052 128.893 47.9997C129.597 47.9103 130.271 47.6797 130.869 47.3236C131.409 47.0851 131.949 46.8331 132.475 46.568C133.532 46.0566 134.532 45.4483 135.459 44.7521C137.425 43.3702 138.812 41.392 139.382 39.1585C139.646 38.1372 139.631 37.0704 139.338 36.0559C139.045 35.0415 138.483 34.112 137.704 33.3528Z" fill="black"/>
<path d="M134.399 41.433C134.389 41.3479 134.361 41.2658 134.318 41.1913C134.276 41.0709 134.202 40.9642 134.104 40.8824C133.969 40.7657 133.808 40.6828 133.635 40.6405C133.512 40.6068 133.382 40.6068 133.259 40.6405C133.131 40.6522 133.007 40.6935 132.897 40.7614L132.602 40.9764C132.49 41.0595 132.387 41.154 132.294 41.2584L132.16 41.4063L131.932 41.7018L131.704 41.9973C131.609 42.0875 131.543 42.2047 131.516 42.3331C131.46 42.4452 131.437 42.571 131.45 42.6959V42.9241C131.48 43.0444 131.54 43.1553 131.624 43.2467C131.673 43.314 131.738 43.3691 131.812 43.4079C131.912 43.4905 132.032 43.5459 132.16 43.5691H132.401C132.563 43.559 132.72 43.5082 132.857 43.4213C133.112 43.2198 133.38 43.0182 133.621 42.8033L133.769 42.6824C133.816 42.6443 133.857 42.599 133.89 42.5481C134.022 42.3868 134.143 42.2162 134.252 42.0377L134.345 41.7823C134.386 41.6707 134.405 41.5519 134.399 41.433Z" fill="black"/>
<path d="M143.874 51.4849L143.771 51.2948C143.715 51.1955 143.628 51.1145 143.52 51.0626C143.465 51.0107 143.392 50.9773 143.314 50.9677C143.239 50.9483 143.16 50.9483 143.085 50.9677C143.01 50.9515 142.932 50.9515 142.857 50.9677C142.741 50.9792 142.63 51.0193 142.537 51.0838L142.445 51.1366C142.357 51.1988 142.277 51.2695 142.205 51.3477L142.08 51.5166C142.012 51.6005 141.951 51.6887 141.897 51.7805C141.891 51.8083 141.891 51.837 141.897 51.8649V51.9598C141.855 52.0291 141.824 52.1039 141.806 52.1816C141.791 52.2513 141.791 52.323 141.806 52.3927C141.778 52.4859 141.778 52.5845 141.806 52.6777L141.897 52.8572C141.952 52.9418 142.031 53.0111 142.126 53.0577C142.178 53.1014 142.241 53.1338 142.309 53.1527C142.414 53.1738 142.523 53.1738 142.628 53.1527H142.834L143.051 53.0471H143.12L143.314 52.8993C143.338 52.8721 143.365 52.8474 143.394 52.8255C143.456 52.7845 143.51 52.7346 143.554 52.6777L143.691 52.5193C143.769 52.4442 143.835 52.3588 143.886 52.266C143.886 52.171 143.966 52.0654 144 51.9704V51.7488L143.874 51.4849Z" fill="black"/>
<path d="M150.646 52.4304C150.567 52.3777 150.496 52.3135 150.437 52.2397C149.947 51.281 149.559 50.2761 149.277 49.2406C148.895 48.3182 148.393 47.4476 147.783 46.6506C147.521 46.3063 147.231 45.9827 146.917 45.6828C145.783 44.5432 144.443 43.6188 142.964 42.9564C142.787 42.857 142.651 42.7007 142.579 42.5143C142.508 42.3279 142.504 42.1229 142.57 41.9345C142.636 41.7461 142.768 41.5859 142.941 41.4814C143.115 41.3769 143.32 41.3345 143.522 41.3614C144.658 41.6292 145.737 42.0907 146.707 42.7246C147.689 43.3591 148.564 44.136 149.305 45.0285C149.305 45.5465 149.417 46.0782 149.487 46.6098C149.754 48.5709 150.141 50.5145 150.646 52.4304Z" fill="black"/>
<path d="M133.237 53.4689C132.554 53.2625 131.84 53.1872 131.13 53.2471H130.978H130.799H130.303C129.977 53.1945 129.655 53.1204 129.339 53.0253C128.18 52.6704 127.123 52.0435 126.253 51.1961C126.09 51.0401 125.873 50.9531 125.647 50.9531C125.422 50.9531 125.205 51.0401 125.042 51.1961C124.887 51.3608 124.8 51.5789 124.8 51.8058C124.8 52.0326 124.887 52.2509 125.042 52.4156C126.051 53.5898 127.361 54.4623 128.829 54.9378C129.543 55.1687 130.284 55.3039 131.033 55.3398C131.449 55.4115 131.876 55.3956 132.287 55.2931C132.697 55.1905 133.082 55.0034 133.416 54.7438C133.507 54.6571 133.576 54.5498 133.618 54.4308C133.659 54.3118 133.671 54.1846 133.654 54.0598C133.636 53.935 133.589 53.8163 133.517 53.7135C133.444 53.6107 133.348 53.5268 133.237 53.4689Z" fill="black"/>
<path d="M171.603 90.8297C170.724 86.2192 170.188 81.5519 169.999 76.8649C169.833 72.1512 169.902 67.4374 169.501 62.7372C168.796 54.4371 166.527 45.0776 159.75 39.3994C159.548 39.2192 159.282 39.1251 159.01 39.1379C158.737 39.1506 158.481 39.269 158.298 39.4672C158.115 39.6653 158.019 39.927 158.032 40.1945C158.045 40.462 158.165 40.7135 158.367 40.8936C163.609 46.3274 165.96 53.4047 166.776 60.7131C167.772 69.7603 166.929 78.889 168.519 87.8818C169.538 92.2711 170.167 96.739 170.4 101.235C170.4 105.623 168.63 109.671 168.118 114.004C167.898 116.068 168.034 118.153 168.519 120.172C169.09 122.063 169.493 123.999 169.722 125.959C169.806 127.622 169.232 129.254 168.118 130.51C167.016 131.69 166.02 132.963 165.144 134.313C164.685 135.131 164.438 136.046 164.424 136.979C164.409 137.912 164.628 138.835 165.061 139.665C166.069 141.132 167.159 142.542 168.325 143.89C171.091 147.965 166.375 151.85 163.664 154.432C162.627 155.41 164.148 157.148 165.31 156.347C168.615 153.875 172.018 150.438 171.811 146.036C171.631 144.113 170.78 142.309 169.404 140.929C168.286 139.987 167.481 138.738 167.094 137.342C167.125 136.658 167.294 135.986 167.59 135.366C167.887 134.746 168.306 134.189 168.823 133.729C170.065 132.461 171.08 130.996 171.824 129.396C173.332 125.32 171.063 121.422 170.648 117.401C170.192 113.054 172.101 108.883 172.654 104.631C173.031 100.005 172.677 95.3494 171.603 90.8297Z" fill="black"/>
<path d="M151.868 61.3537C150.59 59.1763 149.618 56.865 148.975 54.4728C148.227 52.1495 147.686 49.7769 147.356 47.377C147.356 46.9604 147.236 46.5437 147.191 46.1405C147.091 45.1818 147.016 44.2276 146.966 43.2779C146.966 42.2431 146.966 41.2084 146.966 40.1735C146.878 37.728 147.259 35.2869 148.09 32.9565C148.45 32.1367 149.859 32.4995 149.889 33.2924C150.024 35.6174 149.529 37.9829 149.514 40.3213C149.487 42.0669 149.572 43.8125 149.769 45.5493C149.769 46.06 149.889 46.584 149.964 47.1081C150.253 49.0235 150.668 50.9217 151.208 52.7929C151.313 53.1423 151.418 53.5053 151.538 53.8681C151.882 54.9567 152.272 56.0319 152.722 57.107C153.172 58.1822 153.771 59.2707 154.221 60.3862C154.364 60.666 154.377 60.9853 154.257 61.2739C154.138 61.5624 153.896 61.7967 153.584 61.925C153.272 62.0533 152.916 62.0652 152.594 61.9581C152.272 61.851 152.011 61.6335 151.868 61.3537Z" fill="black"/>
<path d="M151.966 59.1029C151.821 59.07 151.671 59.0674 151.524 59.0955C151.378 59.1237 151.238 59.182 151.113 59.2669C150.988 59.3519 150.88 59.4617 150.796 59.5904C150.712 59.719 150.653 59.8638 150.623 60.0164C150.327 63.1225 148.03 65.3432 145.611 66.8751C142.924 68.5898 139.834 69.6861 137.281 71.6538C136.064 72.7166 134.915 73.8623 133.842 75.0833C132.724 76.3039 131.239 77.0875 129.637 77.3039C126.251 77.7537 122.839 76.6434 119.493 77.557C117.873 77.9634 116.444 78.9599 115.463 80.368C114.93 81.0377 114.593 81.8542 114.493 82.7193C114.393 83.5844 114.534 84.4615 114.898 85.245C115.005 85.4139 115.162 85.5415 115.344 85.6085C115.527 85.6755 115.726 85.6782 115.91 85.6161C116.094 85.5539 116.254 85.4305 116.365 85.2645C116.475 85.0985 116.532 84.8991 116.524 84.6968C116.454 84.0239 116.532 83.343 116.753 82.7069C116.974 82.0708 117.332 81.4966 117.8 81.0285C118.944 80.0108 120.397 79.4528 121.898 79.4544C125.203 79.2435 128.616 80.2414 131.813 79.117C135.011 77.9927 136.475 75.0269 139.014 73.1858C141.554 71.3446 144.671 70.2624 147.331 68.4774C149.991 66.6924 152.504 63.9237 152.853 60.4381C152.887 60.1405 152.816 59.8401 152.652 59.594C152.489 59.3478 152.245 59.1731 151.966 59.1029Z" fill="black"/>
<path d="M162.081 60.5207C161.568 59.7936 160.861 59.2095 160.032 58.8287C159.204 58.4478 158.283 58.2838 157.366 58.3535C156.461 58.4369 156.241 59.8538 157.249 59.9511C157.859 60.0196 158.448 60.2096 158.976 60.5088C159.504 60.808 159.96 61.2095 160.315 61.6875C160.665 62.1922 160.886 62.7682 160.959 63.369C161.033 63.9698 160.957 64.5786 160.738 65.1464C160.221 66.3404 159.304 67.3382 158.128 67.984C156.953 68.6298 155.586 68.8874 154.241 68.7166C153.944 68.6662 153.638 68.7259 153.386 68.8834C153.134 69.041 152.954 69.2844 152.884 69.5639C152.854 69.7053 152.854 69.8508 152.883 69.9922C152.913 70.1337 152.971 70.2684 153.055 70.3884C153.139 70.5083 153.247 70.6113 153.373 70.6915C153.499 70.7718 153.64 70.8275 153.789 70.8557C157.76 71.1752 161.833 69.3693 162.957 65.4937C163.213 64.6554 163.268 63.773 163.116 62.912C162.964 62.051 162.611 61.2336 162.081 60.5207Z" fill="black"/>
<path d="M114.032 87.6513C112.674 88.2966 111.191 88.6544 109.68 88.7009C108.518 88.8977 107.356 89.0683 106.194 89.2389L105.247 89.37C102.355 89.7636 99.4365 90.0784 96.5039 90.3408C90.9991 90.7956 85.4898 91.0011 79.976 90.9574C79.8679 93.5813 79.7463 96.2052 79.6382 98.9078C79.6382 99.8524 79.5705 100.797 79.53 101.741C79.4894 102.686 79.5302 103.447 79.4356 104.365L76.8 105.599C76.8 104.759 76.8 103.919 76.8 103.08C76.8 101.768 76.935 100.338 76.9756 98.9733C77.0837 95.9034 77.1647 92.8466 77.2864 89.7898C77.2754 89.6174 77.2997 89.4447 77.3576 89.2815C77.4156 89.1182 77.5062 88.9677 77.6242 88.8385C77.7423 88.7093 77.8852 88.604 78.0452 88.5286C78.2053 88.4532 78.3791 88.4092 78.5566 88.3992C84.4201 88.4838 90.2841 88.2736 96.1252 87.7695C99.0037 87.5333 101.882 87.2184 104.734 86.8248C106.22 86.628 107.694 86.405 109.167 86.1688C110.596 85.7412 112.096 85.581 113.586 85.6965C113.81 85.744 114.013 85.8587 114.167 86.0245C114.271 86.1384 114.351 86.2718 114.401 86.4164C114.451 86.561 114.47 86.7139 114.458 86.8659C114.445 87.018 114.401 87.1661 114.328 87.3011C114.255 87.436 114.154 87.5552 114.032 87.6513Z" fill="black"/>
<path d="M69.8404 98.509C66.7905 102.553 63.8781 106.597 61.1853 110.856C60.416 112.043 59.6877 113.242 58.9595 114.456L51.7192 117.88L49.6034 118.891C49.15 118.257 48.6966 117.623 48.2295 116.976C47.309 115.628 46.4436 114.28 45.5918 113.013C44.5614 111.382 43.5308 109.751 42.624 108.066C42.3505 107.7 42.1756 107.272 42.1155 106.822C42.0555 106.372 42.1123 105.914 42.2805 105.491C42.4079 105.241 42.5878 105.019 42.8078 104.84C43.0279 104.661 43.2835 104.529 43.5585 104.454C43.6673 104.32 43.8072 104.214 43.9664 104.145C44.1256 104.076 44.2997 104.045 44.4735 104.056C44.6473 104.067 44.816 104.118 44.9652 104.206C45.1145 104.294 45.2397 104.416 45.3308 104.561C47.7626 108.012 50.0566 111.53 52.5571 114.927L52.8462 115.318C52.9698 115.089 53.0794 114.847 53.2031 114.617C56.4841 108.011 60.2925 101.669 64.5925 95.6513C64.7907 95.4583 65.0441 95.3289 65.319 95.2807C65.5939 95.2326 65.8774 95.2678 66.1314 95.3816L69.442 96.5274C70.3487 96.8374 70.2801 97.9429 69.8404 98.509Z" fill="#1D4ED8"/>
<path d="M146.071 119.785C143.483 132.458 140.773 145.117 138.035 157.762C137.989 157.97 137.893 158.163 137.754 158.324C137.615 158.485 137.439 158.609 137.24 158.685C137.041 158.76 136.827 158.785 136.616 158.757C136.405 158.729 136.205 158.65 136.033 158.525C135.822 158.394 135.658 158.199 135.565 157.969C135.472 157.739 135.454 157.486 135.515 157.245C135.515 156.932 135.637 156.619 135.706 156.306C135.951 155.067 136.21 153.829 136.468 152.604C137.776 146.36 139.088 140.117 140.405 133.873C141.699 127.734 143.13 121.622 144.206 115.388C145.173 109.794 145.567 103.968 143.824 98.4957C143.16 96.133 141.999 93.9391 140.418 92.0611C138.837 90.1831 136.873 88.6642 134.657 87.6061C124.127 82.8555 112.672 88.6678 103.219 93.2143L86.0565 101.477L84.1084 102.416L79.6136 104.58L76.9572 105.86L75.5951 106.513L72.8708 107.874L68.6208 109.916L58.4461 114.817L51.2677 118.274L49.1699 119.295L42.5229 122.494C39.8804 123.773 37.0741 125.216 34.0775 124.658C33.8011 124.6 33.5589 124.435 33.4044 124.199C33.2498 123.963 33.1956 123.675 33.2534 123.399C33.3112 123.123 33.476 122.881 33.7123 122.726C33.9486 122.572 34.2367 122.518 34.5131 122.575C36.0157 122.668 37.5158 122.358 38.8582 121.677C41.7868 120.425 44.6338 118.955 47.5079 117.593L47.8484 117.43L52.139 115.361L52.7794 115.048L56.2526 113.374L60.6523 111.25L72.9932 105.288L74.0148 104.798L75.7314 103.968L76.9845 103.369L79.7087 102.008C83.6589 100.116 87.5817 98.2097 91.5183 96.3041L91.6952 96.2225L93.6566 95.2695C97.9473 93.1733 102.252 91.0362 106.583 89.0353C107.333 88.6813 108.082 88.3274 108.845 88.0007C110.207 87.3746 111.569 86.7894 113.026 86.2449C113.571 86.0271 114.13 85.8228 114.688 85.6322C115.247 85.4417 115.682 85.292 116.186 85.1422C119.149 84.162 122.235 83.603 125.353 83.4816C130.713 83.1732 136.001 84.839 140.214 88.1641C144.063 91.686 146.555 96.4448 147.256 101.613C148.305 107.588 147.283 113.823 146.071 119.785Z" fill="black"/>
<path d="M116.632 84.045C116.612 83.8969 116.576 83.751 116.525 83.6097C116.52 83.5771 116.52 83.5441 116.525 83.5115C116.388 83.2728 116.358 83.2167 116.449 83.3571C116.449 83.4553 116.54 83.4975 116.449 83.3571C116.375 83.1385 116.216 82.9529 116.003 82.8363C115.79 82.7196 115.537 82.6801 115.294 82.7252C115.08 82.7616 114.883 82.86 114.732 83.0061C114.589 83.1703 114.504 83.3712 114.489 83.5816C114.489 83.7641 114.383 83.9606 114.322 84.1431C114.287 84.3063 114.236 84.466 114.17 84.6204C114.045 84.9178 113.893 85.2043 113.714 85.4768L113.562 85.6454C113.386 85.8008 113.237 85.9806 113.121 86.1787C113.031 86.369 112.985 86.5746 112.985 86.7824C113.001 87.0323 113.107 87.2698 113.288 87.4563C113.449 87.6345 113.663 87.7645 113.904 87.8295C114.145 87.8945 114.402 87.8917 114.641 87.8213C115.199 87.5773 115.657 87.1737 115.947 86.6702C116.184 86.3357 116.369 85.9717 116.495 85.5892C116.618 85.2257 116.679 84.8468 116.677 84.466C116.662 84.3537 116.647 84.1573 116.632 84.045Z" fill="black"/>
<path d="M124.73 76.6933C124.73 76.3093 124.73 75.9112 124.73 75.513C124.73 75.1148 124.73 74.7307 124.73 74.3325C124.723 73.8867 124.666 73.4432 124.56 73.01C124.492 72.8167 124.364 72.6501 124.195 72.5348C124.025 72.4196 123.823 72.3617 123.618 72.3699C123.414 72.3875 123.221 72.4682 123.065 72.6008C122.909 72.7334 122.798 72.9112 122.749 73.1095C122.646 73.5764 122.598 74.0536 122.606 74.5316C122.606 74.9014 122.606 75.2854 122.606 75.6694V76.8072C122.577 77.2001 122.577 77.5945 122.606 77.9875C122.631 78.2505 122.747 78.4966 122.935 78.6835C123.122 78.8703 123.369 78.9862 123.632 79.0114C123.898 79.0339 124.163 78.9579 124.377 78.7979C124.59 78.6378 124.736 78.4049 124.787 78.1439C124.816 77.6597 124.796 77.1738 124.73 76.6933Z" fill="black"/>
<path d="M157.31 57.1542C156.444 58.6753 155.684 60.262 155.036 61.9013C154.411 63.5695 153.869 65.2715 153.411 67.0001C152.527 70.4057 151.982 73.9007 151.785 77.4276C151.562 80.9349 151.69 84.4576 152.166 87.9362C152.674 91.642 153.766 95.2529 153.995 98.9993C154.139 100.786 153.94 102.585 153.411 104.287C152.87 105.799 152.246 107.276 151.543 108.71C150.273 111.604 149.257 114.783 150.527 117.893C151.493 120.26 154.008 122.749 153.068 125.535C152.463 126.906 151.713 128.199 150.832 129.389C149.966 130.79 149.422 132.389 149.244 134.055C148.85 137.977 150.096 141.67 150.896 145.429C151.582 148.594 151.988 152.476 149.969 155.208C149.054 156.438 150.743 158.088 151.657 156.858C152.518 155.55 153.125 154.073 153.441 152.512C153.758 150.951 153.777 149.338 153.5 147.769C153.118 144.374 151.912 141.169 151.467 137.801C151.198 136.11 151.267 134.377 151.671 132.716C152.177 131.296 152.888 129.968 153.779 128.78C154.658 127.568 155.222 126.132 155.417 124.615C155.472 123.115 155.105 121.632 154.363 120.355C153.604 119.116 152.941 117.813 152.382 116.46C151.988 115.027 152.05 113.496 152.559 112.105C153.537 108.953 155.469 106.221 156.028 102.908C156.675 99.0804 155.811 95.2395 155.062 91.5067C154.345 88.0408 153.962 84.5061 153.919 80.9575C153.962 73.0139 155.608 65.173 158.745 57.9656C158.79 57.7728 158.772 57.5697 158.696 57.3886C158.619 57.2075 158.489 57.0586 158.324 56.9655C158.16 56.8724 157.971 56.8405 157.787 56.8747C157.603 56.9088 157.435 57.0071 157.31 57.1542Z" fill="black"/>
<path d="M160.125 127.379C160.397 125.421 160.018 123.423 159.055 121.734C158.137 119.975 156.863 118.352 156.507 116.28C156.239 113.866 156.647 111.422 157.679 109.257C159.31 105.099 161.883 99.7127 158.813 95.5266C158.71 95.3894 158.564 95.2976 158.402 95.2691C158.24 95.2407 158.074 95.2775 157.936 95.3725C157.798 95.4676 157.698 95.6141 157.656 95.7836C157.613 95.9532 157.63 96.1336 157.705 96.2901C159.807 100.067 157.705 104.594 156.227 108.153C155.271 110.228 154.688 112.475 154.507 114.78C154.519 116.864 155.113 118.896 156.214 120.616C157.301 122.099 158.032 123.846 158.342 125.702C158.287 127.384 157.807 129.019 156.953 130.433C156.047 132.038 155.288 133.732 154.685 135.492C154.172 137.551 154.23 139.726 154.851 141.75C155.626 143.916 156.181 146.166 156.507 148.459C156.639 149.349 156.547 150.26 156.24 151.099C155.933 151.938 155.423 152.675 154.762 153.232C154.575 153.392 154.451 153.621 154.413 153.874C154.375 154.127 154.425 154.386 154.555 154.601C154.685 154.816 154.885 154.972 155.116 155.039C155.347 155.106 155.593 155.079 155.806 154.963C158.928 152.741 158.724 148.145 157.743 144.818C157.093 142.582 156.112 140.319 156.201 138.001C156.417 136.051 157.058 134.182 158.074 132.547C159.013 130.953 159.705 129.208 160.125 127.379Z" fill="black"/>
<path d="M125.672 121.742H125.59L122.16 123.645C112.979 128.643 103.595 133.265 93.9799 137.379C87.0547 140.345 80.021 143.065 72.8788 145.539C72.0109 145.847 71.1563 146.155 70.2884 146.437C68.3899 147.08 66.491 147.777 64.5925 148.299C55.0048 151.354 44.1559 154.222 34.4462 149.988C30.6165 148.277 27.2905 145.632 24.7806 142.301C22.2707 138.97 20.6598 135.063 20.0991 130.947C19.6009 126.702 20.2666 122.402 22.0273 118.499C23.788 114.595 26.5788 111.231 30.107 108.759C31.314 107.941 32.4255 109.764 31.3135 110.634C30.559 111.237 29.8478 111.891 29.1846 112.591C26.3716 115.353 24.3593 118.81 23.3576 122.602C22.3559 126.394 22.4017 130.381 23.4894 134.15C24.6865 137.923 26.8976 141.305 29.8879 143.934C32.8781 146.563 36.5346 148.34 40.4672 149.076C45.3106 149.802 50.2537 149.542 54.9918 148.313C59.8958 147.121 64.7344 145.681 69.4885 143.998C77.8964 141.193 86.1775 138.036 94.3322 134.525L96.5425 133.574L97.5192 133.145C106.673 129.125 115.65 124.663 124.384 119.746C124.591 119.617 124.833 119.557 125.077 119.574C125.321 119.591 125.553 119.684 125.74 119.84C125.909 119.939 126.048 120.082 126.143 120.252C126.237 120.423 126.283 120.616 126.276 120.811C126.269 121.005 126.21 121.194 126.103 121.358C125.997 121.522 125.848 121.655 125.672 121.742Z" fill="black"/>
<path d="M129.119 121.354C129.042 121.493 128.927 121.61 128.786 121.696C128.645 121.781 128.482 121.831 128.314 121.841C128.026 121.858 127.737 121.812 127.473 121.705L126.863 121.558L126.265 121.445L125.801 121.366H125.655C125.548 121.372 125.439 121.358 125.338 121.323C125.237 121.288 125.146 121.233 125.07 121.162C124.915 121.034 124.819 120.856 124.801 120.665C124.795 120.565 124.812 120.466 124.85 120.372C124.888 120.279 124.946 120.194 125.021 120.122C125.16 119.986 125.345 119.898 125.545 119.873C125.67 119.817 125.801 119.771 125.936 119.738L126.399 119.659C126.69 119.619 126.987 119.619 127.278 119.659C127.502 119.676 127.722 119.718 127.936 119.783C128.387 119.874 128.79 120.11 129.071 120.45C129.166 120.583 129.221 120.737 129.23 120.896C129.238 121.055 129.2 121.214 129.119 121.354Z" fill="black"/>
<path d="M94.3623 135.074C94.2796 134.836 94.2109 134.598 94.1283 134.36C92.338 129.065 90.5614 123.77 88.7987 118.475C87.036 113.18 85.2184 108.242 83.8275 103.027L83.4967 101.703C83.4551 101.582 83.4392 101.455 83.4489 101.328C83.4586 101.201 83.4937 101.077 83.5531 100.964C83.6126 100.85 83.695 100.748 83.7952 100.665C83.8954 100.582 84.0118 100.519 84.1375 100.479C84.2632 100.439 84.3954 100.423 84.5275 100.432C84.6595 100.442 84.7884 100.476 84.9067 100.533C85.025 100.59 85.1309 100.669 85.2174 100.765C85.3039 100.862 85.3694 100.973 85.411 101.094L85.797 102.061C87.8627 107.157 89.4459 112.465 91.1811 117.681C92.9162 122.896 94.6514 128.151 96.3728 133.407C96.483 133.711 96.5797 134.029 96.6761 134.333C96.7783 134.628 96.7541 134.95 96.6095 135.228C96.4649 135.506 96.2116 135.717 95.9048 135.816C95.598 135.914 95.2634 135.891 94.9742 135.752C94.6849 135.613 94.4645 135.369 94.3623 135.074Z" fill="black"/>
<path d="M136.399 158.03H135.698C134.202 158.03 132.692 158.03 131.183 158.03C130.226 158.03 129.255 158.03 128.298 157.949C126.29 157.949 124.254 157.787 122.286 157.717L110.641 157.276L108.282 157.184L88.4956 156.43L86.069 156.325C85.3816 156.325 84.7211 156.325 84.0203 156.256L81.3245 156.14L76.216 155.954L72.9003 155.827H72.2804C72.0154 155.828 71.7555 155.765 71.5294 155.647C71.3033 155.528 71.1202 155.357 71.0003 155.154C70.936 155.029 70.8993 154.896 70.8923 154.759C70.8913 154.467 71.0185 154.186 71.2484 153.971C71.4783 153.756 71.7938 153.623 72.1323 153.6H72.7253L86.4198 154.122L111.355 155.061L123.958 155.525C127.773 155.676 131.601 155.78 135.388 156.163L136.56 156.279C137.733 156.407 137.545 157.984 136.399 158.03Z" fill="black"/>
<path d="M145.477 115.569C144.432 121.733 142.704 127.94 141.416 134.05C140.127 140.16 139.569 145.846 137.354 153.23C137.096 154.45 137.229 156.059 136.985 157.292C133.173 156.845 127.532 156.729 123.692 156.553H111.138L85.6615 155.076L71.6309 154.338C70.5172 155.117 72.3672 153.45 72.3752 153.396C71.2616 152.492 72.375 152.624 72.4428 152.245L71.6308 149.907C71.6986 148.552 72.3752 144.985 72.3752 143.63C79.511 141.137 86.4786 138.884 93.4154 135.876C103.034 131.717 112.829 129.037 122.027 123.984L125.432 122.087L125.947 122.182L126.277 121.476L126.646 121.017C126.646 119.261 126.141 121.268 126.462 121.246C126.649 121.235 126.971 120.971 127.128 120.868C127.285 120.766 127.774 121.183 127.86 121.017C127.953 120.856 127.86 121.054 127.86 120.868C127.86 120.683 128.585 120.378 128.492 120.217C128.18 119.81 128.362 120.326 127.86 120.217C127.623 120.139 127.377 120.089 127.128 120.068C126.804 120.021 126.475 120.021 126.151 120.068L126.361 120.868C127.086 121.574 125.676 121.263 125.432 121.246C125.188 121.229 124.638 121.716 124.431 121.845C115.694 126.79 106.561 129.552 97.4043 133.616L96.4279 134.05C94.154 131.815 91.4325 124.257 89.7232 118.892C88.0139 113.527 86.2196 106.317 84.1847 101.169L102.646 91.5687C112.061 87.0437 125.021 81.6711 135.508 86.3994C137.715 87.4526 140.21 89.6995 141.785 91.5687C143.359 93.4379 144.447 95.863 145.108 98.2147C146.844 103.634 146.44 109.96 145.477 115.569Z" fill="black"/>
<path d="M73.1077 145.185V145.354C73.1077 146.759 72.9955 148.164 72.9257 149.568L72.8146 151.704C72.8146 152.097 72.8142 152.505 72.7444 152.898C72.7362 152.954 72.7362 153.011 72.7444 153.067C72.7457 153.408 72.7037 153.748 72.619 154.078C72.554 154.343 72.4089 154.581 72.204 154.76C71.999 154.939 71.7438 155.049 71.474 155.076C71.2967 155.083 71.1207 155.049 70.9581 154.978C70.7836 154.923 70.6256 154.824 70.4988 154.692C70.3719 154.559 70.2803 154.397 70.2323 154.219C70.1276 153.436 70.1276 152.642 70.2323 151.859C70.2323 151.114 70.3019 150.454 70.3298 149.639C70.3298 148.543 70.4137 147.433 70.4974 146.337C70.4974 145.902 70.4975 145.48 70.5813 145.045C70.6481 144.73 70.8265 144.451 71.0835 144.259C71.3406 144.068 71.6585 143.977 71.977 144.005C72.271 144.042 72.5435 144.18 72.7492 144.394C72.9548 144.609 73.0813 144.888 73.1077 145.185Z" fill="black"/>
<path d="M76.5004 155.929C74.7858 157.417 73.0843 158.918 71.4786 160.5C71.1248 160.818 70.7982 161.151 70.458 161.496C70.1178 161.841 69.6829 162.293 69.3019 162.705C68.9209 163.117 68.24 163.861 67.7365 164.459C67.233 165.057 66.3762 166.027 65.791 166.851C61.44 172.537 58.273 179.001 56.4697 185.877C56.075 187.445 53.5439 186.94 53.9521 185.372C54.6565 182.653 55.5662 179.988 56.6736 177.4C58.2469 173.715 60.2276 170.209 62.5798 166.943C63.1377 166.16 63.7086 165.402 64.3073 164.645L64.3891 164.539C64.8926 163.914 65.3965 163.303 65.9272 162.692C66.4579 162.081 67.2877 161.177 67.9817 160.446C70.1423 158.196 72.5677 156.202 75.2074 154.507C76.16 153.87 77.3713 155.185 76.5004 155.929Z" fill="black"/>
<path d="M135.324 183.387C124.835 183.274 114.346 183.065 103.912 183.162C93.4772 183.258 83.043 183.484 72.6087 183.872C69.686 183.985 66.7494 184.114 63.8267 184.259C60.904 184.404 57.8584 184.453 54.8947 184.84C54.6084 184.891 54.3488 185.067 54.1665 185.333C53.9842 185.599 53.8926 185.936 53.9097 186.277C53.9268 186.619 54.0516 186.941 54.2592 187.179C54.4667 187.418 54.742 187.557 55.0314 187.567C57.6536 187.567 60.2762 187.406 62.8985 187.293L70.7515 186.97C75.996 186.755 81.2405 186.583 86.4849 186.454C96.901 186.196 107.335 186.066 117.788 186.066C123.688 186.066 129.615 186.147 135.542 186.341C137.086 186.389 136.922 183.42 135.324 183.387Z" fill="black"/>
<path d="M135.832 170.287C135.364 167.883 134.669 165.542 133.76 163.303C133.301 162.172 132.792 161.067 132.234 159.993C131.713 158.807 131.017 157.731 130.175 156.808C129.468 156.138 128.178 156.878 128.562 157.968C129.036 159.076 129.579 160.145 130.188 161.166C130.683 162.119 131.13 163.103 131.527 164.113C132.399 166.3 133.076 168.578 133.549 170.915C133.993 173.182 134.234 175.493 134.269 177.815C134.298 178.961 134.264 180.109 134.169 181.251C133.979 182.47 133.855 183.702 133.798 184.938C133.815 185.206 133.909 185.461 134.065 185.663C134.222 185.866 134.433 186.007 134.666 186.063C134.9 186.12 135.143 186.09 135.36 185.978C135.577 185.865 135.755 185.677 135.869 185.441C136.255 184.177 136.465 182.853 136.489 181.516C136.576 180.287 136.626 179.044 136.614 177.787C136.573 175.264 136.312 172.752 135.832 170.287Z" fill="black"/>
<path d="M133.451 173.342C128.676 174.722 123.45 175.274 118.675 173.604C116.66 172.983 114.825 171.878 113.328 170.382C111.831 168.887 110.718 167.046 110.083 165.019C109.756 163.853 109.631 162.639 109.714 161.431C109.861 160.22 110.127 159.028 110.508 157.87C110.553 157.635 110.522 157.39 110.418 157.175C110.314 156.959 110.144 156.783 109.932 156.674C109.72 156.564 109.479 156.528 109.244 156.569C109.01 156.611 108.795 156.728 108.633 156.904C107.26 159.063 106.77 161.675 107.265 164.191C107.653 166.743 108.744 169.134 110.412 171.092C112.168 173.013 114.297 174.549 116.667 175.604C119.038 176.658 121.598 177.208 124.189 177.22C127.61 177.305 131.023 176.839 134.299 175.84C135.859 175.357 135.052 172.969 133.451 173.342Z" fill="black"/>
<path d="M129.218 176.168C129.2 175.87 129.085 175.589 128.895 175.377C128.705 175.165 128.452 175.038 128.183 175.018C127.917 174.994 127.652 175.079 127.438 175.257C127.224 175.435 127.075 175.693 127.02 175.984C126.841 177.589 126.739 179.194 126.484 180.786C126.356 181.553 126.215 182.32 126.049 183.073C125.946 183.485 125.857 183.883 125.742 184.295C125.576 184.744 125.509 185.232 125.55 185.715C125.571 185.948 125.651 186.17 125.78 186.354C125.91 186.538 126.084 186.678 126.282 186.757C126.48 186.836 126.694 186.85 126.899 186.799C127.105 186.748 127.293 186.633 127.442 186.468C127.943 185.692 128.259 184.788 128.362 183.84C128.554 183.03 128.707 182.206 128.835 181.382C129.145 179.667 129.274 177.917 129.218 176.168Z" fill="black"/>
<path d="M86.4595 155.126C84.9065 158.476 83.358 161.826 81.8143 165.176C80.3533 168.352 78.9478 171.568 77.404 174.702C76.884 174.765 76.3565 174.737 75.846 174.619C76.646 171.486 77.6922 168.421 78.9748 165.452C79.6778 163.837 80.4358 162.263 81.2766 160.717C82.1173 159.171 83.2479 157.57 83.9646 155.871C84.0727 155.64 84.0956 155.378 84.0285 155.132C83.9615 154.885 83.8088 154.671 83.5985 154.526C83.3881 154.382 83.1333 154.317 82.8797 154.344C82.6261 154.37 82.3903 154.486 82.2141 154.67C81.0001 156.081 79.9761 157.645 79.168 159.323C78.2583 160.993 77.4178 162.691 76.6597 164.431C75.1672 167.889 73.9862 171.475 73.1311 175.144C73.0787 175.415 73.1149 175.695 73.234 175.944C73.3532 176.192 73.5489 176.396 73.7926 176.524C74.7281 177.011 75.7707 177.253 76.8246 177.228C77.3244 177.215 77.8185 177.117 78.2857 176.939C78.5643 176.84 78.8157 176.676 79.0172 176.459C79.2188 176.243 79.3652 175.981 79.4439 175.696C80.4088 173.515 81.4421 171.361 82.4483 169.194C84.479 164.859 86.4962 160.524 88.4994 156.189C89.1196 154.781 87.0797 153.787 86.4595 155.126Z" fill="black"/>
<path d="M133.465 119.949C133.393 119.844 133.306 119.751 133.206 119.671L133.084 119.591C132.948 119.495 132.807 119.407 132.661 119.327C132.497 119.221 132.333 119.141 132.156 119.049C131.995 118.96 131.826 118.885 131.651 118.824L131.324 118.718C131.189 118.496 130.981 118.325 130.734 118.231C130.487 118.137 130.215 118.127 129.961 118.201L112.831 125.64L104.403 129.307C101.525 130.631 98.5385 131.716 95.77 133.172C94.6654 133.754 95.5384 135.475 96.6976 135.078C99.5752 134.072 102.358 132.722 105.153 131.517L113.718 127.811L130.71 120.425L131.065 120.677C131.276 120.837 131.494 120.987 131.72 121.127C131.931 121.285 132.172 121.402 132.429 121.471C132.604 121.51 132.786 121.51 132.961 121.471C133.175 121.407 133.359 121.271 133.479 121.087C133.585 120.944 133.647 120.774 133.656 120.597C133.682 120.365 133.613 120.133 133.465 119.949Z" fill="white"/>
<path d="M35.3959 107.63C35.3959 105.056 35.2644 102.483 35.1688 99.91C35.1688 98.6303 35.0609 97.3369 35.0011 96.0572C35.0011 95.438 35.0014 94.8186 34.9176 94.1994C34.9747 93.4694 34.8417 92.7366 34.5351 92.0942C34.433 91.9231 34.2945 91.785 34.1327 91.6932C33.9709 91.6014 33.7913 91.559 33.6112 91.5701C33.4311 91.5811 33.2561 91.6453 33.1037 91.7564C32.9513 91.8674 32.8267 92.0216 32.741 92.2042C32.4979 92.8349 32.4308 93.5368 32.5495 94.2132C32.5495 94.8737 32.6213 95.5893 32.6453 96.2085C32.7051 97.447 32.7528 98.6853 32.8006 99.91C32.9083 102.538 32.9802 105.166 33.04 107.795C33.0999 110.423 33.1592 112.941 33.1831 115.514C33.1831 116.794 33.1831 118.088 33.1831 119.367C33.1428 120.693 33.2113 122.02 33.3869 123.33C33.5783 124.445 35.0016 124.184 35.181 123.22C35.3721 121.902 35.4439 120.565 35.3959 119.23C35.3959 117.991 35.3959 116.753 35.3959 115.514C35.4797 112.859 35.4438 110.258 35.3959 107.63Z" fill="black"/>
<path d="M73.1215 86.4006L55.1981 87.6777L46.3249 88.331C43.6072 88.5389 40.7806 88.5537 38.0628 89.0289C35.8751 89.415 32.9265 90.5139 32.5053 93.2314C32.4712 93.4637 32.5048 93.7018 32.6021 93.9115C32.6995 94.1213 32.8551 94.292 33.0467 94.3992C33.2383 94.5063 33.4564 94.5445 33.6691 94.5081C33.8817 94.4717 34.0786 94.3628 34.2311 94.1967C34.7221 93.4782 35.3784 92.9145 36.1333 92.5631C36.9763 92.2134 37.858 91.9887 38.7555 91.8949C41.4733 91.5979 44.1097 91.5237 46.7867 91.3306L63.6234 90.1279L73.2715 89.4298C73.6391 89.4082 73.9837 89.2278 74.2296 88.9284C74.4755 88.6291 74.6024 88.2353 74.5826 87.8336C74.5628 87.4319 74.3974 87.0551 74.1235 86.7864C73.8495 86.5176 73.4892 86.379 73.1215 86.4006Z" fill="black"/>
<path d="M75.9891 95.5655C75.8786 97.8617 75.7804 100.144 75.6822 102.44C75.6822 102.597 75.6822 102.739 75.6822 102.882L75.5347 105.649C74.7244 106.134 73.9141 106.59 73.0793 107.075C73.0793 106.647 73.0796 106.234 73.141 105.82C73.2024 105.406 73.141 104.807 73.141 104.294C73.141 103.781 73.1408 103.296 73.2022 102.782C73.2881 100.814 73.3866 98.8458 73.4725 96.8777C73.6156 95.1811 73.6606 93.4752 73.6074 91.7717C73.5723 91.1621 73.4479 90.564 73.2393 90.0032C73.0061 89.4469 72.527 88.9905 72.4043 88.4058C72.3419 88.1618 72.3635 87.8992 72.4642 87.6732C72.5649 87.4471 72.7369 87.2752 72.9444 87.1935C74.4545 86.7657 75.4859 88.848 75.7805 90.2885C76.0626 92.0275 76.1328 93.8038 75.9891 95.5655Z" fill="black"/>
<path d="M53.0423 77.8837C52.911 75.3749 52.7929 72.8524 52.6616 70.3436C52.5566 68.228 52.7666 65.6107 50.3122 64.7156C47.6881 63.8912 44.9569 63.4887 42.2143 63.5222C39.3765 63.4242 36.541 63.7671 33.8017 64.5393C33.6318 64.5745 33.472 64.6506 33.3358 64.7615C33.1997 64.8723 33.0909 65.0148 33.018 65.1773C32.9451 65.3398 32.9106 65.5178 32.9167 65.6968C32.9229 65.8758 32.9694 66.0506 33.0532 66.2073C32.9684 66.2843 32.8996 66.3779 32.8501 66.4826C32.8005 66.5874 32.7715 66.7013 32.7648 66.8177C32.5548 69.3808 32.6072 71.9709 32.5809 74.5475C32.4628 76.9554 32.4628 79.368 32.5809 81.7758C32.6169 82.8521 33.0376 83.8764 33.762 84.6508C34.5824 85.3507 35.6262 85.7086 36.6888 85.6543C37.8958 85.6314 39.1007 85.5408 40.2981 85.383L44.3016 85.044L48.1468 84.7185C49.2711 84.7014 50.3816 84.4572 51.4151 83.9997C53.6464 82.7521 53.1604 79.9857 53.0423 77.8837ZM50.4173 81.5452C50.0498 82.047 49.2097 82.047 48.6453 82.0877C47.451 82.2097 46.2698 82.2911 45.0886 82.3996L38.5262 82.9556C37.6968 83.1048 36.8491 83.1048 36.0198 82.9556C35.3504 82.7522 35.2712 82.074 35.2187 81.4773C35.0481 79.1177 35.2187 76.7038 35.2187 74.3441C35.2187 71.9844 35.298 69.3943 35.1142 66.9261C35.1204 66.8857 35.1204 66.8445 35.1142 66.8041C39.0702 65.8818 43.1608 65.7574 47.1624 66.4379C47.7005 66.5464 48.2517 66.6549 48.7767 66.7905C49.12 66.8223 49.4523 66.9336 49.7483 67.116C50.2208 67.5499 50.063 68.7433 50.0892 69.2858C50.1942 71.4691 50.3126 73.6662 50.4045 75.8495L50.5622 78.9821C50.549 79.728 50.811 80.9349 50.3648 81.5316L50.4173 81.5452Z" fill="#1D4ED8"/>
<path d="M50.6856 81.8644C50.3019 82.3857 49.4254 82.3857 48.8362 82.4279C47.5891 82.5547 46.3552 82.6392 45.1219 82.7519L38.2701 83.3295C37.4042 83.4845 36.5192 83.4845 35.6532 83.3295C34.9543 83.1182 34.8723 82.4138 34.8175 81.7939C34.6394 79.3428 34.8175 76.8353 34.8175 74.3841C34.8175 71.933 34.8996 69.2424 34.7078 66.6785C34.7142 66.6365 34.7142 66.5938 34.7078 66.5518C38.8381 65.5937 43.1092 65.4646 47.2871 66.1714C47.849 66.2841 48.4245 66.3968 48.9726 66.5377C49.3311 66.5708 49.678 66.6863 49.987 66.8758C50.4804 67.3266 50.3156 68.5662 50.343 69.1297C50.4526 71.3977 50.5763 73.6799 50.6722 75.9479L50.8368 79.202C50.8779 79.9908 51.1515 81.2446 50.6856 81.8644Z" fill="#1D4ED8"/>
<path d="M108.39 60.35C108.199 58.3067 107.517 56.1309 105.417 55.2287C103.317 54.3264 100.549 54.7244 98.2712 54.7774C93.9211 54.8703 89.5715 54.8837 85.235 55.0296C84.0213 55.0296 80.7485 54.6182 79.7803 55.2949C77.8439 56.6217 78.3483 61.9288 78.3074 63.9853C78.2665 66.0418 78.3074 67.8861 78.3074 69.8364C78.4782 73.7364 78.8604 77.6247 79.4527 81.4854C79.4802 81.8186 79.636 82.1294 79.8888 82.3558C80.1416 82.5821 80.4728 82.7071 80.8164 82.7061L97.0853 81.6977L101.08 81.4457C102.298 81.4655 103.511 81.3088 104.681 80.9812C106.945 80.1188 107.408 77.7837 107.681 75.6741C108.514 70.6087 108.752 65.4677 108.39 60.35ZM105.922 66.3205C105.922 68.6556 105.731 70.9907 105.458 73.3126C105.335 74.3475 105.199 75.3956 105.022 76.4172C104.885 77.1204 104.762 78.1021 104.067 78.4869C103.184 78.7491 102.261 78.8571 101.34 78.8054L97.3577 79.0574L82.0162 80.026C81.539 76.6427 81.2121 73.233 81.0621 69.8232C80.9802 67.9259 80.9389 66.0285 80.9389 64.118C81.0616 62.0986 81.0616 60.074 80.9389 58.0547C85.3845 57.0994 90.6076 57.6168 95.1623 57.4708C97.576 57.4708 100.003 57.2718 102.417 57.2718C103.209 57.206 104.004 57.3626 104.708 57.723C105.312 58.2367 105.684 58.9611 105.744 59.7397C105.994 61.9245 106.054 64.1259 105.922 66.3205Z" fill="#1D4ED8"/>
<path d="M106.268 66.2678C106.268 68.6913 106.071 71.1148 105.789 73.5246C105.663 74.5986 105.522 75.6864 105.339 76.7467C105.199 77.4765 105.072 78.4954 104.354 78.8947C103.443 79.1669 102.491 79.279 101.54 79.2254L97.432 79.4869L81.6039 80.4921C81.1114 76.9808 80.7742 73.4419 80.6194 69.9031C80.535 67.934 80.4923 65.9648 80.4923 63.9819C80.6189 61.8861 80.6189 59.7849 80.4923 57.6891C85.079 56.6976 90.4678 57.2346 95.167 57.0831C97.6573 57.0831 100.161 56.8765 102.652 56.8765C103.469 56.8083 104.29 56.9709 105.016 57.3448C105.639 57.878 106.023 58.6298 106.085 59.4379C106.343 61.7054 106.404 63.9902 106.268 66.2678Z" fill="#1D4ED8"/>
<path d="M74.0911 64.3997C74.0042 64.1373 73.8347 63.911 73.6087 63.7553C73.3827 63.5996 73.1127 63.523 72.8396 63.5374C67.4083 63.3915 61.9754 63.7522 56.6095 64.6151C56.2751 64.6423 55.9628 64.7963 55.7357 65.0461C55.5086 65.2958 55.3836 65.6231 55.3847 65.9625C55.4042 66.1628 55.4675 66.3563 55.5706 66.5284C55.5641 66.5686 55.5641 66.6095 55.5706 66.6496C55.5861 69.4493 55.7418 72.2465 56.0367 75.0302C56.1432 76.3776 56.2367 77.8192 56.3566 79.2069C56.2982 79.8137 56.4169 80.4246 56.6985 80.9635C56.9802 81.5024 57.4124 81.9457 57.9409 82.2385C59.1644 82.617 60.4454 82.7676 61.722 82.683C63.0534 82.683 64.3846 82.683 65.8093 82.683C68.5841 82.6223 71.3516 82.3658 74.0911 81.9151C74.4185 81.8876 74.722 81.7308 74.9362 81.4788C75.1505 81.2267 75.258 80.8995 75.2359 80.5678C75.5131 75.1513 75.1287 69.7208 74.0911 64.3997ZM72.8526 79.6515C70.8022 79.9075 68.7389 80.1096 66.6752 80.1905C64.2395 80.3523 61.7945 80.3118 59.3653 80.0693C58.9259 80.0019 58.9391 80.0691 58.8725 79.611C58.806 79.153 58.7928 78.4794 58.7529 77.9001C58.6597 76.6605 58.5662 75.4209 58.4864 74.1679C58.3133 71.8101 58.2201 69.4118 57.8739 67.0674C62.4991 66.2643 67.1887 65.9033 71.8807 65.9895C72.676 70.4965 73.0017 75.0756 72.8526 79.6515Z" fill="#1D4ED8"/>
<path d="M78.2555 25.3729V29.3713C78.1814 34.8713 78.1214 40.3669 78.0751 45.858C78.1821 48.3709 78.094 50.888 77.8114 53.3883C77.6862 54.4844 77.2511 55.5269 76.5535 56.4031C75.856 57.2792 74.9225 57.9557 73.8534 58.3596C71.4926 59.1993 68.6599 58.9594 66.1741 59.0394L57.5638 59.2792L40.3297 59.7723C37.8995 59.7723 35.0391 60.1855 33.1088 58.4395C31.7027 56.8549 30.9819 54.8138 31.0949 52.7353C30.9005 47.2575 31.0948 41.7397 31.3309 36.2619C31.4698 33.4364 31.6923 30.4375 31.9839 27.5454C32.1366 26.0526 32.3035 24.5599 32.4979 23.0672C32.4975 21.7208 32.66 20.3789 32.9834 19.0688C33.0249 18.9358 33.0965 18.813 33.1922 18.7089C33.2842 18.6103 33.3977 18.5328 33.5252 18.4823C33.5935 18.2791 33.7216 18.0994 33.894 17.9646C34.0665 17.8298 34.2764 17.7458 34.4975 17.7227H34.7471H39.1499H49.1902C50.2456 18.4024 52.8106 19.9485 53.9077 20.5882L49.1902 20.4815H35.3723C35.3028 21.6277 35.2474 22.7873 35.1363 23.9469C34.6225 29.0382 34.2749 34.1561 34.0805 39.2607C33.9972 41.8064 33.9418 44.352 33.9279 46.8976C33.8399 49.2664 33.8907 51.6381 34.0805 54.0014C34.1292 54.8026 34.4032 55.5763 34.8725 56.2405C35.1507 56.5265 35.4888 56.7527 35.8645 56.9043C36.2403 57.0559 36.645 57.1294 37.0525 57.1201C38.2877 57.18 39.5251 57.18 40.7603 57.1201L44.8295 57.0002L60.98 56.5604L68.9651 56.3338C70.7843 56.3338 73.3537 56.4937 74.4508 54.7877C75.5479 53.0817 75.2703 50.9226 75.2842 49.1099C75.2842 46.4443 75.2839 43.9254 75.3533 41.3265C75.4089 36.1819 75.4553 31.0373 75.4923 25.8927C75.4923 24.3067 75.9923 21.6278 74.1036 20.8947C73.205 20.6312 72.2637 20.5273 71.3262 20.5882H56.1231C56.2191 20.4071 57.1886 20.1372 57.2308 19.938C55.5703 19.0935 58.5912 19.3276 58.522 18.9887C58.6117 18.8287 58.7436 18.6942 58.9044 18.5983C59.0652 18.5024 59.2495 18.4487 59.4387 18.4424C60.1331 18.4424 60.7581 18.5489 61.258 17.9625L61.3272 17.8692H65.0349C66.4237 17.8692 67.8125 17.8692 69.3123 17.8692C70.8121 17.8692 71.8953 17.8692 73.159 18.0292C74.3068 18.0682 75.4096 18.4693 76.2958 19.1705C77.1821 19.8716 77.8027 20.8338 78.0616 21.9077C78.2504 23.0533 78.3151 24.2145 78.2555 25.3729Z" fill="#1D4ED8"/>
<path d="M58.2467 18.9272C58.2053 19.1229 58.1367 19.3122 58.0425 19.4902C57.9132 19.7714 57.7331 20.0286 57.5111 20.2498C56.8875 20.8114 56.1101 21.1897 55.2702 21.3405C54.4304 21.4913 53.563 21.4082 52.7707 21.1009C51.5103 20.6753 50.2965 20.1315 49.1471 19.4771L47.7849 18.7045C46.7087 18.1021 45.6601 17.395 44.6248 16.7665L42.9081 15.6403C42.6822 15.3997 42.5576 15.087 42.5576 14.7628C42.5576 14.4387 42.6822 14.126 42.9081 13.8854C43.1467 13.6643 43.4611 13.5344 43.7921 13.52C44.1231 13.5055 44.4483 13.6076 44.7067 13.8069C46.0981 14.8551 47.5634 15.8089 49.0925 16.6616L49.2834 16.7796C50.627 17.6108 52.0503 18.3168 53.5336 18.8879C54.2419 19.1236 56.0123 19.3462 56.1076 18.22C56.0555 17.6811 55.8102 17.1765 55.4132 16.7927L55.1678 16.5176C54.7183 15.9938 54.2279 15.4963 53.8056 15.0117C51.8146 12.9834 49.5188 11.253 46.9947 9.87835C45.7684 9.1538 44.3466 8.79383 42.9081 8.84377C41.6704 8.98368 40.528 9.55146 39.6936 10.4414C38.0045 12.1437 37.4185 14.501 36.7783 16.7402H34.9532H34.7078C35.0756 13.2307 36.3429 9.47238 39.653 7.57357C40.594 7.05462 41.6435 6.7441 42.7252 6.6648C43.8069 6.58551 44.8933 6.73948 45.9052 7.11527C47.1134 7.50166 48.2596 8.04819 49.3107 8.73907L49.5016 8.84377C52.545 10.6845 55.2281 13.0249 57.4292 15.7581C57.6733 16.0774 57.8746 16.425 58.0285 16.7927C58.1827 17.1474 58.2792 17.5228 58.3145 17.9057C58.3619 18.2472 58.339 18.5943 58.2467 18.9272Z" fill="black"/>
<path d="M64.2264 16.4572C64.2098 16.5688 64.1859 16.6792 64.1555 16.788C64.1087 16.9822 64.0431 17.1716 63.9584 17.3532C63.5451 18.3229 62.7888 19.1153 61.8277 19.5862C61.4202 19.8161 60.9577 19.937 60.4871 19.937C60.0166 19.937 59.5548 19.8161 59.1473 19.5862L58.7801 19.352C58.6583 19.256 58.562 19.1332 58.4983 18.9936C58.415 18.8285 58.3716 18.6469 58.3716 18.4629C58.3716 18.2788 58.415 18.0972 58.4983 17.9322C58.5895 17.7667 58.7235 17.6273 58.8869 17.5282C59.0502 17.429 59.2368 17.3735 59.429 17.367C60.1344 17.367 60.7694 17.4773 61.2773 16.8708L61.3483 16.7742C61.5216 16.4945 61.6238 16.1784 61.6459 15.8521C61.6679 15.5259 61.6092 15.1991 61.475 14.8996C60.8683 13.1352 58.893 12.1428 57.3693 11.1504C55.6082 10.0095 53.6762 9.14453 51.6419 8.58656C50.8351 8.3849 50.0056 8.28306 49.1729 8.28335C47.9782 8.26979 46.7867 8.41343 45.6313 8.71057C44.5873 8.97246 43.7407 7.53891 44.7847 6.97377C45.0617 6.82114 45.3498 6.68769 45.6458 6.57414C47.8245 5.76107 50.2196 5.6882 52.4458 6.36735C53.4326 6.63683 54.3987 6.97303 55.3377 7.37356C57.1006 8.14644 58.7908 9.06891 60.3886 10.1304C62.1785 11.1655 63.4997 12.8257 64.0852 14.7756C64.2296 15.3242 64.2774 15.8929 64.2264 16.4572Z" fill="black"/>
<path d="M69.2812 17.5487C69.2259 17.598 69.1643 17.6398 69.0978 17.6732C68.1219 18.2518 66.9884 18.5223 65.8503 18.4483C65.1259 18.4323 64.4057 18.3348 63.704 18.1577C63.284 18.0374 62.8907 17.8401 62.5457 17.5762C62.4227 17.4809 62.3096 17.3743 62.2072 17.2579C62.1192 17.1242 62.0637 16.9724 62.0451 16.8144C62.0266 16.6563 62.045 16.4963 62.0996 16.3465C62.1542 16.1967 62.243 16.061 62.3595 15.9503C62.476 15.8395 62.6174 15.7565 62.7718 15.7076C63.136 15.5919 63.522 15.5588 63.9012 15.6108C64.7901 15.8485 65.7056 15.9787 66.6267 15.9984C67.052 15.9979 67.4655 15.8629 67.8064 15.6135C68.1473 15.3642 68.3971 15.0138 68.5186 14.6142C68.5252 14.5869 68.5252 14.5584 68.5186 14.5311C68.5368 13.6962 68.263 12.8804 67.7423 12.2195L67.3893 11.735C66.8155 10.9352 66.1255 10.2217 65.3415 9.61717C63.7058 8.34028 61.7099 7.58663 59.623 7.45793C58.0933 7.37842 56.5634 7.61419 55.1325 8.15002C54.4264 8.39918 53.7208 8.68985 53.0289 9.00821C52.7919 9.08227 52.5354 9.06974 52.307 8.97307C52.0786 8.8764 51.8933 8.70211 51.7858 8.48221C51.6834 8.26167 51.6648 8.01279 51.732 7.77964C51.7992 7.5465 51.9483 7.34412 52.1532 7.2087H52.238C54.3828 5.71012 56.9973 4.99963 59.623 5.2017C60.6633 5.25659 61.6924 5.43795 62.687 5.74155C63.6735 6.04472 64.621 6.4581 65.5111 6.9735C67.2383 7.96792 68.6923 9.35988 69.7473 11.0291C69.9026 11.2782 70.0439 11.5274 70.1851 11.7766C70.4671 12.3332 70.6715 12.9245 70.7925 13.5345C70.9648 14.2752 70.9132 15.049 70.645 15.7617C70.3767 16.4744 69.903 17.0953 69.2812 17.5487Z" fill="black"/>
<path d="M81.7011 10.0633C80.6977 12.3524 77.9386 13.1243 75.5553 13.0045C73.9107 13.0045 71.7502 12.4722 70.0498 13.0045C69.611 13.1355 69.2038 13.3482 68.8514 13.6301C68.5539 13.8966 68.1581 14.04 67.7503 14.0293C67.7683 13.2266 67.4973 12.4423 66.9834 11.8069C67.5474 11.2499 68.2462 10.834 69.0182 10.5957C70.8812 10.1851 72.8143 10.1533 74.691 10.5025C75.9686 10.7675 77.3028 10.6029 78.468 10.0367C79.3181 9.51765 79.8618 8.62599 79.2764 7.73431C78.8296 7.27943 78.2925 6.91352 77.6969 6.65769C77.1013 6.40186 76.4586 6.26118 75.8057 6.24374C74.4013 6.01573 72.9797 5.89997 71.5552 5.8977C69.2829 5.928 67.0204 6.19574 64.8091 6.69619C64.0426 6.85589 63.2765 7.05557 62.5239 7.24189C62.2873 7.31602 62.0295 7.29739 61.8073 7.19007C61.5851 7.08274 61.4167 6.89545 61.3391 6.66955C61.2615 6.44365 61.2812 6.19758 61.3935 5.98543C61.5059 5.77328 61.7021 5.61246 61.9386 5.53834C64.8074 4.39807 67.8765 3.78841 70.9835 3.74169C73.681 3.55691 76.3905 3.88251 78.9559 4.69988C79.513 4.86867 80.0282 5.14362 80.4708 5.50812C80.9133 5.87262 81.2737 6.31908 81.5303 6.82047C81.787 7.32186 81.9345 7.86786 81.9638 8.42525C81.9932 8.98264 81.9038 9.53988 81.7011 10.0633Z" fill="black"/>
<path d="M60.3136 18.4698C60.1718 18.35 59.9925 18.2737 59.8012 18.2514C59.6744 18.2405 59.547 18.2405 59.4202 18.2514H59.1462C59.0046 18.2338 58.865 18.2046 58.7291 18.164L58.4313 18.0656L58.6576 18.1422L58.2998 18.0002L58.1335 17.9236L57.9549 17.8581C57.8347 17.7704 57.685 17.7227 57.5314 17.7227C57.3778 17.7227 57.2287 17.7704 57.1085 17.8581C56.9834 17.9473 56.8989 18.0756 56.8706 18.2186C56.845 18.3652 56.8742 18.5154 56.9538 18.6446C57.0044 18.779 57.0723 18.9074 57.1562 19.0269C57.2575 19.1511 57.3694 19.268 57.4901 19.3766C57.6245 19.4836 57.7726 19.5753 57.931 19.6497C58.0928 19.7193 58.26 19.7778 58.4313 19.8245C58.703 19.8937 58.9829 19.9304 59.2649 19.9337C59.499 19.9522 59.7346 19.911 59.9449 19.8146C60.1551 19.7182 60.3318 19.5704 60.4562 19.3875C60.5396 19.24 60.5708 19.0722 60.5452 18.9077C60.5195 18.7432 60.4388 18.59 60.3136 18.4698Z" fill="black"/>
<path d="M34.5395 106.101C34.4331 105.939 34.2883 105.808 34.1188 105.72C33.9493 105.633 33.7612 105.592 33.5719 105.601C33.1718 105.647 32.7927 105.811 32.4794 106.072L31.8015 106.544C31.3603 106.848 30.9357 107.177 30.5294 107.53C29.5601 108.251 28.7499 109.176 28.1514 110.245C28.0687 110.415 28.042 110.608 28.0757 110.795C28.1095 110.983 28.2013 111.153 28.3377 111.281C28.4741 111.409 28.6471 111.487 28.8306 111.504C29.0141 111.521 29.198 111.475 29.3539 111.373L29.6861 111.145C29.7691 111.145 29.8516 111.002 29.9346 110.931H30.0041C30.2392 110.731 30.4601 110.545 30.6814 110.33C30.8522 110.14 31.0377 109.963 31.235 109.802L31.3869 109.673L31.705 109.402C32.1198 109.087 32.5349 108.773 32.9635 108.487L33.6273 108.073C34.0052 107.905 34.3272 107.627 34.5536 107.273C34.6568 107.095 34.71 106.892 34.7076 106.685C34.7052 106.478 34.6468 106.276 34.5395 106.101Z" fill="black"/>
<path d="M102.636 28.5379C102.599 28.2022 102.438 27.8923 102.186 27.6678C101.933 27.4433 101.606 27.3202 101.268 27.3223L82.4565 28.1829C82.2152 28.1797 81.9791 28.2517 81.7805 28.3888C81.5819 28.5259 81.4306 28.7211 81.3483 28.9477C81.1724 29.0066 81.0189 29.1183 80.9088 29.2674C80.7986 29.4165 80.7375 29.5957 80.7331 29.7809C80.5415 31.8299 80.5964 33.8789 80.5828 35.9552V42.1431C80.4109 43.9659 80.4841 45.8036 80.8012 47.6069C81.0376 48.4087 81.5438 49.1046 82.2341 49.5774C82.9244 50.0501 83.7566 50.2709 84.5908 50.2023C86.5609 50.2023 88.5584 50.011 90.5147 49.9017C92.4711 49.7924 94.6193 49.6968 96.6304 49.5739C97.4574 49.6107 98.2781 49.4185 99.0025 49.0183C99.7268 48.6181 100.327 48.0257 100.735 47.3065C101.379 45.666 101.749 43.9308 101.829 42.1704C102.435 37.6524 102.704 33.0957 102.636 28.5379ZM99.6264 39.2062C99.4486 40.9819 99.2296 42.7577 98.915 44.5198C98.7234 45.6399 98.4906 46.7327 97.2182 46.8966C95.4671 47.1288 93.648 47.1151 91.8969 47.1971L86.6977 47.4841C85.699 47.4841 83.5785 48.0987 83.2501 46.7737C83.1565 46.2143 83.1246 45.6463 83.1546 45.0799C83.1546 44.1647 83.1546 43.2359 83.1546 42.348V36.1601C83.1546 34.398 83.1545 32.6222 83.0724 30.8601L100.078 30.0132C100.091 33.0834 99.9398 36.152 99.6264 39.2062Z" fill="black"/>
<path d="M96.5135 33.5892C95.8146 32.7031 94.6237 33.6699 94.0412 34.2204C92.9067 35.3188 91.9186 36.5694 91.1032 37.9391C90.5324 38.8719 90.0348 39.8507 89.6149 40.866C89.356 40.5706 89.123 40.2485 88.89 39.9262C88.657 39.604 88.3333 39.067 88.0615 38.5837C87.7897 38.1004 87.4273 37.3888 86.7672 37.2411C86.5787 37.2043 86.3842 37.2314 86.2117 37.3185C86.0392 37.4055 85.8982 37.5478 85.8097 37.7244C85.4603 38.3286 85.8096 39.0669 86.0297 39.6845C86.2753 40.2497 86.5653 40.793 86.8967 41.309C87.5636 42.3002 88.3465 43.2021 89.2268 43.9941C89.372 44.1202 89.5419 44.2117 89.7248 44.2622C89.9078 44.3127 90.099 44.321 90.2854 44.2865C90.4717 44.2519 90.6482 44.1754 90.803 44.0623C90.9577 43.9491 91.0869 43.8022 91.1809 43.6317C92.2013 40.7857 93.7591 38.1793 95.7627 35.9656C96.2546 35.4151 97.1607 34.4082 96.5135 33.5892Z" fill="#1D4ED8"/>
<path d="M70.6675 68.2963C69.9685 67.4102 68.7776 68.3769 68.1952 68.9274C67.0606 70.0259 66.0725 71.2764 65.2571 72.6461C64.6864 73.5789 64.1888 74.5577 63.7688 75.573C63.5099 75.2776 63.2769 74.9555 63.0439 74.6333C62.8109 74.3111 62.4872 73.774 62.2154 73.2907C61.9436 72.8074 61.5812 72.0958 60.9211 71.9482C60.7326 71.9113 60.5381 71.9385 60.3656 72.0255C60.1931 72.1126 60.0521 72.2549 59.9637 72.4315C59.6142 73.0356 59.9636 73.774 60.1836 74.3915C60.4293 74.9568 60.7192 75.5 61.0507 76.016C61.7176 77.0072 62.5004 77.9091 63.3808 78.7011C63.5259 78.8272 63.6958 78.9187 63.8788 78.9692C64.0617 79.0197 64.253 79.028 64.4393 78.9935C64.6257 78.9589 64.8022 78.8824 64.9569 78.7693C65.1116 78.6561 65.2408 78.5092 65.3348 78.3388C66.3553 75.4927 67.913 72.8864 69.9167 70.6726C70.4085 70.1222 71.3146 69.1152 70.6675 68.2963Z" fill="#1D4ED8"/>
<path d="M29.3173 158.343C29.1976 157.51 29.0652 156.676 28.9322 155.857C28.6794 154.204 28.4129 152.537 28.1469 150.884C27.6148 147.592 27.1624 144.245 26.3776 141.009C26.2918 140.771 26.1286 140.572 25.9164 140.447C25.7043 140.322 25.457 140.278 25.2176 140.325C24.9781 140.371 24.7621 140.504 24.607 140.7C24.4519 140.896 24.3676 141.143 24.3693 141.397C24.6087 144.731 25.194 148.051 25.6995 151.343L26.4575 156.315C26.5905 157.149 26.7236 157.968 26.8433 158.802C26.8809 159.645 27.0946 160.47 27.4688 161.218C27.592 161.405 27.7644 161.55 27.965 161.635C28.1657 161.721 28.386 161.744 28.599 161.701C28.8119 161.658 29.0081 161.552 29.164 161.395C29.32 161.237 29.4287 161.036 29.4771 160.816C29.5962 159.989 29.5416 159.146 29.3173 158.343Z" fill="black"/>
<path d="M62.4046 27.176C58.6795 24.1546 52.4305 24.7363 52.4305 24.7363C52.4305 24.7363 52.7371 38.2631 53.5148 38.3944C54.2925 38.5258 67.1999 34.8445 67.1999 34.8445C67.1999 34.8445 66.1297 30.1891 62.4046 27.176Z" fill="#1D4ED8"/>
<path d="M63.0834 35.4227L62.0032 35.0014C61.7775 34.9123 61.5515 34.815 61.3257 34.7502L61.0518 34.6692C60.9177 34.6568 60.7827 34.6568 60.6487 34.6692C60.5321 34.6767 60.4207 34.7194 60.3286 34.7916C60.2366 34.8639 60.168 34.9624 60.1326 35.0743C60.0917 35.1828 60.0844 35.3013 60.1117 35.4141C60.1391 35.5268 60.1997 35.6287 60.2857 35.7062L60.4794 35.8601L57.0692 36.7998L54.7798 37.4317L53.6347 37.7396L53.3851 37.7962C53.3815 37.7369 53.3815 37.6774 53.3851 37.618C53.3125 36.0464 53.3041 34.4667 53.2477 32.8951L53.1753 30.5376C53.1753 30.2541 53.1753 29.9544 53.1753 29.6546C53.2744 29.7665 53.4098 29.8393 53.5575 29.86C53.7052 29.8808 53.8555 29.8482 53.9815 29.768C54.1172 29.677 54.2126 29.5366 54.2472 29.3764C54.2818 29.2161 54.2529 29.0486 54.1669 28.9093C54.0056 28.6825 53.8445 28.4638 53.6913 28.2369C53.5382 28.0101 53.3446 27.8075 53.1753 27.5807C53.1198 27.4955 53.0427 27.4266 52.9521 27.381C52.8614 27.3355 52.7603 27.3149 52.6592 27.3215C52.56 27.3262 52.464 27.3571 52.3805 27.4112C52.297 27.4653 52.229 27.5405 52.1837 27.6294C52.095 27.7995 52.0064 27.9615 51.9097 28.1235L51.8451 28.2207L51.6837 28.4314C51.5789 28.5691 51.4744 28.7148 51.3535 28.8525L51.2806 28.9417L51.1842 29.0875C51.1842 29.0308 51.1842 29.0308 51.1842 29.0875C51.1842 29.1442 51.0629 29.2738 50.9984 29.371C50.9622 29.4391 50.9476 29.5167 50.9563 29.5933C50.9649 29.67 50.9964 29.7422 51.0468 29.8004C51.0957 29.8616 51.1623 29.9061 51.2373 29.9279C51.3124 29.9496 51.3922 29.9476 51.4661 29.9219L51.7322 29.8004C51.7322 30.1974 51.7887 30.6106 51.7967 30.9508C51.7967 31.8581 51.8452 32.7655 51.8774 33.6728L51.9498 36.2166C51.9498 36.9457 51.821 38.015 52.2644 38.6469C52.7078 39.2788 53.659 39.1896 54.4007 38.979L56.8594 38.2904L60.8262 37.1968C60.8176 37.2896 60.8273 37.3833 60.8549 37.4723C60.8826 37.5613 60.9275 37.6438 60.9872 37.7153C61.0669 37.8101 61.1698 37.8827 61.2856 37.9259C61.4322 37.9747 61.5905 37.9747 61.7371 37.9259C61.8097 37.9259 61.8984 37.853 61.9709 37.8044C62.0417 37.7521 62.109 37.6953 62.1725 37.6343L62.3256 37.4884L62.6724 37.1643L63.3495 36.5244C63.4182 36.4392 63.4664 36.3391 63.4904 36.2321C63.5144 36.1251 63.5134 36.0139 63.4876 35.9073C63.4619 35.8007 63.4121 35.7015 63.342 35.6175C63.2719 35.5334 63.1833 35.4667 63.0834 35.4227Z" fill="black"/>
<path d="M66.6769 38.3981C66.6769 45.4504 60.9599 51.1674 53.9077 51.1674C46.8554 51.1674 41.1384 45.4504 41.1384 38.3981C41.1384 31.3459 46.8554 25.6289 53.9077 25.6289C60.9599 25.6289 66.6769 31.3459 66.6769 38.3981Z" stroke="black" stroke-width="4"/>
<path d="M43.9784 77.7992L44.0421 77.223C44.0559 77.1025 44.0737 76.9807 44.0758 76.8633L44.0794 76.7205C44.0681 76.6541 44.0506 76.589 44.0273 76.5258C44.0085 76.4705 43.9735 76.4222 43.9267 76.3871C43.8799 76.352 43.8234 76.3317 43.7648 76.329C43.7071 76.3233 43.649 76.3351 43.598 76.3629C43.5471 76.3907 43.5058 76.4332 43.4795 76.4847L43.4302 76.5982L42.535 75.0728L41.9336 74.0489L41.6367 73.5357L41.577 73.4225C41.6052 73.413 41.634 73.4053 41.6631 73.3994C42.4127 73.161 43.1746 72.9525 43.9263 72.7218L45.0555 72.3818C45.1925 72.3451 45.3372 72.3063 45.482 72.2675C45.4408 72.3299 45.4232 72.4047 45.4322 72.4787C45.4413 72.5527 45.4765 72.6211 45.5316 72.6715C45.5931 72.7253 45.6732 72.7532 45.7551 72.7492C45.837 72.7452 45.9141 72.7095 45.9703 72.65C46.059 72.5427 46.1437 72.4366 46.2335 72.3333C46.3232 72.23 46.396 72.1103 46.4836 71.9991C46.5176 71.9613 46.5409 71.9152 46.5512 71.8655C46.5614 71.8158 46.5583 71.7643 46.542 71.7163C46.5269 71.669 46.4995 71.6267 46.4626 71.5934C46.4257 71.56 46.3806 71.5369 46.3318 71.5265C46.2382 71.5057 46.1484 71.4839 46.0577 71.4582L46.0024 71.4396L45.8798 71.3889C45.7997 71.3561 45.7158 71.3244 45.6336 71.2839L45.5811 71.2602L45.4982 71.2325C45.5256 71.2252 45.5256 71.2252 45.4982 71.2325C45.4708 71.2399 45.3925 71.198 45.3372 71.1795C45.2997 71.1708 45.2603 71.1738 45.2244 71.1879C45.1885 71.202 45.1577 71.2265 45.1361 71.2584C45.1129 71.29 45.1 71.3279 45.0992 71.3669C45.0984 71.406 45.1098 71.4443 45.1317 71.4766L45.2248 71.5894C45.0331 71.6408 44.8409 71.7215 44.6776 71.7695C44.2394 71.8869 43.8074 72.0277 43.3734 72.1607L42.1542 72.5249C41.8021 72.6192 41.269 72.6954 41.0212 72.9913C40.7734 73.2872 40.9395 73.7351 41.1372 74.066L41.788 75.1644L42.8295 76.9387C42.7836 76.9465 42.7396 76.9633 42.7002 76.9882C42.6608 77.0131 42.6267 77.0455 42.5999 77.0835C42.5644 77.1343 42.5427 77.1933 42.5368 77.2549C42.5322 77.332 42.5527 77.4085 42.5953 77.4729C42.6046 77.508 42.6513 77.5414 42.6842 77.5701C42.7186 77.5976 42.7548 77.6227 42.7924 77.6455L42.8827 77.7006L43.0841 77.8261L43.4808 78.0703C43.5308 78.0925 43.5854 78.1028 43.6402 78.1005C43.695 78.0983 43.7485 78.0834 43.7967 78.0572C43.8448 78.0309 43.8863 77.9941 43.9178 77.9493C43.9493 77.9046 43.9701 77.8532 43.9784 77.7992Z" fill="black"/>
<path d="M48.477 73.8456C48.477 77.3717 45.6185 80.2302 42.0924 80.2302C38.5663 80.2302 35.7078 77.3717 35.7078 73.8456C35.7078 70.3194 38.5663 67.4609 42.0924 67.4609C45.6185 67.4609 48.477 70.3194 48.477 73.8456Z" stroke="black" stroke-width="2"/>
<path d="M100.908 68.3069C100.908 72.8527 97.2227 76.5377 92.6769 76.5377C88.1312 76.5377 84.4462 72.8527 84.4462 68.3069C84.4462 63.7612 88.1312 60.0762 92.6769 60.0762C97.2227 60.0762 100.908 63.7612 100.908 68.3069Z" fill="white" stroke="white" stroke-width="2"/>
<path d="M84.8889 64.9263L85.4565 65.7759C85.5746 65.9542 85.6888 66.1386 85.8191 66.2993L85.9762 66.4961C86.0668 66.5728 86.1642 66.6409 86.2674 66.6996C86.3554 66.753 86.4574 66.7785 86.5603 66.7727C86.6633 66.767 86.7626 66.7304 86.8446 66.6675C86.929 66.6098 86.994 66.5279 87.0312 66.4326C87.0684 66.3373 87.076 66.2331 87.053 66.1337L86.9908 65.9248L89.9286 66.9674L91.9015 67.6666L92.8841 68.0223L93.093 68.1074C93.0657 68.1521 93.0356 68.195 93.0031 68.2361C92.2621 69.408 91.4707 70.5534 90.7182 71.7172L89.5804 73.4568C89.4373 73.6616 89.286 73.8781 89.1347 74.0947C89.1195 73.9638 89.0584 73.8429 88.9623 73.7533C88.8661 73.6638 88.741 73.6115 88.6095 73.6058C88.4655 73.6031 88.3258 73.6563 88.2199 73.7546C88.114 73.8529 88.0503 73.9885 88.0421 74.1325C88.0441 74.3778 88.0501 74.6171 88.0462 74.8583C88.0424 75.0995 88.08 75.3435 88.0878 75.5929C88.0848 75.6824 88.1057 75.7711 88.1482 75.8498C88.1907 75.9284 88.2533 75.9943 88.3297 76.0406C88.4038 76.0873 88.4887 76.1134 88.5763 76.1165C88.6639 76.1196 88.7511 76.0996 88.8286 76.0583C88.9786 75.9802 89.1243 75.9078 89.276 75.8396L89.3717 75.802L89.5946 75.7313C89.7399 75.6847 89.889 75.6322 90.0458 75.5938L90.1435 75.5661L90.2867 75.5095C90.2581 75.5504 90.2581 75.5504 90.2867 75.5095C90.3153 75.4685 90.4684 75.4361 90.5641 75.3984C90.6246 75.3675 90.6742 75.3189 90.7067 75.2591C90.7392 75.1994 90.7529 75.1313 90.7458 75.0638C90.7414 74.9949 90.7158 74.9292 90.6726 74.8756C90.6293 74.822 90.5706 74.7831 90.5043 74.7644L90.2508 74.7179C90.4511 74.4311 90.6189 74.1041 90.7848 73.8542C91.2429 73.1988 91.6659 72.5189 92.1006 71.8472L93.3324 69.973C93.7004 69.4463 94.3334 68.7389 94.332 68.0586C94.3307 67.3783 93.5985 66.9625 92.9564 66.7403L90.8326 65.9965L87.415 64.7841C87.4681 64.7214 87.5084 64.6489 87.5333 64.5706C87.5583 64.4923 87.5675 64.41 87.5604 64.3283C87.5507 64.2195 87.5131 64.1152 87.4512 64.0255C87.37 63.9163 87.2556 63.8363 87.1251 63.7976C87.0726 63.761 86.9717 63.7689 86.8948 63.7673C86.8173 63.7694 86.74 63.7764 86.6633 63.7885L86.4791 63.8166L86.065 63.8756L85.2528 63.9961C85.1601 64.0229 85.0748 64.0709 85.0035 64.1361C84.9321 64.2013 84.8767 64.2821 84.8415 64.3721C84.8063 64.4621 84.7922 64.5589 84.8004 64.655C84.8086 64.7511 84.8389 64.844 84.8889 64.9263Z" fill="#1D4ED8"/>
</svg>
