<svg width="128" height="128" viewBox="0 0 128 128" fill="none" xmlns="http://www.w3.org/2000/svg">
<g clip-path="url(#clip0_833_46748)">
<path d="M0 64C0 28.6538 28.6538 0 64 0C99.3462 0 128 28.6538 128 64C128 99.3462 99.3462 128 64 128C28.6538 128 0 99.3462 0 64Z" fill="#EFF6FF"/>
<path d="M154.357 200.358C153.731 201.038 153.038 201.654 152.288 202.195C148.033 205.416 139.259 209.631 128.596 208.585C128.309 208.556 128.015 208.524 127.723 208.483C125.422 208.201 123.155 207.687 120.956 206.95C104.528 201.48 81.2839 96.04 81.2839 96.04C81.2839 96.04 95.1576 97.241 102.004 107.561C107.282 115.479 122.774 146.984 125.458 152.457C125.716 152.986 125.86 153.268 125.86 153.268L135.841 141.26C135.841 141.26 149.673 150.135 154.415 164.913C161.126 185.718 157.573 196.738 154.357 200.358Z" fill="#1D4ED8"/>
<path d="M51.8053 20.9476C52.0831 22.9637 51.8674 25.0171 51.1768 26.9314C50.4862 28.8458 49.3412 30.5639 47.8403 31.9382C47.5547 32.2075 47.2548 32.4612 46.942 32.6984C46.9045 32.7316 46.863 32.7601 46.8184 32.783C44.5906 34.4358 41.8782 35.3042 39.1047 35.2523C36.3312 35.2005 33.653 34.2314 31.4885 32.4965C31.4885 32.4965 31.4553 32.5011 31.4444 32.4632C31.1151 32.1986 30.8056 31.9144 30.489 31.6199C28.8344 29.9836 27.6657 27.9206 27.1129 25.6601C26.5602 23.3997 26.6449 21.0302 27.3578 18.815C28.0706 16.5998 29.3837 14.6256 31.151 13.1117C32.9183 11.5978 35.0707 10.6036 37.3691 10.2394C37.453 10.2223 37.5381 10.2106 37.6235 10.2044C37.9537 10.1569 38.286 10.1263 38.6193 10.1126C41.7408 9.91622 44.8222 10.9002 47.2522 12.8693C47.5205 13.0834 47.7775 13.3113 48.0221 13.5522C50.097 15.5083 51.4332 18.1205 51.8053 20.9476Z" fill="#1E293B"/>
<path d="M59.1868 54.5479C59.1738 56.2855 58.9618 58.016 58.555 59.7054C58.1557 61.4443 57.4256 63.0901 56.4047 64.5533C52.96 69.2073 47.9664 69.5616 41.993 70.6985C30.8277 72.7972 19.4695 71.3223 17.348 60.1545C15.8038 51.9159 17.9795 41.8023 24.8256 36.0721C25.1689 35.7826 25.5255 35.5082 25.8939 35.2378C27.515 34.0651 29.3136 33.1597 31.2212 32.556C31.2992 32.5159 31.3825 32.4874 31.4687 32.4713C32.2274 32.23 33.0006 32.037 33.7837 31.8937C38.3902 31.018 42.9777 31.1929 46.9662 32.7065C47.1692 32.7753 47.3683 32.8551 47.5625 32.9456C52.9496 35.2472 57.1263 40.1773 58.6918 48.6947C59.0474 50.6249 59.2132 52.5854 59.1868 54.5479Z" fill="#1E293B"/>
<path d="M49.0798 76.7155L49.4694 117.531L28.0652 117.73L27.7498 84.5839L33.1381 82.5922L49.0798 76.7155Z" fill="#C26844"/>
<path d="M48.3608 84.7134C46.9535 88.3527 44.438 91.4578 41.1699 93.5897C37.756 95.8451 31.839 95.3854 27.8454 94.6951L27.7486 84.5673L33.1424 82.5749C40.2481 83.4852 48.3608 84.7134 48.3608 84.7134Z" fill="black"/>
<path d="M33.8275 37.9892C29.8153 38.8846 26.6102 41.7986 23.8005 44.7203C20.7496 47.8948 19.2924 51.6783 18.8191 56.1436C18.5309 59.666 18.6402 63.2096 19.1449 66.7075C19.7111 71.3171 21.0016 74.6384 22.8035 78.8921C24.6054 83.1459 27.8583 86.4396 31.7055 88.8515C39.2025 93.5504 47.8087 89.3528 52.0786 82.3824C57.475 73.5669 58.3748 64.7048 57.1124 54.3767C56.706 51.0522 55.9965 47.5722 54.0159 44.8867C51.4608 41.4238 47.2266 39.8032 43.145 38.7193C40.1276 37.9173 36.9631 37.3158 33.9152 37.9715L33.8275 37.9892Z" fill="#C26844"/>
<path d="M58.9695 52.8929C59.2668 55.0549 59.7684 57.679 58.5803 59.6509C58.4469 59.9151 58.2437 60.1379 57.9929 60.295C57.6658 60.4381 57.2982 60.459 56.957 60.3539C56.6158 60.2488 56.3236 60.0247 56.1337 59.7224C55.9073 59.314 55.7668 58.8636 55.7208 58.3989C55.192 55.373 54.3673 51.5877 52.7253 48.9063C49.9011 44.2241 44.1341 42.724 38.8725 42.3996C35.0077 42.2222 31.1853 43.2662 27.9473 45.3836C27.6534 45.5818 27.3713 45.784 27.097 46.002C27.097 46.002 27.097 46.002 27.0693 46.0058C23.9478 48.5027 22.836 52.5035 21.3523 56.0541C20.7383 57.5301 19.9888 60.1516 18.4383 60.962C16.7183 61.852 17.3534 51.8433 17.8663 49.6319C18.3791 47.4204 22.6099 42.5005 22.6099 42.5005L25.2166 40.3167L26.111 39.5683L28.537 37.5446L36.5887 35.2149C36.5887 35.2149 42.7879 36.4977 46.2924 37.4412C49.1229 38.0918 51.7531 39.4199 53.9571 41.3114C56.4339 43.3032 55.3103 43.6549 57.2045 46.572C58.4352 48.3522 58.7105 50.8045 58.9695 52.8929Z" fill="#1E293B"/>
<path d="M32.3015 63.5631C32.4541 65.1647 31.814 66.5317 30.8742 66.6215C29.9344 66.7113 29.0283 65.4894 28.8922 63.8855C28.7562 62.2816 29.3799 60.9169 30.3252 60.8264C31.2705 60.7358 32.1378 61.9631 32.3015 63.5631Z" fill="black"/>
<path d="M47.0763 62.7432C47.0607 64.3511 46.2842 65.6691 45.3339 65.642C44.3837 65.615 43.6367 64.3205 43.6522 62.7126C43.6677 61.1048 44.4388 59.7875 45.389 59.8146C46.3392 59.8417 47.0918 61.1354 47.0763 62.7432Z" fill="black"/>
<path d="M38.6344 64.4163C38.3407 63.8369 37.3758 64.195 37.6766 64.7846C38.1751 65.7471 38.6429 66.7307 39.0457 67.7345C39.292 68.3372 39.6779 69.0954 39.5371 69.7514C39.309 70.3746 38.8895 70.9096 38.3387 71.2797C37.8344 71.7096 38.434 72.5455 38.9383 72.1156C39.7954 71.3836 40.6458 70.5624 40.5851 69.3426C40.5078 67.6743 39.3799 65.8631 38.6344 64.4163Z" fill="black"/>
<path d="M29.2653 54.1887C28.139 54.5527 27.1243 55.1985 26.3175 56.0646C26.1179 56.2865 25.9783 56.5559 25.9124 56.847C25.8794 56.9963 25.8845 57.1515 25.9274 57.2982C25.9702 57.4449 26.0493 57.5786 26.1574 57.6866C26.3405 57.8129 26.5583 57.8794 26.7808 57.877C28.7275 58.0564 30.6878 58.0286 32.6287 57.794C32.9789 57.779 33.3184 57.6679 33.6099 57.4731C33.8107 57.2879 33.9597 57.0536 34.0425 56.7933C34.1252 56.533 34.1388 56.2557 34.0819 55.9885C33.6312 53.5716 31.3135 53.4733 29.2653 54.1887Z" fill="#1E293B"/>
<path d="M42.6631 55.9356C42.6064 56.2036 42.6216 56.4817 42.7068 56.742C42.7921 57.0023 42.9444 57.2356 43.1486 57.4182C43.4405 57.6096 43.7787 57.7188 44.1274 57.7343C46.0717 57.9461 48.0327 57.954 49.9786 57.7579C50.2033 57.7607 50.423 57.691 50.6049 57.5591C50.7117 57.4507 50.7891 57.3169 50.83 57.1704C50.871 57.0238 50.8741 56.8693 50.839 56.7212C50.7679 56.4305 50.6265 56.1616 50.4271 55.9384C49.6127 55.0805 48.5925 54.445 47.4634 54.0924C45.4069 53.3948 43.0854 53.5169 42.6631 55.9356Z" fill="#1E293B"/>
<path d="M21.9834 61.5114C21.9834 61.5114 19.7277 57.3989 16.1338 59.0424C11.0873 61.3476 14.5748 72.0008 20.2164 73.1631C25.8581 74.3255 21.9834 61.5114 21.9834 61.5114Z" fill="#C26844"/>
<path d="M18.9024 63.6763C18.4299 64.649 18.2265 65.7305 18.3133 66.8084C18.4001 67.8863 18.7739 68.9213 19.3959 69.8059C19.7751 70.3509 20.6328 69.7879 20.2537 69.2428C19.7361 68.5125 19.4231 67.6571 19.347 66.7652C19.2709 65.8733 19.4346 64.9772 19.821 64.1698C20.1029 63.5563 19.1858 63.074 18.9024 63.6763Z" fill="black"/>
<path d="M53.948 61.2291C53.948 61.2291 56.2011 57.1277 59.8084 58.7782C64.8441 61.1056 61.3152 71.7433 55.6726 72.8685C50.03 73.9937 53.948 61.2291 53.948 61.2291Z" fill="#C26844"/>
<path d="M57.0142 63.416C57.4798 64.3871 57.6777 65.4649 57.5875 66.538C57.4974 67.6111 57.1224 68.6407 56.5014 69.5206C56.1252 70.0624 55.2646 69.499 55.6456 68.9508C56.1651 68.2223 56.479 67.3675 56.5547 66.4759C56.6303 65.5843 56.4649 64.6888 56.0756 63.8831C55.8182 63.2819 56.7348 62.8178 57.0142 63.416Z" fill="black"/>
<path d="M43.8475 74.8434C42.0136 75.1224 40.1643 75.2882 38.3101 75.34C35.8717 75.3485 32.7666 75.0149 32.7666 75.0149C32.7666 75.0149 34.1933 79.3259 38.3279 79.3208C43.0879 79.2747 43.8475 74.8434 43.8475 74.8434Z" fill="white"/>
<path d="M48.0203 13.5694C47.8932 13.7108 47.7773 13.8506 47.6517 14.0031C43.9988 18.4943 40.4166 24.9758 41.3705 30.9293C41.3869 30.983 41.3946 31.039 41.3933 31.0952C43.5676 31.2182 45.7302 31.4989 47.8639 31.935C47.5782 32.2043 47.2783 32.458 46.9656 32.6952C47.1685 32.764 47.3676 32.8439 47.5618 32.9344L46.8254 32.7821C41.7646 31.8576 36.5873 31.7609 31.4955 32.4956C31.3971 32.5035 31.2992 32.517 31.2024 32.5359C31.2804 32.4959 31.3637 32.4674 31.4499 32.4512C31.1205 32.1866 30.811 31.9024 30.4945 31.6079C32.3519 31.306 34.2257 31.1142 36.1058 31.0335C32.7145 25.6686 33.9156 17.892 36.3061 12.4138C36.6247 11.669 36.9816 10.941 37.3752 10.233C37.4592 10.2158 37.5441 10.2041 37.6296 10.198C37.9598 10.1505 38.2922 10.1198 38.6254 10.1061C38.236 10.7569 37.8852 11.4418 37.5627 12.1284C35.0289 17.5474 33.5277 25.6413 37.218 30.8862C37.2312 30.9253 37.2368 30.9666 37.2347 31.0078C38.2744 30.9888 39.302 31.0052 40.3335 31.0493C39.3926 25.0264 42.7445 18.633 46.3375 13.9923C46.6299 13.6197 46.928 13.2463 47.2345 12.8943C47.508 13.1054 47.7703 13.3308 48.0203 13.5694Z" fill="black"/>
<path d="M85.9737 124.11C85.04 137.113 75.8195 156.44 68.7467 157.166C61.6738 157.893 25.424 155.205 25.424 155.205L7.84917 138.816L16.8007 107.564C16.8007 107.564 19.6743 106.06 24.3734 104.168L25.0618 103.896C33.6308 100.491 42.5615 98.0776 51.6794 96.7037C51.9327 96.6689 52.174 96.6357 52.4075 96.6036C55.4742 96.1819 57.086 96.1457 57.086 96.1457C57.086 96.1457 86.905 111.12 85.9737 124.11Z" fill="#C26844"/>
<path d="M12.9918 131.489C12.9918 131.489 52.6815 143.478 54.7128 143.384C56.7441 143.29 75.1526 112.551 75.1526 112.551C75.1526 112.551 87.4952 133.493 92.1733 139.16C96.8514 144.827 85.1199 185.038 85.1199 185.038C85.1199 185.038 78.2498 189.321 63.3315 191.372C48.4132 193.423 32.4927 190.972 32.4927 190.972L12.9918 131.489Z" fill="white"/>
<path d="M36.1051 235.072C36.1117 235.325 36.1127 235.567 36.1193 235.82C36.5746 267.251 35.5253 295.832 35.5253 295.832C35.5253 295.832 17.5256 295.59 6.1406 291.962C-5.24442 288.335 -14.2049 284.365 -14.2049 284.365C-14.2049 284.365 -5.87996 219.557 -2.40117 192.722C-2.34177 192.274 -2.29202 191.844 -2.23727 191.421C-1.47729 185.571 -0.975646 181.801 -0.906548 181.335C-0.511987 178.81 -2.72916 119.494 -1.77476 117.932C-0.820362 116.369 16.798 107.564 16.798 107.564C16.798 107.564 21.8633 132.672 30.4388 166.389C34.2836 181.537 35.7043 209.198 36.1051 235.072Z" fill="#1D4ED8"/>
<path d="M59.9902 225.046C59.5255 225.771 59.0379 226.447 58.5335 227.089C47.4239 241.035 25.8593 235.509 16.938 224.846C7.61078 213.694 -8.71253 178.639 -13.8144 164.495C-18.9163 150.351 -19.5597 134.852 -11.4743 124.834C-4.92762 116.732 16.7938 107.565 16.7938 107.565L33.6861 175.934L33.9146 176.862L34.0055 176.761L46.6665 162.867C46.6665 162.867 70.5572 208.562 59.9902 225.046Z" fill="#1D4ED8"/>
<path d="M57.0744 96.1396C57.0744 96.1396 68.6081 116.975 80.3381 144.311C92.0682 171.648 137.33 236.68 137.33 236.68C137.33 236.68 113.599 112.536 111.111 106.585C92.3999 90.5846 57.0744 96.1396 57.0744 96.1396Z" fill="#1D4ED8"/>
<path d="M52.391 96.5857C53.338 108.487 53.9452 125.805 49.6673 127.534C49.4965 127.609 49.3158 127.658 49.1309 127.681C43.7928 128.415 30.889 112.686 24.3579 104.158L25.0462 103.886C31.7854 112.608 45.0725 128.602 49.3969 126.858C53.0329 125.386 52.6506 109.323 51.6661 96.7096C51.9161 96.651 52.1456 96.6194 52.391 96.5857Z" fill="white"/>
<path d="M45.399 119.432C38.383 120.397 31.0959 112.529 30.7685 112.171L31.3156 111.692C31.3964 111.782 39.5452 120.58 46.4773 118.478C53.4094 116.375 52.0844 102.869 52.0699 102.734L52.8018 102.662C52.8615 103.242 54.1415 116.92 46.6911 119.182C46.2679 119.3 45.8357 119.384 45.399 119.432Z" fill="white"/>
<path d="M23.1223 95.6605C20.6506 96.0004 18.5074 90.0019 17.6688 83.903C16.8301 77.804 17.883 71.3661 19.7464 71.1099C19.8813 71.0913 20.0181 71.1271 20.1266 71.2094C20.2352 71.2917 20.3065 71.4137 20.325 71.5486C20.3436 71.6835 20.3079 71.8203 20.2256 71.9289C20.1433 72.0374 20.0212 72.1087 19.8863 72.1273C19.245 72.3394 17.7299 76.931 18.6696 83.7653C19.6284 90.7379 21.8212 94.8027 22.9823 94.6431C24.1435 94.4834 25.1578 89.9776 24.199 83.005C23.3733 77.0001 21.8545 72.5102 21.253 71.9056C21.1493 71.8855 21.0546 71.8331 20.9823 71.7561C20.91 71.6791 20.8637 71.5812 20.8503 71.4764C20.8317 71.3415 20.8676 71.2047 20.9499 71.0962C21.0321 70.9877 21.1542 70.9163 21.2891 70.8978C22.948 70.6697 24.6873 79.0166 25.2165 82.8651C26.0441 88.9656 25.5994 95.3199 23.1223 95.6605Z" fill="#2563EB"/>
<path d="M54.9418 83.4477C54.4096 79.5771 53.8069 71.0963 55.4933 70.8644C55.6138 70.8478 55.7361 70.8744 55.8387 70.9395C55.9414 71.0046 56.0177 71.104 56.0539 71.22C56.0902 71.336 56.0841 71.4612 56.0367 71.5731C55.9894 71.6851 55.9038 71.7766 55.7954 71.8314C55.3787 72.5704 55.1343 77.3084 55.9593 83.3078C56.9188 90.2859 59.1116 94.3507 60.2728 94.1911C61.434 94.0314 62.4483 89.5256 61.4887 82.5475C60.552 75.7352 57.8625 71.7049 57.176 71.6698C57.0411 71.6883 56.9042 71.6525 56.7957 71.5702C56.6872 71.4879 56.6158 71.3659 56.5972 71.231C56.5787 71.0961 56.6145 70.9593 56.6968 70.8508C56.7791 70.7423 56.9012 70.6708 57.0361 70.6523C58.905 70.3953 61.6594 76.3323 62.495 82.4091C63.3306 88.486 62.8899 94.8678 60.4127 95.2085C57.9355 95.5491 55.7812 89.5522 54.9418 83.4477Z" fill="#2563EB"/>
<path d="M21.8284 73.0318C22.0084 72.9917 22.1748 72.9051 22.3109 72.7806C22.447 72.6561 22.5481 72.4981 22.6041 72.3223C22.7041 71.8467 22.6808 71.3534 22.5366 70.8893C22.5366 70.8893 21.2868 70.1992 21.077 70.3126C20.8312 70.5173 20.6136 70.7537 20.43 71.0156L20.807 72.5695L21.8284 73.0318Z" fill="#C26844"/>
<path d="M23.8848 81.0535C23.8848 81.0535 24.829 82.5518 25.2312 83.0599C25.6335 83.568 26.9015 82.9147 26.9015 82.9147L28.4327 77.2111L27.2505 71.8918L23.8374 70.6709L20.9524 71.7325L23.8848 81.0535Z" fill="#C26844"/>
<path d="M54.4425 77.894L55.4157 75.5066L55.8946 73.1309L56.2331 71.8222L56.2724 70.9211C56.2724 70.9211 55.5736 69.9354 55.2853 70.1328C54.9969 70.3302 53.5818 71.6347 53.5818 71.6347L52.9517 73.6482L54.4425 77.894Z" fill="#C26844"/>
<path d="M27.9902 45.3609C27.6963 45.5591 27.4143 45.7613 27.14 45.9793C26.3258 44.15 25.687 42.2477 25.232 40.2978C24.921 38.9095 24.7674 37.4905 24.7742 36.0677C25.1175 35.7782 25.4742 35.5038 25.8427 35.2334C25.7509 36.6783 25.8462 38.129 26.1263 39.5494C26.5403 41.5471 27.1651 43.4952 27.9902 45.3609Z" fill="black"/>
<path d="M104.123 88.3692C104.123 88.3692 98.2649 79.2599 94.8916 74.8037C89.3861 67.532 86.6552 63.6499 87.7123 62.3961C89.2133 60.6131 91.218 60.3029 95.2493 64.2784C95.2493 64.2784 89.8753 54.5124 89.7597 51.5112C89.644 48.5099 93.0507 47.6396 94.1477 48.4397C94.1477 48.4397 93.8108 45.9642 95.5918 45.0337C98.0917 43.7276 99.8066 45.6198 100.401 46.5876C100.401 46.5876 103.93 43.602 106.36 46.9521C108.789 50.3022 123.191 72.2409 123.191 72.2409L118.892 88.8615L104.123 88.3692Z" fill="#C26844"/>
<path d="M98.9961 66.801C102.915 65.9951 105.621 68.8864 107.228 71.9154C107.293 72.0398 107.407 72.1321 107.545 72.1719C107.683 72.2117 107.834 72.1958 107.965 72.1277C108.095 72.0597 108.194 71.945 108.24 71.8089C108.286 71.6728 108.276 71.5264 108.211 71.402C106.395 67.9266 103.189 64.855 98.7836 65.7597C98.6406 65.7925 98.5147 65.8787 98.4335 65.9995C98.3524 66.1203 98.3226 66.2657 98.3508 66.4038C98.379 66.5419 98.4628 66.6613 98.5838 66.7358C98.7048 66.8103 98.8531 66.8337 98.9961 66.801Z" fill="black"/>
<path d="M94.012 48.5082L101.171 62.2098C101.236 62.3355 101.253 62.4803 101.217 62.6122C101.181 62.7441 101.096 62.8524 100.979 62.9133C100.862 62.9742 100.725 62.9827 100.596 62.9369C100.467 62.891 100.358 62.7946 100.292 62.6689L92.7346 48.2042C93.1721 48.1496 93.6237 48.2571 94.012 48.5082Z" fill="black"/>
<path d="M101.122 46.0592L108.225 59.654C108.29 59.7774 108.305 59.9199 108.268 60.0501C108.231 60.1804 108.145 60.2878 108.029 60.3487C107.912 60.4095 107.775 60.419 107.647 60.3748C107.519 60.3306 107.411 60.2365 107.346 60.1131L100.299 46.6253C100.555 46.4106 100.831 46.2211 101.122 46.0592Z" fill="black"/>
<path d="M113.475 122.181C113.967 114.121 100.923 91.8154 100.431 88.6154C99.9383 85.4155 108.979 84.1349 113.723 80.2463C117.087 77.4888 121.245 72.8098 122.95 70.8392C123.359 70.3669 124.083 70.3674 124.459 70.866C128.167 75.7803 144.801 98.7946 143.548 114.552C142.448 128.38 144.245 136.716 145.088 139.712C145.267 140.348 144.823 141.025 144.164 141.073L111.054 143.504C110.55 143.541 110.099 143.19 110.012 142.692L109.302 138.627C109.256 138.365 109.32 138.097 109.467 137.875C111.203 135.251 113.004 129.891 113.475 122.181Z" fill="#1D4ED8"/>
</g>
<defs>
<clipPath id="clip0_833_46748">
<path d="M0 64C0 28.6538 28.6538 0 64 0C99.3462 0 128 28.6538 128 64C128 99.3462 99.3462 128 64 128C28.6538 128 0 99.3462 0 64Z" fill="white"/>
</clipPath>
</defs>
</svg>
