<svg viewBox="0 0 260 260" fill="none" xmlns="http://www.w3.org/2000/svg">
<rect width="260" height="260" fill="white"/>
<path d="M213.606 109.179C213.606 109.179 194.453 107.088 195.704 86.4884C196.955 65.8888 220.271 57.348 231.724 59.6347C243.177 61.9214 254.415 73.3156 253.789 83.0877C253.164 92.8598 248.161 96.7687 248.161 96.7687C248.161 96.7687 246.089 90.9054 242.121 89.6741C238.154 88.4428 237.255 87.7196 234.792 88.0909C232.329 88.4622 228.597 85.3157 226.31 88.6382C224.023 91.9607 223.184 99.6805 220.057 102.163C217.674 104.276 215.513 106.627 213.606 109.179Z" fill="#3B82F6"/>
<path d="M227.405 102.378C226.975 103.258 226.507 104.118 226.018 104.958C226.431 104.823 226.791 104.561 227.047 104.211C227.303 103.86 227.442 103.438 227.445 103.004C227.425 102.769 227.425 102.574 227.405 102.378ZM235.106 89.7721C235.068 89.2462 234.962 88.7275 234.793 88.2283C234.62 87.6781 234.378 87.1524 234.07 86.6646C233.128 85.2109 231.764 84.0791 230.161 83.4202C228.703 82.8443 227.169 82.4823 225.608 82.3454C225.49 80.0001 225.373 77.6742 225.275 75.3485C225.275 74.3517 225.275 73.394 225.275 72.3581C226.969 72.2738 228.666 72.4253 230.318 72.8079C230.676 72.8654 231.043 72.7949 231.354 72.6087C231.666 72.4224 231.902 72.1323 232.021 71.7894C232.14 71.4465 232.134 71.0726 232.005 70.7334C231.876 70.3943 231.631 70.1114 231.314 69.9347C229.402 68.9914 227.289 68.5286 225.158 68.5863C225.158 67.7068 225.001 66.8469 224.884 65.987C224.849 65.5634 224.665 65.1659 224.364 64.8654C224.064 64.5649 223.666 64.3806 223.243 64.3451C222.821 64.317 222.403 64.4419 222.065 64.6967C221.728 64.9516 221.494 65.3194 221.406 65.7329C221.239 66.879 221.14 68.034 221.112 69.192C219.873 69.5414 218.68 70.0333 217.555 70.6578C215.44 71.7405 213.758 73.5125 212.786 75.6808C212.359 76.7616 212.225 77.9362 212.396 79.0858C212.568 80.2353 213.039 81.3192 213.764 82.2281C215.254 84.0344 217.327 85.2647 219.627 85.707C220.33 85.8573 221.041 85.9681 221.757 86.0391C221.894 88.1108 222.05 90.2021 222.246 92.2934C222.246 92.8797 222.344 93.4856 222.383 94.072C222.422 94.6583 222.383 94.7365 222.48 95.0687L221.679 94.8535C219.672 94.1638 217.713 93.3411 215.815 92.3909C215.346 92.1551 214.803 92.1153 214.305 92.2802C213.806 92.4452 213.394 92.8015 213.158 93.2706C212.922 93.7397 212.882 94.2832 213.047 94.7817C213.212 95.2802 213.568 95.6927 214.038 95.9286C216.078 97.1029 218.25 98.0344 220.507 98.7039C221.275 98.9354 222.058 99.1115 222.852 99.2314C222.852 99.8568 222.989 100.482 223.086 101.186C223.223 100.932 223.341 100.658 223.478 100.385C224.363 98.2117 225.018 95.9516 225.432 93.6418C225.631 92.813 225.947 92.0169 226.37 91.277C226.253 89.8894 226.135 88.4821 226.037 87.0554C226.037 86.8795 226.037 86.6842 226.037 86.4888L226.917 86.6451H227.21C228.047 86.7511 228.844 87.0664 229.527 87.5617C230.21 88.057 230.758 88.7162 231.119 89.4789C231.271 90.017 231.307 90.5816 231.223 91.1346C231.138 91.6876 230.936 92.216 230.63 92.6842C230.63 93.036 230.63 93.3488 230.63 93.6029C230.341 95.3648 229.856 97.0886 229.184 98.7428C230.962 98.0936 232.506 96.9303 233.621 95.4008C234.033 93.8649 234.106 92.2577 233.836 90.6906C234.214 90.3271 234.642 90.018 235.106 89.7721ZM217.399 80.2932C217.1 80.0611 216.852 79.7712 216.669 79.441C216.485 79.1108 216.37 78.7472 216.33 78.3715C216.29 77.9957 216.325 77.6158 216.435 77.2542C216.545 76.8927 216.727 76.5568 216.969 76.267C218.054 74.8964 219.503 73.86 221.151 73.2769V75.2313C221.151 77.4789 221.308 79.746 221.425 81.9935C219.941 81.8482 218.537 81.2552 217.399 80.2932Z" fill="white"/>
<path d="M251.893 70.6774C249.513 66.8779 246.268 63.6951 242.423 61.3889C238.578 59.0826 234.242 57.7182 229.77 57.407C210.91 55.9607 190.564 72.6319 193.789 92.5866C194.488 97.8186 197.108 102.604 201.138 106.013C204.851 108.965 210.01 110.841 214.466 108.437C214.676 108.291 214.833 108.081 214.914 107.839C214.995 107.597 214.997 107.335 214.918 107.092C214.839 106.849 214.685 106.637 214.477 106.489C214.269 106.341 214.019 106.263 213.763 106.267C212.001 106.501 210.21 106.384 208.493 105.925C206.776 105.465 205.166 104.672 203.756 103.59C200.721 101.097 198.614 97.6548 197.776 93.8179C196.944 89.7758 197.128 85.5905 198.312 81.6371C199.496 77.6837 201.642 74.0857 204.558 71.166C210.34 65.0087 218.319 61.3844 226.76 61.0813C230.599 60.9609 234.415 61.7186 237.918 63.297C241.42 64.8753 244.515 67.2325 246.968 70.1888C249.669 73.5757 251.266 77.7098 251.542 82.0326C251.491 86.9315 250.069 91.7181 247.438 95.8503C246.402 97.5897 249.842 98.2347 251.093 96.6517C256.839 89.4203 256.467 78.3387 251.893 70.6774Z" fill="black"/>
<path d="M170.473 53.968C170.246 53.6263 169.894 53.3863 169.493 53.2988C169.092 53.2113 168.672 53.2832 168.323 53.499L167.092 54.5153C166.838 53.5473 166.45 52.6196 165.938 51.7595C165.771 51.4974 165.529 51.2918 165.244 51.1698C164.958 51.0477 164.641 51.0149 164.336 51.0755C164.031 51.1307 163.749 51.2754 163.527 51.4911C163.304 51.7069 163.15 51.984 163.085 52.2873C162.899 53.2294 162.899 54.1985 163.085 55.1406C163.144 55.4958 163.243 55.8433 163.379 56.1765C163.586 56.6602 163.877 57.1033 164.239 57.4858C164.221 57.6615 164.239 57.8388 164.293 58.0069C164.347 58.175 164.434 58.3302 164.551 58.4631C164.749 58.7149 165.036 58.8825 165.352 58.9321C165.571 59.0103 165.805 59.037 166.036 59.0099C166.266 58.9827 166.487 58.9026 166.682 58.7758L169.945 56.0983C170.282 55.8677 170.519 55.5188 170.61 55.1211C170.712 54.7333 170.663 54.3212 170.473 53.968Z" fill="black"/>
<path d="M64.1336 55.3748C54.772 48.1825 40.6806 47.8699 40.6806 47.8699C40.6806 47.8699 38.7262 83.1666 40.6806 83.4793C42.6351 83.792 72.8311 75.9744 72.8311 75.9744C72.8311 75.9744 73.4953 62.5475 64.1336 55.3748Z" fill="#3B82F6"/>
<path d="M76.4664 98.5271C72.6103 106.505 66.2186 112.98 58.2907 116.938C56.5305 117.814 54.7078 118.559 52.8378 119.166C51.4192 118.8 49.9756 118.539 48.5187 118.384C48.3384 118.042 48.2629 117.655 48.303 117.27L47.0529 117.466C44.8053 117.759 44.121 114.065 46.3295 113.557C47.5257 113.304 48.7068 112.984 49.8671 112.599C54.4619 111.136 58.6685 108.658 62.1767 105.35C65.6848 102.041 68.404 97.9862 70.1336 93.4848C71.7105 88.9427 72.1792 84.0893 71.4993 79.3296C70.8193 74.5699 69.0104 70.0418 66.2248 66.1229C63.4613 62.1296 59.7331 58.8996 55.3868 56.7333C51.0404 54.5669 46.2175 53.5346 41.3652 53.732C36.5319 53.8107 31.7959 55.1053 27.5946 57.4963C23.3933 59.8872 19.8615 63.2976 17.3253 67.4129C14.9128 71.5937 13.4841 76.2686 13.1455 81.0836C12.8069 85.8986 13.5673 90.7275 15.3709 95.2047C15.9182 96.6119 14.4336 97.726 13.2218 97.511L12.8697 97.8236C12.6343 98.0161 12.3864 98.1924 12.1272 98.3513L11.756 98.5271C11.7181 98.6034 11.6557 98.6653 11.5795 98.7032C11.2817 98.971 10.8959 99.119 10.4954 99.119C10.0949 99.119 9.70815 98.971 9.41034 98.7032L8.96086 98.2146C8.10232 97.2544 7.36676 96.1908 6.77169 95.0484C1.22115 84.006 4.5051 70.579 12.2055 61.4519C16.286 56.6888 21.34 52.8563 27.0277 50.213C32.7155 47.5697 38.904 46.1772 45.1757 46.1293C50.9695 46.2552 56.6455 47.7933 61.71 50.61C66.7745 53.4266 71.0748 57.4368 74.2381 62.2924C77.6292 67.6565 79.6117 73.7897 80.0011 80.1238C80.3906 86.458 79.1747 92.788 76.4664 98.5271Z" fill="black"/>
<path d="M65.6776 76.2481L63.059 75.2318C62.5117 75.0168 61.9638 74.7822 61.4166 74.6258L60.7524 74.4304C60.4274 74.4005 60.1002 74.4005 59.7752 74.4304C59.4926 74.4485 59.2225 74.5514 58.9993 74.7258C58.7762 74.9001 58.6101 75.1378 58.5241 75.4076C58.4249 75.6695 58.4073 75.9553 58.4735 76.2274C58.5398 76.4995 58.6868 76.7452 58.8953 76.9321L59.3648 77.3033L51.0977 79.5705L45.5475 81.095L42.7714 81.8377L42.1664 81.9744C42.1576 81.8312 42.1576 81.6877 42.1664 81.5445C41.9905 77.753 41.9701 73.9419 41.8333 70.1503L41.6577 64.4629C41.6577 63.7789 41.6577 63.0558 41.6577 62.3327C41.8982 62.6026 42.2264 62.7781 42.5844 62.8282C42.9424 62.8783 43.3068 62.7996 43.6122 62.6061C43.9412 62.3866 44.1724 62.0479 44.2563 61.6613C44.3402 61.2747 44.2701 60.8707 44.0616 60.5345C43.6708 59.9873 43.2802 59.4597 42.9088 58.9124C42.5375 58.3652 42.0682 57.8765 41.6577 57.3292C41.5233 57.1236 41.3364 56.9574 41.1167 56.8476C40.8969 56.7377 40.6518 56.6881 40.4066 56.7039C40.1661 56.7153 39.9335 56.7899 39.731 56.9203C39.5285 57.0507 39.3637 57.2323 39.2539 57.4466C39.0389 57.857 38.8242 58.2479 38.5897 58.6388L38.4331 58.8733L38.0419 59.3815C37.7878 59.7137 37.5344 60.0653 37.2412 60.3976L37.0647 60.6128L36.8309 60.9644C36.8309 60.8276 36.8309 60.8276 36.8309 60.9644C36.8309 61.1012 36.5368 61.4139 36.3804 61.6484C36.2927 61.8126 36.2574 61.9998 36.2783 62.1848C36.2993 62.3697 36.3756 62.5439 36.4978 62.6843C36.6164 62.832 36.7778 62.9394 36.9597 62.9919C37.1416 63.0443 37.3352 63.0394 37.5142 62.9775L38.1593 62.6843C38.1593 63.642 38.2962 64.6388 38.3158 65.4597C38.3158 67.6486 38.4332 69.8376 38.5114 72.0265L38.687 78.1634C38.687 79.9224 38.3746 82.5022 39.4495 84.0267C40.5244 85.5511 42.8304 85.336 44.6285 84.8278L50.5891 83.1666L60.2056 80.5282C60.1848 80.7522 60.2082 80.9782 60.2753 81.1929C60.3424 81.4076 60.4512 81.6068 60.5959 81.779C60.7892 82.0079 61.0385 82.1829 61.3193 82.2872C61.6746 82.405 62.0585 82.405 62.4138 82.2872C62.5897 82.2872 62.8048 82.1113 62.9807 81.994C63.1523 81.8679 63.3155 81.7309 63.4693 81.5837L63.8405 81.2318L64.6813 80.4499L66.3227 78.9061C66.4893 78.7005 66.6061 78.4591 66.6643 78.2009C66.7225 77.9427 66.72 77.6746 66.6576 77.4174C66.5952 77.1602 66.4746 76.9209 66.3045 76.7181C66.1345 76.5153 65.9199 76.3545 65.6776 76.2481Z" fill="black"/>
<path d="M204.304 30.0839C204.101 29.9767 203.878 29.9113 203.649 29.8916C203.42 29.872 203.189 29.8986 202.97 29.9697C202.752 30.0407 202.549 30.1548 202.376 30.3053C202.202 30.4559 202.06 30.6397 201.959 30.846C201.06 33.1131 200.16 35.3804 199.281 37.6475L199.144 37.3935C198.519 35.9081 197.971 34.4031 197.366 32.9178C196.173 29.9307 194.736 27.0477 193.066 24.2987C190.012 18.8065 185.456 14.2981 179.932 11.3018C173.499 8.24878 166.209 7.51021 159.294 9.21064C155.915 10.0367 152.675 11.3536 149.678 13.1195C148.99 9.95483 147.37 7.06873 145.027 4.83276C139.828 -0.0337437 131.932 -0.307391 125.248 0.16167C117.987 0.679023 110.883 2.53442 104.296 5.63414C100.995 7.19264 97.8487 9.05747 94.8962 11.2042C92.0322 13.0486 89.6473 15.5472 87.9384 18.4941C87.2662 19.9036 86.8739 21.4304 86.7847 22.9894C86.7847 24.1034 88.3873 24.1033 88.7391 23.1261C90.244 17.2628 96.4012 13.3539 101.287 10.5786C106.895 7.35471 113.007 5.10165 119.366 3.91424C122.552 3.33465 125.782 3.02716 129.02 2.99548C132.112 2.86978 135.202 3.25965 138.166 4.14876C140.487 4.9312 142.55 6.33348 144.132 8.20409C145.713 10.0747 146.753 12.3422 147.138 14.7611C145.108 16.1432 143.187 17.6786 141.392 19.354C138.904 21.6756 136.663 24.2498 134.707 27.0349C133.529 28.4414 132.935 30.2458 133.046 32.0773C133.159 32.853 133.472 33.5859 133.956 34.203C134.439 34.8201 135.075 35.3001 135.802 35.5953C139.046 36.9634 142.056 34.9894 144.147 32.5854C146.501 29.8935 148.276 26.7471 149.365 23.3411C150.048 21.1485 150.339 18.8529 150.225 16.5593C158.16 11.7123 167.815 9.69918 176.747 13.2953C181.845 15.5075 186.191 19.1537 189.255 23.7905C190.84 26.1166 192.244 28.5602 193.457 31.1C194.677 33.4871 195.748 35.948 196.662 38.4682C194.696 37.2149 192.958 35.6352 191.522 33.7971C190.174 32.0577 187.301 33.7973 188.63 35.654C191.247 39.2391 194.758 42.0759 198.812 43.882C199.092 44.0073 199.399 44.0582 199.705 44.0297C200.01 44.0011 200.302 43.8941 200.554 43.7191C200.806 43.544 201.009 43.307 201.142 43.0308C201.275 42.7546 201.334 42.4485 201.314 42.1426L205.222 32.5074C205.329 32.2892 205.39 32.0514 205.401 31.8089C205.412 31.5663 205.373 31.324 205.287 31.0969C205.201 30.8699 205.07 30.6628 204.901 30.4886C204.732 30.3143 204.529 30.1767 204.304 30.0839ZM145.144 25.7841C144.414 27.1636 143.557 28.4722 142.584 29.6929C141.753 30.8913 140.655 31.8812 139.378 32.5854C138.915 32.8356 138.389 32.945 137.865 32.8999C137.34 32.8547 136.841 32.657 136.428 32.3313C135.45 31.3541 136.544 29.6734 137.15 28.794C138.863 26.2997 140.828 23.9878 143.013 21.8948C144.332 20.6159 145.737 19.4276 147.216 18.3379C147.032 20.9339 146.327 23.4662 145.144 25.7841Z" fill="black"/>
<path d="M125.893 96.5539C125.346 96.7298 124.818 96.9448 124.291 97.1012L123.918 97.199C123.606 97.2249 123.292 97.2249 122.98 97.199H122.355C122.045 97.1754 121.737 97.1229 121.436 97.0425H121.242L120.85 96.8862L120.459 96.7299C120.287 96.6718 120.123 96.593 119.97 96.4954C119.667 96.3472 119.321 96.3129 118.994 96.399C118.668 96.4851 118.383 96.6859 118.193 96.9645C118.012 97.2406 117.933 97.5704 117.968 97.8982C118.004 98.2261 118.153 98.5314 118.388 98.7624C119.349 99.7223 120.575 100.374 121.908 100.635C123.241 100.896 124.621 100.755 125.873 100.228C126.656 99.945 127.336 99.4346 127.827 98.7624C128.029 98.4667 128.122 98.1102 128.09 97.7537C128.058 97.3972 127.903 97.0628 127.652 96.808C127.415 96.599 127.122 96.4637 126.81 96.4186C126.497 96.3735 126.179 96.4205 125.893 96.5539Z" fill="black"/>
<path d="M141.9 85.5503C141.995 85.7235 142.137 85.866 142.31 85.9609C142.414 86.048 142.533 86.1143 142.662 86.1563C142.791 86.1838 142.924 86.1838 143.052 86.1563C143.377 86.1884 143.702 86.1054 143.971 85.9218C144.258 85.7103 144.532 85.482 144.792 85.2378C144.968 85.0808 145.126 84.9037 145.262 84.7101C145.421 84.5413 145.565 84.3581 145.691 84.1628C145.859 83.9538 146.009 83.7316 146.141 83.4983C146.213 83.392 146.278 83.2809 146.336 83.166C146.451 82.9493 146.511 82.7078 146.512 82.4624C146.57 82.2381 146.57 82.0028 146.512 81.7784L146.316 81.3681C146.199 81.1533 146.023 80.9769 145.808 80.8599C145.685 80.7543 145.537 80.6805 145.378 80.645C145.164 80.5477 144.929 80.5072 144.695 80.5276C144.227 80.5689 143.789 80.7771 143.463 81.114C143.06 81.6014 142.713 82.1323 142.427 82.697C142.304 82.8952 142.199 83.1047 142.114 83.3225C141.986 83.6685 141.875 84.0206 141.782 84.3777V84.7492V85.14L141.9 85.5503Z" fill="black"/>
<path d="M253.556 97.8834C253.297 97.4719 252.959 97.1159 252.562 96.8358C252.165 96.5557 251.717 96.3572 251.242 96.2518C250.768 96.1464 250.277 96.136 249.799 96.2215C249.32 96.307 248.863 96.4867 248.455 96.7499C248.338 96.7499 248.26 96.8867 248.162 96.9453C248.256 94.7937 247.608 92.675 246.325 90.9451C245.591 89.9333 244.573 89.1614 243.401 88.7266C242.229 88.2919 240.955 88.2137 239.738 88.5021C239.186 87.7456 238.436 87.157 237.569 86.8018C236.446 86.3526 235.194 86.3526 234.071 86.8018C233.805 86.9156 233.55 87.0531 233.308 87.2124C232.967 87.4524 232.664 87.7421 232.409 88.0722C231.959 87.529 231.395 87.0916 230.756 86.791C230.118 86.4904 229.421 86.3338 228.715 86.3327C228.047 86.3369 227.384 86.4629 226.761 86.7042C226.467 86.8199 226.186 86.9639 225.921 87.1341C224.665 87.8833 223.648 88.9747 222.989 90.2807C222.651 90.9666 222.388 91.6875 222.207 92.4305C221.972 93.2709 221.816 94.131 221.64 94.9909C221.473 95.9485 221.225 96.89 220.898 97.8052C220.783 98.1617 220.64 98.5082 220.468 98.8411C219.779 100.263 218.891 101.579 217.829 102.75C214.879 105.716 211.76 108.509 208.487 111.115C204.981 114.078 202.352 117.944 200.885 122.294C199.606 127.502 199.406 132.916 200.298 138.203C201.001 144.164 201.822 150.106 202.584 156.047C203.151 160.523 203.738 165.018 204.324 169.493C201.099 166.014 197.894 162.536 194.669 159.076L193.829 158.177C194.095 157.823 194.233 157.389 194.22 156.946C194.22 154.112 193.907 151.239 193.711 148.405C193.516 145.571 193.341 142.757 193.145 139.943C193.006 137.265 192.64 134.604 192.051 131.988C191.296 129.608 190.361 127.289 189.256 125.05C188.26 122.875 187.947 120.449 188.357 118.092C188.971 115.514 189.441 112.904 189.764 110.274C190.136 104.704 187.81 99.2712 186.148 94.092C182.591 83.5576 180.422 72.2023 173.288 63.4074C169.476 58.7016 164.841 54.7282 159.607 51.6809C154.431 48.6316 148.692 46.6568 142.735 45.8744C136.778 45.092 130.724 45.5181 124.936 47.1272C113.454 50.5872 103.647 58.1485 97.3791 68.3717C94.2287 73.5583 92.1604 79.3289 91.3002 85.336C90.792 88.8344 90.538 92.3914 89.8344 95.8703C89.1444 99.1401 87.8161 102.242 85.9255 104.998C83.9623 107.459 82.4296 110.234 81.3916 113.206C80.4535 116.626 81.7242 119.538 83.2096 122.568C83.9466 123.734 84.3078 125.098 84.245 126.477C83.9356 127.819 83.2105 129.029 82.1732 129.936C79.8475 132.32 76.9155 134.099 75.4692 137.245C74.9332 138.379 74.6915 139.629 74.7659 140.881C74.6704 141.076 74.6169 141.289 74.6094 141.506C74.6372 141.894 74.7235 142.277 74.8642 142.64C74.8642 142.757 74.8642 142.874 74.8642 143.011C74.8642 143.148 74.8642 143.363 74.8642 143.343C74.9059 143.864 74.8455 144.389 74.6877 144.887C74.6877 144.887 74.5707 145.18 74.5512 145.219L74.2582 145.806C74.0823 146.158 73.8868 146.509 73.6914 146.842C73.2374 147.576 72.8324 148.34 72.4794 149.128C71.7744 150.632 71.6424 152.342 72.1082 153.936C72.3948 154.852 72.9292 155.67 73.6522 156.301C72.9682 157.083 72.3037 157.904 71.6978 158.724C69.8411 161.089 68.0817 163.552 66.3814 166.054C66.1078 166.444 65.8348 166.855 65.5416 167.246C65.7761 165.839 65.9904 164.431 66.2249 163.024C67.4366 155.343 68.7267 147.663 69.7625 139.943C70.3987 136.369 70.3393 132.705 69.5869 129.154C68.8563 126.281 67.3484 123.664 65.2286 121.591C63.2313 119.62 60.8675 118.06 58.2708 116.998C56.0671 116.084 53.7656 115.428 51.4112 115.043L49.9254 114.809C45.1376 114.363 40.3238 114.258 35.5211 114.496C35.4806 114.428 35.4482 114.356 35.4238 114.281C34.3684 112.209 33.3133 110.157 32.2775 108.085L29.1111 101.89C28.3014 99.9512 27.2991 98.0982 26.1203 96.3589C25.5356 95.5154 24.6757 94.9019 23.6878 94.6237C22.6998 94.3456 21.6464 94.4199 20.7075 94.8344C19.8629 95.2896 19.2257 96.0526 18.9286 96.9649C18.714 96.6751 18.4716 96.4067 18.2053 96.1635C17.6703 95.6666 17.0321 95.2948 16.3358 95.0751C15.6395 94.8554 14.9024 94.7932 14.1791 94.8931C13.2294 95.0216 12.3599 95.4947 11.7361 96.2222C11.1747 96.8665 10.7793 97.6381 10.5833 98.4698C10.0777 98.3328 9.54474 98.3328 9.0392 98.4698C8.55483 98.5975 8.11061 98.8463 7.74898 99.193C7.20528 99.7731 6.78904 100.461 6.52652 101.211C6.264 101.962 6.16142 102.759 6.22496 103.551C6.22496 104.04 6.22496 104.528 6.22496 104.998C5.99587 104.943 5.75516 104.965 5.53977 105.06C5.32437 105.155 5.14648 105.319 5.03303 105.525C4.23905 107.543 4.00258 109.737 4.3488 111.877C4.51293 113.989 4.86621 116.082 5.40426 118.131C6.49977 122.281 8.36939 126.187 10.9154 129.643C16.1184 136.655 23.8131 141.405 32.4139 142.913C34.7423 143.324 37.1056 143.5 39.4691 143.441C34.1993 150.686 30.0245 158.668 27.0784 167.129C25.3652 171.772 23.9676 176.525 22.8957 181.357C21.6359 186.573 21.1883 191.952 21.5673 197.305C22.4077 206.119 26.8049 214.66 35.0134 218.667C38.7963 220.36 42.8857 221.262 47.03 221.315C51.1744 221.369 55.286 220.574 59.1115 218.979C63.9334 216.987 68.4015 214.228 72.3429 210.81C74.2974 209.168 76.0951 207.448 77.854 205.631C79.0071 204.438 80.1602 203.246 81.2351 201.976C81.3719 204.634 81.6649 207.272 82.0167 209.793C82.4271 212.842 82.8571 215.93 83.4825 218.94C83.6724 220.28 84.2351 221.541 85.1058 222.577C85.9765 223.614 87.1202 224.385 88.4077 224.803C89.1577 225.059 89.9209 225.275 90.6942 225.448C90.3033 225.761 89.9519 226.093 89.6197 226.386C88.4272 227.426 87.3039 228.542 86.2576 229.728C84.0585 232.223 82.1874 234.988 80.6883 237.957C79.1675 240.928 78.0314 244.08 77.3072 247.338C76.9551 248.884 76.7003 250.45 76.5447 252.028C76.1856 253.779 76.2186 255.588 76.6421 257.325C76.7894 257.618 77.0042 257.872 77.2681 258.068C77.2936 258.395 77.4197 258.706 77.6298 258.958C77.8399 259.21 78.1228 259.391 78.44 259.475C81.5751 259.957 84.7524 260.108 87.9191 259.924H97.3982H116.141C128.629 259.924 141.119 259.924 153.608 259.807C160.683 259.807 167.757 259.651 174.812 259.612C175.085 259.624 175.356 259.565 175.599 259.442C175.842 259.319 176.049 259.135 176.2 258.908C176.511 258.801 176.788 258.612 177.001 258.361C177.215 258.11 177.356 257.806 177.412 257.481C177.81 254.547 177.657 251.565 176.962 248.686C176.357 245.915 175.378 243.239 174.051 240.732C172.738 238.217 171.058 235.911 169.066 233.891C168.098 232.87 167.031 231.947 165.881 231.136C165.34 230.742 164.78 230.376 164.2 230.041C166.109 228.927 167.757 227.418 169.035 225.614C170.312 223.811 171.19 221.755 171.608 219.585C172.898 214.601 172.663 209.11 175.028 204.497C178.771 207.796 182.685 210.894 186.754 213.781C195.627 219.839 206.298 224.471 217.184 223.259C227.171 222.165 236.475 216.497 240.051 206.803C241.824 201.528 242.56 195.96 242.22 190.406C241.986 184.268 241.418 178.149 240.52 172.073C239.523 164.979 238.213 157.923 236.748 150.907C235.36 144.223 233.993 137.441 232.077 130.874L234.5 129.291C236.455 128.06 238.409 126.789 240.207 125.382C243.9 122.669 247.123 119.368 249.745 115.61C252.23 112.089 253.802 108.006 254.318 103.727C254.728 101.749 254.459 99.6904 253.556 97.8834ZM164.943 99.447C165.236 94.9714 165.568 82.1309 165.568 82.1114C165.568 82.4241 169.887 84.5152 171.177 86.1569C175.086 91.1407 172.194 97.7661 167.151 100.737C166.391 101.178 165.594 101.551 164.767 101.851C164.826 101.011 164.904 100.209 164.943 99.4079V99.447ZM102.558 82.2872C102.724 80.6001 103.159 78.9505 103.847 77.4011C104.499 75.1667 105.488 73.0447 106.779 71.108C109.652 67.8245 114.441 64.7364 118.311 68.2739L118.936 68.8995C118.975 68.9469 119.008 68.9994 119.033 69.0557C119.122 69.1519 119.2 69.2567 119.268 69.3685C119.757 70.0135 120.226 70.9124 121.125 71.0101C121.412 71.0561 121.706 71.0133 121.968 70.8875C122.23 70.7618 122.447 70.5592 122.591 70.3066C123.549 68.8212 121.575 66.7299 120.636 65.8309C119.599 64.9832 118.421 64.3219 117.157 63.8765C117.822 63.3097 118.447 62.7039 119.111 62.2153C120.441 61.2177 121.854 60.335 123.333 59.5768C126.27 58.0622 129.454 57.0828 132.734 56.6843C136.153 56.2787 139.618 56.5039 142.956 57.3488C144.606 57.7621 146.215 58.3246 147.763 59.0295L149.015 59.6355V59.9285C148.878 60.965 148.819 62.0105 148.838 63.0558C148.88 64.2626 149.05 65.4616 149.347 66.6323C148.327 66.2397 147.264 65.9706 146.18 65.8309C144.46 65.5465 142.699 65.6311 141.015 66.0792C139.33 66.5274 137.76 67.329 136.408 68.4304C136.155 68.6927 136.014 69.0431 136.014 69.4076C136.014 69.7722 136.155 70.1225 136.408 70.3848C136.632 70.6467 136.94 70.8215 137.279 70.8787C137.619 70.9359 137.968 70.8716 138.265 70.6974C140.576 69.4871 143.207 69.0294 145.79 69.3881C157.38 71.3425 158.044 86.6845 148.213 91.4337C142.35 94.2676 134.356 91.5315 132.285 85.1406C131.727 83.406 131.592 81.5629 131.893 79.7659C132.3 77.8987 133.049 76.1231 134.102 74.5282C134.883 73.1601 133.008 71.3032 131.718 72.3586C130.409 73.4406 129.4 74.8404 128.786 76.4239H128.669C128.19 76.2207 127.693 76.0637 127.184 75.9549C126.19 75.7599 125.168 75.7599 124.174 75.9549C123.889 76.0216 123.608 76.1065 123.333 76.209C123.379 75.9523 123.375 75.6891 123.319 75.4343C123.263 75.1795 123.159 74.938 123.01 74.7238C122.861 74.5097 122.671 74.327 122.452 74.1861C122.232 74.0452 121.988 73.9488 121.731 73.9026C121.474 73.8565 121.211 73.8612 120.956 73.9167C120.701 73.9723 120.46 74.0776 120.246 74.2264C120.032 74.3752 119.849 74.5647 119.708 74.7842C119.567 75.0036 119.471 75.2487 119.424 75.5054C119.17 76.6585 118.877 77.8898 118.545 79.121H118.193C117.726 79.1623 117.289 79.3703 116.962 79.7072C116.564 80.191 116.216 80.7151 115.926 81.2708C115.809 81.4858 115.711 81.7007 115.613 81.9157C115.515 82.1307 115.379 82.5998 115.281 82.9516C115.183 83.3034 115.281 83.2254 115.281 83.3426V83.7139C115.325 83.8346 115.377 83.9523 115.437 84.0658C115.532 84.2389 115.675 84.3812 115.848 84.4761C115.942 84.5722 116.066 84.6341 116.2 84.652H116.396C115.308 86.8028 113.494 88.4993 111.275 89.4404C110.246 89.9402 109.097 90.1358 107.961 90.0042C106.826 89.8726 105.75 89.4194 104.864 88.6977C104.023 87.8624 103.38 86.8498 102.981 85.7339C102.582 84.618 102.438 83.427 102.558 82.2481V82.2872ZM142.682 121.082C143.268 123.902 142.904 126.837 141.646 129.428C140.149 131.407 138.371 133.159 136.369 134.627C134.304 136.186 132.813 138.385 132.128 140.881C131.896 142.493 132.064 144.137 132.617 145.669C133.243 147.138 133.772 148.646 134.2 150.184C134.305 151.01 134.239 151.849 134.007 152.649C133.775 153.449 133.382 154.193 132.852 154.835C131.653 156.391 130.679 158.109 129.959 159.936C129.631 160.859 129.531 161.847 129.667 162.817C129.803 163.787 130.171 164.709 130.741 165.506C131.254 166.189 131.925 166.739 132.695 167.109C133.397 168.024 134.327 168.738 135.392 169.181C129.841 172.914 122.904 175.044 116.396 172.835C113.108 171.711 110.289 169.525 108.382 166.62C107.36 164.86 106.744 162.894 106.579 160.865C106.413 158.837 106.701 156.797 107.424 154.894C109.185 150.474 111.75 146.419 114.988 142.933L116.023 143.167C118.818 143.851 121.477 145.122 124.291 145.63C124.509 145.658 124.73 145.639 124.939 145.574C125.149 145.509 125.342 145.399 125.505 145.253C125.669 145.106 125.798 144.926 125.885 144.724C125.972 144.523 126.016 144.305 126.011 144.086C126.208 143.879 126.326 143.609 126.343 143.324C126.636 139.884 126.754 136.444 126.949 133.024C126.949 131.363 127.125 129.701 127.223 128.021C127.223 126.868 127.399 125.636 127.36 124.444C129.345 124.357 131.313 124.035 133.223 123.486C135.44 123.026 137.476 121.933 139.086 120.34C139.325 120.061 139.468 119.712 139.493 119.345C139.517 118.979 139.422 118.614 139.222 118.306C139.021 117.997 138.726 117.762 138.381 117.636C138.036 117.509 137.659 117.498 137.307 117.603C135.665 117.955 134.18 118.933 132.578 119.441C131.061 119.917 129.493 120.213 127.906 120.32C124.681 120.575 121.442 120.045 118.466 118.776C115.567 117.484 113.03 115.497 111.08 112.992C109.13 110.487 107.828 107.539 107.288 104.411C106.739 100.835 106.919 97.1859 107.815 93.6814C108.771 93.7422 109.73 93.6766 110.669 93.486C112.318 93.1587 113.882 92.4932 115.262 91.5315C115.345 91.8443 115.522 92.1241 115.769 92.3329C116.08 92.5908 116.464 92.7461 116.866 92.7776C117.268 92.8091 117.67 92.7151 118.017 92.5088C120.692 91.0517 122.767 88.6989 123.88 85.8637C124.505 84.4026 124.857 82.8392 124.916 81.2513C124.943 80.5915 124.864 79.9317 124.682 79.2969C124.772 79.284 124.865 79.284 124.956 79.2969H125.64H125.835H126.226L126.636 79.4142H126.812L127.223 79.6292L127.457 79.7855H127.692C127.527 81.3444 127.599 82.9194 127.906 84.4566C128.355 86.6194 129.294 88.6509 130.649 90.3954C132.004 92.14 133.74 93.5515 135.724 94.5219C137.724 95.507 139.908 96.0643 142.136 96.1585C144.364 96.2527 146.586 95.8819 148.662 95.0692C150.732 94.2225 152.617 92.9809 154.213 91.4142C153.548 96.0071 148.506 99.5447 145.653 102.848C143.48 105.263 142.161 108.326 141.9 111.564C141.85 114.742 142.112 117.917 142.682 121.043V121.082ZM43.3388 143.226C43.3461 143.167 43.3461 143.108 43.3388 143.05C44.531 142.874 45.7233 142.64 46.8764 142.366C49.0849 141.819 47.9908 138.457 45.8018 139.024C38.157 140.832 30.1125 139.716 23.2478 135.897C16.436 132.052 11.3373 125.766 8.98099 118.307C8.91992 118.134 8.86759 117.958 8.82448 117.78C10.5084 122.23 13.1816 126.24 16.6421 129.506C16.9986 129.78 17.445 129.911 17.8932 129.872C18.3414 129.834 18.7589 129.629 19.0632 129.298C19.3675 128.966 19.5361 128.533 19.5365 128.083C19.537 127.633 19.3688 127.199 19.0651 126.867C15.3934 123.397 12.6976 119.023 11.2475 114.183C10.5139 111.776 10.0228 109.301 9.78165 106.796C9.61448 105.5 9.53589 104.194 9.54689 102.887C9.52341 102.567 9.57961 102.247 9.70912 101.954C9.83863 101.66 10.0382 101.404 10.2903 101.206C10.2903 101.401 10.2899 101.597 10.3876 101.773C11.0034 104.643 11.8064 107.47 12.7915 110.235C13.6624 112.986 14.7746 115.654 16.1144 118.209C17.5865 121.03 19.5754 123.549 21.9777 125.636C22.3094 125.937 22.7463 126.093 23.1934 126.071C23.6406 126.049 24.0609 125.851 24.3615 125.519C24.6621 125.187 24.8187 124.75 24.7967 124.302C24.7747 123.855 24.5759 123.435 24.2441 123.135C20.2776 119.128 17.4106 114.167 15.9188 108.731C15.4693 107.343 15.0395 105.936 14.6486 104.548C14.0943 103.085 13.7452 101.553 13.6122 99.9941C13.6122 99.1146 14.0232 97.7466 15.1372 97.8834C15.804 98.0387 16.397 98.4183 16.8177 98.9584C17.3999 99.5389 17.8992 100.197 18.3026 100.913C18.3755 101.061 18.4921 101.183 18.6357 101.265C18.792 102.476 19.0267 103.688 19.2417 104.861C19.6283 106.892 20.1236 108.902 20.7266 110.88C22.1078 115.358 24.0173 119.655 26.4142 123.682C27.5282 125.538 30.3225 123.682 29.2475 121.845C28.4462 120.516 27.7233 119.148 27.0393 117.74C26.3552 116.333 25.8273 115.141 25.2996 113.832C23.8028 110.016 22.7473 106.043 22.1532 101.988C21.7666 100.718 21.726 99.3689 22.0359 98.0788C22.5831 96.9452 23.7753 99.0364 23.9903 99.5055C25.8274 103.004 27.5277 106.6 29.2867 110.118L31.4176 114.398L32.2965 116.177L33.3129 118.131C33.4692 118.444 33.6256 118.757 33.8015 119.069C33.9986 119.614 34.3103 120.11 34.7147 120.525C35.1192 120.939 35.6075 121.263 36.1472 121.473C36.8117 121.688 37.3584 121.102 37.5538 120.535C37.6638 120.137 37.6934 119.721 37.6397 119.311C37.586 118.902 37.4507 118.507 37.2417 118.151C40.1538 118.151 43.1044 118.151 45.9774 118.249C46.7787 118.249 47.5996 118.248 48.4205 118.444C49.8774 118.598 51.321 118.86 52.7396 119.226C55.7392 119.917 58.5535 121.251 60.9877 123.135C62.9402 124.606 64.4484 126.587 65.346 128.861C66.3141 131.978 66.5281 135.28 65.9711 138.496C65.072 145.767 63.7626 152.998 62.6291 160.229C62.5116 160.288 62.4054 160.368 62.3161 160.464C61.847 160.953 61.6324 161.597 61.2024 162.145C60.8793 162.562 60.4974 162.931 60.0687 163.239C58.9719 164.002 57.703 164.479 56.3755 164.627C53.2543 164.982 50.097 164.857 47.0138 164.255C44.2183 163.925 41.5846 162.768 39.45 160.933C37.8855 159.324 36.8427 157.281 36.4592 155.07C38.6677 150.946 41.013 147.076 43.3388 143.187V143.226ZM236.025 166.464C237.022 172.542 237.803 178.64 238.273 184.757C238.872 190.051 238.767 195.4 237.96 200.666C237.177 205.456 234.867 209.864 231.373 213.233C228.051 216.167 224 218.152 219.646 218.979C209.64 221.09 199.575 217.298 191.191 212.022C180.422 205.24 171.744 195.663 161.484 188.177C161.105 187.846 160.614 187.674 160.111 187.696C159.609 187.718 159.135 187.932 158.787 188.295C158.45 188.674 158.273 189.17 158.295 189.677C158.317 190.184 158.536 190.663 158.904 191.012C163.575 194.412 167.914 198.223 172.272 202.015C169.79 206.197 169.497 211.142 168.734 215.833C168.109 219.741 166.898 224.334 163.301 226.562C161.181 227.683 158.797 228.21 156.402 228.087C153.548 228.087 150.675 227.911 147.822 227.852C141.919 227.709 136.056 227.416 130.232 226.973C118.558 226.062 106.94 224.542 95.4247 222.419L91.5159 221.657C90.3954 221.558 89.3214 221.16 88.4077 220.504C87.7917 219.771 87.4047 218.874 87.294 217.924C87.0399 216.634 86.8835 215.305 86.688 214.015C85.6464 208.176 85.1106 202.258 85.0858 196.327C85.2617 186.086 88.8961 175.181 97.945 169.435C98.1608 169.288 98.3418 169.095 98.4737 168.869C98.6056 168.644 98.685 168.392 98.7075 168.132C98.7299 167.872 98.6948 167.61 98.6035 167.365C98.5122 167.121 98.3672 166.9 98.1798 166.718C97.0013 165.33 96.2419 163.635 95.9906 161.832C95.9352 161.488 95.7549 161.178 95.4838 160.959C95.2128 160.741 94.8703 160.632 94.5229 160.651C94.1755 160.67 93.848 160.818 93.6029 161.065C93.3579 161.312 93.2131 161.641 93.1964 161.988C93.1849 163.901 93.6625 165.785 94.5839 167.461C86.7663 172.679 82.6618 182.158 81.6064 191.246C81.3723 193.283 81.2555 195.332 81.2552 197.383C81.042 197.476 80.8437 197.601 80.6683 197.754C79.0461 199.22 77.6197 200.881 76.0953 202.445C74.5708 204.008 72.9874 205.513 71.3457 206.96C68.2298 209.73 64.776 212.094 61.0659 213.996C57.716 215.796 54.0396 216.908 50.2537 217.267C46.4678 217.626 42.6482 217.225 39.0196 216.087C31.3974 213.409 26.844 206.315 25.6908 198.497C25.1001 193.647 25.3244 188.732 26.355 183.956C27.2517 179.382 28.4671 174.876 29.9909 170.471C31.2261 166.84 32.6681 163.284 34.3101 159.819C34.9565 161.158 35.821 162.38 36.8696 163.435C39.5279 165.909 42.8876 167.5 46.4861 167.988C50.3505 168.766 54.3244 168.832 58.2126 168.184C59.5381 167.934 60.8085 167.451 61.9649 166.757C61.6326 168.887 61.3004 171.018 60.9877 173.148C60.144 177.386 59.6667 181.688 59.561 186.008C59.561 187.728 61.8279 187.591 62.297 186.223C63.3051 182.926 64.0117 179.544 64.4079 176.119C64.6445 176.004 64.8519 175.837 65.0139 175.63C66.597 173.676 67.9063 171.33 69.3331 169.181C70.7598 167.031 72.1469 165.115 73.6322 163.142C76.5308 159.23 79.8036 155.61 83.4043 152.334C90.1665 146.314 98.7275 142.053 107.933 142.151C109.155 142.158 110.376 142.243 111.588 142.405C108.6 145.364 106.217 148.875 104.571 152.744C103.566 155.022 103.048 157.485 103.048 159.975C103.048 162.465 103.566 164.928 104.571 167.207C106.511 170.982 109.683 173.982 113.561 175.708C117.811 177.587 122.551 178.053 127.086 177.037C132.122 175.89 136.779 173.467 140.61 170.002C141.68 169.939 142.735 169.716 143.737 169.337C145.695 168.577 147.406 167.292 148.682 165.623C149.957 163.954 150.749 161.966 150.969 159.878C151.223 157.063 149.972 153.291 151.125 150.672C152.279 148.053 156.656 145.845 159.373 145.102C167.053 143.031 176.63 147.467 182.572 152.119C185.992 154.891 189.194 157.923 192.148 161.187C195.51 164.725 198.852 168.301 202.194 171.858L205.321 175.181C205.321 175.669 205.438 176.158 205.516 176.647C205.997 182.019 206.833 187.353 208.018 192.614C208.292 193.845 210.149 193.415 210.129 192.223C210.185 188.03 209.956 183.838 209.445 179.676L208.742 173.969C208.273 170.164 207.797 166.347 207.315 162.516C207.198 161.617 207.099 160.718 206.982 159.8L207.608 160.19C208.85 160.92 210.159 161.528 211.517 162.008C214.497 163.1 217.673 163.553 220.839 163.337C225.915 162.92 230.717 160.862 234.52 157.474C234.989 160.425 235.517 163.395 236.025 166.425V166.464ZM251.074 105.212C249.51 112.698 244.097 118.639 238.116 123.076C236.318 124.405 234.442 125.656 232.546 126.848C231.627 127.434 230.592 127.962 229.712 128.49C228.55 128.912 227.546 129.684 226.839 130.698C226.748 130.915 226.712 131.15 226.735 131.384C226.758 131.618 226.839 131.843 226.972 132.037C227.104 132.231 227.283 132.39 227.492 132.497C227.701 132.605 227.933 132.658 228.168 132.653C228.475 132.652 228.779 132.599 229.067 132.496C230.045 137.812 231.393 143.069 232.546 148.346C232.878 149.851 233.191 151.376 233.504 152.9C230.085 156.706 225.334 159.051 220.233 159.448C217.584 159.637 214.924 159.285 212.416 158.412C211.203 157.986 210.032 157.45 208.917 156.809C207.96 156.282 206.963 155.597 206.064 155.128C205.634 151.786 205.223 148.464 204.813 145.141C203.958 139.972 203.501 134.745 203.445 129.506C203.379 125.135 204.752 120.863 207.354 117.349C209.973 114.365 212.858 111.624 215.972 109.16C218.75 106.908 221.101 104.174 222.911 101.089C223.048 100.835 223.184 100.561 223.301 100.287C224.187 98.1143 224.842 95.8545 225.256 93.5447C225.455 92.7159 225.771 91.9195 226.194 91.1796C226.415 90.6635 226.787 90.2267 227.262 89.9266C227.736 89.6266 228.292 89.4773 228.853 89.4989C230.26 89.6748 230.513 91.336 230.474 92.665C230.474 93.0168 230.474 93.3297 230.474 93.5838C230.185 95.3457 229.7 97.0697 229.028 98.7239C228.755 99.4275 228.462 100.111 228.168 100.795C227.875 101.48 227.679 101.851 227.425 102.379C226.995 103.239 226.546 104.098 226.037 104.939C225.059 107.106 223.603 109.024 221.777 110.548C220.233 112.053 222.715 114.301 224.239 112.796C227.972 109.141 228.148 108.222 230.513 103.512C231.654 101.136 232.582 98.6638 233.288 96.1244C233.288 95.8899 233.425 95.6358 233.484 95.3817C233.877 93.8429 233.951 92.2399 233.699 90.6717C234.122 90.29 234.604 89.9796 235.126 89.753C235.339 89.7123 235.557 89.7123 235.77 89.753C236.728 89.753 237.432 90.8083 237.725 91.7074C238.042 93.2374 237.975 94.822 237.53 96.3198C237.247 97.6443 236.882 98.9498 236.435 100.229C234.481 105.506 233.856 109.395 229.595 113.03C228.207 114.222 230.26 116.665 231.667 115.493C236.064 111.838 236.983 107.949 239.113 102.633C240.289 99.9054 241.027 97.0099 241.301 94.0528C241.353 93.1461 241.267 92.2369 241.048 91.3557C241.778 91.4864 242.467 91.7906 243.055 92.243C243.644 92.6954 244.115 93.2825 244.429 93.955C245.562 96.5544 244.8 99.8183 244.058 102.34C243.882 102.965 243.667 103.59 243.472 104.294C243.022 105.232 242.63 106.248 242.279 107.128C240.598 110.646 239.954 113.91 237.041 116.568C235.576 117.877 237.842 119.91 239.269 118.522C243.881 114.359 245.7 108.75 247.341 102.73C247.764 101.98 248.241 101.262 248.768 100.581C249.139 100.092 249.784 99.2709 250.448 99.2318C251.113 99.1928 251.347 99.9941 251.445 100.522C251.621 102.082 251.495 103.661 251.074 105.173V105.212Z" fill="black"/>
<path d="M194.024 127.492C192.577 125.968 190.877 124.756 190.799 122.469C190.996 120.159 191.585 117.899 192.539 115.785C194.001 110.928 193.871 105.73 192.168 100.951C190.141 95.4443 187.12 90.3567 183.255 85.9415C183.173 85.8131 183.066 85.7022 182.941 85.6151C182.816 85.528 182.675 85.4662 182.526 85.4335C182.377 85.4009 182.224 85.3979 182.074 85.4247C181.924 85.4515 181.78 85.5074 181.652 85.5896C181.524 85.6717 181.413 85.7783 181.326 85.9033C181.239 86.0283 181.177 86.1694 181.144 86.3182C181.112 86.467 181.109 86.6208 181.136 86.7708C181.163 86.9207 181.219 87.064 181.301 87.1923C186.187 95.5377 192.695 104.626 189.47 114.808C188.61 116.935 187.988 119.151 187.614 121.414C187.488 122.535 187.596 123.67 187.932 124.747C188.269 125.824 188.826 126.818 189.568 127.668C191.112 128.966 192.386 130.553 193.32 132.339C193.935 134.392 194.075 136.557 193.731 138.672C193.399 141.486 192.91 144.281 192.48 147.095C192.265 148.581 192.03 150.066 191.756 151.532C191.385 153.144 191.15 154.785 191.053 156.437C191.053 158.392 193.907 158.392 194.415 156.672C194.736 155.344 194.938 153.99 195.021 152.626C195.177 151.121 195.392 149.636 195.607 148.151C195.978 145.532 196.369 142.913 196.721 140.333C197.405 135.681 197.424 131.108 194.024 127.492Z" fill="black"/>
<path d="M93.6068 94.4435C88.6817 103.121 76.0169 107.01 75.8606 118.307C75.7993 120.557 76.4868 122.764 77.815 124.581C78.5033 125.432 79.2763 126.211 80.1215 126.906C80.6492 127.375 81.6851 128.138 81.6265 128.861C81.5678 129.584 80.6883 130.033 80.1607 130.366C79.2225 130.913 78.2063 131.343 77.2682 131.91C75.0557 133.169 73.1943 134.963 71.8544 137.128C70.5851 139.335 70.227 141.951 70.8571 144.418C71.3458 146.373 73.4563 150.164 75.997 149.011C76.2904 148.897 76.5309 148.677 76.6717 148.395C76.8126 148.114 76.844 147.79 76.7595 147.486C76.5641 146.49 75.8022 146.06 75.1572 145.258C74.6603 144.583 74.3315 143.799 74.1991 142.972C74.0726 142.066 74.1384 141.144 74.3909 140.265C74.6434 139.387 75.077 138.571 75.6649 137.871C77.1199 136.201 78.9208 134.867 80.9422 133.962C81.9432 133.602 82.8406 133.002 83.5561 132.215C84.2716 131.428 84.7836 130.478 85.0467 129.447C85.0681 128.398 84.8207 127.36 84.3281 126.433C83.8355 125.506 83.1142 124.72 82.2325 124.151C81.4555 123.565 80.8016 122.833 80.3086 121.994C79.8156 121.156 79.4927 120.228 79.359 119.265C78.8509 114.574 81.8415 110.802 85.0467 107.773C87.0011 105.818 89.1893 104.176 91.1437 102.261C93.1747 100.379 94.7525 98.0599 95.7568 95.4794C95.8942 95.1943 95.9128 94.8663 95.8084 94.5675C95.7039 94.2688 95.4846 94.0238 95.1995 93.8864C94.9144 93.749 94.5869 93.7306 94.2882 93.8351C93.9895 93.9396 93.7442 94.1584 93.6068 94.4435Z" fill="black"/>
</svg>
