<svg viewBox="0 0 384 384" fill="none" xmlns="http://www.w3.org/2000/svg">
<rect width="384" height="384" fill="white"/>
<circle cx="192" cy="239.877" r="138.831" fill="#DBEAFE"/>
<mask id="mask0_449_19832" style="mask-type:alpha" maskUnits="userSpaceOnUse" x="53" y="101" width="278" height="278">
<circle cx="192" cy="239.877" r="138.831" fill="#DBEAFE"/>
</mask>
<g mask="url(#mask0_449_19832)">
<path d="M117.531 429.663C119.847 397.238 124.351 362.28 138.72 332.857C139.363 326.907 140.769 317.742 142.308 311.945C142.528 311.114 143.045 310.618 143.655 310.383C143.695 310.366 143.737 310.351 143.779 310.336C143.86 310.309 143.942 310.289 144.026 310.272C144.1 310.257 144.176 310.242 144.256 310.232C144.357 310.222 144.458 310.222 144.562 310.225C144.609 310.225 144.651 310.218 144.7 310.22C161.793 311.48 176.391 311.75 193.382 314.058C201.631 315.177 209.731 317.22 218.053 317.767C226.88 318.347 235.716 317.678 244.365 315.812C245.368 315.597 246.179 315.985 246.705 316.613C247.627 316.595 248.494 317.099 248.724 318.318C249.818 324.107 248.358 330.297 250.397 335.813C261.633 366.194 269.238 407.114 268.761 427.552C268.645 432.665 263.367 432.808 259.819 433.154C248.074 434.298 238.733 434.602 226.956 435.317C204.885 436.658 139.524 437.535 118.675 431.724C117.966 431.402 117.452 430.725 117.526 429.66L117.531 429.663Z" fill="#1E293B"/>
<path d="M246.511 337.295C219.977 343.035 192.358 345.739 165.404 341.399C157.724 340.164 150.148 338.335 142.764 335.887C142.132 335.677 142.403 334.671 143.041 334.883C168.933 343.473 196.714 343.992 223.55 340.332C231.163 339.294 238.725 337.918 246.234 336.292C246.887 336.151 247.166 337.154 246.511 337.295Z" fill="black"/>
<path d="M240.121 343.942C244.396 358.203 246.699 373.002 246.971 387.885C246.983 388.554 245.943 388.554 245.93 387.885C245.661 373.088 243.365 358.393 239.118 344.217C238.925 343.574 239.928 343.3 240.121 343.94V343.942Z" fill="black"/>
<path d="M145.257 345.853C140.327 358.324 136.927 371.371 135.177 384.668C135.091 385.323 134.051 385.33 134.137 384.668C135.901 371.272 139.287 358.144 144.253 345.576C144.496 344.96 145.504 345.227 145.257 345.853Z" fill="black"/>
</g>
<path d="M162.747 126.834C160.921 124.729 159.537 122.159 159.236 119.389C158.534 112.979 162.965 106.28 166.481 101.281C172.315 92.9934 171.907 81.9552 176.686 73.272C177.151 72.4244 182.095 66.0837 182.063 66.0195C181.888 65.6636 181.908 65.1818 182.303 64.8754C186.761 61.4381 193.099 63.284 196.257 67.591C200.386 73.2225 199.378 80.569 198.305 86.9986C196.855 95.7041 197.253 104.143 197.651 112.915C197.838 117.044 198.001 121.237 197.579 125.357C197.357 127.509 196.904 129.572 195.765 131.309C195.79 131.472 195.753 131.653 195.619 131.836C191.246 137.877 183.084 140.929 176.689 137.939C175.453 137.361 174.307 136.602 173.291 135.693C172.248 134.756 171.507 133.543 170.328 132.752C169.723 132.347 169.12 131.952 168.524 131.559C166.446 130.185 164.452 128.801 162.75 126.837L162.747 126.834Z" fill="#5E2B34"/>
<path d="M184.336 145.347C186.164 142.407 190.051 141.789 193.254 141.359C197.964 140.729 202.725 140.637 207.452 141.117C214.903 141.873 231.179 141.732 230.73 152.503C230.693 153.386 227.658 154.354 226.838 152.78C226.741 152.958 226.388 152.953 225.76 152.755C225.395 152.765 225.029 152.778 224.663 152.788C223.566 152.835 222.471 152.924 221.379 153.04C218.982 153.297 216.608 153.714 214.233 154.119C210.279 154.794 206.326 155.471 202.313 155.661C198.888 155.825 194.892 156.208 191.665 154.806C188.623 153.484 186.508 150.87 184.959 148.018C184.704 147.549 184.679 147.097 184.793 146.694C184.632 146.264 184.01 145.864 184.331 145.345L184.336 145.347Z" fill="#2563EB"/>
<path d="M229.408 166.151C230.273 167.045 231.234 167.802 232.255 168.461C229.697 171.039 225.778 172.457 222.724 173.606C217.629 175.521 212.583 176.833 207.149 176.806C199.563 176.769 190.237 174.639 183.615 169.383C183.647 168.961 183.83 168.58 184.099 168.291C184.213 167.994 184.373 167.663 184.707 167.495C188.48 165.607 191.811 155.684 192.246 152.35C193.151 145.421 192.965 137.306 192.647 130.244C191.95 129.804 200.576 118.885 206.247 116.587C211.711 114.37 218.948 113.241 224.115 116.812C224.345 116.97 224.513 117.163 224.637 117.37C225.274 117.528 225.791 118.062 225.729 118.991C224.985 130.069 224.496 141.302 224.96 152.407C225.044 154.414 226.374 163.013 229.411 166.151H229.408Z" fill="#FF9C78"/>
<path d="M213.571 139.481C209.308 142.118 204.727 142.827 199.792 143.007C197.534 143.091 195.263 143.069 193.024 142.849C192.96 138.646 192.834 134.443 192.644 130.247C191.947 129.807 200.573 118.887 206.244 116.589C211.708 114.373 218.945 113.244 224.112 116.814C224.342 116.972 224.51 117.165 224.634 117.373C225.271 117.531 225.788 118.065 225.726 118.994C225.607 120.758 225.499 122.525 225.397 124.297C222.995 130.398 219.197 136.004 213.571 139.484V139.481Z" fill="#C75C4E"/>
<path d="M182.001 83.8134C184.912 70.5044 195.302 59.5033 210.156 61.3813C220.015 62.6267 229.674 68.4658 233.69 77.6383C239.539 91.0066 234.345 104.78 230.586 117.958C228.874 123.963 226.136 127.702 220.317 130.281C212.748 133.635 202.787 135.139 194.435 133.326C181.756 130.573 179.69 119.068 179.077 108.581C178.583 100.107 180.165 92.2249 182.003 83.8159L182.001 83.8134Z" fill="#FF9C78"/>
<path d="M96.3276 273.503C98.9519 266.337 101.754 259.26 103.946 252.277C106.377 244.54 112.76 213.756 119.84 201.104C125.214 191.497 134.451 180.869 145.195 176.25C145.524 176.109 150.893 193.634 150.439 198.324C149.942 203.429 149.425 208.534 148.921 213.64C147.323 229.817 146.052 246.02 145.491 262.267C145.062 274.726 144.333 286.792 140.918 298.868C140.297 301.06 139.297 304.564 136.934 305.54C134.481 306.553 129.739 305.483 127.04 305.59C120.361 305.851 115.305 304.875 109.716 308.785C102.221 314.028 105.942 320.811 107.185 329.845C107.213 330.045 144.56 314.213 144.543 314.381C143.947 320.203 138.454 328.706 133.991 332.68C129.81 336.401 124.411 338.314 118.896 338.87C114.957 339.267 110.971 339.015 107.069 338.405C99.236 337.179 92.9448 331.622 90.5973 324.078C85.2302 306.835 90.3082 289.938 96.3251 273.506L96.3276 273.503Z" fill="#3B82F6"/>
<path d="M183.373 81.8068C183.326 81.6511 183.291 81.493 183.271 81.3324C183.212 80.8357 183.306 80.3069 183.612 79.9115C184.445 78.8416 186.313 78.9256 187.509 78.9799C189.857 79.0837 197.114 78.1818 197.062 82.5135C197.028 85.333 193.954 85.7827 191.974 85.6765C190.413 85.5924 188.858 85.2539 187.356 84.7127C186.261 84.3174 185.073 83.9912 184.218 83.156C183.835 82.7829 183.533 82.3183 183.375 81.8093L183.373 81.8068Z" fill="#5E2B34"/>
<path d="M211.361 78.5896C213.627 79.0937 215.715 80.1488 217.764 81.2064C219.615 82.1627 221.651 82.9065 223.442 83.8999C225.209 84.8784 223.692 87.3272 222.209 87.5051C218.935 87.8931 215.631 87.4681 212.503 86.4623C210.501 85.8199 207.158 84.0704 207.212 81.3127C207.262 78.8837 209.57 78.1918 211.364 78.5921L211.361 78.5896Z" fill="#5E2B34"/>
<path d="M114.947 230.059C117.502 218.737 118.612 208.858 122.924 198.04C126.598 188.825 135.348 181.721 144.041 176.902C152.505 172.212 161.598 170.483 170.553 166.961C176.194 164.742 182.303 165.755 183.057 158.374C183.783 151.243 183.264 147.2 184.413 145.12C185.085 143.899 186.719 142.57 187.907 143.864C200.833 157.972 213.571 148.742 227.044 146.926C227.973 146.8 228.682 147.312 229.045 147.976C232.991 152.162 229.366 158.866 232.739 163.287C234.259 165.278 237.056 166.571 239.092 167.992C241.727 169.828 244.677 171.251 247.6 172.556C253.412 175.15 261.013 177.557 266.662 180.517C274.488 184.619 283.252 191.452 287.268 199.49C291.38 207.721 294.78 214.961 293.171 232.434C293.097 233.235 273.274 233.477 266.528 236.61C264.517 237.547 264.935 245.978 264.848 247.717C264.574 253.307 264.243 258.793 263.627 264.404C262.703 272.855 261.744 281.301 260.751 289.742C259.837 297.506 260.494 305.97 258.32 313.489C253.926 328.669 240.229 330.759 226.591 327.532C214.515 324.673 197.861 324.525 185.493 325.881C174.88 327.045 157.177 327.396 146.757 323.413C135.941 319.279 140.085 311.762 139.929 301.319C139.729 287.862 139.959 275.111 142.003 262.979C142.022 262.867 142.047 262.766 142.082 262.67C142.215 262.284 142.255 261.876 142.186 261.474C141.397 256.838 140.75 252.188 140.308 247.532C140.233 246.764 139.796 246.074 139.126 245.686C131.493 241.231 124.379 236.706 116.42 232.513C116.165 232.38 115.973 232.214 115.829 232.029C115.194 231.666 114.747 230.969 114.955 230.054L114.947 230.059Z" fill="#3B82F6"/>
<path d="M216.985 305.906C211.826 296.997 211.23 286.189 211.823 276.144C212.476 265.064 214.608 254.056 217.391 243.331C219.6 234.821 222.066 226.269 223.462 217.573C226.007 224.715 228.767 231.779 231.639 238.799C235.407 248.014 238.869 257.266 242.197 266.648C245.296 275.378 248.64 284.16 253.545 292.058C255.482 295.179 257.777 297.961 260.051 300.805C259.836 305.137 259.485 309.449 258.316 313.492C257.362 316.788 255.969 319.467 254.231 321.609C249.766 322.817 244.893 322.815 240.164 321.762C230.838 319.687 221.848 314.305 216.985 305.906Z" fill="#2563EB"/>
<path d="M181.546 59.4265C183.466 58.3689 185.685 58.3244 187.77 57.8203C190.592 57.1383 193.073 55.6038 195.658 54.346C199.468 52.4927 203.652 51.3635 207.628 53.3724C207.64 53.3798 207.65 53.3872 207.665 53.3947C209.187 54.2447 213.047 53.7455 214.838 53.9259C217.499 54.1953 220.153 54.556 222.773 55.0923C227.757 56.1128 232.706 57.7511 236.949 60.6225C242.707 64.5168 247.513 69.538 250.12 75.8391C252.927 82.6246 253.975 89.3459 254.35 96.287C254.414 97.4682 254.721 98.6246 255.217 99.6995C259.762 109.532 265.094 122.957 260.426 133.676C256.129 143.546 243.947 144.485 234.698 142.871C229.531 141.969 224.502 138.799 224.552 133.051C224.552 132.975 224.517 132.903 224.458 132.858C221.359 130.479 219.155 127.071 218.463 123.132C217.336 116.723 220.062 110.342 222.958 104.775C224.339 102.121 226.005 99.6822 226.615 96.717C227.285 93.4774 227.018 90.0106 226.435 86.818C226.212 85.5948 225.451 84.5026 224.32 83.9886C222.644 83.2276 220.561 83.3511 218.772 82.6938C217.02 82.0464 215.332 81.2038 213.803 80.1289C210.8 78.0211 208.505 75.041 207.465 71.5049C207.383 71.2306 206.978 71.2825 206.98 71.5716C207 73.2421 207.217 74.9743 207.909 76.5113C208.176 77.1043 208.396 77.8011 207.61 78.0458C201.302 79.9979 193.449 80.0473 187.775 75.5772C185.858 74.0649 184.437 71.8731 183.814 69.5281C183.752 69.2983 183.436 69.2785 183.347 69.4984C182.161 72.4266 181.165 76.1628 182.393 79.2492C182.623 79.8249 182.176 80.2104 181.687 80.2425C181.425 80.3414 181.121 80.3093 180.864 80.0473C175.751 74.7988 173.436 63.8941 181.541 59.4364L181.546 59.4265Z" fill="#5E2B34"/>
<path d="M187.398 87.7077C187.561 87.3272 187.756 86.9639 187.981 86.6279C189.234 84.7622 191.527 84.5225 192.642 86.6724C193.035 87.431 193.163 88.3082 193.148 89.1681C193.119 90.8904 192.486 93.1267 191.162 94.3005C189.929 95.3927 188.132 95.3012 187.393 93.7148C186.553 91.911 186.593 89.5832 187.396 87.7052L187.398 87.7077Z" fill="black"/>
<path d="M212.793 89.6723C212.966 89.2967 213.176 88.9384 213.418 88.6073C214.765 86.7664 217.256 86.544 218.489 88.6864C218.924 89.44 219.072 90.3123 219.065 91.1648C219.047 92.8723 218.38 95.0864 216.952 96.2403C215.62 97.3152 213.665 97.209 212.848 95.63C211.918 93.836 211.936 91.5281 212.793 89.6723Z" fill="black"/>
<path d="M198.342 93.1736C196.459 94.0237 194.702 95.5829 194.467 97.755C194.237 99.8801 195.631 101.706 197.341 102.781C197.907 103.137 197.386 104.036 196.817 103.681C194.789 102.405 193.212 100.256 193.427 97.755C193.647 95.2221 195.599 93.275 197.818 92.2742C198.423 91.9999 198.952 92.8969 198.342 93.1736Z" fill="#C75C4E"/>
<path d="M203.195 103.522C202.305 102.682 201.181 102.321 199.97 102.433C199.303 102.494 199.308 101.452 199.97 101.392C201.445 101.259 202.859 101.773 203.931 102.786C204.418 103.246 203.682 103.982 203.195 103.522Z" fill="#C75C4E"/>
<path d="M197.523 109.24C200.182 109.601 202.75 111.766 204.21 113.99C205.025 115.233 203.256 115.087 202.648 114.887C199.594 113.883 197.059 111.916 193.624 113.043C193.206 113.182 192.781 112.648 192.794 112.213C192.863 109.752 195.648 108.986 197.521 109.24H197.523Z" fill="#C75C4E"/>
<path d="M188.132 171.73C189.214 170.651 190.989 170.307 192.274 171.209C195.296 173.332 194.374 181.397 189.761 180.515C186.185 179.83 185.923 173.935 188.132 171.73Z" fill="black"/>
<path d="M200.7 131.458C201.081 130.148 201.459 128.837 201.839 127.527C202.511 125.21 198.472 124.475 197.803 126.777C193.592 141.3 189.378 155.824 185.167 170.347C184.496 172.662 188.535 173.4 189.204 171.097C192.809 158.67 196.222 146.929 199.825 134.501L199.953 134.188C201.29 134.267 198.832 141.445 198.628 142.178L196.277 150.616C195.847 152.165 198.093 153.724 198.522 152.183C199.874 147.327 201.943 141.408 203.04 136.491C203.552 134.193 203.14 132.034 200.698 131.457L200.7 131.458Z" fill="black"/>
<path d="M205.12 80.4947C204.786 81.6091 204.796 82.7038 205.147 83.8158C205.35 84.4558 204.344 84.7301 204.144 84.0925C203.741 82.8175 203.734 81.5004 204.117 80.2204C204.307 79.5804 205.313 79.8522 205.12 80.4972V80.4947Z" fill="#C75C4E"/>
<path d="M199.804 117.832C198.27 118.544 196.572 118.489 195.112 117.622C194.536 117.281 195.06 116.382 195.636 116.723C196.76 117.39 198.087 117.486 199.281 116.933C199.884 116.653 200.412 117.548 199.804 117.832Z" fill="#C75C4E"/>
<path d="M144.026 206.412C135.214 229.869 142.845 254.908 148.177 278.2C149.731 284.991 151.108 291.823 151.936 298.744C152.015 299.407 150.974 299.402 150.895 298.744C147.952 274.158 137.7 250.527 139.108 225.443C139.479 218.851 140.697 212.322 143.023 206.135C143.255 205.515 144.263 205.784 144.026 206.412Z" fill="black"/>
<path d="M145.175 269.51C142.707 278.766 141.637 288.322 141.988 297.897C142.012 298.567 140.972 298.567 140.947 297.897C140.592 288.235 141.681 278.576 144.172 269.233C144.345 268.586 145.348 268.86 145.175 269.51Z" fill="black"/>
<path d="M241.951 265.475C246.805 250.189 245.006 242.291 247.838 226.647C249.703 216.338 255.747 203.202 267.166 200.555C273.067 199.186 278.194 201.064 283.188 204.188C285.318 205.52 291.563 208.927 292.262 211.648C295.375 223.798 293.208 238.871 292.68 250.799C292.153 262.65 290.962 265.415 289.267 277.172C287.809 287.286 284.93 297.919 277.885 305.654C272.138 311.962 263.902 316.252 255.298 316.561C248.569 316.803 241.727 312.973 237.526 307.88C227.155 295.305 237.882 278.299 241.954 265.472L241.951 265.475Z" fill="#3B82F6"/>
<path d="M179.218 167.545C179.569 167.3 179.942 167.078 180.333 166.87C179.507 163.154 181.356 158.78 182.302 157.623C185.833 153.302 210.007 160.678 215.241 162.343C219.79 163.791 224.503 165.279 228.199 168.429C231.844 171.535 234.172 175.85 236.292 180.063C238.864 185.176 260.17 236.934 264.645 259C264.763 259.581 264.62 260.075 264.341 260.453C262.853 268.136 258.497 274.724 253.149 280.311C250.199 283.392 246.959 286.189 243.705 288.942C240.937 291.285 238.615 292.789 234.861 292.149C233.932 291.991 233.547 291.322 233.561 290.608C228.619 285.431 225.837 277.605 225.194 270.538C223.057 247.031 220.275 227.611 218.752 216.669C218.285 213.222 217.544 209.807 216.788 206.412C216.39 204.62 215.975 202.831 215.545 201.045C215.13 199.315 215.031 197.476 213.383 196.448C212.555 195.932 211.601 195.663 210.682 195.339C209.286 194.847 207.939 194.222 206.664 193.471C205.602 192.846 204.285 191.588 202.92 192.087C202.196 192.351 201.616 193.184 202.429 193.753C203.995 194.845 206.528 194.593 206.901 196.384C208.302 203.088 197.062 200.701 197.361 200.802C193.353 199.438 186.345 199.139 185.569 194.267C184.926 194.368 178.531 189.858 180.068 181.279C177.397 177.058 174.61 170.752 179.213 167.542L179.218 167.545Z" fill="#FF9C78"/>
<path d="M225.289 275.379C233.152 279.807 244.311 278.744 249.844 271.875C264.094 254.179 260.568 243.905 260.781 243.636C260.983 242.158 263.212 242.953 264.136 244.602C265.276 246.633 266.145 248.214 267.107 248.607C277.69 252.914 281.441 270.081 277.922 280.521C273.549 293.499 275.288 310.724 262.439 315.187C255.209 317.698 250.311 316.452 249.29 316.314C242.626 315.404 236.384 312.029 231.857 307.075C229.559 304.559 227.58 301.569 226.406 298.354C225.208 295.068 225.682 291.586 225.26 288.208C224.889 285.253 224.083 282.376 223.233 279.53C222.831 278.176 222.208 273.646 225.287 275.381L225.289 275.379Z" fill="#3B82F6"/>
<path d="M261.361 241.55C263.293 242.108 264.573 243.631 265.339 245.437C266.352 247.821 266.775 250.448 267.652 252.89C268.603 255.536 269.826 258.037 271.136 260.52C272.278 262.68 273.288 264.844 273.612 267.288C273.699 267.951 272.658 267.943 272.572 267.288C272.243 264.812 271.072 262.618 269.918 260.444C268.895 258.514 267.953 256.552 267.155 254.518C266.315 252.373 265.69 250.184 265.082 247.967C264.467 245.731 263.543 243.265 261.086 242.556C260.444 242.37 260.718 241.367 261.363 241.552L261.361 241.55Z" fill="black"/>
<path d="M272.016 251.521C277.159 253.92 281.048 258.442 282.689 263.868C282.884 264.511 281.878 264.785 281.686 264.145C280.117 258.958 276.398 254.706 271.49 252.418C270.885 252.136 271.411 251.239 272.014 251.518L272.016 251.521Z" fill="black"/>
<path d="M183.026 305.733C187.41 311.013 192.866 315.249 199.071 318.184C199.676 318.471 199.147 319.368 198.547 319.084C192.273 316.116 186.725 311.812 182.292 306.472C181.867 305.96 182.599 305.221 183.029 305.735L183.026 305.733Z" fill="black"/>
<path d="M196.751 165.024C194.102 164.794 191.453 164.562 188.804 164.33C186.817 164.157 183.363 163.208 181.784 164.846C181.319 165.328 180.583 164.592 181.048 164.11C182.656 162.442 185.199 162.973 187.265 163.154C190.425 163.43 193.588 163.705 196.749 163.981C197.411 164.038 197.416 165.081 196.749 165.022L196.751 165.024Z" fill="#C75C4E"/>
<path d="M195.56 174.387C193.151 174.642 190.744 174.894 188.335 175.148C187.132 175.274 185.923 175.383 184.722 175.529C183.504 175.677 181.733 175.872 181.547 177.427C181.468 178.084 180.428 178.091 180.507 177.427C180.796 174.997 183.22 174.649 185.239 174.434C188.679 174.071 192.121 173.71 195.56 173.347C196.225 173.278 196.22 174.318 195.56 174.387Z" fill="#C75C4E"/>
<path d="M200.556 182.712C197.099 183.265 193.492 183.582 190.094 184.429C186.16 185.413 185.789 189.641 185.708 193.036C185.693 193.703 184.653 193.705 184.668 193.036C184.744 189.826 185.026 185.87 188.152 184.068C189.736 183.156 191.759 183.072 193.524 182.791C195.777 182.43 198.029 182.069 200.282 181.708C200.937 181.605 201.219 182.605 200.559 182.712H200.556Z" fill="#C75C4E"/>
<path d="M200.784 194.14C198.226 193.923 195.847 193.107 193.714 191.674C193.161 191.304 193.682 190.402 194.238 190.775C196.217 192.107 198.402 192.897 200.781 193.1C201.443 193.157 201.448 194.197 200.781 194.14H200.784Z" fill="#C75C4E"/>
<path d="M276.32 214.536C268.882 218.317 262.902 224.485 259.349 232.034C259.065 232.639 258.168 232.113 258.45 231.51C262.07 223.818 268.215 217.492 275.794 213.639C276.389 213.338 276.916 214.235 276.318 214.539L276.32 214.536Z" fill="black"/>
<path d="M178.855 74.6459C179.129 75.5874 179.962 76.2916 180.945 76.3682C181.608 76.4201 181.615 77.4604 180.945 77.4085C179.49 77.2973 178.262 76.3312 177.852 74.9227C177.664 74.2777 178.667 74.0034 178.855 74.6459Z" fill="black"/>
<path d="M213.26 78.9134C215.121 80.6061 217.318 81.6983 219.781 82.19C220.436 82.321 220.159 83.3242 219.504 83.1932C216.868 82.6669 214.51 81.4561 212.524 79.6498C212.027 79.1976 212.766 78.4637 213.26 78.9134Z" fill="black"/>
<path d="M210.326 56.6515C208.214 57.2372 207.233 59.5921 206.827 61.559C206.412 63.5779 206.533 65.6684 206.818 67.6971C206.909 68.3519 205.908 68.6361 205.814 67.9738C205.261 64.0474 205.157 57.0074 210.047 55.6508C210.692 55.4704 210.969 56.4736 210.324 56.654L210.326 56.6515Z" fill="black"/>
<path d="M192.211 59.7132C190.422 61.0327 188.69 62.5228 187.561 64.4675C186.263 66.7013 186.231 68.8363 186.797 71.2925C186.948 71.9449 185.944 72.2216 185.794 71.5693C185.203 69.0093 185.201 66.6865 186.456 64.3118C187.662 62.031 189.641 60.3235 191.685 58.8137C192.223 58.4159 192.742 59.3178 192.209 59.7132H192.211Z" fill="black"/>
<path d="M222.966 59.0437C227.243 61.2034 229.247 66.3259 229.971 70.7985C230.856 76.2817 230.003 81.8119 229.151 87.2433C229.047 87.903 228.044 87.6238 228.148 86.9665C228.948 81.8786 229.766 76.6697 229.037 71.5225C228.419 67.1636 226.623 62.051 222.442 59.9407C221.844 59.6392 222.37 58.7423 222.966 59.0412V59.0437Z" fill="black"/>
<path d="M237.922 74.7619C240.274 83.796 241.398 93.4973 238.389 102.524C236.985 106.735 234.635 110.192 231.907 113.639C230.326 115.638 228.875 117.694 227.943 120.083C227.091 122.273 226.594 124.576 226.209 126.886C226.098 127.546 225.097 127.267 225.206 126.609C225.947 122.174 227.249 118.101 229.96 114.464C232.7 110.787 235.495 107.466 237.089 103.092C240.4 94.0187 239.3 84.1839 236.916 75.0337C236.748 74.3863 237.751 74.1095 237.919 74.7569L237.922 74.7619Z" fill="black"/>
<path d="M236.624 111.168C235.201 115.485 233.449 119.826 232.51 124.281C231.667 128.272 232.03 133.096 235.665 135.636C236.211 136.016 235.69 136.918 235.141 136.535C231.776 134.185 230.728 129.98 231.171 126.068C231.452 123.58 232.228 121.19 233.009 118.823C233.879 116.179 234.754 113.537 235.623 110.893C235.831 110.261 236.837 110.533 236.627 111.17L236.624 111.168Z" fill="black"/>
<path d="M155.467 321.847C160.793 316.139 166.058 310.376 171.265 304.562C175.673 299.64 180.04 294.68 184.361 289.684C185.968 287.828 196.089 274.233 198.572 276.115C211.899 286.222 224.111 297.426 236.238 308.911C239.967 312.442 230.12 321.175 227.985 323.513C223.216 328.734 218.202 333.713 213.364 338.865C213.134 339.112 212.902 339.357 212.675 339.606C207.779 344.939 202.966 350.348 198.078 355.69C195.632 358.364 193.168 361.018 190.665 363.64C188.498 365.908 186.284 368.953 183.479 370.42C181.169 371.631 179.812 369.518 177.969 368.026C175.903 366.351 173.842 364.67 171.786 362.98C167.783 359.689 146.693 341.373 143.653 336.797C143.216 336.14 143.283 335.277 143.812 334.689C146.228 332.006 153.229 324.239 155.463 321.845L155.467 321.847Z" fill="white"/>
<path d="M179.55 93.8704C177.497 99.8256 175.102 105.66 172.355 111.331C170.128 115.924 165.796 123.009 170.845 127.36C171.354 127.798 170.615 128.532 170.108 128.097C165.557 124.173 167.954 117.84 170.18 113.384C173.388 106.964 176.207 100.382 178.547 93.5961C178.765 92.966 179.77 93.2378 179.55 93.8729V93.8704Z" fill="black"/>
<path d="M249.446 85.4714C250.138 89.1038 251.405 92.5459 253.244 95.7534C253.578 96.3341 252.678 96.8604 252.344 96.2772C250.464 92.9957 249.149 89.4621 248.443 85.7456C248.319 85.0908 249.32 84.8116 249.446 85.4689V85.4714Z" fill="black"/>
<path d="M103.53 312.439C103.889 311.463 104.314 310.601 104.796 309.896C106.607 307.252 109.229 305.32 111.883 303.585C119.36 298.698 127.574 295.369 135.669 291.756C141.609 289.105 147.55 286.458 153.49 283.807C158.766 281.45 164.022 278.682 169.616 277.123C177.185 275.013 185.176 275.833 191.717 280.367C195.164 282.757 198.149 285.784 200.645 289.144C202.978 292.285 205.753 295.394 206.978 299.177C207.517 300.835 207.369 302.476 206.024 303.677C202.004 307.272 198.431 300.546 196.227 298.216C193.597 295.436 190.43 293.261 186.975 291.776C186.142 291.418 185.426 292.473 186.053 293.128C186.676 293.778 187.274 294.455 187.847 295.161C190.242 298.112 192.224 301.391 194.082 304.715C195.584 307.398 197.843 310.559 197.304 313.838C196.946 316.024 195.357 317.962 193.138 318.172C189.982 318.471 187.487 315.268 185.623 313.121C185.203 312.639 184.783 312.13 184.356 311.609C184.526 312.325 184.635 313.042 184.672 313.756C184.771 315.676 184.262 317.831 182.475 318.782C180.212 319.988 177.602 318.125 175.808 316.815C173.965 315.466 172.134 313.618 170.214 311.876C169.744 311.451 169.05 312.019 169.364 312.57C170.975 315.407 172.07 318.804 169.715 320.932C165.917 324.364 161.78 317.554 159.255 315.506C155.084 312.123 149.598 310.929 144.654 313.437C142.027 314.769 128.488 332.526 112.154 334.189C102.016 335.222 100.629 320.344 103.533 312.441L103.53 312.439Z" fill="#FF9C78"/>
<path d="M233.498 305.72C234.217 304.258 234.827 302.335 234.424 300.697C233.883 298.49 231.395 298.621 229.789 299.488C227.117 300.929 225.128 303.64 224.078 306.432C223.843 307.052 222.838 306.783 223.075 306.155C224.355 302.753 227.486 298.258 231.467 297.845C233.08 297.677 234.751 298.433 235.314 300.032C236.016 302.029 235.289 304.431 234.397 306.244C234.101 306.845 233.204 306.318 233.498 305.72Z" fill="black"/>
<path d="M220.544 294.573C221.263 293.111 221.874 291.188 221.471 289.55C220.93 287.343 218.441 287.474 216.835 288.342C214.164 289.782 212.175 292.493 211.124 295.285C210.892 295.905 209.884 295.636 210.121 295.008C211.401 291.606 214.532 287.111 218.513 286.698C220.126 286.53 221.797 287.286 222.36 288.885C223.062 290.882 222.336 293.284 221.444 295.097C221.147 295.698 220.25 295.171 220.544 294.573Z" fill="black"/>
<path d="M206.687 282.673C207.406 281.21 208.016 279.288 207.613 277.649C207.072 275.443 204.584 275.574 202.978 276.441C200.306 277.882 198.317 280.592 197.267 283.385C197.032 284.005 196.027 283.736 196.264 283.108C197.544 279.705 200.675 275.21 204.655 274.798C206.269 274.63 207.939 275.386 208.503 276.985C209.205 278.981 208.478 281.383 207.586 283.197C207.29 283.797 206.393 283.271 206.687 282.673Z" fill="black"/>
<path d="M111.164 299.372C116.615 295.08 124.317 293.103 130.68 290.541C131.456 290.229 131.99 290.763 132.098 291.411C133.055 291.598 133.374 292.295 132.289 292.891C126.109 296.278 121.47 302.449 118.977 309.071C117.749 312.335 117.077 315.852 117.22 319.346C117.383 323.292 120.04 330.559 125.063 330.455C125.602 330.443 125.948 330.73 126.114 331.105C126.684 331.622 126.828 332.566 125.943 332.946C120.954 335.091 110.956 338.607 106.531 335.066C102.051 331.483 98.302 320.124 98.3959 314.431C98.4972 308.29 106.493 303.049 111.161 299.372H111.164Z" fill="#3B82F6"/>
<path d="M127.524 291.885C124.892 287.084 119.112 286.209 114.178 285.611C113.52 285.532 113.513 284.489 114.178 284.571C119.491 285.216 125.594 286.202 128.421 291.359C128.742 291.947 127.845 292.471 127.521 291.883L127.524 291.885Z" fill="black"/>
<path d="M131.462 289.27C127.686 280.414 121.624 272.658 113.902 266.9C113.371 266.505 113.89 265.6 114.426 266.001C122.294 271.867 128.509 279.712 132.359 288.744C132.618 289.352 131.724 289.883 131.459 289.268L131.462 289.27Z" fill="black"/>
<path d="M176.736 286.518C179.182 286.852 181.51 287.534 183.763 288.539C184.374 288.811 183.845 289.708 183.239 289.439C181.07 288.473 178.811 287.845 176.459 287.524C175.799 287.432 176.081 286.432 176.736 286.52V286.518Z" fill="#C75C4E"/>
<path d="M166.455 293.981C175.114 295.915 180.211 303.682 184.588 310.729C184.941 311.3 184.042 311.821 183.688 311.253C179.455 304.433 174.568 296.857 166.178 294.981C165.526 294.836 165.803 293.832 166.455 293.978V293.981Z" fill="#C75C4E"/>
<path d="M157.896 300.165C160.357 300.225 162.386 302.57 164.012 304.183C165.991 306.148 167.76 308.305 169.342 310.6C169.722 311.154 168.82 311.673 168.442 311.124C167.083 309.152 165.581 307.292 163.915 305.567C163.174 304.801 162.406 304.062 161.61 303.35C160.545 302.399 159.408 301.238 157.893 301.203C157.226 301.186 157.224 300.146 157.893 300.163L157.896 300.165Z" fill="#C75C4E"/>
<path d="M231.529 314.12C219.47 327.253 207.107 340.105 194.441 352.655C190.813 356.248 187.161 359.816 183.487 363.362C183.005 363.827 182.268 363.093 182.75 362.626C195.582 350.249 208.125 337.57 220.359 324.599C223.863 320.885 227.34 317.147 230.792 313.383C231.247 312.889 231.981 313.625 231.529 314.12Z" fill="black"/>
<g filter="url(#filter0_d_449_19832)">
<path d="M100.598 120.528L100.216 119.164C98.8977 114.461 98.3244 110.577 98.3403 107.485C98.3753 104.461 98.953 101.8 100.043 99.656C101.134 97.5125 102.603 95.4098 104.452 93.348C105.85 91.7798 107.045 90.269 108.015 88.7472C108.986 87.2255 109.713 85.6247 110.062 83.983C110.411 82.3414 110.381 80.6589 109.884 78.8865C109.369 77.0459 108.433 75.5436 107.146 74.3603C105.858 73.177 104.326 72.4301 102.616 72.1004C100.906 71.7707 99.1555 71.8201 97.315 72.3357C95.4744 72.8514 94.0211 73.6997 92.6633 74.8888C91.3055 76.078 90.3349 77.5997 89.8007 79.3668C89.1984 81.153 89.1687 83.1464 89.7308 85.4151L73.1656 90.0561C71.7932 84.6326 71.8279 79.7706 73.2889 75.5382C74.7498 71.3058 77.2961 67.7986 80.8215 64.8994C84.3469 62.0002 88.6169 59.9216 93.5251 58.5465C98.9105 57.0377 103.931 56.5869 108.517 57.2134C113.172 57.8208 117.083 59.4454 120.424 62.1854C123.765 64.9254 126.031 68.5545 127.368 73.3263C128.247 76.4621 128.484 79.4099 128.149 82.1504C127.814 84.891 126.926 87.4926 125.601 89.8488C124.295 92.2732 122.504 94.5396 120.421 96.8141C118.671 98.7014 117.261 100.493 116.28 102.239C115.298 103.984 114.734 105.906 114.549 107.87C114.383 109.901 114.653 112.178 115.398 114.837L115.78 116.2L100.442 120.498L100.598 120.528ZM115.85 144.265C113.123 145.029 110.606 144.705 108.163 143.331C105.719 141.957 104.116 139.907 103.439 137.229C102.694 134.571 102.95 132.073 104.324 129.629C105.698 127.186 107.748 125.582 110.407 124.837C112.997 124.111 115.514 124.436 117.958 125.81C120.469 127.164 122.054 129.147 122.799 131.805C123.295 133.578 123.277 135.347 122.811 137.095C122.345 138.843 121.442 140.346 120.259 141.633C119.076 142.921 117.554 143.788 115.85 144.265Z" fill="#93C5FD"/>
</g>
<g filter="url(#filter1_d_449_19832)">
<path d="M145.263 57.082L145.408 56.336C145.909 53.7624 146.569 51.7618 147.321 50.2822C148.066 48.84 148.983 47.7023 150.022 46.9366C151.062 46.1709 152.273 45.5161 153.656 44.972C154.704 44.5565 155.641 44.1193 156.473 43.6229C157.305 43.1266 158.039 42.5339 158.602 41.8304C159.164 41.1269 159.555 40.3125 159.743 39.3428C159.939 38.3357 159.852 37.3898 159.519 36.5123C159.187 35.6348 158.631 34.9075 157.891 34.3377C157.15 33.7679 156.298 33.3701 155.291 33.1744C154.284 32.9786 153.383 33.0357 152.445 33.2792C151.507 33.5227 150.675 34.019 149.994 34.7381C149.275 35.4499 148.781 36.399 148.504 37.6226L139.441 35.8608C140.088 32.9287 141.275 30.6048 142.995 28.9263C144.715 27.2477 146.78 26.1784 149.17 25.6364C151.559 25.0944 154.107 25.1253 156.793 25.6473C159.739 26.2201 162.256 27.2125 164.305 28.6172C166.392 30.0292 167.877 31.75 168.82 33.8687C169.763 35.9874 169.976 38.274 169.469 40.8849C169.135 42.6006 168.54 44.0718 167.719 45.3058C166.899 46.5398 165.846 47.5739 164.643 48.3852C163.433 49.2338 162.028 49.8897 160.482 50.4793C159.188 50.9632 158.08 51.4834 157.189 52.0843C156.298 52.6853 155.565 53.4717 155.003 54.369C154.435 55.3035 154.016 56.4608 153.733 57.9155L153.588 58.6615L145.196 57.0302L145.263 57.082ZM146.91 72.1109C145.418 71.8209 144.288 71.0595 143.447 69.8121C142.606 68.5647 142.33 67.1951 142.65 65.7477C142.933 64.2931 143.657 63.1565 144.904 62.3151C146.152 61.4738 147.521 61.1981 148.976 61.4808C150.393 61.7563 151.523 62.5178 152.364 63.7651C153.243 65.0197 153.526 66.3521 153.243 67.8067C153.054 68.7765 152.619 69.6209 151.975 70.3472C151.33 71.0735 150.536 71.5771 149.658 71.9097C148.781 72.2423 147.842 72.2921 146.91 72.1109Z" fill="#93C5FD"/>
</g>
<g filter="url(#filter2_d_449_19832)">
<path d="M111.455 33.6516L111.306 33.1068C110.793 31.2272 110.575 29.677 110.589 28.4437C110.611 27.2377 110.849 26.1777 111.289 25.3256C111.73 24.4736 112.322 23.6389 113.064 22.8215C113.626 22.1997 114.107 21.6003 114.498 20.9959C114.889 20.3916 115.184 19.755 115.327 19.1012C115.471 18.4474 115.463 17.7762 115.27 17.068C115.069 16.3325 114.7 15.7308 114.189 15.2555C113.679 14.7801 113.07 14.4781 112.389 14.3421C111.708 14.206 111.009 14.2211 110.274 14.4218C109.538 14.6226 108.957 14.9571 108.412 15.4278C107.867 15.8984 107.476 16.5028 107.258 17.2062C107.013 17.917 106.996 18.7119 107.214 19.6183L100.595 21.4253C100.062 19.2585 100.089 17.3194 100.683 15.6352C101.277 13.951 102.302 12.559 103.715 11.412C105.129 10.265 106.838 9.44738 108.799 8.91198C110.951 8.32452 112.954 8.15811 114.782 8.42017C116.637 8.6748 118.192 9.33316 119.518 10.4349C120.843 11.5366 121.737 12.9901 122.258 14.8969C122.6 16.1499 122.687 17.3262 122.546 18.4184C122.405 19.5106 122.044 20.5458 121.509 21.4821C120.982 22.4456 120.261 23.3447 119.424 24.2464C118.721 24.9944 118.154 25.7053 117.758 26.3988C117.362 27.0924 117.132 27.8577 117.053 28.6403C116.981 29.4501 117.083 30.3589 117.373 31.4213L117.522 31.9661L111.393 33.6392L111.455 33.6516ZM117.495 43.1252C116.405 43.4226 115.402 43.2867 114.431 42.7322C113.46 42.1777 112.826 41.3556 112.564 40.2858C112.274 39.2235 112.382 38.2279 112.937 37.257C113.491 36.2861 114.313 35.6519 115.376 35.3619C116.411 35.0793 117.414 35.2153 118.385 35.7698C119.383 36.3168 120.01 37.1116 120.3 38.174C120.493 38.8822 120.481 39.588 120.29 40.284C120.1 40.9799 119.736 41.5768 119.26 42.0871C118.785 42.5974 118.176 42.9393 117.495 43.1252Z" fill="#93C5FD"/>
</g>
<defs>
<filter id="filter0_d_449_19832" x="70.1641" y="55.9397" width="60.1309" height="91.7297" filterUnits="userSpaceOnUse" color-interpolation-filters="sRGB">
<feFlood flood-opacity="0" result="BackgroundImageFix"/>
<feColorMatrix in="SourceAlpha" type="matrix" values="0 0 0 0 0 0 0 0 0 0 0 0 0 0 0 0 0 0 127 0" result="hardAlpha"/>
<feOffset dy="1"/>
<feGaussianBlur stdDeviation="1"/>
<feComposite in2="hardAlpha" operator="out"/>
<feColorMatrix type="matrix" values="0 0 0 0 0 0 0 0 0 0 0 0 0 0 0 0 0 0 0.05 0"/>
<feBlend mode="normal" in2="BackgroundImageFix" result="effect1_dropShadow_449_19832"/>
<feBlend mode="normal" in="SourceGraphic" in2="effect1_dropShadow_449_19832" result="shape"/>
</filter>
<filter id="filter1_d_449_19832" x="137.44" y="24.2427" width="34.2959" height="50.9719" filterUnits="userSpaceOnUse" color-interpolation-filters="sRGB">
<feFlood flood-opacity="0" result="BackgroundImageFix"/>
<feColorMatrix in="SourceAlpha" type="matrix" values="0 0 0 0 0 0 0 0 0 0 0 0 0 0 0 0 0 0 127 0" result="hardAlpha"/>
<feOffset dy="1"/>
<feGaussianBlur stdDeviation="1"/>
<feComposite in2="hardAlpha" operator="out"/>
<feColorMatrix type="matrix" values="0 0 0 0 0 0 0 0 0 0 0 0 0 0 0 0 0 0 0.05 0"/>
<feBlend mode="normal" in2="BackgroundImageFix" result="effect1_dropShadow_449_19832"/>
<feBlend mode="normal" in="SourceGraphic" in2="effect1_dropShadow_449_19832" result="shape"/>
</filter>
<filter id="filter2_d_449_19832" x="98.2153" y="7.2998" width="26.395" height="38.9791" filterUnits="userSpaceOnUse" color-interpolation-filters="sRGB">
<feFlood flood-opacity="0" result="BackgroundImageFix"/>
<feColorMatrix in="SourceAlpha" type="matrix" values="0 0 0 0 0 0 0 0 0 0 0 0 0 0 0 0 0 0 127 0" result="hardAlpha"/>
<feOffset dy="1"/>
<feGaussianBlur stdDeviation="1"/>
<feComposite in2="hardAlpha" operator="out"/>
<feColorMatrix type="matrix" values="0 0 0 0 0 0 0 0 0 0 0 0 0 0 0 0 0 0 0.05 0"/>
<feBlend mode="normal" in2="BackgroundImageFix" result="effect1_dropShadow_449_19832"/>
<feBlend mode="normal" in="SourceGraphic" in2="effect1_dropShadow_449_19832" result="shape"/>
</filter>
</defs>
</svg>
