<svg viewBox="0 0 260 260" fill="none" xmlns="http://www.w3.org/2000/svg">
<rect width="260" height="260" fill="white"/>
<path d="M75.661 70.9652C76.0107 70.085 101.26 34.8765 101.971 34.8765C102.683 34.8765 128.811 29.3662 129.161 29.8967C129.511 30.4272 153.168 73.4611 154.59 80.539C156.013 87.6169 156.893 101.7 151.926 110.768C146.958 119.835 145.523 122.138 142.147 124.453C139.836 125.913 137.221 126.824 134.503 127.118L134.141 132.809L136.456 136.004C136.456 136.004 158.859 121.969 171.833 134.051C184.807 146.133 195.478 169.428 203.292 185.791C211.105 202.153 219.292 216.719 221.246 229.873C223.199 243.028 219.473 248.539 215.217 251.915C210.96 255.291 198.866 256.183 188.015 255.834C180.861 255.488 173.768 254.352 166.865 252.445C166.865 252.445 164.2 256.533 149.092 254.049C133.984 251.565 133.092 250.854 128.112 252.843C123.132 254.833 112.292 258.354 110.87 257.112C110.049 256.437 109.493 255.493 109.302 254.447C109.302 254.447 106.89 253.736 106.782 252.313C106.673 250.89 106.42 248.575 106.42 248.575L58.7803 251.951C58.7803 251.951 41.5379 257.461 32.6514 240.749C23.7649 224.037 35.1353 193.471 35.1353 193.471L64.8212 83.7463L75.661 70.9652Z" fill="white"/>
<path d="M259.589 85.8693C259.432 87.5935 259.227 89.3057 258.974 91.0179C257.985 90.6803 256.984 90.3547 255.984 90.0533C246.403 87.0789 236.525 85.1624 226.527 84.3379C221.366 83.9159 216.157 83.8797 211.032 83.1322C208.517 82.7753 206.038 82.1901 203.629 81.3838C201.367 80.489 199.031 79.795 196.648 79.3099C194.176 78.9481 191.668 78.8999 189.208 78.4538C186.748 78.0076 184.385 77.1757 184.168 74.4506C184.122 73.1289 184.191 71.8056 184.373 70.4957C184.457 69.2296 184.554 67.9395 184.65 66.6614C184.855 63.9846 185.072 61.3198 185.301 58.643C186.773 40.4962 188.461 22.3614 190.619 4.28694C190.74 3.27409 190.86 2.26126 190.992 1.24841C200.364 1.89443 209.515 4.39015 217.917 8.59154C226.672 12.9571 234.523 18.9382 241.056 26.2199C247.732 33.6245 252.81 42.3265 255.971 51.7822C259.496 62.7775 260.727 74.3791 259.589 85.8693Z" fill="#3B82F6"/>
<path d="M259.589 85.8694C259.432 87.5936 259.227 89.3058 258.974 91.018C257.535 100.796 254.759 110.33 250.726 119.354C246.132 129.699 239.875 139.285 230.626 146.037C221.728 152.536 211.105 156.347 200.313 158.228C197.492 158.722 194.658 159.084 191.873 159.349C190.776 159.457 189.678 159.542 188.581 159.626C187.978 158.517 187.375 157.396 186.772 156.298C187.882 156.298 188.991 156.178 190.101 156.093C195.913 155.706 201.677 154.782 207.319 153.332C217.375 150.691 227.033 145.917 234.509 138.622C242.335 130.977 247.314 120.68 250.955 110.503C253.346 103.863 255.047 96.9939 256.032 90.0052C256.617 85.8666 256.919 81.693 256.937 77.5134C257.068 66.6123 254.843 55.8114 250.413 45.8499C246.508 37.3844 240.972 29.7717 234.123 23.4468C227.237 17.0309 219.192 11.9853 210.418 8.57964C201.481 5.16297 191.926 3.65954 182.372 4.16653C172.639 4.71673 163.11 7.17487 154.326 11.4011C145.535 15.6187 137.71 21.6081 131.344 28.9933C130.138 30.4161 127.726 28.6678 128.932 27.2329C130.547 25.315 132.261 23.4837 134.068 21.7466C141.466 14.7732 150.185 9.35105 159.71 5.79958C169.236 2.24812 179.376 0.639227 189.534 1.06769L190.957 1.1521C200.328 1.79812 209.48 4.29384 217.882 8.49523C226.636 12.8608 234.487 18.8419 241.02 26.1236C247.697 33.5282 252.774 42.2302 255.936 51.6859C259.486 62.7091 260.729 74.3449 259.589 85.8694Z" fill="black"/>
<path d="M188.846 76.1868C188.506 75.0368 187.749 74.055 186.723 73.433C185.698 72.811 184.477 72.5934 183.3 72.8228C181.784 73.0941 180.429 73.9354 179.514 75.174C179.294 75.1781 179.078 75.2298 178.88 75.3256C178.682 75.4213 178.508 75.5588 178.368 75.7286C177.932 76.2837 177.609 76.9199 177.42 77.6004C177.231 78.2808 177.178 78.9921 177.266 79.6929C177.353 80.3938 177.579 81.0703 177.93 81.6834C178.28 82.2965 178.749 82.8339 179.309 83.2647C180.442 84.0771 181.815 84.4854 183.207 84.4242C184.6 84.363 185.932 83.8357 186.99 82.9271C187.895 82.0872 188.549 81.0115 188.877 79.8209C189.205 78.6303 189.194 77.3719 188.846 76.1868ZM180.406 80.2744C180.346 80.202 180.406 80.2865 180.406 80.2744V80.2744Z" fill="black"/>
<path d="M194.261 29.3901C193.61 26.9786 192.874 24.4947 192.151 22.0591L192.512 20.2987C192.826 18.8759 190.667 18.0921 189.884 19.2617L189.751 19.4667C189.483 19.5506 189.253 19.7254 189.1 19.961L184.868 26.7857C183.891 28.3652 186.158 30.1257 187.219 28.5341L188.16 27.1233C186.035 38.2754 184.629 49.5525 183.951 60.8848C183.722 64.7553 183.541 68.6259 183.529 72.5084C183.5 72.8728 183.607 73.2353 183.83 73.525C184.052 73.8148 184.375 74.0112 184.735 74.0759C185.101 74.1144 185.468 74.0107 185.76 73.7862C186.052 73.5618 186.246 73.2338 186.303 72.8702C186.647 59.0814 187.96 45.3339 190.233 31.7293C190.438 30.5236 190.656 29.4143 190.873 28.2567C191.066 28.8958 191.271 29.5348 191.476 30.1739C192.006 31.6932 194.695 30.9697 194.261 29.3901Z" fill="black"/>
<path d="M240.767 85.0853C240.324 84.9497 239.889 84.7887 239.465 84.603C238.968 83.6456 238.239 82.8289 237.343 82.2282C236.447 81.6276 235.414 81.2624 234.34 81.1666C233.134 81.0581 232.121 82.5532 233.014 83.5781L233.219 83.7952C221.86 82.1232 210.498 80.4592 199.132 78.8033L187.822 77.1634C185.989 76.8982 185.663 79.7438 187.496 80.0211C200.647 81.9745 213.81 83.9157 226.985 85.845L237.39 87.3763C236.096 88.3685 234.552 88.9821 232.93 89.1488C232.555 89.2083 232.219 89.4121 231.994 89.7165C231.769 90.0208 231.672 90.4014 231.724 90.7766C231.789 91.1478 231.994 91.4799 232.297 91.7043C232.6 91.9287 232.978 92.0282 233.352 91.9823C234.958 91.8792 236.52 91.4107 237.917 90.6125C239.315 89.8143 240.513 88.7074 241.418 87.3763C241.559 87.1928 241.655 86.9788 241.699 86.7514C241.743 86.5241 241.732 86.2897 241.669 86.067C241.606 85.8444 241.491 85.6396 241.335 85.4692C241.178 85.2987 240.984 85.1672 240.767 85.0853Z" fill="black"/>
<path d="M137.071 151.065C136.002 154.266 134.758 157.406 133.345 160.47C131.955 163.621 130.483 166.728 128.932 169.791C122.609 182.067 115.294 193.806 107.059 204.891C98.8963 216.032 90.0942 226.775 80.8942 237.073C76.3002 242.221 71.3083 247.141 65.1227 250.336C59.2024 253.387 52.2813 254.617 45.8304 252.615C40.2124 250.713 35.4165 246.942 32.2417 241.932C28.6905 236.217 26.8727 229.595 27.0086 222.869C27.0086 215.634 28.8171 208.629 31.1443 201.84C31.2407 201.575 31.3251 201.322 31.4336 201.044C31.7592 200.068 32.109 199.091 32.4587 198.114C34.5567 192.23 36.7751 186.382 38.9335 180.522C40.2839 176.905 41.6585 173.167 43.1054 169.513C43.3345 168.971 43.5516 168.416 43.7686 167.874C43.9856 167.331 44.0702 167.126 44.2269 166.74L44.8781 165.173C47.8247 157.975 51.4588 151.078 55.73 144.578C57.5625 141.849 59.5767 139.247 61.7588 136.789C63.9048 134.237 66.3317 131.936 68.9934 129.928C73.6839 126.564 79.8453 124.84 85.1989 126.962C85.952 127.257 86.6749 127.625 87.3573 128.059C88.4304 128.722 90.6369 130.82 89.7688 131.363C89.2985 131.664 86.1514 130.868 85.5003 130.495C83.0591 129.104 80.1872 128.674 77.4459 129.289C71.4894 130.495 66.847 135.378 63.1091 139.815C59.1777 144.581 55.7701 149.755 52.9446 155.249C50.9792 158.999 49.2188 162.858 47.5669 166.764C47.3258 167.343 47.0725 167.97 46.8313 168.525C46.6987 168.838 46.578 169.152 46.4454 169.477C46.2163 170.068 45.9753 170.683 45.7342 171.25C43.1297 177.821 40.7904 184.513 38.3668 191.109C37.3057 193.99 36.1965 196.896 35.1354 199.838C34.8099 200.779 34.4722 201.719 34.1587 202.66C31.0599 211.8 28.8776 221.217 30.9877 230.863C33.3992 241.715 42.6595 251.59 54.476 250.408C67.7394 249.082 76.7826 237.422 84.8371 227.993C93.2775 218.07 101.489 207.869 108.953 197.174C116.461 186.602 123.052 175.408 128.655 163.714C130.053 160.735 131.38 157.685 132.622 154.682C133.863 151.863 134.789 148.915 135.383 145.892C135.865 143.492 135.766 141.012 135.093 138.658C134.941 138.197 134.76 137.746 134.551 137.307C134.343 136.889 134.105 136.486 133.839 136.102C132.389 134.188 130.548 132.605 128.438 131.459C125.523 129.767 122.498 128.272 119.382 126.986C117.803 126.311 116.211 125.684 114.559 125.093C113.107 124.638 111.711 124.019 110.399 123.248C107.505 121.331 107.397 117.955 106.866 114.868C106.367 111.53 105.51 108.256 104.31 105.101C103.973 104.257 103.37 103.051 102.309 103.715C101.248 104.378 101.103 106.247 101.103 107.513C101.103 111.13 101.212 114.747 101.272 118.365C101.272 121.198 101.103 124.225 103.382 126.275C105.42 127.858 107.764 129.004 110.267 129.639C112.027 130.217 110.966 132.858 109.23 132.303C106.601 131.606 104.124 130.429 101.923 128.831C100.803 127.942 99.8958 126.813 99.2701 125.527C98.6454 123.977 98.3501 122.314 98.4023 120.644C98.3299 116.761 98.2815 112.866 98.2092 108.972C98.0524 107.264 98.1953 105.542 98.6313 103.883C98.8901 103.097 99.3409 102.387 99.943 101.819C100.545 101.25 101.279 100.841 102.08 100.628C105.769 99.7838 107.084 103.956 107.904 106.657C108.901 110.168 109.666 113.74 110.194 117.352C110.236 118.072 110.442 118.772 110.798 119.399C111.153 120.027 111.648 120.564 112.244 120.969C113.67 121.698 115.159 122.295 116.694 122.754C120.15 124.069 123.527 125.583 126.81 127.287C129.735 128.643 132.419 130.468 134.756 132.689C135.313 133.275 135.817 133.908 136.263 134.582C136.798 135.386 137.231 136.253 137.553 137.163C139.193 141.612 138.494 146.568 137.071 151.065Z" fill="black"/>
<path d="M103.792 130.603C101.935 129.711 99.6926 129.868 97.884 128.879C97.0369 128.286 96.4532 127.386 96.2561 126.371C95.8226 125.045 95.4604 123.697 95.171 122.332C94.5682 119.612 94.2052 116.844 94.0859 114.06C93.91 111.328 94.0555 108.584 94.5198 105.885C94.5905 105.303 94.7814 104.742 95.0803 104.238C95.3792 103.733 95.7795 103.297 96.2561 102.955C96.9675 102.533 98.1611 102.642 98.3179 103.606C98.3722 103.98 98.573 104.318 98.876 104.544C99.179 104.77 99.5593 104.866 99.9334 104.812C100.308 104.758 100.645 104.557 100.871 104.254C101.097 103.951 101.194 103.57 101.139 103.196C100.741 99.9165 96.7989 99.0122 94.3632 100.712C91.59 102.654 91.3607 106.44 91.204 109.514C90.8922 114.794 91.446 120.089 92.8436 125.189C93.1737 126.807 93.7597 128.362 94.5799 129.795C96.4729 132.593 99.9938 132.086 102.719 133.413C104.443 134.16 105.492 131.423 103.792 130.603Z" fill="black"/>
<path d="M96.0026 128.566C90.4682 127.36 89.7809 119.968 88.768 115.471C88.4545 113.988 88.1169 112.517 87.8396 111.022C87.5083 109.671 87.4712 108.264 87.7309 106.898C87.8302 106.359 88.0485 105.848 88.3697 105.404C88.6909 104.96 89.1073 104.593 89.5882 104.33C89.9616 104.144 90.3812 104.072 90.7951 104.124C91.209 104.175 91.5984 104.347 91.9149 104.619C93.1207 105.945 95.3515 104.269 94.1457 102.895C93.3388 101.995 92.232 101.419 91.0318 101.274C89.8315 101.13 88.6198 101.428 87.6226 102.111C85.3196 103.606 84.56 106.5 84.6565 109.092C84.971 112.165 85.5396 115.206 86.3565 118.184C86.7795 120.975 87.6207 123.686 88.8522 126.226C90.2268 128.638 92.6385 131.194 95.6288 131.435C96.0093 131.485 96.3938 131.381 96.6979 131.147C97.0021 130.913 97.2012 130.568 97.2508 130.187C97.3004 129.807 97.1963 129.422 96.9623 129.118C96.7283 128.814 96.3832 128.615 96.0026 128.566Z" fill="black"/>
<path d="M152.964 76.1262C150.565 69.6558 147.616 63.4031 144.149 57.4367C143.983 57.0801 143.688 56.7997 143.323 56.652C142.959 56.5044 142.551 56.5004 142.184 56.6409C141.821 56.8001 141.535 57.0947 141.386 57.4618C141.238 57.829 141.239 58.2396 141.388 58.6063C147.055 68.6383 152.24 79.3817 153.446 90.9933C154.411 100.398 152.24 110.165 146.295 117.665C143.253 121.612 139.113 124.573 134.394 126.178C132.646 126.756 133.78 129.373 135.516 128.806C144.788 125.768 151.372 117.58 154.447 108.549C158.088 97.9023 156.665 86.556 152.964 76.1262Z" fill="black"/>
<path d="M134.816 126.576C134.45 126.538 134.084 126.641 133.792 126.866C133.5 127.09 133.306 127.418 133.249 127.782C133.092 129.675 132.947 131.568 132.803 133.461C132.784 133.826 132.905 134.184 133.141 134.463C133.377 134.741 133.71 134.919 134.073 134.961C134.435 135.002 134.8 134.904 135.093 134.686C135.386 134.468 135.584 134.146 135.648 133.787C135.781 131.882 135.926 129.989 136.07 128.095C136.092 127.731 135.974 127.371 135.742 127.089C135.509 126.808 135.178 126.624 134.816 126.576Z" fill="black"/>
<path d="M169.241 253.29C168.554 253.603 167.866 253.893 167.167 254.146C161.024 256.506 154.35 257.132 147.875 255.955C144.583 255.328 141.412 254.182 138.132 253.543C134.978 252.87 131.715 252.89 128.57 253.603C125.414 254.42 122.314 255.434 119.286 256.642C117.791 257.197 116.283 257.715 114.752 258.161C113.545 258.573 112.25 258.653 111.002 258.39C110.348 258.254 109.747 257.933 109.27 257.465C108.793 256.997 108.461 256.401 108.313 255.75C108.126 254.174 108.558 252.587 109.519 251.325C111.105 248.939 113.276 247 115.825 245.694C121.632 242.683 128.124 241.241 134.66 241.51C135.039 241.576 135.38 241.785 135.612 242.093C135.843 242.401 135.949 242.786 135.908 243.169C135.866 243.553 135.681 243.906 135.388 244.157C135.096 244.409 134.719 244.54 134.334 244.524C130.884 244.526 127.448 244.968 124.109 245.838C121.171 246.524 118.368 247.694 115.814 249.299C114.785 249.975 113.852 250.786 113.04 251.71C112.401 252.446 111.207 253.796 111.195 254.857C111.195 255.207 111.195 255.231 111.484 255.352C111.873 255.481 112.286 255.514 112.69 255.448C113.896 255.286 115.076 254.965 116.199 254.496C121.794 252.603 127.329 250.022 133.297 249.938C139.266 249.854 145.029 252.747 151.046 253.35C155.288 253.76 159.57 253.351 163.658 252.144C164.797 251.804 165.916 251.402 167.01 250.939L170.037 251.385C170.174 251.744 170.169 252.142 170.021 252.497C169.872 252.852 169.593 253.136 169.241 253.29Z" fill="black"/>
<path d="M130.319 235.855C125.804 234.659 121.019 235.02 116.735 236.88C112.451 238.74 108.919 241.989 106.71 246.104C105.383 248.6 104.564 252.772 107.397 254.605C107.678 254.815 108.026 254.914 108.376 254.883C108.725 254.851 109.051 254.692 109.29 254.436C109.542 254.172 109.693 253.827 109.715 253.463C109.737 253.099 109.629 252.739 109.411 252.446C108.971 252.033 108.665 251.497 108.531 250.909C108.398 250.32 108.444 249.705 108.663 249.142C109.08 247.937 109.687 246.805 110.46 245.79C112.582 242.832 115.545 240.579 118.964 239.325C122.383 238.072 126.1 237.875 129.632 238.761C131.199 239.159 131.898 236.313 130.319 235.855Z" fill="black"/>
<path d="M127.353 232.273C127.31 232.657 127.121 233.01 126.824 233.257C126.528 233.504 126.147 233.627 125.762 233.6C124.918 233.61 124.076 233.674 123.241 233.793C122.369 233.902 121.504 234.059 120.649 234.263C116.537 235.404 112.565 237.002 108.808 239.026C106.976 239.93 104.757 241.051 103.744 242.993C103.492 243.439 103.351 243.939 103.332 244.451C103.314 244.962 103.417 245.471 103.636 245.935C103.721 246.133 103.851 246.308 104.016 246.447C104.181 246.585 104.375 246.684 104.585 246.734C104.794 246.784 105.012 246.785 105.222 246.736C105.432 246.688 105.628 246.591 105.794 246.453C107.325 245.248 108.892 247.526 107.566 248.865C105.155 251.276 101.477 249.287 100.633 246.381C98.9811 240.666 104.998 237.47 108.989 235.529C111.818 234.091 114.757 232.881 117.779 231.912C119.045 231.52 120.333 231.206 121.637 230.971C123.102 230.707 124.587 230.57 126.075 230.561C126.846 230.585 127.413 231.538 127.353 232.273Z" fill="black"/>
<path d="M193.465 232.044C191.958 231.959 190.451 231.875 188.943 231.827C187.738 231.827 186.532 231.754 185.399 231.73C183.578 231.73 181.781 231.73 179.948 231.73C175.929 231.787 171.91 231.98 167.891 232.309C163.972 232.611 160.077 233.117 156.146 233.322C147.236 233.804 136.348 232.647 128.414 228.185C126.571 227.117 124.662 226.167 122.699 225.34C119.233 223.849 115.485 223.125 111.714 223.218C109.827 223.317 107.971 223.724 106.216 224.423C105.167 224.833 102.526 225.798 102.828 227.426C103.081 228.716 105.541 228.065 106.324 227.956C108.464 227.611 110.635 227.494 112.799 227.607C116.051 227.757 119.158 228.992 121.625 231.115C122.114 231.543 122.566 232.011 122.976 232.514C123.142 232.697 123.253 232.923 123.298 233.165C123.343 233.408 123.319 233.659 123.229 233.889C122.349 234.009 121.493 234.178 120.637 234.371C119.842 233.418 118.866 232.632 117.767 232.056C114.716 230.464 110.918 230.476 107.59 230.91C105.793 231.14 103.732 231.682 102.008 230.802C101.082 230.295 100.385 229.453 100.06 228.448C99.7349 227.444 99.8059 226.354 100.259 225.4C101.139 223.374 103.177 222.301 105.082 221.554C106.983 220.809 108.989 220.361 111.027 220.227C115.296 220.027 119.558 220.773 123.506 222.41C125.484 223.214 127.401 224.156 129.246 225.231C134.31 228.089 140.628 229.331 146.355 230.054C154.253 231.019 162.031 229.693 169.928 229.162C174.462 228.861 178.984 228.728 183.517 228.764C184.723 228.764 185.845 228.764 187.002 228.764C189.281 228.764 191.548 228.921 193.815 229.054C195.672 229.102 195.322 232.14 193.465 232.044Z" fill="black"/>
<path d="M165.117 191.145C165.067 192.41 164.939 193.67 164.731 194.919C164.528 196.228 164.234 197.521 163.851 198.789C162.923 201.999 161.451 205.025 159.498 207.736C156.785 211.499 153.198 214.544 149.045 216.611C147.971 217.141 146.801 217.515 145.752 218.082C144.76 218.67 144.012 219.594 143.642 220.686C142.436 223.411 141.34 226.16 140.182 228.897C140.041 229.21 139.797 229.464 139.49 229.618C139.184 229.772 138.834 229.816 138.499 229.742C138.164 229.669 137.865 229.482 137.651 229.214C137.437 228.947 137.322 228.613 137.324 228.27C137.343 228.121 137.384 227.974 137.445 227.836C138.723 224.798 139.856 221.614 141.34 218.672C141.965 217.389 142.96 216.322 144.197 215.61C145.403 214.935 146.681 214.513 147.899 213.91C151.425 212.093 154.495 209.504 156.879 206.334C159.264 203.165 160.901 199.497 161.669 195.606C161.837 194.774 161.982 193.942 162.067 193.11C162.139 192.592 162.175 192.073 162.211 191.567C162.211 191.482 162.211 191.422 162.211 191.338C162.211 190.747 162.211 190.132 162.211 189.577C162.105 185 161.084 180.491 159.209 176.314C158.697 175.245 158.432 174.075 158.432 172.889C158.432 171.704 158.697 170.534 159.209 169.465C160.113 167.572 161.62 165.848 161.922 163.689C161.965 163.31 162.157 162.964 162.455 162.727C162.754 162.489 163.135 162.38 163.514 162.423C163.893 162.466 164.239 162.658 164.476 162.957C164.714 163.255 164.823 163.636 164.78 164.015C164.442 166.607 162.754 168.524 161.753 170.852C161.495 171.37 161.343 171.934 161.304 172.511C161.264 173.088 161.339 173.667 161.524 174.216C161.982 175.602 162.73 176.905 163.176 178.291C164.245 181.331 164.886 184.504 165.081 187.72C165.155 188.86 165.166 190.003 165.117 191.145Z" fill="black"/>
<path d="M223.006 241.064C222.198 247.467 218.894 253.713 212.673 256.269C209.292 257.53 205.69 258.088 202.086 257.909C198.167 257.848 194.225 257.39 190.318 257.016C182.577 256.257 174.848 255.364 167.167 254.147C166.432 254.05 165.696 253.929 164.973 253.809C164.569 253.752 164.202 253.54 163.95 253.219C163.698 252.897 163.581 252.491 163.622 252.085C164.761 251.744 165.88 251.342 166.974 250.879L170.001 251.325L171.303 251.506C179.346 252.627 187.424 253.435 195.539 253.797C201.736 254.074 209.417 254.906 214.542 250.65C218.798 247.129 219.883 240.799 219.787 235.469C219.654 228.391 217.556 221.241 215.156 214.633C212.516 207.399 209.224 200.442 205.884 193.508C202.363 186.274 198.746 179.067 195.032 171.889C194.538 170.924 194.104 170.104 193.67 169.272C191.982 166.057 190.27 162.842 188.534 159.626C187.931 158.517 187.328 157.396 186.725 156.298C185.784 154.586 184.84 152.886 183.891 151.198C180.817 145.772 177.38 140.25 172.521 136.246C170.115 134.23 167.326 132.72 164.322 131.809C160.881 130.855 157.28 130.629 153.747 131.146C148.017 132.071 142.526 134.12 137.59 137.175C136.734 137.669 135.89 138.188 135.058 138.706C134.905 138.245 134.724 137.794 134.515 137.356C134.307 136.937 134.069 136.534 133.804 136.15C134.608 135.627 135.439 135.121 136.299 134.631L136.649 134.426C143.305 130.555 150.696 127.758 158.498 127.951C162.008 128.078 165.459 128.895 168.653 130.355C171.848 131.816 174.723 133.892 177.115 136.463C181.878 141.287 185.217 147.315 188.473 153.248C189.004 154.188 189.522 155.141 190.053 156.093L191.825 159.349C193.308 162.098 194.779 164.871 196.238 167.645C196.708 168.501 197.167 169.381 197.613 170.249C198.521 171.985 199.421 173.726 200.313 175.47C204.124 182.906 207.826 190.402 211.419 197.958C214.97 205.046 217.965 212.399 220.378 219.951C222.367 226.703 223.899 234.01 223.006 241.064Z" fill="black"/>
<path d="M188.944 231.803C187.738 231.803 186.532 231.73 185.399 231.706C184.868 230.85 184.337 229.982 183.795 229.126L183.493 228.644C177.175 218.539 170.628 208.588 163.851 198.789C163.14 197.716 162.404 196.655 161.669 195.606C161.945 194.274 162.127 192.924 162.212 191.566C162.212 191.482 162.212 191.422 162.212 191.337L164.708 194.954L165.431 195.979C170.431 203.214 175.322 210.533 180.105 217.936C182.404 221.522 184.687 225.139 186.954 228.788L187.171 229.15C187.762 229.97 188.353 230.838 188.944 231.803Z" fill="black"/>
<path d="M145.15 133.039C145.085 132.668 144.88 132.336 144.577 132.111C144.274 131.887 143.897 131.787 143.522 131.833C143.15 131.896 142.816 132.1 142.591 132.404C142.366 132.707 142.268 133.086 142.317 133.461C143.667 139.068 144.571 145.29 142.051 150.715C140.921 152.926 139.344 154.878 137.42 156.448C135.496 158.017 133.267 159.169 130.874 159.831C130.53 159.977 130.259 160.253 130.119 160.599C129.979 160.945 129.981 161.332 130.126 161.676C130.28 162.016 130.558 162.284 130.903 162.426C131.248 162.567 131.635 162.57 131.983 162.436C134.691 161.651 137.21 160.32 139.383 158.524C141.556 156.728 143.338 154.505 144.619 151.994C147.465 146.085 146.645 139.2 145.15 133.039Z" fill="black"/>
<path d="M197.613 170.249L195.032 171.913C185.057 178.343 175.085 184.774 165.117 191.205L162.067 193.17C162.139 192.652 162.176 192.133 162.212 191.627C162.212 191.543 162.212 191.482 162.212 191.398C162.212 190.807 162.212 190.192 162.212 189.638L165.057 187.817L169.145 185.176C177.312 179.919 185.471 174.646 193.622 169.356L196.19 167.705C196.708 168.5 197.167 169.344 197.613 170.249Z" fill="black"/>
<path d="M111.473 144.083C110.99 150.703 103.261 157.48 99.5233 162.17C93.4462 169.694 87.3653 177.222 81.2802 184.754L79.3146 187.166L76.9755 190.059C73.2135 194.714 69.4557 199.372 65.7018 204.034C64.0981 206.024 62.5185 208.23 60.1914 209.424C59.1732 209.98 58.0141 210.224 56.8584 210.125C55.7027 210.026 54.6013 209.59 53.6921 208.869C52.2452 207.579 54.0538 205.132 55.5008 206.458C57.3094 208.098 59.6849 206.458 61.0233 205.035C63.0731 202.804 64.8817 200.333 66.7869 197.993L76.5655 185.936L78.5189 183.524C88.3821 171.298 98.2615 159.083 108.157 146.881C108.123 146.718 108.123 146.55 108.157 146.386C108.355 145.565 108.456 144.723 108.458 143.878C108.449 143.434 108.408 142.991 108.338 142.552L108.229 141.937C108.229 141.853 108.133 141.515 108.133 141.515C107.905 140.669 107.564 139.858 107.12 139.104L106.83 138.657C106.83 138.573 106.71 138.489 106.65 138.404C102.695 137.199 98.7877 135.993 94.8569 134.691C93.1301 134.25 91.4472 133.652 89.8289 132.906C88.7677 132.35 87.8479 131.558 87.1401 130.591C86.8485 130.21 86.5866 129.806 86.3564 129.385C85.9224 128.613 85.5124 127.842 85.1507 127.058C83.8243 124.466 82.6307 121.777 81.3526 119.172C79.8936 116.194 77.7352 112.492 79.1701 109.116C80.3759 106.343 83.4986 104.739 86.2237 106.271C87.6224 107.066 86.2238 109.49 84.8613 108.742C84.4174 108.523 83.9071 108.478 83.4315 108.616C82.9559 108.754 82.5495 109.066 82.2929 109.49C81.9248 110.061 81.7017 110.713 81.6429 111.389C81.584 112.066 81.6915 112.747 81.9555 113.372C82.4859 114.869 83.1349 116.32 83.8966 117.713L86.0671 122.126C86.8267 123.646 87.5623 125.165 88.3099 126.684C88.7859 127.916 89.5557 129.013 90.5525 129.879C91.7219 130.583 92.9957 131.096 94.3264 131.399L99.1495 132.906C104.744 134.666 111.014 135.908 111.557 142.878C111.555 143.281 111.527 143.684 111.473 144.083Z" fill="black"/>
<path d="M81.2801 184.694L79.3145 187.106L76.5654 185.803L75.5406 185.309C65.5507 180.543 55.8188 175.255 46.3853 169.465C45.5051 168.935 44.6367 168.392 43.7686 167.837C43.9253 167.464 44.0701 167.09 44.2269 166.704L44.8781 165.136L47.5065 166.752C49.4599 167.958 51.4252 169.164 53.4147 170.273C58.7442 173.376 64.154 176.322 69.6443 179.111C72.5743 180.594 75.5406 182.005 78.5188 183.38L81.2801 184.694Z" fill="black"/>
<path d="M143.437 89.4625C140.277 87.4618 137.561 84.8323 135.46 81.7374C133.359 78.6425 131.917 75.1484 131.223 71.4725C130.789 69.0609 130.367 66.1189 131.163 63.7676C131.344 63.2196 131.638 62.7162 132.028 62.2908C132.418 61.8653 132.893 61.5274 133.423 61.2994C133.953 61.0714 134.526 60.9586 135.102 60.9684C135.679 60.9781 136.248 61.1103 136.77 61.3561C138.446 62.1278 139.446 59.4992 137.807 58.6913C136.554 58.1043 135.154 57.9054 133.788 58.1203C132.421 58.3352 131.15 58.954 130.138 59.8971C127.727 62.2122 127.726 65.721 127.907 68.8319C128.375 74.7675 130.591 80.4316 134.274 85.1097C135.842 87.1087 137.666 88.8925 139.7 90.4151L136.902 91.8258C135.214 92.6699 136.36 95.3829 138.048 94.5268L143.124 91.9464C143.353 91.8424 143.55 91.6818 143.699 91.4797C143.848 91.2776 143.942 91.0409 143.974 90.7919C144.005 90.543 143.972 90.2902 143.878 90.0575C143.785 89.8248 143.633 89.62 143.437 89.4625Z" fill="black"/>
<path d="M137.155 102.231C136.917 101.942 136.577 101.754 136.205 101.707C135.833 101.66 135.457 101.757 135.154 101.978C133.7 102.859 132.031 103.325 130.331 103.325C128.63 103.325 126.962 102.859 125.508 101.978C125.201 101.765 124.825 101.676 124.456 101.73C124.086 101.784 123.751 101.976 123.518 102.267C123.298 102.561 123.198 102.928 123.238 103.293C123.279 103.658 123.456 103.994 123.735 104.233C125.684 105.522 127.97 106.209 130.307 106.209C132.644 106.209 134.929 105.522 136.878 104.233C137.176 104.001 137.372 103.662 137.424 103.288C137.475 102.915 137.379 102.535 137.155 102.231Z" fill="black"/>
<path d="M135.793 70.2782C135.483 70.0652 135.106 69.971 134.732 70.0129C134.472 70.0521 134.227 70.1626 134.026 70.3323C133.825 70.502 133.675 70.7241 133.593 70.974C133.51 71.2239 133.499 71.4917 133.559 71.7478C133.62 72.0039 133.75 72.2381 133.936 72.4244C133.93 72.4805 133.93 72.5371 133.936 72.5933C134.229 74.1368 134.923 75.5758 135.95 76.7652C136.126 76.9856 136.364 77.149 136.633 77.235C136.902 77.3209 137.19 77.3255 137.462 77.2483C137.734 77.171 137.976 77.0153 138.16 76.8007C138.343 76.5861 138.46 76.3221 138.494 76.0417C138.626 74.9247 138.443 73.793 137.966 72.7745C137.489 71.756 136.736 70.8913 135.793 70.2782Z" fill="black"/>
<path d="M112.739 80.5389C112.43 80.3217 112.053 80.2232 111.678 80.2615C111.303 80.3231 110.967 80.526 110.738 80.8282C110.619 81.007 110.536 81.2079 110.496 81.4191C110.317 81.6886 110.248 82.0166 110.303 82.3355C110.711 84.4789 111.808 86.4306 113.427 87.8941C113.626 88.0487 113.863 88.147 114.113 88.1788C114.363 88.2106 114.617 88.1747 114.849 88.0749C115.088 87.9691 115.294 87.8016 115.447 87.5897C115.599 87.3778 115.693 87.1291 115.717 86.8692C115.878 85.6397 115.682 84.39 115.155 83.2681C114.627 82.1462 113.788 81.1991 112.739 80.5389Z" fill="black"/>
<path d="M114.813 68.0601C111.178 67.4006 107.427 67.9031 104.094 69.4961C100.761 71.0892 98.0143 73.6918 96.2442 76.9345C96.1092 77.2882 96.1179 77.6807 96.2689 78.0278C96.42 78.375 96.7012 78.6491 97.052 78.7914C97.4061 78.9202 97.7957 78.9082 98.1412 78.7578C98.4867 78.6075 98.7617 78.3304 98.9089 77.9836C100.461 75.3489 102.79 73.259 105.577 72.0005C108.364 70.7419 111.472 70.3763 114.475 70.9539C114.847 70.9765 115.214 70.8557 115.5 70.6163C115.786 70.3769 115.97 70.0371 116.013 69.6667C116.056 69.2962 115.956 68.9233 115.733 68.6245C115.509 68.3257 115.18 68.1238 114.813 68.0601Z" fill="black"/>
<path d="M89.2988 92.9593C87.5705 91.8395 85.5316 91.2969 83.4754 91.4096C81.4192 91.5223 79.4516 92.2844 77.8561 93.5863C76.3073 94.9283 75.2575 96.7541 74.8767 98.7677C74.4958 100.781 74.8063 102.864 75.758 104.679C76.7726 106.811 78.5624 108.476 80.7621 109.334C81.1214 109.459 81.515 109.44 81.8608 109.281C82.2065 109.122 82.4772 108.836 82.6161 108.482C82.755 108.127 82.7511 107.733 82.6055 107.382C82.4599 107.03 82.1838 106.749 81.8351 106.597C80.5409 106.057 79.4457 105.13 78.7006 103.942C77.9556 102.754 77.5974 101.365 77.6753 99.9648C77.7728 98.5618 78.3575 97.2371 79.3285 96.2198C80.2996 95.2025 81.5957 94.5567 82.9926 94.3941C84.5771 94.0819 86.221 94.3882 87.5867 95.2502C89.118 96.2631 90.8301 93.9962 89.2988 92.9593Z" fill="black"/>
<path d="M90.6729 101.423C90.2991 101.314 89.9251 101.242 89.5513 101.158L89.1898 101.073L88.9002 101.001C88.2852 100.844 87.6947 100.663 87.0918 100.47C85.9129 100.088 84.7572 99.6375 83.6311 99.12C83.2759 98.9856 82.8823 98.9963 82.5349 99.1496C82.1875 99.303 81.9142 99.5869 81.7742 99.9399C81.649 100.292 81.663 100.679 81.8131 101.022C81.9631 101.365 82.2383 101.638 82.5823 101.785C83.788 102.303 84.9093 102.761 86.103 103.159C87.3686 103.598 88.6665 103.937 89.9853 104.172C90.3302 104.208 90.6771 104.118 90.9608 103.919C91.2446 103.719 91.4463 103.424 91.529 103.087C91.6142 102.753 91.5742 102.399 91.4165 102.093C91.2588 101.786 90.9943 101.548 90.6729 101.423Z" fill="black"/>
<path d="M111.484 43.8356C111.34 41.9666 108.458 42.3886 108.615 44.2455C109.6 58.4938 105.26 72.6005 96.4365 83.8309C93.9816 86.9588 91.2009 89.8165 88.141 92.3557C86.7423 93.5615 88.4544 95.7439 89.8772 94.5984C101.477 84.9982 109.058 71.399 111.123 56.4841C111.708 52.294 111.829 48.0522 111.484 43.8356Z" fill="black"/>
<path d="M149.671 66.5043C145.331 54.7963 133.647 47.7666 122.204 44.4749C118.498 43.4287 114.734 42.6034 110.93 42.0031C109.085 41.7016 108.784 44.5593 110.605 44.8728C122.18 46.9467 134.419 50.4917 142.268 59.8484C144.226 62.1887 145.797 64.8263 146.922 67.6618C147.634 69.4584 150.335 68.3009 149.671 66.5043Z" fill="black"/>
<path d="M161.271 65.5271C159.071 55.8165 154.158 46.9306 147.103 39.9045C143.422 36.1414 139.155 33.0016 134.467 30.608C129.222 28.0277 123.53 27.3042 117.755 27.0992C106.204 26.7134 94.2785 26.9907 83.306 31.0542C74.3713 34.37 66.2082 40.435 61.6022 48.9116C61.0382 49.9571 60.5389 51.0363 60.107 52.143C59.9695 52.4948 59.9773 52.8868 60.1288 53.2328C60.2803 53.5788 60.5631 53.8504 60.9148 53.9879C61.2666 54.1254 61.6586 54.1175 62.0046 53.966C62.3506 53.8145 62.6222 53.5318 62.7597 53.18C66.1117 44.9085 73.2499 38.7108 81.2442 35.0935C91.0712 30.608 102.14 29.8122 112.799 29.9569C118.225 30.0293 123.892 30.0172 129.101 31.6812C133.882 33.3458 138.284 35.9444 142.051 39.3258C149.074 45.3651 154.301 53.2197 157.16 62.0304C158.582 66.37 159.306 70.9079 159.306 75.4747C159.306 79.936 158.582 84.7229 156.05 88.509C155.465 89.4065 154.781 90.2357 154.012 90.9809C153.701 91.234 153.501 91.5972 153.452 91.9948C153.402 92.3923 153.508 92.7936 153.747 93.1151C153.995 93.4293 154.355 93.6342 154.751 93.686C155.148 93.7379 155.549 93.6325 155.869 93.3924C163.272 86.4954 163.296 74.6909 161.271 65.5271Z" fill="black"/>
<path d="M61.6505 54.4952C52.969 60.4155 47.4707 69.7361 44.191 79.5269C40.8028 89.6675 39.8262 100.278 37.9211 110.744C37.1202 115.731 35.6816 120.594 33.6406 125.214C31.6969 129.389 29.163 133.263 26.1166 136.717C23.0851 140.095 19.6136 143.052 15.7952 145.507C13.7561 146.644 12.1181 148.383 11.1049 150.486C10.1523 152.73 9.64845 155.139 9.62179 157.576C9.56666 161.993 11.0014 166.298 13.6945 169.799C16.3876 173.299 20.1818 175.79 24.4646 176.869C25.1639 177.037 25.9719 177.664 25.7669 178.508C25.0693 181.576 25.1024 184.765 25.8634 187.817C26.8704 191.904 29.1866 195.55 32.4589 198.199C33.2734 198.864 34.1495 199.449 35.0754 199.947C34.7498 200.888 34.4121 201.828 34.0986 202.769C33.1704 202.29 32.2797 201.741 31.4339 201.129C29.5004 199.757 27.8197 198.059 26.4663 196.113C23.0657 191.255 21.6706 185.273 22.5717 179.413C21.979 179.247 21.3951 179.049 20.8231 178.822C16.3538 177.029 12.5732 173.857 10.0316 169.767C7.48989 165.677 6.31976 160.882 6.69157 156.081C6.85757 153.576 7.48724 151.122 8.54849 148.847C9.74147 146.508 11.5728 144.556 13.8299 143.216C17.7632 140.739 21.3135 137.7 24.3683 134.196C27.3837 130.647 29.8248 126.648 31.6029 122.344C33.5156 117.356 34.831 112.159 35.5216 106.862C37.2338 96.0098 38.6687 84.9649 42.7562 74.6797C46.2771 65.8776 51.8355 57.6302 59.7815 52.2766C61.4093 51.1793 63.1818 53.4582 61.6505 54.4952Z" fill="black"/>
<path d="M32.9049 199.887C32.9049 199.887 27.3101 197.753 25.6703 190.241C24.8058 186.462 24.1855 182.632 23.8133 178.774C23.8133 178.774 1.83231 172.66 9.13925 151.572C13.6729 138.513 22.475 149.98 32.3382 121.427C42.2014 92.8747 37.6799 81.432 44.8783 71.8341C49.8656 65.3236 55.2072 59.0924 60.8789 53.1687C60.8789 53.1687 64.3395 38.7719 86.2 32.104C108.061 25.4361 124.326 26.2319 138.723 35.034C153.12 43.8361 158.992 59.294 160.331 69.6998C161.669 80.1056 159.92 81.444 158.461 85.7004C157.002 89.9568 154.989 91.0299 154.989 91.0299C154.989 91.0299 150.166 70.2304 145.343 62.5014C140.52 54.7724 137.349 51.2998 126.943 47.5619C116.537 43.824 110.508 44.8128 110.508 44.8128C110.508 44.8128 110.412 62.2361 104.54 73.9683C100.53 81.5827 95.2259 88.4413 88.8647 94.2372C88.8647 94.2372 81.6299 91.2952 78.4588 95.033C75.2876 98.7709 73.6357 100.628 76.0472 103.57C77.3963 105.257 79.0283 106.697 80.8703 107.826C80.8703 107.826 77.675 105.704 80.8703 112.649C84.0656 119.595 87.2247 128.011 87.2247 128.011C87.2247 128.011 78.4709 125.443 70.742 130.242C63.013 135.04 51.0036 152.645 45.4209 167.307C39.8382 181.969 32.9049 199.887 32.9049 199.887Z" fill="black"/>
<path d="M35.5574 115.205C34.6257 121.2 31.7986 126.74 27.4906 131.012C25.3528 133.142 22.8857 134.913 20.1839 136.258C17.3502 137.466 14.4517 138.516 11.5022 139.405C8.5301 140.31 5.82891 141.938 3.64054 144.143C1.44236 146.809 0.19509 150.131 0.0956571 153.584C-0.410765 160.276 1.06035 167.547 5.30465 172.877C9.76599 178.484 17.6758 181.498 24.5366 178.773C24.7234 178.694 24.8929 178.579 25.0352 178.434C25.1776 178.289 25.29 178.118 25.3661 177.93C25.4423 177.742 25.4805 177.541 25.4789 177.338C25.4772 177.135 25.4356 176.934 25.3564 176.747C25.2772 176.56 25.1622 176.391 25.0176 176.249C24.8729 176.106 24.7017 175.994 24.5136 175.918C24.3255 175.842 24.1242 175.803 23.9213 175.805C23.7184 175.807 23.5177 175.848 23.3308 175.927C17.9772 178.049 11.7074 175.674 8.11418 171.418C4.05075 166.595 2.66402 159.806 3.19456 153.633C3.25788 150.623 4.445 147.745 6.52249 145.566C8.73094 143.773 11.2957 142.47 14.0465 141.744C16.8763 140.916 19.6313 139.851 22.2819 138.561C26.5831 136.247 30.2817 132.958 33.0814 128.956C35.8812 124.954 37.7038 120.352 38.4029 115.518C38.4176 115.155 38.2939 114.8 38.057 114.525C37.8201 114.249 37.4876 114.074 37.1265 114.034C36.7653 113.994 36.4024 114.093 36.1112 114.31C35.82 114.528 35.6222 114.847 35.5574 115.205Z" fill="black"/>
<path d="M32.0969 200.694C31.8022 200.589 31.482 200.579 31.1814 200.666C30.8807 200.752 30.6148 200.931 30.421 201.177L29.9264 201.032C29.3617 200.853 28.8099 200.635 28.2747 200.381C27.2469 199.881 26.2965 199.235 25.4531 198.464C23.789 196.948 22.5432 195.03 21.8358 192.893C20.0271 187.648 21.4499 181.703 24.4522 177.218C24.6825 176.909 24.7808 176.522 24.7254 176.141C24.67 175.76 24.4655 175.416 24.157 175.186C23.8484 174.956 23.4608 174.858 23.0798 174.913C22.6988 174.968 22.3554 175.173 22.1252 175.482C20.382 177.813 19.1501 180.487 18.5102 183.327C17.8703 186.167 17.8366 189.11 18.4113 191.964C18.9328 194.474 20.0432 196.823 21.6512 198.819C23.2592 200.815 25.3188 202.4 27.6597 203.443C28.9172 204.088 30.3245 204.384 31.7351 204.299C33.387 203.962 33.9417 201.261 32.0969 200.694Z" fill="black"/>
<path d="M63.3382 55.8819L63.0126 55.6287C62.9461 55.5661 62.8857 55.4975 62.8319 55.4237C62.8489 55.3077 62.8489 55.19 62.8319 55.074C62.8244 54.7704 62.7248 54.4761 62.546 54.2306C62.3673 53.985 62.1177 53.7998 61.831 53.6994C61.626 53.2051 61.4331 52.6986 61.2523 52.1922L59.1663 46.5492C59.0871 46.3687 58.9732 46.2056 58.831 46.0691C58.6888 45.9326 58.521 45.8255 58.3373 45.7538C58.1537 45.6822 57.958 45.6474 57.7609 45.6514C57.5639 45.6555 57.3695 45.6983 57.189 45.7775C57.0085 45.8567 56.8453 45.9707 56.7088 46.1129C56.5724 46.2551 56.4652 46.4228 56.3936 46.6064C56.3219 46.7901 56.2871 46.986 56.2911 47.183C56.2952 47.3801 56.3379 47.5745 56.4171 47.755C56.7306 48.6834 57.02 49.5998 57.3094 50.5282C56.3246 49.9845 55.3055 49.5052 54.2587 49.0934C53.1374 48.6593 51.763 49.8892 52.3538 51.0588C53.0768 52.4964 54.1361 53.7382 55.4418 54.6786C56.7476 55.6191 58.2611 56.2304 59.8537 56.4606C60.2713 57.1855 60.8588 57.7979 61.5658 58.2452C61.7178 58.3592 61.891 58.4421 62.075 58.4893C62.2591 58.5365 62.4504 58.5469 62.6385 58.52C62.8266 58.4932 63.0078 58.4295 63.1713 58.3327C63.3348 58.2358 63.4777 58.1078 63.5917 57.9558C63.7057 57.8038 63.7885 57.6308 63.8357 57.4467C63.8829 57.2627 63.8932 57.0711 63.8663 56.883C63.8394 56.6949 63.7759 56.5139 63.6791 56.3504C63.5823 56.1869 63.454 56.0441 63.302 55.9301L63.3382 55.8819Z" fill="black"/>
</svg>
