<svg width="128" height="128" viewBox="0 0 128 128" fill="none" xmlns="http://www.w3.org/2000/svg">
<rect width="128" height="128" fill="white"/>
<path d="M117.938 111.04C117.352 111.627 116.657 112.092 115.891 112.41C115.125 112.727 114.304 112.891 113.475 112.891C112.646 112.891 111.825 112.727 111.06 112.41C110.294 112.092 109.598 111.627 109.013 111.04L88.8673 90.8947L97.7928 81.9692L117.938 102.114C118.525 102.7 118.99 103.396 119.308 104.162C119.625 104.927 119.789 105.748 119.789 106.577C119.789 107.406 119.625 108.227 119.308 108.993C118.99 109.759 118.525 110.454 117.938 111.04Z" fill="black"/>
<path d="M90.2668 77.2979L84.1923 83.3724L90.2948 89.4748L96.3693 83.4003L90.2668 77.2979Z" fill="white"/>
<path d="M90.294 89.8904C90.2383 89.8909 90.1831 89.8803 90.1315 89.8591C90.08 89.838 90.0331 89.8068 89.9938 89.7673L83.894 83.6677C83.8545 83.6283 83.8232 83.5815 83.8017 83.5299C83.7803 83.4784 83.7693 83.4231 83.7693 83.3673C83.7693 83.3115 83.7803 83.2562 83.8017 83.2047C83.8232 83.1531 83.8545 83.1064 83.894 83.0671L89.9642 76.9969C90.0036 76.9573 90.0504 76.9259 90.102 76.9044C90.1535 76.883 90.2087 76.8719 90.2645 76.8719C90.3203 76.8719 90.3757 76.883 90.4272 76.9044C90.4788 76.9259 90.5256 76.9573 90.565 76.9969L96.6645 83.0965C96.7429 83.1758 96.7871 83.2828 96.7871 83.3943C96.7871 83.5059 96.7429 83.613 96.6645 83.6923L90.5895 89.7673C90.5511 89.8066 90.5051 89.8379 90.4544 89.859C90.4036 89.8801 90.349 89.8908 90.294 89.8904ZM84.7902 83.3673L90.294 88.8713L95.7686 83.3969L90.2645 77.8929L84.7902 83.3673Z" fill="black"/>
<path d="M33.871 27.1852C28.3806 32.6762 24.6418 39.6719 23.1272 47.2877C21.6127 54.9036 22.3903 62.7977 25.3621 69.9715C28.3338 77.1454 33.3662 83.2768 39.8227 87.5908C46.2791 91.9047 53.8697 94.2072 61.6347 94.2072C69.3997 94.2072 76.9903 91.9047 83.4467 87.5908C89.9031 83.2768 94.9355 77.1454 97.9073 69.9715C100.879 62.7977 101.657 54.9036 100.142 47.2877C98.6276 39.6719 94.8888 32.6762 89.3984 27.1852C85.7526 23.539 81.4241 20.6466 76.6604 18.6732C71.8967 16.6998 66.791 15.6841 61.6347 15.6841C56.4784 15.6841 51.3727 16.6998 46.609 18.6732C41.8452 20.6466 37.5168 23.539 33.871 27.1852ZM85.7455 79.0547C80.9771 83.8239 74.9015 87.072 68.2871 88.3881C61.6727 89.7042 54.8167 89.0293 48.5859 86.4487C42.3551 83.8681 37.0294 79.4978 33.2825 73.8904C29.5356 68.283 27.5359 61.6904 27.5359 54.9464C27.5359 48.2024 29.5356 41.6098 33.2825 36.0024C37.0294 30.395 42.3551 26.0247 48.5859 23.4441C54.8167 20.8636 61.6727 20.1887 68.2871 21.5048C74.9015 22.8209 80.9771 26.0689 85.7455 30.8381C92.1387 37.2324 95.7301 45.9043 95.7301 54.9464C95.7301 63.9885 92.1387 72.6604 85.7455 79.0547Z" fill="white"/>
<path d="M61.6372 94.592C52.4608 94.5855 43.5705 91.3976 36.481 85.5713C29.3915 79.745 24.5415 71.641 22.7572 62.6397C20.9728 53.6385 22.3646 44.2969 26.6954 36.2068C31.0262 28.1166 38.0281 21.7784 46.5081 18.2718C54.9881 14.7652 64.4217 14.3073 73.2014 16.9761C81.9811 19.645 89.5639 25.2754 94.6579 32.9081C99.7518 40.5408 102.042 49.7036 101.137 58.8354C100.233 67.9671 96.1907 76.5028 89.6988 82.9883C86.0161 86.6752 81.6413 89.5984 76.8257 91.5897C72.01 93.581 66.8484 94.6013 61.6372 94.592ZM61.6372 16.1034C52.6554 16.1085 43.9533 19.2278 37.0134 24.9297C30.0736 30.6317 25.3253 38.5635 23.5779 47.3737C21.8304 56.184 23.1919 65.3276 27.4303 73.2466C31.6686 81.1656 38.5216 87.37 46.8216 90.8028C55.1216 94.2356 64.355 94.6843 72.9488 92.0725C81.5425 89.4607 88.9647 83.95 93.9509 76.4792C98.9371 69.0085 101.179 60.0401 100.294 51.102C99.4091 42.1638 95.4526 33.8089 89.0983 27.4609C85.4928 23.8562 81.211 20.9991 76.4985 19.0534C71.786 17.1078 66.7356 16.112 61.6372 16.1231V16.1034ZM61.6372 89.4277C53.6556 89.4218 45.923 86.6486 39.7567 81.5807C33.5904 76.5128 29.3719 69.4636 27.8202 61.6343C26.2684 53.8049 27.4792 45.6798 31.2464 38.6431C35.0135 31.6064 41.104 26.0935 48.48 23.0437C55.856 19.9939 64.0612 19.5959 71.6978 21.9175C79.3344 24.239 85.9298 29.1366 90.3603 35.7756C94.7908 42.4147 96.7826 50.3845 95.9959 58.3273C95.2092 66.2701 91.6927 73.6945 86.0459 79.3354C82.8445 82.5462 79.0398 85.0925 74.8509 86.8279C70.662 88.5633 66.1714 89.4536 61.6372 89.4474V89.4277ZM61.6372 21.2677C53.8501 21.2723 46.3056 23.9768 40.2889 28.9204C34.2723 33.8639 30.1559 40.7407 28.6411 48.379C27.1262 56.0174 28.3068 63.9447 31.9815 70.8103C35.6561 77.6758 41.5975 83.0548 48.7935 86.0308C55.9895 89.0068 63.9948 89.3957 71.4454 87.1312C78.896 84.8666 85.3308 80.0888 89.6536 73.6117C93.9764 67.1346 95.9197 59.3591 95.1524 51.6099C94.385 43.8607 90.9546 36.6173 85.4454 31.1139C82.3191 27.9895 78.6067 25.5131 74.5211 23.8268C70.4356 22.1406 66.0571 21.2777 61.6372 21.2874V21.2677Z" fill="black"/>
<path d="M61.6534 88.8369C67.1972 88.8373 72.6559 87.4748 77.5493 84.8693C82.4427 82.2638 86.6206 78.4952 89.7149 73.8953L88.238 72.2215C86.943 70.7478 85.2688 69.6571 83.3976 69.0678C81.5264 68.4785 79.5296 68.413 77.6238 68.8787L54.6329 74.4959C52.5137 75.0141 50.6026 76.1656 49.1541 77.7971C47.7056 79.4285 46.7884 81.4625 46.5248 83.6282L46.3327 85.1789C51.079 87.5912 56.3293 88.8448 61.6534 88.8369Z" fill="black"/>
<path d="M68.7472 70.7839L63.0611 79.7588C62.723 80.2857 62.2416 80.7051 61.6734 80.9679C61.1051 81.2306 60.4736 81.3257 59.8532 81.2419C59.2327 81.1582 58.6492 80.8991 58.1709 80.4951C57.6927 80.091 57.3396 79.5589 57.1534 78.9612L50.7289 57.8854L63.3861 53.8683L68.7472 70.7839Z" fill="white"/>
<path d="M60.3125 81.7132C60.1478 81.7131 59.9833 81.7015 59.8202 81.6787C59.1142 81.5885 58.4496 81.2954 57.907 80.8348C57.3643 80.3743 56.9669 79.7662 56.763 79.0842L50.3385 58.0085C50.3073 57.9021 50.3185 57.7878 50.37 57.6895C50.4214 57.5913 50.509 57.5169 50.6142 57.4818L63.2714 53.4695C63.3772 53.4354 63.492 53.4442 63.5913 53.4941C63.6887 53.5474 63.7624 53.6352 63.7981 53.7403L69.1642 70.6559C69.1841 70.7136 69.1904 70.7752 69.1827 70.8358C69.175 70.8964 69.1536 70.9545 69.12 71.0055L63.4534 79.9803C63.122 80.5139 62.6594 80.9535 62.1094 81.257C61.5594 81.5604 60.9406 81.7175 60.3125 81.7132ZM51.2442 58.1612L57.5457 78.8381C57.7065 79.363 58.0147 79.8308 58.4334 80.1859C58.8521 80.5411 59.3638 80.7686 59.9079 80.8417C60.4521 80.9148 61.0058 80.8302 61.5034 80.5981C62.0009 80.366 62.4212 79.9961 62.7149 79.5322L68.2781 70.7249L63.099 54.4L51.2442 58.1612Z" fill="black"/>
<path d="M65.7926 63.8671L62.6221 53.8683L50.7231 57.6442L54.12 68.347C56.277 68.5238 58.4465 68.2129 60.4671 67.4374C62.4877 66.6618 64.3077 65.4417 65.7926 63.8671Z" fill="black"/>
<path d="M60.7171 33.6837L57.5219 34.0726C50.0733 34.9834 44.2295 40.5563 43.3728 47.5864L42.3243 56.0787C41.9354 59.2541 44.3182 62.1341 47.6757 62.5525L60.5692 64.1575L60.7171 33.6837Z" fill="black"/>
<path d="M54.7308 33.9743L58.4477 33.7134C67.1074 33.1029 74.812 37.6518 77.1554 44.7607L79.9566 53.3367C81.0052 56.5416 78.8341 60.0272 75.0828 61.1595L60.6926 65.5065L54.7308 33.9743Z" fill="black"/>
<path d="M56.0152 37.5974C55.9297 37.5979 55.8462 37.5723 55.7757 37.5239C55.7053 37.4754 55.6516 37.4066 55.6214 37.3266L52.6676 29.5039C52.4222 28.8497 52.3502 28.1431 52.4589 27.4529C52.5676 26.7628 52.8532 26.1125 53.2878 25.5654C53.3153 25.5104 53.3545 25.462 53.4027 25.4236C53.4508 25.3853 53.5068 25.358 53.5666 25.3434C53.6264 25.3289 53.6887 25.3276 53.7491 25.3396C53.8094 25.3516 53.8664 25.3765 53.9161 25.4128C53.9658 25.4491 54.007 25.4959 54.0368 25.5497C54.0666 25.6035 54.0843 25.6632 54.0887 25.7246C54.0931 25.786 54.0841 25.8476 54.0623 25.9051C54.0404 25.9626 54.0063 26.0147 53.9623 26.0577C53.6158 26.4892 53.3881 27.0038 53.3017 27.5504C53.2154 28.097 53.2734 28.6568 53.47 29.1741L56.4238 36.9968C56.4436 37.0482 56.4531 37.1029 56.4517 37.158C56.4503 37.213 56.4381 37.2673 56.4157 37.3176C56.3932 37.3679 56.3612 37.4134 56.3212 37.4513C56.2812 37.4891 56.2339 37.5188 56.1825 37.5384C56.1313 37.5693 56.0744 37.5893 56.0152 37.5974Z" fill="black"/>
<path d="M56.1685 37.2826L54.1354 29.2629C53.4954 26.7521 55.3317 24.2808 58.0738 23.9854L61.0868 23.6604C64.085 23.3354 66.5859 25.8019 66.1132 28.613L64.5575 37.8389L56.1685 37.2826Z" fill="black"/>
<path d="M76.8457 47.6651C76.5471 46.6667 75.8649 45.8273 74.9486 45.3309C74.0323 44.8344 72.9565 44.7215 71.957 45.0166H71.8931C70.1651 39.0301 65.6653 34.7618 60.3878 34.7618C54.5441 34.7618 49.6604 39.9852 48.4296 46.976C47.5301 47.0176 46.6722 47.3662 45.9986 47.9637C45.3249 48.5612 44.8762 49.3715 44.7274 50.2596C44.558 51.2883 44.8033 52.3422 45.4096 53.1903C46.0159 54.0384 46.9339 54.6114 47.962 54.7839L48.6366 54.8972C50.1381 61.376 54.8296 66.107 60.3878 66.107C66.4579 66.107 71.4992 60.4603 72.469 53.0462L74.1971 52.5538C75.1956 52.2552 76.0348 51.5729 76.5313 50.6566C77.0277 49.7403 77.1408 48.6646 76.8457 47.6651Z" fill="white"/>
<path d="M60.3673 66.5304C54.8534 66.5304 49.9158 61.9126 48.2665 55.2665L47.8726 55.2024C46.8406 55.0298 45.9053 54.4915 45.2375 53.6861C44.5697 52.8806 44.214 51.8617 44.2355 50.8156C44.257 49.7696 44.6542 48.7662 45.3545 47.9888C46.0549 47.2115 47.0116 46.7122 48.0497 46.5821C49.443 39.355 54.4497 34.3385 60.3574 34.3385C65.5463 34.3385 70.243 38.4049 72.1483 44.5046C73.2186 44.2797 74.3344 44.465 75.2745 45.0239C76.2146 45.5829 76.9104 46.4746 77.224 47.5224C77.3856 48.0719 77.4374 48.6479 77.3764 49.2174C77.3154 49.787 77.143 50.339 76.8687 50.8418C76.5944 51.3447 76.2237 51.7887 75.7778 52.1483C75.332 52.5079 74.8197 52.7761 74.2702 52.9377L72.7932 53.376C71.7249 61.0314 66.5063 66.5304 60.3673 66.5304ZM60.3673 35.1803C54.8879 35.1803 50.029 40.1722 48.8228 47.0498C48.8071 47.1443 48.7594 47.2306 48.6877 47.2942C48.616 47.3579 48.5246 47.3949 48.4288 47.3993C47.565 47.4416 46.7471 47.8013 46.1322 48.4095C45.5172 49.0177 45.1485 49.8315 45.0966 50.6948C45.0447 51.5582 45.3134 52.4102 45.8512 53.0876C46.3889 53.765 47.158 54.2201 48.0105 54.3655L48.6848 54.4787C48.7663 54.4935 48.8418 54.5316 48.9021 54.5884C48.9624 54.6451 49.0051 54.7182 49.0247 54.7987C50.5016 61.1987 55.1736 65.6837 60.3478 65.6837C66.1373 65.6837 71.0456 60.347 72.0105 52.992C72.0226 52.9113 72.0572 52.8358 72.1103 52.7739C72.1634 52.7121 72.2329 52.6665 72.3108 52.6424L74.0387 52.1501C74.9305 51.8835 75.6803 51.2739 76.1233 50.4553C76.5663 49.6367 76.6664 48.6757 76.4019 47.7833C76.2709 47.3415 76.0541 46.93 75.7639 46.5721C75.4737 46.2142 75.1159 45.917 74.7108 45.6975C74.3057 45.478 73.8614 45.3406 73.4031 45.293C72.9448 45.2455 72.4817 45.2887 72.0401 45.4203H71.9711C71.9174 45.4367 71.8608 45.442 71.805 45.4361C71.7492 45.4301 71.6952 45.4131 71.6461 45.3858C71.5974 45.3596 71.5543 45.3239 71.5197 45.2808C71.485 45.2377 71.4593 45.188 71.4442 45.1347C69.7507 39.2024 65.2903 35.2 60.3673 35.2V35.1803Z" fill="black"/>
<path d="M65.7579 35.6825C64.1191 34.568 62.1866 33.9649 60.2048 33.9495C54.1937 33.9495 49.1623 39.6258 47.8971 47.2418C47.5044 47.2576 47.1169 47.3374 46.75 47.4781C53.8195 47.8227 61.0318 43.264 65.7579 35.6825Z" fill="black"/>
<path d="M51.4422 48.9502C51.3299 48.9561 51.22 48.917 51.1365 48.8418C51.0529 48.7665 51.0027 48.6613 50.9968 48.549C50.9909 48.4367 51.0297 48.3266 51.105 48.2431C51.1802 48.1595 51.2857 48.1093 51.398 48.1034C56.8134 47.5717 61.8989 43.2394 64.6903 36.7804C64.7406 36.6863 64.8246 36.6146 64.9254 36.5798C65.0262 36.5449 65.1364 36.5493 65.2341 36.5923C65.3317 36.6352 65.4096 36.7134 65.4521 36.8112C65.4946 36.9091 65.4984 37.0194 65.4631 37.12C62.5536 43.84 57.1973 48.3692 51.4817 48.9354L51.4422 48.9502Z" fill="black"/>
<path d="M63.3273 43.1803C63.2405 43.1806 63.1558 43.1529 63.086 43.1014C63.0405 43.0699 63.0019 43.0297 62.972 42.9832C62.9422 42.9366 62.9218 42.8846 62.9122 42.8302C62.9025 42.7757 62.9039 42.7198 62.916 42.6659C62.9281 42.6119 62.9506 42.5608 62.9826 42.5156C64.3295 40.5398 65.1249 38.2404 65.2867 35.8547C65.2873 35.7966 65.2999 35.7392 65.3237 35.6862C65.3475 35.6331 65.3819 35.5856 65.4249 35.5465C65.4679 35.5074 65.5185 35.4774 65.5735 35.4586C65.6285 35.4399 65.6867 35.4327 65.7446 35.4375C65.8025 35.4422 65.8588 35.4588 65.91 35.4863C65.9612 35.5137 66.0062 35.5514 66.0422 35.597C66.0782 35.6426 66.1045 35.6951 66.1194 35.7513C66.1342 35.8075 66.1373 35.8662 66.1285 35.9237C65.9537 38.4592 65.1038 40.9017 63.667 42.9981C63.6294 43.0537 63.5788 43.0994 63.5196 43.1311C63.4604 43.1629 63.3945 43.1798 63.3273 43.1803Z" fill="black"/>
<path d="M72.286 50.4122C72.1858 50.4114 72.0889 50.3755 72.0125 50.3108C71.936 50.246 71.8848 50.1565 71.8675 50.0578C71.7785 49.5088 71.8523 48.9458 72.0798 48.4383C72.3072 47.9308 72.6785 47.5012 73.1475 47.2024C73.2435 47.1444 73.3586 47.1268 73.4675 47.1536C73.5764 47.1803 73.6701 47.2493 73.7283 47.3451C73.785 47.4415 73.8019 47.5561 73.7752 47.6646C73.7485 47.7732 73.6804 47.867 73.5855 47.926C73.2609 48.137 73.0048 48.4378 72.8483 48.7919C72.6918 49.146 72.6418 49.5379 72.7043 49.9199C72.7228 50.0315 72.6967 50.1459 72.6312 50.2382C72.5657 50.3304 72.4662 50.3929 72.3548 50.4122H72.286Z" fill="black"/>
<path d="M47.9659 52.1651H47.9118C47.855 52.1579 47.8001 52.1393 47.7507 52.1104C47.7013 52.0815 47.6583 52.0428 47.6243 51.9968C47.5902 51.9508 47.5659 51.8983 47.5527 51.8426C47.5394 51.7869 47.5378 51.7292 47.5476 51.6728C47.5822 51.2864 47.5044 50.8982 47.3236 50.555C47.1428 50.2118 46.8666 49.928 46.5284 49.7379C46.4341 49.6812 46.3655 49.5901 46.3373 49.4837C46.309 49.3774 46.3234 49.2642 46.3772 49.1682C46.4309 49.0722 46.5198 49.0009 46.6253 48.9694C46.7307 48.9379 46.8442 48.9487 46.9418 48.9995C47.4277 49.2715 47.8232 49.68 48.0796 50.1743C48.3359 50.6687 48.4419 51.2272 48.3844 51.7811C48.3746 51.8856 48.3264 51.9827 48.2491 52.0537C48.1717 52.1246 48.0708 52.1643 47.9659 52.1651Z" fill="black"/>
<path d="M56.2577 54.8578C55.3172 54.8578 54.3975 54.5789 53.6154 54.0564C52.8334 53.5338 52.2239 52.791 51.864 51.922C51.504 51.053 51.4098 50.0968 51.5933 49.1743C51.7768 48.2518 52.2297 47.4044 52.8948 46.7393C53.5599 46.0742 54.4073 45.6212 55.3299 45.4377C56.2524 45.2542 57.2087 45.3485 58.0777 45.7084C58.9467 46.0684 59.6893 46.6779 60.2118 47.46C60.7344 48.242 61.0133 49.1615 61.0133 50.102C61.012 51.3629 60.5106 52.5719 59.619 53.4635C58.7275 54.3551 57.5186 54.8565 56.2577 54.8578ZM56.2577 46.1882C55.4776 46.1824 54.7131 46.4084 54.0616 46.8376C53.41 47.2668 52.9005 47.8798 52.5979 48.5989C52.2953 49.318 52.2132 50.1109 52.3618 50.8768C52.5104 51.6427 52.8831 52.3472 53.4327 52.901C53.9824 53.4547 54.6841 53.8329 55.4489 53.9873C56.2136 54.1416 57.007 54.0654 57.7284 53.7682C58.4498 53.471 59.0667 52.9661 59.5008 52.3178C59.9349 51.6695 60.1666 50.9069 60.1666 50.1267C60.1667 49.0872 59.7558 48.0899 59.0236 47.3522C58.2914 46.6144 57.2972 46.196 56.2577 46.1882Z" fill="#2563EB"/>
<path d="M66.4232 54.8578C65.4826 54.8578 64.5632 54.5789 63.7811 54.0564C62.999 53.5338 62.3893 52.791 62.0294 51.922C61.6695 51.053 61.5752 50.0968 61.7587 49.1743C61.9422 48.2518 62.3953 47.4044 63.0604 46.7393C63.7255 46.0742 64.5728 45.6212 65.4953 45.4377C66.4178 45.2542 67.3741 45.3485 68.2431 45.7084C69.1121 46.0684 69.8547 46.6779 70.3772 47.46C70.8998 48.242 71.1789 49.1615 71.1789 50.102C71.1776 51.3629 70.676 52.5719 69.7844 53.4635C68.8929 54.3551 67.684 54.8565 66.4232 54.8578ZM66.4232 46.1882C65.6432 46.1833 64.8793 46.4102 64.2284 46.84C63.5775 47.2698 63.0688 47.8832 62.7669 48.6024C62.465 49.3216 62.3836 50.1143 62.5328 50.8799C62.6819 51.6455 63.0551 52.3495 63.6049 52.9028C64.1547 53.456 64.8563 53.8337 65.621 53.9876C66.3856 54.1416 67.1787 54.065 67.8998 53.7677C68.6209 53.4703 69.2376 52.9655 69.6715 52.3173C70.1053 51.6691 70.3368 50.9067 70.3369 50.1267C70.3369 49.0864 69.9254 48.0884 69.1921 47.3505C68.4589 46.6126 67.4634 46.1947 66.4232 46.1882Z" fill="#2563EB"/>
<path d="M61.7558 50.9538H60.8695C60.7572 50.9538 60.6496 50.9092 60.5702 50.8298C60.4908 50.7504 60.4462 50.6427 60.4462 50.5304C60.4462 50.4181 60.4908 50.3104 60.5702 50.231C60.6496 50.1516 60.7572 50.107 60.8695 50.107H61.7558C61.8681 50.107 61.9757 50.1516 62.0551 50.231C62.1345 50.3104 62.1791 50.4181 62.1791 50.5304C62.1791 50.6427 62.1345 50.7504 62.0551 50.8298C61.9757 50.9092 61.8681 50.9538 61.7558 50.9538Z" fill="#2563EB"/>
<path d="M56.0902 50.4024C56.1444 51.1999 56.5827 51.8153 57.1095 51.7809C57.6362 51.7464 57.9807 51.0719 57.9265 50.2744C57.8724 49.4769 57.4343 48.8615 56.9075 48.9008C56.3808 48.9402 56.0361 49.6098 56.0902 50.4024Z" fill="black"/>
<path d="M64.2231 50.2843C64.2231 51.0818 64.6318 51.7316 65.1438 51.7316C65.6558 51.7316 66.0594 51.0818 66.0594 50.2843C66.0594 49.4867 65.6508 48.8418 65.1438 48.8418C64.6367 48.8418 64.2231 49.5064 64.2231 50.2843Z" fill="black"/>
<path d="M60.1456 61.2974H60.0569C58.4723 60.9674 57.0679 60.058 56.1185 58.7471C56.0828 58.7007 56.0573 58.6474 56.0432 58.5906C56.0292 58.5338 56.027 58.4747 56.037 58.4171C56.0469 58.3594 56.0686 58.3044 56.1009 58.2555C56.1332 58.2067 56.1753 58.1652 56.2245 58.1334C56.2736 58.1017 56.3287 58.0804 56.3865 58.071C56.4443 58.0617 56.5034 58.0644 56.5601 58.0791C56.6167 58.0937 56.6698 58.1201 56.7158 58.1563C56.7618 58.1924 56.7997 58.2377 56.8274 58.2893C57.6604 59.4082 58.8739 60.1839 60.2391 60.4702C60.3409 60.4925 60.4308 60.5517 60.4918 60.6362C60.5527 60.7207 60.5804 60.8247 60.5694 60.9284C60.5585 61.032 60.5097 61.1279 60.4324 61.1978C60.3551 61.2677 60.2546 61.3066 60.1504 61.3071L60.1456 61.2974Z" fill="black"/>
<path d="M61.5835 56.6547C61.4873 56.6548 61.394 56.6223 61.3188 56.5624C61.2436 56.5024 61.1913 56.4186 61.17 56.3249C61.1481 56.2172 61.1693 56.1053 61.2291 56.0132C61.289 55.9211 61.3827 55.8562 61.49 55.8326C61.6422 55.7974 61.7852 55.7306 61.9099 55.6364C62.0346 55.5422 62.138 55.4228 62.2135 55.286C62.2911 55.1497 62.3388 54.9984 62.3532 54.8422C62.3676 54.686 62.3487 54.5285 62.2974 54.3803L61.3128 51.4559C61.2769 51.3495 61.2846 51.2332 61.3344 51.1326C61.3843 51.0319 61.4723 50.9552 61.5787 50.9193C61.6851 50.8834 61.8013 50.8912 61.902 50.9411C62.0026 50.9909 62.0793 51.0788 62.1152 51.1852L63.0998 54.1095C63.1873 54.3695 63.2195 54.6449 63.1943 54.918C63.1691 55.1911 63.0871 55.4559 62.9537 55.6955C62.8202 55.9352 62.638 56.1443 62.419 56.3095C62.2001 56.4746 61.9491 56.5922 61.682 56.6547H61.5835Z" fill="black"/>
<path d="M54.8292 34.7224C54.7421 34.7217 54.6574 34.6945 54.5861 34.6444C54.5149 34.5943 54.4607 34.5236 54.4306 34.4419C54.4119 34.3898 54.4036 34.3346 54.4063 34.2794C54.4091 34.2242 54.4229 34.17 54.4467 34.1201C54.4705 34.0702 54.5039 34.0256 54.545 33.9887C54.5862 33.9519 54.6344 33.9234 54.6866 33.9052C61.0472 31.6406 65.4139 33.5557 65.596 33.6393C65.6464 33.662 65.692 33.6943 65.7299 33.7345C65.7678 33.7747 65.7975 33.8221 65.8172 33.8737C65.8368 33.9254 65.8462 33.9804 65.8446 34.0356C65.843 34.0909 65.8304 34.1453 65.8078 34.1957C65.7852 34.2461 65.7528 34.2916 65.7126 34.3295C65.6724 34.3674 65.6251 34.3971 65.5734 34.4167C65.5218 34.4364 65.4666 34.4456 65.4114 34.444C65.3561 34.4424 65.302 34.43 65.2515 34.4074C65.2072 34.4074 60.9929 32.5563 54.972 34.6979C54.9265 34.7156 54.8779 34.7238 54.8292 34.7224Z" fill="#2563EB"/>
<path d="M98.1444 51.15C107.02 51.15 114.215 43.9548 114.215 35.079C114.215 26.2032 107.02 19.008 98.1444 19.008C89.2686 19.008 82.0734 26.2032 82.0734 35.079C82.0734 43.9548 89.2686 51.15 98.1444 51.15Z" fill="#2563EB"/>
<path d="M81.9943 51.2296L84.1713 43.1001L86.3483 34.9633L92.3081 40.9158L98.2606 46.8755L90.1238 49.0526L81.9943 51.2296Z" fill="#2563EB"/>
<path d="M41.5805 29.2824H19.9683L19.3183 28.16L17.6642 25.2947L16.0101 28.16L15.3601 29.2824H12.7459C12.1291 29.2623 11.5145 29.3663 10.9387 29.5885C10.3629 29.8106 9.8377 30.1462 9.39423 30.5754C8.95076 31.0046 8.59828 31.5185 8.35745 32.0868C8.11663 32.655 7.99231 33.2659 7.99231 33.883C7.99231 34.5002 8.11663 35.111 8.35745 35.6792C8.59828 36.2474 8.95076 36.7614 9.39423 37.1906C9.8377 37.6198 10.3629 37.9555 10.9387 38.1776C11.5145 38.3998 12.1291 38.5038 12.7459 38.4837H41.5805C42.7746 38.4446 43.9066 37.9428 44.7375 37.0843C45.5684 36.2257 46.0329 35.0778 46.0329 33.883C46.0329 32.6883 45.5684 31.5404 44.7375 30.6818C43.9066 29.8233 42.7746 29.3215 41.5805 29.2824Z" fill="white"/>
<path d="M41.5806 38.9071H12.7459C11.4407 38.8662 10.2028 38.3191 9.29402 37.3814C8.3852 36.4437 7.87695 35.1891 7.87695 33.8832C7.87695 32.5773 8.3852 31.3227 9.29402 30.385C10.2028 29.4473 11.4407 28.9 12.7459 28.8592H15.114L17.2998 25.0832C17.336 25.0185 17.3891 24.9647 17.4532 24.9274C17.5172 24.8902 17.5901 24.8708 17.6642 24.8714C17.7382 24.8713 17.811 24.891 17.875 24.9281C17.939 24.9653 17.9918 25.0188 18.0284 25.0832L20.2094 28.8592H41.5806C42.8858 28.9 44.1239 29.4473 45.0327 30.385C45.9415 31.3227 46.4498 32.5773 46.4498 33.8832C46.4498 35.1891 45.9415 36.4437 45.0327 37.3814C44.1239 38.3191 42.8858 38.8662 41.5806 38.9071ZM12.7459 29.7059C11.6361 29.7059 10.5718 30.1469 9.78705 30.9316C9.00228 31.7164 8.56133 32.7807 8.56133 33.8905C8.56133 35.0004 9.00228 36.0648 9.78705 36.8495C10.5718 37.6343 11.6361 38.0751 12.7459 38.0751H41.5806C42.6904 38.0751 43.7547 37.6343 44.5395 36.8495C45.3242 36.0648 45.7652 35.0004 45.7652 33.8905C45.7652 32.7807 45.3242 31.7164 44.5395 30.9316C43.7547 30.1469 42.6904 29.7059 41.5806 29.7059H19.9683C19.8938 29.7049 19.8206 29.685 19.756 29.648C19.6914 29.6109 19.6376 29.558 19.5991 29.4942L17.6642 26.1367L15.7245 29.4942C15.6876 29.5583 15.6344 29.6114 15.5705 29.6486C15.5065 29.6857 15.434 29.7055 15.3601 29.7059H12.7459Z" fill="black"/>
<path d="M25.276 34.1957H13.4606C13.3568 34.1845 13.2608 34.1353 13.1911 34.0576C13.1214 33.9799 13.0827 33.8792 13.0827 33.7748C13.0827 33.6704 13.1214 33.5697 13.1911 33.492C13.2608 33.4143 13.3568 33.3651 13.4606 33.3539H25.276C25.3351 33.3475 25.3949 33.3536 25.4515 33.3718C25.508 33.3901 25.5601 33.42 25.6043 33.4597C25.6486 33.4994 25.684 33.5479 25.7082 33.6022C25.7324 33.6565 25.745 33.7154 25.745 33.7748C25.745 33.8343 25.7324 33.893 25.7082 33.9473C25.684 34.0016 25.6486 34.0501 25.6043 34.0898C25.5601 34.1296 25.508 34.1595 25.4515 34.1777C25.3949 34.1959 25.3351 34.2021 25.276 34.1957Z" fill="black"/>
<path d="M36.2342 34.1957H28.6479C28.5888 34.2021 28.529 34.1959 28.4724 34.1777C28.4158 34.1595 28.3638 34.1296 28.3195 34.0898C28.2753 34.0501 28.2399 34.0016 28.2157 33.9473C28.1915 33.893 28.1789 33.8343 28.1789 33.7748C28.1789 33.7154 28.1915 33.6565 28.2157 33.6022C28.2399 33.5479 28.2753 33.4994 28.3195 33.4597C28.3638 33.42 28.4158 33.3901 28.4724 33.3718C28.529 33.3536 28.5888 33.3475 28.6479 33.3539H36.2342C36.338 33.3651 36.4342 33.4143 36.5039 33.492C36.5736 33.5697 36.6121 33.6704 36.6121 33.7748C36.6121 33.8792 36.5736 33.9799 36.5039 34.0576C36.4342 34.1353 36.338 34.1845 36.2342 34.1957Z" fill="black"/>
<path fill-rule="evenodd" clip-rule="evenodd" d="M91.4373 28.4373C91.6681 28.2065 91.9811 28.0769 92.3075 28.0769C92.6338 28.0769 92.9468 28.2065 93.1776 28.4373L98.4613 33.721L103.745 28.4373C103.859 28.3197 103.994 28.2259 104.145 28.1614C104.295 28.0969 104.456 28.063 104.62 28.0616C104.783 28.0601 104.945 28.0913 105.096 28.1532C105.248 28.2151 105.385 28.3064 105.501 28.422C105.616 28.5376 105.708 28.675 105.769 28.8262C105.831 28.9775 105.862 29.1396 105.861 29.303C105.86 29.4664 105.826 29.6279 105.761 29.7781C105.697 29.9282 105.603 30.064 105.485 30.1776L100.202 35.4613L105.485 40.745C105.71 40.9771 105.834 41.288 105.831 41.6107C105.828 41.9334 105.699 42.2421 105.47 42.4703C105.242 42.6985 104.933 42.8279 104.611 42.8307C104.288 42.8335 103.977 42.7095 103.745 42.4853L98.4613 37.2016L93.1776 42.4853C92.9455 42.7095 92.6346 42.8335 92.3119 42.8307C91.9892 42.8279 91.6805 42.6985 91.4523 42.4703C91.2241 42.2421 91.0947 41.9334 91.0919 41.6107C91.0891 41.288 91.2131 40.9771 91.4373 40.745L96.721 35.4613L91.4373 30.1776C91.2066 29.9468 91.077 29.6338 91.077 29.3074C91.077 28.9811 91.2066 28.6681 91.4373 28.4373Z" fill="white"/>
</svg>
