<svg width="192" height="192" viewBox="0 0 192 192" fill="none" xmlns="http://www.w3.org/2000/svg">
<rect width="192" height="192" fill="white"/>
<path d="M165.029 83.3698C164.593 72.4849 163.833 43.1976 160.598 34.048C157.364 24.8985 149.706 23.5988 144.352 22.9711C138.998 22.3434 109.187 23.9533 109.187 23.9533C109.187 23.9533 105.591 8.06157 103.959 6.64372C102.327 5.22588 70.425 12.5514 63.129 14.4862C55.833 16.4209 16.7608 24.6252 14.2427 25.8068C11.7245 26.9883 25.0243 83.2886 25.0243 83.2886L22.4101 86.7741C22.2181 88.6646 22.0852 89.4991 22.0852 89.4991L20.8888 89.824C20.8888 89.824 19.1461 91.2418 19.6926 95.5988C20.2391 99.9557 24.9136 100.93 24.9136 100.93C24.9136 100.93 25.2384 103.648 25.7849 107.134C25.9125 108.102 26.2911 109.021 26.883 109.798C27.475 110.575 28.2598 111.184 29.1597 111.564C29.1597 111.564 30.0311 131.503 30.2526 137.484C30.4742 143.466 29.514 165.546 34.1737 175.042C38.8334 184.539 45.3837 182.663 50.937 180.706C56.4902 178.75 91.3308 161.765 91.3308 161.765C91.3308 161.765 91.3308 164.807 95.0231 169.814C98.7154 174.821 106.89 175.81 106.89 175.81C106.89 175.81 111.247 182.885 112.99 184.517C114.733 186.149 168.241 181.652 169.275 180.382C170.309 179.111 165.465 94.2621 165.029 83.3698ZM50.2796 151.419L43.9583 102.097L83.2668 93.28C83.2668 93.28 82.5281 94.0185 84.4629 101.115C86.3976 108.212 95.4587 108.847 95.4587 108.847C95.4587 108.847 99.0476 122.021 99.151 122.567C99.2543 123.114 50.2796 151.419 50.2796 151.419ZM115.493 58.8751L112.222 42.9465H137.485L138.223 73.1053L115.493 58.8751Z" fill="white"/>
<path d="M73.1169 75.9656C72.9726 75.781 72.7613 75.661 72.5288 75.632C72.2963 75.6029 72.0614 75.6671 71.8761 75.8105C70.5888 77.1701 69.1771 78.4062 67.6595 79.5028C66.5592 80.2413 64.2775 81.7183 63.1624 80.2856C62.6881 79.5709 62.5107 78.6994 62.6677 77.8561C62.6641 77.8118 62.6641 77.7674 62.6677 77.7232C64.6634 75.7467 66.1068 73.2822 66.8547 70.5749C67.0024 69.9841 66.6258 69.2382 65.9021 69.3785C65.0733 69.5731 64.3019 69.9599 63.6503 70.5077C62.9986 71.0555 62.4848 71.7488 62.1506 72.5318C61.7572 73.3994 61.472 74.3121 61.3015 75.2493C61.1833 75.8032 61.065 76.3644 60.969 76.9256C60.8016 77.1028 60.6246 77.2727 60.4375 77.4351C59.2648 78.5115 58.0134 79.4989 56.6937 80.389C55.6377 81.1274 54.2712 82.0801 52.9199 81.9102C52.707 81.8934 52.502 81.8239 52.3227 81.7078C52.1435 81.5918 51.9961 81.433 51.8937 81.2456C52.8293 80.2097 53.6465 79.0729 54.3304 77.8561C54.7904 77.0457 55.1877 76.2014 55.5193 75.3305C55.9035 74.5068 56.1528 73.6266 56.2577 72.7238C56.3164 72.3074 56.238 71.8833 56.0342 71.5155C55.8303 71.1478 55.5123 70.8564 55.128 70.6856C54.1828 70.3459 53.2005 71.0549 52.5506 71.6899C51.3128 73.001 50.5018 74.6566 50.2245 76.4382C49.8538 77.8591 49.751 79.3366 49.9217 80.7951C49.4369 81.2728 48.9267 81.724 48.3932 82.1465C47.9468 82.5342 47.45 82.8596 46.9163 83.1139C46.8737 82.911 46.7615 82.7294 46.5989 82.6007C46.4364 82.4721 46.2336 82.4045 46.0264 82.4097C45.8191 82.415 45.6204 82.4928 45.4646 82.6296C45.3087 82.7663 45.2057 82.9534 45.1736 83.1582C45.1219 83.4314 45.0774 83.7047 45.0258 83.9779C45.004 84.2018 45.0682 84.4255 45.2053 84.6038C45.3424 84.782 45.5423 84.9015 45.7642 84.9379C46.3025 85.0027 46.8483 84.9548 47.367 84.7971C47.8857 84.6395 48.366 84.3756 48.7772 84.0223C49.4285 83.5735 50.0477 83.08 50.6306 82.5453C51.5832 83.7269 53.2522 83.9115 54.7512 83.4536C56.4749 82.7902 58.0697 81.8305 59.4629 80.6179C59.965 80.2339 60.4598 79.8351 60.9398 79.4142C60.9998 80.076 61.2372 80.7094 61.6271 81.2474C62.017 81.7855 62.545 82.2084 63.1552 82.4715C64.9423 83.1287 66.8475 82.1318 68.3244 81.1939C69.9974 80.046 71.5357 78.7133 72.9102 77.221C73.1023 77.0805 73.2314 76.8703 73.2701 76.6356C73.3088 76.4008 73.2537 76.1603 73.1169 75.9656ZM52.5506 74.7693C52.7995 74.1602 53.1545 73.6002 53.5992 73.1152C53.8205 72.8891 54.0685 72.6907 54.3377 72.5244L54.4559 72.4579C54.4462 72.3869 54.4462 72.3148 54.4559 72.2438C54.4751 72.2814 54.49 72.321 54.5003 72.3619C54.5003 72.3988 54.5003 72.4284 54.5003 72.4579C54.5003 72.5613 54.552 72.5982 54.5003 72.4579C54.3305 73.8003 53.9017 75.0969 53.2375 76.2758C52.8046 77.139 52.2954 77.962 51.7163 78.7348C51.7885 77.3779 52.0699 76.0403 52.5506 74.7693ZM63.6276 73.7133C63.8118 73.2294 64.0601 72.7723 64.366 72.3545C64.1365 72.8219 63.8801 73.2756 63.598 73.7133H63.6276Z" fill="#007AFF"/>
<path d="M107.163 62.0638C103.134 62.5898 99.3616 64.3341 96.3514 67.0632C94.8375 68.4163 93.5424 69.9956 92.5116 71.7451C91.3892 73.6651 90.5545 75.7845 89.0923 77.4829C87.8 78.9598 85.5849 80.1118 83.6501 79.1888C83.4843 79.128 83.3042 79.1164 83.132 79.1556C82.9597 79.1947 82.8028 79.2827 82.6794 79.4092C82.5561 79.5356 82.4719 79.695 82.4371 79.8681C82.4023 80.0413 82.4184 80.2208 82.4833 80.3851C83.1627 81.8251 83.7976 83.2946 84.536 84.7051C84.6408 84.9025 84.8158 85.0536 85.0264 85.1284C85.2371 85.2032 85.4682 85.1963 85.674 85.1092C85.8799 85.022 86.0456 84.8609 86.1385 84.6576C86.2313 84.4543 86.2445 84.2235 86.1756 84.0109C85.799 83.11 85.3779 82.2164 84.9496 81.3303C86.3445 81.3256 87.705 80.8954 88.8489 80.0971C90.7172 78.8491 91.8396 76.8331 92.8513 74.8835C93.7788 72.9693 94.9556 71.1864 96.3514 69.5814C97.6913 68.1282 99.2575 66.9012 100.989 65.9482C102.988 64.8561 105.162 64.1214 107.414 63.7771C107.641 63.7438 107.845 63.6216 107.983 63.4374C108.12 63.2532 108.178 63.0221 108.145 62.7949C108.112 62.5677 107.989 62.3631 107.805 62.226C107.621 62.0889 107.39 62.0305 107.163 62.0638Z" fill="black"/>
<path d="M97.3854 119.93C96.4549 116.578 95.6282 113.195 94.7715 109.821C92.8281 109.829 90.9196 109.303 89.2551 108.299C87.5514 107.248 86.088 105.85 84.9595 104.196C83.8311 102.542 83.0627 100.669 82.7048 98.6995C82.4304 97.2642 82.3165 95.8029 82.3652 94.3425C82.3652 93.7074 82.4316 93.0724 82.5054 92.4373C82.854 89.6884 83.5056 86.9865 84.4479 84.3807C84.8245 83.2951 86.4637 83.9524 86.1018 85.0305C85.3058 87.2901 84.7344 89.6226 84.3959 91.9942C84.3959 92.0828 84.3961 92.1788 84.3592 92.2748C84.2927 92.8139 84.241 93.3604 84.2189 93.8995C84.049 97.3333 84.6987 100.819 86.7959 103.625C88.7824 106.283 91.9211 108.285 95.3402 107.952C95.5807 107.926 95.8218 107.993 96.0152 108.138C96.2085 108.283 96.3394 108.497 96.3812 108.735C97.2968 112.302 98.2718 115.854 99.1136 119.443C99.3573 120.484 97.6586 120.912 97.3854 119.93Z" fill="black"/>
<path d="M97.1124 78.1263C97.0777 77.8997 96.9558 77.6956 96.7727 77.5576C96.6812 77.4874 96.5764 77.4362 96.4648 77.407C96.3532 77.3778 96.2368 77.3713 96.1226 77.3878C95.965 77.419 95.8164 77.4846 95.687 77.5798L95.5248 77.6758C95.4015 77.7714 95.3069 77.8992 95.2515 78.045L94.513 79.522C94.4693 79.626 94.4467 79.7377 94.4467 79.8505C94.4467 79.9634 94.4693 80.0751 94.513 80.1792C94.591 80.3538 94.7229 80.4987 94.8894 80.5927C95.0535 80.6912 95.2466 80.7303 95.4361 80.7035C95.6653 80.6706 95.8722 80.5485 96.0119 80.3638C96.3221 79.8321 96.6398 79.3004 96.9426 78.7687C97.0193 78.678 97.0701 78.5683 97.09 78.4512C97.1259 78.3467 97.1337 78.2346 97.1124 78.1263Z" fill="black"/>
<path d="M105.597 76.7233C105.102 74.9313 103.995 73.3694 102.468 72.3091C100.94 71.2487 99.0903 70.7569 97.2382 70.919C97.1247 70.935 97.0156 70.9732 96.9169 71.0314C96.8182 71.0896 96.732 71.1666 96.6631 71.2582C96.5941 71.3497 96.5439 71.454 96.5152 71.5649C96.4866 71.6759 96.4801 71.7914 96.4961 71.9048C96.5121 72.0183 96.55 72.1275 96.6082 72.2262C96.6664 72.3249 96.7435 72.4111 96.835 72.4801C96.9266 72.549 97.031 72.5992 97.1419 72.6278C97.2528 72.6565 97.3685 72.663 97.4819 72.647C98.9109 72.5549 100.328 72.9566 101.496 73.7847C102.664 74.6128 103.513 75.8171 103.899 77.1959C103.988 77.3878 104.143 77.5417 104.335 77.6303C104.527 77.7188 104.745 77.7363 104.949 77.6796C105.153 77.6228 105.33 77.4956 105.449 77.3204C105.567 77.1453 105.62 76.9337 105.597 76.7233Z" fill="black"/>
<path d="M88.4732 86.9723C88.4022 86.8799 88.3133 86.8029 88.2118 86.7458C88.1102 86.6887 87.9983 86.6527 87.8826 86.64C87.6573 86.6287 87.4341 86.6909 87.2472 86.8172C86.2208 87.4375 85.2167 88.1243 84.205 88.7815C84.0251 88.9227 83.9086 89.1295 83.8809 89.3566C83.8532 89.5836 83.9165 89.8123 84.0572 89.9926C84.1996 90.1704 84.4057 90.2859 84.6316 90.3148C84.8575 90.3437 85.0858 90.2838 85.2684 90.1477C86.2875 89.5052 87.3212 88.8775 88.3181 88.1982C88.5001 88.0554 88.6183 87.8466 88.6473 87.6171C88.6764 87.3876 88.6139 87.1559 88.4732 86.9723Z" fill="black"/>
<path d="M108.168 79.2045C106.825 78.2686 105.726 77.0237 104.964 75.5746C104.202 74.1254 103.8 72.5145 103.79 70.8773C103.781 69.2402 104.165 67.6247 104.91 66.1669C105.656 64.7091 106.74 63.4517 108.072 62.5005C108.981 61.8285 107.91 60.4623 107.001 61.1195C104.58 62.8876 102.892 65.4843 102.26 68.4155C101.652 71.3478 102.18 74.4016 103.737 76.9595C104.336 77.9843 105.082 78.915 105.953 79.7214C104.625 80.4687 103.53 81.5685 102.789 82.8992C102.047 84.2299 101.688 85.7398 101.75 87.2619C101.813 88.7841 102.295 90.2593 103.144 91.5245C103.992 92.7898 105.174 93.7958 106.559 94.4315C107.6 94.9337 108.257 93.25 107.216 92.7479C106.052 92.1901 105.082 91.2978 104.428 90.1853C103.775 89.0728 103.468 87.7907 103.547 86.5029C103.627 85.2152 104.088 83.9803 104.873 82.9564C105.658 81.9325 106.731 81.1661 107.954 80.7552C108.1 80.6944 108.228 80.5965 108.324 80.4712C108.421 80.346 108.483 80.1977 108.505 80.0411C108.526 79.8844 108.507 79.7248 108.448 79.5781C108.389 79.4314 108.292 79.3026 108.168 79.2045Z" fill="black"/>
<path d="M116.195 93.8186C115.812 92.8998 115.193 92.0984 114.4 91.4955C113.608 90.8926 112.671 90.5094 111.683 90.3847C110.602 90.2641 109.509 90.4741 108.549 90.9869C107.59 91.4997 106.808 92.2913 106.307 93.2574C105.901 94.1361 107.333 94.9632 107.828 94.0992C108.149 93.508 108.626 93.0157 109.207 92.6757C109.787 92.3357 110.45 92.1608 111.123 92.1699C111.796 92.179 112.453 92.3718 113.024 92.7275C113.595 93.0831 114.059 93.5881 114.364 94.1878C115.914 97.0678 113.995 100.324 111.07 101.277C110.156 101.535 109.197 101.595 108.257 101.454C107.317 101.312 106.419 100.973 105.62 100.457C105.432 100.316 105.196 100.256 104.963 100.289C104.731 100.322 104.521 100.447 104.38 100.635C104.239 100.823 104.178 101.059 104.211 101.292C104.245 101.524 104.369 101.734 104.557 101.875C105.457 102.544 106.492 103.01 107.59 103.239C108.688 103.469 109.822 103.457 110.915 103.204C111.94 102.982 112.907 102.551 113.758 101.937C114.608 101.323 115.322 100.54 115.855 99.6377C116.367 98.7632 116.664 97.7802 116.723 96.7689C116.782 95.7576 116.601 94.7466 116.195 93.8186Z" fill="black"/>
<path d="M112.339 95.2133C112.242 95.0003 112.067 94.8326 111.85 94.7447C111.633 94.6568 111.391 94.6554 111.173 94.7407C109.696 95.2207 108.27 95.7598 106.823 96.2767C106.716 96.3203 106.618 96.3849 106.536 96.4668C106.454 96.5486 106.389 96.6461 106.345 96.7534C106.301 96.8606 106.278 96.9757 106.279 97.0916C106.28 97.2076 106.305 97.3222 106.35 97.4287C106.446 97.6412 106.62 97.8087 106.836 97.8967C107.051 97.9846 107.293 97.9863 107.51 97.9013C108.987 97.3991 110.427 96.9191 111.867 96.3801C112.084 96.2873 112.255 96.1126 112.344 95.8941C112.432 95.6755 112.43 95.4308 112.339 95.2133Z" fill="black"/>
<path d="M107.208 107.282C105.465 110.036 102.415 111.351 99.9117 113.263C97.8883 114.814 95.7836 117.576 97.1497 120.212C97.2075 120.356 97.2274 120.512 97.2074 120.665C97.1874 120.819 97.1282 120.965 97.0354 121.089C96.9426 121.212 96.8194 121.31 96.6777 121.373C96.5361 121.435 96.3807 121.46 96.2266 121.445C94.8958 121.309 93.5519 121.508 92.3176 122.024C91.0833 122.54 89.9978 123.356 89.1597 124.399C88.151 125.712 87.5802 127.308 87.5277 128.963C87.4995 129.639 87.5565 130.317 87.6975 130.979L86.0876 131.917C85.9149 131.291 85.8034 130.651 85.7551 130.004C85.5716 127.622 86.2739 125.255 87.7271 123.358C88.6116 122.251 89.7244 121.348 90.99 120.711C92.2555 120.074 93.6438 119.717 95.0598 119.666C94.8435 118.493 94.9612 117.282 95.3995 116.173C96.581 113.101 99.4093 111.461 102.046 109.748C104.372 108.205 107.215 105.834 106.609 102.681C106.388 101.581 108.086 101.337 108.33 102.43C108.606 104.132 108.203 105.874 107.208 107.282Z" fill="black"/>
<path d="M154.861 117.774C154.235 118.539 153.403 119.108 152.463 119.415C151.523 119.721 150.515 119.751 149.559 119.502C148.488 119.2 148.953 117.368 150.031 117.605C150.722 117.776 151.451 117.676 152.07 117.324C152.745 116.924 153.305 116.354 153.693 115.672C154.082 114.989 154.286 114.217 154.285 113.432C154.285 111.52 153.2 109.784 152.018 108.352C150.672 106.868 149.242 105.462 147.735 104.142C146.163 102.721 144.875 101.015 143.939 99.1135C142.211 95.3473 142.248 91.1012 141.849 87.0618C141.536 83.7887 140.698 80.5873 139.368 77.58C139.205 77.2107 139.036 76.8415 138.866 76.487C138.497 75.7485 138.127 75.0101 137.677 74.2716C135.449 70.4251 132.41 67.1109 128.77 64.5601C125.13 62.0093 120.977 60.2832 116.601 59.5024C115.966 59.3916 115.324 59.2883 114.681 59.2144C109.693 58.6008 104.631 59.183 99.9122 60.9129C96.3159 62.2421 92.7858 64.2433 90.4301 67.3301C88.0744 70.4169 87.1439 74.5227 88.7833 78.0599C89.2559 79.079 87.6685 79.751 87.1885 78.7393C86.7458 77.805 86.4469 76.8091 86.3022 75.7855C85.7114 71.5098 87.6241 67.3891 90.6223 64.4353C93.6204 61.4815 97.5784 59.6058 101.551 58.4686C105.691 57.2954 110.016 56.917 114.297 57.3535C114.932 57.4126 115.568 57.4938 116.203 57.5972C119.819 58.1541 123.315 59.3202 126.541 61.0458C130.967 63.4448 134.795 66.8092 137.744 70.8895C138.371 71.7535 138.962 72.647 139.501 73.5701C140.422 75.1201 141.215 76.7427 141.871 78.4218C142.595 80.2657 143.161 82.168 143.563 84.1079C143.934 86.1924 144.195 88.2951 144.345 90.407C144.469 92.5182 144.818 94.61 145.386 96.647C146.044 98.652 147.162 100.475 148.651 101.971C151.604 105.058 155.489 107.657 156.353 112.147C156.547 113.137 156.514 114.158 156.256 115.133C155.997 116.108 155.52 117.011 154.861 117.774Z" fill="black"/>
<path d="M157.224 136.124C156.453 139.279 154.694 142.105 152.203 144.188C147.543 148.095 140.661 149.358 135.019 146.995C133.191 149.198 130.582 150.609 127.737 150.931C124.965 151.308 122.155 150.579 119.917 148.9C117.318 146.869 115.833 143.812 114.681 140.777C113.293 137.136 112.045 133.436 110.731 129.766L108.249 122.825L107.511 120.728C108.296 120.865 109.056 121.113 109.77 121.466C109.97 122.005 110.154 122.544 110.354 123.083L112.724 129.729C113.972 133.215 115.161 136.73 116.498 140.186C117.547 142.896 118.854 145.717 121.254 147.489C125.153 150.377 131.282 149.232 133.97 145.274C134.093 145.11 134.266 144.99 134.463 144.932C134.661 144.875 134.871 144.884 135.063 144.956C137.989 146.312 141.285 146.652 144.426 145.924C150.002 144.705 154.661 140.437 155.614 134.707C156.089 131.901 155.772 129.018 154.7 126.382C153.628 123.746 151.843 121.46 149.544 119.782C148.614 119.125 149.662 117.752 150.6 118.372C153.571 120.405 155.766 123.386 156.825 126.827C157.81 129.831 157.948 133.048 157.224 136.124Z" fill="black"/>
<path d="M110.339 123.135C110.233 123.277 110.079 123.376 109.905 123.414C109.731 123.452 109.55 123.426 109.394 123.341C109.025 123.147 108.643 122.982 108.249 122.847C103.878 121.37 99.4247 124.109 95.6955 126.303C93.0296 127.853 90.3709 129.419 87.7051 130.977L86.0955 131.915L69.6499 141.515C63.5798 145.067 57.5243 148.656 51.4467 152.2C50.8707 152.533 50.2947 152.865 49.7261 153.205C47.6805 154.394 45.6349 155.568 43.582 156.749C42.7106 157.251 41.8393 155.738 42.6885 155.228C44.958 153.874 47.2325 152.53 49.5119 151.196L51.2325 150.192L57.6941 146.426L84.1902 130.918L85.763 129.987L87.5353 128.946C90.814 127.004 94.0927 125.047 97.4158 123.186C100.436 121.503 104.062 120.092 107.503 120.735C108.288 120.871 109.049 121.119 109.763 121.473C109.935 121.556 110.103 121.647 110.265 121.746C110.378 121.821 110.472 121.921 110.539 122.038C110.607 122.155 110.645 122.287 110.653 122.422C110.66 122.557 110.635 122.692 110.58 122.815C110.526 122.939 110.443 123.049 110.339 123.135Z" fill="black"/>
<path d="M31.1164 91.6392C31.0833 91.8628 30.9646 92.0647 30.7855 92.2025C30.6064 92.3403 30.3809 92.4031 30.1563 92.3777C28.0074 91.9494 25.8585 91.4694 23.7096 91.0042C22.9446 90.7372 22.1293 90.6463 21.3244 90.7383C21.0848 90.8236 20.8756 90.9778 20.7233 91.1814C20.5709 91.385 20.4821 91.629 20.4678 91.8829C20.3645 92.546 20.3645 93.2211 20.4678 93.8841C20.5503 94.7202 20.7236 95.5447 20.9847 96.3432C21.1804 97.0342 21.5328 97.6707 22.0143 98.2034C22.4958 98.7362 23.0936 99.1508 23.7613 99.4152C24.0932 99.5174 24.4426 99.5501 24.7877 99.5112C25.1834 99.4826 25.5643 99.3483 25.8903 99.1223C26.2164 98.8963 26.4756 98.5868 26.6412 98.2263C26.7108 98.0367 26.8474 97.8791 27.0253 97.7832C26.7511 98.8096 26.5318 99.8498 26.3681 100.9C25.7821 101.17 25.145 101.311 24.4998 101.313C24.0799 101.313 23.6621 101.253 23.259 101.136C22.3296 100.81 21.4897 100.271 20.8062 99.5615C20.1227 98.8523 19.6148 97.9929 19.3231 97.0522C18.9791 96.0173 18.7511 94.9473 18.6436 93.862C18.5251 93.0042 18.5552 92.1324 18.7323 91.2848C18.8231 90.8406 19.0113 90.4221 19.2833 90.0595C19.5553 89.6968 19.9042 89.399 20.3052 89.1875C21.2504 88.823 22.2907 88.7866 23.259 89.0841C25.6147 89.5937 27.9778 90.1106 30.3262 90.6571C30.4428 90.669 30.5559 90.704 30.659 90.76C30.762 90.8159 30.8528 90.8918 30.9263 90.9832C30.9998 91.0745 31.0545 91.1795 31.0872 91.2921C31.1198 91.4047 31.1297 91.5227 31.1164 91.6392Z" fill="black"/>
<path d="M29.9942 112.118C29.9597 112.235 29.9011 112.344 29.8223 112.437C29.7434 112.531 29.6461 112.606 29.5363 112.66C29.4265 112.713 29.3068 112.744 29.1848 112.748C29.0627 112.753 28.941 112.732 28.8274 112.687C26.3683 111.321 24.9358 108.515 24.5075 105.568C24.3193 104.164 24.3193 102.741 24.5075 101.337C24.574 100.731 24.6773 100.126 24.7955 99.5349C25.1056 97.962 25.534 96.4186 25.9771 94.9196C26.3241 93.7085 27.9487 94.4396 27.6238 95.658C27.4244 96.3965 27.225 97.098 27.033 97.8291C26.7588 98.8555 26.5395 99.8957 26.3759 100.945C26.152 102.268 26.1121 103.615 26.2576 104.948C26.5382 107.281 27.5574 109.689 29.4921 110.856C29.709 110.975 29.8776 111.167 29.9692 111.397C30.0608 111.627 30.0696 111.882 29.9942 112.118Z" fill="black"/>
<path d="M26.301 94.9328C25.3558 94.6375 24.4179 94.3494 23.4727 94.0688C23.2611 93.9875 23.027 93.9875 22.8155 94.0688C22.7095 94.1132 22.6137 94.1786 22.5337 94.2611C22.4538 94.3436 22.3912 94.4415 22.3502 94.5488C22.2696 94.7626 22.2754 94.9993 22.3664 95.2088C22.4574 95.4184 22.6265 95.5843 22.8377 95.6713L25.6585 96.5648C25.8726 96.6459 26.1091 96.6459 26.3232 96.5648C26.5425 96.47 26.7151 96.2921 26.8031 96.0701C26.8854 95.8525 26.8789 95.6114 26.7849 95.3986C26.691 95.1859 26.5172 95.0186 26.301 94.9328Z" fill="black"/>
<path d="M33.1547 89.7058H32.815C32.6528 89.6976 32.4966 89.6422 32.3654 89.5464C32.2342 89.4507 32.1339 89.3187 32.0766 89.1668L29.2778 87.3945C28.3067 86.6877 27.2678 86.0791 26.1763 85.5778L25.9769 85.5114C25.681 85.4093 25.3641 85.3836 25.0556 85.4365C24.7471 85.4894 24.4568 85.6193 24.2119 85.8141C24.0285 85.9581 23.8691 86.13 23.7393 86.3237C23.2142 87.3159 22.9595 88.4289 23.0009 89.5507C22.9122 90.6732 21.1768 90.4739 21.258 89.3514C21.2458 87.8894 21.6395 86.4527 22.3953 85.2012C22.7754 84.6719 23.2836 84.2476 23.8722 83.968C24.4209 83.7038 25.0304 83.5916 25.6372 83.6431H25.7331C27.2101 83.8055 28.5319 84.7803 29.7651 85.5631L33.8045 88.1255C34.5872 88.6203 33.967 89.7501 33.1547 89.7058Z" fill="black"/>
<path d="M38.2421 86.0581C36.3959 83.7615 34.0477 81.5092 31.0938 80.8298C28.4797 80.2242 25.4889 81.3319 24.4477 83.9239C24.3625 84.1394 24.3664 84.3798 24.4585 84.5924C24.5506 84.805 24.7233 84.9723 24.9388 85.0575C25.1542 85.1427 25.3947 85.1388 25.6073 85.0467C25.8199 84.9546 25.987 84.7818 26.0722 84.5664C26.8846 82.5725 29.3142 82.0778 31.1899 82.6833C33.6121 83.4587 35.1406 85.3935 36.8391 87.1141C37.6145 87.9486 38.9805 86.9664 38.2421 86.0581Z" fill="black"/>
<path d="M58.055 56.5259C57.6414 58.2908 56.135 59.3689 54.5325 60.0114C52.6125 60.7498 50.5521 61.2742 48.5731 61.8797L42.023 63.8809L39.0692 64.7819L37.3854 65.2988C37.223 64.8006 36.9416 64.3494 36.5657 63.9843C35.8937 63.3788 34.5497 63.2458 34.3503 64.3461C34.3006 64.9496 34.343 65.5572 34.476 66.148C33.9029 66.3093 33.3175 66.423 32.7257 66.4877C31.8772 66.596 31.0152 66.4841 30.2224 66.1628C28.3467 65.3505 27.8519 63.4378 27.4162 61.6286C27.1061 60.3585 26.8033 59.0957 26.4931 57.8256C26.4341 57.6409 26.3824 57.4563 26.3233 57.2643C25.3781 54.3105 24.5388 51.3296 23.8052 48.3216C23.3843 46.5788 21.8999 43.2853 22.6458 41.5351C23.7904 38.8766 28.0734 38.3301 30.5251 37.8944C34.7491 37.156 38.9362 36.2699 43.1381 35.3985C44.2162 35.1696 45.2943 34.9332 46.3799 34.7339C47.3246 34.5215 48.2991 34.474 49.26 34.5935C51.1652 34.9037 52.391 36.2698 53.0925 37.9904C53.3658 38.6403 53.5947 39.2975 53.831 39.9769C54.0673 40.6563 54.1854 41.1511 54.3553 41.7418C53.7719 41.8526 53.1812 41.9855 52.5978 42.1259C51.9972 42.2205 51.4332 42.4756 50.9657 42.8643C50.8242 42.9956 50.7188 43.1608 50.6594 43.3444C50.5999 43.5279 50.5884 43.7237 50.626 43.9129C50.7737 44.2969 51.3203 44.356 51.66 44.3855C52.2872 44.4188 52.9156 44.4188 53.5429 44.3855H55.1233C55.3079 44.9837 55.4851 45.5819 55.6698 46.18L56.9769 50.4852C57.5602 52.3831 58.5128 54.5172 58.055 56.5259Z" fill="#007AFF"/>
<path d="M51.4092 152.238C50.8332 152.57 50.2572 152.902 49.6885 153.242C49.6147 152.57 49.5482 151.905 49.4744 151.233C48.8097 144.922 48.091 138.61 47.3181 132.299C46.9587 129.345 46.5821 126.391 46.1882 123.438C46.1144 122.825 46.0333 122.219 45.9521 121.606C45.4598 117.919 44.9526 114.227 44.4308 110.529C44.096 108.196 43.7538 105.862 43.4042 103.529C43.3255 102.938 43.2369 102.347 43.1385 101.756C42.4886 97.424 41.8117 93.0893 41.1077 88.7521C40.5169 85.1114 39.4757 76.8628 38.848 73.2444C38.5452 71.4573 38.2277 69.6776 37.9101 67.8979C37.8053 67.0121 37.6224 66.1373 37.3637 65.2837C37.1993 64.7864 36.9184 64.3356 36.5441 63.9692C35.8721 63.3637 34.5279 63.2308 34.3655 64.3385C34.3097 64.9391 34.3497 65.5448 34.4837 66.133C34.5207 66.325 34.5501 66.5169 34.5797 66.6942L34.9489 69.4413C35.4437 73.0597 36.3742 81.2567 36.8394 84.949C36.8534 85.17 36.7834 85.3881 36.6434 85.5597C36.5035 85.7314 36.3038 85.8438 36.0845 85.8746C35.8652 85.9054 35.6423 85.8523 35.4605 85.7258C35.2787 85.5994 35.1514 85.409 35.1039 85.1927C34.9636 84.2474 34.8381 83.3022 34.7051 82.3496C34.1882 78.6056 33.2283 70.3717 32.7409 66.5096C32.7373 66.4579 32.7373 66.4061 32.7409 66.3545C32.5341 64.8776 32.3348 63.024 33.8708 62.1305C34.4715 61.8234 35.1495 61.701 35.8197 61.7785C36.4898 61.856 37.1222 62.1301 37.637 62.5662C38.3112 63.1571 38.8072 63.9243 39.0696 64.7816C39.273 65.4019 39.4308 66.0362 39.5421 66.6794C39.8818 68.533 40.1994 70.3717 40.5243 72.2696C41.1815 76.0431 42.2523 84.432 42.8726 88.2056C43.5913 92.592 44.2806 96.9785 44.9403 101.365C45.0289 101.956 45.1176 102.554 45.1988 103.145C45.5976 105.774 45.9839 108.405 46.3581 111.039C46.8258 114.337 47.2788 117.643 47.7169 120.956L47.9607 122.788C48.448 126.48 48.9058 130.172 49.3563 133.82C50.0209 139.285 50.6412 144.75 51.2172 150.214C51.2984 150.886 51.3649 151.551 51.4092 152.238Z" fill="black"/>
<path d="M99.3649 158.649C98.3803 159.205 97.3957 159.752 96.411 160.289C88.4061 164.66 80.2093 168.707 71.9163 172.525C67.7809 174.43 63.6087 176.271 59.3994 178.049C57.3022 178.942 55.1975 179.836 53.0708 180.663C51.0303 181.508 48.903 182.128 46.7273 182.509C44.5704 182.877 42.356 182.707 40.2806 182.014C38.5826 181.376 37.0488 180.367 35.7908 179.06C32.9773 176.247 31.5446 172.414 30.8948 168.567C30.5652 166.4 30.3678 164.215 30.3039 162.024C30.2006 159.69 30.1046 157.349 30.016 155.023C29.824 150.209 29.6468 145.423 29.4548 140.601C29.3071 136.988 29.1544 133.377 28.9969 129.768L28.9231 127.892C28.7016 122.585 28.4923 117.28 28.2954 111.978C28.2696 111.861 28.2683 111.74 28.2916 111.622C28.3148 111.505 28.3623 111.393 28.4308 111.294C28.4992 111.196 28.5871 111.112 28.6893 111.049C28.7914 110.987 28.9055 110.945 29.0243 110.929C29.1431 110.912 29.264 110.92 29.3796 110.952C29.4952 110.984 29.6029 111.039 29.696 111.115C29.7891 111.191 29.8656 111.285 29.9207 111.392C29.9757 111.498 30.0082 111.615 30.016 111.735C30.0677 112.879 30.1268 114.024 30.1785 115.176C30.3631 119.186 30.5403 123.21 30.7101 127.228C30.7101 127.855 30.7619 128.483 30.7914 129.103C30.9834 133.815 31.1827 138.529 31.3895 143.245C31.5962 147.961 31.8055 152.618 32.0172 157.216C32.2092 161.647 32.1796 166.13 33.2578 170.42C34.1144 173.802 35.9015 177.103 38.8332 179.104C42.2449 181.445 46.4394 180.899 50.1613 179.658C52.2733 178.957 54.3261 178.071 56.3717 177.221C58.4172 176.372 60.485 175.486 62.5305 174.6C66.6216 172.818 70.6854 170.979 74.7223 169.084C82.8454 165.266 90.7842 161.175 98.6636 156.906C98.8908 156.811 99.1465 156.809 99.375 156.902C99.6034 156.994 99.7859 157.174 99.882 157.401C99.9776 157.635 99.977 157.898 99.8802 158.131C99.7834 158.365 99.5981 158.551 99.3649 158.649Z" fill="black"/>
<path d="M107.2 174.983C103.735 174.742 100.445 173.369 97.8369 171.076C95.2284 168.782 93.4459 165.695 92.7632 162.289C92.5417 161.196 90.8284 161.44 91.0425 162.54C91.7675 166.334 93.7247 169.783 96.6102 172.351C99.4957 174.918 103.148 176.462 107.001 176.741C108.13 176.83 108.337 175.072 107.2 174.983Z" fill="black"/>
<path d="M113.44 184.109C111.623 181.284 109.799 178.458 107.968 175.632C107.824 175.449 107.614 175.331 107.383 175.302C107.152 175.273 106.919 175.336 106.735 175.477C106.555 175.623 106.439 175.833 106.41 176.062C106.381 176.292 106.442 176.524 106.579 176.71C108.396 179.541 110.215 182.369 112.037 185.195C112.108 185.287 112.196 185.364 112.297 185.422C112.398 185.48 112.509 185.517 112.625 185.532C112.74 185.546 112.857 185.537 112.969 185.506C113.081 185.475 113.186 185.422 113.277 185.35C113.46 185.205 113.579 184.994 113.609 184.763C113.639 184.531 113.579 184.297 113.44 184.109Z" fill="black"/>
<path d="M88.333 42.8429C86.4499 45.4497 84.4562 48.2706 81.6057 49.9026C80.1083 50.7734 78.3982 51.211 76.6665 51.1667C74.9349 51.1223 73.2496 50.5978 71.7987 49.6515C70.2803 48.6319 69.0882 47.1961 68.365 45.5161C68.2674 45.3151 68.0964 45.1592 67.8872 45.0807C67.678 45.0022 67.4468 45.007 67.241 45.0942C67.0353 45.1814 66.8707 45.3444 66.7817 45.5493C66.6926 45.7543 66.6859 45.9856 66.7626 46.1955C67.5002 47.9606 68.6823 49.5045 70.1938 50.677C71.7053 51.8494 73.4949 52.6105 75.3879 52.886C79.4421 53.4398 83.0826 51.6158 85.8519 48.7802C87.2787 47.2615 88.5824 45.6317 89.7508 43.9063C90.3859 42.9463 88.9681 41.9124 88.333 42.8429Z" fill="black"/>
<path d="M72.3228 45.9002C70.3215 46.0109 68.3058 45.9814 66.2972 46.0183L60.4854 46.1143L55.6854 46.1956H55.3162L52.7389 46.2325C52.0637 46.2783 51.3853 46.2311 50.7229 46.0922C50.3965 46.0177 50.0885 45.8776 49.8179 45.6802C49.5473 45.4829 49.3199 45.2325 49.1492 44.9444C48.9785 44.6563 48.8683 44.3365 48.8252 44.0044C48.7822 43.6723 48.8074 43.3349 48.899 43.0128C49.283 41.5359 50.5752 40.7974 51.9413 40.4355C52.569 40.2657 53.2042 40.1106 53.8466 39.9777C56.4148 39.4537 59.015 39.101 61.63 38.9217C65.0338 38.6485 68.4539 38.6485 71.8576 38.9217C72.9727 39.0177 72.7659 40.7088 71.6582 40.6423C68.2648 40.4503 64.8621 40.4947 61.4748 40.7753C59.0905 40.9786 56.7191 41.3113 54.3709 41.7722C53.7875 41.8829 53.1967 42.0159 52.6133 42.1562C52.0127 42.2508 51.4488 42.506 50.9813 42.8946C50.8398 43.0259 50.7344 43.1911 50.675 43.3747C50.6155 43.5583 50.604 43.754 50.6416 43.9432C50.7893 44.3272 51.3359 44.3863 51.6756 44.4159C52.3028 44.4491 52.9313 44.4491 53.5585 44.4159H55.1389L62.8115 44.2977C65.9647 44.246 69.1475 44.091 72.3008 44.1648C73.3051 44.1648 73.3123 45.8337 72.3228 45.9002Z" fill="black"/>
<path d="M70.1288 33.9444C69.2955 33.6543 68.4029 33.5773 67.5323 33.7205C66.6617 33.8636 65.8407 34.2224 65.1442 34.7641C64.4766 35.296 63.9454 35.9795 63.5948 36.7577C63.2442 37.536 63.0843 38.3867 63.1282 39.2391C63.1611 39.4436 63.2657 39.6297 63.4233 39.764C63.581 39.8983 63.7813 39.9721 63.9884 39.9721C64.1955 39.9721 64.3959 39.8983 64.5536 39.764C64.7112 39.6297 64.8158 39.4436 64.8487 39.2391C64.8217 38.63 64.946 38.0237 65.2105 37.4743C65.2105 37.4078 65.2697 37.3413 65.3066 37.2749C65.4322 37.0755 65.5207 36.9352 65.6167 36.8096C65.7127 36.6841 65.8087 36.5733 65.912 36.4625L65.9934 36.3887L66.1928 36.2189C66.639 35.8501 67.1689 35.5965 67.736 35.4804C68.0271 35.4187 68.3256 35.3988 68.6223 35.4213C68.776 35.4276 68.9291 35.4449 69.0803 35.473H69.2501L69.501 35.5394C69.717 35.6135 69.9529 35.6029 70.1613 35.5097C70.3696 35.4164 70.5348 35.2476 70.6235 35.0373C70.6931 34.8263 70.6809 34.5968 70.5893 34.3944C70.4976 34.192 70.3333 34.0314 70.1288 33.9444Z" fill="black"/>
<path d="M70.993 29.3948C70.1769 29.1454 69.3079 29.125 68.4809 29.3357C67.6539 29.5464 66.9007 29.9801 66.3034 30.5896C65.7061 31.1991 65.2876 31.961 65.0936 32.7921C64.8997 33.6231 64.9376 34.4915 65.2034 35.3025C65.296 35.5137 65.468 35.6801 65.6821 35.7658C65.8962 35.8514 66.1354 35.8495 66.3481 35.7603C66.5552 35.6648 66.7182 35.4944 66.8046 35.2833C66.8909 35.0723 66.894 34.8363 66.8132 34.6231C66.8649 34.8151 66.8132 34.564 66.8132 34.5271C66.8132 34.4901 66.8134 34.3646 66.7765 34.2834V34.0692V33.9806C66.7654 33.8257 66.7654 33.6703 66.7765 33.5154C66.7765 33.4415 66.7765 33.3751 66.7765 33.3012C66.7786 33.2619 66.7786 33.2225 66.7765 33.1831C66.8318 32.9033 66.9368 32.6357 67.0866 32.3929C66.9462 32.5776 67.1307 32.3339 67.1529 32.2896C67.1751 32.2452 67.2344 32.1714 67.2787 32.1197L67.4114 31.9498L67.5297 31.8169L67.6404 31.7135L67.8102 31.5806L67.9801 31.4551L68.076 31.396L68.4676 31.204L68.667 31.1302L68.8516 31.0711H68.9991L69.206 31.0342H69.4202H69.7599H69.9741H70.1807C70.225 31.0342 70.5277 31.1154 70.3061 31.0342C70.5249 31.1129 70.7657 31.1047 70.9786 31.0113C71.1916 30.9178 71.3607 30.7463 71.451 30.532C71.5359 30.32 71.5356 30.0833 71.4503 29.8714C71.3649 29.6595 71.2012 29.4888 70.993 29.3948Z" fill="black"/>
<path d="M77.256 25.4227C73.1649 23.4806 68.1288 26.0356 66.866 30.2522C66.7875 30.4681 66.7948 30.7058 66.8869 30.9162C66.979 31.1266 67.1488 31.2934 67.3607 31.3821C67.5763 31.4645 67.8156 31.4588 68.0271 31.3662C68.2385 31.2737 68.4048 31.1016 68.4904 30.8873C68.944 29.3585 69.9776 28.0678 71.3703 27.291C72.176 26.8765 73.0623 26.642 73.9676 26.6038C74.8728 26.5655 75.7756 26.7244 76.6135 27.0695C76.8274 27.1355 77.0587 27.1182 77.2603 27.0208C77.462 26.9235 77.6192 26.7534 77.7006 26.5448C77.782 26.3362 77.7813 26.1045 77.6988 25.8964C77.6163 25.6882 77.4582 25.519 77.256 25.4227Z" fill="black"/>
<path d="M170.302 181.355C170.336 181.629 170.263 181.906 170.098 182.128C169.933 182.349 169.688 182.498 169.416 182.544C169.142 182.58 168.865 182.507 168.645 182.342C168.424 182.176 168.277 181.931 168.235 181.658C168.183 179.782 167.865 167.14 167.813 165.271C167.356 150.162 166.706 135.068 166.004 119.974C165.303 104.88 164.527 89.7859 163.626 74.7065C163.183 67.1397 162.731 59.5705 162.268 51.9988C161.913 46.2462 161.736 40.2499 159.705 34.7852C158.839 32.2791 157.409 30.0053 155.526 28.1391C153.353 26.1691 150.685 24.8265 147.809 24.2548C144.798 23.6784 141.729 23.4578 138.667 23.5975C135.151 23.6861 131.636 23.8929 128.129 24.0554L124.392 24.2179L122.642 24.2991C118.817 24.4763 114.519 24.72 110.036 24.9932L108.138 25.1114C97.5266 25.7686 86.0511 26.5514 77.0862 26.8985C75.9711 26.9428 75.698 25.2148 76.8352 25.1631C78.7035 25.0597 80.5717 24.9785 82.44 24.8898C89.6326 24.5575 98.989 23.9077 107.806 23.3391L109.748 23.2136C114.386 22.9182 118.817 22.6597 122.635 22.4751L124.377 22.3938L134.073 21.9582C140.188 21.6776 146.812 21.2197 152.535 23.8929C157.829 26.3889 160.843 31.3292 162.327 36.816C163.966 42.8788 164.047 49.3182 164.454 55.5434C164.946 63.2086 165.416 70.8739 165.864 78.5391C166.736 93.8695 167.521 109.207 168.22 124.553C168.899 139.898 169.734 166.01 170.302 181.355Z" fill="black"/>
<path d="M138.333 42.9459C138.3 43.1823 138.177 43.3969 137.99 43.5453C137.804 43.6937 137.567 43.7647 137.329 43.7434C134.183 43.7434 131.037 43.6991 127.891 43.6769H124.606H122.804C120.034 43.6769 116.792 43.677 113.351 43.7877L111.527 43.832C103.67 44.0388 95.0743 44.3342 88.8713 44.2308C88.6479 44.1943 88.4472 44.0738 88.3098 43.8939C88.1725 43.7141 88.1091 43.4885 88.1328 43.2634C88.1642 43.0329 88.2828 42.8233 88.4642 42.6777C88.6455 42.532 88.8756 42.4615 89.1074 42.4806C92.2533 42.4806 100.967 41.6757 104.113 41.7422L111.165 41.7939H113.004L120.847 41.8604H122.833H124.62C128.94 41.8604 133.26 41.8603 137.573 41.9785C137.798 42.0149 138.001 42.1345 138.142 42.3137C138.283 42.493 138.351 42.7186 138.333 42.9459Z" fill="black"/>
<path d="M139.5 73.526C139.5 74.8774 139.427 76.2288 139.375 77.5802C139.213 77.211 139.043 76.8417 138.873 76.4873C138.503 75.7488 138.134 75.0103 137.684 74.2719C137.684 73.1273 137.736 71.9827 137.743 70.838C137.854 61.5482 137.455 52.2657 136.731 42.9906C136.643 41.8682 138.356 41.6097 138.467 42.7395C138.777 45.8559 138.998 48.9795 139.168 52.1106C139.552 59.2442 139.663 66.3826 139.5 73.526Z" fill="black"/>
<path d="M124.606 43.6261H122.804C122.804 43.0132 122.804 42.4077 122.804 41.8022C122.804 41.5437 122.804 41.2779 122.804 41.0194C122.76 35.4514 122.713 29.8809 122.664 24.308C122.664 23.7025 122.664 23.0969 122.664 22.4914L124.407 22.4102C124.407 23.0157 124.407 23.6212 124.407 24.2268V24.692C124.446 28.4877 124.481 32.2809 124.51 36.0717C124.51 37.9868 124.537 39.8994 124.591 41.8096L124.606 43.6261Z" fill="black"/>
<path d="M47.9676 122.789L46.2395 123.439L30.7909 129.132L28.9963 129.797L28.9226 127.921L29.6167 127.663L30.7096 127.257L45.1244 121.94L46.0031 121.615L47.746 120.965L47.9676 122.789Z" fill="black"/>
<path d="M26.0065 85.488C25.7106 85.386 25.3937 85.3602 25.0852 85.4131C24.7767 85.4661 24.4865 85.596 24.2415 85.7908L23.9536 84.3951C23.9536 84.2474 23.8944 84.0923 23.8575 83.9446C22.0458 75.1422 20.2342 66.3372 18.4225 57.5299C16.9456 50.2265 15.4095 42.9231 13.9252 35.6123C13.8071 35.0363 13.6889 34.4677 13.5782 33.8917C13.3566 32.8505 13.1498 31.8092 12.9356 30.768C12.9015 30.6298 12.9015 30.4853 12.9356 30.3471C12.9881 30.2202 13.0686 30.1067 13.1709 30.015C13.2732 29.9233 13.3947 29.8558 13.5266 29.8175C13.6585 29.7792 13.7973 29.7711 13.9328 29.7938C14.0683 29.8164 14.1969 29.8692 14.3092 29.9483C14.4772 30.077 14.5905 30.2641 14.6267 30.4726C14.8409 31.4843 15.0551 32.496 15.2619 33.5077L15.6163 35.2209C16.3302 38.6671 17.0415 42.1132 17.7504 45.5594L23.2889 72.4246C24.0618 76.1612 24.8348 79.9028 25.6077 83.6492C25.748 84.24 25.881 84.8677 26.0065 85.488Z" fill="black"/>
<path d="M84.3964 92.002C84.3964 92.0906 84.3965 92.1866 84.3596 92.2826C84.2932 92.8216 84.2415 93.3681 84.2194 93.9072L82.3656 94.3503L68.6597 97.5921C60.8468 99.4383 53.0291 101.287 45.2064 103.138L43.434 103.559C43.3527 102.968 43.2568 102.377 43.1682 101.787L44.9478 101.366L53.4328 99.3497L82.5059 92.4451L84.3964 92.002Z" fill="black"/>
<path d="M110.043 24.994L108.145 25.1122L107.813 23.3399C107.244 20.386 106.617 17.4839 105.922 14.7664C105.834 14.4045 105.738 14.0279 105.642 13.6882C105.583 13.474 105.531 13.2672 105.472 13.0679C104.054 7.96509 103.22 7.1602 98.3089 7.97989C94.8603 8.54113 91.456 9.45682 88.0443 10.1953L48.965 18.7319L29.4253 23.0076L19.5522 25.1639C18.1767 25.347 16.8498 25.796 15.6457 26.4857C14.7669 27.0987 13.962 28.2432 14.3386 29.3657C14.4128 29.5633 14.4128 29.7811 14.3386 29.9786C14.2884 30.1075 14.2092 30.2231 14.1071 30.3165C14.0051 30.4098 13.883 30.4784 13.7502 30.517C13.6173 30.5555 13.4774 30.563 13.3413 30.5388C13.2051 30.5146 13.0764 30.4594 12.965 30.3774C12.8679 30.2826 12.7945 30.1662 12.7508 30.0377C12.5166 29.301 12.4908 28.5138 12.6758 27.7632C12.8609 27.0126 13.2498 26.3277 13.7996 25.7842C15.0216 24.662 16.5473 23.9248 18.186 23.6648C21.8783 22.7934 25.6592 22.018 29.3958 21.1983L70.1514 12.263L90.5258 7.83219C93.5757 7.16019 96.6994 6.73924 99.7714 6.18539C103.752 5.44693 105.827 5.89004 106.905 11.1996C107.008 11.6943 107.119 12.2039 107.244 12.7356C107.37 13.2673 107.518 13.858 107.665 14.4414C108.404 17.3953 109.312 20.6371 109.77 23.303C109.77 23.4507 109.822 23.5983 109.844 23.746C109.903 24.1079 109.977 24.551 110.043 24.994Z" fill="black"/>
<path d="M116.608 59.4794C115.973 59.3687 115.33 59.2653 114.688 59.1914C114.555 58.5637 114.414 57.936 114.282 57.3084C113.297 52.8037 112.379 48.2917 111.527 43.7723C111.387 43.0856 111.254 42.3914 111.128 41.6973H112.967C113.092 42.3693 113.218 43.0413 113.351 43.7133C113.794 46.0025 114.247 48.2893 114.71 50.5736C115.19 52.8997 115.677 55.2185 116.187 57.5373C116.325 58.192 116.465 58.8394 116.608 59.4794Z" fill="black"/>
<path d="M107.651 14.3756L105.922 14.767L85.7625 19.3381L46.2844 28.2808L15.6308 35.2223L13.9249 35.6137C13.8068 35.0377 13.6887 34.4691 13.5779 33.8931L15.2764 33.5091L50.9735 25.386L90.4518 16.4359L105.472 13.0316L107.229 12.6328C107.362 13.2137 107.503 13.7946 107.651 14.3756Z" fill="black"/>
<path d="M135.003 63.5791C134.854 63.3988 134.642 63.2823 134.41 63.2535C134.178 63.2246 133.943 63.2856 133.755 63.424L132.322 64.4062C132.049 63.6677 131.761 62.8554 131.481 62.08C131.386 61.8664 131.212 61.6981 130.996 61.6111C130.779 61.5242 130.537 61.5255 130.321 61.6148C130.112 61.7118 129.947 61.8849 129.861 62.0988C129.774 62.3128 129.773 62.5516 129.856 62.7668C130.203 63.9262 130.594 65.0856 130.904 66.2376C130.955 66.3663 131.037 66.4805 131.142 66.5695C131.248 66.6585 131.375 66.7195 131.51 66.7471C131.637 66.7767 131.768 66.7789 131.895 66.7534C132.023 66.7279 132.143 66.6754 132.249 66.5994C132.38 66.5584 132.504 66.4986 132.618 66.4222C133.356 65.9126 134.095 65.3588 134.833 64.8271C135.019 64.6825 135.14 64.4709 135.172 64.2377C135.204 64.0045 135.143 63.7681 135.003 63.5791Z" fill="black"/>
<path d="M88.6569 79.2349C88.6569 79.2349 82.1215 67.0429 98.4563 60.5076C114.791 53.9722 128.733 61.1574 135.689 69.8713C142.646 78.5851 142.439 85.3272 142.875 88.5986C143.31 91.87 141.568 97.9623 146.139 101.012C150.71 104.062 156.81 110.147 155.532 113.839C155.131 114.93 154.475 115.91 153.62 116.697C152.765 117.484 151.734 118.056 150.614 118.366C150.614 118.366 164.024 132.567 152.489 141.93C140.955 151.294 133.984 145.268 133.984 145.268C133.984 145.268 121.999 162.836 112.635 132.352C111.586 128.817 110.201 125.389 108.499 122.117C108.499 122.117 103.057 120.81 96.7432 124.51C93.2309 126.605 89.5677 128.437 85.7842 129.989C85.7842 129.989 87.5934 123.203 90.4291 121.866C92.0798 121.091 93.8415 120.578 95.6503 120.345C95.6503 120.345 93.6934 115.552 99.3426 112.503C104.992 109.453 106.092 107.717 106.528 105.975C106.964 104.232 107.399 102.053 107.399 102.053C107.399 102.053 116.106 103.139 115.67 96.1457C115.234 89.1524 108.706 91.5746 108.706 91.5746L107.229 92.6749C107.229 92.6749 102.798 92.6749 102.798 86.7673C102.798 80.8596 107.156 79.3826 107.156 79.3826C107.156 79.3826 101.499 75.2472 102.584 70.6761C103.1 68.2012 104.058 65.8396 105.413 63.7051C105.413 63.7051 98.0281 64.3623 94.742 70.0189C92.9381 73.2333 90.9043 76.3134 88.6569 79.2349Z" fill="black"/>
<path d="M159.963 112.294C158.877 106.682 152.77 105.021 148.886 101.853C146.733 100.081 145.185 97.6833 144.455 94.9923C144.415 94.7664 144.291 94.5642 144.107 94.427C143.923 94.2897 143.694 94.2278 143.466 94.2539C143.352 94.2702 143.243 94.3087 143.144 94.3673C143.045 94.4259 142.959 94.5034 142.891 94.5953C142.822 94.6872 142.772 94.7918 142.744 94.9031C142.716 95.0143 142.71 95.1299 142.727 95.2434C143.309 97.5756 144.435 99.7367 146.013 101.55C147.726 103.492 149.898 104.77 152.098 106.084C154.085 107.266 156.16 108.587 157.393 110.611C158.006 111.577 158.319 112.703 158.295 113.848C158.27 114.992 157.908 116.103 157.254 117.042C156.6 117.982 155.684 118.707 154.619 119.127C153.555 119.548 152.39 119.645 151.271 119.406C150.112 119.192 149.912 121.016 151.064 121.23C152.287 121.463 153.548 121.393 154.737 121.026C155.926 120.658 157.006 120.005 157.884 119.123C158.762 118.242 159.411 117.158 159.773 115.968C160.136 114.777 160.201 113.516 159.963 112.294Z" fill="black"/>
<path d="M160.701 133.193C160.704 131.239 160.456 129.293 159.963 127.403C158.899 123.711 155.982 120.144 151.899 119.834C151.669 119.807 151.437 119.873 151.256 120.018C151.074 120.162 150.958 120.372 150.931 120.602C150.905 120.832 150.971 121.063 151.115 121.245C151.259 121.426 151.469 121.543 151.699 121.569C154.793 121.879 157.001 124.427 157.991 127.211C158.534 128.857 158.83 130.574 158.87 132.306C158.983 134.076 158.912 135.854 158.656 137.609C158.425 139.219 157.823 140.753 156.898 142.091C156.027 143.268 154.943 144.27 153.7 145.045C151.046 146.649 148.007 147.506 144.905 147.526C143.021 147.575 141.139 147.359 139.315 146.884C137.482 146.323 135.702 145.599 133.998 144.72C133.794 144.646 133.569 144.647 133.365 144.723C133.161 144.799 132.991 144.945 132.885 145.136C132.78 145.326 132.745 145.548 132.788 145.761C132.831 145.974 132.948 146.166 133.119 146.3C134.699 147.35 136.448 148.119 138.289 148.575C140.101 149.093 141.972 149.378 143.857 149.424C147.406 149.563 150.926 148.733 154.04 147.024C155.575 146.192 156.92 145.052 157.992 143.674C159.063 142.296 159.837 140.711 160.266 139.019C160.66 137.104 160.807 135.145 160.701 133.193Z" fill="black"/>
<path d="M96.1303 119.273C93.073 118.409 89.905 118.143 87.0693 119.827C85.8409 120.564 84.8095 121.588 84.0635 122.812C83.3176 124.035 82.8794 125.42 82.7864 126.85C82.6329 128.599 83.0499 130.35 83.9752 131.842C84.5807 132.691 85.8877 131.842 85.5185 130.934C85.1928 130.209 84.9453 129.451 84.78 128.674C84.6471 127.88 84.6471 127.068 84.78 126.274C85.0033 124.843 85.6786 123.52 86.7073 122.5C87.6955 121.501 88.9569 120.815 90.3333 120.529C92.1554 120.289 94.0076 120.437 95.7682 120.964C96.6692 121.223 97.0903 119.547 96.1303 119.273Z" fill="black"/>
<path d="M19.9066 29.0252C19.8481 28.8578 19.7633 28.7008 19.6555 28.56C19.625 28.5172 19.5905 28.4776 19.5522 28.4418C19.466 28.3457 19.372 28.2568 19.2715 28.1759C19.1709 28.1057 19.0648 28.044 18.954 27.9913C18.9085 27.9618 18.8587 27.9393 18.8063 27.9248C18.5689 27.845 18.317 27.8173 18.0679 27.8436C18.0138 27.8395 17.9593 27.8395 17.9053 27.8436C17.7837 27.8718 17.665 27.9114 17.5508 27.9618L17.4253 28.0282L17.2259 28.1464C16.9479 28.3381 16.7403 28.6157 16.6351 28.9366C16.5213 29.2487 16.4984 29.5866 16.5688 29.9113C16.5965 30.0744 16.6514 30.2317 16.7312 30.3765C16.8397 30.5873 16.9875 30.7753 17.1668 30.9304L17.2777 31.0117C17.382 31.0755 17.4905 31.1323 17.6026 31.1815C17.7547 31.2455 17.9176 31.2805 18.0827 31.2849C18.4149 31.3077 18.7468 31.2387 19.0425 31.0855C19.1468 31.0337 19.2458 30.9719 19.338 30.9009C19.4336 30.8249 19.5225 30.7409 19.6038 30.6498C19.7103 30.5189 19.7997 30.375 19.8697 30.2215C19.891 30.1796 19.906 30.1348 19.914 30.0886C19.957 29.9699 19.9817 29.8454 19.9878 29.7193C20.0055 29.4849 19.978 29.2492 19.9066 29.0252Z" fill="#007AFF"/>
<path d="M24.7932 27.7771C24.7347 27.6098 24.6499 27.4527 24.5421 27.3119C24.5116 27.2692 24.4771 27.2296 24.4388 27.1937C24.3526 27.0977 24.2586 27.0088 24.1581 26.9279C24.0575 26.8577 23.9514 26.7959 23.8406 26.7433C23.795 26.7137 23.7453 26.6913 23.6929 26.6768C23.4555 26.597 23.2036 26.5693 22.9545 26.5956C22.9004 26.5915 22.8459 26.5915 22.7919 26.5956C22.6703 26.6238 22.5516 26.6634 22.4374 26.7138L22.3119 26.7802L22.1125 26.8984C21.8345 27.09 21.6269 27.3676 21.5217 27.6885C21.4079 28.0006 21.385 28.3386 21.4554 28.6633C21.4831 28.8263 21.538 28.9836 21.6178 29.1285C21.7263 29.3393 21.8741 29.5273 22.0534 29.6823L22.1643 29.7636C22.2686 29.8275 22.3771 29.8842 22.4892 29.9334C22.6413 29.9974 22.8042 30.0325 22.9693 30.0368C23.3015 30.0596 23.6334 29.9906 23.9291 29.8374C24.0334 29.7857 24.1324 29.7238 24.2246 29.6528C24.3202 29.5769 24.4091 29.4928 24.4904 29.4017C24.5969 29.2709 24.6863 29.127 24.7563 28.9734C24.7776 28.9316 24.7925 28.8868 24.8006 28.8405C24.8436 28.7218 24.8683 28.5974 24.8744 28.4713C24.8921 28.2368 24.8646 28.0012 24.7932 27.7771Z" fill="#007AFF"/>
<path fill-rule="evenodd" clip-rule="evenodd" d="M32.5849 46.5234C32.5338 46.326 32.6523 46.1245 32.8497 46.0734L43.5725 43.2949C43.7699 43.2437 43.9714 43.3623 44.0226 43.5597L44.7635 46.4191C44.8146 46.6165 44.6961 46.818 44.4987 46.8691L33.7759 49.6477C33.5785 49.6988 33.377 49.5802 33.3259 49.3828L32.5849 46.5234ZM34.2129 48.3901L33.8424 46.9604L43.1355 44.5524L43.506 45.9821L34.2129 48.3901Z" fill="white"/>
<path d="M43.459 50.9528C43.3823 50.6567 43.0801 50.4788 42.784 50.5556C42.4879 50.6323 42.31 50.9345 42.3867 51.2306L42.874 53.1112L44.8501 54.0781C45.1248 54.2126 45.4566 54.0988 45.591 53.8241C45.7255 53.5493 45.6117 53.2176 45.337 53.0832L43.8185 52.3401L43.459 50.9528Z" fill="white"/>
<path fill-rule="evenodd" clip-rule="evenodd" d="M36.0718 56.2998L34.4973 50.2236L35.5696 49.9457L37.0051 55.4858L39.5137 54.8358C39.2907 54.4712 39.117 54.068 39.0042 53.6328C38.7414 52.6185 38.852 51.5952 39.2503 50.7084L37.9522 51.0447L37.6743 49.9725L40.2428 49.3069C40.7699 48.8058 41.428 48.4277 42.1819 48.2323C44.5508 47.6185 46.9687 49.0412 47.5825 51.41C48.1963 53.7788 46.7736 56.1967 44.4048 56.8105C42.8921 57.2025 41.3595 56.764 40.2894 55.7791L36.7469 56.697C36.4508 56.7738 36.1485 56.5959 36.0718 56.2998ZM46.5102 51.6878C46.9706 53.4645 45.9035 55.2779 44.1269 55.7382C42.3503 56.1986 40.5369 55.1316 40.0765 53.355C39.6162 51.5784 40.6832 49.7649 42.4598 49.3046C44.2364 48.8442 46.0498 49.9112 46.5102 51.6878Z" fill="white"/>
</svg>
