<svg width="128" height="128" viewBox="0 0 128 128" fill="none" xmlns="http://www.w3.org/2000/svg">
<g id="Group 196">
<g id="Group 195">
<g id="Group 194">
<path id="Vector" d="M15.0238 63.5902C14.8904 63.5473 14.7697 63.4721 14.6725 63.3712C14.5753 63.2703 14.5045 63.1469 14.4667 63.0121C14.3549 62.6706 14.3549 62.3024 14.4667 61.961L14.5998 61.5371C14.6454 61.4004 14.7014 61.2288 14.7645 61.0291C14.8276 60.8294 14.9151 60.5982 15.0062 60.3284C16.2422 56.8766 17.9876 53.6291 20.1845 50.6936C20.8852 49.7547 21.6525 48.8157 22.4723 47.9188C23.2921 47.0219 24.1645 46.167 25.0614 45.3297C26.793 43.7553 28.6529 42.328 30.6215 41.0624C32.2788 39.9927 34.0012 39.0273 35.7787 38.172C37.3168 37.4292 38.6166 36.8932 39.531 36.5393C39.9865 36.3642 40.3473 36.2275 40.5821 36.1399L40.9605 36.0033C41.0236 35.9809 41.0878 35.9622 41.1531 35.9472L41.3914 35.8631C42.3782 35.503 43.4629 35.518 44.4395 35.9052C45.0821 36.1484 45.6154 36.6156 45.9411 37.2207C46.2668 37.8258 46.3631 38.5281 46.2123 39.1985L46.3104 39.174C47.2645 38.9027 48.2872 39.0198 49.1552 39.4998C49.539 39.7124 49.871 40.0075 50.1272 40.3637C50.3835 40.7199 50.5576 41.1284 50.6372 41.5599C50.7479 42.2194 50.6575 42.8969 50.3779 43.5044C50.107 44.0988 49.684 44.6112 49.1517 44.9899C49.516 45.3955 49.7706 45.8876 49.891 46.4193C50.0445 47.1007 49.9945 47.8122 49.7473 48.4654C49.5261 49.0754 49.1285 49.6059 48.6051 49.9894C48.934 50.3774 49.1733 50.8332 49.3058 51.3243C49.5312 52.134 49.4857 52.9952 49.1762 53.7767C49.0521 54.1155 48.8578 54.4242 48.606 54.6826C48.3542 54.941 48.0507 55.1433 47.7153 55.2763C47.7153 55.2763 47.4104 55.3814 46.962 55.5566C46.5135 55.7317 45.911 55.9735 45.3504 56.2327C44.7898 56.492 44.2152 56.7688 43.8053 56.986L43.3148 57.2488L43.1326 57.3504C43.0906 57.3741 43.0458 57.3929 42.9995 57.4064L42.8418 57.494L42.4074 57.7498C42.0395 57.9705 41.521 58.2963 40.9324 58.7062C40.2798 59.1645 39.6517 59.6568 39.051 60.1812C38.3998 60.7565 37.7887 61.3758 37.2221 62.0346C36.2038 63.2135 35.3602 64.5326 34.7171 65.9515C34.4544 66.5296 34.2721 67.0341 34.146 67.3915C34.0795 67.5667 34.0409 67.7138 34.0094 67.8084C33.9779 67.903 32.9584 70.874 32.9584 70.874C32.8532 71.2244 31.1611 70.2364 30.6355 70.0998L15.0238 63.5902Z" fill="white"/>
<path id="Vector_2" d="M31.0804 71.3504C30.8526 71.2488 30.5128 71.0911 30.4112 71.0631H30.3447L14.6944 64.5185C14.4215 64.426 14.1744 64.2702 13.9734 64.0637C13.7724 63.8573 13.6233 63.6061 13.5382 63.3308C13.3629 62.7923 13.3629 62.2121 13.5382 61.6736L13.843 60.7311C13.8885 60.584 13.9481 60.4194 14.0111 60.2442L14.0917 60.0235C14.6106 58.5582 15.2239 57.1281 15.9276 55.7421C16.9192 53.7744 18.0835 51.8985 19.4066 50.1364C20.1809 49.0854 20.9727 48.1464 21.7575 47.2881C22.5913 46.3736 23.4848 45.4802 24.4062 44.6394C26.1783 43.0278 28.0815 41.5665 30.0959 40.2705C31.7846 39.1776 33.5397 38.1912 35.3512 37.317C36.623 36.7074 37.9088 36.1468 39.1736 35.6563C39.6466 35.4741 40.011 35.3375 40.2562 35.2499L40.6415 35.1098L40.8834 35.0362L41.076 34.9696C41.6633 34.7614 42.2817 34.6548 42.9048 34.6543C43.5646 34.6528 44.2182 34.7814 44.8283 35.0327C45.3864 35.2561 45.8855 35.6054 46.2865 36.0532C46.6876 36.5011 46.9799 37.0355 47.1406 37.6148C47.1814 37.7691 47.2118 37.9259 47.2317 38.0843C48.0768 38.0588 48.9126 38.2648 49.6491 38.6799C50.1571 38.9643 50.596 39.3573 50.9346 39.8309C51.2731 40.3045 51.5029 40.847 51.6076 41.4196C51.755 42.2733 51.6402 43.1516 51.2783 43.9387C51.0728 44.3921 50.796 44.8096 50.4585 45.1755C50.6368 45.5065 50.77 45.86 50.8544 46.2265C51.0503 47.0957 50.9869 48.0031 50.6722 48.8366C50.493 49.3212 50.2284 49.7698 49.8909 50.161C50.041 50.4569 50.1585 50.7682 50.2413 51.0894C50.5256 52.11 50.4665 53.1958 50.0731 54.1795C49.8975 54.6448 49.6256 55.0678 49.2755 55.4209C48.9254 55.7741 48.5048 56.0494 48.0411 56.2291L47.8799 56.2852L47.3123 56.5024C47.0075 56.6215 46.3979 56.8527 45.7462 57.161C45.2592 57.3818 44.6952 57.6445 44.2607 57.8618L43.7807 58.121L43.602 58.2191C43.5348 58.2586 43.4645 58.2926 43.3919 58.3207L42.9048 58.6045C42.5369 58.8287 42.0464 59.1335 41.5034 59.5259C40.881 59.9608 40.2822 60.4286 39.7096 60.9274C39.0872 61.4714 38.5019 62.0567 37.9579 62.6791C37.0004 63.7904 36.2064 65.0327 35.6 66.3684C35.3617 66.8904 35.1971 67.3459 35.0569 67.7312C35.0254 67.8153 35.0009 67.8924 34.9799 67.9695C34.9588 68.0465 34.9448 68.0781 34.9308 68.1201C34.8572 68.3374 34.0584 70.6777 33.8797 71.1787C33.804 71.4019 33.6587 71.5949 33.465 71.7292C33.2714 71.8636 33.0397 71.9322 32.8042 71.925C32.3908 71.9565 31.8757 71.7323 31.0804 71.3504ZM33.8412 65.559C34.1589 64.8647 34.5193 64.1908 34.9203 63.541C35.3927 62.7949 35.9172 62.0831 36.4899 61.4108C37.0883 60.7172 37.7333 60.0653 38.4204 59.4594C39.0475 58.9108 39.7035 58.3962 40.3858 57.9178C40.9919 57.4939 41.521 57.1645 41.9169 56.9228L42.1937 56.7616L42.642 56.5059L42.7087 56.4884L43.3673 56.138C43.8613 55.8787 44.4429 55.595 44.9614 55.3602C45.6621 55.0484 46.2998 54.7891 46.6256 54.6595C47.0495 54.4948 47.2738 54.4108 47.4174 54.3617C47.6183 54.2723 47.799 54.1429 47.9483 53.9815C48.0977 53.8201 48.2127 53.63 48.2863 53.4228C48.5166 52.8409 48.5486 52.1993 48.3774 51.5974C48.2836 51.2432 48.1125 50.9142 47.8764 50.634L47.1757 49.8211L48.0446 49.201C48.4078 48.937 48.6845 48.5712 48.8399 48.15C49.0192 47.6757 49.0557 47.1593 48.9449 46.6645C48.8628 46.2982 48.6878 45.9591 48.4369 45.6799L47.6907 44.8601L48.5946 44.219C48.9851 43.9421 49.2948 43.5659 49.4915 43.1294C49.6919 42.7025 49.7579 42.2247 49.6807 41.7595C49.6269 41.4694 49.5091 41.1949 49.3357 40.9561C49.1624 40.7173 48.9379 40.5201 48.6787 40.3791C48.2788 40.1498 47.8259 40.029 47.3649 40.0287C47.0998 40.0287 46.8358 40.0641 46.58 40.1339L44.9369 40.5823L45.2628 39.0127C45.3348 38.7121 45.3348 38.3988 45.2628 38.0983C45.1805 37.8082 45.031 37.5416 44.8265 37.32C44.6219 37.0985 44.3681 36.9282 44.0855 36.823C43.7178 36.6718 43.3235 36.5956 42.9259 36.5988C42.5237 36.6005 42.1248 36.6692 41.7452 36.802L41.4509 36.9071H41.3949L41.3247 36.9281L40.9429 37.0683C40.7117 37.1488 40.3613 37.282 39.8918 37.4571C38.6761 37.9301 37.4393 38.4696 36.2166 39.0547C34.4739 39.893 32.7854 40.8397 31.161 41.8891C29.2374 43.1244 27.4208 44.5191 25.7305 46.0583C24.8512 46.8607 23.9997 47.712 23.2044 48.5844C22.4617 49.3972 21.712 50.3046 20.9762 51.2856C19.7225 52.9583 18.618 54.738 17.6758 56.604C17.0063 57.9178 16.4212 59.2729 15.9241 60.6611L15.847 60.8818C15.7874 61.043 15.7349 61.1901 15.6929 61.3197L15.3916 62.2517C15.3518 62.3854 15.3518 62.5279 15.3916 62.6616L30.9859 69.1852C31.299 69.2916 31.6044 69.4193 31.9002 69.5671L32.3277 69.7598L33.0914 67.5175V67.4965C33.0914 67.472 33.0914 67.4404 33.1195 67.4054C33.1475 67.3704 33.1825 67.2022 33.2351 67.055C33.3507 66.7748 33.5714 66.2107 33.8412 65.5731V65.559Z" fill="black"/>
<path id="Vector_3" d="M12.1018 62.3252L12.0388 62.4689L11.8706 62.8753L11.6113 63.5129C11.5062 63.7687 11.3976 64.0524 11.261 64.3677L10.8545 65.4188C10.7144 65.7937 10.5603 66.2036 10.3991 66.6416C10.0488 67.514 9.73345 68.4914 9.34806 69.56C7.58116 74.7501 6.08198 80.0276 4.8565 85.3715C4.18382 88.2794 3.60226 91.2084 3.12928 93.9762C2.86652 95.3531 2.69132 96.7019 2.49863 97.9772C2.40403 98.6114 2.31293 99.235 2.22534 99.8341C2.13775 100.433 2.08517 101.022 2.0186 101.586C1.89247 102.707 1.77335 103.734 1.66825 104.644C1.56314 105.555 1.52458 106.361 1.47203 107.02C1.36692 108.334 1.30737 109.087 1.30737 109.087L25.7972 110.73C25.7972 110.73 25.8462 110.11 25.9338 109.02C25.9793 108.477 26.0248 107.819 26.0949 107.058C26.165 106.298 26.2806 105.447 26.3857 104.515C26.4418 104.045 26.4943 103.562 26.5574 103.057C26.6205 102.553 26.708 102.034 26.7886 101.502C26.9498 100.451 27.0899 99.3051 27.3141 98.1454C27.7135 95.8155 28.2041 93.3385 28.7752 90.8755C29.8084 86.3676 31.0726 81.9158 32.5625 77.5376C32.8708 76.6582 33.1476 75.8418 33.4138 75.1446L33.7642 74.1602C33.8798 73.8659 33.9849 73.5926 34.0795 73.3473C34.1741 73.1021 34.2617 72.8814 34.3352 72.7027L34.5209 72.2437C34.5735 72.1141 34.6121 72.0195 34.6366 71.9669C34.6611 71.9144 34.6751 71.8794 34.6751 71.8794L12.1018 62.3252Z" fill="#1D4ED8"/>
<path id="Vector_4" d="M25.9162 112.023C25.851 112.03 25.7853 112.03 25.7201 112.023C25.3757 111.995 25.0562 111.832 24.8317 111.57C24.6071 111.307 24.4957 110.966 24.5218 110.622L24.6585 108.912C24.6761 108.712 24.6935 108.502 24.7111 108.274C24.7391 107.878 24.7741 107.426 24.8197 106.936C24.8197 106.936 24.8197 106.936 24.8197 106.908L25.114 104.361C25.135 104.189 25.1525 104.01 25.1735 103.842C25.2086 103.534 25.2436 103.215 25.2822 102.889V102.861L25.5099 101.306C25.5589 101.001 25.6009 100.693 25.6465 100.381C25.7621 99.5855 25.8813 98.7622 26.0459 97.9073C26.4663 95.4548 26.9638 92.9813 27.5174 90.5779C28.5608 86.0249 29.8377 81.5286 31.3432 77.1068L31.6165 76.3255C31.8197 75.7404 32.016 75.1833 32.2087 74.6823L32.559 73.7048C32.559 73.7048 32.559 73.7049 32.559 73.6838L32.8743 72.871L32.99 72.5767L12.7815 64.0491C12.6834 64.2909 12.5783 64.5536 12.4662 64.8479L12.0598 65.8989L11.6114 67.1147C11.3661 67.7594 11.1173 68.4706 10.8545 69.2168C10.7634 69.4726 10.6724 69.7354 10.5778 70.0051C8.8273 75.1484 7.34096 80.3778 6.12476 85.6729C5.48011 88.4758 4.90206 91.3452 4.41157 94.2076C4.41301 94.2157 4.41301 94.224 4.41157 94.2321C4.22237 95.2236 4.06118 96.2116 3.93855 97.168C3.8895 97.5184 3.84048 97.8477 3.79143 98.1841L3.52165 100.02C3.4726 100.41 3.4271 100.792 3.38505 101.166C3.36403 101.362 3.33944 101.554 3.31842 101.744L2.96807 104.781C2.91201 105.384 2.8665 105.941 2.82796 106.435C2.82796 106.68 2.79296 106.915 2.77193 107.136L2.6107 109.196C2.59713 109.367 2.55 109.534 2.47196 109.687C2.39392 109.84 2.28653 109.976 2.15591 110.087C2.02529 110.198 1.87401 110.283 1.71069 110.336C1.54737 110.389 1.37522 110.409 1.20407 110.396C1.03291 110.382 0.866109 110.335 0.713177 110.257C0.560246 110.179 0.424212 110.071 0.312785 109.941C0.201358 109.81 0.116749 109.659 0.0637907 109.496C0.0108325 109.332 -0.00948592 109.16 0.00408682 108.989L0.165236 106.922C0.186257 106.705 0.20383 106.477 0.221347 106.221C0.26339 105.717 0.308905 105.146 0.364962 104.522C0.364962 104.522 0.364962 104.504 0.364962 104.494L0.715316 101.435C0.736337 101.243 0.757337 101.053 0.781862 100.861C0.823905 100.475 0.869502 100.076 0.922055 99.6731C0.920342 99.6638 0.920342 99.6543 0.922055 99.6451L1.19534 97.7882C1.24439 97.4378 1.29341 97.1225 1.34246 96.7827C1.48611 95.8017 1.63322 94.7892 1.82942 93.7486C2.32692 90.8407 2.91201 87.9257 3.58119 85.0808C4.81867 79.6934 6.33073 74.3728 8.11132 69.1397C8.20942 68.8629 8.30053 68.6002 8.38812 68.3445C8.65789 67.5772 8.91013 66.8519 9.16589 66.1792L9.61778 64.967L10.0242 63.916C10.1469 63.5972 10.2625 63.3064 10.3746 63.0401L10.8686 61.8384C10.9348 61.6797 11.0318 61.5357 11.1538 61.4145C11.2759 61.2934 11.4206 61.1975 11.5798 61.1324C11.739 61.0673 11.9093 61.0343 12.0813 61.0352C12.2532 61.0361 12.4234 61.0709 12.5818 61.1376L35.1971 70.6813C35.3562 70.7475 35.5007 70.8446 35.6221 70.9669C35.7436 71.0892 35.8396 71.2343 35.9048 71.3939C35.9699 71.5534 36.0028 71.7243 36.0016 71.8966C36.0004 72.069 35.9651 72.2394 35.8978 72.398L35.8593 72.4856L35.7577 72.7308L35.572 73.1933C35.4984 73.3615 35.4214 73.5647 35.3233 73.817L35.0115 74.6228L34.6612 75.5968C34.4825 76.0662 34.2932 76.6058 34.0935 77.1769C34.006 77.4326 33.9148 77.6919 33.8203 77.9581C32.3476 82.2895 31.0976 86.6934 30.075 91.1525C29.5319 93.5139 29.0449 95.9348 28.6315 98.3488C28.6315 98.3488 28.6315 98.3698 28.6315 98.3768C28.4773 99.1756 28.3618 99.9744 28.2497 100.745C28.2041 101.064 28.1585 101.376 28.1095 101.684L27.8818 103.222C27.8432 103.53 27.8117 103.828 27.7766 104.123C27.7766 104.301 27.7381 104.473 27.7171 104.652L27.4263 107.181C27.3843 107.647 27.3492 108.082 27.3212 108.467C27.3037 108.698 27.2862 108.915 27.2687 109.115L27.1321 110.821C27.1082 111.135 26.9721 111.429 26.7487 111.649C26.5253 111.87 26.2297 112.003 25.9162 112.023Z" fill="#1D4ED8"/>
<path id="Vector_5" d="M13.6644 107.903H13.6014C13.4474 107.897 13.3018 107.831 13.1962 107.719C13.0906 107.607 13.0335 107.458 13.0373 107.304C13.0373 107.17 13.153 103.919 14.2285 97.9527C15.2165 92.4627 17.2451 83.5566 21.3092 72.2893C21.3671 72.1523 21.4752 72.0427 21.6114 71.983C21.7476 71.9233 21.9014 71.9181 22.0414 71.9683C22.1813 72.0185 22.2967 72.1204 22.3638 72.2531C22.431 72.3858 22.4448 72.5392 22.4023 72.6817C18.3662 83.872 16.3517 92.7114 15.3707 98.1594C14.3196 104.042 14.2005 107.307 14.2005 107.339C14.1974 107.483 14.1407 107.62 14.0416 107.724C13.9424 107.829 13.808 107.892 13.6644 107.903Z" fill="black"/>
<path id="Vector_6" d="M6.7659 97.6724C6.65451 97.6805 6.54317 97.656 6.44548 97.6019C6.34779 97.5478 6.26796 97.4663 6.21582 97.3676C6.17947 97.3004 6.15672 97.2267 6.14885 97.1507C6.14097 97.0748 6.14817 96.998 6.16997 96.9248C6.19177 96.8516 6.22771 96.7834 6.27587 96.7241C6.32402 96.6648 6.38344 96.6156 6.45061 96.5793C9.27447 95.0587 13.0723 94.1478 17.7355 93.8816C19.7872 93.7539 21.8454 93.7714 23.8947 93.9341C24.0414 93.9564 24.1742 94.0341 24.2655 94.1511C24.3569 94.2681 24.4001 94.4156 24.3862 94.5634C24.3723 94.7113 24.3024 94.8482 24.1909 94.9461C24.0793 95.0441 23.9345 95.0956 23.7861 95.0903C23.681 95.0903 13.3946 94.1583 7.00412 97.6058C6.92981 97.6433 6.8489 97.6659 6.7659 97.6724Z" fill="black"/>
<path id="Vector_7" d="M24.217 92.8024C24.1063 92.81 23.9956 92.7857 23.8982 92.7324C23.8176 92.6868 15.6019 88.2478 8.2094 89.2603C8.13372 89.2707 8.0567 89.2661 7.98282 89.2467C7.90893 89.2273 7.83957 89.1935 7.77873 89.1473C7.71789 89.1011 7.6668 89.0434 7.62827 88.9774C7.58975 88.9114 7.56455 88.8385 7.5542 88.7628C7.54385 88.6871 7.54849 88.6102 7.56788 88.5363C7.58728 88.4624 7.62108 88.3931 7.66728 88.3322C7.71347 88.2714 7.77119 88.2203 7.83715 88.1817C7.90311 88.1432 7.97599 88.118 8.05167 88.1077C15.8365 87.0566 24.1084 91.5236 24.4588 91.7128C24.5688 91.7735 24.6563 91.8682 24.708 91.9827C24.7598 92.0972 24.773 92.2255 24.7457 92.3481C24.7185 92.4708 24.6524 92.5814 24.5571 92.6633C24.4617 92.7452 24.3424 92.794 24.217 92.8024Z" fill="black"/>
</g>
<g id="Group 193">
<rect id="Rectangle 1598" x="27.4898" y="25.7684" width="88.2235" height="48.9839" rx="7.11656" transform="rotate(-15 27.4898 25.7684)" fill="white" stroke="black" stroke-width="4.26994"/>
<g id="Mask group">
<mask id="mask0_8205_1796" style="mask-type:alpha" maskUnits="userSpaceOnUse" x="34" y="19" width="47" height="48">
<rect id="Rectangle 1597" x="33.3665" y="28.875" width="39.2396" height="39.9404" rx="4.62577" transform="rotate(-15 33.3665 28.875)" fill="#007AFF"/>
</mask>
<g mask="url(#mask0_8205_1796)">
<rect id="Rectangle 1599" x="25.1829" y="17.2847" width="69.3701" height="62.7134" transform="rotate(-15 25.1829 17.2847)" fill="#1D4ED8"/>
<g id="Group 190">
<path id="Vector_8" d="M83.1405 58.8146L80.6451 55.1052C79.8144 53.8714 78.6735 52.8781 77.3372 52.2251C76.0008 51.572 74.5161 51.2824 73.0323 51.3852L60.9241 52.2211L48.5426 57.5737C46.9933 58.2412 45.6785 59.3558 44.7664 60.7749C43.8543 62.194 43.3864 63.853 43.4228 65.5396L43.5087 69.4339L83.1405 58.8146Z" fill="black"/>
<path id="Vector_9" d="M59.2133 65.5447L66.1136 63.6958L65.3054 57.0788L60.5744 55.9236L56.5876 59.6578L59.2133 65.5447Z" fill="white"/>
<path id="Vector_10" d="M66.4987 63.9553L59.0129 65.9611L56.1655 59.5713L60.4711 55.5377L65.6244 56.7938L66.4987 63.9553ZM59.4103 65.1292L65.7285 63.4363L64.9854 57.3603L60.6734 56.3068L57.0088 59.7408L59.4103 65.1292Z" fill="black"/>
<path id="Vector_11" d="M47.2814 41.1319C47.2814 41.1319 43.7004 35.0622 44.7927 31.8424C45.9185 28.5447 46.9275 25.8549 50.724 26.6766C54.5206 27.4983 53.4212 24.8441 58.3636 25.1774C61.093 25.3601 63.2647 26.7911 63.6021 28.7138C63.9396 30.6364 65.2628 35.5883 64.1011 37.9127C62.9393 40.237 51.2184 45.1985 47.2814 41.1319Z" fill="black"/>
<path id="Vector_12" d="M60.3035 55.9962L60.3205 55.9916C59.3349 56.2509 58.2867 56.1092 57.4053 55.5977C56.5239 55.0861 55.881 54.2464 55.6173 53.262L52.0083 39.793C51.7498 38.8103 51.8898 37.7655 52.3978 36.8855C52.9058 36.0056 53.7409 35.3619 54.7211 35.0945L54.7041 35.099C55.6867 34.8405 56.7317 34.9804 57.6117 35.4885C58.4916 35.9965 59.1353 36.8314 59.4027 37.8116L63.0117 51.2807C63.2755 52.265 63.1386 53.3137 62.6311 54.1974C62.1236 55.0811 61.2866 55.728 60.3035 55.9962Z" fill="white"/>
<path id="Vector_13" d="M60.4213 56.3273L60.3977 56.3336C59.3248 56.6096 58.1862 56.451 57.2297 55.8923C56.2731 55.3336 55.5757 54.42 55.289 53.3499L51.68 39.8809C51.3985 38.8126 51.5488 37.6765 52.0983 36.7181C52.6479 35.7598 53.5527 35.0562 54.6169 34.7596L54.6473 34.7515C55.7173 34.4762 56.8525 34.6332 57.8076 35.1883C58.7627 35.7435 59.4609 36.6523 59.7513 37.7182L63.3603 51.1873C63.6471 52.2573 63.4999 53.3972 62.9508 54.3593C62.4018 55.3215 61.4952 56.0281 60.4281 56.3255L60.4213 56.3273ZM54.8256 35.4437C53.9367 35.6885 53.1802 36.2737 52.72 37.0726C52.2599 37.8715 52.1331 38.8196 52.3673 39.7113L55.9763 53.1803C56.0826 53.6342 56.279 54.062 56.5539 54.4385C56.8288 54.815 57.1766 55.1324 57.5765 55.3718C57.9765 55.6113 58.4205 55.7679 58.8821 55.8324C59.3438 55.8969 59.8139 55.8681 60.2642 55.7474C60.7144 55.6268 61.1358 55.4168 61.5034 55.1301C61.8709 54.8434 62.1771 54.4857 62.4037 54.0784C62.6304 53.671 62.7729 53.2223 62.8227 52.7588C62.8725 52.2953 62.8287 51.8266 62.6939 51.3804L59.0848 37.9113C58.842 37.0225 58.2588 36.2652 57.4616 35.8033C56.6644 35.3415 55.7174 35.2123 54.8256 35.4437Z" fill="black"/>
<path id="Vector_14" d="M50.3691 44.9676C51.1953 44.4869 51.1228 42.8215 50.2072 41.2477C49.2916 39.6739 47.8796 38.7877 47.0533 39.2683C46.2271 39.749 46.2997 41.4146 47.2153 42.9884C48.1309 44.5622 49.5429 45.4483 50.3691 44.9676Z" fill="white"/>
<path id="Vector_15" d="M50.2197 45.5718C49.2045 45.8438 47.8252 44.933 46.8966 43.3356C46.4496 42.5975 46.1818 41.7649 46.1147 40.9046C46.0785 40.0656 46.3457 39.4389 46.8633 39.137C47.3809 38.8351 48.0553 38.9155 48.7638 39.3532C49.4799 39.8347 50.0715 40.4792 50.4901 41.2338C51.5184 43.0003 51.5342 44.846 50.5267 45.4314C50.4316 45.4925 50.3282 45.5399 50.2197 45.5718ZM47.3577 39.6828C47.3074 39.6962 47.2591 39.7165 47.2143 39.7431C46.9383 39.9041 46.7915 40.317 46.8179 40.8758C46.8784 41.6226 47.113 42.3447 47.5027 42.9846C48.3761 44.4843 49.6129 45.1613 50.1752 44.8365C50.7374 44.5118 50.7578 43.099 49.8835 41.5959C49.5215 40.9405 49.0109 40.3791 48.3925 39.9569C48.0975 39.7323 47.7253 39.6337 47.3577 39.6828Z" fill="black"/>
<path id="Vector_16" d="M61.4235 38.4094C61.4166 40.2248 62.1843 41.7093 63.143 41.7135C64.1017 41.7178 64.875 40.2449 64.8834 38.4218C64.8918 36.5987 64.1192 35.1227 63.1638 35.1175C62.2085 35.1123 61.4328 36.5897 61.4235 38.4094Z" fill="white"/>
<path id="Vector_17" d="M63.479 42.019C63.3651 42.0513 63.2472 42.0671 63.1288 42.0657C61.9636 42.0624 61.0517 40.446 61.0617 38.4121C61.0485 37.5495 61.2386 36.6959 61.6164 35.9204C62.0084 35.1769 62.5556 34.7692 63.1575 34.782C63.7595 34.7948 64.2999 35.2012 64.6863 35.9392C65.06 36.7173 65.2444 37.5725 65.2246 38.4354C65.23 40.2693 64.4943 41.747 63.479 42.019ZM61.7857 38.4067C61.7801 40.1456 62.5033 41.3555 63.1569 41.3581C63.8105 41.3607 64.5389 40.1535 64.5454 38.418C64.5657 37.6688 64.4087 36.9255 64.0873 36.2485C63.8274 35.7523 63.4971 35.4672 63.1742 35.4667C62.8512 35.4661 62.5237 35.7461 62.2609 36.2409C61.9353 36.9157 61.7725 37.6576 61.7857 38.4067Z" fill="black"/>
<path id="Vector_18" d="M54.8 28.4178L50.9793 29.4416C48.1889 30.1893 46.5329 33.0575 47.2806 35.848L50.5187 47.9328C51.2664 50.7232 54.1346 52.3792 56.9251 51.6315L60.7458 50.6078C63.5362 49.8601 65.1922 46.9918 64.4445 44.2014L61.2064 32.1165C60.4587 29.3261 57.5905 27.6701 54.8 28.4178Z" fill="white"/>
<path id="Vector_19" d="M60.8322 50.9435L57.0149 51.9663C55.5851 52.3437 54.0639 52.1409 52.783 51.4018C51.502 50.6628 50.5651 49.4475 50.1761 48.0207L46.9389 35.9394C46.5624 34.5093 46.7662 32.9883 47.506 31.7078C48.2458 30.4273 49.4617 29.491 50.8887 29.1029L54.706 28.0801C56.1355 27.7037 57.6559 27.9072 58.9361 28.6463C60.2163 29.3854 61.1527 30.6004 61.5415 32.0266L64.7787 44.108C65.1551 45.5375 64.9516 47.0579 64.2125 48.3381C63.4734 49.6183 62.2584 50.5547 60.8322 50.9435ZM51.0737 29.7933C49.8262 30.1333 48.7633 30.9521 48.1164 32.0716C47.4695 33.1912 47.291 34.521 47.6194 35.7716L50.8566 47.8529C51.1974 49.1002 52.0169 50.1625 53.1369 50.8086C54.2569 51.4547 55.5869 51.6324 56.8372 51.3031L60.6545 50.2802C61.9012 49.9395 62.9629 49.1204 63.6091 48.0012C64.2553 46.8819 64.4338 45.5529 64.1055 44.3029L60.8683 32.2215C60.5276 30.9748 59.7085 29.9129 58.5892 29.2667C57.47 28.6205 56.141 28.4422 54.891 28.7705L51.0737 29.7933Z" fill="black"/>
<path id="Vector_20" d="M52.5111 41.986C52.8118 41.7646 52.8063 41.2465 52.4988 40.8289C52.1913 40.4114 51.6982 40.2525 51.3975 40.474C51.0968 40.6954 51.1022 41.2134 51.4098 41.631C51.7173 42.0485 52.2104 42.2075 52.5111 41.986Z" fill="black"/>
<path id="Vector_21" d="M53.3317 39.3444C53.2569 39.3642 53.1777 39.3587 53.1063 39.3286C52.6835 39.1686 52.2233 39.1344 51.7814 39.2303C51.2528 39.3133 50.7727 39.5864 50.4312 39.9983C50.4046 40.036 50.3709 40.068 50.3319 40.0926C50.293 40.1172 50.2495 40.1339 50.2041 40.1417C50.1587 40.1495 50.1122 40.1482 50.0673 40.138C50.0223 40.1278 49.9797 40.1087 49.9421 40.0821C49.9046 40.0553 49.8728 40.0213 49.8484 39.9822C49.824 39.943 49.8077 39.8994 49.8002 39.8539C49.7928 39.8084 49.7943 39.7619 49.8048 39.717C49.8154 39.6721 49.8348 39.6297 49.8617 39.5923C50.3067 39.0334 50.9429 38.6588 51.6475 38.5407C52.2252 38.4193 52.8258 38.4688 53.3758 38.6833C53.4613 38.7192 53.5291 38.7876 53.5643 38.8733C53.5995 38.959 53.5993 39.0551 53.5637 39.1407C53.5432 39.1901 53.5116 39.2341 53.4714 39.2694C53.4312 39.3047 53.3834 39.3304 53.3317 39.3444Z" fill="black"/>
<path id="Vector_22" d="M58.392 39.5226C58.6999 39.9406 59.1922 40.0989 59.4952 39.8763C59.7983 39.6536 59.787 39.1379 59.4792 38.7198C59.1713 38.3018 58.6791 38.1435 58.3794 38.3652C58.0798 38.587 58.0841 39.1045 58.392 39.5226Z" fill="black"/>
<path id="Vector_23" d="M60.3062 37.4753C60.2314 37.4951 60.1522 37.4896 60.0808 37.4596C59.6576 37.301 59.1979 37.2669 58.7559 37.3612C58.2283 37.4438 57.7493 37.7167 57.4091 38.1283C57.3826 38.166 57.3489 38.198 57.3099 38.2226C57.2709 38.2472 57.2275 38.2639 57.1821 38.2717C57.1367 38.2795 57.09 38.2782 57.0451 38.268C57.0001 38.2578 56.9577 38.2387 56.9201 38.2121C56.8824 38.1855 56.8505 38.1518 56.8259 38.1128C56.8012 38.0739 56.7845 38.0304 56.7767 37.985C56.7689 37.9396 56.7702 37.8931 56.7804 37.8482C56.7907 37.8032 56.8096 37.7608 56.8362 37.7232C57.2812 37.1643 57.9174 36.7897 58.622 36.6716C59.1998 36.5502 59.8004 36.5997 60.3505 36.8142C60.4177 36.8425 60.4744 36.8911 60.5127 36.9531C60.5511 37.0152 60.5689 37.0878 60.5641 37.1606C60.5592 37.2334 60.5318 37.3028 60.4856 37.3593C60.4393 37.4157 60.3766 37.4562 60.3062 37.4753Z" fill="black"/>
<path id="Vector_24" d="M56.3982 43.5062C56.2971 43.5336 56.1912 43.5395 56.0876 43.5235C55.984 43.5075 55.8849 43.47 55.7967 43.4134C55.6678 43.307 55.5612 43.1762 55.483 43.0285C55.4048 42.8807 55.3566 42.7189 55.3411 42.5525C55.0784 41.2337 54.845 39.8888 54.634 38.5598C54.6203 38.4673 54.644 38.3731 54.6997 38.298C54.7554 38.2228 54.8387 38.173 54.9312 38.1593C55.0237 38.1455 55.1178 38.1691 55.193 38.2248C55.2681 38.2805 55.318 38.3638 55.3317 38.4563C55.5289 39.7745 55.763 41.1083 56.0297 42.4151C56.0426 42.5654 56.0974 42.7092 56.188 42.8298C56.2021 42.7598 56.2374 42.6957 56.2889 42.6462C56.3405 42.5967 56.4059 42.5641 56.4765 42.5529C56.5225 42.5472 56.5692 42.5507 56.6138 42.5632C56.6585 42.5757 56.7001 42.5969 56.7365 42.6256C56.7728 42.6544 56.8032 42.69 56.8257 42.7305C56.8482 42.771 56.8624 42.8156 56.8676 42.8617C56.8795 42.9748 56.8581 43.0889 56.8058 43.1899C56.7536 43.2909 56.6729 43.3745 56.5737 43.4301C56.5185 43.4625 56.4596 43.488 56.3982 43.5062Z" fill="black"/>
<path id="Vector_25" d="M58.3948 45.3397C58.1634 45.4017 57.9226 45.4207 57.6844 45.3958C57.5918 45.386 57.507 45.3398 57.4484 45.2674C57.3899 45.195 57.3627 45.1023 57.3725 45.0097C57.3823 44.9172 57.4285 44.8323 57.5009 44.7738C57.5733 44.7153 57.666 44.6878 57.7585 44.6977C57.9603 44.7086 58.1623 44.6796 58.3529 44.6123C58.5434 44.5449 58.7186 44.4407 58.8687 44.3054C59.0189 44.1702 59.1409 44.0066 59.2277 43.824C59.3144 43.6415 59.3641 43.4438 59.3742 43.242C59.374 43.1958 59.383 43.1501 59.4005 43.1074C59.418 43.0647 59.4436 43.0257 59.4761 42.9929C59.5086 42.9601 59.5471 42.9341 59.5896 42.9163C59.6322 42.8984 59.6778 42.8892 59.724 42.8889C59.7701 42.8887 59.816 42.8976 59.8587 42.915C59.9014 42.9325 59.9402 42.9582 59.973 42.9907C60.0058 43.0231 60.0318 43.0618 60.0497 43.1044C60.0675 43.1469 60.0769 43.1925 60.0772 43.2387C60.0713 43.5401 60.0025 43.837 59.8752 44.1103C59.7479 44.3836 59.5648 44.6273 59.3379 44.8258C59.0689 45.0697 58.7456 45.246 58.3948 45.3397Z" fill="black"/>
<path id="Vector_26" d="M48.0992 37.9826C48.0992 37.9826 47.4393 33.3136 49.0232 33.553C50.6071 33.7923 51.0077 35.0705 53.2558 34.635C55.504 34.1994 56.7143 33.0445 57.697 33.6118C58.6796 34.1791 60.568 35.5012 62.1279 33.7557C63.6878 32.0102 63.0735 28.9865 59.666 28.2492C56.2584 27.5119 51.7022 28.4716 49.1393 28.9915C46.5764 29.5114 45.2143 34.7694 48.0992 37.9826Z" fill="black"/>
<path id="Vector_27" d="M61.5661 60.2207L59.745 58.4055L57.9263 56.5859L60.4136 55.9195L62.8976 55.2539L62.2323 57.739L61.5661 60.2207Z" fill="black"/>
<path id="Vector_28" d="M60.73 57.1006L60.464 61.0892L60.2022 65.0803L62.6896 64.4138L65.1736 63.7482L62.9513 60.4227L60.73 57.1006Z" fill="black"/>
<path id="Vector_29" d="M60.3037 55.9965L57.4773 62.0712L54.6736 55.5065L55.6211 53.2758L60.3037 55.9965Z" fill="white"/>
<path id="Vector_30" d="M57.4747 62.9279L54.3065 55.5033L55.4683 52.7727L60.7687 55.8501L57.4747 62.9279ZM55.0645 55.5033L57.5036 61.2081L59.8648 56.1321L55.802 53.775L55.0645 55.5033Z" fill="black"/>
<path id="Vector_31" d="M60.5744 55.9239L66.0595 59.7715L65.2051 52.6845L63.2693 51.2265L60.5744 55.9239Z" fill="white"/>
<path id="Vector_32" d="M66.5003 60.5095L60.1088 56.0269L63.1638 50.7107L65.5353 52.4945L66.5003 60.5095ZM61.0331 55.8083L65.6162 59.0235L64.8726 52.8642L63.3731 51.7355L61.0331 55.8083Z" fill="black"/>
</g>
</g>
</g>
<rect id="Rectangle 1600" x="77.5903" y="20.6523" width="33.9843" height="5.95602" transform="rotate(-15 77.5903 20.6523)" fill="black"/>
<rect id="Rectangle 1601" x="81.0361" y="33.5122" width="33.9843" height="5.95602" transform="rotate(-15 81.0361 33.5122)" fill="black"/>
</g>
<g id="Group 192">
<path id="Vector_33" d="M41.8994 46.208C36.567 45.5073 32.9408 45.4267 27.6225 47.0419L27.5454 65.8734C31.9003 63.5645 33.018 57.5665 31.3328 52.5214C35.1201 51.4038 37.4394 51.5684 41.1427 52.171C42.5791 52.4478 43.8649 51.7261 44.2432 49.8272C44.6532 47.7601 43.3814 46.4638 41.8994 46.208Z" fill="white"/>
<path id="Vector_34" d="M27.5455 66.7845C27.3339 66.792 27.1262 66.7264 26.9573 66.5988C26.7884 66.4712 26.6686 66.2893 26.618 66.0837C26.5674 65.8782 26.5892 65.6615 26.6796 65.4701C26.77 65.2786 26.9236 65.1242 27.1145 65.0327C29.4199 63.81 30.3974 61.6028 30.8108 59.9701C31.3743 57.5898 31.2528 55.0986 30.4604 52.7843C30.421 52.6671 30.4056 52.5431 30.4153 52.4198C30.4251 52.2965 30.4596 52.1765 30.5169 52.0669C30.5741 51.9573 30.6529 51.8603 30.7486 51.7819C30.8442 51.7035 30.9548 51.6452 31.0735 51.6106C34.8714 50.4895 37.2958 50.5876 41.2933 51.2252H41.3214C42.3935 51.432 43.0906 50.8749 43.3429 49.6066C43.4166 49.3215 43.4314 49.0244 43.3862 48.7334C43.341 48.4424 43.2368 48.1637 43.0801 47.9144C42.7646 47.4747 42.2891 47.1765 41.7558 47.0841C36.483 46.3834 33.06 46.3203 27.8888 47.8899C27.6619 47.9434 27.4232 47.9086 27.221 47.7926C27.0189 47.6766 26.8685 47.488 26.8003 47.2651C26.7321 47.0422 26.7512 46.8017 26.8538 46.5924C26.9564 46.3831 27.1348 46.2207 27.3527 46.1381C32.8253 44.4774 36.5846 44.544 42.0221 45.2727H42.0641C42.5716 45.3591 43.0568 45.5454 43.4917 45.8208C43.9265 46.0963 44.3023 46.4555 44.5971 46.8774C44.8925 47.3281 45.0935 47.8339 45.188 48.3644C45.2826 48.8949 45.2687 49.439 45.1472 49.964C44.6988 52.2238 43.0696 53.4255 40.9885 53.0331C37.5445 52.4865 35.4599 52.3674 32.4819 53.1242C33.1341 55.5072 33.1727 58.0166 32.594 60.4185C31.8933 63.2214 30.2397 65.4531 27.9764 66.6548C27.846 66.7337 27.6977 66.7783 27.5455 66.7845Z" fill="black"/>
</g>
</g>
<g id="Group 191">
<path id="Vector_35" d="M70.433 72.5232C68.7198 74.2749 65.5281 78.3846 65.5281 78.3846C64.6312 79.5092 64.9535 81.2645 66.2533 82.3015C67.5532 83.3386 69.3329 83.272 70.2333 82.1439L77.7764 72.8735L80.1343 69.398C75.0647 66.7213 72.332 70.5892 70.433 72.5232Z" fill="white"/>
<path id="Vector_36" d="M69.0805 83.871C67.99 84.0681 66.8658 83.83 65.9489 83.2078C65.0319 82.5855 64.3953 81.6288 64.1756 80.5426C64.0794 80.0687 64.0874 79.5796 64.1987 79.109C64.3099 78.6384 64.522 78.1976 64.8202 77.8169C65.0024 77.5787 68.0646 73.6127 69.7778 71.8609C69.967 71.6717 70.1667 71.458 70.3769 71.2337C72.2513 69.2157 75.3939 65.8383 80.5756 68.5641C80.6876 68.6175 80.7876 68.6931 80.8696 68.7861C80.9517 68.8791 81.0141 68.9878 81.0531 69.1055C81.0921 69.2233 81.107 69.3477 81.0968 69.4713C81.0866 69.595 81.0515 69.7152 80.9937 69.825C80.9358 69.9347 80.8564 70.0317 80.7602 70.11C80.664 70.1883 80.553 70.2464 80.4338 70.2808C80.3146 70.3152 80.1897 70.3251 80.0666 70.3101C79.9435 70.295 79.8247 70.2553 79.7173 70.1932C75.7828 68.1191 73.6246 70.4384 71.7222 72.4845C71.5015 72.7192 71.2948 72.9435 71.0916 73.1502C69.438 74.8354 66.3023 78.889 66.2708 78.931C66.1366 79.1069 66.0424 79.3099 65.9946 79.5259C65.9468 79.7419 65.9466 79.9657 65.994 80.1818C66.1069 80.7274 66.4114 81.2145 66.8523 81.5552C67.7527 82.2769 68.9544 82.2559 69.5395 81.5552L77.0896 72.2813C77.2434 72.0922 77.466 71.972 77.7085 71.947C77.8285 71.9346 77.9498 71.946 78.0654 71.9806C78.1811 72.0151 78.2888 72.072 78.3824 72.1482C78.476 72.2243 78.5538 72.3181 78.6111 72.4243C78.6685 72.5305 78.7044 72.647 78.7168 72.767C78.7291 72.8871 78.7177 73.0084 78.6832 73.124C78.6486 73.2396 78.5917 73.3474 78.5156 73.441L70.962 82.7254C70.4861 83.3132 69.8212 83.718 69.0805 83.871Z" fill="black"/>
<path id="Vector_37" d="M112.038 104.142C112.173 104.108 112.298 104.04 112.401 103.946C112.504 103.851 112.581 103.732 112.626 103.599C112.758 103.264 112.779 102.896 112.686 102.548L112.574 102.114C112.539 101.973 112.493 101.802 112.441 101.599C112.388 101.395 110.832 95.4884 110.759 95.2291C110.336 93.775 109.824 92.3487 109.224 90.9584C108.371 88.987 107.348 87.0938 106.166 85.3001C105.521 84.3226 104.813 83.3416 104.064 82.3957C103.314 81.4497 102.483 80.5283 101.636 79.6559C100 77.9804 98.2285 76.444 96.3382 75.0628C94.7475 73.8959 93.086 72.8287 91.3632 71.8675C89.8742 71.0407 88.606 70.4276 87.7161 70.0177C87.2711 69.8145 86.9208 69.6673 86.665 69.5552L86.3146 69.394L86.1289 69.3275L85.8942 69.2294C84.9296 68.8112 83.845 68.7613 82.8461 69.0892C82.4166 69.2284 82.0254 69.4654 81.7032 69.7815C81.3809 70.0977 81.1366 70.4843 80.9893 70.9111C80.8473 71.3495 80.8101 71.8151 80.8807 72.2704L80.7861 72.2389C79.8484 71.9121 78.8197 71.9687 77.9237 72.3966C77.5276 72.5851 77.1786 72.8598 76.9022 73.2004C76.6258 73.5411 76.429 73.9391 76.3261 74.3656C76.1742 75.0164 76.223 75.698 76.4662 76.3206C76.7 76.9305 77.0918 77.4673 77.6013 77.8761C77.2103 78.2642 76.9266 78.747 76.778 79.2775C76.5847 79.9493 76.5919 80.6629 76.799 81.3306C76.9851 81.9517 77.3508 82.5039 77.85 82.9177C77.4989 83.2849 77.2334 83.7252 77.0723 84.207C76.8067 85.003 76.8067 85.8636 77.0723 86.6595C77.1762 87.0051 77.3519 87.3248 77.588 87.5977C77.824 87.8706 78.1152 88.0906 78.4422 88.2431C78.4422 88.2431 78.7364 88.3692 79.1744 88.5689C79.6123 88.7686 80.1869 89.0454 80.7475 89.3432C81.308 89.641 81.8441 89.9458 82.24 90.184L82.7165 90.4749L82.8917 90.587C82.9316 90.6142 82.9752 90.6355 83.0213 90.65L83.172 90.7481L83.5924 91.0284C83.9427 91.2737 84.4437 91.6275 84.9938 92.0795C85.6173 92.5763 86.2137 93.1061 86.7806 93.6666C87.3978 94.2796 87.9726 94.9339 88.5009 95.625C89.0049 96.2915 89.4592 96.9941 89.8602 97.7272C90.2041 98.3595 90.506 99.0137 90.7641 99.6856C90.9919 100.281 91.146 100.796 91.2476 101.157C91.3036 101.339 91.3352 101.486 91.3632 101.585C91.3912 101.683 94.6565 111.682 94.6565 111.682C94.7126 112.029 112.038 104.142 112.038 104.142Z" fill="white"/>
<path id="Vector_38" d="M94.709 112.737C94.4732 112.73 94.2459 112.648 94.0604 112.502C93.8749 112.356 93.7412 112.155 93.679 111.927C93.5389 111.416 90.4487 102.058 90.3891 101.837C90.3891 101.792 90.3611 101.739 90.3471 101.683C90.3302 101.601 90.3091 101.521 90.284 101.441C90.1684 101.049 90.0318 100.586 89.8251 100.04C89.3008 98.6699 88.5822 97.3826 87.6914 96.2174C87.1905 95.5627 86.6462 94.9424 86.0623 94.3605C85.5216 93.8275 84.9519 93.3245 84.356 92.854C83.827 92.43 83.3541 92.0972 83.0002 91.852L82.5272 91.5366C82.4573 91.5033 82.3894 91.4659 82.324 91.4245L82.1558 91.3159L81.6899 91.0286C81.252 90.7659 80.7264 90.4716 80.2499 90.2193C79.6193 89.8689 79.0236 89.6097 78.7258 89.4696L78.1723 89.2243L78.0181 89.1543C77.5652 88.9474 77.161 88.6474 76.832 88.2737C76.503 87.9 76.2565 87.461 76.1087 86.9855C75.8901 86.3269 75.8161 85.6289 75.8917 84.939C75.9673 84.2492 76.1906 83.5837 76.5466 82.988C76.2346 82.576 75.9974 82.1123 75.8459 81.6181C75.5826 80.768 75.5741 79.8594 75.8215 79.0045C75.9267 78.6352 76.081 78.2816 76.2804 77.9534C75.9663 77.5682 75.7156 77.1353 75.5377 76.6711C75.2225 75.8633 75.159 74.9791 75.3555 74.1346C75.4951 73.5695 75.7573 73.0422 76.1237 72.5898C76.49 72.1375 76.9514 71.7714 77.4751 71.5174C78.236 71.1459 79.0845 70.9908 79.9276 71.069C79.9586 70.9116 79.9984 70.756 80.0467 70.603C80.2397 70.0333 80.5614 69.5158 80.9867 69.0905C81.412 68.6652 81.9295 68.3436 82.4991 68.1505C83.1228 67.937 83.7822 67.8477 84.4401 67.8877C85.0634 67.9266 85.6757 68.0699 86.2514 68.3117L86.4371 68.3923C86.5177 68.4168 86.5948 68.4448 86.6719 68.4764L87.0502 68.641C87.2885 68.7426 87.6458 68.9003 88.1013 69.1105C89.3381 69.678 90.5853 70.3122 91.8186 70.9989C93.5799 71.9783 95.2778 73.0678 96.9022 74.2607C98.8351 75.6736 100.647 77.2451 102.319 78.959C103.188 79.8559 104.025 80.7983 104.806 81.7618C105.538 82.6657 106.271 83.6677 106.978 84.7433C109.056 87.8845 110.647 91.3218 111.698 94.9386L111.761 95.1593C111.813 95.3415 113.344 101.178 113.386 101.329L113.632 102.289C113.776 102.835 113.741 103.414 113.533 103.939C113.432 104.209 113.268 104.451 113.055 104.645C112.842 104.84 112.585 104.981 112.307 105.057C112.307 105.057 95.1575 112.765 94.709 112.737ZM92.1619 100.87C92.204 101.01 92.2355 101.129 92.2565 101.22C92.2565 101.255 92.2566 101.287 92.2776 101.312V101.333C92.2776 101.41 95.0454 109.531 95.3397 110.596C95.5008 110.536 111.719 103.214 111.719 103.214C111.76 103.08 111.76 102.938 111.719 102.804L111.477 101.858C111.442 101.725 109.914 95.902 109.869 95.7409L109.802 95.5132C108.805 92.0892 107.299 88.8344 105.335 85.8574C104.659 84.8344 103.962 83.8814 103.272 83.0266C102.529 82.1086 101.73 81.2082 100.9 80.3534C99.3022 78.718 97.5725 77.2169 95.7285 75.8653C94.1697 74.7228 92.5409 73.679 90.8516 72.7402C89.6674 72.078 88.4622 71.4684 87.2745 70.9218C86.8296 70.7186 86.4897 70.5714 86.2619 70.4698L85.8906 70.3087L85.8205 70.2842H85.7645L85.4772 70.165C85.1069 70.0068 84.7124 69.9132 84.3105 69.8883C83.9141 69.8612 83.5162 69.9136 83.1403 70.0424C82.8522 70.1305 82.5888 70.2852 82.3715 70.494C82.1542 70.7028 81.9891 70.9598 81.8895 71.2442C81.7943 71.5391 81.7691 71.8522 81.816 72.1586L82.0472 73.7422L80.4356 73.1956C80.1842 73.1109 79.9227 73.0602 79.6578 73.045C79.1991 73.0147 78.7403 73.104 78.3265 73.3042C78.0588 73.4286 77.8226 73.6116 77.6352 73.8396C77.4478 74.0676 77.314 74.3349 77.2438 74.6216C77.1394 75.0806 77.176 75.5605 77.349 75.9984C77.5197 76.446 77.8063 76.8401 78.1793 77.1406L79.0447 77.8413L78.2494 78.6156C77.9808 78.8794 77.7862 79.2093 77.6853 79.5721C77.54 80.0566 77.54 80.5731 77.6853 81.0576C77.8149 81.4927 78.0695 81.8801 78.4176 82.1717L79.2479 82.8444L78.5051 83.6151C78.2534 83.8799 78.0632 84.1969 77.9481 84.5436C77.7411 85.1347 77.7349 85.7775 77.9305 86.3724C77.9915 86.5842 78.0951 86.7814 78.2349 86.9519C78.3746 87.1224 78.5476 87.2626 78.7434 87.3639C78.88 87.4165 79.0937 87.5181 79.5141 87.7143C79.8329 87.8615 80.4636 88.1592 81.1328 88.5131C81.6373 88.7793 82.1838 89.0947 82.6778 89.382L83.3155 89.7779L83.382 89.8024L83.813 90.0827L84.0792 90.2613C84.4576 90.5241 84.9691 90.885 85.5472 91.344C86.1999 91.8627 86.8244 92.4158 87.4181 93.0011C88.0663 93.6477 88.6703 94.3371 89.2259 95.0647C90.2261 96.3764 91.0342 97.8239 91.6259 99.3636C91.9027 99.9837 92.0708 100.558 92.1619 100.87Z" fill="black"/>
<path id="Vector_39" d="M89.4222 77.4942C89.3097 77.4899 89.2001 77.4573 89.1034 77.3996L88.676 77.1544C88.3887 76.9932 87.9753 76.7725 87.5548 76.5413C86.5038 75.9807 85.2284 75.3746 84.0723 74.8806C82.9161 74.3866 81.5953 73.8821 80.4811 73.5107C79.9731 73.339 79.5457 73.2059 79.2724 73.1183L78.8064 72.9782C78.638 72.9082 78.5015 72.7781 78.4236 72.6132C78.3456 72.4483 78.3318 72.2603 78.3846 72.0857C78.4374 71.9111 78.5531 71.7624 78.7094 71.6683C78.8657 71.5743 79.0514 71.5416 79.2304 71.5768L79.7034 71.7204C79.9906 71.808 80.4286 71.9446 80.9506 72.1233C82.0998 72.5087 83.4487 73.0237 84.6504 73.5247C85.8521 74.0257 87.1519 74.6599 88.245 75.238C88.6935 75.4797 89.1068 75.7039 89.4046 75.8756L89.8321 76.1173C89.9765 76.1997 90.0886 76.3285 90.1504 76.4827C90.2122 76.637 90.22 76.8076 90.1725 76.9668C90.125 77.126 90.0249 77.2645 89.8887 77.3596C89.7524 77.4547 89.588 77.501 89.4222 77.4907V77.4942Z" fill="black"/>
<path id="Vector_40" d="M86.6893 82.1819C86.5761 82.1748 86.466 82.1425 86.367 82.0873L85.9921 81.8736C85.7573 81.737 85.4211 81.5513 85.0182 81.3376C84.0862 80.8436 82.972 80.3111 81.963 79.8801C80.954 79.4492 79.7838 79.0007 78.8098 78.6679C78.3859 78.5242 78.032 78.4121 77.7588 78.3175L77.3243 78.1844C77.2241 78.1637 77.1293 78.1224 77.0459 78.063C76.9625 78.0035 76.8924 77.9274 76.8402 77.8394C76.7879 77.7513 76.7546 77.6534 76.7423 77.5517C76.7301 77.4501 76.7392 77.347 76.7691 77.2491C76.799 77.1512 76.8489 77.0606 76.9158 76.9831C76.9827 76.9056 77.065 76.8429 77.1575 76.799C77.25 76.7552 77.3506 76.7311 77.453 76.7283C77.5553 76.7255 77.657 76.7441 77.7517 76.783L78.2002 76.9196C78.4665 77.0037 78.8309 77.1193 79.2688 77.27C80.2883 77.6203 81.4831 78.0722 82.5411 78.5242C83.5992 78.9762 84.7379 79.5227 85.6943 80.0343C86.1147 80.255 86.4651 80.4512 86.7138 80.5913L87.0852 80.8015C87.2312 80.8828 87.3451 81.0114 87.4083 81.1661C87.4715 81.3207 87.4801 81.4923 87.4328 81.6525C87.3855 81.8128 87.285 81.9521 87.148 82.0477C87.011 82.1433 86.8455 82.1894 86.6788 82.1784L86.6893 82.1819Z" fill="black"/>
<path id="Vector_41" d="M84.3595 86.4913C84.2423 86.4834 84.1284 86.4486 84.0267 86.3897C84.0267 86.3897 83.6518 86.169 83.0947 85.8606C82.443 85.5103 81.6653 85.1179 80.9541 84.7885C80.2429 84.4592 79.451 84.1299 78.7328 83.8496C78.1267 83.6184 77.7098 83.4713 77.7063 83.4713C77.5205 83.4071 77.3677 83.2718 77.2816 83.0951C77.1955 82.9183 77.1832 82.7146 77.2473 82.5288C77.3114 82.3429 77.4468 82.1902 77.6235 82.1041C77.8002 82.018 78.0039 82.0057 78.1897 82.0698C78.1897 82.0698 78.6312 82.224 79.2618 82.4657C80.0081 82.7565 80.849 83.1104 81.5707 83.4432C82.2924 83.776 83.1192 84.1895 83.7954 84.5609C84.384 84.8797 84.7659 85.1039 84.7799 85.1144C84.9215 85.1988 85.0306 85.3283 85.0898 85.4821C85.149 85.6359 85.1548 85.8052 85.1063 85.9627C85.0579 86.1202 84.9579 86.2569 84.8225 86.3509C84.6871 86.4448 84.524 86.4906 84.3595 86.4808V86.4913Z" fill="black"/>
<path id="Vector_42" d="M76.9463 102.436C75.6219 101.553 75.6884 99.7979 76.1018 98.4175C74.7004 99.1883 72.9032 99.6718 70.9797 98.3895C69.0563 97.1072 68.7374 95.0436 69.0037 93.5476C67.7879 94.4935 66.2394 95.2993 64.88 94.3814C64.2395 93.9402 63.7936 93.2692 63.635 92.5077C63.4765 91.7463 63.6175 90.953 64.0287 90.2928L98.2303 39.0815L115.187 50.405L80.9122 101.728C80.4672 102.331 79.8079 102.741 79.0702 102.872C78.3324 103.004 77.5724 102.848 76.9463 102.436Z" fill="#1D4ED8"/>
<path id="Vector_43" d="M79.3987 103.743C78.8935 103.856 78.3707 103.866 77.8614 103.773C77.3522 103.68 76.867 103.485 76.4348 103.2C75.3837 102.499 74.8687 101.343 74.9177 99.9029L74.6129 99.9765C73.9028 100.136 73.1672 100.145 72.4533 100.004C71.7395 99.8617 71.0633 99.572 70.4682 99.1531C69.8021 98.7171 69.2394 98.1405 68.82 97.4638C68.4005 96.7871 68.1343 96.0268 68.0402 95.2362C66.6773 95.8843 65.4231 95.8458 64.365 95.1416C63.5218 94.5648 62.9354 93.6832 62.7296 92.6826C62.5237 91.682 62.7144 90.6405 63.2614 89.7777L97.4629 38.5664C97.53 38.466 97.6163 38.3798 97.7167 38.3127C97.8171 38.2457 97.9298 38.1991 98.0482 38.1756C98.1667 38.1522 98.2886 38.1524 98.407 38.1762C98.5254 38.1999 98.6379 38.2468 98.7382 38.3142L115.695 49.6376C115.796 49.7043 115.883 49.7904 115.95 49.8908C116.018 49.9913 116.064 50.1041 116.088 50.2227C116.112 50.343 116.112 50.4668 116.088 50.5871C116.064 50.7074 116.016 50.8217 115.948 50.9234L81.6725 102.247C81.1373 103.021 80.322 103.558 79.3987 103.743ZM75.8952 97.5205C76.0515 97.4872 76.2137 97.495 76.366 97.5433C76.5183 97.5916 76.6554 97.6787 76.7639 97.796C76.8724 97.9134 76.9485 98.0569 76.9848 98.2125C77.021 98.3681 77.0162 98.5305 76.9707 98.6837C76.771 99.3528 76.4137 100.985 77.4437 101.672C77.6706 101.819 77.9244 101.918 78.1904 101.965C78.4563 102.012 78.729 102.005 78.9923 101.945C79.45 101.857 79.8562 101.596 80.1274 101.217L113.895 50.6536L98.479 40.3532C94.8318 45.8187 72.6298 79.0638 64.7924 90.8042C64.5128 91.2455 64.4172 91.7788 64.5262 92.2897C64.575 92.5565 64.6765 92.8109 64.8244 93.0383C64.9724 93.2656 65.164 93.4613 65.3881 93.614C65.5611 93.7315 65.7574 93.8101 65.9636 93.8446C66.1698 93.879 66.381 93.8685 66.5828 93.8137C67.2649 93.621 67.8973 93.2828 68.4362 92.8222C68.5833 92.7082 68.7616 92.6415 68.9474 92.6308C69.1333 92.62 69.318 92.6659 69.4773 92.7622C69.6366 92.8585 69.763 93.0008 69.8398 93.1704C69.9166 93.34 69.9403 93.5289 69.9076 93.7121C69.7428 94.4486 69.806 95.2178 70.0889 95.9175C70.3717 96.6171 70.8609 97.2141 71.4912 97.6291C71.8821 97.9085 72.3275 98.1023 72.7985 98.1977C73.2694 98.2931 73.7552 98.288 74.224 98.1827C74.7266 98.0654 75.2093 97.8754 75.6569 97.6186C75.7352 97.5726 75.8204 97.5395 75.9092 97.5205H75.8952Z" fill="black"/>
<path id="Vector_44" d="M71.5823 90.5447C71.5058 90.5623 71.4264 90.5639 71.3493 90.5494C71.2721 90.535 71.1988 90.5047 71.1338 90.4607C71.0057 90.3751 70.9168 90.2422 70.8865 90.0911C70.8563 89.94 70.8873 89.7831 70.9727 89.6548L100.402 45.4437C100.491 45.3224 100.623 45.24 100.77 45.2136C100.918 45.1873 101.07 45.2191 101.195 45.3023C101.32 45.3855 101.408 45.5138 101.44 45.6603C101.473 45.8067 101.447 45.9601 101.369 46.0883L71.9397 90.2995C71.8992 90.3619 71.8468 90.4157 71.7854 90.4578C71.7241 90.4999 71.6551 90.5294 71.5823 90.5447Z" fill="black"/>
<path id="Vector_45" d="M78.7261 95.6532C78.6506 95.6698 78.5726 95.6709 78.4968 95.6564C78.4209 95.6419 78.3487 95.6123 78.2846 95.5691C78.1559 95.4841 78.0663 95.3514 78.0355 95.2003C78.0046 95.0492 78.035 94.892 78.12 94.7633L107.55 50.5486C107.638 50.4274 107.77 50.345 107.918 50.3186C108.065 50.2923 108.218 50.324 108.342 50.4072C108.467 50.4905 108.555 50.6187 108.588 50.7652C108.62 50.9117 108.595 51.0651 108.517 51.1933L79.087 95.4045C79.0463 95.4678 78.9935 95.5224 78.9315 95.5651C78.8696 95.6078 78.7997 95.6377 78.7261 95.6532Z" fill="black"/>
<path id="Vector_46" d="M62.9495 113.209C62.6555 113.261 62.3539 113.252 62.0638 113.181C61.7737 113.111 61.5015 112.981 61.2643 112.799C60.7038 112.403 60.1502 111.696 60.2798 110.886C60.3674 110.35 62.0666 96.4518 62.7148 91.1439C62.744 90.9018 62.8683 90.6813 63.0601 90.5309C63.252 90.3804 63.4957 90.3123 63.7378 90.3416C63.9798 90.3709 64.2003 90.4951 64.3508 90.687C64.5013 90.8788 64.5694 91.1226 64.5401 91.3646C64.4455 92.1249 62.3259 109.506 62.1086 111.086C62.2184 111.238 62.3746 111.35 62.5536 111.405C63.7098 110.76 79.5003 101.777 79.6614 101.686C79.8733 101.565 80.1244 101.534 80.3596 101.598C80.5949 101.662 80.7948 101.818 80.9156 102.029C81.0364 102.241 81.0681 102.492 81.0037 102.728C80.9393 102.963 80.7841 103.163 80.5723 103.284C79.8996 103.666 64.1056 112.645 63.4049 113.038C63.2625 113.117 63.109 113.175 62.9495 113.209Z" fill="black"/>
<path id="Vector_47" d="M62.904 112.309C62.2033 112.705 61.0261 111.762 61.1347 111.107C61.1732 110.862 61.5831 107.898 62.0806 104.286L68.8741 108.819C65.7489 110.655 63.1703 112.179 62.904 112.309Z" fill="black"/>
<path id="Vector_48" d="M97.6451 76.664L96.8568 76.4187C96.552 76.3311 96.2086 76.24 95.8338 76.1384C94.0194 75.6749 92.1724 75.3504 90.3087 75.1679L88.7986 75.0488C88.5499 75.0243 88.3047 75.0243 88.0594 75.0138L87.3377 74.9893C87.0994 74.9893 86.8682 74.9893 86.637 74.9893H85.9678C85.5334 74.9893 85.1235 74.9893 84.7451 75.0103L82.9163 75.1224C82.692 75.1224 82.5203 75.1609 82.4047 75.1714L82.2225 75.1925C81.8265 75.231 81.4425 75.3502 81.0944 75.5428C80.9281 75.6428 80.7732 75.7603 80.632 75.8932C80.4929 76.0262 80.3662 76.1717 80.2535 76.3276C80.0287 76.6502 79.8701 77.0141 79.7871 77.3985C79.7041 77.7828 79.6983 78.1798 79.77 78.5664C79.898 79.3352 80.2939 80.034 80.8877 80.5389C81.0225 80.653 81.168 80.7539 81.3221 80.8402C81.4751 80.9269 81.6343 81.0018 81.7986 81.0644C82.1259 81.1824 82.4758 81.2244 82.8217 81.187H82.9758C83.0774 81.187 83.2246 81.152 83.4137 81.145L84.9763 81.0469H86.0274H86.5984C86.7911 81.0469 86.9909 81.0469 87.1906 81.0469L87.8072 81.0679C88.0139 81.0679 88.2275 81.0679 88.4378 81.0959L89.7166 81.1975C91.2752 81.3501 92.82 81.6207 94.3377 82.0069L95.1646 82.2346L95.7848 82.4273L96.3103 82.606C96.3103 82.606 91.4929 89.7742 96.1631 95.9194L98.3423 76.9547L97.6451 76.664Z" fill="white"/>
<path id="Vector_49" d="M96.3558 96.764C96.1838 96.7998 96.0051 96.7859 95.8406 96.7239C95.6762 96.6618 95.5329 96.5542 95.4274 96.4136C93.3463 93.6774 92.7087 90.3175 93.5881 86.6948C93.8973 85.4425 94.3536 84.2312 94.9474 83.0862H94.9019L94.089 82.8619C92.6251 82.4907 91.1354 82.2296 89.6325 82.0806L88.3607 81.9826H88.3398C88.2311 81.9826 88.1085 81.9826 87.9894 81.9826H87.7757L87.1695 81.9615H86.9454H86.6195H86.0484H85.6245C85.4178 81.9615 85.218 81.9615 85.0288 81.9615L83.4803 82.0561H83.4593C83.3795 82.0603 83.3 82.0685 83.2211 82.0806H83.0774H82.9337C82.4481 82.1339 81.9568 82.0751 81.4973 81.909C81.2839 81.8298 81.0776 81.7325 80.8807 81.6182C80.6776 81.5057 80.4862 81.373 80.3096 81.2223C79.5472 80.5795 79.0381 79.6867 78.8732 78.7032C78.7803 78.1969 78.7892 77.6772 78.8993 77.1743C79.0094 76.6715 79.2184 76.1955 79.5143 75.7743C79.6618 75.5687 79.8285 75.3775 80.0118 75.2032C80.2018 75.0302 80.411 74.8797 80.6355 74.7548C81.0921 74.4932 81.5978 74.3286 82.121 74.2713L82.3032 74.2502H82.3241H82.4257C82.5344 74.2502 82.685 74.2222 82.8672 74.2117L84.6855 74.0996H84.7171H85.5544H86.6265C86.8017 74.0996 86.9768 74.0996 87.124 74.0996H87.3587L88.0909 74.1241H88.2942C88.4799 74.1241 88.676 74.1241 88.8792 74.1521L90.3823 74.2713H90.3998C92.3118 74.461 94.2067 74.7948 96.0685 75.2698L96.3944 75.3574L97.0951 75.5571L97.8869 75.8023H97.9114L98.6121 76.0405C98.8444 76.1191 99.036 76.2866 99.1448 76.5064C99.2535 76.7262 99.2705 76.9802 99.192 77.2125C99.1135 77.4448 98.9458 77.6364 98.726 77.7451C98.5062 77.8539 98.2523 77.8708 98.02 77.7923L97.3193 77.5576L96.552 77.3228C96.3418 77.2598 96.1141 77.2002 95.8724 77.1336L95.55 77.0461C93.8034 76.5964 92.0257 76.2779 90.2316 76.0931L88.7321 75.9775C88.5815 75.9775 88.4238 75.96 88.2557 75.953H88.0384L87.3377 75.9284H87.089C86.9418 75.9284 86.8052 75.9284 86.6756 75.9284H85.607H84.8152L83.0039 76.0405H82.9863L82.6745 76.0686H82.5274L82.3557 76.0896C82.0846 76.1195 81.8224 76.2041 81.5849 76.3383C81.479 76.3984 81.3792 76.4689 81.2871 76.5486C81.195 76.6373 81.1117 76.7346 81.0384 76.8394C80.8794 77.0609 80.7664 77.3121 80.7062 77.5781C80.646 77.8441 80.6399 78.1195 80.688 78.3879C80.7819 78.9427 81.067 79.4472 81.4938 79.8139C81.5839 79.8899 81.6813 79.9567 81.7846 80.0135C81.8872 80.0745 81.9951 80.1261 82.1069 80.1677C82.3025 80.2409 82.5125 80.2673 82.7201 80.2448L82.8742 80.2273H82.9058H82.9828C83.1104 80.2076 83.2391 80.1959 83.3682 80.1922L84.9238 80.0942H84.9518C85.1585 80.0942 85.3722 80.0942 85.6 80.0942H86.0099H86.5845C86.7316 80.0942 86.8753 80.0942 87.0119 80.0942H87.215L87.8387 80.1152H88.0314C88.1786 80.1152 88.3468 80.1152 88.5184 80.1432L89.7902 80.2413H89.8077C91.4137 80.3981 93.0053 80.6769 94.569 81.0751L95.4064 81.3064H95.4344L96.058 81.4991H96.0825L96.6081 81.6777C96.7446 81.7222 96.8689 81.7982 96.9708 81.8995C97.0727 82.0008 97.1493 82.1245 97.1947 82.2609C97.24 82.3972 97.2527 82.5423 97.2318 82.6844C97.2108 82.8265 97.1568 82.9617 97.0741 83.0791C96.2913 84.3488 95.7154 85.7348 95.3678 87.1853C94.632 90.2754 95.1436 93.0047 96.8954 95.303C97.0417 95.4971 97.1053 95.7412 97.0725 95.982C97.0397 96.2228 96.9131 96.4409 96.7202 96.5888C96.6128 96.6729 96.4885 96.7326 96.3558 96.764Z" fill="black"/>
<path id="Vector_50" d="M95.6238 123.836L120.057 126.18C120.057 126.18 120.058 126.039 120.093 125.777C120.093 125.644 120.121 125.482 120.135 125.293C120.149 125.104 120.156 124.897 120.17 124.659C120.184 124.421 120.187 124.162 120.201 123.878C120.215 123.594 120.201 123.303 120.201 122.984V122.49C120.201 122.322 120.201 122.14 120.201 121.982C120.201 121.632 120.184 121.282 120.163 120.896C120.083 119.267 119.916 117.644 119.662 116.033C119.395 114.341 119.038 112.61 118.611 110.946C117.858 107.973 116.928 105.049 115.825 102.187C115.38 101.031 114.984 100.085 114.687 99.3845C114.532 99.0342 114.413 98.7609 114.336 98.5752L114.203 98.2739L91.8645 108.452L91.9346 108.609C91.9872 108.721 92.0572 108.89 92.1518 109.1C92.3375 109.534 92.6108 110.193 92.9226 110.995C93.6641 112.92 94.2923 114.887 94.804 116.885C95.0668 117.936 95.27 118.945 95.4101 119.838C95.5325 120.591 95.6155 121.35 95.6589 122.112C95.6589 122.266 95.6589 122.399 95.6589 122.532C95.6589 122.595 95.6589 122.662 95.6589 122.722V122.886C95.6589 122.995 95.6589 123.093 95.6589 123.188C95.6589 123.282 95.6589 123.345 95.6589 123.415C95.6589 123.485 95.6589 123.545 95.6589 123.597C95.6589 123.65 95.6589 123.685 95.6589 123.717C95.6589 123.748 95.6238 123.836 95.6238 123.836Z" fill="#1D4ED8"/>
<path id="Vector_51" d="M119.938 127.479C119.593 127.447 119.275 127.28 119.053 127.014C118.831 126.748 118.724 126.405 118.754 126.06L118.831 125.202L118.894 123.835C118.894 123.604 118.894 123.362 118.894 123.103V122.487C118.894 122.392 118.894 122.287 118.894 122.178V121.733C118.894 121.481 118.877 121.218 118.863 120.969C118.779 119.389 118.613 117.814 118.365 116.25C118.109 114.621 117.766 112.946 117.346 111.275C116.607 108.356 115.693 105.483 114.609 102.674C114.175 101.546 113.793 100.631 113.534 100.032L93.5636 109.142C93.7248 109.52 93.9139 109.996 94.1311 110.543C94.8949 112.517 95.5395 114.535 96.0616 116.587C96.3209 117.613 96.5381 118.689 96.6923 119.652C96.8227 120.449 96.9104 121.253 96.955 122.059C96.955 122.164 96.955 122.259 96.955 122.35C96.955 122.441 96.955 122.441 96.955 122.487V122.567C96.955 122.63 96.955 122.69 96.955 122.746V123.205C96.955 123.229 96.955 123.254 96.955 123.278L96.9375 123.657C96.9375 123.692 96.9375 123.727 96.9375 123.762V123.951C96.8905 124.284 96.7172 124.586 96.4534 124.795C96.1897 125.004 95.8558 125.103 95.5208 125.073C95.1858 125.042 94.8754 124.884 94.6539 124.631C94.4323 124.378 94.3167 124.049 94.3309 123.713V123.615C94.3293 123.604 94.3293 123.594 94.3309 123.583V123.52V123.359V123.166V122.903C94.3309 122.903 94.3309 122.903 94.3309 122.882V122.69C94.329 122.661 94.329 122.631 94.3309 122.602C94.3309 122.539 94.3309 122.476 94.3309 122.409C94.3342 122.345 94.3342 122.281 94.3309 122.217V122.196C94.2929 121.482 94.2158 120.771 94.0997 120.066C93.956 119.165 93.7493 118.184 93.5146 117.231C93.0171 115.284 92.4052 113.368 91.6822 111.492C91.3318 110.62 91.0656 109.958 90.9289 109.643L90.6522 109.015C90.5109 108.7 90.5001 108.341 90.6222 108.018C90.7443 107.694 90.9893 107.432 91.3039 107.288L113.639 97.1069C113.796 97.0353 113.965 96.9955 114.137 96.9895C114.309 96.9836 114.48 97.0117 114.641 97.0723C114.803 97.1328 114.95 97.2246 115.076 97.3424C115.201 97.4602 115.302 97.6016 115.373 97.7585L115.506 98.0598L115.857 98.8692C116.123 99.4928 116.54 100.484 117.016 101.725C118.141 104.633 119.087 107.607 119.851 110.631C120.289 112.382 120.649 114.134 120.902 115.833C121.167 117.486 121.343 119.151 121.431 120.822C121.431 121.103 121.455 121.379 121.462 121.649V122.094V122.472V123.11C121.462 123.387 121.462 123.646 121.462 123.895V123.923L121.396 125.349C121.394 125.363 121.394 125.377 121.396 125.391L121.319 126.284C121.287 126.63 121.119 126.949 120.852 127.171C120.586 127.393 120.242 127.5 119.896 127.469L119.938 127.479Z" fill="#1D4ED8"/>
<path id="Vector_52" d="M114.406 124.442C114.531 124.487 114.668 124.488 114.794 124.444C114.92 124.4 115.026 124.314 115.097 124.201C115.167 124.088 115.196 123.954 115.179 123.822C115.163 123.69 115.101 123.567 115.005 123.475C112.696 121.247 109.287 119.348 104.869 117.831C102.923 117.156 100.933 116.617 98.9133 116.216C98.7665 116.199 98.619 116.239 98.5005 116.327C98.3819 116.415 98.3012 116.545 98.2749 116.69C98.2486 116.835 98.2787 116.985 98.3588 117.109C98.439 117.233 98.5633 117.322 98.7066 117.358C98.8082 117.379 108.965 119.267 114.185 124.312C114.249 124.371 114.324 124.415 114.406 124.442Z" fill="black"/>
<path id="Vector_53" d="M98.9202 115.038C99.0265 115.07 99.1398 115.07 99.2461 115.038C99.3372 115.017 108.446 112.961 115.292 115.932C115.426 115.967 115.568 115.953 115.692 115.892C115.817 115.832 115.915 115.73 115.971 115.603C116.027 115.477 116.035 115.335 115.996 115.202C115.956 115.07 115.871 114.956 115.755 114.881C108.548 111.752 99.3722 113.83 98.9833 113.921C98.8331 113.957 98.703 114.05 98.6217 114.182C98.5403 114.313 98.5142 114.471 98.5489 114.621C98.5721 114.716 98.618 114.803 98.6827 114.876C98.7475 114.949 98.8289 115.005 98.9202 115.038Z" fill="black"/>
</g>
</g>
</svg>
