<svg width="183" height="192" viewBox="0 0 183 192" fill="none" xmlns="http://www.w3.org/2000/svg">
<g id="Group 197">
<g id="Group 195">
<g id="Group 194">
<path id="Vector" d="M17.0709 119.539C16.9209 119.491 16.7851 119.406 16.6757 119.293C16.5664 119.179 16.4868 119.041 16.4442 118.889C16.3184 118.505 16.3184 118.09 16.4442 117.706L16.594 117.229C16.6453 117.076 16.7083 116.883 16.7793 116.658C16.8502 116.433 16.9487 116.173 17.0512 115.87C18.4417 111.986 20.4053 108.333 22.8767 105.031C23.665 103.974 24.5282 102.918 25.4505 101.909C26.3728 100.9 27.3542 99.9382 28.3632 98.9962C30.3113 97.225 32.4036 95.6192 34.6184 94.1955C36.4829 92.992 38.4206 91.906 40.4203 90.9437C42.1506 90.1081 43.6128 89.5051 44.6416 89.107C45.154 88.9099 45.5599 88.7562 45.824 88.6577L46.2497 88.5039C46.3207 88.4788 46.393 88.4577 46.4664 88.4409L46.7345 88.3463C47.8447 87.9412 49.065 87.958 50.1636 88.3936C50.8866 88.6672 51.4865 89.1928 51.853 89.8735C52.2194 90.5542 52.3277 91.3443 52.158 92.0986L52.2684 92.071C53.3417 91.7657 54.4922 91.8975 55.4688 92.4375C55.9006 92.6767 56.2741 93.0087 56.5623 93.4094C56.8506 93.8101 57.0465 94.2697 57.136 94.7551C57.2605 95.497 57.1589 96.2593 56.8444 96.9427C56.5395 97.6114 56.0637 98.1878 55.4649 98.6138C55.8747 99.0702 56.1611 99.6237 56.2966 100.222C56.4692 100.989 56.413 101.789 56.1349 102.524C55.886 103.21 55.4388 103.807 54.85 104.238C55.22 104.675 55.4891 105.188 55.6383 105.74C55.8918 106.651 55.8407 107.62 55.4925 108.499C55.3528 108.88 55.1342 109.227 54.8509 109.518C54.5677 109.809 54.2262 110.036 53.8489 110.186C53.8489 110.186 53.5059 110.304 53.0014 110.501C52.4969 110.698 51.819 110.97 51.1884 111.262C50.5578 111.554 49.9113 111.865 49.4501 112.109L48.8984 112.405L48.6934 112.519C48.6461 112.546 48.5958 112.567 48.5436 112.582L48.3662 112.681L47.8775 112.969C47.4636 113.217 46.8803 113.584 46.2182 114.045C45.4839 114.56 44.7774 115.114 44.1015 115.704C43.3689 116.351 42.6815 117.048 42.0441 117.789C40.8985 119.115 39.9495 120.599 39.226 122.196C38.9304 122.846 38.7254 123.414 38.5835 123.816C38.5086 124.013 38.4653 124.178 38.4298 124.285C38.3943 124.391 37.2473 127.734 37.2473 127.734C37.1291 128.128 35.2254 127.016 34.6342 126.862L17.0709 119.539Z" fill="white"/>
<path id="Vector_2" d="M35.1348 128.269C34.8786 128.155 34.4963 127.978 34.382 127.946H34.3071L16.7006 120.584C16.3936 120.48 16.1156 120.304 15.8895 120.072C15.6634 119.84 15.4956 119.557 15.3999 119.247C15.2026 118.642 15.2026 117.989 15.3999 117.383L15.7427 116.323C15.794 116.157 15.861 115.972 15.9319 115.775L16.0226 115.527C16.6063 113.878 17.2962 112.269 18.0879 110.71C19.2035 108.496 20.5134 106.386 22.0018 104.404C22.8729 103.221 23.7637 102.165 24.6466 101.199C25.5846 100.171 26.5897 99.1655 27.6263 98.2196C29.62 96.4065 31.761 94.7625 34.0273 93.3046C35.927 92.0751 37.9016 90.9654 39.9395 89.9819C41.3703 89.296 42.8168 88.6654 44.2396 88.1136C44.7717 87.9086 45.1817 87.7549 45.4576 87.6564L45.8911 87.4988L46.1631 87.416L46.3798 87.3411C47.0405 87.1069 47.7363 86.9869 48.4373 86.9863C49.1795 86.9847 49.9148 87.1293 50.6012 87.412C51.2291 87.6634 51.7905 88.0563 52.2417 88.5601C52.6929 89.064 53.0217 89.6652 53.2026 90.3169C53.2485 90.4905 53.2827 90.6669 53.3051 90.8451C54.2557 90.8164 55.1961 91.0481 56.0246 91.5151C56.5961 91.8351 57.0899 92.2772 57.4707 92.81C57.8516 93.3428 58.1102 93.9531 58.228 94.5973C58.3938 95.5577 58.2646 96.5458 57.8575 97.4313C57.6263 97.9413 57.3149 98.411 56.9351 98.8226C57.1358 99.1951 57.2857 99.5928 57.3806 100.005C57.6009 100.983 57.5297 102.004 57.1756 102.941C56.974 103.487 56.6763 103.991 56.2967 104.431C56.4655 104.764 56.5977 105.114 56.6908 105.476C57.0106 106.624 56.9442 107.846 56.5016 108.952C56.304 109.476 55.9982 109.951 55.6043 110.349C55.2104 110.746 54.7372 111.056 54.2156 111.258L54.0343 111.321L53.3957 111.565C53.0528 111.699 52.367 111.96 51.6339 112.306C51.086 112.555 50.4514 112.85 49.9627 113.095L49.4227 113.386L49.2216 113.497C49.146 113.541 49.067 113.579 48.9852 113.611L48.4373 113.93C48.0234 114.183 47.4716 114.525 46.8607 114.967C46.1605 115.456 45.4869 115.982 44.8427 116.544C44.1425 117.156 43.4841 117.814 42.872 118.514C41.7948 119.764 40.9016 121.162 40.2194 122.665C39.9513 123.252 39.7661 123.764 39.6084 124.198C39.5729 124.292 39.5454 124.379 39.5217 124.466C39.4981 124.553 39.4822 124.588 39.4665 124.635C39.3837 124.88 38.485 127.513 38.284 128.076C38.1989 128.327 38.0354 128.544 37.8175 128.696C37.5997 128.847 37.3391 128.924 37.0741 128.916C36.609 128.951 36.0295 128.699 35.1348 128.269ZM38.2407 121.754C38.5982 120.973 39.0036 120.215 39.4547 119.484C39.9862 118.644 40.5762 117.844 41.2205 117.087C41.8937 116.307 42.6193 115.574 43.3923 114.892C44.0978 114.275 44.8359 113.696 45.6034 113.158C46.2853 112.681 46.8805 112.31 47.3259 112.038L47.6372 111.857L48.1417 111.569L48.2166 111.55L48.9576 111.155C49.5133 110.864 50.1676 110.545 50.751 110.28C51.5393 109.93 52.2566 109.638 52.6232 109.492C53.1001 109.307 53.3524 109.212 53.514 109.157C53.74 109.057 53.9432 108.911 54.1112 108.729C54.2793 108.548 54.4086 108.334 54.4914 108.101C54.7505 107.446 54.7866 106.724 54.5939 106.047C54.4884 105.649 54.296 105.279 54.0303 104.963L53.242 104.049L54.2195 103.351C54.6281 103.054 54.9395 102.643 55.1142 102.169C55.316 101.635 55.357 101.054 55.2324 100.498C55.14 100.086 54.9432 99.7043 54.6609 99.3902L53.8214 98.4679L54.8382 97.7466C55.2777 97.4351 55.626 97.0119 55.8473 96.5208C56.0728 96.0405 56.1471 95.5031 56.0601 94.9797C55.9996 94.6533 55.8671 94.3445 55.6721 94.0758C55.477 93.8072 55.2245 93.5854 54.9329 93.4267C54.483 93.1688 53.9735 93.0329 53.4549 93.0326C53.1566 93.0326 52.8596 93.0723 52.5719 93.1508L50.7234 93.6553L51.09 91.8895C51.171 91.5514 51.171 91.1989 51.09 90.8608C50.9974 90.5345 50.8292 90.2345 50.5991 89.9853C50.3691 89.736 50.0835 89.5444 49.7656 89.4261C49.3518 89.2561 48.9083 89.1703 48.461 89.1739C48.0086 89.1758 47.5597 89.2531 47.1327 89.4025L46.8016 89.5207H46.7386L46.6597 89.5444L46.2301 89.702C45.97 89.7927 45.5758 89.9425 45.0477 90.1395C43.68 90.6716 42.2886 91.2786 40.9131 91.9368C38.9525 92.8799 37.0529 93.9449 35.2255 95.1255C33.0614 96.5152 31.0178 98.0842 29.1162 99.8159C28.1269 100.718 27.1691 101.676 26.2743 102.658C25.4388 103.572 24.5953 104.593 23.7676 105.697C22.3571 107.578 21.1147 109.58 20.0547 111.68C19.3015 113.158 18.6432 114.682 18.0839 116.244L17.9972 116.492C17.9302 116.674 17.8711 116.839 17.8238 116.985L17.4849 118.033C17.4401 118.184 17.4401 118.344 17.4849 118.495L35.0285 125.834C35.3807 125.953 35.7243 126.097 36.0571 126.263L36.538 126.48L37.3972 123.957V123.934C37.3972 123.906 37.3972 123.871 37.4288 123.831C37.4603 123.792 37.4997 123.603 37.5589 123.437C37.6889 123.122 37.9372 122.487 38.2407 121.77V121.754Z" fill="black"/>
<path id="Vector_3" d="M13.7839 118.116L13.7129 118.278L13.5238 118.735L13.2321 119.452C13.1138 119.74 12.9917 120.059 12.8379 120.414L12.3807 121.597C12.223 122.018 12.0497 122.479 11.8684 122.972C11.4742 123.954 11.1195 125.053 10.6859 126.255C8.69815 132.094 7.01157 138.031 5.63291 144.043C4.87614 147.315 4.22188 150.61 3.68978 153.724C3.39417 155.273 3.19708 156.79 2.9803 158.225C2.87388 158.938 2.77139 159.64 2.67285 160.314C2.57431 160.988 2.51516 161.65 2.44027 162.284C2.29838 163.546 2.16437 164.701 2.04612 165.725C1.92788 166.75 1.8845 167.657 1.82537 168.398C1.70713 169.876 1.64014 170.723 1.64014 170.723L29.1911 172.572C29.1911 172.572 29.2463 171.874 29.3448 170.648C29.3961 170.037 29.4473 169.296 29.5261 168.441C29.6049 167.586 29.735 166.628 29.8533 165.58C29.9164 165.051 29.9755 164.507 30.0464 163.94C30.1174 163.372 30.2159 162.789 30.3065 162.19C30.4878 161.007 30.6455 159.719 30.8977 158.414C31.3471 155.793 31.8989 153.006 32.5414 150.235C33.7038 145.164 35.126 140.156 36.8022 135.23C37.149 134.241 37.4604 133.322 37.7599 132.538L38.1541 131.431C38.2841 131.099 38.4023 130.792 38.5088 130.516C38.6152 130.24 38.7137 129.992 38.7965 129.791L39.0054 129.275C39.0645 129.129 39.1079 129.022 39.1355 128.963C39.1631 128.904 39.1788 128.865 39.1788 128.865L13.7839 118.116Z" fill="#1D4ED8"/>
<path id="Vector_4" d="M29.325 174.026C29.2516 174.034 29.1777 174.034 29.1043 174.026C28.7168 173.995 28.3574 173.811 28.1048 173.516C27.8522 173.22 27.7269 172.837 27.7563 172.449L27.91 170.526C27.9297 170.301 27.9494 170.065 27.9691 169.809C28.0007 169.363 28.0401 168.855 28.0913 168.303C28.0913 168.303 28.0913 168.303 28.0913 168.271L28.4224 165.406C28.4461 165.213 28.4658 165.012 28.4894 164.823C28.5288 164.476 28.5683 164.117 28.6116 163.751V163.719L28.8678 161.969C28.923 161.626 28.9702 161.279 29.0215 160.928C29.1515 160.034 29.2856 159.107 29.4708 158.146C29.9438 155.387 30.5035 152.604 31.1262 149.9C32.3001 144.778 33.7366 139.72 35.4303 134.745L35.7378 133.866C35.9664 133.208 36.1872 132.581 36.4039 132.018L36.7981 130.918C36.7981 130.918 36.7981 130.918 36.7981 130.894L37.1528 129.98L37.2829 129.649L14.5484 120.055C14.438 120.327 14.3198 120.623 14.1937 120.954L13.7365 122.136L13.232 123.504C12.9561 124.229 12.6762 125.029 12.3805 125.869C12.2781 126.157 12.1757 126.452 12.0692 126.756C10.0999 132.542 8.42777 138.425 7.05954 144.382C6.33431 147.535 5.68401 150.763 5.1322 153.984C5.13382 153.993 5.13382 154.002 5.1322 154.011C4.91936 155.127 4.73801 156.238 4.60006 157.314C4.54488 157.708 4.48973 158.079 4.43455 158.457L4.13105 160.522C4.07587 160.961 4.02467 161.391 3.97737 161.811C3.95372 162.032 3.92606 162.249 3.90241 162.462L3.50826 165.879C3.4452 166.557 3.394 167.184 3.35064 167.739C3.35064 168.015 3.31126 168.279 3.28761 168.528L3.10623 170.845C3.09096 171.038 3.03794 171.225 2.95014 171.397C2.86235 171.569 2.74153 171.723 2.59458 171.848C2.44763 171.973 2.27745 172.068 2.09372 172.128C1.90998 172.188 1.71631 172.21 1.52376 172.195C1.33122 172.18 1.14356 172.127 0.971514 172.039C0.799466 171.951 0.646427 171.83 0.521072 171.683C0.395717 171.537 0.300532 171.366 0.240954 171.183C0.181376 170.999 0.158518 170.805 0.173787 170.613L0.35508 168.287C0.378729 168.043 0.398498 167.787 0.418205 167.499C0.465503 166.931 0.516708 166.289 0.579771 165.587C0.579771 165.587 0.579771 165.568 0.579771 165.556L0.973919 162.115C0.997568 161.898 1.02119 161.685 1.04878 161.468C1.09608 161.035 1.14738 160.585 1.2065 160.132C1.20457 160.122 1.20457 160.111 1.2065 160.101L1.51395 158.012C1.56913 157.618 1.62428 157.263 1.67946 156.88C1.84106 155.777 2.00656 154.638 2.22728 153.467C2.78697 150.196 3.4452 146.916 4.19802 143.716C5.59019 137.655 7.29126 131.669 9.29443 125.782C9.40479 125.471 9.50728 125.175 9.60582 124.888C9.90931 124.024 10.1931 123.208 10.4808 122.452L10.9892 121.088L11.4465 119.905C11.5844 119.547 11.7145 119.22 11.8406 118.92L12.3963 117.568C12.4709 117.39 12.5799 117.228 12.7172 117.091C12.8545 116.955 13.0174 116.847 13.1965 116.774C13.3755 116.701 13.5672 116.664 13.7606 116.665C13.9541 116.666 14.1455 116.705 14.3238 116.78L39.7659 127.516C39.9449 127.591 40.1075 127.7 40.2441 127.838C40.3807 127.975 40.4888 128.139 40.562 128.318C40.6353 128.498 40.6723 128.69 40.671 128.884C40.6696 129.078 40.63 129.269 40.5542 129.448L40.5109 129.546L40.3966 129.822L40.1877 130.343C40.1049 130.532 40.0182 130.76 39.9079 131.044L39.5571 131.951L39.163 133.046C38.962 133.575 38.7491 134.182 38.5244 134.824C38.4259 135.112 38.3234 135.403 38.217 135.703C36.5603 140.576 35.154 145.53 34.0035 150.547C33.3926 153.203 32.8447 155.927 32.3796 158.642C32.3796 158.642 32.3796 158.666 32.3796 158.674C32.2062 159.573 32.0762 160.471 31.9501 161.338C31.8988 161.697 31.8475 162.048 31.7923 162.395L31.5362 164.125C31.4928 164.472 31.4573 164.807 31.4179 165.138C31.4179 165.339 31.3746 165.532 31.3509 165.733L31.0238 168.579C30.9765 169.103 30.937 169.592 30.9055 170.025C30.8858 170.285 30.8661 170.53 30.8464 170.755L30.6927 172.674C30.6659 173.026 30.5127 173.357 30.2614 173.606C30.0102 173.854 29.6776 174.003 29.325 174.026Z" fill="#1D4ED8"/>
<path id="Vector_5" d="M15.5417 169.391H15.4708C15.2976 169.385 15.1337 169.311 15.0149 169.184C14.8961 169.058 14.8319 168.89 14.8361 168.717C14.8361 168.567 14.9663 164.91 16.1763 158.197C17.2878 152.021 19.5699 142.002 24.142 129.326C24.2071 129.172 24.3288 129.048 24.482 128.981C24.6352 128.914 24.8083 128.908 24.9657 128.965C25.1232 129.021 25.253 129.136 25.3285 129.285C25.404 129.434 25.4195 129.607 25.3718 129.767C20.8312 142.356 18.5648 152.301 17.4612 158.43C16.2788 165.048 16.1447 168.721 16.1447 168.756C16.1412 168.918 16.0775 169.073 15.9659 169.19C15.8544 169.308 15.7031 169.379 15.5417 169.391Z" fill="black"/>
<path id="Vector_6" d="M7.78092 157.882C7.6556 157.891 7.53035 157.863 7.42045 157.803C7.31055 157.742 7.22074 157.65 7.16208 157.539C7.12119 157.463 7.09559 157.38 7.08673 157.295C7.07787 157.21 7.08598 157.123 7.1105 157.041C7.13502 156.958 7.17546 156.882 7.22963 156.815C7.2838 156.748 7.35065 156.693 7.42622 156.652C10.6031 154.942 14.8756 153.917 20.1217 153.617C22.4299 153.474 24.7453 153.493 27.0508 153.676C27.2159 153.701 27.3652 153.789 27.468 153.92C27.5708 154.052 27.6194 154.218 27.6038 154.384C27.5882 154.551 27.5095 154.705 27.384 154.815C27.2585 154.925 27.0956 154.983 26.9287 154.977C26.8104 154.977 15.2382 153.929 8.04891 157.807C7.96532 157.849 7.87429 157.875 7.78092 157.882Z" fill="black"/>
<path id="Vector_7" d="M27.4134 152.403C27.2887 152.412 27.1642 152.385 27.0546 152.325C26.964 152.273 17.7213 147.279 9.40477 148.419C9.31962 148.43 9.23298 148.425 9.14986 148.403C9.06674 148.381 8.9887 148.343 8.92026 148.291C8.85182 148.239 8.79434 148.174 8.751 148.1C8.70765 148.026 8.67931 147.944 8.66766 147.859C8.65602 147.774 8.66124 147.687 8.68306 147.604C8.70488 147.521 8.7429 147.443 8.79488 147.374C8.84685 147.306 8.91178 147.248 8.98598 147.205C9.06019 147.162 9.14218 147.133 9.22732 147.122C17.9853 145.939 27.2912 150.965 27.6853 151.178C27.8091 151.246 27.9075 151.352 27.9657 151.481C28.0239 151.61 28.0388 151.754 28.0082 151.892C27.9775 152.03 27.9031 152.155 27.7959 152.247C27.6886 152.339 27.5544 152.394 27.4134 152.403Z" fill="black"/>
</g>
<g id="Group 193">
<rect id="Rectangle 1598" x="30.1149" y="76.4237" width="100.853" height="56.7081" rx="5.33742" transform="rotate(-15 30.1149 76.4237)" fill="white" stroke="black" stroke-width="3.20245"/>
<g id="Mask group">
<mask id="mask0_8205_28167" style="mask-type:alpha" maskUnits="userSpaceOnUse" x="38" y="69" width="54" height="55">
<rect id="Rectangle 1597" x="37.7065" y="80.4849" width="44.1446" height="44.9329" rx="3.46933" transform="rotate(-15 37.7065 80.4849)" fill="#007AFF"/>
</mask>
<g mask="url(#mask0_8205_28167)">
<rect id="Rectangle 1599" x="28.5" y="67.4458" width="78.0413" height="70.5525" transform="rotate(-15 28.5 67.4458)" fill="#1D4ED8"/>
<g id="Group 190">
<path id="Vector_8" d="M93.7024 114.166L90.895 109.993C89.9605 108.605 88.677 107.488 87.1736 106.753C85.6702 106.018 83.9999 105.693 82.3307 105.808L68.7089 106.749L54.7797 112.77C53.0368 113.521 51.5576 114.775 50.5315 116.372C49.5054 117.968 48.9791 119.834 49.0199 121.732L49.1166 126.113L93.7024 114.166Z" fill="black"/>
<path id="Vector_9" d="M66.784 121.738L74.5468 119.658L73.6376 112.214L68.3152 110.914L63.8301 115.115L66.784 121.738Z" fill="white"/>
<path id="Vector_10" d="M74.9802 119.95L66.5587 122.207L63.3554 115.018L68.1991 110.48L73.9966 111.893L74.9802 119.95ZM67.0057 121.271L74.1137 119.366L73.2777 112.531L68.4268 111.345L64.3041 115.209L67.0057 121.271Z" fill="black"/>
<path id="Vector_11" d="M53.3608 94.2737C53.3608 94.2737 49.3321 87.4452 50.5609 83.823C51.8274 80.1131 52.9626 77.0871 57.2337 78.0115C61.5048 78.9359 60.268 75.9499 65.8282 76.3249C68.8988 76.5304 71.3419 78.1403 71.7215 80.3033C72.1012 82.4663 73.5898 88.0372 72.2829 90.6521C70.9759 93.2669 57.7898 98.8487 53.3608 94.2737Z" fill="black"/>
<path id="Vector_12" d="M68.0106 110.996L68.0298 110.991C66.921 111.283 65.7418 111.123 64.7502 110.548C63.7586 109.972 63.0354 109.027 62.7387 107.92L58.6785 92.7674C58.3877 91.6619 58.5452 90.4865 59.1167 89.4965C59.6883 88.5066 60.6277 87.7824 61.7305 87.4816L61.7113 87.4867C62.8168 87.1959 63.9924 87.3533 64.9823 87.9248C65.9723 88.4964 66.6964 89.4356 66.9973 90.5384L71.0574 105.691C71.3541 106.798 71.2002 107.978 70.6292 108.972C70.0582 109.967 69.1167 110.694 68.0106 110.996Z" fill="white"/>
<path id="Vector_13" d="M68.1431 111.369L68.1165 111.376C66.9095 111.686 65.6286 111.508 64.5525 110.879C63.4763 110.251 62.6918 109.223 62.3693 108.019L58.3091 92.8664C57.9924 91.6645 58.1615 90.3864 58.7797 89.3083C59.398 88.2301 60.4159 87.4386 61.6132 87.1049L61.6474 87.0958C62.851 86.7861 64.1282 86.9627 65.2027 87.5873C66.2772 88.2118 67.0627 89.2342 67.3893 90.4333L71.4494 105.586C71.772 106.79 71.6065 108.072 70.9888 109.155C70.3711 110.237 69.3512 111.032 68.1507 111.367L68.1431 111.369ZM61.8479 87.8745C60.8479 88.1499 59.9968 88.8083 59.4791 89.7071C58.9614 90.6058 58.8188 91.6724 59.0823 92.6755L63.1424 107.828C63.262 108.339 63.483 108.82 63.7922 109.244C64.1015 109.667 64.4927 110.024 64.9427 110.294C65.3926 110.563 65.8921 110.739 66.4115 110.812C66.9309 110.884 67.4597 110.852 67.9663 110.716C68.4728 110.58 68.9469 110.344 69.3604 110.022C69.7739 109.699 70.1183 109.297 70.3733 108.839C70.6283 108.38 70.7886 107.875 70.8446 107.354C70.9007 106.833 70.8514 106.305 70.6997 105.803L66.6395 90.6506C66.3663 89.6507 65.7103 88.7987 64.8134 88.2791C63.9166 87.7595 62.8511 87.6142 61.8479 87.8745Z" fill="black"/>
<path id="Vector_14" d="M56.8343 98.5888C57.7638 98.048 57.6823 96.1745 56.6522 94.4039C55.6222 92.6334 54.0336 91.6364 53.1041 92.1771C52.1746 92.7179 52.2562 94.5916 53.2863 96.3622C54.3164 98.1327 55.9048 99.1296 56.8343 98.5888Z" fill="white"/>
<path id="Vector_15" d="M56.6664 99.2682C55.5242 99.5743 53.9725 98.5496 52.9279 96.7525C52.425 95.9221 52.1238 94.9855 52.0483 94.0177C52.0075 93.0737 52.3081 92.3687 52.8904 92.0291C53.4727 91.6894 54.2315 91.7799 55.0285 92.2723C55.8341 92.814 56.4997 93.539 56.9706 94.3879C58.1274 96.3753 58.1451 98.4516 57.0118 99.1103C56.9047 99.179 56.7884 99.2323 56.6664 99.2682ZM53.4467 92.6431C53.39 92.6582 53.3357 92.681 53.2853 92.7109C52.9747 92.892 52.8096 93.3566 52.8393 93.9852C52.9074 94.8253 53.1713 95.6377 53.6097 96.3576C54.5923 98.0448 55.9837 98.8064 56.6163 98.441C57.2488 98.0757 57.2717 96.4863 56.2881 94.7953C55.8809 94.058 55.3064 93.4264 54.6108 92.9515C54.2789 92.6987 53.8602 92.5879 53.4467 92.6431Z" fill="black"/>
<path id="Vector_16" d="M69.2705 91.2107C69.2628 93.253 70.1264 94.923 71.205 94.9279C72.2835 94.9327 73.1534 93.2756 73.1629 91.2247C73.1724 89.1737 72.3031 87.5131 71.2284 87.5073C70.1537 87.5015 69.281 89.1635 69.2705 91.2107Z" fill="white"/>
<path id="Vector_17" d="M71.5829 95.2715C71.4547 95.3078 71.3221 95.3256 71.1889 95.3241C69.878 95.3203 68.8522 93.5018 68.8634 91.2137C68.8485 90.2433 69.0624 89.283 69.4874 88.4105C69.9285 87.5742 70.5441 87.1154 71.2212 87.1299C71.8984 87.1443 72.5064 87.6015 72.9411 88.4317C73.3614 89.3071 73.569 90.2692 73.5467 91.24C73.5527 93.3031 72.725 94.9655 71.5829 95.2715ZM69.6779 91.2077C69.6716 93.164 70.4852 94.5251 71.2205 94.528C71.9557 94.5309 72.7752 93.1729 72.7825 91.2204C72.8054 90.3776 72.6288 89.5413 72.2672 88.7797C71.9748 88.2215 71.6032 87.9007 71.2399 87.9001C70.8766 87.8995 70.5081 88.2145 70.2125 88.7711C69.8462 89.5303 69.663 90.3649 69.6779 91.2077Z" fill="black"/>
<path id="Vector_18" d="M61.8191 79.9702L57.5208 81.122C54.3815 81.9631 52.5186 85.1899 53.3597 88.3291L57.0026 101.925C57.8438 105.064 61.0705 106.927 64.2098 106.086L68.5081 104.934C71.6473 104.093 73.5103 100.866 72.6691 97.7267L69.0263 84.1313C68.1851 80.992 64.9583 79.1291 61.8191 79.9702Z" fill="white"/>
<path id="Vector_19" d="M68.6051 105.312L64.3107 106.462C62.7021 106.887 60.9908 106.659 59.5498 105.827C58.1087 104.996 57.0546 103.629 56.617 102.024L52.9752 88.4321C52.5516 86.8232 52.7808 85.1121 53.6131 83.6716C54.4454 82.231 55.8133 81.1777 57.4187 80.7411L61.7131 79.5904C63.3213 79.167 65.0318 79.3959 66.472 80.2274C67.9122 81.0589 68.9657 82.4258 69.4031 84.0302L73.045 97.6218C73.4684 99.23 73.2395 100.94 72.4079 102.381C71.5764 103.821 70.2096 104.874 68.6051 105.312ZM57.6268 81.5178C56.2234 81.9003 55.0276 82.8214 54.2998 84.0809C53.5721 85.3404 53.3712 86.8364 53.7407 88.2433L57.3825 101.835C57.766 103.238 58.688 104.433 59.948 105.16C61.208 105.887 62.7041 106.087 64.1108 105.716L68.4052 104.566C69.8077 104.182 71.0022 103.261 71.7292 102.002C72.4562 100.742 72.6569 99.2473 72.2876 97.841L68.6458 84.2495C68.2625 82.847 67.341 81.6523 66.0818 80.9253C64.8226 80.1984 63.3275 79.9978 61.9212 80.3671L57.6268 81.5178Z" fill="black"/>
<path id="Vector_20" d="M59.2442 95.2343C59.5825 94.9852 59.5763 94.4023 59.2304 93.9326C58.8844 93.4628 58.3298 93.2841 57.9915 93.5332C57.6532 93.7824 57.6593 94.3651 58.0052 94.8348C58.3512 95.3046 58.906 95.4834 59.2442 95.2343Z" fill="black"/>
<path id="Vector_21" d="M60.1673 92.2624C60.0831 92.2847 59.994 92.2785 59.9137 92.2447C59.438 92.0646 58.9203 92.0262 58.4232 92.134C57.8285 92.2274 57.2884 92.5347 56.9042 92.9981C56.8743 93.0405 56.8363 93.0765 56.7925 93.1041C56.7487 93.1318 56.6998 93.1507 56.6487 93.1594C56.5976 93.1682 56.5453 93.1667 56.4948 93.1552C56.4442 93.1437 56.3963 93.1223 56.354 93.0923C56.3118 93.0622 56.276 93.024 56.2486 92.9799C56.2211 92.9359 56.2028 92.8869 56.1944 92.8356C56.1859 92.7844 56.1876 92.7322 56.1995 92.6816C56.2114 92.6311 56.2332 92.5835 56.2635 92.5414C56.7642 91.9126 57.4798 91.4911 58.2725 91.3583C58.9225 91.2217 59.5981 91.2774 60.2169 91.5187C60.313 91.5591 60.3894 91.636 60.429 91.7325C60.4686 91.8289 60.4683 91.937 60.4283 92.0333C60.4052 92.0889 60.3697 92.1384 60.3244 92.1781C60.2792 92.2178 60.2254 92.2467 60.1673 92.2624Z" fill="black"/>
<path id="Vector_22" d="M65.8603 92.463C66.2067 92.9333 66.7605 93.1114 67.1014 92.8609C67.4424 92.6104 67.4297 92.0302 67.0834 91.5599C66.737 91.0896 66.1833 90.9115 65.8462 91.161C65.509 91.4105 65.5139 91.9927 65.8603 92.463Z" fill="black"/>
<path id="Vector_23" d="M68.0136 90.16C67.9294 90.1823 67.8403 90.1761 67.76 90.1423C67.2839 89.964 66.7667 89.9256 66.2695 90.0316C65.676 90.1246 65.1371 90.4316 64.7544 90.8947C64.7245 90.937 64.6866 90.973 64.6427 91.0007C64.5989 91.0284 64.55 91.0472 64.4989 91.056C64.4478 91.0647 64.3954 91.0633 64.3448 91.0518C64.2943 91.0403 64.2465 91.0189 64.2042 90.9889C64.1618 90.959 64.1259 90.9211 64.0982 90.8772C64.0705 90.8334 64.0517 90.7845 64.0429 90.7334C64.0342 90.6823 64.0356 90.6301 64.0471 90.5795C64.0586 90.5289 64.0799 90.4812 64.1099 90.439C64.6105 89.8102 65.3261 89.3887 66.1188 89.2559C66.7688 89.1193 67.4446 89.175 68.0634 89.4163C68.139 89.4481 68.2028 89.5027 68.2459 89.5726C68.289 89.6424 68.3092 89.7241 68.3037 89.806C68.2982 89.8878 68.2673 89.966 68.2153 90.0295C68.1633 90.093 68.0928 90.1385 68.0136 90.16Z" fill="black"/>
<path id="Vector_24" d="M63.6172 96.9447C63.5034 96.9756 63.3843 96.9822 63.2678 96.9642C63.1512 96.9462 63.0397 96.904 62.9405 96.8403C62.7955 96.7206 62.6755 96.5735 62.5876 96.4073C62.4996 96.2411 62.4453 96.0591 62.428 95.8718C62.1324 94.3882 61.8698 92.8752 61.6324 91.38C61.617 91.2759 61.6436 91.17 61.7063 91.0855C61.769 91.0009 61.8627 90.9449 61.9668 90.9294C62.0708 90.914 62.1768 90.9404 62.2613 91.0031C62.3458 91.0658 62.4019 91.1595 62.4173 91.2636C62.6392 92.7465 62.9026 94.2471 63.2026 95.7172C63.2172 95.8863 63.2788 96.048 63.3807 96.1838C63.3965 96.105 63.4362 96.0329 63.4943 95.9772C63.5523 95.9216 63.6258 95.8849 63.7052 95.8723C63.757 95.8659 63.8096 95.8698 63.8598 95.8839C63.91 95.8979 63.9568 95.9218 63.9977 95.9541C64.0386 95.9864 64.0728 96.0265 64.0981 96.0721C64.1234 96.1176 64.1394 96.1678 64.1452 96.2196C64.1586 96.3469 64.1345 96.4752 64.0758 96.5889C64.017 96.7025 63.9262 96.7965 63.8146 96.8591C63.7525 96.8955 63.6862 96.9243 63.6172 96.9447Z" fill="black"/>
<path id="Vector_25" d="M65.8634 99.0076C65.6031 99.0774 65.3322 99.0987 65.0642 99.0707C64.96 99.0597 64.8646 99.0078 64.7987 98.9263C64.7329 98.8448 64.7022 98.7405 64.7133 98.6364C64.7243 98.5322 64.7763 98.4368 64.8577 98.3709C64.9392 98.3051 65.0435 98.2742 65.1476 98.2853C65.3746 98.2976 65.6019 98.2649 65.8162 98.1892C66.0306 98.1135 66.2277 97.9962 66.3966 97.844C66.5655 97.6919 66.7028 97.5078 66.8004 97.3025C66.898 97.0972 66.9539 96.8747 66.9652 96.6476C66.965 96.5957 66.9752 96.5443 66.9948 96.4962C67.0145 96.4482 67.0433 96.4043 67.0799 96.3675C67.1164 96.3306 67.1597 96.3013 67.2076 96.2812C67.2554 96.2611 67.3068 96.2507 67.3587 96.2505C67.4106 96.2502 67.4622 96.2602 67.5102 96.2798C67.5583 96.2995 67.602 96.3284 67.6388 96.3649C67.6757 96.4015 67.705 96.445 67.7251 96.4928C67.7452 96.5407 67.7558 96.592 67.756 96.6439C67.7494 96.983 67.672 97.317 67.5289 97.6245C67.3857 97.932 67.1797 98.2061 66.9244 98.4294C66.6218 98.7039 66.2581 98.9021 65.8634 99.0076Z" fill="black"/>
<path id="Vector_26" d="M54.2808 90.7303C54.2808 90.7303 53.5385 85.4778 55.3204 85.7471C57.1023 86.0163 57.5529 87.4543 60.0821 86.9643C62.6113 86.4743 63.9729 85.175 65.0784 85.8132C66.1838 86.4515 68.3083 87.9388 70.0632 85.9751C71.818 84.0114 71.127 80.6098 67.2935 79.7803C63.46 78.9509 58.3343 80.0305 55.451 80.6154C52.5678 81.2002 51.0353 87.1155 54.2808 90.7303Z" fill="black"/>
<path id="Vector_27" d="M69.431 115.749L67.3822 113.707L65.3362 111.66L68.1345 110.91L70.9289 110.161L70.1805 112.957L69.431 115.749Z" fill="black"/>
<path id="Vector_28" d="M68.4904 112.238L68.1911 116.726L67.8966 121.216L70.6949 120.466L73.4894 119.717L70.9894 115.976L68.4904 112.238Z" fill="black"/>
<path id="Vector_29" d="M68.0106 110.996L64.8309 117.83L61.6768 110.445L62.7427 107.936L68.0106 110.996Z" fill="white"/>
<path id="Vector_30" d="M64.8279 118.794L61.2637 110.441L62.5707 107.369L68.5336 110.831L64.8279 118.794ZM62.1164 110.441L64.8604 116.859L67.5168 111.149L62.9461 108.497L62.1164 110.441Z" fill="black"/>
<path id="Vector_31" d="M68.3153 110.914L74.4861 115.243L73.5249 107.27L71.3471 105.63L68.3153 110.914Z" fill="white"/>
<path id="Vector_32" d="M74.9818 116.073L67.7913 111.03L71.2283 105.05L73.8961 107.057L74.9818 116.073ZM68.8312 110.784L73.9871 114.402L73.1506 107.472L71.4637 106.203L68.8312 110.784Z" fill="black"/>
</g>
</g>
</g>
<rect id="Rectangle 1600" x="87.4585" y="71.2344" width="38.2324" height="6.70052" transform="rotate(-15 87.4585 71.2344)" fill="black"/>
<rect id="Rectangle 1601" x="91.3352" y="85.7017" width="38.2324" height="6.70052" transform="rotate(-15 91.3352 85.7017)" fill="black"/>
</g>
<g id="Group 192">
<path id="Vector_33" d="M47.306 99.9847C41.307 99.1964 37.2276 99.1057 31.2444 100.923L31.1577 122.108C36.057 119.511 37.3143 112.763 35.4185 107.087C39.6792 105.83 42.2885 106.015 46.4546 106.693C48.0706 107.004 49.5171 106.193 49.9428 104.056C50.4039 101.731 48.9732 100.272 47.306 99.9847Z" fill="white"/>
<path id="Vector_34" d="M31.1579 123.133C30.9199 123.141 30.6862 123.067 30.4962 122.924C30.3062 122.78 30.1714 122.576 30.1145 122.344C30.0576 122.113 30.0821 121.869 30.1838 121.654C30.2855 121.439 30.4583 121.265 30.6731 121.162C33.2666 119.786 34.3663 117.303 34.8314 115.467C35.4653 112.789 35.3287 109.986 34.4372 107.383C34.3929 107.251 34.3756 107.111 34.3865 106.972C34.3974 106.834 34.4363 106.699 34.5007 106.575C34.5652 106.452 34.6538 106.343 34.7614 106.255C34.869 106.167 34.9934 106.101 35.127 106.062C39.3996 104.801 42.127 104.911 46.6243 105.629H46.6558C47.8619 105.861 48.6462 105.234 48.93 103.808C49.013 103.487 49.0296 103.153 48.9788 102.825C48.9279 102.498 48.8107 102.184 48.6344 101.904C48.2794 101.409 47.7445 101.074 47.1446 100.97C41.2126 100.181 37.3618 100.111 31.5441 101.876C31.2889 101.937 31.0203 101.897 30.7929 101.767C30.5655 101.636 30.3963 101.424 30.3196 101.173C30.2428 100.923 30.2644 100.652 30.3798 100.417C30.4952 100.181 30.6959 99.9985 30.9411 99.9055C37.0977 98.0373 41.3269 98.1122 47.4441 98.932H47.4914C48.0623 99.0291 48.6082 99.2387 49.0974 99.5486C49.5866 99.8585 50.0093 100.263 50.341 100.737C50.6733 101.244 50.8994 101.813 51.0058 102.41C51.1121 103.007 51.0965 103.619 50.9599 104.21C50.4554 106.752 48.6225 108.104 46.2813 107.662C42.4068 107.048 40.0616 106.914 36.7114 107.765C37.4451 110.446 37.4885 113.269 36.8375 115.971C36.0492 119.124 34.1889 121.635 31.6427 122.987C31.496 123.076 31.3292 123.126 31.1579 123.133Z" fill="black"/>
</g>
</g>
<g id="Group 191">
<path id="Vector_35" d="M79.4065 129.588C77.4791 131.559 73.8884 136.182 73.8884 136.182C72.8794 137.447 73.242 139.422 74.7043 140.589C76.1666 141.755 78.1688 141.681 79.1818 140.411L87.6678 129.982L90.3204 126.072C84.6171 123.061 81.5428 127.412 79.4065 129.588Z" fill="white"/>
<path id="Vector_36" d="M77.8851 142.354C76.6583 142.576 75.3936 142.308 74.362 141.608C73.3304 140.908 72.6142 139.832 72.367 138.61C72.2589 138.077 72.2678 137.526 72.393 136.997C72.5182 136.468 72.7567 135.972 73.0923 135.543C73.2972 135.275 76.7421 130.814 78.6695 128.843C78.8824 128.63 79.107 128.39 79.3435 128.137C81.4522 125.867 84.9876 122.067 90.8171 125.134C90.943 125.194 91.0555 125.279 91.1478 125.384C91.2401 125.488 91.3103 125.611 91.3542 125.743C91.3981 125.876 91.4149 126.016 91.4034 126.155C91.3919 126.294 91.3524 126.429 91.2874 126.552C91.2223 126.676 91.133 126.785 91.0248 126.873C90.9165 126.961 90.7916 127.027 90.6575 127.065C90.5235 127.104 90.383 127.115 90.2444 127.098C90.1059 127.081 89.9723 127.037 89.8514 126.967C85.4252 124.633 82.9972 127.243 80.857 129.544C80.6086 129.809 80.3762 130.061 80.1476 130.293C78.2872 132.189 74.7596 136.749 74.7241 136.797C74.5732 136.995 74.4671 137.223 74.4134 137.466C74.3596 137.709 74.3594 137.961 74.4127 138.204C74.5398 138.818 74.8823 139.366 75.3783 139.749C76.3913 140.561 77.7432 140.537 78.4014 139.749L86.8953 129.316C87.0683 129.103 87.3188 128.968 87.5915 128.94C87.7266 128.926 87.863 128.939 87.9931 128.978C88.1232 129.016 88.2444 129.08 88.3497 129.166C88.4551 129.252 88.5425 129.357 88.607 129.477C88.6716 129.596 88.712 129.727 88.7259 129.862C88.7398 129.997 88.7269 130.134 88.6881 130.264C88.6492 130.394 88.5852 130.515 88.4995 130.621L80.0017 141.065C79.4663 141.727 78.7183 142.182 77.8851 142.354Z" fill="black"/>
<path id="Vector_37" d="M126.212 165.16C126.364 165.122 126.505 165.045 126.62 164.939C126.736 164.832 126.823 164.698 126.874 164.549C127.022 164.172 127.046 163.758 126.941 163.367L126.815 162.878C126.775 162.72 126.724 162.527 126.665 162.298C126.606 162.07 124.856 155.424 124.773 155.133C124.298 153.497 123.721 151.892 123.047 150.328C122.087 148.11 120.935 145.981 119.606 143.963C118.88 142.863 118.084 141.759 117.241 140.695C116.397 139.631 115.463 138.594 114.509 137.613C112.67 135.728 110.676 134 108.55 132.446C106.76 131.133 104.891 129.932 102.953 128.851C101.278 127.921 99.851 127.231 98.8499 126.77C98.3493 126.541 97.9551 126.376 97.6674 126.25L97.2733 126.068L97.0643 125.993L96.8003 125.883C95.7151 125.413 94.4949 125.357 93.3711 125.725C92.888 125.882 92.4479 126.149 92.0853 126.504C91.7228 126.86 91.4479 127.295 91.2822 127.775C91.1225 128.268 91.0806 128.792 91.16 129.304L91.0536 129.269C89.9988 128.901 88.8415 128.965 87.8334 129.446C87.3878 129.658 86.9952 129.967 86.6843 130.35C86.3733 130.734 86.1519 131.182 86.0361 131.661C85.8652 132.393 85.9201 133.16 86.1937 133.861C86.4568 134.547 86.8975 135.151 87.4707 135.611C87.0308 136.047 86.7117 136.59 86.5446 137.187C86.327 137.943 86.3352 138.746 86.5681 139.497C86.7775 140.196 87.1889 140.817 87.7506 141.282C87.3556 141.696 87.0568 142.191 86.8756 142.733C86.5769 143.628 86.5769 144.597 86.8756 145.492C86.9925 145.881 87.1901 146.24 87.4557 146.547C87.7213 146.854 88.0489 147.102 88.4168 147.274C88.4168 147.274 88.7478 147.415 89.2405 147.64C89.7332 147.865 90.3796 148.176 91.0102 148.511C91.6408 148.846 92.2439 149.189 92.6893 149.457L93.2253 149.784L93.4224 149.91C93.4673 149.941 93.5164 149.965 93.5682 149.981L93.7378 150.092L94.2107 150.407C94.6049 150.683 95.1685 151.081 95.7873 151.589C96.4887 152.148 97.1597 152.744 97.7974 153.375C98.4918 154.065 99.1384 154.801 99.7327 155.578C100.3 156.328 100.811 157.118 101.262 157.943C101.649 158.654 101.989 159.39 102.279 160.146C102.535 160.816 102.708 161.396 102.823 161.802C102.886 162.007 102.921 162.172 102.953 162.283C102.984 162.393 106.658 173.642 106.658 173.642C106.721 174.032 126.212 165.16 126.212 165.16Z" fill="white"/>
<path id="Vector_38" d="M106.717 174.828C106.452 174.821 106.196 174.728 105.987 174.564C105.779 174.4 105.628 174.174 105.558 173.918C105.401 173.342 101.924 162.815 101.857 162.566C101.857 162.515 101.826 162.456 101.81 162.393C101.791 162.301 101.767 162.21 101.739 162.121C101.609 161.679 101.455 161.159 101.223 160.544C100.633 159.003 99.8245 157.555 98.8223 156.244C98.2588 155.508 97.6465 154.81 96.9896 154.155C96.3813 153.555 95.7404 152.99 95.07 152.46C94.4749 151.983 93.9428 151.609 93.5447 151.333L93.0126 150.978C92.934 150.941 92.8576 150.899 92.784 150.852L92.5948 150.73L92.0706 150.407C91.5779 150.111 90.9867 149.78 90.4506 149.496C89.7412 149.102 89.0711 148.811 88.7361 148.653L88.1134 148.377L87.9399 148.298C87.4303 148.065 86.9756 147.728 86.6055 147.307C86.2353 146.887 85.958 146.393 85.7918 145.858C85.5458 145.117 85.4626 144.332 85.5476 143.556C85.6327 142.78 85.8839 142.031 86.2845 141.361C85.9334 140.898 85.6665 140.376 85.4962 139.82C85.1999 138.864 85.1904 137.841 85.4686 136.88C85.587 136.464 85.7606 136.066 85.9849 135.697C85.6315 135.264 85.3495 134.777 85.1494 134.255C84.7948 133.346 84.7234 132.351 84.9444 131.401C85.1015 130.765 85.3965 130.172 85.8086 129.663C86.2207 129.154 86.7398 128.742 87.329 128.457C88.185 128.039 89.1395 127.864 90.088 127.952C90.123 127.775 90.1676 127.6 90.222 127.428C90.4392 126.787 90.8011 126.205 91.2795 125.726C91.758 125.248 92.3402 124.886 92.981 124.669C93.6826 124.429 94.4244 124.328 95.1646 124.373C95.8658 124.417 96.5546 124.578 97.2023 124.85L97.4113 124.941C97.5019 124.968 97.5887 125 97.6754 125.035L98.101 125.221C98.369 125.335 98.7711 125.512 99.2835 125.749C100.675 126.387 102.078 127.101 103.465 127.873C105.447 128.975 107.357 130.201 109.185 131.543C111.359 133.132 113.397 134.9 115.278 136.828C116.256 137.837 117.198 138.898 118.077 139.982C118.9 140.998 119.724 142.126 120.52 143.336C122.858 146.87 124.648 150.737 125.829 154.806L125.9 155.054C125.96 155.259 127.682 161.825 127.729 161.995L128.005 163.075C128.167 163.689 128.129 164.34 127.895 164.931C127.78 165.235 127.596 165.507 127.356 165.726C127.116 165.944 126.828 166.103 126.515 166.189C126.515 166.189 107.222 174.86 106.717 174.828ZM103.852 161.478C103.899 161.636 103.934 161.77 103.958 161.873C103.958 161.912 103.958 161.947 103.982 161.975V161.999C103.982 162.085 107.096 171.222 107.427 172.42C107.608 172.353 125.853 164.115 125.853 164.115C125.899 163.965 125.899 163.804 125.853 163.654L125.581 162.59C125.542 162.44 123.823 155.889 123.772 155.708L123.697 155.452C122.575 151.6 120.881 147.938 118.672 144.589C117.911 143.438 117.127 142.366 116.35 141.404C115.515 140.372 114.616 139.359 113.682 138.397C111.884 136.557 109.939 134.869 107.864 133.348C106.11 132.063 104.278 130.888 102.378 129.832C101.045 129.087 99.6895 128.401 98.3533 127.787C97.8528 127.558 97.4704 127.392 97.2142 127.278L96.7965 127.097L96.7176 127.069H96.6545L96.3313 126.935C95.9148 126.757 95.4709 126.652 95.0188 126.624C94.5729 126.593 94.1252 126.652 93.7024 126.797C93.3782 126.896 93.0819 127.07 92.8375 127.305C92.593 127.54 92.4072 127.829 92.2952 128.149C92.188 128.481 92.1597 128.833 92.2125 129.178L92.4726 130.96L90.6595 130.345C90.3768 130.249 90.0825 130.192 89.7845 130.175C89.2685 130.141 88.7524 130.242 88.2868 130.467C87.9857 130.607 87.7199 130.813 87.5091 131.069C87.2982 131.326 87.1478 131.626 87.0688 131.949C86.9513 132.465 86.9925 133.005 87.1871 133.498C87.3792 134.001 87.7016 134.445 88.1213 134.783L89.0948 135.571L88.2001 136.442C87.8979 136.739 87.679 137.11 87.5654 137.518C87.402 138.063 87.402 138.644 87.5654 139.189C87.7112 139.679 87.9977 140.115 88.3892 140.443L89.3233 141.199L88.4878 142.067C88.2046 142.364 87.9906 142.721 87.8611 143.111C87.6282 143.776 87.6213 144.499 87.8413 145.169C87.91 145.407 88.0265 145.629 88.1837 145.82C88.3409 146.012 88.5356 146.17 88.7558 146.284C88.9095 146.343 89.1499 146.457 89.6229 146.678C89.9816 146.844 90.6911 147.179 91.4439 147.577C92.0115 147.876 92.6263 148.231 93.1821 148.554L93.8994 149L93.9743 149.027L94.4591 149.343L94.7586 149.544C95.1843 149.839 95.7598 150.245 96.4101 150.762C97.1444 151.345 97.847 151.967 98.5149 152.626C99.2441 153.353 99.9235 154.129 100.549 154.947C101.674 156.423 102.583 158.051 103.249 159.784C103.56 160.481 103.749 161.128 103.852 161.478Z" fill="black"/>
<path id="Vector_39" d="M100.769 135.181C100.643 135.176 100.519 135.139 100.411 135.075L99.9297 134.799C99.6065 134.617 99.1414 134.369 98.6685 134.109C97.486 133.478 96.0512 132.796 94.7505 132.241C93.4499 131.685 91.9639 131.117 90.7105 130.699C90.139 130.506 89.6582 130.357 89.3507 130.258L88.8265 130.1C88.637 130.022 88.4835 129.875 88.3958 129.69C88.3081 129.504 88.2925 129.293 88.3519 129.096C88.4113 128.9 88.5415 128.733 88.7174 128.627C88.8932 128.521 89.1021 128.484 89.3035 128.524L89.8355 128.685C90.1587 128.784 90.6514 128.938 91.2387 129.139C92.5315 129.572 94.049 130.152 95.4009 130.715C96.7529 131.279 98.2152 131.992 99.4449 132.643C99.9494 132.915 100.414 133.167 100.749 133.36L101.23 133.632C101.393 133.725 101.519 133.869 101.588 134.043C101.658 134.217 101.667 134.408 101.613 134.588C101.56 134.767 101.447 134.922 101.294 135.029C101.141 135.137 100.956 135.189 100.769 135.177V135.181Z" fill="black"/>
<path id="Vector_40" d="M97.6948 140.454C97.5675 140.446 97.4436 140.41 97.3322 140.348L96.9104 140.108C96.6463 139.954 96.268 139.745 95.8148 139.505C94.7663 138.949 93.5129 138.35 92.3777 137.865C91.2426 137.38 89.9261 136.876 88.8304 136.501C88.3535 136.34 87.9554 136.213 87.6479 136.107L87.1592 135.957C87.0464 135.934 86.9398 135.887 86.846 135.821C86.7522 135.754 86.6733 135.668 86.6145 135.569C86.5558 135.47 86.5182 135.36 86.5045 135.246C86.4907 135.131 86.501 135.015 86.5346 134.905C86.5682 134.795 86.6244 134.693 86.6996 134.606C86.7749 134.519 86.8675 134.448 86.9716 134.399C87.0756 134.349 87.1888 134.322 87.3039 134.319C87.419 134.316 87.5335 134.337 87.64 134.381L88.1446 134.534C88.4441 134.629 88.8541 134.759 89.3467 134.929C90.4937 135.323 91.8378 135.831 93.0281 136.34C94.2184 136.848 95.4994 137.463 96.5754 138.038C97.0484 138.287 97.4425 138.507 97.7224 138.665L98.1402 138.902C98.3044 138.993 98.4326 139.138 98.5037 139.312C98.5747 139.486 98.5845 139.679 98.5313 139.859C98.4781 140.039 98.365 140.196 98.2108 140.303C98.0567 140.411 97.8706 140.463 97.683 140.451L97.6948 140.454Z" fill="black"/>
<path id="Vector_41" d="M95.0739 145.302C94.942 145.294 94.8139 145.254 94.6995 145.188C94.6995 145.188 94.2777 144.94 93.651 144.593C92.9179 144.199 92.0429 143.757 91.2428 143.387C90.4427 143.016 89.5519 142.646 88.7439 142.331C88.062 142.07 87.593 141.905 87.589 141.905C87.38 141.833 87.2081 141.681 87.1113 141.482C87.0144 141.283 87.0006 141.054 87.0727 140.845C87.1448 140.636 87.2971 140.464 87.4959 140.367C87.6947 140.27 87.9239 140.256 88.1329 140.328C88.1329 140.328 88.6296 140.502 89.339 140.774C90.1786 141.101 91.1246 141.499 91.9365 141.873C92.7485 142.248 93.6786 142.713 94.4393 143.131C95.1015 143.489 95.5311 143.742 95.5469 143.753C95.7061 143.848 95.8289 143.994 95.8955 144.167C95.9621 144.34 95.9686 144.531 95.9141 144.708C95.8596 144.885 95.7471 145.039 95.5948 145.144C95.4425 145.25 95.259 145.302 95.0739 145.291V145.302Z" fill="black"/>
<path id="Vector_42" d="M86.7338 163.24C85.2439 162.247 85.3188 160.272 85.7839 158.719C84.2073 159.586 82.1853 160.13 80.0215 158.688C77.8576 157.245 77.4989 154.924 77.7984 153.241C76.4307 154.305 74.6886 155.211 73.1593 154.179C72.4387 153.682 71.9371 152.927 71.7587 152.071C71.5803 151.214 71.7389 150.322 72.2015 149.579L110.678 91.9663L129.755 104.705L91.1955 162.444C90.6948 163.122 89.9532 163.583 89.1232 163.731C88.2933 163.879 87.4382 163.703 86.7338 163.24Z" fill="#1D4ED8"/>
<path id="Vector_43" d="M89.4927 164.71C88.9244 164.838 88.3362 164.849 87.7632 164.744C87.1903 164.639 86.6445 164.42 86.1583 164.099C84.9758 163.311 84.3964 162.01 84.4516 160.39L84.1086 160.473C83.3098 160.653 82.4822 160.663 81.6792 160.504C80.8761 160.344 80.1154 160.018 79.4459 159.547C78.6965 159.057 78.0635 158.408 77.5916 157.647C77.1197 156.885 76.8203 156.03 76.7144 155.14C75.1812 155.87 73.7701 155.826 72.5798 155.034C71.6311 154.385 70.9715 153.393 70.7399 152.268C70.5083 151.142 70.7228 149.97 71.3383 149L109.815 91.387C109.89 91.274 109.987 91.177 110.1 91.1016C110.213 91.0261 110.34 90.9737 110.473 90.9474C110.607 90.921 110.744 90.9212 110.877 90.9479C111.01 90.9747 111.137 91.0274 111.25 91.1032L130.327 103.842C130.44 103.917 130.537 104.014 130.613 104.127C130.689 104.24 130.741 104.367 130.768 104.5C130.795 104.636 130.795 104.775 130.768 104.91C130.741 105.046 130.687 105.174 130.61 105.289L92.0508 163.027C91.4487 163.899 90.5314 164.502 89.4927 164.71ZM85.5513 157.71C85.7271 157.673 85.9096 157.682 86.0809 157.736C86.2522 157.79 86.4065 157.888 86.5286 158.02C86.6506 158.152 86.7362 158.314 86.777 158.489C86.8178 158.664 86.8123 158.847 86.7612 159.019C86.5366 159.772 86.1346 161.608 87.2934 162.381C87.5486 162.546 87.8342 162.658 88.1333 162.711C88.4325 162.763 88.7393 162.756 89.0355 162.688C89.5504 162.589 90.0074 162.295 90.3125 161.869L128.301 104.985L110.958 93.3971C106.855 99.5458 81.8777 136.947 73.0606 150.154C72.746 150.651 72.6385 151.251 72.7611 151.826C72.8161 152.126 72.9302 152.412 73.0966 152.668C73.2631 152.924 73.4786 153.144 73.7308 153.316C73.9254 153.448 74.1462 153.536 74.3782 153.575C74.6102 153.614 74.8478 153.602 75.0748 153.54C75.8422 153.323 76.5536 152.943 77.1598 152.425C77.3254 152.297 77.5259 152.221 77.735 152.209C77.9441 152.197 78.1519 152.249 78.3311 152.357C78.5103 152.466 78.6525 152.626 78.7389 152.816C78.8253 153.007 78.8519 153.22 78.8152 153.426C78.6298 154.254 78.7009 155.12 79.0191 155.907C79.3374 156.694 79.8876 157.366 80.5968 157.832C81.0365 158.147 81.5376 158.365 82.0674 158.472C82.5972 158.58 83.1438 158.574 83.6712 158.455C84.2366 158.323 84.7796 158.11 85.2832 157.821C85.3712 157.769 85.4671 157.732 85.567 157.71H85.5513Z" fill="black"/>
<path id="Vector_44" d="M80.6995 149.863C80.6134 149.882 80.5242 149.884 80.4373 149.868C80.3505 149.852 80.268 149.818 80.1949 149.768C80.0508 149.672 79.9507 149.522 79.9168 149.352C79.8828 149.182 79.9176 149.006 80.0137 148.861L113.122 99.124C113.221 98.9875 113.37 98.8948 113.536 98.8651C113.702 98.8355 113.873 98.8713 114.014 98.9649C114.154 99.0585 114.253 99.2028 114.29 99.3676C114.326 99.5324 114.298 99.7049 114.21 99.8492L81.1015 149.587C81.056 149.657 80.997 149.717 80.928 149.765C80.859 149.812 80.7814 149.845 80.6995 149.863Z" fill="black"/>
<path id="Vector_45" d="M88.736 155.61C88.6511 155.628 88.5634 155.63 88.478 155.613C88.3927 155.597 88.3114 155.564 88.2394 155.515C88.0946 155.419 87.9938 155.27 87.9591 155.1C87.9243 154.93 87.9585 154.753 88.0541 154.609L121.163 104.867C121.262 104.731 121.41 104.638 121.576 104.608C121.743 104.579 121.914 104.614 122.054 104.708C122.195 104.802 122.294 104.946 122.33 105.111C122.367 105.276 122.338 105.448 122.25 105.592L89.142 155.33C89.0962 155.401 89.0368 155.463 88.9671 155.511C88.8974 155.559 88.8188 155.592 88.736 155.61Z" fill="black"/>
<path id="Vector_46" d="M70.9875 175.36C70.6567 175.419 70.3175 175.408 69.9911 175.329C69.6648 175.25 69.3585 175.103 69.0917 174.899C68.461 174.454 67.8383 173.658 67.9841 172.747C68.0826 172.144 69.9942 156.508 70.7234 150.537C70.7563 150.265 70.8961 150.017 71.112 149.847C71.3278 149.678 71.602 149.602 71.8743 149.634C72.1466 149.667 72.3947 149.807 72.564 150.023C72.7332 150.239 72.8098 150.513 72.7769 150.785C72.6705 151.641 70.2859 171.194 70.0415 172.972C70.165 173.143 70.3407 173.269 70.5421 173.331C71.8428 172.605 89.6071 162.499 89.7884 162.397C90.0267 162.261 90.3093 162.225 90.5739 162.298C90.8385 162.37 91.0635 162.545 91.1994 162.783C91.3353 163.022 91.3709 163.304 91.2985 163.569C91.2261 163.833 91.0515 164.058 90.8131 164.194C90.0564 164.624 72.2882 174.726 71.4999 175.167C71.3396 175.257 71.1669 175.322 70.9875 175.36Z" fill="black"/>
<path id="Vector_47" d="M70.9364 174.347C70.1481 174.793 68.8237 173.732 68.9459 172.995C68.9892 172.719 69.4504 169.385 70.0101 165.321L77.6526 170.422C74.1368 172.487 71.2359 174.201 70.9364 174.347Z" fill="black"/>
<path id="Vector_48" d="M110.02 134.247L109.133 133.971C108.79 133.872 108.404 133.77 107.982 133.656C105.941 133.134 103.863 132.769 101.767 132.564L100.068 132.43C99.7879 132.402 99.512 132.402 99.2361 132.39L98.4241 132.363C98.1561 132.363 97.896 132.363 97.6359 132.363H96.8831C96.3943 132.363 95.9332 132.363 95.5075 132.386L93.45 132.513C93.1978 132.513 93.0046 132.556 92.8745 132.568L92.6695 132.591C92.224 132.635 91.7921 132.769 91.4004 132.986C91.2134 133.098 91.0391 133.23 90.8802 133.38C90.7238 133.529 90.5813 133.693 90.4545 133.868C90.2015 134.231 90.0231 134.641 89.9298 135.073C89.8364 135.506 89.8298 135.952 89.9105 136.387C90.0544 137.252 90.4999 138.038 91.1679 138.606C91.3196 138.734 91.4832 138.848 91.6567 138.945C91.8287 139.043 92.0078 139.127 92.1926 139.197C92.5608 139.33 92.9545 139.377 93.3436 139.335H93.517C93.6313 139.335 93.7969 139.296 94.0097 139.288L95.7676 139.178H96.95H97.5925C97.8092 139.178 98.034 139.178 98.2586 139.178L98.9523 139.201C99.1849 139.201 99.4252 139.201 99.6617 139.233L101.1 139.347C102.854 139.519 104.592 139.823 106.299 140.258L107.229 140.514L107.927 140.731L108.518 140.932C108.518 140.932 103.099 148.996 108.353 155.909L110.804 134.574L110.02 134.247Z" fill="white"/>
<path id="Vector_49" d="M108.57 156.859C108.376 156.9 108.175 156.884 107.99 156.814C107.805 156.744 107.644 156.623 107.525 156.465C105.184 153.387 104.467 149.607 105.456 145.531C105.804 144.123 106.317 142.76 106.985 141.472H106.934L106.019 141.219C104.373 140.802 102.697 140.508 101.006 140.34L99.5751 140.23H99.5515C99.4294 140.23 99.2914 140.23 99.1574 140.23H98.9169L98.2351 140.206H97.9828H97.6162H96.9738H96.4969C96.2643 140.206 96.0396 140.206 95.8268 140.206L94.0847 140.313H94.061C93.9712 140.318 93.8818 140.327 93.793 140.34H93.6314H93.4698C92.9234 140.4 92.3707 140.334 91.8538 140.147C91.6137 140.058 91.3816 139.949 91.1601 139.82C90.9316 139.694 90.7163 139.544 90.5176 139.375C89.6599 138.652 89.0872 137.647 88.9017 136.541C88.7972 135.971 88.8072 135.387 88.931 134.821C89.0548 134.255 89.29 133.72 89.6229 133.246C89.7889 133.015 89.9763 132.799 90.1826 132.603C90.3963 132.409 90.6317 132.239 90.8842 132.099C91.398 131.805 91.9669 131.619 92.5554 131.555L92.7604 131.531H92.784H92.8983C93.0205 131.531 93.1899 131.5 93.3949 131.488L95.4405 131.362H95.476H96.418H97.6241C97.8212 131.362 98.0182 131.362 98.1838 131.362H98.4479L99.2716 131.389H99.5003C99.7092 131.389 99.9298 131.389 100.158 131.421L101.849 131.555H101.869C104.02 131.768 106.152 132.144 108.246 132.678L108.613 132.777L109.401 133.001L110.292 133.277H110.32L111.108 133.545C111.369 133.634 111.585 133.822 111.707 134.069C111.83 134.317 111.849 134.602 111.76 134.864C111.672 135.125 111.483 135.341 111.236 135.463C110.989 135.585 110.703 135.604 110.442 135.516L109.654 135.252L108.79 134.988C108.554 134.917 108.298 134.85 108.026 134.775L107.663 134.677C105.698 134.171 103.698 133.812 101.68 133.604L99.9929 133.474C99.8235 133.474 99.6461 133.455 99.457 133.447H99.2125L98.4242 133.419H98.1444C97.9789 133.419 97.8252 133.419 97.6793 133.419H96.4772H95.5864L93.5487 133.545H93.5289L93.1781 133.577H93.0126L92.8195 133.601C92.5145 133.634 92.2195 133.729 91.9524 133.88C91.8332 133.948 91.7209 134.027 91.6173 134.117C91.5137 134.217 91.42 134.326 91.3375 134.444C91.1586 134.693 91.0315 134.976 90.9638 135.275C90.8961 135.574 90.8892 135.884 90.9433 136.186C91.049 136.81 91.3697 137.378 91.8499 137.79C91.9512 137.876 92.0608 137.951 92.1769 138.015C92.2924 138.084 92.4138 138.142 92.5396 138.188C92.7596 138.271 92.9959 138.3 93.2294 138.275L93.4028 138.255H93.4383H93.525C93.6686 138.233 93.8133 138.22 93.9585 138.216L95.7086 138.106H95.7401C95.9726 138.106 96.2131 138.106 96.4693 138.106H96.9304H97.5769C97.7424 138.106 97.904 138.106 98.0577 138.106H98.2862L98.9878 138.129H99.2046C99.3702 138.129 99.5594 138.129 99.7526 138.161L101.183 138.271H101.203C103.01 138.448 104.8 138.761 106.559 139.209L107.501 139.469H107.533L108.235 139.686H108.262L108.853 139.887C109.007 139.937 109.147 140.023 109.261 140.137C109.376 140.251 109.462 140.39 109.513 140.543C109.564 140.697 109.579 140.86 109.555 141.02C109.531 141.18 109.471 141.332 109.378 141.464C108.497 142.892 107.849 144.451 107.458 146.083C106.63 149.56 107.206 152.63 109.177 155.216C109.341 155.434 109.413 155.709 109.376 155.979C109.339 156.25 109.197 156.496 108.98 156.662C108.859 156.757 108.719 156.824 108.57 156.859Z" fill="black"/>
<path id="Vector_50" d="M107.746 187.315L135.234 189.951C135.234 189.951 135.234 189.794 135.273 189.498C135.273 189.348 135.305 189.167 135.321 188.954C135.336 188.741 135.344 188.509 135.36 188.241C135.376 187.973 135.38 187.681 135.396 187.362C135.411 187.043 135.396 186.716 135.396 186.357V185.801C135.396 185.612 135.396 185.407 135.396 185.23C135.396 184.835 135.376 184.441 135.352 184.008C135.263 182.175 135.074 180.349 134.789 178.537C134.489 176.633 134.087 174.686 133.606 172.814C132.76 169.47 131.714 166.179 130.473 162.96C129.972 161.66 129.527 160.595 129.192 159.807C129.018 159.413 128.884 159.105 128.797 158.897L128.648 158.558L103.517 170.008L103.596 170.185C103.655 170.311 103.734 170.5 103.84 170.737C104.049 171.226 104.356 171.967 104.707 172.869C105.541 175.034 106.248 177.247 106.824 179.495C107.119 180.677 107.348 181.812 107.506 182.817C107.643 183.665 107.737 184.518 107.786 185.375C107.786 185.549 107.786 185.699 107.786 185.848C107.786 185.919 107.786 185.994 107.786 186.061V186.247C107.786 186.369 107.786 186.479 107.786 186.585C107.786 186.692 107.786 186.763 107.786 186.842C107.786 186.92 107.786 186.987 107.786 187.047C107.786 187.106 107.786 187.145 107.786 187.181C107.786 187.216 107.746 187.315 107.746 187.315Z" fill="#1D4ED8"/>
<path id="Vector_51" d="M135.1 191.414C134.712 191.378 134.354 191.19 134.104 190.891C133.855 190.591 133.734 190.206 133.768 189.818L133.854 188.852L133.925 187.315C133.925 187.055 133.925 186.783 133.925 186.491V185.797C133.925 185.691 133.925 185.573 133.925 185.45V184.95C133.925 184.666 133.906 184.37 133.89 184.091C133.796 182.312 133.609 180.54 133.33 178.781C133.042 176.949 132.656 175.065 132.183 173.185C131.352 169.9 130.324 166.669 129.105 163.508C128.616 162.239 128.186 161.21 127.895 160.536L105.428 170.784C105.61 171.21 105.823 171.746 106.067 172.361C106.926 174.582 107.651 176.852 108.239 179.16C108.53 180.315 108.775 181.525 108.948 182.609C109.095 183.505 109.194 184.409 109.244 185.316C109.244 185.435 109.244 185.541 109.244 185.644C109.244 185.746 109.244 185.746 109.244 185.797V185.888C109.244 185.959 109.244 186.026 109.244 186.089V186.605C109.244 186.633 109.244 186.66 109.244 186.688L109.224 187.114C109.224 187.153 109.224 187.193 109.224 187.232V187.445C109.171 187.82 108.976 188.16 108.679 188.395C108.383 188.629 108.007 188.741 107.63 188.707C107.253 188.672 106.904 188.494 106.655 188.209C106.406 187.925 106.276 187.555 106.292 187.177V187.066C106.29 187.055 106.29 187.043 106.292 187.031V186.96V186.779V186.562V186.266C106.292 186.266 106.292 186.266 106.292 186.243V186.026C106.29 185.993 106.29 185.96 106.292 185.927C106.292 185.856 106.292 185.785 106.292 185.711C106.295 185.638 106.295 185.566 106.292 185.494V185.47C106.249 184.667 106.162 183.867 106.031 183.074C105.87 182.061 105.637 180.957 105.373 179.885C104.814 177.694 104.125 175.539 103.312 173.429C102.918 172.447 102.618 171.703 102.464 171.348L102.153 170.642C101.994 170.287 101.982 169.884 102.119 169.52C102.257 169.156 102.532 168.861 102.886 168.699L128.013 157.245C128.189 157.165 128.38 157.12 128.573 157.113C128.767 157.107 128.96 157.138 129.141 157.206C129.322 157.274 129.488 157.378 129.63 157.51C129.771 157.643 129.884 157.802 129.964 157.978L130.114 158.317L130.508 159.228C130.808 159.929 131.277 161.045 131.813 162.44C133.078 165.712 134.143 169.058 135.001 172.459C135.494 174.43 135.9 176.401 136.184 178.312C136.482 180.171 136.68 182.045 136.779 183.925C136.779 184.24 136.807 184.552 136.814 184.855V185.356V185.781V186.499C136.814 186.81 136.814 187.102 136.814 187.382V187.413L136.74 189.017C136.738 189.033 136.738 189.049 136.74 189.065L136.653 190.07C136.617 190.459 136.428 190.817 136.128 191.067C135.828 191.317 135.441 191.437 135.053 191.402L135.1 191.414Z" fill="#1D4ED8"/>
<path id="Vector_52" d="M128.876 187.997C129.017 188.047 129.171 188.048 129.312 187.998C129.454 187.949 129.574 187.853 129.653 187.725C129.732 187.598 129.765 187.447 129.746 187.299C129.727 187.15 129.658 187.013 129.55 186.909C126.952 184.402 123.117 182.266 118.147 180.559C115.958 179.8 113.719 179.193 111.447 178.742C111.282 178.723 111.116 178.768 110.982 178.867C110.849 178.966 110.758 179.112 110.728 179.276C110.699 179.439 110.733 179.608 110.823 179.747C110.913 179.887 111.053 179.987 111.214 180.027C111.328 180.051 122.755 182.175 128.628 187.851C128.699 187.917 128.784 187.966 128.876 187.997Z" fill="black"/>
<path id="Vector_53" d="M111.455 177.418C111.574 177.453 111.702 177.453 111.821 177.418C111.924 177.394 122.171 175.08 129.873 178.423C130.024 178.462 130.183 178.446 130.323 178.378C130.463 178.311 130.574 178.195 130.637 178.053C130.699 177.911 130.709 177.751 130.665 177.602C130.62 177.453 130.524 177.325 130.393 177.24C122.286 173.72 111.963 176.058 111.526 176.16C111.357 176.201 111.21 176.306 111.119 176.454C111.027 176.601 110.998 176.779 111.037 176.949C111.063 177.055 111.115 177.153 111.187 177.235C111.26 177.317 111.352 177.38 111.455 177.418Z" fill="black"/>
</g>
<g id="Group 108">
<path id="Vector_54" d="M177.425 11.1552L167.254 16.5993C167.15 16.6557 167.033 16.6823 166.915 16.6761C166.761 16.678 166.611 16.6273 166.491 16.5324C166.37 16.4375 166.285 16.3041 166.251 16.1545C166.217 16.0048 166.234 15.8478 166.302 15.7097C166.369 15.5716 166.481 15.4606 166.62 15.3952L176.791 9.95111C176.948 9.86618 177.132 9.84717 177.304 9.89822C177.475 9.94927 177.619 10.0662 177.703 10.2233C177.788 10.3805 177.808 10.5649 177.756 10.736C177.705 10.9072 177.588 11.0511 177.431 11.136L177.425 11.1552Z" fill="#1D4ED8"/>
<path id="Vector_55" d="M169.182 28.5412C169.191 28.3648 169.269 28.1989 169.399 28.0792C169.529 27.9595 169.701 27.8954 169.877 27.9007L181.406 28.2786C181.582 28.2861 181.749 28.363 181.868 28.4925C181.988 28.6221 182.052 28.7938 182.046 28.9703C182.036 29.1464 181.958 29.3117 181.829 29.4313C181.699 29.5508 181.528 29.6152 181.351 29.6108L169.823 29.2329C169.646 29.2254 169.48 29.1485 169.36 29.0189C169.24 28.8893 169.176 28.7176 169.182 28.5412Z" fill="#1D4ED8"/>
<path id="Vector_56" d="M166.479 40.3387L176.275 46.4233C176.402 46.5009 176.499 46.6186 176.552 46.7578C176.605 46.8969 176.611 47.0498 176.568 47.1923C176.524 47.3348 176.435 47.4589 176.314 47.5451C176.192 47.6314 176.046 47.675 175.897 47.669C175.783 47.6629 175.673 47.6276 175.577 47.5665L165.78 41.482C165.703 41.4367 165.635 41.3763 165.582 41.3045C165.528 41.2326 165.489 41.1508 165.467 41.0637C165.446 40.9766 165.442 40.8861 165.456 40.7974C165.47 40.7088 165.501 40.6238 165.548 40.5475C165.595 40.4712 165.658 40.4052 165.731 40.3532C165.804 40.3012 165.887 40.2645 165.974 40.245C166.062 40.2255 166.152 40.2238 166.241 40.2399C166.329 40.256 166.413 40.2896 166.488 40.3387H166.479Z" fill="#1D4ED8"/>
<path id="Vector_57" d="M160.187 14.3612C158.239 10.9065 155.585 7.90112 152.398 5.54102C149.21 3.18091 145.561 1.51912 141.689 0.663932C137.816 -0.191254 133.806 -0.22063 129.922 0.577774C126.037 1.37618 122.364 2.9844 119.142 5.29759C115.921 7.61079 113.223 10.577 111.224 14.0029C109.226 17.4287 107.972 21.2373 107.545 25.1802C107.117 29.1231 107.526 33.1119 108.743 36.8864C109.96 40.661 111.96 44.1366 114.611 47.0865L107.29 61.9456L122.953 53.4369C128.356 56.1389 134.483 57.0364 140.433 55.9975C146.384 54.9586 151.844 52.0381 156.011 47.6653C160.179 43.2925 162.833 37.6981 163.585 31.7044C164.337 25.7108 163.146 19.6341 160.187 14.3677V14.3612Z" fill="#1D4ED8"/>
<path id="Vector_58" d="M107.289 62.7046C107.416 62.705 107.54 62.673 107.651 62.6117L122.971 54.2855C127.179 56.321 131.816 57.3084 136.487 57.1634C141.158 57.0184 145.725 55.7453 149.798 53.4529C149.892 53.4076 149.975 53.3436 150.043 53.2648C150.111 53.186 150.163 53.0941 150.194 52.9948C150.225 52.8955 150.235 52.7908 150.225 52.6872C150.214 52.5837 150.182 52.4834 150.131 52.3927C150.08 52.302 150.01 52.2227 149.928 52.1597C149.845 52.0967 149.75 52.0513 149.649 52.0264C149.548 52.0016 149.442 51.9976 149.34 52.015C149.237 52.0323 149.139 52.0704 149.052 52.1271C145.138 54.3329 140.743 55.5448 136.251 55.6564C131.76 55.7681 127.31 54.7761 123.292 52.7675C123.184 52.7109 123.063 52.6813 122.941 52.6813C122.819 52.6813 122.698 52.7109 122.59 52.7675L109.028 60.1331L115.292 47.4195C115.36 47.2833 115.385 47.1298 115.365 46.9791C115.344 46.8283 115.278 46.6872 115.177 46.5741C112.349 43.4297 110.284 39.6752 109.144 35.6028C108.004 31.5304 107.818 27.2499 108.602 23.0941C108.698 22.5946 108.807 22.095 108.923 21.6082C108.965 21.414 108.931 21.2107 108.826 21.0417C108.721 20.8728 108.554 20.7515 108.361 20.7038C108.168 20.6562 107.964 20.6859 107.792 20.7867C107.621 20.8874 107.495 21.0513 107.443 21.2431C107.318 21.7587 107.203 22.2839 107.104 22.8091C105.833 29.5143 106.967 36.4528 110.306 42.4046C111.269 44.1146 112.401 45.7239 113.685 47.2082L106.585 61.619C106.514 61.7639 106.491 61.9276 106.519 62.0864C106.548 62.2453 106.625 62.3911 106.742 62.5028C106.815 62.5712 106.901 62.6243 106.995 62.6589C107.089 62.6936 107.189 62.7091 107.289 62.7046Z" fill="black"/>
<path id="Vector_59" d="M133.459 45.5655H133.43C133.043 45.5605 132.663 45.4621 132.322 45.2786C131.982 45.0952 131.69 44.8322 131.473 44.5119L120.403 28.2085C120.225 27.9476 120.101 27.6543 120.037 27.3454C119.973 27.0365 119.971 26.718 120.03 26.4081C120.089 26.0983 120.209 25.8031 120.382 25.5395C120.555 25.2758 120.779 25.0489 121.04 24.8716C121.301 24.6944 121.594 24.5702 121.903 24.5063C122.212 24.4424 122.53 24.44 122.84 24.4992C123.15 24.5584 123.445 24.678 123.709 24.8512C123.973 25.0245 124.199 25.248 124.377 25.5089L133.507 38.959L150.55 15.0627C150.731 14.8007 150.962 14.5772 151.23 14.4054C151.499 14.2336 151.798 14.1168 152.112 14.0619C152.426 14.007 152.747 14.0149 153.058 14.0854C153.368 14.1559 153.662 14.2874 153.921 14.4724C154.18 14.6573 154.4 14.892 154.568 15.1627C154.736 15.4335 154.848 15.7348 154.898 16.0493C154.948 16.3638 154.935 16.6852 154.86 16.9947C154.785 17.3041 154.649 17.5956 154.46 17.852L135.415 44.5568C135.193 44.8687 134.9 45.123 134.559 45.2985C134.219 45.474 133.842 45.5655 133.459 45.5655Z" fill="white"/>
</g>
</g>
</svg>
