<svg viewBox="0 0 192 192" fill="none" xmlns="http://www.w3.org/2000/svg">
<rect width="192" height="192" fill="white"/>
<path d="M157.732 108.243H34.839C31.4771 108.24 28.2533 106.904 25.8752 104.528C23.497 102.151 22.1587 98.9287 22.1538 95.5668V12.6758C22.1587 9.31386 23.497 6.09124 25.8752 3.71486C28.2533 1.33849 31.4771 0.00246295 34.839 0H157.732C161.093 0.00246685 164.316 1.33879 166.692 3.71543C169.069 6.09207 170.405 9.31471 170.407 12.6758V95.5668C170.405 98.9279 169.069 102.151 166.692 104.527C164.316 106.904 161.093 108.24 157.732 108.243ZM34.839 3.81855C32.4948 3.82101 30.2468 4.75282 28.5883 6.40958C26.9298 8.06634 25.996 10.313 25.9911 12.6573V95.5483C25.9936 97.8941 26.9263 100.143 28.5851 101.802C30.2439 103.461 32.4932 104.394 34.839 104.396H157.732C160.076 104.391 162.322 103.457 163.979 101.799C165.636 100.14 166.568 97.8925 166.57 95.5483V12.6573C166.568 10.3139 165.636 8.06717 163.979 6.41015C162.322 4.75312 160.075 3.82102 157.732 3.81855H34.839Z" fill="black"/>
<path d="M151.911 59.4395H105.399C104.175 59.4395 103.182 60.4319 103.182 61.6561V78.7558C103.182 79.9801 104.175 80.9725 105.399 80.9725H151.911C153.135 80.9725 154.127 79.9801 154.127 78.7558V61.6561C154.127 60.4319 153.135 59.4395 151.911 59.4395Z" fill="#1D4ED8"/>
<path d="M90.3946 59.4398H43.9289C43.6379 59.4398 43.3497 59.4971 43.0808 59.6085C42.8119 59.7199 42.5672 59.8831 42.3614 60.0889C42.1555 60.2948 41.9925 60.5391 41.8811 60.808C41.7697 61.077 41.7124 61.3653 41.7124 61.6564V78.7282C41.7112 79.0196 41.7675 79.3084 41.8784 79.5779C41.9894 79.8474 42.1526 80.0923 42.3586 80.2984C42.5647 80.5045 42.81 80.6677 43.0794 80.7786C43.3489 80.8896 43.6375 80.9461 43.9289 80.9448H90.4319C90.7233 80.9461 91.0119 80.8896 91.2814 80.7786C91.5509 80.6677 91.7956 80.5045 92.0017 80.2984C92.2078 80.0923 92.371 79.8474 92.4819 79.5779C92.5929 79.3084 92.6496 79.0196 92.6484 78.7282V61.6284C92.6447 61.3365 92.5837 61.0482 92.4683 60.7801C92.3529 60.5119 92.1857 60.2692 91.9762 60.0659C91.7668 59.8625 91.5191 59.7025 91.2477 59.5951C90.9763 59.4876 90.6864 59.4348 90.3946 59.4398ZM89.7424 78.067H44.5529V62.2803H89.7424V78.067Z" fill="black"/>
<path d="M160.442 22.9012H31.5139C31.4059 22.8892 31.2968 22.9001 31.1933 22.9333C31.0899 22.9665 30.9946 23.0211 30.9136 23.0936C30.8327 23.1661 30.7679 23.2549 30.7236 23.3541C30.6792 23.4533 30.6562 23.5608 30.6562 23.6695C30.6562 23.7781 30.6792 23.8855 30.7236 23.9847C30.7679 24.084 30.8327 24.1727 30.9136 24.2452C30.9946 24.3177 31.0899 24.3723 31.1933 24.4055C31.2968 24.4387 31.4059 24.4497 31.5139 24.4378H160.442C160.631 24.4169 160.806 24.3271 160.933 24.1853C161.06 24.0435 161.13 23.8598 161.13 23.6695C161.13 23.4791 161.06 23.2954 160.933 23.1537C160.806 23.0119 160.631 22.922 160.442 22.9012Z" fill="black"/>
<path d="M47.4592 13.83C47.4592 14.8247 47.1641 15.7972 46.6115 16.6242C46.0588 17.4513 45.2735 18.0959 44.3545 18.4766C43.4355 18.8573 42.4241 18.9568 41.4485 18.7628C40.4729 18.5687 39.577 18.0898 38.8736 17.3864C38.1703 16.683 37.6911 15.7869 37.4971 14.8113C37.303 13.8357 37.4025 12.8245 37.7831 11.9055C38.1638 10.9865 38.8088 10.201 39.6358 9.64835C40.4629 9.09572 41.4352 8.80078 42.4299 8.80078C43.7638 8.80078 45.043 9.33058 45.9862 10.2738C46.9294 11.217 47.4592 12.4962 47.4592 13.83Z" fill="black"/>
<path d="M60.8145 13.83C60.8145 14.8247 60.5195 15.7972 59.9668 16.6242C59.4142 17.4513 58.6288 18.0959 57.7098 18.4766C56.7908 18.8573 55.7795 18.9568 54.8039 18.7628C53.8283 18.5687 52.9324 18.0898 52.229 17.3864C51.5256 16.683 51.0465 15.7869 50.8524 14.8113C50.6584 13.8357 50.7583 12.8245 51.1389 11.9055C51.5196 10.9865 52.1641 10.201 52.9912 9.64835C53.8183 9.09572 54.7905 8.80078 55.7853 8.80078C57.1191 8.80078 58.3983 9.33058 59.3415 10.2738C60.2847 11.217 60.8145 12.4962 60.8145 13.83Z" fill="black"/>
<path d="M74.1984 13.83C74.1984 14.8247 73.9034 15.7972 73.3507 16.6242C72.7981 17.4513 72.0127 18.0959 71.0937 18.4766C70.1747 18.8573 69.1634 18.9568 68.1878 18.7628C67.2122 18.5687 66.3163 18.0898 65.6129 17.3864C64.9095 16.683 64.4304 15.7869 64.2363 14.8113C64.0423 13.8357 64.1417 12.8245 64.5224 11.9055C64.903 10.9865 65.548 10.201 66.3751 9.64835C67.2022 9.09572 68.1745 8.80078 69.1692 8.80078C70.503 8.80078 71.7822 9.33058 72.7254 10.2738C73.6686 11.217 74.1984 12.4962 74.1984 13.83Z" fill="black"/>
<path d="M122.275 132.373H113.893C113.606 132.399 113.338 132.531 113.144 132.744C112.949 132.957 112.841 133.235 112.841 133.523C112.841 133.812 112.949 134.09 113.144 134.302C113.338 134.515 113.606 134.648 113.893 134.673H122.275C122.562 134.648 122.829 134.515 123.024 134.302C123.218 134.09 123.326 133.812 123.326 133.523C123.326 133.235 123.218 132.957 123.024 132.744C122.829 132.531 122.562 132.399 122.275 132.373Z" fill="black"/>
<path d="M133.954 132.374H129.437C129.277 132.359 129.116 132.378 128.964 132.43C128.812 132.481 128.673 132.563 128.554 132.672C128.436 132.78 128.341 132.911 128.276 133.058C128.212 133.205 128.179 133.364 128.179 133.524C128.179 133.684 128.212 133.843 128.276 133.99C128.341 134.137 128.436 134.268 128.554 134.376C128.673 134.485 128.812 134.567 128.964 134.618C129.116 134.67 129.277 134.689 129.437 134.674H133.954C134.114 134.689 134.275 134.67 134.427 134.618C134.579 134.567 134.719 134.485 134.837 134.376C134.955 134.268 135.05 134.137 135.114 133.99C135.179 133.843 135.213 133.684 135.213 133.524C135.213 133.364 135.179 133.205 135.114 133.058C135.05 132.911 134.955 132.78 134.837 132.672C134.719 132.563 134.579 132.481 134.427 132.43C134.275 132.378 134.114 132.359 133.954 132.374Z" fill="black"/>
<path d="M142.252 132.373H140.231C139.944 132.399 139.677 132.531 139.482 132.744C139.288 132.957 139.18 133.235 139.18 133.523C139.18 133.812 139.288 134.09 139.482 134.302C139.677 134.515 139.944 134.648 140.231 134.673H142.252C142.539 134.648 142.807 134.515 143.001 134.302C143.196 134.09 143.304 133.812 143.304 133.523C143.304 133.235 143.196 132.957 143.001 132.744C142.807 132.531 142.539 132.399 142.252 132.373Z" fill="black"/>
<path d="M148.642 132.374H147.58C147.293 132.4 147.025 132.532 146.831 132.745C146.636 132.958 146.528 133.236 146.528 133.524C146.528 133.812 146.636 134.09 146.831 134.303C147.025 134.516 147.293 134.648 147.58 134.674H148.642C148.801 134.689 148.962 134.67 149.114 134.618C149.266 134.567 149.406 134.485 149.524 134.376C149.643 134.268 149.737 134.137 149.802 133.99C149.866 133.843 149.9 133.684 149.9 133.524C149.9 133.364 149.866 133.205 149.802 133.058C149.737 132.911 149.643 132.78 149.524 132.672C149.406 132.563 149.266 132.481 149.114 132.43C148.962 132.378 148.801 132.359 148.642 132.374Z" fill="black"/>
<path d="M154.184 132.374H153.653C153.366 132.4 153.099 132.532 152.904 132.745C152.709 132.958 152.602 133.236 152.602 133.524C152.602 133.812 152.709 134.09 152.904 134.303C153.099 134.516 153.366 134.648 153.653 134.674H154.184C154.343 134.689 154.505 134.67 154.657 134.618C154.809 134.567 154.948 134.485 155.066 134.376C155.185 134.268 155.28 134.137 155.344 133.99C155.409 133.843 155.442 133.684 155.442 133.524C155.442 133.364 155.409 133.205 155.344 133.058C155.28 132.911 155.185 132.78 155.066 132.672C154.948 132.563 154.809 132.481 154.657 132.43C154.505 132.378 154.343 132.359 154.184 132.374Z" fill="black"/>
<path d="M82.0586 84.7909C81.9363 84.1842 81.6957 83.6076 81.3506 83.0939C81.0054 82.5802 80.5627 82.1396 80.0472 81.7971C79.5318 81.4547 78.9537 81.2171 78.3464 81.0979C77.7391 80.9788 77.1144 80.9804 76.5078 81.1027C75.9011 81.225 75.3247 81.4655 74.811 81.8107C74.2974 82.1558 73.8565 82.5988 73.5141 83.1143C73.1716 83.6297 72.9338 84.2076 72.8146 84.8149C72.6955 85.4221 72.6973 86.0469 72.8196 86.6536L77.7279 111.605L86.9669 109.742L82.0586 84.7909Z" fill="white"/>
<path d="M77.8305 112.993C77.479 113.017 77.1306 112.913 76.851 112.698C76.5713 112.484 76.3799 112.174 76.3125 111.829L71.4133 86.8867C71.2447 86.0898 71.2364 85.2673 71.3883 84.4671C71.5403 83.6668 71.8497 82.9048 72.2988 82.2252C72.7478 81.5456 73.3276 80.962 74.0041 80.5083C74.6807 80.0547 75.4405 79.74 76.2398 79.5826C77.039 79.4253 77.8615 79.4282 78.6596 79.5915C79.4576 79.7548 80.2152 80.0752 80.8884 80.5338C81.5616 80.9924 82.1365 81.5802 82.5806 82.2632C83.0246 82.9461 83.3286 83.7104 83.4746 84.5117L88.3738 109.463C88.4367 109.656 88.4579 109.86 88.4361 110.062C88.4143 110.264 88.3497 110.458 88.2469 110.633C88.1442 110.809 88.0054 110.96 87.8399 111.077C87.6744 111.195 87.4861 111.276 87.2869 111.315C87.0878 111.354 86.8825 111.35 86.6848 111.304C86.4871 111.258 86.3014 111.171 86.14 111.048C85.9786 110.925 85.8451 110.769 85.7484 110.59C85.6518 110.412 85.5946 110.215 85.5797 110.012L80.6805 85.0706C80.598 84.6493 80.4333 84.2483 80.1958 83.8906C79.9583 83.533 79.6526 83.2256 79.2962 82.986C78.9399 82.7464 78.5402 82.5794 78.1193 82.4944C77.6984 82.4094 77.2646 82.4082 76.8432 82.4908C76.4219 82.5733 76.0213 82.738 75.6636 82.9755C75.3059 83.2131 74.9982 83.5187 74.7586 83.8751C74.519 84.2314 74.352 84.6314 74.267 85.0522C74.182 85.4731 74.1808 85.9066 74.2634 86.328L79.1625 111.279C79.2004 111.464 79.2008 111.656 79.1639 111.841C79.1271 112.027 79.0537 112.203 78.9479 112.36C78.8421 112.517 78.7059 112.651 78.5477 112.755C78.3895 112.859 78.2122 112.93 78.0261 112.965L77.8305 112.993Z" fill="black"/>
<path d="M119.993 108.763C119.259 107.966 118.255 107.471 117.175 107.373C116.096 107.274 115.019 107.581 114.153 108.233C114.819 107.392 115.147 106.333 115.073 105.263C114.999 104.193 114.528 103.19 113.753 102.449C113.016 101.653 112.011 101.158 110.931 101.059C109.852 100.959 108.774 101.262 107.904 101.909C108.572 101.072 108.903 100.014 108.83 98.9454C108.758 97.8765 108.288 96.8735 107.513 96.1342C106.743 95.2917 105.673 94.7855 104.534 94.7245C103.394 94.6636 102.277 95.0527 101.421 95.8082L116.752 80.7296C117.525 79.8955 117.948 78.7953 117.932 77.6576C117.915 76.52 117.462 75.4324 116.664 74.6207C115.867 73.809 114.788 73.3358 113.651 73.2992C112.513 73.2626 111.406 73.6655 110.558 74.4243L68.647 115.711L92.7318 141.883L120.142 114.808C120.529 114.401 120.832 113.922 121.034 113.399C121.236 112.875 121.333 112.316 121.319 111.755C121.305 111.194 121.181 110.64 120.954 110.127C120.726 109.614 120.399 109.151 119.993 108.763Z" fill="white"/>
<path d="M93.0118 143.392H92.7043C92.4986 143.389 92.296 143.343 92.1086 143.258C91.9212 143.173 91.7531 143.051 91.6147 142.899L67.5295 116.728C67.2596 116.435 67.1138 116.05 67.1224 115.652C67.1311 115.254 67.2939 114.875 67.5763 114.595L109.487 73.3076C110.305 72.5379 111.332 72.0288 112.44 71.8453C113.404 71.6512 114.401 71.6956 115.344 71.9748C116.287 72.254 117.148 72.7595 117.851 73.4472C118.91 74.5861 119.498 76.0834 119.498 77.6383C119.498 79.1932 118.91 80.6905 117.851 81.8294L106.032 93.4529C107.015 93.7691 107.907 94.3187 108.631 95.0548C109.212 95.6369 109.669 96.3306 109.974 97.0941C110.28 97.8576 110.428 98.6752 110.409 99.4974C111.24 99.4929 112.063 99.6555 112.829 99.9755C113.595 100.296 114.29 100.766 114.87 101.36C115.451 101.943 115.908 102.636 116.214 103.4C116.52 104.163 116.668 104.98 116.65 105.803C117.48 105.798 118.303 105.96 119.07 106.28C119.836 106.6 120.53 107.071 121.111 107.665C122.202 108.759 122.834 110.228 122.88 111.773C122.907 112.531 122.776 113.287 122.495 113.993C122.215 114.698 121.791 115.338 121.25 115.871L93.8217 142.992C93.5985 143.205 93.3162 143.344 93.0118 143.392ZM70.7892 115.768L92.7976 139.676L119.071 113.71C119.317 113.469 119.509 113.178 119.632 112.857C119.756 112.535 119.809 112.191 119.788 111.847C119.763 111.08 119.446 110.351 118.903 109.808C118.56 109.448 118.136 109.175 117.666 109.013C117.196 108.851 116.694 108.804 116.203 108.876C115.806 108.945 115.434 109.115 115.122 109.37C114.825 109.605 114.451 109.722 114.073 109.699C113.694 109.675 113.338 109.513 113.072 109.242C112.807 108.972 112.65 108.613 112.633 108.234C112.616 107.855 112.74 107.484 112.98 107.19C113.397 106.64 113.595 105.955 113.537 105.267C113.478 104.579 113.167 103.937 112.663 103.465C112.32 103.105 111.897 102.832 111.427 102.67C110.956 102.508 110.454 102.461 109.962 102.534C109.566 102.603 109.194 102.773 108.882 103.027C108.585 103.263 108.211 103.38 107.833 103.356C107.454 103.333 107.098 103.17 106.832 102.9C106.566 102.629 106.41 102.27 106.393 101.891C106.376 101.513 106.499 101.141 106.74 100.848C107.157 100.297 107.355 99.6122 107.296 98.9243C107.238 98.2364 106.927 97.5945 106.423 97.1224C106.081 96.7593 105.655 96.4849 105.183 96.3227C104.711 96.1605 104.206 96.1153 103.713 96.1911C103.256 96.2683 102.834 96.4828 102.502 96.8058C102.361 96.9599 102.19 97.0837 102 97.1697C101.81 97.2557 101.605 97.3019 101.396 97.3057C101.187 97.3095 100.98 97.2708 100.786 97.1919C100.593 97.1129 100.418 96.9954 100.272 96.8465C100.125 96.6976 100.011 96.5205 99.9351 96.3259C99.8595 96.1313 99.8245 95.9234 99.8319 95.7148C99.8393 95.5062 99.8891 95.3012 99.9783 95.1125C100.068 94.9237 100.194 94.7552 100.351 94.6171L115.681 79.5383C116.159 78.9931 116.414 78.2886 116.398 77.5639C116.429 76.8123 116.16 76.0792 115.653 75.5242C115.295 75.1994 114.866 74.9633 114.4 74.8355C113.934 74.7077 113.444 74.6916 112.97 74.7884C112.473 74.8698 112.008 75.0891 111.629 75.4217L70.7892 115.768Z" fill="black"/>
<path d="M71.5344 111.93L71.3575 112.107L70.8637 112.582L70.1001 113.336C69.7834 113.643 69.4572 113.979 69.0846 114.351L67.8554 115.609L66.4397 117.08C65.4245 118.133 64.3441 119.334 63.1427 120.638C57.3927 127.002 51.9746 133.657 46.9094 140.578C44.1153 144.304 41.4981 148.188 39.1138 151.866C37.8844 153.729 36.7948 155.517 35.7331 157.231L34.1496 159.755L32.7803 162.139L30.4241 166.274C29.7349 167.541 29.1576 168.659 28.6733 169.562C27.7419 171.425 27.1553 172.44 27.1553 172.44L61.3268 189.94L62.5838 187.575C62.9842 186.82 63.4595 185.898 64.0276 184.855L66.0209 181.372C66.3934 180.738 66.7659 180.068 67.1664 179.388L68.4607 177.292C69.392 175.858 70.2489 174.321 71.2548 172.794C73.2665 169.702 75.5018 166.442 77.8489 163.257C82.1193 157.42 86.6857 151.806 91.5305 146.436C92.527 145.365 93.3933 144.36 94.2409 143.521L95.3678 142.339L96.2991 141.407C96.5879 141.109 96.8485 140.848 97.0627 140.643L97.6216 140.094L97.9567 139.768L98.0595 139.666L71.5344 111.93Z" fill="#1D4ED8"/>
<path d="M60.6569 191.879C60.5605 191.847 60.4672 191.806 60.3777 191.758C60.1372 191.632 59.924 191.459 59.7505 191.25C59.5771 191.041 59.4468 190.799 59.3672 190.539C59.2875 190.28 59.2599 190.007 59.2862 189.736C59.3126 189.466 59.3926 189.203 59.5209 188.964L60.7779 186.598L61.2435 185.713C61.5323 185.164 61.8583 184.531 62.2308 183.851V183.804L64.2332 180.33C64.3636 180.097 64.5034 179.865 64.6338 179.622C64.876 179.203 65.1275 178.765 65.3883 178.328L66.683 176.242L67.4465 174.994C68.1078 173.922 68.7875 172.814 69.5512 171.687C71.684 168.409 73.9194 165.168 76.2012 162.066C80.5151 156.171 85.1285 150.501 90.0229 145.078L90.8983 144.147C91.5596 143.43 92.1836 142.759 92.761 142.154L93.8879 140.971L94.8193 140.04L95.1636 139.695L71.4048 114.939L70.4734 115.871L69.2442 117.119L67.8472 118.581C67.0928 119.363 66.3008 120.23 65.4533 121.142C65.1739 121.459 64.8761 121.785 64.5688 122.074C58.8775 128.383 53.5091 134.976 48.4842 141.828C45.8298 145.46 43.2217 149.223 40.7536 153.004C39.8782 154.317 39.0586 155.649 38.267 156.934L37.4193 158.304L35.9013 160.772C35.5846 161.303 35.2866 161.824 34.9699 162.336C34.8116 162.597 34.6628 162.867 34.5138 163.128L32.1386 167.282C31.6822 168.111 31.2724 168.884 30.9184 169.564L30.4064 170.495L28.8975 173.354C28.6333 173.814 28.201 174.154 27.6914 174.302C27.1818 174.45 26.6346 174.394 26.1652 174.147C25.6958 173.899 25.3409 173.48 25.1748 172.976C25.0086 172.472 25.0446 171.923 25.2748 171.445L26.7928 168.576L27.2958 167.645L28.5532 165.289L30.9466 161.116L31.4028 160.325L32.3341 158.713L33.8712 156.208L34.7094 154.858C35.5196 153.535 36.3576 152.175 37.2797 150.797C39.7944 146.932 42.4394 143.104 45.1403 139.425C50.2499 132.449 55.7119 125.737 61.5046 119.317L62.4359 118.385C63.2928 117.454 64.1123 116.523 64.8853 115.759L66.2914 114.288L67.5211 113.039C67.903 112.648 68.2384 112.304 68.5643 111.987L70.0169 110.571C70.21 110.385 70.4379 110.239 70.6876 110.141C70.9374 110.043 71.2039 109.995 71.4721 110C71.7403 110.006 72.0049 110.064 72.2507 110.171C72.4964 110.279 72.7184 110.434 72.9042 110.627L99.5038 138.326C99.8788 138.719 100.083 139.245 100.072 139.788C100.053 140.33 99.8267 140.844 99.4388 141.222L99.3269 141.325L99.0291 141.614L98.4701 142.163L97.7343 142.908L96.803 143.84L95.6852 145.022C95.1357 145.591 94.5304 146.242 93.897 146.941L93.0125 147.872C88.2199 153.182 83.7029 158.734 79.4796 164.506C77.235 167.561 75.037 170.747 72.9601 173.96C72.243 175.012 71.5816 176.083 70.9482 177.117C70.6874 177.555 70.4268 177.974 70.166 178.393L68.89 180.451C68.6385 180.87 68.4059 181.28 68.1823 181.69L67.7631 182.407L65.8167 185.835C65.4627 186.477 65.1461 187.083 64.8853 187.613L64.4105 188.545L63.1622 190.91C62.9312 191.347 62.5506 191.685 62.0903 191.863C61.63 192.041 61.1211 192.046 60.6569 191.879Z" fill="#1D4ED8"/>
<path d="M45.5964 178.383H45.5127C45.3002 178.276 45.1361 178.093 45.0548 177.869C44.9734 177.646 44.9806 177.4 45.0748 177.181C47.2722 172.785 49.7614 168.541 52.5256 164.478C60.3048 152.944 69.0274 142.075 78.6037 131.983C78.6744 131.862 78.7709 131.76 78.8866 131.682C79.0022 131.604 79.1338 131.553 79.2717 131.533C79.4096 131.513 79.5507 131.524 79.6838 131.566C79.8168 131.607 79.9387 131.678 80.0407 131.773C80.1428 131.868 80.2221 131.984 80.2731 132.114C80.3241 132.244 80.3455 132.383 80.3354 132.522C80.3253 132.661 80.2841 132.796 80.2149 132.917C80.1457 133.038 80.0504 133.142 79.9357 133.221C70.4418 143.243 61.7938 154.034 54.0809 165.484C51.358 169.472 48.9002 173.635 46.7233 177.945C46.6182 178.14 46.4469 178.292 46.2403 178.372C46.0338 178.452 45.8056 178.456 45.5964 178.383Z" fill="black"/>
<path d="M42.0199 159.422C41.8571 159.362 41.714 159.258 41.607 159.121C41.5001 158.985 41.4331 158.821 41.4142 158.649C41.3982 158.41 41.4745 158.175 41.627 157.991C41.7796 157.807 41.997 157.689 42.2341 157.661C47.2355 157.214 53.2518 158.257 60.116 160.753C63.1417 161.844 66.0889 163.141 68.9361 164.637C69.0703 164.676 69.194 164.744 69.2981 164.837C69.4022 164.931 69.4838 165.046 69.5373 165.175C69.5908 165.304 69.615 165.443 69.6074 165.583C69.5997 165.722 69.5605 165.858 69.4932 165.981C69.4259 166.103 69.3322 166.209 69.2185 166.29C69.1049 166.371 68.9746 166.425 68.837 166.449C68.6994 166.473 68.558 166.466 68.4236 166.428C68.2892 166.39 68.1654 166.322 68.0607 166.23C67.921 166.155 53.7084 158.471 42.3924 159.468C42.2663 159.486 42.1378 159.47 42.0199 159.422Z" fill="black"/>
<path d="M70.1006 163.21C69.9342 163.155 69.7881 163.051 69.6813 162.912C69.5975 162.8 60.5355 151.345 49.2847 148.225C49.0985 148.125 48.9521 147.965 48.869 147.77C48.7859 147.576 48.7713 147.359 48.8276 147.156C48.884 146.952 49.0076 146.774 49.1787 146.65C49.3498 146.526 49.558 146.464 49.769 146.474C61.6159 149.761 70.7338 161.31 71.1157 161.795C71.2204 161.952 71.2745 162.138 71.2712 162.327C71.2679 162.516 71.2072 162.699 71.097 162.853C70.9868 163.007 70.8325 163.123 70.6545 163.187C70.4765 163.251 70.2834 163.259 70.1006 163.21Z" fill="black"/>
<path d="M39.0763 116.289C37.9799 116.289 36.9081 116.614 35.9966 117.224C35.0851 117.833 34.3748 118.699 33.9556 119.712C33.5365 120.725 33.4273 121.84 33.6418 122.915C33.8564 123.99 34.3853 124.978 35.1612 125.753C35.9371 126.527 36.9252 127.054 38.0008 127.267C39.0763 127.48 40.1908 127.369 41.2032 126.948C42.2156 126.527 43.0807 125.815 43.6885 124.903C44.2963 123.99 44.6199 122.918 44.618 121.821C44.6156 120.353 44.0303 118.946 42.9913 117.909C41.9524 116.872 40.5444 116.289 39.0763 116.289ZM39.0763 125.063C38.4352 125.063 37.8084 124.872 37.2754 124.516C36.7424 124.16 36.327 123.654 36.0816 123.062C35.8363 122.469 35.7724 121.818 35.8975 121.189C36.0225 120.56 36.331 119.983 36.7843 119.53C37.2375 119.076 37.8154 118.768 38.4441 118.642C39.0729 118.517 39.7242 118.582 40.3164 118.827C40.9087 119.072 41.4151 119.488 41.7712 120.021C42.1273 120.554 42.3174 121.18 42.3174 121.821C42.3174 122.681 41.9757 123.505 41.3678 124.113C40.76 124.721 39.9359 125.063 39.0763 125.063Z" fill="black"/>
<path d="M130.04 38.2031H132.52L136.833 48.7338H136.992L141.304 38.2031H143.785V51.7502H141.84V41.9471H141.715L137.719 51.7303H136.105L132.11 41.9405H131.984V51.7502H130.04V38.2031Z" fill="black"/>
<path d="M127.063 38.2031V51.7502H125.019V38.2031H127.063Z" fill="black"/>
<path d="M120.42 41.7615C120.35 41.1353 120.058 40.6503 119.547 40.3063C119.035 39.9579 118.392 39.7837 117.615 39.7837C117.06 39.7837 116.579 39.8719 116.173 40.0483C115.768 40.2203 115.452 40.4584 115.228 40.7627C115.007 41.0626 114.897 41.4043 114.897 41.788C114.897 42.1099 114.972 42.3877 115.122 42.6215C115.276 42.8552 115.477 43.0514 115.724 43.2102C115.975 43.3645 116.244 43.4946 116.531 43.6004C116.817 43.7019 117.093 43.7857 117.357 43.8518L118.68 44.1958C119.113 44.3016 119.556 44.4449 120.01 44.6257C120.464 44.8065 120.885 45.0447 121.273 45.3401C121.661 45.6356 121.975 46.0016 122.213 46.4382C122.455 46.8748 122.577 47.3973 122.577 48.0059C122.577 48.7732 122.378 49.4545 121.981 50.0498C121.589 50.6452 121.018 51.1148 120.268 51.4588C119.523 51.8028 118.621 51.9747 117.563 51.9747C116.548 51.9747 115.671 51.8138 114.93 51.4919C114.189 51.1699 113.609 50.7135 113.19 50.1226C112.771 49.5273 112.54 48.8217 112.496 48.0059H114.546C114.586 48.4954 114.745 48.9033 115.022 49.2296C115.305 49.5515 115.664 49.7919 116.101 49.9506C116.542 50.105 117.025 50.1821 117.549 50.1821C118.127 50.1821 118.641 50.0917 119.091 49.9109C119.545 49.7257 119.902 49.4699 120.162 49.1436C120.422 48.8129 120.552 48.427 120.552 47.986C120.552 47.5847 120.438 47.2562 120.208 47.0004C119.984 46.7447 119.677 46.533 119.289 46.3654C118.905 46.1978 118.471 46.0501 117.986 45.9222L116.385 45.4857C115.3 45.1902 114.44 44.7558 113.805 44.1825C113.175 43.6093 112.859 42.8508 112.859 41.9071C112.859 41.1265 113.071 40.4452 113.494 39.8631C113.918 39.281 114.491 38.829 115.214 38.5071C115.937 38.1807 116.753 38.0176 117.662 38.0176C118.579 38.0176 119.388 38.1785 120.089 38.5005C120.795 38.8224 121.351 39.2656 121.756 39.83C122.162 40.3901 122.374 41.0339 122.391 41.7615H120.42Z" fill="black"/>
<path d="M85.3898 44.9763C85.3898 46.4227 85.1252 47.6663 84.596 48.707C84.0668 49.7434 83.3414 50.5415 82.4198 51.1016C81.5025 51.6572 80.4596 51.9351 79.291 51.9351C78.118 51.9351 77.0706 51.6572 76.149 51.1016C75.2317 50.5415 74.5085 49.7412 73.9793 48.7004C73.4501 47.6597 73.1855 46.4183 73.1855 44.9763C73.1855 43.5299 73.4501 42.2885 73.9793 41.2522C74.5085 40.2115 75.2317 39.4133 76.149 38.8577C77.0706 38.2976 78.118 38.0176 79.291 38.0176C80.4596 38.0176 81.5025 38.2976 82.4198 38.8577C83.3414 39.4133 84.0668 40.2115 84.596 41.2522C85.1252 42.2885 85.3898 43.5299 85.3898 44.9763ZM83.3657 44.9763C83.3657 43.8739 83.1871 42.9456 82.8299 42.1915C82.4771 41.433 81.992 40.8597 81.3746 40.4717C80.7617 40.0792 80.0671 39.8829 79.291 39.8829C78.5104 39.8829 77.8137 40.0792 77.2007 40.4717C76.5877 40.8597 76.1027 41.433 75.7455 42.1915C75.3927 42.9456 75.2163 43.8739 75.2163 44.9763C75.2163 46.0788 75.3927 47.0093 75.7455 47.7677C76.1027 48.5218 76.5877 49.0951 77.2007 49.4876C77.8137 49.8757 78.5104 50.0697 79.291 50.0697C80.0671 50.0697 80.7617 49.8757 81.3746 49.4876C81.992 49.0951 82.4771 48.5218 82.8299 47.7677C83.1871 47.0093 83.3657 46.0788 83.3657 44.9763Z" fill="#1D4ED8"/>
<path d="M62.3606 51.7493H60.1909L65.066 38.2023H67.4275L72.3026 51.7493H70.1329L66.303 40.663H66.1971L62.3606 51.7493ZM62.7244 46.4443H69.7625V48.1641H62.7244V46.4443ZM64.259 36.8595L62.9228 36.8132C62.9228 36.0856 63.1213 35.5035 63.5181 35.0669C63.915 34.6303 64.4023 34.4098 64.98 34.4054C65.2534 34.4054 65.4915 34.4517 65.6944 34.5443C65.8973 34.6325 66.0869 34.7362 66.2633 34.8552C66.4397 34.9743 66.6183 35.0801 66.7991 35.1727C66.9799 35.2609 67.1805 35.305 67.401 35.305C67.6524 35.3006 67.8574 35.2036 68.0162 35.014C68.1793 34.8199 68.2609 34.5796 68.2609 34.293L69.5707 34.379C69.5662 35.1154 69.3656 35.6953 68.9687 36.1186C68.5762 36.5376 68.0912 36.747 67.5135 36.747C67.2004 36.747 66.9402 36.703 66.7329 36.6148C66.5257 36.5221 66.3426 36.4185 66.1839 36.3039C66.0251 36.1848 65.862 36.0812 65.6944 35.993C65.5268 35.9004 65.3262 35.8541 65.0925 35.8541C64.8499 35.8541 64.6493 35.9489 64.4905 36.1385C64.3362 36.3281 64.259 36.5685 64.259 36.8595Z" fill="#1D4ED8"/>
<path d="M58.2345 38.2031V51.7502H56.3559L49.4699 41.8148H49.3443V51.7502H47.3003V38.2031H49.1921L56.0847 48.1517H56.2104V38.2031H58.2345Z" fill="#1D4ED8"/>
</svg>
