<svg xmlns="http://www.w3.org/2000/svg" width="260" height="260" fill="none" viewBox="0 0 260 260">
  <path fill="#fff" d="M0 0h260v260H0z"/>
  <path fill="#000" d="M11.786 101.8c.793.411 1.616.763 2.46 1.053a23 23 0 0 0-.466 2.59c-.89-.2-1.757-.49-2.59-.863q.221-1.407.596-2.78M77.41 58.958q-.184.637-.449 1.243a13.5 13.5 0 0 1-1.873-1.096c.155-.311.32-.622.5-.915a1.002 1.002 0 0 1 1.822.768M90.488 58.293a.44.44 0 0 1-.414.337h-.087a.8.8 0 0 1-.302.086h-.138a13 13 0 0 1-1.131-.181 4.4 4.4 0 0 1-.604-.164 17 17 0 0 0 1.977-.864c.12.03.23.089.319.173l.095.12a.5.5 0 0 1 .285.493M96.082 53.381a4.19 4.19 0 0 1-3.03 2.97 1 1 0 0 1-.915-.285 19.3 19.3 0 0 0 3.893-3.79q.18-.221.337-.457a6.2 6.2 0 0 1-.285 1.562M98.067 53.675a21 21 0 0 1-2.943 3.203 5.18 5.18 0 0 1 1.648-3.505.81.81 0 0 1 1.295.302M101.106 48.133a27 27 0 0 1-1.019 2.27 3 3 0 0 1-.276-.164.985.985 0 0 1 0-1.666c.39-.25.834-.4 1.295-.44M101.875 42.168q-.89.57-1.865.975.195-1.015.285-2.046a2.65 2.65 0 0 1 1.467.182.57.57 0 0 1 .247.671.6.6 0 0 1-.134.218M76.935 38.396a.53.53 0 0 1-.56.233c-.45-.078-.717-.492-1.037-.777a4 4 0 0 0-.276-.233l-.63-.45a7.3 7.3 0 0 0-2.219-1.121 5.067 5.067 0 0 0-6.215 4.255 4.76 4.76 0 0 0 1.26 3.859 5.3 5.3 0 0 0 1.787 1.33c.7.319 1.727.258 2.167 1.018a.93.93 0 0 1-.156 1.096c-.742.863-2.4.156-3.34-.345l-.224-.13a7.5 7.5 0 0 1-1.407-1.035 9.4 9.4 0 0 1-1.088-1.252c-2.487-3.453-1.08-8.486 2.59-10.48a6.9 6.9 0 0 1 5.921-.293 6.16 6.16 0 0 1 2.59 1.726c.344.399.626.847.837 1.33a1.5 1.5 0 0 1 0 1.268"/>
  <path fill="#000" d="M97.834 28.062c-.276.492-.639.976-.863 1.356a21.4 21.4 0 0 1-2.175 2.745 22.3 22.3 0 0 1-4.99 4.014l-.483.285c-.535.302-1.08.578-1.632.863a20.56 20.56 0 0 1-11.973 1.778.966.966 0 0 1-.587-1.459.86.86 0 0 1 .863-.51c.337 0 .665 0 1.002.044 3.945.13 7.85-.826 11.29-2.762a20.7 20.7 0 0 0 4.99-3.971 18 18 0 0 0 1.934-2.52c.466-.717.734-1.598 1.442-1.978.184-.1.386-.161.595-.181a.86.86 0 0 1 .795.458 1.87 1.87 0 0 1-.208 1.838M101.106 48.133a27 27 0 0 1-1.019 2.27 3 3 0 0 1-.276-.164.985.985 0 0 1 0-1.666c.39-.25.834-.4 1.295-.44M101.874 42.167c-.591.38-1.215.706-1.864.976a8.4 8.4 0 0 0-1.658 1.13 6.1 6.1 0 0 0-1.907 3.575c-.173 1.303.051 2.641 0 3.945a6.2 6.2 0 0 1-.285 1.562 4.19 4.19 0 0 1-3.03 2.97 1 1 0 0 1-.915-.285.95.95 0 0 1 .38-1.727c1.502-.276 1.795-2.037 1.795-3.315 0-1.795-.173-3.522.527-5.23a8.4 8.4 0 0 1 2.84-3.583 6.3 6.3 0 0 1 2.589-1.148 2.65 2.65 0 0 1 1.468.18.57.57 0 0 1 .06.95M89.832 44.99a.86.86 0 0 0-.19-.362.9.9 0 0 0-.302-.276 1.07 1.07 0 0 0-.544-.147h-.294l-.155.07a.33.33 0 0 0-.147.068l-.112.078-.224.147-.44.31a.86.86 0 0 0-.311.285.86.86 0 0 0-.199.372.86.86 0 0 0 0 .44.86.86 0 0 0 .13.405c.148.245.382.426.656.51h.293c.194 0 .385-.051.553-.147l.457-.31.233-.156.104-.07a1 1 0 0 0 .336-.31.8.8 0 0 0 .2-.371c.031-.18.016-.364-.044-.535"/>
  <path fill="#000" d="M93.82 38.853a3.4 3.4 0 0 0-.802-.864 8.6 8.6 0 0 0-1.96-1.286 10.2 10.2 0 0 0-2.15-.785 5.5 5.5 0 0 0-1.182-.112 2.9 2.9 0 0 0-1.062.095l-.56.086a.5.5 0 0 0-.363.544.53.53 0 0 0 .492.44q.488.079.966.207c.329.07.656.173.984.276.65.176 1.286.404 1.9.682a9 9 0 0 1 1.64 1.07q.411.391.863.734c.295.188.615.333.95.432a.466.466 0 0 0 .578-.44 2.6 2.6 0 0 0-.294-1.08M90.489 58.293a.44.44 0 0 1-.415.337h-.086a.8.8 0 0 1-.302.086h-.139a13 13 0 0 1-1.13-.181 4.4 4.4 0 0 1-.605-.164 2 2 0 0 1-.405-.173c-.285-.147-.579-.259-.864-.38a.44.44 0 0 1-.31-.466.423.423 0 0 1 .422-.371q.506.026 1.01 0c.372 0 .741.052 1.097.155.328.086.647.181.958.294a.2.2 0 0 1 .078 0c.12.029.23.088.32.172l.094.121a.5.5 0 0 1 .277.57M77.41 58.958q-.184.637-.45 1.243c-.206.483-.44.967-.672 1.442-.389.863-.794 1.648-1.209 2.451-.259.51-.526 1.002-.803 1.494a68 68 0 0 1-1.07 1.804c-.362.595-.622 1.01-.941 1.502-.751 1.157-2.59.103-1.865-1.088.795-1.32 1.554-2.667 2.296-4.014q.197-.377.406-.742c.233-.44.475-.864.7-1.347s.37-.725.552-1.079c.242-.51.475-1.019.734-1.52.155-.31.32-.62.5-.914a1.002 1.002 0 0 1 1.822.768M68.372 46.337q-.334.446-.622.924c-1.907 3.039-2.494 6.535-2.503 10.126v.992c0 .734.06 1.477.112 2.21a64 64 0 0 1 .363 8.4c-.182 2.917-1.26 6.042-3.859 7.605a6 6 0 0 1-.647.345 5.3 5.3 0 0 1-.941.328c-2.667.7-5.18-.785-7.001-2.814-1.191-1.33-2.236-2.805-3.323-4.221-.786-1.027-1.623-2.037-2.418-3.065-.449-.587-.863-1.174-1.295-1.778a.86.86 0 0 1-.129-.69 1.01 1.01 0 0 1 1.675-.493c2.59 2.918 4.627 6.371 7.38 9.185a5.57 5.57 0 0 0 3.635 1.986 4.32 4.32 0 0 0 3.453-1.917c1.985-2.667 1.372-6.508 1.096-9.582-.518-5.947-.984-12.758 2.762-17.782.225-.311.475-.613.743-.915.733-.812 2.158.284 1.52 1.156M83.608 111.822l-1.977.346v-1.381c-.043-2.849-.224-5.689-.449-8.521l-.181-2.261c.276 0 .552 0 .863.051.311.052.665 0 .993 0 .12.769.216 1.546.302 2.314.302 2.805.44 5.62.483 8.425-.034.337-.034.682-.034 1.027"/>
  <path fill="#000" d="M77.902 101.308c-2.374 1.83-4.627 3.799-6.984 5.637a153 153 0 0 1-6.767 4.973 147 147 0 0 1-14.33 8.882c-7.873 4.23-17.265 7.381-26.122 4.455a19.63 19.63 0 0 1-9.608-6.63 17.95 17.95 0 0 1-3.064-12.949c0-.354.086-.699.146-1.036q.226-1.441.613-2.848c2.184-8.21 7.865-15.245 13.355-21.581 3.359-3.856 6.92-7.53 10.67-11.007 2.744-2.538 6.508-5.309 10.358-4.54.73.15 1.43.418 2.072.794.863.492.293 1.968-.648 1.675h-.043c-5.179-1.9-9.495 3.133-12.732 6.344a142 142 0 0 0-10.765 11.887c-4.048 5.05-8.21 10.998-9.763 17.472a23 23 0 0 0-.466 2.59 20 20 0 0 0-.078 4.247c.682 7.864 7.623 12.871 15.003 13.898 8.9 1.217 17.42-2.917 24.905-7.285a157 157 0 0 0 11.904-7.683 93 93 0 0 0 11.222-8.9c.94-.933 2.262.733 1.122 1.605"/>
  <path fill="#000" d="M61.708 88.869a212 212 0 0 1-4.54 2.356 450 450 0 0 1-13.813 6.622 134 134 0 0 1-13.993 5.913.93.93 0 0 1-1.217-.51.93.93 0 0 1 .509-1.217c2.857-1.415 5.853-2.59 8.78-3.824s5.628-2.486 8.416-3.78a329 329 0 0 0 14.45-7.105 5.1 5.1 0 0 0 1.408 1.545M73.137 83.24l-.25.087v-.156zM68.613 82.127l1.08.268c-.458.215-.864.44-1.356.673a.76.76 0 0 1 .07-.5z"/>
  <path fill="#000" d="m75.735 86.616-2.33-.613c-.181-.863-.346-1.787-.518-2.676v-.156l.276.07 1.951.5c.198.967.414 1.917.621 2.875M77.013 92.477l-2.452-.475c-.19-.915-.345-1.847-.518-2.753l2.374.449c.19.863.389 1.804.579 2.71.008.026.008.043.017.07M80.492 90.483l2.089.397c-.171.87-.431 1.721-.777 2.538l-2.14-.423a9.4 9.4 0 0 0 .586-1.58q.149-.459.242-.932"/>
  <path fill="#3B82F6" d="M113.718 118.15c-3.142 0-6.275-.06-9.418-.103l-13.769-.156c-3.806-.06-7.614-.069-11.43-.121-1.052 0-2.105 0-3.15-.051 0-.596 0-1.2.07-1.787a15.7 15.7 0 0 1 1.553-6.147c1.882-3.599 5.456-4.981 9.056-5.283a50 50 0 0 1 5.8 0l4.886.19 1.969.087c1.407.06 2.805.129 4.212.207a20.4 20.4 0 0 0 3.341 6.906 24.5 24.5 0 0 0 6.88 6.258"/>
  <path fill="#3B82F6" d="M237.179 117.9v10.988l-2.193 5.5c-5.893 0-74.101.5-80 .5-3.03 0-73.979 1.5-77 1.5.638-.393 0-21 0-21 5.18-1.494 21.06.855 27-.855l15.5 10.855c2.806-.821 12.499.247 15-.5l9-5s5.474-5.005 5.765-5.355c0 0 5.722-8.468 2.735-8.468h3.618q16.92-.103 33.839-.129l27.624-.044c3.885 0 8.106-.474 11.895.691 3.565 1.105 5.931 4.057 6.759 7.95.113.51.199 1.019.277 1.528.077.51.129 1.2.181 1.839"/>
  <path fill="#000" d="M97.826 92.27a27.6 27.6 0 0 0-.76 4.049c-2.261-.432-4.523-.863-6.776-1.295q.42-.308.794-.673a8.6 8.6 0 0 0 1.269-1.632q.466-.78.786-1.631l1.337.354q.406.281.864.466c.547.22 1.145.282 1.726.181.285.078.518.138.76.181"/>
  <path fill="#000" d="M90.204 92.374q1.07.198 2.149.414a8.6 8.6 0 0 1-1.269 1.632 7.4 7.4 0 0 1-.794.673c-.863-.156-1.727-.328-2.59-.492l-1.13-.225-.864-.164h-.181l-1.339-.259c.49-.418.899-.92 1.209-1.484q.243-.418.432-.864l.336.06 1.675.32a8.7 8.7 0 0 1-1.226 2.391c.387.02.775-.02 1.148-.12a4.7 4.7 0 0 0 2.331-1.658c.035-.155.07-.224.113-.224M99.535 96.82l-2.47-.475q.148-1.304.415-2.59l2.763.535c1.674.302.958 2.84-.708 2.53M82.616 85.675c.172.919.25 1.853.233 2.788-.7-.181-1.399-.354-2.08-.544a12 12 0 0 0-.346-2.805zM88.615 87.194a17 17 0 0 1-.182 2.115c0 .181-.06.371-.086.553l-.284-.07-1.65-.422c.151-.89.212-1.792.182-2.694l.656.173zM101.253 92.823a32 32 0 0 1-3.453-.553c-.242 0-.475-.103-.717-.155-.863-.199-1.726-.423-2.59-.648l-1.337-.354-1.002-.259-.992-.259c.33-.83.548-1.701.647-2.59l.449.121.794.2.777.198.863.224c.466.863 1.045 1.632 2.08 1.468a1.3 1.3 0 0 0 .976-.656c.259.069.527.146.786.233.259.086.69.215 1.036.336.734.233 1.467.5 2.166.803.95.397.492 1.994-.483 1.89"/>
  <path fill="#000" d="M142.956 73.754c-13.07-8.046-30.542-4.601-39.821 7.536a29.6 29.6 0 0 0-3.316 5.473q-.709 1.484-1.251 3.038a24 24 0 0 0-.622 2.038q-.075.211-.12.431a27.6 27.6 0 0 0-.76 4.049c-.345 2.782-.26 5.6.25 8.356a25 25 0 0 0 2.193 6.569 28 28 0 0 0 4.791 6.777 32.56 32.56 0 0 0 25.388 9.944 30.96 30.96 0 0 0 18.076-7.182 24 24 0 0 0 2.495-2.452 28.6 28.6 0 0 0 6.353-12.344c.069-.25.13-.509.181-.768a29.83 29.83 0 0 0-13.837-31.465m3.608 39.916a21.9 21.9 0 0 1-5.369 4.661 25.7 25.7 0 0 1-7.959 3.203 26.7 26.7 0 0 1-19.518-3.384 24.5 24.5 0 0 1-6.906-6.25 20.4 20.4 0 0 1-3.341-6.906 24.34 24.34 0 0 1 5.81-22.798 24.92 24.92 0 0 1 27.183-5.464c9.358 3.91 15.746 13.233 15.211 23.445a23.5 23.5 0 0 1-1.062 5.879 22.45 22.45 0 0 1-4.049 7.614M74.562 92.003l-4.058-.803-4.894-.95a12 12 0 0 1-3.332-1.027c-.19-.112-.389-.224-.57-.354a5.1 5.1 0 0 1-1.407-1.51 3.71 3.71 0 0 1-.173-3.954c1.355-2.288 4.23-2.288 6.509-1.727.665.147 1.32.303 1.977.467l-.207.44a.76.76 0 0 0-.07.5c.45-.233.864-.457 1.356-.673l.56.138 2.59.64v.154c.173.864.337 1.787.519 2.677.18.889.37 1.907.56 2.857l.079.388c.215.89.345 1.822.56 2.737"/>
  <path fill="#000" d="M82.849 88.464c-.012.812-.101 1.621-.268 2.417-.171.87-.431 1.72-.777 2.537l-.164.372q-.234.496-.552.94a4.3 4.3 0 0 1-1.64 1.425c-.4.19-.836.292-1.278.302a3.21 3.21 0 0 1-3.073-2.469q-.333-.975-.536-1.985c-.19-.915-.345-1.847-.518-2.754l-.077-.388c-.19-.95-.38-1.908-.561-2.858s-.346-1.787-.518-2.676v-.233c-.242-1.286 1.674-1.839 1.968-.544.095.397.19.803.276 1.192.225.966.44 1.916.648 2.874.207.958.457 2.055.682 3.082.19.863.388 1.804.578 2.71v.07c.164.785.397 2.071 1.459 1.726a2.2 2.2 0 0 0 1.19-1.191 9.4 9.4 0 0 0 .588-1.58q.149-.46.242-.932a11.886 11.886 0 0 0-.07-5.395q-.166-.727-.431-1.425c-.863-2.184-2.59-4.316-5.067-4.437-2.21-.12-3.565 1.588-4.67 3.28l-.561-.138c-.458.216-.864.44-1.356.674a.76.76 0 0 1 .07-.501l.207-.44a9.7 9.7 0 0 1 2.641-3.617 5.67 5.67 0 0 1 4.826-.976q.558.13 1.087.354a7 7 0 0 1 1.476.863 10.9 10.9 0 0 1 3.531 5.223q.273.85.44 1.727c.163.914.233 1.842.207 2.77"/>
  <path fill="#000" d="M88.615 87.194a17 17 0 0 1-.181 2.115c0 .181-.06.371-.086.553q-.197 1.013-.518 1.994a8.7 8.7 0 0 1-1.226 2.39.3.3 0 0 1-.044.07c-.339.455-.733.867-1.174 1.226l-.37.267c-1.529 1.019-4.066 1.727-5.5.406l-.069-.078a.967.967 0 0 1 .743-1.545q.437.018.863.121.362.078.734.078a3.6 3.6 0 0 0 1.355-.32 4.1 4.1 0 0 0 1.002-.612c.489-.418.898-.921 1.208-1.485q.242-.418.432-.864c.274-.678.474-1.384.595-2.106.15-.89.211-1.792.181-2.693 0-.51-.051-1.019-.112-1.502a8.22 8.22 0 0 0-3.237-5.775 5.2 5.2 0 0 0-2.926-.907q-.851.03-1.675.242a9 9 0 0 1-1.442.224.39.39 0 0 1-.38-.483q.14-.321.346-.604c1.269-1.727 4.316-1.46 6.043-.751a7.6 7.6 0 0 1 1.726 1.01 7 7 0 0 1 1.424 1.39 11.86 11.86 0 0 1 2.288 7.64"/>
  <path fill="#000" d="M93.942 87.194v.207q-.026.556-.113 1.105-.131.946-.414 1.856c-.078.25-.164.5-.259.725a10 10 0 0 1-.786 1.632 8.6 8.6 0 0 1-1.268 1.631 7.4 7.4 0 0 1-.794.674 6.05 6.05 0 0 1-2.522 1.096 3.96 3.96 0 0 1-2.753-.32 1.1 1.1 0 0 1-.423-.681.77.77 0 0 1 .336-.864.93.93 0 0 1 .588-.19q.373.027.742.096h.328c.387.02.774-.021 1.148-.121a4.7 4.7 0 0 0 2.33-1.658c.044 0 .079-.103.122-.155a7.9 7.9 0 0 0 .95-1.727c.33-.83.547-1.701.647-2.59q.087-.596.086-1.2a7.44 7.44 0 0 0-2.115-5.464 7.33 7.33 0 0 0-3.358-1.812 14 14 0 0 0-1.51-.337c-.562-.104-.45-.863 0-1.036h.086c2.175-.751 4.661.406 6.232 1.934q.045.027.078.069a8.6 8.6 0 0 1 1.502 2.028 10.16 10.16 0 0 1 1.14 5.102"/>
  <path fill="#000" d="M99.604 90.138q-.072.164-.164.32a3.45 3.45 0 0 1-1.493 1.38c-.27.141-.562.235-.864.277a3.2 3.2 0 0 1-1.726-.181 4.4 4.4 0 0 1-.864-.467 5.1 5.1 0 0 1-1.078-1.079 6.2 6.2 0 0 1-1.131-2.192.932.932 0 0 1 1.683-.708q.43.62.769 1.295c.466.863 1.044 1.631 2.08 1.467a1.3 1.3 0 0 0 .975-.656c.358-.853.376-1.81.052-2.676a7.17 7.17 0 0 0-2.71-3.298 17 17 0 0 0-2.046-1.269l-.268-.138a4.1 4.1 0 0 1-1.804-1.269.615.615 0 0 1 .224-.863.4.4 0 0 1 .13-.052 4.9 4.9 0 0 1 2.728.777c.842.383 1.646.845 2.4 1.382a9.34 9.34 0 0 1 3.34 4.575 4.58 4.58 0 0 1-.233 3.375M101.97 83a.5.5 0 0 1-.095-.07c-1.028-.932-1.865-2.132-2.84-3.133a41 41 0 0 0-3.143-2.85 40.4 40.4 0 0 0-6.966-4.505 44 44 0 0 0-7.666-3.117 49 49 0 0 0-4.109-1.035l-.535-.095a18 18 0 0 1-2.253-.38 4.1 4.1 0 0 1-1.114-.423l-.103-.06a.862.862 0 0 1 .198-1.529c.312-.124.641-.197.976-.215 1.16-.048 2.321.06 3.453.319a37 37 0 0 1 4.316.915 40.5 40.5 0 0 1 8.192 3.263 42.6 42.6 0 0 1 5.93 3.859c.51.38 1.002.777 1.477 1.182.181.147.354.294.518.45.863.768 1.778 1.57 2.59 2.425a23.5 23.5 0 0 1 2.589 2.918c.13.181.242.362.346.535a1.225 1.225 0 0 1-1.761 1.545M64.609 83.474a17.328 17.328 0 0 0-1.13-3.867 15.6 15.6 0 0 0-1.184-2.374c-.432-.682-1.01-1.727-1.882-1.848a.544.544 0 0 0-.527.406c-.172.76.527 1.606.864 2.262s.733 1.467 1.018 2.236q.425 1.156.708 2.356c.095.397.181.803.25 1.209q.06.649.199 1.286a.958.958 0 0 0 1.873-.25 6.5 6.5 0 0 0-.19-1.416"/>
  <path fill="#000" d="M77.626 71.285a19.6 19.6 0 0 0-1.028-3.03c-.397-.864-.863-2.124-1.847-2.46a.493.493 0 0 0-.587.336c-.302.915.328 2.037.587 2.9.26.864.561 1.874.777 2.832.42 1.962.6 3.968.535 5.974-.043 1.441 2.202 1.441 2.253 0a23.3 23.3 0 0 0-.69-6.552M75.45 62.635a1.09 1.09 0 0 0-.794-.803 23.7 23.7 0 0 1-5.378-1.441q-1.225-.51-2.391-1.14a28 28 0 0 1-1.252-.664 2.6 2.6 0 0 0-1.304-.493.63.63 0 0 0-.586.786c.166.44.468.815.863 1.07q.588.515 1.234.959a16.7 16.7 0 0 0 2.547 1.424c1.805.84 3.72 1.422 5.689 1.726a1.18 1.18 0 0 0 1.286-.526c.135-.28.165-.598.086-.898M74.519 42.202l-.45-.561-.802-.984c-.268-.32-.518-.647-.803-.941-.147-.155-.293-.31-.458-.458a3 3 0 0 0-.284-.25 2 2 0 0 0-.38-.147.48.48 0 0 0-.475.121.51.51 0 0 0-.12.475q.014.176.068.345.07.15.155.294c.113.19.234.362.354.544.26.388.561.742.864 1.105.302.362.518.647.768.975.138.173.259.354.406.518l.215.19q.135.115.294.19.153.064.32.069a.64.64 0 0 0 .474-.19.76.76 0 0 0 .199-.475 1.28 1.28 0 0 0-.345-.82"/>
  <path fill="#000" d="M108.875 40.58a10.5 10.5 0 0 1-2.503 7.156 8.4 8.4 0 0 1-3.004 2.261c-.907.38-2.271.863-3.237.397q.577-1.102 1.027-2.261a2.77 2.77 0 0 0-1.295.448.982.982 0 0 0 0 1.658q.126.09.268.155a21.7 21.7 0 0 1-2.046 3.272.863.863 0 0 0-1.304-.302 5.18 5.18 0 0 0-1.64 3.513 20.5 20.5 0 0 1-3.453 2.495A16.26 16.26 0 0 1 80.37 61.34a14.3 14.3 0 0 1-3.367-1.14q.266-.606.45-1.242a1.001 1.001 0 0 0-1.822-.769c-.181.294-.354.605-.5.864a11.5 11.5 0 0 1-3.592-3.937.992.992 0 0 1 1.726-.975 11.8 11.8 0 0 0 3.617 3.358 12.66 12.66 0 0 0 11.007.863q.297.104.604.164c.371.078.76.138 1.131.181h.138a.66.66 0 0 0 .302-.095h.087a.43.43 0 0 0 .414-.336.53.53 0 0 0-.285-.475l-.095-.121a.7.7 0 0 0-.32-.173 21 21 0 0 0 2.349-1.45.97.97 0 0 0 .914.268 4.14 4.14 0 0 0 3.03-2.97c.162-.5.258-1.02.285-1.545a20.95 20.95 0 0 0 3.635-8.684 11.7 11.7 0 0 0 1.873-.976.57.57 0 0 0-.112-.863 2.73 2.73 0 0 0-1.468-.181c.429-4.49-.424-9.01-2.46-13.035a1.89 1.89 0 0 0 .164-1.865.92.92 0 0 0-.803-.457 1.5 1.5 0 0 0-.595.172c-.708.398-.976 1.27-1.442 1.986a18.7 18.7 0 0 1-1.925 2.52 21.07 21.07 0 0 1-16.376 6.7 5.4 5.4 0 0 0-.811-1.322 6.1 6.1 0 0 0-2.59-1.726 6.98 6.98 0 0 0-5.922.294 7.31 7.31 0 0 0-2.59 10.48q.485.676 1.088 1.251c-3.746 5.024-3.28 11.835-2.763 17.783.277 3.073.864 6.906-1.095 9.582a4.32 4.32 0 0 1-3.453 1.916 5.46 5.46 0 0 1-3.626-1.994c-2.754-2.797-4.774-6.267-7.398-9.176a1.01 1.01 0 0 0-1.666.492c-3.807-.768-7.57 2.003-10.36 4.54a143 143 0 0 0-10.608 11.041c-5.49 6.302-11.17 13.346-13.363 21.581a28 28 0 0 0-.605 2.84 15 15 0 0 1-1.795-.863A18.59 18.59 0 0 1 .201 84.967a19.24 19.24 0 0 1 4.93-10.03c2.59-2.806 6.042-4.136 9.314-5.87a10.95 10.95 0 0 0 4.023-3.074c1.234-1.726 1.364-3.824 1.485-5.861.015-2.121.415-4.221 1.182-6.198a12.5 12.5 0 0 1 3.324-4.317c3.012-2.59 6.759-3.936 10.522-4.99 4.023-1.13 8.305-2.028 11.715-4.592 2.987-2.244 4.946-5.533 6.776-8.71 1.89-3.323 3.712-6.742 6.32-9.556C64.521 16.65 71.6 14 78.505 14c7.251 0 14.028 3.384 19.363 8.132 5.093 4.42 10.782 11.3 11.006 18.447"/>
  <path fill="#000" d="M98.836 69.066c-.29 1.023-.723 2-1.287 2.9-.406.683-.932 1.321-1.364 2.012a42.6 42.6 0 0 0-5.93-3.859 40.5 40.5 0 0 0-8.192-3.263 37 37 0 0 0-4.317-.915 13 13 0 0 0-3.453-.32c.277-.491.544-.983.803-1.493.415-.802.82-1.623 1.209-2.451.233-.475.466-.958.673-1.442 1.07.522 2.2.905 3.367 1.14 3.883.745 7.905.045 11.308-1.968a20 20 0 0 0 3.453-2.495 8 8 0 0 0 0 1.58c.164 2.089 1.192 3.616 2.504 5.179a5.67 5.67 0 0 1 1.226 5.395"/>
  <path fill="#000" d="M100.985 70.793c-.4.994-.894 1.948-1.476 2.849a18 18 0 0 1-1.33 1.907 5 5 0 0 1-.612.64 1.174 1.174 0 0 1-1.839-1.416q.2-.448.457-.864c.432-.69.959-1.33 1.364-2.011.564-.901.998-1.878 1.287-2.9a5.67 5.67 0 0 0-1.252-5.396c-1.312-1.562-2.34-3.09-2.503-5.18a8 8 0 0 1 0-1.579 5.18 5.18 0 0 1 1.648-3.505.812.812 0 0 1 1.295.302.86.86 0 0 1 0 .458c-.291.93-.502 1.883-.63 2.849a6.4 6.4 0 0 0 .5 2.693c.777 1.856 2.59 3.013 3.29 4.938a8.76 8.76 0 0 1-.199 6.215M95.927 96.863a16.25 16.25 0 0 1-9.064 5.093c-1.24.264-2.505.4-3.773.405a15 15 0 0 1-1.545-.069h-.397c-1.494-.138-3.54-.371-4.403-1.562a.725.725 0 0 1 .45-1.062 5.5 5.5 0 0 1 2.356.173q.702.138 1.415.198l.864.052q.496.033.992 0a16.7 16.7 0 0 0 3.54-.423 17.8 17.8 0 0 0 7.968-4.316 1.132 1.132 0 0 1 1.597 1.51M27.515 124.668c-4.066 4.964-6.906 11.11-9.375 16.971a139 139 0 0 0-6.388 18.534 210.4 210.4 0 0 0-6.328 41.013c-.526 8.071-.725 16.16-.777 24.248a1.408 1.408 0 0 0 2.814 0c.164-14.002.751-28.047 2.72-41.928a171.8 171.8 0 0 1 9.703-38.129c1.286-3.323 2.744-6.561 4.272-9.772s3.393-6.44 4.895-9.746c.406-.924-.777-2.123-1.536-1.191"/>
  <path fill="#000" d="M66.43 225.442c-.553.864-1.209 1.641-1.779 2.487h-6.897q-6.742-.078-13.492-.216-9.35-.181-18.69-.415c-3.081-.086-6.163-.146-9.245-.259a59.5 59.5 0 0 1-9.289-.604c-1.079-.216-.656-1.623.234-1.726 3.4-.449 6.975-.113 10.402 0l10.41.25q14.84.31 29.705.509h1.916c1.295 0 2.59 0 3.902.052h1.459zM131.63 94.489c-.051 3.358-.388 6.69-.75 10.022-.078.63-.147 1.252-.216 1.873h-1.77l-1.2-.043h-.803l-1.985-.095a14 14 0 0 1-.613-1.821 32 32 0 0 1-.57-2.469 47 47 0 0 1-.82-6.604 42.8 42.8 0 0 1 1.045-12.086c.379-1.597 1.303-3.03 3.116-3.03a4.07 4.07 0 0 1 3.583 2.392c.794 1.648.768 3.643.863 5.43.103 2.123.155 4.316.12 6.43M131.104 110.502a3.6 3.6 0 0 0-2.02-1.174 3.7 3.7 0 0 0-2.383.328.56.56 0 0 0-.241.734.716.716 0 0 0-.864-.078c-.27.175-.512.39-.716.639a2.25 2.25 0 0 0-.441 1.113 4.3 4.3 0 0 0 .156 2.089 3.78 3.78 0 0 0 3.229 2.59 4.17 4.17 0 0 0 3.737-2.072 3.55 3.55 0 0 0-.457-4.169m-4.843 1.968v.086a.15.15 0 0 1 0-.095z"/>
  <path fill="#000" d="M66.024 109.95c0 4.86-.501 9.72-.864 14.562-.362 4.843-.75 9.703-1.122 14.563a1848 1848 0 0 0-3.133 51.432q-.604 12.949-.967 25.898c-.078 2.969-.138 5.947-.216 8.925 0 .864 0 1.675-.069 2.513h-1.882v-2.504c.06-4.066.19-8.106.302-12.163.492-17.265 1.148-34.581 2.141-51.855a1119 1119 0 0 1 1.787-25.897c.346-4.316.708-8.563 1.097-12.845.388-4.282.75-8.589 1.553-12.811.199-.785 1.373-.569 1.373.182M127.755 163.531v-.078c-.009.086-.009.095 0 .078M254.444 191.785c-.043.811-.13 1.623-.216 2.434-.319 2.59-.863 5.18-1.208 7.726a15908 15908 0 0 1-5.922 39.709 1.34 1.34 0 0 1-1.304.984c-2.823-.25-5.645-.44-8.477-.543-.621 0-1.234-.052-1.847-.069a127 127 0 0 0-4.049-.078h-2.175q-2.694 0-5.395.103c-.682 0-1.364.052-2.046.078a195 195 0 0 0-6.777.432l-1.908.155q-2.59.246-5.179.544a1.51 1.51 0 0 1-1.519-1.545v-10.867999999999999c0-4.403.077-8.823.112-13.243.06-7.078 0-14.217.466-21.296a64 64 0 0 1 .199-2.589h1.89c.069.863.121 1.726.173 2.589.406 7.07.241 14.201.224 21.279v22.462c1.191-.13 2.383-.233 3.583-.337l1.951-.147q3.357-.25 6.716-.354c.682 0 1.364-.051 2.045-.06 1.856-.052 3.721-.069 5.577-.052h2.202c1.407 0 2.822.061 4.229.121l1.891.086c2.339.113 4.687.277 7.027.467q.75-5.059 1.536-10.118 1.52-9.78 3.039-19.535l1.528-9.858c.302-1.942.535-3.928.863-5.896.129-.803.285-1.606.458-2.408l.613-.044c.517.026 1.104-.06 1.7-.129"/>
  <path fill="#000" d="M258.812 192.579a1.18 1.18 0 0 1-.708 1.105 10.3 10.3 0 0 1-3.125.475l-.751.06-2.296.19h-.311c-1.934.156-3.859.294-5.792.423l-1.381.095-2.038.138c-2.589.182-5.265.346-7.898.501-.639 0-1.269.069-1.908.104-2.641.138-5.3.267-7.95.362-.605 0-1.218.061-1.822.069-1.968.069-3.945.13-5.913.164h-9.884c-1.666 0-3.324-.06-4.99-.112a1.21 1.21 0 0 1-.952-.476 1.2 1.2 0 0 1-.227-.497 1.2 1.2 0 0 1 .014-.546c.742-2.685 1.493-5.352 2.382-7.985a.71.71 0 0 1 .499-.511.71.71 0 0 1 .693.174.806.806 0 0 1 .25.734v.259c-.32 2.158-.725 4.316-1.148 6.422l3.712-.043h1.89l5.361-.078h2.616c2.011 0 4.023-.086 6.043-.138l1.657-.043c2.754-.069 5.499-.155 8.253-.276.543 0 1.079 0 1.622-.061l1.796-.069q3.272-.138 6.543-.336c.596 0 1.2-.069 1.804-.121.864-.043 1.727-.104 2.538-.164l4.731-.371.613-.044c.57-.043 1.157-.129 1.726-.198a18 18 0 0 1 2.167-.164 7 7 0 0 1 1.494.138.87.87 0 0 1 .69.82"/>
  <path fill="#000" d="M259.943 186.346a537 537 0 0 1-.501 3.756 4.9 4.9 0 0 1-.665 2.477 1.8 1.8 0 0 1-.586.492.86.86 0 0 1-1.011-.121 1.98 1.98 0 0 1-.604-1.329 7.7 7.7 0 0 1 .138-1.727c.095-.759.19-1.519.294-2.287-1.468-.095-2.944-.242-4.42-.285-1.985-.06-3.98-.095-5.974-.138a357 357 0 0 0-6.189-.069h-1.726c-4.317 0-8.581 0-12.863.112q-5.18.103-10.402.337c-1.727.077-3.453.172-5.179.241-1.58.069-3.574.484-5.085-.069a1.13 1.13 0 0 1-.5-.38 1.1 1.1 0 0 1-.216-.992.86.86 0 0 1 .466-.535 6.9 6.9 0 0 1 2.831-.536l3.082-.172a259 259 0 0 1 5.775-.199c2.184-.06 4.368-.121 6.552-.164l1.985-.043c4.161-.078 8.305-.104 12.457-.086h3.324c2.365 0 4.713.051 7.07.112q2.71.06 5.395.155c1.726.052 3.453-.06 5.179 0 .691.087 1.511.708 1.373 1.45"/>
  <path fill="#000" d="M240.459 187.141h-1.726c-.587-.674-.432-1.597-.605-2.478a1 1 0 0 0 0-.147 7.02 7.02 0 0 0-2.339-3.798 6.3 6.3 0 0 0-2.918-1.407l-.276-.043c-3.522-.423-6.25 2.391-7.406 5.473-.139.397-.26.794-.355 1.183a.76.76 0 0 1-.725.533.76.76 0 0 1-.725-.533 8 8 0 0 1-.181-1.14 6.9 6.9 0 0 1 .224-2.132 7.7 7.7 0 0 1 1.727-2.909 8.96 8.96 0 0 1 7.924-3.134 8.3 8.3 0 0 1 2.823.863l.121.069a9.63 9.63 0 0 1 3.971 4.084c.486.957.829 1.981 1.018 3.038a2.77 2.77 0 0 1-.552 2.478M217.1 193.606l-.181 2.685c-.259 3.591-.631 7.173-.907 10.756a368 368 0 0 0-1.07 25.897v6.664c0 .984 0 1.968.06 2.944l-1.907.155c0-.984-.078-1.968-.104-2.952a290 290 0 0 1 .121-21.486c.181-4.377.466-8.762.863-13.121.294-2.935.604-5.905 1.053-8.823.13-.863.285-1.795.449-2.684zM224.791 193.425c0 .863-.068 1.726-.137 2.633-.087 1.062-.182 2.123-.242 3.159-.13 2.538-.285 5.085-.406 7.614-.423 9.228-.63 18.447-.423 27.684.043 1.563.086 3.116.147 4.679 0 .95.069 1.899.121 2.849-.682 0-1.364.051-2.046.077 0-.958-.086-1.916-.121-2.866a339 339 0 0 1-.198-20.398c.086-4.653.258-9.288.578-13.924a212 212 0 0 1 .604-7.044c.06-.579.103-1.166.164-1.727.078-.863.155-1.778.302-2.658zM234.667 193.088c-.043.863-.095 1.666-.156 2.503-.06.838-.146 1.787-.215 2.685-.19 2.538-.449 5.076-.674 7.614a637 637 0 0 0-1.856 27.114q-.155 3.082-.259 6.164c0 .924-.06 1.839-.086 2.771h-2.175c0-.932-.001-1.865.06-2.797.164-7.208.449-14.416.967-21.581.336-4.549.699-9.125 1.277-13.648.354-2.71.631-5.464 1.054-8.183a53 53 0 0 1 .44-2.547c.544-.043 1.079-.06 1.623-.095M244.81 192.562q-.169 1.202-.363 2.391c-.518 3.332-1.088 6.664-1.657 10.005-1.459 8.675-2.849 17.368-4.075 26.087-.388 2.771-.76 5.551-1.088 8.33-.121.863-.215 1.804-.31 2.711-.622 0-1.235-.052-1.848-.069.087-.907.182-1.822.268-2.728.785-7.769 1.675-15.461 2.823-23.152 1.044-7.036 2.21-14.106 3.85-21.046.19-.803.388-1.614.595-2.409a66 66 0 0 0 1.805-.12M119.787 216.361a11.1 11.1 0 0 0-7.122-3.798c-3.159-.501-6.353-.155-9.495-.389a6.65 6.65 0 0 0-.864-5.714c-1.683-2.59-4.704-3.634-7.64-4.014-4.73-.605-10.73-.475-14.407 2.736a9 9 0 0 0-1.726 2.055q-.712.022-1.416.121a18.3 18.3 0 0 0-9.548 4.618c-1.623 1.442-3.453 3.332-3.85 5.516a4.56 4.56 0 0 0 .596 3.246c.708 1.2 1.182 1.873.414 3.185q-.495.78-1.079 1.494-.462.565-.863 1.174-.42.628-.76 1.303a14 14 0 0 0-.794 1.804 11.66 11.66 0 0 0-.604 6.147c.863 4.532 4.972 6.724 9.202 7.19 2.298.257 4.62.21 6.906-.138a7.4 7.4 0 0 0 3.522-1.407c.958 2.236 2.322 4.316 4.808 5.076 1.401.386 2.898.199 4.161-.518 1.192-.587 2.4-1.675 3.816-1.407.734.138 1.407.527 2.123.734a5.7 5.7 0 0 0 2.348.155 7.05 7.05 0 0 0 3.833-1.994c1.726-1.726 2.452-4.057 2.849-6.431a10.8 10.8 0 0 0 5.879 3.341c2.676.414 5.732-.501 7.19-2.901a5.8 5.8 0 0 0 .656-1.545 7.5 7.5 0 0 0 0-3.453 21 21 0 0 0-1.605-4.454c-.104-.242-.225-.484-.345-.725a6.58 6.58 0 0 0 5.075-3.876 7.064 7.064 0 0 0-1.26-7.131m-2.469 8.149a3.9 3.9 0 0 1-2.719.63 6.6 6.6 0 0 0-4.032-2.831 1.054 1.054 0 0 0-1.295.95c-.015.204.03.408.13.586a6.43 6.43 0 0 0 4.109 3.367c.302.518.553 1.053.794 1.563a19.3 19.3 0 0 1 1.425 3.763 5.18 5.18 0 0 1-.251 3.453 2 2 0 0 1-.233.397c-1.113 1.641-3.392 2.133-5.231 1.727a9.04 9.04 0 0 1-3.833-2.167 17.7 17.7 0 0 1-2.037-2.149c-.691-.864-1.804-.043-1.917.794-.051.431-.112.863-.172 1.312-.328 2.227-.863 4.523-2.53 6.103a4.24 4.24 0 0 1-3.228 1.312c-1.269-.138-2.348-.949-3.634-.984a6.14 6.14 0 0 0-3.16.941c-.95.518-1.934 1.26-3.064 1.252-2.858 0-4.1-3.453-4.895-5.629a1.105 1.105 0 0 0-2.115 0c-.423 1.485-2.529 1.666-3.807 1.727-1.761.129-3.53.129-5.291 0-3.453-.302-6.975-1.899-7.528-5.706a9.9 9.9 0 0 1 .863-5.3q.413-.91.985-1.727c.57-.863 1.225-1.623 1.778-2.486.13-.207.259-.414.38-.63.45-.765.675-1.642.647-2.529a7.3 7.3 0 0 0-1.208-2.875c-.984-1.865 1.053-3.919 2.278-5.18a20.1 20.1 0 0 1 8.573-4.791l.673-.189c.32.863 1.804 1.251 2.253.233q.113-.278.268-.536.082-.192.19-.371a.54.54 0 0 0 .345-.466c2.667-3.643 8.235-3.721 12.413-3.453 2.314.13 4.998.561 6.656 2.331 1.26 1.338 2.003 3.738.716 5.3-.474.561-.423 1.727.484 1.865 3.263.483 6.534.181 9.789.483 2.719.259 5.706 1.105 7.346 3.453 1.459 2.167 1.321 4.964-.915 6.457"/>
  <path fill="#000" d="M111.905 222.723c-2.57.316-5.175.167-7.691-.44-2.323-.544-4.826-1.191-7.131-.199a5.9 5.9 0 0 0-1.864 1.321 5.6 5.6 0 0 0-1.287-1.036 6.164 6.164 0 0 0-8.356 2.391c-.924 1.727-.975 3.773-1.571 5.629a5.7 5.7 0 0 1-3.591 3.634 6.05 6.05 0 0 1-4.967-.414 6.04 6.04 0 0 1-2.966-4.006 6.59 6.59 0 0 1 3.134-7.139c.303.146.625.248.958.302a3.01 3.01 0 0 0 3.453-1.89.622.622 0 0 0-.596-.786 8.55 8.55 0 0 0-3.6.682c-1.018-.923-.984-2.589-.587-3.781 1.01-3.064 3.963-4.989 4.601-8.244a.665.665 0 0 0-1.277-.354c-1.278 3.911-6.043 6.596-5.093 11.171.145.722.465 1.398.932 1.968a7.875 7.875 0 0 0-2.817 10.279 7.9 7.9 0 0 0 2.558 2.894 7.57 7.57 0 0 0 9.374-.76 8.7 8.7 0 0 0 2.374-4.773c.415-1.908.708-4.066 2.513-5.18a4.315 4.315 0 0 1 5.386.553q.17.2.311.423a6.34 6.34 0 0 0 .087 5.913 1.01 1.01 0 0 0 1.726 0 6.37 6.37 0 0 0 .44-5.568 4.15 4.15 0 0 1 3.16-1.623c2.037-.069 4.014.742 6.042 1.07 2.099.335 4.232.391 6.345.165 1.424-.104 1.398-2.366 0-2.202M159.635 197.523c.598.244 1.163.52 1.729.813a20.87 20.87 0 0 1 9.55 11.53c.072.363.007.74-.183 1.057a1.47 1.47 0 0 1-.845.655 1.46 1.46 0 0 1-1.063-.092 1.47 1.47 0 0 1-.721-.791 18.14 18.14 0 0 0-8.16-9.757c-4.605-2.472-10.358-2.586-17.145-.423a1.46 1.46 0 0 1-1.066-.15 1.487 1.487 0 0 1 .178-2.664c6.786-2.179 12.749-2.228 17.726-.178"/>
  <path stroke="#000" stroke-linecap="round" stroke-linejoin="round" stroke-width="5" d="M180.69 144.826c0 6.752 12.321 15.304 18.848 11.253m-54.856-15.191c-5.064 9.002-19.917 14.46-29.819 10.409"/>
  <circle cx="121.614" cy="176.896" r="14.628" fill="#000"/>
  <circle cx="124.146" cy="183.366" r="2.532" fill="#fff"/>
  <circle cx="185.753" cy="176.896" r="14.628" fill="#000"/>
  <circle cx="188.285" cy="183.366" r="2.532" fill="#fff"/>
  <path fill="#000" d="M206.422 230.872h-.501q-6.716.285-13.432.509-26.76.95-53.59 1.114-10.522.078-21.063 0h-2.141a5.18 5.18 0 0 1-.25 3.453h8.598q27.684 0 55.36-.777 13.51-.388 26.993-.967h.587l2.443-.095v-3.375zm-102.312 2.901c-.69-.864-1.804-.044-1.916.794-.052.431-.112.863-.173 1.312l4.127.043a17.7 17.7 0 0 1-2.003-2.149zm-24.17-51.406q-.346-29.3-.717-58.615c0-1.89-.172-3.953-.13-5.982-1.053 0-2.106 0-3.15-.052v4.109q.085 7.51.19 15.038.207 15.142.388 30.274t.389 30.265c0 3.324.086 6.639.13 9.953v2.124l.672-.19c.32.863 1.804 1.252 2.253.233a4 4 0 0 1 .268-.535c0-1.269-.043-2.538-.052-3.807q-.078-11.403-.233-22.815zM237.17 117.9H234.4c.069 1.01.086 2.011.095 3.012v7.295c0 9.729-.251 19.449-.605 29.169a860 860 0 0 1-.923 19.19c-.052.906-.113 1.804-.164 2.702a6.3 6.3 0 0 1 2.917 1.407q.102-1.58.19-3.16a795.006 795.006 0 0 0 1.269-34.909c.069-5.059.087-10.109.078-15.168.017-3.124.19-6.362-.078-9.538z"/>
  <path fill="#fff" stroke="#000" stroke-width="1.5" d="m196.253 97.12 1.814-2.111a7.993 7.993 0 0 1 11.272-.854l41.001 35.229a7.994 7.994 0 0 1 .853 11.272l-1.814 2.111a7.993 7.993 0 0 1-11.272.854l-41-35.229a7.993 7.993 0 0 1-.854-11.272Z"/>
  <path fill="#000" d="m215.385 109.556-1.898 2.21a3.887 3.887 0 0 0 .415 5.481l12.729 10.937a3.887 3.887 0 0 0 5.482-.415l1.898-2.209a3.89 3.89 0 0 0-.415-5.482l-12.729-10.937a3.89 3.89 0 0 0-5.482.415M233.966 133.954a.893.893 0 1 0 0-1.786.893.893 0 0 0 0 1.786M236.744 136.49a.902.902 0 0 0 .591-1.508.9.9 0 0 0-.591-.285.896.896 0 0 0-.829.896.897.897 0 0 0 .829.897M239.727 139.575a.896.896 0 0 0 .632-1.526.89.89 0 0 0-1.264 0 .896.896 0 0 0 0 1.264.9.9 0 0 0 .632.262M236.944 130.96a.893.893 0 1 0 0-1.786.893.893 0 0 0 0 1.786M239.727 133.507a.89.89 0 0 0 .894-.894.893.893 0 1 0-.894.894M242.709 136.586a.895.895 0 1 0 0-1.79.895.895 0 0 0 0 1.79M239.925 127.994a.897.897 0 0 0 .591-1.508.9.9 0 0 0-.591-.285.898.898 0 0 0 0 1.793M242.709 130.524a.89.89 0 0 0 .894-.894.893.893 0 1 0-.894.894M245.687 133.604a.896.896 0 0 0 .632-1.526.893.893 0 1 0-.632 1.526M201.769 105.337a.895.895 0 1 0 0-1.79.895.895 0 0 0 0 1.79M204.553 107.868a.893.893 0 1 0 0-1.786.893.893 0 0 0 0 1.786M207.535 110.953a.895.895 0 0 0 .83-.896.9.9 0 0 0-.83-.897.9.9 0 0 0-.829.897.897.897 0 0 0 .829.896M204.752 102.355a.89.89 0 0 0 .894-.894.893.893 0 1 0-.894.894M207.535 104.891a.896.896 0 0 0 .632-1.526.891.891 0 0 0-1.525.632.896.896 0 0 0 .893.894M210.513 107.97a.896.896 0 0 0 .894-.893.896.896 0 0 0-1.526-.632.891.891 0 0 0 .632 1.525M207.734 99.377a.9.9 0 0 0 .591-1.507.9.9 0 0 0-.591-.286.9.9 0 0 0 0 1.793M210.513 101.886a.893.893 0 1 0 0-1.786.893.893 0 0 0 0 1.786M213.507 104.988a.896.896 0 0 0 .632-1.526.893.893 0 1 0-.632 1.526"/>
  <path fill="#fff" d="M216.683 115.594a.78.78 0 0 0 .721-.783.784.784 0 0 0-.721-.784.78.78 0 0 0-.721.784.784.784 0 0 0 .721.783M219.596 118.378a.787.787 0 0 0 0-1.567.784.784 0 0 0-.721.783.784.784 0 0 0 .721.784M222.465 120.596a.788.788 0 0 0 0-1.567.784.784 0 0 0-.721.783.784.784 0 0 0 .721.784M225.599 123.121a.78.78 0 0 0 .721-.783.784.784 0 0 0-.721-.784.787.787 0 0 0 0 1.567M228.689 125.948a.788.788 0 0 0 0-1.567.786.786 0 0 0 0 1.567M219.811 112.983a.784.784 0 0 0 .721-.783.784.784 0 0 0-.721-.784.787.787 0 0 0 0 1.567M222.73 115.766a.784.784 0 0 0 0-1.566.78.78 0 0 0-.721.783.784.784 0 0 0 .721.783M225.599 117.985a.787.787 0 0 0 0-1.567.78.78 0 0 0-.721.783.784.784 0 0 0 .721.784M228.732 120.51a.79.79 0 0 0 .721-.784.784.784 0 0 0-.721-.783.787.787 0 0 0 0 1.567M231.812 123.336a.787.787 0 0 0 0-1.566.786.786 0 0 0 0 1.566"/>
</svg>
