<svg xmlns="http://www.w3.org/2000/svg" fill="none" viewBox="0 0 192 192">
  <g clip-path="url(#alert-errora)">
    <path fill="#fff" d="M0 0h192v192H0z"/>
    <path fill="#EA4C99" d="M118.555 151.64s1.49 2.113 3.761 2.219c1.361.065 2.625-.595 3.751-1.961 1.384-1.703 2.28-2.03 2.769-2.007.724.032 1.384.923 1.942 1.749 0 0 1.491 2.113 3.761 2.219 1.361.065 2.626-.595 3.752-1.961.84-1.024 1.684-1.532 2.501-1.518 1.264.028 2.229 1.274 2.247 1.297a.97.97 0 0 0 1.555-1.159c-.06-.083-1.523-2.021-3.742-2.076-1.449-.037-2.815.711-4.061 2.224-.701.858-1.421 1.278-2.127 1.26-1.057-.032-2.021-1.029-2.284-1.385-.637-.922-1.703-2.505-3.457-2.588-1.384-.065-2.81.821-4.365 2.713-.701.858-1.421 1.278-2.127 1.26-1.057-.032-2.026-1.029-2.284-1.385-.637-.922-1.703-2.505-3.457-2.588-1.384-.065-2.81.821-4.365 2.713-.701.858-1.421 1.278-2.127 1.26-1.057-.032-2.026-1.029-2.284-1.385-.637-.922-1.703-2.51-3.457-2.593-1.384-.064-2.81.821-4.365 2.713a.98.98 0 0 0-.235.717.96.96 0 0 0 .349.668.98.98 0 0 0 .723.215.96.96 0 0 0 .658-.367c1.384-1.703 2.284-2.031 2.769-2.008.729.033 1.384.923 1.947 1.749 0 0 1.486 2.114 3.756 2.22 1.385.064 2.631-.596 3.752-1.961 1.384-1.703 2.284-2.031 2.769-2.008.756.037 1.416.923 1.975 1.754"/>
    <path fill="#000" d="M29.942 78.57H23.02v-6.923a.97.97 0 0 0-1.938 0v6.922H14.16a.969.969 0 1 0 0 1.938h6.922v6.922a.97.97 0 0 0 1.938 0v-6.922h6.922a.97.97 0 0 0 0-1.938"/>
    <path fill="#EA4C99" d="M122.82 136.693a4.67 4.67 0 0 0-4.334 2.834 4.66 4.66 0 0 0 .958 5.088 4.663 4.663 0 0 0 7.177-.63 4.662 4.662 0 0 0-3.801-7.292m-.083 7.383a2.72 2.72 0 0 1-2.493-1.719 2.73 2.73 0 0 1 .632-2.962 2.72 2.72 0 0 1 2.978-.552 2.73 2.73 0 0 1 .827 4.461 2.71 2.71 0 0 1-1.944.772"/>
    <path fill="#fff" d="M19.755 114.705a1.1 1.1 0 0 1-.734-.761 2.22 2.22 0 0 1 0-1.384s.064-.194.18-.559q.091-.275.217-.669c.083-.263.198-.568.318-.923a48 48 0 0 1 2.353-5.491 48.5 48.5 0 0 1 4.467-7.199 48 48 0 0 1 3.014-3.654 53 53 0 0 1 3.41-3.41 55.6 55.6 0 0 1 7.337-5.598 64 64 0 0 1 6.792-3.807 70 70 0 0 1 4.938-2.146l1.384-.526.498-.18q.123-.043.25-.073l.318-.111a5.64 5.64 0 0 1 4.015.055 3.83 3.83 0 0 1 2.307 2.538c.15.59.163 1.205.037 1.8l.124-.032a4.96 4.96 0 0 1 3.752.429 3.89 3.89 0 0 1 1.947 2.713c.148.869.03 1.762-.341 2.561a4.85 4.85 0 0 1-1.61 1.957c.48.533.815 1.182.973 1.882.2.898.134 1.834-.19 2.695-.29.803-.813 1.5-1.504 2.003.43.515.745 1.116.923 1.763a5.08 5.08 0 0 1-.17 3.23 3.37 3.37 0 0 1-1.925 1.97s-.401.143-.992.374c-.59.231-1.384.549-2.127.891a43 43 0 0 0-2.03.992l-.651.346-.24.134a.7.7 0 0 1-.175.073l-.203.116-.573.332c-.461.295-1.172.72-1.942 1.264a29 29 0 0 0-2.478 1.943 25 25 0 0 0-2.414 2.441 23 23 0 0 0-1.956 2.653q-.75 1.21-1.338 2.506c-.346.762-.586 1.426-.757 1.892-.083.235-.134.429-.18.554-.046.124-1.385 4.037-1.385 4.037-.138.462-2.362-.839-3.054-1.019z"/>
    <path fill="#000" d="M40.897 124.936c-.296-.134-.743-.342-.877-.379l-.088-.023-20.612-8.62a2.426 2.426 0 0 1-1.527-1.564 3.5 3.5 0 0 1-.001-2.183l.397-1.241c.064-.194.143-.411.226-.646l.101-.286a48 48 0 0 1 2.419-5.639 49 49 0 0 1 4.586-7.383 51 51 0 0 1 3.092-3.752 54 54 0 0 1 3.493-3.488 56 56 0 0 1 7.494-5.755 63 63 0 0 1 6.922-3.89 72 72 0 0 1 5.034-2.187c.623-.24 1.103-.42 1.426-.535l.508-.185q.153-.055.314-.097l.253-.087a7.3 7.3 0 0 1 2.414-.416A6.5 6.5 0 0 1 59 77.08a5.13 5.13 0 0 1 3.045 3.4q.083.306.125.619a6.1 6.1 0 0 1 3.184.784 5.22 5.22 0 0 1 2.58 3.609 5.65 5.65 0 0 1-.462 3.318 6.2 6.2 0 0 1-1.075 1.629c.231.437.405.902.516 1.384a5.96 5.96 0 0 1-1.264 5.182q.31.585.485 1.223a6.36 6.36 0 0 1-.222 4.07 4.67 4.67 0 0 1-2.68 2.699l-.213.074-.752.286c-.402.157-1.205.462-2.059.863-.646.291-1.36.642-1.956.955l-.637.337-.23.129q-.132.08-.277.13l-.646.378c-.462.295-1.13.697-1.846 1.209a28 28 0 0 0-2.363 1.846 25 25 0 0 0-2.307 2.307 22 22 0 0 0-1.846 2.501q-.706 1.137-1.264 2.354a23 23 0 0 0-.817 2.113l-.065.198c-.092.287-1.144 3.369-1.384 4.029a1.44 1.44 0 0 1-1.417.983c-.53.037-1.209-.259-2.256-.752m3.64-7.628q.626-1.374 1.422-2.658a24 24 0 0 1 2.067-2.806 27 27 0 0 1 2.543-2.57q1.24-1.085 2.589-2.03a40 40 0 0 1 2.011-1.311l.365-.212.59-.337.093-.028.867-.461a42 42 0 0 1 2.1-1.02 62 62 0 0 1 2.192-.923c.554-.217.854-.327 1.038-.392a2.14 2.14 0 0 0 1.15-1.237c.3-.767.342-1.61.12-2.404a3.3 3.3 0 0 0-.66-1.269l-.924-1.07 1.145-.817c.48-.356.845-.845 1.047-1.408a3.46 3.46 0 0 0 .139-1.956 2.94 2.94 0 0 0-.674-1.302l-.978-1.08 1.19-.84c.512-.366.92-.861 1.182-1.434a3.1 3.1 0 0 0 .249-1.804 2.62 2.62 0 0 0-1.32-1.819 3.5 3.5 0 0 0-1.735-.461 4 4 0 0 0-1.034.143l-2.16.59.43-2.067c.087-.397.08-.81-.023-1.204a2.54 2.54 0 0 0-1.55-1.68c-.485-.199-1.004-.3-1.528-.295a4.8 4.8 0 0 0-1.56.268l-.387.138h-.074l-.092.028-.499.18c-.309.11-.77.286-1.384.516a67 67 0 0 0-4.845 2.11 61 61 0 0 0-6.654 3.728 54 54 0 0 0-7.153 5.491 49.076 49.076 0 0 0-6.266 6.885 47 47 0 0 0-4.343 7.005 46 46 0 0 0-2.307 5.343l-.106.291q-.113.32-.199.577l-.396 1.227a1 1 0 0 0-.023.54l20.585 8.62q.617.218 1.204.508c.152.069.356.166.563.253.462-1.384.974-2.856 1.006-2.957v-.023l.037-.12c.032-.116.083-.273.148-.462.152-.392.42-1.135.803-1.975z"/>
    <path fill="#fff" d="M172.245 114.705a1.114 1.114 0 0 0 .738-.761c.145-.45.145-.934 0-1.384 0 0-.06-.194-.18-.559-.055-.184-.129-.406-.212-.669s-.199-.568-.319-.923a48.4 48.4 0 0 0-6.82-12.69 48 48 0 0 0-3.013-3.654 53 53 0 0 0-3.415-3.41 55.6 55.6 0 0 0-7.318-5.626 64 64 0 0 0-6.793-3.807 69 69 0 0 0-4.942-2.145c-.6-.231-1.075-.411-1.384-.526l-.494-.18a2 2 0 0 0-.254-.074l-.314-.11a5.64 5.64 0 0 0-4.014.055 3.755 3.755 0 0 0-2.335 4.337l-.129-.032a4.96 4.96 0 0 0-3.752.429 3.89 3.89 0 0 0-1.947 2.713 4.4 4.4 0 0 0 .341 2.561c.355.784.913 1.46 1.615 1.957a4.2 4.2 0 0 0-.974 1.883 4.7 4.7 0 0 0 .19 2.694 4.24 4.24 0 0 0 1.504 2.003 4.6 4.6 0 0 0-.923 1.763 5.07 5.07 0 0 0 .171 3.23 3.356 3.356 0 0 0 1.924 1.97s.397.143.992.374 1.385.549 2.123.891 1.495.706 2.035.992l.646.346.24.134a1 1 0 0 0 .175.074l.208.115.572.332c.461.296 1.168.72 1.943 1.265a30 30 0 0 1 2.478 1.942 26 26 0 0 1 2.409 2.441q1.076 1.254 1.956 2.654.752 1.209 1.343 2.505c.346.762.586 1.426.752 1.892.088.236.139.43.18.554l1.384 4.038c.139.461 2.368-.84 3.06-1.02z"/>
    <path fill="#000" d="M148.785 125.725a1.45 1.45 0 0 1-1.416-.983 363 363 0 0 0-1.385-4.029l-.064-.198a4 4 0 0 0-.102-.314 21 21 0 0 0-.711-1.8 20.4 20.4 0 0 0-3.105-4.854 24 24 0 0 0-2.307-2.307 28 28 0 0 0-2.358-1.846 41 41 0 0 0-1.846-1.209l-.646-.378a2 2 0 0 1-.277-.13l-.231-.129-.632-.337a39 39 0 0 0-1.957-.955 44 44 0 0 0-2.062-.863l-.752-.286-.213-.074a4.67 4.67 0 0 1-2.676-2.699 6.37 6.37 0 0 1-.222-4.07q.164-.636.462-1.223a5.7 5.7 0 0 1-1.029-1.744 6 6 0 0 1-.24-3.438 5.5 5.5 0 0 1 .521-1.384 6.2 6.2 0 0 1-1.08-1.63 5.65 5.65 0 0 1-.433-3.317 5.2 5.2 0 0 1 2.579-3.609 6.1 6.1 0 0 1 3.18-.784q.041-.313.124-.619a5.15 5.15 0 0 1 3.046-3.4 6.5 6.5 0 0 1 2.533-.499 7.2 7.2 0 0 1 2.409.415l.254.088q.16.042.313.097l.513.185c.323.115.803.295 1.426.535a72 72 0 0 1 5.034 2.187 64 64 0 0 1 6.922 3.89 56.5 56.5 0 0 1 7.494 5.755 61 61 0 0 1 3.488 3.488 51 51 0 0 1 3.097 3.752 49 49 0 0 1 4.582 7.383 47.5 47.5 0 0 1 2.418 5.639l.106.286c.083.235.157.461.221.646l.402 1.241a3.53 3.53 0 0 1 0 2.183 2.41 2.41 0 0 1-1.523 1.564l-20.613 8.62-.088.023c-.138.037-.581.245-.881.379-1.006.456-1.684.752-2.275.752m-.53-6.424c.069.18.115.337.152.462.037.124.023.087.037.12v.023c.032.101.535 1.578 1.006 2.958l.563-.254q.586-.29 1.204-.508l20.539-8.587a.9.9 0 0 0 0-.54l-.392-1.228q-.084-.257-.203-.576l-.102-.291a46 46 0 0 0-2.307-5.344 47 47 0 0 0-4.347-7.005 48 48 0 0 0-2.935-3.557 53 53 0 0 0-3.327-3.327 54 54 0 0 0-7.152-5.492 60 60 0 0 0-6.659-3.728 65 65 0 0 0-4.84-2.109l-1.385-.517-.503-.18-.092-.027h-.074l-.388-.139a4.8 4.8 0 0 0-1.555-.267 3.9 3.9 0 0 0-1.527.295 2.53 2.53 0 0 0-1.551 1.68c-.102.394-.11.806-.023 1.204l.43 2.067-2.165-.59a4 4 0 0 0-1.033-.143c-.607 0-1.204.16-1.731.46a2.604 2.604 0 0 0-1.319 1.818 3.06 3.06 0 0 0 .249 1.805c.26.573.666 1.068 1.176 1.435l1.191.84-.978 1.08a2.87 2.87 0 0 0-.669 1.301c-.149.652-.1 1.333.138 1.957a3 3 0 0 0 1.048 1.407l1.144.817-.923 1.07c-.311.37-.536.803-.66 1.27a3.72 3.72 0 0 0 .12 2.404 2.14 2.14 0 0 0 1.145 1.236c.189.065.484.176 1.042.393.43.166 1.279.507 2.192.923.683.309 1.449.683 2.1 1.019l.867.462.088.028.591.336.364.213c.522.318 1.218.752 2.017 1.31q1.348.946 2.588 2.031 1.356 1.201 2.543 2.57a24 24 0 0 1 2.063 2.805 24 24 0 0 1 1.426 2.658c.397.808.673 1.551.817 1.952"/>
    <path fill="#EA4C99" d="m152.697 42.115-14.605 7.475c-.149.08-.277.194-.374.332a.98.98 0 0 0-.092.95.88.88 0 0 0 .528.478.9.9 0 0 0 .709-.062l14.605-7.48a1 1 0 0 0 .461-1.283.89.89 0 0 0-.886-.514.9.9 0 0 0-.346.104M126.566 37.722a.924.924 0 0 0 1.306-.287l9.349-13.77a.92.92 0 0 0 .214-.722.925.925 0 0 0-1.486-.603.9.9 0 0 0-.246.297l-9.34 13.746a.93.93 0 0 0-.19.714.92.92 0 0 0 .393.625M111.268 31.358l1.579-16.33a.9.9 0 0 0-.49-.904.9.9 0 0 0-.35-.093.98.98 0 0 0-.849.461 1 1 0 0 0-.171.462l-1.578 16.307a.88.88 0 0 0 .201.681.9.9 0 0 0 .634.32 1 1 0 0 0 1.024-.904M120.687 39.701a50.96 50.96 0 0 0-59.693 6.614 50.966 50.966 0 0 0 19.27 86.299l2.386 29.819 16.428-27.687a50.966 50.966 0 0 0 45.968-39.536 50.97 50.97 0 0 0-24.359-55.523z"/>
    <path fill="#000" d="M82.651 163.527a1.092 1.092 0 0 1-1.09-1.006l-2.33-29.072a52.14 52.14 0 0 1-32.79-31.627c-.328-.9-.637-1.819-.923-2.732a1.095 1.095 0 0 1 2.095-.637 49.949 49.949 0 0 0 32.97 33.127 1.1 1.1 0 0 1 .767.96l2.109 26.381 14.669-24.719a1.1 1.1 0 0 1 .858-.531 49.87 49.87 0 0 0 39.602-24.918 1.098 1.098 0 0 1 2.008.257 1.1 1.1 0 0 1-.107.832 52.05 52.05 0 0 1-17.184 18.008 52.04 52.04 0 0 1-23.58 7.971l-16.151 27.198a1.09 1.09 0 0 1-.923.508"/>
    <path fill="#fff" d="M155.68 92.925c-7.005-2.127-11.781-2.04-18.804-1.098-1.938.346-3.627 2.044-3.092 4.752.498 2.502 2.192 3.452 4.079 3.088 4.887-.78 7.937-.997 12.921.461-2.22 6.65-.748 14.55 4.988 17.591z"/>
    <path fill="#000" d="M155.757 118.937a1.2 1.2 0 0 1-.568-.143c-2.981-1.583-5.14-4.499-6.086-8.219a19.3 19.3 0 0 1 .152-9.602c-3.927-1.002-6.677-.84-11.222-.116-2.714.522-4.869-1.061-5.459-4.047a5.21 5.21 0 0 1 .724-4.065 5.12 5.12 0 0 1 3.337-2.114h.055c7.162-.96 12.113-1.047 19.316 1.14a1.21 1.21 0 0 1-.214 2.388 1.2 1.2 0 0 1-.487-.08c-6.811-2.068-11.32-1.99-18.264-1.062a2.72 2.72 0 0 0-1.745 1.094 2.86 2.86 0 0 0-.346 2.228c.333 1.666 1.246 2.405 2.663 2.132 5.302-.844 8.495-.973 13.497.503a1.2 1.2 0 0 1 .733.601 1.2 1.2 0 0 1 .075.945c-1.897 5.681-.997 13.267 4.407 16.151a1.22 1.22 0 0 1 .606 1.363 1.214 1.214 0 0 1-1.174.921z"/>
    <path fill="#EA4C99" d="m176.097 113.035.084.194q.076.181.216.535c.093.235.213.507.346.84.134.332.282.71.462 1.126l.535 1.384c.185.498.388 1.034.6 1.61.462 1.149.877 2.437 1.384 3.844a211 211 0 0 1 5.884 20.826 201 201 0 0 1 2.275 11.333c.346 1.813.577 3.59.83 5.265.125.84.245 1.661.361 2.45s.184 1.56.272 2.307c.166 1.477.323 2.829.461 4.029.139 1.2.189 2.261.259 3.124l.217 2.727-32.256 2.164s-.064-.816-.18-2.252c-.06-.715-.12-1.582-.212-2.584-.092-1.001-.245-2.122-.388-3.35-.069-.618-.138-1.255-.221-1.919s-.199-1.348-.305-2.049c-.212-1.385-.397-2.894-.697-4.426a166 166 0 0 0-1.919-9.57 178 178 0 0 0-4.989-17.567c-.406-1.159-.77-2.234-1.121-3.152l-.461-1.297a148 148 0 0 1-.415-1.07 43 43 0 0 0-.337-.849c-.097-.236-.18-.462-.25-.605-.069-.143-.115-.295-.147-.364l-.051-.116z"/>
    <path fill="#EA4C99" d="M157.898 178.496q.13.01.263 0a1.727 1.727 0 0 0 1.578-1.846l-.18-2.252a78 78 0 0 1-.069-.839c-.042-.522-.083-1.117-.143-1.763a.1.1 0 0 1 0-.037l-.388-3.355c-.028-.226-.051-.461-.079-.683-.046-.406-.092-.826-.147-1.255a.1.1 0 0 0 0-.037l-.3-2.049c-.065-.406-.12-.807-.18-1.218-.152-1.047-.309-2.132-.526-3.262a180 180 0 0 0-1.938-9.649 181 181 0 0 0-5.039-17.743l-.36-1.029c-.272-.775-.526-1.504-.78-2.164l-.461-1.292V128l-.416-1.071-.152-.388 26.616-11.231q.194.46.416 1.052l.535 1.384.591 1.597c.323.854.65 1.79.996 2.769l.365 1.042a210 210 0 0 1 5.865 20.636 201 201 0 0 1 2.252 11.241v.033c.244 1.301.434 2.607.618 3.867l.199 1.338.355 2.418q.097.765.18 1.509c.027.254.055.512.087.761l.462 4.006c.074.789.129 1.522.185 2.173 0 .323.046.632.069.923l.217 2.718a1.727 1.727 0 0 0 1.852 1.58 1.72 1.72 0 0 0 1.502-1.185c.07-.215.097-.442.079-.667l-.217-2.723c0-.286-.046-.591-.069-.923-.056-.664-.116-1.417-.189-2.238v-.037l-.462-4.028c-.028-.254-.055-.503-.088-.757a70 70 0 0 0-.184-1.564v-.037l-.36-2.446-.194-1.324c-.189-1.292-.383-2.626-.641-4.001a194 194 0 0 0-2.308-11.412 213 213 0 0 0-5.966-20.996c-.129-.364-.249-.71-.365-1.047-.355-1.011-.687-1.966-1.024-2.852l-.595-1.597a.1.1 0 0 0 0-.023l-.536-1.384c-.166-.42-.313-.803-.461-1.154l-.651-1.582a1.726 1.726 0 0 0-2.256-.923l-29.814 12.556a1.715 1.715 0 0 0-1.06 1.6c.002.227.048.452.137.661l.05.115c.028.065.074.176.13.319l.249.613c.092.222.198.494.327.822l.411 1.061.461 1.283c.24.618.462 1.329.748 2.081.12.332.24.678.365 1.029a176 176 0 0 1 4.988 17.415c.715 3.11 1.357 6.299 1.901 9.478v.037c.203 1.052.355 2.104.503 3.12q.09.629.18 1.236l.304 2.026.139 1.186c0 .235.051.461.078.697l.383 3.331c.056.614.097 1.186.139 1.689l.069.859.18 2.247a1.72 1.72 0 0 0 1.574 1.578"/>
    <path fill="#000" d="M174.039 173.069h.079a.75.75 0 0 0 .69-.494.8.8 0 0 0 .048-.295c0-.175-.148-4.457-1.564-12.316-1.302-7.231-3.973-18.961-9.326-33.801a.765.765 0 0 0-1.389-.048.76.76 0 0 0-.051.565c5.316 14.739 7.969 26.386 9.261 33.556 1.385 7.748 1.537 12.049 1.542 12.095a.767.767 0 0 0 .71.738"/>
    <path fill="#000" d="M183.12 159.595a.78.78 0 0 0 .729-.401.764.764 0 0 0-.309-1.034c-3.719-2.007-8.721-3.23-14.863-3.558a59 59 0 0 0-8.112.065.765.765 0 0 0-.693.835.766.766 0 0 0 .836.692c.138 0 13.686-1.227 22.103 3.313a.8.8 0 0 0 .309.088M160.14 153.181a.77.77 0 0 0 .42-.092c.107-.06 10.927-5.907 20.664-4.573q.151.02.299-.018a.77.77 0 0 0 .546-.936.77.77 0 0 0-.355-.467.8.8 0 0 0-.282-.097c-10.254-1.385-21.149 4.494-21.61 4.748a.76.76 0 0 0-.378.837.77.77 0 0 0 .696.598"/>
    <path fill="#fff" d="M55.152 91.827c-7.024-.923-11.8-1.03-18.809 1.098l-.097 24.803c5.736-3.041 7.203-10.941 4.984-17.591 4.993-1.467 8.047-1.25 12.92-.461 1.892.364 3.586-.586 4.08-3.087.544-2.718-1.145-4.416-3.078-4.762"/>
    <path fill="#000" d="M36.247 118.937a1.213 1.213 0 0 1-.568-2.284c5.404-2.866 6.299-10.452 4.402-16.151a1.21 1.21 0 0 1 .808-1.546c5.007-1.477 8.2-1.347 13.46-.508 1.454.277 2.372-.461 2.705-2.127a2.85 2.85 0 0 0-.351-2.229A2.7 2.7 0 0 0 54.963 93c-6.945-.923-11.453-1.006-18.264 1.061a1.209 1.209 0 1 1-.706-2.307c7.203-2.187 12.16-2.1 19.32-1.14h.056a5.13 5.13 0 0 1 3.337 2.113 5.26 5.26 0 0 1 .724 4.066c-.595 2.985-2.769 4.568-5.5 4.037-4.509-.715-7.254-.876-11.181.125.856 3.138.907 6.441.147 9.603-.923 3.719-3.1 6.635-6.082 8.218a1.2 1.2 0 0 1-.567.162"/>
    <path fill="#EA4C99" d="m15.901 113.035-.078.194-.222.535-.341.84c-.139.337-.286.71-.462 1.126l-.535 1.384q-.276.746-.6 1.61c-.434 1.149-.872 2.437-1.384 3.844a211 211 0 0 0-5.888 20.826 201 201 0 0 0-2.275 11.333c-.342 1.813-.573 3.59-.83 5.265-.126.84-.24 1.661-.356 2.45s-.185 1.56-.272 2.307c-.171 1.477-.323 2.829-.462 4.029-.138 1.2-.184 2.261-.258 3.124l-.217 2.727 32.26 2.164s.064-.816.18-2.252c.06-.715.12-1.582.207-2.584.088-1.001.245-2.122.388-3.35.074-.618.139-1.255.221-1.919.084-.665.199-1.348.305-2.049.217-1.385.402-2.894.697-4.426a171 171 0 0 1 1.92-9.57 179 179 0 0 1 4.988-17.567c.41-1.159.77-2.234 1.121-3.152.175-.462.332-.895.461-1.297.13-.401.296-.747.42-1.07.125-.323.236-.614.333-.849.096-.236.184-.462.249-.605.064-.143.12-.295.152-.364l.046-.116z"/>
    <path fill="#EA4C99" d="M34.1 178.496a1.711 1.711 0 0 1-1.757-1.18 1.7 1.7 0 0 1-.08-.666l.18-2.252c.024-.263.047-.539.066-.839.041-.522.087-1.117.147-1.763a.1.1 0 0 1 0-.037l.383-3.355c.028-.226.056-.461.079-.683.046-.406.092-.826.147-1.255v-.037l.305-2.049.18-1.218c.152-1.047.31-2.132.526-3.262.554-3.23 1.204-6.461 1.938-9.649 1.37-6 3.047-11.925 5.025-17.752.13-.36.245-.697.36-1.029.272-.775.526-1.505.78-2.164l.462-1.293v-.023l.415-1.07q.074-.208.152-.388l-26.621-11.231c-.13.313-.263.664-.415 1.052l-.531 1.384-.595 1.597c-.323.853-.65 1.79-.992 2.768l-.37 1.043a210 210 0 0 0-5.86 20.636 200 200 0 0 0-2.257 11.241v.032c-.249 1.302-.438 2.608-.623 3.867-.064.462-.129.896-.198 1.339l-.355 2.418c-.065.512-.12 1.015-.175 1.509-.033.253-.06.512-.088.761l-.462 4.005c-.069.789-.129 1.523-.18 2.174q-.04.486-.073.923l-.217 2.718a1.72 1.72 0 0 1-1.853 1.58 1.72 1.72 0 0 1-1.58-1.853l.216-2.722.074-.923c.051-.665.11-1.417.19-2.238a.1.1 0 0 1 0-.037l.46-4.029q.048-.378.088-.756.089-.769.185-1.565a.1.1 0 0 0 0-.037l.36-2.445c.07-.439.13-.877.194-1.325.189-1.292.383-2.625.646-4a191 191 0 0 1 2.307-11.412 213 213 0 0 1 5.971-20.996c.125-.365.245-.711.365-1.047.355-1.011.687-1.966 1.024-2.852l.59-1.597v-.023l.54-1.384c.162-.42.31-.803.462-1.154l.65-1.583a1.725 1.725 0 0 1 2.257-.923l29.815 12.566a1.7 1.7 0 0 1 .922.923 1.72 1.72 0 0 1 0 1.319l-.05.116c-.028.064-.07.175-.13.318l-.248.614q-.138.331-.324.821l-.415 1.062-.461 1.282a84 84 0 0 0-.748 2.082c-.115.332-.235.678-.36 1.029a176 176 0 0 0-4.933 17.378c-.72 3.11-1.356 6.299-1.9 9.478v.037c-.204 1.052-.356 2.104-.504 3.119q-.09.629-.18 1.237l-.3 2.026c-.05.406-.097.798-.138 1.186-.028.235-.051.461-.079.696l-.383 3.332c-.055.614-.101 1.186-.138 1.689-.028.309-.046.595-.07.858l-.18 2.248a1.72 1.72 0 0 1-1.638 1.633"/>
    <path fill="#000" d="M17.964 173.069h-.078a.75.75 0 0 1-.535-.24.77.77 0 0 1-.208-.549c0-.175.152-4.457 1.564-12.316 1.302-7.231 3.978-18.961 9.326-33.801a.76.76 0 0 1 .687-.546.78.78 0 0 1 .57.205.77.77 0 0 1 .183.858c-5.311 14.739-7.97 26.386-9.257 33.557-1.384 7.747-1.54 12.048-1.54 12.094a.774.774 0 0 1-.712.738"/>
    <path fill="#000" d="M8.878 159.595a.764.764 0 0 1-.781-.986.75.75 0 0 1 .38-.449c3.718-2.007 8.716-3.23 14.858-3.558a59 59 0 0 1 8.112.065.76.76 0 0 1 .662.537.77.77 0 0 1-.507.959.8.8 0 0 1-.298.031c-.134 0-13.687-1.227-22.104 3.313a.8.8 0 0 1-.322.088M31.863 153.181a.77.77 0 0 1-.42-.092c-.111-.06-10.928-5.907-20.669-4.573a.768.768 0 0 1-.714-1.223.76.76 0 0 1 .507-.295c10.253-1.385 21.153 4.494 21.61 4.748a.764.764 0 0 1 .132 1.25.77.77 0 0 1-.446.185"/>
    <path fill="#fff" d="M100.014 101.092H88.916L87.07 49.396h14.776zM101.454 120.104l-13.327.886 1.181-13.326 10.96.595z"/>
    <path fill="#000" d="M34.1 76.7a.4.4 0 0 1-.106 0 .737.737 0 0 1-.627-.835 63.26 63.26 0 0 1 58.678-54.202.737.737 0 0 1 .6 1.227.74.74 0 0 1-.508.25A61.77 61.77 0 0 0 34.83 76.068a.74.74 0 0 1-.73.632"/>
  </g>
  <defs>
    <clipPath id="alert-errora">
      <path fill="#fff" d="M0 0h192v192H0z"/>
    </clipPath>
  </defs>
</svg>
