<svg xmlns="http://www.w3.org/2000/svg" fill="none" viewBox="0 0 192 192">
  <g clip-path="url(#a)">
    <path fill="#fff" d="M0 0h192v192H0z"/>
    <g clip-path="url(#b)">
      <path fill="#fff" d="M24.37 48h144v144h-144z"/>
      <path fill="#2563EB" d="M26.665 106.409h5.727v-5.73a1.122 1.122 0 1 1 2.244 0v5.73h5.73a1.13 1.13 0 0 1 .794.329 1.121 1.121 0 0 1-.794 1.915h-5.73v5.727a1.12 1.12 0 0 1-1.122 1.122 1.12 1.12 0 0 1-1.122-1.122v-5.727h-5.727a1.12 1.12 0 0 1-1.122-1.122 1.12 1.12 0 0 1 1.122-1.122M79.413 49.332l-.957 12.359a.724.724 0 0 1-1.442-.114l.957-12.355a.723.723 0 1 1 1.442.11M90.4 66.854a.72.72 0 0 1-.189-1.005l7.011-10.225a.723.723 0 0 1 1.191.819l-7.007 10.225a.723.723 0 0 1-1.005.186M99.515 76.137l11.182-5.349a.722.722 0 1 1 .623 1.305l-11.182 5.348a.724.724 0 0 1-.623-1.304M46.161 190.528l4.733-3.322a.73.73 0 0 1 .83 0l4.319 3.029 4.315-3.029a.73.73 0 0 1 .83 0l4.316 3.029 4.316-3.029a.74.74 0 0 1 .833 0l4.315 3.029 4.316-3.029a.73.73 0 0 1 .83 0l4.316 3.029 4.319-3.029a.73.73 0 0 1 .83 0l4.728 3.322a.7.7 0 0 1 .3.465.71.71 0 0 1-.12.54.72.72 0 0 1-1.01.175l-4.315-3.025-4.316 3.025a.72.72 0 0 1-.83 0l-4.315-3.025-4.32 3.025a.72.72 0 0 1-.829 0l-4.316-3.025-4.316 3.025a.72.72 0 0 1-.833 0l-4.315-3.025-4.316 3.025a.72.72 0 0 1-.83 0l-4.316-3.025-4.316 3.025a.715.715 0 0 1-1.026-.16.723.723 0 0 1 .193-1.02"/>
      <path fill="#000" d="M130.938 81.59s-1.112 1.577-2.805 1.66c-1.016.048-1.959-.448-2.798-1.467-1.033-1.27-1.701-1.514-2.065-1.497-.541.024-1.033.689-1.449 1.305 0 0-1.112 1.576-2.805 1.659-1.016.048-1.959-.448-2.798-1.467-.627-.76-1.257-1.142-1.866-1.132-.943.02-1.662.95-1.676.97a.72.72 0 0 1-1.012.149.723.723 0 0 1-.148-1.012c.045-.062 1.136-1.508 2.791-1.549 1.081-.028 2.1.53 3.026 1.655.526.64 1.06.957 1.59.94.788-.02 1.507-.764 1.721-1.032.475-.689 1.27-1.873 2.574-1.931 1.032-.052 2.096.612 3.259 2.02.523.64 1.057.957 1.587.94.788-.021 1.507-.764 1.703-1.033.475-.688 1.271-1.872 2.575-1.93 1.032-.052 2.099.612 3.259 2.02.523.64 1.06.956 1.587.94.788-.022 1.507-.765 1.703-1.033.475-.689 1.27-1.873 2.578-1.931 1.033-.052 2.096.612 3.256 2.02a.725.725 0 0 1 .033.876.723.723 0 0 1-1.148.043c-1.033-1.27-1.704-1.514-2.065-1.497-.54.024-1.033.688-1.449 1.304 0 0-1.108 1.577-2.802 1.66-1.032.047-1.961-.445-2.801-1.467-1.032-1.27-1.7-1.514-2.065-1.497-.582.03-1.074.699-1.49 1.315M105.51 180.44H69.679a5.667 5.667 0 0 1-5.661-5.662v-35.831a5.67 5.67 0 0 1 5.661-5.662h8.394a9.61 9.61 0 0 1 19.047 0h8.39a5.67 5.67 0 0 1 4.002 1.66 5.67 5.67 0 0 1 1.66 4.002v8.36a9.612 9.612 0 0 1 0 19.115v8.356a5.67 5.67 0 0 1-5.662 5.662m-35.831-44.742a3.26 3.26 0 0 0-3.252 3.252v35.828a3.257 3.257 0 0 0 3.252 3.252h35.831a3.257 3.257 0 0 0 3.253-3.252V164.05h1.376a7.203 7.203 0 1 0 0-14.407l-1.376.031v-10.727a3.255 3.255 0 0 0-3.253-3.253h-10.7v-1.191a7.203 7.203 0 0 0-14.403 0v1.191z"/>
      <path fill="#2563EB" d="m88.784 80.824-.165.065-3.349-8.9a4.45 4.45 0 0 0-5.74-2.602L45.994 82.004a4.474 4.474 0 0 0-2.602 5.74l12.62 33.537a4.455 4.455 0 0 0 5.738 2.602l8.903-3.349a8.405 8.405 0 0 1 15.732-5.92l8.904-3.352a4.476 4.476 0 0 0 2.602-5.737l-3.352-8.904.168-.058a8.408 8.408 0 1 0-5.923-15.74"/>
      <path fill="#000" d="M60.185 125.373a5.69 5.69 0 0 1-5.3-3.669L42.267 88.168a5.66 5.66 0 0 1 3.304-7.293l33.536-12.614a5.65 5.65 0 0 1 7.293 3.304l2.942 7.823a9.4 9.4 0 0 1 2.41-.31 9.665 9.665 0 0 1 8.996 6.23 9.615 9.615 0 0 1-4.67 11.974l2.942 7.819a5.66 5.66 0 0 1-3.303 7.293l-10.012 3.769-.437-1.105a7.2 7.2 0 0 0-9.254-4.152 7.2 7.2 0 0 0-4.224 9.222l.403 1.118-10.012 3.765a5.6 5.6 0 0 1-1.996.362M81.1 70.306c-.392.001-.78.072-1.146.21l-33.536 12.62a3.253 3.253 0 0 0-1.897 4.189L57.14 120.86a3.27 3.27 0 0 0 3.046 2.106c.39.001.777-.071 1.142-.21l7.861-2.956a9.637 9.637 0 0 1 9.382-11.723 9.55 9.55 0 0 1 8.442 5.015l7.858-2.957a3.255 3.255 0 0 0 1.9-4.188l-3.786-10.053 1.3-.462a7.203 7.203 0 0 0 4.21-9.292 7.194 7.194 0 0 0-9.293-4.206l-1.283.513-3.786-10.05a3.28 3.28 0 0 0-3.032-2.096zM150.048 135.585h-10.701v-1.187a7.199 7.199 0 0 0-12.291-5.091 7.2 7.2 0 0 0-2.109 5.091l-.017 1.187h-10.714a5.67 5.67 0 0 1-5.661-5.661v-10.735l1.342.021a7.2 7.2 0 0 0 5.195-2.053 7.2 7.2 0 0 0 0-10.298 7.21 7.21 0 0 0-5.195-2.053h-1.342V94.092a5.67 5.67 0 0 1 5.661-5.661h35.832a5.67 5.67 0 0 1 5.658 5.661v35.832a5.671 5.671 0 0 1-5.658 5.661m-8.402-2.409h8.402a3.255 3.255 0 0 0 3.249-3.252V94.092a3.257 3.257 0 0 0-3.249-3.252h-35.832a3.26 3.26 0 0 0-3.252 3.252v8.364a9.612 9.612 0 0 1 0 19.104v8.364a3.256 3.256 0 0 0 3.252 3.252h8.398a9.62 9.62 0 0 1 3.21-5.918 9.615 9.615 0 0 1 12.612 0 9.6 9.6 0 0 1 3.21 5.918"/>
      <path fill="#2563EB" d="M150.298 134.3h-9.513a8.408 8.408 0 0 0-16.812 0h-9.506a4.464 4.464 0 0 0-4.118 2.749 4.5 4.5 0 0 0-.339 1.705v9.513h.137a8.408 8.408 0 0 1 0 16.816h-.137v9.509a4.476 4.476 0 0 0 4.457 4.474h35.831a4.448 4.448 0 0 0 4.454-4.474v-35.838a4.455 4.455 0 0 0-4.454-4.454"/>
      <path fill="#000" d="M150.298 180.247h-35.832a5.666 5.666 0 0 1-5.661-5.662v-10.714h1.318a7.2 7.2 0 0 0 2.757-.544 7.19 7.19 0 0 0 3.905-3.891 7.209 7.209 0 0 0-1.548-7.853 7.2 7.2 0 0 0-2.334-1.566 7.2 7.2 0 0 0-2.756-.553l-1.342.038v-10.748a5.667 5.667 0 0 1 5.661-5.658h8.391a9.61 9.61 0 0 1 19.046 0h8.395a5.666 5.666 0 0 1 5.658 5.658v35.831a5.67 5.67 0 0 1-5.658 5.662m-39.084-14.022v8.36a3.257 3.257 0 0 0 3.252 3.253h35.832a3.26 3.26 0 0 0 3.249-3.253v-35.831a3.256 3.256 0 0 0-3.249-3.249h-10.704v-1.194a7.204 7.204 0 0 0-14.404 0v1.194h-10.724a3.25 3.25 0 0 0-3.252 3.249v8.363a9.614 9.614 0 0 1 0 19.108"/>
      <path fill="#fff" d="m46.744 111.762-3.969 14.486 5.703 1.566 3.982-14.487a2.962 2.962 0 0 0-4.29-3.238 2.96 2.96 0 0 0-1.416 1.673z"/>
      <path fill="#000" d="M53.446 112.831a4 4 0 0 1-.124.733l-3.979 14.489a.907.907 0 0 1-1.655.201.9.9 0 0 1-.09-.683l3.982-14.486a1.79 1.79 0 0 0-.213-1.414 2.13 2.13 0 0 0-1.27-.94 1.977 1.977 0 0 0-2.478 1.27l-3.982 14.483a.91.91 0 0 1-.759.657.906.906 0 0 1-.983-1.136l3.98-14.482a3.784 3.784 0 0 1 4.697-2.533c.971.26 1.806.881 2.334 1.738.39.629.578 1.363.54 2.103"/>
      <path fill="#fff" d="M38.798 138.816a.84.84 0 0 1-.581-.534 1.64 1.64 0 0 1-.059-1.032l.107-.424q.052-.21.13-.509c.052-.2.121-.43.193-.688a36.014 36.014 0 0 1 4.481-9.768 40 40 0 0 1 2.066-2.86 38 38 0 0 1 2.378-2.698 42 42 0 0 1 5.19-4.529 47 47 0 0 1 4.873-3.115 51 51 0 0 1 3.576-1.828c.437-.203.781-.344 1.033-.457l.36-.159a1 1 0 0 1 .183-.065l.231-.096a4.17 4.17 0 0 1 2.99-.148 2.85 2.85 0 0 1 1.832 1.779c.14.424.182.875.12 1.318l.093-.031a3.7 3.7 0 0 1 2.812.145 2.9 2.9 0 0 1 1.58 1.927c.15.639.103 1.309-.135 1.92a3.6 3.6 0 0 1-1.111 1.535c.383.375.663.842.812 1.356.198.658.198 1.36 0 2.017a3.2 3.2 0 0 1-1.032 1.559c.345.364.607.798.767 1.274.27.779.279 1.625.024 2.409a2.5 2.5 0 0 1-1.339 1.559s-.292.127-.722.324a31.104 31.104 0 0 0-3.005 1.596l-.468.286-.172.114a.6.6 0 0 1-.124.062l-.151.096-.407.275c-.344.241-.84.592-1.376 1.033a21 21 0 0 0-1.752 1.562 19 19 0 0 0-1.68 1.928q-.742.982-1.332 2.065a16 16 0 0 0-1.352 3.376c-.055.176-.083.324-.11.42l-.038.148c-.083.344-.565.554-1.088.451z"/>
      <path fill="#000" d="M72.836 126.243c-.023.403-.099.802-.227 1.184a3.47 3.47 0 0 1-1.869 2.138c-.017 0-.296.127-.688.316-.293.135-.87.41-1.49.737-.465.248-.981.54-1.422.805l-.612.382a1.3 1.3 0 0 1-.203.114l-.461.31c-.345.24-.813.571-1.332.987q-.875.705-1.673 1.494-.86.857-1.59 1.824a16 16 0 0 0-1.284 1.938q-.47.88-.83 1.814c-.199.523-.343.98-.447 1.376-.027.086-.044.165-.065.241-.02.076-.024.103-.035.148l-.034.134c-.21.854-1.177 1.377-2.21 1.164l-17.769-3.593a1.78 1.78 0 0 1-1.284-1.105 2.64 2.64 0 0 1-.1-1.632l.238-.936q.058-.225.138-.492l.062-.22q.631-2.205 1.535-4.313a37 37 0 0 1 3.066-5.72 37.579 37.579 0 0 1 4.564-5.685 42.4 42.4 0 0 1 5.307-4.636 48 48 0 0 1 4.976-3.218 51 51 0 0 1 3.649-1.866l1.032-.468.344-.155q.119-.051.241-.089l.183-.079a5.18 5.18 0 0 1 3.686-.165 3.82 3.82 0 0 1 2.426 2.385q.073.226.12.457a4.55 4.55 0 0 1 2.41.434 3.9 3.9 0 0 1 2.089 2.564 4.23 4.23 0 0 1-.169 2.488 4.6 4.6 0 0 1-.726 1.267c.194.316.346.656.451 1.012.25.837.25 1.73 0 2.567a4.3 4.3 0 0 1-.688 1.349q.257.42.42.885c.211.596.303 1.227.271 1.858m-7.344 3.924.155-.1.46-.285a32 32 0 0 1 3.112-1.652c.424-.197.716-.321.747-.345a1.578 1.578 0 0 0 .805-.984q.113-.335.131-.688a2.9 2.9 0 0 0-.155-1.112 2.4 2.4 0 0 0-.55-.912l-.73-.754.816-.664c.336-.278.585-.647.716-1.063a2.57 2.57 0 0 0 0-1.46 2.16 2.16 0 0 0-.558-.936l-.781-.757.846-.688c.367-.296.647-.685.813-1.126.167-.429.202-.899.1-1.349a1.94 1.94 0 0 0-1.067-1.291c-.65-.3-1.39-.336-2.065-.099l-1.577.537.22-1.556c.047-.3.022-.606-.072-.895a1.9 1.9 0 0 0-1.232-1.177 3.26 3.26 0 0 0-2.299.124l-.279.12-.055.018-.076.024-.344.154q-.351.151-1.001.451a51 51 0 0 0-3.507 1.797 45 45 0 0 0-4.777 3.097 40.6 40.6 0 0 0-5.067 4.423 37 37 0 0 0-2.32 2.633 30 30 0 0 0-2.02 2.788 35 35 0 0 0-4.36 9.506l-.062.22q-.072.243-.127.444l-.231.922a.74.74 0 0 0 0 .399l17.656 3.569h.028q.029-.13.089-.344c.09-.306.251-.877.495-1.517a16.8 16.8 0 0 1 2.344-4.227q.811-1.077 1.766-2.03a23.5 23.5 0 0 1 3.273-2.709l.688-.454z"/>
      <path fill="#000" d="M70.417 113.003a.71.71 0 0 1-.51.651l-.46.141c-.266.082-.69.213-1.181.385a42 42 0 0 0-3.528 1.377c-1.15.513-2.371 1.084-3.41 1.641a51 51 0 0 0-1.102.606l-.42.241a.73.73 0 0 1-.558.087.72.72 0 0 1-.384-1.157.7.7 0 0 1 .223-.183l.42-.241c.295-.172.688-.395 1.139-.629a49 49 0 0 1 3.524-1.694c1.167-.502 2.505-1.032 3.63-1.4.514-.176.94-.31 1.22-.396l.464-.145a.727.727 0 0 1 .905.482.7.7 0 0 1 .028.234M71.889 118.166a.715.715 0 0 1-.51.647l-.437.134c-.251.083-.599.193-1.005.344-.974.344-2.106.768-3.097 1.205s-2.086.953-2.995 1.438c-.395.214-.73.396-.96.527l-.368.213a.73.73 0 0 1-.565.098.724.724 0 0 1-.522-.914.72.72 0 0 1 .371-.436l.365-.21c.24-.142.585-.345.995-.551a42 42 0 0 1 3.097-1.494 45 45 0 0 1 3.211-1.242c.42-.145.775-.258 1.033-.344l.447-.138a.733.733 0 0 1 .77.227.7.7 0 0 1 .135.248q.036.121.035.248M71.5 123.349a.72.72 0 0 1-.479.637s-.413.148-1.012.378c-.688.275-1.497.613-2.178.929-.682.317-1.456.709-2.096 1.06-.551.303-.912.52-.916.52a.73.73 0 0 1-.815-.025.722.722 0 0 1 .072-1.214s.389-.231.967-.547c.664-.368 1.46-.768 2.178-1.105a33 33 0 0 1 2.265-.964 37 37 0 0 1 1.053-.392.72.72 0 0 1 .96.723"/>
      <path fill="#2563EB" d="m36.237 132.734-.062.141-.165.4-.255.63c-.103.247-.213.526-.344.836s-.255.654-.4 1.032c-.144.379-.285.771-.447 1.202-.323.857-.65 1.817-1.032 2.87a158 158 0 0 0-4.412 15.529 150 150 0 0 0-1.694 8.453c-.258 1.352-.43 2.677-.623 3.93q-.135.939-.265 1.824c-.075.592-.137 1.167-.203 1.721-.127 1.101-.24 2.113-.344 3.004-.103.892-.137 1.687-.193 2.334-.103 1.291-.161 3.655-.161 3.655h24.06l.135-1.676c.044-.537.09-1.184.158-1.927.069-.744.179-1.587.286-2.503.055-.457.103-.936.165-1.431.062-.496.151-1.002.227-1.528.162-1.033.3-2.158.52-3.298.392-2.288.874-4.722 1.431-7.141a134 134 0 0 1 3.721-13.102c.306-.864.578-1.666.836-2.351.131-.344.248-.668.362-.964s.216-.557.31-.802c.092-.244.175-.458.25-.63s.135-.344.183-.454.09-.22.114-.272a1 1 0 0 0 .034-.086z"/>
      <path fill="#2563EB" d="M49.794 181.555a1.267 1.267 0 0 1-.674-.136 1.27 1.27 0 0 1-.637-.745 1.3 1.3 0 0 1-.06-.496l.135-1.676c.017-.2.034-.406.048-.63.031-.389.065-.833.11-1.311a.1.1 0 0 1 0-.031l.286-2.502c.02-.169.041-.344.058-.51l.11-.932v-.031l.228-1.525c.048-.303.09-.606.134-.912.114-.781.23-1.59.392-2.43.413-2.409.902-4.839 1.446-7.2a133 133 0 0 1 3.758-13.233l.269-.768c.2-.574.392-1.122.578-1.614l.344-.96v-.021l.31-.798c.041-.103.075-.196.113-.286l-19.817-8.387c-.1.237-.2.495-.313.785l-.396 1.032-.444 1.191c-.237.633-.482 1.332-.74 2.065-.09.251-.179.513-.272.778a155 155 0 0 0-4.374 15.387 149 149 0 0 0-1.683 8.381v.024c-.186.974-.327 1.945-.465 2.884-.048.344-.096.688-.148.998l-.265 1.804q-.071.577-.13 1.125-.036.29-.066.568l-.344 2.987c-.052.589-.096 1.136-.134 1.621 0 .245-.038.472-.055.689l-.162 3.651a1.284 1.284 0 1 1-2.56-.203l.161-3.658c.017-.214.038-.437.055-.689.038-.495.083-1.056.141-1.669a.1.1 0 0 1 0-.027l.344-3.005q.035-.282.066-.564l.137-1.167v-.024l.266-1.824c.051-.344.1-.658.147-.991.138-.961.286-1.959.479-2.981.488-2.857 1.063-5.72 1.72-8.515a159 159 0 0 1 4.45-15.659c.097-.272.183-.527.273-.778.265-.757.512-1.47.764-2.127l.44-1.194v-.018l.403-1.032c.12-.317.23-.599.344-.864l.485-1.18a1.286 1.286 0 0 1 1.683-.689l22.22 9.393a1.28 1.28 0 0 1 .789 1.194c0 .169-.035.336-.1.492l-.039.086-.096.238-.186.454c-.069.168-.144.368-.24.612l-.307.792-.344.957c-.176.461-.362.991-.558 1.552q-.129.375-.268.771a131 131 0 0 0-5.097 20.031v.027a46 46 0 0 0-.372 2.323q-.067.468-.138.926l-.224 1.507-.103.888-.058.517-.286 2.485a72 72 0 0 0-.103 1.263q-.028.34-.052.64l-.134 1.673a1.283 1.283 0 0 1-1.242 1.201"/>
      <path fill="#000" d="M37.757 177.508H37.7a.58.58 0 0 1-.399-.178.56.56 0 0 1-.155-.408c0-.134.11-3.328 1.166-9.189.971-5.393 2.967-14.142 6.956-25.21a.572.572 0 1 1 1.074.389c-3.962 10.992-5.944 19.676-6.904 25.024-1.033 5.779-1.15 8.99-1.15 9.021a.573.573 0 0 1-.53.551"/>
      <path fill="#000" d="M30.982 167.458a.57.57 0 0 1-.582-.412.57.57 0 0 1 .272-.658c2.774-1.498 6.505-2.389 11.082-2.654a43 43 0 0 1 6.054.052.55.55 0 0 1 .386.202.56.56 0 0 1 .127.417.577.577 0 0 1-.623.516c-.1 0-10.205-.915-16.482 2.472a.6.6 0 0 1-.234.065M48.124 162.674a.56.56 0 0 1-.314-.069c-.079-.044-8.15-4.405-15.415-3.41a.575.575 0 0 1-.63-.492.57.57 0 0 1 .479-.641c7.644-1.032 15.773 3.356 16.117 3.542a.57.57 0 0 1 .282.624.572.572 0 0 1-.52.446"/>
      <path fill="#2563EB" d="m168.222 137.673-2.334-2.333 2.337-2.334a.464.464 0 1 0-.657-.657l-2.334 2.337-2.333-2.334a.48.48 0 0 0-.327-.135.47.47 0 0 0-.427.285.466.466 0 0 0 .1.504l2.333 2.334-2.336 2.333a.463.463 0 0 0 .328.794.47.47 0 0 0 .329-.136l2.333-2.337 2.334 2.337a.47.47 0 0 0 .52.124.46.46 0 0 0 .248-.631.5.5 0 0 0-.114-.151"/>
      <g clip-path="url(#c)">
        <path fill="#fff" d="m72.14 95.196-3.58-.668-1.879-5.062 1.266-.47 1.644 4.43 3.172.579a5 5 0 0 0-.623 1.191m.343 4.52c-.288.154-.574.289-.886.405a7.2 7.2 0 0 1-9.256-4.244 7.2 7.2 0 0 1 4.244-9.256 7.2 7.2 0 0 1 9.256 4.244c.116.312.2.617.27.937a5.2 5.2 0 0 1 1.821-.062 9 9 0 0 0-.404-1.501c-1.722-4.64-6.929-7.028-11.57-5.305-4.64 1.723-7.027 6.93-5.304 11.57s6.904 7.037 11.57 5.304c.498-.184.96-.414 1.4-.673a5.2 5.2 0 0 1-1.14-1.42m2.61-5.693.94 2.531-2.531.94.626 1.687 2.532-.94.94 2.532 1.687-.627-.94-2.531 2.531-.94-.626-1.687-2.531.94-.94-2.532z"/>
      </g>
      <path fill="#fff" d="M142.477 147.139h-16.2v5.4h16.2zm-1.8 3.6h-12.6v-1.8h12.6zm-1.8 2.7a6.27 6.27 0 0 0-3.231.9h-3.519a.446.446 0 0 0-.45.45v1.35h2.034a6.25 6.25 0 0 0-1.134 3.6c0 .63.099 1.233.261 1.8h-3.861v-8.1h-1.8v9.9h6.534a6.297 6.297 0 0 0 11.466-3.6c0-3.483-2.817-6.3-6.3-6.3m0 10.8a4.5 4.5 0 0 1-4.5-4.5c0-2.484 2.016-4.5 4.5-4.5s4.5 2.016 4.5 4.5-2.016 4.5-4.5 4.5m.45-4.275 2.574 1.521-.675 1.098-3.249-1.944v-4.5h1.35z"/>
      <path fill="#2563EB" d="M93.391 153.231h-1.8a.87.87 0 0 1-.642-.259.87.87 0 0 1-.258-.641.87.87 0 0 1 .26-.641.87.87 0 0 1 .64-.259h1.8v-1.8a.87.87 0 0 1 .26-.641.87.87 0 0 1 .64-.259q.382 0 .642.26a.87.87 0 0 1 .258.64v1.8h1.8q.383 0 .642.26a.87.87 0 0 1 .258.64.87.87 0 0 1-.26.642.87.87 0 0 1-.64.258h-1.8v1.8a.87.87 0 0 1-.26.642.87.87 0 0 1-.64.258.87.87 0 0 1-.642-.259.87.87 0 0 1-.258-.641zm-5.4 9.9q1.215 0 2.262-.483a5.2 5.2 0 0 0 1.788-1.339q-2.835-.18-4.792-2.239-1.958-2.06-1.958-4.939a7 7 0 0 1 .09-1.125 5.4 5.4 0 0 0-2.025 1.947 5.2 5.2 0 0 0-.765 2.778q0 2.25 1.575 3.825t3.825 1.575m6.615-2.542a7.07 7.07 0 0 1-2.644 3.162 7.05 7.05 0 0 1-3.971 1.18q-3.015 0-5.108-2.092-2.091-2.093-2.092-5.108 0-2.587 1.653-4.567t4.197-2.498a.86.86 0 0 1 .483.045q.213.09.327.293.112.202.135.483.022.28-.09.597a5.4 5.4 0 0 0-.405 2.047q0 2.25 1.575 3.825t3.825 1.575q.248 0 .472-.011.225-.012.45-.056.405-.068.665.022a.95.95 0 0 1 .415.27q.16.18.191.395a.72.72 0 0 1-.078.438M138.67 104.769a7.199 7.199 0 0 1 5.091 12.291 7.2 7.2 0 1 1-5.091-12.291m0 1.8a5.398 5.398 0 0 0-3.818 9.218 5.399 5.399 0 1 0 3.818-9.218m-.9 1.8h1.35v3.402l2.097 2.097-.954.954-2.493-2.493zm-10.8 9a.9.9 0 0 1 0-1.8h3.447a9.2 9.2 0 0 0 1.053 1.8zm.9-4.5a.9.9 0 0 1 0-1.8h1.845l-.045.9.045.9zm.9-4.5a.9.9 0 0 1 0-1.8h2.7a9.2 9.2 0 0 0-1.053 1.8z"/>
    </g>
    <path fill="#2563EB" d="m187.593 11.155-10.17 5.444a.64.64 0 0 1-.34.077.674.674 0 0 1-.613-.966.68.68 0 0 1 .318-.315l10.171-5.444a.674.674 0 0 1 .641 1.185zM179.35 28.541a.675.675 0 0 1 .695-.64l11.529.378a.67.67 0 0 1 .64.691.68.68 0 0 1-.695.64l-11.529-.377a.67.67 0 0 1-.64-.692M176.646 40.34l9.796 6.084a.674.674 0 0 1-.377 1.245.67.67 0 0 1-.321-.102l-9.796-6.084a.68.68 0 0 1-.313-.419.66.66 0 0 1 .081-.516.67.67 0 0 1 .94-.209zM170.356 14.361A28.23 28.23 0 0 0 151.858.664a28.23 28.23 0 0 0-30.465 13.339 28.22 28.22 0 0 0-2.481 22.883 28.2 28.2 0 0 0 5.868 10.2l-7.321 14.86 15.663-8.51a28.226 28.226 0 0 0 37.234-39.068z"/>
    <path fill="#000" d="M117.457 62.705a.74.74 0 0 0 .362-.093l15.321-8.327a28.97 28.97 0 0 0 26.826-.832.76.76 0 0 0 .396-.458q.047-.151.031-.308a.77.77 0 0 0-.576-.66.76.76 0 0 0-.597.1 27.46 27.46 0 0 1-25.76.64.76.76 0 0 0-.702 0l-13.562 7.366 6.264-12.714a.76.76 0 0 0-.115-.845 27.494 27.494 0 0 1-6.574-23.48c.096-.5.204-.999.32-1.486a.762.762 0 0 0-1.48-.365q-.189.776-.339 1.566a29 29 0 0 0 3.202 19.596 29.4 29.4 0 0 0 3.379 4.803l-7.1 14.411a.762.762 0 0 0 .157.884.75.75 0 0 0 .547.202"/>
    <path fill="#fff" d="M143.628 45.565h-.029a2.4 2.4 0 0 1-1.957-1.054l-11.071-16.303a2.41 2.41 0 0 1-.02-2.669 2.4 2.4 0 0 1 1.521-1.033 2.4 2.4 0 0 1 2.473 1.002l9.131 13.45 17.043-23.896a2.403 2.403 0 1 1 3.91 2.79l-19.045 26.704a2.4 2.4 0 0 1-1.956 1.009"/>
  </g>
  <defs>
    <clipPath id="a">
      <path fill="#fff" d="M0 0h192v192H0z"/>
    </clipPath>
    <clipPath id="b">
      <path fill="#fff" d="M24.37 48h144v144h-144z"/>
    </clipPath>
    <clipPath id="c">
      <path fill="#fff" d="m55.385 87.087 20.25-7.518 7.517 20.25-20.25 7.517z"/>
    </clipPath>
  </defs>
</svg>
