<svg xmlns="http://www.w3.org/2000/svg" width="192" height="192" fill="none" viewBox="0 0 192 192">
  <path fill="#fff" d="M0 0h192v192H0z"/>
  <path fill="#000" d="M42.239 74.318H16.703a1.884 1.884 0 0 1-1.415-3.258 1.88 1.88 0 0 1 1.415-.504h25.536a1.886 1.886 0 1 1 0 3.762M42.239 85.287H16.703a1.886 1.886 0 1 1 0-3.762h25.536a1.89 1.89 0 0 1 2.012 1.88 1.886 1.886 0 0 1-2.012 1.882M42.239 96.264H16.703a1.884 1.884 0 0 1-1.415-3.258 1.88 1.88 0 0 1 1.415-.504h25.536a1.886 1.886 0 1 1 0 3.762"/>
  <path fill="#000" d="M124.777 134.217H11.663A11.683 11.683 0 0 1 0 122.554V46.288a11.68 11.68 0 0 1 11.663-11.663h113.114a11.67 11.67 0 0 1 11.663 11.663v76.266a11.67 11.67 0 0 1-11.663 11.663M11.663 38.13a8.14 8.14 0 0 0-8.132 8.132v76.266a8.14 8.14 0 0 0 8.132 8.133h113.114a8.15 8.15 0 0 0 8.141-8.133V46.262a8.147 8.147 0 0 0-8.141-8.132z"/>
  <path fill="#000" d="M127.272 55.697H8.648a.703.703 0 0 0 0 1.406h118.624a.704.704 0 0 0 0-1.406M23.326 47.368a4.627 4.627 0 1 1-4.628-4.627 4.62 4.62 0 0 1 4.628 4.627M35.606 47.368a4.627 4.627 0 1 1-4.619-4.627 4.62 4.62 0 0 1 4.62 4.627M47.903 47.368a4.628 4.628 0 1 1-9.255 0 4.628 4.628 0 0 1 9.255 0M19.947 141.789h-7.712a1.07 1.07 0 0 0-.812.274 1.06 1.06 0 0 0-.256 1.213 1.07 1.07 0 0 0 1.068.63h7.712a1.07 1.07 0 0 0 1.068-.63 1.063 1.063 0 0 0-1.068-1.487M30.701 141.789h-4.164a1.07 1.07 0 0 0-.812.274 1.06 1.06 0 0 0-.256 1.213 1.07 1.07 0 0 0 .633.578c.14.047.288.065.435.052H30.7a1.064 1.064 0 0 0 0-2.117M38.329 141.789h-1.886a1.064 1.064 0 0 0 0 2.117h1.86a1.064 1.064 0 0 0 0-2.117zM44.207 141.789h-.977a1.064 1.064 0 0 0 0 2.117h.977a1.07 1.07 0 0 0 1.068-.63 1.063 1.063 0 0 0-1.068-1.487M49.297 141.789h-.48a1.07 1.07 0 0 0-.812.274 1.06 1.06 0 0 0 .378 1.791q.212.071.434.052h.48a1.07 1.07 0 0 0 1.068-.63 1.063 1.063 0 0 0-1.068-1.487M101.617 23.97s1.628 2.313 4.105 2.433a5 5 0 0 0 4.105-2.15c1.525-1.86 2.493-2.22 3.033-2.194.797 0 1.517 1.01 2.125 1.91 0 0 1.629 2.314 4.105 2.434a5 5 0 0 0 4.105-2.15c.917-1.115 1.834-1.672 2.733-1.655a3.7 3.7 0 0 1 2.451 1.414 1.064 1.064 0 0 0 1.491.223 1.06 1.06 0 0 0 .4-1.115 1.1 1.1 0 0 0-.177-.376 5.82 5.82 0 0 0-4.088-2.262c-1.585 0-3.076.771-4.43 2.425a3.09 3.09 0 0 1-2.33 1.38 3.83 3.83 0 0 1-2.494-1.509c-.694-1.037-1.86-2.742-3.779-2.836-1.509-.069-3.068.9-4.765 2.965a3.07 3.07 0 0 1-2.331 1.38 3.85 3.85 0 0 1-2.493-1.509c-.695-1.037-1.86-2.742-3.77-2.836-1.517-.069-3.077.9-4.774 2.965a3.08 3.08 0 0 1-2.33 1.38 3.85 3.85 0 0 1-2.495-1.509c-.694-1.037-1.859-2.742-3.77-2.836-1.517-.069-3.076.9-4.773 2.965a1.054 1.054 0 0 0 .466 1.663 1.06 1.06 0 0 0 1.171-.318c1.525-1.86 2.493-2.22 3.033-2.193.797 0 1.517 1.01 2.126 1.91 0 0 1.627 2.314 4.104 2.434a5 5 0 0 0 4.105-2.15c1.525-1.86 2.493-2.22 3.033-2.194.78.042 1.5 1.01 2.108 1.91"/>
  <path fill="#2563EB" d="M150.847 42.94a1 1 0 0 0-1.106.132q-.151.13-.242.307l-7.849 15.36a1.006 1.006 0 0 0 .605 1.42 1 1 0 0 0 1.19-.504l7.842-15.36a1.01 1.01 0 0 0-.44-1.355M181.064 89.54a1.02 1.02 0 0 0-1.06-.96l-17.227.894a1.008 1.008 0 0 0-.245 1.968q.17.045.346.043l17.234-.893a1 1 0 0 0 .952-1.053M172.198 62.192a1.01 1.01 0 0 0-1.391-.303l-14.474 9.37a1.003 1.003 0 0 0 .252 1.802 1.01 1.01 0 0 0 .844-.115l14.473-9.37a1 1 0 0 0 .296-1.384"/>
  <path fill="#fff" d="M177.748 146.929a1.14 1.14 0 0 0 .721-.858 2.4 2.4 0 0 0-.13-1.441l-.238-.555-.288-.678a26 26 0 0 0-.411-.901 50 50 0 0 0-2.933-5.471 51 51 0 0 0-5.277-7.035 50 50 0 0 0-3.452-3.503 57 57 0 0 0-3.835-3.214 58 58 0 0 0-8.08-5.147 66 66 0 0 0-7.374-3.316 66 66 0 0 0-5.305-1.766 55 55 0 0 0-1.492-.418l-.534-.144-.266-.05-.339-.087a5.85 5.85 0 0 0-4.145.426 3.97 3.97 0 0 0-2.162 2.832 4 4 0 0 0 .13 1.86h-.137a5.12 5.12 0 0 0-3.835.793 4.05 4.05 0 0 0-1.773 2.977c-.07.911.136 1.823.591 2.616a5.05 5.05 0 0 0 1.845 1.882 4.36 4.36 0 0 0-.836 2.032 4.9 4.9 0 0 0 .44 2.775 4.5 4.5 0 0 0 1.744 1.932 4.7 4.7 0 0 0-.793 1.903 5.2 5.2 0 0 0 .469 3.337 3.47 3.47 0 0 0 2.162 1.86l1.06.295c.627.181 1.441.44 2.277.721s1.608.598 2.163.836l.721.303.266.115q.089.046.188.058l.223.101.62.296c.526.259 1.276.641 2.126 1.131q1.417.818 2.739 1.781a27 27 0 0 1 2.718 2.306 24.4 24.4 0 0 1 2.263 2.559 23 23 0 0 1 1.615 2.472c.425.757.721 1.442.951 1.889.108.23.18.432.238.555l1.788 4.051c.187.461 2.371-1.081 3.07-1.334z"/>
  <path fill="#000" d="M154.502 160.466a1.52 1.52 0 0 1-1.557-.887c-.289-.663-1.658-3.755-1.781-4.043a2 2 0 0 1-.086-.202c-.044-.101-.08-.202-.137-.31a23 23 0 0 0-.901-1.795 23 23 0 0 0-1.521-2.321 23 23 0 0 0-2.163-2.414 24.5 24.5 0 0 0-2.573-2.163 29 29 0 0 0-2.609-1.701 37 37 0 0 0-2.04-1.081l-.721-.332a2 2 0 0 1-.295-.108l-.253-.115-.72-.296a50 50 0 0 0-2.105-.8c-.923-.324-1.781-.584-2.213-.721l-.8-.223-.231-.065a4.83 4.83 0 0 1-3.013-2.544 6.54 6.54 0 0 1-.598-4.188c.077-.448.205-.886.382-1.305a6 6 0 0 1-1.218-1.715 6.17 6.17 0 0 1-.562-3.532c.07-.511.208-1.011.411-1.485a6.5 6.5 0 0 1-1.262-1.586 5.9 5.9 0 0 1-.757-3.395 5.4 5.4 0 0 1 .726-2.242 5.4 5.4 0 0 1 1.61-1.722 6.3 6.3 0 0 1 3.222-1.103c0-.216.036-.433.072-.656a5.3 5.3 0 0 1 .976-2.228 5.3 5.3 0 0 1 1.864-1.563 6.8 6.8 0 0 1 2.573-.721 7.5 7.5 0 0 1 2.53.209l.274.065.331.072.541.144c.346.086.858.231 1.521.425a71 71 0 0 1 5.406 1.802 66 66 0 0 1 7.532 3.388 59.4 59.4 0 0 1 8.268 5.262 62 62 0 0 1 3.936 3.294c1.254 1.132 2.357 2.285 3.539 3.604a52 52 0 0 1 5.413 7.208 50 50 0 0 1 3.013 5.615l.137.288q.16.348.288.642l.526 1.254c.302.71.373 1.497.202 2.249a2.5 2.5 0 0 1-1.441 1.759l-20.529 10.812h-.086c-.137.05-.584.302-.88.475a6.6 6.6 0 0 1-2.241.995m-1.139-6.595c.086.18.151.338.201.454q.025.06.044.122l1.312 2.97.555-.317q.581-.355 1.203-.634l20.457-10.755c.028-.188.003-.38-.073-.555l-.518-1.232c-.072-.173-.166-.368-.26-.577l-.137-.296a48.6 48.6 0 0 0-7.986-12.159 47 47 0 0 0-3.359-3.41 51 51 0 0 0-3.748-3.143 56 56 0 0 0-7.893-5.045 64 64 0 0 0-7.208-3.251 70 70 0 0 0-5.204-1.737l-1.442-.404-.533-.144h-.173l-.418-.108a5 5 0 0 0-1.637-.137 4.2 4.2 0 0 0-1.549.447 2.566 2.566 0 0 0-1.363 3.128l.635 2.098-2.293-.418a3.9 3.9 0 0 0-1.081-.044 3.55 3.55 0 0 0-1.751.613 2.71 2.71 0 0 0-1.197 2.004 3.14 3.14 0 0 0 .418 1.838c.32.572.788 1.048 1.355 1.377l1.305.764-.915 1.204a3 3 0 0 0-.57 1.441 3.54 3.54 0 0 0 .317 2.011c.259.565.68 1.04 1.211 1.362l1.262.721-.851 1.19a3.4 3.4 0 0 0-.562 1.369 3.9 3.9 0 0 0 .339 2.473 2.26 2.26 0 0 0 1.297 1.182c.202.043.519.137 1.11.302.462.137 1.377.411 2.357.721.721.252 1.557.57 2.263.858l.938.411h.093l.642.295.396.188c.57.281 1.326.67 2.206 1.175a32 32 0 0 1 2.883 1.859 28 28 0 0 1 2.883 2.429 25 25 0 0 1 2.393 2.711 25 25 0 0 1 1.622 2.703c.49.8.836 1.542 1.016 1.946z"/>
  <path fill="#2563EB" d="m114.367 68.096 35.666 8.253v51.393c0 5.766-1.723 8.369-6.992 12.556-7.77 6.17-28.674 22.302-28.674 22.302s-20.903-16.132-28.673-22.302c-5.27-4.187-7-6.818-7-12.556V76.349z"/>
  <path fill="#000" d="M114.368 164.503a1.87 1.87 0 0 1-1.16-.397c-.21-.158-21.005-16.211-28.696-22.345-5.334-4.238-7.712-7.273-7.712-14.048V76.32a1.9 1.9 0 0 1 1.441-1.853l35.666-8.253c.282-.065.575-.065.858 0l35.672 8.253a1.9 1.9 0 0 1 1.442 1.853v51.393c0 6.775-2.379 9.81-7.713 14.048-7.691 6.106-28.486 22.158-28.695 22.345a1.87 1.87 0 0 1-1.103.397m-33.77-86.64v49.879c0 4.887 1.233 7.064 6.279 11.064 6.617 5.262 22.986 17.912 27.491 21.393 4.505-3.481 20.903-16.131 27.491-21.393 5.046-4 6.279-6.177 6.279-11.064v-49.88l-33.77-7.813z"/>
  <path fill="#fff" d="M158.604 125.925c-7.439-1.564-12.369-1.038-19.548.577a3.942 3.942 0 0 0-2.754 5.197c.721 2.537 2.581 3.366 4.498 2.818 4.981-1.254 8.116-1.751 13.414-.721-1.686 7.079.548 15.137 6.761 17.732z"/>
  <path fill="#000" d="M161.083 152.811a1.16 1.16 0 0 1-.598-.094 13 13 0 0 1-4.368-3.212 12.96 12.96 0 0 1-2.674-4.717 20 20 0 0 1-.721-9.939c-4.145-.678-6.97-.267-11.598.893-2.782.786-5.146-.656-6.033-3.676a5.46 5.46 0 0 1 .382-4.274 5.34 5.34 0 0 1 3.258-2.487h.051c7.316-1.65 12.433-2.162 20.081-.584a1.254 1.254 0 0 1 .432 2.279 1.25 1.25 0 0 1-.944.179c-7.208-1.513-11.893-1.023-18.986.57a2.8 2.8 0 0 0-1.701 1.29 2.95 2.95 0 0 0-.158 2.335c.497 1.694 1.513 2.372 2.948 1.961h.043c5.363-1.348 8.65-1.773 13.962-.721a1.28 1.28 0 0 1 .815.555 1.25 1.25 0 0 1 .158.973 17.75 17.75 0 0 0 .389 9.825 10.5 10.5 0 0 0 2.127 3.848 10.5 10.5 0 0 0 3.517 2.639 1.252 1.252 0 0 1 .369 2.078 1.26 1.26 0 0 1-.751.33z"/>
  <path fill="#2563EB" d="m156.311 177.008 33.561.152v-1.211c0-.26 0-.548-.036-.865-.036-.318 0-.721-.05-1.074s-.058-.786-.101-1.219c0-.216-.037-.439-.058-.67s-.051-.454-.072-.721c-.065-.468-.116-.973-.195-1.441a63 63 0 0 0-1.297-6.538 78 78 0 0 0-2.055-6.804 104 104 0 0 0-4.879-11.533c-.721-1.521-1.442-2.775-1.896-3.669-.252-.461-.454-.815-.584-1.06s-.223-.396-.223-.396l-29.15 16.636.116.209.353.634c.31.57.764 1.442 1.283 2.487a71 71 0 0 1 3.294 7.785c.49 1.391.894 2.746 1.196 3.95a29 29 0 0 1 .62 3.063c0 .209.044.389.073.57s0 .18 0 .259v.224c0 .144-.001.281.035.403.037.123 0 .224 0 .317v.548z"/>
  <path fill="#2563EB" d="M189.872 178.947a1.79 1.79 0 0 1-1.788-1.787v-1.175l-.079-1.874c0-.31-.05-.642-.087-.995l-.072-.836c0-.13.001-.274-.043-.418l-.072-.606c-.043-.346-.086-.72-.137-1.037a62 62 0 0 0-1.261-6.365 83 83 0 0 0-2.011-6.646 102 102 0 0 0-4.793-11.367c-.721-1.485-1.37-2.681-1.788-3.467l-26.057 14.87c.267.497.591 1.124.951 1.852a74 74 0 0 1 3.381 7.994c.476 1.37.908 2.782 1.24 4.094q.411 1.605.648 3.244.04.197.051.396v.498l.05.605v1.024a1.801 1.801 0 0 1-3.604 0v-.447a.1.1 0 0 1 0-.043v-.887a1 1 0 0 1 0-.122c0-.087 0-.173-.036-.26-.036-.086 0-.166 0-.259a26 26 0 0 0-.576-2.884c-.303-1.203-.721-2.515-1.146-3.784a69 69 0 0 0-3.215-7.59 59 59 0 0 0-1.254-2.422l-.454-.822a1.77 1.77 0 0 1 .143-1.974c.144-.185.323-.339.527-.455l29.178-16.629a1.8 1.8 0 0 1 1.362-.173 1.83 1.83 0 0 1 1.081.844l.217.389.583 1.06c.44.814 1.132 2.112 1.939 3.741a109 109 0 0 1 4.967 11.77 85 85 0 0 1 2.097 6.956 64 64 0 0 1 1.334 6.725c.057.382.101.721.144 1.125l.072.605c0 .173.043.339.058.512l.079.865c0 .382.058.721.087 1.074l.086 1.953v1.334a1.786 1.786 0 0 1-1.788 1.787z"/>
  <path fill="#000" d="M181.46 172.107a.79.79 0 0 0 .815-.274.794.794 0 0 0-.123-1.117c-3.417-2.746-8.296-4.909-14.502-6.422a62 62 0 0 0-8.29-1.442.795.795 0 0 0-.144 1.586c.144 0 14.207 1.326 21.941 7.539a.9.9 0 0 0 .303.13M159.202 161.208a.8.8 0 0 0 .447 0c.122 0 12.253-3.971 21.955-.771a.797.797 0 0 0 .498-1.514c-10.2-3.359-22.439.613-22.951.779a.8.8 0 0 0-.538.783.8.8 0 0 0 .589.745z"/>
  <path fill="#fff" d="m133.662 97.076-6.984-6.984-12.216 12.216-12.216-12.216-6.984 6.984 12.216 12.216-12.216 12.216 6.984 6.984 12.216-12.216 12.216 12.216 6.984-6.984-12.216-12.216z"/>
</svg>
