<svg xmlns="http://www.w3.org/2000/svg" fill="none" viewBox="0 0 260 260">
  <g clip-path="url(#a)">
    <path fill="#fff" d="M0 0h260v260H0z"/>
    <mask id="b" width="222" height="222" x="19" y="38" maskUnits="userSpaceOnUse" style="mask-type:alpha">
      <circle cx="130" cy="149" r="111" fill="#D9D9D9"/>
    </mask>
    <g mask="url(#b)">
      <path fill="#fff" d="M-41.049-18.41H355.64v289.328H-41.049z"/>
      <path fill="#1D4ED8" d="m83.598 288.205 24.991-78.395a39.45 39.45 0 0 1 33.098-24.918l35.755-3.32 35.286 8.513a36.08 36.08 0 0 1 23.632 18.567l3.755 37.023s-156.517 42.249-156.517 42.53"/>
      <path fill="#000" d="M94.56 246.518a1 1 0 0 1-.306-.051.84.84 0 0 1-.473-.452.85.85 0 0 1-.013-.655l14.029-35.865a40.1 40.1 0 0 1 13.273-17.546 40.1 40.1 0 0 1 20.532-7.9l35.755-3.32a.7.7 0 0 1 .273 0l35.295 8.513a36.91 36.91 0 0 1 24.185 19.01.9.9 0 0 1 .085.298l3.764 37.023a.87.87 0 0 1-.186.626.86.86 0 0 1-.905.28.87.87 0 0 1-.507-.416.9.9 0 0 1-.097-.32l-3.746-36.861a35.22 35.22 0 0 0-22.985-17.988l-35.15-8.513-35.653 3.311a38.392 38.392 0 0 0-32.349 24.373l-14.03 35.866a.86.86 0 0 1-.791.587"/>
      <path fill="#fff" d="m196.281 186.417 5.108-18.644-31.03-8.573-6.59 23.837c-3.064 0-6.086.17-9.083.391 1.311 16.533 10.386 29.464 22.262 30.281 11.552.792 22.057-10.139 25.896-25.65-2.17-.604-4.375-1.14-6.563-1.642"/>
      <path fill="#000" d="M178.123 214.603h-1.235c-11.995-.851-21.691-13.885-23.053-31.064a.85.85 0 0 1 .204-.621.86.86 0 0 1 .579-.29c2.826-.213 5.687-.349 8.513-.392l6.411-23.223a.85.85 0 0 1 1.047-.587l31.039 8.572a.85.85 0 0 1 .586 1.047l-4.911 17.784c2.145.494 4.044.971 5.78 1.456a.85.85 0 0 1 .596 1.021c-3.899 15.673-14.293 26.297-25.556 26.297m-22.517-30.383c1.541 15.902 10.454 27.889 21.402 28.638 10.709.741 20.814-9.177 24.798-24.203a145 145 0 0 0-5.754-1.413.9.9 0 0 1-.311-.141.86.86 0 0 1-.343-.574.85.85 0 0 1 .024-.34l4.919-17.818-29.394-8.122-6.36 22.985a.85.85 0 0 1-.852.631c-2.656.059-5.397.17-8.129.357"/>
      <path fill="#000" d="m195.429 189.413 5.959-21.64-19.708-5.449-8.342 5.662c2.613 9.645 10.326 17.434 22.091 21.427"/>
      <path fill="#000" d="M196.52 169.679a32.97 32.97 0 0 0 32.971-32.971v-1.753a32.97 32.97 0 1 0-65.942 0v1.753a32.97 32.97 0 0 0 32.971 32.971"/>
      <path fill="#000" d="M160.936 132.189c0 15.196 12.318 27.514 27.514 27.514s27.513-12.318 27.513-27.514v-5.627c0-15.196-12.318-27.514-27.513-27.514s-27.514 12.318-27.514 27.514z"/>
      <path fill="#000" d="M158.475 123.463a.7.7 0 0 1-.178 0 .85.85 0 0 1-.655-1.004c1.796-8.462 5.882-14.796 12.156-18.823 6.572-4.257 15.544-5.635 24.015-3.763a.87.87 0 0 1 .668 1.035.87.87 0 0 1-1.034.668c-8.036-1.788-16.532-.468-22.73 3.524-5.874 3.78-9.713 9.748-11.407 17.741a.855.855 0 0 1-.835.622"/>
      <path fill="#fff" d="m223.022 140.08-3.891.077v-.196a27.785 27.785 0 0 0-27.786-27.795h-1.567a27.79 27.79 0 0 0-24.228 14.174l-1.788-.536a6.87 6.87 0 1 0-3.907 13.169l2.136.63v10.991a27.796 27.796 0 0 0 27.796 27.795h1.566a27.8 27.8 0 0 0 27.591-24.501l4.341-.085a6.87 6.87 0 0 0 6.536-6.989 6.865 6.865 0 0 0-6.791-6.742z"/>
      <path fill="#000" d="M191.344 179.249h-1.566a28.68 28.68 0 0 1-20.247-8.4 28.68 28.68 0 0 1-8.4-20.247v-10.36l-1.523-.451a7.72 7.72 0 1 1 4.401-14.796l1.14.341a28.72 28.72 0 0 1 24.629-14.021h1.566a28.67 28.67 0 0 1 28.63 27.974l3.03-.06a7.75 7.75 0 0 1 5.499 2.162 7.714 7.714 0 0 1-5.209 13.272l-3.61.068a28.634 28.634 0 0 1-28.34 24.518m-29.548-52.875a6.1 6.1 0 0 0-2.853.724 6.017 6.017 0 0 0 1.15 11.067l2.145.638a.85.85 0 0 1 .604.852v10.939a26.98 26.98 0 0 0 26.944 26.944h1.567a26.93 26.93 0 0 0 26.747-23.752.856.856 0 0 1 .852-.749l4.342-.085a6.02 6.02 0 0 0 3.939-10.275 6.02 6.02 0 0 0-4.161-1.754l-3.89.077a.84.84 0 0 1-.613-.247.856.856 0 0 1-.256-.605v-.195a26.968 26.968 0 0 0-26.935-26.944h-1.566a26.995 26.995 0 0 0-23.479 13.74.84.84 0 0 1-.424.373.84.84 0 0 1-.563.027l-1.789-.536a6.3 6.3 0 0 0-1.761-.239"/>
      <path fill="#000" d="M220.543 139.859c-4.921-3.32-8.513-14.915-8.513-28.714v-.043c4.878 3.363 8.513 14.958 8.513 28.757M162.612 135.772h-.144a.85.85 0 0 1-.699-.979 5.02 5.02 0 0 0-2.213-5.014.834.834 0 0 1-.389-.527.86.86 0 0 1 .099-.648.853.853 0 0 1 1.167-.289 6.736 6.736 0 0 1 3.013 6.759.848.848 0 0 1-.834.698M220.117 149.904h-.085a.855.855 0 0 1-.758-.937 6.723 6.723 0 0 1 4.708-5.703.852.852 0 1 1 .459 1.643 5.02 5.02 0 0 0-3.473 4.256.853.853 0 0 1-.851.741M199.15 133.985c-.408 1.064 1.652 2.852 4.606 3.992s5.687 1.192 6.095.128c.409-1.064-1.651-2.852-4.605-3.993-2.954-1.14-5.687-1.191-6.096-.127M177.919 132.452c.077 1.141 2.708 1.89 5.866 1.703 3.159-.187 5.653-1.32 5.576-2.46-.077-1.141-2.707-1.89-5.865-1.703s-5.653 1.32-5.577 2.46M190.655 151.64a.85.85 0 0 1-.894-.809.85.85 0 0 1 .809-.893 2.85 2.85 0 0 0 2.026-1.167 2.9 2.9 0 0 0 .502-2.29l-1.515-7.329a.86.86 0 0 1 .126-.653.88.88 0 0 1 .551-.373.86.86 0 0 1 .652.126.87.87 0 0 1 .374.551l1.514 7.338a4.601 4.601 0 0 1-.79 3.637 4.58 4.58 0 0 1-3.227 1.854zM186.279 164.913a5.2 5.2 0 0 1-2.478-.622c-3.192-1.702-4.256-6.257-4.316-6.453a.85.85 0 1 1 1.66-.383s.954 4.019 3.457 5.338a4.02 4.02 0 0 0 3.508 0 .854.854 0 1 1 .621 1.592 6.9 6.9 0 0 1-2.452.528M181.333 106.326a53.3 53.3 0 0 0-14.106 6.989 15.2 15.2 0 0 0 .68 3.039c1.601 4.75 5.338 8.309 10.216 10.31a60.6 60.6 0 0 0 9.27-2.35c12.94-4.342 22.083-11.918 20.432-16.864-1.652-4.947-13.552-5.466-26.492-1.124"/>
      <path fill="#000" d="M221.488 121.471c3.499 4.767 4.426 10.037 3.345 14.361a14.8 14.8 0 0 1-3.073.502c-5.006.298-9.705-1.838-13.374-5.593 1.319-3.218-.596-9.594-5.057-14.37-9.313-9.977 7.645-9.194 18.159 5.1M182.976 140.762c-.085 1.932.851 3.541 2.068 3.601 1.218.059 2.299-1.473 2.384-3.406.085-1.932-.851-3.541-2.077-3.601-1.226-.059-2.29 1.473-2.375 3.406M201.048 145.103c-.085 1.941.852 3.55 2.069 3.601s2.298-1.473 2.384-3.405c.085-1.933-.852-3.542-2.078-3.593s-2.29 1.464-2.375 3.397M202.795 106.054h-.052a.85.85 0 0 1-.799-.911c.246-3.874-4.479-6.13-4.53-6.155a.85.85 0 0 1-.45-.48.85.85 0 0 1 .027-.66.853.853 0 0 1 1.147-.401c.238.11 5.823 2.767 5.508 7.807a.85.85 0 0 1-.851.8"/>
      <path fill="#000" d="M203.16 103.831h-.136a.84.84 0 0 1-.557-.342.85.85 0 0 1-.15-.636 3.88 3.88 0 0 1 3.542-3.457.852.852 0 0 1 0 1.703 2.16 2.16 0 0 0-1.924 2.035.85.85 0 0 1-.775.697M185.656 127.966a.85.85 0 0 1-.627-.186.856.856 0 0 1 .449-1.517c7.661-1.702 13.476-5.405 17.214-10.973a.8.8 0 0 1 .236-.234.848.848 0 0 1 .947.004.85.85 0 0 1 .238 1.184c-4.001 5.959-10.139 9.866-18.269 11.68a.7.7 0 0 1-.188.042M165.541 119.027l-.749 18.525 3.005.8 7.508-21.342zM111.972 265.876a.86.86 0 0 1-.425-.11.855.855 0 0 1-.315-1.158l17.796-31.787a.85.85 0 0 1 1.166-.315.85.85 0 0 1 .316 1.166l-17.797 31.787a.85.85 0 0 1-.741.417M217.691 246.161a.854.854 0 0 1-.851-.852v-13.621a.852.852 0 0 1 1.702 0v13.621a.85.85 0 0 1-.851.852M110.893 262.729c1.882-8.564 3.698-36.83 3.655-52.749l-.417-3.405a23.65 23.65 0 0 0-17.878-20.117l-50.652-12.386a23.66 23.66 0 0 0-23.385 7.364l-30.528 64.699z"/>
      <path fill="#fff" d="m65.18 178.261 12.49 19.776a7.244 7.244 0 0 0 13.058-1.762l14.149-46.422-27.872-8.845z"/>
      <path fill="#000" d="M83.791 202.268a8.01 8.01 0 0 1-6.81-3.78l-12.488-19.801a.86.86 0 0 1-.086-.715l11.816-37.262a.85.85 0 0 1 .425-.494.85.85 0 0 1 .648-.059l27.88 8.845a.85.85 0 0 1 .553 1.064l-14.157 46.498a8.02 8.02 0 0 1-6.674 5.661 8 8 0 0 1-1.107.043m-17.647-24.126 12.275 19.435a6.39 6.39 0 0 0 6.261 2.928 6.39 6.39 0 0 0 5.266-4.477l13.91-45.622-26.262-8.334z"/>
      <path fill="#000" d="m71.718 163.031 6.989-22.023 26.203 8.309-7.483 23.589a31.8 31.8 0 0 1-25.71-9.875"/>
      <path fill="#000" d="m82.904 96.528 7.04.85c16.404 2.01 29.251 14.286 31.166 29.796l2.307 18.729c.851 6.998-4.385 13.348-11.791 14.268l-28.399 3.524z"/>
      <path fill="#000" d="m96.091 97.175-8.189-.57c-19.077-1.346-36.053 8.683-41.169 24.329l-6.172 18.899c-2.315 7.057 2.47 14.736 10.735 17.231l31.702 9.577z"/>
      <path fill="#000" d="M93.274 105.074a.9.9 0 0 1-.297-.05.854.854 0 0 1-.494-1.099l6.546-17.23a7.09 7.09 0 0 0-1.123-6.947.851.851 0 1 1 1.361-1.021 8.84 8.84 0 0 1 1.354 8.572l-6.546 17.231a.85.85 0 0 1-.8.544"/>
      <path fill="#000" d="m92.933 104.462 4.487-17.665c1.396-5.533-2.648-10.982-8.641-11.629l-6.632-.715c-6.615-.715-12.123 4.716-11.067 10.914l3.405 20.32z"/>
      <path fill="#fff" d="M47.406 127.328a8.673 8.673 0 0 1 10.777-5.832l.145.043c3.796-13.187 13.714-22.593 25.352-22.593 12.863 0 23.623 11.518 26.339 26.918a8.668 8.668 0 0 1 8.048 10.613 8.65 8.65 0 0 1-3.857 5.391 8.7 8.7 0 0 1-3.161 1.192l-1.482.247c-3.32 14.276-13.62 24.688-25.887 24.688-13.383 0-24.484-12.438-26.63-28.766l-3.804-1.132a8.667 8.667 0 0 1-5.84-10.769"/>
      <path fill="#000" d="M83.679 168.854c-13.527 0-24.978-12.148-27.396-28.944l-3.285-.97a9.52 9.52 0 0 1-5.653-4.59 9.5 9.5 0 0 1-.75-7.243 9.5 9.5 0 0 1 11.153-6.581c4.17-13.442 14.472-22.415 25.93-22.415 12.958 0 24.016 11.067 27.055 26.978a9.56 9.56 0 0 1 8.283 7.883 9.534 9.534 0 0 1-7.824 10.948l-.936.153c-3.601 14.617-14.429 24.781-26.577 24.781m-27.982-46.872a7.85 7.85 0 0 0-7.475 5.593 7.82 7.82 0 0 0 5.26 9.713l3.815 1.132a.85.85 0 0 1 .596.707c2.137 16.242 12.974 28.025 25.786 28.025 11.467 0 21.767-9.884 25.053-24.032a.857.857 0 0 1 .69-.648l1.489-.247a7.81 7.81 0 0 0 6.493-8.175 7.816 7.816 0 0 0-7.429-7.335.856.856 0 0 1-.8-.698c-2.673-15.196-13.4-26.22-25.54-26.22-10.888 0-20.745 8.836-24.533 21.98a.86.86 0 0 1-.41.511.85.85 0 0 1-.646.068l-.153-.043a7.8 7.8 0 0 0-2.197-.331"/>
      <path fill="#000" d="M71.795 100.937a22.03 22.03 0 0 1 12.234-3.822c13.246 0 24.322 12.506 27.114 29.242.873.04 1.735.215 2.554.52-15.596.783-31.49-9.237-41.902-25.94"/>
      <path fill="#000" d="M103.337 130.077h-.086c-12.556-1.234-24.338-11.186-30.74-25.973a.856.856 0 0 1 .443-1.124.85.85 0 0 1 .653-.011.85.85 0 0 1 .47.454c6.155 14.217 17.4 23.786 29.345 24.96a.855.855 0 0 1 .809.894.856.856 0 0 1-.894.809z"/>
      <path fill="#000" d="M77.15 117.393a.84.84 0 0 1-.698-.366 31.37 31.37 0 0 1-5.389-15.545.854.854 0 1 1 1.703-.144 29.64 29.64 0 0 0 5.108 14.71.852.852 0 0 1-.725 1.345M57.417 133.312h-.145a.853.853 0 0 1-.698-.979 4.51 4.51 0 0 0-1.975-4.478.85.85 0 0 1-.29-1.166.853.853 0 0 1 1.166-.289 6.2 6.2 0 0 1 2.776 6.214.85.85 0 0 1-.834.698M110.99 137.169a.86.86 0 0 1-.852-.741 6.19 6.19 0 0 1 3.142-6.036.858.858 0 0 1 .851 1.49 4.48 4.48 0 0 0-2.273 4.333.85.85 0 0 1-.74.945z"/>
      <path fill="#1D4ED8" d="M92.73 143.102a10.403 10.403 0 1 1 10.403-10.403 10.41 10.41 0 0 1-10.403 10.403m0-19.095a8.705 8.705 0 0 0-8.039 5.373 8.7 8.7 0 1 0 8.04-5.373M70.332 143.102a10.404 10.404 0 1 1 10.402-10.403 10.414 10.414 0 0 1-10.402 10.403m0-19.095a8.702 8.702 0 0 0-8.532 10.401 8.7 8.7 0 0 0 6.84 6.833 8.695 8.695 0 0 0 8.93-3.706 8.7 8.7 0 0 0-7.238-13.528"/>
      <path fill="#1D4ED8" d="M82.564 134.495h-1.95a.85.85 0 0 1-.601-1.453.85.85 0 0 1 .602-.249h1.949a.85.85 0 0 1 .602 1.453.85.85 0 0 1-.602.249"/>
      <path fill="#000" d="M93.094 133.372c-.119 1.754-1.123 3.107-2.238 3.031-1.116-.077-1.924-1.558-1.805-3.312s1.132-3.116 2.247-3.039 1.916 1.566 1.796 3.32M75.183 133.15c0 1.754-.91 3.184-2.026 3.184s-2.026-1.43-2.026-3.184c0-1.753.903-3.183 2.026-3.183 1.124 0 2.026 1.421 2.026 3.183M84.156 157.285a.85.85 0 0 1-.851-.681.85.85 0 0 1 .664-1.005 12.7 12.7 0 0 0 7.56-4.835.86.86 0 0 1 .536-.405.85.85 0 0 1 .908.351.84.84 0 0 1 .126.66.9.9 0 0 1-.14.313 14.14 14.14 0 0 1-8.64 5.585zM80.963 147.061a.8.8 0 0 1-.197 0 4.25 4.25 0 0 1-2.747-2.073 4.25 4.25 0 0 1-.317-3.426l2.18-6.436a.84.84 0 0 1 .429-.492q.152-.076.322-.087a.86.86 0 0 1 .618.208.85.85 0 0 1 .248.916l-2.188 6.444a2.55 2.55 0 0 0 .188 2.052 2.56 2.56 0 0 0 1.65 1.234.857.857 0 1 1-.186 1.702z"/>
      <path fill="#1D4ED8" d="M95.87 98.74a.9.9 0 0 1-.281-.042c-13.34-4.75-22.61-.681-22.704-.647a.852.852 0 1 1-.698-1.55c.4-.178 9.994-4.384 23.972.588a.852.852 0 0 1-.29 1.651"/>
      <path fill="#fff" d="m36.4 178.763-4.598 4.069.263-5.686a9.13 9.13 0 0 1 2.504-5.866c1.353-1.413 2.553-1.558 5.184-.732l13.425 4.733-1.83 2.333a6.08 6.08 0 0 1-5.492 2.281z"/>
      <path fill="#000" d="M31.801 183.683a.8.8 0 0 1-.365-.085.85.85 0 0 1-.486-.851l.264-5.678a9.95 9.95 0 0 1 2.742-6.419c1.762-1.847 3.48-1.762 6.052-.962l13.45 4.75a.845.845 0 0 1 .383 1.328l-1.83 2.333a6.95 6.95 0 0 1-2.79 2.114 6.95 6.95 0 0 1-3.467.482l-9.075-1.089-4.316 3.822a.85.85 0 0 1-.562.255m5.39-12.769a2.547 2.547 0 0 0-2.001.979 8.2 8.2 0 0 0-2.274 5.32l-.17 3.67 3.09-2.733a.9.9 0 0 1 .31-.178.9.9 0 0 1 .354-.035l9.459 1.132a5.21 5.21 0 0 0 4.716-1.949l1.098-1.405-12.302-4.341a8.1 8.1 0 0 0-2.28-.486z"/>
      <path fill="#fff" d="m30.925 185.318-5.457 4.827.306-6.742a10.85 10.85 0 0 1 2.98-6.972 5.01 5.01 0 0 1 6.155-.851l17.316 9.781-3.406 3.405a6.3 6.3 0 0 1-6.725 1.371z"/>
      <path fill="#000" d="M44.358 191.363a7.2 7.2 0 0 1-2.614-.494l-10.616-4.52-5.057 4.469a.85.85 0 0 1-1.29-.199.85.85 0 0 1-.122-.474l.306-6.751a11.77 11.77 0 0 1 3.21-7.516 5.84 5.84 0 0 1 7.202-1.014l17.307 9.774a.85.85 0 0 1 .178 1.344l-3.405 3.406a7.16 7.16 0 0 1-5.1 1.975m-13.434-6.896a.8.8 0 0 1 .34.068l11.128 4.759a5.46 5.46 0 0 0 5.796-1.192l2.63-2.554-16.335-9.219a4.152 4.152 0 0 0-5.108.715 10.04 10.04 0 0 0-2.742 6.427l-.212 4.734 3.95-3.5a.85.85 0 0 1 .553-.238"/>
      <path fill="#fff" d="m23.74 191.677-5.457 4.827.306-6.742a10.85 10.85 0 0 1 2.98-6.972 5 5 0 0 1 6.146-.852l15.792 8.999-3.405 3.362a6.3 6.3 0 0 1-6.726 1.371z"/>
      <path fill="#000" d="M18.283 197.356a.8.8 0 0 1-.366-.086.85.85 0 0 1-.486-.8l.306-6.751a11.78 11.78 0 0 1 3.21-7.517 5.856 5.856 0 0 1 7.202-1.021l15.75 8.998a.86.86 0 0 1 .416.63.85.85 0 0 1-.246.715l-3.406 3.362a7.178 7.178 0 0 1-7.662 1.558l-9.125-3.779-5.108 4.478a.86.86 0 0 1-.486.213m5.456-6.53a.9.9 0 0 1 .332.06l9.611 3.975a5.47 5.47 0 0 0 5.807-1.183l2.63-2.554-14.813-8.436a4.134 4.134 0 0 0-5.108.715 10.03 10.03 0 0 0-2.74 6.418l-.214 4.742 3.95-3.499a.85.85 0 0 1 .546-.238"/>
      <path fill="#fff" d="m16.912 197.713-5.457 4.835.306-6.75a10.87 10.87 0 0 1 2.98-6.964 5.01 5.01 0 0 1 6.155-.851l13.57 7.925-3.406 3.363a6.3 6.3 0 0 1-3.159 1.682 6.3 6.3 0 0 1-3.566-.311z"/>
      <path fill="#000" d="M11.455 203.375a.8.8 0 0 1-.366-.086.85.85 0 0 1-.486-.851l.307-6.742a11.7 11.7 0 0 1 3.218-7.517 5.816 5.816 0 0 1 7.194-1.021l13.57 7.916a.85.85 0 0 1 .377 1.017.85.85 0 0 1-.207.329l-3.405 3.405a7.17 7.17 0 0 1-7.662 1.549l-6.896-2.707-5.108 4.487a.85.85 0 0 1-.536.221m6.912-15.273a4.16 4.16 0 0 0-3.013 1.294 10 10 0 0 0-2.741 6.419l-.213 4.734 3.95-3.5a.85.85 0 0 1 .851-.153l7.39 2.903a5.45 5.45 0 0 0 5.814-1.183l2.64-2.554-12.608-7.355a4.14 4.14 0 0 0-2.078-.579z"/>
      <path fill="#fff" d="M33.497 246.791a.85.85 0 0 1-.341-.068.853.853 0 0 1-.443-1.115l7.177-16.609a.85.85 0 0 1 .801-.58q.178 0 .343.07a.9.9 0 0 1 .286.201.86.86 0 0 1 .225.646.85.85 0 0 1-.097.335L34.28 246.28a.86.86 0 0 1-.783.511"/>
      <circle cx="130" cy="149" r="109.5" stroke="#000" stroke-width="3"/>
    </g>
    <path fill="#1D4ED8" d="m254.034 15.106-13.773 7.372a.87.87 0 0 1-.46.104.912.912 0 0 1-.399-1.734l13.773-7.372a.912.912 0 0 1 .867 1.604zM242.872 38.65a.913.913 0 0 1 .941-.868l15.612.512a.904.904 0 0 1 .867.937.916.916 0 0 1-.941.867l-15.612-.512a.906.906 0 0 1-.867-.936M239.211 54.626l13.265 8.24a.91.91 0 0 1 .397 1.04.915.915 0 0 1-.908.646.9.9 0 0 1-.434-.139l-13.266-8.24a.911.911 0 1 1 .959-1.547zM230.691 19.448A38.22 38.22 0 0 0 189.706.782a38.23 38.23 0 0 0-25.319 18.18 38.212 38.212 0 0 0 4.586 44.8l-9.913 20.123 21.21-11.523a38.223 38.223 0 0 0 50.421-52.906z"/>
    <path fill="#000" d="M159.059 84.913c.171 0 .34-.043.49-.126l20.746-11.275a39.23 39.23 0 0 0 36.327-1.128 1.03 1.03 0 0 0 .578-1.037 1.04 1.04 0 0 0-.402-.714 1.03 1.03 0 0 0-1.186-.044 37.19 37.19 0 0 1-34.883.867 1.03 1.03 0 0 0-.95 0l-18.366 9.974 8.483-17.216a1.02 1.02 0 0 0-.157-1.145 37.23 37.23 0 0 1-8.902-31.796c.13-.676.277-1.352.433-2.012a1.033 1.033 0 0 0-2.003-.494c-.169.698-.326 1.41-.46 2.12a39.28 39.28 0 0 0 4.337 26.536 39.7 39.7 0 0 0 4.575 6.505l-9.615 19.515a1.04 1.04 0 0 0 .213 1.197 1.02 1.02 0 0 0 .742.273"/>
    <path fill="#fff" d="M194.497 61.703h-.039a3.25 3.25 0 0 1-2.65-1.427L176.817 38.2a3.247 3.247 0 0 1 .862-4.519 3.26 3.26 0 0 1 2.438-.504 3.25 3.25 0 0 1 2.081 1.367l12.364 18.214 23.079-32.36a3.251 3.251 0 0 1 5.888 1.336 3.251 3.251 0 0 1-.593 2.441l-25.79 36.163a3.25 3.25 0 0 1-2.649 1.366"/>
  </g>
  <defs>
    <clipPath id="a">
      <path fill="#fff" d="M0 0h260v260H0z"/>
    </clipPath>
  </defs>
</svg>
