<svg xmlns="http://www.w3.org/2000/svg" fill="none" viewBox="0 0 260 260">
  <g clip-path="url(#a)">
    <rect fill="#fff"/>
    <mask id="b" width="202" height="202" x="0" y="0" maskUnits="userSpaceOnUse" style="mask-type:alpha">
      <circle cx="101.333" cy="101.333" r="100.667" fill="#D9D9D9"/>
    </mask>
    <g mask="url(#b)">
      <path fill="#fff" d="M-53.792-50.492h359.76v262.393h-359.76z"/>
      <path fill="#2B68E8" d="m59.252 227.58 22.663-71.097a35.79 35.79 0 0 1 30.018-22.598l32.426-3.011 32.002 7.72a32.73 32.73 0 0 1 21.432 16.839l3.404 33.576S59.252 227.325 59.252 227.58"/>
      <path fill="#000" d="M69.192 189.773a.8.8 0 0 1-.278-.046.77.77 0 0 1-.493-.706.8.8 0 0 1 .053-.298l12.723-32.526a36.36 36.36 0 0 1 30.658-23.077l32.426-3.011a.7.7 0 0 1 .248 0l32.009 7.72a33.48 33.48 0 0 1 21.934 17.24.8.8 0 0 1 .077.271l3.413 33.576a.77.77 0 0 1-.168.567.76.76 0 0 1-.52.282.767.767 0 0 1-.849-.694l-3.397-33.43a31.93 31.93 0 0 0-20.845-16.314l-31.878-7.72-32.334 3.003a34.82 34.82 0 0 0-29.338 22.104L69.91 189.241a.77.77 0 0 1-.718.532"/>
      <path fill="#fff" d="m161.444 135.267 4.632-16.908-28.141-7.775-5.976 21.618c-2.779 0-5.52.154-8.238.355 1.189 14.993 9.42 26.721 20.19 27.462 10.476.718 20.003-9.196 23.485-23.262a132 132 0 0 0-5.952-1.49"/>
      <path fill="#000" d="M144.976 160.83h-1.12c-10.878-.772-19.672-12.592-20.907-28.172a.77.77 0 0 1 .71-.827c2.563-.193 5.158-.316 7.721-.355l5.813-21.061a.771.771 0 0 1 .95-.533l28.149 7.774a.773.773 0 0 1 .533.95l-4.455 16.128c1.946.448 3.668.88 5.243 1.321a.77.77 0 0 1 .456.354.77.77 0 0 1 .084.572c-3.536 14.213-12.963 23.849-23.177 23.849m-20.421-27.555c1.397 14.422 9.481 25.293 19.41 25.972 9.712.672 18.876-8.323 22.49-21.95a133 133 0 0 0-5.219-1.281.758.758 0 0 1-.49-.357.76.76 0 0 1-.082-.6l4.462-16.16-26.658-7.365-5.768 20.845a.77.77 0 0 1-.772.572 161 161 0 0 0-7.373.324"/>
      <path fill="#000" d="m160.672 137.984 5.404-19.626-17.873-4.941-7.566 5.134c2.37 8.748 9.365 15.812 20.035 19.433"/>
      <path fill="#000" d="M161.661 120.088a29.904 29.904 0 0 0 29.901-29.902v-1.59a29.9 29.9 0 0 0-51.045-21.144 29.9 29.9 0 0 0-8.758 21.144v1.59a29.9 29.9 0 0 0 29.902 29.902"/>
      <path fill="#000" d="M129.389 86.087c0 13.781 11.172 24.953 24.953 24.953s24.952-11.172 24.952-24.953v-5.103c0-13.781-11.171-24.953-24.952-24.953s-24.953 11.172-24.953 24.953z"/>
      <path fill="#000" d="M127.157 78.173a.6.6 0 0 1-.162 0 .77.77 0 0 1-.594-.91c1.629-7.675 5.335-13.419 11.025-17.07 5.96-3.861 14.097-5.112 21.779-3.413a.791.791 0 0 1 .263 1.435.8.8 0 0 1-.595.109c-7.288-1.621-14.993-.424-20.614 3.196-5.327 3.428-8.808 8.84-10.345 16.09a.77.77 0 0 1-.757.563"/>
      <path fill="#fff" d="m185.695 93.244-3.529.07v-.178a25.206 25.206 0 0 0-25.199-25.207h-1.421a25.21 25.21 0 0 0-21.972 12.854l-1.622-.486a6.229 6.229 0 0 0-7.34 8.962 6.22 6.22 0 0 0 3.796 2.982l1.938.57v9.968a25.2 25.2 0 0 0 7.384 17.824 25.2 25.2 0 0 0 17.824 7.384h1.42a25.216 25.216 0 0 0 25.023-22.22l3.937-.077a6.234 6.234 0 0 0 5.927-6.34 6.23 6.23 0 0 0-6.159-6.113z"/>
      <path fill="#000" d="M156.967 128.766h-1.421a26.02 26.02 0 0 1-18.362-7.618 26.02 26.02 0 0 1-7.618-18.361v-9.396l-1.382-.41a7 7 0 0 1-4.305-3.344 7 7 0 0 1 2.864-9.626 7 7 0 0 1 5.433-.447l1.034.308a26.04 26.04 0 0 1 22.336-12.716h1.421a26 26 0 0 1 25.964 25.37l2.748-.054a7.03 7.03 0 0 1 4.987 1.961 6.99 6.99 0 0 1 1.664 7.599 6.99 6.99 0 0 1-6.388 4.437l-3.274.062a25.975 25.975 0 0 1-25.701 22.235m-26.798-47.952a5.5 5.5 0 0 0-2.587.656 5.464 5.464 0 0 0-1.606 8.29 5.46 5.46 0 0 0 2.649 1.747l1.945.579a.77.77 0 0 1 .548.772v9.921a24.467 24.467 0 0 0 24.436 24.435h1.42a24.423 24.423 0 0 0 24.258-21.54.775.775 0 0 1 .772-.679l3.938-.077a5.46 5.46 0 0 0 5.177-5.552 5.456 5.456 0 0 0-5.378-5.357l-3.528.069a.777.777 0 0 1-.788-.772v-.178a24.46 24.46 0 0 0-24.427-24.435h-1.421a24.48 24.48 0 0 0-21.293 12.461.77.77 0 0 1-.896.363l-1.622-.487a5.7 5.7 0 0 0-1.597-.216"/>
      <path fill="#000" d="M183.447 93.044c-4.462-3.011-7.72-13.526-7.72-26.041v-.04c4.423 3.05 7.72 13.566 7.72 26.08M130.909 89.338h-.131a.77.77 0 0 1-.633-.888 4.56 4.56 0 0 0-2.007-4.548.77.77 0 0 1-.263-1.065.77.77 0 0 1 1.058-.263 6.11 6.11 0 0 1 2.733 6.13.776.776 0 0 1-.757.634M183.061 102.153h-.077a.76.76 0 0 1-.52-.282.77.77 0 0 1-.167-.567 6.1 6.1 0 0 1 4.269-5.172.776.776 0 0 1 .954.536.77.77 0 0 1-.537.953 4.55 4.55 0 0 0-3.15 3.861.77.77 0 0 1-.772.671M164.046 87.716c-.371.965 1.498 2.587 4.177 3.621 2.679 1.035 5.157 1.08 5.528.116s-1.498-2.587-4.177-3.621c-2.679-1.035-5.158-1.08-5.528-.116M144.792 86.327c.069 1.034 2.455 1.713 5.32 1.544 2.864-.17 5.126-1.197 5.056-2.232-.069-1.034-2.455-1.714-5.319-1.544s-5.127 1.197-5.057 2.231M156.341 103.728a.77.77 0 0 1-.811-.734.776.776 0 0 1 .734-.81 2.578 2.578 0 0 0 1.837-1.058 2.6 2.6 0 0 0 .456-2.077l-1.374-6.647a.78.78 0 0 1 .114-.593.78.78 0 0 1 .807-.34.8.8 0 0 1 .503.333.8.8 0 0 1 .12.283l1.374 6.655a4.172 4.172 0 0 1-2.003 4.449 4.15 4.15 0 0 1-1.641.531zM152.373 115.765a4.7 4.7 0 0 1-2.246-.564c-2.896-1.544-3.861-5.674-3.915-5.852a.776.776 0 0 1 .579-.926.773.773 0 0 1 .927.579s.865 3.644 3.135 4.841a3.65 3.65 0 0 0 3.181 0 .774.774 0 1 1 .563 1.444 6.3 6.3 0 0 1-2.224.478M147.887 62.632a48.3 48.3 0 0 0-12.793 6.338c.111.938.318 1.861.618 2.756 1.451 4.308 4.84 7.536 9.264 9.35a55 55 0 0 0 8.408-2.131c11.735-3.937 20.027-10.809 18.529-15.294s-12.29-4.957-24.026-1.02"/>
      <path fill="#000" d="M184.304 76.367c3.173 4.323 4.014 9.102 3.034 13.024-.911.25-1.845.402-2.787.456-4.54.27-8.802-1.668-12.129-5.072 1.196-2.919-.54-8.702-4.586-13.033-8.446-9.048 6.933-8.338 16.468 4.625M149.377 93.862c-.077 1.753.772 3.212 1.876 3.266s2.085-1.336 2.162-3.088-.772-3.212-1.884-3.266-2.076 1.335-2.154 3.088M165.767 97.799c-.077 1.76.773 3.219 1.877 3.266 1.104.046 2.084-1.336 2.161-3.088s-.772-3.212-1.884-3.258c-1.112-.047-2.077 1.328-2.154 3.08M167.351 62.385h-.047a.774.774 0 0 1-.725-.826c.224-3.513-4.061-5.559-4.108-5.582a.79.79 0 0 1-.408-.436.774.774 0 0 1 .77-1.04.8.8 0 0 1 .294.079c.217.1 5.282 2.51 4.996 7.08a.77.77 0 0 1-.772.725"/>
      <path fill="#000" d="M167.682 60.37h-.123a.774.774 0 0 1-.641-.888 3.51 3.51 0 0 1 3.212-3.134.774.774 0 0 1 .772.772.775.775 0 0 1-.772.772 1.96 1.96 0 0 0-1.745 1.845.77.77 0 0 1-.703.633M151.808 82.258a.77.77 0 0 1-.569-.17.78.78 0 0 1-.115-1.091.78.78 0 0 1 .522-.283c6.948-1.545 12.222-4.903 15.611-9.952a.77.77 0 0 1 1.073-.209.774.774 0 0 1 .217 1.073c-3.629 5.405-9.195 8.949-16.568 10.593a.6.6 0 0 1-.171.039M133.566 74.15l-.68 16.8 2.726.727 6.809-19.356zM84.984 207.329a.77.77 0 0 1-.386-.1.77.77 0 0 1-.286-1.05l16.139-28.828a.775.775 0 0 1 1.344.772l-16.14 28.828a.77.77 0 0 1-.671.378M180.861 189.449a.77.77 0 0 1-.772-.772v-12.353a.774.774 0 0 1 1.318-.546.77.77 0 0 1 .226.546v12.353a.77.77 0 0 1-.772.772M84.005 204.475c1.706-7.766 3.353-33.401 3.315-47.838l-.379-3.089a21.44 21.44 0 0 0-16.213-18.243l-45.937-11.233a21.45 21.45 0 0 0-21.208 6.678l-27.686 58.676z"/>
      <path fill="#fff" d="m42.548 127.871 11.326 17.935a6.6 6.6 0 0 0 2.777 2.447 6.577 6.577 0 0 0 9.066-4.045l12.832-42.101-25.278-8.02z"/>
      <path fill="#000" d="M59.426 149.643a7.27 7.27 0 0 1-6.176-3.428l-11.326-17.958a.77.77 0 0 1-.078-.649l10.716-33.792a.77.77 0 0 1 .386-.448.77.77 0 0 1 .588-.054l25.284 8.021a.77.77 0 0 1 .502.965l-12.84 42.17a7.27 7.27 0 0 1-6.052 5.134 7 7 0 0 1-1.004.039m-16.005-21.88 11.133 17.626a5.8 5.8 0 0 0 8.662 1.326 5.8 5.8 0 0 0 1.792-2.731l12.615-41.375-23.818-7.558z"/>
      <path fill="#000" d="m48.477 114.059 6.338-19.973 23.764 7.535-6.786 21.394a28.83 28.83 0 0 1-23.316-8.956"/>
      <path fill="#000" d="m58.622 53.746 6.385.772C79.884 56.34 91.534 67.473 93.272 81.54l2.092 16.985c.772 6.346-3.977 12.105-10.693 12.939l-25.756 3.196z"/>
      <path fill="#000" d="m70.582 54.332-7.427-.517C45.854 52.595 30.46 61.69 25.82 75.881L20.22 93.02c-2.1 6.4 2.24 13.364 9.736 15.626l28.75 8.686z"/>
      <path fill="#000" d="M68.026 61.498a.8.8 0 0 1-.27-.046.77.77 0 0 1-.447-.996l5.936-15.627a6.43 6.43 0 0 0-1.018-6.3.772.772 0 1 1 1.235-.926 8.02 8.02 0 0 1 1.227 7.774l-5.936 15.627a.77.77 0 0 1-.727.494"/>
      <path fill="#000" d="m67.717 60.941 4.069-16.02c1.266-5.018-2.402-9.96-7.837-10.546l-6.014-.649c-6-.648-10.994 4.277-10.037 9.898l3.088 18.429z"/>
      <path fill="#fff" d="M26.428 81.678a7.866 7.866 0 0 1 9.774-5.288l.131.039c3.444-11.96 12.438-20.49 22.992-20.49 11.666 0 21.424 10.445 23.887 24.412a7.86 7.86 0 0 1 6.037 12.417 7.85 7.85 0 0 1-5.103 3.178l-1.343.224c-3.011 12.947-12.352 22.389-23.478 22.389-12.136 0-22.204-11.279-24.15-26.087l-3.45-1.027a7.86 7.86 0 0 1-5.297-9.767"/>
      <path fill="#000" d="M59.325 119.339c-12.268 0-22.653-11.017-24.846-26.25l-2.98-.88a8.625 8.625 0 0 1-5.805-10.731 8.616 8.616 0 0 1 10.113-5.968c3.783-12.19 13.126-20.328 23.518-20.328 11.75 0 21.778 10.036 24.535 24.466a8.67 8.67 0 0 1 7.512 7.15 8.65 8.65 0 0 1-7.095 9.928l-.85.139c-3.265 13.256-13.085 22.474-24.103 22.474M33.947 76.83a7.13 7.13 0 0 0-6.779 5.072 7.094 7.094 0 0 0 4.771 8.81l3.46 1.026a.77.77 0 0 1 .54.641c1.938 14.731 11.766 25.416 23.386 25.416 10.4 0 19.74-8.963 22.72-21.795a.77.77 0 0 1 .626-.587l1.35-.224a7.088 7.088 0 0 0-.848-14.066.77.77 0 0 1-.726-.633c-2.424-13.782-12.152-23.78-23.162-23.78-9.874 0-18.814 8.014-22.25 19.935a.78.78 0 0 1-.37.463.77.77 0 0 1-.587.062l-.139-.039a7 7 0 0 0-1.992-.3"/>
      <path fill="#000" d="M48.547 57.745a20 20 0 0 1 11.095-3.466c12.013 0 22.058 11.341 24.59 26.52a7.6 7.6 0 0 1 2.316.47c-14.144.711-28.559-8.376-38-23.524"/>
      <path fill="#000" d="M77.152 84.172h-.078c-11.387-1.12-22.072-10.144-27.878-23.555a.775.775 0 0 1 1.42-.618C56.199 72.892 66.398 81.57 77.23 82.636a.773.773 0 1 1-.077 1.544z"/>
      <path fill="#000" d="M53.402 72.67a.77.77 0 0 1-.632-.333 28.45 28.45 0 0 1-4.887-14.097.774.774 0 1 1 1.544-.132 26.9 26.9 0 0 0 4.632 13.341.773.773 0 0 1-.657 1.22M35.507 87.107h-.131a.77.77 0 0 1-.634-.888 4.08 4.08 0 0 0-1.79-4.061.772.772 0 0 1 .212-1.408.77.77 0 0 1 .582.088 5.62 5.62 0 0 1 2.518 5.635.77.77 0 0 1-.757.634M84.092 90.604a.77.77 0 0 1-.772-.672 5.61 5.61 0 0 1 2.849-5.474.779.779 0 0 1 .772 1.351 4.06 4.06 0 0 0-2.061 3.93.77.77 0 0 1-.672.857z"/>
      <path fill="#2B68E8" d="M67.533 95.985a9.435 9.435 0 1 1 9.434-9.435 9.44 9.44 0 0 1-9.434 9.435m0-17.318a7.893 7.893 0 0 0-7.739 9.433 7.892 7.892 0 0 0 15.629-1.55 7.9 7.9 0 0 0-7.89-7.883M47.22 95.985a9.435 9.435 0 1 1 9.434-9.435 9.44 9.44 0 0 1-9.434 9.435m0-17.318a7.89 7.89 0 1 0 7.89 7.883 7.897 7.897 0 0 0-7.89-7.883"/>
      <path fill="#2B68E8" d="M58.314 88.179h-1.769a.772.772 0 0 1 0-1.544h1.768a.772.772 0 0 1 0 1.544"/>
      <path fill="#000" d="M67.863 87.16c-.108 1.59-1.019 2.818-2.03 2.749-1.011-.07-1.745-1.413-1.637-3.004s1.027-2.825 2.038-2.756 1.737 1.42 1.63 3.011M51.62 86.96c0 1.59-.826 2.887-1.838 2.887-1.011 0-1.837-1.297-1.837-2.888s.818-2.887 1.837-2.887 1.838 1.289 1.838 2.887M59.756 108.847a.774.774 0 0 1-.66-1.198.77.77 0 0 1 .49-.331 11.52 11.52 0 0 0 6.856-4.385.77.77 0 0 1 1.31-.049.76.76 0 0 1 .115.599.8.8 0 0 1-.128.283 12.82 12.82 0 0 1-7.836 5.065zM56.861 99.575a.7.7 0 0 1-.178 0 3.86 3.86 0 0 1-2.964-3.404 3.9 3.9 0 0 1 .185-1.584l1.976-5.837a.78.78 0 0 1 .981-.486.773.773 0 0 1 .486.98l-1.984 5.845a2.32 2.32 0 0 0 .17 1.86 2.31 2.31 0 0 0 1.498 1.12.776.776 0 1 1-.17 1.544z"/>
      <path fill="#2B68E8" d="M70.38 55.753a.8.8 0 0 1-.255-.038c-12.098-4.309-20.505-.618-20.59-.588a.774.774 0 0 1-1.064-.365.77.77 0 0 1 .431-1.04c.363-.162 9.063-3.976 21.74.533a.772.772 0 0 1-.262 1.498"/>
      <path fill="#fff" d="m16.446 128.326-4.17 3.691.24-5.158a8.28 8.28 0 0 1 2.27-5.319c1.227-1.282 2.316-1.413 4.701-.664l12.176 4.292-1.66 2.116a5.51 5.51 0 0 1-4.98 2.069z"/>
      <path fill="#000" d="M12.276 132.788a.7.7 0 0 1-.332-.077.77.77 0 0 1-.44-.772l.239-5.15a9.03 9.03 0 0 1 2.486-5.821c1.599-1.675 3.158-1.598 5.49-.872l12.198 4.308a.764.764 0 0 1 .501.874.8.8 0 0 1-.154.33l-1.66 2.116a6.299 6.299 0 0 1-5.675 2.354l-8.23-.988-3.913 3.467a.77.77 0 0 1-.51.231m4.887-11.58a2.3 2.3 0 0 0-1.815.887 7.43 7.43 0 0 0-2.06 4.826l-.155 3.327 2.803-2.478a.77.77 0 0 1 .601-.193l8.578 1.027a4.73 4.73 0 0 0 4.277-1.768l.996-1.274-11.156-3.938a7.4 7.4 0 0 0-2.069-.44z"/>
      <path fill="#fff" d="m11.481 134.271-4.949 4.377.278-6.115a9.85 9.85 0 0 1 2.703-6.323 4.55 4.55 0 0 1 5.582-.772l15.703 8.871-3.088 3.088a5.72 5.72 0 0 1-6.1 1.244z"/>
      <path fill="#000" d="M23.664 139.752a6.5 6.5 0 0 1-2.371-.448l-9.627-4.099-4.587 4.053a.77.77 0 0 1-.841.118.78.78 0 0 1-.44-.728l.278-6.122a10.68 10.68 0 0 1 2.91-6.817 5.29 5.29 0 0 1 6.532-.919l15.696 8.863a.77.77 0 0 1 .162 1.22l-3.088 3.088a6.5 6.5 0 0 1-4.625 1.791m-12.184-6.253a.7.7 0 0 1 .31.061l10.09 4.316a4.95 4.95 0 0 0 5.258-1.081l2.385-2.316-14.815-8.361a3.765 3.765 0 0 0-4.632.648 9.1 9.1 0 0 0-2.487 5.829l-.193 4.293 3.583-3.173a.77.77 0 0 1 .501-.216"/>
      <path fill="#fff" d="m4.965 140.038-4.949 4.378.278-6.115a9.84 9.84 0 0 1 2.702-6.323 4.53 4.53 0 0 1 5.574-.772l14.322 8.161-3.088 3.049a5.71 5.71 0 0 1-6.1 1.243z"/>
      <path fill="#000" d="M.016 145.188a.776.776 0 0 1-.772-.803l.278-6.123a10.68 10.68 0 0 1 2.91-6.817 5.31 5.31 0 0 1 6.532-.926l14.283 8.16a.77.77 0 0 1 .342.922.8.8 0 0 1-.187.298l-3.088 3.05a6.51 6.51 0 0 1-6.949 1.412l-8.276-3.427-4.632 4.061a.78.78 0 0 1-.44.193m4.95-5.922a.8.8 0 0 1 .3.054l8.717 3.606a4.96 4.96 0 0 0 5.265-1.074l2.386-2.316L8.2 131.885a3.753 3.753 0 0 0-4.632.649 9.1 9.1 0 0 0-2.486 5.821l-.193 4.3 3.582-3.173a.77.77 0 0 1 .494-.216"/>
      <path fill="#fff" d="m-1.228 145.512-4.949 4.385.278-6.122a9.86 9.86 0 0 1 2.703-6.316 4.55 4.55 0 0 1 5.582-.772l12.306 7.188-3.088 3.05a5.72 5.72 0 0 1-6.1 1.243z"/>
      <path fill="#000" d="M-6.177 150.646a.7.7 0 0 1-.331-.077.77.77 0 0 1-.44-.772l.278-6.115a10.62 10.62 0 0 1 2.918-6.817 5.27 5.27 0 0 1 6.524-.926l12.306 7.18a.77.77 0 0 1 .379.571.77.77 0 0 1-.224.649l-3.088 3.088a6.507 6.507 0 0 1-6.948 1.405l-6.255-2.455-4.632 4.069a.77.77 0 0 1-.487.2m6.27-13.85a3.78 3.78 0 0 0-2.734 1.173 9.06 9.06 0 0 0-2.485 5.822l-.193 4.292 3.582-3.173a.78.78 0 0 1 .772-.139l6.702 2.633a4.95 4.95 0 0 0 5.273-1.073l2.393-2.317-11.434-6.67a3.75 3.75 0 0 0-1.884-.525z"/>
      <path fill="#fff" d="M13.813 190.021a.76.76 0 0 1-.718-.485.77.77 0 0 1 .008-.588l6.508-15.063a.773.773 0 1 1 1.413.61l-6.5 15.063a.77.77 0 0 1-.71.463"/>
      <circle cx="101.333" cy="101.333" r="100" stroke="#000" stroke-width="1.333"/>
    </g>
    <path fill="#2B68E8" d="M83.485 258.211a3.6 3.6 0 0 1-1.616-.399c-3.001-1.511-3.418-5.235 1.757-24.37 3.476-12.832 4.49-18.608 4.49-21.091-3.964 3.023-13.468 14.794-20.676 23.709-2.424 3.003-4.656 5.866-6.631 8.361-7.176 9.211-9.8 12.414-12.537 12.665-.462.048-.928 0-1.37-.141a3.35 3.35 0 0 1-1.196-.683c-4.18-3.711.122-13.764 10.261-34.243.91-1.84 1.79-3.622 2.597-5.294a65 65 0 0 0 1.924-4.322c-2.956 2.11-7.407 6.181-9.62 8.22-.974.894-1.859 1.698-2.564 2.348-7.055 6.258-26.005 24.756-26.197 24.943a2.57 2.57 0 0 1-1.738.509 2.57 2.57 0 0 1-2.366-2.433 2.58 2.58 0 0 1 .551-1.73c.782-.765 19.239-18.781 26.383-25.084.712-.643 1.571-1.422 2.527-2.29 9.715-8.889 14.294-12.542 17.43-10.188 2.623 1.968 1.366 5.994-1.687 12.298a962 962 0 0 1-2.616 5.319c-2.867 5.789-6.118 12.394-8.388 17.926a46 46 0 0 0-2.72 8.155c1.925-2.096 4.778-5.743 7.382-9.088 1.982-2.541 4.232-5.429 6.689-8.464 18.482-22.872 23.22-28.005 27.364-25.876 3.847 1.981 2.75 9.005-2.335 27.812-2.719 10.053-3.597 14.915-3.783 17.257 3.738-3.319 11.543-13.321 16.545-19.669 8.125-10.375 13.833-14.537 19.091-13.913 6.811.811 10.575 9.069 16.283 21.56a483 483 0 0 0 3.97 8.548 2.59 2.59 0 0 1 .319 2.096 2.57 2.57 0 0 1-2.409 1.879 2.56 2.56 0 0 1-1.947-.828 2.6 2.6 0 0 1-.549-.934 489 489 0 0 1-4.008-8.632c-4.63-10.137-8.285-18.144-12.261-18.614-3.091-.373-7.965 3.66-14.487 11.989-13.256 16.878-18.251 22.692-21.862 22.692M142.752 220.274c2.566 1.428 5.342-.142 7.247-1.975-.102 2.914.641 6.278 4.31 8.362s7.323.881 9.542-.804c-.532 2.778-.539 5.975 2.072 7.442a5.52 5.52 0 0 0 4.087.469 5.53 5.53 0 0 0 3.281-2.489l55.087-98.634-32.558-18.299-55.209 98.853a5.394 5.394 0 0 0 2.141 7.075"/>
    <path fill="#000" d="M168.527 235.652a6.9 6.9 0 0 1-3.418-.887c-2.065-1.151-3.136-3.145-3.207-5.93a10.3 10.3 0 0 1-3.469.643 10.05 10.05 0 0 1-4.945-1.344 9.585 9.585 0 0 1-4.925-6.664 7.7 7.7 0 0 1-3.707 1.055 5.85 5.85 0 0 1-2.924-.772 7.1 7.1 0 0 1-3.315-4.271 6.75 6.75 0 0 1 .532-5.1l55.209-98.853a1.67 1.67 0 0 1 1.663-.851c.22.025.433.094.626.202l32.565 18.298a1.68 1.68 0 0 1 .846 1.671c-.027.22-.096.433-.204.626l-55.088 98.633a7.175 7.175 0 0 1-6.239 3.544m-4.675-11.487a1.675 1.675 0 0 1 1.301.611 1.7 1.7 0 0 1 .359 1.396c-.859 4.502.719 5.358 1.238 5.647a3.6 3.6 0 0 0 1.777.457 3.847 3.847 0 0 0 3.302-1.821l54.267-97.167-29.628-16.639-54.382 97.379a3.33 3.33 0 0 0-.224 2.528 3.66 3.66 0 0 0 1.712 2.245 2.5 2.5 0 0 0 1.282.341c1.168 0 2.617-.753 3.983-2.059a1.686 1.686 0 0 1 2.847 1.287c-.115 3.267.981 5.435 3.45 6.818a6.67 6.67 0 0 0 3.297.913 7.47 7.47 0 0 0 4.399-1.589 1.7 1.7 0 0 1 1.02-.347"/>
    <path fill="#000" d="M167.654 219.933a1.04 1.04 0 0 1-.519-.141 1.06 1.06 0 0 1-.502-.64 1.07 1.07 0 0 1 .098-.808l47.629-85.023q.102-.186.268-.317a1.04 1.04 0 0 1 1.175-.089 1.08 1.08 0 0 1 .505.642 1.06 1.06 0 0 1-.095.812l-47.629 85.017a1.06 1.06 0 0 1-.93.547M153.36 212.497a1.1 1.1 0 0 1-.52-.135 1.07 1.07 0 0 1-.404-1.453l47.629-85.018a1.08 1.08 0 0 1 .639-.557 1.06 1.06 0 0 1 1.168.371 1.06 1.06 0 0 1 .203.824 1.05 1.05 0 0 1-.157.404l-47.628 85.018a1.057 1.057 0 0 1-.93.546M141.041 255.128a4.7 4.7 0 0 1-2.155-.566 3.684 3.684 0 0 1-2.168-3.299c.052-1.486 1.571-34.797 1.636-36.212a1.69 1.69 0 0 1 1.757-1.543 1.69 1.69 0 0 1 1.609 1.697c0 .341-1.539 33.665-1.635 36.09.244.243.558.403.898.457 2.392-1.673 28.973-19.631 30.141-20.415a1.675 1.675 0 0 1 2.334.456 1.693 1.693 0 0 1-.455 2.342c-8.125 5.486-29.378 19.855-30.18 20.44a2.93 2.93 0 0 1-1.782.553"/>
    <path fill="#000" d="M138.322 251.469c-.052 1.492 2.449 2.611 3.431 1.891.365-.27 4.86-3.415 10.337-7.242l-13.044-7.326c-.391 6.65-.705 12.117-.724 12.677"/>
    <path fill="#fff" d="m221.626 162.843 11.498 25.593-10.049 4.534-11.498-25.593a5.55 5.55 0 0 1 .078-4.069 5.53 5.53 0 0 1 2.83-2.917 5.5 5.5 0 0 1 4.053-.189 5.53 5.53 0 0 1 3.088 2.641"/>
    <path fill="#000" d="M209.601 166.747q.149.686.437 1.325l11.485 25.593a1.7 1.7 0 0 0 .939.883 1.68 1.68 0 0 0 2.167-.982 1.7 1.7 0 0 0-.041-1.291l-11.498-25.592a3.34 3.34 0 0 1 0-2.676 3.98 3.98 0 0 1 2.065-2.103 3.67 3.67 0 0 1 2.798-.201 3.68 3.68 0 0 1 2.127 1.834l11.505 25.587a1.685 1.685 0 0 0 1.583.993 1.68 1.68 0 0 0 1.521-1.087 1.69 1.69 0 0 0-.039-1.289l-11.498-25.593a7.041 7.041 0 0 0-9.382-3.319 7.28 7.28 0 0 0-3.79 3.859 6.75 6.75 0 0 0-.379 4.059"/>
    <path fill="#fff" d="M244.052 210.516a1.56 1.56 0 0 0 .917-1.151 3.08 3.08 0 0 0-.186-1.929l-.314-.753q-.162-.368-.392-.901a60 60 0 0 0-.551-1.215 67 67 0 0 0-3.963-7.32 68 68 0 0 0-11.742-14.098 81 81 0 0 0-5.131-4.297 78 78 0 0 0-10.851-6.863 89 89 0 0 0-9.888-4.412 99 99 0 0 0-7.112-2.341l-2.007-.554-.712-.186a3 3 0 0 0-.353-.064l-.455-.116a7.8 7.8 0 0 0-5.547.592 5.332 5.332 0 0 0-2.854 3.82 5.5 5.5 0 0 0 .179 2.502l-.179-.032a6.87 6.87 0 0 0-5.131 1.081 5.4 5.4 0 0 0-1.625 1.74 5.4 5.4 0 0 0-.722 2.273 6.03 6.03 0 0 0 .802 3.512 6.73 6.73 0 0 0 2.482 2.508 5.8 5.8 0 0 0-1.103 2.74 6.57 6.57 0 0 0 .602 3.718 6.03 6.03 0 0 0 2.341 2.573 6.4 6.4 0 0 0-1.052 2.573 7.05 7.05 0 0 0 .642 4.502 4.7 4.7 0 0 0 2.918 2.489s.57.148 1.417.392a57.47 57.47 0 0 1 5.996 2.072l.943.398.346.161q.125.049.257.077l.295.135.833.386c.712.348 1.712.856 2.854 1.505a41 41 0 0 1 3.681 2.38 36 36 0 0 1 3.649 3.075 32 32 0 0 1 3.04 3.428 31 31 0 0 1 2.18 3.306c.577 1.016.994 1.929 1.283 2.534.147.315.243.573.32.746l.109.264c.257.643 1.2.855 2.136.514z"/>
    <path fill="#000" d="M177.704 193.62a8.3 8.3 0 0 1 .513-1.756 8 8 0 0 1-1.648-2.29 8.38 8.38 0 0 1-.77-4.74c.091-.688.272-1.36.539-2a8.7 8.7 0 0 1-1.7-2.123 7.87 7.87 0 0 1-1.026-4.547 7.27 7.27 0 0 1 3.104-5.339 8.53 8.53 0 0 1 4.303-1.499q.02-.44.096-.874a7.16 7.16 0 0 1 1.282-3.021 7.1 7.1 0 0 1 2.496-2.125 9.68 9.68 0 0 1 6.829-.752l.36.09.468.096.705.187a100.553 100.553 0 0 1 9.299 2.952 89 89 0 0 1 10.094 4.502 79 79 0 0 1 11.101 7.024 73 73 0 0 1 5.278 4.399 64 64 0 0 1 4.764 4.805 68.5 68.5 0 0 1 11.364 17.173l.18.386c.147.315.275.598.397.875l.706 1.659c.41.957.509 2.02.282 3.036a3.316 3.316 0 0 1-2.046 2.412l-31.673 11.764c-1.847.676-3.771 0-4.406-1.511l-.096-.232c-.039-.077-.071-.167-.116-.263-.045-.097-.109-.277-.179-.425-.321-.682-.699-1.486-1.219-2.393a30 30 0 0 0-2.046-3.113 29 29 0 0 0-2.873-3.216 33 33 0 0 0-3.45-2.913 40 40 0 0 0-3.514-2.271c-1.077-.643-2.026-1.093-2.738-1.441l-.936-.437a4 4 0 0 1-.411-.148l-1.231-.534a63 63 0 0 0-2.848-1.074 53 53 0 0 0-2.956-.932 40 40 0 0 0-1.385-.38 6.458 6.458 0 0 1-4.053-3.402 8.3 8.3 0 0 1-.763-2.129 9 9 0 0 1-.077-3.48m14.827 8.644 1.385.644c.763.373 1.783.887 2.956 1.556a43 43 0 0 1 3.848 2.489 37 37 0 0 1 3.848 3.216 34 34 0 0 1 3.206 3.628 32 32 0 0 1 2.302 3.505 31 31 0 0 1 1.353 2.657c.116.238.199.45.263.604h.052l31.474-11.693a1.44 1.44 0 0 0-.102-.733l-.699-1.64a26 26 0 0 0-.359-.779l-.18-.392a64 64 0 0 0-3.848-7.127 65 65 0 0 0-6.906-9.165 74 74 0 0 0-4.489-4.56 74 74 0 0 0-5.035-4.194 76 76 0 0 0-10.6-6.702 85 85 0 0 0-9.684-4.316 96 96 0 0 0-6.971-2.303l-1.975-.54-.692-.18-.154-.032h-.103l-.545-.135a6.05 6.05 0 0 0-4.271.431 3.551 3.551 0 0 0-1.924 2.528 3.7 3.7 0 0 0 .122 1.678l.859 2.805-3.059-.534a5.11 5.11 0 0 0-3.796.778 3.6 3.6 0 0 0-1.099 1.167 3.7 3.7 0 0 0-.492 1.528c-.062.86.137 1.719.571 2.463a4.9 4.9 0 0 0 1.821 1.846l1.751 1.017-1.218 1.627a4 4 0 0 0-.757 1.891 4.8 4.8 0 0 0 .442 2.695 4.2 4.2 0 0 0 1.629 1.814l1.687.99-1.122 1.602a4.6 4.6 0 0 0-.757 1.846 5.5 5.5 0 0 0 .038 2.09c.092.427.239.84.436 1.229a2.95 2.95 0 0 0 1.77 1.582c.065 0 .642.161 1.469.399.641.18 1.834.54 3.149.997s2.482.919 3.052 1.151l.937.399.308.141z"/>
    <path fill="#000" d="M178.409 172.002a1.35 1.35 0 0 0 1.122 1.049l.892.128c.513.078 1.321.2 2.289.373 2.116.361 4.624.907 6.881 1.486s4.682 1.287 6.759 2.045c.847.296 1.623.579 2.194.804l.846.322a1.347 1.347 0 0 0 1.747-1.816 1.36 1.36 0 0 0-.785-.705l-.84-.328a93 93 0 0 0-2.277-.824 87 87 0 0 0-6.977-2.109 99 99 0 0 0-7.086-1.537c-.994-.174-1.821-.303-2.36-.386l-.898-.129a1.356 1.356 0 0 0-1.526 1.151q-.03.24.019.476M177.184 181.914a1.35 1.35 0 0 0 1.123 1.048l.846.129a78.616 78.616 0 0 1 15.846 4.129l.744.29a1.35 1.35 0 0 0 1.707-1.819 1.4 1.4 0 0 0-.305-.43 1.4 1.4 0 0 0-.446-.279l-.731-.283a81 81 0 0 0-1.995-.727 89 89 0 0 0-6.143-1.859 84 84 0 0 0-6.272-1.363c-.815-.148-1.501-.251-2.007-.335l-.866-.122a1.34 1.34 0 0 0-1.492.976c-.057.21-.062.432-.015.645zM179.39 191.414a1.35 1.35 0 0 0 1.071 1.042s.802.148 1.969.405c1.373.302 2.931.695 4.278 1.081 1.346.385 2.885.887 4.162 1.35 1.103.405 1.827.695 1.834.701a1.34 1.34 0 0 0 1.786-.729 1.36 1.36 0 0 0-.321-1.488 1.3 1.3 0 0 0-.452-.285s-.782-.321-1.924-.739a70 70 0 0 0-8.779-2.528c-1.212-.27-2.014-.418-2.046-.425a1.35 1.35 0 0 0-1.214.386c-.155.16-.268.356-.33.57a1.36 1.36 0 0 0-.021.659z"/>
    <path fill="#2B68E8" d="m213.982 251.366 44.724 4.303s0-.258.064-.74c0-.238.051-.534.077-.888.025-.353.038-.72.064-1.157s0-.914.058-1.441c.057-.527 0-1.055 0-1.64v-1.84c0-.643 0-1.286-.071-1.994a82 82 0 0 0-.943-8.895 98 98 0 0 0-1.923-9.346 140 140 0 0 0-5.131-16.079 156 156 0 0 0-2.084-5.146l-.641-1.492-.244-.553-40.889 18.691.128.289c.097.206.225.508.398.894.34.804.84 2.007 1.411 3.48a97 97 0 0 1 3.444 10.819c.48 1.929.852 3.775 1.109 5.422.225 1.382.377 2.776.455 4.174v2.939c0 .058-.006.2-.006.2"/>
    <path fill="#2B68E8" d="M258.487 258.062a2.4 2.4 0 0 1-2.168-2.573l.142-1.576.115-2.515v-3.859c0-.463 0-.939-.058-1.402-.152-2.9-.456-5.79-.91-8.657a104 104 0 0 0-1.867-9.134 138 138 0 0 0-5.008-15.79 126 126 0 0 0-1.969-4.85l-36.554 16.723c.289.701.642 1.576 1.039 2.573a97 97 0 0 1 3.534 11.095 67 67 0 0 1 1.154 5.628q.359 2.196.481 4.419v3.126l-.032.341a2.41 2.41 0 0 1-1.656 2.186 2.4 2.4 0 0 1-2.621-.794 2.43 2.43 0 0 1-.494-1.83v-.18a.2.2 0 0 1 0-.051v-1.653a1 1 0 0 1 0-.161v-.36a3 3 0 0 0 0-.348v-.038a36 36 0 0 0-.424-3.917 66 66 0 0 0-1.07-5.204 94 94 0 0 0-3.348-10.542c-.641-1.595-1.129-2.811-1.379-3.396l-.506-1.151a2.397 2.397 0 0 1 1.192-3.171l40.883-18.653a2.4 2.4 0 0 1 1.835-.063 2.4 2.4 0 0 1 1.339 1.26l.244.546.641 1.493c.488 1.144 1.283 2.965 2.123 5.242a143 143 0 0 1 5.188 16.35c.802 3.216 1.462 6.432 1.924 9.551.485 3.034.808 6.091.968 9.159 0 .508.045 1.016.058 1.512v4.18l-.122 2.618a.3.3 0 0 0 0 .077l-.141 1.641a2.4 2.4 0 0 1-2.604 2.174z"/>
    <path fill="#000" d="M248.368 252.478a1.064 1.064 0 0 0 1.415-1.138 1.06 1.06 0 0 0-.319-.637c-4.226-4.091-10.466-7.583-18.552-10.368a81 81 0 0 0-10.902-2.959 1.066 1.066 0 0 0-1.015 1.64c.146.228.374.391.636.457.186 0 18.777 3.505 28.333 12.761.116.109.253.193.404.244M220.016 235.215c.191.071.398.085.596.039.167-.039 16.841-3.814 29.371 1.64a1.064 1.064 0 0 0 1.288-1.339 1.07 1.07 0 0 0-.441-.591c-13.191-5.737-29.987-1.929-30.699-1.755a1.054 1.054 0 0 0-.826.975 1.06 1.06 0 0 0 .711 1.063z"/>
  </g>
  <defs>
    <clipPath id="a">
      <path fill="#fff" d="M0 0h260v260H0z"/>
    </clipPath>
  </defs>
</svg>
