<svg xmlns="http://www.w3.org/2000/svg" width="260" height="260" fill="none" viewBox="0 0 260 260">
  <g clip-path="url(#boy-pointing-calendara)">
    <path fill="#fff" d="M149.336 1.222 7.595 10.285a6.79 6.79 0 0 0-6.345 7.212l6.54 102.279A6.79 6.79 0 0 0 15 126.121l141.742-9.063a6.79 6.79 0 0 0 6.345-7.211l-6.54-102.28a6.79 6.79 0 0 0-7.212-6.345"/>
    <path fill="#000" d="M92.677 27.72a4.862 4.862 0 1 0 9.705-.621 4.862 4.862 0 0 0-9.705.62M112.666 26.442a4.861 4.861 0 1 0 9.704-.62 4.862 4.862 0 1 0-9.704.62M132.654 25.165a4.862 4.862 0 1 0 9.704-.62 4.862 4.862 0 0 0-9.704.62M15.162 70.938a4.862 4.862 0 1 0 9.704-.62 4.862 4.862 0 0 0-9.704.62M35.15 69.66a4.862 4.862 0 1 0 9.704-.62 4.862 4.862 0 0 0-9.704.62M55.138 68.383a4.862 4.862 0 1 0 9.705-.62 4.862 4.862 0 0 0-9.705.62M75.127 67.106a4.862 4.862 0 1 0 9.704-.62 4.862 4.862 0 0 0-9.704.62M115.103 64.551a4.863 4.863 0 1 0 9.706-.622 4.863 4.863 0 0 0-9.706.622M95.115 65.829a4.862 4.862 0 1 0 9.704-.62 4.862 4.862 0 0 0-9.704.62M135.091 63.27a4.863 4.863 0 1 0 9.706-.622 4.863 4.863 0 0 0-9.706.622M13.943 51.887a4.862 4.862 0 1 0 9.704-.62 4.862 4.862 0 0 0-9.704.62M33.931 50.61a4.862 4.862 0 1 0 9.705-.62 4.862 4.862 0 0 0-9.705.62M53.92 49.329a4.862 4.862 0 1 0 9.704-.621 4.862 4.862 0 0 0-9.704.62M73.908 48.051a4.862 4.862 0 1 0 9.704-.62 4.862 4.862 0 0 0-9.704.62M113.884 45.497a4.863 4.863 0 1 0 9.706-.622 4.863 4.863 0 0 0-9.706.622M93.896 46.774a4.862 4.862 0 1 0 9.704-.62 4.862 4.862 0 0 0-9.704.62M133.873 44.22a4.861 4.861 0 1 0 9.704-.621 4.862 4.862 0 1 0-9.704.62M16.379 89.993a4.862 4.862 0 1 0 9.704-.62 4.862 4.862 0 0 0-9.704.62M36.367 88.716a4.862 4.862 0 1 0 9.704-.62 4.862 4.862 0 0 0-9.704.62M56.355 87.438a4.862 4.862 0 1 0 9.705-.62 4.862 4.862 0 0 0-9.705.62M116.32 83.602a4.862 4.862 0 1 0 9.704-.62 4.862 4.862 0 0 0-9.704.62M76.343 86.16a4.862 4.862 0 1 0 9.705-.62 4.862 4.862 0 0 0-9.705.62M96.332 84.88a4.862 4.862 0 1 0 9.704-.621 4.862 4.862 0 0 0-9.704.62M136.308 82.325a4.863 4.863 0 1 0 9.706-.622 4.863 4.863 0 0 0-9.706.622M17.597 109.048a4.86 4.86 0 0 0 5.163 4.541 4.861 4.861 0 1 0-.62-9.704 4.86 4.86 0 0 0-4.543 5.163M37.586 107.77a4.862 4.862 0 1 0 9.704-.62 4.862 4.862 0 0 0-9.704.62M57.574 106.489a4.862 4.862 0 1 0 9.705-.62 4.862 4.862 0 0 0-9.705.62"/>
    <path fill="#000" d="m156.791 117.824-141.742 9.062a7.566 7.566 0 0 1-8.027-7.062L.482 17.544a7.57 7.57 0 0 1 7.063-8.026L149.287.455a7.567 7.567 0 0 1 8.027 7.062l6.54 102.279a7.57 7.57 0 0 1-7.063 8.028M7.643 11.051a6.024 6.024 0 0 0-5.627 6.396l6.54 102.279a6.023 6.023 0 0 0 6.395 5.627l141.742-9.063a6.025 6.025 0 0 0 5.627-6.396L155.781 7.615a6.02 6.02 0 0 0-6.396-5.627z"/>
    <path fill="#000" d="M11.062 21.639a3.466 3.466 0 1 1-.443-6.919 3.466 3.466 0 0 1 .443 6.919m-.345-5.385a1.93 1.93 0 1 0 2.04 1.803 1.94 1.94 0 0 0-2.04-1.803M20.11 21.06a3.466 3.466 0 1 1-.442-6.917 3.466 3.466 0 0 1 .442 6.917m-.344-5.384a1.93 1.93 0 1 0 2.04 1.803 1.94 1.94 0 0 0-2.04-1.803M29.161 20.478a3.466 3.466 0 1 1-.443-6.917 3.466 3.466 0 0 1 .443 6.917m-.344-5.385a1.93 1.93 0 1 0 .133 3.857 1.93 1.93 0 0 0-.133-3.856M84.131 287.687l39.03-75.147a55.13 55.13 0 0 1 56.593-29.174l86.37 12.111a55.26 55.26 0 0 1 32.828 17.16l17.31 42.592s-232.55 29.455-232.131 32.458"/>
    <path fill="#fff" d="m225.268 188.019-24.2-50.611-41.53 19.853 21.816 45.595c-5.335 7.558-8.327 15.748-3.16 21.787 12.647 14.784 40.14-5.612 51.583-19.172l11.443-13.56z"/>
    <path fill="#000" d="M193.049 230.923a22 22 0 0 1-3.198.229 15.88 15.88 0 0 1-12.696-5.627c-4.787-5.604-3.906-13.263 2.615-22.804l-21.414-44.878a1.314 1.314 0 0 1-.143-1.023 1.35 1.35 0 0 1 .697-.787l41.528-19.869a1.364 1.364 0 0 1 1.775.66l23.933 50.026 15.309 3.747a1.36 1.36 0 0 1 1.022 1.583 1.4 1.4 0 0 1-.293.62l-11.443 13.559c-7.405 8.874-23.685 22.605-37.692 24.564m-31.68-72.946 21.222 44.35a1.36 1.36 0 0 1-.11 1.378c-6.135 8.696-7.208 15.456-3.229 20.098a13.19 13.19 0 0 0 10.595 4.675c7.28-.026 24.321-6.513 38.889-23.823l10.015-11.863-13.793-3.37a1.38 1.38 0 0 1-.912-.748l-23.624-49.379z"/>
    <path fill="#000" d="m214.15 170.583-15.689-32.81-39.039 18.663 16.804 35.127a49.98 49.98 0 0 0 37.924-20.98"/>
    <path fill="#fff" d="M239.701 141.83a51.429 51.429 0 0 0-18.32-64.975l-7.651-5.036a36.83 36.83 0 0 0-50.981 10.61l-23.302 35.572a36.815 36.815 0 0 0 10.608 50.964l6.076 3.995a53.31 53.31 0 0 0 63.517-3.836 17 17 0 0 0 12.92 3.743 17 17 0 0 0 11.593-6.822 17 17 0 0 0 3-13.113 17.005 17.005 0 0 0-7.472-11.185z"/>
    <path fill="#000" d="M193.014 182.433a54.8 54.8 0 0 1-37.635-8.346l-6.074-3.979a38.155 38.155 0 0 1-16.594-39.046 38.2 38.2 0 0 1 5.587-13.813l23.302-35.57a38.317 38.317 0 0 1 52.878-10.995l7.666 5.018a53.006 53.006 0 0 1 19.274 65.665 18.35 18.35 0 0 1 7.276 12.016 18.354 18.354 0 0 1-29.01 17.566 54.5 54.5 0 0 1-26.67 11.484m-4.295-114.925a35.42 35.42 0 0 0-24.725 15.652l-23.302 35.571a35.45 35.45 0 0 0 10.22 49.033l6.076 3.995a52.304 52.304 0 0 0 61.901-3.609 1.37 1.37 0 0 1 1.682 0 15.43 15.43 0 0 0 12.026 3.365 15.61 15.61 0 0 0 13.086-12.049 15.61 15.61 0 0 0-6.696-16.481 1.38 1.38 0 0 1-.478-1.733 50.23 50.23 0 0 0-17.826-63.243l-7.667-5.034a35.23 35.23 0 0 0-24.363-5.458z"/>
    <path fill="#000" d="M228.01 139.189a16.96 16.96 0 0 1 12.172 2.84l4.506-6.871a36.1 36.1 0 0 0 5.175-27.139 36.1 36.1 0 0 0-15.529-22.851l-20.483-13.436a36.833 36.833 0 0 0-50.981 10.61s16.321-14.762 54.124 25.217l-2.523 7.468a22.36 22.36 0 0 0 .519 15.739l1.336 3.177-5.791 10.196a8.326 8.326 0 0 0 2.931 11.213 16.99 16.99 0 0 1 14.544-16.163"/>
    <path fill="#2563EB" d="M149.978 126.553a17 17 0 0 1-3.343.148 17.94 17.94 0 0 1-12.44-5.821 17.96 17.96 0 0 1-4.679-12.912 17.946 17.946 0 0 1 18.733-17.12 17.96 17.96 0 0 1 17.119 18.734 17.97 17.97 0 0 1-4.647 11.261 17.97 17.97 0 0 1-10.76 5.713zm-4.593-32.848a15.177 15.177 0 1 0 2.79-.138c-.943-.036-1.888.011-2.823.143zM184.448 143.903a18.6 18.6 0 0 1-3.341.164 17.96 17.96 0 0 1-16.645-22.23 17.96 17.96 0 0 1 32.81-4.997 17.957 17.957 0 0 1-12.84 27.065zm-4.593-32.848a15.24 15.24 0 0 0-13.127 14.383 15.22 15.22 0 0 0 3.943 10.974 15.22 15.22 0 0 0 16.433 4.061 15.21 15.21 0 0 0 10.011-13.649 15.21 15.21 0 0 0-14.5-15.886c-.938-.042-1.879 0-2.809.124z"/>
    <path fill="#2563EB" d="M219.723 143.429a1.43 1.43 0 0 1-.864-.165l-21.483-12.051a1.375 1.375 0 0 1-.523-1.87 1.376 1.376 0 0 1 1.87-.522l21.512 12.131a1.36 1.36 0 0 1 .68 1.357c-.022.178-.079.35-.168.506a1.31 1.31 0 0 1-1.024.614M168.502 116.962a1.37 1.37 0 0 1-.937-.205l-5.032-3.266a1.37 1.37 0 0 1-.593-.865 1.373 1.373 0 0 1 .193-1.031q.147-.23.371-.388a1.36 1.36 0 0 1 1.029-.217c.178.035.346.105.496.206l5.015 3.268a1.353 1.353 0 0 1 .61 1.383 1.383 1.383 0 0 1-.608.906 1.4 1.4 0 0 1-.544.209"/>
    <path fill="#000" d="M187.516 126.266c-1.343 2.425-3.672 3.693-5.22 2.849s-1.7-3.496-.357-5.921 3.672-3.693 5.204-2.847c1.531.845 1.718 3.511.373 5.919M159.413 112.464c-1.343 2.425-3.672 3.692-5.219 2.849s-1.703-3.513-.376-5.936 3.672-3.692 5.222-2.832c1.55.859 1.7 3.496.373 5.919M159.967 147.225a11.66 11.66 0 0 1-9.782-3.678 1.38 1.38 0 0 1 .1-1.932 1.367 1.367 0 0 1 1.931.1c.218.239 4.84 5.144 10.493 1.662a1.374 1.374 0 1 1 1.437 2.339 10.9 10.9 0 0 1-4.179 1.509M199.484 113.809a1.38 1.38 0 0 1-1.465-.855c-2.937-7.529-12.541-9.331-12.628-9.352a1.35 1.35 0 0 1-.52-.177 1.35 1.35 0 0 1-.64-.863 1.37 1.37 0 0 1 1.625-1.65c.464.07 11.205 2.067 14.712 11.03a1.34 1.34 0 0 1-.315 1.505 1.4 1.4 0 0 1-.46.285 1 1 0 0 1-.309.077M166.945 97.285a1.38 1.38 0 0 1-1.349-.62 15.49 15.49 0 0 0-12.628-6.829 1.35 1.35 0 0 1-1.367-1.356 1.385 1.385 0 0 1 1.354-1.384 18.32 18.32 0 0 1 14.978 8.116 1.386 1.386 0 0 1-.443 1.879 1.3 1.3 0 0 1-.545.194M219.033 158.227a1.23 1.23 0 0 1-.737-.099 1.365 1.365 0 0 1-.707-1.802c.14-.322 3.591-8.004 10.016-10.299a11.33 11.33 0 0 1 9.233.829 1.366 1.366 0 0 1 .592 1.834 1.384 1.384 0 0 1-1.851.596 8.6 8.6 0 0 0-7.061-.695c-5.287 1.883-8.396 8.76-8.42 8.831a1.38 1.38 0 0 1-1.065.805M237.07 93.182a1.33 1.33 0 0 1-.902-.194 1.383 1.383 0 0 1-.465-1.886c2.833-4.635-1.578-10.562-1.621-10.623a1.37 1.37 0 0 1-.265-1.017 1.36 1.36 0 0 1 .535-.904 1.38 1.38 0 0 1 1.919.253c.228.304 5.585 7.46 1.769 13.73a1.39 1.39 0 0 1-.97.64"/>
    <path fill="#000" d="M239.014 90.602a1.4 1.4 0 0 1-1.029-.26 1.37 1.37 0 0 1-.5-1.433c.045-.174.124-.337.232-.48a5.68 5.68 0 0 1 6.978-2.07 1.368 1.368 0 0 1-.144 2.495c-.332.125-.7.115-1.025-.027a2.92 2.92 0 0 0-3.611 1.246 1.36 1.36 0 0 1-.901.53"/>
    <path fill="#fff" d="m108.391 192.316-7.472-53.438a16.659 16.659 0 0 0-10.447-13.241 5.85 5.85 0 0 0-5.77.845 5.86 5.86 0 0 0-2.169 5.412l5.382 38.491a11.65 11.65 0 0 0-6.137-.824l-.446.062a11.75 11.75 0 0 0-8.877 6.288 11.5 11.5 0 0 0-2.174.085l-.446.062a11.66 11.66 0 0 0-9.144 6.78l.016.115c-1-.098-2.007-.076-3.002.066a13.33 13.33 0 0 0-11.353 15.044l12.836 91.797a.68.68 0 0 0 .77.582l56.887-7.954a.684.684 0 0 0 .581-.771l-6.344-45.37.594-.807a34.483 34.483 0 0 0 6.692-25.763l-.923-6.6a13.67 13.67 0 0 0-9.054-10.861"/>
    <path fill="#000" d="M97.011 255.522a1.36 1.36 0 0 1-1.553-1.432c.016-.269.11-.528.274-.744l14.304-18.955a32.5 32.5 0 0 0 5.57-11.493 32.5 32.5 0 0 0 .713-12.75l-.923-6.6a11.66 11.66 0 0 0-13.164-9.934l-24.186 3.382a4.71 4.71 0 0 0-3.328 2.164 4.72 4.72 0 0 0-.495 3.939 8.95 8.95 0 0 0 8.354 6.216l14.707.282a1.366 1.366 0 0 1 .374 2.672 27 27 0 0 0-7.764 4.618 16 16 0 0 0-5.966 14.964 1.366 1.366 0 1 1-2.705.378c-1.463-10.46 5.389-16.801 10.447-19.964l-9.245-.187a11.66 11.66 0 0 1-10.907-8.113 7.43 7.43 0 0 1 3.037-8.524 7.4 7.4 0 0 1 3.016-1.12l24.186-3.382a14.395 14.395 0 0 1 16.229 12.247l.923 6.6a35.22 35.22 0 0 1-6.823 26.269l-14.222 18.944a1.36 1.36 0 0 1-.853.523"/>
    <path fill="#000" d="M107.927 193.914a1.367 1.367 0 0 1-1.542-1.164l-7.493-53.586a14.68 14.68 0 0 0-9.177-11.619 3.799 3.799 0 0 0-5.131 4.082l5.389 38.54a1.385 1.385 0 0 1-1.191 1.41 1.38 1.38 0 0 1-1.532-1.029l-5.389-38.54a6.53 6.53 0 0 1 2.421-6.045 6.53 6.53 0 0 1 6.442-.947 17.41 17.41 0 0 1 10.876 13.786l7.484 53.521a1.37 1.37 0 0 1-.643 1.41 1.4 1.4 0 0 1-.514.181"/>
    <path fill="#000" d="M96.43 194.091a1.38 1.38 0 0 1-1.545-1.181l-1.806-12.918a9.764 9.764 0 0 0-11-8.302l-.446.063a9.72 9.72 0 0 0-7.525 5.61 1.365 1.365 0 0 1-1.816.666 1.365 1.365 0 0 1-.666-1.816 12.45 12.45 0 0 1 9.629-7.166l.445-.062a12.51 12.51 0 0 1 14.102 10.627l1.806 12.918a1.38 1.38 0 0 1-1.178 1.561"/>
    <path fill="#000" d="M84.322 196.067a1.383 1.383 0 0 1-1.559-1.161l-1.185-8.481a9.763 9.763 0 0 0-11.004-8.318l-.445.062a9.68 9.68 0 0 0-7.509 5.609 1.385 1.385 0 0 1-1.764.548 1.383 1.383 0 0 1-.734-1.696 12.44 12.44 0 0 1 9.628-7.167l.446-.062A12.514 12.514 0 0 1 84.3 186.045l1.186 8.48a1.365 1.365 0 0 1-1.164 1.542M116.951 283.249a1.353 1.353 0 0 1-1.542-1.164l-6.093-43.572a1.368 1.368 0 0 1 2.176-1.279c.289.218.48.542.53.901l6.093 43.572a1.37 1.37 0 0 1-1.164 1.542"/>
    <path fill="#000" d="M60.066 291.202a1.35 1.35 0 0 1-1.016-.256 1.36 1.36 0 0 1-.526-.908l-12.836-91.796a14.01 14.01 0 0 1 27.75-3.88l2.522 18.032a4.714 4.714 0 0 1-4.016 5.322 9.99 9.99 0 0 1-11.284-8.514l-1.185-8.48a1.383 1.383 0 0 1 2.722-.381l1.186 8.48a7.18 7.18 0 0 0 8.105 6.117 1.983 1.983 0 0 0 1.689-2.239l-2.522-18.032a11.28 11.28 0 0 0-8.337-9.355 11.277 11.277 0 0 0-14.001 12.478l12.835 91.797a1.365 1.365 0 0 1-1.086 1.615"/>
    <path fill="#000" d="m64.049 201.544-6.253.875a1.368 1.368 0 0 1-1.28-2.176c.218-.289.543-.48.901-.53l6.253-.874a1.367 1.367 0 0 1 1.542 1.163 1.365 1.365 0 0 1-1.163 1.542"/>
  </g>
  <defs>
    <clipPath id="boy-pointing-calendara">
      <path fill="#fff" d="M0 0h260v260H0z"/>
    </clipPath>
  </defs>
</svg>
