<svg xmlns="http://www.w3.org/2000/svg" fill="none" viewBox="0 0 117 80">
  <path fill="#fff" d="M0 0h116.243v80H0z"/>
  <path fill="#231D1E" d="M26.854 55.763c-.407-3.546.008-12.563 2.19-20.653 1.017-3.768 2.92-9.158 6.215-13.433 1.978-2.568 3.5-3.502 3.564-3.54l.152.252c-.016.009-1.55.953-3.497 3.484-1.797 2.338-4.324 6.545-6.15 13.313-2.382 8.833-2.496 17.806-2.182 20.543z"/>
  <path fill="#231D1E" d="M42.378 19.015c-1.462.757-3.066.622-3.783-.394-.716-1.016-.305-2.573.898-3.696a3.9 3.9 0 0 0 .711 2.56 3.9 3.9 0 0 0 2.173 1.53"/>
  <path fill="#F3CE49" d="M42.942 18.67q-.278.195-.566.344a3.9 3.9 0 0 1-2.173-1.529 3.9 3.9 0 0 1-.712-2.56q.237-.223.514-.418c1.591-1.123 3.538-1.102 4.349.048.81 1.15.179 2.992-1.412 4.114"/>
  <path fill="#587B27" d="m53.293 19.956-.026.084c-.288.878-.95 1.945-1.918 3.11l-2.444.922 1.733-.107c-1.465 1.604-3.437 3.346-5.747 5.016l-4.249 1.42 2.106.044c-2.32 2.729-7.278 4.483-9.475 4.973l-.224.049q.056-.19.128-.4c.755-2.214 2.68-5.947 6.609-8.888l-.693 1.99 2.813-3.488c2.37-1.582 4.69-2.822 6.704-3.636l-.705 1.587 1.717-1.97c1.24-.433 2.33-.678 3.2-.711q.248-.01.471.005"/>
  <path fill="#231D1E" d="m53.292 19.956-.026.084c-.996.549-14.041 7.83-19.994 15.378q-.346.439-.658.878c-5.154 7.25-6.57 20.184-6.681 24.556l-.294-.008c.111-4.397 1.538-17.41 6.735-24.719q.377-.53.802-1.059c5.689-7.083 17.43-13.87 19.645-15.115q.248-.01.471.005"/>
  <path fill="#587B27" d="M24.268 29.15q-.048.134-.102.26a4 4 0 0 1-.174-.135c-2.075-1.676-4.485-6.163-6.253-11.86l1.931 1.55-2.755-4.488c-.819-3.25-1.28-6.308-1.388-8.86l1.48 1.406-1.505-2.677c.007-1.691.197-3.094.563-4.095q.046-.13.098-.251a5 5 0 0 1 .175.136c.833.674 1.72 1.8 2.597 3.275l.059 3.072.563-1.963c1.2 2.254 2.352 5.125 3.293 8.34l-.1 5.267.878-2.316c1.353 5.764 1.556 10.822.64 13.338"/>
  <path fill="#231D1E" d="M26.25 56.497c-.024.865-.048 1.68-.06 2.421l-.293-.005c.011-.742.035-1.56.06-2.424.162-5.62.408-14.114-1.936-27.053q-.014-.081-.03-.161c-1.044-5.682-3.28-13.179-5.255-19.8-.993-3.332-1.939-6.502-2.672-9.224q.047-.13.099-.251.088.064.175.136c.733 2.726 1.682 5.909 2.68 9.254 1.968 6.601 4.197 14.072 5.25 19.76l.043.233c2.348 12.97 2.102 21.482 1.94 27.114"/>
  <path fill="#231D1E" d="M26.722 53.233c-.594-4.49-2.548-9.752-5.504-14.814-2.619-4.487-5.722-8.209-8.099-9.713l.157-.249c2.414 1.528 5.555 5.289 8.196 9.814 2.975 5.095 4.942 10.395 5.541 14.923z"/>
  <path fill="#231D1E" d="M9.838 29.755c1.543.571 3.119.24 3.705-.857s-.013-2.59-1.346-3.558a3.9 3.9 0 0 1-.39 2.63 3.9 3.9 0 0 1-1.97 1.785"/>
  <path fill="#F3CE49" d="M9.234 29.483q.3.16.604.273a3.9 3.9 0 0 0 1.969-1.786 3.9 3.9 0 0 0 .39-2.629 5 5 0 0 0-.561-.35c-1.717-.92-3.647-.658-4.31.583-.663 1.24.191 2.99 1.908 3.909"/>
  <path fill="#172554" d="M31.721 55.377h-.918V43.044h-7.807v12.333h-.918a10.43 10.43 0 0 0-8.767 4.782 10.44 10.44 0 0 0-.957 9.424l4.038 10.416h21.016l4.037-10.416a10.44 10.44 0 0 0-.957-9.424 10.43 10.43 0 0 0-8.767-4.782"/>
  <path fill="#F1F5F9" d="M41.406 29.805h64.068L116.244 80H52.177z"/>
  <path fill="#CBD5E1" d="M52.206 80H27.512l10.77-50.195h3.154z"/>
  <path fill="#000" d="M50.57 34.097c.614-.135.981-.84.82-1.575-.162-.734-.792-1.22-1.406-1.085-.615.135-.982.84-.82 1.575.161.734.79 1.22 1.405 1.085"/>
  <path fill="#000" d="m50.248 34.14-.483-5.61a1.846 1.846 0 0 0-1.83-1.68h-.02a1.82 1.82 0 0 0-1.335.595 1.82 1.82 0 0 0-.478 1.383l.075.977h-.295l-.073-.955a2.11 2.11 0 0 1 .554-1.604 2.1 2.1 0 0 1 1.55-.69h.021c1.099 0 2.03.851 2.124 1.948l.483 5.61zM58.438 34.098c.615-.135.982-.84.82-1.575-.161-.735-.79-1.22-1.405-1.086-.615.136-.982.84-.82 1.576.162.734.79 1.22 1.405 1.085"/>
  <path fill="#000" d="m58.118 34.14-.483-5.61a1.844 1.844 0 0 0-1.85-1.681 1.82 1.82 0 0 0-1.336.596c-.347.379-.517.87-.477 1.383l.074.977h-.295l-.073-.955a2.11 2.11 0 0 1 .554-1.604 2.1 2.1 0 0 1 1.55-.691h.022c1.098 0 2.029.852 2.123 1.949l.483 5.61zM66.308 34.099c.614-.136.981-.84.82-1.575s-.791-1.221-1.406-1.086-.982.84-.82 1.575.791 1.22 1.406 1.086"/>
  <path fill="#000" d="m65.988 34.14-.483-5.61a1.843 1.843 0 0 0-1.85-1.681 1.82 1.82 0 0 0-1.335.596 1.82 1.82 0 0 0-.477 1.383l.074.977h-.294l-.074-.955a2.11 2.11 0 0 1 .555-1.604 2.1 2.1 0 0 1 1.549-.691h.022c1.098 0 2.029.852 2.124 1.949l.483 5.61zM74.179 34.1c.614-.136.981-.841.82-1.576s-.791-1.22-1.406-1.085-.981.84-.82 1.575c.162.734.791 1.22 1.406 1.085"/>
  <path fill="#000" d="m73.858 34.14-.483-5.61a1.84 1.84 0 0 0-1.85-1.68 1.82 1.82 0 0 0-1.336.595 1.82 1.82 0 0 0-.477 1.383l.075.977-.295.001-.074-.956a2.11 2.11 0 0 1 .555-1.604c.403-.44.953-.685 1.55-.691a2.145 2.145 0 0 1 2.145 1.949l.483 5.61zM82.048 34.1c.614-.136.981-.841.82-1.576s-.791-1.22-1.406-1.085-.981.84-.82 1.575c.162.734.791 1.22 1.406 1.085"/>
  <path fill="#000" d="m81.727 34.14-.483-5.61a1.843 1.843 0 0 0-1.85-1.68 1.82 1.82 0 0 0-1.336.595 1.82 1.82 0 0 0-.477 1.383l.075.977h-.295l-.073-.955a2.11 2.11 0 0 1 .554-1.604 2.1 2.1 0 0 1 1.55-.691 2.14 2.14 0 0 1 2.145 1.95l.483 5.609zM89.919 34.1c.614-.136.982-.84.82-1.575s-.791-1.22-1.406-1.086c-.614.136-.981.84-.82 1.575s.791 1.221 1.406 1.086"/>
  <path fill="#000" d="m89.598 34.14-.483-5.61a1.846 1.846 0 0 0-1.831-1.681h-.019a1.82 1.82 0 0 0-1.335.596 1.82 1.82 0 0 0-.478 1.383l.075.977h-.295l-.073-.955a2.11 2.11 0 0 1 .554-1.604 2.1 2.1 0 0 1 1.55-.691h.021c1.099 0 2.03.852 2.124 1.949l.483 5.61zM97.788 34.1c.615-.135.982-.84.82-1.575-.162-.734-.79-1.22-1.405-1.085s-.982.84-.82 1.575c.161.735.79 1.22 1.405 1.085"/>
  <path fill="#000" d="m97.467 34.14-.483-5.61a1.846 1.846 0 0 0-1.83-1.681h-.02a1.82 1.82 0 0 0-1.335.596 1.82 1.82 0 0 0-.478 1.383l.075.977H93.1l-.073-.955a2.11 2.11 0 0 1 .554-1.604 2.1 2.1 0 0 1 1.55-.691h.021c1.099 0 2.03.852 2.124 1.949l.483 5.61z"/>
  <path fill="#fff" d="M38.972 29.805 31.276 80h-.297l7.696-50.195zM40.005 29.805h-.294V80h.294zM35.5 80l3.967-50.195h-.295L35.205 80zM48.736 80h-.298l-7.696-50.195h.298zM44.513 80l-3.966-50.195h-.295L44.218 80z"/>
  <path fill="#000" d="M65.265 41.281h-5.789l-.566-2.643h5.788zM58.475 41.281h-6.742l-.567-2.643h6.743z"/>
  <path fill="#60A5FA" d="M60.056 48.648h-6.741l-1.372-6.386h6.743z"/>
  <path fill="#BFDBFE" d="M66.846 48.648h-5.789l-1.37-6.386h5.789zM68.579 56.714H62.79l-1.521-7.086h5.788z"/>
  <path fill="#60A5FA" d="M61.787 56.712h-6.743l-1.52-7.086h6.742zM65.386 73.49h-6.742l-1.66-7.731h6.744zM63.517 64.779h-6.742l-1.521-7.086h6.742z"/>
  <path fill="#BFDBFE" d="M70.309 64.78H64.52L63 57.696h5.788zM72.176 73.491h-5.788l-1.657-7.73h5.787zM78.968 73.491H73.18l-1.659-7.73h5.788zM77.098 64.78H71.31l-1.52-7.085h5.787zM75.367 56.714H69.58l-1.52-7.086h5.787zM73.637 48.648h-5.788l-1.37-6.386h5.787z"/>
  <path fill="#000" d="M72.056 41.281h-5.788l-.567-2.643h5.788zM78.847 41.281h-5.788l-.567-2.643h5.788z"/>
  <path fill="#BFDBFE" d="M80.428 48.648H74.64l-1.37-6.386h5.788zM82.159 56.714H76.37l-1.521-7.086h5.788zM83.889 64.78H78.1l-1.52-7.085h5.787zM85.758 73.491h-5.787l-1.659-7.73H84.1zM92.55 73.491h-5.788l-1.659-7.73h5.789zM90.68 64.78h-5.788l-1.52-7.085h5.787zM88.95 56.714h-5.788l-1.521-7.086h5.787zM87.219 48.648H81.43l-1.37-6.386h5.787z"/>
  <path fill="#000" d="M85.636 41.281h-5.788l-.567-2.643h5.788zM92.427 41.281h-5.788l-.567-2.643h5.788z"/>
  <path fill="#BFDBFE" d="M94.008 48.648H88.22l-1.37-6.386h5.788zM95.739 56.714H89.95l-1.521-7.086h5.788zM97.47 64.78h-5.787l-1.52-7.085h5.787zM99.339 73.491H93.55l-1.658-7.73h5.787z"/>
  <path fill="#60A5FA" d="M106.481 73.491h-6.139l-1.658-7.73h6.138zM104.611 64.78h-6.139l-1.52-7.085h6.138zM102.88 56.714h-6.138l-1.521-7.086h6.138zM101.15 48.648h-6.14l-1.37-6.386h6.14z"/>
  <path fill="#000" d="M99.57 41.281h-6.14l-.567-2.643h6.139z"/>
  <path fill="#60A5FA" d="M51.128 73.17V80H7.275l1.016-2.186-.763-1.23.86-1.229-1.113-2.185z"/>
  <path fill="#231D1E" d="M53.297 73.17H51.13V80h2.168z"/>
  <path fill="#FCF097" d="M53.297 73.17h2.978a2.63 2.63 0 0 1 2.627 2.627v1.576A2.63 2.63 0 0 1 56.275 80h-2.978z"/>
  <path fill="#231D1E" d="M51.13 75.208H7.582v.294H51.13zM51.129 77.667H7.484v.294H51.13zM3.072 75.142v2.885L0 76.584z"/>
  <path fill="#FFA694" d="m7.528 76.585.763 1.23L7.276 80l-4.204-1.973v-2.884l4.204-1.973 1.112 2.185z"/>
</svg>
