<svg xmlns="http://www.w3.org/2000/svg" width="128" height="142" fill="none" viewBox="0 0 128 142">
  <path fill="#fff" d="M0 0h128v128H0z"/>
  <path fill="#000" d="M110.393 88c-.202-.71-.363-1.527-1.012-1.866a2.151 2.151 0 0 0-.938-.316 1.6 1.6 0 0 0-.43.022.8.8 0 0 0-.328.102.66.66 0 0 0-.241.224c-.287.695.075 1.606.829 1.83q.113.028.221.012a1 1 0 0 0 .213-.056c.165-.066.333-.14.501-.194q.126-.041.25-.064c.293-.025.521.032.711.184q.106.058.224.12z"/>
  <path fill="#000" d="M110.932 87.916c-.189-.672-.338-1.421-.854-1.93a2.57 2.57 0 0 0-2.219-.673c-.41.08-.814.332-.955.744a1.9 1.9 0 0 0-.068.986c.13.653.588 1.27 1.245 1.466.463.138.847-.076 1.274-.224.108-.037.255-.066.368-.033.141.042.308.17.478.26.261.136.608-.067.703-.319.114-.303-.057-.564-.318-.702-.164-.086-.249-.173-.448-.25a1.5 1.5 0 0 0-.546-.092c-.391.002-.745.164-1.103.305a.1.1 0 0 1-.079.017q.073.002-.025-.005c.097.022-.162-.084-.06-.029-.051-.027-.096-.064-.142-.098q-.077-.067-.021-.015a1 1 0 0 1-.272-.627q0-.1.019-.2c-.016.083.064-.12.014-.063-.032.035.062-.03.042-.023a.8.8 0 0 1 .203-.044 1.5 1.5 0 0 1 .856.187c.27.144.409.315.531.592.132.302.209.622.299.94.08.282.308.503.624.452.264-.041.534-.338.453-.623z"/>
  <path fill="#000" d="M98.353 92.763c2.46 1.321 4.868 3.16 7.78 3.34 1.339.082 2.764-.107 3.825-.99.948-.79 1.548-1.976 1.667-3.2.164-1.687-.533-3.318-.946-4.918-.073-.285-.314-.502-.624-.453-.27.043-.527.337-.453.624.354 1.37.916 2.786.958 4.182.015.51-.08 1-.266 1.477-.109.28-.186.428-.324.642a4 4 0 0 1-.364.48q-.027.034-.058.064c-.069.076.093-.085-.038.038-.408.387-.748.619-1.283.79-.066.02-.175.047-.295.07-.161.03-.322.046-.484.068a6 6 0 0 1-.991.052c-1.327-.04-2.579-.484-3.759-1.064-1.354-.665-2.627-1.505-3.962-2.222-.26-.14-.608.07-.702.318-.116.306.057.563.317.703z"/>
  <path fill="#000" d="M98.508 92.176q.216.005.428-.002c1.194-.073 2.486-.675 3.682-.582q.257.018.509.09c.516.133.901.406 1.202.758q.15.178.279.384.157.212.27.457c.342.835.66 1.9 1.629 2.24-.815-.091-1.575-.354-2.287-.729a16 16 0 0 1-.383-.203q-.377-.209-.756-.404l-.483-.256-.481-.247-.418-.222c-.975-.52-1.966-1.004-3.027-1.24a4 4 0 0 1-.166-.045z"/>
  <path fill="#000" d="M98.453 92.72c.656.013 1.275-.088 1.91-.238.61-.146 1.225-.318 1.856-.352.543-.03 1.174.123 1.587.544.47.478.652 1.078.919 1.673.33.735.812 1.395 1.592 1.687l.247-1.053c-1.441-.172-2.65-.978-3.909-1.63-.635-.329-1.262-.677-1.913-.978-.339-.156-.683-.3-1.036-.421-.33-.115-.677-.19-1.005-.285-.282-.083-.593.027-.702.318-.098.26.034.619.318.702.335.098.674.17 1.005.285.353.121.697.265 1.035.422.674.31 1.324.67 1.982 1.012.656.342 1.299.719 1.968 1.038a6.9 6.9 0 0 0 2.146.621c.614.073.826-.836.247-1.053-.547-.205-.815-.716-1.045-1.261-.126-.297-.224-.609-.381-.89a4.3 4.3 0 0 0-.667-.919 3.05 3.05 0 0 0-2.063-.898c-.652-.025-1.289.105-1.919.257-.683.164-1.369.348-2.062.335-.294-.005-.566.178-.598.488-.027.276.192.591.488.598zM17.955 90.543c.29-.68.55-1.472 1.238-1.726q.149-.069.308-.115a2.1 2.1 0 0 1 .66-.082q.218.009.425.076c.113.025.221.074.313.142a.66.66 0 0 1 .212.252c.197.726-.274 1.585-1.05 1.714a.6.6 0 0 1-.22-.016 1 1 0 0 1-.205-.082c-.156-.086-.313-.18-.473-.254a2 2 0 0 0-.24-.095c-.287-.061-.521-.033-.729.095q-.113.045-.237.09z"/>
  <path fill="#000" d="M17.43 90.392c.272-.643.512-1.368 1.088-1.809a2.57 2.57 0 0 1 2.284-.392c.398.13.768.431.856.856.067.324.05.674-.055.988-.21.632-.74 1.187-1.417 1.3-.477.078-.83-.182-1.237-.38-.103-.05-.246-.097-.361-.078-.146.024-.328.13-.507.198-.277.103-.594-.142-.658-.404-.075-.315.127-.553.403-.657.174-.066.268-.14.475-.191.18-.045.37-.048.554-.024.388.05.719.254 1.056.44a.1.1 0 0 0 .077.027q-.074-.006.025-.002c-.098.01.17-.063.063-.02.054-.021.103-.053.153-.082l.022-.013q.045-.036.085-.076c.13-.127.244-.358.263-.512q.011-.1.006-.201c.004.084-.05-.127-.006-.065.027.04-.058-.037-.04-.027a.8.8 0 0 0-.197-.069 1.47 1.47 0 0 0-.871.079c-.286.109-.446.262-.6.522-.17.283-.287.592-.415.894-.114.271-.368.461-.675.373-.256-.074-.487-.402-.372-.675z"/>
  <path fill="#000" d="M29.31 96.764c-2.606 1.005-5.223 2.532-8.134 2.348-1.339-.086-2.73-.45-3.672-1.459-.843-.9-1.291-2.151-1.256-3.381.047-1.694.941-3.227 1.55-4.763.108-.273.372-.46.675-.372.262.075.482.4.372.675-.52 1.316-1.256 2.65-1.47 4.03a3.75 3.75 0 0 0 .08 1.5c.074.29.132.447.242.676a4 4 0 0 0 .3.521l.05.07c.06.084-.082-.096.033.043.357.435.665.705 1.175.942.062.029.167.07.284.106.155.05.315.087.472.127q.48.127.976.175c1.322.124 2.619-.16 3.864-.589 1.426-.491 2.793-1.166 4.206-1.713.275-.106.595.145.658.403.076.318-.127.552-.403.658z"/>
  <path fill="#000" d="M29.23 96.163a7 7 0 0 1-.425-.055c-1.177-.221-2.384-.979-3.58-1.035a2.7 2.7 0 0 0-.517.025 2.3 2.3 0 0 0-1.287.605q-.172.157-.325.345a2.7 2.7 0 0 0-.325.42c-.444.785-.89 1.803-1.894 2.02.82.01 1.607-.155 2.36-.44q.205-.073.406-.153.4-.16.8-.307a78 78 0 0 1 1.018-.38q.222-.083.443-.169c1.03-.393 2.075-.751 3.156-.854q.09-.01.17-.024z"/>
  <path fill="#000" d="M29.216 96.708c-.65-.069-1.254-.245-1.864-.474-.588-.22-1.177-.468-1.797-.58-.537-.097-1.181-.023-1.643.343-.526.416-.781.988-1.12 1.545-.418.69-.978 1.284-1.788 1.476l-.113-1.076c1.45.01 2.75-.64 4.08-1.131.672-.248 1.337-.515 2.02-.732.355-.113.714-.213 1.08-.29.342-.072.695-.103 1.033-.157.29-.047.584.102.657.403.065.27-.111.61-.403.658-.345.055-.69.085-1.033.157-.365.076-.724.177-1.08.29-.706.224-1.396.5-2.092.758-.695.258-1.379.552-2.082.785a6.9 6.9 0 0 1-2.208.35c-.618-.005-.715-.933-.113-1.077.569-.135.898-.61 1.194-1.121.161-.279.297-.576.489-.836.222-.301.48-.597.776-.829a3.05 3.05 0 0 1 2.158-.635c.65.056 1.266.265 1.872.493.658.247 1.315.516 2.005.589.293.03.54.247.532.558-.006.276-.264.562-.558.532z"/>
  <path fill="#000" d="M49.156 125.958c-.186 1.374 2.19 1.587 3.104 1.758 3.242.603 6.538.115 9.775-.28.367-.07.733-.137 1.1-.193 3.381-.52 6.69.395 10.063.499 2.802.086 5.62.041 8.414-.321.444-.058 1.214-.117 1.496-.665.283-.552-.01-.974-.423-1.16-1.993-.904-4.159-.905-6.24-1-4.237-.193-8.42 1.086-12.643.767-.94-.071-1.869-.263-2.8-.445q-.465-.091-.931-.171c-1.774-.302-3.586-.353-5.38-.248-.917.053-1.831.134-2.74.257-.75.101-1.759.115-2.394.561a.93.93 0 0 0-.4.642z" opacity=".05"/>
  <path fill="#000" d="M68.754 110.006c.16.42.324.841.462 1.275l-.012-.025c.024.051.06.127.077.193q.262.753.508 1.51.496 1.534.938 3.075a192 192 0 0 1 1.63 6.148c.293 1.162.583 2.324.878 3.485.097.382.439.735.735.7.294-.035.476-.354.372-.762-1.054-4.149-2.033-8.311-3.355-12.43a74.383 74.383 0 0 0-1.256-3.608c-.143-.38-.58-.617-.817-.493-.28.146-.315.519-.159.932"/>
  <path fill="#000" d="M73.902 125.953a4 4 0 0 0 .856-.011c.497-.112 1.155-.25 1.69-.522q.2-.1.372-.23c.083-.061.174-.135.258-.215.084-.081.163-.171.225-.265.217-.28.064-.614-.176-.82-.298-.209-.598-.357-.946-.365q-.14-.006-.276.01c-.82.092-1.542.713-1.823 1.543q-.04.105-.073.213c.007.16-.102.296-.097.456q-.011.101-.01.204z"/>
  <path fill="#000" d="M73.86 126.409c.389.034.789.026 1.171-.06s.764-.182 1.133-.312a3.6 3.6 0 0 0 1.061-.581c.297-.241.615-.579.638-.981.044-.791-.825-1.315-1.519-1.395-.712-.082-1.457.214-1.964.709a2.9 2.9 0 0 0-.685 1.019q-.047.121-.087.242c-.022.065-.045.133-.054.2q.001.036-.004.072.021-.083 0-.009c-.074.193-.1.391-.103.597-.002.239.151.486.412.499.23.012.497-.156.5-.412q.001-.101.01-.204c.001-.024.022-.13-.006-.028q.01-.034.022-.069c.028-.083.053-.164.068-.252l.005-.054.007-.026.03-.085q.034-.099.073-.196.016-.038.033-.074c-.002.003.056-.115.026-.057s.033-.058.032-.055l.052-.085q.06-.092.127-.179.037-.047.075-.092c-.061.063-.01.014 0 0q.069-.07.142-.136.074-.065.152-.122.031-.023.063-.045.067-.045-.005.002l.067-.039q.151-.086.314-.146c.019-.006.14-.037.03-.011q.037-.009.074-.018a2 2 0 0 1 .228-.039c-.012.001.138-.01.079-.008s.091.002.08.002q.098.003.196.02c.017.004.085.013 0 0q.056.016.11.035.037.013.073.028a1 1 0 0 0 .09.039c-.059-.029.056.032.054.031q.034.02.069.043c.034.021.067.047.103.067.078.047.013.007-.003-.01.022.022.107.094.11.13l-.031-.047.03.059.013.03-.007-.025c-.006 0 .016.058.01.062l-.002-.056a.3.3 0 0 1-.006.064c.004-.089.003-.049 0-.02l.024-.041a1 1 0 0 1-.042.061l-.049.07c-.004.005-.096.111-.034.044a2 2 0 0 1-.172.162q-.09.075-.186.144s-.131.084-.058.041l-.085.049a4.173 4.173 0 0 1-.72.299c-.086.027.104-.028-.041.012l-.136.038q-.26.07-.523.129a3 3 0 0 1-.48.076c-.152.011.04 0-.047.002a5 5 0 0 1-.447-.015c-.238-.021-.486.163-.5.411-.013.246.158.478.412.499zM57.179 109.288q.03.398.062.796l.033.377.015.167.017.172q.077.793.172 1.582.194 1.601.44 3.187c.324 2.102.707 4.185 1.098 6.264.222 1.177.447 2.354.666 3.532.072.388-.09.852-.373.945-.28.092-.581-.121-.659-.536-.783-4.208-1.64-8.398-2.17-12.691a78 78 0 0 1-.371-3.794c-.03-.401.265-.786.532-.769.315.02.505.34.538.769z"/>
  <path fill="#000" d="M59.197 125.903q-.181.105-.378.192-.196.088-.403.157c-.499.105-1.153.257-1.752.234a2.709 2.709 0 0 1-.76-.139 1.7 1.7 0 0 1-.314-.146c-.316-.164-.316-.529-.185-.818.183-.313.392-.575.706-.728q.125-.064.254-.107c.783-.261 1.698 0 2.302.636q.08.079.156.164c.06.148.217.226.278.374q.053.088.095.181z"/>
  <path fill="#000" d="M59.428 126.299c-.34.195-.706.355-1.089.437a10 10 0 0 1-1.16.191 3.5 3.5 0 0 1-1.207-.082c-.369-.095-.8-.266-.99-.622-.37-.7.198-1.54.794-1.904.611-.373 1.412-.417 2.08-.181a2.94 2.94 0 0 1 1.231.821c.047.05.096.102.132.159q.015.034.034.064-.054-.068-.004-.009c.148.144.256.314.344.499.103.217.067.505-.164.626-.204.108-.516.067-.626-.164q-.045-.092-.095-.181c-.012-.021-.075-.108-.006-.027q-.024-.028-.05-.054a2 2 0 0 1-.168-.2l-.026-.047-.017-.019-.063-.065a3 3 0 0 0-.148-.146l-.061-.054c.003.004-.1-.081-.048-.04.051.039-.055-.038-.052-.036l-.084-.056a3 3 0 0 0-.297-.16c.017.007.082.031 0 0a2.476 2.476 0 0 0-.375-.113l-.076-.014q-.08-.014.007 0l-.078-.008a2 2 0 0 0-.346 0c-.02.002-.142.025-.03.002q-.039.007-.076.015-.113.022-.223.06c.01-.004-.129.048-.074.026.054-.023-.082.04-.071.035a2 2 0 0 0-.17.099c-.072.047-.014.011 0-.001q-.045.037-.087.078l-.053.055c-.01.01-.098.114-.066.074.041-.053-.037.052-.035.05l-.045.068c-.023.034-.042.071-.065.104-.052.076-.009.012 0-.011-.011.03-.058.13-.045.164l.008-.055-.004.065v.033l-.004-.026c.005-.004.009.059.017.061l-.021-.051q.014.028.032.054c-.04-.078-.024-.044-.007-.017l-.04-.029a1 1 0 0 0 .064.039l.074.042c.005.003.134.061.05.026q.11.044.223.075a3 3 0 0 0 .298.064l.099.009q.26.018.52-.005.129-.01.258-.026c.089-.011-.107.018.043-.006l.139-.022q.265-.046.528-.103c.162-.034.313-.075.468-.133.143-.055-.037.017.045-.019q.076-.034.15-.07.126-.061.25-.132c.207-.119.51-.055.625.164.115.217.058.499-.164.626z"/>
  <path fill="#F9C41C" d="m61.567 22.148-5.79.46-.482-6.065 2.614-.209a1.766 1.766 0 0 0 1.62-1.9l-.563-7.058a1.766 1.766 0 0 0-1.9-1.62L37.259 7.333a1.766 1.766 0 0 0-1.62 1.9l.103 1.294a7.55 7.55 0 0 0 8.125 6.925c1.509-.12 3.051-.522 4.564-.217 1.4.283 2.244 1.555 2.261 2.937.022 1.753-1.096 2.813-2.79 3.055-2.025.29-4.102.333-6.141.496a1.766 1.766 0 0 0-1.62 1.9l.102 1.293a7.58 7.58 0 0 0 1.639 4.128 7.6 7.6 0 0 0 3.588 2.464c1.887.591 3.816.043 5.619.794q.24.121.438.3c.895.671.709 1.816.895 3.17.198 1.431 1.63-1.84 2.383-2.49l.246-.366q.122-.192.25-.375c.42-.612.9-1.145 1.657-1.375.17-.023.341-.036.51-.05l4.942-.393a1.766 1.766 0 0 0 1.62-1.9l-.563-7.059a1.766 1.766 0 0 0-1.9-1.62z"/>
  <path fill="#F9C41C" d="M61.96 22.16c-.042-.404-.095-.812-.142-1.24q-.102-.722-.227-1.437c-.247-1.43-.537-2.853-.694-4.283-.1-.662-.198-1.306-.303-1.953a96 96 0 0 0-1.075-5.725q-.169-1.082-.358-2.16a246 246 0 0 0-.801-4.298c-.092-.581-.306-1.003-1.007-.839-.24.016-.514.038-.786.06l-1.633.13a5.67 5.67 0 0 0-4.1 2.261c-.615.823-.85 1.92-1.491 2.746-.906 1.17-2.355 1.192-3.714 1.31-1.507.133-3.02.173-4.528.294l-3.84.305a1.766 1.766 0 0 0-1.62 1.901l.102 1.293q.028.351.087.69c.985 1.659 2.81 2.759 4.801 2.826 3.359.178 6.635-.686 9.74.447.325 3.703.69 7.402 1.04 11.103a7.4 7.4 0 0 1-2.09.461c-3.026.433-6.044.734-9.067.969a7.55 7.55 0 0 0 1.629 4.022 7.6 7.6 0 0 0 3.588 2.464c1.887.59 3.816.042 5.619.794q.24.121.438.3c.894.67.71 1.815.895 3.166q.155 2.4.271 4.804c.137 2.78.284 5.841-.74 8.489 2.547-.696 5.262-.888 7.655-1.843.844-.304 1.741-.927 1.798-2.194.06-.242.398-1.047.378-1.427q.075-.869.106-1.735c.038-.848.103-1.69.15-2.536.17-2.884.028-5.718-.089-8.566l.459-.037a1.766 1.766 0 0 0 1.62-1.9l-.563-7.058a1.765 1.765 0 0 0-1.507-1.606z"/>
  <path fill="#F9C41C" d="M78.468 54.584c-5.246-.845-8.565-5.867-9.649-10.727a21 21 0 0 1-.471-2.73 60 60 0 0 1-.473-3.248c-.395-3.257-.602-6.508-1.053-9.261l-.173-2.161-1.362-17.1-.082-1.023c-.064-.754-.118-1.57-.214-2.39a18 18 0 0 0-.183-1.225C64.433 1.54 61.278-.046 58.365 0c-1.29.107-2.59.158-3.824.461a5.67 5.67 0 0 0-3.707 2.215c-.615.823-.85 1.92-1.491 2.746-.906 1.17-2.355 1.192-3.714 1.31-1.507.133-3.02.173-4.528.294l-3.84.305a1.766 1.766 0 0 0-1.62 1.9l.102 1.294q.028.351.087.69c.985 1.659 2.81 2.759 4.801 2.826 3.359.178 6.635-.686 9.74.447.325 3.703.69 7.402 1.04 11.103a7.4 7.4 0 0 1-2.09.46c-3.026.433-6.044.735-9.067.97a7.55 7.55 0 0 0 1.629 4.022 7.6 7.6 0 0 0 3.588 2.464c1.887.59 3.816.042 5.619.794q.24.121.438.3c.894.67.71 1.814.895 3.166q.155 2.4.271 4.803c.137 2.781.284 5.842-.74 8.49a9 9 0 0 1-.879 1.709 10 10 0 0 1-.745.986c-2.957 3.301-7.74 3.682-11.522 5.72 2.258.609 4.701.572 6.925 1.565q.472.209.93.481.623.269 1.259.514c2.961 1.147 6.069 1.968 9.017 3.139a22.4 22.4 0 0 0 3.207.632l1.957-.156c.979-.077 1.957-.156 1.957-.156a7.9 7.9 0 0 0 2.066-.626 6.1 6.1 0 0 0 1.55-1.04 17 17 0 0 1 1.612-1.338c.561-.41 1.142-.788 1.74-1.145 1.478-1.036 3.122-1.822 4.684-2.72q.468-.266.939-.555.561-.383 1.14-.736c1.192-.668 2.397-1.394 3.607-2.043-.965-.24-1.95-.456-2.927-.713zm-23.552-4.167q.435-.082.867-.166-.433.085-.867.166m6.374-2.744c-.276.843-.997 1.301-1.683 1.548.686-.247 1.406-.704 1.683-1.548"/>
  <path fill="#F4B80F" d="M52.963 33.072c-.318-.541-.913-.954-1.49-1.17-.925-.347-1.938-.364-2.911-.457-3.008-.288-6.851-.99-8.216-3.765a7.56 7.56 0 0 0 1.535 3.367 7.6 7.6 0 0 0 2.565 2.052c1.087.535 2.328.752 3.534.742 1.133-.008 2.09-.058 3.12.484.6.329 1.218.855 1.184 1.628.278-.535.726-1.083.869-1.687.105-.44.015-.844-.19-1.194"/>
  <path fill="#F4B80F" d="M78.467 54.584c-5.245-.845-8.564-5.867-9.648-10.727a21 21 0 0 1-.472-2.73 60 60 0 0 1-.473-3.248c-.394-3.257-.602-6.508-1.053-9.261q-.088-1.084-.172-2.161c-.512-6.413-1-12.548-1.362-17.1l-.082-1.023c-.065-.754-.118-1.57-.214-2.39a18 18 0 0 0-.184-1.225C64.432 1.54 61.277-.046 58.365 0c-1.563.13-3.137.176-4.596.687.95-.333 2.464.086 3.302.552 1.12.622 1.58 1.605 1.705 2.855.657 6.59 3.618 27.336 2.92 38.936-.036.58-.08 1.137-.134 1.662-.08 1.768-.31 3.708-1.547 5.056-1.678 1.863-4.328 2.362-6.793 1.842-.434-.124-.86-.299-1.268-.52-.155.487-.412.89-.622 1.288q-.123.21-.257.413-.342.516-.745.986c-2.958 3.301-7.74 3.683-11.522 5.72 2.257.61 4.7.572 6.925 1.565q.471.21.93.482.623.269 1.259.513c2.96 1.147 6.068 1.968 9.016 3.14a22.4 22.4 0 0 0 3.207.632l1.958-.157 1.957-.156a7.9 7.9 0 0 0 2.065-.626 6.1 6.1 0 0 0 1.55-1.04 17 17 0 0 1 1.613-1.338c.561-.41 1.142-.788 1.74-1.145 1.477-1.036 3.121-1.822 4.683-2.719q.47-.268.94-.556.56-.383 1.139-.736c1.193-.668 2.397-1.394 3.608-2.043-.966-.239-1.95-.456-2.928-.713z"/>
  <path fill="#F9C41C" d="M25.72 86.247a35 35 0 0 0 1.219 5.622c3.093 10.133 11.061 18.647 20.787 22.753 5.907 2.494 12.281 3.393 18.502 2.863 6.226-.462 12.378-2.358 17.815-5.757 8.953-5.593 15.472-15.262 16.923-25.758a35 35 0 0 0 .312-5.743c-.234-8.406-3.417-16.66-10.533-21.554-5.01-3.445-11.204-3.932-17.141-4.233q-.05-.004-.1-.006c-4.092-.203-8.196-.094-12.279.245-4.086.312-8.154.854-12.163 1.703l-.099.02c-5.814 1.238-11.852 2.7-16.254 6.895-6.252 5.96-8.088 14.612-6.988 22.95"/>
  <path fill="#F4B80F" d="M90.746 58.673c-5.01-3.445-11.205-3.932-17.142-4.233q-.049-.004-.099-.006c-4.093-.203-8.196-.094-12.28.245-4.086.312-8.153.854-12.163 1.703l-.098.02q-.744.158-1.493.324a78 78 0 0 1 1.505-.223c3.367-.19 6.982-.482 10.671-.652 1.845-.085 3.708-.139 5.564-.134 7.962-.091 16.469.933 22.576 6.72 10.078 9.504 10.514 26.23 2.6 37.148a31 31 0 0 1-2.744 3.227 30.1 30.1 0 0 1-10.563 7.029 39 39 0 0 1-5.56 1.897c-9.533 2.481-20.224 1.48-28.929-2.829a43 43 0 0 1-4.37-2.391 41 41 0 0 1-4.032-2.871 32 32 0 0 1-3.117-2.994c4.014 6.154 9.912 11.119 16.654 13.966 5.907 2.493 12.282 3.392 18.502 2.862 6.226-.462 12.378-2.358 17.815-5.756 8.954-5.593 15.472-15.262 16.923-25.758.263-1.901.366-3.825.312-5.743-.233-8.406-3.416-16.66-10.532-21.554z"/>
  <path fill="#fff" d="M52.28 101.119c.147 1.183.505 2.434 1.407 3.265q.28.307.6.595c1.276 1.152 3.003 2.062 4.957 2.593 1.978.538 4.127.697 6.236.521 2.11-.16 4.207-.657 6.075-1.501 3.076-1.389 5.361-3.718 5.939-6.198a5.8 5.8 0 0 0 .153-1.354c-.01-1.975-1.018-3.89-3.386-4.983-1.667-.769-3.759-.832-5.764-.854h-.034a45 45 0 0 0-4.157.16 45 45 0 0 0-4.13.501l-.033.005c-1.977.34-4.032.733-5.556 1.757q-.406.272-.744.571a5.4 5.4 0 0 0-.603.62c-.902 1.019-.992 2.358-1.003 3.571q.007.369.043.732z"/>
  <path fill="#F4B80F" d="M75.924 95.138c.198.58.295 1.188.301 1.802q.008.665-.13 1.328c-.505 2.433-2.555 4.704-5.324 6.049-1.682.817-3.573 1.292-5.478 1.436-1.904.159-3.846-.01-5.636-.551-1.474-.445-2.806-1.147-3.881-2.028a9 9 0 0 1-.516-.456c-1.493-1.492-2.476-3.546-2.298-5.69-.026.318-.54.893-.662 1.24-.16.451-.252.936-.301 1.414-.148 1.419.24 2.776.948 3.997 1.075 1.853 2.889 3.359 4.727 4.195 6.084 2.765 14.948 1.537 18.602-4.573.536-.896.98-1.89 1.218-2.91q.157-.676.153-1.354c-.007-1.427-.537-2.823-1.723-3.9M43.86 17.41q.43.004.857 0c1.787-.016 4.035-.274 5.323 1.229.847.99.881 2.62.002 3.652a5.4 5.4 0 0 0 .718-.408c1.152-.772 2.066-1.992 2.423-3.295q.076-.3.083-.614a2.7 2.7 0 0 0-.064-.645c-.374-2.276-2.94-3.129-4.963-3.34a14 14 0 0 0-1.06-.084c-2.13-.087-4.322.254-6.55.136-1.99-.068-3.817-1.168-4.8-2.826.223.378.24 1.04.409 1.469.203.517.463 1.011.774 1.47a7.6 7.6 0 0 0 2.293 2.198c1.387.856 2.968 1.032 4.554 1.055z"/>
  <path fill="#fff" d="M36.087 66.021c-.94.315-1.82 1.015-2.544 1.77a15 15 0 0 0-2.068 2.713c-.701 1.15-1.213 2.474-1.338 3.815q-.018.193-.03.4c-.01.136 0 .28.006.42.019.284.044.559.133.803.168.489.465.809.978.777.346-.04.684-.21.978-.43.143-.11.293-.228.427-.353.135-.125.25-.256.359-.383.583-.692 1.032-1.46 1.542-2.19.544-.777 1.088-1.54 1.616-2.365.502-.789 1.046-1.62 1.49-2.484q.13-.24.225-.504a3 3 0 0 0 .138-.532c.055-.353.019-.71-.18-1.017a1.18 1.18 0 0 0-.737-.502 1.8 1.8 0 0 0-.995.061zM43.487 61.952c-.48-.16-.987-.064-1.42.082a7.5 7.5 0 0 0-1.313.607c-.48.273-.917.611-1.224 1.05-.242.336-.556.868-.089 1.463.327.389.802.571 1.16.598.24.019.467-.01.682-.062.212-.047.412-.117.606-.181.418-.142.79-.318 1.128-.566.323-.235.636-.508.907-.855a1.494 1.494 0 0 0 .292-1.2 1.34 1.34 0 0 0-.265-.596 1 1 0 0 0-.465-.339zM46.983 8.353c-.594-.094-1.264-.043-1.882.013-.66.06-1.321.128-1.97.17-.763.052-1.52.091-2.259.172-.14.015-.298.035-.454.055a3 3 0 0 0-.448.097c-.272.082-.479.225-.459.482.027.174.153.347.331.504.18.157.413.283.646.381.633.255 1.371.339 2.084.373a9.5 9.5 0 0 0 2.26-.155c.706-.136 1.42-.335 2.041-.607.464-.203.903-.513.892-.879-.008-.312-.358-.537-.784-.605zM48.453 25.022c-.486-.097-1.035-.047-1.538.005-.54.058-1.08.123-1.611.163-.624.049-1.242.085-1.846.164-.115.015-.244.034-.372.054-.126.021-.254.056-.365.094-.223.082-.391.224-.373.48.023.174.126.348.273.505.146.159.339.286.529.384.519.257 1.123.343 1.705.38a6.4 6.4 0 0 0 1.848-.146 7 7 0 0 0 1.666-.599c.378-.201.736-.51.726-.876-.009-.312-.295-.538-.643-.607z" opacity=".34"/>
  <path fill="#000" d="M47.849 79.09c-.121-1.7 1.007-3.324 2.623-3.785 1.245-.346 2.487.063 3.375 1.012.858.983 1.195 2.317.838 3.58-.383 1.394-1.502 2.492-2.908 2.68-1.502.194-2.983-.665-3.595-2.07a3.9 3.9 0 0 1-.333-1.418"/>
  <path fill="#fff" d="M49.57 78.558c-.024-.54.335-.995.798-1.203.805-.315 1.682.372 1.591 1.225-.045.442-.312.83-.713 1.004-.431.206-.969.134-1.302-.195a1.18 1.18 0 0 1-.373-.83"/>
  <path fill="#EC4899" d="M54.626 84.559c-.651-1.202-2.207-1.558-3.453-1.355l-.02.006q-.01 0-.02.002c-1.06.197-2.436.847-2.702 2.012-.27 1.19.975 1.981 1.977 2.194 1.048.224 2.176.027 3.117-.475.862-.46 1.642-1.383 1.1-2.383zM76.985 82.154h-.02q-.01-.003-.02-.004c-1.18-.093-2.429.288-3.134 1.294-.285.405-.425.912-.248 1.391.171.466.561.81.982 1.051.913.526 2.06.693 3.09.5.975-.182 2.29-.875 2.276-2.026-.016-1.396-1.774-2.088-2.926-2.206"/>
  <path fill="#000" d="M74.549 80.524c.306-.823.9-1.67 1.867-1.713.976-.044 1.773.746 2.075 1.613.345.992 1.87.412 1.525-.581-.533-1.531-1.99-2.691-3.64-2.66-1.564.029-2.79 1.265-3.309 2.653-.154.413-.024.89.398 1.084.377.174.928.017 1.084-.398zM67.518 81.071c-.194-.53-.928-.626-1.256-.162-.162.229-.148.59-.224.852a3.3 3.3 0 0 1-.643 1.23c-.638.74-1.652.934-2.491.401-.427-.27-.76-.68-.993-1.125-.17-.323-.193-.815-.475-1.06-.565-.492-1.276.052-1.174.717q0 .004.002.007l.003.023c.373 1.474 1.558 2.86 3.103 3.139 1.524.275 2.939-.668 3.655-1.966.29-.527.715-1.449.494-2.056z"/>
</svg>
