<svg xmlns="http://www.w3.org/2000/svg" fill="none" viewBox="0 0 128 128">
  <g clip-path="url(#a)">
    <path fill="#fff" d="M0 0h128v128H0z"/>
    <path fill="#BFDBFE" d="M17.248 58.857c-.03.118-.108.22-.185.315-.283.352-1.413 1.456-1.386.289.018-.438.666-1.315 1.188-1.258.335.036.446.363.386.643zM15.569 56.087c-.105.063-.232.079-.355.092-.449.05-2.029.035-1.186-.773.32-.297 1.4-.462 1.73-.053.212.262.059.572-.18.727l-.01.007"/>
    <path fill="#000" d="M24.539 80.716c.175.125.368.225.575.289.53.163 1.101.071 1.633.228q.228.296.47.581c1.96 2.323 4.62 3.973 7.5 4.902 2.155.694 5.84 1.618 7.635-.317-1.187-.491-2.132 0-3.355-.01-1.197-.013-2.665-.341-3.816-.666-2.483-.697-4.701-2.087-6.481-3.945a15 15 0 0 1-.783-.882l-.12-.15q-.001-.003-.004-.004l-.069-.09a1 1 0 0 0-.077-.086 6 6 0 0 0 .292-.461c.494-.664.495-1.61.115-2.289-.47-.806-1.39-1.582-2.44-1.352q-.246.045-.475.137c-.611.244-1.116.724-1.447 1.333-.393.725-.102 1.742.393 2.35.132.161.285.309.455.43z"/>
    <path fill="#000" d="M26.652 77.347c-.223-1.324-.578-2.602-.474-3.952.029-.319.453-.62.796-.437.177.13.3.424.336.653.037 1.25.163 2.563.09 3.852-.112.138-.325.149-.748-.117"/>
    <path fill="#000" d="M26.845 77.336c-.134-.777-.31-1.547-.412-2.33a9 9 0 0 1-.08-1.174c.002-.22-.034-.508.173-.654.236-.168.441.017.53.237.128.322.08.74.097 1.083q.03.594.056 1.187c.015.398.024.796.018 1.195-.002.084.038.43-.028.487-.078.065-.393-.153-.46-.191-.215-.128-.388.218-.175.345.247.146.632.359.906.144.13-.103.123-.203.131-.36.015-.299.017-.597.015-.896-.007-.645-.043-1.289-.075-1.934-.023-.48.033-1.008-.239-1.431-.195-.306-.526-.416-.862-.262-.364.166-.452.481-.467.85-.053 1.26.275 2.493.486 3.726.041.243.43.223.386-.023z"/>
    <path fill="#3B82F6" d="M26.773 65.761c-1.306.187-2.608-.01-3.014-.875-.65-1.389.273-3.336-1.025-3.983-2.226-1.108-4.73-2.587-4.733-5.181-.007-4.541 4.529-7.605 8.834-7.854q.72-.036 1.44.055c2.687.367 5.006 2.032 6.585 4.346 2.136 3.332-.64 6.486-3.695 7.788-1.839.783-.674 2.676-1.237 4.041-.451 1.095-2.106 1.514-3.155 1.665z"/>
    <path fill="#000" d="M26.386 64.047c.027-1.428.06-2.872-.035-4.298-.08-1.204-.176-2.346-.963-3.317-.476-.586-1.546-1.287-2.254-.638-.826.755-.053 2.129.463 2.805 1.428 1.874 4.286 1.954 6.038.49.653-.544 1.092-1.36.861-2.226-.206-.777-1.028-1.526-1.822-1.005-.529.349-.818 1.009-1.009 1.587-.225.683-.286 1.38-.343 2.093-.059.742-.11 1.463-.075 2.208.037.826.118 1.65.126 2.477.002.276.436.33.434.049-.019-2.002-.287-3.975.085-5.966.12-.637.762-2.834 1.75-2.012.608.506.592 1.393.158 2.005-.568.8-1.656 1.226-2.593 1.366-.863.13-1.847-.137-2.552-.642-.722-.517-1.57-1.588-1.397-2.527.1-.537.586-.59 1.027-.407.45.188.772.591 1.031.99.58.892.582 2.08.625 3.11.053 1.267.034 2.54.011 3.807-.005.278.429.331.434.05"/>
    <path fill="#000" d="M24.923 66.476c-.524.077-1.318-.39-1.215-.98.094-.547.547-.798 1.05-.868.9-.128 1.786-.186 2.697-.144.478.022.958.046 1.434.092.564.055.873.368.799.96-.136 1.078-1.484.924-2.26.924l-.049.434c.754 0 2.895-.17 2.282 1.208-.406.913-1.494 1.132-2.387 1.225-.877.092-1.806.04-2.618-.33-.427-.195-.975-.508-1.034-1.02-.052-.452.22-.906.613-1.114.247-.131.073-.531-.176-.4-.987.52-1.18 1.816-.285 2.51 1.002.774 2.344.913 3.566.785 1.174-.123 2.527-.535 2.834-1.835.116-.49-.178-.97-.593-1.219-.633-.379-1.451-.246-2.154-.245-.279 0-.331.434-.05.434.616 0 1.19.076 1.782-.15.522-.198.897-.592.96-1.157.058-.502-.099-.997-.537-1.277-.299-.19-.638-.166-.982-.19q-.633-.05-1.267-.077c-.74-.028-1.438.033-2.17.106-.54.053-1.142.096-1.532.53-.36.4-.53 1.086-.19 1.546.331.45.993.764 1.547.682.279-.04.212-.472-.066-.431"/>
    <path fill="#fff" d="M21.549 55.588c.586-.241 1.054-.786 1.378-1.318.34-.558.654-1.214.68-1.888.029-.744-.403-1.594-1.251-1.524-1.56.128-2.406 1.774-2.604 3.152-.1.696.194 1.629 1.029 1.7.274.022.531-.026.769-.124z"/>
    <path fill="#BFDBFE" d="M37.113 57.362c.121.013.231.079.337.143.385.234 1.628 1.21.468 1.334-.436.041-1.391-.486-1.403-1.011-.008-.338.302-.49.587-.467zM37.7 54.364c.105-.062.232-.077.355-.09.45-.047 2.028-.02 1.18.781-.323.296-1.403.453-1.73.042-.21-.264-.056-.574.184-.726zM37.175 50.92c.079-.094.194-.149.306-.2.41-.19 1.913-.677 1.37.355-.21.385-1.18.883-1.623.6-.285-.181-.239-.524-.06-.747q.002-.004.007-.009M16.159 52.498c-.122-.014-.232-.08-.338-.143-.386-.234-1.628-1.21-.468-1.335.436-.04 1.391.486 1.403 1.012.008.337-.302.49-.587.467q-.005 0-.012-.002z"/>
    <path fill="#000" d="M59.86 125.948c-.176 1.382 2.067 1.596 2.93 1.767 3.06.607 6.172.117 9.227-.281q.52-.107 1.04-.194c3.19-.523 6.315.397 9.498.502 2.644.086 5.305.041 7.942-.323.42-.059 1.147-.118 1.413-.669.267-.555-.01-.979-.399-1.167-1.882-.909-3.926-.91-5.89-1.006-4.001-.194-7.949 1.093-11.936.772-.888-.072-1.764-.265-2.642-.447q-.439-.093-.88-.173c-1.675-.303-3.384-.355-5.078-.249a33 33 0 0 0-2.587.258c-.707.102-1.66.116-2.26.565a.94.94 0 0 0-.376.646z" opacity=".05"/>
    <path fill="#000" d="M83.15 109.16c-.032.45-.06.904-.117 1.358v-.029c0 .057 0 .142-.012.209q-.079.799-.174 1.593a97 97 0 0 1-.442 3.205c-.326 2.115-.712 4.21-1.105 6.301-.223 1.184-.45 2.367-.67 3.553-.073.39.091.857.376.95.282.092.584-.122.662-.539.788-4.232 1.65-8.447 2.182-12.766a77 77 0 0 0 .376-3.824c.03-.408-.268-.808-.538-.795-.317.016-.507.342-.539.785z"/>
    <path fill="#000" d="M81.12 125.892q.183.106.38.193.196.088.405.158c.502.106 1.16.259 1.763.236q.226-.008.437-.053c.102-.021.214-.049.326-.088q.17-.057.318-.146c.317-.165.317-.533.185-.823-.184-.315-.394-.579-.71-.733a2 2 0 0 0-.255-.107c-.788-.263-1.709 0-2.316.64a3 3 0 0 0-.157.165c-.06.148-.218.227-.28.376a2 2 0 0 0-.095.182z"/>
    <path fill="#000" d="M80.887 126.29c.341.196.71.357 1.095.44.386.082.774.155 1.167.192.406.038.817.019 1.214-.082.371-.096.805-.268.996-.627.373-.704-.2-1.549-.798-1.915-.615-.374-1.42-.419-2.093-.182a3 3 0 0 0-1.056.642 5 5 0 0 0-.182.184c-.048.051-.097.102-.133.161a.3.3 0 0 1-.034.063q.054-.068.004-.008c-.15.145-.257.315-.346.502-.103.217-.067.507.165.629.205.109.52.067.63-.165q.044-.093.095-.182c.012-.021.076-.109.007-.027q.023-.029.049-.054a2 2 0 0 0 .17-.201s.055-.099.025-.048l.018-.019.063-.065a3 3 0 0 1 .259-.242 2.381 2.381 0 0 1 .327-.202q.053-.027.108-.052c-.082.032-.016.008 0 0q.093-.035.187-.065.094-.028.19-.048l.077-.014q.08-.014-.007 0l.078-.008a2 2 0 0 1 .348 0c.02.002.143.025.031.002l.076.015a1.7 1.7 0 0 1 .299.086c-.055-.023.082.041.071.036q.089.044.172.1c.071.047.013.011 0-.002l.087.078.053.056c.01.01.098.115.066.074-.041-.053.038.053.035.051q.024.033.045.068c.024.035.043.071.066.105.052.076.01.012 0-.011.011.03.059.131.045.165l-.007-.056.003.066v.033l.004-.026c-.005-.004-.008.059-.017.061l.022-.052q-.014.029-.032.055c.04-.079.024-.044.008-.017l.04-.029a.4.4 0 0 1-.064.039l-.075.043c-.006.003-.135.061-.05.026a2 2 0 0 1-.226.075q-.114.03-.23.052s-.154.022-.07.012l-.099.009c-.173.013-.35.009-.523-.004a6 6 0 0 1-.26-.027c-.09-.011.108.018-.043-.006l-.14-.022q-.266-.046-.531-.103a3 3 0 0 1-.47-.134c-.145-.055.037.017-.046-.019a4.923 4.923 0 0 1-.402-.203c-.209-.12-.513-.056-.63.164-.115.219-.058.503.166.63zM67.93 109.179l.063.801.033.379.015.168.017.173q.078.797.173 1.592.195 1.61.442 3.205c.326 2.115.712 4.21 1.105 6.301.223 1.184.45 2.367.67 3.553.073.39-.09.857-.375.95-.283.092-.585-.122-.663-.539-.787-4.233-1.65-8.447-2.182-12.766a78 78 0 0 1-.374-3.816c-.03-.403.267-.791.536-.773.316.02.507.342.54.773z"/>
    <path fill="#000" d="M69.96 125.892q-.182.106-.38.193-.196.088-.405.158c-.502.106-1.16.259-1.762.236a2.5 2.5 0 0 1-.437-.053 3 3 0 0 1-.327-.088 1.6 1.6 0 0 1-.317-.146c-.318-.165-.318-.533-.186-.823.185-.315.394-.579.71-.733q.125-.064.256-.107c.788-.263 1.708 0 2.316.64q.08.08.156.165c.06.148.218.227.28.376q.052.088.096.182"/>
    <path fill="#000" d="M70.193 126.29c-.342.196-.71.357-1.096.44-.385.082-.773.155-1.166.192a3.6 3.6 0 0 1-1.215-.082c-.37-.096-.805-.268-.995-.627-.374-.704.199-1.549.798-1.915.615-.374 1.42-.419 2.093-.182.393.14.752.354 1.056.642q.093.09.182.184c.047.051.097.102.133.161q.013.034.034.063-.054-.068-.004-.008c.149.145.257.315.346.502.103.217.067.507-.165.629-.206.109-.52.067-.63-.165a4 4 0 0 0-.095-.182c-.012-.021-.076-.109-.007-.027q-.023-.029-.05-.054a2 2 0 0 1-.169-.201s-.056-.099-.026-.048q.035.037-.017-.019l-.063-.065a3 3 0 0 0-.26-.242 2.381 2.381 0 0 0-.327-.202q-.052-.027-.108-.052c.017.008.083.032 0 0a2.505 2.505 0 0 0-.377-.113l-.076-.014q-.081-.014.006 0l-.078-.008a2 2 0 0 0-.348 0c-.02.002-.143.025-.03.002l-.077.015a2 2 0 0 0-.298.086c.055-.023-.083.041-.072.036q-.088.044-.171.1c-.072.047-.013.011 0-.002l-.087.078-.054.056c-.01.01-.098.115-.066.074.042-.053-.037.053-.035.051l-.045.068q-.033.053-.066.105c-.052.076-.009.012 0-.011-.01.03-.058.131-.045.165l.008-.056-.004.066v.033l-.004-.026c.006-.004.009.059.018.061l-.022-.052q.014.029.033.055c-.041-.079-.025-.044-.008-.017l-.04-.029q.03.023.064.039l.075.043c.005.003.135.061.05.026q.11.044.225.075a3 3 0 0 0 .3.064q.048.006.098.009c.174.013.35.009.523-.004q.13-.01.26-.027c.09-.011-.107.018.043-.006l.14-.022q.267-.046.532-.103a3 3 0 0 0 .47-.134c.144-.055-.037.017.045-.019q.078-.034.152-.07.126-.063.25-.133c.209-.12.513-.056.63.164.115.219.058.503-.165.63zM105.781 103.363a18.5 18.5 0 0 1 1.869 1.768l-.028-.023c.775.896 1.503 1.844 1.99 2.913l-.005-.051a11.04 11.04 0 0 1 1.032 5.871 15 15 0 0 1-.144 1.174l-.032.191c-.011.065.004-.018.006-.026l-.028.143c-.056.291.046.629.368.717.268.074.657-.055.718-.368a16 16 0 0 0 .295-2.972c.133-3.984-2.239-7.595-5.27-9.999-.266-.18-.65-.276-.877.044-.134.212-.088.485.105.618z"/>
    <path fill="#000" d="M110.597 115.973q.223.055.415.156t.356.24c.58.553.987 1.353.781 2.211a2.3 2.3 0 0 1-.13.379c-.288.799-1.191 1.241-1.95.975-1.189-.43-1.178-2.027-.504-2.997a2.7 2.7 0 0 1 .358-.455q.19-.191.422-.339z"/>
    <path fill="#000" d="M110.44 116.461q.164.038.317.107c-.086-.04.069.042.068.041q.069.04.135.089c.011.009.137.121.052.037a3.5 3.5 0 0 1 .324.372c.012.016.089.13.021.025a2.6 2.6 0 0 1 .259.513c-.044-.118.013.049.019.072a2 2 0 0 1 .058.326c-.012-.121-.002.018-.001.037q0 .129-.015.256c-.002.018-.033.155-.005.043a3 3 0 0 1-.052.189q-.04.119-.088.233-.022.058-.047.117c.054-.119-.005.004-.017.023a2 2 0 0 1-.142.201c.082-.104-.001-.002-.02.017a1 1 0 0 1-.089.081q-.047.039-.094.075c-.103.08.092-.045-.024.014a7 7 0 0 1-.214.107c-.116.055.099-.022-.025.01q-.048.012-.096.025a1 1 0 0 1-.096.019l-.078.011q.096-.007.013-.003-.118 0-.235-.012c-.127-.012.096.034-.026-.006q-.047-.014-.095-.029l-.094-.035c-.12-.045.093.059-.015-.008-.047-.029-.193-.089-.213-.145l.049.043-.05-.049-.07-.078q-.023-.028-.044-.055c-.076-.091.052.099-.005-.006a2 2 0 0 1-.095-.188c-.014-.03-.072-.118-.008-.008-.022-.038-.029-.096-.04-.138a2 2 0 0 1-.034-.178l-.013-.11c.013.133.002.007.002-.017a3 3 0 0 1 .033-.454c-.018.131 0 .003.006-.021a2.5 2.5 0 0 1 .126-.405l.03-.072.024-.049q.064-.116.136-.229a5 5 0 0 1 .206-.291c.008-.011.067-.074.012-.015q.072-.078.149-.151c.207-.191.35-.264.597-.435.221-.151.222-.539.046-.722-.212-.219-.486-.208-.722-.046q-.035.023-.068.048c-.074.05.052-.034-.017.011l-.159.105c-.124.084-.244.17-.354.271a3.5 3.5 0 0 0-.525.633 3.2 3.2 0 0 0-.459 1.054c-.167.766-.091 1.672.501 2.25.643.626 1.64.739 2.408.266.824-.509 1.22-1.508 1.1-2.452-.129-1.021-.929-2.027-1.934-2.288-.258-.067-.568.053-.643.331-.071.255.052.572.33.644z"/>
    <path fill="#000" d="M109.043 116.783c-.056.062-.109.127-.169.183q-.025.025-.054.047l.036-.025c.029.001.184-.023.19.003q-.024-.005-.047-.014-.039-.015.015.01.055.028.017.006-.023-.011-.044-.027c-.076-.042.032.015.024.024l-.023-.024q-.041-.052-.003.002l.01.014a.2.2 0 0 1-.021-.042c.023 0 .027.12.027.136 0-.089-.004.09-.002.028.001-.034-.033.048 0 .003.023-.031.043-.068.064-.099.025-.04.033-.045-.002-.006.05-.059.11-.109.17-.158.031-.025.047-.039.004-.008a2.02 2.02 0 0 1 .294-.154l.089-.035c-.082.032.017-.004.034-.01q.103-.028.205-.051c.313-.077.63-.138.951-.165l-.208-1.002c-.427.037-.842.282-1.108.614-.123.153-.248.308-.358.47q-.069.1-.132.205c-.08.138-.111.275-.132.433-.036.265.225.535.485.537.295.002.499-.2.537-.485.017-.125-.031.078-.034.075a1 1 0 0 1 .051-.08q.06-.094.123-.186a5 5 0 0 1 .283-.364c-.035.041-.009.009.014-.011q.039-.031.075-.064c.029-.026.053-.042.007-.01a1 1 0 0 1 .078-.046q.04-.022.081-.04c.113-.054-.041 0 .028-.011.071-.011.138-.03.21-.035.269-.024.46-.358.397-.605-.075-.296-.32-.421-.605-.397a5.5 5.5 0 0 0-1.248.245c-.463.153-.9.404-1.172.822-.139.215-.236.454-.187.713.045.24.194.429.378.581.18.147.45.25.684.208.287-.052.475-.232.664-.438.18-.196.251-.508.046-.721-.176-.183-.529-.258-.722-.047z"/>
    <path fill="#F9C41C" d="m84.75 22.73-5.815-.556.582-6.092 2.626.25a1.776 1.776 0 0 0 1.937-1.598l.678-7.09a1.776 1.776 0 0 0-1.599-1.937L63.264 3.805a1.776 1.776 0 0 0-1.936 1.599l-.125 1.298a7.593 7.593 0 0 0 6.836 8.281c1.517.145 3.114.016 4.56.585 1.337.525 1.95 1.931 1.726 3.303-.285 1.74-1.579 2.595-3.3 2.538-2.054-.068-4.12-.388-6.17-.583a1.776 1.776 0 0 0-1.937 1.598l-.124 1.299a7.6 7.6 0 0 0 .901 4.375 7.67 7.67 0 0 0 3.123 3.069c1.765.915 3.773.71 5.426 1.77.144.11.272.231.381.374.77.82.385 1.923.333 3.295-.055 1.454 1.937-1.537 2.795-2.049l.308-.32q.154-.169.312-.328c.524-.532 1.092-.977 1.883-1.071.172.006.344.023.513.04l4.965.474a1.776 1.776 0 0 0 1.937-1.599l.678-7.09a1.776 1.776 0 0 0-1.599-1.936z"/>
    <path fill="#F9C41C" d="M85.136 22.812c.03-.408.048-.822.075-1.255q.025-.732.027-1.462c.005-1.461-.032-2.92.062-4.364.017-.672.033-1.328.041-1.988a96 96 0 0 0-.064-5.859q.023-1.102.025-2.2c.002-1.467-.02-2.934-.042-4.398.01-.593-.128-1.048-.852-1.008A67 67 0 0 0 83.621.2L81.98.043a5.7 5.7 0 0 0-4.458 1.524c-.753.706-1.178 1.752-1.957 2.459-1.102 1-2.541.769-3.908.649-1.516-.133-3.022-.357-4.537-.502l-3.858-.37a1.776 1.776 0 0 0-1.937 1.6L61.202 6.7a8 8 0 0 0-.034.7c.684 1.814 2.302 3.223 4.26 3.639 3.297.764 6.693.48 9.57 2.145-.325 3.725-.612 7.454-.912 11.18-.716.141-1.438.16-2.152.092-3.073-.101-6.114-.331-9.149-.627a7.6 7.6 0 0 0 .909 4.27 7.66 7.66 0 0 0 3.122 3.068c1.766.916 3.773.71 5.427 1.77.144.11.272.232.38.375.77.82.386 1.922.334 3.293q-.268 2.405-.572 4.805c-.351 2.779-.74 5.837-2.218 8.279 2.645-.243 5.368.04 7.905-.486.89-.153 1.887-.614 2.165-1.859.1-.228.578-.966.624-1.347q.225-.846.408-1.7c.186-.833.397-1.656.593-2.486.672-2.828 1.028-5.658 1.41-8.501l.462.044a1.776 1.776 0 0 0 1.937-1.599l.678-7.09c.08-.841-.441-1.6-1.212-1.854z"/>
    <path fill="#F9C41C" d="M95.815 57.816c-5.048-1.755-7.457-7.31-7.681-12.313a21.5 21.5 0 0 1 .01-2.787c0-1.097.04-2.2.099-3.3.179-3.296.541-6.551.577-9.357l.206-2.17 1.643-17.178.097-1.026c.069-.757.159-1.575.207-2.404q.038-.623.033-1.246C91.19 2.823 88.344.7 85.45.235 84.152.115 82.857-.06 81.58.022a5.7 5.7 0 0 0-4.06 1.546c-.752.707-1.177 1.752-1.956 2.459-1.102 1-2.541.769-3.908.65-1.516-.134-3.022-.358-4.537-.503l-3.858-.369a1.776 1.776 0 0 0-1.937 1.599l-.124 1.298a8 8 0 0 0-.034.7c.684 1.814 2.302 3.224 4.26 3.639 3.297.765 6.693.481 9.57 2.146-.325 3.724-.612 7.453-.912 11.18-.716.14-1.438.159-2.152.09-3.073-.1-6.114-.33-9.149-.625a7.6 7.6 0 0 0 .909 4.27 7.67 7.67 0 0 0 3.122 3.068c1.766.915 3.773.71 5.427 1.77q.216.163.38.374c.77.82.386 1.922.334 3.293q-.268 2.404-.572 4.806c-.351 2.778-.74 5.836-2.218 8.278a9 9 0 0 1-1.169 1.54q-.428.45-.91.846c-3.508 2.752-8.311 2.292-12.415 3.648 2.13.999 4.557 1.39 6.586 2.762q.43.291.837.64.572.374 1.157.728c2.732 1.655 5.667 3.012 8.382 4.687A23 23 0 0 0 75.7 65.73l3.932.376a8 8 0 0 0 2.156-.259 6.2 6.2 0 0 0 1.717-.759 16.5 16.5 0 0 1 1.832-1.042c.627-.31 1.27-.582 1.923-.831 1.645-.767 3.412-1.26 5.115-1.873.343-.123.682-.25 1.027-.387a27 27 0 0 1 1.258-.53c1.299-.452 2.618-.961 3.931-1.392-.915-.405-1.851-.793-2.775-1.218zm-22.71-8.246-.888.016q.445-.01.888-.016m6.904-1.603c-.422.787-1.215 1.114-1.938 1.239.722-.125 1.516-.453 1.938-1.239"/>
    <path fill="#F4B80F" d="M74.315 32.046c-.22-.592-.736-1.105-1.271-1.42-.856-.506-1.856-.7-2.803-.963-2.93-.81-6.613-2.18-7.48-5.167.009 1.255.326 2.5.933 3.604a7.7 7.7 0 0 0 2.18 2.48c.983.72 2.174 1.153 3.372 1.355 1.125.19 2.08.308 3.006 1.025.536.431 1.056 1.06.887 1.82.37-.482.908-.946 1.155-1.519.18-.417.163-.834.02-1.216z"/>
    <path fill="#F4B80F" d="M95.815 57.816c-5.047-1.755-7.457-7.31-7.681-12.313a21.5 21.5 0 0 1 .01-2.787c0-1.097.04-2.201.099-3.3.179-3.296.541-6.551.577-9.357l.206-2.17 1.643-17.178.097-1.026c.069-.757.159-1.575.207-2.404.024-.414.037-.832.033-1.246.185-3.212-2.662-5.336-5.556-5.8-1.571-.145-3.139-.374-4.673-.123 1.001-.163 2.426.517 3.174 1.124 1.001.813 1.285 1.868 1.19 3.127-.5 6.644-1.197 27.71-3.92 39.078a39 39 0 0 1-.423 1.622c-.388 1.738-.955 3.62-2.417 4.738-1.987 1.552-4.7 1.583-7.051.637-.409-.2-.8-.447-1.165-.738-.238.456-.564.81-.841 1.168a9.908 9.908 0 0 1-1.238 1.21c-3.508 2.752-8.311 2.292-12.415 3.648 2.13.999 4.557 1.389 6.586 2.762a9 9 0 0 1 .837.64q.572.374 1.157.728c2.732 1.655 5.667 3.012 8.382 4.687a23 23 0 0 0 3.066 1.188l3.932.376a8 8 0 0 0 2.156-.259 6.2 6.2 0 0 0 1.717-.759 16.5 16.5 0 0 1 1.832-1.043c.627-.308 1.27-.58 1.924-.83 1.644-.767 3.41-1.26 5.114-1.873.343-.123.682-.25 1.027-.387a28 28 0 0 1 1.258-.53c1.299-.452 2.618-.961 3.931-1.392-.915-.405-1.851-.793-2.775-1.218"/>
    <path fill="#F9C41C" d="M38.03 79.952a35 35 0 0 0 .223 5.781c1.292 10.578 7.695 20.406 16.61 26.175 5.415 3.504 11.571 5.51 17.826 6.073 6.248.631 12.673-.172 18.653-2.585 9.847-3.975 17.997-12.412 21.268-22.554a35 35 0 0 0 1.314-5.634c1.24-8.368-.469-17.1-6.663-23.192-4.361-4.29-10.41-5.855-16.239-7.192l-.097-.022c-4.02-.917-8.102-1.526-12.207-1.906-4.1-.406-8.225-.58-12.345-.442l-.1.003c-5.976.21-12.213.6-17.307 3.985-7.236 4.81-10.568 13.06-10.936 21.51"/>
    <path fill="#F4B80F" d="M107.263 64.016c-4.36-4.29-10.41-5.855-16.238-7.192l-.098-.022c-4.019-.917-8.102-1.526-12.206-1.906-4.102-.406-8.226-.58-12.346-.442l-.1.003q-.765.027-1.535.06.765.014 1.53.042c3.37.402 7.001.744 10.685 1.222 1.841.239 3.697.511 5.535.84 7.903 1.304 16.149 3.807 21.186 10.607 8.32 11.177 5.826 27.82-3.923 37.251a31 31 0 0 1-3.282 2.717 30.3 30.3 0 0 1-11.693 5.114c-1.91.448-3.864.751-5.84.907-9.877.789-20.292-2.072-28.16-7.863a43 43 0 0 1-3.91-3.133 41 41 0 0 1-3.492-3.55 32 32 0 0 1-2.563-3.51c2.9 6.798 7.872 12.747 14.052 16.746 5.416 3.504 11.571 5.51 17.826 6.073 6.248.631 12.673-.172 18.653-2.586 9.847-3.975 17.997-12.411 21.269-22.553a35 35 0 0 0 1.314-5.634c1.239-8.368-.469-17.1-6.664-23.192"/>
    <path fill="#fff" d="M61.498 99.247q-.015.682.132 1.363c.542 2.504 2.803 4.882 5.874 6.329 1.865.879 3.966 1.412 6.087 1.606 2.118.211 4.282.085 6.28-.424 3.29-.838 5.96-2.745 6.966-5.101.183-.426.312-.867.39-1.314.335-1.958-.328-4.031-2.483-5.528-1.516-1.053-3.577-1.482-5.56-1.854l-.033-.007a46 46 0 0 0-4.145-.569 46 46 0 0 0-4.179-.226h-.034c-2.018-.01-4.122.02-5.81.767-2.399 1.061-3.444 2.97-3.484 4.957z"/>
    <path fill="#F4B80F" d="M86.203 97.542c.094.609.084 1.23-.017 1.838q-.108.661-.361 1.294c-.927 2.32-3.355 4.212-6.333 5.06-1.809.515-3.765.655-5.677.464-1.914-.175-3.808-.683-5.487-1.532-2.763-1.397-4.789-3.714-5.26-6.168a6.2 6.2 0 0 1-.109-1.338 5.8 5.8 0 0 1 .332-1.808c-.43.42-.799.838-1.034 1.224a5.2 5.2 0 0 0-.644 1.634c-.715 3.389 1.604 6.918 4.283 8.756 5.541 3.803 14.537 4.137 19.225-1.275.687-.794 1.301-1.702 1.715-2.67q.273-.64.388-1.314c.243-1.415-.037-2.89-1.024-4.165zM68.04 14.941q.423.08.848.152c1.774.296 4.045.435 5.058 2.15.666 1.128.414 2.75-.636 3.618q.397-.108.782-.278c1.276-.564 2.395-1.612 2.977-2.84q.127-.284.19-.594a2.6 2.6 0 0 0 .049-.649c.028-2.32-2.365-3.613-4.333-4.176q-.51-.153-1.034-.268c-2.095-.46-4.326-.505-6.512-1.012-1.96-.415-3.577-1.824-4.261-3.639.156.413.057 1.073.148 1.526.11.547.282 1.083.51 1.592a7.6 7.6 0 0 0 1.888 2.578c1.224 1.09 2.758 1.541 4.325 1.842z"/>
    <path fill="#000" d="M60.476 76.596c.18-1.705 1.584-3.112 3.266-3.283 1.293-.123 2.451.501 3.163 1.599.676 1.125.775 2.505.198 3.692-.626 1.314-1.928 2.203-3.354 2.142-1.521-.075-2.837-1.188-3.193-2.686a3.8 3.8 0 0 1-.08-1.464"/>
    <path fill="#fff" d="M62.274 76.374c.071-.538.506-.926 1.002-1.049.852-.17 1.6.665 1.359 1.493-.123.43-.456.767-.885.868-.463.129-.983-.038-1.254-.423a1.2 1.2 0 0 1-.223-.89z"/>
    <path fill="#000" d="M85.511 80.026c.183-1.615 1.458-3.007 3.023-3.26 1.888-.276 3.643 1.13 3.92 3.067.215 1.463-.37 2.95-1.57 3.784-1.123.746-2.537.82-3.656.134-.94-.594-1.602-1.585-1.727-2.727a4 4 0 0 1 .009-1z"/>
    <path fill="#fff" d="M87.241 79.823c.05-.484.454-.876.887-1.008.598-.174 1.217.197 1.43.737a1.21 1.21 0 0 1-.62 1.51c-.509.217-1.166.127-1.466-.357a1.19 1.19 0 0 1-.23-.883z"/>
    <path fill="#EC4899" d="M66.22 83.21c-.432-1.305-1.91-1.932-3.18-1.951q-.01 0-.02.002l-.02-.002c-1.084.009-2.563.409-3.031 1.514-.48 1.131.614 2.133 1.569 2.522.998.407 2.149.412 3.17.08.934-.303 1.87-1.08 1.511-2.165M88.786 84.78q-.01-.002-.02-.003-.009-.005-.018-.007c-1.153-.302-2.457-.145-3.334.726-.353.352-.582.829-.49 1.335.087.491.412.901.786 1.214.812.681 1.917 1.05 2.972 1.042.999-.008 2.423-.462 2.613-1.604.23-1.386-1.388-2.381-2.508-2.703M76.06 84.24c-.809-1.216-2.294-.655-3.073.258.71.839 1.689 1.441 2.805 1.51 1.142.068 2.24-.37 3.084-1.108-.732-.915-1.78-1.583-2.817-.66"/>
    <path fill="#000" d="M80.277 82.395c-.056-.382-.337-.673-.799-.732-.632-.081-1.24.227-1.857.297a7.06 7.06 0 0 1-3.18-.37c-.55-.2-1.202-.605-1.81-.447-.82.213-.748 1.31-.498 1.935.204.509.495.995.854 1.42.778-.912 2.264-1.473 3.073-.258 1.037-.921 2.085-.253 2.817.66a4.73 4.73 0 0 0 1.336-1.947c.07-.196.09-.386.065-.557z"/>
    <path fill="#fff" d="M51.835 61.731c-.985.148-1.98.687-2.829 1.308a15.2 15.2 0 0 0-2.522 2.326c-.896 1.015-1.635 2.238-1.993 3.544a9 9 0 0 0-.1.39c-.033.133-.049.28-.068.419-.032.283-.055.56-.008.818.08.513.319.882.833.94.35.022.714-.09 1.043-.253a4.198 4.198 0 0 0 .907-.593c.7-.584 1.279-1.266 1.912-1.899.674-.676 1.348-1.336 2.015-2.061.635-.693 1.32-1.42 1.911-2.2a3.5 3.5 0 0 0 .437-.71 2 2 0 0 0 .103-.252c.116-.342.143-.701 0-1.04a1.19 1.19 0 0 0-.643-.625 1.8 1.8 0 0 0-.995-.113zM59.877 58.996c-.448-.242-.966-.237-1.42-.167-.49.074-.962.212-1.408.372-.523.186-1.015.446-1.396.826-.298.29-.703.762-.343 1.434.256.442.694.706 1.043.795.237.06.465.072.688.057.218-.01.429-.044.633-.073.44-.067.84-.177 1.216-.363.36-.176.719-.391 1.048-.689a1.53 1.53 0 0 0 .5-1.137 1.35 1.35 0 0 0-.158-.637c-.1-.185-.242-.33-.402-.418zM72.717 6.517c-.572-.197-1.245-.264-1.865-.317-.666-.056-1.332-.104-1.982-.175-.765-.083-1.52-.176-2.267-.226a24 24 0 0 0-.46-.024 4 4 0 0 0-.46.017c-.284.034-.513.14-.538.397-.003.177.09.37.24.556s.36.353.573.49c.582.363 1.3.575 2 .734.751.172 1.51.254 2.266.242a9.8 9.8 0 0 0 2.128-.244c.495-.12.985-.35 1.039-.715.045-.311-.262-.595-.672-.736zM71.257 23.283c-.465-.18-1.017-.227-1.525-.263-.545-.038-1.092-.067-1.624-.12-.626-.06-1.245-.133-1.857-.16a13 13 0 0 0-.377-.011 2.5 2.5 0 0 0-.379.028c-.234.042-.426.154-.453.411-.008.176.063.366.182.547.117.183.286.34.457.473.47.345 1.051.536 1.623.674.612.15 1.234.211 1.855.178a7 7 0 0 0 1.756-.302c.41-.133.819-.376.872-.74.047-.311-.197-.586-.53-.715" opacity=".34"/>
  </g>
  <defs>
    <clipPath id="a">
      <path fill="#fff" d="M0 0h128v128H0z"/>
    </clipPath>
  </defs>
</svg>
