<svg xmlns="http://www.w3.org/2000/svg" fill="none" viewBox="0 0 260 260">
  <g clip-path="url(#7a)">
    <rect width="260" height="260" fill="#DBEAFE" rx="130"/>
    <path fill="#94A3B8" d="M8.811 217.313h241.234v61.113H8.811z"/>
    <path fill="#DBEAFE" d="M332 6H-71v213.487h403z"/>
    <path fill="#64748B" d="M332 219.248H-71v4.095h403z"/>
    <path fill="#F8FAFC" d="M332 214.361H-71v5.81h403z"/>
    <path fill="#000" d="M72.125 223.343h-.384v-5.477l3.694-3.7.272.272-3.582 3.587zM100.532 223.343h-.383v-5.477l3.694-3.7.271.272-3.582 3.587zM44.58 223.343h-.384v-5.477l3.694-3.7.271.272-3.582 3.587zM19.457 223.343h-.383v-5.477l3.694-3.7.271.272-3.582 3.587zM198.84 223.343h-.383v-5.318l-3.582-3.587.271-.272 3.694 3.7zM170.432 223.343h-.383v-5.318l-3.582-3.587.271-.272 3.694 3.7zM226.386 223.343h-.383v-5.318l-3.583-3.587.271-.272 3.695 3.7zM247.606 223.343h-.383v-5.318l-3.582-3.587.271-.272 3.694 3.7z"/>
    <path fill="#F8FAFC" d="M230.255 108H31v105.96h199.255z"/>
    <path fill="#1D4ED8" d="M230.746 188.365H31.326v25.732h199.42z"/>
    <path fill="#93C5FD" d="M155.695 110.098H46.335v70.762h109.36z"/>
    <path fill="#fff" d="M154.623 116.531v5.58c-27.51 13.482-89.186 43.632-108.287 52.316v-5.83zM118.17 110.098a17389 17389 0 0 1-42.608 21.056 8233 8233 0 0 1-29.226 14.325v-14.995l41.873-20.386zM154.623 155.128v14.819c-4.659 2.314-9.428 4.68-14.196 7.042q-4.03 1.996-7.825 3.871h-30.514z" opacity=".25"/>
    <path fill="#94A3B8" d="M155.695 178.716H46.335v2.144h109.36zM154.623 118.675H46.336v2.145h108.287z"/>
    <path fill="#94A3B8" d="M48.746 110.098H46.5v70.406h2.245zM155.797 110.098h-2.246v70.406h2.246zM128.993 110.098h-2.245v70.406h2.245zM102.189 110.098h-2.245v70.406h2.245zM75.385 110.098H73.14v70.406h2.245z"/>
    <path fill="#64748B" d="M46.496 180.755v-71.729h-1.232v71.729z"/>
    <g opacity=".2">
      <path fill="#000" d="M230.127 109.687H30.872v9.84h199.255z" style="mix-blend-mode:multiply"/>
      <g fill="#000" style="mix-blend-mode:multiply">
        <path d="M30.872 119.527v5.358c0 3.826 2.987 7.029 6.804 7.185l.189.005q.2.002.397-.004c3.832-.138 6.842-3.346 6.842-7.186v-5.357H30.872zM45.105 119.527v5.358c0 3.826 2.987 7.029 6.804 7.185l.189.005q.2.002.397-.004c3.832-.138 6.842-3.346 6.842-7.186v-5.357H45.104zM59.337 119.527v5.358c0 3.826 2.988 7.029 6.804 7.185l.19.005q.198.002.397-.004c3.832-.138 6.842-3.346 6.842-7.186v-5.357H59.337z"/>
        <path d="M73.57 119.527v5.358c0 3.826 2.987 7.029 6.804 7.185l.19.005q.198.002.396-.004c3.832-.138 6.843-3.346 6.843-7.186v-5.357H73.57z"/>
        <path d="M87.802 119.527v5.358c0 3.826 2.987 7.029 6.804 7.185l.19.005q.198.002.396-.004c3.832-.138 6.843-3.346 6.843-7.186v-5.357H87.802z"/>
        <path d="M102.034 119.527v5.358c0 3.826 2.987 7.029 6.804 7.185l.19.005q.198.002.397-.004c3.832-.138 6.842-3.346 6.842-7.186v-5.357h-14.233z"/>
        <path d="M116.267 119.527v5.358c0 3.826 2.987 7.029 6.804 7.185l.189.005q.2.002.397-.004c3.832-.138 6.842-3.346 6.842-7.186v-5.357h-14.232zM130.5 119.527v5.358c0 3.826 2.987 7.029 6.804 7.185l.189.005q.2.002.397-.004c3.833-.138 6.843-3.346 6.843-7.186v-5.357H130.5z"/>
        <path d="M144.732 119.527v5.358c0 3.826 2.988 7.029 6.804 7.185l.19.005q.198.002.397-.004c3.832-.138 6.842-3.346 6.842-7.186v-5.357h-14.233z"/>
        <path d="M158.965 119.527v5.358c0 3.826 2.987 7.029 6.804 7.185l.189.005q.2.002.397-.004c3.832-.138 6.843-3.346 6.843-7.186v-5.357h-14.233z"/>
        <path d="M173.197 119.527v5.358c0 3.826 2.987 7.029 6.804 7.185l.189.005q.2.002.397-.004c3.832-.138 6.843-3.346 6.843-7.186v-5.357h-14.233z"/>
        <path d="M187.429 119.527v5.358c0 3.826 2.988 7.029 6.804 7.185l.19.005q.198.002.397-.004c3.832-.138 6.842-3.346 6.842-7.186v-5.357h-14.233zM201.663 119.527v5.358c0 3.826 2.987 7.029 6.804 7.185l.189.005q.2.002.397-.004c3.832-.138 6.842-3.346 6.842-7.186v-5.357h-14.232zM215.895 119.527v5.358c0 3.826 2.987 7.029 6.804 7.185l.189.005q.2.002.397-.004c3.832-.138 6.842-3.346 6.842-7.186v-5.357h-14.232z"/>
      </g>
    </g>
    <path fill="#1D4ED8" d="M129.136 101.706h-16.882L116.595 79h13.989z"/>
    <path fill="#fff" d="M146.019 101.706h-16.882L130.584 79h13.988z"/>
    <path fill="#1D4ED8" d="M95.371 101.706H78.49L88.619 79h13.988z"/>
    <path fill="#fff" d="M112.254 101.706H95.372L102.607 79h13.989z"/>
    <path fill="#1D4ED8" d="M61.606 101.706H44.723L60.641 79h13.988z"/>
    <path fill="#fff" d="M78.489 101.706H61.606L74.629 79h13.99z"/>
    <path fill="#1D4ED8" d="M27.846 101.706H10.963L32.664 79h13.989z"/>
    <path fill="#fff" d="M44.728 101.706H27.846L46.653 79h13.989z"/>
    <path fill="#1D4ED8" d="M162.902 101.706h-16.883L144.572 79h13.989z"/>
    <path fill="#fff" d="M179.785 101.706h-16.883L158.562 79h13.988z"/>
    <path fill="#1D4ED8" d="M196.668 101.706h-16.882L172.549 79h13.989z"/>
    <path fill="#fff" d="M213.552 101.706h-16.883L186.539 79h13.988z"/>
    <path fill="#1D4ED8" d="M230.427 101.706h-16.883L200.526 79h13.989z"/>
    <path fill="#fff" d="M247.31 101.706h-16.883L214.516 79h13.988z"/>
    <path fill="#1D4ED8" d="M10.963 101.706v6.355c0 4.538 3.544 8.338 8.07 8.521q.113.005.225.006.236.004.471-.004c4.546-.164 8.117-3.968 8.117-8.524v-6.354z"/>
    <path fill="#fff" d="M27.846 101.706v6.355c0 4.538 3.543 8.338 8.07 8.521q.113.005.225.006.236.004.471-.004c4.545-.164 8.116-3.968 8.116-8.524v-6.354z"/>
    <path fill="#1D4ED8" d="M44.729 101.706v6.355c0 4.538 3.543 8.338 8.07 8.521q.113.005.224.006.237.004.472-.004c4.545-.164 8.116-3.968 8.116-8.524v-6.354z"/>
    <path fill="#fff" d="M61.611 101.706v6.355c0 4.538 3.544 8.338 8.07 8.521q.113.005.225.006.237.004.472-.004c4.545-.164 8.116-3.968 8.116-8.524v-6.354z"/>
    <path fill="#1D4ED8" d="M78.494 101.706v6.355c0 4.538 3.543 8.338 8.07 8.521q.113.005.225.006.236.004.47-.004c4.546-.164 8.117-3.968 8.117-8.524v-6.354z"/>
    <path fill="#fff" d="M95.377 101.706v6.355c0 4.538 3.543 8.338 8.07 8.521q.113.005.224.006.237.004.472-.004c4.545-.164 8.116-3.968 8.116-8.524v-6.354z"/>
    <path fill="#1D4ED8" d="M112.259 101.706v6.355c0 4.538 3.544 8.338 8.071 8.521q.112.005.224.006.237.004.472-.004c4.545-.164 8.116-3.968 8.116-8.524v-6.354z"/>
    <path fill="#fff" d="M129.142 101.706v6.355c0 4.538 3.543 8.338 8.07 8.521q.113.005.224.006.237.004.472-.004c4.545-.164 8.116-3.968 8.116-8.524v-6.354z"/>
    <path fill="#1D4ED8" d="M146.024 101.706v6.355c0 4.538 3.544 8.338 8.071 8.521q.112.005.224.006.237.004.472-.004c4.545-.164 8.116-3.968 8.116-8.524v-6.354z"/>
    <path fill="#fff" d="M162.907 101.706v6.355c0 4.538 3.544 8.338 8.071 8.521q.112.005.224.006.237.004.471-.004c4.546-.164 8.117-3.968 8.117-8.524v-6.354z"/>
    <path fill="#1D4ED8" d="M179.79 101.706v6.355c0 4.538 3.544 8.338 8.071 8.521q.111.005.224.006.236.004.471-.004c4.546-.164 8.117-3.968 8.117-8.524v-6.354z"/>
    <path fill="#fff" d="M196.672 101.706v6.355c0 4.538 3.544 8.338 8.07 8.521q.112.005.225.006.236.004.471-.004c4.546-.164 8.116-3.968 8.116-8.524v-6.354z"/>
    <path fill="#1D4ED8" d="M213.555 101.706v6.355c0 4.538 3.543 8.338 8.07 8.521q.112.005.225.006.235.004.471-.004c4.545-.164 8.116-3.968 8.116-8.524v-6.354z"/>
    <path fill="#fff" d="M230.438 101.706v6.355c0 4.538 3.543 8.338 8.07 8.521q.113.005.224.006.237.004.472-.004c4.545-.164 8.116-3.968 8.116-8.524v-6.354z"/>
    <path fill="#94A3B8" d="M212.146 130.489h-36.992v76.87h36.992z"/>
    <path fill="#93C5FD" d="M208.345 134.352h-29.117v68.764h29.117z"/>
    <path fill="#fff" d="M208.345 139.89v5.222l-29.117 29.161v-5.223z" opacity=".25"/>
    <path fill="#3B82F6" d="M182.499 169.726a2.294 2.294 0 0 1-3.147 2.127 2.3 2.3 0 0 1-1.435-2.127 2.297 2.297 0 0 1 2.292-2.294 2.294 2.294 0 0 1 2.29 2.294"/>
    <path fill="#F5EFE1" d="M181.812 169.375a2.184 2.184 0 0 1-2.995 2.025 2.19 2.19 0 0 1-1.365-2.025 2.19 2.19 0 0 1 2.18-2.184c1.202 0 2.18.98 2.18 2.184"/>
    <path fill="#fff" d="M208.345 168.397v10.642l-24.041 24.077h-5.076v-5.558z" opacity=".25"/>
    <path fill="#64748B" d="M212.146 129.255h-36.992v1.234h36.992zM175.154 207.36v-78.105h-1.232v78.105z"/>
    <path fill="#2563EB" d="M167.264 209.327h53.041v5.034h-53.041z"/>
    <path fill="#3B82F6" d="M167.264 207.359h53.041v5.012h-53.041z"/>
    <path fill="#1E40AF" d="m167.263 207.359-4.063 7.002h4.063z"/>
    <path fill="#846146" d="M162.843 185.143c-3.905 1.336-5.488 2.939-6.229 4.252a4.16 4.16 0 0 0-.463-1.884c-.573-1.132-1.599-1.656-2.63-1.358-1.747.2-4.384-.878-2.355-3.016 1.544-1.627 4.164-2.056 3.237-5.122-.563-1.865 2.772-2.201 4.609-2.123l-.028-.298c-2.547-.127-7.448-.02-5.761 1.923 2.277 2.622-.948 3.753-2.881 5.224-.77-2.293-2.172-2.517-4.287-3.076l-.088.417c1.166.307 3.121 1.022 3.64 3.33-1.895 2.11-.259 3.856 1.98 4.073-.897 1.15-1.251 2.714-2.14 3.935-.182.251-.276.277-.276.278-.735-.213-1.453-6.493-5.944-3.701l.359.581c4.051-2.518 3.923 3.79 5.507 3.799 2.039.014 2.721-3.748 4.812-3.833 1.127-.046 1.791 1.983-.785 4.418-3.445 2.391-.458 7.302-.75 9.944l2.006-.171c.361-3.258-4.582-8.16.475-9.865.612-.206 1.189-.399 1.483-.905.128-.22.208-.49.302-.802.397-1.322.993-3.946 6.36-5.783l-.153-.238z"/>
    <path fill="#5B3F2C" d="M153.97 179.512q.305-.12.617-.233a3.9 3.9 0 0 0-.184-1.262c-.563-1.865 2.773-2.202 4.609-2.124l-.027-.298c-2.548-.127-7.448-.02-5.762 1.924.678.781.866 1.429.747 1.994zM149.043 182.056q.351-.245.74-.487c-.82-1.223-2.048-1.46-3.727-1.903l-.088.417c.896.236 2.257.717 3.075 1.974zM153.905 188.545c1.127-.046 1.791 1.983-.785 4.418-1.442 1.001-1.755 2.445-1.656 3.977q.518-.484 1.122-.96c-.142-1.325.322-2.455 2.266-3.11.611-.206 1.188-.4 1.483-.906.127-.219.207-.489.301-.801.397-1.322.993-3.946 6.36-5.783l-.153-.238c-3.904 1.336-5.488 2.938-6.228 4.252a4.2 4.2 0 0 0-.464-1.884c-.049-.098-.106-.184-.162-.272-1.682.363-3.263.56-4.641.586-.727 1.106-1.098 2.49-1.902 3.596-.182.251-.276.277-.276.278-.735-.213-1.453-6.493-5.944-3.701l.359.581c4.051-2.518 3.923 3.789 5.507 3.799 2.039.013 2.721-3.748 4.812-3.833z"/>
    <path fill="#C47037" d="M144.603 203.82c6.316-3.478 9.986-4.418 17.924.197z"/>
    <path fill="#89532E" d="M144.603 203.82c4.058-2.235 8.102-4.004 9.632-2.826-2.675 1.437-1.924 3.119.913 4.769z"/>
    <path fill="#756454" d="m163.694 202.394-19.689.196c-1.1 4.945-.079 7.94 2.104 11.771h14.241c2.803-3.837 3.371-6.945 3.344-11.967"/>
    <path fill="#544436" d="M159.018 213.298c-6.246 0-11.308-4.29-11.308-9.582 0-.394.032-.782.087-1.164l-3.792.037c-1.1 4.945-.079 7.94 2.104 11.772h14.241c.309-.422.585-.834.841-1.243a13 13 0 0 1-2.173.179z"/>
    <path fill="#A2A534" d="M135.981 191.11c-.967.855-.854 4.331 1.991 3.306 2.675 1.994 7.057-3.192 5.577-3.876s-1.309-1.082-.626-1.596c.683-.512 1.195 1.482 2.447.514 1.252-.969 2.448-2.222.57-2.394 0 0-1.082-3.705-3.187-.228 0 0-7.283-1.311-6.771 4.274z"/>
    <path fill="#848425" d="M145.94 187.062s-.085-.292-.255-.637c-.899.948-2.033 2.827-5.149 2.044.158.563 1.044 2.265 1.827 2.831 1.546 1.12-1.85 2.493-3.09 3.563 2.564.082 5.535-3.745 4.278-4.325-1.479-.684-1.309-1.082-.625-1.596.682-.513 1.194 1.482 2.446.514 1.253-.97 2.448-2.223.57-2.395z"/>
    <path fill="#848425" d="M143.743 186.749c1.102.526 2.009 1.195 2.594 1.86.711-.736.957-1.423-.397-1.547 0 0-.993-3.394-2.927-.625q.363.138.73.312M142.023 190.367c-.683-.326.578-1.636-.771-1.744-.799-.065-2.561-.966-2.541-1.628a4.7 4.7 0 0 0-1.241.553c2.673 1.892 4.446 3.942 3.976 4.619-.457.66-2.865-.217-5.478-1.963q-.031.419.013.904c-.967.856-.854 4.331 1.991 3.306 2.321 1.73 5.925-1.944 5.871-3.394a9.6 9.6 0 0 1-1.82-.653M142.411 186.208c-.682.512-2.445-.513-1.763-1.14.683-.628 1.878.512 1.763 1.14"/>
    <path fill="#A2A534" d="M136.783 174.062c-.679.518-2.451-.494-1.773-1.126s1.881.498 1.773 1.126"/>
    <path fill="#848425" d="M150.517 171.176c-.704.701-2.913-.177-2.227-1.007.686-.831 2.256.272 2.227 1.007M160.205 178.226c-.647.225-1.746-.978-1.072-1.288s1.31.841 1.072 1.288M157.237 179.741c-.959-.245-1.325-2.566-.264-2.403s.908 2.056.264 2.403M162.648 186.842c.371.77-.972 2.307-1.455 1.516-.485-.792.861-1.747 1.455-1.516M145.958 189.743c.563.413.183 2.037-.469 1.651-.652-.384-.048-1.591.469-1.651"/>
    <path fill="#A2A534" d="M161.646 185.809c-1.084.588-3.628.269-1.763-1.938-1.311-.741-.513-2.735 1.821-2.279-.626-1.311 1.252-3.021 3.072-1.368 3.926-1.539 5.918 4.16 2.789 6.041.91.398 2.331 3.078-1.309 3.134.853 1.083-4.556 3.322-3.074-1.311 0 0 1.196-2.45-1.536-2.279"/>
    <path fill="#848425" d="M166.382 189.394c-1.76-.828-3.012-2.925-3.012-5.389 0-1.51.474-2.882 1.245-3.91-1.769-1.414-3.519.225-2.911 1.496-2.332-.455-3.13 1.539-1.821 2.28-1.864 2.207.681 2.525 1.763 1.937 2.732-.171 1.537 2.28 1.537 2.28-1.482 4.632 3.926 2.393 3.073 1.311q.065-.001.127-.006z"/>
    <path fill="#A2A534" d="M153.054 175.323c2.901.912 4.495 2.109 6.771.741 0 0 4.893 2.393 5.747.057 0 0 3.301-1.425 2.56-3.932-.74-2.507-4.894-5.3-9.332-2.393 0 0-1.309-2.508-4.894-1.312-3.585 1.198-2.448 3.819-2.448 3.819s-5.669-.96-5.064 1.311c.228.854 1.821-.172 1.821-.172s-1.137 3.589 1.821 3.533c2.96-.056 3.017-1.652 3.017-1.652z"/>
    <path fill="#848425" d="M161.918 175.514c-4.983-.787-8.665-3.694-8.224-6.492q.041-.26.127-.505c-3.474 1.21-2.362 3.786-2.362 3.786s-5.669-.96-5.064 1.311c.227.854 1.821-.172 1.821-.172s-1.138 3.589 1.821 3.533 3.016-1.653 3.016-1.653c2.902.913 4.495 2.11 6.771.742 0 0 4.893 2.393 5.748.057 0 0 .464-.201 1.006-.584-1.407.229-2.999.24-4.66-.023"/>
    <path fill="#A2A534" d="M136.149 181.421c-1.928.625-3.028-.76-2.99-1.786 0 0-2.382-.77-.316-2.961 2.065-2.191 3.415-1.942 3.901-1.896s2.448-1.818 4.185-.93 1.763 2.506 1.763 2.506 4.997-.672 5.577 1.961c.643 2.754-4.221 2.982-4.318 2.765-.079 1.781-5.876 2.951-5.331-.077-1.838 2.942-2.471.416-2.471.416z"/>
    <path fill="#848425" d="M145.211 180.108c-4.648 0-8.416-2.106-8.416-4.704 0-.221.038-.436.09-.649a.34.34 0 0 1-.14.024c-.486-.046-1.836-.294-3.901 1.896s.316 2.961.316 2.961c-.038 1.025 1.061 2.411 2.99 1.786 0 0 .632 2.525 2.471-.416-.545 3.029 5.253 1.858 5.331.077.075.168 2.964.069 4.006-1.236a14.5 14.5 0 0 1-2.747.262z"/>
    <path fill="#C1C12F" d="M163.514 169.203c.842-.345 2.376.331 3.422 1.511 1.048 1.181 1.214 2.418.372 2.764-.843.346-2.377-.331-3.424-1.512-1.048-1.18-1.213-2.418-.37-2.764zM167.806 181.024c.757.321 1.254 1.536 1.109 2.715-.144 1.177-.876 1.872-1.632 1.552-.757-.322-1.254-1.538-1.11-2.715.146-1.179.878-1.873 1.634-1.552z"/>
    <path fill="#A2A534" d="M162.11 185.147c-.196.465-.94.771-1.662.683-.72-.089-1.147-.537-.952-1.001.195-.466.939-.772 1.66-.685.723.089 1.148.538.954 1.004z"/>
    <path fill="#C1C12F" d="M156.798 168.999c.961-.24 2.378 1.632 1.367 1.993-1.01.36-1.77-1.379-1.367-1.993"/>
    <path fill="#A2A534" d="M152.048 175.316c-.478 1.301-3.753 1.476-3.374.023.377-1.453 2.984-.97 3.374-.023M137.913 179.865c-.717 1.442-4.578 2.021-3.96.429.617-1.592 3.615-1.39 3.96-.429M146.286 187.633c-.101.967-2.166 2.111-2.152 1.079s1.754-1.551 2.152-1.079"/>
    <path fill="#848425" d="M142.634 176.369c.764-.287 2.691-.505 4.077.124 1.514.685 1.653 1.48 1.523 2.265-.223 1.343-5.691-1.632-5.6-2.389"/>
    <path fill="#C1C12F" d="M165.89 167c.489.39.094 1.835-.476 1.468-.57-.368.013-1.432.476-1.468M138.532 174.912c1.286-.321 3.822 1.693 2.5 2.152s-2.893-1.443-2.5-2.152"/>
    <g opacity=".85">
      <path fill="#86786A" d="m149.163 210.858.071.011.06.071-.173-.02zM147.531 213.238l.194-.035.347.289zM149.11 213.224l-.089.111.614.156.604-.42-.333-.1.333.1-.281-.439-1.752.487 3.235-.548 1.002.461-3.796.459z"/>
      <path fill="#fff" d="m150.849 213.425-.279-.062.222-.26z" opacity=".3"/>
      <path fill="#86786A" d="m151.571 209.735.293.244-.059.24-.185-.069.033.204v-.097l-.198.043-.002-.096-.129-.018zM146.565 204.159l.675-.427-.066.444-.317.266.008-.044-.214-.007.007-.046-.139.028z"/>
      <path fill="#fff" d="m146.925 203.929-.18.112.075-.156.216.178-.265.28z" opacity=".3"/>
      <path fill="#86786A" d="m147 204.019-.002.078.027.034-.068.055-.027-.033.04-.034-.133-.022z" opacity=".3"/>
      <path fill="#86786A" d="m152.171 209.357.118.128-.169.252.057-.17-.127-.085-.069.107zM162.319 206.964l.007.502-.234-.408.138.573-.634-.842-.111.175-.63-.637.008.166-.988-1.024-.317-1.66.124-.149.255-.066.024.084.19-.117.947.378.11-.025 1.455 1.326-.141-.128-.047.148.43.267-.442-.025.277.463-.147-.127.295.692-.296.375.215.584zM154.98 205.265l-.358.354-.176-.077-.381.293.143-1.682.13.128.026-.231zM152.626 205.342l-.006-.073.219.241.062-.157-.03-.028.184.173.026-.048.202 1.422-.244.173-.593.007-.305-.274-.414.431-.597-.321-.133-.519.222-.524.149.159-.007-.23.077.132.098-.071.076.094.099-.071.075.109.241-.147.043-.34.078.094.062-.173-.031-.026.105.064.01-.245zM146.882 205.881l.071-.041.459.534-.198.59-.796-.285-.107-.586-.045-.027.103.066.134-.282z"/>
      <path fill="#fff" d="m151.884 205.894.03-.001.002.1-.03.001z" opacity=".3"/>
      <path fill="#86786A" d="m152.86 207.841-.075-.039.096-.134zM152.88 209.028l.036-.037.191.044.228 1.4-.639-.062-.32-.578.082-.356.015.043.179-.544zM155.687 212.887l.031-.149.337-.257-.047-.021 1.356-.536.504.513-.402.681-1.013.419.05-.119-.441.049.035-.11-.315-.03.065-.109-.202-.008z"/>
      <path fill="#fff" d="m156.877 212.868-.375.146z" opacity=".3"/>
    </g>
    <g opacity=".85">
      <path fill="#86786A" d="m146.379 208.727.015-.006.022.061zM146.496 208.732l-.009.022.045.031.052-.086-.026-.02.026.02-.019-.089-.115.11-.022-.011.253-.123.075.088-.299.11z"/>
      <path fill="#fff" d="m146.627 208.77-.022-.011.021-.057z" opacity=".3"/>
      <path fill="#86786A" d="m148.513 209.839.376-.095-.071.238-.188.082.008-.023-.106-.053.009-.023-.074-.017z"/>
      <path fill="#fff" d="m148.716 209.791-.101.025.053-.072.092.148-.161.099z" opacity=".3"/>
      <path fill="#86786A" d="m148.747 209.857-.009.044.011.025-.04.018-.011-.026.025-.01-.066-.041z" opacity=".3"/>
      <path fill="#86786A" d="m148.971 208.885.057.042-.066.101.008-.044-.034-.014-.032.112-.087.009.053-.023-.015-.033.031.006.001-.098-.184.08zM159.191 209.337l-.197-.019.125-.116-.206.058.252-.324-.09-.076.222-.308-.074-.012.34-.196.1-.225.747.221.078.252-.035-.011.045.128-.15.392.013.064-.442.544.036-.059-.063-.048-.058.202-.04-.243-.151.099.032-.067-.229.099-.191-.195-.184.096zM150.153 209.078l.003.067.161-.007-.004-.068-.114.005.201-.098-.091.185-.222.017zM151.558 208.748l.256.129.012.116.246.145-.804.199.026-.084-.099.001zM152.195 210.067l-.038.021.077-.182-.101.001-.008.026.045-.146-.031-.003.707-.495.168.084.175.325-.063.246.355.106v.419l-.252.225-.373.033.055-.131-.137.073.059-.082-.069-.036.035-.069-.069-.035.043-.073-.151-.093-.209.069.036-.069-.117.01-.007.024.01-.077-.143.056zM154.011 213.169l-.063-.018.31-.479.399-.068.075.52-.37.267-.013.036.029-.086-.317.065z"/>
      <path fill="#fff" d="m152.704 210.342-.009-.017.057-.031.009.017z" opacity=".3"/>
      <path fill="#86786A" d="m153.515 209.242-.002.053-.103-.016zM154.233 208.95l-.029-.015.003-.125.943-.17-.093.37-.152.135-.077-.009-.079.043-.211-.027.024-.013-.347-.036zM156.949 208.876l-.027-.088.072-.183-.024-.008.551-.33.277.34-.103.354-.313.221-.007-.068-.146.05-.014-.065-.116.012-.007-.068-.071.018z"/>
      <path fill="#fff" d="m157.416 208.796-.126.09z" opacity=".3"/>
    </g>
    <path fill="#544436" d="M163.63 203.934h-19.725l-.304 1.175h20.029z"/>
    <path fill="#fff" d="M280.683 31.536a2.13 2.13 0 0 0-1.01-.424c-1.027-.168-1.556.485-1.972.196-.312-.217-.059-.604-.371-1.31-.035-.078-.449-.976-1.406-1.338-.793-.3-1.531-.068-1.828.025-1.126.353-1.468 1.116-1.862.944-.348-.152-.17-.78-.526-1.807-.074-.212-.372-1.021-1.005-1.665a3.6 3.6 0 0 0-1.25-.823c-1.675.756-3.252 1.715-4.731 2.816-1.635 1.218-3.561.517-5.453.699-1.304.125-2.409.801-3.428 1.58-.47.36-.711.732-1.086 1.172-.094.11-.254.333-.421.376-.376.099-.969-.192-1.436-.432.108.33.31.498.26.557-.057.067-.329-.13-.707-.265-.456-.163-.843-.154-1.083-.154a3.37 3.37 0 0 0-1.75.512c-.149.095-1.472.965-1.466 2.34.003.8.455 1.558 1.036 1.969.666.472 1.054.168 2.38.698.787.314.697.44 1.42.71 1.065.399 1.992.401 2.535.397.681-.004 1.467-.01 2.392-.356 1.026-.384 1.627-.966 2.405-.728.205.062.214.126.539.223.17.051.743.212 1.497.154 1.254-.095 1.544-.682 2.395-.764.984-.096 1.492.724 2.429 1.11 3.304 1.36 7.992.603 9.349-1.62.263-.43.311-.769.747-1.099 1.057-.8 2.255.05 3.365-.762.106-.078.75-.565.809-1.347.068-.902-.696-1.528-.767-1.585"/>
    <path fill="#fff" d="M280.707 35.232c-.984.484-2.85-.263-3.273.09-.119.098-.211.211-.211.211-.18.235-.184.453-.686 1.01-.826.917-1.78 1.344-1.819 1.29-.056-.08 1.031-.607 1.954-1.859.397-.537 1.737-2.356 1.117-4.3a3.66 3.66 0 0 0-1.436-1.894c-1.563-1.027-3.3-.338-3.421-.288-.7.292-1.15.742-1.386 1.015a4.24 4.24 0 0 0-1.379-1.865c-.864-.659-1.737-.781-2.212-.84-1.631-.206-2.902.457-3.266.653-1.042.561-1.205 1.071-1.741 1.392a2 2 0 0 1-.51.208 2 2 0 0 1-.507.07c-.471-.867-1.408-1.222-2.093-.939-.635.263-.83.98-.856 1.082a2.1 2.1 0 0 0-.954-.325c-.642-.05-1.117.235-1.397.402-1.135.679-1.547 1.918-1.664 2.321-.269-.159-.647-.318-1.02-.209-.459.134-.53.564-.877.593-.436.037-.618-.62-1.164-.96-.395-.248-1.069-.384-2.287.105.34-.202.964-.504 1.75-.512.245-.002.634-.023 1.083.154.116.046.209.094.274.13a1.6 1.6 0 0 1-.046-.58c.012-.103.053-.434.285-.735.34-.44.985-.682 1.462-.51.341.124.514.432.59.38s-.142-.325-.118-.702c.033-.539.537-.893.608-.94.128-.088.555-.379 1.044-.222.309.098.487.325.555.424a2.26 2.26 0 0 1 .36-1.346c.071-.108.586-.861 1.552-.966.733-.079 1.27.264 1.418.362.446.294.672.675.77.867.051-.109.191-.367.485-.516.501-.254.998.012 1.055.044.376.21.511.564.546.665.074-.438.303-1.427 1.121-2.296.912-.97 2.376-1.605 3.835-1.309 1.317.268 2.108 1.172 2.457 1.57a5.5 5.5 0 0 1 1.004 1.666c.185.514.251.97.276 1.296a4.4 4.4 0 0 1 1.997-.862c.404-.062 1.127-.163 1.951.165.871.348 1.342.97 1.547 1.25.459.625.629 1.244.698 1.598a2.6 2.6 0 0 1 1.496-.158c.794.16 1.732.768 1.946 1.806.183.89-.195 1.96-.911 2.314z"/>
    <path fill="#fff" d="M279.972 32.118c-.846-.484-1.794-.177-2.089-.081-.913.296-.872.72-1.576.822-.813.117-.997-.434-1.829-.328-.764.098-.813.598-1.623.713-.561.08-.644-.145-1.653-.325-.418-.074-1.338-.23-2.395-.031-.423.079-1.058.25-1.777.665-.238.382-.772 1.262-1.846 1.662-.817.304-1.765.386-2.624.33-.607-.04-3.172-.369-3.442-1.356-.812.649-1.656 1.314-2.684 1.541-.511.113-1.604.34-2.717-.228a3.5 3.5 0 0 1-1.098-.885 2.8 2.8 0 0 1-1.499.274c-1.587-.169-2.358-1.73-2.417-1.852a3 3 0 0 0-.551 1.498c-.014.192-.093 1.506.957 2.409 1.011.87 2.242.645 2.395.615.371.328 1.914 1.613 4.238 1.599 2.623-.017 4.264-1.678 4.555-1.982.129.133 1.012 1.012 2.385.936 1.31-.071 2.077-.958 2.202-1.108.504.31 1.279.735 2.283 1.092 1.026.366 4.828 1.718 8.289-.168.619-.338 1.571-.966 2.493-2.121 1.299.447 2.578-.05 2.989-.928.308-.656.108-1.479-.218-2.012a2.1 2.1 0 0 0-.748-.75"/>
    <path fill="#EFF6FF" d="M237.911 62.013c-1.749 1.256-3.613-.09-5.279 1.15-.687.51-.765 1.038-1.183 1.71-2.156 3.463-9.507 4.586-14.663 2.41-1.463-.617-2.248-1.907-3.79-1.77-1.384.122-1.81.723-3.759 1.166-1.535.349-2.733.231-4.395.056-2.808-.298-3.633-.885-5.612-1.263-5.577-1.063-8.105 1.886-10.547-.011-1.136-.884-1.734-2.412-1.649-3.774.142-2.236 2.094-3.5 2.327-3.645 1.115-.694 2.248-.757 2.748-.778 2.005-.087 2.631.847 3.644.45.989-.389.799-1.438 1.842-3.38.375-.7 2.276-4.065 5.409-4.668.657-.128 1.635-.312 2.534.183 1.185.652 1.486 1.897 2.027 1.777.33-.073.27-.524.767-.802.508-.286 1.197-.165 1.651.081.971.529.924 1.667 1.343 1.687.527.026.581-1.767 1.702-3.247 1.584-2.094 4.345-2.303 4.555-2.315.178-.012 2.973-.14 4.881 1.835.983 1.017 1.439 2.289 1.551 2.62.544 1.614.258 2.595.8 2.838.613.275 1.16-.916 2.927-1.452.468-.142 1.625-.495 2.863-.015 1.493.578 2.131 1.99 2.184 2.113.481 1.11.079 1.714.564 2.057.649.458 1.486-.557 3.092-.28.282.049.947.172 1.576.678.111.09 1.298 1.08 1.18 2.493-.103 1.224-1.118 1.978-1.286 2.099z"/>
    <path fill="#EFF6FF" d="M222.63 68.427c-2.069 0-4.113-.382-5.855-1.117-.545-.23-.992-.55-1.424-.859-.716-.511-1.392-.995-2.351-.91-.721.064-1.192.263-1.736.493-.511.216-1.091.462-2.021.672-1.571.356-2.821.224-4.405.057-1.706-.18-2.648-.466-3.559-.742-.63-.192-1.225-.372-2.054-.52-2.585-.466-4.421-.063-5.895.26-1.659.364-2.254.372-3.112.196-.397-.082-.918-.189-1.456-.536-1.228-.795-1.812-2.378-1.759-3.734.083-2.102 1.645-3.413 2.193-3.767.275-.178 1.974-1.513 4.285-1.255.631.07 1.136.237 1.47.373-.111-.59-.599-3.501 1.263-5.97 1.896-2.513 5.585-3.723 8.439-2.375 1.679.794 2.547 2.223 2.899 2.905.032-.107.232-.75.897-1.073.781-.38 1.517.017 1.596.061.841.472.899 1.433.902 1.492 1.175-2.973 3.787-4.98 6.626-5.074 2.669-.09 4.532 1.544 4.883 1.864 2.323 2.115 2.364 4.968 2.363 5.432.212-.342 1.017-1.545 2.625-2.067.394-.129 1.824-.568 3.381.157.244.114 1.65.795 2.281 2.442.354.925.309 1.747.256 2.173a3.9 3.9 0 0 1 1.317-.518c.174-.033 1.969-.343 3.352.917.295.268 1.303 1.182 1.192 2.517-.099 1.172-1.018 1.919-1.298 2.119-.885.636-1.807.61-2.698.586-.905-.024-1.758-.049-2.58.563-.474.353-.654.712-.864 1.128a7 7 0 0 1-.314.576c-1.025 1.647-3.295 2.862-6.225 3.332-.862.14-1.742.208-2.615.208zm-9.412-2.954c.525.018 1.152.206 2.164.931.43.308.875.626 1.414.854 2.468 1.04 5.545 1.372 8.441.906 2.915-.468 5.17-1.673 6.186-3.307.126-.201.22-.39.311-.571.212-.422.396-.787.88-1.148.838-.624 1.741-.6 2.615-.575.882.024 1.793.05 2.663-.576.274-.197 1.178-.93 1.274-2.079.115-1.386-1.04-2.361-1.171-2.469-.634-.511-1.309-.627-1.563-.672-.812-.14-1.469.073-1.958.23-1.279.41-1.472.977-1.912.834-.725-.236-.278-1.79-1.344-2.928-.735-.785-1.757-.91-2.046-.945-1.561-.19-3.184.718-4.168 2.285-1.27-2.708-2.529-3.415-3.46-3.544-2.232-.31-3.654 2.553-6.685 2.52-1.416-.015-2.563-.654-3.303-1.18-.028.131-.281 1.246-1.259 1.654-.179.074-.893.388-1.573 0-.553-.316-.719-.888-.753-1.021-.046.28-.705 3.92-4.077 5.412-2.752 1.218-5.31.12-5.784-.094a7.35 7.35 0 0 1-2.749-2.185c-.311.537-.822 1.201-1.612 1.424-.913.259-1.446-.288-2.465-.38-1.44-.129-3.414.69-4.029 2.277-.694 1.791.622 3.853 2.045 4.726.828.51 1.59.53 2.989.552 2.561.039 8.696-.542 9.006-.441l.032.01c.068.02.219.07.412.125.274.08.639.18 1.072.278.552.124 1.201.237 2.032.325 1.579.168 2.827.3 4.387-.055.379-.086.701-.179.982-.272.485-.16.766-.291 1.029-.399.672-.271 1.307-.53 1.977-.507z"/>
    <path fill="#EFF6FF" d="M215.413 63.415c-1.801.236-3.361-.42-4.325-.945-.755.9-1.959 2.039-3.381 1.969-1.253-.062-1.406-.998-2.752-1.418-2.126-.662-3.156 1.228-7.484 1.963-1.729.293-2.688.456-3.857.035-1.483-.532-2-1.534-3.357-1.642-1.07-.086-1.99.434-2.6.886a6.8 6.8 0 0 0 1.336 1.638c1.643 1.464 3.566 1.689 4.819 1.836 2.024.237 3.613-.102 5.323-.465a24 24 0 0 0 3.068-.866c.561.204 1.363.479 2.341.753 2.525.71 4.734 1.004 7.726 1.215 2.237.16 5.92.344 10.66.128 3.208-.146 5.367-.406 7.403-1.892a9.2 9.2 0 0 0 1.676-1.582c.549.193 1.714.509 3.009.101 1.744-.549 3.243-2.26 2.897-3.12-.114-.285-.489-.625-3.071-.725-4.059-.156-5.025.613-7.679.406-3.315-.259-3.178-1.567-5.377-1.273-2.836.38-3.527 2.62-6.37 2.994z"/>
    <path fill="#EFF6FF" d="M243.483 62.278a5.4 5.4 0 0 0-1.324-1.015c-.324-.178-.888-.478-1.623-.568-1.219-.149-2.199.369-2.608.62-.3-.321-2.073-2.158-4.936-2.184-2.622-.023-4.334 1.488-4.702 1.83a3.2 3.2 0 0 0-1.679-.369c-1.59.109-2.473 1.455-2.581 1.624a5.3 5.3 0 0 0-1.112-.496c-.498-.156-1.496-.469-2.549-.09-.363.13-1.149.413-1.332 1.112-.005.025-.148.6.174 1.004.556.694 2.056.263 2.42.263 3.491.004 24.176 2.209 24.781-.63.069-.32-.097-.818-.406-1.104-.701-.65-2.09-.167-2.526 0z"/>
    <path fill="#EFF6FF" d="M243.284 62.971a3.6 3.6 0 0 0-1.221-.862c-.963-.406-1.865-.257-2.316-.177-4.124.73-4.45 1.325-5.974 1.224-2.266-.152-2.813-1.443-5.395-1.496-.832-.017-1.683.046-2.58.375a6.4 6.4 0 0 0-1.735.972c-.603-.24-2.174-.77-3.752-.087-.314.136-1.131.49-1.099.83.076.814 4.899.418 11.986 1.112 0 0 10.615 1.04 14.276-.641.254-.118.956-.44.939-.837-.013-.288-.402-.489-.558-.567-.968-.493-2.122-.047-2.572.156zM79.47 63.771c-1.837 1.32-3.795-.095-5.544 1.207-.722.538-.804 1.092-1.244 1.798-2.264 3.636-9.986 4.817-15.4 2.531-1.536-.647-2.36-2.003-3.98-1.86-1.454.129-1.9.76-3.949 1.226-1.611.365-2.87.244-4.617.058-2.949-.311-3.815-.93-5.894-1.326-5.857-1.117-8.513 1.981-11.079-.013-1.194-.926-1.822-2.533-1.73-3.964.148-2.347 2.199-3.676 2.442-3.828 1.17-.728 2.361-.794 2.885-.816 2.107-.092 2.762.891 3.828.471 1.039-.409.84-1.51 1.934-3.55.394-.735 2.39-4.27 5.682-4.902.69-.132 1.718-.327 2.661.192 1.244.687 1.56 1.992 2.128 1.866.347-.077.284-.548.806-.842.533-.3 1.259-.172 1.735.086 1.018.554.969 1.75 1.41 1.772.553.028.61-1.856 1.786-3.41 1.663-2.2 4.564-2.42 4.784-2.432.187-.011 3.123-.147 5.128 1.928 1.032 1.067 1.511 2.404 1.629 2.751.571 1.695.27 2.726.84 2.98.643.289 1.218-.96 3.074-1.525.49-.149 1.707-.52 3.007-.017 1.57.607 2.238 2.091 2.293 2.22.506 1.165.083 1.8.592 2.16.681.481 1.56-.584 3.247-.295.297.052.996.18 1.656.712.117.095 1.364 1.134 1.24 2.618-.108 1.285-1.174 2.078-1.35 2.204"/>
    <path fill="#EFF6FF" d="M63.42 70.509c-2.173 0-4.32-.402-6.15-1.174-.571-.242-1.042-.578-1.496-.903-.751-.537-1.462-1.045-2.47-.955-.757.066-1.25.275-1.823.517-.537.228-1.145.484-2.123.706-1.648.374-2.964.235-4.627.059-1.79-.189-2.78-.49-3.736-.78-.661-.2-1.286-.39-2.158-.546-2.714-.49-4.643-.066-6.19.273-1.742.382-2.368.39-3.268.206-.416-.087-.965-.199-1.53-.564-1.289-.834-1.902-2.496-1.845-3.921.086-2.207 1.727-3.585 2.302-3.955.29-.187 2.073-1.589 4.502-1.32.663.074 1.192.25 1.544.393-.117-.62-.628-3.675 1.328-6.271 1.99-2.64 5.864-3.909 8.863-2.493 1.762.833 2.674 2.335 3.046 3.05.033-.111.243-.788.941-1.128.82-.398 1.593.019 1.676.065.883.495.945 1.504.947 1.566 1.234-3.122 3.978-5.231 6.96-5.33 2.804-.094 4.76 1.621 5.13 1.957 2.44 2.223 2.482 5.218 2.482 5.706.223-.36 1.068-1.623 2.756-2.171.414-.134 1.916-.596 3.552.165.256.119 1.732.834 2.395 2.564a4.7 4.7 0 0 1 .268 2.282 4.1 4.1 0 0 1 1.384-.545c.184-.035 2.068-.361 3.52.963.31.283 1.369 1.242 1.252 2.643-.103 1.231-1.07 2.015-1.363 2.225-.93.668-1.898.642-2.834.617-.95-.026-1.847-.052-2.71.59-.498.37-.687.749-.907 1.185-.097.193-.196.391-.33.606-1.076 1.73-3.46 3.004-6.538 3.5-.907.145-1.83.216-2.748.216zm-9.886-3.102c.551.018 1.21.217 2.273.978.452.323.92.656 1.485.897 2.592 1.093 5.825 1.44 8.865.952 3.062-.492 5.43-1.758 6.498-3.473.132-.212.231-.409.326-.6.224-.443.416-.827.924-1.205.879-.654 1.83-.629 2.747-.603.927.026 1.883.051 2.797-.605.287-.208 1.236-.978 1.339-2.183.122-1.457-1.092-2.48-1.23-2.592-.666-.538-1.375-.66-1.64-.706-.854-.147-1.543.075-2.057.24-1.343.431-1.546 1.027-2.008.877-.762-.248-.293-1.879-1.412-3.075-.773-.825-1.844-.955-2.148-.992-1.641-.2-3.345.754-4.378 2.4-1.335-2.846-2.656-3.589-3.634-3.724-2.346-.325-3.837 2.682-7.022 2.647-1.487-.017-2.692-.688-3.469-1.242-.03.14-.295 1.31-1.322 1.737-.189.079-.938.409-1.652 0-.58-.332-.755-.932-.791-1.073-.048.293-.74 4.118-4.283 5.684-2.89 1.279-5.577.127-6.075-.099a7.75 7.75 0 0 1-2.888-2.294c-.326.563-.863 1.262-1.693 1.496-.96.272-1.518-.302-2.59-.4-1.512-.135-3.586.725-4.23 2.392-.73 1.882.653 4.047 2.148 4.964.87.534 1.67.558 3.14.58 2.688.04 9.131-.569 9.458-.464l.034.01a18.28 18.28 0 0 0 1.559.424c.58.13 1.262.25 2.135.342 1.658.176 2.968.313 4.607-.06.4-.089.736-.186 1.031-.284.51-.168.806-.306 1.08-.418.706-.286 1.374-.556 2.078-.532z"/>
    <path fill="#EFF6FF" d="M55.84 65.244c-1.892.248-3.531-.44-4.544-.992-.793.944-2.059 2.14-3.551 2.069-1.317-.064-1.476-1.048-2.892-1.49-2.231-.695-3.315 1.29-7.861 2.062-1.815.308-2.823.479-4.052.039-1.557-.56-2.1-1.61-3.527-1.725-1.123-.09-2.09.457-2.73.932.266.453.708 1.1 1.404 1.72 1.725 1.538 3.745 1.775 5.062 1.929 2.127.247 3.795-.107 5.59-.488a26 26 0 0 0 3.222-.91 35 35 0 0 0 2.46.792c2.652.745 4.972 1.055 8.113 1.277 2.35.167 6.218.36 11.197.134 3.368-.154 5.637-.426 7.775-1.987a9.7 9.7 0 0 0 1.76-1.662c.577.204 1.8.536 3.16.107 1.83-.576 3.406-2.374 3.041-3.278-.12-.3-.514-.657-3.225-.761-4.262-.164-5.279.644-8.064.427-3.482-.271-3.34-1.647-5.647-1.337-2.978.4-3.703 2.751-6.69 3.144z"/>
    <path fill="#EFF6FF" d="M85.321 64.05a5.7 5.7 0 0 0-1.39-1.066c-.34-.185-.932-.5-1.703-.596-1.28-.156-2.31.387-2.74.651-.315-.337-2.176-2.267-5.185-2.295-2.755-.023-4.552 1.563-4.94 1.92a3.3 3.3 0 0 0-1.764-.386c-1.67.114-2.597 1.528-2.71 1.706-.255-.15-.65-.36-1.167-.521-.524-.163-1.572-.492-2.678-.094-.381.138-1.207.435-1.397 1.169-.008.025-.156.63.183 1.055.582.728 2.157.275 2.542.276 3.667.006 25.393 2.32 26.028-.662.072-.335-.102-.858-.427-1.159-.736-.682-2.194-.174-2.652 0z"/>
    <path fill="#EFF6FF" d="M85.112 64.775a3.8 3.8 0 0 0-1.284-.906c-1.01-.425-1.958-.27-2.43-.187-4.332.767-4.676 1.392-6.273 1.286-2.381-.16-2.954-1.515-5.667-1.57-.874-.019-1.767.047-2.709.392-.822.301-1.432.714-1.822 1.022-.632-.253-2.284-.809-3.94-.092-.33.143-1.189.516-1.154.872.08.854 5.145.438 12.588 1.168 0 0 11.15 1.091 14.994-.675.267-.123 1.003-.462.987-.879-.013-.304-.423-.513-.586-.596-1.017-.517-2.23-.05-2.702.163z"/>
    <path fill="#fff" d="M181.146 39.425c-3.194 2.368-7.671 1.804-8.777 1.64a16.7 16.7 0 0 1-4.873 4.365c-7.572 4.468-17.383 2.383-21.469 1.516a43 43 0 0 1-5.216-1.456c-.878.47-3.734 1.862-7.511 1.445a12.4 12.4 0 0 1-5.117-1.737 40 40 0 0 1-13.465 3.258c-4.901.304-10.953.709-14.79-2.722-.449-.401-3.305-3.037-2.886-6.683.078-.691.53-3.647 3.391-5.29 1.928-1.109 4.062-1.11 4.567-1.11.682 0 1.661 0 2.816.363.983.31 1.683.753 1.834.606.145-.141-.485-.573-.728-1.438-.071-.252-.294-1.021.129-1.642.693-1.02 2.504-.989 2.727-.983 1.518.038 2.431.85 2.747.568.241-.214-.308-.672-.292-1.57.002-.143.037-1.085.807-1.757.77-.67 1.953-.825 2.848-.657 1.213.227 1.601.984 2.108.807.534-.186.251-1.078.689-2.321.131-.372.728-2.142 2.426-2.816 1.949-.773 3.928.128 4.211.261 1.969.932 2.47 2.705 3.369 2.534.547-.104.449-.745 1.275-1.144.845-.408 1.991-.235 2.745.117 1.613.754 1.535 2.379 2.233 2.408.875.037.965-2.52 2.828-4.632 2.632-2.987 7.224-3.286 7.572-3.305.298-.016 4.943-.2 8.115 2.619 1.631 1.45 2.391 3.265 2.576 3.738.905 2.303.429 3.701 1.332 4.049 1.019.39 1.927-1.307 4.865-2.073.778-.202 2.703-.705 4.76-.02 2.484.824 3.542 2.84 3.631 3.014.798 1.583.13 2.446.937 2.933 1.078.654 2.47-.795 5.14-.4.471.07 1.577.245 2.619.967.185.128 2.16 1.54 1.963 3.556-.149 1.52-1.44 2.477-2.138 2.993z"/>
    <path fill="#fff" d="M181.349 32.843c-.328-.235-1.315-.78-2.641-.975-1.408-.207-2.458.09-3.3.33-.768.218-1.326.377-1.82.077-.397-.24-.421-.57-.455-1.069-.034-.478-.074-1.073-.466-1.85-.113-.224-1.175-2.21-3.657-3.034-2.071-.688-3.976-.192-4.79.02-1.509.395-2.494 1.038-3.214 1.508-.69.45-1.147.748-1.619.567-.475-.184-.549-.673-.672-1.484-.103-.672-.227-1.509-.634-2.54-.263-.673-1.046-2.382-2.588-3.755-3.214-2.855-7.952-2.641-8.153-2.63-3.957.205-6.444 2.331-7.607 3.32a12.6 12.6 0 0 0-2.552 2.947 4.5 4.5 0 0 0-2.609-1.393c-.339-.056-1.285-.196-2.339.205a3.76 3.76 0 0 0-1.498 1.03 4.8 4.8 0 0 0-2.216-2.576c-2.076-1.145-4.351-.531-4.978-.36a6.84 6.84 0 0 0-3.357 2.06 5.65 5.65 0 0 0-1.198 2.165 5.3 5.3 0 0 0-1.738-.154c-.443.034-1.706.136-2.639 1.03a2.93 2.93 0 0 0-.899 1.906 24.5 24.5 0 0 0-5.235.294c-1.454.24-3.409.557-5.255 1.51-4.125 2.125-5.614 6.296-5.396 6.414.126.069.724-1.341 2.57-2.157 1.498-.662 3.644-.856 5.267-.306.306.103 1.583.57 2.51.914.628.232.747.284.988.342.458.113 1.496.358 2.655.11 2.294-.495 3.298-2.549 3.443-2.861.641-.083 2.84-.44 4.471-2.108a5.74 5.74 0 0 0 1.442-2.478 7 7 0 0 0 2.272 1.144c.503.147 2.028.577 3.679.147 2.721-.712 3.67-3.212 3.761-3.464a4.1 4.1 0 0 1 2.614-.9c.332.003 1.364.056 2.217.687 1.132.839.999 1.995 1.486 2.023.459.026.813-.985 1.549-2.448.661-1.313 1.412-2.558 1.796-3.087 1.971-2.724 6.313-3.307 6.687-3.353.438-.054 5.042-.557 8.196 2.084.545.457 1.846 1.89 2.566 3.724.404 1.026.529 1.858.629 2.527.123.809.203 1.344.726 1.545s1.022-.125 1.714-.576c.714-.466 1.691-1.104 3.186-1.495.804-.209 2.687-.7 4.73-.022 2.446.812 3.491 2.77 3.604 2.992.384.762.426 1.35.459 1.822.034.503.06.866.494 1.128.533.324 1.139.152 1.903-.065.833-.237 1.87-.533 3.256-.327.422.062 1.545.228 2.599.958 1.87 1.294 1.93 3.524 1.946 3.52.017-.003.012-2.222-1.888-3.583z"/>
    <path fill="#fff" d="M182.474 34.247c-1.225-.634-2.954 1.44-5.72 2.268-4.046 1.213-8.318 1.716-12.715 1.547-3.515-.135-7.286-.411-10.643-1.367-3.373-.96-6.237-2.763-9.941-2.586-7.124.338-12.729 4.959-19.523 6.295-5.147 1.011-10.368-.327-14.4-3.092-.563.342-1.43.803-2.572 1.172-1.384.444-3.506 1.127-5.678.394-2.088-.706-3.075-2.33-3.393-2.925-.402.807-.998 2.315-.837 4.209 0 0 .27 3.165 2.876 5.571 3.741 3.452 9.97 3.022 14.791 2.723a40 40 0 0 0 13.465-3.259 12.4 12.4 0 0 0 5.116 1.737c3.777.417 6.631-.974 7.512-1.445 1.158.405 2.957.977 5.215 1.458 4.089.869 13.899 2.954 21.47-1.516a16.8 16.8 0 0 0 4.873-4.365c1.104.166 5.581.728 8.777-1.64.669-.498 2.003-1.47 2.138-2.994.016-.175.128-1.7-.809-2.183z"/>
    <path fill="#fff" d="M145.149 30.326c2.974-.662 5.545-.138 6.478.06a15.3 15.3 0 0 1 4.66 1.82c.052-.478.513-4.004 4.165-6.075 3.707-2.102 7.685-.999 8.459-.785 4.574 1.267 6.362 4.788 6.625 5.331.561-.13 3.302-.71 5.959.648.716.367 3.564 1.966 3.504 4.628-.069 2.992-3.749 4.511-4.001 4.611-2.807 1.114-6.361.483-9.02-1.585a18.2 18.2 0 0 1-4.453 3.592c-9.907 5.69-22.853 1.068-24.259.546a31 31 0 0 1-2.367-.993c-1.088.663-3.801 2.115-7.437 1.972-1.386-.056-5.746-.228-7.204-2.94-.879-1.636-.385-3.598.675-4.937 1.454-1.838 3.747-2.218 4.369-2.311 3.32-.503 5.796 1.293 6.15 1.557.579-.831 3.007-4.095 7.697-5.137z"/>
  </g>
  <defs>
    <clipPath id="7a">
      <rect width="260" height="260" fill="#fff" rx="130"/>
    </clipPath>
  </defs>
</svg>
