<svg xmlns="http://www.w3.org/2000/svg" fill="none" viewBox="0 0 260 260">
  <path fill="#fff" d="M0 0h260v260H0z"/>
  <path fill="#000" d="M218.703 54.466a50.6 50.6 0 0 0-9.733-9.269 31.1 31.1 0 0 0-11.952-5.75c-9.547-1.995-19.168 3.011-26.44 8.598s-13.146 12.697-15.476 21.404-1.063 18.14 4.755 24.941c5.817 6.802 16.296 10.884 25.041 7.256 2.069-.853 1.1-4.009-1.1-3.301a20 20 0 0 1-10.507.28 19.6 19.6 0 0 1-9.127-5.07c-5.594-5.44-7.235-13.694-5.837-21.077 1.714-7.851 6.143-14.894 12.549-19.952a53.8 53.8 0 0 1 10.33-6.785 24.9 24.9 0 0 1 12.623-3.047 24.35 24.35 0 0 1 11.952 4.517c3.935 2.648 7.141 6.094 10.852 9.07 1.231.78 3.096-.545 2.07-1.815"/>
  <path fill="#000" d="M186.474 45.165a7.4 7.4 0 0 0-3.563-1.962 7.8 7.8 0 0 0-4.135.167 1.23 1.23 0 0 0-.73.58 1.1 1.1 0 0 0-.078.892c.102.295.326.54.622.682.296.141.64.167.957.072a5.5 5.5 0 0 1 2.757.375c.865.357 1.609.93 2.15 1.653a5.8 5.8 0 0 1 1.134 2.858 5.7 5.7 0 0 1-.499 3.012c-.948 2.19-2.577 4.065-4.677 5.385a32 32 0 0 1-3.406 1.902 12.2 12.2 0 0 0-3.656 1.92 1.32 1.32 0 0 0-.2 1.508c.126.244.325.447.572.587s.532.21.821.203a6.95 6.95 0 0 0 2.675-.915 47 47 0 0 0 2.175-1.023 24.6 24.6 0 0 0 4.042-2.46c2.661-1.87 4.54-4.55 5.311-7.574a7.95 7.95 0 0 0-.059-4.201 8.36 8.36 0 0 0-2.213-3.66"/>
  <path fill="#000" d="M181.999 56.108a.9.9 0 0 0-.109-.328.97.97 0 0 0-.29-.418 1.5 1.5 0 0 0-.636-.328.96.96 0 0 0-.509 0 1.1 1.1 0 0 0-.49.164l-.399.291q-.228.17-.418.382l-.182.2-.308.4-.309.4a.88.88 0 0 0-.254.455.9.9 0 0 0-.09.492v.309c.041.162.122.313.235.436a.75.75 0 0 0 .255.219c.136.112.298.187.471.218h.328c.219-.014.431-.083.617-.2.345-.273.708-.546 1.034-.837l.201-.164a.8.8 0 0 0 .163-.181q.269-.329.49-.692l.127-.346c.056-.15.08-.312.073-.472M194.829 69.72l-.139-.257a.77.77 0 0 0-.34-.315.5.5 0 0 0-.279-.128.6.6 0 0 0-.31 0 .7.7 0 0 0-.309 0 .9.9 0 0 0-.433.157l-.124.071q-.179.127-.325.286l-.17.229a3 3 0 0 0-.248.357.3.3 0 0 0 0 .115v.128a1 1 0 0 0-.123.3.66.66 0 0 0 0 .286.65.65 0 0 0 0 .386l.123.243a.8.8 0 0 0 .31.272q.108.09.248.129a1.1 1.1 0 0 0 .433 0h.278l.294-.143h.093l.263-.2a.7.7 0 0 1 .108-.1.9.9 0 0 0 .217-.2l.186-.215q.16-.154.263-.343c0-.129.109-.272.155-.4v-.3zM204 71a1.3 1.3 0 0 1-.284-.258 21 21 0 0 1-1.57-4.062 15.6 15.6 0 0 0-2.023-3.507 11 11 0 0 0-1.173-1.31 17.8 17.8 0 0 0-5.353-3.692 1.17 1.17 0 0 1-.521-.6 1.14 1.14 0 0 1-.012-.784c.089-.255.267-.472.502-.614.236-.141.514-.199.787-.162 1.538.362 2.999.987 4.313 1.846a15.5 15.5 0 0 1 3.518 3.12c0 .701.151 1.421.246 2.14A66 66 0 0 0 204 71M180.425 72.407a7.6 7.6 0 0 0-2.854-.3h-1.119a10 10 0 0 1-1.306-.3c-1.568-.481-3-1.33-4.178-2.478a1.19 1.19 0 0 0-1.641 0 1.204 1.204 0 0 0 0 1.652 11.4 11.4 0 0 0 8.113 3.96 4.12 4.12 0 0 0 3.228-.808 1.07 1.07 0 0 0 .136-1.395 1.06 1.06 0 0 0-.379-.331M232.379 123.001a128.6 128.6 0 0 1-2.172-18.911c-.225-6.383-.131-12.766-.674-19.131-.956-11.24-4.028-23.914-13.205-31.603a1.405 1.405 0 0 0-1.966.091 1.35 1.35 0 0 0 .093 1.932c7.098 7.358 10.283 16.942 11.388 26.84 1.348 12.25.206 24.612 2.36 36.79a103.6 103.6 0 0 1 2.547 18.083c0 5.941-2.397 11.423-3.09 17.291a24.6 24.6 0 0 0 .543 8.352 45.3 45.3 0 0 1 1.629 7.837 8.63 8.63 0 0 1-2.172 6.162 37 37 0 0 0-4.028 5.151 7.6 7.6 0 0 0-.975 3.61 7.6 7.6 0 0 0 .864 3.638 65 65 0 0 0 4.419 5.72c3.746 5.519-2.641 10.78-6.311 14.275-1.405 1.325.655 3.68 2.228 2.594 4.476-3.348 9.084-8.002 8.803-13.962a11.28 11.28 0 0 0-3.259-6.917 9.77 9.77 0 0 1-3.128-4.856 6.9 6.9 0 0 1 .672-2.677c.402-.84.97-1.593 1.669-2.216a21.1 21.1 0 0 0 4.064-5.868c2.042-5.519-1.03-10.799-1.592-16.244-.618-5.886 1.967-11.534 2.716-17.291a59.8 59.8 0 0 0-1.423-18.69"/>
  <path fill="#000" d="M205.654 83.083a37.8 37.8 0 0 1-3.918-9.318 56.5 56.5 0 0 1-2.192-9.609c0-.564-.162-1.128-.223-1.674a75 75 0 0 1-.304-3.876v-4.204a26.2 26.2 0 0 1 1.522-9.773c.487-1.11 2.395-.62 2.435.455.183 3.148-.487 6.351-.507 9.518a55 55 0 0 0 .345 7.08c0 .691.163 1.4.264 2.11a60 60 0 0 0 1.684 7.699c.142.473.285.964.447 1.456.467 1.474.995 2.93 1.604 4.386s1.421 2.93 2.03 4.44c.193.379.211.811.049 1.202s-.489.708-.912.882a1.94 1.94 0 0 1-1.341.045 1.7 1.7 0 0 1-.983-.819"/>
  <path fill="#000" d="M205.788 80.036a1.46 1.46 0 0 0-1.156.222 1.6 1.6 0 0 0-.429.438q-.172.264-.235.577c-.4 4.206-3.511 7.214-6.786 9.288-3.639 2.322-7.824 3.807-11.28 6.471a50 50 0 0 0-4.657 4.644c-1.515 1.653-3.525 2.714-5.696 3.007-4.584.609-9.205-.894-13.735.343-2.194.55-4.129 1.9-5.459 3.807a6.3 6.3 0 0 0-1.313 3.184 6.4 6.4 0 0 0 .549 3.42c.145.229.357.401.605.492.247.091.516.095.765.01.25-.084.466-.251.616-.476s.226-.494.216-.768a6.2 6.2 0 0 1 .31-2.695c.3-.861.785-1.639 1.418-2.273a8.33 8.33 0 0 1 5.549-2.132c4.476-.285 9.097 1.066 13.427-.456s6.313-5.539 9.752-8.032c3.438-2.493 7.659-3.959 11.261-6.376 3.603-2.417 7.006-6.167 7.479-10.887a1.72 1.72 0 0 0-.272-1.143 1.59 1.59 0 0 0-.929-.665M219.485 81.956a6.9 6.9 0 0 0-2.775-2.291 7.3 7.3 0 0 0-3.611-.644c-1.225.113-1.522 2.032-.158 2.163.827.093 1.624.35 2.339.756a5.8 5.8 0 0 1 1.813 1.596 5.1 5.1 0 0 1 .872 2.277c.1.813-.002 1.638-.299 2.407-.7 1.617-1.942 2.968-3.534 3.842a8.68 8.68 0 0 1-5.264.992 1.67 1.67 0 0 0-1.158.226 1.52 1.52 0 0 0-.679.922 1.43 1.43 0 0 0 .231 1.116q.173.246.431.41c.17.11.361.185.562.223 5.378.433 10.894-2.013 12.416-7.26a7.5 7.5 0 0 0 .215-3.497 7.66 7.66 0 0 0-1.401-3.238M154.418 118.696a14.8 14.8 0 0 1-5.893 1.422c-1.573.266-3.147.497-4.721.728l-1.282.178c-3.916.533-7.868.959-11.84 1.314q-11.181.924-22.381.835c-.147 3.554-.311 7.107-.458 10.767 0 1.279-.091 2.558-.146 3.837s0 2.309-.128 3.553L104 143v-3.411c0-1.777.183-3.713.238-5.561.146-4.157.256-8.296.421-12.436a1.73 1.73 0 0 1 .457-1.288c.16-.175.353-.318.57-.42s.452-.161.693-.175c7.94.115 15.881-.17 23.79-.853 3.898-.319 7.797-.746 11.658-1.279 2.013-.266 4.008-.568 6.003-.888a16.5 16.5 0 0 1 5.984-.64 1.5 1.5 0 0 1 .787.444c.141.155.249.335.317.531a1.48 1.48 0 0 1-.099 1.198 1.5 1.5 0 0 1-.401.474"/>
  <path fill="#1D4ED8" d="M94.576 133.4c-4.13 5.476-8.074 10.952-11.72 16.72a166 166 0 0 0-3.015 4.874l-9.805 4.637L67.171 161c-.614-.858-1.228-1.716-1.86-2.592-1.247-1.826-2.419-3.651-3.572-5.367-1.395-2.209-2.791-4.417-4.019-6.699a3.59 3.59 0 0 1-.465-3.487c.172-.339.416-.64.714-.882s.644-.42 1.017-.523a1.47 1.47 0 0 1 1.239-.538 1.48 1.48 0 0 1 1.16.684c3.294 4.673 6.4 9.437 9.786 14.037l.392.53c.167-.311.315-.639.483-.95a188 188 0 0 1 15.423-25.683 1.88 1.88 0 0 1 2.084-.365l4.483 1.552c1.228.419 1.135 1.916.54 2.683"/>
  <path fill="#000" d="M197.805 162.21c-3.505 17.161-7.175 34.304-10.883 51.428a1.735 1.735 0 0 1-2.711 1.032 1.59 1.59 0 0 1-.702-1.733c0-.424.167-.847.259-1.271.332-1.678.683-3.355 1.033-5.014a19068 19068 0 0 1 5.331-25.364c1.752-8.313 3.689-16.59 5.146-25.032 1.31-7.576 1.844-15.465-.517-22.875a23.32 23.32 0 0 0-12.413-14.747c-14.259-6.433-29.772 1.438-42.573 7.595l-23.24 11.188-2.638 1.272-6.087 2.931-3.597 1.733-1.845.885-3.689 1.843-5.755 2.765-13.778 6.636-9.721 4.682-2.84 1.382-9.002 4.332c-3.578 1.733-7.378 3.687-11.436 2.931a1.44 1.44 0 1 1 .59-2.82 11.46 11.46 0 0 0 5.883-1.217c3.966-1.696 7.822-3.687 11.714-5.53l.46-.221 5.81-2.802.868-.424 4.703-2.267 5.958-2.876 16.712-8.073 1.383-.664 2.325-1.124 1.697-.811 3.689-1.844c5.349-2.562 10.661-5.143 15.992-7.723l.239-.111 2.657-1.29c5.81-2.839 11.639-5.733 17.505-8.442a89 89 0 0 1 3.062-1.401 83 83 0 0 1 5.662-2.378 48 48 0 0 1 2.251-.83c.756-.258 1.346-.46 2.028-.663a45.2 45.2 0 0 1 12.414-2.249 29.72 29.72 0 0 1 20.124 6.341 30.18 30.18 0 0 1 9.537 18.212c1.42 8.092.036 16.534-1.605 24.608"/>
  <path fill="#000" d="M157.939 113.812a2.8 2.8 0 0 0-.145-.59.4.4 0 0 1 0-.133c-.185-.323-.226-.399-.103-.209 0 .133.124.19 0 0a1.28 1.28 0 0 0-.603-.705 1.46 1.46 0 0 0-.96-.15 1.44 1.44 0 0 0-.762.38 1.32 1.32 0 0 0-.329.779c0 .247-.144.514-.226.761a3.4 3.4 0 0 1-.206.646 7 7 0 0 1-.617 1.16l-.206.228a3 3 0 0 0-.597.722 1.9 1.9 0 0 0-.185.818c.022.338.166.66.411.912.217.242.508.418.834.506s.674.084.998-.011a3.78 3.78 0 0 0 1.769-1.559c.321-.453.571-.946.742-1.464a4.7 4.7 0 0 0 .246-1.521c-.021-.152-.041-.418-.061-.57M168.906 103.856v-3.197a8.2 8.2 0 0 0-.231-1.791A1.29 1.29 0 0 0 167.4 98a1.33 1.33 0 0 0-1.178 1.001 8.3 8.3 0 0 0-.193 1.926v3.082a11 11 0 0 0 0 1.598 1.54 1.54 0 0 0 1.39 1.387 1.468 1.468 0 0 0 1.564-1.175c.038-.656.012-1.314-.077-1.964M213.024 77.397a51 51 0 0 0-3.079 6.428 73 73 0 0 0-2.201 6.905 72.4 72.4 0 0 0-2.202 14.12c-.302 4.75-.128 9.52.516 14.231.688 5.018 2.167 9.908 2.477 14.981a19 19 0 0 1-.791 7.161 58 58 0 0 1-2.529 5.989c-1.72 3.919-3.096 8.223-1.376 12.435 1.308 3.205 4.713 6.575 3.44 10.348a27.2 27.2 0 0 1-3.027 5.22 15.1 15.1 0 0 0-2.15 6.318c-.534 5.311 1.153 10.311 2.236 15.403.929 4.286 1.48 9.542-1.255 13.241-1.239 1.667 1.048 3.901 2.287 2.235a16.8 16.8 0 0 0 2.415-5.886 17.3 17.3 0 0 0 .079-6.422c-.516-4.597-2.15-8.937-2.752-13.498a17.5 17.5 0 0 1 .275-6.886 20.1 20.1 0 0 1 2.856-5.329 12.3 12.3 0 0 0 2.218-5.641 10.73 10.73 0 0 0-1.427-5.769 37.5 37.5 0 0 1-2.683-5.275 9.7 9.7 0 0 1 .24-5.897c1.324-4.268 3.94-7.967 4.696-12.454.878-5.183-.293-10.385-1.307-15.439a75 75 0 0 1-1.548-14.286c.059-10.757 2.288-21.375 6.536-31.135.06-.26.036-.536-.068-.781a1.18 1.18 0 0 0-.503-.573 1.07 1.07 0 0 0-.727-.123 1.12 1.12 0 0 0-.646.379"/>
  <path fill="#000" d="M216.836 172.495c.368-2.651-.145-5.357-1.45-7.645-1.242-2.382-2.967-4.579-3.45-7.386a17.64 17.64 0 0 1 1.588-9.509c2.208-5.632 5.693-12.925 1.535-18.594a.89.89 0 0 0-.556-.348.85.85 0 0 0-.631.14.96.96 0 0 0-.38.556c-.058.23-.034.474.066.686 2.847 5.115 0 11.245-2.001 16.065a26.4 26.4 0 0 0-2.329 8.973c.016 2.823.821 5.575 2.311 7.903a16.2 16.2 0 0 1 2.882 6.888 13.25 13.25 0 0 1-1.881 6.407 41 41 0 0 0-3.071 6.85 15.9 15.9 0 0 0 .224 8.475 46 46 0 0 1 2.243 9.085 7.3 7.3 0 0 1-.361 3.575 6.8 6.8 0 0 1-2.002 2.887 1.44 1.44 0 0 0-.473.87c-.051.343.018.693.193.985.176.291.446.503.759.593.313.091.646.054.935-.102 4.227-3.01 3.951-9.233 2.623-13.738-.88-3.028-2.208-6.094-2.088-9.233a17.7 17.7 0 0 1 2.537-7.385 24.7 24.7 0 0 0 2.777-6.998M170.18 164.861h-.11l-4.646 2.576c-12.432 6.768-25.139 13.028-38.16 18.599a431 431 0 0 1-28.574 11.05c-1.175.417-2.332.834-3.508 1.215-2.57.871-5.142 1.815-7.713 2.522-12.983 4.137-27.674 8.02-40.823 2.287a33.5 33.5 0 0 1-13.089-10.41 32.93 32.93 0 0 1-6.34-15.374 31.93 31.93 0 0 1 2.612-16.857 32.36 32.36 0 0 1 10.94-13.19c1.635-1.107 3.14 1.361 1.635 2.54a28 28 0 0 0-2.883 2.649 29.6 29.6 0 0 0-7.89 13.557 29.34 29.34 0 0 0 .177 15.638 29.54 29.54 0 0 0 8.665 13.249c4.05 3.56 9 5.967 14.326 6.964a49.3 49.3 0 0 0 19.669-1.034 201 201 0 0 0 19.631-5.843 426 426 0 0 0 33.643-12.828l2.993-1.288 1.322-.581c12.396-5.444 24.553-11.486 36.379-18.145a1.57 1.57 0 0 1 1.837.127 1.46 1.46 0 0 1-.093 2.577"/>
  <path fill="#000" d="M174.849 164.337c-.105.187-.26.346-.452.462a1.4 1.4 0 0 1-.638.196 2.6 2.6 0 0 1-1.14-.184l-.826-.199-.809-.153-.628-.107h-.198a1.1 1.1 0 0 1-.429-.058 1 1 0 0 1-.364-.218 1 1 0 0 1-.364-.673.9.9 0 0 1 .067-.396 1 1 0 0 1 .231-.339 1.22 1.22 0 0 1 .71-.337q.255-.115.529-.184l.628-.107a4.5 4.5 0 0 1 1.189 0q.457.036.891.169a2.68 2.68 0 0 1 1.537.903 1.118 1.118 0 0 1 .066 1.225M127.782 182.915c-.112-.323-.205-.646-.317-.968q-3.636-10.756-7.217-21.511c-2.387-7.17-4.848-13.856-6.732-20.919l-.448-1.793a1.27 1.27 0 0 1 .077-1.001q.122-.233.328-.404a1.408 1.408 0 0 1 1.505-.179q.242.117.421.315c.117.13.205.281.262.445l.522 1.309c2.798 6.901 4.942 14.089 7.291 21.152 2.35 7.062 4.7 14.179 7.031 21.295.149.412.28.843.41 1.255a1.53 1.53 0 0 1-.09 1.212 1.64 1.64 0 0 1-.954.796 1.7 1.7 0 0 1-1.26-.086 1.61 1.61 0 0 1-.829-.918M184.707 214h-7.064c-1.296 0-2.61 0-3.906-.11-2.72 0-5.476-.22-8.141-.314l-15.77-.597-3.194-.126-26.794-1.021-3.286-.141c-.931 0-1.825 0-2.775-.094l-3.65-.157-6.918-.252-4.49-.172h-.84a2.2 2.2 0 0 1-1.016-.244 1.8 1.8 0 0 1-.717-.667 1.3 1.3 0 0 1-.146-.534c-.001-.396.17-.777.482-1.069s.739-.47 1.197-.502h.803l18.545.707 33.767 1.272 17.066.628c5.165.205 10.349.346 15.478.864l1.587.157c1.588.173 1.333 2.309-.218 2.372"/>
  <path fill="#000" d="M197 156.5c-1.415 8.348-3.755 16.753-5.5 25.027S189 197.5 186 207.5c-.349 1.651-.169 3.831-.5 5.5-5.162-.605-12.801-.761-18-1h-17l-34.5-2-19-1c-1.508 1.055.997-1.202 1.008-1.275-1.508-1.225 0-1.045.091-1.559L97 203c.093-1.834 1.009-6.665 1.009-8.5 9.663-3.375 19.098-6.427 28.492-10.5 13.025-5.632 26.289-9.261 38.744-16.104l4.612-2.569.698.128.446-.955.5-.622c0-2.378-.684.34-.25.311.253-.016.69-.374.902-.512s.875.425.992.201c.126-.218 0 .05 0-.201s.982-.664.856-.882c-.423-.551-.176.148-.856 0a4.3 4.3 0 0 0-.992-.201 4.5 4.5 0 0 0-1.323 0l.284 1.083c.982.955-.927.535-1.257.512s-1.076.635-1.356.811c-11.831 6.696-24.198 10.436-36.599 15.94l-1.322.587C127.5 178.5 123.815 168.265 121.5 161s-4.744-17.028-7.5-24l25-13c12.749-6.127 30.299-13.403 44.5-7 2.988 1.426 6.368 4.469 8.5 7s3.605 5.815 4.5 9c2.351 7.339 1.804 15.905.5 23.5"/>
  <path fill="#000" d="M99 196.605v.228c0 1.903-.152 3.805-.246 5.708l-.15 2.892c0 .532-.001 1.084-.096 1.617a.8.8 0 0 0 0 .228c.002.462-.055.922-.17 1.37a1.776 1.776 0 0 1-1.55 1.351 1.6 1.6 0 0 1-.699-.134 1.47 1.47 0 0 1-.983-1.027 12 12 0 0 1 0-3.196c0-1.009.095-1.903.132-3.006 0-1.484.114-2.987.227-4.471 0-.59 0-1.161.114-1.751.09-.426.332-.804.68-1.063a1.77 1.77 0 0 1 1.21-.344c.398.05.767.236 1.046.527.278.291.45.668.485 1.071M103.594 211.154c-2.322 2.016-4.626 4.049-6.8 6.19-.48.432-.921.882-1.382 1.349-.46.468-1.05 1.08-1.566 1.638a75 75 0 0 0-2.12 2.375c-.681.809-1.842 2.123-2.634 3.238a72.8 72.8 0 0 0-12.623 25.765c-.534 2.123-3.962 1.439-3.409-.684a76 76 0 0 1 3.686-10.795 73.8 73.8 0 0 1 7.998-14.16 78 78 0 0 1 2.339-3.113l.11-.144a89 89 0 0 1 2.083-2.5c.72-.828 1.843-2.052 2.782-3.041a54 54 0 0 1 9.785-8.043c1.29-.863 2.931.918 1.751 1.925"/>
  <path fill="#000" d="M183.251 248.339c-14.204-.153-28.408-.436-42.537-.305a1525 1525 0 0 0-42.39.961c-3.957.153-7.934.328-11.892.525-3.958.196-8.082.262-12.095.786-.388.07-.74.308-.987.668a2.1 2.1 0 0 0-.347 1.279c.023.462.192.898.473 1.221s.654.511 1.046.526c3.55 0 7.102-.219 10.653-.372l10.634-.437q10.653-.436 21.306-.699a1709 1709 0 0 1 42.389-.525c7.99 0 16.016.11 24.043.372 2.09.066 1.868-3.956-.296-4"/>
  <path fill="#000" d="M183.939 230.598a51 51 0 0 0-2.806-9.457 53 53 0 0 0-2.066-4.483 15.8 15.8 0 0 0-2.788-4.312c-.957-.908-2.705.095-2.184 1.57a36 36 0 0 0 2.201 4.331 42 42 0 0 1 1.814 3.991 53.7 53.7 0 0 1 2.738 9.211c.601 3.07.928 6.2.974 9.343a43 43 0 0 1-.134 4.653 46 46 0 0 0-.504 4.993c.024.363.151.708.363.983s.497.465.813.541.646.036.94-.116.535-.407.689-.727c.523-1.712.807-3.505.84-5.315.118-1.664.185-3.347.168-5.049a58 58 0 0 0-1.058-10.157"/>
  <path fill="#000" d="M180.715 234.735c-6.466 1.869-13.544 2.616-20.009.355a17.54 17.54 0 0 1-7.241-4.363 17.76 17.76 0 0 1-4.394-7.262 14.4 14.4 0 0 1-.5-4.859c.199-1.639.56-3.255 1.075-4.822a1.51 1.51 0 0 0-.78-1.62 1.47 1.47 0 0 0-.931-.141 1.5 1.5 0 0 0-.828.452 13.54 13.54 0 0 0-1.852 9.869 18.76 18.76 0 0 0 4.261 9.344 25.5 25.5 0 0 0 8.471 6.11 25.3 25.3 0 0 0 10.185 2.189 43.3 43.3 0 0 0 13.692-1.869c2.112-.655 1.019-3.888-1.149-3.383"/>
  <path fill="#000" d="M174.983 238.564a1.76 1.76 0 0 0-.438-1.072 1.44 1.44 0 0 0-.964-.487 1.39 1.39 0 0 0-1.009.324 1.68 1.68 0 0 0-.565.985c-.243 2.174-.381 4.347-.727 6.502a61 61 0 0 1-.589 3.098c-.138.557-.259 1.096-.415 1.654a4.5 4.5 0 0 0-.26 1.924c.028.315.136.615.312.865.175.249.411.438.679.545s.558.127.836.058c.278-.07.533-.225.735-.448a8.2 8.2 0 0 0 1.246-3.56c.259-1.096.467-2.212.64-3.328.42-2.323.594-4.692.519-7.06M117.081 210.067a6880 6880 0 0 0-6.291 13.61c-1.978 4.3-3.882 8.656-5.972 12.9a6.2 6.2 0 0 1-2.11-.113 83 83 0 0 1 4.237-12.413 81 81 0 0 1 3.117-6.412c1.139-2.094 2.67-4.263 3.64-6.562a1.46 1.46 0 0 0-.496-1.822 1.455 1.455 0 0 0-1.874.195 28.9 28.9 0 0 0-4.125 6.3 88 88 0 0 0-3.397 6.917 86 86 0 0 0-4.778 14.508 1.74 1.74 0 0 0 .896 1.869 8.47 8.47 0 0 0 4.105.954 6 6 0 0 0 1.979-.393 2.49 2.49 0 0 0 1.568-1.682c1.307-2.954 2.706-5.871 4.069-8.806q4.125-8.805 8.194-17.61c.84-1.907-1.923-3.253-2.762-1.44"/>
  <path fill="#fff" d="M180.734 162.432a1.8 1.8 0 0 0-.351-.376l-.166-.108a6 6 0 0 0-.572-.358c-.222-.143-.444-.251-.684-.376a4.5 4.5 0 0 0-.683-.305l-.443-.143a1.6 1.6 0 0 0-.8-.659 1.65 1.65 0 0 0-1.047-.041l-23.196 10.074-11.413 4.965c-3.897 1.793-7.942 3.262-11.691 5.234-1.495.789-.313 3.119 1.257 2.581 3.896-1.362 7.664-3.19 11.45-4.822l11.598-5.018 23.011-10.002.48.34q.428.327.887.61c.285.214.612.373.96.466.237.053.483.053.72 0a1.27 1.27 0 0 0 .701-.52c.145-.194.229-.424.241-.663a1.2 1.2 0 0 0-.259-.879"/>
  <path fill="#000" d="M47.932 145.75c0-3.485-.178-6.969-.308-10.454 0-1.733-.146-3.484-.227-5.217 0-.839 0-1.678-.113-2.516a5.6 5.6 0 0 0-.518-2.851 1.5 1.5 0 0 0-.545-.543 1.27 1.27 0 0 0-.706-.167c-.244.015-.48.102-.687.253a1.6 1.6 0 0 0-.491.606 5.14 5.14 0 0 0-.26 2.72c0 .895.098 1.864.13 2.703.081 1.677.146 3.354.21 5.012.146 3.559.244 7.118.325 10.677.08 3.559.161 6.969.194 10.454v5.217a33 33 0 0 0 .276 5.367c.259 1.509 2.186 1.155 2.429-.149.259-1.785.356-3.596.291-5.404v-5.031c.113-3.596.065-7.118 0-10.677"/>
  <path fill="#000" d="m99.019 117.003-24.272 1.729-12.015.885c-3.68.282-7.508.302-11.189.945-2.962.523-6.955 2.011-7.526 5.691-.046.315 0 .637.132.921s.342.515.602.66.555.197.843.148a1.34 1.34 0 0 0 .76-.422 6.4 6.4 0 0 1 2.577-2.212 12.7 12.7 0 0 1 3.55-.905c3.68-.402 7.25-.503 10.876-.764l22.8-1.629 13.065-.945a1.82 1.82 0 0 0 1.297-.679c.333-.405.505-.939.478-1.483a2.14 2.14 0 0 0-.621-1.418 1.79 1.79 0 0 0-1.357-.522"/>
  <path fill="#000" d="M102.902 129.414c-.15 3.109-.283 6.2-.416 9.309v.599l-.199 3.747c-1.098.656-2.195 1.274-3.326 1.931 0-.579.001-1.14.084-1.7s0-1.371 0-2.066c0-.696 0-1.352.083-2.047.116-2.666.25-5.331.366-7.996.194-2.298.255-4.608.183-6.915a8.2 8.2 0 0 0-.499-2.394c-.316-.754-.964-1.372-1.13-2.163a1.53 1.53 0 0 1 .08-.993c.137-.306.37-.538.65-.649 2.046-.579 3.442 2.24 3.841 4.191.382 2.355.477 4.76.283 7.146"/>
  <path fill="#1D4ED8" d="M71.828 105.47c-.178-3.397-.338-6.813-.515-10.21-.143-2.865.142-6.41-3.182-7.622a35.1 35.1 0 0 0-10.966-1.616A37.2 37.2 0 0 0 45.773 87.4c-.23.048-.446.151-.63.301-.185.15-.333.343-.431.563a1.59 1.59 0 0 0 .048 1.395 1.225 1.225 0 0 0-.39.827c-.285 3.47-.215 6.978-.25 10.467a100 100 0 0 0 0 9.789 6 6 0 0 0 1.6 3.893 5.66 5.66 0 0 0 3.963 1.359 44 44 0 0 0 4.887-.368l5.422-.459 5.207-.441a11.35 11.35 0 0 0 4.426-.973c3.021-1.689 2.363-5.436 2.203-8.282m-3.555 4.958c-.497.68-1.635.68-2.4.735-1.617.165-3.216.275-4.816.422l-8.886.753a9.6 9.6 0 0 1-3.394 0c-.907-.275-1.014-1.194-1.085-2.002-.231-3.195 0-6.464 0-9.659s.107-6.703-.142-10.045a.6.6 0 0 0 0-.166 41.3 41.3 0 0 1 16.316-.495c.728.146 1.475.293 2.186.477.465.043.915.194 1.315.44.64.588.427 2.204.462 2.939.142 2.957.303 5.932.427 8.888l.214 4.242c-.018 1.01.337 2.645-.268 3.453z"/>
  <path fill="#1D4ED8" d="M68.637 110.859c-.52.705-1.707.706-2.505.763-1.689.171-3.36.286-5.03.438l-9.278.783a10.1 10.1 0 0 1-3.544 0c-.946-.286-1.057-1.24-1.131-2.08-.242-3.319 0-6.715 0-10.034s.11-6.963-.149-10.435a.6.6 0 0 0 0-.171 43.35 43.35 0 0 1 17.035-.515c.76.152 1.54.305 2.282.496.485.044.955.2 1.374.457.668.611.445 2.29.482 3.053.148 3.07.316 6.161.445 9.233l.223 4.406c.056 1.068.427 2.766-.204 3.606M146.778 81.726c-.258-2.767-1.182-5.713-4.026-6.935s-6.593-.683-9.676-.611c-5.891.126-11.781.144-17.654.341-1.643 0-6.075-.557-7.386.36-2.623 1.796-1.939 8.983-1.995 11.768-.055 2.785 0 5.282 0 7.923.231 5.281.749 10.547 1.551 15.775.037.451.248.872.591 1.179.342.306.791.475 1.256.474l22.031-1.365 5.41-.342a17 17 0 0 0 4.875-.629c3.066-1.168 3.694-4.33 4.063-7.186a89 89 0 0 0 .96-20.752m-3.342 8.085c0 3.162-.259 6.324-.629 9.469a79 79 0 0 1-.59 4.204c-.185.952-.351 2.281-1.293 2.802a10.8 10.8 0 0 1-3.693.432l-5.393.341-20.774 1.312c-.647-4.582-1.089-9.2-1.293-13.817-.11-2.569-.166-5.138-.166-7.725a68 68 0 0 0 0-8.211c6.02-1.294 13.093-.593 19.261-.79 3.268 0 6.555-.27 9.823-.27a5.77 5.77 0 0 1 3.103.61 3.98 3.98 0 0 1 1.403 2.732c.339 2.958.42 5.94.241 8.911"/>
  <path fill="#1D4ED8" d="M143.905 89.738c0 3.282-.268 6.564-.649 9.827a82 82 0 0 1-.609 4.363c-.191.988-.363 2.368-1.334 2.909-1.233.369-2.523.52-3.811.448l-5.563.354L110.505 109a151 151 0 0 1-1.333-14.34 188 188 0 0 1-.172-8.018 71 71 0 0 0 0-8.521c6.211-1.343 13.508-.615 19.872-.82 3.372 0 6.763-.28 10.136-.28a5.9 5.9 0 0 1 3.201.634 4.14 4.14 0 0 1 1.447 2.834c.35 3.07.433 6.165.249 9.249M100.332 87.21a1.7 1.7 0 0 0-.654-.872 1.68 1.68 0 0 0-1.041-.295c-7.355-.198-14.712.29-21.978 1.46a1.8 1.8 0 0 0-1.184.583 1.84 1.84 0 0 0-.475 1.24c.026.272.112.534.252.767a.5.5 0 0 0 0 .164c.02 3.791.232 7.58.631 11.349.144 1.824.27 3.777.433 5.656a4.26 4.26 0 0 0 .463 2.379c.382.729.967 1.33 1.683 1.726 1.656.513 3.391.717 5.12.602h5.535a80 80 0 0 0 11.215-1.04 1.68 1.68 0 0 0 1.144-.591c.29-.341.436-.784.406-1.233a90.3 90.3 0 0 0-1.55-21.895m-1.677 20.654c-2.777.347-5.571.62-8.366.73-3.298.219-6.609.164-9.898-.164-.596-.092-.578-.001-.668-.621s-.108-1.532-.162-2.317c-.126-1.678-.253-3.357-.36-5.054-.235-3.193-.361-6.44-.83-9.615a100 100 0 0 1 18.967-1.46 89.7 89.7 0 0 1 1.317 18.501M105.971 34.36v5.414q-.15 11.172-.244 22.326a66 66 0 0 1-.357 10.197 8 8 0 0 1-1.704 4.083 8.5 8.5 0 0 1-3.656 2.65c-3.197 1.136-7.033.811-10.4.92l-11.659.325-23.338.667c-3.29 0-7.164.56-9.778-1.805-1.904-2.145-2.88-4.91-2.727-7.724-.264-7.418 0-14.89.32-22.308.187-3.826.489-7.887.884-11.803.206-2.022.432-4.043.696-6.065-.001-1.823.22-3.64.657-5.414.056-.18.153-.346.283-.487.124-.134.278-.239.45-.307.093-.275.267-.519.5-.701.234-.183.518-.297.817-.328h19.897c1.429.92 4.902 3.014 6.388 3.88l-6.388-.144H47.9c-.094 1.552-.17 3.122-.32 4.693a333 333 0 0 0-1.43 20.737 380 380 0 0 0-.206 10.342c-.12 3.208-.05 6.42.207 9.62a5.87 5.87 0 0 0 1.072 3.032c.377.387.835.693 1.344.898a4.1 4.1 0 0 0 1.608.293q2.511.12 5.021 0l5.51-.163 21.871-.595 10.813-.307c2.464 0 5.943.216 7.429-2.094 1.485-2.31 1.109-5.234 1.128-7.688 0-3.61 0-7.021.094-10.54q.113-10.45.188-20.9c0-2.148.677-5.776-1.88-6.768a10.9 10.9 0 0 0-3.761-.416H76c.13-.245 1.443-.61 1.5-.88-2.249-1.144 1.842-.827 1.749-1.285.121-.217.3-.4.517-.53s.468-.202.724-.21c.94 0 1.787.144 2.464-.65l.093-.127H93.86c2.031 0 3.498 0 5.21.217a7.25 7.25 0 0 1 4.247 1.546 6.75 6.75 0 0 1 2.391 3.706c.256 1.551.344 3.124.263 4.693"/>
  <path fill="#000" d="M78.876 25.633a3 3 0 0 1-.277.762c-.175.381-.419.73-.72 1.029a6.16 6.16 0 0 1-3.034 1.477 6.3 6.3 0 0 1-3.385-.325 28 28 0 0 1-4.907-2.199l-1.844-1.046c-1.458-.816-2.878-1.773-4.28-2.624l-2.324-1.525a1.74 1.74 0 0 1-.475-1.188c0-.44.169-.863.475-1.189.323-.299.749-.475 1.197-.494s.888.118 1.238.388a52 52 0 0 0 5.94 3.866l.258.16a34.5 34.5 0 0 0 5.755 2.854c.96.32 3.357.621 3.486-.904a3.1 3.1 0 0 0-.94-1.933l-.333-.372c-.608-.71-1.273-1.383-1.844-2.04a39.2 39.2 0 0 0-9.223-6.95 10.2 10.2 0 0 0-5.534-1.402 7.05 7.05 0 0 0-4.353 2.164c-2.288 2.305-3.081 5.497-3.948 8.53H47c.498-4.753 2.214-9.843 6.697-12.414a10.23 10.23 0 0 1 8.467-.62 18.9 18.9 0 0 1 4.61 2.198l.26.142a41 41 0 0 1 10.735 9.363c.33.433.603.903.811 1.401.209.48.34.989.388 1.508.064.462.033.932-.092 1.383"/>
  <path fill="#000" d="M86.973 22.288q-.034.225-.096.448-.094.396-.267.765a6 6 0 0 1-2.885 3.024 3.7 3.7 0 0 1-3.63 0l-.497-.317a1.3 1.3 0 0 1-.382-.486 1.6 1.6 0 0 1 0-1.437c.124-.224.305-.413.527-.547.22-.134.473-.21.734-.218.955 0 1.815.15 2.503-.672l.096-.131a2.707 2.707 0 0 0 .172-2.538c-.822-2.39-3.497-3.734-5.56-5.078a27.8 27.8 0 0 0-7.756-3.471 13.8 13.8 0 0 0-3.344-.411 18.4 18.4 0 0 0-4.796.579c-1.413.354-2.56-1.587-1.146-2.352a9 9 0 0 1 1.166-.542 14.37 14.37 0 0 1 9.208-.28q2.007.548 3.916 1.363a45 45 0 0 1 6.84 3.733 10.9 10.9 0 0 1 5.006 6.29c.196.743.26 1.514.191 2.278"/>
  <path fill="#000" d="M93.818 23.766a1.2 1.2 0 0 1-.248.168 7.65 7.65 0 0 1-4.398 1.05 13 13 0 0 1-2.906-.394 4.7 4.7 0 0 1-1.569-.787 3.3 3.3 0 0 1-.458-.431 1.39 1.39 0 0 1 .206-1.771c.158-.15.35-.262.558-.328a3.5 3.5 0 0 1 1.53-.132 15.6 15.6 0 0 0 3.69.525 2.7 2.7 0 0 0 1.598-.521c.462-.338.8-.812.965-1.353a.24.24 0 0 0 0-.113 4.9 4.9 0 0 0-1.052-3.13l-.478-.656a13.7 13.7 0 0 0-2.773-2.868 14 14 0 0 0-7.744-2.924 15.1 15.1 0 0 0-6.08.937c-.957.338-1.912.731-2.85 1.162-.32.1-.668.084-.977-.047s-.56-.367-.706-.665a1.36 1.36 0 0 1-.072-.951c.09-.316.293-.59.57-.774h.115a15.4 15.4 0 0 1 10-2.717c1.409.074 2.803.32 4.15.73 1.335.411 2.619.971 3.824 1.669a16.54 16.54 0 0 1 5.736 5.492c.21.337.402.675.593 1.012.382.754.659 1.555.823 2.38a5.2 5.2 0 0 1-.2 3.017 5.3 5.3 0 0 1-1.847 2.42"/>
  <path fill="#000" d="M110.637 13.629c-1.359 3.1-5.095 4.145-8.323 3.983-2.227 0-5.152-.721-7.455 0a4.8 4.8 0 0 0-1.623.847c-.403.36-.939.555-1.49.54a4.62 4.62 0 0 0-1.04-3.01 6.75 6.75 0 0 1 2.756-1.64c2.523-.556 5.14-.599 7.682-.126a8 8 0 0 0 5.115-.63c1.151-.703 1.887-1.91 1.094-3.118a6.7 6.7 0 0 0-2.138-1.458 7 7 0 0 0-2.561-.56 36 36 0 0 0-5.756-.47c-3.078.042-6.141.404-9.136 1.082-1.038.216-2.075.487-3.094.739-.32.1-.67.075-.97-.07a1.23 1.23 0 0 1-.635-.705 1.16 1.16 0 0 1 .074-.927c.152-.287.418-.505.738-.605a34.6 34.6 0 0 1 12.249-2.433c3.652-.25 7.321.19 10.795 1.298.755.228 1.452.6 2.052 1.094a5.6 5.6 0 0 1 1.435 1.777c.347.68.547 1.419.587 2.173a5.4 5.4 0 0 1-.356 2.219M81.675 25.012a1.3 1.3 0 0 0-.694-.296 3 3 0 0 0-.516 0h-.371a3.5 3.5 0 0 1-.565-.118l-.403-.134.306.104-.484-.192-.226-.104-.241-.088a.98.98 0 0 0-.574-.184.97.97 0 0 0-.573.183.8.8 0 0 0-.322.489.83.83 0 0 0 .113.576q.102.274.274.518.207.253.452.474.274.218.597.37.33.141.678.236c.368.094.747.144 1.128.148.318.025.637-.03.921-.161.285-.13.524-.33.693-.578.113-.2.155-.427.12-.65a1.05 1.05 0 0 0-.313-.593M46.772 143.679a1.5 1.5 0 0 0-.57-.516 1.46 1.46 0 0 0-.74-.161 2.8 2.8 0 0 0-1.48.638l-.917.639q-.898.619-1.723 1.335a11.7 11.7 0 0 0-3.22 3.676 1.2 1.2 0 0 0-.103.746c.046.253.17.484.355.658a1.12 1.12 0 0 0 1.376.125l.45-.31c.112 0 .224-.193.336-.29h.095c.318-.271.617-.522.917-.813a7 7 0 0 1 .75-.716l.205-.174.43-.367a35 35 0 0 1 1.705-1.239l.899-.561a2.86 2.86 0 0 0 1.254-1.084 1.54 1.54 0 0 0-.019-1.586M138.986 38.646A1.85 1.85 0 0 0 137.133 37l-25.473 1.165a1.58 1.58 0 0 0-1.501 1.036 1.22 1.22 0 0 0-.833 1.129c-.259 2.774-.185 5.549-.204 8.36v8.38a27.8 27.8 0 0 0 .296 7.399 4.93 4.93 0 0 0 5.132 3.515c2.668 0 5.373-.26 8.022-.408s5.558-.277 8.282-.444a6.08 6.08 0 0 0 5.557-3.07 21.7 21.7 0 0 0 1.482-6.955 125 125 0 0 0 1.093-18.46m-4.075 14.447c-.241 2.404-.538 4.81-.964 7.195-.259 1.517-.574 2.997-2.297 3.219-2.372.314-4.835.296-7.206.407l-7.041.388c-1.352 0-4.224.833-4.668-.962a10.6 10.6 0 0 1-.13-2.293v-12.080000000000002c0-2.385 0-4.79-.111-7.176l23.028-1.147c.017 4.157-.187 8.313-.611 12.449"/>
  <path fill="#1D4ED8" d="M130.695 45.486c-.946-1.2-2.559.11-3.347.855a24.3 24.3 0 0 0-3.979 5.035 28 28 0 0 0-2.015 3.964c-.351-.4-.667-.837-.982-1.273-.316-.436-.754-1.163-1.122-1.818-.368-.654-.859-1.618-1.753-1.818a1.17 1.17 0 0 0-.752.105c-.234.118-.425.31-.544.55-.473.818 0 1.818.298 2.654q.5 1.149 1.174 2.2a19.6 19.6 0 0 0 3.155 3.636c.197.17.427.294.674.363a1.7 1.7 0 0 0 1.46-.271c.21-.153.385-.352.512-.583a31.1 31.1 0 0 1 6.205-10.381c.666-.746 1.893-2.11 1.016-3.218M95.696 92.486c-.947-1.2-2.56.11-3.348.855a24.3 24.3 0 0 0-3.98 5.035 28.4 28.4 0 0 0-2.014 3.964c-.351-.4-.667-.836-.982-1.273-.316-.436-.754-1.163-1.122-1.818-.368-.654-.859-1.618-1.753-1.818a1.17 1.17 0 0 0-.752.105c-.234.118-.425.31-.544.55-.473.818 0 1.817.298 2.654.332.765.725 1.501 1.174 2.2a19.7 19.7 0 0 0 3.155 3.636 1.708 1.708 0 0 0 2.134.092c.21-.153.385-.352.512-.583a31.1 31.1 0 0 1 6.205-10.381c.666-.746 1.893-2.11 1.016-3.218"/>
  <path fill="#000" d="M39.7 214.424a186 186 0 0 0-.521-3.366 859 859 0 0 0-1.064-6.734c-.72-4.458-1.333-8.991-2.395-13.373a1.45 1.45 0 0 0-.625-.762 1.35 1.35 0 0 0-.946-.164 1.4 1.4 0 0 0-.827.508c-.21.265-.324.6-.322.944.324 4.514 1.117 9.01 1.801 13.468l1.027 6.733c.18 1.129.36 2.239.522 3.367.051 1.142.34 2.259.847 3.273.167.252.4.448.672.565a1.46 1.46 0 0 0 1.624-.326c.211-.213.358-.486.424-.784a8.1 8.1 0 0 0-.217-3.349"/>
  <path fill="#1D4ED8" d="M84.507 36.804C79.462 32.712 71 33.5 71 33.5s.415 18.318 1.468 18.495C73.521 52.173 91 47.188 91 47.188s-1.449-6.304-6.493-10.384"/>
  <path fill="#000" d="m85.425 47.972-1.462-.57c-.306-.121-.612-.253-.918-.34l-.37-.11a3 3 0 0 0-.547 0 .78.78 0 0 0-.698.548.78.78 0 0 0 .207.856l.262.208-4.618 1.273-3.1.855-1.55.417-.339.077a2 2 0 0 1 0-.241c-.098-2.128-.11-4.268-.186-6.396l-.098-3.192V40.16a.85.85 0 0 0 1.092.154.856.856 0 0 0 .25-1.163c-.217-.307-.436-.604-.643-.91-.207-.308-.47-.582-.699-.89a.78.78 0 0 0-.699-.35.76.76 0 0 0-.644.416c-.12.23-.24.45-.37.67l-.088.131-.219.285c-.141.187-.283.384-.447.57l-.099.122-.13.197q0-.116 0 0c0 .077-.164.252-.252.384a.52.52 0 0 0 .066.581.51.51 0 0 0 .568.165l.36-.165c0 .538.076 1.098.087 1.558 0 1.229.066 2.458.11 3.686l.098 3.445c0 .987-.175 2.435.426 3.291.6.856 1.888.735 2.893.45l3.33-.933 5.37-1.48a.96.96 0 0 0 .623.987.97.97 0 0 0 .611 0c.099 0 .219-.099.317-.165a3 3 0 0 0 .273-.23l.207-.198.47-.439.917-.866a.967.967 0 0 0-.36-1.492"/>
  <path stroke="#000" stroke-width="4" d="M91 52c0 9.941-8.059 18-18 18s-18-8.059-18-18 8.059-18 18-18 18 8.059 18 18Z"/>
  <path fill="#000" d="m59.554 105.353.086-.781c.02-.163.043-.328.046-.487l.005-.193a1.5 1.5 0 0 0-.07-.264.4.4 0 0 0-.137-.187.4.4 0 0 0-.22-.079.39.39 0 0 0-.386.211l-.066.153-1.212-2.065-.815-1.387-.402-.695-.08-.153a1 1 0 0 1 .116-.031c1.015-.323 2.047-.605 3.065-.918l1.529-.46.577-.155a.425.425 0 0 0 .067.547.43.43 0 0 0 .594-.03c.12-.144.235-.288.357-.428.121-.14.22-.302.339-.452a.39.39 0 0 0-.029-.55.4.4 0 0 0-.177-.09 7 7 0 0 1-.371-.093l-.075-.025-.166-.069c-.109-.044-.222-.087-.334-.142l-.07-.032-.113-.038q.055-.015 0 0c-.037.01-.143-.046-.218-.072a.26.26 0 0 0-.272.107.26.26 0 0 0-.006.296l.126.153c-.26.07-.52.179-.741.243-.594.16-1.178.35-1.766.53l-1.651.493c-.477.128-1.199.231-1.535.632-.335.4-.11 1.007.158 1.455l.88 1.488 1.411 2.402a.479.479 0 0 0-.396.429.5.5 0 0 0 .079.295c.013.047.076.093.12.132q.07.055.147.102l.122.074.273.17.537.331a.485.485 0 0 0 .674-.367"/>
  <path stroke="#000" stroke-width="2" d="M66 100a9 9 0 0 1-9 9 9 9 0 1 1 9-9Z"/>
  <path fill="#fff" stroke="#fff" stroke-width="2" d="M137 92.5c0 6.351-5.149 11.5-11.5 11.5S114 98.851 114 92.5 119.149 81 125.5 81 137 86.149 137 92.5Z"/>
  <path fill="#1D4ED8" d="m114.954 87.922.769 1.15c.159.242.314.492.491.71l.212.266q.185.156.395.276a.69.69 0 0 0 .781-.044.68.68 0 0 0 .282-.723l-.084-.282 3.979 1.411 2.671.947 1.331.482.283.115q-.056.09-.122.174c-1.004 1.587-2.075 3.138-3.094 4.714l-1.541 2.356-.604.864a.75.75 0 0 0-.711-.662.75.75 0 0 0-.768.713c.003.332.011.656.005.983s.046.657.057.995a.68.68 0 0 0 .327.606.68.68 0 0 0 .676.024c.203-.106.4-.204.606-.296l.129-.051.302-.096c.197-.063.399-.134.611-.186l.132-.038.194-.076q-.057.082 0 0c.039-.056.246-.1.376-.151a.452.452 0 0 0 .246-.453.452.452 0 0 0-.327-.405l-.343-.063c.271-.389.498-.831.723-1.17.62-.887 1.193-1.808 1.782-2.718l1.668-2.538c.498-.713 1.355-1.67 1.353-2.592-.001-.921-.993-1.484-1.862-1.785l-2.876-1.007-4.628-1.642a.846.846 0 0 0 .049-1.028.85.85 0 0 0-.442-.308c-.071-.05-.208-.039-.312-.041a2.4 2.4 0 0 0-.313.029l-.25.037-.561.08-1.099.164a.853.853 0 0 0-.493 1.26"/>
</svg>
