<svg xmlns="http://www.w3.org/2000/svg" width="906" height="120" fill="none" viewBox="0 0 906 120">
  <g clip-path="url(#create-workday-cyclic-examplea)">
    <mask id="create-workday-cyclic-example2o" width="906" height="120" x="0" y="0" fill="#000" maskUnits="userSpaceOnUse">
      <path fill="#fff" d="M0 0h906v120H0z"/>
      <path d="M1 5a4 4 0 0 1 4-4h896a4 4 0 0 1 4 4v109a4 4 0 0 1-4 4H5a4 4 0 0 1-4-4z"/>
    </mask>
    <path fill="#fff" d="M1 5a4 4 0 0 1 4-4h896a4 4 0 0 1 4 4v109a4 4 0 0 1-4 4H5a4 4 0 0 1-4-4z"/>
    <g clip-path="url(#create-workday-cyclic-example3b)">
      <path fill="#fff" d="M1 1h407v68H1z"/>
      <path fill="#334155" d="M12.145 25v-9.454h3.194q1.112 0 1.82.401.71.397 1.052 1.076.342.678.342 1.514 0 .835-.342 1.519a2.54 2.54 0 0 1-1.043 1.09q-.707.4-1.81.4h-2.29v-1.015h2.253q.762 0 1.223-.263t.67-.71q.212-.453.212-1.021t-.212-1.016a1.5 1.5 0 0 0-.674-.701q-.466-.26-1.237-.259H13.29V25zm11.001.148q-1.025 0-1.768-.453a3.04 3.04 0 0 1-1.14-1.274q-.397-.822-.397-1.911 0-1.09.397-1.92.401-.836 1.117-1.302.72-.471 1.68-.471.554 0 1.094.184.54.185.984.6.442.412.706 1.09.263.68.263 1.671v.462h-5.466v-.942h4.358q0-.6-.24-1.07a1.8 1.8 0 0 0-.674-.744 1.9 1.9 0 0 0-1.025-.273q-.652 0-1.126.324-.471.318-.725.83-.255.512-.254 1.1v.627q0 .804.277 1.362.282.554.78.845.5.285 1.159.286.43 0 .776-.12a1.7 1.7 0 0 0 .604-.37q.254-.248.393-.618l1.052.296q-.166.535-.558.941a2.7 2.7 0 0 1-.97.628 3.6 3.6 0 0 1-1.297.222M27.739 25v-7.09h1.053v1.07h.074q.194-.525.701-.854.508-.328 1.145-.328.12 0 .3.005t.273.014v1.108a3 3 0 0 0-.254-.042 2.5 2.5 0 0 0-.411-.032 1.9 1.9 0 0 0-.923.217q-.402.212-.637.59-.231.375-.231.855V25zm4.837 0v-7.09h1.09V25zm.056-8.051 1.126-2.142h1.274l-1.44 2.142zm5.91 8.199q-.96 0-1.685-.457a3.1 3.1 0 0 1-1.126-1.28q-.402-.82-.402-1.92 0-1.107.401-1.934.407-.826 1.127-1.283.725-.457 1.685-.457t1.68.457q.725.456 1.127 1.283.406.827.406 1.935 0 1.098-.406 1.92a3.06 3.06 0 0 1-1.127 1.279q-.72.456-1.68.457m0-.979q.729 0 1.2-.374.471-.375.697-.983.227-.61.227-1.32 0-.712-.227-1.326-.225-.614-.697-.992-.471-.378-1.2-.378t-1.2.378a2.23 2.23 0 0 0-.697.992q-.227.614-.227 1.325 0 .712.227 1.32.226.61.697.984t1.2.374m7.554.979q-.887 0-1.565-.448-.68-.452-1.062-1.274-.384-.826-.383-1.953 0-1.117.383-1.939.382-.821 1.066-1.27.684-.447 1.58-.447.69 0 1.093.23.406.227.619.518.216.285.337.47h.092v-3.49h1.09V25h-1.053v-1.09h-.13q-.12.195-.34.49a2 2 0 0 1-.633.522q-.411.225-1.094.226m.147-.979q.656 0 1.108-.342.453-.345.688-.955.236-.614.236-1.418 0-.793-.231-1.389-.231-.6-.683-.933-.453-.337-1.118-.337-.692 0-1.154.356a2.13 2.13 0 0 0-.688.956 3.8 3.8 0 0 0-.226 1.348q0 .757.231 1.375.236.615.693.979.461.36 1.144.36m8.13.979q-.96 0-1.685-.457a3.1 3.1 0 0 1-1.126-1.28q-.402-.82-.402-1.92 0-1.107.402-1.934a3.1 3.1 0 0 1 1.126-1.283q.725-.457 1.685-.457t1.68.457q.725.456 1.127 1.283.405.827.406 1.935 0 1.098-.406 1.92a3.06 3.06 0 0 1-1.127 1.279q-.72.456-1.68.457m0-.979q.729 0 1.2-.374.471-.375.697-.983.226-.61.226-1.32 0-.712-.226-1.326-.225-.614-.697-.992-.471-.378-1.2-.378t-1.2.378a2.23 2.23 0 0 0-.697.992q-.227.614-.227 1.325 0 .712.227 1.32.226.61.697.984t1.2.374"/>
      <path fill="#BE185D" d="m63.807 20.864.074-2.032-1.718 1.09-.443-.776 1.81-.942-1.81-.941.443-.776 1.718 1.09-.074-2.032h.886l-.074 2.032 1.718-1.09.443.776-1.81.941 1.81.942-.443.776-1.718-1.09.074 2.032z"/>
      <path fill="#94A3B8" fill-rule="evenodd" d="M389.188 15.125a5.063 5.063 0 1 0 0 10.126 5.063 5.063 0 0 0 0-10.126M383 20.188a6.187 6.187 0 1 1 12.375 0 6.187 6.187 0 0 1-12.375 0m7.143-2.378c-.52-.455-1.391-.455-1.911 0a.563.563 0 0 1-.741-.846c.945-.827 2.449-.827 3.393 0 .988.864.988 2.302 0 3.166a2.5 2.5 0 0 1-.544.36c-.414.2-.59.455-.59.635v.469a.562.562 0 0 1-1.125 0v-.469c0-.856.706-1.397 1.225-1.648q.16-.079.293-.193c.476-.417.476-1.057 0-1.474m-1.518 5.659c0-.31.252-.563.563-.563h.004c.311 0 .563.252.563.563v.004c0 .311-.252.563-.563.563h-.004a.563.563 0 0 1-.563-.563z" clip-rule="evenodd"/>
      <g clip-path="url(#create-workday-cyclic-example4c)">
        <path fill="#475569" d="M23.676 40.912v-1.094h7.637v1.094H28.11V50h-1.233v-9.088zM32.263 50v-7.636h1.134v1.153h.08q.208-.566.755-.92a2.22 2.22 0 0 1 1.233-.353q.13 0 .323.005.194.006.294.015v1.193q-.06-.015-.274-.044a3 3 0 0 0-.442-.035q-.558 0-.995.233a1.76 1.76 0 0 0-.686.637 1.7 1.7 0 0 0-.248.92V50zm7.456.179q-.725 0-1.317-.273a2.26 2.26 0 0 1-.94-.8q-.348-.527-.348-1.274 0-.656.259-1.063.259-.413.69-.647.434-.234.956-.348.526-.12 1.058-.189.696-.09 1.129-.134.438-.05.636-.164.204-.114.204-.398v-.04q0-.735-.402-1.143-.398-.408-1.209-.408-.84 0-1.317.368-.477.367-.671.786l-1.114-.398q.298-.696.796-1.084.502-.393 1.093-.547a4.5 4.5 0 0 1 1.174-.159q.368 0 .845.09.481.084.93.353.452.269.75.81.298.542.298 1.452V50h-1.173v-1.034h-.06q-.119.249-.397.532-.279.284-.741.482-.462.2-1.129.199m.18-1.054q.695 0 1.173-.273a1.86 1.86 0 0 0 .974-1.616v-1.074q-.075.09-.328.164a6 6 0 0 1-.577.124 26 26 0 0 1-1.123.15q-.458.06-.855.193a1.5 1.5 0 0 0-.637.393q-.238.258-.238.706 0 .612.452.925.458.308 1.158.308M45.52 50V39.818h1.173v3.759h.1q.129-.2.358-.507.233-.315.666-.557.438-.249 1.183-.249.965 0 1.7.482.736.483 1.149 1.368t.413 2.088q0 1.213-.413 2.103-.412.885-1.144 1.372-.73.482-1.685.482-.735 0-1.178-.243a2.2 2.2 0 0 1-.681-.562 8 8 0 0 1-.368-.527h-.14V50zm1.153-3.818q0 .864.254 1.526.255.656.74 1.03.488.367 1.194.367.736 0 1.228-.388a2.37 2.37 0 0 0 .746-1.054q.253-.666.253-1.481 0-.806-.248-1.452a2.24 2.24 0 0 0-.741-1.029q-.492-.383-1.238-.383-.715 0-1.203.363-.487.359-.736 1.004-.248.642-.248 1.497m9.63 3.997q-.725 0-1.317-.273a2.26 2.26 0 0 1-.94-.8q-.348-.527-.348-1.274 0-.656.259-1.063.259-.413.69-.647.434-.234.956-.348.526-.12 1.058-.189.696-.09 1.129-.134.438-.05.636-.164.204-.114.204-.398v-.04q0-.735-.403-1.143-.397-.408-1.208-.408-.84 0-1.317.368-.477.367-.671.786l-1.114-.398q.298-.696.795-1.084a3 3 0 0 1 1.094-.547 4.5 4.5 0 0 1 1.174-.159q.368 0 .845.09.481.084.93.353.452.269.75.81.298.542.298 1.452V50H58.63v-1.034h-.06q-.12.249-.397.532-.279.284-.741.482-.462.2-1.129.199m.18-1.054q.695 0 1.173-.273a1.86 1.86 0 0 0 .974-1.616v-1.074q-.075.09-.328.164a6 6 0 0 1-.577.124 26 26 0 0 1-1.123.15q-.457.06-.855.193a1.5 1.5 0 0 0-.637.393q-.238.258-.238.706 0 .612.452.925.458.308 1.158.308m6.635-9.307V50h-1.173V39.818zm3.322 5.588V50h-1.173V39.818h1.174v3.739h.099q.268-.592.805-.94.543-.353 1.442-.353.78 0 1.367.313.587.308.91.95.328.637.328 1.62V50H70.22v-4.773q0-.909-.472-1.407-.468-.502-1.298-.502-.577 0-1.034.244-.453.244-.716.71-.258.468-.258 1.134m9.346 4.773q-.726 0-1.318-.273a2.26 2.26 0 0 1-.94-.8q-.347-.527-.347-1.274 0-.656.258-1.063.26-.413.691-.647.433-.234.955-.348.526-.12 1.059-.189.696-.09 1.128-.134.438-.05.637-.164.204-.114.204-.398v-.04q0-.735-.403-1.143-.398-.408-1.208-.408-.84 0-1.318.368-.477.367-.67.786l-1.114-.398q.297-.696.795-1.084.503-.393 1.094-.547a4.5 4.5 0 0 1 1.173-.159q.368 0 .845.09.483.084.93.353.453.269.75.81.3.542.299 1.452V50h-1.173v-1.034h-.06q-.12.249-.398.532t-.74.482-1.13.199m.179-1.054q.696 0 1.173-.273a1.86 1.86 0 0 0 .975-1.616v-1.074q-.075.09-.329.164a6 6 0 0 1-.576.124 26 26 0 0 1-1.124.15q-.458.06-.855.193a1.5 1.5 0 0 0-.636.393q-.24.258-.239.706 0 .612.453.925.456.308 1.158.308m12.562 1.014a3.5 3.5 0 0 1-1.576-.348 2.9 2.9 0 0 1-1.124-.954 2.6 2.6 0 0 1-.462-1.383h1.193q.07.691.626 1.144.563.447 1.343.447.626 0 1.113-.293a2.07 2.07 0 0 0 .771-.805 2.4 2.4 0 0 0 .283-1.169q0-.666-.293-1.188a2.15 2.15 0 0 0-.795-.83 2.25 2.25 0 0 0-1.159-.308 3.2 3.2 0 0 0-.96.144q-.49.144-.81.373l-1.153-.14.616-5.01h5.29v1.093h-4.256l-.357 3.003h.06q.312-.249.785-.413a3 3 0 0 1 .984-.164q.934 0 1.666.447.735.444 1.153 1.214.423.77.423 1.76 0 .975-.438 1.74a3.2 3.2 0 0 1-1.193 1.203q-.76.437-1.73.437m12.176.02q-.954 0-1.685-.482-.73-.487-1.143-1.372-.413-.891-.413-2.103 0-1.203.413-2.088t1.148-1.368 1.7-.482q.746 0 1.179.249.437.243.666.557.234.307.363.507h.099v-3.759h1.173V50h-1.133v-1.173h-.139a8 8 0 0 1-.368.527 2.2 2.2 0 0 1-.681.562q-.442.243-1.179.243m.16-1.054q.705 0 1.193-.368.487-.372.741-1.029.253-.661.253-1.526 0-.856-.249-1.497-.247-.645-.735-1.004-.488-.363-1.203-.363-.747 0-1.243.383a2.3 2.3 0 0 0-.741 1.03q-.244.645-.244 1.45 0 .816.249 1.482.254.662.746 1.054.497.388 1.233.388m5.652.895v-7.636h1.174V50zm.597-8.91a.84.84 0 0 1-.592-.233.75.75 0 0 1-.243-.562q0-.328.243-.561a.84.84 0 0 1 .592-.234q.343 0 .587.234a.75.75 0 0 1 .248.561.75.75 0 0 1-.248.562.82.82 0 0 1-.587.234m4.973 9.089q-.726 0-1.318-.273a2.26 2.26 0 0 1-.939-.8q-.348-.527-.348-1.274 0-.656.258-1.063.258-.413.691-.647t.955-.348q.526-.12 1.059-.189.696-.09 1.128-.134.438-.05.637-.164.203-.114.203-.398v-.04q0-.735-.402-1.143-.398-.408-1.208-.408-.841 0-1.318.368-.477.367-.671.786l-1.114-.398q.298-.696.796-1.084a3 3 0 0 1 1.094-.547 4.5 4.5 0 0 1 1.173-.159q.368 0 .845.09.481.084.93.353.452.269.75.81.299.542.299 1.452V50h-1.174v-1.034h-.059a2 2 0 0 1-.398.532q-.279.284-.741.482-.462.2-1.128.199m.179-1.054q.696 0 1.173-.273a1.87 1.87 0 0 0 .726-.706q.248-.433.248-.91v-1.074q-.074.09-.328.164a6 6 0 0 1-.576.124 27 27 0 0 1-1.124.15q-.457.06-.855.193a1.5 1.5 0 0 0-.636.393q-.24.258-.239.706 0 .612.452.925.457.308 1.159.308m10.871-5.051-1.054.298a2 2 0 0 0-.293-.512 1.4 1.4 0 0 0-.517-.417q-.328-.165-.84-.165-.701 0-1.169.324-.462.318-.462.81 0 .438.318.691t.995.423l1.133.278q1.025.25 1.526.76.503.508.503 1.308 0 .657-.378 1.173-.373.517-1.044.816-.672.298-1.561.298-1.169 0-1.934-.507-.766-.507-.97-1.482l1.114-.278q.159.617.601.925.448.308 1.169.308.82 0 1.302-.348.487-.353.487-.845a.89.89 0 0 0-.278-.666q-.279-.275-.855-.408l-1.273-.298q-1.049-.25-1.541-.77-.487-.528-.487-1.318 0-.646.363-1.144.368-.497.999-.78a3.5 3.5 0 0 1 1.442-.284q1.133 0 1.78.497.651.498.924 1.313"/>
        <path fill="#94A3B8" fill-rule="evenodd" d="M348.442 48.775a.625.625 0 0 1-.884 0l-5.834-5.833a.625.625 0 0 1 .884-.884L348 47.449l5.391-5.391a.625.625 0 0 1 .884.884z" clip-rule="evenodd"/>
      </g>
      <path stroke="#CBD5E1" d="M11.5 35a3.5 3.5 0 0 1 3.5-3.5h347a3.5 3.5 0 0 1 3.5 3.5v20a3.5 3.5 0 0 1-3.5 3.5H15a3.5 3.5 0 0 1-3.5-3.5z"/>
      <g filter="url(#create-workday-cyclic-example5d)">
        <path fill="#fff" d="M370 35a4 4 0 0 1 4-4h20a4 4 0 0 1 4 4v20a4 4 0 0 1-4 4h-20a4 4 0 0 1-4-4z"/>
        <path stroke="#F8FAFC" d="M370.5 35a3.5 3.5 0 0 1 3.5-3.5h20a3.5 3.5 0 0 1 3.5 3.5v20a3.5 3.5 0 0 1-3.5 3.5h-20a3.5 3.5 0 0 1-3.5-3.5z"/>
        <path fill="#475569" fill-rule="evenodd" d="M382.542 39.074a1.365 1.365 0 1 1 2.73 0 1.365 1.365 0 0 1-2.73 0m0 5.926a1.365 1.365 0 1 1 2.73 0 1.365 1.365 0 0 1-2.73 0m0 5.926a1.366 1.366 0 1 1 2.731 0 1.366 1.366 0 0 1-2.731 0" clip-rule="evenodd"/>
      </g>
      <path fill="#CBD5E1" d="M408 1h1v68h-1z"/>
      <path fill="#F8FAFC" d="M409 1h160v68H409z"/>
      <path fill="#334155" d="M423.764 15.546h1.145v6.758q0 .905-.332 1.537a2.26 2.26 0 0 1-.937.96q-.606.328-1.427.328-.775 0-1.38-.281a2.3 2.3 0 0 1-.951-.813q-.346-.526-.346-1.25h1.126q0 .4.198.7.204.297.554.462.351.167.799.167.493 0 .84-.208t.527-.61q.184-.405.184-.992zm6.172 9.602q-.96 0-1.685-.457a3.1 3.1 0 0 1-1.126-1.28q-.402-.82-.402-1.92 0-1.107.402-1.934a3.1 3.1 0 0 1 1.126-1.283q.726-.457 1.685-.457.961 0 1.681.457.724.456 1.126 1.283.407.827.407 1.935 0 1.098-.407 1.92a3.06 3.06 0 0 1-1.126 1.279q-.72.456-1.681.457m0-.979q.73 0 1.201-.374.47-.375.697-.983a3.8 3.8 0 0 0 .226-1.32q0-.712-.226-1.326a2.23 2.23 0 0 0-.697-.992q-.47-.378-1.201-.378-.729 0-1.2.378a2.23 2.23 0 0 0-.697.992q-.226.614-.226 1.325 0 .712.226 1.32.226.61.697.984t1.2.374m4.877.831v-7.09h1.052v1.07h.074a1.7 1.7 0 0 1 .702-.854q.507-.328 1.145-.328.12 0 .3.005t.272.014v1.108a3 3 0 0 0-.254-.042 2.5 2.5 0 0 0-.411-.032 1.9 1.9 0 0 0-.923.217q-.402.212-.637.59-.231.375-.231.855V25zm5.926-4.266V25h-1.089v-7.09h1.052v1.107h.092q.25-.54.757-.868.508-.332 1.312-.332.72 0 1.26.295.54.291.84.887.3.59.3 1.495V25h-1.089v-4.432q0-.835-.434-1.302-.435-.47-1.191-.47-.522 0-.933.226-.406.225-.642.66-.235.434-.235 1.052m8.602 4.432q-.674 0-1.224-.254a2.1 2.1 0 0 1-.872-.743q-.323-.489-.323-1.182 0-.609.24-.988.24-.383.641-.6.402-.217.887-.323.49-.11.983-.175.646-.084 1.048-.125.407-.046.591-.152.189-.106.189-.37v-.037q0-.683-.374-1.061-.369-.38-1.122-.379-.78 0-1.223.342-.443.34-.623.729l-1.034-.37q.277-.646.738-1.006.467-.364 1.016-.508a4.2 4.2 0 0 1 1.089-.147q.342 0 .785.083.449.078.864.328.42.25.697.752.276.504.277 1.348V25h-1.09v-.96h-.055a1.9 1.9 0 0 1-.37.494 2.1 2.1 0 0 1-.687.448q-.43.184-1.048.184m.166-.979q.646 0 1.089-.253a1.7 1.7 0 0 0 .674-.656 1.67 1.67 0 0 0 .231-.845v-.997q-.07.083-.305.152a5 5 0 0 1-.535.116 25 25 0 0 1-1.043.138 4 4 0 0 0-.794.18 1.36 1.36 0 0 0-.591.365q-.222.24-.222.656 0 .567.42.858.425.287 1.076.287m7.75.96q-.887 0-1.565-.447-.68-.452-1.062-1.274-.383-.826-.383-1.953 0-1.117.383-1.939.383-.821 1.066-1.27.684-.447 1.579-.447.693 0 1.094.23.406.227.619.518.217.285.337.47h.092v-3.49h1.09V25h-1.053v-1.09h-.129q-.12.195-.342.49a2 2 0 0 1-.632.522q-.411.225-1.094.226m.147-.978q.657 0 1.108-.342.453-.345.688-.955.236-.614.236-1.418 0-.793-.231-1.389-.231-.6-.683-.933-.452-.337-1.118-.337-.692 0-1.154.356a2.13 2.13 0 0 0-.688.956q-.226.6-.226 1.348 0 .757.231 1.375.236.615.693.979.461.36 1.144.36m7.336.997a2.9 2.9 0 0 1-1.223-.254 2.1 2.1 0 0 1-.873-.743q-.323-.489-.323-1.182 0-.609.24-.988.24-.383.642-.6t.886-.323q.49-.11.983-.175.647-.084 1.048-.125.407-.046.591-.152.19-.106.19-.37v-.037q0-.683-.374-1.061-.37-.38-1.122-.379-.78 0-1.224.342-.443.34-.623.729l-1.034-.37q.277-.646.739-1.006a2.8 2.8 0 0 1 1.015-.508q.555-.147 1.09-.147.341 0 .785.083.447.078.863.328.42.25.697.752.277.504.277 1.348V25h-1.089v-.96h-.056a2 2 0 0 1-.369.494 2.1 2.1 0 0 1-.688.448q-.43.184-1.048.184m.166-.979q.646 0 1.09-.253a1.73 1.73 0 0 0 .905-1.5v-.998q-.07.083-.305.152a5 5 0 0 1-.536.116 24 24 0 0 1-1.043.138 4 4 0 0 0-.794.18q-.364.12-.591.365-.222.24-.221.656 0 .567.42.858.424.287 1.075.287"/>
      <path fill="#BE185D" d="m473.807 20.864.074-2.032-1.718 1.09-.443-.776 1.81-.942-1.81-.941.443-.776 1.718 1.09-.074-2.032h.886l-.074 2.032 1.718-1.09.443.776-1.81.941 1.81.942-.443.776-1.718-1.09.074 2.032z"/>
      <path fill="#94A3B8" fill-rule="evenodd" d="M550.188 15.125a5.063 5.063 0 1 0 0 10.126 5.063 5.063 0 0 0 0-10.126M544 20.188a6.187 6.187 0 1 1 12.375 0 6.187 6.187 0 0 1-12.375 0m7.143-2.378c-.52-.455-1.391-.455-1.911 0a.563.563 0 0 1-.741-.846c.945-.827 2.449-.827 3.393 0 .988.864.988 2.302 0 3.166a2.5 2.5 0 0 1-.544.36c-.414.2-.59.455-.59.635v.469a.562.562 0 0 1-1.125 0v-.469c0-.856.706-1.397 1.225-1.648q.16-.079.293-.193c.476-.417.476-1.057 0-1.474m-1.518 5.659c0-.31.252-.563.563-.563h.004c.311 0 .563.252.563.563v.004c0 .311-.252.563-.563.563h-.004a.563.563 0 0 1-.563-.563z" clip-rule="evenodd"/>
      <g clip-path="url(#create-workday-cyclic-example6e)">
        <path fill="#fff" d="M419 35a4 4 0 0 1 4-4h60a4 4 0 0 1 4 4v20a4 4 0 0 1-4 4h-60a4 4 0 0 1-4-4z"/>
        <path fill="#475569" d="M438.438 46.192q0 .951-.219 1.689a3.5 3.5 0 0 1-.629 1.23 2.64 2.64 0 0 1-1.005.766q-.595.26-1.36.26-.76 0-1.361-.253a2.65 2.65 0 0 1-1.018-.773 3.4 3.4 0 0 1-.636-1.23q-.219-.738-.219-1.689v-2.33q0-.951.219-1.682a3.5 3.5 0 0 1 .636-1.245 2.6 2.6 0 0 1 1.005-.765 3.3 3.3 0 0 1 1.36-.267q.765 0 1.36.267a2.7 2.7 0 0 1 1.019.765q.41.506.629 1.245.219.731.219 1.681zm-5.175-.252 3.876-2.974a3.5 3.5 0 0 0-.199-.868 1.8 1.8 0 0 0-.376-.636 1.44 1.44 0 0 0-.574-.39 2.2 2.2 0 0 0-.779-.13q-.451 0-.8.144a1.54 1.54 0 0 0-.581.403 2.2 2.2 0 0 0-.431.868q-.136.527-.136 1.224v2.359m3.903.519v-2.283l-3.869 2.96q.061.498.219.882.156.376.41.622.233.232.56.355.328.117.739.116.43 0 .765-.13.336-.13.568-.376.314-.334.458-.874.15-.54.15-1.272m8.094-6.419v1.135h-.11q-.902 0-1.531.26a2.9 2.9 0 0 0-1.039.683q-.43.451-.656 1.073-.22.622-.26 1.279.178-.212.41-.39.233-.184.506-.321.267-.13.574-.205.315-.082.657-.082.745 0 1.285.287.54.28.888.745.35.464.513 1.053a4.45 4.45 0 0 1-.034 2.508q-.192.615-.581 1.074-.39.465-.971.731-.574.267-1.333.267-.765 0-1.347-.308a3.1 3.1 0 0 1-.977-.8 3.6 3.6 0 0 1-.663-1.258 5 5 0 0 1-.219-1.449v-.595q0-1.244.294-2.447a4.3 4.3 0 0 1 1.148-2.057 3.7 3.7 0 0 1 1.429-.882q.841-.3 1.907-.301zm-1.655 4.484q-.32 0-.622.103a2.17 2.17 0 0 0-1.018.731 2.2 2.2 0 0 0-.315.575v.423q0 .657.158 1.17.157.505.423.854.267.348.616.533.348.178.731.178.444 0 .786-.171.342-.17.581-.472.232-.3.349-.718.123-.423.123-.915 0-.438-.109-.848a2.3 2.3 0 0 0-.335-.739 1.7 1.7 0 0 0-.568-.512 1.6 1.6 0 0 0-.8-.192m7.944 4.656q0-.405.246-.69.246-.288.745-.288.493 0 .745.287.26.28.26.69a.95.95 0 0 1-.26.677q-.26.274-.745.274-.492 0-.745-.274a1 1 0 0 1-.246-.676m0-5.989q0-.404.246-.69.246-.287.745-.287.493 0 .745.287.26.28.26.69a.95.95 0 0 1-.26.677q-.26.273-.745.274-.492 0-.745-.274a1 1 0 0 1-.246-.677m12.113 3.001q0 .951-.219 1.689a3.5 3.5 0 0 1-.629 1.23 2.6 2.6 0 0 1-1.004.766q-.595.26-1.361.26-.759 0-1.36-.253a2.65 2.65 0 0 1-1.019-.773 3.4 3.4 0 0 1-.635-1.23q-.219-.738-.219-1.689v-2.33q0-.951.219-1.682.218-.738.635-1.245a2.64 2.64 0 0 1 1.005-.765 3.3 3.3 0 0 1 1.361-.267q.765 0 1.36.267.601.26 1.018.765.411.506.629 1.245.219.731.219 1.681zm-5.175-.252 3.876-2.974a3.5 3.5 0 0 0-.198-.868 1.8 1.8 0 0 0-.376-.636 1.45 1.45 0 0 0-.574-.39 2.2 2.2 0 0 0-.779-.13q-.452 0-.8.144a1.5 1.5 0 0 0-.581.403q-.288.336-.431.868-.137.527-.137 1.224v2.359m3.904.519v-2.283l-3.87 2.96q.062.498.219.882.158.376.41.622.232.232.561.355.328.117.738.116.431 0 .766-.13.334-.13.567-.376.315-.334.458-.874.15-.54.151-1.272m9.679-.267q0 .951-.218 1.689a3.5 3.5 0 0 1-.629 1.23 2.64 2.64 0 0 1-1.005.766q-.595.26-1.361.26-.758 0-1.36-.253a2.65 2.65 0 0 1-1.018-.773 3.4 3.4 0 0 1-.636-1.23q-.219-.738-.219-1.689v-2.33q0-.951.219-1.682a3.5 3.5 0 0 1 .636-1.245 2.6 2.6 0 0 1 1.004-.765 3.3 3.3 0 0 1 1.361-.267q.765 0 1.36.267a2.7 2.7 0 0 1 1.019.765q.41.506.629 1.245.218.731.218 1.681zm-5.174-.252 3.875-2.974a3.5 3.5 0 0 0-.198-.868 1.8 1.8 0 0 0-.376-.636 1.45 1.45 0 0 0-.574-.39 2.2 2.2 0 0 0-.779-.13q-.452 0-.8.144a1.5 1.5 0 0 0-.581.403q-.287.336-.431.868-.136.527-.136 1.224v2.359m3.903.519v-2.283l-3.869 2.96q.062.498.218.882.158.376.411.622.232.232.56.355.328.117.738.116.432 0 .766-.13t.567-.376q.315-.334.458-.874.151-.54.151-1.272"/>
      </g>
      <path stroke="#CBD5E1" d="M419.5 35a3.5 3.5 0 0 1 3.5-3.5h60a3.5 3.5 0 0 1 3.5 3.5v20a3.5 3.5 0 0 1-3.5 3.5h-60a3.5 3.5 0 0 1-3.5-3.5z"/>
      <g clip-path="url(#create-workday-cyclic-example7f)">
        <path fill="#fff" d="M491 35a4 4 0 0 1 4-4h60a4 4 0 0 1 4 4v20a4 4 0 0 1-4 4h-60a4 4 0 0 1-4-4z"/>
        <path fill="#475569" d="M508.291 50h-1.265v-8.34l-2.604.991v-1.155l3.766-1.45h.103zm5.667-1.121q.957 0 1.593-.226.642-.232 1.032-.65.471-.511.636-1.1a5.7 5.7 0 0 0 .198-1.216v-.014a3 3 0 0 1-.376.39 2.6 2.6 0 0 1-.479.314 2.8 2.8 0 0 1-.594.219 3 3 0 0 1-.704.075q-.74 0-1.279-.287a2.7 2.7 0 0 1-.881-.766 3.2 3.2 0 0 1-.513-1.066 4.5 4.5 0 0 1-.164-1.197q0-.704.191-1.326.198-.629.588-1.1a2.75 2.75 0 0 1 .957-.739q.58-.28 1.347-.28.765 0 1.326.287.567.28.95.745.451.547.677 1.368.225.813.225 1.627v.458q0 1.154-.246 2.324a4.43 4.43 0 0 1-1.052 2.064q-.486.547-1.347.889-.855.335-2.085.335h-.13v-1.128zm1.511-3.254a1.92 1.92 0 0 0 1.189-.41 2.34 2.34 0 0 0 .773-1.04v-.41q0-.662-.158-1.182a2.9 2.9 0 0 0-.41-.882 1.9 1.9 0 0 0-.615-.547 1.5 1.5 0 0 0-.731-.191q-.445 0-.787.178-.341.177-.574.485-.239.315-.362.745a3.3 3.3 0 0 0-.123.916q0 .438.109.861.11.417.335.746.22.327.554.533.341.198.8.198m8.08 3.555q0-.405.246-.69.246-.288.745-.288.492 0 .745.287.26.28.26.69a.95.95 0 0 1-.26.677q-.26.274-.745.274-.492 0-.745-.274a1 1 0 0 1-.246-.676m0-5.989q0-.404.246-.69.246-.287.745-.287.492 0 .745.287.26.28.26.69a.95.95 0 0 1-.26.677q-.26.273-.745.274-.492 0-.745-.274a1 1 0 0 1-.246-.677m12.113 3.001q0 .951-.219 1.689a3.5 3.5 0 0 1-.629 1.23 2.6 2.6 0 0 1-1.004.766q-.595.26-1.361.26-.759 0-1.36-.253a2.65 2.65 0 0 1-1.019-.773 3.4 3.4 0 0 1-.635-1.23q-.219-.738-.219-1.689v-2.33q0-.951.219-1.682.218-.738.635-1.245a2.64 2.64 0 0 1 1.005-.765 3.3 3.3 0 0 1 1.361-.267q.765 0 1.36.267.601.26 1.018.765.411.506.629 1.245.219.731.219 1.681zm-5.175-.252 3.876-2.974a3.5 3.5 0 0 0-.198-.868 1.8 1.8 0 0 0-.376-.636 1.45 1.45 0 0 0-.574-.39 2.2 2.2 0 0 0-.779-.13q-.452 0-.8.144a1.5 1.5 0 0 0-.581.403q-.287.336-.431.868-.137.527-.137 1.224v2.359m3.904.519v-2.283l-3.87 2.96q.062.498.219.882.158.376.41.622.232.232.561.355.329.117.738.116.431 0 .766-.13.334-.13.567-.376.315-.334.458-.874.15-.54.151-1.272m9.679-.267q0 .951-.218 1.689a3.5 3.5 0 0 1-.629 1.23 2.64 2.64 0 0 1-1.005.766q-.595.26-1.361.26-.758 0-1.36-.253a2.65 2.65 0 0 1-1.018-.773 3.4 3.4 0 0 1-.636-1.23q-.219-.738-.219-1.689v-2.33q0-.951.219-1.682a3.5 3.5 0 0 1 .636-1.245 2.6 2.6 0 0 1 1.004-.765 3.3 3.3 0 0 1 1.361-.267q.765 0 1.36.267a2.7 2.7 0 0 1 1.019.765q.41.506.629 1.245.218.731.218 1.681zm-5.174-.252 3.875-2.974a3.5 3.5 0 0 0-.198-.868 1.8 1.8 0 0 0-.376-.636 1.45 1.45 0 0 0-.574-.39 2.2 2.2 0 0 0-.779-.13q-.452 0-.8.144a1.5 1.5 0 0 0-.581.403q-.288.336-.431.868-.136.527-.136 1.224v2.359m3.903.519v-2.283l-3.869 2.96q.062.498.218.882.157.376.411.622.232.232.56.355.328.117.738.116.432 0 .766-.13t.567-.376q.315-.334.458-.874.151-.54.151-1.272"/>
      </g>
      <path stroke="#CBD5E1" d="M491.5 35a3.5 3.5 0 0 1 3.5-3.5h60a3.5 3.5 0 0 1 3.5 3.5v20a3.5 3.5 0 0 1-3.5 3.5h-60a3.5 3.5 0 0 1-3.5-3.5z"/>
      <path fill="#CBD5E1" d="M569 1h1v68h-1z"/>
      <path fill="#334155" d="M582.29 15.546V25h-1.145v-9.454zm3.237 5.188V25h-1.089v-7.09h1.052v1.107h.092q.25-.54.758-.868.507-.332 1.311-.332.72 0 1.26.295.54.291.84.887.3.59.3 1.495V25h-1.089v-4.432q0-.835-.434-1.302-.435-.47-1.191-.47-.522 0-.933.226a1.6 1.6 0 0 0-.641.66q-.236.434-.236 1.052m9.599-2.825v.923h-3.675v-.923zm-2.604-1.699h1.09v6.759q0 .46.134.692.138.227.35.305.217.075.457.074.18 0 .296-.019l.185-.037.221.98a2 2 0 0 1-.309.082q-.198.046-.503.046a2.2 2.2 0 0 1-.905-.198 1.8 1.8 0 0 1-.73-.605q-.285-.405-.286-1.025zm7.14 8.938q-1.025 0-1.769-.453a3.04 3.04 0 0 1-1.14-1.274q-.397-.822-.397-1.911 0-1.09.397-1.92.402-.836 1.117-1.302.72-.471 1.681-.471.554 0 1.094.184.54.185.983.6.443.412.707 1.09.263.68.263 1.671v.462h-5.466v-.942h4.358q0-.6-.24-1.07a1.8 1.8 0 0 0-.674-.744 1.9 1.9 0 0 0-1.025-.273q-.651 0-1.127.324-.47.318-.724.83-.255.512-.254 1.1v.627q0 .804.277 1.362.28.554.78.845.498.285 1.159.286.429 0 .775-.12.351-.124.605-.37.254-.248.392-.618l1.053.296a2.3 2.3 0 0 1-.559.941 2.7 2.7 0 0 1-.969.628 3.6 3.6 0 0 1-1.297.222m4.593-.148v-7.09h1.053v1.07h.073q.195-.525.702-.854.508-.328 1.145-.328.12 0 .3.005t.272.014v1.108a3 3 0 0 0-.253-.042 2.5 2.5 0 0 0-.411-.032q-.518 0-.924.217-.401.212-.637.59-.231.375-.231.855V25zm10.851-7.09L612.484 25h-1.108l-2.622-7.09h1.182l1.957 5.65h.074l1.957-5.65zm3.309 7.256q-.673 0-1.224-.254a2.1 2.1 0 0 1-.872-.743q-.323-.489-.323-1.182 0-.609.24-.988.24-.383.642-.6.401-.217.886-.323.49-.11.983-.175.646-.084 1.048-.125.406-.046.591-.152.189-.106.189-.37v-.037q0-.683-.374-1.061-.37-.38-1.121-.379-.78 0-1.224.342-.443.34-.623.729l-1.034-.37q.277-.646.739-1.006.465-.364 1.015-.508.555-.147 1.09-.147.34 0 .785.083.447.078.863.328.42.25.697.752.277.504.277 1.348V25h-1.09v-.96h-.055a2 2 0 0 1-.369.494 2.1 2.1 0 0 1-.688.448q-.43.184-1.048.184m.166-.979q.646 0 1.09-.253.447-.255.674-.656.23-.402.23-.845v-.997q-.069.083-.304.152a5 5 0 0 1-.536.116 24 24 0 0 1-1.043.138 4 4 0 0 0-.794.18q-.365.12-.591.365-.222.24-.222.656 0 .567.42.858.426.287 1.076.287m6.162-8.641V25h-1.09v-9.454zm4.876 9.602q-.96 0-1.685-.457a3.1 3.1 0 0 1-1.126-1.28q-.402-.82-.402-1.92 0-1.107.402-1.934.405-.826 1.126-1.283.725-.457 1.685-.457t1.68.457q.726.456 1.127 1.283.406.827.406 1.935 0 1.098-.406 1.92a3.06 3.06 0 0 1-1.127 1.279q-.72.456-1.68.457m0-.979q.729 0 1.2-.374.471-.375.697-.983a3.8 3.8 0 0 0 .227-1.32 3.8 3.8 0 0 0-.227-1.326q-.226-.614-.697-.992t-1.2-.378-1.2.378a2.23 2.23 0 0 0-.697.992 3.8 3.8 0 0 0-.227 1.325q0 .712.227 1.32.226.61.697.984t1.2.374"/>
      <path fill="#94A3B8" fill-rule="evenodd" d="M755.188 15.125a5.063 5.063 0 1 0 0 10.126 5.063 5.063 0 0 0 0-10.126M749 20.188a6.187 6.187 0 1 1 12.375 0 6.187 6.187 0 0 1-12.375 0m7.143-2.378c-.52-.455-1.391-.455-1.911 0a.563.563 0 0 1-.741-.846c.945-.827 2.449-.827 3.393 0 .988.864.988 2.302 0 3.166a2.5 2.5 0 0 1-.544.36c-.414.2-.59.455-.59.635v.469a.562.562 0 0 1-1.125 0v-.469c0-.856.706-1.397 1.225-1.648q.16-.079.293-.193c.476-.417.476-1.057 0-1.474m-1.518 5.659c0-.31.252-.563.563-.563h.004c.311 0 .563.252.563.563v.004c0 .311-.252.563-.563.563h-.004a.563.563 0 0 1-.563-.563z" clip-rule="evenodd"/>
      <path stroke="#CBD5E1" d="M580.5 35a3.5 3.5 0 0 1 3.5-3.5h66a3.5 3.5 0 0 1 3.5 3.5v20a3.5 3.5 0 0 1-3.5 3.5h-66a3.5 3.5 0 0 1-3.5-3.5z"/>
      <path fill="#475569" d="M597.291 50h-1.265v-8.34l-2.604.991v-1.155l3.766-1.45h.103zm8.408 0h-1.264v-8.34l-2.605.991v-1.155l3.767-1.45h.102zm6.85-.82q0-.405.246-.69.246-.288.745-.288.492 0 .745.287.26.28.26.69a.95.95 0 0 1-.26.677q-.26.274-.745.274-.492 0-.745-.274a1 1 0 0 1-.246-.676m0-5.989q0-.404.246-.69.246-.287.745-.287.492 0 .745.287.26.28.26.69a.95.95 0 0 1-.26.677q-.26.273-.745.274-.492 0-.745-.274a1 1 0 0 1-.246-.677m12.113 3.001q0 .951-.219 1.689a3.5 3.5 0 0 1-.629 1.23 2.6 2.6 0 0 1-1.004.766q-.595.26-1.361.26-.759 0-1.36-.253a2.65 2.65 0 0 1-1.019-.773 3.4 3.4 0 0 1-.635-1.23q-.219-.738-.219-1.689v-2.33q0-.951.219-1.682.218-.738.635-1.245a2.64 2.64 0 0 1 1.005-.765 3.3 3.3 0 0 1 1.361-.267q.765 0 1.36.267.601.26 1.018.765.411.506.629 1.245.219.731.219 1.681zm-5.175-.252 3.876-2.974a3.5 3.5 0 0 0-.198-.868 1.8 1.8 0 0 0-.376-.636 1.45 1.45 0 0 0-.574-.39 2.2 2.2 0 0 0-.779-.13q-.452 0-.8.144a1.5 1.5 0 0 0-.581.403q-.287.336-.431.868-.137.527-.137 1.224v2.359m3.904.519v-2.283l-3.87 2.96q.062.498.219.882.158.376.41.622.232.232.561.355.329.117.738.116.431 0 .766-.13.334-.13.567-.376.315-.334.458-.874.15-.54.151-1.272m9.679-.267q0 .951-.218 1.689a3.5 3.5 0 0 1-.629 1.23 2.64 2.64 0 0 1-1.005.766q-.595.26-1.361.26-.758 0-1.36-.253a2.65 2.65 0 0 1-1.018-.773 3.4 3.4 0 0 1-.636-1.23q-.219-.738-.219-1.689v-2.33q0-.951.219-1.682a3.5 3.5 0 0 1 .636-1.245 2.6 2.6 0 0 1 1.004-.765 3.3 3.3 0 0 1 1.361-.267q.765 0 1.36.267a2.7 2.7 0 0 1 1.019.765q.41.506.629 1.245.218.731.218 1.681zm-5.174-.252 3.875-2.974a3.5 3.5 0 0 0-.198-.868 1.8 1.8 0 0 0-.376-.636 1.45 1.45 0 0 0-.574-.39 2.2 2.2 0 0 0-.779-.13q-.452 0-.8.144a1.5 1.5 0 0 0-.581.403q-.288.336-.431.868-.136.527-.136 1.224v2.359m3.903.519v-2.283l-3.869 2.96q.062.498.218.882.157.376.411.622.232.232.56.355.328.117.738.116.432 0 .766-.13t.567-.376q.315-.334.458-.874.151-.54.151-1.272"/>
      <path stroke="#CBD5E1" d="M658.5 35a3.5 3.5 0 0 1 3.5-3.5h66a3.5 3.5 0 0 1 3.5 3.5v20a3.5 3.5 0 0 1-3.5 3.5h-66a3.5 3.5 0 0 1-3.5-3.5z"/>
      <path fill="#475569" d="M675.291 50h-1.265v-8.34l-2.604.991v-1.155l3.766-1.45h.103zm10.411 0h-6.521v-.91l3.26-3.622q.438-.485.732-.862.294-.376.472-.697.177-.315.252-.594.076-.288.076-.588 0-.37-.123-.69a1.6 1.6 0 0 0-.342-.568 1.7 1.7 0 0 0-.561-.376 1.8 1.8 0 0 0-.731-.144q-.5 0-.868.144a1.6 1.6 0 0 0-.602.403 1.7 1.7 0 0 0-.369.643q-.116.375-.116.84h-1.272q0-.629.219-1.182.219-.561.636-.978a3 3 0 0 1 1.005-.663 3.6 3.6 0 0 1 1.367-.246q.704 0 1.264.212.568.205.958.574.39.37.594.875a2.8 2.8 0 0 1 .062 1.983 4.7 4.7 0 0 1-.404.854 7.5 7.5 0 0 1-.601.841q-.334.41-.711.82l-2.673 2.899h4.997zm4.847-.82q0-.405.246-.69.246-.288.745-.288.492 0 .745.287.26.28.26.69a.95.95 0 0 1-.26.677q-.26.274-.745.274-.492 0-.745-.274a1 1 0 0 1-.246-.676m0-5.989q0-.404.246-.69.246-.287.745-.287.492 0 .745.287.26.28.26.69a.95.95 0 0 1-.26.677q-.26.273-.745.274-.492 0-.745-.274a1 1 0 0 1-.246-.677m12.113 3.001q0 .951-.219 1.689a3.5 3.5 0 0 1-.629 1.23 2.6 2.6 0 0 1-1.004.766q-.595.26-1.361.26-.759 0-1.36-.253a2.65 2.65 0 0 1-1.019-.773 3.4 3.4 0 0 1-.635-1.23q-.219-.738-.219-1.689v-2.33q0-.951.219-1.682.218-.738.635-1.245a2.64 2.64 0 0 1 1.005-.765 3.3 3.3 0 0 1 1.361-.267q.765 0 1.36.267.601.26 1.018.765.411.506.629 1.245.219.731.219 1.681zm-5.175-.252 3.876-2.974a3.5 3.5 0 0 0-.198-.868 1.8 1.8 0 0 0-.376-.636 1.45 1.45 0 0 0-.574-.39 2.2 2.2 0 0 0-.779-.13q-.452 0-.8.144a1.5 1.5 0 0 0-.581.403q-.287.336-.431.868-.137.527-.137 1.224v2.359m3.904.519v-2.283l-3.87 2.96q.062.498.219.882.158.376.41.622.232.232.561.355.329.117.738.116.431 0 .766-.13.334-.13.567-.376.315-.334.458-.874.15-.54.151-1.272m9.679-.267q0 .951-.218 1.689a3.5 3.5 0 0 1-.629 1.23 2.64 2.64 0 0 1-1.005.766q-.595.26-1.361.26-.758 0-1.36-.253a2.65 2.65 0 0 1-1.018-.773 3.4 3.4 0 0 1-.636-1.23q-.219-.738-.219-1.689v-2.33q0-.951.219-1.682a3.5 3.5 0 0 1 .636-1.245 2.6 2.6 0 0 1 1.004-.765 3.3 3.3 0 0 1 1.361-.267q.765 0 1.36.267a2.7 2.7 0 0 1 1.019.765q.41.506.629 1.245.218.731.218 1.681zm-5.174-.252 3.875-2.974a3.5 3.5 0 0 0-.198-.868 1.8 1.8 0 0 0-.376-.636 1.45 1.45 0 0 0-.574-.39 2.2 2.2 0 0 0-.779-.13q-.452 0-.8.144a1.5 1.5 0 0 0-.581.403q-.287.336-.431.868-.136.527-.136 1.224v2.359m3.903.519v-2.283l-3.869 2.96q.062.498.218.882.157.376.411.622.232.232.56.355.329.117.738.116.432 0 .766-.13.335-.13.567-.376.315-.334.458-.874.151-.54.151-1.272"/>
      <g filter="url(#create-workday-cyclic-example8g)">
        <path fill="#fff" d="M736 35a4 4 0 0 1 4-4h20a4 4 0 0 1 4 4v20a4 4 0 0 1-4 4h-20a4 4 0 0 1-4-4z"/>
        <path stroke="#F8FAFC" d="M736.5 35a3.5 3.5 0 0 1 3.5-3.5h20a3.5 3.5 0 0 1 3.5 3.5v20a3.5 3.5 0 0 1-3.5 3.5h-20a3.5 3.5 0 0 1-3.5-3.5z"/>
        <path fill="#475569" fill-rule="evenodd" d="M748.542 39.074a1.365 1.365 0 1 1 2.73 0 1.365 1.365 0 0 1-2.73 0m0 5.926a1.365 1.365 0 1 1 2.73 0 1.365 1.365 0 0 1-2.73 0m0 5.926a1.366 1.366 0 1 1 2.731 0 1.366 1.366 0 0 1-2.731 0" clip-rule="evenodd"/>
      </g>
      <path fill="#CBD5E1" d="M774 1h1v68h-1z"/>
      <path fill="#F8FAFC" d="M775 1h130v68H775z"/>
      <path fill="#334155" d="M786.145 25v-9.454h5.669v1.015h-4.524v3.195h4.099v1.015h-4.099V25zm7.482 0v-7.09h1.09V25zm.554-8.273a.78.78 0 0 1-.549-.217.7.7 0 0 1-.227-.521q0-.304.227-.522a.77.77 0 0 1 .549-.217.76.76 0 0 1 .545.217.7.7 0 0 1 .231.522.7.7 0 0 1-.231.521.76.76 0 0 1-.545.217M796.712 25v-7.09h1.053v1.107h.092q.222-.567.715-.882.495-.318 1.187-.318.702 0 1.168.318.47.314.734.882h.074q.272-.55.817-.872.544-.328 1.306-.328.951 0 1.556.595.605.591.605 1.842V25h-1.09v-4.746q0-.785-.429-1.122a1.6 1.6 0 0 0-1.011-.337q-.748 0-1.159.453-.411.447-.411 1.136V25h-1.108v-4.857q0-.604-.392-.974-.393-.373-1.011-.373-.425 0-.794.226-.365.226-.591.628a1.85 1.85 0 0 0-.222.918V25zm17.633.148q-.887 0-1.565-.448-.68-.452-1.062-1.274-.384-.826-.383-1.953 0-1.117.383-1.939.383-.821 1.066-1.27.684-.447 1.579-.447.692 0 1.094.23.406.227.619.518.216.285.337.47h.092v-3.49h1.09V25h-1.053v-1.09h-.129q-.12.195-.342.49a2 2 0 0 1-.632.522q-.411.225-1.094.226m.147-.979q.656 0 1.108-.342.453-.345.688-.955.236-.614.236-1.418 0-.793-.231-1.389-.231-.6-.683-.933-.452-.337-1.118-.337-.692 0-1.154.356a2.13 2.13 0 0 0-.688.956q-.226.6-.226 1.348 0 .757.231 1.375.236.615.692.979.462.36 1.145.36m8.13.979q-.96 0-1.685-.457a3.1 3.1 0 0 1-1.126-1.28q-.402-.82-.402-1.92 0-1.107.402-1.934.405-.826 1.126-1.283.725-.457 1.685-.457t1.68.457q.726.456 1.127 1.283.406.827.406 1.935 0 1.098-.406 1.92a3.06 3.06 0 0 1-1.127 1.279q-.72.456-1.68.457m0-.979q.729 0 1.2-.374.471-.375.697-.983a3.8 3.8 0 0 0 .227-1.32 3.8 3.8 0 0 0-.227-1.326q-.226-.614-.697-.992t-1.2-.378-1.2.378a2.23 2.23 0 0 0-.697.992 3.8 3.8 0 0 0-.227 1.325q0 .712.227 1.32.226.61.697.984t1.2.374m11.616-6.26v.923h-3.675v-.923zm-2.604-1.699h1.09v6.759q0 .46.134.692a.7.7 0 0 0 .351.305q.217.075.457.074.18 0 .295-.019l.185-.037.221.98a2 2 0 0 1-.309.082q-.198.046-.503.046-.462 0-.905-.198a1.8 1.8 0 0 1-.729-.605q-.287-.405-.287-1.025zm8.712 5.89v-4.19h1.089V25h-1.089v-1.2h-.074q-.25.54-.776.918-.526.374-1.329.374a2.37 2.37 0 0 1-1.182-.29 2.04 2.04 0 0 1-.813-.887q-.294-.595-.295-1.5v-4.506h1.09v4.432q0 .776.433 1.237.439.462 1.118.462.406 0 .826-.208.425-.207.711-.637.291-.43.291-1.094m3.085 2.9v-7.09h1.052v1.07h.074a1.7 1.7 0 0 1 .702-.854q.507-.328 1.145-.328.12 0 .3.005t.272.014v1.108a3 3 0 0 0-.254-.042 2.5 2.5 0 0 0-.411-.032 1.9 1.9 0 0 0-.923.217q-.402.212-.637.59-.231.375-.231.855V25zm5.926-4.266V25h-1.089v-7.09h1.052v1.107h.093q.249-.54.757-.868.507-.332 1.311-.332.72 0 1.26.295.54.291.84.887.3.59.3 1.495V25h-1.089v-4.432q0-.835-.434-1.302-.434-.47-1.191-.47-.522 0-.933.226-.406.225-.641.66-.236.434-.236 1.052m9.396 4.414q-.96 0-1.685-.457a3.1 3.1 0 0 1-1.127-1.28q-.4-.82-.401-1.92 0-1.107.401-1.934.407-.826 1.127-1.283.725-.457 1.685-.457t1.68.457q.725.456 1.127 1.283.405.827.406 1.935 0 1.098-.406 1.92a3.07 3.07 0 0 1-1.127 1.279q-.72.456-1.68.457m0-.979q.729 0 1.2-.374.47-.375.697-.983a3.8 3.8 0 0 0 .226-1.32q0-.712-.226-1.326a2.23 2.23 0 0 0-.697-.992q-.471-.378-1.2-.378-.73 0-1.2.378a2.24 2.24 0 0 0-.698.992q-.225.614-.226 1.325 0 .712.226 1.32.227.61.698.984.47.374 1.2.374"/>
      <path fill="#94A3B8" fill-rule="evenodd" d="M886.188 15.125a5.063 5.063 0 1 0 0 10.126 5.063 5.063 0 0 0 0-10.126M880 20.188a6.187 6.187 0 1 1 12.375 0 6.187 6.187 0 0 1-12.375 0m7.143-2.378c-.52-.455-1.391-.455-1.911 0a.563.563 0 0 1-.741-.846c.945-.827 2.449-.827 3.393 0 .988.864.988 2.302 0 3.166a2.5 2.5 0 0 1-.544.36c-.414.2-.59.455-.59.635v.469a.562.562 0 0 1-1.125 0v-.469c0-.856.706-1.397 1.225-1.648q.16-.079.293-.193c.476-.417.476-1.057 0-1.474m-1.518 5.659c0-.31.252-.563.563-.563h.004c.311 0 .563.252.563.563v.004c0 .311-.252.563-.563.563h-.004a.563.563 0 0 1-.563-.563z" clip-rule="evenodd"/>
      <g filter="url(#create-workday-cyclic-example9h)">
        <path fill="#F8FAFC" d="M785 35a4 4 0 0 1 4-4h70a4 4 0 0 1 4 4v20a4 4 0 0 1-4 4h-70a4 4 0 0 1-4-4z"/>
        <path stroke="#CBD5E1" d="M785.5 35a3.5 3.5 0 0 1 3.5-3.5h70a3.5 3.5 0 0 1 3.5 3.5v20a3.5 3.5 0 0 1-3.5 3.5h-70a3.5 3.5 0 0 1-3.5-3.5z"/>
        <path fill="#94A3B8" d="M809.794 50h-6.522v-.91l3.261-3.622q.438-.485.732-.862.294-.376.471-.697.178-.315.253-.594.075-.288.075-.588 0-.37-.123-.69a1.6 1.6 0 0 0-.341-.568 1.7 1.7 0 0 0-.561-.376 1.8 1.8 0 0 0-.731-.144q-.499 0-.869.144a1.6 1.6 0 0 0-.97 1.046q-.116.375-.116.84h-1.272q0-.629.219-1.182.219-.561.636-.978a3 3 0 0 1 1.004-.663 3.6 3.6 0 0 1 1.368-.246q.704 0 1.264.212.568.205.957.574.39.37.595.875a2.83 2.83 0 0 1 .062 1.983 4.7 4.7 0 0 1-.404.854 7.5 7.5 0 0 1-.601.841q-.336.41-.711.82l-2.673 2.899h4.997zm3.78-5.585h.903q.479 0 .84-.13.37-.13.622-.355.247-.225.376-.54.13-.315.13-.69 0-.446-.116-.773a1.4 1.4 0 0 0-.342-.554 1.35 1.35 0 0 0-.547-.314 2.3 2.3 0 0 0-.738-.11q-.403 0-.738.123a1.553 1.553 0 0 0-.93.882 1.8 1.8 0 0 0-.13.704h-1.271a2.62 2.62 0 0 1 .847-1.948 3 3 0 0 1 .964-.581 3.5 3.5 0 0 1 1.258-.219q.67 0 1.224.185.554.177.95.533.396.355.615.882.219.525.219 1.217 0 .287-.089.594-.088.308-.273.595-.185.294-.479.554-.287.253-.69.424.485.156.806.41.329.252.527.567.19.314.266.663.082.35.082.69 0 .698-.239 1.238t-.663.91q-.425.375-1.005.573a3.9 3.9 0 0 1-1.244.192q-.657 0-1.237-.185a2.9 2.9 0 0 1-.998-.54 2.6 2.6 0 0 1-.677-.868 2.7 2.7 0 0 1-.246-1.169h1.264q0 .39.13.71.137.322.383.548.246.225.595.348.356.123.786.123t.779-.109q.35-.116.595-.348.246-.233.376-.575.137-.349.137-.82 0-.465-.158-.8a1.5 1.5 0 0 0-.423-.567 1.9 1.9 0 0 0-.677-.335 3.2 3.2 0 0 0-.861-.11h-.903zm9.475 4.765q0-.405.246-.69.246-.288.745-.288.492 0 .745.287.26.28.26.69a.95.95 0 0 1-.26.677q-.26.274-.745.274-.492 0-.745-.274a1 1 0 0 1-.246-.676m0-5.989q0-.404.246-.69.246-.287.745-.287.492 0 .745.287.26.28.26.69a.95.95 0 0 1-.26.677q-.26.273-.745.274-.492 0-.745-.274a1 1 0 0 1-.246-.677m6.316 1.819.499-4.963h5.107v1.23h-4.04l-.281 2.653q.294-.171.704-.301a3.2 3.2 0 0 1 .951-.13q.69 0 1.237.24.547.238.93.67.383.436.588 1.052.205.615.205 1.367 0 .711-.192 1.32a2.9 2.9 0 0 1-.574 1.045q-.39.445-.978.698-.587.246-1.38.246-.609 0-1.149-.171a2.9 2.9 0 0 1-.957-.513 2.7 2.7 0 0 1-.697-.861 3.4 3.4 0 0 1-.335-1.21h1.203q.117.847.622 1.285.512.438 1.313.438.45 0 .799-.158.35-.164.588-.465.232-.294.349-.71a3.3 3.3 0 0 0 .123-.93q0-.466-.137-.868a2 2 0 0 0-.383-.704 1.8 1.8 0 0 0-.622-.465 2 2 0 0 0-.847-.171q-.315 0-.547.048a1.8 1.8 0 0 0-.41.123 2 2 0 0 0-.349.198 5 5 0 0 0-.328.267zm9.318 3.869q.957 0 1.592-.226.643-.232 1.033-.65.471-.511.635-1.1a5.6 5.6 0 0 0 .199-1.216v-.014q-.165.206-.376.39a2.6 2.6 0 0 1-.479.314 2.8 2.8 0 0 1-.595.219 3 3 0 0 1-.704.075q-.738 0-1.278-.287a2.7 2.7 0 0 1-.882-.766 3.2 3.2 0 0 1-.513-1.066 4.5 4.5 0 0 1-.164-1.197q0-.704.192-1.326.198-.629.588-1.1a2.75 2.75 0 0 1 .957-.739q.58-.28 1.346-.28t1.327.287q.567.28.95.745.451.547.677 1.368.225.813.225 1.627v.458q0 1.154-.246 2.324a4.4 4.4 0 0 1-1.053 2.064q-.485.547-1.346.889-.855.335-2.085.335h-.13v-1.128zm1.51-3.254a1.9 1.9 0 0 0 1.19-.41q.252-.192.451-.451.205-.267.321-.588v-.41q0-.664-.157-1.183a2.9 2.9 0 0 0-.41-.882 1.9 1.9 0 0 0-.615-.547 1.5 1.5 0 0 0-.732-.191q-.444 0-.786.178-.342.177-.574.485-.24.315-.362.745a3.3 3.3 0 0 0-.123.916q0 .438.109.861.109.417.335.746.219.327.554.533.341.198.799.198"/>
      </g>
      <g filter="url(#create-workday-cyclic-example10i)">
        <path fill="#fff" d="M867 35a4 4 0 0 1 4-4h20a4 4 0 0 1 4 4v20a4 4 0 0 1-4 4h-20a4 4 0 0 1-4-4z"/>
        <path stroke="#F8FAFC" d="M867.5 35a3.5 3.5 0 0 1 3.5-3.5h20a3.5 3.5 0 0 1 3.5 3.5v20a3.5 3.5 0 0 1-3.5 3.5h-20a3.5 3.5 0 0 1-3.5-3.5z"/>
        <path fill="#475569" fill-rule="evenodd" d="M879.542 39.074a1.365 1.365 0 1 1 2.73 0 1.365 1.365 0 0 1-2.73 0m0 5.926a1.365 1.365 0 1 1 2.73 0 1.365 1.365 0 0 1-2.73 0m0 5.926a1.366 1.366 0 1 1 2.731 0 1.366 1.366 0 0 1-2.731 0" clip-rule="evenodd"/>
      </g>
    </g>
    <path fill="#CBD5E1" d="M1 69h904v1H1z"/>
    <g clip-path="url(#create-workday-cyclic-example11j)">
      <path fill="#fff" d="M1 70h407v48H1z"/>
      <g clip-path="url(#create-workday-cyclic-example12k)">
        <path fill="#475569" d="M27.375 99h-3.142V88.818h3.281q1.482 0 2.536.612a4 4 0 0 1 1.616 1.745q.561 1.133.561 2.714 0 1.59-.566 2.74a4.04 4.04 0 0 1-1.651 1.76q-1.084.61-2.635.611m-1.91-1.094h1.83q1.263 0 2.093-.487a3 3 0 0 0 1.238-1.387q.408-.9.408-2.143 0-1.233-.403-2.123a2.97 2.97 0 0 0-1.203-1.372q-.8-.482-1.993-.482h-1.97zm11.873 1.253q-1.103 0-1.904-.487a3.27 3.27 0 0 1-1.228-1.372q-.428-.885-.428-2.058 0-1.174.428-2.069.433-.9 1.203-1.402.775-.507 1.81-.507.596 0 1.178.2.581.198 1.059.645.478.443.76 1.174.285.73.284 1.8v.496h-5.886v-1.014h4.693q0-.645-.259-1.153a1.95 1.95 0 0 0-.726-.8q-.467-.294-1.103-.294-.702 0-1.213.348a2.3 2.3 0 0 0-.78.895 2.6 2.6 0 0 0-.274 1.183v.677q0 .864.298 1.466.303.597.84.91.537.308 1.248.308.463 0 .835-.13.379-.133.652-.397.273-.268.422-.666l1.134.318q-.18.578-.602 1.014-.423.433-1.044.677-.621.237-1.397.238m10.356-6.085-1.054.298a2 2 0 0 0-.293-.512 1.4 1.4 0 0 0-.517-.418q-.33-.164-.84-.164-.701 0-1.169.324-.462.318-.462.81 0 .438.318.691t.994.423l1.134.278q1.023.25 1.526.76.502.509.502 1.308 0 .657-.378 1.174-.372.516-1.044.815-.671.298-1.56.298-1.17 0-1.935-.507t-.97-1.481l1.114-.279q.16.617.602.925.448.308 1.168.308.82 0 1.303-.348.487-.353.487-.845a.89.89 0 0 0-.278-.666q-.279-.275-.855-.408l-1.273-.298q-1.05-.25-1.541-.77-.488-.528-.488-1.318 0-.646.363-1.144a2.47 2.47 0 0 1 1-.78 3.5 3.5 0 0 1 1.441-.284q1.135 0 1.78.497.651.498.925 1.313m5.008 6.085q-1.074 0-1.85-.507a3.3 3.3 0 0 1-1.193-1.397q-.418-.89-.418-2.033 0-1.163.428-2.054a3.4 3.4 0 0 1 1.203-1.397q.775-.507 1.81-.507.805 0 1.451.299.646.298 1.06.835.412.537.511 1.253h-1.173q-.135-.522-.596-.925-.458-.408-1.233-.408-.687 0-1.204.358-.512.354-.8 1-.283.641-.283 1.506 0 .884.278 1.541.283.656.796 1.02.516.362 1.213.362.457 0 .83-.159t.631-.457q.259-.3.368-.716h1.173q-.099.675-.492 1.218a2.75 2.75 0 0 1-1.029.855q-.636.313-1.481.313m6.965.02q-.726 0-1.318-.273a2.26 2.26 0 0 1-.94-.8q-.347-.528-.347-1.274 0-.656.258-1.063.258-.414.691-.647t.955-.348q.526-.12 1.059-.189.696-.09 1.128-.134.438-.05.637-.164.203-.114.203-.398v-.04q0-.735-.402-1.143-.398-.408-1.208-.408-.84 0-1.318.368-.477.368-.671.786l-1.114-.398q.299-.696.796-1.084a3 3 0 0 1 1.094-.547 4.5 4.5 0 0 1 1.173-.159q.368 0 .845.09.482.084.93.353.452.268.75.81.3.542.299 1.452V99h-1.174v-1.034h-.06q-.118.249-.397.532-.28.284-.74.482-.463.2-1.13.199m.179-1.054q.696 0 1.173-.273a1.86 1.86 0 0 0 .974-1.616v-1.074q-.075.09-.328.164a6 6 0 0 1-.576.124 26 26 0 0 1-1.124.15q-.458.06-.855.193a1.5 1.5 0 0 0-.636.393q-.24.258-.24.706 0 .612.453.925.457.308 1.159.308m6.636-3.719V99h-1.174v-7.636h1.134v1.193h.1q.268-.582.814-.935.547-.358 1.413-.358.775 0 1.357.318.582.314.904.955.324.636.324 1.61V99H70.18v-4.773q0-.9-.467-1.402-.467-.507-1.283-.507-.561 0-1.004.244-.437.244-.69.71-.255.468-.255 1.134m12.425-1.332-1.054.298a2 2 0 0 0-.293-.512 1.4 1.4 0 0 0-.518-.418q-.327-.164-.84-.164-.7 0-1.168.324-.462.318-.462.81 0 .438.318.691t.994.423l1.134.278q1.023.25 1.526.76.502.509.502 1.308 0 .657-.378 1.174-.372.516-1.044.815-.671.298-1.561.298-1.169 0-1.934-.507-.766-.507-.97-1.481l1.114-.279q.16.617.602.925.448.308 1.168.308.82 0 1.303-.348.487-.353.487-.845a.89.89 0 0 0-.278-.666q-.279-.275-.856-.408l-1.272-.298q-1.05-.25-1.542-.77-.487-.528-.487-1.318 0-.646.363-1.144a2.47 2.47 0 0 1 1-.78 3.5 3.5 0 0 1 1.441-.284q1.135 0 1.78.497.651.498.925 1.313m4.152 6.105q-.726 0-1.317-.273a2.26 2.26 0 0 1-.94-.8q-.348-.528-.348-1.274 0-.656.259-1.063.258-.414.69-.647.434-.234.955-.348.528-.12 1.06-.189.695-.09 1.128-.134.437-.05.636-.164.204-.114.204-.398v-.04q0-.735-.403-1.143-.398-.408-1.208-.408-.84 0-1.317.368t-.671.786l-1.114-.398q.298-.696.795-1.084.503-.393 1.094-.547a4.5 4.5 0 0 1 1.173-.159q.368 0 .846.09.481.084.93.353t.75.81q.298.542.298 1.452V99h-1.173v-1.034h-.06q-.12.249-.397.532-.279.284-.741.482-.463.2-1.129.199m.18-1.054q.694 0 1.173-.273a1.86 1.86 0 0 0 .974-1.616v-1.074q-.076.09-.328.164a6 6 0 0 1-.577.124 26 26 0 0 1-1.123.15q-.457.06-.856.193a1.5 1.5 0 0 0-.636.393q-.239.258-.239.706 0 .612.453.925.457.308 1.158.308m12.959-9.307V99h-1.233v-8.89h-.06l-2.485 1.651V90.51l2.545-1.69zm9.769 10.341q-.954 0-1.685-.482-.731-.487-1.144-1.372-.412-.891-.412-2.103 0-1.203.412-2.088.413-.885 1.149-1.368.735-.482 1.7-.482.746 0 1.178.249.438.243.666.557.234.308.363.507h.1v-3.759h1.173V99h-1.133v-1.173h-.14q-.129.209-.367.527-.24.314-.682.561-.442.244-1.178.244m.159-1.054q.707 0 1.193-.368.487-.372.741-1.029.254-.661.254-1.526 0-.856-.249-1.497-.249-.645-.736-1.004-.486-.363-1.203-.363-.745 0-1.243.383a2.3 2.3 0 0 0-.74 1.03q-.244.646-.244 1.45 0 .816.249 1.482.253.662.745 1.054.498.388 1.233.388m5.653.895v-7.636h1.173V99zm.597-8.91a.84.84 0 0 1-.592-.233.75.75 0 0 1-.244-.561q0-.33.244-.562a.84.84 0 0 1 .592-.234q.343 0 .586.234a.74.74 0 0 1 .249.562.74.74 0 0 1-.249.561.82.82 0 0 1-.586.234m4.972 9.089a3.1 3.1 0 0 1-1.317-.273 2.26 2.26 0 0 1-.94-.8q-.348-.528-.348-1.274 0-.656.259-1.063.258-.414.691-.647t.954-.348q.528-.12 1.059-.189.696-.09 1.129-.134.438-.05.636-.164.204-.114.204-.398v-.04q0-.735-.403-1.143-.397-.408-1.208-.408-.84 0-1.317.368t-.671.786l-1.114-.398q.299-.696.795-1.084.503-.393 1.094-.547.597-.159 1.174-.159.367 0 .845.09.482.084.929.353.453.268.751.81t.298 1.452V99h-1.173v-1.034h-.06a2 2 0 0 1-.397.532q-.279.284-.741.482-.463.2-1.129.199m.179-1.054q.696 0 1.174-.273a1.86 1.86 0 0 0 .974-1.616v-1.074q-.075.09-.328.164a6 6 0 0 1-.577.124 26 26 0 0 1-1.123.15q-.457.06-.855.193a1.5 1.5 0 0 0-.637.393q-.238.258-.238.706 0 .612.452.925.458.308 1.158.308"/>
        <path fill="#94A3B8" fill-rule="evenodd" d="M348.442 97.775a.625.625 0 0 1-.884 0l-5.834-5.833a.625.625 0 0 1 .884-.884L348 96.449l5.391-5.391a.625.625 0 0 1 .884.884z" clip-rule="evenodd"/>
      </g>
      <path stroke="#CBD5E1" d="M11.5 84a3.5 3.5 0 0 1 3.5-3.5h347a3.5 3.5 0 0 1 3.5 3.5v20a3.5 3.5 0 0 1-3.5 3.5H15a3.5 3.5 0 0 1-3.5-3.5z"/>
      <g filter="url(#create-workday-cyclic-example13l)">
        <path fill="#fff" d="M370 84a4 4 0 0 1 4-4h20a4 4 0 0 1 4 4v20a4 4 0 0 1-4 4h-20a4 4 0 0 1-4-4z"/>
        <path stroke="#F8FAFC" d="M370.5 84a3.5 3.5 0 0 1 3.5-3.5h20a3.5 3.5 0 0 1 3.5 3.5v20a3.5 3.5 0 0 1-3.5 3.5h-20a3.5 3.5 0 0 1-3.5-3.5z"/>
        <path fill="#475569" fill-rule="evenodd" d="M382.542 88.074a1.365 1.365 0 1 1 2.73 0 1.365 1.365 0 0 1-2.73 0m0 5.926a1.365 1.365 0 1 1 2.73 0 1.365 1.365 0 0 1-2.73 0m0 5.926a1.366 1.366 0 1 1 2.731 0 1.366 1.366 0 0 1-2.731 0" clip-rule="evenodd"/>
      </g>
      <path fill="#CBD5E1" d="M408 70h1v48h-1z"/>
      <path fill="#F8FAFC" d="M409 70h160v48H409z"/>
      <path fill="#CBD5E1" d="M569 70h1v48h-1zM774 70h1v48h-1z"/>
      <path fill="#F8FAFC" d="M775 70h130v48H775z"/>
      <g filter="url(#create-workday-cyclic-example14m)">
        <path fill="#F8FAFC" d="M785 84a4 4 0 0 1 4-4h70a4 4 0 0 1 4 4v20a4 4 0 0 1-4 4h-70a4 4 0 0 1-4-4z"/>
        <path stroke="#CBD5E1" d="M785.5 84a3.5 3.5 0 0 1 3.5-3.5h70a3.5 3.5 0 0 1 3.5 3.5v20a3.5 3.5 0 0 1-3.5 3.5h-70a3.5 3.5 0 0 1-3.5-3.5z"/>
        <path fill="#94A3B8" d="M809.794 99h-6.522v-.91l3.261-3.622q.438-.485.732-.862.294-.376.471-.697.178-.315.253-.595.075-.287.075-.587 0-.37-.123-.69a1.6 1.6 0 0 0-.341-.568 1.7 1.7 0 0 0-.561-.376 1.8 1.8 0 0 0-.731-.144q-.499 0-.869.144a1.6 1.6 0 0 0-.97 1.046q-.116.375-.116.84h-1.272q0-.629.219-1.182.219-.561.636-.978a3 3 0 0 1 1.004-.663 3.6 3.6 0 0 1 1.368-.246q.704 0 1.264.212.568.205.957.574.39.37.595.875a2.83 2.83 0 0 1 .062 1.983 4.7 4.7 0 0 1-.404.854 7.5 7.5 0 0 1-.601.841q-.336.41-.711.82l-2.673 2.899h4.997zm3.78-5.585h.903q.479 0 .84-.13.37-.13.622-.355.247-.225.376-.54.13-.315.13-.69 0-.446-.116-.773a1.4 1.4 0 0 0-.342-.554 1.35 1.35 0 0 0-.547-.314 2.3 2.3 0 0 0-.738-.11q-.403 0-.738.123a1.553 1.553 0 0 0-.93.882 1.8 1.8 0 0 0-.13.704h-1.271a2.62 2.62 0 0 1 .847-1.948 3 3 0 0 1 .964-.581 3.5 3.5 0 0 1 1.258-.219q.67 0 1.224.185.554.177.95.533.396.355.615.882.219.525.219 1.217 0 .287-.089.594-.088.308-.273.595-.185.293-.479.554-.287.253-.69.424.485.156.806.41.329.253.527.567.19.314.266.663.082.35.082.69 0 .698-.239 1.238t-.663.91q-.425.375-1.005.573a3.9 3.9 0 0 1-1.244.192q-.657 0-1.237-.185a2.9 2.9 0 0 1-.998-.54 2.6 2.6 0 0 1-.677-.868 2.7 2.7 0 0 1-.246-1.169h1.264q0 .39.13.71.137.322.383.548.246.225.595.348.356.124.786.124t.779-.11q.35-.116.595-.349.246-.231.376-.574.137-.349.137-.82 0-.465-.158-.8a1.5 1.5 0 0 0-.423-.567 1.9 1.9 0 0 0-.677-.335 3.2 3.2 0 0 0-.861-.11h-.903zm9.475 4.765q0-.405.246-.69.246-.288.745-.288.492 0 .745.287.26.28.26.69a.95.95 0 0 1-.26.677q-.26.274-.745.274-.492 0-.745-.274a1 1 0 0 1-.246-.676m0-5.989q0-.403.246-.69t.745-.287q.492 0 .745.287.26.28.26.69a.95.95 0 0 1-.26.677q-.26.274-.745.274-.492 0-.745-.274a1 1 0 0 1-.246-.677m6.316 1.819.499-4.963h5.107v1.23h-4.04l-.281 2.653q.294-.172.704-.301a3.2 3.2 0 0 1 .951-.13q.69 0 1.237.24.547.238.93.67.383.436.588 1.052.205.615.205 1.367 0 .711-.192 1.32a2.9 2.9 0 0 1-.574 1.045q-.39.445-.978.698-.587.246-1.38.246-.609 0-1.149-.171a2.9 2.9 0 0 1-.957-.513 2.7 2.7 0 0 1-.697-.861 3.4 3.4 0 0 1-.335-1.21h1.203q.117.847.622 1.285.512.438 1.313.438.45 0 .799-.158.35-.164.588-.465.232-.293.349-.71a3.3 3.3 0 0 0 .123-.93q0-.465-.137-.868a2 2 0 0 0-.383-.705 1.8 1.8 0 0 0-.622-.464 2 2 0 0 0-.847-.171q-.315 0-.547.048a1.8 1.8 0 0 0-.41.123 2 2 0 0 0-.349.198 5 5 0 0 0-.328.266zm9.318 3.869q.957 0 1.592-.226.643-.232 1.033-.65.471-.511.635-1.1a5.6 5.6 0 0 0 .199-1.217v-.013q-.165.205-.376.39a2.6 2.6 0 0 1-.479.314 2.8 2.8 0 0 1-.595.219 3 3 0 0 1-.704.075q-.738 0-1.278-.287a2.7 2.7 0 0 1-.882-.766 3.2 3.2 0 0 1-.513-1.066 4.5 4.5 0 0 1-.164-1.197q0-.703.192-1.326.198-.629.588-1.1a2.75 2.75 0 0 1 .957-.739q.58-.28 1.346-.28t1.327.287q.567.28.95.745.451.547.677 1.368.225.813.225 1.626v.458q0 1.155-.246 2.325a4.4 4.4 0 0 1-1.053 2.064q-.485.547-1.346.889-.855.335-2.085.335h-.13v-1.128zm1.51-3.254a1.9 1.9 0 0 0 1.19-.41q.252-.192.451-.451.205-.267.321-.588v-.41q0-.663-.157-1.183a2.9 2.9 0 0 0-.41-.882 1.9 1.9 0 0 0-.615-.547 1.5 1.5 0 0 0-.732-.191q-.444 0-.786.178-.342.177-.574.485-.24.315-.362.745a3.3 3.3 0 0 0-.123.916q0 .438.109.861.109.417.335.746.219.327.554.533.341.198.799.198"/>
      </g>
      <g filter="url(#create-workday-cyclic-example15n)">
        <path fill="#fff" d="M867 84a4 4 0 0 1 4-4h20a4 4 0 0 1 4 4v20a4 4 0 0 1-4 4h-20a4 4 0 0 1-4-4z"/>
        <path stroke="#F8FAFC" d="M867.5 84a3.5 3.5 0 0 1 3.5-3.5h20a3.5 3.5 0 0 1 3.5 3.5v20a3.5 3.5 0 0 1-3.5 3.5h-20a3.5 3.5 0 0 1-3.5-3.5z"/>
        <path fill="#475569" fill-rule="evenodd" d="M879.542 88.074a1.365 1.365 0 1 1 2.73 0 1.365 1.365 0 0 1-2.73 0m0 5.926a1.365 1.365 0 1 1 2.73 0 1.365 1.365 0 0 1-2.73 0m0 5.926a1.366 1.366 0 1 1 2.731 0 1.366 1.366 0 0 1-2.731 0" clip-rule="evenodd"/>
      </g>
    </g>
  </g>
  <path fill="#CBD5E1" d="M0 5a5 5 0 0 1 5-5h896a5 5 0 0 1 5 5h-2a3 3 0 0 0-3-3H5a3 3 0 0 0-3 3zm906 110a5 5 0 0 1-5 5H5a5 5 0 0 1-5-5l2-1c0 1.105 1.343 2 3 2h896c1.657 0 3-.895 3-2zM5 120a5 5 0 0 1-5-5V5a5 5 0 0 1 5-5v2a3 3 0 0 0-3 3v109c0 1.105 1.343 2 3 2zM901 0a5 5 0 0 1 5 5v110a5 5 0 0 1-5 5v-4c1.657 0 3-.895 3-2V5a3 3 0 0 0-3-3z" mask="url(#create-workday-cyclic-example2o)"/>
  <defs>
    <clipPath id="create-workday-cyclic-examplea">
      <path fill="#fff" d="M1 5a4 4 0 0 1 4-4h896a4 4 0 0 1 4 4v109a4 4 0 0 1-4 4H5a4 4 0 0 1-4-4z"/>
    </clipPath>
    <clipPath id="create-workday-cyclic-example3b">
      <path fill="#fff" d="M1 1h904v68H1z"/>
    </clipPath>
    <clipPath id="create-workday-cyclic-example4c">
      <path fill="#fff" d="M11 35a4 4 0 0 1 4-4h347a4 4 0 0 1 4 4v20a4 4 0 0 1-4 4H15a4 4 0 0 1-4-4z"/>
    </clipPath>
    <clipPath id="create-workday-cyclic-example6e">
      <path fill="#fff" d="M419 35a4 4 0 0 1 4-4h60a4 4 0 0 1 4 4v20a4 4 0 0 1-4 4h-60a4 4 0 0 1-4-4z"/>
    </clipPath>
    <clipPath id="create-workday-cyclic-example7f">
      <path fill="#fff" d="M491 35a4 4 0 0 1 4-4h60a4 4 0 0 1 4 4v20a4 4 0 0 1-4 4h-60a4 4 0 0 1-4-4z"/>
    </clipPath>
    <clipPath id="create-workday-cyclic-example11j">
      <path fill="#fff" d="M1 70h904v48H1z"/>
    </clipPath>
    <clipPath id="create-workday-cyclic-example12k">
      <path fill="#fff" d="M11 84a4 4 0 0 1 4-4h347a4 4 0 0 1 4 4v20a4 4 0 0 1-4 4H15a4 4 0 0 1-4-4z"/>
    </clipPath>
    <filter id="create-workday-cyclic-example5d" width="28" height="30" x="370" y="31" color-interpolation-filters="sRGB" filterUnits="userSpaceOnUse">
      <feFlood flood-opacity="0" result="BackgroundImageFix"/>
      <feBlend in="SourceGraphic" in2="BackgroundImageFix" result="shape"/>
      <feColorMatrix in="SourceAlpha" result="hardAlpha" values="0 0 0 0 0 0 0 0 0 0 0 0 0 0 0 0 0 0 127 0"/>
      <feOffset dy="2"/>
      <feGaussianBlur stdDeviation="2"/>
      <feComposite in2="hardAlpha" k2="-1" k3="1" operator="arithmetic"/>
      <feColorMatrix values="0 0 0 0 0 0 0 0 0 0 0 0 0 0 0 0 0 0 0.05 0"/>
      <feBlend in2="shape" result="effect1_innerShadow_2_12334"/>
    </filter>
    <filter id="create-workday-cyclic-example8g" width="28" height="30" x="736" y="31" color-interpolation-filters="sRGB" filterUnits="userSpaceOnUse">
      <feFlood flood-opacity="0" result="BackgroundImageFix"/>
      <feBlend in="SourceGraphic" in2="BackgroundImageFix" result="shape"/>
      <feColorMatrix in="SourceAlpha" result="hardAlpha" values="0 0 0 0 0 0 0 0 0 0 0 0 0 0 0 0 0 0 127 0"/>
      <feOffset dy="2"/>
      <feGaussianBlur stdDeviation="2"/>
      <feComposite in2="hardAlpha" k2="-1" k3="1" operator="arithmetic"/>
      <feColorMatrix values="0 0 0 0 0 0 0 0 0 0 0 0 0 0 0 0 0 0 0.05 0"/>
      <feBlend in2="shape" result="effect1_innerShadow_2_12334"/>
    </filter>
    <filter id="create-workday-cyclic-example9h" width="78" height="30" x="785" y="31" color-interpolation-filters="sRGB" filterUnits="userSpaceOnUse">
      <feFlood flood-opacity="0" result="BackgroundImageFix"/>
      <feBlend in="SourceGraphic" in2="BackgroundImageFix" result="shape"/>
      <feColorMatrix in="SourceAlpha" result="hardAlpha" values="0 0 0 0 0 0 0 0 0 0 0 0 0 0 0 0 0 0 127 0"/>
      <feOffset dy="2"/>
      <feGaussianBlur stdDeviation="2"/>
      <feComposite in2="hardAlpha" k2="-1" k3="1" operator="arithmetic"/>
      <feColorMatrix values="0 0 0 0 0 0 0 0 0 0 0 0 0 0 0 0 0 0 0.05 0"/>
      <feBlend in2="shape" result="effect1_innerShadow_2_12334"/>
    </filter>
    <filter id="create-workday-cyclic-example10i" width="28" height="30" x="867" y="31" color-interpolation-filters="sRGB" filterUnits="userSpaceOnUse">
      <feFlood flood-opacity="0" result="BackgroundImageFix"/>
      <feBlend in="SourceGraphic" in2="BackgroundImageFix" result="shape"/>
      <feColorMatrix in="SourceAlpha" result="hardAlpha" values="0 0 0 0 0 0 0 0 0 0 0 0 0 0 0 0 0 0 127 0"/>
      <feOffset dy="2"/>
      <feGaussianBlur stdDeviation="2"/>
      <feComposite in2="hardAlpha" k2="-1" k3="1" operator="arithmetic"/>
      <feColorMatrix values="0 0 0 0 0 0 0 0 0 0 0 0 0 0 0 0 0 0 0.05 0"/>
      <feBlend in2="shape" result="effect1_innerShadow_2_12334"/>
    </filter>
    <filter id="create-workday-cyclic-example13l" width="28" height="30" x="370" y="80" color-interpolation-filters="sRGB" filterUnits="userSpaceOnUse">
      <feFlood flood-opacity="0" result="BackgroundImageFix"/>
      <feBlend in="SourceGraphic" in2="BackgroundImageFix" result="shape"/>
      <feColorMatrix in="SourceAlpha" result="hardAlpha" values="0 0 0 0 0 0 0 0 0 0 0 0 0 0 0 0 0 0 127 0"/>
      <feOffset dy="2"/>
      <feGaussianBlur stdDeviation="2"/>
      <feComposite in2="hardAlpha" k2="-1" k3="1" operator="arithmetic"/>
      <feColorMatrix values="0 0 0 0 0 0 0 0 0 0 0 0 0 0 0 0 0 0 0.05 0"/>
      <feBlend in2="shape" result="effect1_innerShadow_2_12334"/>
    </filter>
    <filter id="create-workday-cyclic-example14m" width="78" height="30" x="785" y="80" color-interpolation-filters="sRGB" filterUnits="userSpaceOnUse">
      <feFlood flood-opacity="0" result="BackgroundImageFix"/>
      <feBlend in="SourceGraphic" in2="BackgroundImageFix" result="shape"/>
      <feColorMatrix in="SourceAlpha" result="hardAlpha" values="0 0 0 0 0 0 0 0 0 0 0 0 0 0 0 0 0 0 127 0"/>
      <feOffset dy="2"/>
      <feGaussianBlur stdDeviation="2"/>
      <feComposite in2="hardAlpha" k2="-1" k3="1" operator="arithmetic"/>
      <feColorMatrix values="0 0 0 0 0 0 0 0 0 0 0 0 0 0 0 0 0 0 0.05 0"/>
      <feBlend in2="shape" result="effect1_innerShadow_2_12334"/>
    </filter>
    <filter id="create-workday-cyclic-example15n" width="28" height="30" x="867" y="80" color-interpolation-filters="sRGB" filterUnits="userSpaceOnUse">
      <feFlood flood-opacity="0" result="BackgroundImageFix"/>
      <feBlend in="SourceGraphic" in2="BackgroundImageFix" result="shape"/>
      <feColorMatrix in="SourceAlpha" result="hardAlpha" values="0 0 0 0 0 0 0 0 0 0 0 0 0 0 0 0 0 0 127 0"/>
      <feOffset dy="2"/>
      <feGaussianBlur stdDeviation="2"/>
      <feComposite in2="hardAlpha" k2="-1" k3="1" operator="arithmetic"/>
      <feColorMatrix values="0 0 0 0 0 0 0 0 0 0 0 0 0 0 0 0 0 0 0.05 0"/>
      <feBlend in2="shape" result="effect1_innerShadow_2_12334"/>
    </filter>
  </defs>
</svg>
