<svg xmlns="http://www.w3.org/2000/svg" fill="none" viewBox="0 0 32 32">
  <g clip-path="url(#a)">
    <path fill="#DCEBFD" d="M0 0h32v32H0z"/>
    <g clip-path="url(#b)">
      <path fill="#FDA894" d="m13.627 18.754.56 11.975 6.278-.293-.454-9.726-1.613-.495z"/>
      <path fill="#BF3131" d="M13.97 21.089s.57 1.5 2.256 2.485c1.037.604 2.758.372 3.924.104l-.139-2.967-1.613-.496c-2.07.38-4.427.874-4.427.874"/>
      <path fill="#FDA894" d="M17.46 7.148c1.19.196 2.179.995 3.051 1.808.947.88 1.437 1.966 1.65 3.267.165 1.024.146 2.07.075 3.104-.089 1.36-.412 2.355-.871 3.633-.46 1.277-1.361 2.296-2.446 3.067-2.121 1.501-4.714.413-6.08-1.56-1.728-2.494-2.139-5.08-1.94-8.129.065-.99.216-2.014.752-2.835.692-1.058 1.906-1.602 3.086-1.987.871-.284 1.788-.514 2.694-.371z"/>
      <path fill="#182653" d="M10.308 9.286s-.277 1.512-.151 2.593c.125 1.081.341 1.859.698 1.984.204.072.418-1.28.566-2.46a2.87 2.87 0 0 1 1.907-2.357c.84-.29 1.842-.583 2.668-.664.843-.084 1.965.107 2.911.33a2.88 2.88 0 0 1 2.168 2.284c.208 1.118.515 2.363.858 2.39.622.05.612.308.612.308l-.256-3.829s-3.96-3.646-5.229-3.52-6.752 2.941-6.752 2.941"/>
      <path fill="#000" d="M18.33 14.621c-.019.473.192.864.47.874s.517-.363.535-.835-.193-.863-.47-.873c-.278-.01-.518.362-.536.834M13.986 14.625c.03.471.28.838.557.82.276-.018.477-.415.446-.886-.031-.47-.28-.838-.558-.82s-.476.415-.445.886"/>
      <path fill="#BF3131" d="M16.49 14.987c.075-.175.367-.086.287.092q-.197.435-.354.888c-.06.18-.16.41-.11.6s.237.322.378.428c.151.117-.007.372-.162.255-.264-.2-.529-.427-.529-.787-.005-.49.296-1.04.49-1.476"/>
      <path fill="#000" d="M18.488 11.887c-.421.04-.877.264-.797.76.053.328.378.283.63.246.5-.075 1.003.081 1.492.005a.5.5 0 0 0 .234-.087c.213-.166.034-.366-.137-.474a3 3 0 0 0-.852-.402 1.6 1.6 0 0 0-.57-.048M14.291 11.97c-.5.024-.955.315-1.307.654a.36.36 0 0 0-.135.22.24.24 0 0 0 .126.21q.117.06.249.058c.449.012.907-.161 1.36-.19.212-.012.6.063.704-.195.177-.435-.324-.67-.726-.739a1.3 1.3 0 0 0-.271-.019"/>
      <path fill="#FDA894" d="M21.322 13.85s.594-1.243 1.675-.82c1.518.591.67 3.773-.963 4.206s-.712-3.386-.712-3.386"/>
      <path fill="#BF3131" d="M15.245 17.945a1.648 1.648 0 0 0 2.654-.005c.116-.151.378 0 .26.151-.832 1.087-2.337 1.09-3.175.005-.118-.153.144-.303.261-.151M22.26 14.438a1.78 1.78 0 0 1-.043 1.798c-.101.166-.363.014-.261-.151a1.47 1.47 0 0 0 .043-1.496c-.092-.17.17-.323.261-.151"/>
      <path fill="#FDA894" d="M11.944 14.295s-.736-1.167-1.76-.622c-1.435.765-.226 3.826 1.446 4.067 1.673.242.314-3.445.314-3.445"/>
      <path fill="#BF3131" d="M11.08 14.986a1.78 1.78 0 0 0 .253 1.782c.12.151.362-.028.24-.181a1.47 1.47 0 0 1-.216-1.48c.073-.18-.204-.301-.277-.12"/>
      <path fill="#182653" d="M22.29 9.865s-5.718-2.264-5.897-2.24c-.141.022-3.83 1.038-5.392 1.47-.423.115-.691.19-.691.19a11.7 11.7 0 0 1-1.353-2.507 6.889 6.889 0 0 1-.23-.71c-.515-1.94.086-3.738 2.28-4.032 1.26-.168 2.242.369 2.664.662q.118.077.227.169.032-.094.075-.184c.22-.454.932-1.54 2.595-1.29 1.231.188 1.832 1.148 2.092 1.745q.102.238.166.49.028-.256.132-.49v-.006c.142-.302.408-.63.927-.685 1.165-.12 1.868.821 2.041 2.173.282 2.152.364 5.245.364 5.245"/>
      <path fill="#182653" d="M11.007 8.908q.001.091-.006.187c-.082 1.162-.857 2.635-.857 2.635s-2.653-.908-3.036-2.822c-.205-1.016.625-1.898 1.563-2.095q.141-.03.286-.035a.6.6 0 0 1 .1-.006h.015c1.072.006 1.935.962 1.935 2.136"/>
      <path fill="#000" d="M10.162 8.22q-.497-.481-1.002-.954-.24-.226-.49-.453.143-.03.287-.036a3 3 0 0 1-.06-.17l.175.164q.662.607 1.304 1.234c.139.134-.075.35-.214.215M14.437 4.812c.037.19-.259.245-.302.055a71 71 0 0 0-.468-2.167q.119.078.227.169.032-.094.075-.184c.173.704.324 1.413.468 2.127M18.995 5.04c0 .193-.303.19-.303-.007q0-.949-.024-1.895.104.238.166.49.029-.256.133-.49.027.951.027 1.901"/>
      <path fill="#2B68E8" d="M25.295 76.18c-4.303.03-9.315.056-13.453.054V73.99h-6.07l-.007 2.124v.353c-.03 11.438-.037 26.312-.037 28.911a.603.603 0 0 1-.604.604h-11.35a.607.607 0 0 1-.604-.616c.02-.814.056-2.508.107-4.806.26-11.868.874-39.86 1.187-46.181.402-8.148 1.25-19.833 2.565-21.375 1.766-2.077 5.912-4.02 8.837-5.209l.392-.16a56 56 0 0 1 2.76-1.022l4.17-1.848.296-.13.414-.184s1.26 1.134 2.033 1.572c.076.042.14.076.2.102q.073.036.15.058a.4.4 0 0 0 .137.012h.006q.173-.046.335-.118c1.005-.431 3.416-1.876 3.416-1.876l.432.129q.093.026.205.061l.084.026c1.056.316 3.075.92 4.762 1.428q.392.076.783.165l.329.074q.18.04.36.084l.057.012q.132.03.266.063c4.385 1.038 8.954 2.56 12.593 5.22 1.783 1.304 3.084 2.789 4.038 4.422q.08.136.157.277c1.771 3.188 2.268 6.914 2.45 10.919.136 3.075.175 6.512.163 10.046v.839c-.019 3.736-.09 7.557-.158 11.16-.04 2.117-.078 4.158-.104 6.062-.07 5.23-.134 12.002-.196 18.452-.04 4.229-.08 8.319-.118 11.747a.603.603 0 0 1-.6.598H26.23a.606.606 0 0 1-.605-.595c-.008-.648-.023-2.203-.043-4.304-.045-4.738-.117-12.253-.2-18.42v-.302z"/>
      <path fill="#000" d="M15.928 26.025q.167.103.353.16l-2.71 1.39a.147.147 0 0 1-.197-.05.15.15 0 0 1-.023-.07l-.166-2.685.296-.13.157 2.57zM20.895 24.417l-1.774 3.696a.16.16 0 0 1-.103.082h-.033a.14.14 0 0 1-.094-.033l-2.474-1.971q.177-.041.34-.118l2.174 1.739 1.675-3.483q.126.037.29.087"/>
      <path fill="#fff" d="M17.283 27.971c0 .302-.186.553-.415.553s-.415-.247-.415-.553.186-.553.415-.553c.23 0 .415.248.415.553"/>
      <path fill="#000" d="m15.194 59.452.01.96H14.9l-.009-.957c-.112-11.744-.094-22.385 1.235-33.328a1 1 0 0 0 .15.058.4.4 0 0 0 .137.012h.006c-1.319 10.91-1.337 21.532-1.226 33.255"/>
    </g>
  </g>
  <defs>
    <clipPath id="a">
      <path fill="#fff" d="M0 0h32v32H0z"/>
    </clipPath>
    <clipPath id="b">
      <path fill="#fff" d="M-38.049 1.354h84.905v113.662h-84.905z"/>
    </clipPath>
  </defs>
</svg>
