<svg xmlns="http://www.w3.org/2000/svg" fill="none" viewBox="0 0 600 340">
  <path fill="#2144AC" d="M26.25 338 92 36l67 302z"/>
  <rect width="420" height="320" x="90" y="18" fill="#fff" rx="20"/>
  <rect width="360" height="260" x="120" y="48" fill="#F8FAFC" rx="10"/>
  <rect width="360" height="260" x="120" y="48" fill="url(#12a)" rx="10" style="mix-blend-mode:multiply"/>
  <path fill="url(#13b)" d="M120 58c0-5.523 4.477-10 10-10h340c5.523 0 10 4.477 10 10v51H120z"/>
  <path fill="#fff" d="M133.177 61.354a4.177 4.177 0 1 0 0-8.354 4.177 4.177 0 0 0 0 8.354M145.105 61.354a4.177 4.177 0 1 0 0-8.354 4.177 4.177 0 0 0 0 8.354M157.033 61.354a4.178 4.178 0 1 0 0-8.356 4.178 4.178 0 0 0 0 8.356"/>
  <path fill="url(#14c)" d="M409 49.5 510 170v-58z" opacity=".3"/>
  <path fill="#EDB26B" d="m411.217 11.68-4.837 5.63c-8.39 9.764-7.276 24.482 2.489 32.872l109.308 93.92c9.765 8.39 24.482 7.276 32.873-2.489l4.836-5.629c8.39-9.765 7.276-24.482-2.489-32.872L444.089 9.192c-9.765-8.39-24.482-7.276-32.872 2.489"/>
  <path fill="#DB9645" d="m462.077 51.774-5.061 5.89c-3.73 4.341-3.235 10.884 1.106 14.614l33.936 29.159c4.341 3.73 10.884 3.234 14.614-1.107l5.061-5.89c3.73-4.341 3.235-10.884-1.106-14.614l-33.936-29.159c-4.341-3.73-10.884-3.234-14.614 1.107"/>
  <path fill="#FCF0D7" d="m458.904 51.768-5.061 5.89c-3.73 4.341-3.235 10.885 1.106 14.615l33.936 29.158c4.341 3.73 10.884 3.234 14.614-1.107l5.061-5.89c3.73-4.341 3.235-10.884-1.106-14.614l-33.936-29.158c-4.341-3.73-10.884-3.235-14.614 1.106"/>
  <path fill="#DB9645" d="M508.44 116.813a2.387 2.387 0 0 0 2.383-2.383 2.383 2.383 0 1 0-2.383 2.383M515.847 123.573a2.399 2.399 0 0 0 1.574-4.018 2.4 2.4 0 0 0-1.574-.762 2.399 2.399 0 0 0-1.574 4.018c.41.443.972.715 1.574.762M523.799 131.798a2.383 2.383 0 1 0 0-4.765 2.383 2.383 0 0 0 0 4.765M516.378 108.831a2.383 2.383 0 1 0 0-4.765 2.383 2.383 0 0 0 0 4.765M523.799 115.621a2.383 2.383 0 1 0 0-4.765 2.383 2.383 0 0 0 0 4.765M531.751 123.831a2.383 2.383 0 1 0 0-4.765 2.383 2.383 0 0 0 0 4.765M524.33 100.923a2.399 2.399 0 0 0 1.574-4.019 2.4 2.4 0 0 0-1.574-.761 2.397 2.397 0 0 0 0 4.78M531.751 107.669a2.383 2.383 0 1 0 0-4.765 2.383 2.383 0 0 0 0 4.765M539.689 115.879a2.383 2.383 0 1 0 0-4.765 2.383 2.383 0 0 0 0 4.765M422.603 40.52a2.383 2.383 0 1 0 0-4.766 2.383 2.383 0 0 0 0 4.767M430.024 47.267a2.383 2.383 0 1 0 0-4.766 2.383 2.383 0 0 0 0 4.766M437.976 55.492a2.397 2.397 0 0 0 0-4.78 2.4 2.4 0 0 0-2.211 2.39 2.397 2.397 0 0 0 2.211 2.39M430.555 32.568a2.383 2.383 0 1 0 0-4.766 2.383 2.383 0 0 0 0 4.766M437.976 39.33a2.383 2.383 0 1 0 0-4.767 2.383 2.383 0 0 0 0 4.766M445.914 47.54a2.383 2.383 0 1 0 0-4.767 2.383 2.383 0 0 0 0 4.767M438.508 24.63a2.397 2.397 0 0 0 0-4.78 2.397 2.397 0 0 0 0 4.78M445.914 31.32a2.383 2.383 0 1 0 0-4.768 2.383 2.383 0 0 0 0 4.767M453.895 39.588a2.383 2.383 0 1 0 0-4.766 2.383 2.383 0 0 0 0 4.766"/>
  <path fill="#F4DBB8" d="M462.364 67.865a2.093 2.093 0 0 0 1.922-2.089 2.09 2.09 0 0 0-1.922-2.088 2.097 2.097 0 0 0 0 4.177M470.129 75.287a2.097 2.097 0 0 0 0-4.178 2.093 2.093 0 0 0-1.922 2.089 2.097 2.097 0 0 0 1.922 2.089M477.78 81.2a2.096 2.096 0 0 0 0-4.177 2.096 2.096 0 0 0 0 4.177M486.134 87.932a2.1 2.1 0 0 0 1.922-2.088 2.096 2.096 0 0 0-1.922-2.089 2.096 2.096 0 0 0 0 4.177M494.374 95.468a2.093 2.093 0 0 0 1.922-2.088 2.097 2.097 0 0 0-1.922-2.089 2.097 2.097 0 0 0 0 4.177M470.703 60.904a2.097 2.097 0 0 0 0-4.177 2.093 2.093 0 0 0-1.922 2.088 2.09 2.09 0 0 0 1.922 2.089M478.483 68.325a2.097 2.097 0 0 0 0-4.177 2.093 2.093 0 0 0-1.922 2.088 2.097 2.097 0 0 0 1.922 2.089M486.134 74.239a2.1 2.1 0 0 0 1.922-2.089 2.096 2.096 0 0 0-1.922-2.088 2.097 2.097 0 0 0 0 4.177M494.488 80.97a2.094 2.094 0 0 0 1.368-3.508 2.1 2.1 0 0 0-1.368-.669 2.096 2.096 0 0 0 0 4.177M502.699 88.506a2.093 2.093 0 0 0 1.922-2.088 2.09 2.09 0 0 0-1.922-2.089 2.097 2.097 0 0 0 0 4.177"/>
  <g clip-path="url(#15d)" opacity=".3">
    <path fill="url(#16e)" d="m72 332.954 13.5 5.546s15.877 1.5 20 1.5l62-116L62 321s15.268 10.412 8 16 2-4.046 2-4.046"/>
  </g>
  <path fill="#EDB26B" d="m132.736 200.853-76.24 85.661c-6.81 7.651-6.127 19.373 1.524 26.183l4.417 3.931c7.651 6.81 19.374 6.128 26.183-1.523l76.24-85.661c6.81-7.65 6.128-19.373-1.523-26.182l-4.418-3.932c-7.65-6.81-19.373-6.128-26.183 1.523"/>
  <path fill="#DB9645" d="m114.458 239.751-23.677 26.602a8.24 8.24 0 0 0 .677 11.632l4.632 4.123a8.24 8.24 0 0 0 11.633-.677l23.676-26.602a8.237 8.237 0 0 0-.677-11.632l-4.632-4.123a8.24 8.24 0 0 0-11.632.677"/>
  <path fill="#FCF0D7" d="m114.509 237.207-23.677 26.602a8.24 8.24 0 0 0 .677 11.632l4.632 4.123a8.24 8.24 0 0 0 11.632-.677l23.677-26.602a8.24 8.24 0 0 0-.677-11.632l-4.632-4.123a8.24 8.24 0 0 0-11.632.677"/>
  <path fill="#DB9645" d="M80.268 281.071a1.908 1.908 0 0 0 0-3.804 1.913 1.913 0 0 0-1.744 1.902 1.91 1.91 0 0 0 1.744 1.902M74.784 286.87a1.89 1.89 0 0 0 1.895-1.895 1.893 1.893 0 0 0-3.234-1.339 1.893 1.893 0 0 0 1.34 3.234M68.139 293.086a1.896 1.896 0 0 0 1.34-3.235 1.896 1.896 0 0 0-3.235 1.34 1.894 1.894 0 0 0 1.895 1.895M86.469 287.502a1.896 1.896 0 1 0-.001-3.792 1.896 1.896 0 0 0 .001 3.792M81 293.315a1.908 1.908 0 0 0 0-3.804 1.913 1.913 0 0 0-1.744 1.902A1.91 1.91 0 0 0 81 293.315M74.354 299.517a1.896 1.896 0 0 0 0-3.79 1.896 1.896 0 0 0 0 3.79M92.684 293.933a1.896 1.896 0 0 0 1.34-3.235 1.896 1.896 0 0 0-3.234 1.34 1.897 1.897 0 0 0 1.894 1.895M87.215 299.746a1.913 1.913 0 0 0 1.744-1.902 1.91 1.91 0 0 0-1.744-1.902 1.908 1.908 0 0 0 0 3.804M80.57 305.947a1.89 1.89 0 0 0 1.894-1.894 1.894 1.894 0 1 0-1.894 1.894M142.105 213.837a1.895 1.895 0 1 0 0-3.79 1.895 1.895 0 0 0 0 3.79M136.665 219.65a1.907 1.907 0 0 0 0-3.804 1.913 1.913 0 0 0-1.744 1.902 1.907 1.907 0 0 0 1.744 1.902M130.033 225.852a1.895 1.895 0 1 0 0-3.79 1.895 1.895 0 0 0 0 3.79M148.363 220.268a1.895 1.895 0 1 0 0-3.79 1.895 1.895 0 0 0 0 3.79M142.88 226.124a1.913 1.913 0 0 0 1.744-1.902 1.907 1.907 0 0 0-1.744-1.902 1.906 1.906 0 0 0-1.743 1.902 1.91 1.91 0 0 0 1.743 1.902M136.235 232.282a1.9 1.9 0 0 0 1.339-.555 1.89 1.89 0 0 0 0-2.679 1.89 1.89 0 0 0-2.679 0 1.89 1.89 0 0 0 0 2.679c.355.356.837.555 1.34.555M154.579 226.698a1.89 1.89 0 0 0 1.895-1.895 1.895 1.895 0 1 0-1.895 1.895M149.096 232.512a1.9 1.9 0 0 0 1.895-1.895 1.897 1.897 0 0 0-1.895-1.895 1.895 1.895 0 0 0 0 3.79M142.45 238.727a1.904 1.904 0 0 0 1.743-1.902c0-.477-.179-.938-.501-1.29a1.9 1.9 0 0 0-1.242-.612 1.913 1.913 0 0 0-1.744 1.902 1.907 1.907 0 0 0 1.744 1.902"/>
  <path fill="#F4DBB8" d="M119.612 244.784c.413-.038.797-.23 1.077-.536a1.67 1.67 0 0 0 0-2.243 1.67 1.67 0 0 0-1.077-.537 1.665 1.665 0 0 0 0 3.316M113.598 250.928c.442 0 .865-.175 1.178-.487a1.668 1.668 0 0 0-1.178-2.843 1.666 1.666 0 0 0 0 3.33M108.775 256.942a1.663 1.663 0 0 0 1.666-1.665 1.664 1.664 0 1 0-1.666 1.665M103.349 263.444a1.66 1.66 0 0 0 1.511-1.658 1.67 1.67 0 0 0-1.511-1.657 1.66 1.66 0 0 0-1.51 1.657 1.661 1.661 0 0 0 1.51 1.658M97.206 269.933a1.666 1.666 0 0 0 0-3.316 1.665 1.665 0 0 0 0 3.316M125.024 251.589a1.664 1.664 0 1 0 0-3.329 1.664 1.664 0 0 0 0 3.329M119.01 257.703a1.666 1.666 0 1 0-.002-3.332 1.666 1.666 0 0 0 .002 3.332M114.201 263.675a1.665 1.665 0 0 0 0-3.316 1.664 1.664 0 0 0-1.076 2.779c.279.307.663.498 1.076.537M108.732 270.234a1.663 1.663 0 0 0 1.666-1.665 1.664 1.664 0 1 0-1.666 1.665M102.617 276.679c.442 0 .865-.175 1.178-.487a1.668 1.668 0 0 0-1.178-2.843 1.666 1.666 0 0 0 0 3.33"/>
  <path fill="#000" d="M599 338H1a1 1 0 0 0 0 2h598a1 1 0 0 0 0-2M310.577 196.661c1.063.434 2.068.925 3.074 1.446a37.08 37.08 0 0 1 16.973 20.493 2.65 2.65 0 0 1-.325 1.88 2.62 2.62 0 0 1-1.502 1.164 2.6 2.6 0 0 1-1.888-.164 2.63 2.63 0 0 1-1.282-1.405 32.23 32.23 0 0 0-14.504-17.344c-8.185-4.393-18.41-4.595-30.472-.751-.643.156-1.32.06-1.895-.266a2.638 2.638 0 0 1 .315-4.735c12.063-3.873 22.661-3.96 31.506-.318"/>
  <path stroke="#000" stroke-linecap="round" stroke-linejoin="round" stroke-width="5" d="M348 103c0 12 21.9 27.2 33.5 20M284 96c-9 16-35.4 25.7-53 18.5"/>
  <circle cx="243" cy="160" r="26" fill="#000"/>
  <circle cx="247.5" cy="171.5" r="4.5" fill="#fff"/>
  <circle cx="357" cy="160" r="26" fill="#000"/>
  <circle cx="361.5" cy="171.5" r="4.5" fill="#fff"/>
  <g clip-path="url(#17f)">
    <path fill="#F8FAFC" d="M459.193 320a4.63 4.63 0 0 1-3.231-1.375 4.53 4.53 0 0 1-1.306-3.232c.009-.646.16-1.282.444-1.864a93 93 0 0 0 6.355-16.228 4.54 4.54 0 0 1 2.199-2.577 4.62 4.62 0 0 1 3.389-.358 4.56 4.56 0 0 1 2.699 2.059 4.5 4.5 0 0 1 .513 3.335 101.3 101.3 0 0 1-6.956 17.82 4.6 4.6 0 0 1-1.712 1.777 4.66 4.66 0 0 1-2.394.643m-19.784-1.178a4.6 4.6 0 0 1-3.251-1.276 4.5 4.5 0 0 1-1.391-3.176 4.4 4.4 0 0 1 .72-2.484 74.5 74.5 0 0 0 11.585-39.962c0-1.202.482-2.354 1.34-3.203a4.6 4.6 0 0 1 3.236-1.327c1.214 0 2.378.477 3.236 1.327a4.5 4.5 0 0 1 1.341 3.203 83.6 83.6 0 0 1-12.893 44.776 4.6 4.6 0 0 1-1.684 1.564 4.64 4.64 0 0 1-2.239.558m-15.338-9.059a4.6 4.6 0 0 1-3.237-1.335 4.52 4.52 0 0 1-1.339-3.207 4.36 4.36 0 0 1 .654-2.303l.235-.389a56.9 56.9 0 0 0 8.905-30.618 22.07 22.07 0 0 1 6.182-15.847 22.54 22.54 0 0 1 15.693-6.878 22.55 22.55 0 0 1 16.012 6.119 22.1 22.1 0 0 1 6.949 15.531v1.075a107 107 0 0 1-.941 13.885 4.52 4.52 0 0 1-1.764 2.998 4.62 4.62 0 0 1-3.388.885 4.6 4.6 0 0 1-3.028-1.746 4.5 4.5 0 0 1-.895-3.353c.562-4.201.85-8.432.863-12.669a13 13 0 0 0-.849-5.056 13.1 13.1 0 0 0-2.74-4.349 13.33 13.33 0 0 0-9.258-4.138 13.4 13.4 0 0 0-5.108.841 13.3 13.3 0 0 0-4.394 2.711 13.08 13.08 0 0 0-4.181 9.162v.829a65.85 65.85 0 0 1-10.239 35.355l-.183.297a4.6 4.6 0 0 1-1.667 1.621 4.64 4.64 0 0 1-2.256.605zm58.841-1.76c-.42 0-.839-.061-1.242-.181a4.53 4.53 0 0 1-2.669-2.167 4.46 4.46 0 0 1-.364-3.397 110.8 110.8 0 0 0 4.236-30.334 30.6 30.6 0 0 0-2.362-11.804 30.8 30.8 0 0 0-6.746-10.01 31.2 31.2 0 0 0-10.103-6.694 31.4 31.4 0 0 0-11.922-2.357 31.33 31.33 0 0 0-15.56 4.141 4.64 4.64 0 0 1-3.488.452 4.6 4.6 0 0 1-2.789-2.121 4.5 4.5 0 0 1-.456-3.452 4.55 4.55 0 0 1 2.143-2.76A40.5 40.5 0 0 1 451.74 232c10.685.021 20.925 4.236 28.473 11.721S492 261.349 492 271.924c0 11.092-1.544 22.131-4.59 32.805a4.54 4.54 0 0 1-1.645 2.38 4.6 4.6 0 0 1-2.761.92zm-71.354-12.255a4.56 4.56 0 0 1-4.3-3.029 4.5 4.5 0 0 1 .181-3.441 39.3 39.3 0 0 0 4.001-17.342 39.7 39.7 0 0 1 5.44-19.981 4.566 4.566 0 0 1 2.766-2.542 4.62 4.62 0 0 1 3.755.379 4.6 4.6 0 0 1 1.427 1.288 4.49 4.49 0 0 1-.103 5.392 30.46 30.46 0 0 0-4.171 15.452 48.1 48.1 0 0 1-4.877 21.236 4.57 4.57 0 0 1-1.683 1.881 4.63 4.63 0 0 1-2.436.707"/>
  </g>
  <defs>
    <linearGradient id="12a" x1="282.07" x2="529.851" y1="48" y2="245.439" gradientUnits="userSpaceOnUse">
      <stop stop-color="#fff"/>
      <stop offset="1" stop-color="#F1F5F9"/>
    </linearGradient>
    <linearGradient id="13b" x1="120" x2="481.289" y1="48" y2="100.056" gradientUnits="userSpaceOnUse">
      <stop stop-color="#2253D5"/>
      <stop offset="1" stop-color="#4085F3"/>
    </linearGradient>
    <linearGradient id="14c" x1="510" x2="510" y1="170" y2="49" gradientUnits="userSpaceOnUse">
      <stop stop-opacity=".2"/>
      <stop offset="1" stop-opacity=".05"/>
    </linearGradient>
    <linearGradient id="16e" x1="168.5" x2="90" y1="335.5" y2="211.5" gradientUnits="userSpaceOnUse">
      <stop stop-opacity=".2"/>
      <stop offset="1" stop-opacity=".05"/>
    </linearGradient>
    <clipPath id="15d">
      <path fill="#fff" d="M90 218h80v120h-60c-11.046 0-20-8.954-20-20z"/>
    </clipPath>
    <clipPath id="17f">
      <rect width="85" height="88" x="395" y="220" fill="#fff" rx="10"/>
    </clipPath>
  </defs>
</svg>
