<svg xmlns="http://www.w3.org/2000/svg" width="64" height="64" fill="none" viewBox="0 0 64 64">
  <g clip-path="url(#facial-biometric-top-centera)">
    <g clip-path="url(#facial-biometric-top-center2b)">
      <g clip-path="url(#facial-biometric-top-center3c)">
        <path fill="#fff" d="M64 0H0v64h64z"/>
        <path fill="#FDA894" d="m24.936 36.186 1.262 27.008 14.624.125-1.056-22.592-3.749-1.15z"/>
        <path fill="#BF3131" d="M25.733 41.608a12.67 12.67 0 0 0 5.24 5.77c2.41 1.408 6.4.866 9.108.246l-.322-6.892-3.75-1.15c-4.797.876-10.276 2.026-10.276 2.026"/>
        <path fill="#60A5FA" d="M57.032 53.57c-.246-.063-.505-.118-.751-.174-.399-.099-.79-.182-1.184-.273-.738-.168-1.497-.34-2.252-.48a8120 8120 0 0 0-11.026-3.306c-.246-.077-.475-.148-.672-.205l-1.001-.3s-5.603 3.358-7.936 4.36q-.378.17-.778.273h-.015a.2.2 0 0 1-.057 0 1 1 0 0 1-.258-.027 2.4 2.4 0 0 1-.357-.133 5 5 0 0 1-.463-.246c-1.794-1.017-4.726-3.653-4.726-3.653l-.96.428-.687.3-9.644 4.276c-.246.081-2.853.957-6.444 2.385l-.911.372a123 123 0 0 0-6.892 3.037v3.781h64v-8.598c-2.341-.665-4.675-1.27-6.986-1.816"/>
        <path fill="#000" d="M30.274 53.072c.256.159.532.284.82.372L24.8 56.676a.352.352 0 0 1-.512-.288l-.387-6.24.687-.3.364 5.964zM41.812 49.348l-4.12 8.589a.38.38 0 0 1-.247.187.3.3 0 0 1-.076 0 .34.34 0 0 1-.22-.077l-5.747-4.578a4 4 0 0 0 .792-.273l5.047 4.032 3.891-8.091q.306.078.68.211"/>
        <path fill="#fff" d="M33.423 57.596c0 .708-.434 1.284-.965 1.284-.532 0-.965-.576-.965-1.285s.433-1.285.965-1.285c.531 0 .965.574.965 1.285"/>
        <path fill="#000" d="M30.314 64q.477-5.258 1.11-10.535h-.015a.2.2 0 0 1-.056 0 1 1 0 0 1-.259-.027 2.3 2.3 0 0 1-.357-.133q-.65 5.36-1.127 10.688z"/>
        <path fill="#172554" d="M31.431 37.187a14.996 14.996 0 1 0 0-29.992 14.996 14.996 0 0 0 0 29.992"/>
        <path fill="#000" d="M17.201 27.909a.35.35 0 0 1-.334-.246 15.4 15.4 0 0 1-.68-3.712c-.27-4.6 1.452-11.242 7.195-14.828 4.69-2.925 9.701-2.272 11.638-1.854a.347.347 0 0 1 .269.416.35.35 0 0 1-.416.27c-1.854-.398-6.646-1.026-11.119 1.763-5.482 3.424-7.139 9.785-6.868 14.191.074 1.204.293 2.394.653 3.545a.355.355 0 0 1-.232.44.4.4 0 0 1-.106.015"/>
        <path fill="#FDA894" d="M43.382 21.555a2.4 2.4 0 0 0-.113-1.575 17.8 17.8 0 0 1-1.386-5.908 2.46 2.46 0 0 0-.984-1.844 15.554 15.554 0 0 0-18.708.099 2.46 2.46 0 0 0-.972 1.91 17.4 17.4 0 0 1-1.074 5.6 2.5 2.5 0 0 0-.08 1.514 8.3 8.3 0 0 1-.712 6.154q-.176.33-.246.699c-.22 1.13-.382 4.332 2.747 9.969q.584 1.036 1.28 2.001c3.175 4.584 9.199 7.111 14.124 3.623 2.526-1.79 4.618-4.157 5.684-7.123 1.38-3.852 1.957-7.139 2.02-8.44.025-.446.033-.872.033-1.273a2.31 2.31 0 0 0-1.379-2.073l-.034-.017c-.6-.333-.665-1.603-.2-3.316"/>
        <path fill="#172554" d="M35.862 23.59c-.042 1.096.445 2.007 1.09 2.031s1.202-.844 1.243-1.942-.445-2.003-1.09-2.028-1.204.844-1.243 1.94M25.77 23.714c.071 1.095.652 1.947 1.295 1.905s1.107-.963 1.036-2.058-.652-1.947-1.295-1.905-1.11.962-1.036 2.058M36.394 16.856c-.985-.037-2.103.345-2.07 1.509.024.77.787.765 1.378.758 1.172-.017 2.284.492 3.434.465.197.006.392-.039.566-.13.541-.318.19-.835-.172-1.135a7.1 7.1 0 0 0-1.84-1.184 3.8 3.8 0 0 0-1.296-.283M26.294 16.894c-1.145.216-2.097 1.028-2.801 1.92a.85.85 0 0 0-.246.549.56.56 0 0 0 .354.442c.19.068.392.086.59.055 1.04-.114 2.044-.655 3.078-.864.492-.096 1.398-.045 1.558-.67.268-1.058-.96-1.445-1.905-1.477q-.316-.01-.628.044"/>
        <path fill="#FDA894" d="M42.809 25.207s1.383-2.89 3.894-1.908c3.524 1.376 1.555 8.766-2.24 9.775s-1.654-7.867-1.654-7.867"/>
        <path fill="#BF3131" d="M44.99 26.57a4.13 4.13 0 0 1-.101 4.184c-.234.381-.842.032-.606-.355a3.41 3.41 0 0 0 .101-3.473c-.214-.401.391-.755.606-.357"/>
        <path fill="#FDA894" d="M21.027 25.119s-1.706-2.708-4.087-1.442c-3.342 1.774-.529 8.888 3.358 9.447s.729-8.005.729-8.005"/>
        <path fill="#BF3131" d="M19.02 26.728a4.13 4.13 0 0 0 .586 4.14c.278.353.84-.063.562-.42a3.41 3.41 0 0 1-.505-3.446c.167-.412-.475-.692-.642-.274"/>
        <path fill="#172554" d="M31.609 12.18c3.778.172 8.007-1.817 7.98-3.532-.03-2.053-6.134-3.333-8.396-3.666-2.029-.297-4.645-.386-4.904.407-.258.792 1.777 1.969 1.517 2.4-.143.228-.788-.028-2.105-.183-1.268-.147-2.316-.275-2.442 0-.273.571 3.496 4.342 8.35 4.574"/>
        <path fill="#000" d="M31.924 12.523h-.332c-4.17-.135-7.631-2.835-8.47-4.184-.232-.367-.291-.658-.188-.894.246-.561 1.231-.42 2.587-.226.613.088 1.605.229 1.942.147a4.7 4.7 0 0 0-.605-.6c-.542-.478-1.1-.985-.906-1.507s.879-.67 2.321-.558a.352.352 0 0 1-.051.701c-1.197-.091-1.524.05-1.598.099.057.17.473.536.7.738.523.465 1.02.903.844 1.386-.247.647-1.344.492-2.748.285-.573-.08-1.499-.214-1.816-.147.258.787 3.638 3.914 8.01 4.054 3.47.11 6.107-1.691 7.372-2.78a.352.352 0 0 1 .458.535c-1.297 1.115-3.973 2.951-7.52 2.951"/>
        <path fill="#BF3131" d="M31.73 35.319c-1.638 0-3.261-.302-4.789-.891a.352.352 0 1 1 .247-.655 12.62 12.62 0 0 0 9.075 0 .35.35 0 0 1 .41.066.352.352 0 0 1-.164.589 13.3 13.3 0 0 1-4.34.89zM31.779 28.21a.35.35 0 0 1-.352-.353v-5.169a.353.353 0 1 1 .701 0v5.17a.35.35 0 0 1-.35.351"/>
        <path fill="#BF3131" d="M29.853 30.294a.35.35 0 0 1-.293-.544l1.086-1.634a1.36 1.36 0 0 1 2.184-.11l1.142 1.387a.35.35 0 0 1-.542.446l-1.142-1.388a.66.66 0 0 0-.544-.247.66.66 0 0 0-.514.296l-1.084 1.634a.35.35 0 0 1-.293.16"/>
      </g>
    </g>
    <path stroke="#CBD5E1" d="M.5 32C.5 14.603 14.603.5 32 .5S63.5 14.603 63.5 32 49.397 63.5 32 63.5.5 49.397.5 32Z"/>
  </g>
  <defs>
    <clipPath id="facial-biometric-top-centera">
      <path fill="#fff" d="M0 0h64v64H0z"/>
    </clipPath>
    <clipPath id="facial-biometric-top-center2b">
      <path fill="#fff" d="M0 32C0 14.327 14.327 0 32 0s32 14.327 32 32-14.327 32-32 32S0 49.673 0 32"/>
    </clipPath>
    <clipPath id="facial-biometric-top-center3c">
      <path fill="#fff" d="M0 0h64v64H0z"/>
    </clipPath>
  </defs>
</svg>
