<svg xmlns="http://www.w3.org/2000/svg" width="64" height="64" fill="none" viewBox="0 0 64 64">
  <g clip-path="url(#facial-biometric-top-righta)">
    <g clip-path="url(#facial-biometric-top-right2b)">
      <g clip-path="url(#facial-biometric-top-right3c)">
        <path fill="#fff" d="M0 64h64V0H0z"/>
        <path fill="#FDA894" d="m24.936 36.186 1.262 27.008 14.624.125-1.05-22.585-3.747-1.15z"/>
        <path fill="#BF3131" d="M25.74 41.608a12.66 12.66 0 0 0 5.238 5.77c2.41 1.407 6.4.866 9.108.245l-.322-6.892-3.747-1.15c-4.544-3.34-8.768-3.908-10.174-2.32-1.088 1.237-.35 3.645-.103 4.346"/>
        <path fill="#60A5FA" d="M57.031 53.57c-.246-.063-.507-.118-.75-.174-.4-.099-.793-.182-1.184-.273a60 60 0 0 0-2.253-.48 8164 8164 0 0 0-11.025-3.306 36 36 0 0 0-.674-.205l-1.002-.3s-5.6 3.358-7.936 4.36q-.377.17-.778.273h-.027a.2.2 0 0 1-.057 0 1 1 0 0 1-.26-.027 2.5 2.5 0 0 1-.358-.133 4 4 0 0 1-.462-.246c-1.795-1.017-4.724-3.653-4.724-3.653l-.96.428-.687.3-9.647 4.276c-.246.081-2.852.957-6.441 2.385l-.914.372A123 123 0 0 0 0 60.204v3.781h64v-8.598a155 155 0 0 0-6.969-1.816"/>
        <path fill="#000" d="M30.272 53.073c.256.158.532.283.82.371l-6.295 3.232a.35.35 0 0 1-.337 0 .36.36 0 0 1-.175-.28l-.384-6.24.687-.3.364 5.964zM41.812 49.348l-4.123 8.589a.38.38 0 0 1-.246.187.3.3 0 0 1-.077 0 .33.33 0 0 1-.216-.077l-5.748-4.578q.41-.094.79-.273l5.049 4.032 3.889-8.091a8 8 0 0 1 .682.211"/>
        <path fill="#fff" d="M33.42 57.596c0 .708-.43 1.284-.965 1.284s-.962-.576-.962-1.285.43-1.285.962-1.285.965.574.965 1.285"/>
        <path fill="#000" d="M30.311 64q.476-5.258 1.11-10.535h-.02a.2.2 0 0 1-.056 0 1 1 0 0 1-.26-.027 2.4 2.4 0 0 1-.358-.133 340 340 0 0 0-1.125 10.688z"/>
        <path fill="#172554" d="M48.062 20.572c.115-1.543.347-4.923-1.677-7.958C41.322 5.02 25.28 4.4 19.764 12.237c-2.954 4.202-1.869 9.381-1.605 10.63 1.393 6.645 7.552 14.46 16.098 13.803 9.263-.71 13.364-10.286 13.805-16.098"/>
        <path fill="#000" d="M46.942 26.779a.355.355 0 0 1-.332-.468c.395-1.144.657-2.33.78-3.535.514-5.09-1.477-10.648-4.847-13.516-4.923-4.185-14.939-4.15-22.533 3.23a.35.35 0 0 1-.532.039.352.352 0 0 1 .04-.532c3.522-3.424 7.953-5.598 12.477-6.12 4.276-.492 8.286.547 11 2.858 3.536 3.01 5.628 8.818 5.091 14.125a16.4 16.4 0 0 1-.814 3.692.35.35 0 0 1-.33.227"/>
        <path fill="#FDA894" d="M44.579 24.096s1.494-2.831 3.965-1.75c3.468 1.513 1.209 8.822-2.626 9.676s-1.34-7.926-1.34-7.926"/>
        <path fill="#BF3131" d="M48.303 25.423a4.14 4.14 0 0 1-.266 4.184c-.246.375-.844 0-.593-.376a3.41 3.41 0 0 0 .246-3.466c-.207-.416.413-.748.613-.342"/>
        <path fill="#FDA894" d="M23.582 27.62c.477-.184-.153-3.812.396-5.414.51-1.477 1.14-1.406 1.442-2.575.665-2.55-1.784-3.789-1.477-5.878.476-3.2 6.893-4.924 10.725-5.17 2.814-.174 4.493.446 5.059.677a10.6 10.6 0 0 1 4.093 3.053c3.397 3.965 3.255 9.393 3.065 16.26-.108 3.82-.492 6.666-1.849 9.623-.817 1.79-1.477 3.173-2.993 4.293-3.429 2.518-7.776 1.59-8.76 1.366a15.4 15.4 0 0 1-5.566-2.819c-4.581-3.71-6.646-15.507-5.927-15.72.35-.09 1.376 2.462 1.792 2.305"/>
        <path fill="#172554" d="M33.42 23.42c.126 1.09-.293 2.033-.933 2.107-.64.073-1.263-.739-1.388-1.84-.126-1.1.293-2.032.933-2.106s1.263.75 1.388 1.839M42.888 22.817c.012 1.098-.493 1.994-1.148 1.999s-1.179-.874-1.191-1.97c-.012-1.095.492-1.99 1.147-1.998s1.18.874 1.192 1.969M31.074 17.17a7.1 7.1 0 0 0-1.705 1.37c-.33.338-.623.887-.052 1.148.183.07.381.095.576.069 1.147-.096 2.2-.716 3.367-.822.589-.054 1.35-.13 1.29-.899-.088-1.164-1.23-1.425-2.215-1.285a3.8 3.8 0 0 0-1.26.419M41.127 16.083c-.935.155-2.1.702-1.69 1.723.245.599 1.141.426 1.634.456 1.05.069 2.119.47 3.163.445.2.005.398-.04.576-.133a.55.55 0 0 0 .295-.492.85.85 0 0 0-.315-.512c-.815-.788-1.868-1.477-3.033-1.526q-.317-.015-.63.04"/>
        <path fill="#FDA894" d="M22.206 25.9s-1.598-2.774-4.027-1.605c-3.41 1.642-.882 8.862 2.98 9.576s1.047-7.97 1.047-7.97"/>
        <path fill="#BF3131" d="M20.135 27.426a4.14 4.14 0 0 0 .421 4.16c.264.364.845-.032.579-.399a3.41 3.41 0 0 1-.367-3.446c.182-.42-.443-.728-.633-.315"/>
        <path fill="#172554" d="M37.38 10.784c3.706-.332 7.48-2.744 7.245-4.36-.246-1.69-4.861-2.3-6.936-2.576-3.2-.424-6.4-.178-6.497.45-.068.478 1.694.906 1.618 1.425-.116.808-4.431.247-4.69 1.135-.278.997 4.266 4.372 9.26 3.926"/>
        <path fill="#000" d="M36.6 11.03c-3.938 0-7.362-2.059-8.475-3.366-.31-.364-.42-.664-.337-.918.195-.586 1.115-.514 3.01-.317.813.086 2.118.221 2.543.1a7.4 7.4 0 0 0-.965-.662c-.895-.55-1.668-1.026-1.526-1.649.143-.623 1.18-.879 3.552-.832a.352.352 0 0 1 0 .704c-2.254-.047-2.744.207-2.843.288.104.22.81.653 1.199.891.84.517 1.502.926 1.344 1.477-.202.69-1.351.606-3.362.394-.739-.079-1.822-.192-2.216-.116.222.362 1.194 1.283 2.942 2.107 1.285.606 3.874 1.551 6.791 1.076a10.7 10.7 0 0 0 5.305-2.572.353.353 0 0 1 .465.53 11.4 11.4 0 0 1-5.662 2.734c-.583.092-1.174.136-1.764.13"/>
        <path fill="#BF3131" d="M38.033 34.77a10.3 10.3 0 0 1-3.52-.648.355.355 0 0 1-.138-.57.35.35 0 0 1 .38-.09c1.402.513 3.556.963 5.853.185.614-.207 1.2-.49 1.745-.842a.352.352 0 1 1 .38.594 8.6 8.6 0 0 1-4.7 1.37M38.248 29.62a.353.353 0 0 1-.188-.65l2.624-1.647a1.48 1.48 0 0 0 0-1.676l-2.707-3.92a.351.351 0 1 1 .578-.398l2.708 3.919a2.17 2.17 0 0 1-.05 2.545l-.039.054-2.737 1.723a.34.34 0 0 1-.19.05"/>
        <path fill="#BF3131" d="M41.066 29.465h-.032a.35.35 0 0 1-.318-.384l.247-2.52a.35.35 0 0 1 .242-.327.35.35 0 0 1 .457.393l-.246 2.523a.35.35 0 0 1-.35.315"/>
      </g>
    </g>
    <path stroke="#CBD5E1" d="M.5 32C.5 14.603 14.603.5 32 .5S63.5 14.603 63.5 32 49.397 63.5 32 63.5.5 49.397.5 32Z"/>
  </g>
  <defs>
    <clipPath id="facial-biometric-top-righta">
      <path fill="#fff" d="M0 0h64v64H0z"/>
    </clipPath>
    <clipPath id="facial-biometric-top-right2b">
      <path fill="#fff" d="M0 32C0 14.327 14.327 0 32 0s32 14.327 32 32-14.327 32-32 32S0 49.673 0 32"/>
    </clipPath>
    <clipPath id="facial-biometric-top-right3c">
      <path fill="#fff" d="M0 0h64v64H0z"/>
    </clipPath>
  </defs>
</svg>
