<svg xmlns="http://www.w3.org/2000/svg" width="64" height="64" fill="none" viewBox="0 0 64 64">
  <g clip-path="url(#facial-biometric-bottom-centera)">
    <g clip-path="url(#facial-biometric-bottom-center2b)">
      <g clip-path="url(#facial-biometric-bottom-center3c)">
        <path fill="#fff" d="M64 0H0v64h64z"/>
        <path fill="#FDA894" d="m24.936 36.182 1.262 27.008 14.624.128-1.056-22.592-3.749-1.152z"/>
        <path fill="#BF3131" d="M25.733 41.604a12.68 12.68 0 0 0 5.24 5.772c2.41 1.408 6.4.867 9.108.247l-.322-6.893-3.75-1.152c-4.797.879-10.276 2.026-10.276 2.026"/>
        <path fill="#60A5FA" d="M57.032 53.571c-.246-.064-.505-.12-.751-.175-.399-.098-.79-.182-1.184-.273-.738-.167-1.497-.34-2.252-.492a8120 8120 0 0 0-11.026-3.306 24 24 0 0 0-.672-.204l-1.001-.3s-5.603 3.357-7.936 4.359q-.378.17-.778.273h-.015a.2.2 0 0 1-.057 0 1 1 0 0 1-.258-.027 2.3 2.3 0 0 1-.357-.133 5 5 0 0 1-.463-.246c-1.794-1.017-4.726-3.653-4.726-3.653l-.96.428-.687.3-9.644 4.276c-.246.081-2.853.958-6.444 2.385l-.911.372a123 123 0 0 0-6.892 3.038v3.78h64v-8.598a203 203 0 0 0-6.986-1.804"/>
        <path fill="#000" d="M30.274 53.073c.256.159.532.284.82.372l-6.294 3.23a.342.342 0 0 1-.512-.281l-.387-6.24.687-.3.364 5.964zM41.812 49.337l-4.12 8.585a.38.38 0 0 1-.247.19.3.3 0 0 1-.076 0 .34.34 0 0 1-.22-.076l-5.747-4.579q.411-.094.792-.273l5.047 4.032 3.891-8.091z"/>
        <path fill="#fff" d="M33.423 57.596c0 .709-.434 1.285-.965 1.285-.532 0-.965-.576-.965-1.285s.433-1.287.965-1.287c.531 0 .965.576.965 1.287"/>
        <path fill="#000" d="M30.314 64q.477-5.258 1.11-10.535h-.015a.2.2 0 0 1-.056 0 1 1 0 0 1-.259-.027 2.3 2.3 0 0 1-.357-.133q-.65 5.355-1.127 10.688z"/>
        <path fill="#172554" d="M31.431 34.575a14.996 14.996 0 1 0 0-29.991 14.996 14.996 0 0 0 0 29.991"/>
        <path fill="#000" d="M17.201 25.249a.35.35 0 0 1-.334-.246 15.4 15.4 0 0 1-.68-3.712c-.27-4.6 1.452-11.242 7.195-14.829 4.69-2.924 9.701-2.272 11.638-1.853a.35.35 0 0 1 .269.416.35.35 0 0 1-.416.27c-1.854-.398-6.646-1.026-11.119 1.763-5.482 3.424-7.139 9.785-6.868 14.19a15 15 0 0 0 .653 3.546.355.355 0 0 1-.232.44.4.4 0 0 1-.106.015"/>
        <path fill="#FDA894" d="M44.231 23.713c-.795-.064-1.509-2.954-1.989-5.551a6.7 6.7 0 0 0-5.038-5.307c-2.2-.52-4.805-.96-6.762-.768-1.918.19-4.249.869-6.198 1.543a6.66 6.66 0 0 0-4.431 5.477c-.423 3.387-.928 5.691-1.31 5.716.057 5.585 1.28 10.533 4.608 15.34 3.176 4.584 9.2 7.112 14.125 3.624 2.525-1.79 4.618-4.158 5.683-7.127 1.066-2.968 1.817-5.277 2.021-8.438a42 42 0 0 0 .094-4.357 3.2 3.2 0 0 0-.803-.152"/>
        <path fill="#172554" d="M35.862 27.637c-.042 1.096.445 2.004 1.09 2.029s1.202-.844 1.243-1.94c.042-1.095-.445-2.004-1.09-2.028s-1.204.842-1.243 1.94M25.77 27.645c.071 1.096.652 1.947 1.295 1.906s1.107-.963 1.036-2.058c-.071-1.096-.652-1.947-1.295-1.906s-1.11.97-1.036 2.058M36.229 22.27c-.985.09-2.04.615-1.854 1.764.123.761.879.658 1.465.574 1.16-.17 2.328.187 3.466 0 .195-.02.382-.09.544-.202.492-.384.078-.852-.318-1.103a7.1 7.1 0 0 0-1.969-.933 3.8 3.8 0 0 0-1.334-.1M26.479 22.373c-1.162.06-2.216.739-3.035 1.521a.85.85 0 0 0-.316.51.55.55 0 0 0 .293.492c.179.093.378.14.579.136 1.041.027 2.112-.375 3.163-.439.492-.032 1.39.146 1.634-.453.411-1.011-.753-1.56-1.686-1.723a3 3 0 0 0-.632-.044"/>
        <path fill="#FDA894" d="M42.809 23.722s1.383-2.89 3.894-1.91c3.524 1.378 1.555 8.768-2.24 9.775s-1.654-7.865-1.654-7.865"/>
        <path fill="#BF3131" d="M44.99 25.08a4.13 4.13 0 0 1-.101 4.184c-.234.384-.842.035-.606-.352a3.41 3.41 0 0 0 .101-3.473c-.214-.399.391-.753.606-.36"/>
        <path fill="#FDA894" d="M21.027 23.637s-1.706-2.708-4.087-1.443c-3.342 1.775-.529 8.889 3.358 9.448 3.887.558.729-8.005.729-8.005"/>
        <path fill="#BF3131" d="M19.02 25.244a4.13 4.13 0 0 0 .586 4.137c.278.355.84-.064.561-.418a3.41 3.41 0 0 1-.504-3.446c.167-.411-.475-.682-.643-.273"/>
        <path fill="#172554" d="M32.608 18.289c3.212-.345 6.722-2.393 6.555-4.017-.185-1.76-4.645-2.782-7.806-2.772-3.16.01-7.65 1.078-7.803 2.772-.162 1.812 4.62 4.49 9.054 4.017"/>
        <path fill="#000" d="M31.799 19.018h-.33c-4.17-.133-7.631-2.833-8.47-4.185-.232-.366-.293-.66-.188-.893.247-.561 1.231-.421 2.585-.227.615.087 1.605.23 1.944.148a4.7 4.7 0 0 0-.605-.6c-.541-.48-1.1-.985-.906-1.51.195-.524.879-.667 2.321-.556a.35.35 0 0 1 .325.377.357.357 0 0 1-.379.325c-1.196-.094-1.52.049-1.595.098.057.168.47.537.7.739.524.465 1.02.906.844 1.388-.247.645-1.344.492-2.748.286-.573-.082-1.498-.215-1.816-.148.258.787 3.638 3.914 8.01 4.054 3.47.11 6.107-1.694 7.37-2.78a.351.351 0 0 1 .6.288.35.35 0 0 1-.143.245c-1.3 1.112-3.975 2.951-7.52 2.951"/>
        <path fill="#BF3131" d="M31.707 38.572c-2.762 0-4.473-2.031-4.677-2.275a.35.35 0 0 1 .546-.438c.185.229 1.861 2.215 4.55 1.991a5.36 5.36 0 0 0 3.734-2.104.352.352 0 1 1 .563.42 6.1 6.1 0 0 1-4.236 2.386q-.238.019-.48.02M31.776 34.927a1.78 1.78 0 0 1-1.283-.547l-.856-.89a.35.35 0 0 1 .012-.493.346.346 0 0 1 .492 0l.857.893a1.08 1.08 0 0 0 1.25.218q.206-.102.352-.28l.537-.647a.35.35 0 1 1 .542.446l-.537.65a1.78 1.78 0 0 1-1.302.645z"/>
      </g>
    </g>
    <path stroke="#CBD5E1" d="M.5 32C.5 14.603 14.603.5 32 .5S63.5 14.603 63.5 32 49.397 63.5 32 63.5.5 49.397.5 32Z"/>
  </g>
  <defs>
    <clipPath id="facial-biometric-bottom-centera">
      <path fill="#fff" d="M0 0h64v64H0z"/>
    </clipPath>
    <clipPath id="facial-biometric-bottom-center2b">
      <path fill="#fff" d="M0 32C0 14.327 14.327 0 32 0s32 14.327 32 32-14.327 32-32 32S0 49.673 0 32"/>
    </clipPath>
    <clipPath id="facial-biometric-bottom-center3c">
      <path fill="#fff" d="M0 0h64v64H0z"/>
    </clipPath>
  </defs>
</svg>
