<svg xmlns="http://www.w3.org/2000/svg" width="64" height="64" fill="none" viewBox="0 0 64 64">
  <g clip-path="url(#facial-biometric-centera)">
    <g clip-path="url(#facial-biometric-center2b)">
      <g clip-path="url(#facial-biometric-center3c)">
        <path fill="#fff" d="M64 0H0v64h64z"/>
        <path fill="#FDA894" d="m24.936 36.186 1.262 27.008 14.624.125-1.056-22.592-3.749-1.15z"/>
        <path fill="#BF3131" d="M25.733 41.607a12.7 12.7 0 0 0 5.24 5.773c2.41 1.405 6.4.864 9.108.246l-.322-6.892-3.75-1.15c-4.797.874-10.276 2.023-10.276 2.023"/>
        <path fill="#60A5FA" d="M57.032 53.571c-.246-.064-.505-.118-.751-.175-.399-.098-.79-.182-1.184-.273-.738-.167-1.497-.34-2.252-.492a8120 8120 0 0 0-11.026-3.306c-.246-.076-.475-.148-.672-.204l-1.001-.3s-5.603 3.357-7.936 4.359q-.378.17-.778.273h-.015a.2.2 0 0 1-.057 0 1 1 0 0 1-.258-.027 2.3 2.3 0 0 1-.357-.133 5 5 0 0 1-.463-.246c-1.794-1.017-4.726-3.653-4.726-3.653l-.96.428-.687.3-9.644 4.276c-.246.081-2.853.958-6.444 2.385l-.911.372a123 123 0 0 0-6.892 3.038v6.047h64V55.375a182 182 0 0 0-6.986-1.804"/>
        <path fill="#000" d="M30.274 53.072c.256.159.532.284.82.372L24.8 56.676a.352.352 0 0 1-.512-.288l-.387-6.24.687-.3.364 5.964zM41.812 49.337l-4.12 8.588a.38.38 0 0 1-.247.187.3.3 0 0 1-.076 0 .34.34 0 0 1-.22-.076l-5.747-4.579q.411-.094.792-.273l5.047 4.032 3.891-8.091q.306.096.68.212"/>
        <path fill="#fff" d="M33.423 57.596c0 .708-.434 1.284-.965 1.284-.532 0-.965-.576-.965-1.285s.433-1.285.965-1.285c.531 0 .965.574.965 1.285"/>
        <path fill="#000" d="M30.143 64.327c.319-3.505.859-7.344 1.28-10.862h-.014a.2.2 0 0 1-.057 0 1 1 0 0 1-.258-.027 2.3 2.3 0 0 1-.357-.133c-.433 3.574-.98 7.464-1.297 11.015z"/>
        <path fill="#172554" d="M31.431 37.187a14.995 14.995 0 1 0 0-29.99 14.995 14.995 0 0 0 0 29.99"/>
        <path fill="#000" d="M17.201 27.909a.35.35 0 0 1-.334-.246 15.4 15.4 0 0 1-.68-3.712c-.27-4.6 1.452-11.242 7.195-14.828 4.69-2.925 9.701-2.272 11.638-1.854a.347.347 0 0 1 .269.416.35.35 0 0 1-.416.27c-1.854-.398-6.646-1.026-11.119 1.763-5.482 3.424-7.139 9.785-6.868 14.191.074 1.204.293 2.394.653 3.545a.355.355 0 0 1-.232.44.4.4 0 0 1-.106.015"/>
        <path fill="#FDA894" d="M44.231 23.713c-.795-.064-1.509-2.954-1.989-5.551a6.7 6.7 0 0 0-5.038-5.307c-2.2-.52-4.805-.96-6.762-.768-1.918.19-4.249.869-6.198 1.543a6.67 6.67 0 0 0-4.431 5.477c-.423 3.387-.928 5.691-1.31 5.716.057 5.585 1.28 10.533 4.608 15.34 3.176 4.584 9.2 7.112 14.125 3.624 2.525-1.79 4.618-4.158 5.683-7.124 1.066-2.966 1.817-5.278 2.021-8.44a42 42 0 0 0 .094-4.358 3.2 3.2 0 0 0-.803-.152"/>
        <path fill="#172554" d="M35.862 26.585c-.042 1.096.445 2.004 1.09 2.029s1.202-.845 1.243-1.94c.042-1.096-.445-2.006-1.09-2.03s-1.204.843-1.243 1.941M25.77 26.593c.071 1.093.652 1.947 1.295 1.905s1.107-.965 1.036-2.058-.652-1.95-1.295-1.905-1.11.962-1.036 2.058M36.229 20.23c-.985.093-2.04.617-1.854 1.767.123.76.879.657 1.465.574 1.16-.17 2.328.187 3.466 0 .195-.02.382-.09.544-.202.492-.384.078-.852-.318-1.103a7.1 7.1 0 0 0-1.969-.933 3.8 3.8 0 0 0-1.334-.103M26.479 20.421c-1.162.06-2.216.739-3.035 1.522a.85.85 0 0 0-.316.512.55.55 0 0 0 .293.492c.179.092.378.138.579.133 1.041.03 2.112-.372 3.163-.438.492-.03 1.39.147 1.634-.453.411-1.012-.753-1.56-1.686-1.723a3 3 0 0 0-.632-.045"/>
        <path fill="#FDA894" d="M42.809 24.793s1.383-2.89 3.894-1.91c3.524 1.378 1.555 8.767-2.24 9.774s-1.654-7.864-1.654-7.864"/>
        <path fill="#BF3131" d="M44.99 26.157a4.13 4.13 0 0 1-.101 4.185c-.234.384-.842.034-.606-.352a3.41 3.41 0 0 0 .101-3.473c-.214-.404.391-.759.606-.36"/>
        <path fill="#FDA894" d="M21.027 25.824s-1.706-2.708-4.087-1.445c-3.342 1.777-.529 8.888 3.358 9.45 3.887.56.729-8.006.729-8.006"/>
        <path fill="#BF3131" d="M19.02 27.43a4.13 4.13 0 0 0 .586 4.139c.278.354.84-.064.561-.421a3.41 3.41 0 0 1-.504-3.446c.167-.402-.475-.692-.643-.271"/>
        <path fill="#172554" d="M32.608 15.24c3.212-.342 6.722-2.393 6.555-4.017-.185-1.758-4.645-2.782-7.806-2.77-3.16.013-7.65 1.076-7.803 2.77-.162 1.814 4.62 4.492 9.054 4.017"/>
        <path fill="#000" d="M31.799 15.978h-.33c-4.17-.135-7.631-2.835-8.47-4.184-.232-.367-.293-.66-.188-.894.247-.561 1.231-.42 2.585-.226.615.088 1.605.229 1.944.148a5 5 0 0 0-.605-.601c-.541-.478-1.1-.985-.906-1.507s.879-.67 2.321-.558a.352.352 0 1 1-.054.701c-1.194-.09-1.52.05-1.595.099.057.17.47.536.7.738.524.465 1.02.903.844 1.386-.247.645-1.344.492-2.748.286-.573-.082-1.498-.215-1.816-.148.258.787 3.638 3.914 8.01 4.054 3.47.11 6.107-1.691 7.37-2.78a.353.353 0 0 1 .535.004.352.352 0 0 1-.087.529c-1.29 1.11-3.966 2.953-7.51 2.953"/>
        <path fill="#BF3131" d="M31.779 33.089a.35.35 0 0 1-.352-.35v-5.514a.353.353 0 0 1 .61-.268.35.35 0 0 1 .091.268v5.514a.353.353 0 0 1-.35.35M31.707 37.54c-2.762 0-4.473-2.03-4.677-2.273a.354.354 0 0 1 .036-.516.35.35 0 0 1 .51.075c.185.229 1.861 2.215 4.55 1.994a5.36 5.36 0 0 0 3.734-2.107.352.352 0 1 1 .563.42 6.08 6.08 0 0 1-4.236 2.386q-.238.022-.48.022"/>
      </g>
    </g>
    <path stroke="#CBD5E1" d="M.5 32C.5 14.603 14.603.5 32 .5S63.5 14.603 63.5 32 49.397 63.5 32 63.5.5 49.397.5 32Z"/>
  </g>
  <defs>
    <clipPath id="facial-biometric-centera">
      <path fill="#fff" d="M0 0h64v64H0z"/>
    </clipPath>
    <clipPath id="facial-biometric-center2b">
      <path fill="#fff" d="M0 32C0 14.327 14.327 0 32 0s32 14.327 32 32-14.327 32-32 32S0 49.673 0 32"/>
    </clipPath>
    <clipPath id="facial-biometric-center3c">
      <path fill="#fff" d="M0 0h64v64H0z"/>
    </clipPath>
  </defs>
</svg>
