<svg xmlns="http://www.w3.org/2000/svg" width="64" height="64" fill="none" viewBox="0 0 64 64">
  <g clip-path="url(#a)">
    <g clip-path="url(#b)">
      <g clip-path="url(#c)">
        <path fill="#fff" d="M64 0H0v64h64z"/>
        <path fill="#172554" d="M30.69 36.867A14.996 14.996 0 0 0 45.686 21.87c0-8.879-8.108-14.5-14.996-14.995-4.94-.355-11.249 1.782-13.934 6.934-1.738 3.34-1.278 6.646-1.061 8.061.886 5.763 5.708 14.996 14.995 14.996"/>
        <path fill="#000" d="M17.26 27.976a.35.35 0 0 1-.322-.212 16.4 16.4 0 0 1-1.096-3.619 19 19 0 0 1 .3-7.813c.705-2.786 1.985-5.093 3.705-6.67 2.484-2.275 6.265-3.36 10.376-2.974 4.364.411 8.682 2.42 12.155 5.662a.353.353 0 0 1-.079.598.35.35 0 0 1-.399-.084c-3.362-3.136-7.532-5.08-11.744-5.477-3.914-.367-7.498.65-9.834 2.794-2.594 2.375-4.886 7.722-3.788 13.839a15.6 15.6 0 0 0 1.049 3.466.35.35 0 0 1-.182.46.4.4 0 0 1-.14.03"/>
        <path fill="#FDA894" d="M19.44 25.824s-1.71-2.708-4.09-1.445c-3.34 1.777-.529 8.888 3.36 9.45 3.89.56.73-8.006.73-8.006"/>
        <path fill="#BF3131" d="M15.828 27.43a4.13 4.13 0 0 0 .583 4.139c.278.354.842-.064.561-.421a3.4 3.4 0 0 1-.492-3.446c.157-.402-.485-.692-.652-.271"/>
        <path fill="#FDA894" d="m24.938 36.186 1.263 27.008 14.621.125-1.056-22.592-3.746-1.15z"/>
        <path fill="#BF3131" d="M25.733 41.608a12.7 12.7 0 0 0 5.24 5.773c2.41 1.405 6.4.864 9.108.246l-.492-17.361q-1.782 4.656-3.57 9.317z"/>
        <path fill="#FDA894" d="M40.642 27.025c-.465-.126 1.1-3.673-.56-6.218-.892-1.364-1.867-1.157-2.517-2.548-.905-1.935.601-3.158-.103-4.573-1.1-2.216-6.082-1.837-9.243-1.6-3.252.246-5.14 1.021-6.198 1.543-.887.417-1.719.94-2.479 1.558-3.31 2.892-2.688 8.719-2.06 14.58.578 5.388 1.765 7.98 2.58 9.452.952 1.723 1.708 3.052 3.313 4.052 3.613 2.25 7.877.984 8.84.694a13.5 13.5 0 0 0 5.33-3.24c6.278-6.107 5.63-16.662 4.924-16.814-.401-.086-1.352 3.244-1.827 3.114"/>
        <path fill="#172554" d="M30.51 26.585c-.041 1.096.449 2.004 1.094 2.029s1.2-.845 1.23-1.94c.03-1.096-.445-2.006-1.09-2.03s-1.189.843-1.233 1.941M21.026 26.593c.074 1.093.653 1.947 1.297 1.905.645-.042 1.108-.965 1.037-2.058s-.652-1.95-1.297-1.905-1.108.962-1.037 2.058M30.883 20.23c-.985.093-2.041.617-1.854 1.767.123.76.879.657 1.465.574 1.159-.17 2.328.187 3.465 0 .196-.02.383-.09.544-.202.493-.384.08-.852-.317-1.103a7.1 7.1 0 0 0-1.97-.933 3.8 3.8 0 0 0-1.334-.103M21.74 20.421c-1.164.06-2.215.739-3.037 1.522a.84.84 0 0 0-.313.512.55.55 0 0 0 .29.492c.18.092.378.138.58.133 1.043.03 2.111-.372 3.162-.438.492-.03 1.393.147 1.637-.453.409-1.012-.756-1.56-1.689-1.723a3 3 0 0 0-.63-.045"/>
        <path fill="#FDA894" d="M41.883 24.793s1.381-2.89 3.892-1.91c3.525 1.378 1.558 8.767-2.238 9.774-3.795 1.007-1.654-7.864-1.654-7.864"/>
        <path fill="#BF3131" d="M44.071 26.157a4.13 4.13 0 0 1-.1 4.185c-.247.384-.845.034-.609-.352a3.41 3.41 0 0 0 .104-3.473c-.224-.404.381-.759.605-.36"/>
        <path fill="#172554" d="M23.99 15.606c4.148-.074 8.29-2.774 8.04-4.374-.193-1.23-2.954-1.693-8.37-2.604-5.036-.847-5.504-.222-5.58 0-.234.645 1.617 1.63 1.359 2.215-.382.857-4.123-.536-4.397.067-.327.68 3.742 4.79 8.948 4.696"/>
        <path fill="#000" d="M23.507 15.978h-.33c-4.17-.135-7.63-2.835-8.472-4.184-.229-.367-.29-.66-.185-.894.247-.561 1.231-.42 2.585-.226.615.088 1.605.229 1.945.148a5 5 0 0 0-.606-.601c-.541-.478-1.1-.985-.906-1.507s.879-.67 2.322-.558a.352.352 0 1 1-.055.701c-1.194-.09-1.521.05-1.595.099.057.17.47.536.7.738.523.465 1.02.903.844 1.386-.247.645-1.344.492-2.748.286-.573-.082-1.499-.215-1.816-.148.258.787 3.638 3.914 8.01 4.054 3.47.11 6.107-1.691 7.37-2.78a.351.351 0 0 1 .455.533c-1.297 1.11-3.973 2.953-7.518 2.953"/>
        <path fill="#60A5FA" d="M57.031 53.571c-.246-.064-.492-.118-.738-.175-.401-.098-.793-.182-1.187-.273-.738-.167-1.496-.34-2.252-.492a7195 7195 0 0 0-11.025-3.306 36 36 0 0 0-.675-.204l-1.002-.3s-5.602 3.357-7.936 4.359a5 5 0 0 1-.777.273h-.015a.2.2 0 0 1-.054 0 1 1 0 0 1-.261-.027 2.3 2.3 0 0 1-.357-.133 5 5 0 0 1-.463-.246c-1.795-1.017-4.724-3.653-4.724-3.653l-.962.428-.687.3-9.644 4.276c-.246.081-2.853.958-6.445 2.385l-.91.372c-2.11.857-4.495 1.886-6.893 3.038v3.78h64v-8.598a191 191 0 0 0-6.993-1.804"/>
        <path fill="#000" d="M30.287 53.074c.256.159.532.284.82.372l-6.294 3.232a.352.352 0 0 1-.512-.288l-.387-6.24.687-.3.364 5.964zM41.814 49.337l-4.123 8.588a.38.38 0 0 1-.246.187.3.3 0 0 1-.076 0 .32.32 0 0 1-.217-.076l-5.75-4.579c.273-.061.54-.153.792-.273l5.05 4.032 3.888-8.091c.205.064.429.135.682.212"/>
        <path fill="#fff" d="M33.423 57.596c0 .708-.433 1.284-.965 1.284s-.962-.576-.962-1.285.43-1.285.962-1.285.965.574.965 1.285"/>
        <path fill="#000" d="M30.314 64q.477-5.258 1.11-10.535h-.015a.2.2 0 0 1-.054 0 1 1 0 0 1-.26-.027 2.3 2.3 0 0 1-.358-.133q-.65 5.36-1.127 10.688z"/>
        <path fill="#BF3131" d="M25.435 32.671a.3.3 0 0 1-.091 0q-.482-.126-.953-.295a12 12 0 0 1-.945-.39 1.443 1.443 0 0 1-.665-1.968l2.012-3.828a.352.352 0 0 1 .582-.06.345.345 0 0 1 .04.387l-2.01 3.826a.74.74 0 0 0 .339 1.019c.29.135.588.246.886.367.298.12.593.199.894.275a.35.35 0 0 1 .246.43.35.35 0 0 1-.335.237M26.208 36.787a7.46 7.46 0 0 1-3.606-.943.351.351 0 1 1 .34-.615c.792.442 1.665.72 2.567.817a7.12 7.12 0 0 0 4.443-1.053.351.351 0 1 1 .37.598 7.94 7.94 0 0 1-4.114 1.196"/>
      </g>
    </g>
    <path stroke="#CBD5E1" d="M.5 32C.5 14.603 14.603.5 32 .5S63.5 14.603 63.5 32 49.397 63.5 32 63.5.5 49.397.5 32Z"/>
  </g>
  <defs>
    <clipPath id="a">
      <path fill="#fff" d="M0 0h64v64H0z"/>
    </clipPath>
    <clipPath id="b">
      <path fill="#fff" d="M0 32C0 14.327 14.327 0 32 0s32 14.327 32 32-14.327 32-32 32S0 49.673 0 32"/>
    </clipPath>
    <clipPath id="c">
      <path fill="#fff" d="M0 0h64v64H0z"/>
    </clipPath>
  </defs>
</svg>
