<svg xmlns="http://www.w3.org/2000/svg" width="64" height="64" fill="none" viewBox="0 0 64 64">
  <g clip-path="url(#facial-biometric-top-lefta)">
    <g clip-path="url(#facial-biometric-top-left2b)">
      <g clip-path="url(#facial-biometric-top-left3c)">
        <path fill="#FDA894" d="M0 0h64v64H0z"/>
        <path fill="#fff" d="M64 0H0v64h64z"/>
        <path fill="#FDA894" d="m24.938 36.186 1.263 27.008 14.621.125-1.056-22.592-3.746-1.15z"/>
        <path fill="#60A5FA" d="M57.031 53.57c-.246-.063-.492-.118-.738-.174-.401-.099-.793-.182-1.187-.273-.738-.168-1.496-.34-2.252-.48a7195 7195 0 0 0-11.025-3.306 36 36 0 0 0-.675-.205l-1.002-.3s-5.602 3.358-7.936 4.36a5 5 0 0 1-.777.273h-.015a.2.2 0 0 1-.054 0 1 1 0 0 1-.261-.027 2.4 2.4 0 0 1-.357-.133 5 5 0 0 1-.463-.246c-1.795-1.017-4.724-3.653-4.724-3.653l-.962.428-.687.3-9.644 4.276c-.246.081-2.853.957-6.445 2.385l-.91.372c-2.11.856-4.495 1.885-6.893 3.037v3.781h64v-8.598a170 170 0 0 0-6.993-1.816"/>
        <path fill="#000" d="M30.287 53.072q.385.24.82.372l-6.295 3.232a.352.352 0 0 1-.512-.288l-.386-6.24.686-.3.365 5.964zM41.814 49.348l-4.123 8.589a.38.38 0 0 1-.246.187.3.3 0 0 1-.076 0 .32.32 0 0 1-.217-.077l-5.75-4.578c.273-.061.54-.153.792-.273l5.05 4.032 3.888-8.091a8 8 0 0 1 .682.211"/>
        <path fill="#fff" d="M33.423 57.596c0 .708-.433 1.284-.965 1.284s-.962-.576-.962-1.285.43-1.285.962-1.285.965.574.965 1.285"/>
        <path fill="#000" d="M30.314 64q.477-5.258 1.11-10.535h-.015a.2.2 0 0 1-.054 0 1 1 0 0 1-.26-.027 2.3 2.3 0 0 1-.358-.133q-.65 5.36-1.127 10.688z"/>
        <path fill="#BF3131" d="M25.733 41.607a12.68 12.68 0 0 0 5.24 5.77c2.41 1.408 6.4.866 9.108.246l-.492-17.361-3.57 9.317z"/>
        <path fill="#172554" d="M29.703 36.825c8.547.655 14.706-7.163 16.099-13.805.263-1.247 1.351-6.427-1.605-10.628-5.516-7.838-21.558-7.218-26.622.376-2.023 3.035-1.792 6.415-1.676 7.958.44 5.812 4.542 15.387 13.804 16.099"/>
        <path fill="#000" d="M17.02 26.934a.35.35 0 0 1-.333-.246 16.4 16.4 0 0 1-.815-3.692c-.537-5.307 1.556-11.114 5.09-14.125 2.708-2.31 6.728-3.355 11.001-2.86 4.524.524 8.955 2.708 12.478 6.122a.352.352 0 1 1-.493.505c-7.596-7.385-17.612-7.424-22.535-3.23-3.37 2.868-5.361 8.426-4.847 13.516.123 1.205.385 2.39.78 3.535a.35.35 0 0 1-.219.448.4.4 0 0 1-.108.027"/>
        <path fill="#FDA894" d="M19.382 24.242s-1.494-2.83-3.966-1.75c-3.468 1.514-1.206 8.822 2.627 9.676s1.34-7.926 1.34-7.926"/>
        <path fill="#BF3131" d="M15.658 25.577a4.13 4.13 0 0 0 .268 4.185c.246.374.842 0 .59-.377a3.41 3.41 0 0 1-.245-3.466c.206-.416-.414-.748-.613-.342"/>
        <path fill="#FDA894" d="M40.379 27.775c-.478-.184.153-3.813-.396-5.415-.51-1.477-1.14-1.406-1.443-2.575-.664-2.55 1.787-3.788 1.477-5.878-.475-3.2-6.892-4.923-10.725-5.17-2.813-.174-4.492.446-5.058.678a10.54 10.54 0 0 0-4.091 3.052c-3.4 3.965-3.257 9.393-3.065 16.26.106 3.821.492 6.667 1.846 9.623.817 1.79 1.477 3.173 2.993 4.293 3.43 2.518 7.776 1.59 8.761 1.366a15.4 15.4 0 0 0 5.566-2.818c4.58-3.71 6.646-15.508 5.93-15.72-.353-.098-1.38 2.462-1.795 2.304"/>
        <path fill="#172554" d="M30.533 23.574c-.126 1.09.293 2.033.933 2.107s1.263-.739 1.388-1.839c.126-1.1-.29-2.033-.933-2.107-.642-.074-1.255.75-1.388 1.839M21.073 22.971c0 1.098.493 1.994 1.147 1.999.655.005 1.18-.874 1.192-1.97.012-1.095-.492-1.99-1.147-1.998-.655-.007-1.18.874-1.192 1.97M31.626 16.906c-.985-.14-2.127.12-2.216 1.285-.059.768.702.844 1.29.898 1.17.106 2.216.738 3.368.822.194.026.393.002.576-.069.57-.26.278-.81-.052-1.147a7.1 7.1 0 0 0-1.706-1.371 3.8 3.8 0 0 0-1.26-.418M22.203 16.194c-1.162.06-2.216.739-3.033 1.527a.84.84 0 0 0-.312.512.55.55 0 0 0 .292.492c.178.092.376.138.577.133 1.043.024 2.111-.377 3.163-.446.492-.03 1.393.143 1.634-.455.409-1.012-.756-1.558-1.689-1.723a3 3 0 0 0-.632-.04"/>
        <path fill="#FDA894" d="M41.755 26.055s1.597-2.775 4.027-1.605c3.409 1.642.88 8.861-2.981 9.575-3.862.714-1.046-7.97-1.046-7.97"/>
        <path fill="#BF3131" d="M43.825 27.582a4.14 4.14 0 0 1-.42 4.16c-.264.365-.845-.032-.58-.398a3.41 3.41 0 0 0 .368-3.447c-.182-.42.448-.728.632-.315"/>
        <path fill="#172554" d="M26.102 10.74c4.104.62 8.638-1.35 8.658-2.969.017-1.245-2.627-2.163-7.823-3.968-4.825-1.676-5.389-1.14-5.502-.94-.334.593 1.322 1.876.973 2.4-.52.78-3.976-1.216-4.345-.67-.443.638 2.882 5.371 8.04 6.147"/>
        <path fill="#000" d="M27.279 11.162a10.3 10.3 0 0 1-2.049-.204c-4.086-.83-7.044-4.071-7.652-5.54-.165-.4-.175-.7-.035-.912.342-.514 1.285-.211 2.59.207.59.19 1.54.492 1.89.47a4.7 4.7 0 0 0-.492-.691c-.453-.564-.92-1.145-.64-1.64s.984-.512 2.383-.16a.352.352 0 0 1-.173.682c-1.162-.29-1.509-.207-1.59-.17.027.177.377.608.569.847.438.546.854 1.06.6 1.506-.342.599-1.408.247-2.757-.174-.553-.178-1.442-.468-1.767-.45.123.819 2.934 4.467 7.22 5.336 3.401.69 6.304-.65 7.731-1.51a.35.35 0 0 1 .362.602 12.23 12.23 0 0 1-6.19 1.801"/>
        <path fill="#BF3131" d="M25.927 34.925a8.6 8.6 0 0 1-4.699-1.371.353.353 0 1 1 .382-.594 7.8 7.8 0 0 0 1.743.842c2.299.778 4.452.328 5.853-.184a.35.35 0 1 1 .246.657c-1.128.42-2.32.64-3.525.65M25.713 29.775a.34.34 0 0 1-.184-.054l-2.738-1.723-.039-.055a2.17 2.17 0 0 1-.05-2.545l2.708-3.918a.353.353 0 0 1 .65.128.35.35 0 0 1-.071.27l-2.708 3.92a1.48 1.48 0 0 0 0 1.675l2.622 1.647a.353.353 0 0 1-.187.65z"/>
        <path fill="#BF3131" d="M22.902 29.62a.35.35 0 0 1-.35-.318l-.245-2.523a.351.351 0 1 1 .699-.066l.246 2.52a.354.354 0 0 1-.318.384z"/>
      </g>
    </g>
    <path stroke="#CBD5E1" d="M.5 32C.5 14.603 14.603.5 32 .5S63.5 14.603 63.5 32 49.397 63.5 32 63.5.5 49.397.5 32Z"/>
  </g>
  <defs>
    <clipPath id="facial-biometric-top-lefta">
      <path fill="#fff" d="M0 0h64v64H0z"/>
    </clipPath>
    <clipPath id="facial-biometric-top-left2b">
      <path fill="#fff" d="M0 32C0 14.327 14.327 0 32 0s32 14.327 32 32-14.327 32-32 32S0 49.673 0 32"/>
    </clipPath>
    <clipPath id="facial-biometric-top-left3c">
      <path fill="#fff" d="M0 0h64v64H0z"/>
    </clipPath>
  </defs>
</svg>
