<svg xmlns="http://www.w3.org/2000/svg" width="64" height="64" fill="none" viewBox="0 0 64 64">
  <g clip-path="url(#36a)">
    <g clip-path="url(#37b)">
      <g clip-path="url(#38c)">
        <path fill="#fff" d="M0 64h64V0H0z"/>
        <path fill="#FDA894" d="m24.936 36.182 1.262 27.008 14.624.128-1.056-22.592-3.749-1.152z"/>
        <path fill="#BF3131" d="M25.736 41.605a12.66 12.66 0 0 0 5.238 5.772c2.41 1.408 6.4.866 9.107.246l-.322-6.892-3.749-1.152c-4.578-3.693-8.861-4.645-10.316-3.156-1.233 1.25-.34 4.118.042 5.182"/>
        <path fill="#60A5FA" d="M57.032 53.571c-.246-.064-.505-.12-.751-.175-.399-.098-.793-.182-1.184-.273-.739-.167-1.497-.34-2.252-.492a8164 8164 0 0 0-11.026-3.306 27 27 0 0 0-.672-.204l-1.004-.3s-5.6 3.357-7.934 4.359a4.7 4.7 0 0 1-.78.273h-.012a.2.2 0 0 1-.057 0 1 1 0 0 1-.246-.027 2.4 2.4 0 0 1-.36-.133 4 4 0 0 1-.462-.246c-1.795-1.017-4.724-3.653-4.724-3.653l-.96.428-.686.3-9.647 4.276c-.246.081-2.853.958-6.442 2.385l-.91.372a126 126 0 0 0-6.905 3.038v3.78h64v-8.598a204 204 0 0 0-6.986-1.804"/>
        <path fill="#000" d="M30.272 53.073q.387.24.822.372l-6.297 3.23a.34.34 0 0 1-.458-.119.36.36 0 0 1-.054-.162l-.384-6.24.687-.3.364 5.964zM41.812 49.337l-4.123 8.585a.38.38 0 0 1-.246.19.3.3 0 0 1-.08 0 .33.33 0 0 1-.216-.076L31.4 53.457q.412-.094.793-.273l5.046 4.032 3.892-8.091z"/>
        <path fill="#fff" d="M33.42 57.596c0 .709-.43 1.285-.962 1.285s-.965-.576-.965-1.285.43-1.287.965-1.287.962.576.962 1.287"/>
        <path fill="#000" d="M30.314 64q.472-5.258 1.108-10.535h-.013a.2.2 0 0 1-.056 0 1 1 0 0 1-.247-.027 2.4 2.4 0 0 1-.36-.133 337 337 0 0 0-1.124 10.688z"/>
        <path fill="#172554" d="M50.597 22.553c.206-1.42.64-4.728-1.125-8.054-3.564-6.703-12.83-6.803-13.992-6.818-2.144-.027-8.671-.111-12.521 4.844-3.2 4.108-2.514 9.076-2.351 10.272.886 6.486 6.4 14.944 15.116 14.873 9.278-.077 14.024-9.35 14.873-15.117"/>
        <path fill="#000" d="M49.068 28.67a.35.35 0 0 1-.327-.476c.428-1.14.77-2.31 1.026-3.5.493-2.338 1.073-4.987.303-7.63-.861-2.974-3.062-4.697-4.374-5.726A16.866 16.866 0 0 0 22.9 13.18a.35.35 0 0 1-.501.009.354.354 0 0 1-.009-.501 17.566 17.566 0 0 1 23.74-1.915c1.38 1.083 3.691 2.895 4.615 6.083.82 2.823.204 5.686-.291 7.985a25.4 25.4 0 0 1-1.056 3.598.35.35 0 0 1-.33.23"/>
        <path fill="#FDA894" d="M49.245 26.044c.114-.367.547-1.674 1.175-1.696.679-.022 1.349 1.477 1.504 2.67.386 3.006-2.132 6.514-4.786 6.807-.43.047-.888.098-1.166-.185-.933-.95 1.228-4.583 3.273-7.596"/>
        <path fill="#BF3131" d="M49.967 27.402a4.13 4.13 0 0 1-.552 4.145c-.273.355-.842-.059-.563-.416a3.41 3.41 0 0 0 .475-3.446c-.17-.413.47-.701.64-.283"/>
        <path fill="#FDA894" d="M25.012 29.632c.556.11 1.646-1.852 2.114-3.86.835-3.574-.825-4.972.246-7.34.84-1.844 2.649-2.696 3.86-3.267 1.839-.866 3.48-.844 6.757-.822 2.17.015 3.995.044 6.257.817 1.09.372 2.215.756 3.11 1.477 2.933 2.346 2.38 7.385 1.513 15.304-.492 4.47-1.167 7.012-2.501 9.474-.94 1.723-1.686 3.065-3.281 4.076-3.594 2.28-7.877 1.056-8.835.766a15.3 15.3 0 0 1-5.359-3.2c-3.276-3.087-4.184-7.286-4.487-8.756-.95-4.445-.125-8.217.012-8.214.138.002-.105 3.402.594 3.545"/>
        <path fill="#172554" d="M35.828 29.798c.051 1.098-.431 2.009-1.074 2.04-.642.032-1.208-.834-1.26-1.93-.052-1.095.43-2.008 1.076-2.04.645-.032 1.208.835 1.258 1.93M45.314 29.845c-.064 1.095-.637 1.952-1.28 1.915-.642-.037-1.117-.955-1.053-2.048s.635-1.955 1.28-1.918 1.115.955 1.053 2.05M34.105 24.67a7.1 7.1 0 0 0-1.97.95c-.396.246-.807.723-.31 1.105a1.2 1.2 0 0 0 .55.197c1.134.167 2.3-.2 3.463-.04.585.082 1.344.178 1.46-.583.177-1.152-.887-1.669-1.869-1.752a3.8 3.8 0 0 0-1.324.123M43.928 24.618c-.932.165-2.092.724-1.673 1.723.246.596 1.147.414 1.639.438 1.051.057 2.124.45 3.165.414.201.003.4-.046.577-.14a.56.56 0 0 0 .29-.493.84.84 0 0 0-.32-.507c-.822-.78-1.883-1.447-3.047-1.496q-.319-.001-.63.061"/>
        <path fill="#FDA894" d="M24.426 26.089s-1.403-2.877-3.907-1.878c-3.515 1.405-1.477 8.78 2.32 9.757 3.795.978 1.587-7.879 1.587-7.879"/>
        <path fill="#BF3131" d="M22.257 27.47a4.13 4.13 0 0 0 .135 4.185c.247.382.842.027.604-.357a3.42 3.42 0 0 1-.131-3.473c.212-.403-.396-.753-.608-.354"/>
        <path fill="#172554" d="M39.766 19.875c6.112-.68 10.962-7.045 9.935-9.032-.738-1.442-4.677-.716-10.83.426-4.326.803-5.773 1.608-5.812 2.368-.045.871 1.787 1.465 1.612 2.028-.278.896-4.158-.044-4.357.586-.224.692 4.382 4.185 9.452 3.624"/>
        <path fill="#000" d="M38.028 20.375c-3.712 0-6.983-2.026-7.923-3.178-.284-.347-.384-.635-.306-.886.183-.586 1.172-.564 2.54-.532.621.015 1.62.04 1.948-.084a5 5 0 0 0-.672-.524c-.593-.411-1.209-.837-1.078-1.388.13-.552.792-.768 2.24-.83a.354.354 0 0 1 .273.59.35.35 0 0 1-.244.112c-1.199.051-1.506.231-1.575.288.076.162.534.477.782.652.579.399 1.12.778 1.005 1.277-.158.67-1.278.643-2.696.608-.578 0-1.516-.034-1.821.07.345.765 4.074 3.505 8.43 3.076 3.275-.322 5.438-2.25 7.019-3.658 3.704-3.3 3.635-4.57 3.433-4.964-.389-.759-2.51-1.076-5.811-.215a.352.352 0 0 1-.178-.679c2.57-.672 5.847-.926 6.615.574.617 1.206-.557 3.106-3.592 5.809-1.558 1.388-3.914 3.488-7.416 3.832a10 10 0 0 1-.973.05"/>
        <path fill="#BF3131" d="M41.807 37.373c-.552 0-1.27-.246-2.164-.76a.35.35 0 0 1-.154-.492.35.35 0 0 1 .501-.12c1.553.882 2.053.663 2.171.574.596-.45.099-2.695-1.23-5.585a.352.352 0 1 1 .637-.295c2.04 4.43 1.681 5.942 1.022 6.442a1.26 1.26 0 0 1-.783.236M40.162 40.812a7.94 7.94 0 0 1-4.064-1.165.35.35 0 1 1 .365-.598 7.12 7.12 0 0 0 4.453 1.017c.9-.105 1.77-.39 2.56-.837a.352.352 0 0 1 .52.263.35.35 0 0 1-.176.347 7.35 7.35 0 0 1-3.658.973"/>
      </g>
    </g>
    <path stroke="#CBD5E1" d="M.5 32C.5 14.603 14.603.5 32 .5S63.5 14.603 63.5 32 49.397 63.5 32 63.5.5 49.397.5 32Z"/>
  </g>
  <defs>
    <clipPath id="36a">
      <path fill="#fff" d="M0 0h64v64H0z"/>
    </clipPath>
    <clipPath id="37b">
      <path fill="#fff" d="M0 32C0 14.327 14.327 0 32 0s32 14.327 32 32-14.327 32-32 32S0 49.673 0 32"/>
    </clipPath>
    <clipPath id="38c">
      <path fill="#fff" d="M0 0h64v64H0z"/>
    </clipPath>
  </defs>
</svg>
