<svg xmlns="http://www.w3.org/2000/svg" width="64" height="64" fill="none" viewBox="0 0 64 64">
  <g clip-path="url(#a)">
    <g clip-path="url(#b)">
      <g clip-path="url(#c)">
        <path fill="#fff" d="M0 64h64V0H0z"/>
        <path fill="#FDA894" d="m24.936 36.186 1.262 27.008 14.624.125-1.058-22.592-3.747-1.15z"/>
        <path fill="#BF3131" d="M25.74 41.607a12.67 12.67 0 0 0 5.238 5.772c2.41 1.406 6.4.864 9.108.246l-.322-6.892-3.747-1.15c-4.544-3.34-8.768-3.908-10.174-2.32-1.088 1.235-.35 3.642-.103 4.344"/>
        <path fill="#60A5FA" d="M57.031 53.571c-.246-.064-.507-.118-.75-.175-.4-.098-.793-.182-1.184-.273-.739-.167-1.5-.34-2.253-.492a8164 8164 0 0 0-11.025-3.306 36 36 0 0 0-.674-.204l-1.002-.3s-5.6 3.357-7.936 4.359q-.377.17-.778.273h-.027a.2.2 0 0 1-.057 0 1 1 0 0 1-.26-.027 2.4 2.4 0 0 1-.358-.133 4 4 0 0 1-.462-.246c-1.795-1.017-4.724-3.653-4.724-3.653l-.96.428-.687.3-9.647 4.276c-.246.081-2.852.958-6.441 2.385l-.914.372A123 123 0 0 0 0 60.193v3.78h64v-8.598a173 173 0 0 0-6.969-1.804"/>
        <path fill="#000" d="M30.272 53.073c.256.158.532.283.82.371l-6.295 3.232a.35.35 0 0 1-.337 0 .36.36 0 0 1-.175-.28l-.384-6.24.687-.3.364 5.964zM41.812 49.337l-4.123 8.588a.38.38 0 0 1-.246.187.3.3 0 0 1-.077 0 .33.33 0 0 1-.216-.076l-5.748-4.579q.41-.093.79-.273l5.049 4.032 3.889-8.091c.204.064.428.135.682.212"/>
        <path fill="#fff" d="M33.435 57.654c0 .709-.43 1.285-.965 1.285s-.962-.576-.962-1.285.43-1.285.962-1.285.965.574.965 1.285"/>
        <path fill="#000" d="M30.311 64a358 358 0 0 1 1.11-10.535h-.02a.2.2 0 0 1-.056 0 1 1 0 0 1-.26-.027 2.4 2.4 0 0 1-.358-.133 340 340 0 0 0-1.125 10.688z"/>
        <path fill="#172554" d="M50.326 22.915c.219-1.418.68-4.724-1.061-8.062-2.683-5.152-8.994-7.291-13.932-6.934-6.893.492-14.996 6.114-14.996 14.996A14.995 14.995 0 0 0 35.34 37.91c9.28 0 14.102-9.233 14.986-14.995"/>
        <path fill="#000" d="M48.763 29.024a.36.36 0 0 1-.252-.107.35.35 0 0 1-.07-.383c.482-1.11.834-2.273 1.048-3.465 1.098-6.117-1.193-11.464-3.788-13.84-2.338-2.143-5.925-3.16-9.846-2.793-4.21.396-8.37 2.34-11.741 5.477a.356.356 0 0 1-.493-.515c3.476-3.241 7.793-5.252 12.158-5.661 4.108-.387 7.891.699 10.375 2.973 1.723 1.578 3 3.885 3.692 6.671.642 2.554.746 5.214.303 7.81a16.5 16.5 0 0 1-1.095 3.622.35.35 0 0 1-.29.211"/>
        <path fill="#FDA894" d="M46.584 26.868s1.709-2.707 4.089-1.444c3.34 1.777.53 8.888-3.36 9.45-3.89.56-.729-8.006-.729-8.006"/>
        <path fill="#BF3131" d="M50.196 28.476a4.13 4.13 0 0 1-.584 4.138c-.278.354-.842-.064-.561-.421a3.41 3.41 0 0 0 .492-3.447c-.157-.408.485-.691.653-.27"/>
        <path fill="#FDA894" d="M25.381 28.07c.465-.126-1.1-3.673.561-6.218.891-1.364 1.866-1.16 2.516-2.548.906-1.935-.6-3.158.103-4.573 1.1-2.216 6.083-1.837 9.243-1.6 3.25.246 5.14 1.019 6.196 1.543.888.416 1.72.94 2.481 1.558 3.311 2.892 2.688 8.716 2.06 14.58-.578 5.386-1.764 7.98-2.579 9.452-.953 1.723-1.708 3.052-3.313 4.052-3.614 2.25-7.877.984-8.84.691a13.46 13.46 0 0 1-5.331-3.236c-6.277-6.108-5.63-16.663-4.923-16.815.4-.086 1.354 3.242 1.826 3.114"/>
        <path fill="#172554" d="M35.51 27.626c.042 1.098-.446 2.006-1.09 2.03-.646.025-1.202-.844-1.244-1.94-.041-1.095.446-2.005 1.09-2.03.646-.025 1.202.844 1.244 1.94M44.997 27.636c-.074 1.093-.652 1.947-1.297 1.905s-1.108-.965-1.037-2.058.653-1.95 1.298-1.907c.645.041 1.107.965 1.036 2.06M33.817 21.394c-.7.208-1.365.523-1.97.933-.396.246-.812.716-.317 1.102.161.113.348.182.544.202 1.137.178 2.306-.18 3.466 0 .586.087 1.341.19 1.464-.57.187-1.15-.873-1.675-1.853-1.768a3.8 3.8 0 0 0-1.334.1M43.653 21.51c-.933.157-2.097.706-1.688 1.722.246.598 1.144.424 1.636.453 1.051.067 2.12.468 3.163.438.201.005.4-.04.579-.133a.55.55 0 0 0 .29-.492.85.85 0 0 0-.312-.51c-.817-.787-1.873-1.462-3.038-1.52a3 3 0 0 0-.63.041"/>
        <path fill="#FDA894" d="M24.14 25.823s-1.38-2.887-3.894-1.907c-3.522 1.376-1.556 8.768 2.24 9.775s1.654-7.868 1.654-7.868"/>
        <path fill="#BF3131" d="M21.96 27.197a4.13 4.13 0 0 0 .1 4.185c.247.384.845.034.606-.352a3.42 3.42 0 0 1-.1-3.473c.22-.402-.39-.749-.607-.36M40.588 33.716a.352.352 0 0 1-.088-.691q.452-.119.893-.276c.293-.106.598-.231.884-.367a.74.74 0 0 0 .342-1.019l-2.011-3.815a.352.352 0 0 1 .623-.328l2.01 3.826a1.44 1.44 0 0 1 .09 1.137 1.43 1.43 0 0 1-.756.847 11.3 11.3 0 0 1-1.896.684.4.4 0 0 1-.09.002M39.815 37.83a7.93 7.93 0 0 1-4.115-1.198.35.35 0 0 1-.036-.601.35.35 0 0 1 .407.005 7.12 7.12 0 0 0 4.443 1.054 6.75 6.75 0 0 0 2.568-.817.353.353 0 1 1 .34.615 7.5 7.5 0 0 1-3.607.943"/>
        <path fill="#172554" d="M42.693 15.04c4.147-.076 8.288-2.774 8.039-4.376-.192-1.231-2.954-1.691-8.37-2.605-5.035-.846-5.503-.221-5.58 0-.233.643 1.618 1.63 1.36 2.216-.382.857-4.124-.537-4.397.064-.327.684 3.742 4.793 8.948 4.701"/>
        <path fill="#000" d="M42.21 15.405h-.33c-4.17-.133-7.63-2.833-8.472-4.185-.23-.367-.29-.66-.185-.893.246-.562 1.23-.421 2.585-.23.615.09 1.605.232 1.942.15a4.6 4.6 0 0 0-.603-.6c-.542-.492-1.1-.984-.906-1.509s.879-.667 2.321-.556a.35.35 0 0 1 .2.615.36.36 0 0 1-.254.086c-1.196-.093-1.521.05-1.598.099.057.167.473.537.702.738.524.466 1.02.906.844 1.389-.246.645-1.344.492-2.747.285-.573-.081-1.499-.216-1.816-.148.258.788 3.638 3.914 8.01 4.055 3.463.11 6.107-1.694 7.37-2.78a.352.352 0 0 1 .457.532c-1.3 1.113-3.978 2.952-7.52 2.952"/>
      </g>
    </g>
    <path stroke="#CBD5E1" d="M.5 32C.5 14.603 14.603.5 32 .5S63.5 14.603 63.5 32 49.397 63.5 32 63.5.5 49.397.5 32Z"/>
  </g>
  <defs>
    <clipPath id="a">
      <path fill="#fff" d="M0 0h64v64H0z"/>
    </clipPath>
    <clipPath id="b">
      <path fill="#fff" d="M0 32C0 14.327 14.327 0 32 0s32 14.327 32 32-14.327 32-32 32S0 49.673 0 32"/>
    </clipPath>
    <clipPath id="c">
      <path fill="#fff" d="M0 0h64v64H0z"/>
    </clipPath>
  </defs>
</svg>
