<svg xmlns="http://www.w3.org/2000/svg" width="64" height="64" fill="none" viewBox="0 0 64 64">
  <g clip-path="url(#39a)">
    <g clip-path="url(#40b)">
      <g clip-path="url(#41c)">
        <path fill="#fff" d="M0 0h64v64H0z"/>
        <path fill="#fff" d="M64 0H0v64h64z"/>
        <path fill="#172554" d="M30.287 35.952c8.704-.493 13.671-9.275 14.142-15.803.088-1.207.45-6.206-2.996-10.093-4.155-4.701-10.669-4.204-12.8-4.042-1.16.089-10.4.778-13.539 7.695-1.553 3.43-.91 6.703-.615 8.108 1.201 5.694 6.528 14.647 15.808 14.135"/>
        <path fill="#000" d="M16.36 27.816a.35.35 0 0 1-.313-.192 15.3 15.3 0 0 1-1.295-3.56c-1.137-4.972.263-10.83 3.404-14.276 2.445-2.671 6.334-4.222 10.666-4.259h.155c4.537 0 9.145 1.637 12.992 4.618a.352.352 0 0 1-.43.556c-3.725-2.887-8.18-4.472-12.554-4.472h-.15c-4.138.032-7.84 1.501-10.154 4.027-2.994 3.271-4.325 8.879-3.237 13.642.269 1.178.682 2.32 1.23 3.397a.35.35 0 0 1-.152.472.4.4 0 0 1-.163.047"/>
        <path fill="#FDA894" d="M18.92 24.802s-1.854-2.61-4.16-1.214c-3.237 1.957-.037 8.904 3.876 9.248 3.914.345.283-8.034.283-8.034"/>
        <path fill="#BF3131" d="M15.404 26.61a4.13 4.13 0 0 0 .813 4.099c.298.337.837-.111.536-.451a3.41 3.41 0 0 1-.691-3.404c.142-.429-.512-.675-.658-.244"/>
        <path fill="#FDA894" d="m24.938 36.182 1.263 27.008 14.621.128-1.056-22.592-3.746-1.152z"/>
        <path fill="#BF3131" d="M25.733 41.604a12.68 12.68 0 0 0 5.24 5.773c2.41 1.408 6.4.866 9.108.246l-.492-17.361-3.57 9.314z"/>
        <path fill="#FDA894" d="M40.453 27.25c-.55.148-1.763-1.743-2.358-3.72-1.059-3.512.51-5.014-.72-7.308-.954-1.787-2.813-2.52-4.056-3.013-2.397-.95-4.48-.75-6.796-.393-1.297.201-3.587.46-6.102 1.883a12 12 0 0 0-2.39 1.693c-3.146 3.07-2.201 8.862-1.25 14.67.875 5.347 2.202 7.878 3.096 9.298 1.048 1.667 1.875 2.954 3.535 3.86 3.729 2.048 7.916.554 8.861.204a15.2 15.2 0 0 0 5.145-3.527c3.074-3.286 3.704-7.537 3.923-9.022.665-4.497-.396-8.209-.534-8.197s.332 3.385-.354 3.572"/>
        <path fill="#172554" d="M29.667 28.102c.02 1.098.556 1.97 1.2 1.97.646 0 1.155-.91 1.136-2.007-.02-1.098-.557-1.97-1.202-1.97s-1.154.911-1.134 2.007M20.194 28.748c.13 1.09.759 1.91 1.399 1.831s1.053-1.024.92-2.112-.758-1.91-1.398-1.83c-.64.078-1.044 1.023-.92 2.111M29.745 22.836c-.972.146-2 .727-1.752 1.866.165.753.913.608 1.494.492 1.15-.233 2.336.06 3.46-.18.194-.03.377-.11.532-.23.473-.414.032-.857-.379-1.086a7.2 7.2 0 0 0-2.025-.822 3.8 3.8 0 0 0-1.33-.04M20.623 23.436c-1.16.123-2.176.857-2.954 1.686a.83.83 0 0 0-.286.527.55.55 0 0 0 .318.473c.183.081.383.116.583.1 1.044-.029 2.09-.492 3.136-.612.492-.057 1.398.069 1.607-.542.352-1.034-.839-1.516-1.78-1.622a3 3 0 0 0-.624-.01"/>
        <path fill="#FDA894" d="M40.81 23.678s1.218-2.954 3.78-2.122c3.597 1.181 2.04 8.67-1.695 9.883-3.734 1.214-2.085-7.761-2.085-7.761"/>
        <path fill="#BF3131" d="M43.062 24.918a4.13 4.13 0 0 1 .13 4.185c-.214.396-.839.081-.625-.318a3.42 3.42 0 0 0-.089-3.473c-.238-.391.348-.778.584-.394"/>
        <path fill="#172554" d="M22.656 19.607c6.154-.29 11.387-6.336 10.489-8.384-.653-1.477-4.61-1.01-10.831-.261-4.37.526-5.863 1.23-5.95 1.994-.098.866 1.692 1.575 1.477 2.126-.332.877-4.145-.305-4.386.308-.256.68 4.12 4.455 9.201 4.217"/>
        <path fill="#000" d="M21.64 20.012c-4.072 0-7.558-2.436-8.456-3.712-.246-.354-.328-.642-.246-.883.219-.574 1.206-.493 2.57-.37.617.055 1.614.143 1.947.042a4.4 4.4 0 0 0-.638-.566c-.566-.448-1.15-.913-.985-1.455.165-.541.842-.713 2.287-.686a.352.352 0 0 1 0 .704c-1.201-.027-1.516.133-1.587.187.066.165.492.51.738.699.549.436 1.068.847.918 1.339-.2.657-1.314.559-2.727.438-.576-.052-1.51-.133-1.822-.05.303.774 3.852 3.713 8.222 3.607 3.47-.079 6.003-2.028 7.205-3.183a.353.353 0 1 1 .492.507c-1.275 1.231-3.968 3.294-7.675 3.378z"/>
        <path fill="#60A5FA" d="M57.031 53.571q-.369-.094-.738-.175c-.401-.098-.793-.182-1.187-.273-.738-.167-1.496-.34-2.252-.492a7195 7195 0 0 0-11.025-3.306 24 24 0 0 0-.675-.204l-1.002-.3s-5.602 3.357-7.936 4.359a5 5 0 0 1-.777.273h-.015a.2.2 0 0 1-.054 0 1 1 0 0 1-.261-.027 2.3 2.3 0 0 1-.357-.133 5 5 0 0 1-.463-.246c-1.795-1.017-4.724-3.653-4.724-3.653l-.962.428-.687.3-9.644 4.276c-.246.081-2.853.958-6.445 2.385l-.91.372c-2.11.857-4.495 1.886-6.893 3.038v3.78h64v-8.598a214 214 0 0 0-6.993-1.804"/>
        <path fill="#000" d="M30.287 53.073c.256.159.532.284.82.372l-6.294 3.23a.34.34 0 0 1-.46-.119.35.35 0 0 1-.052-.162l-.387-6.24.687-.3.364 5.964zM41.814 49.337l-4.123 8.585a.38.38 0 0 1-.246.19.3.3 0 0 1-.076 0 .32.32 0 0 1-.217-.076l-5.75-4.579c.273-.061.54-.153.792-.273l5.05 4.032 3.888-8.091z"/>
        <path fill="#fff" d="M33.423 57.596c0 .709-.433 1.285-.965 1.285s-.962-.576-.962-1.285.43-1.287.962-1.287.965.576.965 1.287"/>
        <path fill="#000" d="M30.314 64q.477-5.258 1.11-10.535h-.015a.2.2 0 0 1-.054 0 1 1 0 0 1-.26-.027 2.3 2.3 0 0 1-.358-.133q-.65 5.355-1.127 10.688z"/>
        <path fill="#BF3131" d="M24.072 36.045a1.2 1.2 0 0 1-.682-.192c-.692-.456-1.145-1.952.61-6.491a.352.352 0 1 1 .655.246c-1.15 2.969-1.502 5.24-.879 5.661.123.082.638.271 2.132-.709a.35.35 0 0 1 .384.586c-.928.601-1.652.899-2.22.899M25.578 39.383h-.372a7.5 7.5 0 0 1-2.877-.739.354.354 0 0 1-.082-.58.35.35 0 0 1 .387-.052 6.8 6.8 0 0 0 2.61.674 7.14 7.14 0 0 0 4.376-1.3.352.352 0 0 1 .401.577 7.88 7.88 0 0 1-4.443 1.42"/>
      </g>
    </g>
    <path stroke="#CBD5E1" d="M.5 32C.5 14.603 14.603.5 32 .5S63.5 14.603 63.5 32 49.397 63.5 32 63.5.5 49.397.5 32Z"/>
  </g>
  <defs>
    <clipPath id="39a">
      <path fill="#fff" d="M0 0h64v64H0z"/>
    </clipPath>
    <clipPath id="40b">
      <path fill="#fff" d="M0 32C0 14.327 14.327 0 32 0s32 14.327 32 32-14.327 32-32 32S0 49.673 0 32"/>
    </clipPath>
    <clipPath id="41c">
      <path fill="#fff" d="M0 0h64v64H0z"/>
    </clipPath>
  </defs>
</svg>
