<svg xmlns="http://www.w3.org/2000/svg" width="83" height="74" fill="none" viewBox="0 0 83 74">
  <path fill="url(#faded-logoa)" fill-rule="evenodd" d="M35.551 9.087a32 32 0 0 0-16.426 8.616 3.7 3.7 0 0 1-2.668 1.05 3.76 3.76 0 0 1-2.633-1.172 3.87 3.87 0 0 1-1.064-2.71 3.82 3.82 0 0 1 1.122-2.673A39.6 39.6 0 0 1 32.53 1.915a39.5 39.5 0 0 1 21.26.889 40.4 40.4 0 0 1 17.888 11.81 41.3 41.3 0 0 1 9.479 19.405 116.2 116.2 0 0 1 1.042 37.929c-.055.508-.21.998-.455 1.443a3.8 3.8 0 0 1-.974 1.144 3.71 3.71 0 0 1-4.238.234 3.8 3.8 0 0 1-1.104-1.03 3.88 3.88 0 0 1-.67-2.9 108.5 108.5 0 0 0-.978-35.4 33.6 33.6 0 0 0-4.83-11.971 33.2 33.2 0 0 0-8.96-9.212 32.5 32.5 0 0 0-11.728-5.05 32.1 32.1 0 0 0-12.71-.119M9.527 24.038a3.82 3.82 0 0 1 2.05 2.063c.389.935.397 1.986.022 2.922a33.34 33.34 0 0 0-1.752 18.73A41.08 41.08 0 0 1 7.69 70.796a3.76 3.76 0 0 1-2.017 2.072 3.7 3.7 0 0 1-2.877.007 3.82 3.82 0 0 1-2.052-2.062 3.88 3.88 0 0 1-.025-2.923 33.34 33.34 0 0 0 1.75-18.714c-1.55-8.053-.654-16.006 2.165-23.058.185-.464.458-.886.804-1.241a3.694 3.694 0 0 1 4.09-.838m29.511 3.155a14.8 14.8 0 0 0-5.47 2.256 15 15 0 0 0-4.177 4.233 15.3 15.3 0 0 0-2.235 5.551 15.5 15.5 0 0 0 .053 6.012c2.391 13.3.169 27.001-6.289 38.765a3.74 3.74 0 0 1-2.249 1.75 3.72 3.72 0 0 1-2.823-.357 3.865 3.865 0 0 1-1.503-5.132c5.734-10.443 7.625-22.635 5.338-34.412a6 6 0 0 1-.06-.414c-.91-5.896.476-11.906 3.865-16.753 3.39-4.848 8.514-8.15 14.285-9.204s11.734.22 16.62 3.555c4.888 3.334 8.315 8.465 9.552 14.301l.143.74.261 1.49a3.85 3.85 0 0 1-.633 2.848 3.72 3.72 0 0 1-2.433 1.545 3.73 3.73 0 0 1-2.806-.66 3.86 3.86 0 0 1-1.537-2.482c-.091-.553-.192-1.099-.292-1.645a15.4 15.4 0 0 0-6.403-9.652 14.9 14.9 0 0 0-11.206-2.335m2.052 10.653a3.72 3.72 0 0 1 2.82.596c.827.57 1.4 1.45 1.591 2.444 3.382 17.556.66 34.86-6.662 49.642-.216.456-.52.862-.893 1.197a3.71 3.71 0 0 1-2.751.936 3.7 3.7 0 0 1-1.43-.407 3.8 3.8 0 0 1-1.168-.935 3.87 3.87 0 0 1-.89-2.816c.042-.505.183-.995.415-1.443 6.846-13.794 8.958-29.54 6.002-44.753a3.85 3.85 0 0 1 .57-2.86 3.73 3.73 0 0 1 2.396-1.601m20.918 15.152a3.76 3.76 0 0 1 2.647 1.159 3.87 3.87 0 0 1 1.077 2.715 97.2 97.2 0 0 1-5.473 31.346 3.8 3.8 0 0 1-.73 1.32 3.695 3.695 0 0 1-4.107 1.082 3.8 3.8 0 0 1-1.282-.79 3.886 3.886 0 0 1-.961-4.21 89.5 89.5 0 0 0 5.04-28.862 3.82 3.82 0 0 1 1.123-2.682 3.7 3.7 0 0 1 2.666-1.078" clip-rule="evenodd"/>
  <defs>
    <linearGradient id="faded-logoa" x1="-2.3" x2="82.148" y1="55.435" y2="39.17" gradientUnits="userSpaceOnUse">
      <stop stop-color="#DBEAFE"/>
      <stop offset="1" stop-color="#93C5FD"/>
    </linearGradient>
  </defs>
</svg>
