<svg xmlns="http://www.w3.org/2000/svg" width="260" height="260" fill="none" viewBox="0 0 260 260">
  <path fill="#DBEAFE" d="M0 0h260v260H0z"/>
  <mask id="fence-avatara" width="220" height="220" x="20" y="20" maskUnits="userSpaceOnUse" style="mask-type:alpha">
    <circle cx="130" cy="130" r="110" fill="#D9D9D9"/>
  </mask>
  <g fill="#fff" mask="url(#fence-avatara)">
    <path d="M-185.557 88.76c-2.795-1.878-2.79-4.914.012-6.782l55.249-36.833c2.802-1.868 7.339-1.86 10.135.017L57.826 164.706c2.795 1.877 2.79 4.913-.012 6.781L2.564 208.32c-2.801 1.868-7.339 1.86-10.134-.017z"/>
    <path fill-rule="evenodd" d="m-128.127 46.602-55.249 36.833c-1.601 1.067-1.604 2.802-.006 3.875L-5.396 206.853c1.598 1.073 4.19 1.078 5.792.01l55.249-36.833c1.6-1.067 1.604-2.802.006-3.875L-122.335 46.612c-1.598-1.073-4.191-1.077-5.792-.01m-57.418 35.376c-2.802 1.868-2.807 4.904-.012 6.781L-7.57 208.303c2.795 1.877 7.333 1.885 10.135.017l55.249-36.833c2.802-1.868 2.807-4.904.011-6.781L-120.16 45.162c-2.796-1.877-7.333-1.885-10.135-.017z" clip-rule="evenodd"/>
    <path d="M-103.175 33.839c-2.795-1.878-2.79-4.914.012-6.782l55.249-36.833c2.802-1.868 7.34-1.86 10.135.018l177.986 119.543c2.796 1.877 2.791 4.914-.011 6.781l-55.25 36.833c-2.801 1.868-7.339 1.86-10.134-.017z"/>
    <path fill-rule="evenodd" d="m-45.745-8.319-55.249 36.833c-1.601 1.067-1.604 2.802-.007 3.875L76.986 151.932c1.597 1.073 4.19 1.078 5.791.01l55.25-36.832c1.601-1.068 1.604-2.803.006-3.876L-39.954-8.309c-1.597-1.073-4.19-1.077-5.79-.01m-57.418 35.376c-2.802 1.868-2.807 4.904-.012 6.782L74.812 153.382c2.795 1.877 7.333 1.885 10.135.017l55.249-36.833c2.802-1.867 2.807-4.904.011-6.781L-37.779-9.758c-2.796-1.878-7.333-1.886-10.135-.018z" clip-rule="evenodd"/>
    <path d="M61.587-76.003c-2.795-1.878-2.79-4.914.012-6.782l55.249-36.833c2.802-1.868 7.339-1.86 10.135.018L304.97-.057c2.795 1.878 2.79 4.914-.012 6.782l-55.249 36.832c-2.802 1.868-7.339 1.86-10.135-.017z"/>
    <path fill-rule="evenodd" d="M119.017-118.161 63.768-81.328c-1.6 1.067-1.604 2.802-.006 3.875L241.748 42.091c1.598 1.072 4.191 1.077 5.792.01l55.249-36.833c1.601-1.068 1.604-2.803.006-3.875L124.809-118.151c-1.598-1.073-4.191-1.077-5.792-.01M61.599-82.785c-2.802 1.868-2.807 4.904-.012 6.782L239.574 43.54c2.796 1.877 7.333 1.885 10.135.017l55.249-36.832c2.802-1.868 2.807-4.904.012-6.782L126.983-119.6c-2.796-1.878-7.333-1.886-10.135-.018z" clip-rule="evenodd"/>
    <path d="M19.5 226.484c-2.795-1.877-2.79-4.914.012-6.781L74.76 182.87c2.802-1.868 7.34-1.86 10.135.017l27.159 18.242c2.796 1.878 2.791 4.914-.011 6.782l-55.25 36.832c-2.801 1.868-7.339 1.861-10.134-.017z"/>
    <path fill-rule="evenodd" d="M76.93 184.327 21.68 221.16c-1.6 1.067-1.603 2.802-.006 3.875l27.16 18.242c1.598 1.072 4.19 1.077 5.791.01l55.25-36.833c1.601-1.068 1.604-2.803.006-3.875l-27.16-18.242c-1.597-1.073-4.19-1.078-5.791-.01m-57.418 35.376c-2.802 1.867-2.807 4.904-.012 6.781l27.16 18.242c2.795 1.878 7.333 1.885 10.135.017l55.249-36.832c2.802-1.868 2.807-4.904.011-6.782l-27.16-18.242c-2.795-1.877-7.332-1.885-10.134-.017z" clip-rule="evenodd"/>
    <path d="M101.881 171.563c-2.795-1.878-2.79-4.914.012-6.782l55.249-36.833c2.802-1.867 7.339-1.86 10.135.018l76.306 51.25c2.795 1.878 2.79 4.914-.012 6.782l-55.249 36.832c-2.802 1.868-7.339 1.861-10.135-.017z"/>
    <path fill-rule="evenodd" d="m159.311 129.405-55.249 36.833c-1.601 1.068-1.604 2.803-.006 3.875l76.305 51.251c1.598 1.072 4.191 1.077 5.792.009l55.249-36.832c1.601-1.068 1.604-2.803.006-3.876l-76.305-51.25c-1.598-1.073-4.191-1.077-5.792-.01m-57.418 35.376c-2.802 1.868-2.807 4.904-.012 6.782l76.306 51.25c2.796 1.878 7.333 1.885 10.135.017l55.249-36.832c2.802-1.868 2.807-4.904.012-6.782l-76.306-51.25c-2.796-1.878-7.333-1.885-10.135-.018z" clip-rule="evenodd"/>
    <path d="M205.257 240.994c-2.796-1.877-2.79-4.913.011-6.781l55.25-36.833c2.801-1.868 7.339-1.86 10.134.018L429.15 303.851c2.796 1.878 2.79 4.914-.011 6.782l-55.25 36.833c-2.801 1.868-7.339 1.86-10.134-.018z"/>
    <path fill-rule="evenodd" d="m262.687 198.837-55.249 36.833c-1.601 1.067-1.604 2.802-.007 3.875l158.498 106.454c1.597 1.073 4.19 1.077 5.791.01l55.249-36.833c1.601-1.067 1.604-2.802.007-3.875L268.478 198.847c-1.597-1.073-4.19-1.077-5.791-.01m-57.419 35.376c-2.801 1.868-2.807 4.904-.011 6.781l158.498 106.454c2.795 1.878 7.333 1.886 10.134.018l55.25-36.833c2.801-1.868 2.807-4.904.011-6.782L270.652 197.398c-2.795-1.878-7.333-1.886-10.134-.018z" clip-rule="evenodd"/>
    <path d="M73.73 262.907c-2.796-1.878-2.79-4.914.011-6.782l55.249-36.833c2.802-1.867 7.34-1.86 10.135.018l207.644 139.462c2.795 1.878 2.79 4.914-.012 6.782l-55.249 36.832c-2.802 1.868-7.339 1.861-10.135-.017z"/>
    <path fill-rule="evenodd" d="m131.16 220.749-55.25 36.833c-1.6 1.068-1.604 2.803-.006 3.875L283.547 400.92c1.598 1.072 4.191 1.077 5.792.009l55.249-36.832c1.601-1.068 1.604-2.803.006-3.875L136.951 220.759c-1.598-1.073-4.19-1.077-5.791-.01m-57.419 35.376c-2.802 1.868-2.807 4.904-.011 6.782l207.643 139.462c2.796 1.878 7.333 1.885 10.135.017l55.249-36.832c2.802-1.868 2.807-4.904.012-6.782L139.125 219.31c-2.795-1.878-7.333-1.885-10.135-.018z" clip-rule="evenodd"/>
    <path d="M-62.881 281.405c-2.796-1.878-2.79-4.914.011-6.782l55.25-36.833c2.801-1.867 7.339-1.86 10.134.018l76.306 51.25c2.795 1.878 2.79 4.914-.012 6.782L23.56 332.672c-2.802 1.868-7.34 1.861-10.135-.017z"/>
    <path fill-rule="evenodd" d="m-5.451 239.247-55.25 36.833c-1.6 1.068-1.603 2.803-.006 3.875l76.306 51.251c1.597 1.072 4.19 1.077 5.79.01l55.25-36.833c1.601-1.068 1.604-2.803.007-3.875L.34 239.257c-1.597-1.072-4.19-1.077-5.791-.01m-57.419 35.376c-2.801 1.868-2.807 4.904-.011 6.782l76.305 51.25c2.796 1.878 7.333 1.885 10.135.017l55.25-36.832c2.801-1.868 2.806-4.904.01-6.782l-76.305-51.25c-2.795-1.878-7.333-1.885-10.135-.018z" clip-rule="evenodd"/>
    <path d="M-20.794-21.082c-2.795-1.878-2.79-4.914.012-6.782l55.249-36.833c2.802-1.868 7.34-1.86 10.135.018l281.362 188.974c2.795 1.878 2.79 4.914-.012 6.782l-55.249 36.833c-2.802 1.868-7.339 1.86-10.135-.018z"/>
    <path fill-rule="evenodd" d="m36.636-63.24-55.25 36.833c-1.6 1.067-1.603 2.802-.006 3.875l281.363 188.975c1.597 1.073 4.19 1.077 5.791.01l55.249-36.833c1.601-1.067 1.604-2.802.007-3.875L42.427-63.23c-1.597-1.073-4.19-1.077-5.79-.01m-57.418 35.376c-2.802 1.868-2.807 4.904-.012 6.782l281.362 188.974c2.796 1.878 7.333 1.886 10.135.018l55.249-36.833c2.802-1.868 2.807-4.904.012-6.782L44.602-64.679c-2.796-1.878-7.333-1.886-10.135-.018z" clip-rule="evenodd"/>
  </g>
  <path fill="#2563EB" d="M130.365 30A53.45 53.45 0 0 0 77 83.367a55.8 55.8 0 0 0 12.008 33.737c3.783 5.052 12.811 17.062 34.484 45.553l1.27 1.657 2.926 3.865a3.342 3.342 0 0 0 2.761 1.298 3.32 3.32 0 0 0 2.761-1.298l2.926-3.865.58-.746c7.951-10.463 27.332-35.89 35.201-46.492a55.8 55.8 0 0 0 12.009-33.737A53.45 53.45 0 0 0 130.365 30"/>
  <path fill="#000" fill-rule="evenodd" d="M130.372 33h-.002A50.446 50.446 0 0 0 80 83.346a52.8 52.8 0 0 0 11.362 31.898l.025.031.023.031c3.776 5.043 12.798 17.045 34.466 45.53l.003.005 1.269 1.655 2.915 3.85.004.005a.34.34 0 0 0 .278.127l.11-.004.111.005q.076.003.145-.03a.3.3 0 0 0 .114-.09l.002-.003 2.929-3.869.572-.734.009-.012 4.867-6.401c9.274-12.192 23.77-31.249 30.304-40.052l.027-.036.028-.036a52.8 52.8 0 0 0 11.363-31.897 50.46 50.46 0 0 0-14.85-35.616A50.44 50.44 0 0 0 130.372 33m53.554 50.34a55.8 55.8 0 0 1-12.009 33.736c-6.546 8.819-21.058 27.898-30.33 40.087l-4.871 6.405-.58.746-2.926 3.865a3.316 3.316 0 0 1-2.761 1.298 3.34 3.34 0 0 1-2.761-1.298l-2.926-3.865-1.27-1.657c-21.673-28.491-30.701-40.501-34.484-45.553A55.8 55.8 0 0 1 77 83.367 53.45 53.45 0 0 1 130.365 30a53.45 53.45 0 0 1 53.561 53.34" clip-rule="evenodd"/>
  <path fill="#fff" d="M130.366 109.07a25.705 25.705 0 0 1-25.209-30.718 25.704 25.704 0 1 1 25.209 30.718"/>
  <path fill="#000" fill-rule="evenodd" d="M117.753 102.244a22.71 22.71 0 0 0 28.668-2.824 22.704 22.704 0 0 0-32.108-32.107 22.702 22.702 0 0 0 3.44 34.931m-1.667 2.494a25.705 25.705 0 0 0 32.456-3.196 25.705 25.705 0 0 0-23.189-43.385 25.703 25.703 0 0 0-9.267 46.581" clip-rule="evenodd"/>
</svg>
