<svg xmlns="http://www.w3.org/2000/svg" width="192" height="192" fill="none" viewBox="0 0 192 192">
  <g clip-path="url(#79a)">
    <path fill="#fff" d="M0 0h192v192H0z"/>
    <path fill="#2563EB" d="m187.594 11.156-10.17 5.444a.64.64 0 0 1-.34.077.672.672 0 0 1-.295-1.28l10.171-5.445a.674.674 0 0 1 .641 1.185zM179.351 28.541a.68.68 0 0 1 .695-.64l11.529.378a.67.67 0 0 1 .64.691.68.68 0 0 1-.694.64l-11.529-.377a.67.67 0 0 1-.641-.692M176.648 40.338l9.796 6.085a.673.673 0 0 1-.378 1.245.66.66 0 0 1-.32-.102l-9.796-6.085a.67.67 0 0 1-.325-.684.68.68 0 0 1 .275-.444.675.675 0 0 1 .757-.015zM170.356 14.361A28.23 28.23 0 0 0 151.858.664a28.23 28.23 0 0 0-30.465 13.339 28.22 28.22 0 0 0-2.481 22.883 28.2 28.2 0 0 0 5.868 10.2l-7.321 14.86 15.663-8.51a28.226 28.226 0 0 0 37.234-39.068z"/>
    <path fill="#000" d="M117.458 62.705a.74.74 0 0 0 .362-.093l15.321-8.327a28.97 28.97 0 0 0 26.826-.832.76.76 0 0 0 .396-.458q.047-.151.031-.308a.77.77 0 0 0-.576-.66.76.76 0 0 0-.597.1 27.46 27.46 0 0 1-25.76.64.76.76 0 0 0-.702 0l-13.562 7.366 6.264-12.714a.76.76 0 0 0-.115-.845 27.5 27.5 0 0 1-6.575-23.48c.097-.5.205-.999.321-1.486a.762.762 0 0 0-1.48-.365q-.189.776-.339 1.566a29 29 0 0 0 3.202 19.596 29.4 29.4 0 0 0 3.379 4.803l-7.1 14.411a.762.762 0 0 0 .157.884.75.75 0 0 0 .547.202"/>
    <path fill="#fff" d="M143.628 45.565h-.029a2.4 2.4 0 0 1-1.957-1.054l-11.07-16.303a2.404 2.404 0 0 1 .637-3.337 2.4 2.4 0 0 1 3.337.637l9.13 13.45 17.043-23.896a2.4 2.4 0 0 1 1.562-1 2.405 2.405 0 0 1 2.456 1.1 2.4 2.4 0 0 1 .292 1.832c-.075.31-.211.601-.4.858l-19.044 26.704a2.4 2.4 0 0 1-1.957 1.009"/>
    <g clip-path="url(#80b)">
      <path fill="#2563EB" d="M121.953 145.085a15.865 15.865 0 1 1 15.866-15.861 15.879 15.879 0 0 1-15.866 15.861m0-29.152a13.29 13.29 0 1 0 13.296 13.291 13.32 13.32 0 0 0-13.296-13.291"/>
      <path fill="#fff" d="M100.216 125.311c1.803-1.209 2.626-3.702 1.541-5.625-1.194-2.127-4.088-2.274-6.005-.994a65.9 65.9 0 0 0-17.607 17.921q3.374 2.127 6.738 4.283a58 58 0 0 1 15.333-15.585"/>
      <path fill="#000" d="M76.84 136.891a1.33 1.33 0 0 1 .196-1.019 67.1 67.1 0 0 1 17.96-18.273 6.2 6.2 0 0 1 3.968-1.014 4.94 4.94 0 0 1 3.683 2.056q.138.195.252.405c1.371 2.427.476 5.734-1.946 7.38a56.7 56.7 0 0 0-14.98 15.228 1.33 1.33 0 0 1-1.828.381 1268 1268 0 0 0-6.733-4.283 1.5 1.5 0 0 1-.376-.362 1.3 1.3 0 0 1-.195-.499m22.614-12.673c1.299-.875 1.818-2.646 1.128-3.864a2 2 0 0 0-.119-.185c-.861-1.228-2.75-1.18-3.983-.367A64.4 64.4 0 0 0 80 136.234c1.528.952 3.032 1.904 4.493 2.855a59.5 59.5 0 0 1 14.961-14.871"/>
      <path fill="#fff" d="M111.101 153.608a4.028 4.028 0 0 0-4.23-3.36c2.855-.475 4.735-1.998 4.616-4.482-.105-2.323-2.38-3.726-4.459-3.584 1.97-.475 3.564-2.27 3.198-4.311-.41-2.289-2.941-3.564-5.168-3.222 6.919-1.575 10.497-1.865 15.818-1.903 2.241.043 4.135-1.133 4.425-3.331.4-2.989-1.927-4.364-4.169-4.431-20.253.476-37.593 5.159-57.994 14.957a589 589 0 0 1 13.539 27.81 109.4 109.4 0 0 1 31.207-9.832 3.87 3.87 0 0 0 3.217-4.311"/>
      <path fill="#000" d="M75.342 168.516a607 607 0 0 0-13.51-27.753 1.33 1.33 0 0 1-.08-1.035 1.34 1.34 0 0 1 .688-.778c21.015-10.088 38.522-14.599 58.533-15.085h.071a6.4 6.4 0 0 1 3.479 1.104 4.87 4.87 0 0 1 1.975 4.835c-.367 2.732-2.675 4.53-5.758 4.483a58.8 58.8 0 0 0-10.755.899 4.96 4.96 0 0 1 1.428 2.665 4.85 4.85 0 0 1-1.152 4.016q.176.101.338.224a4.86 4.86 0 0 1 2.118 3.807 5.03 5.03 0 0 1-2.19 4.502 5.14 5.14 0 0 1 1.79 3.217 5.196 5.196 0 0 1-4.316 5.81 108.4 108.4 0 0 0-30.851 9.722 1.34 1.34 0 0 1-1.033.048 1.3 1.3 0 0 1-.314-.162 1.36 1.36 0 0 1-.461-.519m31.478-16.722a1.334 1.334 0 0 1-.29-2.646c2.993-.476 3.56-1.965 3.507-3.107a2.261 2.261 0 0 0-.994-1.747 3.25 3.25 0 0 0-2.046-.571 1.33 1.33 0 0 1-1.404-1.134 1.334 1.334 0 0 1 1.013-1.492c1.237-.286 2.427-1.428 2.189-2.78a2.44 2.44 0 0 0-1.023-1.527 3.72 3.72 0 0 0-2.631-.609 1.339 1.339 0 0 1-1.297-2.044c.182-.287.467-.494.797-.578 7.052-1.604 10.669-1.904 16.099-1.937h.033c1.351.024 2.855-.538 3.084-2.175a2.235 2.235 0 0 0-.871-2.313 3.75 3.75 0 0 0-1.985-.609c-19.201.476-36.076 4.759-56.153 14.234a610 610 0 0 1 12.373 25.421 110.2 110.2 0 0 1 30.342-9.365 2.482 2.482 0 0 0 1.967-3.369 2.47 2.47 0 0 0-.925-1.147 2.77 2.77 0 0 0-1.785-.524z"/>
      <path fill="#2563EB" d="m56.645 187.551-27.815-21.51c16.698-21.847 40.925-30.846 40.925-30.846l13.496 32.464s-17.455 7.51-26.601 19.892z"/>
      <path fill="#000" d="M40.826 160.373a.78.78 0 0 1-.292-.933.786.786 0 0 1 .845-.494c4.306.661 9.165 2.788 14.433 6.324a59.5 59.5 0 0 1 6.628 5.101.79.79 0 0 1 .053 1.114.797.797 0 0 1-1.118.052c-.105-.1-10.47-9.517-20.24-11.035a.7.7 0 0 1-.309-.129M63.721 169.407a.8.8 0 0 1-.29-.338c-.053-.119-5.311-11.659-14.148-16.623a.788.788 0 0 1 .186-1.431.8.8 0 0 1 .59.056c9.298 5.235 14.595 16.86 14.814 17.35a.793.793 0 0 1-.67 1.112.8.8 0 0 1-.482-.126"/>
      <path fill="#2563EB" d="m55.603 188.879.033.028a1.663 1.663 0 0 0 2.298-.323l.029-.034v-.033c8.765-11.863 25.75-19.273 25.92-19.344a1.67 1.67 0 0 0 .88-2.17l-13.5-32.469a1.66 1.66 0 0 0-2.117-.918c-.252.09-6.3 2.379-14.486 7.371-7.552 4.616-18.397 12.534-27.177 24.027a1.66 1.66 0 1 0 2.636 2.017c8.452-11.054 18.907-18.697 26.197-23.165a99 99 0 0 1 12.544-6.524l12.25 29.456c-4.507 2.142-17.96 9.142-25.793 19.739l-.024.034a1.66 1.66 0 0 0 .31 2.308"/>
      <path fill="#000" d="M44.772 172.843a.833.833 0 0 0 1.156-.133c10.112-12.468 23.95-18.702 24.089-18.764a.83.83 0 0 0 .423-1.099.83.83 0 0 0-1.1-.424c-.142.062-14.342 6.462-24.706 19.235a.83.83 0 0 0 .119 1.171zM160.28 133.276l-13.867.029a.807.807 0 0 0-.491 1.451.8.8 0 0 0 .494.165l13.867-.029a.805.805 0 0 0 .787-.809.81.81 0 0 0-.79-.807M141.677 119.561a.797.797 0 0 0 1.112.301l11.987-6.955a.806.806 0 0 0 .291-1.105.81.81 0 0 0-1.106-.291l-11.987 6.955a.805.805 0 0 0-.297 1.095M132.087 108.617l6.925-12.032a.81.81 0 0 0-.586-1.203.8.8 0 0 0-.508.093.77.77 0 0 0-.296.294l-6.908 12.022a.81.81 0 0 0 .297 1.106.81.81 0 0 0 1.106-.297z"/>
      <path fill="#2563EB" d="m113.858 190.32 5.293-3.714a.81.81 0 0 1 .928 0l4.827 3.387 4.827-3.387a.83.83 0 0 1 .932 0l4.827 3.387 4.828-3.387a.81.81 0 0 1 .927 0l4.828 3.387 4.827-3.387a.83.83 0 0 1 .932 0l4.827 3.387 4.827-3.387a.81.81 0 0 1 .928 0l5.293 3.714a.815.815 0 0 1 .369.853.81.81 0 0 1-1.297.468l-4.827-3.369-4.839 3.369a.8.8 0 0 1-.928 0l-4.819-3.369-4.828 3.384a.8.8 0 0 1-.927 0l-4.832-3.384-4.838 3.369a.8.8 0 0 1-.928 0l-4.816-3.369-4.827 3.384a.8.8 0 0 1-.928 0l-4.831-3.384-4.843 3.369a.81.81 0 0 1-1.085-.224.81.81 0 0 1 .157-1.097zM63.324 99.23h-.116a2 2 0 0 1-.313-.062c-3.095-.808-6.836-2.94-9.961-5.698-3.435-3.037-5.67-6.36-6.298-9.361a7.74 7.74 0 0 1 2.708-7.62c1.35-1.06 3.076-1.25 4.986-.546 4.225 1.547 5.938 8.444 6.36 10.522 0 .054 1.195 5.593 5.597 4.847a1.045 1.045 0 0 1 .349 2.058 6.09 6.09 0 0 1-5.803-2.035 10 10 0 0 1-2.201-4.453c-.774-3.725-2.483-8.042-5.029-8.978-1.23-.453-2.205-.387-2.978.228a5.63 5.63 0 0 0-1.962 5.551c1.138 5.478 9.06 11.992 14.746 13.466a1.056 1.056 0 0 1 .929 1.16 1.04 1.04 0 0 1-1.014.921M58.427 102.042a1.1 1.1 0 0 1-.387-.069c-1.988-.774-5.593-2.557-7.35-5.895a1.044 1.044 0 1 1 1.85-.971c1.435 2.73 4.53 4.255 6.247 4.916a1.046 1.046 0 0 1 .286 1.784c-.19.155-.428.238-.673.235zM49.661 101.166a1.05 1.05 0 0 1-.92-.554c-1.706-3.195-1.911-6.897-1.88-8.82a1.044 1.044 0 0 1 1.044-1.028 1.043 1.043 0 0 1 1.029 1.06c-.027 1.721.151 5.028 1.633 7.806a1.04 1.04 0 0 1-.43 1.412c-.146.079-.31.122-.476.124M44.153 99.769a1.04 1.04 0 0 1-1.037-.937c-.735-6.893.515-11.744.84-12.262a1.044 1.044 0 0 1 1.833.99c-.244.681-1.238 5.029-.596 11.052a1.05 1.05 0 0 1-.932 1.16z"/>
      <path fill="#2563EB" d="M39.6 95.015h-.02a1.055 1.055 0 0 1-1.025-1.071c0-.604.82-6.058 2.77-11.292 2.688-7.222 6.464-11.19 10.92-11.48 6.646-.426 10.27 6.409 12.147 12.22.92 2.842 2.77 4.521 4.827 4.37a1.045 1.045 0 1 1 .151 2.085c-3.06.213-5.733-2.011-6.963-5.802-2.398-7.427-5.771-11.052-10.026-10.777-8.364.541-11.605 18.363-11.737 20.742a1.036 1.036 0 0 1-1.044 1.005"/>
      <path fill="#2563EB" d="M35.341 89.947a1 1 0 0 1-.15 0 1.045 1.045 0 0 1-.883-1.184c.774-5.257 3.16-9.752 5.168-13.079 2.627-4.363 6.422-7.415 10.41-8.374 3.586-.867 6.68-.445 9.462 1.284 2.998 1.857 4.591 4.773 6.131 7.597.205.387.406.743.611 1.11l.252.445c1.984 3.54 4.065 3.725 5.462 3.559a1.044 1.044 0 0 1 .247 2.073c-3.094.387-5.609-1.183-7.531-4.61l-.252-.445c-.209-.387-.414-.751-.623-1.134-1.411-2.58-2.87-5.253-5.396-6.824-2.286-1.42-4.862-1.752-7.872-1.025-3.4.816-6.804 3.59-9.114 7.42-1.903 3.16-4.181 7.415-4.889 12.3a1.045 1.045 0 0 1-1.033.887"/>
      <path fill="#2563EB" d="M72.41 79.614q-.164 0-.32-.05c-3.548-1.16-5.03-4.131-6.329-6.758a18.4 18.4 0 0 0-2.004-3.156 12.72 12.72 0 0 0-10.332-4.847c-6.313.12-13.609 4.912-17.744 11.647a1.045 1.045 0 0 1-1.78-1.09c4.558-7.428 12.38-12.51 19.481-12.646a14.8 14.8 0 0 1 12.008 5.644 20.4 20.4 0 0 1 2.235 3.52c1.443 2.909 2.577 4.878 5.103 5.698a1.045 1.045 0 0 1-.325 2.038zM42.695 64.238a1.045 1.045 0 0 1-.565-1.935 22.4 22.4 0 0 1 10.634-3.524 1.045 1.045 0 0 1 .131 2.085 20.34 20.34 0 0 0-9.64 3.196c-.165.112-.36.174-.56.178"/>
      <path fill="#2563EB" d="M71.142 72.945a1.044 1.044 0 0 1-1.01-.774c-1.407-5.392-6.746-10.309-11.902-10.958a1.045 1.045 0 0 1 .263-2.074c5.93.747 12.057 6.36 13.663 12.506a1.044 1.044 0 0 1-.75 1.273.9.9 0 0 1-.264.027"/>
      <path fill="#000" d="M29.844 64.956A1.045 1.045 0 0 1 28.8 63.91v-8.22a1.044 1.044 0 0 1 1.044-1.044h8.22a1.044 1.044 0 1 1 0 2.088H30.89v7.176a1.045 1.045 0 0 1-1.045 1.044M78.155 64.956a1.045 1.045 0 0 1-1.044-1.045v-7.176h-7.18a1.045 1.045 0 1 1 0-2.088h8.224A1.045 1.045 0 0 1 79.2 55.69v8.22a1.045 1.045 0 0 1-1.045 1.044M78.155 105.286h-8.224a1.044 1.044 0 1 1 0-2.089h7.18v-7.176a1.044 1.044 0 1 1 2.089 0v8.22a1.046 1.046 0 0 1-1.045 1.045M38.064 105.286h-8.22a1.044 1.044 0 0 1-1.044-1.045v-8.22a1.044 1.044 0 1 1 2.089 0v7.176h7.175a1.044 1.044 0 1 1 0 2.089"/>
      <path fill="#2563EB" fill-rule="evenodd" d="M83.907 84.184h-4.892v-2.953h4.892a1.477 1.477 0 1 1 0 2.953m8.308-1.477c0-.815.661-1.476 1.477-1.476h9.785a1.477 1.477 0 0 1 0 2.953h-9.785a1.477 1.477 0 0 1-1.477-1.477m19.569 0c0-.815.662-1.476 1.477-1.476h4.893c.815 0 1.477.66 1.477 1.476v4.062a1.477 1.477 0 0 1-2.954 0v-2.585h-3.416a1.477 1.477 0 0 1-1.477-1.477m6.37 10.708c.815 0 1.477.661 1.477 1.477v8.123a1.477 1.477 0 0 1-2.954 0v-8.123c0-.816.661-1.477 1.477-1.477m0 16.246c.815 0 1.477.661 1.477 1.477v4.062h-2.954v-4.062c0-.816.661-1.477 1.477-1.477" clip-rule="evenodd"/>
    </g>
  </g>
  <defs>
    <clipPath id="79a">
      <path fill="#fff" d="M0 0h192v192H0z"/>
    </clipPath>
    <clipPath id="80b">
      <path fill="#fff" d="M24.37 48h144v144h-144z"/>
    </clipPath>
  </defs>
</svg>
