<svg xmlns="http://www.w3.org/2000/svg" width="150" height="128" fill="none" viewBox="0 0 150 128">
  <g clip-path="url(#82a)">
    <path fill="#2253D5" fill-rule="evenodd" d="m94.038 7.668-77.136 3.948c-.82.042-1.45.74-1.408 1.56l3.313 64.74c.042.82.74 1.45 1.56 1.408l90.921-4.653a1.487 1.487 0 0 0 1.408-1.56l-2.631-51.396zM93.11 4.91 16.758 8.818a4.287 4.287 0 0 0-4.062 4.5l3.313 64.742a4.287 4.287 0 0 0 4.5 4.062l90.922-4.653a4.287 4.287 0 0 0 4.062-4.5l-2.567-50.174z" clip-rule="evenodd"/>
    <path fill="#2253D5" d="M46.373 19.084a1.4 1.4 0 0 0 .143 2.798L67.5 20.808a1.4 1.4 0 0 0-.143-2.798zM26.827 53.747a1.4 1.4 0 0 0 .143 2.798l10.073-.516a1.4 1.4 0 1 0-.143-2.797zM27.257 62.14a1.4 1.4 0 1 0 .143 2.799l10.072-.516a1.4 1.4 0 0 0-.143-2.798zM25.968 36.96a1.4 1.4 0 1 0 .143 2.798l10.073-.516a1.4 1.4 0 1 0-.144-2.798zM27.686 70.534a1.4 1.4 0 1 0 .143 2.798l10.073-.515a1.4 1.4 0 1 0-.143-2.798zM26.398 45.353a1.4 1.4 0 0 0 .143 2.798l10.072-.515a1.4 1.4 0 1 0-.143-2.798zM46.764 54.13a1.4 1.4 0 0 1 1.327-1.471l10.072-.516a1.4 1.4 0 0 1 .144 2.798l-10.073.516a1.4 1.4 0 0 1-1.47-1.328M45.905 37.342a1.4 1.4 0 0 1 1.327-1.47l10.072-.516a1.4 1.4 0 0 1 .143 2.798l-10.072.515a1.4 1.4 0 0 1-1.47-1.327M47.623 70.917a1.4 1.4 0 0 1 1.327-1.47l10.072-.516a1.4 1.4 0 1 1 .144 2.797l-10.073.516a1.4 1.4 0 0 1-1.47-1.327M45.289 25.311a1.4 1.4 0 0 1 1.327-1.47l16.787-.86a1.4 1.4 0 1 1 .144 2.798l-16.788.86a1.4 1.4 0 0 1-1.47-1.328M47.193 62.523a1.4 1.4 0 0 1 1.328-1.47l10.072-.516a1.4 1.4 0 1 1 .143 2.798l-10.072.515a1.4 1.4 0 0 1-1.47-1.327M46.334 45.736a1.4 1.4 0 0 1 1.327-1.47l10.073-.516a1.4 1.4 0 0 1 .143 2.798l-10.072.515a1.4 1.4 0 0 1-1.47-1.327M67.168 36.254a1.4 1.4 0 0 1 1.328-1.47l10.072-.516a1.4 1.4 0 1 1 .143 2.798l-10.072.515a1.4 1.4 0 0 1-1.47-1.327M68.887 69.828a1.4 1.4 0 0 1 1.327-1.47l10.072-.516a1.4 1.4 0 1 1 .144 2.798l-10.073.516a1.4 1.4 0 0 1-1.47-1.328M68.028 53.041a1.4 1.4 0 0 1 1.327-1.47l10.072-.516a1.4 1.4 0 0 1 .143 2.798l-10.072.515a1.4 1.4 0 0 1-1.47-1.327M68.457 61.435a1.4 1.4 0 0 1 1.327-1.47l10.073-.516A1.4 1.4 0 0 1 80 62.247l-10.072.515a1.4 1.4 0 0 1-1.47-1.327M88.432 35.166a1.4 1.4 0 0 1 1.328-1.47l10.072-.516a1.4 1.4 0 1 1 .143 2.797l-10.072.516a1.4 1.4 0 0 1-1.47-1.327M90.15 68.74a1.4 1.4 0 0 1 1.328-1.47l10.072-.516a1.401 1.401 0 1 1 .143 2.798l-10.072.515a1.4 1.4 0 0 1-1.47-1.327M67.598 44.648a1.4 1.4 0 0 1 1.327-1.471l10.073-.516a1.4 1.4 0 1 1 .143 2.798l-10.073.516a1.4 1.4 0 0 1-1.47-1.328M89.291 51.953a1.4 1.4 0 0 1 1.328-1.47l10.072-.516a1.401 1.401 0 1 1 .143 2.798l-10.072.515a1.4 1.4 0 0 1-1.47-1.327M89.72 60.347a1.4 1.4 0 0 1 1.328-1.471l10.073-.515a1.4 1.4 0 0 1 .143 2.797l-10.072.516a1.4 1.4 0 0 1-1.471-1.328M88.862 43.56a1.4 1.4 0 0 1 1.327-1.471l10.073-.516a1.4 1.4 0 0 1 .143 2.798l-10.073.516a1.4 1.4 0 0 1-1.47-1.328"/>
    <path fill="#2B68E8" d="m93.249 4.904.746 14.567a4.287 4.287 0 0 0 4.5 4.063l14.568-.745z"/>
    <mask id="83b" width="18" height="18" x="23" y="17" maskUnits="userSpaceOnUse" style="mask-type:alpha">
      <rect width="16.249" height="16.249" x="23.596" y="18.005" fill="#D9D9D9" rx="2" transform="rotate(-2.93 23.596 18.005)"/>
    </mask>
    <g mask="url(#83b)">
      <path fill="#2253D5" d="M30.225 26.81a.394.394 0 1 1-.588.524.394.394 0 0 1 .588-.525M31.443 25.811a.395.395 0 0 1-.062.552.4.4 0 0 1-.554-.06.393.393 0 1 1 .616-.492M32.711 24.877a.393.393 0 1 1-.675.405.393.393 0 0 1 .675-.405M34.026 24.007a.4.4 0 0 1-.564.54.393.393 0 0 1 .02-.661.39.39 0 0 1 .544.12M35.389 23.221a.394.394 0 0 1-.152.534.403.403 0 0 1-.536-.149.385.385 0 0 1 .15-.537.393.393 0 0 1 .538.152M36.793 22.508a.4.4 0 0 1-.182.523.394.394 0 1 1 .182-.523"/>
      <path fill="#fff" fill-rule="evenodd" d="M28.01 31.9c.419-.153.707-.678 1.109-.891.401-.214.662-.11.662-.11l.801-.678-.123-1.513s-.32-.447-.538-.732a2.5 2.5 0 0 1-.339-.682s-.55.104-.753-.204c-.13-.21-.22-.443-.263-.686 0 0-1.785-2.64-.984-3.792.514-.741.981-.719.981-.719s1.254-2.076 3.155-1.893 2.296.644 2.942 1.064 1.51.713 1.51.713l-.544.636 1.218.65s-.28.978-.755.964c-.476-.013-.87-.062-.87-.062s.347 1.764-.116 3.075c-.649 1.841-1.88 1.964-1.88 1.964l.119 1.118.29.639.625.317.194.233s4.322-.08 5.655 2.126 3.74 7.949 4.065 9.346.069 2.883-.88 3.28-4.291.19-4.291.19l4.095 50.596s1.376.522 2.098 1.503c.723.981.921 1.365.921 1.365l-7.978.288-.41-5.34-.311-.148-2.675-28.51L33.5 94.64l-.42.113.04 5.523-7.65.407s.484-1.517 1.223-2.219c.74-.701 1.49-.9 1.49-.9l.22-40.811s.06-3.883.24-5.116c.26-1.776.552-3.46.552-3.46s-2.06.66-3.146.282c-1.086-.377-2.713-1.84-2.88-6.49s-.222-7.575.918-8.69c1.67-1.628 3.503-1.227 3.922-1.38" clip-rule="evenodd"/>
      <path fill="#fff" fill-rule="evenodd" d="m34.14 33.54-.819-1.478-.388-.388-.445.43-.265 1.381s.492.223.505.355 1.723 14.651 1.78 14.596l1.646 1.283.582-1.397-2.881-14.388z" clip-rule="evenodd"/>
      <path fill="#2253D5" fill-rule="evenodd" d="M29.668 30.877q.6 1.515 1.366 2.953c.826 1.54 1.043 3.109 1.423 4.636.379 1.526.686 3.307.686 3.307l-1.357.51s-1.638-2.06-2.174-2.684c-.535-.623-1.815-.887-2.63-.625s-1.707 1.407-1.764 1.761.135.835.543.504 1.26-1.173 1.26-1.173l.717.084s-1.074.907-1.233 1.689c-.159.781-.08 1.662.414 2.166.495.504.98.663 1.427.257.446-.406.78-1.13.78-1.13l1.317-.067s2.43-1.361 4.412-1.988c1.98-.626 1.78-.531 1.78-.531s-.342-4.203-.72-5.78c-.38-1.579-1.434-3.664-1.434-3.664s5.11-.344 6.129 1.448c1.019 1.793 2.145 6.27 3.057 8.532s.846 4.195-.194 4.84c-1.77 1.101-4.391.287-4.391.287s.484 3.006.61 5.102.225 3.497.225 3.497l-2.365.106-.58-8.947-.956-.407-2.593 1.302.73 8.043-5.82.602s.452-3.883.483-4.825.2-2.349.2-2.349-1.546.904-3.559-.046-2.025-4.108-2.217-6.797-.26-6.98 1.03-8.104c1.702-1.484 3.982-1.449 3.982-1.449q.252-.256.474-.54c.223-.295.942-.52.942-.52" clip-rule="evenodd"/>
      <path fill="#fff" fill-rule="evenodd" d="M28.486 26.464s.245-.749.495-.725c.25.023.515.262.515.262s-.156-1.424-.06-2.047q.128-.703.342-1.384s1.82.122 3.032.452c1.59.435 2.675 1.325 3.185 1.067.51-.257.895-.911.895-.911l-1.24-.5.523-.74s-.92-.254-1.244-.574-2.56-1.901-4.105-1.218c-1.544.684-2.116 1.703-2.116 1.703s-1.29.472-1.277 1.478c.012 1.006 1.055 3.136 1.055 3.136" clip-rule="evenodd"/>
      <path fill="#2253D5" fill-rule="evenodd" d="M28.713 26.882s.116-1.064.366-1.04q.297.045.575.157s-.19-.775-.091-1.397.313-1.942.313-1.942 1.812-.064 3.023.266c1.59.435 2.43 1.443 2.94 1.182.508-.26.825-.425.825-.425l-.888-.356.524-.74s-.92-.255-1.244-.575-2.56-1.901-4.105-1.218c-1.545.682-2.116 1.704-2.116 1.704s-1.29.47-1.277 1.477c.012 1.008 1.155 2.907 1.155 2.907" clip-rule="evenodd"/>
      <path fill="#2253D5" fill-rule="evenodd" d="M35.99 22.488c.185.05.404.175.636.27.183.073.539.138.58.335.052.25-.274.544-.407.674-.188.195-.42.343-.676.43-.519.155-.991-.024-1.318-.206-.152-.086-.245-.194-.424-.226-.761-.119-1.25.134-1.391.725-.143.59.093 1.15.307 1.55.078.145.21.262.219.414.007.137-.099.268-.163.389-.075.141-.14.282-.29.273-.33-.021-.127-.477-.001-.639-.303-.457-.593-1.106-.52-1.826.07-.672.405-1.129 1.013-1.297-.994-.388-2.252-.482-3.567-.516-.237.59-.378 1.547-.282 2.551.026.262.182.788.093.922-.107.157-.768.316-.821.072-.043-.213.153-.221.288-.303-.242-.444-.41.224-.373.431a.9.9 0 0 0 .377.527c.153.097.38.115.514.247.113.112.165.335.236.459.158.288.39.528.674.694.105.063.36.1.365.316.004.183-.177.204-.292.227.076.326-.052.595.044.864.038.107.313.243.429.312.475.282.986.5 1.518.651.115-.126.28-.297.303-.516.04-.299-.091-.643-.079-.968a4.4 4.4 0 0 1-.76-.022c-.216-.03-.603-.052-.505-.339.09-.266.516-.062.773-.054.307.02.616-.032.9-.153 1.148-.488 1.641-1.772 1.633-3.41-.001-.272-.177-.837.17-.813.369.025.253 1.178.229 1.473-.127 1.556-.71 2.659-2.01 3.186.05.34.009.626.077.903.067.277.337.477.416.72.267.07.6.061.714.299.583-.056 1.156.023 1.693.11 1.573.262 2.928.817 3.803 1.886.584.712.88 1.698 1.305 2.637 1.024 2.271 2.217 4.287 2.88 6.99.136.554.269 1.152.24 1.734-.055 1.158-.785 1.772-1.791 2.051-1.1.304-2.32.056-3.452-.05.237 1.966.54 3.998.647 6.101.08 1.576.203 3.18.335 4.766.216 2.612.384 5.263.569 7.898.15 2.115.27 4.236.46 6.326.095 1.044.184 2.108.238 3.162s.184 2.11.238 3.162c.108 2.112.367 4.21.475 6.309s.38 4.195.487 6.293.387 4.186.518 6.261c1.262.481 2.199 1.246 2.832 2.494.12.241.373.64-.04.715-.31.059-.658.02-1 .037-.97.049-1.935.058-2.958.105-1.07.05-1.898.097-2.957.106-.356.002-.977.107-1.112-.065-.07-.089-.08-.413-.094-.632-.075-1.348-.2-2.611-.324-3.963-.022-.237.005-.518-.049-.666-.048-.13-.197-.115-.24-.246-.068-.201-.044-.513-.072-.801-.797-8.075-1.667-16.465-2.439-24.495-.307 6.252-.486 12.746-.768 19.13-.079 1.78-.154 3.711-.231 5.572-.018.432.085.903-.315.973-.051 1.64-.07 3.147-.118 4.82-.008.272.023.576-.148.66-.172.085-.74.069-.954.08-1.933.099-3.849.212-5.803.312-.358.018-.887.11-.994-.071-.078-.136.009-.42.06-.595.165-.553.423-1.068.748-1.44.479-.542 1.088-.89 1.713-1.257.07-4.095.027-8.22.097-12.352.07-4.117.017-8.243.066-12.367.05-4.07.015-8.343-.014-12.45a72 72 0 0 0-.071-3.172c-.052-1.007.052-2.02.136-2.983.17-1.945.373-3.808.606-5.666-1.084.276-2.27.409-3.095.084-.798-.317-1.409-1.011-1.808-1.777-1.325-2.54-1.02-6.402-.98-9.654.014-1.175.026-2.276.406-3.044.62-1.251 2.152-2.188 3.997-2.36.298-.03.678-.035.899-.168.28-.163.387-.483.619-.67.203-.163.391-.233.715-.28q.152 0 .302-.03c.09-.033.17-.223.242-.331.09-.139.193-.225.223-.376.027-.133-.014-.38-.015-.607-.001-.195.028-.454-.016-.591-.026-.082-.155-.15-.255-.246a2.5 2.5 0 0 1-.593-.895c-.42-.163-.66-.3-.856-.61-.058-.096-.075-.22-.138-.327-.056-.096-.15-.153-.21-.248-.395-.608-.794-1.395-.938-2.29-.146-.91.085-1.579.565-2.019.152-.139.341-.222.528-.377.226-.186.384-.454.59-.652a4.4 4.4 0 0 1 1.5-.984c1.277-.483 2.754-.186 3.757.4.505.295.92.746 1.554.968.189.066.523.12.56.276.108.32-.34.54-.384.762m-2.031-1.674a4.17 4.17 0 0 0-2.471-.496c-1.207.15-1.925.77-2.508 1.465q-.113.165-.259.301c-.263.2-.501.288-.687.522-.36.456-.338 1.139-.183 1.77.152.619.385 1.082.66 1.592.131-.171.252-.449.521-.482.087-.01.213.044.26.017a6.7 6.7 0 0 1 .053-1.917c.054-.289.157-1.063.412-1.16.233-.087.653-.008.882 0 1.504.064 2.77.285 3.81.839.39.207.786.59 1.335.554.402-.026.698-.325.877-.592-.2-.058-.421-.175-.651-.27-.198-.082-.545-.156-.566-.366-.03-.298.33-.413.39-.673-.73-.192-1.217-.745-1.874-1.104zm-3.282 9.509c-.215.267-.296.656-.674.776.253.72.482 1.46.807 2.103.416.238.75.567 1.165.806.222-.932.46-1.85.683-2.783-.768-.182-1.395-.52-1.98-.902m2.4.866c.478.768.906 1.592 1.396 2.344.307-.64.047-1.644-.233-2.19-.219-.078-.447-.03-.6-.152-.154-.122-.138-.323-.296-.425-.052.172-.197.261-.267.42zm-4.517.794c-.352.236-.884.214-1.388.284a6 6 0 0 0-1.14.286c-1.377.5-2.393 1.381-2.571 2.956-.087.773-.053 1.682-.066 2.585-.023 1.691-.115 3.485.058 5.297.16 1.668.615 3.204 1.52 4.176.454.485 1.049.83 1.882.83.893-.002 1.678-.218 2.453-.43a24 24 0 0 0 4.127-1.548c2.4-1.164 4.547-2.5 6.129-4.369.078-.095.29-.28.299-.394.011-.17-.133-.544-.25-.717a1.06 1.06 0 0 0-.382-.344c-.332-.148-1.023-.045-1.427.026-.358.065-.757.18-1.08.268-1.801.496-3.4 1.152-4.922 1.802-.323.137-.663.24-.951.398-.133.072-.149.161-.264.196-.173.05-.395.026-.606.046-.197.019-.46-.009-.605.046-.064.023-.106.132-.154.205a4.3 4.3 0 0 1-.516.604c-.256.25-.503.499-.992.522a1.15 1.15 0 0 1-.63-.166c-.654-.374-1.097-1.28-.966-2.228a3.1 3.1 0 0 1 1.057-1.907c.02-.018.096-.026.072-.08-.196-.073-.305.115-.414.219-.108.103-.236.216-.349.32-.236.22-.458.502-.744.601-.372.13-.68-.03-.79-.309-.127-.323.16-.724.3-.942.508-.781 1.095-1.426 2.245-1.573-.128-.144-.304-.237-.52-.386-.135-.09-.5-.246-.48-.46.025-.266.346-.124.453-.054.341.225.548.374.867.608.135.1.306.268.428.308s.24.03.333.06c.694.2 1.05.65 1.472 1.154.637.76 1.262 1.545 1.88 2.274.283-.13.582-.245.877-.364-.422-1.976-.777-3.894-1.283-5.722-.246-.894-.622-1.678-1.007-2.454a14 14 0 0 1-.763-1.844 3.5 3.5 0 0 0-.245-.625c-.547.116-.574.59-.947.842zm6.27-.398c.489 1.234 1.09 2.447 1.329 4.003.235 1.533.42 3.167.596 4.83.61-.16 1.23-.307 1.973-.344.169-.857.211-1.735.125-2.604-.04-.41-.136-.876-.188-1.296-.036-.292-.273-1.153.076-1.189l.03-.001c.317.005.29.81.333 1.168.059.428.156.887.19 1.326.083 1.04.034 1.881-.124 2.633.643.153.956.671 1.118 1.356.279.017 1.166-.398 1.188.045.014.284-.575.303-.818.346-.107.019-.27.01-.362.049-.12.051-.328.363-.446.494a17.3 17.3 0 0 1-3.64 3.025c1.419.314 2.92.65 4.537.77 1.822.137 3.468-.22 3.376-2.025-.04-.788-.273-1.59-.498-2.298-.678-2.134-1.649-3.893-2.516-5.808-.306-.68-.556-1.349-.84-1.931-.895-1.819-3-2.486-5.436-2.593-.025-.002-.023.04-.003.042zm-2.398 2.447c-.054.227-.106.563-.32.578-.157.008-.338-.164-.453-.25a3 3 0 0 0-.41-.297c1.03 2.112 1.388 4.972 1.997 7.551.99-.38 1.988-.761 3.06-1.068-.303-2.56-.427-5.321-1.27-7.285-.08.169-.112.357-.199.557-.068.156-.144.413-.358.413-.187 0-.333-.326-.439-.51-.355-.623-.747-1.275-1.05-1.829-.016.001-.019-.011-.031-.013-.16.588-.352 1.436-.526 2.15zm-2.08 6.85c-.195-.238-.403-.474-.599-.712-.206-.249-.386-.528-.614-.71a2.17 2.17 0 0 0-1.555-.422 2.23 2.23 0 0 0-1.448.728c-.331.352-.704.755-.785 1.285.194.135.36-.014.48-.116.273-.234.482-.448.74-.691.122-.116.252-.285.395-.324.261-.072.647.05.974.041.161-.072.948-.504.925-.047-.008.165-.248.205-.412.264-1.147.418-1.948 1.264-1.928 2.635.444-.69 1.023-1.51 1.86-1.963.154-.083 1.124-.6 1.132-.15.003.16-.218.21-.411.28-1.077.393-1.655 1.104-2.177 1.995-.081.138-.24.324-.235.452.009.177.18.283.27.442.507-.83 1.103-1.59 1.99-2.06.295-.157.616-.342 1-.382.077.06.141.091.132.221-.01.146-.229.197-.399.263-1.143.456-1.927 1.31-2.406 2.267.72.397 1.292-.349 1.615-.796.105-.145.163-.317.285-.364.355-.137.698.004 1.059-.1.211-.06.419-.202.623-.29.204-.09.422-.195.654-.276-.302-.49-.747-.973-1.164-1.473zm5.308 4.862c-.63.38-1.295.726-1.981 1.058.205 2.162.37 4.371.591 6.515.97-.05 1.908-.064 2.867-.101-.124-2.417-.29-4.79-.415-7.208-.346-.099-.707-.178-1.06-.267zm1.51.408c.184 2.826.337 5.688.512 8.524.667-.044 1.29-.04 1.956-.084-.129-1.439-.158-2.823-.292-4.223-.127-1.33-.394-2.67-.522-3.967-.564-.081-1.093-.197-1.641-.296-.017.005-.015.023-.012.044zm-7.845 2.27c-.268 2.224-.536 4.449-.702 6.764 1.766-.164 3.547-.315 5.308-.485-.244-2.552-.441-5.156-.698-7.694a25 25 0 0 1-3.907 1.412zm4.972 5.41c.027.199.045.4.063.635.015.208.085.473-.031.594-.095.099-.49.107-.708.127-1.643.14-3.525.32-5.02.454-.07 1.633.012 3.283.039 4.919.08 4.924.025 9.801.007 14.656-.026 6.49-.088 12.945-.13 19.417q2.417-.054 4.826-.097c.467-11.675.952-23.527 1.401-35.275.008-.205-.008-.427.032-.564.033-.111.153-.23.24-.342.088-.112.173-.231.257-.347.099-.137.35-.658.64-.55.22.083.09.357.009.47-.193.268-.29.388-.47.632-.076.109-.204.228-.226.331-.03.144-.01.35-.018.533a719 719 0 0 0-.227 5.934c-.026.735.068 1.502.143 2.225.928 8.927 1.766 17.983 2.662 26.776 1.606-.097 3.214-.191 4.817-.292-1.06-12.91-1.99-25.971-2.924-39.019-.334.017-.727.023-1.168.045-.3.015-.949.131-1.154.013-.159-.09-.13-.455-.142-.706l-.037-.712c-.959.038-1.894.053-2.866.101-.02-.003-.02.018-.018.04zM28.51 95.15q-.015.508-.008 1.033 2.256-.075 4.534-.171c-.01-.336.027-.707.009-1.003-1.514.038-3.01.058-4.523.094-.017.002-.014.023-.011.045zm9.524-.336c.05.437.07.904.114 1.346 1.546-.1 3.096-.12 4.608-.236q-.069-.684-.117-1.39c-1.53.094-3.074.18-4.605.278zM28.499 96.7c-.015.3-.008.62-.014.927 1.547-.128 2.363.552 2.848 1.6q.258.01.516-.01c.266-.738.628-1.389 1.148-1.898.008-.276.023-.548.019-.836q-2.263.097-4.505.17c-.016.001-.014.023-.012.045zm9.692-.026c.07.31-.023.554.057.822.03.098.205.263.293.365.323.373.603.711.819 1.158l3.044-.156a5 5 0 0 1 1.264-1.417c-.205-.187-.663-.142-.795-.4-.083-.16-.043-.373-.078-.633-1.564.08-3.013.127-4.593.22-.015-.004-.013.017-.01.039zm-5.679 2.16c-.083.184-.224.738-.398.825-.092.045-.283.033-.484.04-.476.014-.577 0-.744-.297-.197-.346-.424-.742-.688-.954-.362-.288-1.01-.407-1.674-.355a3.9 3.9 0 0 0-1.007.203c-.404.168-.718.582-.956.915a3.8 3.8 0 0 0-.574 1.26c2.325-.137 4.644-.255 6.939-.386a85 85 0 0 0 .05-1.992c-.192.22-.349.469-.463.738zm10.526-.069c-.111.16-.28.488-.413.538-.2.075-.58.044-.863.059l-1.758.09c-.266.013-.648.1-.85.028-.188-.072-.295-.416-.41-.602a4 4 0 0 0-.31-.44c-.026-.03-.062-.104-.112-.084.045.468.074.953.118 1.421 2.421-.072 4.86-.161 7.296-.251-.378-.782-.893-1.413-1.612-1.814a4.1 4.1 0 0 0-1.085 1.053z" clip-rule="evenodd"/>
      <path fill="#2253D5" fill-rule="evenodd" d="M30.951 23.475c.377-.069 1.079.118 1.043.478a.19.19 0 0 1-.144.172c-.244.06-.417-.258-.696-.253-.175.015-.344.07-.493.162-.138.077-.227.248-.43.205-.075-.015-.14-.136-.146-.175-.03-.215.226-.311.345-.382a1.4 1.4 0 0 1 .521-.207M31.166 27.078c.13-.025.253.107.295.137.252.185.554.286.866.29.202.003.441-.063.507.111.18.486-.942.296-1.16.21-.168-.064-.686-.294-.682-.556.003-.11.047-.168.174-.192M33.564 24.752a.32.32 0 0 1 .335.302l.02.41a.32.32 0 0 1-.176.32.32.32 0 0 1-.46-.287l-.02-.41a.32.32 0 0 1 .301-.335M31.086 24.725a.32.32 0 0 1 .335.302l.02.412a.318.318 0 0 1-.531.252.32.32 0 0 1-.105-.22l-.021-.411a.32.32 0 0 1 .302-.335" clip-rule="evenodd"/>
    </g>
    <path fill="#000" d="m81.41 101.289-2.552-4.258-22.731 13.619 2.55 4.257z"/>
    <path fill="#2B68E8" d="m76.282 107.624-5.505-9.19-27.127 16.245 5.504 9.191zM129.971 69.22a30.023 30.023 0 0 0-45.913-6.824 30.025 30.025 0 1 0 45.913 6.823m-45.62 27.323a23.15 23.15 0 1 1 39.722-23.79 23.15 23.15 0 0 1-39.723 23.79"/>
    <path fill="#000" d="M73.838 91.938a31.5 31.5 0 0 1 1.5-19.188 31.242 31.242 0 0 1 59.248 4.608 31.48 31.48 0 0 1-1.5 19.188 31.25 31.25 0 0 1-31.298 19.221 31.24 31.24 0 0 1-27.95-23.829m58.41-14.014a28.83 28.83 0 0 0-54.686-4.264 29.1 29.1 0 0 0-1.386 17.712 28.84 28.84 0 0 0 16.865 19.851 28.83 28.83 0 0 0 25.982-1.846 28.58 28.58 0 0 0 11.841-13.741 29.06 29.06 0 0 0 1.383-17.715zM80.526 90.333a24.54 24.54 0 0 1 1.169-14.965 24.36 24.36 0 0 1 46.203 3.595 24.55 24.55 0 0 1-1.169 14.964 24.36 24.36 0 0 1-9.77 11.456 24.362 24.362 0 0 1-36.433-15.05m45.035-10.81a21.96 21.96 0 0 0-23.075-16.788 21.961 21.961 0 1 0 23.075 16.788"/>
    <path fill="#fff" d="M117.911 107.518a26.45 26.45 0 0 0 10.951-12.71 26.59 26.59 0 0 0-1.779-23.855 26.65 26.65 0 0 0-24.852-12.89 26.66 26.66 0 0 0-22.67 16.43 26.62 26.62 0 0 0 1.78 23.856 26.65 26.65 0 0 0 16.385 12.16 26.67 26.67 0 0 0 20.185-2.989z"/>
    <path fill="#fff" d="M115.434 83.642c-1.073-8.702-6.721-15.642-14.002-18.331-6.409 4.38-10.204 12.48-9.131 21.183 1.072 8.702 6.721 15.642 14.002 18.334 6.408-4.382 10.204-12.48 9.131-21.186"/>
    <path fill="#000" d="M104.383 97.393c-8.84.19-17.14-4.444-21.145-11.8a1.1 1.1 0 0 1-.022-1.012c3.686-7.522 11.78-12.505 20.619-12.695s17.14 4.441 21.146 11.798a1.104 1.104 0 0 1 .022 1.012c-3.687 7.52-11.769 12.507-20.62 12.697M85.458 85.04c3.714 6.35 11.056 10.314 18.878 10.146s14.989-4.443 18.427-10.947c-3.714-6.35-11.058-10.317-18.88-10.15-7.823.169-14.987 4.447-18.425 10.951"/>
    <path fill="#000" d="M112.397 84.461c.095 4.447-3.538 8.139-8.114 8.237s-8.362-3.434-8.457-7.88c-.096-4.447 3.535-8.14 8.111-8.237 4.576-.099 8.364 3.428 8.46 7.88"/>
  </g>
  <defs>
    <clipPath id="82a">
      <path fill="#fff" d="M11 0h128v128H11z"/>
    </clipPath>
  </defs>
</svg>
