<svg xmlns="http://www.w3.org/2000/svg" fill="none" viewBox="0 0 192 192">
  <path fill="#000" d="M55.8 100.85H30.296a1.884 1.884 0 0 1 0-3.762H55.8a1.883 1.883 0 0 1 0 3.762M55.8 111.818H30.296a1.884 1.884 0 0 1 0-3.762H55.8a1.883 1.883 0 0 1 0 3.762M55.8 122.771H30.294a1.88 1.88 0 0 1 0-3.757H55.8a1.88 1.88 0 0 1 0 3.757M139.145 76.407H20.671a.705.705 0 0 0 0 1.41h118.474a.71.71 0 0 0 .705-.705.706.706 0 0 0-.705-.705M31.886 66.165a4.622 4.622 0 1 1-9.245 0 4.622 4.622 0 0 1 9.245 0M44.163 66.165a4.622 4.622 0 1 1-9.245 0 4.622 4.622 0 0 1 9.245 0M56.435 66.165a4.622 4.622 0 1 1-9.245 0 4.622 4.622 0 0 1 9.245 0"/>
  <path fill="#000" d="M10.212 139.846V62.624a11.82 11.82 0 0 1 11.804-11.809h114.46a11.82 11.82 0 0 1 11.804 11.81v77.221a11.816 11.816 0 0 1-11.804 11.804H22.016a11.815 11.815 0 0 1-11.804-11.804m11.804-85.455a8.25 8.25 0 0 0-8.234 8.233v77.222a8.243 8.243 0 0 0 8.234 8.233h114.46a8.242 8.242 0 0 0 8.234-8.233V62.624a8.25 8.25 0 0 0-8.234-8.233zM34.65 157.623v6.677a11.82 11.82 0 0 0 11.804 11.809h133.743A11.817 11.817 0 0 0 192 164.3v-6.677z"/>
  <path fill="#fff" d="M142.535 167.945h-26.392a2.134 2.134 0 0 1 0-4.265h26.387a2.13 2.13 0 0 1 1.576.587 2.135 2.135 0 0 1-1.576 3.678z"/>
  <path fill="#000" d="M144.71 133.199v6.647a8.24 8.24 0 0 1-8.234 8.234H22.016a8.243 8.243 0 0 1-8.234-8.234v-6.647h-3.57v6.647a11.814 11.814 0 0 0 11.804 11.804h114.46a11.816 11.816 0 0 0 11.804-11.804v-6.647zM2.115 117.971v-7.654a1.056 1.056 0 0 0-1.805-.747c-.199.198-.31.467-.31.747v7.654a1.057 1.057 0 1 0 2.115 0M2.115 103.735v-4.154a1.057 1.057 0 0 0-2.115 0v4.154a1.057 1.057 0 1 0 2.115 0M2.115 93.8v-1.853a1.057 1.057 0 0 0-2.115 0V93.8a1.057 1.057 0 0 0 2.115 0M2.115 87.063v-.972a1.058 1.058 0 0 0-2.115 0v.972a1.057 1.057 0 0 0 2.115 0M2.115 81.478v-.504a1.058 1.058 0 0 0-2.115 0v.504a1.057 1.057 0 0 0 2.115 0"/>
  <path fill="#2B68E8" d="M108.126 134.191h-5.398v-5.398a1.058 1.058 0 1 0-2.115 0v5.398h-5.398a1.055 1.055 0 0 0-1.058 1.058 1.056 1.056 0 0 0 1.058 1.057h5.398v5.398a1.058 1.058 0 1 0 2.115 0v-5.398h5.398a1.058 1.058 0 1 0 0-2.115"/>
  <path fill="#000" d="M60.5 33.67a1.057 1.057 0 0 0 .452 1.424l16.115 8.344a1.052 1.052 0 0 0 1.495-.624 1.06 1.06 0 0 0-.504-1.254l-16.114-8.344a1.05 1.05 0 0 0-1.445.453M109.682 2.217a1.05 1.05 0 0 0-.946.695c-.047.13-.068.269-.061.407l.821 18.129a1.058 1.058 0 0 0 2.115-.096l-.826-18.128a1.05 1.05 0 0 0-.695-.946 1.1 1.1 0 0 0-.408-.061M80.893 11.35a1.05 1.05 0 0 0-.323 1.461l9.77 15.278a1.053 1.053 0 0 0 1.46.323c.207-.135.358-.341.423-.58a1.05 1.05 0 0 0-.116-.886l-9.77-15.278a1.057 1.057 0 0 0-1.444-.317"/>
  <path fill="#2B68E8" d="M171.248 57.69a49.449 49.449 0 0 1-64.602 64.617 49.455 49.455 0 0 1-30.532-45.683 49.45 49.45 0 0 1 95.134-18.935"/>
  <path fill="#2B68E8" d="m106.277 117.382-33.391 17.287 17.287-33.391z"/>
  <path fill="#fff" d="M101.977 56.561a18.59 18.59 0 0 1 23.587 4.532 18.59 18.59 0 0 1 23.587-4.532c8.949 5.036 10.983 15.818 7.086 25.315-5.036 12.297-16.089 20.445-30.673 30.954-14.603-10.509-25.626-18.632-30.672-30.954-3.897-9.498-1.863-20.304 7.085-25.315"/>
  <path fill="#000" d="m125.564 115.006-1.007-.746c-13.909-10.021-25.924-18.682-31.272-31.725-4.532-11.078-1.304-22.368 7.851-27.52a20.35 20.35 0 0 1 24.453 3.42 20.35 20.35 0 0 1 24.428-3.41c9.155 5.152 12.388 16.467 7.851 27.52-5.348 13.033-17.363 21.694-31.272 31.725zm-14.488-59.074c-2.885.002-5.72.748-8.233 2.165a15.37 15.37 0 0 0-7.518 9.88c-1.038 4.114-.615 8.818 1.198 13.23 2.231 5.443 5.832 10.378 11.336 15.534 4.748 4.447 10.373 8.626 17.705 13.919 7.332-5.293 12.957-9.472 17.71-13.919 5.499-5.156 9.125-10.091 11.336-15.53 1.808-4.411 2.231-9.114 1.193-13.229a15.36 15.36 0 0 0-7.518-9.88 16.815 16.815 0 0 0-21.346 4.1l-1.375 1.706-1.365-1.712a16.73 16.73 0 0 0-13.123-6.264"/>
  <path fill="#2B68E8" d="m181.893 187.489-6.924-4.854a1.06 1.06 0 0 0-1.213 0l-6.315 4.431-6.32-4.431a1.06 1.06 0 0 0-1.213 0l-6.315 4.431-6.315-4.431a1.06 1.06 0 0 0-1.214 0l-6.319 4.431-6.315-4.431a1.06 1.06 0 0 0-1.214 0l-6.314 4.431-6.32-4.431a1.06 1.06 0 0 0-1.214 0l-6.924 4.854a1.07 1.07 0 0 0-.398 1.186 1.06 1.06 0 0 0 1.007.743c.219-.001.432-.07.61-.197l6.315-4.426 6.314 4.426a1.06 1.06 0 0 0 1.214 0l6.32-4.426 6.314 4.426a1.06 1.06 0 0 0 1.214 0l6.315-4.426 6.314 4.426a1.06 1.06 0 0 0 1.214 0l6.32-4.426 6.315 4.426a1.05 1.05 0 0 0 1.213 0l6.315-4.426 6.32 4.426a1.06 1.06 0 0 0 1.473-.259 1.055 1.055 0 0 0-.26-1.473M161.862 121.234a1.055 1.055 0 0 1-1.022-1.331c.056-.21.175-.397.342-.537a55.644 55.644 0 0 0-29.847-98.08 1.057 1.057 0 0 1 .217-2.105 57.77 57.77 0 0 1 30.985 101.812 1.07 1.07 0 0 1-.675.241M42.783 139.539c0 .025 1.626 2.307 4.099 2.422 1.51.071 2.865-.649 4.093-2.14 1.511-1.858 2.518-2.215 3.022-2.19.796.035 1.51 1.007 2.125 1.908 0 0 1.627 2.307 4.099 2.422 1.51.071 2.87-.649 4.094-2.14.922-1.118 1.838-1.672 2.734-1.656 1.375.03 2.433 1.389 2.453 1.415.167.225.418.374.695.414a1.054 1.054 0 0 0 1.2-.893c.04-.278-.03-.56-.198-.785-.07-.091-1.667-2.206-4.09-2.266-1.58-.036-3.07.78-4.425 2.427-.771.936-1.551 1.395-2.327 1.374-1.148-.03-2.206-1.117-2.518-1.51-.695-1.007-1.853-2.74-3.767-2.83-1.51-.071-3.066.901-4.763 2.961-.77.936-1.551 1.395-2.327 1.374-1.153-.03-2.205-1.117-2.518-1.51-.694-1.007-1.853-2.74-3.766-2.83-1.511-.071-3.067.901-4.764 2.961-.77.936-1.551 1.395-2.326 1.374-1.154-.03-2.206-1.118-2.518-1.51-.695-1.007-1.854-2.74-3.767-2.83-1.51-.071-3.067.901-4.764 2.961-.16.186-.245.424-.242.669a1.056 1.056 0 0 0 1.874.675c1.51-1.858 2.518-2.216 3.021-2.19.796.035 1.51 1.007 2.125 1.908 0 0 1.622 2.306 4.1 2.422 1.51.071 2.865-.649 4.093-2.14 1.511-1.858 2.518-2.216 3.022-2.19.901.05 1.616 1.002 2.23 1.923"/>
</svg>
