<svg xmlns="http://www.w3.org/2000/svg" width="150" height="128" fill="none" viewBox="0 0 150 128">
  <path fill="#2B68E8" d="M39.588 20.845s.864 1.225 2.187 1.288c.793.036 1.524-.344 2.174-1.137.82-.987 1.324-1.179 1.611-1.165.421.022.801.547 1.127 1.014 0 0 .86 1.225 2.187 1.288.79.036 1.523-.344 2.174-1.137q.736-.892 1.452-.88c.73.016 1.288.738 1.302.751a.56.56 0 1 0 .9-.67c-.036-.049-.884-1.17-2.169-1.203-.84-.022-1.64.413-2.352 1.288q-.612.745-1.233.73c-.613-.016-1.173-.596-1.324-.801-.369-.547-.984-1.452-2.001-1.501-.801-.039-1.64.475-2.53 1.572q-.612.745-1.233.73c-.612-.016-1.17-.596-1.323-.801-.37-.547-.985-1.452-2.002-1.501-.801-.039-1.64.475-2.53 1.572q-.612.745-1.233.73c-.612-.016-1.17-.596-1.323-.801-.37-.547-.985-1.452-2.002-1.501-.798-.039-1.627.475-2.526 1.572a.56.56 0 1 0 .867.714c.82-.988 1.32-1.179 1.607-1.165.424.022.804.547 1.127 1.014 0 0 .861 1.225 2.188 1.288.792.039 1.523-.344 2.187-1.137.82-.987 1.32-1.179 1.608-1.165.38.03.76.544 1.083 1.014M138.101 71.305l-9.639 2.043a.54.54 0 0 0-.273.13.59.59 0 0 0-.178.548.56.56 0 0 0 .248.363.57.57 0 0 0 .433.08l9.636-2.03a.58.58 0 0 0 .372-.244.57.57 0 0 0-.005-.646.57.57 0 0 0-.602-.233zM123.171 64.458a.58.58 0 0 0 .401.195.57.57 0 0 0 .42-.151l7.331-6.563a.57.57 0 0 0 .19-.397.58.58 0 0 0-.544-.605.58.58 0 0 0-.415.146l-7.328 6.563a.58.58 0 0 0-.197.394.58.58 0 0 0 .142.418M114.905 58.237l3.06-9.36a.584.584 0 0 0-.368-.726.58.58 0 0 0-.726.367l-3.06 9.36a.56.56 0 0 0 .033.44.57.57 0 0 0 .558.314.58.58 0 0 0 .503-.395"/>
  <path fill="#000" d="M100.325 92.856H39.001a6.33 6.33 0 0 1-6.325-6.325V35.8A6.333 6.333 0 0 1 39 29.472h61.324a6.33 6.33 0 0 1 6.324 6.327v50.73a6.33 6.33 0 0 1-6.324 6.326m-61.324-61.47A4.417 4.417 0 0 0 34.59 35.8v50.73A4.414 4.414 0 0 0 39 90.942h61.325a4.417 4.417 0 0 0 4.41-4.41V35.8a4.416 4.416 0 0 0-4.41-4.414z"/>
  <path fill="#2B68E8" d="M49.391 40.733H42.69a2.18 2.18 0 0 0-2.18 2.18v6.139a2.18 2.18 0 0 0 2.18 2.18h6.702a2.18 2.18 0 0 0 2.18-2.18v-6.14a2.18 2.18 0 0 0-2.18-2.179M65.14 40.733h-6.703a2.18 2.18 0 0 0-2.18 2.18v6.139a2.18 2.18 0 0 0 2.18 2.18h6.703a2.18 2.18 0 0 0 2.179-2.18v-6.14a2.18 2.18 0 0 0-2.18-2.179M80.888 40.733h-6.703a2.18 2.18 0 0 0-2.18 2.18v6.139a2.18 2.18 0 0 0 2.18 2.18h6.703a2.18 2.18 0 0 0 2.179-2.18v-6.14a2.18 2.18 0 0 0-2.18-2.179M96.633 40.733H89.93a2.18 2.18 0 0 0-2.179 2.18v6.139a2.18 2.18 0 0 0 2.18 2.18h6.702a2.18 2.18 0 0 0 2.179-2.18v-6.14a2.18 2.18 0 0 0-2.18-2.179M49.391 56.38H42.69a2.18 2.18 0 0 0-2.18 2.18v6.139a2.18 2.18 0 0 0 2.18 2.179h6.702a2.18 2.18 0 0 0 2.18-2.18V58.56a2.18 2.18 0 0 0-2.18-2.18M65.14 56.38h-6.703a2.18 2.18 0 0 0-2.18 2.18v6.139a2.18 2.18 0 0 0 2.18 2.179h6.703a2.18 2.18 0 0 0 2.179-2.18V58.56a2.18 2.18 0 0 0-2.18-2.18"/>
  <path fill="#000" fill-rule="evenodd" d="M80.928 58.092h-6.703a.7.7 0 0 0-.702.703v6.139c0 .388.314.702.702.702h6.703a.703.703 0 0 0 .702-.702v-6.14a.7.7 0 0 0-.703-.702m-6.703-1.477h6.703a2.18 2.18 0 0 1 2.179 2.18v6.139a2.18 2.18 0 0 1-2.18 2.18h-6.702a2.18 2.18 0 0 1-2.18-2.18v-6.14a2.18 2.18 0 0 1 2.18-2.179" clip-rule="evenodd"/>
  <path fill="#2B68E8" d="M96.633 56.38H89.93a2.18 2.18 0 0 0-2.179 2.18v6.139a2.18 2.18 0 0 0 2.18 2.179h6.702a2.18 2.18 0 0 0 2.179-2.18V58.56a2.18 2.18 0 0 0-2.18-2.18"/>
  <path fill="#000" fill-rule="evenodd" d="M80.888 73.709h-6.703a.7.7 0 0 0-.702.702v6.14c0 .387.314.702.702.702h6.703a.7.7 0 0 0 .702-.703v-6.139a.7.7 0 0 0-.703-.702m-6.703-1.477h6.703a2.18 2.18 0 0 1 2.179 2.18v6.138a2.18 2.18 0 0 1-2.18 2.18h-6.702a2.18 2.18 0 0 1-2.18-2.18v-6.139a2.18 2.18 0 0 1 2.18-2.18" clip-rule="evenodd"/>
  <path fill="#2B68E8" d="M96.633 72.232H89.93a2.18 2.18 0 0 0-2.179 2.18v6.138a2.18 2.18 0 0 0 2.18 2.18h6.702a2.18 2.18 0 0 0 2.179-2.18v-6.139a2.18 2.18 0 0 0-2.18-2.18"/>
  <path fill="#000" fill-rule="evenodd" d="M49.391 73.501H42.69a.7.7 0 0 0-.702.703v6.139c0 .388.314.702.702.702h6.702a.7.7 0 0 0 .703-.702v-6.14a.7.7 0 0 0-.703-.702m-6.702-1.477h6.702a2.18 2.18 0 0 1 2.18 2.18v6.139a2.18 2.18 0 0 1-2.18 2.179H42.69a2.18 2.18 0 0 1-2.18-2.18v-6.138a2.18 2.18 0 0 1 2.18-2.18M65.14 73.501h-6.703a.7.7 0 0 0-.702.703v6.139c0 .388.314.702.702.702h6.703a.7.7 0 0 0 .702-.702v-6.14a.7.7 0 0 0-.703-.702m-6.703-1.477h6.703a2.18 2.18 0 0 1 2.179 2.18v6.139a2.18 2.18 0 0 1-2.18 2.179h-6.702a2.18 2.18 0 0 1-2.18-2.18v-6.138a2.18 2.18 0 0 1 2.18-2.18" clip-rule="evenodd"/>
  <path fill="#000" d="M45.634 36.328a.67.67 0 1 1 0-1.34c1.641 0 3.008-2.092 3.008-4.57 0-2.477-1.367-4.569-3.008-4.569-1.64 0-3.008 2.092-3.008 4.57a.67.67 0 0 1-1.34 0 7.2 7.2 0 0 1 1.198-4.102c.82-1.173 1.942-1.819 3.148-1.819 1.205 0 2.324.646 3.15 1.819a7.58 7.58 0 0 1 0 8.179c-.823 1.184-1.94 1.832-3.148 1.832M61.656 36.328a.67.67 0 0 1 0-1.34c1.64 0 3.008-2.092 3.008-4.57 0-2.477-1.367-4.569-3.008-4.569-1.64 0-3.008 2.092-3.008 4.57a.67.67 0 0 1-1.34 0 7.16 7.16 0 0 1 1.198-4.102c.82-1.173 1.941-1.819 3.147-1.819s2.324.646 3.147 1.819a7.57 7.57 0 0 1 0 8.179c-.82 1.184-1.938 1.832-3.144 1.832M77.677 36.328a.67.67 0 0 1 0-1.34c1.64 0 3.008-2.092 3.008-4.57 0-2.477-1.367-4.569-3.008-4.569-1.64 0-3.008 2.092-3.008 4.57a.67.67 0 1 1-1.34 0 7.16 7.16 0 0 1 1.2-4.102c.821-1.173 1.94-1.819 3.148-1.819s2.324.646 3.148 1.819a7.58 7.58 0 0 1 0 8.179c-.824 1.184-1.942 1.832-3.148 1.832M93.696 36.328a.67.67 0 1 1 0-1.34c1.64 0 3.008-2.092 3.008-4.57 0-2.477-1.367-4.569-3.008-4.569-1.64 0-3.008 2.092-3.008 4.57a.67.67 0 0 1-1.34 0 7.16 7.16 0 0 1 1.198-4.102c.82-1.173 1.941-1.819 3.147-1.819s2.325.646 3.15 1.819a7.58 7.58 0 0 1 0 8.179c-.823 1.184-1.939 1.832-3.147 1.832"/>
  <path fill="#2B68E8" d="m108.068 106.082-3.76-2.636a.57.57 0 0 0-.659 0l-3.429 2.404-3.43-2.404a.58.58 0 0 0-.66 0l-3.43 2.404-3.429-2.404a.57.57 0 0 0-.659 0l-3.432 2.404-3.429-2.404a.57.57 0 0 0-.659 0l-3.429 2.404-3.429-2.404a.58.58 0 0 0-.662 0l-3.757 2.636a.576.576 0 0 0 .23 1.036.57.57 0 0 0 .43-.095l3.428-2.406 3.43 2.406a.57.57 0 0 0 .658 0l3.432-2.406 3.43 2.406a.57.57 0 0 0 .658 0l3.43-2.406 3.431 2.406a.57.57 0 0 0 .659 0l3.429-2.406 3.429 2.406a.57.57 0 0 0 .659 0l3.432-2.406 3.429 2.406a.573.573 0 1 0 .659-.941M22.273 60.042V48.879a.687.687 0 0 0-1.367 0v11.163a.686.686 0 1 0 1.367 0"/>
  <path fill="#2B68E8" d="M27.168 53.774H16.006a.686.686 0 0 0 0 1.367h11.162a.687.687 0 1 0 0-1.367"/>
  <path fill="#fff" d="M33.417 70.198c.547-1.119.257-2.595-.82-3.25-1.203-.721-2.69.026-3.282 1.21a38 38 0 0 0-3.708 13.945c1.532.072 3.058.145 4.586.228a33.3 33.3 0 0 1 3.224-12.133"/>
  <path fill="#000" d="M25.024 82.62a.78.78 0 0 1-.191-.563 38.5 38.5 0 0 1 3.782-14.22c.364-.721.961-1.3 1.695-1.64a2.83 2.83 0 0 1 2.666.112c1.367.82 1.873 2.734 1.121 4.241a32.6 32.6 0 0 0-3.142 11.846.766.766 0 0 1-.804.708c-1.476-.079-3.008-.156-4.577-.23a.7.7 0 0 1-.293-.07.8.8 0 0 1-.257-.184m7.7-12.753c.4-.804.154-1.835-.546-2.25a1 1 0 0 0-.112-.058c-.777-.37-1.71.191-2.092.949a37 37 0 0 0-3.555 12.885l3.054.153a34 34 0 0 1 3.252-11.68"/>
  <path fill="#fff" d="M46.88 81.374a2.316 2.316 0 0 0-3.067-.476c1.293-1.048 1.8-2.346 1.036-3.555-.714-1.13-2.24-1.192-3.248-.522.855-.788 1.137-2.147.374-3.063-.853-1.028-2.483-.943-3.497-.142 3.008-2.754 4.714-3.913 7.358-5.445 1.132-.615 1.748-1.739 1.27-2.917-.652-1.608-2.205-1.641-3.343-1.031-9.978 5.997-17.311 13.251-24.722 23.94a352 352 0 0 1 14.66 10.05 63 63 0 0 1 12.797-13.777 2.22 2.22 0 0 0 .383-3.062"/>
  <path fill="#000" d="M33.253 98.836a337 337 0 0 0-14.63-10.028.767.767 0 0 1-.213-1.077c7.635-11.01 15.1-18.236 24.96-24.162l.036-.02a3.67 3.67 0 0 1 2.05-.437 2.79 2.79 0 0 1 2.358 1.854c.596 1.469-.05 3.025-1.6 3.875a34 34 0 0 0-5.118 3.503 2.86 2.86 0 0 1 1.468.927 2.79 2.79 0 0 1 .566 2.354l.232.017a2.8 2.8 0 0 1 2.133 1.296 2.89 2.89 0 0 1 .186 2.871c.717.13 1.36.519 1.808 1.094a2.99 2.99 0 0 1-.509 4.129A62.2 62.2 0 0 0 34.333 98.65a.77.77 0 0 1-.503.317 1 1 0 0 1-.205 0 .8.8 0 0 1-.372-.131M44.229 81.55a.765.765 0 0 1-.897-1.239c1.354-1.093 1.223-1.99.87-2.546a1.29 1.29 0 0 0-.993-.59 1.85 1.85 0 0 0-1.184.295.766.766 0 0 1-.94-1.2c.546-.495.806-1.403.303-2.01a1.37 1.37 0 0 0-.946-.47 2.14 2.14 0 0 0-1.488.437.766.766 0 0 1-.992-1.165c3.068-2.805 4.79-3.976 7.492-5.54h.017c.68-.37 1.282-1.094.924-1.96a1.28 1.28 0 0 0-1.094-.906 2.13 2.13 0 0 0-1.165.257c-9.458 5.69-16.68 12.615-24.017 23.063a351 351 0 0 1 13.4 9.185 63.4 63.4 0 0 1 12.499-13.295 1.427 1.427 0 0 0-.76-2.551 1.6 1.6 0 0 0-1.029.235"/>
  <path fill="#2B68E8" d="m20.212 85.57-.421.668c-.257.413-.621.998-1.042 1.7A115 115 0 0 0 15.79 93.2c-.254.5-.511.993-.76 1.49l-.364.744c-.12.246-.24.484-.355.733-.227.492-.448.962-.654 1.422l-.571 1.318c-.17.424-.325.82-.465 1.159q-.104.262-.191.487c-.058.15-.113.306-.16.438l-.294.82 18.116 6.226s.063-.169.167-.464l.087-.244c.038-.093.076-.197.12-.303.088-.219.186-.468.296-.736a57 57 0 0 1 2.001-4.208 89 89 0 0 1 2.423-4.307c.347-.583.643-1.056.845-1.384l.312-.495z"/>
  <path fill="#2B68E8" d="M29.952 109.058a1.024 1.024 0 0 1-.82-1.357l.251-.702s0-.028.014-.039l.415-1.039v-.016a59 59 0 0 1 2.043-4.291 94 94 0 0 1 2.448-4.356c.243-.402.456-.754.634-1.039L20.52 86.985c-.274.432-.564.913-.9 1.476-.596.996-1.766 2.99-2.929 5.21l-.23.459c-.172.334-.347.678-.516 1.012l-.361.738q-.059.12-.118.243c-.079.159-.153.31-.224.463l-.216.465c-.153.33-.298.64-.435.946l-.547 1.299-.645 1.616-.448 1.249a1.02 1.02 0 0 1-1.915-.689l.457-1.266v-.027l.662-1.655a.1.1 0 0 1 0-.027l.569-1.315c.145-.323.292-.643.45-.982l.211-.451q.121-.267.246-.517l.115-.232.367-.752c.177-.353.358-.703.53-1.04l.238-.464a111 111 0 0 1 4.036-7.028l.424-.675a1.02 1.02 0 0 1 1.414-.312l16.133 10.334a1.02 1.02 0 0 1 .312 1.405l-.312.492c-.188.306-.484.78-.82 1.367-.49.82-1.45 2.462-2.393 4.258a56 56 0 0 0-1.963 4.121l-.405 1.012-.249.694a1.024 1.024 0 0 1-1.107.646"/>
  <path fill="#000" d="M21.803 102.008h-.03a.44.44 0 0 1-.244-.248.45.45 0 0 1 .003-.348c.11-.257 2.705-6.363 5.056-9.281a.453.453 0 1 1 .706.569c-2.272 2.82-4.9 9.005-4.922 9.067a.452.452 0 0 1-.569.241"/>
  <path fill="#000" d="M15.643 100.479a.453.453 0 0 1-.057-.883c2.406-.69 5.452-.747 9.053-.17 1.585.248 3.152.606 4.687 1.072a.453.453 0 0 1-.273.864c-.08-.024-7.766-2.46-13.216-.896a.5.5 0 0 1-.194.013M29.77 99.692a.45.45 0 0 1-.229-.107c-.054-.05-5.573-4.807-11.378-5.277a.453.453 0 1 1 .071-.903c6.112.492 11.67 5.291 11.903 5.496a.454.454 0 0 1-.366.79"/>
  <path fill="#fff" d="M129.397 90.028a.66.66 0 0 0 .438-.451 1.34 1.34 0 0 0 0-.82l-.107-.331q-.051-.165-.128-.4c-.052-.155-.118-.333-.189-.546a27.5 27.5 0 0 0-1.395-3.257 29 29 0 0 0-4.432-6.431 34 34 0 0 0-2.021-2.019 33 33 0 0 0-4.34-3.333 37 37 0 0 0-4.025-2.256 42 42 0 0 0-2.926-1.274l-.82-.312-.295-.107-.148-.04-.189-.066a3.33 3.33 0 0 0-2.379.03 2.28 2.28 0 0 0-1.367 1.506 2.3 2.3 0 0 0-.022 1.064l-.074-.019a2.93 2.93 0 0 0-2.223.257 2.31 2.31 0 0 0-1.154 1.605 2.6 2.6 0 0 0 .202 1.518c.211.464.54.865.955 1.162-.286.315-.484.7-.574 1.116a2.8 2.8 0 0 0 .109 1.597c.174.474.484.887.891 1.186a2.8 2.8 0 0 0-.546 1.045 3 3 0 0 0 .101 1.914 2 2 0 0 0 1.14 1.17s.238.085.588.22c.35.133.82.325 1.26.53s.884.418 1.206.585l.383.205.142.08a.5.5 0 0 0 .104.043l.121.069.339.2c.287.174.694.426 1.151.748q.766.534 1.468 1.152.766.672 1.431 1.443a12.7 12.7 0 0 1 2.4 4.181c.052.137.08.252.107.326s.82 2.392.82 2.392c.082.274 1.4-.494 1.811-.604z"/>
  <path fill="#000" d="M115.482 96.555a.86.86 0 0 1-.84-.582l-.82-2.385c0-.035-.025-.073-.038-.12a13.03 13.03 0 0 0-.482-1.25q-.33-.722-.749-1.397a12.6 12.6 0 0 0-2.461-2.847q-.67-.584-1.397-1.093c-.435-.304-.821-.547-1.094-.72l-.383-.221a2 2 0 0 1-.164-.077l-.137-.079-.374-.2a24 24 0 0 0-2.382-1.077l-.446-.167-.126-.046a2.76 2.76 0 0 1-1.588-1.6 3.76 3.76 0 0 1-.129-2.412q.097-.376.274-.722a3.4 3.4 0 0 1-.61-1.036 3.56 3.56 0 0 1-.14-2.037 3.3 3.3 0 0 1 .307-.82 3.7 3.7 0 0 1-.638-.966 3.36 3.36 0 0 1-.259-1.969 3.09 3.09 0 0 1 1.528-2.135 3.6 3.6 0 0 1 1.887-.465q.024-.187.074-.37a3.04 3.04 0 0 1 1.805-2.015 3.9 3.9 0 0 1 1.498-.292c.487 0 .97.083 1.43.243l.151.055q.095.02.186.055l.303.109a41.803 41.803 0 0 1 3.828 1.616c1.415.68 2.784 1.45 4.102 2.302a33.6 33.6 0 0 1 4.438 3.41 34 34 0 0 1 2.07 2.07c.613.67 1.231 1.417 1.835 2.22a29.4 29.4 0 0 1 4.148 7.723l.061.172c.049.14.095.274.134.38l.237.739c.137.419.137.871 0 1.29a1.42 1.42 0 0 1-.902.927l-12.215 5.108-.052.014a6 6 0 0 0-.522.227c-.596.268-.998.44-1.348.44m-.304-3.793q.058.162.088.274a1 1 0 0 1 .022.068v.017l.593 1.753.334-.154q.348-.17.716-.298l12.171-5.089a.55.55 0 0 0-.013-.322l-.233-.728c-.033-.098-.076-.213-.12-.339l-.063-.175a27 27 0 0 0-1.367-3.163 28 28 0 0 0-2.574-4.154 29 29 0 0 0-1.739-2.108 32 32 0 0 0-1.971-1.972 32 32 0 0 0-4.241-3.254 36 36 0 0 0-3.944-2.21c-.954-.459-1.914-.88-2.871-1.25a26 26 0 0 0-.82-.303l-.298-.11-.055-.013h-.044l-.229-.08a2.8 2.8 0 0 0-.925-.158 2.4 2.4 0 0 0-.902.172 1.52 1.52 0 0 0-.921.996 1.55 1.55 0 0 0-.014.714l.257 1.225-1.283-.35a2.3 2.3 0 0 0-.612-.082c-.36-.001-.714.093-1.026.273a1.53 1.53 0 0 0-.782 1.075c-.061.362-.011.736.145 1.069.154.34.396.634.7.85l.706.5-.58.64a1.7 1.7 0 0 0-.396.772c-.088.386-.06.79.082 1.16.121.327.336.612.618.82l.681.486-.547.635a2 2 0 0 0-.394.749c-.121.464-.089.956.093 1.4a1.27 1.27 0 0 0 .678.736c.109.035.287.103.615.23a25 25 0 0 1 2.543 1.15l.517.274h.052l.35.2.216.125c.306.189.722.446 1.192.777q.8.56 1.534 1.203.807.71 1.507 1.526.674.784 1.225 1.66.473.76.842 1.575c.233.517.391.957.487 1.209"/>
  <path fill="#fff" d="M94.56 94.455c10.505 0 19.021-8.516 19.021-19.02 0-10.506-8.516-19.022-19.02-19.022-10.506 0-19.022 8.516-19.022 19.021s8.516 19.021 19.021 19.021"/>
  <path fill="#000" d="M94.56 95.194a19.759 19.759 0 1 1 19.76-19.757 19.78 19.78 0 0 1-19.76 19.757m0-38.04a18.282 18.282 0 1 0 18.283 18.283A18.304 18.304 0 0 0 94.56 57.154"/>
  <path fill="#2B68E8" d="m91.569 88.453-9.338-9.335 3.286-3.287 6.052 6.048 14.927-14.927 3.287 3.287z"/>
  <path fill="#fff" d="M108.408 76.468c4.164-.547 6.995-.61 11.146.653l.057 14.698c-3.399-1.805-4.269-6.486-2.953-10.424-2.959-.87-4.766-.743-7.657-.273-1.118.216-2.122-.345-2.417-1.827-.323-1.616.678-2.62 1.824-2.827"/>
  <path fill="#000" d="M119.61 92.536a.72.72 0 0 0 .701-.542.715.715 0 0 0-.362-.81c-3.205-1.7-3.735-6.195-2.611-9.57a.72.72 0 0 0-.225-.782.7.7 0 0 0-.254-.134c-2.967-.872-4.856-.798-7.976-.3-.859.166-1.406-.274-1.6-1.258a1.7 1.7 0 0 1-.034-.683c.036-.228.117-.446.239-.641a1.6 1.6 0 0 1 1.034-.648c4.115-.547 6.787-.596 10.823.632a.715.715 0 0 0 .97-.752.72.72 0 0 0-.554-.616c-4.269-1.299-7.206-1.247-11.45-.678h-.03a3.05 3.05 0 0 0-1.98 1.255 3.107 3.107 0 0 0-.426 2.41c.35 1.766 1.641 2.707 3.257 2.392 2.674-.427 4.301-.52 6.628.074a11.44 11.44 0 0 0-.09 5.69c.547 2.202 1.837 3.933 3.604 4.868.103.058.218.09.336.093"/>
  <path fill="#2B68E8" d="m129.777 85.57.421.668c.257.413.621.998 1.042 1.7a112 112 0 0 1 2.956 5.262c.257.5.514.993.76 1.49l.367.744c.12.246.24.484.353.733.229.492.451.962.656 1.422l.571 1.318c.17.424.326.82.465 1.159l.192.487q.085.24.158.438l.296.82-18.119 6.226-.167-.464q-.039-.11-.085-.244l-.123-.303c-.085-.219-.186-.468-.292-.736a59 59 0 0 0-2.002-4.208 89 89 0 0 0-2.423-4.307c-.347-.583-.642-1.056-.845-1.384l-.312-.495z"/>
  <path fill="#2B68E8" d="M120.037 109.057q.106-.016.205-.051a1.03 1.03 0 0 0 .577-.525 1.02 1.02 0 0 0 .036-.78l-.249-.703-.016-.038-.413-1.039a.02.02 0 0 1 0-.016 59 59 0 0 0-2.043-4.291 83 83 0 0 0-2.461-4.356 104 104 0 0 0-.632-1.039l14.417-9.234c.273.432.563.913.899 1.476.596.996 1.767 2.99 2.929 5.21l.238.462c.172.333.347.678.517 1.011l.36.739q.06.12.118.243c.079.159.153.31.224.462l.216.465c.151.33.296.64.432.946l.564 1.3.645 1.615.449 1.25a1.016 1.016 0 0 0 1.277.544 1.02 1.02 0 0 0 .637-1.233l-.457-1.266v-.028l-.662-1.654V98.5l-.571-1.316a79 79 0 0 0-.451-.981l-.211-.452c-.079-.177-.164-.35-.246-.516l-.115-.233-.369-.752c-.175-.353-.356-.703-.528-1.039l-.238-.465a112 112 0 0 0-2.986-5.313c-.399-.667-.741-1.22-1.05-1.714l-.427-.676a1.017 1.017 0 0 0-1.41-.312l-16.134 10.334a1.025 1.025 0 0 0-.312 1.406l.312.492a94.498 94.498 0 0 1 3.227 5.625c.741 1.411 1.474 2.95 1.96 4.121l.408 1.011.246.695a1.02 1.02 0 0 0 1.088.642"/>
  <path fill="#000" d="M128.185 102.008h.03a.45.45 0 0 0 .244-.248.4.4 0 0 0 .033-.175.4.4 0 0 0-.036-.173c-.109-.257-2.704-6.363-5.056-9.281a.453.453 0 0 0-.705.569c2.272 2.819 4.9 9.004 4.922 9.067a.45.45 0 0 0 .568.241"/>
  <path fill="#000" d="M134.333 100.479a.45.45 0 0 0 .393-.417.45.45 0 0 0-.333-.466c-2.409-.69-5.469-.747-9.053-.17a34.4 34.4 0 0 0-4.687 1.072.454.454 0 0 0 .273.864c.079-.024 7.766-2.46 13.216-.896a.44.44 0 0 0 .191.013M120.215 99.692a.46.46 0 0 0 .233-.107c.054-.049 5.572-4.807 11.378-5.277a.454.454 0 0 0-.071-.903c-6.115.492-11.671 5.291-11.904 5.497a.454.454 0 0 0 .364.79"/>
</svg>
