<svg xmlns="http://www.w3.org/2000/svg" width="150" height="128" fill="none" viewBox="0 0 150 128">
  <path fill="#fff" d="M11 0h128v128H11z"/>
  <path fill="#2B68E8" d="M97.741 86.298a14.102 14.102 0 1 1 14.103-14.099 14.113 14.113 0 0 1-14.103 14.099m0-25.913a11.815 11.815 0 1 0 11.819 11.814 11.845 11.845 0 0 0-11.819-11.814"/>
  <path fill="#fff" d="M78.42 68.722c1.602-1.074 2.334-3.29 1.37-5-1.062-1.89-3.634-2.022-5.339-.884a58.6 58.6 0 0 0-15.65 15.93q2.998 1.89 5.989 3.807a51.6 51.6 0 0 1 13.63-13.853"/>
  <path fill="#000" d="M57.642 79.014a1.18 1.18 0 0 1 .173-.905A59.6 59.6 0 0 1 73.78 61.866a5.53 5.53 0 0 1 3.528-.9 4.4 4.4 0 0 1 3.274 1.826q.121.174.224.36c1.218 2.157.423 5.097-1.73 6.56A50.4 50.4 0 0 0 65.759 83.25a1.184 1.184 0 0 1-1.624.338c-1.925-1.23-3.934-2.513-5.986-3.807a1.4 1.4 0 0 1-.334-.321 1.2 1.2 0 0 1-.173-.445m20.1-11.264c1.155-.778 1.616-2.352 1.003-3.435a2 2 0 0 0-.106-.165c-.765-1.091-2.445-1.049-3.54-.325A57.2 57.2 0 0 0 60.45 78.43c1.358.846 2.695 1.692 3.993 2.538a52.8 52.8 0 0 1 13.3-13.219"/>
  <path fill="#fff" d="M88.095 93.874a3.583 3.583 0 0 0-3.76-2.986c2.538-.423 4.209-1.777 4.103-3.985-.093-2.064-2.115-3.312-3.964-3.185 1.752-.423 3.169-2.018 2.843-3.833-.364-2.034-2.614-3.168-4.594-2.863 6.15-1.4 9.331-1.658 14.06-1.692 1.993.038 3.676-1.007 3.934-2.961.356-2.657-1.713-3.88-3.705-3.938-18.003.423-33.417 4.585-51.55 13.295a523 523 0 0 1 12.034 24.719 97.2 97.2 0 0 1 27.74-8.739 3.44 3.44 0 0 0 2.86-3.832"/>
  <path fill="#000" d="M56.309 107.126a539 539 0 0 0-12.01-24.67 1.186 1.186 0 0 1 .542-1.611c18.68-8.968 34.242-12.977 52.029-13.409h.063c1.105.02 2.18.36 3.093.981a4.32 4.32 0 0 1 1.755 4.298c-.326 2.428-2.377 4.027-5.118 3.985a52.2 52.2 0 0 0-9.56.8 4.4 4.4 0 0 1 1.269 2.368 4.31 4.31 0 0 1-1.024 3.57q.157.09.3.199a4.31 4.31 0 0 1 1.883 3.384 4.47 4.47 0 0 1-1.946 4.001 4.57 4.57 0 0 1 1.59 2.86 4.62 4.62 0 0 1-3.836 5.165 96.3 96.3 0 0 0-27.423 8.641 1.2 1.2 0 0 1-1.197-.101 1.2 1.2 0 0 1-.41-.461M84.29 92.262a1.184 1.184 0 0 1-.258-2.352c2.66-.423 3.164-1.747 3.117-2.762a2 2 0 0 0-.884-1.553 2.9 2.9 0 0 0-1.818-.507 1.184 1.184 0 0 1-.347-2.335c1.1-.254 2.157-1.27 1.945-2.47a2.17 2.17 0 0 0-.909-1.358 3.3 3.3 0 0 0-2.34-.542 1.189 1.189 0 0 1-.443-2.33c6.269-1.426 9.483-1.692 14.31-1.722h.03c1.2.021 2.537-.478 2.74-1.933a1.99 1.99 0 0 0-.774-2.056 3.3 3.3 0 0 0-1.764-.541c-17.068.423-32.067 4.23-49.913 12.651A543 543 0 0 1 57.98 105.05a98 98 0 0 1 26.97-8.325 2.204 2.204 0 0 0 .926-4.014 2.46 2.46 0 0 0-1.586-.465z"/>
  <path fill="#2B68E8" d="m39.69 124.046-24.725-19.119c14.843-19.42 36.378-27.419 36.378-27.419l11.996 28.857s-15.515 6.675-23.645 17.681z"/>
  <path fill="#000" d="M25.629 99.889a.698.698 0 0 1 .49-1.27c3.829.588 8.148 2.479 12.83 5.622a53 53 0 0 1 5.892 4.535.69.69 0 0 1 .189.755.7.7 0 0 1-.63.462.7.7 0 0 1-.506-.181c-.093-.089-9.306-8.46-17.99-9.809a.65.65 0 0 1-.275-.115M45.98 107.918a.7.7 0 0 1-.259-.301c-.046-.106-4.72-10.363-12.575-14.775a.702.702 0 0 1 .69-1.222c8.265 4.652 12.973 14.986 13.167 15.422a.702.702 0 0 1-1.023.876"/>
  <path fill="#2B68E8" d="m38.763 125.227.03.025a1.477 1.477 0 0 0 2.043-.288l.025-.029v-.03c7.792-10.545 22.888-17.131 23.04-17.195a1.48 1.48 0 0 0 .783-1.929l-12-28.86a1.476 1.476 0 0 0-1.882-.817c-.225.08-5.6 2.115-12.876 6.552-6.713 4.103-16.354 11.142-24.158 21.357a1.48 1.48 0 0 0 .267 2.069 1.48 1.48 0 0 0 2.076-.275c7.513-9.826 16.806-16.62 23.287-20.592a88 88 0 0 1 11.15-5.799L61.436 105.6c-4.006 1.903-15.964 8.125-22.927 17.545l-.02.03a1.476 1.476 0 0 0 .274 2.052"/>
  <path fill="#000" d="M29.136 110.971a.74.74 0 0 0 1.028-.118c8.989-11.083 21.29-16.624 21.412-16.679a.74.74 0 0 0-.6-1.354c-.128.056-12.75 5.745-21.963 17.098a.74.74 0 0 0 .106 1.041zM131.81 75.802l-12.326.026a.719.719 0 1 0 .003 1.437l12.326-.026a.72.72 0 0 0 .494-1.221.72.72 0 0 0-.497-.216M115.274 63.61a.73.73 0 0 0 .438.342.72.72 0 0 0 .55-.075l10.655-6.182a.716.716 0 0 0 .259-.983.72.72 0 0 0-.983-.258l-10.655 6.182a.72.72 0 0 0-.264.974M106.749 53.882l6.155-10.695a.717.717 0 0 0-.971-.986.7.7 0 0 0-.264.26l-6.141 10.687a.719.719 0 0 0 1.247.719z"/>
  <path fill="#2B68E8" d="m90.545 126.508 4.705-3.302a.72.72 0 0 1 .825 0l4.291 3.011 4.291-3.011a.73.73 0 0 1 .828 0l4.291 3.011 4.291-3.011a.72.72 0 0 1 .824 0l4.291 3.011 4.291-3.011a.73.73 0 0 1 .828 0l4.291 3.011 4.291-3.011a.72.72 0 0 1 .825 0l4.705 3.302a.7.7 0 0 1 .328.467.73.73 0 0 1-.116.558.71.71 0 0 1-.777.28.7.7 0 0 1-.26-.132l-4.291-2.994-4.301 2.994a.71.71 0 0 1-.825 0l-4.284-2.994-4.291 3.008a.71.71 0 0 1-.824 0l-4.295-3.008-4.301 2.994a.71.71 0 0 1-.825 0l-4.28-2.994-4.291 3.008a.72.72 0 0 1-.825 0l-4.294-3.008-4.305 2.994a.717.717 0 0 1-.825-1.173z"/>
  <path fill="#000" d="M73.314 5.884h19.567a1.76 1.76 0 0 1 1.76 1.76v19.578a1.76 1.76 0 0 1-1.76 1.76H73.318a1.764 1.764 0 0 1-1.764-1.76V7.655a1.76 1.76 0 0 1 1.76-1.771"/>
  <path fill="#fff" d="M92.881 7.124H73.318a.524.524 0 0 0-.524.524V27.21c0 .29.234.524.524.524H92.88c.29 0 .524-.235.524-.524V7.648a.524.524 0 0 0-.524-.524"/>
  <path fill="#2B68E8" d="M83.243 24.069a1.72 1.72 0 0 1-1.339-.637l-5.928-7.245a1.728 1.728 0 0 1 2.677-2.182l4.517 5.525L94.59 4.087a1.731 1.731 0 0 1 2.783 2.055l-12.73 17.232a1.72 1.72 0 0 1-1.35.698zM45.627 45.538h-.104a2 2 0 0 1-.278-.055c-2.75-.719-6.076-2.613-8.854-5.065-3.053-2.7-5.04-5.653-5.598-8.321a6.88 6.88 0 0 1 2.407-6.774c1.2-.942 2.734-1.11 4.432-.485 3.755 1.376 5.278 7.507 5.653 9.353 0 .048 1.063 4.972 4.976 4.308a.929.929 0 0 1 .31 1.83 5.42 5.42 0 0 1-5.159-1.809 8.9 8.9 0 0 1-1.956-3.958c-.688-3.31-2.208-7.148-4.47-7.98-1.094-.403-1.96-.344-2.648.203a5.01 5.01 0 0 0-1.743 4.934c1.01 4.869 8.053 10.66 13.107 11.97a.94.94 0 0 1 .826 1.03.925.925 0 0 1-.901.819M41.274 48.038a1 1 0 0 1-.344-.062c-1.767-.687-4.972-2.273-6.533-5.24a.929.929 0 1 1 1.643-.863c1.276 2.428 4.027 3.782 5.554 4.37a.928.928 0 0 1-.344 1.795zM33.482 47.258a.93.93 0 0 1-.818-.492c-1.517-2.84-1.699-6.13-1.671-7.84a.93.93 0 0 1 .928-.914.93.93 0 0 1 .915.942c-.024 1.53.134 4.47 1.45 6.939a.926.926 0 0 1-.804 1.365M28.586 46.016a.925.925 0 0 1-.922-.832c-.653-6.127.457-10.44.746-10.9a.928.928 0 0 1 1.63.88c-.217.605-1.1 4.47-.53 9.824a.93.93 0 0 1-.828 1.032z"/>
  <path fill="#2B68E8" d="M24.538 41.79h-.017a.94.94 0 0 1-.911-.952c0-.536.729-5.384 2.462-10.037 2.39-6.42 5.746-9.947 9.707-10.205 5.907-.378 9.129 5.698 10.797 10.862.818 2.527 2.462 4.02 4.29 3.886a.93.93 0 0 1 .135 1.853c-2.72.189-5.096-1.788-6.19-5.158-2.131-6.602-5.13-9.824-8.912-9.58-7.434.482-10.315 16.323-10.432 18.438a.92.92 0 0 1-.929.894"/>
  <path fill="#2B68E8" d="M20.753 37.286a1 1 0 0 1-.134 0 .93.93 0 0 1-.784-1.052c.688-4.673 2.81-8.669 4.594-11.626 2.334-3.878 5.708-6.591 9.253-7.444 3.187-.77 5.938-.396 8.41 1.141 2.665 1.65 4.082 4.244 5.45 6.754.182.343.361.66.544.986l.223.396c1.764 3.146 3.614 3.311 4.855 3.163a.928.928 0 0 1 .22 1.843c-2.75.344-4.986-1.052-6.695-4.098l-.223-.396c-.186-.344-.368-.667-.554-1.007-1.255-2.294-2.551-4.67-4.796-6.066-2.032-1.262-4.322-1.557-6.998-.911-3.022.726-6.048 3.19-8.1 6.595-1.692 2.81-3.718 6.592-4.347 10.934a.93.93 0 0 1-.918.788"/>
  <path fill="#2B68E8" d="M53.704 28.102a1 1 0 0 1-.285-.045c-3.154-1.032-4.47-3.672-5.626-6.007a16.4 16.4 0 0 0-1.781-2.806 11.3 11.3 0 0 0-9.184-4.308c-5.612.106-12.097 4.367-15.772 10.353a.93.93 0 0 1-1.582-.97c4.05-6.601 11.003-11.12 17.316-11.24a13.16 13.16 0 0 1 10.673 5.017c.768.972 1.434 2.02 1.987 3.129 1.283 2.585 2.29 4.336 4.536 5.065a.928.928 0 0 1-.289 1.812zM27.29 14.434a.929.929 0 0 1-.502-1.72 19.9 19.9 0 0 1 9.452-3.132.929.929 0 0 1 .117 1.853 18.1 18.1 0 0 0-8.569 2.84.9.9 0 0 1-.498.159"/>
  <path fill="#2B68E8" d="M52.576 22.173a.93.93 0 0 1-.897-.687c-1.252-4.794-5.997-9.164-10.58-9.741a.93.93 0 0 1 .233-1.844c5.272.664 10.718 5.653 12.145 11.117a.927.927 0 0 1-.667 1.131.8.8 0 0 1-.234.024"/>
  <path fill="#000" d="M15.867 15.071a.93.93 0 0 1-.929-.928V6.836a.93.93 0 0 1 .929-.928h7.307a.928.928 0 1 1 0 1.856h-6.379v6.379a.93.93 0 0 1-.928.928M58.81 15.071a.93.93 0 0 1-.929-.928V7.764H51.5a.93.93 0 0 1 0-1.856h7.31a.93.93 0 0 1 .928.928v7.307a.93.93 0 0 1-.928.928M58.81 50.92H51.5a.928.928 0 0 1 0-1.856h6.381v-6.379a.928.928 0 1 1 1.857 0v7.307a.93.93 0 0 1-.928.928M23.174 50.92h-7.307a.93.93 0 0 1-.929-.928v-7.307a.928.928 0 1 1 1.857 0v6.379h6.378a.928.928 0 1 1 0 1.856"/>
</svg>
