<svg xmlns="http://www.w3.org/2000/svg" width="96" height="96" fill="none" viewBox="0 0 96 96">
  <path fill="#fff" d="M0 0h96v96H0z"/>
  <g clip-path="url(#girl-reading-papera)">
    <path fill="#000" d="m82.331 62.943-3.95-3.028a10.3 10.3 0 0 0-1.906-1.34 2.242 2.242 0 0 0-1.429-.133q-.266.058-.517.162c-1.373.569-2.503 1.773-3.555 2.788-.879.85-2.367 2.02-2.293 3.386a.4.4 0 0 1 0 .136c.425-.472.794-1.067 1.24-1.584 1.396-1.639 3.364-2.584 5.288-3.445a.45.45 0 0 1 .483.045.57.57 0 0 1 .222.483.48.48 0 0 1-.3.433c-1.524.694-3.079 1.403-4.323 2.55a6 6 0 0 0-1.37 1.806c-.175.34-.3.703-.369 1.079-.033.221-.033.738.314.701a.5.5 0 0 1 .18 0c.204-1.041 1.038-1.82 1.766-2.489a13.1 13.1 0 0 1 4.7-2.758c.177-.059.37-.114.54-.166a.57.57 0 0 1 .59.133.6.6 0 0 1 .092.144.5.5 0 0 1 .026.11.51.51 0 0 1-.303.577q-.255.07-.498.151a12.3 12.3 0 0 0-3.837 2.06 9 9 0 0 0-1.746 1.736 1.29 1.29 0 0 0-.3.971.546.546 0 0 0 .459.476.45.45 0 0 1 .369.244c.214-1.237 1.307-2.123 2.319-2.82a15.3 15.3 0 0 1 4.172-2.04l.085-.029c.632-.195 1.041.761.403.96-.37.111-.691.226-1.02.351-.921.35-1.803.796-2.632 1.33-.772.498-2.042 1.27-2.29 2.274a4.2 4.2 0 0 0 1.876-.846 9 9 0 0 1 2.356-1.23c.436-.129.889-.195 1.344-.195.42-.002.839.06 1.24.181a3.07 3.07 0 0 1 1.706 1.3c.31.502-.306 1.067-.694.782a.5.5 0 0 1-.129-.143A2.22 2.22 0 0 0 79.041 67a4.2 4.2 0 0 0-2.444.473c-1.37.694-2.585 2.038-4.272 1.743a.53.53 0 0 1-.458-.443.53.53 0 0 1-.465.188 1.52 1.52 0 0 1-1.259-.993.4.4 0 0 1-.14.037 1.3 1.3 0 0 1-1.245-.565 1.8 1.8 0 0 1-.232-1.385.4.4 0 0 1-.093-.026 1.3 1.3 0 0 1-.266-.136.9.9 0 0 1-.177-.148.8.8 0 0 1-.151-.177 1 1 0 0 1-.137-.258.5.5 0 0 1-.037-.259 1 1 0 0 1-.026-.133c-.077-1.447.865-2.518 1.817-3.493a29 29 0 0 1 3.138-2.88 6.3 6.3 0 0 1 2.043-1.108 3.4 3.4 0 0 1 1.066-.133q.165.006.325.034c1.304.2 2.367 1.263 3.371 2.03l3.545 2.714a.528.528 0 0 1-.613.86M13.717 42.594a1.14 1.14 0 0 1-1.108.946c-.605-.048-1.008-.717-1.37-1.138-.42-.49-.834-.986-1.266-1.477a5.5 5.5 0 0 0-.835-.738c-.587-.417-1.28-.654-1.979-.303a.43.43 0 0 1-.517-.062.55.55 0 0 1 .115-.898 2.77 2.77 0 0 1 2.548.144q.345.177.646.425c.14.11.273.229.402.37a26 26 0 0 1 1.824 2.06l.31.369c.026.026.126.121.174.18a1 1 0 0 0 .04-.07c.152-.406-.044-.949-.203-1.325a10 10 0 0 0-.738-1.363l-.125-.195a10 10 0 0 0-.628-.898 4 4 0 0 0-.163-.195c-.58-.672-1.517-1.307-2.444-1.03a.54.54 0 0 1-.683-.281.524.524 0 0 1 .277-.68c1.4-.413 2.717.266 3.637 1.308.158.184.31.369.446.576.21.291.403.59.588.893a8.7 8.7 0 0 1 .87 1.61c.239.559.302 1.177.182 1.772"/>
    <path fill="#000" d="M15.327 39.057a14.3 14.3 0 0 0-1.769-2.791c-.613-.739-1.304-1.529-2.341-1.566a3.25 3.25 0 0 0-2.67 1.366.52.52 0 0 0 .831.624c.443-.594 1.233-1.107 2.005-.926.416.136.777.403 1.03.76q.515.585.956 1.226a10.1 10.1 0 0 1 1.437 2.77 1.57 1.57 0 0 1-.067 1.34.69.69 0 0 1-.845.306c-.61-.28-.99.687-.37.968.872.406 1.847-.163 2.25-.975.468-1.008 0-2.179-.447-3.102"/>
    <path fill="#000" d="M18.11 39.342a6.57 6.57 0 0 0-2.972-4.287c-.967-.572-2.13-.739-3.109-.093-.554.37.089 1.197.64.824.738-.506 1.675-.063 2.31.41a5.6 5.6 0 0 1 1.57 1.846 5.46 5.46 0 0 1 .646 2.326 1 1 0 0 1-.325.927.74.74 0 0 1-.79.03c-.561-.37-1.19.472-.624.834a1.816 1.816 0 0 0 2.215-.174c.71-.672.624-1.768.44-2.643"/>
    <path fill="#000" d="M21.02 39.271a1.35 1.35 0 0 1-1.993.838 5.7 5.7 0 0 1-.82-.701c-.317-.27-.27-.561-.676-.598-.668-.06-.956-.946-.291-.887.49.044.96.21 1.37.484.335.222.572.58.919.79a.29.29 0 0 0 .472-.162c.152-.37-.103-.772-.306-1.06a4.6 4.6 0 0 0-.561-.635 7 7 0 0 0-.968-.801c-.162-.114-.325-.229-.487-.336-.739-.488-1.617-.864-2.522-.639a.52.52 0 0 1-.59-.44.536.536 0 0 1 .439-.59c1.041-.258 2.075.11 2.954.631q.764.45 1.436 1.027.361.3.687.642l.17.185c.546.62 1 1.436.768 2.252"/>
    <path fill="#000" d="m49.85 40.6-1.152-.856a2949 2949 0 0 1-7.17-5.313l-5.089-3.774a29.6 29.6 0 0 0-4.564-2.954 10 10 0 0 0-5.339-1.033c-2.056.191-4.105.738-6.11 1.214l-.436.107c-.465.107-.927.222-1.388.336-1.407.347-2.803.706-4.202 1.082-1.846.491-3.759 1.108-5.332 2.216a6.8 6.8 0 0 0-2.736 4.017 8.66 8.66 0 0 0 .093 4.235c.055.196.114.395.18.587a.49.49 0 0 1-.047.447l-.484.136-.248.07a.45.45 0 0 1-.18-.247 9 9 0 0 1-.215-.712 9.7 9.7 0 0 1-.04-5.018 7.9 7.9 0 0 1 3.452-4.62c1.702-1.078 3.637-1.672 5.568-2.185a325 325 0 0 1 2.721-.702c.558-.14 1.108-.28 1.669-.413.687-.174 1.37-.336 2.057-.502 2.1-.492 4.26-1.079 6.432-1.108 1.894-.01 3.76.462 5.42 1.373 1.669.931 3.262 1.99 4.767 3.168l5.365 3.98q2.847 2.106 5.69 4.22l1.14.843c.056.447.123.93.178 1.406M75.715 57.33c.15.37.306.761.468 1.138a2.24 2.24 0 0 0-1.137-.026 55.801 55.801 0 0 1-1.455-3.855c-.214-.631.739-1.041.957-.406.354 1.06.746 2.112 1.166 3.15M75.903 60.413l-.222-.483a.57.57 0 0 1 .222.483M77.454 62.533a10 10 0 0 0-.5.151q-.222-.474-.446-.949c.177-.059.37-.114.54-.166a.57.57 0 0 1 .59.133q.061.128.118.255a.51.51 0 0 1-.302.576M78.86 64.26c-.332.1-.657.215-.986.34l-.454-.937c.322-.126.654-.244.986-.344.152.322.306.628.454.942M84.133 79.248a52 52 0 0 0-1.98-5.538c-.948-2.271-2.012-4.487-3.09-6.695l-.524-1.074c.42-.002.838.06 1.24.18.34.695.676 1.386 1.012 2.083 1.666 3.453 3.23 6.95 4.302 10.645.173.628-.787 1.038-.96.399"/>
    <path fill="#000" d="M9.95 39.478c.14.11.274.229.403.37l-1.215.343-2.585.738-.483.137-.248.07-2.337.664c-.716.2-1.477.37-2.057.846-.52.425-1.159-.403-.638-.823.713-.576 1.595-.787 2.455-1.03l2.182-.617.65-.185.344-.096.217-.062q1.332-.379 2.663-.739.344.158.65.384M26.998 35.121l-2.703.764-1.063.303-1.987.561-.978.277c-.37.104-.738.21-1.134.321a7 7 0 0 0-.967-.8l1.244-.348 3.748-1.063 1.038-.292 2.396-.68c.639-.18 1.048.776.406.957"/>
    <path fill="#000" d="M74.349 54.687c-.92.598-1.847 1.196-2.777 1.783l-.942.587c-3.157 1.946-6.42 3.726-9.969 4.9a25.9 25.9 0 0 1-7.857 1.373h-1.078a19.3 19.3 0 0 1-3.892-.542c-4.26-1.06-7.754-3.881-10.819-6.927-5.006-4.992-8.74-11.384-10.131-18.336-.067-.336-.13-.68-.185-1.023a29 29 0 0 1-.229-1.643c-.073-.665.957-.816 1.03-.148q.085.758.207 1.51c.052.34.115.684.181 1.023a33.1 33.1 0 0 0 3.626 9.711 37.8 37.8 0 0 0 7.163 9.076 31.3 31.3 0 0 0 4.944 3.88 16.1 16.1 0 0 0 5.908 2.164 20 20 0 0 0 3.002.244c6.417.033 12.384-2.954 17.848-6.333.314-.192.624-.369.934-.583a146 146 0 0 0 2.378-1.525c.576-.373 1.211.443.657.809"/>
    <path fill="#000" d="M83.915 79.082c-.971 1.314-2.389 2.141-3.873 2.777-1.673.716-3.427 1.266-5.17 1.846a113 113 0 0 1-11.405 3.112c-7.503 1.599-15.286 2.286-22.914 1.237a45.9 45.9 0 0 1-18.063-6.369 36.7 36.7 0 0 1-7.359-6.004 35.5 35.5 0 0 1-5.834-8.54 72.7 72.7 0 0 1-4.032-10.46A167 167 0 0 1 1.4 42.118c-.14-.65-1.17-.506-1.03.152a171 171 0 0 0 3.072 12A95 95 0 0 0 7.29 65.306a39.9 39.9 0 0 0 5.568 9.371 36.3 36.3 0 0 0 7.226 6.672c5.394 3.792 11.682 6.221 18.151 7.385 7.55 1.38 15.36.985 22.892-.395a105 105 0 0 0 11.727-2.91q2.858-.874 5.682-1.872c1.573-.554 3.157-1.17 4.512-2.16a7.9 7.9 0 0 0 1.703-1.684.523.523 0 0 0-.835-.631M95.103 54.14a26 26 0 0 1-.739 3.423 23 23 0 0 1-.553 1.68 26.3 26.3 0 0 1-3.693 6.812c-1.274 1.706-2.784 3.416-4.763 4.313-1.477.68-4.18.986-4.8-1.026-.2-.632.329-1.034.525-.396.27.853 1.731 1.001 2.506.894a6.36 6.36 0 0 0 2.995-1.455c1.74-1.407 3.109-3.323 4.242-5.236a25.3 25.3 0 0 0 2.434-5.483c.144-.457.27-.919.369-1.384.382-1.542.612-3.118.687-4.704a21.6 21.6 0 0 0-.547-5.945c-.443-1.89-1.133-3.888-2.51-5.306-1.585-1.632-3.933-1.813-6.082-1.846a37 37 0 0 0-7.089.617c-4.77.823-9.415 2.241-14.175 3.13-.657.123-.805-.907-.147-1.03 5.704-1.066 11.265-2.909 17.05-3.544 2.426-.262 5.011-.406 7.422.055a7.13 7.13 0 0 1 3.16 1.363 8 8 0 0 1 1.99 2.477 17.7 17.7 0 0 1 1.799 6.093 23.8 23.8 0 0 1-.081 6.498"/>
    <path fill="#000" d="M85.16 54.203q-.186.621-.392 1.244a47 47 0 0 1-2.56 6.063c-.298.598-1.27.225-.97-.37a50 50 0 0 0 2.023-4.556 40 40 0 0 0 .65-1.846c.842-2.643 1.307-4.538 1.13-6.956-.026-.34-.06-.687-.11-1.049q-.061-.436-.149-.9c-.125-.665.909-.81 1.03-.152q.12.621.189 1.185c.044.37.081.739.1 1.06.125 2.116-.251 3.855-.942 6.277"/>
    <path fill="#000" d="M94.346 57.563a23 23 0 0 1-.554 1.68 6.2 6.2 0 0 0-.558-1.577 5.17 5.17 0 0 0-3.419-2.735 8.6 8.6 0 0 0-3.906.136q-.588.133-1.141.37a3.5 3.5 0 0 0-1.507 1.13c.233-.617.455-1.238.65-1.847q.5-.272 1.041-.45c.067 0 .137-.045.207-.06 2.216-.69 4.83-.738 6.823.517a5.9 5.9 0 0 1 1.636 1.562q.435.597.728 1.274M45.862 51.235a40.5 40.5 0 0 1-4.43-3.372c-2.508-2.163-4.8-4.541-7.167-6.864a89 89 0 0 0-3.597-3.39 4.5 4.5 0 0 0-.904-.77c-.31-.141-.783.092-1.108.176l-.76.215-1.005.28c-.066-.336-.13-.68-.185-1.023l1.009-.28 1.022-.288c.41-.17.862-.203 1.292-.096.383.184.73.434 1.027.738 5.17 4.553 9.6 10.025 15.419 13.824.572.38-.056 1.215-.613.85"/>
    <path fill="#000" d="M52.822 63.33h-1.078a31 31 0 0 0-.273-1.048c-.318-1.178-.71-2.378-1.507-3.323-.86-1.02-2.06-1.655-2.813-2.78-1.621-2.415-1.477-5.414-1.248-8.187.051-.671 1.085-.55 1.033.119-.129 1.672-.262 3.37.078 5.029a6.28 6.28 0 0 0 1.732 3.323c.982.926 2.027 1.639 2.71 2.843.496.953.868 1.965 1.107 3.013.06.221.115.443.174.664zM71.579 56.47l-.941.587c-.078-.37-.152-.738-.23-1.086a152 152 0 0 0-.996-4.308l-.255-1.023.886-.406a.6.6 0 0 1 .144.258c.063.248.126.491.185.739q.516 2.071.97 4.16.108.537.237 1.079"/>
    <path fill="#000" d="M86.1 47.9c-.368-.063-.704-.11-1.059-.144l-.318-.033c-5.032-.432-9.832 1.455-14.359 3.504l-.96.436c-.254.122-.517.24-.772.369-.609.284-1.015-.68-.406-.96l.923-.421.887-.403c.919-.413 1.846-.82 2.787-1.203 2.67-1.082 5.45-1.987 8.326-2.293a19.3 19.3 0 0 1 3.781-.03c.37.034.716.078 1.07.133.045.351.082.706.1 1.045M66.506 40.313a16 16 0 0 1-1.303 3.57 10.1 10.1 0 0 1-2.36 2.732 51 51 0 0 1-2.954 2.352c-.871.64-1.813 1.233-2.954.99-1.011-.222-1.946-.905-2.817-1.447a15.6 15.6 0 0 1-2.51-1.847c-1.559-1.477-2.356-3.282-2.707-5.368a24 24 0 0 1-.207-1.544 73 73 0 0 0-.166-1.414 13.5 13.5 0 0 0-.738-3.282c-.24-.628.738-1.03.96-.407.564 1.477.738 2.995.915 4.531.056.476.11.953.177 1.429.026.155.052.318.074.473.318 1.92 1.034 3.614 2.51 4.932a16 16 0 0 0 2.312 1.673c.44.27.88.54 1.326.79a3.1 3.1 0 0 0 1.351.51 2.42 2.42 0 0 0 1.452-.565c.439-.307.867-.639 1.295-.968.89-.683 1.769-1.384 2.585-2.149a7.6 7.6 0 0 0 1.772-2.385c.414-.963.75-1.958 1.004-2.976.193-.672 1.16-.27.983.37"/>
    <path fill="#000" d="m55.333 43.997-.617-.18a6.1 6.1 0 0 0 .37-2.652 6.4 6.4 0 0 0-1.134-2.758c-.528-.786-1.16-1.665-2.068-2.023s-1.997-.166-2.953.07c-.647.163-.503 1.193.147 1.03.738-.18 1.618-.428 2.37-.151.754.277 1.256 1.078 1.68 1.713a5.3 5.3 0 0 1 .92 2.215c.13.942-.184 1.847-.49 2.722a.53.53 0 0 0 .294.675l1.108.322c.632.177 1.02-.79.373-.983"/>
    <path fill="#000" d="M53.118 40.379a1.7 1.7 0 0 0-.403-.938 1.6 1.6 0 0 0-.303-.27.56.56 0 0 0-.387-.1.52.52 0 0 0-.34.204.6.6 0 0 0-.17.233l-.03.129a.5.5 0 0 0 .037.262q.153.273.34.524.2.245.428.462l.122.066.133.034a.5.5 0 0 0 .318-.074.24.24 0 0 0 .107-.081.3.3 0 0 0 .085-.111.3.3 0 0 0 .048-.13.37.37 0 0 0 .014-.21M59.025 39.71a1.96 1.96 0 0 0-.738-1.251.54.54 0 0 0-.37-.1.52.52 0 0 0-.44.591q-.015.146 0 .292a1 1 0 0 0 0 .122q.026.114.068.225.069.172.191.31.119.139.274.236.102.064.214.111.12.038.244.06a.523.523 0 0 0 .557-.595M61.189 35.948a4.855 4.855 0 0 0-5.58.347c-.512.425.123 1.248.64.824a3.795 3.795 0 0 1 4.316-.336.54.54 0 0 0 .738-.107.525.525 0 0 0-.114-.728M58.342 44.81a.536.536 0 0 0-.738.103l-.104.11q-.1.088-.207.163l-.107.074a4 4 0 0 1-.277.13l-.118.04a3 3 0 0 1-.291.06h-.436a.53.53 0 0 0-.576.457.53.53 0 0 0 .458.576 2.86 2.86 0 0 0 2.492-.986.52.52 0 0 0-.096-.727"/>
    <path fill="#000" d="M62.108 25.61c-4.7-1.72-10.26-1.045-13.683 2.847-3.05 3.467-3.105 8.898-1.422 13.011a11.67 11.67 0 0 0 4.527 5.539c.561.369 1.189-.477.62-.831-3.404-2.13-5.132-6.151-5.191-10.076-.033-2.194.406-4.453 1.698-6.277a9.86 9.86 0 0 1 4.948-3.578c2.636-.868 5.539-.624 8.123.317.62.233 1.011-.738.38-.952"/>
    <path fill="#000" d="m53.612 47.343-2.1-1.762c-.518-.431-1.138.403-.625.831l1.846 1.536a18.5 18.5 0 0 0-.458 4.656c0 .838.045 1.673.074 2.511 0 .406.037.816.037 1.226 0 .317 0 .594-.37.646-.66.092-1-.657-1.2-1.156a29 29 0 0 1-.811-2.307 11.6 11.6 0 0 1-.58-5.022c.24-1.79.812-3.6.11-5.361-.247-.628-1.203-.218-.956.402.687 1.732-.103 3.623-.247 5.384-.155 1.846.288 3.692.871 5.468.432 1.3.916 3.541 2.625 3.633a1.44 1.44 0 0 0 1.51-.949c.09-.398.111-.809.063-1.214 0-.492-.03-.983-.048-1.477-.08-2.15-.147-4.35.436-6.443a.54.54 0 0 0-.177-.602M53.956 30.535c-3.006 1.847-5.506 4.907-5.17 8.622.06.668 1.108.517 1.03-.148-.291-3.323 2.124-6.018 4.8-7.65.547-.351-.096-1.17-.66-.824"/>
    <path fill="#000" d="M65.358 37.643c-1.215-.066-2.316-.561-3.412-1.041a17 17 0 0 1-2.954-1.529 9.2 9.2 0 0 1-2.278-2.385c-.71-1.008-1.389-2.042-2.079-3.065-.37-.557-1.197.085-.823.639 1.366 2.02 2.61 4.338 4.678 5.73a19.7 19.7 0 0 0 3.13 1.61c1.153.506 2.33 1.008 3.604 1.075.68.037.817-.997.133-1.034"/>
    <path fill="#000" d="M67.307 40.516c-.237 2.215-.92 4.316-1.632 6.406l-2.149 6.299c-.303.886-.598 1.96-1.259 2.655-.738.76-1.038-1.108-1.078-1.514-.225-2.116.613-4.191 1.373-6.118.868-2.216 1.725-4.523 1.367-6.93a11.4 11.4 0 0 0-.842-4.022.52.52 0 1 0-.96.406c1.148 2.803 1.023 6.03 0 8.862-.993 2.754-2.504 5.564-1.876 8.584.17.81.59 1.847 1.536 1.961 1.052.133 1.676-1.023 2.06-1.82a31 31 0 0 0 1.196-3.297l1.186-3.475c.879-2.584 1.816-5.17 2.108-7.872a.52.52 0 0 0-1.03-.125M71.08 39.714c-3.086-3.585-3.05-8.861-6.406-12.314a7.2 7.2 0 0 0-3.053-1.927c-.639-.192-1.023.776-.37.968 2.667.804 4.21 3.37 5.192 5.811 1.108 2.773 1.846 5.782 3.825 8.101.425.506 1.248-.13.813-.639"/>
    <path fill="#000" d="M53.118 47.494s-.525 4.032-.37 6.048.879 3.596-.347 3.77-3.157-1.403-3.245-3.855c-.09-2.452-.525-4.733-.263-5.963.263-1.23.44-3.153.44-3.153a11.4 11.4 0 0 1-2.895-7.363c-.085-4.56 1.665-9.378 6.399-10.958s9.906-.702 12.185 2.455 2.98 7.189 3.943 9.028c.502.913.928 1.867 1.274 2.85l-2.411.391s-2.016 7.54-3.157 10.431-1.403 5.786-2.63 5.539c-1.225-.248-2.015-3.069-1.229-5.539.787-2.47 1.931-4.117 2.367-6.31s0-4.206 0-5.084a7.7 7.7 0 0 0-.524-2.19s-3.323-1.754-5.085-3.508c-1.76-1.753-3.068-3.323-3.068-3.323s-3.419 1.928-4.294 3.944-1.403 4.12-1.052 5.874c.35 1.754.879 3.593 2.016 4.996.559.725 1.213 1.37 1.946 1.92"/>
    <path fill="#1D4ED8" d="M53.42 40.575a.536.536 0 0 0-.576.458c-.151.779-1.078 1.137-1.846.982-.827-.174-1.765-.909-1.901-1.784a.52.52 0 0 0-1.03.148c.214 1.374 1.565 2.467 2.89 2.684a2.517 2.517 0 0 0 2.906-1.912.524.524 0 0 0-.443-.576"/>
    <path fill="#1D4ED8" d="M56.22 40.914c-.466-.494-1.005-1.04-1.725-1.107-.628-.06-1.381.262-1.555.923a.57.57 0 0 0 0 .391c.057.128.16.23.288.285a.53.53 0 0 0 .676-.296c0-.026.019-.052.03-.081.155-.137.192-.155.232-.17h.27q.119.031.229.085.12.065.229.148.148.117.284.247c.022.026.048.048.07.07l.144.155a.535.535 0 0 0 .739.093.53.53 0 0 0 .088-.743"/>
    <path fill="#1D4ED8" d="M61.979 38.902c-.048-.668-1.078-.517-1.03.148a2.755 2.755 0 0 1-1.846 2.74 2.77 2.77 0 0 1-3.05-1.108c-.37-.554-1.2.088-.824.638a3.81 3.81 0 0 0 4.28 1.418 3.81 3.81 0 0 0 2.47-3.836"/>
    <path fill="#000" d="m24.296 35.885-1.064.303a7 7 0 0 0-.074-1.052 9.4 9.4 0 0 0-1.646-4.062 9.8 9.8 0 0 0-2.91-2.75 8 8 0 0 0-1.477-.698c.557-.14 1.108-.28 1.669-.414a10 10 0 0 1 1.189.776 11.1 11.1 0 0 1 4.206 6.856q.086.517.107 1.041"/>
    <path fill="#1D4ED8" d="M23.982 44.348c-.416.52-.938.945-1.532 1.245a1.29 1.29 0 0 1-1.426-.193c.535-.587 1.219-1.384 1.167-2.16a1.086 1.086 0 0 0-.827-1.015 1.16 1.16 0 0 0-1.149.554 3.09 3.09 0 0 0-.442 2.437 10 10 0 0 1-1.378 1.133c-.59.403-1.687 1.108-2.584 1.075a5.4 5.4 0 0 0 1.04-1.617c.267-.71.274-1.607-.431-2.06-.768-.5-1.632 0-2.108.657a3.19 3.19 0 0 0-.562 2.584c.077.264.212.508.395.713-.823.812-1.846 1.624-2.953 1.846a2.22 2.22 0 0 1-2.02-.561q.434-.587.757-1.24c.299-.603.52-1.563-.163-2.006-.805-.52-1.591.454-1.846 1.108a2.7 2.7 0 0 0 0 2.02 7.4 7.4 0 0 1-2.311 1.76c-.602.292-.2 1.249.406.957a8.5 8.5 0 0 0 2.492-1.846 2.9 2.9 0 0 0 1.67.834c1.882.27 3.57-1.022 4.84-2.3.244.094.502.146.764.155 1 .033 1.946-.458 2.777-.96.626-.379 1.209-.825 1.739-1.33a2.21 2.21 0 0 0 1.787.603c1.148-.118 1.979-.971 2.721-1.773.465-.487-.373-1.104-.823-.62M9.065 46.885q.059-.065.107-.137a.8.8 0 0 1-.067.288 4.4 4.4 0 0 1-.325.65q.017-.213.09-.413.067-.21.195-.388m5.885-1.5c.107-.247.61-1.07.964-.738.273.259-.052.916-.196 1.156a7.7 7.7 0 0 1-.842 1.108c-.288-.429-.121-1.075.074-1.525m6.192-2.093a.94.94 0 0 1-.151.414q-.084.133-.174.265.096-.33.281-.62z"/>
    <path fill="#000" d="m28.32 50.588-18 8.271c-.61.28-.203 1.24.406.96l17.996-8.27c.61-.281.207-1.238-.402-.96M18.303 62.241a.524.524 0 0 0-.683-.277 31.4 31.4 0 0 0-4.745 3.301c-.513.432.126 1.256.64.82a30 30 0 0 1 4.511-3.16.54.54 0 0 0 .277-.684M29.83 55.012a86 86 0 0 0-9.445 5.509c-.558.369.085 1.192.639.82a84 84 0 0 1 9.23-5.37c.58-.298.174-1.258-.424-.96M33.283 60.236A82.3 82.3 0 0 0 19.599 72.79c-.44.506.395 1.13.834.624a81 81 0 0 1 13.485-12.358c.546-.391-.096-1.211-.635-.82M30.247 74.396a.53.53 0 0 0-.738.107 40 40 0 0 0-2.493 4.088.525.525 0 0 0 .296.675.54.54 0 0 0 .676-.295 38 38 0 0 1 2.355-3.847.53.53 0 0 0-.096-.728M37.03 64.117a85 85 0 0 0-6.417 8.492c-.37.558.465 1.185.834.624a85 85 0 0 1 6.418-8.492c.435-.51-.4-1.134-.835-.624M41.753 65.243a11.2 11.2 0 0 0-1.968 3.467c-.57 1.414-1.108 2.832-1.684 4.25q-1.747 4.409-3.493 8.825a.521.521 0 0 0 .968.369l3.433-8.662c.565-1.425 1.108-2.855 1.695-4.28.48-1.2.997-2.385 1.88-3.352.453-.484-.385-1.112-.832-.617"/>
    <path fill="#1D4ED8" d="M48.007 71.63a2.5 2.5 0 0 0-.369-.431q.171-.198.31-.421a2.95 2.95 0 0 0 .417-2.297 1.435 1.435 0 0 0-1.923-1.048.521.521 0 0 0 .406.96c.546-.244.583.716.535 1.022-.08.447-.29.86-.602 1.19a1 1 0 0 0-.062.058 3.08 3.08 0 0 0-2.954.79c-.255.248-.292.768.129.894a3.55 3.55 0 0 0 2.954-.45 1.35 1.35 0 0 1 .447 1.292 3.7 3.7 0 0 1-1.36 2.12 3.66 3.66 0 0 0-1.753-.315 2.7 2.7 0 0 0-1.82.768.937.937 0 0 0 .446 1.58c1.064.274 2.26-.177 3.202-.815a2.54 2.54 0 0 1 .557 3.304q-.244.37-.561.68a3.06 3.06 0 0 0-3.323-.491c-.491.262-1.108.8-.86 1.41a2.08 2.08 0 0 0 1.52 1.174 3.35 3.35 0 0 0 2.523-.653c.438.806.74 1.68.893 2.584.144.65 1.178.506 1.03-.147-.24-1.068-.513-2.19-1.107-3.102q.255-.245.48-.52a3.6 3.6 0 0 0 .432-3.918 3.6 3.6 0 0 0-.78-.986c1.104-1.03 2.131-2.77 1.193-4.231m-5.103 9.545c.573-.58 1.595-.483 2.249-.025q-.199.149-.428.247c-.595.27-1.43.336-1.82-.222m.868-4.844c-.151.019-.37 0-.51.022q.242-.166.525-.236c.32-.092.655-.12.986-.081q-.231.104-.473.18-.26.077-.528.115"/>
    <path fill="#000" d="M53.169 66.617a.53.53 0 0 0-.59-.444.53.53 0 0 0-.44.591q.06 2.216 0 4.431a.535.535 0 0 0 .458.576.524.524 0 0 0 .576-.462 85 85 0 0 0-.004-4.692M54.059 83.007l-.074-.436a.5.5 0 0 0-.059-.166 33.2 33.2 0 0 1-.687-8.902c.04-.669-.993-.79-1.033-.118-.2 3.279.077 6.57.823 9.77.147.642 1.14.524 1.03-.148M62.374 81.209a49.8 49.8 0 0 1-3.648-15.301c-.051-.669-1.081-.517-1.03.147a50.8 50.8 0 0 0 3.718 15.56.522.522 0 0 0 .96-.406M65.575 68.777a27.5 27.5 0 0 1-1.133-5.232c-.082-.665-1.108-.517-1.03.151a29 29 0 0 0 1.203 5.487.524.524 0 0 0 .683.277.536.536 0 0 0 .277-.683M68.459 75.78a40 40 0 0 1-1.798-4.06c-.237-.628-1.193-.222-.957.405a39 39 0 0 0 2.608 5.568c.324.58.664 1.175.564 1.847s.935.782 1.034.118c.21-1.4-.85-2.7-1.451-3.877"/>
    <path fill="#1D4ED8" d="M95.04 20.47a10.84 10.84 0 0 1-2.46 6.864c-2.48 3.028-6.786 4.926-10.707 4.472a11.04 11.04 0 0 1-6.668-3.268c-1.154.356-2.281.795-3.371 1.314a.524.524 0 0 1-.72-.539c.075-.476.288-.92.613-1.277.32-.41.65-.82.974-1.23l.853-1.078c-1.2-3.15-1.536-6.62.026-9.751 2.407-4.8 7.318-6.277 12.34-5.424 2.584.432 4.907 1.429 6.646 3.426a10.1 10.1 0 0 1 2.474 6.491"/>
    <path fill="#fff" d="M84.417 17.014v7.138a.52.52 0 0 1-.443.457l-.904.022c-1.415.03-1.68-5.313-1.887-6.328-.155-.739-.336-1.5-.454-2.253a1.355 1.355 0 0 1 .65-1.477 8 8 0 0 1 1.92-.738.87.87 0 0 1 1.152.846c.025.764-.034 1.565-.034 2.333M85.565 27.648a2.02 2.02 0 0 0-1.628-1.521c-.868-.104-2.145.675-2.064 1.669.114 1.34 2.51 1.96 3.367 1.03a1.3 1.3 0 0 0 .325-1.178"/>
    <path fill="#1D4ED8" d="M49.252 16.848c-.023.14-.045.273-.074.413-.739 3.57-3.526 5.952-6.783 6.868l.022.188c.1 1.149.166 2.304.155 3.46a.525.525 0 0 1-.927.259 104 104 0 0 1-2.215-3.493c-2.873.018-5.734-1.071-7.61-3.453a7.8 7.8 0 0 1-1.274-2.4c-1.207-2.75-1.107-5.738.565-8.318a9.15 9.15 0 0 1 7.625-4.091c1.246.045 2.484.224 3.692.535a8.96 8.96 0 0 1 6.824 10.032"/>
    <path fill="#fff" d="M41.45 10.767a62 62 0 0 1-.983 6.978.53.53 0 0 1-.317.421 2.06 2.06 0 0 1-1.846-.229.5.5 0 0 1-.192-.229.455.455 0 0 1-.443-.428q-.432-4.043-.86-8.086a.53.53 0 0 1 .439-.591l1.824-.096c.537-.065 1.08-.09 1.62-.074 1.16.115.82 1.555.758 2.334M39.914 20.81a1.24 1.24 0 0 0-1.4-.739c-1.273.274-1.636 1.99-.299 2.489a1.41 1.41 0 0 0 1.666-.61 1.27 1.27 0 0 0 .033-1.14"/>
  </g>
  <defs>
    <clipPath id="girl-reading-papera">
      <path fill="#fff" d="M.37 6.277h94.998v83.306H.37z"/>
    </clipPath>
  </defs>
</svg>
