<svg xmlns="http://www.w3.org/2000/svg" width="96" height="96" fill="none" viewBox="0 0 96 96">
  <path fill="#000" d="M67.847 42.927a8.1 8.1 0 0 1-2.084 5.031 9.84 9.84 0 0 1-4.648 2.81c-.978.276-1.986.43-3.002.46h-1.498c-.213 0-.443-.049-.547.159s-.164.377-.262.547a2.82 2.82 0 0 1-2.04 1.246 8.9 8.9 0 0 1-3.188-.377c-1.028-.23-2.072-.432-3.09-.694a4.9 4.9 0 0 1-1.142-.443 43.04 43.04 0 0 1-19.292-2.8c-2.822-1.094-5.857-2.444-7.825-4.845a8.858 8.858 0 0 1 3.663-13.878q-.164-.437-.246-.897a5.91 5.91 0 0 1 1.57-4.79 10.75 10.75 0 0 1 4.746-2.784c.913-.295 1.865-.486 2.734-.842a4.22 4.22 0 0 0 2.013-1.64c.444-.74.81-1.525 1.093-2.34q.451-1.202 1.094-2.314A13.46 13.46 0 0 1 43.6 8.647a14.07 14.07 0 0 1 9.908.733 15.55 15.55 0 0 1 7.508 7.229c1.82 3.751 1.772 8.147 1.132 12.183a7.1 7.1 0 0 0-.115 2.608c.202.925.935 1.335 1.722 1.728a5.3 5.3 0 0 1 1.975 1.586c.507.715.9 1.505 1.164 2.34a15.9 15.9 0 0 1 .952 5.873"/>
  <path fill="#fff" d="M60.563 35.486a8.8 8.8 0 0 1-.87 2.406 5.7 5.7 0 0 1-1.29 1.64c-.606.477-1.262.886-1.958 1.22l-4.642 2.46c-.76.405-1.52.815-2.28 1.209-.67.37-1.38.664-2.117.875-1.536.404-3.253.164-4.79-.132a14.8 14.8 0 0 1-4.374-1.52 8.7 8.7 0 0 1-3.216-2.794 7.27 7.27 0 0 1-.508-6.863h-.18c-.405-.033-.334-.661.076-.629h.076a.29.29 0 0 1 .372-.125h.055c.17-.18.448 0 .503.191l.891.34q.076.027.126.092c2.154.87 4.32 1.712 6.502 2.51.027-1.783-.039-3.57.142-5.348a.346.346 0 0 1 .06-.514.295.295 0 0 1 .268-.213.96.96 0 0 0 .24-.46.34.34 0 0 1 .274-.279 4.3 4.3 0 0 0 1.794-1.18c.546-.547 1.093-1.094 1.695-1.603a21.3 21.3 0 0 1 3.489-2.422c1.033-.58 2.274-1.209 3.488-1.045a.27.27 0 0 1 .131-.246l.077-.038a1.82 1.82 0 0 1 1.898.076 1.95 1.95 0 0 1 .82 1.909 2.43 2.43 0 0 1-1.351 1.82l-.142.067a3.73 3.73 0 0 1-2.155.58.3.3 0 0 1-.235-.148 8 8 0 0 1-.973-.132h-.077a.27.27 0 0 1-.136-.087c-.449.202-.892.415-1.324.65a2.6 2.6 0 0 0-.842.547c-.16.296-.213.638-.147.968a45 45 0 0 0 .355 4.09q.146 1.05.334 2.084c.032.186.07.372.109.547q.015.19.06.377c.142.087.64-.24.76-.3a45 45 0 0 1 4.66-1.86c.807-.375 1.66-.643 2.537-.798l.338-.137c.35-.137.777-.377 1.143-.175.367.202.394.694.416 1.06.022.445-.006.891-.082 1.33"/>
  <path fill="#000" d="M60.312 32.63c-.159.263-.323.548-.487.788a20 20 0 0 0-4.834 1.876l-.323-.547a20 20 0 0 1 5.644-2.116M43.076 36.295l-.274.574a86 86 0 0 0-7.918-3.281c0-.219 0-.432.044-.651a83 83 0 0 1 8.148 3.358M55.357 69.58c-4.188-1.537-25.957.36-28.303 1.443s-12.479 15.339-11.806 17.87c.672 2.532 17.711 7.033 26.58 6.644 12.857-.547 22.967-4.659 25.335-6.562 2.368-1.902 2.007-2.619 1.258-4.243S59.54 71.111 55.357 69.58"/>
  <path fill="#fff" d="M13.586 49.785S6.41 59.852 3.195 66.189C-.02 72.527-.173 75.026.576 77.864s3.478 7.065 6.53 7.765c3.05.7 5.09.962 6.015.481s3.745-1.449 5.785-2.947 2.187-1.64 2.187-1.64 13.912-21.19 13.78-21.381c-.13-.192-5.353-9.422-5.353-9.422zM59.262 54.176c.158-.164 11.406 22.753 11.62 22.808s11.297-5.786 11.297-5.786a73 73 0 0 0-2.248-8.94c-1.607-5.086-4.713-13.71-4.713-13.71z"/>
  <path fill="#fff" d="m76.968 52.184-.59.224-7.29 2.806-7.038 2.734-.65.251q.207.41.426.82c-.07.296-.153.596-.246.886-.044.142-.066.23-.093.317q-.224.707-.448 1.406a25 25 0 0 0-.924 3.866 46 46 0 0 0-.312 7.912v.093c-.842.12-1.69.203-2.532.274-3.434.268-6.89.35-10.33.503-6.933.312-13.9.765-20.833.235-.328 0-.657-.05-.98-.082a679 679 0 0 1 2.85-11.024 16.1 16.1 0 0 1-.99-6.234l-13.84-6.25-.585-.262c.115-.18.235-.361.344-.547a343 343 0 0 1 7.306-10.866c3.67-5.2 8.202-7.354 13.49-6.392q.323.055.705.164c.197.05.405.115.624.18 0 .22-.033.432-.044.651-.056 1.175.055 2.35.328 3.494a8 8 0 0 0 1.865 3.445 10.07 10.07 0 0 0 5.955 3.068c2.573.298 5.176-.2 7.458-1.427 3.719-1.887 6.41-5.064 8.607-8.536.164-.263.328-.547.487-.788q.408-.082.826-.142c2.444-.36 5.178-.13 7.464 1.64 2.975 2.308 6.742 11.566 8.75 17.007.098.17.169.366.24.574"/>
  <path fill="#000" fill-rule="evenodd" d="m76.377 52.408.59-.224a5 5 0 0 0-.15-.398 2 2 0 0 0-.09-.176c-2.007-5.44-5.774-14.699-8.75-17.006-2.285-1.772-5.019-2.002-7.463-1.64q-.417.058-.826.142c-.097.147-.197.311-.297.477q-.094.157-.19.31c-2.198 3.472-4.888 6.65-8.607 8.536a12.68 12.68 0 0 1-7.458 1.427 10.07 10.07 0 0 1-5.955-3.068 8 8 0 0 1-1.865-3.445 12.5 12.5 0 0 1-.328-3.494 6 6 0 0 1 .02-.262c.012-.129.024-.258.024-.389l-.131-.039a11 11 0 0 0-.493-.141 7 7 0 0 0-.705-.164c-5.288-.962-9.82 1.192-13.49 6.392a343 343 0 0 0-7.306 10.866l-.048.08q-.098.161-.201.319l-.095.148.585.262 13.84 6.25a16.1 16.1 0 0 0 .99 6.234 678 678 0 0 0-2.85 11.024l.237.026q.156.018.313.033.214.022.43.023c6.065.464 12.156.175 18.228-.114q1.304-.061 2.606-.121 1.432-.063 2.865-.117c2.49-.096 4.983-.193 7.464-.386.842-.071 1.69-.153 2.532-.274v-.093a46 46 0 0 1 .312-7.912c.203-1.311.512-2.604.924-3.866l.18-.564q.136-.42.268-.842.018-.058.037-.126.021-.078.056-.19c.093-.29.175-.591.246-.886a51 51 0 0 1-.426-.82l.65-.252 7.038-2.734zm-14.525 5.03 7.04-2.735 7.291-2.806.064-.024-.016-.03-.017-.044c-1-2.713-2.438-6.37-3.992-9.632-.777-1.63-1.58-3.154-2.367-4.407-.795-1.264-1.547-2.208-2.212-2.724-2.125-1.647-4.688-1.88-7.05-1.532l-.005.001a12 12 0 0 0-.566.093l-.154.253q-.095.157-.203.332l-.002.002c-2.22 3.507-4.973 6.777-8.815 8.729a13.22 13.22 0 0 1-7.775 1.485h-.006l-.006-.001a10.62 10.62 0 0 1-6.278-3.234l-.005-.006a8.56 8.56 0 0 1-1.992-3.68v-.004l-.002-.003a13 13 0 0 1-.342-3.648v-.001a6 6 0 0 1 .016-.224l-.182-.05-.009-.002-.009-.002a6 6 0 0 0-.646-.15l-.007-.002c-2.54-.462-4.878-.174-7.02.841-2.147 1.019-4.13 2.785-5.925 5.328A342 342 0 0 0 13.373 50.4l-.011.019.011.005 14.176 6.402-.015.368a15.5 15.5 0 0 0 .957 6.022l.06.163-.045.168a679 679 0 0 0-2.694 10.405q.149.012.296.013h.02l.021.002c6.03.461 12.084.174 18.16-.115q1.303-.062 2.608-.121 1.442-.063 2.88-.118c2.485-.096 4.96-.192 7.43-.384.674-.057 1.346-.12 2.012-.205a46.7 46.7 0 0 1 .333-7.597l.001-.008.001-.008c.209-1.34.524-2.66.944-3.95l.181-.566.285-.9.017-.059.056-.19.002-.007c.068-.21.13-.429.186-.647q-.17-.322-.333-.645l-.273-.539z" clip-rule="evenodd"/>
  <path fill="#000" d="M29.651 45.082a10.7 10.7 0 0 1-1.148-3.325.317.317 0 1 0-.629.093 11.2 11.2 0 0 0 1.034 3.166 10.66 10.66 0 0 0-7.076 12.698c.098.393.727.306.628-.088a10.23 10.23 0 0 1 .432-6.25 10.05 10.05 0 0 1 3.659-4.511 10.2 10.2 0 0 1 2.93-1.367.315.315 0 0 0 .197-.295.3.3 0 0 0-.027-.121"/>
  <path fill="#fff" d="M61.886 59.152s-3.587 1.23-4.61 2.247c-1.022 1.017-2.034 1.985-1.87 3.483.164 1.499 1.553 3.855 1.553 3.855s4.178 11.675 8.203 14.294c4.024 2.62 8.672 1.553 11.297 0s5.036-3.532 5.73-6.562a15.5 15.5 0 0 0-.163-6.37l-13.277-6.562z"/>
  <path fill="#000" d="M82.775 75.207c-.547 3.756-3.193 6.884-7.229 8.596a14.1 14.1 0 0 1-5.424 1.137 8.48 8.48 0 0 1-4.895-1.362C63.2 82.13 61.29 79.056 59.76 76.06a61 61 0 0 1-.656-1.346c-1.51-3.198-2.488-6.015-2.57-6.244l.602-.214c0 .055.749 2.155 1.924 4.802q.31.706.662 1.454c1.564 3.281 3.67 6.983 5.862 8.552 2.193 1.57 6.14 1.64 9.7.154 3.828-1.641 6.316-4.577 6.847-8.104.372-2.527-1.734-11.21-5.01-20.643q-.41-1.18-.82-2.302l.591-.23c.345.935.624 1.734.831 2.319 2.762 7.918 5.513 17.848 5.053 20.949"/>
  <path fill="#fff" d="M55.106 17.735a5.53 5.53 0 0 1-2.27 3.987q-.286.627-.705 1.175-.286.69-.629 1.362a30 30 0 0 1-3.28 4.921c-.548.695-1.094 1.526-1.882 1.958a5.04 5.04 0 0 1-2.816.328 15 15 0 0 1-2.931-.602 7.7 7.7 0 0 1-2.499-1.093c-1.367-.995-1.886-2.734-2.007-4.336a.3.3 0 0 1 .077-.241 10.5 10.5 0 0 1-.17-1.608 7.9 7.9 0 0 1 .465-3.007c.185-.48.425-.937.716-1.362a1.8 1.8 0 0 0 .356-.754c.038-.214.066-.422.104-.63-.11-.07.213-.3.279-.459.432-1.093.661-2.045 1.421-2.963q.01-.076.039-.148a18.7 18.7 0 0 1 7.376-3.008q1.32-.26 2.658-.415c.54.433.924 1.03 1.093 1.7h.515c.561-.011 1.12.091 1.64.301a4.1 4.1 0 0 1 1.897 2.05c.431.883.622 1.864.553 2.844"/>
  <path fill="#000" d="M47.45 11.294a11.9 11.9 0 0 0-5.539 1.093c-.85.35-1.646.816-2.368 1.384a5.7 5.7 0 0 0-1.498 2.061 15.7 15.7 0 0 0-.831 2.8c-.088.4.547.47.634.077.345-1.515.733-3.188 1.92-4.287a8.3 8.3 0 0 1 2.132-1.33 13.4 13.4 0 0 1 2.488-.89 10 10 0 0 1 2.991-.28c.421.028.492-.601.071-.628M49.933 21.656a.33.33 0 0 0-.361-.268 7.6 7.6 0 0 0-1.941.64.323.323 0 0 0 .246.59 6.7 6.7 0 0 1 1.788-.6.32.32 0 0 0 .268-.362"/>
  <path fill="#000" d="M44.087 18.583a4.06 4.06 0 0 0-1.208-2.297 2.93 2.93 0 0 0-2.302-.77c-.405.043-.317.672.093.628a2.32 2.32 0 0 1 1.908.733c.523.569.845 1.293.919 2.061a7.33 7.33 0 0 1-1.094 4.752c-.213.345.29.728.509.378a7.9 7.9 0 0 0 1.175-5.485"/>
  <path fill="#000" d="m40.648 19.731 1.23 1.181c.068.05.152.071.235.06a.34.34 0 0 0 .214-.125.36.36 0 0 0 .06-.235.36.36 0 0 0-.126-.208l-1.23-1.181a.3.3 0 0 0-.236-.06.31.31 0 0 0-.267.36c.016.08.059.154.12.208M41.725 25.571a.4.4 0 0 0 0 .088 1.33 1.33 0 0 0 .65 1.252 1.92 1.92 0 0 0 1.587.104 2.94 2.94 0 0 0 1.875-2.023c.055-.214-.082-.482-.339-.432l-1.903.377a2.6 2.6 0 0 1-1.613.05c-.388-.176-.618.41-.257.584m.612.159c.398.008.795-.036 1.182-.131l1.492-.301c-.228.448-.597.81-1.05 1.028a1.52 1.52 0 0 1-1.093.126.72.72 0 0 1-.547-.722z"/>
  <path fill="#000" d="M45.361 31.16a8.8 8.8 0 0 1-4.292-.312c-2.078-.705-4.09-1.799-4.73-4.965-.711-3.494 1.427-6.917 1.449-6.95a.377.377 0 0 0-.118-.522.38.38 0 0 0-.522.117c-.093.153-2.318 3.708-1.547 7.508.716 3.549 3.045 4.785 5.227 5.528.973.327 1.993.491 3.019.487a8.4 8.4 0 0 0 1.684-.153.378.378 0 1 0-.17-.738M57.233 23.74a2.19 2.19 0 0 0-2.089-1.094 2.28 2.28 0 0 0-1.936 1.673.334.334 0 0 0 .18.41.317.317 0 0 0 .41-.18 1.7 1.7 0 0 1 1.182-1.23 1.55 1.55 0 0 1 1.64.579 1.91 1.91 0 0 1 .083 1.876 2.47 2.47 0 0 1-3.631 1.006c-.34-.225-.722.284-.378.508a3.106 3.106 0 0 0 4.511-1.093 2.6 2.6 0 0 0 .028-2.456"/>
  <path fill="#000" d="M55.702 25.036a.32.32 0 0 0-.416-.17q-.706.383-1.449.695a.323.323 0 0 0-.17.415.317.317 0 0 0 .416.17 15 15 0 0 0 1.45-.695.32.32 0 0 0 .169-.416M53.728 14.591c-.312 1.64-.777 3.281-1.936 4.462a29 29 0 0 0-2.1-1.247 32.6 32.6 0 0 0-5.173-2.247 33 33 0 0 0-2.706-.766l-.766-.191c1.132-2.062 3.527-3.45 5.468-4.686q.69.01 1.367.131a.4.4 0 0 1 .263-.093c.91.046 1.796.3 2.592.744a6.14 6.14 0 0 1 2.925 3.724.4.4 0 0 1 .066.17"/>
  <path fill="#fff" d="M21.941 67.611c1.23 1.094 5.299 4.233 5.725 5.73.427 1.5.432 2.303-.694 3.375-1.127 1.072-6.748 5.566-6.748 5.566l-3.855 2.625-4.818-8.405-4.177-9.427z"/>
  <path fill="#000" d="M28.142 73.484a6 6 0 0 0-.131-.432c-.099-.284-.46-1.4-.924-1.176-.465.224.038.815.158 1.094.332.655.433 1.403.284 2.122a3.5 3.5 0 0 1-1.235 1.722c-.935.727-1.881 1.531-2.877 2.384-4.04 3.45-8.628 7.371-14.064 6.562a9.84 9.84 0 0 1-7.076-4.84c-1.7-2.86-2.138-6.528-1.093-9.35 1.64-4.451 6.928-13.233 11.893-20.916l-.585-.262C7.522 58.085 2.212 66.878.588 71.352c-1.094 2.99-.635 6.878 1.159 9.897a10.52 10.52 0 0 0 9.104 5.26c5.02 0 9.236-3.598 12.998-6.813.99-.848 1.925-1.64 2.855-2.362a3.83 3.83 0 0 0 1.542-2.368c.066-.496.031-1-.104-1.482M61.8 59.863c-.138 0-.274.043-.406.076-.13.033-.35.077-.52.126l-.18.05c-.459.141-.907.31-1.35.497a7.5 7.5 0 0 0-2.22 1.274 4.26 4.26 0 0 0-1.23 2.078 4.21 4.21 0 0 0 1.448 4.265c.317.257-.065.766-.382.508a4.92 4.92 0 0 1-1.64-2.466 4.86 4.86 0 0 1 1.448-4.921 8.6 8.6 0 0 1 2.548-1.422c.285-.115.58-.224.875-.322.295-.099.481-.154.727-.214h.066l.192.12.3.181z"/>
  <path fill="#1D4ED8" d="M84.787 19.272 42.135 61.924a3.604 3.604 0 0 1-5.102 0L12.798 37.722a3.604 3.604 0 0 0-5.102 0L2.644 42.78a3.6 3.6 0 0 0 0 5.096L29.4 74.638l7.606 7.606a3.615 3.615 0 0 0 5.102 0l7.606-7.606 45.228-45.233a3.604 3.604 0 0 0 0-5.102l-5.058-5.053a3.6 3.6 0 0 0-5.097.022"/>
  <path fill="#fff" d="M78.204 49.407a18 18 0 0 1-1.33 3.872 18.4 18.4 0 0 1-1.908 3.56 12.9 12.9 0 0 1-3.018 2.92c-1.263.907-2.56 1.777-3.828 2.668-.52.417-1.122.721-1.766.892a1.87 1.87 0 0 1-1.679-.443 4.7 4.7 0 0 1-.547-.848 2.9 2.9 0 0 0-.585-.684 9.4 9.4 0 0 0-1.597-1.05c-1.022-.546-2.564-1.34-2.892-2.548a2.6 2.6 0 0 1 .722-2.247c.749-1.192 2.597-.153 3.543.328a28 28 0 0 1 3.374 2.018 3.4 3.4 0 0 0-.951-2.029 14 14 0 0 0-1.86-1.854 6.6 6.6 0 0 1-1.515-1.509 1.99 1.99 0 0 1-.207-1.908 3.1 3.1 0 0 1 1.591-1.094 1.58 1.58 0 0 1 .47-1.597 3.97 3.97 0 0 1 2.188-1.093c.88.03 1.726.344 2.411.896a32 32 0 0 1 4.375 3.424.32.32 0 0 1 .114.246 4 4 0 0 0 .312-.361c.193-.22.34-.477.432-.755.175-.601-.312-.897-.75-1.192l-1.64-1.126c-.885-.607-1.98-1.274-2.017-2.477a1.47 1.47 0 0 1 .612-1.285 2.5 2.5 0 0 1 1.45-.34 5.24 5.24 0 0 1 2.914.974 6.8 6.8 0 0 1 2.187.913c.581.382 1.03.934 1.285 1.58.223.695.26 1.436.11 2.15"/>
  <path fill="#000" d="M70.964 53.995a8.3 8.3 0 0 0-3.456-3.374 30 30 0 0 0-2.226-1.137 2.87 2.87 0 0 0-2.324-.285 2.334 2.334 0 0 0-.776 3.828c.732.733 1.607 1.334 2.4 2.007a3.96 3.96 0 0 1 1.537 2.133c.076.399.705.311.629-.093-.285-1.51-1.64-2.45-2.778-3.363l-1.045-.864a2.2 2.2 0 0 1-.71-.88 1.69 1.69 0 0 1 .442-1.87 1.8 1.8 0 0 1 1.98-.22c.694.301 1.378.64 2.045.996a8.9 8.9 0 0 1 3.401 2.838 5.95 5.95 0 0 1 .656 4.921c-.12.383.47.624.59.23a6.6 6.6 0 0 0-.365-4.867"/>
  <path fill="#000" d="M68.634 60.218c-.158-1.504-1.274-2.658-2.526-3.39a21 21 0 0 0-2.15-1.045 12.5 12.5 0 0 0-2.296-.897 2.55 2.55 0 0 0-2.28.487l-.05.06-.06.044a2.15 2.15 0 0 0-.59 2.012 3.33 3.33 0 0 0 1.263 1.93 8.246 8.246 0 0 0 .93.645c.459.274.93.52 1.389.783l1.361.77c.132.078.388.176.448.335.06.158-.081.437-.152.6-.17.373.42.602.59.23a1.35 1.35 0 0 0 .115-1.148c-.175-.366-.65-.547-.985-.732-.612-.345-1.23-.684-1.842-1.04-.208-.114-.416-.24-.623-.366l-.192-.12a3.72 3.72 0 0 1-1.515-1.493 1.7 1.7 0 0 1 .192-1.903 1 1 0 0 0 .049-.055l.066-.049c.65-.601 1.563-.48 2.334-.197.875.318 1.728.733 2.57 1.094 1.482.689 3.14 1.722 3.325 3.51.044.438.673.345.63-.065M74.617 52.978c-.197-1.345-1.094-2.34-2.095-3.193a28 28 0 0 0-3.505-2.57c-1.06-.657-2.187-1.16-3.456-.777a3.39 3.39 0 0 0-2.346 2.734.32.32 0 1 0 .635.071 2.73 2.73 0 0 1 1.75-2.127c1.093-.426 2.187.088 3.11.678a27 27 0 0 1 3.08 2.22c.88.733 1.826 1.559 2.121 2.707.372 1.416-.202 2.887-.705 4.189a.318.318 0 1 0 .59.235c.509-1.329 1.028-2.745.82-4.167"/>
  <path fill="#000" d="M77.865 52.185a28 28 0 0 1-2.735 5.605c-.224.345-.732-.038-.513-.383a26.7 26.7 0 0 0 2.734-5.681c.519-1.482 1.093-3.418.06-4.823a6.1 6.1 0 0 0-1.881-1.471 17 17 0 0 0-2.346-1.296 2.87 2.87 0 0 0-2.188-.05 1.477 1.477 0 0 0-.874 1.772c.145.386.412.714.76.936.388.29.787.546 1.186.847l1.783 1.263.64.46q-.016.311-.099.612a.3.3 0 0 1-.213-.055l-.367-.262-2.81-1.996a4.6 4.6 0 0 1-1.209-1.044 2.12 2.12 0 0 1-.35-1.444 2.19 2.19 0 0 1 1.51-1.75 3.58 3.58 0 0 1 2.498.137q1.337.61 2.56 1.427c.805.407 1.502 1 2.034 1.728 1.06 1.679.432 3.757-.18 5.468"/>
  <path fill="#000" d="M74.496 49.364q-.016.311-.099.612a3.14 3.14 0 0 1-.634 1.23.33.33 0 0 1-.448.066.323.323 0 0 1-.066-.443 2.671 2.671 0 0 0 .585-1.925zM12.344 68.727a206 206 0 0 0-7.562 4.538c-.345.224.049.722.388.503a161 161 0 0 1 7.42-4.456c.356-.203.11-.788-.246-.585"/>
  <path fill="#fff" d="M24.615 67.726a7 7 0 0 1-.968 1.92 16 16 0 0 0-1.094 2.028q-.225.536-.388 1.094.05.148.082.3c.136.414.148.86.033 1.28a2.15 2.15 0 0 1-.662.87 2.1 2.1 0 0 1-1.006.546 4 4 0 0 1-2.422-.448 1.73 1.73 0 0 1-.733-.974 6 6 0 0 1-.284-.902c-1.034.11-2.144.055-2.942-.689a2.28 2.28 0 0 1-.695-1.383c0-.137-.033-.274-.043-.416a.27.27 0 0 1-.29-.268 2.7 2.7 0 0 0-.159-.694.35.35 0 0 1-.219.082 2.31 2.31 0 0 1-1.64-.656 3.53 3.53 0 0 1-1.362-1.275 9 9 0 0 1-.738-1.64 2.9 2.9 0 0 1-.18-1.881.3.3 0 0 1 .038-.082 14 14 0 0 1-2.133-4.282 5.27 5.27 0 0 1 .214-3.636c.454-.973 1.389-1.974 2.542-2.001a1.14 1.14 0 0 1 1.22.874q.159 1.135.136 2.28a5.1 5.1 0 0 0 1.182 2.959q.215-.265.486-.47c.52-.471 1.086-.89 1.69-1.247.946-.547 2.27-.848 3.226-.175.957.673.678 2.045-.033 2.827q-.633.616-1.378 1.094c-.523.35-.936.84-1.192 1.416-.35.798-.836 1.876-.629 2.783.821-1.48 1.9-2.8 3.188-3.898a5.6 5.6 0 0 1 2.346-1.275 1.9 1.9 0 0 1 1.34.104c.183.107.34.252.46.427a.32.32 0 0 1 .3.093c.13.125.217.288.252.465.1.327.1.678 0 1.006a2.8 2.8 0 0 1-.728 1.093q-.157.254-.322.498-.658.922-1.203 1.914c.733-.859 1.454-1.76 2.625-1.909a2.04 2.04 0 0 1 1.64.476 1.77 1.77 0 0 1 .443 1.772"/>
  <path fill="#000" d="M24.598 65.916a2.64 2.64 0 0 0-2.98-.268c-1.159.607-2.006 1.744-2.81 2.734a8.94 8.94 0 0 0-2.056 3.915c-.077.4.546.47.634.071a7.66 7.66 0 0 1 1.597-3.187c.36-.47.743-.92 1.131-1.368a8.3 8.3 0 0 1 1.258-1.263c.738-.547 1.821-.886 2.647-.295 1.093.798.18 2.187-.416 3.002a8.63 8.63 0 0 0-1.799 3.707c-.065.4.547.476.635.072.24-1.428 1.093-2.56 1.897-3.697a3.87 3.87 0 0 0 .815-1.788 1.92 1.92 0 0 0-.553-1.635"/>
  <path fill="#000" d="M22.674 63.33a2.19 2.19 0 0 0-1.307-1.843 3.14 3.14 0 0 0-2.548.13 7.9 7.9 0 0 0-2.188 1.641 16.3 16.3 0 0 0-1.75 2.04c-1.093 1.504-2.05 3.22-1.979 5.13a4 4 0 0 0 1 2.733c.7.678 1.707.799 2.63.875.411.033.482-.601.072-.634a4.06 4.06 0 0 1-2.067-.547 2.87 2.87 0 0 1-.962-2.012c-.23-1.706.546-3.232 1.427-4.621a14.1 14.1 0 0 1 3.182-3.505 3.5 3.5 0 0 1 2.188-.82 1.69 1.69 0 0 1 1.64 1.126c.262.875-.618 1.673-1.094 2.286-.634.804-1.274 1.602-1.913 2.406a.3.3 0 0 0-.06.12c-.247.32-.41.696-.476 1.094a.317.317 0 1 0 .628.07c0-.06.028-.12.039-.174v-.028l.033-.092q.05-.158.13-.301.102-.178.236-.334a.2.2 0 0 0 .05-.104l1.875-2.345c.503-.63 1.236-1.362 1.214-2.292"/>
  <path fill="#000" d="M18.638 59.715a2.39 2.39 0 0 0-1.82-1.564 3.92 3.92 0 0 0-2.817.58 9 9 0 0 0-2.33 2.187c-.694.842-1.426 1.684-2.039 2.586a4.75 4.75 0 0 0-.946 2.79c.06 2.34 2.05 4.046 4.276 4.314a.32.32 0 0 0 .071-.635 4.08 4.08 0 0 1-3.674-3.28c-.307-1.958 1.28-3.506 2.406-4.922a12.3 12.3 0 0 1 2.034-2.187 3.86 3.86 0 0 1 2.553-.908 1.85 1.85 0 0 1 1.674 1.154c.23.82-.547 1.498-1.094 1.974-1.47 1.257-2.991 2.794-3.073 4.85 0 .41.618.487.634.077a4.67 4.67 0 0 1 1.04-2.636 17 17 0 0 1 2.094-2.062c.661-.563 1.268-1.345 1.011-2.318"/>
  <path fill="#000" d="M12.268 60.382a3.5 3.5 0 0 1-.897-1.7 6 6 0 0 1 .11-2.013 2.07 2.07 0 0 0-.46-1.788 2.04 2.04 0 0 0-1.602-.547c-1.313.093-2.308 1.263-2.735 2.423a6.44 6.44 0 0 0 0 3.959 18.5 18.5 0 0 0 2.117 4.566c.213.35.71-.044.503-.389a19.5 19.5 0 0 1-1.761-3.592 6.8 6.8 0 0 1-.421-3.79c.235-1.066.957-2.247 2.094-2.504a1.42 1.42 0 0 1 1.4.399c.405.476.24 1.16.142 1.723a4.21 4.21 0 0 0 1.001 3.674c.284.268.787-.115.508-.42M74.55 57.446c-1.81 3.319-4.86 5.73-8.027 7.655a75 75 0 0 1-2.936 1.706c-.356.197-.11.787.246.585 3.456-1.925 6.928-4.013 9.504-7.108a16.6 16.6 0 0 0 1.81-2.653c.191-.311-.4-.54-.596-.185M22.756 75.343a6.3 6.3 0 0 1-3.828.131 2.2 2.2 0 0 1-.727-.339 1.47 1.47 0 0 1-.443-.683 4.4 4.4 0 0 1-.345-1.985.32.32 0 0 0-.634-.071 5.2 5.2 0 0 0 .383 2.263 2.1 2.1 0 0 0 1.378 1.357c1.463.469 3.04.438 4.484-.088.366-.137.114-.722-.268-.585M54.351 26.845a10 10 0 0 0 .153 3.746c.29 1.143.75 2.248.771 3.462a6.56 6.56 0 0 1-.891 3.248 6.25 6.25 0 0 1-1.903 2.187 3.28 3.28 0 0 1-4.205-.295.24.24 0 0 1-.213-.115 8.8 8.8 0 0 1-1.64-4.954 9.94 9.94 0 0 1 1.093-4.687 41 41 0 0 1 2.52-4.079c1.756-2.734 3.282-6.015 3.096-9.564a6 6 0 0 1-.077-.782 12 12 0 0 1-.29-2.215c0-.388-.049-.83.323-1.066a.84.84 0 0 1 .968.104c.289.306.49.684.585 1.094.164.454.317.913.437 1.383q.147.538.192 1.094a9.45 9.45 0 0 1 .514 3.828c-.131 2.63-1.105 5.036-1.433 7.611M43.262 31.8c0-.41-.646-.318-.63.087l.285 7.18c0 .41.645.311.629-.093a2356 2356 0 0 1-.284-7.175"/>
  <path fill="#000" d="M78.652 71.308a9.1 9.1 0 0 0-1.23-2.603 46 46 0 0 0-1.679-2.412 113 113 0 0 0-3.691-4.807c-.257-.317-.76.072-.503.394a112 112 0 0 1 3.57 4.637c.547.766 1.094 1.531 1.641 2.324.556.78.983 1.644 1.263 2.56.104.393.733.306.629-.093M61.17 12.945a2.8 2.8 0 0 0-1.515.148 1.75 1.75 0 0 0-.268-1.094.318.318 0 0 0-.547.159 5 5 0 0 0-.125 1.536l-.29.055a.317.317 0 1 0 .093.629c.946-.155 1.866-.44 2.734-.848a.317.317 0 0 0-.082-.585"/>
  <path fill="#1D4ED8" d="M74.31.401a14.1 14.1 0 0 0-4.424 3.243 14 14 0 0 0-1.35 1.69 3.8 3.8 0 0 0-2.953.787 9.9 9.9 0 0 0-1.925 2.187c-.24.334.306.662.547.328.771-1.093 1.706-2.368 3.095-2.663.29-.06.587-.071.88-.033a4.08 4.08 0 0 0-.546 2.538 2.53 2.53 0 0 0 1.542 2.017.32.32 0 0 0 .36-.142 5.9 5.9 0 0 0 .963-2.542 2.31 2.31 0 0 0-1.334-2.259 13.1 13.1 0 0 1 3.04-3.166A13.4 13.4 0 0 1 74.6.964c.388-.175.077-.732-.29-.563M69.881 7.51c-.025.8-.28 1.576-.733 2.236a2.01 2.01 0 0 1-.88-1.454c-.062-.77.13-1.538.547-2.188a1.61 1.61 0 0 1 1.055 1.433zM28.311 11.474a5.87 5.87 0 0 0-3.652-2.078 7 7 0 0 0-.361-.623 8.32 8.32 0 0 0-5.83-3.697c-.404-.06-.41.58 0 .635a7.66 7.66 0 0 1 4.594 2.493q.5.565.886 1.214a2.97 2.97 0 0 0-1.482.629 2.19 2.19 0 0 0-.684 2.734 1.85 1.85 0 0 0 2.445.886 2.31 2.31 0 0 0 1.011-2.187 4.5 4.5 0 0 0-.279-1.373 5.5 5.5 0 0 1 2.68 1.597 6.72 6.72 0 0 1 1.744 5.6c-.065.398.547.579.613.174a7.4 7.4 0 0 0-1.685-6.004m-3.898-1.094a2.93 2.93 0 0 1 0 2.133 1.062 1.062 0 0 1-1.723.345 1.45 1.45 0 0 1-.033-2.15 2.25 2.25 0 0 1 1.597-.716c.038.159.093.284.137.416zM29.815 5.842c-.213-.344-.77-.044-.547.306a11.5 11.5 0 0 1 1.64 4.654.318.318 0 1 0 .619-.153 12 12 0 0 0-1.712-4.807M24.55 18.173l-3.828.383a.334.334 0 0 0-.323.317.315.315 0 0 0 .312.322l3.828-.382a.333.333 0 0 0 .322-.317.33.33 0 0 0-.312-.323M65.332 1.631a22 22 0 0 0-4.446 4.66c-.241.333.306.66.546.327a21.7 21.7 0 0 1 4.342-4.527c.323-.235-.12-.695-.442-.46M71.303 13.536c-1.934-.665-4.011-.8-6.015-.394-.4.082-.246.7.153.618a10.85 10.85 0 0 1 5.681.388c.388.131.564-.486.18-.612"/>
  <path fill="#000" d="M52.219 17.44a8.56 8.56 0 0 0-5.31.902c-.361.192-.115.782.246.585a7.95 7.95 0 0 1 4.993-.853c.404.06.475-.585.07-.634"/>
</svg>
