<svg xmlns="http://www.w3.org/2000/svg" fill="none" viewBox="0 0 192 192">
  <g clip-path="url(#girl-throwing-paper-air-planea)">
    <path fill="#fff" d="M0 0h192v192H0z"/>
    <path fill="#000" d="M107.006 169.061c-.463.135-.908.175-1.364.338s-.812.282-1.223.423c-.818.282-1.652.524-2.48.755a31.5 31.5 0 0 1-5.202.998 30.3 30.3 0 0 1-5.197.096 33 33 0 0 1-2.587-.293 27 27 0 0 0-2.762-.226.48.48 0 0 0-.242.891c.798.434 1.65.758 2.536.964q1.398.278 2.818.411c1.846.182 3.704.195 5.552.039a29 29 0 0 0 5.484-.986q1.368-.394 2.677-.952.591-.244 1.173-.564a8.7 8.7 0 0 0 1.256-.874c.502-.338.203-1.223-.439-1.02M114.276 54.921a24 24 0 0 0-1.589 1.933c-.141.062-.288.113-.434.17l-1.95.704q.587-1.207 1.341-2.317c.417-.13.84-.259 1.268-.36.44-.143.906-.188 1.364-.13M125.481 47.926a19 19 0 0 0-1.483.468c.068-.203.135-.406.22-.603a.647.647 0 0 1 1.078-.259c.105.106.17.245.185.394M163.446 85.019a192 192 0 0 0-3.573-1.64c-.711-.328-.192-1.398.512-1.218.524.135 1.066.282 1.607.445q.828.624 1.736 1.128a.693.693 0 0 1-.282 1.285"/>
    <path fill="#000" d="M114.276 54.92a24 24 0 0 0-1.589 1.933c-.141.062-.287.113-.434.17l-1.95.704c-.248.085-.491.175-.739.254a2.1 2.1 0 0 0-.817.394c-.198.19-.321.447-.344.722v.412q.01.243.063.484c.101.445.253.885.377 1.324a.807.807 0 0 1-1.431.66.2.2 0 0 1-.046-.062 5.18 5.18 0 0 1-.704-3.06 2.91 2.91 0 0 1 1.6-2.312 22 22 0 0 1 3.095-1.065l.304-.09c.417-.13.84-.26 1.268-.36.436-.134.896-.17 1.347-.108"/>
    <path fill="#000" d="M118.215 86.839h-.473a11.8 11.8 0 0 1-4.047-.564 13 13 0 0 1-1.206-.45 13 13 0 0 1-1.178-.564 14.42 14.42 0 0 1-7.226-10.512 17.35 17.35 0 0 1 .479-7.175c.325-1.17.769-2.303 1.325-3.382q.39-.804.907-1.533a6 6 0 0 1 1.263-1.257c.473-.366 1.319-.05 1.127.643q-.27.89-.648 1.741c-.248.564-.513 1.054-.744 1.595a21.3 21.3 0 0 0-1.128 3.455c-.862 3.906-.388 8.105 2.08 11.346 2.221 2.92 5.778 4.864 9.492 4.577a.84.84 0 0 1 .75.276 1.1 1.1 0 0 1 .175 1.142 1.1 1.1 0 0 1-.948.662"/>
    <path fill="#000" d="M123.806 99.35a.72.72 0 0 1-.192.412 1.077 1.077 0 0 1-1.482.034 4 4 0 0 1-.767-1.285c-.31-.784-.507-1.691-.732-2.379a127 127 0 0 1-1.128-3.511l-1.099-3.528c-.191-.632-.383-1.263-.563-1.9a5 5 0 0 1-.096-.327 1.649 1.649 0 0 1 .073-1.516.86.86 0 0 1 .942-.378q.108.036.208.09c.563.282.733.8.952 1.427.22.625.423 1.127.615 1.741l1.223 3.63c.4 1.206.795 2.424 1.184 3.64.388 1.218 1.048 2.582.862 3.85M119.01 56.634a1.1 1.1 0 0 0-.27-.35l-.181-.112a.6.6 0 0 0-.315-.056.8.8 0 0 0-.513.158.94.94 0 0 0-.265.343l-.062.04-.135.113-.068.039a1.8 1.8 0 0 0-.383.378 1.7 1.7 0 0 0-.271.473 3 3 0 0 0-.101.355 1 1 0 0 0 0 .293l-.034.13a.83.83 0 0 0 .107.53.8.8 0 0 0 .383.355.86.86 0 0 0 .981-.248l.085-.107q.15-.098.281-.22.284-.248.491-.564.084-.141.152-.293.08-.204.135-.417c0-.079.034-.152.045-.225a1 1 0 0 0 0-.13.9.9 0 0 0-.062-.485M123.43 55.772c-.028-.073-.09-.304-.164-.355a.6.6 0 0 0-.045-.192.9.9 0 0 0-.191-.276 4.255 4.255 0 0 0-2.046-1.308 5 5 0 0 0-1.979-.18 2.29 2.29 0 0 0-1.837.975.563.563 0 0 0 .423.76q.098.01.197.001h.214q.166-.017.327-.062a9 9 0 0 1 .665-.079h.46799999999999997q.341.03.676.102l.158.04c.107.039.209.067.31.112q.315.126.615.287l.152.08q.145.09.282.191l.23.192q.131.105.288.163c-.028 0 .062.034.096.056l.175.147c.125.131.289.22.467.254a.47.47 0 0 0 .508-.282.86.86 0 0 0 .011-.626M112.782 62.698a2.05 2.05 0 0 0-1.556-.169c-.637.13-1.268.322-1.893.49q-.531.143-1.043.345c-.334.084-.645.24-.913.456a.34.34 0 0 0-.083.322.35.35 0 0 0 .229.242c.322.064.653.064.975 0 .344-.051.688-.096 1.02-.175.615-.147 1.229-.31 1.844-.451.27-.056.823-.203.828.225s-.473.835-.766 1.128a10.4 10.4 0 0 1-2.621 1.848q-.71.335-1.46.564c-.524.163-1.296.22-1.589.738a.512.512 0 0 0 .078.614c.485.384 1.071.198 1.618.04q.77-.227 1.499-.563a11.8 11.8 0 0 0 2.683-1.691c.755-.643 1.691-1.471 1.798-2.525a1.54 1.54 0 0 0-.648-1.438M128.682 66.215c0 .101.001.197.04.304a2.1 2.1 0 0 1-.8.564.632.632 0 0 1-.801-.61c0-.726.75-1.295 1.415-1.645.039.457.096.924.146 1.387M136.669 71.243a5.77 5.77 0 0 1-2.891 3.421q-.639.343-1.33.564-.237-.737-.457-1.483a5 5 0 0 0 1.691-.879 4.06 4.06 0 0 0 1.522-3.635c-.231-1.5-1.691-2.621-3.044-3.095a4.1 4.1 0 0 0-1.843-.23 67 67 0 0 1-.174-1.585 5.6 5.6 0 0 1 1.623.057 6.85 6.85 0 0 1 4.159 2.514 4.854 4.854 0 0 1 .744 4.351"/>
    <path fill="#000" d="M135.666 113.391a7 7 0 0 1-1.381-.113 13 13 0 0 1-.637-.152 12.25 12.25 0 0 1-4.25-2.255 13.43 13.43 0 0 1-4.086-5.529c-1.849-4.509-1.178-9.542.693-13.933.919-2.158 2.041-4.317 2.165-6.713.124-2.508-.626-4.954-1.421-7.327-.794-2.373-1.691-4.757-2.294-7.214a52 52 0 0 1-1.291-7.44 48 48 0 0 1-.219-5.636c0-.637 0-1.263.05-1.894v-.09c.113-2.21.271-4.588.998-6.713.068-.203.135-.406.22-.603a.647.647 0 0 1 1.262.174c0 1.376-.186 2.734-.298 4.098a72 72 0 0 0-.237 4.143c-.054 2.68.088 5.36.423 8.02.3 2.407.776 4.788 1.426 7.124.648 2.362 1.549 4.64 2.293 6.973a17.6 17.6 0 0 1 1.021 7c-.231 2.333-1.184 4.441-2.103 6.572-1.775 4.109-2.468 8.821-.625 13.048a12.26 12.26 0 0 0 3.443 4.509c1.505 1.24 3.213 1.798 5.073 2.311l.107.039a.836.836 0 0 1 .458.985.84.84 0 0 1-.79.616M110.951 99.498c0 .626.158 1.257.18 1.882a34 34 0 0 0-1.69.632 4.3 4.3 0 0 1-.564-2.142c.665-.27 1.347-.507 2.04-.722.028.113.034.237.034.35M113.695 86.315c-.406-.13-.812-.282-1.207-.451q.16-.648.215-1.313a.299.299 0 0 1 .563-.073c.2.597.343 1.212.429 1.837"/>
    <path fill="#000" d="M121.366 98.51c-2.818-.738-5.946-.45-8.719.187q-.845.196-1.691.45c-.693.215-1.375.452-2.04.722a13 13 0 0 1 .158-2.254 20.5 20.5 0 0 1 1.127-4.295c.518-1.437 1.06-2.852 1.516-4.306.231-.722.406-1.443.564-2.181.073-.316.152-.643.225-.976.395.17.801.322 1.206.451 1.306.421 2.676.612 4.047.564q.043.168.096.327c.18.637.372 1.268.564 1.9l1.099 3.528c.361 1.178.744 2.344 1.127 3.511.214.704.411 1.59.721 2.373"/>
    <path fill="#000" d="M123.616 99.763a.7.7 0 0 1-.182.535.7.7 0 0 1-.517.226 45 45 0 0 0-5.389-.322h-.253c-.564 0-1.173.074-1.747.153-1.29.168-2.563.447-3.805.834l-.564.186c-.563.191-1.127.406-1.69.631a29.5 29.5 0 0 0-7.587 4.611c-5.563 4.649-9.615 10.748-13.578 16.745-1.55 2.339-3.1 4.695-4.582 7.09a51 51 0 0 0-1.048 1.725 16 16 0 0 0-2.475-.084c.367-.632.744-1.252 1.127-1.872 2.125-3.505 4.42-6.904 6.697-10.303 4.154-6.2 8.657-12.479 14.879-16.802a29.8 29.8 0 0 1 6.025-3.252c.666-.27 1.348-.507 2.041-.721a27 27 0 0 1 1.691-.451c2.773-.637 5.901-.924 8.719-.186.657.168 1.297.398 1.911.688a.62.62 0 0 1 .327.569"/>
    <path fill="#000" d="M118.65 156.83c-.784.885-1.962 1.043-3.078 1.127-2.745.209-5.489.361-8.234.53l-7.265.451c-2.137.13-4.397.225-6.42-.564-2.694-1.048-4.385-3.291-5.794-5.72.755-.361 1.499-.733 2.254-1.128 1.127-.563 2.542-.997 3.444-1.905a1.69 1.69 0 0 0 .192-2.299c-.654-.778-1.624-.868-2.565-.784.615-1.815-.4-3.9-2.08-4.808a2.92 2.92 0 0 0 .48-3.173c-.564-1.291-1.832-1.967-3.123-2.435a2.01 2.01 0 0 0 1.093-1.961c-.14-1.618-1.73-2.559-3.173-2.818a20.7 20.7 0 0 0-5.275-.13c-1.024.076-2.03.302-2.988.671a33 33 0 0 1-3.624-7.474 3.3 3.3 0 0 1 .147-2.734c.716-1.127 2.333-1.454 3.573-1.51 5.45-.237 10.912-.378 16.345-.564 2.385-.084 4.876-.208 6.848 1.364 1.77 1.421 2.864 3.715 4.036 5.637.096.163.203.321.293.484a13.4 13.4 0 0 0-2.728.09 3.66 3.66 0 0 0-2.604 1.832 2.76 2.76 0 0 0 .643 3.049 4.6 4.6 0 0 0 2.254 1.201c-1.595.868-3.156 1.973-3.748 3.72-.535 1.561-.242 3.703 1.234 4.616a3.38 3.38 0 0 0 3.01 4.222 2.147 2.147 0 0 0 1.314 2.085c.879.324 1.799.527 2.733.603 1.031.164 2.063.355 3.083.564 2.057.404 4.089.923 6.087 1.555.868.277 1.725.564 2.582.891l1.46 2.818c.091.173.134.368.123.564a2.25 2.25 0 0 1-.529 1.933M89.41 173.17c-3.647.355-7.615-.817-10.744-2.677a13.41 13.41 0 0 1-6.414-9.063c-.727-3.641-.355-7.429.383-11.036a49.3 49.3 0 0 1 3.01-9.412c.186-.423.378-.852.564-1.274.113-.26.231-.513.355-.772.513.62 1.031 1.228 1.544 1.843a42 42 0 0 0-.563 1.279c-.107.271-.215.564-.327.8a45.8 45.8 0 0 0-2.722 9.503c-.564 3.348-.705 6.922.389 10.179a11.68 11.68 0 0 0 5.929 6.606c2.756 1.426 5.84 1.832 8.759 2.756a.649.649 0 0 1-.163 1.268"/>
    <path fill="#000" d="m78.372 135.981 2.294-.327a78 78 0 0 0-1.076 2.041l-.976.157c-.563.091-1.099.209-1.651.26q.5-1.042 1.043-2.074zM191.183 172.894a13 13 0 0 1-5.529 6.391c-5.326 3.281-12.101 4.081-18.216 3.382-6.443-.727-12.547-3.072-18.121-6.341-9.429-5.535-17.129-13.324-25.262-20.544a147 147 0 0 0-4.627-3.946 17.2 17.2 0 0 0 5.518 2.063c.772.677 1.533 1.353 2.294 2.035 8.251 7.423 16.266 15.274 26.253 20.291 5.485 2.773 11.532 4.543 17.704 4.571 3.095.03 6.175-.44 9.12-1.392a16.35 16.35 0 0 0 6.915-4.064c4.211-4.453 2.576-11.363 1.24-16.672a81 81 0 0 0-6.763-17.473 123 123 0 0 0-7.705-12.743 92 92 0 0 0-1.364-1.962c-.462-.648-.817-1.127-1.229-1.73a265 265 0 0 0-12.016-15.449c-1.939-2.311-4.081-4.509-6.837-5.862-2.519-1.206-5.473-1.46-7.998-.13a12.35 12.35 0 0 0-5.073 5.49c-.822 1.601-1.595 3.54-3.128 4.509a3.9 3.9 0 0 1-1.386.524.56.56 0 0 1-.479-.139.56.56 0 0 1-.181-.464.56.56 0 0 1 .372-.445 3.3 3.3 0 0 0 1.246-.941l.09-.102a8.5 8.5 0 0 0 .958-1.578c.564-1.161.936-2.412 1.578-3.528a14 14 0 0 1 2.542-3.235 10.46 10.46 0 0 1 7.666-2.948c6.701.366 10.985 6.138 14.818 10.94 3.832 4.802 7.546 9.525 11.046 14.491.451.62.886 1.245 1.32 1.882A112.7 112.7 0 0 1 185.868 145a71.7 71.7 0 0 1 5.777 18.549c.446 3.111.649 6.386-.462 9.345"/>
    <path fill="#000" d="M180.118 110.674c-2.395-2.632-6.014-3.945-7.93-7.068-1.167-1.911-1.291-4.131-1.212-6.307.079-2.175.299-4.396-.699-6.42-1.403-2.852-4.064-4.509-6.859-5.861a189 189 0 0 0-3.574-1.64c-.71-.327-.191-1.398.513-1.218.524.135 1.065.282 1.607.445a13 13 0 0 1-3.512-3.945c-1.471-2.565-2.046-5.478-2.502-8.37-.491-3.14-.846-6.34-1.973-9.328a24.5 24.5 0 0 0-3.917-6.764 25.1 25.1 0 0 0-12.676-8.29 24.19 24.19 0 0 0-25.736 9.514c.418-.13.84-.26 1.269-.361a3.14 3.14 0 0 1 1.364-.13 24.3 24.3 0 0 1 7.501-5.636 21 21 0 0 1 2.221-.913c.068-.203.135-.406.22-.603a.647.647 0 0 1 1.262.135.07.07 0 0 1 0 .04c0 1.375-.185 2.733-.298 4.097a72 72 0 0 0-.237 4.143c-.054 2.68.088 5.36.423 8.02.3 2.407.777 4.788 1.426 7.124.648 2.362 1.55 4.64 2.294 6.973a17.65 17.65 0 0 1 1.02 7c-.231 2.333-1.184 4.441-2.103 6.572-1.775 4.109-2.468 8.82-.625 13.048a12.26 12.26 0 0 0 3.444 4.509c1.504 1.24 3.212 1.798 5.072 2.311l.107.039a8.5 8.5 0 0 0 .959-1.578c.563-1.161.935-2.412 1.578-3.528a14 14 0 0 1 2.542-3.236 10.47 10.47 0 0 1 7.665-2.947c6.702.366 10.985 6.137 14.818 10.94 3.833 4.802 7.547 9.525 11.047 14.49q.675-.243 1.319-.563a11.7 11.7 0 0 0 4.796-4.351c1.826-3.174 1.945-7.53-.614-10.343m-52.181-43.602a.63.63 0 0 1-.8-.609c0-.727.749-1.296 1.415-1.646.039.468.095.936.146 1.398 0 .102 0 .197.04.304-.22.245-.494.434-.801.553m8.748 4.17a5.77 5.77 0 0 1-2.892 3.422q-.639.343-1.33.564-.237-.737-.456-1.483a41 41 0 0 1-.389-1.426 53 53 0 0 1-1.251-6.301v-.113c-.062-.524-.125-1.054-.175-1.584a5.6 5.6 0 0 1 1.623.057 6.85 6.85 0 0 1 4.159 2.513 4.86 4.86 0 0 1 .694 4.352z"/>
    <path fill="#000" d="M181.336 123.925a15 15 0 0 1-5.416 3.889 17 17 0 0 1-1.916.687 98 98 0 0 0-1.364-1.961 15 15 0 0 0 1.961-.609q.675-.243 1.319-.563a11.7 11.7 0 0 0 4.796-4.352c1.843-3.15 1.962-7.507-.597-10.32-2.395-2.632-6.014-3.945-7.93-7.067-1.167-1.911-1.291-4.132-1.212-6.308.079-2.175.299-4.396-.699-6.42-1.403-2.851-4.064-4.508-6.859-5.861a189 189 0 0 0-3.574-1.64c-.71-.327-.191-1.398.513-1.218.524.136 1.065.282 1.606.446 4.543 1.37 9.216 3.714 10.873 8.454.828 2.367.428 4.876.417 7.327 0 2.12.502 3.946 2.018 5.428 1.358 1.358 3.021 2.362 4.509 3.54a11.43 11.43 0 0 1 3.742 4.599c1.669 3.973.587 8.719-2.187 11.949M88.15 155.444c-1.944-1.691-3.539-3.838-5.202-5.794s-3.24-3.844-4.858-5.766l-.868-1.026-1.578-1.877a261 261 0 0 1-1.95-2.344c-1.179-1.438-2.289-3.191-1.449-5.073.67-1.516 2.316-2.339 3.838-2.751 1.701-.452 3.461-.642 5.22-.563.32 0 .636.034.952.056q.712.066 1.449.175a7.2 7.2 0 0 1 3.82 1.555 2.485 2.485 0 0 1 .616 3.099 2.5 2.5 0 0 1-.75.847 5.3 5.3 0 0 1-2.108.772c-1.128.214-2.255.383-3.348.564-.784.135-1.561.265-2.345.389l-.975.157c-.564.091-1.099.209-1.651.26h-.068a1.3 1.3 0 0 1-1.161-.463.52.52 0 0 1-.085-.631 1.36 1.36 0 0 1 1.128-.8l1.228-.186.367-.057 2.293-.326.778-.113c1.066-.147 2.142-.288 3.202-.445.597-.091 1.431-.192 1.877-.66.97-1.043-1.528-1.837-2.148-1.973a15 15 0 0 0-1.719-.281 15.6 15.6 0 0 0-2.474-.085c-.395 0-.795.051-1.19.096-1.391.158-3.026.434-4.176 1.308-1.262.963-.766 2.254.068 3.33q.846 1.073 1.69 2.103c.564.688 1.032 1.229 1.545 1.843l.366.445 3.574 4.391c1.195 1.46 2.378 2.925 3.568 4.396a38 38 0 0 1 3.511 4.678.627.627 0 0 1-.986.75"/>
    <path fill="#000" d="M90.175 137.407a5.13 5.13 0 0 0-3.05-1.482 14.4 14.4 0 0 0-3.776-.209 34.3 34.3 0 0 0-8.026 1.854c-.964.31-.563 1.815.423 1.528a44.4 44.4 0 0 1 6.442-1.544 16.3 16.3 0 0 1 3.196-.119 7.3 7.3 0 0 1 2.998.654c.739.411 1.128 1.178.502 1.877s-1.657.823-2.497 1.009q-3.348.732-6.707 1.409c-1.026.208-.598 1.815.434 1.578a320 320 0 0 1 4.115-.919c1.29-.276 2.632-.479 3.9-.856a3.91 3.91 0 0 0 2.44-1.793 2.66 2.66 0 0 0-.394-2.987"/>
    <path fill="#000" d="M94.65 147.08a3.85 3.85 0 0 0-2.892-1.342 2.94 2.94 0 0 0 .062-2.981c-.998-1.691-3.545-1.652-5.225-1.567-1.06.038-2.113.193-3.14.462q-.834.238-1.64.564-.736.352-1.42.8a.43.43 0 0 0-.178.535.43.43 0 0 0 .505.249c.429-.136.885-.169 1.325-.288s.794-.208 1.2-.287a19 19 0 0 1 2.604-.372q1.297-.085 2.593 0c.631.039 1.46.073 1.95.524.851.783.231 1.747-.564 2.367l-.417.034a16.1 16.1 0 0 0-5.698 1.629c-.868.434-.107 1.691.755 1.285l.372-.147c1.691-.603 3.59-.4 5.208-1.211.31 0 .62-.034.93-.034.705 0 1.595-.04 2.187.422 1.375 1.071-.823 1.928-1.618 2.255a40 40 0 0 1-4.728 1.477c-1.032.253-.592 1.86.434 1.589a34 34 0 0 0 5.98-2.091c1.505-.75 2.576-2.362 1.415-3.872M140.902 144.154c-3.804-3.714-8.184-6.859-12.371-10.145-3.799-2.965-7.615-5.969-12.338-7.277a29.1 29.1 0 0 0-13.73-.237c-1.826.384-4.351.818-5.259 2.689-.997 2.051.857 4.035 2.819 4.334 1.29.197 2.57-.101 3.855-.248 1.366-.152 2.741-.203 4.114-.152 1.38.044 2.755.186 4.115.423 1.375.236 2.705.704 4.092.851.676.067.839-.902.327-1.212a10.6 10.6 0 0 0-3.112-1.099 29 29 0 0 0-3.303-.564 28.2 28.2 0 0 0-6.605 0c-1.049.13-2.176.412-3.224.175-.609-.141-1.471-.654-1.387-1.392.085-.739.992-1.054 1.55-1.251a22 22 0 0 1 2.971-.784c4.122-.93 8.414-.8 12.473.378 4.204 1.302 7.654 4.035 11.097 6.668q3.236 2.474 6.493 4.937a80 80 0 0 0 6.764 4.734.527.527 0 0 0 .729-.096.527.527 0 0 0-.07-.732M127.239 155.935a.5.5 0 0 1-.13 0 9.7 9.7 0 0 1-3.055-.164c-2.254-.456-4.402-1.6-6.419-2.767a34 34 0 0 0-3.946-2.085 15.5 15.5 0 0 0-4.329-1.083c-1.499-.157-3.009-.203-4.509-.315-1.211-.085-2.694-.085-3.618-1.015a2.64 2.64 0 0 1-.147-3.348c.772-1.127 2.091-1.527 3.382-1.691a35.6 35.6 0 0 1 4.825-.332c1.55 0 3.196.039 4.622.71a.515.515 0 0 1 .117.766.5.5 0 0 1-.242.158c-1.51.333-3.094.169-4.632.181a29 29 0 0 0-4.634.349c-.828.141-2.468.564-2.254 1.73.169.992 2.175.863 2.869.891 2.604.147 5.275.141 7.806.845 2.255.632 4.385 1.917 6.533 3.055a17.2 17.2 0 0 0 5.517 2.063c.722.693 1.483 1.37 2.244 2.052"/>
    <path fill="#000" d="M114.974 139.058a12.1 12.1 0 0 0-3.607-.377c-1.161 0-2.328.056-3.489.129a50 50 0 0 0-7.158.925c-1.815.394-3.714 1.691-3.348 3.816a3.38 3.38 0 0 0 1.584 2.254c.8.502 1.978.907 2.874.473a.673.673 0 0 0 .135-1.054c-.631-.501-1.476-.467-2.13-.924a1.36 1.36 0 0 1-.614-1.64 2.39 2.39 0 0 1 1.651-1.077q1.343-.304 2.711-.456a79 79 0 0 1 5.636-.564c1.883-.124 3.946-.067 5.755-.614a.45.45 0 0 0 0-.891"/>
    <path fill="#000" d="M117.365 134.261a23.3 23.3 0 0 0-6.199-1.262 31 31 0 0 0-6.37 0c-2.023.22-4.154.563-5.99 1.454-1.619.8-3.005 2.384-3 4.272 0 1.691 1.866 4.115 3.749 3.117a.77.77 0 0 0 .36-.759.77.77 0 0 0-.546-.639 3.5 3.5 0 0 1-1.128-.4 1.65 1.65 0 0 1-.563-.879 2.5 2.5 0 0 1 .896-2.255c1.403-1.302 3.765-1.606 5.574-1.871a34.8 34.8 0 0 1 6.487-.299c2.21.091 4.391.446 6.595.508.564-.006.615-.806.135-.987M141.156 144.155c-.237-.688-1.432-.632-1.353.186.31 3.274.091 6.611-1.369 9.615a15.34 15.34 0 0 1-5.93 6.403.894.894 0 0 0-.261 1.181.887.887 0 0 0 1.157.352c6.093-3.235 10.033-10.991 7.756-17.737"/>
    <path fill="#000" d="M175.028 152.462c-7.693-5.501-17.264-7.282-26.49-8.071-1.404-.119-2.818-.192-4.216-.265a19 19 0 0 0-4.255.033c-.654.119-.564 1.071 0 1.24a17 17 0 0 0 3.595.451q1.781.13 3.557.282c2.463.214 4.915.429 7.361.789a53.4 53.4 0 0 1 12.991 3.45 38 38 0 0 1 6.595 3.59c.919.637 1.764-.857.862-1.499M136.63 111.695c-.287.107-.564.141-.868.248a6.5 6.5 0 0 0-.806.423c-.625.35-1.234.727-1.854 1.088a28 28 0 0 1-3.613 1.804 14.4 14.4 0 0 1-7.057 1.127 9.97 9.97 0 0 1-5.45-2.373 7.404 7.404 0 0 1-2.35-6.132c.191-3.129 1.944-5.676 3.257-8.415a.594.594 0 0 0-.161-.752.6.6 0 0 0-.769.03c-4.063 3.946-6.25 11.042-2.288 15.782 3.303 3.945 9.131 4.509 13.758 3.055a24.7 24.7 0 0 0 4.509-2.007c.761-.423 1.533-.862 2.255-1.358.332-.226.648-.479.958-.722q.506-.464.919-1.014c.31-.316.028-.97-.44-.784"/>
    <path fill="#000" d="M153.442 144.633c-.834-1.859-1.792-3.674-2.767-5.467a58 58 0 0 0-3.05-5.298c-.326-.473-1.2-.197-.992.417a59 59 0 0 0 2.475 5.67c.879 1.877 1.781 3.765 2.818 5.575.552 1.014 1.973.124 1.516-.897M107.693 118.582a.783.783 0 0 0-1.054-.276 15.4 15.4 0 0 0-3.76 2.395q-.817.712-1.51 1.545a4.87 4.87 0 0 0-1.178 2.012c-.09.406.389.907.789.603q.44-.316.806-.716c.231-.265.434-.564.665-.817a17 17 0 0 1 1.499-1.483 14.2 14.2 0 0 1 3.466-2.209.76.76 0 0 0 .358-.469.76.76 0 0 0-.081-.585"/>
    <path fill="#fff" d="M90.092 128.069a2.79 2.79 0 0 0-1.505-1.623c-2.47-1.071-4.915 1.843-3.382 4.058 1.127 1.584 3.985 1.454 4.79-.378a2.74 2.74 0 0 0 .096-2.057"/>
    <path fill="#000" d="M110.404 172.73c-.231-.677-.456-1.359-.687-2.041-.485-1.448-.97-2.891-1.471-4.334l-1.454-4.199c-.237-.682-.474-1.358-.705-2.04s-.49-1.635-1.071-2.159c-.58-.524-1.505-.338-1.64.434a4.5 4.5 0 0 0 .355 2.254c.242.722.479 1.443.722 2.17.479 1.449.963 2.897 1.442 4.34.48 1.443.947 2.818 1.432 4.211l.744 2.164c.271.789.406 1.691 1.178 2.108a1.06 1.06 0 0 0 .919.056 1.07 1.07 0 0 0 .62-.682c.304-.755-.147-1.572-.384-2.282M176.772 104.886a7.1 7.1 0 0 1-2.875-6.566c.423-2.874 2.103-5.433 1.522-8.454-.49-2.525-2.531-4.51-4.701-5.704-2.699-1.494-5.822-1.877-8.707-2.858a11.8 11.8 0 0 1-3.788-2.007 9.8 9.8 0 0 1-2.469-3.381.613.613 0 0 0-1.127.31c.079 2.592 2.457 4.621 4.571 5.766 2.818 1.51 5.986 1.927 8.916 3.054 2.311.885 4.775 2.514 5.406 5.073.344 1.392-.057 2.818-.479 4.148a20 20 0 0 0-1.128 4.47 8.1 8.1 0 0 0 4.025 7.581.828.828 0 0 0 .834-1.432"/>
    <path fill="#000" d="M187.12 109.913c-2.024-2.04-4.763-3.089-7.384-4.137-2.818-1.127-5.817-2.497-7.214-5.383-.378-.772-1.618-.231-1.376.564 1.55 5.242 7.756 6.2 11.899 8.567 2.057 1.161 4.091 2.908 4.193 5.45.118 2.926-1.928 5.518-3.895 7.474-2.08 2.063-5.073 4.047-8.054 2.446-.44-.231-.998.254-.71.71a3.5 3.5 0 0 0 1.488 1.438 5.14 5.14 0 0 0 2.254.473 7.44 7.44 0 0 0 4.318-1.55c2.637-1.905 5.072-4.638 6.245-7.699a7.739 7.739 0 0 0-1.764-8.353"/>
    <path fill="#1D4ED8" d="M45.145 73.674 37.834 95.74l11.417-10.131 8.012 19.894s14.82-16.246 26.703-32.042c11.881-15.796 22.367-32.906 22.367-32.906l-.531-.583-12.628 2.001.185 4.327s-18.875 9.482-30.572 16.202a204 204 0 0 0-17.642 11.173"/>
    <path fill="#1D4ED8" d="M106.732 39.808a.63.63 0 0 0-.739-.391 583 583 0 0 0-24.31 12.162 587 587 0 0 0-23.741 13.292c-4.364 2.585-8.773 5.17-12.99 7.976a.599.599 0 0 0 .643 1.004c3.877-2.29 7.68-4.711 11.55-7.023a572.008 572.008 0 0 1 35.513-19.54q6.807-3.447 13.712-6.697a.643.643 0 0 0 .362-.783"/>
    <path fill="#1D4ED8" d="M55.897 101.382c-.4-1.012-.805-2.024-1.197-3.036a342 342 0 0 1-2.289-6.01 394 394 0 0 1-4.239-12.156c-.738-2.311-1.477-4.66-2.289-6.949a.623.623 0 0 0-1.181.392c.509 2.112 1.196 4.18 1.868 6.247a328 328 0 0 0 2.038 6.1 325 325 0 0 0 5.76 15.448 28.3 28.3 0 0 0 2.444 4.948c.318.392 1.079.273 1.02-.332-.133-1.078-1.537-3.648-1.935-4.652"/>
    <path fill="#1D4ED8" d="M105.802 40.001c-2.954 4.483-5.79 9.01-8.78 13.448a493 493 0 0 1-9.195 13.144 492 492 0 0 1-19.51 25.293A501 501 0 0 1 56.68 105.51c-.605.687.45 1.647 1.056.96a484 484 0 0 0 20.522-24.694 488 488 0 0 0 18.86-26.016c3.375-4.984 6.75-9.999 9.837-15.168.436-.724-.702-1.27-1.152-.59M32.222 70.633S5.238 67.502 5.637 67.317s17.96-5.17 24.126-8.005 7.643-3.227 7.643-2.954 2.304 11.816 2.304 11.816z"/>
    <path fill="#1D4ED8" d="M37.76 96.183a.74.74 0 0 1-.6.738.605.605 0 0 1-.738-.318.6.6 0 0 1-.036-.132c-.37-1.92-.54-3.885-.835-5.812A209 209 0 0 0 33.764 80.6a281 281 0 0 0-1.07-4.955c-.193-.835-.4-1.669-.592-2.51-.155-.688-.354-1.374-.465-2.076v-.088c0-.03 0-.222-.037-.333-.059-.68.85-.738 1.086-.207.081.2.155.377.221.562.252.738.414 1.477.599 2.215.236.945.472 1.898.694 2.843a169 169 0 0 1 2.06 10.014c.296 1.661.576 3.33.827 4.999.155 1.034.34 2.09.48 3.146q.078.556.133 1.1c.037.362.06.584.06.872"/>
    <path fill="#1D4ED8" d="M48.837 85.143a8.5 8.5 0 0 0-1.477 1.41l-1.477 1.433q-1.53 1.478-3.087 2.88-1.558 1.404-3.094 2.74l-1.566 1.344q-.852.655-1.595 1.433a.557.557 0 0 0 .739.834 12 12 0 0 0 1.706-1.3 77 77 0 0 0 1.573-1.329 142 142 0 0 0 3.175-2.776q1.565-1.41 3.02-2.821.756-.711 1.477-1.433a8.4 8.4 0 0 0 1.529-1.625c.273-.531-.414-1.07-.923-.79"/>
    <path fill="#1D4ED8" d="M45.837 73.586a.2.2 0 0 1 0 .066q-.225 1.031-.56 2.03c-.326 1.012-.74 2.01-1.042 3.006l-3.087 9.039c-.517 1.477-1.063 2.954-1.565 4.43-.23.68-.45 1.374-.672 2.061a41 41 0 0 1-.85 2.37.53.53 0 0 1-.494.362.74.74 0 0 1-.407-.125.524.524 0 0 1-.25-.606c.036-.133.066-.265.11-.391.163-.561.34-1.123.532-1.676.347-1.012.738-2.016 1.063-3.02 1.027-3.014 1.994-6.041 3.013-9.054.082-.222.148-.443.229-.665.236-.694.465-1.38.738-2.075.192-.576.392-1.16.591-1.735q.649-2.146 1.522-4.21.043-.114.103-.221a.577.577 0 0 1 1.026.413M32.242 69.893a31.6 31.6 0 0 0-5.206-.738l-5.25-.54-10.494-1.07-5.974-.606a.74.74 0 0 0-.85.561.74.74 0 0 0 .562.85l21.164 2.215c1.977.302 3.975.443 5.974.421a.553.553 0 0 0 .074-1.093"/>
    <path fill="#1D4ED8" d="m38.29 56.808-1.44.59a170 170 0 0 1-5.612 2.216 252 252 0 0 1-12.894 4.6q-3.279 1.08-6.58 2.061c-2.215.65-4.43 1.322-6.646 1.817-.738.162-1.137-.909-.376-1.16 2.459-.797 4.962-1.477 7.436-2.215A273 273 0 0 0 36.6 55.974l1.41-.591c.104.48.193.96.281 1.425M43.328 36.014l-1.72-3.774-3.131 1.477 1.846 7.665s.088-2.503 1.1-3.61c.58-.643 1.218-1.231 1.905-1.758M57.248 26.272l3.884 2.467-1.38-3.227zM64.079 44.941c-.096.281-.835 6.543-.835 6.543l2.622-1.41zM45.662 51.484a7.9 7.9 0 0 1 .642-3.316s-1.477.14-1.935-.436-.916.067-1.565-.206a6 6 0 0 0-1.1-.37c.184.273 2.48 9.6 2.85 9.6a28 28 0 0 0 3.042-1.1v-1.662s-1.846-.76-1.934-2.51"/>
    <path fill="#1D4ED8" d="M42.287 81.48a.8.8 0 0 1-.443 0 .68.68 0 0 1-.502-.48q-1.123-5.585-2.216-11.181l-.155-.805-.266-1.433q-.968-5.095-1.89-10.183-.132-.685-.251-1.381-.554-3.057-1.086-6.114a983 983 0 0 1-1.706-9.977q-.42-2.49-.827-4.992c-.14-.827-.273-1.662-.406-2.496a6.8 6.8 0 0 1-.162-2.467.533.533 0 0 1 .952-.177q.217.321.34.687.087.365.126.738c.073.444.155.886.236 1.337q.234 1.376.458 2.762c.317 1.868.635 3.744.96 5.612q1.24 7.253 2.547 14.504.123.697.259 1.395.354 1.973.738 3.944a1596 1596 0 0 0 3.545 18.653l.214 1.13a.74.74 0 0 1-.465.923"/>
    <path fill="#1D4ED8" d="M41.844 81.48c-.082.22-.148.442-.229.664-1.02 3.013-1.987 6.04-3.013 9.053-.34 1.004-.738 2.009-1.063 3.02-.14-1.055-.326-2.111-.48-3.145a191 191 0 0 0-.828-5 192 192 0 0 0-2.06-10.013c-.221-.945-.458-1.898-.694-2.843-.184-.739-.347-1.521-.598-2.216.347-.051.694-.125 1.034-.2a25 25 0 0 0 1.964-.553q.978-.297 1.92-.694c.384-.155.82-.303 1.211-.502l.155.805a724 724 0 0 0 2.215 11.18.68.68 0 0 0 .466.443"/>
    <path fill="#1D4ED8" d="M39.656 68.609q-.301.24-.65.406c-.39.2-.827.347-1.21.502q-.943.396-1.92.695c-.643.206-1.3.398-1.965.553-.34.074-.686.148-1.033.2a4.6 4.6 0 0 1-1.005.059.6.6 0 0 1-.266-.081.504.504 0 0 1 .074-.924l.384-.147c.51-.17 1.049-.288 1.566-.421s1.225-.34 1.824-.54q.899-.298 1.787-.664c.59-.243.99-.487 1.477-.664q.184-.075.376-.119a.643.643 0 0 1 .561 1.145M57.247 26.28c-1.905-1.167-4.43-.975-6.402-.038a7.86 7.86 0 0 0-3.944 4.431 7.3 7.3 0 0 0-.361 1.418c-.048.5-.142.995-.281 1.477-.355.968-1.477 1.211-2.319 1.595-2.03.945-3.773 2.821-3.589 5.17.085.311.085.64 0 .952a2.5 2.5 0 0 1-.465.583c-.372.404-.65.886-.812 1.41a2.95 2.95 0 0 0 .797 3.058.517.517 0 0 0 .776-.657 2.65 2.65 0 0 1-.259-2.348q.31-.554.739-1.02c.319-.384.498-.866.51-1.366a10.5 10.5 0 0 1 0-1.528c.098-.514.307-1 .612-1.426a5.67 5.67 0 0 1 2.385-1.787 6.2 6.2 0 0 0 2.282-1.314c.54-.768.845-1.676.879-2.614a6.7 6.7 0 0 1 2.77-4.498c1.927-1.336 4.216-1.3 6.402-.738.516.273.73-.502.28-.76"/>
    <path fill="#1D4ED8" d="M51.79 31.982v-.067a.7.7 0 0 0-.089-.229l-.066-.125a1.5 1.5 0 0 0-.133-.237 2 2 0 0 0-.133-.236c-.059-.081-.125-.155-.184-.229a.526.526 0 0 0-.569-.2.42.42 0 0 0-.207.2.52.52 0 0 0 0 .347c0 .089.044.185.074.273q.04.13.103.252c.045.125.104.243.155.361l.06.119v.059q.053.08.132.133l.052.059q.07.076.17.096a.24.24 0 0 0 .125 0c.063.018.13.018.192 0a.48.48 0 0 0 .332-.37.4.4 0 0 0-.014-.206M55.807 27.934a.65.65 0 0 0-.273-.221 2.54 2.54 0 0 0-1.41-.185c-.5.023-.995.102-1.477.236a5.77 5.77 0 0 0-2.526 1.418c-.384.37.17 1.027.606.739a6.9 6.9 0 0 1 2.333-1.108 5 5 0 0 1 1.24-.17c.436 0 .998.148 1.382-.11a.42.42 0 0 0 .125-.599"/>
    <path fill="#1D4ED8" d="M58.783 33.414c-.148-.34-.421-.451-.739-.636a4 4 0 0 1-.568-.443 5 5 0 0 1-.953-1.196 5 5 0 0 1-.532-1.396 4 4 0 0 1-.103-.738v-.842a.55.55 0 0 0-.421-.48.516.516 0 0 0-.569.273 3.84 3.84 0 0 0 0 1.942c.123.624.343 1.224.65 1.78.299.547.68 1.046 1.13 1.477q.365.336.783.606a1.22 1.22 0 0 0 1.011.302.504.504 0 0 0 .31-.65"/>
    <path fill="#1D4ED8" d="M56.626 32.232a.5.5 0 0 0-.191-.118.5.5 0 0 0-.163-.059h-.052a1.3 1.3 0 0 0-.288 0h-.34l-.679.067a.54.54 0 0 0-.463.347.5.5 0 0 0-.032.206.54.54 0 0 0 .554.495H56q.135 0 .266-.037a.7.7 0 0 0 .214-.08q.121-.046.206-.141a.48.48 0 0 0-.059-.68M52.802 31.132a2.695 2.695 0 0 0-2.467-1.935.414.414 0 0 0-.391.392.435.435 0 0 0 .332.443 2.13 2.13 0 0 1 1.529 1.395 1.9 1.9 0 0 1-.576 1.935.52.52 0 0 0-.148.687.5.5 0 0 0 .687.148 2.95 2.95 0 0 0 1.034-3.065M54.612 35.407a1.16 1.16 0 0 0-.391-.739 1.35 1.35 0 0 0-1.064-.192 5.6 5.6 0 0 0-1.1.244q-.266.09-.517.214a1 1 0 0 0-.554.436.5.5 0 0 0 0 .17.5.5 0 0 0-.073.096.94.94 0 0 0 .133.982c.202.277.494.476.826.561.348.08.71.061 1.049-.052a5 5 0 0 0 .835-.332 1.7 1.7 0 0 0 .73-.724l.045-.11c.077-.174.105-.366.081-.554m-1.056.672c-.376.231-.815.34-1.255.31a1.5 1.5 0 0 1-.288-.052l-.133-.074-.096-.08-.067-.09v-.08a.2.2 0 0 1 0-.082.5.5 0 0 0 0-.103c.133-.045.266-.111.392-.155q.363-.13.738-.222l.31-.051a3 3 0 0 1 .362 0h.14q.054.012.104.036c.037.082.037.096.044.111-.037-.11 0 .06 0 .067v.066a.2.2 0 0 1 0 .052v.088a1 1 0 0 1-.066.119q-.086.079-.185.14M66.132 11.555a341 341 0 0 0-1.263 5.28c-.096.428-.2.849-.295 1.277l-.067.333-2.562 11.305q-.666 2.895-1.315 5.768c-.45 1.95-.842 3.928-1.41 5.848a.475.475 0 1 1-.93-.192c.354-2.215.922-4.43 1.417-6.587 1.19-5.235 2.43-10.471 3.604-15.714q.186-.796.361-1.603c.436-1.979.865-3.965 1.27-5.96a.628.628 0 0 1 1.16-.125.52.52 0 0 1 .03.37"/>
    <path fill="#1D4ED8" d="M66.618 7.494a6.65 6.65 0 0 0-1.75-2.533 1.59 1.59 0 0 0-1.359-.413 1.11 1.11 0 0 0-.886 1.056c.03.539.181 1.064.443 1.536.23.502.502.982.739 1.477q.41.686.738 1.418c.197.51.335 1.04.414 1.58a.546.546 0 0 0 .876.401.55.55 0 0 0 .209-.32c.251-1.839-1.181-3.448-1.972-4.977a6 6 0 0 1-.243-.554c-.037-.089-.214-.436-.163-.54.052-.102.45.104.54.186a5.9 5.9 0 0 1 1.403 2.016c.287.59 1.27.28 1.011-.333"/>
    <path fill="#1D4ED8" d="M68.635 1.763a1.71 1.71 0 0 0-.532-1.322 1.18 1.18 0 0 0-1.477.118 2.22 2.22 0 0 0-.59 1.559q-.092.93-.17 1.86c-.052.62-.112 1.27-.148 1.898 0 .31-.045.628-.052.938q.004.524.118 1.034a.435.435 0 0 0 .79.06q.15-.36.237-.74c.044-.243.066-.48.096-.738.044-.487.088-.975.125-1.477.074-.99.118-1.986.2-2.954a1.16 1.16 0 0 1 .118-.524.7.7 0 0 1 .103-.11q.04.042.06.095.023.096.036.192c0 .23 0 .466.052.702.061 1.01.034 2.023-.082 3.028-.074.679.975.9 1.056.214.146-1.273.166-2.556.06-3.833M75.251 4.436c-.354 1.034-.775 2.038-1.13 3.065-.627 1.816-1.277 3.618-1.86 5.45-.148.465-.303.937-.444 1.41-.14.472-.347 1.093-.517 1.647-.243.782-.487 1.573-.738 2.363-1.1 3.692-2.12 7.384-2.954 11.136s-1.64 7.51-2.304 11.29q-.274 1.604-.532 3.213a143 143 0 0 0-.561 3.825c-.118.872-.221 1.743-.347 2.614-.074.54-.155 1.079-.258 1.61l-.997.347a.45.45 0 0 1-.09-.288c0-.406.046-.812.082-1.218.133-1.617.392-3.22.62-4.822.281-2.016.614-4.032.968-6.034a194 194 0 0 1 4.97-21.009q.377-1.275.775-2.54c.177-.554.347-1.1.532-1.654q.975-3.013 2.06-5.99c.31-.863.643-1.72.975-2.569l.495-1.285q.283-.587.406-1.226c0-.118 0-.494-.207-.494s-.207.192-.266.265c-.236.333-.42.739-.635 1.064-.48.805-1.019 1.58-1.477 2.385-.25.428-.938.089-.686-.354.546-.96 1.04-1.965 1.58-2.954.377-.68.871-1.647 1.817-1.374.945.273.982 1.359.723 2.127"/>
    <path fill="#1D4ED8" d="M70.872.02c-.739-.118-1.197.539-1.477 1.122a19.5 19.5 0 0 0-1.477 4.505c-.067.34.472.561.598.207.428-1.152.857-2.304 1.344-3.434.118-.273.244-.547.37-.813.08-.217.2-.417.354-.59.37-.34.45.517.487.701a.5.5 0 0 0 .51.458.503.503 0 0 0 .465-.517C71.972.98 71.64.131 70.872.02"/>
    <path fill="#1D4ED8" d="M73.36 1.955a1.292 1.292 0 0 0-1.875-.872 2.13 2.13 0 0 0-.738.85c-.2.369-.384.738-.561 1.13-.427.889-.747 1.826-.953 2.79a.392.392 0 0 0 .739.26c.192-.414.413-.806.59-1.227q.264-.629.562-1.247c.199-.414.384-.798.598-1.182.081-.148.25-.487.413-.45a.53.53 0 0 1 .17.207.74.74 0 0 1 0 .39 5.4 5.4 0 0 1-.48 1.197 69 69 0 0 1-.584 1.292l-.287.65a1.67 1.67 0 0 0-.259.82.48.48 0 0 0 .739.369c.326-.345.564-.762.694-1.218.192-.414.376-.835.568-1.248.347-.79.894-1.67.665-2.511M69.018 22.248a.65.65 0 0 0-.783-.34c-.428.157-.882.23-1.337.215a2.7 2.7 0 0 1-1.21-.377l-.126-.074-.074-.044-.229-.185a2.4 2.4 0 0 1-.384-.406 3.3 3.3 0 0 1-.569-1.085.59.59 0 0 0-.664-.392.576.576 0 0 0-.473.606 3.97 3.97 0 0 0 1.913 2.762 3.99 3.99 0 0 0 3.692.133.64.64 0 0 0 .244-.813M61.486 28.976a8.1 8.1 0 0 0-2.333-2.15 7.6 7.6 0 0 0-1.337-.634 2.9 2.9 0 0 0-1.669-.222.43.43 0 0 0-.302.399.45.45 0 0 0 .236.428 6.4 6.4 0 0 0 1.24.517q.636.267 1.22.635a7.1 7.1 0 0 1 1.823 1.75.686.686 0 0 0 .923.2.68.68 0 0 0 .2-.923M54.36 38.922c-.488.044-.901.361-1.396.435-.5.068-1.008.007-1.477-.177a3.76 3.76 0 0 1-2.104-2.326 7 7 0 0 1-.259-3.449 8.7 8.7 0 0 1 .495-1.824c.11-.295.251-.576.384-.856.133-.281.258-.635.428-.923.23-.407-.384-.842-.679-.473a7 7 0 0 0-.739.975 9.206 9.206 0 0 0-1.041 3.264 7.8 7.8 0 0 0 .517 4.083 4.73 4.73 0 0 0 2.754 2.637 4.16 4.16 0 0 0 1.898.229c.591-.082 1.403-.296 1.67-.88a.495.495 0 0 0-.451-.715"/>
    <path fill="#1D4ED8" d="m55.386 42.896-1.012-1.522c-.162-.25-.34-.495-.517-.738-.177-.244-.384-.48-.568-.739a.465.465 0 0 0-.628-.133.465.465 0 0 0-.133.628c.148.259.273.54.429.798q.232.388.487.775l.997 1.521a.57.57 0 0 0 .775.17.575.575 0 0 0 .17-.76"/>
    <path fill="#1D4ED8" d="M58.909 34.278c.302-.45-.407-.886-.739-.525a8.4 8.4 0 0 0-2.17 3.42 4.4 4.4 0 0 0-.127 2.015q.087.45.252.88c.157.274.217.594.17.908-.134.391-.688.598-.99.841a2.16 2.16 0 0 0-.82 1.477c-.042.687-.024 1.377.052 2.06q.02 1.171.162 2.334a.557.557 0 0 0 .587.52.555.555 0 0 0 .52-.586c0-.739-.073-1.477-.117-2.216a10 10 0 0 1-.081-1.92c.073-.553.45-.738.871-1.056.41-.252.725-.63.9-1.078a2.67 2.67 0 0 0-.228-1.72 3.26 3.26 0 0 1-.118-1.861c.266-1.36 1.152-2.408 1.876-3.493M59.773 43.73a10.5 10.5 0 0 1-.738-1.478 1.01 1.01 0 0 1 .207-1.063c.428-.436-.17-1.064-.665-.79a1.65 1.65 0 0 0-.738 1.425 3.04 3.04 0 0 0 .458 1.61c.287.418.51.875.664 1.358a1.06 1.06 0 0 1-.332 1.027c-.244.28-.052.864.376.79a1.37 1.37 0 0 0 1.071-1.181 2.73 2.73 0 0 0-.303-1.699M47.359 31.03a12 12 0 0 1-1.602-1.936c-.473-.642-.93-1.292-1.389-1.942l-.568-.82c-.28-.406-.547-.812-.82-1.218a107 107 0 0 1-1.248-1.935 124 124 0 0 1-2.378-3.943l-.081-.14c-.421-.739-.82-1.433-1.24-2.135-.422-.701-.518-.812-.924-1.528s.62-1.263.968-.62c.347.642.34.915.738 1.646.399.731.797 1.374 1.21 2.053l.304.502.096.148c.694 1.137 1.425 2.26 2.164 3.367.487.739.982 1.477 1.477 2.164q.411.607.834 1.204l.443.635c.458.65.923 1.292 1.388 1.942.496.618.938 1.278 1.322 1.972.207.443-.28.952-.694.583M35.964 6.873c-.11-.997-.258-2.348-1.307-2.82a1.1 1.1 0 0 0-1.425.406 2.47 2.47 0 0 0-.14 1.477c.066.664.14 1.321.214 1.986.037.332.066.665.133.997.066.332.177.65.221.982a.377.377 0 0 0 .739-.044c0-.54.044-1.078 0-1.625a57 57 0 0 0-.148-1.617 8.6 8.6 0 0 1-.125-1.477c0-.052 0-.162.044-.185s.162.126.206.178c.226.301.364.659.4 1.033.073.473.11.96.162 1.477.11 1.056.177 2.127.37 3.168a.516.516 0 0 0 1.025-.059c-.051-1.27-.229-2.584-.369-3.877"/>
    <path fill="#1D4ED8" d="M33.97 6.075q-.105-.305-.251-.59a3.5 3.5 0 0 0-.739-1.108c-.812-.739-1.764 0-1.956.886a4.58 4.58 0 0 0 .539 2.843c.199.428.413.849.568 1.292a10 10 0 0 1 .303 1.388c.074.414.62.266.739-.044.131-.73.02-1.482-.318-2.142-.33-.686-.6-1.4-.805-2.134a2.14 2.14 0 0 1 0-1.056.6.6 0 0 1 .155-.28c.044-.045 0-.052.074 0 .22.25.4.531.54.834.154.325.191.783.553.938a.45.45 0 0 0 .524-.096.74.74 0 0 0 .074-.731"/>
    <path fill="#1D4ED8" d="M32.072 11.002c-.236-.495-.539-.953-.79-1.477a8.7 8.7 0 0 1-.613-1.477 2.64 2.64 0 0 1-.2-1.477.4.4 0 0 1 .244-.288.3.3 0 0 1 .148 0l.14.074c.525.325 1.02-.466.599-.872a1.33 1.33 0 0 0-1.787.155 2.22 2.22 0 0 0-.348 2.046c.16.71.409 1.397.739 2.045.297.676.735 1.28 1.285 1.773a.392.392 0 0 0 .583-.502"/>
    <path fill="#1D4ED8" d="M43.328 36.013c-1.477-2.422-2.954-4.83-4.394-7.244l-.25-.414c-.245-.413-.496-.827-.74-1.24q-3.36-5.576-6.727-11.129l-1.927-3.19-1.041-1.713a5.4 5.4 0 0 1-.68-1.307 1.152 1.152 0 0 1 1.403-1.536 5.3 5.3 0 0 1 2.555 1.809c.377.487-.354 1.004-.782.657q-.63-.551-1.337-.997c-.214-.133-.45-.229-.665-.354h-.11a.6.6 0 0 0 .044.214c.215.494.485.962.805 1.395l.982 1.64q2.784 4.6 5.539 9.201l.65 1.07q1.15 1.928 2.318 3.856l.739 1.24q2.26 3.744 4.541 7.473c.377.576-.583 1.219-.923.57M38.941 8.77a1.4 1.4 0 0 0-1.004-.952 1.48 1.48 0 0 0-1.41.65c-.285.442-.513.919-.68 1.417-.195.472-.47.907-.812 1.285-.739.798-1.61 2.12-.739 3.146a.54.54 0 0 0 .665.192.525.525 0 0 0 .28-.635c-.443-1.026.65-1.787 1.175-2.526.306-.46.554-.956.738-1.477.066-.17.384-1.048.68-.908.295.14-.045 1.034-.126 1.256a12.6 12.6 0 0 0-.687 3.552c0 .583-.118 1.41.295 1.86a.494.494 0 0 0 .739-.14 1.33 1.33 0 0 0 .096-.827 8 8 0 0 1 0-.96q.025-.853.184-1.691.168-.844.458-1.654c.22-.5.273-1.057.148-1.588"/>
    <path fill="#1D4ED8" d="M40.455 19.494a3 3 0 0 1-.361 1.005q-.129.236-.281.457c-.297.433-.667.81-1.093 1.115a4.36 4.36 0 0 1-2.075.739c-.369.032-.74.005-1.1-.081-.525-.133-.503-.968.073-.975q.188.01.377 0c.75-.011 1.479-.251 2.09-.687a2.8 2.8 0 0 0 .428-.377l.214-.25.096-.126q.18-.27.31-.569c.081-.184.111-.31.185-.495q.015-.06.037-.118a.57.57 0 0 1 .701-.273.5.5 0 0 1 .237.17l.096.148a.56.56 0 0 1 .066.317M38.963 26.701l.739 1.24-1.034.414-5.553 2.216c-.798.31-1.175-.923-.407-1.256a189 189 0 0 1 5.214-2.163zM63.672 17.278l1.197-.436c-.096.428-.2.85-.296 1.277l-.066.333-1.197.428a812 812 0 0 0-8.957 3.33 613 613 0 0 0-9.46 3.693l-1.093.435c-.28-.406-.546-.812-.82-1.218l1.079-.421.553-.214a849 849 0 0 1 19.06-7.207M87.907 10.307q-6.077 2.031-12.133 4.128a973 973 0 0 1-4.475 1.573l-1.373.487c.177-.554.347-1.1.531-1.654l1.36-.48a851 851 0 0 1 15.677-5.347.68.68 0 0 1 .413 1.293"/>
    <path fill="#1D4ED8" d="M94.112 45.849q-1.433-14.356-4.01-28.586c-.48-2.644-.96-5.302-1.558-7.924-.185-.738-1.536-.531-1.388.266.856 4.704 1.816 9.386 2.592 14.105a341 341 0 0 1 2.946 22.22c.096.908 1.507.835 1.418-.081M48.209 36.3c-1.204.237-1.197 1.655-1.167 2.6a1.13 1.13 0 0 1-.14.739 1.5 1.5 0 0 1-.739.265 2 2 0 0 0-1.388.953c-.657 1.174 0 2.378.066 3.589 0 .739-.561 1.056-.849 1.684a1.174 1.174 0 0 0 .414 1.61.471.471 0 0 0 .657-.562c-.14-.524.413-.878.672-1.277.3-.494.425-1.074.354-1.647-.051-.554-.236-1.085-.31-1.64a1.63 1.63 0 0 1 .185-1.262c.288-.31.871-.288 1.255-.45a1.66 1.66 0 0 0 .975-1.13 4.8 4.8 0 0 0 0-1.566c0-.325-.037-.871.347-.975.584-.177.295-1.041-.332-.93M49.574 38.398c-.945.118-1.167 1.196-1.085 1.994.036.361.214.886.051 1.24-.08.178-.258.244-.42.347a1.8 1.8 0 0 0-.555.495c-.576.82-.088 1.772-.088 2.666a3.1 3.1 0 0 1-.296 1.278c-.199.457-.553.797-.738 1.24a.42.42 0 0 0 .502.584c.827-.274 1.344-1.3 1.558-2.083.124-.442.172-.901.14-1.359a11 11 0 0 1-.176-1.38c0-.451.531-.54.819-.813a1.72 1.72 0 0 0 .495-1.196 10 10 0 0 0-.126-1.256.97.97 0 0 1 .355-.893.525.525 0 0 0-.436-.864M54.98 46.263a8 8 0 0 1-.834-.104 2 2 0 0 1-.642-.31l-.111-.081-.155-.14a1.816 1.816 0 0 1-.531-.879 2.1 2.1 0 0 1 .095-1.307c.194-.455.514-.845.923-1.123a.554.554 0 0 0 .192-.738.55.55 0 0 0-.657-.288 2.9 2.9 0 0 0-1.565 1.543 3.36 3.36 0 0 0-.2 2.216c.22.749.699 1.395 1.352 1.824a2.84 2.84 0 0 0 2.215.524.62.62 0 0 0-.082-1.137"/>
    <path fill="#1D4ED8" d="M47.832 53.3a3.9 3.9 0 0 1-1.174-1.055 3.1 3.1 0 0 1-.532-1.477 3.7 3.7 0 0 1 1.3-2.954c.48-.436-.192-1.152-.739-.842a4.18 4.18 0 0 0-1.971 3.95 4.5 4.5 0 0 0 .738 2.113 4.03 4.03 0 0 0 1.72 1.521.709.709 0 0 0 .658-1.255M45.144 55.988c-.93-3.08-1.787-6.21-2.954-9.201a.52.52 0 1 0-.99.317c.68 3.153 1.721 6.225 2.666 9.305a.687.687 0 0 0 1.278-.421"/>
    <path fill="#1D4ED8" d="M48.541 55.507c0-.155-.037-.317-.06-.472-.021-.155-.036-.318-.066-.473a1.5 1.5 0 0 0-.206-.694.59.59 0 0 0-.502-.259.57.57 0 0 0-.466.31.9.9 0 0 0-.088.466v.244c0 .08 0 .317.044.48l.044.472c-.015.293.086.58.281.798a.61.61 0 0 0 .67.105.6.6 0 0 0 .186-.142.9.9 0 0 0 .178-.347.8.8 0 0 0 0-.237 1.4 1.4 0 0 0-.015-.25"/>
    <path fill="#1D4ED8" d="M66.11 50.826a.87.87 0 0 1-.31.377c-.217.14-.454.246-.702.317l-1.152.414-.347.125-.997.347-.967.333q-4.172 1.418-8.426 2.621c-1.396.392-2.806.739-4.217 1.123l-2.126.51q-1.054.295-2.142.427a.658.658 0 0 1-.236-1.277q1.329-.432 2.703-.694a181 181 0 0 0 2.71-.687c1.801-.473 3.596-.968 5.383-1.477s3.567-1.093 5.332-1.684c.657-.221 1.322-.443 1.979-.68l.664-.235.599-.215.738-.258.17-.06a1.33 1.33 0 0 1 1.122-.058.57.57 0 0 1 .222.73"/>
    <path fill="#1D4ED8" d="M65.896 49.06c-.126-.516-.252-1.033-.363-1.557-.236-1.064-.376-2.15-.62-3.213-.162-.738-1.373-.502-1.307.251a26 26 0 0 0 .606 3.33q.177.813.376 1.618a3.5 3.5 0 0 0 .628 1.603.591.591 0 0 0 .975-.318 4.2 4.2 0 0 0-.296-1.713M40.623 41.72c-.236-1.358-.465-2.702-.738-4.053-.273-1.352-.62-2.703-.93-4.054-.185-.783-1.374-.392-1.19.384.31 1.322.613 2.65.938 3.973a79 79 0 0 0 1.093 3.913c.111.466.916.34.827-.162"/>
    <path fill="#1D4ED8" d="M42.19 32.358a.64.64 0 0 0-.812-.414l-1.683.635q-.894.293-1.721.739a.53.53 0 0 0-.221.62.53.53 0 0 0 .539.37q.269-.033.531-.097c.14-.037.288-.096.428-.147l.835-.296c.569-.2 1.13-.413 1.691-.627a.657.657 0 0 0 .413-.783M47.89 29.73a.25.25 0 0 0-.036-.126.4.4 0 0 0-.119-.163l-.058-.044a.35.35 0 0 0-.185-.081.5.5 0 0 0-.244 0h-.229l-.14.044a.36.36 0 0 0-.177.104.5.5 0 0 0-.14.162l-.045.14a.5.5 0 0 0 .044.333.4.4 0 0 0 .119.17l.118.08a.5.5 0 0 0 .273.06h.391l.126-.06h.044l.103-.088a.3.3 0 0 0 .082-.118l.044-.133a.29.29 0 0 0 .03-.28M61.818 29.204a7 7 0 0 0-.288-.953c-.103-.317-.2-.635-.303-.945-.206-.635-.413-1.263-.612-1.898a.6.6 0 0 0-.739-.377l-1.543.34-.739.177c-.289.048-.568.143-.827.281a.525.525 0 0 0 .17.945c.316.014.633-.021.938-.103l.775-.163 1.005-.229c.155.466.295.924.443 1.389.103.317.206.628.303.945q.133.48.317.945a.6.6 0 0 0 .738.37.584.584 0 0 0 .362-.724M69.956 22.816l-.081.045h-.037z"/>
    <path fill="#1D4ED8" d="M85.125 21.665a.665.665 0 0 0-.923.044 1.31 1.31 0 0 1-1.315.126c.357-.884.53-1.832.51-2.784a.634.634 0 0 0-.968-.495 2.61 2.61 0 0 0-1.384 2.565c.034.343.135.676.299.98a5.36 5.36 0 0 1-1.477 1.69 2.5 2.5 0 0 1-1.27.503 6.07 6.07 0 0 0 .775-3.131.59.59 0 0 0-.908-.458c-1.086.613-2.016 1.735-1.787 3.057.046.311.165.607.347.864a3.74 3.74 0 0 1-1.248.982 2.06 2.06 0 0 1-1.152.2q.297-.417.546-.864a2.95 2.95 0 0 0 .51-1.721 1.107 1.107 0 0 0-1.189-1.041 1.77 1.77 0 0 0-1.278 1.218 3.22 3.22 0 0 0-.118 2.518 7.8 7.8 0 0 1-1.75 1.477c-.295.177-.805.48-1.152.28a.7.7 0 0 1-.273-.346q.34-.625.598-1.285a5.8 5.8 0 0 0 .487-2.046 1.58 1.58 0 0 0-.613-1.388 1.19 1.19 0 0 0-1.536.628 4.9 4.9 0 0 0-.325 2.304q.017.745.163 1.477-.624 1.096-1.359 2.119a.473.473 0 0 0 .702.635c.468-.431.889-.912 1.255-1.433a1.48 1.48 0 0 0 1.24.48c1.278-.08 2.534-1.203 3.368-2.119l.103.052c1.367.561 2.873-.377 3.781-1.344l.089-.104a2.35 2.35 0 0 0 1.61.052 5.6 5.6 0 0 0 2.82-2.385 2.65 2.65 0 0 0 2.873-.377.67.67 0 0 0-.051-.93m-15.028 1.72c.259.155-.266 1.145-.34 1.322s-.081.2-.118.303v-.236c0-.074.008-1.662.458-1.389m4.098.443q.091-.224.244-.413c.14-.155.14-.222.11 0a3.5 3.5 0 0 1-.62 1.477c.015-.37.105-.731.266-1.064m3.863-1.3q-.11.456-.296.887c-.009-.321.096-.635.296-.886M86.298 30.224a1.76 1.76 0 0 1-1.743.739 1.2 1.2 0 0 1-.34-.11q.094-.11.177-.23a4.9 4.9 0 0 0 .938-1.883 1.157 1.157 0 0 0-.886-1.418 1.74 1.74 0 0 0-1.529.953 2.76 2.76 0 0 0-.14 2.651l-.037.037a5.8 5.8 0 0 1-2.34 1.418c-.292.103-.61.103-.902 0 .118-.214.23-.421.325-.643.273-.605.739-1.477.643-2.215-.096-.739-.93-.694-1.381-.296a3.5 3.5 0 0 0-.975 2.105c-.044.391.02.787.185 1.145a11 11 0 0 1-1.337 1.69 1.9 1.9 0 0 1-1.477.74c-.51-.06-.702-.51-.775-.968a.2.2 0 0 1 0-.074c.507-1.032.844-2.14.997-3.279a.532.532 0 0 0-.798-.546c-1.248.635-1.396 2.215-1.255 3.508a9.7 9.7 0 0 1-1.352 1.964c-.458.502-1.624 1.743-2 .546a4.18 4.18 0 0 0 .442-3.692.51.51 0 0 0-.93-.074 5.97 5.97 0 0 0-.4 3.124c-.262.42-.615.776-1.033 1.041-.583.362 0 1.196.561.879.294-.16.564-.36.805-.591a1.26 1.26 0 0 0 .739.739 1.83 1.83 0 0 0 1.61-.392 8.3 8.3 0 0 0 1.942-2.053c.178.332.465.592.812.739a2.22 2.22 0 0 0 2.009-.251 6.7 6.7 0 0 0 1.646-1.67l.436-.62c1.248.739 2.954-.258 3.921-1.026q.294-.233.562-.495l.236.148a2.557 2.557 0 0 0 3.522-1.174.51.51 0 0 0-.879-.466m-6.647-.265.045-.06q-.07.196-.17.377-.175.388-.384.776.074-.228.177-.444.156-.348.362-.672zm4.077-1.426c.08-.088.399-.406.546-.34.148.067.037.444 0 .57a4.4 4.4 0 0 1-.738 1.321 2 2 0 0 1-.111-.59 1.28 1.28 0 0 1 .332-.983zM46.828 61.646v-.09a2 2 0 0 0-.133-.265 1.4 1.4 0 0 0-.458-.42h-.052l-.251-.082h-.148a1.3 1.3 0 0 0-.59 0H45.1c-.089.044-.185.081-.274.133q-.12.09-.229.192l-.08.088a3 3 0 0 0-.17.252 1.4 1.4 0 0 0-.111.288.6.6 0 0 0 0 .11q-.023.152 0 .303c.03.33.18.637.42.864a.3.3 0 0 0 .082.067q.12.097.258.17.136.062.281.103h.096c.195.04.396.04.59 0h.09q.137-.056.265-.133.12-.08.222-.185l.066-.066a1.362 1.362 0 0 0 .318-.716 2 2 0 0 0 0-.296 1.7 1.7 0 0 0-.096-.318M59.174 56.896c-1.78.739-3.53 1.521-5.347 2.164a85 85 0 0 1-5.509 1.735c-.657.185-.324 1.16.326 1.004a59 59 0 0 0 5.62-1.661c1.85-.61 3.662-1.33 5.427-2.156.613-.296.11-1.344-.517-1.086M87.672 46.093c-1.662.554-3.286 1.278-4.918 1.928l-5 1.971-9.91 3.914c-.9.362-1.81.739-2.71 1.086q-1.434.524-2.762 1.277c-.473.296-.089.916.384.82a29 29 0 0 0 4.97-1.772l4.918-1.942 9.829-3.885c1.853-.738 3.766-1.395 5.582-2.215.702-.332.392-1.44-.384-1.182M47.47 66.562a.95.95 0 0 0-.169-.332 1.24 1.24 0 0 0-.42-.384.2.2 0 0 0-.082-.044 1.2 1.2 0 0 0-.229-.082h-.052a2 2 0 0 0-.273 0 1 1 0 0 0-.192 0h-.148l-.125.06a.5.5 0 0 0-.163.088c-.164.11-.295.263-.376.443q-.059.133-.089.273v.16999999999999998a1.5 1.5 0 0 0 0 .259v.08c.023.178.08.349.17.503q.094.151.229.266c.14.122.307.208.487.25q.137.01.274 0h.096q.18-.01.347-.08.124-.053.243-.118a2.5 2.5 0 0 0 .273-.237q.075-.095.133-.2v-.044q.063-.123.096-.258a.5.5 0 0 0 0-.096 1.2 1.2 0 0 0-.03-.517M67.645 58.854c-.416.046-.82.163-1.196.347l-1.02.384-2.126.797c-1.477.547-2.88 1.137-4.328 1.684-2.88 1.093-5.834 2.082-8.632 3.375a.473.473 0 1 0 .288.9c2.954-.87 5.907-2.067 8.81-3.145 1.476-.54 2.909-1.034 4.356-1.573l2.216-.827a6.5 6.5 0 0 0 2.112-.93c.428-.377-.007-1.013-.48-1.013M93.8 78.931a25.6 25.6 0 0 0-7.908 5.295 16 16 0 0 0-.938 1.056 2.3 2.3 0 0 0-1.905.443 26 26 0 0 0-2.74 2.644 33 33 0 0 0-4.675 6.092 22 22 0 0 0-1.632 3.382 21 21 0 0 0-.605 1.832 4.6 4.6 0 0 0-.273 1.632 1.26 1.26 0 0 0 1.063 1.233 1.78 1.78 0 0 0 1.566-.982 10.5 10.5 0 0 0 1.594-4.254c.104-.738-.996-.945-1.1-.221a9.9 9.9 0 0 1-1.019 3.146 3.3 3.3 0 0 1-.738 1.085c-.377.288-.222-.413-.185-.62a19.4 19.4 0 0 1 2.274-5.583 30 30 0 0 1 3.516-4.807 49 49 0 0 1 2.17-2.282l.975-.93c.252-.276.55-.506.88-.68a11.36 11.36 0 0 0-2.01 5.627.605.605 0 0 0 .924.473A8.5 8.5 0 0 0 85.3 89.75c.48-.975 1.026-2.467.635-3.552l-.044-.096q.477-.601 1.019-1.145c2.12-2.141 4.77-3.544 7.384-4.984.576-.31.111-1.315-.494-1.042m-9.444 10.103q-.276.592-.65 1.13c.18-.664.427-1.308.738-1.92.111-.215.236-.414.362-.62q-.164.724-.45 1.41M49.575 15.527q-.364-1.107-.739-2.215c-.125-.362-.25-.739-.406-1.078-.08-.207-.207-.377-.303-.576a3.4 3.4 0 0 0-.295-.502.392.392 0 0 0-.738.236q.016.311.088.613c.044.2.052.399.103.59.104.37.237.74.37 1.094.258.738.532 1.476.812 2.215a.574.574 0 0 0 .739.37.583.583 0 0 0 .369-.747M55.135.478c0-.48-.776-.687-.96-.2a20.3 20.3 0 0 0-.864 3.641c-.23 1.24-.428 2.489-.628 3.737-.406 2.503-.738 5-1.137 7.503a.63.63 0 0 0 1.233.25c.458-2.48.93-4.962 1.359-7.45.207-1.219.42-2.437.605-3.693.25-1.247.38-2.516.392-3.788M60.91 8.32c-.438.331-.821.727-1.138 1.174a17 17 0 0 0-.96 1.477 27 27 0 0 0-1.477 2.954.65.65 0 0 0 .273.85.65.65 0 0 0 .85-.274c.472-.99.99-1.964 1.543-2.91.273-.472.561-.937.834-1.41a7 7 0 0 0 .694-1.477.407.407 0 0 0-.62-.384M24.268 33.966a21.6 21.6 0 0 0-6.358 3.885 29.3 29.3 0 0 0-5.052 5.376 3.3 3.3 0 0 0-1.58-.65c-1.927-.244-3.574.85-4.977 2.038a30 30 0 0 0-3.693 3.581 9.16 9.16 0 0 0-2.281 4.956c-.06.657.938.886 1.019.214.332-2.673 2.215-4.712 4.084-6.47a17.2 17.2 0 0 1 3.374-2.694c1.027-.562 2.452-.805 3.427-.082a19.6 19.6 0 0 0-1.647 2.792.62.62 0 0 0 .266.82 2.4 2.4 0 0 0 3.197-1.869 2.64 2.64 0 0 0-.325-1.654c.14-.207.28-.406.428-.606a30 30 0 0 1 3.065-3.448 30.6 30.6 0 0 1 3.538-2.954c1.255-.886 2.584-1.654 3.884-2.474a.436.436 0 0 0-.37-.76M12.814 46.262c-.173.253-.438.43-.738.495.288-.488.583-.968.893-1.477a1.22 1.22 0 0 1-.155.982M106.902 38.877a21 21 0 0 0-3.471.665l-3.463.738-3.375.739-1.772.406a7.6 7.6 0 0 0-1.721.51c-.62.317-.184 1.144.377 1.159a6.6 6.6 0 0 0 1.69-.296l1.692-.369 3.463-.782c1.123-.259 2.215-.51 3.367-.739.672-.155 1.374-.28 2.061-.45a.429.429 0 0 0 .738.17 8 8 0 0 1 .791-.672.6.6 0 0 0 .208-.678.6.6 0 0 0-.585-.4M41.354 46.893c-.59-.295-1.23-1.108-1.477-1.477-.123-.246-.37-.96-.37-1.846 0-.665.555-1.371 1.04-1.838-.054-.062-.05-.275.069-.747q.553-2.215 1.107-3.323c.37-.738.739-1.107 2.585-1.846 1.846-.738 2.215-1.846 2.584-2.215.37-.37 0-1.477.739-2.954.738-1.477 1.477-2.215 2.584-3.323 1.108-1.108 2.954-1.477 6.277-.739 2.659.591 4.308 2.216 4.8 2.954l-2.584 10.708-.37 1.477.37.37.738 3.322c.123.123.148.443-.738.739-1.108.369-1.846-3.324-1.846-1.847 0 1.182-1.231 2.708-1.846 3.324v-5.17l1.476-1.107c.123-.123.37-.444.37-.739 0-.37-.739-1.477-.37-2.954.296-1.181 1.354-2.954 1.847-3.692v-.37c-.739-.615-2.29-2.067-2.585-2.953s-.37-2.092-.37-2.585h-.738c-.369 0-1.403.074-2.584.37-1.182.295-2.216 1.353-2.585 1.846l-.738 1.846-.37 1.107v1.847l.37 1.107v1.108l.738 1.108-.37.738v2.585l-.738.738L48 43.57l.37 1.477-.74 1.846-1.476 1.477c-.37.37-4.062-1.108-4.8-1.477"/>
    <path stroke="#1D4ED8" stroke-width="2" d="M31.015 88.615C8.861 89.723-1.55 111.951 5.538 124.061c8.862 15.139 41.354 11.816 55.754-1.107 9.226-8.28.692-10.535-14.4 1.107-25.846 19.939 21.785 27.693 40.615 3.693"/>
  </g>
  <defs>
    <clipPath id="girl-throwing-paper-air-planea">
      <path fill="#fff" d="M0 0h192v192H0z"/>
    </clipPath>
  </defs>
</svg>
