<svg xmlns="http://www.w3.org/2000/svg" fill="none" viewBox="0 0 192 192">
  <path fill="#fff" d="M0 0h192v192H0z"/>
  <path fill="#1D4ED8" d="M22.473 28.946a.38.38 0 0 0 0 .299q.02.2 0 .4a1.9 1.9 0 0 1-.844 1.137c-1.811 1.351-3.698 2.61-5.564 3.916l-2.783 1.947c-.246.2-.525.355-.824.46a.222.222 0 0 1-.344.071.3.3 0 0 1-.08-.086.3.3 0 0 0-.072.076.3.3 0 0 0-.06-.147.5.5 0 0 1-.132-.126 4 4 0 0 0-.42-.248c-.505-.263-1.052-.506-1.573-.749-.263-.121-.53-.237-.784-.384a.84.84 0 0 1-.48-.855.76.76 0 0 1 .718-.642c.172-.03.349-.03.506-.046 2.529-.147 4.284-2.468 4.613-4.552a6.4 6.4 0 0 0-.127-1.518 12 12 0 0 1-.146-1.715.713.713 0 0 1 1.284-.288c.222.405.379.842.466 1.295.506 2.094 1.74 2.67 3.576 1.619.551-.319 1.062-.708 1.588-1.067.294-.198.557-.43.855-.602a.84.84 0 0 1 1.103.156.754.754 0 0 1 0 .966c-.157.208-.334.46-.476.683"/>
  <path fill="#000" d="M191.418 128.877a14 14 0 0 1-.885-1.517c-1.927-3.389-3.869-6.768-5.771-10.167a130 130 0 0 0-7.512-12.165 50.8 50.8 0 0 0-6.14-7.36 19.1 19.1 0 0 0-4.791-3.46c-.93-.46-1.876-.85-2.428-1.851a3.3 3.3 0 0 0-1.067-.88 103 103 0 0 0-2.306-1.574c-5.372-3.677-10.734-7.38-16.45-10.52-3.93-2.166-7.946-4.128-12.337-5.2a78 78 0 0 0-3.743-.835 1.065 1.065 0 0 1-1.012-1.012 9.58 9.58 0 0 0-2.407-5.316c-.319-.344-.152-.622.076-.916a4.67 4.67 0 0 0 .93-3.778 2.8 2.8 0 0 0-.384-.951.5.5 0 0 0-.455-.172.55.55 0 0 0-.385.298 5 5 0 0 0-.126 1.012 4.9 4.9 0 0 1-.835 2.448c-.364.567-.637.653-1.31.395-1.474-.54-3-.927-4.552-1.158a45 45 0 0 1-3.071-.648 8.4 8.4 0 0 1-1.467-.506 1.66 1.66 0 0 1-1.011-1.816c.101-1.563.076-3.136.101-4.709a.7.7 0 0 1 .061-.334c.04-.07.202-.152.248-.126q.523.315 1.011.683a24.2 24.2 0 0 0 5.878 3.379 2.8 2.8 0 0 0 .829.202.56.56 0 0 0 .39-.288.5.5 0 0 0 0-.476 2.6 2.6 0 0 0-.653-.551c-2.296-1.482-4.582-2.98-6.904-4.426a3.63 3.63 0 0 1-1.679-2.08 9 9 0 0 0-4.103-5.022 11.3 11.3 0 0 0-1.694-.895 2.86 2.86 0 0 1-1.417-1.22 75 75 0 0 0-2.458-3.6 75 75 0 0 0-7.89-8.843c-.577-.571-1.164-1.138-1.736-1.72-.571-.581-.571-.693.32-.92a68 68 0 0 1 9.61-1.588c3.121-.32 6.257-.506 9.302-1.361.627-.172.799.04.708.759-.359 2.767-.698 5.564-1.083 8.3a15.7 15.7 0 0 0 .046 4.512 5.33 5.33 0 0 0 1.517 3.065 22.4 22.4 0 0 0 3.905 3.202 16.25 16.25 0 0 0 12.494 2.444 20.6 20.6 0 0 0 4.765-1.66 1.44 1.44 0 0 0 .875-1.011c.081-.334.213-.663.288-1.012.167-.738.339-1.477.461-2.22a1.07 1.07 0 0 1 1.012-1.012l.343-.056a7.795 7.795 0 0 0 6.429-7.435 10.9 10.9 0 0 0-.429-3.268c-.663-2.342-1.897-4.249-4.492-4.85-.42-.102-.481-.44-.43-.83.106-.744.212-1.518.278-2.246a1.81 1.81 0 0 0-.506-1.422 13.9 13.9 0 0 0-4.75-3.465 29.4 29.4 0 0 0-10.49-2.336 19.2 19.2 0 0 0-4.689.333 6.8 6.8 0 0 0-4.047 2.231 2.77 2.77 0 0 0-.708 1.72c-.071 1.219-.233 2.428-.359 3.642a.73.73 0 0 1-.612.728c-1.589.344-3.162.804-4.765 1.037-2.357.344-4.74.506-7.082.79a46 46 0 0 0-9.044 1.83 1.41 1.41 0 0 1-1.548-.374c-2.023-1.684-4.046-3.328-6.07-4.997-1.517-1.265-3.035-2.53-4.527-3.825a1.865 1.865 0 0 1-.682-2.16 5.26 5.26 0 0 0 0-2.933c-.354-1.285-1.169-1.796-2.489-1.599q-.346.05-.673.167a6.98 6.98 0 0 0-3.49 2.777q-.227.47-.506.91a.73.73 0 0 1-.572.244c-1.27-.147-2.528-.43-3.798-.506a45.4 45.4 0 0 0-10.587.824c-4.619.868-9.18 2.018-13.657 3.445-7.461 2.311-14.836 5.326-21.528 9.393A44.8 44.8 0 0 0 8.755 40.935c-.506.622-.592.677-1.31.505-1.011-.268-2.023-.576-3.035-.794a4.97 4.97 0 0 0-2.918.218 2.225 2.225 0 0 0-1.457 2.494q.077.43.218.844A7.5 7.5 0 0 0 2.3 47.596a2.58 2.58 0 0 1 .759 1.852q.153 2.264.556 4.496a75.7 75.7 0 0 0 4.937 15.96 64 64 0 0 0 6.242 11.471c.572.815.556.82-.233 1.518a59 59 0 0 0-2.428 2.26 15 15 0 0 0-2.898 3.91c-2.084 4.164-2.11 8.276.43 12.277 1.335 2.104 3.035 3.662 5.746 3.688a.318.318 0 0 1 .334.45c-.278.946-.46 1.917-1.098 2.731-1.011 1.295-1.806 1.406-3.035.294a8.5 8.5 0 0 1-1.011-1.194 7 7 0 0 0-.476-.723.78.78 0 0 0-.607-.188.508.508 0 0 0-.364.688 5.76 5.76 0 0 0 2.529 3.612 2.978 2.978 0 0 0 2.53.263c.424-.121.803-.734 1.208-.41.309.243.319.84.506 1.26q.468 1.128 1.052 2.2a7.6 7.6 0 0 0 4.294 3.627q.904.321 1.756.764a.38.38 0 0 1 .24.239.39.39 0 0 1-.038.337c-.172.304-.354.602-.536.896-1.042 1.684-2.1 3.353-3.116 5.058a278 278 0 0 0-3.885 6.621q-.615 1.152-1.011 2.398c-.198.556-.051.956.263 1.067.41.137.672-.111.885-.395q.709-.88 1.32-1.831c3.035-5.058 5.913-10.147 9.257-14.992a82 82 0 0 1 5.336-7.082c.244-.324.54-.606.875-.835.489-.313.91-.72 1.24-1.198q.38-.475.829-.885c1.143-1.083 2.281-2.165 3.444-3.218a22 22 0 0 1 2.024-1.654c2.064-1.456 2.074-1.441 4.492-.92.227.045.45.121.677.152 1.442.197 2.879.424 4.32.551a5.6 5.6 0 0 0 1.892-.202c.87-.228 1.517-.855 1.37-1.771-.106-.824.264-1.011.896-1.128q.346-.06.673-.192a2.33 2.33 0 0 0 1.517-2.145 9 9 0 0 0-.08-1.042.393.393 0 0 1 .419-.44 8.1 8.1 0 0 0 3.035-.627c1.882-.82 2.286-1.603 1.917-3.687a.78.78 0 0 1 .116-.612c1.093-.921 1.23-2.024.78-3.308-.198-.552-.112-.658.44-.926 1.825-.9 3.657-1.786 5.482-2.686a50.5 50.5 0 0 1 10.117-3.769c1.123-.288 2.271-.47 3.4-.743 3.388-.82 6.772-1.67 10.156-2.484 1.64-.394 3.293-.723 4.937-1.102a1.7 1.7 0 0 1 1.735.475c.835.804 1.75 1.517 2.65 2.261q.555.424 1.179.739a1.604 1.604 0 0 0 1.963-.157 5.77 5.77 0 0 1 2.681-1.477 2.1 2.1 0 0 0 .88-.552c.435-.47.799-.455 1.36-.161.86.45 1.568-.066 2.165-.653q.458-.517.825-1.103c.506.157.961.334 1.446.47q.586.18 1.189.279c1.386.197 2.2-.364 2.529-1.745.162-.683.157-.703.749-.597q4.203.744 8.407 1.517c5.33.962 10.47 2.78 15.22 5.382a161 161 0 0 1 14.067 8.751c.617.425 1.214.89 1.816 1.336-.804.192-1.406-.4-2.125-.557-.905-.197-1.79-.506-2.696-.688a62 62 0 0 0-12.458-1.396c-5.418 0-10.8.47-16.187.977-2.774.25-5.533.65-8.265 1.198a54 54 0 0 0-11.775 3.743c-2.954 1.361-5.888 2.772-8.822 4.178-10.258 4.927-19.823 11.002-29.024 17.659a257 257 0 0 0-20.395 16.662 130 130 0 0 0-11.234 11.214c-1.078 1.224-2.1 2.488-3.126 3.758-.21.275-.38.578-.506.9-.106.238.172.714.4.653.637-.172.956.121 1.274.607 2.656 4.047 5.676 7.815 8.635 11.634a256 256 0 0 0 3.353 4.244.93.93 0 0 1 .056 1.254 14 14 0 0 0-1.624 3.657 1.6 1.6 0 0 0-.08.673.54.54 0 0 0 .298.374.54.54 0 0 0 .475-.03c.198-.2.369-.427.506-.673.546-.89 1.072-1.795 1.619-2.686.202-.328.435-.333.688-.05q.18.188.338.394a2962 2962 0 0 0 12.14 15.109c.506.607.79 1.133.192 1.826a1.2 1.2 0 0 0-.258.628.56.56 0 0 0 .198.44.57.57 0 0 0 .475.075q.305-.163.567-.389c.506-.354.592-.359 1.011.096 1.139 1.244 2.267 2.504 3.405 3.743q.346.393.773.693a.5.5 0 0 0 .466-.05.88.88 0 0 0 .238-.592 1.3 1.3 0 0 0-.334-.592c-.805-1.067-1.639-2.114-2.428-3.197-1.604-2.205-1.766-1.426.192-3.596l.127-.127c6.843-7.142 14.056-13.905 21.442-20.491a265 265 0 0 1 4.208-3.667c.814-.688.844-.683 1.517.081q4.28 4.947 8.539 9.914c.91 1.057 1.795 2.14 2.675 3.227 1.012 1.255 1.128 1.113-.177 2.095l-.136.106q-6.01 5.058-12.008 10.116c-.906.769-.967 1.179-.506 2.276a.44.44 0 0 0 .394.157q.496-.351.951-.753l11.179-9.48c.622-.505 1.27-1.011 1.912-1.517.374-.283.617-.263.905.076s.643.824.972 1.234c.163.252.362.479.591.673a.74.74 0 0 0 .628.055.5.5 0 0 0 .176-.127.52.52 0 0 0 .122-.407.5.5 0 0 0-.076-.204c-.162-.309-.354-.602-.536-.9-.268-.446-.546-.891-.819-1.336a.44.44 0 0 1-.081-.329.45.45 0 0 1 .172-.293c.303-.268.627-.506.951-.764 2.893-2.155 5.751-4.355 8.684-6.454a200 200 0 0 1 20.942-13.197q.447-.28.935-.476a.8.8 0 0 1 .628.107q.392.351.677.794 3.284 4.516 6.576 9.034.297.42.688.753a.53.53 0 0 0 .506-.04c.121-.081.268-.298.238-.415a3.9 3.9 0 0 0-.39-.961 65 65 0 0 0-5.402-8.336 72 72 0 0 1-1.153-1.517c-.268-.375-.218-.562.222-.81.44-.247.921-.505 1.391-.728 3.541-1.71 7.082-3.5 10.698-5.109 4.831-2.16 9.722-4.178 14.588-6.242.83-.354.956-.323 1.472.375 1.386 1.871 2.742 3.758 4.108 5.64.399.546.632.682.961.505s.424-.591.055-1.214c-1.168-1.942-2.362-3.869-3.541-5.801-.263-.43-.222-.623.223-.805.642-.273 1.295-.506 1.943-.774a170 170 0 0 1 16.509-5.564 7 7 0 0 1 1.184-.278.8.8 0 0 1 .316.068q.15.069.261.19.227.371.399.769c.324.506.643.551 1.331.223q.153-.085.293-.193v-1.396c-.602-.313-.268-.971-.582-1.391M137.361 28.876c0-.101.263-.228.4-.218.23.017.453.086.652.203a4.7 4.7 0 0 1 1.862 2.023 10 10 0 0 1 1.011 4.016c-.06 3.48-2.635 5.837-4.866 6.207-.546.086-.703-.04-.673-.653 0-.116 0-.233.036-.344.045-.303.106-.546.506-.506.281.046.569.009.829-.106a6.2 6.2 0 0 0 2.838-2.949 3.89 3.89 0 0 0-.395-3.955 5.6 5.6 0 0 0-1.618-1.553c-.278-.183-.703-.395-.739-.648a4.7 4.7 0 0 1 .157-1.517m-.066 3.783a2.86 2.86 0 0 1 1.28 2.449 8.4 8.4 0 0 1-.405 1.224 4.42 4.42 0 0 1-1.634 1.992c-.116.076-.338.147-.404-.12 0-.062-.046-.117-.036-.168q.324-2.594.673-5.18a.33.33 0 0 1 .209-.242.34.34 0 0 1 .317.045m-25.013 7.476c.142-3.14.536-6.252.961-9.367s.987-6.323 1.012-9.53a1.575 1.575 0 0 1 .966-1.518 10.3 10.3 0 0 1 4.183-1.097c.632-.056 1.28 0 1.917 0a26.05 26.05 0 0 1 11.472 2.529 10 10 0 0 1 2.995 2.357 1.32 1.32 0 0 1 .354 1.113q-.207 1.563-.415 3.11-1.224 9.075-2.433 18.15c-.065.505-.182.9-.713 1.072-4.198 1.315-8.417 1.871-12.646.126a19.8 19.8 0 0 1-6.914-4.926 2.63 2.63 0 0 1-.739-2.019m-5.984 8.974c.076-.04.223 0 .319.076q.3.178.572.394a7.6 7.6 0 0 1 2.584 4.047c.264 1.062.395 2.165.587 3.247h-.106v.87a.5.5 0 0 1-.061.162c-.076-.046-.192-.08-.222-.147-.304-.753-.602-1.517-.901-2.266a19 19 0 0 0-2.306-4.481 2.73 2.73 0 0 1-.562-1.619c-.005-.086.026-.248.096-.283m-4.633-1.857h.475c.258.107.633.258 1.012.42.03 0 .051.111.036.162-.016.05-.076.127-.097.116a25 25 0 0 1-1.451-.505c-.051 0-.081-.076-.122-.117.051-.02.091-.07.147-.076M15.523 85.058c-.283.44-.591.86-.885 1.29a13.86 13.86 0 0 0-2.25 8.599 17.3 17.3 0 0 0 1.82 7.182q.09.15.137.319.047.228.07.46c-.212 0-.47.051-.637-.04a6 6 0 0 1-1.128-.805 9.1 9.1 0 0 1-2.853-5.432 10.47 10.47 0 0 1 1.26-6.874 18.6 18.6 0 0 1 4.158-4.861 1.2 1.2 0 0 1 .278-.127c.01.102.086.228.03.289m23.091 12.165c-.961.743-1.204 1.805-1.108 2.964 0 .292.048.583.142.86.425.91.045 1.482-.663 2.064-1.072.89-2.058 1.881-3.09 2.822-.258.238-.562.126-.648-.223a43.8 43.8 0 0 1-1.517-9.818c.106-1.097.207-2.195.323-3.292a9.1 9.1 0 0 1 3.182-6.025 28.5 28.5 0 0 1 8.761-5.296 1.056 1.056 0 0 1 1.25.248 15 15 0 0 0 5.022 3.075c.436.163.844.394 1.21.683 1.254 1.012 1.066 1.052-.198 1.685-.98.504-1.91 1.1-2.777 1.78a7.2 7.2 0 0 1-1.79 1.047 7.7 7.7 0 0 0-1.685.89c-.45.269-.81.663-1.037 1.133-.283.896-.91 1.245-1.68 1.584a5.74 5.74 0 0 0-2.63 2.463 4.5 4.5 0 0 1-1.067 1.356m-3.728-48.311c.339-.39.673-.79 1.012-1.169.035-.04.248 0 .273.056q.096.244.111.505c.152 1.614.299 3.233.44 4.846 0 1.047.086 2.09.142 3.131a.8.8 0 0 1-.096.263c-.081-.08-.192-.146-.238-.242a29.6 29.6 0 0 1-1.983-5.919 1.56 1.56 0 0 1 .34-1.472m-.066-4.927c.132-.906.269-1.867.42-2.828a.9.9 0 0 1 .157-.293q.085.116.132.253.178 1.448.359 2.903a1.52 1.52 0 0 1-.587 1.36.46.46 0 0 1-.299.122c-.075 0-.166-.157-.172-.243-.03-.404-.03-.804-.03-1.274zm24.998-.683q.576.396 1.214.678a.98.98 0 0 1 .673.91q.023.351.152.678a1.073 1.073 0 0 0 1.851.228c.172-.233.295-.498.364-.78a1.15 1.15 0 0 1 .89-.94 1.215 1.215 0 0 1 1.518.359q.287.329.662.551a.925.925 0 0 0 1.326-1.128 2 2 0 0 0-.06-.162c-.557-1.057-.507-1.112.783-1.36.213-.04.38-.258.592-.34.126-.05.38-.055.425 0a87 87 0 0 1 2.114 3.395.66.66 0 0 1-.167.607c-.449.365-.964.64-1.517.81-1.189.242-2.408.328-3.612.475a40.7 40.7 0 0 1-6.753-.941 5.06 5.06 0 0 1-2.65-1.234.665.665 0 0 0-1.062 0 .8.8 0 0 1-.258.227c-1.553.506-2.266 1.755-2.716 3.182q-.456 1.41-.729 2.868a11.05 11.05 0 0 1-3.035 5.792c-2.686 2.792-5.979 3.621-9.727 2.847a3 3 0 0 1-.334-.1 1.01 1.01 0 0 1-.769-1.012c-.08-2.15-.177-4.3-.318-6.445-.132-1.972-.268-3.945-.531-5.903a2.53 2.53 0 0 1 .758-2.326 28.9 28.9 0 0 1 14.163-8.16c1.462-.358 2.94-.692 4.432-.915 1.094-.149 2.2-.195 3.303-.136a5.3 5.3 0 0 1 2.023.505 17 17 0 0 1 5.867 4.553q.076.148.102.313a1.6 1.6 0 0 1-.33.096 2.3 2.3 0 0 1-1.324-.338c-.435-.238-.76-.086-1.012.349q-.128.242-.203.505a2.28 2.28 0 0 1-2.256 1.609 13 13 0 0 1-2.25-.152q-.598-.121-1.179-.308c-.506-.122-.774 0-.88.293-.091.435.172.658.46.85m-3.773-9.838c-1.695.424-3.4.794-5.059 1.27A28.44 28.44 0 0 0 39.13 41.49c-.339.319-.698.612-1.062.895-.046.04-.192 0-.278-.066-.086-.065-.056-.1-.066-.156q-.546-3.177-1.083-6.358c-.136-.825-.065-.982.688-1.397a15.2 15.2 0 0 1 5.423-1.83c1.841-.243 3.697-.35 5.564-.507 2.45.04 4.89.313 7.289.815q.257.04.506.121a.31.31 0 0 1 .172.243.32.32 0 0 1-.238.213m-5.23 67.527a6.5 6.5 0 0 1-1.71.096c-1.432-.187-2.858-.47-4.28-.713-.455-.081-.915-.157-1.365-.253a4.17 4.17 0 0 0-2.706.369c-.37.172-.719.375-1.083.552s-.505.03-.54-.385a8 8 0 0 1 0-.87 1.74 1.74 0 0 1 1.127-1.608 7.6 7.6 0 0 1 3.738-.506c1.802.048 3.577.44 5.23 1.158.77.281 1.422.816 1.846 1.518.162.278.071.607-.257.642m2.802-3.035c-.84.258-1.715.4-2.53-.066-2.746-1.598-5.725-2.084-8.851-1.927-.127 0-.258-.106-.39-.162q.13-.219.314-.394c1.264-.916 2.757-1.143 4.244-1.391q.64-.082 1.285-.091a10.7 10.7 0 0 1 4.344.713 3.85 3.85 0 0 1 2.125 1.942.895.895 0 0 1-.541 1.35zm5.67-4.679a5.46 5.46 0 0 1-3.364.77c-.91.07-1.819-.158-2.59-.648-1.294-.81-2.812-1.012-4.32-1.164-.46-.045-.925 0-1.385 0L46.11 92.2c.268-.713 1.012-.698 1.518-.865a12.9 12.9 0 0 1 6.166-.567c1.194.213 2.408.314 3.607.506.694.066 1.36.31 1.932.708a.758.758 0 0 1-.046 1.27zm1.25-4.082a1.11 1.11 0 0 1-1.31.562l-4.275-.688-2.372-.395c.566-.769 1.517-.723 2.271-.89 1.29-.278 2.625-.364 3.94-.506a1.66 1.66 0 0 1 1.518.648 1.12 1.12 0 0 1 .227 1.244zm11.507-8.821a80 80 0 0 0-8.918 4.3c-.617.328-1.198.717-1.805 1.051a1.077 1.077 0 0 1-1.609-.723 7.3 7.3 0 0 1-.172-1.72c.066-1.978-.87-3.308-2.595-4.142-1.012-.476-2.023-.911-3.01-1.361a3.11 3.11 0 0 1-1.765-1.821c-.197-.506-.045-.78.506-.617 1.851.066 3.703.162 5.564.192 3.017.01 6.025-.319 8.968-.981q.498-.138 1.012-.182a.81.81 0 0 1 .556.263c.138.185.241.394.304.617a10.55 10.55 0 0 0 3.065 4.147c.673.562.663.663-.101.951zm.571-12.292a3.7 3.7 0 0 1-1.714 1.133c-1.588.607-3.273.749-4.937 1.012-1.093.162-2.19.268-3.288.41-.232.01-.46.062-.673.156-.246.12-.447.317-.571.562-.111.308.162.506.45.622.693.298 1.376.607 2.059.92a.41.41 0 0 1 .232.228c.061.284-.197.213-.323.223-1.968.177-3.93.344-5.868.506l-5.776-.506a.61.61 0 0 1-.607-.506q-.151-.76-.294-1.517a15.3 15.3 0 0 0-1.158-3.648 7.17 7.17 0 0 0-3.136-3.394 915 915 0 0 1-3.035-1.674 1.1 1.1 0 0 1-.243-.243c.127-.11.238-.278.384-.318.673-.172 1.371-.258 2.024-.476 4.456-1.482 7.081-4.648 8.32-9.105.294-1.062.43-2.164.729-3.227.192-.606.46-1.186.8-1.725a.89.89 0 0 1 1.056-.414c.45.116.885.286 1.295.505a16.7 16.7 0 0 0 7.122 2.12c.112 0 .228 0 .344.04.344.05.541.268.476.592-.142.678-.324 1.35-.506 2.023a8 8 0 0 1-.329.81.62.62 0 0 0 .152.784.66.66 0 0 0 .91-.218 6.82 6.82 0 0 0 1.518-3.824c.09-1.011.121-.976 1.113-1.148a45 45 0 0 0 2.726-.556.71.71 0 0 1 .885.313 21.7 21.7 0 0 1 2.6 5.306c1.619 5.185.632 9.92-2.737 14.209zm18.21-22.398a9.28 9.28 0 0 1-5.918-.96 22.4 22.4 0 0 1-3.096-1.943 38.6 38.6 0 0 1-5.933-5.64 52 52 0 0 0-4.552-4.81 24.55 24.55 0 0 0-9.95-5.565 33.6 33.6 0 0 0-17.061-.546 17.4 17.4 0 0 0-5.62 2.297 46.5 46.5 0 0 0-9.257 7.643c-2.832 3.075-4.8 6.702-6.398 10.536-.4.966-.749 1.958-1.179 2.908-1.37 3.035-1.897 6.212-1.937 9.753.133 2.763.413 5.517.84 8.25.335 2.126.554 4.269.657 6.419a3.97 3.97 0 0 1-1.012 3.035c-1.062 1.153-2.094 2.331-3.161 3.48-.299.323-.617.273-.875-.096a36 36 0 0 1-1.426-2.196 76.1 76.1 0 0 1-9.975-27.168 39 39 0 0 1-.34-2.417 2.06 2.06 0 0 0-.798-1.462 6.86 6.86 0 0 1-2.236-3.662c-.187-.744.06-1.128.789-1.255a7.1 7.1 0 0 1 3.11.223c.557.156 1.109.349 1.67.505 1.573.43 1.8.304 2.762-1.011 4.492-6.035 10.895-10.253 17.618-13.51a92 92 0 0 1 4.997-2.216 132 132 0 0 1 20.962-6.49A51 51 0 0 1 69.1 18.623c.749.065 1.517.167 2.25.227a.683.683 0 0 0 .775-.556c.425-1.867 1.81-2.747 3.435-3.38.46-.176.788.036.86.542.196.973.222 1.973.075 2.954a2.13 2.13 0 0 0 .47 1.765 13.4 13.4 0 0 0 2.429 2.727 729 729 0 0 0 5.255 4.32A112 112 0 0 1 97.866 40.13c.916 1.047 1.755 2.17 2.58 3.293.43.582 1.012 1.083 1.098 1.877-.683-.046-1.371-.137-2.06-.142-1.517 0-3.034-.055-4.552 0a62 62 0 0 0-4.122.501zM103.4 77.678a.42.42 0 0 1-.296.163.42.42 0 0 1-.321-.108c-1.012-.789-1.978-1.593-2.97-2.387a19 19 0 0 0-1.638-1.265 1.55 1.55 0 0 0-1.65-.07c-1.142.607-2.437.667-3.677.945a.34.34 0 0 1-.343-.455q.197-.57.505-1.087a7 7 0 0 1 2.717-2.368q.563-.22 1.153-.354c.36.081.698.142 1.012.243a7.42 7.42 0 0 1 4.228 3.136q.726 1.285 1.305 2.64c.076.158.113.332.106.506a.84.84 0 0 1-.146.435zm2.625-1.462c-.506.197-.774.106-1.011-.34-.182-.363-.339-.733-.506-1.102a9.38 9.38 0 0 0-4.851-4.972 5 5 0 0 1-.622-.309c-.081-.05-.187-.222-.167-.257.086-.132.207-.289.339-.32q.58-.104 1.168-.146c2.631.425 4.937 1.578 6.353 4.097a4.3 4.3 0 0 1 .445 1.654c.081.86-.283 1.32-1.163 1.67zm4.421-1.846c-.025.505-.303.92-.602.94a.895.895 0 0 1-.845-.885 6.84 6.84 0 0 0-1.795-4.01 1 1 0 0 1-.112-.284c.102 0 .228-.071.299-.03a5.64 5.64 0 0 1 2.565 2.468q.302.709.505 1.452c-.025.227-.03.268-.03.323zm4.694 0c-1.421-.32-2.853-.618-3.5-2.2a14 14 0 0 0-.85-1.518c-.035-.066 0-.187.046-.273.045-.086.101-.04.227-.091 1.639.632 3.263 1.375 4.3 2.984q.125.241.187.506c.081.232-.157.612-.425.551zm57.244 27.547c1.659 2.241 3.339 4.466 4.952 6.737.81 1.133 1.518 2.347 2.236 3.541.207.339.096.541-.288.587a93 93 0 0 0-12.949 2.696c-3.981 1.052-7.942 2.2-11.892 3.384a1.52 1.52 0 0 1-1.811-.506 1212 1212 0 0 0-8.255-8.746c-1.518-1.598-3.081-3.161-4.623-4.744-.243-.253-.506-.506-.734-.749-.536-.566-.47-.774.349-.981q.845-.213 1.7-.395a96.3 96.3 0 0 1 15.68-2.22c1.624-.076 3.243-.182 4.871-.273 3.079.069 6.152.304 9.206.703a2.13 2.13 0 0 1 1.558.966m-21.057 17.643c-.081.121-.122.253-.208.293a10 10 0 0 1-.961.395 177 177 0 0 0-20.374 8.563c-1.771.876-3.511 1.801-5.271 2.702-.309.161-.612.333-.926.505a.67.67 0 0 1-.799-.116 14 14 0 0 1-.728-.754c-4.644-4.962-9.338-9.878-14.295-14.537a6 6 0 0 1-.354-.379.34.34 0 0 1-.1-.139q-.032-.083-.021-.171a.36.36 0 0 1 .064-.159.35.35 0 0 1 .133-.108c.294-.187.602-.344.911-.506a135 135 0 0 1 26.398-10.754c.223-.065.446-.146.663-.217a1.39 1.39 0 0 1 1.568.41c1.209 1.259 2.474 2.463 3.672 3.722 3.369 3.541 6.713 7.082 10.066 10.623.182.187.375.414.542.627zm-26.91-28.741a.36.36 0 0 1 .248-.192c1.386-.137 2.772-.288 4.163-.374 3.541-.223 7.081-.415 10.622-.618a47.3 47.3 0 0 1 14.467 1.922c3.707 1.154 7.304 2.666 10.935 4.047a11.9 11.9 0 0 1 3.379 2.13c.461.384 1.134.612 1.24 1.335-.572-.05-1.138-.091-1.71-.152a57.6 57.6 0 0 0-9.57-.313c-2.089.131-4.173.318-6.252.505a84 84 0 0 0-13.192 2.353c-1.406.369-2.332.177-3.359-.87-1.952-1.988-4.046-3.865-6.115-5.706-1.391-1.23-2.898-2.332-4.355-3.485a4 4 0 0 1-.41-.314.34.34 0 0 1-.111-.268zM92.96 101.158c3.86-1.882 7.714-3.789 11.634-5.594a51.8 51.8 0 0 1 13.657-4.047c.804-.126 1.603-.273 2.443-.415q.5.094.966.294 1.236.638 2.378 1.431a95 95 0 0 1 8.68 7.542c.551.506 1.087 1.047 1.623 1.583.349.354.289.582-.187.729-1.715.546-3.439 1.062-5.149 1.628a144 144 0 0 0-21.715 9.409c-1.851.976-1.341 1.082-2.914-.334a106 106 0 0 0-10.779-8.837 9 9 0 0 1-.718-.506c-.688-.566-1.619-.814-2.15-1.598.723-.435 1.432-.88 2.21-1.285zm-32.034 20.739a217 217 0 0 1 25.524-17.299c.556-.319 1.158-.567 1.674-.936.713-.506 1.24-.445 1.968.096a162 162 0 0 1 13.03 10.774q.377.315.789.582c-.127.288-.142.42-.213.47-.333.228-.682.44-1.011.648a212 212 0 0 0-28.807 19.894c-.223.182-.455.359-.683.541a.55.55 0 0 1-.774-.071l-.38-.359-10.94-10.046a4 4 0 0 1-.384-.354c-.627-.733-1.665-1.052-2.07-2.023.754-.627 1.483-1.295 2.257-1.902zm-14.4 42.044c-.33.43-.507.435-.82.076-.233-.263-.46-.506-.673-.804-3.637-4.684-7.289-9.353-10.895-14.062-1.27-1.659-1.27-1.229.151-2.797a146 146 0 0 1 10.375-10.582c3.712-3.349 7.521-6.576 11.29-9.869q.465-.398.971-.744.198-.083.41-.116c.177.147.404.319.611.506a7407 7407 0 0 0 9.374 8.599 254 254 0 0 1 3.434 3.222c.718.688.703.698 0 1.32-1.922 1.69-3.86 3.359-5.751 5.058a148 148 0 0 0-16.055 16.951c-.855 1.107-1.629 2.195-2.443 3.257zm42.15-7.476a5.5 5.5 0 0 1-.633.587 401 401 0 0 0-23.95 22.398c-.977 1.011-1.908 2.023-2.864 3.035-.252.268-.505.273-.723 0-.81-1.012-1.614-1.983-2.413-2.98a13859 13859 0 0 1-9.823-12.251 7.5 7.5 0 0 1-.728-.971.8.8 0 0 1 0-.642q.347-.606.774-1.159a120.4 120.4 0 0 1 13.04-14.755c3.262-3.151 6.657-6.156 10-9.221.344-.313.723-.587 1.088-.87q.148-.092.313-.152.163.063.304.167.264.22.506.466a358 358 0 0 1 14.744 15.346q.252.245.42.552a.5.5 0 0 1-.076.465zm1.097-1.988c-1.345-1.452-2.645-2.944-4.046-4.365-3.435-3.541-6.905-7.082-10.365-10.623-.324-.333-.652-.662-.94-1.011a.47.47 0 0 1 0-.461q.475-.5 1.011-.935a207 207 0 0 1 18.61-13.536c3.085-1.978 6.241-3.834 9.367-5.741.4-.243.825-.44 1.219-.683a1.008 1.008 0 0 1 1.406.157c1.012.981 2.024 1.912 3.01 2.913q5.892 6.07 11.765 12.14.27.303.506.632c-.111.172-.152.299-.238.349-.596.359-1.208.693-1.81 1.047a197.6 197.6 0 0 0-25.838 18.089c-.855.703-1.7 1.416-2.56 2.109-.495.48-.616.475-1.117-.066zm46.308-4.047q-.354.255-.748.44a224 224 0 0 0-29.576 19.642c-.319.248-.647.505-.976.728q-.191.102-.4.157a3 3 0 0 1-.465-.41c-1.285-1.568-2.529-3.176-3.854-4.724-2.49-2.914-5.013-5.802-7.527-8.695-1.062-1.225-1.047-1.169.116-2.145a196.3 196.3 0 0 1 28.605-20.122c1.694-.961 1.34-1.067 2.685.41 3.981 4.39 7.876 8.852 11.634 13.445q.34.394.608.839a.46.46 0 0 1-.122.471zm29.495-13.566a443 443 0 0 1-3.859 1.609c-7.623 3.141-15.13 6.52-22.454 10.319-.207.106-.41.212-.622.308-.577.268-.668.263-1.042-.177-.567-.663-1.098-1.35-1.664-2.023q-5.18-6.005-10.37-11.993c-.263-.304-.546-.597-.804-.911-.258-.313-.162-.506.152-.708q.368-.235.758-.43a179.5 179.5 0 0 1 25.995-11.3c.217-.076.45-.121.662-.218a.74.74 0 0 1 .921.258c.238.253.506.506.718.759l11.285 13.04c.228.263.435.547.638.83q.068.174.08.359a2.2 2.2 0 0 1-.414.314zm23.187-7.84a1 1 0 0 1-.324.111c-5.184 1.093-10.142 2.914-15.104 4.725-1.517.556-3.035 1.158-4.552 1.73-.769.288-.835.278-1.335-.324-1.452-1.74-2.869-3.511-4.351-5.22-2.478-2.848-4.997-5.66-7.496-8.488-.835-.946-.814-1.012.445-1.416 5.65-1.776 11.376-3.273 17.158-4.553 2.094-.465 4.203-.86 6.312-1.269 1.225-.238 1.245-.228 1.897.935 1.255 2.226 2.474 4.472 3.738 6.692 1.179 2.069 2.388 4.118 3.581 6.177q.153.285.274.586-.106.195-.263.349z"/>
  <path fill="#000" d="M160.244 54.465c-.232 1.169-.505 2.656-.834 4.123-.759 3.282-1.518 6.575-2.347 9.823-.339 1.345-.805 2.665-1.229 3.99q-.13.413-.39.76a.54.54 0 0 1-.455.151c-.137-.025-.344-.182-.359-.303a3.2 3.2 0 0 1 0-1.012c.253-1.431.506-2.863.829-4.274.936-3.89 1.923-7.77 2.889-11.634a.7.7 0 0 0 .04-.167c0-.167 0-.374-.066-.506-.065-.131-.298-.066-.44-.035q-.25.077-.48.202-9.753 4.204-19.51 8.392c-2.079.89-4.178 1.74-6.277 2.584-.688.279-1.098.193-1.194-.192-.126-.506.268-.733.617-.925.865-.466 1.725-.961 2.63-1.346 4.811-2.023 9.646-4.006 14.452-6.07 3.151-1.335 6.267-2.757 9.403-4.132a28 28 0 0 1 1.771-.724c.602-.217 1.011.147 1.011.8-.06.045-.061.12-.061.495"/>
  <path fill="#1D4ED8" d="M172.723 87.597c-.263-.212-.541-.339-.663-.561a10 10 0 0 1-.293-1.012 1.546 1.546 0 0 0-1.583-1.034 1.55 1.55 0 0 0-.643.2c-.394.207-.733.505-1.122.748a.65.65 0 0 1-.785-.056.788.788 0 0 1-.172-.946c.208-.41.456-.794.668-1.198a1.83 1.83 0 0 0-.192-2.115 11 11 0 0 0-.941-1.011 8 8 0 0 1-.733-.709.79.79 0 0 1 0-.966.71.71 0 0 1 .9-.232c.248.131.475.298.713.455a1.423 1.423 0 0 0 1.973-.248 116 116 0 0 0 1.897-1.968c.354-.374.683-.86 1.249-.723.678.172.693.83.759 1.406.045.405.066.815.121 1.214a1.556 1.556 0 0 0 1.396 1.518c.445.065.885.116 1.331.166q.419-.014.829.081c.252.1.458.289.577.532a.72.72 0 0 1-.415.854c-.293.167-.622.253-.925.4q-.617.278-1.199.622a4.11 4.11 0 0 0-1.923 2.919q-.039.516-.192 1.011c-.116.258-.384.41-.632.653m-.597-8.427c-.071.055-.197.106-.207.172a1.52 1.52 0 0 1-.941 1.133 29 29 0 0 1-1.057.506.437.437 0 0 0-.304.506c.111.561.051 1.27.36 1.648.308.38.986.395 1.492.592.207.076.394.263.601.294a.83.83 0 0 0 .557-.192q.212-.267.384-.562c.355-.44.951-.824 1.042-1.31.101-.566-.784-.688-1.011-1.199-.228-.51-.425-.936-.648-1.396-.065-.055-.177-.116-.268-.192"/>
  <path fill="#000" d="M160.078 50.545c-.157.177-.269.414-.451.505q-1.08.566-2.215 1.012c-2.185.784-4.391 1.518-6.576 2.291a5363 5363 0 0 0-17.881 6.354c-.875.313-1.765.581-2.65.865q-.327.119-.668.192a.694.694 0 0 1-.85-.415.726.726 0 0 1 .456-.84q.545-.282 1.117-.505c1.144-.43 2.282-.865 3.43-1.27q11.745-4.133 23.495-8.25.907-.303 1.842-.506c.226-.034.457.001.662.101.117.061.172.268.289.466M148.044 69.438a2.72 2.72 0 0 1-1.406 2.529 2.81 2.81 0 0 1-2.813.141 2.19 2.19 0 0 1-1.011-2.822 3.97 3.97 0 0 1 2.023-2.07c1.194-.57 2.721.269 3.121 1.645q.06.286.086.576m-2.615-.77a1.4 1.4 0 0 0-.481.243 3.6 3.6 0 0 0-.566.845.83.83 0 0 0-.071.617.76.76 0 0 0 .84.44 1.52 1.52 0 0 0 1.112-.708 1.01 1.01 0 0 0-.834-1.421zM63.395 59.776a4.8 4.8 0 0 1-3.167-.91 1.7 1.7 0 0 1-.46-.506.6.6 0 0 1 0-.506.55.55 0 0 1 .4-.263q.688.037 1.36.187c1.639.405 3.202.374 4.638-.647a1.76 1.76 0 0 1 .8-.294.75.75 0 0 1 .586.248.76.76 0 0 1 .092.642 2.5 2.5 0 0 1-.628.805 5.33 5.33 0 0 1-3.622 1.244M128.185 25.942a21.16 21.16 0 0 1-9.717-2.246 19.4 19.4 0 0 1-2.6-1.72 1.7 1.7 0 0 1-.506-.672.82.82 0 0 1 .097-.612.5.5 0 0 1 .45-.152c.328.11.637.27.915.475a2.09 2.09 0 0 0 1.806.314 22 22 0 0 1 10.81.683c.665.197 1.315.446 1.942.743.88.425 1.694 1.012 2.772.749a.505.505 0 0 1 .587.506 1 1 0 0 1-.284.753 4.4 4.4 0 0 1-1.269.506 17.5 17.5 0 0 1-5.003.673M49.58 48.82a2 2 0 0 1-.066.506 1.21 1.21 0 0 0 .35 1.25 1.366 1.366 0 0 1 .06 1.891c-.48.607-1.012.709-1.846.299-.36-.177-.678-.506-1.073-.101-.394.404.04.642.122.95.08.31.207.552.247.83a1.38 1.38 0 0 1-1.047 1.422 1.12 1.12 0 0 1-1.29-.648c-.181-.364-.262-.774-.45-1.133a.56.56 0 0 0-.445-.172c-.146 0-.38.121-.415.238-.085.268-.05.571-.11.85a2.6 2.6 0 0 1-.3.799.97.97 0 0 1-.89.45 1.05 1.05 0 0 1-.874-.739c-.071-.222-.1-.455-.086-.688a1.64 1.64 0 0 0-.719-1.643.7.7 0 0 1-.121-.612.536.536 0 0 1 .698-.355c.856.192 1.75.143 2.58-.141a6.5 6.5 0 0 0 2.473-1.24 3.86 3.86 0 0 0 1.553-2.438 5 5 0 0 1 .202-.84.638.638 0 0 1 1.012-.191 1.79 1.79 0 0 1 .435 1.456"/>
  <path fill="#1D4ED8" d="M87.578 25.087c-.465-.035-.926-.05-1.386-.111a.774.774 0 0 1-.744-.622.82.82 0 0 1 .426-.87c.576-.38 1.153-.764 1.704-1.18a1.755 1.755 0 0 0 .683-1.845c-.06-.34-.111-.683-.162-1.012-.05-.329-.111-.572-.132-.86-.055-.632.142-1.012.557-1.143a.935.935 0 0 1 1.047.435c.253.319.465.668.723.981.83 1.012 1.356 1.169 2.585.703.647-.247 1.25-.612 1.882-.9q.389-.182.814-.243a.696.696 0 0 1 .658.835c-.107.268-.294.506-.4.764a13 13 0 0 0-.597 1.623c-.233.916-.08 1.725.82 2.261.21.103.386.264.505.466.13.245.168.528.107.799a.87.87 0 0 1-.663.42 5.2 5.2 0 0 1-1.183-.213 2.65 2.65 0 0 0-3.278 1.831c-.056.162-.056.344-.106.506-.203.627-.506.906-.931.84s-.683-.506-.638-1.078c0-.404.122-.804.112-1.209 0-.804-.344-1.122-1.179-1.198-.4-.04-.81 0-1.214 0zm5.964-2.388q.028-.482 0-.966c-.03-.212-.132-.591-.198-.591q-.512.051-1.011.177a3.5 3.5 0 0 1-1.857-.238c-.242-.091-.425 0-.505.293-.137.546-.147 1.123-.613 1.573-.364.35-.318.415.188.602.508.114.97.383 1.32.77a.506.506 0 0 0 .85.166q.582-.366 1.224-.617c.647-.278.652-.268.617-.93-.005-.173-.02-.34-.015-.239M30.976 4.616l.693.03a1.61 1.61 0 0 0 1.583-.874c.253-.46.45-.941.709-1.396a.804.804 0 0 1 .85-.506.855.855 0 0 1 .703.683c.172.678.293 1.36.455 2.023.344 1.442.733 1.78 2.236 1.993q.514.048 1.011.187a.75.75 0 0 1 .187 1.28q-.601.34-1.244.597c-.814.384-.946.617-.8 1.487.041.228.193.465.148.668a1.05 1.05 0 0 1-.42.677 1.01 1.01 0 0 1-.794-.08 2.4 2.4 0 0 1-.572-.643 1.644 1.644 0 0 0-2.2-.334c-.506.304-.86.769-1.33 1.098-.235.148-.518.2-.79.146a.677.677 0 0 1-.445-.834c.035-.283.152-.556.212-.84.334-1.639.208-3.13-1.34-4.163a1.4 1.4 0 0 1-.131-.111c-.208-.217-.435-.506-.258-.759.165-.219.4-.374.667-.44q.434-.037.86.05zm3.81 3.936c.252.05.363.07.475.101a.69.69 0 0 0 .844-.41c.198-.344 0-.506-.242-.713a3.66 3.66 0 0 1-1.33-1.973c-.117-.45-.34-.328-.603-.151-.465.318-1.158.54-1.34.98s.131 1.093.232 1.655q.016.171.056.339a.445.445 0 0 0 .506.359c.511-.056 1.022-.137 1.416-.187zM100.699 3.787c.961.09 1.335-.127 1.806-1.118q.187-.485.445-.936a.71.71 0 0 1 1.168.116q.133.32.198.658c.106.506.222 1.012.298 1.517a1.55 1.55 0 0 0 1.244 1.452c.8.223.82.916.132 1.416-.091.071-.218.092-.309.157-.637.46-.733.77-.45 1.472q.248.46.42.951a.73.73 0 0 1-.223.597.86.86 0 0 1-.632.157 1.4 1.4 0 0 1-.597-.329c-1.042-.855-2.079-.95-3.131 0-.131.117-.278.268-.43.283-.272.05-.553.02-.809-.086a.56.56 0 0 1-.187-.768c.177-.365.415-.704.561-1.078.461-1.148.577-2.26-.465-3.197a1.2 1.2 0 0 1-.223-.263.62.62 0 0 1 0-.799c.16-.157.362-.263.582-.303q.31 0 .602.1m1.305 2.812a4 4 0 0 0 0 .663c0 .146.137.39.228.394.384.03.915.137 1.128-.065a1.6 1.6 0 0 0 .435-1.2 4.5 4.5 0 0 0-.633-1.385.33.33 0 0 0-.283-.101 1.013 1.013 0 0 0-.941 1.158c.015.116.036.228.066.536M64.082 9.502a1.6 1.6 0 0 0 1.857-1.011.9.9 0 0 1 .298-.415 1.2 1.2 0 0 1 .764-.228.98.98 0 0 1 .551.582q.109.5.096 1.012c.026.344.05.693.086 1.037a.96.96 0 0 0 .547.824q.396.173.768.395a.683.683 0 0 1 0 1.052c-.283.187-.622.288-.92.455-.435.238-.759.506-.546 1.108.05.163.064.336.04.506a.764.764 0 0 1-1.204.475c-.253-.228-.42-.546-.652-.8a.896.896 0 0 0-1.24-.196 9 9 0 0 1-1.042.597.72.72 0 0 1-.607-.188.86.86 0 0 1-.237-.602c.04-.226.132-.44.268-.627a2.29 2.29 0 0 0-.091-2.61 2.6 2.6 0 0 1-.243-.455.673.673 0 0 1 .506-.916 9 9 0 0 1 1.001.005M65.6 12.66a3.5 3.5 0 0 0 .506 0 .576.576 0 0 0 .435-.78 3.4 3.4 0 0 0-.39-.768.63.63 0 0 0-.445-.192.75.75 0 0 0-.865.647c-.045.708.157 1.002.769 1.072zM173.564 11.155 163.393 16.6a.64.64 0 0 1-.34.076.675.675 0 0 1-.663-.521.67.67 0 0 1 .369-.76l10.17-5.444a.675.675 0 0 1 .641 1.185zM165.321 28.541a.675.675 0 0 1 .695-.64l11.528.378a.67.67 0 0 1 .641.691.68.68 0 0 1-.695.64l-11.529-.377a.67.67 0 0 1-.64-.692M162.617 40.339l9.796 6.084a.674.674 0 0 1-.378 1.246.67.67 0 0 1-.32-.102l-9.796-6.085a.67.67 0 0 1-.325-.684.66.66 0 0 1 .275-.445.67.67 0 0 1 .758-.014zM156.325 14.361A28.22 28.22 0 0 0 137.827.664a28.222 28.222 0 0 0-27.078 46.423l-7.321 14.859 15.663-8.51a28.227 28.227 0 0 0 37.234-39.068z"/>
  <path fill="#000" d="M103.428 62.705a.75.75 0 0 0 .362-.093l15.32-8.326a28.97 28.97 0 0 0 26.826-.833.77.77 0 0 0 .396-.458.763.763 0 0 0-1.142-.868 27.46 27.46 0 0 1-25.76.64.76.76 0 0 0-.701 0l-13.562 7.366 6.264-12.713a.76.76 0 0 0-.116-.846 27.49 27.49 0 0 1-6.574-23.48c.096-.5.205-.999.32-1.486a.762.762 0 0 0-1.48-.365 32 32 0 0 0-.339 1.566 29 29 0 0 0 3.202 19.596 29.4 29.4 0 0 0 3.379 4.803l-7.1 14.411a.76.76 0 0 0 .157.884.75.75 0 0 0 .548.202"/>
  <path fill="#fff" d="M129.597 45.566h-.029a2.4 2.4 0 0 1-1.956-1.054l-11.071-16.304a2.41 2.41 0 0 1-.02-2.669 2.395 2.395 0 0 1 2.458-1.04 2.4 2.4 0 0 1 1.536 1.01l9.13 13.45 17.043-23.896a2.41 2.41 0 0 1 2.508-.978 2.4 2.4 0 0 1 1.51 1.078 2.4 2.4 0 0 1 .293 1.832c-.076.31-.212.6-.401.857l-19.044 26.705a2.4 2.4 0 0 1-1.957 1.008"/>
</svg>
