<svg xmlns="http://www.w3.org/2000/svg" width="192" height="153" fill="none" viewBox="0 0 192 153">
  <path fill="#fff" d="m77.348 9.16 8.231-2.94 15.875 12.347 7.644 9.408 24.106 12.347 18.815 9.996 4.704 9.995v1.764l3.528 1.764 6.467 3.527 7.644 4.704 5.879 4.704 5.292 4.704 4.116 7.643 1.176 4.704-.588 6.467-1.764 5.292-3.528 3.528-5.292 2.94-7.055 1.764h-2.94l.588 4.115.588 2.352 1.764 6.468 2.94 12.935.588 2.352h-4.704l-10.583.588-11.76.588-8.819.588-10.584.588-8.231.588-4.704.588-7.643.588-5.292.587h-2.352l-7.16-50.763v9.771l-.445 3.997-1.332 5.329-3.997 7.106-3.997 6.218-7.55 6.662-7.55 4.441-11.104 3.553-11.103.888-13.324-2.22-8.882-3.553-3.997-2.221-7.55-5.773-6.662-8.439-4.125-8.438-1.648-7.55v-8.883l1.648-7.745 2.94-5.88 2.352-3.527 5.292-7.644 4.115-3.528 5.292-4.115 5.88-3.528 5.291-1.764 8.232-1.176h7.643l7.644 1.176 5.292 1.176 4.703 2.94 2.94 1.764 1.764-8.82-5.88-15.875L65 30.915l2.94-12.348 5.88-5.291z"/>
  <path fill="#000" d="m109.394 146.611-8.883.888-56.403 5.329-.888-8.882h11.547l10.659-2.665 14.656-7.994 8.438-9.771 4.885-11.103 1.333-7.55-.444-7.55-1.777-6.425-2.22-4.678 4.44-1.776 1.333 1.776 2.445.562 2.94 1.176 5.292 1.764h7.643000000000001l1.176 1.175 1.176 2.352 2.352 2.94 2.94 1.764.588 1.764v2.352l1.176 28.81.588 9.995v4.116h-1.176l-4.49.742zM168.209 74.253a1.7 1.7 0 0 0-.533-.113h-.488l-.278.04-.193.04c-.124 0-.255.062-.38.101-.556.18-1.079.45-1.548.798-.501.376-.94.826-1.304 1.336a3.2 3.2 0 0 0-.606 1.743.638.638 0 0 0 .876.575.64.64 0 0 0 .309-.258c.209-.374.425-.753.669-1.132l.073-.108.063-.084.051-.063.108-.124q.224-.242.476-.453l.074-.056.051-.04c.085-.062.175-.119.272-.181q.275-.163.567-.294h.028l.153-.057q.153-.06.312-.102l.284-.074q.114-.025.221-.073c.249-.057.493-.096.743-.176a.647.647 0 0 0 .343-1.014.65.65 0 0 0-.343-.23M176.969 142.795l-1.78.073c-.057-.334-.119-.668-.176-1.002l-.119-.611a204 204 0 0 0-2.835-12.977 247 247 0 0 0-1.803-6.854q-.46-1.647-.947-3.277c-.284-.956-.879-2.263-.397-3.22a.63.63 0 0 1 .856-.22c.52.365.88.916 1.003 1.539q.331.932.619 1.873c.374 1.257.748 2.519 1.105 3.781a169 169 0 0 1 3.221 13.667c.369 1.862.692 3.741.987 5.615.079.464.142.916.215 1.375.023.079.034.141.051.238M158.116 60.823a1.4 1.4 0 0 1-.272.459 1.09 1.09 0 0 1-1.134.34 1.14 1.14 0 0 1-.701-.536 1.13 1.13 0 0 1-.104-.874 10.2 10.2 0 0 0 .686-3.526c.034-5.343-3.538-9.836-7.706-12.785-4.638-3.288-10.031-5.246-14.941-8.07a31.4 31.4 0 0 1-6.737-5.037 34.2 34.2 0 0 1-4.717-6.333c-2.682-4.477-4.78-9.406-8.33-13.288a24.96 24.96 0 0 0-13.501-7.454 28.8 28.8 0 0 0-15.763 1.37 34.2 34.2 0 0 0-13.41 9.089c-3.447 3.803-6.163 8.647-6.702 13.82-.64 6.135 1.831 11.925 3.203 17.788 1.18 5.093 1.588 10.843-1.23 15.45-.074.125-.153.244-.232.374a.789.789 0 0 1-1.356-.792l.13-.244a13.2 13.2 0 0 0 1.305-3.537c1.276-5.807-.805-11.63-2.387-17.143a38.9 38.9 0 0 1-1.752-9.372 22.5 22.5 0 0 1 1.321-8.166c1.865-5.207 5.41-9.735 9.64-13.22a36.06 36.06 0 0 1 15.31-7.522 29.9 29.9 0 0 1 16.562 1.132 27.2 27.2 0 0 1 12.82 9.841c3.142 4.41 5.2 9.486 8.392 13.86a24.4 24.4 0 0 0 5.801 5.66 59.6 59.6 0 0 0 7.768 4.352c5.149 2.519 10.598 5.014 14.436 9.412 3.522 3.973 5.574 9.796 3.601 14.952"/>
  <path fill="#000" d="M156.591 56.675a10.2 10.2 0 0 1-.686 3.525l-3.227-1.81a1.044 1.044 0 0 0-1.343.22 4.7 4.7 0 0 0-.295-.668c-1.951-3.684-7.088-3.854-10.626-3.022a36 36 0 0 0-6.039 2.173c-.93.408-1.86.81-2.784 1.223-.601-1.24-2.178-1.845-3.431-2.202a10.36 10.36 0 0 0-4.309-.232c-1.326.197-2.603.64-3.765 1.308-1.701-1.67-4.463-1.132-6.362-.034a11 11 0 0 0-1.418.973.4.4 0 0 0-.113 0 13.6 13.6 0 0 0-4.412.855 6.4 6.4 0 0 1-.221.956 1.018 1.018 0 0 1-1.916.062 1 1 0 0 1-.051-.328c0-.996.227-2.032.317-3.028.091-.996.159-2.037.199-3.056a55 55 0 0 0-.12-5.976 64 64 0 0 0-.759-5.903 53 53 0 0 0-.607-3 13.6 13.6 0 0 1-.42-2.218 5 5 0 0 1 0-.73c.04-.447.636-.832.987-.408q.336.406.567.878a.926.926 0 0 0-.295-1.064c-.232-.17-.408-.42-.641-.6-.232-.181-.465-.329-.708-.487-.488-.3-.981-.566-1.463-.9-.76-.487-1.514-.979-2.268-1.5a8.9 8.9 0 0 0-1.072-4.844c-1.746-3.158-5.432-4.664-8.92-4.335a51.3 51.3 0 0 1-4.598-6.384 54 54 0 0 1-1.888-3.362c-.607-1.171-1.072-2.405-1.94-3.396a.784.784 0 0 0-1.07 0 .76.76 0 0 0-.716-.164 1.7 1.7 0 0 0-1.23.566c-.34.266-.657.566-.975.855a26 26 0 0 0-1.82 1.856 26.2 26.2 0 0 0-3.096 4.25 28.3 28.3 0 0 0-2.178 4.771 19 19 0 0 0-.674 2.394 7.4 7.4 0 0 0-.216 1.738 5.5 5.5 0 0 0-1.1.566c-.952.645-1.332 1.662-1.536 2.957 1.48-1.47.46 1.692 0 .588-1.491 2.57-.947 5.222.635 7.644 1.179 1.82 2.578 3.49 4.657 4.116.114.75.255 2.257.588 2.94.402 1.031 1.26 1.954 1.764 2.94 1.004 1.993 1.976 3.096 3.528 4.703 1.51 1.6 4.45 3.046 6.467 3.931s2.501.742 4.704.773c2.262.032 4.516-.621 6.467-1.764.324.464 1.61 1.922 1.94 2.352.515.668 1.072 1.102 1.588 1.764.987 1.273 1.902 2.3 2.94 3.527-1.283.386-3 2.2-4.116 2.94-1.64 1.02-2.891 2.036-4.115 3.528-1.214 1.466-2.17 2.175-2.352 4.116-.062.547.09 1.256.305 1.764.214.507.435 1.426.87 1.764l-2.94 1.764c-.77.396-2.773.762-3.527 1.175-5.269-7.681-12.74-14.236-21.167-18.226 2.835-4.607 2.356-10.217 1.177-15.287-1.373-5.864-2.994-12.68-2.353-18.815.539-5.173 3.608-10.308 7.056-14.112 3.675-4.059 8.387-6.906 13.523-8.82 5.023-1.917 10.388-1.793 15.667-.77a24.96 24.96 0 0 1 13.501 7.453c3.55 3.883 5.671 8.812 8.33 13.289 1.322 2.286 3.611 3.977 5.423 5.9 2.008 1.973 3.999 2.873 6.462 4.242 4.91 2.83 10.654 5.404 15.293 8.692 4.167 2.966 6.957 8.065 6.923 13.414"/>
  <path fill="#000" d="M105.763 36.216a.66.66 0 0 1-.924.436 4.4 4.4 0 0 0-.636-.176 2 2 0 0 1-.368-.113 8 8 0 0 1-1.021-.492 33 33 0 0 1-1.656-.99c-.408-.261-.816-.521-1.219-.804q-1.015-.69-1.995-1.438l-.13-.09a54.6 54.6 0 0 1-8.143-7.567c-.567-.634-1.134-1.28-1.628-1.941-.159-.193-.312-.39-.465-.566a54 54 0 0 1-4.06-5.994 74 74 0 0 1-1.655-3.118 14 14 0 0 1-1.01-2.422 5.6 5.6 0 0 1-.192-1.036.64.64 0 0 1 .255-.566.783.783 0 0 1 1.071 0c.868 1.013 1.333 2.264 1.94 3.396.606 1.132 1.219 2.264 1.888 3.361a51.4 51.4 0 0 0 4.599 6.384q1.004 1.205 2.103 2.36.93.985 1.917 1.93a49 49 0 0 0 3.578 3.113q.85.672 1.7 1.302.334.246.675.475c.738.52 1.492 1.013 2.268 1.5.482.311.976.6 1.463.9.244.158.482.317.709.486.227.17.408.43.641.6a.93.93 0 0 1 .295 1.07M33.218 105.126c0 .045-.04.215-.046.226a2.5 2.5 0 0 0 .29 1.358q.183.346.453.629c.271.287.597.518.958.679h.08l.164.062q.148.05.3.079h.477c.33-.018.654.089.907.3a.67.67 0 0 1 .182.691 1.19 1.19 0 0 1-1.299.696 1 1 0 0 1-.232 0 4.5 4.5 0 0 1-2.388-1.036c-.107-.079-.204-.175-.306-.266a4.3 4.3 0 0 1-1.219-2.298 3.74 3.74 0 0 1 .391-2.507q.129-.243.295-.464a4.45 4.45 0 0 1 2.178-1.624l.124-.046a3.73 3.73 0 0 1 2.33.108q.187.06.364.141c.623.266.164 1.217-.443 1.053a2 2 0 0 0-.238-.051 2 2 0 0 0-.437-.034 3 3 0 0 0-.567.136 3.5 3.5 0 0 0-1.162.504q-.244.14-.436.345l-.051.045q-.195.177-.33.402a2 2 0 0 0-.175.289q-.029.064-.062.124v.057c-.068.187-.102.294-.102.402"/>
  <path fill="#000" d="M67.114 122.952a12.2 12.2 0 0 1-4.025-4.159c-1.99-3.288-2.836-7.426-3.346-11.07-.284-1.981-.527-4.052-.936-6.084-.64-3.192-1.7-6.276-3.94-8.716a8 8 0 0 0-.567-.566 12 12 0 0 0-1.055-.866 9.7 9.7 0 0 0-1.667-.945 9 9 0 0 0-2.835-.741l-.5-.04a13 13 0 0 0-1.7.046 12.15 12.15 0 0 0-4.65 1.443c-3.935 2.167-6.362 6.225-7.524 10.492-.114.397-.21.798-.3 1.2-.092.402-.137.668-.2 1.002-.128.117-.24.252-.328.402a2 2 0 0 0-.176.288q-.029.065-.062.125v.056c-.04.108-.068.216-.097.323s-.04.215-.045.226c-.034.471.067.942.29 1.359-.114.73-.24 1.46-.398 2.179a16 16 0 0 1-.737 2.445 11.3 11.3 0 0 1-1.865 3.208 4.96 4.96 0 0 1-2.835 1.761.53.53 0 0 1-.512-.161.52.52 0 0 1-.107-.524.4.4 0 0 1 .114-.17c.63-.634 1.264-1.239 1.826-1.919q.452-.547.805-1.165l.187-.34a14.2 14.2 0 0 0 1.236-3.616q.22-1.035.38-2.077c.136-.838.255-1.698.391-2.508.22-1.651.6-3.277 1.134-4.855 1.701-4.817 5.28-9.056 10.235-10.708a12.46 12.46 0 0 1 12.905 2.886q.3.291.567.611c.08.08.148.165.216.244a18 18 0 0 1 2.63 4.488c.205.503.392 1.018.568 1.533 1.02 3.079 1.485 6.39 1.973 9.588.096.673.204 1.341.329 2.014 0 .08.028.17.045.255.074.396.154.792.25 1.189.05.249.102.492.164.741a22.5 22.5 0 0 0 1.134 3.56 14.84 14.84 0 0 0 4.406 5.857.92.92 0 0 1 .323.487 1.16 1.16 0 0 1-1.7 1.222"/>
  <path fill="#000" d="M58.802 101.634c.029 1.103-.091 2.205-.358 3.277-.833 3.305-3.629 6.304-7.144 6.395q.069 1.367.147 2.733c.051 1.042.176 2.111.182 3.164v.566a1 1 0 0 1-.029.192q-.061.2-.187.368a1.17 1.17 0 0 1-.657.374.81.81 0 0 1-.685-.089.8.8 0 0 1-.365-.585 38 38 0 0 1-.215-3.871c-.045-1.296-.09-2.586-.164-3.882a.96.96 0 0 1 .597-.896 1 1 0 0 1 .372-.072 5.57 5.57 0 0 0 5.001-2.343c1.253-1.698 1.582-3.962 1.469-6.01v-.08a12 12 0 0 0-.164-1.397 14.9 14.9 0 0 0-2.875-6.554 3 3 0 0 0-.199-.26 11 11 0 0 0-.743-.821 13 13 0 0 1-1.207-1.33 1.2 1.2 0 0 1-.142-.192c-.306-.442.21-1.178.737-.957 1.82.753 3.272 2.785 4.27 4.409a15.95 15.95 0 0 1 2.358 7.861M33.784 134.69a1.016 1.016 0 0 0-1.412 0 15.6 15.6 0 0 0-2.007 2.779q-.435.766-.771 1.579c-.238.566-.618 1.375-.25 1.958a.8.8 0 0 0 .891.362c.63-.198.856-.888 1.134-1.426s.482-.945.743-1.404c.26-.458.533-.877.827-1.301l.443-.6.25-.34q.068-.094.147-.181a1.023 1.023 0 0 0 .005-1.426M48.289 89.641c0 .034-.029.068-.046.108-.159.44-.334.882-.51 1.318-.221.566-.454 1.132-.68 1.698s-.483 1.2-.698 1.817a49 49 0 0 0-1.53 5.093 47.2 47.2 0 0 0-1.362 10.51 48 48 0 0 0 .731 9.349c.154.861.34 1.755.466 2.649a18 18 0 0 1 .175 1.556 6.73 6.73 0 0 1-1.298 4.783c-1.764 2.195-4.831 2.377-6.697.198-1.933-2.264-1.468-5.32-1.996-8.037a6.7 6.7 0 0 0-1.27-3.113 3.4 3.4 0 0 0-3.447-1.092 9.7 9.7 0 0 0-3.663 1.998 29.5 29.5 0 0 0-3.164 2.96q-.479.51-.93 1.047a28 28 0 0 0-1.701 2.207 30.6 30.6 0 0 0-3.675 7.029 29 29 0 0 0-.856 2.762 36 36 0 0 1-1.877-1.556c.272-.934.567-1.857.953-2.757a32.1 32.1 0 0 1 5.704-9.366 27 27 0 0 1 1.758-1.839 19.8 19.8 0 0 1 4.304-3.311 9 9 0 0 1 3.084-1.03c.13 0 .256-.034.386-.04 2.642-.204 4.74 1.313 5.716 3.781.441 1.221.712 2.497.805 3.792.142 1.414.119 2.914.691 4.25.448 1.047 1.458 2.173 2.716 2.003 1.135-.147 1.968-1.171 2.348-2.156.595-1.573.221-3.396-.08-4.969-.3-1.573-.566-3.13-.72-4.714a49 49 0 0 1-.079-9.389c.27-3.166.829-6.301 1.667-9.367.363-1.302.754-2.631 1.23-3.933q.342-.95.743-1.873.483-1.115 1.078-2.174c.136-.243.278-.475.42-.707.407-.708 1.593-.272 1.303.515"/>
  <path fill="#000" d="M79.419 135.183c-.607.476-1.23.929-1.866 1.37a5 5 0 0 1-.442-.968 25 25 0 0 0-.567-1.386l-.142-.311a27 27 0 0 0-1.775-3.181 25.7 25.7 0 0 0-9.871-8.863 27.1 27.1 0 0 0-6.805-2.309 27 27 0 0 0-3.555-.475 29 29 0 0 0-1.576-.051h-1.14a1.8 1.8 0 0 1-.38-.097c-.164-.05-.323-.113-.493-.158h-.051a.625.625 0 0 1-.345-.88.6.6 0 0 1 .248-.252q.461-.265.976-.402h.045a9 9 0 0 1 1.168-.107 20 20 0 0 1 2.11 0c2.784.124 5.53.697 8.13 1.698a27 27 0 0 1 5.67 2.92 27.7 27.7 0 0 1 3.613 2.881 28.3 28.3 0 0 1 4.508 5.523 28 28 0 0 1 1.474 2.7c.068.136.136.283.198.419q.507.931.868 1.929M56.142 98.097c-1.032-.872-2.268-1.845-2.642-3.209-.244-.877-.046-2.145.93-2.632a.612.612 0 1 0-.471-1.132c-1.667.504-2.302 2.264-2.064 3.866.278 1.81 1.78 3.118 3.113 4.222a.823.823 0 0 0 1.134 0 .803.803 0 0 0 0-1.115M49.48 95.805a.6.6 0 0 0-.097-.306 2 2 0 0 0-.21-.26l-.09-.096-.187-.187a1 1 0 0 0-.397-.232h-.244a.9.9 0 0 0-.454.119.7.7 0 0 0-.25.232.66.66 0 0 0-.158.305.64.64 0 0 0 0 .357c.004.118.04.233.102.334.081.131.192.242.323.323l.216.141.107.068.114.062.204.085a.65.65 0 0 0 .329 0q.113 0 .21-.057a.66.66 0 0 0 .272-.175l.13-.17.085-.198a.6.6 0 0 0-.005-.345M56.363 99.562c-.079.04-.147.085-.226.13a1.27 1.27 0 0 0-.567.26l-.148.114-.045.034c.045-.034.051-.034 0 0l-.21.147q-.206.126-.425.227l-.062.028-.244.079a6 6 0 0 1-.437.119l-.25.051h-.073c-.13 0-.261.034-.386.062h-.493a.61.61 0 0 0-.703.345.566.566 0 0 0 .244.747q.58.262 1.207.363a3.4 3.4 0 0 0 1.322-.108c.398-.111.78-.275 1.134-.487q.308-.181.567-.43.117-.114.215-.243a.82.82 0 0 0 .176-.509q.072-.173.108-.357a.476.476 0 0 0-.704-.572M39.397 98.555c-.238 1.308-.691 2.581-1.026 3.866a37 37 0 0 0-.754 3.803 33 33 0 0 0-.306 3.882c-.034 1.296.119 2.604-.148 3.871a.497.497 0 0 1-.901.125c-.567-1.251-.567-2.637-.601-3.996v-.147c0-.566 0-1.132.05-1.698a31 31 0 0 1 .227-2.263q.202-1.538.567-3.045c.097-.368.193-.73.301-1.098v-.045c.327-1.301.863-2.54 1.588-3.668a.568.568 0 0 1 1.003.413M48.26 91.067a2.7 2.7 0 0 0-.527 0c-.62.044-1.22.238-1.747.566a3.6 3.6 0 0 0-.51.362q-.193.171-.363.362-.216.24-.386.516c-.045.096-.085.209-.13.305a.62.62 0 0 0 0 .442.38.38 0 0 0 .333.333c.071.01.145 0 .211-.028.205-.057.39-.17.534-.328q.075-.075.158-.142l.085-.084h.029l.073-.057.074-.045q.097-.073.204-.13c.136-.08.278-.153.42-.227h.068q.111-.043.227-.073h.034c.136-.04.266-.085.408-.114h.31699999999999995q.241-.012.483 0a.766.766 0 0 0 .765-.77.785.785 0 0 0-.76-.888M56.732 91.763a.57.57 0 0 1-.567-.61q.3.29.567.61M58.535 90.586h-.045a6.6 6.6 0 0 1-.476-1.087c-.108-.306.3-.645.567-.436q.378.286.714.623a.78.78 0 0 1-.76.9M79.827 94.191a5 5 0 0 1-.567.243c-1.066.391-1.52-1.307-.465-1.697q.227-.086.442-.198a.8.8 0 0 1 .567.566c.07.358.078.725.023 1.086"/>
  <path fill="#000" d="M79.827 94.19a10 10 0 0 1-.25 1.212 13.5 13.5 0 0 1-.68 1.986 11.9 11.9 0 0 1-2.15 3.323c-.045.056-.096.101-.147.158a1 1 0 0 1-1.395 0 .92.92 0 0 1-.266-.538.94.94 0 0 1 .107-.6.7.7 0 0 1 .153-.226l.21-.238a12 12 0 0 0 1.752-2.767q.358-.825.567-1.698.163-.959.483-1.879a.764.764 0 0 1 .992-.362.8.8 0 0 1 .567.566c.079.349.098.709.057 1.064"/>
  <path fill="#000" d="M95.284 109.014c-.114.69-.25 1.381-.403 2.065a21 21 0 0 0-1.344-.916q-.46-.28-.935-.566a21.3 21.3 0 0 0-4.123-1.777 21.7 21.7 0 0 0-5.177-.957h-1.967a31.5 31.5 0 0 0-3.97.453 1.024 1.024 0 0 1-1.218-.691c-.267-1.205-.539-2.399-.806-3.599a9.2 9.2 0 0 1-.42-2.694q.015-.31.109-.605a2 2 0 0 1 .045-.153.5.5 0 0 1 .329-.329.47.47 0 0 1 .493.114c.38.386.663.854.828 1.369.204.566.317 1.206.465 1.806q.314 1.314.635 2.637a18 18 0 0 1 4.48-.408q.76.007 1.52.091a24.4 24.4 0 0 1 5.17 1.07c1.352.435 2.661.99 3.913 1.658.567.3 1.134.628 1.673.985.255.13.476.288.703.447M68.231 101.752a13 13 0 0 1-1.91-.73 9.4 9.4 0 0 1-1.753-1.183 10 10 0 0 1-2.551-3.395.85.85 0 0 0-1.134-.3c-.704.413-1.509.243-2.269.566a.44.44 0 0 0-.158.6c.498.803 1.48.826 2.353.605a9.9 9.9 0 0 0 2.472 3.305 9.4 9.4 0 0 0 4.468 2.264.91.91 0 0 0 1.008-.653.905.905 0 0 0-.526-1.079"/>
  <path fill="#000" d="M69.898 104.779c-.124-.877-.3-1.969-1.071-2.512a.644.644 0 0 0-.941.379c-.221.741.141 1.624.226 2.371q.106.898.04 1.8a11.38 11.38 0 0 0-6.237 3.396 3.8 3.8 0 0 0-1.134 1.743.78.78 0 0 0 .453.843 1.08 1.08 0 0 0 1.078-.385 18.4 18.4 0 0 1 2.835-2.456 10.8 10.8 0 0 1 4.1-1.409c.436-.063.651-.532.691-.911.107-.951.094-1.911-.04-2.859"/>
  <path fill="#000" d="M83.853 105.38a14 14 0 0 1-.567 1.5 16 16 0 0 1-2.484 3.916c-2.336 2.717-5.8 4.59-9.446 4.528-3.544-.046-7.048-1.642-8.925-4.715-.42-.684.618-1.516 1.134-.871a10.117 10.117 0 0 0 10.331 3.339c3.311-.883 5.829-3.311 7.428-6.225q.508-.939.885-1.936a.8.8 0 0 1 .107-.181q.762.007 1.52.09a.77.77 0 0 1 .017.555M74.258 90.988c-.84-1.415-2.886-.515-4.049-.096-.839.306-1.672.65-2.489 1.019-.385.175-.765.356-1.134.566-.444.156-.83.444-1.106.826a.53.53 0 0 0 .448.787l.051.062a5.24 5.24 0 0 0 7.31.187c.85-.821 1.644-2.208.969-3.35m-1.701 2.168a3.8 3.8 0 0 1-2.53 1.177 3.9 3.9 0 0 1-2.545-.815q.113-.063.232-.113a37 37 0 0 1 1.701-.736c.567-.232 1.18-.436 1.775-.645a5.1 5.1 0 0 1 1.662-.47c.844.028-.057 1.341-.307 1.602zM58.535 90.586h-.045a6.6 6.6 0 0 1-.476-1.087c-.108-.306.3-.645.567-.436q.378.286.714.623a.78.78 0 0 1-.76.9M64.704 85.538a1 1 0 0 0-.04-.13c-.04-.096-.073-.187-.118-.272a1.4 1.4 0 0 0-.273-.345.62.62 0 0 0-.453-.187.67.67 0 0 0-.454.187 1 1 0 0 0-.136.17l-.028.034a1 1 0 0 0-.069.17 1 1 0 0 0 0 .141.6.6 0 0 0-.045.108.6.6 0 0 0 0 .175v.062q.01.21.08.408.042.135.119.255.077.113.17.215.148.156.34.254a.6.6 0 0 0 .312.085.5.5 0 0 0 .244-.056.45.45 0 0 0 .198-.13.57.57 0 0 0 .159-.272 1.5 1.5 0 0 0-.006-.872M72.63 83.79a1.3 1.3 0 0 0-.05-.216 2.3 2.3 0 0 0-.147-.34.8.8 0 0 0-.114-.186l-.108-.142a.5.5 0 0 0-.215-.136.3.3 0 0 0-.17-.045.5.5 0 0 0-.272 0l-.165.068-.136.102a.5.5 0 0 0-.136.22.5.5 0 0 0-.062.261l.05.464a.64.64 0 0 0 .097.35q.05.075.108.142l.068.057q.137.181.329.306a.64.64 0 0 0 .64 0 .66.66 0 0 0 .318-.566 2 2 0 0 0-.034-.34"/>
  <path fill="#000" d="M72.194 79.493a2.4 2.4 0 0 0-1.287-.142 3.3 3.3 0 0 0-1.134.566 3.6 3.6 0 0 0-1.395 2.264 5.9 5.9 0 0 0 .181 2.773q.234.717.567 1.393c.204.441.488.854.664 1.301.323.82 1.53.244 1.083-.453a8.8 8.8 0 0 1-.942-2.127 5.1 5.1 0 0 1-.26-2.185c.077-.64.364-1.237.816-1.698.198-.2.436-.359.698-.464.289-.143.599-.238.918-.283a.48.48 0 0 0 .448-.434.48.48 0 0 0-.357-.511M66.036 82.351a3.68 3.68 0 0 0-3.062-.566c-.489.141-.942.387-1.327.72-.346.282-.856.769-.8 1.261q.005.077 0 .153c-.05.334.33.628.602.35l.113-.101c.174-.08.324-.203.437-.357q.19-.23.425-.413c.27-.204.573-.36.896-.464a2.84 2.84 0 0 1 2.268.22c.516.278.919-.446.448-.803M29.815 89.262c0 1.013-1.701 1.33-2.12.187v-.068c-.846-2.31-1.843-4.788-3.805-6.39a7.67 7.67 0 0 0-5.602-1.534q-.801.06-1.588.227a17.8 17.8 0 0 0-5.67 2.326 19.3 19.3 0 0 0-4.77 4.33 24 24 0 0 0-1.762 2.557c-.233.402-.483.804-.726 1.212-.33.566-.647 1.098-.919 1.697-.176.374-.85.204-.8-.215a13 13 0 0 1 1.021-3.961 16 16 0 0 1 2.268-3.571q.617-.76 1.31-1.45c3.158-3.123 7.553-5.24 11.97-5.37a9.75 9.75 0 0 1 7.48 2.83c1.808 1.901 2.8 4.391 3.668 6.825q.055.18.045.368"/>
  <path fill="#000" d="M32.503 91.57a5.9 5.9 0 0 0-1.752-1.697 13 13 0 0 0-2.143-1.257.745.745 0 0 0-.783.266.76.76 0 0 0-.056.82 4.53 4.53 0 0 0 1.644 1.484c.52.296.986.679 1.378 1.131l.045.063q.069.1.13.209l.097.17q.03.057.05.119c.078.178.11.372.097.566a3.4 3.4 0 0 1-.828 1.562.814.814 0 0 0 0 1.132.806.806 0 0 0 1.134 0 5.6 5.6 0 0 0 1.35-2.123 3.04 3.04 0 0 0-.363-2.445"/>
  <path fill="#000" d="M32.145 98.555a7.5 7.5 0 0 0-.39-2.173c-.205-.594-.936-1.698-1.656-.99-.5.492-.193 1.216-.046 1.8.124.526.187 1.065.187 1.607a6.4 6.4 0 0 1-.777 3.22 6.6 6.6 0 0 1-2.217 2.289 6.64 6.64 0 0 1-3.033.988.905.905 0 0 0-.834.639.64.64 0 0 0 0 .459.89.89 0 0 0 .834.633 8.24 8.24 0 0 0 5.729-2.605 8.2 8.2 0 0 0 2.21-5.884z"/>
  <path fill="#000" d="M31.04 112.703c-.334-.668-1.429-.758-2.092-.849a12 12 0 0 0-2.234-.13c-.83.047-1.65.195-2.444.442q.231-.942.42-1.891c.124-.634.226-1.307.306-1.969.1-.64.148-1.288.142-1.936-.057-.939-1.464-1.222-1.702-.232-.147.606-.187 1.234-.289 1.845s-.198 1.24-.312 1.856a39 39 0 0 1-.844 3.662.937.937 0 0 0 .838 1.156.94.94 0 0 0 .522-.109 8.78 8.78 0 0 1 5.29-1.132c.698.102 1.486.527 2.155.187a.7.7 0 0 0 .244-.9"/>
  <path fill="#000" d="M22.37 122.449a28 28 0 0 0-1.701 2.208.916.916 0 0 1-.431-1.195 8.6 8.6 0 0 0 .68-2.693 15 15 0 0 0-.947-6.118c-.895-2.626-2.268-5.094-2.96-7.782-.725-2.83-.187-5.66.046-8.49.24-2.942.32-5.894.238-8.845a60 60 0 0 0-.272-4.352c-.108-1.132-.284-2.326-.335-3.492v-.957a.655.655 0 0 1 .569-.635.66.66 0 0 1 .719.46q.185.443.311.905c.372 1.39.619 2.811.738 4.245.187 1.664.317 3.34.357 5.014.06 3.043-.14 6.086-.596 9.095a25.5 25.5 0 0 0-.459 4.528 12.6 12.6 0 0 0 1.004 4.097c1.304 3.396 3.09 6.933 3.357 10.527a10.9 10.9 0 0 1-.318 3.48M13.752 102.676a.567.567 0 0 1-.006.773.57.57 0 0 1-.238.149q-.212.093-.443.096c.052-.464.108-.928.16-1.392.204.078.386.206.527.374M14.505 96.229a.7.7 0 0 0-.334-.147c.074-.43.159-.855.238-1.29a.5.5 0 0 1 .034-.17c.42.18.77.492.998.888.357.6-.477 1.16-.936.719"/>
  <path fill="#000" d="M13.508 103.598q-.212.093-.443.096c.052-.464.108-.928.16-1.392.204.078.386.206.527.374a.567.567 0 0 1-.006.773.57.57 0 0 1-.238.149M14.505 96.229a.7.7 0 0 0-.334-.147c.074-.43.159-.855.238-1.29a.5.5 0 0 1 .034-.17c.42.18.77.492.998.888.357.6-.477 1.16-.936.719M25.058 90.065a2 2 0 0 0-.119-.3 1 1 0 0 0-.056-.113 3 3 0 0 0-.261-.356 2 2 0 0 0-.193-.181l-.164-.125-.193-.085h-.215a.65.65 0 0 0-.312.074.36.36 0 0 0-.182.102.4.4 0 0 0-.147.147.37.37 0 0 0-.102.175.67.67 0 0 0-.074.317c.012.255.08.504.198.73a1 1 0 0 0 .102.147q.06.094.136.176l.12.153q.075.103.175.18l.16.125.192.085.215.028a.64.64 0 0 0 .306-.073.37.37 0 0 0 .176-.102.4.4 0 0 0 .148-.142q.069-.076.102-.175a.57.57 0 0 0 .068-.311 2.5 2.5 0 0 0-.08-.476M23.47 85.934a1.8 1.8 0 0 0-.8 0 2.5 2.5 0 0 0-.504.124 3.7 3.7 0 0 0-1.134.64c-.613.492-1.236 1.352-.992 2.173a.475.475 0 0 0 .794.21q.185-.208.334-.442l.04-.051c.034-.034.136-.187.204-.283l.068-.102.028-.034a1 1 0 0 1 .114-.13l.153-.153.09-.08.057-.044.102-.068.204-.125.176-.079c-.073 0-.04 0 0 0l.09-.04a3 3 0 0 1 .443-.118h.091q.193-.01.38-.063a.67.67 0 0 0 .482-.634.68.68 0 0 0-.42-.701M27.683 97.774l1.105-.04h.9359999999999999a.806.806 0 0 0 1.282-.65.82.82 0 0 0-.935-.79.8.8 0 0 0-.415.184h-.777l-1.032.04c-.63 0-1.44 0-1.775.656-.334.657.091 1.364.607 1.805.456.398.975.716 1.537.94q.438.171.901.249.509.105 1.027.068a.57.57 0 0 0 .567-.566.565.565 0 0 0-.567-.566h-.7829999999999999a4.4 4.4 0 0 1-.845-.238l-.107-.05-.21-.108a3 3 0 0 1-.352-.215 2.4 2.4 0 0 1-.567-.527c.057.074-.056-.101-.068-.124h.068zM30.24 93.845l-.039-.096a.27.27 0 0 0-.102-.108.2.2 0 0 0-.085-.05.24.24 0 0 0-.102 0h-.096a.3.3 0 0 0-.148.045.7.7 0 0 0-.164.113.4.4 0 0 1-.063.074 1 1 0 0 0-.181.243.4.4 0 0 0-.04.09c0 .057-.056.114-.08.17-.022.057-.028.12-.045.181a.27.27 0 0 0 .103.29.23.23 0 0 0 .13.056.3.3 0 0 0 .176-.034l.17-.08q.086-.048.164-.107a.7.7 0 0 0 .147-.13l.063-.08.062-.079a.26.26 0 0 0 .091-.136.3.3 0 0 0 0-.062v-.153zM65.924 142.41c-.568.204-1.135.385-1.702.566a11.6 11.6 0 0 1 0-1.772c0-.288 0-.566-.045-.871s-.068-.634-.119-.945a12.5 12.5 0 0 0-1.077-3.334 13 13 0 0 0-1.985-3.022 17 17 0 0 0-1.242-1.262c-.42-.391-1.037-.73-1.304-1.245a.568.568 0 0 1 .47-.821c.659.111 1.27.412 1.758.866.558.408 1.074.869 1.543 1.375.916.99 1.68 2.11 2.268 3.323a14.2 14.2 0 0 1 1.236 3.854c.034.215.068.424.096.639q.087.72.097 1.443a9 9 0 0 1 .005 1.206M52.332 117.797a.76.76 0 0 0-.919.521c-.283 1.522-.646 3.684-2.336 4.284a6 6 0 0 1-2.625.079 4.6 4.6 0 0 1-2.013-.645c-.34-.227-.731.147-.652.498a1.51 1.51 0 0 0 .862 1.132c.44.214.91.359 1.395.43a7.6 7.6 0 0 0 3.373 0c2.348-.713 3.05-3.226 3.436-5.365a.767.767 0 0 0-.521-.934M109.329 80.722a.64.64 0 0 0-.647-.22c-.136.033-.266.079-.402.124a1.5 1.5 0 0 1-.289.124c.034 0 .056 0 0 0l-.102.034q-.21.071-.426.12l-.215.039h-.975a1.4 1.4 0 0 0-.216 0h-.102a1.4 1.4 0 0 0-.3 0h-.034a1 1 0 0 1-.131 0 .42.42 0 0 0-.469.193.42.42 0 0 0 .061.503q.197.195.419.356.269.16.567.25c.366.122.749.18 1.135.175a2.75 2.75 0 0 0 2.211-1.002.61.61 0 0 0-.085-.696M114.505 89.658c-.283.164-.527.368-.793.566a2 2 0 0 1-.352.198l-.119.051a5.8 5.8 0 0 1-1.1.34 15 15 0 0 1-2.699.283 14.4 14.4 0 0 1-5.103-.81 37 37 0 0 1-4.083-1.975 8 8 0 0 0-2.16-.798 10 10 0 0 1-2.047-.39c-1.134-.453-2.268-2.196-1.208-3.294a.97.97 0 0 1 1.335-.138 1 1 0 0 1 .298.387c.108.311-.04.532-.04.81 0-.04.12.186.204.242.329.15.689.22 1.05.204.402.04.799.08 1.196.153a9.4 9.4 0 0 1 2.069.73c1.339.623 2.575 1.455 3.97 1.953 1.456.528 2.987.818 4.536.86q1.138.015 2.268-.136c.391-.045.783-.102 1.179-.136h.114c.283 0 .567.04.85.034h.239a.56.56 0 0 1 .538.22q.053.079.072.17a.455.455 0 0 1-.214.476"/>
  <path fill="#2563EB" d="m5.875 83.693-1.338.13c-.165.322-.318.645-.47.968a42 42 0 0 0-1.571 3.763l2.466-.136a38 38 0 0 1 1.701-3.843c.176-.345.358-.696.567-1.047-.476.063-.918.12-1.355.164m86.052 2.654c-.272-.566-.567-1.172-.857-1.749a55 55 0 0 0-1.23-2.264c-.425-.752-.8-1.341-1.225-1.992l-.033-.056c-.295-.453-.568-.895-.891-1.325a52.7 52.7 0 0 0-20.934-17.76c-.482-.231-.97-.446-1.458-.661a52 52 0 0 0-5.732-2.111 45.38 45.38 0 0 0-28.09.43c-.193.068-.386.13-.568.203-.51.187-1.02.385-1.52.566a46.4 46.4 0 0 0-11 6.362c-.311.237-.617.492-.924.747Q16.172 67.812 14.953 69a53.5 53.5 0 0 0-9.52 13.016 36 36 0 0 0-.89 1.743c-.165.323-.318.646-.47.968A42 42 0 0 0 2.5 88.492c-.21.566-.408 1.132-.567 1.698a38.2 38.2 0 0 0-1.837 14.714 40.8 40.8 0 0 0 4.308 15.355 40.9 40.9 0 0 0 9.868 12.541c.606.566 1.23 1.053 1.877 1.556a49 49 0 0 0 10.24 6.169 54.3 54.3 0 0 0 29.69 4.171 51.3 51.3 0 0 0 8.153-1.817 32 32 0 0 0 1.701-.566 48.3 48.3 0 0 0 11.63-5.857 41 41 0 0 0 1.866-1.37 43 43 0 0 0 4.337-3.837 42.2 42.2 0 0 0 11.125-20.266q.232-1.03.403-2.066c.269-1.623.43-3.263.482-4.907a39.4 39.4 0 0 0-3.85-17.663m1.003 21.217c-.085.685-.198 1.37-.328 2.049a39.08 39.08 0 0 1-14.227 23.204c-.601.481-1.214.945-1.837 1.381a45.3 45.3 0 0 1-12.35 6.123q-.707.23-1.423.436a51.45 51.45 0 0 1-28.64-.085 48.1 48.1 0 0 1-17.142-8.993 42 42 0 0 1-1.78-1.55 43 43 0 0 1-4.134-4.37 38.64 38.64 0 0 1-8.54-25.711 35.4 35.4 0 0 1 1.231-7.923c.176-.656.374-1.307.567-1.952s.397-1.132.618-1.732a38 38 0 0 1 1.701-3.843c.176-.345.358-.696.567-1.047.267-.515.567-1.03.851-1.54a51 51 0 0 1 5.37-7.572 48 48 0 0 1 5.54-5.506 47 47 0 0 1 2.96-2.264 40 40 0 0 1 2.715-1.749c.465-.277.93-.566 1.407-.804a42 42 0 0 1 3.067-1.488q1.149-.511 2.325-.945a41.73 41.73 0 0 1 20.68-2.19A49.9 49.9 0 0 1 77.53 71.508a50.5 50.5 0 0 1 8.846 10.187c.42.64.816 1.285 1.202 1.941a41.7 41.7 0 0 1 5.103 13.266c.65 3.518.735 7.117.25 10.662M5.875 83.693l-1.338.13c-.165.322-.318.645-.47.968a42 42 0 0 0-1.571 3.763l2.466-.136a38 38 0 0 1 1.701-3.843c.176-.345.358-.696.567-1.047-.476.063-.918.12-1.355.164m0 0-1.338.13c-.165.322-.318.645-.47.968a42 42 0 0 0-1.571 3.763l2.466-.136a38 38 0 0 1 1.701-3.843c.176-.345.358-.696.567-1.047-.476.063-.918.12-1.355.164"/>
  <path fill="#000" d="M63.083 118.788c-2.601-1-5.347-1.574-8.131-1.698a21 21 0 0 0-2.11 0 9 9 0 0 0-1.168.108h-.045c0-1.053-.13-2.122-.182-3.164a447 447 0 0 1-.147-2.733c3.516-.091 6.311-3.09 7.145-6.396.266-1.071.386-2.173.357-3.276.408 2.031.652 4.103.935 6.084.528 3.65 1.355 7.787 3.346 11.075M46.554 89.794a24 24 0 0 0-1.078 2.173q-.192.171-.363.363a3.5 3.5 0 0 0-.385.515c-.046.096-.086.209-.13.305a.62.62 0 0 0 0 .442.38.38 0 0 0 .135.249c-.476 1.301-.867 2.631-1.23 3.933a52.4 52.4 0 0 0-1.667 9.367 49 49 0 0 0 .08 9.389c.164 1.584.419 3.146.72 4.714.3 1.568.674 3.396.079 4.969-.38.985-1.242 2.009-2.348 2.156-1.259.17-2.268-.956-2.716-2.003-.567-1.336-.567-2.83-.692-4.251a14 14 0 0 0-.805-3.791c-.975-2.468-3.073-3.962-5.715-3.781a11.3 11.3 0 0 0 1.865-3.209q.466-1.193.737-2.445a4.5 4.5 0 0 0 2.387 1.036q.117.014.233 0v.147c0 1.358 0 2.745.601 3.996a.5.5 0 0 0 .491.228.5.5 0 0 0 .41-.353c.267-1.268.114-2.575.148-3.871q.039-1.95.306-3.882.278-1.922.754-3.803c.335-1.285.788-2.559 1.027-3.866a.566.566 0 0 0-.976-.407 12.4 12.4 0 0 0-1.587 3.667 3.73 3.73 0 0 0-2.33-.108l-.126.046c1.163-4.24 3.59-8.325 7.525-10.493a12.15 12.15 0 0 1 4.65-1.432M19.96 114.651c-.896-2.626-2.268-5.094-2.96-7.782-.726-2.83-.187-5.66.046-8.49.24-2.941.32-5.894.238-8.845a60 60 0 0 0-.272-4.352c-.108-1.132-.284-2.326-.335-3.492a17.8 17.8 0 0 0-5.67 2.326 19.3 19.3 0 0 0-4.769 4.33 23.5 23.5 0 0 0-1.763 2.558c-.233.401-.482.803-.726 1.21a35.4 35.4 0 0 0-1.23 7.924 38.65 38.65 0 0 0 8.539 25.711 42.5 42.5 0 0 0 4.134 4.369 32.1 32.1 0 0 1 5.704-9.366 15 15 0 0 0-.936-6.101m-5.477-18.422a.7.7 0 0 0-.335-.147 61 61 0 0 0-.3 1.732 174 174 0 0 0-.624 4.488c.205.077.386.206.527.373a.567.567 0 0 1-.243.923q-.212.092-.443.096c.051-.464.108-.928.16-1.392-.301-.13-.642-.204-.925-.306a4.2 4.2 0 0 1-1.197-.611 2.05 2.05 0 0 1-.81-2.055c.249-.969.857-1.808 1.7-2.348.413-.358.89-.635 1.407-.815.243-.078.5-.106.754-.085.073-.43.159-.855.238-1.29q0-.075.034-.17c.42.18.77.492.998.888.374.6-.46 1.16-.918.72zM83.07 89.567a5.72 5.72 0 0 1-3.244 4.624 3.2 3.2 0 0 0-.029-1.087.8.8 0 0 0-.567-.566 3.93 3.93 0 0 0 2.093-3.395 3.73 3.73 0 0 0-.692-2.134 4 4 0 0 0-.76-.81c-.221-.169-.504-.282-.742-.452-.046.255-.08.51-.12.764-.125.866-1.259.6-1.514 0-.567-1.307-1.094-2.609-1.65-3.905a21 21 0 0 0-1.547-3.47c-.619-.927-1.702-.837-2.677-.65-1.134.232-2.302.504-3.453.764l-3.51.81a13.5 13.5 0 0 0-2.988.837c-1.86.945-1.361 3.65-1.186 5.337a36 36 0 0 0 1.401 6.791c.255.866-.924 1.262-1.39.566a33 33 0 0 1-2.006-3.033h.045a.783.783 0 0 0 .766-.895 7 7 0 0 0-.715-.622c-.272-.21-.68.13-.567.436q.19.565.476 1.086a2.27 2.27 0 0 0-1.417 1.002.43.43 0 0 1-.34.159 8 8 0 0 0-.567-.612 2.26 2.26 0 0 1 1.253-1.788 10.02 10.02 0 0 1-.255-7.442c1.843-5.167 7.235-7.986 12.576-7.256 5.132.702 9.282 4.777 10.7 9.66a5.86 5.86 0 0 1 2.625 5.281"/>
  <path fill="#2563EB" d="m100.694 74.587-.879.419-.84.402-2.086 1.013-1.321.65c-2.297 1.133-4.593 2.264-6.93 3.266l-.906.39c-.896.38-1.702-.826-.783-1.34.25-.148.51-.29.766-.43.754-.414 1.53-.804 2.302-1.2l2.381-1.195c.698-.35 1.395-.696 2.093-1.03a2.94 2.94 0 0 0 1.978-.973 129 129 0 0 1 1.985-.974l1.1-.537.754-.362c.021.557.118 1.11.289 1.64.023.091.063.182.097.261"/>
  <path fill="#000" d="m107.311 71.463-1.758.815a9.2 9.2 0 0 1 .681-2.417l.776-.368 1.015-.475.868-.402a7 7 0 0 0 .136 2.038l-1.469.69zM115.385 67.711l-2.115.974c.014-.762.105-1.52.272-2.264l1.661-.77c.267-.13.533-.249.805-.373a11.4 11.4 0 0 0-.623 2.433"/>
  <path fill="#2563EB" d="M151.533 60.296a5.2 5.2 0 0 1-1.174 2.864c-1.315 1.653-3.368 2.394-5.284 3.124l-9.64 3.645-1.332.503-15.769 5.96c-4.021 1.522-8.041 3.073-12.055 4.607l-1.31.498a920 920 0 0 1-8.505 3.203l-1.934.707c-.862.317-1.701.634-2.591.94l-.33.119c-1.196.424-1.65-1.41-.527-1.868 9.487-3.786 19.104-7.244 28.652-10.855 8.432-3.186 16.875-6.344 25.301-9.542 1.667-.634 3.64-1.426 4.366-3.197.68-1.653-.488-3.045-1.894-3.78-3.589-1.874-8.052-.182-11.465 1.273a366 366 0 0 0-10.774 4.714c-1.094.487-2.177.985-3.271 1.477.623-.968 1.219-2.01 1.905-2.96l2.058-.922 2.036-.906 2.268-.99c.442-.204.896-.402 1.344-.566.924-.413 1.854-.815 2.784-1.223a36 36 0 0 1 6.039-2.173c3.538-.832 8.675-.662 10.626 3.022q.173.323.295.668a4.3 4.3 0 0 1 .181 1.658"/>
  <path fill="#000" d="M131.023 59.165a4.5 4.5 0 0 1-.777-.266c-.374-.158-.726-.35-1.105-.515a8.5 8.5 0 0 0-1.775-.538 9.3 9.3 0 0 0-3.884.13 10.07 10.07 0 0 0-5.637 3.962 14.4 14.4 0 0 0-1.837 3.396 11.4 11.4 0 0 0-.623 2.405q-.075.565-.086 1.132c0 .968.465 2.507 1.701 2.417 1.135-.085 1.911-1.868 2.422-2.655a401 401 0 0 0 2.546-3.961c.624-.968 1.219-2.01 1.905-2.96q.373-.526.805-1.002a.766.766 0 0 1 1.253.08.95.95 0 0 1 .131.984q-.362.746-.828 1.432c-.295.436-.601.866-.89 1.296q-.913 1.342-1.804 2.677l-1.808 2.683c-.463.782-.99 1.524-1.577 2.218a3.118 3.118 0 0 1-3.918.623 4 4 0 0 1-.402-.272 4 4 0 0 1-1.35-2.015 5.5 5.5 0 0 1-.249-1.67v-.067c.013-.762.105-1.52.272-2.264a15.8 15.8 0 0 1 2.937-6.118 13 13 0 0 1 2.365-2.332q.594-.448 1.241-.815a10.7 10.7 0 0 1 3.765-1.307 10.4 10.4 0 0 1 4.31.232c1.253.356 2.835.962 3.43 2.201a.2.2 0 0 1 .04.074.567.567 0 0 1-.573.815"/>
  <path fill="#000" d="M119.671 58.293a5 5 0 0 0-.828-.294c-4.196-1.132-8.108 3.82-9.282 7.357a13 13 0 0 0-.669 3.283 7 7 0 0 0 .136 2.037q.109.488.312.945a2.125 2.125 0 0 0 3.682.563 2.12 2.12 0 0 0 .429-1.417.9.9 0 0 1 .068-.323.83.83 0 0 1 .921-.462.834.834 0 0 1 .666.785 3.5 3.5 0 0 1-.238 1.698 3.975 3.975 0 0 1-4.978 2.117 4.24 4.24 0 0 1-2.467-2.729 3 3 0 0 1-.113-.362 8 8 0 0 1-.301-1.97v-.616a14.58 14.58 0 0 1 3.799-9.355q.692-.764 1.503-1.398.67-.542 1.418-.974c1.899-1.132 4.649-1.635 6.362.034.079.085.164.17.238.266a.563.563 0 0 1-.328.812.57.57 0 0 1-.33.003"/>
  <path fill="#000" d="M112.329 59.13a16 16 0 0 0-1.526.39 16.3 16.3 0 0 0-5.523 2.932 13.7 13.7 0 0 0-3.912 5.224 12.1 12.1 0 0 0-1.066 5.014c.021.558.118 1.11.289 1.641.028.085.068.176.102.255.726 1.641 2.898 2.536 3.969.668a8.9 8.9 0 0 0 .874-2.977 9.2 9.2 0 0 1 .68-2.417q.172-.352.397-.673a.96.96 0 0 1 .374-.311 1 1 0 0 1 1.021.141.74.74 0 0 1 .317.503.727.727 0 0 1-.158.573 4.5 4.5 0 0 0-.624 1.25 5 5 0 0 0-.136.481c-.221.844-.306 1.732-.527 2.575-.329 1.29-.947 2.592-2.121 3.3-2.212 1.341-4.797-.198-5.8-2.264a4 4 0 0 1-.16-.35 8 8 0 0 1-.153-.465 7 7 0 0 1-.215-1.002 7 7 0 0 1-.09-1.256c.062-1.83.48-3.631 1.23-5.303q.377-.875.861-1.698c.423-.732.906-1.427 1.446-2.077.068-.09.142-.175.216-.266.352-.402.726-.792 1.134-1.132q.616-.569 1.293-1.064.546-.405 1.134-.752a13.6 13.6 0 0 1 6.549-1.874.4.4 0 0 1 .113 0 .53.53 0 0 1 .297.464.53.53 0 0 1-.285.47"/>
  <path fill="#2563EB" d="M149.395 61.004c-.726 1.771-2.699 2.563-4.366 3.197-8.426 3.198-16.869 6.356-25.301 9.542-7.745 2.926-15.531 5.756-23.248 8.744l-2.472.957-2.926 1.131a55 55 0 0 0-1.23-2.263 34 34 0 0 0-1.225-1.992l.442-.199c2.183-.967 4.332-2.009 6.487-3.067a4.2 4.2 0 0 0 1.321-.65l2.087-1.014c1.004 2.094 3.589 3.633 5.801 2.264 1.173-.708 1.791-2.01 2.12-3.3.221-.843.307-1.731.528-2.575a4.235 4.235 0 0 0 2.466 2.728 3.977 3.977 0 0 0 4.979-2.116q.193.147.402.271a3.12 3.12 0 0 0 3.918-.622 16 16 0 0 0 1.577-2.219l1.808-2.683q.897-1.335 1.804-2.676c.289-.43.567-.86.89-1.296a593 593 0 0 1 10.773-4.715c3.402-1.454 7.876-3.146 11.466-1.273 1.394.78 2.58 2.173 1.899 3.826"/>
  <path fill="#000" d="M103.692 63.545c-1.037.673-2.155 1.183-3.243 1.76q-1.032.529-1.974 1.205a17.8 17.8 0 0 0-4.127 4.171c-.68.99-2.512 3.775-.726 4.647.262.133.55.207.845.215a2.94 2.94 0 0 0 1.978-.974 12.5 12.5 0 0 0 1.486-1.895.87.87 0 0 1 .409-.334.896.896 0 0 1 1.19.718.76.76 0 0 1-.136.476 21 21 0 0 1-.748 1.064 8.4 8.4 0 0 1-1.775 1.828 4.2 4.2 0 0 1-1.321.65c-.407.12-.83.17-1.253.154a3.36 3.36 0 0 1-1.917-.663 3.22 3.22 0 0 1-1.225-2.897c.182-1.942 1.435-3.673 2.648-5.14a17.6 17.6 0 0 1 4.327-3.791 13.6 13.6 0 0 1 3.617-1.698l.369-.09a6.3 6.3 0 0 1 1.384-.13.393.393 0 0 1 .353.536.4.4 0 0 1-.161.188M137.482 75.968l-.335-.758a25 25 0 0 1-.72-1.953c-.215-.656-.385-1.284-.567-1.924s-.255-1.567-.822-1.89a.57.57 0 0 0-.646.085c-.477.504-.216 1.466-.136 2.088q.151 1.11.464 2.185c.199.685.426 1.364.681 2.026s.533 1.636 1.174 2.1 1.287-.153 1.315-.753a2.9 2.9 0 0 0-.408-1.206"/>
  <path fill="#000" d="M137.232 79.726a17.2 17.2 0 0 1-1.19 3.209 16.83 16.83 0 0 1-9.311 8.336 17.24 17.24 0 0 1-12.599-.39c-.232-.097-.465-.21-.697-.317a1.4 1.4 0 0 1-.193-.12.9.9 0 0 1-.215-.264.85.85 0 0 1-.059-.666.9.9 0 0 1 .166-.297 1.1 1.1 0 0 1 .743-.453h.107c.155.003.308.038.448.102l.222.102a15.335 15.335 0 0 0 6.441 1.336 14.9 14.9 0 0 0 10.524-4.427 16.4 16.4 0 0 0 3.101-4.527q.577-1.302.948-2.677c.232-.787.255-1.794.946-2.315a.49.49 0 0 1 .568.074c.742.758.294 2.377.05 3.294"/>
  <path fill="#000" d="M190.663 102.924c-1.781 4.222-5.302 7.476-9.384 9.48-4.735 2.326-10.065 2.977-15.31 2.829a85.6 85.6 0 0 1-16.268-2.082 70 70 0 0 1-15.429-5.269 56 56 0 0 1-11.045-6.973 44 44 0 0 1-1.911-1.63 41.4 41.4 0 0 1-7.201-8.41q-.215-.338-.42-.684c-.136-.232-.38-.629-.567-.945v-.034a.84.84 0 0 1-.108-.487c.284 0 .567.04.851.034h.238a.57.57 0 0 1 .538.22c.233.108.471.204.715.3.442.617.907 1.229 1.366 1.84l.636.81a45.5 45.5 0 0 0 4.32 4.668c.403.385.806.759 1.225 1.132a54.6 54.6 0 0 0 15.707 9.621 77.6 77.6 0 0 0 14.924 4.239 72.6 72.6 0 0 0 15.678 1.398c4.695-.187 9.396-1.285 13.353-3.911a15.49 15.49 0 0 0 6.896-10.119c.754-4.193-.369-8.62-2.303-12.354-2.103-4.07-5.341-7.358-8.942-10.187-3.77-2.926-7.938-5.286-12.089-7.647-4.876-2.778-9.724-5.608-14.589-8.415a1.07 1.07 0 0 1-.524-.8 1.06 1.06 0 0 1 .325-.898 1.05 1.05 0 0 1 1.344-.22l3.227 1.81.567.317 1.377.77c4.435 2.485 8.88 4.952 13.263 7.521 4.293 2.513 8.506 5.241 12.14 8.688a28.4 28.4 0 0 1 7.729 11.98c1.338 4.302 1.457 9.158-.329 13.408"/>
  <path fill="#000" d="M173.375 76.522a4.7 4.7 0 0 0-1.985.04 30 30 0 0 1-1.996.232q-2.031.184-4.071.141a35.2 35.2 0 0 1-8.018-1.132c-4.905-1.279-9.594-3.961-14.805-3.661a11.6 11.6 0 0 0-3.606.724c-1.1.447-2.399 1.132-2.966 2.213-.204.396.142.979.624.81.975-.34 1.837-.935 2.835-1.252 1.009-.329 2.058-.52 3.119-.566a19.9 19.9 0 0 1 7.02 1.274c2.455.832 4.842 1.84 7.371 2.507a35.8 35.8 0 0 0 7.819 1.132q2.23.084 4.451-.113c.766-.068 1.537-.17 2.297-.283a4.45 4.45 0 0 0 2.126-.674.8.8 0 0 0 .136-1.149.8.8 0 0 0-.351-.243M99.332 26.82c-1.746-3.157-5.432-4.663-8.919-4.334-.238 0-.482.05-.715.09a8 8 0 0 0-1.655.453 10.2 10.2 0 0 0-3.794 2.518 11.7 11.7 0 0 0-1.837 2.575c-.476.923-.94 1.919-.765 2.96a8.24 8.24 0 0 0 1.621 4.834 10.03 10.03 0 0 0 4.338 3.542A9.66 9.66 0 0 0 97.95 37.32a8.5 8.5 0 0 0 1.967-3.26c.26-.78.416-1.59.465-2.41a8.9 8.9 0 0 0-1.049-4.828m-2.37 8.145c-1.599 2.388-4.899 3.395-7.62 2.7a7.5 7.5 0 0 1-4.038-2.655 10.7 10.7 0 0 1-1.803-3.837q.402-.748.726-1.534a9.6 9.6 0 0 1 1.225-1.918 8.36 8.36 0 0 1 3.459-2.519q.372-.14.76-.232a7.4 7.4 0 0 1 2.834-.124 6.8 6.8 0 0 1 4.145 2.178A5.84 5.84 0 0 1 98 29.889a7.1 7.1 0 0 1-.068 2.75 6.9 6.9 0 0 1-.97 2.327"/>
  <path fill="#000" d="M98.01 29.888a52 52 0 0 1-5.494-5.042 6.8 6.8 0 0 1 4.145 2.178 5.84 5.84 0 0 1 1.35 2.864M79.288 31.54c-.663-2.687-2.358-5.025-5.103-6.004a5.9 5.9 0 0 0-2.342-.34 5.8 5.8 0 0 0-1.826.374 5.5 5.5 0 0 0-1.1.566c-.952.645-2.177 1.947-2.381 3.243a.6.6 0 0 0-.21.22c-1.491 2.57-.896 6.067.686 8.49a9.16 9.16 0 0 0 5.047 3.786c.609.165 1.24.23 1.87.192a5.2 5.2 0 0 0 1.781-.441 6.4 6.4 0 0 0 3.403-4.103 10.88 10.88 0 0 0 .175-5.982m-2.393 5.524a5 5 0 0 1-.521 1.093 3.9 3.9 0 0 1-1.134 1.217c-4.383 2.948-8.392-3.962-7.547-7.675 1.457-6.44 9.032-4.075 9.6 1.523a9.2 9.2 0 0 1-.415 3.842z"/>
  <path fill="#000" d="M78.58 30.726a.505.505 0 0 0-.84.487c.613 1.924 1.356 3.718 1.367 5.778.003.98-.117 1.958-.358 2.91a24 24 0 0 1-1.134 2.829c-.306.792.925 1.51 1.458.843a8.6 8.6 0 0 0 1.395-3.118c.299-1.133.432-2.304.396-3.475-.079-2.168-.629-4.709-2.285-6.254M89.92 35.135a.56.56 0 0 0-.097-.306l-.312-.408-.153-.203a3 3 0 0 0-.193-.244l-.107-.096-.04-.034s-.034-.062-.045-.096q.016.047.04.09a1 1 0 0 0-.052-.13l-.034-.045-.028-.034-.028-.034a.4.4 0 0 1-.046-.062l.04.056a.9.9 0 0 0-.216-.209.693.693 0 0 0-.998.407 1 1 0 0 0-.039.363q.018.191.062.379a.1.1 0 0 0 0 .045.8.8 0 0 0 .17.39 2.824 2.824 0 0 0 .403.583q.132.152.295.272l.164.13.199.08a.63.63 0 0 0 .323 0 .8.8 0 0 0 .47-.227 1 1 0 0 0 .21-.362.56.56 0 0 0 .012-.305M76.907 37.099a.86.86 0 0 0-.233-.396c-.142-.164-.295-.323-.448-.481a3 3 0 0 0-.624-.566l-.102-.045a.3.3 0 0 1-.034-.063c-.04-.05-.079-.096-.113-.147a.6.6 0 0 0-.233-.147.7.7 0 0 0-.47-.04.9.9 0 0 0-.318.187.74.74 0 0 0-.21.51c.023.458.17.902.426 1.284q.202.282.453.52.262.24.567.42a.94.94 0 0 0 .692.085l.21-.085a.7.7 0 0 0 .255-.232.9.9 0 0 0 .193-.566zM86.983 45.39c-.403-.108-.726.197-.953.498l-.034.045-.057.068-.192.237q-.191.24-.409.453c-.136.136-.283.26-.43.385l-.04.034-.08.056q-.134.103-.278.199a7.5 7.5 0 0 1-1.134.616c-.119.057-.056 0-.028 0l-.193.08-.311.136c-.21.084-.414.18-.63.254a.44.44 0 0 0-.306.402.42.42 0 0 0 .306.402c.433.091.88.1 1.316.028.428-.08.844-.218 1.236-.407a6 6 0 0 0 1.956-1.477c.342-.333.589-.752.715-1.212a.673.673 0 0 0-.454-.797"/>
  <path fill="#000" d="M95.822 54.195a.88.88 0 0 0-.136 1.03q.185.388.437.736a12.4 12.4 0 0 1-6.442 1.698 16.47 16.47 0 0 1-11.737-5.156 22.2 22.2 0 0 1-3.856-5.433 33 33 0 0 1-1.36-3.028 7.5 7.5 0 0 1-.675-2.162c.609.166 1.24.23 1.87.193v.04q.323.748.67 1.488a29 29 0 0 0 1.599 2.988c2.047 3.34 4.83 6.367 8.534 7.867a13.55 13.55 0 0 0 5.55 1.024 11.36 11.36 0 0 0 5.325-1.607.914.914 0 0 1 1.236.21.85.85 0 0 0-1.015.112"/>
  <path fill="#000" d="M73.924 42.05a5.8 5.8 0 0 1-1.871-.192 1.7 1.7 0 0 1 .187-.905.52.52 0 0 1 .703-.181c.479.285.83.742.98 1.279M96.645 55.599c-.165.124-.34.249-.522.362a4.7 4.7 0 0 1-.437-.736.88.88 0 0 1 .137-1.03.85.85 0 0 1 1.037-.136 1.063 1.063 0 0 1-.215 1.54"/>
  <path fill="#000" d="M103.529 62.826c-.233.566-1.134.979-1.622.402l-.153-.176a114 114 0 0 1-3.04-3.763c-.516-.663-1.02-1.33-1.536-1.998-.329-.43-.72-.866-1.043-1.33a4.6 4.6 0 0 1-.437-.736.88.88 0 0 1 .136-1.03.85.85 0 0 1 1.038-.136c.657.571 1.245 1.217 1.752 1.925.533.656 1.077 1.307 1.616 1.963 1.015 1.268 2.036 2.547 3 3.854.068.085.13.165.186.25a.76.76 0 0 1 .103.775M81.12 10.334v-.136q-.03.134-.04.272l-.102.255a1.3 1.3 0 0 1-.13.18c-.108.12-.233.221-.346.335-.318.288-.647.566-.964.865-.567.566-1.135 1.132-1.662 1.698a26.5 26.5 0 0 0-2.892 3.962 25.4 25.4 0 0 0-2.16 4.414c-.283.781-.533 1.568-.788 2.36q-.093.324-.204.64a4.1 4.1 0 0 1-.766 1.5.57.57 0 0 1-.896-.238 2.5 2.5 0 0 1-.164-.889 7.3 7.3 0 0 1 .215-1.737q.259-1.22.675-2.394a28.3 28.3 0 0 1 2.178-4.77A26.2 26.2 0 0 1 76.17 12.4a25.6 25.6 0 0 1 2.795-2.711 1.7 1.7 0 0 1 1.23-.566.76.76 0 0 1 .715.164.83.83 0 0 1 .21 1.047M83.116 32.566a3.8 3.8 0 0 0-2.864-.397c-.498.11-.962.342-1.35.674q-.11.093-.203.203l-.103.13-.113.142v.04l-.096.124-.091.13q-.09.137-.164.283a.61.61 0 0 0 .958.736q.09-.1.193-.187l.04-.04.079-.056a1.2 1.2 0 0 1 .21-.113h.04l.073-.034.215-.08c.074 0 .148-.056.216-.084h.04q.255-.091.521-.147a.1.1 0 0 1 .046 0h.64q.248.045.488.119l.102.034h.068l.142.079a.901.901 0 1 0 .907-1.55zM14.688 99.166a1.2 1.2 0 0 0-.692-.493l-.527-.158-.51-.153a1.7 1.7 0 0 0-.67-.108.7.7 0 0 0-.3.08.62.62 0 0 0-.287.635.6.6 0 0 0 .162.31c.368.257.785.436 1.225.526l.505.164c.292.101.613.087.896-.04a.566.566 0 0 0 .198-.764M38.038 105.42a.76.76 0 0 0-.392-.323.5.5 0 0 0-.08-.068 1.3 1.3 0 0 0-.271-.102c-.114-.039-.227-.079-.34-.107a6 6 0 0 0-.828-.153c-.239-.034-.471-.057-.71-.079a1.5 1.5 0 0 0-.356 0 1.05 1.05 0 0 0-.46.164.333.333 0 0 0-.068.515q.151.154.346.243.162.074.335.113c.244.057.487.102.725.165.239.062.465.107.704.152l.351.063.221.034a.7.7 0 0 0 .182 0c.17.03.346.002.499-.08a.407.407 0 0 0 .142-.537M60.667 92.743a.5.5 0 0 0-.284-.12h-.516a1 1 0 0 0-.17 0l-.346.046c-.085 0-.17 0-.25.034s-.164.073-.238.102a.39.39 0 0 0-.18.385.37.37 0 0 0 .271.317q.206.06.42.062h.346q.224-.007.442-.057l.329-.073a.41.41 0 0 0 .289-.442.38.38 0 0 0-.113-.254M80.989 88.051a.49.49 0 0 0-.46-.311 1.6 1.6 0 0 0-.232.034c-.074 0-.159.068-.227.096q-.12.057-.232.13-.27.18-.516.39c-.13.108-.255.227-.374.346l-.182.192a1.5 1.5 0 0 0-.22.425.46.46 0 0 0 0 .249c.03.096.089.181.17.243a.47.47 0 0 0 .515.034q.155-.082.29-.192l.18-.181c.103-.097.216-.187.33-.278a4 4 0 0 1 .363-.254 2 2 0 0 0 .21-.142q.158-.095.283-.232a.5.5 0 0 0 .102-.549"/>
  <path fill="#2563EB" d="M59.805 19.69c-.085-.481-.51-.713-.873-.98-.363-.265-.624-.457-.947-.672-.646-.425-1.304-.832-1.956-1.251-.652-.42-1.299-.832-1.957-1.24a7.2 7.2 0 0 0-2.114-1.07.75.75 0 0 0-.788.272.735.735 0 0 0-.063.832q.176.258.38.493.255.214.539.39c.311.227.635.447.958.657.663.441 1.332.871 2.007 1.301l1.95 1.245c.33.21.67.39 1.004.566a1.74 1.74 0 0 0 1.333.363.776.776 0 0 0 .527-.906M52.61 28.835c1.582-.288 3.135-.628 4.7-.984.482-.108.386-.917-.113-.866-1.594.152-3.17.317-4.758.566-.793.107-1.593.226-2.387.345a18 18 0 0 0-2.381.385.703.703 0 0 0-.27 1.199.7.7 0 0 0 .457.176q1.205-.105 2.381-.38c.794-.158 1.583-.293 2.37-.44M58.167 32.65a17.9 17.9 0 0 0-4.7 2.094q-1.092.685-2.07 1.522-.504.406-.959.866-.23.255-.43.532a2.7 2.7 0 0 0-.33.628.51.51 0 0 0 .698.69q.3-.12.567-.305l.482-.385c.312-.26.6-.566.907-.826a21 21 0 0 1 1.917-1.556 29 29 0 0 1 4.218-2.592c.323-.187.063-.782-.3-.668"/>
  <path fill="#000" d="m125.853 145.603-1.968.141-.119-1.641q-.788-11.098-1.406-22.219c-.238-4.132-.443-8.269-.635-12.4a650 650 0 0 1-.267-6.135c-.045-1.341-.125-2.705-.125-4.058 0-.741 0-1.477.085-2.213a.76.76 0 0 1 .273-.504c.402.385.805.759 1.225 1.132.158 1.064.255 2.14.328 3.226.063.996.12 1.992.188 2.977.153 2.264.277 4.528.414 6.791q.742 12.26 1.417 24.529l.493 8.715c.034.561.068 1.11.097 1.659"/>
  <path fill="#000" d="m176.969 142.795-1.781.074-2.217.085a1564 1564 0 0 0-36.856 1.963q-5.103.329-10.258.685l-1.967.142c-2.042.141-4.077.288-6.118.441-3.074.227-6.159.47-9.232.713-1.928.159-3.884.385-5.829.498-.799.04-1.593.068-2.381.057 0-.436.034-.877.045-1.319.788-.13 1.582-.221 2.382-.3l1.576-.153c1.701-.169 3.436-.311 5.154-.452q5.16-.436 10.326-.827l3.969-.3 1.99-.147a1268 1268 0 0 1 30.886-1.884q9.123-.46 18.253-.815l1.82-.074c.079.464.141.917.215 1.375-.006.08.006.142.023.238M26.696 112.8a.509.509 0 0 0-.849-.325.5.5 0 0 0-.166.325 16 16 0 0 1-.352 2.552q-.155.632-.385 1.24-.301.597-.488 1.239a.57.57 0 0 0 .256.628.57.57 0 0 0 .674-.084c.32-.391.556-.844.692-1.33q.248-.674.403-1.376a8.3 8.3 0 0 0 .215-2.869M160.141 50.364a14.2 14.2 0 0 0-4.366-8.206c-5.268-5.094-12.662-6.435-19.347-8.75a40 40 0 0 1-5.325-2.264 41 41 0 0 1-4.893-3.333c-.493-.357-1.191.345-.839.843a13.4 13.4 0 0 0 3.697 3.266 26.5 26.5 0 0 0 4.287 2.264c3.232 1.375 6.617 2.314 9.939 3.43 5.671 1.9 12.39 4.912 14.346 11.114.483 1.487.628 3.063.426 4.613a8.9 8.9 0 0 1-.568 2.15c-.317.753-.827 1.393-1.168 2.128s.443 1.908 1.299 1.296c1.276-.905 1.967-2.546 2.342-4.03a11.9 11.9 0 0 0 .17-4.521"/>
</svg>
