<svg xmlns="http://www.w3.org/2000/svg" width="192" height="192" fill="none" viewBox="0 0 192 192">
  <g clip-path="url(#girl-drinking-coffe-in-computera)">
    <path fill="#fff" d="M0 0h192v192H0z"/>
    <path fill="#000" d="M188.389 84.23a19.54 19.54 0 0 1-6.592 9.41c-7.136 5.732-16.766 6.688-25.593 6.086a29.07 29.07 0 0 1-21.495-10.222c-5.474-6.133-8.598-13.89-10.117-21.896-1.758-9.43-1.481-19.174-1.147-28.66.04-3.972.543-7.925 1.5-11.78a22.6 22.6 0 0 1 2.188-5.34q.694-1.227 1.586-2.321c.305-.382.64-.745.955-1.099l.334-.325-.105-.114a46.8 46.8 0 0 0-10.718-.182c-.841.077-1.032-1.232-.182-1.308 10.576-.956 22.66 1.184 29.529 10.03a20.7 20.7 0 0 1 2.933 5.15c.736 1.91 1.252 3.821 1.911 5.655a14.7 14.7 0 0 0 2.808 5.13 12.1 12.1 0 0 0 3.908 2.685c2.866 1.356 6.076 2.102 8.827 3.754a9.26 9.26 0 0 1 3.2 3.057c1.08 1.787 1.223 3.822 1.433 5.837a8.03 8.03 0 0 0 2.217 5.293 20.1 20.1 0 0 0 4.432 2.866 21 21 0 0 1 4.49 2.971 13.45 13.45 0 0 1 3.115 4.49 16.18 16.18 0 0 1 .583 10.833"/>
    <path fill="#fff" d="M156.261 70.646a2.53 2.53 0 0 1-1.252 1.624 28 28 0 0 1-4.251 2.484c-6.162 2.932-13.126 4.146-19.871 4.843-3.496.363-7.021.573-10.508.774l-5.178.286c-1.691.096-3.382.258-5.082.306a9.2 9.2 0 0 1-4.548-.812 21.5 21.5 0 0 1-3.506-2.942c-1.242-1.051-2.761-1.749-4.06-2.752a50 50 0 0 1-3.822-3.4.8.8 0 0 1-.152-.21 1.74 1.74 0 0 1-.306-1.204.67.67 0 0 1 .401-.535c3.067-1.3 6.449-1.548 9.716-1.969l9.162-1.174a3 3 0 0 0 0-.411 7.8 7.8 0 0 0-.44-2.13c-.869-2.647-2.522-5.58-.726-8.236a7.7 7.7 0 0 1 3.468-2.531 25 25 0 0 1 5.073-1.481 26.75 26.75 0 0 1 10.594.172.695.695 0 0 1 .542.6.69.69 0 0 1-.389.709c.229.64.459 1.27.698 1.91a104 104 0 0 0 4.27 9.697c.306.602.573 1.605 1.337 1.72q1.245.107 2.494.086 2.573.128 5.12.515c3.457.492 6.85 1.36 10.117 2.59.621.238 1.195.706 1.099 1.47"/>
    <path fill="#fff" d="M137.317 48.826a7.8 7.8 0 0 1-2.226 2.942 3.19 3.19 0 0 1-3.172.373c-.516-.258-.955-.88-1.471-1.032s-.153.382 0 .611a2.87 2.87 0 0 1 .42 3.057 4.7 4.7 0 0 1-2.751 2.178 28.4 28.4 0 0 1-4.71 1.405q-.414.27-.86.487a19.1 19.1 0 0 1-7.432 1.3 22.2 22.2 0 0 1-7.719-1.023c-4.204-1.423-7.872-4.777-8.808-9.2a.57.57 0 0 1 0-.363 19 19 0 0 1-.545-1.758 17 17 0 0 1-.296-6.801c.172-1.1.457-2.179.85-3.22a25.6 25.6 0 0 1 1.634-3.229 37 37 0 0 0 1.366-3.821 13.3 13.3 0 0 1 1.729-2.98 13.6 13.6 0 0 1 3.573-3.249.688.688 0 0 1-.287-1.013c2.045-3.4 6.373-3.659 9.907-3.563 3.382.096 6.773-.22 10.146 0 1.589.092 3.156.414 4.652.955a7.32 7.32 0 0 1 3.822 2.761c.374.772.595 1.609.649 2.465q.186 1.432.344 2.866c.221 1.902.276 3.82.163 5.732a15.05 15.05 0 0 1-2.866 8.158l1.222.316a5.34 5.34 0 0 1 2.322.602.66.66 0 0 1 .353.85q.237.258.392.573a3.82 3.82 0 0 1-.401 3.62"/>
    <path fill="#000" d="M113.023 20.137a14.33 14.33 0 0 0-7.691 4.634 19.9 19.9 0 0 0-4.394 7.365c-.249.764.898 1.29 1.156.516a19 19 0 0 1 3.984-6.821c1.863-2.044 4.279-3.946 7.069-4.433.793-.143.726-1.404-.124-1.26"/>
    <path fill="#000" d="M114.437 58.933c-2.771 0-5.637.096-8.245-.955a13.2 13.2 0 0 1-5.273-3.927 15.28 15.28 0 0 1-2.867-13.317 19.2 19.2 0 0 1 3.822-7.642.63.63 0 0 0-.131-.814.63.63 0 0 0-.824.011 19.28 19.28 0 0 0-4.3 15.285 15.61 15.61 0 0 0 8.407 11.235c3 1.424 6.325 1.424 9.554 1.366.783 0 .659-1.26-.143-1.242"/>
    <path fill="#000" d="M108.141 32.576a.64.64 0 0 0-.697-.078.6.6 0 0 0-.192.154 2 2 0 0 1-.2.239l-.115.115a4 4 0 0 1-.525.41 2.7 2.7 0 0 1-.459.24 6 6 0 0 1-.592.2h-.516a1.6 1.6 0 0 1-.306 0h-.678a1 1 0 0 1-.182-.067.68.68 0 0 0-.382-.621.65.65 0 0 0-.84.325c-.535 1.557 1.738 1.815 2.76 1.672a4.63 4.63 0 0 0 3-1.691.643.643 0 0 0-.076-.898"/>
    <path fill="#000" d="M108.676 26.385a4.24 4.24 0 0 0-4.404.181c-.669.478.057 1.52.716 1.042a3.02 3.02 0 0 1 3.573.21 4.47 4.47 0 0 1 1.462 3.745 8.5 8.5 0 0 1-1.749 4.375 21 21 0 0 1-1.528 1.91c-.306.326-.611.65-.955.956l-.44.41-.105.096a.688.688 0 0 0-.955.765c.181.707 1.06.707 1.576.372.681-.523 1.3-1.122 1.844-1.786a16 16 0 0 0 2.866-4.194c1.194-2.723.993-6.506-1.901-8.082M121.964 33.235a8.9 8.9 0 0 1-3.448.907 2.81 2.81 0 0 1-2.312-1.136c-.449-.688-1.49 0-1.041.716a3.98 3.98 0 0 0 3.085 1.662 9.55 9.55 0 0 0 4.156-.955c.754-.306.315-1.5-.44-1.194M110.176 42.845a.64.64 0 0 0-.812-.372 7.4 7.4 0 0 1-5.818.372.65.65 0 0 0-.841.325.64.64 0 0 0 .325.831 8.6 8.6 0 0 0 6.764-.344.66.66 0 0 0 .382-.812M126.741 29.538c-2.675-2.924-6.869-4.777-10.719-2.99-.726.343-.296 1.537.44 1.184 3.296-1.567 6.926 0 9.238 2.532a.66.66 0 0 0 .879.152.633.633 0 0 0 .162-.878"/>
    <path fill="#fff" d="m155.468 68.295-1.529.803a40.7 40.7 0 0 0-17.568-2.866.66.66 0 0 1-.678-.42l-5.121-13.127a.65.65 0 0 1 .008-.507.67.67 0 0 1 .872-.344q.121.052.212.147a.7.7 0 0 1 .141.217l4.939 12.677a40.5 40.5 0 0 1 18.724 3.42"/>
    <path fill="#000" d="M139.008 45.243a4.225 4.225 0 0 0-3.764-3.229 5.73 5.73 0 0 0-5.121 2.13c-.487.65.478 1.462.955.813a4.39 4.39 0 0 1 3.335-1.71 3.15 3.15 0 0 1 3.228 1.91 4.37 4.37 0 0 1-.697 3.917 7.3 7.3 0 0 1-3.353 2.962 2.74 2.74 0 0 1-3.344-1.787c-.258-.783-1.442-.344-1.194.43a4.06 4.06 0 0 0 3.821 2.732c1.911 0 3.497-1.567 4.605-2.942a6.21 6.21 0 0 0 1.529-5.226"/>
    <path fill="#000" d="M136.103 47.049a.636.636 0 0 0-.687-.564 26 26 0 0 1-4.529.488.64.64 0 0 0-.429.225.64.64 0 0 0-.144.462.636.636 0 0 0 .688.574 26 26 0 0 0 4.528-.488.66.66 0 0 0 .573-.697M114.933 69.404q-1.605-5.045-3.229-10.08c-.248-.773-1.481-.477-1.232.297l3.239 10.079c.248.773 1.48.477 1.222-.297M136.113 21.35q-.672.245-1.28.622a13.4 13.4 0 0 0-3.965 4.04 5 5 0 0 0-.258.392c-.229.354-.449.717-.649 1.099a18 18 0 0 0-1.137-.526l-.23-.095c-7.719-3.143-16.24-2.408-24.389-2.78a.64.64 0 0 1-.526-.726 3.24 3.24 0 0 1 1.481-2.216 19 19 0 0 1 2.532-1.577 26.2 26.2 0 0 1 27.217.956q.62.334 1.204.812"/>
    <path fill="#000" d="M139.189 44.26a.6.6 0 0 1-.428.226.62.62 0 0 1-.46-.15 5.73 5.73 0 0 0-6.754-.956.65.65 0 0 1-.6.024.64.64 0 0 1-.356-.482c-1.289-6.477.679-12.897 2.121-19.202a.5.5 0 0 1 0-.124 8 8 0 0 1 .287-1.195c0-.124.057-.248.076-.363a.65.65 0 0 1 .277-.41q.163-.275.392-.497a2.016 2.016 0 0 1 2.637-.182 10.2 10.2 0 0 1 3.257 4.777 32 32 0 0 1 1.51 5.952c.726 4.27.754 8.951-1.959 12.581"/>
    <path fill="#2563EB" d="m176.59 148.381.105-.306c-3.324 2.608-7.738 2.675-11.75 2.312-4.777-.44-9.496-.956-14.263-1.338a496 496 0 0 0-28.517-1.433 488 488 0 0 0-28.774.239c-8.723.334-17.617 1.041-26.224-.821-6.764-1.472-15.372-4.987-16.7-12.725a.62.62 0 0 1 .736-.717c2.245-5.254 14.464-33.952 17.31-42.36 3.402-9.992 10.06-16.574 15.171-19.402a39.2 39.2 0 0 1 8.751-3.095l1.433-.354q.531.588 1.118 1.118a24 24 0 0 0 9.391 4.872 67 67 0 0 0 31.077 1.06 70.7 70.7 0 0 0 18.485-6.333l1.529-.803c.478.23.955.468 1.423.726a25.7 25.7 0 0 1 6.84 5.283c9.974 10.9 19.002 53.661 19.317 60.291.22 4.796-2.197 9.945-6.458 13.786"/>
    <path fill="#fff" d="M89.598 90.048a1000 1000 0 0 0-1.768-6.907c-.21-.812-1.518-.63-1.308.191.573 2.207 1.136 4.405 1.7 6.611a26.26 26.26 0 0 0-7.518 21.973 24.6 24.6 0 0 0 1.863 6.687.67.67 0 0 0 1.182-.044.67.67 0 0 0 .04-.472 24.84 24.84 0 0 1 1.5-22.354 23.5 23.5 0 0 1 4.06-5.083.63.63 0 0 0 .249-.602M78.526 97.204a.67.67 0 0 1-.564.573l-6.754.955a69 69 0 0 1-11.206 1.175 16.7 16.7 0 0 1-5.302-.85 3.8 3.8 0 0 1-1.041-.573.65.65 0 0 1-.956-.63v-.536a1.79 1.79 0 0 1 .096-1.624c.27-2.758.746-5.491 1.423-8.178.077-1.117.144-2.235.21-3.353-2.128.11-4.245.378-6.334.803-4.776.955-9.428 2.407-14.224 3.238-1.214.2-2.427.373-3.65.478a8.6 8.6 0 0 1-2.932-.096 2.87 2.87 0 0 1-2.035-1.643 4.67 4.67 0 0 1 .238-3.152.57.57 0 0 1 .736-.392q.17-.334.401-.63a6.14 6.14 0 0 1 3.268-1.787q2.56-.717 5.149-1.404a4.8 4.8 0 0 1-.812-1.911.6.6 0 0 0-.086-.315c-.058-.172-.124-.335-.172-.507a5.8 5.8 0 0 1-.277-1.853v-.248a15.5 15.5 0 0 1 0-2.866.8.8 0 0 1 .076-.24c-.124-.314-.258-.62-.344-.955a15.6 15.6 0 0 1-.544-2.283v-.449a10.5 10.5 0 0 1 0-4.25.7.7 0 0 1 .21-.373A4.86 4.86 0 0 1 32.67 59a4.1 4.1 0 0 1 1.471-3.2.47.47 0 0 1 .297-.134c.405-.56.862-1.082 1.365-1.557a8.94 8.94 0 0 1 4.978-2.284 8.77 8.77 0 0 1 5.416 1.223 62 62 0 0 0 5.503 2.933 42 42 0 0 0 4.452 1.69 17 17 0 0 0-1.242-2.158.668.668 0 0 1 .764-1.022 68 68 0 0 1 10.614 4.776 59 59 0 0 1 8.522 5.675 7.64 7.64 0 0 1 2.76 3.821c.402 1.775.604 3.588.602 5.407.21 3.822.192 7.643.21 11.464z"/>
    <path fill="#000" d="M54.385 67.684a.65.65 0 0 1-.602.372.632.632 0 0 1-.621-.888q.045-.084.076-.172c1.28-2.866-.535-5.847-2.656-7.738a20.5 20.5 0 0 0-3.343-2.465 4.98 4.98 0 0 0-3.936-.726 14.9 14.9 0 0 0-3.66 2.14 47 47 0 0 0-3.582 2.684 7.64 7.64 0 0 0-2.598 3.258 6.33 6.33 0 0 0 0 3.22c.22 1.05.544 2.073.821 3.095q.315 1.067.459 2.168a8 8 0 0 0-.44 2.007.725.725 0 0 1-.792-.736 8 8 0 0 0-.096-1.519c-.363-2.293-1.49-4.461-1.462-6.811 0-3.2 2.59-5.217 4.94-6.993 1.346-1.013 2.732-1.988 4.174-2.866a6.13 6.13 0 0 1 4.108-1.08 9.8 9.8 0 0 1 4.194 1.968 19.6 19.6 0 0 1 3.42 2.99c1.854 2.169 2.943 5.34 1.596 8.092M63.011 82.148c-7.174.65-14.186 2.321-21.199 3.821-3.534.774-7.079 1.519-10.652 2.073-1.595.248-3.496.64-4.69-.755a2.866 2.866 0 0 1 .277-4.003 6.4 6.4 0 0 1 2.379-1.127l3.047-.898 6.449-1.91c.812-.24.324-1.472-.488-1.233l-6.123 1.806c-1.852.387-3.651.993-5.36 1.805a4.29 4.29 0 0 0-2.178 4.137 4.21 4.21 0 0 0 2.866 3.515c1.815.564 3.917 0 5.732-.334s3.821-.707 5.732-1.108c3.821-.793 7.586-1.681 11.388-2.474a114 114 0 0 1 12.963-2.064.66.66 0 0 0-.143-1.251"/>
    <path fill="#000" d="M53.018 73.55a6.7 6.7 0 0 1-3.563 3.305c-1.48.497-3.458.258-4.27-1.242a2.52 2.52 0 0 1 1.003-3.496c.773-.364 1.251.878.477 1.232a1.17 1.17 0 0 0-.458 1.309 1.6 1.6 0 0 0 1.356 1.089 4.04 4.04 0 0 0 3.678-1.911 7.54 7.54 0 0 0 1.49-3.62 3.59 3.59 0 0 0-1.585-3.459 7.8 7.8 0 0 0-4.318-1.194 27.6 27.6 0 0 0-4.69.277 7.27 7.27 0 0 0-3.727 1.471 13.9 13.9 0 0 0-2.97 3.678 9.2 9.2 0 0 0-.727 1.586 8 8 0 0 0-.44 2.006 4.84 4.84 0 0 0 1.29 3.907.657.657 0 0 1 .16.954.66.66 0 0 1-.962.088 6.48 6.48 0 0 1-1.815-5.025 7.6 7.6 0 0 1 .44-2.178 11 11 0 0 1 .869-1.911q.474-.823 1.041-1.586a10.1 10.1 0 0 1 4.175-3.659c1.665-.566 3.41-.86 5.168-.87 2.866-.171 6.86.096 8.598 2.647q.341.495.545 1.06.096.258.162.526a7.23 7.23 0 0 1-.927 5.015"/>
    <path fill="#000" d="M48.729 71.983a.68.68 0 0 0-.726-.583l-3.516.115a.66.66 0 0 0-.582.735.68.68 0 0 0 .726.583l3.515-.115a.67.67 0 0 0 .583-.735"/>
    <path fill="#000" d="M45.338 71.61a.68.68 0 0 0-.956-.133 9.55 9.55 0 0 0-3.047 4.117.66.66 0 0 0 .353.86.65.65 0 0 0 .86-.344 8.46 8.46 0 0 1 2.618-3.573.68.68 0 0 0 .172-.927M46.283 64.694a2.13 2.13 0 0 0-2.76-1.319c-.431.206-.828.477-1.176.803l-.239.19-.152.106-.125.057c-.563 0-.955.23-.955.593a.67.67 0 0 0 .564.745c.496.052.994-.084 1.394-.382.344-.24.63-.535.956-.765l.105-.066.172-.077h.344l.19.067s.182.114.049 0c.057 0 .21.114.229.181-.067-.076.019.067 0 0q.073.082.134.172c0 .086.057.144.076.21a.67.67 0 0 0 .85.373.69.69 0 0 0 .344-.888M53.104 59.468c.005.14-.018.28-.066.41-.468 1.052-1.347.507-1.481-.41a7.36 7.36 0 0 0-1.137-3.019 8.5 8.5 0 0 0-1.796-1.977 8.6 8.6 0 0 0-1.194-.832 9.9 9.9 0 0 0-8.417-.716c-3.353 1.29-7.155 5.321-5.35 9.171.364.774-.869 1.242-1.232.478a6.96 6.96 0 0 1 .764-6.563 11.11 11.11 0 0 1 11.101-4.892 9 9 0 0 1 1.022.23 11.46 11.46 0 0 1 4.959 2.79c.2.2.391.41.573.62.474.592.884 1.232 1.223 1.91.518.86.867 1.81 1.031 2.8M113.281 66.557a178 178 0 0 0-18.295 2.942 15 15 0 0 1-1.118-1.118 174 174 0 0 1 19.288-3.133z"/>
    <path fill="#fff" d="M84.722 57.997a22.3 22.3 0 0 1-4.118 6.687l-.134.143a.6.6 0 0 1-.2.134c-.516 1.118-.956 2.264-1.471 3.363a2.8 2.8 0 0 1-1.395 1.404 9.3 9.3 0 0 1-1.978.44c-1.423.238-2.866.515-4.27.716-2.59.363-5.426.525-7.853-.65a10.8 10.8 0 0 1-3.248-2.57c-.956-1.031-1.91-2.101-2.723-3.219a13.7 13.7 0 0 1-2.025-3.65c-.487-1.394-.774-2.865-1.395-4.203a1.2 1.2 0 0 1-.057-.239q-.3-.35-.65-.65a4.22 4.22 0 0 0-4.776-.658c-.64.372-1.109-.516-.736-1.023a1.14 1.14 0 0 1-1.127-.716.64.64 0 0 1 0-.459c-.125-.43.105-.955.659-.86l1.3.259c1.783-.102 3.57.168 5.244.792.057-.601.105-1.203.153-1.805a.678.678 0 0 1 1.003-.487.8.8 0 0 1 .363-.115h.764l1.624-.057 3.372-.115c3.889-.143 7.777-.306 11.674-.22 1.911 0 3.822.182 5.79.344 1.88.23 3.786.162 5.646-.2a.63.63 0 0 1 .611.248c1.405 2.255.994 4.94-.047 7.366"/>
    <path fill="#000" d="M85.872 50.106a1.16 1.16 0 0 0-.62-.678c-.832-.325-19.652-.382-30.791-.382h-.248l-.182.152c-1.375 1.147-1.844 6.459.315 11.464 2.398 5.522 8.187 9.363 9.496 10.012.678.344 2.866.487 5.293.487 2 .006 4-.093 5.99-.296.477-.047.955-.114 1.29-.181a3.7 3.7 0 0 0 1.327-.42q.16-.137.296-.297c.287-.315.688-.821 1.147-1.452a63 63 0 0 0 5.732-9.362c1.251-2.933 1.576-7.547.955-9.047m-2.14 8.521a56.5 56.5 0 0 1-4.843 8.025l-1.07 1.49q-.409.566-.889 1.07-.357.136-.735.182c-.354.057-.793.115-1.29.162-3.334.335-9.43.45-10.509-.076-1.643-.822-6.792-4.557-8.875-9.353-1.977-4.566-1.413-8.789-.812-9.763 11.245 0 27.886.086 29.921.287.41.897.306 5.12-.898 7.976"/>
    <path fill="#000" d="M53.544 51.835a9.92 9.92 0 0 0-8.455-.391.668.668 0 0 0 .516 1.222 8.66 8.66 0 0 1 7.423.43.67.67 0 0 0 .86-.372.69.69 0 0 0-.344-.889M53.773 55.542a.69.69 0 0 1-.955.133 8.3 8.3 0 0 0-2.006-.869 9.2 9.2 0 0 0-2.217-.334 8.6 8.6 0 0 0-1.194-.831.64.64 0 0 1 .535-.478 9 9 0 0 1 1.165 0c1.595.118 3.14.609 4.51 1.433a.68.68 0 0 1 .162.946M56.926 63.089c-.861.011-1.72-.078-2.56-.268a.669.669 0 0 0-.726.583.68.68 0 0 0 .582.736c.838.18 1.693.27 2.55.267.17.01.339-.036.478-.133a.73.73 0 0 0 .258-.45.68.68 0 0 0-.583-.735M58.865 65.773a.67.67 0 0 0-.86-.353 1.2 1.2 0 0 1-.344.095h-3.314a.68.68 0 0 0-.736.583.67.67 0 0 0 .582.726h2.265a5.6 5.6 0 0 0 2.101-.277.66.66 0 0 0 .306-.774M53.324 96.42l-1.29-.286c1.147-6.047 1.959-11.063 1.72-12.362l1.3-.239c.267 1.462-.411 6.171-1.73 12.887M79.567 76.396c-.057 3.908-.277 7.815-.392 11.732-.067 2.77-.124 5.55-.153 8.32l-1.308.135q0-4.777.181-9.487c.115-3.821.344-7.719.373-11.579a54 54 0 0 0-.23-5.56 39 39 0 0 0-.22-1.815l1.07-1.49c.077.373.135.745.192 1.127s.076.478.105.726c.328 2.617.456 5.255.382 7.891"/>
    <path fill="#2563EB" d="M80.293 138.99a13.1 13.1 0 0 1-2.665 5.283 15 15 0 0 1-5.264 3.649 32.5 32.5 0 0 1-6.735 2.446 21.9 21.9 0 0 1-7.137.334c-3.4-.372-6.868-.449-9.133-3.42a15.94 15.94 0 0 1-2.608-6.945c-1.767-9.716.163-19.107 2.13-28.574a577 577 0 0 0 2.867-14.33c.086-.44.172-.87.248-1.3l1.29.287c1.032.201 2.082.363 3.133.488 5.26.507 10.555.543 15.82.105q2.724-.172 5.436-.43l1.31-.134v3.716c0 6.688 0 14.091 1.394 20.645a43.3 43.3 0 0 1 .793 12.257 33 33 0 0 1-.879 5.923"/>
    <path fill="#fff" d="M77.962 96.535a184 184 0 0 0 .191 22.507c.058.841 1.385.898 1.319 0a184 184 0 0 1-.182-22.507.668.668 0 0 0-1.328 0"/>
    <path fill="#000" d="M133.047 140.289c-2.513-.955-7.977-3.2-14.33-5.808-20.52-8.522-39.236-16.098-42.322-16.165-1.91-.066-6.591 2.866-7.509 3.468l.354.554-50.632 23.377-.478-.458a3.14 3.14 0 0 0-.803 2.866c.21 1.041 1.09 3.019 4.662 4.585 2.026.898 13.012 5.207 24.638 9.783 13.89 5.455 29.616 11.645 32.692 13.011a14.05 14.05 0 0 0 5.827 1.233c4.328 0 9.554-1.777 16.633-5.532 6.009-3.171 17.463-9.648 26.663-14.845 5.904-3.334 10.556-5.971 12.132-6.802s2.303-1.739 2.246-2.799c-.086-2.016-3.019-3.936-9.773-6.468"/>
    <path fill="#fff" d="M115.115 138.502c-1.662 1.911-6.754 3.573-7.939 4.051-1.035.494-2.13.851-3.257 1.06a6.06 6.06 0 0 1-3.297-.592c-2.14-.955-4.222-2.035-6.371-2.981A139 139 0 0 0 81 134.987a.65.65 0 0 1-.36-.89.65.65 0 0 1 .235-.266.585.585 0 0 1 .315-.841c2.952-1.137 5.885-2.283 8.837-3.401a6.44 6.44 0 0 1 3.945-.401c1.328.296 2.647.64 3.965.955 2.618.707 5.226 1.491 7.805 2.35 2.58.86 5.188 1.825 7.748 2.866s2.551 2.064 1.624 3.143M77.733 136.468c-3.736-1.166-8.006-4.643-11.158-4.156-3.153.487-27.619 9.706-27.8 10.929s44.222 19.441 44.222 19.441l4.776 1.844c.949.197 1.93.171 2.866-.077 1.386-.439 19.938-10.441 21.247-11.311 2.321-1.538-2.598-3.534-5.827-5.063-1.672-.783-26.979-11.101-28.383-11.607zM85.69 166.255c-.83-.659-1.786.697-.955 1.356a1.424 1.424 0 0 1 .22 1.71 2.34 2.34 0 0 1-1.863 1.376 7.5 7.5 0 0 1-3.305-.392 62 62 0 0 1-3.478-1.136c-4.776-1.691-9.429-3.707-14.12-5.618l-28.564-11.626-16.24-6.592c-.956-.401-1.558 1.166-.564 1.567l30.895 12.553 15.448 6.286c4.977 2.025 9.935 4.213 15.075 5.827 2.216.698 5.254 1.596 7.222-.171 1.472-1.328 1.901-3.803.23-5.14"/>
    <path fill="#fff" d="M144.596 129.685a68 68 0 0 1-.812 8.101 35.2 35.2 0 0 1-1.509 7.519.67.67 0 0 1-.698.41 22 22 0 0 1-5.263-2.015c-1.596-.841-3.115-1.796-4.653-2.742-1.863-.726-3.716-1.5-5.541-2.322-2.054-.955-4.079-1.91-6.085-2.942a161 161 0 0 1-2.924-1.576 7.2 7.2 0 0 0-1.433-.688 5.1 5.1 0 0 0-1.652-.115c-2.226.086-4.423.621-6.688.516a5.5 5.5 0 0 1-2.866-.745 1.82 1.82 0 0 1-.697-.955 8.2 8.2 0 0 1-3.335.481 8.2 8.2 0 0 1-3.247-.902 6.54 6.54 0 0 1-3.535.831 6.1 6.1 0 0 1-2.713-.85 1.3 1.3 0 0 1-.296-.229 4.441 4.441 0 0 1-3.391.745 5.586 5.586 0 0 1-3.821-3.019 9.87 9.87 0 0 1-.727-5.885 24.4 24.4 0 0 1 1.366-5.33 4 4 0 0 0-.458 0 35.5 35.5 0 0 0-7.127 6.687.8.8 0 0 1-.373.248c-.047.115-.114.23-.162.354-.793 1.91-1.194 3.983-1.959 5.923-.095.239-.2.458-.305.697a.44.44 0 0 1 .143.335 4.55 4.55 0 0 1-3 4.547.73.73 0 0 1-.65-.105 3.25 3.25 0 0 1-1.47-.134c-2.465-.793-3.134-3.582-2.867-5.885.344-2.684 1.606-5.273 2.742-7.709a17.7 17.7 0 0 1 4.414-6.248c.516-.43 1.05-.841 1.614-1.232a17 17 0 0 1 3.42-2.465c.373-.239.746-.478 1.128-.707a43.7 43.7 0 0 1 10.652-4.395c3.926-1.079 5.197-.238 9.754-.238.916.01 1.829.119 2.722.324a94 94 0 0 1 6.783.726 93.7 93.7 0 0 1 21.849 5.943 46.6 46.6 0 0 1 8.148 2.311c1.204.469 2.389.956 3.545 1.548.297.088.554.277.726.535q.18.465.267.955c.144.612.277 1.223.402 1.844.47 2.59.665 5.222.582 7.853"/>
    <path fill="#000" d="M97.202 108.343a35.96 35.96 0 0 0-18.839 4.652 25.07 25.07 0 0 0-9.763 10.509 22.8 22.8 0 0 0-2.236 7.031 6.87 6.87 0 0 0 .45 4.012 3.5 3.5 0 0 0 2.55 1.911c2.57.306 3.582-3.143 4.175-4.996.802-2.561 1.51-5.15 3.047-7.375a22 22 0 0 1 7.3-6.296 30 30 0 0 1 1.91-1.041 36 36 0 0 0-.86 1.968c-.63.353-1.252.716-1.844 1.117a22 22 0 0 0-1.91 1.338 15.77 15.77 0 0 0-5.217 6.964c-.955 2.532-1.337 5.484-2.961 7.71a4.421 4.421 0 0 1-2.952 1.91 4.26 4.26 0 0 1-3.372-1.222c-2.15-1.988-1.911-5.14-1.367-7.758a26 26 0 0 1 2.704-7.06 26.6 26.6 0 0 1 11.34-10.776 37.95 37.95 0 0 1 17.893-3.926c.879.028.803 1.347-.048 1.328"/>
    <path fill="#000" d="M85.213 167.258a12 12 0 0 1-.697-2.465c-.306-1.5-.755-3.774-3.478-11.311-.83-2.293-1.853-5.34-2.932-8.598-2.494-7.404-5.59-16.613-8.36-22.842-2.54-5.732-8.875-8.904-8.942-8.932-2.933-1.452-21.705-9.143-38.423-15.505-.115-.048-10.193-3.545-15.285-4.997-2.866-.821-4.548.077-5.474.956-1.52 1.49-2.016 4.108-1.3 6.83.172.65.411 1.586.707 2.732 1.558 6.105 4.777 18.83 8.035 27.934.544 1.548 1.012 2.914 1.433 4.118 2.512 7.346 3.19 9.324 7.853 11.33 7.346 3.162 55.113 22.355 59.402 23.692a15.6 15.6 0 0 0 4.347.774 3.77 3.77 0 0 0 2.799-.955 2.55 2.55 0 0 0 .315-2.761M105.982 123.523a.66.66 0 0 0-.411 1.251 1.965 1.965 0 0 1 1.118 1.911 4.12 4.12 0 0 1-.86 2.503 6.855 6.855 0 0 1-4.777 2.608c-1.662.162-3.649-.287-4.623-1.758-1.252-1.91-.373-4.432.41-6.314a23 23 0 0 1 4.089-6.487.68.68 0 0 0 .067-.955.667.667 0 0 0-.955-.067 24.8 24.8 0 0 0-4.395 6.897c-1.003 2.35-1.91 5.321-.315 7.643 1.261 1.91 3.659 2.512 5.808 2.321a8.16 8.16 0 0 0 5.837-3.248c1.319-1.844 1.672-5.388-.993-6.305"/>
    <path fill="#000" d="M107.472 122.224a.654.654 0 0 0-.465-.23.67.67 0 0 0-.49.172 10.6 10.6 0 0 0-3.181 3.697.65.65 0 0 0-.1.497.665.665 0 0 0 .777.52.66.66 0 0 0 .421-.281 10.3 10.3 0 0 1 1.299-1.911l.067-.067.23-.248.42-.411q.455-.411.955-.764a.67.67 0 0 0 .245-.473.67.67 0 0 0-.178-.501M96.238 131.356a4.6 4.6 0 0 1-5.207-.802c-1.462-1.433-1.586-3.449-1.3-5.388a20.44 20.44 0 0 1 4.835-10.241.66.66 0 0 0 .015-.768.7.7 0 0 0-.197-.188.68.68 0 0 0-.516-.111.69.69 0 0 0-.439.293 21.54 21.54 0 0 0-4.7 9.095 11.5 11.5 0 0 0-.287 5.378 5.89 5.89 0 0 0 3.236 3.947 5.89 5.89 0 0 0 5.104-.059.668.668 0 0 0-.544-1.156"/>
    <path fill="#000" d="M89.99 132.522a4.53 4.53 0 0 1-2.723.401 6.2 6.2 0 0 1-4.337-2.484 7.8 7.8 0 0 1-1.137-5.493c.245-1.75.694-3.465 1.338-5.111.105-.315.229-.63.343-.955s.297-.736.45-1.108a41 41 0 0 1 2.388-4.777c.42-.735 1.519 0 1.099.726a33 33 0 0 0-1.577 3c-.306.65-.592 1.299-.86 1.968l-.133.315a31 31 0 0 0-1.5 4.681 8.7 8.7 0 0 0 0 4.672 4.78 4.78 0 0 0 2.646 2.866 5.1 5.1 0 0 0 1.91.401 3.9 3.9 0 0 0 .956-.124c.143 0 .468-.249.554-.191-.678-.516.057-1.615.726-1.099a1.37 1.37 0 0 1 .357 1.846 1.36 1.36 0 0 1-.5.466M140.708 118.421a131 131 0 0 0-3.601-1.49 126.2 126.2 0 0 0-40.124-8.655c-.85 0-.698-1.347.152-1.309 3.908.191 7.815.564 11.694 1.118a128 128 0 0 1 20.119 4.566 122 122 0 0 1 11.368 4.175c.144.535.306 1.06.392 1.595M118.65 124.641c-2.341 3.639-7.251 2.78-10.805 2.006-.831-.182-.956 1.137-.144 1.309 2.351.515 4.777 1.022 7.223.515a7.29 7.29 0 0 0 4.776-3.038c.478-.716-.573-1.509-1.05-.792"/>
    <path fill="#fff" d="M115.373 132.321c.21.115 13.374 7.28 25.383 13.05-.125.43-.258.85-.411 1.28-11.875-5.674-24.743-12.706-25.603-13.174a.66.66 0 0 1-.37-.655.665.665 0 0 1 .486-.575.7.7 0 0 1 .265-.016.7.7 0 0 1 .25.09"/>
    <path fill="#000" d="M114.828 132.207c-2.054.21-4.098.458-6.152.611a8.6 8.6 0 0 1-5.484-1.299c-.706-.468-1.499.583-.793 1.06a9.72 9.72 0 0 0 5.818 1.577c2.265-.077 4.548-.411 6.802-.64.812-.086.621-1.395-.191-1.309"/>
    <path fill="#2563EB" d="M177.326 145.772a21 21 0 0 1-.459 1.749c-.086.286-.172.573-.277.859l-.076.077a24 24 0 0 1-1.911 1.519 21.98 21.98 0 0 1-12.773 4.06 23 23 0 0 1-3.601-.287c-3.287-.535-9.735-3.248-16.69-6.525l-1.204-.573c.153-.43.287-.85.411-1.28 0-.086.048-.172.077-.258 2.55-8.732 1.853-17.912-.124-26.692-.115-.535-.249-1.07-.373-1.595l1.519.65a.6.6 0 0 1 .258-.067c2.585.014 5.156.38 7.643 1.089a83 83 0 0 1 7.375 2.063 74.4 74.4 0 0 1 12.419 5.369 15.7 15.7 0 0 1 4.777 3.821 16.3 16.3 0 0 1 2.684 4.92 20.4 20.4 0 0 1 .325 11.101"/>
    <path fill="#fff" d="M162.04 123.733a1015 1015 0 0 0-14.874-3.898l-1.414-.363-5.216-1.299c-.812-.2-.669-1.519.153-1.309l4.777 1.185 1.414.363a902 902 0 0 1 15.629 4.089c.831.22.343 1.452-.469 1.232"/>
    <path fill="#fff" d="m147.166 119.836-1.414-.364c-.086-.468-.191-.955-.277-1.423a12774 12774 0 0 1-4.28-21.724c-.172-.831 1.137-1.022 1.299-.191q2.207 11.13 4.395 22.278c.086.478.181.946.277 1.424"/>
    <path fill="#000" d="M141.959 17.386a.84.84 0 0 0-.716-.277 2.13 2.13 0 0 0-1.509.878 3 3 0 0 0-.23.278c0-.163 0-.325-.076-.488a2.36 2.36 0 0 0-.344-1.041.83.83 0 0 0-.681-.274.82.82 0 0 0-.628.38c-.194.31-.282.675-.248 1.04q.002.512.105 1.013c.061.288.185.558.363.793l-.124.086a.66.66 0 0 0-.249.611.854.854 0 0 0 .784.71.85.85 0 0 0 .372-.06c.165-.328.438-.588.774-.736l.134-.162c.659-.44 1.309-.879 1.911-1.347a1.2 1.2 0 0 0 .506-.802.8.8 0 0 0-.144-.602"/>
    <path fill="#fff" d="M97.24 169.321a.67.67 0 0 0-.706-.382c-.21.036-.408.125-.574.258a.95.95 0 0 0-.41.182c-.32.278-.525.667-.574 1.089a1.5 1.5 0 0 0 0 .535 1.06 1.06 0 0 0 .42.697 1.25 1.25 0 0 0 1.252 0c.198-.105.37-.252.507-.43.145-.189.24-.413.277-.649a2.43 2.43 0 0 0-.191-1.3M107.788 163.952a.69.69 0 0 0-.956-.095 46.6 46.6 0 0 1-5.732 3.086.662.662 0 0 0 .554 1.203 50 50 0 0 0 6.009-3.267.67.67 0 0 0 .125-.927M130.534 151.83a.5.5 0 0 0-.115-.23l-.134-.124a.63.63 0 0 0-.324-.115h-.163a.7.7 0 0 0-.306.134l-.219.229a.5.5 0 0 0-.163.211.45.45 0 0 0-.076.248.55.55 0 0 0 .114.478l.134.114a.63.63 0 0 0 .325.124h.162a.7.7 0 0 0 .316-.143l.21-.229a.4.4 0 0 0 .162-.201.5.5 0 0 0 .077-.248.55.55 0 0 0 0-.248M132.817 149.728c-.841 0-.955 1.337-.115 1.318.841-.019.965-1.338.115-1.318M38.345 131.777c1.729 2.541 1.643 5.608-.182 6.85s-4.72.2-6.448-2.341c-1.73-2.541-1.644-5.617.181-6.859s4.72-.191 6.448 2.35"/>
    <path fill="#2563EB" d="M67.769 28.258a6.5 6.5 0 0 0-1.72-2.111 8.4 8.4 0 0 1-2.063-2.045 2.29 2.29 0 0 1 .325-2.599 5.55 5.55 0 0 0 1.175-2.531.67.67 0 0 0-1.319-.153 5.26 5.26 0 0 1-1.118 2.207 3.6 3.6 0 0 0-.65 2.56c.402 2.178 2.57 2.952 3.822 4.557a4.45 4.45 0 0 1 .172 4.834 13 13 0 0 1-2.159 2.111 4.8 4.8 0 0 0-1.3 2.284 5.1 5.1 0 0 0 1.692 5.13c.659.535 1.452-.526.793-1.06a3.82 3.82 0 0 1-1.08-4.166c.386-.83.99-1.54 1.748-2.054a5.95 5.95 0 0 0 1.672-2.006 5.85 5.85 0 0 0 .01-4.958M70.052 37.868c.44-1.328 1.614-2.245 2.36-3.382a4.23 4.23 0 0 0 .678-3.983.66.66 0 0 0-1.214.515c.555 1.31-.43 2.628-1.222 3.593a8 8 0 0 0-1.959 3.267 4.87 4.87 0 0 0 .956 3.735c.65.955 2.436 2.216 1.815 3.554-.354.774.879 1.251 1.232.477.669-1.442-.277-2.78-1.204-3.82-.926-1.042-1.93-2.466-1.442-3.956M76.902 35.021a11.1 11.1 0 0 0 1.69-4.71 7.08 7.08 0 0 0-1.127-4.614 9.2 9.2 0 0 1-1.28-2.226 5.3 5.3 0 0 1-.143-2.216 8.86 8.86 0 0 1 2.407-4.729c.573-.62-.487-1.414-1.06-.793-2.283 2.475-3.726 6.353-1.853 9.468a14.4 14.4 0 0 1 1.452 2.407c.292.85.386 1.755.277 2.646a8.5 8.5 0 0 1-.717 2.637c-.372.86-.955 1.624-1.366 2.436-.85 1.548-1.032 3.821.85 4.69.774.354 1.252-.878.478-1.232a1.47 1.47 0 0 1-.65-1.519 5.7 5.7 0 0 1 1.042-2.245"/>
    <path fill="#000" d="M190.873 72.938a11.63 11.63 0 0 0-6.602-6.343c-2.98-1.09-6.926-1.242-8.97-4.022-1.061-1.424-1.004-3.248-.879-4.94.195-1.676.14-3.373-.163-5.034a12.3 12.3 0 0 0-5.149-7.47c-2.646-1.73-5.818-2.15-8.827-2.866a15 15 0 0 1-4.309-1.615 9.14 9.14 0 0 1-3.104-3.23c-1.586-2.722-2.074-5.941-3.659-8.597a2.44 2.44 0 0 0-1.691-1.309c-.841-.134-.956 1.175-.153 1.319.64.105.955 1.089 1.165 1.595.306.697.583 1.395.841 2.111.535 1.433 1.022 2.866 1.681 4.28a12.4 12.4 0 0 0 2.465 3.63 10.9 10.9 0 0 0 3.774 2.34c2.866 1.07 5.904 1.3 8.751 2.351a10.93 10.93 0 0 1 6.314 5.933c.598 1.38.894 2.871.869 4.375a33.6 33.6 0 0 0-.114 5.092c.439 3.325 3.219 5.159 6.2 6.066a52 52 0 0 1 5.102 1.538 9.55 9.55 0 0 1 3.544 2.627 12.06 12.06 0 0 1 2.694 8.474 17.95 17.95 0 0 1-3.716 9.477 10.3 10.3 0 0 1-3.889 3.258c-1.738.83-3.544 1.528-5.311 2.273l-2.704 1.137a.67.67 0 0 0 .044 1.182.67.67 0 0 0 .472.041l5.598-2.37a17.7 17.7 0 0 0 4.892-2.598 16 16 0 0 0 3.267-4.098 19.4 19.4 0 0 0 2.111-4.93c.934-3.192.742-6.609-.544-9.677"/>
  </g>
  <defs>
    <clipPath id="girl-drinking-coffe-in-computera">
      <path fill="#fff" d="M0 0h192v192H0z"/>
    </clipPath>
  </defs>
</svg>
