<svg xmlns="http://www.w3.org/2000/svg" fill="none" viewBox="0 0 192 192">
  <path fill="#fff" d="M0 0h192v192H0z"/>
  <path fill="#000" d="M42.239 74.318H16.703a1.886 1.886 0 1 1 0-3.761h25.536a1.886 1.886 0 1 1 0 3.761M42.239 85.287H16.703a1.886 1.886 0 1 1 0-3.762h25.536a1.886 1.886 0 1 1 0 3.762M42.239 96.264H16.703a1.884 1.884 0 0 1-1.415-3.258 1.89 1.89 0 0 1 1.415-.504h25.536a1.89 1.89 0 0 1 2.012 1.881 1.886 1.886 0 0 1-2.012 1.881"/>
  <path fill="#000" d="M124.777 134.217H11.663A11.68 11.68 0 0 1 0 122.554V46.288a11.68 11.68 0 0 1 11.663-11.663h113.114a11.67 11.67 0 0 1 11.663 11.663v76.266a11.67 11.67 0 0 1-11.663 11.663M11.663 38.13a8.14 8.14 0 0 0-8.132 8.132v76.267a8.14 8.14 0 0 0 8.132 8.132h113.114a8.15 8.15 0 0 0 8.141-8.132V46.262a8.147 8.147 0 0 0-8.141-8.132z"/>
  <path fill="#000" d="M127.271 55.697H8.647a.703.703 0 0 0 0 1.406h118.624a.7.7 0 0 0 .703-.703.7.7 0 0 0-.703-.703M23.326 47.368A4.627 4.627 0 1 1 18.7 42.74a4.62 4.62 0 0 1 4.627 4.628M35.606 47.368a4.628 4.628 0 1 1-4.62-4.628 4.62 4.62 0 0 1 4.62 4.628M47.903 47.368a4.628 4.628 0 1 1-9.255 0 4.628 4.628 0 0 1 9.255 0M19.947 141.789h-7.712a1.07 1.07 0 0 0-.812.274 1.06 1.06 0 0 0-.256 1.213 1.07 1.07 0 0 0 .633.578c.14.047.288.065.435.051h7.712a1.05 1.05 0 0 0 .812-.273 1.07 1.07 0 0 0 .346-.785 1.06 1.06 0 0 0-1.158-1.058M30.701 141.789h-4.164a1.07 1.07 0 0 0-.812.274 1.06 1.06 0 0 0-.256 1.213 1.07 1.07 0 0 0 .633.578c.14.047.288.065.435.051H30.7a1.06 1.06 0 0 0 .968-1.058 1.064 1.064 0 0 0-.968-1.058M38.328 141.789h-1.885a1.064 1.064 0 0 0 0 2.117h1.86a1.064 1.064 0 0 0 0-2.117zM44.207 141.789h-.977a1.063 1.063 0 0 0 0 2.116h.977a1.05 1.05 0 0 0 .812-.273 1.07 1.07 0 0 0 .346-.785 1.06 1.06 0 0 0-1.158-1.058M49.298 141.789h-.48a1.07 1.07 0 0 0-.812.274 1.06 1.06 0 0 0-.256 1.213 1.07 1.07 0 0 0 .633.578c.14.047.288.065.435.051h.48a1.05 1.05 0 0 0 .812-.273 1.07 1.07 0 0 0 .346-.785 1.06 1.06 0 0 0-1.158-1.058M101.617 23.97s1.628 2.313 4.105 2.433a5 5 0 0 0 4.104-2.15c1.526-1.86 2.494-2.22 3.034-2.195.797 0 1.517 1.012 2.125 1.912 0 0 1.628 2.313 4.105 2.433a5 5 0 0 0 4.104-2.15c.917-1.115 1.834-1.672 2.734-1.655a3.7 3.7 0 0 1 2.451 1.414 1.064 1.064 0 0 0 1.77-.085 1.08 1.08 0 0 0 .121-.807 1.1 1.1 0 0 0-.178-.376 5.82 5.82 0 0 0-4.087-2.262c-1.585 0-3.076.771-4.43 2.425a3.1 3.1 0 0 1-2.331 1.38 3.83 3.83 0 0 1-2.494-1.509c-.694-1.037-1.859-2.742-3.779-2.836-1.508-.069-3.068.9-4.764 2.965a3.08 3.08 0 0 1-2.331 1.38 3.85 3.85 0 0 1-2.494-1.509c-.694-1.037-1.859-2.742-3.77-2.836-1.517-.069-3.076.9-4.773 2.965a3.08 3.08 0 0 1-2.331 1.38 3.85 3.85 0 0 1-2.494-1.509c-.694-1.037-1.86-2.742-3.77-2.836-1.517-.069-3.077.9-4.773 2.965-.157.19-.242.43-.24.677a1.063 1.063 0 0 0 1.877.668c1.525-1.86 2.493-2.22 3.033-2.193.797 0 1.517 1.01 2.125 1.91 0 0 1.628 2.314 4.105 2.434a5 5 0 0 0 4.104-2.15c1.526-1.86 2.494-2.22 3.034-2.195.78.043 1.499 1.012 2.108 1.912"/>
  <path fill="#2563EB" d="M150.848 42.94a1 1 0 0 0-.765-.06 1 1 0 0 0-.583.5l-7.85 15.36a1.01 1.01 0 0 0 .44 1.355q.08.042.166.065a1 1 0 0 0 1.189-.505l7.843-15.36c.12-.238.142-.515.06-.769a1.01 1.01 0 0 0-.5-.586M181.064 89.54a1.014 1.014 0 0 0-1.06-.96l-17.227.895a1.01 1.01 0 0 0-.937.882 1.01 1.01 0 0 0 .692 1.085q.17.044.346.044l17.235-.894a1.003 1.003 0 0 0 .951-1.053M172.198 62.192a1.01 1.01 0 0 0-1.391-.303l-14.474 9.37a1 1 0 0 0-.295 1.392.97.97 0 0 0 .548.41 1 1 0 0 0 .843-.115l14.474-9.37a1 1 0 0 0 .295-1.384"/>
  <path fill="#fff" d="M177.749 146.93a1.16 1.16 0 0 0 .72-.858 2.4 2.4 0 0 0-.129-1.442l-.238-.555-.289-.677q-.173-.402-.41-.901a49 49 0 0 0-2.934-5.471 51 51 0 0 0-5.276-7.035 49 49 0 0 0-3.453-3.503 56 56 0 0 0-3.835-3.215 58 58 0 0 0-8.08-5.147 66 66 0 0 0-7.374-3.315 66 66 0 0 0-5.305-1.766 47 47 0 0 0-1.492-.418l-.533-.144-.267-.051-.339-.086a5.84 5.84 0 0 0-4.144.425 3.974 3.974 0 0 0-2.163 2.833 4.04 4.04 0 0 0 .13 1.859h-.137a5.13 5.13 0 0 0-3.835.793 4.04 4.04 0 0 0-1.773 2.977 4.58 4.58 0 0 0 .591 2.617 5.06 5.06 0 0 0 1.846 1.881 4.36 4.36 0 0 0-.837 2.033 4.93 4.93 0 0 0 .44 2.775 4.5 4.5 0 0 0 1.745 1.931 4.7 4.7 0 0 0-.793 1.903 5.2 5.2 0 0 0 .468 3.338 3.467 3.467 0 0 0 2.163 1.859l1.059.296c.627.18 1.442.439 2.278.721s1.607.598 2.162.836l.721.302.267.116q.088.045.187.057l.224.101.62.296c.526.259 1.275.641 2.126 1.132a31 31 0 0 1 2.739 1.78 27 27 0 0 1 2.717 2.307q1.222 1.2 2.264 2.558.887 1.184 1.614 2.473c.425.757.721 1.441.952 1.888.108.231.18.433.238.555l1.787 4.051c.188.461 2.372-1.081 3.071-1.333z"/>
  <path fill="#000" d="M154.502 160.466a1.52 1.52 0 0 1-1.557-.886c-.289-.664-1.658-3.756-1.781-4.044a2 2 0 0 1-.086-.202c-.044-.101-.08-.202-.137-.31a23 23 0 0 0-.901-1.795 23 23 0 0 0-1.521-2.321 23 23 0 0 0-2.163-2.414 24.5 24.5 0 0 0-2.573-2.163 29 29 0 0 0-2.609-1.701 37 37 0 0 0-2.04-1.081l-.721-.332a2 2 0 0 1-.295-.108l-.253-.115-.72-.296a50 50 0 0 0-2.105-.8c-.923-.324-1.781-.584-2.213-.72l-.8-.224-.231-.065a4.81 4.81 0 0 1-3.013-2.544 6.54 6.54 0 0 1-.598-4.188c.077-.448.205-.886.382-1.305a6 6 0 0 1-1.218-1.715 6.17 6.17 0 0 1-.562-3.532 5.8 5.8 0 0 1 .411-1.485 6.5 6.5 0 0 1-1.262-1.586 5.9 5.9 0 0 1-.757-3.395 5.4 5.4 0 0 1 .726-2.242 5.4 5.4 0 0 1 1.61-1.722 6.3 6.3 0 0 1 3.222-1.103c0-.216.036-.432.072-.656a5.33 5.33 0 0 1 2.84-3.791 6.8 6.8 0 0 1 2.573-.721 7.5 7.5 0 0 1 2.53.209l.274.065.331.072.541.144c.346.087.858.231 1.521.425a71 71 0 0 1 5.406 1.802 66 66 0 0 1 7.532 3.388 59.5 59.5 0 0 1 8.268 5.262 62 62 0 0 1 3.936 3.294c1.254 1.132 2.357 2.285 3.539 3.604a52 52 0 0 1 5.413 7.208 50 50 0 0 1 3.013 5.615l.137.288q.16.348.288.642l.526 1.254c.302.71.373 1.497.202 2.249a2.5 2.5 0 0 1-1.441 1.759l-20.529 10.812h-.086c-.137.05-.584.302-.88.475a6.6 6.6 0 0 1-2.241.995m-1.139-6.595c.086.18.151.339.201.454q.025.06.044.123l1.312 2.969.555-.317q.581-.355 1.203-.634l20.457-10.755c.028-.188.003-.38-.073-.555l-.518-1.232c-.072-.173-.166-.368-.26-.577l-.137-.295a48.6 48.6 0 0 0-7.986-12.16 47 47 0 0 0-3.359-3.41 51 51 0 0 0-3.748-3.142 56 56 0 0 0-7.893-5.046 64 64 0 0 0-7.208-3.251 70 70 0 0 0-5.204-1.737l-1.442-.404-.533-.144h-.173l-.418-.108a5 5 0 0 0-1.637-.137 4.2 4.2 0 0 0-1.549.447 2.566 2.566 0 0 0-1.363 3.128l.635 2.098-2.293-.418a3.9 3.9 0 0 0-1.081-.043 3.54 3.54 0 0 0-1.751.612 2.72 2.72 0 0 0-1.197 2.004 3.14 3.14 0 0 0 .418 1.838c.32.572.788 1.048 1.355 1.377l1.305.764-.915 1.204a3 3 0 0 0-.57 1.441 3.54 3.54 0 0 0 .317 2.011c.259.565.68 1.04 1.211 1.363l1.262.72-.851 1.19a3.4 3.4 0 0 0-.562 1.369 3.9 3.9 0 0 0 .339 2.473 2.26 2.26 0 0 0 1.297 1.182c.202.043.519.137 1.11.302.462.137 1.377.411 2.357.721.721.253 1.557.57 2.263.858l.938.411h.093l.642.295.396.188c.57.281 1.326.67 2.206 1.175a32 32 0 0 1 2.883 1.859 28 28 0 0 1 2.883 2.429 25 25 0 0 1 2.393 2.711 25 25 0 0 1 1.622 2.703c.49.8.836 1.542 1.016 1.946z"/>
  <path fill="#2563EB" d="m114.368 68.096 35.665 8.253v51.393c0 5.766-1.723 8.369-6.992 12.556-7.77 6.17-28.673 22.302-28.673 22.302s-20.903-16.132-28.674-22.302c-5.269-4.187-6.999-6.818-6.999-12.556V76.349z"/>
  <path fill="#000" d="M114.368 164.503a1.87 1.87 0 0 1-1.16-.397c-.21-.158-21.005-16.211-28.696-22.345-5.334-4.238-7.712-7.273-7.712-14.048V76.32a1.9 1.9 0 0 1 1.441-1.853l35.666-8.253c.282-.065.575-.065.858 0l35.672 8.253a1.9 1.9 0 0 1 1.442 1.853v51.393c0 6.775-2.379 9.81-7.713 14.048-7.691 6.106-28.486 22.158-28.695 22.345a1.87 1.87 0 0 1-1.103.397m-33.77-86.64v49.879c0 4.887 1.233 7.064 6.279 11.064 6.617 5.262 22.986 17.912 27.491 21.393 4.505-3.481 20.903-16.131 27.491-21.393 5.046-4 6.279-6.177 6.279-11.064v-49.88l-33.77-7.813z"/>
  <path fill="#fff" d="M158.603 125.925c-7.438-1.564-12.368-1.038-19.548.577a3.94 3.94 0 0 0-2.753 5.197c.721 2.537 2.58 3.366 4.498 2.818 4.98-1.254 8.116-1.751 13.414-.721-1.687 7.079.548 15.137 6.761 17.732z"/>
  <path fill="#000" d="M161.083 152.811c-.204.023-.41-.01-.598-.093a12.97 12.97 0 0 1-7.042-7.929 20 20 0 0 1-.721-9.94c-4.145-.678-6.97-.267-11.598.894-2.782.785-5.146-.656-6.033-3.676a5.46 5.46 0 0 1 .382-4.275 5.32 5.32 0 0 1 3.258-2.486h.051c7.316-1.651 12.433-2.163 20.081-.584a1.24 1.24 0 0 1 .794.541 1.24 1.24 0 0 1 .179.944 1.255 1.255 0 0 1-1.485.973c-7.208-1.514-11.893-1.024-18.986.569a2.82 2.82 0 0 0-1.701 1.29 2.95 2.95 0 0 0-.158 2.336c.497 1.694 1.513 2.371 2.948 1.96h.043c5.363-1.348 8.65-1.773 13.962-.721a1.28 1.28 0 0 1 .815.555 1.25 1.25 0 0 1 .158.974 17.75 17.75 0 0 0 .389 9.824 10.497 10.497 0 0 0 5.644 6.487 1.254 1.254 0 0 1-.382 2.408z"/>
  <path fill="#2563EB" d="m156.311 177.009 33.561.151v-1.211c0-.26 0-.548-.036-.865s0-.721-.05-1.074-.058-.786-.101-1.218c0-.216-.037-.44-.058-.67s-.051-.455-.072-.721c-.065-.469-.116-.973-.195-1.442a63 63 0 0 0-1.297-6.538 78 78 0 0 0-2.055-6.804 104 104 0 0 0-4.879-11.533c-.721-1.521-1.442-2.775-1.896-3.669-.252-.461-.454-.814-.584-1.059a8 8 0 0 0-.223-.397l-29.15 16.636.116.21.353.634c.31.569.764 1.441 1.283 2.487a71 71 0 0 1 3.294 7.784c.49 1.391.894 2.746 1.196 3.95q.393 1.515.62 3.064c0 .209.044.389.073.569s0 .18 0 .26v.223c0 .144-.001.281.035.404.037.122 0 .223 0 .317v.548z"/>
  <path fill="#2563EB" d="M189.871 178.948a1.79 1.79 0 0 1-1.787-1.788v-1.175l-.079-1.874c0-.31-.051-.641-.087-.995l-.072-.836c0-.13 0-.274-.043-.418l-.072-.605c-.043-.346-.087-.721-.137-1.038a62 62 0 0 0-1.262-6.365 82 82 0 0 0-2.011-6.646 102 102 0 0 0-4.793-11.367c-.721-1.485-1.369-2.681-1.787-3.467l-26.058 14.87c.267.498.591 1.125.952 1.853a74 74 0 0 1 3.38 7.993 50 50 0 0 1 1.24 4.095q.412 1.603.649 3.243.04.196.05.397v.497l.051.605v1.024a1.801 1.801 0 0 1-3.604 0v-.447a.1.1 0 0 1 0-.043v-.887a.6.6 0 0 1 0-.122c0-.087 0-.173-.036-.26-.036-.086 0-.166 0-.259a26 26 0 0 0-.577-2.883c-.303-1.204-.721-2.516-1.146-3.785a69 69 0 0 0-3.215-7.59 58 58 0 0 0-1.254-2.422l-.454-.821a1.78 1.78 0 0 1 .67-2.429l29.178-16.629a1.8 1.8 0 0 1 1.363-.173c.456.13.843.432 1.081.843l.216.389.584 1.06c.44.814 1.132 2.112 1.939 3.741a109 109 0 0 1 4.966 11.77 85 85 0 0 1 2.098 6.956 64 64 0 0 1 1.333 6.725c.058.382.101.721.144 1.125l.073.605c0 .173.043.339.057.512l.08.865c0 .382.057.721.086 1.074l.086 1.953v1.334a1.79 1.79 0 0 1-1.787 1.787z"/>
  <path fill="#000" d="M181.46 172.107a.782.782 0 0 0 .815-.274.79.79 0 0 0 .171-.584.785.785 0 0 0-.294-.533c-3.417-2.746-8.296-4.909-14.502-6.422a62 62 0 0 0-8.29-1.442.795.795 0 0 0-.144 1.586c.144 0 14.207 1.326 21.941 7.539a.9.9 0 0 0 .303.13M159.202 161.209a.8.8 0 0 0 .447 0c.122 0 12.253-3.972 21.955-.772a.797.797 0 0 0 .498-1.513c-10.2-3.359-22.439.612-22.951.778a.8.8 0 0 0-.538.783.795.795 0 0 0 .589.745z"/>
  <path fill="#fff" d="m105.571 132.923-17.694-17.706 8.063-8.069 9.631 9.666 28.15-28.199 8.064 8.07z"/>
</svg>
