<svg xmlns="http://www.w3.org/2000/svg" width="192" height="192" fill="none" viewBox="0 0 192 192">
  <path fill="#fff" d="M0 0h192v192H0z"/>
  <path fill="#000" d="M11.145 146.822h29.35a2.65 2.65 0 0 1 1.868.774 2.64 2.64 0 0 1 .773 1.867v29.367a2.64 2.64 0 0 1-2.64 2.64H11.15a2.646 2.646 0 0 1-2.646-2.64v-29.351a2.64 2.64 0 0 1 1.626-2.454 2.6 2.6 0 0 1 1.014-.203"/>
  <path fill="#fff" d="M40.496 148.682H11.15a.785.785 0 0 0-.786.785v29.345c0 .434.352.786.786.786h29.345a.786.786 0 0 0 .785-.786v-29.345a.785.785 0 0 0-.785-.785"/>
  <path fill="#2563EB" d="M26.039 174.1a2.58 2.58 0 0 1-2.008-.955l-8.892-10.867a2.593 2.593 0 0 1 2.28-4.159 2.6 2.6 0 0 1 1.735.885l6.776 8.287 17.13-23.164a2.596 2.596 0 0 1 4.575 1.192 2.6 2.6 0 0 1-.401 1.891l-19.095 25.848a2.588 2.588 0 0 1-2.024 1.047zM175.165 76.588a5.055 5.055 0 0 1-4.672-3.115 5.055 5.055 0 0 1 3.679-6.891 5.05 5.05 0 0 1 4.558 8.521 5.06 5.06 0 0 1-3.565 1.485m0-8.8a3.755 3.755 0 0 0-2.66 6.408 3.754 3.754 0 1 0 2.66-6.408M19.803 33.042H11.62v-8.184a1.146 1.146 0 1 0-2.291 0v8.184H1.146a1.146 1.146 0 0 0 0 2.291h8.183v8.183a1.146 1.146 0 1 0 2.291 0v-8.183h8.183a1.145 1.145 0 1 0 0-2.291M138.378 179.325l-7.501-5.259a1.14 1.14 0 0 0-1.315 0l-6.841 4.801-6.847-4.801a1.14 1.14 0 0 0-1.315 0l-6.841 4.801-6.841-4.801a1.14 1.14 0 0 0-1.315 0l-6.847 4.801-6.84-4.801a1.14 1.14 0 0 0-1.315 0l-6.841 4.801-6.842-4.801a1.14 1.14 0 0 0-1.315 0l-7.506 5.259a1.16 1.16 0 0 0-.471.742 1.14 1.14 0 0 0 .192.857 1.15 1.15 0 0 0 1.593.278l6.842-4.796 6.84 4.796a1.15 1.15 0 0 0 1.321 0l6.841-4.796 6.841 4.796a1.145 1.145 0 0 0 1.315 0l6.841-4.796 6.847 4.796a1.14 1.14 0 0 0 1.315 0l6.841-4.796 6.841 4.796a1.145 1.145 0 0 0 1.315 0l6.841-4.796 6.847 4.796a1.147 1.147 0 1 0 1.32-1.877M142.612 17.986s1.762 2.499 4.44 2.624c1.637.076 3.11-.704 4.436-2.319 1.636-2.013 2.7-2.405 3.273-2.378.862.043 1.637 1.09 2.302 2.073 0 0 1.757 2.499 4.441 2.624 1.637.076 3.11-.704 4.435-2.319.999-1.21 1.992-1.816 2.963-1.794 1.495.027 2.635 1.5 2.656 1.532a1.148 1.148 0 0 0 2.054-.518c.044-.301-.033-.607-.215-.85-.071-.099-1.8-2.39-4.43-2.456-1.713-.043-3.328.84-4.795 2.63-.835 1.009-1.68 1.51-2.521 1.49-1.243-.04-2.389-1.217-2.695-1.637-.758-1.092-2.013-2.963-4.086-3.061-1.636-.076-3.322.971-5.161 3.208-.834 1.009-1.68 1.51-2.52 1.49-1.244-.04-2.39-1.217-2.701-1.637-.752-1.092-2.007-2.963-4.08-3.061-1.637-.076-3.323.971-5.161 3.208-.835 1.009-1.68 1.51-2.521 1.49-1.249-.04-2.389-1.217-2.7-1.637-.753-1.092-2.008-2.963-4.081-3.061-1.636-.076-3.322.971-5.161 3.208a1.14 1.14 0 0 0-.153 1.215c.073.153.179.288.312.394a1.145 1.145 0 0 0 1.609-.153c1.637-2.013 2.701-2.405 3.273-2.378.862.043 1.637 1.09 2.302 2.067 0 0 1.757 2.505 4.441 2.63 1.637.076 3.104-.704 4.435-2.319 1.637-2.013 2.701-2.405 3.274-2.378.894.043 1.674 1.09 2.335 2.073"/>
  <path fill="#fff" d="M173.293 113.435a1.32 1.32 0 0 0 .922-.84 2.63 2.63 0 0 0 .098-1.637s-.055-.235-.164-.671c-.06-.224-.125-.491-.207-.813s-.186-.676-.306-1.091a55 55 0 0 0-2.351-6.661 57 57 0 0 0-4.708-8.838 57 57 0 0 0-3.273-4.544 62 62 0 0 0-3.759-4.288 66 66 0 0 0-8.183-7.202 75 75 0 0 0-7.72-5.019 82 82 0 0 0-5.662-2.913c-.693-.322-1.239-.546-1.61-.731l-.573-.251a3 3 0 0 0-.294-.11l-.36-.152a6.66 6.66 0 0 0-4.741-.245 4.52 4.52 0 0 0-2.908 2.815 4.6 4.6 0 0 0-.185 2.122l-.148-.055a5.84 5.84 0 0 0-4.457.224 4.59 4.59 0 0 0-2.509 3.044 5.17 5.17 0 0 0 .207 3.05 5.7 5.7 0 0 0 1.751 2.433 4.9 4.9 0 0 0-1.293 2.144 5.54 5.54 0 0 0 0 3.197 5.1 5.1 0 0 0 1.637 2.477 5.5 5.5 0 0 0-1.228 2.007 6 6 0 0 0-.049 3.82 3.993 3.993 0 0 0 2.117 2.477c0-.001.464.195 1.14.512a59 59 0 0 1 2.439 1.216c.867.459 1.707.95 2.324 1.326l.736.458.273.18a1 1 0 0 0 .202.098l.234.153.644.442c.546.382 1.326.938 2.183 1.637a35 35 0 0 1 2.771 2.487q1.434 1.441 2.657 3.066a27 27 0 0 1 2.1 3.274q.789 1.488 1.391 3.06c.344.928.578 1.73.737 2.291.087.284.131.546.174.666.044.12 1.31 4.872 1.31 4.872.125.545 2.853-.808 3.682-.966z"/>
  <path fill="#000" d="M144.766 124.612a1.694 1.694 0 0 1-1.593-1.271c-.218-.797-1.216-4.512-1.309-4.856 0-.071-.038-.147-.06-.245a5 5 0 0 0-.098-.377 28 28 0 0 0-.704-2.182 24 24 0 0 0-1.304-2.88 25.5 25.5 0 0 0-1.98-3.088 28 28 0 0 0-2.521-2.908 33 33 0 0 0-2.64-2.362 38 38 0 0 0-2.106-1.577l-.731-.491a3 3 0 0 1-.317-.174l-.261-.17-.72-.452a43 43 0 0 0-2.237-1.271c-.977-.546-1.899-.966-2.363-1.184l-.861-.393-.246-.11a5.51 5.51 0 0 1-2.951-3.387 7.53 7.53 0 0 1 .065-4.834c.17-.49.393-.96.666-1.402a6.8 6.8 0 0 1-1.091-2.138 7.1 7.1 0 0 1 0-4.076c.169-.562.411-1.099.72-1.598a7.3 7.3 0 0 1-1.14-2.008 6.64 6.64 0 0 1-.257-3.95 6.18 6.18 0 0 1 3.317-4.053 7.2 7.2 0 0 1 3.819-.682q.074-.365.191-.72a6.08 6.08 0 0 1 3.857-3.775 7.9 7.9 0 0 1 3.028-.393 8.7 8.7 0 0 1 2.809.677l.295.125c.12.038.245.088.365.137l.584.256 1.637.742a84 84 0 0 1 5.766 2.973 76 76 0 0 1 7.883 5.123 67.5 67.5 0 0 1 8.396 7.37 72 72 0 0 1 3.846 4.365 61 61 0 0 1 3.361 4.659 58.6 58.6 0 0 1 7.25 15.919l.098.349q.123.426.213.78l.377 1.495c.219.852.16 1.753-.169 2.569a2.83 2.83 0 0 1-1.921 1.73l-24.986 8.597h-.098q-.555.163-1.091.382c-1.271.508-2.084.802-2.788.759m-.131-7.638c.066.213.109.404.142.546.033.141.027.103.038.147l.96 3.568c.251-.088.497-.186.682-.257q.716-.297 1.463-.502l24.898-8.543c.06-.208.06-.43 0-.638l-.371-1.479c-.054-.201-.12-.436-.196-.692l-.098-.355a54 54 0 0 0-2.286-6.476 55.3 55.3 0 0 0-4.583-8.603 58 58 0 0 0-3.186-4.424 61 61 0 0 0-3.671-4.185 63.5 63.5 0 0 0-8.009-7.032 72 72 0 0 0-7.567-4.91 81 81 0 0 0-5.548-2.864c-.693-.316-1.227-.545-1.576-.715l-.579-.25-.109-.039-.082-.027-.398-.12a5.6 5.6 0 0 0-1.817-.442 4.6 4.6 0 0 0-1.822.23 3.02 3.02 0 0 0-1.964 1.86c-.147.459-.188.946-.12 1.423l.349 2.472-2.504-.868a4.6 4.6 0 0 0-1.211-.245 4.1 4.1 0 0 0-2.079.393 3.088 3.088 0 0 0-1.696 2.04 3.66 3.66 0 0 0 .153 2.15 4.24 4.24 0 0 0 1.282 1.783l1.336 1.091-1.238 1.195c-.418.41-.724.922-.889 1.484a4.03 4.03 0 0 0 0 2.319 3.55 3.55 0 0 0 1.124 1.74l1.276 1.015-1.162 1.195c-.395.41-.693.904-.873 1.445a4.4 4.4 0 0 0-.043 2.843 2.49 2.49 0 0 0 1.254 1.549c.213.087.546.245 1.195.545.497.235 1.473.699 2.515 1.26.786.415 1.637.917 2.4 1.365l.983.621.109.039.665.441.415.279c.589.414 1.38.982 2.275 1.702a36 36 0 0 1 2.896 2.597 32 32 0 0 1 2.805 3.229 28 28 0 0 1 2.215 3.47 27 27 0 0 1 1.472 3.273c.382.993.639 1.888.775 2.379z"/>
  <path fill="#2563EB" d="m177.968 111.766.083.229c.049.147.125.365.218.649.092.284.207.616.338 1.02q.198.606.436 1.359c.159.501.339 1.091.546 1.669s.371 1.249.578 1.948c.426 1.391.846 2.94 1.32 4.642a251 251 0 0 1 5.368 25.024 244 244 0 0 1 1.801 13.546c.267 2.183.404 4.283.573 6.28l.234 2.913c.077.938.098 1.86.142 2.728.082 1.756.164 3.366.229 4.789.066 1.424.044 2.679.066 3.705l.043 3.235-38.221.049s0-.971-.043-2.668c0-.845 0-1.876-.044-3.066s-.126-2.52-.196-3.982c-.039-.731-.066-1.495-.115-2.281-.049-.785-.131-1.604-.202-2.438-.142-1.675-.245-3.448-.474-5.276a206 206 0 0 0-1.528-11.456 212 212 0 0 0-4.517-21.113c-.398-1.396-.742-2.695-1.091-3.819-.164-.545-.317-1.091-.464-1.565q-.221-.711-.409-1.299c-.126-.393-.229-.742-.327-1.025-.099-.284-.181-.546-.246-.737l-.147-.442-.049-.136z"/>
  <path fill="#2563EB" d="M151.428 187.574q.153.016.305 0a2.04 2.04 0 0 0 1.433-.614 2.04 2.04 0 0 0 .575-1.448l-.039-2.668v-.999c0-.621 0-1.325-.032-2.089a.2.2 0 0 0 0-.049l-.197-3.988c0-.267 0-.546-.038-.807 0-.486-.043-.982-.076-1.49v-.043l-.202-2.444-.115-1.452c-.098-1.249-.196-2.542-.37-3.884a201 201 0 0 0-1.533-11.538 214 214 0 0 0-4.572-21.32l-.344-1.244a91 91 0 0 0-.747-2.613l-.464-1.561v-.027l-.409-1.298c-.055-.164-.098-.322-.147-.464l32.269-11.189c.131.382.262.802.409 1.271l.545 1.637.579 1.931c.311 1.031.627 2.182.954 3.355l.355 1.26a247 247 0 0 1 5.314 24.795 237 237 0 0 1 1.789 13.437.1.1 0 0 1 0 .038c.191 1.555.316 3.11.431 4.61.044.546.087 1.091.131 1.593l.234 2.881q.051.918.093 1.795c0 .305 0 .605.044.905l.229 4.757c0 .939.038 1.812.049 2.581v1.091l.044 3.224a2.04 2.04 0 0 0 4.075-.054l-.044-3.236v-1.091c0-.785 0-1.68-.049-2.656v-.044l-.234-4.79c0-.3-.028-.595-.044-.895q-.04-.909-.098-1.86v-.044l-.235-2.913c-.043-.545-.087-1.047-.125-1.577-.126-1.538-.251-3.126-.453-4.768a243 243 0 0 0-1.817-13.638 251 251 0 0 0-5.412-25.232q-.178-.654-.349-1.26c-.338-1.222-.66-2.379-.987-3.448l-.573-1.931-.546-1.67a77 77 0 0 0-.447-1.402l-.649-1.915a2.02 2.02 0 0 0-1.033-1.164 2.037 2.037 0 0 0-1.553-.09l-36.115 12.547a2.05 2.05 0 0 0-1.255 2.597l.049.137c.027.076.071.212.125.387l.246.742c.093.267.196.594.322.993l.404 1.282.463 1.549c.23.747.469 1.604.72 2.51q.165.605.344 1.243a207 207 0 0 1 4.474 20.884c.605 3.726 1.091 7.534 1.505 11.331v.044a76 76 0 0 1 .349 3.715c.039.496.077.993.121 1.478l.196 2.406q.04.727.071 1.413c0 .284.027.546.038.829l.196 3.956c0 .731.001 1.407.033 2.007v1.02l.038 2.663a2.036 2.036 0 0 0 1.752 2.013"/>
  <path fill="#000" d="M170.887 182.424h.093a.9.9 0 0 0 .648-.243.9.9 0 0 0 .285-.63c0-.213.169-5.27-.889-14.654-.977-8.63-3.224-22.678-8.385-40.599a.904.904 0 0 0-1.735.501c5.123 17.802 7.354 31.74 8.319 40.3 1.048 9.274.884 14.337.884 14.392a.9.9 0 0 0 .78.933"/>
  <path fill="#000" d="M182.644 167.231a.908.908 0 0 0 .942-1.166.9.9 0 0 0-.337-.471c-4.233-2.651-10.038-4.452-17.255-5.346a70 70 0 0 0-9.575-.546.906.906 0 1 0 .05 1.811c.163 0 16.241-.387 25.82 5.62q.167.086.355.098M156.032 157.879a.94.94 0 0 0 .502-.071c.131-.065 13.35-6.121 24.735-3.819a.903.903 0 0 0 .905-1.377.9.9 0 0 0-.545-.396c-12.002-2.449-25.297 3.667-25.859 3.928a.9.9 0 0 0-.517.956.896.896 0 0 0 .779.757z"/>
  <mask id="a" width="154" height="153" x="2" y="5" maskUnits="userSpaceOnUse" style="mask-type:alpha">
    <path fill="#007AFF" d="m11.522 117.929 86.715 38.002a14.28 14.28 0 0 0 10.911.215 14.28 14.28 0 0 0 7.877-7.552l37.436-85.422a14.274 14.274 0 0 0-7.354-18.783L60.365 6.38a14.27 14.27 0 0 0-18.784 7.338L4.173 99.13a14.28 14.28 0 0 0 7.349 18.8"/>
  </mask>
  <g mask="url(#a)">
    <path fill="#2563EB" d="M168.061 46.391 47.875-5.176-3.692 115.011l120.186 51.567z"/>
    <path fill="#000" d="M75.805 88.785a30.643 30.643 0 0 0 40.243-16.078c7.154-16.673-3.543-33.764-16.078-40.243-8.992-4.646-22.561-5.717-31.756 1.794-5.955 4.873-7.754 11.452-8.487 14.284-2.98 11.536-1.363 32.76 16.078 40.243"/>
    <path fill="#000" d="M57.747 61.268a.71.71 0 0 1-.435-.658c-.01-2.584.278-5.16.859-7.678a38.8 38.8 0 0 1 6.859-14.43c3.567-4.665 7.83-7.965 12.332-9.542 6.497-2.27 14.472-1.262 21.88 2.776 7.864 4.289 14.354 11.54 18.264 20.426a.718.718 0 0 1-1.158.832.7.7 0 0 1-.153-.25c-3.788-8.6-10.051-15.611-17.641-19.749-7.055-3.842-14.604-4.82-20.719-2.677-6.786 2.37-15.397 10.564-18.264 22.936a32 32 0 0 0-.823 7.354.716.716 0 0 1-1 .66"/>
    <path fill="#fff" d="M63.572 58.982s-1.026-6.461-6.514-6.007c-7.705.646-8.155 16.265-1.304 20.453 6.852 4.188 7.818-14.446 7.818-14.446"/>
    <path fill="#2563EB" d="M55.495 59.091a8.44 8.44 0 0 0-2.238 8.24c.237.89 1.633.559 1.393-.338a6.96 6.96 0 0 1 1.852-6.868c.62-.626-.353-1.69-1.007-1.034"/>
    <path fill="#fff" d="m65.55 82.87-19.39 51.735 27.358 12.017 16.22-43.277-6.11-5.177z"/>
    <path fill="#BFDBFE" d="M62.675 93.693a25.93 25.93 0 0 0 5.19 15.063c3.393 4.581 11.323 6.779 16.905 7.8l13.064-33q-7.099 7.311-14.21 14.621z"/>
    <path fill="#fff" d="M102.423 78.324c-.773-.611 5.025-6.01 3.956-12.13-.575-3.278-2.572-3.675-2.672-6.81-.142-4.364 3.673-5.447 3.491-8.673-.281-5.047-9.943-8.349-16.068-10.452-6.305-2.157-10.475-2.223-12.884-2.096-2 .069-3.985.38-5.91.93C63.788 41.855 60.263 53.3 56.72 64.811c-3.256 10.585-3.116 16.408-2.772 19.829.4 4.003.749 7.108 2.957 10.278 4.973 7.137 14 8.196 16.04 8.426 4.29.4 8.614-.212 12.623-1.787 16.708-6.411 23.997-26.755 22.794-27.61-.684-.485-5.152 5.003-5.939 4.376"/>
    <path fill="#000" d="M83.751 69.332c-.96 2.023-.773 4.124.418 4.69 1.192.565 2.937-.618 3.875-2.651s.78-4.127-.412-4.693-2.913.628-3.88 2.654M65.935 61.704c-.742 2.111-.344 4.181.9 4.623 1.246.44 2.858-.92 3.605-3.03s.346-4.187-.901-4.623-2.856.915-3.604 3.03M89.57 57.697c-1.924-.618-4.33-.484-4.904 1.825-.382 1.528 1.12 1.942 2.288 2.257 2.314.615 4.222 2.228 6.508 2.793.384.12.791.14 1.185.059 1.233-.324.834-1.536.292-2.327a14.6 14.6 0 0 0-2.947-3.338 7.8 7.8 0 0 0-2.422-1.27M72.248 50.69c-2.234-.827-4.756-.398-6.93.41-.41.105-.765.358-1 .71a1.12 1.12 0 0 0 .149 1.158c.261.317.598.563.98.716 1.935.896 4.265 1.003 6.292 1.725.948.342 2.498 1.4 3.44.469 1.582-1.57-.163-3.54-1.784-4.597a6.4 6.4 0 0 0-1.147-.59"/>
    <path fill="#fff" d="M106.551 75.129s4.922-4.315 8.847-.452c5.509 5.429-4.138 17.721-12.077 16.553-7.94-1.167 3.23-16.102 3.23-16.102"/>
    <path fill="#2563EB" d="M109.562 79.453a8.44 8.44 0 0 1-3.561 7.777c-.772.522-1.613-.616-.858-1.151a6.974 6.974 0 0 0 2.993-6.44c-.096-.938 1.327-1.116 1.426-.186"/>
    <path fill="#000" d="M80.352 43.46c7.848 3.203 17.804 1.47 18.622-1.736.63-2.466-4.183-5.56-13.619-11.634-8.775-5.649-10.157-4.851-10.479-4.497-.959 1.023 1.724 4.363.767 5.255-1.407 1.302-7.31-4.33-8.31-3.417-1.162 1.012 3.167 12.01 13.019 16.03"/>
    <path fill="#000" d="m79.147 43.77-.62-.266C70.806 39.89 66.482 32.03 65.988 28.819c-.134-.874-.014-1.473.373-1.827.915-.856 2.65.201 5.036 1.657 1.085.662 2.83 1.723 3.533 1.844a10 10 0 0 0-.653-1.615c-.632-1.334-1.273-2.736-.487-3.56s2.19-.549 4.81.822a.719.719 0 1 1-.668 1.273c-2.169-1.133-2.896-1.133-3.075-1.1-.03.365.45 1.387.718 1.95.61 1.296 1.19 2.52.469 3.283-.982 1.013-2.92-.159-5.389-1.677-1.011-.615-2.642-1.61-3.292-1.741-.15 1.687 3.678 10.28 11.775 14.067 6.429 3.004 12.831 1.745 16.079.72a.72.72 0 0 1 .427 1.364c-3.33 1.04-9.841 2.346-16.498-.51M111.811 141.377c-.41-.318-.829-.618-1.246-.923-.674-.508-1.341-.98-2.008-1.469-1.251-.909-2.536-1.844-3.832-2.739-6.393-5.359-14.04-11.749-18.041-15.092-.401-.341-.778-.662-1.102-.927l-1.64-1.371s-13.226 1.791-18.415 1.792a10 10 0 0 1-1.681-.113l-.028-.012a.3.3 0 0 1-.102-.044 2 2 0 0 1-.468-.261 5 5 0 0 1-.563-.537 10 10 0 0 1-.67-.835c-2.551-3.355-5.928-10.666-5.928-10.666l-2.153.029-1.531.01-21.556.259c-.528-.046-6.13-.501-14.024-.713l-2.01-.036c-4.652-.091-9.96-.081-15.39.151l-3.047 7.1 120.186 51.567 6.928-16.146a390 390 0 0 0-11.679-9.024"/>
    <path fill="#2563EB" d="M61.988 118.894c.353.504.77.961 1.24 1.358l-14.425.998a.72.72 0 0 1-.729-.953l4.302-12.03 1.532-.011-4.122 11.494zM86.646 121.166l-14.663 12.806a.77.77 0 0 1-.613.153.6.6 0 0 1-.143-.061.66.66 0 0 1-.346-.318l-7.109-13.231a7.7 7.7 0 0 0 1.709.125l6.232 11.64 13.823-12.061c.332.285.695.6 1.11.947"/>
    <path fill="#fff" d="M64.234 129.913c-.572 1.332-1.85 2.064-2.848 1.636s-1.343-1.857-.772-3.189c.571-1.331 1.844-2.066 2.843-1.637s1.35 1.854.777 3.19"/>
    <path fill="#2563EB" d="M53.235 139.435a755 755 0 0 1 10.573-18.89l-.027-.011a.3.3 0 0 1-.102-.044 2 2 0 0 1-.468-.261 5 5 0 0 1-.564-.537 703 703 0 0 0-10.728 19.162zM69.315 76.674a.6.6 0 0 1-.172-.074 22 22 0 0 1-1.55-1.322 25 25 0 0 1-1.462-1.492 2.954 2.954 0 0 1 .338-4.234l6.861-5.567a.72.72 0 0 1 1.01.11.71.71 0 0 1-.104 1.006l-6.859 5.563a1.51 1.51 0 0 0-.183 2.188c.436.488.906.936 1.369 1.403s.953.852 1.455 1.237a.72.72 0 0 1 .115 1.007.71.71 0 0 1-.819.175M67.45 85.025a15.248 15.248 0 0 1-6.013-4.676.72.72 0 0 1 .102-1.04.72.72 0 0 1 1.033.158 13.8 13.8 0 0 0 4.162 3.603 14.56 14.56 0 0 0 9.193 1.602.718.718 0 1 1 .211 1.42c-2.939.447-5.944.078-8.688-1.067"/>
  </g>
  <path fill="#000" d="M103.943 158.594a15.6 15.6 0 0 1-6.295-1.325l-86.742-38.003a15.75 15.75 0 0 1-8.09-20.731L40.25 13.108A15.76 15.76 0 0 1 54.68 3.69c2.167 0 4.312.45 6.295 1.326l86.742 38.003a15.759 15.759 0 0 1 8.096 20.73l-37.441 85.428a15.75 15.75 0 0 1-14.43 9.416M54.703 6.643a12.8 12.8 0 0 0-11.73 7.638L5.533 99.708a12.8 12.8 0 0 0 2.479 14.018 12.8 12.8 0 0 0 4.1 2.861l86.741 38.008a12.6 12.6 0 0 0 5.112 1.091 12.79 12.79 0 0 0 11.729-7.637l37.414-85.471a12.8 12.8 0 0 0-6.546-16.841L59.82 7.728a12.8 12.8 0 0 0-5.118-1.074z"/>
  <path fill="#fff" d="M133.31 83.697c8.363-.546 14.004-.3 22.1 2.728l-1.8 29.268c-6.547-4.037-7.638-13.469-4.523-21.14-5.772-2.116-9.388-2.1-15.215-1.56-2.258.284-4.179-.966-4.572-3.955-.425-3.208 1.702-5.08 4.01-5.341"/>
  <path fill="#000" d="M153.512 117.133a1.433 1.433 0 0 0 1.434-1.922 1.43 1.43 0 0 0-.584-.724c-6.153-3.819-6.628-12.82-3.944-19.378.14-.35.14-.74 0-1.09a1.43 1.43 0 0 0-.818-.77c-5.794-2.122-9.569-2.226-15.821-1.637-1.735.218-2.761-.725-3.022-2.727a3.37 3.37 0 0 1 .583-2.603 3.22 3.22 0 0 1 2.139-1.156c8.265-.546 13.595-.295 21.467 2.673a1.43 1.43 0 0 0 1.01-2.679c-8.331-3.142-14.185-3.426-22.701-2.848h-.065a6.08 6.08 0 0 0-4.103 2.237 6.2 6.2 0 0 0-1.167 4.741c.464 3.568 2.886 5.603 6.17 5.194 5.379-.502 8.631-.475 13.186 1.009a22.8 22.8 0 0 0-.922 11.32c.824 4.457 3.148 8.069 6.546 10.164.186.111.395.178.612.196"/>
</svg>
