<svg xmlns="http://www.w3.org/2000/svg" fill="none" viewBox="0 0 260 260">
  <g clip-path="url(#a)">
    <path fill="#fff" d="M0 0h260v260H0z"/>
    <path fill="#000" d="M210.939 213.366h-34.143a3.45 3.45 0 0 1-2.448-1.023 3.5 3.5 0 0 1-1.014-2.468v-34.427a3.52 3.52 0 0 1 1.016-2.467 3.46 3.46 0 0 1 2.446-1.024h34.143c.918.002 1.798.37 2.446 1.024a3.52 3.52 0 0 1 1.017 2.467v34.427c0 .926-.365 1.814-1.015 2.468a3.45 3.45 0 0 1-2.448 1.023m-34.143-38.448a.51.51 0 0 0-.485.321.5.5 0 0 0-.041.202v34.427a.5.5 0 0 0 .039.204.51.51 0 0 0 .487.326h34.143a.52.52 0 0 0 .374-.153.52.52 0 0 0 .152-.377v-34.427a.52.52 0 0 0-.526-.523z"/>
    <path fill="#2563EB" d="M194.613 206.039a3.4 3.4 0 0 1-1.583-.403 3.4 3.4 0 0 1-1.217-1.098l-10.926-16.16a3.477 3.477 0 0 1-.066-3.857 3.403 3.403 0 0 1 3.526-1.497 3.4 3.4 0 0 1 2.187 1.485l8.099 12.029 18.731-26.936a3.4 3.4 0 0 1 2.205-1.415 3.4 3.4 0 0 1 2.551.571 3.45 3.45 0 0 1 1.404 2.223c.157.9-.047 1.825-.567 2.573l-21.572 30.984a3.4 3.4 0 0 1-1.204 1.092 3.4 3.4 0 0 1-1.568.409M245.344 129.007l-22.9-12.681a1.7 1.7 0 0 0-.754-.193 1.6 1.6 0 0 0-.774.183 1.47 1.47 0 0 0-.766 1.071c-.029.19-.017.384.034.571s.141.361.264.514c.122.154.275.283.451.38l22.908 12.681a1.612 1.612 0 0 0 1.717-.099c.162-.117.298-.263.4-.429a1.411 1.411 0 0 0-.105-1.626 1.5 1.5 0 0 0-.453-.379zM228.801 90.048c0 .44.152.864.423 1.177.27.313.638.491 1.023.496l24.84.145a1.36 1.36 0 0 0 1.023-.485c.272-.31.424-.732.424-1.171s-.152-.861-.424-1.172a1.36 1.36 0 0 0-1.023-.485l-24.847-.154c-.38.005-.744.18-1.014.488a1.8 1.8 0 0 0-.425 1.16M224.073 63.867l21.339-12.591a1.48 1.48 0 0 0 .671-.896 1.53 1.53 0 0 0-.134-1.126 1.5 1.5 0 0 0-.529-.53 1.4 1.4 0 0 0-.712-.192 1.46 1.46 0 0 0-.698.195l-21.332 12.591a1.482 1.482 0 0 0-.743.888c-.059.193-.079.396-.059.597a1.5 1.5 0 0 0 .555 1.026 1.388 1.388 0 0 0 1.642.067zM18.073 129.007l21.374-12.681c.215-.122.457-.188.703-.193a1.413 1.413 0 0 1 1.252.714 1.48 1.48 0 0 1-.514 2.005l-21.38 12.681a1.43 1.43 0 0 1-1.976-.528 1.48 1.48 0 0 1 .52-2.005zM34.668 90.048c.002.434-.154.853-.434 1.165-.281.313-.664.495-1.067.508l-26.427.145c-.408 0-.8-.174-1.088-.485a1.72 1.72 0 0 1-.45-1.171c0-.44.161-.861.45-1.172.288-.31.68-.485 1.088-.485l26.42-.154c.4.01.782.189 1.063.496.282.308.441.721.445 1.153M39.245 63.896 16.367 51.305a1.5 1.5 0 0 1-.647-.714 1.44 1.44 0 0 1-.069-.947c.085-.314.274-.593.538-.793.265-.201.59-.313.926-.319.262.005.519.072.748.195l22.87 12.591c.189.088.357.212.494.365q.207.231.303.523a1.43 1.43 0 0 1-.124 1.17c-.102.176-.241.33-.407.453a1.586 1.586 0 0 1-1.761.067z"/>
    <path fill="#000" d="M131.734 171.599a81.47 81.47 0 0 1-75.265-50.29A81.468 81.468 0 0 1 162.91 14.867a81.46 81.46 0 0 1 50.291 75.266 81.563 81.563 0 0 1-81.467 81.466m0-157.269a75.802 75.802 0 1 0 75.803 75.803 75.89 75.89 0 0 0-75.803-75.802"/>
    <path fill="#000" d="M131.734 36.4c-.227 0-.453-.053-.663-.155a1.75 1.75 0 0 1-.562-.441 2.1 2.1 0 0 1-.376-.66 2.4 2.4 0 0 1-.132-.78V19.369c0-.54.183-1.057.508-1.439s.765-.596 1.225-.596.901.214 1.226.596.507.9.507 1.439v14.967a2.4 2.4 0 0 1-.124.788 2.1 2.1 0 0 1-.374.67 1.75 1.75 0 0 1-.566.449 1.5 1.5 0 0 1-.669.158M131.734 162.933c-.228 0-.454-.053-.664-.156a1.75 1.75 0 0 1-.564-.444 2.1 2.1 0 0 1-.375-.663 2.3 2.3 0 0 1-.13-.782v-14.985c0-.54.183-1.058.508-1.44s.766-.597 1.225-.597.901.215 1.226.597.508.9.508 1.44v14.985c0 .268-.044.534-.131.782a2.1 2.1 0 0 1-.375.663c-.161.19-.352.341-.563.444a1.5 1.5 0 0 1-.665.156M103.906 43.332c-.322.001-.639-.084-.918-.248-.278-.164-.51-.4-.67-.683L95.58 30.529a1.9 1.9 0 0 1-.182-1.415 1.86 1.86 0 0 1 .854-1.132 1.8 1.8 0 0 1 1.391-.186c.47.128.87.44 1.113.87l6.738 11.871c.24.43.304.939.177 1.416a1.87 1.87 0 0 1-.856 1.13c-.277.161-.59.247-.909.25M166.305 152.533a1.8 1.8 0 0 1-.917-.249 1.85 1.85 0 0 1-.67-.683l-6.737-11.866a1.9 1.9 0 0 1-.231-.69 1.886 1.886 0 0 1 .362-1.38 1.83 1.83 0 0 1 1.215-.716 1.825 1.825 0 0 1 1.829.915l6.737 11.873c.241.429.304.939.177 1.416a1.87 1.87 0 0 1-.855 1.131 1.77 1.77 0 0 1-.91.249M83.116 64.132a1.85 1.85 0 0 1-.935-.244l-11.91-6.736c-.213-.12-.4-.28-.549-.471a1.82 1.82 0 0 1-.371-1.355c.032-.238.112-.468.234-.677.123-.208.287-.391.481-.538a1.89 1.89 0 0 1 1.383-.363c.244.031.479.11.692.23l11.903 6.763c.344.206.61.517.759.884s.172.772.067 1.154a1.83 1.83 0 0 1-.65.963c-.318.244-.708.381-1.111.39zM192.302 126.533a1.86 1.86 0 0 1-.929-.244l-11.836-6.711a1.819 1.819 0 0 1-.989-1.839 1.821 1.821 0 0 1 .731-1.242 1.89 1.89 0 0 1 2.116-.076l11.836 6.712c.347.203.617.512.768.879.151.368.176.774.071 1.156a1.8 1.8 0 0 1-.654.964c-.319.243-.71.376-1.114.38zM76.149 91.866H62.52a1.92 1.92 0 0 1-1.31-.508 1.68 1.68 0 0 1-.543-1.225c0-.46.195-.9.543-1.226a1.92 1.92 0 0 1 1.31-.508h13.628c.491 0 .962.183 1.31.508.347.325.542.766.542 1.226s-.195.9-.542 1.225a1.92 1.92 0 0 1-1.31.508M200.948 91.866H187.32a1.92 1.92 0 0 1-1.31-.508 1.68 1.68 0 0 1-.542-1.225c0-.46.195-.9.542-1.226a1.92 1.92 0 0 1 1.31-.508h13.628c.492 0 .963.183 1.31.508s.543.766.543 1.226-.195.9-.543 1.225a1.92 1.92 0 0 1-1.31.508M71.175 126.532a1.88 1.88 0 0 1-1.119-.382 1.83 1.83 0 0 1-.657-.969 1.8 1.8 0 0 1 .072-1.163c.152-.369.423-.68.771-.884l11.892-6.756c.429-.243.939-.309 1.417-.182.479.126.886.434 1.134.855.248.422.314.923.186 1.394a1.84 1.84 0 0 1-.87 1.114l-11.892 6.749a1.86 1.86 0 0 1-.934.224M180.368 64.132a1.9 1.9 0 0 1-1.114-.386 1.83 1.83 0 0 1-.654-.961 1.8 1.8 0 0 1 .066-1.153c.149-.368.415-.678.76-.885l11.9-6.77a1.9 1.9 0 0 1 1.421-.182c.237.062.46.17.655.316s.359.328.482.536a1.783 1.783 0 0 1 .186 1.388c-.064.232-.173.45-.323.64s-.337.35-.55.47l-11.921 6.723a1.84 1.84 0 0 1-.908.264M97.171 152.533a1.77 1.77 0 0 1-.916-.249 1.87 1.87 0 0 1-.856-1.131 1.9 1.9 0 0 1 .177-1.416l6.738-11.872a1.84 1.84 0 0 1 1.113-.869c.47-.128.97-.061 1.391.186s.728.654.854 1.132.061.987-.182 1.415l-6.738 11.872c-.16.283-.39.518-.668.681-.277.164-.592.25-.913.251M159.57 43.332a1.85 1.85 0 0 1-.916-.248 1.87 1.87 0 0 1-.856-1.131 1.9 1.9 0 0 1 .178-1.416l6.738-11.872a1.84 1.84 0 0 1 1.112-.869c.47-.128.97-.061 1.391.186s.729.654.855 1.132.06.986-.183 1.415L161.151 42.4c-.16.283-.39.518-.667.681-.278.164-.593.25-.914.25M131.53 91.866a1.96 1.96 0 0 1-1.37-.567L90.702 51.84a1.938 1.938 0 0 1 2.74-2.74L132.9 88.558a1.94 1.94 0 0 1 .421 2.112 1.94 1.94 0 0 1-1.791 1.196"/>
    <path fill="#000" d="M131.836 93.6a3.57 3.57 0 0 1-2.167-.727 3.531 3.531 0 0 1-1.135-4.162 3.55 3.55 0 0 1 1.501-1.718l41.203-23.98a3.57 3.57 0 0 1 5.083 1.154 3.54 3.54 0 0 1 .325 2.812 3.54 3.54 0 0 1-1.848 2.152l-41.139 23.98a3.5 3.5 0 0 1-1.823.488"/>
    <path fill="#fff" d="M140.401 90.133a8.67 8.67 0 0 1-10.358 8.5 8.666 8.666 0 1 1 10.358-8.5"/>
    <path fill="#000" d="M131.735 100.532a10.399 10.399 0 0 1-2.029-20.6 10.4 10.4 0 0 1 12.429 10.2 10.417 10.417 0 0 1-10.4 10.4m0-16.908a6.488 6.488 0 0 0-6.362 7.752 6.485 6.485 0 0 0 11.755 2.338 6.484 6.484 0 0 0-.806-8.19 6.5 6.5 0 0 0-4.587-1.9"/>
    <path fill="#fff" d="M107.007 146.949c2.888-2.698 3.699-7.406 1.243-10.563-2.751-3.503-8.008-2.972-11.1-.129a120.5 120.5 0 0 0-26.779 37.165c4.461 1.944 8.903 3.89 13.344 5.863a105.6 105.6 0 0 1 23.292-32.336"/>
    <path fill="#000" d="M68.058 174.296a2.46 2.46 0 0 1 .07-1.887 122.3 122.3 0 0 1 27.307-37.893 11.4 11.4 0 0 1 6.886-2.947 8.97 8.97 0 0 1 7.78 3.349c3.127 3.981 2.461 10.23-1.474 13.848a103.4 103.4 0 0 0-22.724 31.577 2.43 2.43 0 0 1-3.186 1.191c-4.29-1.906-8.745-3.866-13.317-5.861a2.25 2.25 0 0 1-.787-.542 2.6 2.6 0 0 1-.555-.835m37.271-29.111c2.094-1.933 2.531-5.269.925-7.294a3 3 0 0 0-.268-.297c-1.885-1.973-5.285-1.366-7.278.447a117.5 117.5 0 0 0-25.124 34.192l8.885 3.911a108.1 108.1 0 0 1 22.86-30.959"/>
    <path fill="#fff" d="M134.294 195.331a7.35 7.35 0 0 0-8.562-4.883c5.022-1.642 7.992-4.922 7.097-9.37-.839-4.157-5.293-6.07-9.044-5.225 3.427-1.359 5.803-5.08 4.577-8.66-1.367-4.015-6.297-5.608-10.212-4.379 12.037-4.763 18.41-6.271 27.985-7.82 4.054-.544 7.151-3.181 7.065-7.218-.11-5.505-4.68-7.36-8.744-6.839-36.38 6.494-66.34 19.711-100.415 43.027a1119 1119 0 0 1 32.106 46.394 199.9 199.9 0 0 1 53.545-26.377 7.037 7.037 0 0 0 4.602-8.65"/>
    <path fill="#000" d="M74.112 231.7c-10.234-15.621-20.998-31.239-32.042-46.295a2.435 2.435 0 0 1-.085-2.743 2.4 2.4 0 0 1 .672-.694c35.102-24.012 65.421-36.999 101.371-43.415l.127-.016a11.65 11.65 0 0 1 6.578 1.023 8.87 8.87 0 0 1 4.893 8.166c.106 5.03-3.568 8.914-9.129 9.682a107.7 107.7 0 0 0-19.146 4.596 9.06 9.06 0 0 1 3.306 4.411 8.87 8.87 0 0 1-.989 7.632q.352.113.69.263a8.87 8.87 0 0 1 4.859 6.257 9.19 9.19 0 0 1-2.698 8.727 9.37 9.37 0 0 1 4.123 5.289 9.48 9.48 0 0 1-.727 7.087 9.48 9.48 0 0 1-5.454 4.584 197.6 197.6 0 0 0-52.92 26.076 2.42 2.42 0 0 1-1.851.372 2.7 2.7 0 0 1-.608-.233 2.5 2.5 0 0 1-.97-.769m52.114-38.843a2.431 2.431 0 0 1-1.259-4.689c5.253-1.712 5.879-4.521 5.461-6.566a4.1 4.1 0 0 0-2.276-2.875 5.88 5.88 0 0 0-3.846-.464 2.433 2.433 0 0 1-2.705-3.413 2.43 2.43 0 0 1 1.274-1.212c2.182-.849 3.98-3.248 3.174-5.618a4.328 4.328 0 0 0-2.274-2.465 6.78 6.78 0 0 0-4.906-.386 2.43 2.43 0 0 1-1.626-4.578c12.274-4.849 18.708-6.371 28.491-7.952l.049.018c2.437-.324 5.041-1.793 4.959-4.769a4.06 4.06 0 0 0-2.219-3.922 6.75 6.75 0 0 0-3.746-.556c-34.492 6.173-63.746 18.536-97.33 41.222a1116 1116 0 0 1 29.345 42.405 201.2 201.2 0 0 1 52.117-25.287 4.53 4.53 0 0 0 2.604-6.61 4.54 4.54 0 0 0-1.972-1.817 5.07 5.07 0 0 0-3.315-.466"/>
    <path fill="#2563EB" d="m50.445 177.6-2.004 1.502c-1.23.934-2.97 2.258-5.014 3.866a365 365 0 0 0-14.73 12.255c-1.32 1.197-2.64 2.366-3.94 3.56-.647.599-1.285 1.201-1.92 1.795-.636.593-1.262 1.163-1.884 1.771-1.23 1.203-2.42 2.347-3.548 3.477l-3.186 3.263c-.983 1.065-1.894 2.065-2.69 2.912-.402.442-.78.846-1.12 1.227s-.679.782-.965 1.118l-1.804 2.099 46.683 38.968s.379-.432 1.021-1.19l.535-.623c.219-.232.447-.489.7-.764.507-.55 1.08-1.176 1.709-1.847 2.592-2.728 6.492-6.498 10.698-10.217 4.206-3.718 8.677-7.374 12.06-10.031 1.69-1.335 3.1-2.404 4.072-3.148l1.484-1.115z"/>
    <path fill="#2563EB" d="M52.756 258.28a3.6 3.6 0 0 1-.55-.386 3.237 3.237 0 0 1-.348-4.565l1.54-1.8s.032-.081.085-.098l2.408-2.611.019-.049c2.9-3.046 6.976-6.936 10.914-10.413 4.951-4.382 9.765-8.231 12.188-10.15 1.177-.917 2.208-1.721 3.057-2.364l-32.307-43.702c-1.3.972-2.704 2.072-4.339 3.362-2.894 2.277-8.621 6.865-14.58 12.135l-1.202 1.103c-.888.794-1.797 1.618-2.678 2.416l-1.906 1.781c-.203.192-.417.389-.624.589-.415.38-.803.743-1.188 1.117l-1.167 1.134c-.828.808-1.607 1.56-2.36 2.314l-3.091 3.233-3.744 4.063-2.743 3.199a3.24 3.24 0 0 1-4.404.17 3.24 3.24 0 0 1-.494-4.38l2.787-3.238.031-.081 3.835-4.158a.3.3 0 0 1 .03-.081l3.176-3.257c.795-.793 1.595-1.575 2.45-2.401l1.134-1.1c.437-.438.883-.853 1.315-1.255l.604-.559 1.938-1.816c.926-.845 1.857-1.678 2.749-2.481l1.232-1.11c5.776-5.107 11.28-9.548 14.868-12.378a325 325 0 0 1 5.055-3.897l2.021-1.524a3.24 3.24 0 0 1 2.413-.603 3.2 3.2 0 0 1 2.133 1.279l36.156 48.905a3.24 3.24 0 0 1-.666 4.521l-1.482 1.108c-.906.694-2.317 1.763-3.98 3.126-2.38 1.879-7.084 5.659-11.915 9.92-3.794 3.346-7.71 7.083-10.486 10l-2.345 2.543-1.525 1.778a3.234 3.234 0 0 1-4.014.661"/>
    <path fill="#000" d="m36.564 228.151-.089-.034a1.43 1.43 0 0 1-.443-1.012 1.44 1.44 0 0 1 .404-1.028c.615-.638 15.222-15.812 25.498-21.804a1.45 1.45 0 0 1 1.654.039 1.45 1.45 0 0 1 .576.988 1.44 1.44 0 0 1-.781 1.458c-9.93 5.79-24.723 21.162-24.86 21.323a1.44 1.44 0 0 1-1.959.07"/>
    <path fill="#000" d="M20.023 216.646a1.438 1.438 0 0 1-.09-2.438c.27-.184.594-.271.92-.246 7.916.679 17.015 3.956 27.044 9.743a109 109 0 0 1 12.687 8.483 1.44 1.44 0 0 1-1.789 2.253c-.207-.163-20.247-16.087-38.18-17.615a1.45 1.45 0 0 1-.592-.18M62.819 230.299a1.44 1.44 0 0 1-.56-.576c-.107-.208-11.089-20.564-27.775-28.528a1.45 1.45 0 0 1-.924-1.391 1.45 1.45 0 0 1 1.01-1.33 1.44 1.44 0 0 1 1.146.125c17.57 8.376 28.626 28.9 29.084 29.771a1.441 1.441 0 0 1-1.981 1.929"/>
  </g>
  <defs>
    <clipPath id="a">
      <path fill="#fff" d="M0 0h260v260H0z"/>
    </clipPath>
  </defs>
</svg>
