<svg xmlns="http://www.w3.org/2000/svg" fill="none" viewBox="0 0 192 192">
  <path fill="#fff" d="M0 0h192v192H0z"/>
  <path fill="#fff" d="M175.734 158.402a6.25 6.25 0 0 1-1.851 4.438 6.34 6.34 0 0 1-4.469 1.839h-46.417a6.34 6.34 0 0 1-4.469-1.839 6.25 6.25 0 0 1-1.851-4.438c0-1.665.666-3.261 1.851-4.439a6.34 6.34 0 0 1 4.469-1.838h46.437c1.676 0 3.283.661 4.469 1.838a6.26 6.26 0 0 1 1.851 4.439z"/>
  <path fill="#1D4ED8" d="M169.325 166.152h-46.219a7.06 7.06 0 0 1-5.068-2.163 7.5 7.5 0 0 1-2.1-5.222 7.5 7.5 0 0 1 2.1-5.221 7.06 7.06 0 0 1 5.068-2.163h46.219c1.901 0 3.724.778 5.068 2.163a7.5 7.5 0 0 1 2.099 5.221 7.5 7.5 0 0 1-2.099 5.222 7.06 7.06 0 0 1-5.068 2.163m-46.219-12.926c-.707 0-1.406.143-2.059.422a5.4 5.4 0 0 0-1.744 1.201 5.5 5.5 0 0 0-1.166 1.798 5.67 5.67 0 0 0 0 4.241 5.6 5.6 0 0 0 1.166 1.798 5.4 5.4 0 0 0 1.744 1.201 5.2 5.2 0 0 0 2.059.422h46.219a5.3 5.3 0 0 0 3.803-1.623 5.63 5.63 0 0 0 1.575-3.919 5.63 5.63 0 0 0-1.575-3.918 5.3 5.3 0 0 0-3.803-1.623z"/>
  <path fill="#000" d="M165.117 161.724a1.3 1.3 0 0 1-.653-.173 1.1 1.1 0 0 1-.435-.468.94.94 0 0 1-.068-.605c.044-.203.156-.39.32-.536l4.285-3.817q.167-.148.384-.228a1.3 1.3 0 0 1 .905 0c.143.053.274.13.383.228q.166.149.257.342.09.194.09.404a1 1 0 0 1-.09.403q-.091.193-.257.342l-4.285 3.821a1.2 1.2 0 0 1-.385.218c-.144.05-.297.073-.451.069"/>
  <path fill="#000" d="M169.4 161.724a1.3 1.3 0 0 1-.452-.077 1.2 1.2 0 0 1-.383-.228l-4.281-3.808a1.1 1.1 0 0 1-.256-.341.958.958 0 0 1 0-.805q.091-.192.256-.341.167-.147.384-.228a1.33 1.33 0 0 1 .904 0q.216.081.383.228l4.28 3.805q.168.147.259.341a.94.94 0 0 1 0 .805 1 1 0 0 1-.259.341 1.2 1.2 0 0 1-.382.229c-.143.053-.297.08-.453.079M60.48 134.917l-11.375 36.274 6.794 2.131 11.374-36.275z"/>
  <path fill="#1D4ED8" d="m53.362 143.767-13.575 43.292 14.667 4.599 13.575-43.292zM35.194 84.175a43.56 43.56 0 0 0-.235 25.082 43.24 43.24 0 0 0 13.622 20.986 42.65 42.65 0 0 0 22.886 9.814 42.5 42.5 0 0 0 24.435-4.665 43 43 0 0 0 17.746-17.573 43.5 43.5 0 0 0 5.074-24.555 43.4 43.4 0 0 0-9.308-23.26 42.8 42.8 0 0 0-20.552-14.123 42.5 42.5 0 0 0-32.641 2.94c-10.064 5.306-17.627 14.425-21.027 25.354m9.356 2.957a33.3 33.3 0 0 1 10.8-15.966 32.85 32.85 0 0 1 17.773-7.224 32.77 32.77 0 0 1 18.757 3.953A33.16 33.16 0 0 1 105.3 81.692a33.54 33.54 0 0 1 3.559 18.991 33.44 33.44 0 0 1-7.502 17.785 33 33 0 0 1-16.033 10.584 32.73 32.73 0 0 1-19.16-.183 32.9 32.9 0 0 1-11.302-6.233 33.3 33.3 0 0 1-8.076-10.12 33.565 33.565 0 0 1-2.234-25.384"/>
  <path fill="#000" d="M62.598 139.746a45.1 45.1 0 0 1-20.57-13.364 44.5 44.5 0 0 1-10.427-22.085 44.33 44.33 0 0 1 2.823-24.225 44.73 44.73 0 0 1 15.23-19.146A45.14 45.14 0 0 1 68.83 53.01a45.3 45.3 0 0 1 20.716 1.478 45.1 45.1 0 0 1 20.556 13.364 44.5 44.5 0 0 1 10.421 22.077 44.33 44.33 0 0 1-2.817 24.215 44.74 44.74 0 0 1-15.217 19.144 45.67 45.67 0 0 1-26.403 8.497 45.4 45.4 0 0 1-13.487-2.038M51.689 63.732a41.27 41.27 0 0 0-15.121 20.612 40.92 40.92 0 0 0-.018 25.49 41.27 41.27 0 0 0 15.092 20.633 41.83 41.83 0 0 0 24.44 7.896 42.15 42.15 0 0 0 24.372-7.847 41.27 41.27 0 0 0 15.121-20.613 40.9 40.9 0 0 0 .017-25.49 41.26 41.26 0 0 0-15.094-20.633 41.83 41.83 0 0 0-24.44-7.894 42.15 42.15 0 0 0-24.369 7.83zm13.877 66.631a35.16 35.16 0 0 1-16.032-10.422 34.7 34.7 0 0 1-8.128-17.217 34.57 34.57 0 0 1 2.198-18.885 34.9 34.9 0 0 1 11.868-14.928 35.2 35.2 0 0 1 14.95-6.177 35.3 35.3 0 0 1 16.154 1.152 35.15 35.15 0 0 1 16.033 10.421 34.7 34.7 0 0 1 8.127 17.217 34.56 34.56 0 0 1-2.197 18.885 34.9 34.9 0 0 1-11.869 14.929 35.2 35.2 0 0 1-14.95 6.177 35.3 35.3 0 0 1-16.154-1.152m-8.063-58.666a31.44 31.44 0 0 0-10.679 13.457 31.16 31.16 0 0 0-1.97 17.013 31.3 31.3 0 0 0 7.325 15.507 31.7 31.7 0 0 0 14.44 9.39 31.8 31.8 0 0 0 14.563 1.039 31.7 31.7 0 0 0 13.478-5.567 31.43 31.43 0 0 0 11.518-15.696 31.16 31.16 0 0 0 .014-19.413 31.43 31.43 0 0 0-11.497-15.712 31.85 31.85 0 0 0-18.614-6.008 32.1 32.1 0 0 0-18.578 5.974z"/>
  <path fill="#fff" d="M41.534 86.654a36.186 36.186 0 1 0 69.057 21.647 36.186 36.186 0 0 0-69.057-21.647"/>
  <path fill="#000" d="M28.84 114.787a1 1 0 0 0 .026.083c3.685 9.721 10.194 18.04 18.641 23.823a.774.774 0 0 0 1.098-.224.83.83 0 0 0-.218-1.129c-8.18-5.598-14.482-13.65-18.05-23.061a.8.8 0 0 0-.394-.47.77.77 0 0 0-.602-.046.8.8 0 0 0-.457.405.83.83 0 0 0-.044.619M11.494 30.366l12.365 7.184a.827.827 0 0 0 1.137-.307.844.844 0 0 0-.305-1.146l-12.365-7.184a.827.827 0 0 0-1.138.307.844.844 0 0 0 .306 1.146M21.415 52.06c0-.293-.09-.575-.248-.782-.16-.208-.376-.325-.6-.325H6.016c-.224 0-.44.117-.6.325-.159.207-.248.489-.248.783s.09.575.249.783.375.325.6.325h14.548c.226 0 .441-.117.6-.325a1.3 1.3 0 0 0 .25-.783M23.86 66.573l-12.366 7.185a.83.83 0 0 0-.388.508.85.85 0 0 0 .297.883.83.83 0 0 0 .923.061l12.365-7.184a.83.83 0 0 0 .41-.836.84.84 0 0 0-.61-.7.83.83 0 0 0-.632.083M153.343 171.872c0 .018 1.274 1.582 3.213 1.661 1.163.049 2.243-.444 3.205-1.468 1.183-1.271 1.971-1.516 2.366-1.499.622.025 1.182.69 1.659 1.306 0 .018 1.274 1.579 3.213 1.661 1.183.049 2.243-.444 3.205-1.468.718-.761 1.439-1.144 2.137-1.13 1.08 0 1.904.948 1.92.968a.85.85 0 0 0 .544.284.92.92 0 0 0 .615-.135.72.72 0 0 0 .325-.476.66.66 0 0 0-.155-.537c-.052-.063-1.301-1.51-3.198-1.551-1.238-.028-2.405.53-3.465 1.657-.603.641-1.214.958-1.821.941-.903-.021-1.727-.765-1.952-1.034-.544-.689-1.45-1.871-2.952-1.933-1.183-.052-2.397.613-3.73 2.023-.599.641-1.21.958-1.817.941-.903-.021-1.727-.765-1.971-1.034-.545-.689-1.455-1.871-2.949-1.933-1.183-.052-2.405.613-3.734 2.022-.599.641-1.214.958-1.817.941-.903-.02-1.727-.765-1.951-1.034-.545-.689-1.455-1.871-2.953-1.933-1.183-.052-2.401.614-3.73 2.023a.7.7 0 0 0-.159.252.65.65 0 0 0 .063.561.75.75 0 0 0 .211.221.9.9 0 0 0 .288.14.95.95 0 0 0 .642-.054.8.8 0 0 0 .252-.186c1.183-1.272 1.952-1.516 2.366-1.499.619.024 1.182.689 1.659 1.306 0 .017 1.27 1.578 3.209 1.661 1.183.048 2.248-.445 3.209-1.468 1.183-1.272 1.952-1.516 2.366-1.499.646.021 1.21.686 1.687 1.302"/>
  <path fill="#fff" d="M73.653 79.712s-4.504-5.511-4.629-7.775a45.3 45.3 0 0 0-1.365-8.018s1.057-3.543 6.895-7.05c.265-.174.507-.335.726-.465s.39-.248.562-.335l.363-.204.124-.067q.218-.112.39-.284.18-.161.313-.362c.185-.293.317-.617.39-.956.09-.387.129-.784.113-1.181a4.3 4.3 0 0 0-.238-1.296 3.5 3.5 0 0 0-.663-1.141 2.94 2.94 0 0 0-2.93-.89q-.324.091-.621.248l-.176.09-.484.276c-5.873 3.35-9.092 6.299-9.092 6.299s-.89-.744-1.729-4.11c-1.14-4.554-1.483-11.325-1.56-12.798 0-.185-.028-.362-.04-.531-.011-.17 0-.323 0-.472 0-.296-.027-.555-.039-.788-.011-.232 0-.393 0-.488v-.173a2.46 2.46 0 0 0-.28-1.102 3.1 3.1 0 0 0-.691-.906 4 4 0 0 0-1.042-.673 4 4 0 0 0-1.276-.334 3.2 3.2 0 0 0-1.323.141c-.404.13-.775.346-1.089.634a3.15 3.15 0 0 0-.745 1.035c-.558 1.748-.117 7.807.133 9.9.25 2.095.366 4.291.366 4.291l-2.653-5.51c-2.072-5.76-3.255-11.81-7.746-10.59a3.3 3.3 0 0 0-1.106.728 3.36 3.36 0 0 0-.992 2.413c.003.448.096.892.272 1.303l4.952 13.168-8.195-9.054c-1.026-1.374-3.06-1.614-4.539-.535a3.14 3.14 0 0 0-1.343 2.049 3.18 3.18 0 0 0 .524 2.4l7.215 8.809s-7.84-3.255-8.194-3.472l-.566-.335a2.58 2.58 0 0 0-2.267-.11c-.38.16-.72.397-1.003.697-.297.324-.533.7-.695 1.11a5 5 0 0 0-.32 2.417 2.09 2.09 0 0 0 .956 1.606l.464.276c.3.18.726.444 1.245.787 3.594 2.134 6.244 2.425 8.02 4.055 4.062 3.716 8.744 12.703 13.365 16.025 2.341 1.677 6.598 9.412 6.598 9.412z"/>
  <path fill="#000" d="M57.152 88.11c-1.19-2.097-4.607-7.834-6.399-9.086-2.775-1.975-5.451-5.657-8.048-9.233-1.982-2.765-3.889-5.349-5.63-6.921-.836-.755-1.958-1.21-3.377-1.778a32.4 32.4 0 0 1-4.599-2.169l-.032-.02a45 45 0 0 0-1.224-.758l-.468-.273a3.07 3.07 0 0 1-1.483-2.37 5.978 5.978 0 0 1 .396-2.96c.211-.53.52-1.017.912-1.433a3.9 3.9 0 0 1 1.38-.945q.29-.124.598-.193a3.6 3.6 0 0 1 2.629.367l.563.328c.29.146 2.22.952 4.36 1.833l-4.665-5.63-.028-.035a3.98 3.98 0 0 1-.757-3.014 4.43 4.43 0 0 1 1.807-2.912 4.7 4.7 0 0 1 1.661-.758 4.29 4.29 0 0 1 4.361 1.465l4.627 5.053-3.092-8.122a4.52 4.52 0 0 1 .051-3.556 4.23 4.23 0 0 1 2.41-2.272l.092-.027.206-.056c2.14-.497 3.933.305 5.316 2.37 1.11 1.66 1.895 3.983 2.728 6.444.273.79.555 1.636.852 2.454l.198.395c-.222-2.493-.519-7.309.04-9.047l.04-.099a4.1 4.1 0 0 1 2.493-2.244 4.5 4.5 0 0 1 1.757-.19c.56.053 1.11.196 1.625.423.488.212.937.502 1.332.857.387.34.706.75.94 1.21.254.488.39 1.03.396 1.58v.473l.12 2.213c.32 5.397.843 9.553 1.55 12.354.227.974.554 1.923.974 2.832a62.4 62.4 0 0 1 8.504-5.68l.5-.281.21-.11q.394-.201.82-.317a4.029 4.029 0 0 1 4.028 1.193c.388.437.687.944.88 1.494.184.517.287 1.059.306 1.607.017.492-.033.984-.147 1.462-.108.462-.297.9-.559 1.296a3 3 0 0 1-.468.541 2.7 2.7 0 0 1-.638.45l-.468.257c-.143.075-.333.19-.52.305h-.019a15 15 0 0 0-.575.363l-.119.075h-.031c-4.587 2.726-6.082 5.448-6.447 6.25a45 45 0 0 1 1.332 7.929c.076 1.316 2.657 5.005 4.468 7.202a1.042 1.042 0 0 1-.325 1.58l-15.929 8.21a1.2 1.2 0 0 1-.242.09 1.04 1.04 0 0 1-1.173-.466m11.1-16.458a44.4 44.4 0 0 0-1.352-7.834 1.04 1.04 0 0 1 0-.573c.048-.158 1.261-3.97 7.45-7.656l.103-.064c.225-.15.444-.288.65-.395.206-.106.416-.253.602-.355l.361-.202h.028l.139-.07a.6.6 0 0 0 .166-.12 1 1 0 0 0 .159-.177q.191-.29.27-.628.106-.446.087-.905a3.2 3.2 0 0 0-.187-.984 2.3 2.3 0 0 0-.464-.79 1.91 1.91 0 0 0-1.502-.644 1.7 1.7 0 0 0-.377.048h-.047q-.226.06-.432.166l-.127.067-.492.272c-5.776 3.26-9.015 6.16-9.047 6.191a1.05 1.05 0 0 1-1.364.032c-.273-.225-1.237-1.229-2.105-4.67-1.114-4.413-1.486-10.667-1.61-12.74l-.055-.815v-.023l-.067-1.399v-.557a1.45 1.45 0 0 0-.167-.648 2 2 0 0 0-.471-.6 3 3 0 0 0-.793-.498 3.2 3.2 0 0 0-.968-.253 2.4 2.4 0 0 0-.927.095c-.273.086-.523.23-.734.423-.2.178-.363.394-.48.636-.432 1.493-.103 6.992.195 9.442.253 2.113.372 4.286.376 4.377a1.03 1.03 0 0 1-.792 1.059 1.05 1.05 0 0 1-1.19-.55l-2.696-5.53a1 1 0 0 1-.043-.103 98 98 0 0 1-.884-2.552c-1.872-5.531-3.033-8.056-5.602-7.459h-.083c-.532.214-.96.626-1.19 1.15a2.5 2.5 0 0 0-.02 1.94l5.031 13.21a1.03 1.03 0 0 1-.424 1.256 1.04 1.04 0 0 1-1.316-.189l-8.325-9.086-.06-.075a2.19 2.19 0 0 0-2.26-.74c-.328.079-.638.221-.911.42a2.37 2.37 0 0 0-.972 1.54 1.91 1.91 0 0 0 .35 1.438l7.31 8.826a1.033 1.033 0 0 1-.516 1.656c-.222.063-.46.05-.674-.036-3.667-1.505-8.107-3.342-8.452-3.556l-.567-.332a1.59 1.59 0 0 0-1.392-.051c-.25.103-.477.26-.662.458-.211.232-.38.5-.495.79-.127.32-.212.655-.254.996q-.06.444 0 .889c.095.656.365.79.464.865l.484.285c.277.165.725.434 1.272.79a30.6 30.6 0 0 0 4.302 2.022c1.55.625 2.89 1.162 4 2.165 1.903 1.715 3.85 4.401 5.915 7.242 2.501 3.44 5.086 7 7.572 8.762 2.081 1.478 5.253 6.716 6.51 8.913l13.915-7.174c-1.451-1.822-4.04-5.413-4.163-7.388"/>
  <path fill="#000" d="M54.816 70.111a1.06 1.06 0 0 0 .665-.458 1.03 1.03 0 0 0 .138-.787c-.63-2.69-.33-5.019.896-6.921 2.239-3.476 6.863-4.504 6.908-4.512.272-.06.51-.225.66-.458.149-.232.198-.514.137-.782a1.04 1.04 0 0 0-.465-.65 1.07 1.07 0 0 0-.794-.135c-.225.047-5.513 1.186-8.234 5.414-1.547 2.392-1.945 5.256-1.181 8.514.061.27.229.505.466.653s.525.198.8.138zM39.084 58.324a.6.6 0 0 0 .243-.11.54.54 0 0 0 .161-.205c1.412-3.223 6.473-5.053 10.47-6.06a57 57 0 0 1 8.568-1.384.59.59 0 0 0 .405-.179.54.54 0 0 0 .145-.404.53.53 0 0 0-.204-.38.57.57 0 0 0-.427-.122c-.692.047-16.99 1.248-20 8.105a.53.53 0 0 0-.003.415c.056.134.164.24.302.297a.57.57 0 0 0 .34.027"/>
  <path fill="#1D4ED8" d="m76.698 73.11.1.162.262.45.398.708c.163.282.342.592.537.946l.656 1.162.735 1.364c.537.974 1.094 2.068 1.718 3.265 2.458 4.772 5.42 11.235 8.009 17.896 1.3 3.317 2.505 6.678 3.555 9.867.553 1.591 1.002 3.146 1.46 4.618.226.735.445 1.455.655 2.147s.378 1.38.557 2.029c.354 1.304.68 2.497.97 3.555s.482 1.989.668 2.784c.362 1.539 1.237 5.281 1.237 5.281l-13.07 6.535-14.133-.267s-.752-3.329-1.054-4.601c-.151-.637-.326-1.408-.549-2.291s-.509-1.877-.795-2.963c-.151-.541-.298-1.105-.461-1.69s-.366-1.193-.553-1.798c-.398-1.237-.756-2.545-1.225-3.877-.887-2.685-1.9-5.524-3.002-8.352-2.191-5.62-4.716-11.136-6.76-15.085-.513-.982-.975-1.897-1.404-2.672l-.593-1.094-.513-.923c-.155-.27-.29-.517-.397-.712l-.298-.513-.18-.306-.06-.095z"/>
  <path fill="#1D4ED8" d="M70.546 134.392q.112-.01.222-.039a1.554 1.554 0 0 0 1.074-1.883l-.475-1.983q-.085-.352-.175-.745c-.111-.464-.234-.991-.396-1.558a.1.1 0 0 0 0-.036l-.793-2.949c-.056-.199-.111-.397-.163-.603-.099-.357-.198-.726-.305-1.102v-.032l-.551-1.792c-.111-.357-.218-.71-.325-1.07a66 66 0 0 0-.912-2.847 164 164 0 0 0-3.017-8.373c-2.006-5.154-4.488-10.68-6.803-15.188-.159-.302-.306-.591-.452-.868a66 66 0 0 0-.968-1.832l-.59-1.086v-.024l-.504-.9a10 10 0 0 1-.182-.325l20.96-13.833c.155.266.317.56.5.885l.646 1.15.733 1.347c.397.718.794 1.51 1.242 2.351l.455.88c2.704 5.265 5.59 11.704 7.93 17.662a187 187 0 0 1 3.516 9.753v.028c.397 1.134.741 2.276 1.078 3.378q.18.595.357 1.189l.65 2.117c.127.452.246.896.365 1.328q.092.338.183.67l.959 3.525c.174.698.329 1.348.464 1.923.067.285.13.555.194.793l.57 2.406a1.495 1.495 0 0 0 1.797 1.154 1.554 1.554 0 0 0 1.074-1.883l-.57-2.415q-.094-.382-.195-.793c-.139-.587-.293-1.257-.476-1.982a.1.1 0 0 1 0-.032l-.967-3.544q-.089-.333-.182-.666a27 27 0 0 0-.397-1.376.1.1 0 0 0 0-.028l-.654-2.14-.353-1.162c-.345-1.13-.698-2.3-1.114-3.493a199 199 0 0 0-3.568-9.911c-2.379-6.054-5.297-12.608-8.052-17.972l-.46-.884c-.444-.86-.864-1.669-1.272-2.414l-.734-1.348-.65-1.162c-.198-.356-.397-.674-.555-.971l-.793-1.324a1.44 1.44 0 0 0-2.042-.5L52.416 87.325a1.53 1.53 0 0 0-.686.952c-.09.407-.018.833.198 1.189l.056.095q.052.08.158.266l.298.511c.11.19.238.397.396.69l.504.892.582 1.082c.29.52.603 1.122.932 1.757l.452.872c2.264 4.401 4.69 9.828 6.66 14.875 1.051 2.684 2.05 5.451 2.962 8.226v.032c.325.912.603 1.832.872 2.72.111.368.218.729.33 1.086l.542 1.772c.103.353.195.702.29 1.043.055.21.11.396.166.614l.793 2.93c.135.539.254 1.047.361 1.495l.178.761.476 1.982a1.5 1.5 0 0 0 1.61 1.225"/>
  <path fill="#000" d="M83.594 127.012h.067a.687.687 0 0 0 .513-.787c-.032-.157-.762-3.933-3.072-10.733-2.124-6.241-6.049-16.298-12.674-28.738a.64.64 0 0 0-.893-.271.704.704 0 0 0-.248.936c6.578 12.357 10.475 22.331 12.583 28.526 2.278 6.686 3.009 10.497 3.017 10.536a.67.67 0 0 0 .707.531"/>
  <path fill="#000" d="M89.504 113.597a.63.63 0 0 0 .343-.154.7.7 0 0 0 .206-.331.8.8 0 0 0-.022-.552.72.72 0 0 0-.37-.385c-3.405-1.339-7.767-1.724-12.968-1.143-2.29.239-4.562.659-6.794 1.256a.7.7 0 0 0-.4.346.77.77 0 0 0-.06.545.7.7 0 0 0 .105.249q.076.114.186.188a.62.62 0 0 0 .494.09c.11-.034 11.305-3.205 19.005-.167q.132.06.275.058M69.394 111.504a.63.63 0 0 0 .343-.148c.083-.07 8.371-7.082 16.766-7.27a.66.66 0 0 0 .463-.231.7.7 0 0 0 .171-.504.72.72 0 0 0-.197-.498.66.66 0 0 0-.477-.208c-8.84.201-17.187 7.27-17.538 7.574a.763.763 0 0 0-.106 1.006.64.64 0 0 0 .575.279"/>
  <path fill="#1D4ED8" d="M122.697 66.296a39.84 39.84 0 0 1-9.515-34c.135-.721.293-1.439.451-2.151l58.096 44.213a39.7 39.7 0 0 1-37.298.902l-22.07 11.987z"/>
  <path fill="#1D4ED8" d="M186.904 20.244A39.76 39.76 0 0 0 144.263.813a39.76 39.76 0 0 0-26.346 18.915 39.77 39.77 0 0 0-3.493 32.245 39.8 39.8 0 0 0 8.271 14.37l-10.318 20.939 22.071-11.987a39.765 39.765 0 0 0 52.456-55.042z"/>
  <path fill="#000" d="M112.382 88.303c.179 0 .354-.044.51-.13l21.584-11.73a40.8 40.8 0 0 0 37.793-1.174 1.08 1.08 0 0 0 .558-.645 1.077 1.077 0 0 0-.768-1.364 1.07 1.07 0 0 0-.841.141 38.67 38.67 0 0 1-36.291.876 1.08 1.08 0 0 0-.988 0l-19.107 10.376 8.825-17.906a1.07 1.07 0 0 0-.163-1.191 38.8 38.8 0 0 1-9.262-33.083c.136-.7.289-1.403.451-2.094a1.071 1.071 0 1 0-2.079-.514c-.181.726-.343 1.47-.483 2.21a40.89 40.89 0 0 0 9.289 34.365l-9.998 20.302a1.07 1.07 0 0 0 .217 1.245c.2.2.471.313.753.316"/>
  <path fill="#fff" d="M134.36 22.368a14.07 14.07 0 0 1 17.857 3.429 14.066 14.066 0 0 1 17.852-3.429c6.767 3.808 8.315 11.974 5.364 19.16-3.821 9.313-12.181 15.48-23.216 23.434-11.04-7.954-19.4-14.121-23.221-23.433-2.946-7.187-1.408-15.353 5.364-19.16"/>
</svg>
