<svg xmlns="http://www.w3.org/2000/svg" fill="none" viewBox="0 0 260 260">
  <g clip-path="url(#a)">
    <path fill="#fff" d="M0 0h260v260H0z"/>
    <path fill="#000" d="M210.205 197.179H36.479a1.7 1.7 0 0 1-1.7-1.692V31a1.7 1.7 0 0 1 1.7-1.7h173.726a1.7 1.7 0 0 1 1.693 1.7v164.487a1.69 1.69 0 0 1-1.693 1.692m-172.033-3.392h170.333V32.693H38.172z"/>
    <path fill="#000" d="M210.206 29.41H36.48v32.562h173.726z"/>
    <path fill="#000" d="M210.205 63.673H36.479a1.7 1.7 0 0 1-1.7-1.692V29.419a1.7 1.7 0 0 1 1.7-1.7h173.726a1.7 1.7 0 0 1 1.693 1.7v32.569a1.69 1.69 0 0 1-1.693 1.685M38.172 60.281h170.333V31.147H38.172zM210.206 106.495H36.48a1.7 1.7 0 0 1-1.271-.456 1.7 1.7 0 0 1-.397-1.915 1.7 1.7 0 0 1 1.668-1.021h173.726a1.7 1.7 0 0 1 0 3.392M210.206 151.529H36.48a1.7 1.7 0 0 1-1.271-.456 1.7 1.7 0 0 1 0-2.479 1.7 1.7 0 0 1 1.27-.457h173.727a1.701 1.701 0 0 1 1.131 2.859c-.295.315-.7.506-1.131.533"/>
    <path fill="#000" d="M77.997 197.186a1.69 1.69 0 0 1-1.692-1.693V60.877a1.7 1.7 0 0 1 3.392 0v134.616a1.7 1.7 0 0 1-1.7 1.693M122.399 197.186a1.69 1.69 0 0 1-1.693-1.693V60.877a1.7 1.7 0 0 1 1.696-1.59 1.7 1.7 0 0 1 1.696 1.59v134.616a1.7 1.7 0 0 1-1.699 1.693M166.809 197.186a1.7 1.7 0 0 1-1.7-1.693V60.877a1.7 1.7 0 0 1 1.696-1.59 1.7 1.7 0 0 1 1.696 1.59v134.616a1.693 1.693 0 0 1-1.692 1.693"/>
    <path fill="#2563EB" d="M57.215 48.995c-7.11 0-12.674-10.766-12.674-24.494S50.091 0 57.215 0s12.673 10.766 12.673 24.5a1.7 1.7 0 0 1-3.392 0c0-9.981-3.808-21.108-9.281-21.108s-9.289 11.099-9.289 21.109 3.816 21.102 9.289 21.102a1.7 1.7 0 0 1 0 3.392M90.289 48.995c-7.103 0-12.674-10.766-12.674-24.494S83.165 0 90.29 0s12.673 10.766 12.673 24.5a1.697 1.697 0 0 1-1.695 1.592A1.7 1.7 0 0 1 99.57 24.5c0-9.982-3.808-21.109-9.281-21.109s-9.282 11.099-9.282 21.109 3.816 21.102 9.282 21.102a1.7 1.7 0 1 1 0 3.392M123.362 48.995c-7.103 0-12.674-10.766-12.674-24.494S116.238 0 123.362 0s12.674 10.766 12.674 24.5a1.7 1.7 0 0 1-1.697 1.592 1.697 1.697 0 0 1-1.695-1.591c0-9.982-3.809-21.109-9.282-21.109s-9.281 11.099-9.281 21.109 3.815 21.102 9.281 21.102a1.7 1.7 0 1 1 0 3.392M156.439 48.995c-7.103 0-12.673-10.766-12.673-24.494S149.315 0 156.439 0s12.681 10.766 12.681 24.5a1.7 1.7 0 0 1-1.696 1.592 1.7 1.7 0 0 1-1.697-1.591c0-9.982-3.815-21.109-9.288-21.109s-9.282 11.099-9.282 21.109 3.816 21.102 9.282 21.102a1.7 1.7 0 1 1 0 3.392M189.52 48.995c-7.11 0-12.673-10.766-12.673-24.494S182.396 0 189.52 0s12.674 10.766 12.674 24.5a1.7 1.7 0 0 1-1.696 1.592 1.7 1.7 0 0 1-1.696-1.591c0-9.982-3.815-21.109-9.282-21.109-5.466 0-9.288 11.099-9.288 21.109s3.815 21.102 9.288 21.102a1.698 1.698 0 0 1 0 3.392M65.594 83.852a9.253 9.253 0 1 1-18.507 0 9.253 9.253 0 0 1 18.507 0M65.594 125.076a9.254 9.254 0 1 1-18.51 0 9.254 9.254 0 0 1 18.51 0M108.491 83.852a9.26 9.26 0 0 1-5.713 8.562 9.263 9.263 0 0 1-12.63-6.75 9.262 9.262 0 1 1 18.343-1.812M108.491 125.076a9.27 9.27 0 0 1-5.713 8.561 9.261 9.261 0 1 1 5.713-8.561M196.998 83.499a9.253 9.253 0 0 1-15.797 6.543 9.25 9.25 0 0 1-2.006-10.084 9.25 9.25 0 0 1 8.549-5.713 9.253 9.253 0 0 1 9.254 9.254M154.153 83.499a9.253 9.253 0 0 1-11.06 9.076 9.26 9.26 0 0 1-7.27-7.27 9.25 9.25 0 0 1 3.935-9.5 9.25 9.25 0 0 1 11.684 1.15 9.25 9.25 0 0 1 2.711 6.544M154.153 125.076a9.253 9.253 0 1 1-18.507-.001 9.253 9.253 0 0 1 18.507.001M189.632 139.89a4.868 4.868 0 0 1-3.823-1.852l-14.962-18.931a4.871 4.871 0 0 1 .798-6.833 4.863 4.863 0 0 1 6.832.798l10.995 13.929 31.084-41.878a4.88 4.88 0 0 1 3.199-1.916 4.875 4.875 0 0 1 4.893 2.316 4.87 4.87 0 0 1-.267 5.406l-34.878 46.991a4.87 4.87 0 0 1-3.837 1.97z"/>
    <path fill="#fff" d="M170.435 199.328c3.726-1.251 8.211.317 9.779 3.982 1.762 4.062-1.234 8.387-5.18 9.691a119.3 119.3 0 0 1-45.133 5.559q.66-7.197 1.26-14.404a105 105 0 0 0 39.274-4.828"/>
    <path fill="#000" d="M127.593 219.281a2.6 2.6 0 0 1-.097-.952c.449-4.907.881-9.743 1.26-14.377a2.42 2.42 0 0 1 2.554-2.203 102.5 102.5 0 0 0 38.376-4.748c5.057-1.692 10.774.696 12.748 5.33.114.264.211.537.299.81a8.96 8.96 0 0 1-1.092 7.559 11.32 11.32 0 0 1-5.832 4.581 121.4 121.4 0 0 1-46.031 5.665 2.4 2.4 0 0 1-1.683-.881 2.5 2.5 0 0 1-.502-.784m5.779-12.59-.881 9.603c14.137.693 28.283-1.2 41.741-5.585 2.528-.881 4.678-3.524 3.867-6.114l-.141-.379c-.995-2.335-4.105-3.524-6.792-2.643a107.3 107.3 0 0 1-37.794 5.118"/>
    <path fill="#fff" d="M141.363 152.459a7.294 7.294 0 0 1 .176 9.779c3.823-3.577 8.087-4.59 11.523-1.7 3.216 2.722 2.749 7.496.229 10.36 2.819-2.335 7.189-2.643 9.691.149 2.837 3.11 1.876 8.158-1.057 10.977 9.876-8.21 14.228-13.02 20.148-20.623 2.414-3.26 6.167-4.687 9.691-2.696 4.731 2.722 4.14 7.576 1.762 10.871-23.003 28.553-48.798 48.304-85.341 66.831a1111 1111 0 0 0-25.038-50.074 198.2 198.2 0 0 0 48.454-33.997 6.996 6.996 0 0 1 9.762.123"/>
    <path fill="#000" d="M80.734 186.245q.011-.33.114-.643a2.38 2.38 0 0 1 1.207-1.418 196.3 196.3 0 0 0 47.934-33.61 9.41 9.41 0 0 1 13.101.203 9.3 9.3 0 0 1 2.643 6.114 9.08 9.08 0 0 1 8.88 1.806 8.8 8.8 0 0 1 2.411 3.244 8.8 8.8 0 0 1 .708 3.98l-.053.731a8.8 8.8 0 0 1 7.109 2.775 8.95 8.95 0 0 1 2.264 4.978 106.5 106.5 0 0 0 13.127-14.458c3.321-4.475 8.458-5.814 12.783-3.329a8.81 8.81 0 0 1 4.766 8.157 11.53 11.53 0 0 1-2.246 6.211l-.08.106c-22.738 28.192-48.454 48.392-86.133 67.466a2.45 2.45 0 0 1-1.877.132 2.4 2.4 0 0 1-1.392-1.26c-7.876-16.8-16.28-33.61-24.984-49.969a2.4 2.4 0 0 1-.282-1.216m60.18-28.685a4.55 4.55 0 0 0-1.269-3.409 4.58 4.58 0 0 0-6.361-.062 199.6 199.6 0 0 1-46.86 33.266c7.93 14.977 15.629 30.394 22.906 45.767 35.759-18.404 60.48-37.935 82.302-64.999a6.7 6.7 0 0 0 1.304-3.524 4.03 4.03 0 0 0-2.353-3.797c-2.59-1.489-5.065.071-6.519 2.035v.053c-6.043 7.753-10.439 12.625-20.509 20.985a2.42 2.42 0 0 1-1.715.537 2.416 2.416 0 0 1-1.501-4.131 6.75 6.75 0 0 0 2.018-4.458 4.33 4.33 0 0 0-1.066-3.145c-1.674-1.841-4.625-1.383-6.405.079a2.406 2.406 0 0 1-3.984-1.792 2.4 2.4 0 0 1 .645-1.661 5.77 5.77 0 0 0 1.427-3.568 4.03 4.03 0 0 0-1.409-3.348c-1.586-1.339-4.308-2.141-8.317 1.612a2.424 2.424 0 0 1-3.524-3.33 5.02 5.02 0 0 0 1.19-3.11"/>
    <path fill="#2563EB" d="m33.047 193.363.255 63.634c49.776.07 89.367-24.8 89.367-24.8l-31.715-55.14s-30.007 16.8-57.863 16.306z"/>
    <path fill="#000" d="M52.85 239.852a1.45 1.45 0 0 0 .74 1.357 1.42 1.42 0 0 0 1.582-.135 1.4 1.4 0 0 0 .357-.429c3.788-6.916 6.087-16.236 6.818-27.698.35-5.042.35-10.102 0-15.144a1.43 1.43 0 0 0-2.519-.788c-.242.291-.36.666-.326 1.043 0 .256 2.132 25.549-6.44 41.213a1.5 1.5 0 0 0-.212.581M65.096 197.028c-.019.272.04.543.167.784.106.202 10.898 20.465 8.29 38.622a1.43 1.43 0 0 0 2.828.414c2.74-19.126-8.14-39.538-8.607-40.392a1.427 1.427 0 0 0-2.643.572z"/>
    <path fill="#2563EB" d="M29.999 193.372v-.071a3.03 3.03 0 0 1 3.003-2.96.12.12 0 0 0 .08 0h.07c26.685.476 56.03-15.76 56.33-15.928a3.013 3.013 0 0 1 4.08 1.128l31.768 55.14a3.01 3.01 0 0 1-1.005 4.062c-.414.255-10.334 6.44-26.544 12.686-14.977 5.753-38.26 12.607-64.444 12.572a3.004 3.004 0 0 1-3.004-3.005 3.01 3.01 0 0 1 3.013-3.013c25.187 0 47.688-6.572 62.118-12.122a178 178 0 0 0 23.144-10.757l-28.817-50.022c-8.035 4.114-32.905 15.717-56.753 15.294h-.08a3.02 3.02 0 0 1-2.96-3.004"/>
    <path fill="#000" d="M41.106 223.641a1.515 1.515 0 0 1 1.471-1.515c29.073-.802 53.23-13.805 53.476-13.937a1.5 1.5 0 0 1 1.726.095 1.51 1.51 0 0 1 .5 1.654 1.5 1.5 0 0 1-.79.894c-.247.141-25.073 13.487-54.832 14.307a1.517 1.517 0 0 1-1.55-1.462z"/>
  </g>
  <defs>
    <clipPath id="a">
      <path fill="#fff" d="M0 0h260v260H0z"/>
    </clipPath>
  </defs>
</svg>
