<svg xmlns="http://www.w3.org/2000/svg" fill="none" viewBox="0 0 192 192">
  <g clip-path="url(#a)">
    <path fill="#fff" d="M0 0h192v192H0z"/>
    <path fill="#000" d="M166.448 122.656a2.9 2.9 0 0 1-.699.636c-.685.44-1.53.535-2.218.967q-.206.511-.435 1.011a23.6 23.6 0 0 1-4.253 6.347c-1.953 2.082-4.3 3.825-6.877 5.045a21.6 21.6 0 0 1-4.636 1.6c-.424.093-.921-.122-1.027-.58-.097-.419.123-.932.577-1.031a20.6 20.6 0 0 0 2.956-.881q.229-.088.456-.181l.213-.088.137-.059a21.8 21.8 0 0 0 4.395-2.609l.122-.095q.077-.06.152-.122.205-.166.408-.334a23 23 0 0 0 3.231-3.338l.131-.167a22.367 22.367 0 0 0 2.778-4.793l.004-.007.063-.155q.031-.079.075-.152a9 9 0 0 1-.593-.54c-.957-.748-1.328-2.092-1.058-3.206.348-1.331 1.344-2.794 2.918-2.882q.367-.033.726.008c.958.108 1.861.59 2.566 1.325.839.874.827 2.434.365 3.493a3.5 3.5 0 0 1-.475.79z"/>
    <path fill="#000" d="M160.492 112.325c.136-.476.553-.726 1.047-.636.534.098.754.485.897.966.491 1.649.473 3.389.606 5.091a.3.3 0 0 1-.007.084.26.26 0 0 1-.078.165c-.275.277-.71.687-1.144.494-.205-.091-.229-.225-.291-.43a34 34 0 0 1-.743-2.957c-.175-.841-.491-2.064-.288-2.777zM163.054 117.41c.725-1.681 1.265-3.407 2.381-4.873.267-.342.973-.371 1.228.09.105.28.03.708-.1.998-.881 1.457-1.708 3.053-2.744 4.475-.229.075-.478-.071-.765-.69"/>
    <path fill="#000" d="M163.284 117.54c.422-.989.79-2.001 1.252-2.971.229-.484.483-.957.778-1.403.165-.252.337-.607.678-.622.392-.016.491.349.429.665-.091.463-.454.906-.688 1.312-.271.466-.537.935-.813 1.398-.277.467-.561.93-.862 1.382-.064.094-.274.522-.39.536-.137.017-.335-.466-.381-.56-.152-.306-.606-.039-.456.264.174.351.454.879.926.838.223-.021.288-.14.413-.314q.352-.498.677-1.016c.47-.743.903-1.507 1.343-2.267.328-.567.782-1.13.785-1.815.004-.495-.291-.867-.788-.94-.537-.08-.87.216-1.159.624-.991 1.405-1.531 3.058-2.2 4.626-.132.309.323.573.457.261zM29.589 135.454c.274.157.572.274.882.336.799.159 1.62-.064 2.418.087q.377.4.77.782a23.5 23.5 0 0 0 6.267 4.346c2.575 1.221 5.394 1.982 8.235 2.172 1.636.109 3.277.05 4.898-.213.428-.069.812-.452.744-.918-.062-.426-.453-.823-.913-.748a20 20 0 0 1-3.072.265h-.49q-.115-.001-.232-.005l-.148-.005a21.7 21.7 0 0 1-5.038-.817l-.148-.043-.185-.056a23.075 23.075 0 0 1-2.435-.913 23 23 0 0 1-2.288-1.171l-.182-.107-.02-.013q-.065-.039-.128-.078a23 23 0 0 1-2.705-1.975 20.8 20.8 0 0 1-1.275-1.176l-.2-.202-.004-.004-.115-.12a1 1 0 0 0-.124-.114c.13-.234.252-.477.355-.721.62-1.047.477-2.434-.18-3.373-.806-1.111-2.265-2.108-3.763-1.611a3.7 3.7 0 0 0-.674.274c-.854.451-1.519 1.231-1.907 2.175-.464 1.122.114 2.57.928 3.386.217.216.463.408.729.56"/>
    <path fill="#000" d="M31.377 123.648c-.3-.394-.78-.472-1.207-.206-.46.286-.525.729-.484 1.228.143 1.716.792 3.33 1.286 4.962a.3.3 0 0 0 .037.075.26.26 0 0 0 .132.125c.357.157.911.378 1.244.04.158-.16.13-.294.115-.507a35 35 0 0 0-.384-3.026c-.143-.847-.293-2.101-.741-2.691zM30.841 129.323c-1.284-1.298-2.416-2.707-3.986-3.662-.375-.221-1.041.012-1.111.535.003.3.23.671.456.893 1.35 1.033 2.7 2.215 4.18 3.156.241-.014.42-.242.461-.922"/>
    <path fill="#000" d="M30.676 129.528c-.753-.766-1.463-1.573-2.245-2.307-.39-.365-.797-.712-1.234-1.02-.245-.173-.535-.44-.857-.328-.371.13-.33.504-.156.775.253.397.752.678 1.118.969.421.335.84.673 1.265 1.003.427.333.86.66 1.305.969.093.064.447.384.56.355.134-.035.142-.557.151-.661.029-.34.55-.258.52.078-.034.391-.103.985-.558 1.12-.215.062-.32-.024-.499-.141a22 22 0 0 1-1-.697c-.708-.519-1.388-1.071-2.075-1.617-.512-.407-1.14-.764-1.391-1.4-.183-.46-.043-.913.394-1.165.47-.27.887-.118 1.305.157 1.432.944 2.536 2.284 3.728 3.498.236.239-.093.654-.33.412z"/>
    <path fill="#000" d="M66.437 189.376c-.42 2.015 4.944 2.327 7.007 2.577 7.32.884 14.761.17 22.068-.41q1.24-.156 2.486-.284c7.632-.762 15.102.58 22.715.732 6.325.127 12.689.061 18.994-.471 1.002-.085 2.742-.171 3.378-.975.639-.809-.024-1.427-.954-1.701-4.5-1.325-9.392-1.326-14.089-1.466-9.566-.283-19.009 1.593-28.543 1.125-2.123-.104-4.22-.386-6.321-.652-.7-.088-1.4-.175-2.102-.251-4.005-.443-8.095-.518-12.147-.364-2.068.078-4.133.197-6.186.376-1.692.149-3.969.17-5.404.824-.54.245-.829.586-.902.941z" opacity=".05"/>
    <path fill="#000" d="M120.192 155.748c.483.445.97.892 1.432 1.37l-.031-.026c.063.051.16.13.226.203q.834.817 1.646 1.648a139 139 0 0 1 3.229 3.422c2.1 2.296 4.124 4.643 6.135 6.995 1.139 1.333 2.274 2.667 3.418 3.998.376.437 1.053.676 1.416.437.36-.237.392-.776-.011-1.244-4.081-4.751-8.072-9.568-12.482-14.107a106.945 106.945 0 0 0-3.99-3.91c-.435-.405-1.158-.429-1.388-.11-.269.374-.073.887.4 1.326z"/>
    <path fill="#000" d="M137.305 173.294a6 6 0 0 0 1.109-.575c.575-.474 1.344-1.086 1.864-1.791q.196-.264.336-.546c.068-.134.139-.29.196-.45.057-.162.102-.33.123-.493.1-.511-.317-.847-.764-.961-.524-.078-1.013-.077-1.472.141a3 3 0 0 0-.354.194c-1.01.658-1.547 1.946-1.371 3.219q.017.163.044.327c.113.203.059.456.171.661q.053.14.119.274z"/>
    <path fill="#000" d="M137.545 173.92c.531-.211 1.047-.482 1.49-.847.443-.363.876-.74 1.275-1.153a5.2 5.2 0 0 0 1.007-1.457c.229-.51.425-1.162.193-1.705-.459-1.066-1.935-1.185-2.892-.834-.982.359-1.763 1.235-2.102 2.217a4.3 4.3 0 0 0-.229 1.785q.017.189.044.375c.015.099.029.204.061.298q.025.047.041.098-.027-.123-.006-.013c.028.303.124.58.255.852.153.316.513.538.863.386.309-.135.547-.53.384-.868a5 5 0 0 1-.119-.274c-.013-.034-.054-.186-.026-.034l-.016-.104a2.4 2.4 0 0 0-.073-.374l-.029-.074-.006-.039q-.01-.064-.017-.131-.021-.151-.032-.304-.005-.06-.007-.119c0 .007 0-.189-.003-.093 0 .096.006-.097.005-.091q.005-.074.013-.147a3 3 0 0 1 .049-.319q.018-.087.038-.17c-.04.124-.006.026 0 0q.043-.137.097-.272.054-.133.118-.261.028-.05.053-.101.06-.103-.006.008.029-.049.062-.094.141-.212.317-.396c.02-.021.158-.139.032-.034l.084-.073a3 3 0 0 1 .368-.263c-.075.042.121-.058.105-.05q.132-.06.268-.102c.119-.039.024-.005-.002 0q.083-.017.168-.027.055-.007.113-.012c.021 0 .217-.006.143-.006-.097 0 .094.005.089.005l.118.009q.091.012.179.021c.132.011.021 0-.011-.011.043.014.2.053.226.098l-.07-.042q.04.027.078.058.018.015.037.03l-.026-.029c-.008.003.059.064.054.076l-.038-.073a1 1 0 0 1 .033.087c-.052-.119-.028-.067-.012-.026q.001-.035.003-.07a1 1 0 0 1-.014.107q-.01.062-.02.124c-.001.009-.054.209-.016.08a3 3 0 0 1-.119.325 5 5 0 0 1-.148.31s-.115.197-.05.092q-.038.06-.079.12-.218.313-.478.592a8 8 0 0 1-.266.273c-.094.091.118-.106-.047.043l-.151.139q-.295.263-.599.511a4.5 4.5 0 0 1-.577.413c-.193.116.053-.025-.062.036a6.591 6.591 0 0 1-.594.272c-.325.13-.528.533-.384.868.143.332.516.524.863.386zM88.258 160.617q-.314.495-.622.989l-.29.471q-.065.106-.127.21l-.13.216a121 121 0 0 0-3.446 6.139c-1.454 2.757-2.823 5.54-4.18 8.326-.767 1.579-1.53 3.158-2.301 4.736-.254.519-.85.922-1.26.781-.409-.137-.575-.652-.302-1.207 2.755-5.633 5.406-11.308 8.534-16.819a113 113 0 0 1 2.871-4.784c.316-.497.996-.692 1.294-.437.35.299.295.841-.043 1.375z"/>
    <path fill="#000" d="M76.123 181.913a6 6 0 0 1-.61-.105 7 7 0 0 1-.606-.17c-.676-.312-1.574-.708-2.255-1.26a3.926 3.926 0 0 1-.766-.83 2.4 2.4 0 0 1-.242-.447c-.227-.469.094-.9.497-1.123.487-.208.96-.331 1.46-.237q.202.035.393.098c1.142.38 1.985 1.491 2.136 2.766q.025.163.039.328c-.058.226.057.457 0 .684q-.016.148-.046.296"/>
    <path fill="#000" d="M76.048 182.581c-.567-.071-1.135-.202-1.654-.442-.52-.24-1.034-.493-1.523-.791a5.1 5.1 0 0 1-1.34-1.155c-.35-.436-.705-1.016-.616-1.6.176-1.148 1.575-1.637 2.588-1.542 1.04.097 2.016.747 2.59 1.611a4.34 4.34 0 0 1 .723 2.045c.01.099.024.203.016.304a.6.6 0 0 0-.016.104q-.005-.125.003-.014c.048.301.025.593-.034.889-.068.344-.361.652-.737.593-.333-.053-.662-.375-.59-.742q.029-.147.046-.296c.005-.036.007-.194.016-.039l-.01-.105a2.6 2.6 0 0 1-.023-.383l.01-.079-.004-.038q-.007-.065-.016-.132a5 5 0 0 0-.046-.302l-.024-.117c0 .006-.046-.183-.02-.09.025.091-.03-.093-.03-.086l-.049-.14a4 4 0 0 0-.127-.294q-.04-.079-.08-.156c.013.023.069.109 0 0a4 4 0 0 0-.34-.461l-.077-.083q-.084-.084.008.005l-.083-.077a3 3 0 0 0-.406-.303c-.026-.016-.188-.095-.039-.024l-.1-.05a3 3 0 0 0-.314-.125c.016.005-.193-.056-.11-.035s-.13-.024-.113-.022a3 3 0 0 0-.285-.032c-.124-.007-.024 0 0 0q-.083.005-.17.016-.055.007-.11.017c-.021.003-.213.048-.14.029.093-.025-.09.029-.085.027l-.112.04c-.056.021-.111.047-.167.066-.126.043-.02.006.008-.013-.038.026-.182.101-.194.152l.057-.057q-.031.036-.06.075l-.028.038.018-.033c.008 0-.042.077-.034.086l.02-.078a1 1 0 0 0-.01.093c.02-.128.01-.072.006-.028l-.02-.067a1 1 0 0 0 .04.1q.022.057.049.115c.004.008.103.189.035.074q.09.148.197.283.106.136.222.263s.16.16.07.075q.052.05.107.096c.19.167.398.316.611.452q.16.102.327.197c.113.064-.14-.074.054.029l.182.096q.35.179.709.342c.218.101.43.186.663.253.215.063-.057-.011.068.018q.118.028.238.05.202.038.406.062c.347.043.645.381.59.742-.056.357-.368.637-.738.592z"/>
    <path fill="#F9C41C" d="m95.082 32.782-8.435.788-.823-8.885 3.808-.355a2.586 2.586 0 0 0 2.327-2.817l-.956-10.337A2.58 2.58 0 0 0 88.2 8.837l-28.859 2.699a2.586 2.586 0 0 0-2.326 2.817l.175 1.895c.564 6.086 5.93 10.563 11.984 9.996 2.2-.205 4.44-.825 6.654-.405 2.047.387 3.301 2.234 3.354 4.26.067 2.57-1.546 4.147-4.012 4.534-2.947.463-5.975.569-8.949.846a2.586 2.586 0 0 0-2.326 2.817l.175 1.895a11.13 11.13 0 0 0 2.47 6.02 11.1 11.1 0 0 0 3.78 2.959q.728.348 1.5.586c2.765.83 5.568-.013 8.21 1.055.235.117.452.258.645.433 1.319.965 1.069 2.649 1.368 4.628.316 2.097 2.343-2.727 3.428-3.696q.188-.287.352-.542.175-.284.355-.555c.602-.905 1.29-1.697 2.393-2.047.249-.037.496-.061.741-.083l7.202-.673a2.585 2.585 0 0 0 2.327-2.818l-.956-10.336a2.58 2.58 0 0 0-2.803-2.339z"/>
    <path fill="#F9C41C" d="M95.656 32.792c-.069-.59-.155-1.19-.233-1.816a67 67 0 0 0-.359-2.101c-.388-2.094-.838-4.173-1.094-6.268-.16-.967-.314-1.912-.481-2.857-.461-2.785-1.038-5.564-1.68-8.373a161 161 0 0 0-.562-3.159 363 363 0 0 0-1.253-6.286c-.145-.85-.465-1.465-1.485-1.21-.35.028-.747.065-1.144.102l-2.38.222a8.26 8.26 0 0 0-5.937 3.397c-.881 1.218-1.203 2.83-2.12 4.056-1.3 1.733-3.412 1.793-5.393 1.994-2.195.222-4.402.312-6.6.517l-5.595.524a2.585 2.585 0 0 0-2.327 2.817l.176 1.895q.049.514.14 1.01c1.468 2.412 4.154 3.988 7.057 4.05 4.903.198 9.665-1.135 14.216.465.546 5.424 1.149 10.84 1.732 16.26-.982.397-2.006.62-3.042.718-4.406.691-8.8 1.193-13.204 1.596a11.1 11.1 0 0 0 2.452 5.866 11.1 11.1 0 0 0 3.78 2.958q.727.348 1.5.586c2.765.83 5.568-.013 8.211 1.055.234.117.451.258.644.433 1.318.964 1.07 2.646 1.367 4.624q.27 3.518.489 7.037c.252 4.075.527 8.56-.916 12.461 3.701-1.07 7.66-1.405 11.131-2.85 1.225-.462 2.52-1.394 2.58-3.254.083-.355.56-1.542.524-2.098q.091-1.276.121-2.546c.038-1.243.116-2.48.17-3.721.192-4.233-.068-8.385-.296-12.56l.67-.062a2.585 2.585 0 0 0 2.326-2.818l-.956-10.337a2.58 2.58 0 0 0-2.23-2.325z"/>
    <path fill="#F9C41C" d="M120.362 80.01c-7.667-1.137-12.605-8.436-14.281-15.54a31 31 0 0 1-.741-3.995 90 90 0 0 1-.754-4.752c-.639-4.768-1.004-9.53-1.714-13.558l-.294-3.164-2.318-25.047-.138-1.496c-.109-1.103-.203-2.298-.359-3.5-.078-.6-.172-1.2-.292-1.793-.608-4.65-5.24-6.916-9.488-6.791-1.88.183-3.775.282-5.569.75a8.27 8.27 0 0 0-5.365 3.32c-.88 1.217-1.203 2.83-2.12 4.055-1.299 1.733-3.412 1.794-5.392 1.994-2.196.223-4.403.312-6.6.518l-5.596.523a2.585 2.585 0 0 0-2.326 2.817l.175 1.895q.049.515.14 1.01c1.468 2.413 4.154 3.989 7.057 4.051 4.903.197 9.666-1.135 14.216.465.547 5.423 1.15 10.84 1.732 16.26-.981.397-2.006.62-3.041.717-4.406.692-8.8 1.193-13.204 1.597a11.1 11.1 0 0 0 2.452 5.865 11.1 11.1 0 0 0 3.78 2.958q.726.35 1.5.586c2.764.83 5.567-.012 8.21 1.056.235.117.452.258.644.432 1.318.965 1.071 2.646 1.367 4.624q.271 3.517.49 7.038c.251 4.074.527 8.559-.917 12.46a13 13 0 0 1-1.247 2.525q-.488.762-1.068 1.46c-4.25 4.898-11.219 5.55-16.696 8.61 3.304.848 6.867.747 10.13 2.16q.692.299 1.365.687.916.38 1.847.728c4.34 1.625 8.89 2.768 13.212 4.427a33 33 0 0 0 4.691.867l2.852-.268 2.852-.265c1.146-.209 2.137-.534 3.001-.958a9 9 0 0 0 2.24-1.554 24 24 0 0 1 2.326-1.992 33 33 0 0 1 2.516-1.714c2.135-1.547 4.519-2.732 6.778-4.076.454-.27.904-.545 1.359-.833a42 42 0 0 1 1.648-1.102c1.727-1 3.47-2.09 5.223-3.065-1.414-.332-2.852-.631-4.283-.989zM85.93 74.358"/>
    <path fill="#F4B80F" d="M82.744 48.966c-.473-.788-1.348-1.382-2.195-1.688-1.356-.49-2.833-.497-4.255-.614-4.394-.362-10.012-1.32-12.056-5.36a11.1 11.1 0 0 0 2.305 4.907 11.1 11.1 0 0 0 3.78 2.958c1.595.763 3.408 1.057 5.168 1.02 1.654-.035 3.047-.126 4.56.65.882.468 1.795 1.23 1.758 2.362.395-.79 1.037-1.602 1.233-2.49.144-.646.005-1.237-.3-1.747z"/>
    <path fill="#F4B80F" d="M120.362 80.012c-7.667-1.137-12.605-8.436-14.281-15.54a31 31 0 0 1-.741-3.995 90 90 0 0 1-.754-4.752c-.637-4.768-1.004-9.53-1.714-13.558l-.293-3.165c-.87-9.392-1.7-18.379-2.319-25.046l-.138-1.498c-.109-1.103-.203-2.298-.359-3.5a26 26 0 0 0-.291-1.793c-.61-4.65-5.241-6.916-9.489-6.791-2.277.221-4.573.32-6.69 1.097 1.381-.508 3.596.079 4.826.745 1.646.892 2.336 2.324 2.543 4.153 1.087 9.651 5.806 40.009 5.011 57.03-.04.851-.094 1.67-.163 2.44-.08 2.595-.379 5.442-2.159 7.443-2.41 2.764-6.266 3.549-9.872 2.835a9 9 0 0 1-1.86-.74c-.216.717-.582 1.313-.882 1.9q-.173.31-.366.611a15 15 0 0 1-1.068 1.46c-4.25 4.898-11.219 5.55-16.697 8.61 3.305.848 6.868.747 10.13 2.16q.693.3 1.366.687.916.382 1.847.729c4.34 1.624 8.89 2.767 13.212 4.427a33 33 0 0 0 4.69.866l2.853-.267 2.852-.266c1.146-.208 2.137-.533 3-.958a9 9 0 0 0 2.241-1.553 24 24 0 0 1 2.326-1.993 33 33 0 0 1 2.516-1.714c2.135-1.545 4.519-2.732 6.778-4.076.454-.269.903-.544 1.359-.833q.81-.569 1.648-1.102c1.727-1 3.47-2.09 5.223-3.065-1.414-.332-2.853-.631-4.283-.988z"/>
    <path fill="#F9C41C" d="M44.039 127.459a51.4 51.4 0 0 0 1.885 8.218c4.708 14.796 16.496 27.125 30.761 32.957 8.665 3.541 17.98 4.736 27.042 3.837 9.073-.797 18.009-3.698 25.875-8.786 12.951-8.377 22.273-22.679 24.185-38.095.346-2.793.461-5.615.346-8.426-.503-12.32-5.306-24.36-15.78-31.397-7.376-4.954-16.418-5.546-25.085-5.873l-.145-.005c-5.975-.218-11.956.022-17.906.597-5.954.539-11.876 1.411-17.708 2.733q-.072.015-.142.032c-8.456 1.928-17.237 4.186-23.575 10.423-9.004 8.859-11.515 21.582-9.748 33.785z"/>
    <path fill="#F4B80F" d="M138.351 85.767c-7.376-4.954-16.418-5.546-25.084-5.873l-.145-.005c-5.975-.218-11.957.022-17.906.597-5.955.539-11.877 1.411-17.709 2.733q-.072.015-.142.032-1.083.246-2.171.503 1.095-.188 2.19-.356c4.91-.344 10.176-.842 15.553-1.163 2.688-.16 5.405-.275 8.113-.304 11.611-.288 24.039 1.05 33.059 9.416 14.884 13.739 15.843 38.252 4.511 54.415a45 45 0 0 1-3.939 4.786c-4.259 4.502-9.426 8.119-15.272 10.512a57 57 0 0 1-8.072 2.89c-13.857 3.822-29.47 2.565-42.25-3.584a63 63 0 0 1-6.422-3.419 60 60 0 0 1-5.937-4.133 46.5 46.5 0 0 1-4.603-4.329c5.975 8.945 14.672 16.111 24.561 20.153 8.665 3.542 17.98 4.736 27.043 3.838 9.072-.798 18.008-3.698 25.874-8.787 12.951-8.376 22.274-22.679 24.186-38.094.346-2.794.46-5.616.346-8.427-.504-12.319-5.306-24.359-15.781-31.396z"/>
    <path fill="#fff" d="M82.704 148.698c.11.651.297 1.294.56 1.917 1.45 3.438 5.317 6.227 10.084 7.462 2.895.749 6.034.941 9.106.642 3.075-.275 6.125-1.046 8.832-2.319 4.458-2.098 7.748-5.556 8.542-9.203a8.7 8.7 0 0 0 .198-1.988c-.053-2.895-1.56-5.684-5.035-7.239-2.446-1.096-5.499-1.147-8.425-1.14h-.049a66 66 0 0 0-6.059.313 66 66 0 0 0-6.014.816l-.047.009c-2.878.537-5.869 1.153-8.07 2.683-3.13 2.173-4.1 5.192-3.621 8.048z"/>
    <path fill="#F4B80F" d="M117.438 139.521c.3.846.454 1.737.475 2.638a9 9 0 0 1-.164 1.95c-.692 3.574-3.638 6.946-7.65 8.972-2.438 1.23-5.186 1.963-7.962 2.212-2.774.27-5.61.061-8.231-.697-4.316-1.248-7.83-4.014-9.165-7.4a9 9 0 0 1-.52-1.885 8.5 8.5 0 0 1-.017-2.679c-.607.717-.911 1.417-1.14 2.034a7.6 7.6 0 0 0-.476 2.516c-.1 5.047 4.16 9.469 8.475 11.372 8.928 3.936 21.833 1.962 27.044-7.065.765-1.325 1.393-2.792 1.72-4.291a8.7 8.7 0 0 0 .197-1.988c-.038-2.093-.836-4.129-2.587-5.685zM69.164 26.18q.627-.001 1.251-.014c2.607-.057 5.88-.479 7.787 1.701 1.255 1.435 1.337 3.825.075 5.355q.538-.264 1.039-.61c1.666-1.155 2.974-2.962 3.471-4.88.067-.294.107-.593.11-.9a4 4 0 0 0-.106-.944c-.59-3.33-4.349-4.531-7.304-4.8a19 19 0 0 0-1.547-.103c-3.109-.086-6.299.455-9.552.325-2.904-.06-5.59-1.638-7.057-4.05.334.55.372 1.52.626 2.144.306.755.694 1.474 1.158 2.142a11.1 11.1 0 0 0 3.388 3.177c2.04 1.229 4.348 1.456 6.661 1.46z"/>
    <path fill="#fff" d="M58.768 97.604c-1.365.479-2.635 1.523-3.676 2.644a22.2 22.2 0 0 0-2.963 4.019c-1 1.697-1.723 3.65-1.879 5.62q-.022.282-.036.586c-.012.2.004.413.015.618.032.415.075.817.21 1.174.252.713.694 1.177 1.443 1.12.505-.066.992-.324 1.418-.647.205-.164.424-.341.617-.527.194-.186.36-.38.516-.569.836-1.025 1.477-2.16 2.206-3.238.778-1.152 1.559-2.281 2.312-3.502.718-1.166 1.495-2.394 2.128-3.67a5.026 5.026 0 0 0 .508-1.524c.073-.52.013-1.042-.284-1.49-.252-.379-.636-.619-1.085-.72a2.63 2.63 0 0 0-1.45.11zM69.481 91.495c-.704-.226-1.44-.076-2.07.148-.678.24-1.31.567-1.903.915-.695.41-1.326.915-1.766 1.563-.346.497-.793 1.283-.1 2.146.484.564 1.18.822 1.701.856.354.022.682-.024.995-.106.307-.074.599-.18.88-.279.608-.216 1.148-.482 1.636-.85.465-.35.917-.756 1.306-1.272a2.22 2.22 0 0 0 .402-1.763 2 2 0 0 0-.397-.87 1.5 1.5 0 0 0-.685-.488zM73.546 12.841c-.87-.126-1.845-.038-2.743.055-.963.1-1.927.213-2.872.288-1.112.091-2.214.163-3.29.296a29 29 0 0 0-.661.092c-.226.035-.454.09-.652.149-.395.126-.693.34-.66.716.044.254.23.504.495.732.262.227.607.406.95.546.928.36 2.007.469 3.046.506 1.117.04 2.22-.048 3.295-.27 1.026-.212 2.062-.52 2.965-.93.672-.306 1.308-.77 1.284-1.307-.019-.458-.534-.78-1.155-.871zM76.01 37.252c-.711-.131-1.508-.05-2.243.039-.787.096-1.572.202-2.347.27-.908.084-1.81.15-2.69.276a19 19 0 0 0-.54.086c-.184.034-.369.087-.531.145-.324.123-.566.336-.536.712.037.255.19.506.408.734.217.229.499.41.78.552.76.366 1.643.482 2.494.524a9.3 9.3 0 0 0 2.693-.25c.838-.205 1.683-.506 2.419-.91.548-.302 1.064-.762 1.042-1.298-.02-.458-.441-.783-.951-.878z" opacity=".34"/>
    <path fill="#EC4899" d="M84.783 124.59c-1-1.735-3.282-2.191-5.091-1.84a.1.1 0 0 0-.029.008q-.015 0-.028.003c-1.538.334-3.518 1.345-3.856 3.062-.346 1.757 1.504 2.862 2.973 3.134 1.538.284 3.174-.051 4.523-.826 1.238-.711 2.338-2.097 1.506-3.54zM117.289 120.126h-.029l-.028-.005c-1.726-.09-3.531.524-4.519 2.027-.399.608-.582 1.355-.303 2.051.271.674.853 1.162 1.476 1.499 1.354.732 3.032.929 4.526.604 1.415-.308 3.303-1.379 3.235-3.066-.083-2.045-2.675-2.987-4.36-3.112zM99.06 123.138c-1.507-1.494-3.452-.255-4.287 1.28 1.255.988 2.823 1.558 4.428 1.324 1.644-.238 3.073-1.19 4.053-2.495-1.309-1.088-2.994-1.731-4.195-.109"/>
    <path fill="#000" d="M104.504 119.255c-.193-.527-.676-.86-1.35-.808-.921.072-1.694.691-2.549.973a10.2 10.2 0 0 1-4.624.415c-.84-.122-1.887-.506-2.703-.101-1.102.548-.675 2.09-.137 2.909a7.6 7.6 0 0 0 1.632 1.774c.837-1.534 2.78-2.774 4.286-1.279 1.202-1.623 2.886-.98 4.195.109a6.9 6.9 0 0 0 1.323-3.176c.041-.3.014-.577-.073-.816M76.292 119.219c.27-1.32.969-2.741 2.415-3.034 1.462-.295 2.848.716 3.506 1.959.752 1.422 2.917.186 2.163-1.24-1.161-2.196-3.63-3.611-6.11-3.177-2.35.411-3.91 2.572-4.369 4.8-.135.661.172 1.353.852 1.548.61.177 1.404-.192 1.541-.856zM113.643 116.774c.459-1.265 1.353-2.572 2.827-2.651 1.488-.08 2.715 1.122 3.187 2.448.54 1.516 2.86.607 2.32-.912-.834-2.341-3.072-4.101-5.59-4.031-2.385.066-4.238 1.978-5.013 4.115-.229.634-.024 1.364.622 1.657.577.263 1.416.015 1.647-.624z"/>
  </g>
  <defs>
    <clipPath id="a">
      <path fill="#fff" d="M0 0h192v192H0z"/>
    </clipPath>
  </defs>
</svg>
