<svg xmlns="http://www.w3.org/2000/svg" width="260" height="260" fill="none" viewBox="0 0 260 260">
  <path fill="#fff" d="M0 0h260v260H0z"/>
  <path fill="#2563EB" d="M57.154 39.513a1.31 1.31 0 0 0 .238 1.872l17.79 13.729a1.31 1.31 0 0 0 1.873-.237q.071-.09.124-.194a1.316 1.316 0 0 0-.362-1.647l-17.79-13.729a1.31 1.31 0 0 0-1.873.206M124.068 12.013a1.304 1.304 0 0 0-1.466 1.123l-2.995 22.278a1.308 1.308 0 0 0 1.796 1.38 1.3 1.3 0 0 0 .8-1.031l2.995-22.278a1.3 1.3 0 0 0-.644-1.308 1.3 1.3 0 0 0-.486-.164M86.933 16.799a1.31 1.31 0 0 0-.718 1.71l8.543 20.786a1.312 1.312 0 1 0 2.428-.998l-8.55-20.787a1.304 1.304 0 0 0-1.703-.711M87.59 213.256l8.58-6.022a1.33 1.33 0 0 1 1.504 0l7.826 5.492 7.831-5.492a1.33 1.33 0 0 1 1.504 0l7.826 5.492 7.825-5.492a1.33 1.33 0 0 1 1.504 0l7.831 5.492 7.826-5.492a1.33 1.33 0 0 1 1.503 0l7.825 5.492 7.832-5.492a1.33 1.33 0 0 1 1.504 0l8.58 6.022a1.31 1.31 0 1 1-1.51 2.141l-7.825-5.485-7.825 5.485a1.31 1.31 0 0 1-1.504 0l-7.832-5.485-7.825 5.485a1.31 1.31 0 0 1-1.504 0l-7.825-5.485-7.825 5.485a1.32 1.32 0 0 1-1.511 0l-7.825-5.485-7.825 5.485a1.31 1.31 0 0 1-1.504 0l-7.825-5.485-7.826 5.485a1.31 1.31 0 1 1-1.51-2.141"/>
  <path fill="#000" d="M197.816 47.613s2.009 2.858 5.079 3.002c1.872.087 3.557-.805 5.074-2.652 1.872-2.303 3.088-2.746 3.744-2.715.986.044 1.872 1.248 2.633 2.365 0 0 2.016 2.858 5.08 3.002 1.872.087 3.556-.805 5.073-2.652 1.142-1.386 2.278-2.072 3.388-2.053 1.71.037 3.014 1.722 3.039 1.753a1.312 1.312 0 0 0 2.103-1.566c-.081-.113-2.059-2.733-5.061-2.808-1.959-.05-3.806.96-5.491 3.007-.948 1.161-1.922 1.729-2.883 1.704-1.423-.037-2.733-1.392-3.089-1.872-.855-1.248-2.296-3.395-4.667-3.507-1.872-.087-3.801 1.11-5.904 3.67-.955 1.16-1.922 1.728-2.883 1.703-1.429-.038-2.733-1.392-3.089-1.872-.861-1.248-2.296-3.395-4.667-3.507-1.873-.088-3.801 1.11-5.904 3.669-.954 1.16-1.922 1.735-2.883 1.703-1.423-.037-2.733-1.391-3.12-1.872-.861-1.248-2.296-3.394-4.668-3.507-1.872-.087-3.8 1.111-5.903 3.67a1.32 1.32 0 0 0-.318.968 1.31 1.31 0 0 0 .932 1.149 1.31 1.31 0 0 0 1.408-.451c1.872-2.303 3.089-2.746 3.744-2.715.986.044 1.872 1.248 2.634 2.365 0 0 2.009 2.858 5.079 3.002 1.872.094 3.551-.805 5.073-2.652 1.873-2.303 3.089-2.746 3.745-2.715 1.073.063 1.965 1.26 2.702 2.384"/>
  <path fill="#fff" d="M252.194 171.881c-.344-13.791-.331-17.853-1.086-31.675-.231-4.181-2.403-8.406-3.607-11.32s-3.058-5.173-4.861-7.794a47 47 0 0 0-2.871-3.744 46 46 0 0 0-3.12-3.282 49.7 49.7 0 0 0-6.365-5.167 56 56 0 0 0-5.878-3.507 65 65 0 0 0-4.905-2.297 72 72 0 0 0-3.694-1.441c-1.011-.362-1.785-.624-2.322-.812l-.805-.262a4 4 0 0 0-.405-.106l-.506-.156a10.5 10.5 0 0 0-3.282-.493 8.1 8.1 0 0 0-2.802.543q-.601.257-1.142.624-.505.347-.93.786a4.63 4.63 0 0 0-1.129 2.066c-.2.805-.187 1.648.037 2.446l-.193-.05a7.7 7.7 0 0 0-5.392.475 5.8 5.8 0 0 0-1.872 1.466 5.3 5.3 0 0 0-1.048 2.016 5.03 5.03 0 0 0 .362 3.525 7.03 7.03 0 0 0 2.614 2.833 5 5 0 0 0-1.504 2.497c-.624 2.539.924 5.185 3.358 6.595a5.16 5.16 0 0 0-1.354 2.366 5.4 5.4 0 0 0-.069 2.34 6.5 6.5 0 0 0 .849 2.146 7 7 0 0 0 1.522 1.735 6.2 6.2 0 0 0 1.972 1.092s.662.206 1.573.537c.911.33 2.065.78 3.082 1.248q1.285.585 2.497 1.31l.393.25.287.187.181.125.062.044a.8.8 0 0 0 .175.087q.103.063.2.137l.218.169.144.106.143.118c5.404 3.489 7.607 19.314 7.488 32.805z"/>
  <path fill="#000" d="M218.19 174.396a1.97 1.97 0 0 1-1.947-1.984c.162-15.482-2.602-28.574-6.565-31.133l-.199-.143-.162-.132-.057-.043-.193-.15a3 3 0 0 1-.349-.206l-.069-.05-.387-.256-.144-.087-.218-.137a23 23 0 0 0-2.259-1.186 37 37 0 0 0-2.92-1.186c-.862-.312-1.485-.511-1.504-.518a8.2 8.2 0 0 1-2.634-1.453 8.9 8.9 0 0 1-1.94-2.21 8.3 8.3 0 0 1-1.105-2.814 7.23 7.23 0 0 1 .643-4.643c-2.178-2.015-3.208-4.88-2.559-7.488a6.8 6.8 0 0 1 .674-1.697 8.3 8.3 0 0 1-1.647-2.303 6.95 6.95 0 0 1-.487-4.88 7.1 7.1 0 0 1 1.442-2.771q.502-.602 1.117-1.092a8 8 0 0 1 1.366-.867 9.2 9.2 0 0 1 4.369-.955c.037-.212.081-.43.131-.624a6.54 6.54 0 0 1 1.61-2.926q.563-.605 1.248-1.068c.47-.319.975-.584 1.504-.792a9.7 9.7 0 0 1 3.5-.693 12.3 12.3 0 0 1 3.913.58l.418.132c.168.037.337.087.505.137l1.068.35c.524.18 1.248.424 2.134.742 1.304.474 2.539.961 3.781 1.479a68 68 0 0 1 5.049 2.365 59 59 0 0 1 6.084 3.632 52 52 0 0 1 6.615 5.373 49 49 0 0 1 3.232 3.413 48 48 0 0 1 3.008 3.919c.38.549.761 1.086 1.148 1.622a32.5 32.5 0 0 1 3.906 6.528c.2.487.431 1.011.674 1.566 1.248 2.927 2.865 6.577 3.077 10.396.624 11.12.724 15.894.923 24.556.044 2.109.1 4.455.169 7.176a1.966 1.966 0 0 1-3.932.1c-.068-2.727-.118-5.073-.168-7.189-.2-8.618-.312-13.366-.917-24.43-.169-3.121-1.604-6.397-2.759-9.036-.249-.581-.486-1.13-.698-1.642a29 29 0 0 0-3.476-5.741c-.393-.549-.793-1.11-1.192-1.684a44 44 0 0 0-2.752-3.589 43 43 0 0 0-2.958-3.12 47.7 47.7 0 0 0-6.122-4.992 54 54 0 0 0-5.678-3.388 64 64 0 0 0-4.762-2.228 71 71 0 0 0-3.594-1.404 75 75 0 0 0-2.047-.712l-1.023-.337a1.4 1.4 0 0 0-.194-.056l-.187-.043-.505-.163a8.6 8.6 0 0 0-2.671-.399 6.2 6.2 0 0 0-2.091.399 4.4 4.4 0 0 0-.792.418 3.4 3.4 0 0 0-.58.493 2.7 2.7 0 0 0-.662 1.199c-.117.476-.106.976.031 1.447a1.973 1.973 0 0 1-2.39 2.422l-.187-.05a5.83 5.83 0 0 0-4.019.324 4 4 0 0 0-.705.449 3.6 3.6 0 0 0-.543.525 3.3 3.3 0 0 0-.661 1.248 3.08 3.08 0 0 0 .237 2.159 5 5 0 0 0 1.872 2.022 1.95 1.95 0 0 1 .923 1.488 1.96 1.96 0 0 1-.636 1.632 3 3 0 0 0-.924 1.51c-.386 1.554.625 3.376 2.434 4.424a1.96 1.96 0 0 1 .984 1.459 1.98 1.98 0 0 1-.578 1.661c-.409.406-.7.915-.843 1.473a3.5 3.5 0 0 0-.037 1.479c.103.525.302 1.026.587 1.479.287.475.654.898 1.085 1.248.401.335.86.593 1.355.761 0 0 .686.219 1.622.556 1.092.393 2.271.867 3.239 1.31q1.381.635 2.683 1.423l.181.112.287.181.274.175.188.131q.105.045.199.112.17.1.325.225l.343.256.112.087.05.044c2.921 1.965 5.13 6.621 6.565 13.847a104.6 104.6 0 0 1 1.697 20.555 1.97 1.97 0 0 1-1.953 1.891"/>
  <path fill="#000" d="M221.479 115.557a1.309 1.309 0 0 0 1.613-1.643 1.3 1.3 0 0 0-.559-.728l-.318-.181-.73-.393a51 51 0 0 0-2.696-1.348c-1.248-.624-2.552-1.136-3.8-1.623a81 81 0 0 0-4.312-1.528c-2.271-.737-4.824-1.461-7.8-2.216l-3.357-.83c-.171-.054-.352-.072-.53-.054a1.32 1.32 0 0 0-1.138.991 1.307 1.307 0 0 0 1.043 1.603l3.352.836c2.914.737 5.41 1.442 7.631 2.166 1.442.461 2.846.961 4.163 1.472 1.204.468 2.433.993 3.65 1.554 1.217.562 2.147 1.061 2.559 1.248l.73.393.199.119q.141.099.3.162M215.432 123.688a1.31 1.31 0 0 0 1.067-2.371 3 3 0 0 0-.28-.156l-.581-.312a64 64 0 0 0-2.203-1.105 55 55 0 0 0-3.207-1.367 73 73 0 0 0-3.744-1.335c-2.041-.662-4.368-1.323-7.139-2.028l-3.258-.811-.624 2.546 3.245.805c2.702.686 4.993 1.335 6.971 1.984 1.248.406 2.465.836 3.606 1.248a57 57 0 0 1 3.046 1.298c1.042.481 1.747.861 2.072 1.036l.586.318.15.081q.135.104.293.169M212.287 131.588a1.311 1.311 0 0 0 1.029-2.39l-.149-.087-.393-.219-.568-.305h-.032l-.773-.394a49 49 0 0 0-4.656-1.965c-1.872-.687-3.8-1.248-5.085-1.623-2.64-.748-2.646-.749-2.996-.686a1.309 1.309 0 0 0-.068 2.565c.156.043 1.073.28 2.352.624a58 58 0 0 1 4.899 1.566 44 44 0 0 1 4.368 1.872l1.311.68.305.169.156.093q.144.069.3.1"/>
  <path fill="#fff" d="M251.27 109.466a5.34 5.34 0 0 0-6.459 2.496 44.1 44.1 0 0 0-5.142 17.941l11.445 10.496c-.818-8.006.624-17.959 2.883-24.281.842-2.383-.306-5.847-2.727-6.652"/>
  <path fill="#000" d="M251.114 142.353a1.96 1.96 0 0 1-1.953-1.766c-.781-7.613.449-17.954 2.983-25.136a4.03 4.03 0 0 0-.263-2.889 2.4 2.4 0 0 0-1.248-1.248 3.384 3.384 0 0 0-4.137 1.61 42.3 42.3 0 0 0-4.886 17.11 1.95 1.95 0 0 1-2.103 1.816 1.97 1.97 0 0 1-1.822-2.103 45.9 45.9 0 0 1 5.398-18.777 7.29 7.29 0 0 1 8.792-3.388 6.23 6.23 0 0 1 3.52 3.251 7.85 7.85 0 0 1 .437 5.928c-1.935 5.473-3.626 15.139-2.777 23.426a1.95 1.95 0 0 1-.432 1.445 1.96 1.96 0 0 1-1.328.714z"/>
  <path fill="#000" d="M241.398 129.903a1.963 1.963 0 0 0-2.496-1.248c-9.067 2.958-12.631 8.849-13.729 11.233-1.005 2.171-.742 2.82-.586 3.213a1.97 1.97 0 0 0 2.564 1.105 1.97 1.97 0 0 0 1.248-1.679 13 13 0 0 1 2.409-4.093l3.557-3.214a22.6 22.6 0 0 1 5.797-2.82 1.97 1.97 0 0 0 1.139-.991 1.96 1.96 0 0 0 .097-1.506"/>
  <path fill="#2563EB" d="M256.624 160.73v.281c0 .187.044.437.075.774s.069.742.112 1.248c.044.505.088 1.023.131 1.622s.1 1.248.156 1.997.088 1.491.138 2.321c.112 1.66.168 3.495.255 5.517.32 9.76.136 19.531-.549 29.273a274 274 0 0 1-1.529 15.55c-.268 2.497-.667 4.874-.998 7.146a379 379 0 0 1-.499 3.307c-.181 1.067-.381 2.09-.556 3.083-.368 1.972-.699 3.787-.992 5.391a76 76 0 0 1-.898 4.144l-.793 3.607-42.583-9.91.655-2.983c.2-.948.468-2.097.742-3.426.275-1.329.524-2.845.824-4.486.15-.824.312-1.679.468-2.571s.275-1.816.412-2.771c.281-1.903.624-3.9.842-5.997.531-4.169.98-8.649 1.292-13.105.576-8.217.732-16.459.468-24.692-.075-1.66-.118-3.195-.212-4.518q-.058-1.002-.106-1.872c-.031-.581-.081-1.086-.119-1.554q-.054-.704-.099-1.248c-.032-.362-.063-.624-.082-.886-.018-.262-.037-.425-.049-.531v-.168z"/>
  <path fill="#2563EB" d="M207.282 238.24q.168.066.344.1a2.33 2.33 0 0 0 1.751-.315 2.33 2.33 0 0 0 1.013-1.463l.655-2.983c.075-.35.163-.718.25-1.111.15-.692.325-1.479.506-2.34v-.05l.823-4.493.169-.911c.099-.549.206-1.104.306-1.679v-.049l.418-2.777c.074-.55.162-1.092.243-1.648.218-1.416.443-2.877.624-4.418a230 230 0 0 0 1.298-13.254c.586-8.307.745-16.638.474-24.961 0-.512-.044-.999-.062-1.473-.044-1.104-.082-2.153-.15-3.12l-.112-1.872v-.038l-.119-1.553c0-.194-.031-.381-.044-.556l38.865-4.043c.037.461.081.961.118 1.522l.15 1.985.137 2.296c.081 1.248.138 2.571.194 3.988 0 .486.044.986.062 1.491.317 9.671.133 19.352-.549 29.005-.35 5.11-.855 10.296-1.51 15.426v.043c-.194 1.785-.462 3.545-.724 5.248-.093.624-.181 1.248-.268 1.81l-.5 3.27q-.176 1.038-.361 2.022l-.188 1.023-.986 5.354c-.212 1.055-.43 2.028-.624 2.889-.093.431-.187.837-.268 1.211l-.792 3.601a2.33 2.33 0 0 0 .31 1.755 2.33 2.33 0 0 0 4.239-.751l.792-3.613q.13-.569.268-1.204c.194-.88.412-1.872.624-2.97v-.044l.993-5.398q.085-.506.181-1.011.195-1.029.38-2.097v-.05l.499-3.301c.088-.624.175-1.192.269-1.791.262-1.747.543-3.55.742-5.429a274 274 0 0 0 1.536-15.669c.687-9.823.873-19.674.555-29.516 0-.518-.044-1.011-.062-1.492-.057-1.447-.113-2.82-.2-4.093l-.137-2.303v-.037l-.15-1.997c-.05-.624-.088-1.161-.137-1.673l-.219-2.302a2.33 2.33 0 0 0-1.654-1.989 2.3 2.3 0 0 0-.905-.083l-43.481 4.524a2.326 2.326 0 0 0-2.078 2.559v.168s0 .256.037.468l.081.886c.031.331.063.718.1 1.192l.112 1.535.113 1.872c.062.893.106 1.91.143 2.989 0 .481.044.974.063 1.473.262 8.144.105 16.296-.468 24.424a250 250 0 0 1-1.249 13.011.14.14 0 0 1 0 .057c-.149 1.435-.368 2.851-.574 4.224q-.132.854-.256 1.679l-.405 2.733a92 92 0 0 1-.293 1.591l-.169.93-.817 4.462c-.169.811-.337 1.572-.487 2.246-.087.4-.175.78-.25 1.136l-.655 2.977a2.34 2.34 0 0 0 1.466 2.745"/>
  <path fill="#000" d="m230.303 237.579.1.031a1.03 1.03 0 0 0 1.248-.73c.062-.231 1.566-5.828 2.833-16.549 1.167-9.866 2.327-26.103 1.248-47.426a1.037 1.037 0 1 0-2.065.106c1.06 21.161-.094 37.273-1.249 47.058-1.248 10.571-2.758 16.224-2.77 16.224a1.043 1.043 0 0 0 .655 1.286"/>
  <path fill="#000" d="M247.363 223.726a1.04 1.04 0 0 0 1.238-.403 1.04 1.04 0 0 0-.133-1.295c-4.019-4.056-10.016-7.575-17.822-10.452a79 79 0 0 0-10.521-3.12 1.038 1.038 0 0 0-1.052 1.576c.145.227.372.389.634.452.181.037 18.19 3.806 27.288 12.998.103.107.229.191.368.244M220.156 206.371c.185.071.387.086.581.044.162-.031 16.461-3.332 28.536 2.228a1.035 1.035 0 0 0 .868-1.872c-12.712-5.854-29.136-2.496-29.829-2.378a1.038 1.038 0 0 0-.665 1.571c.12.189.299.334.509.414z"/>
  <path fill="#fff" d="M65.616 113.703a5.1 5.1 0 0 0 .362-3.525 5.2 5.2 0 0 0-1.054-2.016 5.4 5.4 0 0 0-.837-.811 5.8 5.8 0 0 0-1.03-.655 7.73 7.73 0 0 0-5.397-.475l-.187.05a4.8 4.8 0 0 0 .037-2.446 4.7 4.7 0 0 0-1.136-2.066 5.5 5.5 0 0 0-.93-.786 6.4 6.4 0 0 0-1.141-.624 8 8 0 0 0-2.796-.543 10.4 10.4 0 0 0-3.282.493l-.506.156a3 3 0 0 0-.406.106l-.81.262c-.531.181-1.311.444-2.322.812s-2.246.83-3.688 1.441-3.12 1.348-4.905 2.297a56 56 0 0 0-5.878 3.507 50 50 0 0 0-6.372 5.167 52 52 0 0 0-3.12 3.282 47 47 0 0 0-2.864 3.744c-1.803 2.621-3.663 4.88-4.861 7.794s-3.376 7.139-3.607 11.32c-.761 13.822-.742 17.885-1.086 31.676l33.997.549c-.137-13.492 2.066-29.33 7.489-32.805l.143-.119.143-.106.219-.169q.096-.074.2-.137a1 1 0 0 0 .174-.087l.063-.044c.031 0 .1-.069.175-.125l.287-.187.399-.249q1.21-.728 2.496-1.311a37 37 0 0 1 3.076-1.248c.911-.324 1.58-.537 1.58-.537a6.2 6.2 0 0 0 1.971-1.092 7 7 0 0 0 1.516-1.734 6.3 6.3 0 0 0 .85-2.147c.15-.775.129-1.574-.063-2.34a5.2 5.2 0 0 0-1.36-2.365c2.433-1.411 3.993-4.056 3.363-6.596a5.04 5.04 0 0 0-1.504-2.496 7.03 7.03 0 0 0 2.602-2.815"/>
  <path fill="#000" d="M41.81 174.396a1.964 1.964 0 0 1-1.966-1.947 104 104 0 0 1 1.691-20.555c1.442-7.226 3.65-11.857 6.565-13.847l.063-.05.1-.075.324-.25a4 4 0 0 1 .343-.237q.095-.065.2-.112l.143-.094.056-.037.275-.181.275-.175.15-.094q1.321-.794 2.72-1.441a43 43 0 0 1 3.239-1.311 39 39 0 0 1 1.647-.567 4.2 4.2 0 0 0 1.31-.73 5.1 5.1 0 0 0 1.099-1.249c.286-.455.487-.958.593-1.485.095-.492.08-.999-.044-1.485a3.1 3.1 0 0 0-.842-1.466 1.968 1.968 0 0 1 .412-3.12c1.816-1.049 2.82-2.871 2.433-4.419a2.96 2.96 0 0 0-.93-1.516 1.97 1.97 0 0 1-.627-1.631 1.97 1.97 0 0 1 .914-1.489 5.03 5.03 0 0 0 1.872-2.022 3.12 3.12 0 0 0 .231-2.165 3.2 3.2 0 0 0-.655-1.248 3.7 3.7 0 0 0-.555-.537 4.3 4.3 0 0 0-.7-.449 5.8 5.8 0 0 0-4.018-.312l-.187.043a1.96 1.96 0 0 1-1.888-.525 1.97 1.97 0 0 1-.496-1.896 2.8 2.8 0 0 0 0-1.448 2.67 2.67 0 0 0-.655-1.198 3.8 3.8 0 0 0-.624-.511 5 5 0 0 0-.78-.4 6 6 0 0 0-2.097-.399 8.6 8.6 0 0 0-2.646.399l-.518.162-.18.044-.207.056-1.023.337c-.505.169-1.186.4-2.034.712a66 66 0 0 0-3.595 1.404 64 64 0 0 0-4.767 2.227 54 54 0 0 0-5.673 3.389 48 48 0 0 0-6.115 4.992 45 45 0 0 0-2.989 3.158 43 43 0 0 0-2.727 3.557q-.601.869-1.192 1.691a28.8 28.8 0 0 0-3.476 5.741c-.212.511-.449 1.061-.705 1.641-1.148 2.64-2.583 5.928-2.752 9.036-.624 11.07-.718 15.819-.917 24.443-.05 2.115-.106 4.455-.175 7.176a1.964 1.964 0 0 1-2.786 1.835 1.96 1.96 0 0 1-1.039-1.15 2 2 0 0 1-.1-.785c.069-2.714.119-5.054.168-7.163.2-8.668.312-13.442.924-24.568.206-3.819 1.797-7.489 3.077-10.397.237-.555.467-1.079.673-1.566a32.3 32.3 0 0 1 3.907-6.527c.38-.537.767-1.073 1.148-1.629a47 47 0 0 1 2.983-3.888c1.173-1.347 2.234-2.496 3.257-3.444a52 52 0 0 1 6.615-5.367 60 60 0 0 1 6.078-3.632 70 70 0 0 1 5.054-2.365 102 102 0 0 1 3.782-1.479c.886-.318 1.591-.555 2.122-.736l1.067-.35c.175-.056.35-.105.512-.143l.43-.131c1.257-.4 2.57-.596 3.888-.58a9.8 9.8 0 0 1 3.507.686 8 8 0 0 1 1.498.786 7.5 7.5 0 0 1 1.247 1.08 6.53 6.53 0 0 1 1.604 2.927q.083.308.131.624a9.26 9.26 0 0 1 4.4.954c.48.242.936.531 1.36.862q.619.492 1.13 1.098a7.15 7.15 0 0 1 1.441 2.77 7 7 0 0 1-.487 4.88 8.4 8.4 0 0 1-1.647 2.303c.298.534.525 1.104.674 1.697.624 2.621-.38 5.486-2.559 7.489a7.16 7.16 0 0 1 .624 4.636 8.4 8.4 0 0 1-1.11 2.821 9 9 0 0 1-1.954 2.228 8.4 8.4 0 0 1-2.59 1.429c-.043 0-.667.212-1.522.517-.998.362-2.065.793-2.933 1.192q-1.175.54-2.284 1.205l-.193.118-.131.088-.368.237-.07.05-.068.05q-.166.119-.35.212l-.392.299q-.1.09-.212.163c-3.97 2.558-6.727 15.65-6.571 31.132a1.97 1.97 0 0 1-.563 1.396 1.97 1.97 0 0 1-1.385.589z"/>
  <path fill="#000" d="M38.527 115.557a1.31 1.31 0 0 1-1.06-2.371l.324-.181.73-.393a51 51 0 0 1 2.69-1.348c1.248-.624 2.552-1.136 3.806-1.623a80 80 0 0 1 4.306-1.528c2.277-.737 4.824-1.461 7.8-2.216l3.357-.83a1.32 1.32 0 0 1 1.037.107 1.31 1.31 0 0 1-.413 2.433l-3.35.836c-2.915.737-5.41 1.442-7.626 2.166a75 75 0 0 0-4.169 1.472 67 67 0 0 0-3.644 1.554c-1.217.562-2.147 1.061-2.559 1.248l-.73.393-.206.119q-.136.098-.293.162M44.568 123.688a1.311 1.311 0 0 1-1.067-2.371s.1-.063.28-.156l.581-.312a60 60 0 0 1 2.209-1.105 55 55 0 0 1 3.201-1.367 73 73 0 0 1 3.744-1.335c2.035-.662 4.369-1.323 7.14-2.028l3.257-.811.624 2.546-3.251.805c-2.702.686-4.993 1.335-6.965 1.984a96 96 0 0 0-3.606 1.248c-.98.381-2.01.818-3.052 1.298s-1.741.861-2.065 1.036l-.587.318-.156.081a1 1 0 0 1-.287.169M47.72 131.588a1.311 1.311 0 0 1-1.03-2.39l.15-.087.392-.219.562-.305h.031l.774-.394a48 48 0 0 1 4.662-1.965c1.871-.687 3.8-1.248 5.08-1.623 2.645-.748 2.651-.749 2.994-.686a1.3 1.3 0 0 1 1.061 1.516 1.29 1.29 0 0 1-.992 1.049c-.156.043-1.067.28-2.346.624s-3.12.904-4.905 1.566a44 44 0 0 0-4.369 1.872l-1.316.68-.3.169-.162.093a1.4 1.4 0 0 1-.287.1"/>
  <path fill="#fff" d="M20.337 129.909a44.1 44.1 0 0 0-5.142-17.94 5.34 5.34 0 0 0-6.465-2.496c-2.415.805-3.57 4.268-2.72 6.658 2.227 6.321 3.694 16.274 2.876 24.281z"/>
  <path fill="#000" d="M8.892 142.353h-.206a1.975 1.975 0 0 1-1.683-1.395 2 2 0 0 1-.07-.764c.848-8.287-.849-17.954-2.783-23.432a7.84 7.84 0 0 1 .443-5.922 6.18 6.18 0 0 1 3.52-3.252 7.285 7.285 0 0 1 8.785 3.389 45.8 45.8 0 0 1 5.398 18.777 1.96 1.96 0 0 1-1.058 1.955 1.964 1.964 0 0 1-2.673-.909 2 2 0 0 1-.187-.759 42.5 42.5 0 0 0-4.887-17.111 3.4 3.4 0 0 0-4.137-1.61 2.38 2.38 0 0 0-1.248 1.248 3.97 3.97 0 0 0-.262 2.889c2.533 7.183 3.744 17.517 2.983 25.136a1.963 1.963 0 0 1-1.935 1.76"/>
  <path fill="#000" d="M34.827 139.894c-1.11-2.396-4.68-8.287-13.729-11.233a1.98 1.98 0 0 0-2.115.579 1.98 1.98 0 0 0-.477 1.433 1.97 1.97 0 0 0 1.344 1.733 22.6 22.6 0 0 1 5.797 2.82l3.557 3.214a12.9 12.9 0 0 1 2.415 4.093 1.97 1.97 0 0 0 1.248 1.679c.234.095.484.144.737.144a1.973 1.973 0 0 0 1.822-1.249c.143-.393.412-1.042-.6-3.213"/>
  <path fill="#2563EB" d="M3.382 160.73s0 .094-.03.281c-.032.187-.038.437-.076.774-.037.337-.062.742-.112 1.248-.05.505-.088 1.023-.131 1.622l-.15 1.997c-.056.749-.087 1.491-.137 2.321-.113 1.66-.175 3.495-.256 5.517-.322 9.76-.139 19.531.55 29.273.361 5.298.892 10.608 1.522 15.55.268 2.497.667 4.874 1.004 7.146q.25 1.703.5 3.307c.18 1.067.374 2.09.555 3.083.362 1.972.699 3.787.992 5.391a76 76 0 0 0 .899 4.144c.5 2.296.792 3.607.792 3.607l42.584-9.91s-.244-1.08-.624-2.983c-.206-.948-.474-2.097-.749-3.426l-.818-4.486c-.15-.824-.318-1.679-.474-2.571s-.268-1.816-.411-2.771c-.275-1.903-.625-3.9-.843-5.997-.53-4.169-.98-8.649-1.286-13.105a242 242 0 0 1-.474-24.692c.075-1.66.125-3.195.212-4.518q.066-1.002.112-1.872c.032-.581.082-1.086.12-1.554s.062-.886.099-1.248.056-.624.081-.886.038-.425.05-.531v-.168z"/>
  <path fill="#2563EB" d="M52.718 238.24a2.334 2.334 0 0 1-2.09-.215 2.33 2.33 0 0 1-1.018-1.464l-.655-2.982q-.112-.523-.243-1.111c-.156-.693-.331-1.479-.506-2.34v-.05l-.823-4.493c-.05-.306-.107-.624-.163-.911a91 91 0 0 1-.305-1.679.2.2 0 0 1 0-.05l-.419-2.777c-.08-.549-.162-1.092-.25-1.647a138 138 0 0 1-.623-4.418 229 229 0 0 1-1.298-13.255 243 243 0 0 1-.48-24.961c0-.511.043-.998.062-1.472.05-1.105.087-2.153.156-3.12l.106-1.872v-.038l.119-1.554c0-.193 0-.38.037-.555l-38.858-4.044c-.044.462-.081.961-.125 1.523l-.144 1.984-.143 2.297c-.081 1.248-.131 2.571-.194 3.987 0 .487-.037.986-.056 1.492a283 283 0 0 0 .543 29.004 276 276 0 0 0 1.51 15.426v.044c.194 1.785.462 3.544.718 5.248.094.624.187 1.248.275 1.81l.493 3.269c.118.693.243 1.367.362 2.022.062.344.13.687.187 1.024l.986 5.354c.218 1.054.43 2.028.624 2.889l.262 1.211.792 3.6a2.33 2.33 0 1 1-4.549 1.005l-.792-3.613q-.122-.57-.263-1.204c-.193-.88-.411-1.873-.624-2.971v-.044l-.992-5.397-.187-1.011c-.125-.687-.256-1.386-.375-2.097a.1.1 0 0 1 0-.05l-.499-3.301c-.087-.624-.18-1.192-.274-1.791-.262-1.747-.537-3.551-.743-5.429A274 274 0 0 1 .73 203.844a287 287 0 0 1-.555-29.517c0-.518.038-1.011.056-1.491.063-1.448.119-2.821.206-4.094l.137-2.302v-.038l.15-1.997c.044-.624.087-1.16.137-1.672l.219-2.303a2.32 2.32 0 0 1 2.558-2.071l43.482 4.524a2.317 2.317 0 0 1 2.072 2.558v.169s0 .256-.044.468l-.08.886c-.032.331-.057.718-.094 1.192l-.119 1.535-.112 1.872c-.056.892-.1 1.909-.144 2.989 0 .481-.037.974-.062 1.473a238 238 0 0 0 .468 24.424c.3 4.306.724 8.687 1.248 13.011a.2.2 0 0 1 0 .056c.15 1.435.368 2.852.58 4.225.088.568.175 1.129.25 1.678l.412 2.734c.093.543.193 1.073.287 1.591.062.318.118.624.174.93l.818 4.461c.168.812.337 1.573.487 2.247.087.399.174.78.25 1.136l.623 2.976a2.33 2.33 0 0 1-1.416 2.746"/>
  <path fill="#000" d="m29.704 237.579-.1.031a1.044 1.044 0 0 1-1.248-.73c-.063-.231-1.56-5.828-2.827-16.549-1.167-9.866-2.328-26.103-1.248-47.426a1.036 1.036 0 1 1 2.066.106c-1.068 21.161.087 37.273 1.248 47.058 1.248 10.571 2.758 16.224 2.776 16.224a1.043 1.043 0 0 1-.667 1.286"/>
  <path fill="#000" d="M12.642 223.725a1.032 1.032 0 0 1-1.4-1.073c.025-.236.13-.456.296-.624 4.019-4.056 10.016-7.576 17.822-10.452a79 79 0 0 1 10.521-3.121 1.04 1.04 0 0 1 1.27.799 1.035 1.035 0 0 1-.858 1.229c-.175.038-18.184 3.807-27.282 12.999a1.1 1.1 0 0 1-.369.243M39.844 206.371a1 1 0 0 1-.58.044c-.163-.031-16.462-3.332-28.53 2.228a1.036 1.036 0 0 1-.868-1.872c12.711-5.854 29.13-2.496 29.822-2.378a1.037 1.037 0 0 1 .156 1.985z"/>
  <mask id="94a" width="150" height="151" x="55" y="46" maskUnits="userSpaceOnUse" style="mask-type:alpha">
    <path fill="#fff" d="M204.886 121.242a74.89 74.89 0 0 1-46.226 69.183 74.877 74.877 0 0 1-102.101-54.574 74.883 74.883 0 1 1 148.327-14.609"/>
  </mask>
  <g clip-path="url(#95b)" mask="url(#94a)">
    <rect width="159" height="159" x="49" y="43" fill="#2563EB" rx="42.5"/>
    <g clip-path="url(#96c)">
      <path fill="#000" d="M64.458 187.386s-5.916 178.047-5.916 180.545c0 1.739-9.97 31.012-40.14 46.018a80.2 80.2 0 0 1-17.41 6.284 91 91 0 0 1-13.297 2.115c-6.866.558-13.77.467-20.618-.27-70.968-7.317-83.014-126.508-83.014-126.508l90.027-9.101s11.486-9.015 26.988-41.492A102 102 0 0 1 6 235.906c.376-.586.703-1.154 1.078-1.725 21.516-33.799 57.381-46.795 57.381-46.795"/>
      <path fill="#fff" d="m116.764 136.458 2.784 59.499 31.195-1.457-2.257-48.325-8.016-2.46z"/>
      <path fill="#CCF2FF" d="M118.473 148.058s2.832 7.452 11.205 12.346c5.154 3.005 13.703 1.852 19.499.519l-.691-14.744-8.016-2.464c-10.281 1.89-21.997 4.343-21.997 4.343"/>
      <path fill="#fff" d="M135.808 78.792c5.916.973 10.83 4.943 15.164 8.981 4.703 4.376 7.137 9.766 8.193 16.235.826 5.086.729 10.281.375 15.419-.439 6.761-2.047 11.705-4.327 18.053s-6.761 11.411-12.151 15.239c-10.54 7.46-23.424 2.055-30.212-7.749-8.587-12.396-10.627-25.242-9.635-40.391.319-4.921 1.067-10.01 3.734-14.086 3.437-5.26 9.469-7.96 15.333-9.876 4.327-1.412 8.884-2.55 13.384-1.844z"/>
      <path fill="#082658" d="M100.274 89.415s-1.375 7.512-.751 12.884c.623 5.371 1.697 9.233 3.47 9.856 1.011.357 2.078-6.363 2.81-12.223a14.27 14.27 0 0 1 9.477-11.712c4.17-1.442 9.154-2.896 13.256-3.298 4.188-.417 9.766.53 14.465 1.638a14.32 14.32 0 0 1 10.773 11.351c1.033 5.552 2.558 11.739 4.26 11.874 3.091.252 3.043 1.532 3.043 1.532l-1.274-19.025s-19.671-18.117-25.978-17.493c-6.307.623-33.551 14.616-33.551 14.616M140.128 115.922c-.09 2.348.958 4.29 2.336 4.343 1.379.052 2.57-1.807 2.66-4.151s-.958-4.286-2.337-4.338c-1.378-.053-2.569 1.803-2.659 4.146"/>
      <path fill="#082658" d="M118.544 115.941c.15 2.34 1.394 4.166 2.769 4.076 1.374-.09 2.37-2.062 2.216-4.403s-1.394-4.165-2.772-4.075c-1.379.09-2.367 2.062-2.213 4.402"/>
      <path fill="#2563EB" d="M130.984 117.741c.376-.871 1.826-.428 1.431.455a53 53 0 0 0-1.758 4.413c-.304.894-.8 2.036-.548 2.979s1.176 1.6 1.878 2.13c.751.578-.034 1.848-.804 1.266-1.314-.996-2.629-2.123-2.629-3.911-.023-2.434 1.469-5.165 2.43-7.332"/>
      <path fill="#082658" d="M142.988 99.167c-1.946-.801-4.472-.863-5.265 1.504-.523 1.562 1.01 2.117 2.203 2.535 2.373.822 4.226 2.673 6.552 3.47.391.156.815.211 1.232.159 1.319-.241.997-1.534.495-2.404a15.2 15.2 0 0 0-2.819-3.738 8.2 8.2 0 0 0-2.398-1.526M116.633 100.317c-2.233 1.102-3.73 3.326-4.668 5.565a1.8 1.8 0 0 0-.185 1.267c.086.197.223.367.398.491.174.125.379.201.593.218.429.032.858-.046 1.249-.225 2.071-.831 3.819-2.525 5.832-3.548.94-.476 2.857-.897 2.824-2.278-.053-2.335-2.804-2.421-4.768-1.94-.44.105-.868.255-1.275.45"/>
      <path fill="#fff" d="M154.995 112.091s2.956-6.179 8.328-4.079c7.539 2.941 3.328 18.751-4.789 20.904-8.118 2.152-3.539-16.825-3.539-16.825"/>
      <path fill="#2563EB" d="M130.425 138.046a8.185 8.185 0 0 0 10.714-7.682c.034-.948 1.529-1.092 1.488-.14-.222 6.797-6.3 11.154-12.821 9.192-.917-.282-.294-1.645.619-1.37M159.661 115.009a8.87 8.87 0 0 1 1.104 4.498 8.86 8.86 0 0 1-1.318 4.439c-.504.822-1.803.071-1.3-.752a7.3 7.3 0 0 0 .218-7.43c-.458-.848.845-1.607 1.296-.755"/>
      <path fill="#fff" d="M108.402 114.3s-3.658-5.796-8.74-3.088c-7.137 3.798-1.127 19.011 7.182 20.209 8.308 1.198 1.558-17.121 1.558-17.121"/>
      <path fill="#2563EB" d="M104.109 117.737a8.84 8.84 0 0 0 1.255 8.853c.593.752 1.799-.139 1.198-.901a7.29 7.29 0 0 1-1.078-7.351c.36-.898-1.014-1.499-1.375-.601"/>
      <path fill="#082658" d="M160.246 92.273s-28.413-11.247-29.299-11.126c-.703.105-19.029 5.157-26.794 7.302-2.099.57-3.433.946-3.433.946a58.3 58.3 0 0 1-5.713-10.033c-.376-.777-.691-1.588-1.007-2.426-.105-.27-.21-.556-.3-.842a34 34 0 0 1-.838-2.685c-2.565-9.639.42-18.575 11.321-20.033 6.266-.837 11.141 1.83 13.237 3.287q.59.385 1.127.838.161-.468.376-.913c1.093-2.254 4.632-7.648 12.895-6.404 6.116.931 9.102 5.698 10.39 8.665.343.786.619 1.599.827 2.43a8.2 8.2 0 0 1 .657-2.43v-.03c.706-1.502 2.025-3.132 4.605-3.403 5.788-.597 9.282 4.08 10.142 10.796 1.401 10.694 1.807 26.06 1.807 26.06"/>
      <path fill="#082658" d="M103.745 87.536c0 .3 0 .613-.03.928-.406 5.774-4.26 13.091-4.26 13.091s-13.18-4.508-15.085-14.019c-1.018-5.052 3.106-9.432 7.768-10.408a8 8 0 0 1 1.423-.177q.247-.037.496-.03h.075c5.323.03 9.613 4.782 9.613 10.615"/>
      <path fill="#000" d="M99.545 84.118c-1.649-1.589-3.298-3.181-4.977-4.74a195 195 0 0 0-2.43-2.254 8 8 0 0 1 1.423-.177c-.105-.27-.21-.556-.3-.841.3.27.586.54.871.811 2.19 2.006 4.35 4.06 6.476 6.13.691.665-.372 1.743-1.063 1.071M120.791 67.185c.18.943-1.289 1.213-1.503.27a356 356 0 0 0-2.325-10.765q.588.385 1.127.838a8 8 0 0 1 .375-.913c.857 3.497 1.608 7.02 2.326 10.57M143.434 68.312c0 .961-1.503.946-1.503-.03 0-3.148-.045-6.28-.12-9.417.343.785.619 1.598.826 2.43a8.2 8.2 0 0 1 .658-2.43q.139 4.728.139 9.447"/>
      <path fill="#082658" d="M222.98 421.402s-68.631.676-115.085.661v-11.156H63.947c-3.448-28.924-6.296-109.608-8.14-140.947-2.254-38.239 21.741-87.225 21.741-87.225l37.037-16.418 1.469-.646 2.055-.913s6.265 5.634 10.104 7.813c.376.207.691.376.992.507q.363.176.751.286.274.069.556.06.06.009.12 0h.03a10 10 0 0 0 1.664-.586c4.992-2.141 16.975-9.323 16.975-9.323s.777.236 2.145.642c.42.12.897.27 1.438.436 9.673 2.892 35.644 10.675 37.473 11.291 2.257.748 32.623 245.518 32.623 245.518"/>
      <path fill="#000" d="m124.555 338.677.045 4.77h-1.503l-.045-4.755c-.556-58.358-.466-111.227 6.134-165.599q.363.175.751.285.274.07.556.06.06.01.12 0h.03c-6.55 54.207-6.641 106.987-6.088 165.239"/>
      <path fill="#082658" d="M93.982 175.463s-11.306 46.244-14.334 79.742c-.06.537-.105 1.078-.15 1.619a159 159 0 0 0-.466 7.137c-.751 16.96-1.127 89.741-1.333 157.501v1.754c-.15 56.832-.18 130.737-.18 143.647a3.004 3.004 0 0 1-3.006 3.005H18.124a3 3 0 0 1-2.145-.9 3 3 0 0 1-.86-2.161c.586-24.949 4.572-215.858 6.43-253.346 1.995-40.485 6.21-98.542 12.746-106.205 8.775-10.318 29.374-19.972 43.907-25.88l1.946-.797c8.068-3.211 13.834-5.116 13.834-5.116M281.863 327.119v4.166c-.15 29.464-.961 59.995-1.303 85.575-.571 43.021-1.082 107.031-1.563 150.048a3 3 0 0 1-2.982 2.972h-96.623a3.005 3.005 0 0 1-3.005-2.957c-.135-10.48-.612-68.672-1.213-112.906v-1.502c-.676-48.28-1.502-104.616-2.254-143.734 0-1.473-.045-2.896-.075-4.305-.3-16.103-.601-28.923-.838-36.481-.105-3.313-.18-6.66-.21-10.018v-1.679c-.315-42.07 4.647-84.629 4.647-84.629 1.634.301 3.253.677 4.883 1.037.837.192 1.679.376 2.532.582.525.121 1.066.241 1.603.376 21.787 5.157 44.49 12.715 62.572 25.941 8.862 6.476 15.326 13.853 20.063 21.967.27.45.526.912.781 1.378 8.801 15.837 11.269 34.355 12.174 54.252.676 15.277.872 32.357.811 49.917"/>
      <path fill="#000" d="M128.198 172.586a7.6 7.6 0 0 0 1.754.793l-13.462 6.911a.73.73 0 0 1-.721 0 .75.75 0 0 1-.376-.597l-.823-13.342 1.469-.646.781 12.771zM152.881 164.592l-8.816 18.369a.83.83 0 0 1-.511.405.7.7 0 0 1-.166 0 .7.7 0 0 1-.465-.165l-12.295-9.793a8.3 8.3 0 0 0 1.695-.586l10.795 8.64 8.324-17.305c.421.12.898.27 1.439.435"/>
      <path fill="#fff" d="M134.933 182.254c0 1.503-.924 2.75-2.062 2.75s-2.062-1.228-2.062-2.75c0-1.521.924-2.749 2.062-2.749s2.062 1.232 2.062 2.749"/>
    </g>
  </g>
  <path fill="#000" d="M130.003 197.81a76.57 76.57 0 0 1-70.74-47.267 76.568 76.568 0 1 1 147.308-29.301 76.66 76.66 0 0 1-76.568 76.568m0-149.766A73.2 73.2 0 0 0 78.243 173 73.195 73.195 0 0 0 203.2 121.242a73.28 73.28 0 0 0-73.197-73.198"/>
  <defs>
    <clipPath id="95b">
      <rect width="159" height="159" x="49" y="43" fill="#fff" rx="42.5"/>
    </clipPath>
    <clipPath id="96c">
      <path fill="#fff" d="M-140 50h421.871v564.756H-140z"/>
    </clipPath>
  </defs>
</svg>
