<svg xmlns="http://www.w3.org/2000/svg" width="78" height="128" fill="none" viewBox="0 0 78 128">
  <g fill="#3B82F6">
    <path d="m22.71 44.202-.115.188a.97.97 0 0 0-.165.47q-.064.254.007.513a1 1 0 0 0 .225.462q.132.218.358.345l.303.137a1.3 1.3 0 0 0 .68.02l.325-.124a1.3 1.3 0 0 0 .48-.459l.117-.187a.97.97 0 0 0 .164-.47 1 1 0 0 0-.006-.514 1 1 0 0 0-.226-.462 1 1 0 0 0-.358-.344l-.302-.137a1.3 1.3 0 0 0-.68-.021q-.162.063-.326.125-.3.167-.48.458M17.432 31.557c.128-.381.162-.802.125-1.18-.163-1.62.532-3.56 2.503-3.447 1.877.185 1.784 2.492 1.53 3.953a16 16 0 0 1-.12.57c-.303 1.328-.743 2.638-.94 3.985-.324 2.206.022 4.495 1.302 6.352.454.543.91.196 1.256-.236.261-.325.196-.91.153-1.3-.604-1.906-.516-3.79.06-5.524.797-2.402 1.822-5.073.996-7.609-.488-1.495-1.684-2.663-3.129-3.25-1.72-.698-3.128-.311-4.798.305q-.285.155-.554.344c-2.186 1.545-3.83 6.027-1.118 7.867.655.444 1.61.507 2.208-.011.248-.215.419-.503.525-.82z"/>
  </g>
  <g fill="#BFDBFE">
    <path d="m15.173 49.286.003.127q-.001.15.068.279a.56.56 0 0 0 .164.246.56.56 0 0 0 .255.152.56.56 0 0 0 .281.054q.094-.016.19-.028a.75.75 0 0 0 .336-.203l.118-.163a.74.74 0 0 0 .089-.372q-.001-.064-.004-.127a.56.56 0 0 0-.067-.279.56.56 0 0 0-.165-.246.56.56 0 0 0-.254-.152.56.56 0 0 0-.281-.055l-.19.03a.75.75 0 0 0-.336.202l-.119.163a.74.74 0 0 0-.088.372M8.645 44.83a1.7 1.7 0 0 0-.31-.61c-.588-.733-.862-1.89.127-2.455.966-.5 1.646.644 1.983 1.43q.063.157.122.314c.27.738.47 1.51.797 2.223.537 1.169 1.424 2.168 2.627 2.664.39.119.502-.191.534-.51.024-.238-.191-.501-.335-.676a5.1 5.1 0 0 1-1.708-2.69c-.369-1.414-.713-3.028-1.91-3.994-.706-.57-1.652-.759-2.535-.587-1.052.203-1.611.833-2.225 1.656q-.09.165-.16.34c-.572 1.435.043 4.12 1.932 4.156.456.009.938-.26 1.065-.7a1.06 1.06 0 0 0-.004-.56z"/>
  </g>
  <g fill="#000">
    <path d="M22.604 125.936c-.177 1.39 2.079 1.605 2.946 1.777 3.078.61 6.207.118 9.279-.282q.522-.108 1.045-.196c3.208-.526 6.35.4 9.55.505 2.66.087 5.336.042 7.987-.325.422-.058 1.153-.118 1.42-.673.27-.558-.01-.984-.4-1.173-1.893-.914-3.949-.915-5.924-1.011-4.022-.195-7.992 1.098-12.001.776-.893-.072-1.774-.266-2.657-.45q-.441-.093-.884-.173c-1.685-.305-3.404-.357-5.107-.251-.87.054-1.738.136-2.6.26-.712.102-1.67.117-2.273.567a.95.95 0 0 0-.38.65z" opacity=".05"/>
    <path d="M46.022 109.055c-.03.453-.06.909-.117 1.366v-.029c0 .057 0 .142-.012.21q-.078.803-.175 1.602a97 97 0 0 1-.444 3.222 195 195 0 0 1-1.111 6.336c-.224 1.191-.452 2.381-.674 3.573-.073.392.092.862.378.956.284.092.588-.123.666-.543.792-4.255 1.66-8.493 2.194-12.836a78 78 0 0 0 .378-3.846c.03-.41-.27-.812-.541-.799-.319.016-.51.344-.542.789z"/>
    <path d="M43.98 125.881q.184.106.383.194.198.089.407.158c.505.107 1.167.261 1.772.238q.229-.008.44-.053c.103-.021.216-.05.328-.089s.222-.087.32-.147c.319-.165.319-.536.186-.827-.185-.317-.396-.582-.714-.737a2 2 0 0 0-.257-.108c-.792-.264-1.718 0-2.329.644a3 3 0 0 0-.157.165c-.06.15-.22.229-.281.378q-.054.09-.096.184z"/>
    <path d="M43.747 126.281c.344.196.714.359 1.101.442.388.082.778.155 1.174.193.409.039.822.019 1.22-.083.374-.096.81-.27 1.001-.63.376-.708-.2-1.557-.802-1.925-.618-.377-1.428-.422-2.104-.184a3 3 0 0 0-1.062.646 4 4 0 0 0-.183.185c-.048.051-.097.103-.134.161a.3.3 0 0 1-.034.064q.054-.068.004-.008c-.15.145-.258.317-.348.505-.104.218-.067.51.166.633.206.109.522.067.633-.166q.046-.094.096-.184c.012-.021.076-.109.007-.027q.023-.029.05-.054c.06-.065.119-.128.17-.202 0 0 .056-.1.026-.048l.018-.02.063-.065a3 3 0 0 1 .26-.243c-.052.04.056-.039.052-.037l.085-.056a3 3 0 0 1 .3-.162c-.082.032-.016.007 0 0q.094-.036.189-.065t.19-.049q.04-.008.078-.014.081-.014-.007 0 .039-.006.078-.008.176-.013.35 0c.02.002.144.025.031.002q.037.008.076.014a2 2 0 0 1 .3.088 1.728 1.728 0 0 1 .244.136c.073.047.014.011 0-.002q.046.038.088.079l.054.056c.01.01.099.115.067.074-.042-.053.037.053.035.051l.045.069q.033.053.067.106c.051.076.008.012 0-.011.01.029.058.131.045.165l-.008-.056.003.066v.033l.005-.026c-.006-.003-.009.06-.018.062l.022-.052-.032.055c.041-.079.024-.044.008-.018l.04-.028a1.765 1.765 0 0 1-.14.081c-.005.004-.135.062-.05.027q-.11.044-.226.075a3 3 0 0 1-.23.053s-.156.022-.071.012l-.1.009a3.6 3.6 0 0 1-.526-.004 6 6 0 0 1-.261-.027c-.09-.011.108.018-.043-.007l-.14-.022a12 12 0 0 1-.535-.103 3.4 3.4 0 0 1-.473-.135c-.145-.055.037.017-.046-.019a4.965 4.965 0 0 1-.404-.204c-.21-.121-.516-.057-.633.165-.116.22-.059.505.166.633zM30.719 109.075q.03.403.063.805l.033.381.015.169.017.174q.078.802.174 1.601.197 1.618.444 3.222c.329 2.127.716 4.234 1.112 6.336.224 1.191.452 2.381.674 3.573.073.392-.092.862-.378.955-.284.093-.588-.122-.666-.542-.793-4.256-1.66-8.493-2.194-12.836a77 77 0 0 1-.377-3.837c-.03-.406.268-.795.539-.778.318.02.51.344.543.778z"/>
    <path d="M32.76 125.88a4 4 0 0 1-.79.353c-.505.107-1.166.261-1.772.237a2.4 2.4 0 0 1-.44-.053 3 3 0 0 1-.328-.088 1.7 1.7 0 0 1-.319-.147c-.32-.166-.32-.536-.187-.827.186-.318.397-.583.714-.737q.126-.064.257-.109c.793-.264 1.718 0 2.33.645q.08.08.156.165c.06.149.22.229.282.378q.052.09.096.183z"/>
    <path d="M32.993 126.28a3.9 3.9 0 0 1-1.102.442 10 10 0 0 1-1.173.194 3.6 3.6 0 0 1-1.22-.083c-.374-.096-.81-.27-1.001-.63-.376-.708.2-1.558.802-1.926.618-.376 1.428-.422 2.104-.183a3 3 0 0 1 1.245.831c.048.051.097.103.134.161a.4.4 0 0 0 .034.064q-.054-.067-.004-.009c.15.146.258.317.348.505.104.219.067.511-.166.633-.206.11-.523.068-.633-.165q-.046-.094-.096-.184c-.012-.021-.076-.109-.007-.027q-.024-.028-.05-.055a2 2 0 0 1-.17-.202s-.056-.099-.026-.047l-.018-.02-.063-.065a3 3 0 0 0-.26-.243c.052.039-.056-.039-.052-.037l-.085-.056a3 3 0 0 0-.3-.163c.016.008.082.033 0 0a2.542 2.542 0 0 0-.379-.113q-.04-.008-.078-.015-.081-.013.006 0l-.078-.007a2 2 0 0 0-.35 0c-.02.002-.144.025-.031.002l-.076.014a2 2 0 0 0-.3.087c.054-.023-.084.041-.073.036q-.089.046-.172.1c-.072.048-.013.011 0-.001q-.045.038-.087.079-.03.027-.054.056c-.01.01-.099.115-.067.074.042-.053-.037.053-.035.051q-.023.033-.045.068-.033.055-.067.106c-.052.077-.008.013 0-.011-.01.03-.058.132-.045.166l.008-.056-.003.066v.033l-.005-.026c.006-.004.009.059.018.061l-.022-.051q.014.028.033.055c-.041-.08-.024-.044-.008-.018l-.04-.029q.03.023.064.039l.076.043c.005.003.135.062.05.027a2.3 2.3 0 0 0 .457.128s.155.022.07.012l.1.009q.262.018.526-.005.13-.01.261-.026c.09-.011-.108.018.043-.007l.14-.022q.27-.046.535-.104c.164-.034.316-.076.473-.134.145-.056-.037.017.046-.019q.078-.034.152-.071.128-.062.252-.134c.21-.12.516-.056.633.166.116.22.059.505-.166.633z"/>
  </g>
  <g fill="#000">
    <path d="M6.295 93.489a19 19 0 0 0-1.784 1.874l.025-.024c-.731.94-1.413 1.931-1.845 3.03v-.051a11.1 11.1 0 0 0-.726 5.949 15 15 0 0 0 .206 1.172q.02.094.043.19c.014.064-.004-.019-.007-.027l.035.142c.071.289-.014.634-.332.74-.266.088-.663-.02-.74-.331a16.3 16.3 0 0 1-.454-2.969c-.343-3.994 1.85-7.745 4.767-10.317.257-.196.639-.312.883-.002.146.205.114.482-.073.625z"/>
    <path d="M2.122 106.406a1.8 1.8 0 0 0-.752.438c-.554.586-.92 1.41-.669 2.26q.06.197.15.374c.332.788 1.262 1.184 2.01.877 1.171-.495 1.077-2.097.35-3.036a2.6 2.6 0 0 0-.384-.437 2.3 2.3 0 0 0-.442-.318z"/>
    <path d="M2.304 106.887a1.7 1.7 0 0 0-.311.125 1.686 1.686 0 0 0-.197.14c-.011.009-.133.13-.05.041q-.043.045-.083.093a3 3 0 0 0-.224.298c-.011.017-.082.136-.019.027a2.7 2.7 0 0 0-.234.529c.038-.12-.01.051-.014.074a2 2 0 0 0-.036.246l-.005.084c.005-.121.002.019.003.037q.005.129.029.256c.003.018.04.154.008.042q.027.095.061.188.047.116.101.23.025.058.054.115c-.06-.117.007.003.019.023q.07.102.152.194c-.088-.1.001-.002.021.016q.045.04.094.077.05.035.1.07c.107.076-.095-.041.024.013q.11.05.22.095c.12.05-.1-.017.026.009l.098.02q.048.008.098.014.04.005.078.007h-.013a4 4 0 0 0 .237-.025c.125-.018-.095.039.024-.007.03-.013.064-.021.095-.034l.092-.04c.119-.051-.09.064.014-.009.046-.032.189-.1.205-.157l-.047.045.048-.052q.036-.04.067-.083.02-.028.04-.057c.072-.096-.047.102.004-.007.03-.064.062-.126.086-.193.012-.032.065-.123.007-.009.02-.039.024-.098.032-.14a2 2 0 0 0 .032-.292c-.007.134-.002.007-.003-.017a3 3 0 0 0-.058-.455c.025.131 0 .004-.007-.019a3 3 0 0 0-.148-.401q-.016-.036-.033-.07-.016-.034-.035-.069.053.097.009.02c-.049-.075-.096-.15-.15-.223a5 5 0 0 0-.221-.282c-.01-.01-.072-.071-.014-.015a3 3 0 0 0-.158-.143c-.217-.181-.364-.247-.622-.405-.23-.141-.252-.53-.084-.722.201-.232.477-.236.723-.084l.07.043.017.01.166.097c.13.077.254.158.369.254.213.178.398.385.561.609.229.31.414.659.516 1.034.208.76.179 1.674-.386 2.285a1.984 1.984 0 0 1-2.404.394c-.854-.468-1.303-1.45-1.234-2.405.076-1.032.828-2.085 1.822-2.399.257-.08.574.023.664.298.084.252-.023.578-.298.664z"/>
    <path d="M3.726 107.139c.06.059.116.121.18.175a1 1 0 0 0 .057.045l-.038-.023c-.029.002-.186-.015-.191.013a.3.3 0 0 0 .046-.017q.039-.016-.015.011-.053.032-.017.008l.042-.03c.074-.046-.03.017-.023.026l.022-.026q.04-.054.005.003-.029.05-.01.014l.018-.044c-.023.002-.022.123-.02.138-.006-.09.01.09.004.027-.003-.034.035.046 0 .003-.026-.029-.047-.065-.069-.096-.026-.038-.035-.045.003-.006-.055-.056-.118-.103-.18-.15-.031-.025-.05-.037-.004-.008a1.778 1.778 0 0 0-.303-.139l-.09-.031c.083.028-.018-.004-.035-.008-.07-.016-.14-.027-.21-.042a6 6 0 0 0-.964-.115l.157-1.017c.43.015.86.238 1.145.558.131.147.265.296.384.453q.075.097.143.199c.088.134.126.27.155.428.05.265-.196.549-.458.566-.297.018-.512-.175-.566-.459-.023-.124.036.077.038.074.002-.002-.05-.071-.054-.078q-.065-.09-.134-.18a5 5 0 0 0-.303-.35c.038.039.01.009-.015-.01l-.079-.061c-.03-.023-.054-.039-.006-.01a1 1 0 0 0-.08-.042q-.042-.019-.085-.036c-.116-.049.041-.003-.028-.01-.072-.008-.14-.022-.215-.025-.27-.01-.48-.336-.43-.586.06-.301.299-.44.587-.43.422.014.857.07 1.266.181.473.129.925.359 1.22.764.152.208.26.444.225.705-.033.245-.172.442-.349.604-.173.158-.439.275-.676.245-.29-.037-.49-.208-.69-.404-.19-.188-.279-.498-.083-.723.166-.192.517-.286.722-.084z"/>
  </g>
  <path fill="#F9C41C" d="m50.827 22.988-5.81-.863.905-6.088 2.622.39a1.787 1.787 0 0 0 2.03-1.503l1.054-7.084a1.787 1.787 0 0 0-1.504-2.03L30.247 2.854a1.787 1.787 0 0 0-2.03 1.504l-.193 1.298a7.635 7.635 0 0 0 6.429 8.674c1.516.226 3.125.181 4.548.828 1.315.598 1.858 2.043 1.56 3.408-.379 1.733-1.722 2.523-3.448 2.375-2.06-.175-4.117-.605-6.164-.91a1.787 1.787 0 0 0-2.03 1.504l-.193 1.298a7.66 7.66 0 0 0 .675 4.44 7.7 7.7 0 0 0 2.973 3.248c1.725 1.012 3.75.91 5.356 2.062q.208.175.362.396c.73.864.285 1.95.161 3.326-.131 1.456 2.026-1.44 2.915-1.91a40 40 0 0 0 .657-.619c.555-.507 1.148-.923 1.948-.976.173.016.343.042.512.066l4.96.738a1.787 1.787 0 0 0 2.03-1.504l1.054-7.083a1.787 1.787 0 0 0-1.503-2.03z"/>
  <path fill="#F9C41C" d="M51.211 23.091c.05-.408.092-.822.142-1.255q.065-.734.103-1.467c.082-1.467.122-2.933.293-4.378.052-.675.103-1.333.145-1.993.147-1.942.215-3.899.244-5.888q.08-1.104.14-2.208c.08-1.473.135-2.946.19-4.418.041-.594-.074-1.058-.803-1.056a75 75 0 0 0-.788-.12l-1.64-.245a5.74 5.74 0 0 0-4.555 1.295c-.793.67-1.275 1.698-2.095 2.367-1.159.945-2.593.638-3.958.446-1.516-.213-3.016-.517-4.53-.743l-3.854-.573a1.787 1.787 0 0 0-2.03 1.504l-.193 1.298a8 8 0 0 0-.072.7c.592 1.858 2.142 3.358 4.087 3.878 3.27.941 6.695.835 9.496 2.658-.522 3.723-1.006 7.452-1.504 11.178a7.5 7.5 0 0 1-2.166-.021c-3.08-.263-6.122-.654-9.154-1.11a7.66 7.66 0 0 0 .688 4.335 7.7 7.7 0 0 0 2.973 3.247c1.726 1.012 3.751.91 5.356 2.062q.209.175.363.396c.729.864.286 1.95.16 3.323q-.394 2.401-.825 4.796c-.5 2.772-1.051 5.82-2.664 8.196 2.668-.105 5.389.324 7.964-.072.9-.107 1.927-.518 2.272-1.753.113-.224.63-.941.697-1.32q.27-.837.5-1.686c.231-.826.486-1.642.726-2.465.824-2.805 1.331-5.628 1.864-8.462l.46.068a1.787 1.787 0 0 0 2.03-1.503l1.054-7.084a1.786 1.786 0 0 0-1.12-1.926z"/>
  <path fill="#F9C41C" d="M60.093 58.803c-4.976-2.028-7.104-7.733-7.065-12.77-.009-.944.046-1.884.157-2.798.057-1.101.156-2.207.273-3.307.354-3.3.888-6.55 1.072-9.366l.321-2.17 2.706-18.187c.108-.757.242-1.573.333-2.404q.072-.624.099-1.25c.354-3.215-2.393-5.498-5.275-6.115-1.297-.188-2.587-.434-3.873-.418a5.73 5.73 0 0 0-4.157 1.34c-.793.67-1.275 1.697-2.095 2.366-1.159.945-2.593.638-3.958.446-1.516-.213-3.016-.517-4.53-.743q-1.928-.286-3.854-.573a1.787 1.787 0 0 0-2.03 1.504l-.193 1.298a8 8 0 0 0-.072.7c.592 1.858 2.142 3.358 4.087 3.878 3.27.941 6.695.835 9.496 2.658-.522 3.723-1.006 7.452-1.504 11.178a7.5 7.5 0 0 1-2.166-.021c-3.08-.263-6.122-.654-9.154-1.11a7.66 7.66 0 0 0 .689 4.335 7.7 7.7 0 0 0 2.972 3.247c1.726 1.012 3.751.91 5.356 2.062q.209.175.363.396c.729.864.286 1.95.161 3.323q-.396 2.401-.826 4.796c-.5 2.772-1.051 5.82-2.664 8.196a9 9 0 0 1-1.255 1.485 10 10 0 0 1-.959.802c-3.667 2.58-8.466 1.866-12.658 3.011 2.085 1.115 4.502 1.635 6.467 3.12q.417.315.806.686.555.407 1.124.793c2.657 1.806 5.532 3.322 8.17 5.148a23.6 23.6 0 0 0 3.017 1.354l1.964.292 1.964.291a8 8 0 0 0 2.178-.145 6.2 6.2 0 0 0 1.764-.672 17 17 0 0 1 1.894-.951 23 23 0 0 1 1.975-.733c1.691-.684 3.492-1.085 5.234-1.612q.524-.157 1.052-.333.64-.249 1.29-.466c1.328-.386 2.68-.828 4.022-1.193-.897-.455-1.818-.893-2.722-1.368zm-22.26-9.47.893.033zm6.907-1.252c-.465.768-1.28 1.055-2.01 1.142.73-.087 1.546-.374 2.01-1.142"/>
  <path fill="#F4B80F" d="M39.858 31.795c-.189-.607-.68-1.148-1.202-1.494-.833-.553-1.827-.8-2.764-1.114-2.899-.968-6.526-2.536-7.239-5.581a7.64 7.64 0 0 0 .747 3.668 7.7 7.7 0 0 0 2.06 2.606c.949.774 2.122 1.271 3.313 1.537 1.119.25 2.072.418 2.965 1.187.516.46 1.005 1.12.795 1.874.396-.464.962-.902 1.24-1.464.203-.41.206-.828.085-1.22"/>
  <path fill="#F4B80F" d="M60.094 58.803c-4.976-2.028-7.104-7.733-7.065-12.77-.01-.944.045-1.883.156-2.798.058-1.101.156-2.207.273-3.307.354-3.3.889-6.55 1.072-9.367q.16-1.087.322-2.168l2.705-18.188c.108-.757.242-1.573.334-2.404q.07-.624.098-1.25c.355-3.215-2.393-5.498-5.274-6.115-1.57-.228-3.132-.54-4.685-.37 1.014-.112 2.408.646 3.127 1.295.962.869 1.192 1.943 1.03 3.203-.853 6.645-2.66 27.763-5.991 39.035a40 40 0 0 1-.51 1.607c-.481 1.725-1.15 3.584-2.676 4.63-2.077 1.454-4.804 1.343-7.114.27-.4-.222-.78-.492-1.131-.803-.264.445-.61.784-.907 1.128a10.104 10.104 0 0 1-1.306 1.15c-3.667 2.58-8.466 1.866-12.657 3.011 2.085 1.115 4.501 1.635 6.467 3.12q.416.315.806.686.555.407 1.124.793c2.657 1.806 5.531 3.322 8.17 5.147a23.6 23.6 0 0 0 3.017 1.355l3.928.583a8 8 0 0 0 2.178-.146 6.2 6.2 0 0 0 1.764-.671 17 17 0 0 1 1.894-.952 23 23 0 0 1 1.975-.732c1.691-.684 3.492-1.085 5.234-1.612q.524-.157 1.052-.333.64-.249 1.29-.467c1.328-.385 2.68-.827 4.022-1.192-.897-.455-1.818-.893-2.722-1.368"/>
  <path fill="#F9C41C" d="M.903 77.99a35 35 0 0 0-.08 5.817c.74 10.69 6.653 20.895 15.302 27.157 5.253 3.803 11.33 6.141 17.58 7.035 6.241.963 12.735.495 18.868-1.615 10.096-3.473 18.723-11.517 22.543-21.529a35.3 35.3 0 0 0 1.617-5.589c1.684-8.336.427-17.195-5.471-23.64-4.153-4.536-10.146-6.426-15.928-8.075l-.097-.028c-3.987-1.132-8.056-1.959-12.157-2.555-4.097-.623-8.23-1.015-12.374-1.093q-.05 0-.102-.002c-6.01-.105-12.295-.04-17.588 3.091C5.497 61.414 1.718 69.522.903 77.988z"/>
  <path fill="#F4B80F" d="M71.262 65.63c-4.153-4.536-10.147-6.426-15.928-8.076l-.097-.027c-3.987-1.133-8.056-1.96-12.157-2.556-4.097-.623-8.23-1.015-12.374-1.092l-.102-.002q-.769-.015-1.544-.022.769.056 1.534.123c3.362.579 6.991 1.115 10.664 1.789 1.838.337 3.686.707 5.514 1.134 7.867 1.724 16.016 4.671 20.717 11.766 7.766 11.66 4.387 28.242-5.9 37.2a31 31 0 0 1-3.438 2.555 30.5 30.5 0 0 1-12.01 4.521c-1.942.349-3.92.55-5.911.603-9.96.273-20.268-3.148-27.864-9.377a44 44 0 0 1-3.762-3.351 42 42 0 0 1-3.32-3.749 32 32 0 0 1-2.388-3.66c2.554 6.978 7.234 13.214 13.23 17.555 5.253 3.803 11.33 6.141 17.58 7.035 6.241.964 12.735.495 18.868-1.615 10.096-3.473 18.723-11.517 22.543-21.528a35.3 35.3 0 0 0 1.617-5.59c1.684-8.336.427-17.195-5.471-23.64z"/>
  <path fill="#fff" d="M23.454 98.602q-.05.684.062 1.376c.412 2.543 2.557 5.05 5.566 6.664 1.827.98 3.908 1.626 6.026 1.934 2.116.322 4.295.31 6.33-.097 3.347-.669 6.13-2.442 7.263-4.756a6 6 0 0 0 .46-1.299c.44-1.949-.117-4.065-2.202-5.682-1.467-1.138-3.514-1.675-5.486-2.154l-.033-.008a46 46 0 0 0-4.133-.79 46 46 0 0 0-4.218-.448c-2.026-.116-4.141-.197-5.875.465-2.465.94-3.614 2.802-3.76 4.795"/>
  <path fill="#F4B80F" d="M48.35 98.189c.063.616.02 1.238-.112 1.845a6.2 6.2 0 0 1-.431 1.279c-1.053 2.281-3.59 4.053-6.626 4.748-1.843.422-3.814.46-5.724.167-1.913-.276-3.789-.886-5.43-1.826-2.7-1.548-4.613-3.982-4.955-6.47a6.3 6.3 0 0 1-.04-1.35c.049-.62.189-1.226.429-1.798-.454.4-.846.8-1.103 1.174a5.2 5.2 0 0 0-.732 1.608c-.897 3.365 1.246 7.029 3.84 9.017 5.365 4.11 14.38 4.919 19.372-.269.732-.761 1.396-1.64 1.863-2.591.205-.418.359-.854.46-1.299.317-1.408.114-2.904-.81-4.237zM34.456 14.287q.421.104.845.197c1.764.391 4.038.65 4.965 2.425.61 1.168.272 2.783-.83 3.6q.406-.09.8-.238c1.312-.499 2.49-1.493 3.139-2.696a3 3 0 0 0 .222-.585q.08-.308.083-.65c.15-2.329-2.184-3.753-4.131-4.421a14 14 0 0 0-1.025-.324c-2.08-.571-4.316-.735-6.486-1.359-1.946-.52-3.496-2.02-4.087-3.878.135.424 0 1.08.069 1.54.081.556.226 1.102.428 1.626a7.7 7.7 0 0 0 1.76 2.687c1.172 1.16 2.69 1.693 4.247 2.077z"/>
  <path fill="#fff" d="M15.725 60.421c-.998.096-2.024.586-2.91 1.165a15.3 15.3 0 0 0-2.656 2.202c-.952.972-1.76 2.162-2.187 3.455q-.062.185-.12.387c-.042.132-.066.277-.091.416-.047.284-.084.56-.051.821.053.52.273.903.786.988.35.04.722-.053 1.062-.2a4.202 4.202 0 0 0 .942-.548c.733-.55 1.35-1.203 2.019-1.805.713-.644 1.424-1.272 2.131-1.965.674-.663 1.4-1.358 2.035-2.108q.182-.207.336-.445.075-.12.14-.244.066-.12.117-.248c.135-.336.18-.696.054-1.044a1.2 1.2 0 0 0-.612-.661 1.8 1.8 0 0 0-.994-.167zM23.944 58.097c-.437-.268-.958-.289-1.419-.242a7.6 7.6 0 0 0-1.432.298c-.534.159-1.043.394-1.446.755-.314.277-.746.729-.42 1.422.235.458.661.746 1.006.854.234.073.463.097.687.094.22.003.432-.02.64-.04a4.1 4.1 0 0 0 1.24-.301 4.5 4.5 0 0 0 1.088-.636 1.513 1.513 0 0 0 .561-1.116 1.36 1.36 0 0 0-.124-.648 1.02 1.02 0 0 0-.381-.44M39.597 6.074c-.564-.227-1.236-.33-1.857-.416-.665-.09-1.332-.175-1.98-.28-.764-.123-1.518-.257-2.265-.345l-.46-.05a3.5 3.5 0 0 0-.463-.007c-.287.019-.522.113-.561.371-.012.178.07.377.212.572.14.195.341.373.55.522.565.395 1.274.646 1.968.842a9.6 9.6 0 0 0 2.264.362c.725.028 1.473-.006 2.148-.132.504-.094 1.008-.3 1.08-.664.062-.31-.231-.611-.636-.775M37.249 22.834c-.458-.206-1.008-.283-1.517-.345-.546-.066-1.093-.125-1.624-.206-.626-.094-1.243-.198-1.856-.26a15 15 0 0 0-.378-.03 2.4 2.4 0 0 0-.382.009c-.238.03-.436.131-.478.389-.016.176.046.37.154.559s.268.358.434.498c.453.37 1.029.594 1.594.762a6.4 6.4 0 0 0 1.855.276c.599 0 1.216-.06 1.779-.21.419-.112.842-.335.916-.699.063-.31-.168-.598-.496-.746z" opacity=".34"/>
  <path fill="#000" d="M52.989 75.835c.191-1.686-.864-3.348-2.454-3.872-1.223-.397-2.475-.041-3.398.867-.894.942-1.285 2.255-.982 3.525.323 1.404 1.39 2.541 2.783 2.788 1.486.254 2.995-.54 3.66-1.912.212-.42.349-.892.39-1.396"/>
  <path fill="#fff" d="M49.964 74.756c.046-.536-.292-1.004-.744-1.229-.788-.348-1.688.3-1.633 1.152.027.442.277.839.669 1.029.42.223.959.173 1.302-.14.229-.196.383-.482.406-.811z"/>
  <path fill="#000" d="M28.237 73.436c.191-1.686-.864-3.347-2.454-3.872-1.223-.397-2.476-.04-3.398.867-.894.943-1.285 2.255-.982 3.526.324 1.404 1.39 2.54 2.783 2.787 1.486.254 2.995-.54 3.661-1.911a3.8 3.8 0 0 0 .39-1.397"/>
  <path fill="#fff" d="M25.212 72.357c.046-.536-.292-1.003-.744-1.229-.787-.348-1.688.3-1.633 1.153.027.441.277.838.669 1.028.42.223.959.174 1.302-.139.229-.197.383-.483.406-.812z"/>
  <g fill="#EC4899">
    <path d="m49.512 79.79.02.006q.009 0 .019.003c1.046.24 2.389.944 2.605 2.112.22 1.195-1.05 1.93-2.057 2.101-1.052.18-2.165-.063-3.08-.6-.839-.495-1.577-1.445-.997-2.417.697-1.169 2.26-1.458 3.49-1.205M20.878 79.753c.074-1.387 1.852-2.004 3.002-2.075h.02l.02-.002c1.178-.045 2.404.387 3.065 1.417.266.415.386.924.189 1.395-.19.455-.592.782-1.02 1.005-.93.485-2.078.605-3.094.37-.963-.22-2.242-.965-2.181-2.11z"/>
  </g>
  <path fill="#000" d="M34.972 75.952q.065.008.13.019c1.314.2 2.617.383 3.949.417.297.008.495.207.594.468.05.13.074.278.07.42-.027.869-.928.943-1.608.887-.944-.075-1.902-.119-2.817-.387-.393-.115-.92-.285-1.139-.666-.233-.407.033-1.09.518-1.163.1-.015.202-.009.304.004z"/>
  <g fill="#000">
    <path d="M54.714 88.944c-1.238 1.812-3.333 2.617-5.478 2.63a9.66 9.66 0 0 1-6.342-2.309c-1.112-.95-2.02-2.144-2.681-3.447-.148-.291-.112-.638.179-.83.25-.165.685-.11.83.179 1.034 2.034 2.676 3.78 4.824 4.629 1.633.646 3.578.803 5.26.257.928-.302 1.786-.85 2.343-1.665.182-.267.5-.419.811-.255.26.138.44.54.254.81"/>
    <path d="M40.183 81.247c.747.187 1.256.83 1.531 1.519.108-.017.217-.016.316 0 .242.039.473.13.638.32.178.206.216.469.203.732-.022.448-.23.86-.505 1.205-1.081 1.361-3.11 1.376-4.172-.013-.597-.78-.762-1.873-.292-2.752a2.035 2.035 0 0 1 2.28-1.012z"/>
  </g>
</svg>
