<svg xmlns="http://www.w3.org/2000/svg" width="122" height="60" fill="none" viewBox="0 0 122 60">
  <g clip-path="url(#logo-employeea)">
    <path fill="#334155" d="M11.07 1.862H2.541v.226a2.23 2.23 0 0 0-1.477.696c-.387.41-.606.953-.614 1.519V28.14c-.004.295.047.588.15.865.162.415.444.772.81 1.023.367.252.8.387 1.244.387a2.2 2.2 0 0 0 1.242-.387 2.22 2.22 0 0 0 .96-1.888v-9.405h5.899c4.63 0 8.513-3.79 8.513-8.22 0-4.712-3.77-8.653-8.2-8.653m-.314 12.387H4.858v-7.9h6.211c1.965 0 3.742 1.97 3.742 4.152 0 1.96-1.87 3.748-4.055 3.748M35.171 1.81a14.13 14.13 0 0 0-8.995 3.223 14.26 14.26 0 0 0-4.92 8.228 14.3 14.3 0 0 0 1.388 9.498 14.2 14.2 0 0 0 7.068 6.457 14.1 14.1 0 0 0 9.537.483 14.18 14.18 0 0 0 7.677-5.71 14.31 14.31 0 0 0-1.74-17.993A14.1 14.1 0 0 0 40.592 2.9a14.1 14.1 0 0 0-5.422-1.09m0 23.95a9.65 9.65 0 0 1-6.151-2.183 9.74 9.74 0 0 1-3.375-5.612 9.78 9.78 0 0 1 .933-6.49 9.7 9.7 0 0 1 4.819-4.42 9.63 9.63 0 0 1 6.514-.343c2.145.648 4 2.023 5.25 3.892a9.77 9.77 0 0 1-1.175 12.292 9.65 9.65 0 0 1-3.124 2.114 9.6 9.6 0 0 1-3.69.75M91.118 1.863H73.555a2.26 2.26 0 0 0-1.872.47 2.3 2.3 0 0 0-.809 1.759v17.253L56.618 2.728c0-.038 0-.038-.038-.038-.037 0-.037-.075-.075-.112l-.065-.076-.075-.075-.075-.075c-.037 0-.037-.038-.075-.038-.037 0-.075-.075-.112-.075s-.037-.038-.075-.075c-.037-.038-.075-.038-.112-.038l-.075-.075c-.037 0-.075-.038-.112-.038s-.075-.037-.112-.037a.16.16 0 0 1-.075-.038l-.14-.038a.12.12 0 0 1-.075-.037h-.113a.14.14 0 0 1-.06 0 .2.2 0 0 1-.052-.033h-.468a.14.14 0 0 0-.06 0 .1.1 0 0 0-.052.028h-.173a.2.2 0 0 0-.051.033h-.113a.2.2 0 0 1-.051.033H54.1c-.037.038-.037.038-.075.038l-.112.075a.14.14 0 0 0-.06 0l-.052.033c-.033 0-.07.037-.108.037s-.042.038-.075.076c-.032.037-.075.037-.112.075h-.047l-.075.075-.074.075-.145.132-.113.113a.13.13 0 0 0-.037.075l-.075.075a.14.14 0 0 0-.037.076c-.038.037-.075.075-.075.108a.2.2 0 0 0-.028.056.13.13 0 0 0 0 .061l-.075.108c0 .038-.033.076-.033.113a.14.14 0 0 0-.042.075.13.13 0 0 1 0 .062.1.1 0 0 1-.033.051v.113a.1.1 0 0 0-.028.052.14.14 0 0 0 0 .061v.118c0 .037 0 .075-.032.075v24.095a2.2 2.2 0 0 0 .608 1.636 2.28 2.28 0 0 0 2.484.49 2.3 2.3 0 0 0 1.023-.841c.251-.376.387-.818.389-1.27V10.796l14.261 18.617v.038c.038.037.075.113.14.146.038.075.113.108.15.14.038.034.075.038.075.076s.075.038.145.075c0 .038.038.038.075.038s.075.075.112.075a.2.2 0 0 0 .052.033q.03.008.06 0c.038.038.075.075.113.075a.14.14 0 0 1 .075.038c.075 0 .112.038.187.038s.037 0 .075.037h.182l.037.038h.262a.7.7 0 0 0 .3-.038h.075q.174-.009.336-.075h.038c.112-.038.187-.113.3-.15a2 2 0 0 0 .298-.189h.038q.001-.03.023-.051a.1.1 0 0 1 .052 0c.037-.038.037-.076.075-.076.037 0 .037-.075.074-.075.038 0 .075-.07.075-.113s.033-.037.07-.075.038-.038.08-.07a.09.09 0 0 1 .037-.076l.09-.099c0-.037.037-.07.037-.108a.14.14 0 0 0 .028-.051.2.2 0 0 0 0-.062l.075-.112a.09.09 0 0 1 .037-.076v-.113a.2.2 0 0 0 .033-.051.3.3 0 0 0 0-.061.14.14 0 0 1 0-.061.2.2 0 0 1 .032-.052v-.339h.028V6.457h4.145v21.608c0 .602.238 1.18.661 1.606a2.253 2.253 0 0 0 3.195 0 2.28 2.28 0 0 0 .662-1.606V6.405h7.016c.6 0 1.174-.239 1.598-.665a2.277 2.277 0 0 0 0-3.212 2.25 2.25 0 0 0-1.598-.665z"/>
    <path fill="#1D4ED8" d="M109.823 32a1.63 1.63 0 0 1-1.391-.78 1.65 1.65 0 0 1-.073-1.6 34 34 0 0 0 2.273-5.873 1.637 1.637 0 0 1 2.039-1.208 1.64 1.64 0 0 1 1.186 1.446c.019.222-.008.445-.077.656a37 37 0 0 1-2.488 6.475 1.66 1.66 0 0 1-.612.649 1.64 1.64 0 0 1-.857.235m-7.077-.437a1.648 1.648 0 0 1-1.385-2.52 27.43 27.43 0 0 0 4.145-14.527c0-.436.172-.855.479-1.163a1.63 1.63 0 0 1 2.315 0c.307.308.48.727.48 1.163a30.7 30.7 0 0 1-4.631 16.285 1.65 1.65 0 0 1-1.403.762m-5.487-3.292a1.63 1.63 0 0 1-1.42-.834 1.65 1.65 0 0 1 .017-1.654l.084-.145a20.83 20.83 0 0 0 3.186-11.126 8.1 8.1 0 0 1 .553-3.146 8.06 8.06 0 0 1 4.352-4.481 7.98 7.98 0 0 1 6.228 0 8 8 0 0 1 2.626 1.799 8.07 8.07 0 0 1 2.279 5.828c0 1.689-.112 3.376-.336 5.05a1.65 1.65 0 0 1-.631 1.09 1.633 1.633 0 0 1-2.296-.313 1.65 1.65 0 0 1-.319-1.219c.205-1.527.308-3.067.308-4.608a4.778 4.778 0 0 0-2.894-4.545 4.72 4.72 0 0 0-5.26 1.073 4.78 4.78 0 0 0-1.336 3.472 24.14 24.14 0 0 1-3.663 12.847l-.065.113a1.65 1.65 0 0 1-1.408.808zm21.049-.644a1.62 1.62 0 0 1-1.271-.666 1.64 1.64 0 0 1-.259-1.417 40.7 40.7 0 0 0 1.516-11.028 11.23 11.23 0 0 0-3.258-7.936 11.15 11.15 0 0 0-3.619-2.434 11.1 11.1 0 0 0-4.27-.854c-1.954.001-3.874.52-5.566 1.504a1.63 1.63 0 0 1-2.238-.6 1.655 1.655 0 0 1 .596-2.25A14.3 14.3 0 0 1 107.148 0a14.4 14.4 0 0 1 10.192 4.263 14.54 14.54 0 0 1 4.21 10.258c.003 4.03-.55 8.042-1.642 11.92a1.64 1.64 0 0 1-1.576 1.195zm-25.525-4.444a1.643 1.643 0 0 1-1.544-1.104 1.65 1.65 0 0 1 .07-1.257 14.4 14.4 0 0 0 1.432-6.306 14.64 14.64 0 0 1 1.927-7.255 1.631 1.631 0 0 1 2.238-.604 1.655 1.655 0 0 1 .601 2.25 11.26 11.26 0 0 0-1.492 5.61 17.7 17.7 0 0 1-1.759 7.74 1.63 1.63 0 0 1-1.473.926"/>
  </g>
  <path fill="#64748B" d="M13.917 43h-1.761a3.66 3.66 0 0 0-1.485-2.301 4 4 0 0 0-1.214-.597 4.9 4.9 0 0 0-1.392-.199q-1.32 0-2.394.668-1.065.667-1.697 1.967-.625 1.3-.625 3.19t.625 3.188q.632 1.3 1.697 1.968a4.44 4.44 0 0 0 2.394.667q.725 0 1.392-.199.668-.198 1.214-.59.554-.397.938-.972.39-.584.547-1.335h1.761a5.9 5.9 0 0 1-.724 1.995 5.5 5.5 0 0 1-1.307 1.499 5.7 5.7 0 0 1-1.754.93 6.5 6.5 0 0 1-2.067.32q-1.86 0-3.31-.91-1.449-.908-2.28-2.584t-.83-3.978q0-2.301.83-3.977.831-1.676 2.28-2.585 1.45-.91 3.31-.91 1.101 0 2.067.32a5.6 5.6 0 0 1 1.754.938q.78.61 1.307 1.491.525.874.724 1.996m7.05 10.227q-1.476 0-2.591-.703-1.11-.703-1.733-1.967-.618-1.264-.618-2.955 0-1.704.618-2.976.625-1.27 1.732-1.974 1.116-.703 2.593-.703t2.585.703q1.116.704 1.733 1.974.625 1.272.625 2.976 0 1.69-.625 2.955-.618 1.264-1.733 1.967-1.108.703-2.585.703m0-1.505q1.123 0 1.848-.576.724-.575 1.072-1.513a5.8 5.8 0 0 0 .348-2.03q0-1.095-.348-2.04a3.44 3.44 0 0 0-1.073-1.526q-.724-.582-1.846-.582t-1.847.582-1.072 1.527a5.9 5.9 0 0 0-.348 2.038q0 1.095.348 2.032t1.072 1.512 1.847.576m9.179-13.267V53H28.47V38.455zm6.28 14.8q-1.037 0-1.882-.39a3.23 3.23 0 0 1-1.342-1.143q-.498-.753-.498-1.819 0-.937.37-1.52.369-.589.987-.923a5.2 5.2 0 0 1 1.364-.497 17 17 0 0 1 1.512-.27q.994-.128 1.613-.192.625-.07.909-.234.29-.163.29-.568v-.057q.001-1.05-.575-1.634-.567-.582-1.725-.582-1.2 0-1.882.526-.682.525-.96 1.122l-1.59-.568q.426-.995 1.136-1.549a4.3 4.3 0 0 1 1.563-.78 6.5 6.5 0 0 1 1.676-.228q.526 0 1.207.128.69.12 1.328.504.647.383 1.073 1.158t.426 2.074V53H39.75v-1.477h-.085q-.17.355-.569.76-.397.405-1.058.689-.66.284-1.612.284m.256-1.505q.993 0 1.676-.39.69-.391 1.037-1.01a2.57 2.57 0 0 0 .355-1.299v-1.534q-.106.127-.469.234a8 8 0 0 1-.824.178 38 38 0 0 1-1.605.213q-.653.086-1.221.277-.561.184-.91.561-.34.37-.34 1.009 0 .873.646 1.32.653.441 1.655.441m8.03 1.25V38.455h1.677v5.369h.142q.184-.285.511-.725.334-.447.952-.795.625-.355 1.69-.355 1.378 0 2.43.689 1.05.69 1.64 1.953t.59 2.983q0 1.733-.59 3.004-.59 1.264-1.634 1.96-1.044.69-2.407.69-1.051 0-1.684-.349-.631-.355-.973-.802a11 11 0 0 1-.525-.753h-.2V53zm1.648-5.455q0 1.236.362 2.18.363.939 1.059 1.471.696.526 1.704.526 1.051 0 1.755-.554.71-.561 1.065-1.506.362-.951.362-2.117 0-1.15-.355-2.073-.348-.93-1.058-1.47-.703-.547-1.769-.547-1.023 0-1.718.518-.697.511-1.052 1.435-.354.915-.355 2.137m14.979 5.682q-1.477 0-2.592-.703-1.109-.703-1.733-1.967-.618-1.264-.618-2.955 0-1.704.618-2.976.624-1.27 1.733-1.974 1.115-.703 2.592-.703t2.585.703q1.115.704 1.733 1.974.625 1.272.625 2.976 0 1.69-.625 2.955-.618 1.264-1.733 1.967-1.108.703-2.585.703m0-1.505q1.122 0 1.846-.576.725-.575 1.073-1.513a5.8 5.8 0 0 0 .348-2.03q0-1.095-.348-2.04-.349-.944-1.072-1.526-.725-.582-1.847-.582t-1.847.582q-.724.582-1.072 1.527a5.9 5.9 0 0 0-.348 2.038q0 1.095.348 2.032t1.072 1.512 1.847.576M68.841 53V42.09h1.619v1.649h.114q.297-.81 1.08-1.314a3.2 3.2 0 0 1 1.76-.505q.186 0 .462.008.278.006.42.02v1.705a5 5 0 0 0-.391-.063 4 4 0 0 0-.633-.05q-.795 0-1.42.334-.618.326-.98.909a2.45 2.45 0 0 0-.355 1.314V53zm10.651.256q-1.035 0-1.882-.39a3.23 3.23 0 0 1-1.342-1.144q-.497-.753-.497-1.819 0-.937.37-1.52.368-.589.986-.923a5.2 5.2 0 0 1 1.364-.497 17 17 0 0 1 1.513-.27q.994-.128 1.612-.192.626-.07.909-.234.291-.163.291-.568v-.057q0-1.05-.575-1.634-.568-.582-1.726-.582-1.2 0-1.882.526-.682.525-.959 1.122l-1.59-.568q.425-.995 1.136-1.549a4.3 4.3 0 0 1 1.562-.78 6.5 6.5 0 0 1 1.676-.228q.525 0 1.208.128.689.12 1.328.504.645.383 1.072 1.158.426.774.426 2.074V53h-1.676v-1.477h-.085q-.17.355-.568.76t-1.058.689-1.613.284m.256-1.506q.995 0 1.676-.39.69-.391 1.037-1.01a2.57 2.57 0 0 0 .355-1.299v-1.534q-.105.127-.469.234a8 8 0 0 1-.823.178 38 38 0 0 1-1.606.213q-.653.086-1.221.277-.56.184-.91.561-.34.37-.34 1.009 0 .873.646 1.32.654.441 1.655.441m11.923 1.477q-1.365 0-2.408-.689-1.044-.696-1.633-1.96-.59-1.271-.59-3.004 0-1.719.59-2.983t1.64-1.953q1.05-.69 2.43-.69 1.064.001 1.683.356.625.348.951.795.335.441.519.725h.142v-5.37h1.676V53h-1.62v-1.676h-.198q-.184.299-.526.753-.34.448-.973.802-.632.348-1.683.348m.227-1.505q1.008 0 1.705-.526.696-.532 1.058-1.47.362-.945.362-2.18 0-1.222-.355-2.138-.355-.924-1.051-1.435-.696-.518-1.719-.518-1.065 0-1.775.546-.704.54-1.059 1.47-.348.923-.348 2.075 0 1.164.356 2.116.362.945 1.065 1.506.71.554 1.761.554m12.507 1.505q-1.477 0-2.592-.703-1.108-.703-1.733-1.967-.618-1.264-.618-2.955 0-1.704.618-2.976.625-1.27 1.733-1.974 1.115-.703 2.592-.703t2.586.703q1.115.704 1.733 1.974.625 1.272.625 2.976 0 1.69-.625 2.955-.618 1.264-1.733 1.967-1.109.703-2.586.703m0-1.505q1.122 0 1.847-.576.724-.575 1.072-1.513a5.8 5.8 0 0 0 .348-2.03q0-1.095-.348-2.04-.348-.944-1.072-1.526t-1.847-.582-1.846.582a3.44 3.44 0 0 0-1.073 1.527 5.9 5.9 0 0 0-.348 2.038q0 1.095.348 2.032t1.073 1.512 1.846.576M111.907 53V42.09h1.619v1.649h.114q.299-.81 1.08-1.314a3.18 3.18 0 0 1 1.761-.505q.185 0 .462.008.276.006.419.02v1.705a5 5 0 0 0-.391-.063 4 4 0 0 0-.632-.05q-.795 0-1.42.334-.618.326-.981.909a2.46 2.46 0 0 0-.355 1.314V53z"/>
  <defs>
    <clipPath id="logo-employeea">
      <path fill="#fff" d="M.451 0H121.55v32H.451z"/>
    </clipPath>
  </defs>
</svg>
