<svg xmlns="http://www.w3.org/2000/svg" fill="none" viewBox="0 0 220 59">
  <g clip-path="url(#97a)">
    <path fill="#344254" d="M19.29 3.382H3.799v.41a4.05 4.05 0 0 0-2.683 1.264A4.1 4.1 0 0 0 0 7.816v43.3c-.009.537.084 1.07.272 1.572a4.03 4.03 0 0 0 1.472 1.86 4 4 0 0 0 2.258.703 4 4 0 0 0 2.257-.705 4.04 4.04 0 0 0 1.473-1.858c.196-.5.289-1.035.272-1.572V34.032h10.716c8.412 0 15.465-6.885 15.465-14.932 0-8.56-6.849-15.718-14.896-15.718m-.57 22.5H8.006v-14.35H19.29c3.569 0 6.798 3.579 6.798 7.542 0 3.563-3.4 6.809-7.367 6.809M63.077 3.288a25.66 25.66 0 0 0-16.342 5.854 25.9 25.9 0 0 0-8.939 14.947 26 26 0 0 0 2.523 17.254 25.8 25.8 0 0 0 12.84 11.729 25.62 25.62 0 0 0 17.327.877 25.76 25.76 0 0 0 13.947-10.371A25.99 25.99 0 0 0 81.27 10.89a25.7 25.7 0 0 0-8.343-5.624 25.6 25.6 0 0 0-9.85-1.979m0 43.506a17.52 17.52 0 0 1-11.175-3.966 17.7 17.7 0 0 1-6.132-10.194 17.76 17.76 0 0 1 1.696-11.79c1.906-3.615 5-6.453 8.754-8.03a17.5 17.5 0 0 1 11.835-.621 17.6 17.6 0 0 1 9.538 7.07 17.745 17.745 0 0 1-2.135 22.329 17.5 17.5 0 0 1-5.676 3.839 17.5 17.5 0 0 1-6.705 1.363M164.715 3.383h-31.908a4.1 4.1 0 0 0-3.399.854 4.17 4.17 0 0 0-1.47 3.195v31.341L102.037 4.954c0-.068 0-.068-.068-.068s-.068-.137-.136-.205l-.119-.137-.135-.136-.136-.137c-.068 0-.068-.068-.136-.068s-.136-.137-.204-.137-.068-.068-.136-.137c-.068-.068-.136-.068-.204-.068l-.136-.137c-.068 0-.136-.068-.204-.068s-.136-.068-.204-.068a.3.3 0 0 1-.136-.069l-.255-.068a.2.2 0 0 1-.136-.068h-.204a.25.25 0 0 1-.11 0 .4.4 0 0 1-.094-.06h-.85a.3.3 0 0 0-.11 0 .2.2 0 0 0-.093.051h-.315a.4.4 0 0 0-.093.06h-.204a.4.4 0 0 1-.094.06h-.06c-.067.068-.067.068-.135.068l-.204.137a.3.3 0 0 0-.11 0l-.094.06c-.06 0-.128.068-.195.068-.069 0-.077.068-.136.136-.06.069-.136.069-.204.137h-.085l-.136.137-.136.136-.264.24-.204.205a.23.23 0 0 0-.068.136l-.136.137a.26.26 0 0 0-.068.137c-.068.068-.136.136-.136.196a.3.3 0 0 0-.05.103.23.23 0 0 0 0 .11l-.136.197c0 .069-.06.137-.06.205a.25.25 0 0 0-.076.137.24.24 0 0 1 0 .11.2.2 0 0 1-.06.095v.205a.2.2 0 0 0-.051.094.3.3 0 0 0 0 .11v.214c0 .069 0 .137-.06.137v43.77a4 4 0 0 0 .255 1.624c.193.501.482.96.85 1.35a4.134 4.134 0 0 0 4.513.89 4.16 4.16 0 0 0 1.859-1.53 4.2 4.2 0 0 0 .707-2.308V19.613l25.908 33.819v.068c.068.068.136.205.255.265.068.136.204.196.272.256s.136.068.136.137c0 .068.136.068.264.136 0 .069.068.069.136.069s.136.136.204.136a.3.3 0 0 0 .093.06.25.25 0 0 0 .111 0c.068.069.135.137.203.137a.25.25 0 0 1 .136.068c.136 0 .204.069.34.069s.068 0 .136.068h.332l.068.068h.476a1.3 1.3 0 0 0 .543-.068h.136c.21-.011.417-.057.612-.137h.068c.204-.068.34-.205.544-.273q.287-.147.544-.342h.068a.13.13 0 0 1 .042-.094.16.16 0 0 1 .094 0c.068-.068.068-.136.136-.136s.068-.137.136-.137.136-.128.136-.205.059-.069.127-.137.068-.068.145-.128a.16.16 0 0 1 .017-.077.15.15 0 0 1 .051-.06l.161-.179c0-.068.068-.128.068-.197a.3.3 0 0 0 .051-.093.3.3 0 0 0 0-.112l.136-.205a.16.16 0 0 1 .068-.137v-.204a.3.3 0 0 0 .059-.094.4.4 0 0 0 0-.111.3.3 0 0 1 0-.111.4.4 0 0 1 .06-.094v-.615h.051V11.728h7.529V50.98c0 1.094.432 2.144 1.202 2.917a4.09 4.09 0 0 0 5.804 0 4.14 4.14 0 0 0 1.202-2.917V11.634h12.746a4.1 4.1 0 0 0 2.903-1.208 4.14 4.14 0 0 0 0-5.835 4.1 4.1 0 0 0-2.903-1.208z"/>
    <path fill="#2253D5" d="M198.696 58.13a2.96 2.96 0 0 1-2.526-1.417 2.99 2.99 0 0 1-.133-2.905 61.5 61.5 0 0 0 4.129-10.67 2.994 2.994 0 0 1 1.386-1.892 2.964 2.964 0 0 1 4.137 1.174 3 3 0 0 1 .196 2.341 67.3 67.3 0 0 1-4.521 11.763 2.99 2.99 0 0 1-2.668 1.606m-12.856-.794a3 3 0 0 1-1.581-.462 3 3 0 0 1-1.314-1.864 3 3 0 0 1 .379-2.253 49.8 49.8 0 0 0 7.529-26.387c0-.793.313-1.553.871-2.114a2.966 2.966 0 0 1 4.206 0c.558.56.871 1.321.871 2.114a55.8 55.8 0 0 1-8.412 29.582 2.972 2.972 0 0 1-2.549 1.384m-9.968-5.98a2.96 2.96 0 0 1-1.493-.408 2.99 2.99 0 0 1-1.474-2.613 3 3 0 0 1 .418-1.498l.153-.265a37.85 37.85 0 0 0 5.787-20.21 14.7 14.7 0 0 1 1.006-5.715 14.7 14.7 0 0 1 3.134-4.873 14.6 14.6 0 0 1 4.77-3.267 14.5 14.5 0 0 1 11.317 0 14.6 14.6 0 0 1 4.77 3.267 14.7 14.7 0 0 1 3.134 4.873 14.7 14.7 0 0 1 1.006 5.714 69 69 0 0 1-.611 9.175 3 3 0 0 1-1.146 1.978 2.965 2.965 0 0 1-4.17-.568 3 3 0 0 1-.582-2.213c.374-2.775.561-5.572.561-8.372a8.7 8.7 0 0 0-.577-3.4 8.7 8.7 0 0 0-1.85-2.906 8.589 8.589 0 0 0-12.387 0 8.7 8.7 0 0 0-1.85 2.906 8.7 8.7 0 0 0-.577 3.4 43.85 43.85 0 0 1-6.654 23.338l-.119.205a2.98 2.98 0 0 1-2.557 1.47zm38.239-1.17a2.96 2.96 0 0 1-2.309-1.21 2.98 2.98 0 0 1-.47-2.575 73.8 73.8 0 0 0 2.753-20.031 20.5 20.5 0 0 0-1.531-7.8 20.4 20.4 0 0 0-4.388-6.616 20.2 20.2 0 0 0-6.573-4.422 20.2 20.2 0 0 0-7.757-1.552 20.14 20.14 0 0 0-10.112 2.733 2.963 2.963 0 0 1-4.066-1.089 3 3 0 0 1-.301-2.27 3 3 0 0 1 1.384-1.818A26 26 0 0 1 193.836 0a26.14 26.14 0 0 1 18.515 7.743 26.4 26.4 0 0 1 7.648 18.636 79.7 79.7 0 0 1-2.982 21.654 3 3 0 0 1-1.07 1.568 2.97 2.97 0 0 1-1.794.602zm-46.371-8.073a2.983 2.983 0 0 1-2.805-2.006 3 3 0 0 1 .128-2.282 26.2 26.2 0 0 0 2.6-11.455 26.6 26.6 0 0 1 3.501-13.18 2.98 2.98 0 0 1 1.807-1.396 2.96 2.96 0 0 1 2.259.298 3 3 0 0 1 1.389 1.816 3 3 0 0 1-.297 2.271 20.45 20.45 0 0 0-2.71 10.19 32.1 32.1 0 0 1-3.195 14.062 2.97 2.97 0 0 1-1.097 1.23 2.94 2.94 0 0 1-1.58.452"/>
  </g>
  <defs>
    <clipPath id="97a">
      <path fill="#fff" d="M0 0h220v58.13H0z"/>
    </clipPath>
  </defs>
</svg>
