<svg xmlns="http://www.w3.org/2000/svg" width="128" height="128" fill="none" viewBox="0 0 128 128">
  <g clip-path="url(#a)">
    <path fill="#fff" d="M0 0h128v128H0z"/>
    <path fill="#FDF9C9" d="M64 128c35.346 0 64-28.654 64-64S99.346 0 64 0 0 28.654 0 64s28.654 64 64 64"/>
    <path fill="#000" d="M111.921 42.266 78.345 10.113a9.4 9.4 0 0 0-1.033-.985l-.325-.315h-.04a9.305 9.305 0 0 0-11.323 0h-.04l-.329.315q-.555.453-1.034.985l-33.56 32.153a3.7 3.7 0 0 0-.823 1.235 3.8 3.8 0 0 0-.29 1.477v38.05a5.695 5.695 0 0 0 5.696 5.706h72.079a5.695 5.695 0 0 0 5.691-5.705v-38.07a3.8 3.8 0 0 0-.291-1.478 3.7 3.7 0 0 0-.802-1.215"/>
    <path fill="#fff" d="M35.648 76.88V18.32a5.287 5.287 0 0 1 5.277-5.293h45.361l20.628 20.677v43.17z"/>
    <path fill="#000" d="m86.105 13.446 20.381 20.46v42.595h-70.4v-58.18a4.874 4.874 0 0 1 4.86-4.875zm.344-.837H40.921a5.706 5.706 0 0 0-5.691 5.711V77.3h72.093V33.542z"/>
    <path fill="#fff" d="M35.23 88.32a5.293 5.293 0 0 1-5.273-5.292V45.691l75.786 42.63z"/>
    <path fill="#000" d="m30.37 46.38 73.772 41.522H35.219a4.874 4.874 0 0 1-4.859-4.874V46.381zm-.832-1.427v38.055a5.696 5.696 0 0 0 5.691 5.706h72.094z"/>
    <path fill="#fff" d="m37.164 88.272 75.815-42.63V82.98a5.29 5.29 0 0 1-5.272 5.293z"/>
    <path fill="#2563EB" d="M86.459 12.61V27.83a5.695 5.695 0 0 0 5.691 5.706h15.173z"/>
    <path fill="#000" d="M112.187 46.38v36.628a4.9 4.9 0 0 1-.359 1.866 4.93 4.93 0 0 1-2.624 2.649 4.9 4.9 0 0 1-1.861.379H38.4l73.772-41.497zm.837-1.427L35.239 88.734h72.084a5.7 5.7 0 0 0 5.279-3.52 5.7 5.7 0 0 0 .432-2.186V44.973z"/>
    <path fill="#2563EB" d="M68.84 54.66a15.085 15.085 0 1 1 14.695-11.746l-2.846-.645a12.14 12.14 0 1 0-11.85 9.472 12.05 12.05 0 0 0 7.385-2.505q.873-.67 1.62-1.477L80 49.728c-.62.672-1.3 1.288-2.028 1.841a14.9 14.9 0 0 1-9.132 3.092"/>
    <path fill="#2563EB" d="M68.839 46.868a7.31 7.31 0 1 1-.04-14.622 7.31 7.31 0 0 1 .04 14.622m0-11.693a4.37 4.37 0 0 0-4.042 2.708 4.377 4.377 0 0 0 5.716 5.735 4.35 4.35 0 0 0 1.969-1.614 4.396 4.396 0 0 0-3.638-6.839z"/>
    <path fill="#2563EB" d="M78.326 46.873a5.42 5.42 0 0 1-3.81-1.57 5.45 5.45 0 0 1-1.606-3.81h2.905a2.51 2.51 0 0 0 1.544 2.314 2.496 2.496 0 0 0 3.453-2.315h2.92a5.46 5.46 0 0 1-1.606 3.81 5.42 5.42 0 0 1-3.8 1.571"/>
    <path fill="#000" d="m57.533 101.233-2.458 4.312 23.023 13.12 2.457-4.312z"/>
    <path fill="#2563EB" d="m65.57 102.59-5.306 9.306 27.47 15.661 5.305-9.307zM5.757 74.665a30.025 30.025 0 1 0 52.17 29.735 30.025 30.025 0 0 0-52.17-29.735m46.198 26.336a23.16 23.16 0 0 1-23.007 11.503 23.152 23.152 0 1 1 23.007-11.503"/>
    <path fill="#000" d="M53.103 112.419a31.5 31.5 0 0 1-17.455 8.112A31.245 31.245 0 0 1 1.204 83.529a31.24 31.24 0 0 1 9.377-16.88 31.48 31.48 0 0 1 17.454-8.112 31.243 31.243 0 0 1 25.068 53.882m-40.88-44.011a28.83 28.83 0 0 0 23.126 49.738 29.1 29.1 0 0 0 16.112-7.486 28.83 28.83 0 0 0-5.344-46.169 28.58 28.58 0 0 0-17.784-3.571 29.07 29.07 0 0 0-16.113 7.49zM48.42 107.38a24.55 24.55 0 0 1-13.612 6.327 24.36 24.36 0 0 1-19.546-42.019 24.54 24.54 0 0 1 13.611-6.327 24.366 24.366 0 0 1 19.547 42.019M16.898 73.449a21.96 21.96 0 1 0 29.864 32.206 21.96 21.96 0 0 0-29.864-32.207"/>
    <path fill="#fff" d="M45.043 66.373a26.45 26.45 0 0 0-16.448-3.304A26.6 26.6 0 0 0 8.683 76.33a26.66 26.66 0 0 0 26.41 39.665 26.62 26.62 0 0 0 19.912-13.259 26.66 26.66 0 0 0-9.96-36.364z"/>
    <path fill="#fff" d="M25.458 80.25c-7.056 5.205-10.33 13.533-9.1 21.196 6.962 3.434 15.883 2.765 22.938-2.441 7.056-5.206 10.33-13.534 9.101-21.199-6.963-3.432-15.882-2.764-22.94 2.443"/>
    <path fill="#000" d="M31.884 102.384c-8.841 0-17.04-4.811-20.887-12.252a1.1 1.1 0 0 1 0-1.012c3.847-7.44 12.046-12.249 20.887-12.249s17.04 4.808 20.888 12.249a1.1 1.1 0 0 1 0 1.012c-3.848 7.44-12.035 12.252-20.888 12.252M13.229 89.627c3.576 6.43 10.831 10.55 18.655 10.55s15.081-4.12 18.658-10.55C46.965 83.2 39.708 79.075 31.884 79.075s-15.079 4.123-18.655 10.552"/>
    <path fill="#000" d="M40.173 89.627c0 4.448-3.712 8.06-8.29 8.06-4.576 0-8.285-3.612-8.285-8.06 0-4.447 3.709-8.06 8.286-8.06s8.289 3.607 8.289 8.06"/>
  </g>
  <defs>
    <clipPath id="a">
      <path fill="#fff" d="M0 0h128v128H0z"/>
    </clipPath>
  </defs>
</svg>
