<svg xmlns="http://www.w3.org/2000/svg" width="192" height="192" fill="none" viewBox="0 0 192 192">
  <g clip-path="url(#a)">
    <path fill="#fff" d="M0 0h192v192H0z"/>
    <path fill="#fff" d="M86.718 151.101a3.8 3.8 0 0 1-.831-2.789 3.8 3.8 0 0 1 4.174-3.392 3.8 3.8 0 0 1 2.56 1.385l12.894 15.956-5.91 4.775z"/>
    <path fill="#000" d="M106.353 163.078a1.16 1.16 0 0 0 .069-1.535l-12.895-15.956a4.962 4.962 0 0 0-7.72 6.231l12.9 15.959a1.15 1.15 0 0 0 .781.424 1.16 1.16 0 0 0 1.141-.6 1.17 1.17 0 0 0 .093-.883 1.2 1.2 0 0 0-.211-.4l-12.894-15.956a2.65 2.65 0 0 1-.766-2.015 2.652 2.652 0 0 1 4.873-1.301l12.871 15.968a1.15 1.15 0 0 0 .782.427q.23.025.452-.041.222-.065.402-.211zM60.804 96.335a17.3 17.3 0 0 1-3.096-3.953c-.844-1.177-6.867.022-8-.593a56 56 0 0 0-2.564-3.719c-3.06-4.028-4.767-.884-8.402-2.542-5.78-2.632 5.134-1.685 8.999-4.392 3.538-2.485 9.357-10.882 11.223-13.058 6.05-7.053 2.76-6.522-2.843-10.612-9.021-6.602-4.02 6.655-7.323 6.593-10.613-.2-1.645-14.681 3.069-16.114 1.304-.398.296 5.647 1.769 6.677 2.33 1.619 7.517-5.213 4.935-7.49-3.609-3.21-8.628-4.201-13.266-3.516-3.264.477-5.63 5.85-7.703 4.369-9.98-7.155-19.66 4.214-25.18 5.704-2.83.765-5.306 1.203-3.886 5.338.765 2.21 4.78 1.132 6.668 1.29 9.361.78 10.246 17.207 15.327 23.362 4.656 5.647 11.651 7.893 18.466 10.295-1.884-.668-5.2 5.257-3.325 9.693 1.623 3.842 8.158 8.07 8.57 8.689 1.923 2.883-.16 28.234 8.189 25.82.982-.283-.314-9.503-.133-11.002.584-4.864 5.284-6.695 7.075-11.108 3.26-7.991 8.017-6.31 4.988-13.947-2.737-6.907-8.401-2.808-13.575-5.77zM82.21 33.449c-2.604-4.422-33.487.557-20.005 11.43 3.206 2.587.558 18.595 8.619 7.518 3.78-5.2 17.414-8.72 11.386-18.93zM52.004 39.813c2.242-.955 5.802-3.723 6.359-6.359.73-3.458-3.781-.862-12.214.946-6.898 1.482-5.965 10.463 5.855 5.413M186.035 53.902c-11.219-10.427-23.026-2.879-35.456-7.305-2.273-.81-1.194-11.294-7.473-6.063-5.979 4.975-13.049 1.897-19.899 4.67-2.839 1.15-8.499 10.555-11.731 7.429-1.769-1.707 4.864-3.98-4.051-6.08-9.976-2.375-14.92 21.437-3.958 6.99-1.238 1.628 6.164 2.42 6.054 3.565-.641 6.894-22.495 4.745-22.893 16.286-.185 5.395 8.676-.27 9.671-1.512 8.296-4.343 5.148 6.261 9.233 5.262 2.008-.487-.628-4.073 1.38-4.599 2.463-.641 9.255 6.248 3.741 7.358-5.479.022-9.308-3.635-12.926-3.953-14.265-1.256-18.377 23.684-6.92 22.052 9.008-1.282 11.095 3.98 10.648 12.943-.155 3.096 3.096 17.98 9.026 10.812 1.636-1.981 11.873-27.858 11.704-28.08-3.378-4.023-9.175-3.648-9.463-11.413.332 2.654 5.979 9.008 9.247 7.031 4.422-2.675 6.133-11.156-1.256-9.728 3.007-.58 8.583 2.344 10.989 3.91 1.437.941 3.604 15.034 6.633 10.806.884-1.224 10.073-15.269 10.453-4.952.036.946 2.388 17.024 7.045 10.325.884-1.304-4.007-3.856-4.215-5.244-.486-3.268 7.664-3.237 2.941-7.044-2.724-2.212 2.074-5.413 3.277-6.368 4.965-3.98 3.502-2.8 2.445-7.221-.296-1.239 15.817-5.285 7.959-13.73 8.132-8.747 12.506 4.501 12.749 4.298 2.123-1.8-1.839-6.275 1.91-6.686.323-.036 5.917-1.137 3.096-3.746zM158.264 109.49a8.3 8.3 0 0 0-2.317 2.591 9.3 9.3 0 0 1-1.163-2.848c-2.362-2.715-6.868 3.538-7.995 4.422-7.429 5.943-8.791 11.74 2.799 9.065 3.873-.884 3.299 6.744 7.566 3.096 2.074-1.769 8.481-17.184 1.11-16.362z"/>
    <path fill="#2563EB" d="M76.46 136.485 83.107 171l6.464-1.244-6.646-34.515z"/>
    <path fill="#2563EB" d="m73.893 144.095 7.93 41.186 13.954-2.686-7.93-41.187z"/>
    <path fill="#2563EB" fill-rule="evenodd" d="M83.221 56.44a41.3 41.3 0 0 1 16.687 9.302h-.015a41.432 41.432 0 0 1-32.646 71.744 41.77 41.77 0 0 1-23.234-10.582 41.428 41.428 0 0 1 20.121-71.26 41.3 41.3 0 0 1 19.087.797m-1.785 6.877a34.4 34.4 0 0 1 13.893 7.742h-.013a34.488 34.488 0 0 1-6.282 55.472 34.5 34.5 0 0 1-20.9 4.255 34.8 34.8 0 0 1-19.345-8.808 34.49 34.49 0 0 1-9.922-34.828 34.49 34.49 0 0 1 26.677-24.495 34.4 34.4 0 0 1 15.892.662" clip-rule="evenodd"/>
    <path fill="#2563EB" d="M33.413 18.306s1.428 2.025 3.603 2.127c1.327.062 2.517-.57 3.596-1.88 1.326-1.631 2.188-1.945 2.653-1.923.698.03 1.326.884 1.861 1.676 0 0 1.429 2.025 3.604 2.127 1.327.062 2.516-.57 3.595-1.88.805-.981 1.614-1.468 2.397-1.454 1.212.026 2.136 1.22 2.158 1.242a.93.93 0 1 0 1.486-1.11c-.058-.08-1.46-1.937-3.587-1.99-1.388-.035-2.697.681-3.886 2.132-.677.822-1.362 1.225-2.043 1.207-1.013-.026-1.937-.986-2.19-1.327-.61-.884-1.626-2.4-3.307-2.48-1.326-.062-2.693.787-4.183 2.6-.677.822-1.362 1.225-2.043 1.207-1.013-.026-1.937-.986-2.189-1.327-.61-.884-1.632-2.4-3.308-2.48-1.326-.062-2.692.787-4.187 2.6-.672.822-1.362 1.225-2.039 1.207-1.012-.026-1.936-.986-2.189-1.327-.61-.884-1.631-2.4-3.312-2.48-1.326-.062-2.693.787-4.183 2.6a.93.93 0 1 0 1.437 1.18c1.327-1.631 2.185-1.945 2.653-1.923.695.03 1.327.884 1.862 1.676 0 0 1.424 2.025 3.6 2.127 1.326.062 2.52-.57 3.6-1.88 1.326-1.631 2.188-1.945 2.652-1.923.721.03 1.353.88 1.889 1.676M72.37 77.54a11.83 11.83 0 0 0-11.816 11.814c0 2.591.894 5.102 2.66 7.468.835 1.119 2.84 3.78 7.633 10.084.172.228.274.35.284.375l.653.852a.73.73 0 0 0 .912.214.7.7 0 0 0 .259-.214l.648-.856s.053-.063.127-.164c1.752-2.318 6.054-7.963 7.793-10.294 1.74-2.332 2.662-4.877 2.662-7.468a11.83 11.83 0 0 0-11.816-11.812"/>
    <path fill="#fff" d="M72.37 95.04a5.69 5.69 0 1 1-.001-11.38 5.69 5.69 0 0 1 0 11.38M113.134 157.735a1.14 1.14 0 0 0-.221-.957 1.5 1.5 0 0 0-.415-.373 1.7 1.7 0 0 0-.538-.21l-1.729-.349-1.988-.36c-.76-.135-1.611-.263-2.547-.408-1.85-.253-4.006-.514-6.305-.702-2.3-.189-4.693-.323-7.096-.403-4.78-.125-9.49.011-12.994.224-1.76.096-3.218.215-4.237.293l-1.6.14q-.105.01-.209.033l-.267.025a4.3 4.3 0 0 0-2.915 1.527 3.98 3.98 0 0 0-.912 3.058c.067.572.254 1.125.547 1.621l-.104.035a4.09 4.09 0 0 0-3.51 3.062 4 4 0 0 0-.07 1.607 4.27 4.27 0 0 0 3.04 3.472 4.16 4.16 0 0 0-.224 2.013 4.23 4.23 0 0 0 3.17 3.596 4.3 4.3 0 0 0-.198 1.897 4.46 4.46 0 0 0 1.41 2.791 3.57 3.57 0 0 0 2.728.945l1.152-.1c.686-.055 1.606-.123 2.529-.183s1.828-.114 2.523-.143l.832-.039.313-.012a1 1 0 0 0 .214-.03l1.029-.036 1.18-.03a51 51 0 0 1 1.528-.021c2.234-.022 5.198.007 8.082.199s5.698.506 7.73.841c.515.074.979.136 1.373.237.393.1.764.133 1.047.197l.891.193a.9.9 0 0 0 .406-.016q.204-.055.371-.186c.245-.199.416-.474.487-.781z"/>
    <path fill="#000" d="M70.684 176.68a5.7 5.7 0 0 1-.022-1.238 5.69 5.69 0 0 1-3.015-5.675 5.74 5.74 0 0 1-2.9-3.995 5.21 5.21 0 0 1 .995-3.959 5.4 5.4 0 0 1 2.251-1.751 5 5 0 0 1-.123-.626 5.14 5.14 0 0 1 1.184-3.984 5.67 5.67 0 0 1 3.848-1.997l.18-.019q.146-.029.295-.039l1.613-.143c1.027-.082 2.497-.195 4.265-.294 3.532-.213 8.283-.354 13.105-.228 2.416.065 4.853.203 7.133.389s4.488.462 6.366.714c.945.148 1.808.281 2.582.416l1.992.372 1.76.372q.293.06.571.171.278.119.531.287c.321.2.603.455.834.754a2.22 2.22 0 0 1 .42 1.907l-5.918 22.539a2.93 2.93 0 0 1-.999 1.56c-.215.17-.461.294-.725.367q-.191.05-.389.052a1.4 1.4 0 0 1-.398-.033l-.867-.174c-.274-.066-.628-.119-1.023-.196a25 25 0 0 0-1.338-.229c-1.978-.33-4.737-.649-7.58-.831s-5.76-.219-7.961-.199c-1.1.004-2.028.037-2.672.049l-1.02.037a3 3 0 0 1-.296.035l-.309.011-.828.037a75 75 0 0 0-2.505.142c-.91.069-1.817.147-2.505.184l-1.138.1a4.7 4.7 0 0 1-3.555-1.226 5.8 5.8 0 0 1-1.84-3.659m5.207 2.371 1.156-.101c.697-.054 1.625-.125 2.552-.186a120 120 0 0 1 2.547-.142l.836-.04.317-.014-.008-.025 1.051-.038c.332-.014.736-.02 1.203-.033a59 59 0 0 1 1.555-.026c2.278-.028 5.305.008 8.26.19s5.842.518 7.927.859c.531.078.991.169 1.418.245s.788.135 1.078.205l.925.196 5.005-22.739-1.707-.357-1.945-.355c-.755-.132-1.594-.255-2.516-.4-1.831-.25-3.964-.528-6.216-.7a174 174 0 0 0-7.015-.383c-4.742-.124-9.415.013-12.9.225-1.746.095-3.196.212-4.205.292l-1.592.136-.453.041a2.9 2.9 0 0 0-2.005 1.039 2.9 2.9 0 0 0-.647 2.164 2.946 2.946 0 0 0 3.18 2.603s-.977.088-1.95.192-1.951.221-1.951.221a2.84 2.84 0 0 0-2.46 3.249 2.893 2.893 0 0 0 3.144 2.532l.984-.113.983-.104a2.8 2.8 0 0 0-2.338 3.194 2.84 2.84 0 0 0 3.004 2.589l1.042-.106 1.04-.099a2.775 2.775 0 0 0-2.166 3.132c.177 1.615 1.458 2.783 2.867 2.657"/>
    <path fill="#000" d="M81.52 168.14a.927.927 0 0 0-.183-1.445.92.92 0 0 0-.535-.128l-1.88.117c-1.519.103-2.92.212-4.16.323a254 254 0 0 0-4.145.43l-1.877.233a.931.931 0 0 0 .231 1.845l1.868-.234c1.276-.147 2.769-.301 4.09-.421 1.227-.116 2.61-.22 4.095-.316l1.872-.109a.94.94 0 0 0 .624-.295M81.153 161.654a.94.94 0 0 0 .293-.692.93.93 0 0 0-.943-.913l-1.885.03c-1.524.049-2.93.085-4.152.144-1.343.061-2.86.154-4.164.249l-1.88.169a.928.928 0 0 0 .158 1.847l1.876-.168c1.279-.096 2.779-.188 4.114-.256 1.227-.056 2.61-.108 4.116-.141l1.88-.033a.9.9 0 0 0 .587-.236M83.633 174.556a.93.93 0 0 0 .223-1.026.93.93 0 0 0-.877-.578l-1.883.034c-1.524.049-2.927.084-4.154.139-1.341.066-2.86.155-4.162.254l-1.876.168a.93.93 0 0 0-.672.307.927.927 0 0 0 .83 1.539l1.871-.166a160 160 0 0 1 8.235-.398l1.858-.026a.92.92 0 0 0 .607-.247"/>
    <path fill="#2563EB" d="m106.986 183.283.2.012.551.028.872.037c.347.018.728.029 1.156.039l1.414.04 1.646.022c1.179.022 2.484.001 3.914-.006a201 201 0 0 0 20.693-1.393c3.74-.438 7.47-.99 10.959-1.604 1.747-.273 3.425-.64 5.019-.95l2.326-.464c.748-.164 1.469-.338 2.166-.499l3.786-.883c1.12-.29 2.098-.559 2.902-.775l2.528-.682-8.449-29.818-2.093.562c-.663.178-1.468.408-2.395.647l-3.152.729c-.58.135-1.179.282-1.803.423l-1.948.383c-1.315.253-2.739.57-4.216.799-2.931.524-6.085.984-9.255 1.355a173 173 0 0 1-17.465 1.165c-1.176.001-2.263.018-3.207.001l-1.323-.019-1.099-.035-.873-.027-.629-.025-.38-.021-.119-.007z"/>
    <path fill="#2563EB" d="M160.185 145.75q.05.116.08.239a1.64 1.64 0 0 1-1.183 2.024l-2.086.565-.782.213-1.636.437-.034.011-3.154.735-.64.151c-.381.087-.774.182-1.179.268l-.034.011-1.947.383-1.158.233c-.997.201-2.028.41-3.108.583a170 170 0 0 1-9.339 1.369 172 172 0 0 1-17.636 1.172l-1.043.008c-.787.004-1.527.012-2.208-.001l-1.319-.021-.021.007-1.102-.029-.397-.015-1.555 27.645 1.085.035 1.413.036 1.632.022c.873.014 1.823.01 2.818-.018l1.061-.009a202 202 0 0 0 20.54-1.36c3.592-.421 7.258-.955 10.866-1.591l.029-.01a87 87 0 0 0 3.695-.684l1.267-.256 2.3-.46 1.416-.325.718-.168 3.761-.874c.739-.189 1.418-.377 2.021-.539l.857-.228 2.518-.683a1.656 1.656 0 0 1 1.738.585 1.66 1.66 0 0 1 .33 1.219 1.65 1.65 0 0 1-1.206 1.382l-2.527.686-.856.228c-.616.167-1.317.357-2.081.555l-.034.011-3.781.881-.714.167q-.717.173-1.473.339l-.029.01-2.321.467-1.26.249c-1.228.247-2.495.502-3.816.711a199 199 0 0 1-11.04 1.612 206 206 0 0 1-20.873 1.384l-1.062.009c-1.025.006-1.998.013-2.9-.005l-1.636-.021-.021.007-1.414-.04a55 55 0 0 1-1.19-.041l-1.641-.076a1.635 1.635 0 0 1-1.462-1.103 1.6 1.6 0 0 1-.087-.637l1.737-30.928c.031-.431.231-.834.555-1.121.163-.143.353-.253.558-.323.206-.069.424-.097.64-.082l.119.007.332.014.63.029.845.028 1.094.031 1.31.024c.631.016 1.352.01 2.12.002l1.045-.003a169 169 0 0 0 17.267-1.169c3.036-.353 6.119-.803 9.168-1.339l.033-.011c1.014-.151 2.008-.357 2.978-.54l1.175-.238 1.921-.379 1.121-.262.654-.151 3.125-.725c.571-.146 1.105-.294 1.575-.42l.795-.217 2.084-.56a1.64 1.64 0 0 1 1.959.878"/>
    <path fill="#000" d="m160.497 162.07.022.067a.74.74 0 0 1-.044.56.75.75 0 0 1-.427.365c-.164.055-4.074 1.302-11.621 2.56-6.942 1.156-18.392 2.525-33.51 2.486a.732.732 0 0 1-.496-1.252.72.72 0 0 1 .517-.206c15.021.057 26.376-1.317 33.265-2.464 7.441-1.241 11.37-2.5 11.412-2.514a.74.74 0 0 1 .882.398"/>
    <path fill="#000" d="M151.264 174.61a.732.732 0 0 1-1.157.857c-3.01-2.716-5.703-6.833-8.001-12.264a56.6 56.6 0 0 1-2.557-7.342.733.733 0 0 1 .533-.88.73.73 0 0 1 .889.516c.043.125 3.306 12.75 10.116 18.878a.8.8 0 0 1 .177.235M138.063 155.938a.7.7 0 0 1 .054.406c-.021.119-1.806 11.767 2.543 20.146a.72.72 0 0 1 .063.57.72.72 0 0 1-.366.442.73.73 0 0 1-.572.043.72.72 0 0 1-.429-.381c-4.57-8.799-2.764-20.538-2.683-21.032a.73.73 0 0 1 .295-.476.73.73 0 0 1 .545-.13.72.72 0 0 1 .55.412"/>
  </g>
  <defs>
    <clipPath id="a">
      <path fill="#fff" d="M0 0h192v192H0z"/>
    </clipPath>
  </defs>
</svg>
