<svg xmlns="http://www.w3.org/2000/svg" fill="none" viewBox="0 0 192 192">
  <g clip-path="url(#a)">
    <path d="M0 0h192v192H0z"/>
    <path fill="#000" d="M163.645 152.008s2.933-3.194.669-11.516c-2.263-8.323-4.219-10.383-4.632-10.281s-12.967 9.356-12.967 10.281c0 .924 5.454 7.916 5.763 8.123s11.167 3.393 11.167 3.393"/>
    <path fill="#FDA894" d="M179.364 85.621s15.773 11.177 12.071 23.785c-3.501 11.928-17.036 21.111-26.448 28.74s-11.803 8.531-11.803 8.531l-14.201-22.743 4.593-11.989 19.192-11.431z"/>
    <path fill="#000" d="M23.162 151.853s-1.428-5.93 2.915-13.686c4.343-7.755 7.584-7.907 8.51-6.982.925.924 8.181 16.192 8.181 16.192s-.925 2.005-1.852 2.468c-.927.462-17.754 2.008-17.754 2.008"/>
    <path fill="#FDA894" d="M9.423 85.541S-2.242 93.914.383 106.07s15.374 22.353 24.17 30.679c8.794 8.326 11.111 9.407 11.111 9.407l15.901-21.594-9.416-15.714-12.505-9.454z"/>
    <path fill="#000" d="M96.482 96.502c-.727-1.825-2.893-3.122-4.58-3.9-2.814-1.296-8.811-2.21-10.376 1.15-2.247-.2-4.673-.083-6.393 1.55-1.245 1.182-1.675 2.982-.936 4.483-1.442.636-2.766 1.481-3.724 2.78-1.192 1.618-1.572 3.788-.456 5.556.494.791 1.217.987 1.85 1.544.727.635-.23 1.884-.022 2.845.348 1.607 1.698 2.294 3.167 2.585.474 2.544 10.255 5.071 10.255 5.071s-.048.499 1.387-1.104c1.28-1.428 2.166-3.166 2.868-4.934 1.775-4.468 2.483-9.258 5.538-13.122 1.021-1.308 2.108-2.764 1.421-4.504"/>
    <path fill="#FDA894" d="M102.764 107.554a13.14 13.14 0 0 1-8.123 12.145c-1.597.66-3.308 1-5.036 1-1.077 0-2.15-.13-3.197-.388a12 12 0 0 1-1.42-.444 13.16 13.16 0 0 1-6.825-5.819 13.14 13.14 0 0 1 3.008-16.584 13.17 13.17 0 0 1 14.163-1.743 13.2 13.2 0 0 1 4.585 3.672 12 12 0 0 1 .901 1.288 1 1 0 0 0 .045.08c.111.174.216.346.313.525q.334.614.6 1.259c.653 1.589.988 3.291.986 5.009"/>
    <path fill="#FDA894" d="M101.753 123.117c-4.743 2.08-12.357-.808-15.34-2.806-2.975-1.993.73-11.861.73-11.861l10.614-6.046 3.057-1.746q.008.011.012.025c.038.068.152.29.327.623s.378.741.63 1.247c1.37 2.757 3.835 7.907 4.681 11.276.919 3.657.031 7.203-4.711 9.288"/>
    <path fill="#FDA894" d="M99.845 121.936s-.067.69-.166 1.77c-.124 1.277-.305 3.083-.477 4.922-.34 3.578-.69 7.261-.69 7.34 0 .152-5.922 3.498-5.922 3.498l-11.887-4.733 4.55-15.792z"/>
    <path fill="#000" d="M93.843 107.348a2 2 0 0 0-.294-.376 1.1 1.1 0 0 0-.554-.319c-.577-.108-.789.424-.649.891.12.399.35.757.664 1.031.124.115.272.201.434.249a.56.56 0 0 0 .48-.089c.179-.153.206-.416.177-.648a1.9 1.9 0 0 0-.258-.739M100.79 104.918a2 2 0 0 0-.294-.376 1.1 1.1 0 0 0-.554-.319c-.577-.108-.789.424-.65.891.12.4.35.757.665 1.031.124.115.272.2.434.248a.54.54 0 0 0 .479-.088c.18-.152.208-.415.177-.648a1.9 1.9 0 0 0-.257-.739M93.238 103.133a1 1 0 0 0-.073-.069 1.34 1.34 0 0 0-.696-.272c-.608-.079-1.217.082-1.793.304-.496.182-.96.444-1.37.777-.48.411-1.453 1.77-.397 2.129.326.113.685.027 1.015-.075a8.7 8.7 0 0 0 3.093-1.613 1.1 1.1 0 0 0 .424-.588.71.71 0 0 0-.203-.593M100.821 100.675q-.004-.013-.012-.025a12 12 0 0 0-.89-1.263q-.165.055-.333.123c-.499.18-.964.443-1.377.777-.457.407-1.414 1.715-.457 2.109q.03.016.063.024c.327.111.684.026 1.012-.073a9.4 9.4 0 0 0 2.321-1.049.05.05 0 0 1 .031-.012q-.175-.315-.358-.611"/>
    <path fill="#BF3131" d="M98.967 110.061a.31.31 0 0 1-.268-.149.3.3 0 0 1-.001-.307c.429-.774.735-1.65.642-1.835-.27-.25-1.603-.996-2.436-1.434a.31.31 0 0 1-.162-.301.31.31 0 0 1 .45-.244c.22.116 2.145 1.139 2.576 1.541.51.479-.118 1.825-.536 2.573a.3.3 0 0 1-.265.156M97.86 113.488c-1.273 0-1.989-.527-2.03-.559a.307.307 0 0 1 .143-.552.31.31 0 0 1 .228.059c.05.036 1.235.885 3.35.111 1.48-.54 1.585-1.796 1.59-1.851a.3.3 0 0 1 .106-.208.32.32 0 0 1 .221-.078q.061.003.117.03a.3.3 0 0 1 .157.175.3.3 0 0 1 .015.119c0 .07-.121 1.71-1.994 2.394a5.6 5.6 0 0 1-1.902.36M99.678 123.709c-.123 1.277-.305 3.084-.477 4.922a2.8 2.8 0 0 1-.838-.216c-2.57-1.128-7.164-6.218-7.164-6.218 1.334.44 2.693.801 4.069 1.08 1.457.258 2.93.403 4.41.432"/>
    <path fill="#000" d="M90.94 97.157c-2.939 1.233-8.232 4.577-8.232 4.577a20.8 20.8 0 0 1 2.075 4.338c.735 2.27 1.117 3.843.204 5.885s0 7.915 0 7.915c-5.055-1.603-9.687-6.679-9.687-12.317 0-7.261 7.038-13.584 14.308-13.584 2.335 0 4.521 1.038 6.416 2.106-1.354.093-3.347.351-5.084 1.08"/>
    <path fill="#FDA894" d="M88.446 110.908c1.232 2.683.669 5.572-1.255 6.454-1.925.882-4.483-.581-5.715-3.265-1.231-2.684-.666-5.571 1.258-6.453s4.482.58 5.712 3.264"/>
    <path fill="#2563EB" d="m83.152 126.234 9.31 5.533 6.685-2.561 5.432 4.566-10.265 9.176-18.023-8.598z"/>
    <path fill="#2563EB" d="M131.533 205.369c-.456 6.476-5.865 10.024-5.865 10.024l-25.533 1.546-.623.037-32.45 1.962s-3.396-1.129-4.94-3.702c-2.187-3.632-9.48-36.29-9.48-39.787 0-3.498 13.277-47.293 13.277-47.293s13.48 3.702 14.202 3.702l12.382 2.547.635.129.304.062 33.147-4.331s5.409 68.624 4.944 75.104"/>
    <path fill="#000" d="m100.136 216.939-.623.036c.34-2.358.454-4.744.34-7.124-.457-9.154-6.12-63.81-7.336-75.45a432 432 0 0 1-.23-2.178.3.3 0 0 1 .162-.305.318.318 0 0 1 .341.033.32.32 0 0 1 .115.204c0 .074.1.912.247 2.375 1.254 12.054 6.873 66.173 7.317 75.297a36.8 36.8 0 0 1-.333 7.112"/>
    <path fill="#2563EB" d="m78.665 131.544-36.512-22.7s.617 14.996-7.54 31.824c-4.677 9.645-11.449 11.186-11.449 11.186l33.81 27.297 19.475-22.978zM101.91 133.26l41.667-21.317s5.133 17.114 8.8 25.976c5.145 12.441 11.264 14.086 11.264 14.086L119.65 177.45s-6.946-31.427-6.637-32.137-11.103-12.053-11.103-12.053"/>
    <path fill="#FDA894" d="m9.424 85.54 43.23-30.849L67.37 73.66s-32.99 27.828-35.924 29.815-8.439 2.982-8.851 2.982S12.509 97.921 12 97.303c-.508-.617-2.577-11.762-2.577-11.762"/>
    <path fill="#000" d="M25.593 109.15a.3.3 0 0 1-.179-.053.303.303 0 0 1-.019-.488l7.054-6.049a.307.307 0 0 1 .437.032.3.3 0 0 1 .075.224.32.32 0 0 1-.107.212l-7.052 6.049a.3.3 0 0 1-.209.073"/>
    <path fill="#FDA894" d="M67.364 73.655c8.22-2.995 16.401-7.222 19.435-15.995.804-2.33 1.058-4.799 1.515-7.21.371-1.96.76-3.92 1.23-5.86.695-2.852-.926-5.93-3.55-3.623s-2.933 8.79-4.555 10.719c-1.62 1.928-3.473 1.926-4.554.23-1.08-1.695-4.09-7.17-4.4-7.248-.308-.078-14.665 3.701-15.05 4.01s-4.792 6.008-4.792 6.008 3.55 11.11 3.627 11.572c.078.462 11.094 7.397 11.094 7.397"/>
    <path fill="#FDA894" d="M52.644 54.69s-1.159-5.431 0-8.364c1.158-2.934 4.13-2.814 4.13-2.814s.193-2.03 1.505-3.097 3.196-.721 3.196-.721-.193-2.158 2.74-2.853 5.713 2.506 6.561 4.319 1.39 6.709 1.39 6.709-2.238 5.512-2.624 6.207-2.625 3.238-4.98 3.469c-2.354.231-11.918-2.856-11.918-2.856"/>
    <path fill="#FDA894" d="M69.245 41.086s1.93-8.29 6.407-10.602 7.72.102 9.622 2.107c1.386 1.46 5.076 6.258 1.425 7.3-1.853.529-3.383-.782-4.68-1.91-.735-.642-1.732-1.272-2.717-1.447-1.318-.234-1.674.715-2.035 1.786-.892 2.673-1.314 5.705-1.314 8.515v.493c.116 3.245.746 4.592 1.28 5.049.532.456 1.498 2.649.342 2.308-1.157-.34-5.21-.456-5.751-1.265-.54-.81-1.968-1.004-2.008-4.512s-.57-7.822-.57-7.822"/>
    <path fill="#000" d="M65.861 57.591c-1.38 0-2.396-1.216-2.802-2.012a.307.307 0 0 1 .372-.432c.077.026.142.081.179.154.048.096 1.231 2.365 3.132 1.459 1.183-.566 2.045-3.203.582-8.773-1.495-5.695-5.514-7.803-5.553-7.822a.308.308 0 1 1 .28-.55c.175.089 4.306 2.256 5.87 8.212 1.959 7.459-.203 9.145-.914 9.485a2.6 2.6 0 0 1-1.146.28M65.718 64.102a.4.4 0 0 1-.077-.01.303.303 0 0 1-.221-.376c.035-.134.89-3.318 4.525-6.387 2.932-2.48 7.764-3.886 7.962-3.946a.308.308 0 0 1 .172.593c-.05.014-4.905 1.43-7.735 3.823-3.475 2.94-4.318 6.045-4.326 6.083a.305.305 0 0 1-.3.22"/>
    <path fill="#FDA894" d="M179.367 85.62s-1.945 10.555-2.451 11.178c-.505.624-10.09 9.259-10.503 9.265-.412.007-5.125.609-8.068-1.351-2.024-1.345-15.238-15.427-23.335-24.132-1.66-1.796-3.105-3.356-4.192-4.534l-2.119-2.295 14.516-19.122 4.939 4.23 4.699 4.035z"/>
    <path fill="#FDA894" d="M128.702 73.752c-8.246-2.905-16.481-7.042-19.609-15.781-.83-2.321-1.11-4.787-1.592-7.193-.393-1.956-.802-3.913-1.296-5.846-.724-2.845.609-6.477 3.253-4.192s3.287 9.288 4.929 11.198 3.501 1.889 4.556.181 4.013-7.215 4.322-7.299 14.704 3.543 15.094 3.847 4.854 5.958 4.854 5.958-3.428 11.148-3.501 11.612-11.01 7.515-11.01 7.515"/>
    <path fill="#FDA894" d="M143.215 54.626s1.099-5.442-.09-8.364c-1.189-2.92-4.16-2.769-4.16-2.769s-.215-2.027-1.539-3.08c-1.325-1.054-3.211-.686-3.211-.686s.169-2.161-2.772-2.823-5.683 2.569-6.513 4.389-1.317 6.724-1.317 6.724 2.299 5.488 2.693 6.179 2.659 3.208 5.016 3.415c2.356.207 11.893-2.985 11.893-2.985"/>
    <path fill="#FDA894" d="M126.469 41.202s-2.02-8.268-6.523-10.534-7.717.187-9.599 2.213c-1.37 1.475-5.008 6.312-1.344 7.316 1.857.51 3.375-.818 4.658-1.96.729-.65 1.718-1.291 2.7-1.477 1.317-.248 1.685.697 2.055 1.764.921 2.663 1.37 5.69 1.408 8.504v.492c-.08 3.247-.695 4.6-1.217 5.062s-1.469 2.666-.316 2.313 5.205-.514 5.736-1.329 1.958-1.023 1.958-4.533.484-7.831.484-7.831"/>
    <path fill="#000" d="M130.004 57.673a2.6 2.6 0 0 1-1.126-.265c-.713-.331-2.893-1.995-1.016-9.473 1.501-5.977 5.608-8.187 5.785-8.279a.308.308 0 1 1 .286.546c-.04.022-4.039 2.187-5.468 7.883-1.4 5.584-.511 8.212.676 8.764 1.913.888 3.07-1.395 3.117-1.492a.31.31 0 0 1 .57.037.3.3 0 0 1-.016.235c-.406.81-1.415 2.044-2.808 2.044M130.24 64.18a.3.3 0 0 1-.305-.229c-.009-.03-.884-3.126-4.393-6.028-2.855-2.363-7.725-3.726-7.773-3.74a.31.31 0 1 1 .164-.594c.205.056 5.044 1.411 8.004 3.858 3.668 3.041 4.566 6.209 4.594 6.343a.305.305 0 0 1-.217.378.4.4 0 0 1-.074.011M163.87 111.02a.31.31 0 0 1-.226-.097l-6.073-6.505a.31.31 0 1 1 .456-.422l6.072 6.506a.3.3 0 0 1 .084.158.31.31 0 0 1-.136.313.3.3 0 0 1-.173.047zM97.136 37.733h-3.14a.463.463 0 0 1 0-.924h3.14a.463.463 0 1 1 0 .924M97.136 43.362h-3.14a.463.463 0 1 1 0-.925h3.14a.463.463 0 1 1 0 .925"/>
    <path fill="#2563EB" d="m92.574 39.708-5.919.171a28.8 28.8 0 0 0-14.284 4.277.7.7 0 0 1 .315.53 28.17 28.17 0 0 1 13.988-4.19l5.918-.171a.31.31 0 0 0 .285-.197.3.3 0 0 0 .02-.12.305.305 0 0 0-.323-.3"/>
    <path fill="#2563EB" d="M94.637 35.195h-.11c-2.655 0-4.806 2.29-4.806 5.116s2.15 5.114 4.805 5.114h.111zM123.425 44.255a28.77 28.77 0 0 0-14.451-4.376l-5.918-.172a.315.315 0 0 0-.232.528.3.3 0 0 0 .22.094l5.918.172a28.17 28.17 0 0 1 14.263 4.36.8.8 0 0 1 .033-.325.8.8 0 0 1 .167-.28"/>
    <path fill="#2563EB" d="M101.277 35.195v10.212c2.571-.1 4.628-2.344 4.628-5.105s-2.057-5.006-4.628-5.107"/>
    <path fill="#CBD5E1" d="M101.331 35.186h-.14c-.947 0-1.715.767-1.715 1.713v6.802c0 .947.768 1.714 1.715 1.714h.14c.948 0 1.716-.767 1.716-1.714V36.9c0-.946-.768-1.714-1.716-1.714"/>
    <path fill="#000" d="M101.963 37.27a.69.69 0 0 0-.43-.643.695.695 0 1 0 .43.642M101.963 42.898a.7.7 0 0 0-.429-.644.695.695 0 1 0 .429.644M86.92 140.184a.305.305 0 0 1-.216-.089l-7.796-7.686a.306.306 0 0 1-.004-.436.31.31 0 0 1 .218-.092.3.3 0 0 1 .22.089l7.542 7.436 5.457-7.4a.32.32 0 0 1 .357-.105q.064.023.11.072l6.456 6.531 3.237-5.292a.31.31 0 0 1 .192-.139.31.31 0 0 1 .335.462l-3.443 5.626a.3.3 0 0 1-.228.147.303.303 0 0 1-.255-.092l-6.478-6.554-5.454 7.395a.31.31 0 0 1-.225.124z"/>
    <path fill="#000" d="M95.017 138.766a.307.307 0 0 1-.304-.282l-.152-1.709a.304.304 0 0 1 .277-.33.3.3 0 0 1 .224.07.3.3 0 0 1 .108.207l.152 1.709a.305.305 0 0 1-.282.335zM97.68 161.843a.304.304 0 0 1-.305-.283l-.152-1.709a.306.306 0 1 1 .609-.052l.152 1.709a.31.31 0 0 1-.164.301.3.3 0 0 1-.116.032zM99.876 184.977a.307.307 0 0 1-.304-.281l-.152-1.71a.3.3 0 0 1 .164-.302.3.3 0 0 1 .117-.032.306.306 0 0 1 .334.281l.152 1.709a.3.3 0 0 1-.013.12.297.297 0 0 1-.269.213zM53.471 174.74h-.054a.31.31 0 0 1-.25-.238.3.3 0 0 1 0-.121l8.896-49.02a.31.31 0 0 1 .608.111l-8.897 49.018a.308.308 0 0 1-.303.25M129.645 171.403a.3.3 0 0 1-.186-.061.3.3 0 0 1-.111-.162l-12.163-42.945a.306.306 0 0 1 .213-.381.3.3 0 0 1 .235.027c.072.04.124.107.147.185l12.158 42.945q.017.059.011.121a.304.304 0 0 1-.304.271"/>
    <path fill="#2563EB" fill-rule="evenodd" d="M24 38.77c0 15.08 4.182 20.85 7.226 22.957 2.344 1.624 5.764 3.063 10.18 2.568 4.418-.496 9.884-2.936 16.306-9.175l.515.53c-6.501 6.315-12.112 8.86-16.74 9.379-4.63.52-8.226-.995-10.682-2.694-3.328-2.305-7.543-8.37-7.543-23.565zM169.836 38.316c1.496 6.358.385 13.12-2.646 17.287-3.047 4.19-8.351 6.06-13.96 6.06-5.644 0-12.02-3-15.413-6.769l.549-.494c3.254 3.616 9.432 6.524 14.864 6.524 5.468 0 10.503-1.823 13.363-5.756 2.878-3.956 3.982-10.486 2.524-16.682z" clip-rule="evenodd"/>
    <path fill="#000" d="M70.517 54.522a4.6 4.6 0 0 1-1.956-.471.303.303 0 0 1-.129-.416.303.303 0 0 1 .417-.13c.014.007 1.411.72 2.63.222.724-.304 1.258-.969 1.59-1.997 1.403-4.356-3.288-11.59-3.335-11.663a.309.309 0 1 1 .516-.338c.2.304 4.9 7.553 3.405 12.19-.39 1.216-1.045 2.012-1.946 2.38-.379.15-.784.226-1.192.223M125.303 54.644a3.2 3.2 0 0 1-1.154-.21c-.913-.359-1.569-1.15-1.979-2.358-1.545-4.62 3.075-11.918 3.273-12.226a.308.308 0 1 1 .52.331c-.047.073-4.659 7.359-3.207 11.699.343 1.026.886 1.692 1.614 1.976 1.233.488 2.61-.243 2.624-.25a.309.309 0 0 1 .294.542 4.6 4.6 0 0 1-1.985.496M134.902 59.53a2.08 2.08 0 0 1-1.408-.531c-.712-.63-.969-1.64-1.141-2.636-.285-1.642-.127-3.51.481-5.713 1.498-5.422 5.439-7.18 5.606-7.252a.31.31 0 0 1 .337.062.3.3 0 0 1 .094.216.3.3 0 0 1-.022.119.308.308 0 0 1-.164.17c-.038.016-3.84 1.723-5.254 6.842-.585 2.114-.737 3.894-.469 5.445.152.886.373 1.775.942 2.281.773.686 1.929.355 2.598-.364.67-.72.866-1.742 1.066-2.738.074-.37.152-.736.243-1.08.25-.913 1.273-3.249 1.317-3.346a.307.307 0 0 1 .505-.09.31.31 0 0 1 .086.22.3.3 0 0 1-.026.118c-.011.024-1.049 2.389-1.286 3.261-.092.332-.162.683-.235 1.04-.219 1.086-.447 2.209-1.218 3.042a2.89 2.89 0 0 1-2.052.934M60.983 59.5a2.9 2.9 0 0 1-2.038-.912c-.784-.824-1.024-1.945-1.256-3.029a18 18 0 0 0-.243-1.034c-.248-.87-1.312-3.224-1.323-3.248a.308.308 0 0 1 .39-.416.3.3 0 0 1 .173.162c.044.099 1.093 2.42 1.353 3.333.098.342.176.704.255 1.074.213 1 .434 2.034 1.099 2.737s1.835 1.032 2.603.337c.564-.509.774-1.4.913-2.288.251-1.553.078-3.332-.528-5.44-1.475-5.123-5.29-6.774-5.328-6.79a.308.308 0 1 1 .24-.57c.167.07 4.127 1.786 5.683 7.19.632 2.196.81 4.063.543 5.709-.152.997-.406 2.009-1.112 2.647a2.08 2.08 0 0 1-1.424.539"/>
    <path fill="#2563EB" fill-rule="evenodd" d="M170.093 27.57a5.908 5.908 0 1 0-.001-11.816 5.908 5.908 0 0 0 .001 11.815m0-2.955a2.954 2.954 0 1 0 0-5.908 2.954 2.954 0 0 0 0 5.908" clip-rule="evenodd"/>
    <path fill="#2563EB" fill-rule="evenodd" d="M169.049 8.282a1.477 1.477 0 0 1 2.031 0 17.46 17.46 0 0 0 12.268 4.796 1.48 1.48 0 0 1 1.421 1.015 20.5 20.5 0 0 1 1.021 6.4c0 9.542-6.527 17.557-15.357 19.83a1.5 1.5 0 0 1-.737 0c-8.83-2.273-15.357-10.288-15.357-19.83 0-2.233.358-4.385 1.02-6.4a1.48 1.48 0 0 1 1.422-1.015h.222c4.667 0 8.905-1.822 12.046-4.796m-11.179 7.733a17.5 17.5 0 0 0-.577 4.478c0 4.308 1.555 8.253 4.134 11.305a17.64 17.64 0 0 1 8.666-2.26c3.131 0 6.074.813 8.627 2.238a17.46 17.46 0 0 0 4.116-11.283c0-1.55-.201-3.05-.577-4.478a20.4 20.4 0 0 1-12.195-4.689 20.4 20.4 0 0 1-12.194 4.689m18.652 17.947a14.7 14.7 0 0 0-6.429-1.47c-2.319 0-4.513.535-6.466 1.487a17.5 17.5 0 0 0 6.437 3.384 17.5 17.5 0 0 0 6.458-3.401M23.877 27.57a5.908 5.908 0 1 0 0-11.816 5.908 5.908 0 0 0 0 11.815m0-2.955a2.954 2.954 0 1 0 0-5.907 2.954 2.954 0 0 0 0 5.907" clip-rule="evenodd"/>
    <path fill="#2563EB" fill-rule="evenodd" d="M23.877 39.385c8.7 0 15.754-7.054 15.754-15.754S32.578 7.877 23.877 7.877c-8.7 0-15.754 7.053-15.754 15.754 0 8.7 7.053 15.754 15.754 15.754m9.45-7.12a12.75 12.75 0 0 0 3.35-8.634c0-7.07-5.73-12.8-12.8-12.8s-12.8 5.73-12.8 12.8c0 3.327 1.27 6.358 3.35 8.634a17.64 17.64 0 0 1 9.45-2.727c3.474 0 6.714 1 9.45 2.727m-2.37 2.032a14.7 14.7 0 0 0-7.08-1.805c-2.565 0-4.978.654-7.08 1.805a12.74 12.74 0 0 0 7.08 2.134 12.74 12.74 0 0 0 7.08-2.134" clip-rule="evenodd"/>
  </g>
  <defs>
    <clipPath id="a">
      <path fill="#fff" d="M0 0h192v192H0z"/>
    </clipPath>
  </defs>
</svg>
