<svg xmlns="http://www.w3.org/2000/svg" width="128" height="128" fill="none" viewBox="0 0 128 128">
  <g clip-path="url(#102a)">
    <path fill="#2563EB" d="M64 128c35.346 0 64-28.654 64-64S99.346 0 64 0 0 28.654 0 64s28.654 64 64 64" opacity=".25"/>
    <path fill="#000" d="M90.427 27.777 89.83 42.83l31.532-26.806z"/>
    <path fill="#2563EB" d="m75.053 19.988 15.685 9.354 27.913-12.308-23.27 15.065 17.944 10.727 14.823-30.902z"/>
    <path fill="#000" d="M82.383 81.771 48.807 49.62a9.4 9.4 0 0 0-1.034-.985l-.324-.315h-.04a9.304 9.304 0 0 0-11.323 0h-.04l-.33.315q-.553.453-1.033.985L1.123 81.77A3.7 3.7 0 0 0 .3 83.007a3.8 3.8 0 0 0-.29 1.477v38.05a5.696 5.696 0 0 0 5.696 5.706h72.079a5.69 5.69 0 0 0 5.691-5.706v-38.07a3.8 3.8 0 0 0-.29-1.477 3.7 3.7 0 0 0-.803-1.216"/>
    <path fill="#fff" d="M6.11 116.386v-58.56a5.287 5.287 0 0 1 5.277-5.293h45.361L77.376 73.21v43.171z"/>
    <path fill="#000" d="m56.567 52.952 20.381 20.46v42.595h-70.4V57.826a4.874 4.874 0 0 1 4.86-4.874zm.344-.837H11.383a5.706 5.706 0 0 0-5.692 5.711v58.978h72.094V73.048z"/>
    <path fill="#fff" d="M5.69 127.828a5.29 5.29 0 0 1-5.272-5.292V85.199l75.786 42.629z"/>
    <path fill="#000" d="m.832 85.889 73.772 41.521H5.681a4.873 4.873 0 0 1-4.859-4.874V85.889zM0 84.46v38.055a5.696 5.696 0 0 0 5.691 5.706h72.094z"/>
    <path fill="#fff" d="M7.626 127.779 83.441 85.15v37.337a5.29 5.29 0 0 1-5.272 5.292z"/>
    <path fill="#2563EB" d="M56.92 52.115v15.222a5.695 5.695 0 0 0 5.692 5.706h15.173z"/>
    <path fill="#000" d="M82.649 85.889v36.627a4.84 4.84 0 0 1-1.413 3.451 4.8 4.8 0 0 1-1.57 1.064 4.9 4.9 0 0 1-1.861.379H8.862l73.772-41.497zm.837-1.428L5.7 128.242h72.084a5.694 5.694 0 0 0 5.71-5.706V84.481z"/>
    <path fill="#2563EB" d="M39.3 94.169a15.085 15.085 0 1 1 14.696-11.747l-2.846-.645A12.14 12.14 0 1 0 39.3 91.25a12.05 12.05 0 0 0 7.385-2.506q.873-.669 1.62-1.477l2.156 1.97c-.62.672-1.3 1.288-2.028 1.84A14.9 14.9 0 0 1 39.3 94.17"/>
    <path fill="#2563EB" d="M39.3 86.375a7.31 7.31 0 1 1-.04-14.62 7.31 7.31 0 0 1 .04 14.62m0-11.692a4.37 4.37 0 0 0-4.041 2.708 4.377 4.377 0 0 0 5.716 5.735 4.35 4.35 0 0 0 1.969-1.615 4.396 4.396 0 0 0-3.638-6.838z"/>
    <path fill="#2563EB" d="M48.788 86.38a5.42 5.42 0 0 1-3.811-1.57A5.46 5.46 0 0 1 43.372 81h2.905a2.51 2.51 0 0 0 1.544 2.315A2.497 2.497 0 0 0 51.274 81h2.919a5.46 5.46 0 0 1-1.605 3.81 5.42 5.42 0 0 1-3.8 1.57M14.4 50.215a1.6 1.6 0 0 1-1.6-1.59V48.4a25.1 25.1 0 0 1 3.77-12.756 1.6 1.6 0 1 1 2.733 1.659A21.66 21.66 0 0 0 16 48.399v.197a1.6 1.6 0 0 1-1.58 1.62zm12.41-21.213a1.6 1.6 0 0 1-.88-2.954 42.4 42.4 0 0 1 12.096-5.366 1.612 1.612 0 0 1 .866 3.106 39.1 39.1 0 0 0-11.19 4.923c-.26.186-.571.287-.891.29m37.032-7.153h-.113a99 99 0 0 0-6.946-.247c-1.92 0-3.806.06-5.613.183a1.601 1.601 0 1 1-.211-3.196 89 89 0 0 1 5.824-.187c2.304 0 4.716.084 7.168.251a1.6 1.6 0 0 1-.109 3.196"/>
  </g>
  <defs>
    <clipPath id="102a">
      <path fill="#fff" d="M0 0h128v128H0z"/>
    </clipPath>
  </defs>
</svg>
