<svg xmlns="http://www.w3.org/2000/svg" width="192" height="192" fill="none" viewBox="0 0 192 192">
  <g clip-path="url(#phone-scanning-qr-codea)">
    <path fill="#fff" d="M0 0h192v192H0z"/>
    <path fill="#000" d="M63.385 76.389v-2.872h-8.493v-8.615h8.493v5.743h5.661v5.744h-2.83v5.743h-5.662v5.744h-5.662V79.26h5.662V76.39zm14.154 11.487H66.216v-5.744h5.661V76.39h5.662zM26.585 36.184H49.23v22.974H26.585zm28.307 0H77.54v22.974H54.892zM26.585 64.902H49.23v22.974H26.585zm42.461 0h8.493v5.743h-8.493zM35.077 44.799v5.744h5.662v-5.744zm0 28.718v5.743h5.662v-5.743zm28.308-28.718v5.744h5.661v-5.744z"/>
    <path fill="#000" d="M96.144 100.429H10.189a10.2 10.2 0 0 1-7.202-2.986A10.18 10.18 0 0 1 0 90.25V32.332a10.18 10.18 0 0 1 2.987-7.193 10.21 10.21 0 0 1 7.202-2.987h85.955a10.22 10.22 0 0 1 7.204 2.987 10.19 10.19 0 0 1 2.99 7.193V90.25a10.19 10.19 0 0 1-2.99 7.193 10.22 10.22 0 0 1-7.204 2.986M10.189 24.798a7.56 7.56 0 0 0-5.351 2.199 7.54 7.54 0 0 0-2.221 5.335V90.25a7.53 7.53 0 0 0 2.211 5.326 7.56 7.56 0 0 0 5.334 2.208h85.954c2.001-.002 3.92-.796 5.334-2.209a7.53 7.53 0 0 0 2.212-5.326V32.332a7.53 7.53 0 0 0-2.212-5.326 7.56 7.56 0 0 0-5.334-2.208z"/>
    <path fill="#fff" d="M177.422 157.551a1.24 1.24 0 0 0 .738-.915 2.6 2.6 0 0 0-.147-1.529l-.251-.598c-.082-.199-.185-.436-.311-.739-.125-.302-.273-.605-.435-.967a53 53 0 0 0-3.146-5.856 54 54 0 0 0-5.657-7.547 52 52 0 0 0-3.692-3.751 57 57 0 0 0-4.113-3.449 62 62 0 0 0-8.662-5.516 70 70 0 0 0-7.902-3.552c-2.341-.886-4.305-1.477-5.686-1.898a65 65 0 0 0-1.602-.451l-.569-.147a2 2 0 0 0-.288-.059l-.362-.089a6.26 6.26 0 0 0-4.431.45 4.25 4.25 0 0 0-2.296 3.036 4.3 4.3 0 0 0 .133 2.001h-.141a5.5 5.5 0 0 0-4.113.842 4.34 4.34 0 0 0-1.898 3.197 4.9 4.9 0 0 0 .628 2.806 5.43 5.43 0 0 0 1.979 2.009 4.6 4.6 0 0 0-.893 2.215 5.2 5.2 0 0 0 .472 2.954 4.8 4.8 0 0 0 1.861 2.075 5.2 5.2 0 0 0-.849 2.038 5.64 5.64 0 0 0 .509 3.575 3.78 3.78 0 0 0 2.319 2.001s.465.118 1.137.31 1.573.48 2.445.783c.871.302 1.727.635 2.348.901.317.125.576.243.738.317l.281.126.2.066.243.104.665.317c.568.281 1.366.687 2.274 1.211a31 31 0 0 1 2.954 1.913 28 28 0 0 1 2.91 2.466 23.7 23.7 0 0 1 4.164 5.398c.451.805.783 1.522 1.02 2.024.118.251.192.458.251.59l1.92 4.343c.199.494 2.54-1.16 3.286-1.426z"/>
    <path fill="#000" d="M152.499 172.084a1.605 1.605 0 0 1-1.669-.953c-.318-.738-1.78-4.017-1.913-4.327a2 2 0 0 1-.088-.214c-.045-.111-.089-.222-.148-.34a28 28 0 0 0-.968-1.92 22 22 0 0 0-1.632-2.488 24 24 0 0 0-2.281-2.585 26 26 0 0 0-2.762-2.341 30 30 0 0 0-2.799-1.817 29 29 0 0 0-2.215-1.166l-.739-.347-.325-.119-.266-.125-.738-.31a42 42 0 0 0-2.26-.864c-.989-.347-1.912-.628-2.37-.739l-.857-.236-.244-.066a5.18 5.18 0 0 1-3.234-2.733 7 7 0 0 1-.643-4.49c.088-.478.226-.946.414-1.395a6.642 6.642 0 0 1-1.913-5.627 6.2 6.2 0 0 1 .444-1.588 6.7 6.7 0 0 1-1.352-1.706 6.26 6.26 0 0 1-.812-3.633 5.804 5.804 0 0 1 2.503-4.254 6.87 6.87 0 0 1 3.456-1.181q.013-.372.074-.739a5.72 5.72 0 0 1 3.043-4.061 7.3 7.3 0 0 1 2.762-.798 8 8 0 0 1 2.71.222l.288.074.361.073.584.155 1.632.458a82 82 0 0 1 5.789 1.928 71 71 0 0 1 8.072 3.633 63.6 63.6 0 0 1 8.861 5.642 58 58 0 0 1 4.21 3.53 55 55 0 0 1 3.795 3.854 55 55 0 0 1 5.805 7.747 54 54 0 0 1 3.234 6.011l.14.31c.118.251.222.488.31.694l.569 1.337c.323.765.398 1.612.214 2.422a2.67 2.67 0 0 1-1.536 1.883l-22.006 11.564h-.096q-.482.231-.938.51a7 7 0 0 1-2.466 1.115m-1.219-7.06c.089.192.163.355.207.48l.059.126 1.411 3.183.598-.34q.62-.38 1.284-.679l21.933-11.498c.033-.203.007-.41-.074-.598l-.561-1.322c-.074-.178-.17-.392-.281-.621l-.14-.31a51 51 0 0 0-3.065-5.701 51.3 51.3 0 0 0-5.494-7.333 62 62 0 0 0-3.603-3.692c-1.189-1.122-2.629-2.304-4.018-3.36a60 60 0 0 0-8.462-5.391 68 68 0 0 0-7.739-3.478c-1.861-.738-3.745-1.329-5.576-1.861l-1.573-.443-.568-.147h-.2l-.443-.119a5.2 5.2 0 0 0-1.75-.14 4.3 4.3 0 0 0-1.662.473 2.83 2.83 0 0 0-1.558 2.008 2.9 2.9 0 0 0 .096 1.344l.672 2.216-2.451-.443a4.7 4.7 0 0 0-1.16-.052 3.8 3.8 0 0 0-1.876.664 2.9 2.9 0 0 0-1.284 2.142c-.053.69.104 1.38.45 1.979a4 4 0 0 0 1.477 1.477l1.403.82-.982 1.292a3.2 3.2 0 0 0-.613 1.477 3.83 3.83 0 0 0 .347 2.156 3.36 3.36 0 0 0 1.292 1.477l1.352.798-.909 1.277c-.312.44-.519.945-.605 1.477-.172.9-.042 1.832.369 2.651a2.4 2.4 0 0 0 1.388 1.263c.215.044.554.14 1.189.325.495.148 1.477.436 2.526.805.79.28 1.669.62 2.422.93l1.012.436h.103l.687.31.421.207a68 68 0 0 1 2.363 1.248 34 34 0 0 1 3.064 2.001 29 29 0 0 1 3.072 2.6 26 26 0 0 1 2.563 2.909 27 27 0 0 1 1.839 2.799c.48.945.849 1.743 1.048 2.178"/>
    <path fill="#fff" d="M134.447 62.768h-45.14c-3.237 0-5.861 2.633-5.861 5.882v98.266c0 3.249 2.624 5.882 5.86 5.882h45.141c3.237 0 5.861-2.633 5.861-5.882V68.65c0-3.249-2.624-5.882-5.861-5.882"/>
    <path fill="#000" d="M134.482 174.276h-45.21a7.3 7.3 0 0 1-5.162-2.152 7.35 7.35 0 0 1-2.14-5.179v-98.33a7.35 7.35 0 0 1 2.142-5.175 7.3 7.3 0 0 1 5.16-2.149h45.21a7.3 7.3 0 0 1 5.16 2.149 7.35 7.35 0 0 1 2.143 5.176v98.329a7.35 7.35 0 0 1-2.141 5.179 7.3 7.3 0 0 1-5.162 2.152M89.272 64.175a4.43 4.43 0 0 0-3.128 1.303 4.45 4.45 0 0 0-1.3 3.138v98.329a4.46 4.46 0 0 0 1.3 3.138 4.43 4.43 0 0 0 3.128 1.302h45.21a4.43 4.43 0 0 0 3.129-1.302 4.45 4.45 0 0 0 1.298-3.138v-98.33a4.45 4.45 0 0 0-1.298-3.137 4.43 4.43 0 0 0-3.129-1.303z"/>
    <path fill="#000" d="M133.669 70.15H90.084a.6.6 0 0 1-.274-.035.65.65 0 0 1-.238-.154.7.7 0 0 1-.161-.248.8.8 0 0 1 0-.598.7.7 0 0 1 .161-.248.7.7 0 0 1 .238-.154.6.6 0 0 1 .274-.034h43.585a.6.6 0 0 1 .274.034.65.65 0 0 1 .238.154q.104.106.162.248a.82.82 0 0 1 0 .598.75.75 0 0 1-.162.248.65.65 0 0 1-.238.154.6.6 0 0 1-.274.034M133.738 166.153H90.016a.63.63 0 0 1-.468-.217.78.78 0 0 1-.194-.522c0-.196.07-.383.194-.522a.63.63 0 0 1 .468-.216h43.722c.175 0 .344.078.468.216a.79.79 0 0 1 .194.522c0 .196-.07.384-.194.522a.63.63 0 0 1-.468.217"/>
    <path fill="#fff" d="M156.908 135.058c-7.975-1.669-13.292-1.108-20.957.62a4.23 4.23 0 0 0-2.954 5.576c.79 2.725 2.762 3.611 4.822 3.02 5.339-1.344 8.699-1.883 14.378-.738-1.809 7.576.59 16.194 7.244 19.008z"/>
    <path fill="#000" d="M159.559 163.888a1.4 1.4 0 0 1-.643-.104c-3.456-1.477-6.136-4.482-7.546-8.514a21.5 21.5 0 0 1-.776-10.656c-4.431-.739-7.473-.281-12.428.96-2.954.842-5.524-.739-6.462-3.943a5.83 5.83 0 0 1 .399-4.579 5.8 5.8 0 0 1 1.48-1.685 5.8 5.8 0 0 1 2.013-.988h.059c7.842-1.765 13.329-2.348 21.526-.62a1.343 1.343 0 0 1 1.041 1.595 1.35 1.35 0 0 1-1.595 1.041c-7.746-1.625-12.738-1.1-20.344.605a3 3 0 0 0-1.824 1.381 3.18 3.18 0 0 0-.17 2.511c.532 1.809 1.624 2.54 3.16 2.097h.037c5.753-1.477 9.283-1.897 14.976-.738.357.075.67.287.872.591a1.35 1.35 0 0 1 .17 1.041 18.97 18.97 0 0 0 .413 10.538c.812 2.333 2.526 5.427 6.048 6.919a1.336 1.336 0 0 1 .739 1.765 1.35 1.35 0 0 1-.465.549 1.35 1.35 0 0 1-.68.234"/>
    <path fill="#2563EB" d="m154.441 189.823 35.971.162v-1.307c0-.266 0-.576-.037-.923s-.037-.738-.052-1.152-.066-.834-.11-1.3c0-.236-.037-.472-.059-.738l-.089-.739c-.059-.502-.118-1.041-.199-1.58a68 68 0 0 0-1.396-7.008 79 79 0 0 0-2.216-7.288 112.6 112.6 0 0 0-7.273-16.335l-.621-1.137c-.162-.274-.243-.421-.243-.421l-31.222 17.834.125.214c.089.162.214.391.384.686.325.613.812 1.536 1.373 2.666a76 76 0 0 1 3.531 8.345 49 49 0 0 1 1.284 4.231 33 33 0 0 1 .658 3.286c.037.222.051.414.081.606.029.192 0 .192 0 .281v1.011a2 2 0 0 0 0 .266v.177z"/>
    <path fill="#2563EB" d="M190.413 191.898a1.91 1.91 0 0 1-1.913-1.912v-1.263l-.089-2.001c0-.34-.051-.695-.081-1.071l-.081-.901c0-.141 0-.288-.052-.443l-.074-.658c-.044-.361-.088-.738-.147-1.107a66 66 0 0 0-1.352-6.816 80 80 0 0 0-2.156-7.126 109 109 0 0 0-5.169-12.192c-.783-1.588-1.477-2.873-1.913-3.693l-27.936 15.914a78.33 78.33 0 0 1 4.638 10.553 46 46 0 0 1 1.329 4.431q.45 1.719.701 3.478c0 .147.037.28.052.413a2 2 0 0 0 0 .2v.376l.052.643a1 1 0 0 1 0 .111v.989a1.922 1.922 0 0 1-3.231 1.28 1.92 1.92 0 0 1-.602-1.28v-.48a.1.1 0 0 1 0-.044v-.281l-.037-.384v-.229a.2.2 0 0 1 0-.059v-.413c0-.096 0-.178-.037-.281a29 29 0 0 0-.62-3.079 45 45 0 0 0-1.226-4.062 77 77 0 0 0-3.448-8.123 93 93 0 0 0-1.337-2.599l-.487-.879a1.917 1.917 0 0 1 .738-2.607l31.237-17.834a1.93 1.93 0 0 1 2.621.739l.237.421.627 1.137a119 119 0 0 1 2.075 4.017c2.024 4.094 3.8 8.306 5.318 12.613a74 74 0 0 1 2.215 7.458 69 69 0 0 1 1.432 7.208c.06.406.111.812.156 1.203l.081.65c0 .185.044.362.059.547l.081.93q.052.614.089 1.152l.088 2.09v1.374a1.91 1.91 0 0 1-1.179 1.773 1.9 1.9 0 0 1-.733.147z"/>
    <path fill="#000" d="M181.403 184.536a.85.85 0 0 0 .738-1.477c-3.692-2.954-8.898-5.266-15.544-6.89a66 66 0 0 0-8.862-1.566.854.854 0 0 0-.155 1.699c.155 0 15.227 1.417 23.52 8.078a.8.8 0 0 0 .303.156M157.572 172.882a.9.9 0 0 0 .48 0c.126-.044 13.145-4.261 23.535-.834a.854.854 0 0 0 1.075-.543.854.854 0 0 0-.543-1.075c-10.937-3.603-24.052.65-24.606.835a.85.85 0 0 0-.539 1.071.86.86 0 0 0 .598.546"/>
    <path fill="#2563EB" d="M117.743 117.826v-1.559h-4.676v-4.677h4.676v3.118h3.118v3.118h-1.559v3.118h-3.118v3.118h-3.117v-4.677h3.117v-1.559zm7.795 6.236h-6.236v-3.118h3.118v-3.118h3.118zM97.477 96h12.472v12.472H97.477zm15.59 0h12.471v12.472h-12.471zm-15.59 15.59h12.472v12.472H97.477zm23.384 0h4.677v3.118h-4.677zm-18.707-10.913v3.118h3.118v-3.118zm0 15.59v3.118h3.118v-3.118zm15.589-15.59v3.118h3.118v-3.118zM92.35 98.215a.78.78 0 0 1-.78-.78v-6.563a.78.78 0 0 1 .78-.78h6.562a.78.78 0 0 1 0 1.561H93.13v5.781a.78.78 0 0 1-.781.78M98.912 129.969H92.35a.79.79 0 0 1-.553-.228.78.78 0 0 1-.228-.553v-6.562a.782.782 0 0 1 1.562 0v5.782h5.78a.782.782 0 1 1 0 1.561M132.143 98.215a.78.78 0 0 1-.553-.228.77.77 0 0 1-.228-.553v-5.78h-5.781a.78.78 0 1 1 0-1.562h6.562a.785.785 0 0 1 .78.78v6.562a.78.78 0 0 1-.78.78M132.143 129.969h-6.562a.78.78 0 0 1-.781-.781.78.78 0 0 1 .781-.78h5.781v-5.782a.78.78 0 1 1 1.561 0v6.562a.78.78 0 0 1-.78.781M183.902 22.97l-10.171 5.445a.64.64 0 0 1-.339.077.673.673 0 0 1-.295-1.281l10.171-5.444a.674.674 0 1 1 .64 1.184zM175.66 40.356a.68.68 0 0 1 .694-.64l11.529.377a.67.67 0 0 1 .641.692.68.68 0 0 1-.695.64l-11.529-.378a.67.67 0 0 1-.64-.691M172.956 52.153l9.796 6.084a.674.674 0 0 1-.378 1.246.66.66 0 0 1-.32-.102l-9.796-6.085a.67.67 0 0 1-.325-.685.68.68 0 0 1 .275-.444.67.67 0 0 1 .757-.014zM166.664 26.176a28.23 28.23 0 0 0-18.498-13.698 28.222 28.222 0 0 0-27.078 46.423l-7.321 14.86 15.663-8.51a28.227 28.227 0 0 0 37.234-39.069z"/>
    <path fill="#000" d="M113.766 74.519a.74.74 0 0 0 .362-.093l15.321-8.326a28.97 28.97 0 0 0 26.826-.833.76.76 0 0 0 .396-.458.767.767 0 0 0-.545-.968.76.76 0 0 0-.597.1 27.46 27.46 0 0 1-25.76.641.76.76 0 0 0-.702 0l-13.562 7.366 6.264-12.714a.76.76 0 0 0-.115-.846 27.49 27.49 0 0 1-6.575-23.48c.096-.499.205-.999.321-1.485a.766.766 0 0 0-.562-.905.763.763 0 0 0-.918.54c-.125.515-.24 1.04-.339 1.566a29 29 0 0 0 3.202 19.595 29.4 29.4 0 0 0 3.379 4.804l-7.1 14.41a.76.76 0 0 0 .157.884.75.75 0 0 0 .547.202"/>
    <path fill="#fff" d="M139.936 57.38h-.029a2.4 2.4 0 0 1-1.957-1.054l-11.07-16.303a2.4 2.4 0 0 1-.373-1.8 2.403 2.403 0 0 1 4.347-.9l9.13 13.45 17.043-23.896a2.403 2.403 0 0 1 4.348.986 2.4 2.4 0 0 1-.438 1.803L141.892 56.37a2.4 2.4 0 0 1-1.956 1.008"/>
  </g>
  <defs>
    <clipPath id="phone-scanning-qr-codea">
      <path fill="#fff" d="M0 0h192v192H0z"/>
    </clipPath>
  </defs>
</svg>
