<svg xmlns="http://www.w3.org/2000/svg" width="192" height="192" fill="none" viewBox="0 0 192 192">
  <g clip-path="url(#104a)">
    <path fill="#fff" d="M0 0h192v192H0z"/>
    <path fill="#000" d="M145.551 143.261H15.426a15.48 15.48 0 0 1-10.904-4.508A15.35 15.35 0 0 1 0 127.896V40.473a15.35 15.35 0 0 1 4.522-10.857 15.48 15.48 0 0 1 10.904-4.509H145.55a15.5 15.5 0 0 1 10.906 4.508 15.36 15.36 0 0 1 4.528 10.858v87.423a15.36 15.36 0 0 1-4.528 10.858 15.5 15.5 0 0 1-10.906 4.507M15.426 29.101a11.5 11.5 0 0 0-4.383.856 11.4 11.4 0 0 0-3.719 2.462 11.4 11.4 0 0 0-2.487 3.694 11.3 11.3 0 0 0-.876 4.36v87.423a11.36 11.36 0 0 0 3.349 8.039 11.46 11.46 0 0 0 8.075 3.333H145.51a11.46 11.46 0 0 0 8.074-3.333 11.35 11.35 0 0 0 3.349-8.039V40.473a11.36 11.36 0 0 0-3.349-8.04 11.46 11.46 0 0 0-8.074-3.332z"/>
    <path fill="#fff" d="M130.035 74.916H30.517a9.4 9.4 0 0 0-9.4 9.4v6.14a9.4 9.4 0 0 0 9.4 9.4h99.518a9.4 9.4 0 0 0 9.4-9.4v-6.14a9.4 9.4 0 0 0-9.4-9.4"/>
    <path fill="#2563EB" d="M129.917 100.906H30.406a10.467 10.467 0 0 1-10.467-10.46v-6.14a10.467 10.467 0 0 1 10.467-10.46h99.511a10.476 10.476 0 0 1 10.467 10.46v6.14a10.476 10.476 0 0 1-10.467 10.46M30.406 76.002a8.34 8.34 0 0 0-8.34 8.332v6.14a8.34 8.34 0 0 0 8.34 8.333h99.511a8.345 8.345 0 0 0 8.339-8.332v-6.14a8.345 8.345 0 0 0-8.339-8.332z"/>
    <path fill="#000" d="M46.356 88.719h-14.36a1.337 1.337 0 0 1 0-2.669h14.36a1.337 1.337 0 1 1 0 2.669"/>
    <path fill="#000" d="M39.176 95.899a1.337 1.337 0 0 1-1.33-1.338V80.209a1.337 1.337 0 1 1 2.668 0V94.56a1.34 1.34 0 0 1-1.338 1.337"/>
    <path fill="#000" d="M34.103 93.799a1.36 1.36 0 0 1-.946-.391 1.344 1.344 0 0 1 0-1.893l10.154-10.154a1.338 1.338 0 0 1 1.886 1.893L35.05 93.408c-.252.248-.592.389-.947.391"/>
    <path fill="#000" d="M44.257 93.799a1.36 1.36 0 0 1-.946-.392L33.157 83.254a1.339 1.339 0 0 1 1.893-1.893l10.154 10.154a1.345 1.345 0 0 1 0 1.892 1.36 1.36 0 0 1-.947.392M73.787 88.719h-14.36a1.339 1.339 0 1 1 0-2.669h14.36a1.337 1.337 0 1 1 0 2.669"/>
    <path fill="#000" d="M66.58 95.899a1.34 1.34 0 0 1-1.338-1.338V80.209a1.337 1.337 0 1 1 2.675 0V94.56a1.336 1.336 0 0 1-1.338 1.338"/>
    <path fill="#000" d="M61.505 93.799a1.36 1.36 0 0 1-.947-.391 1.345 1.345 0 0 1 0-1.893l10.154-10.154a1.337 1.337 0 0 1 1.886 1.893L62.444 93.408a1.33 1.33 0 0 1-.94.391"/>
    <path fill="#000" d="M71.651 93.799c-.354 0-.694-.141-.946-.391L60.551 83.254a1.338 1.338 0 0 1 1.886-1.893L72.59 91.515a1.337 1.337 0 0 1-.94 2.284M101.161 88.719h-14.36a1.338 1.338 0 1 1 0-2.669h14.36a1.337 1.337 0 0 1 0 2.669"/>
    <path fill="#000" d="M93.98 95.899a1.337 1.337 0 0 1-1.338-1.338V80.209a1.338 1.338 0 0 1 2.676 0V94.56a1.336 1.336 0 0 1-1.338 1.338"/>
    <path fill="#000" d="M88.9 93.799a1.338 1.338 0 0 1-.94-2.284L98.109 81.36A1.337 1.337 0 1 1 100 83.253L89.846 93.408c-.251.25-.591.391-.946.392"/>
    <path fill="#000" d="M99.054 93.799a1.36 1.36 0 0 1-.946-.391L87.96 83.254a1.338 1.338 0 0 1 1.885-1.893L100 91.515a1.343 1.343 0 0 1 0 1.893c-.252.248-.592.389-.946.391M128.577 88.719h-14.374a1.34 1.34 0 0 1-1.324-.8 1.35 1.35 0 0 1 0-1.069 1.34 1.34 0 0 1 1.324-.8h14.374a1.34 1.34 0 0 1 1.008 2.314 1.35 1.35 0 0 1-1.008.355"/>
    <path fill="#000" d="M121.383 95.899a1.34 1.34 0 0 1-1.338-1.338V80.209a1.34 1.34 0 0 1 .8-1.324 1.34 1.34 0 0 1 1.797.783c.061.173.085.357.072.54v14.353a1.34 1.34 0 0 1-1.331 1.337"/>
    <path fill="#000" d="M116.302 93.799a1.36 1.36 0 0 1-.947-.392 1.346 1.346 0 0 1 0-1.892l10.154-10.154a1.34 1.34 0 0 1 1.459-.29 1.34 1.34 0 0 1 .434 2.183l-10.154 10.153c-.252.25-.592.39-.946.392"/>
    <path fill="#000" d="M126.441 93.799a1.36 1.36 0 0 1-.946-.392l-10.154-10.153a1.338 1.338 0 1 1 1.893-1.893l10.154 10.154a1.346 1.346 0 0 1 0 1.892 1.36 1.36 0 0 1-.947.392"/>
    <path fill="#2563EB" d="M80.862 54.646a7.015 7.015 0 1 0 0-14.03 7.015 7.015 0 0 0 0 14.03M80.863 58.338c-2.458 0-4.845.8-6.784 2.27a10.76 10.76 0 0 0-3.925 5.853h21.415a10.75 10.75 0 0 0-3.923-5.852 11.23 11.23 0 0 0-6.783-2.271M80.086 131.327a11.04 11.04 0 0 1-9.146-14.405 11.038 11.038 0 0 1 20.336-1.525 11.04 11.04 0 0 1 1.103 6.312 11.05 11.05 0 0 1-12.293 9.618m2.458-20.134a9.25 9.25 0 1 0 8.058 10.299 9.26 9.26 0 0 0-8.056-10.318z"/>
    <path fill="#fff" d="M105.369 120.336a4.554 4.554 0 0 1-.881-6c1.504-2.039 4.525-1.828 6.32-.268a68.5 68.5 0 0 1 15.916 20.71 901 901 0 0 0-7.491 3.58 60.4 60.4 0 0 0-13.864-18.022"/>
    <path fill="#000" d="M127.758 135.707a1.4 1.4 0 0 1-.442.326c-2.563 1.207-5.076 2.413-7.482 3.567a1.38 1.38 0 0 1-1.838-.619 59 59 0 0 0-13.543-17.603 5.953 5.953 0 0 1-1.083-7.86q.149-.204.32-.391a5.159 5.159 0 0 1 4.051-1.656 6.5 6.5 0 0 1 3.969 1.553 69.8 69.8 0 0 1 16.23 21.128 1.38 1.38 0 0 1-.19 1.554zm-7.914.819a714 714 0 0 1 4.994-2.387 66.7 66.7 0 0 0-14.939-19.028c-1.167-1.003-3.111-1.29-4.156-.127q-.078.083-.144.176a3.195 3.195 0 0 0 .679 4.133 61.7 61.7 0 0 1 13.559 17.232z"/>
    <path fill="#fff" d="M90.675 148.385a4.173 4.173 0 0 1 4.788-2.935c-2.886-.847-4.636-2.659-4.203-5.208.406-2.388 2.907-3.552 5.057-3.139-1.977-.715-3.394-2.788-2.762-4.854.712-2.307 3.486-3.302 5.738-2.668a65.5 65.5 0 0 0-16.075-3.963c-2.322-.24-4.131-1.687-4.151-3.991-.033-3.136 2.534-4.256 4.86-4.051 20.838 3.06 38.141 10.061 57.968 22.747a637 637 0 0 0-17.481 26.991 113.5 113.5 0 0 0-30.991-14.077 4.03 4.03 0 0 1-2.749-4.852"/>
    <path fill="#000" d="M125.071 168.57a1.42 1.42 0 0 1-.894.148 1.4 1.4 0 0 1-.512-.198 112.5 112.5 0 0 0-30.609-13.916 5.42 5.42 0 0 1-3.724-6.548 5.34 5.34 0 0 1 2.248-3.088 5.25 5.25 0 0 1-1.693-4.923 5.08 5.08 0 0 1 2.669-3.653q.182-.098.373-.184a5.04 5.04 0 0 1-.697-4.328 5.16 5.16 0 0 1 1.805-2.569 61 61 0 0 0-10.99-2.281c-3.178-.337-5.338-2.493-5.368-5.357a5.05 5.05 0 0 1 2.643-4.739 6.7 6.7 0 0 1 3.727-.699l.078.01c20.591 3.023 38.09 9.883 58.513 22.914a1.39 1.39 0 0 1 .611 1.442 1.4 1.4 0 0 1-.217.506 634 634 0 0 0-17.433 26.94 1.36 1.36 0 0 1-.53.523m-31.75-21.418a2.67 2.67 0 0 0-1.317 1.624 2.635 2.635 0 0 0 1.828 3.17 114.6 114.6 0 0 1 30.132 13.485 645 645 0 0 1 15.972-24.673c-19.541-12.329-36.406-18.861-56.173-21.769a3.9 3.9 0 0 0-2.126.386 2.295 2.295 0 0 0-1.188 2.27c.013 1.715 1.51 2.486 2.904 2.634a66.8 66.8 0 0 1 16.376 4.028 1.39 1.39 0 0 1-.845 2.636 3.88 3.88 0 0 0-2.797.303 2.5 2.5 0 0 0-1.245 1.447c-.42 1.382.668 2.691 1.903 3.143a1.386 1.386 0 0 1 .251 2.464c-.29.186-.638.257-.977.2a3.36 3.36 0 0 0-2.19.327 2.32 2.32 0 0 0-1.252 1.675c-.193 1.174.201 2.756 3.232 3.649a1.383 1.383 0 0 1-.636 2.69 2.96 2.96 0 0 0-1.848.276z"/>
    <path fill="#2563EB" d="m142.498 190.052 31.414-18.688c-14.481-24.657-38.343-36.997-38.343-36.997l-18.027 31.807s17.07 9.969 24.956 23.878"/>
    <path fill="#000" d="M162.244 164.004a.83.83 0 0 0 .459-.761.82.82 0 0 0-.524-.766.8.8 0 0 0-.323-.054c-4.529.164-9.809 1.727-15.693 4.708a64.5 64.5 0 0 0-7.486 4.426.815.815 0 0 0-.322.853.824.824 0 0 0 .985.614.8.8 0 0 0 .292-.132c.118-.086 12.027-8.503 22.275-8.829a.9.9 0 0 0 .337-.059M137.48 170.436a.75.75 0 0 0 .339-.31c.071-.113 6.947-11.338 16.694-15.367a.827.827 0 0 0-.051-1.449.82.82 0 0 0-.575-.061c-10.258 4.224-17.183 15.565-17.479 16.045a.817.817 0 0 0 .555 1.233.82.82 0 0 0 .516-.077z"/>
    <path fill="#2563EB" d="m143.4 191.594-.035-.004a1.73 1.73 0 0 1-2.333-.622c-7.547-13.344-24.143-23.134-24.31-23.233a1.725 1.725 0 0 1-.632-2.342l18.019-31.807a1.727 1.727 0 0 1 2.299-.687 96 96 0 0 1 14.024 9.432c7.187 5.716 17.406 15.258 25.02 28.223a1.733 1.733 0 0 1-.604 2.364c-.196.115-.413.19-.638.222a1.75 1.75 0 0 1-1.283-.335 1.8 1.8 0 0 1-.448-.506c-7.33-12.472-17.16-21.672-24.119-27.203a102 102 0 0 0-12.075-8.313l-16.351 28.828c4.385 2.779 17.382 11.699 24.126 23.627a1.72 1.72 0 0 1-.66 2.356"/>
    <path fill="#000" d="M156.605 176.376a.866.866 0 0 1-1.177-.287c-8.869-14.137-22.365-22.315-22.498-22.396a.867.867 0 0 1-.295-1.193.866.866 0 0 1 1.193-.295c.133.087 13.983 8.481 23.074 22.967a.87.87 0 0 1-.274 1.192z"/>
    <path fill="#2563EB" d="m187.594 11.156-10.17 5.444a.64.64 0 0 1-.34.077.672.672 0 0 1-.295-1.28l10.171-5.445a.674.674 0 0 1 .641 1.185zM179.352 28.541a.675.675 0 0 1 .695-.64l11.528.378a.67.67 0 0 1 .641.691.68.68 0 0 1-.695.64l-11.529-.377a.667.667 0 0 1-.64-.692M176.648 40.338l9.796 6.085a.673.673 0 0 1-.378 1.245.66.66 0 0 1-.32-.102l-9.796-6.085a.67.67 0 0 1-.232-.934.67.67 0 0 1 .94-.209zM170.357 14.361A28.23 28.23 0 0 0 151.858.664a28.222 28.222 0 0 0-27.078 46.423l-7.321 14.859 15.663-8.51a28.23 28.23 0 0 0 40.633-21.732 28.23 28.23 0 0 0-3.398-17.336z"/>
    <path fill="#000" d="M117.459 62.705a.75.75 0 0 0 .362-.093l15.32-8.327a28.97 28.97 0 0 0 26.826-.832.77.77 0 0 0 .396-.458q.047-.151.031-.308a.77.77 0 0 0-.576-.66.76.76 0 0 0-.597.1 27.46 27.46 0 0 1-25.76.64.75.75 0 0 0-.701 0l-13.562 7.366 6.264-12.714a.76.76 0 0 0-.116-.845 27.49 27.49 0 0 1-6.574-23.48c.096-.5.205-.999.32-1.486a.762.762 0 0 0-1.48-.365 32 32 0 0 0-.339 1.566 29 29 0 0 0 3.202 19.596 29.4 29.4 0 0 0 3.379 4.803l-7.1 14.411a.76.76 0 0 0 .157.884.75.75 0 0 0 .548.202"/>
    <path fill="#fff" d="M143.628 45.565h-.029a2.4 2.4 0 0 1-1.956-1.054l-11.071-16.303a2.41 2.41 0 0 1-.02-2.669 2.4 2.4 0 0 1 1.52-1.033 2.41 2.41 0 0 1 2.474 1.002l9.13 13.45 17.043-23.896a2.41 2.41 0 0 1 2.508-.977 2.4 2.4 0 0 1 1.51 1.077 2.4 2.4 0 0 1 .293 1.832c-.076.31-.212.601-.401.858l-19.044 26.704a2.4 2.4 0 0 1-1.957 1.009"/>
  </g>
  <defs>
    <clipPath id="104a">
      <path fill="#fff" d="M0 0h192v192H0z"/>
    </clipPath>
  </defs>
</svg>
