<svg xmlns="http://www.w3.org/2000/svg" width="128" height="128" fill="none" viewBox="0 0 128 128">
  <path fill="#fff" d="M0 0h128v128H0z"/>
  <path fill="#000" d="M51.414 37.238H34.39a1.258 1.258 0 1 1 0-2.508h17.024a1.258 1.258 0 1 1 0 2.508M51.414 44.55H34.39a1.256 1.256 0 1 1 0-2.508h17.024a1.26 1.26 0 0 1 1.342 1.254 1.257 1.257 0 0 1-1.342 1.254M51.414 51.868H34.39a1.256 1.256 0 1 1 0-2.508h17.024a1.26 1.26 0 0 1 1.342 1.254 1.256 1.256 0 0 1-1.342 1.254"/>
  <path fill="#000" d="M106.44 77.17H31.03a7.787 7.787 0 0 1-7.775-7.775V18.551a7.787 7.787 0 0 1 7.775-7.775h75.41a7.78 7.78 0 0 1 7.775 7.775v50.844a7.78 7.78 0 0 1-7.775 7.775M31.03 13.112a5.427 5.427 0 0 0-5.421 5.422v50.844A5.43 5.43 0 0 0 31.03 74.8h75.41a5.434 5.434 0 0 0 5.427-5.422V18.534a5.434 5.434 0 0 0-5.427-5.422z"/>
  <path fill="#000" d="M108.103 24.824H29.02a.469.469 0 0 0 0 .937h79.083a.467.467 0 0 0 .331-.8.47.47 0 0 0-.331-.137M38.806 19.271a3.085 3.085 0 1 1-6.17 0 3.085 3.085 0 0 1 6.17 0M46.992 19.271a3.084 3.084 0 1 1-1.9-2.85 3.08 3.08 0 0 1 1.9 2.85M55.19 19.271a3.086 3.086 0 1 1-6.17 0 3.086 3.086 0 0 1 6.17 0M75.225 96.926h-5.142a.708.708 0 1 0 0 1.41h5.142a.71.71 0 1 0 0-1.41M82.395 96.926h-2.776a.707.707 0 0 0-.542 1.228.7.7 0 0 0 .541.183h2.777a.708.708 0 0 0 0-1.411M87.479 96.926h-1.257a.71.71 0 0 0 0 1.41h1.24a.709.709 0 0 0 0-1.41zM91.398 96.926h-.651a.709.709 0 0 0 0 1.41h.65a.71.71 0 1 0 0-1.41M94.792 96.926h-.32a.707.707 0 1 0 0 1.41h.32a.709.709 0 1 0 0-1.41"/>
  <path fill="#EC4899" d="M101.246 41.975a19.365 19.365 0 0 1-4.192 21.102 19.36 19.36 0 0 1-29.793-24.44 19.36 19.36 0 0 1 33.985 3.338"/>
  <path fill="#fff" d="m95.508 41.713-4.298-4.298-7.518 7.518-7.517-7.518-4.298 4.298 7.517 7.518-7.517 7.517 4.298 4.298 7.517-7.517 7.518 7.517 4.298-4.298-7.518-7.517zM57.8 63.26a2.891 2.891 0 1 0-5.775.091l.234 15.59 5.776-.085z"/>
  <path fill="#000" d="M52.168 79.827a.88.88 0 0 1-.789-.863l-.24-15.596a3.77 3.77 0 0 1 7.541-.114l.24 15.596a.885.885 0 0 1-1.765 0l-.24-15.59a2 2 0 0 0-2.034-1.977 2.004 2.004 0 0 0-1.976 2.034l.24 15.596a.89.89 0 0 1-.869.897z"/>
  <path fill="#fff" d="M78.081 81.861a2.685 2.685 0 0 0-3.468-.96 2.65 2.65 0 0 0 .389-3.536 2.685 2.685 0 0 0-3.468-.96 2.64 2.64 0 0 0 .394-3.53 2.674 2.674 0 0 0-3.644-.863l10.9-7.427a2.71 2.71 0 1 0-3.051-4.479L46.335 80.45l11.677 18.43 19.503-13.357a2.62 2.62 0 0 0 .566-3.662"/>
  <path fill="#000" d="M58.012 99.822h-.188a.93.93 0 0 1-.606-.417L45.541 80.97a.937.937 0 0 1 .263-1.28l29.798-20.343a3.43 3.43 0 0 1 1.936-.572 3.69 3.69 0 0 1 3.091 1.554 3.776 3.776 0 0 1-.914 5.045l-8.403 5.712c.56.296 1.04.726 1.394 1.252a3.71 3.71 0 0 1 .57 2.856 3.8 3.8 0 0 1 2.492 1.622 3.75 3.75 0 0 1 .571 2.857 3.8 3.8 0 0 1 2.485 1.617c.54.78.762 1.735.623 2.673a3.36 3.36 0 0 1-1.434 2.285L58.509 99.605a.93.93 0 0 1-.497.217M47.615 80.724l10.671 16.813 18.698-12.803a1.5 1.5 0 0 0 .635-1.028 1.86 1.86 0 0 0-.314-1.325 1.89 1.89 0 0 0-1.532-.852 1.46 1.46 0 0 0-.702.178.943.943 0 0 1-1.057-1.549 1.714 1.714 0 0 0 .211-2.285 1.9 1.9 0 0 0-1.531-.845 1.4 1.4 0 0 0-.703.177.943.943 0 0 1-1.056-1.548 1.713 1.713 0 0 0 .21-2.285 1.9 1.9 0 0 0-1.53-.846 1.4 1.4 0 0 0-.8.24.944.944 0 0 1-1.062-1.56l10.9-7.426a1.76 1.76 0 0 0 .651-1.143 1.72 1.72 0 0 0-.228-1.308 1.87 1.87 0 0 0-1.537-.737 1.6 1.6 0 0 0-.88.234z"/>
  <path fill="#2563EB" d="m48.483 78.484-.125.086-.35.234-.57.371-.72.503-.88.623-1.011.737c-.731.526-1.514 1.142-2.382 1.782a155 155 0 0 0-11.997 10.284 146 146 0 0 0-5.942 5.964c-.936.965-1.794 1.948-2.622 2.856l-1.205 1.337-1.086 1.291-1.902 2.285c-.571.686-1.023 1.297-1.417 1.794l-1.228 1.565 18.715 14.282 1.017-1.291c.326-.411.714-.914 1.171-1.485s1-1.194 1.583-1.88l.902-1.079c.332-.36.669-.737 1.011-1.143.697-.765 1.406-1.594 2.206-2.405a129.867 129.867 0 0 1 15.116-13.699c.714-.537 1.365-1.046 1.948-1.463l.811-.571.686-.48.542-.383.4-.268.234-.16.08-.052z"/>
  <path fill="#2563EB" d="M33.19 125.53a1.251 1.251 0 0 1-.366-1.862l1.011-1.297.383-.486.794-1.011 1.583-1.88.32-.382.57-.703 1.012-1.143q.303-.325.6-.668a128.844 128.844 0 0 1 6.69-6.85 132 132 0 0 1 10.197-8.746l.634-.474a58 58 0 0 1 1.343-1.006l.811-.571.68-.485.251-.172L48.06 80.261l-.674.469-.874.617-1.005.731c-.537.388-1.114.828-1.714 1.291l-.646.486a151 151 0 0 0-11.86 10.169 134 134 0 0 0-5.895 5.918 63 63 0 0 0-1.931 2.097l-.657.731-1.194 1.325-.714.846-.36.428-1.885 2.245a100 100 0 0 0-.989 1.246l-.411.531-1.228 1.56a1.256 1.256 0 0 1-1.76.211 1.253 1.253 0 0 1-.211-1.759l1.222-1.566.412-.52c.302-.382.64-.817 1.017-1.285l1.902-2.285.354-.429.743-.874 1.2-1.342c.222-.24.434-.48.656-.726.635-.708 1.286-1.44 2-2.17a152 152 0 0 1 5.981-6.01A156 156 0 0 1 41.616 81.85l.64-.486c.623-.474 1.211-.92 1.771-1.32l1-.731.88-.623.742-.52 1.034-.697a1.257 1.257 0 0 1 1.714.349l13.025 19.624a1.25 1.25 0 0 1 .189.942c-.068.325-.261.61-.537.794l-.08.052-.206.142-.4.275-.525.365-.68.48-.8.572c-.394.28-.828.611-1.291.959l-.634.48a128 128 0 0 0-9.986 8.569c-1.714 1.6-3.36 3.28-4.97 4.988a59 59 0 0 0-1.56 1.714l-.605.679-1 1.109c-.194.223-.377.445-.571.662l-.332.389-1.57 1.868-.767.977-.388.491-1.011 1.291a1.256 1.256 0 0 1-1.508.286"/>
  <path fill="#000" d="m25.575 115.767-.046-.035a.57.57 0 0 1-.132-.777 68 68 0 0 1 5.908-6.855 154 154 0 0 1 19.263-16.773.57.57 0 0 1 .783.114.57.57 0 0 1-.12.783 153 153 0 0 0-19.121 16.647 68 68 0 0 0-5.804 6.724.57.57 0 0 1-.732.172"/>
  <path fill="#000" d="M25.483 103.929a.57.57 0 0 1-.28-.537.573.573 0 0 1 .605-.502c3.068.274 6.582 1.559 10.455 3.816a43 43 0 0 1 4.901 3.308.57.57 0 0 1 0 .718.57.57 0 0 1-.702.15c-.08-.063-7.815-6.256-14.756-6.855a.6.6 0 0 1-.223-.098M42.022 109.282a.52.52 0 0 1-.217-.228c-.046-.08-4.262-7.998-10.712-11.089a.57.57 0 0 1-.257-.748.57.57 0 0 1 .743-.257c6.787 3.273 11.032 11.237 11.209 11.58a.57.57 0 0 1-.766.742"/>
  <path fill="#2563EB" d="M24.02 82.198a3.4 3.4 0 1 0 3.394 3.399 3.427 3.427 0 0 0-3.394-3.4m0 5.381a1.988 1.988 0 1 1-.01-3.977 1.988 1.988 0 0 1 .01 3.977"/>
  <path fill="#000" d="M82.406 5.149s1.086 1.542 2.737 1.622a3.34 3.34 0 0 0 2.736-1.434c1.017-1.24 1.663-1.48 2.023-1.462.53 0 1.01.674 1.416 1.274 0 0 1.086 1.542 2.737 1.622a3.34 3.34 0 0 0 2.736-1.434c.612-.742 1.223-1.114 1.823-1.102a2.46 2.46 0 0 1 1.634.942.7.7 0 0 0 .466.28.711.711 0 0 0 .676-1.125 3.87 3.87 0 0 0-2.725-1.508c-1.057 0-2.05.514-2.954 1.617a2.06 2.06 0 0 1-1.553.92 2.55 2.55 0 0 1-1.663-1.006c-.463-.691-1.24-1.828-2.52-1.891-1.005-.046-2.044.6-3.175 1.977a2.05 2.05 0 0 1-1.554.92 2.57 2.57 0 0 1-1.663-1.006c-.462-.691-1.24-1.828-2.513-1.891-1.012-.046-2.051.6-3.182 1.977a2.05 2.05 0 0 1-1.554.92 2.57 2.57 0 0 1-1.663-1.006c-.463-.691-1.24-1.828-2.514-1.891-1.01-.046-2.05.6-3.181 1.977a.703.703 0 0 0 .734 1.125.7.7 0 0 0 .357-.229c1.017-1.24 1.662-1.48 2.022-1.462.531 0 1.011.674 1.417 1.274 0 0 1.085 1.542 2.736 1.622a3.34 3.34 0 0 0 2.737-1.434c1.017-1.24 1.662-1.48 2.022-1.462.52.029 1 .674 1.405 1.274"/>
</svg>
