<svg xmlns="http://www.w3.org/2000/svg" width="260" height="260" fill="none" viewBox="0 0 260 260">
  <g clip-path="url(#106a)">
    <path fill="#fff" d="M0 0h260v260H0z"/>
    <path fill="#000" d="M161.503 230.044h-6.75a.933.933 0 0 0 0 1.862h6.75a.93.93 0 0 0 .658-.273.93.93 0 0 0 0-1.316.93.93 0 0 0-.658-.273M170.957 230.044h-3.661a.932.932 0 0 0 0 1.862h3.661a.93.93 0 0 0 .658-1.589.93.93 0 0 0-.658-.273M177.662 230.044h-1.631a.934.934 0 0 0-.93.931.927.927 0 0 0 .93.931h1.631a.93.93 0 0 0 .658-.273.93.93 0 0 0 0-1.316.93.93 0 0 0-.658-.273M182.83 230.044h-.847a.932.932 0 0 0 0 1.862h.855a.93.93 0 0 0 .658-.273.93.93 0 0 0 0-1.316.93.93 0 0 0-.658-.273zM187.301 230.044h-.443a.932.932 0 0 0 0 1.862h.443a.93.93 0 0 0 .658-.273.93.93 0 0 0 0-1.316.93.93 0 0 0-.658-.273M104.869 213.181h-4.755v-4.764a.932.932 0 1 0-1.862 0v4.764h-4.75a.93.93 0 0 0-.931.93.93.93 0 0 0 .93.931h4.751v4.751a.93.93 0 0 0 1.59.658.93.93 0 0 0 .272-.658v-4.764h4.755a.93.93 0 0 0 .658-.273.93.93 0 0 0 0-1.316.93.93 0 0 0-.658-.273zM182.399 201.773H83.016a10.26 10.26 0 0 1-10.256-10.25v-82.224a10.265 10.265 0 0 1 10.255-10.25H182.4a10.26 10.26 0 0 1 10.255 10.25v82.224a10.26 10.26 0 0 1-10.255 10.25m-99.383-99.622a7.16 7.16 0 0 0-7.154 7.148v82.224a7.16 7.16 0 0 0 7.154 7.148h99.383a7.16 7.16 0 0 0 7.153-7.148v-82.224a7.16 7.16 0 0 0-7.153-7.148z"/>
    <path fill="#000" d="M99.857 117.294H88.994a3.53 3.53 0 0 0-3.532 3.532v9.95a3.533 3.533 0 0 0 3.532 3.532h10.862a3.533 3.533 0 0 0 3.533-3.532v-9.95a3.53 3.53 0 0 0-3.532-3.532M125.38 117.294h-10.863a3.53 3.53 0 0 0-3.532 3.532v9.95a3.533 3.533 0 0 0 3.532 3.532h10.863a3.53 3.53 0 0 0 3.532-3.532v-9.95a3.53 3.53 0 0 0-3.532-3.532M150.903 117.294H140.04a3.53 3.53 0 0 0-3.532 3.532v9.95a3.533 3.533 0 0 0 3.532 3.532h10.863a3.53 3.53 0 0 0 3.532-3.532v-9.95a3.53 3.53 0 0 0-3.532-3.532M176.426 117.294h-10.863a3.53 3.53 0 0 0-3.532 3.532v9.95a3.533 3.533 0 0 0 3.532 3.532h10.863a3.53 3.53 0 0 0 3.532-3.532v-9.95a3.53 3.53 0 0 0-3.532-3.532M99.857 142.653H88.994a3.533 3.533 0 0 0-3.532 3.532v9.95a3.53 3.53 0 0 0 3.532 3.532h10.862a3.53 3.53 0 0 0 3.533-3.532v-9.95a3.533 3.533 0 0 0-3.532-3.532M125.38 142.653h-10.863a3.533 3.533 0 0 0-3.532 3.532v9.95a3.53 3.53 0 0 0 3.532 3.532h10.863a3.53 3.53 0 0 0 3.532-3.532v-9.95a3.53 3.53 0 0 0-3.532-3.532M150.903 142.653H140.04a3.533 3.533 0 0 0-3.532 3.532v9.95a3.53 3.53 0 0 0 3.532 3.532h10.863a3.53 3.53 0 0 0 3.532-3.532v-9.95a3.53 3.53 0 0 0-3.532-3.532M176.213 142.852h-10.862a3.53 3.53 0 0 0-3.533 3.532v9.95a3.533 3.533 0 0 0 3.533 3.532h10.862a3.53 3.53 0 0 0 3.532-3.532v-9.95a3.53 3.53 0 0 0-3.532-3.532M99.857 168.012H88.994a3.53 3.53 0 0 0-3.532 3.532v9.949a3.53 3.53 0 0 0 3.532 3.532h10.862a3.53 3.53 0 0 0 3.533-3.532v-9.949a3.53 3.53 0 0 0-3.532-3.532M125.38 168.012h-10.863a3.53 3.53 0 0 0-3.532 3.532v9.949a3.53 3.53 0 0 0 3.532 3.532h10.863a3.53 3.53 0 0 0 3.532-3.532v-9.949a3.53 3.53 0 0 0-3.532-3.532M93.79 110.154a1.084 1.084 0 0 1-.768-1.853c.203-.204.48-.318.767-.318 2.66 0 4.876-3.391 4.876-7.406s-2.216-7.401-4.876-7.401c-2.659 0-4.874 3.39-4.874 7.401a1.087 1.087 0 0 1-1.854.768 1.09 1.09 0 0 1-.318-.768 11.6 11.6 0 0 1 1.941-6.625C90.014 92.05 91.831 91 93.785 91s3.767 1.05 5.101 2.952a12.27 12.27 0 0 1 0 13.255c-1.352 1.901-3.164 2.947-5.096 2.947M119.734 110.155a1.09 1.09 0 0 1-1.086-1.086 1.085 1.085 0 0 1 1.086-1.086c2.659 0 4.875-3.39 4.875-7.405s-2.216-7.402-4.875-7.402-4.875 3.39-4.875 7.402a1.087 1.087 0 0 1-2.172 0 11.63 11.63 0 0 1 1.932-6.613c1.33-1.901 3.147-2.951 5.106-2.951s3.767 1.05 5.101 2.951a12.29 12.29 0 0 1 0 13.256c-1.343 1.888-3.116 2.934-5.092 2.934M145.696 110.154a1.084 1.084 0 0 1-1.086-1.085 1.084 1.084 0 0 1 1.086-1.086c2.659 0 4.875-3.391 4.875-7.406s-2.216-7.401-4.875-7.401c-2.66 0-4.875 3.39-4.875 7.401a1.086 1.086 0 0 1-2.172 0 11.62 11.62 0 0 1 1.941-6.625c1.33-1.902 3.147-2.952 5.101-2.952s3.767 1.05 5.105 2.952a12.28 12.28 0 0 1 0 13.255c-1.333 1.901-3.142 2.947-5.1 2.947M171.661 110.155a1.09 1.09 0 0 1-1.086-1.086 1.09 1.09 0 0 1 1.086-1.086c2.659 0 4.875-3.39 4.875-7.405s-2.216-7.402-4.875-7.402-4.875 3.39-4.875 7.402a1.083 1.083 0 0 1-1.086 1.085 1.083 1.083 0 0 1-1.085-1.085 11.6 11.6 0 0 1 1.945-6.613c1.33-1.901 3.147-2.951 5.101-2.951s3.767 1.05 5.101 2.951a12.28 12.28 0 0 1 0 13.256c-1.334 1.888-3.146 2.934-5.101 2.934"/>
    <path fill="#000" d="M149.799 220.963a1.23 1.23 0 0 1-.816-.341l-20.829-19.819a1.24 1.24 0 0 1-.071-1.724l36.93-41.588a4.87 4.87 0 0 1 3.758-1.494 4.83 4.83 0 0 1 4.502 5.495 4.8 4.8 0 0 1-1.063 2.403l-8.93 10.02c.812.2 1.564.594 2.19 1.148a4.92 4.92 0 0 1 1.675 3.488h.518a5.06 5.06 0 0 1 3.182 1.28 4.91 4.91 0 0 1 1.676 3.488h.518a5.06 5.06 0 0 1 3.182 1.281 4.93 4.93 0 0 1 1.649 3.222 4.45 4.45 0 0 1-1.095 3.399l-26.01 29.343a1.222 1.222 0 0 1-.887.417z"/>
    <path fill="#fff" d="m130.716 199.832 19.057 18.104 25.159-28.363a1.97 1.97 0 0 0 .483-1.52 2.47 2.47 0 0 0-.829-1.596 2.56 2.56 0 0 0-1.613-.656 2 2 0 0 0-1.458.514 1.238 1.238 0 0 1-2.08-.775 1.24 1.24 0 0 1 .232-.864 2.255 2.255 0 0 0-.443-2.979 2.57 2.57 0 0 0-1.618-.655 2 2 0 0 0-1.453.514 1.245 1.245 0 0 1-1.67.02 1.24 1.24 0 0 1-.178-1.66 2.255 2.255 0 0 0-.444-2.978 2.56 2.56 0 0 0-1.617-.661 1.98 1.98 0 0 0-1.564.63 1.258 1.258 0 0 1-.856.413 1.243 1.243 0 0 1-.997-2.066l11.554-12.99a2.51 2.51 0 0 0-.244-3.235 2.2 2.2 0 0 0-1.423-.532 2.44 2.44 0 0 0-1.826.665z"/>
    <path fill="#fff" d="m160.267 175.448-4.685 5.168a3.6 3.6 0 0 0 2.857 6.077 3.61 3.61 0 0 0 2.501-1.278l4.68-5.167z"/>
    <path fill="#000" d="M158.494 187.875a4.8 4.8 0 0 1-3.5-1.222 4.8 4.8 0 0 1-1.583-3.352 4.9 4.9 0 0 1 1.258-3.514l4.711-5.163a1.25 1.25 0 0 1 .859-.407 1.24 1.24 0 0 1 .98 2.073l-4.684 5.167a2.42 2.42 0 0 0-.62 1.738 2.297 2.297 0 0 0 .766 1.626 2.395 2.395 0 0 0 3.364-.226l4.689-5.176a1.243 1.243 0 0 1 1.753-.087 1.24 1.24 0 0 1 .406.859 1.24 1.24 0 0 1-.32.894l-4.684 5.172a4.9 4.9 0 0 1-3.395 1.618"/>
    <path fill="#fff" d="m165.66 180.234-4.684 5.168a3.6 3.6 0 0 0-.995 2.626 3.6 3.6 0 0 0 1.194 2.542 3.6 3.6 0 0 0 4.038.524c.43-.219.811-.523 1.121-.892l4.68-5.172z"/>
    <path fill="#000" d="M163.879 192.661a4.793 4.793 0 0 1-5.083-4.573 4.9 4.9 0 0 1 1.259-3.515l4.688-5.172a1.24 1.24 0 0 1 2.159.772c.017.329-.098.651-.319.895l-4.685 5.167a2.41 2.41 0 0 0-.62 1.738 2.28 2.28 0 0 0 .766 1.626 2.39 2.39 0 0 0 3.364-.226l4.689-5.176a1.244 1.244 0 0 1 1.755-.085 1.244 1.244 0 0 1 .084 1.755l-4.684 5.155a4.9 4.9 0 0 1-3.373 1.639"/>
    <path fill="#fff" d="m171.036 185.021-4.685 5.168a3.605 3.605 0 0 0 1.474 5.807 3.6 3.6 0 0 0 3.88-.985l4.684-5.168z"/>
    <path fill="#000" d="M169.25 197.448a4.8 4.8 0 0 1-3.497-1.223 4.8 4.8 0 0 1-1.582-3.351 4.92 4.92 0 0 1 1.254-3.514l4.693-5.172a1.24 1.24 0 0 1 1.839 1.666l-4.684 5.168a2.44 2.44 0 0 0-.625 1.737c.014.309.089.612.222.891.132.28.319.53.549.736a2.39 2.39 0 0 0 3.364-.226l4.689-5.172a1.243 1.243 0 0 1 2.159.772c.016.328-.099.65-.32.894l-4.684 5.168a4.9 4.9 0 0 1-3.377 1.626"/>
    <path fill="#fff" d="m160.985 187.202-10.636-9.542-3.005 22.722s5.384-1.462 4.746-11.523l4.086 3.719a3.6 3.6 0 0 0 2.612.958 3.6 3.6 0 0 0 2.513-1.193 3.6 3.6 0 0 0-.329-5.119z"/>
    <path fill="#000" d="m147.685 201.579-.651-2.394c.181-.057 4.405-1.458 3.846-10.277a1.24 1.24 0 0 1 .703-1.195 1.25 1.25 0 0 1 1.372.202l4.086 3.719a2.45 2.45 0 0 0 1.737.62 2.32 2.32 0 0 0 2.095-1.558c.101-.292.142-.602.121-.911a2.46 2.46 0 0 0-.816-1.666l-10.636-9.542a1.24 1.24 0 1 1 1.658-1.848l10.636 9.546a4.88 4.88 0 0 1 1.631 3.351 4.8 4.8 0 0 1-1.195 3.502 4.8 4.8 0 0 1-3.335 1.603h-.053a4.88 4.88 0 0 1-3.514-1.254l-1.999-1.817c-.448 8.394-5.451 9.856-5.686 9.919"/>
    <path fill="#2563EB" d="m131.987 195.263-.137.146-.372.408-.585.647c-.235.257-.488.55-.771.887l-.94 1.072-1.063 1.254c-.776.887-1.592 1.915-2.5 3.023a203 203 0 0 0-12.174 16.841 190 190 0 0 0-5.762 9.484c-.886 1.524-1.697 3.053-2.473 4.48l-1.13 2.092c-.35.683-.678 1.352-.997 1.99l-1.737 3.483c-.497 1.051-.909 1.977-1.259 2.735-.691 1.52-1.09 2.389-1.09 2.389l28.412 12.537s.324-.718.887-1.976c.288-.625.625-1.392 1.037-2.261l1.449-2.902c.266-.528.536-1.086.829-1.658l.944-1.773c.656-1.196 1.329-2.477 2.083-3.762a166 166 0 0 1 4.875-8.013 172 172 0 0 1 10.264-14.222c.749-.908 1.431-1.772 2.047-2.477l.86-1.011c.262-.301.505-.58.727-.828s.416-.479.58-.656l.422-.47c.115-.128.203-.226.257-.279l.079-.089z"/>
    <path fill="#2563EB" d="M126.944 260.318a1.638 1.638 0 0 1-1.05-2.278l.886-1.972q.165-.345.337-.736c.209-.443.443-.979.709-1.542a.1.1 0 0 0 0-.036l1.449-2.898.293-.594c.177-.35.355-.714.545-1.081v-.031l.944-1.773q.285-.517.563-1.042c.479-.886.979-1.825 1.542-2.769a168 168 0 0 1 4.915-8.08 173 173 0 0 1 10.415-14.328l.665-.811c.496-.607.966-1.183 1.413-1.697l.834-1.037.726-.829.262-.301-20.342-18.871c-.222.244-.443.514-.718.815l-.931 1.06-1.059 1.249a95 95 0 0 0-1.808 2.181l-.674.82a201 201 0 0 0-12.059 16.703 185 185 0 0 0-5.721 9.409v.027c-.652 1.094-1.25 2.216-1.831 3.284-.203.385-.412.766-.616 1.143l-1.112 2.07c-.23.443-.443.886-.656 1.298-.111.226-.221.443-.332.661l-1.724 3.465c-.328.692-.621 1.33-.887 1.901-.128.289-.252.554-.367.807l-1.086 2.38a1.652 1.652 0 0 1-3.01-1.369l1.09-2.389.364-.798c.262-.581.563-1.241.886-1.959v-.031l1.738-3.488.328-.651q.323-.665.678-1.356v-.027l1.125-2.092.612-1.13c.594-1.103 1.205-2.247 1.892-3.399a199 199 0 0 1 5.81-9.551 205 205 0 0 1 12.277-16.996l.669-.824c.651-.798 1.267-1.551 1.861-2.238l1.06-1.25.935-1.072c.288-.328.545-.621.793-.887l1.108-1.218a1.657 1.657 0 0 1 2.335-.085l22.762 21.118a1.643 1.643 0 0 1 .425 1.79 1.7 1.7 0 0 1-.341.55l-.079.089-.222.243-.443.47c-.16.173-.341.381-.563.634l-.722.824-.847 1.002a51 51 0 0 0-1.356 1.631 45 45 0 0 1-.665.811 169 169 0 0 0-10.149 14.071 159 159 0 0 0-4.826 7.933v.031a53 53 0 0 0-1.476 2.659c-.195.359-.381.713-.571 1.059l-.935 1.728q-.268.525-.515 1.029l-.301.602-1.436 2.881a81 81 0 0 0-.682 1.48c-.12.271-.235.519-.342.754l-.886 1.967a1.65 1.65 0 0 1-1.906.887"/>
    <path fill="#000" d="M114.176 250.125h-.071a.735.735 0 0 1-.412-.953c.067-.16 1.6-3.989 5.451-10.61 3.546-6.098 9.812-15.813 19.5-27.451a.74.74 0 0 1 1.058-.123.74.74 0 0 1 .072 1.063c-9.63 11.563-15.843 21.202-19.362 27.251-3.798 6.537-5.341 10.375-5.358 10.411a.727.727 0 0 1-.878.412"/>
    <path fill="#000" d="M110.378 234.986a.74.74 0 0 1-.534-.756.74.74 0 0 1 .627-.68c4.015-.59 8.921-.031 14.581 1.666a56 56 0 0 1 7.303 2.721.74.74 0 0 1 .391.417.73.73 0 0 1-.025.57.74.74 0 0 1-.425.381.745.745 0 0 1-.57-.038c-.12-.053-11.966-5.593-21.042-4.259a.7.7 0 0 1-.306-.022M133.233 236.731a.7.7 0 0 1-.35-.221c-.08-.089-7.929-8.913-17.156-10.903a.736.736 0 1 1 .31-1.44c9.715 2.096 17.617 10.995 17.949 11.372a.736.736 0 0 1-.753 1.192"/>
    <path fill="#2563EB" d="M63.476 122.062a4.48 4.48 0 0 0-4.135 2.764 4.475 4.475 0 1 0 4.135-2.764m0 7.091a2.616 2.616 0 0 1-2.564-3.125 2.61 2.61 0 0 1 2.054-2.054 2.613 2.613 0 0 1 2.358 4.412c-.49.49-1.155.766-1.848.767M65.05 166.704l-4.273 6.094a.94.94 0 0 0 0 1.068l3.9 5.558-3.9 5.557a.94.94 0 0 0 0 1.068l3.9 5.562-3.9 5.558a.94.94 0 0 0 0 1.068l3.9 5.557-3.9 5.558a.94.94 0 0 0 0 1.068l3.9 5.562-3.9 5.557a.94.94 0 0 0 0 1.068l4.273 6.094a.933.933 0 0 0 1.693-.536.9.9 0 0 0-.169-.532l-3.895-5.558 3.895-5.561a.93.93 0 0 0 0-1.069l-3.895-5.557 3.895-5.558a.92.92 0 0 0 0-1.068L62.68 197.7l3.895-5.557a.93.93 0 0 0 0-1.068l-3.895-5.558 3.895-5.557a.94.94 0 0 0 0-1.073l-3.895-5.557 3.895-5.558a.93.93 0 0 0-.228-1.296.92.92 0 0 0-.696-.154.94.94 0 0 0-.6.382"/>
    <path fill="#000" d="M200.596 172.409a.777.777 0 0 1-.775-.776v-40.586a.78.78 0 0 1 .775-.776.78.78 0 0 1 .776.776v40.564a.77.77 0 0 1-.219.563.78.78 0 0 1-.557.235"/>
    <path fill="#2563EB" d="m254.034 15.106-13.773 7.373a.87.87 0 0 1-.46.104.911.911 0 0 1-.399-1.735l13.773-7.372a.911.911 0 1 1 .867 1.604zM242.872 38.65a.913.913 0 0 1 .941-.868l15.612.512a.904.904 0 0 1 .867.937.916.916 0 0 1-.941.867l-15.612-.512a.906.906 0 0 1-.867-.936M239.211 54.626l13.265 8.24a.91.91 0 0 1 .397 1.04.915.915 0 0 1-.908.646.9.9 0 0 1-.434-.139l-13.266-8.24a.911.911 0 1 1 .959-1.547zM230.691 19.448A38.22 38.22 0 0 0 189.706.782a38.23 38.23 0 0 0-25.319 18.18 38.212 38.212 0 0 0 4.586 44.8l-9.913 20.123 21.21-11.523a38.223 38.223 0 0 0 50.421-52.906z"/>
    <path fill="#000" d="M159.059 84.912c.171 0 .34-.042.49-.125l20.746-11.276a39.23 39.23 0 0 0 36.327-1.127 1.03 1.03 0 0 0 .578-1.037 1.04 1.04 0 0 0-.402-.714 1.03 1.03 0 0 0-1.186-.044 37.19 37.19 0 0 1-34.883.867 1.03 1.03 0 0 0-.95 0l-18.366 9.974 8.483-17.216a1.02 1.02 0 0 0-.157-1.145 37.23 37.23 0 0 1-8.902-31.796c.13-.676.277-1.353.433-2.012a1.033 1.033 0 0 0-2.003-.494c-.169.698-.326 1.41-.46 2.12a39.28 39.28 0 0 0 4.337 26.536 39.7 39.7 0 0 0 4.575 6.505l-9.615 19.514a1.04 1.04 0 0 0 .213 1.197 1.02 1.02 0 0 0 .742.273"/>
    <path fill="#fff" d="M194.497 61.703h-.039a3.25 3.25 0 0 1-2.65-1.427L176.817 38.2a3.247 3.247 0 0 1 .862-4.519 3.26 3.26 0 0 1 2.438-.504 3.25 3.25 0 0 1 2.081 1.367l12.364 18.214 23.079-32.36a3.251 3.251 0 0 1 5.888 1.336 3.251 3.251 0 0 1-.593 2.441l-25.79 36.163a3.25 3.25 0 0 1-2.649 1.366"/>
  </g>
  <defs>
    <clipPath id="106a">
      <path fill="#fff" d="M0 0h260v260H0z"/>
    </clipPath>
  </defs>
</svg>
