<svg xmlns="http://www.w3.org/2000/svg" width="260" height="260" fill="none" viewBox="0 0 260 260">
  <path fill="#fff" d="M0 0h260v260H0z"/>
  <path fill="#2563EB" d="m109.44 227.826 8.374-5.871c.439-.31 1.03-.31 1.468 0l7.637 5.36 7.638-5.36a1.275 1.275 0 0 1 1.468 0l7.637 5.36 7.637-5.36a1.275 1.275 0 0 1 1.468 0l7.637 5.36 7.637-5.36c.439-.31 1.03-.31 1.468 0l7.638 5.36 7.637-5.36a1.275 1.275 0 0 1 1.468 0l8.374 5.871c.578.408.719 1.206.31 1.779a1.29 1.29 0 0 1-1.047.548c-.256 0-.512-.073-.737-.232l-7.637-5.353-7.638 5.353a1.27 1.27 0 0 1-1.467 0l-7.638-5.353-7.637 5.353a1.27 1.27 0 0 1-1.468 0l-7.637-5.353-7.637 5.353a1.27 1.27 0 0 1-1.468 0l-7.637-5.353-7.638 5.353a1.27 1.27 0 0 1-1.467 0l-7.638-5.353-7.637 5.353a1.28 1.28 0 0 1-1.785-.316 1.273 1.273 0 0 1 .311-1.779zM234.153 199.025a.975.975 0 0 1-.689-1.663l5.238-5.238a.98.98 0 0 1 1.376 0 .98.98 0 0 1 0 1.377l-5.237 5.237a.98.98 0 0 1-.688.287"/>
  <path fill="#2563EB" d="M239.384 199.025a.98.98 0 0 1-.688-.287l-5.238-5.237a.98.98 0 0 1 0-1.377.98.98 0 0 1 1.377 0l5.238 5.238a.975.975 0 0 1-.689 1.663M117.31 182.386a6.154 6.154 0 0 0 0 12.309 6.16 6.16 0 0 0 6.151-6.151c0-3.393-2.759-6.158-6.151-6.158m0 9.745a3.6 3.6 0 0 1-3.593-3.594 3.6 3.6 0 0 1 3.593-3.593 3.6 3.6 0 0 1 3.593 3.593 3.6 3.6 0 0 1-3.593 3.594M64.561 91.019l2.716 21.274c.031.225.116.426.244.596.262.341.694.542 1.151.488a1.25 1.25 0 0 0 1.084-1.401l-2.722-21.274a1.25 1.25 0 0 0-1.395-1.084 1.255 1.255 0 0 0-1.084 1.401zM47.082 122.226c.548-.42.652-1.206.238-1.754l-12.991-17.059a1.252 1.252 0 0 0-1.992 1.516l12.991 17.066c.42.548 1.206.657 1.754.237zM32.136 139.047l-19.781-8.283a1.254 1.254 0 0 0-1.639.67c-.182.427-.103.896.159 1.243.128.17.304.31.511.396l19.782 8.283c.64.267 1.37-.037 1.638-.67a1.25 1.25 0 0 0-.67-1.639"/>
  <path fill="#000" d="M200.37 212.807h-82.336c-13.265 0-24.05-10.792-24.05-24.05s10.791-24.051 24.05-24.051h1.748c10.579 0 19.179-8.606 19.179-19.178s-8.606-19.179-19.179-19.179h-16.45v-4.872h16.45c13.265 0 24.051 10.792 24.051 24.051s-10.792 24.05-24.051 24.05h-1.748c-10.579 0-19.178 8.606-19.178 19.179s8.605 19.178 19.178 19.178h82.336z"/>
  <path fill="#2563EB" d="M105.135 30c-20.476 0-37.127 16.657-37.127 37.127 0 8.136 2.814 16.023 8.362 23.46 2.625 3.52 8.922 11.87 23.99 31.688.536.706.852 1.126.889 1.169 0 0 .006.012.012.018l2.046 2.68a2.31 2.31 0 0 0 1.846.914c.725 0 1.407-.341 1.839-.914l2.04-2.686s.159-.201.396-.517c5.542-7.285 19.02-25.02 24.496-32.352 5.542-7.43 8.356-15.324 8.356-23.46 0-20.47-16.657-37.127-37.133-37.127zm0 55.002c-9.873 0-17.876-8.003-17.876-17.875s8.003-17.875 17.876-17.875c9.872 0 17.875 8.002 17.875 17.875s-8.003 17.875-17.875 17.875M203.597 66.262c-31.097 0-56.396 25.299-56.396 56.396 0 12.351 4.269 24.337 12.698 35.635 3.989 5.347 13.551 18.033 36.433 48.131a117 117 0 0 0 1.37 1.797l3.106 4.068a3.53 3.53 0 0 0 2.801 1.389 3.52 3.52 0 0 0 2.796-1.389l3.1-4.08c.024-.031.237-.305.597-.786 8.423-11.066 28.892-38.003 37.206-49.137C255.731 147.001 260 135.015 260 122.658c0-31.097-25.299-56.396-56.403-56.396"/>
  <path fill="#fff" d="M203.598 149.809c-14.995 0-27.151-12.15-27.151-27.151s12.156-27.15 27.151-27.15 27.15 12.156 27.15 27.15c0 14.995-12.15 27.151-27.15 27.151"/>
  <path fill="#000" d="M185.637 156.21a1.3 1.3 0 0 1-.621-.164c-12.102-6.749-19.617-19.544-19.617-33.388 0-21.066 17.138-38.204 38.199-38.204s38.204 17.138 38.204 38.204c0 4.818-.889 9.52-2.631 13.965a1.28 1.28 0 0 1-1.656.725 1.285 1.285 0 0 1-.725-1.662 35.4 35.4 0 0 0 2.454-13.034c0-19.653-15.987-35.64-35.64-35.64-19.654 0-35.641 15.987-35.641 35.64 0 12.918 7.016 24.855 18.301 31.152.616.341.841 1.121.494 1.742-.232.42-.67.658-1.121.658z"/>
  <path fill="#fff" d="M62.088 139.358c1.632-2.254 1.522-5.609-.621-7.443-2.376-2.028-5.92-.938-7.656 1.45-6.328 8.971-10.7 18.612-13.271 29.288 3.331.713 6.663 1.444 9.988 2.187 2.272-9.306 6.06-17.638 11.566-25.482z"/>
  <path fill="#000" d="M39.09 163.561a1.7 1.7 0 0 1-.213-1.31c2.631-10.914 7.059-20.683 13.533-29.873 0-.006.012-.012.018-.024 1.047-1.432 2.625-2.516 4.324-2.966 1.912-.512 3.807-.207 5.33.852a5 5 0 0 1 .486.378c2.71 2.308 3.113 6.669.908 9.726-5.384 7.674-9.08 15.817-11.298 24.898a1.71 1.71 0 0 1-2.028 1.26c-3.21-.712-6.565-1.449-9.97-2.18a1.7 1.7 0 0 1-1.084-.761zm21.603-25.184.018-.018c1.175-1.626 1.017-3.977-.347-5.14a2 2 0 0 0-.226-.171c-1.57-1.096-3.824-.207-4.945 1.315-5.883 8.344-10.006 17.194-12.57 26.999 2.259.487 4.488.974 6.656 1.456 2.357-8.856 6.103-16.865 11.414-24.441"/>
  <path fill="#fff" d="M87.564 168.86c-1.236-2.302-4.141-3.222-6.565-2.174 3.222-1.827 4.811-4.489 3.581-7.418-1.151-2.747-4.476-3.441-6.943-2.339 2.168-1.413 3.289-4.3 1.949-6.59-1.498-2.57-5.11-2.99-7.631-1.602 7.619-4.939 11.79-6.857 18.167-9.251 2.71-.944 4.47-3.185 3.855-5.95-.84-3.77-4.239-4.391-6.967-3.49-24.118 9.507-42.894 22.748-63.108 43.503a773 773 0 0 1 28.515 27.462c10.378-10.64 20.232-18.247 33.174-25.555 2.327-1.316 3.21-4.276 1.967-6.596z"/>
  <path fill="#000" d="M51.21 202.204a779 779 0 0 0-28.447-27.4 1.7 1.7 0 0 1-.067-2.448c20.81-21.377 39.867-34.508 63.705-43.899.024-.013.055-.019.085-.031 1.578-.524 3.234-.597 4.665-.207 2.333.639 3.935 2.394 4.501 4.939.767 3.441-1.218 6.627-4.94 7.924-4.616 1.736-8.044 3.203-12.533 5.81 1.23.554 2.235 1.443 2.887 2.576.968 1.663 1.047 3.624.371 5.384.17.031.341.073.506.116 1.96.536 3.46 1.821 4.214 3.63.932 2.229.676 4.446-.651 6.376a6.6 6.6 0 0 1 3.569 3.076c1.68 3.13.499 7.119-2.632 8.886-12.728 7.192-22.534 14.744-32.79 25.262a1.74 1.74 0 0 1-1.218.518 1.695 1.695 0 0 1-1.218-.512zm30.465-33.953c-.835.359-1.797 0-2.205-.81a1.7 1.7 0 0 1 .688-2.241c3.38-1.913 3.417-3.923 2.844-5.275-.438-1.047-1.309-1.48-1.967-1.656a4.05 4.05 0 0 0-2.704.213 1.7 1.7 0 0 1-2.192-.743 1.71 1.71 0 0 1 .566-2.247c1.364-.89 2.29-2.79 1.407-4.3-.5-.853-1.31-1.224-1.9-1.383-1.103-.298-2.412-.14-3.43.42a1.703 1.703 0 0 1-2.283-.621 1.7 1.7 0 0 1 .536-2.308c7.771-5.037 11.986-6.973 18.496-9.416.012 0 .03-.012.043-.012 1.632-.566 3.21-1.906 2.753-3.971-.293-1.309-.969-2.089-2.065-2.387-.78-.213-1.723-.165-2.655.14-22.87 9.02-41.268 21.578-61.233 41.834a786 786 0 0 1 26.061 25.099c10.055-10.122 19.818-17.54 32.34-24.611 1.528-.865 2.107-2.796 1.297-4.3-.414-.774-1.139-1.334-2.034-1.577a3.58 3.58 0 0 0-2.351.164z"/>
  <path fill="#2563EB" d="M42.916 217.948 2.263 204.987s.073-.231.219-.663q.108-.33.262-.804.166-.45.377-1.036.219-.577.482-1.273c.182-.45.383-.925.596-1.437l.335-.786c.116-.268.238-.529.366-.803.25-.543.517-1.133.804-1.712 1.139-2.339 2.552-4.866 4.135-7.394a100 100 0 0 1 5.146-7.424c3.618-4.762 7.437-9.007 10.44-12.083a125 125 0 0 1 3.733-3.697c.48-.456.864-.81 1.12-1.053.274-.25.42-.39.42-.39l28.74 31.536-.218.201c-.159.146-.384.365-.676.633a88 88 0 0 0-2.528 2.503c-2.089 2.138-4.775 5.146-7.034 8.131a57 57 0 0 0-2.99 4.306c-.841 1.333-1.499 2.527-1.95 3.465-.115.238-.207.451-.304.658-.049.103-.104.207-.14.298l-.11.268c-.073.171-.14.335-.2.481-.055.134-.098.262-.14.372q-.063.162-.117.298-.034.12-.06.195c-.03.104-.055.165-.055.165z"/>
  <path fill="#2563EB" d="M1.562 207.15a2.28 2.28 0 0 0 2.863-1.456l.469-1.425.834-2.235c.152-.372.317-.761.487-1.176l.42-.986c.068-.153.14-.317.22-.481l.329-.707c.182-.396.371-.804.566-1.2 1.103-2.277 2.491-4.762 4.02-7.198a97 97 0 0 1 5.03-7.254c3.831-5.049 7.692-9.245 10.257-11.876a146 146 0 0 1 3.52-3.496l25.689 28.186c-.512.499-1.151 1.133-1.876 1.876-1.2 1.224-4.306 4.501-7.217 8.338a62 62 0 0 0-3.106 4.47c-.828 1.328-1.54 2.594-2.059 3.672-.079.159-.146.305-.213.457-.03.073-.067.146-.103.213-.006.019-.013.031-.019.049l-.042.085c-.043.098-.092.189-.128.28 0 .006 0 .019-.012.025l-.299.712a.7.7 0 0 0-.042.116l-.232.621q-.035.081-.06.171l-.098.316a2.28 2.28 0 0 0 1.468 2.863 2.277 2.277 0 0 0 2.862-1.462l.055-.164.018-.049.03-.11.086-.213.018-.048.116-.317.177-.42s.012-.025.012-.037l.103-.244.03-.066c.025-.049.043-.092.068-.141.048-.103.097-.201.14-.304a4 4 0 0 1 .158-.329c.317-.652.89-1.742 1.833-3.252a58 58 0 0 1 2.869-4.129c1.912-2.528 4.476-5.488 6.852-7.918a87 87 0 0 1 2.466-2.442l.871-.81a2.27 2.27 0 0 0 .14-3.204l-28.74-31.535a2.27 2.27 0 0 0-1.578-.737 2.28 2.28 0 0 0-1.638.597l-.42.389-.018.019-1.127 1.053c-.853.816-2.199 2.114-3.807 3.77-2.649 2.722-6.65 7.065-10.615 12.296a102 102 0 0 0-5.262 7.589c-1.614 2.576-3.082 5.207-4.251 7.613-.213.432-.42.877-.615 1.297l-.323.707c-.092.201-.183.396-.274.597l-.433 1.017c-.188.444-.365.864-.523 1.26 0 .013-.013.031-.019.049l-.865 2.327s-.018.048-.024.073l-.487 1.48a2.267 2.267 0 0 0 1.462 2.862z"/>
  <path fill="#000" d="M16.606 196.65a1.02 1.02 0 0 1-.676-.865 1.01 1.01 0 0 1 .92-1.096c5.554-.494 12.24.664 19.872 3.441 5.652 2.058 9.629 4.22 9.8 4.312.487.268.663.877.401 1.37-.267.487-.883.67-1.37.402-.158-.085-15.95-8.63-28.527-7.515a.9.9 0 0 1-.42-.055zM47.813 200.858a1.06 1.06 0 0 1-.463-.329c-.103-.128-10.164-12.862-22.668-16.322a1.013 1.013 0 0 1-.706-1.242 1.017 1.017 0 0 1 1.242-.707c13.161 3.648 23.296 16.487 23.722 17.029a1.015 1.015 0 0 1-.177 1.419c-.28.219-.64.268-.956.158z"/>
</svg>
