<svg xmlns="http://www.w3.org/2000/svg" width="102" height="124" fill="none" viewBox="0 0 102 124">
  <path fill="#000" d="M38.414 35.238H21.39a1.256 1.256 0 1 1 0-2.508h17.024a1.258 1.258 0 1 1 0 2.508M38.414 42.55H21.39a1.256 1.256 0 1 1 0-2.508h17.024a1.26 1.26 0 0 1 1.342 1.254 1.256 1.256 0 0 1-1.342 1.254M38.414 49.868H21.39a1.256 1.256 0 1 1 0-2.508h17.024a1.26 1.26 0 0 1 1.342 1.254 1.256 1.256 0 0 1-1.342 1.254"/>
  <path fill="#000" d="M93.44 75.17H18.03a7.787 7.787 0 0 1-7.775-7.775V16.551a7.787 7.787 0 0 1 7.776-7.775h75.41a7.78 7.78 0 0 1 7.774 7.775v50.844a7.78 7.78 0 0 1-7.775 7.776M18.03 11.112a5.427 5.427 0 0 0-5.42 5.422v50.844a5.43 5.43 0 0 0 5.42 5.422h75.41a5.43 5.43 0 0 0 5.427-5.422V16.534a5.433 5.433 0 0 0-5.427-5.422z"/>
  <path fill="#000" d="M95.103 22.824H16.02a.469.469 0 0 0 0 .937h79.083a.469.469 0 1 0 0-.937M25.806 17.271a3.085 3.085 0 1 1-6.17 0 3.085 3.085 0 0 1 6.17 0M33.993 17.271a3.085 3.085 0 1 1-1.9-2.85 3.08 3.08 0 0 1 1.9 2.85M42.19 17.271a3.086 3.086 0 1 1-6.17 0 3.086 3.086 0 0 1 6.17 0M62.225 94.926h-5.141a.708.708 0 1 0 0 1.41h5.141a.709.709 0 1 0 0-1.41M69.395 94.926h-2.776a.707.707 0 0 0-.542 1.228.7.7 0 0 0 .541.183h2.777a.708.708 0 0 0 0-1.411M74.48 94.925h-1.257a.71.71 0 0 0 0 1.411h1.24a.708.708 0 0 0 0-1.41zM78.399 94.926h-.651a.71.71 0 0 0 0 1.41h.65a.709.709 0 1 0 0-1.41M81.792 94.926h-.32a.707.707 0 1 0 0 1.41h.32a.709.709 0 1 0 0-1.41"/>
  <path fill="#EC4899" d="M88.246 39.975a19.361 19.361 0 1 1-35.77 14.83 19.361 19.361 0 0 1 35.77-14.83"/>
  <path fill="#fff" d="m67.441 59.539-8.564-8.657 3.903-3.945 4.661 4.726 13.626-13.786 3.902 3.945zM44.801 61.26a2.891 2.891 0 1 0-5.775.09l.234 15.591 5.776-.085z"/>
  <path fill="#000" d="M39.169 77.827a.88.88 0 0 1-.789-.863l-.24-15.596a3.77 3.77 0 0 1 7.541-.114l.24 15.596a.885.885 0 0 1-1.765 0l-.24-15.59a2 2 0 0 0-2.034-1.977 2.007 2.007 0 0 0-1.976 2.034l.24 15.596a.89.89 0 0 1-.869.897z"/>
  <path fill="#fff" d="M65.082 79.86a2.685 2.685 0 0 0-3.468-.959 2.65 2.65 0 0 0 .388-3.536 2.685 2.685 0 0 0-3.467-.96 2.64 2.64 0 0 0 .394-3.53 2.673 2.673 0 0 0-3.645-.863l10.9-7.427a2.71 2.71 0 1 0-3.05-4.479L33.334 78.45l11.678 18.43 19.503-13.357a2.616 2.616 0 0 0 .566-3.662"/>
  <path fill="#000" d="M45.012 97.822h-.188a.93.93 0 0 1-.606-.417L32.541 78.97a.937.937 0 0 1 .263-1.28l29.798-20.343a3.43 3.43 0 0 1 1.937-.572 3.69 3.69 0 0 1 3.09 1.554 3.776 3.776 0 0 1-.914 5.045l-8.403 5.712c.56.296 1.04.726 1.394 1.252a3.71 3.71 0 0 1 .57 2.856 3.8 3.8 0 0 1 2.492 1.622 3.75 3.75 0 0 1 .571 2.857 3.8 3.8 0 0 1 2.485 1.617c.54.78.762 1.735.623 2.673a3.36 3.36 0 0 1-1.434 2.285L45.509 97.605a.93.93 0 0 1-.497.217M34.615 78.724l10.671 16.813 18.698-12.803a1.5 1.5 0 0 0 .635-1.028 1.86 1.86 0 0 0-.314-1.325 1.89 1.89 0 0 0-1.532-.852 1.46 1.46 0 0 0-.702.178.943.943 0 0 1-1.057-1.549 1.713 1.713 0 0 0 .211-2.285 1.9 1.9 0 0 0-1.531-.845 1.4 1.4 0 0 0-.703.177.942.942 0 0 1-1.056-1.548 1.713 1.713 0 0 0 .21-2.285 1.9 1.9 0 0 0-1.53-.846 1.4 1.4 0 0 0-.8.24.942.942 0 1 1-1.062-1.56l10.9-7.426a1.76 1.76 0 0 0 .651-1.143 1.72 1.72 0 0 0-.228-1.308 1.87 1.87 0 0 0-1.537-.737 1.6 1.6 0 0 0-.88.234z"/>
  <path fill="#2563EB" d="m35.484 76.484-.126.086-.349.234-.571.372-.72.502-.88.623-1.01.737c-.732.526-1.514 1.143-2.383 1.782a155 155 0 0 0-11.997 10.284 146 146 0 0 0-5.941 5.964c-.937.965-1.794 1.948-2.623 2.856l-1.205 1.337-1.085 1.291-1.903 2.285c-.57.686-1.022 1.297-1.416 1.794l-1.229 1.565 18.716 14.282 1.017-1.291c.325-.411.714-.914 1.17-1.485.458-.571 1-1.194 1.583-1.88l.903-1.079c.331-.36.668-.737 1.01-1.143.698-.765 1.406-1.594 2.206-2.405a129.936 129.936 0 0 1 15.116-13.7c.714-.536 1.366-1.045 1.948-1.462l.811-.571.686-.48.543-.383.4-.268.234-.16.08-.052z"/>
  <path fill="#2563EB" d="M20.19 123.53a1.262 1.262 0 0 1-.625-.939 1.25 1.25 0 0 1 .26-.924l1.01-1.296.384-.486.794-1.011 1.582-1.88.32-.383.571-.702 1.011-1.143q.303-.326.6-.668a128.097 128.097 0 0 1 6.69-6.85 132 132 0 0 1 10.197-8.746l.635-.474c.474-.366.925-.703 1.342-1.006l.812-.571.68-.486.25-.171L35.062 78.26l-.674.469-.874.617-1.006.73c-.537.39-1.114.83-1.714 1.292l-.645.486a151 151 0 0 0-11.86 10.168 134 134 0 0 0-5.896 5.919 64 64 0 0 0-1.93 2.097l-.658.731-1.194 1.325-.714.846-.36.428-1.885 2.245c-.365.452-.697.874-.988 1.246l-.412.531-1.228 1.56a1.256 1.256 0 0 1-1.76.211 1.25 1.25 0 0 1-.21-1.76l1.222-1.565.411-.52c.303-.383.64-.817 1.017-1.285l1.902-2.285.354-.429.743-.874 1.2-1.342c.223-.24.434-.48.657-.726.634-.708 1.285-1.44 2-2.17a152 152 0 0 1 5.98-6.01 156 156 0 0 1 12.078-10.347l.64-.485c.622-.474 1.21-.92 1.77-1.32l1-.731.88-.623.743-.52 1.034-.697a1.257 1.257 0 0 1 1.714.349l13.025 19.623a1.25 1.25 0 0 1 .188.943c-.068.325-.26.61-.537.794l-.08.052-.205.142-.4.274-.526.366-.68.48-.8.571c-.394.28-.828.612-1.29.96l-.635.48a128 128 0 0 0-9.986 8.569c-1.714 1.6-3.359 3.279-4.97 4.988a61 61 0 0 0-1.56 1.713l-.605.68-1 1.109c-.194.222-.377.445-.57.662l-.332.389-1.571 1.868-.766.977-.388.491-1.012 1.291a1.256 1.256 0 0 1-1.508.286"/>
  <path fill="#000" d="m12.575 113.766-.046-.034a.57.57 0 0 1-.131-.777 68 68 0 0 1 5.907-6.855A154 154 0 0 1 37.57 89.327a.57.57 0 0 1 .782.114.57.57 0 0 1-.12.783 153 153 0 0 0-19.12 16.647 68 68 0 0 0-5.805 6.724.575.575 0 0 1-.731.171"/>
  <path fill="#000" d="M12.484 101.929a.57.57 0 0 1-.28-.537.573.573 0 0 1 .605-.503c3.068.275 6.582 1.56 10.455 3.817a43 43 0 0 1 4.902 3.307.573.573 0 0 1-.325.918.57.57 0 0 1-.378-.049c-.08-.063-7.815-6.256-14.756-6.856a.6.6 0 0 1-.223-.097M29.023 107.282a.53.53 0 0 1-.218-.228c-.045-.08-4.261-7.998-10.711-11.089a.57.57 0 0 1-.257-.748.57.57 0 0 1 .742-.257c6.787 3.273 11.032 11.237 11.21 11.58a.57.57 0 0 1-.129.634.57.57 0 0 1-.637.108"/>
  <path fill="#2563EB" d="M11.02 80.198a3.398 3.398 0 1 0 3.394 3.399 3.43 3.43 0 0 0-3.393-3.4m0 5.381a1.988 1.988 0 1 1-.01-3.976 1.988 1.988 0 0 1 .01 3.976"/>
  <path fill="#000" d="M69.406 3.149s1.086 1.542 2.737 1.622a3.34 3.34 0 0 0 2.736-1.434c1.017-1.24 1.663-1.48 2.023-1.462.53 0 1.01.674 1.416 1.274 0 0 1.086 1.542 2.737 1.622a3.34 3.34 0 0 0 2.736-1.434c.612-.742 1.223-1.114 1.823-1.102a2.46 2.46 0 0 1 1.633.942.71.71 0 1 0 1.143-.845A3.88 3.88 0 0 0 85.665.824c-1.057 0-2.05.514-2.954 1.616a2.06 2.06 0 0 1-1.553.92 2.55 2.55 0 0 1-1.663-1.005c-.463-.692-1.24-1.828-2.52-1.891-1.005-.046-2.044.6-3.175 1.976a2.05 2.05 0 0 1-1.554.92 2.57 2.57 0 0 1-1.663-1.005c-.462-.692-1.24-1.828-2.513-1.891-1.012-.046-2.051.6-3.182 1.976a2.05 2.05 0 0 1-1.554.92 2.57 2.57 0 0 1-1.663-1.005c-.463-.692-1.24-1.828-2.514-1.891-1.01-.046-2.05.6-3.181 1.976a.703.703 0 0 0 .734 1.126.7.7 0 0 0 .357-.229c1.017-1.24 1.662-1.48 2.022-1.462.531 0 1.011.674 1.417 1.274 0 0 1.085 1.542 2.736 1.622a3.34 3.34 0 0 0 2.737-1.434c1.017-1.24 1.662-1.48 2.022-1.462.52.028 1 .674 1.405 1.274"/>
</svg>
