<svg xmlns="http://www.w3.org/2000/svg" width="192" height="192" fill="none" viewBox="0 0 192 192">
  <path fill="#fff" d="M0 0h192v192H0z"/>
  <path fill="#000" d="M55.8 100.851H30.295a1.884 1.884 0 0 1 0-3.762H55.8a1.883 1.883 0 0 1 0 3.762M55.8 111.818H30.295a1.884 1.884 0 0 1 0-3.761H55.8a1.883 1.883 0 0 1 0 3.761M55.8 122.771H30.294a1.88 1.88 0 0 1 0-3.756H55.8a1.88 1.88 0 0 1 1.328 3.206 1.88 1.88 0 0 1-1.328.55M139.145 76.407H20.671a.705.705 0 0 0 0 1.41h118.474a.706.706 0 1 0 0-1.41M31.886 66.165a4.623 4.623 0 1 1-9.246 0 4.623 4.623 0 0 1 9.246 0M44.163 66.165a4.622 4.622 0 1 1-9.245 0 4.622 4.622 0 0 1 9.245 0M56.435 66.165a4.622 4.622 0 1 1-9.245 0 4.622 4.622 0 0 1 9.245 0"/>
  <path fill="#000" d="M10.212 139.847V62.625a11.82 11.82 0 0 1 11.804-11.809h114.46a11.82 11.82 0 0 1 11.804 11.81v77.221a11.816 11.816 0 0 1-11.804 11.804H22.016a11.815 11.815 0 0 1-11.804-11.804m11.804-85.455a8.25 8.25 0 0 0-8.234 8.233v77.222a8.24 8.24 0 0 0 8.234 8.233h114.46a8.24 8.24 0 0 0 8.234-8.233V62.625a8.25 8.25 0 0 0-8.234-8.233zM34.65 157.623v6.677a11.82 11.82 0 0 0 11.804 11.809h133.742A11.82 11.82 0 0 0 192 164.3v-6.677z"/>
  <path fill="#fff" d="M142.535 167.945h-26.392a2.13 2.13 0 0 1-2.032-2.132 2.137 2.137 0 0 1 2.032-2.133h26.387a2.134 2.134 0 0 1 2.238 2.133 2.134 2.134 0 0 1-2.238 2.132z"/>
  <path fill="#000" d="M144.71 133.2v6.647a8.24 8.24 0 0 1-8.234 8.234H22.016a8.243 8.243 0 0 1-8.234-8.234V133.2h-3.57v6.647a11.814 11.814 0 0 0 11.804 11.804h114.46a11.816 11.816 0 0 0 11.804-11.804V133.2zM2.115 117.972v-7.654a1.06 1.06 0 0 0-1.058-1.057A1.06 1.06 0 0 0 0 110.318v7.654a1.057 1.057 0 1 0 2.115 0M2.115 103.736v-4.154a1.058 1.058 0 0 0-2.115 0v4.154a1.057 1.057 0 1 0 2.115 0M2.115 93.8v-1.853a1.057 1.057 0 0 0-2.115 0V93.8a1.057 1.057 0 0 0 2.115 0M2.115 87.063v-.972a1.058 1.058 0 0 0-2.115 0v.972a1.057 1.057 0 0 0 2.115 0M2.115 81.478v-.503a1.057 1.057 0 1 0-2.115 0v.503a1.057 1.057 0 0 0 2.115 0"/>
  <path fill="#2563EB" d="M108.126 134.192h-5.398v-5.398a1.06 1.06 0 0 0-1.058-1.058 1.06 1.06 0 0 0-.977.653 1.1 1.1 0 0 0-.08.405v5.398h-5.399a1.055 1.055 0 0 0-1.057 1.058 1.056 1.056 0 0 0 1.057 1.057h5.399v5.398a1.057 1.057 0 1 0 2.115 0v-5.398h5.398a1.057 1.057 0 0 0 0-2.115"/>
  <path fill="#000" d="M60.499 33.67a1.06 1.06 0 0 0 .453 1.425l16.114 8.344a1.05 1.05 0 0 0 1.496-.625 1.06 1.06 0 0 0-.504-1.254l-16.114-8.344a1.053 1.053 0 0 0-1.445.454M109.682 2.217a1.053 1.053 0 0 0-1.007 1.103l.821 18.128a1.058 1.058 0 0 0 2.115-.095l-.826-18.129a1.05 1.05 0 0 0-.695-.946 1.1 1.1 0 0 0-.408-.06M80.893 11.351a1.053 1.053 0 0 0-.322 1.46L90.34 28.09a1.05 1.05 0 0 0 1.46.322c.207-.134.358-.34.423-.579a1.05 1.05 0 0 0-.116-.886l-9.769-15.278a1.057 1.057 0 0 0-1.445-.318"/>
  <path fill="#2563EB" d="M171.248 57.69a49.454 49.454 0 0 1-36.031 67.428 49.45 49.45 0 0 1-28.582-94.183 49.45 49.45 0 0 1 64.613 26.755"/>
  <path fill="#2563EB" d="M106.278 117.382 72.886 134.67l17.287-33.392z"/>
  <path fill="#fff" d="M101.977 56.562a18.594 18.594 0 0 1 23.588 4.532 18.59 18.59 0 0 1 23.587-4.532c8.948 5.036 10.982 15.817 7.085 25.314-5.036 12.297-16.089 20.445-30.672 30.955-14.604-10.51-25.627-18.633-30.673-30.955-3.897-9.497-1.863-20.304 7.085-25.314"/>
  <path fill="#000" d="m125.564 115.007-1.007-.746c-13.908-10.021-25.923-18.682-31.271-31.724-4.532-11.079-1.304-22.369 7.85-27.52a20.35 20.35 0 0 1 24.454 3.419 20.35 20.35 0 0 1 24.428-3.41c9.155 5.152 12.387 16.467 7.85 27.52-5.348 13.033-17.363 21.694-31.271 31.725zm-14.487-59.074a16.8 16.8 0 0 0-8.233 2.165 15.37 15.37 0 0 0-7.519 9.88c-1.037 4.115-.614 8.818 1.199 13.23 2.23 5.443 5.831 10.378 11.335 15.534 4.749 4.447 10.374 8.626 17.705 13.919 7.332-5.293 12.957-9.472 17.711-13.919 5.499-5.156 9.125-10.091 11.335-15.53 1.808-4.411 2.231-9.115 1.194-13.229a15.38 15.38 0 0 0-7.519-9.88 16.81 16.81 0 0 0-21.346 4.1l-1.375 1.706-1.364-1.712a16.75 16.75 0 0 0-13.123-6.264"/>
  <path fill="#2563EB" d="m181.894 187.489-6.925-4.854a1.06 1.06 0 0 0-1.213 0l-6.315 4.431-6.32-4.431a1.06 1.06 0 0 0-1.213 0l-6.315 4.431-6.315-4.431a1.06 1.06 0 0 0-1.213 0l-6.32 4.431-6.315-4.431a1.06 1.06 0 0 0-1.213 0l-6.315 4.431-6.32-4.431a1.06 1.06 0 0 0-1.214 0l-6.924 4.854a1.07 1.07 0 0 0-.397 1.186 1.066 1.066 0 0 0 1.007.743c.218-.001.431-.07.609-.197l6.315-4.426 6.315 4.426a1.05 1.05 0 0 0 1.213 0l6.32-4.426 6.315 4.426a1.05 1.05 0 0 0 1.213 0l6.315-4.426 6.315 4.426a1.05 1.05 0 0 0 1.213 0l6.32-4.426 6.315 4.426a1.05 1.05 0 0 0 1.213 0l6.315-4.426 6.32 4.426a1.06 1.06 0 0 0 1.473-.259 1.055 1.055 0 0 0-.259-1.473M161.862 121.235a1.055 1.055 0 0 1-.68-1.868 55.644 55.644 0 0 0-29.847-98.08 1.055 1.055 0 0 1-.944-1.16 1.06 1.06 0 0 1 1.161-.945 57.77 57.77 0 0 1 30.984 101.812c-.19.156-.428.241-.674.241M42.783 139.539c0 .025 1.626 2.307 4.099 2.422 1.51.071 2.865-.649 4.094-2.14 1.51-1.858 2.518-2.215 3.021-2.19.796.035 1.511 1.007 2.125 1.908 0 0 1.627 2.307 4.1 2.422 1.51.071 2.87-.649 4.093-2.14.922-1.118 1.838-1.672 2.735-1.656 1.374.03 2.432 1.389 2.452 1.415.168.225.418.374.696.414a1.054 1.054 0 0 0 1.2-.893c.04-.278-.031-.56-.199-.785-.07-.091-1.667-2.206-4.089-2.266-1.581-.036-3.072.78-4.426 2.427-.77.936-1.551 1.395-2.327 1.374-1.148-.03-2.205-1.117-2.517-1.51-.695-1.007-1.854-2.74-3.767-2.83-1.51-.071-3.067.901-4.764 2.961-.77.936-1.55 1.395-2.326 1.374-1.154-.03-2.206-1.117-2.518-1.51-.695-1.007-1.853-2.74-3.767-2.83-1.51-.071-3.067.901-4.764 2.961-.77.936-1.55 1.395-2.326 1.374-1.153-.03-2.206-1.118-2.518-1.51-.695-1.007-1.853-2.74-3.767-2.83-1.51-.071-3.066.901-4.763 2.961-.16.186-.246.424-.242.669a1.056 1.056 0 0 0 1.337 1.022 1.06 1.06 0 0 0 .536-.347c1.51-1.858 2.518-2.216 3.021-2.19.796.035 1.511 1.007 2.126 1.908 0 0 1.621 2.306 4.099 2.422 1.51.071 2.865-.649 4.094-2.14 1.51-1.858 2.517-2.216 3.021-2.19.901.05 1.617 1.002 2.23 1.923"/>
</svg>
