<svg xmlns="http://www.w3.org/2000/svg" width="144" height="192" fill="none" viewBox="0 0 144 192">
  <g fill="#000">
    <path d="M141.59 132c-.303-1.066-.544-2.292-1.519-2.8a3.235 3.235 0 0 0-1.405-.473 2.4 2.4 0 0 0-.646.032 1.3 1.3 0 0 0-.492.153 1 1 0 0 0-.362.336c-.431 1.043.113 2.41 1.244 2.746a.9.9 0 0 0 .331.018c.108-.013.213-.045.319-.086.248-.098.5-.208.752-.29q.19-.06.376-.096c.439-.038.781.049 1.066.277q.16.087.336.178z"/>
    <path d="M142.398 131.874c-.284-1.007-.506-2.131-1.281-2.895-.844-.832-2.163-1.235-3.328-1.009-.616.119-1.222.498-1.434 1.116-.16.468-.198.992-.101 1.479.195.98.881 1.906 1.868 2.199.694.206 1.269-.115 1.91-.336.162-.056.383-.098.552-.049.212.062.462.255.718.388.391.205.911-.1 1.053-.477.172-.455-.085-.847-.476-1.053-.246-.13-.374-.259-.672-.374a2.3 2.3 0 0 0-.819-.139c-.587.003-1.118.246-1.655.457a.15.15 0 0 1-.118.026q.11.004-.038-.008c.146.033-.242-.126-.09-.042-.075-.041-.144-.097-.213-.148q-.115-.1-.031-.023a2 2 0 0 1-.113-.129c-.171-.213-.297-.579-.295-.811q0-.151.028-.3c-.023.124.096-.179.021-.095-.047.052.094-.044.064-.035.1-.039.192-.052.305-.065.444-.051.889.07 1.283.28.404.216.614.474.796.888.198.454.314.934.449 1.409.119.424.462.755.935.68.397-.062.802-.508.68-.935z"/>
    <path d="M123.53 139.144c3.691 1.982 7.302 4.742 11.67 5.01 2.009.123 4.147-.16 5.738-1.486 1.422-1.184 2.322-2.962 2.5-4.799.246-2.529-.799-4.977-1.419-7.376-.109-.428-.47-.754-.935-.68-.405.064-.792.505-.68.936.531 2.056 1.375 4.179 1.437 6.273a5.6 5.6 0 0 1-.398 2.215 4.7 4.7 0 0 1-.487.964 6.5 6.5 0 0 1-.546.721q-.041.048-.086.095c-.105.113.139-.128-.058.057-.613.58-1.122.927-1.925 1.185a4 4 0 0 1-.442.104c-.241.045-.484.069-.726.102a9 9 0 0 1-1.486.079c-1.991-.061-3.868-.726-5.64-1.596-2.03-.998-3.94-2.258-5.942-3.333-.39-.209-.913.104-1.054.477-.173.459.087.844.477 1.054z"/>
    <path d="M123.763 138.266q.324.008.642-.004c1.791-.109 3.729-1.012 5.523-.873.257.02.509.062.763.134.774.2 1.352.61 1.803 1.139q.224.267.419.575.234.32.405.687c.513 1.251.989 2.849 2.443 3.358-1.223-.136-2.363-.53-3.431-1.092q-.291-.15-.574-.305c-.378-.207-.753-.413-1.133-.606q-.366-.195-.726-.384t-.721-.37l-.628-.334c-1.461-.779-2.949-1.506-4.54-1.86a5 5 0 0 1-.249-.067z"/>
    <path d="M123.681 139.08c.983.02 1.912-.131 2.864-.357.915-.218 1.838-.477 2.783-.528.816-.044 1.762.185 2.381.816.706.718.978 1.617 1.379 2.51.495 1.103 1.218 2.093 2.388 2.53q.183-.79.37-1.579c-2.161-.258-3.975-1.467-5.862-2.445-.954-.493-1.894-1.016-2.871-1.466a17 17 0 0 0-1.553-.633c-.497-.172-1.016-.283-1.507-.427-.425-.125-.89.041-1.054.476-.147.39.051.929.477 1.054.503.147 1.011.255 1.507.427.529.182 1.045.399 1.553.633 1.011.467 1.986 1.006 2.972 1.519.985.513 1.95 1.078 2.953 1.556 1.014.482 2.104.8 3.219.933.921.109 1.239-1.256.371-1.58-.821-.308-1.223-1.075-1.568-1.892-.189-.446-.336-.913-.572-1.336-.275-.49-.603-.978-1-1.378a4.57 4.57 0 0 0-3.095-1.346c-.978-.038-1.933.157-2.878.385-1.024.245-2.053.522-3.094.503-.44-.008-.848.267-.896.732-.041.413.289.886.733.896z"/>
  </g>
  <g fill="#000">
    <path d="M2.933 135.815c.434-1.021.824-2.207 1.856-2.589q.224-.103.462-.172c.318-.092.652-.134.991-.123q.326.014.638.113c.168.038.33.111.468.213a1 1 0 0 1 .318.379c.297 1.089-.411 2.377-1.575 2.57a.9.9 0 0 1-.33-.023 1.4 1.4 0 0 1-.307-.124c-.234-.128-.47-.269-.71-.38a3 3 0 0 0-.36-.143c-.43-.092-.781-.049-1.093.143q-.169.066-.355.136z"/>
    <path d="M2.146 135.589c.407-.965.767-2.052 1.63-2.714.941-.721 2.3-.957 3.426-.588.598.195 1.152.647 1.285 1.285.1.485.074 1.011-.082 1.481-.315.948-1.11 1.781-2.127 1.949-.714.118-1.245-.271-1.854-.57-.154-.075-.369-.144-.543-.116-.218.036-.491.195-.76.297-.414.155-.891-.213-.986-.605-.113-.473.19-.831.604-.986.26-.099.402-.21.713-.287.27-.067.556-.072.83-.036.582.075 1.079.382 1.585.66a.16.16 0 0 0 .115.041q-.11-.01.037-.003c-.147.015.256-.095.096-.031.08-.031.154-.079.229-.122l.033-.019q.066-.054.127-.115c.195-.19.366-.537.394-.768q.016-.15.01-.302c.006.126-.074-.19-.01-.096.04.059-.087-.056-.06-.041a1.2 1.2 0 0 0-.294-.104c-.434-.106-.891-.041-1.308.118-.429.164-.668.394-.9.784-.255.424-.43.888-.622 1.341-.172.407-.552.692-1.012.559-.385-.111-.731-.603-.559-1.012z"/>
    <path d="M19.966 145.147c-3.91 1.507-7.835 3.798-12.201 3.521-2.01-.128-4.095-.675-5.509-2.187-1.265-1.352-1.936-3.228-1.884-5.073.07-2.541 1.412-4.84 2.325-7.143.162-.41.559-.69 1.012-.559.394.113.723.6.56 1.012-.782 1.975-1.885 3.977-2.206 6.046a5.6 5.6 0 0 0 .12 2.248c.11.438.198.672.363 1.016a5.6 5.6 0 0 0 .45.781l.074.105c.09.126-.122-.144.05.064.535.652.997 1.059 1.763 1.414.093.043.25.103.426.159.232.074.471.13.707.19.482.126.969.216 1.465.262 1.983.187 3.927-.239 5.795-.883 2.14-.737 4.19-1.75 6.31-2.569.413-.159.893.216.986.605.115.477-.19.827-.605.986z"/>
    <path d="M19.844 144.246a10 10 0 0 1-.637-.083c-1.765-.331-3.575-1.469-5.37-1.552a4 4 0 0 0-.776.038 3.43 3.43 0 0 0-1.93.906 5 5 0 0 0-.486.517c-.184.19-.343.403-.489.631-.665 1.178-1.335 2.705-2.84 3.03 1.228.016 2.41-.233 3.54-.659q.306-.112.608-.231c.401-.157.8-.315 1.2-.46a86 86 0 0 1 1.528-.569q.333-.126.663-.254c1.547-.59 3.113-1.127 4.735-1.281q.134-.016.256-.036z"/>
    <path d="M19.825 145.064c-.977-.104-1.881-.367-2.797-.711-.882-.331-1.765-.702-2.695-.87-.805-.146-1.771-.035-2.465.514-.79.624-1.171 1.483-1.679 2.318-.627 1.034-1.468 1.926-2.682 2.214l-.17-1.614c2.175.015 4.125-.962 6.12-1.697 1.008-.372 2.006-.772 3.03-1.098.533-.169 1.072-.32 1.619-.434.514-.108 1.044-.156 1.55-.236.436-.071.876.152.986.604.097.405-.167.916-.604.987-.518.083-1.036.127-1.55.236-.548.114-1.087.265-1.62.434-1.06.337-2.095.75-3.138 1.139-1.042.386-2.068.827-3.123 1.176a10.4 10.4 0 0 1-3.311.524c-.928-.006-1.074-1.399-.17-1.614.853-.203 1.346-.914 1.79-1.682.243-.418.446-.864.734-1.254.333-.452.72-.896 1.163-1.243a4.57 4.57 0 0 1 3.238-.952c.975.083 1.899.396 2.808.739.986.37 1.973.773 3.008.883.44.046.81.37.798.837-.01.415-.396.844-.837.798z"/>
  </g>
  <path fill="#000" d="M49.734 188.939c-.278 2.061 3.285 2.38 4.657 2.636 4.862.904 9.807.174 14.662-.419.55-.105 1.1-.205 1.651-.29 5.071-.78 10.034.593 15.093.748 4.203.13 8.432.063 12.621-.481.667-.087 1.822-.176 2.245-.998.424-.828-.017-1.46-.634-1.74-2.99-1.355-6.24-1.357-9.36-1.499-6.356-.29-12.631 1.628-18.965 1.15-1.41-.107-2.804-.395-4.2-.667-.465-.09-.93-.179-1.397-.257-2.66-.452-5.379-.529-8.071-.372a54 54 0 0 0-4.11.385c-1.123.152-2.637.174-3.59.842-.36.251-.551.6-.6.963z" opacity=".05"/>
  <g fill="#000">
    <path d="M79.132 165.008c.24.629.485 1.262.693 1.912l-.018-.037c.036.077.088.191.115.29q.393 1.13.762 2.264a143 143 0 0 1 1.407 4.614c.881 3.067 1.671 6.144 2.446 9.221.44 1.743.873 3.486 1.316 5.228.146.573.658 1.102 1.102 1.05.441-.052.715-.531.56-1.144-1.582-6.222-3.052-12.466-5.034-18.645q-.435-1.356-.904-2.708-.47-1.35-.98-2.703c-.215-.571-.869-.926-1.226-.739-.42.218-.472.778-.237 1.397z"/>
    <path d="M86.854 188.929q.313.03.636.025.321-.004.647-.041c.745-.169 1.733-.375 2.534-.783q.302-.152.56-.346c.124-.092.26-.201.386-.323.126-.121.246-.255.337-.396.327-.421.097-.921-.263-1.231-.448-.312-.897-.535-1.42-.547q-.21-.008-.414.015c-1.23.138-2.312 1.07-2.734 2.315a5 5 0 0 0-.108.32c.01.239-.154.444-.146.683a3 3 0 0 0-.015.306z"/>
    <path d="M86.789 189.613c.585.05 1.184.039 1.758-.091a15 15 0 0 0 1.699-.468 5.3 5.3 0 0 0 1.592-.872c.444-.36.923-.868.957-1.471.066-1.186-1.239-1.973-2.279-2.092-1.068-.123-2.186.321-2.946 1.063a4.4 4.4 0 0 0-1.027 1.529q-.07.18-.131.363a1.6 1.6 0 0 0-.08.3q.002.054-.007.108.031-.125 0-.014c-.112.29-.15.586-.154.896-.003.359.226.729.618.749.345.018.745-.235.748-.618 0-.103.009-.203.015-.306.003-.037.034-.195-.008-.043q.015-.051.033-.103a2.4 2.4 0 0 0 .103-.379s.015-.169.006-.08l.012-.039.044-.128q.051-.148.11-.293l.05-.112c-.004.005.084-.172.038-.085-.045.087.05-.087.048-.082q.039-.066.079-.128.089-.138.19-.268.055-.07.113-.138c-.092.093-.017.02 0 0q.103-.106.213-.205.11-.097.227-.183l.095-.068q.101-.067-.008.004l.1-.059q.227-.129.472-.218c.028-.01.21-.056.044-.017q.056-.014.112-.027.169-.04.342-.059c-.018.001.207-.015.118-.012-.088.003.138.003.12.003q.148.006.295.03c.024.006.127.02 0 0q.083.024.165.052.054.02.108.043c.02.008.203.093.136.059-.088-.044.084.047.08.046q.053.03.104.064c.052.032.101.07.155.101.117.071.02.01-.005-.015.033.033.161.141.164.196l-.046-.071a1 1 0 0 1 .066.133l-.012-.038c-.008 0 .025.087.015.093l-.001-.083a.5.5 0 0 1-.01.095c.006-.133.005-.074 0-.03q.016-.031.036-.062a1 1 0 0 1-.062.092l-.074.105c-.007.008-.144.167-.051.067-.08.087-.169.165-.259.242q-.135.114-.278.217s-.197.126-.087.06q-.064.038-.128.074a6.624 6.624 0 0 1-1.081.449c-.128.041.157-.043-.061.018q-.101.03-.203.057-.391.105-.785.194c-.24.055-.474.095-.72.113-.229.016.061 0-.071.003a6.531 6.531 0 0 1-.67-.023c-.358-.031-.73.246-.75.618-.019.368.237.716.618.749z"/>
  </g>
  <g fill="#000">
    <path d="M61.768 163.933q.045.597.094 1.195l.049.565.023.251c-.015-.154.021.214.024.257q.116 1.19.26 2.374c.191 1.601.414 3.193.658 4.779.487 3.154 1.062 6.278 1.648 9.396.333 1.767.67 3.531 1 5.299.108.582-.136 1.278-.56 1.417-.422.138-.872-.182-.989-.804-1.174-6.311-2.46-12.596-3.254-19.037a115 115 0 0 1-.558-5.69c-.044-.601.398-1.18.8-1.154.471.03.756.51.805 1.154z"/>
    <path d="M64.796 188.857a6.2 6.2 0 0 1-1.172.522c-.748.159-1.73.387-2.628.352a3.977 3.977 0 0 1-1.139-.209 2.5 2.5 0 0 1-.473-.218c-.473-.246-.473-.795-.277-1.227.276-.471.589-.864 1.059-1.093a3 3 0 0 1 .381-.161c1.175-.391 2.548 0 3.454.956q.12.117.233.245c.09.221.326.339.418.561q.078.131.142.272z"/>
    <path d="M65.142 189.45c-.51.291-1.059.532-1.634.655s-1.153.231-1.74.287a5.3 5.3 0 0 1-1.81-.123c-.554-.143-1.201-.4-1.485-.934-.557-1.05.297-2.31 1.19-2.856.917-.558 2.118-.626 3.121-.272a4.4 4.4 0 0 1 1.575.957q.139.135.272.275c.07.076.144.153.198.24a.6.6 0 0 0 .05.095q-.08-.101-.006-.013c.223.216.383.47.516.748.154.325.1.757-.246.939-.306.162-.775.1-.939-.246q-.067-.137-.142-.272c-.018-.031-.113-.162-.01-.041q-.036-.04-.074-.08c-.09-.097-.177-.19-.252-.3l-.04-.07-.026-.03-.093-.096a5 5 0 0 0-.314-.3c.005.005-.15-.121-.072-.061.077.059-.082-.057-.078-.054q-.06-.042-.126-.083a4 4 0 0 0-.285-.164 3 3 0 0 0-.16-.077c.024.011.123.047 0 0a3.491 3.491 0 0 0-.562-.169q-.057-.01-.115-.021-.12-.02.01 0-.057-.007-.117-.012a3.5 3.5 0 0 0-.519 0c-.03.004-.213.038-.046.004q-.056.01-.113.021a2.5 2.5 0 0 0-.445.129 2.617 2.617 0 0 0-.362.202c-.107.07-.02.016 0-.002a3 3 0 0 0-.13.117q-.041.04-.08.083c-.015.015-.146.17-.098.11.062-.079-.056.078-.053.075l-.067.102c-.035.052-.064.106-.099.157-.076.113-.013.018 0-.016-.016.044-.086.195-.067.245q.007-.04.012-.083a1 1 0 0 0-.005.098v.049l-.007-.039c.009-.005.014.089.027.092l-.033-.077a1 1 0 0 0 .049.082c-.06-.118-.036-.066-.012-.027l-.059-.042a1 1 0 0 0 .096.057q.054.033.111.064c.008.005.202.092.074.039q.166.066.336.112a5 5 0 0 0 .342.079s.231.032.105.018l.147.013c.26.019.521.013.78-.007q.195-.015.389-.039c.132-.017-.161.026.063-.01q.105-.017.208-.033c.266-.044.53-.098.794-.154a5 5 0 0 0 .7-.2c.215-.082-.055.026.068-.028a6.934 6.934 0 0 0 .6-.303c.31-.178.765-.083.938.246.172.326.087.749-.245.939z"/>
  </g>
  <path fill="#F9C41C" d="m68.35 33.22-8.684.692-.724-9.098 3.92-.313a2.65 2.65 0 0 0 2.43-2.851l-.843-10.587a2.65 2.65 0 0 0-2.851-2.43l-29.71 2.366a2.65 2.65 0 0 0-2.43 2.85l.155 1.94c.496 6.235 5.952 10.884 12.186 10.388 2.264-.18 4.578-.783 6.847-.324 2.1.424 3.365 2.331 3.392 4.404.033 2.63-1.645 4.22-4.186 4.582-3.036.434-6.153.5-9.212.744a2.65 2.65 0 0 0-2.43 2.85l.155 1.94a11.36 11.36 0 0 0 2.457 6.192 11.4 11.4 0 0 0 5.382 3.697c2.832.886 5.725.064 8.429 1.19.239.124.46.271.656.451 1.344 1.006 1.064 2.723 1.344 4.753.296 2.148 2.444-2.759 3.573-3.734q.196-.291.37-.548.183-.288.374-.564c.63-.918 1.35-1.717 2.487-2.061.256-.035.512-.054.764-.076l7.414-.59a2.65 2.65 0 0 0 2.43-2.85L71.2 35.645a2.65 2.65 0 0 0-2.851-2.43z"/>
  <path fill="#F9C41C" d="M68.94 33.24c-.063-.606-.143-1.219-.214-1.861-.1-.721-.218-1.439-.34-2.155-.37-2.146-.805-4.28-1.04-6.424-.151-.993-.297-1.96-.456-2.93-.436-2.855-.992-5.704-1.612-8.588a165 165 0 0 0-.536-3.24 370 370 0 0 0-1.203-6.446C63.401.724 63.08.092 62.03.337c-.36.025-.77.058-1.179.089L58.402.62a8.51 8.51 0 0 0-6.15 3.393c-.923 1.234-1.275 2.879-2.237 4.119-1.358 1.755-3.532 1.788-5.57 1.966-2.262.198-4.53.259-6.793.44l-5.761.458a2.65 2.65 0 0 0-2.43 2.85l.154 1.94q.042.527.131 1.036c1.476 2.487 4.216 4.137 7.201 4.239 5.038.267 9.952-1.03 14.61.67.488 5.554 1.034 11.103 1.56 16.654a11.1 11.1 0 0 1-3.136.692c-4.539.649-9.066 1.1-13.6 1.453a11.33 11.33 0 0 0 2.444 6.033 11.4 11.4 0 0 0 5.382 3.696c2.831.885 5.724.064 8.428 1.191.24.123.46.27.657.45 1.342 1.005 1.065 2.722 1.343 4.749q.231 3.6.407 7.206c.205 4.17.426 8.762-1.111 12.733 3.82-1.043 7.894-1.332 11.484-2.764 1.264-.455 2.611-1.39 2.696-3.291.09-.362.597-1.57.567-2.14a52 52 0 0 0 .16-2.604c.056-1.27.153-2.534.224-3.802.254-4.327.042-8.577-.133-12.85l.688-.054a2.65 2.65 0 0 0 2.43-2.851l-.844-10.588a2.65 2.65 0 0 0-2.26-2.408z"/>
  <path fill="#F9C41C" d="M93.7 81.876c-7.867-1.268-12.846-8.801-14.471-16.09a32 32 0 0 1-.708-4.096 89 89 0 0 1-.71-4.871c-.591-4.886-.902-9.762-1.579-13.893q-.131-1.625-.259-3.24L73.93 14.035q-.063-.79-.123-1.534c-.097-1.13-.177-2.354-.321-3.585a27 27 0 0 0-.275-1.838C72.649 2.312 67.917-.07 63.547.002c-1.936.16-3.884.237-5.736.69a8.5 8.5 0 0 0-5.56 3.324c-.923 1.233-1.275 2.878-2.237 4.119-1.358 1.754-3.532 1.787-5.57 1.966-2.262.198-4.53.259-6.793.439l-5.761.459a2.65 2.65 0 0 0-2.43 2.85l.154 1.94q.042.526.131 1.036c1.476 2.487 4.216 4.137 7.201 4.238 5.038.267 9.952-1.029 14.61.67.488 5.555 1.034 11.104 1.56 16.655a11.1 11.1 0 0 1-3.136.691c-4.539.65-9.066 1.101-13.6 1.454a11.33 11.33 0 0 0 2.444 6.032 11.4 11.4 0 0 0 5.382 3.697c2.831.884 5.724.063 8.428 1.19.24.124.46.271.657.451 1.342 1.005 1.065 2.722 1.343 4.748q.231 3.6.407 7.206c.205 4.171.426 8.762-1.111 12.734a13.3 13.3 0 0 1-1.317 2.564c-.343.514-.715 1.01-1.118 1.48-4.437 4.95-11.61 5.523-17.283 8.578 3.386.915 7.051.859 10.387 2.348.472.211.937.449 1.394.723q.937.401 1.89.77c4.441 1.72 9.103 2.952 13.525 4.709a34 34 0 0 0 4.81.948l2.936-.234 2.936-.234c1.18-.199 2.204-.517 3.098-.94a9.2 9.2 0 0 0 2.325-1.559 25 25 0 0 1 2.418-2.007 34 34 0 0 1 2.61-1.719c2.217-1.553 4.683-2.733 7.026-4.078.47-.269.937-.544 1.41-.834a42 42 0 0 1 1.708-1.104c1.79-1.001 3.596-2.09 5.412-3.064-1.449-.359-2.925-.685-4.391-1.07zM67.936 71.51c-.415 1.263-1.496 1.951-2.525 2.322 1.03-.37 2.109-1.057 2.525-2.322"/>
  <path fill="#F4B80F" d="M55.444 49.608c-.477-.813-1.368-1.432-2.235-1.756-1.388-.52-2.907-.546-4.366-.685-4.513-.431-10.276-1.486-12.324-5.648a11.34 11.34 0 0 0 2.303 5.051 11.4 11.4 0 0 0 3.847 3.077c1.63.803 3.492 1.13 5.3 1.114 1.701-.013 3.135-.087 4.681.726.9.493 1.827 1.283 1.776 2.441.417-.8 1.088-1.623 1.303-2.53.157-.66.023-1.266-.285-1.79"/>
  <path fill="#F4B80F" d="M93.701 81.876c-7.868-1.268-12.847-8.801-14.472-16.09a32 32 0 0 1-.708-4.096 89 89 0 0 1-.71-4.871c-.59-4.886-.902-9.762-1.579-13.893l-.259-3.24-2.043-25.651q-.062-.79-.123-1.534c-.096-1.13-.177-2.354-.32-3.585a27 27 0 0 0-.276-1.838C72.65 2.312 67.917-.07 63.548.002c-2.345.194-4.706.263-6.895 1.03 1.427-.5 3.697.13 4.953.827 1.68.934 2.371 2.409 2.558 4.283.986 9.887 5.428 41.005 4.38 58.405a58 58 0 0 1-.2 2.492c-.12 2.653-.464 5.562-2.32 7.584-2.517 2.795-6.494 3.544-10.19 2.764a9.4 9.4 0 0 1-1.902-.781c-.233.73-.618 1.337-.934 1.933q-.182.314-.385.62-.514.772-1.117 1.479c-4.437 4.951-11.61 5.523-17.284 8.578 3.386.915 7.052.86 10.387 2.348.472.212.938.45 1.395.723q.936.402 1.889.77c4.442 1.72 9.103 2.952 13.525 4.709a34 34 0 0 0 4.81.948l2.936-.234 2.936-.234c1.18-.198 2.204-.516 3.099-.939a9.2 9.2 0 0 0 2.325-1.56 25 25 0 0 1 2.418-2.007 34 34 0 0 1 2.61-1.718c2.217-1.554 4.682-2.733 7.025-4.079.47-.268.938-.543 1.41-.834a42 42 0 0 1 1.708-1.104c1.79-1 3.597-2.09 5.412-3.064-1.448-.358-2.925-.684-4.391-1.07z"/>
  <path fill="#F9C41C" d="M14.582 129.369a52.4 52.4 0 0 0 1.827 8.433c4.64 15.2 16.592 27.971 31.18 34.13 8.86 3.74 18.423 5.089 27.753 4.294 9.34-.693 18.567-3.537 26.723-8.634 13.43-8.391 23.208-22.894 25.384-38.637a52 52 0 0 0 .468-8.615c-.35-12.609-5.125-24.99-15.799-32.331-7.515-5.168-16.807-5.898-25.711-6.35l-.15-.009c-6.139-.304-12.294-.14-18.419.367-6.129.469-12.23 1.282-18.245 2.555l-.147.03c-8.722 1.857-17.779 4.05-24.382 10.342-9.378 8.94-12.132 21.919-10.482 34.425"/>
  <path fill="#F4B80F" d="M112.118 88.01c-7.515-5.167-16.807-5.898-25.711-6.35l-.15-.008c-6.139-.305-12.294-.14-18.419.367-6.129.469-12.23 1.281-18.245 2.554q-.074.016-.147.031-1.116.239-2.24.485a117 117 0 0 1 2.258-.334c5.05-.285 10.472-.722 16.007-.978 2.767-.128 5.56-.208 8.346-.201 11.942-.136 24.702 1.4 33.863 10.08 15.117 14.256 15.771 39.344 3.899 55.722a46 46 0 0 1-4.114 4.841c-4.44 4.548-9.803 8.176-15.845 10.543a58.4 58.4 0 0 1-8.34 2.846c-14.3 3.721-30.336 2.22-43.393-4.243a65 65 0 0 1-6.555-3.587 62 62 0 0 1-6.05-4.307 48 48 0 0 1-4.674-4.491c6.022 9.231 14.867 16.679 24.981 20.949 8.86 3.74 18.423 5.089 27.753 4.294 9.34-.693 18.567-3.537 26.723-8.634 13.43-8.391 23.208-22.894 25.384-38.638.395-2.852.549-5.737.468-8.614-.35-12.61-5.125-24.99-15.799-32.331z"/>
  <path fill="#fff" d="M54.42 151.678c.221 1.774.757 3.65 2.11 4.897q.42.462.9.893c1.915 1.729 4.505 3.093 7.436 3.89 2.968.806 6.19 1.045 9.354.781 3.165-.241 6.311-.986 9.113-2.251 4.614-2.084 8.041-5.577 8.908-9.298a8.7 8.7 0 0 0 .23-2.03c-.015-2.962-1.528-5.836-5.08-7.474-2.5-1.154-5.638-1.249-8.646-1.282h-.05a68 68 0 0 0-6.236.24c-2.078.16-4.149.403-6.195.752q-.024.003-.05.008c-2.965.509-6.048 1.099-8.334 2.634q-.608.409-1.116.857c-.337.298-.642.61-.904.931-1.353 1.527-1.488 3.536-1.504 5.356q.01.552.064 1.098z"/>
  <path fill="#F4B80F" d="M89.887 142.707c.296.87.442 1.783.452 2.704a9.3 9.3 0 0 1-.195 1.992c-.759 3.649-3.834 7.055-7.988 9.074-2.523 1.225-5.359 1.938-8.216 2.153-2.856.239-5.769-.015-8.454-.826-2.21-.667-4.21-1.721-5.822-3.043a13 13 0 0 1-.773-.683c-2.24-2.238-3.714-5.32-3.447-8.536-.04.478-.811 1.34-.993 1.859a9.3 9.3 0 0 0-.452 2.122c-.221 2.129.36 4.165 1.422 5.997 1.612 2.779 4.334 5.038 7.09 6.291 9.127 4.149 22.423 2.306 27.903-6.858.805-1.345 1.47-2.836 1.827-4.366a8.7 8.7 0 0 0 .23-2.03c-.01-2.142-.805-4.236-2.584-5.851zM41.79 26.115q.644.008 1.286 0c2.68-.023 6.052-.41 7.984 1.845 1.271 1.484 1.322 3.93.003 5.477q.556-.262 1.076-.611c1.729-1.159 3.1-2.989 3.636-4.943q.113-.45.125-.921a4 4 0 0 0-.097-.967c-.56-3.414-4.41-4.694-7.445-5.01a21 21 0 0 0-1.59-.126c-3.194-.131-6.483.38-9.825.203-2.983-.102-5.725-1.752-7.2-4.239.335.567.361 1.56.614 2.204.304.775.694 1.517 1.161 2.205a11.4 11.4 0 0 0 3.44 3.297c2.08 1.284 4.45 1.548 6.83 1.582z"/>
  <path fill="#fff" d="M30.13 99.032c-1.409.472-2.73 1.522-3.816 2.655a22.7 22.7 0 0 0-3.101 4.069c-1.052 1.724-1.82 3.711-2.007 5.723a16 16 0 0 0-.044.598c-.015.205 0 .423.008.633.028.424.065.837.2 1.204.25.732.696 1.212 1.466 1.165.52-.061 1.026-.316 1.466-.644.215-.165.441-.344.641-.531.203-.187.375-.383.54-.575.874-1.037 1.547-2.189 2.313-3.283.815-1.167 1.631-2.312 2.423-3.549.753-1.183 1.57-2.43 2.236-3.726a4.946 4.946 0 0 0 .544-1.553c.082-.531.028-1.067-.27-1.527-.254-.392-.646-.642-1.106-.752a2.7 2.7 0 0 0-1.493.092zM41.23 92.927c-.72-.24-1.48-.096-2.13.123-.7.235-1.356.562-1.969.91-.719.41-1.376.917-1.836 1.576-.362.503-.834 1.3-.133 2.194.49.583 1.203.856 1.738.897a3.2 3.2 0 0 0 1.024-.093c.318-.07.618-.175.91-.272.627-.213 1.186-.477 1.692-.849a6.7 6.7 0 0 0 1.36-1.282c.152-.197.293-.443.382-.744.09-.299.128-.652.056-1.055a2 2 0 0 0-.397-.895 1.5 1.5 0 0 0-.698-.508zM46.475 12.53c-.891-.14-1.897-.063-2.823.02-.991.09-1.983.192-2.956.256-1.143.077-2.279.136-3.388.257-.211.023-.447.052-.681.083a5 5 0 0 0-.672.145c-.408.123-.718.337-.688.724.04.26.229.52.496.755.269.236.62.425.968.572.95.382 2.058.508 3.126.559a14.2 14.2 0 0 0 3.392-.233c1.058-.203 2.128-.501 3.06-.91.697-.304 1.355-.77 1.34-1.318-.014-.469-.538-.806-1.177-.908zM48.68 37.533c-.73-.145-1.552-.07-2.308.008-.81.087-1.62.185-2.416.244-.936.074-1.863.128-2.77.246-.171.023-.365.05-.556.082-.19.03-.382.083-.55.14-.333.123-.586.336-.558.721.035.26.189.521.41.757.22.238.508.428.793.575.778.385 1.684.515 2.557.57q1.411.093 2.773-.219c.865-.198 1.738-.495 2.498-.898.567-.301 1.104-.765 1.09-1.314-.014-.468-.443-.808-.965-.91z" opacity=".34"/>
  <path fill="#000" d="M47.773 118.633c-.182-2.55 1.51-4.984 3.935-5.676 1.866-.519 3.73.094 5.063 1.517 1.286 1.475 1.792 3.475 1.257 5.369-.576 2.093-2.253 3.739-4.364 4.023-2.253.29-4.474-1-5.392-3.107a5.8 5.8 0 0 1-.5-2.126"/>
  <path fill="#fff" d="M50.355 117.836c-.036-.809.501-1.492 1.196-1.803 1.207-.474 2.523.557 2.387 1.836-.067.664-.469 1.245-1.07 1.506-.647.31-1.453.201-1.953-.292a1.77 1.77 0 0 1-.56-1.247"/>
  <path fill="#EC4899" d="M57.937 126.838c-.976-1.802-3.31-2.337-5.179-2.032l-.03.008q-.014-.001-.029.004c-1.59.296-3.655 1.271-4.053 3.018-.407 1.786 1.461 2.972 2.965 3.291 1.572.336 3.264.041 4.675-.712 1.294-.692 2.464-2.075 1.651-3.576zM91.477 123.23h-.03q-.015-.004-.029-.005c-1.77-.141-3.644.431-4.702 1.94-.428.608-.637 1.368-.372 2.087.257.698.842 1.214 1.473 1.576 1.37.788 3.09 1.039 4.635.751 1.463-.274 3.436-1.313 3.415-3.039-.025-2.094-2.661-3.133-4.39-3.31"/>
  <path fill="#000" d="M87.822 120.785c.46-1.233 1.352-2.503 2.802-2.569 1.463-.065 2.66 1.119 3.111 2.42.518 1.488 2.807.618 2.29-.871-.8-2.297-2.988-4.037-5.462-3.991-2.346.044-4.184 1.898-4.962 3.981-.231.619-.037 1.334.596 1.625.565.261 1.393.026 1.625-.596zM77.276 121.605c-.29-.795-1.391-.939-1.885-.243-.242.343-.22.883-.336 1.278-.193.667-.507 1.316-.963 1.843-.957 1.111-2.479 1.403-3.737.603-.64-.406-1.14-1.02-1.49-1.687-.253-.485-.29-1.222-.712-1.591-.847-.737-1.914.079-1.761 1.076q0 .006.003.01 0 .017.005.035c.558 2.211 2.336 4.291 4.654 4.708 2.286.413 4.408-1.001 5.483-2.949.435-.789 1.073-2.172.74-3.083z"/>
</svg>
