<svg xmlns="http://www.w3.org/2000/svg" fill="none" viewBox="0 0 260 260">
  <path fill="#fff" d="M0 0h260v260H0z"/>
  <path fill="#fff" d="M75.661 70.965c.35-.88 25.599-36.088 26.31-36.088.712 0 26.84-5.51 27.19-4.98s24.007 43.564 25.429 50.642c1.423 7.078 2.303 21.161-2.664 30.229s-6.403 11.37-9.779 13.685a17.9 17.9 0 0 1-7.644 2.665l-.362 5.691 2.315 3.195s22.403-14.035 35.377-1.953 23.645 35.377 31.459 51.74c7.813 16.362 16 30.928 17.954 44.082 1.953 13.155-1.773 18.666-6.029 22.042s-16.351 4.268-27.202 3.919a97 97 0 0 1-21.15-3.389s-2.665 4.088-17.773 1.604-16-3.195-20.98-1.206c-4.98 1.99-15.82 5.511-17.242 4.269a4.5 4.5 0 0 1-1.568-2.665s-2.412-.711-2.52-2.134-.362-3.738-.362-3.738l-47.64 3.376s-17.242 5.51-26.129-11.202c-8.886-16.712 2.484-47.278 2.484-47.278L64.821 83.746z"/>
  <path fill="#3B82F6" d="M259.589 85.87a93 93 0 0 1-.615 5.148 87 87 0 0 0-2.99-.965 137.5 137.5 0 0 0-29.457-5.715c-5.161-.422-10.37-.458-15.495-1.206a42 42 0 0 1-7.403-1.748 41.5 41.5 0 0 0-6.981-2.074c-2.472-.362-4.98-.41-7.44-.856s-4.823-1.278-5.04-4.003a23 23 0 0 1 .205-3.955c.084-1.266.181-2.556.277-3.835.205-2.676.422-5.341.651-8.018 1.472-18.147 3.16-36.282 5.318-54.356.121-1.013.241-2.026.373-3.039a71.1 71.1 0 0 1 26.925 7.344 77.6 77.6 0 0 1 23.139 17.628 72.5 72.5 0 0 1 14.915 25.562 84.4 84.4 0 0 1 3.618 34.087"/>
  <path fill="#000" d="M259.589 85.87a93 93 0 0 1-.615 5.148 108 108 0 0 1-8.248 28.336c-4.594 10.345-10.851 19.931-20.1 26.683-8.898 6.499-19.521 10.31-30.313 12.191-2.821.494-5.655.856-8.44 1.121-1.097.108-2.195.193-3.292.277-.603-1.109-1.206-2.23-1.809-3.328 1.11 0 2.219-.12 3.329-.205a94.4 94.4 0 0 0 17.218-2.761c10.056-2.641 19.714-7.415 27.19-14.71 7.826-7.645 12.805-17.942 16.446-28.119a103 103 0 0 0 5.077-20.498c.585-4.138.887-8.312.905-12.492a75.7 75.7 0 0 0-6.524-31.663 70.9 70.9 0 0 0-16.29-22.403A74.1 74.1 0 0 0 210.418 8.58a68.4 68.4 0 0 0-28.046-4.413 74.4 74.4 0 0 0-28.046 7.234 70.7 70.7 0 0 0-22.982 17.592c-1.206 1.423-3.618-.325-2.412-1.76a71 71 0 0 1 5.136-5.486 76.2 76.2 0 0 1 55.466-20.68l1.423.085a71.15 71.15 0 0 1 26.925 7.343 77.6 77.6 0 0 1 23.138 17.629 72.5 72.5 0 0 1 14.916 25.562 84.4 84.4 0 0 1 3.653 34.183"/>
  <path fill="#000" d="M188.846 76.187a4.82 4.82 0 0 0-5.546-3.364 6.03 6.03 0 0 0-3.786 2.351 1.52 1.52 0 0 0-1.146.555 5.35 5.35 0 0 0-1.102 3.964 5.329 5.329 0 0 0 2.043 3.572 6.22 6.22 0 0 0 7.681-.338 6.65 6.65 0 0 0 1.856-6.74m-8.44 4.087c-.06-.072 0 .013 0 0"/>
  <path fill="#000" d="M194.261 29.39c-.651-2.411-1.387-4.895-2.11-7.33l.361-1.761c.314-1.423-1.845-2.207-2.628-1.037l-.133.205a1.2 1.2 0 0 0-.651.494l-4.232 6.825c-.977 1.58 1.29 3.34 2.351 1.748l.941-1.41a265 265 0 0 0-4.209 33.76c-.229 3.871-.41 7.742-.422 11.624a1.475 1.475 0 0 0 1.206 1.568 1.435 1.435 0 0 0 1.568-1.206 294 294 0 0 1 3.93-41.14c.205-1.206.423-2.316.64-3.473.193.639.398 1.278.603 1.917.53 1.52 3.219.796 2.785-.784M240.767 85.085a12 12 0 0 1-1.302-.482 6.42 6.42 0 0 0-5.125-3.436c-1.206-.109-2.219 1.386-1.326 2.411l.205.217a23348 23348 0 0 0-34.087-4.992l-11.31-1.64c-1.833-.265-2.159 2.58-.326 2.858q19.727 2.93 39.489 5.824l10.405 1.531a8.8 8.8 0 0 1-4.46 1.773 1.445 1.445 0 0 0-1.206 1.628 1.47 1.47 0 0 0 1.628 1.205 10.57 10.57 0 0 0 8.066-4.606 1.49 1.49 0 0 0 .251-1.309 1.49 1.49 0 0 0-.902-.982M137.071 151.065a92 92 0 0 1-3.726 9.405 194 194 0 0 1-4.413 9.321 253.5 253.5 0 0 1-21.873 35.1c-8.163 11.141-16.965 21.884-26.165 32.182-4.594 5.148-9.586 10.068-15.771 13.263-5.92 3.051-12.842 4.281-19.293 2.279a25.93 25.93 0 0 1-13.588-10.683 34.8 34.8 0 0 1-5.233-19.063c0-7.235 1.808-14.24 4.135-21.029.097-.265.181-.518.29-.796.325-.976.675-1.953 1.025-2.93 2.098-5.884 4.316-11.732 6.474-17.592 1.35-3.617 2.725-7.355 4.172-11.009.23-.542.447-1.097.664-1.639.217-.543.301-.748.458-1.134l.651-1.567a121 121 0 0 1 10.852-20.595 73 73 0 0 1 6.029-7.789 44.4 44.4 0 0 1 7.234-6.861c4.69-3.364 10.852-5.088 16.206-2.966a12.6 12.6 0 0 1 2.158 1.097c1.073.663 3.28 2.761 2.412 3.304-.47.301-3.618-.495-4.269-.868a11.28 11.28 0 0 0-8.054-1.206c-5.957 1.206-10.599 6.089-14.337 10.526a86.2 86.2 0 0 0-10.164 15.434c-1.966 3.75-3.726 7.609-5.378 11.515-.241.579-.495 1.206-.736 1.761-.132.313-.253.627-.386.952-.229.591-.47 1.206-.71 1.773-2.605 6.571-4.945 13.263-7.368 19.859-1.061 2.881-2.17 5.787-3.232 8.729-.325.941-.663 1.881-.976 2.822-3.1 9.14-5.281 18.557-3.171 28.203 2.411 10.852 11.672 20.727 23.488 19.545 13.263-1.326 22.307-12.986 30.361-22.415 8.44-9.923 16.652-20.124 24.116-30.819a228 228 0 0 0 19.702-33.46 213 213 0 0 0 3.967-9.032 42 42 0 0 0 2.761-8.79c.482-2.4.383-4.88-.29-7.234a12 12 0 0 0-.542-1.351 10 10 0 0 0-.712-1.205 16.9 16.9 0 0 0-5.401-4.643 75 75 0 0 0-9.056-4.473 85 85 0 0 0-4.823-1.893 20 20 0 0 1-4.16-1.845c-2.894-1.917-3.002-5.293-3.533-8.38a47 47 0 0 0-2.556-9.767c-.337-.844-.94-2.05-2.001-1.386s-1.206 2.532-1.206 3.798c0 3.617.109 7.234.169 10.852 0 2.833-.169 5.86 2.11 7.91a18.7 18.7 0 0 0 6.885 3.364c1.76.578.699 3.219-1.037 2.664a22.1 22.1 0 0 1-7.307-3.472 9.56 9.56 0 0 1-2.653-3.304 12.1 12.1 0 0 1-.868-4.883c-.072-3.883-.12-7.778-.193-11.672a14.7 14.7 0 0 1 .422-5.089 4.98 4.98 0 0 1 3.449-3.255c3.689-.844 5.004 3.328 5.824 6.029a83 83 0 0 1 2.29 10.695 4.7 4.7 0 0 0 2.05 3.617 26.4 26.4 0 0 0 4.45 1.785 96 96 0 0 1 10.116 4.533 29.6 29.6 0 0 1 7.946 5.402 14 14 0 0 1 1.507 1.893 11.7 11.7 0 0 1 1.29 2.581c1.64 4.449.941 9.405-.482 13.902"/>
  <path fill="#000" d="M103.792 130.603c-1.857-.892-4.1-.735-5.908-1.724a4 4 0 0 1-1.628-2.508 39 39 0 0 1-1.085-4.039 47.7 47.7 0 0 1-1.085-8.272 35 35 0 0 1 .434-8.175 4.23 4.23 0 0 1 1.736-2.93c.712-.422 1.905-.313 2.062.651a1.426 1.426 0 1 0 2.821-.41c-.398-3.28-4.34-4.184-6.776-2.484-2.773 1.942-3.002 5.728-3.159 8.802a48.5 48.5 0 0 0 1.64 15.675c.33 1.618.916 3.173 1.736 4.606 1.893 2.798 5.414 2.291 8.139 3.618 1.724.747 2.773-1.99 1.073-2.81"/>
  <path fill="#000" d="M96.003 128.566c-5.535-1.206-6.222-8.598-7.235-13.095-.314-1.483-.651-2.954-.928-4.449a9.7 9.7 0 0 1-.11-4.124 3.7 3.7 0 0 1 1.858-2.568 2.115 2.115 0 0 1 2.327.289c1.206 1.326 3.436-.35 2.23-1.724a4.99 4.99 0 0 0-3.113-1.621 4.98 4.98 0 0 0-3.41.837c-2.302 1.495-3.062 4.389-2.966 6.981a56 56 0 0 0 1.7 9.092 28 28 0 0 0 2.496 8.042c1.375 2.412 3.786 4.968 6.777 5.209a1.445 1.445 0 0 0 1.622-1.248 1.447 1.447 0 0 0-1.248-1.621M152.964 76.126a121 121 0 0 0-8.815-18.69 1.554 1.554 0 0 0-1.965-.795 1.52 1.52 0 0 0-.796 1.965c5.667 10.032 10.852 20.776 12.058 32.387.965 9.405-1.206 19.172-7.151 26.672a25.3 25.3 0 0 1-11.901 8.513c-1.748.578-.614 3.195 1.122 2.628 9.272-3.038 15.856-11.226 18.931-20.257 3.641-10.647 2.218-21.993-1.483-32.423"/>
  <path fill="#000" d="M134.816 126.576a1.433 1.433 0 0 0-1.567 1.206 835 835 0 0 0-.446 5.679 1.436 1.436 0 0 0 2.845.326c.133-1.905.278-3.798.422-5.692a1.45 1.45 0 0 0-1.254-1.519M169.241 253.29a28 28 0 0 1-2.074.856 35.9 35.9 0 0 1-19.292 1.809c-3.292-.627-6.463-1.773-9.743-2.412a22.25 22.25 0 0 0-9.562.06 77 77 0 0 0-9.284 3.039 66 66 0 0 1-4.534 1.519 7.1 7.1 0 0 1-3.75.229 3.49 3.49 0 0 1-2.689-2.64 6.12 6.12 0 0 1 1.206-4.425 16.74 16.74 0 0 1 6.306-5.631 37.56 37.56 0 0 1 18.835-4.184 1.52 1.52 0 0 1 1.248 1.659 1.517 1.517 0 0 1-1.574 1.355c-3.45.002-6.886.444-10.225 1.314a27.2 27.2 0 0 0-8.295 3.461 13.7 13.7 0 0 0-2.774 2.411c-.639.736-1.833 2.086-1.845 3.147 0 .35 0 .374.289.495.389.129.802.162 1.206.096a14 14 0 0 0 3.509-.952c5.595-1.893 11.13-4.474 17.098-4.558 5.969-.084 11.732 2.809 17.749 3.412 4.242.41 8.524.001 12.612-1.206a32 32 0 0 0 3.352-1.205l3.027.446a1.497 1.497 0 0 1-.796 1.905"/>
  <path fill="#000" d="M130.319 235.855a20.76 20.76 0 0 0-23.609 10.249c-1.327 2.496-2.146 6.668.687 8.501a1.424 1.424 0 0 0 1.893-.169 1.545 1.545 0 0 0 .121-1.99 3.03 3.03 0 0 1-.88-1.537 3.03 3.03 0 0 1 .132-1.767 12 12 0 0 1 1.797-3.352 18.162 18.162 0 0 1 19.172-7.029c1.567.398 2.266-2.448.687-2.906"/>
  <path fill="#000" d="M127.353 232.273a1.496 1.496 0 0 1-1.591 1.327q-1.267.015-2.521.193-1.309.164-2.592.47a57.2 57.2 0 0 0-11.841 4.763c-1.832.904-4.051 2.025-5.064 3.967a3.2 3.2 0 0 0-.108 2.942 1.38 1.38 0 0 0 1.586.801c.21-.048.406-.145.572-.283 1.531-1.205 3.098 1.073 1.772 2.412-2.411 2.411-6.089.422-6.933-2.484-1.652-5.715 4.365-8.911 8.356-10.852a59.5 59.5 0 0 1 8.79-3.617 33 33 0 0 1 3.858-.941 26 26 0 0 1 4.438-.41c.771.024 1.338.977 1.278 1.712"/>
  <path fill="#000" d="M193.465 232.044a185 185 0 0 0-4.522-.217c-1.205 0-2.411-.073-3.544-.097h-5.451q-6.028.085-12.057.579c-3.919.302-7.814.808-11.745 1.013-8.91.482-19.798-.675-27.732-5.137a51 51 0 0 0-5.715-2.845 26.2 26.2 0 0 0-10.985-2.122 17.3 17.3 0 0 0-5.498 1.205c-1.049.41-3.69 1.375-3.388 3.003.253 1.29 2.713.639 3.496.53a30.7 30.7 0 0 1 6.475-.349 14.56 14.56 0 0 1 8.826 3.508q.735.643 1.351 1.399a1.33 1.33 0 0 1 .253 1.375c-.88.12-1.736.289-2.592.482a9.5 9.5 0 0 0-2.87-2.315c-3.051-1.592-6.849-1.58-10.177-1.146-1.797.23-3.858.772-5.582-.108a4.133 4.133 0 0 1-1.749-5.402c.88-2.026 2.918-3.099 4.823-3.846a19.9 19.9 0 0 1 5.945-1.327c4.269-.2 8.531.546 12.479 2.183a45 45 0 0 1 5.74 2.821c5.064 2.858 11.382 4.1 17.109 4.823 7.898.965 15.676-.361 23.573-.892 4.534-.301 9.056-.434 13.589-.398h3.485c2.279 0 4.546.157 6.813.29 1.857.048 1.507 3.086-.35 2.99"/>
  <path fill="#000" d="M165.117 191.145a30 30 0 0 1-.386 3.774 28.5 28.5 0 0 1-.88 3.87 29.2 29.2 0 0 1-4.353 8.947 28.6 28.6 0 0 1-10.453 8.875c-1.074.53-2.244.904-3.293 1.471a4.83 4.83 0 0 0-2.11 2.604c-1.206 2.725-2.302 5.474-3.46 8.211a1.49 1.49 0 0 1-1.683.845 1.49 1.49 0 0 1-1.175-1.472q.029-.225.121-.434c1.278-3.038 2.411-6.222 3.895-9.164a7.14 7.14 0 0 1 2.857-3.062c1.206-.675 2.484-1.097 3.702-1.7a26.32 26.32 0 0 0 13.77-18.304c.168-.832.313-1.664.398-2.496.072-.518.108-1.037.144-1.543v-1.99a34.3 34.3 0 0 0-3.002-13.263 7.93 7.93 0 0 1 0-6.849c.904-1.893 2.411-3.617 2.713-5.776a1.436 1.436 0 0 1 2.554-.732c.238.298.347.679.304 1.058-.338 2.592-2.026 4.509-3.027 6.837a4.4 4.4 0 0 0-.449 1.659c-.04.577.035 1.156.22 1.705.458 1.386 1.206 2.689 1.652 4.075a34.8 34.8 0 0 1 1.905 9.429q.11 1.711.036 3.425"/>
  <path fill="#000" d="M223.006 241.064c-.808 6.403-4.112 12.649-10.333 15.205a26.5 26.5 0 0 1-10.587 1.64c-3.919-.061-7.861-.519-11.768-.893-7.741-.759-15.47-1.652-23.151-2.869a67 67 0 0 1-2.194-.338 1.583 1.583 0 0 1-1.351-1.724 33 33 0 0 0 3.352-1.206l3.027.446 1.302.181c8.043 1.121 16.121 1.929 24.236 2.291 6.197.277 13.878 1.109 19.003-3.147 4.256-3.521 5.341-9.851 5.245-15.181-.133-7.078-2.231-14.228-4.631-20.836-2.64-7.234-5.932-14.191-9.272-21.125a987 987 0 0 0-10.852-21.619c-.494-.965-.928-1.785-1.362-2.617a950 950 0 0 0-5.136-9.646c-.603-1.109-1.206-2.23-1.809-3.328a608 608 0 0 0-2.834-5.1c-3.074-5.426-6.511-10.948-11.37-14.952a23.3 23.3 0 0 0-8.199-4.437 25.7 25.7 0 0 0-10.575-.663 44 44 0 0 0-16.157 6.029c-.856.494-1.7 1.013-2.532 1.531a12 12 0 0 0-.543-1.35 10 10 0 0 0-.711-1.206 50 50 0 0 1 2.495-1.519l.35-.205c6.656-3.871 14.047-6.668 21.849-6.475a26.76 26.76 0 0 1 18.617 8.512c4.763 4.824 8.102 10.852 11.358 16.785.531.94 1.049 1.893 1.58 2.845l1.772 3.256a894 894 0 0 1 4.413 8.296c.47.856.929 1.736 1.375 2.604a843.51 843.51 0 0 1 13.806 27.709 153 153 0 0 1 8.959 21.993c1.989 6.752 3.521 14.059 2.628 21.113"/>
  <path fill="#000" d="M188.944 231.803c-1.206 0-2.412-.073-3.545-.097-.531-.856-1.062-1.724-1.604-2.58l-.302-.482a772 772 0 0 0-19.642-29.855 149 149 0 0 0-2.182-3.183 29 29 0 0 0 .543-4.04v-.229l2.496 3.617.723 1.025q7.5 10.852 14.674 21.957a905 905 0 0 1 6.849 10.852l.217.362c.591.82 1.182 1.688 1.773 2.653M145.15 133.039a1.47 1.47 0 0 0-1.628-1.206 1.46 1.46 0 0 0-1.205 1.628c1.35 5.607 2.254 11.829-.266 17.254a17.916 17.916 0 0 1-11.177 9.116 1.407 1.407 0 0 0-.748 1.845c.154.34.432.608.777.75.345.141.732.144 1.08.01a20.63 20.63 0 0 0 12.636-10.442c2.846-5.909 2.026-12.794.531-18.955"/>
  <path fill="#000" d="m197.613 170.249-2.581 1.664q-14.963 9.645-29.915 19.292l-3.05 1.965c.072-.518.109-1.037.145-1.543v-1.989l2.845-1.821 4.088-2.641a7778 7778 0 0 0 24.477-15.82l2.568-1.651a24 24 0 0 1 1.423 2.544M111.473 144.083c-.483 6.62-8.212 13.397-11.95 18.087L81.28 184.754l-1.965 2.412-2.34 2.893q-5.642 6.982-11.273 13.975c-1.604 1.99-3.183 4.196-5.51 5.39a5.9 5.9 0 0 1-6.5-.555c-1.447-1.29.362-3.737 1.809-2.411 1.808 1.64 4.184 0 5.522-1.423 2.05-2.231 3.859-4.702 5.764-7.042l9.778-12.057 1.954-2.412a18414 18414 0 0 1 29.638-36.643 1.2 1.2 0 0 1 0-.495c.198-.821.299-1.663.301-2.508a10 10 0 0 0-.12-1.326l-.109-.615c0-.084-.096-.422-.096-.422a9.8 9.8 0 0 0-1.013-2.411l-.29-.447c0-.084-.12-.168-.18-.253-3.955-1.205-7.862-2.411-11.793-3.713a29.4 29.4 0 0 1-5.028-1.785 7.84 7.84 0 0 1-2.689-2.315 9.4 9.4 0 0 1-.784-1.206 33 33 0 0 1-1.205-2.327c-1.327-2.592-2.52-5.281-3.798-7.886-1.46-2.978-3.618-6.68-2.183-10.056 1.206-2.773 4.329-4.377 7.054-2.845 1.398.795 0 3.219-1.363 2.471a1.974 1.974 0 0 0-2.568.748 4.17 4.17 0 0 0-.337 3.882 30 30 0 0 0 1.94 4.341l2.171 4.413c.76 1.52 1.495 3.039 2.243 4.558a8.1 8.1 0 0 0 2.242 3.195 12.9 12.9 0 0 0 3.774 1.52l4.824 1.507c5.594 1.76 11.864 3.002 12.407 9.972q-.003.606-.084 1.205"/>
  <path fill="#000" d="m81.28 184.694-1.966 2.412-2.749-1.303-1.024-.494a315 315 0 0 1-29.156-15.844 115 115 0 0 1-2.616-1.628c.156-.373.301-.747.458-1.133l.651-1.568 2.629 1.616c1.953 1.206 3.918 2.412 5.908 3.521a323 323 0 0 0 16.23 8.838 274 274 0 0 0 8.874 4.269zM143.437 89.463a27.28 27.28 0 0 1-12.214-17.99c-.434-2.412-.856-5.354-.06-7.705a4.075 4.075 0 0 1 5.607-2.412c1.676.772 2.676-1.857 1.037-2.665a6.935 6.935 0 0 0-7.669 1.206c-2.411 2.315-2.412 5.824-2.231 8.935a30.15 30.15 0 0 0 6.367 16.278 29 29 0 0 0 5.426 5.305l-2.798 1.41c-1.688.845-.542 3.558 1.146 2.702l5.076-2.58a1.47 1.47 0 0 0 .754-1.89 1.46 1.46 0 0 0-.441-.594M137.155 102.231a1.47 1.47 0 0 0-2.001-.253 9.31 9.31 0 0 1-9.646 0 1.47 1.47 0 0 0-1.99.289 1.45 1.45 0 0 0 .217 1.966 11.91 11.91 0 0 0 13.143 0 1.45 1.45 0 0 0 .277-2.002"/>
  <path fill="#000" d="M135.793 70.278a1.57 1.57 0 0 0-1.061-.265 1.424 1.424 0 0 0-.796 2.411 1 1 0 0 0 0 .17 8.93 8.93 0 0 0 2.014 4.171 1.432 1.432 0 0 0 2.21.036c.183-.215.3-.479.334-.76a6.03 6.03 0 0 0-2.701-5.763M112.739 80.539a1.57 1.57 0 0 0-1.061-.278 1.48 1.48 0 0 0-.94.567c-.119.179-.202.38-.242.591-.179.27-.248.598-.193.916a10.02 10.02 0 0 0 3.124 5.56 1.41 1.41 0 0 0 1.422.18 1.47 1.47 0 0 0 .868-1.206 6.49 6.49 0 0 0-2.978-6.33M114.813 68.06a17.58 17.58 0 0 0-18.569 8.874 1.447 1.447 0 0 0 .808 1.857 1.47 1.47 0 0 0 1.857-.807 14.82 14.82 0 0 1 15.566-7.03 1.46 1.46 0 0 0 .338-2.894M89.299 92.96a9.73 9.73 0 0 0-11.443.626 9.09 9.09 0 0 0-2.098 11.093 9.28 9.28 0 0 0 5.004 4.655 1.472 1.472 0 0 0 1.073-2.737 6.78 6.78 0 0 1-4.16-6.632 6.03 6.03 0 0 1 5.318-5.57 6.32 6.32 0 0 1 4.594.855c1.531 1.013 3.243-1.254 1.712-2.29"/>
  <path fill="#000" d="M90.673 101.423c-.374-.109-.748-.181-1.122-.265l-.361-.085-.29-.072a31 31 0 0 1-1.808-.531 32 32 0 0 1-3.46-1.35 1.447 1.447 0 0 0-1.858.82 1.47 1.47 0 0 0 .808 1.845c1.206.518 2.327.976 3.521 1.374 1.266.439 2.564.778 3.882 1.013a1.436 1.436 0 0 0 1.544-1.085 1.41 1.41 0 0 0-.856-1.664M111.484 43.836c-.144-1.87-3.026-1.447-2.869.41A57.64 57.64 0 0 1 96.437 83.83a56 56 0 0 1-8.296 8.525c-1.399 1.206.313 3.388 1.736 2.242a60.2 60.2 0 0 0 21.246-38.114 57.5 57.5 0 0 0 .361-12.648"/>
  <path fill="#000" d="M149.671 66.504c-4.34-11.708-16.024-18.737-27.467-22.03a97 97 0 0 0-11.274-2.47c-1.845-.302-2.146 2.555-.325 2.869 11.575 2.074 23.814 5.619 31.663 14.975a28.6 28.6 0 0 1 4.654 7.814c.712 1.796 3.413.639 2.749-1.158"/>
  <path fill="#000" d="M161.271 65.527a52.55 52.55 0 0 0-14.168-25.623 48.6 48.6 0 0 0-12.636-9.296c-5.245-2.58-10.937-3.304-16.712-3.509-11.551-.386-23.476-.108-34.449 3.955-8.935 3.316-17.098 9.381-21.704 17.858a29 29 0 0 0-1.495 3.231 1.424 1.424 0 0 0 2.653 1.037c3.352-8.272 10.49-14.47 18.484-18.086 9.827-4.486 20.896-5.282 31.555-5.137 5.426.072 11.093.06 16.302 1.724a38.2 38.2 0 0 1 12.95 7.645A50.5 50.5 0 0 1 157.16 62.03a43.2 43.2 0 0 1 2.146 13.445c0 4.461-.724 9.248-3.256 13.034a14.4 14.4 0 0 1-2.038 2.472 1.553 1.553 0 0 0-.265 2.134 1.53 1.53 0 0 0 2.122.277c7.403-6.897 7.427-18.701 5.402-27.865"/>
  <path fill="#000" d="M61.65 54.495c-8.681 5.92-14.18 15.241-17.459 25.032-3.388 10.14-4.365 20.751-6.27 31.217-.8 4.987-2.24 9.85-4.28 14.47a48 48 0 0 1-7.524 11.503 50.7 50.7 0 0 1-10.322 8.79 11.33 11.33 0 0 0-4.69 4.979 18.7 18.7 0 0 0-1.483 7.09 19.64 19.64 0 0 0 14.843 19.293c.699.168 1.507.795 1.302 1.639a20.1 20.1 0 0 0 .096 9.309 19.3 19.3 0 0 0 6.596 10.382c.814.665 1.69 1.25 2.616 1.748-.325.941-.663 1.881-.976 2.822a21 21 0 0 1-2.665-1.64 20.5 20.5 0 0 1-4.968-5.016 23.02 23.02 0 0 1-3.894-16.7 18 18 0 0 1-1.749-.591 22.62 22.62 0 0 1-14.131-22.741 20.3 20.3 0 0 1 1.856-7.234 13.9 13.9 0 0 1 5.282-5.631 47.7 47.7 0 0 0 10.538-9.02 44.6 44.6 0 0 0 7.235-11.852 67.7 67.7 0 0 0 3.919-15.482c1.712-10.852 3.147-21.897 7.234-32.182 3.521-8.802 9.08-17.05 17.026-22.403 1.627-1.098 3.4 1.181 1.869 2.218"/>
  <path fill="#000" d="M32.905 199.887s-5.595-2.134-7.235-9.646a90 90 0 0 1-1.857-11.467S1.833 172.66 9.14 151.572c4.534-13.059 13.336-1.592 23.2-30.145 9.862-28.552 5.34-39.995 12.54-49.593a224 224 0 0 1 16-18.665s3.46-14.397 25.321-21.065 38.126-5.872 52.523 2.93 20.269 24.26 21.608 34.666c1.338 10.406-.411 11.744-1.87 16s-3.472 5.33-3.472 5.33-4.823-20.8-9.646-28.529-7.994-11.201-18.4-14.94c-10.406-3.737-16.435-2.748-16.435-2.748s-.096 17.423-5.968 29.155a74.2 74.2 0 0 1-15.675 20.27s-7.235-2.943-10.406.795-4.823 5.595-2.412 8.537a18.7 18.7 0 0 0 4.823 4.256s-3.195-2.122 0 4.823c3.196 6.946 6.355 15.362 6.355 15.362s-8.754-2.568-16.483 2.231-19.738 22.403-25.321 37.065-12.516 32.58-12.516 32.58"/>
  <path fill="#000" d="M35.557 115.205a28.4 28.4 0 0 1-8.066 15.807 28.1 28.1 0 0 1-7.307 5.246 84 84 0 0 1-8.682 3.147 18.8 18.8 0 0 0-7.861 4.738 15.54 15.54 0 0 0-3.545 9.441c-.507 6.692.964 13.963 5.209 19.293 4.461 5.607 12.37 8.621 19.232 5.896a1.54 1.54 0 0 0 .83-.843 1.543 1.543 0 0 0-.853-2.012 1.54 1.54 0 0 0-1.183.009c-5.354 2.122-11.624-.253-15.217-4.509-4.063-4.823-5.45-11.612-4.92-17.785a12.06 12.06 0 0 1 3.328-8.067 20.1 20.1 0 0 1 7.525-3.822 52.5 52.5 0 0 0 8.235-3.183 31.24 31.24 0 0 0 16.12-23.043 1.433 1.433 0 0 0-1.276-1.484 1.435 1.435 0 0 0-1.569 1.171"/>
  <path fill="#000" d="M32.097 200.694a1.49 1.49 0 0 0-1.676.483l-.495-.145a13 13 0 0 1-1.651-.651 11.9 11.9 0 0 1-2.822-1.917 13.1 13.1 0 0 1-3.617-5.571c-1.809-5.245-.386-11.19 2.616-15.675a1.452 1.452 0 1 0-2.327-1.736 20.7 20.7 0 0 0-3.714 16.482 16.17 16.17 0 0 0 9.249 11.479 7.9 7.9 0 0 0 4.075.856c1.652-.337 2.207-3.038.362-3.605M63.338 55.882l-.325-.253a1.5 1.5 0 0 1-.181-.205 1.2 1.2 0 0 0 0-.35 1.495 1.495 0 0 0-1.001-1.375c-.205-.494-.398-1-.579-1.507l-2.086-5.643a1.502 1.502 0 0 0-2.749 1.206c.314.928.603 1.845.892 2.773a26 26 0 0 0-3.05-1.435c-1.122-.434-2.496.796-1.905 1.966a10 10 0 0 0 7.5 5.402 5.16 5.16 0 0 0 1.712 1.784 1.45 1.45 0 0 0 2.27-.798 1.445 1.445 0 0 0-.534-1.517z"/>
</svg>
