<svg xmlns="http://www.w3.org/2000/svg" fill="none" viewBox="0 0 260 260">
  <path fill="#fff" d="M0 0h260v260H0z"/>
  <path fill="#3B82F6" d="M213.606 109.179s-19.153-2.091-17.902-22.69c1.251-20.6 24.567-29.141 36.02-26.854s22.691 13.68 22.065 23.453-5.628 13.68-5.628 13.68-2.072-5.863-6.04-7.094-4.866-1.954-7.329-1.583-6.195-2.775-8.482.547-3.126 11.042-6.253 13.525a47 47 0 0 0-6.451 7.016"/>
  <path fill="#fff" d="M227.405 102.378c-.43.88-.898 1.74-1.387 2.58a2.07 2.07 0 0 0 1.427-1.954c-.02-.235-.02-.43-.04-.626m7.701-12.606a6.2 6.2 0 0 0-.313-1.544 6.7 6.7 0 0 0-.723-1.563 8.5 8.5 0 0 0-3.909-3.245 16.3 16.3 0 0 0-4.553-1.075 859 859 0 0 1-.333-6.996v-2.99a18.3 18.3 0 0 1 5.043.449 1.54 1.54 0 0 0 1.703-1.019 1.546 1.546 0 0 0-.707-1.854 13.1 13.1 0 0 0-6.156-1.349c0-.88-.157-1.74-.274-2.599a1.79 1.79 0 0 0-1.641-1.642 1.758 1.758 0 0 0-1.837 1.388 29 29 0 0 0-.294 3.459c-1.239.35-2.432.841-3.557 1.466a10.44 10.44 0 0 0-4.769 5.023 6.605 6.605 0 0 0 .978 6.547 10.06 10.06 0 0 0 5.863 3.479q1.055.225 2.13.332c.137 2.072.293 4.163.489 6.254 0 .587.098 1.193.137 1.779s0 .665.097.997l-.801-.216a48 48 0 0 1-5.864-2.462 1.977 1.977 0 0 0-2.657.88 1.98 1.98 0 0 0 .88 2.658 30.2 30.2 0 0 0 6.469 2.775q1.153.347 2.345.527c0 .626.137 1.251.234 1.955.137-.254.255-.528.392-.801a33.6 33.6 0 0 0 1.954-6.743 9 9 0 0 1 .938-2.365 272 272 0 0 1-.333-4.222v-.566l.88.156h.293a5.02 5.02 0 0 1 3.909 2.834c.152.538.188 1.103.104 1.656a3.9 3.9 0 0 1-.593 1.55v.918a24 24 0 0 1-1.446 5.14 9.54 9.54 0 0 0 4.437-3.342c.412-1.536.485-3.143.215-4.71a5.7 5.7 0 0 1 1.27-.919m-17.707-9.479a2.807 2.807 0 0 1-.964-3.039c.11-.361.292-.697.534-.987a9.3 9.3 0 0 1 4.182-2.99v1.954c0 2.248.157 4.515.274 6.763a7.34 7.34 0 0 1-4.026-1.7"/>
  <path fill="#000" d="M251.893 70.677a28.43 28.43 0 0 0-22.123-13.27c-18.86-1.446-39.206 15.225-35.981 35.18a21.28 21.28 0 0 0 7.349 13.426c3.713 2.952 8.872 4.828 13.328 2.424a1.19 1.19 0 0 0 .452-1.345 1.19 1.19 0 0 0-1.155-.825 13.52 13.52 0 0 1-10.007-2.677 17.47 17.47 0 0 1-5.98-9.772 24.94 24.94 0 0 1 6.782-22.652 32.03 32.03 0 0 1 22.202-10.085 25.24 25.24 0 0 1 20.208 9.108 21.16 21.16 0 0 1 4.574 11.844 26.24 26.24 0 0 1-4.104 13.817c-1.036 1.74 2.404 2.385 3.655.802 5.746-7.232 5.374-18.313.8-25.975M170.473 53.968a1.58 1.58 0 0 0-2.15-.469l-1.231 1.016a10.7 10.7 0 0 0-1.154-2.755 1.54 1.54 0 0 0-1.602-.684 1.56 1.56 0 0 0-1.251 1.211 7.4 7.4 0 0 0 0 2.854q.09.534.294 1.035c.207.484.498.927.86 1.31a1.28 1.28 0 0 0 .312.977c.198.252.485.42.801.47a1.51 1.51 0 0 0 1.33-.157l3.263-2.678c.337-.23.574-.58.665-.977.102-.388.053-.8-.137-1.153"/>
  <path fill="#3B82F6" d="M64.134 55.375C54.772 48.182 40.68 47.87 40.68 47.87s-1.955 35.297 0 35.61c1.954.312 32.15-7.506 32.15-7.506s.664-13.427-8.697-20.6"/>
  <path fill="#000" d="M76.466 98.527a40.07 40.07 0 0 1-18.175 18.411 40 40 0 0 1-5.453 2.228 30 30 0 0 0-4.32-.782 1.95 1.95 0 0 1-.215-1.114l-1.25.196c-2.248.293-2.932-3.401-.723-3.909a33 33 0 0 0 3.537-.958 32.17 32.17 0 0 0 20.267-19.114 30.16 30.16 0 0 0-3.91-27.362 28.81 28.81 0 0 0-24.859-12.391 28.79 28.79 0 0 0-24.04 13.68 31.82 31.82 0 0 0-1.954 27.793c.547 1.407-.937 2.521-2.15 2.306l-.351.313a7 7 0 0 1-.743.527l-.371.176a.4.4 0 0 1-.177.176 1.62 1.62 0 0 1-2.169 0l-.45-.488a15.5 15.5 0 0 1-2.188-3.167c-5.55-11.042-2.267-24.469 5.434-33.596a43.86 43.86 0 0 1 32.97-15.323 35.61 35.61 0 0 1 29.062 16.163 37.7 37.7 0 0 1 2.228 36.235"/>
  <path fill="#000" d="m65.678 76.248-2.619-1.016c-.547-.215-1.095-.45-1.642-.606l-.665-.196a5.3 5.3 0 0 0-.977 0 1.405 1.405 0 0 0-1.25.978 1.39 1.39 0 0 0 .37 1.524l.47.371-8.267 2.267-5.55 1.525-2.777.743-.605.136a4 4 0 0 1 0-.43c-.175-3.791-.196-7.602-.333-11.394l-.175-5.687v-2.13a1.524 1.524 0 0 0 1.954.273 1.525 1.525 0 0 0 .45-2.072c-.391-.547-.782-1.074-1.153-1.622-.371-.547-.84-1.035-1.251-1.583a1.39 1.39 0 0 0-1.251-.625 1.37 1.37 0 0 0-1.153.743c-.215.41-.43.8-.664 1.192l-.157.234-.391.509c-.254.332-.508.683-.8 1.016l-.177.215-.234.351q0-.204 0 0c0 .137-.294.45-.45.684a.92.92 0 0 0 .117 1.036.92.92 0 0 0 1.016.294l.645-.294c0 .958.137 1.955.157 2.776 0 2.189.117 4.378.195 6.567l.176 6.136c0 1.76-.312 4.34.763 5.864s3.38 1.309 5.179.8l5.96-1.66 9.617-2.639a1.7 1.7 0 0 0 1.113 1.76c.356.117.74.117 1.095 0 .176 0 .39-.177.567-.294a5 5 0 0 0 .488-.41l.371-.352.841-.782 1.642-1.544a1.72 1.72 0 0 0-.645-2.658M204.304 30.084a1.72 1.72 0 0 0-2.345.762c-.899 2.267-1.799 4.534-2.678 6.802l-.137-.255c-.625-1.485-1.173-2.99-1.778-4.475a58 58 0 0 0-4.3-8.62 33.07 33.07 0 0 0-13.134-12.996 30.9 30.9 0 0 0-20.638-2.091 35.6 35.6 0 0 0-9.616 3.909 16.2 16.2 0 0 0-4.651-8.287c-5.199-4.867-13.095-5.14-19.779-4.671a59.1 59.1 0 0 0-20.952 5.472 58.3 58.3 0 0 0-9.4 5.57 21.5 21.5 0 0 0-6.958 7.29 12 12 0 0 0-1.153 4.495c0 1.114 1.602 1.114 1.954.137 1.505-5.863 7.662-9.772 12.548-12.547a57.4 57.4 0 0 1 18.079-6.665 57 57 0 0 1 9.654-.919 27.9 27.9 0 0 1 9.146 1.154 13.43 13.43 0 0 1 8.972 10.612 48 48 0 0 0-5.746 4.593 49 49 0 0 0-6.685 7.68 7.18 7.18 0 0 0-1.661 5.043 4.49 4.49 0 0 0 2.756 3.518c3.244 1.368 6.254-.606 8.345-3.01a26.1 26.1 0 0 0 5.218-9.244 19.5 19.5 0 0 0 .86-6.782c7.935-4.847 17.59-6.86 26.522-3.264a28.67 28.67 0 0 1 12.508 10.496 55 55 0 0 1 4.202 7.309 65 65 0 0 1 3.205 7.368 20.5 20.5 0 0 1-5.14-4.67c-1.348-1.74-4.221 0-2.892 1.856a25.4 25.4 0 0 0 10.182 8.228 1.78 1.78 0 0 0 2.502-1.74l3.908-9.635a1.77 1.77 0 0 0 .065-1.41 1.78 1.78 0 0 0-.983-1.013m-59.16-4.3a25 25 0 0 1-2.56 3.909 9.46 9.46 0 0 1-3.206 2.892 2.7 2.7 0 0 1-2.95-.254c-.978-.977.116-2.658.722-3.537a44.2 44.2 0 0 1 5.863-6.9 41 41 0 0 1 4.203-3.556 19.4 19.4 0 0 1-2.072 7.446M125.893 96.554c-.547.176-1.075.39-1.602.547l-.373.098a5.7 5.7 0 0 1-.938 0h-.625a5 5 0 0 1-.919-.156h-.194l-.392-.157-.391-.156a2.3 2.3 0 0 1-.489-.235 1.405 1.405 0 0 0-1.777.47 1.426 1.426 0 0 0 .195 1.797 6.84 6.84 0 0 0 7.485 1.466 4.2 4.2 0 0 0 1.954-1.466 1.544 1.544 0 0 0-.175-1.954 1.63 1.63 0 0 0-1.759-.254M141.9 85.55c.095.174.237.316.41.41q.157.132.352.196a.9.9 0 0 0 .39 0c.325.032.65-.05.919-.234q.43-.318.821-.684a3 3 0 0 0 .47-.528q.24-.254.429-.547.252-.314.45-.665.108-.16.195-.332c.115-.217.175-.458.176-.704.058-.224.058-.46 0-.684l-.196-.41a1.27 1.27 0 0 0-.508-.508 1 1 0 0 0-.43-.215 1.36 1.36 0 0 0-.683-.117c-.468.04-.906.25-1.232.586a8.5 8.5 0 0 0-1.036 1.583 4 4 0 0 0-.313.626q-.192.52-.332 1.055v.762z"/>
  <path fill="#000" d="M253.556 97.883a3.68 3.68 0 0 0-2.314-1.631 3.67 3.67 0 0 0-2.787.498c-.117 0-.195.137-.293.195a9.4 9.4 0 0 0-1.837-6 6.335 6.335 0 0 0-6.587-2.443 5.06 5.06 0 0 0-2.169-1.7 4.7 4.7 0 0 0-3.498 0 5 5 0 0 0-.763.41c-.341.24-.644.53-.899.86a4.8 4.8 0 0 0-3.694-1.74 5.5 5.5 0 0 0-1.954.372 5 5 0 0 0-.84.43 7.7 7.7 0 0 0-2.932 3.147 10.5 10.5 0 0 0-.782 2.15c-.235.84-.391 1.7-.567 2.56a17 17 0 0 1-.742 2.814 7 7 0 0 1-.43 1.036 16.6 16.6 0 0 1-2.639 3.909 109 109 0 0 1-9.342 8.365 25.17 25.17 0 0 0-7.602 11.179 39.3 39.3 0 0 0-.587 15.909c.703 5.961 1.524 11.903 2.286 17.844.567 4.476 1.154 8.971 1.74 13.446-3.225-3.479-6.43-6.957-9.655-10.417l-.84-.899c.266-.354.404-.788.391-1.231 0-2.834-.313-5.707-.509-8.541-.195-2.834-.37-5.648-.566-8.462a47.4 47.4 0 0 0-1.094-7.955 49.5 49.5 0 0 0-2.795-6.938 11.84 11.84 0 0 1-.899-6.958 71 71 0 0 0 1.407-7.818c.372-5.57-1.954-11.003-3.616-16.182-3.557-10.534-5.726-21.89-12.86-30.685a50 50 0 0 0-13.681-11.726 44.71 44.71 0 0 0-34.671-4.554 48.86 48.86 0 0 0-27.557 21.245A45 45 0 0 0 91.3 85.336c-.508 3.498-.762 7.055-1.466 10.534a25.4 25.4 0 0 1-3.909 9.128 27.9 27.9 0 0 0-4.533 8.208c-.938 3.42.332 6.332 1.818 9.362a6.74 6.74 0 0 1 1.035 3.909 6.55 6.55 0 0 1-2.072 3.459c-2.326 2.384-5.258 4.163-6.704 7.309a7.5 7.5 0 0 0-.703 3.636 1.5 1.5 0 0 0-.157.625c.028.388.115.771.255 1.134v.703a4.05 4.05 0 0 1-.176 1.544s-.117.293-.137.332l-.293.587a18 18 0 0 1-.567 1.036 19.5 19.5 0 0 0-1.212 2.286 6.82 6.82 0 0 0-.37 4.808 5.2 5.2 0 0 0 1.543 2.365 38 38 0 0 0-1.954 2.423c-1.857 2.365-3.616 4.828-5.317 7.33-.273.39-.546.801-.84 1.192.235-1.407.45-2.815.684-4.222 1.212-7.681 2.502-15.361 3.538-23.081a28.2 28.2 0 0 0-.176-10.789 16.14 16.14 0 0 0-4.358-7.563 21.5 21.5 0 0 0-6.958-4.593 31 31 0 0 0-6.86-1.955l-1.486-.234a101 101 0 0 0-14.404-.313 1 1 0 0 1-.097-.215c-1.056-2.072-2.11-4.124-3.146-6.196l-3.167-6.195a31.5 31.5 0 0 0-2.99-5.531 4.416 4.416 0 0 0-5.413-1.525 3.73 3.73 0 0 0-1.78 2.13 5.6 5.6 0 0 0-.723-.8 4.92 4.92 0 0 0-4.026-1.27c-.95.128-1.82.6-2.443 1.328a5.26 5.26 0 0 0-1.153 2.248 2.95 2.95 0 0 0-1.544 0 2.95 2.95 0 0 0-1.29.723 5.7 5.7 0 0 0-1.524 4.358v1.447a1.076 1.076 0 0 0-1.192.527 12.1 12.1 0 0 0-.684 6.352 35.4 35.4 0 0 0 1.055 6.254 34.1 34.1 0 0 0 5.511 11.512 34.1 34.1 0 0 0 21.499 13.27 35.5 35.5 0 0 0 7.055.528 91.3 91.3 0 0 0-12.39 23.688 110 110 0 0 0-4.183 14.228 52.2 52.2 0 0 0-1.329 15.948c.84 8.814 5.238 17.355 13.446 21.362a30.37 30.37 0 0 0 24.099.312 48.4 48.4 0 0 0 13.23-8.169c1.955-1.642 3.753-3.362 5.512-5.179 1.153-1.193 2.306-2.385 3.381-3.655.137 2.658.43 5.296.782 7.817.41 3.049.84 6.137 1.466 9.147a7.23 7.23 0 0 0 4.925 5.863q1.126.385 2.286.645c-.39.313-.742.645-1.074.938a36 36 0 0 0-3.362 3.342 39 39 0 0 0-5.57 8.229 39.3 39.3 0 0 0-3.38 9.381 38 38 0 0 0-.763 4.69 12.1 12.1 0 0 0 .097 5.297c.147.293.362.547.626.743a1.58 1.58 0 0 0 1.172 1.407c3.135.482 6.312.633 9.48.449h28.221c12.488 0 24.978 0 37.467-.117 7.075 0 14.149-.156 21.204-.195a1.59 1.59 0 0 0 1.388-.704 1.83 1.83 0 0 0 1.212-1.427 23.8 23.8 0 0 0-.45-8.795 31.3 31.3 0 0 0-2.911-7.954 28.6 28.6 0 0 0-4.985-6.841 21.3 21.3 0 0 0-3.185-2.755 19 19 0 0 0-1.681-1.095 15.5 15.5 0 0 0 7.408-10.456c1.29-4.984 1.055-10.475 3.42-15.088a142 142 0 0 0 11.726 9.284c8.873 6.058 19.544 10.69 30.43 9.478 9.987-1.094 19.291-6.762 22.867-16.456a43.2 43.2 0 0 0 2.169-16.397 170 170 0 0 0-1.7-18.333c-.997-7.094-2.307-14.15-3.772-21.166-1.388-6.684-2.755-13.466-4.671-20.033l2.423-1.583c1.955-1.231 3.909-2.502 5.707-3.909a41.8 41.8 0 0 0 9.538-9.772 26 26 0 0 0 4.573-11.883 9 9 0 0 0-.762-5.844m-88.613 1.564c.293-4.476.625-17.316.625-17.336 0 .313 4.319 2.404 5.609 4.046 3.909 4.984 1.017 11.61-4.026 14.58q-1.142.663-2.384 1.114c.059-.84.137-1.642.176-2.443zm-62.385-17.16a15.9 15.9 0 0 1 1.289-4.886 23 23 0 0 1 2.932-6.293c2.873-3.284 7.662-6.372 11.532-2.834l.625.626q.059.071.097.156.133.144.235.313c.489.644.958 1.543 1.857 1.641a1.43 1.43 0 0 0 1.466-.703c.958-1.486-1.016-3.577-1.955-4.476a11.6 11.6 0 0 0-3.479-1.955c.665-.566 1.29-1.172 1.954-1.66a29.4 29.4 0 0 1 4.222-2.64 27.8 27.8 0 0 1 9.401-2.892 28.2 28.2 0 0 1 10.222.665c1.65.413 3.259.976 4.807 1.68l1.252.606v.294a21 21 0 0 0-.177 3.127 17 17 0 0 0 .509 3.576 13.7 13.7 0 0 0-3.167-.801 12.3 12.3 0 0 0-9.772 2.6 1.407 1.407 0 0 0 0 1.954 1.47 1.47 0 0 0 1.857.312 12.5 12.5 0 0 1 7.525-1.309c11.59 1.954 12.254 17.296 2.423 22.046-5.863 2.834-13.857.097-15.928-6.293a11.4 11.4 0 0 1-.392-5.375 15.5 15.5 0 0 1 2.209-5.238c.781-1.368-1.094-3.225-2.384-2.17a9.93 9.93 0 0 0-2.932 4.066h-.117a8 8 0 0 0-1.485-.47 7.8 7.8 0 0 0-3.01 0 7 7 0 0 0-.841.255 1.98 1.98 0 0 0-.881-2.023 1.987 1.987 0 0 0-3.028 1.32 81 81 0 0 1-.879 3.615h-.352c-.467.041-.904.25-1.231.586a9 9 0 0 0-1.036 1.564c-.117.215-.215.43-.313.645s-.234.684-.332 1.036c-.098.351 0 .273 0 .39v.372q.066.18.156.352c.095.173.238.315.411.41a.6.6 0 0 0 .352.176h.196a10.2 10.2 0 0 1-5.121 4.788 6 6 0 0 1-6.411-.742 7.95 7.95 0 0 1-2.306-6.45zm40.124 38.795c.586 2.82.222 5.755-1.036 8.346a25.6 25.6 0 0 1-5.277 5.199 11.72 11.72 0 0 0-4.241 6.254 9.93 9.93 0 0 0 .489 4.788 36 36 0 0 1 1.583 4.515 6.1 6.1 0 0 1-1.348 4.651 21 21 0 0 0-2.893 5.101 6.08 6.08 0 0 0 .782 5.57 5.3 5.3 0 0 0 1.954 1.603 6.6 6.6 0 0 0 2.697 2.072c-5.551 3.733-12.488 5.863-18.996 3.654a15.64 15.64 0 0 1-8.014-6.215 13.7 13.7 0 0 1-1.803-5.755 13.7 13.7 0 0 1 .845-5.971 38.5 38.5 0 0 1 7.564-11.961l1.035.234c2.795.684 5.454 1.955 8.268 2.463a1.527 1.527 0 0 0 1.72-1.544 1.2 1.2 0 0 0 .332-.762c.293-3.44.411-6.88.606-10.3 0-1.661.176-3.323.274-5.003 0-1.153.176-2.385.137-3.577a25.2 25.2 0 0 0 5.863-.958 11.7 11.7 0 0 0 5.863-3.146 1.704 1.704 0 0 0-.705-2.704 1.7 1.7 0 0 0-1.074-.033c-1.642.352-3.127 1.33-4.729 1.838a20 20 0 0 1-4.672.879 20.04 20.04 0 0 1-9.44-1.544 19.32 19.32 0 0 1-11.178-14.365 26.9 26.9 0 0 1 .527-10.73c.956.061 1.915-.004 2.854-.195a12.2 12.2 0 0 0 4.593-1.955c.083.313.26.593.507.802a1.96 1.96 0 0 0 2.248.176 12.96 12.96 0 0 0 5.863-6.645 13 13 0 0 0 1.036-4.613 6.2 6.2 0 0 0-.234-1.954 1 1 0 0 1 .274 0h1.27l.41.117h.176l.411.215.234.156h.235a15.5 15.5 0 0 0 .214 4.672 14.48 14.48 0 0 0 7.818 10.065 16.05 16.05 0 0 0 12.938.547 17.2 17.2 0 0 0 5.551-3.655c-.665 4.593-5.707 8.13-8.56 11.434a14.8 14.8 0 0 0-3.753 8.716c-.05 3.178.212 6.353.782 9.479zm-99.343 22.144a.7.7 0 0 0 0-.176 42 42 0 0 0 3.537-.684c2.209-.547 1.115-3.909-1.074-3.342a31.5 31.5 0 0 1-22.554-3.127 30.88 30.88 0 0 1-14.267-17.59 5 5 0 0 1-.157-.527 31.4 31.4 0 0 0 7.818 11.726 1.798 1.798 0 0 0 2.423-2.639 28.84 28.84 0 0 1-7.818-12.684 37.8 37.8 0 0 1-1.465-7.387 29 29 0 0 1-.235-3.909 1.95 1.95 0 0 1 .743-1.681c0 .195 0 .391.098.567a67 67 0 0 0 2.403 8.462 49 49 0 0 0 3.323 7.974 25.4 25.4 0 0 0 5.864 7.427 1.684 1.684 0 0 0 2.383-.117 1.69 1.69 0 0 0-.117-2.384 32.8 32.8 0 0 1-8.325-14.404 114 114 0 0 1-1.27-4.183 17 17 0 0 1-1.037-4.554c0-.88.411-2.247 1.525-2.11a3 3 0 0 1 1.68 1.074 9 9 0 0 1 1.486 1.955c.072.148.19.27.333.352.156 1.211.39 2.423.606 3.596a58 58 0 0 0 1.485 6.019 59 59 0 0 0 5.687 12.802c1.114 1.856 3.909 0 2.833-1.837a52 52 0 0 1-2.208-4.105 59 59 0 0 1-1.74-3.908 53.8 53.8 0 0 1-3.146-11.844 7.45 7.45 0 0 1-.117-3.91c.547-1.133 1.74.958 1.954 1.427 1.837 3.499 3.538 7.095 5.297 10.613l2.13 4.28.88 1.779 1.016 1.954c.156.313.313.626.488.938a4.07 4.07 0 0 0 2.346 2.404c.665.215 1.211-.371 1.407-.938a3.09 3.09 0 0 0-.312-2.384c2.912 0 5.862 0 8.735.098.802 0 1.623-.001 2.444.195 1.456.154 2.9.416 4.319.782 3 .691 5.813 2.025 8.248 3.909a13.27 13.27 0 0 1 4.358 5.726 20.6 20.6 0 0 1 .625 9.635c-.899 7.271-2.208 14.502-3.342 21.733a1.1 1.1 0 0 0-.313.235c-.469.489-.684 1.133-1.114 1.681a5.5 5.5 0 0 1-1.133 1.094 8 8 0 0 1-3.693 1.388 30.7 30.7 0 0 1-9.362-.372 14.15 14.15 0 0 1-7.564-3.322 11.14 11.14 0 0 1-2.99-5.863c2.208-4.124 4.553-7.994 6.879-11.883zm192.686 23.238c.997 6.078 1.778 12.176 2.248 18.293a60.3 60.3 0 0 1-.313 15.909 22.5 22.5 0 0 1-6.587 12.567 24.67 24.67 0 0 1-11.727 5.746c-10.006 2.111-20.071-1.681-28.455-6.957-10.769-6.782-19.447-16.359-29.707-23.845a1.956 1.956 0 0 0-2.697.118 1.954 1.954 0 0 0 .117 2.717c4.671 3.4 9.01 7.211 13.368 11.003-2.482 4.182-2.775 9.127-3.538 13.818-.625 3.908-1.836 8.501-5.433 10.729a13.3 13.3 0 0 1-6.899 1.525c-2.854 0-5.727-.176-8.58-.235a341 341 0 0 1-17.59-.879 336 336 0 0 1-34.807-4.554l-3.91-.762a6.3 6.3 0 0 1-3.107-1.153 4.9 4.9 0 0 1-1.114-2.58c-.254-1.29-.41-2.619-.606-3.909a103 103 0 0 1-1.602-17.688c.176-10.241 3.81-21.146 12.859-26.892a1.757 1.757 0 0 0 .235-2.717 9.6 9.6 0 0 1-2.19-4.886 1.41 1.41 0 0 0-1.467-1.181 1.404 1.404 0 0 0-1.327 1.337 11.2 11.2 0 0 0 1.388 5.473c-7.818 5.218-11.922 14.697-12.978 23.785a54 54 0 0 0-.35 6.137 2.3 2.3 0 0 0-.588.371c-1.622 1.466-3.048 3.127-4.573 4.691a87 87 0 0 1-4.75 4.515 49.4 49.4 0 0 1-10.28 7.036 28.54 28.54 0 0 1-22.045 2.091c-7.623-2.678-12.176-9.772-13.33-17.59-.59-4.85-.366-9.765.665-14.541.897-4.574 2.112-9.08 3.636-13.485a100 100 0 0 1 4.32-10.652 13.4 13.4 0 0 0 2.559 3.616 17.6 17.6 0 0 0 9.616 4.553c3.864.778 7.838.844 11.727.196a11.4 11.4 0 0 0 3.752-1.427c-.332 2.13-.665 4.261-.977 6.391a75.3 75.3 0 0 0-1.427 12.86c0 1.72 2.267 1.583 2.736.215a57 57 0 0 0 2.11-10.104c.237-.115.445-.282.607-.489 1.583-1.954 2.892-4.3 4.32-6.449a122 122 0 0 1 4.298-6.039 75 75 0 0 1 9.772-10.808c6.763-6.02 15.324-10.281 24.529-10.183q1.835.01 3.655.254a32.4 32.4 0 0 0-7.017 10.339 17.923 17.923 0 0 0 0 14.463 18.62 18.62 0 0 0 8.99 8.501 21.7 21.7 0 0 0 13.525 1.329 30.14 30.14 0 0 0 13.524-7.035 10.6 10.6 0 0 0 3.127-.665 11.43 11.43 0 0 0 7.232-9.459c.254-2.815-.997-6.587.156-9.206s5.531-4.827 8.248-5.57c7.68-2.071 17.257 2.365 23.199 7.017a86 86 0 0 1 9.576 9.068c3.362 3.538 6.704 7.114 10.046 10.671l3.127 3.323c0 .488.117.977.195 1.466a122 122 0 0 0 2.502 15.967c.274 1.231 2.131.801 2.111-.391a93 93 0 0 0-.684-12.547l-.703-5.707q-.704-5.707-1.427-11.453c-.117-.899-.216-1.798-.333-2.716l.626.39a22.5 22.5 0 0 0 3.909 1.818 22.6 22.6 0 0 0 9.322 1.329 23.45 23.45 0 0 0 13.681-5.863c.469 2.951.997 5.921 1.505 8.951zm15.049-61.252c-1.564 7.486-6.977 13.427-12.958 17.864a90 90 0 0 1-5.57 3.772c-.919.586-1.954 1.114-2.834 1.642a6 6 0 0 0-2.873 2.208 1.41 1.41 0 0 0 .133 1.339 1.4 1.4 0 0 0 1.196.616c.307-.001.611-.054.899-.157.978 5.316 2.326 10.573 3.479 15.85.332 1.505.645 3.03.958 4.554a19.92 19.92 0 0 1-13.271 6.548 19.55 19.55 0 0 1-7.817-1.036 21 21 0 0 1-3.499-1.603c-.957-.527-1.954-1.212-2.853-1.681-.43-3.342-.841-6.664-1.251-9.987a102.5 102.5 0 0 1-1.368-15.635 19.92 19.92 0 0 1 3.909-12.157 65.8 65.8 0 0 1 8.618-8.189 29.8 29.8 0 0 0 6.939-8.071c.137-.254.273-.528.39-.802a33.5 33.5 0 0 0 1.955-6.742 9 9 0 0 1 .938-2.365 2.77 2.77 0 0 1 2.659-1.681c1.407.176 1.66 1.837 1.621 3.166v.919a24 24 0 0 1-1.446 5.14 62 62 0 0 1-.86 2.071c-.293.685-.489 1.056-.743 1.584a36 36 0 0 1-1.388 2.56 15.7 15.7 0 0 1-4.26 5.609c-1.544 1.505.938 3.753 2.462 2.248 3.733-3.655 3.909-4.574 6.274-9.284a45 45 0 0 0 2.775-7.388c0-.234.137-.488.196-.742.393-1.54.467-3.142.215-4.71a5.3 5.3 0 0 1 1.427-.919c.213-.04.431-.04.644 0 .958 0 1.662 1.055 1.955 1.954a9.46 9.46 0 0 1-.195 4.613 32 32 0 0 1-1.095 3.909c-1.954 5.277-2.579 9.166-6.84 12.801-1.388 1.192.665 3.635 2.072 2.463 4.397-3.655 5.316-7.544 7.446-12.86a28.3 28.3 0 0 0 2.188-8.58 9 9 0 0 0-.253-2.697 4.63 4.63 0 0 1 3.381 2.599c1.133 2.6.371 5.863-.371 8.385-.176.625-.391 1.25-.586 1.954-.45.938-.842 1.954-1.193 2.834-1.681 3.518-2.325 6.782-5.238 9.44-1.465 1.309.801 3.342 2.228 1.954 4.612-4.163 6.431-9.772 8.072-15.792q.636-1.126 1.427-2.149c.371-.489 1.016-1.31 1.68-1.35.665-.038.899.763.997 1.291.176 1.56.05 3.139-.371 4.651z"/>
  <path fill="#000" d="M194.024 127.492c-1.447-1.524-3.147-2.736-3.225-5.023.197-2.31.786-4.57 1.74-6.684a23.78 23.78 0 0 0-.371-14.834 47.9 47.9 0 0 0-8.913-15.01 1.16 1.16 0 0 0-1.603-.351 1.16 1.16 0 0 0-.351 1.602c4.886 8.346 11.394 17.434 8.169 27.616a31.2 31.2 0 0 0-1.856 6.606 8.1 8.1 0 0 0 .318 3.333 8.1 8.1 0 0 0 1.636 2.921 15.5 15.5 0 0 1 3.752 4.671 14.15 14.15 0 0 1 .411 6.333c-.332 2.814-.821 5.609-1.251 8.423-.215 1.486-.45 2.971-.724 4.437a29.6 29.6 0 0 0-.703 4.905c0 1.955 2.854 1.955 3.362.235.321-1.328.523-2.682.606-4.046.156-1.505.371-2.99.586-4.475.371-2.619.762-5.238 1.114-7.818.684-4.652.703-9.225-2.697-12.841M93.607 94.444c-4.925 8.677-17.59 12.566-17.746 23.863a10.16 10.16 0 0 0 1.954 6.274 16.2 16.2 0 0 0 2.307 2.325c.527.469 1.563 1.232 1.504 1.955s-.938 1.172-1.465 1.505c-.939.547-1.955.977-2.893 1.544a15.2 15.2 0 0 0-5.414 5.218 9.77 9.77 0 0 0-.997 7.29c.489 1.955 2.6 5.746 5.14 4.593a1.27 1.27 0 0 0 .763-1.525c-.196-.996-.958-1.426-1.603-2.228a5.26 5.26 0 0 1-.958-2.286 6.53 6.53 0 0 1 1.466-5.101 15.3 15.3 0 0 1 5.277-3.909 6.51 6.51 0 0 0 4.105-4.515 6.16 6.16 0 0 0-2.814-5.296 7.4 7.4 0 0 1-2.874-4.886c-.508-4.691 2.483-8.463 5.688-11.492 1.954-1.955 4.142-3.597 6.097-5.512a18.3 18.3 0 0 0 4.613-6.782 1.194 1.194 0 1 0-2.15-1.035"/>
</svg>
