<svg xmlns="http://www.w3.org/2000/svg" width="128" height="128" fill="none" viewBox="0 0 128 128">
  <path fill="#fff" d="M0 0h128v128H0z"/>
  <path fill="#000" d="M117.938 111.04a6.31 6.31 0 0 1-6.878 1.37 6.3 6.3 0 0 1-2.047-1.37L88.867 90.895l8.926-8.926 20.145 20.145a6.31 6.31 0 0 1 1.37 6.879 6.3 6.3 0 0 1-1.37 2.047"/>
  <path fill="#fff" d="m90.267 77.298-6.075 6.074 6.103 6.103 6.074-6.075z"/>
  <path fill="#000" d="M90.294 89.89a.42.42 0 0 1-.3-.123l-6.1-6.1a.426.426 0 0 1 0-.6l6.07-6.07a.425.425 0 0 1 .601 0l6.1 6.1a.424.424 0 0 1 0 .595l-6.076 6.075a.4.4 0 0 1-.295.123m-5.504-6.523 5.504 5.504 5.475-5.474-5.505-5.504z"/>
  <path fill="#fff" d="M33.871 27.185a39.262 39.262 0 1 0 55.527 55.521 39.262 39.262 0 0 0-55.527-55.52m51.875 51.87A34.097 34.097 0 1 1 37.52 30.838a34.097 34.097 0 0 1 48.226 48.217"/>
  <path fill="#000" d="M61.637 94.592A39.665 39.665 0 1 1 89.7 82.988a39.56 39.56 0 0 1-28.062 11.604m0-78.489a38.823 38.823 0 1 0 14.862 2.95 38.7 38.7 0 0 0-14.862-2.93zm0 73.325a34.5 34.5 0 1 1 24.409-10.093 34.4 34.4 0 0 1-24.409 10.112zm0-68.16a33.659 33.659 0 1 0 23.808 9.846 33.58 33.58 0 0 0-23.808-9.827z"/>
  <path fill="#000" d="M61.653 88.837a33.82 33.82 0 0 0 28.062-14.942l-1.477-1.673a10.74 10.74 0 0 0-10.614-3.343l-22.991 5.617a10.74 10.74 0 0 0-8.108 9.132l-.192 1.55a33.7 33.7 0 0 0 15.32 3.659"/>
  <path fill="#fff" d="m68.747 70.784-5.686 8.975a3.29 3.29 0 0 1-5.908-.798L50.73 57.885l12.657-4.017z"/>
  <path fill="#000" d="M60.313 81.713q-.248 0-.493-.034a3.68 3.68 0 0 1-3.057-2.595l-6.424-21.076a.43.43 0 0 1 .275-.526l12.657-4.013a.42.42 0 0 1 .32.025.44.44 0 0 1 .207.246l5.366 16.916a.4.4 0 0 1-.044.35l-5.667 8.974a3.67 3.67 0 0 1-3.14 1.733m-9.069-23.552 6.302 20.677a2.87 2.87 0 0 0 5.169.694l5.563-8.807L63.1 54.4z"/>
  <path fill="#000" d="m65.793 63.867-3.17-9.999-11.9 3.776 3.397 10.703a14.43 14.43 0 0 0 11.673-4.48"/>
  <path fill="#000" d="m60.717 33.684-3.195.389c-7.449.91-13.292 6.483-14.15 13.513l-1.048 8.493c-.389 3.175 1.994 6.055 5.352 6.474l12.893 1.605z"/>
  <path fill="#000" d="m54.73 33.974 3.718-.26c8.66-.611 16.364 3.938 18.707 11.047l2.802 8.576c1.048 3.205-1.123 6.69-4.874 7.822l-14.39 4.348z"/>
  <path fill="#000" d="M56.015 37.597a.42.42 0 0 1-.394-.27l-2.953-7.823a4.05 4.05 0 0 1 .62-3.939.423.423 0 1 1 .674.493 3.18 3.18 0 0 0-.492 3.116l2.954 7.823a.42.42 0 0 1-.242.541.4.4 0 0 1-.167.06"/>
  <path fill="#000" d="m56.169 37.283-2.034-8.02c-.64-2.51 1.197-4.982 3.939-5.278l3.013-.325c2.998-.325 5.499 2.142 5.026 4.953l-1.555 9.226z"/>
  <path fill="#fff" d="M76.846 47.665a3.94 3.94 0 0 0-4.889-2.648h-.064c-1.728-5.987-6.228-10.255-11.505-10.255-5.844 0-10.728 5.223-11.958 12.214a3.94 3.94 0 0 0-3.703 3.284 3.94 3.94 0 0 0 3.235 4.524l.675.113c1.501 6.479 6.193 11.21 11.75 11.21 6.07 0 11.112-5.647 12.082-13.06l1.728-.493a3.94 3.94 0 0 0 2.649-4.889"/>
  <path fill="#000" d="M60.367 66.53c-5.514 0-10.451-4.617-12.1-11.263l-.394-.065a4.357 4.357 0 0 1 .177-8.62c1.393-7.227 6.4-12.243 12.307-12.243 5.19 0 9.886 4.066 11.791 10.166a4.36 4.36 0 0 1 5.076 3.017 4.36 4.36 0 0 1-2.954 5.416l-1.477.438c-1.068 7.655-6.287 13.154-12.426 13.154m0-31.35c-5.48 0-10.338 4.992-11.544 11.87a.42.42 0 0 1-.394.35 3.51 3.51 0 0 0-.419 6.965l.675.114a.43.43 0 0 1 .34.32c1.477 6.4 6.149 10.885 11.323 10.885 5.79 0 10.698-5.337 11.662-12.692a.43.43 0 0 1 .3-.35l1.729-.492a3.515 3.515 0 0 0 1.725-5.578 3.51 3.51 0 0 0-3.724-1.152h-.069a.42.42 0 0 1-.451-.14.4.4 0 0 1-.076-.145C69.751 39.202 65.29 35.2 60.367 35.2z"/>
  <path fill="#000" d="M65.758 35.683a10 10 0 0 0-5.553-1.733c-6.011 0-11.043 5.676-12.308 13.292-.393.016-.78.095-1.147.236 7.07.345 14.282-4.214 19.008-11.796"/>
  <path fill="#000" d="M51.442 48.95a.424.424 0 0 1-.044-.847c5.415-.531 10.5-4.864 13.292-11.323a.423.423 0 0 1 .773.34c-2.91 6.72-8.266 11.25-13.981 11.815z"/>
  <path fill="#000" d="M63.327 43.18a.4.4 0 0 1-.241-.079.42.42 0 0 1-.103-.585 13.44 13.44 0 0 0 2.304-6.661.422.422 0 0 1 .755-.258.43.43 0 0 1 .087.327 14.25 14.25 0 0 1-2.462 7.074.41.41 0 0 1-.34.182M72.286 50.412a.43.43 0 0 1-.418-.354 2.85 2.85 0 0 1 1.28-2.856.423.423 0 0 1 .58.143.43.43 0 0 1-.142.581 1.99 1.99 0 0 0-.882 1.994.43.43 0 0 1-.35.492zM47.966 52.165h-.054a.425.425 0 0 1-.364-.492 2.01 2.01 0 0 0-1.02-1.935.423.423 0 0 1 .414-.739 2.85 2.85 0 0 1 1.442 2.782.424.424 0 0 1-.418.384"/>
  <path fill="#2563EB" d="M56.258 54.858a4.757 4.757 0 0 1-.928-9.42 4.756 4.756 0 0 1 5.683 4.664 4.76 4.76 0 0 1-4.755 4.756m0-8.67a3.939 3.939 0 1 0-.059 7.878 3.939 3.939 0 0 0 .059-7.878M66.423 54.858a4.756 4.756 0 1 1 0-9.512 4.756 4.756 0 0 1 0 9.512m0-8.67a3.938 3.938 0 1 0-.05 7.877 3.938 3.938 0 0 0 .05-7.877"/>
  <path fill="#2563EB" d="M61.756 50.954h-.886a.423.423 0 1 1 0-.847h.886a.423.423 0 1 1 0 .847"/>
  <path fill="#000" d="M56.09 50.402c.054.798.493 1.413 1.02 1.379.526-.035.87-.71.816-1.507s-.492-1.413-1.019-1.373-.87.709-.817 1.501M64.223 50.284c0 .798.409 1.448.92 1.448.513 0 .916-.65.916-1.448s-.408-1.442-.915-1.442-.92.664-.92 1.442M60.146 61.297h-.09a6.5 6.5 0 0 1-3.937-2.55.424.424 0 1 1 .708-.458 5.72 5.72 0 0 0 3.412 2.181.424.424 0 0 1-.089.837zM61.584 56.655a.424.424 0 0 1-.414-.33.42.42 0 0 1 .32-.492 1.11 1.11 0 0 0 .724-.547 1.1 1.1 0 0 0 .083-.906l-.984-2.924a.424.424 0 1 1 .802-.27l.985 2.923a1.97 1.97 0 0 1-1.418 2.546z"/>
  <path fill="#2563EB" d="M54.83 34.722a.43.43 0 0 1-.424-.443.42.42 0 0 1 .28-.374c6.361-2.264 10.728-.35 10.91-.266a.422.422 0 0 1 .117.69.42.42 0 0 1-.462.078c-.044 0-4.258-1.85-10.279.29a.4.4 0 0 1-.143.025M98.144 51.15c8.876 0 16.071-7.195 16.071-16.071s-7.195-16.071-16.07-16.071-16.072 7.195-16.072 16.071S89.27 51.15 98.144 51.15"/>
  <path fill="#2563EB" d="m81.994 51.23 2.177-8.13 2.177-8.137 5.96 5.953 5.953 5.96-8.137 2.177z"/>
  <path fill="#fff" d="M41.58 29.282H19.969l-.65-1.122-1.654-2.865-1.654 2.865-.65 1.122h-2.614a4.603 4.603 0 1 0 0 9.202H41.58a4.603 4.603 0 0 0 0-9.202"/>
  <path fill="#000" d="M41.58 38.907H12.747a5.026 5.026 0 0 1 0-10.048h2.368l2.186-3.776a.415.415 0 0 1 .575-.155q.098.056.153.155l2.181 3.776h21.372a5.026 5.026 0 0 1 0 10.048m-28.834-9.201a4.185 4.185 0 0 0 0 8.37H41.58a4.184 4.184 0 1 0 0-8.37H19.968a.44.44 0 0 1-.369-.212l-1.935-3.357-1.94 3.357a.42.42 0 0 1-.364.212z"/>
  <path fill="#000" d="M25.276 34.196H13.461a.423.423 0 0 1 0-.842h11.815a.424.424 0 1 1 0 .842M36.234 34.196h-7.586a.424.424 0 1 1 0-.842h7.586a.424.424 0 0 1 0 .842"/>
  <path fill="#fff" fill-rule="evenodd" d="M91.437 28.437a1.23 1.23 0 0 1 1.74 0l5.284 5.284 5.284-5.284a1.23 1.23 0 0 1 1.351-.284 1.23 1.23 0 0 1 .389 2.025l-5.283 5.283 5.283 5.284a1.227 1.227 0 0 1-.015 1.725 1.23 1.23 0 0 1-1.725.015l-5.284-5.283-5.283 5.283a1.23 1.23 0 0 1-1.74-1.74l5.283-5.284-5.284-5.283a1.23 1.23 0 0 1 0-1.74" clip-rule="evenodd"/>
</svg>
