<svg xmlns="http://www.w3.org/2000/svg" width="128" height="128" fill="none" viewBox="0 0 128 128">
  <g clip-path="url(#woman-wavinga)">
    <path fill="#EFF6FF" d="M0 64C0 28.654 28.654 0 64 0s64 28.654 64 64-28.654 64-64 64S0 99.346 0 64"/>
    <path fill="#1D4ED8" d="M154.357 200.358a13.7 13.7 0 0 1-2.069 1.837c-4.255 3.221-13.029 7.436-23.692 6.39a23 23 0 0 1-.873-.102 34.5 34.5 0 0 1-6.767-1.533c-16.428-5.47-39.672-110.91-39.672-110.91s13.874 1.201 20.72 11.521c5.278 7.918 20.77 39.423 23.454 44.896.258.529.402.811.402.811l9.981-12.008s13.832 8.875 18.574 23.653c6.711 20.805 3.158 31.825-.058 35.445"/>
    <path fill="#1E293B" d="M51.805 20.948a12.58 12.58 0 0 1-3.965 10.99q-.428.405-.898.76a.6.6 0 0 1-.124.085 12.55 12.55 0 0 1-15.33-.287s-.033.005-.044-.033c-.329-.264-.638-.549-.955-.843a12.587 12.587 0 0 1 6.88-21.38 2 2 0 0 1 .255-.036q.495-.071.995-.091a12.47 12.47 0 0 1 8.633 2.756q.403.321.77.683a12.4 12.4 0 0 1 3.783 7.396"/>
    <path fill="#1E293B" d="M59.187 54.548a22.8 22.8 0 0 1-.632 5.157 13.9 13.9 0 0 1-2.15 4.848c-3.445 4.654-8.439 5.009-14.412 6.145-11.165 2.1-22.524.624-24.645-10.543-1.544-8.24.632-18.353 7.478-24.083a18.732 18.732 0 0 1 6.396-3.516 1 1 0 0 1 .247-.085 19 19 0 0 1 2.315-.577c4.606-.876 9.194-.701 13.182.813q.305.102.596.239c5.388 2.301 9.564 7.231 11.13 15.749.355 1.93.521 3.89.495 5.853"/>
    <path fill="#C26844" d="m49.08 76.716.39 40.815-21.405.199-.315-33.146 5.388-1.992z"/>
    <path fill="#000" d="M48.36 84.713a18.6 18.6 0 0 1-7.19 8.877c-3.414 2.255-9.331 1.795-13.325 1.105l-.096-10.128 5.393-1.992c7.106.91 15.219 2.138 15.219 2.138"/>
    <path fill="#C26844" d="M33.828 37.99c-4.013.895-7.218 3.809-10.028 6.73-3.05 3.175-4.508 6.958-4.98 11.424a47 47 0 0 0 .325 10.563c.566 4.61 1.857 7.931 3.659 12.185s5.054 7.548 8.902 9.96c7.497 4.698 16.103.5 20.373-6.47 5.396-8.815 6.296-17.677 5.033-28.005-.406-3.325-1.116-6.805-3.096-9.49-2.555-3.463-6.79-5.084-10.871-6.168-3.017-.802-6.182-1.403-9.23-.748z"/>
    <path fill="#1E293B" d="M58.97 52.893c.297 2.162.798 4.786-.39 6.758a1.6 1.6 0 0 1-.587.644 1.49 1.49 0 0 1-1.86-.573 3.4 3.4 0 0 1-.412-1.323c-.529-3.026-1.354-6.811-2.996-9.493-2.824-4.682-8.59-6.182-13.852-6.506a18.4 18.4 0 0 0-10.926 2.984c-.294.198-.576.4-.85.618l-.028.004c-3.121 2.497-4.233 6.498-5.717 10.048-.614 1.476-1.363 4.098-2.914 4.908-1.72.89-1.085-9.119-.572-11.33S22.61 42.5 22.61 42.5l2.607-2.184.894-.749 2.426-2.023 8.052-2.33s6.199 1.283 9.703 2.226a17.94 17.94 0 0 1 7.665 3.87c2.477 1.992 1.353 2.344 3.248 5.261 1.23 1.78 1.506 4.232 1.764 6.32"/>
    <path fill="#000" d="M32.301 63.563c.153 1.602-.487 2.969-1.427 3.058-.94.09-1.846-1.132-1.982-2.735-.136-1.604.488-2.97 1.433-3.06s1.813 1.137 1.976 2.737M47.076 62.743c-.015 1.608-.792 2.926-1.742 2.899s-1.697-1.322-1.682-2.93c.016-1.607.787-2.925 1.737-2.897.95.027 1.703 1.32 1.687 2.928M38.634 64.416c-.293-.58-1.258-.221-.957.369.498.962.966 1.946 1.369 2.95.246.602.632 1.36.491 2.016a3.14 3.14 0 0 1-1.198 1.529c-.505.43.095 1.266.6.836.856-.732 1.707-1.554 1.646-2.773-.077-1.669-1.205-3.48-1.95-4.927"/>
    <path fill="#1E293B" d="M29.265 54.189a6.95 6.95 0 0 0-2.948 1.876c-.2.221-.339.49-.405.782a.91.91 0 0 0 .245.84c.183.126.401.192.624.19 1.947.18 3.907.152 5.848-.083.35-.015.69-.126.98-.32a1.57 1.57 0 0 0 .473-1.485c-.45-2.417-2.768-2.516-4.817-1.8M42.663 55.936a1.56 1.56 0 0 0 .486 1.482c.291.192.63.3.978.316 1.945.212 3.906.22 5.852.024.224.003.444-.067.626-.199a.9.9 0 0 0 .234-.838 1.8 1.8 0 0 0-.412-.783 6.94 6.94 0 0 0-2.964-1.846c-2.056-.697-4.378-.575-4.8 1.844"/>
    <path fill="#C26844" d="M21.983 61.511s-2.255-4.112-5.85-2.469c-5.046 2.306-1.558 12.959 4.083 14.121 5.642 1.163 1.767-11.652 1.767-11.652"/>
    <path fill="#000" d="M18.902 63.676a6.06 6.06 0 0 0 .494 6.13c.38.545 1.237-.018.858-.563a5.02 5.02 0 0 1-.433-5.073c.282-.614-.635-1.096-.919-.494"/>
    <path fill="#C26844" d="M53.948 61.23s2.253-4.102 5.86-2.452c5.036 2.328 1.507 12.965-4.135 14.09-5.643 1.126-1.725-11.639-1.725-11.639"/>
    <path fill="#000" d="M57.014 63.416a6.05 6.05 0 0 1-.513 6.105c-.376.541-1.236-.022-.855-.57a4.99 4.99 0 0 0 .43-5.068c-.258-.601.659-1.065.938-.467"/>
    <path fill="#fff" d="M43.848 74.843a45 45 0 0 1-5.538.497c-2.438.008-5.543-.325-5.543-.325s1.426 4.31 5.56 4.306c4.76-.046 5.52-4.478 5.52-4.478"/>
    <path fill="#000" d="M48.02 13.57c-.127.14-.243.28-.368.433-3.653 4.491-7.235 10.973-6.282 16.926q.026.082.023.166c2.175.123 4.337.404 6.47.84q-.428.405-.897.76.305.103.596.24l-.737-.153a47.5 47.5 0 0 0-15.33-.286 3 3 0 0 0-.293.04 1 1 0 0 1 .248-.085c-.33-.264-.639-.549-.956-.843a48 48 0 0 1 5.612-.575c-3.392-5.364-2.19-13.141.2-18.62q.479-1.117 1.07-2.18.125-.026.254-.035a10 10 0 0 1 .995-.092c-.389.65-.74 1.336-1.062 2.022-2.534 5.42-4.035 13.513-.345 18.758q.02.06.017.122a51 51 0 0 1 3.099.041c-.941-6.023 2.41-12.416 6.003-17.057.293-.372.591-.746.897-1.098q.411.317.786.675"/>
    <path fill="#C26844" d="M85.974 124.11c-.934 13.003-10.154 32.33-17.227 33.056-7.073.727-43.323-1.961-43.323-1.961L7.849 138.816l8.952-31.252s2.873-1.504 7.572-3.396l.689-.272a120.8 120.8 0 0 1 26.617-7.192l.728-.1c3.067-.422 4.679-.458 4.679-.458s29.819 14.974 28.888 27.964"/>
    <path fill="#fff" d="M12.992 131.489s39.69 11.989 41.72 11.895c2.032-.094 20.44-30.833 20.44-30.833s12.343 20.942 17.021 26.609-7.053 45.878-7.053 45.878-6.87 4.283-21.789 6.334c-14.918 2.051-30.838-.4-30.838-.4z"/>
    <path fill="#1D4ED8" d="M36.105 235.072c.007.253.008.495.014.748.456 31.431-.594 60.012-.594 60.012s-18-.242-29.384-3.87c-11.385-3.627-20.346-7.597-20.346-7.597S-5.88 219.557-2.4 192.722c.06-.448.109-.878.164-1.301.76-5.85 1.261-9.62 1.33-10.086.395-2.525-1.822-61.841-.868-63.403.955-1.563 18.573-10.368 18.573-10.368s5.065 25.108 13.64 58.825c3.846 15.148 5.266 42.809 5.667 68.683"/>
    <path fill="#1D4ED8" d="M59.99 225.046a26 26 0 0 1-1.457 2.043c-11.11 13.946-32.674 8.42-41.595-2.243-9.327-11.152-25.65-46.207-30.752-60.351s-5.746-29.643 2.34-39.661c6.546-8.102 28.268-17.269 28.268-17.269l16.892 68.369.229.928.09-.101 12.661-13.894s23.891 45.695 13.324 62.179M57.074 96.14s11.534 20.835 23.264 48.171c11.73 27.337 56.992 92.369 56.992 92.369s-23.731-124.144-26.219-130.095C92.4 90.585 57.074 96.14 57.074 96.14"/>
    <path fill="#fff" d="M52.391 96.586c.947 11.901 1.554 29.219-2.724 30.948q-.257.112-.536.147c-5.338.734-18.242-14.995-24.773-23.523l.688-.272c6.74 8.722 20.027 24.716 24.35 22.972 3.637-1.472 3.255-17.535 2.27-30.148.25-.059.48-.09.725-.124"/>
    <path fill="#fff" d="M45.399 119.432c-7.016.965-14.303-6.903-14.63-7.261l.547-.479c.08.09 8.23 8.888 15.161 6.786 6.932-2.103 5.607-15.609 5.593-15.744l.732-.072c.06.58 1.34 14.258-6.11 16.52a8 8 0 0 1-1.293.25"/>
    <path fill="#2563EB" d="M23.122 95.66c-2.471.34-4.615-5.658-5.453-11.757s.214-12.537 2.077-12.793a.513.513 0 1 1 .14 1.017c-.641.212-2.156 4.804-1.216 11.638.958 6.973 3.151 11.038 4.312 10.878s2.176-4.665 1.217-11.638c-.826-6.005-2.344-10.495-2.946-11.1a.5.5 0 0 1-.403-.429.513.513 0 0 1 .44-.578c1.658-.228 3.397 8.119 3.927 11.967.827 6.1.382 12.455-2.095 12.796M54.942 83.448c-.532-3.87-1.135-12.352.551-12.584a.514.514 0 0 1 .302.967c-.416.74-.66 5.477.164 11.477.96 6.978 3.153 11.043 4.314 10.883s2.175-4.665 1.216-11.644c-.937-6.812-3.626-10.842-4.313-10.877a.514.514 0 0 1-.14-1.018c1.869-.257 4.623 5.68 5.459 11.757s.395 12.459-2.082 12.8c-2.477.34-4.632-5.657-5.471-11.761"/>
    <path fill="#C26844" d="M21.828 73.032a1.06 1.06 0 0 0 .776-.71c.1-.475.077-.969-.067-1.433 0 0-1.25-.69-1.46-.576a3.6 3.6 0 0 0-.647.703l.377 1.553z"/>
    <path fill="#C26844" d="M23.885 81.054s.944 1.498 1.346 2.006 1.67-.145 1.67-.145l1.532-5.704-1.183-5.32-3.413-1.22-2.885 1.061zM54.443 77.894l.973-2.387.479-2.376.338-1.309.04-.9s-.7-.987-.988-.79c-.288.198-1.703 1.503-1.703 1.503l-.63 2.013z"/>
    <path fill="#000" d="M27.99 45.36c-.294.2-.576.401-.85.62a31.7 31.7 0 0 1-1.908-5.682 19 19 0 0 1-.458-4.23c.343-.29.7-.564 1.069-.835a16.8 16.8 0 0 0 .283 4.316 29 29 0 0 0 1.864 5.812"/>
    <path fill="#C26844" d="M104.123 88.37s-5.858-9.11-9.231-13.566c-5.506-7.272-8.237-11.154-7.18-12.408 1.501-1.783 3.506-2.093 7.537 1.882 0 0-5.374-9.766-5.49-12.767-.115-3.001 3.292-3.871 4.389-3.071 0 0-.337-2.476 1.444-3.406 2.5-1.306 4.215.586 4.809 1.554 0 0 3.529-2.986 5.959.364s16.831 25.289 16.831 25.289l-4.299 16.62z"/>
    <path fill="#000" d="M98.996 66.801c3.919-.806 6.625 2.085 8.232 5.114a.52.52 0 0 0 .317.257.57.57 0 0 0 .695-.363.52.52 0 0 0-.029-.407c-1.816-3.475-5.022-6.547-9.427-5.642a.58.58 0 0 0-.35.24.53.53 0 0 0-.083.404.5.5 0 0 0 .233.332c.12.074.27.098.412.065M94.012 48.508l7.159 13.702a.56.56 0 0 1 .046.402.48.48 0 0 1-.238.301.48.48 0 0 1-.383.024.56.56 0 0 1-.304-.268l-7.557-14.465c.437-.054.889.053 1.277.304M101.122 46.06l7.103 13.594c.065.123.08.266.043.396a.48.48 0 0 1-.239.299.48.48 0 0 1-.382.026.54.54 0 0 1-.301-.262l-7.047-13.488q.385-.322.823-.566"/>
    <path fill="#1D4ED8" d="M113.475 122.181c.492-8.06-12.552-30.366-13.044-33.566s8.548-4.48 13.292-8.369c3.364-2.757 7.522-7.436 9.227-9.407.409-.472 1.133-.472 1.509.027 3.708 4.914 20.342 27.929 19.089 43.686-1.1 13.828.697 22.164 1.54 25.16.179.636-.265 1.313-.924 1.361l-33.11 2.431a.985.985 0 0 1-1.042-.812l-.71-4.065a1.04 1.04 0 0 1 .165-.752c1.736-2.624 3.537-7.984 4.008-15.694"/>
  </g>
  <defs>
    <clipPath id="woman-wavinga">
      <path fill="#fff" d="M0 64C0 28.654 28.654 0 64 0s64 28.654 64 64-28.654 64-64 64S0 99.346 0 64"/>
    </clipPath>
  </defs>
</svg>
