<svg xmlns="http://www.w3.org/2000/svg" width="192" height="192" fill="none" viewBox="0 0 192 192">
  <path fill="#fff" d="M0 0h192v192H0z"/>
  <path fill="#000" d="M161.504 40.22a37.4 37.4 0 0 0-7.188-6.845 22.95 22.95 0 0 0-8.826-4.246c-7.05-1.473-14.154 2.224-19.524 6.35s-9.708 9.376-11.429 15.805-.785 13.395 3.511 18.418 12.034 8.037 18.492 5.358c1.528-.63.813-2.96-.812-2.437-2.518.759-5.202.83-7.759.207a14.5 14.5 0 0 1-6.74-3.744c-4.131-4.018-5.343-10.113-4.31-15.565 1.265-5.798 4.536-10.999 9.266-14.734a39.8 39.8 0 0 1 7.629-5.01 18.4 18.4 0 0 1 9.321-2.25 18 18 0 0 1 8.827 3.335c2.905 1.956 5.273 4.5 8.013 6.698.909.576 2.286-.402 1.529-1.34"/>
  <path fill="#000" d="M137.704 33.353a5.46 5.46 0 0 0-2.631-1.45 5.74 5.74 0 0 0-3.053.124.9.9 0 0 0-.54.428.8.8 0 0 0-.057.66c.075.217.241.398.459.503a1 1 0 0 0 .707.053 4.1 4.1 0 0 1 2.036.277 3.77 3.77 0 0 1 1.587 1.22 4.3 4.3 0 0 1 .838 2.111 4.2 4.2 0 0 1-.369 2.224c-.7 1.617-1.903 3.002-3.453 3.977q-1.212.775-2.516 1.405a9 9 0 0 0-2.7 1.418.974.974 0 0 0-.147 1.114c.093.179.239.33.422.433.182.103.393.155.606.15a5.1 5.1 0 0 0 1.976-.676c.54-.239 1.08-.49 1.606-.756a18 18 0 0 0 2.984-1.816c1.966-1.382 3.353-3.36 3.923-5.594a5.87 5.87 0 0 0-.044-3.102 6.2 6.2 0 0 0-1.634-2.703"/>
  <path fill="#000" d="M134.399 41.433a.6.6 0 0 0-.081-.242.7.7 0 0 0-.214-.309 1.1 1.1 0 0 0-.469-.241.7.7 0 0 0-.376 0 .8.8 0 0 0-.362.12l-.295.215a2 2 0 0 0-.308.282l-.134.148-.228.296-.228.295a.65.65 0 0 0-.188.336.66.66 0 0 0-.066.363v.228c.03.12.09.231.174.323a.55.55 0 0 0 .188.16c.1.084.22.139.348.162h.241a.96.96 0 0 0 .456-.148c.255-.201.523-.403.764-.618l.148-.12a.6.6 0 0 0 .121-.135q.198-.242.362-.51l.093-.256a.9.9 0 0 0 .054-.349M143.874 51.485l-.103-.19a.57.57 0 0 0-.251-.232.37.37 0 0 0-.206-.095.46.46 0 0 0-.229 0 .5.5 0 0 0-.228 0 .7.7 0 0 0-.32.116l-.092.053a1.5 1.5 0 0 0-.24.21l-.125.17a2 2 0 0 0-.183.264.2.2 0 0 0 0 .084v.095a.8.8 0 0 0-.091.222.5.5 0 0 0 0 .21.5.5 0 0 0 0 .286l.091.18a.6.6 0 0 0 .229.2.5.5 0 0 0 .183.095.8.8 0 0 0 .319 0h.206l.217-.106h.069l.194-.148a.5.5 0 0 1 .08-.074.7.7 0 0 0 .16-.147l.137-.159q.118-.113.195-.253c0-.095.08-.2.114-.296v-.221zM150.646 52.43a1 1 0 0 1-.209-.19 15.6 15.6 0 0 1-1.16-3 11.5 11.5 0 0 0-1.494-2.59 8 8 0 0 0-.866-.967 13.2 13.2 0 0 0-3.953-2.727.87.87 0 0 1-.385-.442.844.844 0 0 1 .362-1.033.9.9 0 0 1 .581-.12 10 10 0 0 1 3.185 1.364 11.5 11.5 0 0 1 2.598 2.303c0 .519.112 1.05.182 1.582a49 49 0 0 0 1.159 5.82M133.237 53.469a5.6 5.6 0 0 0-2.107-.222h-.827a7.5 7.5 0 0 1-.964-.222 7.6 7.6 0 0 1-3.086-1.829.876.876 0 0 0-1.211 0 .89.89 0 0 0 0 1.22 8.41 8.41 0 0 0 5.991 2.924 3.05 3.05 0 0 0 2.383-.596.8.8 0 0 0 .238-.684.794.794 0 0 0-.417-.59M171.603 90.83a95 95 0 0 1-1.604-13.965c-.166-4.714-.097-9.428-.498-14.128-.705-8.3-2.974-17.66-9.751-23.338a1.04 1.04 0 0 0-1.452.068 1 1 0 0 0 .069 1.427c5.242 5.433 7.593 12.51 8.409 19.82.996 9.046.153 18.175 1.743 27.168a76.6 76.6 0 0 1 1.881 13.353c0 4.388-1.77 8.436-2.282 12.769a18.2 18.2 0 0 0 .401 6.168 33.5 33.5 0 0 1 1.203 5.787 6.37 6.37 0 0 1-1.604 4.551 27.5 27.5 0 0 0-2.974 3.803 5.62 5.62 0 0 0-.083 5.352 48 48 0 0 0 3.264 4.225c2.766 4.075-1.95 7.96-4.661 10.542-1.037.978.484 2.716 1.646 1.915 3.305-2.472 6.708-5.909 6.501-10.311a8.34 8.34 0 0 0-2.407-5.107 7.2 7.2 0 0 1-2.31-3.587c.031-.684.2-1.356.496-1.976a5.2 5.2 0 0 1 1.233-1.637 15.6 15.6 0 0 0 3.001-4.333c1.508-4.076-.761-7.974-1.176-11.995-.456-4.347 1.453-8.518 2.006-12.77a44.2 44.2 0 0 0-1.051-13.801"/>
  <path fill="#000" d="M151.868 61.354a28 28 0 0 1-2.893-6.881 41.7 41.7 0 0 1-1.619-7.096c0-.417-.12-.833-.165-1.236q-.15-1.439-.225-2.863v-3.105a19.4 19.4 0 0 1 1.124-7.217c.36-.82 1.769-.457 1.799.336.135 2.325-.36 4.69-.375 7.03a41 41 0 0 0 .255 5.227c0 .511.12 1.035.195 1.56a44 44 0 0 0 1.244 5.684c.105.35.21.712.33 1.075a38 38 0 0 0 1.184 3.239c.45 1.075 1.049 2.164 1.499 3.28.143.279.156.598.036.887a1.22 1.22 0 0 1-.673.651c-.312.128-.668.14-.99.033a1.25 1.25 0 0 1-.726-.604"/>
  <path fill="#000" d="M151.966 59.103a1.08 1.08 0 0 0-.853.164 1.2 1.2 0 0 0-.317.323 1.2 1.2 0 0 0-.173.426c-.296 3.107-2.593 5.327-5.012 6.86-2.687 1.714-5.777 2.81-8.33 4.778a37 37 0 0 0-3.439 3.43 6.98 6.98 0 0 1-4.205 2.22c-3.386.45-6.798-.66-10.144.253a7 7 0 0 0-4.03 2.811 4.63 4.63 0 0 0-.97 2.351c-.1.865.041 1.743.405 2.526a.9.9 0 0 0 .446.364c.183.067.382.07.566.007a.9.9 0 0 0 .455-.352.96.96 0 0 0 .159-.567 4.6 4.6 0 0 1 .229-1.99 4.4 4.4 0 0 1 1.047-1.678 6.15 6.15 0 0 1 4.098-1.575c3.305-.21 6.718.787 9.915-.337 3.198-1.124 4.662-4.09 7.201-5.931 2.54-1.841 5.657-2.924 8.317-4.709s5.173-4.553 5.522-8.039a1.26 1.26 0 0 0-.201-.844 1.17 1.17 0 0 0-.686-.491M162.081 60.52a5.1 5.1 0 0 0-2.049-1.691 5.4 5.4 0 0 0-2.666-.476c-.905.084-1.125 1.5-.117 1.598.61.069 1.199.259 1.727.558s.984.7 1.339 1.178c.35.505.571 1.081.644 1.682.074.6-.002 1.21-.221 1.777a5.95 5.95 0 0 1-2.61 2.838 6.4 6.4 0 0 1-3.887.733 1.23 1.23 0 0 0-.855.166 1.13 1.13 0 0 0-.502.68 1.05 1.05 0 0 0 .171.825q.127.182.318.303.19.12.416.165c3.971.32 8.044-1.487 9.168-5.362.256-.839.311-1.721.159-2.582a5.65 5.65 0 0 0-1.035-2.391M114.032 87.651a10.9 10.9 0 0 1-4.352 1.05c-1.162.197-2.324.367-3.486.538l-.947.131c-2.892.394-5.81.708-8.743.97q-8.257.683-16.528.617c-.108 2.624-.23 5.248-.338 7.95 0 .945-.068 1.89-.108 2.834s0 1.706-.094 2.624l-2.636 1.234v-2.519c0-1.312.135-2.742.176-4.107.108-3.07.189-6.126.31-9.183a1.28 1.28 0 0 1 .338-.952 1.383 1.383 0 0 1 .932-.44c5.864.086 11.728-.124 17.57-.629 2.878-.236 5.756-.55 8.608-.944 1.486-.197 2.96-.42 4.433-.656a12.2 12.2 0 0 1 4.419-.472 1.105 1.105 0 0 1 .872 1.169 1.11 1.11 0 0 1-.426.785"/>
  <path fill="#1D4ED8" d="M69.84 98.509c-3.05 4.044-5.962 8.088-8.655 12.347a122 122 0 0 0-2.226 3.6l-7.24 3.424-2.116 1.011c-.453-.634-.906-1.268-1.373-1.915-.921-1.348-1.786-2.696-2.638-3.963-1.03-1.631-2.061-3.262-2.968-4.947a2.652 2.652 0 0 1-.343-2.575 2.03 2.03 0 0 1 1.278-1.037c.108-.134.248-.24.407-.309a1.1 1.1 0 0 1 1.365.416c2.432 3.451 4.726 6.969 7.226 10.366l.29.391c.123-.229.232-.471.356-.701a139 139 0 0 1 11.39-18.966 1.4 1.4 0 0 1 1.539-.27l3.31 1.146c.907.31.838 1.416.398 1.982"/>
  <path fill="#000" d="M146.071 119.785c-2.588 12.673-5.298 25.332-8.036 37.977a1.282 1.282 0 0 1-2.002.763 1.17 1.17 0 0 1-.518-1.28c0-.313.122-.626.191-.939.245-1.239.504-2.477.762-3.702q1.962-9.365 3.937-18.731c1.294-6.139 2.725-12.251 3.801-18.485.967-5.594 1.361-11.42-.382-16.892a17.23 17.23 0 0 0-9.167-10.89c-10.53-4.75-21.985 1.062-31.438 5.608l-17.162 8.263-1.949.939-4.494 2.164-2.657 1.28-1.362.653-2.724 1.361-4.25 2.042-10.175 4.901-7.178 3.457-2.098 1.021-6.647 3.199c-2.643 1.279-5.449 2.722-8.446 2.164a1.066 1.066 0 0 1-.824-1.259 1.066 1.066 0 0 1 1.26-.824 8.45 8.45 0 0 0 4.345-.898c2.929-1.252 5.776-2.722 8.65-4.084l.34-.163 4.291-2.069.64-.313 3.474-1.674 4.4-2.124 12.34-5.962 1.022-.49 1.716-.83 1.254-.599 2.724-1.361c3.95-1.892 7.873-3.798 11.81-5.704l.176-.082 1.962-.953c4.29-2.096 8.595-4.233 12.926-6.234.75-.354 1.499-.708 2.262-1.034a61 61 0 0 1 4.181-1.756 35 35 0 0 1 1.662-.613c.559-.19.994-.34 1.498-.49a33.3 33.3 0 0 1 9.167-1.66 21.95 21.95 0 0 1 14.861 4.682 22.3 22.3 0 0 1 7.042 13.449c1.049 5.975.027 12.21-1.185 18.172"/>
  <path fill="#000" d="M116.632 84.045a2 2 0 0 0-.107-.435.3.3 0 0 1 0-.099c-.137-.238-.167-.294-.076-.154 0 .098.091.14 0 0a.94.94 0 0 0-.446-.52 1.07 1.07 0 0 0-.709-.112 1.07 1.07 0 0 0-.562.281 1 1 0 0 0-.243.576c0 .182-.106.379-.167.561a2.6 2.6 0 0 1-.152.477 5.3 5.3 0 0 1-.456.857l-.152.168a2.2 2.2 0 0 0-.441.534 1.4 1.4 0 0 0-.136.603c.016.25.122.488.303.674.161.178.375.308.616.373.241.066.498.063.737-.008a2.8 2.8 0 0 0 1.306-1.15c.237-.335.422-.7.548-1.082.123-.363.184-.742.182-1.123-.015-.112-.03-.309-.045-.421M124.73 76.693v-2.36a6 6 0 0 0-.17-1.323.96.96 0 0 0-.942-.64.98.98 0 0 0-.869.74 6 6 0 0 0-.143 1.422v2.275a8 8 0 0 0 0 1.18 1.141 1.141 0 0 0 1.026 1.024 1.076 1.076 0 0 0 1.155-.867c.029-.484.009-.97-.057-1.45M157.31 57.154a37 37 0 0 0-2.274 4.747 54 54 0 0 0-1.625 5.1 53.4 53.4 0 0 0-1.626 10.427 53 53 0 0 0 .381 10.508c.508 3.706 1.6 7.317 1.829 11.063a14 14 0 0 1-.584 5.288 43 43 0 0 1-1.868 4.423c-1.27 2.894-2.286 6.073-1.016 9.183.966 2.367 3.481 4.856 2.541 7.642a20 20 0 0 1-2.236 3.854 11.1 11.1 0 0 0-1.588 4.666c-.394 3.922.852 7.615 1.652 11.374.686 3.165 1.092 7.047-.927 9.779-.915 1.23.774 2.88 1.688 1.65a12.4 12.4 0 0 0 1.784-4.346c.317-1.561.336-3.174.059-4.743-.382-3.395-1.588-6.6-2.033-9.968-.269-1.691-.2-3.424.204-5.085a14.9 14.9 0 0 1 2.108-3.936 9.06 9.06 0 0 0 1.638-4.165 7.9 7.9 0 0 0-1.054-4.26 28 28 0 0 1-1.981-3.895 7.18 7.18 0 0 1 .177-4.355c.978-3.152 2.91-5.884 3.469-9.197.647-3.828-.217-7.668-.966-11.401-.717-3.466-1.1-7-1.143-10.55.043-7.943 1.689-15.784 4.826-22.991a.94.94 0 0 0-.049-.577.88.88 0 0 0-.372-.424.8.8 0 0 0-.537-.09.82.82 0 0 0-.477.28"/>
  <path fill="#000" d="M160.125 127.379a8.95 8.95 0 0 0-1.07-5.645c-.918-1.759-2.192-3.382-2.548-5.454a13 13 0 0 1 1.172-7.023c1.631-4.158 4.204-9.544 1.134-13.73a.66.66 0 0 0-.411-.258.63.63 0 0 0-.466.103.7.7 0 0 0-.28.412.75.75 0 0 0 .049.506c2.102 3.777 0 8.304-1.478 11.863a19.5 19.5 0 0 0-1.72 6.627 10.96 10.96 0 0 0 1.707 5.836 11.9 11.9 0 0 1 2.128 5.086 9.8 9.8 0 0 1-1.389 4.731 30 30 0 0 0-2.268 5.059 11.73 11.73 0 0 0 .166 6.258 34.2 34.2 0 0 1 1.656 6.709c.132.89.04 1.801-.267 2.64a5.06 5.06 0 0 1-1.478 2.133c-.187.16-.311.389-.349.642s.012.512.142.727.33.371.561.438.477.04.69-.076c3.122-2.222 2.918-6.818 1.937-10.145-.65-2.236-1.631-4.499-1.542-6.817.216-1.95.857-3.819 1.873-5.454a18.2 18.2 0 0 0 2.051-5.168M125.672 121.742h-.082l-3.43 1.903c-9.181 4.998-18.565 9.62-28.18 13.734a318 318 0 0 1-21.101 8.16c-.868.308-1.723.616-2.59.898-1.9.643-3.798 1.34-5.696 1.862-9.588 3.055-20.437 5.923-30.147 1.689a24.7 24.7 0 0 1-9.665-7.687 24.3 24.3 0 0 1-4.682-11.354 23.6 23.6 0 0 1 1.928-12.448 23.9 23.9 0 0 1 8.08-9.74c1.207-.818 2.319 1.005 1.207 1.875a21 21 0 0 0-2.13 1.957 21.86 21.86 0 0 0-5.826 10.011 21.67 21.67 0 0 0 .131 11.548 21.8 21.8 0 0 0 6.399 9.784 22.2 22.2 0 0 0 10.58 5.142c4.843.726 9.786.466 14.524-.763a149 149 0 0 0 14.497-4.315 314 314 0 0 0 24.843-9.473l2.21-.951.977-.429a304 304 0 0 0 26.865-13.399 1.16 1.16 0 0 1 1.356.094 1.08 1.08 0 0 1-.068 1.902"/>
  <path fill="#000" d="M129.119 121.354a.93.93 0 0 1-.333.342 1.04 1.04 0 0 1-.472.145 1.94 1.94 0 0 1-.841-.136l-.61-.147-.598-.113-.464-.079h-.146a.8.8 0 0 1-.317-.043.8.8 0 0 1-.268-.161.74.74 0 0 1-.269-.497.7.7 0 0 1 .049-.293.7.7 0 0 1 .171-.25.9.9 0 0 1 .524-.249q.188-.085.391-.135l.463-.079c.291-.04.588-.04.879 0q.337.026.658.124c.451.091.854.327 1.135.667a.83.83 0 0 1 .048.904M94.362 135.074c-.082-.238-.151-.476-.234-.714q-2.685-7.942-5.33-15.885c-1.762-5.295-3.58-10.233-4.97-15.448l-.331-1.324a.93.93 0 0 1 .056-.739 1 1 0 0 1 .242-.299 1.05 1.05 0 0 1 1.112-.132.964.964 0 0 1 .504.561l.386.967c2.066 5.096 3.649 10.404 5.384 15.62s3.47 10.47 5.192 15.726c.11.304.207.622.303.926.102.295.078.617-.067.895a1.2 1.2 0 0 1-.704.588 1.26 1.26 0 0 1-.93-.064 1.2 1.2 0 0 1-.613-.678M136.399 158.03h-5.215999999999999c-.957 0-1.928 0-2.885-.081-2.008 0-4.044-.162-6.012-.232l-11.645-.441-2.359-.092-19.786-.754-2.427-.105c-.687 0-1.348 0-2.049-.069l-2.695-.116-5.109-.186-3.316-.127h-.62a1.6 1.6 0 0 1-.75-.18 1.33 1.33 0 0 1-.53-.493 1 1 0 0 1-.108-.395 1.07 1.07 0 0 1 .356-.788c.23-.215.546-.348.884-.371h.593l13.695.522 24.935.939 12.603.464c3.815.151 7.643.255 11.43.638l1.172.116c1.173.128.985 1.705-.161 1.751"/>
  <path fill="#000" d="M145.477 115.569c-1.045 6.164-2.773 12.371-4.061 18.481-1.289 6.11-1.847 11.796-4.062 19.18-.258 1.22-.125 2.829-.369 4.062-3.812-.447-9.453-.563-13.293-.739h-12.554l-25.476-1.477-14.031-.738c-1.114.779.736-.888.744-.942-1.113-.904 0-.772.068-1.151l-.812-2.338c.068-1.355.744-4.922.744-6.277 7.136-2.493 14.104-4.746 21.04-7.754 9.619-4.159 19.414-6.839 28.612-11.892l3.405-1.897.515.095.33-.706.369-.459c0-1.756-.505.251-.184.229.187-.011.509-.275.666-.378s.646.315.732.149c.093-.161 0 .037 0-.149 0-.185.725-.49.632-.651-.312-.407-.13.109-.632 0a3.2 3.2 0 0 0-.732-.149 3.4 3.4 0 0 0-.977 0l.21.8c.725.706-.685.395-.929.378s-.794.47-1.001.599c-8.737 4.945-17.87 7.707-27.027 11.771l-.976.434c-2.274-2.235-4.995-9.793-6.705-15.158s-3.503-12.575-5.538-17.723l18.461-9.6c9.415-4.525 22.375-9.898 32.862-5.17 2.207 1.054 4.702 3.3 6.277 5.17 1.574 1.869 2.662 4.294 3.323 6.646 1.736 5.419 1.332 11.745.369 17.354"/>
  <path fill="#000" d="M73.108 145.185v.169c0 1.405-.112 2.81-.182 4.214l-.111 2.136c0 .393 0 .801-.07 1.194a.6.6 0 0 0 0 .169c0 .341-.041.681-.126 1.011-.065.265-.21.503-.415.682s-.46.289-.73.316a1.2 1.2 0 0 1-.516-.098 1.1 1.1 0 0 1-.726-.759 9 9 0 0 1 0-2.36c0-.745.07-1.405.098-2.22 0-1.096.084-2.206.167-3.302 0-.435 0-.857.084-1.292a1.307 1.307 0 0 1 1.396-1.04 1.3 1.3 0 0 1 1.13 1.18M76.5 155.929c-1.714 1.488-3.416 2.989-5.021 4.571-.354.318-.68.651-1.021.996s-.775.797-1.156 1.209a57 57 0 0 0-1.565 1.754c-.504.598-1.36 1.568-1.946 2.392a53.75 53.75 0 0 0-9.321 19.026c-.395 1.568-2.926 1.063-2.518-.505a56 56 0 0 1 2.722-7.972 54.5 54.5 0 0 1 5.906-10.457 57 57 0 0 1 1.727-2.298l.082-.106a65 65 0 0 1 1.538-1.847c.53-.611 1.36-1.515 2.055-2.246a40 40 0 0 1 7.225-5.939c.953-.637 2.164.678 1.293 1.422"/>
  <path fill="#000" d="M135.324 183.387c-10.489-.113-20.978-.322-31.412-.225-10.435.096-20.869.322-31.303.71-2.923.113-5.86.242-8.782.387-2.923.145-5.969.194-8.932.581a1.13 1.13 0 0 0-.729.493 1.54 1.54 0 0 0-.256.944c.017.342.142.664.35.902.207.239.482.378.771.388 2.623 0 5.245-.161 7.868-.274l7.852-.323a961 961 0 0 1 15.734-.516q15.624-.388 31.303-.388c5.9 0 11.827.081 17.754.275 1.544.048 1.38-2.921-.218-2.954"/>
  <path fill="#000" d="M135.832 170.287a37.8 37.8 0 0 0-2.072-6.984 39 39 0 0 0-1.526-3.31 11.7 11.7 0 0 0-2.059-3.185c-.707-.67-1.997.07-1.613 1.16a27 27 0 0 0 1.626 3.198q.743 1.43 1.339 2.947a39.6 39.6 0 0 1 2.022 6.802c.444 2.267.685 4.578.72 6.9a32 32 0 0 1-.1 3.436 34 34 0 0 0-.371 3.687c.017.268.111.523.267.725.157.203.368.344.601.4a1 1 0 0 0 .694-.085c.217-.113.395-.301.509-.537.386-1.264.596-2.588.62-3.925.087-1.229.137-2.472.125-3.729a43 43 0 0 0-.782-7.5"/>
  <path fill="#000" d="M133.451 173.342c-4.775 1.38-10.001 1.932-14.776.262a13 13 0 0 1-5.347-3.222 13.1 13.1 0 0 1-3.245-5.363 10.6 10.6 0 0 1-.369-3.588c.147-1.211.413-2.403.794-3.561.045-.235.014-.48-.09-.695a1.1 1.1 0 0 0-1.174-.606 1.1 1.1 0 0 0-.611.335 10 10 0 0 0-1.368 7.287 13.85 13.85 0 0 0 3.147 6.901 18.9 18.9 0 0 0 6.255 4.512 18.7 18.7 0 0 0 7.522 1.616 32 32 0 0 0 10.11-1.38c1.56-.483.753-2.871-.848-2.498"/>
  <path fill="#000" d="M129.218 176.168a1.3 1.3 0 0 0-.323-.791 1.06 1.06 0 0 0-.712-.359 1.02 1.02 0 0 0-.745.239 1.24 1.24 0 0 0-.418.727c-.179 1.605-.281 3.21-.536 4.802a45 45 0 0 1-.435 2.287c-.103.412-.192.81-.307 1.222a3.3 3.3 0 0 0-.192 1.42c.021.233.101.455.23.639.13.184.304.324.502.403s.412.093.617.042.394-.166.543-.331c.501-.776.817-1.68.92-2.628.192-.81.345-1.634.473-2.458a25 25 0 0 0 .383-5.214M86.46 155.126q-2.33 5.025-4.646 10.05c-1.46 3.176-2.866 6.392-4.41 9.526a4.5 4.5 0 0 1-1.558-.083 61.5 61.5 0 0 1 3.129-9.167 60 60 0 0 1 2.302-4.735c.84-1.546 1.97-3.147 2.688-4.846a1.076 1.076 0 0 0-1.75-1.201 21.3 21.3 0 0 0-3.047 4.653 65 65 0 0 0-2.508 5.108 63.3 63.3 0 0 0-3.529 10.713 1.29 1.29 0 0 0 .662 1.38 6.24 6.24 0 0 0 3.032.704c.5-.013.993-.111 1.46-.289a1.84 1.84 0 0 0 1.159-1.243c.965-2.181 1.998-4.335 3.004-6.502q3.046-6.502 6.051-13.005c.62-1.408-1.42-2.402-2.04-1.063"/>
  <path fill="#fff" d="M133.465 119.949a1.3 1.3 0 0 0-.259-.278l-.122-.08a4 4 0 0 0-.423-.264c-.164-.106-.328-.186-.505-.278a3.3 3.3 0 0 0-.505-.225l-.327-.106a1.18 1.18 0 0 0-.59-.487 1.2 1.2 0 0 0-.773-.03l-17.13 7.439-8.428 3.667c-2.878 1.324-5.865 2.409-8.633 3.865-1.105.582-.232 2.303.928 1.906 2.877-1.006 5.66-2.356 8.455-3.561l8.565-3.706 16.992-7.386.355.252q.316.24.655.45c.211.158.452.275.709.344.175.039.357.039.532 0a.94.94 0 0 0 .518-.384.9.9 0 0 0 .177-.49.88.88 0 0 0-.191-.648"/>
  <path fill="#000" d="M35.396 107.63c0-2.574-.132-5.147-.227-7.72 0-1.28-.108-2.573-.168-3.853 0-.619 0-1.238-.083-1.858a4.16 4.16 0 0 0-.383-2.105 1.1 1.1 0 0 0-.402-.4.94.94 0 0 0-1.03.062 1.16 1.16 0 0 0-.362.448 3.8 3.8 0 0 0-.191 2.01c0 .66.071 1.375.095 1.995.06 1.238.108 2.476.156 3.701.107 2.628.18 5.256.239 7.885.06 2.628.12 5.146.143 7.719v3.853c-.04 1.326.028 2.653.204 3.963.191 1.115 1.615.854 1.794-.11.191-1.318.263-2.655.215-3.99v-3.716c.084-2.655.048-5.256 0-7.884"/>
  <path fill="#000" d="m73.122 86.4-17.924 1.278-8.873.653c-2.718.208-5.544.223-8.262.698-2.188.386-5.137 1.485-5.558 4.202-.034.233 0 .47.097.68.098.21.253.381.445.488.191.107.41.145.622.11a1 1 0 0 0 .562-.312 4.74 4.74 0 0 1 1.902-1.634 9.4 9.4 0 0 1 2.622-.668c2.718-.297 5.355-.371 8.032-.564l16.836-1.203 9.649-.698c.367-.022.712-.202.958-.502.245-.299.372-.693.353-1.094a1.58 1.58 0 0 0-.46-1.048 1.32 1.32 0 0 0-1.002-.385"/>
  <path fill="#000" d="M75.99 95.566c-.111 2.296-.21 4.578-.308 6.874v.442l-.147 2.767c-.81.485-1.62.941-2.456 1.426 0-.428 0-.841.062-1.255.061-.414 0-1.013 0-1.526s0-.998.061-1.512c.086-1.968.185-3.936.27-5.904.144-1.697.189-3.403.135-5.106a6 6 0 0 0-.368-1.769c-.233-.556-.712-1.013-.835-1.597a1.13 1.13 0 0 1 .06-.733.9.9 0 0 1 .48-.48c1.51-.427 2.542 1.655 2.837 3.096.282 1.739.352 3.515.208 5.276"/>
  <path fill="#1D4ED8" d="M53.042 77.884c-.131-2.51-.25-5.032-.38-7.54-.105-2.116.105-4.733-2.35-5.628a26 26 0 0 0-8.098-1.194 27.5 27.5 0 0 0-8.412 1.017c-.17.035-.33.112-.466.222-.136.111-.245.254-.318.416a1.17 1.17 0 0 0 .035 1.03.905.905 0 0 0-.288.61c-.21 2.564-.158 5.154-.184 7.73a74 74 0 0 0 0 7.229 4.43 4.43 0 0 0 1.181 2.875c.82.7 1.864 1.058 2.927 1.003a32 32 0 0 0 3.61-.271l4.003-.339 3.845-.325a8.4 8.4 0 0 0 3.268-.72c2.231-1.247 1.745-4.013 1.627-6.115m-2.625 3.661c-.367.502-1.207.502-1.772.543-1.194.122-2.375.203-3.556.312l-6.563.556c-.83.149-1.677.149-2.506 0-.67-.204-.749-.882-.801-1.479-.17-2.36 0-4.773 0-7.133s.079-4.95-.105-7.418a.4.4 0 0 0 0-.122 30.5 30.5 0 0 1 12.048-.366c.538.108 1.09.217 1.615.352.343.032.675.144.971.326.473.434.315 1.627.341 2.17.105 2.183.224 4.38.316 6.564l.157 3.132c-.013.746.249 1.953-.197 2.55z"/>
  <path fill="#1D4ED8" d="M50.686 81.864c-.384.522-1.26.522-1.85.564-1.247.127-2.48.211-3.714.324l-6.852.578a7.4 7.4 0 0 1-2.617 0c-.699-.212-.78-.916-.835-1.536-.179-2.451 0-4.959 0-7.41s.082-5.142-.11-7.706a.4.4 0 0 0 0-.126 32 32 0 0 1 12.58-.38c.561.112 1.137.225 1.685.366.358.033.705.148 1.014.338.493.45.329 1.69.356 2.254.11 2.268.233 4.55.33 6.818l.164 3.254c.04.789.314 2.043-.151 2.662M108.39 60.35c-.191-2.043-.873-4.22-2.973-5.121-2.1-.903-4.868-.505-7.146-.452-4.35.093-8.7.107-13.036.253-1.214 0-4.486-.412-5.455.265-1.936 1.327-1.432 6.634-1.473 8.69-.04 2.057 0 3.901 0 5.851.171 3.9.553 7.789 1.146 11.65.027.333.183.643.436.87s.584.351.927.35l16.27-1.008 3.994-.252c1.218.02 2.431-.137 3.601-.465 2.264-.862 2.727-3.197 3-5.307a65.8 65.8 0 0 0 .709-15.324m-2.468 5.97c0 2.336-.191 4.67-.464 6.993a59 59 0 0 1-.436 3.104c-.137.703-.26 1.685-.955 2.07a8 8 0 0 1-2.727.318l-3.982.252-15.342.969a107 107 0 0 1-.954-10.203 132 132 0 0 1-.123-5.705c.123-2.02.123-4.044 0-6.063 4.446-.956 9.669-.438 14.223-.584 2.414 0 4.841-.2 7.255-.2a4.26 4.26 0 0 1 2.291.452 2.95 2.95 0 0 1 1.036 2.017c.25 2.185.31 4.386.178 6.58"/>
  <path fill="#1D4ED8" d="M106.268 66.268c0 2.423-.197 4.847-.479 7.257a61 61 0 0 1-.45 3.222c-.14.73-.267 1.748-.985 2.148a8.2 8.2 0 0 1-2.814.33l-4.108.262-15.828 1.005c-.493-3.511-.83-7.05-.985-10.589-.084-1.969-.127-3.938-.127-5.921a52 52 0 0 0 0-6.293c4.587-.991 9.976-.454 14.675-.606 2.49 0 4.994-.206 7.485-.206a4.37 4.37 0 0 1 2.364.468 3.07 3.07 0 0 1 1.069 2.093c.258 2.267.319 4.552.183 6.83M74.091 64.4a1.26 1.26 0 0 0-.482-.645 1.24 1.24 0 0 0-.77-.218 87.4 87.4 0 0 0-16.23 1.078 1.33 1.33 0 0 0-.873.431c-.227.25-.352.577-.351.916.02.2.083.394.186.566a.4.4 0 0 0 0 .122q.022 4.202.466 8.38c.106 1.348.2 2.79.32 4.177-.059.607.06 1.218.342 1.757.281.538.713.982 1.242 1.275 1.223.378 2.504.529 3.781.444h4.087a59 59 0 0 0 8.282-.768c.328-.027.631-.184.845-.436s.322-.58.3-.911A66.7 66.7 0 0 0 74.09 64.4M72.853 79.65c-2.05.257-4.114.459-6.178.54-2.435.161-4.88.12-7.31-.122-.44-.067-.426 0-.492-.458-.067-.458-.08-1.132-.12-1.71-.093-1.24-.187-2.48-.267-3.733-.173-2.358-.266-4.756-.612-7.1A74 74 0 0 1 71.88 65.99a66.2 66.2 0 0 1 .972 13.662M78.256 25.373v3.998q-.112 8.25-.18 16.487c.106 2.513.018 5.03-.265 7.53a5.9 5.9 0 0 1-1.258 3.015 6.3 6.3 0 0 1-2.7 1.957c-2.36.84-5.193.6-7.679.68l-8.61.24-17.234.492c-2.43 0-5.29.413-7.221-1.332a7.94 7.94 0 0 1-2.014-5.705c-.194-5.477 0-10.995.236-16.473.139-2.826.361-5.824.653-8.717.153-1.492.32-2.985.514-4.478 0-1.346.162-2.688.485-3.998a.916.916 0 0 1 .542-.587c.069-.203.197-.383.369-.517a1.2 1.2 0 0 1 .604-.242H49.19c1.056.68 3.62 2.226 4.718 2.865l-4.718-.107H35.372c-.07 1.147-.125 2.306-.236 3.466A246 246 0 0 0 34.08 39.26a280 280 0 0 0-.152 7.637A61 61 0 0 0 34.08 54c.048.802.322 1.575.791 2.24.279.285.617.512.992.663.376.152.781.225 1.189.216q1.854.09 3.707 0l4.07-.12 16.15-.44 7.985-.226c1.82 0 4.389.16 5.486-1.546s.82-3.865.833-5.678c0-2.666 0-5.185.07-7.783q.083-7.718.138-15.434c0-1.586.5-4.265-1.388-4.998a8 8 0 0 0-2.778-.307H56.123c.096-.18 1.066-.45 1.108-.65-1.66-.844 1.36-.61 1.291-.95.09-.16.222-.294.382-.39.161-.096.345-.15.535-.156.694 0 1.32.107 1.819-.48l.07-.093h7.984c1.5 0 2.583 0 3.847.16 1.148.04 2.25.44 3.137 1.142a5 5 0 0 1 1.766 2.737 16.2 16.2 0 0 1 .194 3.465"/>
  <path fill="#000" d="M58.247 18.927q-.063.295-.205.563c-.129.281-.309.539-.53.76a4.55 4.55 0 0 1-2.242 1.09 4.65 4.65 0 0 1-2.5-.24 20.7 20.7 0 0 1-3.623-1.623l-1.362-.773c-1.076-.602-2.125-1.309-3.16-1.937l-1.717-1.127a1.28 1.28 0 0 1-.35-.877c0-.324.124-.637.35-.878a1.4 1.4 0 0 1 .884-.365 1.4 1.4 0 0 1 .915.287 38 38 0 0 0 4.386 2.855l.19.118a25.5 25.5 0 0 0 4.25 2.108c.709.236 2.48.458 2.575-.668a2.3 2.3 0 0 0-.695-1.427l-.245-.275c-.45-.524-.94-1.022-1.362-1.506a29 29 0 0 0-6.811-5.134 7.53 7.53 0 0 0-4.087-1.034 5.2 5.2 0 0 0-3.214 1.597c-1.69 1.703-2.276 4.06-2.916 6.3h-2.07c.368-3.51 1.635-7.269 4.945-9.167a7.555 7.555 0 0 1 6.252-.458c1.208.386 2.355.932 3.406 1.623l.19.105a30.3 30.3 0 0 1 7.928 6.914q.367.482.6 1.035c.154.354.25.73.285 1.113.048.341.025.688-.067 1.021"/>
  <path fill="#000" d="M64.226 16.457q-.025.168-.07.331a3 3 0 0 1-.198.565 4.43 4.43 0 0 1-2.13 2.233 2.73 2.73 0 0 1-2.68 0l-.368-.234a1 1 0 0 1-.282-.358 1.18 1.18 0 0 1 0-1.062c.092-.165.226-.305.389-.404s.35-.154.542-.161c.705 0 1.34.11 1.848-.496l.071-.097a2.01 2.01 0 0 0 .127-1.874c-.607-1.765-2.582-2.757-4.106-3.75a20.5 20.5 0 0 0-5.727-2.563 10.2 10.2 0 0 0-2.47-.304 13.6 13.6 0 0 0-3.54.428c-1.045.261-1.891-1.172-.847-1.737q.416-.23.86-.4a10.6 10.6 0 0 1 6.8-.207q1.483.405 2.893 1.007a33.3 33.3 0 0 1 5.05 2.756 8.05 8.05 0 0 1 3.697 4.646 4.9 4.9 0 0 1 .141 1.681"/>
  <path fill="#000" d="M69.281 17.549a.9.9 0 0 1-.183.124c-.976.579-2.11.85-3.248.775a9.6 9.6 0 0 1-2.146-.29 3.5 3.5 0 0 1-1.158-.582 2.5 2.5 0 0 1-.339-.318 1.025 1.025 0 0 1 .152-1.308c.117-.11.258-.193.413-.242.364-.116.75-.15 1.13-.097.888.237 1.804.368 2.725.387.425 0 .839-.135 1.18-.384.34-.25.59-.6.712-1a.2.2 0 0 0 0-.083 3.6 3.6 0 0 0-.777-2.312l-.353-.484a10.1 10.1 0 0 0-2.047-2.118 10.33 10.33 0 0 0-5.719-2.16c-1.53-.079-3.06.157-4.49.693-.707.25-1.412.54-2.104.858a1.05 1.05 0 0 1-.722-.035 1.02 1.02 0 0 1-.521-.49 1 1 0 0 1-.054-.703c.067-.234.216-.436.421-.571h.085a11.38 11.38 0 0 1 7.385-2.007c1.04.055 2.07.236 3.064.54a13.6 13.6 0 0 1 2.824 1.231 12.2 12.2 0 0 1 4.236 4.056c.156.25.297.498.438.748a6.8 6.8 0 0 1 .608 1.758c.172.74.12 1.514-.148 2.227a3.93 3.93 0 0 1-1.364 1.787"/>
  <path fill="#000" d="M81.701 10.063c-1.003 2.29-3.762 3.061-6.146 2.941-1.644 0-3.805-.532-5.505 0a3.5 3.5 0 0 0-1.199.626 1.6 1.6 0 0 1-1.1.4 3.4 3.4 0 0 0-.768-2.223 5 5 0 0 1 2.035-1.211 14.3 14.3 0 0 1 5.673-.094c1.278.265 2.612.1 3.777-.465.85-.52 1.394-1.411.808-2.303a5 5 0 0 0-1.58-1.076 5.1 5.1 0 0 0-1.89-.414 27 27 0 0 0-4.25-.346c-2.273.03-4.536.298-6.747.798-.766.16-1.532.36-2.285.546a.98.98 0 0 1-.717-.052.9.9 0 0 1-.468-.52.86.86 0 0 1 .055-.685.93.93 0 0 1 .545-.447 25.5 25.5 0 0 1 9.045-1.796c2.697-.185 5.407.14 7.972.958a4.4 4.4 0 0 1 1.515.808c.442.365.803.811 1.06 1.312a3.955 3.955 0 0 1 .17 3.243M60.314 18.47a.97.97 0 0 0-.513-.219 2 2 0 0 0-.38 0h-.275a2.6 2.6 0 0 1-.417-.087l-.298-.098.227.076L58.3 18l-.166-.076-.18-.066a.72.72 0 0 0-.423-.135.72.72 0 0 0-.422.135.58.58 0 0 0-.238.36.6.6 0 0 0 .083.427q.075.202.202.382.153.186.334.35.203.16.441.273.243.105.5.175.41.103.834.109c.234.018.47-.023.68-.12.21-.096.387-.244.511-.427a.74.74 0 0 0 .09-.48.77.77 0 0 0-.232-.437M34.54 106.101a1.084 1.084 0 0 0-.968-.5c-.4.046-.78.21-1.093.471l-.677.472q-.663.456-1.273.986a8.6 8.6 0 0 0-2.378 2.715.895.895 0 0 0 .187 1.036.817.817 0 0 0 1.016.092l.332-.228c.083 0 .166-.143.249-.214h.07c.234-.2.455-.386.676-.601q.258-.286.554-.528l.152-.129.318-.271c.415-.315.83-.629 1.259-.915l.663-.414c.378-.168.7-.446.927-.8a1.15 1.15 0 0 0-.015-1.172M102.636 28.538a1.367 1.367 0 0 0-1.368-1.216l-18.811.86a1.16 1.16 0 0 0-1.109.766.9.9 0 0 0-.615.833c-.192 2.049-.137 4.098-.15 6.174v6.188a20.5 20.5 0 0 0 .218 5.464 3.635 3.635 0 0 0 3.79 2.595c1.97 0 3.967-.191 5.924-.3 1.956-.11 4.104-.205 6.115-.328a4.49 4.49 0 0 0 4.105-2.267 16 16 0 0 0 1.094-5.137 92 92 0 0 0 .807-13.632m-3.01 10.668c-.177 1.776-.396 3.552-.711 5.314-.192 1.12-.424 2.213-1.697 2.377-1.75.232-3.57.218-5.321.3l-5.2.287c-.998 0-3.118.615-3.447-.71a7.8 7.8 0 0 1-.095-1.694v-8.92c0-1.762 0-3.538-.083-5.3l17.006-.847a87 87 0 0 1-.452 9.193"/>
  <path fill="#1D4ED8" d="M96.514 33.59c-.7-.887-1.89.08-2.473.63a18 18 0 0 0-2.938 3.72 21 21 0 0 0-1.488 2.926 13 13 0 0 1-.725-.94 16 16 0 0 1-.829-1.342c-.271-.484-.634-1.195-1.294-1.343a.86.86 0 0 0-.555.078.9.9 0 0 0-.402.405c-.35.605 0 1.343.22 1.96q.368.85.867 1.625c.667.991 1.45 1.893 2.33 2.685a1.25 1.25 0 0 0 1.576.068c.155-.113.284-.26.378-.43a23 23 0 0 1 4.582-7.666c.492-.55 1.398-1.558.75-2.377M70.668 68.296c-.7-.886-1.89.08-2.473.631a18 18 0 0 0-2.938 3.72 21 21 0 0 0-1.488 2.926 13 13 0 0 1-.725-.94c-.233-.322-.557-.859-.829-1.342s-.634-1.195-1.294-1.343a.86.86 0 0 0-.555.078.9.9 0 0 0-.402.406c-.35.604 0 1.342.22 1.96q.368.849.867 1.624c.667.991 1.45 1.893 2.33 2.685a1.25 1.25 0 0 0 1.576.068c.155-.113.284-.26.378-.43a23 23 0 0 1 4.582-7.666c.492-.55 1.398-1.558.75-2.377"/>
  <path fill="#000" d="M29.317 158.343a138 138 0 0 0-.385-2.486 648 648 0 0 0-.785-4.973c-.532-3.292-.985-6.639-1.77-9.875a1.07 1.07 0 0 0-.46-.562 1 1 0 0 0-.7-.122c-.239.046-.455.179-.61.375s-.24.443-.238.697c.24 3.334.825 6.654 1.33 9.946l.758 4.972c.133.834.267 1.653.386 2.487.038.843.252 1.668.626 2.416.123.187.295.332.496.417.2.086.421.109.634.066s.41-.149.565-.306c.156-.158.265-.359.313-.579.12-.827.065-1.67-.16-2.473"/>
  <path fill="#1D4ED8" d="M62.405 27.176c-3.726-3.021-9.974-2.44-9.974-2.44s.306 13.527 1.084 13.658c.777.132 13.685-3.55 13.685-3.55s-1.07-4.655-4.795-7.668"/>
  <path fill="#000" d="M63.083 35.423 62.003 35c-.225-.089-.452-.186-.677-.25l-.274-.082a2 2 0 0 0-.403 0 .58.58 0 0 0-.516.405.58.58 0 0 0 .153.632l.193.154-3.41.94-2.29.632-1.144.308-.25.056a2 2 0 0 1 0-.178c-.072-1.572-.08-3.151-.137-4.723l-.073-2.357v-.883a.63.63 0 0 0 .806.113.63.63 0 0 0 .186-.859c-.161-.226-.323-.445-.476-.672s-.346-.43-.516-.656a.575.575 0 0 0-.991.048q-.132.253-.274.494l-.065.098-.161.21c-.105.138-.21.284-.33.421l-.073.09-.097.145q0-.084 0 0c0 .057-.121.187-.186.284a.38.38 0 0 0 .049.43.38.38 0 0 0 .42.12l.265-.12c0 .396.057.81.065 1.15 0 .907.048 1.815.08 2.722l.073 2.544c0 .729-.129 1.798.314 2.43.444.632 1.395.543 2.137.332l2.458-.689 3.967-1.093a.71.71 0 0 0 .46.729.7.7 0 0 0 .451 0c.073 0 .161-.073.234-.122q.105-.078.202-.17l.153-.146.346-.324.678-.64a.715.715 0 0 0-.267-1.101"/>
  <path stroke="#000" stroke-width="4" d="M66.677 38.398c0 7.052-5.717 12.77-12.77 12.77-7.052 0-12.769-5.718-12.769-12.77s5.717-12.77 12.77-12.77c7.052 0 12.769 5.718 12.769 12.77Z"/>
  <path fill="#000" d="m43.978 77.8.064-.577c.014-.12.032-.242.034-.36l.003-.142a1 1 0 0 0-.052-.195.29.29 0 0 0-.262-.197.29.29 0 0 0-.285.156l-.05.113-.895-1.525-.601-1.024-.297-.513-.06-.114a1 1 0 0 1 .086-.023c.75-.238 1.512-.447 2.263-.677l1.13-.34.426-.115a.314.314 0 0 0 .05.404.316.316 0 0 0 .438-.021c.089-.107.174-.213.264-.317.09-.103.162-.223.25-.334a.287.287 0 0 0-.152-.472 5 5 0 0 1-.274-.069l-.056-.018-.122-.051c-.08-.033-.164-.065-.246-.105l-.053-.024-.083-.028q.042-.01 0 0c-.027.008-.105-.034-.16-.052a.19.19 0 0 0-.202.078.19.19 0 0 0-.004.219l.093.112c-.192.052-.384.133-.547.18-.439.118-.87.259-1.305.392l-1.219.364c-.352.094-.885.17-1.133.466s-.081.744.116 1.075l.651 1.098 1.042 1.775a.35.35 0 0 0-.293.316.36.36 0 0 0 .058.218c.01.035.056.068.09.097q.051.042.107.076l.09.055.202.125.397.244a.356.356 0 0 0 .497-.27"/>
  <path stroke="#000" stroke-width="2" d="M48.477 73.846a6.385 6.385 0 1 1-12.77 0 6.385 6.385 0 0 1 12.77 0Z"/>
  <path fill="#fff" stroke="#fff" stroke-width="2" d="M100.908 68.307a8.231 8.231 0 1 1-16.462 0 8.231 8.231 0 0 1 16.462 0Z"/>
  <path fill="#1D4ED8" d="m84.889 64.926.568.85c.118.178.232.363.362.523l.157.197q.136.115.291.204a.51.51 0 0 0 .578-.032.51.51 0 0 0 .208-.534l-.062-.21 2.938 1.043 1.972.7.983.355.209.085a1 1 0 0 1-.09.13c-.74 1.171-1.532 2.316-2.285 3.48l-1.138 1.74-.445.638a.554.554 0 0 0-.526-.49.557.557 0 0 0-.567.527c.002.246.008.485.004.726-.004.242.034.486.042.735a.505.505 0 0 0 .74.465c.15-.078.296-.15.448-.218l.096-.038.223-.07c.145-.047.294-.1.45-.138l.099-.028.143-.056q-.043.06 0 0c.028-.041.181-.074.277-.112a.34.34 0 0 0 .182-.334.33.33 0 0 0-.242-.3l-.253-.046c.2-.287.368-.614.534-.864.458-.655.88-1.335 1.316-2.007l1.231-1.874c.368-.527 1.001-1.234 1-1.914s-.733-1.096-1.376-1.319l-2.123-.743-3.418-1.213a.62.62 0 0 0 .036-.759.63.63 0 0 0-.326-.227c-.052-.037-.153-.03-.23-.03q-.117.002-.232.02l-.184.029-.414.059-.812.12a.628.628 0 0 0-.364.93"/>
</svg>
