<svg xmlns="http://www.w3.org/2000/svg" fill="none" viewBox="0 0 384 384">
  <path fill="#fff" d="M0 0h384v384H0z"/>
  <circle cx="192" cy="239.877" r="138.831" fill="#DBEAFE"/>
  <mask id="woman-thinkinga" width="278" height="278" x="53" y="101" maskUnits="userSpaceOnUse" style="mask-type:alpha">
    <circle cx="192" cy="239.877" r="138.831" fill="#DBEAFE"/>
  </mask>
  <g mask="url(#woman-thinkinga)">
    <path fill="#1E293B" d="M117.531 429.663c2.316-32.425 6.82-67.383 21.189-96.806.643-5.95 2.049-15.115 3.588-20.912.22-.831.737-1.327 1.347-1.562q.06-.025.124-.047.121-.04.247-.064.11-.024.23-.04.15-.013.306-.007c.047 0 .089-.007.138-.005 17.093 1.26 31.691 1.53 48.682 3.838 8.249 1.119 16.349 3.162 24.671 3.709a95 95 0 0 0 26.312-1.955c1.003-.215 1.814.173 2.34.801.922-.018 1.789.486 2.019 1.705 1.094 5.789-.366 11.979 1.673 17.495 11.236 30.381 18.841 71.301 18.364 91.739-.116 5.113-5.394 5.256-8.942 5.602-11.745 1.144-21.086 1.448-32.863 2.163-22.071 1.341-87.432 2.218-108.281-3.593-.709-.322-1.223-.999-1.149-2.064z"/>
    <path fill="#000" d="M246.511 337.295c-26.534 5.74-54.153 8.444-81.107 4.104a145 145 0 0 1-22.64-5.512c-.632-.21-.361-1.216.277-1.004 25.892 8.59 53.673 9.109 80.509 5.449 7.613-1.038 15.175-2.414 22.684-4.04.653-.141.932.862.277 1.003M240.121 343.942a163.5 163.5 0 0 1 6.85 43.943c.012.669-1.028.669-1.041 0a162.5 162.5 0 0 0-6.812-43.668c-.193-.643.81-.917 1.003-.277zM145.257 345.853a163.8 163.8 0 0 0-10.08 38.815c-.086.655-1.126.662-1.04 0a165 165 0 0 1 10.116-39.092c.243-.616 1.251-.349 1.004.277"/>
  </g>
  <path fill="#5E2B34" d="M162.747 126.834c-1.826-2.105-3.21-4.675-3.511-7.445-.702-6.41 3.729-13.109 7.245-18.108 5.834-8.288 5.426-19.326 10.205-28.009.465-.848 5.409-7.188 5.377-7.253-.175-.355-.155-.837.24-1.144 4.458-3.437 10.796-1.591 13.954 2.716 4.129 5.632 3.121 12.978 2.048 19.408-1.45 8.705-1.052 17.144-.654 25.916.187 4.129.35 8.322-.072 12.442-.222 2.152-.675 4.215-1.814 5.952a.7.7 0 0 1-.146.527c-4.373 6.041-12.535 9.093-18.93 6.103a14 14 0 0 1-3.398-2.246c-1.043-.937-1.784-2.15-2.963-2.941q-.909-.606-1.804-1.193c-2.078-1.374-4.072-2.758-5.774-4.722z"/>
  <path fill="#2563EB" d="M184.336 145.347c1.828-2.94 5.715-3.558 8.918-3.988 4.71-.63 9.471-.722 14.198-.242 7.451.756 23.727.615 23.278 11.386-.037.883-3.072 1.851-3.892.277-.097.178-.45.173-1.078-.025q-.548.016-1.097.033a52 52 0 0 0-3.284.252c-2.397.257-4.771.674-7.146 1.079-3.954.675-7.907 1.352-11.92 1.542-3.425.164-7.421.547-10.648-.855-3.042-1.322-5.157-3.936-6.706-6.788-.255-.469-.28-.921-.166-1.324-.161-.43-.783-.83-.462-1.349z"/>
  <path fill="#FF9C78" d="M229.408 166.151a16 16 0 0 0 2.847 2.31c-2.558 2.578-6.477 3.996-9.531 5.145-5.095 1.915-10.141 3.227-15.575 3.2-7.586-.037-16.912-2.167-23.534-7.423.032-.422.215-.803.484-1.092.114-.297.274-.628.608-.796 3.773-1.888 7.104-11.811 7.539-15.145.905-6.929.719-15.044.401-22.106-.697-.44 7.929-11.359 13.6-13.657 5.464-2.217 12.701-3.346 17.868.225.23.158.398.351.522.558.637.158 1.154.692 1.092 1.621-.744 11.078-1.233 22.311-.769 33.416.084 2.007 1.414 10.606 4.451 13.744z"/>
  <path fill="#C75C4E" d="M213.571 139.481c-4.263 2.637-8.844 3.346-13.779 3.526-2.258.084-4.529.062-6.768-.158q-.096-6.306-.38-12.602c-.697-.44 7.929-11.36 13.6-13.658 5.464-2.216 12.701-3.345 17.868.225.23.158.398.351.522.559.637.158 1.154.692 1.092 1.621a539 539 0 0 0-.329 5.303c-2.402 6.101-6.2 11.707-11.826 15.187z"/>
  <path fill="#FF9C78" d="M182.001 83.813c2.911-13.309 13.301-24.31 28.155-22.432 9.859 1.246 19.518 7.085 23.534 16.257 5.849 13.369.655 27.142-3.104 40.32-1.712 6.005-4.45 9.744-10.269 12.323-7.569 3.354-17.53 4.858-25.882 3.045-12.679-2.753-14.745-14.258-15.358-24.745-.494-8.474 1.088-16.356 2.926-24.765z"/>
  <path fill="#3B82F6" d="M96.328 273.503c2.624-7.166 5.426-14.243 7.618-21.226 2.431-7.737 8.814-38.521 15.894-51.173 5.374-9.607 14.611-20.235 25.355-24.854.329-.141 5.698 17.384 5.244 22.074-.497 5.105-1.014 10.21-1.518 15.316-1.598 16.177-2.869 32.38-3.43 48.627-.429 12.459-1.158 24.525-4.573 36.601-.621 2.192-1.621 5.696-3.984 6.672-2.453 1.013-7.195-.057-9.894.05-6.679.261-11.735-.715-17.324 3.195-7.495 5.243-3.774 12.026-2.531 21.06.028.2 37.375-15.632 37.358-15.464-.596 5.822-6.089 14.325-10.552 18.299-4.181 3.721-9.58 5.634-15.095 6.19-3.939.397-7.925.145-11.827-.465-7.833-1.226-14.124-6.783-16.472-14.327-5.367-17.243-.289-34.14 5.728-50.572z"/>
  <path fill="#5E2B34" d="M183.373 81.807a3 3 0 0 1-.102-.475c-.059-.496.035-1.025.341-1.42.833-1.07 2.701-.986 3.897-.932 2.348.104 9.605-.798 9.553 3.533-.034 2.82-3.108 3.27-5.088 3.163-1.561-.084-3.116-.422-4.618-.963-1.095-.396-2.283-.722-3.138-1.557a3.25 3.25 0 0 1-.843-1.347zM211.361 78.59c2.266.504 4.354 1.559 6.403 2.616 1.851.957 3.887 1.7 5.678 2.694 1.767.978.25 3.427-1.233 3.605-3.274.388-6.578-.037-9.706-1.043-2.002-.642-5.345-2.392-5.291-5.15.05-2.428 2.358-3.12 4.152-2.72z"/>
  <path fill="#3B82F6" d="M114.947 230.059c2.555-11.322 3.665-21.201 7.977-32.019 3.674-9.215 12.424-16.319 21.117-21.138 8.464-4.69 17.557-6.419 26.512-9.941 5.641-2.219 11.75-1.206 12.504-8.587.726-7.131.207-11.174 1.356-13.254.672-1.221 2.306-2.55 3.494-1.256 12.926 14.108 25.664 4.878 39.137 3.062.929-.126 1.638.386 2.001 1.05 3.946 4.186.321 10.89 3.694 15.311 1.52 1.991 4.317 3.284 6.353 4.705 2.635 1.836 5.585 3.259 8.508 4.564 5.812 2.594 13.413 5.001 19.062 7.961 7.826 4.102 16.59 10.935 20.606 18.973 4.112 8.231 7.512 15.471 5.903 32.944-.074.801-19.897 1.043-26.643 4.176-2.011.937-1.593 9.368-1.68 11.107-.274 5.59-.605 11.076-1.221 16.687a3111 3111 0 0 1-2.876 25.338c-.914 7.764-.257 16.228-2.431 23.747-4.394 15.18-18.091 17.27-31.729 14.043-12.076-2.859-28.73-3.007-41.098-1.651-10.613 1.164-28.316 1.515-38.736-2.468-10.816-4.134-6.672-11.651-6.828-22.094-.2-13.457.03-26.208 2.074-38.34q.028-.167.079-.309c.133-.386.173-.794.104-1.196-.789-4.636-1.436-9.286-1.878-13.942a2.4 2.4 0 0 0-1.182-1.846c-7.633-4.455-14.747-8.98-22.706-13.173a1.8 1.8 0 0 1-.591-.484c-.635-.363-1.082-1.06-.874-1.975z"/>
  <path fill="#2563EB" d="M216.985 305.906c-5.159-8.909-5.755-19.717-5.162-29.762.653-11.08 2.785-22.088 5.568-32.813 2.209-8.51 4.675-17.062 6.071-25.758 2.545 7.142 5.305 14.206 8.177 21.226 3.768 9.215 7.23 18.467 10.558 27.849 3.099 8.73 6.443 17.512 11.348 25.41 1.937 3.121 4.232 5.903 6.506 8.747-.215 4.332-.566 8.644-1.735 12.687-.954 3.296-2.347 5.975-4.085 8.117-4.465 1.208-9.338 1.206-14.067.153-9.326-2.075-18.316-7.457-23.179-15.856"/>
  <path fill="#5E2B34" d="M181.546 59.427c1.92-1.058 4.139-1.103 6.224-1.607 2.822-.682 5.303-2.216 7.888-3.474 3.81-1.853 7.994-2.982 11.97-.974q.016.011.037.023c1.522.85 5.382.35 7.173.53 2.661.27 5.315.631 7.935 1.167 4.984 1.02 9.933 2.66 14.176 5.53 5.758 3.895 10.564 8.916 13.171 15.217 2.807 6.786 3.855 13.507 4.23 20.448a9.4 9.4 0 0 0 .867 3.412c4.545 9.833 9.877 23.258 5.209 33.977-4.297 9.87-16.479 10.809-25.728 9.195-5.167-.902-10.196-4.072-10.146-9.82a.24.24 0 0 0-.094-.193c-3.099-2.379-5.303-5.787-5.995-9.726-1.127-6.409 1.599-12.79 4.495-18.357 1.381-2.654 3.047-5.093 3.657-8.058.67-3.24.403-6.706-.18-9.899-.223-1.223-.984-2.315-2.115-2.83-1.676-.76-3.759-.637-5.548-1.294-1.752-.648-3.44-1.49-4.969-2.565-3.003-2.108-5.298-5.088-6.338-8.624-.082-.274-.487-.222-.485.067.02 1.67.237 3.402.929 4.94.267.592.487 1.29-.299 1.534-6.308 1.952-14.161 2.001-19.835-2.469-1.917-1.512-3.338-3.704-3.961-6.049a.246.246 0 0 0-.467-.03c-1.186 2.929-2.182 6.665-.954 9.751.23.576-.217.961-.706.994-.262.098-.566.066-.823-.196-5.113-5.248-7.428-16.153.677-20.61z"/>
  <path fill="#000" d="M187.398 87.708c.163-.38.358-.744.583-1.08 1.253-1.866 3.546-2.106 4.661.044.393.759.521 1.636.506 2.496-.029 1.722-.662 3.959-1.986 5.132-1.233 1.093-3.03 1.001-3.769-.585-.84-1.804-.8-4.132.003-6.01zM212.793 89.672c.173-.375.383-.734.625-1.065 1.347-1.84 3.838-2.063 5.071.08.435.753.583 1.625.576 2.478-.018 1.707-.685 3.921-2.113 5.075-1.332 1.075-3.287.969-4.104-.61-.93-1.794-.912-4.102-.055-5.958"/>
  <path fill="#C75C4E" d="M198.342 93.174c-1.883.85-3.64 2.409-3.875 4.581-.23 2.125 1.164 3.951 2.874 5.026.566.356.045 1.255-.524.9-2.028-1.276-3.605-3.425-3.39-5.926.22-2.533 2.172-4.48 4.391-5.48.605-.275 1.134.622.524.899M203.195 103.522c-.89-.84-2.014-1.201-3.225-1.089-.667.061-.662-.981 0-1.041 1.475-.133 2.889.381 3.961 1.394.487.46-.249 1.196-.736.736M197.523 109.24c2.659.361 5.227 2.526 6.687 4.75.815 1.243-.954 1.097-1.562.897-3.054-1.004-5.589-2.971-9.024-1.844-.418.139-.843-.395-.83-.83.069-2.461 2.854-3.227 4.727-2.973z"/>
  <path fill="#000" d="M188.132 171.73c1.082-1.079 2.857-1.423 4.142-.521 3.022 2.123 2.1 10.188-2.513 9.306-3.576-.685-3.838-6.58-1.629-8.785"/>
  <path fill="#000" d="M200.7 131.458q.57-1.965 1.139-3.931c.672-2.317-3.367-3.052-4.036-.75l-12.636 43.57c-.671 2.315 3.368 3.053 4.037.75 3.605-12.427 7.018-24.168 10.621-36.596l.128-.313c1.337.079-1.121 7.257-1.325 7.99l-2.351 8.438c-.43 1.549 1.816 3.108 2.245 1.567 1.352-4.856 3.421-10.775 4.518-15.692.512-2.298.1-4.457-2.342-5.034z"/>
  <path fill="#C75C4E" d="M205.12 80.495a5.5 5.5 0 0 0 .027 3.32c.203.64-.803.915-1.003.278a6.5 6.5 0 0 1-.027-3.873c.19-.64 1.196-.368 1.003.277zM199.804 117.832c-1.534.712-3.232.657-4.692-.21-.576-.341-.052-1.24.524-.899 1.124.667 2.451.763 3.645.21.603-.28 1.131.615.523.899"/>
  <path fill="#000" d="M144.026 206.412c-8.812 23.457-1.181 48.496 4.151 71.788 1.554 6.791 2.931 13.623 3.759 20.544.079.663-.962.658-1.041 0-2.943-24.586-13.195-48.217-11.787-73.301.371-6.592 1.589-13.121 3.915-19.308.232-.62 1.24-.351 1.003.277"/>
  <path fill="#000" d="M145.175 269.51a96.4 96.4 0 0 0-3.187 28.387c.024.67-1.016.67-1.041 0a97.4 97.4 0 0 1 3.225-28.664c.173-.647 1.176-.373 1.003.277"/>
  <path fill="#3B82F6" d="M241.951 265.475c4.854-15.286 3.055-23.184 5.887-38.828 1.865-10.309 7.909-23.445 19.328-26.092 5.901-1.369 11.028.509 16.022 3.633 2.13 1.332 8.375 4.739 9.074 7.46 3.113 12.15.946 27.223.418 39.151-.527 11.851-1.718 14.616-3.413 26.373-1.458 10.114-4.337 20.747-11.382 28.482-5.747 6.308-13.983 10.598-22.587 10.907-6.729.242-13.571-3.588-17.772-8.681-10.371-12.575.356-29.581 4.428-42.408z"/>
  <path fill="#FF9C78" d="M179.218 167.545c.351-.245.724-.467 1.115-.675-.826-3.716 1.023-8.09 1.969-9.247 3.531-4.321 27.705 3.055 32.939 4.72 4.549 1.448 9.262 2.936 12.958 6.086 3.645 3.106 5.973 7.421 8.093 11.634 2.572 5.113 23.878 56.871 28.353 78.937.118.581-.025 1.075-.304 1.453-1.488 7.683-5.844 14.271-11.192 19.858-2.95 3.081-6.19 5.878-9.444 8.631-2.768 2.343-5.09 3.847-8.844 3.207-.929-.158-1.314-.827-1.3-1.541-4.942-5.177-7.724-13.003-8.367-20.07-2.137-23.507-4.919-42.927-6.442-53.869-.467-3.447-1.208-6.862-1.964-10.257a311 311 0 0 0-1.243-5.367c-.415-1.73-.514-3.569-2.162-4.597-.828-.516-1.782-.785-2.701-1.109a23 23 0 0 1-4.018-1.868c-1.062-.625-2.379-1.883-3.744-1.384-.724.264-1.304 1.097-.491 1.666 1.566 1.092 4.099.84 4.472 2.631 1.401 6.704-9.839 4.317-9.54 4.418-4.008-1.364-11.016-1.663-11.792-6.535-.643.101-7.038-4.409-5.501-12.988-2.671-4.221-5.458-10.527-.855-13.737z"/>
  <path fill="#3B82F6" d="M225.289 275.379c7.863 4.428 19.022 3.365 24.555-3.504 14.25-17.696 10.724-27.97 10.937-28.239.202-1.478 2.431-.683 3.355.966 1.14 2.031 2.009 3.612 2.971 4.005 10.583 4.307 14.334 21.474 10.815 31.914-4.373 12.978-2.634 30.203-15.483 34.666-7.23 2.511-12.128 1.265-13.149 1.127-6.664-.91-12.906-4.285-17.433-9.239-2.298-2.516-4.277-5.506-5.451-8.721-1.198-3.286-.724-6.768-1.146-10.146-.371-2.955-1.177-5.832-2.027-8.678-.402-1.354-1.025-5.884 2.054-4.149z"/>
  <path fill="#000" d="M261.361 241.55c1.932.558 3.212 2.081 3.978 3.887 1.013 2.384 1.436 5.011 2.313 7.453.951 2.646 2.174 5.147 3.484 7.63 1.142 2.16 2.152 4.324 2.476 6.768.087.663-.954.655-1.04 0-.329-2.476-1.5-4.67-2.654-6.844-1.023-1.93-1.965-3.892-2.763-5.926-.84-2.145-1.465-4.334-2.073-6.551-.615-2.236-1.539-4.702-3.996-5.411-.642-.186-.368-1.189.277-1.004zM272.016 251.521c5.143 2.399 9.032 6.921 10.673 12.347.195.643-.811.917-1.003.277-1.569-5.187-5.288-9.439-10.196-11.727-.605-.282-.079-1.179.524-.9zM183.026 305.733a46.9 46.9 0 0 0 16.045 12.451c.605.287.076 1.184-.524.9a47.55 47.55 0 0 1-16.255-12.612c-.425-.512.307-1.251.737-.737z"/>
  <path fill="#C75C4E" d="M196.751 165.024q-3.973-.345-7.947-.694c-1.987-.173-5.441-1.122-7.02.516-.465.482-1.201-.254-.736-.736 1.608-1.668 4.151-1.137 6.217-.956l9.484.827c.662.057.667 1.1 0 1.041zM195.56 174.387q-3.613.381-7.225.761c-1.203.126-2.412.235-3.613.381-1.218.148-2.989.343-3.175 1.898-.079.657-1.119.664-1.04 0 .289-2.43 2.713-2.778 4.732-2.993l10.321-1.087c.665-.069.66.971 0 1.04M200.556 182.712c-3.457.553-7.064.87-10.462 1.717-3.934.984-4.305 5.212-4.386 8.607-.015.667-1.055.669-1.04 0 .076-3.21.358-7.166 3.484-8.968 1.584-.912 3.607-.996 5.372-1.277l6.758-1.083c.655-.103.937.897.277 1.004zM200.784 194.14c-2.558-.217-4.937-1.033-7.07-2.466-.553-.37-.032-1.272.524-.899 1.979 1.332 4.164 2.122 6.543 2.325.662.057.667 1.097 0 1.04z"/>
  <path fill="#000" d="M276.32 214.536a37.6 37.6 0 0 0-16.971 17.498c-.284.605-1.181.079-.899-.524a38.52 38.52 0 0 1 17.344-17.871c.595-.301 1.122.596.524.9zM178.855 74.646c.274.941 1.107 1.646 2.09 1.722.663.052.67 1.092 0 1.04-1.455-.11-2.683-1.077-3.093-2.485-.188-.645.815-.92 1.003-.277M213.26 78.913c1.861 1.693 4.058 2.785 6.521 3.277.655.131.378 1.134-.277 1.003-2.636-.526-4.994-1.737-6.98-3.543-.497-.452.242-1.186.736-.737M210.326 56.652c-2.112.585-3.093 2.94-3.499 4.907-.415 2.019-.294 4.11-.009 6.138.091.655-.91.94-1.004.277-.553-3.927-.657-10.967 4.233-12.323.645-.18.922.823.277 1.003zM192.211 59.713c-1.789 1.32-3.521 2.81-4.65 4.755-1.298 2.233-1.33 4.368-.764 6.825.151.652-.853.929-1.003.276-.591-2.56-.593-4.883.662-7.257 1.206-2.281 3.185-3.988 5.229-5.498.538-.398 1.057.504.524.9zM222.966 59.044c4.277 2.16 6.281 7.282 7.005 11.755.885 5.483.032 11.013-.82 16.444-.104.66-1.107.38-1.003-.276.8-5.088 1.618-10.297.889-15.445-.618-4.358-2.414-9.471-6.595-11.581-.598-.302-.072-1.199.524-.9zM237.922 74.762c2.352 9.034 3.476 18.735.467 27.762-1.404 4.211-3.754 7.668-6.482 11.115-1.581 1.999-3.032 4.055-3.964 6.444-.852 2.19-1.349 4.493-1.734 6.803-.111.66-1.112.381-1.003-.277.741-4.435 2.043-8.508 4.754-12.145 2.74-3.677 5.535-6.998 7.129-11.372 3.311-9.073 2.211-18.908-.173-28.058-.168-.648.835-.925 1.003-.277zM236.624 111.168c-1.423 4.317-3.175 8.658-4.114 13.113-.843 3.991-.48 8.815 3.155 11.355.546.38.025 1.282-.524.899-3.365-2.35-4.413-6.555-3.97-10.467.281-2.488 1.057-4.878 1.838-7.245.87-2.644 1.745-5.286 2.614-7.93.208-.632 1.214-.36 1.004.277z"/>
  <path fill="#fff" d="M155.467 321.847a1147 1147 0 0 0 15.798-17.285 1147 1147 0 0 0 13.096-14.878c1.607-1.856 11.728-15.451 14.211-13.569 13.327 10.107 25.539 21.311 37.666 32.796 3.729 3.531-6.118 12.264-8.253 14.602-4.769 5.221-9.783 10.2-14.621 15.352q-.347.369-.689.741c-4.896 5.333-9.709 10.742-14.597 16.084a511 511 0 0 1-7.413 7.95c-2.167 2.268-4.381 5.313-7.186 6.78-2.31 1.211-3.667-.902-5.51-2.394a1183 1183 0 0 1-6.183-5.046c-4.003-3.291-25.093-21.607-28.133-26.183a1.72 1.72 0 0 1 .159-2.108c2.416-2.683 9.417-10.45 11.651-12.844z"/>
  <path fill="#000" d="M179.55 93.87a159 159 0 0 1-7.195 17.461c-2.227 4.593-6.559 11.678-1.51 16.029.509.438-.23 1.172-.737.737-4.551-3.924-2.154-10.257.072-14.713 3.208-6.42 6.027-13.002 8.367-19.788.218-.63 1.223-.358 1.003.277zM249.446 85.471a33 33 0 0 0 3.798 10.282c.334.581-.566 1.107-.9.524a33.8 33.8 0 0 1-3.901-10.531c-.124-.655.877-.934 1.003-.277z"/>
  <path fill="#FF9C78" d="M103.53 312.439c.359-.976.784-1.838 1.266-2.543 1.811-2.644 4.433-4.576 7.087-6.311 7.477-4.887 15.691-8.216 23.786-11.829 5.94-2.651 11.881-5.298 17.821-7.949 5.276-2.357 10.532-5.125 16.126-6.684 7.569-2.11 15.56-1.29 22.101 3.244 3.447 2.39 6.432 5.417 8.928 8.777 2.333 3.141 5.108 6.25 6.333 10.033.539 1.658.391 3.299-.954 4.5-4.02 3.595-7.593-3.131-9.797-5.461a27.9 27.9 0 0 0-9.252-6.44c-.833-.358-1.549.697-.922 1.352q.935.974 1.794 2.033c2.395 2.951 4.377 6.23 6.235 9.554 1.502 2.683 3.761 5.844 3.222 9.123-.358 2.186-1.947 4.124-4.166 4.334-3.156.299-5.651-2.904-7.515-5.051-.42-.482-.84-.991-1.267-1.512.17.716.279 1.433.316 2.147.099 1.92-.41 4.075-2.197 5.026-2.263 1.206-4.873-.657-6.667-1.967-1.843-1.349-3.674-3.197-5.594-4.939-.47-.425-1.164.143-.85.694 1.611 2.837 2.706 6.234.351 8.362-3.798 3.432-7.935-3.378-10.46-5.426-4.171-3.383-9.657-4.577-14.601-2.069-2.627 1.332-16.166 19.089-32.5 20.752-10.138 1.033-11.525-13.845-8.621-21.748z"/>
  <path fill="#000" d="M233.498 305.72c.719-1.462 1.329-3.385.926-5.023-.541-2.207-3.029-2.076-4.635-1.209-2.672 1.441-4.661 4.152-5.711 6.944-.235.62-1.24.351-1.003-.277 1.28-3.402 4.411-7.897 8.392-8.31 1.613-.168 3.284.588 3.847 2.187.702 1.997-.025 4.399-.917 6.212-.296.601-1.193.074-.899-.524M220.544 294.573c.719-1.462 1.33-3.385.927-5.023-.541-2.207-3.03-2.076-4.636-1.208-2.671 1.44-4.66 4.151-5.711 6.943-.232.62-1.24.351-1.003-.277 1.28-3.402 4.411-7.897 8.392-8.31 1.613-.168 3.284.588 3.847 2.187.702 1.997-.024 4.399-.916 6.212-.297.601-1.194.074-.9-.524M206.687 282.673c.719-1.463 1.329-3.385.926-5.024-.541-2.206-3.029-2.075-4.635-1.208-2.672 1.441-4.661 4.151-5.711 6.944-.235.62-1.24.351-1.003-.277 1.28-3.403 4.411-7.898 8.391-8.31 1.614-.168 3.284.588 3.848 2.187.702 1.996-.025 4.398-.917 6.212-.296.6-1.193.074-.899-.524"/>
  <path fill="#3B82F6" d="M111.164 299.372c5.451-4.292 13.153-6.269 19.516-8.831.776-.312 1.31.222 1.418.87.957.187 1.276.884.191 1.48-6.18 3.387-10.819 9.558-13.312 16.18-1.228 3.264-1.9 6.781-1.757 10.275.163 3.946 2.82 11.213 7.843 11.109.539-.012.885.275 1.051.65.57.517.714 1.461-.171 1.841-4.989 2.145-14.987 5.661-19.412 2.12-4.48-3.583-8.229-14.942-8.135-20.635.101-6.141 8.097-11.382 12.765-15.059z"/>
  <path fill="#000" d="M127.524 291.885c-2.632-4.801-8.412-5.676-13.346-6.274-.658-.079-.665-1.122 0-1.04 5.313.645 11.416 1.631 14.243 6.788.321.588-.576 1.112-.9.524zM131.462 289.27c-3.776-8.856-9.838-16.612-17.56-22.37-.531-.395-.012-1.3.524-.899 7.868 5.866 14.083 13.711 17.933 22.743.259.608-.635 1.139-.9.524z"/>
  <path fill="#C75C4E" d="M176.736 286.518a25.7 25.7 0 0 1 7.027 2.021c.611.272.082 1.169-.524.9a24.8 24.8 0 0 0-6.78-1.915c-.66-.092-.378-1.092.277-1.004zM166.455 293.981c8.659 1.934 13.756 9.701 18.133 16.748.353.571-.546 1.092-.9.524-4.233-6.82-9.12-14.396-17.51-16.272-.652-.145-.375-1.149.277-1.003zM157.896 300.165c2.461.06 4.49 2.405 6.116 4.018a45 45 0 0 1 5.33 6.417c.38.554-.522 1.073-.9.524a43.5 43.5 0 0 0-4.527-5.557 44 44 0 0 0-2.305-2.217c-1.065-.951-2.202-2.112-3.717-2.147-.667-.017-.669-1.057 0-1.04z"/>
  <path fill="#000" d="M231.529 314.12a1133 1133 0 0 1-37.088 38.535q-5.443 5.389-10.954 10.707c-.482.465-1.219-.269-.737-.736a1131 1131 0 0 0 37.609-38.027q5.255-5.57 10.433-11.216c.455-.494 1.189.242.737.737"/>
  <g filter="url(#woman-thinking2b)">
    <path fill="#93C5FD" d="m100.598 120.528-.382-1.364c-1.318-4.703-1.892-8.587-1.876-11.679.035-3.024.613-5.685 1.703-7.829q1.636-3.216 4.409-6.308c1.398-1.568 2.593-3.079 3.563-4.6.971-1.523 1.698-3.123 2.047-4.765s.319-3.324-.178-5.097c-.515-1.84-1.451-3.342-2.738-4.526-1.288-1.183-2.82-1.93-4.53-2.26s-3.46-.28-5.301.236c-1.84.515-3.294 1.364-4.652 2.553s-2.328 2.71-2.862 4.478c-.603 1.786-.632 3.78-.07 6.048l-16.565 4.641c-1.373-5.423-1.338-10.285.123-14.518 1.46-4.232 4.007-7.74 7.532-10.639s7.796-4.977 12.704-6.352c5.385-1.51 10.406-1.96 14.992-1.334 4.655.608 8.566 2.232 11.907 4.972s5.607 6.37 6.944 11.141c.879 3.136 1.116 6.084.781 8.824a20.9 20.9 0 0 1-2.548 7.699c-1.306 2.424-3.097 4.69-5.18 6.965-1.75 1.887-3.16 3.679-4.141 5.425-.982 1.745-1.546 3.667-1.731 5.631-.166 2.031.104 4.308.849 6.967l.382 1.363-15.338 4.298zm15.252 23.737c-2.727.764-5.244.44-7.687-.934s-4.047-3.424-4.724-6.102c-.745-2.658-.489-5.156.885-7.6s3.424-4.047 6.083-4.792q3.885-1.088 7.551.973c2.511 1.354 4.096 3.337 4.841 5.995.496 1.773.478 3.542.012 5.29s-1.369 3.251-2.552 4.538-2.705 2.155-4.409 2.632"/>
  </g>
  <g filter="url(#woman-thinking3c)">
    <path fill="#93C5FD" d="m145.263 57.082.145-.746c.501-2.574 1.161-4.574 1.913-6.054.745-1.442 1.662-2.58 2.701-3.345q1.56-1.148 3.634-1.965c1.048-.416 1.985-.853 2.817-1.35.832-.495 1.566-1.088 2.129-1.792a5.6 5.6 0 0 0 1.141-2.487 5.1 5.1 0 0 0-.224-2.83 4.9 4.9 0 0 0-1.628-2.175 6.1 6.1 0 0 0-2.6-1.164c-1.007-.195-1.908-.138-2.846.105-.938.244-1.77.74-2.451 1.46-.719.71-1.213 1.66-1.49 2.884l-9.063-1.762c.647-2.932 1.834-5.256 3.554-6.935s3.785-2.748 6.175-3.29 4.937-.51 7.623.011c2.946.573 5.463 1.566 7.512 2.97 2.087 1.412 3.572 3.133 4.515 5.252s1.156 4.405.649 7.016c-.334 1.716-.929 3.187-1.75 4.42a11.2 11.2 0 0 1-3.076 3.08c-1.21.849-2.615 1.505-4.161 2.094-1.294.484-2.402 1.004-3.293 1.605a7.6 7.6 0 0 0-2.186 2.285c-.568.934-.987 2.092-1.27 3.547l-.145.745-8.392-1.63zm1.647 15.029c-1.492-.29-2.622-1.052-3.463-2.299s-1.117-2.617-.797-4.064c.283-1.455 1.007-2.592 2.254-3.433s2.617-1.117 4.072-.834q2.126.413 3.388 2.284c.879 1.255 1.162 2.587.879 4.042a5.3 5.3 0 0 1-1.268 2.54c-.645.727-1.439 1.23-2.317 1.563-.877.332-1.816.382-2.748.2"/>
  </g>
  <g filter="url(#woman-thinking4d)">
    <path fill="#93C5FD" d="m111.455 33.652-.149-.545c-.513-1.88-.731-3.43-.717-4.663.022-1.206.26-2.266.7-3.118q.662-1.278 1.775-2.504c.562-.622 1.043-1.222 1.434-1.826s.686-1.241.829-1.895a4.2 4.2 0 0 0-.057-2.033 3.8 3.8 0 0 0-1.081-1.813 3.65 3.65 0 0 0-1.8-.913 4.5 4.5 0 0 0-2.115.08 4.6 4.6 0 0 0-1.862 1.006 3.8 3.8 0 0 0-1.154 1.778c-.245.711-.262 1.506-.044 2.412l-6.619 1.807c-.533-2.166-.506-4.106.088-5.79s1.619-3.076 3.032-4.223 3.123-1.965 5.084-2.5c2.152-.587 4.155-.754 5.983-.492 1.855.255 3.41.913 4.736 2.015s2.219 2.555 2.74 4.462c.342 1.253.429 2.43.288 3.521a8.3 8.3 0 0 1-1.037 3.064c-.527.964-1.248 1.863-2.085 2.764-.703.748-1.27 1.46-1.666 2.153a5.65 5.65 0 0 0-.705 2.241c-.072.81.03 1.719.32 2.781l.149.545-6.129 1.673zm6.04 9.473c-1.09.298-2.093.162-3.064-.393-.971-.554-1.605-1.376-1.867-2.446-.29-1.062-.182-2.058.373-3.029.554-.97 1.376-1.605 2.439-1.895q1.553-.425 3.009.408c.998.547 1.625 1.342 1.915 2.404a3.94 3.94 0 0 1-.01 2.11 4.3 4.3 0 0 1-1.03 1.803c-.475.51-1.084.852-1.765 1.038"/>
  </g>
  <defs>
    <filter id="woman-thinking2b" width="60.131" height="91.73" x="70.164" y="55.94" color-interpolation-filters="sRGB" filterUnits="userSpaceOnUse">
      <feFlood flood-opacity="0" result="BackgroundImageFix"/>
      <feColorMatrix in="SourceAlpha" result="hardAlpha" values="0 0 0 0 0 0 0 0 0 0 0 0 0 0 0 0 0 0 127 0"/>
      <feOffset dy="1"/>
      <feGaussianBlur stdDeviation="1"/>
      <feComposite in2="hardAlpha" operator="out"/>
      <feColorMatrix values="0 0 0 0 0 0 0 0 0 0 0 0 0 0 0 0 0 0 0.05 0"/>
      <feBlend in2="BackgroundImageFix" result="effect1_dropShadow_449_19832"/>
      <feBlend in="SourceGraphic" in2="effect1_dropShadow_449_19832" result="shape"/>
    </filter>
    <filter id="woman-thinking3c" width="34.296" height="50.972" x="137.44" y="24.243" color-interpolation-filters="sRGB" filterUnits="userSpaceOnUse">
      <feFlood flood-opacity="0" result="BackgroundImageFix"/>
      <feColorMatrix in="SourceAlpha" result="hardAlpha" values="0 0 0 0 0 0 0 0 0 0 0 0 0 0 0 0 0 0 127 0"/>
      <feOffset dy="1"/>
      <feGaussianBlur stdDeviation="1"/>
      <feComposite in2="hardAlpha" operator="out"/>
      <feColorMatrix values="0 0 0 0 0 0 0 0 0 0 0 0 0 0 0 0 0 0 0.05 0"/>
      <feBlend in2="BackgroundImageFix" result="effect1_dropShadow_449_19832"/>
      <feBlend in="SourceGraphic" in2="effect1_dropShadow_449_19832" result="shape"/>
    </filter>
    <filter id="woman-thinking4d" width="26.395" height="38.979" x="98.215" y="7.3" color-interpolation-filters="sRGB" filterUnits="userSpaceOnUse">
      <feFlood flood-opacity="0" result="BackgroundImageFix"/>
      <feColorMatrix in="SourceAlpha" result="hardAlpha" values="0 0 0 0 0 0 0 0 0 0 0 0 0 0 0 0 0 0 127 0"/>
      <feOffset dy="1"/>
      <feGaussianBlur stdDeviation="1"/>
      <feComposite in2="hardAlpha" operator="out"/>
      <feColorMatrix values="0 0 0 0 0 0 0 0 0 0 0 0 0 0 0 0 0 0 0.05 0"/>
      <feBlend in2="BackgroundImageFix" result="effect1_dropShadow_449_19832"/>
      <feBlend in="SourceGraphic" in2="effect1_dropShadow_449_19832" result="shape"/>
    </filter>
  </defs>
</svg>
