<svg xmlns="http://www.w3.org/2000/svg" width="192" height="192" fill="none" viewBox="0 0 192 192">
  <path fill="#fff" d="M0 0h192v192H0z"/>
  <path fill="#fff" d="M165.029 83.37c-.436-10.885-1.196-40.172-4.431-49.322-3.234-9.15-10.892-10.45-16.246-11.077s-35.165.982-35.165.982-3.596-15.891-5.228-17.31c-1.632-1.417-33.534 5.908-40.83 7.843s-46.368 10.14-48.886 11.32C11.725 26.989 25.024 83.29 25.024 83.29l-2.614 3.485c-.192 1.89-.325 2.725-.325 2.725l-1.196.325s-1.743 1.418-1.196 5.775c.546 4.357 5.22 5.331 5.22 5.331s.325 2.718.872 6.204a5.61 5.61 0 0 0 3.375 4.43s.871 19.939 1.093 25.92-.739 28.062 3.92 37.558c4.66 9.497 11.21 7.621 16.764 5.664 5.553-1.956 40.394-18.941 40.394-18.941s0 3.042 3.692 8.049 11.867 5.996 11.867 5.996 4.357 7.075 6.1 8.707 55.251-2.865 56.285-4.135c1.034-1.271-3.81-86.12-4.246-97.012m-114.75 68.049-6.32-49.322 39.308-8.817s-.739.739 1.196 7.835c1.935 7.097 10.996 7.732 10.996 7.732s3.589 13.174 3.692 13.72-48.871 28.852-48.871 28.852m65.214-92.544-3.271-15.928h25.263l.738 30.158z"/>
  <path fill="#007AFF" d="M73.117 75.966a.886.886 0 0 0-1.24-.155 30 30 0 0 1-4.218 3.692c-1.1.738-3.382 2.215-4.497.783a3.3 3.3 0 0 1-.494-2.43 1 1 0 0 1 0-.133 16.1 16.1 0 0 0 4.187-7.148c.147-.59-.23-1.337-.953-1.197a5.43 5.43 0 0 0-3.751 3.154c-.394.867-.679 1.78-.85 2.717a42 42 0 0 0-.332 1.677 7 7 0 0 1-.532.51 32 32 0 0 1-3.743 2.953c-1.056.738-2.423 1.691-3.774 1.521a1.28 1.28 0 0 1-1.026-.664 18.8 18.8 0 0 0 2.436-3.39c.46-.81.858-1.655 1.19-2.525a8.5 8.5 0 0 0 .738-2.607 1.935 1.935 0 0 0-1.13-2.038c-.945-.34-1.928.369-2.577 1.004a8.9 8.9 0 0 0-2.327 4.748 11.8 11.8 0 0 0-.302 4.357q-.728.717-1.529 1.352a6.6 6.6 0 0 1-1.477.967.887.887 0 0 0-1.742.044c-.052.273-.097.547-.148.82a.886.886 0 0 0 .738.96 3.9 3.9 0 0 0 3.013-.916 17 17 0 0 0 1.854-1.477c.952 1.182 2.621 1.367 4.12.909a15.9 15.9 0 0 0 4.712-2.836q.755-.574 1.477-1.204a3.69 3.69 0 0 0 2.215 3.058c1.787.657 3.692-.34 5.17-1.278a27 27 0 0 0 4.585-3.973.91.91 0 0 0 .207-1.255M52.55 74.769c.248-.609.603-1.169 1.048-1.654q.334-.34.739-.59l.118-.067a.8.8 0 0 1 0-.214.6.6 0 0 1 .044.118v.096c0 .103.052.14 0 0a10.5 10.5 0 0 1-1.263 3.818 16 16 0 0 1-1.52 2.459c.072-1.357.353-2.695.834-3.966m11.077-1.056c.184-.484.432-.94.738-1.358q-.345.7-.768 1.358z"/>
  <path fill="#000" d="M107.163 62.064a19.94 19.94 0 0 0-10.812 5 19.7 19.7 0 0 0-3.84 4.681c-1.122 1.92-1.956 4.04-3.419 5.738-1.292 1.477-3.507 2.629-5.442 1.706a.915.915 0 0 0-1.167 1.196c.68 1.44 1.315 2.91 2.053 4.32a.894.894 0 0 0 1.64-.694 55 55 0 0 0-1.226-2.68 6.85 6.85 0 0 0 3.899-1.234c1.868-1.248 2.99-3.264 4.002-5.213a24 24 0 0 1 3.5-5.303 18.3 18.3 0 0 1 4.638-3.633 19.6 19.6 0 0 1 6.425-2.17.87.87 0 0 0 .731-.983.866.866 0 0 0-.982-.731"/>
  <path fill="#000" d="M97.385 119.93c-.93-3.352-1.757-6.735-2.614-10.109a10.6 10.6 0 0 1-5.516-1.522 14.27 14.27 0 0 1-6.55-9.6 19.7 19.7 0 0 1-.34-4.356c0-.636.067-1.27.14-1.906.349-2.749 1-5.45 1.943-8.056.377-1.086 2.016-.429 1.654.65a36.5 36.5 0 0 0-1.706 6.963c0 .089 0 .185-.037.28-.066.54-.118 1.086-.14 1.626-.17 3.433.48 6.919 2.577 9.725 1.986 2.658 5.125 4.66 8.544 4.327a.955.955 0 0 1 1.041.783c.916 3.567 1.89 7.119 2.733 10.708.243 1.041-1.455 1.469-1.729.487M97.112 78.126a.88.88 0 0 0-.99-.738 1.1 1.1 0 0 0-.435.192l-.162.096a.85.85 0 0 0-.274.369l-.738 1.477a.85.85 0 0 0 0 .657c.078.175.21.32.376.414a.84.84 0 0 0 .547.11.88.88 0 0 0 .576-.34c.31-.53.628-1.063.93-1.594.077-.091.128-.2.148-.318a.63.63 0 0 0 .022-.325M105.597 76.723a7.95 7.95 0 0 0-8.359-5.804.872.872 0 1 0 .244 1.728 6.246 6.246 0 0 1 6.417 4.549.893.893 0 0 0 1.698-.473"/>
  <path fill="#000" d="M88.473 86.972a.86.86 0 0 0-.59-.332 1.04 1.04 0 0 0-.636.177c-1.026.62-2.03 1.307-3.042 1.965a.864.864 0 0 0-.148 1.21.88.88 0 0 0 1.211.156c1.02-.643 2.053-1.27 3.05-1.95a.88.88 0 0 0 .155-1.226M108.168 79.205a10.23 10.23 0 0 1-4.378-8.328 10.23 10.23 0 0 1 4.282-8.376c.909-.672-.162-2.039-1.071-1.381a12.23 12.23 0 0 0-4.741 7.295 11.82 11.82 0 0 0 1.477 8.545 12 12 0 0 0 2.216 2.761 8.267 8.267 0 0 0-2.809 11.803 8.26 8.26 0 0 0 3.415 2.907c1.041.503 1.698-1.181.657-1.683a6.485 6.485 0 0 1 .738-11.993.9.9 0 0 0 .551-.714.92.92 0 0 0-.337-.837"/>
  <path fill="#000" d="M116.195 93.819a5.654 5.654 0 0 0-4.512-3.434 5.385 5.385 0 0 0-5.376 2.872c-.406.88 1.026 1.706 1.521.842a3.69 3.69 0 0 1 3.295-1.93 3.69 3.69 0 0 1 3.241 2.019c1.55 2.88-.369 6.136-3.294 7.089a6.7 6.7 0 0 1-5.45-.82.887.887 0 0 0-1.063 1.418 7.73 7.73 0 0 0 6.358 1.329 7.6 7.6 0 0 0 4.94-3.566 6.42 6.42 0 0 0 .34-5.82"/>
  <path fill="#000" d="M112.339 95.213a.915.915 0 0 0-1.166-.472c-1.477.48-2.903 1.019-4.35 1.536a.87.87 0 0 0-.473 1.152.91.91 0 0 0 1.16.472c1.477-.502 2.917-.982 4.357-1.52a.895.895 0 0 0 .472-1.168M107.208 107.282c-1.743 2.754-4.793 4.069-7.296 5.981-2.024 1.551-4.128 4.313-2.762 6.949a.902.902 0 0 1-.923 1.233 8.02 8.02 0 0 0-7.067 2.954 7.9 7.9 0 0 0-1.632 4.564 8 8 0 0 0 .17 2.016l-1.61.938a10 10 0 0 1-.333-1.913 9.7 9.7 0 0 1 1.972-6.646 9.84 9.84 0 0 1 7.333-3.692 6.37 6.37 0 0 1 .34-3.493c1.181-3.072 4.01-4.712 6.646-6.425 2.326-1.543 5.169-3.914 4.563-7.067-.221-1.1 1.477-1.344 1.721-.251a6.58 6.58 0 0 1-1.122 4.852"/>
  <path fill="#000" d="M154.861 117.774a5.17 5.17 0 0 1-5.302 1.728c-1.071-.302-.606-2.134.472-1.897.691.171 1.42.071 2.039-.281a4.52 4.52 0 0 0 2.215-3.892c0-1.912-1.085-3.648-2.267-5.08a52 52 0 0 0-4.283-4.21 16.8 16.8 0 0 1-3.796-5.028c-1.728-3.767-1.691-8.013-2.09-12.052a30.7 30.7 0 0 0-2.481-9.482 39 39 0 0 0-.502-1.093c-.369-.738-.739-1.477-1.189-2.215a30.56 30.56 0 0 0-21.076-14.77 33 33 0 0 0-1.92-.288 31.7 31.7 0 0 0-14.769 1.699c-3.596 1.33-7.126 3.33-9.482 6.417s-3.286 7.193-1.647 10.73c.473 1.019-1.115 1.691-1.594.68a10.3 10.3 0 0 1-.887-2.954c-.59-4.276 1.322-8.397 4.32-11.35 2.998-2.955 6.956-4.83 10.929-5.967a34.1 34.1 0 0 1 12.746-1.116q.953.089 1.906.244a32.4 32.4 0 0 1 10.338 3.449 33.55 33.55 0 0 1 11.203 9.843 32 32 0 0 1 1.757 2.681 33 33 0 0 1 2.37 4.852 35 35 0 0 1 1.692 5.686 60 60 0 0 1 .782 6.299 29.7 29.7 0 0 0 1.041 6.24 13.5 13.5 0 0 0 3.265 5.324c2.953 3.087 6.838 5.686 7.702 10.176a6.653 6.653 0 0 1-1.492 5.627"/>
  <path fill="#000" d="M157.224 136.124a15.22 15.22 0 0 1-5.021 8.064c-4.66 3.907-11.542 5.17-17.184 2.807a11.08 11.08 0 0 1-7.282 3.936 10.64 10.64 0 0 1-7.82-2.031c-2.599-2.031-4.084-5.088-5.236-8.123-1.388-3.641-2.636-7.341-3.95-11.011l-2.482-6.941-.738-2.097a8.3 8.3 0 0 1 2.259.738c.2.539.384 1.078.584 1.617l2.37 6.646c1.248 3.486 2.437 7.001 3.774 10.457 1.049 2.71 2.356 5.531 4.756 7.303 3.899 2.888 10.028 1.743 12.716-2.215a.95.95 0 0 1 .493-.342.96.96 0 0 1 .6.024 14.5 14.5 0 0 0 9.363.968c5.576-1.219 10.235-5.487 11.188-11.217a15.32 15.32 0 0 0-6.07-14.925c-.93-.657.118-2.03 1.056-1.41a15.92 15.92 0 0 1 6.225 8.455 17.2 17.2 0 0 1 .399 9.297"/>
  <path fill="#000" d="M110.339 123.135a.74.74 0 0 1-.945.206 8 8 0 0 0-1.145-.494c-4.371-1.477-8.824 1.262-12.553 3.456-2.666 1.55-5.325 3.116-7.99 4.674l-1.61.938-16.446 9.6c-6.07 3.552-12.126 7.141-18.203 10.685-.576.333-1.152.665-1.72 1.005-2.046 1.189-4.092 2.363-6.145 3.544-.871.502-1.743-1.011-.894-1.521a941 941 0 0 1 6.824-4.032l1.72-1.004 6.462-3.766 26.496-15.508 1.573-.931 1.772-1.041c3.279-1.942 6.558-3.899 9.88-5.76 3.021-1.683 6.647-3.094 10.088-2.451a8.3 8.3 0 0 1 2.762 1.011.87.87 0 0 1 .388.676.864.864 0 0 1-.314.713M31.116 91.64a.87.87 0 0 1-.96.738c-2.149-.429-4.297-.909-6.446-1.374a5.4 5.4 0 0 0-2.386-.266 1.29 1.29 0 0 0-.856 1.145 6.5 6.5 0 0 0 0 2.001c.082.836.256 1.66.517 2.46a4.67 4.67 0 0 0 2.776 3.071c.332.102.682.135 1.027.096a2.22 2.22 0 0 0 1.853-1.285.83.83 0 0 1 .384-.443 30 30 0 0 0-.657 3.117 4.5 4.5 0 0 1-1.868.413c-.42 0-.838-.06-1.241-.177a6.3 6.3 0 0 1-3.936-4.084 14.7 14.7 0 0 1-.68-3.19 7.6 7.6 0 0 1 .09-2.577 3.07 3.07 0 0 1 1.572-2.097 4.52 4.52 0 0 1 2.954-.104c2.356.51 4.719 1.027 7.067 1.573a.886.886 0 0 1 .79.982"/>
  <path fill="#000" d="M29.994 112.118a.88.88 0 0 1-1.167.569c-2.459-1.366-3.891-4.172-4.32-7.119a16 16 0 0 1 0-4.231c.067-.606.17-1.211.288-1.802.31-1.573.739-3.116 1.182-4.615.347-1.212 1.972-.48 1.647.738-.2.739-.399 1.44-.591 2.171a30 30 0 0 0-.657 3.116 14.5 14.5 0 0 0-.118 4.003c.28 2.333 1.3 4.741 3.234 5.908a1.07 1.07 0 0 1 .502 1.262"/>
  <path fill="#000" d="M26.301 94.933c-.945-.296-1.883-.584-2.828-.864a.92.92 0 0 0-.657 0 .85.85 0 0 0-.466.48.88.88 0 0 0 .488 1.122l2.82.894c.215.08.451.08.665 0a.9.9 0 0 0 .48-.495.886.886 0 0 0-.502-1.137M33.155 89.706h-.34a.83.83 0 0 1-.738-.54l-2.8-1.772a18 18 0 0 0-3.1-1.816l-.2-.067a1.86 1.86 0 0 0-1.765.303 2.2 2.2 0 0 0-.473.51 6.4 6.4 0 0 0-.738 3.227c-.089 1.122-1.824.923-1.743-.2a7.9 7.9 0 0 1 1.137-4.15c.38-.53.889-.953 1.477-1.233a3.4 3.4 0 0 1 1.765-.325h.096c1.477.162 2.799 1.137 4.032 1.92l4.04 2.563c.782.494.162 1.624-.65 1.58"/>
  <path fill="#000" d="M38.242 86.058c-1.846-2.297-4.194-4.549-7.148-5.228-2.614-.606-5.605.502-6.646 3.094a.874.874 0 0 0 1.624.642c.813-1.993 3.242-2.488 5.118-1.883 2.422.776 3.95 2.71 5.65 4.431.774.835 2.14-.148 1.402-1.056"/>
  <path fill="#007AFF" d="M58.055 56.526c-.414 1.765-1.92 2.843-3.523 3.485-1.92.739-3.98 1.263-5.959 1.869l-6.55 2-2.954.902-1.684.517a3.2 3.2 0 0 0-.82-1.315c-.671-.605-2.015-.738-2.215.362a6 6 0 0 0 .126 1.802q-.86.242-1.75.34a5 5 0 0 1-2.504-.325c-1.875-.812-2.37-2.725-2.806-4.534-.31-1.27-.613-2.533-.923-3.803-.059-.185-.11-.37-.17-.562a132 132 0 0 1-2.518-8.942c-.42-1.743-1.905-5.037-1.16-6.787 1.145-2.658 5.428-3.205 7.88-3.64 4.224-.739 8.411-1.625 12.613-2.497 1.078-.228 2.156-.465 3.242-.664a8.4 8.4 0 0 1 2.88-.14c1.905.31 3.131 1.676 3.833 3.396.273.65.502 1.307.738 1.987s.354 1.174.524 1.765a37 37 0 0 0-1.757.384c-.6.095-1.165.35-1.632.738a1.13 1.13 0 0 0-.34 1.049c.148.384.694.443 1.034.473q.941.05 1.883 0h1.58c.185.598.362 1.196.547 1.794l1.307 4.305c.583 1.898 1.536 4.032 1.078 6.04"/>
  <path fill="#000" d="M51.41 152.238c-.577.332-1.153.664-1.721 1.004-.074-.672-.14-1.337-.215-2.009a1126 1126 0 0 0-2.156-18.934q-.54-4.431-1.13-8.861c-.074-.613-.155-1.219-.236-1.832q-.739-5.53-1.521-11.077-.502-3.5-1.027-7a55 55 0 0 0-.266-1.773q-.974-6.498-2.03-13.004c-.591-3.64-1.632-11.89-2.26-15.508-.303-1.787-.62-3.566-.938-5.346a15 15 0 0 0-.546-2.614 3.3 3.3 0 0 0-.82-1.315c-.672-.605-2.016-.738-2.178.37-.056.6-.016 1.206.118 1.794.037.192.066.384.096.561l.369 2.747c.495 3.619 1.425 11.816 1.89 15.508a.878.878 0 0 1-1.735.244c-.14-.946-.266-1.89-.399-2.843-.517-3.744-1.477-11.978-1.964-15.84a1 1 0 0 1 0-.156c-.207-1.476-.406-3.33 1.13-4.224a3.42 3.42 0 0 1 3.766.436 4.8 4.8 0 0 1 1.433 2.216q.304.931.472 1.897c.34 1.854.657 3.693.982 5.59.657 3.774 1.728 12.163 2.349 15.937q1.078 6.579 2.067 13.159c.089.591.178 1.189.259 1.78q.598 3.943 1.16 7.894.7 4.947 1.358 9.917l.244 1.832c.487 3.692.945 7.384 1.395 11.032q.997 8.198 1.861 16.394c.081.672.148 1.337.192 2.024"/>
  <path fill="#000" d="M99.365 158.649q-1.478.834-2.954 1.64c-8.005 4.371-16.202 8.418-24.495 12.236a427 427 0 0 1-12.517 5.524c-2.097.893-4.202 1.787-6.328 2.614a30.2 30.2 0 0 1-6.344 1.846 13.3 13.3 0 0 1-6.446-.495 12.2 12.2 0 0 1-4.49-2.954c-2.814-2.813-4.246-6.646-4.896-10.493a54 54 0 0 1-.591-6.543c-.103-2.334-.2-4.675-.288-7.001-.192-4.814-.37-9.6-.561-14.422q-.221-5.42-.458-10.833l-.074-1.876q-.331-7.96-.628-15.914a.87.87 0 0 1 1.085-1.026.86.86 0 0 1 .54.44.9.9 0 0 1 .096.343c.052 1.144.11 2.289.163 3.441.184 4.01.361 8.034.531 12.052 0 .627.052 1.255.081 1.875q.288 7.068.599 14.142.309 7.074.627 13.971c.192 4.431.163 8.914 1.24 13.204.857 3.382 2.645 6.683 5.576 8.684 3.412 2.341 7.606 1.795 11.328.554 2.112-.701 4.165-1.587 6.21-2.437a439 439 0 0 0 6.16-2.621 476 476 0 0 0 12.191-5.516c8.123-3.818 16.062-7.909 23.942-12.178a.933.933 0 0 1 1.218.495.96.96 0 0 1-.517 1.248"/>
  <path fill="#000" d="M107.2 174.983a15.846 15.846 0 0 1-14.437-12.694c-.221-1.093-1.935-.849-1.72.251A17.54 17.54 0 0 0 107 176.741c1.129.089 1.336-1.669.199-1.758"/>
  <path fill="#000" d="M113.44 184.109a3025 3025 0 0 0-5.472-8.477.883.883 0 0 0-1.233-.155.9.9 0 0 0-.156 1.233q2.725 4.246 5.458 8.485a.88.88 0 0 0 .588.337.9.9 0 0 0 .652-.182.904.904 0 0 0 .163-1.241M88.333 42.843c-1.883 2.607-3.877 5.428-6.727 7.06a9.35 9.35 0 0 1-9.807-.252 9.5 9.5 0 0 1-3.434-4.135.872.872 0 0 0-1.602.68 11.08 11.08 0 0 0 8.625 6.69c4.054.554 7.695-1.27 10.464-4.106a39 39 0 0 0 3.899-4.874c.635-.96-.783-1.994-1.418-1.063"/>
  <path fill="#000" d="M72.323 45.9c-2.001.11-4.017.081-6.026.118l-5.812.096-4.8.082h-.369l-2.577.037a7.4 7.4 0 0 1-2.016-.14 2.467 2.467 0 0 1-1.824-3.08c.384-1.477 1.676-2.216 3.042-2.578q.942-.256 1.906-.457a59 59 0 0 1 7.783-1.056 64 64 0 0 1 10.228 0c1.115.096.908 1.787-.2 1.72a73 73 0 0 0-10.183.133 66 66 0 0 0-7.104.997c-.584.11-1.174.244-1.758.384-.6.095-1.164.35-1.632.739a1.13 1.13 0 0 0-.34 1.048c.148.384.695.443 1.035.473a18 18 0 0 0 1.883 0h1.58l7.672-.118c3.154-.052 6.336-.207 9.49-.133 1.004 0 1.011 1.669.022 1.735"/>
  <path fill="#000" d="M70.129 33.944a5.29 5.29 0 0 0-4.985.82 5.37 5.37 0 0 0-2.016 4.475.871.871 0 0 0 1.72 0 3.7 3.7 0 0 1 .362-1.765c0-.066.06-.133.097-.2.125-.199.214-.339.31-.464.096-.126.192-.237.295-.348l.081-.073.2-.17a3.54 3.54 0 0 1 1.543-.739c.291-.061.59-.081.886-.059q.231.01.458.052h.17l.251.066a.9.9 0 0 0 1.123-.502.886.886 0 0 0-.495-1.093"/>
  <path fill="#000" d="M70.993 29.395a4.66 4.66 0 0 0-5.79 5.908.88.88 0 0 0 1.145.457.9.9 0 0 0 .465-1.137c.052.192 0-.059 0-.096s0-.162-.037-.244v-.302a3 3 0 0 1 0-.466v-.214q.005-.06 0-.118c.056-.28.16-.547.31-.79-.14.185.045-.06.067-.103.022-.045.081-.119.126-.17l.132-.17.119-.133.11-.104.17-.132.17-.126.096-.059.392-.192.199-.074.185-.059h.147l.207-.037h.975c.044 0 .347.081.125 0a.91.91 0 0 0 1.145-.502.887.887 0 0 0-.458-1.137"/>
  <path fill="#000" d="M77.256 25.423c-4.091-1.942-9.127.613-10.39 4.83a.894.894 0 0 0 .495 1.13.88.88 0 0 0 1.13-.496 6.1 6.1 0 0 1 2.88-3.596 6.25 6.25 0 0 1 5.243-.221.887.887 0 0 0 .642-1.647"/>
  <path fill="#000" d="M170.302 181.355a1.074 1.074 0 0 1-.886 1.189 1.056 1.056 0 0 1-1.181-.886c-.052-1.876-.37-14.518-.422-16.387-.457-15.109-1.107-30.203-1.809-45.297a3416 3416 0 0 0-2.378-45.267 8769 8769 0 0 0-1.358-22.708c-.355-5.753-.532-11.75-2.563-17.214a17.3 17.3 0 0 0-4.179-6.646 16.2 16.2 0 0 0-7.717-3.884 39 39 0 0 0-9.142-.657c-3.516.088-7.031.295-10.538.457l-3.737.163-1.75.081c-3.825.177-8.123.421-12.606.694l-1.898.118c-10.611.658-22.087 1.44-31.052 1.787-1.115.045-1.388-1.683-.25-1.735 1.868-.103 3.736-.184 5.604-.273 7.193-.332 16.549-.982 25.366-1.55l1.942-.126c4.638-.296 9.069-.554 12.887-.739l1.742-.081 9.696-.436c6.115-.28 12.739-.738 18.462 1.935 5.294 2.496 8.308 7.436 9.792 12.923 1.639 6.063 1.72 12.502 2.127 18.727q.738 11.498 1.41 22.996 1.308 22.995 2.356 46.014c.679 15.345 1.514 41.457 2.082 56.802"/>
  <path fill="#000" d="M138.333 42.946a.93.93 0 0 1-1.004.797c-3.146 0-6.292-.044-9.438-.066h-5.087c-2.77 0-6.012 0-9.453.11l-1.824.045c-7.857.207-16.453.502-22.656.399a.886.886 0 0 1-.738-.968.91.91 0 0 1 .974-.782c3.146 0 11.86-.805 15.006-.739l7.052.052h1.839l7.843.066h3.773c4.32 0 8.64 0 12.953.118a.91.91 0 0 1 .76.968"/>
  <path fill="#000" d="M139.5 73.526c0 1.351-.073 2.703-.125 4.054-.162-.369-.332-.738-.502-1.093-.37-.738-.739-1.477-1.189-2.215 0-1.145.052-2.29.059-3.434.111-9.29-.288-18.572-1.012-27.847-.088-1.123 1.625-1.381 1.736-.252.31 3.117.531 6.24.701 9.372q.576 10.7.332 21.415M124.606 43.626h-1.802V41.02q-.066-8.352-.14-16.711v-1.817l1.743-.08v2.281q.059 5.694.103 11.38 0 2.872.081 5.738zM47.968 122.789l-1.729.65-15.448 5.693-1.795.665-.073-1.876.694-.258 1.093-.406 14.414-5.317.88-.325 1.742-.65zM26.007 85.488a1.86 1.86 0 0 0-1.766.303l-.287-1.396c0-.148-.06-.303-.096-.45L18.422 57.53c-1.476-7.303-3.013-14.607-4.497-21.918-.118-.576-.236-1.144-.347-1.72-.221-1.042-.428-2.083-.642-3.124a.9.9 0 0 1 0-.42.917.917 0 0 1 1.373-.4.84.84 0 0 1 .318.525q.323 1.517.635 3.035l.354 1.713q1.07 5.169 2.134 10.338l5.539 26.866q1.16 5.605 2.319 11.224c.14.591.273 1.219.398 1.839M84.396 92.002c0 .089 0 .185-.036.28a20 20 0 0 0-.14 1.625l-1.854.443-13.706 3.242q-11.719 2.77-23.454 5.546l-1.772.421c-.081-.591-.177-1.182-.266-1.772l1.78-.421 8.485-2.016 29.073-6.905z"/>
  <path fill="#000" d="m110.043 24.994-1.898.118-.332-1.772c-.569-2.954-1.196-5.856-1.891-8.574a31 31 0 0 0-.28-1.078c-.059-.214-.111-.42-.17-.62-1.418-5.103-2.252-5.908-7.163-5.088-3.449.561-6.853 1.477-10.265 2.215l-39.079 8.537-19.54 4.276-9.873 2.156a10.7 10.7 0 0 0-3.906 1.322c-.88.613-1.684 1.757-1.307 2.88a.87.87 0 0 1-.232.95.9.9 0 0 1-1.142.061.86.86 0 0 1-.214-.34 4.2 4.2 0 0 1 1.049-4.253 8.44 8.44 0 0 1 4.386-2.12c3.692-.87 7.473-1.646 11.21-2.466l40.755-8.935 20.375-4.43c3.05-.673 6.173-1.094 9.245-1.648 3.981-.738 6.056-.295 7.134 5.015q.153.74.339 1.536c.126.531.274 1.122.421 1.705.739 2.954 1.647 6.196 2.105 8.862 0 .148.052.295.074.443.059.362.133.805.199 1.248M116.608 59.48a34 34 0 0 0-1.92-.289c-.133-.627-.274-1.255-.406-1.883a477 477 0 0 1-2.755-13.536q-.21-1.03-.399-2.075h1.839q.186 1.008.384 2.016.665 3.435 1.359 6.86c.48 2.327.967 4.645 1.477 6.964q.207.982.421 1.942"/>
  <path fill="#000" d="m107.651 14.376-1.729.391-20.16 4.571-39.478 8.943-30.653 6.941-1.706.392c-.118-.576-.236-1.145-.347-1.72l1.698-.385 35.698-8.123 39.478-8.95 15.02-3.404 1.757-.4q.2.873.422 1.744M135.003 63.58a.916.916 0 0 0-1.248-.156l-1.433.982c-.273-.738-.561-1.55-.841-2.326a.895.895 0 0 0-1.16-.465.91.91 0 0 0-.465 1.152c.347 1.16.738 2.319 1.048 3.47a.832.832 0 0 0 .606.51.9.9 0 0 0 .739-.148q.197-.06.369-.177c.738-.51 1.477-1.063 2.215-1.595a.9.9 0 0 0 .17-1.248"/>
  <path fill="#000" d="M88.657 79.235s-6.535-12.192 9.8-18.727c16.334-6.536 30.276.65 37.232 9.363 6.957 8.714 6.75 15.456 7.186 18.728.435 3.271-1.307 9.363 3.264 12.413s10.671 9.135 9.393 12.827a7.32 7.32 0 0 1-4.918 4.527s13.41 14.201 1.875 23.564c-11.534 9.364-18.505 3.338-18.505 3.338s-11.985 17.568-21.349-12.916a58 58 0 0 0-4.136-10.235s-5.442-1.307-11.756 2.393a82.6 82.6 0 0 1-10.959 5.479s1.81-6.786 4.645-8.123a17.6 17.6 0 0 1 5.221-1.521s-1.957-4.793 3.693-7.842c5.649-3.05 6.749-4.786 7.185-6.528.436-1.743.871-3.922.871-3.922s8.707 1.086 8.271-5.907-6.964-4.571-6.964-4.571l-1.477 1.1s-4.431 0-4.431-5.908c0-5.907 4.358-7.384 4.358-7.384s-5.657-4.136-4.572-8.707a21 21 0 0 1 2.829-6.97s-7.385.656-10.671 6.313a76.6 76.6 0 0 1-6.085 9.216"/>
  <path fill="#000" d="M159.963 112.294c-1.086-5.612-7.193-7.273-11.077-10.441a13.44 13.44 0 0 1-4.431-6.86.9.9 0 0 0-.989-.74.874.874 0 0 0-.739.99 15.2 15.2 0 0 0 3.286 6.307c1.713 1.942 3.885 3.22 6.085 4.534 1.987 1.182 4.062 2.503 5.295 4.527a5.813 5.813 0 0 1-6.122 8.795c-1.159-.214-1.359 1.61-.207 1.824a7.617 7.617 0 0 0 8.899-8.936"/>
  <path fill="#000" d="M160.701 133.193c.003-1.954-.245-3.9-.738-5.79-1.064-3.692-3.981-7.259-8.064-7.569a.873.873 0 1 0-.2 1.735c3.094.31 5.302 2.858 6.292 5.642.543 1.646.839 3.363.879 5.095.113 1.77.042 3.548-.214 5.303a10.5 10.5 0 0 1-1.758 4.482 11.6 11.6 0 0 1-3.198 2.954 17.2 17.2 0 0 1-8.795 2.481 20.1 20.1 0 0 1-5.59-.642 32 32 0 0 1-5.317-2.164.92.92 0 0 0-1.113.416.92.92 0 0 0 .234 1.164 16.5 16.5 0 0 0 5.17 2.275 22.2 22.2 0 0 0 5.568.849 19.57 19.57 0 0 0 10.183-2.4 12.63 12.63 0 0 0 6.226-8.005c.394-1.915.541-3.874.435-5.826M96.13 119.273c-3.057-.864-6.225-1.13-9.06.554a8.86 8.86 0 0 0-4.284 7.023 8.12 8.12 0 0 0 1.19 4.992c.605.849 1.912 0 1.543-.908a11.2 11.2 0 0 1-.739-2.26 7.3 7.3 0 0 1 0-2.4 6.8 6.8 0 0 1 1.927-3.774 7.15 7.15 0 0 1 3.626-1.971 13 13 0 0 1 5.435.435c.901.259 1.322-1.417.362-1.691"/>
  <path fill="#007AFF" d="M19.907 29.025a1.7 1.7 0 0 0-.252-.465 1 1 0 0 0-.103-.118 2.4 2.4 0 0 0-.28-.266q-.152-.105-.318-.185a.5.5 0 0 0-.148-.066 1.74 1.74 0 0 0-.738-.081 1 1 0 0 0-.163 0q-.182.042-.354.118l-.126.066-.2.118c-.277.192-.485.47-.59.79-.114.313-.137.65-.066.975q.041.246.162.465c.109.211.256.4.436.554l.11.082q.157.096.326.17c.152.064.315.099.48.103.332.023.664-.046.96-.2a1.8 1.8 0 0 0 .56-.435q.161-.197.267-.428a.5.5 0 0 0 .044-.133q.065-.18.074-.37c.018-.234-.01-.47-.081-.694M24.793 27.777a1.7 1.7 0 0 0-.25-.465 1 1 0 0 0-.104-.118 2.4 2.4 0 0 0-.28-.266q-.152-.105-.318-.185a.5.5 0 0 0-.148-.066 1.74 1.74 0 0 0-.739-.081 1 1 0 0 0-.162 0q-.183.042-.355.118l-.125.066-.2.118c-.277.192-.485.47-.59.79-.114.313-.137.65-.067.975q.043.246.163.465c.108.211.256.4.435.554l.111.082q.157.096.325.17c.152.063.315.098.48.103.332.023.664-.046.96-.2a1.8 1.8 0 0 0 .561-.435q.16-.197.266-.429a.5.5 0 0 0 .045-.133q.064-.178.073-.369c.018-.234-.01-.47-.08-.694"/>
  <path fill="#fff" fill-rule="evenodd" d="M32.585 46.523a.37.37 0 0 1 .265-.45l10.722-2.778a.37.37 0 0 1 .45.265l.742 2.86a.37.37 0 0 1-.265.45l-10.723 2.778a.37.37 0 0 1-.45-.265zm1.628 1.867-.37-1.43 9.292-2.408.371 1.43z" clip-rule="evenodd"/>
  <path fill="#fff" d="M43.459 50.953a.554.554 0 1 0-1.072.278l.487 1.88 1.976.967a.554.554 0 1 0 .487-.995l-1.519-.743z"/>
  <path fill="#fff" fill-rule="evenodd" d="m36.072 56.3-1.575-6.076 1.073-.278 1.435 5.54 2.509-.65a4.43 4.43 0 0 1-.264-4.128l-1.298.337-.278-1.073 2.569-.665a4.43 4.43 0 1 1 .047 6.472l-3.543.918a.554.554 0 0 1-.675-.397m10.438-4.612a3.323 3.323 0 1 1-6.433 1.667 3.323 3.323 0 0 1 6.433-1.667" clip-rule="evenodd"/>
</svg>
