<svg xmlns="http://www.w3.org/2000/svg" width="128" height="128" fill="none" viewBox="0 0 128 128">
  <path fill="#fff" d="M15.024 63.59a.85.85 0 0 1-.557-.578 1.7 1.7 0 0 1 0-1.051l.133-.424.165-.508c.063-.2.15-.43.241-.7a36.8 36.8 0 0 1 5.179-9.635c.7-.94 1.468-1.878 2.287-2.775a46 46 0 0 1 2.59-2.59 42 42 0 0 1 5.56-4.267 47.5 47.5 0 0 1 5.157-2.89 51 51 0 0 1 3.752-1.633c.456-.175.816-.312 1.051-.4l.379-.136q.095-.032.192-.056l.238-.084a4.29 4.29 0 0 1 3.049.042 2.85 2.85 0 0 1 1.772 3.294l.098-.025a3.76 3.76 0 0 1 2.845.326 2.97 2.97 0 0 1 1.482 2.06c.11.66.02 1.337-.26 1.944a3.7 3.7 0 0 1-1.225 1.486c.364.405.619.898.739 1.43a3.57 3.57 0 0 1-.144 2.045 3.27 3.27 0 0 1-1.142 1.524c.329.388.568.844.7 1.335.226.81.18 1.671-.129 2.453a2.56 2.56 0 0 1-1.46 1.5s-.306.104-.754.28c-.449.175-1.051.416-1.612.676-.56.259-1.135.536-1.545.753l-.49.263-.182.101a.6.6 0 0 1-.134.056l-.157.088-.435.256c-.367.22-.886.546-1.475.956q-.979.687-1.881 1.475a19 19 0 0 0-1.829 1.854 16.3 16.3 0 0 0-3.076 5.356c-.066.176-.105.323-.137.417-.031.095-1.05 3.066-1.05 3.066-.106.35-1.798-.638-2.324-.774z"/>
  <path fill="#000" d="M31.08 71.35c-.227-.101-.567-.259-.669-.287h-.066l-15.65-6.544a1.82 1.82 0 0 1-1.157-1.188 2.68 2.68 0 0 1 0-1.657l.305-.943c.046-.147.105-.312.168-.487l.08-.22a36 36 0 0 1 1.837-4.282 37.3 37.3 0 0 1 3.479-5.606 35 35 0 0 1 2.35-2.848 41 41 0 0 1 2.65-2.649 43 43 0 0 1 5.689-4.369 48 48 0 0 1 5.255-2.953 54 54 0 0 1 4.905-2.067l.386-.14.241-.074.193-.066a5.5 5.5 0 0 1 1.829-.316 5 5 0 0 1 1.923.379 3.9 3.9 0 0 1 2.313 2.582q.06.23.09.47c.846-.026 1.682.18 2.418.595a3.96 3.96 0 0 1 1.959 2.74 4.3 4.3 0 0 1-.33 2.519c-.205.453-.482.87-.82 1.236q.27.5.396 1.052c.196.869.133 1.776-.182 2.61-.179.484-.444.933-.781 1.324q.225.445.35.928a4.83 4.83 0 0 1-.168 3.09 3.54 3.54 0 0 1-2.032 2.05l-.161.056-.568.217c-.304.12-.914.35-1.566.659-.487.22-1.05.483-1.485.7l-.48.26-.179.098q-.1.06-.21.102l-.487.284a21 21 0 0 0-1.402.92q-.933.654-1.793 1.402a18.5 18.5 0 0 0-1.752 1.752 15.4 15.4 0 0 0-2.358 3.69c-.238.521-.403.977-.543 1.362a3 3 0 0 0-.077.239c-.021.076-.035.108-.05.15-.073.217-.872 2.558-1.05 3.059a1.1 1.1 0 0 1-1.076.746c-.413.032-.928-.193-1.724-.575m2.761-5.791q.477-1.042 1.08-2.018.709-1.12 1.569-2.13a20 20 0 0 1 1.93-1.952 23 23 0 0 1 1.966-1.541 29 29 0 0 1 1.53-.995l.278-.161.448-.256.067-.018.658-.35c.494-.26 1.076-.543 1.594-.778.701-.312 1.339-.57 1.665-.7.424-.165.648-.25.791-.298a1.62 1.62 0 0 0 .87-.94c.23-.581.262-1.223.09-1.825a2.5 2.5 0 0 0-.5-.963l-.701-.813.869-.62c.363-.264.64-.63.795-1.051.18-.474.216-.99.105-1.486a2.2 2.2 0 0 0-.508-.984l-.746-.82.904-.641c.39-.277.7-.653.897-1.09.2-.426.266-.904.189-1.37a1.98 1.98 0 0 0-1.002-1.38c-.4-.23-.853-.35-1.314-.35-.265 0-.53.035-.785.105l-1.643.448.326-1.57c.072-.3.072-.613 0-.914a1.92 1.92 0 0 0-1.177-1.275 3 3 0 0 0-1.16-.224c-.402.002-.801.07-1.18.203l-.295.105h-.056l-.07.021-.382.14c-.231.08-.582.214-1.051.39a54 54 0 0 0-3.675 1.597 46 46 0 0 0-5.056 2.834 41 41 0 0 0-5.43 4.17c-.88.802-1.731 1.653-2.527 2.525a36.4 36.4 0 0 0-5.528 8.02 35 35 0 0 0-1.752 4.057l-.077.22q-.09.244-.154.439l-.301.932a.7.7 0 0 0 0 .41l15.594 6.523q.47.16.914.382l.428.193.763-2.243v-.02c0-.025 0-.057.029-.092.028-.035.063-.203.115-.35.116-.28.336-.844.606-1.482z"/>
  <path fill="#1D4ED8" d="m12.102 62.325-.063.144-.168.406-.26.638c-.105.256-.213.54-.35.855l-.406 1.05c-.14.376-.295.786-.456 1.224-.35.872-.666 1.85-1.05 2.918a160 160 0 0 0-4.493 15.811 153 153 0 0 0-1.727 8.605c-.262 1.377-.438 2.726-.63 4.001-.095.634-.186 1.258-.274 1.857-.087.599-.14 1.188-.206 1.752-.127 1.121-.246 2.148-.35 3.058-.106.911-.144 1.717-.197 2.376l-.165 2.067 24.49 1.643.137-1.71c.045-.543.09-1.201.16-1.962s.187-1.611.292-2.543c.056-.47.108-.953.171-1.458.064-.504.151-1.023.232-1.555.16-1.051.3-2.197.525-3.357.4-2.33.89-4.806 1.461-7.27a135 135 0 0 1 3.788-13.337c.308-.88.585-1.696.85-2.393l.351-.985q.173-.442.316-.813c.094-.245.182-.466.255-.644l.186-.46a8 8 0 0 1 .154-.364z"/>
  <path fill="#1D4ED8" d="M25.916 112.023a1.31 1.31 0 0 1-1.394-1.401l.137-1.71c.017-.2.035-.41.052-.638.028-.396.063-.848.109-1.338v-.028l.294-2.547c.021-.172.038-.351.06-.519q.052-.463.108-.953v-.028l.228-1.555c.049-.305.09-.613.136-.925.116-.796.235-1.619.4-2.474a136.172 136.172 0 0 1 5.297-20.8l.273-.781c.204-.586.4-1.143.593-1.644l.35-.977v-.021l.315-.813.116-.294-20.208-8.528c-.099.242-.204.505-.316.799l-.406 1.05-.449 1.217c-.245.644-.494 1.356-.757 2.102l-.276.788a159 159 0 0 0-4.453 15.668 155 155 0 0 0-1.713 8.535.1.1 0 0 1 0 .024c-.19.992-.35 1.98-.473 2.936l-.148 1.016-.27 1.836q-.072.585-.136 1.146-.033.294-.067.578l-.35 3.037c-.056.603-.102 1.16-.14 1.654 0 .245-.035.48-.056.701l-.161 2.06a1.31 1.31 0 0 1-1.898 1.061 1.32 1.32 0 0 1-.65-.761 1.3 1.3 0 0 1-.059-.507l.161-2.067c.021-.217.039-.445.056-.701.042-.504.088-1.075.144-1.699v-.028l.35-3.059q.03-.287.067-.574c.042-.386.088-.785.14-1.188a.1.1 0 0 1 0-.028l.273-1.857c.05-.35.098-.665.147-1.005.144-.981.291-1.994.487-3.034a144 144 0 0 1 1.752-8.668 162 162 0 0 1 4.53-15.941q.147-.414.277-.796c.27-.767.522-1.492.778-2.165l.452-1.212.406-1.051q.184-.478.35-.876l.495-1.202a1.307 1.307 0 0 1 1.713-.7l22.615 9.543a1.306 1.306 0 0 1 .7 1.717l-.038.088-.101.245-.186.462c-.074.169-.15.372-.249.624l-.312.806-.35.974c-.178.47-.368 1.009-.568 1.58q-.13.383-.273.781a134 134 0 0 0-5.189 20.39v.029c-.154.799-.27 1.597-.381 2.368q-.068.478-.14.939l-.228 1.538c-.039.308-.07.606-.105.901 0 .178-.039.35-.06.529l-.29 2.529c-.043.466-.078.901-.106 1.286q-.026.347-.052.648l-.137 1.706a1.3 1.3 0 0 1-1.216 1.202"/>
  <path fill="#000" d="M13.664 107.903h-.063a.59.59 0 0 1-.564-.599c0-.134.116-3.385 1.191-9.351.989-5.49 3.017-14.396 7.081-25.664a.582.582 0 0 1 1.093.393c-4.036 11.19-6.05 20.03-7.031 25.477-1.051 5.883-1.17 9.148-1.17 9.18a.576.576 0 0 1-.537.564"/>
  <path fill="#000" d="M6.766 97.672a.575.575 0 0 1-.617-.521.58.58 0 0 1 .302-.572c2.823-1.52 6.621-2.431 11.284-2.697a44 44 0 0 1 6.16.052.581.581 0 0 1-.109 1.156c-.105 0-10.391-.932-16.782 2.516a.6.6 0 0 1-.238.066M24.217 92.802a.6.6 0 0 1-.319-.07c-.08-.045-8.296-4.484-15.689-3.472a.58.58 0 1 1-.157-1.152c7.784-1.051 16.056 3.416 16.407 3.605a.582.582 0 0 1-.242 1.09"/>
  <rect width="88.224" height="48.984" x="27.49" y="25.768" fill="#fff" stroke="#000" stroke-width="4.27" rx="7.117" transform="rotate(-15 27.49 25.768)"/>
  <mask id="writing-carda" width="47" height="48" x="34" y="19" maskUnits="userSpaceOnUse" style="mask-type:alpha">
    <rect width="39.24" height="39.94" x="33.367" y="28.875" fill="#007AFF" rx="4.626" transform="rotate(-15 33.367 28.875)"/>
  </mask>
  <g mask="url(#writing-carda)">
    <path fill="#1D4ED8" d="M25.183 17.285 92.19-.669l16.232 60.576L41.414 77.86z"/>
    <path fill="#000" d="m83.14 58.815-2.495-3.71a8.47 8.47 0 0 0-7.613-3.72l-12.108.836-12.381 5.353a8.475 8.475 0 0 0-5.12 7.966l.086 3.894z"/>
    <path fill="#fff" d="m59.213 65.545 6.9-1.85-.808-6.616-4.73-1.155-3.987 3.734z"/>
    <path fill="#000" d="m66.499 63.955-7.486 2.006-2.847-6.39 4.305-4.033 5.153 1.256zM59.41 65.13l6.319-1.693-.744-6.076-4.312-1.053-3.664 3.434zM47.281 41.132s-3.58-6.07-2.488-9.29c1.126-3.297 2.135-5.987 5.931-5.165 3.797.821 2.697-1.833 7.64-1.5 2.729.183 4.9 1.614 5.238 3.537s1.66 6.874.5 9.199c-1.163 2.324-12.884 7.286-16.82 3.219"/>
    <path fill="#fff" d="m60.304 55.996.017-.004a3.854 3.854 0 0 1-4.704-2.73l-3.609-13.469a3.854 3.854 0 0 1 2.713-4.699l-.017.005a3.854 3.854 0 0 1 4.699 2.713l3.609 13.469a3.854 3.854 0 0 1-2.709 4.715"/>
    <path fill="#000" d="m60.421 56.327-.023.007a4.205 4.205 0 0 1-5.109-2.984L51.68 39.88a4.205 4.205 0 0 1 2.937-5.12l.03-.008a4.204 4.204 0 0 1 5.104 2.966l3.61 13.47a4.204 4.204 0 0 1-2.933 5.137zm-5.595-20.883a3.503 3.503 0 0 0-2.459 4.267l3.61 13.47a3.479 3.479 0 1 0 6.717-1.8l-3.61-13.47a3.503 3.503 0 0 0-4.258-2.467"/>
    <path fill="#fff" d="M50.37 44.968c.825-.481.753-2.147-.163-3.72-.915-1.574-2.327-2.46-3.154-1.98-.826.481-.753 2.147.162 3.72.916 1.574 2.328 2.46 3.154 1.98"/>
    <path fill="#000" d="M50.22 45.572c-1.015.272-2.395-.639-3.323-2.236a5.5 5.5 0 0 1-.782-2.431c-.037-.84.23-1.466.748-1.768s1.192-.221 1.9.216a5.46 5.46 0 0 1 1.727 1.88c1.028 1.767 1.044 3.613.037 4.198a1.2 1.2 0 0 1-.307.14m-2.862-5.89a.6.6 0 0 0-.144.061c-.276.161-.422.574-.396 1.133a4.8 4.8 0 0 0 .685 2.109c.873 1.5 2.11 2.176 2.672 1.852s.583-1.738-.291-3.241a4.8 4.8 0 0 0-1.492-1.64 1.4 1.4 0 0 0-1.034-.273"/>
    <path fill="#fff" d="M61.424 38.41c-.007 1.815.76 3.3 1.719 3.304s1.732-1.47 1.74-3.292c.009-1.823-.764-3.3-1.72-3.304-.954-.006-1.73 1.472-1.74 3.291"/>
    <path fill="#000" d="M63.479 42.019a1.2 1.2 0 0 1-.35.047c-1.165-.004-2.077-1.62-2.067-3.654a5.5 5.5 0 0 1 .554-2.492c.392-.743.94-1.15 1.541-1.138.603.013 1.143.42 1.53 1.157.373.778.557 1.633.538 2.496.005 1.834-.73 3.312-1.746 3.584m-1.693-3.612c-.006 1.739.717 2.949 1.37 2.951s1.383-1.204 1.39-2.94a4.76 4.76 0 0 0-.459-2.17c-.26-.496-.59-.78-.913-.781-.323 0-.65.28-.913.774a4.8 4.8 0 0 0-.475 2.166"/>
    <path fill="#fff" d="m54.8 28.418-3.82 1.024a5.23 5.23 0 0 0-3.7 6.406l3.239 12.085a5.23 5.23 0 0 0 6.406 3.699l3.82-1.024a5.23 5.23 0 0 0 3.7-6.407l-3.239-12.084a5.23 5.23 0 0 0-6.406-3.7"/>
    <path fill="#000" d="m60.832 50.944-3.817 1.022a5.605 5.605 0 0 1-6.839-3.945L46.94 35.939a5.606 5.606 0 0 1 3.95-6.836l3.817-1.023a5.606 5.606 0 0 1 6.835 3.947l3.238 12.081a5.606 5.606 0 0 1-3.947 6.836m-9.758-21.15a4.905 4.905 0 0 0-3.455 5.978l3.238 12.08a4.905 4.905 0 0 0 5.98 3.451l3.817-1.023a4.905 4.905 0 0 0 3.452-5.977l-3.238-12.081a4.905 4.905 0 0 0-5.977-3.452z"/>
    <path fill="#000" d="M52.511 41.986c.3-.221.295-.74-.012-1.157-.308-.418-.8-.577-1.102-.355-.3.221-.295.74.013 1.157.307.417.8.577 1.101.355M53.332 39.344a.35.35 0 0 1-.226-.015 2.34 2.34 0 0 0-1.325-.099 2.2 2.2 0 0 0-1.35.768.35.35 0 1 1-.57-.406 2.9 2.9 0 0 1 1.787-1.051 3.04 3.04 0 0 1 1.728.142.35.35 0 0 1-.044.661M58.392 39.523c.308.418.8.576 1.103.353s.292-.738-.016-1.156-.8-.576-1.1-.355c-.3.222-.295.74.013 1.158M60.306 37.475a.35.35 0 0 1-.225-.015 2.37 2.37 0 0 0-1.325-.099 2.2 2.2 0 0 0-1.347.767.35.35 0 0 1-.489.084.35.35 0 0 1-.084-.489 2.9 2.9 0 0 1 1.786-1.051 3.04 3.04 0 0 1 1.728.142.35.35 0 0 1-.044.661M56.398 43.506a.75.75 0 0 1-.601-.093 1.27 1.27 0 0 1-.456-.86 104 104 0 0 1-.707-3.993.353.353 0 0 1 .698-.104 77 77 0 0 0 .698 3.96c.013.15.067.293.158.414a.35.35 0 0 1 .288-.277.35.35 0 0 1 .392.309.58.58 0 0 1-.294.568.8.8 0 0 1-.176.076M58.395 45.34a2 2 0 0 1-.71.056.351.351 0 1 1 .073-.698 1.536 1.536 0 0 0 1.616-1.456.35.35 0 0 1 .703-.003 2.17 2.17 0 0 1-.74 1.587 2.3 2.3 0 0 1-.942.514M48.1 37.983s-.66-4.67.923-4.43 1.985 1.518 4.233 1.082 3.458-1.59 4.441-1.023 2.871 1.89 4.43.144c1.56-1.746.947-4.77-2.461-5.507s-7.964.223-10.527.742c-2.563.52-3.925 5.778-1.04 8.992M61.566 60.22l-1.821-1.814-1.819-1.82 2.488-.666 2.484-.666-.666 2.485z"/>
    <path fill="#000" d="m60.73 57.1-.266 3.99-.262 3.99 2.488-.666 2.484-.666-2.223-3.325z"/>
    <path fill="#fff" d="m60.304 55.997-2.827 6.074-2.803-6.564.947-2.231z"/>
    <path fill="#000" d="m57.475 62.928-3.169-7.425 1.162-2.73 5.3 3.077zm-2.41-7.425 2.439 5.705 2.36-5.076-4.062-2.357z"/>
    <path fill="#fff" d="m60.574 55.924 5.486 3.848-.855-7.087-1.936-1.459z"/>
    <path fill="#000" d="m66.5 60.51-6.391-4.483 3.055-5.316 2.371 1.784zm-5.467-4.702 4.583 3.215-.743-6.159-1.5-1.128z"/>
  </g>
  <path fill="#000" d="m77.59 20.652 32.826-8.796 1.541 5.753-32.826 8.796zM81.036 33.512l32.826-8.796 1.542 5.753-32.827 8.796z"/>
  <path fill="#fff" d="M41.9 46.208c-5.333-.7-8.96-.781-14.277.834l-.078 18.831c4.355-2.309 5.473-8.307 3.788-13.352 3.787-1.117 6.106-.953 9.81-.35 1.436.277 2.722-.445 3.1-2.344.41-2.067-.862-3.363-2.344-3.619"/>
  <path fill="#000" d="M27.546 66.785a.922.922 0 0 1-.431-1.752c2.305-1.223 3.282-3.43 3.696-5.063.563-2.38.442-4.871-.35-7.186a.92.92 0 0 1 .613-1.173c3.797-1.121 6.222-1.023 10.22-.386h.027c1.073.207 1.77-.35 2.022-1.618a2.16 2.16 0 0 0-.263-1.693 2.06 2.06 0 0 0-1.324-.83c-5.273-.7-8.696-.764-13.867.806a.918.918 0 0 1-.536-1.752c5.472-1.66 9.232-1.594 14.67-.865h.041a3.89 3.89 0 0 1 2.533 1.604 4 4 0 0 1 .55 3.087c-.448 2.26-2.077 3.462-4.158 3.07-3.444-.547-5.53-.667-8.507.09.652 2.383.69 4.893.112 7.294-.7 2.803-2.354 5.035-4.618 6.237a.9.9 0 0 1-.43.13"/>
  <path fill="#fff" d="M70.433 72.523c-1.713 1.752-4.905 5.862-4.905 5.862-.897 1.124-.575 2.88.725 3.916 1.3 1.038 3.08.971 3.98-.157l7.543-9.27 2.358-3.476c-5.07-2.677-7.802 1.191-9.701 3.125"/>
  <path fill="#000" d="M69.08 83.871a4.235 4.235 0 0 1-4.904-3.328 3.34 3.34 0 0 1 .644-2.726c.182-.238 3.245-4.204 4.958-5.956.189-.19.389-.403.599-.627 1.874-2.018 5.017-5.396 10.199-2.67a.92.92 0 0 1-.142 1.717.92.92 0 0 1-.717-.088c-3.934-2.074-6.092.245-7.995 2.291-.22.235-.427.46-.63.666-1.654 1.685-4.79 5.739-4.821 5.781a1.52 1.52 0 0 0-.277 1.25c.113.546.417 1.034.858 1.374.9.722 2.102.7 2.688 0l7.55-9.274a.92.92 0 0 1 1.426 1.16l-7.554 9.284a3.27 3.27 0 0 1-1.882 1.146"/>
  <path fill="#fff" d="M112.038 104.142a.835.835 0 0 0 .588-.543c.132-.335.153-.703.06-1.051l-.112-.434q-.054-.211-.133-.515c-.053-.204-1.609-6.11-1.682-6.37a36.5 36.5 0 0 0-4.593-9.929 42 42 0 0 0-2.102-2.904 37 37 0 0 0-2.428-2.74 42 42 0 0 0-5.298-4.593 48 48 0 0 0-4.975-3.195 54 54 0 0 0-3.647-1.85c-.445-.204-.795-.35-1.051-.463l-.35-.161-.186-.067-.235-.098a4.3 4.3 0 0 0-3.048-.14 2.92 2.92 0 0 0-1.857 1.822c-.142.439-.179.904-.108 1.36l-.095-.032a3.77 3.77 0 0 0-2.862.158 2.95 2.95 0 0 0-1.598 1.969 3.3 3.3 0 0 0 .14 1.955c.234.61.626 1.146 1.135 1.555-.39.388-.674.871-.823 1.401a3.6 3.6 0 0 0 .021 2.054 3.3 3.3 0 0 0 1.051 1.587 3.45 3.45 0 0 0-.778 1.289 3.87 3.87 0 0 0 0 2.453 2.56 2.56 0 0 0 1.37 1.583s.294.126.732.326 1.013.476 1.573.774c.561.298 1.097.603 1.493.841l.477.29.175.113q.06.04.13.063l.15.098.42.28c.35.246.852.6 1.402 1.051q.935.746 1.787 1.588a19 19 0 0 1 1.72 1.958 16.429 16.429 0 0 1 2.263 4.06c.228.596.382 1.111.484 1.472.056.182.087.329.115.428s3.293 10.097 3.293 10.097c.057.347 17.382-7.54 17.382-7.54"/>
  <path fill="#000" d="M94.709 112.737a1.1 1.1 0 0 1-1.03-.81c-.14-.511-3.23-9.869-3.29-10.09 0-.045-.028-.098-.042-.154a3 3 0 0 0-.063-.242 19 19 0 0 0-.459-1.401 15.3 15.3 0 0 0-2.134-3.823 18.4 18.4 0 0 0-1.629-1.856 21 21 0 0 0-1.706-1.507A24 24 0 0 0 83 91.852l-.473-.315a2 2 0 0 1-.203-.113l-.168-.108-.466-.287a33 33 0 0 0-1.44-.81c-.63-.35-1.226-.61-1.524-.75l-.554-.245-.154-.07a3.54 3.54 0 0 1-1.91-2.168 4.83 4.83 0 0 1 .439-3.998 4.4 4.4 0 0 1-.701-1.37 4.55 4.55 0 0 1-.025-2.614c.106-.369.26-.722.46-1.05a4.7 4.7 0 0 1-.743-1.283 4.3 4.3 0 0 1-.182-2.536 3.97 3.97 0 0 1 2.12-2.618 4.6 4.6 0 0 1 2.452-.448q.045-.236.119-.466a3.92 3.92 0 0 1 2.452-2.453 5.05 5.05 0 0 1 1.941-.262 5.6 5.6 0 0 1 1.811.424l.186.08q.12.037.235.084l.378.165a53.742 53.742 0 0 1 4.768 2.358c1.762.98 3.46 2.069 5.084 3.262a43 43 0 0 1 5.417 4.698c.869.897 1.706 1.84 2.487 2.803a37 37 0 0 1 2.172 2.981 37.4 37.4 0 0 1 4.72 10.196l.063.22c.052.182 1.583 6.019 1.625 6.17l.246.96a2.65 2.65 0 0 1-.099 1.65 1.82 1.82 0 0 1-1.226 1.118s-17.15 7.708-17.598 7.68m-2.547-11.867q.063.212.094.35c0 .035 0 .067.022.092v.021c0 .077 2.767 8.198 3.062 9.263.16-.06 16.379-7.382 16.379-7.382a.7.7 0 0 0 0-.41l-.242-.946c-.035-.133-1.563-5.956-1.608-6.117l-.067-.228a35.6 35.6 0 0 0-4.467-9.656 37 37 0 0 0-2.063-2.83 40 40 0 0 0-2.372-2.674 41.7 41.7 0 0 0-5.172-4.488 46 46 0 0 0-4.876-3.125 51 51 0 0 0-3.578-1.818c-.444-.203-.784-.35-1.012-.452l-.371-.161-.07-.025h-.056l-.288-.119a3.5 3.5 0 0 0-1.166-.277 3 3 0 0 0-1.17.154 1.92 1.92 0 0 0-1.252 1.202c-.095.295-.12.608-.073.915l.231 1.583-1.611-.546a3 3 0 0 0-.778-.151 2.66 2.66 0 0 0-1.332.26 1.97 1.97 0 0 0-1.082 1.317c-.105.459-.068.939.105 1.376.17.448.457.842.83 1.143l.866.7-.796.775a2.15 2.15 0 0 0-.564.956 2.6 2.6 0 0 0 0 1.486c.13.435.385.822.733 1.114l.83.672-.743.771a2.5 2.5 0 0 0-.557.929 2.85 2.85 0 0 0-.017 1.828 1.62 1.62 0 0 0 .812.992c.137.052.35.154.771.35.319.148.95.445 1.619.8a45 45 0 0 1 1.545.868l.638.396.066.024.431.28.266.18c.379.262.89.623 1.468 1.082a23 23 0 0 1 1.871 1.657 20 20 0 0 1 1.808 2.064 17.4 17.4 0 0 1 2.4 4.299c.277.62.445 1.194.536 1.506"/>
  <path fill="#000" d="M89.422 77.494a.7.7 0 0 1-.319-.094l-.427-.246c-.287-.16-.7-.382-1.121-.613a47 47 0 0 0-3.483-1.66 50 50 0 0 0-3.59-1.37c-.509-.172-.936-.305-1.21-.393l-.466-.14a.736.736 0 0 1 .424-1.401l.473.143c.288.088.726.225 1.248.403 1.149.386 2.498.9 3.7 1.402a46 46 0 0 1 4.754 2.35l.427.242a.736.736 0 0 1-.41 1.374zM86.69 82.182a.8.8 0 0 1-.323-.095l-.375-.213a30 30 0 0 0-.974-.536 43 43 0 0 0-3.055-1.458c-1.009-.43-2.18-.88-3.153-1.212-.424-.144-.778-.256-1.051-.35l-.435-.134a.737.737 0 1 1 .428-1.401l.448.137c.266.084.63.2 1.069.35 1.02.35 2.214.802 3.272 1.254a42 42 0 0 1 3.153 1.51c.42.221.771.417 1.02.557l.371.21a.736.736 0 0 1-.406 1.377zM84.36 86.491a.8.8 0 0 1-.333-.101s-.375-.221-.932-.53c-.652-.35-1.43-.742-2.14-1.072a37.49 37.49 0 0 0-3.248-1.317.742.742 0 0 1 .483-1.401s.441.154 1.072.396c.746.29 1.587.644 2.309.977.721.333 1.548.746 2.224 1.118.589.319.97.543.985.553a.736.736 0 0 1-.42 1.367z"/>
  <path fill="#1D4ED8" d="M76.946 102.436c-1.324-.883-1.258-2.638-.844-4.019-1.402.771-3.199 1.255-5.122-.028s-2.243-3.345-1.976-4.841c-1.216.945-2.765 1.751-4.124.833a3.024 3.024 0 0 1-.851-4.088L98.23 39.08l16.957 11.324-34.275 51.323a2.926 2.926 0 0 1-3.966.708"/>
  <path fill="#000" d="M79.399 103.743a3.86 3.86 0 0 1-2.964-.543c-1.051-.701-1.566-1.857-1.517-3.297l-.305.073a5.222 5.222 0 0 1-4.145-.823 5.45 5.45 0 0 1-2.428-3.917c-1.363.648-2.617.61-3.675-.094a3.94 3.94 0 0 1-1.104-5.364l34.202-51.212a.92.92 0 0 1 1.275-.252l16.957 11.324a.9.9 0 0 1 .393.585.93.93 0 0 1-.14.7l-34.275 51.324a3.63 3.63 0 0 1-2.274 1.496m-3.504-6.222a.922.922 0 0 1 1.076 1.163c-.2.669-.557 2.301.473 2.988a2.02 2.02 0 0 0 1.548.273 1.82 1.82 0 0 0 1.135-.728l33.768-50.563-15.416-10.3c-3.647 5.465-25.85 38.71-33.687 50.45-.28.442-.375.975-.266 1.486a2.05 2.05 0 0 0 .862 1.324 1.45 1.45 0 0 0 1.195.2 4.9 4.9 0 0 0 1.853-.992.921.921 0 0 1 1.472.89 3.72 3.72 0 0 0 1.583 3.917 3.41 3.41 0 0 0 2.733.554 5.3 5.3 0 0 0 1.433-.564.9.9 0 0 1 .252-.099z"/>
  <path fill="#000" d="M71.582 90.545a.57.57 0 0 1-.448-.084.58.58 0 0 1-.161-.806l29.429-44.211a.585.585 0 0 1 .793-.142.58.58 0 0 1 .174.786L71.939 90.3a.56.56 0 0 1-.357.246M78.726 95.653a.57.57 0 0 1-.441-.084.58.58 0 0 1-.165-.806l29.43-44.214a.58.58 0 0 1 .967.644l-29.43 44.212a.57.57 0 0 1-.36.248M62.95 113.209a2.15 2.15 0 0 1-1.686-.41c-.56-.396-1.114-1.103-.984-1.913.087-.536 1.787-14.434 2.435-19.742a.919.919 0 1 1 1.825.22c-.095.76-2.214 18.142-2.431 19.722.11.152.266.264.445.319 1.156-.645 16.946-9.628 17.107-9.719a.92.92 0 0 1 .911 1.598c-.672.382-16.466 9.361-17.167 9.754a1.7 1.7 0 0 1-.456.171"/>
  <path fill="#000" d="M62.904 112.309c-.7.396-1.878-.547-1.77-1.202.04-.245.45-3.209.947-6.821l6.793 4.533c-3.125 1.836-5.704 3.36-5.97 3.49"/>
  <path fill="#fff" d="m97.645 76.664-.788-.245q-.459-.13-1.023-.28a37 37 0 0 0-5.525-.971l-1.51-.12c-.25-.024-.494-.024-.74-.034l-.721-.025h-1.371c-.434 0-.843 0-1.222.021l-1.829.112c-.224 0-.396.039-.511.05l-.183.02c-.395.039-.78.158-1.128.35a2.7 2.7 0 0 0-.462.351q-.21.2-.379.435a2.97 2.97 0 0 0-.483 2.238 3.3 3.3 0 0 0 1.118 1.973q.202.172.434.301.23.13.477.224c.327.118.677.16 1.023.123h.154c.101 0 .249-.035.438-.042l1.562-.098h2.215l.616.02c.207 0 .42 0 .63.029l1.28.102a31 31 0 0 1 4.62.809l.828.228.62.192.525.179s-4.817 7.168-.147 13.313l2.18-18.964z"/>
  <path fill="#000" d="M96.356 96.764a.93.93 0 0 1-.929-.35c-2.08-2.737-2.718-6.097-1.839-9.72.31-1.252.766-2.463 1.36-3.608h-.046l-.813-.224a30 30 0 0 0-4.457-.781l-1.271-.098h-.585l-.606-.022h-2.141l-1.549.095h-.02q-.12.007-.239.025h-.287a3.2 3.2 0 0 1-1.437-.172 4 4 0 0 1-.616-.29 3.5 3.5 0 0 1-.571-.397 4.2 4.2 0 0 1-1.437-2.519 3.88 3.88 0 0 1 .641-2.929 4 4 0 0 1 .498-.57q.286-.261.623-.45a3.8 3.8 0 0 1 1.486-.483l.182-.02h.123c.108 0 .259-.029.441-.04l1.819-.111h2.673l.732.024h.203c.186 0 .382 0 .585.028l1.503.12h.018c1.912.189 3.807.523 5.668.998l.326.087.701.2.792.245h.024l.701.238a.925.925 0 0 1-.592 1.752l-.7-.234-.768-.235c-.21-.063-.438-.123-.68-.19l-.322-.087a36 36 0 0 0-5.318-.953l-1.5-.115c-.15 0-.308-.018-.476-.025h-.218l-.7-.025h-2.523l-1.811.112h-.018l-.312.029h-.147l-.171.02c-.271.03-.534.115-.771.25q-.16.09-.298.21a2 2 0 0 0-.249.29 2.04 2.04 0 0 0-.35 1.549 2.4 2.4 0 0 0 .806 1.426q.135.114.29.2.155.09.323.154c.195.073.406.1.613.077l.154-.018h.109a3 3 0 0 1 .385-.035l1.556-.098h2.291l.624.021h.192c.148 0 .316 0 .487.028l1.272.098h.018c1.606.157 3.197.436 4.761.834l.837.231h.028l.624.193h.024l.526.179a.918.918 0 0 1 .466 1.401 14 14 0 0 0-1.706 4.106c-.736 3.09-.224 5.82 1.527 8.118a.92.92 0 0 1-.175 1.286.94.94 0 0 1-.364.175"/>
  <path fill="#1D4ED8" d="m95.624 123.836 24.433 2.344s.001-.141.036-.403c0-.133.028-.295.042-.484s.021-.396.035-.634.017-.497.031-.781 0-.575 0-.894v-1.002c0-.35-.017-.7-.038-1.086a46 46 0 0 0-.501-4.863 55 55 0 0 0-1.051-5.087 77 77 0 0 0-2.786-8.759 88 88 0 0 0-1.138-2.802 42 42 0 0 1-.351-.81l-.133-.301-22.338 10.178.07.157c.052.112.122.281.217.491a52.9 52.9 0 0 1 2.652 7.785c.263 1.051.466 2.06.606 2.953q.185 1.13.249 2.274v1.605c0 .031-.035.119-.035.119"/>
  <path fill="#1D4ED8" d="M119.938 127.479a1.31 1.31 0 0 1-1.184-1.419l.077-.858.063-1.367v-2.102c0-.252-.017-.515-.031-.764a46 46 0 0 0-.498-4.719 57 57 0 0 0-1.019-4.975 75 75 0 0 0-2.737-8.601 71 71 0 0 0-1.075-2.642l-19.97 9.11a52.884 52.884 0 0 1 2.498 7.445 36 36 0 0 1 .63 3.065q.195 1.197.263 2.407v1.219l-.017.379v.294a1.31 1.31 0 0 1-2.607-.238v-.098a.1.1 0 0 1 0-.032v-.893a1 1 0 0 1 0-.088v-.193a2 2 0 0 0 0-.192v-.021a20 20 0 0 0-.231-2.13 36 36 0 0 0-.585-2.835 51 51 0 0 0-1.833-5.739c-.35-.872-.616-1.534-.753-1.849l-.277-.628a1.31 1.31 0 0 1 .652-1.727l22.335-10.181a1.31 1.31 0 0 1 1.734.651l.133.302.351.81c.266.623.683 1.614 1.159 2.855a77 77 0 0 1 2.835 8.906 55 55 0 0 1 1.051 5.202q.397 2.481.529 4.989c0 .281.024.557.031.827v2.274l-.066 1.426a.2.2 0 0 0 0 .042l-.077.893a1.31 1.31 0 0 1-1.423 1.185z"/>
  <path fill="#000" d="M114.406 124.442a.58.58 0 0 0 .599-.967c-2.309-2.228-5.718-4.127-10.136-5.644a45 45 0 0 0-5.956-1.615.58.58 0 0 0-.206 1.142c.101.021 10.258 1.909 15.478 6.954a.6.6 0 0 0 .221.13M98.92 115.038c.106.032.22.032.326 0 .091-.021 9.2-2.077 16.046.894a.58.58 0 0 0 .4-.04.58.58 0 0 0 .304-.69.58.58 0 0 0-.241-.321c-7.207-3.129-16.383-1.051-16.772-.96a.583.583 0 0 0-.063 1.117"/>
</svg>
