<svg xmlns="http://www.w3.org/2000/svg" width="183" height="192" fill="none" viewBox="0 0 183 192">
  <path fill="#fff" d="M17.07 119.539a.96.96 0 0 1-.626-.65 1.9 1.9 0 0 1 0-1.183l.15-.477q.078-.232.185-.571c.071-.225.17-.485.272-.788a41.4 41.4 0 0 1 5.826-10.839 41 41 0 0 1 2.574-3.122 52 52 0 0 1 2.912-2.913 47.4 47.4 0 0 1 6.255-4.8 53 53 0 0 1 5.802-3.252 57 57 0 0 1 4.222-1.837c.512-.197.918-.35 1.182-.45l.426-.153q.106-.038.216-.063l.268-.095a4.82 4.82 0 0 1 3.43.048 3.21 3.21 0 0 1 1.994 3.705l.11-.028a4.22 4.22 0 0 1 3.2.367 3.34 3.34 0 0 1 1.668 2.317 3.75 3.75 0 0 1-.292 2.188 4.2 4.2 0 0 1-1.38 1.67c.41.457.697 1.01.833 1.609a4 4 0 0 1-.162 2.302 3.7 3.7 0 0 1-1.285 1.714c.37.437.64.95.788 1.502.254.911.203 1.88-.145 2.759a2.88 2.88 0 0 1-1.644 1.687s-.343.118-.848.315-1.182.469-1.813.761c-.63.292-1.277.603-1.738.847l-.552.296-.205.114a.7.7 0 0 1-.15.063l-.177.099-.489.288c-.413.248-.997.615-1.659 1.076a25 25 0 0 0-2.117 1.659 21 21 0 0 0-2.057 2.085 18.3 18.3 0 0 0-3.46 6.027c-.075.197-.119.362-.154.469l-1.183 3.449c-.118.394-2.022-.718-2.613-.872z"/>
  <path fill="#000" d="M35.135 128.269c-.256-.114-.639-.291-.753-.323h-.075l-17.606-7.362a2.05 2.05 0 0 1-1.301-1.337 3 3 0 0 1 0-1.864l.343-1.06c.051-.166.118-.351.189-.548l.09-.248a40 40 0 0 1 2.066-4.817 42 42 0 0 1 3.914-6.306 39 39 0 0 1 2.645-3.205 46 46 0 0 1 2.98-2.98 48.6 48.6 0 0 1 6.4-4.914c1.9-1.23 3.875-2.34 5.913-3.323a61 61 0 0 1 5.518-2.326l.433-.157.272-.083.217-.075a6.2 6.2 0 0 1 2.057-.355 5.7 5.7 0 0 1 2.164.426 4.4 4.4 0 0 1 2.602 2.905q.068.261.102.528a5.2 5.2 0 0 1 2.72.67 4.45 4.45 0 0 1 2.203 3.082c.166.96.037 1.949-.37 2.834-.232.51-.543.98-.923 1.392.2.372.35.77.446 1.182.22.978.149 1.999-.205 2.936-.202.546-.5 1.05-.88 1.49q.255.5.395 1.045a5.43 5.43 0 0 1-.19 3.476 3.98 3.98 0 0 1-2.285 2.306l-.182.063-.638.244c-.343.134-1.029.395-1.762.741-.548.249-1.183.544-1.671.789l-.54.291-.201.111a2 2 0 0 1-.237.114l-.548.319c-.414.253-.965.595-1.576 1.037q-1.051.734-2.018 1.577-1.052.919-1.971 1.97a17.3 17.3 0 0 0-2.653 4.151c-.268.587-.453 1.099-.61 1.533a3 3 0 0 0-.087.268c-.024.087-.04.122-.055.169-.083.245-.982 2.878-1.183 3.441a1.24 1.24 0 0 1-1.21.84c-.465.035-1.044-.217-1.94-.647m3.106-6.515q.536-1.173 1.214-2.27.797-1.26 1.766-2.397a23 23 0 0 1 2.171-2.195 26 26 0 0 1 2.211-1.734 32 32 0 0 1 1.723-1.12l.311-.181.505-.288.075-.019.74-.395a37 37 0 0 1 1.794-.875c.788-.35 1.506-.642 1.872-.788.477-.185.73-.28.891-.335a1.817 1.817 0 0 0 .977-1.056c.26-.655.296-1.377.103-2.054a2.8 2.8 0 0 0-.564-1.084l-.788-.914.977-.698c.41-.297.72-.708.895-1.182a2.9 2.9 0 0 0 .118-1.671 2.46 2.46 0 0 0-.571-1.108l-.84-.922 1.017-.721c.44-.312.788-.735 1.01-1.226.225-.48.3-1.018.212-1.541a2.23 2.23 0 0 0-1.127-1.553 3 3 0 0 0-1.478-.394q-.449 0-.883.118l-1.849.504.367-1.766c.081-.338.081-.69 0-1.028a2.16 2.16 0 0 0-1.324-1.435 3.4 3.4 0 0 0-1.305-.252c-.452.002-.901.08-1.328.228l-.331.119h-.063l-.08.023-.429.158c-.26.09-.654.24-1.182.438a60 60 0 0 0-4.135 1.797 52 52 0 0 0-5.687 3.189 46 46 0 0 0-6.11 4.69c-.99.902-1.947 1.86-2.842 2.842a41 41 0 0 0-2.506 3.039 40 40 0 0 0-3.713 5.983 39 39 0 0 0-1.971 4.564l-.087.248q-.102.273-.173.493l-.34 1.048a.8.8 0 0 0 0 .462l17.545 7.339q.528.18 1.028.429l.481.217.86-2.523v-.023c0-.028 0-.063.03-.103.032-.039.072-.228.13-.394.13-.315.38-.95.683-1.667z"/>
  <path fill="#1D4ED8" d="m13.784 118.116-.071.162-.19.457-.29.717c-.12.288-.241.607-.395.962l-.457 1.183c-.158.421-.331.882-.513 1.375-.394.982-.748 2.081-1.182 3.283a180 180 0 0 0-5.053 17.788 172 172 0 0 0-1.943 9.681c-.296 1.549-.493 3.066-.71 4.501-.106.713-.209 1.415-.307 2.089-.099.674-.158 1.336-.233 1.97-.142 1.262-.276 2.417-.394 3.441s-.161 1.932-.22 2.673l-.186 2.325 27.551 1.849.154-1.924c.051-.611.102-1.352.181-2.207s.209-1.813.327-2.861c.063-.529.122-1.073.193-1.64.071-.568.17-1.151.26-1.75.182-1.183.34-2.471.592-3.776.45-2.621 1-5.408 1.643-8.179a152 152 0 0 1 4.261-15.005c.347-.989.658-1.908.958-2.692l.394-1.107q.195-.5.355-.915c.106-.276.205-.524.288-.725l.208-.516a8 8 0 0 1 .174-.41z"/>
  <path fill="#1D4ED8" d="M29.325 174.026a1.471 1.471 0 0 1-1.569-1.577l.154-1.923c.02-.225.04-.461.06-.717.03-.446.07-.954.121-1.506v-.032l.331-2.865c.024-.193.044-.394.067-.583l.123-1.072v-.032l.256-1.75c.055-.343.102-.69.154-1.041.13-.894.264-1.821.449-2.782a150 150 0 0 1 1.655-8.246 153 153 0 0 1 4.304-15.155l.308-.879c.228-.658.45-1.285.666-1.848l.394-1.1v-.024l.355-.914.13-.331-22.735-9.594c-.11.272-.228.568-.354.899l-.458 1.182-.504 1.368c-.276.725-.556 1.525-.851 2.365q-.153.431-.312.887a179 179 0 0 0-5.01 17.626 174 174 0 0 0-1.927 9.602.1.1 0 0 1 0 .027 55 55 0 0 0-.532 3.303c-.055.394-.11.765-.165 1.143l-.304 2.065q-.082.659-.154 1.289-.036.331-.075.651l-.394 3.417c-.063.678-.114 1.305-.157 1.86 0 .276-.04.54-.063.789l-.182 2.317a1.47 1.47 0 0 1-1.012 1.283 1.47 1.47 0 0 1-1.573-.445 1.47 1.47 0 0 1-.347-1.07l.181-2.326c.024-.244.043-.5.063-.788.048-.568.099-1.21.162-1.912v-.031l.394-3.441c.024-.217.047-.43.075-.647.047-.433.098-.883.157-1.336a.1.1 0 0 1 0-.031l.308-2.089c.055-.394.11-.749.165-1.132.162-1.103.328-2.242.548-3.413.56-3.271 1.218-6.551 1.971-9.751a183 183 0 0 1 5.096-17.934q.164-.465.312-.894c.303-.864.587-1.68.875-2.436l.508-1.364.457-1.183q.206-.536.395-.985l.555-1.352a1.47 1.47 0 0 1 1.928-.788l25.442 10.736a1.473 1.473 0 0 1 .788 1.932l-.043.098-.114.276-.21.521c-.082.189-.169.417-.28.701l-.35.907-.394 1.095a75 75 0 0 0-.639 1.778q-.147.43-.307.879a151 151 0 0 0-5.837 22.939v.032c-.174.899-.304 1.797-.43 2.664q-.075.538-.158 1.057l-.256 1.73c-.043.347-.079.682-.118 1.013 0 .201-.043.394-.067.595l-.327 2.846a84 84 0 0 0-.119 1.446q-.03.391-.059.73l-.153 1.919a1.47 1.47 0 0 1-1.368 1.352"/>
  <path fill="#000" d="M15.542 169.391h-.071a.655.655 0 0 1-.635-.674c0-.15.13-3.807 1.34-10.52 1.112-6.176 3.394-16.195 7.966-28.871a.655.655 0 0 1 1.23.441c-4.54 12.589-6.807 22.534-7.91 28.663-1.183 6.618-1.317 10.291-1.317 10.326a.65.65 0 0 1-.603.635"/>
  <path fill="#000" d="M7.78 157.882a.649.649 0 0 1-.619-.343.66.66 0 0 1 .069-.724.7.7 0 0 1 .196-.163c3.177-1.71 7.45-2.735 12.696-3.035a49 49 0 0 1 6.929.059.656.656 0 0 1 .333 1.139.66.66 0 0 1-.455.162c-.119 0-11.69-1.048-18.88 2.83a.7.7 0 0 1-.268.075M27.413 152.403a.65.65 0 0 1-.358-.078c-.091-.052-9.334-5.046-17.65-3.906a.66.66 0 0 1-.485-.128.657.657 0 0 1-.125-.917.66.66 0 0 1 .432-.252c8.758-1.183 18.064 3.843 18.458 4.056a.65.65 0 0 1 .323.714.66.66 0 0 1-.595.511"/>
  <rect width="100.853" height="56.708" x="30.115" y="76.424" fill="#fff" stroke="#000" stroke-width="3.202" rx="5.337" transform="rotate(-15 30.115 76.424)"/>
  <mask id="111a" width="54" height="55" x="38" y="69" maskUnits="userSpaceOnUse" style="mask-type:alpha">
    <rect width="44.145" height="44.933" x="37.706" y="80.485" fill="#007AFF" rx="3.469" transform="rotate(-15 37.706 80.485)"/>
  </mask>
  <g mask="url(#111a)">
    <path fill="#1D4ED8" d="m28.5 67.446 75.382-20.199 18.26 68.148-75.382 20.199z"/>
    <path fill="#000" d="m93.702 114.166-2.807-4.173a9.53 9.53 0 0 0-8.564-4.185l-13.622.941-13.93 6.021a9.53 9.53 0 0 0-5.76 8.962l.098 4.381z"/>
    <path fill="#fff" d="m66.784 121.738 7.763-2.08-.91-7.444-5.322-1.3-4.485 4.201z"/>
    <path fill="#000" d="m74.98 119.95-8.421 2.257-3.204-7.189 4.844-4.538 5.798 1.413zm-7.974 1.321 7.108-1.905-.836-6.835-4.851-1.186-4.123 3.864zM53.36 94.274s-4.028-6.829-2.8-10.451c1.267-3.71 2.403-6.736 6.674-5.811 4.27.924 3.034-2.062 8.594-1.687 3.07.205 5.514 1.815 5.894 3.978s1.868 7.734.56 10.35c-1.306 2.614-14.492 8.196-18.921 3.62"/>
    <path fill="#fff" d="m68.01 110.996.02-.005a4.337 4.337 0 0 1-5.291-3.071l-4.06-15.153a4.336 4.336 0 0 1 3.051-5.285l-.019.005a4.336 4.336 0 0 1 5.286 3.051l4.06 15.153a4.335 4.335 0 0 1-3.046 5.305"/>
    <path fill="#000" d="m68.143 111.369-.026.007a4.73 4.73 0 0 1-5.748-3.357l-4.06-15.153a4.73 4.73 0 0 1 3.304-5.761l.034-.01a4.73 4.73 0 0 1 5.742 3.338l4.06 15.153a4.73 4.73 0 0 1-3.298 5.781zm-6.295-23.495a3.94 3.94 0 0 0-2.766 4.802l4.06 15.152a3.92 3.92 0 0 0 3.27 2.984 3.92 3.92 0 0 0 3.961-1.973 3.92 3.92 0 0 0 .327-3.036l-4.06-15.152a3.94 3.94 0 0 0-4.792-2.776"/>
    <path fill="#fff" d="M56.834 98.589c.93-.541.848-2.415-.182-4.185s-2.618-2.768-3.548-2.227-.848 2.415.182 4.185 2.619 2.768 3.548 2.227"/>
    <path fill="#000" d="M56.666 99.268c-1.142.306-2.693-.718-3.738-2.516a6.2 6.2 0 0 1-.88-2.734c-.04-.944.26-1.65.842-1.989.583-.34 1.341-.25 2.139.243a6.14 6.14 0 0 1 1.942 2.116c1.156 1.987 1.174 4.064.04 4.722a1.3 1.3 0 0 1-.345.158m-3.22-6.625a.6.6 0 0 0-.16.068c-.311.181-.476.646-.447 1.274a5.4 5.4 0 0 0 .77 2.373c.983 1.687 2.375 2.448 3.007 2.083s.656-1.955-.328-3.646a5.4 5.4 0 0 0-1.677-1.844 1.58 1.58 0 0 0-1.164-.308"/>
    <path fill="#fff" d="M69.27 91.21c-.007 2.043.856 3.713 1.935 3.718s1.948-1.652 1.958-3.703-.86-3.712-1.935-3.718c-1.074-.006-1.947 1.656-1.957 3.704"/>
    <path fill="#000" d="M71.583 95.272q-.193.054-.394.052c-1.311-.004-2.337-1.822-2.326-4.11-.014-.97.2-1.931.624-2.803.442-.837 1.057-1.296 1.734-1.281.677.014 1.285.472 1.72 1.302.42.875.628 1.837.606 2.808.006 2.063-.822 3.726-1.964 4.032m-1.905-4.064c-.006 1.956.807 3.317 1.543 3.32s1.554-1.355 1.561-3.308a5.35 5.35 0 0 0-.515-2.44c-.292-.558-.664-.88-1.027-.88s-.732.314-1.027.871a5.4 5.4 0 0 0-.535 2.437"/>
    <path fill="#fff" d="m61.82 79.97-4.3 1.152a5.885 5.885 0 0 0-4.16 7.207l3.643 13.596a5.885 5.885 0 0 0 7.207 4.161l4.298-1.152a5.885 5.885 0 0 0 4.161-7.207L69.026 84.13a5.885 5.885 0 0 0-7.207-4.16"/>
    <path fill="#000" d="m68.605 105.312-4.294 1.15a6.304 6.304 0 0 1-7.694-4.438l-3.642-13.592a6.306 6.306 0 0 1 4.444-7.69l4.294-1.152a6.307 6.307 0 0 1 7.69 4.44l3.642 13.592a6.307 6.307 0 0 1-4.44 7.69M57.627 81.518a5.52 5.52 0 0 0-3.886 6.725l3.642 13.592a5.52 5.52 0 0 0 6.728 3.881l4.294-1.15a5.52 5.52 0 0 0 3.883-6.725L68.646 84.25a5.52 5.52 0 0 0-6.725-3.883z"/>
    <path fill="#000" d="M59.244 95.234c.339-.249.332-.832-.014-1.301-.346-.47-.9-.649-1.238-.4-.339.25-.333.832.013 1.302s.901.648 1.24.4M60.167 92.262a.4.4 0 0 1-.253-.017 2.63 2.63 0 0 0-1.49-.111c-.596.093-1.136.4-1.52.864a.393.393 0 1 1-.64-.457 3.26 3.26 0 0 1 2.008-1.183 3.4 3.4 0 0 1 1.945.16.395.395 0 0 1-.05.744M65.86 92.463c.347.47.9.648 1.241.398s.329-.83-.018-1.301c-.346-.47-.9-.648-1.237-.399-.337.25-.332.832.014 1.302M68.014 90.16a.4.4 0 0 1-.254-.018 2.67 2.67 0 0 0-1.49-.11 2.46 2.46 0 0 0-1.516.863.395.395 0 1 1-.644-.456 3.26 3.26 0 0 1 2.009-1.183 3.4 3.4 0 0 1 1.944.16.394.394 0 0 1-.05.744M63.617 96.945a.84.84 0 0 1-.676-.105 1.43 1.43 0 0 1-.513-.968 117 117 0 0 1-.796-4.492.397.397 0 0 1 .785-.116c.222 1.483.486 2.983.786 4.453.014.17.076.331.178.467a.39.39 0 0 1 .324-.312.393.393 0 0 1 .44.348.66.66 0 0 1-.33.64 1 1 0 0 1-.198.085M65.863 99.008c-.26.07-.53.09-.799.063a.395.395 0 1 1 .084-.786 1.727 1.727 0 0 0 1.817-1.637.397.397 0 0 1 .545-.368.4.4 0 0 1 .246.364 2.44 2.44 0 0 1-.832 1.785 2.6 2.6 0 0 1-1.06.579M54.28 90.73s-.742-5.252 1.04-4.983 2.233 1.707 4.762 1.217c2.53-.49 3.89-1.789 4.996-1.15 1.106.638 3.23 2.125 4.985.161s1.064-5.365-2.77-6.195-8.959.25-11.842.835-4.416 6.5-1.17 10.115M69.431 115.749l-2.049-2.042-2.046-2.047 2.799-.75 2.794-.749-.749 2.796z"/>
    <path fill="#000" d="m68.49 112.238-.299 4.488-.294 4.49 2.798-.75 2.794-.749-2.5-3.741z"/>
    <path fill="#fff" d="m68.01 110.996-3.18 6.834-3.153-7.385 1.066-2.509z"/>
    <path fill="#000" d="m64.828 118.794-3.564-8.353 1.307-3.072 5.963 3.462zm-2.712-8.353 2.744 6.418 2.657-5.71-4.57-2.652z"/>
    <path fill="#fff" d="m68.315 110.914 6.171 4.329-.961-7.973-2.178-1.64z"/>
    <path fill="#000" d="m74.982 116.073-7.19-5.043 3.436-5.98 2.668 2.007zm-6.15-5.289 5.155 3.618-.836-6.93-1.687-1.269z"/>
  </g>
  <path fill="#000" d="m87.459 71.234 36.93-9.895 1.734 6.472-36.93 9.896zM91.335 85.702l36.93-9.895 1.734 6.473-36.93 9.895z"/>
  <path fill="#fff" d="M47.306 99.985c-5.999-.789-10.078-.88-16.062.938l-.086 21.185c4.899-2.597 6.156-9.345 4.26-15.021 4.261-1.257 6.87-1.072 11.037-.394 1.616.311 3.062-.5 3.488-2.637.46-2.325-.97-3.784-2.637-4.071"/>
  <path fill="#000" d="M31.158 123.133a1.037 1.037 0 0 1-.485-1.971c2.594-1.376 3.693-3.859 4.158-5.695a14.6 14.6 0 0 0-.394-8.084 1.04 1.04 0 0 1 .324-1.128q.163-.133.366-.193c4.273-1.261 7-1.151 11.497-.433h.032c1.206.232 1.99-.395 2.274-1.821a2.44 2.44 0 0 0-.296-1.904 2.32 2.32 0 0 0-1.49-.934c-5.931-.789-9.782-.859-15.6.906a1.031 1.031 0 0 1-.603-1.97c6.157-1.869 10.386-1.794 16.503-.974h.047a4.37 4.37 0 0 1 2.85 1.805 4.49 4.49 0 0 1 .619 3.473c-.505 2.542-2.337 3.894-4.679 3.452-3.874-.614-6.22-.748-9.57.103.734 2.681.778 5.504.127 8.206-.789 3.153-2.65 5.664-5.195 7.016a1 1 0 0 1-.485.146"/>
  <path fill="#fff" d="M79.407 129.588c-1.928 1.971-5.519 6.594-5.519 6.594-1.009 1.265-.646 3.24.816 4.407 1.463 1.166 3.465 1.092 4.478-.178l8.486-10.429 2.652-3.91c-5.703-3.011-8.777 1.34-10.913 3.516"/>
  <path fill="#000" d="M77.885 142.354a4.764 4.764 0 0 1-5.518-3.744 3.76 3.76 0 0 1 .725-3.067c.205-.268 3.65-4.729 5.578-6.7.212-.213.437-.453.674-.706 2.108-2.27 5.644-6.07 11.473-3.003a1.03 1.03 0 0 1 .537.609 1.04 1.04 0 0 1-.33 1.13 1.03 1.03 0 0 1-.78.225 1 1 0 0 1-.393-.131c-4.426-2.334-6.854.276-8.994 2.577-.248.265-.48.517-.71.749-1.86 1.896-5.387 6.456-5.423 6.504a1.71 1.71 0 0 0-.311 1.407c.127.614.47 1.162.965 1.545 1.013.812 2.365.788 3.023 0l8.494-10.433a1.032 1.032 0 0 1 1.83.546 1.04 1.04 0 0 1-.225.759l-8.498 10.444a3.68 3.68 0 0 1-2.117 1.289"/>
  <path fill="#fff" d="M126.212 165.16a.94.94 0 0 0 .662-.611c.148-.377.172-.791.067-1.182l-.126-.489-.15-.58a2571 2571 0 0 0-1.892-7.165 41 41 0 0 0-1.726-4.805 41.7 41.7 0 0 0-3.441-6.365 47 47 0 0 0-2.365-3.268 41 41 0 0 0-2.732-3.082 47.4 47.4 0 0 0-5.959-5.167 54 54 0 0 0-5.597-3.595 61 61 0 0 0-4.103-2.081c-.5-.229-.895-.394-1.183-.52l-.394-.182-.209-.075-.264-.11a4.84 4.84 0 0 0-3.429-.158 3.283 3.283 0 0 0-2.089 2.05 3.3 3.3 0 0 0-.122 1.529l-.106-.035a4.24 4.24 0 0 0-3.22.177 3.31 3.31 0 0 0-1.798 2.215 3.72 3.72 0 0 0 .158 2.2c.263.686.703 1.29 1.277 1.75-.44.436-.76.979-.926 1.576a4.03 4.03 0 0 0 .023 2.31c.21.699.62 1.32 1.183 1.785a3.9 3.9 0 0 0-.875 1.451 4.36 4.36 0 0 0 0 2.759 2.88 2.88 0 0 0 1.54 1.782s.332.141.825.366 1.139.536 1.77.871c.63.335 1.233.678 1.678.946l.536.327.197.126a.5.5 0 0 0 .146.071l.17.111.473.315c.394.276.957.674 1.576 1.182a25 25 0 0 1 2.01 1.786q1.043 1.036 1.936 2.203.852 1.126 1.529 2.365.581 1.068 1.017 2.203c.256.67.429 1.25.544 1.656.063.205.098.37.13.481.031.11 3.705 11.359 3.705 11.359.063.39 19.554-8.482 19.554-8.482"/>
  <path fill="#000" d="M106.717 174.828a1.24 1.24 0 0 1-1.159-.91c-.157-.576-3.634-11.103-3.701-11.352 0-.051-.031-.11-.047-.173a3 3 0 0 0-.071-.272c-.13-.442-.284-.962-.516-1.577a17.2 17.2 0 0 0-2.4-4.3 21 21 0 0 0-1.833-2.089q-.914-.9-1.92-1.695a27 27 0 0 0-1.525-1.127l-.532-.355a2 2 0 0 1-.229-.126l-.19-.122-.523-.323a36 36 0 0 0-1.62-.911c-.71-.394-1.38-.685-1.715-.843l-.623-.276-.173-.079a3.98 3.98 0 0 1-2.148-2.44 5.43 5.43 0 0 1 .492-4.497 5 5 0 0 1-.788-1.541 5.12 5.12 0 0 1-.027-2.94c.118-.416.292-.814.516-1.183a5.3 5.3 0 0 1-.836-1.442 4.84 4.84 0 0 1-.205-2.854 4.46 4.46 0 0 1 2.385-2.944 5.2 5.2 0 0 1 2.759-.505q.053-.266.134-.524a4.41 4.41 0 0 1 2.759-2.759 5.7 5.7 0 0 1 2.184-.296c.7.044 1.39.205 2.037.477l.21.091q.135.041.263.094l.426.186a60.36 60.36 0 0 1 5.364 2.652 54 54 0 0 1 5.72 3.67 48.5 48.5 0 0 1 6.093 5.285 48 48 0 0 1 2.799 3.154 42 42 0 0 1 2.443 3.354 42 42 0 0 1 5.309 11.47l.071.248c.06.205 1.782 6.771 1.829 6.941l.276 1.08a2.98 2.98 0 0 1-.11 1.856 2.06 2.06 0 0 1-1.38 1.258s-19.293 8.671-19.798 8.639m-2.865-13.35q.07.239.106.395c0 .039 0 .074.024.102v.024c0 .086 3.114 9.223 3.445 10.421.181-.067 18.426-8.305 18.426-8.305a.8.8 0 0 0 0-.461l-.272-1.064c-.039-.15-1.758-6.701-1.809-6.882l-.075-.256a40.1 40.1 0 0 0-5.025-10.863 42 42 0 0 0-2.322-3.185 45 45 0 0 0-2.668-3.007 47 47 0 0 0-5.818-5.049 52 52 0 0 0-5.486-3.516 58 58 0 0 0-4.025-2.045c-.5-.229-.883-.395-1.139-.509l-.418-.181-.078-.028h-.064l-.323-.134a4 4 0 0 0-1.312-.311 3.3 3.3 0 0 0-1.317.173 2.16 2.16 0 0 0-1.407 1.352 2.24 2.24 0 0 0-.082 1.029l.26 1.782-1.814-.615a3.3 3.3 0 0 0-.875-.17 3 3 0 0 0-1.497.292 2.22 2.22 0 0 0-1.218 1.482 2.63 2.63 0 0 0 .118 1.549c.192.503.515.947.934 1.285l.974.788-.895.871a2.4 2.4 0 0 0-.635 1.076 2.9 2.9 0 0 0 0 1.671c.146.49.433.926.824 1.254l.934.756-.835.868a2.8 2.8 0 0 0-.627 1.044 3.2 3.2 0 0 0-.02 2.058 1.82 1.82 0 0 0 .915 1.115c.153.059.394.173.867.394.359.166 1.068.501 1.82.899.569.299 1.183.654 1.74.977l.716.446.075.027.485.316.3.201c.425.295 1 .701 1.651 1.218a26 26 0 0 1 2.105 1.864q1.096 1.092 2.034 2.321a19.5 19.5 0 0 1 2.7 4.837c.311.697.5 1.344.603 1.694"/>
  <path fill="#000" d="M100.769 135.181a.77.77 0 0 1-.358-.106l-.481-.276c-.324-.182-.789-.43-1.262-.69a53 53 0 0 0-3.918-1.868 56 56 0 0 0-4.04-1.542c-.571-.193-1.052-.342-1.36-.441l-.523-.158a.826.826 0 0 1-.11-1.473.82.82 0 0 1 .587-.103l.531.161c.324.099.816.253 1.404.454a66 66 0 0 1 4.162 1.576 51 51 0 0 1 5.348 2.645l.481.272a.82.82 0 0 1 .358.411.82.82 0 0 1-.294.986.82.82 0 0 1-.525.148zM97.695 140.454a.86.86 0 0 1-.363-.106l-.422-.24a32 32 0 0 0-1.095-.603 48 48 0 0 0-3.437-1.64 54 54 0 0 0-3.548-1.364c-.477-.161-.875-.288-1.182-.394l-.489-.15a.84.84 0 0 1-.544-.388.827.827 0 0 1 1.025-1.188l.505.153c.3.095.71.225 1.202.395 1.147.394 2.49.902 3.681 1.411a47 47 0 0 1 3.547 1.698c.473.249.867.469 1.147.627l.418.237a.826.826 0 0 1 .07 1.401.83.83 0 0 1-.527.148zM95.074 145.302a.85.85 0 0 1-.374-.114s-.422-.248-1.049-.595a47 47 0 0 0-2.408-1.206c-.8-.371-1.691-.741-2.5-1.056a40 40 0 0 0-1.154-.426.833.833 0 0 1-.093-1.538.83.83 0 0 1 .637-.039s.497.174 1.206.446a42.567 42.567 0 0 1 5.1 2.357c.662.358 1.092.611 1.108.622a.83.83 0 0 1-.473 1.538z"/>
  <path fill="#1D4ED8" d="M86.734 163.24c-1.49-.993-1.415-2.968-.95-4.521-1.577.867-3.599 1.411-5.763-.031-2.163-1.443-2.522-3.764-2.223-5.447-1.367 1.064-3.11 1.97-4.639.938a3.405 3.405 0 0 1-.958-4.6l38.477-57.613 19.077 12.739-38.56 57.739a3.296 3.296 0 0 1-4.461.796"/>
  <path fill="#000" d="M89.493 164.71a4.32 4.32 0 0 1-3.335-.611c-1.182-.788-1.762-2.089-1.706-3.709l-.343.083a5.87 5.87 0 0 1-4.663-.926 6.13 6.13 0 0 1-2.732-4.407c-1.533.73-2.944.686-4.134-.106A4.435 4.435 0 0 1 71.338 149l38.477-57.613a1.02 1.02 0 0 1 .658-.44 1.03 1.03 0 0 1 .777.156l19.077 12.739a1.035 1.035 0 0 1 .441 1.068 1 1 0 0 1-.158.379l-38.56 57.738a4.08 4.08 0 0 1-2.557 1.683m-3.942-7a1.05 1.05 0 0 1 .978.31 1.04 1.04 0 0 1 .232.999c-.224.753-.626 2.589.532 3.362a2.28 2.28 0 0 0 1.742.307 2.05 2.05 0 0 0 1.278-.819l37.988-56.884-17.343-11.588c-4.103 6.149-29.08 43.55-37.897 56.757a2.25 2.25 0 0 0-.3 1.672 2.3 2.3 0 0 0 .97 1.49 1.64 1.64 0 0 0 1.344.224 5.5 5.5 0 0 0 2.085-1.115 1.04 1.04 0 0 1 1.171-.068 1.04 1.04 0 0 1 .484 1.069 4.18 4.18 0 0 0 1.782 4.406 3.83 3.83 0 0 0 3.074.623 6 6 0 0 0 1.612-.634 1 1 0 0 1 .284-.111z"/>
  <path fill="#000" d="M80.7 149.863a.632.632 0 0 1-.505-.095.654.654 0 0 1-.181-.907l33.108-49.737a.654.654 0 0 1 1.088.725l-33.108 49.738a.65.65 0 0 1-.403.276M88.736 155.61a.64.64 0 0 1-.497-.095.655.655 0 0 1-.185-.906l33.109-49.742a.655.655 0 0 1 1.167.244.65.65 0 0 1-.08.481L89.142 155.33a.64.64 0 0 1-.406.28M70.988 175.36a2.42 2.42 0 0 1-1.896-.461c-.631-.445-1.254-1.241-1.108-2.152.099-.603 2.01-16.239 2.74-22.21a1.037 1.037 0 0 1 1.15-.903 1.035 1.035 0 0 1 .903 1.151c-.106.856-2.491 20.409-2.736 22.187a.97.97 0 0 0 .501.359c1.3-.726 19.065-10.832 19.246-10.934a1.03 1.03 0 0 1 1.411.386 1.036 1.036 0 0 1-.386 1.411c-.757.43-18.525 10.532-19.313 10.973q-.242.135-.513.193"/>
  <path fill="#000" d="M70.936 174.347c-.788.446-2.112-.615-1.99-1.352.043-.276.504-3.61 1.064-7.674l7.643 5.101c-3.516 2.065-6.417 3.779-6.717 3.925"/>
  <path fill="#fff" d="m110.02 134.247-.887-.276c-.343-.099-.729-.201-1.151-.315a41 41 0 0 0-6.215-1.092l-1.699-.134c-.28-.028-.556-.028-.832-.04l-.812-.027h-1.541c-.489 0-.95 0-1.376.023l-2.057.127c-.252 0-.445.043-.576.055l-.204.023a3.3 3.3 0 0 0-1.27.395 3 3 0 0 0-.52.394 3.6 3.6 0 0 0-.425.488 3.34 3.34 0 0 0-.544 2.519c.143.865.589 1.651 1.257 2.219q.228.193.489.339.257.147.536.252c.368.133.761.18 1.15.138h.174c.114 0 .28-.039.493-.047l1.758-.11h2.491l.693.023c.233 0 .473 0 .71.032l1.438.114a35 35 0 0 1 5.199.911l.93.256.698.217.591.201s-5.419 8.064-.165 14.977l2.451-21.335z"/>
  <path fill="#000" d="M108.57 156.859a1.03 1.03 0 0 1-1.045-.394c-2.341-3.078-3.058-6.858-2.069-10.934a18.4 18.4 0 0 1 1.529-4.059h-.051l-.915-.253a34 34 0 0 0-5.013-.879l-1.43-.11h-.659l-.682-.024h-2.408l-1.742.107h-.024q-.136.007-.268.027h-.323c-.547.06-1.1-.006-1.616-.193a4.5 4.5 0 0 1-.694-.327 4 4 0 0 1-.642-.445 4.73 4.73 0 0 1-1.616-2.834 4.36 4.36 0 0 1 .72-3.295q.25-.348.56-.643.323-.293.702-.504a4.3 4.3 0 0 1 1.671-.544l.205-.024h.138c.123 0 .292-.031.497-.043l2.046-.126h3.007l.824.027h.228c.21 0 .43 0 .658.032l1.691.134h.02c2.151.213 4.283.589 6.377 1.123l.367.099.788.224.891.276h.028l.788.268a1.043 1.043 0 0 1 .652 1.319 1.04 1.04 0 0 1-1.318.652l-.788-.264-.864-.264c-.236-.071-.492-.138-.764-.213l-.363-.098a41 41 0 0 0-5.983-1.073l-1.687-.13c-.17 0-.347-.019-.536-.027h-.244l-.789-.028h-2.837l-2.038.126h-.02l-.35.032h-.166l-.194.024c-.305.033-.6.128-.867.279q-.179.102-.335.237-.155.15-.28.327a2.3 2.3 0 0 0-.394 1.742 2.7 2.7 0 0 0 .907 1.604q.152.129.327.225.173.104.363.173a1.5 1.5 0 0 0 .69.087l.173-.02h.122q.216-.033.433-.039l1.75-.11h2.579l.7.023h.218c.165 0 .354 0 .548.032l1.43.11h.02c1.807.177 3.597.49 5.356.938l.942.26h.032l.702.217h.027l.591.201a1.02 1.02 0 0 1 .66.656 1.03 1.03 0 0 1-.135.921 15.8 15.8 0 0 0-1.92 4.619c-.828 3.477-.252 6.547 1.719 9.133a1.037 1.037 0 0 1-.197 1.446 1.05 1.05 0 0 1-.41.197"/>
  <path fill="#1D4ED8" d="m107.746 187.315 27.488 2.636s0-.157.039-.453c0-.15.032-.331.048-.544.015-.213.023-.445.039-.713s.02-.56.036-.879 0-.646 0-1.005v-1.127c0-.395-.02-.789-.044-1.222a51 51 0 0 0-.563-5.471 62 62 0 0 0-1.183-5.723 86 86 0 0 0-3.133-9.854 98 98 0 0 0-1.281-3.153 56 56 0 0 1-.395-.91l-.149-.339-25.131 11.45.079.177c.059.126.138.315.244.552a59.56 59.56 0 0 1 2.984 8.758 39 39 0 0 1 .682 3.322q.206 1.272.28 2.558v1.806c0 .035-.04.134-.04.134"/>
  <path fill="#1D4ED8" d="M135.1 191.414a1.476 1.476 0 0 1-1.332-1.596l.086-.966.071-1.537v-2.365c0-.284-.019-.58-.035-.859a51 51 0 0 0-.56-5.31 63 63 0 0 0-1.147-5.596 84.5 84.5 0 0 0-4.288-12.649l-22.467 10.248c.182.426.395.962.639 1.577a60 60 0 0 1 2.172 6.799c.291 1.155.536 2.365.709 3.449q.22 1.345.296 2.707v1.372l-.02.426v.331a1.474 1.474 0 0 1-2.932-.268v-.111a.1.1 0 0 1 0-.035v-1.005a1 1 0 0 1 0-.099v-.216a3 3 0 0 0 0-.217v-.024a22 22 0 0 0-.261-2.396 40 40 0 0 0-.658-3.189 58 58 0 0 0-2.061-6.456c-.394-.982-.694-1.726-.848-2.081l-.311-.706a1.474 1.474 0 0 1 .733-1.943l25.127-11.454a1.49 1.49 0 0 1 1.128-.039c.181.068.347.172.489.304.141.133.254.292.334.468l.15.339.394.911c.3.701.769 1.817 1.305 3.212a86 86 0 0 1 3.188 10.019 62 62 0 0 1 1.183 5.853 53 53 0 0 1 .595 5.613c0 .315.028.627.035.93v2.558l-.074 1.604a.2.2 0 0 0 0 .048l-.087 1.005a1.474 1.474 0 0 1-1.6 1.332z"/>
  <path fill="#000" d="M128.876 187.997a.65.65 0 0 0 .777-.272.65.65 0 0 0-.103-.816c-2.598-2.507-6.433-4.643-11.403-6.35a50.4 50.4 0 0 0-6.7-1.817.656.656 0 0 0-.719.534.657.657 0 0 0 .486.751c.114.024 11.541 2.148 17.414 7.824a.7.7 0 0 0 .248.146M111.455 177.418a.65.65 0 0 0 .366 0c.103-.024 10.35-2.338 18.052 1.005a.654.654 0 0 0 .52-1.183c-8.107-3.52-18.43-1.182-18.867-1.08a.66.66 0 0 0-.489.789.68.68 0 0 0 .418.469"/>
  <path fill="#1D4ED8" d="M177.425 11.155 167.254 16.6a.64.64 0 0 1-.339.077.67.67 0 0 1-.613-.966.67.67 0 0 1 .318-.315l10.171-5.444a.674.674 0 1 1 .64 1.185zM169.182 28.541a.675.675 0 0 1 .695-.64l11.529.378a.667.667 0 0 1 .64.691.68.68 0 0 1-.695.64l-11.528-.377a.67.67 0 0 1-.641-.692M166.479 40.339l9.796 6.084a.67.67 0 0 1 .293.77.68.68 0 0 1-.671.476.66.66 0 0 1-.32-.102l-9.797-6.085a.67.67 0 0 1-.313-.418.68.68 0 0 1 .081-.517.674.674 0 0 1 .94-.208zM160.187 14.361A28.23 28.23 0 0 0 141.689.664a28.222 28.222 0 0 0-27.078 46.423l-7.321 14.859 15.663-8.51a28.227 28.227 0 0 0 37.234-39.068z"/>
  <path fill="#000" d="M107.289 62.705a.74.74 0 0 0 .362-.093l15.32-8.327a28.97 28.97 0 0 0 26.827-.832.76.76 0 0 0 .396-.458q.046-.151.031-.308a.77.77 0 0 0-.576-.66.76.76 0 0 0-.597.1 27.46 27.46 0 0 1-25.76.64.76.76 0 0 0-.702 0l-13.562 7.366 6.264-12.714a.76.76 0 0 0-.115-.845 27.49 27.49 0 0 1-6.575-23.48c.096-.5.205-.999.321-1.486a.766.766 0 0 0-.562-.904.763.763 0 0 0-.918.54c-.125.515-.24 1.04-.339 1.565a29 29 0 0 0 3.202 19.596 29.4 29.4 0 0 0 3.379 4.803l-7.1 14.411a.76.76 0 0 0 .157.884.75.75 0 0 0 .547.202"/>
  <path fill="#fff" d="M133.459 45.566h-.029a2.4 2.4 0 0 1-1.957-1.054l-11.07-16.303a2.4 2.4 0 0 1-.373-1.8 2.403 2.403 0 0 1 4.347-.9l9.13 13.45 17.043-23.896a2.403 2.403 0 1 1 3.91 2.789l-19.045 26.705a2.4 2.4 0 0 1-1.956 1.008"/>
</svg>
