<svg xmlns="http://www.w3.org/2000/svg" fill="none" viewBox="0 0 192 192">
  <path fill="#fff" d="M0 0h192v192H0z"/>
  <path fill="#000" d="M157.732 108.243H34.839a12.7 12.7 0 0 1-12.685-12.676V12.676A12.694 12.694 0 0 1 34.839 0h122.893a12.683 12.683 0 0 1 12.675 12.676v82.89a12.684 12.684 0 0 1-12.675 12.676M34.839 3.819a8.86 8.86 0 0 0-8.848 8.838v82.891a8.86 8.86 0 0 0 8.848 8.848h122.893a8.86 8.86 0 0 0 8.838-8.848v-82.89a8.846 8.846 0 0 0-8.838-8.84z"/>
  <path fill="#1D4ED8" d="M151.911 59.44h-46.512a2.217 2.217 0 0 0-2.217 2.216v17.1c0 1.224.993 2.216 2.217 2.216h46.512a2.216 2.216 0 0 0 2.216-2.216v-17.1a2.216 2.216 0 0 0-2.216-2.216"/>
  <path fill="#000" d="M90.395 59.44H43.929a2.216 2.216 0 0 0-2.217 2.216v17.072a2.21 2.21 0 0 0 2.217 2.217h46.503a2.204 2.204 0 0 0 2.216-2.217v-17.1a2.216 2.216 0 0 0-2.253-2.188m-.653 18.627h-45.19V62.28h45.19zM160.442 22.901H31.514a.77.77 0 0 0-.858.768.772.772 0 0 0 .858.769h128.928a.773.773 0 0 0 0-1.537M47.46 13.83a5.03 5.03 0 1 1-10.06 0 5.03 5.03 0 0 1 10.06 0M60.815 13.83a5.029 5.029 0 1 1-10.058 0 5.029 5.029 0 0 1 10.058 0M74.198 13.83a5.029 5.029 0 1 1-10.057 0 5.029 5.029 0 0 1 10.057 0M122.275 132.373h-8.382a1.154 1.154 0 0 0 0 2.3h8.382a1.15 1.15 0 0 0 1.051-1.15 1.16 1.16 0 0 0-1.051-1.15M133.954 132.374h-4.517a1.145 1.145 0 0 0-1.161.684 1.17 1.17 0 0 0 0 .932 1.16 1.16 0 0 0 1.161.684h4.517c.16.015.321-.004.473-.056a1.142 1.142 0 0 0 .687-.628 1.154 1.154 0 0 0-1.16-1.616M142.252 132.373h-2.021a1.157 1.157 0 0 0-.749 1.929c.195.213.462.346.749.371h2.021a1.15 1.15 0 0 0 .749-.371 1.15 1.15 0 0 0 0-1.558 1.15 1.15 0 0 0-.749-.371M148.642 132.374h-1.062a1.154 1.154 0 0 0 0 2.3h1.062c.159.015.32-.004.472-.056a1.145 1.145 0 0 0 .786-1.094 1.145 1.145 0 0 0-.786-1.094 1.1 1.1 0 0 0-.472-.056M154.184 132.374h-.531a1.157 1.157 0 0 0-.749 1.929c.195.213.462.345.749.371h.531c.159.015.321-.004.473-.056.152-.051.291-.133.409-.242q.18-.164.278-.386a1.153 1.153 0 0 0-.687-1.56 1.1 1.1 0 0 0-.473-.056"/>
  <path fill="#fff" d="M82.059 84.79a4.713 4.713 0 1 0-9.24 1.864l4.909 24.951 9.239-1.863z"/>
  <path fill="#000" d="M77.83 112.993a1.444 1.444 0 0 1-1.517-1.164l-4.9-24.942a6.15 6.15 0 0 1 7.247-7.296 6.15 6.15 0 0 1 4.815 4.92l4.899 24.952a1.435 1.435 0 1 1-2.794.549l-4.9-24.941a3.27 3.27 0 1 0-6.417 1.257l4.9 24.951a1.42 1.42 0 0 1-.615 1.476 1.4 1.4 0 0 1-.522.21z"/>
  <path fill="#fff" d="M119.993 108.763a4.366 4.366 0 0 0-5.84-.53 4.305 4.305 0 0 0-.4-5.784 4.393 4.393 0 0 0-5.849-.54 4.285 4.285 0 0 0-.391-5.775 4.35 4.35 0 0 0-6.092-.326l15.331-15.078a4.425 4.425 0 0 0-6.194-6.305L68.647 115.71l24.085 26.172 27.41-27.075a4.29 4.29 0 0 0 1.177-3.053 4.3 4.3 0 0 0-.365-1.628 4.3 4.3 0 0 0-.961-1.364"/>
  <path fill="#000" d="M93.012 143.392h-.308a1.5 1.5 0 0 1-1.09-.493L67.53 116.728a1.54 1.54 0 0 1 .047-2.133l41.911-41.287a5.66 5.66 0 0 1 2.953-1.463 6.03 6.03 0 0 1 5.411 1.602 6.154 6.154 0 0 1 0 8.382l-11.819 11.624a6.4 6.4 0 0 1 2.599 1.602 6.083 6.083 0 0 1 1.778 4.443 6.2 6.2 0 0 1 4.461 1.862 6.1 6.1 0 0 1 1.78 4.443 6.19 6.19 0 0 1 4.461 1.862 6.07 6.07 0 0 1 1.769 4.108 5.48 5.48 0 0 1-1.63 4.098l-27.428 27.121a1.5 1.5 0 0 1-.81.4m-22.223-27.624 22.009 23.908 26.273-25.966a2.4 2.4 0 0 0 .717-1.863 3.02 3.02 0 0 0-.885-2.039 3.11 3.11 0 0 0-2.7-.932 2.34 2.34 0 0 0-1.081.494 1.54 1.54 0 0 1-2.05-.128 1.54 1.54 0 0 1-.092-2.052 2.794 2.794 0 0 0-.317-3.725 3.1 3.1 0 0 0-2.701-.931 2.35 2.35 0 0 0-1.08.493 1.536 1.536 0 0 1-2.142-2.179 2.79 2.79 0 0 0-.317-3.726 3.08 3.08 0 0 0-2.71-.93 2.3 2.3 0 0 0-1.211.614 1.54 1.54 0 0 1-1.106.5 1.54 1.54 0 0 1-1.124-.46 1.53 1.53 0 0 1-.294-1.734c.09-.188.216-.357.373-.495l15.33-15.079c.478-.545.733-1.25.717-1.974a2.85 2.85 0 0 0-.745-2.04 3.08 3.08 0 0 0-2.683-.736c-.497.082-.962.301-1.341.634z"/>
  <path fill="#1D4ED8" d="m71.534 111.93-.177.177-.493.475-.764.754c-.317.307-.643.643-1.015 1.015l-1.23 1.258-1.415 1.471c-1.016 1.053-2.096 2.254-3.297 3.558a250 250 0 0 0-16.234 19.94c-2.794 3.726-5.41 7.61-7.795 11.288-1.23 1.863-2.32 3.651-3.38 5.365l-1.584 2.524-1.37 2.384-2.356 4.135c-.69 1.267-1.266 2.385-1.75 3.288-.932 1.863-1.519 2.878-1.519 2.878l34.172 17.5 1.257-2.365c.4-.755.875-1.677 1.444-2.72l1.993-3.483c.372-.634.745-1.304 1.145-1.984l1.295-2.096c.931-1.434 1.788-2.971 2.794-4.498a201 201 0 0 1 6.594-9.537 212 212 0 0 1 13.682-16.821c.996-1.071 1.862-2.076 2.71-2.915l1.127-1.182.931-.932c.289-.298.55-.559.764-.764l.559-.549.335-.326.103-.102z"/>
  <path fill="#1D4ED8" d="M60.657 191.879a2.056 2.056 0 0 1-1.136-2.915l1.257-2.366.465-.885c.29-.549.615-1.182.988-1.862v-.047l2.002-3.474c.13-.233.27-.465.4-.708.243-.419.495-.857.755-1.294l1.295-2.086.763-1.248c.662-1.072 1.341-2.18 2.105-3.307a205 205 0 0 1 6.65-9.621 214 214 0 0 1 13.822-16.988l.875-.931c.662-.717 1.286-1.388 1.863-1.993l1.127-1.183.931-.931.345-.345-23.76-24.756-.93.932-1.23 1.248-1.397 1.462c-.754.782-1.546 1.649-2.394 2.561-.28.317-.577.643-.884.932a252 252 0 0 0-16.085 19.754 259 259 0 0 0-7.73 11.176c-.876 1.313-1.695 2.645-2.487 3.93l-.848 1.37-1.518 2.468c-.316.531-.614 1.052-.931 1.564-.158.261-.307.531-.456.792l-2.375 4.154c-.457.829-.867 1.602-1.22 2.282l-.513.931-1.508 2.859a2.05 2.05 0 0 1-2.733.793 2.05 2.05 0 0 1-.89-2.702l1.518-2.869.503-.931 1.257-2.356 2.394-4.173.456-.791.931-1.612 1.537-2.505.838-1.35a118 118 0 0 1 2.57-4.061 246 246 0 0 1 7.861-11.372 255 255 0 0 1 16.365-20.108l.93-.932c.858-.931 1.677-1.862 2.45-2.626l1.406-1.471 1.23-1.249c.382-.391.717-.735 1.043-1.052l1.453-1.416a2.04 2.04 0 0 1 2.887.056l26.6 27.699c.375.393.579.919.568 1.462a2.1 2.1 0 0 1-.633 1.434l-.112.103-.298.289-.559.549-.736.745-.931.932-1.118 1.182c-.55.569-1.155 1.22-1.788 1.919l-.885.931a209 209 0 0 0-13.532 16.634 193 193 0 0 0-6.52 9.454 77 77 0 0 0-2.012 3.157c-.26.438-.521.857-.782 1.276l-1.276 2.058a34 34 0 0 0-.708 1.239l-.419.717-1.946 3.428c-.354.642-.67 1.248-.932 1.778l-.475.932-1.248 2.365a2.05 2.05 0 0 1-2.505.969"/>
  <path fill="#000" d="M45.596 178.383h-.083a.93.93 0 0 1-.438-1.202 110 110 0 0 1 7.45-12.703 251.6 251.6 0 0 1 26.079-32.495.926.926 0 0 1 1.08-.417.92.92 0 0 1 .59.548.93.93 0 0 1-.338 1.107 250 250 0 0 0-25.855 32.263 110 110 0 0 0-7.358 12.461.93.93 0 0 1-1.127.438"/>
  <path fill="#000" d="M42.02 159.422a.93.93 0 0 1-.606-.773.933.933 0 0 1 .82-.988c5.002-.447 11.018.596 17.882 3.092a70 70 0 0 1 8.82 3.884.934.934 0 0 1 .671.946.94.94 0 0 1-.388.707.93.93 0 0 1-1.158-.06c-.14-.075-14.353-7.759-25.669-6.762a.7.7 0 0 1-.372-.046M70.1 163.21a.88.88 0 0 1-.419-.298c-.084-.112-9.145-11.567-20.396-14.687a.93.93 0 0 1-.457-1.069.93.93 0 0 1 .941-.682c11.847 3.287 20.965 14.836 21.347 15.321a.93.93 0 0 1-1.015 1.415M39.076 116.289a5.54 5.54 0 0 0-5.12 3.423 5.543 5.543 0 1 0 5.12-3.423m0 8.774a3.244 3.244 0 0 1-3.178-3.874 3.24 3.24 0 0 1 2.546-2.547 3.243 3.243 0 0 1 3.873 3.179 3.24 3.24 0 0 1-3.24 3.242M130.04 38.203h2.48l4.313 10.53h.159l4.312-10.53h2.481V51.75h-1.945v-9.803h-.125l-3.996 9.783h-1.614l-3.995-9.79h-.126v9.81h-1.944zM127.063 38.203V51.75h-2.044V38.203zM120.42 41.762q-.106-.94-.873-1.456-.767-.522-1.932-.522-.833 0-1.442.264-.608.258-.945.715-.331.45-.331 1.025 0 .483.225.834.231.35.602.588.376.232.807.39.43.153.826.252l1.323.344q.65.159 1.33.43.681.27 1.263.714t.94 1.098q.364.656.364 1.568 0 1.151-.596 2.044-.588.893-1.713 1.409-1.118.516-2.705.516-1.522 0-2.633-.483-1.112-.483-1.74-1.37-.628-.892-.694-2.116h2.05q.06.734.476 1.224.424.483 1.079.72.662.232 1.448.232.867 0 1.542-.271.681-.278 1.071-.767.39-.497.39-1.158 0-.602-.344-.986-.337-.383-.919-.635a9 9 0 0 0-1.303-.443l-1.601-.436q-1.627-.444-2.58-1.303-.946-.86-.946-2.276 0-1.17.635-2.044.636-.873 1.72-1.356 1.085-.49 2.448-.49 1.375 0 2.427.483 1.06.483 1.667 1.33.61.84.635 1.931z"/>
  <path fill="#1D4ED8" d="M85.39 44.976q0 2.17-.794 3.731-.795 1.554-2.176 2.395-1.376.833-3.129.833-1.76 0-3.142-.833-1.375-.84-2.17-2.402-.793-1.56-.793-3.724 0-2.169.793-3.724.795-1.56 2.17-2.394 1.383-.84 3.142-.84 1.754 0 3.129.84 1.382.833 2.176 2.394.794 1.554.794 3.724m-2.024 0q0-1.653-.536-2.785-.53-1.137-1.455-1.72-.92-.588-2.084-.588-1.17 0-2.09.589-.92.582-1.455 1.72-.53 1.131-.53 2.784 0 1.654.53 2.792.535 1.13 1.455 1.72.92.582 2.09.582 1.163 0 2.084-.582.926-.59 1.455-1.72.536-1.139.536-2.792M62.36 51.75h-2.17l4.876-13.548h2.361l4.876 13.547h-2.17l-3.83-11.086h-.106zm.364-5.306h7.039v1.72h-7.039zm1.535-9.585-1.336-.046q0-1.091.595-1.746a1.92 1.92 0 0 1 1.462-.662q.41 0 .714.14.305.131.57.31.264.18.535.318.27.132.602.132a.79.79 0 0 0 .615-.291q.245-.29.245-.721l1.31.086q-.007 1.104-.602 1.74a1.91 1.91 0 0 1-1.456.628q-.47 0-.78-.132a3 3 0 0 1-.55-.311 3.6 3.6 0 0 0-.489-.311 1.2 1.2 0 0 0-.602-.139.75.75 0 0 0-.602.285q-.231.285-.231.72M58.235 38.203V51.75h-1.88l-6.885-9.935h-.126v9.935H47.3V38.203h1.892l6.893 9.949h.125v-9.949z"/>
</svg>
