<svg viewBox="0 0 20 20" fill="none" xmlns="http://www.w3.org/2000/svg">
<path fill-rule="evenodd" clip-rule="evenodd" d="M10.9423 4.52386C10.5239 3.79871 9.47733 3.79871 9.05898 4.52386L3.72899 13.7625C3.31087 14.4873 3.83393 15.3929 4.67063 15.3929H15.3306C16.1673 15.3929 16.6904 14.4873 16.2722 13.7625L10.9423 4.52386ZM8.11733 3.9806C8.95404 2.53031 11.0472 2.53031 11.8839 3.9806L17.2139 13.2193C18.0501 14.6687 17.004 16.48 15.3306 16.48H4.67063C2.99722 16.48 1.95111 14.6687 2.78735 13.2193L8.11733 3.9806ZM10.0006 7.78309C10.3008 7.78309 10.5442 8.02644 10.5442 8.32664V11.0444C10.5442 11.3446 10.3008 11.588 10.0006 11.588C9.70042 11.588 9.45706 11.3446 9.45706 11.0444V8.32664C9.45706 8.02644 9.70042 7.78309 10.0006 7.78309ZM9.45706 13.2187C9.45706 12.9185 9.70042 12.6751 10.0006 12.6751H10.0061C10.3063 12.6751 10.5496 12.9185 10.5496 13.2187V13.2241C10.5496 13.5243 10.3063 13.7676 10.0061 13.7676H10.0006C9.70042 13.7676 9.45706 13.5243 9.45706 13.2241V13.2187Z" fill="currentColor" />
</svg>
