<svg viewBox="0 0 24 24" fill="none" xmlns="http://www.w3.org/2000/svg">
<path fill-rule="evenodd" clip-rule="evenodd" d="M12.3 4.25C12.499 4.25 12.6897 4.32902 12.8304 4.46967L19.1304 10.7697C19.4233 11.0626 19.4233 11.5374 19.1304 11.8303C18.8375 12.1232 18.3626 12.1232 18.0697 11.8303L13.05 6.81066L13.05 19C13.05 19.4142 12.7143 19.75 12.3 19.75C11.8858 19.75 11.55 19.4142 11.55 19L11.55 6.81066L6.53039 11.8303C6.2375 12.1232 5.76262 12.1232 5.46973 11.8303C5.17684 11.5374 5.17684 11.0626 5.46973 10.7697L11.7697 4.46967C11.9104 4.32902 12.1011 4.25 12.3 4.25Z" fill="currentColor"/>
</svg>
