<svg viewBox="0 0 24 24" fill="none" xmlns="http://www.w3.org/2000/svg">
<path fill-rule="evenodd" clip-rule="evenodd" d="M10.197 4.46967C10.4899 4.76256 10.4899 5.23744 10.197 5.53033L6.81066 8.91667H14.3333C17.3249 8.91667 19.75 11.3418 19.75 14.3333C19.75 17.3249 17.3249 19.75 14.3333 19.75H12C11.5858 19.75 11.25 19.4142 11.25 19C11.25 18.5858 11.5858 18.25 12 18.25H14.3333C16.4964 18.25 18.25 16.4964 18.25 14.3333C18.25 12.1702 16.4964 10.4167 14.3333 10.4167H6.81066L10.197 13.803C10.4899 14.0959 10.4899 14.5708 10.197 14.8637C9.9041 15.1566 9.42923 15.1566 9.13634 14.8637L4.46967 10.197C4.17678 9.9041 4.17678 9.42923 4.46967 9.13634L9.13634 4.46967C9.42923 4.17678 9.9041 4.17678 10.197 4.46967Z" fill="currentColor"/>
</svg>
