<svg viewBox="0 0 24 24" fill="none" xmlns="http://www.w3.org/2000/svg">
<path fill-rule="evenodd" clip-rule="evenodd" d="M7.61544 6.75C7.13751 6.75 6.75006 7.13744 6.75006 7.61538L6.75006 17.3077C6.75006 17.7856 7.13751 18.1731 7.61544 18.1731H11.9231C12.401 18.1731 12.7885 17.7856 12.7885 17.3077V14.6154C12.7885 14.2012 13.1243 13.8654 13.5385 13.8654C13.9527 13.8654 14.2885 14.2012 14.2885 14.6154V17.3077C14.2885 18.6141 13.2295 19.6731 11.9231 19.6731H7.61544C6.30907 19.6731 5.25006 18.6141 5.25006 17.3077L5.25006 7.61538C5.25006 6.30902 6.30907 5.25 7.61544 5.25L11.9231 5.25C13.2295 5.25 14.2885 6.30902 14.2885 7.61538V10.3077C14.2885 10.7219 13.9527 11.0577 13.5385 11.0577C13.1243 11.0577 12.7885 10.7219 12.7885 10.3077V7.61538C12.7885 7.13744 12.401 6.75 11.9231 6.75L7.61544 6.75ZM15.162 9.77736C15.4549 9.48447 15.9298 9.48447 16.2227 9.77736L18.3765 11.9312C18.6694 12.2241 18.6694 12.699 18.3765 12.9919L16.2227 15.1457C15.9298 15.4386 15.4549 15.4386 15.162 15.1457C14.8691 14.8528 14.8691 14.3779 15.162 14.0851L16.0355 13.2115L8.69236 13.2115C8.27814 13.2115 7.94236 12.8758 7.94236 12.4615C7.94236 12.0473 8.27814 11.7115 8.69236 11.7115L16.0355 11.7115L15.162 10.838C14.8691 10.5451 14.8691 10.0703 15.162 9.77736Z" fill="currentColor"/>
</svg>
