<svg viewBox="0 0 24 24" fill="none" xmlns="http://www.w3.org/2000/svg">
<path fill-rule="evenodd" clip-rule="evenodd" d="M7.18582 4.44116C7.49446 4.7174 7.52073 5.19155 7.24448 5.50019C6.47361 6.36147 5.93893 7.43634 5.73966 8.6241C5.67112 9.0326 5.28441 9.3082 4.8759 9.23967C4.4674 9.17114 4.1918 8.78442 4.26033 8.37592C4.50794 6.9 5.1723 5.56625 6.12678 4.49982C6.40302 4.19118 6.87717 4.16491 7.18582 4.44116ZM16.6206 4.44116C16.9293 4.16491 17.4034 4.19118 17.6797 4.49982C18.6341 5.56625 19.2985 6.9 19.5461 8.37592C19.6146 8.78442 19.339 9.17114 18.9305 9.23967C18.522 9.3082 18.1353 9.0326 18.0668 8.6241C17.8675 7.43634 17.3328 6.36147 16.562 5.50019C16.2857 5.19155 16.312 4.7174 16.6206 4.44116ZM11.9032 5.75001C9.7401 5.75001 7.98655 7.50356 7.98655 9.66667L7.98639 10.25C7.98639 10.2499 7.98639 10.2501 7.98639 10.25C7.98635 11.8444 7.5042 13.3276 6.67838 14.5598C7.6746 14.863 8.70773 15.0818 9.76954 15.2077C10.4689 15.2906 11.1808 15.3333 11.9031 15.3333C12.6254 15.3333 13.3375 15.2906 14.0369 15.2077C15.0986 15.0817 16.1316 14.863 17.1278 14.5598C16.3019 13.3275 15.8197 11.8445 15.8197 10.25V9.6989L15.8199 9.66667C15.8199 7.50356 14.0663 5.75001 11.9032 5.75001ZM6.48655 9.66648C6.48665 6.67502 8.91174 4.25001 11.9032 4.25001C14.8948 4.25001 17.3199 6.67513 17.3199 9.66667L17.3197 9.70493V10.25C17.3197 11.8586 17.9264 13.3236 18.9247 14.4317C19.0912 14.6165 19.1552 14.8719 19.0956 15.1134C19.036 15.3549 18.8605 15.5511 18.6272 15.6373C17.4617 16.0675 16.2437 16.3891 14.9856 16.5899C14.9862 16.6154 14.9866 16.641 14.9866 16.6667C14.9866 18.3696 13.6061 19.75 11.9032 19.75C10.2003 19.75 8.81988 18.3696 8.81988 16.6667C8.81988 16.641 8.8202 16.6155 8.82082 16.5899C7.56263 16.3892 6.34454 16.0676 5.17896 15.6373C4.94559 15.5511 4.77013 15.3549 4.71053 15.1134C4.65094 14.8719 4.71497 14.6165 4.88147 14.4317C5.87971 13.3236 6.48639 11.8586 6.48639 10.25L6.48655 9.66648C6.48655 9.66654 6.48655 9.66641 6.48655 9.66648ZM10.3232 16.77C10.3764 17.5963 11.0635 18.25 11.9032 18.25C12.743 18.25 13.43 17.5963 13.4832 16.7699C12.9619 16.8119 12.4349 16.8333 11.9031 16.8333C11.3713 16.8333 10.8444 16.8119 10.3232 16.77Z" fill="currentColor"/>
</svg>
