<svg viewBox="0 0 24 24" fill="none" xmlns="http://www.w3.org/2000/svg">
<path fill-rule="evenodd" clip-rule="evenodd" d="M3.75 4.5C3.75 4.08579 4.08579 3.75 4.5 3.75H14.5C14.9142 3.75 15.25 4.08579 15.25 4.5C15.25 4.87162 14.9797 5.18012 14.625 5.23963V7.5H19.5C19.9142 7.5 20.25 7.83579 20.25 8.25C20.25 8.62162 19.9797 8.93012 19.625 8.98963V18.75H20.125C20.5392 18.75 20.875 19.0858 20.875 19.5C20.875 19.9142 20.5392 20.25 20.125 20.25H3.875C3.46079 20.25 3.125 19.9142 3.125 19.5C3.125 19.0858 3.46079 18.75 3.875 18.75H4.375V5.23963C4.02029 5.18012 3.75 4.87162 3.75 4.5ZM5.875 5.25V18.75H6.875V16.6875C6.875 15.7555 7.63052 15 8.5625 15H10.4375C11.3695 15 12.125 15.7555 12.125 16.6875V18.75H13.125V5.25H5.875ZM14.625 9V18.75H18.125V9H14.625ZM10.625 18.75V16.6875C10.625 16.5839 10.5411 16.5 10.4375 16.5H8.5625C8.45895 16.5 8.375 16.5839 8.375 16.6875V18.75H10.625ZM6.875 7.625C6.875 7.21079 7.21079 6.875 7.625 6.875H8.25C8.66421 6.875 9 7.21079 9 7.625C9 8.03921 8.66421 8.375 8.25 8.375H7.625C7.21079 8.375 6.875 8.03921 6.875 7.625ZM10 7.625C10 7.21079 10.3358 6.875 10.75 6.875H11.375C11.7892 6.875 12.125 7.21079 12.125 7.625C12.125 8.03921 11.7892 8.375 11.375 8.375H10.75C10.3358 8.375 10 8.03921 10 7.625ZM6.875 10.125C6.875 9.71079 7.21079 9.375 7.625 9.375H8.25C8.66421 9.375 9 9.71079 9 10.125C9 10.5392 8.66421 10.875 8.25 10.875H7.625C7.21079 10.875 6.875 10.5392 6.875 10.125ZM10 10.125C10 9.71079 10.3358 9.375 10.75 9.375H11.375C11.7892 9.375 12.125 9.71079 12.125 10.125C12.125 10.5392 11.7892 10.875 11.375 10.875H10.75C10.3358 10.875 10 10.5392 10 10.125ZM15.625 11.375C15.625 10.9608 15.9608 10.625 16.375 10.625H16.3813C16.7955 10.625 17.1313 10.9608 17.1313 11.375V11.3813C17.1313 11.7955 16.7955 12.1313 16.3813 12.1313H16.375C15.9608 12.1313 15.625 11.7955 15.625 11.3813V11.375ZM6.875 12.625C6.875 12.2108 7.21079 11.875 7.625 11.875H8.25C8.66421 11.875 9 12.2108 9 12.625C9 13.0392 8.66421 13.375 8.25 13.375H7.625C7.21079 13.375 6.875 13.0392 6.875 12.625ZM10 12.625C10 12.2108 10.3358 11.875 10.75 11.875H11.375C11.7892 11.875 12.125 12.2108 12.125 12.625C12.125 13.0392 11.7892 13.375 11.375 13.375H10.75C10.3358 13.375 10 13.0392 10 12.625ZM15.625 13.875C15.625 13.4608 15.9608 13.125 16.375 13.125H16.3813C16.7955 13.125 17.1313 13.4608 17.1313 13.875V13.8813C17.1313 14.2955 16.7955 14.6313 16.3813 14.6313H16.375C15.9608 14.6313 15.625 14.2955 15.625 13.8813V13.875ZM15.625 16.375C15.625 15.9608 15.9608 15.625 16.375 15.625H16.3813C16.7955 15.625 17.1313 15.9608 17.1313 16.375V16.3813C17.1313 16.7955 16.7955 17.1313 16.3813 17.1313H16.375C15.9608 17.1313 15.625 16.7955 15.625 16.3813V16.375Z" fill="currentColor"/>
</svg>
