<svg viewBox="0 0 24 24" fill="none" xmlns="http://www.w3.org/2000/svg">
<path fill-rule="evenodd" clip-rule="evenodd" d="M10.0134 4.31039C10.7615 4.27022 11.5148 4.24988 12.2728 4.24988C13.0308 4.24988 13.7842 4.27022 14.5323 4.31039C15.3917 4.35654 16.1562 4.82988 16.6017 5.5437L17.2985 6.66032C17.4828 6.95579 17.7972 7.15847 18.16 7.21002C18.4879 7.25662 18.8145 7.30705 19.1399 7.36127C20.4123 7.57329 21.2956 8.68702 21.2956 9.94148V17.0908C21.2956 18.5594 20.1051 19.7499 18.6365 19.7499H5.90917C4.44059 19.7499 3.25006 18.5594 3.25006 17.0908V9.94147C3.25006 8.68702 4.13342 7.57328 5.40576 7.36127C5.73115 7.30704 6.05782 7.25661 6.38571 7.21001C6.74848 7.15846 7.06285 6.95578 7.24723 6.66032L7.94402 5.5437C8.38946 4.82988 9.15395 4.35654 10.0134 4.31039ZM12.2728 5.74988C11.5417 5.74988 10.8152 5.7695 10.0938 5.80823C9.74181 5.82714 9.41341 6.02238 9.21657 6.33781L8.51978 7.45442C8.09142 8.14088 7.3799 8.5838 6.59675 8.69509C6.28073 8.74 5.9659 8.78861 5.65231 8.84086C5.13794 8.92658 4.75006 9.38459 4.75006 9.94147V17.0908C4.75006 17.7309 5.26901 18.2499 5.90917 18.2499H18.6365C19.2767 18.2499 19.7956 17.7309 19.7956 17.0908V9.94148C19.7956 9.3846 19.4078 8.92658 18.8934 8.84087C18.5798 8.78862 18.265 8.74001 17.9489 8.6951C17.1658 8.58381 16.4543 8.14089 16.0259 7.45442L15.3291 6.33781C15.1323 6.02238 14.8039 5.82714 14.4519 5.80823C13.7305 5.7695 13.004 5.74988 12.2728 5.74988ZM12.2728 9.56806C10.5783 9.56806 9.20464 10.9417 9.20464 12.6362C9.20464 14.3307 10.5783 15.7044 12.2728 15.7044C13.9674 15.7044 15.3411 14.3307 15.3411 12.6362C15.3411 10.9417 13.9674 9.56806 12.2728 9.56806ZM7.70464 12.6362C7.70464 10.1133 9.7499 8.06806 12.2728 8.06806C14.7958 8.06806 16.8411 10.1133 16.8411 12.6362C16.8411 15.1592 14.7958 17.2044 12.2728 17.2044C9.7499 17.2044 7.70464 15.1592 7.70464 12.6362ZM17.2502 10.7272C17.2502 10.3129 17.5859 9.97715 18.0002 9.97715H18.0065C18.4207 9.97715 18.7565 10.3129 18.7565 10.7272V10.7335C18.7565 11.1477 18.4207 11.4835 18.0065 11.4835H18.0002C17.5859 11.4835 17.2502 11.1477 17.2502 10.7335V10.7272Z" fill="currentColor"/>
</svg>
