<svg viewBox="0 0 24 24" fill="none" xmlns="http://www.w3.org/2000/svg">
<path fill-rule="evenodd" clip-rule="evenodd" d="M12 4.75C7.64372 4.75 4.25 7.91239 4.25 11.6522C4.25 13.4575 5.02931 15.1126 6.32916 16.3552C6.74595 16.7536 7.14319 17.4103 6.98716 18.1828C6.91254 18.5523 6.79608 18.9065 6.64299 19.2406C7.57852 19.1838 8.44108 18.8712 9.16117 18.3743C9.34177 18.2497 9.56788 18.2104 9.77992 18.2669C10.4821 18.4537 11.2271 18.5543 12 18.5543C16.3563 18.5543 19.75 15.392 19.75 11.6522C19.75 7.91239 16.3563 4.75 12 4.75ZM5.70421 20.72C5.53388 20.7037 5.36503 20.6808 5.1984 20.6515C4.93262 20.6047 4.71243 20.4188 4.6218 20.1647C4.53118 19.9105 4.5841 19.6272 4.76037 19.4229C5.13572 18.9878 5.40048 18.462 5.51685 17.8859C5.53205 17.8106 5.50649 17.6439 5.29264 17.4394C3.72679 15.9426 2.75 13.9068 2.75 11.6522C2.75 6.9396 6.96744 3.25 12 3.25C17.0326 3.25 21.25 6.9396 21.25 11.6522C21.25 16.3648 17.0326 20.0543 12 20.0543C11.2152 20.0543 10.4522 19.9655 9.72285 19.7979C8.73832 20.4017 7.57584 20.75 6.33333 20.75C6.12131 20.75 5.91126 20.7398 5.70421 20.72ZM7.35417 11.6522C7.35417 11.0331 7.86135 10.5543 8.45833 10.5543C9.05532 10.5543 9.5625 11.0331 9.5625 11.6522C9.5625 12.2712 9.05532 12.75 8.45833 12.75C7.86135 12.75 7.35417 12.2712 7.35417 11.6522ZM10.8958 11.6522C10.8958 11.0331 11.403 10.5543 12 10.5543C12.597 10.5543 13.1042 11.0331 13.1042 11.6522C13.1042 12.2712 12.597 12.75 12 12.75C11.403 12.75 10.8958 12.2712 10.8958 11.6522ZM14.4375 11.6522C14.4375 11.0331 14.9447 10.5543 15.5417 10.5543C16.1386 10.5543 16.6458 11.0331 16.6458 11.6522C16.6458 12.2712 16.1386 12.75 15.5417 12.75C14.9447 12.75 14.4375 12.2712 14.4375 11.6522Z" fill="currentColor"/>
</svg>
