<svg viewBox="0 0 24 24" fill="none" xmlns="http://www.w3.org/2000/svg">
<path fill-rule="evenodd" clip-rule="evenodd" d="M12 4.75C7.99594 4.75 4.75 7.99594 4.75 12C4.75 16.0041 7.99594 19.25 12 19.25C16.0041 19.25 19.25 16.0041 19.25 12C19.25 7.99594 16.0041 4.75 12 4.75ZM3.25 12C3.25 7.16751 7.16751 3.25 12 3.25C16.8325 3.25 20.75 7.16751 20.75 12C20.75 16.8325 16.8325 20.75 12 20.75C7.16751 20.75 3.25 16.8325 3.25 12Z" fill="currentColor"/>
<path fill-rule="evenodd" clip-rule="evenodd" d="M7.67751 11.8868C7.97041 11.5939 8.44528 11.5939 8.73817 11.8868L11.2115 14.3601L16.0877 9.48391C16.3806 9.19101 16.8555 9.19101 17.1484 9.48391C17.4413 9.7768 17.4413 10.2517 17.1484 10.5446L11.7418 15.9511C11.4489 16.244 10.9741 16.244 10.6812 15.9511L7.67751 12.9475C7.38462 12.6546 7.38462 12.1797 7.67751 11.8868Z" fill="currentColor"/>
</svg>
