<svg viewBox="0 0 24 24" fill="none" xmlns="http://www.w3.org/2000/svg">
<path d="M16.5303 13.4697L12.5303 9.46967C12.2374 9.17678 11.7626 9.17678 11.4697 9.46967L7.46967 13.4697C7.17678 13.7626 7.17678 14.2374 7.46967 14.5303C7.76256 14.8232 8.23744 14.8232 8.53033 14.5303L12 11.0607L15.4697 14.5303C15.7626 14.8232 16.2374 14.8232 16.5303 14.5303C16.8232 14.2374 16.8232 13.7626 16.5303 13.4697Z" fill="currentColor"/>
<path fill-rule="evenodd" clip-rule="evenodd" d="M12 3.25C7.16751 3.25 3.25 7.16751 3.25 12C3.25 16.8325 7.16751 20.75 12 20.75C16.8325 20.75 20.75 16.8325 20.75 12C20.75 7.16751 16.8325 3.25 12 3.25ZM4.75 12C4.75 7.99594 7.99594 4.75 12 4.75C16.0041 4.75 19.25 7.99594 19.25 12C19.25 16.0041 16.0041 19.25 12 19.25C7.99594 19.25 4.75 16.0041 4.75 12Z" fill="currentColor"/>
</svg>
