<svg viewBox="0 0 24 24" fill="none" xmlns="http://www.w3.org/2000/svg">
<path fill-rule="evenodd" clip-rule="evenodd" d="M3 3.5C3 3.22386 3.22386 3 3.5 3H18.5C18.7761 3 19 3.22386 19 3.5V7.5C19 7.77614 18.7761 8 18.5 8H3.5C3.22386 8 3 7.77614 3 7.5V3.5ZM4.5 6.5V4.5H17.5V6.5H4.5Z" fill="currentColor"/>
<path d="M15.75 13C15.75 12.5858 15.4142 12.25 15 12.25C14.5858 12.25 14.25 12.5858 14.25 13V15.6307L16.5119 17.5694C16.8264 17.839 17.2999 17.8026 17.5694 17.4881C17.839 17.1736 17.8026 16.7001 17.4881 16.4306L15.75 14.9408V13Z" fill="currentColor"/>
<path fill-rule="evenodd" clip-rule="evenodd" d="M4.25 17.5V9H5.75V16.75H9.25922C9.09066 16.1964 9 15.6088 9 15C9 13.5811 9.49254 12.2772 10.316 11.25H8.5V9.75H12.093C12.9542 9.27213 13.9453 9 15 9C18.3137 9 21 11.6863 21 15C21 18.3137 18.3137 21 15 21C12.884 21 11.0238 19.9046 9.95558 18.25H5C4.58579 18.25 4.25 17.9142 4.25 17.5ZM19.5 15C19.5 17.4853 17.4853 19.5 15 19.5C12.5147 19.5 10.5 17.4853 10.5 15C10.5 12.5147 12.5147 10.5 15 10.5C17.4853 10.5 19.5 12.5147 19.5 15Z" fill="currentColor"/>
</svg>
