<svg viewBox="0 0 24 24" fill="none" xmlns="http://www.w3.org/2000/svg">
<path fill-rule="evenodd" clip-rule="evenodd" d="M9.75 7.75C9.75 6.50736 10.7574 5.5 12 5.5C13.2426 5.5 14.25 6.50736 14.25 7.75C14.25 8.99264 13.2426 10 12 10C10.7574 10 9.75 8.99264 9.75 7.75ZM12 4C9.92893 4 8.25 5.67893 8.25 7.75C8.25 9.82107 9.92893 11.5 12 11.5C14.0711 11.5 15.75 9.82107 15.75 7.75C15.75 5.67893 14.0711 4 12 4ZM20.5 9.75C20.5 10.5784 19.8284 11.25 19 11.25C18.1716 11.25 17.5 10.5784 17.5 9.75C17.5 8.92157 18.1716 8.25 19 8.25C19.8284 8.25 20.5 8.92157 20.5 9.75ZM22 9.75C22 11.4069 20.6569 12.75 19 12.75C17.3431 12.75 16 11.4069 16 9.75C16 8.09315 17.3431 6.75 19 6.75C20.6569 6.75 22 8.09315 22 9.75ZM5 11.25C5.82843 11.25 6.5 10.5784 6.5 9.75C6.5 8.92157 5.82843 8.25 5 8.25C4.17157 8.25 3.5 8.92157 3.5 9.75C3.5 10.5784 4.17157 11.25 5 11.25ZM5 12.75C6.65685 12.75 8 11.4069 8 9.75C8 8.09315 6.65685 6.75 5 6.75C3.34315 6.75 2 8.09315 2 9.75C2 11.4069 3.34315 12.75 5 12.75ZM4.37554 15.9344C4.73409 15.727 4.85661 15.2682 4.6492 14.9096C4.4418 14.5511 3.983 14.4285 3.62446 14.636C2.20663 15.4561 1.25 16.9909 1.25 18.75V19.75C1.25 20.1642 1.58579 20.5 2 20.5C2.41421 20.5 2.75 20.1642 2.75 19.75V18.75C2.75 17.548 3.40216 16.4974 4.37554 15.9344ZM19.3508 14.9096C19.1434 15.2682 19.2659 15.727 19.6245 15.9344C20.5978 16.4974 21.25 17.548 21.25 18.75V19.75C21.25 20.1642 21.5858 20.5 22 20.5C22.4142 20.5 22.75 20.1642 22.75 19.75V18.75C22.75 16.9909 21.7934 15.4561 20.3755 14.636C20.017 14.4285 19.5582 14.5511 19.3508 14.9096ZM10 13C7.37665 13 5.25 15.1266 5.25 17.75V19.75C5.25 20.1642 5.58579 20.5 6 20.5C6.41421 20.5 6.75 20.1642 6.75 19.75V17.75C6.75 15.9551 8.20507 14.5 10 14.5H14C15.7949 14.5 17.25 15.9551 17.25 17.75V19.75C17.25 20.1642 17.5858 20.5 18 20.5C18.4142 20.5 18.75 20.1642 18.75 19.75V17.75C18.75 15.1266 16.6234 13 14 13H10Z" fill="currentColor"/>
</svg>
