<svg viewBox="0 0 24 24" fill="none" xmlns="http://www.w3.org/2000/svg">
<path fill-rule="evenodd" clip-rule="evenodd" d="M11.7692 5.75C10.3428 5.75 8.93592 5.83253 7.55312 5.99301C7.10331 6.04521 6.75 6.43793 6.75 6.92845V18.8922L8.60604 18.1498C8.78485 18.0783 8.98432 18.0783 9.16313 18.1498L11.7692 19.1922L14.3752 18.1498C14.554 18.0783 14.7535 18.0783 14.9323 18.1498L16.7883 18.8922V6.92845C16.7883 6.43793 16.435 6.04521 15.9852 5.99301C14.6024 5.83253 13.1956 5.75 11.7692 5.75ZM7.3802 4.50301C8.82027 4.33588 10.2848 4.25 11.7692 4.25C13.2535 4.25 14.7181 4.33588 16.1581 4.50301C17.4015 4.64731 18.2883 5.71438 18.2883 6.92845V20C18.2883 20.2489 18.1649 20.4815 17.9588 20.6211C17.7527 20.7606 17.4909 20.7888 17.2598 20.6964L14.6538 19.6539L12.0477 20.6964C11.8689 20.7679 11.6694 20.7679 11.4906 20.6964L8.88459 19.6539L6.27855 20.6964C6.04748 20.7888 5.78561 20.7606 5.57953 20.6211C5.37345 20.4815 5.25 20.2489 5.25 20V6.92845C5.25 5.71438 6.1368 4.64731 7.3802 4.50301ZM14.6072 9.08505C14.9001 9.37794 14.9001 9.85282 14.6072 10.1457L9.99184 14.7611C9.69894 15.054 9.22407 15.054 8.93117 14.7611C8.63828 14.4682 8.63828 13.9933 8.93117 13.7004L13.5465 9.08506C13.8394 8.79216 14.3143 8.79216 14.6072 9.08505ZM8.99996 10.1923C8.99996 9.61879 9.46489 9.15385 10.0384 9.15385C10.612 9.15385 11.0769 9.61879 11.0769 10.1923C11.0769 10.7658 10.612 11.2308 10.0384 11.2308C9.46489 11.2308 8.99996 10.7658 8.99996 10.1923ZM12.4615 13.6538C12.4615 13.0803 12.9264 12.6154 13.4999 12.6154C14.0735 12.6154 14.5384 13.0803 14.5384 13.6538C14.5384 14.2274 14.0735 14.6923 13.4999 14.6923C12.9264 14.6923 12.4615 14.2274 12.4615 13.6538Z" fill="currentColor"/>
</svg>
