<svg width="37" height="37" viewBox="0 0 37 37" fill="none" xmlns="http://www.w3.org/2000/svg">
<path fill-rule="evenodd" clip-rule="evenodd" d="M11.9584 9.46154C11.9584 9.41374 11.9971 9.375 12.0449 9.375H16.8911C18.2771 9.375 19.4007 10.4986 19.4007 11.8846V13.5C19.4007 14.7904 20.4468 15.8365 21.7372 15.8365H23.3526C24.7386 15.8365 25.8622 16.9601 25.8622 18.3462V28.0385C25.8622 28.0863 25.8235 28.125 25.7757 28.125H12.0449C11.9971 28.125 11.9584 28.0863 11.9584 28.0385V9.46154ZM9.70837 9.46154C9.70837 8.1711 10.7545 7.125 12.0449 7.125H17.2949C23.2691 7.125 28.1122 11.9681 28.1122 17.9423V28.0385C28.1122 29.3289 27.0661 30.375 25.7757 30.375H12.0449C10.7545 30.375 9.70837 29.3289 9.70837 28.0385V9.46154ZM21.6507 11.8846C21.6507 11.3791 21.5719 10.892 21.4259 10.4349C22.8456 11.2178 24.0195 12.3916 24.8023 13.8114C24.3452 13.6654 23.8581 13.5865 23.3526 13.5865H21.7372C21.6894 13.5865 21.6507 13.5478 21.6507 13.5V11.8846ZM23.586 21.0862C24.0478 20.6706 24.0852 19.9592 23.6696 19.4974C23.2539 19.0356 22.5426 18.9982 22.0808 19.4138L17.8581 23.2142L16.1125 21.5384C15.6643 21.1082 14.9521 21.1227 14.5218 21.5709C14.0915 22.0191 14.1061 22.7313 14.5543 23.1616L17.0543 25.5616C17.4795 25.9698 18.1478 25.9806 18.586 25.5862L23.586 21.0862Z" fill="#64748B"/>
</svg>
