<svg viewBox="0 0 24 24" fill="none" xmlns="http://www.w3.org/2000/svg">
<path d="M5.5 5.25C5.36193 5.25 5.25 5.36193 5.25 5.5V18.5C5.25 18.6381 5.36193 18.75 5.5 18.75H9.5V20.25H5.5C4.5335 20.25 3.75 19.4665 3.75 18.5V5.5C3.75 4.5335 4.5335 3.75 5.5 3.75H15C15.9665 3.75 16.75 4.5335 16.75 5.5V9.5H15.25V5.5C15.25 5.36193 15.1381 5.25 15 5.25H5.5Z" fill="currentColor"/>
<path fill-rule="evenodd" clip-rule="evenodd" d="M10.4784 20.1531L10.4784 17.6746L13.2886 14.8644C12.9764 13.6951 13.279 12.3958 14.1963 11.4785C15.5652 10.1097 17.7845 10.1097 19.1533 11.4785C20.5221 12.8473 20.5222 15.0667 19.1533 16.4355C18.2359 17.3529 16.9364 17.6555 15.767 17.3431L12.9569 20.1531L10.4784 20.1531ZM14.7063 16.2824C15.085 15.9038 15.6367 15.7557 16.1541 15.8939C16.8274 16.0738 17.5692 15.8983 18.0927 15.3748C18.8757 14.5918 18.8757 13.3222 18.0927 12.5392C17.3096 11.7561 16.04 11.7561 15.257 12.5391C14.7336 13.0626 14.5581 13.8042 14.7378 14.4775C14.876 14.9948 14.7279 15.5465 14.3493 15.9251L11.9784 18.296L11.9784 18.6531L12.3356 18.6531L14.7063 16.2824Z" fill="currentColor"/>
<path d="M7 6.25C6.58579 6.25 6.25 6.58579 6.25 7C6.25 7.41421 6.58579 7.75 7 7.75H13.5C13.9142 7.75 14.25 7.41421 14.25 7C14.25 6.58579 13.9142 6.25 13.5 6.25H7Z" fill="currentColor"/>
<path d="M7 9.25C6.58579 9.25 6.25 9.58579 6.25 10C6.25 10.4142 6.58579 10.75 7 10.75H13.5C13.9142 10.75 14.25 10.4142 14.25 10C14.25 9.58579 13.9142 9.25 13.5 9.25H7Z" fill="currentColor"/>
<path d="M7 12.25C6.58579 12.25 6.25 12.5858 6.25 13C6.25 13.4142 6.58579 13.75 7 13.75H10.5C10.9142 13.75 11.25 13.4142 11.25 13C11.25 12.5858 10.9142 12.25 10.5 12.25H7Z" fill="currentColor"/>
</svg>
