<svg viewBox="0 0 20 20" fill="none" xmlns="http://www.w3.org/2000/svg">
<path fill-rule="evenodd" clip-rule="evenodd" d="M5.91354 4.375C5.86043 4.375 5.81738 4.41805 5.81738 4.47115V15.5288C5.81738 15.582 5.86043 15.625 5.91354 15.625H14.0866C14.1397 15.625 14.1828 15.582 14.1828 15.5288V9.75961C14.1828 8.90995 13.494 8.22115 12.6443 8.22115H11.6828C10.9393 8.22115 10.3366 7.61846 10.3366 6.875V5.91346C10.3366 5.06379 9.64782 4.375 8.79815 4.375H5.91354ZM5.91354 3.125C5.17008 3.125 4.56738 3.72769 4.56738 4.47115V15.5288C4.56738 16.2723 5.17008 16.875 5.91354 16.875H14.0866C14.8301 16.875 15.4328 16.2723 15.4328 15.5288V9.51923C15.4328 5.98779 12.57 3.125 9.03854 3.125H5.91354ZM11.4184 4.95741C11.5272 5.25561 11.5866 5.5776 11.5866 5.91346V6.875C11.5866 6.9281 11.6297 6.97115 11.6828 6.97115H12.6443C12.9802 6.97115 13.3022 7.03053 13.6004 7.13936C13.1135 6.20801 12.3498 5.44429 11.4184 4.95741ZM10.0001 8.89423C10.3453 8.89423 10.6251 9.17405 10.6251 9.51923L10.6251 11.8565L11.4812 11.0004C11.7253 10.7563 12.121 10.7563 12.3651 11.0004C12.6092 11.2444 12.6092 11.6402 12.3651 11.8842L10.442 13.8073C10.3248 13.9245 10.1658 13.9904 10.0001 13.9904C9.83431 13.9904 9.67534 13.9245 9.55813 13.8073L7.63506 11.8842C7.39098 11.6402 7.39098 11.2444 7.63506 11.0004C7.87914 10.7563 8.27486 10.7563 8.51894 11.0004L9.37508 11.8565L9.37508 9.51923C9.37508 9.17405 9.6549 8.89423 10.0001 8.89423Z" fill="currentColor"/>
</svg>
