<svg viewBox="0 0 24 24" fill="none" xmlns="http://www.w3.org/2000/svg">
<path d="M14.7429 24C14.5229 23.9998 14.3066 23.9459 14.1144 23.8436C13.9223 23.7412 13.7607 23.5937 13.645 23.4149C13.5292 23.2362 13.4632 23.0323 13.4531 22.8223C13.4429 22.6124 13.4891 22.4035 13.5872 22.2154C14.3278 20.8037 14.9286 19.329 15.3817 17.8104C15.4216 17.6481 15.4955 17.4952 15.599 17.3609C15.7025 17.2266 15.8333 17.1138 15.9837 17.0291C16.1341 16.9445 16.3009 16.8898 16.474 16.8684C16.6471 16.847 16.823 16.8593 16.991 16.9046C17.159 16.9499 17.3156 17.0273 17.4515 17.132C17.5873 17.2367 17.6996 17.3666 17.7814 17.5138C17.8632 17.6611 17.913 17.8227 17.9277 17.9888C17.9423 18.155 17.9216 18.3222 17.8668 18.4805C17.373 20.1546 16.7153 21.7806 15.9024 23.3369C15.7913 23.5384 15.6244 23.7067 15.4199 23.8237C15.2155 23.9406 14.9812 24.0016 14.7429 24ZM9.15617 23.672C8.91315 23.6707 8.67531 23.6048 8.46937 23.4815C8.17981 23.3073 7.97443 23.0305 7.89829 22.7118C7.82214 22.3931 7.88145 22.0586 8.06319 21.7816C10.2044 18.5162 11.3383 14.7403 11.3347 10.8873C11.3347 10.5599 11.4709 10.2459 11.7133 10.0144C11.9556 9.78294 12.2844 9.65289 12.6271 9.65289C12.9699 9.65289 13.2986 9.78294 13.541 10.0144C13.7833 10.2459 13.9195 10.5599 13.9195 10.8873C13.9284 15.2058 12.6613 19.4391 10.2639 23.1006C10.1453 23.2779 9.98138 23.4234 9.78756 23.5234C9.59373 23.6234 9.37643 23.6745 9.15617 23.672ZM4.82488 21.2032C4.59681 21.2027 4.37293 21.1446 4.17598 21.0348C3.97903 20.9249 3.81603 20.7672 3.70352 20.5777C3.59101 20.3883 3.53301 20.1737 3.5354 19.9559C3.53779 19.7381 3.60049 19.5247 3.71713 19.3375L3.7836 19.2282C5.43363 16.7309 6.30577 13.8368 6.29818 10.8837C6.27779 10.0774 6.42647 9.27529 6.73545 8.52463C7.04444 7.77397 7.5075 7.08992 8.09738 6.51273C8.68727 5.93554 9.39206 5.47687 10.1703 5.16371C10.9485 4.85054 11.7845 4.68922 12.629 4.68922C13.4734 4.68922 14.3094 4.85054 15.0876 5.16371C15.8659 5.47687 16.5707 5.93554 17.1605 6.51273C17.7504 7.08992 18.2135 7.77397 18.5225 8.52463C18.8314 9.27529 18.9801 10.0774 18.9597 10.8837C18.9596 12.1506 18.8707 13.416 18.6939 14.6715C18.6479 14.9961 18.4687 15.2899 18.1959 15.4884C17.923 15.6868 17.5789 15.7736 17.239 15.7296C16.8992 15.6856 16.5916 15.5145 16.3839 15.2539C16.1761 14.9933 16.0853 14.6646 16.1313 14.34C16.2935 13.1945 16.375 12.0398 16.375 10.8837C16.3907 10.4044 16.3055 9.92698 16.1243 9.47973C15.9432 9.03249 15.6698 8.62457 15.3204 8.2802C14.971 7.93582 14.5527 7.66201 14.0903 7.47503C13.628 7.28804 13.131 7.19168 12.629 7.19168C12.1269 7.19168 11.6299 7.28804 11.1676 7.47503C10.7052 7.66201 10.2869 7.93582 9.93754 8.2802C9.58813 8.62457 9.31473 9.03249 9.13357 9.47973C8.9524 9.92698 8.86717 10.4044 8.88292 10.8837C8.89166 14.2919 7.88921 17.6327 5.9917 20.519L5.94001 20.6036C5.82558 20.788 5.663 20.9408 5.46818 21.0472C5.27335 21.1535 5.05296 21.2097 4.82857 21.2103L4.82488 21.2032ZM21.4411 20.72C21.2451 20.7152 21.0528 20.6676 20.879 20.5811C20.7051 20.4945 20.5542 20.3712 20.4378 20.2206C20.3213 20.0699 20.2424 19.8958 20.207 19.7117C20.1717 19.5275 20.1808 19.338 20.2336 19.1577C21.0297 16.4667 21.4323 13.6836 21.43 10.8873C21.432 9.78241 21.2058 8.68801 20.7645 7.66672C20.3231 6.64542 19.6753 5.71726 18.858 4.93535C18.0407 4.15343 17.0701 3.53311 16.0015 3.10986C14.933 2.68662 13.7876 2.46877 12.6308 2.46877C11.0878 2.46999 9.5723 2.85923 8.23674 3.59735C7.94001 3.76151 7.58716 3.80635 7.25581 3.72202C6.92446 3.6377 6.64176 3.4311 6.46989 3.14768C6.29802 2.86426 6.25106 2.52724 6.33935 2.21076C6.42764 1.89428 6.64395 1.62426 6.94068 1.4601C8.6697 0.503351 10.6326 -0.000328924 12.6308 1.61155e-07C15.6504 0.00467359 18.5443 1.15461 20.6764 3.19693C22.8084 5.23925 24.0039 8.00673 24 10.8908C24.0021 13.9138 23.566 16.9226 22.7039 19.8313C22.6268 20.0896 22.4636 20.3168 22.239 20.4785C22.0144 20.6401 21.7408 20.7274 21.4596 20.7271L21.4411 20.72ZM1.29116 17.3872C1.09667 17.3875 0.904672 17.3453 0.729905 17.2638C0.421592 17.1214 0.185041 16.868 0.0721911 16.5592C-0.0406584 16.2504 -0.0205753 15.9114 0.128033 15.6167C0.876044 14.1427 1.26246 12.5253 1.25793 10.8873C1.25873 8.97754 1.78324 7.10132 2.77924 5.4454C2.95062 5.16152 3.23305 4.95428 3.5644 4.86929C3.89575 4.7843 4.24888 4.82852 4.5461 4.9922C4.84332 5.15589 5.06028 5.42565 5.14926 5.74214C5.23825 6.05862 5.19196 6.3959 5.02058 6.67979C4.24785 7.95912 3.84159 9.41031 3.84268 10.8873C3.84869 12.898 3.37383 14.8836 2.4543 16.6924C2.34895 16.9013 2.18378 17.0775 1.97793 17.2005C1.77208 17.3234 1.53396 17.3882 1.29116 17.3872Z" fill="currentColor"/>
</svg>
