<svg width="273" height="72" viewBox="0 0 273 72" fill="none" xmlns="http://www.w3.org/2000/svg">
<g clip-path="url(#clip0_1169_71861)">
<path d="M23.89 4.18979H4.70446V4.69765C3.44024 4.78015 2.25353 5.33917 1.38143 6.26301C0.509324 7.18685 0.0160502 8.40749 0.000158138 9.68105V63.3134C-0.0102018 63.9778 0.104049 64.6383 0.336931 65.2602C0.700667 66.1947 1.336 66.9973 2.16011 67.5635C2.98422 68.1297 3.95888 68.4332 4.95704 68.4343C5.95487 68.4317 6.92889 68.1277 7.75272 67.5617C8.57656 66.9957 9.21219 66.1938 9.57715 65.2602C9.81949 64.6409 9.93407 63.9786 9.91392 63.3134V42.1525H23.1849C33.6038 42.1525 42.3389 33.6246 42.3389 23.6578C42.3389 13.0562 33.8564 4.18979 23.89 4.18979ZM23.1849 32.0587H9.91392V14.2835H23.89C28.3102 14.2835 32.3093 18.7168 32.3093 23.6261C32.3093 28.0381 28.0997 32.0587 23.1849 32.0587Z" fill="currentColor"/>
<path d="M78.1205 4.07336C70.7428 4.06341 63.5899 6.62564 57.8807 11.3235C52.1714 16.0213 48.2591 22.564 46.8104 29.8368C45.3616 37.1096 46.4661 44.6624 49.9356 51.2082C53.4051 57.7541 59.0249 62.888 65.8374 65.7351C72.65 68.5821 80.2337 68.9663 87.2964 66.822C94.3591 64.6777 100.464 60.1377 104.57 53.9756C108.676 47.8135 110.53 40.4105 109.816 33.0282C109.102 25.6458 105.863 18.7409 100.653 13.49C97.6978 10.5073 94.1865 8.14022 90.32 6.52434C86.4535 4.90846 82.3078 4.07555 78.1205 4.07336ZM78.1205 57.9596C73.0808 57.9817 68.1895 56.2456 64.2807 53.0472C60.3719 49.8489 57.6876 45.3865 56.6857 40.4208C55.6838 35.4552 56.4262 30.294 58.7864 25.8172C61.1466 21.3404 64.9783 17.8253 69.6283 15.8713C74.2782 13.9173 79.4584 13.6454 84.2854 15.102C89.1124 16.5586 93.2874 19.6535 96.0984 23.8589C98.9094 28.0643 100.182 33.1198 99.7002 38.1633C99.218 43.2068 97.0105 47.926 93.4542 51.5161C91.4445 53.5499 89.0559 55.1657 86.4249 56.2713C83.7939 57.3769 80.9721 57.9506 78.1205 57.9596Z" fill="currentColor"/>
<path d="M204 4.18989H164.482C163.746 4.04523 162.987 4.06502 162.26 4.24786C161.533 4.4307 160.854 4.77212 160.272 5.24793C159.7 5.73409 159.241 6.34022 158.926 7.0238C158.612 7.70738 158.45 8.45186 158.452 9.20502V48.0247L126.374 6.13669C126.374 6.05205 126.374 6.05205 126.29 6.05205C126.206 6.05205 126.206 5.88276 126.121 5.79812L125.974 5.62883L125.806 5.45954L125.637 5.29025C125.553 5.29025 125.553 5.20561 125.469 5.20561C125.385 5.20561 125.3 5.03632 125.216 5.03632C125.132 5.03632 125.132 4.95168 125.048 4.86704C124.964 4.78239 124.88 4.78239 124.795 4.78239L124.627 4.61311C124.543 4.61311 124.459 4.52846 124.374 4.52846C124.29 4.52846 124.206 4.44382 124.122 4.44382C124.059 4.43074 124.001 4.40158 123.953 4.35917L123.638 4.27453C123.573 4.26816 123.513 4.23802 123.469 4.18989H123.217C123.172 4.2003 123.125 4.2003 123.08 4.18989C123.038 4.17157 122.999 4.14656 122.964 4.11582H121.912C121.867 4.10577 121.82 4.10577 121.775 4.11582C121.731 4.12631 121.691 4.14821 121.659 4.17931H121.27C121.227 4.19763 121.188 4.22263 121.154 4.25337H120.901C120.867 4.28411 120.828 4.30911 120.786 4.32743H120.712C120.628 4.41208 120.628 4.41208 120.544 4.41208L120.291 4.58136C120.246 4.57131 120.199 4.57131 120.154 4.58136L120.038 4.65543C119.965 4.65543 119.881 4.74007 119.796 4.74007C119.712 4.74007 119.702 4.82471 119.628 4.90936C119.554 4.994 119.46 4.994 119.375 5.07865H119.27L119.102 5.24793L118.933 5.41722L118.607 5.71347L118.355 5.9674C118.308 6.01258 118.278 6.07228 118.27 6.13669L118.102 6.30598C118.057 6.35249 118.028 6.41154 118.018 6.47527C117.934 6.55991 117.849 6.64455 117.849 6.71862C117.82 6.7563 117.799 6.79946 117.786 6.84558C117.775 6.89075 117.775 6.93796 117.786 6.98313L117.618 7.22648C117.618 7.31112 117.544 7.39577 117.544 7.48041C117.495 7.52504 117.462 7.58444 117.449 7.6497C117.46 7.69491 117.46 7.74203 117.449 7.78724C117.435 7.8317 117.41 7.87175 117.376 7.90363V8.15756C117.345 8.19005 117.323 8.23021 117.313 8.27394C117.303 8.31924 117.303 8.36619 117.313 8.41149V8.676C117.313 8.76064 117.313 8.84529 117.239 8.84529V63.0595C117.204 63.7444 117.311 64.4292 117.555 65.0698C117.793 65.691 118.151 66.259 118.607 66.7415C119.327 67.4582 120.242 67.9452 121.236 68.1414C122.231 68.3376 123.26 68.2344 124.197 67.8445C125.133 67.4547 125.934 66.7957 126.499 65.9501C127.064 65.1045 127.368 64.11 127.374 63.0913V24.2928L159.462 66.1808V66.2654C159.546 66.3501 159.63 66.5193 159.778 66.5934C159.862 66.7627 160.03 66.8368 160.114 66.9108C160.199 66.9849 160.283 66.9955 160.283 67.0801C160.283 67.1648 160.451 67.1648 160.609 67.2494C160.609 67.334 160.693 67.334 160.777 67.334C160.862 67.334 160.946 67.5033 161.03 67.5033C161.064 67.5341 161.104 67.5591 161.146 67.5774C161.191 67.5878 161.238 67.5878 161.283 67.5774C161.367 67.662 161.451 67.7467 161.535 67.7467C161.599 67.757 161.657 67.7866 161.704 67.8313C161.872 67.8313 161.956 67.916 162.125 67.916C162.293 67.916 162.209 67.916 162.293 68.0006H162.703L162.788 68.0853H163.377C163.605 68.1055 163.834 68.0766 164.05 68.0006H164.219C164.479 67.9871 164.735 67.9298 164.977 67.8313H165.061C165.313 67.7467 165.482 67.5774 165.734 67.4927C165.971 67.3719 166.196 67.2303 166.408 67.0695H166.492C166.494 67.0253 166.513 66.9835 166.545 66.9531C166.582 66.9417 166.623 66.9417 166.66 66.9531C166.745 66.8685 166.745 66.7839 166.829 66.7839C166.913 66.7839 166.913 66.6146 166.997 66.6146C167.081 66.6146 167.166 66.4559 167.166 66.3606C167.166 66.2654 167.239 66.276 167.323 66.1914C167.408 66.1067 167.408 66.1067 167.502 66.0326C167.502 65.9996 167.509 65.9669 167.523 65.9374C167.538 65.9079 167.56 65.8825 167.587 65.8634L167.787 65.6412C167.787 65.5565 167.871 65.4825 167.871 65.3978C167.9 65.3639 167.921 65.3243 167.934 65.2814C167.943 65.2361 167.943 65.1893 167.934 65.1439L168.102 64.89C168.101 64.857 168.109 64.8243 168.123 64.7947C168.138 64.7652 168.16 64.7398 168.186 64.7207V64.4667C168.217 64.4321 168.242 64.3929 168.26 64.3504C168.265 64.3047 168.265 64.2585 168.26 64.2128C168.25 64.1675 168.25 64.1205 168.26 64.0753C168.278 64.0328 168.303 63.9935 168.334 63.9589V63.1971H168.397V14.527H177.721V63.1442C177.721 64.4995 178.257 65.7994 179.21 66.7578C180.163 67.7161 181.456 68.2545 182.805 68.2545C184.153 68.2545 185.446 67.7161 186.399 66.7578C187.352 65.7994 187.888 64.4995 187.888 63.1442V14.4106H203.674C205.022 14.4106 206.315 13.8722 207.268 12.9138C208.222 11.9554 208.757 10.6556 208.757 9.30025C208.757 7.9449 208.222 6.64506 207.268 5.68668C206.315 4.7283 205.022 4.18989 203.674 4.18989H204Z" fill="currentColor"/>
<path d="M246.086 72C245.459 71.9994 244.842 71.8379 244.295 71.5308C243.747 71.2237 243.287 70.7811 242.957 70.2449C242.627 69.7088 242.439 69.0969 242.41 68.4671C242.381 67.8374 242.512 67.2106 242.792 66.6463C244.903 62.4112 246.615 57.987 247.907 53.4313C248.02 52.9444 248.231 52.4856 248.526 52.0828C248.821 51.6799 249.194 51.3413 249.623 51.0874C250.051 50.8334 250.526 50.6694 251.02 50.6052C251.513 50.5411 252.015 50.578 252.493 50.7139C252.972 50.8498 253.419 51.0818 253.806 51.396C254.193 51.7101 254.513 52.0998 254.746 52.5416C254.979 52.9834 255.121 53.4681 255.163 53.9666C255.205 54.465 255.146 54.9667 254.989 55.4416C253.582 60.464 251.708 65.3419 249.391 70.0109C249.074 70.6152 248.598 71.1203 248.016 71.4711C247.433 71.822 246.765 72.0049 246.086 72ZM230.163 71.016C229.47 71.0122 228.792 70.8144 228.205 70.4447C227.38 69.9219 226.795 69.0915 226.578 68.1354C226.361 67.1794 226.53 66.1758 227.048 65.3449C233.15 55.5486 236.382 44.2209 236.372 32.6619C236.372 31.6797 236.76 30.7378 237.451 30.0433C238.142 29.3489 239.079 28.9587 240.056 28.9587C241.033 28.9587 241.969 29.3489 242.66 30.0433C243.351 30.7378 243.739 31.6797 243.739 32.6619C243.764 45.6175 240.153 58.3175 233.32 69.302C232.982 69.8339 232.515 70.2704 231.962 70.5703C231.41 70.8702 230.791 71.0236 230.163 71.016ZM217.818 63.6097C217.168 63.6083 216.53 63.4339 215.969 63.1044C215.407 62.7748 214.943 62.3018 214.622 61.7333C214.301 61.1649 214.136 60.5212 214.143 59.8677C214.15 59.2142 214.328 58.5742 214.661 58.0126L214.85 57.6846C219.553 50.1927 222.039 41.5103 222.017 32.6513C221.959 30.2322 222.383 27.8259 223.263 25.5739C224.144 23.3219 225.464 21.2698 227.145 19.5382C228.826 17.8066 230.835 16.4306 233.053 15.4911C235.271 14.5517 237.654 14.0677 240.061 14.0677C242.468 14.0677 244.85 14.5517 247.068 15.4911C249.287 16.4306 251.295 17.8066 252.977 19.5382C254.658 21.2698 255.978 23.3219 256.858 25.5739C257.739 27.8259 258.163 30.2322 258.105 32.6513C258.104 36.4518 257.851 40.2481 257.347 44.0147C257.216 44.9884 256.705 45.8699 255.927 46.4651C255.15 47.0604 254.169 47.3207 253.2 47.1888C252.232 47.0569 251.355 46.5436 250.763 45.7619C250.171 44.9801 249.912 43.9939 250.043 43.0201C250.506 39.5834 250.738 36.1193 250.738 32.6513C250.783 31.2133 250.54 29.781 250.023 28.4392C249.507 27.0975 248.728 25.8737 247.732 24.8406C246.736 23.8075 245.544 22.9861 244.226 22.4251C242.908 21.8641 241.492 21.5751 240.061 21.5751C238.63 21.5751 237.213 21.8641 235.896 22.4251C234.578 22.9861 233.386 23.8075 232.39 24.8406C231.394 25.8737 230.615 27.0975 230.098 28.4392C229.582 29.781 229.339 31.2133 229.384 32.6513C229.409 42.8758 226.552 52.8981 221.144 61.5571L220.996 61.811C220.67 62.3641 220.207 62.8226 219.652 63.1416C219.096 63.4606 218.468 63.6292 217.829 63.6309L217.818 63.6097ZM265.177 62.1602C264.618 62.1456 264.07 62.003 263.575 61.7434C263.079 61.4837 262.649 61.1138 262.317 60.6618C261.985 60.2098 261.76 59.6876 261.66 59.135C261.559 58.5824 261.585 58.014 261.735 57.473C264.004 49.4002 265.152 41.0507 265.145 32.6619C265.151 29.3473 264.506 26.0641 263.248 23.0002C261.99 19.9363 260.144 17.1518 257.815 14.8061C255.485 12.4603 252.719 10.5993 249.673 9.3296C246.628 8.05987 243.363 7.40631 240.066 7.40632C235.668 7.40999 231.349 8.57771 227.542 10.7921C226.697 11.2845 225.691 11.4191 224.747 11.1661C223.802 10.9131 222.996 10.2933 222.507 9.44306C222.017 8.5928 221.883 7.58174 222.135 6.63229C222.386 5.68284 223.003 4.87278 223.848 4.38031C228.776 1.51006 234.371 -0.000986774 240.066 4.83467e-07C248.672 0.0140208 256.921 3.46383 262.997 9.5908C269.074 15.7178 272.481 24.0202 272.47 32.6724C272.476 41.7415 271.233 50.7677 268.776 59.4939C268.556 60.2688 268.091 60.9504 267.451 61.4354C266.811 61.9204 266.031 62.1823 265.229 62.1813L265.177 62.1602ZM207.746 52.1616C207.192 52.1626 206.645 52.0359 206.147 51.7913C205.268 51.3643 204.594 50.6041 204.272 49.6776C203.951 48.7512 204.008 47.7343 204.431 46.8503C206.563 42.4283 207.665 37.5759 207.652 32.6619C207.654 26.9327 209.149 21.304 211.988 16.3362C212.476 15.4846 213.281 14.8629 214.225 14.6079C215.17 14.3529 216.176 14.4856 217.023 14.9766C217.871 15.4677 218.489 16.277 218.743 17.2264C218.996 18.1759 218.864 19.1877 218.376 20.0394C216.173 23.8774 215.016 28.231 215.019 32.6619C215.036 38.6942 213.682 44.6508 211.062 50.0773C210.761 50.7041 210.291 51.2326 209.704 51.6014C209.117 51.9703 208.438 52.1646 207.746 52.1616Z" fill="currentColor"/>
</g>
<defs>
<clipPath id="clip0_1169_71861">
<rect width="272.471" height="72" fill="white"/>
</clipPath>
</defs>
</svg>
