<svg viewBox="0 0 20 20" fill="none" xmlns="http://www.w3.org/2000/svg">
<path fill-rule="evenodd" clip-rule="evenodd" d="M13.561 6.43921C11.3643 4.24251 7.80272 4.24251 5.60602 6.43921C3.40932 8.63591 3.40932 12.1975 5.60602 14.3942C7.80272 16.5909 11.3643 16.5909 13.561 14.3942C13.805 14.1501 14.2008 14.1501 14.4449 14.3942C14.6889 14.6382 14.6889 15.034 14.4449 15.278C11.76 17.9629 7.40699 17.9629 4.72214 15.278C2.03728 12.5932 2.03728 8.24018 4.72214 5.55533C7.40699 2.87047 11.76 2.87047 14.4449 5.55533C15.7872 6.89764 16.4585 8.6582 16.4585 10.4167C16.4585 11.1141 16.2473 11.7696 15.8758 12.2648C15.5043 12.7602 14.9433 13.125 14.271 13.125C13.6588 13.125 13.1388 12.8225 12.7702 12.3943C12.1085 13.4584 10.9287 14.1667 9.5835 14.1667C7.51243 14.1667 5.8335 12.4878 5.8335 10.4167C5.8335 8.34562 7.51243 6.66669 9.5835 6.66669C10.5553 6.66669 11.4407 7.03631 12.1069 7.64264C12.1809 7.38002 12.4222 7.18752 12.7085 7.18752C13.0537 7.18752 13.3335 7.46734 13.3335 7.81252V10.4167C13.3335 10.8698 13.472 11.256 13.6661 11.5148C13.8601 11.7734 14.0804 11.875 14.271 11.875C14.4616 11.875 14.6819 11.7734 14.8759 11.5148C15.07 11.256 15.2085 10.8698 15.2085 10.4167C15.2085 8.97616 14.6594 7.53769 13.561 6.43921ZM12.0835 10.4167C12.0835 9.03597 10.9642 7.91669 9.5835 7.91669C8.20278 7.91669 7.0835 9.03597 7.0835 10.4167C7.0835 11.7974 8.20278 12.9167 9.5835 12.9167C10.9642 12.9167 12.0835 11.7974 12.0835 10.4167Z" fill="currentColor" />
</svg>
