<svg viewBox="0 0 24 24" fill="none" xmlns="http://www.w3.org/2000/svg">
<path fill-rule="evenodd" clip-rule="evenodd" d="M12 4.75C11.3096 4.75 10.75 5.30964 10.75 6C10.75 6.69036 11.3096 7.25 12 7.25C12.6904 7.25 13.25 6.69036 13.25 6C13.25 5.30964 12.6904 4.75 12 4.75ZM9.25 6C9.25 4.48122 10.4812 3.25 12 3.25C13.5188 3.25 14.75 4.48122 14.75 6C14.75 7.51878 13.5188 8.75 12 8.75C10.4812 8.75 9.25 7.51878 9.25 6Z" fill="currentColor"/>
<path fill-rule="evenodd" clip-rule="evenodd" d="M12 18.5C12.2761 18.5 12.5 18.2761 12.5 18C12.5 17.7239 12.2761 17.5 12 17.5C11.7239 17.5 11.5 17.7239 11.5 18C11.5 18.2761 11.7239 18.5 12 18.5ZM12 20C13.1046 20 14 19.1046 14 18C14 16.8954 13.1046 16 12 16C10.8954 16 10 16.8954 10 18C10 19.1046 10.8954 20 12 20Z" fill="currentColor"/>
<path fill-rule="evenodd" clip-rule="evenodd" d="M4 18.5C4.27614 18.5 4.5 18.2761 4.5 18C4.5 17.7239 4.27614 17.5 4 17.5C3.72386 17.5 3.5 17.7239 3.5 18C3.5 18.2761 3.72386 18.5 4 18.5ZM4 20C5.10457 20 6 19.1046 6 18C6 16.8954 5.10457 16 4 16C2.89543 16 2 16.8954 2 18C2 19.1046 2.89543 20 4 20Z" fill="currentColor"/>
<path fill-rule="evenodd" clip-rule="evenodd" d="M20 18.5C20.2761 18.5 20.5 18.2761 20.5 18C20.5 17.7239 20.2761 17.5 20 17.5C19.7239 17.5 19.5 17.7239 19.5 18C19.5 18.2761 19.7239 18.5 20 18.5ZM20 20C21.1046 20 22 19.1046 22 18C22 16.8954 21.1046 16 20 16C18.8954 16 18 16.8954 18 18C18 19.1046 18.8954 20 20 20Z" fill="currentColor"/>
<path fill-rule="evenodd" clip-rule="evenodd" d="M3.25 14C3.25 12.4812 4.48122 11.25 6 11.25H18C19.5188 11.25 20.75 12.4812 20.75 14V16C20.75 16.4142 20.4142 16.75 20 16.75C19.5858 16.75 19.25 16.4142 19.25 16V14C19.25 13.3096 18.6904 12.75 18 12.75H6C5.30964 12.75 4.75 13.3096 4.75 14V16C4.75 16.4142 4.41421 16.75 4 16.75C3.58579 16.75 3.25 16.4142 3.25 16V14Z" fill="currentColor"/>
<path fill-rule="evenodd" clip-rule="evenodd" d="M12 7.25C12.4142 7.25 12.75 7.58579 12.75 8V16C12.75 16.4142 12.4142 16.75 12 16.75C11.5858 16.75 11.25 16.4142 11.25 16V8C11.25 7.58579 11.5858 7.25 12 7.25Z" fill="currentColor"/>
</svg>
