<svg viewBox="0 0 24 24" fill="none" xmlns="http://www.w3.org/2000/svg">
<path d="M9.46967 12.4697C9.76256 12.1768 10.2374 12.1768 10.5303 12.4697L12 13.9393L13.4697 12.4697C13.7626 12.1768 14.2374 12.1768 14.5303 12.4697C14.8232 12.7626 14.8232 13.2374 14.5303 13.5303L13.0607 15L14.5303 16.4697C14.8232 16.7626 14.8232 17.2374 14.5303 17.5303C14.2374 17.8232 13.7626 17.8232 13.4697 17.5303L12 16.0607L10.5303 17.5303C10.2374 17.8232 9.76257 17.8232 9.46968 17.5303C9.17679 17.2374 9.17679 16.7626 9.46968 16.4697L10.9393 15L9.46967 13.5303C9.17678 13.2374 9.17678 12.7626 9.46967 12.4697Z" fill="currentColor"/>
<path fill-rule="evenodd" clip-rule="evenodd" d="M8.75 4C8.75 3.58579 8.41421 3.25 8 3.25C7.58579 3.25 7.25 3.58579 7.25 4V5.25H6C4.48122 5.25 3.25 6.48122 3.25 8V18C3.25 19.5188 4.48122 20.75 6 20.75H18C19.5188 20.75 20.75 19.5188 20.75 18V8C20.75 6.48122 19.5188 5.25 18 5.25H16.75V4C16.75 3.58579 16.4142 3.25 16 3.25C15.5858 3.25 15.25 3.58579 15.25 4V5.25H8.75V4ZM18 6.75C18.6904 6.75 19.25 7.30964 19.25 8V9.25H4.75V8C4.75 7.30964 5.30964 6.75 6 6.75H18ZM4.75 10.75V18C4.75 18.6904 5.30964 19.25 6 19.25H18C18.6904 19.25 19.25 18.6904 19.25 18V10.75H4.75Z" fill="currentColor"/>
</svg>
