<svg viewBox="0 0 24 24" fill="none" xmlns="http://www.w3.org/2000/svg">
<path fill-rule="evenodd" clip-rule="evenodd" d="M17.4558 6.54419C16.3969 5.48527 14.68 5.48527 13.6211 6.54419L10.1596 10.0057C9.1007 11.0647 9.1007 12.7815 10.1596 13.8404C10.3847 14.0655 10.6381 14.2418 10.9077 14.3706C11.2815 14.5492 11.4397 14.9969 11.2612 15.3707C11.0826 15.7444 10.6349 15.9027 10.2612 15.7241C9.84001 15.5229 9.44606 15.2482 9.09895 14.9011C7.45425 13.2564 7.45425 10.5898 9.09895 8.94507L12.5605 5.48353C14.2052 3.83882 16.8718 3.83882 18.5165 5.48353C20.1612 7.12824 20.1612 9.79484 18.5165 11.4395L17.165 12.7911C16.8721 13.084 16.3972 13.084 16.1043 12.7911C15.8114 12.4982 15.8114 12.0233 16.1043 11.7304L17.4558 10.3789C18.5147 9.31996 18.5147 7.60311 17.4558 6.54419ZM11.7389 9.62934C11.9174 9.25559 12.3651 9.09734 12.7389 9.27588C13.16 9.47707 13.554 9.7518 13.9011 10.0989C15.5458 11.7436 15.5458 14.4102 13.9011 16.0549L10.4396 19.5165C8.79488 21.1612 6.12829 21.1612 4.48359 19.5165C2.83889 17.8718 2.83889 15.2052 4.48359 13.5605L5.8351 12.2089C6.12799 11.916 6.60286 11.916 6.89576 12.2089C7.18865 12.5018 7.18865 12.9767 6.89576 13.2696L5.54425 14.6211C4.48533 15.68 4.48533 17.3969 5.54425 18.4558C6.60316 19.5147 8.32 19.5147 9.37892 18.4558L12.8404 14.9943C13.8994 13.9353 13.8994 12.2185 12.8404 11.1596C12.6154 10.9345 12.362 10.7582 12.0923 10.6294C11.7186 10.4508 11.5603 10.0031 11.7389 9.62934Z" fill="currentColor"/>
</svg>
