<svg viewBox="0 0 24 24" fill="none" xmlns="http://www.w3.org/2000/svg">
<path fill-rule="evenodd" clip-rule="evenodd" d="M7.55774 8.46154C7.55774 6.13557 9.4433 4.25 11.7693 4.25C14.0952 4.25 15.9808 6.13557 15.9808 8.46154V10.6021C17.2701 10.691 18.2885 11.765 18.2885 13.0769V18.2692C18.2885 19.6393 17.1778 20.75 15.8077 20.75H7.73082C6.36073 20.75 5.25006 19.6393 5.25006 18.2692V13.0769C5.25006 11.765 6.2684 10.691 7.55774 10.6021V8.46154ZM7.73082 12.0962C7.18917 12.0962 6.75006 12.5353 6.75006 13.0769V18.2692C6.75006 18.8109 7.18917 19.25 7.73082 19.25H15.8077C16.3494 19.25 16.7885 18.8109 16.7885 18.2692V13.0769C16.7885 12.5353 16.3494 12.0962 15.8077 12.0962H7.73082ZM14.4808 10.5962H9.05774V8.46154C9.05774 6.96399 10.2717 5.75 11.7693 5.75C13.2668 5.75 14.4808 6.96399 14.4808 8.46154V10.5962Z" fill="currentColor"/>
</svg>
