<svg viewBox="0 0 24 24" fill="none" xmlns="http://www.w3.org/2000/svg">
<path fill-rule="evenodd" clip-rule="evenodd" d="M12.4808 8.46154C12.4808 6.13557 14.3663 4.25 16.6923 4.25C19.0183 4.25 20.9038 6.13557 20.9038 8.46154V11.3462C20.9038 11.7604 20.568 12.0962 20.1538 12.0962C19.7396 12.0962 19.4038 11.7604 19.4038 11.3462V8.46154C19.4038 6.96399 18.1898 5.75 16.6923 5.75C15.1948 5.75 13.9808 6.96399 13.9808 8.46154V10.6021C15.2701 10.691 16.2885 11.765 16.2885 13.0769V18.2692C16.2885 19.6393 15.1778 20.75 13.8077 20.75H5.73082C4.36073 20.75 3.25006 19.6393 3.25006 18.2692V13.0769C3.25006 11.7068 4.36073 10.5962 5.73082 10.5962H12.4808V8.46154ZM5.73082 12.0962C5.18917 12.0962 4.75006 12.5353 4.75006 13.0769V18.2692C4.75006 18.8109 5.18917 19.25 5.73082 19.25H13.8077C14.3494 19.25 14.7885 18.8109 14.7885 18.2692V13.0769C14.7885 12.5353 14.3494 12.0962 13.8077 12.0962H5.73082Z" fill="currentColor"/>
</svg>
