<svg width="36" height="37" viewBox="0 0 36 37" fill="none" xmlns="http://www.w3.org/2000/svg">
<path fill-rule="evenodd" clip-rule="evenodd" d="M12.1875 10.3125C12.1875 8.13788 13.9504 6.375 16.125 6.375H19.875C22.0496 6.375 23.8125 8.13788 23.8125 10.3125V10.3978C24.924 10.5027 26.0268 10.6373 27.1203 10.801C29.0341 11.0873 30.375 12.7513 30.375 14.6321V19.3611C30.375 20.3021 30.04 21.207 29.4375 21.9016V26.7499C29.4375 28.6542 28.0634 30.3322 26.1208 30.5902C23.4634 30.943 20.7527 31.125 18 31.125C15.2473 31.125 12.5366 30.943 9.87924 30.5902C7.93664 30.3322 6.5625 28.6542 6.5625 26.7499V21.9016C5.95995 21.207 5.625 20.302 5.625 19.3611V14.6321C5.625 12.7513 6.96589 11.0873 8.8797 10.801C9.97317 10.6374 11.076 10.5027 12.1875 10.3978V10.3125ZM14.4396 10.227C15.6179 10.1593 16.805 10.125 18 10.125C19.195 10.125 20.3821 10.1593 21.5604 10.227C21.5158 9.33475 20.7783 8.625 19.875 8.625H16.125C15.2217 8.625 14.4842 9.33475 14.4396 10.227ZM8.8125 23.184V26.7499C8.8125 27.5819 9.40561 28.2575 10.1754 28.3597C12.7348 28.6995 15.3466 28.875 18 28.875C20.6534 28.875 23.2652 28.6995 25.8246 28.3597C26.5944 28.2575 27.1875 27.5819 27.1875 26.7499V23.184C24.2822 24.0803 21.1965 24.5625 18 24.5625C14.8036 24.5625 11.7178 24.0803 8.8125 23.184ZM18 12.375C16.4515 12.375 14.9172 12.4348 13.3992 12.5521C11.989 12.661 10.593 12.8197 9.21265 13.0262C8.45387 13.1397 7.875 13.8106 7.875 14.6321V19.3611C7.875 19.856 8.08708 20.2997 8.41732 20.5812C8.55184 20.6959 8.70797 20.7858 8.88353 20.8442C11.7478 21.7964 14.8125 22.3125 18 22.3125C21.1875 22.3125 24.2522 21.7964 27.1165 20.8442C27.292 20.7858 27.4482 20.6959 27.5827 20.5813C27.9129 20.2997 28.125 19.856 28.125 19.3611V14.6321C28.125 13.8106 27.5461 13.1397 26.7873 13.0262C25.407 12.8197 24.011 12.661 22.6008 12.5521C21.0828 12.4348 19.5485 12.375 18 12.375ZM16.875 19.6875C16.875 19.0662 17.3787 18.5625 18 18.5625H18.0094C18.6307 18.5625 19.1344 19.0662 19.1344 19.6875V19.6969C19.1344 20.3182 18.6307 20.8219 18.0094 20.8219H18C17.3787 20.8219 16.875 20.3182 16.875 19.6969V19.6875Z" fill="#64748B"/>
</svg>
