<svg viewBox="0 0 24 24" fill="none" xmlns="http://www.w3.org/2000/svg">
<path fill-rule="evenodd" clip-rule="evenodd" d="M9.79831 5.76461C9.75943 5.74517 9.71367 5.74517 9.67479 5.76461L5.82634 7.68883C5.77955 7.71223 5.75 7.76005 5.75 7.81236V17.6679C5.75 17.7705 5.85804 17.8373 5.94986 17.7914L9.00397 16.2643C9.46514 16.0338 10.008 16.0338 10.4691 16.2643L14.4113 18.2355C14.4502 18.2549 14.496 18.2549 14.5349 18.2355L18.3833 16.3112C18.4301 16.2878 18.4596 16.24 18.4596 16.1877V6.33219C18.4596 6.22952 18.3516 6.16275 18.2598 6.20866L15.2057 7.73571C14.7445 7.9663 14.2017 7.9663 13.7405 7.73571L9.79831 5.76461ZM9.00397 4.42297C9.46514 4.19238 10.008 4.19238 10.4691 4.42297L14.4113 6.39407C14.4502 6.41351 14.496 6.41351 14.5349 6.39407L17.589 4.86702C18.6781 4.32243 19.9596 5.11445 19.9596 6.33219V16.1877C19.9596 16.8082 19.6091 17.3754 19.0541 17.6529L15.2057 19.5771C14.7445 19.8077 14.2017 19.8077 13.7405 19.5771L9.79831 17.606C9.75943 17.5865 9.71367 17.5865 9.67479 17.606L6.62068 19.133C5.53151 19.6776 4.25 18.8856 4.25 17.6679V7.81236C4.25 7.19189 4.60056 6.62468 5.15552 6.34719L9.00397 4.42297ZM9.73655 7.10555C10.1508 7.10555 10.4865 7.44133 10.4865 7.85555V14.3683C10.4865 14.7825 10.1508 15.1183 9.73655 15.1183C9.32233 15.1183 8.98655 14.7825 8.98655 14.3683V7.85555C8.98655 7.44133 9.32233 7.10555 9.73655 7.10555ZM14.4731 8.88175C14.8873 8.88175 15.2231 9.21754 15.2231 9.63175V16.1445C15.2231 16.5587 14.8873 16.8945 14.4731 16.8945C14.0589 16.8945 13.7231 16.5587 13.7231 16.1445V9.63175C13.7231 9.21754 14.0589 8.88175 14.4731 8.88175Z" fill="currentColor"/>
</svg>
