<svg viewBox="0 0 24 24" fill="none" xmlns="http://www.w3.org/2000/svg">
<path fill-rule="evenodd" clip-rule="evenodd" d="M8.6875 4.75C8.18082 4.75 7.75 5.17055 7.75 5.71429V18.2857C7.75 18.8295 8.18082 19.25 8.6875 19.25H14.3125C14.8192 19.25 15.25 18.8295 15.25 18.2857V5.71429C15.25 5.17055 14.8192 4.75 14.3125 4.75H13.375V5.14286C13.375 5.55707 13.0392 5.89286 12.625 5.89286H10.375C9.96079 5.89286 9.625 5.55707 9.625 5.14286V4.75H8.6875ZM6.25 5.71429C6.25 4.36448 7.33021 3.25 8.6875 3.25H14.3125C15.6698 3.25 16.75 4.36448 16.75 5.71429V18.2857C16.75 19.6355 15.6698 20.75 14.3125 20.75H8.6875C7.33021 20.75 6.25 19.6355 6.25 18.2857V5.71429ZM9.625 18.2857C9.625 17.8715 9.96079 17.5357 10.375 17.5357H12.625C13.0392 17.5357 13.375 17.8715 13.375 18.2857C13.375 18.6999 13.0392 19.0357 12.625 19.0357H10.375C9.96079 19.0357 9.625 18.6999 9.625 18.2857Z" fill="currentColor"/>
</svg>
