<svg viewBox="0 0 24 24" fill="none" xmlns="http://www.w3.org/2000/svg">
<path fill-rule="evenodd" clip-rule="evenodd" d="M11.8889 4.75C11.8122 4.75 11.75 4.81218 11.75 4.88889C11.75 4.9656 11.8122 5.02778 11.8889 5.02778C11.9656 5.02778 12.0278 4.9656 12.0278 4.88889C12.0278 4.81218 11.9656 4.75 11.8889 4.75ZM10.25 4.88889C10.25 3.98376 10.9838 3.25 11.8889 3.25C12.794 3.25 13.5278 3.98376 13.5278 4.88889C13.5278 5.79402 12.794 6.52778 11.8889 6.52778C10.9838 6.52778 10.25 5.79402 10.25 4.88889ZM11.8889 11.8611C11.8122 11.8611 11.75 11.9233 11.75 12C11.75 12.0767 11.8122 12.1389 11.8889 12.1389C11.9656 12.1389 12.0278 12.0767 12.0278 12C12.0278 11.9233 11.9656 11.8611 11.8889 11.8611ZM10.25 12C10.25 11.0949 10.9838 10.3611 11.8889 10.3611C12.794 10.3611 13.5278 11.0949 13.5278 12C13.5278 12.9051 12.794 13.6389 11.8889 13.6389C10.9838 13.6389 10.25 12.9051 10.25 12ZM11.8889 18.9722C11.8122 18.9722 11.75 19.0344 11.75 19.1111C11.75 19.1878 11.8122 19.25 11.8889 19.25C11.9656 19.25 12.0278 19.1878 12.0278 19.1111C12.0278 19.0344 11.9656 18.9722 11.8889 18.9722ZM10.25 19.1111C10.25 18.206 10.9838 17.4722 11.8889 17.4722C12.794 17.4722 13.5278 18.206 13.5278 19.1111C13.5278 20.0162 12.794 20.75 11.8889 20.75C10.9838 20.75 10.25 20.0162 10.25 19.1111Z" fill="currentColor"/>
</svg>
