<svg viewBox="0 0 24 24" fill="none" xmlns="http://www.w3.org/2000/svg">
<path fill-rule="evenodd" clip-rule="evenodd" d="M4.46552 4.47389C4.65891 4.27742 4.9445 4.20289 5.20924 4.27979C10.4378 5.79866 15.2933 8.19332 19.6063 11.294C19.8023 11.4349 19.9185 11.6616 19.9185 11.903C19.9185 12.1444 19.8023 12.371 19.6063 12.5119C15.2933 15.6127 10.4379 18.0074 5.20932 19.5263C4.94458 19.6032 4.65899 19.5287 4.46559 19.3322C4.2722 19.1358 4.20218 18.849 4.28326 18.5855L6.33937 11.9032L4.28318 5.22058C4.20211 4.95709 4.27213 4.67036 4.46552 4.47389ZM7.678 12.6532L6.13333 17.6733C10.3418 16.3087 14.2843 14.3526 17.8628 11.903C14.2843 9.45335 10.3418 7.49736 6.13326 6.13277L7.678 11.1532L12.9576 11.1532C13.3718 11.1532 13.7076 11.489 13.7076 11.9032C13.7076 12.3174 13.3718 12.6532 12.9576 12.6532L7.678 12.6532Z" fill="currentColor"/>
</svg>
