<svg viewBox="0 0 24 24" fill="none" xmlns="http://www.w3.org/2000/svg">
<path fill-rule="evenodd" clip-rule="evenodd" d="M15.0441 5.7538C14.392 5.71553 13.6702 5.93726 12.9892 6.61828L5.56872 14.0388C5.27583 14.3317 4.80095 14.3317 4.50806 14.0388C4.21517 13.7459 4.21517 13.271 4.50806 12.9781L11.9285 5.55762C12.8973 4.58887 14.0313 4.19178 15.132 4.25637C16.2142 4.31988 17.2064 4.82539 17.938 5.55683C18.6696 6.28827 19.1753 7.2803 19.239 8.36237C19.3039 9.46287 18.907 10.5967 17.9385 11.5653L10.5169 18.9857C9.9606 19.542 9.29063 19.7845 8.62819 19.7456C7.98416 19.7079 7.40439 19.4086 6.98213 18.9863C6.55988 18.5641 6.26055 17.9843 6.22282 17.3403C6.18401 16.6778 6.42645 16.0079 6.98272 15.4516L14.4032 8.03111C14.6961 7.73822 15.171 7.73822 15.4638 8.03111C15.7567 8.32401 15.7567 8.79888 15.4638 9.09177L8.04338 16.5123C7.77476 16.7809 7.70773 17.0387 7.72025 17.2525C7.73385 17.4847 7.84667 17.7295 8.04279 17.9257C8.23892 18.1218 8.48373 18.2346 8.71592 18.2482C8.92971 18.2607 9.18759 18.1937 9.45621 17.9251L16.8778 10.5046C16.8778 10.5046 16.8779 10.5046 16.8778 10.5046C17.5585 9.82395 17.78 9.10239 17.7416 8.45057C17.7022 7.7803 17.383 7.12307 16.8775 6.61761C16.3719 6.11216 15.7145 5.79314 15.0441 5.7538Z" fill="currentColor"/>
</svg>
