<svg viewBox="0 0 24 24" fill="none" xmlns="http://www.w3.org/2000/svg">
<path fill-rule="evenodd" clip-rule="evenodd" d="M7.5 11C9.433 11 11 9.433 11 7.5C11 5.567 9.433 4 7.5 4C5.567 4 4 5.567 4 7.5C4 9.433 5.567 11 7.5 11ZM7.5 9.5C8.60457 9.5 9.5 8.60457 9.5 7.5C9.5 6.39543 8.60457 5.5 7.5 5.5C6.39543 5.5 5.5 6.39543 5.5 7.5C5.5 8.60457 6.39543 9.5 7.5 9.5Z" fill="currentColor"/>
<path fill-rule="evenodd" clip-rule="evenodd" d="M16.5 20C18.433 20 20 18.433 20 16.5C20 14.567 18.433 13 16.5 13C14.567 13 13 14.567 13 16.5C13 18.433 14.567 20 16.5 20ZM16.5 18.5C17.6046 18.5 18.5 17.6046 18.5 16.5C18.5 15.3954 17.6046 14.5 16.5 14.5C15.3954 14.5 14.5 15.3954 14.5 16.5C14.5 17.6046 15.3954 18.5 16.5 18.5Z" fill="currentColor"/>
<path d="M4.46978 18.4697C4.17689 18.7626 4.17689 19.2374 4.46978 19.5303C4.76268 19.8232 5.23755 19.8232 5.53044 19.5303L19.5304 5.53033C19.8233 5.23744 19.8233 4.76256 19.5304 4.46967C19.2375 4.17678 18.7627 4.17678 18.4698 4.46967L4.46978 18.4697Z" fill="currentColor"/>
</svg>
