<svg viewBox="0 0 24 24" fill="none" xmlns="http://www.w3.org/2000/svg">
<path fill-rule="evenodd" clip-rule="evenodd" d="M1.25 6C1.25 4.48122 2.48122 3.25 4 3.25H20C21.5188 3.25 22.75 4.48122 22.75 6V18C22.75 19.5188 21.5188 20.75 20 20.75H13.75H5.75H4C2.48122 20.75 1.25 19.5188 1.25 18V6ZM13 19.25V17C13 16.3096 12.4404 15.75 11.75 15.75H7.75C7.05964 15.75 6.5 16.3096 6.5 17V19.25H13ZM14.5 19.25V17C14.5 15.4812 13.2688 14.25 11.75 14.25H7.75C6.23122 14.25 5 15.4812 5 17V19.25H4C3.30964 19.25 2.75 18.6904 2.75 18V6C2.75 5.30964 3.30964 4.75 4 4.75H20C20.6904 4.75 21.25 5.30964 21.25 6V18C21.25 18.6904 20.6904 19.25 20 19.25H14.5ZM9.75 11.5C10.5784 11.5 11.25 10.8284 11.25 10C11.25 9.17157 10.5784 8.5 9.75 8.5C8.92157 8.5 8.25 9.17157 8.25 10C8.25 10.8284 8.92157 11.5 9.75 11.5ZM9.75 13C11.4069 13 12.75 11.6569 12.75 10C12.75 8.34315 11.4069 7 9.75 7C8.09315 7 6.75 8.34315 6.75 10C6.75 11.6569 8.09315 13 9.75 13ZM14 9C14 8.58579 14.3358 8.25 14.75 8.25H19.25C19.6642 8.25 20 8.58579 20 9C20 9.41421 19.6642 9.75 19.25 9.75H14.75C14.3358 9.75 14 9.41421 14 9ZM14.75 11.25C14.3358 11.25 14 11.5858 14 12C14 12.4142 14.3358 12.75 14.75 12.75H19.25C19.6642 12.75 20 12.4142 20 12C20 11.5858 19.6642 11.25 19.25 11.25H14.75Z" fill="currentColor"/>
</svg>
