<svg viewBox="0 0 24 24" fill="none" xmlns="http://www.w3.org/2000/svg">
<path fill-rule="evenodd" clip-rule="evenodd" d="M9.24999 5.75C8.58471 5.75 7.95826 6.06323 7.55909 6.59545L6.4536 8.06944C6.48412 8.0686 6.51473 8.06818 6.54545 8.06818H18C18.0307 8.06818 18.0613 8.0686 18.0918 8.06944L16.9863 6.59545C16.5872 6.06323 15.9607 5.75 15.2954 5.75H9.24999ZM19.7954 11.3636C19.7954 10.372 18.9916 9.56818 18 9.56818H6.54545C5.55385 9.56818 4.75 10.372 4.75 11.3636C4.75 12.3552 5.55385 13.1591 6.54545 13.1591H18C18.9916 13.1591 19.7954 12.3552 19.7954 11.3636ZM20.0931 13.9091C20.8273 13.3047 21.2954 12.3888 21.2954 11.3636C21.2954 10.3752 20.9748 9.41346 20.3818 8.62273L18.1863 5.69546L17.7017 6.05892L18.1863 5.69545C17.5039 4.78552 16.4329 4.25 15.2954 4.25H9.24999C8.11257 4.25 7.04154 4.78552 6.35909 5.69545L6.95909 6.14545L6.35909 5.69546L4.16363 8.62273C3.57058 9.41346 3.25 10.3752 3.25 11.3636C3.25 12.3888 3.71813 13.3047 4.4523 13.9091C3.71813 14.5135 3.25 15.4294 3.25 16.4545C3.25 18.2746 4.72542 19.75 6.54545 19.75H18C19.82 19.75 21.2954 18.2746 21.2954 16.4545C21.2954 15.4294 20.8273 14.5135 20.0931 13.9091ZM6.54545 14.6591C5.55385 14.6591 4.75 15.4629 4.75 16.4545C4.75 17.4461 5.55385 18.25 6.54545 18.25H18C18.9916 18.25 19.7954 17.4461 19.7954 16.4545C19.7954 15.4629 18.9916 14.6591 18 14.6591H6.54545ZM14.7045 11.3636C14.7045 10.9494 15.0403 10.6136 15.4545 10.6136H15.4609C15.8751 10.6136 16.2109 10.9494 16.2109 11.3636V11.37C16.2109 11.7842 15.8751 12.12 15.4609 12.12H15.4545C15.0403 12.12 14.7045 11.7842 14.7045 11.37V11.3636ZM17.25 11.3636C17.25 10.9494 17.5858 10.6136 18 10.6136H18.0063C18.4206 10.6136 18.7563 10.9494 18.7563 11.3636V11.37C18.7563 11.7842 18.4206 12.12 18.0063 12.12H18C17.5858 12.12 17.25 11.7842 17.25 11.37V11.3636ZM14.7045 16.4545C14.7045 16.0403 15.0403 15.7045 15.4545 15.7045H15.4609C15.8751 15.7045 16.2109 16.0403 16.2109 16.4545V16.4609C16.2109 16.8751 15.8751 17.2109 15.4609 17.2109H15.4545C15.0403 17.2109 14.7045 16.8751 14.7045 16.4609V16.4545ZM17.25 16.4545C17.25 16.0403 17.5858 15.7045 18 15.7045H18.0063C18.4206 15.7045 18.7563 16.0403 18.7563 16.4545V16.4609C18.7563 16.8751 18.4206 17.2109 18.0063 17.2109H18C17.5858 17.2109 17.25 16.8751 17.25 16.4609V16.4545Z" fill="currentColor"/>
</svg>
