<svg viewBox="0 0 24 24" fill="none" xmlns="http://www.w3.org/2000/svg">
<path fill-rule="evenodd" clip-rule="evenodd" d="M11.2199 3.95545C11.5091 3.68152 11.9621 3.68152 12.2513 3.95545C13.8465 5.46615 15.9985 6.3916 18.3682 6.3916C18.406 6.3916 18.4436 6.39136 18.4812 6.3909C18.8086 6.38683 19.1008 6.59558 19.203 6.90659C19.5395 7.93 19.7212 9.02276 19.7212 10.1565C19.7212 15.0023 16.4069 19.0721 11.9226 20.2263C11.7999 20.2579 11.6713 20.2579 11.5487 20.2263C7.06432 19.0721 3.75 15.0023 3.75 10.1565C3.75 9.02276 3.93172 7.93 4.2682 6.90659C4.37046 6.59558 4.66263 6.38683 4.98999 6.3909C5.02759 6.39136 5.06525 6.3916 5.10297 6.3916C7.47273 6.3916 9.62472 5.46615 11.2199 3.95545ZM5.54305 7.88244C5.35195 8.60764 5.25 9.36966 5.25 10.1565C5.25 14.2337 7.99314 17.6721 11.7356 18.7234C15.4781 17.6721 18.2212 14.2337 18.2212 10.1565C18.2212 9.36966 18.1193 8.60764 17.9282 7.88244C15.5788 7.78454 13.43 6.90653 11.7356 5.50166C10.0412 6.90653 7.89237 7.78454 5.54305 7.88244ZM14.5834 9.54612C14.9205 9.78688 14.9985 10.2553 14.7578 10.5924L11.7429 14.8131C11.6148 14.9925 11.4142 15.1064 11.1945 15.1246C10.9748 15.1428 10.7582 15.0634 10.6023 14.9075L8.79341 13.0986C8.50052 12.8057 8.50052 12.3309 8.79341 12.038C9.0863 11.7451 9.56118 11.7451 9.85407 12.038L11.0369 13.2208L13.5372 9.72049C13.7779 9.38343 14.2463 9.30536 14.5834 9.54612Z" fill="currentColor"/>
</svg>
