<svg viewBox="0 0 24 24" fill="none" xmlns="http://www.w3.org/2000/svg">
<path d="M8.75 4C8.75 3.58579 8.41421 3.25 8 3.25C7.58579 3.25 7.25 3.58579 7.25 4V5.25H6C4.48122 5.25 3.25 6.48122 3.25 8V18C3.25 19.5188 4.48122 20.75 6 20.75H10.5C10.9142 20.75 11.25 20.4142 11.25 20C11.25 19.5858 10.9142 19.25 10.5 19.25H6C5.30964 19.25 4.75 18.6904 4.75 18V10.75H10C10.4142 10.75 10.75 10.4142 10.75 10C10.75 9.58579 10.4142 9.25 10 9.25H4.75V8C4.75 7.30964 5.30964 6.75 6 6.75H18C18.6904 6.75 19.25 7.30964 19.25 8C19.25 8.41421 19.5858 8.75 20 8.75C20.4142 8.75 20.75 8.41421 20.75 8C20.75 6.48122 19.5188 5.25 18 5.25H16.75V4C16.75 3.58579 16.4142 3.25 16 3.25C15.5858 3.25 15.25 3.58579 15.25 4V5.25H8.75V4Z" fill="currentColor"/>
<path d="M16.75 13C16.75 12.5858 16.4142 12.25 16 12.25C15.5858 12.25 15.25 12.5858 15.25 13V15.3807L17.5119 17.3194C17.8264 17.589 18.2999 17.5526 18.5694 17.2381C18.839 16.9236 18.8026 16.4501 18.4881 16.1806L16.75 14.6908V13Z" fill="currentColor"/>
<path fill-rule="evenodd" clip-rule="evenodd" d="M16 20.75C19.3137 20.75 22 18.0637 22 14.75C22 11.4363 19.3137 8.75 16 8.75C12.6863 8.75 10 11.4363 10 14.75C10 18.0637 12.6863 20.75 16 20.75ZM16 19.25C18.4853 19.25 20.5 17.2353 20.5 14.75C20.5 12.2647 18.4853 10.25 16 10.25C13.5147 10.25 11.5 12.2647 11.5 14.75C11.5 17.2353 13.5147 19.25 16 19.25Z" fill="currentColor"/>
</svg>
