<svg viewBox="0 0 24 24" fill="none" xmlns="http://www.w3.org/2000/svg">
<path d="M12.75 8C12.75 7.58579 12.4142 7.25 12 7.25C11.5858 7.25 11.25 7.58579 11.25 8V10.7216L8.87513 9.35048C8.51641 9.14337 8.05771 9.26628 7.85061 9.625C7.6435 9.98372 7.76641 10.4424 8.12513 10.6495L10.4642 12L8.12513 13.3505C7.76641 13.5576 7.6435 14.0163 7.85061 14.375C8.05771 14.7337 8.51641 14.8566 8.87513 14.6495L11.25 13.2784V16C11.25 16.4142 11.5858 16.75 12 16.75C12.4142 16.75 12.75 16.4142 12.75 16V13.3197L15.0533 14.6495C15.412 14.8566 15.8707 14.7337 16.0778 14.375C16.285 14.0163 16.162 13.5576 15.8033 13.3505L13.4642 12L15.8033 10.6495C16.162 10.4424 16.285 9.98372 16.0778 9.625C15.8707 9.26628 15.412 9.14337 15.0533 9.35048L12.75 10.6803V8Z" fill="currentColor"/>
<path fill-rule="evenodd" clip-rule="evenodd" d="M12 3.25C7.16751 3.25 3.25 7.16751 3.25 12C3.25 16.8325 7.16751 20.75 12 20.75C16.8325 20.75 20.75 16.8325 20.75 12C20.75 7.16751 16.8325 3.25 12 3.25ZM4.75 12C4.75 7.99594 7.99594 4.75 12 4.75C16.0041 4.75 19.25 7.99594 19.25 12C19.25 16.0041 16.0041 19.25 12 19.25C7.99594 19.25 4.75 16.0041 4.75 12Z" fill="currentColor"/>
</svg>
