<svg viewBox="0 0 24 24" fill="none" xmlns="http://www.w3.org/2000/svg">
<path fill-rule="evenodd" clip-rule="evenodd" d="M11.6792 3.25C12.0934 3.25 12.4292 3.58579 12.4292 4V5.9198C12.4292 6.33401 12.0934 6.6698 11.6792 6.6698C11.265 6.6698 10.9292 6.33401 10.9292 5.9198V4C10.9292 3.58579 11.265 3.25 11.6792 3.25ZM5.71881 5.71886C6.0117 5.42596 6.48657 5.42596 6.77947 5.71886L8.13698 7.07636C8.42987 7.36925 8.42987 7.84413 8.13698 8.13702C7.84409 8.42991 7.36921 8.42992 7.07632 8.13702L5.71881 6.77952C5.42591 6.48663 5.42591 6.01175 5.71881 5.71886ZM17.6396 5.71886C17.9324 6.01175 17.9324 6.48663 17.6396 6.77952L16.282 8.13702C15.9891 8.42992 15.5143 8.42991 15.2214 8.13702C14.9285 7.84413 14.9285 7.36925 15.2214 7.07636L16.5789 5.71886C16.8718 5.42596 17.3467 5.42596 17.6396 5.71886ZM11.6792 9.22954C10.3263 9.22954 9.2295 10.3263 9.2295 11.6792C9.2295 13.0321 10.3263 14.1289 11.6792 14.1289C13.0321 14.1289 14.1289 13.0321 14.1289 11.6792C14.1289 10.3263 13.0321 9.22954 11.6792 9.22954ZM7.7295 11.6792C7.7295 9.49786 9.49783 7.72954 11.6792 7.72954C13.8605 7.72954 15.6289 9.49786 15.6289 11.6792C15.6289 13.8606 13.8605 15.6289 11.6792 15.6289C9.49783 15.6289 7.7295 13.8606 7.7295 11.6792ZM3.24994 11.6792C3.24994 11.265 3.58573 10.9292 3.99994 10.9292H5.91975C6.33396 10.9292 6.66975 11.265 6.66975 11.6792C6.66975 12.0934 6.33396 12.4292 5.91975 12.4292H3.99994C3.58573 12.4292 3.24994 12.0934 3.24994 11.6792ZM16.6886 11.6792C16.6886 11.265 17.0244 10.9292 17.4386 10.9292H19.3584C19.7726 10.9292 20.1084 11.265 20.1084 11.6792C20.1084 12.0934 19.7726 12.4292 19.3584 12.4292H17.4386C17.0244 12.4292 16.6886 12.0934 16.6886 11.6792ZM8.13698 15.2214C8.42987 15.5143 8.42987 15.9892 8.13698 16.282L6.77947 17.6396C6.48657 17.9324 6.0117 17.9324 5.71881 17.6396C5.42591 17.3467 5.42591 16.8718 5.71881 16.5789L7.07632 15.2214C7.36921 14.9285 7.84409 14.9285 8.13698 15.2214ZM15.2214 15.2214C15.5143 14.9285 15.9891 14.9285 16.282 15.2214L17.6396 16.5789C17.9324 16.8718 17.9324 17.3467 17.6396 17.6396C17.3467 17.9324 16.8718 17.9324 16.5789 17.6396L15.2214 16.282C14.9285 15.9892 14.9285 15.5143 15.2214 15.2214ZM11.6792 16.6886C12.0934 16.6886 12.4292 17.0244 12.4292 17.4386V19.3584C12.4292 19.7726 12.0934 20.1084 11.6792 20.1084C11.265 20.1084 10.9292 19.7726 10.9292 19.3584V17.4386C10.9292 17.0244 11.265 16.6886 11.6792 16.6886Z" fill="currentColor"/>
</svg>
