<svg viewBox="0 0 24 24" fill="none" xmlns="http://www.w3.org/2000/svg">
<path fill-rule="evenodd" clip-rule="evenodd" d="M5.25 5.84615C5.25 4.43035 6.37389 3.25 7.8 3.25H16.2C17.6261 3.25 18.75 4.43035 18.75 5.84615V18.1538C18.75 19.5696 17.6261 20.75 16.2 20.75H7.8C6.37389 20.75 5.25 19.5696 5.25 18.1538V5.84615ZM7.8 4.75C7.23789 4.75 6.75 5.22275 6.75 5.84615V18.1538C6.75 18.7772 7.23789 19.25 7.8 19.25H16.2C16.7621 19.25 17.25 18.7772 17.25 18.1538V5.84615C17.25 5.22275 16.7621 4.75 16.2 4.75H7.8ZM10.05 18.1538C10.05 17.7396 10.3858 17.4038 10.8 17.4038H13.2C13.6142 17.4038 13.95 17.7396 13.95 18.1538C13.95 18.5681 13.6142 18.9038 13.2 18.9038H10.8C10.3858 18.9038 10.05 18.5681 10.05 18.1538Z" fill="currentColor" />
</svg>
