<svg viewBox="0 0 24 24" fill="none" xmlns="http://www.w3.org/2000/svg">
<path fill-rule="evenodd" clip-rule="evenodd" d="M12.4165 4.58333C12.4165 3.84695 13.0135 3.25 13.7498 3.25C15.1305 3.25 16.2498 4.36929 16.2498 5.75C16.2498 6.73022 16.0351 7.66227 15.6495 8.5H17.9325C19.0434 8.5 20.1438 9.26226 20.2761 10.5044C20.3138 10.8591 20.3332 11.2191 20.3332 11.5833C20.3332 13.9754 19.4993 16.1748 18.107 17.9036C17.6433 18.4793 16.9487 18.75 16.2747 18.75H13.1511C12.6943 18.75 12.2405 18.6764 11.8072 18.5319L9.38483 17.7245C9.10442 17.631 8.81078 17.5833 8.5152 17.5833H8.26345C8.22988 18.1815 7.78133 18.75 7.06147 18.75H6.35542C5.39062 18.75 4.41752 18.1823 4.10403 17.1548C3.81937 16.2219 3.6665 15.2323 3.6665 14.2083C3.6665 12.9052 3.91408 11.6581 4.36545 10.5128C4.73323 9.57952 5.65056 9.08333 6.55489 9.08333H7.37371C7.78998 9.08333 8.11117 9.26883 8.31688 9.53889C8.49548 9.44576 8.66669 9.3028 8.8151 9.11357C9.48042 8.26524 10.319 7.55903 11.2783 7.04819C11.7368 6.80401 12.0686 6.47538 12.2198 6.09729C12.3497 5.77246 12.4165 5.42582 12.4165 5.07596V4.58333ZM6.8983 10.5833H6.55489C6.16497 10.5833 5.86774 10.7919 5.76099 11.0627C5.37751 12.0358 5.1665 13.0965 5.1665 14.2083C5.1665 15.0823 5.29688 15.9244 5.53873 16.7171C5.62869 17.0119 5.93777 17.25 6.35542 17.25H6.61971C6.60055 17.2051 6.5818 17.16 6.56346 17.1147C6.19975 16.2162 5.99984 15.2347 5.99984 14.2083C5.99984 12.8999 6.32464 11.6656 6.8983 10.5833ZM8.31618 11.1175C9.01211 10.9769 9.59503 10.5497 9.9954 10.0392C10.5328 9.35406 11.2099 8.78403 11.9833 8.37214C12.6482 8.01809 13.2911 7.45795 13.6125 6.65437C13.8133 6.15236 13.9165 5.61664 13.9165 5.07596V4.76383C14.3895 4.84317 14.7498 5.2545 14.7498 5.75C14.7498 6.53192 14.5738 7.27063 14.2599 7.9305C14.1716 8.11612 14.1276 8.30971 14.1206 8.5H13.7498C13.3356 8.5 12.9998 8.83579 12.9998 9.25C12.9998 9.66421 13.3356 10 13.7498 10H17.9325C18.4187 10 18.7477 10.3173 18.7845 10.6632C18.8167 10.9653 18.8332 11.2722 18.8332 11.5833C18.8332 13.6209 18.1241 15.4908 16.9387 16.9627C16.7994 17.1357 16.562 17.25 16.2747 17.25H13.1511C12.8556 17.25 12.5619 17.2023 12.2815 17.1089L9.85917 16.3014C9.42581 16.157 8.972 16.0833 8.5152 16.0833H7.78575C7.6001 15.4921 7.49984 14.8625 7.49984 14.2083C7.49984 13.0827 7.79675 12.0285 8.31618 11.1175Z" fill="currentColor"/>
</svg>
