<svg viewBox="0 0 24 24" fill="none" xmlns="http://www.w3.org/2000/svg">
<path fill-rule="evenodd" clip-rule="evenodd" d="M12 5.75C8.54822 5.75 5.75 8.54822 5.75 12C5.75 13.5834 6.33815 15.0288 7.30942 16.1307C8.50276 14.9192 10.1636 14.1667 12 14.1667C13.8364 14.1667 15.4972 14.9192 16.6906 16.1307C17.6618 15.0288 18.25 13.5834 18.25 12C18.25 8.54822 15.4518 5.75 12 5.75ZM15.5698 17.131C14.6513 16.2247 13.3909 15.6667 12 15.6667C10.6091 15.6667 9.34875 16.2247 8.43021 17.131C9.44232 17.8367 10.6723 18.25 12 18.25C13.3277 18.25 14.5577 17.8367 15.5698 17.131ZM4.25 12C4.25 7.71979 7.71979 4.25 12 4.25C16.2802 4.25 19.75 7.71979 19.75 12C19.75 14.303 18.7445 16.3722 17.151 17.7906C15.7822 19.0089 13.9768 19.75 12 19.75C10.0232 19.75 8.21776 19.0089 6.84904 17.7906C5.25551 16.3722 4.25 14.303 4.25 12ZM12 8.66667C11.1255 8.66667 10.4167 9.37555 10.4167 10.25C10.4167 11.1245 11.1255 11.8333 12 11.8333C12.8745 11.8333 13.5833 11.1245 13.5833 10.25C13.5833 9.37555 12.8745 8.66667 12 8.66667ZM8.91667 10.25C8.91667 8.54712 10.2971 7.16667 12 7.16667C13.7029 7.16667 15.0833 8.54712 15.0833 10.25C15.0833 11.9529 13.7029 13.3333 12 13.3333C10.2971 13.3333 8.91667 11.9529 8.91667 10.25Z" fill="currentColor"/>
</svg>
