<svg viewBox="0 0 24 24" fill="none" xmlns="http://www.w3.org/2000/svg">
<path fill-rule="evenodd" clip-rule="evenodd" d="M3.25 6.975C3.25 6.02232 4.0223 5.25 4.97499 5.25H18.6249C19.5776 5.25 20.3499 6.02232 20.3499 6.975V18.025C20.3499 18.9777 19.5776 19.75 18.6249 19.75H4.97499C4.0223 19.75 3.25 18.9777 3.25 18.025V6.975ZM9.94995 18.25H13.6499V6.75H9.94995V18.25ZM8.44995 6.75V18.25H4.97499C4.85074 18.25 4.75 18.1493 4.75 18.025V6.975C4.75 6.85073 4.85074 6.75 4.97499 6.75H8.44995ZM15.1499 6.75V18.25H18.6249C18.7491 18.25 18.8499 18.1493 18.8499 18.025V6.975C18.8499 6.85073 18.7491 6.75 18.6249 6.75H15.1499Z" fill="currentColor"/>
</svg>
