<svg viewBox="0 0 24 24" fill="none" xmlns="http://www.w3.org/2000/svg">
<path d="M7.96978 16.0303C7.67689 15.7374 7.67689 15.2626 7.96978 14.9697L10.9394 12.0001L7.96967 9.03034C7.67678 8.73744 7.67678 8.26257 7.96967 7.96968C8.26256 7.67678 8.73744 7.67678 9.03033 7.96968L12.0001 10.9394L14.9698 7.96967C15.2627 7.67678 15.7375 7.67678 16.0304 7.96967C16.3233 8.26256 16.3233 8.73744 16.0304 9.03033L13.0607 12.0001L16.0303 14.9697C16.3232 15.2626 16.3232 15.7374 16.0303 16.0303C15.7374 16.3232 15.2626 16.3232 14.9697 16.0303L12.0001 13.0607L9.03044 16.0303C8.73755 16.3232 8.26268 16.3232 7.96978 16.0303Z" fill="currentColor"/>
<path fill-rule="evenodd" clip-rule="evenodd" d="M12 3.25C7.16751 3.25 3.25 7.16751 3.25 12C3.25 16.8325 7.16751 20.75 12 20.75C16.8325 20.75 20.75 16.8325 20.75 12C20.75 7.16751 16.8325 3.25 12 3.25ZM4.75 12C4.75 7.99594 7.99594 4.75 12 4.75C16.0041 4.75 19.25 7.99594 19.25 12C19.25 16.0041 16.0041 19.25 12 19.25C7.99594 19.25 4.75 16.0041 4.75 12Z" fill="currentColor"/>
</svg>
