<svg width="122" height="32" viewBox="0 0 122 32" fill="none" xmlns="http://www.w3.org/2000/svg">
<g clip-path="url(#clip0_6221_72113)">
<path d="M11.0689 1.86194H2.54202V2.08765C1.98014 2.12432 1.45271 2.37277 1.06511 2.78337C0.677511 3.19397 0.458278 3.73647 0.451215 4.3025V28.1391C0.446611 28.4344 0.497389 28.7279 0.600892 29.0043C0.762552 29.4197 1.04492 29.7764 1.41119 30.028C1.77746 30.2797 2.21065 30.4146 2.65427 30.4151C3.09775 30.4139 3.53065 30.2788 3.8968 30.0272C4.26295 29.7757 4.54545 29.4193 4.70765 29.0043C4.81536 28.7291 4.86629 28.4347 4.85733 28.1391V18.7342H10.7555C15.3862 18.7342 19.2684 14.9441 19.2684 10.5144C19.2684 5.80257 15.4984 1.86194 11.0689 1.86194ZM10.7555 14.2481H4.85733V6.34805H11.0689C13.0334 6.34805 14.8109 8.31837 14.8109 10.5003C14.8109 12.4612 12.9399 14.2481 10.7555 14.2481Z" fill="#334155"/>
<path d="M35.1711 1.8108C31.8921 1.80638 28.713 2.94515 26.1756 5.03307C23.6381 7.121 21.8993 10.0289 21.2554 13.2612C20.6116 16.4936 21.1024 19.8504 22.6444 22.7596C24.1864 25.6689 26.6841 27.9506 29.7119 29.216C32.7397 30.4814 36.1103 30.6521 39.2493 29.6991C42.3882 28.7461 45.1014 26.7283 46.9265 23.9896C48.7515 21.2509 49.5755 17.9607 49.258 14.6796C48.9405 11.3986 47.5013 8.32972 45.1854 5.99596C43.8721 4.67034 42.3115 3.6183 40.5931 2.90013C38.8746 2.18196 37.0321 1.81178 35.1711 1.8108ZM35.1711 25.7603C32.9312 25.7701 30.7573 24.9985 29.02 23.577C27.2828 22.1555 26.0898 20.1722 25.6445 17.9652C25.1992 15.7583 25.5292 13.4644 26.5781 11.4747C27.6271 9.48503 29.3301 7.92276 31.3967 7.05432C33.4634 6.18588 35.7657 6.06505 37.911 6.71243C40.0564 7.35981 41.9119 8.73532 43.1613 10.6044C44.4106 12.4735 44.9763 14.7203 44.762 16.9619C44.5477 19.2035 43.5666 21.3009 41.9861 22.8965C41.0928 23.8004 40.0312 24.5185 38.8619 25.0099C37.6926 25.5012 36.4384 25.7562 35.1711 25.7603Z" fill="#334155"/>
<path d="M91.1176 1.86193H73.554C73.2269 1.79763 72.8898 1.80643 72.5664 1.88769C72.2431 1.96896 71.9415 2.1207 71.683 2.33217C71.4287 2.54824 71.2245 2.81763 71.0847 3.12144C70.9449 3.42526 70.873 3.75614 70.8738 4.09088V21.3441L56.6171 2.72717C56.6171 2.68955 56.6171 2.68955 56.5797 2.68955C56.5423 2.68955 56.5423 2.61432 56.5048 2.5767L56.4394 2.50146L56.3645 2.42622L56.2897 2.35098C56.2523 2.35098 56.2523 2.31336 56.2148 2.31336C56.1774 2.31336 56.14 2.23812 56.1026 2.23812C56.0652 2.23812 56.0652 2.2005 56.0277 2.16288C55.9903 2.12526 55.9529 2.12526 55.9155 2.12526L55.8407 2.05002C55.8032 2.05002 55.7658 2.01241 55.7284 2.01241C55.691 2.01241 55.6536 1.97479 55.6161 1.97479C55.5884 1.96898 55.5626 1.95601 55.5413 1.93717L55.401 1.89955C55.3723 1.89672 55.3456 1.88332 55.3261 1.86193H55.2139C55.1939 1.86655 55.1731 1.86655 55.1531 1.86193C55.1343 1.85379 55.1169 1.84267 55.1016 1.82901H54.6339C54.6139 1.82454 54.5931 1.82454 54.5731 1.82901C54.5537 1.83367 54.536 1.84341 54.5216 1.85723H54.3486C54.3298 1.86537 54.3124 1.87648 54.2971 1.89014H54.1848C54.1696 1.9038 54.1522 1.91492 54.1334 1.92306H54.1007C54.0632 1.96068 54.0632 1.96068 54.0258 1.96068L53.9136 2.03592C53.8935 2.03145 53.8728 2.03145 53.8528 2.03592L53.8013 2.06883C53.7686 2.06883 53.7311 2.10645 53.6937 2.10645C53.6563 2.10645 53.6516 2.14407 53.6189 2.18169C53.5861 2.21931 53.544 2.21931 53.5066 2.25693H53.4598L53.385 2.33217L53.3102 2.40741L53.1652 2.53908L53.0529 2.65194C53.0323 2.67201 53.0191 2.69855 53.0155 2.72717L52.9407 2.80241C52.9209 2.82308 52.9078 2.84933 52.9032 2.87765C52.8658 2.91527 52.8284 2.95289 52.8284 2.98581C52.8154 3.00256 52.8059 3.02174 52.8003 3.04224C52.7954 3.06231 52.7954 3.08329 52.8003 3.10337L52.7255 3.21152C52.7255 3.24914 52.6928 3.28676 52.6928 3.32438C52.671 3.34422 52.6562 3.37062 52.6507 3.39962C52.6554 3.41972 52.6554 3.44066 52.6507 3.46075C52.6443 3.48051 52.633 3.49831 52.6179 3.51248V3.62534C52.6042 3.63978 52.5945 3.65763 52.5899 3.67706C52.5854 3.6972 52.5854 3.71806 52.5899 3.7382V3.85576C52.5899 3.89338 52.5899 3.93099 52.5571 3.93099V28.0262C52.5414 28.3306 52.5892 28.6349 52.6974 28.9197C52.8034 29.1958 52.9623 29.4482 53.1652 29.6627C53.4853 29.9812 53.8918 30.1976 54.3337 30.2848C54.7756 30.372 55.2333 30.3261 55.6494 30.1529C56.0655 29.9796 56.4215 29.6867 56.6727 29.3109C56.9239 28.9351 57.0591 28.4931 57.0615 28.0403V10.7965L71.3229 29.4134V29.4511C71.3603 29.4887 71.3977 29.5639 71.4632 29.5968C71.5006 29.6721 71.5754 29.705 71.6129 29.7379C71.6503 29.7708 71.6877 29.7755 71.6877 29.8131C71.6877 29.8508 71.7625 29.8508 71.8327 29.8884C71.8327 29.926 71.8701 29.926 71.9075 29.926C71.945 29.926 71.9824 30.0012 72.0198 30.0012C72.0351 30.0149 72.0525 30.026 72.0713 30.0342C72.0913 30.0388 72.1121 30.0388 72.1321 30.0342C72.1695 30.0718 72.2069 30.1094 72.2443 30.1094C72.2725 30.114 72.2986 30.1271 72.3192 30.147C72.394 30.147 72.4314 30.1846 72.5063 30.1846C72.5811 30.1846 72.5437 30.1846 72.5811 30.2223H72.7635L72.8009 30.2599H73.0629C73.1642 30.2689 73.2662 30.256 73.3622 30.2223H73.4371C73.5527 30.2162 73.6665 30.1908 73.7738 30.147H73.8112C73.9235 30.1094 73.9983 30.0342 74.1106 29.9965C74.2157 29.9428 74.3159 29.8799 74.41 29.8084H74.4474C74.4481 29.7888 74.4565 29.7702 74.4708 29.7567C74.4875 29.7516 74.5054 29.7516 74.5222 29.7567C74.5596 29.7191 74.5596 29.6815 74.5971 29.6815C74.6345 29.6815 74.6345 29.6062 74.6719 29.6062C74.7093 29.6062 74.7467 29.5357 74.7467 29.4934C74.7467 29.4511 74.7795 29.4558 74.8169 29.4181C74.8543 29.3805 74.8543 29.3805 74.8964 29.3476C74.896 29.3329 74.8992 29.3184 74.9058 29.3053C74.9123 29.2922 74.9219 29.2809 74.9338 29.2724L75.0227 29.1736C75.0227 29.136 75.0601 29.1031 75.0601 29.0655C75.073 29.0504 75.0825 29.0328 75.0882 29.0137C75.0923 28.9936 75.0923 28.9728 75.0882 28.9526L75.163 28.8397C75.1626 28.8251 75.1658 28.8105 75.1724 28.7974C75.1789 28.7843 75.1885 28.773 75.2004 28.7645V28.6516C75.214 28.6363 75.2251 28.6188 75.2332 28.5999C75.2355 28.5796 75.2355 28.5591 75.2332 28.5388C75.2286 28.5187 75.2286 28.4978 75.2332 28.4777C75.2413 28.4588 75.2523 28.4413 75.2659 28.4259V28.0874H75.294V6.4562H79.4382V28.0638C79.4382 28.6662 79.6762 29.2439 80.0999 29.6699C80.5235 30.0958 81.0982 30.3351 81.6974 30.3351C82.2965 30.3351 82.8712 30.0958 83.2948 29.6699C83.7185 29.2439 83.9565 28.6662 83.9565 28.0638V6.40447H90.9726C91.5718 6.40447 92.1465 6.16518 92.5701 5.73923C92.9938 5.31328 93.2318 4.73558 93.2318 4.1332C93.2318 3.53082 92.9938 2.95311 92.5701 2.52717C92.1465 2.10122 91.5718 1.86193 90.9726 1.86193H91.1176Z" fill="#334155"/>
<path d="M109.823 32C109.544 31.9998 109.27 31.928 109.026 31.7915C108.783 31.655 108.578 31.4583 108.432 31.22C108.285 30.9817 108.201 30.7097 108.189 30.4298C108.176 30.1499 108.234 29.8714 108.359 29.6206C109.297 27.7383 110.058 25.772 110.632 23.7472C110.682 23.5308 110.776 23.3269 110.907 23.1479C111.038 22.9689 111.204 22.8184 111.394 22.7055C111.585 22.5926 111.796 22.5198 112.015 22.4912C112.235 22.4627 112.458 22.4791 112.67 22.5395C112.883 22.5999 113.082 22.703 113.254 22.8427C113.426 22.9823 113.568 23.1555 113.672 23.3518C113.775 23.5482 113.838 23.7636 113.857 23.9851C113.875 24.2067 113.849 24.4297 113.78 24.6407C113.154 26.8729 112.321 29.0409 111.291 31.1159C111.151 31.3845 110.939 31.609 110.68 31.765C110.421 31.9209 110.124 32.0022 109.823 32ZM102.746 31.5627C102.438 31.561 102.137 31.4731 101.876 31.3087C101.509 31.0764 101.249 30.7073 101.152 30.2824C101.056 29.8575 101.131 29.4115 101.361 29.0422C104.073 24.6883 105.51 19.6537 105.505 14.5164C105.505 14.0799 105.678 13.6613 105.985 13.3526C106.292 13.0439 106.708 12.8705 107.142 12.8705C107.577 12.8705 107.993 13.0439 108.3 13.3526C108.607 13.6613 108.78 14.0799 108.78 14.5164C108.791 20.2745 107.186 25.9189 104.149 30.8009C103.999 31.0373 103.791 31.2313 103.545 31.3646C103.3 31.4979 103.025 31.566 102.746 31.5627ZM97.2591 28.271C96.9702 28.2703 96.6866 28.1929 96.4371 28.0464C96.1876 27.8999 95.9811 27.6897 95.8386 27.437C95.6961 27.1844 95.6226 26.8983 95.6256 26.6079C95.6287 26.3174 95.7081 26.033 95.8558 25.7834L95.94 25.6376C98.0302 22.3079 99.135 18.449 99.1253 14.5117C99.0995 13.4365 99.2878 12.3671 99.6792 11.3662C100.071 10.3653 100.657 9.45324 101.404 8.68365C102.152 7.91406 103.044 7.3025 104.03 6.88495C105.016 6.4674 106.075 6.2523 107.145 6.2523C108.214 6.2523 109.273 6.4674 110.259 6.88495C111.245 7.3025 112.138 7.91406 112.885 8.68365C113.632 9.45324 114.219 10.3653 114.61 11.3662C115.002 12.3671 115.19 13.4365 115.164 14.5117C115.164 16.2008 115.051 17.888 114.827 19.5621C114.769 19.9949 114.542 20.3866 114.197 20.6512C113.851 20.9157 113.415 21.0314 112.985 20.9728C112.554 20.9142 112.164 20.6861 111.901 20.3386C111.638 19.9911 111.523 19.5528 111.581 19.1201C111.787 17.5926 111.89 16.053 111.89 14.5117C111.91 13.8726 111.802 13.236 111.572 12.6397C111.343 12.0433 110.997 11.4994 110.554 11.0403C110.111 10.5811 109.582 10.216 108.996 9.96671C108.41 9.7174 107.781 9.58893 107.145 9.58893C106.509 9.58893 105.879 9.7174 105.294 9.96671C104.708 10.216 104.178 10.5811 103.735 11.0403C103.293 11.4994 102.947 12.0433 102.717 12.6397C102.488 13.236 102.38 13.8726 102.4 14.5117C102.411 19.0559 101.141 23.5103 98.7371 27.3587L98.6716 27.4716C98.5267 27.7174 98.3207 27.9211 98.0739 28.0629C97.8272 28.2047 97.548 28.2796 97.2637 28.2804L97.2591 28.271ZM118.307 27.6267C118.059 27.6203 117.816 27.5569 117.595 27.4415C117.375 27.3261 117.184 27.1617 117.036 26.9608C116.889 26.7599 116.789 26.5278 116.744 26.2822C116.699 26.0366 116.711 25.784 116.778 25.5436C117.786 21.9557 118.296 18.2448 118.293 14.5164C118.296 13.0432 118.009 11.584 117.45 10.2223C116.891 8.86057 116.071 7.62303 115.035 6.58047C114 5.53792 112.77 4.71081 111.417 4.14649C110.063 3.58217 108.612 3.2917 107.147 3.2917C105.193 3.29333 103.273 3.81232 101.581 4.79647C101.205 5.01535 100.758 5.07515 100.338 4.96271C99.9187 4.85027 99.5606 4.5748 99.3428 4.19691C99.1251 3.81902 99.0657 3.36966 99.1775 2.94769C99.2893 2.52571 99.5633 2.16568 99.9392 1.9468C102.129 0.671136 104.616 -0.000438566 107.147 2.14874e-07C110.972 0.00623146 114.638 1.53948 117.339 4.26258C120.039 6.98567 121.554 10.6757 121.549 14.5211C121.552 18.5518 120.999 22.5634 119.907 26.4417C119.809 26.7861 119.603 27.0891 119.318 27.3046C119.034 27.5202 118.687 27.6366 118.331 27.6362L118.307 27.6267ZM92.7828 23.183C92.5364 23.1834 92.2932 23.1271 92.0718 23.0184C91.6813 22.8286 91.3816 22.4907 91.2387 22.0789C91.0957 21.6672 91.1212 21.2152 91.3094 20.8223C92.2569 18.857 92.7464 16.7004 92.7407 14.5164C92.7417 11.9701 93.4061 9.46844 94.6678 7.26054C94.8849 6.88203 95.2426 6.60572 95.6624 6.4924C96.0821 6.37908 96.5294 6.43803 96.9059 6.65628C97.2824 6.87454 97.5573 7.23421 97.67 7.65619C97.7827 8.07817 97.7241 8.52788 97.507 8.90639C96.5281 10.6122 96.0135 12.5471 96.0149 14.5164C96.0225 17.1974 95.421 19.8448 94.2562 22.2566C94.1227 22.5352 93.9135 22.77 93.6527 22.934C93.392 23.0979 93.0903 23.1843 92.7828 23.183Z" fill="#1D4ED8"/>
</g>
<defs>
<clipPath id="clip0_6221_72113">
<rect width="121.098" height="32" fill="white" transform="translate(0.450928)"/>
</clipPath>
</defs>
</svg>
