<svg viewBox="0 0 25 24" fill="none" xmlns="http://www.w3.org/2000/svg">
<path fill-rule="evenodd" clip-rule="evenodd" d="M23.54 12.2624C23.54 11.447 23.4668 10.6629 23.3309 9.91016H12.5V14.3586H18.6891C18.4225 15.7961 17.6123 17.014 16.3943 17.8295V20.7149H20.1109C22.2855 18.7129 23.54 15.7647 23.54 12.2624Z" fill="#4285F4"/>
<path fill-rule="evenodd" clip-rule="evenodd" d="M12.5005 23.4986C15.6055 23.4986 18.2086 22.4688 20.1114 20.7125L16.3948 17.827C15.365 18.517 14.0477 18.9247 12.5005 18.9247C9.50522 18.9247 6.97 16.9018 6.06568 14.1836H2.22363V17.1631C4.11591 20.9215 8.005 23.4986 12.5005 23.4986Z" fill="#34A853"/>
<path fill-rule="evenodd" clip-rule="evenodd" d="M6.06523 14.1855C5.83523 13.4955 5.70455 12.7584 5.70455 12.0005C5.70455 11.2425 5.83523 10.5055 6.06523 9.81548V6.83594H2.22318C1.44432 8.38844 1 10.1448 1 12.0005C1 13.8562 1.44432 15.6125 2.22318 17.165L6.06523 14.1855Z" fill="#FBBC05"/>
<path fill-rule="evenodd" clip-rule="evenodd" d="M12.5005 5.07386C14.1889 5.07386 15.7048 5.65409 16.8966 6.79364L20.195 3.49523C18.2034 1.63955 15.6002 0.5 12.5005 0.5C8.005 0.5 4.11591 3.07705 2.22363 6.83545L6.06568 9.815C6.97 7.09682 9.50522 5.07386 12.5005 5.07386Z" fill="#EA4335"/>
</svg>